<svg width="234" height="71" viewBox="0 0 234 71" fill="none" xmlns="http://www.w3.org/2000/svg">
<g filter="url(#filter0_d_158_523)">
<path fill-rule="evenodd" clip-rule="evenodd" d="M102 62.3538L53 0L3.99997 62.3538H19.7284L53 20.0149L86.2715 62.3538H102Z" fill="#0F242B"/>
<path d="M53 62.3538L95.4167 31.1047H10.5834L53 62.3538Z" fill="white"/>
<path d="M120.592 31L116.832 20.984H116.768C116.8 21.3147 116.827 21.7627 116.848 22.328C116.869 22.8827 116.88 23.464 116.88 24.072V31H115.552V19.576H117.68L121.2 28.936H121.264L124.848 19.576H126.96V31H125.536V23.976C125.536 23.4213 125.547 22.872 125.568 22.328C125.6 21.784 125.627 21.3413 125.648 21H125.584L121.776 31H120.592ZM133.188 22.264C133.913 22.264 134.542 22.424 135.076 22.744C135.609 23.064 136.014 23.5173 136.292 24.104C136.58 24.68 136.724 25.3573 136.724 26.136V26.984H130.852C130.873 27.9547 131.118 28.696 131.588 29.208C132.068 29.7093 132.734 29.96 133.588 29.96C134.132 29.96 134.612 29.912 135.028 29.816C135.454 29.7093 135.892 29.56 136.34 29.368V30.6C135.902 30.792 135.47 30.9307 135.044 31.016C134.617 31.112 134.11 31.16 133.524 31.16C132.702 31.16 131.982 30.9947 131.364 30.664C130.745 30.3333 130.26 29.8427 129.908 29.192C129.566 28.5413 129.396 27.736 129.396 26.776C129.396 25.8373 129.55 25.032 129.86 24.36C130.18 23.688 130.622 23.1707 131.188 22.808C131.764 22.4453 132.43 22.264 133.188 22.264ZM133.172 23.416C132.5 23.416 131.966 23.6347 131.572 24.072C131.188 24.4987 130.958 25.096 130.884 25.864H135.252C135.241 25.1387 135.07 24.552 134.74 24.104C134.409 23.6453 133.886 23.416 133.172 23.416ZM138.459 25.848C138.459 23.9707 138.742 22.5093 139.307 21.464C139.872 20.4187 140.784 19.7573 142.043 19.48C142.736 19.3307 143.414 19.1973 144.075 19.08C144.736 18.9627 145.355 18.856 145.931 18.76L146.171 19.992C145.798 20.056 145.376 20.1253 144.907 20.2C144.438 20.2747 143.974 20.3547 143.515 20.44C143.056 20.5253 142.662 20.6 142.331 20.664C141.638 20.8133 141.088 21.176 140.683 21.752C140.278 22.328 140.048 23.2133 139.995 24.408H140.091C140.24 24.2053 140.443 23.9973 140.699 23.784C140.966 23.5707 141.28 23.3893 141.643 23.24C142.016 23.0907 142.438 23.016 142.907 23.016C144.016 23.016 144.854 23.3733 145.419 24.088C145.984 24.8027 146.267 25.7307 146.267 26.872C146.267 27.832 146.102 28.632 145.771 29.272C145.44 29.9013 144.976 30.376 144.379 30.696C143.792 31.0053 143.115 31.16 142.347 31.16C141.163 31.16 140.219 30.7067 139.515 29.8C138.811 28.8933 138.459 27.576 138.459 25.848ZM142.459 29.992C143.152 29.992 143.712 29.768 144.139 29.32C144.566 28.872 144.779 28.104 144.779 27.016C144.779 26.1413 144.614 25.4533 144.283 24.952C143.963 24.44 143.43 24.184 142.683 24.184C142.203 24.184 141.771 24.2907 141.387 24.504C141.014 24.7067 140.694 24.9413 140.427 25.208C140.171 25.4747 139.995 25.6987 139.899 25.88C139.899 26.4027 139.936 26.9093 140.011 27.4C140.086 27.8907 140.214 28.3333 140.395 28.728C140.587 29.112 140.848 29.4213 141.179 29.656C141.52 29.88 141.947 29.992 142.459 29.992ZM151.797 22.264C152.522 22.264 153.152 22.424 153.685 22.744C154.218 23.064 154.624 23.5173 154.901 24.104C155.189 24.68 155.333 25.3573 155.333 26.136V26.984H149.461C149.482 27.9547 149.728 28.696 150.197 29.208C150.677 29.7093 151.344 29.96 152.197 29.96C152.741 29.96 153.221 29.912 153.637 29.816C154.064 29.7093 154.501 29.56 154.949 29.368V30.6C154.512 30.792 154.08 30.9307 153.653 31.016C153.226 31.112 152.72 31.16 152.133 31.16C151.312 31.16 150.592 30.9947 149.973 30.664C149.354 30.3333 148.869 29.8427 148.517 29.192C148.176 28.5413 148.005 27.736 148.005 26.776C148.005 25.8373 148.16 25.032 148.469 24.36C148.789 23.688 149.232 23.1707 149.797 22.808C150.373 22.4453 151.04 22.264 151.797 22.264ZM151.781 23.416C151.109 23.416 150.576 23.6347 150.181 24.072C149.797 24.4987 149.568 25.096 149.493 25.864H153.861C153.85 25.1387 153.68 24.552 153.349 24.104C153.018 23.6453 152.496 23.416 151.781 23.416ZM164.044 31H162.62V23.592H160.092C159.954 25.3947 159.762 26.8507 159.516 27.96C159.271 29.0587 158.94 29.8587 158.524 30.36C158.119 30.8613 157.612 31.112 157.004 31.112C156.866 31.112 156.727 31.1013 156.588 31.08C156.46 31.0693 156.354 31.0427 156.268 31V29.944C156.332 29.9653 156.402 29.9813 156.476 29.992C156.551 30.0027 156.626 30.008 156.7 30.008C157.276 30.008 157.735 29.3947 158.076 28.168C158.428 26.9413 158.695 25.0267 158.876 22.424H164.044V31ZM168.174 25.944H170.718C172.948 25.944 174.062 26.7547 174.062 28.376C174.062 29.176 173.79 29.816 173.246 30.296C172.702 30.7653 171.838 31 170.654 31H166.766V22.424H168.174V25.944ZM172.654 28.456C172.654 27.9333 172.468 27.5813 172.094 27.4C171.732 27.208 171.22 27.112 170.558 27.112H168.174V29.864H170.59C171.188 29.864 171.678 29.7573 172.062 29.544C172.457 29.3307 172.654 28.968 172.654 28.456ZM177.674 22.424V25.992H182.33V22.424H183.738V31H182.33V27.176H177.674V31H176.266V22.424H177.674ZM186.454 31V22.424H187.862V25.944H190.086C191.195 25.944 192.016 26.1467 192.55 26.552C193.083 26.9573 193.35 27.5653 193.35 28.376C193.35 29.176 193.088 29.816 192.566 30.296C192.043 30.7653 191.195 31 190.022 31H186.454ZM194.774 31V22.424H196.182V31H194.774ZM187.862 29.864H189.894C190.502 29.864 190.998 29.7627 191.382 29.56C191.766 29.3467 191.958 28.9787 191.958 28.456C191.958 27.9333 191.776 27.5813 191.414 27.4C191.062 27.208 190.56 27.112 189.91 27.112H187.862V29.864ZM200.235 22.424V27.656C200.235 27.7947 200.23 27.992 200.219 28.248C200.208 28.4933 200.192 28.7493 200.171 29.016C200.16 29.272 200.15 29.4693 200.139 29.608L204.731 22.424H206.459V31H205.147V25.944C205.147 25.7733 205.147 25.5493 205.147 25.272C205.158 24.9947 205.168 24.7227 205.179 24.456C205.19 24.1787 205.2 23.9707 205.211 23.832L200.651 31H198.907V22.424H200.235ZM205.851 18.872C205.776 19.672 205.504 20.28 205.035 20.696C204.576 21.1013 203.84 21.304 202.827 21.304C201.782 21.304 201.04 21.1013 200.603 20.696C200.176 20.2907 199.936 19.6827 199.883 18.872H201.195C201.248 19.448 201.398 19.8373 201.643 20.04C201.888 20.232 202.294 20.328 202.859 20.328C203.35 20.328 203.734 20.2267 204.011 20.024C204.299 19.8107 204.47 19.4267 204.523 18.872H205.851ZM122.72 51L121.344 47.464H116.816L115.456 51H114L118.464 39.528H119.76L124.208 51H122.72ZM120.912 46.184L119.632 42.728C119.6 42.6427 119.547 42.488 119.472 42.264C119.397 42.04 119.323 41.8107 119.248 41.576C119.184 41.3307 119.131 41.144 119.088 41.016C119.003 41.3467 118.912 41.672 118.816 41.992C118.731 42.3013 118.656 42.5467 118.592 42.728L117.296 46.184H120.912ZM132.107 51H130.683V43.592H128.155C128.016 45.3947 127.824 46.8507 127.579 47.96C127.333 49.0587 127.003 49.8587 126.587 50.36C126.181 50.8613 125.675 51.112 125.067 51.112C124.928 51.112 124.789 51.1013 124.651 51.08C124.523 51.0693 124.416 51.0427 124.331 51V49.944C124.395 49.9653 124.464 49.9813 124.539 49.992C124.613 50.0027 124.688 50.008 124.763 50.008C125.339 50.008 125.797 49.3947 126.139 48.168C126.491 46.9413 126.757 45.0267 126.939 42.424H132.107V51ZM136.237 45.944H138.781C141.01 45.944 142.125 46.7547 142.125 48.376C142.125 49.176 141.853 49.816 141.309 50.296C140.765 50.7653 139.901 51 138.717 51H134.829V42.424H136.237V45.944ZM140.717 48.456C140.717 47.9333 140.53 47.5813 140.157 47.4C139.794 47.208 139.282 47.112 138.621 47.112H136.237V49.864H138.653C139.25 49.864 139.741 49.7573 140.125 49.544C140.519 49.3307 140.717 48.968 140.717 48.456ZM144.857 51H143.225L145.673 47.4C145.342 47.3253 145.022 47.192 144.713 47C144.403 46.808 144.153 46.5467 143.961 46.216C143.769 45.8853 143.673 45.464 143.673 44.952C143.673 44.1413 143.95 43.5173 144.505 43.08C145.059 42.6427 145.795 42.424 146.713 42.424H150.553V51H149.145V47.592H147.065L144.857 51ZM145.033 44.968C145.033 45.4693 145.214 45.8373 145.577 46.072C145.95 46.3067 146.467 46.424 147.129 46.424H149.145V43.592H146.857C146.206 43.592 145.737 43.7253 145.449 43.992C145.171 44.248 145.033 44.5733 145.033 44.968ZM154.674 42.424V45.992H159.33V42.424H160.738V51H159.33V47.176H154.674V51H153.266V42.424H154.674ZM166.894 51.16C166.126 51.16 165.448 51.0053 164.862 50.696C164.275 50.3867 163.811 49.9067 163.47 49.256C163.139 48.6053 162.974 47.7733 162.974 46.76C162.974 45.704 163.144 44.8453 163.486 44.184C163.838 43.5227 164.318 43.0373 164.926 42.728C165.534 42.4187 166.222 42.264 166.99 42.264C167.416 42.264 167.832 42.312 168.238 42.408C168.654 42.4933 168.99 42.6 169.246 42.728L168.814 43.896C168.558 43.8 168.259 43.7093 167.918 43.624C167.576 43.5387 167.256 43.496 166.958 43.496C165.272 43.496 164.43 44.5787 164.43 46.744C164.43 47.7787 164.632 48.5733 165.038 49.128C165.454 49.672 166.067 49.944 166.878 49.944C167.336 49.944 167.747 49.896 168.11 49.8C168.472 49.704 168.803 49.5867 169.102 49.448V50.696C168.814 50.8453 168.494 50.9573 168.142 51.032C167.8 51.1173 167.384 51.16 166.894 51.16ZM183.669 51H181.941L176.773 45.208V51H175.333V39.576H176.773V45.112L181.813 39.576H183.445L178.485 45.128L183.669 51ZM183.688 42.424H185.192L187.048 47.304C187.208 47.7413 187.352 48.152 187.48 48.536C187.608 48.92 187.704 49.288 187.768 49.64H187.832C187.896 49.3733 187.997 49.0267 188.136 48.6C188.275 48.1627 188.419 47.7253 188.568 47.288L190.312 42.424H191.832L188.136 52.184C187.827 52.9947 187.437 53.64 186.968 54.12C186.499 54.6 185.848 54.84 185.016 54.84C184.76 54.84 184.536 54.824 184.344 54.792C184.152 54.7707 183.987 54.744 183.848 54.712V53.592C183.965 53.6133 184.104 53.6347 184.264 53.656C184.435 53.6773 184.611 53.688 184.792 53.688C185.283 53.688 185.677 53.5493 185.976 53.272C186.275 52.9947 186.515 52.6267 186.696 52.168L187.144 51.032L183.688 42.424ZM192.74 45.848C192.74 43.9707 193.023 42.5093 193.588 41.464C194.153 40.4187 195.065 39.7573 196.324 39.48C197.017 39.3307 197.695 39.1973 198.356 39.08C199.017 38.9627 199.636 38.856 200.212 38.76L200.452 39.992C200.079 40.056 199.657 40.1253 199.188 40.2C198.719 40.2747 198.255 40.3547 197.796 40.44C197.337 40.5253 196.943 40.6 196.612 40.664C195.919 40.8133 195.369 41.176 194.964 41.752C194.559 42.328 194.329 43.2133 194.276 44.408H194.372C194.521 44.2053 194.724 43.9973 194.98 43.784C195.247 43.5707 195.561 43.3893 195.924 43.24C196.297 43.0907 196.719 43.016 197.188 43.016C198.297 43.016 199.135 43.3733 199.7 44.088C200.265 44.8027 200.548 45.7307 200.548 46.872C200.548 47.832 200.383 48.632 200.052 49.272C199.721 49.9013 199.257 50.376 198.66 50.696C198.073 51.0053 197.396 51.16 196.628 51.16C195.444 51.16 194.5 50.7067 193.796 49.8C193.092 48.8933 192.74 47.576 192.74 45.848ZM196.74 49.992C197.433 49.992 197.993 49.768 198.42 49.32C198.847 48.872 199.06 48.104 199.06 47.016C199.06 46.1413 198.895 45.4533 198.564 44.952C198.244 44.44 197.711 44.184 196.964 44.184C196.484 44.184 196.052 44.2907 195.668 44.504C195.295 44.7067 194.975 44.9413 194.708 45.208C194.452 45.4747 194.276 45.6987 194.18 45.88C194.18 46.4027 194.217 46.9093 194.292 47.4C194.367 47.8907 194.495 48.3333 194.676 48.728C194.868 49.112 195.129 49.4213 195.46 49.656C195.801 49.88 196.228 49.992 196.74 49.992ZM206.014 42.28C207.06 42.28 207.833 42.5093 208.334 42.968C208.836 43.4267 209.086 44.1573 209.086 45.16V51H208.062L207.79 49.784H207.726C207.353 50.2533 206.958 50.6 206.542 50.824C206.126 51.048 205.561 51.16 204.846 51.16C204.068 51.16 203.422 50.9573 202.91 50.552C202.398 50.136 202.142 49.4907 202.142 48.616C202.142 47.7627 202.478 47.1067 203.15 46.648C203.822 46.1787 204.857 45.9227 206.254 45.88L207.71 45.832V45.32C207.71 44.6053 207.556 44.1093 207.246 43.832C206.937 43.5547 206.5 43.416 205.934 43.416C205.486 43.416 205.06 43.4853 204.654 43.624C204.249 43.752 203.87 43.9013 203.518 44.072L203.086 43.016C203.46 42.8133 203.902 42.6427 204.414 42.504C204.926 42.3547 205.46 42.28 206.014 42.28ZM207.694 46.808L206.43 46.856C205.364 46.8987 204.622 47.0693 204.206 47.368C203.801 47.6667 203.598 48.088 203.598 48.632C203.598 49.112 203.742 49.464 204.03 49.688C204.329 49.912 204.708 50.024 205.166 50.024C205.881 50.024 206.478 49.8267 206.958 49.432C207.449 49.0267 207.694 48.408 207.694 47.576V46.808ZM213.143 42.424V45.992H217.799V42.424H219.207V51H217.799V47.176H213.143V51H211.735V42.424H213.143ZM223.251 42.424V47.656C223.251 47.7947 223.245 47.992 223.235 48.248C223.224 48.4933 223.208 48.7493 223.187 49.016C223.176 49.272 223.165 49.4693 223.155 49.608L227.747 42.424H229.475V51H228.163V45.944C228.163 45.7733 228.163 45.5493 228.163 45.272C228.173 44.9947 228.184 44.7227 228.195 44.456C228.205 44.1787 228.216 43.9707 228.227 43.832L223.667 51H221.923V42.424H223.251Z" fill="black"/>
</g>
<defs>
<filter id="filter0_d_158_523" x="0" y="0" width="233.474" height="70.3538" filterUnits="userSpaceOnUse" color-interpolation-filters="sRGB">
<feFlood flood-opacity="0" result="BackgroundImageFix"/>
<feColorMatrix in="SourceAlpha" type="matrix" values="0 0 0 0 0 0 0 0 0 0 0 0 0 0 0 0 0 0 127 0" result="hardAlpha"/>
<feOffset dy="4"/>
<feGaussianBlur stdDeviation="2"/>
<feComposite in2="hardAlpha" operator="out"/>
<feColorMatrix type="matrix" values="0 0 0 0 0 0 0 0 0 0 0 0 0 0 0 0 0 0 0.25 0"/>
<feBlend mode="normal" in2="BackgroundImageFix" result="effect1_dropShadow_158_523"/>
<feBlend mode="normal" in="SourceGraphic" in2="effect1_dropShadow_158_523" result="shape"/>
</filter>
</defs>
</svg>
