<?xml version="1.0" encoding="UTF-8"?>
<!DOCTYPE svg PUBLIC "-//W3C//DTD SVG 1.1//EN" "http://www.w3.org/Graphics/SVG/1.1/DTD/svg11.dtd">
<!-- Creator: CorelDRAW X6 -->
<svg xmlns="http://www.w3.org/2000/svg" xml:space="preserve" width="23px" height="19px" version="1.1" style="shape-rendering:geometricPrecision; text-rendering:geometricPrecision; image-rendering:optimizeQuality; fill-rule:evenodd; clip-rule:evenodd"
viewBox="0 0 869 707"
 xmlns:xlink="http://www.w3.org/1999/xlink">
 <defs>
  <style type="text/css">
   <![CDATA[
    .fil0 {fill:#FEFEFE}
   ]]>
  </style>
 </defs>
 <g id="Layer_x0020_1">
  <metadata id="CorelCorpID_0Corel-Layer"/>
  <path class="fil0" d="M256 707l35 0c1,0 26,-1 30,-2 28,-2 55,-6 83,-13 46,-12 95,-31 135,-57 22,-13 53,-35 73,-54l12 -12c14,-13 19,-20 31,-33 2,-2 3,-2 4,-4 13,-15 29,-38 40,-55 34,-54 60,-119 73,-183 7,-40 9,-63 9,-103 0,-18 -3,-13 6,-20 15,-10 37,-30 48,-43l33 -43c0,0 1,0 1,0 -1,-1 0,0 -1,0 -1,0 -2,0 -2,0l-20 8c-16,6 -62,19 -78,19 2,-2 5,-3 7,-5 2,-1 4,-3 6,-5 12,-8 25,-20 34,-32 12,-15 24,-34 30,-57l-13 8c-13,7 -29,14 -43,19 -16,6 -32,11 -49,15 -10,2 -7,2 -13,-3 -26,-26 -59,-43 -97,-50 -4,-1 -16,-1 -18,-2l-20 0c-4,2 -39,1 -76,22 -21,12 -39,26 -54,45 -29,37 -47,92 -34,152 -7,1 -24,-1 -32,-2 -47,-6 -96,-18 -138,-36 -21,-9 -28,-13 -47,-23 -22,-11 -68,-42 -87,-60l-23 -20c-9,-9 -34,-35 -42,-45 -3,5 -10,22 -13,29 -4,11 -6,22 -8,34 -4,26 -2,52 4,76 13,43 38,74 72,99 -9,1 -34,-4 -43,-7 -17,-5 -35,-14 -37,-15 0,34 9,67 26,94 15,25 35,46 60,61 23,13 32,15 57,22 -7,3 -30,6 -39,6 -15,1 -26,-1 -41,-3 3,15 17,39 25,49 4,7 10,14 15,19 6,7 12,12 20,18 31,24 64,37 106,38 -1,2 -4,4 -6,5 -27,22 -73,44 -105,55 -42,13 -88,19 -133,16 -6,0 -13,-2 -19,-2 3,3 21,14 26,16 5,3 9,6 14,8 53,28 117,46 177,54 5,0 37,2 39,2l0 0z"/>
 </g>
</svg>
