<?xml version="1.0" encoding="UTF-8"?>
<!DOCTYPE svg PUBLIC "-//W3C//DTD SVG 1.1//EN" "http://www.w3.org/Graphics/SVG/1.1/DTD/svg11.dtd">
<!-- Creator: CorelDRAW X6 -->
<svg xmlns="http://www.w3.org/2000/svg" xml:space="preserve" width="28px" height="16px" version="1.1" style="shape-rendering:geometricPrecision; text-rendering:geometricPrecision; image-rendering:optimizeQuality; fill-rule:evenodd; clip-rule:evenodd"
viewBox="0 0 381 218"
 xmlns:xlink="http://www.w3.org/1999/xlink">
 <defs>
  <style type="text/css">
   <![CDATA[
    .fil0 {fill:#FEFEFE}
   ]]>
  </style>
 </defs>
 <g id="Layer_x0020_1">
  <metadata id="CorelCorpID_0Corel-Layer"/>
  <path class="fil0" d="M279 205c7,2 12,9 24,12 7,2 27,1 36,0 22,0 55,2 36,-27 -17,-25 -47,-49 -53,-58 -7,-9 0,-22 5,-26 8,-14 59,-69 53,-90 -5,-8 -15,-6 -26,-5 -88,1 -44,-13 -92,65 -6,10 -19,31 -33,30 -17,-21 4,-86 -12,-99 -9,-7 -81,-14 -90,8 4,3 10,3 15,7 11,10 9,46 8,60 -1,12 -3,31 -17,23 -3,-1 -5,-3 -6,-5 -4,-3 -3,-2 -6,-6 -12,-16 -17,-25 -27,-43 -21,-43 -9,-41 -51,-41 -14,0 -35,-2 -43,6 -5,11 54,112 75,138 11,15 20,25 35,36 13,10 28,18 47,23 13,4 54,8 62,0 6,-5 4,-20 6,-29 9,-35 34,-4 46,10 3,4 6,6 8,11l0 0z"/>
 </g>
</svg>
