<?xml version="1.0" encoding="UTF-8"?>
<!DOCTYPE svg PUBLIC "-//W3C//DTD SVG 1.1//EN" "http://www.w3.org/Graphics/SVG/1.1/DTD/svg11.dtd">
<!-- Creator: CorelDRAW X6 -->
<svg xmlns="http://www.w3.org/2000/svg" xml:space="preserve" width="25px" height="17px" version="1.1" style="shape-rendering:geometricPrecision; text-rendering:geometricPrecision; image-rendering:optimizeQuality; fill-rule:evenodd; clip-rule:evenodd"
viewBox="0 0 205 140"
 xmlns:xlink="http://www.w3.org/1999/xlink">
 <defs>
  <style type="text/css">
   <![CDATA[
    .fil0 {fill:#FEFEFE}
   ]]>
  </style>
 </defs>
 <g id="Layer_x0020_1">
  <metadata id="CorelCorpID_0Corel-Layer"/>
  <g id="_180018208">
   <g id="_1150308160">
    <path class="fil0" d="M10 1l39 37c9,8 18,18 27,26 9,8 15,17 27,17 11,0 18,-9 26,-17 2,-1 3,-3 5,-5l60 -56c0,0 1,0 1,0l1 -2c-4,-1 -18,-1 -23,-1l-117 0c-7,0 -43,0 -46,1l0 0z"/>
    <path class="fil0" d="M9 139c7,2 16,1 23,1 47,0 94,0 142,0 4,0 19,1 22,-1 -2,-3 -6,-5 -9,-7 -3,-2 -6,-4 -9,-6l-35 -27c-6,-3 -15,-12 -19,-14 -4,2 -9,8 -21,8 -4,0 -9,-1 -13,-3 -5,-2 -6,-4 -9,-5l-63 47c-2,2 -7,5 -9,7l0 0z"/>
    <path class="fil0" d="M0 12l0 116 1 1c0,1 1,3 2,4l8 -7c14,-9 27,-20 41,-30 4,-3 21,-16 23,-17 -1,-1 -20,-19 -23,-22l-27 -26c-2,-1 -4,-2 -5,-4l-18 -17c-1,1 -1,1 -2,2l0 0z"/>
    <path class="fil0" d="M205 128l0 -116c0,0 0,0 0,0l-1 -2 -46 43c-3,3 -26,24 -27,26 1,1 7,5 9,7l63 47c1,-1 2,-4 2,-5l0 0z"/>
   </g>
  </g>
 </g>
</svg>
