<svg width="40" height="40" viewBox="0 0 40 40" fill="none" xmlns="http://www.w3.org/2000/svg">
<path fill-rule="evenodd" clip-rule="evenodd" d="M35 2.5H5C4.33696 2.5 3.70107 2.76339 3.23223 3.23223C2.76339 3.70107 2.5 4.33696 2.5 5V35C2.5 35.663 2.76339 36.2989 3.23223 36.7678C3.70107 37.2366 4.33696 37.5 5 37.5H35C35.663 37.5 36.2989 37.2366 36.7678 36.7678C37.2366 36.2989 37.5 35.663 37.5 35V5C37.5 4.33696 37.2366 3.70107 36.7678 3.23223C36.2989 2.76339 35.663 2.5 35 2.5ZM5 0C3.67392 0 2.40215 0.526784 1.46447 1.46447C0.526784 2.40215 0 3.67392 0 5L0 35C0 36.3261 0.526784 37.5979 1.46447 38.5355C2.40215 39.4732 3.67392 40 5 40H35C36.3261 40 37.5979 39.4732 38.5355 38.5355C39.4732 37.5979 40 36.3261 40 35V5C40 3.67392 39.4732 2.40215 38.5355 1.46447C37.5979 0.526784 36.3261 0 35 0L5 0Z" fill="#61A036"/>
<path fill-rule="evenodd" clip-rule="evenodd" d="M19.1153 28.3851C18.9989 28.269 18.9065 28.1311 18.8435 27.9792C18.7805 27.8273 18.748 27.6645 18.748 27.5001C18.748 27.3357 18.7805 27.1729 18.8435 27.021C18.9065 26.8692 18.9989 26.7312 19.1153 26.6151L25.7328 20.0001L19.1153 13.3851C18.9991 13.2689 18.9069 13.1309 18.844 12.9791C18.7811 12.8272 18.7487 12.6645 18.7487 12.5001C18.7487 12.3358 18.7811 12.173 18.844 12.0212C18.9069 11.8693 18.9991 11.7313 19.1153 11.6151C19.2315 11.4989 19.3695 11.4067 19.5213 11.3438C19.6732 11.2809 19.8359 11.2485 20.0003 11.2485C20.1646 11.2485 20.3274 11.2809 20.4792 11.3438C20.6311 11.4067 20.7691 11.4989 20.8853 11.6151L28.3853 19.1151C28.5017 19.2312 28.594 19.3692 28.6571 19.521C28.7201 19.6729 28.7525 19.8357 28.7525 20.0001C28.7525 20.1645 28.7201 20.3273 28.6571 20.4792C28.594 20.6311 28.5017 20.769 28.3853 20.8851L20.8853 28.3851C20.7692 28.5015 20.6312 28.5939 20.4794 28.6569C20.3275 28.7199 20.1647 28.7523 20.0003 28.7523C19.8359 28.7523 19.6731 28.7199 19.5212 28.6569C19.3693 28.5939 19.2314 28.5015 19.1153 28.3851Z" fill="#61A036"/>
<path fill-rule="evenodd" clip-rule="evenodd" d="M11.25 20C11.25 19.6685 11.3817 19.3505 11.6161 19.1161C11.8505 18.8817 12.1685 18.75 12.5 18.75H25C25.3315 18.75 25.6495 18.8817 25.8839 19.1161C26.1183 19.3505 26.25 19.6685 26.25 20C26.25 20.3315 26.1183 20.6495 25.8839 20.8839C25.6495 21.1183 25.3315 21.25 25 21.25H12.5C12.1685 21.25 11.8505 21.1183 11.6161 20.8839C11.3817 20.6495 11.25 20.3315 11.25 20Z" fill="#61A036"/>
</svg>
