<svg width="31" height="31" viewBox="0 0 31 31" fill="none" xmlns="http://www.w3.org/2000/svg">
<path d="M29.2571 0.322266H1.91182C1.2542 0.322266 0.7229 0.855927 0.7229 1.51647V28.9832C0.7229 29.6438 1.2542 30.1774 1.91182 30.1774H29.2571C29.9147 30.1774 30.446 29.6438 30.446 28.9832V1.51647C30.446 0.855927 29.9147 0.322266 29.2571 0.322266ZM9.53951 25.7626H5.12935V11.5142H9.53951V25.7626ZM7.33629 9.56618C6.83072 9.56618 6.33651 9.41559 5.91614 9.13347C5.49578 8.85134 5.16815 8.45034 4.97468 7.98119C4.78121 7.51203 4.73059 6.99578 4.82922 6.49773C4.92785 5.99967 5.1713 5.54218 5.52879 5.1831C5.88628 4.82402 6.34175 4.57949 6.8376 4.48042C7.33345 4.38135 7.84741 4.4322 8.3145 4.62653C8.78158 4.82086 9.1808 5.14995 9.46167 5.57218C9.74255 5.99441 9.89247 6.49082 9.89247 6.99863C9.88875 8.41675 8.74442 9.56618 7.33629 9.56618ZM26.0507 25.7626H21.6442V18.8325C21.6442 17.1792 21.6145 15.0558 19.3518 15.0558C17.0594 15.0558 16.7065 16.8546 16.7065 18.7131V25.7626H12.3038V11.5142H16.5319V13.4623H16.5913C17.1783 12.3427 18.6162 11.1597 20.7637 11.1597C25.2296 11.1597 26.0507 14.1116 26.0507 17.948V25.7626Z" fill="#1A1A1A"/>
</svg>
