<svg width="30" height="31" viewBox="0 0 30 31" fill="none" xmlns="http://www.w3.org/2000/svg">
<path d="M15.1384 12.0244C14.4386 12.0247 13.7545 12.2334 13.1727 12.6241C12.5909 13.0149 12.1375 13.5701 11.8699 14.2197C11.6022 14.8692 11.5323 15.5839 11.669 16.2734C11.8057 16.9628 12.1429 17.5961 12.6379 18.093C13.1328 18.59 13.7634 18.9284 14.4498 19.0655C15.1363 19.2025 15.8478 19.1321 16.4944 18.863C17.1409 18.5939 17.6935 18.1383 18.0823 17.5538C18.4711 16.9693 18.6787 16.2821 18.6787 15.5791C18.678 14.6363 18.3047 13.7324 17.6409 13.0659C16.9771 12.3994 16.077 12.0248 15.1384 12.0244ZM23.4125 9.29216C23.2323 8.83356 22.9603 8.41704 22.6132 8.06843C22.2661 7.71982 21.8514 7.44656 21.3949 7.2656C20.0016 6.71315 16.6843 6.8371 15.1384 6.8371C13.5926 6.8371 10.2786 6.70848 8.88134 7.2656C8.42477 7.44656 8.01009 7.71982 7.66303 8.06843C7.31596 8.41704 7.04391 8.83356 6.86375 9.29216C6.3144 10.6916 6.43714 14.027 6.43714 15.5784C6.43714 17.1298 6.3144 20.4612 6.8664 21.8653C7.04656 22.3239 7.31861 22.7404 7.66568 23.089C8.01274 23.4377 8.42742 23.7109 8.88399 23.8919C10.2773 24.4443 13.5946 24.3204 15.1411 24.3204C16.6876 24.3204 20.0003 24.449 21.3975 23.8919C21.8541 23.7109 22.2688 23.4377 22.6158 23.089C22.9629 22.7404 23.235 22.3239 23.4151 21.8653C23.9691 20.4659 23.8417 17.1305 23.8417 15.5791C23.8417 14.0277 23.9691 10.6969 23.4151 9.29282L23.4125 9.29216ZM15.1384 21.0436C14.0624 21.0436 13.0106 20.7231 12.1159 20.1227C11.2213 19.5222 10.524 18.6688 10.1122 17.6703C9.70041 16.6717 9.59268 15.573 9.80259 14.513C10.0125 13.453 10.5307 12.4793 11.2915 11.715C12.0524 10.9508 13.0217 10.4304 14.0771 10.2195C15.1324 10.0087 16.2263 10.1169 17.2204 10.5305C18.2145 10.9441 19.0642 11.6445 19.662 12.5431C20.2598 13.4418 20.5788 14.4983 20.5788 15.5791C20.5797 16.2969 20.4396 17.0079 20.1665 17.6713C19.8934 18.3347 19.4927 18.9374 18.9873 19.4451C18.482 19.9527 17.8819 20.3551 17.2214 20.6295C16.561 20.9038 15.8531 21.0445 15.1384 21.0436ZM20.8031 11.1608C20.5519 11.1609 20.3063 11.0862 20.0974 10.9461C19.8885 10.8061 19.7256 10.6069 19.6294 10.3738C19.5332 10.1408 19.5079 9.8843 19.5569 9.63683C19.6058 9.38936 19.7267 9.16202 19.9042 8.98357C20.0818 8.80513 20.3081 8.68358 20.5544 8.63431C20.8008 8.58504 21.0561 8.61026 21.2882 8.70678C21.5203 8.8033 21.7187 8.96679 21.8582 9.17656C21.9978 9.38633 22.0723 9.63296 22.0723 9.88526C22.073 10.0528 22.0407 10.2188 21.9774 10.3738C21.9141 10.5288 21.8209 10.6698 21.7032 10.7885C21.5856 10.9073 21.4457 11.0015 21.2917 11.0658C21.1377 11.1302 20.9725 11.1633 20.8057 11.1634L20.8031 11.1608ZM25.0461 0.322266C25.0461 0.322266 2.3337 0.322266 1.5649 0.322266C0.805266 0.322266 0.276981 0.856781 0.2769 1.51647C0.27682 2.17616 0.2769 2.49244 0.2769 2.49244L0.276855 25.2016V28.9832C0.276855 29.6467 0.805266 30.1774 1.51532 30.1774H24.9262H28.7119C29.4715 30.1774 29.9999 29.6467 29.9999 28.9832L30 1.51647C30 0.853024 29.4715 0.322266 28.7119 0.322266H25.0461ZM25.6795 19.9774C25.5939 21.6854 25.2058 23.1988 23.9645 24.4423C22.7231 25.6858 21.2177 26.0837 19.5193 26.165C17.7671 26.2643 12.5138 26.2643 10.7616 26.165C9.06113 26.079 7.55972 25.6885 6.31639 24.4423C5.07307 23.1961 4.68229 21.6821 4.60135 19.9774C4.50249 18.2167 4.50249 12.9394 4.60135 11.1808C4.68693 9.47275 5.07041 7.95933 6.31639 6.71581C7.56237 5.47229 9.06777 5.07911 10.7616 4.99781C12.5138 4.89851 17.7671 4.89851 19.5193 4.99781C21.2197 5.08378 22.7258 5.47429 23.9645 6.72048C25.2031 7.96666 25.5986 9.48075 25.6795 11.1888C25.7784 12.9427 25.7784 18.2154 25.6795 19.9774Z" fill="#1A1A1A"/>
</svg>
