<svg width="20" height="21" viewBox="0 0 20 21" fill="none" xmlns="http://www.w3.org/2000/svg">
<path d="M16 16.6494C16.5304 16.6494 17.0391 16.8601 17.4142 17.2352C17.7893 17.6103 18 18.119 18 18.6494C18 19.1798 17.7893 19.6886 17.4142 20.0636C17.0391 20.4387 16.5304 20.6494 16 20.6494C15.4696 20.6494 14.9609 20.4387 14.5858 20.0636C14.2107 19.6886 14 19.1798 14 18.6494C14 17.5394 14.89 16.6494 16 16.6494ZM0 0.649414H3.27L4.21 2.64941H19C19.2652 2.64941 19.5196 2.75477 19.7071 2.94231C19.8946 3.12984 20 3.3842 20 3.64941C20 3.81941 19.95 3.98941 19.88 4.14941L16.3 10.6194C15.96 11.2294 15.3 11.6494 14.55 11.6494H7.1L6.2 13.2794L6.17 13.3994C6.17 13.4657 6.19634 13.5293 6.24322 13.5762C6.29011 13.6231 6.3537 13.6494 6.42 13.6494H18V15.6494H6C5.46957 15.6494 4.96086 15.4387 4.58579 15.0636C4.21071 14.6886 4 14.1798 4 13.6494C4 13.2994 4.09 12.9694 4.24 12.6894L5.6 10.2394L2 2.64941H0V0.649414ZM6 16.6494C6.53043 16.6494 7.03914 16.8601 7.41421 17.2352C7.78929 17.6103 8 18.119 8 18.6494C8 19.1798 7.78929 19.6886 7.41421 20.0636C7.03914 20.4387 6.53043 20.6494 6 20.6494C5.46957 20.6494 4.96086 20.4387 4.58579 20.0636C4.21071 19.6886 4 19.1798 4 18.6494C4 17.5394 4.89 16.6494 6 16.6494ZM15 9.64941L17.78 4.64941H5.14L7.5 9.64941H15Z" fill="#61A036"/>
</svg>
