<svg width="33" height="33" viewBox="0 0 33 33" fill="none" xmlns="http://www.w3.org/2000/svg">
<path d="M16.3601 12.6047C15.6029 12.6049 14.8628 12.8297 14.2334 13.2506C13.6039 13.6715 13.1134 14.2696 12.8238 14.9692C12.5342 15.6689 12.4586 16.4387 12.6065 17.1813C12.7544 17.9239 13.1192 18.606 13.6547 19.1413C14.1902 19.6766 14.8725 20.0411 15.6151 20.1887C16.3578 20.3364 17.1276 20.2605 17.8271 19.9706C18.5266 19.6808 19.1245 19.19 19.5452 18.5604C19.9658 17.9308 20.1903 17.1906 20.1903 16.4334C20.1896 15.418 19.7857 14.4443 19.0675 13.7264C18.3494 13.0085 17.3756 12.605 16.3601 12.6047ZM25.3118 9.66166C25.1169 9.1677 24.8226 8.71906 24.4471 8.34356C24.0716 7.96807 23.623 7.67373 23.129 7.47882C21.6216 6.88376 18.0326 7.01727 16.3601 7.01727C14.6876 7.01727 11.1022 6.87873 9.5905 7.47882C9.09654 7.67373 8.6479 7.96807 8.2724 8.34356C7.89691 8.71906 7.60258 9.1677 7.40766 9.66166C6.81332 11.1691 6.94611 14.7617 6.94611 16.4327C6.94611 18.1038 6.81332 21.6921 7.41053 23.2045C7.60545 23.6985 7.89978 24.1471 8.27528 24.5226C8.65077 24.8981 9.09941 25.1924 9.59338 25.3873C11.1008 25.9824 14.6898 25.8489 16.363 25.8489C18.0362 25.8489 21.6202 25.9874 23.1319 25.3873C23.6258 25.1924 24.0745 24.8981 24.45 24.5226C24.8255 24.1471 25.1198 23.6985 25.3147 23.2045C25.9141 21.6971 25.7763 18.1045 25.7763 16.4334C25.7763 14.7624 25.9141 11.1748 25.3147 9.66238L25.3118 9.66166ZM16.3601 22.3194C15.196 22.3194 14.058 21.9742 13.09 21.3275C12.1221 20.6807 11.3677 19.7614 10.9222 18.6859C10.4767 17.6104 10.3601 16.4269 10.5872 15.2851C10.8143 14.1434 11.3749 13.0946 12.1981 12.2714C13.0213 11.4482 14.07 10.8876 15.2118 10.6605C16.3536 10.4334 17.5371 10.55 18.6126 10.9955C19.6881 11.441 20.6074 12.1954 21.2541 13.1633C21.9009 14.1313 22.2461 15.2693 22.2461 16.4334C22.2471 17.2067 22.0954 17.9725 21.8 18.687C21.5045 19.4016 21.071 20.0508 20.5242 20.5976C19.9775 21.1443 19.3283 21.5779 18.6137 21.8733C17.8992 22.1688 17.1333 22.3204 16.3601 22.3194ZM22.4887 11.6744C22.217 11.6745 21.9513 11.5941 21.7252 11.4432C21.4992 11.2923 21.323 11.0778 21.2189 10.8268C21.1148 10.5757 21.0875 10.2995 21.1404 10.0329C21.1934 9.76637 21.3242 9.5215 21.5163 9.32928C21.7084 9.13707 21.9532 9.00615 22.2197 8.95308C22.4862 8.90001 22.7625 8.92718 23.0136 9.03114C23.2647 9.13511 23.4793 9.3112 23.6303 9.53715C23.7813 9.7631 23.8619 10.0288 23.8619 10.3005C23.8626 10.481 23.8278 10.6598 23.7592 10.8268C23.6907 10.9937 23.5899 11.1455 23.4626 11.2734C23.3353 11.4013 23.184 11.5028 23.0174 11.5721C22.8507 11.6414 22.6721 11.6772 22.4916 11.6773L22.4887 11.6744ZM27.0793 0C27.0793 0 2.50656 0 1.6748 0C0.852941 0 0.281386 0.575739 0.281299 1.28631C0.281212 1.99687 0.281299 2.33755 0.281299 2.33755L0.28125 26.7981V30.8714C0.28125 31.586 0.852941 32.1577 1.62115 32.1577H26.9495H31.0454C31.8672 32.1577 32.4389 31.586 32.4389 30.8714L32.4389 1.28631C32.4389 0.571692 31.8672 0 31.0454 0H27.0793ZM27.7646 21.1709C27.672 23.0107 27.2521 24.6408 25.9091 25.9802C24.566 27.3197 22.9374 27.7482 21.0998 27.8358C19.2041 27.9427 13.5205 27.9427 11.6248 27.8358C9.78503 27.7432 8.16064 27.3225 6.81547 25.9802C5.47031 24.6379 5.04752 23.0071 4.95995 21.1709C4.853 19.2745 4.853 13.5902 4.95995 11.6959C5.05255 9.85619 5.46744 8.22605 6.81547 6.88663C8.16351 5.5472 9.79221 5.1237 11.6248 5.03613C13.5205 4.92918 19.2041 4.92918 21.0998 5.03613C22.9395 5.12873 24.5689 5.54936 25.9091 6.89165C27.2492 8.23395 27.677 9.8648 27.7646 11.7045C27.8715 13.5938 27.8715 19.2731 27.7646 21.1709Z" fill="#520E0E"/>
</svg>
