<svg width="33" height="33" viewBox="0 0 33 33" fill="none" xmlns="http://www.w3.org/2000/svg">
<path d="M30.8714 0H1.28631C0.574818 0 0 0.574818 0 1.28631V30.8714C0 31.5828 0.574818 32.1577 1.28631 32.1577H30.8714C31.5828 32.1577 32.1577 31.5828 32.1577 30.8714V1.28631C32.1577 0.574818 31.5828 0 30.8714 0ZM27.1571 9.38602H24.5886C22.5747 9.38602 22.1848 10.3427 22.1848 11.7496V14.8488H26.9923L26.3653 19.7006H22.1848V32.1577H17.1722V19.7046H12.9796V14.8488H17.1722V11.2713C17.1722 7.1189 19.7086 4.85581 23.4148 4.85581C25.1915 4.85581 26.715 4.98846 27.1612 5.04875V9.38602H27.1571Z" fill="#520E0E"/>
</svg>
