<svg width="27" height="28" viewBox="0 0 27 28" fill="none" xmlns="http://www.w3.org/2000/svg">
<path d="M21.6668 22.2258C22.3741 22.2258 23.0524 22.5067 23.5524 23.0068C24.0525 23.5069 24.3335 24.1852 24.3335 24.8925C24.3335 25.5997 24.0525 26.278 23.5524 26.7781C23.0524 27.2782 22.3741 27.5591 21.6668 27.5591C20.9596 27.5591 20.2813 27.2782 19.7812 26.7781C19.2811 26.278 19.0002 25.5997 19.0002 24.8925C19.0002 23.4125 20.1868 22.2258 21.6668 22.2258ZM0.333496 0.892456H4.6935L5.94683 3.55912H25.6668C26.0205 3.55912 26.3596 3.6996 26.6096 3.94965C26.8597 4.1997 27.0002 4.53883 27.0002 4.89246C27.0002 5.11912 26.9335 5.34579 26.8402 5.55912L22.0668 14.1858C21.6135 14.9991 20.7335 15.5591 19.7335 15.5591H9.80016L8.60016 17.7325L8.56016 17.8925C8.56016 17.9809 8.59528 18.0656 8.65779 18.1282C8.72031 18.1907 8.80509 18.2258 8.8935 18.2258H24.3335V20.8925H8.3335C7.62625 20.8925 6.94798 20.6115 6.44788 20.1114C5.94778 19.6113 5.66683 18.933 5.66683 18.2258C5.66683 17.7591 5.78683 17.3191 5.98683 16.9458L7.80016 13.6791L3.00016 3.55912H0.333496V0.892456ZM8.3335 22.2258C9.04074 22.2258 9.71902 22.5067 10.2191 23.0068C10.7192 23.5069 11.0002 24.1852 11.0002 24.8925C11.0002 25.5997 10.7192 26.278 10.2191 26.7781C9.71902 27.2782 9.04074 27.5591 8.3335 27.5591C7.62625 27.5591 6.94798 27.2782 6.44788 26.7781C5.94778 26.278 5.66683 25.5997 5.66683 24.8925C5.66683 23.4125 6.8535 22.2258 8.3335 22.2258ZM20.3335 12.8925L24.0402 6.22579H7.18683L10.3335 12.8925H20.3335Z" fill="#61A036"/>
</svg>
