<svg width="32" height="33" viewBox="0 0 32 33" fill="none" xmlns="http://www.w3.org/2000/svg">
<path d="M26.8476 27.474C26.909 27.8392 26.6074 28.2988 26 28.2988L6 28.2988C5.39263 28.2988 5.09098 27.8392 5.15243 27.474C5.28974 26.6577 5.51908 25.8576 5.83732 25.0893C6.39013 23.7547 7.20038 22.5421 8.22182 21.5207C9.24327 20.4992 10.4559 19.689 11.7905 19.1362C13.1251 18.5834 14.5555 18.2988 16 18.2988C17.4445 18.2988 18.8749 18.5834 20.2095 19.1362C21.5441 19.689 22.7567 20.4992 23.7782 21.5207C24.7996 22.5421 25.6099 23.7547 26.1627 25.0893C26.4809 25.8576 26.7103 26.6577 26.8476 27.474Z" stroke="#61A036" stroke-width="2"/>
<circle cx="16" cy="9.29883" r="5" stroke="#61A036" stroke-width="2"/>
</svg>
