<svg width="45" height="45" viewBox="0 0 45 45" fill="none" xmlns="http://www.w3.org/2000/svg">
<rect x="0.5" y="0.5" width="44" height="44" rx="22" fill="#61A036" stroke="#61A036"/>
<path d="M22.7266 30.4079C22.4637 30.4084 22.209 30.3169 22.0066 30.1491C21.8927 30.0547 21.7985 29.9387 21.7295 29.8078C21.6605 29.6769 21.6179 29.5337 21.6044 29.3864C21.5908 29.239 21.6064 29.0904 21.6503 28.9491C21.6942 28.8078 21.7656 28.6766 21.8603 28.5629L26.9003 22.5329L22.0403 16.4916C21.9469 16.3766 21.8771 16.2442 21.835 16.102C21.7929 15.9599 21.7793 15.8108 21.795 15.6634C21.8106 15.516 21.8553 15.3732 21.9264 15.2431C21.9974 15.113 22.0935 14.9982 22.2091 14.9054C22.3255 14.803 22.4618 14.7257 22.6095 14.6785C22.7571 14.6312 22.913 14.615 23.0672 14.6309C23.2214 14.6467 23.3707 14.6943 23.5057 14.7706C23.6407 14.8468 23.7584 14.9502 23.8516 15.0741L29.2853 21.8241C29.4508 22.0254 29.5413 22.2779 29.5413 22.5385C29.5413 22.7991 29.4508 23.0516 29.2853 23.2529L23.6603 30.0029C23.5475 30.139 23.4041 30.2467 23.2419 30.317C23.0796 30.3874 22.9031 30.4185 22.7266 30.4079Z" fill="white"/>
<path d="M16.4268 30.4079C16.1639 30.4084 15.9092 30.3169 15.7068 30.1491C15.5929 30.0547 15.4987 29.9387 15.4297 29.8078C15.3607 29.6769 15.3181 29.5337 15.3046 29.3864C15.291 29.239 15.3066 29.0904 15.3505 28.9491C15.3944 28.8078 15.4658 28.6766 15.5605 28.5629L20.6005 22.5329L15.7405 16.4916C15.6471 16.3766 15.5773 16.2442 15.5352 16.102C15.4931 15.9599 15.4795 15.8108 15.4952 15.6634C15.5108 15.516 15.5555 15.3732 15.6266 15.2431C15.6976 15.113 15.7937 14.9982 15.9093 14.9054C16.0257 14.803 16.162 14.7257 16.3097 14.6785C16.4573 14.6312 16.6132 14.615 16.7674 14.6309C16.9216 14.6467 17.0709 14.6943 17.2059 14.7706C17.3409 14.8468 17.4586 14.9502 17.5518 15.0741L22.9855 21.8241C23.151 22.0254 23.2415 22.2779 23.2415 22.5385C23.2415 22.7991 23.151 23.0516 22.9855 23.2529L17.3605 30.0029C17.2477 30.139 17.1043 30.2467 16.9421 30.317C16.7798 30.3874 16.6033 30.4185 16.4268 30.4079Z" fill="white"/>
</svg>
