<svg width="45" height="45" viewBox="0 0 45 45" fill="none" xmlns="http://www.w3.org/2000/svg">
<rect x="0.5" y="0.5" width="44" height="44" rx="22" fill="#61A036" stroke="#61A036"/>
<path d="M20.25 30.3752C19.9872 30.3757 19.7324 30.2841 19.53 30.1164C19.4161 30.022 19.3219 29.906 19.2529 29.7751C19.1839 29.6442 19.1414 29.501 19.1278 29.3536C19.1142 29.2063 19.1298 29.0577 19.1738 28.9164C19.2177 28.7751 19.289 28.6439 19.3838 28.5302L24.4238 22.5002L19.5638 16.4589C19.4703 16.3439 19.4005 16.2114 19.3584 16.0693C19.3163 15.9272 19.3027 15.7781 19.3184 15.6307C19.3341 15.4833 19.3787 15.3405 19.4498 15.2104C19.5209 15.0803 19.617 14.9655 19.7325 14.8727C19.8489 14.7703 19.9852 14.693 20.1329 14.6458C20.2806 14.5985 20.4364 14.5823 20.5906 14.5982C20.7449 14.614 20.8942 14.6616 21.0291 14.7379C21.1641 14.8141 21.2819 14.9175 21.375 15.0414L26.8088 21.7914C26.9742 21.9927 27.0647 22.2452 27.0647 22.5058C27.0647 22.7664 26.9742 23.0189 26.8088 23.2202L21.1838 29.9702C21.0709 30.1063 20.9276 30.2139 20.7653 30.2843C20.6031 30.3547 20.4265 30.3858 20.25 30.3752Z" fill="white"/>
</svg>
