<svg width="57" height="56" viewBox="0 0 57 56" fill="none" xmlns="http://www.w3.org/2000/svg">
<g filter="url(#filter0_d)">
<circle cx="30.5" cy="24" r="23.5" fill="white" stroke="#61A036"/>
<g clip-path="url(#clip0)">
<path d="M41.2143 21.8462C41.2133 20.6902 40.9039 19.5556 40.3184 18.5607C39.7329 17.5657 38.8927 16.7467 37.8854 16.1891C38.6446 15.3931 39.0694 14.3335 39.0714 13.2308H36.9286C36.928 13.8018 36.7021 14.3493 36.3003 14.7531C35.8986 15.1569 35.3539 15.384 34.7857 15.3846C33.1019 15.3869 31.486 16.0526 30.2851 17.239C29.0842 18.4253 28.3939 20.0377 28.3625 21.7298C26.9888 20.3235 26.2177 18.4324 26.2143 16.4615C26.2115 15.5091 25.8944 14.5845 25.3127 13.8327C24.731 13.0808 23.9177 12.5442 23 12.3068V10H20.8571V12.3068C19.9395 12.5442 19.1261 13.0808 18.5444 13.8327C17.9628 14.5845 17.6457 15.5091 17.6429 16.4615V21.8462H15.5V22.9231C15.5 26.9217 17.0804 30.7566 19.8934 33.5841C22.7064 36.4115 26.5218 38 30.5 38C34.4782 38 38.2936 36.4115 41.1066 33.5841C43.9196 30.7566 45.5 26.9217 45.5 22.9231V21.8462H41.2143ZM34.7857 17.5385C35.9219 17.5399 37.0112 17.9942 37.8146 18.8017C38.618 19.6093 39.07 20.7041 39.0714 21.8462H30.5C30.5014 20.7041 30.9534 19.6093 31.7568 18.8017C32.5602 17.9942 33.6495 17.5399 34.7857 17.5385ZM19.7857 16.4615C19.7857 15.8903 20.0115 15.3425 20.4133 14.9385C20.8152 14.5346 21.3602 14.3077 21.9286 14.3077C22.4969 14.3077 23.0419 14.5346 23.4438 14.9385C23.8457 15.3425 24.0714 15.8903 24.0714 16.4615C24.0757 18.3802 24.647 20.2544 25.7129 21.8462H19.7857V16.4615ZM30.5 35.8462C27.2766 35.8421 24.172 34.623 21.7996 32.4297C19.4272 30.2363 17.9596 27.2283 17.6868 24H43.3143C43.0415 27.2285 41.5737 30.2366 39.2011 32.43C36.8285 34.6234 33.7236 35.8424 30.5 35.8462Z" fill="#61A036"/>
</g>
</g>
<defs>
<filter id="filter0_d" x="0.5" y="0" width="56" height="56" filterUnits="userSpaceOnUse" color-interpolation-filters="sRGB">
<feFlood flood-opacity="0" result="BackgroundImageFix"/>
<feColorMatrix in="SourceAlpha" type="matrix" values="0 0 0 0 0 0 0 0 0 0 0 0 0 0 0 0 0 0 127 0"/>
<feOffset dx="-2" dy="4"/>
<feGaussianBlur stdDeviation="2"/>
<feColorMatrix type="matrix" values="0 0 0 0 0 0 0 0 0 0 0 0 0 0 0 0 0 0 0.1 0"/>
<feBlend mode="normal" in2="BackgroundImageFix" result="effect1_dropShadow"/>
<feBlend mode="normal" in="SourceGraphic" in2="effect1_dropShadow" result="shape"/>
</filter>
<clipPath id="clip0">
<rect width="30" height="28" fill="white" transform="translate(15.5 10)"/>
</clipPath>
</defs>
</svg>
