<svg width="24" height="23" viewBox="0 0 24 23" fill="none" xmlns="http://www.w3.org/2000/svg">
<path d="M12 0.294922C5.8125 0.294922 0.75 5.34617 0.75 11.5674C0.75 17.1924 4.8675 21.8612 10.245 22.7049V14.8299H7.3875V11.5674H10.245V9.08117C10.245 6.25742 11.9213 4.70492 14.4975 4.70492C15.7238 4.70492 17.0063 4.91867 17.0063 4.91867V7.69742H15.5887C14.1937 7.69742 13.755 8.56367 13.755 9.45242V11.5674H16.8825L16.3763 14.8299H13.755V22.7049C16.406 22.2862 18.82 20.9336 20.5612 18.8912C22.3024 16.8489 23.256 14.2513 23.25 11.5674C23.25 5.34617 18.1875 0.294922 12 0.294922Z" fill="black"/>
</svg>
