<svg width="57" height="56" viewBox="0 0 57 56" fill="none" xmlns="http://www.w3.org/2000/svg">
<g filter="url(#filter0_d)">
<circle cx="30.5" cy="24" r="23.5" fill="white" stroke="#61A036"/>
<g clip-path="url(#clip0)">
<path d="M45.1263 20.6744L39.308 19.778L35.7622 13.9856C35.5761 13.6824 35.3148 13.4324 35.0038 13.2597C34.6927 13.0871 34.3424 12.9976 33.9866 13L19.1265 13.1184C18.6977 13.1221 18.2807 13.2592 17.9334 13.5107C17.5862 13.7622 17.3258 14.1156 17.1887 14.5219L15.5 19.5293V31.0422H19.0453C19.3209 31.9381 19.8765 32.722 20.6304 33.2789C21.3844 33.8358 22.297 34.1363 23.2344 34.1363C24.1717 34.1363 25.0843 33.8358 25.8383 33.2789C26.5923 32.722 27.1478 31.9381 27.4234 31.0422H33.9984C34.274 31.9381 34.8296 32.722 35.5836 33.2789C36.3375 33.8358 37.2502 34.1363 38.1875 34.1363C39.1248 34.1363 40.0375 33.8358 40.7914 33.2789C41.5454 32.722 42.101 31.9381 42.3766 31.0422H46.4375V22.2032C46.4392 21.8334 46.3076 21.4752 46.0668 21.1945C45.826 20.9137 45.4921 20.7291 45.1263 20.6744ZM28.9062 15.103L34.0031 15.0624L36.8455 19.706L28.9062 19.7032V15.103ZM19.143 15.1808L26.8438 15.1195V19.7025L17.6193 19.6992L19.143 15.1808ZM23.2344 32.0735C22.7755 32.0735 22.3269 31.9374 21.9453 31.6824C21.5637 31.4275 21.2663 31.0651 21.0907 30.6411C20.9151 30.2171 20.8691 29.7506 20.9586 29.3005C21.0482 28.8504 21.2692 28.4369 21.5937 28.1124C21.9182 27.7879 22.3316 27.567 22.7817 27.4774C23.2318 27.3879 23.6983 27.4338 24.1223 27.6095C24.5463 27.7851 24.9087 28.0825 25.1636 28.4641C25.4186 28.8456 25.5547 29.2942 25.5547 29.7532C25.554 30.3683 25.3093 30.9581 24.8743 31.3931C24.4393 31.8281 23.8496 32.0728 23.2344 32.0735ZM38.1875 32.0735C37.7286 32.0735 37.28 31.9374 36.8984 31.6824C36.5168 31.4275 36.2194 31.0651 36.0438 30.6411C35.8682 30.2171 35.8222 29.7506 35.9118 29.3005C36.0013 28.8504 36.2223 28.4369 36.5468 28.1124C36.8713 27.7879 37.2847 27.567 37.7348 27.4774C38.1849 27.3879 38.6515 27.4338 39.0754 27.6095C39.4994 27.7851 39.8618 28.0825 40.1168 28.4641C40.3717 28.8456 40.5078 29.2942 40.5078 29.7532C40.5071 30.3683 40.2625 30.9581 39.8275 31.3931C39.3925 31.8281 38.8027 32.0728 38.1875 32.0735ZM44.375 28.9797H42.5006C42.3194 27.9676 41.7881 27.0515 40.9996 26.3917C40.2111 25.7318 39.2157 25.3702 38.1875 25.3702C37.1593 25.3702 36.1639 25.7318 35.3754 26.3917C34.5869 27.0515 34.0556 27.9676 33.8744 28.9797H27.5474C27.3663 27.9676 26.8349 27.0515 26.0464 26.3917C25.258 25.7318 24.2625 25.3702 23.2344 25.3702C22.2062 25.3702 21.2108 25.7318 20.4223 26.3917C19.6338 27.0515 19.1025 27.9676 18.9213 28.9797H17.5625V21.7626L38.8659 21.7967L44.375 22.6455V28.9797Z" fill="#61A036"/>
</g>
</g>
<defs>
<filter id="filter0_d" x="0.5" y="0" width="56" height="56" filterUnits="userSpaceOnUse" color-interpolation-filters="sRGB">
<feFlood flood-opacity="0" result="BackgroundImageFix"/>
<feColorMatrix in="SourceAlpha" type="matrix" values="0 0 0 0 0 0 0 0 0 0 0 0 0 0 0 0 0 0 127 0"/>
<feOffset dx="-2" dy="4"/>
<feGaussianBlur stdDeviation="2"/>
<feColorMatrix type="matrix" values="0 0 0 0 0 0 0 0 0 0 0 0 0 0 0 0 0 0 0.1 0"/>
<feBlend mode="normal" in2="BackgroundImageFix" result="effect1_dropShadow"/>
<feBlend mode="normal" in="SourceGraphic" in2="effect1_dropShadow" result="shape"/>
</filter>
<clipPath id="clip0">
<rect width="31" height="22" fill="white" transform="translate(15.5 13)"/>
</clipPath>
</defs>
</svg>
