<svg width="24" height="20" viewBox="0 0 24 20" fill="none" xmlns="http://www.w3.org/2000/svg">
<path d="M23.7674 2.75C22.9012 3.14375 21.9674 3.4025 20.9999 3.52625C21.9899 2.93 22.7549 1.985 23.1149 0.84875C22.1812 1.41125 21.1462 1.805 20.0549 2.03C19.1662 1.0625 17.9174 0.5 16.4999 0.5C13.8562 0.5 11.6962 2.66 11.6962 5.32625C11.6962 5.70875 11.7412 6.08 11.8199 6.42875C7.81492 6.22625 4.24867 4.3025 1.87492 1.38875C1.45867 2.0975 1.22242 2.93 1.22242 3.8075C1.22242 5.48375 2.06617 6.96875 3.37117 7.8125C2.57242 7.8125 1.82992 7.5875 1.17742 7.25V7.28375C1.17742 9.62375 2.84242 11.5813 5.04742 12.02C4.33949 12.2137 3.59628 12.2407 2.87617 12.0988C3.18173 13.0578 3.78015 13.897 4.58732 14.4983C5.39448 15.0996 6.3698 15.4329 7.37617 15.4513C5.67026 16.8017 3.55567 17.5317 1.37992 17.5212C0.997422 17.5212 0.614922 17.4987 0.232422 17.4538C2.36992 18.8263 4.91242 19.625 7.63492 19.625C16.4999 19.625 21.3712 12.2675 21.3712 5.88875C21.3712 5.675 21.3712 5.4725 21.3599 5.25875C22.3049 4.58375 23.1149 3.72875 23.7674 2.75Z" fill="black"/>
</svg>
