<svg width="35" height="26" viewBox="0 0 35 26" fill="none" xmlns="http://www.w3.org/2000/svg">
<path d="M33.5417 14.0973H1.45833C0.653331 14.0973 0 13.444 0 12.639C0 11.834 0.653331 11.1807 1.45833 11.1807H33.5417C34.3467 11.1807 35 11.834 35 12.639C35 13.444 34.3467 14.0973 33.5417 14.0973Z" fill="#0F242B"/>
<path d="M33.5417 2.91667H1.45833C0.653331 2.91667 0 2.26334 0 1.45833C0 0.653331 0.653331 0 1.45833 0H33.5417C34.3467 0 35 0.653331 35 1.45833C35 2.26334 34.3467 2.91667 33.5417 2.91667Z" fill="#0F242B"/>
<path d="M33.5417 25.2777H1.45833C0.653331 25.2777 0 24.6243 0 23.8193C0 23.0143 0.653331 22.361 1.45833 22.361H33.5417C34.3467 22.361 35 23.0143 35 23.8193C35 24.6243 34.3467 25.2777 33.5417 25.2777Z" fill="#0F242B"/>
</svg>
