<svg width="32" height="33" viewBox="0 0 32 33" fill="none" xmlns="http://www.w3.org/2000/svg">
<g id="Symbol.svg" clip-path="url(#clip0_4669_1789)">
<g id="Group">
<path id="Vector" d="M27.5486 26.7951C14.595 32.9599 6.5559 27.802 1.40981 24.6692C1.09137 24.4718 0.550136 24.7154 1.01973 25.2547C2.73415 27.3335 8.35267 32.344 15.6865 32.344C23.0253 32.344 27.3912 28.3395 27.9374 27.641C28.4799 26.9484 28.0967 26.5663 27.5484 26.7951H27.5486ZM31.1865 24.786C30.8387 24.333 29.0713 24.2486 27.9591 24.3852C26.8451 24.5179 25.173 25.1987 25.3184 25.6075C25.393 25.7607 25.5452 25.692 26.3105 25.6232C27.0779 25.5466 29.2275 25.2753 29.6755 25.8608C30.1255 26.4505 28.9898 29.2592 28.7824 29.7121C28.582 30.1651 28.859 30.2819 29.2354 29.9802C29.6066 29.6787 30.2787 28.8976 30.7297 27.7924C31.1777 26.6811 31.4509 25.1309 31.1865 24.786Z" fill="#FF9900"/>
<path id="Vector_2" fill-rule="evenodd" clip-rule="evenodd" d="M18.8395 14.2159C18.8395 15.8335 18.8804 17.1824 18.0628 18.6189C17.4029 19.7869 16.3576 20.5052 15.1898 20.5052C13.5955 20.5052 12.667 19.2905 12.667 17.4978C12.667 13.9589 15.8378 13.3166 18.8395 13.3166V14.2159ZM23.0265 24.336C22.752 24.5812 22.3549 24.5988 22.0455 24.4353C20.6673 23.2907 20.422 22.7594 19.6629 21.6673C17.3855 23.9915 15.7737 24.6864 12.8189 24.6864C9.32678 24.6864 6.60547 22.5315 6.60547 18.216C6.60547 14.8467 8.43338 12.5516 11.0318 11.4305C13.286 10.4376 16.4336 10.2625 18.8395 9.98811V9.45082C18.8395 8.46387 18.9154 7.29598 18.3373 6.44345C17.8292 5.67843 16.8599 5.36307 16.0072 5.36307C14.4247 5.36307 13.0115 6.17474 12.667 7.85654C12.5968 8.23037 12.3225 8.59829 11.9488 8.61577L7.91935 8.18371C7.58072 8.10764 7.20702 7.83327 7.30044 7.31346C8.22892 2.43164 12.6377 0.959961 16.5852 0.959961C18.6058 0.959961 21.2452 1.49726 22.8395 3.02728C24.8601 4.91342 24.6673 7.43027 24.6673 10.1691V16.6394C24.6673 18.584 25.4732 19.4365 26.2323 20.4877C26.5009 20.8614 26.5594 21.3112 26.2206 21.5913C25.3739 22.2979 23.8672 23.6119 23.0381 24.3477L23.0264 24.336" fill="black"/>
<path id="Vector_3" d="M27.5486 26.7951C14.595 32.9599 6.5559 27.802 1.40981 24.6692C1.09137 24.4718 0.550136 24.7154 1.01973 25.2547C2.73415 27.3335 8.35267 32.344 15.6865 32.344C23.0253 32.344 27.3912 28.3395 27.9374 27.641C28.4799 26.9484 28.0967 26.5663 27.5484 26.7951H27.5486ZM31.1865 24.786C30.8387 24.333 29.0713 24.2486 27.9591 24.3852C26.8451 24.5179 25.173 25.1987 25.3184 25.6075C25.393 25.7607 25.5452 25.692 26.3105 25.6232C27.0779 25.5466 29.2275 25.2753 29.6755 25.8608C30.1255 26.4505 28.9898 29.2592 28.7824 29.7121C28.582 30.1651 28.859 30.2819 29.2354 29.9802C29.6066 29.6787 30.2787 28.8976 30.7297 27.7924C31.1777 26.6811 31.4509 25.1309 31.1865 24.786Z" fill="#FF9900"/>
<path id="Vector_4" fill-rule="evenodd" clip-rule="evenodd" d="M18.8395 14.2159C18.8395 15.8335 18.8804 17.1824 18.0628 18.6189C17.4029 19.7869 16.3576 20.5052 15.1898 20.5052C13.5955 20.5052 12.667 19.2905 12.667 17.4978C12.667 13.9589 15.8378 13.3166 18.8395 13.3166V14.2159ZM23.0265 24.336C22.752 24.5812 22.3549 24.5988 22.0455 24.4353C20.6673 23.2907 20.422 22.7594 19.6629 21.6673C17.3855 23.9915 15.7737 24.6864 12.8189 24.6864C9.32678 24.6864 6.60547 22.5315 6.60547 18.216C6.60547 14.8467 8.43338 12.5516 11.0318 11.4305C13.286 10.4376 16.4336 10.2625 18.8395 9.98811V9.45082C18.8395 8.46387 18.9154 7.29598 18.3373 6.44345C17.8292 5.67843 16.8599 5.36307 16.0072 5.36307C14.4247 5.36307 13.0115 6.17474 12.667 7.85654C12.5968 8.23037 12.3225 8.59829 11.9488 8.61577L7.91935 8.18371C7.58072 8.10764 7.20702 7.83327 7.30044 7.31346C8.22892 2.43164 12.6377 0.959961 16.5852 0.959961C18.6058 0.959961 21.2452 1.49726 22.8395 3.02728C24.8601 4.91342 24.6673 7.43027 24.6673 10.1691V16.6394C24.6673 18.584 25.4732 19.4365 26.2323 20.4877C26.5009 20.8614 26.5594 21.3112 26.2206 21.5913C25.3739 22.2979 23.8672 23.6119 23.0381 24.3477L23.0264 24.336" fill="black"/>
</g>
</g>
<defs>
<clipPath id="clip0_4669_1789">
<rect width="32" height="32" fill="white" transform="translate(0 0.959961)"/>
</clipPath>
</defs>
</svg>
