<svg width="32" height="33" viewBox="0 0 32 33" fill="none" xmlns="http://www.w3.org/2000/svg">
<g id="baidu_symbol.svg" clip-path="url(#clip0_4669_2030)">
<g id="Group">
<path id="Vector" d="M5.368 17.9657C7.72 17.6296 8.536 15.2768 8.296 12.9721C8.104 10.9555 6.712 8.65073 4.504 8.84279C2.296 9.03485 1 11.1475 1 13.6443C1 15.9971 2.632 18.3498 5.368 17.9657Z" fill="#2932E1"/>
<path id="Vector_2" d="M11.8968 10.5715C14.2008 10.3315 15.0168 7.9787 14.9688 5.67396C14.8728 3.08113 13.4808 1.06449 11.2728 1.16052C9.3048 1.25655 7.7208 3.22518 7.6248 5.86602C7.5288 8.65092 9.3048 10.8116 11.8968 10.5715Z" fill="#2932E1"/>
<path id="Vector_3" d="M26.6323 17.9657C24.2803 17.6296 23.4643 15.2768 23.7043 12.9721C23.8963 10.9555 25.2883 8.65073 27.4963 8.84279C29.6563 9.03485 30.9523 11.1475 30.9523 13.6443C31.0003 15.9971 29.3203 18.3498 26.6323 17.9657Z" fill="#2932E1"/>
<path id="Vector_4" d="M20.1052 10.5715C17.8012 10.3315 16.9852 7.9787 17.0332 5.67396C17.1292 3.08113 18.5212 1.06449 20.7292 1.16052C22.6972 1.25655 24.2812 3.22518 24.3772 5.86602C24.4732 8.65092 22.6972 10.8116 20.1052 10.5715Z" fill="#2932E1"/>
<path id="Vector_5" d="M8.96875 25.8886C8.96875 26.8969 9.68875 27.8092 10.7927 27.8092H12.6647V24.016H10.7447C9.64075 23.968 8.96875 24.8803 8.96875 25.8886Z" fill="#2932E1"/>
<path id="Vector_6" d="M25.096 20.6066C24.376 19.8864 22.312 18.5419 20.728 15.9491C19.672 14.2205 17.896 13.0682 15.976 13.1162C14.104 13.0682 12.28 14.2205 11.224 15.9491C9.64 18.5419 7.624 19.9344 6.856 20.6066C5.992 21.4709 2.056 23.5835 2.92 28.145C3.784 32.6584 8.008 32.8505 8.008 32.8505C8.008 32.8505 10.024 33.0426 13.432 32.2263C14.344 32.0342 15.256 31.9382 15.976 31.9382C16.744 31.9382 17.608 32.0342 18.52 32.2263C21.928 33.0426 23.944 32.8505 23.944 32.8505C23.944 32.8505 28.216 32.6584 29.032 28.145C29.944 23.5835 26.008 21.4709 25.096 20.6066ZM14.872 29.9216H14.104H12.664H10.936C8.296 29.9216 6.76 28.193 6.76 25.7922C6.76 23.5835 8.392 21.807 10.792 21.807H12.664V18.3499H14.872V29.9216ZM23.848 29.9216H19.288C17.416 29.9216 16.6 28.9132 16.6 27.4728V21.759H18.76V26.7526C18.76 27.5208 19.096 27.7609 19.48 27.7609H21.688V21.7109H23.848V29.9216Z" fill="#2932E1"/>
</g>
</g>
<defs>
<clipPath id="clip0_4669_2030">
<rect width="32" height="32" fill="white" transform="translate(0 0.959961)"/>
</clipPath>
</defs>
</svg>
