<svg width="32" height="32" viewBox="0 0 32 32" fill="none" xmlns="http://www.w3.org/2000/svg">
<path d="M10.642 22.2688V25.1935C10.642 25.1935 10.4081 30.9998 15.9992 30.9998C21.5904 30.9998 21.3565 25.1935 21.3565 25.1935V22.2688" stroke="#4855DC" stroke-width="2" stroke-miterlimit="10" stroke-linecap="round" stroke-linejoin="round"/>
<path d="M21.3573 25.1935L29.8639 28.8127C30.2009 28.9561 30.4882 29.1954 30.6902 29.5008C30.8923 29.8062 31 30.1643 31.0001 30.5305L31.0002 31.0001H1L1.00006 30.5305C1.00013 30.1643 1.10789 29.8062 1.30991 29.5008C1.51193 29.1953 1.7993 28.956 2.13627 28.8127L10.6428 25.1935" stroke="#4855DC" stroke-width="2" stroke-miterlimit="10" stroke-linecap="round" stroke-linejoin="round"/>
<path d="M16.0012 24.5788C11.9519 24.5788 9.02734 21.5971 9.02734 17.919V10.2522C10.4618 3.38574 14.0025 7.16173 16.0012 7.16173C17.9999 7.16173 21.3584 3.38574 22.9751 10.2522V17.919C22.9751 21.5971 20.0506 24.5788 16.0012 24.5788Z" stroke="#4855DC" stroke-width="2" stroke-miterlimit="10" stroke-linecap="round" stroke-linejoin="round"/>
<path d="M9.02876 18.0019H6.53911C5.5079 18.0019 4.67188 17.1659 4.67188 16.1347V12.1195C4.67188 11.0883 5.5079 10.2522 6.53911 10.2522H9.02876V18.0019Z" stroke="#4855DC" stroke-width="2" stroke-miterlimit="10" stroke-linecap="round" stroke-linejoin="round"/>
<path d="M25.4623 18.0019H22.9727V10.2522H25.4623C26.4936 10.2522 27.3295 11.0882 27.3295 12.1194V16.1346C27.3295 17.1659 26.4936 18.0019 25.4623 18.0019Z" stroke="#4855DC" stroke-width="2" stroke-miterlimit="10" stroke-linecap="round" stroke-linejoin="round"/>
<path d="M22.9729 18.0018L20.7814 19.4632C20.0656 19.9405 19.2245 20.1952 18.3642 20.1952H16.7852" stroke="#4855DC" stroke-width="2" stroke-miterlimit="10" stroke-linecap="round" stroke-linejoin="round"/>
<path d="M24.9287 10.2521V9.92917C24.9287 4.99774 22.846 0.999987 15.9995 0.999987C9.15296 0.999987 7.07031 4.99774 7.07031 9.92917V10.2521" stroke="#4855DC" stroke-width="2" stroke-miterlimit="10" stroke-linecap="round" stroke-linejoin="round"/>
</svg>
