<svg width="48" height="49" viewBox="0 0 48 49" fill="none" xmlns="http://www.w3.org/2000/svg">
<g id="costco_logo.svg" clip-path="url(#clip0_4669_1862)">
<g id="Group">
<path id="Vector" d="M47.2787 21.1146C46.4596 20.129 45.0051 19.5517 43.3104 19.5517C41.517 19.5517 39.893 20.1572 38.7632 21.1569L38.9468 20.0164L38.4667 19.8756C37.7747 19.6644 37.0121 19.5658 36.2495 19.5658C34.9503 19.5658 33.6935 19.9741 32.6908 20.6359L32.9874 19.6785H25.1922L25.0933 19.9882C24.4013 19.7066 23.6388 19.5658 22.7773 19.5658C21.1675 19.5658 19.4305 20.1853 18.5408 21.3821C18.4843 21.2977 18.4137 21.2132 18.3572 21.1287C17.5381 20.1431 16.0836 19.5658 14.389 19.5658C12.6379 19.5658 11.0562 20.1431 9.94062 21.0724L10.3784 18.4394L9.88413 18.2986C9.0227 18.0452 8.09066 17.9185 7.15863 17.9185C3.74115 17.9185 0.634354 20.0868 0.0836037 22.8465C-0.156467 24.0151 0.125969 25.1556 0.860303 26.0567C1.48166 26.817 2.39958 27.3521 3.50108 27.6337H0.111847V31.9562H17.3546L17.3828 31.8999V31.9562H19.4587L19.7411 31.5057L19.6564 31.9562H24.3449L24.4155 31.5901C24.825 31.8577 25.3616 31.9985 25.983 31.9985C26.5337 31.9985 27.0421 31.8858 27.4799 31.6887L27.4234 31.9562H34.0042L34.0183 31.8999C34.329 31.9703 34.6396 32.0125 34.9503 32.0125C35.1339 32.0125 35.3316 31.9985 35.5152 31.9562H38.0289L38.2125 31.562H38.3819L38.4384 31.9562H46.1772L46.5584 29.9428H46.4172L46.4737 29.6612H46.5726L46.9539 27.6477H46.742C46.9115 27.4929 47.0386 27.2817 47.081 27.0564C47.1374 26.7889 47.0668 26.5073 46.8832 26.2961C46.8409 26.2397 46.7844 26.1975 46.7279 26.1553C47.3351 25.5217 47.7729 24.7613 47.9283 23.9165C48.1401 22.8465 47.9 21.889 47.2787 21.1146ZM42.802 29.7738H42.562L42.915 27.9012C42.9998 27.8871 43.0845 27.873 43.1551 27.873L42.802 29.7738ZM37.2663 23.6772C37.2381 23.8039 37.2239 23.9306 37.2098 24.0433C36.6873 24.3953 36.1931 24.5501 35.6705 24.5501C35.3175 24.5501 35.0068 24.4375 34.8515 24.2404C34.7667 24.1277 34.7244 24.0151 34.7526 23.8602C34.8515 23.3815 35.5011 22.9591 36.1507 22.9591C36.5602 22.9591 36.9415 23.0999 37.3228 23.3956C37.3087 23.4941 37.2804 23.5786 37.2663 23.6772ZM37.7888 27.6337L37.5346 28.0561L37.3228 27.9434C37.1816 27.8589 37.0404 27.8026 36.885 27.7463C36.998 27.7181 37.0968 27.69 37.1957 27.6618L37.4923 27.5492L37.7888 26.2679C37.8312 26.3242 37.8594 26.3805 37.9159 26.4369C38.3537 26.9719 38.9892 27.3802 39.7517 27.6337H37.7888ZM40.3731 27.8026L40.2742 28.3377L40.133 27.7463C40.2178 27.7745 40.2884 27.7885 40.3731 27.8026ZM42.8585 23.0295C43.1833 23.0295 43.4234 23.114 43.5505 23.2689C43.6635 23.4097 43.6635 23.5927 43.6352 23.7194C43.5364 24.2404 42.9998 24.6065 42.336 24.6065C42.0112 24.6065 41.757 24.522 41.6299 24.3671C41.5452 24.2685 41.517 24.1137 41.5593 23.9306C41.6299 23.4801 42.1101 23.0295 42.8585 23.0295ZM28.1719 28.0138C28.0871 27.9575 27.9742 27.9012 27.8753 27.8449H28.2001L28.1719 28.0138ZM26.3784 29.7738C26.336 29.8161 26.2654 29.8301 26.1948 29.8442C26.2372 29.8161 26.2937 29.7879 26.3784 29.7738ZM25.87 23.0717L25.4887 24.3389C25.4605 24.001 25.3616 23.6913 25.178 23.4237C25.1074 23.3111 25.0086 23.2125 24.9097 23.114L25.87 23.0717ZM14.6997 23.7053C14.6008 24.2263 14.0642 24.5924 13.4005 24.5924C13.0757 24.5924 12.8215 24.5079 12.6944 24.353C12.6096 24.2545 12.5814 24.0996 12.6238 23.9165C12.7085 23.466 13.1886 23.0154 13.9371 23.0154C14.2619 23.0154 14.502 23.0999 14.6291 23.2548C14.7279 23.3956 14.7279 23.5786 14.6997 23.7053ZM19.1763 27.8449L19.1622 27.873V27.8449H19.1763ZM24.938 26.1412L24.4861 27.6337H22.7491C23.6388 27.338 24.4296 26.8452 24.938 26.1412ZM25.1216 27.8589H25.2204C25.178 27.873 25.1498 27.8871 25.1216 27.9012V27.8589ZM6.45254 23.9588C5.95827 23.9588 5.53462 23.7898 5.30867 23.5223C5.18157 23.3674 5.13921 23.1844 5.18157 22.9873C5.30867 22.3396 6.1701 21.7905 7.07389 21.7905C7.68113 21.7905 8.23188 22.0157 8.78263 22.4804C8.64142 22.7479 8.52844 23.0295 8.44371 23.3252C7.75174 23.7617 7.13038 23.9588 6.45254 23.9588ZM16.6626 27.0141L17.2275 27.2676C17.5381 27.4084 17.8912 27.521 18.2442 27.6337H17.1992L17.0863 27.8589L17.0721 27.6337H15.2504C15.7588 27.4788 16.2389 27.2676 16.6626 27.0141ZM30.4031 29.7738L30.8126 27.6337H28.8215L30.2195 23.0577L30.6432 23.0717C30.5584 23.2829 30.502 23.4941 30.4596 23.7194C30.2619 24.7332 30.502 25.7188 31.1374 26.4932C31.5611 27.0001 32.126 27.3802 32.8038 27.6337H31.0527L30.6432 29.7738H30.4031ZM8.28837 27.4788L8.58493 27.3802L8.85324 26.2679C8.89561 26.3242 8.93797 26.3805 8.98034 26.4369C9.41811 26.9719 10.0536 27.3802 10.8162 27.6337H7.65289C7.89296 27.5914 8.10479 27.5351 8.28837 27.4788ZM44.186 27.6337C44.4402 27.5492 44.6944 27.4647 44.9344 27.3521C44.9627 27.4365 45.0051 27.521 45.0757 27.5914L45.118 27.6337H44.186Z" fill="white"/>
<path id="Vector_2" d="M16.5225 28.21L16.6354 30.0967H16.6637C16.7202 29.8996 16.7908 29.7024 16.8896 29.5194L17.5392 28.21H18.5984L18.7537 30.0967H18.7819C18.8384 29.9136 18.8949 29.7165 18.9796 29.5335L19.6151 28.21H21.0556L19.1067 31.3639H17.9346L17.8217 29.6461H17.7793C17.7369 29.8151 17.6946 29.97 17.624 30.1248L17.0026 31.3639H15.8164L15.082 28.21" fill="#0054A5"/>
<path id="Vector_3" d="M20.9822 28.21H22.3097L22.112 29.28H22.9593L23.157 28.21H24.4844L23.8913 31.3639H22.5498L22.7616 30.2656H21.9143L21.7024 31.3639H20.375" fill="#0054A5"/>
<path id="Vector_4" d="M28.3858 29.8015C28.1881 30.8152 27.129 31.4207 25.971 31.4207C24.813 31.4207 23.9798 30.8152 24.1775 29.8015C24.3611 28.8018 25.4344 28.1682 26.5924 28.1682C27.7503 28.1541 28.5835 28.8018 28.3858 29.8015ZM25.5756 29.8156C25.505 30.1816 25.7592 30.421 26.1687 30.421C26.5924 30.421 26.9313 30.1676 27.0019 29.8156C27.0725 29.4776 26.8466 29.196 26.4088 29.196C25.9569 29.196 25.6321 29.4776 25.5756 29.8156Z" fill="#0054A5"/>
<path id="Vector_5" d="M28.6932 28.21H30.0771L29.6676 30.3501H30.8256L30.6279 31.3639H28.0859" fill="#0054A5"/>
<path id="Vector_6" d="M34.1024 30.2377L34.1589 30.28C34.3707 30.4348 34.6532 30.5756 34.9639 30.5756C35.1051 30.5756 35.331 30.5334 35.3593 30.3926C35.3875 30.2518 35.2039 30.2377 35.091 30.2236L34.8226 30.1814C34.3001 30.0969 33.8906 29.8435 33.9895 29.3366C34.1307 28.5904 35.0345 28.168 35.8677 28.168C36.3054 28.168 36.6867 28.2524 37.0256 28.4496L36.5031 29.2521C36.2913 29.1113 36.0512 29.0128 35.7406 29.0128C35.6135 29.0128 35.4299 29.055 35.4158 29.1817C35.3875 29.2944 35.557 29.3225 35.67 29.3366L35.9665 29.3929C36.5314 29.5056 36.8985 29.759 36.7997 30.294C36.6585 31.0544 35.7547 31.4204 34.9356 31.4204C34.4555 31.4204 33.9188 31.3078 33.5234 31.1248" fill="#0054A5"/>
<path id="Vector_7" d="M38.8487 30.2244L38.7922 29.6612C38.7781 29.5204 38.7781 29.3937 38.7781 29.2529H38.7216L38.2838 30.2103M37.6484 31.3649H36.1797L38.1002 28.2109H39.6254L40.3739 31.3649H38.9052L38.8487 30.9706H37.8037L37.6484 31.3649Z" fill="#0054A5"/>
<path id="Vector_8" d="M40.8666 28.2109H42.2505L41.841 30.3511H42.9989L42.8154 31.3649H40.2734" fill="#0054A5"/>
<path id="Vector_9" d="M43.6775 28.2109H46.2336L46.0641 29.0698H44.9061L44.8497 29.3796H45.9088L45.7535 30.1962H44.6802L44.6237 30.506H45.8382L45.6687 31.3649H43.0703" fill="#0054A5"/>
<path id="Vector_10" d="M24.9219 22.5353L26.6589 22.4649L25.1902 27.2802H28.3252L29.7939 22.4649L31.5026 22.5353L32.1946 20.2402H25.6138" fill="#D91A32"/>
<path id="Vector_11" d="M18.4277 23.7751C17.9899 26.0279 15.5892 27.3796 12.9626 27.3796C10.3359 27.3796 8.45771 26.0279 8.89549 23.7751C9.31914 21.5646 11.7481 20.1284 14.3747 20.1284C16.9873 20.1284 18.8655 21.5646 18.4277 23.7751ZM12.0446 23.8174C11.8893 24.6199 12.4401 25.1691 13.4003 25.1691C14.3465 25.1691 15.1232 24.6199 15.2785 23.8174C15.4198 23.0711 14.9255 22.4516 13.937 22.4516C12.9343 22.4516 12.2 23.0711 12.0446 23.8174Z" fill="#D91A32"/>
<path id="Vector_12" d="M17.4688 26.7461C18.3584 27.1403 19.5729 27.3938 20.6603 27.3938C22.5244 27.3938 24.5579 26.5631 24.8827 24.8875C25.1086 23.6907 24.2613 23.1135 22.9904 22.8741L22.3125 22.7474C22.0866 22.7051 21.7053 22.6629 21.7477 22.4095C21.8041 22.1138 22.2137 22.0293 22.4961 22.0293C23.174 22.0293 23.7247 22.2687 24.2048 22.5643L25.4052 20.7621C24.6426 20.3397 23.7812 20.1426 22.7927 20.1426C20.9145 20.1426 18.8809 21.0719 18.5561 22.7474C18.3443 23.8456 19.2622 24.437 20.4485 24.6059L21.0557 24.7045C21.3381 24.7467 21.7335 24.7749 21.677 25.0987C21.6206 25.4226 21.0981 25.5211 20.8015 25.5211C20.0813 25.5211 19.4599 25.2255 18.9657 24.8735L18.8244 24.7749" fill="#D91A32"/>
<path id="Vector_13" d="M38.2968 20.4241C37.6754 20.2411 36.9552 20.1284 36.2491 20.1284C33.7213 20.1284 31.4336 21.7758 31.0241 23.8174C30.6287 25.8167 32.2527 27.3796 34.7099 27.3796C35.2747 27.3796 36.4468 27.2951 36.9976 27.098L37.6048 24.4651C37.0258 24.8593 36.4045 25.1127 35.6843 25.1127C34.7522 25.1127 34.0461 24.5214 34.2015 23.747C34.3568 22.9867 35.2324 22.3812 36.1644 22.3812C36.8705 22.3812 37.4354 22.7051 37.8732 23.0852" fill="#D91A32"/>
<path id="Vector_14" d="M43.3122 20.1284C40.6997 20.1284 38.2708 21.5646 37.833 23.7751C37.3952 26.0279 39.2734 27.3796 41.9001 27.3796C44.5267 27.3796 46.9274 26.0279 47.3652 23.7751C47.7889 21.5646 45.9248 20.1284 43.3122 20.1284ZM42.8603 22.4516C43.8489 22.4516 44.3573 23.0711 44.2019 23.8174C44.0466 24.6199 43.2699 25.1691 42.3237 25.1691C41.3776 25.1691 40.8127 24.6199 40.968 23.8174C41.1234 23.0711 41.8577 22.4516 42.8603 22.4516Z" fill="#D91A32"/>
<path id="Vector_15" d="M9.71484 18.8481C8.92402 18.6228 8.04847 18.4961 7.15879 18.4961C4.00963 18.4961 1.14291 20.4814 0.648644 22.9595C0.168503 25.3812 2.18792 27.2679 5.25235 27.2679C5.94432 27.2679 7.42711 27.1694 8.10495 26.93L8.85341 23.7479C8.11908 24.2267 7.34238 24.5364 6.4527 24.5364C5.28059 24.5364 4.41916 23.8183 4.60275 22.875C4.78633 21.9457 5.88783 21.2135 7.05994 21.2135C7.94961 21.2135 8.64158 21.6078 9.17821 22.0724" fill="#D91A32"/>
<path id="Vector_16" d="M45.4276 26.9287C45.4699 26.6893 45.7524 26.4922 46.0489 26.4922C46.3455 26.4922 46.5432 26.6893 46.5008 26.9287C46.4585 27.1821 46.176 27.3792 45.8795 27.3792C45.5829 27.3792 45.3852 27.1821 45.4276 26.9287ZM46.3596 26.9287C46.402 26.7315 46.2608 26.6048 46.0207 26.6048C45.7947 26.6048 45.597 26.7315 45.5688 26.9287C45.5264 27.1258 45.6677 27.2525 45.9077 27.2525C46.1337 27.2666 46.3314 27.1258 46.3596 26.9287ZM46.176 27.168H46.0348L45.9501 26.9709H45.8654L45.823 27.168H45.71L45.7947 26.7034H46.0631C46.176 26.7034 46.2466 26.7315 46.2325 26.8442C46.2184 26.9287 46.1478 26.9709 46.0772 26.9709L46.176 27.168ZM46.0066 26.8864C46.0631 26.8864 46.1196 26.8864 46.1196 26.8301C46.1337 26.7879 46.0772 26.7879 46.0207 26.7879H45.8936L45.8795 26.8723H46.0066V26.8864Z" fill="#D91A32"/>
<path id="Vector_17" d="M0.875 31.3787H15.5193V31.3646H15.5052L15.3216 30.562H0.875" fill="#0054A5"/>
<path id="Vector_18" d="M0.875 30.2239H15.251L15.0533 29.4214H0.875" fill="#0054A5"/>
<path id="Vector_19" d="M0.875 29.0698H14.9827L14.9121 28.7741L14.785 28.2109H0.875" fill="#0054A5"/>
<path id="Vector_20" d="M31.4901 28.2109H34.0461L33.8908 29.0698H32.7186L32.6622 29.3796H33.7213L33.566 30.1962H32.5068L32.4503 30.506H33.6507L33.4812 31.3649H30.8828" fill="#0054A5"/>
</g>
</g>
<defs>
<clipPath id="clip0_4669_1862">
<rect width="48" height="48" fill="white" transform="translate(0 0.959961)"/>
</clipPath>
</defs>
</svg>
