<svg width="596" height="284" viewBox="0 0 596 284" fill="none" xmlns="http://www.w3.org/2000/svg">
<path fill-rule="evenodd" clip-rule="evenodd" d="M440 44C431.163 44 424 36.8366 424 28V-20C424 -28.8366 431.163 -36 440 -36H488C496.837 -36 504 -28.8366 504 -20V28C504 36.8366 496.837 44 488 44H440ZM424 120C424 128.837 431.163 136 440 136H488C496.837 136 504 128.837 504 120V72C504 63.1634 496.837 56 488 56H440C431.163 56 424 63.1634 424 72V120ZM440 228C431.163 228 424 220.837 424 212V164C424 155.163 431.163 148 440 148H488C496.837 148 504 155.163 504 164V212C504 220.837 496.837 228 488 228H440ZM516 304C516 312.837 523.163 320 532 320H580C588.837 320 596 312.837 596 304V256C596 247.163 588.837 240 580 240H532C523.163 240 516 247.163 516 256V304ZM424 304C424 312.837 431.163 320 440 320H488C496.837 320 504 312.837 504 304V256C504 247.163 496.837 240 488 240H440C431.163 240 424 247.163 424 256V304ZM532 228C523.163 228 516 220.837 516 212V164C516 155.163 523.163 148 532 148H580C588.837 148 596 155.163 596 164V212C596 220.837 588.837 228 580 228H532ZM516 120C516 128.837 523.163 136 532 136H580C588.837 136 596 128.837 596 120V72C596 63.1634 588.837 56 580 56H532C523.163 56 516 63.1634 516 72V120ZM516 28C516 36.8366 523.163 44 532 44H580C588.837 44 596 36.8366 596 28V-20C596 -28.8366 588.837 -36 580 -36H532C523.163 -36 516 -28.8366 516 -20V28ZM320 28C320 36.8366 312.837 44 304 44H256C247.163 44 240 36.8366 240 28V-20C240 -28.8366 247.163 -36 256 -36H304C312.837 -36 320 -28.8366 320 -20V28ZM304 136C312.837 136 320 128.837 320 120V72C320 63.1634 312.837 56 304 56H256C247.163 56 240 63.1634 240 72V120C240 128.837 247.163 136 256 136H304ZM412 28C412 36.8366 404.837 44 396 44H348C339.163 44 332 36.8366 332 28V-20C332 -28.8366 339.163 -36 348 -36H396C404.837 -36 412 -28.8366 412 -20V28ZM396 136C404.837 136 412 128.837 412 120V72C412 63.1634 404.837 56 396 56H348C339.163 56 332 63.1634 332 72V120C332 128.837 339.163 136 348 136H396ZM136 28C136 36.8366 128.837 44 120 44H72C63.1635 44 56 36.8366 56 28V-20C56 -28.8366 63.1635 -36 72 -36H120C128.837 -36 136 -28.8366 136 -20V28ZM120 136C128.837 136 136 128.837 136 120V72C136 63.1634 128.837 56 120 56H72C63.1635 56 56 63.1634 56 72V120C56 128.837 63.1635 136 72 136H120ZM228 120C228 128.837 220.837 136 212 136H164C155.163 136 148 128.837 148 120V72C148 63.1634 155.163 56 164 56H212C220.837 56 228 63.1634 228 72V120ZM212 44C220.837 44 228 36.8366 228 28V-20C228 -28.8366 220.837 -36 212 -36H164C155.163 -36 148 -28.8366 148 -20V28C148 36.8366 155.163 44 164 44H212ZM228 212C228 220.837 220.837 228 212 228H164C155.163 228 148 220.837 148 212V164C148 155.163 155.163 148 164 148H212C220.837 148 228 155.163 228 164V212ZM304 228C312.837 228 320 220.837 320 212V164C320 155.163 312.837 148 304 148H256C247.163 148 240 155.163 240 164V212C240 220.837 247.163 228 256 228H304ZM320 304C320 312.837 312.837 320 304 320H256C247.163 320 240 312.837 240 304V256C240 247.163 247.163 240 256 240H304C312.837 240 320 247.163 320 256V304ZM120 320C128.837 320 136 312.837 136 304V256C136 247.163 128.837 240 120 240H72C63.1635 240 56 247.163 56 256V304C56 312.837 63.1635 320 72 320H120ZM412 212C412 220.837 404.837 228 396 228H348C339.163 228 332 220.837 332 212V164C332 155.163 339.163 148 348 148H396C404.837 148 412 155.163 412 164V212ZM396 320C404.837 320 412 312.837 412 304V256C412 247.163 404.837 240 396 240H348C339.163 240 332 247.163 332 256V304C332 312.837 339.163 320 348 320H396ZM228 304C228 312.837 220.837 320 212 320H164C155.163 320 148 312.837 148 304V256C148 247.163 155.163 240 164 240H212C220.837 240 228 247.163 228 256V304ZM136 164C136 155.163 128.837 148 120 148H72C63.1635 148 56 155.163 56 164V212C56 220.837 63.1635 228 72 228H120C128.837 228 136 220.837 136 212V164ZM-64 -36C-55.1635 -36 -48 -28.8366 -48 -20V28C-48 36.8366 -55.1635 44 -64 44H-112C-120.837 44 -128 36.8366 -128 28V-20C-128 -28.8366 -120.837 -36 -112 -36H-64ZM44 72C44 63.1634 36.8365 56 28 56H-20C-28.8365 56 -36 63.1634 -36 72V120C-36 128.837 -28.8365 136 -20 136H28C36.8365 136 44 128.837 44 120V72ZM28 -36C36.8365 -36 44 -28.8366 44 -20V28C44 36.8366 36.8365 44 28 44H-20C-28.8365 44 -36 36.8366 -36 28V-20C-36 -28.8366 -28.8365 -36 -20 -36H28ZM44 164C44 155.163 36.8365 148 28 148H-20C-28.8365 148 -36 155.163 -36 164V212C-36 220.837 -28.8365 228 -20 228H28C36.8365 228 44 220.837 44 212V164ZM28 240C36.8365 240 44 247.163 44 256V304C44 312.837 36.8365 320 28 320H-20C-28.8365 320 -36 312.837 -36 304V256C-36 247.163 -28.8365 240 -20 240H28ZM-48 72C-48 63.1634 -55.1635 56 -64 56H-112C-120.837 56 -128 63.1634 -128 72V120C-128 128.837 -120.837 136 -112 136H-64C-55.1635 136 -48 128.837 -48 120V72ZM-64 240C-55.1635 240 -48 247.163 -48 256V304C-48 312.837 -55.1635 320 -64 320H-112C-120.837 320 -128 312.837 -128 304V256C-128 247.163 -120.837 240 -112 240H-64Z" fill="url(#paint0_linear_4669_1714)"/>
<defs>
<linearGradient id="paint0_linear_4669_1714" x1="-128" y1="142" x2="596" y2="142" gradientUnits="userSpaceOnUse">
<stop stop-color="#525FE6"/>
<stop offset="1" stop-color="#4855DC"/>
</linearGradient>
</defs>
</svg>
