<svg width="532" height="284" viewBox="0 0 532 284" fill="none" xmlns="http://www.w3.org/2000/svg">
<path fill-rule="evenodd" clip-rule="evenodd" d="M156 44C164.837 44 172 36.8366 172 28V-20C172 -28.8366 164.837 -36 156 -36H108C99.1634 -36 92 -28.8366 92 -20V28C92 36.8366 99.1634 44 108 44H156ZM172 120C172 128.837 164.837 136 156 136H108C99.1634 136 92 128.837 92 120V72C92 63.1634 99.1634 56 108 56H156C164.837 56 172 63.1634 172 72V120ZM156 228C164.837 228 172 220.837 172 212V164C172 155.163 164.837 148 156 148H108C99.1634 148 92 155.163 92 164V212C92 220.837 99.1634 228 108 228H156ZM80 304C80 312.837 72.8366 320 64 320H16C7.16344 320 0 312.837 0 304V256C0 247.163 7.16344 240 16 240H64C72.8366 240 80 247.163 80 256V304ZM172 304C172 312.837 164.837 320 156 320H108C99.1634 320 92 312.837 92 304V256C92 247.163 99.1634 240 108 240H156C164.837 240 172 247.163 172 256V304ZM64 228C72.8366 228 80 220.837 80 212V164C80 155.163 72.8366 148 64 148H16C7.16344 148 0 155.163 0 164V212C0 220.837 7.16344 228 16 228H64ZM80 120C80 128.837 72.8366 136 64 136H16C7.16344 136 0 128.837 0 120V72C0 63.1634 7.16344 56 16 56H64C72.8366 56 80 63.1634 80 72V120ZM80 28C80 36.8366 72.8366 44 64 44H16C7.16344 44 0 36.8366 0 28V-20C0 -28.8366 7.16344 -36 16 -36H64C72.8366 -36 80 -28.8366 80 -20V28ZM276 28C276 36.8366 283.163 44 292 44H340C348.837 44 356 36.8366 356 28V-20C356 -28.8366 348.837 -36 340 -36H292C283.163 -36 276 -28.8366 276 -20V28ZM292 136C283.163 136 276 128.837 276 120V72C276 63.1634 283.163 56 292 56H340C348.837 56 356 63.1634 356 72V120C356 128.837 348.837 136 340 136H292ZM184 28C184 36.8366 191.163 44 200 44H248C256.837 44 264 36.8366 264 28V-20C264 -28.8366 256.837 -36 248 -36H200C191.163 -36 184 -28.8366 184 -20V28ZM200 136C191.163 136 184 128.837 184 120V72C184 63.1634 191.163 56 200 56H248C256.837 56 264 63.1634 264 72V120C264 128.837 256.837 136 248 136H200ZM460 28C460 36.8366 467.163 44 476 44H524C532.837 44 540 36.8366 540 28V-20C540 -28.8366 532.837 -36 524 -36H476C467.163 -36 460 -28.8366 460 -20V28ZM476 136C467.163 136 460 128.837 460 120V72C460 63.1634 467.163 56 476 56H524C532.837 56 540 63.1634 540 72V120C540 128.837 532.837 136 524 136H476ZM368 120C368 128.837 375.163 136 384 136H432C440.837 136 448 128.837 448 120V72C448 63.1634 440.837 56 432 56H384C375.163 56 368 63.1634 368 72V120ZM384 44C375.163 44 368 36.8366 368 28V-20C368 -28.8366 375.163 -36 384 -36H432C440.837 -36 448 -28.8366 448 -20V28C448 36.8366 440.837 44 432 44H384ZM368 212C368 220.837 375.163 228 384 228H432C440.837 228 448 220.837 448 212V164C448 155.163 440.837 148 432 148H384C375.163 148 368 155.163 368 164V212ZM292 228C283.163 228 276 220.837 276 212V164C276 155.163 283.163 148 292 148H340C348.837 148 356 155.163 356 164V212C356 220.837 348.837 228 340 228H292ZM276 304C276 312.837 283.163 320 292 320H340C348.837 320 356 312.837 356 304V256C356 247.163 348.837 240 340 240H292C283.163 240 276 247.163 276 256V304ZM476 320C467.163 320 460 312.837 460 304V256C460 247.163 467.163 240 476 240H524C532.837 240 540 247.163 540 256V304C540 312.837 532.837 320 524 320H476ZM184 212C184 220.837 191.163 228 200 228H248C256.837 228 264 220.837 264 212V164C264 155.163 256.837 148 248 148H200C191.163 148 184 155.163 184 164V212ZM200 320C191.163 320 184 312.837 184 304V256C184 247.163 191.163 240 200 240H248C256.837 240 264 247.163 264 256V304C264 312.837 256.837 320 248 320H200ZM368 304C368 312.837 375.163 320 384 320H432C440.837 320 448 312.837 448 304V256C448 247.163 440.837 240 432 240H384C375.163 240 368 247.163 368 256V304ZM460 164C460 155.163 467.163 148 476 148H524C532.837 148 540 155.163 540 164V212C540 220.837 532.837 228 524 228H476C467.163 228 460 220.837 460 212V164ZM660 -36C651.163 -36 644 -28.8366 644 -20V28C644 36.8366 651.163 44 660 44H708C716.837 44 724 36.8366 724 28V-20C724 -28.8366 716.837 -36 708 -36H660ZM552 72C552 63.1634 559.163 56 568 56H616C624.837 56 632 63.1634 632 72V120C632 128.837 624.837 136 616 136H568C559.163 136 552 128.837 552 120V72ZM568 -36C559.163 -36 552 -28.8366 552 -20V28C552 36.8366 559.163 44 568 44H616C624.837 44 632 36.8366 632 28V-20C632 -28.8366 624.837 -36 616 -36H568ZM552 164C552 155.163 559.163 148 568 148H616C624.837 148 632 155.163 632 164V212C632 220.837 624.837 228 616 228H568C559.163 228 552 220.837 552 212V164ZM568 240C559.163 240 552 247.163 552 256V304C552 312.837 559.163 320 568 320H616C624.837 320 632 312.837 632 304V256C632 247.163 624.837 240 616 240H568ZM644 72C644 63.1634 651.163 56 660 56H708C716.837 56 724 63.1634 724 72V120C724 128.837 716.837 136 708 136H660C651.163 136 644 128.837 644 120V72ZM660 240C651.163 240 644 247.163 644 256V304C644 312.837 651.163 320 660 320H708C716.837 320 724 312.837 724 304V256C724 247.163 716.837 240 708 240H660Z" fill="url(#paint0_linear_4669_1682)"/>
<defs>
<linearGradient id="paint0_linear_4669_1682" x1="724" y1="142" x2="0" y2="142" gradientUnits="userSpaceOnUse">
<stop stop-color="#3E4BD2"/>
<stop offset="1" stop-color="#4855DC"/>
</linearGradient>
</defs>
</svg>
