<svg width="172" height="264" viewBox="0 0 172 264" fill="none" xmlns="http://www.w3.org/2000/svg">
<path fill-rule="evenodd" clip-rule="evenodd" d="M16 1H64C72.2843 1 79 7.71573 79 16V64C79 72.2843 72.2843 79 64 79H16C7.71573 79 1 72.2843 1 64V16C1 7.71573 7.71573 1 16 1ZM0 16C0 7.16344 7.16344 0 16 0H64C72.8366 0 80 7.16344 80 16V64C80 72.8366 72.8366 80 64 80H16C7.16344 80 0 72.8366 0 64V16ZM108 1H156C164.284 1 171 7.71573 171 16V64C171 72.2843 164.284 79 156 79H108C99.7157 79 93 72.2843 93 64V16C93 7.71573 99.7157 1 108 1ZM92 16C92 7.16344 99.1634 0 108 0H156C164.837 0 172 7.16344 172 16V64C172 72.8366 164.837 80 156 80H108C99.1634 80 92 72.8366 92 64V16ZM16 93H64C72.2843 93 79 99.7157 79 108V156C79 164.284 72.2843 171 64 171H16C7.71573 171 1 164.284 1 156V108C1 99.7157 7.71573 93 16 93ZM0 108C0 99.1634 7.16344 92 16 92H64C72.8366 92 80 99.1634 80 108V156C80 164.837 72.8366 172 64 172H16C7.16344 172 0 164.837 0 156V108ZM108 93H156C164.284 93 171 99.7157 171 108V156C171 164.284 164.284 171 156 171H108C99.7157 171 93 164.284 93 156V108C93 99.7157 99.7157 93 108 93ZM92 108C92 99.1634 99.1634 92 108 92H156C164.837 92 172 99.1634 172 108V156C172 164.837 164.837 172 156 172H108C99.1634 172 92 164.837 92 156V108ZM64 185H16C7.71573 185 1 191.716 1 200V248C1 256.284 7.71573 263 16 263H64C72.2843 263 79 256.284 79 248V200C79 191.716 72.2843 185 64 185ZM16 184C7.16344 184 0 191.163 0 200V248C0 256.837 7.16344 264 16 264H64C72.8366 264 80 256.837 80 248V200C80 191.163 72.8366 184 64 184H16ZM156 185H108C99.7157 185 93 191.716 93 200V248C93 256.284 99.7157 263 108 263H156C164.284 263 171 256.284 171 248V200C171 191.716 164.284 185 156 185ZM108 184C99.1634 184 92 191.163 92 200V248C92 256.837 99.1634 264 108 264H156C164.837 264 172 256.837 172 248V200C172 191.163 164.837 184 156 184H108Z" fill="url(#paint0_linear_4669_2050)"/>
<defs>
<linearGradient id="paint0_linear_4669_2050" x1="-8" y1="99.96" x2="202" y2="172.46" gradientUnits="userSpaceOnUse">
<stop stop-color="#919EAB" stop-opacity="0.14"/>
<stop offset="0.863007" stop-color="#919EAB" stop-opacity="0"/>
</linearGradient>
</defs>
</svg>
