<svg width="36" height="36" viewBox="0 0 36 36" fill="none" xmlns="http://www.w3.org/2000/svg">
<g id="database-01-1.svg">
<g id="Group">
<path id="Vector" d="M30.9591 8.07195C30.9591 10.4578 25.1567 12.392 17.9991 12.392C10.8415 12.392 5.03906 10.4578 5.03906 8.07195M30.9591 8.07195C30.9591 5.68607 25.1567 3.75195 17.9991 3.75195C10.8415 3.75195 5.03906 5.68607 5.03906 8.07195M30.9591 8.07195V28.232C30.9591 30.6224 25.1991 32.552 17.9991 32.552C10.7991 32.552 5.03906 30.6224 5.03906 28.232V8.07195M30.9591 18.152C30.9591 20.5424 25.1991 22.472 17.9991 22.472C10.7991 22.472 5.03906 20.5424 5.03906 18.152" stroke="#4855DC" stroke-width="2.5" stroke-linecap="round" stroke-linejoin="round"/>
</g>
</g>
</svg>
