<svg width="172" height="264" viewBox="0 0 172 264" fill="none" xmlns="http://www.w3.org/2000/svg">
<path fill-rule="evenodd" clip-rule="evenodd" d="M156 263H108C99.7157 263 93 256.284 93 248V200C93 191.716 99.7157 185 108 185H156C164.284 185 171 191.716 171 200V248C171 256.284 164.284 263 156 263ZM172 248C172 256.837 164.837 264 156 264H108C99.1634 264 92 256.837 92 248V200C92 191.163 99.1634 184 108 184H156C164.837 184 172 191.163 172 200V248ZM64 263H16C7.71573 263 1 256.284 1 248V200C1 191.716 7.71573 185 16 185H64C72.2843 185 79 191.716 79 200V248C79 256.284 72.2843 263 64 263ZM80 248C80 256.837 72.8366 264 64 264H16C7.16345 264 0 256.837 0 248V200C0 191.163 7.16345 184 16 184H64C72.8366 184 80 191.163 80 200V248ZM156 171H108C99.7157 171 93 164.284 93 156V108C93 99.7157 99.7157 93 108 93H156C164.284 93 171 99.7157 171 108V156C171 164.284 164.284 171 156 171ZM172 156C172 164.837 164.837 172 156 172H108C99.1634 172 92 164.837 92 156V108C92 99.1635 99.1634 92 108 92H156C164.837 92 172 99.1635 172 108V156ZM64 171H16C7.71573 171 1 164.284 1 156V108C1 99.7157 7.71573 93 16 93H64C72.2843 93 79 99.7157 79 108V156C79 164.284 72.2843 171 64 171ZM80 156C80 164.837 72.8366 172 64 172H16C7.16345 172 0 164.837 0 156V108C0 99.1635 7.16345 92 16 92H64C72.8366 92 80 99.1635 80 108V156ZM108 79H156C164.284 79 171 72.2843 171 64V16C171 7.71573 164.284 1 156 1H108C99.7157 1 93 7.71573 93 16V64C93 72.2843 99.7157 79 108 79ZM156 80C164.837 80 172 72.8366 172 64V16C172 7.16345 164.837 0 156 0H108C99.1634 0 92 7.16345 92 16V64C92 72.8365 99.1634 80 108 80H156ZM16 79H64C72.2843 79 79 72.2843 79 64V16C79 7.71573 72.2843 1 64 1H16C7.71573 1 1 7.71573 1 16V64C1 72.2843 7.71573 79 16 79ZM64 80C72.8366 80 80 72.8366 80 64V16C80 7.16345 72.8366 0 64 0H16C7.16345 0 0 7.16345 0 16V64C0 72.8365 7.16345 80 16 80H64Z" fill="url(#paint0_linear_4669_1757)"/>
<defs>
<linearGradient id="paint0_linear_4669_1757" x1="180" y1="164.04" x2="-30" y2="91.54" gradientUnits="userSpaceOnUse">
<stop stop-color="#919EAB" stop-opacity="0.14"/>
<stop offset="0.863007" stop-color="#919EAB" stop-opacity="0"/>
</linearGradient>
</defs>
</svg>
