<svg width="40" height="41" viewBox="0 0 40 41" fill="none" xmlns="http://www.w3.org/2000/svg">
<g id="ebay_inc_logo.svg">
<g id="Group">
<path id="Vector" d="M25.3309 21.4495C23.5127 21.5121 22.3842 21.8459 22.3842 23.0349C22.3842 23.8068 23.0112 24.6412 24.5786 24.6412C26.6893 24.6412 27.7969 23.4939 27.7969 21.6164V21.4078C27.0655 21.4078 26.146 21.4287 25.3309 21.4495ZM29.8032 23.9319C29.8032 24.516 29.8241 25.0793 29.8659 25.6008H28.0059C27.9641 25.1836 27.9432 24.7455 27.9432 24.3491C26.9401 25.5799 25.728 25.9345 24.077 25.9345C21.5901 25.9345 20.2734 24.6412 20.2734 23.1184C20.2734 20.928 22.0707 20.177 25.1846 20.0936C26.0415 20.0727 27.0028 20.0727 27.7969 20.0727V19.8641C27.7969 18.4039 26.8565 17.7989 25.2264 17.7989C24.0143 17.7989 23.1366 18.2996 23.0321 19.1549H20.9213C21.1512 17.0062 23.4082 16.4639 25.3936 16.4639C27.776 16.4639 29.7823 17.3191 29.7823 19.8224V23.9319H29.8032Z" fill="#F5AF02"/>
<path id="Vector_2" d="M7.98328 20.3853C7.89969 18.5078 6.56217 17.8194 5.09927 17.8194C3.55277 17.7986 2.29885 18.5913 2.08986 20.3853H7.98328ZM2.04807 21.7204C2.15256 23.5352 3.40648 24.62 5.14107 24.62C6.33229 24.62 7.39812 24.1402 7.7534 23.0763H9.82236C9.40439 25.2041 7.12644 25.9342 5.16196 25.9342C1.5883 25.9342 0 23.9733 0 21.324C0 18.4035 1.63009 16.4844 5.18286 16.4844C8.00418 16.4844 10.094 17.9655 10.094 21.178V21.7204H2.04807Z" fill="#E53238"/>
<path id="Vector_3" d="M15.235 24.5574C17.095 24.5574 18.3698 23.2223 18.3698 21.1989C18.3698 19.1754 17.095 17.8403 15.235 17.8403C13.375 17.8403 12.1002 19.1754 12.1002 21.1989C12.1002 23.2223 13.375 24.5574 15.235 24.5574ZM10.0939 12.959H12.1002V17.9864C13.0825 16.8182 14.4409 16.4844 15.7784 16.4844C18.0145 16.4844 20.5015 17.9864 20.5015 21.2406C20.5015 23.9525 18.537 25.9342 15.7575 25.9342C14.2946 25.9342 12.9362 25.4127 12.0793 24.3905C12.0793 24.8077 12.0584 25.225 12.0166 25.6213H10.0312C10.073 24.9955 10.0939 24.2028 10.0939 23.5561V12.959Z" fill="#0064D2"/>
<path id="Vector_4" d="M39.9989 16.8174L33.792 28.9791H31.5559L33.3323 25.5997L28.6719 16.8174H31.0125L34.4399 23.6805L37.8673 16.8174H39.9989Z" fill="#86B817"/>
</g>
</g>
</svg>
