<svg width="32" height="33" viewBox="0 0 32 33" fill="none" xmlns="http://www.w3.org/2000/svg">
<g id="Symbol.svg" clip-path="url(#clip0_4669_1910)">
<g id="g10">
<g id="g12">
<path id="path14" d="M32 16.96C32 8.12343 24.8366 0.959997 16 0.959997C7.16344 0.959997 0 8.12343 0 16.96C0 24.9461 5.85097 31.5653 13.5 32.7656V21.585H9.4375V16.96H13.5V13.435C13.5 9.425 15.8887 7.21 19.5434 7.21C21.294 7.21 23.125 7.5225 23.125 7.5225V11.46H21.1074C19.1198 11.46 18.5 12.6933 18.5 13.9587V16.96H22.9375L22.2281 21.585H18.5V32.7656C26.149 31.5653 32 24.9461 32 16.96Z" fill="#1877F2"/>
</g>
</g>
</g>
<defs>
<clipPath id="clip0_4669_1910">
<rect width="32" height="32" fill="white" transform="translate(0 0.959961)"/>
</clipPath>
</defs>
</svg>
