<svg width="37" height="36" viewBox="0 0 37 36" fill="none" xmlns="http://www.w3.org/2000/svg">
<g id="file-check-02">
<path id="Icon" d="M30.6719 18.75V10.2C30.6719 7.67976 30.6719 6.41965 30.1814 5.45704C29.75 4.61031 29.0616 3.9219 28.2148 3.49047C27.2522 3 25.9921 3 23.4719 3H13.8719C11.3516 3 10.0915 3 9.12892 3.49047C8.28219 3.9219 7.59378 4.61031 7.16235 5.45704C6.67188 6.41965 6.67188 7.67976 6.67188 10.2V25.8C6.67188 28.3202 6.67188 29.5804 7.16235 30.543C7.59378 31.3897 8.28219 32.0781 9.12892 32.5095C10.0915 33 11.3516 33 13.8719 33H18.6719M21.6719 16.5H12.6719M15.6719 22.5H12.6719M24.6719 10.5H12.6719M22.4219 28.5L25.4219 31.5L32.1719 24.75" stroke="#4855DC" stroke-width="2.5" stroke-linecap="round" stroke-linejoin="round"/>
</g>
</svg>
