<svg width="37" height="36" viewBox="0 0 37 36" fill="none" xmlns="http://www.w3.org/2000/svg">
<g id="Frame" clip-path="url(#clip0_4669_2175)">
<g id="Group">
<path id="Vector" d="M9.82422 16.875C5.94487 16.875 2.60348 15.6428 0.957039 14.9083L0.332031 14.6295V21.4798L10.0969 16.873C10.006 16.8741 9.9152 16.875 9.82422 16.875ZM26.6992 0C24.949 0 23.1802 0.202641 21.4258 0.479742V8.47371L35.2897 1.99406C34.0554 1.41441 30.6397 0 26.6992 0ZM26.4819 8.43905C26.5543 8.43841 26.6267 8.4375 26.6992 8.4375C30.5919 8.4375 34.0089 9.67493 35.6991 10.4125L36.332 10.6887V3.83534L26.4819 8.43905ZM26.6992 14.7656C25.5532 14.7656 24.3779 14.8711 23.2134 15.0268L36.332 23.6904V17.8504L33.7919 16.5047C33.7615 16.4888 30.4227 14.7656 26.6992 14.7656ZM9.82422 10.5469C10.9766 10.5469 12.1578 10.4406 13.3274 10.284L0.332031 1.61909V7.41748L2.91763 8.83252C2.94632 8.84805 6.13506 10.5469 9.82422 10.5469ZM21.4258 23.7101C23.202 23.4202 24.981 23.2031 26.6992 23.2031C30.7767 23.2031 34.3451 24.9654 34.7422 25.1683L21.4258 16.3741V23.7101Z" fill="#4855DC"/>
<path id="Vector_2" d="M26.6992 10.5469C24.4828 10.5469 22.248 10.8802 20.5487 11.1705C20.3974 11.1964 20.2422 11.1889 20.094 11.1485C19.9459 11.1082 19.8083 11.036 19.691 10.937C19.5736 10.838 19.4793 10.7146 19.4146 10.5753C19.3499 10.4361 19.3164 10.2844 19.3164 10.1308V0.842285C18.9004 0.918152 17.4966 1.17943 17.207 1.23287V10.8999C17.207 11.1474 17.12 11.387 16.9611 11.5768C16.8023 11.7666 16.5817 11.8945 16.338 11.9381C14.2529 12.3111 12.0206 12.6563 9.82422 12.6563C5.55991 12.6563 1.94099 10.7027 1.90499 10.6829L0.332031 9.82211V12.3197L1.8164 12.9819C3.3097 13.6481 6.33566 14.7656 9.82422 14.7656C12.0428 14.7656 14.2766 14.4328 15.9748 14.1428C16.1261 14.117 16.2813 14.1245 16.4294 14.1648C16.5776 14.2051 16.7151 14.2773 16.8325 14.3763C16.9498 14.4753 17.0441 14.5988 17.1088 14.738C17.1735 14.8772 17.207 15.0289 17.207 15.1824V24.4712C17.6264 24.3947 19.0302 24.1334 19.3164 24.0806V14.4137C19.3164 14.1662 19.4034 13.9266 19.5623 13.7368C19.7211 13.547 19.9416 13.4191 20.1852 13.3755C22.2716 13.0019 24.5048 12.6563 26.6992 12.6563C30.9841 12.6563 34.7419 14.6209 34.7794 14.6407L36.332 15.4632V12.9901L34.8555 12.3458C33.3159 11.674 30.209 10.5469 26.6992 10.5469Z" fill="#4855DC"/>
<path id="Vector_3" d="M0.332031 34.9454C0.332031 35.5279 1.30425 36.0001 1.88672 36.0001C2.46919 36.0001 3.44141 35.5279 3.44141 34.9454V23.7973C5.05276 24.4529 6.7517 25.3126 9.82422 25.3126C11.5752 25.3126 13.3438 25.1103 15.0977 24.8336V16.8463L0.332031 23.8123V34.9454ZM15.0977 1.60326C13.322 1.89281 11.5433 2.10951 9.82422 2.10951C5.743 2.10951 2.29354 0.342137 1.93066 0.149902L15.0977 8.92919V1.60326Z" fill="#4855DC"/>
</g>
</g>
<defs>
<clipPath id="clip0_4669_2175">
<rect width="36" height="36" fill="white" transform="translate(0.332031)"/>
</clipPath>
</defs>
</svg>
