<svg width="32" height="33" viewBox="0 0 32 33" fill="none" xmlns="http://www.w3.org/2000/svg">
<g id="google">
<path id="vector" d="M30.0014 17.2709C30.0014 16.1198 29.9061 15.2798 29.6998 14.4087H16.2871V19.6042H24.1601C24.0014 20.8953 23.1442 22.8398 21.2394 24.1464L21.2127 24.3203L25.4536 27.5399L25.7474 27.5687C28.4458 25.1264 30.0014 21.5331 30.0014 17.2709Z" fill="#4285F4"/>
<path id="vector_2" d="M16.2853 30.9597C20.1424 30.9597 23.3804 29.7152 25.7456 27.5686L21.2377 24.1463C20.0313 24.9707 18.4123 25.5463 16.2853 25.5463C12.5076 25.5463 9.30128 23.1041 8.15832 19.7285L7.99078 19.7425L3.58111 23.0869L3.52344 23.244C5.87261 27.8174 10.698 30.9597 16.2853 30.9597Z" fill="#34A853"/>
<path id="vector_3" d="M8.16061 19.7289C7.85903 18.8578 7.6845 17.9244 7.6845 16.96C7.6845 15.9955 7.85903 15.0622 8.14475 14.1911L8.13676 14.0056L3.67181 10.6074L3.52572 10.6755C2.55751 12.5733 2.00195 14.7045 2.00195 16.96C2.00195 19.2156 2.55751 21.3466 3.52572 23.2444L8.16061 19.7289Z" fill="#FBBC05"/>
<path id="vector_4" d="M16.2854 8.37326C18.9679 8.37326 20.7774 9.50881 21.8092 10.4578L25.8409 6.59996C23.3648 4.34441 20.1425 2.95996 16.2854 2.95996C10.698 2.95996 5.87262 6.10216 3.52344 10.6755L8.14247 14.1911C9.30131 10.8155 12.5076 8.37326 16.2854 8.37326Z" fill="#EB4335"/>
</g>
</svg>
