<svg width="36" height="36" viewBox="0 0 36 36" fill="none" xmlns="http://www.w3.org/2000/svg">
<g id="image-user-check">
<path id="Icon" d="M24 7.5L27 10.5L33 4.5M33 18V25.8C33 28.3202 33 29.5804 32.5095 30.543C32.0781 31.3897 31.3897 32.0781 30.543 32.5095C29.5804 33 28.3202 33 25.8 33H10.2C7.67976 33 6.41965 33 5.45704 32.5095C4.61031 32.0781 3.9219 31.3897 3.49047 30.543C3 29.5804 3 28.3202 3 25.8V10.2C3 7.67976 3 6.41965 3.49047 5.45704C3.9219 4.61031 4.61031 3.9219 5.45704 3.49047C6.41965 3 7.67976 3 10.2 3H18M3.21826 29.8895C3.92198 27.3579 6.24385 25.5 8.99965 25.5H19.4997C20.8936 25.5 21.5906 25.5 22.1702 25.6153C24.5503 26.0887 26.4109 27.9493 26.8844 30.3295C26.9997 30.9091 26.9997 31.606 26.9997 33M21 14.25C21 17.5637 18.3137 20.25 15 20.25C11.6863 20.25 9 17.5637 9 14.25C9 10.9363 11.6863 8.25 15 8.25C18.3137 8.25 21 10.9363 21 14.25Z" stroke="#4855DC" stroke-width="2.5" stroke-linecap="round" stroke-linejoin="round"/>
</g>
</svg>
