<svg width="32" height="33" viewBox="0 0 32 33" fill="none" xmlns="http://www.w3.org/2000/svg">
<g id="Symbol.svg" clip-path="url(#clip0_4669_1893)">
<path id="Vector" d="M26.4288 8.41059C26.4288 7.34841 25.5679 6.49072 24.5097 6.49072C23.4514 6.49072 22.5898 7.34841 22.5898 8.41059C22.5898 9.46886 23.4514 10.3265 24.5097 10.3265C25.5679 10.3265 26.4288 9.46886 26.4288 8.41059Z" fill="url(#paint0_linear_4669_1893)"/>
<path id="Vector_2" d="M28.9858 23.3965C28.9148 24.9547 28.6541 25.8013 28.4378 26.3635C28.1471 27.1091 27.8004 27.6422 27.2382 28.2013C26.6822 28.7604 26.1491 29.1063 25.4036 29.3938C24.8413 29.6133 23.9915 29.8747 22.4334 29.949C20.7489 30.0232 20.2498 30.0391 15.9781 30.0391C11.7103 30.0391 11.2072 30.0232 9.5227 29.949C7.96458 29.8747 7.11874 29.6133 6.5564 29.3938C5.80696 29.1063 5.27786 28.7604 4.71872 28.2013C4.15562 27.6422 3.80894 27.1091 3.52226 26.3635C3.30583 25.8013 3.04131 24.9547 2.97414 23.3965C2.89205 21.712 2.87701 21.205 2.87701 16.9419C2.87701 12.6702 2.89205 12.1672 2.97414 10.4826C3.04131 8.92451 3.30583 8.07872 3.52226 7.51165C3.80894 6.76693 4.15562 6.23699 4.71872 5.67785C5.27786 5.11955 5.80696 4.77281 6.5564 4.48223C7.11874 4.26189 7.96458 4.00442 9.5227 3.9302C11.2072 3.85592 11.7103 3.83697 15.9781 3.83697C20.2498 3.83697 20.7489 3.85592 22.4334 3.9302C23.9915 4.00442 24.8413 4.26189 25.4036 4.48223C26.1491 4.77281 26.6822 5.11955 27.2382 5.67785C27.8004 6.23699 28.1471 6.76693 28.4378 7.51165C28.6541 8.07872 28.9148 8.92451 28.9858 10.4826C29.064 12.1672 29.083 12.6702 29.083 16.9419C29.083 21.205 29.064 21.712 28.9858 23.3965ZM31.8629 10.3516C31.7847 8.64885 31.5162 7.48559 31.1174 6.47237C30.7115 5.42121 30.1673 4.53038 29.2765 3.63955C28.3896 2.7527 27.4988 2.20855 26.4476 1.7979C25.4305 1.40301 24.2711 1.13132 22.5676 1.0571C20.8641 0.974947 20.3201 0.959961 15.9781 0.959961C11.64 0.959961 11.092 0.974947 9.38846 1.0571C7.68893 1.13132 6.53034 1.40301 5.50845 1.7979C4.46125 2.20855 3.57042 2.7527 2.68356 3.63955C1.79273 4.53038 1.24858 5.42121 0.838706 6.47237C0.443815 7.48559 0.175322 8.64885 0.0931697 10.3516C0.0189538 12.0551 0 12.6 0 16.9419C0 21.28 0.0189538 21.8241 0.0931697 23.5276C0.175322 25.2271 0.443815 26.3896 0.838706 27.4076C1.24858 28.4548 1.79273 29.3496 2.68356 30.2364C3.57042 31.1233 4.46125 31.6714 5.50845 32.0813C6.53034 32.4761 7.68893 32.7447 9.38846 32.8229C11.092 32.9011 11.64 32.92 15.9781 32.92C20.3201 32.92 20.8641 32.9011 22.5676 32.8229C24.2711 32.7447 25.4305 32.4761 26.4476 32.0813C27.4988 31.6714 28.3896 31.1233 29.2765 30.2364C30.1673 29.3496 30.7115 28.4548 31.1174 27.4076C31.5162 26.3896 31.7847 25.2271 31.8629 23.5276C31.9411 21.8241 31.96 21.28 31.96 16.9419C31.96 12.6 31.9411 12.0551 31.8629 10.3516Z" fill="url(#paint1_linear_4669_1893)"/>
<path id="Vector_3" d="M15.9765 22.264C13.0362 22.264 10.6504 19.8821 10.6504 16.9418C10.6504 13.9969 13.0362 11.6119 15.9765 11.6119C18.9175 11.6119 21.3064 13.9969 21.3064 16.9418C21.3064 19.8821 18.9175 22.264 15.9765 22.264ZM15.9765 8.73096C11.4441 8.73096 7.77344 12.4095 7.77344 16.9418C7.77344 21.4703 11.4441 25.1449 15.9765 25.1449C20.5088 25.1449 24.1834 21.4703 24.1834 16.9418C24.1834 12.4095 20.5088 8.73096 15.9765 8.73096Z" fill="url(#paint2_linear_4669_1893)"/>
</g>
<defs>
<linearGradient id="paint0_linear_4669_1893" x1="0.288376" y1="32.5898" x2="29.2982" y2="3.58002" gradientUnits="userSpaceOnUse">
<stop stop-color="#FFD521"/>
<stop offset="0.05" stop-color="#FFD521"/>
<stop offset="0.501119" stop-color="#F50000"/>
<stop offset="0.95" stop-color="#B900B4"/>
<stop offset="0.950079" stop-color="#B900B4"/>
<stop offset="1" stop-color="#B900B4"/>
</linearGradient>
<linearGradient id="paint1_linear_4669_1893" x1="0.288275" y1="32.6294" x2="29.3219" y2="3.59573" gradientUnits="userSpaceOnUse">
<stop stop-color="#FFD521"/>
<stop offset="0.05" stop-color="#FFD521"/>
<stop offset="0.501119" stop-color="#F50000"/>
<stop offset="0.95" stop-color="#B900B4"/>
<stop offset="0.950079" stop-color="#B900B4"/>
<stop offset="1" stop-color="#B900B4"/>
</linearGradient>
<linearGradient id="paint2_linear_4669_1893" x1="0.294225" y1="32.63" x2="29.3209" y2="3.6034" gradientUnits="userSpaceOnUse">
<stop stop-color="#FFD521"/>
<stop offset="0.05" stop-color="#FFD521"/>
<stop offset="0.501119" stop-color="#F50000"/>
<stop offset="0.95" stop-color="#B900B4"/>
<stop offset="0.950079" stop-color="#B900B4"/>
<stop offset="1" stop-color="#B900B4"/>
</linearGradient>
<clipPath id="clip0_4669_1893">
<rect width="32" height="32" fill="white" transform="translate(0 0.959961)"/>
</clipPath>
</defs>
</svg>
