<svg width="32" height="33" viewBox="0 0 32 33" fill="none" xmlns="http://www.w3.org/2000/svg">
<g id="linkedin_symbol.svg" clip-path="url(#clip0_4669_1929)">
<path id="Path 2520" d="M27.2655 28.0457H22.5241V20.739C22.5241 18.9967 22.4925 16.7538 20.0581 16.7538C17.5886 16.7538 17.2108 18.6521 17.2108 20.6122V28.0452H12.4694V13.0197H17.0211V15.0731H17.0848C17.5404 14.3067 18.1986 13.6762 18.9895 13.2488C19.7803 12.8214 20.6742 12.6131 21.5758 12.646C26.3815 12.646 27.2675 15.7565 27.2675 19.803L27.2655 28.0457ZM7.1195 10.9659C6.57531 10.966 6.04329 10.8073 5.59076 10.5098C5.13822 10.2124 4.7855 9.7896 4.57716 9.29489C4.36882 8.80019 4.31421 8.2558 4.42029 7.73056C4.52636 7.20533 4.78833 6.72284 5.17307 6.34412C5.5578 5.96539 6.04803 5.70743 6.58174 5.60286C7.11546 5.4983 7.66869 5.55182 8.1715 5.75666C8.67431 5.9615 9.10409 6.30846 9.40651 6.75366C9.70893 7.19886 9.87041 7.72232 9.87051 8.25782C9.87057 8.61338 9.79945 8.96548 9.66124 9.294C9.52302 9.62252 9.32043 9.92103 9.06497 10.1725C8.80952 10.424 8.50621 10.6235 8.17241 10.7596C7.8386 10.8957 7.48083 10.9658 7.1195 10.9659ZM9.4902 28.0457H4.74386V13.0197H9.4902V28.0457ZM29.6293 1.21797H2.36132C1.74241 1.21109 1.14602 1.44629 0.703253 1.87188C0.260483 2.29746 0.00755341 2.87861 0 3.48763V30.4315C0.00729489 31.0409 0.260076 31.6224 0.702831 32.0484C1.14559 32.4745 1.74211 32.7101 2.36132 32.7036H29.6293C30.2497 32.7113 30.8479 32.4763 31.2924 32.0503C31.7369 31.6243 31.9914 31.0421 32 30.4315V3.48569C31.9912 2.87546 31.7365 2.29365 31.292 1.86807C30.8475 1.4425 30.2494 1.20797 29.6293 1.21602" fill="#0A66C2"/>
</g>
<defs>
<clipPath id="clip0_4669_1929">
<rect width="32" height="32" fill="white" transform="translate(0 0.959961)"/>
</clipPath>
</defs>
</svg>
