<svg width="36" height="36" viewBox="0 0 36 36" fill="none" xmlns="http://www.w3.org/2000/svg">
<g id="message-text-circle-01.svg" clip-path="url(#clip0_4669_2424)">
<g id="Group">
<path id="Vector" d="M12.2435 14.5534H18.0034M12.2435 19.5934H22.3234M18.7234 29.6734C25.4835 29.6734 30.9634 24.1934 30.9634 17.4334C30.9634 10.6734 25.4835 5.19336 18.7234 5.19336C11.9636 5.19336 6.48352 10.6734 6.48352 17.4334C6.48352 18.8014 6.70794 20.1169 7.12197 21.3453C7.27778 21.8076 7.35569 22.0387 7.36974 22.2162C7.38361 22.3916 7.37312 22.5145 7.32974 22.685C7.28582 22.8576 7.18882 23.037 6.99485 23.3962L4.6395 27.7558C4.30353 28.3777 4.13556 28.6886 4.17316 28.9285C4.2059 29.1376 4.32892 29.3216 4.50953 29.4318C4.7169 29.5582 5.06843 29.5219 5.7715 29.4492L13.1458 28.687C13.3691 28.6638 13.4807 28.6523 13.5825 28.6562C13.6826 28.6601 13.7533 28.6695 13.8509 28.6919C13.9501 28.7148 14.0749 28.7629 14.3245 28.8591C15.6898 29.385 17.173 29.6734 18.7234 29.6734Z" stroke="#4855DC" stroke-width="2.5" stroke-linecap="round" stroke-linejoin="round"/>
</g>
</g>
<defs>
<clipPath id="clip0_4669_2424">
<rect width="34.56" height="36" fill="white" transform="translate(0.71875)"/>
</clipPath>
</defs>
</svg>
