<svg width="32" height="33" viewBox="0 0 32 33" fill="none" xmlns="http://www.w3.org/2000/svg">
<g id="Logo.svg">
<g id="PRIMARY - GHOST">
<path id="Vector" d="M29.2137 24.098C24.4444 21.7893 23.6843 18.2247 23.6504 17.9603C23.6095 17.64 23.5631 17.3882 23.9164 17.0625C24.2571 16.7477 25.7687 15.8121 26.1881 15.5194C26.8814 15.0347 27.1867 14.5507 26.9616 13.9558C26.8043 13.5443 26.421 13.3893 26.0174 13.3893C25.89 13.3897 25.7631 13.4039 25.6389 13.4318C24.8772 13.597 24.1375 13.9787 23.7094 14.0817C23.658 14.095 23.6052 14.1021 23.5521 14.103C23.3239 14.103 23.2373 14.0015 23.2593 13.7269C23.3129 12.8943 23.4262 11.2694 23.2948 9.75151C23.1146 7.66312 22.441 6.62837 21.6423 5.71322C21.2559 5.26942 19.4618 3.36279 15.9995 3.36279C12.5372 3.36279 10.7455 5.26942 10.3615 5.70771C9.56046 6.62286 8.88767 7.65761 8.70905 9.74601C8.57764 11.2639 8.69567 12.888 8.74446 13.7214C8.76019 13.9826 8.67993 14.0975 8.45174 14.0975C8.39863 14.0966 8.34581 14.0894 8.29436 14.0762C7.86708 13.9732 7.12741 13.5915 6.3657 13.4263C6.24145 13.3984 6.11454 13.3842 5.98721 13.3838C5.58196 13.3838 5.20033 13.5412 5.04295 13.9503C4.8179 14.5452 5.12164 15.0292 5.81724 15.5139C6.23665 15.8066 7.74826 16.7414 8.08898 17.057C8.44151 17.3827 8.39587 17.6345 8.35495 17.9548C8.32111 18.2231 7.56019 21.7877 2.79167 24.0925C2.51232 24.2278 2.03705 24.5143 2.87508 24.977C4.19075 25.704 5.06655 25.6261 5.74721 26.0644C6.32478 26.4366 5.98328 27.2393 6.40347 27.5288C6.91967 27.8853 8.44544 27.5036 10.4166 28.1544C12.069 28.6989 13.0731 30.2373 16.0035 30.2373C18.9338 30.2373 19.967 28.6918 21.5904 28.1544C23.5576 27.5036 25.0865 27.8853 25.6035 27.5288C26.0229 27.2393 25.6822 26.4366 26.2597 26.0644C26.9404 25.6261 27.8154 25.704 29.1319 24.977C29.9683 24.5198 29.493 24.2334 29.2137 24.098Z" fill="white"/>
<path id="Vector_2" d="M31.2897 23.8266C31.0757 23.2443 30.6681 22.9327 30.2038 22.6746C30.1165 22.6234 30.0362 22.5825 29.9678 22.551C29.8293 22.4794 29.6876 22.4102 29.5468 22.337C28.0997 21.5698 26.9697 20.6019 26.186 19.4546C25.9634 19.1316 25.7704 18.7893 25.6092 18.4317C25.5423 18.2405 25.5455 18.1319 25.5935 18.0327C25.6411 17.9563 25.704 17.8907 25.7784 17.8399C26.027 17.6755 26.2836 17.5087 26.4575 17.3961C26.7675 17.1955 27.013 17.0365 27.1712 16.924C27.7653 16.5085 28.1807 16.0671 28.4404 15.5737C28.6216 15.2328 28.7272 14.8569 28.7502 14.4716C28.7731 14.0863 28.7128 13.7005 28.5734 13.3405C28.18 12.305 27.2019 11.6621 26.0168 11.6621C25.7668 11.6619 25.5176 11.6882 25.2732 11.7408C25.2079 11.7549 25.1426 11.7699 25.0788 11.7864C25.0899 11.0782 25.0741 10.3307 25.0112 9.59495C24.7877 7.00846 23.882 5.65265 22.9377 4.57147C22.333 3.89396 21.6208 3.32077 20.8297 2.87495C19.3967 2.05659 17.7718 1.64111 16.0005 1.64111C14.2293 1.64111 12.6122 2.05659 11.1777 2.87495C10.3846 3.3209 9.67096 3.89524 9.06572 4.57462C8.12146 5.6558 7.21575 7.01397 6.99228 9.5981C6.92933 10.3338 6.91359 11.0853 6.92382 11.7896C6.86008 11.773 6.79556 11.7581 6.73024 11.7439C6.48587 11.6914 6.2366 11.665 5.98664 11.6652C4.8008 11.6652 3.82113 12.3081 3.42926 13.3437C3.28919 13.7038 3.22829 14.0898 3.25069 14.4756C3.2731 14.8613 3.37828 15.2377 3.5591 15.5792C3.81956 16.0726 4.23503 16.514 4.82913 16.9295C4.98651 17.0397 5.2328 17.1986 5.54283 17.4016C5.71044 17.5102 5.95516 17.6692 6.19516 17.8281C6.27913 17.8824 6.3505 17.9541 6.40447 18.0382C6.45483 18.1413 6.45641 18.2523 6.38165 18.4569C6.22266 18.8069 6.03279 19.1422 5.81431 19.4586C5.04788 20.5799 3.95097 21.5304 2.55031 22.2913C1.80828 22.6848 1.03713 22.9476 0.711359 23.8328C0.465851 24.5009 0.626375 25.261 1.25038 25.9016C1.47939 26.1406 1.74501 26.3417 2.03726 26.4972C2.64536 26.8314 3.29198 27.0901 3.96277 27.2676C4.1012 27.3033 4.23261 27.3621 4.35149 27.4415C4.5789 27.6406 4.54664 27.9404 4.84959 28.3795C5.00166 28.6064 5.1949 28.8028 5.41929 28.9586C6.0551 29.3977 6.76959 29.4252 7.52657 29.4544C8.21038 29.4803 8.98546 29.5102 9.8707 29.8022C10.2374 29.9233 10.6182 30.1578 11.0597 30.4317C12.1196 31.0832 13.5706 31.9748 15.999 31.9748C18.4273 31.9748 19.8885 31.0785 20.9563 30.4246C21.3946 30.1555 21.7731 29.9233 22.1296 29.8053C23.0148 29.5126 23.7899 29.4835 24.4737 29.4575C25.2307 29.4284 25.9452 29.4009 26.581 28.9618C26.8468 28.7765 27.0682 28.5346 27.2294 28.2536C27.4474 27.8829 27.4419 27.6241 27.6464 27.4431C27.758 27.3675 27.8814 27.3111 28.0116 27.2763C28.6915 27.0982 29.3469 26.8371 29.963 26.4988C30.2735 26.3322 30.553 26.1134 30.7893 25.852L30.7971 25.8426C31.3826 25.2162 31.5297 24.4781 31.2897 23.8266ZM29.1313 24.9864C27.8148 25.7135 26.9398 25.6356 26.2592 26.0739C25.6808 26.4461 26.0231 27.2487 25.6029 27.5383C25.0867 27.8948 23.5609 27.5131 21.5898 28.1639C19.9641 28.7013 18.927 30.2468 16.0029 30.2468C13.0788 30.2468 12.0661 28.7045 10.4137 28.1599C8.44644 27.5092 6.91752 27.8908 6.40054 27.5344C5.98113 27.2448 6.32185 26.4422 5.74428 26.07C5.06284 25.6317 4.18782 25.7096 2.87215 24.9864C2.03411 24.5237 2.50939 24.2373 2.78874 24.102C7.55726 21.7932 8.31818 18.2287 8.35202 17.9643C8.39293 17.644 8.43857 17.3922 8.08605 17.0664C7.74533 16.7517 6.23372 15.8161 5.81431 15.5233C5.12028 15.0386 4.81497 14.5547 5.04001 13.9598C5.19739 13.5483 5.58139 13.3932 5.98428 13.3932C6.11161 13.3936 6.23852 13.4079 6.36277 13.4357C7.12447 13.601 7.86415 13.9826 8.29142 14.0857C8.34287 14.0989 8.39569 14.106 8.4488 14.107C8.677 14.107 8.75726 13.9921 8.74152 13.7308C8.69274 12.8975 8.5747 11.2734 8.70611 9.75547C8.88631 7.66708 9.5591 6.63233 10.3586 5.71718C10.7426 5.27731 12.5469 3.37069 15.9974 3.37069C19.4479 3.37069 21.2569 5.26944 21.6409 5.70774C22.4412 6.62288 23.1148 7.65764 23.2934 9.74603C23.4248 11.2639 23.3115 12.8889 23.258 13.7214C23.2399 13.996 23.3225 14.0975 23.5507 14.0975C23.6038 14.0967 23.6566 14.0895 23.7081 14.0763C24.1361 13.9732 24.8758 13.5915 25.6375 13.4263C25.7618 13.3984 25.8887 13.3842 26.016 13.3838C26.4213 13.3838 26.8029 13.5412 26.9603 13.9504C27.1853 14.5452 26.8816 15.0292 26.1868 15.5139C25.7674 15.8066 24.2558 16.7414 23.915 17.057C23.5617 17.3828 23.6081 17.6346 23.6491 17.9548C23.6829 18.2231 24.443 21.7877 29.2123 24.0925C29.494 24.2334 29.9693 24.5198 29.1313 24.9864Z" fill="black"/>
</g>
</g>
</svg>
