<svg width="36" height="36" viewBox="0 0 36 36" fill="none" xmlns="http://www.w3.org/2000/svg">
<g id="shield-tick-1.svg">
<g id="Group">
<path id="Vector" d="M13.5 17.2486L16.5 20.2486L23.25 13.4986M30 17.9986C30 25.3613 21.969 30.7162 19.047 32.4209C18.7149 32.6147 18.5489 32.7115 18.3146 32.7617C18.1326 32.8007 17.8674 32.8007 17.6855 32.7617C17.4512 32.7115 17.2851 32.6147 16.953 32.4209C14.0309 30.7162 6 25.3613 6 17.9986V10.825C6 9.62571 6 9.02609 6.19614 8.51064C6.36941 8.0553 6.65097 7.649 7.01649 7.32687C7.43025 6.96224 7.9917 6.7517 9.1146 6.3306L17.1573 3.3146C17.4692 3.19766 17.625 3.13919 17.7855 3.116C17.9277 3.09545 18.0723 3.09545 18.2145 3.116C18.375 3.13919 18.5309 3.19766 18.8427 3.3146L26.8854 6.3306C28.0083 6.7517 28.5698 6.96224 28.9835 7.32687C29.349 7.649 29.6306 8.0553 29.8038 8.51064C30 9.02609 30 9.62571 30 10.825V17.9986Z" stroke="#4855DC" stroke-width="2.5" stroke-linecap="round" stroke-linejoin="round"/>
</g>
</g>
</svg>
