<svg width="36" height="36" viewBox="0 0 36 36" fill="none" xmlns="http://www.w3.org/2000/svg">
<path d="M13.5 17.25L16.5 20.25L23.25 13.5M30 18C30 25.3627 21.9691 30.7176 19.047 32.4223C18.7149 32.616 18.5489 32.7129 18.3145 32.7632C18.1327 32.8022 17.8673 32.8022 17.6855 32.7632C17.4511 32.7129 17.2851 32.616 16.953 32.4223C14.0309 30.7176 6 25.3627 6 18V10.8264C6 9.62712 6 9.02749 6.19614 8.51205C6.36941 8.0567 6.65097 7.65041 7.01649 7.32828C7.43024 6.96365 7.9917 6.7531 9.11461 6.33201L17.1573 3.316C17.4691 3.19906 17.6251 3.14059 17.7855 3.11741C17.9278 3.09685 18.0722 3.09685 18.2145 3.11741C18.3749 3.14059 18.5309 3.19906 18.8427 3.316L26.8854 6.33201C28.0083 6.7531 28.5698 6.96365 28.9835 7.32828C29.349 7.65041 29.6306 8.0567 29.8039 8.51205C30 9.02749 30 9.62712 30 10.8264V18Z" stroke="#4855DC" stroke-width="2.5" stroke-linecap="round" stroke-linejoin="round"/>
</svg>
