<svg width="36" height="36" viewBox="0 0 36 36" fill="none" xmlns="http://www.w3.org/2000/svg">
<g id="shopping-cart-01.svg">
<g id="Group">
<path id="Vector" d="M3.60547 3.75293H5.48634C5.84061 3.75293 6.01774 3.75293 6.16029 3.81808C6.28591 3.87547 6.39237 3.96781 6.46697 4.08404C6.55161 4.21595 6.57666 4.39131 6.62676 4.74201L7.30833 9.51293M7.30833 9.51293L8.82305 20.6462C9.01528 22.059 9.11138 22.7653 9.44913 23.2971C9.74675 23.7657 10.1734 24.1382 10.6778 24.3699C11.2502 24.633 11.9631 24.633 13.389 24.633H25.7124C27.0696 24.633 27.7482 24.633 28.3029 24.3888C28.7918 24.1733 29.2113 23.8263 29.5144 23.3862C29.858 22.8871 29.985 22.2204 30.239 20.8871L32.145 10.8805C32.2344 10.4112 32.279 10.1766 32.2142 9.99317C32.1575 9.83228 32.0453 9.69679 31.8979 9.61086C31.7298 9.51293 31.4911 9.51293 31.0133 9.51293H7.30833ZM15.1255 31.113C15.1255 31.9082 14.4808 32.553 13.6855 32.553C12.8902 32.553 12.2455 31.9082 12.2455 31.113C12.2455 30.3177 12.8902 29.673 13.6855 29.673C14.4808 29.673 15.1255 30.3177 15.1255 31.113ZM26.6455 31.113C26.6455 31.9082 26.0008 32.553 25.2055 32.553C24.4102 32.553 23.7655 31.9082 23.7655 31.113C23.7655 30.3177 24.4102 29.673 25.2055 29.673C26.0008 29.673 26.6455 30.3177 26.6455 31.113Z" stroke="#4855DC" stroke-width="2.5" stroke-linecap="round" stroke-linejoin="round"/>
</g>
</g>
</svg>
