<svg width="24" height="24" viewBox="0 0 24 24" fill="none" xmlns="http://www.w3.org/2000/svg">
<g id="star-1.svg">
<g id="Group">
<path id="Vector" d="M12.6456 2.44193C12.2372 2.24722 11.7628 2.24722 11.3545 2.44193C11.0014 2.61024 10.8068 2.90248 10.7087 3.0628C10.6072 3.22854 10.503 3.43966 10.4015 3.64545L8.24577 8.01274L3.42372 8.71754C3.19672 8.75067 2.96381 8.78467 2.7749 8.8301C2.59213 8.87405 2.25422 8.9691 1.98532 9.25294C1.67422 9.5813 1.52792 10.0325 1.58714 10.481C1.63833 10.8686 1.85618 11.1438 1.97838 11.2867C2.10469 11.4343 2.27334 11.5985 2.4377 11.7585L5.9255 15.1557L5.10254 19.9539C5.06369 20.1802 5.02384 20.4122 5.00849 20.6061C4.99365 20.7934 4.9793 21.1443 5.16601 21.4881C5.38196 21.8857 5.76584 22.1645 6.21072 22.247C6.59532 22.3183 6.9246 22.1962 7.09824 22.1241C7.27778 22.0497 7.48621 21.9399 7.68936 21.833L12 19.5661L16.3108 21.833C16.5138 21.9399 16.7222 22.0497 16.9018 22.1241C17.0754 22.1962 17.4048 22.3183 17.7893 22.247C18.2342 22.1645 18.6181 21.8857 18.8341 21.4881C19.0208 21.1443 19.0064 20.7934 18.9916 20.6061C18.9762 20.4122 18.9364 20.1802 18.8976 19.9539L18.0745 15.1557L21.5624 11.7585C21.7268 11.5985 21.8953 11.4343 22.0217 11.2867C22.1438 11.1438 22.3617 10.8686 22.4129 10.481C22.4721 10.0325 22.3258 9.5813 22.0148 9.25294C21.7458 8.9691 21.408 8.87405 21.2252 8.8301C21.0362 8.78467 20.8033 8.75067 20.5764 8.71754L15.7542 8.01274L13.5986 3.64553C13.497 3.43973 13.3929 3.22856 13.2914 3.0628C13.1932 2.90248 12.9986 2.61024 12.6456 2.44193Z" fill="#E7BA01"/>
</g>
</g>
</svg>
