<svg width="32" height="33" viewBox="0 0 32 33" fill="none" xmlns="http://www.w3.org/2000/svg">
<g id="Symbol.svg" clip-path="url(#clip0_4669_1802)">
<g id="Group">
<path id="Vector" fill-rule="evenodd" clip-rule="evenodd" d="M16.2352 11.738C16.9873 11.738 17.6141 11.3203 17.6977 10.8607L18.408 2.46388C18.408 1.62837 17.4469 0.959961 16.2352 0.959961C15.0235 0.959961 14.0625 1.62837 14.0625 2.46388L14.8146 10.8607C14.8981 11.3621 15.4831 11.738 16.2352 11.738ZM11.7226 14.3699C12.0986 13.7015 12.0568 12.9913 11.6808 12.6571L4.78642 7.81114C4.0761 7.39338 2.98972 7.89469 2.40474 8.93907C1.77798 9.98346 1.90333 11.1949 2.61366 11.5709L10.2183 15.1636C10.678 15.3307 11.3465 14.9965 11.7226 14.3699ZM20.7479 14.3281C21.1239 14.9965 21.7507 15.3307 22.2521 15.1218L29.8568 11.5709C30.5671 11.1532 30.6924 9.98346 30.0657 8.93907C29.4389 7.89469 28.3943 7.39338 27.684 7.81114L20.8314 12.6571C20.4136 12.9913 20.4136 13.7015 20.7479 14.3281ZM16.2352 22.1819C16.9873 22.1819 17.6141 22.5996 17.6977 23.0592L18.408 31.456C18.408 32.2916 17.4469 32.96 16.2352 32.96C15.0235 32.96 14.0625 32.2916 14.0625 31.456L14.8146 23.0592C14.8981 22.5579 15.4831 22.1819 16.2352 22.1819ZM20.7479 19.5918C21.1239 18.9234 21.7507 18.5892 22.2521 18.7563L29.8568 22.3072C30.5671 22.725 30.6924 23.8947 30.0657 24.9391C29.4389 25.9835 28.3943 26.4848 27.684 26.067L20.8314 21.2628C20.4136 20.9704 20.4136 20.2184 20.7479 19.5918ZM11.7226 19.5918C12.0986 20.2184 12.0568 20.9704 11.6808 21.3046L4.78642 26.1088C4.0761 26.4848 2.98972 26.0252 2.40474 24.9391C1.77798 23.8947 1.90333 22.725 2.61366 22.3072L10.2601 18.7563C10.678 18.5892 11.3465 18.9234 11.7226 19.5918Z" fill="#F3B53B"/>
</g>
</g>
<defs>
<clipPath id="clip0_4669_1802">
<rect width="32" height="32" fill="white" transform="translate(0 0.959961)"/>
</clipPath>
</defs>
</svg>
