<svg width="40" height="41" viewBox="0 0 40 41" fill="none" xmlns="http://www.w3.org/2000/svg">
<path d="M20 40.96C31.0457 40.96 40 32.0057 40 20.96C40 9.91427 31.0457 0.959961 20 0.959961C8.95431 0.959961 0 9.91427 0 20.96C0 32.0057 8.95431 40.96 20 40.96Z" fill="#DE5833"/>
<path d="M36.9328 13.7937C35.9995 11.5937 34.6661 9.62708 32.9995 7.96042C31.2995 6.26042 29.3328 4.96042 27.1661 4.02708C24.8995 3.06042 22.4995 2.59375 19.9995 2.59375C17.5328 2.59375 15.0995 3.09375 12.8328 4.02708C10.6328 4.92708 8.66614 6.26042 6.99948 7.96042C5.29948 9.66042 3.99948 11.6271 3.06614 13.7937C2.09948 16.0604 1.63281 18.4604 1.63281 20.9604C1.63281 23.4604 2.13281 25.8604 3.06614 28.1271C3.99948 30.3271 5.33281 32.2937 6.99948 33.9604C8.69948 35.6604 10.6661 36.9604 12.8328 37.8937C15.0995 38.8604 17.4995 39.3271 19.9995 39.3271C22.4661 39.3271 24.8995 38.8271 27.1661 37.8937C29.3328 36.9604 31.2995 35.6271 32.9995 33.9604C34.6995 32.2604 35.9995 30.2937 36.9328 28.1271C37.8995 25.8604 38.3661 23.4604 38.3661 20.9604C38.3661 18.4604 37.8995 16.0604 36.9328 13.7937ZM23.9995 37.4604C22.9328 35.6604 20.1328 30.6271 20.1328 26.8937C20.1328 18.2937 25.8995 25.6604 25.8995 18.7937C25.8995 17.1604 25.0995 11.4271 20.0995 10.2271C18.8661 8.59375 15.9661 7.02708 11.3661 7.66042C11.3661 7.66042 12.1328 7.89375 12.9995 8.32708C12.9995 8.32708 11.3328 8.56042 11.2661 9.69375C11.2661 9.69375 14.5661 9.52708 16.4328 10.1271C12.1328 10.6937 9.93281 12.9604 10.3328 17.0604C10.8995 22.8937 13.3661 33.2937 14.2328 36.9271C7.69948 34.5937 2.99948 28.3271 2.99948 20.9604C2.99948 11.5937 10.5995 3.96042 19.9995 3.96042C29.3995 3.96042 36.9995 11.5604 36.9995 20.9604C36.9661 28.9604 31.4328 35.6604 23.9995 37.4604Z" fill="white"/>
<path fill-rule="evenodd" clip-rule="evenodd" d="M19.0664 23.7273C19.0664 21.5273 22.0664 20.8273 23.1997 20.8273C26.2664 20.8273 30.5997 18.8606 31.6664 18.894C32.7664 18.9273 33.4664 19.3606 33.4664 19.8606C33.4664 20.594 27.3331 23.3606 24.9664 23.1273C22.6997 22.9273 22.1664 23.1606 22.1664 24.094C22.1664 24.894 23.7997 25.6273 25.5997 25.6273C28.2997 25.6273 30.9331 24.4273 31.7331 24.994C32.4331 25.494 29.8997 27.294 26.9997 27.294C24.0997 27.294 19.0664 25.9273 19.0664 23.7273Z" fill="#FED30A"/>
<path d="M24.4013 14.3938C23.6013 13.3605 22.168 13.3271 21.668 14.5271C22.4346 13.9271 23.368 13.7938 24.4013 14.3938Z" fill="#2D4F8D"/>
<path d="M15.5013 14.4275C14.4013 13.7608 12.568 13.6941 12.668 15.7941C13.2013 14.4941 13.9347 14.2608 15.5013 14.4275Z" fill="#2D4F8D"/>
<path d="M23.7328 16.3604C23.1328 16.3604 22.6328 16.8604 22.6328 17.4604C22.6328 18.0604 23.1328 18.5604 23.7328 18.5604C24.3328 18.5604 24.8328 18.0604 24.8328 17.4604C24.8328 16.8604 24.3328 16.3604 23.7328 16.3604ZM24.1328 17.3937C23.9661 17.3937 23.7995 17.2604 23.7995 17.0604C23.7995 16.8937 23.9328 16.727 24.1328 16.727C24.3328 16.727 24.4661 16.8604 24.4661 17.0604C24.4328 17.227 24.2995 17.3937 24.1328 17.3937Z" fill="#2D4F8D"/>
<path d="M15.2003 16.96C14.5003 16.96 13.9336 17.5266 13.9336 18.2266C13.9336 18.9266 14.5003 19.4933 15.2003 19.4933C15.9003 19.4933 16.4669 18.9266 16.4669 18.2266C16.4669 17.5266 15.9003 16.96 15.2003 16.96ZM15.6669 18.1266C15.4669 18.1266 15.3003 17.96 15.3003 17.76C15.3003 17.56 15.4669 17.3933 15.6669 17.3933C15.8669 17.3933 16.0336 17.56 16.0336 17.76C16.0336 17.96 15.8669 18.1266 15.6669 18.1266Z" fill="#2D4F8D"/>
<path d="M12.4315 11.5601C10.8315 12.7267 10.0981 14.5267 10.3315 17.0601C10.8981 22.8934 13.3648 33.3267 14.2315 36.9601C14.5315 37.0601 14.8315 37.1601 15.1315 37.2601C14.5981 35.0601 12.0315 24.3267 10.8981 16.0934C10.5981 13.8934 11.4648 12.5934 12.4315 11.5601Z" fill="#D5D7D8"/>
<path d="M16.3971 10.1271C16.5305 10.1271 16.6305 10.0937 16.6305 10.0937C14.8971 9.26038 12.1638 9.22705 11.4305 9.22705C11.3638 9.36038 11.2971 9.52705 11.2971 9.69372C11.2638 9.72705 14.4971 9.52705 16.3971 10.1271Z" fill="#D5D7D8"/>
<path d="M13.2633 8.32708C12.7299 7.96042 12.2966 7.72708 12.0299 7.59375C11.7966 7.62708 11.5966 7.62708 11.3633 7.66042C11.3633 7.66042 12.1299 7.89375 12.9966 8.32708C12.9966 8.32708 12.9633 8.32708 12.9299 8.32708C13.1633 8.32708 13.2633 8.32708 13.2633 8.32708Z" fill="#D5D7D8"/>
<path d="M26.7004 30.4924C26.1337 30.3591 23.9337 31.9257 23.1004 32.5257C23.067 32.3591 23.0337 32.2257 23.0004 32.1591C22.9004 31.8257 20.767 32.0257 20.267 32.5591C18.9337 31.9257 16.267 30.6924 16.2337 31.4591C16.1337 32.4591 16.2337 36.6257 16.767 36.9257C17.167 37.1591 19.4337 35.9257 20.567 35.2924C20.567 35.2924 20.567 35.2924 20.6004 35.2924C21.3004 35.4591 22.6004 35.2924 23.067 34.9924C23.1337 34.9591 23.167 34.8924 23.2004 34.8257C24.2337 35.2257 26.467 36.0257 26.9337 35.8591C27.5337 35.6924 27.4004 30.6591 26.7004 30.4924Z" fill="#67BD47"/>
<path d="M20.5991 35.2924C19.8991 35.159 20.1324 34.459 20.1324 32.8257C19.9658 32.9257 19.8324 33.059 19.8324 33.1923C19.8324 34.8257 19.5658 35.559 20.2991 35.659C20.9991 35.8257 22.2991 35.659 22.8324 35.359C22.9324 35.2923 22.9658 35.1923 22.9991 35.0257C22.4991 35.3257 21.2658 35.459 20.5991 35.2924Z" fill="#43A347"/>
</svg>
