<svg width="32" height="33" viewBox="0 0 32 33" fill="none" xmlns="http://www.w3.org/2000/svg">
<g id="Symbol.svg" clip-path="url(#clip0_4669_1947)">
<g id="Layer_1-2">
<g id="Group">
<g id="Group_2">
<path id="Vector" d="M13.0227 13.4271V12.2182C12.6083 12.1615 12.1872 12.126 11.7572 12.126C6.57941 12.126 2.36719 16.3382 2.36719 21.516C2.36719 24.6926 3.95496 27.5038 6.37608 29.2038C4.81274 27.526 3.85385 25.2782 3.85385 22.8104C3.85385 17.7071 7.94719 13.5449 13.0227 13.426V13.4271Z" fill="#25F4EE"/>
<path id="Vector_2" d="M13.2451 27.1001C15.5551 27.1001 17.4395 25.2623 17.5251 22.9734L17.5329 2.52784H21.2684C21.1906 2.10784 21.1484 1.67562 21.1484 1.2334H16.0462L16.0384 21.679C15.9529 23.969 14.0684 25.8056 11.7584 25.8056C11.0406 25.8056 10.364 25.6256 9.76953 25.3134C10.5495 26.3934 11.8151 27.1012 13.2462 27.1012L13.2451 27.1001Z" fill="#25F4EE"/>
<path id="Vector_3" d="M28.2445 9.46671V8.33004C26.82 8.33004 25.4922 7.90671 24.3789 7.18115C25.37 8.31893 26.7167 9.14004 28.2445 9.46671Z" fill="#25F4EE"/>
<path id="Vector_4" d="M24.3778 7.18117C23.2923 5.9345 22.6323 4.30672 22.6323 2.52783H21.2656C21.6256 4.47117 22.779 6.13894 24.3778 7.18117Z" fill="#FE2C55"/>
<path id="Vector_5" d="M11.7576 17.2277C9.39319 17.2277 7.46875 19.151 7.46875 21.5166C7.46875 23.1633 8.40319 24.5944 9.76764 25.3121C9.25875 24.6077 8.95542 23.7444 8.95542 22.811C8.95542 20.4466 10.8799 18.5221 13.2443 18.5221C13.6854 18.5221 14.1088 18.5955 14.5099 18.7199V13.5121C14.0954 13.4555 13.6743 13.4199 13.2443 13.4199C13.1699 13.4199 13.0965 13.4244 13.0221 13.4255V17.4255C12.6221 17.2999 12.1976 17.2277 11.7565 17.2277H11.7576Z" fill="#FE2C55"/>
<path id="Vector_6" d="M28.2439 9.4668V13.4324C25.5983 13.4324 23.1472 12.5857 21.1461 11.1501V21.5179C21.1461 26.6957 16.9339 30.9079 11.7561 30.9079C9.755 30.9079 7.89944 30.2768 6.375 29.2057C8.09056 31.0468 10.5339 32.2024 13.2439 32.2024C18.4217 32.2024 22.6339 27.9901 22.6339 22.8124V12.4446C24.635 13.8812 27.0861 14.7268 29.7317 14.7268V9.62457C29.2217 9.62457 28.7239 9.56902 28.245 9.4668H28.2439Z" fill="#FE2C55"/>
<path id="Vector_7" d="M21.1488 21.5169V11.1491C23.1499 12.5857 25.601 13.4313 28.2466 13.4313V9.46574C26.7188 9.13908 25.3721 8.31797 24.381 7.18019C22.7821 6.13797 21.6288 4.47019 21.2688 2.52686H17.5332L17.5255 22.9724C17.4399 25.2624 15.5555 27.0991 13.2455 27.0991C11.8144 27.0991 10.5488 26.3924 9.7688 25.3113C8.40325 24.5924 7.46991 23.1624 7.46991 21.5157C7.46991 19.1513 9.39436 17.2269 11.7588 17.2269C12.1999 17.2269 12.6232 17.3002 13.0244 17.4246V13.4246C7.9488 13.5435 3.85547 17.7057 3.85547 22.8091C3.85547 25.278 4.81436 27.5246 6.37769 29.2024C7.90325 30.2735 9.75769 30.9046 11.7588 30.9046C16.9366 30.9046 21.1488 26.6924 21.1488 21.5146V21.5169Z" fill="black"/>
</g>
</g>
</g>
</g>
<defs>
<clipPath id="clip0_4669_1947">
<rect width="32" height="32" fill="white" transform="translate(0 0.959961)"/>
</clipPath>
</defs>
</svg>
