<svg width="724" height="632" viewBox="0 0 724 632" fill="none" xmlns="http://www.w3.org/2000/svg">
<path fill-rule="evenodd" clip-rule="evenodd" d="M369 64V16C369 7.71573 375.716 1 384 1H432C440.284 1 447 7.71573 447 16V64C447 72.2843 440.284 79 432 79H384C375.716 79 369 72.2843 369 64ZM384 80C375.163 80 368 72.8366 368 64V16C368 7.16344 375.163 0 384 0H432C440.837 0 448 7.16344 448 16V64C448 72.8366 440.837 80 432 80H384ZM156 171H108C99.7157 171 93 164.284 93 156V108C93 99.7157 99.7157 93 108 93H156C164.284 93 171 99.7157 171 108V156C171 164.284 164.284 171 156 171ZM172 156C172 164.837 164.837 172 156 172H108C99.1634 172 92 164.837 92 156V108C92 99.1634 99.1634 92 108 92H156C164.837 92 172 99.1634 172 108V156ZM108 263H156C164.284 263 171 256.284 171 248V200C171 191.716 164.284 185 156 185H108C99.7157 185 93 191.716 93 200V248C93 256.284 99.7157 263 108 263ZM156 264C164.837 264 172 256.837 172 248V200C172 191.163 164.837 184 156 184H108C99.1634 184 92 191.163 92 200V248C92 256.837 99.1634 264 108 264H156ZM156 355H108C99.7157 355 93 348.284 93 340V292C93 283.716 99.7157 277 108 277H156C164.284 277 171 283.716 171 292V340C171 348.284 164.284 355 156 355ZM172 340C172 348.837 164.837 356 156 356H108C99.1634 356 92 348.837 92 340V292C92 283.163 99.1634 276 108 276H156C164.837 276 172 283.163 172 292V340ZM16 447H64C72.2843 447 79 440.284 79 432V384C79 375.716 72.2843 369 64 369H16C7.71573 369 1 375.716 1 384V432C1 440.284 7.71573 447 16 447ZM64 448C72.8366 448 80 440.837 80 432V384C80 375.163 72.8366 368 64 368H16C7.16344 368 0 375.163 0 384V432C0 440.837 7.16344 448 16 448H64ZM108 447H156C164.284 447 171 440.284 171 432V384C171 375.716 164.284 369 156 369H108C99.7157 369 93 375.716 93 384V432C93 440.284 99.7157 447 108 447ZM156 448C164.837 448 172 440.837 172 432V384C172 375.163 164.837 368 156 368H108C99.1634 368 92 375.163 92 384V432C92 440.837 99.1634 448 108 448H156ZM64 355H16C7.71573 355 1 348.284 1 340V292C1 283.716 7.71573 277 16 277H64C72.2843 277 79 283.716 79 292V340C79 348.284 72.2843 355 64 355ZM80 340C80 348.837 72.8366 356 64 356H16C7.16344 356 0 348.837 0 340V292C0 283.163 7.16344 276 16 276H64C72.8366 276 80 283.163 80 292V340ZM16 263H64C72.2843 263 79 256.284 79 248V200C79 191.716 72.2843 185 64 185H16C7.71573 185 1 191.716 1 200V248C1 256.284 7.71573 263 16 263ZM64 264C72.8366 264 80 256.837 80 248V200C80 191.163 72.8366 184 64 184H16C7.16344 184 0 191.163 0 200V248C0 256.837 7.16344 264 16 264H64ZM16 171H64C72.2843 171 79 164.284 79 156V108C79 99.7157 72.2843 93 64 93H16C7.71573 93 1 99.7157 1 108V156C1 164.284 7.71573 171 16 171ZM64 172C72.8366 172 80 164.837 80 156V108C80 99.1634 72.8366 92 64 92H16C7.16344 92 0 99.1634 0 108V156C0 164.837 7.16344 172 16 172H64ZM277 156V108C277 99.7157 283.716 93 292 93H340C348.284 93 355 99.7157 355 108V156C355 164.284 348.284 171 340 171H292C283.716 171 277 164.284 277 156ZM292 172C283.163 172 276 164.837 276 156V108C276 99.1634 283.163 92 292 92H340C348.837 92 356 99.1634 356 108V156C356 164.837 348.837 172 340 172H292ZM277 200V248C277 256.284 283.716 263 292 263H340C348.284 263 355 256.284 355 248V200C355 191.716 348.284 185 340 185H292C283.716 185 277 191.716 277 200ZM276 248C276 256.837 283.163 264 292 264H340C348.837 264 356 256.837 356 248V200C356 191.163 348.837 184 340 184H292C283.163 184 276 191.163 276 200V248ZM185 108V156C185 164.284 191.716 171 200 171H248C256.284 171 263 164.284 263 156V108C263 99.7157 256.284 93 248 93H200C191.716 93 185 99.7157 185 108ZM184 156C184 164.837 191.163 172 200 172H248C256.837 172 264 164.837 264 156V108C264 99.1634 256.837 92 248 92H200C191.163 92 184 99.1634 184 108V156ZM185 248V200C185 191.716 191.716 185 200 185H248C256.284 185 263 191.716 263 200V248C263 256.284 256.284 263 248 263H200C191.716 263 185 256.284 185 248ZM200 264C191.163 264 184 256.837 184 248V200C184 191.163 191.163 184 200 184H248C256.837 184 264 191.163 264 200V248C264 256.837 256.837 264 248 264H200ZM185 16V64C185 72.2843 191.716 79 200 79H248C256.284 79 263 72.2843 263 64V16C263 7.71573 256.284 1 248 1H200C191.716 1 185 7.71573 185 16ZM184 64C184 72.8366 191.163 80 200 80H248C256.837 80 264 72.8366 264 64V16C264 7.16344 256.837 0 248 0H200C191.163 0 184 7.16344 184 16V64ZM461 156V108C461 99.7157 467.716 93 476 93H524C532.284 93 539 99.7157 539 108V156C539 164.284 532.284 171 524 171H476C467.716 171 461 164.284 461 156ZM476 172C467.163 172 460 164.837 460 156V108C460 99.1634 467.163 92 476 92H524C532.837 92 540 99.1634 540 108V156C540 164.837 532.837 172 524 172H476ZM461 200V248C461 256.284 467.716 263 476 263H524C532.284 263 539 256.284 539 248V200C539 191.716 532.284 185 524 185H476C467.716 185 461 191.716 461 200ZM460 248C460 256.837 467.163 264 476 264H524C532.837 264 540 256.837 540 248V200C540 191.163 532.837 184 524 184H476C467.163 184 460 191.163 460 200V248ZM369 248V200C369 191.716 375.716 185 384 185H432C440.284 185 447 191.716 447 200V248C447 256.284 440.284 263 432 263H384C375.716 263 369 256.284 369 248ZM384 264C375.163 264 368 256.837 368 248V200C368 191.163 375.163 184 384 184H432C440.837 184 448 191.163 448 200V248C448 256.837 440.837 264 432 264H384ZM369 108V156C369 164.284 375.716 171 384 171H432C440.284 171 447 164.284 447 156V108C447 99.7157 440.284 93 432 93H384C375.716 93 369 99.7157 369 108ZM368 156C368 164.837 375.163 172 384 172H432C440.837 172 448 164.837 448 156V108C448 99.1634 440.837 92 432 92H384C375.163 92 368 99.1634 368 108V156ZM369 340V292C369 283.716 375.716 277 384 277H432C440.284 277 447 283.716 447 292V340C447 348.284 440.284 355 432 355H384C375.716 355 369 348.284 369 340ZM384 356C375.163 356 368 348.837 368 340V292C368 283.163 375.163 276 384 276H432C440.837 276 448 283.163 448 292V340C448 348.837 440.837 356 432 356H384ZM277 292V340C277 348.284 283.716 355 292 355H340C348.284 355 355 348.284 355 340V292C355 283.716 348.284 277 340 277H292C283.716 277 277 283.716 277 292ZM276 340C276 348.837 283.163 356 292 356H340C348.837 356 356 348.837 356 340V292C356 283.163 348.837 276 340 276H292C283.163 276 276 283.163 276 292V340ZM277 432V384C277 375.716 283.716 369 292 369H340C348.284 369 355 375.716 355 384V432C355 440.284 348.284 447 340 447H292C283.716 447 277 440.284 277 432ZM292 448C283.163 448 276 440.837 276 432V384C276 375.163 283.163 368 292 368H340C348.837 368 356 375.163 356 384V432C356 440.837 348.837 448 340 448H292ZM461 384V432C461 440.284 467.716 447 476 447H524C532.284 447 539 440.284 539 432V384C539 375.716 532.284 369 524 369H476C467.716 369 461 375.716 461 384ZM460 432C460 440.837 467.163 448 476 448H524C532.837 448 540 440.837 540 432V384C540 375.163 532.837 368 524 368H476C467.163 368 460 375.163 460 384V432ZM185 340V292C185 283.716 191.716 277 200 277H248C256.284 277 263 283.716 263 292V340C263 348.284 256.284 355 248 355H200C191.716 355 185 348.284 185 340ZM200 356C191.163 356 184 348.837 184 340V292C184 283.163 191.163 276 200 276H248C256.837 276 264 283.163 264 292V340C264 348.837 256.837 356 248 356H200ZM185 384V432C185 440.284 191.716 447 200 447H248C256.284 447 263 440.284 263 432V384C263 375.716 256.284 369 248 369H200C191.716 369 185 375.716 185 384ZM184 432C184 440.837 191.163 448 200 448H248C256.837 448 264 440.837 264 432V384C264 375.163 256.837 368 248 368H200C191.163 368 184 375.163 184 384V432ZM369 432V384C369 375.716 375.716 369 384 369H432C440.284 369 447 375.716 447 384V432C447 440.284 440.284 447 432 447H384C375.716 447 369 440.284 369 432ZM384 448C375.163 448 368 440.837 368 432V384C368 375.163 375.163 368 384 368H432C440.837 368 448 375.163 448 384V432C448 440.837 440.837 448 432 448H384ZM524 277H476C467.716 277 461 283.716 461 292V340C461 348.284 467.716 355 476 355H524C532.284 355 539 348.284 539 340V292C539 283.716 532.284 277 524 277ZM476 276C467.163 276 460 283.163 460 292V340C460 348.837 467.163 356 476 356H524C532.837 356 540 348.837 540 340V292C540 283.163 532.837 276 524 276H476ZM277 476V524C277 532.284 283.716 539 292 539H340C348.284 539 355 532.284 355 524V476C355 467.716 348.284 461 340 461H292C283.716 461 277 467.716 277 476ZM292 460C283.163 460 276 467.163 276 476V524C276 532.837 283.163 540 292 540H340C348.837 540 356 532.837 356 524V476C356 467.163 348.837 460 340 460H292ZM461 524V476C461 467.716 467.716 461 476 461H524C532.284 461 539 467.716 539 476V524C539 532.284 532.284 539 524 539H476C467.716 539 461 532.284 461 524ZM460 476C460 467.163 467.163 460 476 460H524C532.837 460 540 467.163 540 476V524C540 532.837 532.837 540 524 540H476C467.163 540 460 532.837 460 524V476ZM461 568V616C461 624.284 467.716 631 476 631H524C532.284 631 539 624.284 539 616V568C539 559.716 532.284 553 524 553H476C467.716 553 461 559.716 461 568ZM476 552C467.163 552 460 559.163 460 568V616C460 624.837 467.163 632 476 632H524C532.837 632 540 624.837 540 616V568C540 559.163 532.837 552 524 552H476ZM708 93H660C651.716 93 645 99.7157 645 108V156C645 164.284 651.716 171 660 171H708C716.284 171 723 164.284 723 156V108C723 99.7157 716.284 93 708 93ZM660 92C651.163 92 644 99.1634 644 108V156C644 164.837 651.163 172 660 172H708C716.837 172 724 164.837 724 156V108C724 99.1634 716.837 92 708 92H660ZM568 185H616C624.284 185 631 191.716 631 200V248C631 256.284 624.284 263 616 263H568C559.716 263 553 256.284 553 248V200C553 191.716 559.716 185 568 185ZM552 200C552 191.163 559.163 184 568 184H616C624.837 184 632 191.163 632 200V248C632 256.837 624.837 264 616 264H568C559.163 264 552 256.837 552 248V200ZM616 93H568C559.716 93 553 99.7157 553 108V156C553 164.284 559.716 171 568 171H616C624.284 171 631 164.284 631 156V108C631 99.7157 624.284 93 616 93ZM568 92C559.163 92 552 99.1634 552 108V156C552 164.837 559.163 172 568 172H616C624.837 172 632 164.837 632 156V108C632 99.1634 624.837 92 616 92H568ZM568 277H616C624.284 277 631 283.716 631 292V340C631 348.284 624.284 355 616 355H568C559.716 355 553 348.284 553 340V292C553 283.716 559.716 277 568 277ZM552 292C552 283.163 559.163 276 568 276H616C624.837 276 632 283.163 632 292V340C632 348.837 624.837 356 616 356H568C559.163 356 552 348.837 552 340V292ZM616 369H568C559.716 369 553 375.716 553 384V432C553 440.284 559.716 447 568 447H616C624.284 447 631 440.284 631 432V384C631 375.716 624.284 369 616 369ZM568 368C559.163 368 552 375.163 552 384V432C552 440.837 559.163 448 568 448H616C624.837 448 632 440.837 632 432V384C632 375.163 624.837 368 616 368H568ZM660 185H708C716.284 185 723 191.716 723 200V248C723 256.284 716.284 263 708 263H660C651.716 263 645 256.284 645 248V200C645 191.716 651.716 185 660 185ZM644 200C644 191.163 651.163 184 660 184H708C716.837 184 724 191.163 724 200V248C724 256.837 716.837 264 708 264H660C651.163 264 644 256.837 644 248V200ZM708 369H660C651.716 369 645 375.716 645 384V432C645 440.284 651.716 447 660 447H708C716.284 447 723 440.284 723 432V384C723 375.716 716.284 369 708 369ZM660 368C651.163 368 644 375.163 644 384V432C644 440.837 651.163 448 660 448H708C716.837 448 724 440.837 724 432V384C724 375.163 716.837 368 708 368H660ZM660 461H708C716.284 461 723 467.716 723 476V524C723 532.284 716.284 539 708 539H660C651.716 539 645 532.284 645 524V476C645 467.716 651.716 461 660 461ZM644 476C644 467.163 651.163 460 660 460H708C716.837 460 724 467.163 724 476V524C724 532.837 716.837 540 708 540H660C651.163 540 644 532.837 644 524V476Z" fill="url(#paint0_linear_4669_1029)"/>
<defs>
<linearGradient id="paint0_linear_4669_1029" x1="-89.5" y1="228.5" x2="679.128" y2="694.91" gradientUnits="userSpaceOnUse">
<stop stop-color="white" stop-opacity="0"/>
<stop offset="0.276363" stop-color="white"/>
<stop offset="0.746415" stop-color="white"/>
<stop offset="1" stop-color="white" stop-opacity="0"/>
</linearGradient>
</defs>
</svg>
