<svg width="112" height="96" viewBox="0 0 112 96" fill="none" xmlns="http://www.w3.org/2000/svg">
<g clip-path="url(#clip0_4669_2245)" filter="url(#filter0_d_4669_2245)">
<mask id="mask0_4669_2245" style="mask-type:alpha" maskUnits="userSpaceOnUse" x="28" y="12" width="56" height="40">
<path d="M78.6667 12H33.3333C30.3878 12 28 14.3878 28 17.3333V46.6667C28 49.6122 30.3878 52 33.3333 52H78.6667C81.6122 52 84 49.6122 84 46.6667V17.3333C84 14.3878 81.6122 12 78.6667 12Z" fill="white"/>
</mask>
<g mask="url(#mask0_4669_2245)">
<path d="M78.6667 12H33.3333C30.3878 12 28 14.3878 28 17.3333V46.6667C28 49.6122 30.3878 52 33.3333 52H78.6667C81.6122 52 84 49.6122 84 46.6667V17.3333C84 14.3878 81.6122 12 78.6667 12Z" fill="white"/>
<path fill-rule="evenodd" clip-rule="evenodd" d="M28 12H52V30.6667H28V12Z" fill="#444379"/>
<path fill-rule="evenodd" clip-rule="evenodd" d="M30.666 14.6665V17.3332H33.3327V14.6665H30.666ZM35.9993 14.6665V17.3332H38.666V14.6665H35.9993ZM41.3327 14.6665V17.3332H43.9993V14.6665H41.3327ZM46.666 14.6665V17.3332H49.3327V14.6665H46.666ZM43.9993 17.3332V19.9998H46.666V17.3332H43.9993ZM38.666 17.3332V19.9998H41.3327V17.3332H38.666ZM33.3327 17.3332V19.9998H35.9993V17.3332H33.3327ZM30.666 19.9998V22.6665H33.3327V19.9998H30.666ZM35.9993 19.9998V22.6665H38.666V19.9998H35.9993ZM41.3327 19.9998V22.6665H43.9993V19.9998H41.3327ZM46.666 19.9998V22.6665H49.3327V19.9998H46.666ZM30.666 25.3332V27.9998H33.3327V25.3332H30.666ZM35.9993 25.3332V27.9998H38.666V25.3332H35.9993ZM41.3327 25.3332V27.9998H43.9993V25.3332H41.3327ZM46.666 25.3332V27.9998H49.3327V25.3332H46.666ZM43.9993 22.6665V25.3332H46.666V22.6665H43.9993ZM38.666 22.6665V25.3332H41.3327V22.6665H38.666ZM33.3327 22.6665V25.3332H35.9993V22.6665H33.3327Z" fill="#A7B6E7"/>
<path fill-rule="evenodd" clip-rule="evenodd" d="M52 12V14.6667H84V12H52ZM52 17.3333V20H84V17.3333H52ZM52 22.6667V25.3333H84V22.6667H52ZM52 28V30.6667H84V28H52ZM28 33.3333V36H84V33.3333H28ZM28 38.6667V41.3333H84V38.6667H28ZM28 44V46.6667H84V44H28ZM28 49.3333V52H84V49.3333H28Z" fill="#ED4C49"/>
<path d="M78.6673 13.3335H33.334C31.1248 13.3335 29.334 15.1244 29.334 17.3335V46.6668C29.334 48.876 31.1248 50.6668 33.334 50.6668H78.6673C80.8765 50.6668 82.6673 48.876 82.6673 46.6668V17.3335C82.6673 15.1244 80.8765 13.3335 78.6673 13.3335Z" stroke="black" stroke-opacity="0.1" stroke-width="2.66667"/>
</g>
</g>
<defs>
<filter id="filter0_d_4669_2245" x="0" y="0" width="112" height="96" filterUnits="userSpaceOnUse" color-interpolation-filters="sRGB">
<feFlood flood-opacity="0" result="BackgroundImageFix"/>
<feColorMatrix in="SourceAlpha" type="matrix" values="0 0 0 0 0 0 0 0 0 0 0 0 0 0 0 0 0 0 127 0" result="hardAlpha"/>
<feMorphology radius="4" operator="erode" in="SourceAlpha" result="effect1_dropShadow_4669_2245"/>
<feOffset dy="16"/>
<feGaussianBlur stdDeviation="16"/>
<feColorMatrix type="matrix" values="0 0 0 0 0.568627 0 0 0 0 0.619608 0 0 0 0 0.670588 0 0 0 0.24 0"/>
<feBlend mode="normal" in2="BackgroundImageFix" result="effect1_dropShadow_4669_2245"/>
<feBlend mode="normal" in="SourceGraphic" in2="effect1_dropShadow_4669_2245" result="shape"/>
</filter>
<clipPath id="clip0_4669_2245">
<rect width="56" height="40" fill="white" transform="translate(28 12)"/>
</clipPath>
</defs>
</svg>
