<svg width="32" height="33" viewBox="0 0 32 33" fill="none" xmlns="http://www.w3.org/2000/svg">
<g id="wayfair_symbol.svg" clip-path="url(#clip0_4669_1831)">
<g id="Group">
<g id="Group_2">
<path id="Vector" d="M31.9492 11.1607L29.9298 3.54906C29.878 3.29016 29.6709 3.08304 29.412 3.03126L21.8004 1.01184C21.5415 0.96006 21.2826 1.01184 21.0754 1.21896L15.9492 6.34517L26.6159 17.0118L31.7421 11.8856C31.9492 11.6785 32.0528 11.4196 31.9492 11.1607Z" fill="#57C377"/>
<path id="Vector_2" d="M-0.00215551 22.7593L2.01726 30.371C2.06904 30.6299 2.27616 30.837 2.53506 30.8888L10.1467 32.9082C10.4056 32.96 10.6645 32.9082 10.8716 32.7011L15.9978 27.5748L5.33118 16.96L0.204964 22.0862C0.0496244 22.2415 -0.0539354 22.5004 -0.00215551 22.7593Z" fill="#FFC600"/>
<path id="Vector_3" d="M10.1998 0.959759L2.58814 2.97918C2.32924 3.03096 2.12212 3.23808 2.07034 3.49698L-0.000855274 11.1604C-0.0526352 11.4193 -0.000855265 11.6782 0.206264 11.8853L5.33248 17.0115L15.9991 6.34487L10.8729 1.16688C10.7176 1.01154 10.4587 0.907979 10.1998 0.959759Z" fill="#92DA4D"/>
</g>
<path id="Vector_4" d="M31.6893 21.9826L26.6667 16.96L16 27.6266L21.0227 32.6493C21.2298 32.8564 21.5922 32.96 21.9029 32.9082L29.3074 30.9405C29.6181 30.837 29.877 30.6299 29.9806 30.2674L31.9482 22.8629C32.0518 22.5522 31.9482 22.2415 31.6893 21.9826Z" fill="#A77AD7"/>
<path id="Vector_5" d="M15.9987 6.29297L5.33203 16.9596L15.9987 27.6263L26.6654 16.9596L15.9987 6.29297Z" fill="#7F187F"/>
</g>
</g>
<defs>
<clipPath id="clip0_4669_1831">
<rect width="32" height="32" fill="white" transform="translate(0 0.959961)"/>
</clipPath>
</defs>
</svg>
