<svg width="32" height="33" viewBox="0 0 32 33" fill="none" xmlns="http://www.w3.org/2000/svg">
<g id="Symbol.svg">
<g id="g10">
<g id="g12">
<path id="path14" d="M31.3313 9.09263C30.9633 7.71156 29.8791 6.62404 28.5022 6.25494C26.0067 5.58416 16 5.58416 16 5.58416C16 5.58416 5.99333 5.58416 3.4978 6.25494C2.12102 6.62404 1.03665 7.71156 0.668678 9.09263C0 11.5957 0 16.8182 0 16.8182C0 16.8182 0 22.0406 0.668678 24.5439C1.03665 25.9248 2.12102 27.0124 3.4978 27.3816C5.99333 28.0522 16 28.0522 16 28.0522C16 28.0522 26.0067 28.0522 28.5022 27.3816C29.8791 27.0124 30.9633 25.9248 31.3313 24.5439C32 22.0406 32 16.8182 32 16.8182C32 16.8182 32 11.5957 31.3313 9.09263Z" fill="#ED1D24"/>
<path id="path16" d="M12.7266 21.5596L21.0902 16.8182L12.7266 12.0763V21.5596Z" fill="white"/>
</g>
</g>
</g>
</svg>
