<svg width="48" height="48" viewBox="0 0 48 48" fill="none" xmlns="http://www.w3.org/2000/svg">
<rect width="48" height="48" rx="12" fill="black" fill-opacity="0.15"/>
<path d="M30.1362 27.9985C30.1589 29.3013 29.8041 30.5829 29.1145 31.6885C28.4249 32.7942 27.4301 33.6766 26.25 34.2292C25.07 34.7819 23.7552 34.9812 22.4644 34.803C21.1736 34.6249 19.9619 34.0769 18.9757 33.2253C18.8986 33.1617 18.8349 33.0834 18.7885 32.9949C18.7421 32.9063 18.7139 32.8094 18.7054 32.7099C18.697 32.6103 18.7086 32.51 18.7395 32.4149C18.7703 32.3199 18.8199 32.232 18.8852 32.1563C18.9506 32.0807 19.0304 32.0189 19.1199 31.9745C19.2095 31.9302 19.307 31.9042 19.4068 31.898C19.5065 31.8919 19.6065 31.9058 19.7008 31.9388C19.7952 31.9719 19.8819 32.0235 19.956 32.0905C20.6002 32.6465 21.3698 33.0377 22.1987 33.2302C23.0276 33.4227 23.8908 33.4108 24.7141 33.1957C25.5374 32.9805 26.296 32.5684 26.9247 31.9949C27.5533 31.4214 28.0332 30.7037 28.3229 29.9036C28.6126 29.1035 28.7034 28.245 28.5877 27.402C28.4719 26.5589 28.1529 25.7567 27.6582 25.0643C27.1636 24.3719 26.508 23.8102 25.748 23.4274C24.988 23.0446 24.1464 22.8524 23.2956 22.8671C23.1563 22.8695 23.0191 22.8331 22.8994 22.762C22.7796 22.6908 22.6821 22.5877 22.6176 22.4643C22.5532 22.3408 22.5244 22.2018 22.5344 22.0629C22.5445 21.924 22.5931 21.7906 22.6747 21.6777L27.6553 14.7898L19.1565 14.9381C18.9577 14.9416 18.7656 14.8659 18.6225 14.7277C18.4794 14.5896 18.397 14.4002 18.3936 14.2013C18.3901 14.0024 18.4658 13.8103 18.604 13.6672C18.7421 13.5242 18.9315 13.4418 19.1304 13.4383L29.1288 13.2638C29.2681 13.2614 29.4053 13.2978 29.525 13.3689C29.6448 13.4401 29.7423 13.5432 29.8068 13.6666C29.8713 13.7901 29.9001 13.9291 29.89 14.068C29.8799 14.2069 29.8313 14.3403 29.7497 14.4532L24.6629 21.4868C26.1828 21.7817 27.5554 22.5891 28.5516 23.7743C29.5478 24.9595 30.1071 26.4506 30.1362 27.9985Z" fill="white"/>
</svg>
