<svg width="76" height="76" viewBox="0 0 76 76" fill="none" xmlns="http://www.w3.org/2000/svg">
<rect width="76" height="76" rx="38" fill="black" fill-opacity="0.1"/>
<path d="M60.5781 42.0625C60.455 42.1548 60.3149 42.222 60.1658 42.2602C60.0168 42.2984 59.8616 42.3068 59.7093 42.2851C59.5569 42.2633 59.4104 42.2117 59.2779 42.1333C59.1455 42.0549 59.0298 41.9512 58.9375 41.8281C57.9596 40.5134 56.6866 39.4468 55.2211 38.7141C53.7556 37.9813 52.1385 37.6029 50.5 37.6093C50.1892 37.6093 49.8911 37.4859 49.6714 37.2661C49.4516 37.0463 49.3281 36.7483 49.3281 36.4375C49.3281 36.1267 49.4516 35.8286 49.6714 35.6088C49.8911 35.389 50.1892 35.2656 50.5 35.2656C51.4497 35.2654 52.3804 34.9988 53.1862 34.4962C53.9921 33.9937 54.6408 33.2751 55.0588 32.4223C55.4768 31.5695 55.6472 30.6166 55.5508 29.6718C55.4543 28.7269 55.0949 27.8281 54.5132 27.0773C53.9315 26.3266 53.151 25.7539 52.2602 25.4245C51.3694 25.0951 50.4041 25.0222 49.4739 25.2139C48.5437 25.4056 47.6859 25.8543 46.998 26.509C46.31 27.1638 45.8195 27.9983 45.582 28.9179C45.5043 29.2189 45.3103 29.4767 45.0425 29.6345C44.7748 29.7924 44.4553 29.8374 44.1543 29.7597C43.8533 29.682 43.5956 29.4879 43.4377 29.2202C43.2798 28.9524 43.2348 28.6329 43.3125 28.332C43.6071 27.1863 44.1712 26.1277 44.9579 25.2443C45.7446 24.3609 46.731 23.6783 47.835 23.2535C48.939 22.8287 50.1285 22.6738 51.3045 22.802C52.4804 22.9301 53.6087 23.3374 54.5953 23.9901C55.5819 24.6427 56.3982 25.5217 56.9762 26.5538C57.5541 27.5858 57.8771 28.7411 57.918 29.9233C57.9589 31.1055 57.7167 32.2804 57.2115 33.35C56.7063 34.4196 55.9528 35.3529 55.0137 36.0722C57.3245 36.9346 59.3378 38.4447 60.8125 40.4218C60.9048 40.5449 60.972 40.685 61.0102 40.8341C61.0484 40.9832 61.0569 41.1383 61.0351 41.2907C61.0133 41.443 60.9618 41.5896 60.8834 41.722C60.805 41.8544 60.7012 41.9701 60.5781 42.0625ZM49.9512 54.6015C50.0283 54.7348 50.0784 54.8819 50.0986 55.0345C50.1189 55.1871 50.1088 55.3422 50.0691 55.4909C50.0294 55.6396 49.9608 55.7791 49.8671 55.9013C49.7735 56.0235 49.6567 56.126 49.5234 56.2031C49.3458 56.3072 49.1434 56.3619 48.9375 56.3613C48.7317 56.3614 48.5294 56.3073 48.3511 56.2045C48.1728 56.1016 48.0248 55.9536 47.9219 55.7753C46.9032 54.0495 45.4521 52.6191 43.7118 51.6255C41.9715 50.6318 40.0021 50.1091 37.998 50.1091C35.994 50.1091 34.0246 50.6318 32.2843 51.6255C30.544 52.6191 29.0928 54.0495 28.0742 55.7753C28.001 55.9154 27.9001 56.0392 27.7778 56.1392C27.6555 56.2393 27.5141 56.3136 27.3623 56.3576C27.2106 56.4017 27.0514 56.4145 26.8945 56.3955C26.7376 56.3764 26.5862 56.3258 26.4494 56.2467C26.3125 56.1676 26.1931 56.0617 26.0983 55.9352C26.0035 55.8088 25.9352 55.6645 25.8976 55.511C25.86 55.3574 25.8539 55.1979 25.8795 55.042C25.9052 54.886 25.9621 54.7369 26.0469 54.6035C27.643 51.861 30.1422 49.7581 33.1172 48.6543C31.4921 47.5991 30.2517 46.0469 29.5809 44.2291C28.9102 42.4113 28.845 40.4254 29.3953 38.5676C29.9455 36.7098 31.0816 35.0796 32.634 33.9202C34.1865 32.7609 36.0722 32.1345 38.0098 32.1345C39.9474 32.1345 41.833 32.7609 43.3855 33.9202C44.938 35.0796 46.0741 36.7098 46.6243 38.5676C47.1745 40.4254 47.1094 42.4113 46.4386 44.2291C45.7679 46.0469 44.5274 47.5991 42.9023 48.6543C45.869 49.7619 48.36 51.8636 49.9512 54.6015ZM38 47.7656C39.3134 47.7656 40.5973 47.3761 41.6893 46.6464C42.7814 45.9168 43.6325 44.8796 44.1351 43.6662C44.6378 42.4528 44.7693 41.1176 44.513 39.8294C44.2568 38.5413 43.6243 37.358 42.6956 36.4293C41.7669 35.5006 40.5837 34.8682 39.2955 34.6119C38.0074 34.3557 36.6722 34.4872 35.4587 34.9898C34.2453 35.4924 33.2082 36.3436 32.4785 37.4356C31.7488 38.5277 31.3594 39.8116 31.3594 41.125C31.3594 42.8862 32.059 44.5752 33.3044 45.8206C34.5497 47.0659 36.2388 47.7656 38 47.7656ZM26.6719 36.4375C26.6719 36.1267 26.5484 35.8286 26.3286 35.6088C26.1089 35.389 25.8108 35.2656 25.5 35.2656C24.5504 35.2653 23.6199 34.9987 22.8141 34.4961C22.0084 33.9936 21.3597 33.2751 20.9418 32.4224C20.5238 31.5697 20.3533 30.6169 20.4497 29.6722C20.546 28.7275 20.9054 27.8287 21.4869 27.0779C22.0684 26.3271 22.8487 25.7545 23.7393 25.4249C24.6299 25.0954 25.5951 25.0221 26.5252 25.2136C27.4554 25.405 28.3132 25.8534 29.0013 26.5079C29.6894 27.1623 30.1802 27.9966 30.418 28.916C30.4564 29.065 30.5239 29.205 30.6165 29.3279C30.709 29.4509 30.8249 29.5544 30.9575 29.6326C31.0901 29.7107 31.2367 29.762 31.3891 29.7835C31.5415 29.805 31.6967 29.7962 31.8457 29.7578C31.9947 29.7193 32.1347 29.6518 32.2577 29.5593C32.3806 29.4667 32.4841 29.3508 32.5623 29.2182C32.6405 29.0857 32.6918 28.939 32.7132 28.7866C32.7347 28.6342 32.726 28.4791 32.6875 28.33C32.3929 27.1844 31.8288 26.1258 31.0421 25.2424C30.2554 24.359 29.269 23.6764 28.165 23.2515C27.061 22.8267 25.8715 22.6719 24.6955 22.8C23.5196 22.9281 22.3913 23.3355 21.4047 23.9881C20.4181 24.6407 19.6018 25.5197 19.0238 26.5518C18.4459 27.5839 18.1229 28.7392 18.082 29.9214C18.0411 31.1036 18.2833 32.2784 18.7885 33.348C19.2937 34.4176 20.0472 35.351 20.9863 36.0703C18.6752 36.9331 16.6619 38.444 15.1875 40.4218C15.0952 40.5449 15.028 40.685 14.9898 40.8341C14.9516 40.9832 14.9431 41.1383 14.9649 41.2907C14.9867 41.443 15.0382 41.5896 15.1166 41.722C15.195 41.8544 15.2988 41.9701 15.4219 42.0625C15.545 42.1548 15.6851 42.222 15.8342 42.2602C15.9832 42.2984 16.1384 42.3068 16.2907 42.2851C16.4431 42.2633 16.5896 42.2117 16.7221 42.1333C16.8545 42.0549 16.9702 41.9512 17.0625 41.8281C18.0404 40.5134 19.3134 39.4468 20.7789 38.7141C22.2444 37.9813 23.8615 37.6029 25.5 37.6093C25.8108 37.6093 26.1089 37.4859 26.3286 37.2661C26.5484 37.0463 26.6719 36.7483 26.6719 36.4375Z" fill="white"/>
</svg>
