<svg width="52" height="52" viewBox="0 0 52 52" fill="none" xmlns="http://www.w3.org/2000/svg">
<path d="M7.21312 23.7956C6.68853 21.992 4.72131 18.986 3.01639 17.3828C1.31148 15.7795 5.31148 11.0367 7.40984 10.9699C8.78689 10.9031 10.9508 14.5771 13.4426 16.4476C14.7541 17.4496 15.2787 16.648 16.0656 16.5812C17.1148 16.4476 19.7377 15.5791 23.082 15.2451C26.7541 14.9111 33.6393 15.5791 35.3443 16.4476C38.6885 18.0508 39.4754 16.1803 39.9344 14.4435C40.3279 12.7067 48.7869 13.3079 49.3115 15.8463C49.5738 16.982 45.3115 21.992 44.7213 26.0001C44.0656 29.9413 35.6066 21.4576 25.9672 22.1924C16.3279 22.9272 9.11476 26.0001 8.39344 27.7369C7.60656 29.4069 7.54098 24.7976 7.21312 23.7956Z" fill="white"/>
<path d="M39.9344 15.8463C39.9344 15.8463 40.2623 14.8443 39.7377 13.1743C39.082 11.1703 37.6393 8.36464 37.6393 6.49422C37.6393 3.02058 40.0656 1.68457 42.6885 2.21897C45.3115 2.75338 49.1148 4.28979 50.0328 7.36263C50.4918 8.83224 51.1475 10.9031 51.0164 12.5063C50.8197 14.3767 49.8361 16.1135 49.5082 16.5811C49.5082 16.5811 47.0164 14.5103 45.377 14.7107C43.6721 14.8443 39.9344 15.8463 39.9344 15.8463Z" fill="#41A5A2"/>
<path d="M7.67213 33.682C7.67213 33.682 7.80328 24.8643 12.5902 20.9899C17.1803 17.249 20.7213 17.1154 26.0328 17.0486C31.4098 16.9818 35.541 17.6498 38.623 20.3887C42.0328 23.4615 43.082 25.8663 43.8689 28.3379C45.0492 31.9452 44.459 35.4856 43.9344 36.8884C43.6066 37.7568 40.1311 39.4269 39.1475 39.9613C36.3279 41.4977 24.459 42.4997 18.8197 41.4309C13.1803 40.2953 9.2459 39.4269 8.26229 37.4896C7.27869 35.6192 7.67213 33.682 7.67213 33.682Z" fill="#EDEFEF"/>
<path opacity="0.68" d="M48 14.2431C48 14.2431 49.377 11.5711 48.918 9.23307C48.5246 7.22904 47.1475 4.82422 47.1475 4.82422C47.1475 4.82422 48.9836 6.42744 49.7049 8.03065C50.4918 9.90107 50.6229 11.5043 50.1639 13.0407C49.7705 14.4435 49.1803 14.9779 49.1803 14.9779C49.1803 14.9779 48.9836 14.7107 48.7869 14.5771C48.5902 14.5103 48 14.2431 48 14.2431Z" fill="white"/>
<path d="M12.1311 15.646C12.1311 15.646 12.1311 14.3099 12.3279 12.9739C12.6557 10.9031 14.2951 8.16427 14.2951 6.29385C14.2951 2.82022 11.7377 1.75141 9.11475 2.35261C6.4918 2.95382 2.68853 4.55704 1.77049 7.62987C1.31148 9.03268 0.655738 11.1035 0.85246 12.7735C1.04918 14.6439 2.62295 16.5144 2.95082 16.9152C2.95082 16.9152 4.72131 14.5103 7.34426 14.6439C9.04918 14.7775 12.1311 15.646 12.1311 15.646Z" fill="#41A5A2"/>
<path d="M7.86885 36.087C7.86885 36.087 11.6721 38.2914 14.2951 38.091C15.8033 37.9574 19.4754 36.2206 20.7213 34.2165C21.9672 32.2793 21.4426 31.3441 22.8852 29.6073C24.3279 27.8037 26.0328 27.9373 27.2131 27.9373C28.3934 27.9373 29.9016 28.0709 30.8852 29.6741C31.8689 31.2773 32.0656 34.751 33.9016 35.8198C35.082 36.4878 37.6393 37.8906 39.6066 37.5566C41.5738 37.2894 43.9344 36.3542 43.9344 36.3542C43.9344 36.3542 44.8525 38.5586 43.7377 40.2954C42.6885 42.0322 39.0164 44.3703 36.5902 45.7063C34.0984 47.0423 30.0984 49.2467 26.2951 49.5139C22.4918 49.7811 17.6393 46.6415 16.3934 45.9735C15.1475 45.3055 10.2295 41.8318 8.98361 40.0282C7.7377 38.2914 7.86885 36.087 7.86885 36.087Z" fill="#427C78"/>
<path d="M26.4918 50.2486C26.2951 50.2486 26.0328 50.2486 25.9016 50.3154C24.5246 50.3154 20.7869 49.3134 17.3115 47.0422C16.459 46.5078 15.6066 45.9734 14.7541 45.439C11.2787 43.3013 8.26229 41.4977 7.67213 38.6253C7.01639 35.5525 7.21311 31.9452 7.27869 30.008V29.5404C7.27869 29.0728 7.34426 28.4048 7.40984 27.6032C7.40984 27.0688 7.47541 26.5344 7.54098 25.9332L8.39344 26C8.39344 26.6012 8.32787 27.2024 8.26229 27.67C8.19672 28.4048 8.19672 29.0728 8.13115 29.5404V30.008C8.06557 31.8784 7.86885 35.4189 8.45902 38.4249C8.98361 40.8965 11.8033 42.6333 15.1475 44.6374C16 45.1718 16.8525 45.6394 17.7049 46.2406C21.1803 48.5118 24.7213 49.447 25.8361 49.3802C27.0164 49.3802 30.623 48.6454 34.0984 46.5746C34.9508 46.0402 35.8689 45.5726 36.7213 45.105C40.1312 43.2345 43.082 41.6313 43.6721 39.1597C44 37.8905 44.1312 32.6132 44 25.7996H44.8525C44.9836 31.2772 44.918 37.7569 44.5246 39.4269C43.8033 42.2325 40.7213 43.9026 37.1148 45.9066C36.2623 46.3742 35.4098 46.8418 34.4918 47.3762C31.4754 49.2466 28.1967 50.0482 26.4918 50.2486Z" fill="black"/>
<path d="M44.459 36.2872C43.6721 36.6212 42.6885 37.022 41.5738 37.2892C38.9508 37.8904 34.8852 37.2892 33.1803 34.9512C31.6721 32.9472 32.1967 28.0039 27.1475 27.8703C21.5738 27.8035 22.1639 32.6132 20.5246 34.4836C18.623 36.688 14.5574 38.5584 12 37.69C10.3607 37.1556 8.59016 36.02 7.73771 35.4856" stroke="black" stroke-width="2" stroke-miterlimit="10"/>
<path d="M44.9836 30.9432L44.1967 28.0039C44.1967 27.9371 43.1475 24.0627 41.3115 21.3906C39.8033 19.253 37.1148 17.583 37.1148 17.583L36.0656 16.9818L37.2459 16.7814C37.3115 16.7814 39.1475 16.4474 39.4754 14.7774C39.6721 13.5082 39.0164 12.0385 38.4262 10.6357C38.0984 9.96773 37.8361 9.36652 37.6393 8.76531C37.3115 7.6297 36.8525 5.55888 37.7705 3.88886C38.2951 2.88685 39.2787 2.21884 40.5902 1.95164C43.7377 1.21683 46.9508 2.88685 48.7213 4.49007C50.7541 6.36049 51.4098 9.09932 51.6066 10.5689C51.8688 12.4394 51.6721 14.1094 49.8361 16.9818C49.1803 17.9838 48.5902 18.7854 48.0656 19.5202C46.9508 20.9898 46.0984 22.1923 45.7049 23.6619C45.1148 25.9331 45.0492 27.8703 45.0492 27.9371L44.9836 30.9432ZM38.2951 17.3158C39.2787 17.9838 40.8525 19.253 41.9672 20.8562C43.0164 22.4595 43.8689 24.3299 44.3279 25.7327C44.459 25.0647 44.5902 24.2631 44.7869 23.3947C45.2459 21.7247 46.1639 20.4554 47.2787 18.919C47.8033 18.1842 48.3934 17.3826 49.0492 16.4474C50.8852 13.5082 50.8852 11.9717 50.6885 10.6357C50.4918 9.29972 49.9016 6.76129 48.0656 5.09127C46.2951 3.48806 43.3443 2.08524 40.7213 2.75325C39.6066 3.02045 38.8852 3.55486 38.4262 4.28966C37.7049 5.62568 38.0984 7.4961 38.3607 8.49811C38.5574 9.03252 38.8197 9.63372 39.082 10.3017C39.7377 11.7713 40.459 13.4414 40.1967 14.9778C40.0656 16.3138 39.082 16.9818 38.2951 17.3158Z" fill="black"/>
<path d="M48.9836 17.917C48.918 17.917 48.8525 17.917 48.7869 17.917C48.5246 17.7834 48.3934 17.583 48.5246 17.3158C48.7213 16.7813 48.6557 16.3805 48.459 16.0465C48.0656 15.4453 46.8852 15.1113 45.377 15.1113C43.2131 15.1113 39.8033 16.2469 39.7377 16.2469C39.541 16.3137 39.2787 16.1801 39.2131 15.9797C39.1475 15.7793 39.2787 15.5121 39.4754 15.4453C39.6066 15.3785 43.082 14.2429 45.377 14.2429C46.6885 14.2429 48.3934 14.4433 49.1803 15.5121C49.5738 16.0465 49.6393 16.7813 49.3771 17.583C49.2459 17.7834 49.1148 17.917 48.9836 17.917Z" fill="black"/>
<path d="M37.7049 17.6498C37.6393 17.6498 37.5738 17.6498 37.5082 17.6498C34.2951 16.247 30.1639 15.5122 25.9672 15.5122C21.8361 15.5122 17.9672 16.247 14.7541 17.6498C14.5574 17.7166 14.2951 17.6498 14.1639 17.4494C14.0328 17.249 14.1639 16.9818 14.3607 16.8482C17.7049 15.4454 21.7049 14.7106 25.9016 14.6438C30.2295 14.6438 34.4262 15.3786 37.7705 16.8482C37.9672 16.915 38.0984 17.1822 37.9672 17.4494C37.9672 17.583 37.8361 17.6498 37.7049 17.6498Z" fill="black"/>
<path d="M7.40984 32.0788L7.27869 27.8036C7.27869 27.8036 7.21312 25.8664 6.55738 23.5283C6.16393 21.9919 5.2459 20.8563 4.19672 19.3867C3.67213 18.6519 3.01639 17.8503 2.36066 16.8483C0.524591 13.9758 0.262296 12.3058 0.524591 10.4354C0.721312 8.96579 1.31148 6.22696 3.34426 4.35654C5.11475 2.68652 8.26229 1.0165 11.4098 1.68451C12.7213 2.01851 13.7049 2.61972 14.2951 3.62173C15.2131 5.22495 14.8197 7.36257 14.4918 8.49818C14.2951 9.09939 14.0328 9.7674 13.7049 10.4354C13.1148 11.8382 12.459 13.3746 12.7213 14.577C13.0492 16.2471 14.8852 16.5143 14.9508 16.5143L16.1967 16.7147L15.082 17.3827C15.082 17.3827 12.3934 18.9191 10.8852 21.2571C8.72131 24.4636 8.19672 27.8704 8.13115 27.8704L7.40984 32.0788ZM9.2459 2.48612C7.27869 2.68652 5.2459 3.75533 3.93443 5.02454C2.09836 6.69456 1.57377 9.23299 1.37705 10.6358C1.18033 12.0386 1.18033 13.575 3.08197 16.4475C3.67213 17.3827 4.32787 18.1843 4.85246 18.9191C5.96721 20.3887 6.95082 21.6579 7.40984 23.3279C7.60656 24.1295 7.73771 24.7976 7.86885 25.4656C8.32787 24.1295 8.98361 22.4595 10.1639 20.7227C11.2787 19.0527 12.8525 17.7835 13.8361 17.1155C13.0492 16.7815 12.1311 16.1135 11.8689 14.7106C11.6066 13.1742 12.3279 11.5042 12.918 10.0346C13.1803 9.36659 13.4426 8.76538 13.6393 8.23098C13.9672 7.22897 14.2951 5.35855 13.5738 4.02253C13.1148 3.28773 12.3279 2.75332 11.2787 2.48612C10.623 2.41932 9.96721 2.41932 9.2459 2.48612Z" fill="black"/>
<path d="M3.34426 17.7835C3.14754 17.7835 2.95082 17.6499 2.88525 17.4495C2.7541 16.8483 2.88525 16.2471 3.27869 15.7127C4 14.7775 5.5082 14.2431 7.21312 14.1763C9.5082 14.1763 12.5902 15.1783 12.7213 15.2451C12.918 15.3119 13.0492 15.5791 12.9836 15.7795C12.918 15.9799 12.6557 16.1135 12.459 16.0467C12.459 16.0467 9.37705 15.0447 7.27869 15.0447C5.83607 15.0447 4.52459 15.5123 4 16.2471C3.73771 16.5811 3.67213 16.8483 3.67213 17.2491C3.73771 17.5163 3.60656 17.7167 3.34426 17.7835Z" fill="black"/>
<path opacity="0.68" d="M9.04918 13.8422C9.04918 13.8422 11.3443 10.7694 12.3279 7.89696C13.1148 5.69254 12.5246 3.88892 12.5246 3.88892C12.5246 3.88892 12.9836 4.22292 13.377 5.02453C13.7049 5.82614 13.7705 7.02855 13.377 8.03056C12.459 10.235 11.8689 11.4374 11.6066 12.1722C11.2131 13.241 11.3443 14.3098 11.3443 14.3098C11.3443 14.3098 10.6229 14.1094 10.4262 14.0426C10.0328 13.9758 9.04918 13.8422 9.04918 13.8422Z" fill="white"/>
<path d="M29.1148 30.4089C29.1148 31.2106 29.1147 32.2126 29.1803 33.4818C29.2459 35.0182 32.7869 39.093 35.2787 41.5647C36.1967 42.4331 36.5902 44.1031 36.9836 45.5727C36.9836 45.5727 42.2295 42.9007 43.6066 40.4959C44.7213 38.4918 44.5902 34.751 44.5246 30.9433C44.459 27.5365 43.6066 25.3321 43.6066 25.3321C41.5738 23.8625 40.5902 23.1945 39.1475 22.6601C37.7049 22.1257 32.9836 20.3888 31.3443 21.7916C30.3607 22.6601 29.9016 23.7957 29.6393 24.9981C29.6393 24.9981 29.1803 26.1337 26.9508 26.1337C24.7213 26.1337 24.3279 24.9313 24.3279 24.9313C24.0656 23.5285 23.6066 22.2593 22.4918 21.2572C20.8525 19.8544 16.1311 21.5244 14.6885 22.1925C12.3934 23.2613 10.2295 25.1317 7.60656 28.4717C7.60656 28.4717 6.88525 36.8886 7.93443 38.8926C10.0328 42.8339 16.5902 46.0403 16.5902 46.0403C16.5902 46.0403 16.5246 42.9007 17.3115 41.9655C19.8689 39.0262 24.6557 35.2186 24.8525 32.8806C24.918 31.8118 24.918 31.0101 24.918 30.2753C24.918 30.2753 24.5902 28.9393 27.0164 28.9393C28.6557 29.0729 29.1148 30.4089 29.1148 30.4089Z" fill="#41A5A2"/>
<path d="M36.7869 46.1071L36.5902 45.3723C36.1967 43.9694 35.8033 42.5666 35.082 41.8318C32.7213 39.5606 28.918 35.2185 28.8525 33.4817V32.9473C28.7869 31.9453 28.7869 31.2105 28.7869 30.4757C28.6557 30.2085 28.2623 29.4737 27.1475 29.4737C26.0984 29.4737 25.7049 29.7409 25.5738 29.9413C25.5082 30.0749 25.5082 30.2753 25.5082 30.2753V30.3421V30.4089C25.5082 31.2105 25.5082 32.0789 25.4426 33.0809C25.3115 34.8845 23.0164 37.089 20.5902 39.4938C19.6066 40.4958 18.5574 41.4978 17.7705 42.433C17.2459 43.0342 17.1148 45.105 17.1148 46.2407V46.9087L16.459 46.5747C16.1967 46.4411 9.77049 43.3014 7.60656 39.2934C6.55738 37.2226 7.21312 29.5405 7.27869 28.6053V28.4717L7.34426 28.3381C9.90164 25.1316 12.1311 23.1276 14.623 21.992C15.8689 21.3908 20.9836 19.4536 22.8852 21.1236C24.1967 22.2592 24.5902 23.7956 24.8525 24.998C24.918 25.1316 25.3771 25.8664 27.082 25.8664C28.7869 25.8664 29.2459 25.1316 29.3771 24.998C29.7049 23.4616 30.2951 22.3928 31.2131 21.5912C32.3934 20.5224 35.2131 20.7896 39.4098 22.3928C40.8525 22.9272 41.9672 23.662 43.9344 25.1316L44.0656 25.1984L44.1312 25.332C44.1967 25.3988 44.9836 27.6701 45.1148 31.0769V31.3441C45.2459 35.1517 45.3115 38.8258 44.1312 40.8298C42.6885 43.3014 37.5082 45.7063 37.3115 45.8399L36.7869 46.1071ZM26.4918 28.6721C26.6885 28.6721 26.8852 28.6721 27.082 28.6721C28.9836 28.6721 29.5738 30.0749 29.5738 30.1417V30.4089V30.4757C29.5738 31.1437 29.5738 31.9453 29.6393 32.9473V33.4817C29.7049 34.6841 32.7869 38.4918 35.6066 41.2306C36.5246 42.099 36.918 43.5018 37.3115 44.9714C38.623 44.2366 42.2295 42.1658 43.2787 40.2954C44.3279 38.4918 44.1967 34.8177 44.1312 31.2773V31.0101C44.0656 28.2045 43.4754 26.1336 43.2787 25.666C41.4426 24.33 40.3934 23.662 39.082 23.1276C33.9016 21.1904 32.2623 21.7248 31.7377 22.1924C30.9508 22.8604 30.4918 23.7956 30.1639 25.1984V25.2652C30.1639 25.332 29.5082 26.668 27.082 26.668C24.5902 26.668 24.0656 25.2652 24.0656 25.1984V25.1316C23.8033 23.5284 23.2787 22.4596 22.4262 21.7248C21.1148 20.5892 16.7213 21.992 15.082 22.7268C12.7213 23.8624 10.623 25.666 8.19672 28.7389C8 31.1437 7.67213 37.2894 8.45902 38.759C10.0984 41.8318 14.623 44.5038 16.2623 45.4391C16.2623 44.3702 16.459 42.5666 17.1148 41.765C17.9016 40.8298 18.9508 39.761 20 38.759C22.0984 36.6882 24.459 34.3501 24.5246 32.9473C24.5902 32.0121 24.5902 31.1437 24.5902 30.4089C24.5902 30.2085 24.5246 29.8077 24.8525 29.4069C25.1148 29.0061 25.7049 28.7389 26.4918 28.6721Z" fill="black"/>
<path d="M22.0437 32.8348C22.6809 29.4283 20.7751 26.1964 17.7868 25.6163C14.7986 25.0361 11.8595 27.3274 11.2222 30.734C10.585 34.1405 12.4908 37.3724 15.4791 37.9525C18.4673 38.5327 21.4064 36.2414 22.0437 32.8348Z" fill="white"/>
<path d="M16.9836 38.4251C16.459 38.4919 15.9344 38.4251 15.4098 38.3583C13.8361 38.0243 12.5246 37.0891 11.6721 35.6194C10.8197 34.1498 10.4918 32.413 10.8197 30.6762C11.4754 27.0689 14.6885 24.5973 17.8361 25.1985C19.4098 25.5325 20.7213 26.4677 21.5738 27.9374C22.4262 29.407 22.7541 31.1438 22.4262 32.8806C22.0984 34.6174 21.1803 36.1538 19.8689 37.2227C19.0164 37.9575 18.0328 38.3583 16.9836 38.4251ZM16.3934 26.0001C14.1639 26.2673 12.1311 28.2046 11.6721 30.8098C11.4098 32.3462 11.6721 33.8826 12.3934 35.1518C13.1148 36.421 14.2295 37.2227 15.6066 37.4899C16.918 37.7571 18.2951 37.4231 19.4098 36.4878C20.5902 35.6194 21.3771 34.2166 21.6393 32.6802C21.9016 31.1438 21.6393 29.6074 20.918 28.3382C20.1311 27.1357 19.0164 26.3341 17.7049 26.0669C17.2459 26.0001 16.8525 25.9333 16.3934 26.0001Z" fill="black"/>
<path d="M20.8067 32.6388C21.2948 30.0295 19.8448 27.556 17.5681 27.114C15.2913 26.672 13.0499 28.4289 12.5618 31.0382C12.0737 33.6475 13.5237 36.121 15.8004 36.563C18.0772 37.005 20.3186 35.2481 20.8067 32.6388Z" fill="white"/>
<path d="M16.9836 37.0222C16.5902 37.089 16.1311 37.0222 15.7377 36.9554C13.2459 36.4878 11.6066 33.749 12.1311 30.9433C12.3934 29.6073 13.1148 28.4049 14.0984 27.6033C15.1475 26.8017 16.3934 26.4677 17.5738 26.7349C18.8197 27.0021 19.8689 27.7369 20.5246 28.8725C21.1803 30.0081 21.4426 31.4109 21.1803 32.7469C20.918 34.083 20.1967 35.2854 19.2131 36.087C18.5574 36.6214 17.7705 36.9554 16.9836 37.0222ZM16.5246 27.5365C15.8689 27.6033 15.2131 27.8705 14.6885 28.3381C13.8361 29.0061 13.2459 30.0081 13.0492 31.1437C12.5902 33.4817 13.9016 35.753 15.9344 36.1538C16.918 36.3542 17.9016 36.087 18.7541 35.419C19.6066 34.751 20.1967 33.749 20.3934 32.6133C20.5902 31.4777 20.3934 30.2753 19.8689 29.3401C19.3443 28.4049 18.4918 27.8037 17.5082 27.6033C17.1803 27.4697 16.8525 27.4697 16.5246 27.5365Z" fill="black"/>
<path d="M18.388 31.9798C18.5025 30.9534 17.8661 30.037 16.9665 29.9328C16.0669 29.8287 15.2448 30.5763 15.1303 31.6027C15.0158 32.6291 15.6523 33.5456 16.5519 33.6497C17.4515 33.7539 18.2735 33.0062 18.388 31.9798Z" fill="#1A1A1A"/>
<path d="M16.918 34.0828C16.7869 34.0828 16.6557 34.0828 16.5246 34.0828C15.4098 33.9492 14.5574 32.8136 14.7541 31.5444C14.8197 30.9432 15.082 30.4088 15.541 30.008C16 29.6072 16.5246 29.4068 17.1148 29.4736C18.2295 29.6072 19.082 30.7428 18.8852 32.012C18.6885 33.1476 17.8361 34.016 16.918 34.0828ZM16.6557 30.4088C16.3934 30.4088 16.1967 30.5424 16 30.7428C15.7377 31.01 15.541 31.344 15.541 31.7448C15.4754 32.5464 15.9344 33.2144 16.5902 33.2812C17.2459 33.348 17.8361 32.7468 17.9672 32.012C18.0328 31.2104 17.5738 30.5424 16.918 30.4756C16.8525 30.342 16.7869 30.342 16.6557 30.4088Z" fill="black"/>
<path d="M37.9367 37.9466C40.942 37.4665 42.9508 34.3001 42.4235 30.8741C41.8962 27.4481 39.0324 25.06 36.0272 25.54C33.0219 26.02 31.0131 29.1865 31.5404 32.6125C32.0677 36.0385 34.9315 38.4266 37.9367 37.9466Z" fill="white"/>
<path d="M37.5082 38.425C36.0656 38.4918 34.7541 38.0242 33.5738 37.0889C32.2623 36.0201 31.4098 34.4837 31.1475 32.6801C30.623 29.0729 32.7869 25.666 36 25.1316C39.2131 24.5972 42.2951 27.2024 42.8852 30.8097C43.4754 34.4169 41.377 37.7569 38.2295 38.2914C38.2295 38.2914 38.0984 38.3582 37.9016 38.3582C37.7705 38.425 37.5738 38.425 37.5082 38.425ZM36.3279 26C36.2623 26 36.1967 26 36.0656 26C33.3115 26.4676 31.4754 29.4069 31.9344 32.5465C32.1967 34.0829 32.918 35.4857 34.0328 36.4209C35.1475 37.3561 36.459 37.7569 37.8361 37.5565C40.5902 37.0889 42.4262 34.1497 41.9672 31.0101C41.5082 27.8704 39.0164 25.666 36.3279 26Z" fill="black"/>
<path d="M37.77 36.4966C40.024 36.1366 41.5283 33.747 41.13 31.1593C40.7317 28.5716 38.5816 26.7657 36.3276 27.1257C34.0737 27.4857 32.5694 29.8753 32.9677 32.463C33.366 35.0508 35.516 36.8566 37.77 36.4966Z" fill="white"/>
<path d="M37.0492 36.8885C34.8197 36.8217 32.918 35.0181 32.5246 32.4796C32.3279 31.1436 32.5902 29.8076 33.2459 28.672C33.9672 27.5364 35.0164 26.8684 36.1967 26.668C38.6885 26.2672 41.0492 28.2044 41.5082 31.01C41.7049 32.346 41.4426 33.6821 40.7869 34.8177C40.1311 35.8197 39.2787 36.4877 38.2295 36.7549C38.1639 36.7549 37.9672 36.8217 37.7049 36.8885C37.4426 36.8885 37.1148 36.8885 37.0492 36.8885ZM36.5246 27.5364C36.459 27.5364 36.3934 27.5364 36.3279 27.5364C35.3443 27.67 34.4918 28.2712 33.9672 29.1396C33.377 30.0748 33.1803 31.2104 33.3115 32.346C33.6393 34.6841 35.6066 36.2873 37.6393 36.0201C38.623 35.8865 39.4754 35.2853 40 34.4169C40.5902 33.4816 40.7869 32.346 40.6557 31.2104C40.3279 28.9392 38.4918 27.336 36.5246 27.5364Z" fill="black"/>
<path d="M37.2672 33.9259C38.1617 33.783 38.7594 32.8399 38.6023 31.8194C38.4453 30.7989 37.5929 30.0875 36.6984 30.2303C35.804 30.3732 35.2063 31.3163 35.3633 32.3368C35.5204 33.3573 36.3728 34.0688 37.2672 33.9259Z" fill="#1A1A1A"/>
<path d="M37.2459 34.35C36.1311 34.4836 35.1475 33.6152 34.9508 32.4128C34.7541 31.1436 35.4754 29.9412 36.5902 29.8076C37.7049 29.6072 38.7541 30.4756 38.9508 31.7448C39.1475 33.014 38.3607 34.1496 37.2459 34.35C37.3115 34.35 37.2459 34.35 37.2459 34.35ZM36.7869 30.6092C36.0656 30.7428 35.6721 31.4776 35.7377 32.2124C35.8689 33.014 36.459 33.5484 37.1148 33.4148C37.7705 33.2812 38.2295 32.6132 38.0984 31.8116C38.0328 31.1436 37.4426 30.6092 36.7869 30.6092Z" fill="black"/>
</svg>
