<svg width="70" height="70" viewBox="0 0 70 70" fill="none" xmlns="http://www.w3.org/2000/svg">
<g filter="url(#filter0_d_4014_5319)">
<rect x="12.0343" y="5.4491" width="48.5382" height="48.5382" rx="12" transform="rotate(3 12.0343 5.4491)" fill="url(#paint0_linear_4014_5319)" shape-rendering="crispEdges"/>
<path d="M22.7026 30.3686C22.857 30.4975 23.0562 30.5599 23.2566 30.5419C23.4569 30.5239 23.6419 30.4271 23.7708 30.2727C24.4501 29.4594 25.3094 28.8155 26.2807 28.3918C27.252 27.9682 28.3086 27.7765 29.3668 27.832C30.425 27.8874 31.4558 28.1885 32.3774 28.7113C33.2991 29.2342 34.0864 29.9644 34.677 30.8443C34.7893 31.0111 34.9632 31.1265 35.1606 31.1651C35.3579 31.2037 35.5626 31.1623 35.7294 31.05C35.789 31.0109 35.8423 30.9629 35.8875 30.9077C36.5668 30.0944 37.4261 29.4505 38.3974 29.0268C39.3687 28.6032 40.4253 28.4115 41.4835 28.467C42.5417 28.5224 43.5724 28.8235 44.4941 29.3463C45.4158 29.8692 46.2031 30.5994 46.7936 31.4793C46.9059 31.6463 47.0799 31.7619 47.2774 31.8006C47.4749 31.8393 47.6797 31.798 47.8467 31.6857C48.0137 31.5735 48.1293 31.3994 48.168 31.202C48.2067 31.0045 48.1654 30.7997 48.0531 30.6327C47.1666 29.3056 45.9166 28.262 44.4527 27.6264C45.2805 27.0584 45.9095 26.2453 46.2513 25.3014C46.5931 24.3575 46.6306 23.3302 46.3585 22.3638C46.0864 21.3975 45.5183 20.5407 44.7341 19.9139C43.9499 19.2871 42.989 18.9217 41.9865 18.8692C40.9839 18.8166 39.9901 19.0795 39.1447 19.621C38.2993 20.1624 37.6447 20.9551 37.2731 21.8877C36.9014 22.8203 36.8313 23.8459 37.0726 24.8204C37.3139 25.7949 37.8545 26.6692 38.6184 27.3207C37.4006 27.7031 36.2881 28.3627 35.3682 29.2477C34.5455 28.2713 33.5076 27.4989 32.336 26.9914C33.1638 26.4234 33.7928 25.6103 34.1346 24.6664C34.4765 23.7225 34.514 22.6951 34.2418 21.7288C33.9697 20.7625 33.4016 19.9057 32.6174 19.2789C31.8332 18.6521 30.8723 18.2867 29.8698 18.2342C28.8672 18.1816 27.8734 18.4445 27.028 18.986C26.1826 19.5274 25.5281 20.3201 25.1564 21.2527C24.7848 22.1853 24.7147 23.2109 24.956 24.1854C25.1973 25.1598 25.7378 26.0342 26.5017 26.6857C24.979 27.1647 23.6267 28.0725 22.6067 29.3004C22.4777 29.4547 22.4154 29.654 22.4334 29.8543C22.4514 30.0547 22.5482 30.2397 22.7026 30.3686ZM41.9081 20.3884C42.5572 20.4224 43.1817 20.6482 43.7025 21.0371C44.2233 21.426 44.6171 21.9606 44.834 22.5733C45.051 23.186 45.0814 23.8493 44.9214 24.4793C44.7614 25.1093 44.4182 25.6777 43.9352 26.1126C43.4521 26.5476 42.851 26.8295 42.2077 26.9228C41.5644 27.016 40.9079 26.9165 40.3213 26.6366C39.7346 26.3568 39.2441 25.9093 38.9117 25.3507C38.5794 24.7921 38.4201 24.1475 38.4542 23.4983C38.4998 22.6279 38.8893 21.8113 39.537 21.228C40.1848 20.6448 41.0377 20.3428 41.9081 20.3884ZM29.7902 19.7533C30.4393 19.7874 31.0637 20.0131 31.5845 20.402C32.1053 20.7909 32.4991 21.3255 32.7161 21.9382C32.9331 22.5509 32.9635 23.2142 32.8035 23.8442C32.6435 24.4742 32.3003 25.0426 31.8172 25.4776C31.3342 25.9125 30.733 26.1944 30.0898 26.2877C29.4465 26.381 28.79 26.2814 28.2033 26.0016C27.6167 25.7217 27.1261 25.2742 26.7938 24.7156C26.4614 24.157 26.3022 23.5124 26.3362 22.8633C26.3819 21.9928 26.7714 21.1762 27.4191 20.593C28.0669 20.0097 28.9198 19.7077 29.7902 19.7533ZM43.7659 40.7542C44.5937 40.1862 45.2227 39.3731 45.5646 38.4292C45.9064 37.4853 45.9439 36.458 45.6718 35.4916C45.3996 34.5253 44.8315 33.6685 44.0473 33.0417C43.2632 32.4149 42.3023 32.0495 41.2997 31.997C40.2972 31.9445 39.3034 32.2074 38.4579 32.7488C37.6125 33.2902 36.958 34.0829 36.5863 35.0155C36.2147 35.9481 36.1446 36.9737 36.3859 37.9482C36.6272 38.9227 37.1678 39.7971 37.9316 40.4485C36.7134 40.8308 35.6005 41.4904 34.6802 42.3754C33.8575 41.399 32.8196 40.6267 31.648 40.1192C32.4758 39.5512 33.1048 38.7381 33.4466 37.7941C33.7885 36.8502 33.826 35.8229 33.5538 34.8566C33.2817 33.8902 32.7136 33.0335 31.9294 32.4066C31.1452 31.7798 30.1843 31.4145 29.1818 31.3619C28.1792 31.3094 27.1854 31.5723 26.34 32.1137C25.4946 32.6551 24.8401 33.4478 24.4684 34.3804C24.0968 35.313 24.0267 36.3386 24.268 37.3131C24.5093 38.2876 25.0498 39.162 25.8137 39.8134C24.291 40.2925 22.9387 41.2003 21.9187 42.4281C21.8548 42.5045 21.8067 42.5928 21.7769 42.6879C21.7472 42.7829 21.7365 42.8829 21.7454 42.9821C21.7543 43.0813 21.7826 43.1778 21.8288 43.266C21.875 43.3542 21.9381 43.4325 22.0146 43.4964C22.091 43.5602 22.1793 43.6084 22.2743 43.6381C22.3694 43.6678 22.4694 43.6786 22.5686 43.6697C22.6678 43.6607 22.7642 43.6324 22.8525 43.5862C22.9407 43.54 23.019 43.4769 23.0828 43.4005C23.7621 42.5872 24.6214 41.9432 25.5927 41.5196C26.564 41.0959 27.6206 40.9042 28.6788 40.9597C29.737 41.0152 30.7678 41.3162 31.6894 41.8391C32.6111 42.3619 33.3984 43.0922 33.989 43.972C34.1013 44.1388 34.2752 44.2542 34.4726 44.2928C34.67 44.3314 34.8746 44.29 35.0414 44.1778C35.101 44.1386 35.1543 44.0906 35.1995 44.0355C35.8788 43.2222 36.7381 42.5782 37.7094 42.1546C38.6807 41.7309 39.7373 41.5393 40.7955 41.5947C41.8537 41.6502 42.8844 41.9512 43.8061 42.4741C44.7278 42.9969 45.5151 43.7272 46.1056 44.607C46.2179 44.774 46.3919 44.8896 46.5894 44.9283C46.7869 44.9671 46.9917 44.9257 47.1587 44.8135C47.3257 44.7012 47.4413 44.5272 47.48 44.3297C47.5187 44.1322 47.4774 43.9275 47.3651 43.7604C46.4789 42.4336 45.2294 41.39 43.7659 40.7542ZM29.1022 32.8811C29.7513 32.9151 30.3757 33.1408 30.8965 33.5298C31.4174 33.9187 31.8111 34.4533 32.0281 35.066C32.2451 35.6787 32.2755 36.342 32.1155 36.972C31.9555 37.602 31.6123 38.1704 31.1292 38.6053C30.6462 39.0403 30.045 39.3222 29.4018 39.4155C28.7585 39.5087 28.102 39.4092 27.5153 39.1293C26.9287 38.8495 26.4381 38.402 26.1058 37.8434C25.7735 37.2847 25.6142 36.6401 25.6482 35.991C25.6939 35.1206 26.0834 34.304 26.7311 33.7207C27.3789 33.1375 28.2318 32.8355 29.1022 32.8811ZM41.2201 33.5162C41.8692 33.5502 42.4937 33.7759 43.0145 34.1648C43.5353 34.5537 43.9291 35.0883 44.146 35.7011C44.363 36.3138 44.3934 36.9771 44.2334 37.6071C44.0734 38.2371 43.7302 38.8055 43.2472 39.2404C42.7641 39.6753 42.163 39.9573 41.5197 40.0505C40.8764 40.1438 40.2199 40.0442 39.6333 39.7644C39.0466 39.4846 38.5561 39.037 38.2237 38.4784C37.8914 37.9198 37.7322 37.2752 37.7662 36.6261C37.8118 35.7557 38.2013 34.939 38.849 34.3558C39.4968 33.7726 40.3497 33.4705 41.2201 33.5162Z" fill="white"/>
</g>
<defs>
<filter id="filter0_d_4014_5319" x="-0.618121" y="-0.618183" width="71.2362" height="71.2362" filterUnits="userSpaceOnUse" color-interpolation-filters="sRGB">
<feFlood flood-opacity="0" result="BackgroundImageFix"/>
<feColorMatrix in="SourceAlpha" type="matrix" values="0 0 0 0 0 0 0 0 0 0 0 0 0 0 0 0 0 0 127 0" result="hardAlpha"/>
<feOffset dy="4"/>
<feGaussianBlur stdDeviation="5"/>
<feComposite in2="hardAlpha" operator="out"/>
<feColorMatrix type="matrix" values="0 0 0 0 0 0 0 0 0 0 0 0 0 0 0 0 0 0 0.12 0"/>
<feBlend mode="normal" in2="BackgroundImageFix" result="effect1_dropShadow_4014_5319"/>
<feBlend mode="normal" in="SourceGraphic" in2="effect1_dropShadow_4014_5319" result="shape"/>
</filter>
<linearGradient id="paint0_linear_4014_5319" x1="17.2258" y1="5.4491" x2="63.7162" y2="43.9127" gradientUnits="userSpaceOnUse">
<stop stop-color="#6A6CAD"/>
<stop offset="1" stop-color="#A696D5"/>
</linearGradient>
</defs>
</svg>
