<svg width="89" height="70" viewBox="0 0 89 70" fill="none" xmlns="http://www.w3.org/2000/svg">
<path d="M38.5537 28.339C37.8128 27.5828 36.9333 26.9829 35.9653 26.5736C34.9973 26.1643 33.9598 25.9537 32.912 25.9536H21.2756V47.6678H29.2536V34.0967H31.8109C32.516 34.0967 33.1953 34.3815 33.6933 34.8908L36.4492 37.7011C36.6967 37.953 36.8932 38.2523 37.0275 38.5817C37.1617 38.9111 37.2311 39.2643 37.2315 39.6211V47.6667H45.2095V38.4963C45.2081 36.3368 44.3666 34.2663 42.8699 32.7397L38.5537 28.339ZM79.7817 25.9536V34.0003C79.7817 34.7199 79.4983 35.4099 78.9982 35.9192L76.2413 38.7296C75.7426 39.2386 75.0663 39.5246 74.3611 39.5247H70.5288C71.3589 38.2132 71.8016 36.6854 71.8037 35.124V25.9536H63.8258V34.0003C63.8258 34.7199 63.5414 35.4099 63.0423 35.9192L60.2843 38.7296C59.7859 39.2383 59.11 39.5243 58.4052 39.5247H55.8467V25.9547H47.8688V47.6667H59.5073C61.6241 47.6667 63.6542 46.8087 65.1511 45.2813L67.8158 42.5629V47.6667H75.4643C77.5807 47.6664 79.6104 46.8084 81.107 45.2813L85.4212 40.8817C86.9182 39.355 87.7597 37.2839 87.7607 35.124V25.9536H79.7817ZM0 34.0967H5.31863V47.6667H13.2966V34.0967H18.6152V25.9536H0V34.0967Z" fill="#0D153A"/>
</svg>
