<svg width="244" height="60" viewBox="0 0 244 60" fill="none" xmlns="http://www.w3.org/2000/svg">
<path fill-rule="evenodd" clip-rule="evenodd" d="M43.1442 44.4816L42.2569 43.6704C42.5096 43.9901 42.636 44.2859 42.8887 44.5577C42.8887 44.5327 43.1442 44.5077 43.1442 44.4816Z" fill="url(#paint0_linear_4011_4278)"/>
<path fill-rule="evenodd" clip-rule="evenodd" d="M0 43.6758L0.443634 43.4182L0.887268 42.7886L0 43.6758Z" fill="url(#paint1_linear_4011_4278)"/>
<path fill-rule="evenodd" clip-rule="evenodd" d="M42.1041 44.1546C40.1254 39.679 36.6245 35.9945 32.2376 33.7224L31.4653 33.3464C31.0504 33.1386 30.5802 33.0215 30.082 33.0215C28.407 33.0215 27.0491 34.3465 27.0491 35.981C27.0491 37.3004 27.9335 38.4176 29.155 38.8001L30.2225 39.3618C33.9251 41.6776 36.5534 45.4858 37.2156 49.9165C37.2256 49.9847 37.3131 50.4656 37.3177 50.4917C39.9895 49.5687 42.0263 47.3085 42.2384 44.4653C42.23 44.4461 42.1484 44.255 42.1041 44.1546Z" fill="url(#paint2_linear_4011_4278)"/>
<path fill-rule="evenodd" clip-rule="evenodd" d="M4.94322 50.4612L4.95368 50.3938C5.48788 45.7516 8.17225 41.7442 12.0124 39.3423L13.08 38.7806C14.3015 38.3985 15.1858 37.2808 15.1858 35.9615C15.1858 34.327 13.828 33.002 12.153 33.002C11.6548 33.002 11.1846 33.1195 10.7696 33.3273L9.99738 33.7033C5.55313 36.0048 2.0179 39.7562 0.0538804 44.3115C0.0409086 44.3421 0.0162336 44.3996 0.0133057 44.4066C0.2438 47.2979 2.27935 49.5823 4.90683 50.4493L4.9495 50.4636L4.94322 50.4612Z" fill="url(#paint3_linear_4011_4278)"/>
<path fill-rule="evenodd" clip-rule="evenodd" d="M31.599 52.3747C31.6367 52.0412 31.6563 51.7028 31.6563 51.3595C31.6563 47.7815 29.5455 44.6844 26.4725 43.1896L25.8299 42.7854C24.3014 42.2197 23.1498 40.9052 22.8456 39.3009C22.7938 39.0258 22.4562 37.4701 22.5311 36.1904C22.6189 34.6922 23.0991 32.8418 23.1782 32.514C23.3439 31.8274 23.6275 31.1449 23.6885 31.0061C24.4164 29.359 26.0952 28.2058 28.0496 28.2058L29.1196 28.3793C34.0893 29.6839 38.503 32.312 41.9395 35.8524C42.0211 35.9369 42.1829 36.1067 42.1829 36.1067L42.0106 18.5357C42.0106 18.5357 42.0231 12.7125 41.2957 9.51949C40.4829 5.94968 38.4411 3.10852 38.4411 3.10852C37.3568 1.25198 35.3099 0 32.9632 0C29.4836 0 26.6628 2.75257 26.6628 6.14807C26.6628 8.01482 27.5154 9.68727 28.8611 10.8147C28.8611 10.8147 30.219 12.1292 30.3988 12.2831C31.5856 13.2991 32.3348 14.7903 32.3348 16.4517C32.3348 19.5137 29.7915 21.9961 26.6536 21.9961C26.3114 21.9961 15.6062 23.1431 15.1485 23.1431C13.6505 23.1431 12.4361 21.9577 12.4361 20.4959C12.4361 19.7509 12.8084 19.1288 13.2598 18.5965C13.7421 18.0274 14.2253 17.1718 14.6298 16.2003C14.8959 15.5598 15.1 14.8952 15.3029 14.1768C15.5451 13.3179 15.5271 12.1892 15.5271 12.1892C15.5271 8.7937 12.7064 6.04113 9.22678 6.04113C6.88042 6.04113 4.83316 7.29312 3.74887 9.15007C3.74887 9.15007 1.63008 11.9749 0.894248 15.5606C0.810588 15.9688 0.637819 16.5526 0.505625 17.2845C0.344985 18.1736 0.230785 19.1876 0.230785 19.1876L0.21154 20.1183L0.0621948 36.0859V36.0765C0.0621948 36.0765 0.144604 35.9895 0.186022 35.9463C3.63801 32.3487 8.09271 29.6786 13.1151 28.3601L14.1851 28.187C16.1395 28.187 17.8183 29.3398 18.5461 30.9869C18.6072 31.1257 18.8908 31.8082 19.0565 32.4949C19.1356 32.8227 19.6158 34.6731 19.7036 36.1712C19.7785 37.4514 19.4409 39.007 19.3886 39.2818C19.0849 40.886 17.9333 42.2005 16.4048 42.7663L15.7622 43.1704C12.6892 44.6653 10.5784 47.7624 10.5784 51.3403C10.5784 51.6836 10.5617 52.0282 10.6357 52.3555C10.6457 52.4009 10.6943 52.5486 10.6943 52.5486C14.3408 53.9104 18.2809 55.38 20.0404 55.749C20.2316 55.789 20.9578 55.9164 21.0837 55.8956C22.8181 55.6033 27.4606 53.9382 31.581 52.4723L31.599 52.3747Z" fill="url(#paint4_linear_4011_4278)"/>
<path fill-rule="evenodd" clip-rule="evenodd" d="M67.7039 22.2456H70.3991L79.644 36.8661H79.4411V22.2456H81.7013V40.0052H79.1801L69.6168 24.9039H69.9645V40.0052H67.7039V22.2456Z" fill="black"/>
<path fill-rule="evenodd" clip-rule="evenodd" d="M95.7574 40.0052V22.2456H98.0176V40.0052H95.7574Z" fill="black"/>
<path fill-rule="evenodd" clip-rule="evenodd" d="M112.043 22.2456H114.739L123.983 36.8661H123.78V22.2456H126.041V40.0052H123.52L113.956 24.9039H114.304V40.0052H112.043L112.043 22.2456Z" fill="black"/>
<path fill-rule="evenodd" clip-rule="evenodd" d="M137.401 39.1284V36.8379C138.087 37.2714 138.772 37.6062 139.458 37.8417C140.144 38.0777 140.811 38.1952 141.458 38.1952C142.472 38.1952 143.194 37.9034 143.624 37.3188C144.054 36.7342 144.269 35.9141 144.269 34.8581V22.2456H146.529V34.8581C146.529 36.1501 146.329 37.1984 145.928 38.0046C145.527 38.8104 144.957 39.4019 144.218 39.7791C143.479 40.1559 142.607 40.3445 141.603 40.3445C140.82 40.3445 140.084 40.2289 139.393 39.9983C138.702 39.7673 138.038 39.4774 137.401 39.1284H137.401Z" fill="black"/>
<path fill-rule="evenodd" clip-rule="evenodd" d="M157.817 40.0052L164.077 22.2456H166.83L172.945 40.0052H170.569L169.033 35.4521H161.788L160.194 40.0052H157.817ZM162.367 33.727H168.453L165.41 24.9321L162.367 33.727Z" fill="black"/>
<path fill-rule="evenodd" clip-rule="evenodd" d="M184.841 40.0052V22.2456H191.651C192.984 22.2456 194.09 22.4599 194.969 22.8889C195.848 23.318 196.505 23.8833 196.94 24.5859C197.375 25.288 197.592 26.0542 197.592 26.8833C197.592 27.9014 197.305 28.7852 196.73 29.5346C196.155 30.2841 195.293 30.7956 194.144 31.0687C194.887 31.1818 195.542 31.4389 196.107 31.8394C196.672 32.2403 197.114 32.7301 197.433 33.3102C197.752 33.8898 197.911 34.5095 197.911 35.1696C197.911 35.7729 197.807 36.362 197.599 36.9367C197.391 37.5119 197.046 38.0303 196.563 38.4924C196.08 38.9541 195.438 39.3219 194.636 39.5954C193.834 39.8689 192.839 40.0053 191.651 40.0053L184.841 40.0052ZM187.101 24.1401V30.1923H191.564C192.694 30.1923 193.595 29.9212 194.266 29.3791C194.938 28.837 195.274 28.0712 195.274 27.0813C195.274 26.1575 194.947 25.4366 194.296 24.9182C193.644 24.3998 192.743 24.1401 191.593 24.1401H187.101ZM187.101 38.0822H191.622C193.004 38.0822 193.996 37.7993 194.6 37.234C195.203 36.6682 195.506 35.9424 195.506 35.0562C195.506 34.1609 195.177 33.4421 194.52 32.9C193.863 32.3579 192.897 32.0868 191.622 32.0868H187.101L187.101 38.0822Z" fill="black"/>
<path fill-rule="evenodd" clip-rule="evenodd" d="M213.314 22.2456V38.0822H221.428V40.0053H211.054V22.2456L213.314 22.2456Z" fill="black"/>
<path fill-rule="evenodd" clip-rule="evenodd" d="M232.774 40.0052V22.2456H243.989V24.1401H235.034V30.1073H243.467V32.0019H235.034V38.0822H243.989V40.0053L232.774 40.0052Z" fill="black"/>
<defs>
<linearGradient id="paint0_linear_4011_4278" x1="249.967" y1="89.979" x2="-495.52" y2="-74.8778" gradientUnits="userSpaceOnUse">
<stop stop-color="#4CD4EC"/>
<stop offset="1" stop-color="#35B6F1"/>
</linearGradient>
<linearGradient id="paint1_linear_4011_4278" x1="13726.8" y1="4696.58" x2="-7168.97" y2="-2387.26" gradientUnits="userSpaceOnUse">
<stop stop-color="#4CD4EC"/>
<stop offset="1" stop-color="#35B6F1"/>
</linearGradient>
<linearGradient id="paint2_linear_4011_4278" x1="35.4823" y1="61.3384" x2="33.0206" y2="-0.552723" gradientUnits="userSpaceOnUse">
<stop stop-color="#4CD4EC"/>
<stop offset="1" stop-color="#35B6F1"/>
</linearGradient>
<linearGradient id="paint3_linear_4011_4278" x1="8.48278" y1="62.3607" x2="6.02112" y2="0.469536" gradientUnits="userSpaceOnUse">
<stop stop-color="#4CD4EC"/>
<stop offset="1" stop-color="#35B6F1"/>
</linearGradient>
<linearGradient id="paint4_linear_4011_4278" x1="22.4341" y1="61.8321" x2="19.9724" y2="-0.0589868" gradientUnits="userSpaceOnUse">
<stop stop-color="#4CD4EC"/>
<stop offset="1" stop-color="#35B6F1"/>
</linearGradient>
</defs>
</svg>
