<svg width="132" height="132" viewBox="0 0 132 132" fill="none" xmlns="http://www.w3.org/2000/svg">
<g filter="url(#filter0_d_4011_4907)">
<rect x="16" y="10" width="100" height="100" rx="50" fill="white" shape-rendering="crispEdges"/>
<rect x="16.5" y="10.5" width="99" height="99" rx="49.5" stroke="black" stroke-opacity="0.08" shape-rendering="crispEdges"/>
<path d="M81.0552 50.6209V43.5746C81.9864 43.1394 82.7748 42.4487 83.3287 41.5828C83.8826 40.717 84.1791 39.7116 84.1839 38.6838V38.5221C84.1839 35.5253 81.7545 33.0959 78.7579 33.0959H78.596C75.5992 33.0959 73.1698 35.5253 73.1698 38.5221V38.6838C73.1745 39.7116 73.4711 40.717 74.025 41.5828C74.5788 42.4487 75.3673 43.1394 76.2984 43.5746V50.6209C73.6222 51.0308 71.1017 52.1405 68.9923 53.8377L49.6674 38.7855C49.8052 38.2881 49.8771 37.7766 49.8852 37.2631C49.8876 36.0538 49.5312 34.871 48.8612 33.8642C48.1913 32.8575 47.2378 32.072 46.1213 31.6073C45.0049 31.1425 43.7757 31.0192 42.5892 31.2531C41.4028 31.487 40.3123 32.0676 39.4558 32.9213C38.5993 33.775 38.0153 34.8636 37.7775 36.0493C37.5398 37.235 37.659 38.4646 38.1202 39.5825C38.5813 40.7004 39.3637 41.6565 40.3683 42.3297C41.3728 43.003 42.5545 43.3631 43.7638 43.3647C44.8217 43.3597 45.8599 43.0773 46.7745 42.5456L65.804 57.3534C62.3054 62.6385 62.399 69.5264 66.0397 74.7148L60.2519 80.5042C59.7838 80.3548 59.2967 80.2752 58.8054 80.2685C56.0336 80.2709 53.7881 82.5188 53.7888 85.2907C53.7895 88.0623 56.0364 90.309 58.8081 90.3097C61.5799 90.3105 63.8278 88.0649 63.8302 85.2931C63.8237 84.802 63.7442 84.3146 63.5943 83.8469L69.3199 78.119C74.4359 82.0575 81.4624 82.3968 86.9342 78.9697C92.4058 75.5423 95.1672 69.072 93.8561 62.7502C92.5451 56.4283 87.4386 51.59 81.0552 50.6209ZM78.682 73.7956C77.6242 73.8241 76.5714 73.6403 75.5858 73.2552C74.6002 72.8701 73.7018 72.2913 72.9436 71.5532C72.1853 70.8151 71.5827 69.9326 71.1711 68.9577C70.7596 67.9828 70.5476 66.9354 70.5476 65.8772C70.5476 64.819 70.7596 63.7716 71.1711 62.7967C71.5827 61.8218 72.1853 60.9393 72.9436 60.2012C73.7018 59.4631 74.6002 58.8844 75.5858 58.4992C76.5714 58.1141 77.6242 57.9303 78.682 57.9588C82.9447 58.108 86.3238 61.6059 86.3262 65.8715C86.3281 70.1366 82.9526 73.638 78.6898 73.7916" fill="#FF7A59"/>
</g>
<defs>
<filter id="filter0_d_4011_4907" x="0" y="0" width="132" height="132" filterUnits="userSpaceOnUse" color-interpolation-filters="sRGB">
<feFlood flood-opacity="0" result="BackgroundImageFix"/>
<feColorMatrix in="SourceAlpha" type="matrix" values="0 0 0 0 0 0 0 0 0 0 0 0 0 0 0 0 0 0 127 0" result="hardAlpha"/>
<feOffset dy="6"/>
<feGaussianBlur stdDeviation="8"/>
<feComposite in2="hardAlpha" operator="out"/>
<feColorMatrix type="matrix" values="0 0 0 0 0.101754 0 0 0 0 0.290587 0 0 0 0 0.376953 0 0 0 0.16 0"/>
<feBlend mode="normal" in2="BackgroundImageFix" result="effect1_dropShadow_4011_4907"/>
<feBlend mode="normal" in="SourceGraphic" in2="effect1_dropShadow_4011_4907" result="shape"/>
</filter>
</defs>
</svg>
