<svg width="48" height="48" viewBox="0 0 48 48" fill="none" xmlns="http://www.w3.org/2000/svg">
<rect width="48" height="48" rx="12" fill="black" fill-opacity="0.15"/>
<path d="M25.4441 14.2225L25.4441 34.2225C25.4441 34.4214 25.3651 34.6122 25.2244 34.7529C25.0838 34.8935 24.893 34.9725 24.6941 34.9725C24.4952 34.9725 24.3044 34.8935 24.1638 34.7529C24.0231 34.6122 23.9441 34.4214 23.9441 34.2225L23.9441 15.5475L20.0804 17.865C19.9098 17.9675 19.7055 17.998 19.5125 17.9498C19.3194 17.9016 19.1534 17.7787 19.051 17.6082C18.9485 17.4376 18.9181 17.2333 18.9662 17.0403C19.0144 16.8472 19.1373 16.6812 19.3079 16.5788L24.3079 13.5788C24.4217 13.5104 24.5517 13.4734 24.6845 13.4717C24.8174 13.47 24.9482 13.5037 25.0638 13.5691C25.1794 13.6346 25.2755 13.7296 25.3423 13.8444C25.4091 13.9592 25.4443 14.0897 25.4441 14.2225Z" fill="white"/>
</svg>
