<svg width="244" height="56" viewBox="0 0 244 56" fill="none" xmlns="http://www.w3.org/2000/svg">
<path fill-rule="evenodd" clip-rule="evenodd" d="M43.1461 44.4836L42.2588 43.6724C42.5116 43.9921 42.6379 44.2879 42.8907 44.5597C42.8907 44.5347 43.1461 44.5097 43.1461 44.4836Z" fill="url(#paint0_linear_4011_5238)"/>
<path fill-rule="evenodd" clip-rule="evenodd" d="M0 43.6778L0.443654 43.4202L0.887308 42.7905L0 43.6778Z" fill="url(#paint1_linear_4011_5238)"/>
<path fill-rule="evenodd" clip-rule="evenodd" d="M42.106 44.1566C40.1273 39.6808 36.6262 35.9961 32.239 33.7239L31.4668 33.3479C31.0518 33.1402 30.5816 33.023 30.0833 33.023C28.4083 33.023 27.0504 34.3481 27.0504 35.9827C27.0504 37.3021 27.9347 38.4194 29.1563 38.8019L30.2239 39.3636C33.9266 41.6795 36.555 45.4879 37.2173 49.9188C37.2273 49.987 37.3148 50.4679 37.3194 50.494C39.9913 49.571 42.0282 47.3106 42.2403 44.4673C42.2319 44.4481 42.1503 44.2571 42.106 44.1566Z" fill="url(#paint2_linear_4011_5238)"/>
<path fill-rule="evenodd" clip-rule="evenodd" d="M4.94345 50.4635L4.95391 50.3961C5.48813 45.7537 8.17262 41.7461 12.013 39.3441L13.0806 38.7824C14.3021 38.4003 15.1865 37.2825 15.1865 35.9631C15.1865 34.3286 13.8286 33.0035 12.1535 33.0035C11.6553 33.0035 11.1851 33.121 10.7701 33.3288L9.99783 33.7048C5.55338 36.0064 2.01799 39.758 0.0538829 44.3135C0.0409104 44.3441 0.0162344 44.4017 0.0133063 44.4086C0.243811 47.3001 2.27946 49.5845 4.90705 50.4516L4.94972 50.4659L4.94345 50.4635Z" fill="url(#paint3_linear_4011_5238)"/>
<path fill-rule="evenodd" clip-rule="evenodd" d="M31.6005 52.3771C31.6381 52.0436 31.6578 51.7052 31.6578 51.3619C31.6578 47.7837 29.5468 44.6865 26.4737 43.1915L25.8311 42.7874C24.3025 42.2216 23.1508 40.9071 22.8467 39.3027C22.7948 39.0276 22.4572 37.4718 22.5321 36.192C22.6199 34.6938 23.1002 32.8433 23.1793 32.5155C23.3449 31.8289 23.6285 31.1463 23.6896 31.0075C24.4175 29.3603 26.0963 28.2071 28.0508 28.2071L29.1209 28.3806C34.0908 29.6853 38.5047 32.3134 41.9414 35.854C42.023 35.9385 42.1849 36.1084 42.1849 36.1084L42.0125 18.5365C42.0125 18.5365 42.0251 12.7131 41.2976 9.51992C40.4847 5.94995 38.4428 3.10867 38.4428 3.10867C37.3585 1.25204 35.3116 0 32.9647 0C29.4849 0 26.664 2.7527 26.664 6.14835C26.664 8.01519 27.5166 9.68771 28.8624 10.8152C28.8624 10.8152 30.2204 12.1297 30.4002 12.2836C31.5871 13.2997 32.3363 14.791 32.3363 16.4525C32.3363 19.5146 29.7928 21.9971 26.6548 21.9971C26.3126 21.9971 15.6069 23.1442 15.1492 23.1442C13.6511 23.1442 12.4367 21.9587 12.4367 20.4968C12.4367 19.7518 12.809 19.1297 13.2604 18.5973C13.7428 18.0283 14.226 17.1726 14.6305 16.201C14.8966 15.5605 15.1007 14.8959 15.3036 14.1774C15.5458 13.3185 15.5278 12.1898 15.5278 12.1898C15.5278 8.7941 12.707 6.04141 9.22721 6.04141C6.88074 6.04141 4.83338 7.29345 3.74904 9.15049C3.74904 9.15049 1.63015 11.9754 0.894289 15.5613C0.810625 15.9696 0.637848 16.5533 0.505648 17.2853C0.345001 18.1744 0.230795 19.1885 0.230795 19.1885L0.211549 20.1192L0.0621977 36.0875V36.0782C0.0621977 36.0782 0.144611 35.9912 0.18603 35.9479C3.63817 32.3502 8.09308 29.68 13.1157 28.3614L14.1858 28.1883C16.1403 28.1883 17.8191 29.3411 18.547 30.9883C18.6081 31.1271 18.8917 31.8097 19.0574 32.4963C19.1364 32.8242 19.6167 34.6746 19.7045 36.1729C19.7794 37.4531 19.4418 39.0088 19.3895 39.2836C19.0858 40.8879 17.9341 42.2024 16.4055 42.7682L15.7629 43.1724C12.6898 44.6673 10.5789 47.7645 10.5789 51.3427C10.5789 51.686 10.5621 52.0305 10.6362 52.3579C10.6462 52.4033 10.6948 52.551 10.6948 52.551C14.3414 53.9129 18.2818 55.3825 20.0413 55.7515C20.2325 55.7916 20.9587 55.9189 21.0847 55.8981C22.8191 55.6058 27.4618 53.9406 31.5825 52.4747L31.6005 52.3771Z" fill="url(#paint4_linear_4011_5238)"/>
<path fill-rule="evenodd" clip-rule="evenodd" d="M67.7069 22.2466H70.4023L79.6476 36.8678H79.4447V22.2466H81.705V40.0071H79.1837L69.62 24.905H69.9677V40.0071H67.7069V22.2466Z" fill="white"/>
<path fill-rule="evenodd" clip-rule="evenodd" d="M95.7618 40.0071V22.2466H98.0221V40.0071H95.7618Z" fill="white"/>
<path fill-rule="evenodd" clip-rule="evenodd" d="M112.048 22.2466H114.744L123.989 36.8678H123.786V22.2466H126.047V40.0071H123.525L113.961 24.905H114.309V40.0071H112.048L112.048 22.2466Z" fill="white"/>
<path fill-rule="evenodd" clip-rule="evenodd" d="M137.407 39.1302V36.8396C138.093 37.2732 138.779 37.6079 139.465 37.8435C140.15 38.0794 140.817 38.197 141.464 38.197C142.479 38.197 143.201 37.9051 143.631 37.3205C144.061 36.7359 144.276 35.9158 144.276 34.8597V22.2466H146.536V34.8597C146.536 36.1517 146.335 37.2001 145.935 38.0063C145.533 38.8122 144.964 39.4037 144.225 39.7809C143.486 40.1577 142.614 40.3463 141.609 40.3463C140.827 40.3463 140.09 40.2308 139.399 40.0001C138.709 39.7691 138.044 39.4792 137.407 39.1302H137.407Z" fill="white"/>
<path fill-rule="evenodd" clip-rule="evenodd" d="M157.825 40.0071L164.084 22.2466H166.838L172.953 40.0071H170.576L169.04 35.4537H161.795L160.201 40.0071H157.825ZM162.375 33.7286H168.461L165.418 24.9332L162.375 33.7286Z" fill="white"/>
<path fill-rule="evenodd" clip-rule="evenodd" d="M184.849 40.0071V22.2466H191.66C192.993 22.2466 194.099 22.4609 194.978 22.89C195.857 23.319 196.514 23.8844 196.949 24.587C197.384 25.2892 197.601 26.0554 197.601 26.8845C197.601 27.9026 197.314 28.7865 196.739 29.536C196.164 30.2855 195.302 30.797 194.152 31.0701C194.896 31.1832 195.551 31.4404 196.116 31.8408C196.681 32.2417 197.123 32.7316 197.442 33.3117C197.761 33.8914 197.92 34.5111 197.92 35.1712C197.92 35.7745 197.816 36.3636 197.608 36.9384C197.4 37.5136 197.055 38.0321 196.572 38.4942C196.089 38.9559 195.447 39.3237 194.645 39.5972C193.843 39.8707 192.848 40.0071 191.66 40.0071L184.849 40.0071ZM187.11 24.1412V30.1936H191.573C192.703 30.1936 193.604 29.9226 194.275 29.3805C194.947 28.8383 195.283 28.0725 195.283 27.0825C195.283 26.1587 194.956 25.4378 194.305 24.9193C193.652 24.4009 192.751 24.1412 191.602 24.1412H187.11ZM187.11 38.084H191.631C193.012 38.084 194.005 37.8011 194.609 37.2357C195.212 36.6699 195.514 35.944 195.514 35.0578C195.514 34.1625 195.186 33.4436 194.529 32.9015C193.872 32.3594 192.906 32.0883 191.631 32.0883H187.11L187.11 38.084Z" fill="white"/>
<path fill-rule="evenodd" clip-rule="evenodd" d="M213.323 22.2466V38.0839H221.438V40.0071H211.063V22.2466L213.323 22.2466Z" fill="white"/>
<path fill-rule="evenodd" clip-rule="evenodd" d="M232.784 40.0071V22.2466H244V24.1412H235.045V30.1087H243.478V32.0033H235.045V38.0839H244V40.0071L232.784 40.0071Z" fill="white"/>
<defs>
<linearGradient id="paint0_linear_4011_5238" x1="249.978" y1="89.9831" x2="-495.543" y2="-74.8812" gradientUnits="userSpaceOnUse">
<stop stop-color="#4CD4EC"/>
<stop offset="1" stop-color="#35B6F1"/>
</linearGradient>
<linearGradient id="paint1_linear_4011_5238" x1="13727.4" y1="4696.8" x2="-7169.29" y2="-2387.37" gradientUnits="userSpaceOnUse">
<stop stop-color="#4CD4EC"/>
<stop offset="1" stop-color="#35B6F1"/>
</linearGradient>
<linearGradient id="paint2_linear_4011_5238" x1="35.4839" y1="61.3412" x2="33.0221" y2="-0.552749" gradientUnits="userSpaceOnUse">
<stop stop-color="#4CD4EC"/>
<stop offset="1" stop-color="#35B6F1"/>
</linearGradient>
<linearGradient id="paint3_linear_4011_5238" x1="8.48317" y1="62.3635" x2="6.02139" y2="0.469557" gradientUnits="userSpaceOnUse">
<stop stop-color="#4CD4EC"/>
<stop offset="1" stop-color="#35B6F1"/>
</linearGradient>
<linearGradient id="paint4_linear_4011_5238" x1="22.4351" y1="61.835" x2="19.9733" y2="-0.0589895" gradientUnits="userSpaceOnUse">
<stop stop-color="#4CD4EC"/>
<stop offset="1" stop-color="#35B6F1"/>
</linearGradient>
</defs>
</svg>
