<svg width="48" height="48" viewBox="0 0 48 48" fill="none" xmlns="http://www.w3.org/2000/svg">
<rect width="48" height="48" rx="12" fill="black" fill-opacity="0.15"/>
<path d="M30.3553 26.934C30.3553 27.1329 30.2763 27.3237 30.1357 27.4643C29.995 27.605 29.8043 27.684 29.6053 27.684L27.3553 27.684L27.3553 33.934C27.3553 34.1329 27.2763 34.3237 27.1357 34.4643C26.995 34.605 26.8043 34.684 26.6053 34.684C26.4064 34.684 26.2157 34.605 26.075 34.4643C25.9344 34.3237 25.8553 34.1329 25.8553 33.934L25.8553 27.684L16.6053 27.684C16.4854 27.6839 16.3673 27.655 16.2609 27.5998C16.1544 27.5445 16.0628 27.4646 15.9936 27.3667C15.9244 27.2687 15.8797 27.1556 15.8633 27.0368C15.8468 26.918 15.8591 26.797 15.8991 26.684L20.8991 12.684C20.9718 12.5053 21.1106 12.3616 21.2866 12.2826C21.4625 12.2036 21.6622 12.1954 21.844 12.2598C22.0258 12.3242 22.1759 12.4561 22.263 12.6282C22.35 12.8003 22.3675 12.9994 22.3116 13.184L17.6691 26.184L25.8553 26.184L25.8553 19.934C25.8553 19.7351 25.9344 19.5443 26.075 19.4037C26.2157 19.263 26.4064 19.184 26.6053 19.184C26.8043 19.184 26.995 19.263 27.1357 19.4037C27.2763 19.5443 27.3553 19.7351 27.3553 19.934L27.3553 26.184L29.6053 26.184C29.8043 26.184 29.995 26.263 30.1357 26.4037C30.2763 26.5443 30.3553 26.7351 30.3553 26.934Z" fill="white"/>
</svg>
