<svg width="70" height="70" viewBox="0 0 70 70" fill="none" xmlns="http://www.w3.org/2000/svg">
<g filter="url(#filter0_d_4014_5315)">
<rect x="9.49398" y="7.98948" width="48.5382" height="48.5382" rx="12" transform="rotate(-3 9.49398 7.98948)" fill="url(#paint0_linear_4014_5315)" shape-rendering="crispEdges"/>
<path d="M44.3817 25.4252L40.0899 25.6502L39.9179 22.3682C39.8372 20.8282 39.148 19.3834 38.002 18.3515C36.856 17.3197 35.3471 16.7853 33.8071 16.866C32.2671 16.9467 30.8223 17.6359 29.7904 18.7819C28.7585 19.9279 28.2242 21.4369 28.3049 22.9768L28.4769 26.2588L24.1851 26.4837C23.7164 26.5083 23.2767 26.718 22.9627 27.0668C22.6486 27.4156 22.486 27.8748 22.5105 28.3435L23.2515 42.4811C23.276 42.9498 23.4858 43.3895 23.8345 43.7036C24.1833 44.0176 24.6426 44.1803 25.1113 44.1557L45.3078 43.0972C45.7765 43.0727 46.2163 42.8629 46.5303 42.5141C46.8443 42.1654 47.007 41.7061 46.9824 41.2374L46.2415 27.0998C46.2169 26.6311 46.0072 26.1914 45.6584 25.8774C45.3096 25.5633 44.8504 25.4007 44.3817 25.4252ZM29.8196 22.8975C29.76 21.7592 30.1549 20.6439 30.9176 19.7968C31.6803 18.9498 32.7482 18.4404 33.8865 18.3808C35.0247 18.3211 36.1401 18.7161 36.9871 19.4788C37.8341 20.2414 38.3435 21.3094 38.4032 22.4476L38.5752 25.7296L29.9916 26.1794L29.8196 22.8975ZM45.4677 41.3168C45.4712 41.3838 45.4479 41.4494 45.4031 41.4992C45.3582 41.549 45.2954 41.579 45.2284 41.5825L25.0319 42.6409C24.9649 42.6445 24.8993 42.6212 24.8495 42.5764C24.7997 42.5315 24.7697 42.4687 24.7662 42.4017L24.0253 28.2641C24.0218 28.1972 24.045 28.1316 24.0899 28.0817C24.1347 28.0319 24.1976 28.002 24.2645 27.9984L44.4611 26.94C44.528 26.9365 44.5936 26.9597 44.6435 27.0046C44.6933 27.0494 44.7232 27.1123 44.7267 27.1792L45.4677 41.3168ZM36.0088 34.7243C36.0218 34.974 35.9606 35.2219 35.8328 35.4368C35.705 35.6516 35.5163 35.8237 35.2906 35.9314C35.065 36.039 34.8125 36.0773 34.5651 36.0414C34.3177 36.0055 34.0865 35.8971 33.9007 35.7298C33.7149 35.5625 33.5829 35.3439 33.5213 35.1016C33.4598 34.8593 33.4715 34.6042 33.555 34.3685C33.6384 34.1329 33.7899 33.9273 33.9902 33.7777C34.1905 33.6281 34.4307 33.5413 34.6803 33.5282C35.0151 33.5106 35.3431 33.6268 35.5923 33.8511C35.8414 34.0754 35.9912 34.3895 36.0088 34.7243Z" fill="white"/>
</g>
<defs>
<filter id="filter0_d_4014_5315" x="-0.618152" y="-0.618183" width="71.2363" height="71.2362" filterUnits="userSpaceOnUse" color-interpolation-filters="sRGB">
<feFlood flood-opacity="0" result="BackgroundImageFix"/>
<feColorMatrix in="SourceAlpha" type="matrix" values="0 0 0 0 0 0 0 0 0 0 0 0 0 0 0 0 0 0 127 0" result="hardAlpha"/>
<feOffset dy="4"/>
<feGaussianBlur stdDeviation="5"/>
<feComposite in2="hardAlpha" operator="out"/>
<feColorMatrix type="matrix" values="0 0 0 0 0 0 0 0 0 0 0 0 0 0 0 0 0 0 0.12 0"/>
<feBlend mode="normal" in2="BackgroundImageFix" result="effect1_dropShadow_4014_5315"/>
<feBlend mode="normal" in="SourceGraphic" in2="effect1_dropShadow_4014_5315" result="shape"/>
</filter>
<linearGradient id="paint0_linear_4014_5315" x1="19.8535" y1="14.6635" x2="48.8489" y2="34.738" gradientUnits="userSpaceOnUse">
<stop stop-color="#D35148"/>
<stop offset="1" stop-color="#F7947A"/>
</linearGradient>
</defs>
</svg>
