<svg width="40" height="40" viewBox="0 0 40 40" fill="none" xmlns="http://www.w3.org/2000/svg">
<g clip-path="url(#clip0_4011_5260)">
<path d="M36.3636 0.0693359H3.63636C1.62727 0.0693359 0 1.69661 0 3.7057V36.433C0 38.4421 1.62727 40.0693 3.63636 40.0693H36.3636C38.3727 40.0693 40 38.4421 40 36.433V3.7057C40 1.69661 38.3727 0.0693359 36.3636 0.0693359ZM12.6436 32.7966H7.28V15.5384H12.6436V32.7966ZM9.90727 13.0712C8.17818 13.0712 6.78 11.6693 6.78 9.94388C6.78 8.21843 8.18 6.81843 9.90727 6.81843C11.6309 6.81843 13.0327 8.22024 13.0327 9.94388C13.0327 11.6693 11.6309 13.0712 9.90727 13.0712ZM32.7345 32.7966H27.3745V24.4039C27.3745 22.4021 27.3382 19.8275 24.5873 19.8275C21.7964 19.8275 21.3673 22.0075 21.3673 24.2584V32.7966H16.0073V15.5384H21.1527V17.8966H21.2255C21.9418 16.5402 23.6909 15.1093 26.3 15.1093C31.7309 15.1093 32.7345 18.6839 32.7345 23.3312V32.7966Z" fill="white"/>
</g>
<defs>
<clipPath id="clip0_4011_5260">
<rect width="40" height="40" fill="white"/>
</clipPath>
</defs>
</svg>
