<svg width="132" height="132" viewBox="0 0 132 132" fill="none" xmlns="http://www.w3.org/2000/svg">
<g filter="url(#filter0_d_4011_4889)">
<rect x="16" y="10" width="100" height="100" rx="50" fill="white" shape-rendering="crispEdges"/>
<rect x="16.5" y="10.5" width="99" height="99" rx="49.5" stroke="black" stroke-opacity="0.08" shape-rendering="crispEdges"/>
<path d="M90.5483 37.0488H64.7505C64.7505 40.1374 65.9774 43.0995 68.1614 45.2835C70.3454 47.4674 73.3074 48.6944 76.396 48.6944H81.1483V53.2828C81.1525 59.7086 86.3605 64.9168 92.7863 64.921V39.2868C92.7863 38.0511 91.7846 37.0488 90.5483 37.0488Z" fill="#2684FF"/>
<path d="M77.784 49.9023H51.9863C51.9903 56.3281 57.1983 61.5364 63.6243 61.5406H68.3766V66.1436C68.3848 72.5694 73.5963 77.7741 80.0221 77.7741V52.1407C80.0221 50.9047 79.02 49.9023 77.784 49.9023Z" fill="url(#paint0_linear_4011_4889)"/>
<path d="M65.0117 62.749H39.2139C39.2139 69.1807 44.4279 74.3946 50.8594 74.3946H55.6266V78.9828C55.6308 85.4027 60.8298 90.6086 67.2499 90.6208V64.9872C67.2499 63.7511 66.2478 62.749 65.0117 62.749Z" fill="url(#paint1_linear_4011_4889)"/>
</g>
<defs>
<filter id="filter0_d_4011_4889" x="0" y="0" width="132" height="132" filterUnits="userSpaceOnUse" color-interpolation-filters="sRGB">
<feFlood flood-opacity="0" result="BackgroundImageFix"/>
<feColorMatrix in="SourceAlpha" type="matrix" values="0 0 0 0 0 0 0 0 0 0 0 0 0 0 0 0 0 0 127 0" result="hardAlpha"/>
<feOffset dy="6"/>
<feGaussianBlur stdDeviation="8"/>
<feComposite in2="hardAlpha" operator="out"/>
<feColorMatrix type="matrix" values="0 0 0 0 0.101754 0 0 0 0 0.290587 0 0 0 0 0.376953 0 0 0 0.16 0"/>
<feBlend mode="normal" in2="BackgroundImageFix" result="effect1_dropShadow_4011_4889"/>
<feBlend mode="normal" in="SourceGraphic" in2="effect1_dropShadow_4011_4889" result="shape"/>
</filter>
<linearGradient id="paint0_linear_4011_4889" x1="7069.26" y1="62.7344" x2="4286.19" y2="3315.15" gradientUnits="userSpaceOnUse">
<stop offset="0.18" stop-color="#0052CC"/>
<stop offset="1" stop-color="#2684FF"/>
</linearGradient>
<linearGradient id="paint1_linear_4011_4889" x1="7245.09" y1="99.0131" x2="4025.8" y2="3646.38" gradientUnits="userSpaceOnUse">
<stop offset="0.18" stop-color="#0052CC"/>
<stop offset="1" stop-color="#2684FF"/>
</linearGradient>
</defs>
</svg>
