<svg width="70" height="70" viewBox="0 0 70 70" fill="none" xmlns="http://www.w3.org/2000/svg">
<g filter="url(#filter0_d_4014_5327)">
<rect x="9.49398" y="7.98948" width="48.5382" height="48.5382" rx="12" transform="rotate(-3 9.49398 7.98948)" fill="url(#paint0_linear_4014_5327)" shape-rendering="crispEdges"/>
<path d="M27.4654 23.8284C27.4071 23.6804 27.3038 23.5545 27.17 23.4685C27.0363 23.3825 26.8788 23.3406 26.72 23.349C26.5612 23.3573 26.409 23.4153 26.285 23.5149C26.161 23.6144 26.0714 23.7504 26.0289 23.9037L21.7736 39.3157C21.7415 39.4316 21.7375 39.5534 21.7618 39.6711C21.786 39.7888 21.8379 39.899 21.9132 39.9927C21.9884 40.0865 22.0849 40.161 22.1946 40.2101C22.3043 40.2592 22.4241 40.2815 22.5441 40.2753L32.6424 39.7461C32.7624 39.7397 32.8792 39.705 32.9831 39.6447C33.0871 39.5844 33.1752 39.5002 33.2403 39.3991C33.3053 39.2981 33.3454 39.183 33.3572 39.0634C33.3691 38.9438 33.3523 38.8231 33.3083 38.7112L27.4654 23.8284ZM23.5149 38.7055L26.8854 26.5042L31.5128 38.2864L23.5149 38.7055ZM44.7635 24.6812C44.6981 23.433 44.264 22.2321 43.5161 21.2305C42.7682 20.229 41.7401 19.4717 40.5618 19.0544C39.3835 18.6372 38.1079 18.5787 36.8964 18.8864C35.6848 19.1941 34.5918 19.8541 33.7554 20.783C32.9189 21.712 32.3768 22.8681 32.1974 24.1051C32.018 25.3422 32.2095 26.6046 32.7477 27.7329C33.2858 28.8611 34.1464 29.8044 35.2207 30.4435C36.2949 31.0826 37.5346 31.3889 38.7829 31.3234C40.456 31.2337 42.0253 30.4841 43.1465 29.2389C44.2677 27.9937 44.8492 26.3546 44.7635 24.6812ZM33.6554 25.2634C33.6057 24.3147 33.8384 23.3726 34.3241 22.5561C34.8099 21.7397 35.5268 21.0856 36.3842 20.6767C37.2417 20.2677 38.2012 20.1221 39.1413 20.2585C40.0815 20.3948 40.9601 20.8068 41.6661 21.4425C42.3721 22.0782 42.8737 22.9089 43.1076 23.8297C43.3414 24.7504 43.297 25.7199 42.9798 26.6154C42.6627 27.5109 42.0872 28.2922 41.326 28.8606C40.5648 29.429 39.6522 29.759 38.7035 29.8087C37.4313 29.8754 36.1848 29.4339 35.2381 28.5815C34.2914 27.7291 33.7221 26.5356 33.6554 25.2634ZM47.4987 33.3982L36.3906 33.9803C36.1897 33.9908 36.0013 34.0807 35.8667 34.2302C35.7321 34.3797 35.6624 34.5765 35.6729 34.7774L36.0434 41.8462C36.0539 42.047 36.1438 42.2355 36.2933 42.3701C36.4428 42.5047 36.6396 42.5744 36.8404 42.5638L47.9485 41.9817C48.1494 41.9712 48.3379 41.8813 48.4725 41.7318C48.6071 41.5823 48.6768 41.3855 48.6662 41.1846L48.2958 34.1158C48.2852 33.915 48.1953 33.7265 48.0459 33.5919C47.8964 33.4573 47.6996 33.3876 47.4987 33.3982ZM47.1118 40.5066L37.5184 41.0094L37.2274 35.4554L46.8207 34.9526L47.1118 40.5066Z" fill="white"/>
</g>
<defs>
<filter id="filter0_d_4014_5327" x="-0.618152" y="-0.618183" width="71.2363" height="71.2362" filterUnits="userSpaceOnUse" color-interpolation-filters="sRGB">
<feFlood flood-opacity="0" result="BackgroundImageFix"/>
<feColorMatrix in="SourceAlpha" type="matrix" values="0 0 0 0 0 0 0 0 0 0 0 0 0 0 0 0 0 0 127 0" result="hardAlpha"/>
<feOffset dy="4"/>
<feGaussianBlur stdDeviation="5"/>
<feComposite in2="hardAlpha" operator="out"/>
<feColorMatrix type="matrix" values="0 0 0 0 0 0 0 0 0 0 0 0 0 0 0 0 0 0 0.12 0"/>
<feBlend mode="normal" in2="BackgroundImageFix" result="effect1_dropShadow_4014_5327"/>
<feBlend mode="normal" in="SourceGraphic" in2="effect1_dropShadow_4014_5327" result="shape"/>
</filter>
<linearGradient id="paint0_linear_4014_5327" x1="13.1605" y1="19.6387" x2="43.765" y2="32.2438" gradientUnits="userSpaceOnUse">
<stop stop-color="#0B785E"/>
<stop offset="0.965" stop-color="#3AB99A"/>
</linearGradient>
</defs>
</svg>
