<svg width="254" height="70" viewBox="0 0 254 70" fill="none" xmlns="http://www.w3.org/2000/svg">
<path d="M8.26025 28.7104H10.6258L13.8832 38.0127C14.5425 39.9507 15.3181 42.1213 15.9773 44.1368H16.0549C16.7141 42.1988 17.5285 39.9895 18.1878 38.0902L21.6003 28.6716H23.1515L26.4865 37.8964C27.1845 39.8344 28.0377 42.16 28.6969 44.098H28.7745C29.395 42.16 30.2093 39.8732 30.8298 38.0515L34.0873 28.7104H36.3752L29.8991 47.1212H27.6887L24.4312 38.129C23.8883 36.5786 22.9576 34.0205 22.4147 32.3538H22.3371C21.7942 34.0205 20.8635 36.5399 20.2818 38.2065L17.0632 47.1212H14.7364L8.26025 28.7104ZM40.7961 36.6561H53.632C53.5157 31.6949 50.0255 30.2608 47.5824 30.2608C44.5189 30.2608 41.4165 32.3926 40.7961 36.6561ZM40.7185 38.5166C41.1063 42.8577 44.2086 45.5709 48.5519 45.5709C51.0338 45.5709 53.0503 44.6794 54.7178 43.4391V45.8422C53.0503 46.8887 50.6848 47.5476 48.3968 47.5476C42.735 47.5476 38.5469 43.6716 38.5469 37.9352C38.5469 32.2375 42.6575 28.3228 47.66 28.3228C52.1196 28.3228 55.8424 31.5011 55.8424 36.9662C55.8424 37.5089 55.8037 38.0902 55.7649 38.5166H40.7185ZM67.864 45.5709C72.3236 45.5709 75.1157 42.1212 75.1157 37.8189C75.1157 33.5166 72.3624 30.2608 68.1742 30.2608C65.9638 30.2608 63.9861 31.1523 62.5125 32.6251V44.1755C63.9861 44.9507 65.9638 45.5709 67.864 45.5709ZM60.3408 18.5166H62.5513V30.2995L62.6288 30.3383C63.9473 29.3306 65.8863 28.284 68.4845 28.284C73.4482 28.284 77.3649 32.1213 77.3649 37.7026C77.3649 43.284 73.487 47.5088 67.8252 47.5088C65.7311 47.5088 63.9861 46.9662 62.5125 46.2298L60.3796 46.6174V18.5166H60.3408ZM83.8799 41.1523C86.323 42.5864 89.1538 43.2065 90.8989 43.2065C92.4501 43.2065 93.342 42.8189 93.342 41.8112C93.342 40.4158 91.3255 40.5709 88.6497 39.8732C85.2759 39.0205 83.2594 37.6251 83.2594 34.6406C83.2982 30.8422 86.6332 28.7104 91.0928 28.7104C93.2257 28.7104 95.9014 29.1368 97.9567 30.1445V34.9119C95.5912 33.5554 92.7991 32.974 91.2091 32.974C89.7355 32.974 88.8824 33.4003 88.8824 34.253C88.8824 35.5709 90.8213 35.4546 93.4583 36.1135C96.8709 36.9662 98.965 38.2453 98.965 41.3461C98.9262 45.2995 95.5136 47.4313 90.8989 47.4313C88.766 47.4313 86.0127 47.005 83.8799 45.9585V41.1523ZM102.339 40.1833V29.1368H107.884V39.3306C107.884 40.6484 108.117 41.4236 108.582 41.9275C109.048 42.4701 109.784 42.7414 110.56 42.7414C111.956 42.7414 113.313 41.9662 114.205 41.1523V29.1755H119.751V47.1212H114.283V45.4546L114.205 45.4158C112.809 46.6174 111.064 47.5476 108.737 47.5476C106.643 47.5476 105.092 46.8112 104.084 45.7647C102.882 44.4856 102.339 42.8577 102.339 40.1833ZM174.042 30.3383C172.995 29.253 171.443 28.5554 169.427 28.5554C167.178 28.5554 165.045 29.4081 163.106 31.1135C162.059 29.3306 159.81 28.5554 157.91 28.5554C155.156 28.5554 152.907 29.9895 151.511 31.1523C151.317 30.8422 151.123 30.5709 150.852 30.3383C149.805 29.253 148.215 28.5554 146.237 28.5554C143.988 28.5554 141.855 29.4081 139.916 31.1135C138.869 29.3306 136.62 28.5554 134.719 28.5554C132.548 28.5554 130.686 29.4468 129.29 30.6096L129.174 30.5709V29.2143H123.745V47.0437H129.174V34.7957C130.144 34.0205 131.462 33.3228 132.742 33.3228C133.479 33.3228 134.099 33.5554 134.603 34.098C135.069 34.6019 135.224 35.3383 135.224 36.5399V47.0437H140.963V35.6484C140.963 35.3771 140.924 35.1058 140.885 34.8344C141.816 33.9817 143.135 33.3228 144.414 33.3228C145.151 33.3228 145.81 33.5554 146.314 34.098C146.741 34.5631 146.974 35.1833 146.974 36.5399V47.0437H146.935H152.48H152.403V34.7957C153.372 34.0205 154.691 33.3228 155.932 33.3228C156.669 33.3228 157.289 33.5554 157.793 34.098C158.259 34.6019 158.414 35.3383 158.414 36.5399V47.0437H163.843V35.6484C163.843 35.3771 163.959 35.1058 163.92 34.8344C164.851 33.9817 166.247 33.3228 167.527 33.3228C168.264 33.3228 169 33.5554 169.505 34.098C169.931 34.5631 170.241 35.1833 170.241 36.5399V47.0437H175.67V35.6484C175.632 33.0903 175.166 31.5011 174.042 30.3383ZM179.626 47.0825H185.171V29.1368H179.626V47.0825ZM191.105 40.3383V33.7492H188.196V29.1755H191.105V24.5244L196.65 23.5554V29.1755H201.381V33.7492H196.65V39.7569C196.65 41.5011 197.038 42.8189 198.744 42.8189C199.675 42.8189 200.683 42.4701 201.42 42.0825V46.5011C200.567 47.0437 198.938 47.4701 197.387 47.4701C195.564 47.4701 193.858 46.8887 192.733 45.6871C191.725 44.6794 191.105 43.1678 191.105 40.3383ZM224.222 23.943L221.895 27.9352L224.222 31.9662L226.51 28.0127L224.222 23.943ZM219.879 27.8965L219.22 26.7337L207.469 47.0437H215.419L219.801 39.5244L223.214 33.6716L219.879 27.8965ZM240.936 47.0437L229.186 26.6949L217.436 47.0437H240.936ZM182.418 20.5709C184.163 20.5709 185.598 21.9662 185.598 23.7104C185.598 25.4546 184.163 26.8499 182.418 26.8499C180.673 26.8499 179.238 25.4546 179.238 23.7104C179.238 21.9662 180.712 20.5709 182.418 20.5709Z" fill="#0D153A"/>
</svg>
