<svg width="132" height="132" viewBox="0 0 132 132" fill="none" xmlns="http://www.w3.org/2000/svg">
<g filter="url(#filter0_d_4011_4912)">
<rect x="16" y="10" width="100" height="100" rx="50" fill="white" shape-rendering="crispEdges"/>
<rect x="16.5" y="10.5" width="99" height="99" rx="49.5" stroke="black" stroke-opacity="0.08" shape-rendering="crispEdges"/>
<path d="M61.648 71.3142C61.6053 71.1009 61.584 70.8662 61.584 70.6102C61.584 70.3542 61.584 70.1196 61.584 69.9062C61.584 68.1142 61.84 66.5356 62.352 65.1702C62.9067 63.8049 63.568 62.5676 64.336 61.4582C65.1467 60.3062 66 59.2396 66.896 58.2582C67.8347 57.2769 68.688 56.2956 69.456 55.3142C70.2667 54.2902 70.928 53.2236 71.44 52.1142C71.9947 50.9622 72.272 49.6609 72.272 48.2102C72.272 46.2476 71.696 44.6476 70.544 43.4102C69.4347 42.1729 67.5573 41.5542 64.912 41.5542C63.376 41.5542 61.8187 41.8316 60.24 42.3862C58.6614 42.8982 57.296 43.5169 56.144 44.2422L54.416 40.2742C56.0373 39.2929 57.744 38.5249 59.536 37.9702C61.328 37.3729 63.5467 37.0742 66.192 37.0742C68.0694 37.0742 69.712 37.3516 71.12 37.9062C72.5707 38.4182 73.7653 39.1436 74.704 40.0822C75.6853 41.0209 76.4107 42.1302 76.88 43.4102C77.3493 44.6902 77.584 46.0556 77.584 47.5062C77.584 49.4262 77.2853 51.1116 76.688 52.5622C76.1333 53.9702 75.408 55.2716 74.512 56.4662C73.6587 57.6182 72.72 58.7062 71.696 59.7302C70.7147 60.7542 69.776 61.8422 68.88 62.9942C68.0267 64.1035 67.3014 65.3196 66.704 66.6422C66.1494 67.9649 65.872 69.5222 65.872 71.3142H61.648ZM60.368 79.6982C60.368 78.5462 60.688 77.6502 61.328 77.0102C62.0107 76.3276 62.9067 75.9862 64.016 75.9862C65.168 75.9862 66.0854 76.3276 66.768 77.0102C67.4507 77.6502 67.792 78.5462 67.792 79.6982C67.792 80.8076 67.4507 81.7036 66.768 82.3862C66.0854 83.0689 65.168 83.4102 64.016 83.4102C62.9067 83.4102 62.0107 83.0689 61.328 82.3862C60.688 81.7036 60.368 80.8076 60.368 79.6982Z" fill="#ABB7CA"/>
</g>
<defs>
<filter id="filter0_d_4011_4912" x="0" y="0" width="132" height="132" filterUnits="userSpaceOnUse" color-interpolation-filters="sRGB">
<feFlood flood-opacity="0" result="BackgroundImageFix"/>
<feColorMatrix in="SourceAlpha" type="matrix" values="0 0 0 0 0 0 0 0 0 0 0 0 0 0 0 0 0 0 127 0" result="hardAlpha"/>
<feOffset dy="6"/>
<feGaussianBlur stdDeviation="8"/>
<feComposite in2="hardAlpha" operator="out"/>
<feColorMatrix type="matrix" values="0 0 0 0 0.101754 0 0 0 0 0.290587 0 0 0 0 0.376953 0 0 0 0.16 0"/>
<feBlend mode="normal" in2="BackgroundImageFix" result="effect1_dropShadow_4011_4912"/>
<feBlend mode="normal" in="SourceGraphic" in2="effect1_dropShadow_4011_4912" result="shape"/>
</filter>
</defs>
</svg>
