<svg width="284" height="242" viewBox="0 0 284 242" fill="none" xmlns="http://www.w3.org/2000/svg">
<path d="M11.7319 175.013C7.29325 175.013 2.85458 174.15 1.49832 178.835C0.511955 181.917 2.97787 189.562 5.1972 191.904C9.26596 196.22 13.2114 196.836 22.0888 197.452C32.3223 198.192 49.707 198.439 49.707 198.439L45.7615 173.04C43.6655 172.917 40.8297 174.026 38.4871 172.177C35.2814 169.588 33.1854 166.875 32.5689 165.026C31.2127 161.08 30.2263 159.107 27.6371 159.107C26.6507 159.107 24.0615 159.107 23.445 161.697C22.3354 166.135 25.2944 168.724 25.0478 173.163C24.9246 174.396 23.8149 175.136 22.5819 175.136C18.1433 175.259 14.9376 175.136 11.7319 175.013Z" fill="#E3E8EE"/>
<path d="M49.5829 199.674C49.9528 199.674 50.3227 199.55 50.5693 199.304C50.8159 199.057 50.9392 198.687 50.8159 198.318L46.8704 172.919C46.7471 172.302 46.2539 171.932 45.7607 171.932C45.1443 171.932 44.4045 171.932 43.6647 172.055C42.0619 172.179 40.459 172.425 39.2261 171.439C35.8971 168.85 34.1709 166.261 33.6778 164.904C32.4448 161.452 31.3351 158.123 27.513 158.123C23.8141 158.123 22.5811 160.096 22.2113 161.699C21.5948 164.534 22.2113 166.63 22.8277 168.603C23.3209 170.083 23.8141 171.562 23.6908 173.288C23.6908 173.905 23.0743 174.152 22.4578 174.152C19.9919 174.152 17.8959 174.028 15.9232 174.028C14.4436 174.028 13.0874 173.905 11.7311 173.905C11.1146 173.905 10.4981 173.905 10.0049 173.905C6.18275 173.782 1.74411 173.658 0.264553 178.59C-0.845108 182.166 1.74412 190.18 4.21004 192.769C8.64869 197.578 13.3339 198.071 21.9646 198.811C32.0749 199.427 49.4596 199.674 49.5829 199.674ZM44.6511 174.398L48.2267 197.208C43.788 197.085 30.4721 196.961 22.0879 196.221C13.0873 195.605 9.63505 194.989 5.93617 191.043C4.08673 189.07 1.7441 181.796 2.60717 179.207C3.47024 176.248 5.6896 176.124 9.88166 176.248C10.4981 176.248 11.1146 176.248 11.7311 176.248C13.0874 176.248 14.4436 176.248 15.7998 176.371C17.7726 176.494 19.9919 176.494 22.4578 176.494C24.4306 176.494 26.0334 175.138 26.1567 173.288C26.28 171.069 25.6635 169.22 25.1703 167.617C24.5539 165.767 24.0607 164.165 24.5539 161.945C24.8005 160.712 25.6635 160.342 27.513 160.342C29.2391 160.342 29.8556 161.205 31.3351 165.398C32.1982 167.74 34.5408 170.699 37.6232 173.042C39.596 174.645 41.9386 174.398 43.788 174.152C44.1579 174.398 44.4045 174.398 44.6511 174.398Z" fill="black"/>
<path d="M102.107 160.6C102.107 160.6 86.5721 165.778 75.9687 168.367C66.8448 170.463 38.4867 172.313 38.4867 172.313C38.4867 172.313 38.2401 180.327 37.5004 184.642C36.514 189.821 34.1714 198.205 34.1714 198.205C34.1714 198.205 44.6515 199.438 46.8709 199.684C53.8987 200.424 68.6942 201.164 74.9823 206.589C79.9142 210.904 77.8181 220.768 77.8181 220.768" fill="#E3E8EE"/>
<path d="M78.9273 220.892C79.0506 220.522 81.1466 210.288 75.7216 205.48C69.8034 200.301 57.1039 199.192 49.4595 198.575C48.5965 198.452 47.7334 198.452 46.9936 198.329C45.2675 198.205 38.6095 197.342 35.7737 196.972C36.5135 194.383 37.993 188.712 38.7328 184.766C39.3493 181.437 39.5959 175.766 39.7192 173.423C45.1442 173.053 68.0772 171.45 76.2148 169.477C86.8182 167.012 102.354 161.833 102.477 161.71L101.737 159.367C101.614 159.367 86.0785 164.546 75.7216 167.012C66.721 169.108 38.7328 170.834 38.4862 170.957L37.3766 171.08V172.19C37.3766 172.313 37.13 180.204 36.3902 184.273C35.4038 189.328 33.0612 197.589 33.0612 197.712L32.6913 199.068L34.1709 199.192C34.5407 199.192 44.7743 200.425 46.9936 200.671C47.7334 200.795 48.5965 200.795 49.4595 200.918C56.8573 201.534 69.0636 202.644 74.3653 207.206C78.6807 211.028 76.8313 220.152 76.8313 220.152L78.9273 220.892Z" fill="black"/>
<path d="M109.135 150.47C109.135 150.47 90.6405 176.239 86.2018 188.322C78.4342 209.528 75.3518 224.898 75.3518 224.898C75.3518 224.898 107.162 226.624 113.204 224.898C118.875 223.295 143.904 227.9 143.904 227.9L198.771 226.05C198.771 226.05 194.456 172.54 190.757 170.074C187.181 167.608 156.604 174.512 143.411 172.047C130.218 169.581 109.135 150.47 109.135 150.47Z" fill="#E3E8EE"/>
<path d="M73.3798 226.497H75.2289C76.4619 226.25 110.245 227.73 116.286 226.003C121.588 224.524 141.685 229.868 144.028 229.252L200.004 227.402L199.881 226.169C198.525 209.894 195.073 171.796 191.374 169.207C189.401 167.85 183.729 168.467 172.879 169.7C162.892 170.809 150.563 172.289 143.535 170.933C130.712 168.59 110.245 149.726 109.998 149.603L109.012 148.616L108.149 149.726C107.409 150.836 89.408 175.741 84.9693 187.824C77.2017 208.908 73.7494 224.647 73.6261 225.017L73.3798 226.497ZM197.292 224.936L143.535 226.786H143.412C143.165 226.909 121.095 222.058 115.547 223.661C110.492 225.14 82.9967 223.661 76.3386 223.661C77.5716 215.77 80.5307 206.935 87.3119 188.687C91.1341 178.331 105.806 157.37 109.382 152.315C113.821 156.261 131.205 171.179 143.165 173.399C150.563 174.755 162.646 173.399 173.249 172.166C180.154 171.303 188.784 170.316 190.141 171.179C191.867 173.275 195.196 199.907 197.292 224.936Z" fill="black"/>
<path d="M209.99 195.127L223.799 189.086L229.964 204.128L219.853 209.553" fill="#E3E8EE"/>
<path d="M220.346 210.658L231.566 204.74L224.415 187.479L209.496 194.013L210.483 196.356L223.059 190.808L228.484 203.63L219.237 208.439L220.346 210.658Z" fill="black"/>
<path d="M238.472 185.006C238.472 185.006 268.68 171.197 272.009 169.717C274.351 168.607 280.023 166.635 282.366 171.69C284.708 177.115 276.201 180.69 273.242 182.047C265.351 185.622 242.171 195.486 242.171 195.486" fill="#8D919B"/>
<path d="M242.541 196.594C242.787 196.47 265.844 186.607 273.611 183.031L273.858 182.908C277.187 181.428 286.064 177.359 283.228 171.071C282.365 169.222 281.132 167.989 279.529 167.372C276.57 166.263 273.118 167.496 271.269 168.359C268.063 169.838 238.102 183.524 237.732 183.647L238.718 185.867C238.965 185.743 269.049 172.058 272.255 170.578C273.365 169.962 276.447 168.852 278.666 169.592C279.653 169.962 280.392 170.701 281.009 171.934C282.612 175.633 277.063 178.592 272.871 180.565L272.625 180.688C264.857 184.264 241.801 194.128 241.554 194.128L242.541 196.594Z" fill="black"/>
<path d="M174.976 200.288C174.976 200.288 153.276 201.768 140.947 205.837C140.947 205.837 142.426 209.535 144.399 215.207C146.248 220.632 147.851 229.263 147.851 229.263C153.153 228.03 162.647 228.77 165.113 228.893C171.894 229.263 193.224 232.345 201.731 231.605C211.965 230.742 224.911 223.714 220.226 211.631C215.541 199.548 191.621 172.177 191.621 172.177" fill="#E3E8EE"/>
<path d="M198.894 232.964C200.004 232.964 200.99 232.964 201.853 232.841C208.511 232.347 216.895 229.142 220.594 223.224C222.813 219.648 223.06 215.579 221.457 211.264C216.772 199.181 193.716 172.549 192.729 171.439C192.236 170.946 191.496 170.823 191.003 171.316C190.51 171.809 190.387 172.549 190.88 173.042C191.126 173.289 214.676 200.414 219.238 212.127C220.594 215.702 220.471 219.031 218.621 221.867C215.416 227.046 207.895 229.881 201.853 230.375C196.305 230.868 185.208 229.635 176.331 228.649C171.769 228.155 167.823 227.785 165.481 227.662C165.234 227.662 164.741 227.662 164.248 227.539C160.796 227.292 153.891 226.922 149.083 227.662C148.589 225.073 147.356 218.908 145.877 214.593C144.644 210.894 143.534 207.935 142.918 206.455C155.124 202.88 175.221 201.4 175.345 201.4C176.084 201.4 176.578 200.784 176.454 200.044C176.454 199.304 175.838 198.811 175.098 198.934C174.235 199.058 153.028 200.537 140.822 204.483C140.452 204.606 140.205 204.852 140.082 205.099C139.959 205.469 139.959 205.715 140.082 206.085C140.082 206.085 141.561 209.784 143.534 215.333C145.384 220.634 146.863 229.142 146.863 229.265C146.863 229.635 147.11 229.881 147.356 230.128C147.603 230.375 147.973 230.375 148.343 230.251C152.781 229.265 160.672 229.758 164.125 229.881C164.618 229.881 164.988 229.881 165.358 230.005C167.577 230.128 171.522 230.498 176.084 230.991C183.482 231.978 192.729 232.964 198.894 232.964Z" fill="black"/>
<path d="M236.5 178.961C234.527 174.892 230.828 173.413 226.019 175.385C220.718 177.605 221.211 182.66 222.074 184.879C223.184 187.592 230.828 206.949 232.801 209.662C235.39 213.36 239.459 213.237 242.541 212.004C245.377 210.895 247.473 207.566 246.363 204.237C243.651 195.483 239.459 185.126 236.5 178.961Z" fill="#8D919B"/>
<path d="M238.843 213.979C240.322 213.979 241.678 213.732 242.911 213.239C246.117 212.006 248.83 208.061 247.473 203.992C244.884 195.731 240.815 185.251 237.486 178.47C235.144 173.661 230.705 172.181 225.403 174.277C219.362 176.743 219.732 182.538 220.841 185.374C222.321 189.073 229.719 207.567 231.691 210.403C233.664 212.992 236.377 213.979 238.843 213.979ZM235.39 179.579C238.596 186.114 242.665 196.471 245.254 204.732C246.117 207.444 244.268 210.157 242.172 211.02C240.569 211.636 236.5 212.746 233.911 209.047C232.308 206.828 226.266 192.032 223.307 184.511C223.061 183.895 221.211 178.839 226.513 176.62C230.582 174.894 233.541 175.88 235.39 179.579Z" fill="black"/>
<path d="M96.6801 104.117C96.6801 104.117 100.132 79.2112 96.0636 69.1009C91.9948 58.8674 88.2959 48.8804 87.9261 45.798C86.9397 37.4139 110.243 33.715 115.791 39.7565C121.339 45.9213 125.038 57.6344 128.984 59.7304C131.203 60.8401 146.122 58.1276 158.328 59.114C176.329 60.5935 202.961 71.0737 208.633 76.8686C214.304 82.6635 224.538 68.6077 225.401 67.0049C226.264 65.402 244.635 73.5396 250.43 77.9782C252.156 79.3345 254.869 82.9101 251.663 86.1158C241.429 96.1027 230.703 106.829 229.716 115.337C229.47 117.926 226.017 125.077 223.675 124.337C218.99 122.735 212.948 109.419 205.92 105.35C195.193 98.9385 96.6801 104.117 96.6801 104.117Z" fill="#E3E8EE"/>
<path d="M220.593 74.8951C220.593 74.8951 222.566 71.5661 221.949 65.278C221.333 57.757 218.251 46.7836 219.73 40.1257C222.319 28.0427 232.183 25.2069 241.06 29.2756C249.938 33.3444 262.267 41.7285 263.254 53.195C263.747 58.6201 264.487 66.3877 262.637 72.0593C260.541 78.4707 255.609 83.7724 254.13 85.0054C254.13 85.0054 246.979 75.6349 240.814 75.0184C234.772 74.5252 220.593 74.8951 220.593 74.8951Z" fill="#6CBFC3"/>
<path d="M91.5036 111.522C91.5036 111.522 98.9013 80.8212 118.999 71.0808C138.356 61.587 151.055 64.1762 170.043 68.1217C189.277 72.1904 203.456 77.7387 212.334 89.945C222.197 103.384 223.8 112.755 224.786 121.879C226.266 135.565 221.334 147.401 218.252 151.963C216.279 154.799 202.593 157.881 198.771 158.991C187.551 162.073 144.398 156.278 125.163 147.771C105.929 139.263 92.4899 132.975 90.6405 125.578C88.791 118.18 91.5036 111.522 91.5036 111.522Z" fill="#BCBFC6"/>
<g opacity="0.68">
<path d="M250.678 75.8978C250.678 75.8978 257.706 67.637 257.953 59.2529C258.2 51.9784 254.994 42.3613 254.994 42.3613C254.994 42.3613 260.296 49.5125 261.529 55.8006C262.885 62.9517 261.898 68.7467 259.309 73.8018C256.843 78.487 254.377 79.8433 254.377 79.8433C254.377 79.8433 253.884 78.8569 253.268 78.1171C252.528 77.1308 250.678 75.8978 250.678 75.8978Z" fill="#E3E8EE"/>
</g>
<path d="M121.589 52.0872C121.589 52.0872 122.575 47.5252 124.301 42.9633C127.014 35.9354 135.028 27.6746 136.507 21.1399C139.097 9.05687 130.836 3.26197 120.972 3.13867C111.108 3.13867 96.4362 5.48129 90.7646 15.5916C88.052 20.2768 84.1066 27.0581 83.4901 32.9763C82.627 39.6343 86.9424 47.5252 87.6822 49.2514C87.6822 49.2514 95.8197 42.2235 105.19 44.8127C111.232 46.4155 121.589 52.0872 121.589 52.0872Z" fill="#6CBFC3"/>
<path d="M90.269 120.279C90.269 120.279 102.105 131.129 111.599 132.485C117.024 133.225 131.573 130.019 137.491 124.101C143.41 118.183 142.3 114.73 148.835 109.675C155.369 104.62 161.534 106.346 165.603 107.333C169.672 108.319 175.097 110.045 177.439 116.457C179.782 122.868 177.562 135.074 183.481 140.376C187.18 143.705 195.194 150.486 202.468 151.103C209.743 151.719 218.743 150.24 218.743 150.24C218.743 150.24 220.223 158.624 215.044 163.802C209.866 168.981 195.07 174.282 185.207 176.995C175.343 179.707 159.191 184.269 145.506 182.05C131.82 179.831 117.024 165.035 113.079 161.583C109.133 158.254 94.3377 141.979 91.2553 134.951C88.1729 127.923 90.269 120.279 90.269 120.279Z" fill="#4D8787"/>
<path d="M151.547 184.624C158.205 184.624 167.206 183.637 176.576 180.802C180.028 179.692 183.604 178.706 187.056 177.719C201.359 173.651 213.565 170.198 218.25 161.198C220.716 156.389 224.415 139.498 229.223 115.701L226.757 115.208C222.689 135.675 218.497 155.279 215.907 160.088C211.715 168.225 199.879 171.554 186.193 175.377C182.741 176.363 179.165 177.349 175.713 178.459C161.534 182.898 148.095 182.528 143.779 181.665C138.971 180.678 126.888 173.897 117.024 164.033C114.435 161.444 111.722 158.855 109.133 156.389C98.7763 146.525 89.899 138.141 90.0223 129.017C90.1456 118.044 93.5979 105.838 95.324 99.3031L95.8172 97.7002C96.3104 96.0974 96.9268 93.878 97.6666 91.1655C98.1598 89.3161 98.7763 87.3434 99.3928 85.2473L97.0502 84.6309C96.4337 86.7269 95.8172 88.6996 95.324 90.549C94.5842 93.1383 93.9678 95.4809 93.4746 97.0837L93.1047 98.6866C91.2552 105.345 87.803 117.797 87.6797 129.017C87.5564 139.251 96.8036 148.005 107.53 158.239C110.12 160.704 112.709 163.17 115.298 165.76C126.148 176.363 138.478 183.021 143.409 184.007C145.259 184.377 148.095 184.624 151.547 184.624Z" fill="black"/>
<path d="M209.622 152.584C213.321 152.584 217.02 152.214 220.719 151.474L220.225 149.008C216.65 149.748 213.074 150.118 209.499 150.118C199.635 150.118 186.442 144.693 182.497 135.939C181.51 133.72 181.264 130.637 180.894 127.432C180.154 119.171 179.291 109.061 165.605 105.732C150.81 102.156 145.385 110.54 141.069 117.198C139.343 119.911 137.74 122.376 135.768 123.733C127.383 129.651 112.095 132.733 104.081 128.171C98.409 124.842 92.4907 119.048 90.8879 117.321L89.1618 119.047C90.8879 120.774 96.9294 126.938 102.848 130.391C111.848 135.569 128.247 132.24 137.247 125.829C139.59 124.103 141.316 121.39 143.165 118.554C147.481 111.896 151.919 104.868 164.989 108.074C176.948 110.91 177.688 119.417 178.428 127.678C178.798 131.131 179.044 134.336 180.154 136.925C184.593 146.666 198.525 152.461 209.375 152.584C209.499 152.584 209.622 152.584 209.622 152.584Z" fill="black"/>
<path d="M226.883 129.525L228.979 121.264C228.979 121.14 230.705 114.482 234.651 106.838C237.24 101.783 241.309 98.454 246.364 94.1387C248.83 92.0426 251.666 89.5767 254.748 86.6176C263.379 78.1102 265.475 72.3153 265.968 65.6573C266.338 60.3556 266.215 50.3686 260.543 42.3544C255.118 34.71 244.761 26.9424 234.034 26.9424H233.911C228.979 26.9424 225.157 28.4219 222.445 31.381C218.006 36.3129 217.883 43.9572 218.253 48.1493C218.499 50.3686 218.992 52.8345 219.486 55.4237C220.595 60.9721 221.828 66.767 219.979 71.0823C217.513 76.8772 210.485 76.5073 210.238 76.5073L206.786 76.2607L209.375 78.6034C209.499 78.7267 217.759 86.6176 221.458 95.3716C225.897 106.345 226.637 120.894 226.637 121.017L226.883 129.525ZM234.034 29.4083C244.021 29.4083 253.515 36.5595 258.57 43.7106C263.872 51.1084 263.995 60.4789 263.502 65.4107C263.132 70.3425 262.023 75.8909 253.022 84.7682C250.063 87.604 247.35 90.0699 244.761 92.1659C239.706 96.4813 235.267 100.18 232.432 105.605C230.705 108.934 229.349 112.14 228.363 114.606C227.746 109.181 226.39 101.167 223.554 94.2619C220.842 87.604 215.663 81.5625 212.828 78.6034C215.787 78.2335 220.102 76.7539 222.075 71.8221C224.171 66.767 222.938 60.3556 221.705 54.8073C221.212 52.3413 220.718 49.9987 220.472 47.9027C220.102 44.2038 220.225 37.2992 224.047 33.1072C226.513 30.7646 229.719 29.5316 234.034 29.4083C233.911 29.4083 233.911 29.4083 234.034 29.4083Z" fill="black"/>
<path d="M251.297 89.0859C251.667 89.0859 252.161 88.8394 252.407 88.4695C253.887 86.0035 254.133 83.6609 253.27 81.4416C251.421 77.2495 245.626 75.1535 240.941 74.0438C232.803 72.1944 219.61 73.4274 219.117 73.5507C218.501 73.674 217.884 74.1671 218.008 74.9069C218.131 75.5234 218.624 76.1399 219.364 76.0166C219.487 76.0166 232.68 74.7836 240.447 76.5098C246.119 77.7427 249.941 79.9621 251.051 82.428C251.667 83.7842 251.421 85.3871 250.311 87.1132C249.941 87.7297 250.188 88.4695 250.681 88.8394C250.928 89.0859 251.051 89.0859 251.297 89.0859Z" fill="black"/>
<path d="M211.346 79.3451C211.716 79.3451 212.086 79.2218 212.332 78.8519C212.702 78.3587 212.579 77.4956 212.086 77.1258C201.359 69.4814 186.933 63.4399 171.521 59.9876C156.479 56.6586 141.56 56.1655 128.738 58.3848C128.121 58.5081 127.628 59.1246 127.751 59.8643C127.875 60.4808 128.491 60.974 129.231 60.8507C141.807 58.6314 156.233 59.1246 171.028 62.4535C186.07 65.7825 200.126 71.7007 210.606 79.2218C210.853 79.2218 211.099 79.3451 211.346 79.3451Z" fill="black"/>
<path d="M92.8606 102.646L97.4226 91.4262C97.4226 91.3029 102.231 79.8363 112.465 70.2192C119.739 63.3147 130.589 60.109 130.712 59.9857L134.288 58.876L130.836 57.6431C130.589 57.5198 124.054 55.0539 124.178 48.6425C124.301 43.9572 127.753 39.272 131.206 34.71C132.809 32.614 134.288 30.6413 135.398 28.6685C137.494 25.0929 140.576 18.0651 138.603 11.777C137.37 7.95481 134.535 4.99571 130.096 2.89968C120.232 -1.66227 107.656 1.05024 99.5186 5.73548C91.0112 10.6673 86.6958 19.7912 84.8464 24.7231C82.5038 31.0112 82.0106 37.0527 86.3259 48.3959C87.8055 52.218 89.4083 55.6703 90.7646 58.6294C93.6004 64.6709 95.8197 69.4795 96.0663 75.1511C96.5595 83.7818 95.2032 90.5631 95.2032 90.6864L92.8606 102.646ZM127.26 58.6294C123.438 60.109 116.287 63.3147 110.739 68.3698C104.944 73.9181 100.752 79.8363 98.2856 84.1517C98.4089 81.5625 98.5322 78.3568 98.4089 74.9045C98.0391 68.7397 95.6964 63.5613 92.8606 57.5198C91.5044 54.5607 89.9015 51.2317 88.422 47.4095C83.86 35.6964 85.2163 30.1481 86.9424 25.4628C88.6686 20.7776 92.7373 12.3935 100.505 7.83152C108.149 3.39287 119.862 0.926943 128.863 5.119C132.685 6.84515 135.028 9.31107 136.014 12.5168C137.74 17.9418 134.905 24.2299 133.055 27.4356C132.069 29.285 130.589 31.2577 129.11 33.2305C125.657 37.9157 121.835 43.0942 121.589 48.6425C121.589 53.9442 124.794 57.0266 127.26 58.6294Z" fill="black"/>
<path d="M123.067 53.8244C123.437 53.8244 123.931 53.5778 124.177 53.2079C124.547 52.5914 124.3 51.8516 123.807 51.4817C123.437 51.2352 113.327 45.1937 105.19 43.4675C99.0248 42.1113 93.3532 42.9743 90.1475 45.5635C88.4213 46.9198 87.5582 48.8925 87.5582 50.9886C87.5582 51.605 88.1747 52.2215 88.7912 52.2215C89.531 52.2215 90.0242 51.605 90.0242 50.9886C90.0242 49.509 90.5174 48.3994 91.7503 47.413C94.3395 45.317 99.3947 44.7005 104.696 45.8101C112.464 47.413 122.451 53.4545 122.574 53.4545C122.574 53.7011 122.821 53.8244 123.067 53.8244Z" fill="black"/>
<g opacity="0.68">
<path d="M112.093 43.2071C112.093 43.2071 122.573 34.3298 128.368 25.0826C132.807 18.0547 132.067 11.2734 132.067 11.2734C132.067 11.2734 133.423 12.753 134.163 15.9587C134.779 19.0411 134.04 23.3564 131.82 26.4388C126.888 33.4667 123.806 37.0423 122.326 39.5082C120.107 42.9605 119.737 46.7827 119.737 46.7827C119.737 46.7827 117.395 45.4264 116.655 45.1798C115.299 44.5633 112.093 43.2071 112.093 43.2071Z" fill="#E3E8EE"/>
</g>
<path d="M170.537 117.438C169.797 120.274 169.304 123.726 168.441 128.165C167.454 133.466 176.825 150.605 183.853 161.208C186.442 165.03 186.565 171.072 186.812 176.743C186.812 176.743 207.525 171.442 214.307 164.167C219.855 158.126 222.444 144.81 225.033 131.494C227.376 119.534 226.143 111.15 226.143 111.15C220.102 104.369 217.019 101.286 212.457 98.3271C207.772 95.2447 192.113 85.381 185.332 89.0799C181.14 91.2992 178.674 94.9981 176.701 99.0668C176.701 99.0668 174.112 102.642 166.221 100.916C158.33 99.1901 157.714 94.7515 157.714 94.7515C157.96 89.6964 157.344 84.7645 154.138 80.4491C149.453 74.2844 131.205 76.3804 125.657 77.6133C116.656 79.5861 107.409 84.2713 95.4494 93.7651C95.4494 93.7651 86.2022 122.616 88.2982 130.507C92.6136 146.043 113.451 162.564 113.451 162.564C113.451 162.564 115.67 151.468 119.369 148.878C130.835 140.494 150.933 131.247 153.398 123.233C154.508 119.657 155.248 116.698 155.741 114.109C155.741 114.109 155.618 109.177 164.125 111.15C169.92 112.136 170.537 117.438 170.537 117.438Z" fill="#6CBFC3"/>
<path d="M185.824 178L187.304 177.63C188.167 177.384 208.511 172.549 215.416 165.028C221.087 158.986 223.553 146.163 226.266 132.724L226.512 131.738C228.855 119.655 227.745 111.271 227.622 110.901V110.531L227.375 110.284C221.334 103.626 218.128 100.297 213.443 97.2149C199.634 88.3376 190.14 85.1319 185.085 87.8444C181.263 89.9404 178.303 93.2694 176.084 98.2012C175.714 98.6944 173.248 100.914 166.96 99.5575C160.672 98.2012 159.562 94.9955 159.439 94.5024C159.562 90.187 159.316 84.5154 155.617 79.5835C150.315 72.5557 130.465 75.2682 125.903 76.2546C116.162 78.3506 106.669 83.529 95.0787 92.6529L94.8321 92.8995L94.7088 93.2694C94.3389 94.5024 85.3383 122.614 87.5576 130.628C91.873 146.41 112.217 162.685 113.08 163.301L114.683 164.534L115.053 162.562C115.669 159.603 117.765 151.465 120.478 149.616C124.053 147.026 128.492 144.314 132.931 141.601C143.287 135.313 153.151 129.272 155 123.23C155.987 119.901 156.85 116.819 157.343 113.983V113.86V113.737C157.343 113.737 157.343 112.873 158.083 112.38C159.193 111.517 161.412 111.394 164.248 112.01C168.44 112.873 169.426 116.326 169.549 117.189C168.933 119.655 168.44 122.367 167.823 125.943L167.453 127.792C166.344 133.957 176.454 151.835 183.112 161.822C185.331 165.151 185.578 170.576 185.824 175.754V178ZM225.156 111.64C225.402 113.367 226.019 121.011 224.046 131.245L223.8 132.231C221.334 144.807 218.744 157.753 213.566 163.301C208.141 169.096 192.852 173.782 188.044 175.138C187.797 169.836 187.427 164.288 184.961 160.589C176.947 148.629 168.933 132.847 169.673 128.409L170.043 126.559C170.659 122.984 171.152 120.148 171.769 117.805V117.559V117.312C171.522 115.216 169.673 110.901 164.494 109.791C160.672 108.928 157.836 109.298 156.233 110.654C154.877 111.764 154.631 113.367 154.631 113.86C154.137 116.572 153.398 119.531 152.288 122.86C150.685 127.916 140.821 133.957 131.328 139.752C126.889 142.464 122.327 145.177 118.752 147.889C115.669 150.109 113.696 156.89 112.833 160.342C108.025 156.274 93.1059 142.711 89.6537 130.135C88.0508 124.093 94.0923 102.763 96.6815 94.5024C107.778 85.7483 116.902 80.8165 126.149 78.8438C131.698 77.6108 149.329 75.7614 153.398 81.3097C155.987 84.762 156.973 88.8307 156.727 94.7489V94.8722V94.9955C156.727 95.2421 157.59 100.297 166.22 102.27C174.728 104.119 177.81 100.051 177.934 99.9274L178.057 99.6808C180.153 94.9955 182.619 92.1597 186.071 90.3103C188.414 89.0773 194.948 88.5841 211.963 99.5575C216.402 102.27 219.484 105.352 225.156 111.64Z" fill="black"/>
<path d="M116.077 132.851C105.894 128.435 101.659 115.587 106.617 104.155C111.576 92.7233 123.85 87.0361 134.033 91.4525C144.215 95.869 148.45 108.717 143.492 120.149C138.534 131.581 126.259 137.268 116.077 132.851Z" fill="#E3E8EE"/>
<path d="M123.19 135.559C131.821 135.559 140.452 129.887 144.52 120.64C146.986 114.845 147.356 108.557 145.507 102.885C143.657 97.0903 139.712 92.7749 134.41 90.4323C123.683 85.7471 110.614 91.6653 105.435 103.748C100.257 115.708 104.819 129.271 115.546 133.956C118.012 135.065 120.601 135.559 123.19 135.559ZM126.642 91.2954C128.862 91.2954 131.204 91.7886 133.424 92.6517C137.986 94.6244 141.438 98.5698 143.164 103.625C144.89 108.803 144.52 114.475 142.301 119.653C137.616 130.38 126.149 135.805 116.532 131.613C107.038 127.421 103.093 115.338 107.655 104.611C111.354 96.3505 118.998 91.2954 126.642 91.2954Z" fill="black"/>
<path d="M118.348 128.082C110.602 124.723 107.375 114.96 111.141 106.276C114.907 97.5932 124.24 93.2776 131.986 96.6373C139.733 99.9971 142.959 109.76 139.193 118.443C135.427 127.127 126.094 131.442 118.348 128.082Z" fill="#E3E8EE"/>
<path d="M123.932 130.506C126.275 130.506 128.617 130.013 130.837 128.903C135.029 126.93 138.481 123.355 140.454 118.916C142.426 114.477 142.673 109.545 141.193 105.107C139.714 100.668 136.631 97.2158 132.563 95.4897C124.179 91.9141 114.068 96.4761 110 105.847C105.931 115.217 109.506 125.697 117.89 129.273C119.74 130.136 121.836 130.506 123.932 130.506ZM126.521 96.7226C128.247 96.7226 129.973 97.0925 131.576 97.709C135.029 99.1886 137.618 102.148 138.851 105.847C140.084 109.669 139.837 113.984 138.234 117.93C136.508 121.875 133.549 124.957 129.85 126.684C126.275 128.41 122.329 128.41 118.877 126.93C111.726 123.848 108.767 114.724 112.342 106.71C114.931 100.545 120.726 96.7226 126.521 96.7226Z" fill="black"/>
<path d="M196.182 150.939C185.106 150.214 176.787 139.545 177.601 127.11C178.415 114.675 188.054 105.182 199.131 105.907C210.207 106.633 218.525 117.301 217.711 129.736C216.897 142.172 207.258 151.664 196.182 150.939Z" fill="#E3E8EE"/>
<path d="M197.293 152.204C208.513 152.204 218.007 142.463 218.87 129.887C219.733 116.818 210.856 105.598 199.142 104.858C193.471 104.488 187.922 106.584 183.607 110.9C179.292 115.092 176.703 120.887 176.333 127.175C175.963 133.463 177.689 139.504 181.388 144.313C185.087 149.121 190.265 151.957 196.06 152.327C196.43 152.08 196.923 152.204 197.293 152.204ZM216.404 129.641C215.664 141.354 206.54 150.354 196.183 149.615C191.128 149.245 186.69 146.779 183.361 142.587C180.032 138.395 178.429 132.846 178.799 127.175C179.168 121.503 181.511 116.201 185.333 112.502C189.155 108.804 193.964 106.831 199.019 107.201C209.376 107.817 217.144 117.927 216.404 129.641Z" fill="black"/>
<path d="M196.55 145.391C188.259 144.848 182.033 136.862 182.643 127.552C183.252 118.243 190.467 111.136 198.757 111.679C207.047 112.222 213.273 120.209 212.664 129.518C212.054 138.828 204.84 145.934 196.55 145.391Z" fill="#E3E8EE"/>
<path d="M197.417 146.654C205.924 146.654 213.322 139.256 213.939 129.639C214.309 124.831 212.829 120.145 209.993 116.57C207.157 112.871 203.212 110.775 198.773 110.405C189.773 109.788 182.005 117.433 181.265 127.42C180.895 132.228 182.375 136.914 185.211 140.489C188.047 144.188 191.992 146.284 196.431 146.654C196.801 146.654 197.17 146.654 197.417 146.654ZM197.91 112.748C198.157 112.748 198.403 112.748 198.773 112.748C202.472 112.994 205.801 114.844 208.144 117.926C210.61 121.008 211.843 125.077 211.473 129.269C210.856 137.9 204.198 144.558 196.677 144.065C192.978 143.818 189.649 141.969 187.307 138.886C184.841 135.804 183.608 131.735 183.978 127.543C184.348 119.282 190.636 112.748 197.91 112.748Z" fill="black"/>
<path d="M95.0786 95.1265C95.0786 95.1265 91.6263 91.0578 86.078 78.4816C82.6257 70.5906 81.7627 62.9463 81.7627 62.9463L69.8029 71.2071C69.8029 71.2071 79.7899 86.3725 82.8723 89.8248C87.6808 95.2498 93.8457 99.3186 93.8457 99.3186L95.0786 95.1265Z" fill="#6CBFC3"/>
<path d="M93.9706 100.556C94.0939 100.556 94.2172 100.556 94.3405 100.433C94.7104 100.309 94.957 99.9394 95.0803 99.5695L96.1899 95.3775C96.3132 95.0076 96.1899 94.5144 95.9433 94.2678C95.9433 94.2678 92.491 90.0758 87.1893 77.8695C83.8603 70.2251 82.9973 62.7041 82.9973 62.7041C82.9973 62.3342 82.6274 61.841 82.2575 61.7177C81.8876 61.5944 81.3944 61.5944 81.0245 61.841L69.0648 70.1018C68.5716 70.4717 68.325 71.2115 68.6949 71.828C69.0648 72.4444 78.8052 87.1167 81.8876 90.5689C86.6961 95.994 92.8609 100.186 93.1075 100.309C93.4774 100.433 93.724 100.556 93.9706 100.556ZM93.724 95.3775L93.2308 97.2269C91.1348 95.7474 87.1893 92.5417 83.8603 88.8428C81.3944 86.007 73.8734 74.7871 71.5307 71.3348L80.9012 64.8001C81.3944 67.6359 82.5041 73.0609 84.97 78.7325C89.4086 89.2127 92.6143 93.8979 93.724 95.3775Z" fill="black"/>
<path d="M67.5861 67.123C64.3804 60.9582 63.1474 55.4099 61.298 42.4639L32.8166 48.6287C32.8166 48.6287 35.4059 66.9997 47.7355 78.8362C56.2429 86.9737 65.2435 92.7686 69.8054 95.3578C77.2032 99.5499 92.3686 103.742 92.3686 103.742L93.8481 99.18C93.8481 99.18 86.4504 93.6317 79.0526 84.8777C74.2441 79.3293 69.6821 71.4384 67.5861 67.123Z" fill="#6CBFC3"/>
<path d="M92.4925 105.099C92.9857 105.099 93.4789 104.729 93.7255 104.236L95.205 99.6737C95.3283 99.1805 95.205 98.564 94.7119 98.3174C94.5886 98.3174 87.3141 92.7691 80.0397 84.1384C75.601 78.96 71.1623 71.4389 68.6964 66.6304C65.7373 60.8355 64.3811 55.6571 62.5316 42.3411C62.5316 41.9712 62.285 41.7246 62.0384 41.478C61.7919 41.2314 61.422 41.2314 61.0521 41.2314L32.5707 47.3962C31.9543 47.5195 31.461 48.136 31.5843 48.7525C31.7076 49.4923 34.4202 67.7401 46.8731 79.6998C56.4901 88.8237 66.3538 94.8652 69.1896 96.468C76.7107 100.783 91.5062 104.852 92.1226 104.975C92.2459 105.099 92.3692 105.099 92.4925 105.099ZM92.4925 99.6737L91.6295 102.263C88.0539 101.153 76.4641 97.701 70.4226 94.2487C67.7101 92.6458 57.9697 86.8509 48.5992 77.8503C38.3656 68.11 35.0366 53.561 34.1736 49.4923L60.189 43.944C61.7919 55.2872 63.1481 61.2054 66.4771 67.6168C69.0663 72.5486 73.6283 80.3162 78.1902 85.618C84.355 93.139 90.3965 98.0709 92.4925 99.6737Z" fill="black"/>
<path d="M141.932 205.596C141.932 205.596 127.876 208.308 122.204 212.624C117.766 216.076 114.437 222.734 113.697 225.816C112.957 228.775 112.464 233.214 114.437 235.557C115.67 237.036 120.725 238.392 123.191 236.543C126.643 233.83 132.561 227.419 132.561 227.419C132.561 227.419 127.999 232.598 127.013 234.324C126.273 235.433 125.164 239.009 128.123 239.749C131.082 240.488 133.548 238.639 137.247 236.296C141.069 234.077 149.083 228.159 149.083 228.159C149.083 228.159 147.234 219.528 146.37 216.939C144.644 211.76 141.932 205.596 141.932 205.596Z" fill="#E3E8EE"/>
<path d="M129.356 241.101C131.698 241.101 133.794 239.868 136.26 238.265C136.754 237.895 137.247 237.649 137.863 237.279C141.685 235.06 149.453 229.388 149.823 229.141C150.193 228.895 150.439 228.402 150.316 227.908C150.193 227.538 148.467 219.154 147.604 216.565C145.877 211.51 143.288 205.222 143.288 205.099C143.042 204.605 142.548 204.236 141.932 204.359C141.315 204.482 127.506 207.195 121.588 211.633C117.026 215.086 113.574 221.99 112.711 225.442C111.971 228.155 111.231 233.21 113.574 236.293C114.56 237.525 116.656 238.265 118.259 238.512C119.615 238.758 122.205 238.882 124.054 237.402C124.301 237.156 124.671 236.909 125.04 236.662C125.04 237.279 125.04 238.019 125.287 238.635C125.534 239.375 126.273 240.485 127.876 240.854C128.246 240.978 128.863 241.101 129.356 241.101ZM147.604 227.662C145.631 229.141 139.589 233.457 136.507 235.183C135.89 235.553 135.397 235.799 134.904 236.169C132.192 237.895 130.342 239.005 128.246 238.389C127.63 238.265 127.383 237.895 127.26 237.649C126.89 236.786 127.383 235.429 127.753 234.813C128.616 233.58 131.945 229.511 133.301 228.032C133.794 227.538 133.671 226.799 133.178 226.306C132.685 225.812 131.945 225.936 131.452 226.429C131.452 226.552 125.534 232.717 122.205 235.429C121.465 236.046 119.985 236.292 118.382 236.046C116.78 235.799 115.547 235.06 115.3 234.69C114.067 233.087 113.82 229.881 114.807 226.059C115.547 223.346 118.629 216.812 122.821 213.606C127.383 210.154 137.863 207.688 141.069 206.948C141.809 208.921 143.658 213.483 145.014 217.305C145.754 219.401 147.11 225.442 147.604 227.662Z" fill="black"/>
<path d="M144.397 153.066C146 154.052 148.713 155.902 152.165 156.765C155.987 157.628 159.07 158.244 162.768 158.244C166.837 158.244 172.262 156.765 172.262 158.244C172.262 160.217 165.358 164.286 162.029 166.135C158.823 167.861 154.754 168.848 151.302 168.231C147.85 167.738 143.658 165.889 141.068 162.067C138.356 157.875 135.273 150.107 136.506 148.997C137.493 148.011 140.698 150.6 144.397 153.066Z" fill="#E3E8EE"/>
<path d="M153.398 169.59C156.48 169.59 159.809 168.727 162.645 167.124C169.919 163.179 173.495 160.219 173.495 158.123C173.495 157.63 173.248 157.137 172.878 156.89C172.015 156.027 170.412 156.274 167.33 156.644C165.851 156.767 164.248 157.014 162.768 157.014C159.193 157.014 156.233 156.521 152.411 155.534C149.329 154.794 146.986 153.315 145.383 152.205L145.014 151.959C144.15 151.342 143.287 150.849 142.424 150.232C139.095 148.013 136.999 146.657 135.643 147.89C133.177 150.109 138.479 160.219 139.958 162.562C143.287 167.617 148.836 168.973 151.055 169.343C151.918 169.59 152.658 169.59 153.398 169.59ZM170.782 158.74C169.673 159.973 166.344 162.315 161.535 164.905C158.453 166.631 154.631 167.371 151.548 166.877C149.699 166.631 144.89 165.521 142.178 161.206C139.712 157.384 137.616 151.835 137.492 149.986C138.356 150.356 139.958 151.465 141.191 152.205C142.054 152.698 142.917 153.315 143.781 153.931L144.15 154.178C145.753 155.288 148.589 157.014 151.918 157.753C155.864 158.74 158.946 159.233 162.891 159.233C164.494 159.233 166.22 158.986 167.823 158.863C168.686 158.986 169.919 158.74 170.782 158.74Z" fill="black"/>
<path d="M191.005 124.095C191.005 124.095 189.156 127.055 190.142 130.26C191.375 134.452 195.074 135.685 198.403 135.562C202.472 135.439 204.445 132.48 205.061 130.507C206.048 127.548 205.801 123.232 202.965 121.383C199.513 119.04 195.321 119.903 195.321 119.903C195.321 119.903 197.787 122.862 195.444 124.712C193.348 126.438 191.005 124.095 191.005 124.095Z" fill="#1A1A1A"/>
<path d="M197.909 136.916C198.032 136.916 198.279 136.916 198.402 136.916C202.718 136.792 205.307 133.71 206.17 130.997C207.403 127.422 206.91 122.737 203.581 120.394C199.759 117.681 195.197 118.668 194.95 118.791C194.58 118.914 194.21 119.161 194.087 119.654C193.964 120.147 194.087 120.517 194.334 120.887C194.334 120.887 194.827 121.504 195.073 122.243C195.32 123.23 195.073 123.6 194.704 123.969C193.471 124.956 191.991 123.6 191.868 123.476C191.621 123.23 191.251 123.106 190.881 123.106C190.511 123.106 190.142 123.353 190.018 123.723C189.895 123.846 187.799 127.175 189.032 130.997C190.142 134.573 193.471 136.916 197.909 136.916ZM197.416 121.01C198.772 121.01 200.622 121.257 202.348 122.367C204.567 123.846 204.814 127.545 203.951 130.134C203.581 131.121 202.225 134.203 198.402 134.326C196.676 134.326 192.607 134.08 191.375 129.888C190.881 128.408 191.251 126.929 191.498 125.942C192.854 126.682 194.58 127.052 196.306 125.572C197.169 124.956 197.663 123.969 197.786 122.983C197.786 122.367 197.663 121.627 197.416 121.01Z" fill="black"/>
<path d="M115.054 191.775C113.944 191.528 112.095 191.282 111.848 188.322C111.602 185.363 111.355 182.281 108.026 181.541C105.19 180.925 104.327 186.966 102.231 187.459C100.135 187.953 99.7653 187.459 96.1897 186.473C92.984 185.61 90.6414 187.213 91.8743 189.432C92.6141 190.788 96.8062 192.761 95.6965 195.844C94.5868 198.926 92.6141 200.652 92.1209 203.241C91.751 205.461 93.2306 206.94 96.6829 205.707C100.135 204.474 99.8886 203.118 102.231 203.611C104.574 203.981 104.82 207.68 108.149 209.159C111.478 210.639 112.341 207.557 111.725 204.844C111.108 202.132 110.985 199.789 113.205 199.049C115.054 198.433 120.479 197.2 119.986 194.364C119.862 193.008 116.41 192.021 115.054 191.775Z" fill="#D3B57D"/>
<path d="M109.875 210.888C110.738 210.888 111.355 210.518 111.848 210.272C113.327 209.039 113.451 206.696 113.081 204.847C112.218 201.271 112.957 200.655 113.697 200.408C113.944 200.285 114.19 200.285 114.437 200.161C117.026 199.422 121.958 197.942 121.218 194.243C120.725 191.654 116.04 190.791 115.177 190.668C114.19 190.544 113.204 190.298 112.957 188.325C112.711 185.243 112.341 181.297 108.149 180.434C105.56 179.941 104.203 182.407 103.217 184.256C102.847 184.996 102.107 186.229 101.737 186.352C100.504 186.722 100.135 186.599 98.4085 185.982C97.9153 185.859 97.1755 185.612 96.4357 185.366C94.0931 184.749 91.8738 185.119 90.8874 186.476C90.1476 187.462 90.0243 188.818 90.7641 190.051C91.134 190.668 91.7505 191.161 92.367 191.777C93.9698 193.133 94.9562 194.12 94.463 195.476C93.9698 196.832 93.3533 197.819 92.7368 198.805C91.8738 200.161 91.134 201.394 90.8874 202.997C90.6408 204.477 91.0107 205.71 91.8738 206.573C92.7368 207.313 94.2164 207.929 97.0522 206.943C98.655 206.326 99.6414 205.71 100.258 205.34C100.998 204.847 101.121 204.723 101.984 204.847C102.601 204.97 102.97 205.586 103.71 206.573C104.573 207.806 105.56 209.409 107.656 210.272C108.642 210.765 109.259 210.888 109.875 210.888ZM107.656 182.653C109.998 183.147 110.245 185.119 110.615 188.325C110.985 192.27 113.697 192.764 114.807 193.01C116.78 193.38 118.629 194.243 118.876 194.613C119.122 196.093 115.177 197.202 113.697 197.695C113.327 197.819 113.081 197.819 112.834 197.942C109.135 199.175 110.122 203.367 110.615 205.216C110.985 206.696 110.738 207.929 110.245 208.299C109.875 208.545 109.135 208.299 108.765 208.176C107.409 207.559 106.669 206.449 105.93 205.34C105.066 204.107 104.203 202.874 102.601 202.504C100.751 202.134 100.011 202.751 99.1482 203.367C98.5318 203.737 97.9153 204.23 96.559 204.723C95.0795 205.216 94.0931 205.093 93.8465 204.847C93.4766 204.6 93.5999 203.86 93.5999 203.614C93.8465 202.381 94.463 201.394 95.2028 200.161C95.8192 199.052 96.559 197.819 97.1755 196.339C98.2852 193.38 95.8192 191.284 94.3397 189.928C93.9698 189.558 93.3533 189.065 93.23 188.941C92.8601 188.325 93.1067 188.078 93.1067 188.078C93.3533 187.708 94.463 187.339 96.0658 187.708C96.8056 187.955 97.4221 188.078 97.9153 188.325C99.7647 188.941 100.751 189.188 102.601 188.695C103.957 188.325 104.82 186.845 105.56 185.366C106.299 183.886 106.916 182.653 107.656 182.653Z" fill="black"/>
<path d="M117.889 109.296C117.889 109.296 116.04 112.255 117.026 115.46C118.259 119.653 121.958 120.885 125.287 120.762C129.356 120.639 131.328 117.68 131.945 115.707C132.931 112.748 132.685 108.433 129.849 106.583C126.396 104.241 122.204 105.104 122.204 105.104C122.204 105.104 124.67 108.063 122.328 109.912C120.232 111.762 117.889 109.296 117.889 109.296Z" fill="#1A1A1A"/>
<path d="M124.917 122.118C125.041 122.118 125.287 122.118 125.41 122.118C129.726 121.994 132.315 118.912 133.178 116.199C134.411 112.624 133.918 107.939 130.589 105.596C126.767 102.884 122.205 103.87 121.958 103.993C121.588 104.116 121.218 104.363 121.095 104.856C120.972 105.349 121.095 105.719 121.342 106.089C121.588 106.336 122.205 107.445 122.205 108.185C122.205 108.432 122.081 108.678 121.712 109.048C120.355 110.158 118.999 108.555 118.876 108.555C118.629 108.309 118.259 108.185 117.889 108.185C117.52 108.185 117.15 108.432 117.026 108.802C116.903 108.925 114.807 112.254 116.04 116.076C117.026 119.775 120.355 122.118 124.917 122.118ZM124.301 106.213C125.657 106.213 127.506 106.459 129.233 107.569C131.452 109.048 131.699 112.747 130.835 115.336C130.466 116.323 129.109 119.405 125.287 119.528C123.561 119.528 119.492 119.282 118.259 115.09C117.766 113.61 118.136 112.131 118.506 111.144C119.739 111.884 121.588 112.254 123.314 110.774C124.177 110.158 124.671 109.172 124.794 108.185C124.671 107.569 124.547 106.829 124.301 106.213Z" fill="black"/>
</svg>
