<svg width="48" height="48" viewBox="0 0 48 48" fill="none" xmlns="http://www.w3.org/2000/svg">
<rect width="48" height="48" rx="12" fill="black" fill-opacity="0.15"/>
<path d="M29.3781 34.2952C29.3747 34.4941 29.2923 34.6835 29.1493 34.8216C29.0062 34.9598 28.8141 35.0355 28.6152 35.032L18.6167 34.8575C18.4774 34.8551 18.3416 34.8139 18.2244 34.7386C18.1072 34.6633 18.0133 34.5569 17.9532 34.4313C17.8931 34.3056 17.8692 34.1657 17.8841 34.0272C17.899 33.8888 17.9522 33.7572 18.0377 33.6472L27.2456 21.8161C27.7634 21.1538 28.0732 20.3528 28.1357 19.5144C28.1982 18.676 28.0107 17.8379 27.5968 17.1061C27.1829 16.3744 26.5613 15.7818 25.8106 15.4033C25.0599 15.0249 24.2138 14.8776 23.3793 14.9801C22.6576 15.0685 21.9705 15.3401 21.3833 15.7691C20.7962 16.198 20.3285 16.77 20.0248 17.4307C19.9419 17.6116 19.7905 17.7522 19.604 17.8215C19.4174 17.8908 19.211 17.8831 19.0301 17.8002C18.8492 17.7173 18.7086 17.566 18.6393 17.3794C18.57 17.1929 18.5776 16.9864 18.6605 16.8055C18.8483 16.3971 19.0828 16.0119 19.3594 15.6575C20.2983 14.4557 21.6762 13.6761 23.1899 13.4903C24.7037 13.3044 26.2292 13.7275 27.431 14.6664C28.6329 15.6053 29.4124 16.9832 29.5983 18.4969C29.7842 20.0107 29.3611 21.5362 28.4222 22.738L20.1426 33.3839L28.6414 33.5323C28.8402 33.5357 29.0296 33.6181 29.1678 33.7611C29.3059 33.9042 29.3816 34.0964 29.3781 34.2952Z" fill="white"/>
</svg>
