<svg width="132" height="132" viewBox="0 0 132 132" fill="none" xmlns="http://www.w3.org/2000/svg">
<g filter="url(#filter0_d_4011_4901)">
<rect x="16" y="10" width="100" height="100" rx="50" fill="white" shape-rendering="crispEdges"/>
<rect x="16.5" y="10.5" width="99" height="99" rx="49.5" stroke="black" stroke-opacity="0.08" shape-rendering="crispEdges"/>
<path fill-rule="evenodd" clip-rule="evenodd" d="M43.6123 73.7732L51.9022 67.4248C56.3059 73.1699 60.9839 75.819 66.1926 75.819C71.3732 75.819 75.919 73.2012 80.1243 67.5006L88.5316 73.6958C82.465 81.9153 74.9239 86.2575 66.1926 86.2575C57.4894 86.2575 49.8756 81.9449 43.6123 73.7732Z" fill="url(#paint0_linear_4011_4901)"/>
<path fill-rule="evenodd" clip-rule="evenodd" d="M65.7245 46.1817L50.9713 58.8918L44.1509 50.9838L65.7559 32.3721L87.1907 50.9987L80.3389 58.8786L65.7245 46.1817Z" fill="url(#paint1_linear_4011_4901)"/>
</g>
<defs>
<filter id="filter0_d_4011_4901" x="0" y="0" width="132" height="132" filterUnits="userSpaceOnUse" color-interpolation-filters="sRGB">
<feFlood flood-opacity="0" result="BackgroundImageFix"/>
<feColorMatrix in="SourceAlpha" type="matrix" values="0 0 0 0 0 0 0 0 0 0 0 0 0 0 0 0 0 0 127 0" result="hardAlpha"/>
<feOffset dy="6"/>
<feGaussianBlur stdDeviation="8"/>
<feComposite in2="hardAlpha" operator="out"/>
<feColorMatrix type="matrix" values="0 0 0 0 0.101754 0 0 0 0 0.290587 0 0 0 0 0.376953 0 0 0 0.16 0"/>
<feBlend mode="normal" in2="BackgroundImageFix" result="effect1_dropShadow_4011_4901"/>
<feBlend mode="normal" in="SourceGraphic" in2="effect1_dropShadow_4011_4901" result="shape"/>
</filter>
<linearGradient id="paint0_linear_4011_4901" x1="43.6123" y1="80.2338" x2="88.5316" y2="80.2338" gradientUnits="userSpaceOnUse">
<stop stop-color="#8930FD"/>
<stop offset="1" stop-color="#49CCF9"/>
</linearGradient>
<linearGradient id="paint1_linear_4011_4901" x1="44.1509" y1="50.4068" x2="87.1907" y2="50.4068" gradientUnits="userSpaceOnUse">
<stop stop-color="#FF02F0"/>
<stop offset="1" stop-color="#FFC800"/>
</linearGradient>
</defs>
</svg>
