<svg width="716" height="24" viewBox="0 0 716 24" fill="none" xmlns="http://www.w3.org/2000/svg">
<rect x="4" y="11" width="710" height="2" fill="#FF0000"/>
<rect x="4" y="6" width="2" height="4" fill="#FF0000"/>
<rect x="74.8" y="6" width="2" height="4" fill="#FF0000"/>
<rect x="145.6" y="6" width="2" height="4" fill="#FF0000"/>
<rect x="216.4" y="6" width="2" height="4" fill="#FF0000"/>
<rect x="287.2" y="6" width="2" height="4" fill="#FF0000"/>
<rect x="358" y="6" width="2" height="4" fill="#FF0000"/>
<rect x="428.8" y="6" width="2" height="4" fill="#FF0000"/>
<rect x="499.6" y="6" width="2" height="4" fill="#FF0000"/>
<rect x="570.4" y="6" width="2" height="4" fill="#FF0000"/>
<rect x="641.2" y="6" width="2" height="4" fill="#FF0000"/>
<rect x="712" y="6" width="2" height="4" fill="#FF0000"/>
<path d="M12 23C18.0751 23 23 18.0751 23 12C23 5.92487 18.0751 1 12 1C5.92487 1 1 5.92487 1 12C1 18.0751 5.92487 23 12 23Z" fill="#FF0000" stroke="white" stroke-width="2"/>
</svg>
