<svg width="24" height="24" viewBox="0 0 24 24" fill="none" xmlns="http://www.w3.org/2000/svg">
<rect width="24" height="24" rx="12" fill="#2FBE8B"/>
<path d="M18.2649 8.76541L10.2649 16.7654C10.1946 16.8356 10.0993 16.8751 9.99992 16.8751C9.90055 16.8751 9.80524 16.8356 9.73492 16.7654L6.23492 13.2654C6.16868 13.1943 6.13262 13.1003 6.13434 13.0032C6.13605 12.906 6.17541 12.8133 6.24411 12.7446C6.31282 12.6759 6.40551 12.6365 6.50266 12.6348C6.59981 12.6331 6.69384 12.6692 6.76492 12.7354L9.99992 15.9698L17.7349 8.23541C17.806 8.16917 17.9 8.13311 17.9972 8.13482C18.0943 8.13654 18.187 8.17589 18.2557 8.2446C18.3244 8.31331 18.3638 8.406 18.3655 8.50315C18.3672 8.6003 18.3312 8.69432 18.2649 8.76541Z" fill="white"/>
<path fill-rule="evenodd" clip-rule="evenodd" d="M18.6247 9.11273L10.6185 17.119C10.4544 17.2828 10.2318 17.3751 9.99992 17.3751C9.76805 17.3751 9.54565 17.283 9.38159 17.1192L5.87513 13.6127L5.86912 13.6063C5.71456 13.4404 5.63041 13.221 5.63441 12.9943C5.63841 12.7676 5.73024 12.5514 5.89056 12.391C6.05087 12.2307 6.26716 12.1389 6.49384 12.1349C6.72052 12.1309 6.93991 12.215 7.10578 12.3696L7.11222 12.3756L9.9999 15.2627L17.3876 7.87561L17.3941 7.86961C17.5599 7.71505 17.7793 7.6309 18.006 7.6349C18.2327 7.6389 18.449 7.73073 18.6093 7.89105C18.7696 8.05136 18.8614 8.26765 18.8654 8.49433C18.8694 8.72101 18.7853 8.9404 18.6307 9.10627L18.6247 9.11273ZM9.99992 15.9698L6.76492 12.7354C6.69384 12.6692 6.59981 12.6331 6.50266 12.6348C6.40551 12.6365 6.31282 12.6759 6.24411 12.7446C6.17541 12.8133 6.13605 12.906 6.13434 13.0032C6.13262 13.1003 6.16868 13.1943 6.23492 13.2654L9.73492 16.7654C9.80524 16.8356 9.90055 16.8751 9.99992 16.8751C10.0993 16.8751 10.1946 16.8356 10.2649 16.7654L18.2649 8.76541C18.3312 8.69432 18.3672 8.6003 18.3655 8.50315C18.3638 8.406 18.3244 8.31331 18.2557 8.2446C18.187 8.17589 18.0943 8.13654 17.9972 8.13482C17.9 8.13311 17.806 8.16917 17.7349 8.23541L9.99992 15.9698Z" fill="white"/>
</svg>
