<svg width="132" height="132" viewBox="0 0 132 132" fill="none" xmlns="http://www.w3.org/2000/svg">
<g filter="url(#filter0_d_4011_4896)">
<rect x="16" y="10" width="100" height="100" rx="50" fill="white" shape-rendering="crispEdges"/>
<rect x="16.5" y="10.5" width="99" height="99" rx="49.5" stroke="black" stroke-opacity="0.08" shape-rendering="crispEdges"/>
<path d="M82.9517 60.3741C75.744 60.3741 69.9021 66.2188 69.9021 73.4286C69.9021 80.6391 75.744 86.485 82.9517 86.485C90.1581 86.485 96 80.6391 96 73.4286C96 66.2188 90.1581 60.3741 82.9517 60.3741ZM49.049 60.3747C41.8425 60.3754 36 66.2188 36 73.4292C36 80.6391 41.8425 86.4843 49.049 86.4843C56.256 86.4843 62.0986 80.6391 62.0986 73.4292C62.0986 66.2187 56.256 60.3747 49.0483 60.3747H49.049ZM79.049 44.0551C79.049 51.265 73.2071 57.1115 66.0007 57.1115C58.793 57.1115 52.9511 51.265 52.9511 44.0551C52.9511 36.8453 58.793 31 66.0006 31C73.2071 31 79.0484 36.8453 79.0484 44.0551H79.049Z" fill="url(#paint0_radial_4011_4896)"/>
</g>
<defs>
<filter id="filter0_d_4011_4896" x="0" y="0" width="132" height="132" filterUnits="userSpaceOnUse" color-interpolation-filters="sRGB">
<feFlood flood-opacity="0" result="BackgroundImageFix"/>
<feColorMatrix in="SourceAlpha" type="matrix" values="0 0 0 0 0 0 0 0 0 0 0 0 0 0 0 0 0 0 127 0" result="hardAlpha"/>
<feOffset dy="6"/>
<feGaussianBlur stdDeviation="8"/>
<feComposite in2="hardAlpha" operator="out"/>
<feColorMatrix type="matrix" values="0 0 0 0 0.101754 0 0 0 0 0.290587 0 0 0 0 0.376953 0 0 0 0.16 0"/>
<feBlend mode="normal" in2="BackgroundImageFix" result="effect1_dropShadow_4011_4896"/>
<feBlend mode="normal" in="SourceGraphic" in2="effect1_dropShadow_4011_4896" result="shape"/>
</filter>
<radialGradient id="paint0_radial_4011_4896" cx="0" cy="0" r="1" gradientUnits="userSpaceOnUse" gradientTransform="translate(66.0081 61.3583) scale(39.78 36.7866)">
<stop stop-color="#FFB900"/>
<stop offset="0.6" stop-color="#F95D8F"/>
<stop offset="0.999" stop-color="#F95353"/>
</radialGradient>
</defs>
</svg>
