<svg width="449" height="408" viewBox="0 0 449 408" fill="none" xmlns="http://www.w3.org/2000/svg">
<path d="M6.11095 8.13729C6.80047 8.48228 8.17952 9.17225 9.73095 7.44731C11.2824 5.72238 12.8338 3.82495 15.0748 4.85991C17.1433 5.72238 14.9024 9.86223 15.9367 11.0697C16.9709 12.2771 17.4881 12.2771 20.0738 13.1396C22.4871 14.0021 23.1767 16.072 21.4528 16.9345C20.4186 17.452 16.9709 16.762 16.2814 19.1769C15.5919 21.5918 16.109 23.4892 15.2471 25.3867C14.5576 26.9391 13.0062 27.1116 11.2824 24.8692C9.73095 22.6268 10.4205 21.9368 8.86904 21.0743C7.31762 20.2118 5.42143 22.4543 2.66333 21.9368C-0.0947606 21.4193 0.767144 19.1769 2.31857 17.7969C3.87 16.417 5.07667 15.037 4.04238 13.4846C3.00809 12.2771 0.0776203 9.17225 1.80143 7.44731C2.49095 6.75734 5.07667 7.61981 6.11095 8.13729Z" fill="#E5EF73"/>
<path d="M13.5229 27.2839C12.8334 27.2839 11.7991 26.939 10.5924 25.3865C9.90292 24.3515 9.55816 23.4891 9.38578 22.9716C9.2134 22.2816 9.04102 22.1091 8.35149 21.7641C7.83435 21.5916 7.14483 21.7641 6.28292 22.1091C5.24864 22.4541 4.04197 22.9716 2.31816 22.6266C0.766733 22.2816 0.24959 21.5916 0.0772095 20.9017C-0.267552 19.6942 0.594352 18.1418 1.62864 17.2793C3.69721 15.3819 3.69721 14.6919 3.18007 13.8294C3.00768 13.6569 3.00768 13.4844 2.8353 13.3119C1.62864 11.7595 -0.612314 8.82712 1.11149 7.10218C2.31816 5.89472 5.76578 7.44717 6.11054 7.61966C6.80006 7.96465 7.66197 8.48213 8.86864 7.10218C10.4201 5.37724 12.1439 3.13483 14.902 4.34228C16.7982 5.03226 16.6258 6.92969 16.281 8.48213C16.1086 9.3446 16.1086 10.3796 16.281 10.7245C16.9705 11.587 17.3153 11.587 18.6943 12.1045C19.0391 12.277 19.5562 12.4495 20.2458 12.622C21.7972 13.1395 23.0039 14.3469 23.0039 15.5544C23.0039 16.4168 22.4867 17.1068 21.6248 17.6243C21.2801 17.7968 20.5905 17.7968 19.901 17.9693C18.3496 18.1418 16.9705 18.3143 16.6258 19.5217C16.281 20.5567 16.281 21.4192 16.1086 22.4541C15.9363 23.6616 15.9363 24.6965 15.4191 25.7315C14.902 26.594 14.2124 27.2839 13.5229 27.2839ZM7.83435 20.2117C8.17911 20.2117 8.52387 20.2117 8.86864 20.3842C10.0753 20.9017 10.2477 21.5916 10.5924 22.2816C10.7648 22.7991 10.9372 23.4891 11.6267 24.3515C12.3163 25.3865 13.0058 25.7315 13.5229 25.7315C14.0401 25.7315 14.2124 25.214 14.3848 24.869C14.7296 24.0066 14.902 22.9716 14.902 21.9366C14.902 21.0742 15.0743 19.8667 15.4191 18.8317C16.1086 16.7618 18.3496 16.4168 19.7286 16.4168C20.2458 16.4168 20.7629 16.2443 20.9353 16.2443C21.2801 16.0719 21.6248 15.7269 21.4524 15.3819C21.4524 14.8644 20.7629 14.0019 19.5563 13.6569C19.0391 13.4844 18.522 13.312 18.1772 13.1395C16.7982 12.622 16.1086 12.4495 15.2467 11.4145C14.5572 10.7245 14.7296 9.51709 14.902 8.30963C15.0743 6.75719 15.2467 5.72223 14.5572 5.37724C12.8334 4.68727 11.6267 5.72223 9.90292 7.79215C8.00673 9.86208 6.28292 8.99961 5.5934 8.65462C4.21435 7.96465 2.31816 7.61966 1.9734 7.96465C0.939114 8.99961 2.8353 11.4145 3.69721 12.4495C3.86959 12.622 4.04197 12.7945 4.04197 12.967C5.5934 15.0369 3.35245 17.1068 2.31816 18.1418C1.45626 18.8317 0.939114 19.8667 1.11149 20.3842C1.28388 20.9017 1.80102 21.0742 2.31816 21.0742C3.52483 21.2467 4.55911 20.9017 5.5934 20.5567C6.4553 20.5567 7.14483 20.2117 7.83435 20.2117Z" fill="black"/>
<path d="M76.471 375.507C77.6584 376.299 80.0331 377.091 82.4078 374.319C84.7825 371.546 87.553 368.378 91.1151 370.358C94.2814 371.942 91.1151 378.675 92.6983 380.655C94.2814 382.636 95.073 382.636 99.4267 384.22C103.385 385.804 104.572 388.972 101.801 390.557C100.218 391.349 94.2814 390.161 93.0941 394.121C91.9067 398.082 92.6983 401.25 91.1151 404.418C89.9278 407.191 87.1573 407.587 84.7825 403.626C82.012 399.666 83.1994 398.874 80.8247 397.289C78.0541 396.101 75.2836 399.666 70.5342 398.478C65.7847 397.289 67.3679 393.725 70.1384 391.745C72.9089 389.368 74.492 386.992 72.9089 384.616C71.3257 382.636 66.9721 377.487 69.3468 374.715C70.93 373.131 74.8878 374.715 76.471 375.507Z" fill="#E5EF73"/>
<path d="M88.7401 407.191C87.5528 407.191 85.5738 406.398 83.5949 403.626C82.4075 401.646 82.0117 400.458 81.6159 399.666C81.2201 398.478 81.2202 398.478 80.0328 398.082C79.2412 397.685 78.4496 398.081 76.8665 398.478C75.2833 399.27 72.9086 400.062 70.1381 399.27C67.3676 398.874 66.576 397.289 66.1802 396.101C65.3886 393.725 67.3676 391.349 68.9507 389.765C72.5128 386.596 72.117 385.408 71.3254 384.616L70.5339 383.824C68.5549 381.051 64.597 376.299 67.7633 373.131C70.1381 370.754 75.2833 373.527 76.4707 373.923C77.6581 374.319 78.8454 375.111 80.4286 373.131C82.8033 369.962 85.9696 366.398 91.1148 368.774C93.8854 369.962 93.4896 373.527 93.0938 376.299C93.0938 377.487 92.698 379.071 93.0938 379.467C94.2811 380.655 94.6769 381.051 96.6559 381.448C97.4475 381.844 98.239 381.844 99.0306 382.24C101.801 383.428 103.78 385.408 103.78 387.388C103.78 388.972 102.988 390.557 101.405 390.953C100.614 391.349 99.8222 391.349 98.6348 391.349C96.2601 391.745 94.2812 391.745 93.8854 393.725C93.4896 395.309 93.0938 396.893 93.0938 398.478C93.0938 400.458 92.698 402.438 91.9064 404.022C91.9064 406.002 90.7191 406.795 88.7401 407.191ZM79.637 394.913C80.4286 394.913 80.8243 394.913 81.6159 395.309C83.5949 396.101 83.9907 397.289 84.3865 398.478C84.7822 399.27 85.178 400.458 85.9696 401.646C87.157 403.23 87.9485 404.022 88.7401 403.626C89.1359 403.626 89.9275 402.834 89.9275 402.438C90.7191 400.854 90.7191 399.666 90.7191 397.685C90.7191 396.101 91.1148 394.517 91.5106 392.537C92.698 388.576 96.6559 388.576 99.0306 388.18C99.8222 388.18 100.614 388.18 101.01 387.784C101.801 387.388 101.801 386.992 101.801 386.992C101.801 386.2 100.614 385.012 99.0306 384.616C98.239 384.22 97.4475 384.22 96.6559 383.824C94.2811 383.032 93.0938 382.636 91.5106 380.655C90.3233 379.467 90.7191 377.091 90.7191 375.111C91.1148 372.734 91.1148 371.15 90.3233 370.754C87.5528 369.566 85.9696 371.546 83.1991 374.319C80.0328 378.279 76.8665 376.695 75.6791 375.903C73.3044 374.715 70.9297 374.319 70.1381 374.715C68.9507 375.903 71.7212 379.863 73.3044 381.448L74.096 382.24C76.8665 386.2 72.9086 389.765 70.9297 391.349C69.3465 392.537 68.9507 394.121 68.9507 394.913C68.9507 395.309 70.1381 395.705 70.5339 395.705C72.5128 396.101 74.0959 395.309 75.6791 394.913C77.2623 395.309 78.4496 394.913 79.637 394.913Z" fill="black"/>
<path d="M172.111 330.137C172.8 330.482 174.18 331.172 175.731 329.447C177.282 327.722 178.834 325.825 181.075 326.86C183.143 327.722 180.902 331.862 181.937 333.07C182.971 334.277 183.488 334.277 186.074 335.14C188.487 336.002 189.177 338.072 187.453 338.934C186.419 339.452 182.971 338.762 182.281 341.177C181.592 343.592 182.109 345.489 181.247 347.387C180.558 348.939 179.006 349.112 177.282 346.869C175.731 344.627 176.42 343.937 174.869 343.074C173.318 342.212 171.421 344.454 168.663 343.937C165.905 343.419 166.767 341.177 168.319 339.797C169.87 338.417 171.077 337.037 170.042 335.485C169.008 334.277 166.078 331.172 167.801 329.447C168.491 328.757 171.077 329.62 172.111 330.137Z" fill="#E5EF73"/>
<path d="M179.523 349.284C178.833 349.284 177.799 348.939 176.592 347.387C175.903 346.352 175.558 345.489 175.386 344.972C175.213 344.282 175.041 344.109 174.351 343.764C173.834 343.592 173.145 343.764 172.283 344.109C171.249 344.454 170.042 344.972 168.318 344.627C166.767 344.282 166.25 343.592 166.077 342.902C165.732 341.694 166.594 340.142 167.629 339.279C169.697 337.382 169.697 336.692 169.18 335.829C169.008 335.657 169.008 335.484 168.835 335.312C167.629 333.76 165.388 330.827 167.111 329.102C168.318 327.895 171.766 329.447 172.111 329.62C172.8 329.965 173.662 330.482 174.869 329.102C176.42 327.377 178.144 325.135 180.902 326.342C182.798 327.032 182.626 328.93 182.281 330.482C182.109 331.345 182.109 332.38 182.281 332.725C182.971 333.587 183.315 333.587 184.694 334.104C185.039 334.277 185.556 334.449 186.246 334.622C187.797 335.139 189.004 336.347 189.004 337.554C189.004 338.417 188.487 339.107 187.625 339.624C187.28 339.797 186.591 339.797 185.901 339.969C184.35 340.142 182.971 340.314 182.626 341.522C182.281 342.557 182.281 343.419 182.109 344.454C181.936 345.662 181.936 346.697 181.419 347.731C180.902 348.594 180.212 349.284 179.523 349.284ZM173.834 342.212C174.179 342.212 174.524 342.212 174.869 342.384C176.075 342.902 176.248 343.592 176.592 344.282C176.765 344.799 176.937 345.489 177.627 346.352C178.316 347.387 179.006 347.731 179.523 347.731C180.04 347.731 180.212 347.214 180.385 346.869C180.73 346.007 180.902 344.972 180.902 343.937C180.902 343.074 181.074 341.867 181.419 340.832C182.109 338.762 184.35 338.417 185.729 338.417C186.246 338.417 186.763 338.244 186.935 338.244C187.28 338.072 187.625 337.727 187.452 337.382C187.452 336.864 186.763 336.002 185.556 335.657C185.039 335.484 184.522 335.312 184.177 335.139C182.798 334.622 182.109 334.449 181.247 333.415C180.557 332.725 180.73 331.517 180.902 330.31C181.074 328.757 181.247 327.722 180.557 327.377C178.833 326.687 177.627 327.722 175.903 329.792C174.007 331.862 172.283 331 171.593 330.655C170.214 329.965 168.318 329.62 167.973 329.965C166.939 331 168.835 333.415 169.697 334.449C169.87 334.622 170.042 334.794 170.042 334.967C171.593 337.037 169.352 339.107 168.318 340.142C167.456 340.832 166.939 341.867 167.111 342.384C167.284 342.902 167.801 343.074 168.318 343.074C169.525 343.247 170.559 342.902 171.593 342.557C172.455 342.557 173.145 342.212 173.834 342.212Z" fill="black"/>
<path d="M382.489 261.425C383.56 261.96 385.702 263.032 388.111 260.353C390.52 257.674 392.929 254.728 396.409 256.335C399.621 257.674 396.141 264.103 397.747 265.978C399.354 267.853 400.157 267.853 404.172 269.192C407.919 270.532 408.99 273.746 406.313 275.085C404.707 275.889 399.354 274.817 398.283 278.568C397.212 282.318 398.015 285.264 396.677 288.21C395.606 290.621 393.197 290.889 390.52 287.407C388.111 283.925 389.182 282.853 386.772 281.514C384.363 280.175 381.419 283.657 377.136 282.853C372.853 282.05 374.191 278.568 376.6 276.425C379.01 274.282 380.883 272.139 379.277 269.728C377.671 267.853 373.12 263.032 375.797 260.353C376.868 259.282 380.883 260.621 382.489 261.425Z" fill="#E5EF73"/>
<path d="M393.999 291.157C392.929 291.157 391.322 290.621 389.449 288.21C388.378 286.603 387.843 285.264 387.575 284.46C387.307 283.389 387.039 283.121 385.969 282.585C385.166 282.317 384.095 282.585 382.757 283.121C381.15 283.657 379.277 284.46 376.6 283.925C374.191 283.389 373.388 282.317 373.12 281.246C372.585 279.371 373.923 276.96 375.529 275.621C378.741 272.674 378.741 271.603 377.938 270.264C377.671 269.996 377.671 269.728 377.403 269.46C375.529 267.049 372.049 262.496 374.726 259.817C376.6 257.942 381.953 260.353 382.489 260.621C383.56 261.157 384.898 261.96 386.772 259.817C389.181 257.139 391.858 253.657 396.141 255.532C399.085 256.603 398.818 259.549 398.282 261.96C398.015 263.299 398.015 264.907 398.282 265.442C399.353 266.782 399.888 266.782 402.03 267.585C402.565 267.853 403.368 268.121 404.439 268.389C406.848 269.192 408.722 271.067 408.722 272.942C408.722 274.282 407.919 275.353 406.58 276.157C406.045 276.425 404.974 276.425 403.904 276.692C401.494 276.96 399.353 277.228 398.818 279.103C398.282 280.71 398.282 282.05 398.015 283.657C397.747 285.532 397.747 287.139 396.944 288.746C396.141 290.085 395.07 291.157 393.999 291.157ZM385.166 280.175C385.701 280.175 386.236 280.175 386.772 280.442C388.646 281.246 388.913 282.317 389.449 283.389C389.716 284.192 389.984 285.264 391.055 286.603C392.125 288.21 393.196 288.746 393.999 288.746C394.802 288.746 395.07 287.942 395.338 287.407C395.873 286.067 396.141 284.46 396.141 282.853C396.141 281.514 396.408 279.639 396.944 278.032C398.015 274.817 401.494 274.282 403.636 274.282C404.439 274.282 405.242 274.014 405.51 274.014C406.045 273.746 406.58 273.21 406.313 272.675C406.313 271.871 405.242 270.532 403.368 269.996C402.565 269.728 401.762 269.46 401.227 269.192C399.085 268.389 398.015 268.121 396.676 266.514C395.605 265.442 395.873 263.567 396.141 261.692C396.408 259.282 396.676 257.674 395.605 257.139C392.929 256.067 391.055 257.674 388.378 260.889C385.433 264.103 382.757 262.764 381.686 262.228C379.544 261.157 376.6 260.621 376.064 261.157C374.458 262.764 377.403 266.514 378.741 268.121C379.009 268.389 379.277 268.657 379.277 268.924C381.686 272.139 378.206 275.353 376.6 276.96C375.261 278.032 374.458 279.639 374.726 280.442C374.994 281.246 375.797 281.514 376.6 281.514C378.474 281.782 380.08 281.246 381.686 280.71C383.024 280.71 384.095 280.175 385.166 280.175Z" fill="black"/>
<path d="M96.646 5.85356C97.6216 6.34168 99.5727 7.3179 101.768 4.87734C103.963 2.43678 106.158 -0.247841 109.329 1.2165C112.255 2.43678 109.085 8.29413 110.548 10.0025C112.011 11.7109 112.743 11.7109 116.402 12.9312C119.816 14.1515 120.792 17.0802 118.353 18.3004C116.889 19.0326 112.011 18.0564 111.036 21.4732C110.06 24.89 110.792 27.5746 109.573 30.2592C108.597 32.4557 106.402 32.6998 103.963 29.527C101.768 26.3543 102.743 25.3781 100.548 24.1578C98.3533 22.9375 95.6704 26.1102 91.768 25.3781C87.8657 24.6459 89.0852 21.4732 91.2803 19.5207C93.4753 17.5683 95.1826 15.6158 93.7192 13.4193C92.2558 11.7109 88.1096 7.3179 90.5486 4.87734C91.5241 3.90112 95.1826 5.1214 96.646 5.85356Z" fill="#E5EF73"/>
<path d="M107.133 32.9438C106.158 32.9438 104.694 32.4557 102.987 30.2591C102.011 28.7948 101.524 27.5745 101.28 26.8424C101.036 25.8661 100.792 25.6221 99.8163 25.134C99.0846 24.8899 98.109 25.134 96.8895 25.6221C95.4261 26.1102 93.7189 26.8424 91.2799 26.3542C89.0848 25.8661 88.3531 24.8899 88.1092 23.9137C87.6214 22.2053 88.8409 20.0088 90.3043 18.7885C93.2311 16.1039 93.2311 15.1277 92.4994 13.9074C92.2555 13.6633 92.2555 13.4193 92.0116 13.1752C90.3043 10.9787 87.1337 6.82975 89.5726 4.38918C91.2799 2.68079 96.1578 4.8773 96.6456 5.12135C97.6212 5.60946 98.8407 6.34164 100.548 4.38918C102.743 1.94862 105.182 -1.22411 109.084 0.484284C111.767 1.46051 111.523 4.14513 111.036 6.34163C110.792 7.56191 110.792 9.02625 111.036 9.51436C112.011 10.7346 112.499 10.7346 114.45 11.4668C114.938 11.7109 115.67 11.9549 116.645 12.199C118.84 12.9312 120.548 14.6395 120.548 16.3479C120.548 17.5682 119.816 18.5444 118.596 19.2766C118.109 19.5207 117.133 19.5207 116.157 19.7647C113.962 20.0088 112.011 20.2528 111.523 21.9612C111.036 23.4256 111.036 24.6458 110.792 26.1102C110.548 27.8186 110.548 29.2829 109.816 30.7473C109.084 31.9675 108.109 32.9438 107.133 32.9438ZM99.0846 22.9375C99.5724 22.9375 100.06 22.9375 100.548 23.1815C102.255 23.9137 102.499 24.8899 102.987 25.8661C103.231 26.5983 103.475 27.5745 104.45 28.7948C105.426 30.2591 106.401 30.7473 107.133 30.7473C107.865 30.7473 108.109 30.0151 108.353 29.527C108.84 28.3067 109.084 26.8424 109.084 25.378C109.084 24.1577 109.328 22.4493 109.816 20.985C110.792 18.0563 113.962 17.5682 115.913 17.5682C116.645 17.5682 117.377 17.3242 117.621 17.3242C118.109 17.0801 118.596 16.592 118.352 16.1039C118.352 15.3717 117.377 14.1514 115.67 13.6633C114.938 13.4193 114.206 13.1752 113.718 12.9312C111.767 12.199 110.792 11.9549 109.572 10.4906C108.597 9.51437 108.84 7.80597 109.084 6.09758C109.328 3.90107 109.572 2.43673 108.597 1.94862C106.158 0.972397 104.45 2.43673 102.011 5.36541C99.3285 8.29408 96.8895 7.0738 95.9139 6.58569C93.9628 5.60947 91.2799 5.12135 90.7921 5.60947C89.3287 7.0738 92.0116 10.4906 93.2311 11.9549C93.475 12.199 93.7189 12.443 93.7189 12.6871C95.9139 15.6158 92.7433 18.5444 91.2799 20.0088C90.0604 20.985 89.3287 22.4494 89.5726 23.1815C89.8165 23.9137 90.5482 24.1577 91.2799 24.1577C92.9872 24.4018 94.4506 23.9137 95.9139 23.4256C97.1334 23.4256 98.109 22.9375 99.0846 22.9375Z" fill="black"/>
<path d="M428.294 8.93841C429.323 9.55612 430.763 10.1738 432.615 8.11479C434.467 6.05575 436.319 3.7908 438.994 5.02623C441.463 6.05575 438.788 10.9975 440.023 12.4388C441.258 13.8801 441.875 13.8801 444.962 14.9096C447.842 15.9392 448.665 18.41 446.608 19.4395C445.373 20.0572 441.258 19.2336 440.435 22.1163C439.612 24.999 440.229 27.2639 439.2 29.5288C438.377 31.382 436.525 31.5879 434.467 28.9111C432.615 26.2344 433.438 25.4108 431.587 24.3812C429.735 23.3517 427.471 26.0285 424.179 25.4108C420.887 24.793 421.915 22.1163 423.767 20.4691C425.619 18.8218 427.06 17.1746 425.825 15.3214C424.796 13.8801 421.298 10.1738 423.356 8.3207C424.179 7.29118 427.265 8.5266 428.294 8.93841Z" fill="#E5EF73"/>
<path d="M437.142 31.7939C436.319 31.7939 435.085 31.382 433.644 29.5289C432.821 28.2935 432.41 27.264 432.204 26.6462C431.998 25.8226 431.792 25.6167 430.969 25.2049C430.352 24.999 429.529 25.2049 428.5 25.6167C427.265 26.0285 425.619 26.6463 423.767 26.2344C421.915 25.8226 421.298 24.999 421.092 24.1754C420.681 22.7341 421.709 20.8809 422.944 19.8514C425.413 17.5865 425.413 16.7628 424.796 15.7333C424.59 15.5274 424.59 15.3215 424.384 15.1156C422.944 13.2625 420.269 9.76209 422.327 7.70305C423.973 6.26172 427.883 8.11486 428.294 8.32076C429.117 8.73257 430.146 9.35028 431.586 7.70305C433.438 5.644 435.496 2.96725 438.788 4.40858C440.64 5.2322 440.435 7.49714 440.229 9.55619C440.023 10.5857 440.023 11.8211 440.229 12.2329C441.463 13.0566 441.875 13.2625 443.521 13.6743C443.933 13.8802 444.55 14.0861 445.373 14.292C447.225 14.9097 448.665 16.351 448.665 17.7924C448.665 18.8219 448.048 19.6455 447.019 20.2632C446.608 20.4691 445.785 20.4691 444.961 20.675C443.11 20.8809 441.463 21.0868 441.052 22.5282C440.64 23.7636 440.64 24.7931 440.435 26.0285C440.229 27.4699 440.229 28.7053 439.611 29.9407C438.994 31.1761 438.171 31.7939 437.348 31.7939C437.348 31.7939 437.348 31.7939 437.142 31.7939ZM430.558 23.5577C430.969 23.5577 431.381 23.5577 431.792 23.7636C433.233 24.3813 433.438 25.2049 433.85 26.0285C434.056 26.6462 434.261 27.4699 435.085 28.4994C435.908 29.7348 436.731 30.3525 437.348 30.1466C437.965 30.1466 438.377 29.5289 438.377 29.1171C438.788 28.0876 438.994 26.8522 438.994 25.6167C438.994 24.5872 439.2 23.1459 439.611 21.9104C440.435 19.4396 443.11 19.0278 444.756 19.0278C445.373 19.0278 445.99 18.8219 446.196 18.8219C446.608 18.616 447.019 18.2042 446.813 17.7924C446.813 17.1746 445.99 16.1451 444.55 15.7333C443.933 15.5274 443.315 15.3215 442.904 15.1156C441.258 14.4979 440.435 14.292 439.406 13.0566C438.583 12.2329 438.788 10.7916 438.994 9.35028C439.406 7.49714 439.406 6.26172 438.583 5.84991C436.525 5.02629 435.085 6.26172 433.027 8.73257C430.763 11.2034 428.706 10.1739 427.883 9.76209C426.236 8.93847 423.973 8.52667 423.561 8.93847C422.327 10.1739 424.59 13.0566 425.619 14.292C425.825 14.4979 426.031 14.7038 426.031 14.9097C427.883 17.3806 425.208 19.8514 423.973 21.0868C422.944 21.9104 422.327 23.1459 422.533 23.7636C422.738 24.3813 423.356 24.5872 423.973 24.5872C425.413 24.7931 426.648 24.3813 427.883 23.9695C428.911 23.7636 429.734 23.5577 430.558 23.5577Z" fill="black"/>
</svg>
