<svg width="220" height="271" viewBox="0 0 220 271" fill="none" xmlns="http://www.w3.org/2000/svg">
<path d="M30.5317 99.1202C30.5317 99.1202 33.6089 82.7876 33.6089 80.6572C33.6089 78.1718 31.1235 77.4617 30.1767 78.6452C29.2299 79.9471 29.2299 83.0243 26.9812 84.9179C24.4958 87.0482 22.8388 85.9831 21.7736 84.2078C20.7085 82.4325 18.4598 76.1598 17.1579 74.8579C15.7377 73.4377 12.8972 73.4377 13.489 76.6332C14.0807 79.8287 17.9864 83.8527 17.5129 85.1546C17.0395 86.5748 12.6605 78.1718 10.8852 76.6332C8.87321 74.8579 5.67769 75.9231 6.74286 78.7636C7.80803 81.604 13.9624 87.2849 12.8972 87.9951C11.832 88.7052 7.80803 81.7224 5.55933 81.4857C3.31063 81.249 2.12711 83.261 4.49416 86.8115C6.97957 90.3621 10.1751 92.1374 9.82003 93.0842C9.46497 94.031 5.20428 89.5337 3.19228 88.9419C1.06193 88.3501 -0.713352 90.2438 2.12711 93.5576C4.96757 96.8715 12.7788 99.4753 15.1459 101.606C17.5129 103.736 18.4598 105.156 18.4598 105.156" fill="white"/>
<path d="M18.4598 106.34C18.1047 106.34 17.7497 106.103 17.513 105.866C17.513 105.866 16.5661 104.565 14.4358 102.553C13.6073 101.842 11.832 100.896 9.93839 99.9488C6.97958 98.5285 3.54735 96.8716 1.77206 94.6229C-0.713341 91.6641 -0.00322832 89.8888 0.470182 89.1787C1.1803 88.1135 2.60053 87.6401 4.13912 87.9952C4.25747 87.9952 4.37582 88.1135 4.49417 88.1135C4.37582 87.9952 4.25747 87.7584 4.13912 87.5217C2.00877 84.4446 2.48218 82.6693 2.95559 81.8408C3.31065 80.894 4.49417 80.4206 5.91441 80.5389C6.15111 80.5389 6.26946 80.5389 6.50617 80.6573C6.26946 80.1839 6.03276 79.7105 5.79605 79.3554C5.08593 77.3434 5.9144 75.9232 6.86123 75.3314C8.28146 74.3846 10.4118 74.6213 11.832 75.9232C11.9504 76.0415 12.1871 76.2782 12.4238 76.515C12.1871 74.3846 13.3706 73.4378 13.844 73.2011C15.1459 72.491 16.9212 72.9644 18.1047 74.1479C18.9332 74.9764 19.88 77.1067 21.3002 80.1839C21.892 81.6041 22.4838 83.0243 22.9572 83.6161C23.4306 84.4446 23.904 84.918 24.3774 84.918C24.9692 85.0363 25.7976 84.4446 26.2711 83.9712C27.3362 83.0243 27.8096 81.6041 28.2831 80.3022C28.5198 79.3554 28.8748 78.5269 29.2299 77.9352C29.94 76.9884 31.1235 76.6333 32.4254 76.9884C33.8456 77.4618 34.7924 78.882 34.7924 80.5389C34.7924 82.6693 31.952 97.5817 31.7153 99.2387C31.5969 99.8304 31.0052 100.304 30.295 100.185C29.7033 100.067 29.2299 99.4754 29.3482 98.7652C30.6501 92.2558 32.4254 81.9592 32.4254 80.5389C32.4254 79.4738 31.8336 79.2371 31.7153 79.2371C31.4786 79.1187 31.2419 79.1187 31.2419 79.3554C31.0052 79.7105 30.7685 80.3022 30.6501 81.0123C30.1767 82.5509 29.5849 84.4446 27.928 85.8648C26.6261 87.0483 25.3242 87.5217 24.0224 87.285C22.8388 87.0483 21.7737 86.2199 20.9452 84.7996C20.4718 83.9712 19.88 82.6693 19.1699 81.0123C18.3414 79.1187 17.1579 76.2782 16.5661 75.6865C16.0927 75.2131 15.3826 75.0947 15.1459 75.2131C15.0276 75.3314 14.9092 75.6865 15.0276 76.515C15.2643 77.9352 16.3294 79.5921 17.2763 81.1307C18.4598 83.0243 19.4066 84.4446 18.9332 85.7465C18.6965 86.2199 18.3414 86.5749 17.7497 86.6933C16.5661 86.8116 15.7377 85.6281 13.2523 81.8408C12.1871 80.3022 11.0036 78.2902 10.2934 77.6985C9.58333 77.1067 8.63651 76.9884 8.1631 77.3434C7.9264 77.4618 7.9264 77.8168 8.04475 78.5269C8.51816 79.7105 10.1751 81.7225 11.477 83.261C13.6073 85.8648 14.5541 87.0483 14.4358 88.1135C14.4358 88.5869 14.1991 88.942 13.844 89.1787C12.4238 90.1255 11.1219 88.5869 9.22828 86.3382C8.28146 85.273 6.38782 83.0243 5.6777 82.906C5.44099 82.906 4.84923 82.906 4.73088 83.261C4.49417 83.6161 4.49417 84.6813 5.79605 86.4566C6.97958 88.1135 8.28146 89.4154 9.34663 90.3622C10.7669 91.6641 11.7137 92.6109 11.3586 93.7944C11.2403 94.2678 10.8852 94.6229 10.4118 94.7413C9.46498 95.0963 8.51816 94.2678 6.50617 92.7293C5.441 91.7824 4.02076 90.5989 3.31065 90.3622C2.83724 90.2439 2.48218 90.3622 2.36383 90.4806C2.12712 90.7173 2.36383 91.6641 3.54735 93.0843C5.08594 94.8596 8.28146 96.3982 11.0036 97.8184C13.1339 98.8836 14.9092 99.7121 16.0927 100.777C18.5781 103.026 19.525 104.446 19.6433 104.565C19.9984 105.156 19.88 105.866 19.2882 106.221C18.9332 106.34 18.6965 106.34 18.4598 106.34Z" fill="black"/>
<path d="M47.3379 200.548C45.7993 208.241 45.681 220.195 44.3791 229.308C43.669 234.279 36.3311 232.977 31.2419 231.794C28.2831 231.083 26.8629 230.847 26.8629 230.847C26.8629 230.847 25.6794 240.907 27.3363 247.534C29.1116 254.636 31.1236 260.317 31.8337 259.961C37.7513 257.476 48.4031 257.713 52.4271 258.068C60.475 258.896 73.6122 254.044 78.2279 246.469C82.0152 240.078 86.0392 228.48 89.9448 227.533C93.8505 226.468 106.633 227.533 112.55 227.533C118.468 227.533 124.267 225.521 126.279 227.533C128.291 229.545 125.214 237.593 124.149 239.605C123.202 241.617 120.361 245.522 119.296 248.6C118.705 250.493 125.924 252.624 130.895 253.689C135.747 254.754 149.831 256.174 149.95 252.979C150.068 249.428 151.607 242.8 152.553 239.96C155.157 232.149 166.046 219.248 169.004 214.632C172.91 208.833 173.857 202.56 171.608 197.116C169.715 192.382 164.744 188.713 161.903 187.056C154.92 182.677 142.967 179.008 142.967 179.008C142.967 179.008 107.579 188.24 90.5366 188.832C73.4938 189.423 52.1904 183.624 52.1904 183.624C52.1904 183.624 48.6398 193.329 47.3379 200.548Z" fill="white"/>
<path d="M31.597 261.145C31.3603 261.145 31.1236 261.145 31.0053 261.027C29.4667 260.198 27.218 252.387 26.0345 247.771C24.3775 241.025 25.4427 231.084 25.561 230.61L25.6794 229.427L26.8629 229.545C26.9813 229.545 28.4015 229.782 31.3603 230.492C33.3723 230.965 39.5267 232.504 42.0121 230.847C42.6038 230.492 42.9589 229.9 43.0772 229.072C43.669 224.811 44.1424 219.958 44.4975 215.224C44.9709 209.662 45.3259 204.454 46.1544 200.193C47.5746 193.092 50.7702 183.506 50.8885 183.151L51.2436 182.086L52.3087 182.322C52.5454 182.322 73.7306 188.122 90.2999 187.53C106.988 186.938 142.138 177.825 142.493 177.706L142.849 177.588L143.204 177.706C143.677 177.825 155.394 181.494 162.377 185.873C164.744 187.293 170.306 191.199 172.555 196.525C174.922 202.442 173.975 209.07 169.833 215.224C169.004 216.408 167.703 218.065 166.282 220.077C161.903 225.876 155.394 234.516 153.5 240.197C152.553 243.037 151.133 249.547 151.015 252.86C151.015 253.334 150.778 254.044 150.068 254.636C146.754 257.239 132.907 255.109 130.54 254.636C127.344 253.926 119.77 252.15 118.35 249.665C117.994 248.955 117.994 248.363 118.113 248.008C118.823 245.878 120.243 243.511 121.427 241.499C122.018 240.433 122.61 239.487 122.965 238.895C124.622 235.463 126.397 229.308 125.214 228.125C124.385 227.296 121.545 227.651 118.705 228.006C116.811 228.243 114.562 228.48 112.314 228.48C110.538 228.48 108.053 228.361 105.331 228.243C99.6498 228.006 92.5486 227.77 90.0632 228.361C87.9329 228.953 85.0924 234.752 82.8437 239.487C81.5418 242.09 80.3583 244.694 79.0564 246.824C74.3223 254.754 60.7118 259.843 52.1904 259.015C48.048 258.541 37.633 258.541 32.1888 260.79C31.9521 261.145 31.7154 261.145 31.597 261.145ZM27.6914 232.149C27.4547 234.989 26.9813 242.209 28.2832 247.179C29.7034 252.979 31.242 257.121 31.9521 258.541C38.4615 256.174 48.9949 256.529 52.3087 256.884C60.0017 257.595 72.6654 252.86 76.9261 245.759C78.1096 243.747 79.4115 241.143 80.595 238.658C83.4355 232.74 86.1576 227.178 89.3531 226.349C92.1936 225.639 99.1764 225.876 105.331 226.113C107.934 226.231 110.42 226.349 112.195 226.349C114.207 226.349 116.338 226.113 118.231 225.876C122.018 225.403 125.096 225.048 126.753 226.704C129.711 229.782 124.977 240.078 124.859 240.197C124.504 241.025 123.912 241.972 123.202 243.037C122.137 244.812 120.717 247.061 120.125 248.836C120.717 249.547 124.267 251.203 130.777 252.505C137.286 253.807 147.464 254.281 148.411 252.86C148.529 249.31 150.068 242.564 151.015 239.605C153.027 233.569 159.773 224.692 164.152 218.775C165.572 216.763 166.874 215.106 167.703 214.041C171.372 208.597 172.318 202.679 170.188 197.59C168.294 192.974 163.087 189.305 160.956 188.003C154.802 184.216 144.505 180.784 142.612 180.192C138.706 181.139 106.514 189.423 90.2999 190.015C75.5059 190.607 57.2796 186.228 52.6638 185.044C51.8353 187.766 49.4683 195.104 48.2847 200.785C47.4563 204.809 47.1012 210.017 46.7462 215.461C46.3911 220.195 46.036 225.166 45.3259 229.427C45.0892 230.965 44.3791 232.03 43.1956 232.859C40.2368 234.871 34.9109 233.924 30.6502 232.859C29.4667 232.504 28.5199 232.385 27.6914 232.149Z" fill="black"/>
<path d="M150.068 252.387C146.991 252.387 138.588 253.571 128.291 251.322C121.545 249.902 119.178 248.245 119.178 248.245L118.705 250.02C117.521 254.399 117.521 260.198 120.835 262.802C124.859 266.116 148.056 265.051 150.778 264.933C154.565 264.814 157.524 261.5 155.512 258.66C154.329 257.003 152.317 255.819 151.133 254.281C150.778 253.807 150.068 252.387 150.068 252.387Z" fill="#D3D3D3"/>
<path d="M139.89 266.353C131.368 266.353 122.61 265.761 120.006 263.749C116.337 260.672 116.337 254.517 117.521 249.665L118.468 246.351L119.77 247.298C119.77 247.298 122.137 248.836 128.409 250.138C136.339 251.795 143.085 251.44 147.109 251.204C148.293 251.085 149.239 251.085 149.95 251.085H150.66L151.015 251.677C151.251 252.269 151.843 253.216 151.962 253.452C152.435 254.162 153.145 254.754 153.855 255.464C154.684 256.174 155.631 257.003 156.222 257.95C157.287 259.37 157.406 261.027 156.696 262.565C155.749 264.577 153.263 265.998 150.66 266.116C147.701 266.234 143.795 266.353 139.89 266.353ZM119.888 250.02L119.77 250.375C118.823 254.281 118.586 259.607 121.427 261.974C123.675 263.749 135.037 264.459 150.541 263.867C152.435 263.749 154.092 262.92 154.684 261.619C155.039 260.908 154.92 260.08 154.447 259.37C153.974 258.66 153.145 257.95 152.435 257.358C151.607 256.648 150.778 255.938 150.068 254.991C149.831 254.754 149.595 254.044 149.239 253.571C148.648 253.571 148.056 253.571 147.346 253.689C143.203 253.926 136.221 254.281 127.936 252.505C123.912 251.559 121.308 250.612 119.888 250.02Z" fill="black"/>
<path d="M31.4785 260.316C30.7684 257.239 26.5077 250.848 26.1526 240.315C25.9159 233.45 26.8628 230.965 26.8628 230.965C26.8628 230.965 25.4425 230.728 24.9691 230.728C20.1167 230.373 14.7908 231.438 13.0155 235.344C10.8852 240.078 17.7496 262.92 18.4597 265.524C19.5249 269.193 23.4305 271.205 25.6792 268.483C26.9811 266.944 27.8096 264.814 28.8748 263.157C29.8216 261.855 31.4785 260.316 31.4785 260.316Z" fill="#D3D3D3"/>
<path d="M23.1939 270.85C22.8389 270.85 22.6022 270.85 22.2471 270.732C19.9984 270.258 18.1048 268.365 17.2763 265.761C15.3827 259.725 9.58338 239.487 11.8321 234.634C13.6074 230.847 18.4598 228.835 24.9692 229.427C25.4426 229.427 26.7445 229.663 26.9812 229.663L28.4015 229.9L27.928 231.202C27.928 231.202 26.9812 233.687 27.3363 240.078C27.6913 247.535 29.94 252.979 31.3603 256.529C31.952 257.95 32.4254 259.015 32.6621 259.843L32.7805 260.553L32.3071 261.027C32.3071 261.027 30.7685 262.447 29.94 263.63C29.585 264.222 29.2299 264.932 28.7565 265.642C28.1647 266.826 27.4546 268.01 26.6262 269.075C25.7977 270.258 24.4958 270.85 23.1939 270.85ZM23.1939 231.675C19.4066 231.675 15.501 232.74 14.1991 235.581C12.7789 238.658 16.0928 252.979 19.7617 264.932C20.2351 266.589 21.537 268.01 22.9572 268.246C23.7857 268.365 24.4958 268.128 25.0876 267.418C25.7977 266.589 26.3895 265.406 26.9812 264.341C27.3363 263.63 27.8097 262.802 28.2831 262.21C28.8749 261.263 29.8217 260.317 30.4134 259.725C30.1767 259.133 29.8217 258.305 29.4666 257.358C27.928 253.689 25.561 248.008 25.2059 240.078C24.9692 235.699 25.3243 233.095 25.6793 231.557C25.4426 231.557 25.3243 231.557 25.2059 231.439C24.2591 231.794 23.7857 231.675 23.1939 231.675Z" fill="black"/>
<path d="M187.23 127.052C187.23 127.052 199.421 115.808 201.196 114.625C203.326 113.323 205.22 115.098 204.628 116.518C204.037 117.938 201.433 119.714 200.959 122.554C200.486 125.868 202.261 126.578 204.392 126.578C206.522 126.578 212.913 125.158 214.688 125.513C216.7 125.986 218.121 128.354 215.043 129.537C211.966 130.721 206.522 129.537 205.693 130.602C204.747 131.786 214.215 131.076 216.464 131.667C219.067 132.378 219.777 135.691 216.819 136.283C213.86 136.875 205.812 134.626 205.693 135.928C205.575 137.23 213.741 136.993 215.043 138.769C216.345 140.544 215.398 142.674 211.138 142.437C206.877 142.201 203.681 140.425 202.971 141.254C202.261 142.082 208.416 143.266 209.954 144.686C211.611 146.225 211.019 148.71 206.522 148C202.143 147.29 196.344 142.319 193.266 141.372C190.189 140.425 188.532 140.425 188.532 140.425" fill="white"/>
<path d="M207.824 149.302C207.351 149.302 206.877 149.302 206.285 149.184C203.445 148.71 200.249 146.817 197.409 145.041C195.634 143.976 193.977 142.911 192.793 142.556C189.953 141.727 188.296 141.609 188.296 141.609C187.586 141.609 187.112 141.017 187.112 140.426C187.112 139.715 187.704 139.242 188.296 139.242C188.414 139.242 190.189 139.36 193.385 140.189C194.805 140.544 196.58 141.727 198.592 142.911C201.196 144.568 204.155 146.343 206.522 146.698C208.297 146.935 209.244 146.58 209.363 146.343C209.481 146.106 209.363 145.751 209.007 145.396C208.534 144.923 206.759 144.331 205.457 143.858C203.09 143.029 202.025 142.674 201.67 141.609C201.551 141.136 201.67 140.662 201.906 140.307C202.735 139.36 204.037 139.715 205.93 140.189C207.351 140.544 209.126 141.017 211.138 141.136C213.268 141.254 214.215 140.662 214.333 140.307C214.57 139.952 214.215 139.479 214.097 139.36C213.623 138.769 210.783 138.414 209.363 138.177C206.404 137.703 204.392 137.467 204.51 135.81C204.51 135.455 204.747 134.981 205.102 134.745C205.93 134.034 207.469 134.271 210.783 134.626C212.913 134.863 215.398 135.218 216.582 134.981C217.055 134.863 217.529 134.626 217.529 134.153C217.529 133.561 217.055 132.851 216.109 132.614C215.28 132.378 212.913 132.378 211.138 132.378C206.64 132.259 205.102 132.259 204.628 131.194C204.392 130.721 204.51 130.129 204.865 129.774C205.694 128.709 207.351 128.709 209.599 128.827C211.374 128.827 213.386 128.827 214.688 128.354C215.398 128.117 215.754 127.762 215.635 127.525C215.635 127.288 215.162 126.697 214.452 126.578C213.623 126.342 210.546 126.815 208.534 127.17C206.877 127.407 205.339 127.643 204.392 127.643C202.735 127.643 201.433 127.288 200.604 126.342C199.776 125.395 199.539 124.093 199.776 122.318C200.131 120.187 201.433 118.649 202.38 117.465C202.853 116.992 203.327 116.4 203.445 116.045C203.563 115.927 203.327 115.69 203.208 115.571C203.09 115.453 202.498 115.098 201.67 115.571C200.368 116.4 192.675 123.383 187.822 127.88C187.349 128.354 186.639 128.354 186.165 127.762C185.692 127.17 185.81 126.578 186.284 126.105C187.586 124.921 198.592 114.743 200.486 113.559C201.906 112.613 203.563 112.731 204.747 113.678C205.694 114.506 206.049 115.69 205.694 116.873C205.457 117.583 204.865 118.175 204.273 119.004C203.445 120.069 202.38 121.252 202.143 122.673C202.025 123.383 202.025 124.33 202.38 124.803C202.735 125.158 203.327 125.276 204.273 125.276C204.983 125.276 206.522 125.04 208.061 124.803C211.374 124.33 213.623 123.974 214.925 124.211C216.582 124.566 217.884 125.868 218.002 127.288C218.002 127.88 217.884 129.3 215.99 130.247C216.345 130.247 216.582 130.366 216.819 130.366C218.712 130.957 220.014 132.614 219.896 134.271C219.896 135.455 219.067 136.875 217.055 137.348C216.582 137.467 216.109 137.467 215.517 137.467C215.635 137.585 215.872 137.703 215.99 137.94C216.819 139.124 217.055 140.426 216.464 141.491C215.99 142.319 214.688 143.739 211.019 143.503C210.783 143.503 210.546 143.503 210.309 143.503C210.428 143.621 210.546 143.621 210.546 143.739C211.73 144.805 212.085 146.225 211.493 147.408C211.375 148.118 210.428 149.302 207.824 149.302Z" fill="black"/>
<path d="M86.8676 112.613C86.8676 112.613 78.4646 118.175 69.233 117.465C60.0015 116.755 51.3618 110.837 47.8112 107.997C44.2606 105.156 36.6861 97.1084 36.0943 95.8065C35.5025 94.5046 15.9744 109.062 15.9744 109.062C15.9744 109.062 17.0395 123.619 27.3362 131.667C37.6329 139.834 52.427 138.769 57.9895 149.184C62.4869 157.587 62.3686 160.19 59.0547 167.528C55.7409 174.866 43.0771 187.648 43.0771 187.648C43.0771 187.648 59.4098 193.566 83.5537 194.749C101.898 195.696 113.142 196.998 138.588 186.346C155.63 179.245 158.708 177.233 158.708 177.233C158.708 177.233 144.624 171.671 142.73 166.818C140.836 161.966 139.89 153.918 145.215 149.184C150.068 144.923 157.524 145.396 164.862 145.16C176.579 144.805 187.231 144.923 187.231 144.923V123.738C187.231 123.738 178.236 122.436 170.661 121.726C163.087 121.016 138.588 117.702 134.8 115.926C131.013 114.151 126.989 112.139 126.989 112.139L86.8676 112.613Z" fill="#E6ECEC"/>
<path d="M99.0579 196.525C95.0339 196.525 91.0099 196.288 86.6309 196.051L83.5537 195.933C59.5281 194.749 42.8404 188.832 42.7221 188.713C42.367 188.595 42.0119 188.24 42.0119 187.885C42.0119 187.53 42.0119 187.056 42.367 186.82C42.4853 186.701 55.0307 174.156 58.1079 167.055C61.1851 160.072 61.4218 157.823 57.0427 149.657C54.0839 144.094 47.9296 141.964 41.5385 139.715C36.4494 137.94 31.2418 136.165 26.7444 132.614C16.0927 124.211 14.9092 109.772 14.9092 109.18C14.9092 108.825 15.0275 108.352 15.3826 108.115C34.319 94.0313 35.7392 94.5047 36.331 94.6231C36.6861 94.7414 37.0411 95.0965 37.1595 95.3332C37.6329 96.3984 44.9708 104.21 48.5213 107.05C51.0067 108.944 59.7648 115.453 69.3514 116.163C77.9911 116.992 86.1575 111.666 86.1575 111.547C86.3942 111.429 86.5125 111.311 86.7492 111.311L126.871 110.837C127.107 110.837 127.226 110.837 127.463 110.956C127.463 110.956 131.605 112.968 135.274 114.743C138.706 116.4 161.903 119.595 170.661 120.542C178.236 121.252 187.231 122.554 187.231 122.554C187.822 122.673 188.296 123.146 188.296 123.738V144.805C188.296 145.16 188.177 145.396 187.941 145.633C187.704 145.87 187.467 145.988 187.112 145.988C186.994 145.988 176.224 145.87 164.744 146.225C163.797 146.225 162.85 146.225 161.903 146.225C155.63 146.343 149.713 146.462 145.807 149.894C140.836 154.391 142.138 162.202 143.677 166.226C145.097 169.777 155.275 174.511 159.063 175.931C159.418 176.05 159.773 176.523 159.773 176.878C159.773 177.352 159.654 177.707 159.299 177.943C159.181 178.062 155.986 180.074 139.061 187.175C121.308 194.868 110.183 196.525 99.0579 196.525ZM45.3258 187.056C50.1783 188.595 64.4989 192.619 83.6721 193.566L86.7492 193.684C103.437 194.631 114.444 195.223 138.233 185.163C148.411 180.902 153.618 178.417 155.986 177.233C151.725 175.34 143.203 171.197 141.665 167.055C139.416 161.374 138.824 153.089 144.387 148.118C148.884 144.094 155.275 143.976 162.022 143.858C162.968 143.858 163.915 143.858 164.862 143.858C174.212 143.621 182.97 143.621 186.047 143.621V124.803C183.443 124.448 176.579 123.501 170.543 122.909C163.087 122.199 138.351 118.885 134.327 116.992C131.131 115.453 127.699 113.796 126.634 113.323L87.1043 113.796C85.4474 114.861 77.6361 119.359 68.9963 118.649C58.6997 117.82 49.4682 111.074 46.8644 108.944C43.7872 106.577 37.2778 99.7122 35.3842 97.1085C33.0171 98.292 24.6141 103.973 17.1579 109.654C17.5129 112.494 19.5249 124.093 28.0463 130.839C32.307 134.153 37.2778 135.928 42.1303 137.585C48.9947 139.952 55.5041 142.319 58.9364 148.71C63.6705 157.468 63.4338 160.545 60.1199 168.12C57.5161 174.156 48.758 183.624 45.3258 187.056Z" fill="black"/>
<path d="M82.8437 170.605C82.8437 170.605 75.1508 177.707 69.5882 181.257C61.7769 186.11 54.084 190.844 54.084 190.844L60.8301 203.508C60.8301 203.508 67.9312 195.696 73.3755 189.542C79.4115 182.677 84.619 172.854 84.619 172.854L82.8437 170.605Z" fill="#ECECEC"/>
<path d="M60.8302 204.573C60.3567 204.573 60.0017 204.336 59.765 203.981L53.0189 191.317C52.6638 190.725 52.9005 190.134 53.4923 189.779C53.6106 189.779 61.1852 185.044 68.9965 180.192C74.4407 176.76 82.0153 169.777 82.1336 169.777C82.3703 169.54 82.7254 169.422 82.9621 169.422C83.3171 169.422 83.5539 169.54 83.7906 169.895L85.5658 172.026C85.9209 172.381 85.9209 172.972 85.6842 173.328C85.4475 173.683 80.24 183.387 74.3223 190.252C68.9965 196.288 61.8953 204.099 61.777 204.218C61.4219 204.454 61.1852 204.573 60.8302 204.573ZM55.6226 191.199L61.0669 201.377C63.3156 198.892 68.4047 193.329 72.4287 188.713C77.3995 183.151 81.8969 175.34 83.1988 172.972L82.7254 172.381C80.4767 174.393 74.7958 179.482 70.18 182.322C64.0257 186.11 57.8713 189.779 55.6226 191.199Z" fill="black"/>
<path d="M84.264 173.328C84.264 173.328 77.5179 184.216 74.9142 187.53C73.0205 189.897 66.8662 196.643 66.8662 196.643L75.1509 204.218C75.1509 204.218 80.3584 192.974 81.6603 189.542C83.0805 185.518 86.0393 174.393 86.0393 174.393L84.264 173.328Z" fill="#ECECEC"/>
<path d="M75.1509 205.52C74.9142 205.52 74.5591 205.401 74.3224 205.164L66.0377 197.59C65.5643 197.116 65.5643 196.406 65.9194 195.933C66.0377 195.815 72.0737 189.187 73.9673 186.82C76.5711 183.624 83.1988 172.854 83.3172 172.736C83.4355 172.499 83.7906 172.262 84.0273 172.144C84.3824 172.026 84.6191 172.144 84.9741 172.381L86.6311 173.564C86.9861 173.801 87.2228 174.393 87.1045 174.866C86.9861 175.34 84.1457 186.11 82.7254 190.134C81.4235 193.566 76.4527 204.454 76.216 204.928C76.0977 205.283 75.7426 205.52 75.3876 205.638C75.2692 205.52 75.1509 205.52 75.1509 205.52ZM68.5231 196.643L74.6774 202.324C76.0977 199.128 79.5299 191.909 80.4767 189.187C81.6603 185.991 83.909 177.707 84.6191 175.103C82.8438 178.062 77.9913 185.636 75.861 188.358C74.3224 190.134 70.2984 194.749 68.5231 196.643Z" fill="black"/>
<path d="M59.1731 167.528C59.1731 167.528 74.0855 170.132 80.1215 170.487C89.1163 171.079 111.958 170.132 120.006 168.948C128.883 167.647 142.257 165.28 142.257 165.28C142.257 165.28 142.73 166.7 143.085 167.292C143.322 167.647 144.387 168.948 144.387 168.948C144.387 168.948 131.723 171.789 119.296 173.564C106.869 175.458 87.5777 175.458 78.3462 174.748C70.5349 174.156 56.5693 172.026 56.5693 172.026L59.1731 167.528Z" fill="#ECECEC"/>
<path d="M92.075 176.286C86.5124 176.286 81.5416 176.168 78.1094 175.931C70.5349 175.34 56.5692 173.209 56.4509 173.209L54.7939 172.973L58.6996 166.226L59.5281 166.345C59.6464 166.345 74.4405 168.949 80.2398 169.304C88.7611 169.777 111.84 168.949 119.888 167.765C128.646 166.463 141.901 164.096 142.138 164.096L143.085 163.859L143.44 164.806C143.677 165.398 144.032 166.345 144.15 166.581C144.269 166.818 144.86 167.528 145.334 168.12L146.517 169.659L144.624 170.014C144.505 170.014 131.842 172.854 119.414 174.748C111.485 175.931 100.951 176.286 92.075 176.286ZM58.4629 171.079C62.3685 171.671 72.3101 173.091 78.2278 173.564C87.2226 174.156 106.396 174.274 118.941 172.381C128.528 170.961 138.233 168.949 142.138 168.12C142.02 168.002 142.02 167.883 141.901 167.765C141.783 167.528 141.546 167.055 141.31 166.581C138.114 167.173 127.344 169.067 120.006 170.132C111.603 171.316 88.7612 172.262 79.8847 171.671C74.6772 171.316 62.8419 169.422 59.6464 168.83L58.4629 171.079Z" fill="black"/>
<path d="M118.145 123.71L115.783 123.867L118.793 169.097L121.154 168.939L118.145 123.71Z" fill="black"/>
<path d="M66.2741 88.3504C66.2741 88.3504 52.6635 77.3436 46.8643 74.8582C45.9174 74.5031 45.2073 74.3848 44.7339 74.3848C44.0238 74.5031 43.3137 74.8582 42.8403 75.2132C36.2125 79.3556 44.2605 93.3212 47.9294 97.9369C49.7047 100.186 55.9774 107.05 61.895 109.18C66.8659 110.956 74.4404 110.246 74.4404 110.246" fill="white"/>
<path d="M71.0082 111.547C73.0202 111.547 74.322 111.429 74.4404 111.429L74.2037 109.062C74.0853 109.062 66.7475 109.654 62.1317 107.997C56.8058 106.103 50.6515 99.8305 48.7579 97.2268C46.0358 93.6762 40.5915 84.4447 41.5384 79.1188C41.7751 77.8169 42.3668 76.8701 43.432 76.2783C43.6687 76.0416 44.3788 75.6866 44.8522 75.6866C44.9706 75.6866 45.444 75.6866 46.3908 76.0416C51.9534 78.4087 65.3272 89.2971 65.4456 89.4155L66.9842 87.5218C66.3924 87.0484 53.1369 76.3967 47.3376 73.7929C46.3908 73.3195 45.444 73.2012 44.6155 73.2012C43.6687 73.3195 42.8402 73.7929 42.1301 74.148C40.5915 75.0948 39.5264 76.6334 39.1713 78.6454C37.9878 85.2731 44.4972 95.5698 46.8642 98.647C48.2845 100.541 54.9122 107.878 61.3032 110.246C64.4988 111.429 68.286 111.547 71.0082 111.547Z" fill="black"/>
<path d="M70.8898 106.577C71.3632 106.577 71.8366 106.222 72.0733 105.748C72.1917 105.157 71.8366 104.446 71.2448 104.328C66.0373 102.908 60.1197 101.014 59.4096 100.422C59.4096 100.304 58.8178 99.4756 61.1849 94.6232C61.5399 93.9131 62.4868 92.0194 55.504 85.7467C55.1489 85.3917 54.7938 85.0366 54.4388 84.6816C51.48 81.8411 46.9826 77.6988 41.0649 78.6456C40.4732 78.7639 39.9998 79.3557 40.1181 80.0658C40.2365 80.6576 40.8282 81.131 41.5383 81.0126C46.3908 80.1842 49.9414 83.6164 52.9002 86.4569C53.2552 86.8119 53.7287 87.167 54.0837 87.522C58.4628 91.4277 59.2912 93.3213 59.1729 93.6764C57.5159 97.1086 56.0957 100.778 58.2261 102.316C59.7646 103.381 68.9962 105.985 70.8898 106.577C70.7714 106.577 70.8898 106.577 70.8898 106.577Z" fill="black"/>
<path d="M142.612 87.1668C142.612 87.1668 156.222 76.16 162.022 73.6746C162.968 73.3195 163.679 73.2012 164.152 73.2012C164.862 73.3195 165.572 73.6746 166.046 74.0296C172.673 78.172 164.625 92.1376 160.956 96.7533C159.181 99.002 152.908 105.866 146.991 107.997C142.02 109.772 134.445 109.062 134.445 109.062" fill="white"/>
<path d="M137.759 110.364C135.747 110.364 134.445 110.245 134.327 110.245L134.564 107.878C134.682 107.878 142.02 108.47 146.636 106.813C151.961 104.92 158.116 98.6469 160.009 96.0432C162.732 92.4926 168.176 83.2611 167.229 77.9352C166.992 76.6333 166.4 75.6865 165.335 75.0947C165.099 74.858 164.388 74.503 163.915 74.503C163.797 74.503 163.323 74.503 162.376 74.858C156.814 77.2251 143.44 88.1135 143.322 88.2319L141.783 86.3382C142.375 85.8648 155.63 75.2131 161.43 72.6093C162.376 72.1359 163.323 72.0176 164.152 72.0176C165.099 72.1359 165.927 72.6093 166.637 72.9644C168.176 73.9112 169.241 75.4498 169.596 77.4618C170.78 84.0895 164.27 94.3862 161.903 97.4634C160.483 99.357 153.855 106.695 147.464 109.062C144.387 110.127 140.481 110.364 137.759 110.364Z" fill="black"/>
<path d="M137.877 105.275C137.404 105.275 136.931 104.92 136.694 104.446C136.575 103.855 136.931 103.144 137.522 103.026C142.73 101.606 148.647 99.7122 149.358 99.1205C149.358 99.0021 149.949 98.1736 147.582 93.3212C147.227 92.6111 146.28 90.7174 153.263 84.4447C153.618 84.0897 153.973 83.7346 154.328 83.3796C157.287 80.5391 161.785 76.3968 167.702 77.3436C168.294 77.4619 168.767 78.0537 168.649 78.7638C168.531 79.3556 167.939 79.829 167.229 79.7106C162.376 78.8822 158.826 82.3144 155.867 85.1549C155.512 85.5099 155.038 85.865 154.683 86.22C150.304 90.1257 149.476 92.0193 149.594 92.3744C151.251 95.8066 152.671 99.4755 150.541 101.014C149.003 102.079 139.771 104.683 137.877 105.275C137.996 105.275 138.114 105.275 137.877 105.275Z" fill="black"/>
<path d="M111.366 125.631C122.728 123.501 128.527 116.873 131.131 113.915C134.918 109.535 138.706 103.144 140.718 96.635C143.795 86.3383 141.073 68.9405 139.889 64.6798C137.049 54.2648 133.617 49.5307 123.438 44.9149C117.284 42.0745 111.248 40.6542 104.028 40.8909C96.0988 41.1276 89.2343 42.4295 85.8021 43.8497C75.7421 48.4655 71.7181 55.0932 68.8777 65.5083C67.6942 69.8873 65.2088 86.4567 68.2859 96.7534C70.2979 103.381 73.9668 109.654 77.8725 114.033C80.4762 116.992 86.2755 123.619 97.6374 125.75C99.176 125.986 103.082 126.342 104.857 126.342C106.395 126.223 109.828 125.986 111.366 125.631Z" fill="white"/>
<path d="M104.738 127.407C102.845 127.407 98.9392 127.052 97.2823 126.815C85.447 124.566 79.411 117.702 76.9256 114.743C72.6649 109.89 68.996 103.263 67.1023 96.99C66.0371 93.4394 65.327 90.3622 65.0903 87.0484C64.4986 79.2371 65.0903 78.2903 65.6821 74.1479C66.3922 69.6505 68.7593 64.2063 68.996 63.1411C71.8364 54.7381 74.0851 48.4654 84.5002 43.7313C87.2223 42.4294 94.7968 40.4174 103.318 40.1807C111.248 39.944 117.402 41.1275 123.201 43.7313C129.119 46.0983 136.812 52.4894 139.771 63.4962C141.073 68.3486 144.86 86.93 141.783 97.2267C139.889 103.499 136.22 110.127 131.96 114.98C129.356 117.938 123.32 124.803 111.485 127.052C110.064 127.17 106.514 127.407 104.738 127.407ZM105.212 42.5478C104.62 42.5478 104.147 42.5478 103.555 42.5478C95.862 42.7845 88.0507 44.6781 85.3286 45.8616C75.6237 50.359 73.02 57.1051 70.6529 64.2063C69.9428 66.8101 67.4574 73.3195 67.2207 81.2491C67.1023 86.3382 68.1675 92.3742 69.351 96.1615C71.1263 102.079 74.5585 108.352 78.7009 113.086C81.0679 115.808 86.7489 122.317 97.7557 124.329C99.1759 124.566 102.963 124.921 104.738 124.921C106.395 124.921 109.709 124.566 111.13 124.329C122.136 122.317 127.817 115.808 130.184 113.086C134.208 108.47 137.759 102.079 139.534 96.1615C142.611 85.7465 139.771 70.0056 138.232 63.6145C136.457 55.5666 129.711 48.5837 122.255 45.8616C117.284 43.8496 111.958 42.5478 105.212 42.5478Z" fill="black"/>
<path d="M105.094 1.95281C105.094 1.95281 108.881 5.02998 112.313 9.05397C115.272 12.6045 118.941 19.3507 118.941 19.3507C118.941 19.3507 114.917 19.5874 113.378 22.5462C112.55 23.9664 113.023 25.6233 113.97 26.6885C114.917 27.872 116.456 28.4638 117.757 27.9904C119.651 27.2803 121.781 25.7417 121.781 25.7417C121.781 25.7417 123.912 31.4226 124.03 37.8137C124.148 46.335 122.373 55.3298 122.255 55.8033C122.136 56.2767 125.214 44.5598 129.829 34.2631C133.498 25.9784 138.587 19.7057 140.244 18.7589C144.032 16.7469 147.819 40.0624 145.097 47.7553C143.085 53.6729 139.179 63.4962 139.179 63.4962C139.179 63.4962 145.215 72.846 145.689 76.1599C146.517 83.7345 136.576 108.233 124.148 97.345C124.148 97.345 119.296 93.4394 112.905 91.1907C110.42 90.3622 106.396 89.6521 104.147 89.6521C101.78 89.6521 97.6375 90.4806 94.797 91.4274C88.6427 93.6761 83.9086 97.345 83.9086 97.345C71.4816 108.233 61.6583 83.6161 62.3684 76.1599C62.6051 72.846 68.8778 63.4962 68.8778 63.4962C68.8778 63.4962 64.9722 53.6729 62.9602 47.7553C60.2381 39.944 63.907 16.6285 67.8126 18.7589C69.4696 19.5874 74.5587 25.86 78.2277 34.2631C82.8434 44.5598 85.8022 56.395 85.8022 55.8033C85.6839 55.3298 83.9086 46.335 84.0269 37.8137C84.1453 31.3043 86.2756 25.7417 86.2756 25.7417C86.2756 25.7417 88.406 27.2803 90.2996 27.9904C91.7199 28.4638 93.1401 27.872 94.0869 26.6885C94.9154 25.6233 95.3888 24.0848 94.6787 22.5462C93.1401 19.5874 89.1161 19.3507 89.1161 19.3507C89.1161 19.3507 92.785 12.6045 95.7439 9.05397C99.1761 4.91163 102.963 1.95281 102.963 1.95281L103.792 0.769287L105.094 1.95281Z" fill="#E8894A"/>
<path d="M77.8725 101.251C76.2156 101.251 74.7954 100.777 73.6118 100.186C65.8006 96.1615 60.9481 81.8408 61.5399 76.1599C61.7766 73.0827 66.5107 65.5082 67.8126 63.4962C66.9841 61.4842 63.7886 53.3179 61.8949 48.2287C59.4095 41.1275 61.8949 21.481 65.6822 18.2855C66.5107 17.6937 67.2208 17.457 68.0493 18.0488C70.0613 19.1139 75.2688 25.7417 78.9377 34.0264C80.4763 37.577 81.8965 41.1275 83.08 44.4414C82.8433 42.4294 82.8433 40.1807 82.8433 37.932C82.9617 31.4226 84.9737 25.7417 85.092 25.3866C85.2104 25.1499 85.4471 24.9132 85.8022 24.7949C86.1572 24.6765 86.3939 24.7949 86.6306 25.0316C86.6306 25.0316 88.6426 26.4518 90.4179 27.1619C91.3647 27.517 92.4299 26.9252 93.0217 26.2151C93.2584 25.86 94.2052 24.6765 93.3767 23.1379C92.0748 20.6525 88.5243 20.5342 88.5243 20.5342C88.2876 20.5342 87.9325 20.2975 87.6958 20.0608C87.4591 19.8241 87.4591 19.3507 87.6958 19.1139C87.9325 18.8772 91.4831 12.2495 94.4419 8.69892C97.8741 4.55658 101.661 1.59776 101.78 1.36106L103.082 0.177529C103.437 -0.0591763 103.91 -0.0591763 104.265 0.177529L105.804 1.36106C106.04 1.47941 109.709 4.43822 113.142 8.69892C116.1 12.3678 119.651 18.8772 119.888 19.1139C120.124 19.3507 120.124 19.8241 119.888 20.0608C119.651 20.2975 119.414 20.5342 119.059 20.5342C119.059 20.5342 115.509 20.7709 114.207 23.1379C113.378 24.5582 114.325 25.7417 114.562 26.2151C115.154 27.0436 116.219 27.6353 117.166 27.1619C118.941 26.4518 120.953 25.0316 120.953 25.0316C121.19 24.7949 121.545 24.7949 121.781 24.7949C122.018 24.9132 122.255 25.0316 122.491 25.3866C122.61 25.6233 124.74 31.3043 124.74 37.932C124.74 40.0624 124.622 42.3111 124.503 44.4414C125.687 41.1275 126.989 37.4586 128.646 34.0264C132.315 25.86 137.404 19.1139 139.534 18.0488C140.363 17.6937 141.191 17.8121 141.901 18.2855C145.689 21.481 148.174 41.1275 145.689 48.2287C143.913 53.3179 140.836 61.1291 139.889 63.1411C141.191 65.1531 146.162 73.0827 146.517 76.1599C147.109 81.7225 142.138 96.7533 134.327 100.777C131.841 102.197 127.462 102.197 122.847 98.2919C122.847 98.2919 117.994 94.5046 111.84 92.3742C109.354 91.5458 105.33 90.954 103.437 90.954C101.306 90.954 97.164 91.6641 94.5603 92.6109C88.6426 94.7413 84.3819 98.1735 84.0269 98.5286C82.2516 100.541 79.8845 101.251 77.8725 101.251ZM67.3391 19.7057C67.3391 19.7057 67.1024 19.8241 66.5107 20.6525C63.7886 25.505 61.7766 41.601 64.0253 47.5186C66.0373 53.3179 69.9429 63.0228 69.9429 63.1411C70.0613 63.3778 70.0613 63.7329 69.8246 63.9696C68.1676 66.455 63.9069 73.6745 63.5519 76.1599C63.0784 81.2491 67.8126 94.6229 74.5587 98.1735C77.5175 99.7121 80.4763 99.1203 83.4351 96.5166C83.6718 96.2799 88.2876 92.7293 94.5603 90.3622C97.164 89.4154 101.543 88.5869 104.147 88.5869C106.632 88.5869 110.656 89.2971 113.26 90.2439C119.769 92.4926 124.622 96.3982 124.859 96.5166C127.936 99.1203 130.895 99.7121 133.853 98.1735C140.599 94.6229 145.452 81.2491 144.86 76.1599C144.623 73.6745 140.244 66.455 138.587 63.9696C138.351 63.7329 138.351 63.3778 138.469 63.1411C138.469 63.0228 142.493 53.3179 144.387 47.5186C146.517 41.601 144.623 25.3866 141.901 20.6525C141.428 19.8241 141.073 19.7057 141.073 19.7057C139.653 20.5342 134.682 26.5702 131.013 34.7365C127.107 43.4946 124.385 53.1995 123.557 56.04V56.1583C123.32 57.1051 122.491 56.9868 122.373 56.9868C121.9 56.8684 121.545 56.2767 121.663 55.8033C121.9 54.8564 123.557 45.98 123.438 38.0504C123.438 33.553 122.255 29.2923 121.663 27.3986C120.835 27.872 119.651 28.7005 118.586 29.0556C116.929 29.6473 114.917 29.0556 113.733 27.517C112.55 25.9784 112.195 23.9664 113.023 22.3095C114.207 20.1791 116.455 19.2323 117.876 18.8772C116.692 16.8653 114.207 12.4862 111.958 10.0008C108.763 6.09516 105.094 3.13634 104.857 2.89964L104.028 2.18952L103.2 2.89964C103.082 3.01799 99.4127 5.97681 96.0988 10.0008C93.9685 12.4862 91.3647 16.8653 90.1812 18.8772C91.6014 19.2323 93.9685 20.1791 95.0337 22.3095C95.8621 23.9664 95.6254 25.9784 94.3236 27.517C93.0217 29.0556 91.128 29.6473 89.4711 29.0556C88.2876 28.7005 87.104 27.872 86.3939 27.3986C85.8022 29.4106 84.737 33.553 84.6186 38.0504C84.5003 46.0984 86.1572 54.7381 86.3939 55.8033C86.5123 56.2767 86.1572 56.8684 85.6838 56.9868C85.5655 56.9868 84.8553 57.2235 84.5003 56.2767V56.1583C83.6718 53.3179 80.9497 43.4946 77.0441 34.8548C73.6118 26.5702 68.7594 20.5342 67.3391 19.7057Z" fill="black"/>
<path d="M78.1092 60.8925C77.8725 60.8925 77.399 60.6558 77.2807 60.4191C77.044 60.1824 73.3751 53.9097 71.4814 47.5187C69.7061 41.6011 68.8777 36.0385 68.8777 35.9201C68.7593 35.4467 69.1144 34.855 69.7061 34.855C70.1795 34.7366 70.7713 35.0917 70.7713 35.6834C70.7713 35.8018 71.5998 41.246 73.2567 46.9269C75.1504 53.0813 78.8193 59.2356 78.8193 59.3539C79.056 59.8274 78.9376 60.4191 78.5826 60.7742C78.3459 60.8925 78.2275 60.8925 78.1092 60.8925Z" fill="black"/>
<path d="M104.384 59.8272C104.265 59.8272 104.265 59.8272 104.147 59.8272C103.673 59.7089 103.318 59.2355 103.318 58.6437C103.318 58.407 106.632 41.3642 104.147 20.0608C104.028 19.5873 104.384 19.1139 104.975 18.9956C105.567 18.8772 105.922 19.2323 106.04 19.824C108.526 41.3642 105.212 58.7621 105.094 58.9988C105.212 59.5905 104.857 59.8272 104.384 59.8272Z" fill="black"/>
<path d="M131.013 60.5374C130.776 60.5374 130.658 60.5374 130.54 60.419C130.066 60.1823 129.829 59.5906 130.185 59.1172C130.185 58.9988 133.853 52.8445 135.747 46.6901C137.404 41.0092 138.232 35.4466 138.232 35.4466C138.351 34.9732 138.824 34.6182 139.298 34.6182C139.771 34.7365 140.126 35.2099 140.126 35.6833C140.126 35.8017 139.298 41.3643 137.522 47.2819C135.51 53.6729 131.841 59.9456 131.723 60.1823C131.486 60.419 131.25 60.5374 131.013 60.5374Z" fill="black"/>
<path opacity="0.47" d="M121.545 96.3983C121.545 96.3983 120.953 94.3863 120.006 92.0192C119.533 90.8357 118.941 89.4155 118.112 87.8769C117.047 85.8649 115.745 83.9713 114.798 82.7877C113.852 81.6042 112.905 80.6574 112.076 79.9473C111.248 79.1188 110.301 78.6454 109.591 78.172C108.526 77.5802 107.461 77.4619 106.75 77.3435C106.75 77.3435 111.366 81.6042 113.26 85.7465C115.982 91.6642 117.047 96.635 117.047 96.635C117.047 96.635 117.876 96.5166 119.059 96.3983C119.651 96.3983 121.545 96.3983 121.545 96.3983Z" fill="#EFE8E6"/>
<path d="M102.49 58.9987C98.821 57.3418 95.152 54.383 92.6666 54.6197C91.0097 54.8564 85.0921 56.6317 80.0029 58.8804C74.2036 61.3658 69.8246 63.8512 69.8246 63.8512C69.2328 64.9164 66.7474 68.9404 65.0905 72.1359C64.3804 73.5561 63.6703 74.858 63.5519 76.2782C63.4335 76.87 63.4335 77.4618 63.5519 78.1719C63.6703 78.7636 63.6703 79.4737 63.907 80.6573C64.262 82.6693 64.8538 84.5629 65.6823 86.5749C66.5107 88.7053 67.4575 90.8356 68.7594 92.8476C71.0081 96.3982 73.6119 98.7652 76.689 99.357C77.2808 99.4753 78.1093 99.4753 78.9377 99.357C80.2396 99.1203 81.5415 98.5285 82.6067 97.7001C82.9617 97.4633 83.3168 97.1083 83.6718 96.8716C84.382 96.3982 84.8554 96.0431 85.3288 95.9248C85.3288 95.9248 86.749 88.942 92.4299 81.4857C95.9805 76.9883 99.5311 75.5681 101.898 75.2131C102.135 75.2131 103.792 74.9763 104.384 74.9763C105.094 74.9763 106.632 75.2131 107.106 75.2131C109.473 75.6865 112.905 77.225 116.219 81.4857C122.018 88.942 123.32 95.9248 123.32 95.9248C124.03 96.1615 125.095 96.9899 125.805 97.7001C126.752 98.5285 128.291 99.1203 129.474 99.4753C130.303 99.5937 131.013 99.5937 131.723 99.4753C134.682 99.0019 137.404 96.3982 139.653 92.9659C141.073 90.8356 141.901 88.8236 142.73 86.6933C143.558 84.7996 144.032 82.7876 144.505 80.7756C144.742 79.9472 144.742 79.1187 144.86 78.2902C144.979 77.6985 144.979 76.7516 144.86 76.1599C144.623 74.7396 144.032 73.6745 143.322 72.2542C142.375 70.2422 141.428 68.7037 140.481 67.1651C139.771 65.8632 139.061 64.9164 138.706 64.3246C138.706 64.3246 134.327 61.7209 129.238 59.4722C123.675 56.9867 117.521 54.8564 115.627 54.6197C113.142 54.383 109.709 57.1051 106.277 58.762C106.04 58.8804 104.857 59.5905 104.384 59.5905C103.91 59.5905 102.727 59.1171 102.49 58.9987Z" fill="#EFE8E6"/>
<path d="M123.557 96.99C123.557 96.99 119.533 101.251 115.745 104.328C112.313 107.05 109.473 109.654 108.644 110.245C107.816 110.837 106.041 111.547 104.384 111.547C102.49 111.547 100.951 110.837 100.123 110.245C99.2945 109.654 96.454 107.05 93.0218 104.328C89.2345 101.251 85.0922 96.99 85.0922 96.99H123.557Z" fill="#9B9697"/>
<path d="M104.384 112.613C102.372 112.613 100.596 111.903 99.5312 111.192C99.1762 110.956 98.466 110.364 97.5192 109.535C96.099 108.352 94.442 106.813 92.3117 105.275C88.5244 102.198 84.5004 98.0553 84.2637 97.8186C84.027 97.5819 84.027 97.3451 84.1454 96.9901C84.2637 96.635 84.7371 96.1616 85.0922 96.1616H123.32C123.675 96.1616 123.912 96.3983 124.03 96.7534C124.267 97.1084 124.267 97.5819 124.03 97.8186C123.793 98.0553 119.888 102.079 116.101 105.275C114.089 106.932 112.313 108.47 110.893 109.535C109.946 110.364 109.236 110.956 108.881 111.192C108.171 111.903 106.159 112.613 104.384 112.613ZM87.4592 97.9369C88.9978 99.3571 91.3649 101.724 93.6136 103.499C95.6256 105.156 97.5192 106.695 98.8211 107.879C99.6496 108.707 100.36 109.299 100.715 109.417C101.307 109.772 102.727 110.482 104.384 110.482C105.686 110.482 107.461 109.772 108.053 109.417C108.289 109.18 108.999 108.589 110.065 107.76C111.485 106.577 113.142 105.038 115.272 103.381C117.521 101.487 119.888 99.2388 121.426 97.8186L87.4592 97.9369Z" fill="black"/>
<path d="M110.538 76.7515C114.207 78.7635 117.639 82.6692 120.361 89.0602C122.846 94.3861 122.965 96.6348 122.965 96.6348C122.965 96.6348 114.798 95.9247 111.603 98.6468C108.881 101.014 107.579 103.854 105.804 104.801C105.567 104.919 104.739 105.275 104.028 105.275C103.2 105.275 102.371 104.919 102.016 104.564C100.359 103.499 99.1759 100.777 96.5722 98.6468C93.3767 95.9247 85.2103 96.6348 85.2103 96.6348C85.2103 96.6348 85.447 94.3861 87.8141 89.0602C90.6546 82.6692 94.2051 78.7635 97.6373 76.7515C98.3475 76.3965 100.596 75.3313 103.91 75.3313C107.106 75.3313 109.828 76.3965 110.538 76.7515Z" fill="#9B9697"/>
<path d="M104.265 106.34C103.2 106.34 102.135 105.867 101.78 105.511C100.833 104.92 100.123 103.973 99.2944 102.789C98.4659 101.724 97.5191 100.422 96.2172 99.3571C93.8502 97.3451 87.8142 97.3451 85.6838 97.5818C85.4471 97.5818 85.0921 97.4635 84.8554 97.3451C84.6186 97.1084 84.6187 96.8717 84.6187 96.5167C84.6187 96.3983 84.8554 94.0312 87.3408 88.587C90.0629 82.551 93.6134 78.172 97.6374 75.9233C98.7026 75.3315 101.07 74.2664 104.384 74.2664C107.461 74.2664 110.301 75.4499 111.13 75.9233C115.154 78.172 118.704 82.551 121.426 88.587C123.912 94.0312 124.148 96.3983 124.148 96.5167C124.148 96.7534 124.03 97.1084 123.912 97.3451C123.675 97.5818 123.438 97.5818 123.083 97.5818C120.953 97.3451 114.917 97.3451 112.55 99.3571C111.248 100.422 110.301 101.724 109.473 102.789C108.526 104.091 107.697 105.156 106.514 105.748C106.396 105.748 105.33 106.34 104.265 106.34ZM87.8142 95.6882C90.6546 95.6882 95.0337 95.9249 97.4007 98.0552C98.821 99.2388 99.8861 100.541 100.715 101.724C101.543 102.671 102.135 103.618 102.727 103.973C102.963 104.21 103.673 104.446 104.147 104.446C104.62 104.446 105.212 104.21 105.567 104.091C106.277 103.736 106.987 102.789 107.816 101.724C108.644 100.541 109.709 99.2388 111.13 98.0552C113.733 95.8065 119.296 95.6882 121.9 95.6882C121.663 94.5047 120.953 92.4927 119.533 89.4155C117.047 83.7346 113.733 79.5922 110.064 77.5802C109.591 77.3435 106.987 76.16 104.265 76.16C101.188 76.16 99.176 77.1068 98.4659 77.5802C94.797 79.5922 91.4831 83.7346 88.9977 89.4155C87.5775 92.4927 86.9857 94.5047 86.6306 95.6882C86.9857 95.6882 87.3408 95.6882 87.8142 95.6882Z" fill="black"/>
<path d="M139.061 64.443C138.942 64.443 138.824 64.443 138.706 64.3247C138.587 64.3247 129.948 60.064 126.989 58.7621C124.03 57.3419 117.047 55.3299 117.047 55.3299C115.627 54.7381 114.207 54.8565 112.905 55.5666L106.04 59.5906C105.212 60.064 104.62 60.419 104.028 60.419C103.437 60.419 102.49 59.9456 101.898 59.4722L95.0335 55.5666C93.7316 54.7381 92.3114 54.7381 91.0095 55.3299C90.7728 55.4482 83.9084 57.4602 80.9495 58.8804C77.9907 60.1823 69.351 64.443 69.2326 64.443C68.7592 64.6797 68.1675 64.443 67.9308 63.9696C67.694 63.4962 67.9307 62.9044 68.4042 62.6677C68.5225 62.6677 77.2806 58.407 80.2394 57.1052C83.3166 55.6849 90.181 53.6729 90.5361 53.5546C92.3114 52.7261 94.4417 52.9628 96.217 54.028L103.081 57.9336C103.555 58.1703 104.028 58.5254 104.265 58.6437C104.502 58.5254 104.857 58.407 105.212 58.1703L112.076 54.1463C113.733 53.0812 115.864 52.9628 117.876 53.6729C118.112 53.7913 124.977 55.8033 128.054 57.2235C131.013 58.5254 139.179 62.431 139.534 62.6677C139.652 62.7861 139.771 63.2595 139.534 63.7329C139.179 64.088 139.297 64.443 139.061 64.443Z" fill="black"/>
<path opacity="0.46" d="M83.6718 95.2149C82.4883 95.925 80.8314 96.9902 78.4643 97.1086C75.2688 97.3453 72.665 94.1497 70.298 90.9542C67.9309 87.7587 65.0905 78.8822 64.9721 76.5152C64.8538 74.1481 65.5639 71.426 65.5639 71.426C65.5639 71.426 65.2088 72.0178 64.7354 72.9646C64.1436 74.2665 63.4335 75.8051 63.5519 77.462C63.6702 78.2905 63.7886 78.8822 64.0253 80.7759C64.262 82.1961 64.7354 83.8531 65.5639 85.9834C65.9189 86.8119 66.3923 87.9954 66.8657 88.9422C69.5879 95.0966 72.4283 97.3453 74.677 98.5288C75.5055 98.8838 76.2156 99.1205 77.0441 99.2389C77.6358 99.3572 78.701 99.2389 79.4111 99.1205C80.3579 98.8838 81.1864 98.5288 81.8965 98.1737C82.725 97.7003 83.0801 97.3453 83.9085 96.7535C84.6186 96.2801 84.9737 96.0434 84.9737 96.0434C84.9737 96.0434 85.0921 95.3333 85.2104 94.9782C85.2104 94.7415 85.5655 93.913 85.5655 93.913C85.5655 93.913 84.0269 94.9782 83.6718 95.2149Z" fill="#9B9697"/>
<path opacity="0.46" d="M124.858 95.3329C125.805 95.8063 127.817 96.9899 130.184 97.1082C133.617 96.9899 135.984 94.1494 138.351 90.9539C140.718 87.7584 143.558 78.6452 143.677 76.5149C143.913 73.4377 143.203 71.7808 143.203 71.7808C143.203 71.7808 143.795 72.7276 144.268 73.9111C144.623 74.7396 145.097 76.0415 144.978 77.4617C144.86 78.2902 144.86 78.8819 144.505 80.6572C144.387 81.604 143.913 83.261 143.44 84.9179C142.966 86.3381 142.375 87.7584 141.901 88.8235C141.073 90.7172 140.244 92.2558 139.416 93.4393C137.404 96.2798 135.392 98.1734 133.853 98.7652C133.261 99.0019 132.551 99.3569 131.723 99.4753C131.131 99.5936 130.303 99.5936 129.711 99.4753C128.882 99.2386 128.054 98.8835 127.344 98.5285C126.87 98.2917 126.16 97.8183 125.45 97.1082C124.74 96.5165 124.385 96.2798 124.385 96.2798C124.385 96.2798 124.267 95.688 124.148 95.3329C124.03 95.0962 123.912 94.2678 123.912 94.2678C123.912 94.2678 124.503 95.0962 124.858 95.3329Z" fill="#9B9697"/>
<path opacity="0.47" d="M135.865 60.8923C135.865 60.8923 139.297 54.3829 141.073 49.4121C141.901 47.2817 143.203 42.7843 143.203 38.0502C143.203 32.1326 142.375 26.215 142.138 25.0314C141.901 23.1378 141.073 19.7056 141.073 19.7056C141.073 19.7056 141.428 19.8239 141.783 20.4157C142.02 20.8891 142.375 21.4809 142.73 22.546C143.795 25.5048 144.623 29.8839 144.978 34.2629C145.333 38.642 145.333 43.021 144.742 45.9799C144.505 47.4001 143.913 48.9387 143.321 50.5956C141.665 54.9747 138.824 62.3125 138.824 62.3125L135.865 60.8923Z" fill="#EFE8E6"/>
<path opacity="0.47" d="M121.663 27.3984C122.373 29.7655 123.083 32.606 123.32 35.5648C123.557 38.0502 123.438 40.6539 123.32 43.021C123.083 45.5064 122.846 48.3469 122.491 50.5956C122.136 53.3177 121.781 54.8562 121.781 54.8562L118.349 53.7911C118.349 53.7911 119.888 46.4532 119.888 41.364C120.006 35.6831 119.769 34.1445 118.704 29.0554C118.704 29.0554 119.533 28.7003 120.124 28.3453C121.189 27.6351 121.663 27.3984 121.663 27.3984Z" fill="#EFE8E6"/>
<path opacity="0.47" d="M117.876 18.8774C117.876 18.8774 115.035 14.025 113.615 12.1313C113.142 11.4212 112.432 10.4744 111.603 9.52756C110.183 7.75227 107.934 5.62192 107.224 4.91181C106.041 3.84663 104.857 2.89981 104.029 2.1897C104.029 2.1897 108.171 7.75227 109.118 8.81744C110.538 10.7111 113.023 14.6167 113.97 16.6287C114.444 17.4572 115.39 19.8242 115.39 19.8242C115.39 19.8242 115.982 19.4692 116.456 19.2325C117.284 19.1141 117.876 18.8774 117.876 18.8774Z" fill="#EFE8E6"/>
<path d="M130.169 79.9293C132.377 77.8886 132.01 73.8994 129.348 71.0192C126.686 68.139 122.738 67.4584 120.53 69.4991C118.322 71.5398 118.69 75.529 121.351 78.4092C124.013 81.2894 127.961 81.97 130.169 79.9293Z" fill="white"/>
<path d="M126.752 82.0774C124.622 82.0774 122.255 81.1306 120.479 79.1186C119.059 77.58 118.231 75.6864 117.994 73.7928C117.757 71.8991 118.467 70.1238 119.769 68.8219C122.373 66.3365 126.989 67.0467 129.948 70.2422C131.368 71.7808 132.196 73.6744 132.433 75.568C132.67 77.4617 131.96 79.237 130.658 80.5389C129.593 81.604 128.291 82.0774 126.752 82.0774ZM123.912 69.177C122.965 69.177 121.9 69.4137 121.308 70.1238C120.479 70.9523 120.006 72.1358 120.124 73.4377C120.243 74.8579 120.953 76.3965 122.136 77.6984C124.385 80.1838 127.699 80.7756 129.593 79.1186C130.421 78.2902 130.894 77.1066 130.776 75.8048C130.658 74.3845 129.948 72.8459 128.764 71.5441C127.226 70.1238 125.45 69.177 123.912 69.177Z" fill="black"/>
<path d="M128.081 77.6694C129.329 76.5159 129.118 74.2578 127.609 72.6257C126.101 70.9936 123.866 70.6055 122.618 71.7589C121.37 72.9124 121.581 75.1705 123.09 76.8026C124.598 78.4348 126.832 78.8228 128.081 77.6694Z" fill="black"/>
<path d="M126.16 78.7636C124.977 78.7636 123.675 78.1718 122.728 77.1066C121.071 75.3313 120.834 72.8459 122.373 71.544C123.083 70.8339 124.03 70.7156 125.095 70.7156C126.16 70.9523 127.107 71.4257 127.936 72.2542C128.764 73.0826 129.238 74.1478 129.356 75.213C129.474 76.2782 129.119 77.225 128.409 77.8167C127.699 78.4085 126.989 78.7636 126.16 78.7636ZM124.385 71.4257C123.675 71.4257 123.202 71.6624 122.728 72.0175C121.545 73.0826 121.781 75.0946 123.083 76.6332C124.503 78.0534 126.515 78.5268 127.581 77.4617C128.054 76.9883 128.409 76.1598 128.291 75.4497C128.172 74.6212 127.817 73.6744 127.107 72.9643C126.397 72.1358 125.569 71.7807 124.622 71.544C124.74 71.4257 124.622 71.4257 124.385 71.4257Z" fill="black"/>
<path d="M87.0961 78.6353C89.7578 75.7551 90.1255 71.7659 87.9174 69.7253C85.7092 67.6846 81.7614 68.3651 79.0996 71.2454C76.4378 74.1256 76.0701 78.1148 78.2783 80.1554C80.4864 82.1961 84.4343 81.5156 87.0961 78.6353Z" fill="white"/>
<path d="M81.5415 82.0777C80.1212 82.0777 78.701 81.6043 77.6358 80.6575C76.3339 79.474 75.6238 77.6987 75.8605 75.6867C76.0972 73.7931 76.8074 71.8994 78.3459 70.3608C81.4231 67.1653 85.9205 66.4552 88.5243 68.9406C91.128 71.426 90.8913 76.0418 87.8142 79.2373C86.0389 81.0126 83.7902 82.0777 81.5415 82.0777ZM84.5003 69.2957C82.9617 69.2957 81.068 70.1241 79.6478 71.6627C78.4643 72.8462 77.7542 74.3848 77.6358 75.9234C77.5175 77.3436 77.8725 78.4088 78.8193 79.2373C80.713 80.8942 84.0269 80.3024 86.2756 77.817C88.5243 75.3316 88.8793 71.8994 87.104 70.2425C86.5123 69.6507 85.5654 69.2957 84.5003 69.2957Z" fill="black"/>
<path d="M85.3578 77.0289C86.8661 75.3967 87.0771 73.1386 85.829 71.9852C84.5809 70.8317 82.3464 71.2198 80.838 72.8519C79.3297 74.484 79.1187 76.7422 80.3668 77.8956C81.6149 79.049 83.8494 78.661 85.3578 77.0289Z" fill="black"/>
<path d="M82.1333 78.7636C81.3048 78.7636 80.5947 78.5269 80.0029 77.9352C79.2928 77.2251 78.9378 76.3966 79.0561 75.3314C79.1745 74.2662 79.6479 73.3194 80.4764 72.3726C81.3048 71.5441 82.2516 70.9524 83.3168 70.834C84.382 70.5973 85.3288 70.9524 86.0389 71.6625C86.749 72.3726 87.1041 73.2011 86.9858 74.2662C86.8674 75.3314 86.394 76.2782 85.5655 77.2251C84.737 78.0535 83.7902 78.6453 82.7251 78.7636C82.7251 78.7636 82.4884 78.7636 82.1333 78.7636ZM83.9086 71.4258C83.6719 71.4258 83.6719 71.4258 83.4352 71.4258C82.6067 71.5441 81.6599 72.0175 80.9498 72.846C80.2397 73.6745 79.8846 74.5029 79.7662 75.3314C79.6479 76.1599 80.0029 76.87 80.4764 77.3434C80.9498 77.8168 81.7782 78.0535 82.6067 77.9352C83.4352 77.8168 84.382 77.3434 85.0921 76.5149C85.8022 75.6865 86.1573 74.858 86.2756 74.0295C86.394 73.2011 86.0389 72.491 85.5655 72.0175C85.0921 71.5441 84.5003 71.4258 83.9086 71.4258Z" fill="black"/>
<path d="M104.147 76.0416C103.555 76.0416 103.318 75.9233 103.318 75.3315L103.2 59.5906C103.2 58.9989 103.555 58.6438 104.147 58.6438C104.738 58.6438 105.093 58.9989 105.093 59.5906L105.212 75.3315C105.212 75.8049 104.738 76.0416 104.147 76.0416Z" fill="black"/>
</svg>
