<svg width="76" height="76" viewBox="0 0 76 76" fill="none" xmlns="http://www.w3.org/2000/svg">
<rect width="76" height="76" rx="38" fill="black" fill-opacity="0.1"/>
<path d="M57.9219 53.625C57.9219 53.9358 57.7984 54.2339 57.5786 54.4536C57.3589 54.6734 57.0608 54.7969 56.75 54.7969H19.25C18.9392 54.7969 18.6411 54.6734 18.4214 54.4536C18.2016 54.2339 18.0781 53.9358 18.0781 53.625V22.375C18.0781 22.0642 18.2016 21.7661 18.4214 21.5464C18.6411 21.3266 18.9392 21.2031 19.25 21.2031C19.5608 21.2031 19.8589 21.3266 20.0786 21.5464C20.2984 21.7661 20.4219 22.0642 20.4219 22.375V44.5469L30.9219 34.0469C31.1416 33.8274 31.4395 33.7042 31.75 33.7042C32.0605 33.7042 32.3584 33.8274 32.5781 34.0469L38 39.4668L49.2344 28.2344H44.25C43.9392 28.2344 43.6411 28.1109 43.4214 27.8911C43.2016 27.6714 43.0781 27.3733 43.0781 27.0625C43.0781 26.7517 43.2016 26.4536 43.4214 26.2339C43.6411 26.0141 43.9392 25.8906 44.25 25.8906H52.0625C52.3733 25.8906 52.6714 26.0141 52.8911 26.2339C53.1109 26.4536 53.2344 26.7517 53.2344 27.0625V34.875C53.2344 35.1858 53.1109 35.4839 52.8911 35.7036C52.6714 35.9234 52.3733 36.0469 52.0625 36.0469C51.7517 36.0469 51.4536 35.9234 51.2339 35.7036C51.0141 35.4839 50.8906 35.1858 50.8906 34.875V29.8906L38.8281 41.9531C38.6084 42.1726 38.3105 42.2958 38 42.2958C37.6895 42.2958 37.3916 42.1726 37.1719 41.9531L31.75 36.5332L20.4219 47.8613V52.4531H56.75C57.0608 52.4531 57.3589 52.5766 57.5786 52.7964C57.7984 53.0161 57.9219 53.3142 57.9219 53.625Z" fill="white"/>
</svg>
