<svg width="583" height="339" viewBox="0 0 583 339" fill="none" xmlns="http://www.w3.org/2000/svg">
<g clip-path="url(#clip0_6009_15199)">
<path d="M217.757 306.909C182.5 346.868 100.999 322.775 101 339C101 345 202.737 353.731 205.313 354.358C218.923 357.668 231.67 361.924 245.135 365.919C278.675 375.871 311.949 382.012 347.097 382.137C383.329 382.265 418.877 377.302 454.76 372.583C490.067 367.939 526.803 365.773 561.781 358.854C579.336 355.381 591.682 350.834 594.778 333.805C597.662 317.944 594.858 302.565 594.858 286.757C594.858 257.056 596.38 227.632 597.428 197.962C599.647 135.066 588.532 73.0326 589.078 10.2539C589.122 5.19648 592.778 -4.15936 586.188 2.06479C582.359 5.68114 578.159 8.89562 574.225 12.5019C548.873 35.7416 511.988 42.2692 494.02 74.0007C483.03 93.409 476.439 102.391 467.824 122.877C456.909 148.83 427.309 163.343 410.5 185.5C401.481 197.389 402.107 227.111 398.319 241.316C392.879 261.718 400.206 286.414 385.313 304.099C379.759 310.694 377.458 315.419 368.5 317.5C357.713 320.006 349.537 315.883 341.317 309.157C333.005 302.356 324.126 295.411 316.107 288.283C311.391 284.091 305.112 281.703 300.773 277.364C295.136 271.727 293.726 270.843 284.5 269C280.054 268.112 268.027 268.746 263.5 269C255.143 269.468 253.469 272.179 246.821 276.481C235.345 283.906 226.732 296.738 217.757 306.909Z" fill="#178EA7"/>
</g>
<defs>
<clipPath id="clip0_6009_15199">
<rect width="482" height="338" fill="white" transform="translate(101)"/>
</clipPath>
</defs>
</svg>
