<svg width="228" height="194" viewBox="0 0 228 194" fill="none" xmlns="http://www.w3.org/2000/svg">
<path d="M9.42537 140.159C5.85944 140.159 2.29348 139.465 1.20388 143.229C0.411453 145.706 2.39253 151.847 4.1755 153.729C7.44428 157.196 10.614 157.691 17.7459 158.187C25.9674 158.781 39.934 158.979 39.934 158.979L36.7642 138.574C35.0803 138.475 32.8021 139.366 30.9201 137.881C28.3446 135.8 26.6607 133.621 26.1655 132.135C25.0759 128.966 24.2835 127.381 22.2033 127.381C21.4109 127.381 19.3308 127.381 18.8355 129.461C17.944 133.027 20.3213 135.107 20.1232 138.673C20.0241 139.664 19.1326 140.258 18.1421 140.258C14.5762 140.357 12.0008 140.258 9.42537 140.159Z" fill="#E3E8EE"/>
<path d="M39.8341 159.971C40.1313 159.971 40.4285 159.872 40.6266 159.674C40.8247 159.476 40.9237 159.179 40.8247 158.881L37.655 138.476C37.5559 137.981 37.1597 137.684 36.7634 137.684C36.2682 137.684 35.6739 137.684 35.0795 137.783C33.7918 137.882 32.5041 138.08 31.5136 137.288C28.8391 135.208 27.4524 133.127 27.0562 132.038C26.0656 129.264 25.1742 126.59 22.1035 126.59C19.1319 126.59 18.1413 128.175 17.8442 129.462C17.3489 131.741 17.8442 133.425 18.3394 135.009C18.7357 136.198 19.1319 137.387 19.0328 138.773C19.0328 139.269 18.5375 139.467 18.0423 139.467C16.0612 139.467 14.3773 139.368 12.7924 139.368C11.6038 139.368 10.5142 139.269 9.4246 139.269C8.92933 139.269 8.43404 139.269 8.03782 139.269C4.96715 139.17 1.40121 139.071 0.212566 143.033C-0.678917 145.905 1.40123 152.344 3.38231 154.424C6.94825 158.287 10.7123 158.683 17.6461 159.278C25.7685 159.773 39.7351 159.971 39.8341 159.971ZM35.872 139.665L38.7445 157.99C35.1786 157.891 24.4808 157.792 17.7451 157.198C10.5142 156.702 7.74067 156.207 4.76905 153.037C3.28325 151.452 1.40121 145.608 2.09459 143.528C2.78796 141.151 4.57096 141.052 7.93879 141.151C8.43406 141.151 8.92933 141.151 9.4246 141.151C10.5142 141.151 11.6038 141.151 12.6934 141.25C14.2782 141.349 16.0612 141.349 18.0423 141.349C19.6271 141.349 20.9148 140.259 21.0139 138.773C21.1129 136.991 20.6177 135.505 20.2215 134.217C19.7262 132.731 19.33 131.443 19.7262 129.661C19.9243 128.67 20.6177 128.373 22.1035 128.373C23.4902 128.373 23.9855 129.066 25.1742 132.434C25.8675 134.316 27.7496 136.693 30.2259 138.575C31.8108 139.863 33.6928 139.665 35.1786 139.467C35.4758 139.665 35.6739 139.665 35.872 139.665Z" fill="black"/>
<path d="M82.0317 128.578C82.0317 128.578 69.551 132.738 61.0323 134.819C53.7023 136.502 30.9199 137.988 30.9199 137.988C30.9199 137.988 30.7218 144.427 30.1275 147.894C29.3351 152.054 27.453 158.79 27.453 158.79C27.453 158.79 35.8726 159.78 37.6556 159.978C43.3017 160.573 55.1881 161.167 60.2399 165.525C64.202 168.992 62.5181 176.916 62.5181 176.916" fill="#E3E8EE"/>
<path d="M63.4091 177.016C63.5081 176.719 65.1921 168.497 60.8337 164.634C56.0791 160.474 45.8765 159.582 39.7352 159.087C39.0418 158.988 38.3484 158.988 37.7541 158.889C36.3674 158.79 31.0185 158.096 28.7402 157.799C29.3345 155.719 30.5232 151.163 31.1175 147.993C31.6128 145.319 31.8109 140.762 31.9099 138.88C36.2683 138.583 54.6923 137.295 61.2299 135.71C69.7485 133.729 82.2293 129.569 82.3284 129.47L81.734 127.588C81.635 127.588 69.1542 131.748 60.8337 133.729C53.6027 135.413 31.1175 136.8 30.9194 136.899L30.0279 136.998V137.89C30.0279 137.989 29.8298 144.328 29.2355 147.597C28.4431 151.658 26.561 158.295 26.561 158.394L26.2639 159.483L27.4525 159.582C27.7497 159.582 35.9711 160.573 37.7541 160.771C38.3484 160.87 39.0418 160.87 39.7352 160.969C45.6784 161.464 55.4848 162.356 59.7441 166.021C63.211 169.091 61.7252 176.421 61.7252 176.421L63.4091 177.016Z" fill="black"/>
<path d="M87.6773 120.441C87.6773 120.441 72.8192 141.143 69.2533 150.85C63.0129 167.888 60.5365 180.235 60.5365 180.235C60.5365 180.235 86.0925 181.622 90.9462 180.235C95.5026 178.948 115.61 182.647 115.61 182.647L159.689 181.161C159.689 181.161 156.223 138.172 153.251 136.19C150.378 134.209 125.813 139.756 115.214 137.775C104.616 135.794 87.6773 120.441 87.6773 120.441Z" fill="#E3E8EE"/>
<path d="M58.9523 181.52H60.4379C61.4284 181.322 88.5692 182.511 93.4228 181.124C97.6822 179.935 113.828 184.229 115.71 183.734L160.68 182.248L160.581 181.257C159.492 168.182 156.718 137.575 153.747 135.494C152.162 134.405 147.605 134.9 138.889 135.891C130.865 136.782 120.96 137.971 115.314 136.881C105.012 134.999 88.5692 119.844 88.3711 119.745L87.5787 118.952L86.8853 119.844C86.291 120.735 71.8291 140.744 68.2632 150.452C62.0228 167.39 59.2492 180.034 59.1502 180.332L58.9523 181.52ZM158.501 180.267L115.314 181.753H115.215C115.017 181.852 97.2859 177.954 92.8285 179.242C88.7673 180.431 66.6784 179.242 61.3294 179.242C62.3199 172.903 64.6972 165.805 70.1452 151.145C73.2159 142.824 85.0033 125.985 87.8758 121.924C91.4418 125.094 105.408 137.079 115.017 138.862C120.96 139.952 130.667 138.862 139.186 137.872C144.733 137.178 151.667 136.386 152.756 137.079C154.143 138.763 156.817 160.159 158.501 180.267Z" fill="black"/>
<path d="M168.703 156.317L179.797 151.464L184.749 163.548L176.627 167.907" fill="#E3E8EE"/>
<path d="M177.023 168.795L186.037 164.04L180.292 150.173L168.306 155.422L169.099 157.304L179.202 152.847L183.561 163.149L176.132 167.012L177.023 168.795Z" fill="black"/>
<path d="M191.585 148.187C191.585 148.187 215.853 137.093 218.527 135.904C220.409 135.012 224.966 133.428 226.848 137.489C228.73 141.847 221.895 144.72 219.518 145.809C213.178 148.682 194.556 156.606 194.556 156.606" fill="#8D919B"/>
<path d="M194.853 157.496C195.051 157.397 213.574 149.473 219.815 146.6L220.013 146.501C222.687 145.312 229.819 142.044 227.541 136.992C226.848 135.506 225.857 134.516 224.569 134.02C222.192 133.129 219.419 134.119 217.933 134.813C215.357 136.001 191.287 146.996 190.99 147.095L191.783 148.878C191.981 148.779 216.15 137.784 218.725 136.596C219.617 136.1 222.093 135.209 223.876 135.803C224.669 136.1 225.263 136.695 225.758 137.685C227.046 140.657 222.588 143.034 219.221 144.619L219.022 144.718C212.782 147.591 194.259 155.515 194.061 155.515L194.853 157.496Z" fill="black"/>
<path d="M140.573 160.464C140.573 160.464 123.14 161.653 113.234 164.922C113.234 164.922 114.423 167.893 116.008 172.45C117.494 176.808 118.781 183.742 118.781 183.742C123.041 182.751 130.668 183.346 132.649 183.445C138.097 183.742 155.233 186.218 162.068 185.624C170.289 184.93 180.69 179.284 176.926 169.577C173.162 159.87 153.945 137.88 153.945 137.88" fill="#E3E8EE"/>
<path d="M159.788 186.716C160.68 186.716 161.472 186.716 162.166 186.617C167.515 186.22 174.25 183.645 177.222 178.89C179.005 176.018 179.203 172.749 177.915 169.282C174.151 159.575 155.628 138.179 154.836 137.288C154.439 136.892 153.845 136.793 153.449 137.189C153.053 137.585 152.954 138.179 153.35 138.576C153.548 138.774 172.467 160.565 176.132 169.976C177.222 172.848 177.123 175.523 175.637 177.801C173.062 181.961 167.019 184.239 162.166 184.636C157.708 185.032 148.793 184.041 141.662 183.249C137.997 182.853 134.827 182.555 132.945 182.456C132.747 182.456 132.35 182.456 131.954 182.357C129.181 182.159 123.634 181.862 119.771 182.456C119.374 180.376 118.384 175.424 117.195 171.957C116.205 168.985 115.313 166.608 114.818 165.419C124.624 162.547 140.77 161.358 140.869 161.358C141.463 161.358 141.86 160.863 141.761 160.268C141.761 159.674 141.265 159.278 140.671 159.377C139.978 159.476 122.94 160.665 113.134 163.834C112.837 163.933 112.639 164.131 112.54 164.33C112.441 164.627 112.441 164.825 112.54 165.122C112.54 165.122 113.728 168.094 115.313 172.551C116.799 176.81 117.988 183.645 117.988 183.744C117.988 184.041 118.186 184.239 118.384 184.437C118.582 184.636 118.879 184.636 119.176 184.537C122.742 183.744 129.082 184.14 131.855 184.239C132.251 184.239 132.549 184.239 132.846 184.338C134.629 184.437 137.798 184.735 141.463 185.131C147.407 185.923 154.836 186.716 159.788 186.716Z" fill="black"/>
<path d="M190 143.33C188.415 140.061 185.443 138.872 181.58 140.457C177.321 142.24 177.717 146.301 178.41 148.084C179.302 150.263 185.443 165.815 187.028 167.994C189.108 170.966 192.377 170.867 194.853 169.876C197.132 168.985 198.815 166.31 197.924 163.636C195.745 156.603 192.377 148.282 190 143.33Z" fill="#8D919B"/>
<path d="M191.882 171.462C193.071 171.462 194.16 171.264 195.151 170.868C197.726 169.877 199.905 166.707 198.816 163.439C196.736 156.802 193.467 148.382 190.792 142.935C188.91 139.071 185.345 137.883 181.085 139.567C176.232 141.548 176.529 146.203 177.42 148.482C178.609 151.453 184.552 166.311 186.137 168.589C187.722 170.67 189.901 171.462 191.882 171.462ZM189.109 143.826C191.684 149.076 194.953 157.396 197.033 164.033C197.726 166.212 196.24 168.391 194.557 169.085C193.269 169.58 190 170.472 187.92 167.5C186.632 165.717 181.779 153.83 179.401 147.788C179.203 147.293 177.717 143.232 181.977 141.449C185.245 140.062 187.623 140.854 189.109 143.826Z" fill="black"/>
<path d="M77.6715 83.201C77.6715 83.201 80.445 63.1922 77.1762 55.0697C73.9074 46.8483 70.9358 38.8249 70.6386 36.3486C69.8462 29.6129 88.5674 26.6413 93.0248 31.4949C97.4822 36.4476 100.454 45.8577 103.624 47.5417C105.407 48.4331 117.392 46.254 127.198 47.0464C141.66 48.235 163.056 56.6546 167.612 61.3101C172.169 65.9657 180.39 54.6735 181.084 53.3858C181.777 52.0981 196.536 58.6357 201.192 62.2016C202.578 63.2912 204.758 66.1638 202.182 68.7392C193.961 76.7626 185.343 85.3802 184.551 92.215C184.352 94.2951 181.579 100.04 179.697 99.4459C175.933 98.1582 171.079 87.4604 165.433 84.1916C156.816 79.0408 77.6715 83.201 77.6715 83.201Z" fill="#E3E8EE"/>
<path d="M177.221 59.7255C177.221 59.7255 178.806 57.0511 178.311 51.9993C177.815 45.9571 175.339 37.1413 176.528 31.7924C178.608 22.0851 186.532 19.8068 193.664 23.0756C200.796 26.3444 210.701 33.0801 211.494 42.2921C211.89 46.6504 212.484 52.8908 210.999 57.4473C209.315 62.5981 205.352 66.8574 204.164 67.848C204.164 67.848 198.419 60.3199 193.466 59.8246C188.612 59.4284 177.221 59.7255 177.221 59.7255Z" fill="#6CBFC3"/>
<path d="M73.5127 89.1508C73.5127 89.1508 79.456 64.4864 95.6018 56.6611C111.153 49.034 121.356 51.1141 136.61 54.2838C152.062 57.5526 163.454 62.01 170.586 71.8163C178.51 82.6132 179.798 90.1413 180.59 97.4713C181.779 108.466 177.816 117.975 175.34 121.64C173.755 123.919 162.76 126.395 159.69 127.286C150.676 129.763 116.007 125.107 100.554 118.273C85.1021 111.438 74.3052 106.386 72.8194 100.443C71.3336 94.4997 73.5127 89.1508 73.5127 89.1508Z" fill="#BCBFC6"/>
<g opacity="0.68">
<path d="M201.391 60.5313C201.391 60.5313 207.037 53.8947 207.235 47.159C207.434 41.3148 204.858 33.5886 204.858 33.5886C204.858 33.5886 209.118 39.3337 210.108 44.3855C211.198 50.1306 210.405 54.7862 208.325 58.8474C206.344 62.6114 204.363 63.701 204.363 63.701C204.363 63.701 203.967 62.9086 203.471 62.3142C202.877 61.5218 201.391 60.5313 201.391 60.5313Z" fill="#E3E8EE"/>
</g>
<path d="M97.6825 41.4015C97.6825 41.4015 98.4749 37.7366 99.8616 34.0716C102.041 28.4255 108.479 21.7889 109.668 16.539C111.748 6.83173 105.111 2.1762 97.1872 2.07715C89.2629 2.07715 77.4755 3.95917 72.919 12.0816C70.7398 15.8456 67.5701 21.2936 67.0748 26.0482C66.3814 31.3971 69.8483 37.7365 70.4426 39.1233C70.4426 39.1233 76.9802 33.4772 84.5083 35.5574C89.3619 36.8451 97.6825 41.4015 97.6825 41.4015Z" fill="#6CBFC3"/>
<path d="M72.5208 96.186C72.5208 96.186 82.0299 104.903 89.6571 105.992C94.0154 106.587 105.704 104.011 110.458 99.2567C115.213 94.5021 114.321 91.7285 119.571 87.6673C124.821 83.6061 129.774 84.9929 133.043 85.7853C136.311 86.5777 140.67 87.9645 142.552 93.1153C144.434 98.2661 142.651 108.072 147.405 112.332C150.377 115.006 156.816 120.454 162.66 120.949C168.504 121.445 175.735 120.256 175.735 120.256C175.735 120.256 176.924 126.992 172.763 131.152C168.603 135.312 156.717 139.572 148.792 141.751C140.868 143.93 127.892 147.595 116.897 145.812C105.902 144.029 94.0154 132.143 90.8457 129.369C87.676 126.695 75.7895 113.619 73.3132 107.973C70.8368 102.327 72.5208 96.186 72.5208 96.186Z" fill="#4D8787"/>
<path d="M121.751 147.88C127.1 147.88 134.331 147.087 141.859 144.809C144.632 143.917 147.505 143.125 150.278 142.333C161.768 139.064 171.575 136.29 175.339 129.059C177.32 125.196 180.292 111.626 184.155 92.5084L182.174 92.1122C178.905 108.555 175.537 124.305 173.457 128.168C170.089 134.705 160.58 137.38 149.585 140.451C146.811 141.243 143.939 142.035 141.165 142.927C129.774 146.493 118.977 146.196 115.51 145.502C111.647 144.71 101.94 139.262 94.0156 131.338C91.9355 129.257 89.7563 127.177 87.6762 125.196C79.3556 117.272 72.2238 110.536 72.3228 103.206C72.4219 94.3905 75.1954 84.5841 76.5821 79.3343L76.9783 78.0466C77.3746 76.7589 77.8698 74.9759 78.4642 72.7967C78.8604 71.3109 79.3557 69.7261 79.8509 68.0421L77.9689 67.5469C77.4736 69.2308 76.9784 70.8156 76.5821 72.3014C75.9878 74.3816 75.4925 76.2636 75.0963 77.5513L74.7992 78.839C73.3134 84.1879 70.5399 94.1924 70.4408 103.206C70.3418 111.428 77.7708 118.461 86.3885 126.682C88.4686 128.663 90.5487 130.644 92.6289 132.724C101.346 141.243 111.251 146.592 115.213 147.384C116.699 147.681 118.977 147.88 121.751 147.88Z" fill="black"/>
<path d="M168.407 122.14C171.379 122.14 174.35 121.842 177.322 121.248L176.926 119.267C174.053 119.861 171.18 120.158 168.308 120.158C160.384 120.158 149.785 115.8 146.615 108.767C145.823 106.984 145.625 104.508 145.327 101.933C144.733 95.2959 144.04 87.1735 133.045 84.4991C121.158 81.6265 116.8 88.3622 113.333 93.7111C111.946 95.8903 110.659 97.8713 109.074 98.9609C102.338 103.716 90.0553 106.192 83.6168 102.527C79.0603 99.8524 74.3057 95.1969 73.018 93.8101L71.6313 95.1969C73.018 96.5836 77.8717 101.536 82.6263 104.31C89.8572 108.47 103.031 105.796 110.262 100.645C112.144 99.2581 113.531 97.0789 115.017 94.8007C118.484 89.4518 122.05 83.8057 132.549 86.3811C142.158 88.6593 142.752 95.494 143.346 102.131C143.643 104.904 143.842 107.48 144.733 109.56C148.299 117.385 159.492 122.04 168.209 122.14C168.308 122.14 168.407 122.14 168.407 122.14Z" fill="black"/>
<path d="M182.274 103.614L183.958 96.9774C183.958 96.8783 185.345 91.5294 188.515 85.3881C190.595 81.3269 193.864 78.6524 197.925 75.1855C199.906 73.5016 202.184 71.5205 204.661 69.1432C211.594 62.3085 213.278 57.653 213.674 52.3041C213.972 48.0448 213.873 40.0214 209.316 33.5829C204.958 27.4416 196.637 21.2012 188.019 21.2012H187.92C183.958 21.2012 180.888 22.3898 178.708 24.7671C175.142 28.7293 175.043 34.8706 175.341 38.2384C175.539 40.0214 175.935 42.0025 176.331 44.0826C177.223 48.54 178.213 53.1956 176.727 56.6625C174.746 61.318 169.1 61.0208 168.902 61.0208L166.129 60.8227L168.209 62.7047C168.308 62.8038 174.944 69.1433 177.916 76.1761C181.482 84.9919 182.076 96.6802 182.076 96.7793L182.274 103.614ZM188.019 23.1822C196.043 23.1822 203.67 28.9274 207.731 34.6725C211.991 40.6157 212.09 48.1438 211.693 52.106C211.396 56.0681 210.505 60.5256 203.274 67.6574C200.897 69.9357 198.717 71.9168 196.637 73.6007C192.576 77.0676 189.01 80.0392 186.732 84.3976C185.345 87.072 184.255 89.6474 183.463 91.6285C182.968 87.2701 181.878 80.8316 179.6 75.2846C177.421 69.9357 173.26 65.082 170.982 62.7047C173.36 62.4076 176.826 61.2189 178.411 57.2568C180.095 53.1956 179.105 48.0448 178.114 43.5873C177.718 41.6063 177.322 39.7242 177.124 38.0403C176.826 35.0687 176.925 29.5217 179.996 26.1539C181.977 24.2718 184.553 23.2813 188.019 23.1822C187.92 23.1822 187.92 23.1822 188.019 23.1822Z" fill="black"/>
<path d="M201.888 71.1262C202.185 71.1262 202.582 70.9281 202.78 70.6309C203.968 68.6498 204.166 66.7678 203.473 64.9849C201.987 61.617 197.332 59.9331 193.568 59.0416C187.03 57.5558 176.431 58.5464 176.035 58.6454C175.54 58.7445 175.045 59.1407 175.144 59.735C175.243 60.2303 175.639 60.7255 176.233 60.6265C176.332 60.6265 186.931 59.6359 193.172 61.0227C197.728 62.0132 200.799 63.7962 201.69 65.7773C202.185 66.8669 201.987 68.1546 201.096 69.5413C200.799 70.0366 200.997 70.6309 201.393 70.9281C201.591 71.1262 201.69 71.1262 201.888 71.1262Z" fill="black"/>
<path d="M169.792 63.2996C170.089 63.2996 170.387 63.2006 170.585 62.9034C170.882 62.5072 170.783 61.8138 170.387 61.5166C161.769 55.3753 150.18 50.5217 137.798 47.7482C125.713 45.0737 113.728 44.6775 103.426 46.4605C102.931 46.5595 102.535 47.0548 102.634 47.6491C102.733 48.1444 103.228 48.5406 103.822 48.4415C113.926 46.6586 125.515 47.0548 137.402 49.7292C149.486 52.4037 160.778 57.1583 169.198 63.2006C169.396 63.2006 169.594 63.2996 169.792 63.2996Z" fill="black"/>
<path d="M74.603 82.0193L78.268 73.0054C78.268 72.9064 82.131 63.6943 90.3525 55.9681C96.1967 50.4211 104.913 47.8457 105.012 47.7467L107.885 46.8552L105.112 45.8646C104.913 45.7656 99.6636 43.7845 99.7626 38.6337C99.8617 34.8697 102.635 31.1056 105.409 27.4406C106.696 25.7567 107.885 24.1718 108.777 22.587C110.46 19.7144 112.937 14.0683 111.352 9.01659C110.361 5.94592 108.083 3.56863 104.517 1.88472C96.5929 -1.78028 86.4894 0.398902 79.9519 4.16295C73.1171 8.1251 69.6503 15.4551 68.1645 19.4172C66.2824 24.469 65.8862 29.3226 69.3531 38.4356C70.5417 41.5063 71.8295 44.2798 72.919 46.6571C75.1973 51.5107 76.9803 55.3738 77.1784 59.9303C77.5746 66.8641 76.485 72.312 76.485 72.4111L74.603 82.0193ZM102.239 46.6571C99.1683 47.8457 93.4232 50.4211 88.9658 54.4823C84.3102 58.9397 80.9424 63.6943 78.9613 67.1612C79.0604 65.0811 79.1594 62.5057 79.0604 59.7322C78.7632 54.7795 76.8812 50.6192 74.603 45.7656C73.5134 43.3883 72.2257 40.7138 71.037 37.6432C67.372 28.233 68.4616 23.7756 69.8484 20.0116C71.2351 16.2475 74.5039 9.51186 80.7443 5.84687C86.8856 2.28093 96.2958 0.299848 103.527 3.66768C106.597 5.05443 108.479 7.03551 109.272 9.61091C110.659 13.9693 108.38 19.021 106.895 21.5964C106.102 23.0822 104.913 24.6671 103.725 26.252C100.951 30.016 97.8806 34.1763 97.6825 38.6337C97.6825 42.893 100.258 45.3694 102.239 46.6571Z" fill="black"/>
<path d="M98.8707 42.7974C99.1679 42.7974 99.5641 42.5993 99.7622 42.3022C100.059 41.8069 99.8613 41.2126 99.465 40.9154C99.1679 40.7173 91.0455 35.8636 84.5079 34.4769C79.5552 33.3873 74.9987 34.0807 72.4233 36.1608C71.0366 37.2504 70.3432 38.8353 70.3432 40.5192C70.3432 41.0145 70.8385 41.5097 71.3337 41.5097C71.9281 41.5097 72.3243 41.0145 72.3243 40.5192C72.3243 39.3305 72.7205 38.4391 73.711 37.6466C75.7912 35.9627 79.8524 35.4674 84.1117 36.3589C90.3521 37.6466 98.3755 42.5003 98.4745 42.5003C98.4745 42.6984 98.6726 42.7974 98.8707 42.7974Z" fill="black"/>
<g opacity="0.68">
<path d="M90.0539 34.268C90.0539 34.268 98.4735 27.1361 103.129 19.7071C106.695 14.061 106.101 8.61304 106.101 8.61304C106.101 8.61304 107.19 9.80169 107.785 12.3771C108.28 14.8534 107.686 18.3203 105.903 20.7967C101.94 26.4427 99.464 29.3153 98.2754 31.2964C96.4924 34.0699 96.1953 37.1406 96.1953 37.1406C96.1953 37.1406 94.3132 36.051 93.7189 35.8529C92.6293 35.3576 90.0539 34.268 90.0539 34.268Z" fill="#E3E8EE"/>
</g>
<path d="M137.007 93.9029C136.412 96.1812 136.016 98.9547 135.323 102.521C134.53 106.78 142.058 120.548 147.704 129.067C149.784 132.138 149.884 136.991 150.082 141.548C150.082 141.548 166.723 137.289 172.171 131.444C176.628 126.591 178.708 115.893 180.788 105.195C182.67 95.5868 181.68 88.8512 181.68 88.8512C176.826 83.4032 174.35 80.9269 170.685 78.5496C166.921 76.0732 154.341 68.1489 148.893 71.1205C145.525 72.9035 143.544 75.8751 141.959 79.1439C141.959 79.1439 139.879 82.0165 133.54 80.6297C127.2 79.243 126.705 75.677 126.705 75.677C126.903 71.6158 126.408 67.6536 123.832 64.1868C120.068 59.2341 105.408 60.918 100.951 61.9085C93.72 63.4934 86.2909 67.2574 76.6827 74.8846C76.6827 74.8846 69.2537 98.0632 70.9376 104.403C74.4045 116.883 91.1446 130.157 91.1446 130.157C91.1446 130.157 92.9275 121.242 95.8992 119.162C105.111 112.426 121.257 104.997 123.238 98.5585C124.13 95.6859 124.724 93.3086 125.12 91.2285C125.12 91.2285 125.021 87.2663 131.856 88.8512C136.511 89.6436 137.007 93.9029 137.007 93.9029Z" fill="#6CBFC3"/>
<path d="M149.289 142.834L150.477 142.536C151.171 142.338 167.515 138.178 173.062 132.136C177.618 127.282 179.599 116.98 181.778 106.184L181.976 105.391C183.858 95.6839 182.967 88.9482 182.868 88.6511V88.3539L182.67 88.1558C177.816 82.8069 175.241 80.1324 171.477 77.6561C160.383 70.5242 152.755 67.9488 148.694 70.128C145.624 71.8119 143.246 74.4864 141.463 78.4485C141.166 78.8448 139.185 80.6277 134.133 79.5381C129.082 78.4485 128.19 75.8731 128.091 75.4769C128.19 72.01 127.992 67.4535 125.02 63.4914C120.761 57.8453 104.813 60.0245 101.148 60.8169C93.3232 62.5009 85.696 66.6611 76.3849 73.9911L76.1868 74.1892L76.0878 74.4864C75.7906 75.4769 68.5597 98.0612 70.3427 104.5C73.8095 117.179 90.1534 130.254 90.8468 130.749L92.1345 131.74L92.4317 130.155C92.9269 127.777 94.6109 121.24 96.79 119.754C99.6626 117.674 103.229 115.495 106.794 113.316C115.115 108.264 123.039 103.41 124.525 98.5565C125.318 95.882 126.011 93.4057 126.407 91.1274V91.0284V90.9293C126.407 90.9293 126.407 90.2359 127.001 89.8397C127.893 89.1464 129.676 89.0473 131.954 89.5426C135.322 90.2359 136.114 93.0094 136.213 93.7028C135.718 95.6839 135.322 97.8631 134.827 100.736L134.53 102.221C133.638 107.174 141.761 121.537 147.109 129.56C148.892 132.235 149.09 136.593 149.289 140.753V142.834ZM180.887 89.2454C181.085 90.6322 181.58 96.7735 179.995 104.995L179.797 105.787C177.816 115.891 175.736 126.292 171.576 130.749C167.217 135.405 154.935 139.169 151.072 140.258C150.873 135.999 150.576 131.541 148.595 128.57C142.157 118.962 135.718 106.283 136.313 102.717L136.61 101.231C137.105 98.3584 137.501 96.0801 137.996 94.1981V94V93.8019C137.798 92.118 136.313 88.6511 132.152 87.7596C129.082 87.0662 126.803 87.3634 125.516 88.453C124.426 89.3445 124.228 90.6322 124.228 91.0284C123.832 93.2076 123.237 95.5849 122.346 98.2593C121.058 102.321 113.134 107.174 105.507 111.83C101.941 114.009 98.2759 116.188 95.4033 118.367C92.9269 120.15 91.3421 125.598 90.6487 128.372C86.7856 125.103 74.8001 114.207 72.0266 104.103C70.7389 99.2498 75.5925 82.1135 77.6727 75.4769C86.5875 68.4441 93.9175 64.4819 101.347 62.8971C105.804 61.9065 119.969 60.4207 123.237 64.8781C125.318 67.6516 126.11 70.9204 125.912 75.675V75.7741V75.8731C125.912 76.0712 126.605 80.1324 133.539 81.7173C140.374 83.2031 142.85 79.9343 142.949 79.8353L143.048 79.6372C144.732 75.8731 146.713 73.5949 149.487 72.1091C151.369 71.1185 156.619 70.7223 170.288 79.5381C173.854 81.7173 176.33 84.1937 180.887 89.2454Z" fill="black"/>
<path d="M93.2541 106.286C85.0736 102.738 81.6712 92.4167 85.6546 83.2324C89.6381 74.0482 99.4989 69.4792 107.679 73.0273C115.86 76.5754 119.262 86.897 115.279 96.0812C111.295 105.265 101.435 109.835 93.2541 106.286Z" fill="#E3E8EE"/>
<path d="M98.9691 108.461C105.903 108.461 112.837 103.904 116.105 96.4752C118.086 91.8197 118.384 86.7679 116.898 82.2114C115.412 77.5559 112.242 74.089 107.983 72.207C99.3653 68.443 88.8656 73.1975 84.7053 82.9048C80.545 92.513 84.21 103.409 92.8277 107.173C94.8088 108.065 96.8889 108.461 98.9691 108.461ZM101.743 72.9004C103.526 72.9004 105.408 73.2966 107.191 73.99C110.856 75.5748 113.629 78.7446 115.016 82.8058C116.403 86.966 116.105 91.5225 114.322 95.6828C110.558 104.3 101.346 108.659 93.6202 105.291C85.993 101.923 82.8233 92.2159 86.4883 83.5982C89.4599 76.9616 95.6012 72.9004 101.743 72.9004Z" fill="black"/>
<path d="M95.0788 102.454C88.8556 99.7548 86.2635 91.9115 89.2892 84.9355C92.3149 77.9595 99.8126 74.4924 106.036 77.1916C112.259 79.8907 114.851 87.7341 111.825 94.7101C108.8 101.686 101.302 105.153 95.0788 102.454Z" fill="#E3E8EE"/>
<path d="M99.5653 104.401C101.447 104.401 103.329 104.005 105.112 103.113C108.48 101.528 111.254 98.6558 112.839 95.0898C114.423 91.5239 114.622 87.5617 113.433 83.9958C112.244 80.4299 109.768 77.6563 106.499 76.2696C99.7635 73.397 91.641 77.062 88.3723 84.5901C85.1035 92.1182 87.976 100.538 94.7117 103.41C96.1975 104.104 97.8814 104.401 99.5653 104.401ZM101.645 77.2601C103.032 77.2601 104.419 77.5573 105.707 78.0526C108.48 79.2412 110.56 81.6185 111.551 84.5901C112.541 87.6608 112.343 91.1277 111.056 94.2974C109.669 97.4671 107.292 99.9435 104.32 101.33C101.447 102.717 98.2777 102.717 95.5041 101.528C89.759 99.052 87.3817 91.722 90.2543 85.2835C92.3344 80.3308 96.99 77.2601 101.645 77.2601Z" fill="black"/>
<path d="M157.609 120.818C148.711 120.235 142.028 111.664 142.682 101.674C143.336 91.6837 151.08 84.0574 159.978 84.64C168.877 85.2227 175.56 93.7937 174.906 103.784C174.251 113.774 166.508 121.4 157.609 120.818Z" fill="#E3E8EE"/>
<path d="M158.502 121.835C167.516 121.835 175.143 114.01 175.836 103.906C176.53 93.4064 169.398 84.3925 159.988 83.7982C155.431 83.501 150.974 85.1849 147.507 88.6518C144.04 92.0196 141.96 96.6752 141.663 101.727C141.365 106.779 142.752 111.632 145.724 115.495C148.695 119.359 152.856 121.637 157.511 121.934C157.808 121.736 158.205 121.835 158.502 121.835ZM173.855 103.708C173.261 113.118 165.931 120.349 157.61 119.755C153.549 119.458 149.983 117.476 147.309 114.109C144.634 110.741 143.347 106.283 143.644 101.727C143.941 97.1704 145.823 92.9111 148.894 89.9395C151.964 86.9679 155.827 85.383 159.889 85.6802C168.209 86.1755 174.449 94.2979 173.855 103.708Z" fill="black"/>
<path d="M157.905 116.362C151.245 115.926 146.242 109.509 146.732 102.03C147.222 94.5512 153.018 88.8419 159.678 89.278C166.338 89.7141 171.34 96.1305 170.851 103.61C170.361 111.088 164.565 116.798 157.905 116.362Z" fill="#E3E8EE"/>
<path d="M158.602 117.376C165.437 117.376 171.38 111.432 171.875 103.706C172.172 99.8431 170.984 96.0791 168.705 93.2065C166.427 90.2349 163.257 88.551 159.691 88.2538C152.461 87.7585 146.22 93.8999 145.626 101.923C145.329 105.786 146.517 109.55 148.796 112.423C151.074 115.395 154.243 117.078 157.809 117.376C158.107 117.376 158.404 117.376 158.602 117.376ZM158.998 90.1358C159.196 90.1358 159.394 90.1358 159.691 90.1358C162.663 90.3339 165.338 91.8197 167.22 94.2961C169.201 96.7724 170.191 100.041 169.894 103.409C169.399 110.343 164.05 115.692 158.008 115.296C155.036 115.097 152.361 113.612 150.479 111.135C148.498 108.659 147.508 105.39 147.805 102.022C148.102 95.3857 153.154 90.1358 158.998 90.1358Z" fill="black"/>
<path d="M76.3846 75.9778C76.3846 75.9778 73.6111 72.709 69.1537 62.6056C66.3802 56.2661 65.6868 50.1248 65.6868 50.1248L56.0786 56.7614C56.0786 56.7614 64.102 68.945 66.5783 71.7185C70.4414 76.0769 75.3941 79.3457 75.3941 79.3457L76.3846 75.9778Z" fill="#6CBFC3"/>
<path d="M75.4946 80.34C75.5936 80.34 75.6927 80.34 75.7917 80.241C76.0889 80.1419 76.287 79.8448 76.3861 79.5476L77.2775 76.1798C77.3766 75.8826 77.2775 75.4864 77.0794 75.2883C77.0794 75.2883 74.3059 71.9205 70.0466 62.1141C67.3722 55.9728 66.6788 49.9305 66.6788 49.9305C66.6788 49.6333 66.3816 49.2371 66.0845 49.1381C65.7873 49.039 65.3911 49.039 65.0939 49.2371L55.4857 55.8737C55.0895 56.1709 54.8914 56.7652 55.1885 57.2605C55.4857 57.7557 63.311 69.5432 65.7873 72.3167C69.6504 76.675 74.6031 80.0429 74.8012 80.1419C75.0984 80.241 75.2965 80.34 75.4946 80.34ZM75.2965 76.1798L74.9003 77.6656C73.2163 76.4769 70.0466 73.9015 67.3722 70.9299C65.3911 68.6517 59.3488 59.6378 57.4668 56.8643L64.9949 51.6144C65.3911 53.8926 66.2826 58.251 68.2637 62.8075C71.8296 71.2271 74.405 74.9911 75.2965 76.1798Z" fill="black"/>
<path d="M54.2976 53.4817C51.7222 48.529 50.7317 44.0716 49.2459 33.6709L26.3644 38.6236C26.3644 38.6236 28.4446 53.3826 38.35 62.8918C45.1847 69.4293 52.4156 74.0849 56.0806 76.165C62.0238 79.5328 74.2075 82.9007 74.2075 82.9007L75.3961 79.2357C75.3961 79.2357 69.4529 74.7783 63.5097 67.7454C59.6465 63.288 55.9816 56.9486 54.2976 53.4817Z" fill="#6CBFC3"/>
<path d="M74.3071 83.9915C74.7033 83.9915 75.0995 83.6944 75.2976 83.2982L76.4862 79.6332C76.5853 79.237 76.4863 78.7417 76.09 78.5436C75.991 78.5436 70.1468 74.0862 64.3026 67.1524C60.7367 62.9921 57.1707 56.9498 55.1897 53.0867C52.8124 48.4312 51.7228 44.2709 50.237 33.5731C50.237 33.276 50.0389 33.0779 49.8408 32.8797C49.6426 32.6816 49.3455 32.6816 49.0483 32.6816L26.1669 37.6343C25.6716 37.7334 25.2754 38.2287 25.3744 38.7239C25.4735 39.3182 27.6527 53.9782 37.6571 63.5865C45.3833 70.9164 53.3076 75.7701 55.5859 77.0578C61.6282 80.5247 73.5146 83.7934 74.0099 83.8925C74.109 83.9916 74.208 83.9915 74.3071 83.9915ZM74.3071 79.6332L73.6137 81.7133C70.7411 80.8218 61.4301 78.0483 56.5764 75.2748C54.3972 73.9871 46.572 69.3316 39.0439 62.1006C30.8224 54.2754 28.1479 42.587 27.4546 39.3182L48.3549 34.8608C49.6426 43.9738 50.7322 48.7284 53.4067 53.8792C55.4868 57.8413 59.1518 64.0817 62.8168 68.341C67.7695 74.3833 72.6231 78.3455 74.3071 79.6332Z" fill="black"/>
<path d="M114.026 164.728C114.026 164.728 102.734 166.907 98.1774 170.374C94.6114 173.147 91.937 178.496 91.3426 180.972C90.7483 183.35 90.3521 186.916 91.937 188.798C92.9275 189.986 96.9887 191.076 98.9698 189.59C101.743 187.411 106.498 182.26 106.498 182.26C106.498 182.26 102.833 186.42 102.04 187.807C101.446 188.699 100.555 191.571 102.932 192.165C105.309 192.76 107.29 191.274 110.262 189.392C113.333 187.609 119.771 182.854 119.771 182.854C119.771 182.854 118.285 175.921 117.592 173.84C116.205 169.68 114.026 164.728 114.026 164.728Z" fill="#E3E8EE"/>
<path d="M103.923 193.252C105.805 193.252 107.488 192.262 109.47 190.974C109.866 190.677 110.262 190.479 110.757 190.181C113.828 188.398 120.068 183.842 120.365 183.644C120.663 183.446 120.861 183.05 120.762 182.653C120.663 182.356 119.276 175.621 118.583 173.54C117.196 169.479 115.116 164.427 115.116 164.328C114.918 163.932 114.521 163.635 114.026 163.734C113.531 163.833 102.437 166.012 97.6821 169.578C94.0172 172.352 91.2436 177.899 90.5503 180.672C89.9559 182.851 89.3616 186.913 91.2436 189.389C92.0361 190.38 93.72 190.974 95.0077 191.172C96.0973 191.37 98.1774 191.469 99.6632 190.28C99.8613 190.082 100.158 189.884 100.456 189.686C100.456 190.181 100.456 190.776 100.654 191.271C100.852 191.865 101.446 192.757 102.734 193.054C103.031 193.153 103.526 193.252 103.923 193.252ZM118.583 182.455C116.998 183.644 112.144 187.111 109.668 188.498C109.172 188.795 108.776 188.993 108.38 189.29C106.201 190.677 104.715 191.568 103.031 191.073C102.536 190.974 102.338 190.677 102.239 190.479C101.941 189.785 102.338 188.696 102.635 188.2C103.328 187.21 106.003 183.941 107.092 182.752C107.488 182.356 107.389 181.762 106.993 181.366C106.597 180.969 106.003 181.068 105.606 181.465C105.606 181.564 100.852 186.516 98.1774 188.696C97.5831 189.191 96.3944 189.389 95.1067 189.191C93.819 188.993 92.8285 188.398 92.6304 188.101C91.6399 186.814 91.4418 184.238 92.2342 181.168C92.8285 178.988 95.3049 173.738 98.6727 171.163C102.338 168.39 110.757 166.409 113.333 165.814C113.927 167.399 115.413 171.064 116.502 174.135C117.097 175.819 118.186 180.672 118.583 182.455Z" fill="black"/>
<path d="M116.007 122.526C117.294 123.319 119.474 124.805 122.247 125.498C125.318 126.191 127.794 126.687 130.766 126.687C134.034 126.687 138.393 125.498 138.393 126.687C138.393 128.272 132.846 131.54 130.171 133.026C127.596 134.413 124.327 135.205 121.554 134.71C118.78 134.314 115.412 132.828 113.332 129.757C111.153 126.39 108.677 120.149 109.667 119.258C110.46 118.465 113.035 120.545 116.007 122.526Z" fill="#E3E8EE"/>
<path d="M123.237 135.802C125.714 135.802 128.388 135.108 130.666 133.821C136.511 130.651 139.383 128.274 139.383 126.59C139.383 126.194 139.185 125.797 138.888 125.599C138.194 124.906 136.907 125.104 134.43 125.401C133.242 125.5 131.954 125.698 130.765 125.698C127.893 125.698 125.516 125.302 122.445 124.51C119.969 123.915 118.086 122.727 116.799 121.835L116.502 121.637C115.808 121.142 115.115 120.746 114.421 120.25C111.747 118.467 110.063 117.378 108.974 118.368C106.992 120.151 111.252 128.274 112.44 130.156C115.115 134.217 119.572 135.307 121.355 135.604C122.049 135.802 122.643 135.802 123.237 135.802ZM137.204 127.085C136.312 128.076 133.638 129.958 129.775 132.038C127.298 133.425 124.228 134.019 121.751 133.623C120.266 133.425 116.403 132.533 114.223 129.066C112.242 125.995 110.558 121.538 110.459 120.052C111.153 120.349 112.44 121.241 113.431 121.835C114.124 122.231 114.818 122.727 115.511 123.222L115.808 123.42C117.096 124.312 119.374 125.698 122.049 126.293C125.218 127.085 127.695 127.481 130.864 127.481C132.152 127.481 133.539 127.283 134.827 127.184C135.52 127.283 136.51 127.085 137.204 127.085Z" fill="black"/>
<path d="M153.451 99.2522C153.451 99.2522 151.965 101.629 152.757 104.205C153.748 107.573 156.719 108.563 159.394 108.464C162.663 108.365 164.248 105.988 164.743 104.403C165.535 102.026 165.337 98.5588 163.059 97.073C160.285 95.1909 156.918 95.8843 156.918 95.8843C156.918 95.8843 158.899 98.2616 157.017 99.7474C155.333 101.134 153.451 99.2522 153.451 99.2522Z" fill="#1A1A1A"/>
<path d="M158.997 109.551C159.096 109.551 159.294 109.551 159.393 109.551C162.86 109.452 164.941 106.976 165.634 104.797C166.624 101.924 166.228 98.1603 163.554 96.2783C160.483 94.0991 156.818 94.8915 156.62 94.9906C156.323 95.0896 156.026 95.2877 155.927 95.6839C155.828 96.0801 155.927 96.3773 156.125 96.6745C156.125 96.6745 156.521 97.1697 156.719 97.7641C156.917 98.5565 156.719 98.8537 156.422 99.1508C155.431 99.9432 154.243 98.8537 154.144 98.7546C153.946 98.5565 153.648 98.4574 153.351 98.4574C153.054 98.4574 152.757 98.6555 152.658 98.9527C152.559 99.0518 150.875 101.726 151.865 104.797C152.757 107.669 155.431 109.551 158.997 109.551ZM158.601 96.7735C159.691 96.7735 161.176 96.9716 162.563 97.8631C164.346 99.0518 164.544 102.023 163.851 104.104C163.554 104.896 162.464 107.372 159.393 107.471C158.007 107.471 154.738 107.273 153.747 103.905C153.351 102.717 153.648 101.528 153.846 100.736C154.936 101.33 156.323 101.627 157.71 100.439C158.403 99.9432 158.799 99.1508 158.898 98.3584C158.898 97.8631 158.799 97.2688 158.601 96.7735Z" fill="black"/>
<path d="M92.4327 153.624C91.5412 153.426 90.0554 153.228 89.8573 150.85C89.6592 148.473 89.4611 145.997 86.7866 145.402C84.5084 144.907 83.815 149.761 82.1311 150.157C80.4472 150.553 80.15 150.157 77.2774 149.365C74.702 148.671 72.82 149.959 73.8105 151.742C74.4049 152.831 77.7727 154.416 76.8812 156.893C75.9897 159.369 74.4049 160.756 74.0086 162.836C73.7115 164.619 74.9001 165.807 77.6736 164.817C80.4472 163.826 80.249 162.737 82.1311 163.133C84.0131 163.43 84.2112 166.402 86.8856 167.59C89.5601 168.779 90.2535 166.303 89.7582 164.124C89.2629 161.944 89.1639 160.062 90.9469 159.468C92.4327 158.973 96.791 157.982 96.3948 155.704C96.2958 154.614 93.5223 153.822 92.4327 153.624Z" fill="#D3B57D"/>
<path d="M88.2721 168.979C88.9654 168.979 89.4607 168.682 89.8569 168.484C91.0456 167.493 91.1446 165.611 90.8474 164.126C90.1541 161.253 90.7484 160.758 91.3427 160.56C91.5408 160.461 91.7389 160.461 91.937 160.362C94.0172 159.767 97.9793 158.579 97.385 155.607C96.9888 153.527 93.2247 152.834 92.5314 152.734C91.7389 152.635 90.9465 152.437 90.7484 150.852C90.5503 148.376 90.2531 145.206 86.8853 144.513C84.8052 144.117 83.7156 146.098 82.9231 147.584C82.626 148.178 82.0316 149.169 81.7345 149.268C80.7439 149.565 80.4468 149.466 79.06 148.97C78.6638 148.871 78.0695 148.673 77.4752 148.475C75.5931 147.98 73.8102 148.277 73.0177 149.367C72.4234 150.159 72.3244 151.249 72.9187 152.239C73.2159 152.734 73.7111 153.131 74.2064 153.626C75.4941 154.716 76.2865 155.508 75.8903 156.598C75.4941 157.687 74.9988 158.48 74.5036 159.272C73.8102 160.362 73.2159 161.352 73.0177 162.64C72.8196 163.829 73.1168 164.819 73.8102 165.512C74.5036 166.107 75.6922 166.602 77.9704 165.81C79.2581 165.314 80.0506 164.819 80.5458 164.522C81.1402 164.126 81.2392 164.027 81.9326 164.126C82.4279 164.225 82.725 164.72 83.3194 165.512C84.0127 166.503 84.8052 167.791 86.4891 168.484C87.2815 168.88 87.7768 168.979 88.2721 168.979ZM86.4891 146.296C88.3711 146.692 88.5692 148.277 88.8664 150.852C89.1635 154.022 91.3427 154.418 92.2342 154.616C93.8191 154.914 95.3049 155.607 95.503 155.904C95.7011 157.093 92.5314 157.984 91.3427 158.381C91.0456 158.48 90.8474 158.48 90.6493 158.579C87.6777 159.569 88.4701 162.937 88.8664 164.423C89.1635 165.611 88.9654 166.602 88.5692 166.899C88.2721 167.097 87.6777 166.899 87.3806 166.8C86.291 166.305 85.6967 165.413 85.1023 164.522C84.409 163.531 83.7156 162.541 82.4279 162.244C80.9421 161.946 80.3477 162.442 79.6544 162.937C79.1591 163.234 78.6638 163.63 77.5742 164.027C76.3856 164.423 75.5932 164.324 75.395 164.126C75.0979 163.928 75.1969 163.333 75.1969 163.135C75.395 162.145 75.8903 161.352 76.4846 160.362C76.9799 159.47 77.5742 158.48 78.0695 157.291C78.961 154.914 76.9799 153.23 75.7913 152.14C75.4941 151.843 74.9988 151.447 74.8998 151.348C74.6026 150.852 74.8007 150.654 74.8007 150.654C74.9988 150.357 75.8903 150.06 77.178 150.357C77.7723 150.555 78.2676 150.654 78.6638 150.852C80.1496 151.348 80.9421 151.546 82.4279 151.15C83.5175 150.852 84.2108 149.664 84.8052 148.475C85.3995 147.287 85.8948 146.296 86.4891 146.296Z" fill="black"/>
<path d="M94.7103 87.363C94.7103 87.363 93.2245 89.7403 94.017 92.3157C95.0075 95.6835 97.9791 96.6741 100.654 96.575C103.922 96.4759 105.507 94.0987 106.002 92.5138C106.795 90.1365 106.597 86.6696 104.319 85.1838C101.545 83.3018 98.1772 83.9952 98.1772 83.9952C98.1772 83.9952 100.158 86.3725 98.2763 87.8583C96.5924 89.3441 94.7103 87.363 94.7103 87.363Z" fill="#1A1A1A"/>
<path d="M100.357 97.663C100.456 97.663 100.654 97.663 100.753 97.663C104.22 97.564 106.3 95.0876 106.993 92.9085C107.984 90.0359 107.588 86.2719 104.913 84.3898C101.842 82.2106 98.1775 83.0031 97.9794 83.1021C97.6822 83.2012 97.385 83.3993 97.286 83.7955C97.1869 84.1917 97.286 84.4889 97.4841 84.786C97.6822 84.9841 98.1775 85.8756 98.1775 86.47C98.1775 86.6681 98.0784 86.8662 97.7812 87.1633C96.6916 88.0548 95.6021 86.7671 95.503 86.7671C95.3049 86.569 95.0077 86.47 94.7106 86.47C94.4134 86.47 94.1163 86.6681 94.0172 86.9652C93.9182 87.0643 92.2342 89.7387 93.2248 92.8094C94.0172 95.781 96.6917 97.663 100.357 97.663ZM99.8614 84.8851C100.951 84.8851 102.437 85.0832 103.824 85.9747C105.607 87.1633 105.805 90.1349 105.111 92.2151C104.814 93.0075 103.724 95.4839 100.654 95.5829C99.2671 95.5829 95.9983 95.3848 95.0077 92.017C94.6115 90.8283 94.9087 89.6397 95.2058 88.8473C96.1964 89.4416 97.6822 89.7387 99.0689 88.5501C99.7623 88.0548 100.159 87.2624 100.258 86.47C100.159 85.9747 100.059 85.3804 99.8614 84.8851Z" fill="black"/>
</svg>
