<svg width="244" height="233" viewBox="0 0 244 233" fill="none" xmlns="http://www.w3.org/2000/svg">
<path d="M184.565 152.85C184.565 152.85 192.403 149.846 194.708 147.304C196.553 145.224 198.166 141.295 198.166 139.678C198.397 138.06 198.166 135.749 197.014 134.594C196.322 133.901 193.325 133.67 192.172 134.825C190.559 136.674 187.792 140.371 187.792 140.371C187.792 140.371 189.867 137.136 190.328 136.212C190.559 135.518 191.02 133.67 189.176 133.438C187.562 133.207 186.409 134.594 184.565 135.98C182.721 137.598 178.802 141.295 178.802 141.295C178.802 141.295 179.263 145.917 181.107 148.921C183.412 152.85 184.565 152.85 184.565 152.85Z" fill="white"/>
<path d="M184.565 153.774C183.873 153.774 182.721 153.081 180.646 149.614C178.802 146.61 178.341 141.988 178.11 141.757C178.11 141.526 178.11 141.295 178.341 141.064C178.571 140.833 182.26 137.136 184.104 135.749L184.796 135.056C186.179 133.9 187.562 132.745 189.406 132.976C190.328 132.976 191.02 133.669 191.25 134.131C191.481 134.363 191.481 134.594 191.481 134.825L191.711 134.594C193.095 132.976 196.553 133.207 197.705 134.363C199.319 135.749 199.319 138.753 199.089 140.14C198.858 141.988 197.244 146.148 195.4 148.228C193.095 150.77 185.257 153.774 185.026 154.005C184.796 153.774 184.565 153.774 184.565 153.774ZM179.724 141.757C179.954 142.913 180.415 146.148 181.799 148.459C183.182 150.77 184.104 151.463 184.334 151.694C186.64 150.77 192.173 148.459 193.786 146.61C195.631 144.762 197.014 140.833 197.014 139.447C197.244 137.829 197.014 135.98 196.092 135.056C195.631 134.594 193.325 134.363 192.634 135.287C191.02 136.905 188.484 140.833 188.484 140.833C188.254 141.295 187.792 141.295 187.331 141.064C186.87 140.833 186.87 140.371 187.101 139.909C187.562 138.984 189.176 136.673 189.406 135.98C189.637 135.749 189.637 135.056 189.406 134.594C189.406 134.594 189.406 134.363 188.945 134.363C188.023 134.363 187.101 134.825 185.718 136.211L185.257 136.905C183.643 138.06 180.876 140.833 179.724 141.757Z" fill="black"/>
<path d="M50.8565 131.359C50.8565 131.359 43.9406 126.737 42.0963 123.733C40.7131 121.422 40.0215 117.031 40.2521 115.414C40.4826 113.796 40.9437 111.485 42.5574 110.792C43.4795 110.33 46.2459 110.561 47.168 112.178C48.3207 114.258 50.1649 118.649 50.1649 118.649C50.1649 118.649 48.7817 115.182 48.5512 114.027C48.3207 113.334 48.5512 111.254 50.1649 111.485C51.7787 111.716 52.7008 113.103 54.084 114.951C55.4672 116.8 58.4641 121.422 58.4641 121.422C58.4641 121.422 55.9282 126.044 54.7756 127.199C51.7787 130.203 50.8565 131.359 50.8565 131.359Z" fill="white"/>
<path d="M50.8566 132.052C50.6261 132.052 50.6261 132.052 50.3955 131.821C50.165 131.59 43.249 126.968 41.4048 123.964C40.0216 121.422 39.33 117.031 39.5605 115.183C39.7911 113.565 40.2521 110.792 42.3269 109.868C43.7101 109.174 46.9376 109.636 48.0902 111.485C48.0902 111.485 48.0902 111.716 48.3207 111.716C48.3207 111.485 48.5513 111.254 48.7818 111.023C49.0123 110.561 49.7039 110.33 50.6261 110.33C52.4703 110.561 53.3924 111.947 54.5451 113.334L55.2367 114.027C56.6199 115.876 59.6168 120.266 59.6168 120.498C59.8473 120.729 59.8473 121.191 59.6168 121.422C59.3863 121.884 56.8504 126.275 55.6978 127.43L51.5482 131.59C51.0871 132.052 51.0871 132.052 50.8566 132.052ZM43.7101 111.254C43.4796 111.254 43.249 111.254 43.0185 111.254C41.8658 111.947 41.4048 113.796 41.1743 115.414C40.9437 116.8 41.6353 120.96 42.788 123.271C43.9406 125.35 48.3207 128.586 50.6261 130.203L54.3146 126.506C55.0062 125.813 56.6199 123.271 57.542 121.422C56.8504 120.266 54.5451 117.031 53.3924 115.414L52.7008 114.489C51.5482 113.103 50.8566 112.178 49.9345 112.178C49.7039 112.178 49.4734 112.178 49.4734 112.178C49.2429 112.409 49.2429 113.103 49.2429 113.565C49.4734 114.258 50.3955 117.031 50.6261 117.956C50.8566 118.418 50.6261 118.88 50.165 119.111C49.7039 119.342 49.2429 119.111 49.0123 118.649C49.0123 118.649 47.1681 114.258 46.0154 112.409C46.0154 111.716 44.6322 111.254 43.7101 111.254Z" fill="black"/>
<path d="M157.823 145.455C157.823 145.455 162.203 144.993 171.886 142.451C175.574 141.295 179.032 139.909 179.032 139.909C179.032 139.909 178.802 142.22 181.337 147.997C182.721 151.001 186.87 155.16 187.101 155.623C187.101 155.623 173.499 161.631 169.119 164.635C164.278 168.101 162.664 169.719 159.898 172.261C156.44 175.496 153.674 178.963 152.982 187.513C152.29 194.214 154.826 202.071 154.826 202.071C154.826 202.071 127.393 193.752 116.789 194.677C109.411 195.37 78.2897 204.844 78.2897 204.844C78.2897 204.844 78.9813 193.29 78.7507 187.975C78.5202 181.736 78.0592 178.963 75.5233 175.496C70.2211 168.564 68.8379 166.946 66.5326 164.173C56.8502 152.387 49.7037 133.438 49.7037 133.438C49.7037 133.438 52.4701 129.279 54.3144 127.199C56.6197 124.426 59.6166 118.417 59.6166 118.417C59.6166 118.417 70.9127 131.59 72.9875 133.9C77.8286 138.984 89.8163 147.072 93.9659 149.152C99.0376 151.463 109.411 159.089 123.704 158.165C140.072 157.24 157.823 145.455 157.823 145.455Z" fill="#E6ECEC"/>
<path d="M78.0592 205.769C77.8287 205.769 77.5982 205.769 77.5982 205.538C77.3676 205.307 77.3676 205.075 77.3676 204.844C77.3676 204.844 77.8287 193.29 77.8287 188.206C77.5982 181.967 77.1371 179.425 74.8318 176.189C69.9906 169.719 68.3769 167.87 66.5326 165.559L66.0716 164.866C56.3892 153.081 49.2427 133.9 49.0122 133.669C49.0122 133.438 49.0122 133.207 49.0122 132.976C49.0122 132.745 51.7786 128.816 53.6228 126.737C55.6976 123.964 58.6945 118.186 58.6945 118.186C58.9251 117.955 59.1556 117.724 59.3861 117.724C59.6167 117.724 59.8472 117.724 60.0777 117.955C60.0777 118.186 71.3738 131.127 73.4486 133.438C78.2898 138.522 90.0469 146.379 94.1965 148.459C95.1186 148.921 96.0407 149.383 97.1934 150.076C102.726 153.081 111.717 158.165 123.474 157.471C139.842 156.547 157.362 144.993 157.593 144.993C157.823 144.993 157.823 144.761 158.054 144.761C158.054 144.761 162.664 144.299 172.116 141.757C175.805 140.833 179.032 139.215 179.032 139.215C179.263 138.984 179.724 139.215 179.954 139.215C180.185 139.446 180.415 139.677 180.415 139.909C180.415 139.909 180.185 142.219 182.721 147.535C183.643 149.383 185.948 151.925 187.101 153.543C188.023 154.698 188.484 154.929 188.484 155.392C188.715 155.854 188.484 156.316 188.023 156.547C187.792 156.547 174.422 162.555 170.041 165.559C165.661 168.564 163.817 170.181 161.512 172.492L160.82 173.185C157.593 176.189 154.826 179.425 154.135 187.744C153.443 194.214 155.979 202.071 155.979 202.071C155.979 202.302 155.979 202.765 155.748 202.996C155.518 203.227 155.287 203.227 154.826 203.227C154.596 203.227 127.393 194.908 117.019 195.832C109.873 196.525 78.9813 205.769 78.7508 206C78.2898 205.769 78.0592 205.769 78.0592 205.769ZM50.3954 133.669C51.5481 136.442 58.2335 153.312 66.9937 163.942L67.4548 164.635C69.299 166.946 70.9127 168.795 75.9844 175.265C78.7508 178.731 79.2119 181.736 79.4424 188.206C79.6729 192.597 79.2119 200.685 78.9814 203.92C84.7446 202.071 109.873 194.676 116.558 194.214C126.01 193.29 147.449 199.529 153.443 201.147C152.752 198.374 151.599 192.828 152.06 187.744C152.982 178.731 156.21 175.034 159.437 172.03L160.129 171.337C162.434 169.026 164.278 167.408 168.658 164.173C172.577 161.4 182.49 157.009 185.948 155.392C185.718 155.16 185.487 154.929 185.487 154.698C184.104 153.081 181.799 150.539 180.646 148.228C179.032 144.761 178.571 142.451 178.341 141.064C176.957 141.526 174.883 142.451 172.347 143.144C163.817 145.455 159.206 146.148 158.284 146.148C156.21 147.535 139.611 157.933 123.474 158.858C111.256 159.551 101.804 154.467 96.2712 151.232C95.1186 150.539 94.1964 150.076 93.2743 149.614C89.1247 147.766 76.9066 139.446 72.0654 134.362C70.2211 132.514 62.1525 123.039 59.6167 119.804C58.6945 121.653 56.6198 125.35 55.006 127.43C53.3923 129.51 51.087 132.514 50.3954 133.669Z" fill="black"/>
<path d="M158.976 127.893C158.976 127.893 161.973 112.872 166.353 107.788C170.733 102.704 174.883 97.62 175.805 96.0024C178.11 91.3806 165.431 84.448 161.051 86.9899C156.671 89.3008 152.06 95.3091 149.524 95.7713C147.911 96.0024 140.073 91.3806 132.696 89.5319C122.091 86.7588 104.801 87.221 100.191 89.5319C95.8104 91.8428 92.8135 81.6749 92.583 80.5195C92.3525 79.364 80.1343 80.2884 75.9847 81.6749C74.6015 82.1371 72.5267 83.5236 73.6794 86.0656C77.5984 93.9226 81.5175 102.242 80.3648 107.326C80.1343 108.943 80.5953 113.796 81.9785 113.796C84.9755 113.796 91.1998 107.326 96.041 106.401C103.418 104.784 158.976 127.893 158.976 127.893Z" fill="white"/>
<path d="M93.7355 85.8347C93.7355 85.8347 93.2744 83.5238 94.8881 80.0575C96.7324 75.8979 100.651 70.1207 101.343 65.9611C102.265 58.5663 97.1935 54.8689 91.1996 55.3311C85.2058 55.7933 76.4456 58.1041 73.6792 64.5746C72.296 67.5787 70.2212 71.9694 70.2212 75.6668C69.9907 79.8264 71.8349 83.7549 72.5265 84.9104C72.5265 84.9104 78.5204 80.9819 82.2089 81.9062C85.6669 82.8306 93.7355 85.8347 93.7355 85.8347Z" fill="#6CBFC3"/>
<path d="M160.359 133.208C160.359 133.208 162.203 114.027 152.752 104.322C143.53 95.0781 135.692 93.9226 124.166 92.305C112.409 90.6874 102.957 91.1496 95.5797 96.2335C87.2806 102.011 84.2837 106.864 81.9783 112.179C78.2898 119.804 78.7509 127.661 79.673 130.666C80.1341 132.745 87.5111 137.136 89.3554 138.523C95.1187 142.451 121.169 147.997 133.848 147.073C146.527 146.149 155.518 145.224 158.054 141.296C160.59 137.367 160.359 133.208 160.359 133.208Z" fill="#E6E9E8"/>
<g opacity="0.68">
<path d="M76.4457 80.2883C76.4457 80.2883 74.1404 74.0489 75.7541 69.196C77.1373 65.0364 80.8258 60.1836 80.8258 60.1836C80.8258 60.1836 76.2151 63.1877 74.3709 66.6541C72.0656 70.5826 71.6045 74.0489 72.0656 77.5152C72.5266 80.7504 73.6793 81.9059 73.6793 81.9059C73.6793 81.9059 74.1404 81.4437 74.6014 81.2126C75.0625 80.7504 76.4457 80.2883 76.4457 80.2883Z" fill="white"/>
</g>
<path d="M155.057 92.9984C155.057 92.9984 155.518 90.2254 155.287 87.2212C155.057 82.5995 152.29 76.3601 152.752 72.2005C153.674 64.8057 159.668 62.957 165.2 65.0368C170.964 67.1166 178.802 71.2762 179.954 78.2088C180.646 81.444 181.338 86.0658 180.646 89.7632C179.724 93.6917 175.805 97.3891 174.883 98.3135C174.883 98.3135 171.655 92.5363 165.661 92.3052C162.203 91.843 155.057 92.9984 155.057 92.9984Z" fill="#6CBFC3"/>
<path d="M159.437 138.523C159.437 138.523 150.446 142.451 144.683 141.296C141.456 140.602 133.617 135.75 131.543 131.359C129.237 126.737 130.621 125.12 128.085 120.729C125.318 116.569 121.399 116.338 118.863 115.876C116.328 115.414 112.87 115.414 110.334 118.649C107.798 121.884 106.415 129.279 102.035 131.128C99.2683 132.283 93.2744 134.594 88.8943 133.439C84.7447 132.283 79.673 129.741 79.673 129.741C79.673 129.741 77.1372 134.363 78.9815 138.292C80.8257 142.22 88.4333 148.459 93.505 151.926C98.5767 155.623 106.876 161.4 115.175 162.787C123.474 164.173 135.001 158.858 137.998 157.703C140.995 156.548 152.752 150.308 155.979 146.842C158.976 143.144 159.437 138.523 159.437 138.523Z" fill="#4D8787"/>
<path d="M111.026 163.018C107.337 161.631 102.265 159.32 97.6547 155.623C95.8104 154.236 93.9662 153.081 92.3525 151.694C84.9754 146.611 78.7511 141.989 77.829 135.98C77.3679 132.745 78.7511 122.346 80.8259 107.557L82.2091 107.788C80.3648 120.266 78.7511 132.514 79.2121 135.749C79.9037 141.296 86.1281 145.455 93.0441 150.539C94.8883 151.694 96.7326 153.081 98.3463 154.468C105.493 160.014 113.331 162.325 116.097 162.787C119.094 163.249 127.393 161.862 135.001 157.934C137.076 157.01 139.15 156.085 140.995 155.161C148.833 151.694 155.749 148.459 157.593 143.375C159.668 137.136 160.359 129.279 160.59 125.119V124.195C160.59 123.271 160.82 121.653 160.82 120.035C160.82 118.88 161.051 117.725 161.051 116.338H162.434C162.434 117.725 162.204 118.88 162.204 120.035C162.204 121.653 161.973 123.04 161.973 124.195V125.119C161.743 129.279 161.051 137.136 158.976 143.606C156.901 149.384 149.985 152.619 141.686 156.316C139.611 157.241 137.767 158.165 135.692 159.089C127.393 163.018 119.094 164.404 115.867 163.942C114.714 164.173 113.1 163.711 111.026 163.018Z" fill="black"/>
<path d="M84.2836 132.745C82.2088 132.052 80.134 131.128 78.0592 129.741L78.7508 128.355C80.5951 129.51 82.6698 130.434 84.7446 131.128C90.5079 133.208 99.0376 132.745 103.187 128.355C104.109 127.199 105.031 125.582 105.723 123.733C107.798 119.111 110.334 113.565 118.863 114.258C128.085 115.183 129.468 121.191 130.62 125.813C131.082 127.661 131.543 129.51 132.234 130.666C135.923 135.749 143.991 140.602 149.524 139.678C153.443 138.985 158.054 136.674 159.206 136.212L159.898 137.598C158.515 138.291 153.904 140.602 149.755 141.296C143.53 142.451 134.77 137.136 130.851 131.821C129.929 130.434 129.468 128.355 129.007 126.506C127.854 121.884 126.701 116.8 118.633 116.107C111.256 115.414 108.95 120.035 106.876 124.657C105.954 126.506 105.262 128.355 103.879 129.741C99.7292 134.363 90.7385 135.056 84.2836 132.745Z" fill="black"/>
<path d="M79.212 116.107L79.6731 111.023C79.6731 111.023 80.1341 106.863 79.212 101.548C78.7509 98.0821 77.1372 95.309 75.0624 91.8427C74.1403 89.994 72.9876 88.1453 71.835 85.8344C68.6075 79.1328 68.6075 75.4354 69.5297 71.5069C70.4518 68.5028 72.5266 62.7256 77.3678 59.2593C81.9784 56.024 89.5859 53.7131 95.5798 55.7929C98.3462 56.7173 100.19 58.3349 101.343 60.6458C102.957 64.3432 101.343 68.7339 100.421 71.0448C99.9599 72.2002 99.0377 73.5867 98.3462 74.9733C96.5019 77.9774 94.6576 80.9815 94.8882 83.7546C95.1187 87.6831 99.2683 88.8385 99.4988 88.8385L101.574 89.3007L99.7293 90.2251C99.7293 90.2251 93.2745 92.9981 89.3554 97.3888C84.5142 102.704 81.2868 111.023 81.2868 111.023L79.212 116.107ZM95.3492 57.1795C89.5859 55.0997 82.67 57.4106 78.2899 60.4147C73.6792 63.6499 71.835 68.965 70.9129 71.9691C70.2213 74.9733 69.7602 78.4396 72.9876 85.1411C74.1403 87.452 75.293 89.3007 76.2151 91.1494C78.2899 94.6157 79.9036 97.6199 80.5952 101.317C80.8257 103.628 81.0563 105.708 81.0563 107.326C82.4395 104.321 84.9753 99.9308 87.9722 96.6955C90.9691 93.4603 95.1187 90.9183 97.1935 89.7629C95.5798 88.8385 93.505 87.2209 93.2745 83.9857C93.0439 80.7505 95.1187 77.2841 96.963 74.28C97.6546 72.8935 98.5767 71.738 99.0377 70.5826C99.9599 68.5028 101.343 64.5743 99.9599 61.3391C99.2683 59.2593 97.6546 57.8727 95.3492 57.1795Z" fill="black"/>
<path d="M73.2181 87.9143C72.9876 87.9143 72.7571 87.6833 72.7571 87.4522C72.296 85.8346 72.757 84.2169 73.6792 83.2926C75.5234 81.2128 79.4425 81.2128 82.2089 81.4439C87.2806 82.1371 94.6576 85.3724 94.8881 85.6035C95.3492 85.8345 95.3492 86.2967 95.3492 86.5278C95.1186 86.99 94.6576 86.99 94.427 86.99C94.427 86.99 87.05 83.5237 82.2089 83.0615C78.7509 82.5993 75.9845 83.0615 74.8318 84.2169C74.1402 84.9102 74.269 86.8447 74.4995 88.0001C74.4995 88.4623 74.1402 87.6833 73.6792 87.9143C73.4486 87.9143 73.4486 87.9143 73.2181 87.9143Z" fill="black"/>
<path d="M98.1157 90.2253C97.8852 90.2253 97.6547 89.9942 97.6547 89.7631C97.6547 89.3009 97.8852 88.8388 98.1157 88.8388C105.723 86.5279 115.406 86.0657 124.857 87.2211C134.079 88.3766 142.839 91.1496 149.755 95.0781C150.216 95.3092 150.216 95.7714 149.985 96.0025C149.755 96.4647 149.294 96.4647 149.063 96.2336C142.378 92.3051 133.848 89.7631 124.857 88.6077C115.636 87.4522 106.184 87.9144 98.8073 90.2253C98.3463 90.4564 98.3463 90.4564 98.1157 90.2253Z" fill="black"/>
<path d="M161.512 127.661L161.051 120.266C161.051 120.266 160.59 112.64 156.671 105.014C153.904 99.4684 148.372 95.5399 148.372 95.5399L146.527 94.1533H148.833C149.063 94.1533 153.213 93.9222 154.365 90.4559C155.288 87.6829 154.135 84.2165 153.213 80.9813C152.752 79.3637 152.291 77.9772 152.06 76.5906C151.599 74.0487 151.138 69.4269 153.674 66.1917C155.057 64.343 157.362 63.1875 160.359 62.9564C167.045 62.2632 173.73 66.4228 177.419 70.8134C181.338 75.4352 182.029 81.4435 182.029 84.6787C182.029 88.8383 181.107 92.3046 176.266 98.0818C174.652 99.9305 173.039 101.548 171.655 103.166C168.889 106.17 166.584 108.481 165.2 111.485C163.126 116.338 162.434 120.497 162.434 120.497L161.512 127.661ZM150.677 95.5399C152.521 97.1575 155.979 100.393 158.054 104.552C160.359 108.943 161.512 113.103 161.973 116.107C162.434 114.489 162.895 112.871 163.817 110.792C165.2 107.325 167.736 104.783 170.503 102.01C171.886 100.624 173.5 99.0062 175.113 97.1575C180.185 91.3803 180.416 87.9139 180.416 84.9098C180.416 81.9057 179.724 76.1285 176.266 71.9689C172.808 67.8093 166.584 64.1119 160.59 64.574C158.054 64.8051 156.21 65.7295 155.057 67.3471C152.982 70.1202 153.443 74.2798 153.674 76.5906C153.904 77.7461 154.365 79.3637 154.827 80.7502C155.749 84.2165 156.901 87.914 155.979 91.1492C154.827 93.9222 152.291 95.0777 150.677 95.5399Z" fill="black"/>
<path d="M153.904 93.4604C153.674 93.4604 153.443 93.2293 153.443 92.9982C153.443 92.536 153.674 92.3049 154.135 92.0739C154.365 92.0739 161.512 90.6873 166.353 91.1495C170.042 91.6117 173.269 93.2293 174.422 95.3091C175.113 96.4645 175.344 97.8511 174.883 99.0065C174.652 99.4687 174.422 99.6998 173.961 99.4687C173.5 99.2376 173.269 99.0065 173.5 98.5443C173.73 97.62 173.73 96.9267 173.269 96.2334C172.347 94.6158 169.35 93.2293 166.123 92.7671C161.281 92.0739 154.365 93.4604 154.365 93.4604C154.365 93.6915 154.135 93.6915 153.904 93.4604Z" fill="black"/>
<g opacity="0.68">
<path d="M162.434 89.7627C162.434 89.7627 158.284 82.599 156.901 76.1285C155.749 71.2757 157.593 67.3472 157.593 67.3472C157.593 67.3472 156.44 68.0404 155.518 69.658C154.596 71.2757 154.135 73.8176 154.827 76.1285C156.21 81.2125 157.362 83.7544 157.593 85.6031C158.054 88.1451 157.593 90.2249 157.593 90.2249C157.593 90.2249 159.207 89.9938 159.668 89.9938C160.359 89.7627 162.434 89.7627 162.434 89.7627Z" fill="white"/>
</g>
<path d="M113.792 120.498C113.792 122.347 113.331 124.426 112.87 126.968C112.409 130.204 103.418 138.292 97.4241 142.913C95.1188 144.531 93.9661 147.997 92.5829 151.233C92.5829 151.233 81.7479 144.069 79.4426 138.523C77.3678 133.901 78.751 125.813 79.9037 117.494C81.0563 110.099 83.3617 105.477 83.3617 105.477C88.2028 102.935 90.7387 101.78 93.7356 100.855C96.963 100.162 108.029 97.6201 111.256 101.086C113.1 103.166 114.022 105.708 114.253 108.481C114.253 108.481 114.945 111.023 119.786 111.716C124.627 112.41 126.01 109.868 126.01 109.868C126.932 106.864 128.315 104.091 130.851 102.473C134.77 99.931 144.914 104.784 147.68 106.633C152.521 109.637 156.901 114.027 161.742 122.115C161.742 122.115 161.281 140.602 158.285 144.531C152.752 152.619 137.306 157.934 137.306 157.934C137.306 157.934 138.228 151.233 136.615 148.922C131.773 141.758 122.091 132.283 122.322 127.199C122.322 124.888 122.552 123.04 122.783 121.422C122.783 121.422 123.935 118.649 118.633 117.956C115.175 117.494 113.792 120.498 113.792 120.498Z" fill="#6CBFC3"/>
<path d="M93.4998 152.5L92.0776 151.693C91.6166 151.462 81.0563 144.531 78.5205 138.754C76.4457 134.132 77.5983 126.275 78.751 117.956V117.263C79.9036 109.868 82.209 105.246 82.209 105.015V104.784H82.4395C87.2807 102.242 89.8165 100.855 93.044 100.162C102.726 97.8511 108.951 98.0822 111.256 100.624C113.1 102.704 114.022 105.015 114.253 108.481C114.483 108.712 115.406 110.561 119.325 111.023C123.244 111.485 124.396 109.868 124.627 109.637C125.318 107.095 126.702 103.859 129.929 101.78C134.309 98.7754 145.144 104.322 147.68 105.939C152.752 109.174 157.132 114.027 161.973 121.653L162.204 121.884V122.115C162.204 122.809 161.512 140.833 158.746 144.993C152.982 153.081 138.113 157.962 137.422 158.193L136.269 158.656L136.5 157.5C136.73 155.651 137.306 151.001 136.153 149.384C134.54 147.073 132.695 144.762 130.621 142.22C126.01 136.443 121.399 131.128 121.63 127.199C121.63 125.119 121.86 123.04 122.091 121.422C122.091 121.422 122.322 120.96 121.86 120.498C121.399 119.804 120.247 119.342 118.402 119.111C115.867 118.88 114.483 120.498 114.253 120.96C114.022 122.578 113.792 124.195 113.561 126.275L113.331 127.43C112.639 131.128 103.187 139.447 97.4241 143.838C95.5798 145.224 94.1524 147.996 92.9998 151L93.4998 152.5ZM83.8227 106.17C83.3616 107.095 81.5174 111.485 80.5952 117.725V118.418C79.4426 126.044 78.2899 134.132 80.1342 138.292C81.9784 142.682 89.8165 148.459 92.3524 150.308C93.505 147.304 94.8882 144.3 97.1935 142.451C104.109 137.136 111.948 129.741 112.409 126.968L112.639 125.813C113.1 123.733 113.331 121.884 113.331 120.498V120.267V120.036C113.792 118.88 115.867 116.8 119.094 117.263C121.399 117.494 123.013 118.187 123.705 119.573C124.166 120.498 124.166 121.422 123.935 121.653C123.705 123.271 123.474 125.119 123.474 127.199C123.244 130.435 127.854 135.981 132.004 141.296C134.079 143.838 135.923 146.149 137.537 148.459C138.92 150.308 138.689 154.699 138.459 156.779C142.147 155.392 153.213 150.77 157.823 144.069C159.898 140.833 160.82 127.43 161.051 122.115C156.44 114.721 152.291 110.099 147.449 107.095C144.453 105.246 134.77 100.624 131.312 102.935C129.237 104.322 127.624 106.632 126.702 110.099C126.702 110.33 125.088 113.103 119.786 112.41C114.483 111.716 113.561 108.712 113.561 108.712V108.481C113.331 105.477 112.409 103.166 110.795 101.548C109.642 100.393 106.184 98.7754 94.1966 101.548C90.7386 102.473 88.2028 103.628 83.8227 106.17Z" fill="black"/>
<path d="M141.95 140.348C148.681 139.876 153.714 133.404 153.19 125.892C152.666 118.38 146.784 112.673 140.052 113.145C133.32 113.617 128.288 120.089 128.812 127.601C129.336 135.113 135.218 140.82 141.95 140.348Z" fill="white"/>
<path d="M137.306 140.602C132.234 138.754 128.546 133.901 128.085 127.662C127.854 123.733 129.007 120.036 131.082 117.263C133.387 114.258 136.384 112.641 139.842 112.41C146.988 111.948 153.213 117.956 153.674 126.044C154.135 133.901 148.833 140.834 141.686 141.296C140.303 141.296 138.92 141.065 137.306 140.602ZM144.222 114.258C142.839 113.796 141.456 113.565 140.072 113.796C137.075 114.027 134.309 115.645 132.234 118.187C130.16 120.729 129.237 124.195 129.468 127.662C129.929 134.825 135.462 140.14 141.686 139.678C147.91 139.216 152.752 132.977 152.291 126.044C152.06 120.498 148.602 115.876 144.222 114.258Z" fill="black"/>
<path d="M141.719 137.11C146.8 136.753 150.594 131.82 150.195 126.091C149.795 120.361 145.352 116.005 140.272 116.361C135.191 116.718 131.397 121.651 131.796 127.38C132.196 133.11 136.639 137.466 141.719 137.11Z" fill="white"/>
<path d="M137.998 137.598C136.615 137.136 135.462 136.443 134.309 135.287C132.234 133.207 131.082 130.665 130.851 127.661C130.621 124.657 131.543 121.884 133.157 119.573C135.001 117.262 137.306 115.876 140.072 115.876C145.605 115.414 150.446 120.266 150.907 126.275C151.369 132.514 147.219 137.829 141.686 138.06C140.303 138.06 139.15 137.829 137.998 137.598ZM143.3 117.493C142.378 117.262 141.225 117.031 140.303 117.031C137.998 117.262 135.923 118.418 134.54 120.266C132.926 122.115 132.234 124.657 132.465 127.43C132.695 129.972 133.618 132.514 135.462 134.132C137.306 135.749 139.381 136.674 141.686 136.443C146.297 136.211 149.985 131.59 149.524 126.044C149.063 122.115 146.527 118.649 143.3 117.493Z" fill="black"/>
<path d="M107.946 124.744C109.978 117.495 106.36 110.135 99.8639 108.305C93.3676 106.474 86.4536 110.867 84.4209 118.116C82.3882 125.365 86.0066 132.726 92.5028 134.556C98.999 136.386 105.913 131.994 107.946 124.744Z" fill="white"/>
<path d="M91.4302 135.056C84.9753 132.745 81.5174 125.35 83.5922 117.955C85.6669 110.329 93.044 105.708 99.9599 107.556C103.418 108.481 105.954 110.792 107.567 114.258C109.181 117.493 109.412 121.422 108.49 125.119C107.337 128.816 105.262 132.052 102.035 133.9C99.0378 135.98 95.3493 136.442 92.1218 135.518C91.8913 135.287 91.6608 135.056 91.4302 135.056ZM85.2059 118.186C83.3616 125.119 86.5891 132.052 92.8134 133.669C95.8103 134.594 98.8073 133.9 101.574 132.283C104.34 130.434 106.415 127.661 107.337 124.426C108.259 121.191 108.029 117.493 106.645 114.72C105.262 111.716 102.726 109.636 99.9599 108.943C93.505 107.094 87.0501 111.254 85.2059 118.186Z" fill="black"/>
<path d="M105.012 123.906C106.563 118.377 103.845 112.775 98.942 111.394C94.0392 110.012 88.8079 113.374 87.2575 118.903C85.7071 124.432 88.4248 130.034 93.3276 131.416C98.2304 132.797 103.462 129.435 105.012 123.906Z" fill="white"/>
<path d="M92.583 131.821C87.7418 129.972 84.9754 124.426 86.5892 118.649C87.2808 115.876 89.125 113.334 91.4303 111.947C93.7356 110.33 96.502 110.099 99.0379 110.792C104.34 112.178 107.337 118.187 105.493 124.195C104.801 126.968 102.957 129.51 100.652 130.896C98.3463 132.514 95.5799 132.745 93.044 132.052C92.8135 132.052 92.8135 131.821 92.583 131.821ZM99.0379 112.409C98.8073 112.409 98.8073 112.409 98.5768 112.178C96.502 111.485 94.1967 111.947 92.1219 113.334C90.0471 114.72 88.6639 116.8 87.9723 119.111C86.5892 124.195 89.125 129.279 93.5051 130.665C95.5799 131.359 97.8852 130.896 99.96 129.51C102.035 128.123 103.418 126.044 104.11 123.733C105.493 118.649 103.187 113.796 99.0379 112.409Z" fill="black"/>
<path d="M161.742 123.04C161.742 123.04 164.509 121.422 170.272 115.183C173.73 111.254 175.805 107.095 175.805 107.095L180.876 114.258C180.876 114.258 172.116 120.96 169.58 122.347C165.661 124.426 161.281 125.582 161.281 125.582L161.742 123.04Z" fill="#6CBFC3"/>
<path d="M161.281 126.275C161.051 126.275 161.051 126.275 161.281 126.275C160.82 126.044 160.82 125.813 160.82 125.582L161.051 123.04C161.051 122.809 161.281 122.578 161.512 122.346C161.512 122.346 164.278 120.729 169.811 114.721C173.269 111.023 175.344 106.864 175.344 106.864C175.344 106.632 175.805 106.401 176.035 106.401C176.266 106.401 176.496 106.401 176.727 106.632L181.799 113.796C182.029 114.027 182.029 114.489 181.568 114.721C181.107 114.952 172.808 121.422 170.272 122.809C166.353 124.888 161.973 126.044 161.973 126.044C161.512 126.506 161.281 126.275 161.281 126.275ZM162.434 123.502V124.657C164.048 124.195 166.814 123.271 169.58 121.653C171.655 120.498 178.11 115.645 180.185 114.027L175.805 108.481C174.883 110.099 173.269 112.872 170.733 115.645C166.122 120.729 163.356 122.809 162.434 123.502Z" fill="black"/>
<path d="M183.182 112.41C186.179 109.406 188.023 106.632 191.712 99.4688L206.696 108.712C206.696 108.712 201.394 118.649 191.942 123.04C185.487 126.044 179.032 127.43 175.805 128.124C170.733 129.048 161.051 128.355 161.051 128.355V125.351C161.051 125.351 166.353 123.733 172.577 120.036C176.727 118.187 180.877 114.489 183.182 112.41Z" fill="#6CBFC3"/>
<path d="M161.051 129.279C160.82 129.279 160.59 128.817 160.59 128.586V125.582C160.59 125.351 160.82 124.888 161.051 124.888C161.051 124.888 166.353 123.271 172.347 119.804C176.035 117.725 179.954 114.258 182.49 111.947C185.257 109.174 187.101 106.401 191.02 99.2376C191.02 99.0065 191.25 99.0065 191.481 98.7754C191.712 98.7754 191.942 98.7754 192.173 98.7754L207.157 108.019C207.388 108.25 207.618 108.712 207.388 108.943C207.157 109.405 201.855 119.342 192.403 123.502C185.026 126.737 178.11 128.124 176.266 128.586C170.964 129.972 161.742 129.279 161.051 129.279C161.281 129.279 161.281 129.279 161.051 129.279ZM162.203 126.275V127.893C164.509 128.124 171.886 128.355 176.035 127.661C177.88 127.43 184.796 126.044 191.942 122.577C199.78 119.111 204.621 111.485 206.004 109.174L192.173 100.624C188.945 106.863 186.87 109.868 183.873 112.872C181.338 115.183 177.188 118.649 173.5 120.96C168.197 123.964 163.587 125.582 162.203 126.275Z" fill="black"/>
<path d="M121.63 146.148C120.477 146.379 118.633 146.841 116.328 146.61C114.022 146.379 112.178 146.148 109.873 145.224C107.567 144.299 104.801 142.451 104.34 143.375C103.879 144.53 107.106 148.228 108.72 150.077C110.103 151.694 112.409 153.081 114.483 153.543C116.558 154.005 119.324 153.774 121.63 152.156C123.935 150.308 127.393 146.379 126.932 145.686C126.471 144.762 124.166 145.686 121.63 146.148Z" fill="white"/>
<path d="M113.1 154.005C111.256 153.312 109.642 152.157 108.259 150.77C104.801 147.073 103.418 144.531 103.879 143.375C103.879 143.144 104.11 142.913 104.571 142.682C105.262 142.451 106.184 142.682 107.798 143.606C108.72 144.068 109.412 144.531 110.334 144.762C112.409 145.455 114.253 145.686 116.558 145.917C118.403 146.148 120.247 145.686 121.169 145.455H121.4C122.091 145.224 122.552 145.224 123.244 144.993C125.549 144.3 127.163 144.069 127.624 144.993C128.546 146.842 123.474 151.463 122.091 152.619C119.094 154.93 115.636 154.467 114.253 154.236C114.022 154.236 113.561 154.005 113.1 154.005ZM105.493 144.3C105.954 145.224 107.337 147.304 109.412 149.846C110.795 151.463 112.87 152.619 114.714 153.081C115.867 153.312 118.864 153.543 121.169 151.694C123.474 150.077 125.549 147.304 126.01 146.148C125.549 146.148 124.396 146.379 123.474 146.61C122.783 146.842 122.322 146.842 121.63 147.073H121.4C120.247 147.304 118.403 147.766 116.097 147.535C113.561 147.304 111.717 147.073 109.642 146.148C108.72 145.917 107.798 145.455 106.876 144.993C106.415 144.762 105.954 144.3 105.493 144.3Z" fill="black"/>
<path d="M100.882 120.266C100.882 120.266 101.343 122.346 100.191 123.964C98.5768 126.043 96.2715 126.043 94.4273 125.35C92.1219 124.426 91.6609 122.346 91.6609 121.191C91.6609 119.342 92.8135 116.8 94.6578 116.338C97.1937 115.644 99.2684 117.031 99.2684 117.031C99.2684 117.031 97.1936 118.186 98.3463 119.804C99.0379 121.191 100.882 120.266 100.882 120.266Z" fill="#1A1A1A"/>
<path d="M94.1967 126.044H93.9662C91.4304 125.119 90.7388 122.808 90.7388 120.96C90.7388 118.649 91.8914 116.107 94.4273 115.414C97.1937 114.72 99.499 116.107 99.7295 116.338C99.96 116.569 100.191 116.8 100.191 117.031C100.191 117.262 99.96 117.493 99.7295 117.724C99.7295 117.724 99.2684 117.955 99.0379 118.418C98.5768 118.88 98.8074 119.111 99.0379 119.573C99.499 120.497 100.652 119.804 100.652 119.804C100.882 119.804 101.113 119.804 101.343 119.804C101.574 119.804 101.804 120.035 101.804 120.266C101.804 120.266 102.265 122.577 100.882 124.657C99.2685 126.275 96.7326 126.968 94.1967 126.044ZM97.6547 117.031C96.9631 116.8 95.8105 116.569 94.6578 116.8C93.0441 117.262 92.122 119.342 92.122 120.96C92.122 121.653 92.3525 123.733 94.4273 124.426C95.3494 124.888 97.8853 125.35 99.2684 123.271C99.96 122.577 99.96 121.653 99.96 120.96C99.0379 121.191 97.8853 120.96 97.1937 119.804C96.9631 119.342 96.7326 118.649 96.9631 117.955C97.1937 117.724 97.4242 117.493 97.6547 117.031Z" fill="black"/>
<path d="M145.605 126.506C145.605 126.506 146.066 128.586 144.913 130.204C143.3 132.284 140.994 132.284 139.15 131.59C136.845 130.666 136.384 128.586 136.384 127.431C136.384 125.582 137.536 123.04 139.381 122.578C141.917 121.885 143.991 123.271 143.991 123.271C143.991 123.271 141.917 124.427 143.069 126.044C143.761 127.431 145.605 126.506 145.605 126.506Z" fill="#1A1A1A"/>
<path d="M139.15 132.514H138.92C136.384 131.59 135.692 129.279 135.692 127.43C135.692 125.119 136.845 122.577 139.381 121.884C142.147 121.191 144.453 122.577 144.683 122.809C144.914 123.04 145.144 123.271 145.144 123.502C145.144 123.733 144.914 123.964 144.683 124.195C144.453 124.426 143.992 124.657 143.761 125.351C143.761 125.582 143.761 125.582 143.992 126.044C144.453 126.968 145.605 126.275 145.605 126.275C145.836 126.275 146.066 126.275 146.297 126.275C146.527 126.275 146.758 126.506 146.758 126.737C146.758 126.737 147.219 129.048 145.836 131.128C143.992 132.745 141.686 133.439 139.15 132.514ZM142.608 123.502C141.917 123.271 140.764 123.04 139.611 123.271C137.998 123.733 137.076 125.813 137.076 127.43C137.076 128.124 137.306 130.203 139.381 130.897C140.303 131.359 142.839 131.821 144.222 129.741C144.683 129.048 144.914 128.124 144.914 127.43C143.992 127.661 142.839 127.43 142.147 126.275C141.917 125.813 141.686 125.119 141.917 124.426C142.147 124.195 142.378 123.733 142.608 123.502Z" fill="black"/>
</svg>
