<svg width="202" height="238" viewBox="0 0 202 238" fill="none" xmlns="http://www.w3.org/2000/svg">
<path d="M143.138 139.962C143.138 139.962 125.979 147.22 114.901 150.47C103.824 153.72 72.2206 158.703 65.3786 158.703C65.3786 158.703 64.6184 174.844 65.9216 182.535C66.7904 187.519 67.6593 194.668 76.1302 205.935C79.8227 210.809 84.927 217.418 86.7732 221.426C87.7507 223.701 86.6646 224.242 85.47 225.651C84.0582 227.384 82.755 228.359 82.2119 230.092C81.2345 232.909 83.298 234.642 86.4474 234.859C88.7281 234.967 107.625 235.292 111.426 233.342C116.965 230.634 113.815 224.134 112.729 220.451C111.209 215.468 109.797 213.734 108.059 208.643C103.064 193.585 112.186 186.219 119.571 182.319C127.499 178.202 136.187 175.927 142.052 174.627C149.219 173.111 160.514 174.952 171.374 178.636C176.479 180.369 180.171 181.994 185.275 183.185C189.076 184.052 195.701 183.51 197.873 179.719C199.937 175.927 198.851 157.078 198.308 154.911C197.547 151.77 194.941 150.47 192.443 151.986C189.619 153.72 186.579 157.295 182.343 156.211C178.108 155.128 171.592 149.712 164.207 146.57C151.5 141.154 143.138 139.962 143.138 139.962Z" fill="#E6ECEC"/>
<path d="M93.0721 235.942C89.271 235.942 86.3388 235.833 86.2302 235.833C83.9495 235.725 82.3205 234.858 81.3431 233.559C80.8001 232.8 80.3657 231.5 81.0173 229.659C81.5603 228.25 82.4291 227.275 83.2979 226.3C83.6237 225.867 84.0581 225.434 84.4926 225.001C84.7098 224.784 84.927 224.459 85.1442 224.242C86.013 223.267 86.2302 223.051 85.6872 221.859C84.0581 218.284 79.4969 212.218 75.913 207.451L75.2614 206.584C67.1162 195.752 65.9216 188.71 65.0528 183.619L64.9442 182.752C63.6409 175.061 64.2926 159.353 64.4012 158.594V157.511H65.4872C72.3291 157.511 103.932 152.42 114.684 149.278C125.653 146.137 142.595 138.879 142.812 138.77L143.138 138.662H143.464C143.789 138.662 152.152 139.962 164.858 145.27C168.551 146.787 172.026 148.953 175.175 150.903C178.216 152.745 180.931 154.37 182.886 154.911C185.601 155.67 187.882 153.936 190.054 152.311C190.705 151.77 191.357 151.336 192.117 150.903C193.529 150.036 195.05 149.82 196.461 150.47C197.982 151.12 199.176 152.636 199.611 154.586C200.154 156.97 201.348 176.036 199.068 180.152C196.679 184.485 189.402 185.135 185.275 184.16C181.8 183.294 178.868 182.319 175.827 181.235C174.415 180.694 172.895 180.152 171.266 179.61C159.645 175.711 149.002 174.302 142.486 175.711C133.798 177.552 126.413 180.152 120.223 183.294C109.145 188.927 105.561 197.16 109.254 208.209C110.014 210.593 110.774 212.218 111.534 213.843C112.403 215.684 113.164 217.417 113.924 220.017C114.032 220.451 114.25 220.884 114.358 221.426C115.661 225.109 117.725 231.392 112.077 234.209C109.037 235.725 99.6968 235.942 93.0721 235.942ZM66.356 159.786C66.2474 163.469 65.813 176.036 66.899 182.427L67.0076 183.294C67.8764 188.277 68.9624 194.993 76.8904 205.393L77.542 206.259C81.2345 211.134 85.9044 217.201 87.642 221.101C88.8366 223.592 87.7506 224.784 86.7732 225.867C86.556 226.084 86.4474 226.3 86.2302 226.517C85.7958 227.059 85.3614 227.492 85.0356 227.925C84.1667 228.9 83.5151 229.55 83.1893 230.634C82.8635 231.392 82.9721 232.15 83.2979 232.584C83.8409 233.342 84.927 233.775 86.4474 233.884C90.3571 234.1 107.625 234.209 110.883 232.584C114.575 230.742 113.598 226.95 112.077 222.401C111.86 221.859 111.752 221.426 111.643 220.884C110.883 218.392 110.123 216.659 109.362 214.926C108.602 213.301 107.842 211.568 106.973 209.076C102.955 196.943 106.973 187.627 119.028 181.452C125.327 178.202 133.038 175.602 141.834 173.652C148.785 172.136 159.645 173.652 171.7 177.66C173.329 178.202 174.85 178.744 176.261 179.285C179.194 180.369 182.017 181.344 185.493 182.21C189.076 183.077 195.05 182.535 196.787 179.285C198.633 175.927 197.656 157.511 197.113 155.236C196.787 153.936 196.136 153.07 195.267 152.636C194.507 152.311 193.746 152.42 192.878 152.961C192.335 153.286 191.683 153.828 191.031 154.261C188.642 155.995 185.71 158.27 182.017 157.295C179.737 156.645 176.913 155.02 173.764 153.07C170.723 151.228 167.356 149.17 163.772 147.653C152.695 142.995 144.875 141.478 143.246 141.262C140.966 142.237 125.436 148.737 115.118 151.661C104.475 154.586 75.1528 159.353 66.356 159.786Z" fill="black"/>
<path d="M185.601 182.102C185.601 182.102 187.122 177.011 186.687 170.186C186.253 163.361 185.601 157.186 185.601 157.186C185.601 157.186 187.339 156.861 189.619 155.236C191.466 153.936 192.552 152.853 193.638 152.528C194.072 152.311 194.615 152.311 194.941 152.42C195.81 152.636 196.57 153.503 196.896 154.37C197.222 155.128 197.33 156.753 197.439 158.161C197.547 160.22 197.656 162.603 197.765 164.769C197.873 167.586 197.873 168.886 197.765 170.836C197.656 173.219 197.547 176.902 197.004 178.311C196.787 179.069 196.244 179.935 195.375 180.585C193.963 181.56 192.117 182.102 189.837 182.21C187.556 182.535 185.601 182.102 185.601 182.102Z" fill="#D3D3D3"/>
<path d="M185.601 183.51C185.493 183.51 185.493 183.51 185.384 183.51C184.841 183.402 184.406 182.86 184.515 182.21C184.515 182.21 185.384 177.769 185.275 172.244C185.058 163.144 184.515 159.894 184.081 157.511L183.972 156.645C183.863 156.103 184.298 155.453 184.841 155.345C185.384 155.236 186.036 155.67 186.144 156.211L186.253 157.078C186.687 159.569 187.339 162.928 187.447 172.136C187.556 177.877 186.579 182.427 186.579 182.535C186.579 183.185 186.144 183.51 185.601 183.51Z" fill="black"/>
<path d="M26.2817 103.672C24.6527 107.03 22.4807 110.605 19.4398 112.338C13.2495 116.129 14.9871 110.063 17.5936 104.863C18.4624 102.913 20.0914 100.747 21.7205 98.905L26.2817 103.672Z" fill="#E7EBEA"/>
<path d="M16.399 114.721C15.856 114.721 15.3129 114.613 14.8785 114.18C14.0097 113.313 13.1409 111.471 16.6162 104.538C17.485 102.697 19.0054 100.53 20.9603 98.2551L21.7205 97.3884L27.585 103.563L27.2592 104.213C25.0871 108.655 22.6979 111.796 19.9828 113.421C18.8968 113.963 17.5936 114.721 16.399 114.721ZM21.7205 100.53C20.3086 102.372 19.2226 103.997 18.4624 105.405C16.0732 110.28 16.0732 112.23 16.2904 112.555C16.2904 112.555 16.942 112.663 18.7882 111.471C20.9603 110.171 23.0237 107.571 24.8699 103.888L21.7205 100.53Z" fill="black"/>
<path d="M35.9475 111.796C34.5356 115.479 32.255 119.813 29.1055 121.979C23.0238 126.096 24.5442 119.921 26.8249 114.613C27.8023 112.338 29.4313 109.955 31.0604 108.005L35.9475 111.796Z" fill="#E7EBEA"/>
<path d="M26.0646 124.362C25.5216 124.362 25.0872 124.254 24.6528 123.929C23.6754 123.171 22.8065 121.329 25.8474 114.179C26.7162 112.121 28.128 109.846 30.1915 107.246L30.8431 106.38L37.2506 111.363L36.9248 112.121C34.97 117.321 32.4721 120.896 29.6485 122.846C28.6711 123.604 27.2592 124.362 26.0646 124.362ZM31.2775 109.413C29.7571 111.471 28.5625 113.313 27.9108 114.938C25.7388 119.921 25.8474 121.871 26.0646 122.196C26.0646 122.196 26.7162 122.304 28.5625 121.004C30.8431 119.488 33.0151 116.346 34.7528 112.013L31.2775 109.413Z" fill="black"/>
<path d="M47.242 117.971C46.0474 121.979 43.8753 127.396 40.4 129.996C34.5355 134.329 35.5129 128.154 37.7936 122.738C38.8796 120.138 40.6173 117.321 42.2463 115.046L47.242 117.971Z" fill="#E7EBEA"/>
<path d="M37.2506 132.595C36.8162 132.595 36.2732 132.487 35.8388 132.162C33.8839 130.646 35.1872 125.987 36.7076 122.412C37.685 120.029 39.4227 117.104 41.3775 114.504L41.9205 113.746L48.4366 117.538L48.2194 118.296C46.3732 124.362 43.9839 128.696 40.9431 130.862C40.4001 131.404 38.771 132.595 37.2506 132.595ZM42.5721 116.563C41.0517 118.729 39.6399 121.221 38.771 123.171C36.9248 127.504 36.8162 130.104 37.2506 130.429C37.3592 130.429 38.0108 130.429 39.7485 129.129C42.2463 127.287 44.3098 123.604 45.9388 118.513L42.5721 116.563Z" fill="black"/>
<path d="M172.026 102.913C174.089 105.73 176.804 108.438 179.737 109.521C186.579 112.121 183.755 106.596 180.28 101.83C179.302 100.53 177.999 99.1216 176.587 97.9299L172.026 102.913Z" fill="#E7EBEA"/>
<path d="M182.452 111.254C181.366 111.254 180.28 110.821 179.302 110.496C176.587 109.413 173.763 107.138 171.157 103.455L170.614 102.696L176.587 96.3049L177.347 97.0632C178.976 98.4715 180.171 99.8798 181.148 101.18C185.71 107.463 185.275 109.413 184.515 110.388C183.972 111.038 183.32 111.254 182.452 111.254ZM173.438 102.913C175.718 105.73 177.89 107.68 180.062 108.438C182.234 109.304 182.777 108.979 182.777 108.979C182.886 108.654 182.56 106.813 179.302 102.371C178.651 101.396 177.673 100.421 176.587 99.3382L173.438 102.913Z" fill="black"/>
<path d="M162.36 111.579C164.098 114.721 166.487 117.863 169.311 119.379C175.718 122.846 173.655 116.888 170.831 111.796C169.962 110.171 168.659 108.546 167.356 107.138L162.36 111.579Z" fill="#E7EBEA"/>
<path d="M172.352 121.546C171.157 121.546 169.854 120.896 168.876 120.354C166.27 118.946 163.772 116.129 161.491 112.121L161.057 111.363L167.573 105.621L168.333 106.38C169.854 108.113 171.048 109.738 171.917 111.254C175.61 118.079 174.958 119.921 174.089 120.787C173.546 121.329 173.003 121.546 172.352 121.546ZM163.772 111.796C165.727 115.046 167.79 117.321 169.854 118.404C171.917 119.488 172.46 119.271 172.46 119.271C172.569 119.054 172.569 117.104 169.854 112.338C169.202 111.254 168.333 109.955 167.247 108.655L163.772 111.796Z" fill="black"/>
<path d="M151.826 119.704C153.346 122.954 155.41 126.421 158.233 128.154C164.315 132.054 163.229 126.204 160.297 120.679C159.428 119.054 158.342 117.213 157.147 115.588L151.826 119.704Z" fill="#E7EBEA"/>
<path d="M161.383 130.537C159.971 130.537 158.342 129.454 157.69 129.129C155.084 127.504 152.803 124.471 150.848 120.138L150.523 119.379L157.365 114.179L158.016 115.046C159.102 116.454 160.08 118.079 161.274 120.246C162.469 122.521 165.075 128.046 162.903 129.996C162.469 130.429 161.926 130.537 161.383 130.537ZM153.238 120.029C154.975 123.496 156.822 125.987 158.885 127.287C160.949 128.587 161.6 128.371 161.6 128.371C161.926 128.046 161.709 125.554 159.428 121.221C158.559 119.596 157.799 118.296 157.039 117.213L153.238 120.029Z" fill="black"/>
<path d="M111.643 220.776C111.643 220.776 107.408 222.184 100.674 222.942C93.8323 223.809 88.0764 223.592 88.0764 223.592C88.0764 223.592 87.8592 224.351 86.6645 225.65C85.9043 226.517 84.7097 227.817 83.8409 228.9C83.6237 229.225 83.4065 229.55 83.2979 229.767C82.8635 230.525 82.8635 231.284 83.0807 231.934C83.7323 233.667 86.4473 233.559 90.4656 233.775C92.8549 233.884 95.3527 233.883 97.5248 233.883C100.566 233.883 104.041 233.884 106.973 233.45C108.711 233.234 110.448 232.584 111.534 231.934C113.055 230.959 113.489 229.659 113.489 227.6C113.381 225.217 111.643 220.776 111.643 220.776Z" fill="#D3D3D3"/>
<path d="M87.642 223.701C87.5334 223.701 87.5334 223.701 87.5334 223.701H87.4248C86.7732 223.701 86.3387 223.267 86.3387 222.617C86.3387 221.967 86.7732 221.534 87.4248 221.534H87.5334C90.1398 221.534 98.0678 221.534 105.127 220.126C110.34 219.151 111.534 218.501 111.534 218.501C112.077 218.284 112.729 218.393 112.946 218.934C113.272 219.476 113.055 220.126 112.512 220.342C112.295 220.451 110.991 221.101 105.453 222.184C98.3936 223.701 90.4656 223.701 87.642 223.701Z" fill="black"/>
<path d="M30.9517 83.3055C30.9517 83.3055 30.6259 68.031 30.3001 66.1894C29.8657 64.1311 27.585 63.9145 27.042 65.1061C26.499 66.2977 26.9334 69.006 25.413 70.9559C23.6753 73.2308 22.1549 72.5808 20.8517 71.1726C19.6571 69.7643 16.7248 64.8894 15.4216 64.0228C13.9011 63.0478 11.6205 63.5895 12.7065 66.1894C13.7925 68.7893 17.8108 71.4976 17.5936 72.6892C17.3764 73.9891 12.2721 67.5977 10.5345 66.6227C8.57964 65.4311 5.97319 66.9477 7.38502 69.2226C8.79685 71.4976 14.9872 75.1808 14.227 76.0474C13.4667 76.8057 8.79685 71.6059 6.95061 71.8225C5.10437 72.0392 4.34416 73.8808 6.95061 76.4807C9.55706 79.0806 12.5979 80.0556 12.5979 80.9222C12.4893 81.7889 8.03663 78.7556 6.299 78.539C4.45276 78.4306 3.14954 80.2723 6.1904 82.6555C9.23126 85.0388 15.856 85.6887 18.2452 87.097C20.6345 88.5053 21.7205 89.4803 21.7205 89.4803" fill="white"/>
<path d="M21.6119 90.6719C21.2861 90.6719 21.0689 90.5636 20.8517 90.3469C20.8517 90.3469 19.8742 89.372 17.5936 88.072C16.7248 87.5304 15.0957 87.097 13.3581 86.6637C10.5345 85.9054 7.38499 85.1471 5.43015 83.5222C2.8237 81.4639 3.04091 79.7306 3.36671 79.0806C3.80112 77.9974 4.88714 77.3474 6.29897 77.4557H6.40757C6.29897 77.3474 6.19037 77.2391 6.08177 77.2391C3.80112 74.9641 3.90972 73.3392 4.12693 72.5809C4.45274 71.6059 5.43015 70.8476 6.62478 70.7393C6.73338 70.7393 6.84198 70.7393 7.05919 70.7393C6.73338 70.4143 6.51618 70.0893 6.40757 69.8726C5.43016 68.356 5.86456 66.9477 6.62478 66.1894C7.7108 65.1061 9.55704 64.8895 11.0775 65.7561C11.1861 65.8644 11.4033 65.9728 11.5119 66.0811C11.0775 64.3478 11.8377 63.4812 12.2721 63.1562C13.2495 62.3979 14.8785 62.3979 16.0732 63.2645C16.942 63.9145 18.1366 65.4311 19.7656 67.9227C20.5259 69.006 21.2861 70.0893 21.7205 70.5226C22.2635 71.0643 22.6979 71.3893 23.1323 71.3893C23.6753 71.3893 24.2183 70.8476 24.5441 70.306C25.3043 69.331 25.413 68.031 25.6302 66.8394C25.7388 66.0811 25.8474 65.3228 26.0646 64.6728C26.499 63.6979 27.4764 63.1562 28.671 63.3729C29.9742 63.4812 31.0603 64.5645 31.3861 66.0811C31.7119 67.9227 32.0377 81.7889 32.1463 83.3055C32.1463 83.9555 31.7119 84.3888 31.0603 84.3888C30.4087 84.3888 29.9742 83.9555 29.9742 83.3055C29.8656 77.239 29.5398 67.706 29.3226 66.4061C29.1054 65.6478 28.671 65.4311 28.4538 65.4311C28.3452 65.4311 28.128 65.4311 28.128 65.5395C28.0194 65.8644 27.9108 66.4061 27.9108 67.0561C27.8022 68.356 27.585 70.1976 26.3904 71.6059C25.413 72.7975 24.4355 73.4475 23.3495 73.4475C22.2635 73.4475 21.2861 73.0142 20.3087 71.8226C19.7656 71.2809 19.0054 70.1976 18.2452 68.8977C17.2678 67.4894 15.7474 65.2145 15.0957 64.8895C14.5527 64.5645 14.0097 64.5645 13.7925 64.6728C13.6839 64.7812 13.6839 65.1061 13.9011 65.7561C14.3355 66.8394 15.5302 68.1394 16.6162 69.2227C18.028 70.6309 19.0054 71.7142 18.8968 72.9059C18.7882 73.4475 18.4624 73.7725 18.028 73.8808C17.0506 74.2058 16.0732 73.3392 13.3581 70.5226C12.2721 69.331 10.8603 67.9227 10.2086 67.5977C9.55704 67.1644 8.79682 67.2727 8.47102 67.5977C8.25381 67.8144 8.25381 68.1394 8.57962 68.5727C9.12263 69.4393 10.8603 70.8476 12.2721 72.0392C14.5527 73.8808 15.5302 74.7475 15.6388 75.7224C15.6388 76.0474 15.5302 76.4807 15.313 76.6974C14.2269 77.7807 12.8151 76.6974 10.8603 75.0725C9.88284 74.3142 7.928 72.7975 7.38499 72.7975C7.27639 72.7975 6.73338 72.9059 6.62478 73.1225C6.51618 73.4475 6.73338 74.3141 8.03661 75.5058C9.33983 76.6974 10.6431 77.564 11.6205 78.214C13.0323 79.0806 14.0097 79.7306 13.9011 80.8139C13.9011 81.2472 13.5753 81.5722 13.2495 81.7889C12.4893 82.2222 11.5119 81.7889 9.55704 80.8139C8.47102 80.2723 7.05919 79.514 6.40757 79.514C5.97317 79.514 5.75596 79.6223 5.64736 79.7306C5.53876 79.9473 5.86456 80.7056 7.05919 81.6806C8.68822 82.9805 11.6205 83.7388 14.1183 84.3888C16.0732 84.9304 17.8108 85.3638 18.8968 86.0137C21.3947 87.422 22.4807 88.5053 22.4807 88.6137C22.9151 89.047 22.9151 89.6969 22.4807 90.1303C22.1549 90.5636 21.8291 90.6719 21.6119 90.6719Z" fill="black"/>
<path d="M165.401 82.5472C165.401 82.5472 165.727 67.2727 166.053 65.4311C166.487 63.3728 168.768 63.1562 169.311 64.3478C169.854 65.5394 169.419 68.2477 170.94 70.1976C172.677 72.4725 174.198 71.8225 175.501 70.4143C176.696 69.006 179.628 64.1311 180.931 63.2645C182.452 62.2895 184.732 62.8312 183.646 65.4311C182.56 68.031 178.542 70.7393 178.759 71.9309C178.976 73.2308 184.081 66.8394 185.818 65.8644C187.773 64.6728 190.38 66.1894 188.968 68.4643C187.556 70.7392 181.366 74.4225 182.126 75.2891C182.886 76.0474 187.556 70.8476 189.402 71.0642C191.248 71.2809 192.009 73.1225 189.402 75.7224C186.796 78.3223 183.755 79.2973 183.755 80.1639C183.863 81.0306 188.316 77.9973 190.054 77.7807C191.9 77.6723 193.203 79.5139 190.162 81.8972C187.122 84.2804 180.497 84.9304 178.108 86.3387C175.718 87.747 174.632 88.722 174.632 88.722" fill="white"/>
<path d="M174.741 89.9136C174.415 89.9136 174.198 89.8053 173.981 89.5886C173.546 89.1553 173.546 88.5053 173.981 88.072C173.981 88.072 175.175 86.8804 177.565 85.4721C178.651 84.8221 180.388 84.3888 182.343 83.8472C184.95 83.1972 187.882 82.4389 189.402 81.1389C190.597 80.164 190.923 79.4056 190.814 79.189C190.705 79.0807 190.488 78.864 190.054 78.9723C189.511 78.9723 187.99 79.7306 186.904 80.2723C184.95 81.2472 184.081 81.6806 183.212 81.2472C182.886 81.0306 182.56 80.7056 182.56 80.2723C182.452 79.189 183.429 78.539 184.841 77.6724C185.927 77.0224 187.23 76.1558 188.425 74.9641C189.728 73.6642 189.945 72.7975 189.837 72.5809C189.728 72.2559 189.294 72.2559 189.076 72.1476C188.533 72.0392 186.47 73.6642 185.601 74.4225C183.646 75.9391 182.126 77.1307 181.148 76.0474C180.931 75.7224 180.714 75.3975 180.823 75.0725C180.931 74.0975 181.909 73.2309 184.189 71.3893C185.601 70.306 187.339 68.8977 187.882 67.9227C188.208 67.4894 188.208 67.1644 187.99 66.9477C187.665 66.6228 186.904 66.5144 186.253 66.9477C185.601 67.2727 184.189 68.7894 183.103 69.8726C180.388 72.6892 179.411 73.5558 178.433 73.2309C177.999 73.1225 177.673 72.6892 177.565 72.2559C177.347 71.0643 178.433 70.0893 179.845 68.5727C180.931 67.4894 182.126 66.1894 182.56 65.1061C182.778 64.5645 182.778 64.1312 182.669 64.0228C182.452 63.9145 181.909 63.9145 181.366 64.2395C180.714 64.6728 179.194 66.8394 178.216 68.2477C177.347 69.4393 176.587 70.5226 176.044 71.1726C175.067 72.2559 173.981 72.7975 173.003 72.7975C171.917 72.7975 170.831 72.1476 169.962 70.9559C168.768 69.4393 168.659 67.7061 168.442 66.4061C168.333 65.8645 168.333 65.2145 168.225 64.8895C168.225 64.7812 168.008 64.7812 167.899 64.7812C167.79 64.7812 167.247 64.8895 167.03 65.7561C166.813 66.9477 166.487 76.4808 166.379 82.6555C166.379 83.3055 165.836 83.7388 165.293 83.7388C164.641 83.7388 164.207 83.1972 164.207 82.6555C164.207 81.0306 164.532 67.1644 164.967 65.4311C165.293 64.0229 166.27 62.9396 167.682 62.7229C168.768 62.6146 169.854 63.1562 170.288 64.0228C170.614 64.6728 170.614 65.4311 170.723 66.1894C170.831 67.3811 170.94 68.681 171.809 69.656C172.135 70.0893 172.786 70.7393 173.221 70.7393C173.655 70.7393 174.089 70.4143 174.632 69.8726C175.067 69.4393 175.827 68.356 176.587 67.1644C178.216 64.7812 179.411 63.1562 180.28 62.5062C181.474 61.6396 183.103 61.6396 184.081 62.3979C184.515 62.7229 185.275 63.5895 184.841 65.3228C184.95 65.2145 185.167 65.1061 185.275 64.9978C186.796 64.1312 188.642 64.2395 189.728 65.4311C190.488 66.1894 190.923 67.4894 189.945 69.1143C189.728 69.4393 189.511 69.7643 189.294 69.981C189.402 69.981 189.511 69.981 189.728 69.981C190.923 70.0893 191.9 70.8476 192.226 71.8226C192.443 72.5809 192.552 74.2058 190.271 76.4807C190.162 76.5891 190.054 76.6974 189.945 76.6974H190.054C191.466 76.5891 192.552 77.2391 192.986 78.3224C193.203 78.9723 193.529 80.7056 190.923 82.7639C188.968 84.2805 185.818 85.1471 182.995 85.9054C181.257 86.3387 179.628 86.7721 178.759 87.3137C176.587 88.6137 175.61 89.5886 175.501 89.5886C175.284 89.8053 175.067 89.9136 174.741 89.9136Z" fill="black"/>
<path d="M65.9215 157.945L66.2473 152.961C66.2473 152.961 95.3527 149.928 104.367 148.087C112.512 146.462 139.554 136.82 139.554 136.82L141.291 140.179C141.291 140.179 118.485 148.52 116.313 149.278C106.973 152.853 92.4204 155.02 85.3613 155.778C79.2796 156.536 65.9215 157.945 65.9215 157.945Z" fill="#ECECEC"/>
<path d="M73.9581 92.297C73.9581 92.297 76.0216 98.6884 69.3969 100.313C62.7721 101.83 57.0162 100.313 53.7581 98.7967C46.156 95.2219 34.8614 85.5805 32.3635 81.6807L17.5936 94.2469C17.5936 94.2469 26.0646 106.271 40.0743 114.83C54.084 123.388 61.0345 126.637 63.5323 132.921C66.0302 139.095 65.1614 152.312 65.1614 152.312C65.1614 152.312 71.1345 152.312 78.7366 151.445C88.5108 150.362 101 148.195 107.516 146.57C121.526 143.212 137.382 136.387 139.88 135.629C139.88 135.629 137.056 129.237 147.59 122.738C163.229 113.096 179.411 95.7635 181.04 94.1386L164.967 82.3306C164.967 82.3306 153.455 97.8218 142.703 97.8218C131.952 97.8218 132.169 88.7221 132.169 88.7221C132.169 88.7221 124.567 94.7885 115.553 98.5801C106.539 102.372 102.412 104.755 89.1624 100.963C75.913 97.1718 73.9581 92.297 73.9581 92.297Z" fill="#E6ECEC"/>
<path d="M65.27 153.395C64.8356 153.395 64.6184 153.286 64.4012 153.07C64.184 152.853 64.0754 152.528 64.0754 152.311C64.0754 152.203 64.8356 139.312 62.5549 133.354C60.6001 128.479 55.6044 125.446 45.613 119.488C43.7668 118.404 41.7033 117.104 39.5313 115.804C25.5216 107.246 17.0506 95.3301 16.7248 94.8968C16.399 94.4634 16.5076 93.8135 16.942 93.4885L31.6033 80.9222C31.8205 80.7056 32.1463 80.5973 32.4722 80.7056C32.798 80.7056 33.0152 80.9222 33.2324 81.1389C35.7302 84.8221 46.699 94.3551 54.1926 97.8217C56.3646 98.7966 62.0119 100.963 69.1797 99.3383C70.8087 98.9049 72.0033 98.255 72.5463 97.0633C73.6324 95.1134 72.8722 92.7302 72.8722 92.7302C72.6549 92.1885 72.9808 91.5385 73.5238 91.4302C74.0668 91.2136 74.6098 91.5385 74.9356 91.9719C75.0442 92.0802 77.2162 96.5217 89.4883 100.097C101.543 103.671 105.67 101.938 113.707 98.4716L115.118 97.8217C123.915 94.0301 131.409 88.072 131.517 88.072C131.843 87.8553 132.278 87.747 132.712 87.9637C133.038 88.1803 133.364 88.5053 133.364 88.9386C133.364 88.9386 133.364 92.1885 135.644 94.4634C137.273 96.0884 139.662 96.955 142.812 96.955C152.803 96.955 164.098 82.0055 164.207 81.8972C164.532 81.4639 165.293 81.3556 165.727 81.6806L181.909 93.4885C182.126 93.7051 182.343 93.9218 182.343 94.2468C182.343 94.5718 182.235 94.8968 182.017 95.1134C181.8 95.3301 181.366 95.7634 180.823 96.305C176.261 100.963 162.252 115.263 148.459 123.821C139.011 129.671 141.074 135.087 141.183 135.304C141.292 135.629 141.292 135.954 141.183 136.17C141.074 136.495 140.857 136.712 140.531 136.712C139.988 136.929 138.685 137.362 136.947 138.12C131.083 140.395 118.919 145.053 108.059 147.762C101.869 149.278 89.3797 151.553 79.1711 152.636C71.7861 153.395 66.0302 153.395 65.27 153.395ZM19.1141 94.3551C21.2861 97.1717 29.1055 106.813 40.7259 113.854C42.898 115.154 44.9614 116.454 46.8076 117.538C56.799 123.496 62.3377 126.854 64.6184 132.487C66.7904 137.795 66.5732 147.762 66.356 151.228C68.4195 151.228 73.0894 151.011 78.7367 150.47C88.8367 149.278 101.217 147.112 107.299 145.595C118.051 142.995 130.105 138.337 135.861 136.062C137.056 135.629 137.925 135.304 138.576 134.979C138.142 132.704 138.251 127.179 146.939 121.871C160.514 113.529 174.307 99.3383 178.868 94.6801C178.976 94.5718 179.085 94.4634 179.194 94.2468L164.967 83.7388C162.36 87.097 152.26 98.905 142.486 98.905C138.685 98.905 135.753 97.8217 133.689 95.7634C132.06 94.1385 131.3 92.0802 131.083 90.6719C128.368 92.6218 122.503 96.63 115.77 99.5549L114.358 100.205C106.104 103.78 101.543 105.73 88.7281 101.938C81.3431 99.7716 77.3248 97.1717 75.1528 95.3301C75.0442 96.1967 74.827 97.0633 74.284 97.93C73.3066 99.5549 71.6775 100.638 69.5055 101.18C61.7947 103.13 55.6044 100.747 53.2152 99.6633C45.8302 96.1967 35.6216 87.5303 32.0377 83.1972L19.1141 94.3551Z" fill="black"/>
<path d="M119.462 143.862C119.137 143.862 118.811 143.753 118.594 143.537C118.485 143.428 104.584 127.287 98.0678 119.596C91.4431 111.796 84.8184 100.963 84.8184 100.855C84.4926 100.313 84.7098 99.6633 85.1442 99.3384C85.6872 99.0134 86.3388 99.23 86.6646 99.6634C86.7732 99.7717 93.2893 110.605 99.6969 118.188C106.213 125.879 120.114 141.912 120.223 142.02C120.657 142.454 120.548 143.103 120.114 143.537C120.005 143.862 119.788 143.862 119.462 143.862Z" fill="black"/>
<path d="M103.932 125.446C103.715 125.446 103.498 125.337 103.389 125.229C102.846 124.904 102.738 124.254 103.064 123.712C105.453 119.921 115.227 98.3633 115.336 98.1466C115.553 97.605 116.204 97.3883 116.747 97.605C117.29 97.8217 117.508 98.4716 117.29 99.0133C116.856 99.8799 107.299 120.896 104.91 124.796C104.584 125.337 104.258 125.446 103.932 125.446Z" fill="black"/>
<path d="M142.052 140.395C141.726 140.395 141.509 140.287 141.291 140.07C141.183 139.962 140.314 138.879 139.011 136.062C138.794 135.52 139.011 134.87 139.554 134.654C140.097 134.437 140.748 134.654 140.966 135.195C142.052 137.687 142.921 138.554 142.921 138.554C143.355 138.987 143.246 139.637 142.812 140.07C142.595 140.287 142.378 140.395 142.052 140.395Z" fill="black"/>
<path d="M65.1613 159.245H65.0527C64.5097 159.136 64.0753 158.595 64.0753 158.053C64.4011 155.778 64.1839 152.203 64.1839 152.095C64.1839 151.445 64.6183 151.011 65.2699 151.011C65.9216 151.011 66.356 151.445 66.356 152.095C66.356 152.203 66.4646 155.995 66.2474 158.378C66.1388 158.92 65.5957 159.245 65.1613 159.245Z" fill="black"/>
<path d="M85.47 217.092C85.47 217.092 96.2216 217.201 101.217 216.443C103.715 216.009 108.928 213.951 108.928 213.951L110.991 218.717C110.991 218.717 106.104 220.126 101 220.776C94.3754 221.534 87.8592 221.534 87.8592 221.534C87.8592 221.534 86.9904 219.584 86.6646 218.934C86.1216 218.067 85.47 217.092 85.47 217.092Z" fill="white"/>
<path d="M90.3571 218.284C88.728 218.284 87.3162 218.284 86.1216 218.176C85.3614 218.176 84.7098 218.176 84.2754 218.176C83.6237 218.176 83.1893 217.742 83.1893 217.092C83.1893 216.442 83.6237 216.009 84.2754 216.009C84.8184 216.009 85.3614 216.009 86.2302 216.009C89.5969 216.117 95.2442 216.334 101 215.143C106.322 214.059 108.494 213.084 108.494 213.084C109.037 212.868 109.688 213.084 109.905 213.626C110.123 214.168 109.905 214.818 109.362 215.034C109.254 215.034 107.082 216.117 101.326 217.309C97.3076 218.067 93.5065 218.284 90.3571 218.284Z" fill="black"/>
<path d="M65.1613 157.836L62.7721 181.561C62.7721 181.561 85.2527 179.177 96.9818 176.686C121.743 171.486 138.902 161.628 144.224 157.295C153.455 149.82 157.69 141.804 157.69 141.804C157.69 141.804 152.912 141.479 147.916 140.72C145.744 140.395 141.834 139.312 141.834 139.312C141.834 139.312 126.956 146.245 116.53 149.712C108.819 152.203 98.7194 154.803 88.2936 156.32C80.6915 157.403 65.1613 157.836 65.1613 157.836Z" fill="#E6ECEC"/>
<path d="M62.7721 182.644C62.4463 182.644 62.229 182.535 62.0118 182.319C61.7946 182.102 61.686 181.777 61.686 181.452L64.0753 157.728C64.0753 157.186 64.6183 156.753 65.1613 156.753C65.2699 156.753 80.8 156.32 88.2936 155.128C100.891 153.286 111.209 150.145 116.313 148.52C126.522 145.162 141.4 138.229 141.509 138.12C141.726 138.012 142.052 138.012 142.269 138.012C142.269 138.012 146.179 139.095 148.242 139.42C153.129 140.179 157.908 140.504 157.908 140.504C158.233 140.504 158.559 140.72 158.776 141.045C158.994 141.37 158.994 141.803 158.776 142.128C158.559 142.453 154.215 150.47 144.984 157.945C139.445 162.386 122.395 172.244 97.3075 177.552C85.5785 180.044 63.2065 182.427 62.8807 182.427C62.8807 182.644 62.8807 182.644 62.7721 182.644ZM66.1387 158.811L63.9667 180.26C68.9624 179.719 86.7731 177.661 96.7645 175.494C122.286 170.078 139.119 159.786 143.463 156.32C150.088 151.012 154.215 145.27 155.844 142.562C153.998 142.345 150.848 142.02 147.699 141.587C145.853 141.262 142.92 140.504 141.943 140.287C139.554 141.37 126.304 147.437 116.856 150.578C111.752 152.203 101.217 155.345 88.5108 157.295C81.886 158.27 69.7226 158.703 66.1387 158.811Z" fill="black"/>
<path d="M92.3119 149.603L104.149 163.036L96.4387 166.286L89.9226 149.928L92.3119 149.603Z" fill="#ECECEC"/>
<path d="M96.4388 167.369C96.3302 167.369 96.113 167.369 96.0044 167.261C95.7872 167.152 95.57 166.936 95.4614 166.611L88.9452 150.361C88.8366 150.036 88.8366 149.711 89.0538 149.386C89.1624 149.061 89.4882 148.953 89.814 148.845L92.2033 148.52C92.5291 148.411 92.9635 148.628 93.1807 148.845L105.018 162.278C105.236 162.494 105.344 162.928 105.236 163.253C105.127 163.578 104.91 163.903 104.584 164.011L96.8732 167.261C96.7646 167.261 96.656 167.369 96.4388 167.369ZM91.4431 150.795L96.9818 164.769L102.303 162.494L91.8775 150.686L91.4431 150.795Z" fill="black"/>
<path d="M86.9904 150.362L84.6012 172.244L98.1765 171.377L89.9227 149.928L86.9904 150.362Z" fill="#ECECEC"/>
<path d="M84.6012 173.327C84.2754 173.327 84.0581 173.219 83.8409 173.002C83.6237 172.786 83.5151 172.461 83.5151 172.136L85.9044 150.253C85.9044 149.82 86.3388 149.387 86.7732 149.278L89.8141 148.845C90.3571 148.737 90.7915 149.062 91.0087 149.495L99.2624 170.944C99.3711 171.269 99.3711 171.594 99.1538 171.919C98.9366 172.244 98.6108 172.352 98.285 172.461L84.6012 173.327ZM87.9678 151.337L85.7958 171.053L96.656 170.403L89.271 151.12L87.9678 151.337Z" fill="black"/>
<path d="M179.845 180.477C179.845 180.477 181.148 172.461 181.04 167.477C181.04 164.986 180.171 156.645 180.171 156.645C180.171 156.645 180.823 156.97 181.909 157.294C183.212 157.619 184.189 157.619 184.189 157.619C184.189 157.619 185.058 162.494 185.167 168.127C185.275 171.052 185.384 172.569 185.167 175.711C184.95 179.61 184.515 181.994 184.515 181.994C184.515 181.994 182.343 181.452 181.148 181.019C180.171 180.585 179.845 180.477 179.845 180.477Z" fill="white"/>
<path d="M179.845 182.102H179.737C179.194 181.994 178.759 181.452 178.759 180.91C178.759 180.477 178.868 180.044 178.976 179.502C179.411 176.685 180.062 172.027 179.845 166.827C179.628 161.194 178.868 155.453 178.868 155.453C178.759 154.911 179.194 154.37 179.845 154.261C180.497 154.153 180.931 154.586 181.04 155.236C181.04 155.345 181.8 161.086 182.017 166.827C182.234 172.244 181.583 177.119 181.148 179.935C181.04 180.477 181.04 180.91 180.931 181.235C180.823 181.669 180.388 182.102 179.845 182.102Z" fill="black"/>
<path d="M52.8893 55.3564C52.8893 55.3564 47.4592 43.5485 48.2195 30.874C48.9797 18.1994 52.8893 9.7497 54.5184 7.25812C56.1474 4.76654 60.0571 0.758345 63.7496 4.44155C67.442 8.12475 70.4829 15.0578 72.6549 17.1161C75.913 20.366 79.4969 20.7993 82.4291 23.0742" fill="#CCD1DD"/>
<path d="M51.9119 55.7898C51.5861 55.3565 46.3732 43.5486 47.1334 30.874C47.8936 18.5244 51.4775 9.85807 53.6495 6.82484C54.5183 5.41656 57.0162 2.16667 60.057 2.05834C61.6861 1.95001 63.0979 2.49166 64.6183 3.89994C66.7904 6.06653 68.7452 9.31642 70.2656 12.0247C71.4603 13.8663 72.6549 15.8162 73.3065 16.6828C74.9355 18.3078 76.7818 19.1744 78.5194 20.041C79.9312 20.7994 81.5603 21.4493 82.8635 22.641L81.4517 24.2659C80.257 23.2909 78.9538 22.641 77.542 21.8826C75.6957 21.016 73.6323 20.041 71.6775 18.0911C70.7 17.1161 69.5054 15.1662 68.2022 12.9996C66.5732 10.3997 64.8355 7.36649 62.7721 5.30823C61.9033 4.44159 61.0345 4.00827 59.9484 4.1166C57.7764 4.22493 55.7129 7.0415 55.1699 7.90814C53.3237 10.7247 49.6312 18.9577 49.0882 30.874C48.328 43.1152 53.6495 54.7065 53.7581 54.7065L51.9119 55.7898Z" fill="black"/>
<path d="M147.482 55.4648C147.482 55.4648 152.912 43.6569 152.152 30.9824C151.391 18.3078 147.482 9.8581 145.744 7.36652C144.006 4.87494 140.314 0.866743 136.513 4.54995C132.82 8.34148 129.78 15.1662 127.608 17.2245C124.35 20.4744 120.766 20.9077 117.833 23.1826" fill="#CCD1DD"/>
<path d="M148.459 55.8982L146.613 55.0316C146.613 54.9232 151.826 43.332 151.283 31.1991C150.74 19.2828 146.939 10.9414 145.201 8.2332C144.658 7.36657 142.595 4.55 140.423 4.44167C139.445 4.33334 138.576 4.76666 137.599 5.63329C135.536 7.69155 133.798 10.7248 132.169 13.3247C130.866 15.4913 129.671 17.4412 128.694 18.4162C126.847 20.2578 124.784 21.3411 122.829 22.2077C121.417 22.966 120.005 23.5077 118.919 24.591L117.508 22.966C118.811 21.7744 120.44 21.1244 121.852 20.3661C123.589 19.4995 125.544 18.6328 127.065 17.0079C127.933 16.1413 128.911 14.408 130.105 12.3497C131.734 9.53316 133.581 6.49993 135.753 4.22501C137.056 2.92505 138.685 2.16675 140.314 2.38341C143.355 2.7084 145.853 5.74162 146.722 7.14991C148.894 10.3998 152.586 18.9578 153.238 31.1991C153.889 43.657 148.676 55.3566 148.459 55.8982Z" fill="black"/>
<path d="M103.389 102.48C111.752 102.047 117.399 99.5549 123.698 95.4384C129.562 91.5385 136.079 84.2805 140.531 77.564C144.007 72.3642 148.568 62.6145 147.808 51.0233C147.047 37.8071 141.726 32.8239 132.169 28.1658C125.653 24.9159 116.422 22.9659 110.991 21.016C107.951 19.8244 105.779 20.041 103.824 23.0743C103.715 23.1826 102.629 25.2409 100.348 25.2409C97.5248 25.2409 96.5474 23.3993 96.5474 23.0743C94.7011 20.1494 92.4205 20.041 89.3796 21.016C83.9495 22.8576 74.8269 24.9159 68.2022 28.1658C58.7538 32.8239 53.4323 37.8071 52.5635 51.0233C51.8033 62.5062 56.4732 72.1475 59.8398 77.564C64.1839 84.2805 70.5915 91.6469 76.6732 95.4384C82.9721 99.5549 88.5108 102.155 96.9818 102.48C96.9818 102.48 99.5882 102.48 100.674 102.48C101.217 102.48 103.389 102.48 103.389 102.48Z" fill="white"/>
<path d="M100.348 103.671C99.371 103.671 96.8731 103.671 96.8731 103.671C87.9678 103.238 82.1033 100.422 76.0215 96.4133C70.3742 92.7301 63.6409 85.472 58.8624 77.9973C55.8215 73.2308 50.7172 63.2645 51.3688 50.9149C52.1291 37.3737 57.6678 32.1739 67.5506 27.1907C71.8947 25.0241 77.6506 23.3992 82.4291 21.9909C84.8183 21.2326 87.099 20.691 88.8366 20.1493C91.5516 19.1743 94.3753 18.741 96.8731 21.8826C96.9817 21.9909 97.199 22.4242 97.3076 22.5326C97.4162 22.7492 97.5248 22.9659 97.5248 22.9659C98.1764 23.7242 99.0452 24.1575 100.131 24.1575C101.109 24.1575 101.869 23.7242 102.52 22.9659C102.629 22.8576 102.955 22.0992 103.063 21.9909C105.453 18.741 108.385 19.1743 111.209 20.1493C112.946 20.691 115.118 21.4493 117.616 21.9909C122.612 23.3992 128.151 25.0241 132.495 27.1907C142.377 32.1739 147.808 37.3737 148.676 50.9149C149.437 63.2645 144.332 73.2308 141.183 77.9973C136.404 85.472 129.671 92.5134 124.132 96.305C118.051 100.422 112.186 103.13 103.389 103.563C103.389 103.563 101.217 103.671 100.457 103.671H100.348ZM96.9818 101.505C96.9818 101.505 99.5882 101.505 100.457 101.505C101.217 101.505 103.281 101.396 103.281 101.396C111.643 100.963 117.182 98.3632 122.938 94.5717C128.368 91.1052 134.775 84.0637 139.445 76.914C142.377 72.2558 147.373 62.8312 146.613 51.1316C145.853 38.457 140.966 33.7988 131.626 29.1407C127.39 26.9741 121.852 25.4575 117.073 24.0492C114.684 23.2909 112.403 22.7492 110.666 21.9909C107.625 21.0159 106.322 21.2326 104.801 23.6159C103.824 25.3491 102.195 26.2158 100.457 26.2158C98.3936 26.2158 96.6559 25.3491 95.6785 23.6159C94.2667 21.2326 92.7463 21.0159 89.814 21.9909C88.0764 22.5326 85.6871 23.2909 83.4065 24.0492C78.628 25.4575 73.1979 26.9741 68.8538 29.1407C59.514 33.7988 54.5183 38.457 53.8667 51.1316C52.8893 62.9395 57.885 72.3641 60.8172 76.914C65.4871 84.0637 71.8946 90.9968 77.3248 94.5717C83.0807 98.4716 88.6194 101.071 96.9818 101.505Z" fill="black"/>
<path d="M135.318 82.8721C135.318 82.7638 133.472 74.4224 125.11 66.5143L126.522 64.8894C135.427 73.2308 137.273 81.8971 137.49 82.2221L135.318 82.8721Z" fill="black"/>
<path d="M64.8355 82.6555L62.7721 82.2221C62.8807 81.7888 64.8355 73.2308 73.7409 64.8894L75.1527 66.5143C66.899 74.3141 65.0527 82.6555 64.8355 82.6555Z" fill="black"/>
<path d="M70.3743 89.2635L68.4194 88.7219C68.528 87.9636 73.6323 71.0642 85.9044 65.431C93.1807 61.9645 94.0495 55.6814 94.7011 51.0232V50.6982C96.113 39.9736 93.2893 33.2572 83.9495 25.6741C83.4065 25.2408 81.5603 24.0492 81.0173 23.6158L82.2119 21.8826C82.5377 21.9909 84.6012 23.5075 85.2528 23.9408C95.1356 31.9572 98.3936 39.5403 96.7646 51.0232V51.3482C96.0044 56.1147 95.027 63.4811 86.6646 67.381C75.37 72.6891 70.3743 89.1552 70.3743 89.2635Z" fill="black"/>
<path d="M70.3743 88.8304C70.3743 88.8304 71.2431 86.0138 72.4377 83.7389C73.7409 81.139 74.5011 79.5141 75.913 77.4558C78.4108 73.7726 80.1485 71.8227 82.6463 69.7644C85.2528 67.7061 87.2076 67.1645 89.7054 65.5395C92.2033 63.8063 95.6786 62.073 99.8054 62.073C104.041 62.073 105.67 62.9396 111.534 66.2979C114.032 67.7061 116.204 68.6811 119.028 71.0643C122.721 74.4226 125.544 79.1891 127.173 82.114C128.585 84.7139 130.105 88.8304 130.105 88.8304C130.105 88.8304 128.368 90.5637 125.761 92.7303C124.024 94.1385 122.395 95.2218 118.919 97.0634C110.883 101.288 106.104 101.18 100.348 101.613C94.9184 101.938 89.5968 100.747 85.47 99.1217C81.9947 97.7134 78.4108 95.4385 75.8044 93.5969C72.4377 90.997 70.3743 88.8304 70.3743 88.8304Z" fill="#CCD1DD"/>
<path d="M130.214 89.6968C130.214 89.5885 125.11 73.1224 113.815 67.7059C105.453 63.8061 104.475 56.548 103.715 51.6732V51.3482C102.086 39.8652 105.344 32.2822 115.227 24.2658C115.987 23.7241 118.051 22.4242 118.268 22.2075L119.462 23.9408C118.919 24.3741 117.073 25.5657 116.53 25.9991C107.19 33.5821 104.258 40.2986 105.779 51.0232V51.3482C106.322 56.0063 107.408 62.2895 114.575 65.756C126.739 71.6058 131.843 88.5052 132.06 89.0468L130.214 89.6968Z" fill="black"/>
<path d="M99.0451 81.2473C96.4387 80.3807 95.5699 77.0225 93.5064 72.256C92.3118 69.4394 91.0086 67.2728 88.5107 64.5646C88.5107 64.5646 91.7688 62.1813 93.2892 59.3648C94.5925 56.9815 94.9183 54.2733 94.9183 54.2733C96.2215 52.6483 97.0903 52.215 98.2849 51.6734C98.7193 51.565 99.2624 51.3484 99.6968 51.3484C100.566 51.3484 101.109 51.4567 101.109 51.4567C102.303 51.7817 103.281 52.4317 104.801 54.2733C104.801 54.2733 105.344 56.8732 106.647 59.3648C108.276 62.1813 111.426 64.5646 111.426 64.5646C108.928 67.3812 107.625 69.5477 106.43 72.256C104.367 77.0225 103.498 80.3807 100.891 81.2473C100.891 81.2473 100.457 81.3557 100.023 81.3557C99.5882 81.3557 99.0451 81.2473 99.0451 81.2473Z" fill="#F9B485"/>
<path d="M100.023 82.4389C99.2624 82.4389 98.7194 82.114 98.6107 82.114C95.7871 81.139 94.8097 78.3224 93.1806 74.5309C92.8548 73.9892 92.7462 73.2309 92.4204 72.6893C91.2258 69.8727 89.9226 67.9228 87.6419 65.2145L86.8817 64.3479L87.8591 63.5896C87.8591 63.5896 90.9 61.423 92.4204 58.8231C93.615 56.6565 93.8323 54.1649 93.8323 54.0566V53.7316L94.1581 53.4066C95.5699 51.7817 96.5473 51.24 97.9591 50.4817C98.5021 50.1567 99.2624 50.1567 99.8054 50.1567C100.783 50.1567 101.543 50.4817 101.543 50.4817C103.172 50.915 104.149 51.89 105.67 53.515L105.778 53.6233V53.9483C105.778 53.9483 106.321 56.4399 107.516 58.7148C108.928 61.3147 112.077 63.4813 112.077 63.4813L113.055 64.2396L112.295 65.1062C109.905 67.7061 108.602 69.7644 107.516 72.581C107.19 73.3393 106.973 73.8809 106.756 74.4226C105.344 78.5391 104.258 81.2473 101.326 82.2223C101.326 82.2223 100.783 82.4389 100.023 82.4389ZM99.4796 80.2724C99.5882 80.2724 99.914 80.3807 100.24 80.3807C100.566 80.3807 100.783 80.2724 100.783 80.2724C102.629 79.7307 103.606 77.3475 105.018 73.8809C105.344 73.3393 105.453 72.581 105.778 71.8227C106.973 69.2227 108.168 67.0561 110.123 64.6729C108.928 63.6979 107.082 61.8563 105.887 59.9064C104.692 57.8481 104.149 55.5732 104.041 54.8149C102.738 53.4066 101.977 52.7566 101.109 52.6483C101 52.6483 100.566 52.54 99.914 52.54C99.5882 52.54 99.1538 52.6483 98.9366 52.6483C98.0677 53.0816 97.3075 53.4066 96.1129 54.7066C96.0043 55.5732 95.5699 57.9565 94.3753 59.9064C93.1806 61.9647 91.3344 63.6979 90.1398 64.6729C92.2032 67.0561 93.5064 69.2227 94.4839 71.8227C94.8097 72.581 95.0269 73.1226 95.2441 73.6643C96.6559 77.3475 97.5247 79.514 99.4796 80.2724Z" fill="black"/>
<path d="M102.412 65.5396C102.086 64.3479 102.086 61.423 103.172 60.5564C104.041 59.7981 105.018 60.2314 105.344 61.748C105.561 63.048 102.846 67.2728 102.412 65.5396Z" fill="black"/>
<path d="M98.1764 65.4311C98.5022 64.1311 98.1764 61.3146 96.9818 60.4479C96.113 59.9063 95.1355 60.123 94.9183 61.7479C94.9183 63.1562 97.8506 67.2727 98.1764 65.4311Z" fill="black"/>
<path d="M87.642 37.3736C87.642 37.3736 92.3119 38.7819 94.4839 46.5817C96.2215 52.8648 94.3753 56.7646 94.3753 56.7646C96.2215 51.9981 99.371 51.2398 100.457 51.2398C102.195 51.2398 105.127 52.6481 106.756 56.223C106.756 56.223 103.715 52.1065 105.561 46.1483C107.625 40.2985 112.729 37.157 112.729 37.157C109.797 38.5653 105.67 38.5653 100.348 38.8903C94.3753 39.3236 87.642 37.3736 87.642 37.3736Z" fill="#AAAAAA"/>
<path d="M106.865 56.3314L105.996 56.8731C105.996 56.8731 105.561 56.3314 105.127 55.2481C103.715 53.0815 101.652 52.2149 100.566 52.2149C100.023 52.2149 97.3076 52.5399 95.4613 56.7647C95.3527 57.0897 95.3527 57.0897 95.3527 57.1981L93.2893 56.3314C93.2893 56.2231 93.3979 56.2231 93.3979 56.0064C93.7237 55.1398 94.8097 51.6732 93.3979 46.6901C91.3344 39.6487 87.3162 38.2404 87.3162 38.2404L87.8592 36.1821C87.8592 36.1821 94.3753 38.0237 100.566 37.8071L102.303 37.6987C106.647 37.5904 110.666 37.2654 113.163 36.1821L113.489 37.9154C113.489 37.9154 108.494 40.9486 106.756 46.3651C105.561 49.8316 106.322 52.6482 107.082 54.0565C107.408 54.4898 107.625 55.0315 107.951 55.4648L106.865 56.3314ZM92.2033 39.432C93.5065 40.8403 94.8097 43.1152 95.6785 46.2568C96.2215 48.4234 96.5473 50.3733 96.4387 51.8899C98.285 50.265 100.131 50.1566 100.674 50.1566C101.652 50.1566 103.063 50.59 104.149 51.3483C104.041 49.7233 104.149 47.8817 104.91 45.8235C105.779 43.2235 107.408 41.057 108.711 39.432C106.865 39.757 104.801 39.757 102.412 39.8653L100.783 40.082C97.742 40.1903 94.5925 39.8653 92.2033 39.432Z" fill="black"/>
<path d="M79.2797 67.706C88.3365 67.706 95.6786 60.3824 95.6786 51.3482C95.6786 42.3141 88.3365 34.9905 79.2797 34.9905C70.2228 34.9905 62.8807 42.3141 62.8807 51.3482C62.8807 60.3824 70.2228 67.706 79.2797 67.706Z" fill="#DDDDDD"/>
<path d="M79.2797 68.6811C69.6141 68.6811 61.9033 60.9897 61.9033 51.3484C61.9033 41.707 69.6141 34.0156 79.2797 34.0156C88.9453 34.0156 96.656 41.707 96.656 51.3484C96.656 60.9897 88.9453 68.6811 79.2797 68.6811ZM79.2797 36.0739C70.8087 36.0739 64.0754 42.8986 64.0754 51.24C64.0754 59.6897 70.9173 66.4062 79.2797 66.4062C87.7506 66.4062 94.484 59.5814 94.484 51.24C94.484 42.8986 87.642 36.0739 79.2797 36.0739Z" fill="black"/>
<path d="M79.2797 63.6979C86.1173 63.6979 91.6603 58.1688 91.6603 51.3483C91.6603 44.5279 86.1173 38.9988 79.2797 38.9988C72.4421 38.9988 66.899 44.5279 66.899 51.3483C66.899 58.1688 72.4421 63.6979 79.2797 63.6979Z" fill="#AAAAAA"/>
<path d="M79.2797 58.173C83.0584 58.173 86.1216 55.1174 86.1216 51.3482C86.1216 47.579 83.0584 44.5234 79.2797 44.5234C75.501 44.5234 72.4377 47.579 72.4377 51.3482C72.4377 55.1174 75.501 58.173 79.2797 58.173Z" fill="white"/>
<path d="M79.2796 59.2563C75.1528 59.2563 71.6775 56.0064 71.3517 51.9982C71.0259 47.665 74.2839 43.8735 78.628 43.4402C80.6915 43.3318 82.8635 43.8735 84.4925 45.2818C86.1216 46.5817 87.099 48.64 87.3162 50.6983C87.4248 52.7565 86.8818 54.9231 85.47 56.5481C84.1667 58.173 82.1033 59.148 80.0399 59.3646C79.714 59.2563 79.4968 59.2563 79.2796 59.2563ZM79.2796 45.6068C79.171 45.6068 78.9538 45.6068 78.8452 45.6068C75.5872 45.9318 73.3065 48.64 73.6323 51.8899C73.7409 53.5148 74.5011 54.8148 75.6958 55.7897C76.8904 56.7647 78.3022 57.198 79.9312 57.0897C81.5603 56.9814 82.8635 56.2231 83.8409 55.0314C84.8183 53.8398 85.2528 52.4315 85.1442 50.8066C85.0356 49.1816 84.2753 47.8817 83.0807 46.9067C81.9947 46.1484 80.5829 45.6068 79.2796 45.6068Z" fill="black"/>
<path d="M79.2797 55.2482C81.4389 55.2482 83.1893 53.5022 83.1893 51.3484C83.1893 49.1945 81.4389 47.4485 79.2797 47.4485C77.1204 47.4485 75.37 49.1945 75.37 51.3484C75.37 53.5022 77.1204 55.2482 79.2797 55.2482Z" fill="black"/>
<path d="M121.634 67.5975C130.631 67.5975 137.925 60.3224 137.925 51.3481C137.925 42.3738 130.631 35.0986 121.634 35.0986C112.638 35.0986 105.344 42.3738 105.344 51.3481C105.344 60.3224 112.638 67.5975 121.634 67.5975Z" fill="#DDDDDD"/>
<path d="M121.634 68.7892C112.077 68.7892 104.258 60.9895 104.258 51.4565C104.258 41.9235 112.077 34.1238 121.634 34.1238C131.191 34.1238 139.011 41.9235 139.011 51.4565C139.011 60.9895 131.191 68.7892 121.634 68.7892ZM121.634 36.182C113.272 36.182 106.43 43.0068 106.43 51.3482C106.43 59.6896 113.272 66.5143 121.634 66.5143C129.997 66.5143 136.839 59.6896 136.839 51.3482C136.839 43.0068 129.997 36.182 121.634 36.182Z" fill="black"/>
<path d="M121.634 63.6977C128.472 63.6977 134.015 58.1686 134.015 51.3481C134.015 44.5276 128.472 38.9985 121.634 38.9985C114.797 38.9985 109.254 44.5276 109.254 51.3481C109.254 58.1686 114.797 63.6977 121.634 63.6977Z" fill="#AAAAAA"/>
<path d="M121.634 58.173C125.413 58.173 128.476 55.1174 128.476 51.3482C128.476 47.579 125.413 44.5234 121.634 44.5234C117.856 44.5234 114.792 47.579 114.792 51.3482C114.792 55.1174 117.856 58.173 121.634 58.173Z" fill="white"/>
<path d="M121.634 59.3646C119.788 59.3646 117.942 58.7147 116.53 57.523C114.901 56.1147 113.924 54.2731 113.815 52.1066C113.489 47.7734 116.747 43.9818 121.091 43.5485C125.435 43.2235 129.237 46.4734 129.671 50.8066C129.997 55.1398 126.739 58.9313 122.395 59.3646C122.069 59.3646 121.852 59.3646 121.634 59.3646ZM121.634 45.6068C121.526 45.6068 121.309 45.6068 121.2 45.6068C118.051 45.8234 115.661 48.64 115.878 51.7816C115.987 53.2982 116.747 54.7065 117.942 55.6814C119.137 56.6564 120.657 57.198 122.177 57.0897C125.327 56.8731 127.716 54.0565 127.499 50.9149C127.173 47.8817 124.675 45.6068 121.634 45.6068Z" fill="black"/>
<path d="M121.634 55.2482C123.794 55.2482 125.544 53.5022 125.544 51.3484C125.544 49.1945 123.794 47.4485 121.634 47.4485C119.475 47.4485 117.725 49.1945 117.725 51.3484C117.725 53.5022 119.475 55.2482 121.634 55.2482Z" fill="black"/>
</svg>
