<svg width="76" height="76" viewBox="0 0 76 76" fill="none" xmlns="http://www.w3.org/2000/svg">
<rect width="76" height="76" rx="38" fill="black" fill-opacity="0.1"/>
<path fill-rule="evenodd" clip-rule="evenodd" d="M41.218 28.1349C42.4414 28.1349 43.4163 28.6592 44.1428 29.7076C44.8692 30.737 45.2324 32.1572 45.2324 33.9682C45.2324 35.7792 44.7736 37.3328 43.856 38.6291C42.9384 39.9063 41.8169 40.5449 40.4916 40.5449H39.4019L39.6313 47.8651H37.0697L37.2991 40.9166L37.0697 28.1349H41.218ZM40.5298 31.023H39.5931L39.4593 37.7713H40.7592C41.3964 37.7713 41.887 37.4567 42.2311 36.8276C42.588 36.1986 42.7664 35.3026 42.7664 34.1398C42.7664 32.0619 42.0209 31.023 40.5298 31.023Z" fill="white"/>
<path d="M31.3391 40.7165L34.5316 48.1224L36.8829 45.8921L32.8302 37.7712L36.3285 29.6218L34.3213 27.849L31.3583 35.112L28.2805 27.9634L25.9101 30.2795L29.9628 38.0572L26.1969 46.6355L28.2614 48.151L31.3391 40.7165Z" fill="white"/>
<path fill-rule="evenodd" clip-rule="evenodd" d="M53.5564 24.9691C50.7748 21.2773 47.8557 19.2559 43.7712 19.2559H35.2997C31.2152 19.2559 27.4351 21.2773 24.6534 24.9691C22.0145 28.4681 20.5594 33.0953 20.5594 38C20.5594 42.9047 22.0145 47.5319 24.6534 51.0308C27.4351 54.7227 31.2152 56.7441 35.2997 56.7441H43.7712C47.8557 56.7441 50.7748 54.7227 53.5564 51.0308C56.1954 47.5393 57.6504 42.9047 57.6504 38C57.6504 33.0953 56.1954 28.4681 53.5564 24.9691ZM55.63 36.8974H50.0114C49.8569 33.4352 48.9724 30.1477 47.458 27.3416H52.8056C54.484 30.0503 55.4588 33.3636 55.63 36.8974ZM43.7712 21.4611C46.4601 21.4611 49.0539 22.7584 51.1746 25.1364H46.0648L45.9459 24.9691C44.9844 23.6572 43.7572 22.4728 42.3108 21.4611H43.7712ZM27.1165 49.9191C24.7295 46.7528 23.4124 42.5206 23.4124 38C23.4124 33.4794 24.7295 29.2472 27.1165 26.0809C29.356 23.1021 32.2708 22.0151 35.2997 22.0151C38.3286 22.0151 41.2433 23.1021 43.4829 26.0809C45.8699 29.2472 47.187 33.4794 47.187 38C47.187 42.5206 45.8699 46.7528 43.4829 49.9191C41.2433 52.8979 38.3286 54.0973 35.2997 54.0973C32.2708 54.0973 29.356 52.8979 27.1165 49.9191ZM43.7712 54.5389H42.3108C43.7572 53.5272 44.9844 52.3428 45.9459 51.0308L46.0648 50.8636H51.1746C49.0539 53.2416 46.4601 54.5389 43.7712 54.5389ZM52.8056 48.6584H47.458C48.9724 45.8523 49.8569 42.5647 50.0114 39.1026H55.63C55.4588 42.6364 54.484 45.9497 52.8056 48.6584Z" fill="white"/>
</svg>
