<svg width="48" height="49" viewBox="0 0 48 49" fill="none" xmlns="http://www.w3.org/2000/svg">
<rect y="0.121094" width="48" height="48" rx="12" fill="url(#paint0_linear_224_18319)"/>
<path d="M33.5511 19.1455H29.3011V15.8955C29.3011 14.3705 28.6953 12.908 27.617 11.8296C26.5387 10.7513 25.0761 10.1455 23.5511 10.1455C22.0261 10.1455 20.5636 10.7513 19.4853 11.8296C18.4069 12.908 17.8011 14.3705 17.8011 15.8955V19.1455H13.5511C13.087 19.1455 12.6419 19.3299 12.3137 19.6581C11.9855 19.9863 11.8011 20.4314 11.8011 20.8955V34.8955C11.8011 35.3596 11.9855 35.8048 12.3137 36.1329C12.6419 36.4611 13.087 36.6455 13.5511 36.6455H33.5511C34.0153 36.6455 34.4604 36.4611 34.7886 36.1329C35.1168 35.8048 35.3011 35.3596 35.3011 34.8955V20.8955C35.3011 20.4314 35.1168 19.9863 34.7886 19.6581C34.4604 19.3299 34.0153 19.1455 33.5511 19.1455ZM19.3011 15.8955C19.3011 14.7683 19.7489 13.6873 20.5459 12.8903C21.343 12.0933 22.424 11.6455 23.5511 11.6455C24.6783 11.6455 25.7593 12.0933 26.5563 12.8903C27.3534 13.6873 27.8011 14.7683 27.8011 15.8955V19.1455H19.3011V15.8955ZM33.8011 34.8955C33.8011 34.9618 33.7748 35.0254 33.7279 35.0723C33.681 35.1192 33.6174 35.1455 33.5511 35.1455H13.5511C13.4848 35.1455 13.4212 35.1192 13.3744 35.0723C13.3275 35.0254 13.3011 34.9618 13.3011 34.8955V20.8955C13.3011 20.8292 13.3275 20.7656 13.3744 20.7187C13.4212 20.6718 13.4848 20.6455 13.5511 20.6455H33.5511C33.6174 20.6455 33.681 20.6718 33.7279 20.7187C33.7748 20.7656 33.8011 20.8292 33.8011 20.8955V34.8955ZM24.8011 27.8955C24.8011 28.1427 24.7278 28.3844 24.5905 28.59C24.4531 28.7955 24.2579 28.9557 24.0295 29.0504C23.8011 29.145 23.5497 29.1697 23.3073 29.1215C23.0648 29.0733 22.8421 28.9542 22.6672 28.7794C22.4924 28.6046 22.3734 28.3818 22.3252 28.1394C22.2769 27.8969 22.3017 27.6456 22.3963 27.4172C22.4909 27.1887 22.6511 26.9935 22.8567 26.8562C23.0622 26.7188 23.3039 26.6455 23.5511 26.6455C23.8827 26.6455 24.2006 26.7772 24.435 27.0116C24.6694 27.246 24.8011 27.564 24.8011 27.8955Z" fill="white"/>
<defs>
<linearGradient id="paint0_linear_224_18319" x1="10.2446" y1="6.72109" x2="38.9185" y2="26.573" gradientUnits="userSpaceOnUse">
<stop stop-color="#D35148"/>
<stop offset="1" stop-color="#F7947A"/>
</linearGradient>
</defs>
</svg>
