<svg width="48" height="49" viewBox="0 0 48 49" fill="none" xmlns="http://www.w3.org/2000/svg">
<rect y="0.121094" width="48" height="48" rx="12" fill="url(#paint0_linear_224_18331)"/>
<path d="M16.928 16.6927C16.8781 16.5435 16.7826 16.4138 16.6549 16.322C16.5273 16.2301 16.374 16.1806 16.2167 16.1806C16.0595 16.1806 15.9062 16.2301 15.7785 16.322C15.6509 16.4138 15.5554 16.5435 15.5055 16.6927L10.5055 31.6927C10.4678 31.8054 10.4575 31.9255 10.4754 32.043C10.4933 32.1605 10.5388 32.2721 10.6083 32.3685C10.6778 32.465 10.7691 32.5435 10.8749 32.5977C10.9807 32.6519 11.0979 32.6802 11.2167 32.6802H21.2167C21.3356 32.6802 21.4527 32.6519 21.5585 32.5977C21.6643 32.5435 21.7557 32.465 21.8251 32.3685C21.8946 32.2721 21.9402 32.1605 21.958 32.043C21.9759 31.9255 21.9656 31.8054 21.928 31.6927L16.928 16.6927ZM12.2567 31.1802L16.2167 19.3052L20.1767 31.1802H12.2567ZM33.9667 18.4302C33.9667 17.194 33.6002 15.9857 32.9134 14.9579C32.2266 13.9301 31.2505 13.129 30.1085 12.6559C28.9665 12.1829 27.7098 12.0591 26.4974 12.3003C25.285 12.5414 24.1714 13.1367 23.2973 14.0108C22.4232 14.8848 21.828 15.9985 21.5868 17.2109C21.3457 18.4232 21.4694 19.6799 21.9425 20.8219C22.4155 21.964 23.2166 22.9401 24.2444 23.6269C25.2722 24.3136 26.4806 24.6802 27.7167 24.6802C29.3737 24.6782 30.9623 24.0191 32.1339 22.8474C33.3056 21.6757 33.9647 20.0872 33.9667 18.4302ZM22.9667 18.4302C22.9667 17.4907 23.2453 16.5724 23.7672 15.7912C24.2892 15.0101 25.031 14.4013 25.899 14.0418C26.7669 13.6822 27.722 13.5882 28.6434 13.7714C29.5648 13.9547 30.4112 14.4071 31.0755 15.0714C31.7398 15.7357 32.1922 16.5821 32.3755 17.5035C32.5587 18.4249 32.4647 19.38 32.1051 20.2479C31.7456 21.1159 31.1368 21.8577 30.3557 22.3797C29.5745 22.9016 28.6562 23.1802 27.7167 23.1802C26.4569 23.1802 25.2488 22.6797 24.358 21.7889C23.4672 20.8981 22.9667 19.69 22.9667 18.4302ZM36.2167 27.1802H25.2167C25.0178 27.1802 24.827 27.2592 24.6864 27.3998C24.5457 27.5405 24.4667 27.7313 24.4667 27.9302V34.9302C24.4667 35.1291 24.5457 35.3199 24.6864 35.4605C24.827 35.6012 25.0178 35.6802 25.2167 35.6802H36.2167C36.4156 35.6802 36.6064 35.6012 36.7471 35.4605C36.8877 35.3199 36.9667 35.1291 36.9667 34.9302V27.9302C36.9667 27.7313 36.8877 27.5405 36.7471 27.3998C36.6064 27.2592 36.4156 27.1802 36.2167 27.1802ZM35.4667 34.1802H25.9667V28.6802H35.4667V34.1802Z" fill="white"/>
<defs>
<linearGradient id="paint0_linear_224_18331" x1="3.6259" y1="11.6411" x2="33.891" y2="24.1065" gradientUnits="userSpaceOnUse">
<stop stop-color="#0B785E"/>
<stop offset="0.965" stop-color="#3AB99A"/>
</linearGradient>
</defs>
</svg>
