<svg width="48" height="49" viewBox="0 0 48 49" fill="none" xmlns="http://www.w3.org/2000/svg">
<rect y="0.121094" width="48" height="48" rx="12" fill="url(#paint0_linear_224_18325)"/>
<path d="M11.8253 24.1786C11.9844 24.2979 12.1844 24.3492 12.3813 24.3211C12.5782 24.2929 12.7559 24.1877 12.8753 24.0286C13.504 23.1903 14.3193 22.5098 15.2566 22.0412C16.1938 21.5726 17.2274 21.3286 18.2753 21.3286C19.3232 21.3286 20.3567 21.5726 21.2939 22.0412C22.2312 22.5098 23.0465 23.1903 23.6753 24.0286C23.7948 24.1875 23.9726 24.2925 24.1695 24.3204C24.3664 24.3483 24.5663 24.2968 24.7253 24.1773C24.7821 24.1356 24.8322 24.0854 24.874 24.0286C25.5027 23.1903 26.318 22.5098 27.2553 22.0412C28.1926 21.5726 29.2261 21.3286 30.274 21.3286C31.3219 21.3286 32.3554 21.5726 33.2927 22.0412C34.23 22.5098 35.0453 23.1903 35.674 24.0286C35.7935 24.1877 35.9714 24.2929 36.1684 24.3209C36.3654 24.3489 36.5655 24.2975 36.7246 24.178C36.8838 24.0585 36.9889 23.8806 37.0169 23.6836C37.0449 23.4866 36.9935 23.2865 36.874 23.1273C35.9298 21.8627 34.6414 20.8967 33.1628 20.3448C33.9508 19.7411 34.53 18.9055 34.8187 17.9557C35.1074 17.0058 35.0913 15.9893 34.7725 15.0491C34.4537 14.1089 33.8484 13.2922 33.0415 12.7137C32.2346 12.1353 31.2668 11.8242 30.274 11.8242C29.2812 11.8242 28.3134 12.1353 27.5065 12.7137C26.6996 13.2922 26.0943 14.1089 25.7755 15.0491C25.4567 15.9893 25.4406 17.0058 25.7293 17.9557C26.0181 18.9055 26.5972 19.7411 27.3853 20.3448C26.2024 20.7856 25.1379 21.4946 24.2753 22.4161C23.4123 21.4944 22.3473 20.7854 21.164 20.3448C21.9521 19.7411 22.5312 18.9055 22.8199 17.9557C23.1087 17.0058 23.0925 15.9893 22.7738 15.0491C22.455 14.1089 21.8496 13.2922 21.0428 12.7137C20.2359 12.1353 19.268 11.8242 18.2753 11.8242C17.2825 11.8242 16.3146 12.1353 15.5078 12.7137C14.7009 13.2922 14.0955 14.1089 13.7768 15.0491C13.458 15.9893 13.4418 17.0058 13.7306 17.9557C14.0193 18.9055 14.5984 19.7411 15.3865 20.3448C13.9076 20.8967 12.619 21.8632 11.6753 23.1286C11.5559 23.2877 11.5047 23.4877 11.5328 23.6847C11.5609 23.8816 11.6661 24.0592 11.8253 24.1786ZM30.2753 13.3286C30.918 13.3286 31.5464 13.5192 32.0809 13.8763C32.6153 14.2334 33.0319 14.741 33.2779 15.3349C33.5239 15.9287 33.5882 16.5822 33.4628 17.2126C33.3374 17.8431 33.0279 18.4222 32.5734 18.8767C32.1188 19.3312 31.5397 19.6407 30.9093 19.7661C30.2789 19.8916 29.6254 19.8272 29.0315 19.5812C28.4377 19.3352 27.9301 18.9187 27.573 18.3842C27.2159 17.8497 27.0253 17.2214 27.0253 16.5786C27.0253 15.7166 27.3677 14.89 27.9772 14.2805C28.5867 13.671 29.4133 13.3286 30.2753 13.3286ZM18.2753 13.3286C18.918 13.3286 19.5464 13.5192 20.0809 13.8763C20.6153 14.2334 21.0319 14.741 21.2779 15.3349C21.5238 15.9287 21.5882 16.5822 21.4628 17.2126C21.3374 17.8431 21.0279 18.4222 20.5734 18.8767C20.1188 19.3312 19.5397 19.6407 18.9093 19.7661C18.2789 19.8916 17.6254 19.8272 17.0315 19.5812C16.4377 19.3352 15.9301 18.9187 15.573 18.3842C15.2159 17.8497 15.0253 17.2214 15.0253 16.5786C15.0253 15.7166 15.3677 14.89 15.9772 14.2805C16.5867 13.671 17.4133 13.3286 18.2753 13.3286ZM33.164 33.3448C33.9521 32.7411 34.5312 31.9055 34.8199 30.9557C35.1087 30.0058 35.0925 28.9893 34.7738 28.0491C34.455 27.1089 33.8496 26.2922 33.0428 25.7137C32.2359 25.1353 31.268 24.8242 30.2753 24.8242C29.2825 24.8242 28.3146 25.1353 27.5078 25.7137C26.7009 26.2922 26.0955 27.1089 25.7768 28.0491C25.458 28.9893 25.4418 30.0058 25.7306 30.9557C26.0193 31.9055 26.5984 32.7411 27.3865 33.3448C26.2032 33.7854 25.1382 34.4944 24.2753 35.4161C23.4123 34.4944 22.3473 33.7854 21.164 33.3448C21.9521 32.7411 22.5312 31.9055 22.8199 30.9557C23.1087 30.0058 23.0925 28.9893 22.7738 28.0491C22.455 27.1089 21.8496 26.2922 21.0428 25.7137C20.2359 25.1353 19.268 24.8242 18.2753 24.8242C17.2825 24.8242 16.3146 25.1353 15.5078 25.7137C14.7009 26.2922 14.0955 27.1089 13.7768 28.0491C13.458 28.9893 13.4418 30.0058 13.7306 30.9557C14.0193 31.9055 14.5984 32.7411 15.3865 33.3448C13.9076 33.8967 12.619 34.8632 11.6753 36.1286C11.6162 36.2074 11.5732 36.2971 11.5487 36.3925C11.5243 36.4879 11.5189 36.5872 11.5328 36.6847C11.5467 36.7822 11.5797 36.876 11.6299 36.9607C11.6801 37.0455 11.7465 37.1195 11.8253 37.1786C11.904 37.2377 11.9937 37.2807 12.0891 37.3051C12.1845 37.3296 12.2838 37.335 12.3813 37.3211C12.4788 37.3071 12.5726 37.2741 12.6574 37.2239C12.7421 37.1738 12.8162 37.1074 12.8753 37.0286C13.504 36.1903 14.3193 35.5098 15.2566 35.0412C16.1938 34.5726 17.2274 34.3286 18.2753 34.3286C19.3232 34.3286 20.3567 34.5726 21.2939 35.0412C22.2312 35.5098 23.0465 36.1903 23.6753 37.0286C23.7948 37.1875 23.9726 37.2925 24.1695 37.3204C24.3664 37.3483 24.5663 37.2968 24.7253 37.1773C24.7821 37.1356 24.8322 37.0854 24.874 37.0286C25.5027 36.1903 26.318 35.5098 27.2553 35.0412C28.1926 34.5726 29.2261 34.3286 30.274 34.3286C31.3219 34.3286 32.3554 34.5726 33.2927 35.0412C34.23 35.5098 35.0453 36.1903 35.674 37.0286C35.7935 37.1877 35.9714 37.2929 36.1684 37.3209C36.3654 37.3489 36.5655 37.2975 36.7246 37.178C36.8838 37.0585 36.9889 36.8806 37.0169 36.6836C37.0449 36.4866 36.9935 36.2865 36.874 36.1273C35.9301 34.8629 34.6422 33.8969 33.164 33.3448ZM18.2753 26.3286C18.918 26.3286 19.5464 26.5192 20.0809 26.8763C20.6153 27.2334 21.0319 27.741 21.2779 28.3349C21.5238 28.9287 21.5882 29.5822 21.4628 30.2126C21.3374 30.8431 21.0279 31.4222 20.5734 31.8767C20.1188 32.3312 19.5397 32.6407 18.9093 32.7661C18.2789 32.8916 17.6254 32.8272 17.0315 32.5812C16.4377 32.3352 15.9301 31.9187 15.573 31.3842C15.2159 30.8497 15.0253 30.2214 15.0253 29.5786C15.0253 28.7166 15.3677 27.89 15.9772 27.2805C16.5867 26.671 17.4133 26.3286 18.2753 26.3286ZM30.2753 26.3286C30.918 26.3286 31.5464 26.5192 32.0809 26.8763C32.6153 27.2334 33.0319 27.741 33.2779 28.3349C33.5239 28.9287 33.5882 29.5822 33.4628 30.2126C33.3374 30.8431 33.0279 31.4222 32.5734 31.8767C32.1188 32.3312 31.5397 32.6407 30.9093 32.7661C30.2789 32.8916 29.6254 32.8272 29.0315 32.5812C28.4377 32.3352 27.9301 31.9187 27.573 31.3842C27.2159 30.8497 27.0253 30.2214 27.0253 29.5786C27.0253 28.7166 27.3677 27.89 27.9772 27.2805C28.5867 26.671 29.4133 26.3286 30.2753 26.3286Z" fill="white"/>
<defs>
<linearGradient id="paint0_linear_224_18325" x1="5.13398" y1="0.121093" x2="51.1088" y2="38.1582" gradientUnits="userSpaceOnUse">
<stop stop-color="#6A6CAD"/>
<stop offset="1" stop-color="#A696D5"/>
</linearGradient>
</defs>
</svg>
