<svg width="76" height="76" viewBox="0 0 76 76" fill="none" xmlns="http://www.w3.org/2000/svg">
<rect width="76" height="76" rx="38" fill="black" fill-opacity="0.1"/>
<path d="M42.5137 45.4473C43.7451 44.5039 44.6499 43.1983 45.1011 41.7142C45.5522 40.23 45.527 38.6418 45.0289 37.1726C44.5308 35.7036 43.585 34.4274 42.3242 33.5236C41.0635 32.6198 39.5512 32.1338 38 32.1338C36.4488 32.1338 34.9365 32.6198 33.6758 33.5236C32.415 34.4274 31.4692 35.7036 30.9711 37.1726C30.473 38.6418 30.4478 40.23 30.8989 41.7142C31.3501 43.1983 32.2549 44.5039 33.4863 45.4473C31.1758 46.3102 29.1626 47.8202 27.6875 49.7969C27.501 50.0455 27.4209 50.3581 27.4649 50.6657C27.5089 50.9734 27.6732 51.251 27.9219 51.4375C28.1705 51.624 28.4831 51.7041 28.7907 51.6601C29.0984 51.6161 29.376 51.4518 29.5625 51.2031C30.5449 49.8932 31.8188 48.8301 33.2833 48.0978C34.7478 47.3656 36.3626 46.9844 38 46.9844C39.6374 46.9844 41.2522 47.3656 42.7167 48.0978C44.1812 48.8301 45.4551 49.8932 46.4375 51.2031C46.624 51.4518 46.9016 51.6161 47.2093 51.6601C47.5169 51.7041 47.8295 51.624 48.0781 51.4375C48.3268 51.251 48.4911 50.9734 48.5351 50.6657C48.5791 50.3581 48.499 50.0455 48.3125 49.7969C46.8374 47.8202 44.8242 46.3102 42.5137 45.4473ZM38 34.4844C39.0044 34.4844 39.9862 34.7822 40.8213 35.3402C41.6563 35.8982 42.3072 36.6913 42.6916 37.6192C43.0759 38.5471 43.1765 39.5681 42.9805 40.5532C42.7846 41.5383 42.301 42.4431 41.5908 43.1533C40.8806 43.8635 39.9758 44.3471 38.9907 44.543C38.0056 44.739 36.9846 44.6384 36.0567 44.2541C35.1288 43.8697 34.3357 43.2188 33.7777 42.3838C33.2197 41.5487 32.9219 40.5669 32.9219 39.5625C32.9219 38.2157 33.4569 36.9241 34.4092 35.9717C35.3616 35.0194 36.6532 34.4844 38 34.4844ZM52.0625 18.0781H23.9375C23.2123 18.0781 22.5168 18.3662 22.004 18.879C21.4912 19.3918 21.2031 20.0873 21.2031 20.8125V55.1875C21.2031 55.9127 21.4912 56.6082 22.004 57.121C22.5168 57.6338 23.2123 57.9219 23.9375 57.9219H52.0625C52.7877 57.9219 53.4832 57.6338 53.996 57.121C54.5088 56.6082 54.7969 55.9127 54.7969 55.1875V20.8125C54.7969 20.0873 54.5088 19.3918 53.996 18.879C53.4832 18.3662 52.7877 18.0781 52.0625 18.0781ZM52.4531 55.1875C52.4531 55.2911 52.412 55.3905 52.3387 55.4637C52.2655 55.537 52.1661 55.5781 52.0625 55.5781H23.9375C23.8339 55.5781 23.7345 55.537 23.6613 55.4637C23.588 55.3905 23.5469 55.2911 23.5469 55.1875V20.8125C23.5469 20.7089 23.588 20.6095 23.6613 20.5363C23.7345 20.463 23.8339 20.4219 23.9375 20.4219H52.0625C52.1661 20.4219 52.2655 20.463 52.3387 20.5363C52.412 20.6095 52.4531 20.7089 52.4531 20.8125V55.1875ZM30.5781 25.5C30.5781 25.1892 30.7016 24.8911 30.9214 24.6714C31.1411 24.4516 31.4392 24.3281 31.75 24.3281H44.25C44.5608 24.3281 44.8589 24.4516 45.0786 24.6714C45.2984 24.8911 45.4219 25.1892 45.4219 25.5C45.4219 25.8108 45.2984 26.1089 45.0786 26.3286C44.8589 26.5484 44.5608 26.6719 44.25 26.6719H31.75C31.4392 26.6719 31.1411 26.5484 30.9214 26.3286C30.7016 26.1089 30.5781 25.8108 30.5781 25.5Z" fill="white"/>
</svg>
