<svg width="100" height="101" viewBox="0 0 100 101" fill="none" xmlns="http://www.w3.org/2000/svg">
<rect y="0.121094" width="100" height="100" rx="50" fill="white" fill-opacity="0.75"/>
<rect x="0.5" y="0.621094" width="99" height="99" rx="49.5" stroke="black" stroke-opacity="0.08"/>
<path d="M45.648 61.4353C45.6053 61.222 45.584 60.9873 45.584 60.7313C45.584 60.4753 45.584 60.2406 45.584 60.0273C45.584 58.2353 45.84 56.6566 46.352 55.2913C46.9067 53.926 47.568 52.6886 48.336 51.5793C49.1467 50.4273 50 49.3606 50.896 48.3793C51.8347 47.398 52.688 46.4166 53.456 45.4353C54.2667 44.4113 54.928 43.3446 55.44 42.2353C55.9947 41.0833 56.272 39.782 56.272 38.3313C56.272 36.3686 55.696 34.7686 54.544 33.5313C53.4347 32.294 51.5573 31.6753 48.912 31.6753C47.376 31.6753 45.8187 31.9526 44.24 32.5073C42.6614 33.0193 41.296 33.638 40.144 34.3633L38.416 30.3953C40.0373 29.414 41.744 28.646 43.536 28.0913C45.328 27.494 47.5467 27.1953 50.192 27.1953C52.0693 27.1953 53.712 27.4726 55.12 28.0273C56.5707 28.5393 57.7653 29.2646 58.704 30.2033C59.6853 31.142 60.4107 32.2513 60.88 33.5313C61.3493 34.8113 61.584 36.1766 61.584 37.6273C61.584 39.5473 61.2853 41.2326 60.688 42.6833C60.1333 44.0913 59.408 45.3926 58.512 46.5873C57.6587 47.7393 56.72 48.8273 55.696 49.8513C54.7147 50.8753 53.776 51.9633 52.88 53.1153C52.0267 54.2246 51.3014 55.4406 50.704 56.7633C50.1494 58.086 49.872 59.6433 49.872 61.4353H45.648ZM44.368 69.8193C44.368 68.6673 44.688 67.7713 45.328 67.1313C46.0107 66.4486 46.9067 66.1073 48.016 66.1073C49.168 66.1073 50.0854 66.4486 50.768 67.1313C51.4507 67.7713 51.792 68.6673 51.792 69.8193C51.792 70.9286 51.4507 71.8246 50.768 72.5073C50.0854 73.19 49.168 73.5313 48.016 73.5313C46.9067 73.5313 46.0107 73.19 45.328 72.5073C44.688 71.8246 44.368 70.9286 44.368 69.8193Z" fill="url(#paint0_linear_617_8733)"/>
<defs>
<linearGradient id="paint0_linear_617_8733" x1="38.416" y1="50.3633" x2="61.6029" y2="50.4643" gradientUnits="userSpaceOnUse">
<stop stop-color="#0789C1"/>
<stop offset="1" stop-color="#26B1D0"/>
</linearGradient>
</defs>
</svg>
