<svg width="100" height="100" viewBox="0 0 100 100" fill="none" xmlns="http://www.w3.org/2000/svg">
<rect width="100" height="100" rx="50" fill="white"/>
<rect x="0.5" y="0.5" width="99" height="99" rx="49.5" stroke="black" stroke-opacity="0.08"/>
<path d="M66.9517 50.3741C59.744 50.3741 53.9021 56.2188 53.9021 63.4286C53.9021 70.6391 59.744 76.485 66.9517 76.485C74.1581 76.485 80 70.6391 80 63.4286C80 56.2188 74.1581 50.3741 66.9517 50.3741ZM33.049 50.3747C25.8425 50.3754 20 56.2188 20 63.4292C20 70.6391 25.8425 76.4843 33.049 76.4843C40.256 76.4843 46.0986 70.6391 46.0986 63.4292C46.0986 56.2187 40.256 50.3747 33.0483 50.3747H33.049ZM63.049 34.0551C63.049 41.265 57.2071 47.1115 50.0007 47.1115C42.793 47.1115 36.9511 41.265 36.9511 34.0551C36.9511 26.8453 42.793 21 50.0006 21C57.2071 21 63.0484 26.8453 63.0484 34.0551H63.049Z" fill="url(#paint0_radial_186_20024)"/>
<defs>
<radialGradient id="paint0_radial_186_20024" cx="0" cy="0" r="1" gradientUnits="userSpaceOnUse" gradientTransform="translate(50.0081 51.3583) scale(39.78 36.7866)">
<stop stop-color="#FFB900"/>
<stop offset="0.6" stop-color="#F95D8F"/>
<stop offset="0.999" stop-color="#F95353"/>
</radialGradient>
</defs>
</svg>
