<svg width="100" height="100" viewBox="0 0 100 100" fill="none" xmlns="http://www.w3.org/2000/svg">
<rect width="100" height="100" rx="50" fill="white"/>
<rect x="0.5" y="0.5" width="99" height="99" rx="49.5" stroke="black" stroke-opacity="0.08"/>
<path d="M45.648 61.3142C45.6053 61.1009 45.584 60.8662 45.584 60.6102C45.584 60.3542 45.584 60.1196 45.584 59.9062C45.584 58.1142 45.84 56.5356 46.352 55.1702C46.9067 53.8049 47.568 52.5676 48.336 51.4582C49.1467 50.3062 50 49.2396 50.896 48.2582C51.8347 47.2769 52.688 46.2956 53.456 45.3142C54.2667 44.2902 54.928 43.2236 55.44 42.1142C55.9947 40.9622 56.272 39.6609 56.272 38.2102C56.272 36.2476 55.696 34.6476 54.544 33.4102C53.4347 32.1729 51.5573 31.5542 48.912 31.5542C47.376 31.5542 45.8187 31.8316 44.24 32.3862C42.6614 32.8982 41.296 33.5169 40.144 34.2422L38.416 30.2742C40.0373 29.2929 41.744 28.5249 43.536 27.9702C45.328 27.3729 47.5467 27.0742 50.192 27.0742C52.0694 27.0742 53.712 27.3516 55.12 27.9062C56.5707 28.4182 57.7653 29.1436 58.704 30.0822C59.6853 31.0209 60.4107 32.1302 60.88 33.4102C61.3493 34.6902 61.584 36.0556 61.584 37.5062C61.584 39.4262 61.2853 41.1116 60.688 42.5622C60.1333 43.9702 59.408 45.2716 58.512 46.4662C57.6587 47.6182 56.72 48.7062 55.696 49.7302C54.7147 50.7542 53.776 51.8422 52.88 52.9942C52.0267 54.1035 51.3014 55.3196 50.704 56.6422C50.1494 57.9649 49.872 59.5222 49.872 61.3142H45.648ZM44.368 69.6982C44.368 68.5462 44.688 67.6502 45.328 67.0102C46.0107 66.3276 46.9067 65.9862 48.016 65.9862C49.168 65.9862 50.0854 66.3276 50.768 67.0102C51.4507 67.6502 51.792 68.5462 51.792 69.6982C51.792 70.8076 51.4507 71.7036 50.768 72.3862C50.0854 73.0689 49.168 73.4102 48.016 73.4102C46.9067 73.4102 46.0107 73.0689 45.328 72.3862C44.688 71.7036 44.368 70.8076 44.368 69.6982Z" fill="#ABB7CA"/>
</svg>
