<svg width="100" height="100" viewBox="0 0 100 100" fill="none" xmlns="http://www.w3.org/2000/svg">
<rect width="100" height="100" rx="50" fill="white"/>
<rect x="0.5" y="0.5" width="99" height="99" rx="49.5" stroke="black" stroke-opacity="0.08"/>
<path d="M65.0552 40.6209V33.5746C65.9864 33.1394 66.7748 32.4487 67.3287 31.5828C67.8826 30.717 68.1791 29.7116 68.1839 28.6838V28.5221C68.1839 25.5253 65.7545 23.0959 62.7579 23.0959H62.596C59.5992 23.0959 57.1698 25.5253 57.1698 28.5221V28.6838C57.1745 29.7116 57.4711 30.717 58.025 31.5828C58.5788 32.4487 59.3673 33.1394 60.2984 33.5746V40.6209C57.6222 41.0308 55.1017 42.1405 52.9923 43.8377L33.6674 28.7855C33.8052 28.2881 33.8771 27.7766 33.8852 27.2631C33.8876 26.0538 33.5312 24.871 32.8612 23.8642C32.1913 22.8575 31.2378 22.072 30.1213 21.6073C29.0049 21.1425 27.7757 21.0192 26.5892 21.2531C25.4028 21.487 24.3123 22.0676 23.4558 22.9213C22.5993 23.775 22.0153 24.8636 21.7775 26.0493C21.5398 27.235 21.659 28.4646 22.1202 29.5825C22.5813 30.7004 23.3637 31.6565 24.3683 32.3297C25.3728 33.003 26.5545 33.3631 27.7638 33.3647C28.8217 33.3597 29.8599 33.0773 30.7745 32.5456L49.804 47.3534C46.3054 52.6385 46.399 59.5264 50.0397 64.7148L44.2519 70.5042C43.7838 70.3548 43.2967 70.2752 42.8054 70.2685C40.0336 70.2709 37.7881 72.5188 37.7888 75.2907C37.7895 78.0623 40.0364 80.309 42.8081 80.3097C45.5799 80.3105 47.8278 78.0649 47.8302 75.2931C47.8237 74.802 47.7442 74.3146 47.5943 73.8469L53.3199 68.119C58.4359 72.0575 65.4624 72.3968 70.9342 68.9697C76.4058 65.5423 79.1672 59.072 77.8561 52.7502C76.5451 46.4283 71.4386 41.59 65.0552 40.6209ZM62.682 63.7956C61.6242 63.8241 60.5714 63.6403 59.5858 63.2552C58.6002 62.8701 57.7018 62.2913 56.9436 61.5532C56.1853 60.8151 55.5827 59.9326 55.1711 58.9577C54.7596 57.9828 54.5476 56.9354 54.5476 55.8772C54.5476 54.819 54.7596 53.7716 55.1711 52.7967C55.5827 51.8218 56.1853 50.9393 56.9436 50.2012C57.7018 49.4631 58.6002 48.8844 59.5858 48.4992C60.5714 48.1141 61.6242 47.9303 62.682 47.9588C66.9447 48.108 70.3238 51.6059 70.3262 55.8715C70.3281 60.1366 66.9526 63.638 62.6898 63.7916" fill="#FF7A59"/>
</svg>
