<svg width="100" height="100" viewBox="0 0 100 100" fill="none" xmlns="http://www.w3.org/2000/svg">
<rect width="100" height="100" rx="50" fill="white"/>
<rect x="0.5" y="0.5" width="99" height="99" rx="49.5" stroke="black" stroke-opacity="0.08"/>
<path fill-rule="evenodd" clip-rule="evenodd" d="M27.6123 63.7732L35.9022 57.4248C40.3059 63.1699 44.9839 65.819 50.1926 65.819C55.3732 65.819 59.919 63.2012 64.1243 57.5006L72.5316 63.6958C66.465 71.9153 58.9239 76.2575 50.1926 76.2575C41.4894 76.2575 33.8756 71.9449 27.6123 63.7732Z" fill="url(#paint0_linear_186_20029)"/>
<path fill-rule="evenodd" clip-rule="evenodd" d="M49.7245 36.1817L34.9713 48.8918L28.1509 40.9838L49.7559 22.3721L71.1907 40.9987L64.3389 48.8786L49.7245 36.1817Z" fill="url(#paint1_linear_186_20029)"/>
<defs>
<linearGradient id="paint0_linear_186_20029" x1="27.6123" y1="70.2338" x2="72.5316" y2="70.2338" gradientUnits="userSpaceOnUse">
<stop stop-color="#8930FD"/>
<stop offset="1" stop-color="#49CCF9"/>
</linearGradient>
<linearGradient id="paint1_linear_186_20029" x1="28.1509" y1="40.4068" x2="71.1907" y2="40.4068" gradientUnits="userSpaceOnUse">
<stop stop-color="#FF02F0"/>
<stop offset="1" stop-color="#FFC800"/>
</linearGradient>
</defs>
</svg>
