<svg width="100" height="100" viewBox="0 0 100 100" fill="none" xmlns="http://www.w3.org/2000/svg">
<rect width="100" height="100" rx="50" fill="white"/>
<rect x="0.5" y="0.5" width="99" height="99" rx="49.5" stroke="black" stroke-opacity="0.08"/>
<path d="M74.5483 27.0488H48.7505C48.7505 30.1374 49.9774 33.0995 52.1614 35.2835C54.3454 37.4674 57.3074 38.6944 60.396 38.6944H65.1483V43.2828C65.1525 49.7086 70.3605 54.9168 76.7863 54.921V29.2868C76.7863 28.0511 75.7846 27.0488 74.5483 27.0488Z" fill="#2684FF"/>
<path d="M61.784 39.9023H35.9863C35.9903 46.3281 41.1983 51.5364 47.6243 51.5406H52.3766V56.1436C52.3848 62.5694 57.5963 67.7741 64.0221 67.7741V42.1407C64.0221 40.9047 63.02 39.9023 61.784 39.9023Z" fill="url(#paint0_linear_186_20017)"/>
<path d="M49.0117 52.749H23.2139C23.2139 59.1807 28.4279 64.3946 34.8594 64.3946H39.6266V68.9828C39.6308 75.4027 44.8298 80.6086 51.2499 80.6208V54.9872C51.2499 53.7511 50.2478 52.749 49.0117 52.749Z" fill="url(#paint1_linear_186_20017)"/>
<defs>
<linearGradient id="paint0_linear_186_20017" x1="7053.26" y1="52.7344" x2="4270.19" y2="3305.15" gradientUnits="userSpaceOnUse">
<stop offset="0.18" stop-color="#0052CC"/>
<stop offset="1" stop-color="#2684FF"/>
</linearGradient>
<linearGradient id="paint1_linear_186_20017" x1="7229.09" y1="89.0131" x2="4009.8" y2="3636.38" gradientUnits="userSpaceOnUse">
<stop offset="0.18" stop-color="#0052CC"/>
<stop offset="1" stop-color="#2684FF"/>
</linearGradient>
</defs>
</svg>
