<svg width="216" height="260" viewBox="0 0 216 260" fill="none" xmlns="http://www.w3.org/2000/svg">
<g filter="url(#filter0_d_648_10264)">
<path d="M100.901 108.476C100.32 105.499 97.5624 100.272 95.1677 97.5139C92.7004 94.6827 99.9572 87.7863 103.44 88.0041C105.69 88.1493 108.593 94.3923 112.366 97.8043C114.398 99.6917 115.342 98.4576 116.648 98.4576C118.39 98.4576 122.816 97.5139 128.331 97.5139C134.427 97.5865 145.457 99.8369 148.142 101.507C153.295 104.701 154.964 101.797 155.907 99.111C156.851 96.425 170.493 98.8206 171.001 102.958C171.219 104.773 163.454 112.178 161.785 118.421C160.044 124.664 157.359 107.459 141.539 106.951C125.719 106.443 103.731 112.396 102.207 115.009C100.61 117.622 101.191 110.218 100.901 108.476Z" fill="white"/>
<path d="M89.653 176.931C89.653 176.931 87.9113 182.085 88.4919 187.239C89.0724 192.394 93.0637 205.606 93.0637 205.606C93.0637 205.606 94.8053 210.76 94.8053 213.083C94.8053 215.406 94.8053 216.495 95.3859 217.075C95.8213 217.511 96.547 218.237 101.699 218.818C106.852 219.399 110.553 219.181 111.423 218.237C112.004 217.656 112.004 215.914 109.682 214.825C108.521 214.244 106.852 213.083 106.852 210.832C106.852 208.582 106.852 203.355 108.013 199.363C109.174 195.37 112.585 189.635 114.907 189.054C117.229 188.473 124.631 189.054 128.042 189.054C131.452 189.054 134.936 187.893 136.097 189.054C137.258 190.216 137.838 191.885 137.258 193.047C136.677 194.208 133.266 199.943 132.686 201.613C132.323 202.702 132.686 203.936 135.516 204.444C138.346 205.025 144.152 205.46 146.982 205.025C147.562 204.952 148.724 204.444 147.562 202.702C146.401 200.96 144.732 200.96 145.24 199.29C145.821 197.548 150.393 192.394 150.393 192.394C150.393 192.394 161.278 180.924 162.439 178.092C163.6 175.261 165.269 171.777 163.6 168.946C161.858 166.114 158.448 165.534 158.448 165.534" fill="#E6ECEC"/>
<path d="M106.706 219.761C104.892 219.761 103.005 219.616 101.626 219.471C96.2563 218.89 95.3854 218.019 94.8775 217.583C94.0792 216.785 94.0792 215.551 94.0792 213.083C94.0792 210.905 92.4101 205.896 92.4101 205.896C92.265 205.315 88.3463 192.611 87.8383 187.384C87.2578 182.157 88.9269 177.003 88.9994 176.785L90.3057 177.221C90.3057 177.294 88.6366 182.303 89.2171 187.239C89.7977 192.248 93.7164 205.315 93.7889 205.46C93.8615 205.678 95.5306 210.76 95.5306 213.083C95.5306 214.97 95.5306 216.204 95.8934 216.567C96.1837 216.857 96.8368 217.511 101.771 218.092C108.012 218.817 110.48 218.164 110.915 217.729C110.988 217.656 111.06 217.438 110.988 217.148C110.915 216.494 110.262 215.841 109.319 215.406C107.141 214.317 106.053 212.792 106.053 210.76C106.053 208.509 106.053 203.21 107.214 199.072C108.303 195.224 111.786 188.981 114.616 188.255C116.285 187.82 120.349 187.965 123.977 188.11C125.501 188.183 126.953 188.183 127.969 188.183C129.202 188.183 130.436 188.038 131.524 187.892C133.774 187.602 135.516 187.384 136.532 188.401C137.983 189.852 138.491 191.885 137.838 193.192C137.62 193.555 137.185 194.353 136.677 195.297C135.516 197.402 133.701 200.524 133.339 201.685C133.193 202.121 133.266 202.411 133.339 202.556C133.629 202.992 134.427 203.428 135.661 203.645C138.346 204.153 144.079 204.662 146.836 204.226C147.054 204.153 147.272 204.081 147.272 204.008C147.344 203.863 147.272 203.573 146.909 203.065C146.546 202.484 146.111 202.121 145.675 201.83C144.95 201.25 144.006 200.524 144.514 198.999C145.095 197.184 149.304 192.393 149.812 191.885C152.859 188.691 160.769 179.98 161.713 177.802C161.785 177.511 161.931 177.221 162.076 176.931C163.092 174.39 164.325 171.486 162.946 169.236C161.423 166.695 158.302 166.114 158.302 166.114L158.52 164.735C158.665 164.735 162.293 165.388 164.18 168.51C165.922 171.414 164.543 174.753 163.454 177.439C163.309 177.729 163.237 178.02 163.092 178.237C161.931 181.141 152.061 191.595 150.9 192.756C149.086 194.789 146.328 198.201 145.893 199.362C145.675 199.943 145.82 200.016 146.546 200.596C147.054 200.959 147.635 201.395 148.143 202.193C148.723 203.065 148.868 203.863 148.651 204.516C148.433 205.097 147.852 205.46 147.127 205.605C144.079 206.113 138.273 205.605 135.443 205.025C133.774 204.662 132.686 204.081 132.178 203.282C131.815 202.702 131.815 201.976 132.032 201.25C132.468 200.016 134.209 196.894 135.516 194.644C136.024 193.7 136.532 192.901 136.677 192.611C137.112 191.812 136.604 190.361 135.661 189.417C135.153 188.909 133.484 189.126 131.887 189.344C130.726 189.489 129.493 189.635 128.186 189.635C127.098 189.635 125.646 189.562 124.122 189.489C120.784 189.344 116.648 189.199 115.197 189.562C113.382 189.998 110.044 195.224 108.811 199.362C107.722 203.282 107.722 208.436 107.722 210.614C107.722 212.066 108.52 213.155 110.189 213.954C112.004 214.897 112.512 216.059 112.584 216.712C112.729 217.438 112.512 218.092 112.076 218.527C111.06 219.471 108.956 219.761 106.706 219.761Z" fill="black"/>
<path d="M169.405 129.746C169.405 129.746 175.573 128.439 178.04 129.093C180.072 129.601 182.685 131.633 183.483 132.65C184.281 133.666 185.224 135.191 184.862 136.425C184.644 137.223 182.975 138.602 181.741 138.239C180 137.804 176.661 136.352 176.661 136.352C176.661 136.352 179.274 137.586 179.927 138.022C180.435 138.312 181.378 139.474 180.362 140.272C179.346 141.071 178.113 140.708 176.299 140.562C174.484 140.345 170.493 139.474 170.493 139.474C170.493 139.474 169.332 135.481 169.332 134.319C169.405 130.907 169.405 129.746 169.405 129.746Z" fill="white"/>
<path d="M178.766 141.507C178.258 141.507 177.677 141.434 177.097 141.361C176.879 141.361 176.589 141.289 176.299 141.289C174.484 141.071 170.566 140.273 170.421 140.2C170.13 140.127 169.985 139.982 169.913 139.692C169.767 139.256 168.751 135.554 168.751 134.32V129.746C168.751 129.383 168.969 129.166 169.332 129.093C169.622 129.02 175.718 127.786 178.33 128.44C180.435 129.02 183.193 131.053 184.136 132.215C184.862 133.158 186.095 134.973 185.66 136.643C185.37 137.804 183.265 139.401 181.669 138.966C181.596 138.966 181.596 138.966 181.596 138.966C181.669 139.111 181.669 139.256 181.669 139.474C181.669 139.837 181.596 140.418 180.943 140.926C180.217 141.361 179.492 141.507 178.766 141.507ZM171.074 138.893C172.162 139.111 174.992 139.692 176.444 139.837C176.734 139.837 176.952 139.91 177.242 139.91C178.621 140.127 179.419 140.2 180 139.692C180.145 139.547 180.145 139.474 180.145 139.401C180.145 139.111 179.782 138.748 179.564 138.603C179.056 138.24 177.097 137.296 176.371 137.006C176.008 136.861 175.863 136.425 176.008 136.062C176.153 135.699 176.589 135.554 176.952 135.699C177.024 135.699 180.217 137.078 181.959 137.514C182.757 137.732 184.136 136.643 184.208 136.207C184.426 135.336 183.701 133.957 182.975 133.013C182.322 132.142 179.782 130.182 177.895 129.674C176.153 129.238 172.09 129.819 170.13 130.255V134.247C170.13 135.046 170.711 137.369 171.074 138.893Z" fill="black"/>
<path d="M159.1 127.785C159.1 127.785 162.801 128.801 165.704 128.729C168.607 128.729 169.768 128.438 169.768 128.438C169.768 128.438 169.405 131.415 170.058 135.407C170.421 137.876 171.147 140.562 171.219 140.997C171.219 140.997 163.962 142.812 160.261 144.554C156.198 146.514 151.989 150.217 150.537 152.612C148.651 155.734 149.231 158.565 150.392 160.235C151.553 161.977 153.222 161.977 156.706 161.977C158.447 161.977 160.915 163.719 160.915 163.719C159.971 164.3 158.447 165.461 156.706 167.131C154.964 168.873 150.973 171.124 146.982 172.866C143.934 174.173 130.363 178.311 122.961 179.182C117.809 179.762 105.182 180.343 101.771 179.762C98.9413 179.327 93.2084 178.02 90.3057 176.931C87.4756 175.77 86.895 174.1 86.895 174.1C86.895 174.1 94.9501 164.372 96.0386 162.63C97.1997 160.888 97.1997 159.218 96.6191 155.734C96.2563 153.483 94.8775 149.999 92.6279 146.587C88.9269 140.997 85.1534 138.021 82.9038 136.859C79.9285 135.335 74.4858 133.81 74.4858 133.81C74.4858 133.81 76.6629 130.544 77.1709 126.551C77.7514 122.558 77.316 117.767 77.316 117.767C77.316 117.767 86.9676 120.526 89.2172 121.397C92.0474 122.558 93.789 123.72 97.1997 124.228C99.9573 124.664 159.1 127.785 159.1 127.785Z" fill="#E6ECEC"/>
<path d="M106.633 180.707C104.456 180.707 102.569 180.634 101.553 180.489C98.5781 179.981 92.7727 178.747 89.9425 177.585C86.8221 176.351 86.0964 174.391 86.0964 174.319L85.9513 173.956L86.169 173.665C86.2415 173.593 94.1515 163.938 95.3126 162.268C96.256 160.816 96.4011 159.437 95.748 155.88C95.4577 153.92 94.224 150.58 91.8293 147.023C87.4026 140.417 83.4839 138.094 82.3954 137.514C79.4927 136.062 74.1226 134.537 74.0501 134.537L73.1067 134.247L73.6147 133.448C73.6147 133.448 75.6466 130.254 76.2271 126.479C76.8077 122.632 76.3723 117.913 76.3723 117.841L76.2997 116.824L77.3156 117.115C77.7511 117.187 85.0079 118.857 89.2894 120.744C90.0877 121.107 90.8133 121.398 91.4665 121.688C93.2081 122.487 94.732 123.067 97.1268 123.575C100.537 124.301 158.447 127.133 159.027 127.133H159.173C159.245 127.133 162.874 128.076 165.631 128.076C168.389 128.076 169.55 127.859 169.55 127.859L170.493 127.641L170.421 128.584C170.421 128.584 170.13 131.561 170.711 135.336C171.001 137.296 171.509 139.328 171.727 140.345C171.799 140.635 171.799 140.78 171.872 140.925L172.017 141.579L171.364 141.724C171.291 141.724 164.18 143.539 160.551 145.281C156.488 147.241 152.496 150.871 151.118 153.049C149.086 156.388 150.319 158.929 150.972 159.945C151.843 161.252 153.077 161.324 156.705 161.324C158.592 161.324 160.987 162.994 161.277 163.139L162.148 163.793L161.205 164.373C160.116 165.027 158.592 166.261 157.141 167.713C155.399 169.455 151.553 171.705 147.199 173.593C144.224 174.9 130.653 179.11 122.961 179.981C119.405 180.271 111.931 180.707 106.633 180.707ZM87.6203 174.174C87.9106 174.682 88.7089 175.553 90.4505 176.279C93.2081 177.368 98.7958 178.602 101.771 179.11C104.964 179.618 117.373 179.11 122.743 178.529C130.218 177.731 143.788 173.52 146.618 172.286C150.755 170.544 154.528 168.293 156.125 166.696C157.286 165.535 158.447 164.519 159.463 163.793C158.592 163.284 157.431 162.776 156.56 162.776C153.004 162.776 151.045 162.776 149.666 160.744C147.997 158.275 148.07 155.154 149.811 152.323C151.263 149.927 155.472 146.152 159.826 144.047C162.946 142.523 168.389 141.071 170.276 140.562C170.058 139.546 169.55 137.514 169.26 135.554C168.824 132.795 168.824 130.472 168.897 129.31C168.244 129.383 167.155 129.456 165.631 129.456C162.801 129.456 159.463 128.657 158.882 128.512C155.617 128.367 100.755 125.753 97.9976 125.245C95.3851 124.81 92.7001 123.721 90.8859 122.922C90.2328 122.632 89.5071 122.341 88.7089 121.978C86.9672 121.325 80.3635 119.365 77.8962 118.639C77.9688 120.309 78.1139 123.575 77.6785 126.552C77.2431 129.528 76.0094 132.069 75.3563 133.303C77.0254 133.811 80.7264 134.973 83.0485 136.134C84.2096 136.715 88.4186 139.183 93.063 146.08C95.5303 149.855 96.8365 153.412 97.1993 155.517C97.7799 159.001 97.7799 160.961 96.5462 162.921C95.5303 164.519 89.1443 172.359 87.6203 174.174Z" fill="black"/>
<path d="M114.616 171.051C113.818 171.051 113.02 171.051 112.222 171.051C100.538 170.76 95.5309 163.356 95.3132 162.993L96.4743 162.194C96.5469 162.267 101.264 169.308 112.222 169.599C124.05 169.889 133.92 168.002 138.564 165.969C145.53 162.848 149.885 159.799 149.885 159.726L150.683 160.888C150.465 161.033 146.184 164.082 139.144 167.276C133.92 169.599 124.268 171.051 114.616 171.051Z" fill="black"/>
<path d="M117.294 149.353L105.108 169.042L106.28 169.768L118.466 150.079L117.294 149.353Z" fill="black"/>
<path d="M119.561 150.552L107.382 169.645L108.545 170.387L120.723 151.294L119.561 150.552Z" fill="black"/>
<path d="M105.691 169.454C105.691 169.454 99.3772 179.182 97.6355 183.174C95.8939 187.167 95.3134 188.909 95.3134 188.909C95.3134 188.909 101.627 190.071 102.788 190.071C102.788 190.071 102.788 183.174 103.368 180.924C103.949 178.601 106.779 170.035 106.779 170.035L105.691 169.454Z" fill="#1C998F"/>
<path fill-rule="evenodd" clip-rule="evenodd" d="M105.459 168.559L107.605 169.704L107.425 170.248L106.779 170.034C107.425 170.248 107.425 170.248 107.425 170.248L107.425 170.248L107.393 170.344C107.372 170.407 107.342 170.5 107.302 170.619C107.224 170.858 107.111 171.201 106.974 171.62C106.7 172.459 106.329 173.601 105.939 174.815C105.156 177.256 104.312 179.954 104.028 181.088L104.028 181.091L104.027 181.093C103.759 182.133 103.613 184.339 103.54 186.365C103.504 187.361 103.486 188.288 103.477 188.966C103.472 189.305 103.47 189.582 103.469 189.773C103.469 189.869 103.468 189.944 103.468 189.994L103.468 190.051L103.468 190.07V190.751H102.787C102.439 190.751 101.774 190.669 101.033 190.562C100.27 190.452 99.3656 190.306 98.5018 190.16C97.6372 190.015 96.8094 189.869 96.198 189.76C95.8922 189.705 95.6404 189.66 95.4649 189.628C95.3772 189.612 95.3085 189.6 95.2618 189.591L95.1902 189.578C95.1901 189.578 95.1898 189.578 95.313 188.909C94.6674 188.694 94.6674 188.693 94.6674 188.693L94.6682 188.691L94.6698 188.686L94.6758 188.669C94.6809 188.654 94.6885 188.632 94.6986 188.603C94.7188 188.544 94.7492 188.458 94.791 188.343C94.8745 188.112 95.0034 187.764 95.1866 187.292C95.5531 186.348 96.1372 184.906 97.0114 182.902C97.9045 180.854 99.9446 177.383 101.736 174.461C102.636 172.991 103.482 171.647 104.102 170.671C104.412 170.183 104.667 169.786 104.843 169.511C104.931 169.374 105 169.267 105.047 169.194L105.119 169.083C105.119 169.083 105.119 169.083 105.69 169.453L105.119 169.083L105.459 168.559ZM105.923 170.349C105.752 170.614 105.523 170.972 105.251 171.401C104.633 172.373 103.792 173.71 102.896 175.172C101.095 178.111 99.1074 181.5 98.2589 183.446C97.3914 185.434 96.8145 186.859 96.4553 187.785C96.3661 188.015 96.2903 188.214 96.2268 188.383C96.2936 188.395 96.3638 188.407 96.4372 188.42C97.0458 188.529 97.869 188.674 98.7279 188.818C99.5875 188.963 100.479 189.107 101.227 189.215C101.566 189.264 101.864 189.304 102.112 189.333C102.113 189.216 102.114 189.087 102.116 188.948C102.125 188.263 102.144 187.325 102.18 186.316C102.252 184.332 102.397 181.968 102.708 180.756C103.006 179.566 103.866 176.821 104.643 174.4C105.034 173.182 105.406 172.038 105.681 171.198C105.788 170.869 105.881 170.587 105.953 170.365L105.923 170.349ZM95.313 188.909L94.6674 188.693L94.4199 189.436L95.1902 189.578L95.313 188.909Z" fill="black"/>
<path d="M108.593 170.034C108.593 170.034 108.012 173.446 108.012 176.931C108.012 179.834 109.173 184.408 109.173 184.408L103.44 183.827C103.44 183.827 103.44 182.956 103.44 182.666C103.586 180.923 104.311 177.802 104.602 176.931C105.182 175.188 106.924 170.034 106.924 170.034H108.593Z" fill="#1C998F"/>
<path d="M110.044 185.134L102.715 184.408V183.755C102.715 183.682 102.715 182.884 102.715 182.521C102.86 180.706 103.586 177.512 103.876 176.641L106.343 169.309H109.391L109.246 170.107C109.246 170.18 108.665 173.519 108.665 176.858C108.665 179.69 109.754 184.118 109.827 184.118L110.044 185.134ZM104.094 183.174L108.23 183.61C107.867 182.085 107.287 179.109 107.287 176.931C107.287 174.463 107.577 171.995 107.722 170.76H107.359L105.255 177.149C104.964 177.947 104.239 180.996 104.166 182.666C104.094 182.811 104.094 182.956 104.094 183.174Z" fill="black"/>
<path d="M99.3767 205.679C97.0545 205.679 93.1358 205.098 92.9907 205.098C92.6278 205.026 92.3376 204.663 92.4101 204.3C92.4827 203.937 92.8455 203.647 93.2084 203.719C93.2809 203.719 97.1996 204.3 99.3767 204.3C102.715 204.3 106.706 203.719 106.706 203.719C107.069 203.647 107.432 203.937 107.504 204.3C107.577 204.663 107.287 205.026 106.924 205.098C106.779 205.098 102.86 205.679 99.3767 205.679Z" fill="black"/>
<path d="M144.659 194.208C141.176 194.208 137.258 193.627 137.112 193.627C136.75 193.555 136.459 193.192 136.532 192.829C136.604 192.466 136.967 192.175 137.33 192.248C137.403 192.248 141.249 192.829 144.659 192.829C147.925 192.829 149.594 192.321 149.594 192.321C149.957 192.175 150.392 192.393 150.465 192.756C150.61 193.119 150.392 193.555 150.03 193.627C149.957 193.627 148.143 194.208 144.659 194.208Z" fill="black"/>
<path d="M155.544 101.361C155.544 101.361 156.197 99.7635 155.689 97.005C155.036 93.7382 153.077 88.947 153.367 85.8981C153.948 80.3809 158.157 78.6387 162.366 79.9454C166.575 81.252 172.453 84.3736 173.541 89.4552C174.049 91.8508 174.775 95.2627 174.267 97.8761C173.686 100.852 171.727 103.466 171.146 104.119C171.146 104.119 167.518 100.344 164.688 100.344C161.858 100.417 155.544 101.361 155.544 101.361Z" fill="#41A5A2"/>
<path d="M99.8846 124.374C99.8846 124.374 101.554 110.363 110.044 104.919C118.172 99.6919 123.977 100.127 132.613 100.926C141.394 101.725 147.997 103.467 152.642 108.476C157.721 113.92 158.955 117.986 159.898 122.051C161.277 128.076 159.681 133.593 158.52 135.771C157.794 137.078 151.843 139.256 150.174 139.909C145.312 141.869 125.864 141.506 116.793 138.748C107.795 135.989 101.481 133.884 100.247 130.617C99.0138 127.495 99.8846 124.374 99.8846 124.374Z" fill="#EDEFEF"/>
<path opacity="0.68" d="M168.97 100.199C168.97 100.199 171.655 96.2063 171.364 92.3589C171.074 89.0921 169.187 85.0269 169.187 85.0269C169.187 85.0269 171.945 87.9306 172.816 90.6892C173.759 93.8107 173.687 96.4241 172.743 98.8197C171.872 101.07 170.856 101.723 170.856 101.723C170.856 101.723 170.566 101.288 170.276 100.998C169.84 100.635 168.97 100.199 168.97 100.199Z" fill="white"/>
<path d="M110.262 96.3522C110.262 96.3522 110.48 94.247 110.988 92.1418C111.858 88.875 114.979 84.8098 115.269 81.7608C115.85 76.2437 111.786 74.0658 107.432 74.574C103.078 75.0822 96.6917 76.897 94.6598 81.6882C93.7164 83.9386 92.3376 87.1328 92.3376 89.8188C92.3376 92.8677 94.6598 96.1345 95.0952 96.8604C95.0952 96.8604 98.3608 93.3033 102.642 93.9566C105.327 94.3922 110.262 96.3522 110.262 96.3522Z" fill="#41A5A2"/>
<path d="M99.8119 128.367C99.8119 128.367 105.69 132.577 109.971 132.65C112.439 132.722 118.752 130.472 121.074 127.568C123.397 124.664 122.671 123.14 125.356 120.526C128.041 117.913 130.799 118.421 132.685 118.566C134.572 118.784 137.039 119.292 138.418 121.978C139.797 124.664 139.434 130.254 142.337 132.287C144.151 133.593 148.07 136.207 151.335 136.062C154.601 135.989 158.52 134.827 158.52 134.827C158.52 134.827 159.608 138.457 157.576 141.07C155.544 143.684 149.231 146.733 144.949 148.548C140.668 150.29 133.774 153.121 127.533 152.831C121.292 152.54 113.963 146.733 112.003 145.426C110.044 144.119 102.57 137.731 100.9 134.682C99.304 131.778 99.8119 128.367 99.8119 128.367Z" fill="#427C78"/>
<path d="M127.823 154.21C127.46 154.21 127.097 154.21 126.807 154.137C124.485 153.92 118.679 151.669 113.309 147.386C112.003 146.37 110.697 145.353 109.463 144.41C104.093 140.417 99.5215 136.932 99.0135 132.359C98.5055 127.35 99.3763 121.615 99.8117 118.494L99.9569 117.768C100.102 116.969 100.247 115.953 100.465 114.719C100.61 113.92 100.755 112.976 100.9 112.033L102.279 112.25C102.134 113.194 101.989 114.138 101.844 114.936C101.626 116.171 101.481 117.187 101.336 117.985L101.191 118.711C100.755 121.76 99.8843 127.35 100.392 132.214C100.828 136.207 105.182 139.473 110.262 143.321C111.568 144.265 112.874 145.281 114.18 146.297C119.478 150.508 125.065 152.613 126.952 152.758C128.912 152.903 134.862 152.395 140.958 149.709C142.482 149.056 144.006 148.402 145.457 147.822C151.335 145.426 156.415 143.321 157.794 139.546C158.519 137.513 159.608 129.165 160.551 118.203L161.93 118.348C161.204 127.205 160.043 137.513 159.1 140.127C157.503 144.482 152.133 146.66 145.965 149.201C144.514 149.782 142.99 150.435 141.466 151.088C136.096 153.411 130.653 154.21 127.823 154.21Z" fill="black"/>
<path d="M159.391 134.899C158.085 135.335 156.416 135.77 154.529 135.988C150.102 136.496 143.716 134.826 141.249 130.834C139.144 127.422 140.813 119.509 132.541 118.493C123.47 117.404 123.615 125.317 120.639 128.003C117.156 131.124 110.19 133.447 106.126 131.705C103.586 130.616 100.828 128.511 99.5221 127.494" stroke="black" stroke-width="2" stroke-miterlimit="10"/>
<path d="M161.205 126.405L160.406 121.614C160.406 121.542 159.318 115.153 156.778 110.507C154.746 106.805 150.61 103.756 150.61 103.683L149.013 102.522L151.045 102.449C151.19 102.449 154.238 102.304 154.964 99.6907C155.544 97.7307 154.746 95.2625 153.948 92.8669C153.585 91.778 153.222 90.6891 153.004 89.6727C152.641 87.8579 152.279 84.3734 154.02 81.9052C155.109 80.3807 156.778 79.5096 158.955 79.2192C164.18 78.5658 169.114 81.76 171.727 84.7363C174.702 88.0757 175.283 92.5765 175.428 94.9721C175.573 98.0211 174.92 100.707 171.437 104.99C170.276 106.442 169.114 107.676 168.099 108.765C166.067 110.943 164.47 112.685 163.599 115.008C162.22 118.565 161.858 121.687 161.785 121.687L161.205 126.405ZM152.641 103.466C154.093 104.7 156.56 107.023 158.012 109.781C159.535 112.467 160.479 115.661 161.059 118.057C161.35 116.968 161.713 115.734 162.22 114.355C163.236 111.741 164.978 109.854 167.01 107.676C168.026 106.587 169.114 105.353 170.276 103.974C173.831 99.6181 173.977 97.0773 173.904 94.8995C173.831 92.7217 173.251 88.5838 170.566 85.6075C167.953 82.7037 163.382 80.0177 158.955 80.5985C157.141 80.8163 155.762 81.5422 154.964 82.7037C153.512 84.7363 153.875 87.7853 154.165 89.3824C154.383 90.3261 154.673 91.3424 155.036 92.4313C155.834 94.8995 156.778 97.7307 156.125 100.126C155.617 102.159 153.948 103.103 152.641 103.466Z" fill="black"/>
<path d="M169.84 106.224C169.768 106.224 169.623 106.224 169.55 106.152C169.187 106.007 169.042 105.571 169.187 105.208C169.55 104.41 169.55 103.756 169.26 103.176C168.679 102.159 166.865 101.433 164.325 101.143C160.842 100.78 155.036 102.014 154.964 102.014C154.601 102.087 154.238 101.869 154.165 101.433C154.093 101.07 154.311 100.707 154.746 100.562C154.964 100.49 160.842 99.2554 164.543 99.691C166.72 99.9088 169.477 100.562 170.566 102.377C171.146 103.321 171.146 104.41 170.566 105.644C170.421 106.079 170.13 106.224 169.84 106.224Z" fill="black"/>
<path d="M151.553 103.902C151.408 103.902 151.335 103.902 151.19 103.829C146.183 101.07 139.579 99.1829 132.758 98.4569C126.009 97.8036 119.551 98.3118 114.108 99.9088C113.745 100.054 113.31 99.8362 113.237 99.4007C113.092 99.0377 113.31 98.6747 113.745 98.5295C119.405 96.8599 126.009 96.2791 132.976 97.0051C140.015 97.731 146.764 99.691 151.989 102.522C152.351 102.74 152.424 103.103 152.279 103.466C152.061 103.829 151.843 103.902 151.553 103.902Z" fill="black"/>
<path d="M99.8121 121.832L100.32 114.936C100.32 114.936 100.538 111.814 99.8846 108.039C99.4492 105.571 98.2156 103.538 96.6916 100.998C95.8934 99.7636 95.0226 98.3117 94.1517 96.6421C91.6118 91.7783 91.5393 88.9471 92.1924 86.0433C92.7729 83.7203 94.2243 79.4373 97.7801 76.7513C100.973 74.3557 106.416 72.1778 111.423 73.8475C113.527 74.5735 114.979 75.735 115.777 77.4046C117.011 80.1632 115.995 83.5025 115.269 85.2448C114.834 86.1885 114.326 87.1322 113.745 88.1485C112.511 90.3264 111.205 92.5768 111.35 94.682C111.568 97.4406 114.543 98.1665 114.616 98.1665L116.648 98.6747L114.689 99.4732C114.616 99.4732 110.044 101.506 107.141 104.918C103.078 109.709 101.626 115.008 101.554 115.081L99.8121 121.832ZM107.795 74.7186C104.456 74.7186 101.046 76.0979 98.651 77.9128C95.3854 80.3084 94.0792 84.3011 93.5712 86.4063C93.0632 88.5115 92.7729 91.0523 95.3854 95.9887C96.2562 97.5858 97.127 99.0377 97.8527 100.272C99.4492 102.813 100.755 105.063 101.263 107.749C101.481 109.056 101.626 110.217 101.699 111.233C102.642 109.201 104.094 106.587 106.198 104.047C108.303 101.578 111.133 99.8362 112.802 98.8925C111.641 98.2391 110.189 97.005 109.972 94.7546C109.754 92.2864 111.205 89.673 112.511 87.4226C113.092 86.4063 113.6 85.4626 113.963 84.664C114.616 83.1396 115.559 80.2358 114.543 77.9854C113.963 76.6787 112.802 75.735 111.06 75.1542C109.972 74.8638 108.883 74.7186 107.795 74.7186Z" fill="black"/>
<path d="M95.5305 98.3123C95.1677 98.3123 94.8774 98.0219 94.8049 97.7315C94.6597 96.7152 95.0226 95.7715 95.7482 95.0456C97.0545 93.7389 99.5944 93.0129 102.425 93.3033C106.198 93.6663 110.988 95.8441 111.205 95.9167C111.568 96.0619 111.713 96.4974 111.568 96.8604C111.423 97.2234 110.988 97.3686 110.625 97.2234C110.552 97.2234 105.835 95.0456 102.279 94.7552C99.8846 94.5374 97.7076 95.0456 96.7642 96.0619C96.3288 96.4974 96.1836 97.0056 96.2562 97.5864C96.3288 97.9493 96.0385 98.3123 95.6757 98.3849C95.6031 98.3123 95.5305 98.3123 95.5305 98.3123Z" fill="black"/>
<path opacity="0.68" d="M105.545 92.8672C105.545 92.8672 109.754 88.3663 111.858 83.9381C113.455 80.5262 112.802 77.5498 112.802 77.5498C112.802 77.5498 113.527 78.1306 113.963 79.5098C114.398 80.8891 114.253 82.7766 113.455 84.3011C111.641 87.6404 110.407 89.4552 109.899 90.6167C109.101 92.2864 109.101 94.0287 109.101 94.0287C109.101 94.0287 108.012 93.5931 107.649 93.4479C107.069 93.3027 105.545 92.8672 105.545 92.8672Z" fill="white"/>
<path d="M135.444 122.922C135.226 124.229 135.226 125.753 135.081 127.786C134.936 130.181 140.015 137.368 143.716 141.724C145.023 143.321 145.458 145.934 145.821 148.475C145.821 148.475 154.747 145.063 157.432 141.434C159.609 138.457 160.044 132.432 160.48 126.334C160.915 120.889 159.899 117.187 159.899 117.187C156.851 114.501 155.255 113.267 153.078 112.178C150.828 111.089 143.354 107.46 140.523 109.492C138.782 110.726 137.838 112.469 137.185 114.356C137.185 114.356 136.169 116.098 132.613 115.735C129.058 115.372 128.477 113.412 128.477 113.412C128.259 111.162 127.751 108.984 126.155 107.242C123.76 104.701 115.705 106.588 113.31 107.46C109.392 108.839 105.545 111.38 100.683 116.243C100.683 116.243 98.0709 129.601 99.4497 132.94C102.135 139.691 112.294 145.934 112.294 145.934C112.294 145.934 112.73 140.853 114.181 139.474C118.825 135.19 127.316 129.964 127.969 126.261C128.259 124.592 128.404 123.212 128.55 122.051C128.55 122.051 128.259 119.873 132.178 120.309C134.936 120.599 135.444 122.922 135.444 122.922Z" fill="#41A5A2"/>
<path d="M145.313 149.418L145.095 148.112C144.732 145.789 144.297 143.466 143.208 142.159C139.725 138.094 134.282 130.544 134.428 127.713L134.5 126.842C134.573 125.245 134.645 124.011 134.79 122.922C134.645 122.486 134.065 121.179 132.25 121.034C130.509 120.889 129.856 121.252 129.638 121.47C129.42 121.687 129.42 121.978 129.42 121.978V122.05V122.123C129.348 123.43 129.13 124.809 128.84 126.406C128.332 129.237 124.268 132.431 119.914 135.843C118.1 137.223 116.285 138.675 114.834 140.054C113.891 140.925 113.31 144.192 113.165 146.007L113.092 147.168L112.149 146.587C111.714 146.297 101.772 140.126 99.0142 133.303C97.6354 129.818 99.9576 117.55 100.248 116.17L100.32 115.953L100.466 115.807C105.183 111.089 109.101 108.33 113.383 106.878C115.56 106.152 124.195 103.902 126.953 106.878C128.912 108.911 129.348 111.379 129.493 113.412C129.565 113.63 130.219 114.936 132.976 115.154C135.734 115.444 136.677 114.355 136.822 114.138C137.621 111.742 138.709 110.145 140.378 108.984C142.555 107.459 146.982 108.403 153.658 111.67C155.908 112.831 157.577 114.065 160.625 116.751L160.77 116.896L160.842 117.114C160.915 117.259 161.858 120.962 161.423 126.479L161.35 126.914C160.842 133.085 160.407 138.892 158.157 141.941C155.4 145.644 146.619 149.055 146.256 149.201L145.313 149.418ZM131.452 119.582C131.742 119.582 132.033 119.582 132.396 119.655C135.443 119.945 136.169 122.631 136.169 122.776V122.922V123.067C136.024 124.156 135.951 125.462 135.879 127.059L135.806 127.931C135.734 129.891 140.088 136.497 144.224 141.361C145.53 142.885 145.966 145.281 146.401 147.604C148.651 146.66 154.819 143.901 156.851 141.143C158.883 138.384 159.318 132.504 159.754 126.842L159.826 126.406C160.189 121.833 159.536 118.493 159.318 117.695C156.488 115.227 154.964 113.993 152.86 112.976C144.805 108.984 141.975 109.564 141.031 110.218C139.652 111.234 138.709 112.613 137.983 114.791L137.911 114.936C137.838 115.009 136.677 117.041 132.613 116.679C128.549 116.316 127.896 113.92 127.896 113.847V113.702C127.679 111.089 127.026 109.346 125.719 107.967C123.76 105.935 116.358 107.386 113.6 108.33C109.609 109.709 105.836 112.323 101.409 116.824C100.683 120.671 99.1594 130.399 100.175 132.94C102.28 138.166 109.246 143.248 111.786 144.918C112.004 143.248 112.584 140.344 113.746 139.183C115.197 137.803 117.084 136.352 118.97 134.9C122.744 131.923 126.953 128.657 127.388 126.334C127.679 124.809 127.824 123.502 127.969 122.268C127.969 121.978 127.969 121.252 128.549 120.671C129.203 119.873 130.146 119.582 131.452 119.582Z" fill="black"/>
<path d="M123.496 125.456C125.101 120.119 122.544 114.632 117.785 113.2C113.026 111.767 107.867 114.932 106.262 120.269C104.657 125.605 107.214 131.093 111.973 132.525C116.732 133.957 121.891 130.792 123.496 125.456Z" fill="white"/>
<path d="M114.326 133.665C113.455 133.665 112.584 133.52 111.786 133.302C109.318 132.576 107.286 130.761 106.125 128.293C104.964 125.825 104.819 122.921 105.617 120.235C107.359 114.5 112.874 111.161 118.027 112.685C120.494 113.411 122.526 115.226 123.687 117.694C124.848 120.163 124.993 123.066 124.195 125.752C123.397 128.511 121.655 130.761 119.333 132.213C117.736 133.157 115.995 133.665 114.326 133.665ZM115.487 113.629C111.786 113.629 108.23 116.388 106.996 120.526C106.271 122.921 106.416 125.462 107.432 127.64C108.448 129.745 110.117 131.269 112.221 131.923C114.326 132.576 116.575 132.213 118.607 130.979C120.639 129.745 122.163 127.712 122.889 125.317C123.614 122.921 123.469 120.38 122.453 118.203C121.437 116.097 119.768 114.573 117.664 113.919C116.865 113.702 116.14 113.629 115.487 113.629Z" fill="black"/>
<path d="M121.536 124.889C122.76 120.82 120.797 116.631 117.151 115.534C113.505 114.436 109.557 116.846 108.333 120.915C107.109 124.985 109.072 129.174 112.718 130.271C116.365 131.368 120.312 128.959 121.536 124.889Z" fill="white"/>
<path d="M114.544 131.342C113.89 131.342 113.237 131.269 112.512 131.052C108.52 129.818 106.343 125.244 107.65 120.816C108.303 118.711 109.681 116.896 111.423 115.807C113.237 114.645 115.342 114.355 117.301 115.008C119.26 115.662 120.857 116.968 121.728 118.928C122.599 120.816 122.744 123.066 122.091 125.244C121.438 127.349 120.059 129.164 118.317 130.253C117.229 130.979 115.85 131.342 114.544 131.342ZM115.414 116.097C114.326 116.097 113.237 116.388 112.294 117.041C110.77 117.985 109.609 119.509 109.101 121.251C108.012 124.954 109.754 128.729 113.02 129.745C114.616 130.18 116.285 129.963 117.737 129.092C119.26 128.148 120.422 126.623 120.93 124.881C121.438 123.066 121.365 121.179 120.639 119.582C119.914 117.985 118.607 116.896 117.083 116.388C116.503 116.17 115.922 116.097 115.414 116.097Z" fill="black"/>
<path d="M117.613 123.584C117.967 121.979 117.08 120.419 115.632 120.099C114.184 119.78 112.723 120.822 112.369 122.427C112.015 124.032 112.902 125.593 114.35 125.912C115.798 126.232 117.259 125.189 117.613 123.584Z" fill="#1A1A1A"/>
<path d="M114.906 126.624C114.689 126.624 114.471 126.624 114.253 126.551C112.439 126.116 111.278 124.228 111.786 122.196C112.004 121.252 112.512 120.453 113.31 119.873C114.108 119.292 114.979 119.074 115.922 119.292C117.737 119.727 118.898 121.615 118.39 123.647C117.954 125.462 116.503 126.624 114.906 126.624ZM115.197 120.671C114.834 120.671 114.398 120.816 114.108 121.034C113.6 121.397 113.31 121.905 113.165 122.559C112.874 123.793 113.528 125.027 114.616 125.245C115.705 125.462 116.793 124.664 117.011 123.43C117.301 122.196 116.648 121.034 115.559 120.744C115.414 120.671 115.342 120.671 115.197 120.671Z" fill="black"/>
<path d="M148.594 136.486C153.557 136.23 157.348 131.51 157.06 125.945C156.773 120.379 152.516 116.075 147.553 116.331C142.59 116.588 138.799 121.308 139.087 126.873C139.374 132.439 143.631 136.743 148.594 136.486Z" fill="white"/>
<path d="M148.143 137.15C145.675 137.15 143.353 136.134 141.539 134.319C139.652 132.359 138.491 129.745 138.346 126.841C138.056 120.889 142.119 115.807 147.49 115.517C152.86 115.226 157.431 119.872 157.722 125.825C158.012 131.778 153.948 136.859 148.578 137.15C148.505 137.15 148.36 137.15 148.143 137.15ZM147.998 116.969C147.852 116.969 147.707 116.969 147.635 116.969C143.063 117.186 139.58 121.615 139.797 126.769C139.942 129.31 140.958 131.633 142.627 133.302C144.297 134.972 146.401 135.843 148.578 135.698C153.15 135.48 156.633 131.052 156.415 125.898C156.125 120.889 152.352 116.969 147.998 116.969Z" fill="black"/>
<path d="M148.467 134.023C152.189 133.83 155.031 130.266 154.814 126.062C154.597 121.858 151.403 118.605 147.681 118.798C143.958 118.99 141.117 122.554 141.334 126.758C141.551 130.963 144.744 134.215 148.467 134.023Z" fill="white"/>
<path d="M148.215 134.682C144.224 134.682 140.886 131.197 140.668 126.769C140.523 124.591 141.249 122.486 142.555 120.816C143.861 119.147 145.748 118.203 147.707 118.058C151.844 117.84 155.327 121.397 155.617 125.971C155.762 128.148 155.037 130.254 153.73 131.923C152.424 133.593 150.537 134.537 148.578 134.682C148.433 134.682 148.288 134.682 148.215 134.682ZM147.997 119.51C147.925 119.51 147.78 119.51 147.707 119.51C146.111 119.582 144.659 120.381 143.571 121.688C142.482 123.067 141.902 124.809 142.047 126.697C142.265 130.471 145.095 133.448 148.433 133.23C150.029 133.157 151.481 132.359 152.569 131.052C153.658 129.673 154.238 127.931 154.093 126.043C153.948 122.413 151.263 119.51 147.997 119.51Z" fill="black"/>
<path d="M148.155 129.818C149.636 129.742 150.767 128.349 150.683 126.707C150.598 125.065 149.329 123.797 147.848 123.873C146.367 123.95 145.235 125.343 145.32 126.984C145.404 128.626 146.674 129.895 148.155 129.818Z" fill="#1A1A1A"/>
<path d="M147.997 130.543C146.183 130.543 144.659 129.018 144.587 126.986C144.514 124.953 145.893 123.211 147.78 123.138C149.666 123.066 151.263 124.663 151.336 126.695C151.408 128.728 150.029 130.47 148.143 130.543C148.143 130.543 148.07 130.543 147.997 130.543ZM147.925 124.517H147.852C146.764 124.59 145.966 125.679 145.966 126.913C146.038 128.147 146.981 129.163 148.07 129.091C149.159 129.018 149.957 127.929 149.957 126.695C149.884 125.534 149.013 124.517 147.925 124.517Z" fill="black"/>
<path d="M100.683 116.896C100.683 116.896 98.9413 115.226 95.8209 109.927C93.8616 106.587 93.1359 103.175 93.1359 103.175L88.2738 107.531C88.2738 107.531 93.4987 113.774 95.0226 115.153C97.4174 117.259 100.393 118.856 100.393 118.856L100.683 116.896Z" fill="#41A5A2"/>
<path d="M100.393 119.51C100.248 119.51 100.175 119.51 100.03 119.437C99.8848 119.364 96.9821 117.84 94.5147 115.662C92.9182 114.283 87.8385 108.258 87.6208 107.967C87.4031 107.677 87.4031 107.241 87.6933 107.023L92.5554 102.668C92.7731 102.523 92.9908 102.45 93.2085 102.523C93.4262 102.595 93.6439 102.813 93.7165 103.031C93.7165 103.103 94.5147 106.37 96.3289 109.564C99.3042 114.718 101.046 116.315 101.046 116.388C101.191 116.533 101.264 116.751 101.264 116.969L100.973 118.929C100.901 119.147 100.828 119.364 100.61 119.437C100.61 119.51 100.465 119.51 100.393 119.51ZM89.1447 107.604C90.4509 109.129 94.1519 113.557 95.3856 114.646C96.9095 116.025 98.7237 117.114 99.7396 117.767L99.8122 117.187C99.2317 116.533 97.5626 114.573 95.0953 110.363C93.7891 108.112 92.9908 105.862 92.628 104.555L89.1447 107.604Z" fill="black"/>
<path d="M86.9674 105.862C85.2257 103.248 84.3549 100.853 82.831 95.1904L70.4944 99.4009C70.4944 99.4009 72.5989 107.459 78.7672 112.105C82.9761 115.299 87.3302 117.404 89.5073 118.348C93.0631 119.872 100.03 120.889 100.03 120.889L100.465 118.784C100.465 118.784 96.9092 116.751 93.1357 113.194C90.5958 110.943 88.1285 107.677 86.9674 105.862Z" fill="#41A5A2"/>
<path d="M99.9572 121.615C99.8847 121.615 99.8847 121.615 99.8121 121.615C99.5218 121.542 92.7004 120.526 89.1446 119.002C87.8384 118.421 83.0489 116.316 78.2594 112.686C72.0185 107.967 69.8414 99.982 69.7689 99.619C69.6963 99.256 69.8414 98.8931 70.2043 98.7479L82.5409 94.5374C82.7586 94.4648 82.9037 94.4648 83.1214 94.61C83.2666 94.6826 83.4117 94.8278 83.4843 95.0456C85.0808 100.926 85.879 103.031 87.4755 105.499C88.8543 107.532 91.1765 110.653 93.4261 112.686C97.1271 116.098 100.61 118.203 100.683 118.203C100.973 118.348 101.118 118.639 101.046 118.929L100.61 121.034C100.538 121.397 100.248 121.615 99.9572 121.615ZM71.3654 99.9094C72.0185 101.869 74.2681 107.895 79.1302 111.597C83.7745 115.082 88.4189 117.187 89.7251 117.695C92.4827 118.856 97.5625 119.8 99.3767 120.091L99.5944 119.147C98.5059 118.493 95.6032 116.606 92.5553 113.702C89.58 110.944 86.895 107.024 86.387 106.225C84.5728 103.539 83.702 100.998 82.3957 96.0619L71.3654 99.9094Z" fill="black"/>
</g>
<defs>
<filter id="filter0_d_648_10264" x="39.7507" y="53.2598" width="176" height="206.501" filterUnits="userSpaceOnUse" color-interpolation-filters="sRGB">
<feFlood flood-opacity="0" result="BackgroundImageFix"/>
<feColorMatrix in="SourceAlpha" type="matrix" values="0 0 0 0 0 0 0 0 0 0 0 0 0 0 0 0 0 0 127 0" result="hardAlpha"/>
<feOffset dy="10"/>
<feGaussianBlur stdDeviation="15"/>
<feComposite in2="hardAlpha" operator="out"/>
<feColorMatrix type="matrix" values="0 0 0 0 0.101754 0 0 0 0 0.290587 0 0 0 0 0.376953 0 0 0 0.3 0"/>
<feBlend mode="normal" in2="BackgroundImageFix" result="effect1_dropShadow_648_10264"/>
<feBlend mode="normal" in="SourceGraphic" in2="effect1_dropShadow_648_10264" result="shape"/>
</filter>
</defs>
</svg>
