<svg width="193" height="106" viewBox="0 0 193 106" fill="none" xmlns="http://www.w3.org/2000/svg">
<g clip-path="url(#clip0_109_33246)">
<g clip-path="url(#clip1_109_33246)">
<path d="M31.6854 87.5898C31.6854 87.5898 20.3218 87.5898 13.258 98.2565C8.49757 105.487 3.9419 127.692 4.96565 129.282C5.47752 130.051 8.34401 132.41 11.9271 133.898C15.715 135.436 19.4517 135.692 20.4754 135.18C22.4717 134.205 20.4754 122.154 21.0385 115.18C21.7551 106.615 24.468 101.231 29.382 98.3078" fill="#66A3B2"/>
<path d="M18.837 136.205C16.943 136.205 14.2301 135.692 11.6196 134.615C7.8317 133.077 4.91402 130.615 4.29977 129.692C2.9689 127.538 7.98526 104.872 12.6433 97.7947C19.8607 86.9229 31.2243 86.8203 31.685 86.8203V88.3588C31.5826 88.3588 20.6285 88.5126 13.923 98.6665C9.11138 105.949 5.06758 127.077 5.63064 128.923C6.04014 129.487 8.59951 131.743 12.1826 133.231C15.9193 134.769 19.4 134.923 20.1167 134.564C20.8333 134 20.5773 128.666 20.3726 125.179C20.219 121.692 20.0143 118.051 20.2702 115.179C21.038 106.359 23.8021 100.82 29.0233 97.6921L29.7911 99.0254C25.0306 101.846 22.4713 107.025 21.8058 115.333C21.5499 118.102 21.7547 121.692 21.9082 125.128C22.2665 131.743 22.3689 135.179 20.7821 136C20.3726 136.102 19.656 136.205 18.837 136.205Z" fill="black"/>
<path d="M156.172 66.4611C155.097 65.0252 152.487 65.0765 150.797 67.0252C144.45 74.1534 132.012 114.718 128.48 120.512C124.282 127.384 116.092 132.923 107.237 135.384C98.3816 137.846 97.0507 137.384 95.0544 143.589C93.0581 149.794 92.495 173.743 91.5225 175.435C90.8058 176.718 81.8992 176.769 81.3874 175.743C80.0565 173.128 79.8006 143.589 76.9853 139.538C75.0401 136.666 71.1499 138.461 64.7515 137.333C58.3531 136.205 55.1794 132.461 51.238 133.333C47.7573 134.102 44.8396 141.333 43.2528 145.077C39.8232 153.077 38.4924 169.077 37.7246 171.948C37.5198 172.718 34.295 173.487 31.1214 173.435C27.743 173.384 24.9277 172.82 24.9277 171.897C25.0301 167.282 25.0301 156.461 29.0227 145.179C33.0153 133.846 35.2676 126.051 34.1415 120.051C33.0153 114.051 27.9478 104.769 29.6882 94.9739C31.4285 85.1791 35.2164 80.1022 35.2164 80.1022C35.2164 80.1022 42.7409 69.4355 54.9235 68.1022C67.1061 66.7688 105.087 68.1022 105.087 68.1022C105.087 68.1022 119.164 66.974 125.767 55.897C133.598 42.7175 138.768 31.6919 138.768 31.6919C138.768 31.6919 135.032 23.1278 135.339 15.897C135.646 8.66627 140.048 3.64062 140.048 3.64062C140.048 3.64062 145.474 6.35857 148.596 12.4611C150.593 16.4099 153.203 12.0509 161.342 13.3842C169.481 14.7175 169.686 16.7175 172.706 15.5381C175.214 14.5637 177.415 7.33293 182.226 6.82011C182.226 6.82011 190.365 15.2304 186.014 28.5124C186.014 28.5124 188.881 37.8458 189.751 44.7688C191.389 57.5381 189.29 68.256 186.373 73.7432C185.298 75.7945 184.018 76.9227 182.943 77.5893C180.435 79.1278 176.289 80.0509 171.119 78.5124C166.87 77.2816 161.751 73.897 156.172 66.4611Z" fill="white"/>
<path d="M85.944 177.179C85.7393 177.179 85.5345 177.179 85.3809 177.179C81.286 177.128 80.9277 176.359 80.7741 176.051C80.211 174.923 79.9039 170.564 79.392 162.923C78.829 154.153 78.01 142.153 76.4743 139.897C75.553 138.512 74.0685 138.461 71.1509 138.461C69.4105 138.461 67.2606 138.461 64.7524 138C61.7324 137.487 59.429 136.41 57.4327 135.435C55.1804 134.41 53.44 133.538 51.5461 133.948C48.6284 134.564 45.8643 141.128 44.3799 144.666L44.124 145.23C41.7693 150.82 40.3873 160.307 39.5171 166.564C39.1588 169.23 38.8517 171.128 38.6469 172C38.1862 173.641 33.477 174.102 31.2759 174.051C29.2796 174 25.7989 173.794 24.724 172.666C24.3656 172.307 24.3145 171.948 24.3145 171.692V170.666C24.4168 165.692 24.6728 155.384 28.4094 144.718C32.5044 133.076 34.5519 125.692 33.477 120C33.1699 118.307 32.5044 116.256 31.7878 114.051C29.9962 108.564 27.7952 101.743 29.0749 94.6662C30.8664 84.8201 34.6031 79.6919 34.7567 79.4867C35.0638 79.0765 42.5883 68.5637 54.9757 67.179C66.8511 65.897 103.655 67.1278 105.19 67.179C106.009 67.0765 119.062 65.6406 125.205 55.3329C132.217 43.538 137.131 33.3842 138.002 31.538C137.285 29.897 134.367 22.3585 134.623 15.7431C134.93 8.30724 139.332 3.23032 139.537 2.97391C139.793 2.7175 140.151 2.61493 140.459 2.82006C140.714 2.92262 146.14 5.74314 149.314 11.9995C150.082 13.538 150.645 13.4354 152.999 12.9226C154.945 12.4611 157.606 11.8457 161.497 12.5124C165.284 13.1278 167.434 13.897 168.867 14.4098C170.505 15.0252 171.12 15.2303 172.502 14.6662C173.27 14.3585 174.14 13.0765 175.112 11.6919C176.802 9.23032 178.951 6.20468 182.227 5.8457C182.483 5.8457 182.688 5.89698 182.842 6.05083C182.944 6.15339 191.185 14.8201 186.885 28.3072C187.346 29.7944 189.803 38.1534 190.622 44.4611C192.362 58.0508 189.854 68.8201 187.193 73.897C186.22 75.6919 184.992 77.1278 183.507 78.0508C181.971 79.0252 177.672 81.0252 171.069 79.0765C165.847 77.538 160.678 73.3329 155.661 66.6662C155.354 66.256 154.842 65.9995 154.228 65.9995C153.255 65.9483 152.232 66.4611 151.464 67.2816C147.625 71.5893 141.431 88.6662 136.415 102.461C133.19 111.384 130.631 118.41 129.248 120.666C125.051 127.487 116.759 133.333 107.545 135.846C106.47 136.153 105.498 136.41 104.627 136.615C98.4849 138.256 97.5123 138.461 95.9255 143.538C94.7994 147.025 94.134 156.564 93.5709 164.205C93.0079 171.794 92.8031 174.717 92.3424 175.538C91.5234 177.025 87.9403 177.179 85.944 177.179ZM82.0538 175.282C83.2823 175.897 89.9878 175.692 90.9092 175.025C91.2163 174.205 91.6258 168.974 91.9329 164.359C92.496 156.615 93.1614 147.025 94.3387 143.333C96.2327 137.487 97.7171 137.076 104.116 135.384C104.986 135.179 105.958 134.923 107.033 134.615C115.889 132.153 123.874 126.615 127.866 120.102C129.197 117.948 131.859 110.666 134.93 102.153C139.998 88.256 146.243 70.9739 150.286 66.5124C151.361 65.3329 152.795 64.6662 154.228 64.7175C155.303 64.7688 156.275 65.2303 156.838 65.9995C161.65 72.4098 166.564 76.4098 171.478 77.8457C177.467 79.6406 181.306 77.8457 182.688 76.9739C183.968 76.2047 185.043 74.9739 185.862 73.4354C188.421 68.5637 190.827 58.1534 189.138 44.8713C188.267 38.1021 185.452 28.8201 185.401 28.7688C185.35 28.6149 185.35 28.4611 185.401 28.3072C189.138 16.8201 183.405 9.23032 182.023 7.69185C179.617 8.15339 177.876 10.6149 176.392 12.8201C175.266 14.4611 174.293 15.8457 173.065 16.3072C171.171 17.0765 170.096 16.6662 168.356 16.0508C166.922 15.538 164.926 14.8201 161.292 14.2047C157.709 13.5893 155.2 14.2047 153.409 14.6149C151.259 15.1278 149.365 15.538 148.034 12.8713C145.628 8.15339 141.789 5.53801 140.407 4.66621C139.332 6.05083 136.466 10.3585 136.261 15.9995C135.954 22.9739 139.588 31.3842 139.64 31.4354C139.742 31.6406 139.742 31.8457 139.64 32.0508C139.588 32.1534 134.418 43.2816 126.638 56.3072C119.932 67.5893 105.958 68.8201 105.395 68.8713C105.344 68.8713 105.344 68.8713 105.293 68.8713C104.935 68.8713 67.2094 67.538 55.2316 68.8713C43.5097 70.1534 36.1387 80.4098 36.0875 80.5124C36.0364 80.5637 32.4021 85.6406 30.6617 95.0765C29.4332 101.794 31.5831 108.41 33.3234 113.743C34.04 115.948 34.7567 118.102 35.0638 119.897C36.1899 125.897 34.0912 133.487 29.8939 145.384C26.2084 155.794 26.0036 165.948 25.9013 170.871V171.794C26.2596 172.102 27.8976 172.615 31.3271 172.666C34.296 172.718 36.753 172.051 37.2137 171.641C37.4184 170.82 37.6743 168.871 38.0327 166.461C38.954 160.102 40.2849 150.512 42.7419 144.718L42.9978 144.153C45.3013 138.666 47.8606 133.282 51.2902 132.512C53.6448 132 55.7435 132.974 58.1493 134.102C60.0944 135.025 62.2443 136.051 65.1108 136.512C67.5166 136.923 69.5129 136.923 71.2532 136.923C74.1197 136.923 76.4232 136.923 77.8564 139.025C79.4944 141.435 80.2622 150.82 81.0812 162.82C81.2348 168.359 81.6443 174.102 82.0538 175.282Z" fill="black"/>
<g opacity="0.45">
<path d="M125.664 123.538C125.869 121.846 126.125 119.59 123.668 116.667C120.443 112.82 122.9 106.974 121.262 109.333C119.624 111.692 121.109 114.051 119.982 114.051C118.856 114.102 118.908 112.923 118.703 107.795C118.498 102.667 116.86 99.7948 116.809 100.564C116.758 101.333 117.167 103.077 115.529 107.077C113.891 111.026 113.942 115.026 116.195 117.692C118.447 120.308 117.935 124 117.679 127.179C117.577 128.513 117.372 129.743 116.809 130.82C116.809 130.82 119.215 129.282 120.75 128.205C123.207 126.308 125.664 123.538 125.664 123.538Z" fill="#9BC8D3"/>
<path d="M75.3988 137.641C74.3238 137.179 72.0716 137.179 72.0716 137.179C71.2014 133.897 70.2289 130.872 70.1265 128.82C69.9729 125.128 70.1777 121.179 72.1228 118.82C74.0679 116.462 71.8157 125.282 75.3988 126.718C78.9819 128.103 79.8009 126.872 79.9033 124.615C80.0056 122.359 79.3914 118.718 77.907 115.59C76.4225 112.513 76.2178 109.231 77.5998 105.487C78.9819 101.795 80.6711 100.103 80.6711 100.103C80.6711 100.103 78.9307 103.897 80.6711 108.359C82.4114 112.82 83.7935 113.949 84.5613 118.359C85.3291 122.769 86.1481 117.692 86.3017 115.59C86.5064 113.487 85.4315 111.538 85.4315 111.538C85.4315 111.538 87.9397 111.385 88.0932 115.436C88.2468 119.487 87.1719 123.179 87.479 128.103C87.7861 132.974 88.0421 135.282 89.8848 136.769C91.7275 138.256 89.7312 131.744 92.393 126.974C95.0547 122.205 92.0858 130.667 95.669 136.103C96.1808 136.923 96.7439 137.179 97.7165 137.897C97.7165 137.897 97.1022 138.41 96.9486 138.564C96.7951 138.718 96.3856 139.231 96.3856 139.231C94.3381 140 90.3455 140.564 86.0969 140.718C83.384 140.82 77.8046 139.897 77.8046 139.897C77.1903 138.564 76.269 138 75.3988 137.641Z" fill="#9BC8D3"/>
<path d="M46.3756 137.384C46.478 135.795 44.2769 131.025 42.3318 128.923C39.3629 125.641 39.3629 119.025 41.2057 116.307C43.0484 113.589 46.3244 106.461 46.0685 104.769C45.8125 103.077 44.5329 101.23 44.5329 101.23C44.5329 101.23 48.0136 102.615 48.935 105.948C49.8563 109.23 46.0173 115.538 47.7065 120.359C49.3957 125.128 53.2347 129.025 54.1049 131.179C54.4632 132.051 54.5144 132.307 54.6168 133.025C54.6168 133.025 52.8252 132.256 50.8801 132.872C50.2658 133.077 49.7028 133.436 49.0885 133.948C48.7302 134.256 48.0648 134.923 47.6041 135.589C46.9387 136.461 46.3756 137.384 46.3756 137.384Z" fill="#9BC8D3"/>
<path d="M83.8439 104.821C83.8439 104.821 82.6666 102.513 83.0249 100.615C83.3832 98.7692 85.1748 96 85.1748 96C85.1748 96 86.4033 98.3077 86.0449 101.179C85.7378 104.051 83.8439 104.821 83.8439 104.821Z" fill="#9BC8D3"/>
<path d="M101.3 130.667C101.3 130.667 99.4573 128.205 99.3549 125.231C99.2525 122.257 100.02 118.051 100.942 115.487C101.863 112.974 100.02 118.872 101.607 119.641C103.194 120.41 104.781 113.795 104.883 111.949C104.985 110.103 105.804 105.333 105.446 104.564C105.088 103.795 108.159 108 108.466 112.359C108.773 116.718 107.75 120.359 106.623 122.769C105.446 125.282 101.3 130.667 101.3 130.667Z" fill="#9BC8D3"/>
</g>
<path d="M183.608 69.4361C183.352 69.4361 183.148 69.3335 182.994 69.231C182.431 68.8207 182.278 67.9489 182.431 67.2822C182.585 66.4617 182.892 65.5899 183.711 64.872C184.12 64.513 184.581 64.4617 184.99 64.6669C185.502 64.9233 185.758 65.6412 185.656 66.5643C185.502 67.8976 185.093 68.7181 184.325 69.1797C184.069 69.3848 183.813 69.4361 183.608 69.4361ZM184.53 65.5899C184.53 65.5899 184.479 65.5899 184.376 65.6925C183.813 66.154 183.608 66.7181 183.404 67.4874C183.301 67.8976 183.455 68.3079 183.557 68.4104C183.557 68.4104 183.66 68.4104 183.762 68.3592C184.069 68.154 184.479 67.7951 184.581 66.513C184.735 65.8976 184.581 65.6412 184.53 65.5899Z" fill="black"/>
<path d="M155.603 43.6617C157.936 43.413 159.602 41.088 159.324 38.4688C159.046 35.8496 156.929 33.9279 154.596 34.1766C152.263 34.4253 150.597 36.7503 150.875 39.3695C151.153 41.9887 153.27 43.9104 155.603 43.6617Z" fill="white"/>
<path d="M155.199 44.4614C154.022 44.4614 152.896 43.9999 151.974 43.1794C150.95 42.2563 150.285 40.923 150.131 39.4358C149.824 36.4102 151.769 33.6922 154.534 33.3845C155.864 33.2307 157.195 33.6922 158.27 34.6666C159.294 35.5896 159.959 36.923 160.113 38.4102C160.42 41.4358 158.475 44.1537 155.711 44.4614C155.506 44.4614 155.353 44.4614 155.199 44.4614ZM154.994 34.923C154.892 34.923 154.79 34.923 154.687 34.923C152.793 35.1281 151.411 37.0768 151.616 39.282C151.718 40.3589 152.23 41.3332 152.947 41.9999C153.663 42.6666 154.585 42.9743 155.506 42.8717C157.4 42.6666 158.782 40.7179 158.577 38.5127C158.475 37.4358 157.963 36.4614 157.247 35.7948C156.581 35.2307 155.813 34.923 154.994 34.923Z" fill="black"/>
<path d="M155.248 41.0614C156.176 40.9625 156.838 40.0376 156.728 38.9955C156.617 37.9535 155.775 37.1889 154.848 37.2878C153.92 37.3866 153.258 38.3116 153.368 39.3536C153.479 40.3957 154.321 41.1603 155.248 41.0614Z" fill="#1A1A1A"/>
<path d="M155.097 41.8465C153.869 41.8465 152.743 40.8208 152.64 39.4362C152.589 38.7696 152.743 38.0516 153.152 37.5388C153.562 36.9747 154.176 36.6157 154.841 36.5644C156.172 36.4106 157.401 37.4875 157.554 38.9747C157.606 39.6414 157.452 40.3593 157.042 40.8721C156.633 41.4362 156.019 41.7952 155.353 41.8465C155.251 41.8465 155.149 41.8465 155.097 41.8465ZM154.995 38.0516C154.944 38.0516 154.944 38.0516 154.893 38.0516C154.688 38.0516 154.483 38.2055 154.33 38.4106C154.176 38.667 154.074 38.9747 154.125 39.2824C154.176 39.8978 154.637 40.3593 155.149 40.308C155.353 40.308 155.558 40.1542 155.712 39.949C155.865 39.6926 155.968 39.3849 155.916 39.0773C155.865 38.5131 155.456 38.0516 154.995 38.0516Z" fill="black"/>
<path d="M155.097 66.1537C154.892 66.1537 154.688 66.0512 154.534 65.8973C154.329 65.6922 149.979 60.923 144.706 50.205C140.611 41.8973 138.103 32.0512 138.052 31.9486C137.949 31.5384 138.205 31.1281 138.615 31.0255C139.024 30.923 139.434 31.1794 139.536 31.5896C139.536 31.6922 142.044 41.3845 146.037 49.5384C151.207 59.9999 155.558 64.8204 155.609 64.8717C155.916 65.1794 155.865 65.6922 155.558 65.9486C155.456 66.0512 155.302 66.1537 155.097 66.1537Z" fill="black"/>
<path d="M155.098 65.0771C155.098 65.0771 160.524 60.1028 164.209 58.1028C168.867 55.5899 177.364 53.1797 185.554 54.872C187.55 55.2822 190.315 56.7181 190.315 56.7181L190.059 60.2053C190.059 60.2053 185.81 58.6156 183.148 58.2053C179.412 57.5899 174.395 58.0002 169.891 59.6412C162.776 62.2566 157.299 67.8976 157.299 67.8976L155.098 65.0771Z" fill="#9BC8D3"/>
<path d="M157.299 69.0771L154.074 65.0259L154.586 64.5643C154.791 64.3592 160.166 59.4874 163.851 57.4874C168.663 54.872 177.313 52.4105 185.759 54.2053C187.858 54.6669 190.622 56.0515 190.724 56.1028L191.185 56.3592L190.827 61.3335L189.854 60.9746C189.803 60.9746 185.657 59.4361 183.097 58.9746C179.207 58.3592 174.293 58.872 170.249 60.4105C163.39 62.9233 157.964 68.4618 157.913 68.513L157.299 69.0771ZM156.173 65.1797L157.453 66.7694C159.091 65.231 163.851 61.0771 169.738 58.9233C174.037 57.3336 179.258 56.7694 183.405 57.4361C185.35 57.7438 188.063 58.6669 189.496 59.1284L189.649 57.1797C188.779 56.7694 186.936 55.9489 185.503 55.6412C177.467 53.9489 169.226 56.2566 164.67 58.7694C161.701 60.3592 157.606 63.8977 156.173 65.1797Z" fill="black"/>
<path d="M154.843 65.1797C154.843 65.1797 146.243 78.4105 137.439 80.5643C118.193 85.231 105.6 70.2053 102.785 68.0515L96.3867 67.8976C100.635 71.6925 116.094 88.8207 137.439 84.8207C147.318 82.9746 157.351 67.8976 157.351 67.8976L154.843 65.1797Z" fill="#9BC8D3"/>
<path d="M131.04 86.2056C114.506 86.2056 102.221 74.5133 97.256 69.7954C96.6929 69.2825 96.2322 68.821 95.8739 68.5133L94.2871 67.1287L103.04 67.3851L103.245 67.5389C103.603 67.8466 104.166 68.3082 104.832 68.9235C109.183 73.0261 120.802 83.8979 137.233 79.8979C145.679 77.8466 154.125 64.9748 154.176 64.8723L154.739 64.0518L158.322 67.9492L157.964 68.462C157.555 69.0774 147.624 83.7954 137.54 85.6928C135.339 86.0005 133.138 86.2056 131.04 86.2056ZM98.3821 68.7184C103.91 73.9492 118.345 87.6415 137.284 84.103C145.782 82.5133 154.535 70.6159 156.377 68.0005L154.944 66.462C152.897 69.4364 145.423 79.4364 137.592 81.3338C120.341 85.5389 108.312 74.2569 103.757 70.0005C103.245 69.5389 102.784 69.1287 102.477 68.821L98.3821 68.7184Z" fill="black"/>
<path d="M173.833 54.8714C173.833 54.8714 173.065 41.0253 169.021 29.7945C166.872 23.7945 161.395 13.5381 161.395 13.5381L165.694 14.5637C165.694 14.5637 169.226 20.9227 170.506 23.8458C173.27 30.2048 174.959 39.0765 175.983 44.256C176.495 46.7689 177.774 54.3586 177.774 54.3586L173.833 54.8714Z" fill="#9BC8D3"/>
<path d="M173.116 55.7435L173.065 54.923C173.065 54.7691 172.246 41.0255 168.305 30.0512C166.206 24.1537 160.78 13.9999 160.729 13.8973L159.91 12.4102L166.206 13.8973L166.36 14.205C166.513 14.4614 169.943 20.6153 171.223 23.5896C173.935 29.8973 175.676 38.6666 176.7 43.8973L176.751 44.205C177.263 46.7178 178.542 54.2563 178.542 54.3076L178.696 55.1281L173.116 55.7435ZM162.879 14.6666C164.466 17.7435 168.1 24.8204 169.789 29.5384C173.219 39.1794 174.345 50.8717 174.55 53.9999L176.853 53.7435C176.495 51.7435 175.573 46.4614 175.215 44.4614L175.164 44.1537C174.14 38.9743 172.451 30.3589 169.789 24.1537C168.714 21.6409 165.899 16.5127 165.182 15.2307L162.879 14.6666Z" fill="black"/>
<path d="M191.527 37.0771C191.806 34.4579 190.14 32.1329 187.806 31.8842C185.473 31.6355 183.356 33.5572 183.078 36.1764C182.8 38.7957 184.466 41.1206 186.799 41.3693C189.132 41.618 191.249 39.6963 191.527 37.0771Z" fill="white"/>
<path d="M187.192 42.2051C187.038 42.2051 186.885 42.2051 186.68 42.1538C183.916 41.8461 181.92 39.1282 182.278 36.1025C182.432 34.6666 183.097 33.3333 184.121 32.359C185.196 31.3846 186.526 30.9231 187.857 31.0769C190.621 31.3846 192.618 34.1025 192.259 37.1282C192.106 38.5641 191.44 39.8974 190.417 40.8718C189.495 41.7436 188.369 42.2051 187.192 42.2051ZM183.814 36.2564C183.558 38.4615 184.94 40.4102 186.885 40.6154C187.806 40.7179 188.676 40.4102 189.444 39.7436C190.212 39.0769 190.673 38.1025 190.775 37.0256C191.031 34.8205 189.649 32.8718 187.704 32.6666C186.782 32.5641 185.912 32.8718 185.144 33.5384C184.377 34.2051 183.916 35.1795 183.814 36.2564Z" fill="black"/>
<path d="M189.019 37.0904C189.129 36.0484 188.467 35.1234 187.539 35.0246C186.612 34.9257 185.77 35.6903 185.659 36.7323C185.549 37.7744 186.211 38.6993 187.139 38.7982C188.066 38.8971 188.908 38.1325 189.019 37.0904Z" fill="#1A1A1A"/>
<path d="M187.295 39.5901C187.192 39.5901 187.141 39.5901 187.039 39.5901C186.373 39.5388 185.759 39.1798 185.349 38.6157C184.94 38.0516 184.786 37.3849 184.838 36.7183C184.991 35.2824 186.22 34.1542 187.551 34.308C188.216 34.3593 188.83 34.7183 189.24 35.2824C189.649 35.8465 189.803 36.5131 189.752 37.1798C189.649 38.5644 188.523 39.5901 187.295 39.5901ZM186.424 36.8208C186.373 37.1285 186.476 37.4362 186.629 37.6926C186.783 37.8978 186.987 38.0516 187.192 38.0516C187.704 38.1029 188.165 37.6413 188.216 37.026C188.267 36.7183 188.165 36.4106 188.011 36.1542C187.858 35.949 187.653 35.7952 187.448 35.7952C186.936 35.7439 186.476 36.2054 186.424 36.8208Z" fill="black"/>
<path d="M170.455 70.6669C170.301 70.6669 170.045 70.6156 169.84 70.5131C169.021 70.1541 168.509 69.3849 168.202 68.1028C167.998 67.231 168.151 66.4618 168.612 66.1541C168.97 65.8977 169.431 65.8977 169.891 66.2054C170.813 66.7695 171.222 67.59 171.478 68.4105C171.683 69.0259 171.683 69.949 171.171 70.4105C171.069 70.5131 170.813 70.6669 170.455 70.6669ZM170.25 69.59C170.352 69.6413 170.455 69.6413 170.455 69.6413C170.557 69.5387 170.659 69.0772 170.506 68.7182C170.25 68.0003 169.943 67.4362 169.328 67.0259C169.226 66.9746 169.175 66.9746 169.175 66.9746C169.124 67.0259 169.021 67.3336 169.175 67.8464C169.482 69.1285 169.943 69.4362 170.25 69.59Z" fill="black"/>
<path d="M170.555 15.8464C170.555 15.8464 171.016 13.2823 171.016 10.2054C171.067 7.07717 170.913 5.58999 170.504 4.30794C170.504 4.30794 163.952 2.00025 156.479 3.2823C150.336 4.35922 145.627 8.10281 145.627 8.10281C145.627 8.10281 147.47 10.1028 148.34 12.0002C149.517 14.6669 151.411 16.2567 153.459 16.4105C156.786 16.6669 157.246 16.4618 160.318 16.3079C165.078 16.2054 170.555 15.8464 170.555 15.8464Z" fill="#66A3B2"/>
<path d="M156.172 17.3848C155.456 17.3848 154.637 17.3335 153.459 17.2822C151.105 17.0771 148.955 15.2822 147.675 12.4104C146.856 10.6156 145.116 8.71813 145.116 8.71813L144.553 8.10275L145.218 7.58993C145.423 7.43608 150.132 3.69249 156.428 2.61557C164.004 1.28223 170.556 3.53865 170.812 3.64121L171.17 3.74377L171.273 4.10275C171.733 5.48736 171.887 6.97454 171.836 10.2566C171.784 13.3848 171.375 15.8976 171.324 16.0002L171.221 16.6156L170.607 16.6668C170.556 16.6668 165.079 17.0258 160.37 17.231C159.551 17.2822 158.936 17.3335 158.373 17.3335C157.606 17.3848 156.94 17.3848 156.172 17.3848ZM146.754 8.30788C147.419 9.07711 148.443 10.4104 149.057 11.7951C150.081 14.154 151.77 15.6412 153.562 15.7951C155.968 16.0002 156.787 15.9489 158.271 15.8463C158.834 15.7951 159.448 15.7438 160.318 15.7438C164.055 15.5899 168.355 15.3335 169.89 15.231C169.993 14.3079 170.249 12.4104 170.249 10.3079C170.3 7.53864 170.198 6.15403 169.89 5.02582C168.457 4.513 162.827 3.02582 156.633 4.10275C152.026 4.87198 148.238 7.28224 146.754 8.30788Z" fill="black"/>
<path d="M135.646 21.3848C135.646 21.3848 124.487 41.6412 122.849 44.8207C119.215 52.0001 106.571 65.5386 103.244 68.0514C103.244 68.0514 106.725 68.3591 111.076 66.8207C115.836 65.1796 121.416 61.8976 123.617 58.9232C126.381 55.2309 138.819 31.795 138.819 31.795C138.819 31.795 137.642 28.7181 137.181 27.1284C136.772 25.7437 135.646 21.3848 135.646 21.3848Z" fill="#66A3B2"/>
<path d="M104.013 68.8715C103.501 68.8715 103.194 68.8715 103.194 68.8202L101.197 68.6663L102.835 67.4356C106.214 64.9227 118.652 51.4869 122.184 44.5125C123.822 41.333 134.571 21.8458 134.981 21.0253L135.902 19.333L136.363 21.2304C136.363 21.2817 137.489 25.5894 137.899 26.974C138.359 28.5125 139.537 31.5381 139.537 31.5381L139.69 31.8458L139.537 32.1535C139.025 33.1279 127.047 55.692 124.283 59.3843C121.877 62.6663 115.939 65.9484 111.384 67.5381C108.108 68.7176 105.343 68.8715 104.013 68.8715ZM135.39 23.4869C132.677 28.4099 124.846 42.6151 123.515 45.2304C120.341 51.5381 110.155 62.8715 105.343 67.2817C106.726 67.1792 108.671 66.8715 110.82 66.1535C115.837 64.4099 121.058 61.1792 123.003 58.5125C125.511 55.1279 136.465 34.5638 137.95 31.7945C137.643 30.974 136.772 28.7176 136.414 27.4356C136.209 26.5638 135.749 24.8202 135.39 23.4869Z" fill="black"/>
</g>
</g>
<defs>
<clipPath id="clip0_109_33246">
<rect width="193" height="106" fill="white"/>
</clipPath>
<clipPath id="clip1_109_33246">
<rect width="194" height="106" fill="white"/>
</clipPath>
</defs>
</svg>
