<svg width="714" height="20" viewBox="0 0 714 20" fill="none" xmlns="http://www.w3.org/2000/svg">
<rect x="2" y="9" width="710" height="2" fill="url(#paint0_linear_6015_15464)"/>
<rect x="2" y="4" width="2" height="4" fill="url(#paint1_linear_6015_15464)"/>
<rect x="72.8" y="4" width="2" height="4" fill="url(#paint2_linear_6015_15464)"/>
<rect x="143.6" y="4" width="2" height="4" fill="url(#paint3_linear_6015_15464)"/>
<rect x="214.4" y="4" width="2" height="4" fill="url(#paint4_linear_6015_15464)"/>
<rect x="285.2" y="4" width="2" height="4" fill="url(#paint5_linear_6015_15464)"/>
<rect x="356" y="4" width="2" height="4" fill="url(#paint6_linear_6015_15464)"/>
<rect x="426.8" y="4" width="2" height="4" fill="url(#paint7_linear_6015_15464)"/>
<rect x="497.6" y="4" width="2" height="4" fill="url(#paint8_linear_6015_15464)"/>
<rect x="568.4" y="4" width="2" height="4" fill="url(#paint9_linear_6015_15464)"/>
<rect x="639.2" y="4" width="2" height="4" fill="url(#paint10_linear_6015_15464)"/>
<rect x="710" y="4" width="2" height="4" fill="url(#paint11_linear_6015_15464)"/>
<defs>
<linearGradient id="paint0_linear_6015_15464" x1="2" y1="10" x2="2.65384" y2="31.4248" gradientUnits="userSpaceOnUse">
<stop stop-color="#149BD6"/>
<stop offset="1" stop-color="#2EBAD9"/>
</linearGradient>
<linearGradient id="paint1_linear_6015_15464" x1="2" y1="6" x2="3.97519" y2="6.09116" gradientUnits="userSpaceOnUse">
<stop stop-color="#149BD6"/>
<stop offset="1" stop-color="#2EBAD9"/>
</linearGradient>
<linearGradient id="paint2_linear_6015_15464" x1="72.8" y1="6" x2="74.7752" y2="6.09116" gradientUnits="userSpaceOnUse">
<stop stop-color="#149BD6"/>
<stop offset="1" stop-color="#2EBAD9"/>
</linearGradient>
<linearGradient id="paint3_linear_6015_15464" x1="143.6" y1="6" x2="145.575" y2="6.09116" gradientUnits="userSpaceOnUse">
<stop stop-color="#149BD6"/>
<stop offset="1" stop-color="#2EBAD9"/>
</linearGradient>
<linearGradient id="paint4_linear_6015_15464" x1="214.4" y1="6" x2="216.375" y2="6.09116" gradientUnits="userSpaceOnUse">
<stop stop-color="#149BD6"/>
<stop offset="1" stop-color="#2EBAD9"/>
</linearGradient>
<linearGradient id="paint5_linear_6015_15464" x1="285.2" y1="6" x2="287.175" y2="6.09116" gradientUnits="userSpaceOnUse">
<stop stop-color="#149BD6"/>
<stop offset="1" stop-color="#2EBAD9"/>
</linearGradient>
<linearGradient id="paint6_linear_6015_15464" x1="356" y1="6" x2="357.975" y2="6.09116" gradientUnits="userSpaceOnUse">
<stop stop-color="#149BD6"/>
<stop offset="1" stop-color="#2EBAD9"/>
</linearGradient>
<linearGradient id="paint7_linear_6015_15464" x1="426.8" y1="6" x2="428.775" y2="6.09116" gradientUnits="userSpaceOnUse">
<stop stop-color="#149BD6"/>
<stop offset="1" stop-color="#2EBAD9"/>
</linearGradient>
<linearGradient id="paint8_linear_6015_15464" x1="497.6" y1="6" x2="499.575" y2="6.09116" gradientUnits="userSpaceOnUse">
<stop stop-color="#149BD6"/>
<stop offset="1" stop-color="#2EBAD9"/>
</linearGradient>
<linearGradient id="paint9_linear_6015_15464" x1="568.4" y1="6" x2="570.375" y2="6.09116" gradientUnits="userSpaceOnUse">
<stop stop-color="#149BD6"/>
<stop offset="1" stop-color="#2EBAD9"/>
</linearGradient>
<linearGradient id="paint10_linear_6015_15464" x1="639.2" y1="6" x2="641.175" y2="6.09116" gradientUnits="userSpaceOnUse">
<stop stop-color="#149BD6"/>
<stop offset="1" stop-color="#2EBAD9"/>
</linearGradient>
<linearGradient id="paint11_linear_6015_15464" x1="710" y1="6" x2="711.975" y2="6.09116" gradientUnits="userSpaceOnUse">
<stop stop-color="#149BD6"/>
<stop offset="1" stop-color="#2EBAD9"/>
</linearGradient>
</defs>
</svg>
