<svg width="400" height="20" viewBox="0 0 400 20" fill="none" xmlns="http://www.w3.org/2000/svg">
<rect x="2" y="9" width="396" height="2" fill="url(#paint0_linear_632_9284)"/>
<rect x="2" y="4" width="2" height="4" fill="url(#paint1_linear_632_9284)"/>
<rect x="41.4004" y="4" width="2" height="4" fill="url(#paint2_linear_632_9284)"/>
<rect x="80.7998" y="4" width="2" height="4" fill="url(#paint3_linear_632_9284)"/>
<rect x="120.2" y="4" width="2" height="4" fill="url(#paint4_linear_632_9284)"/>
<rect x="159.6" y="4" width="2" height="4" fill="url(#paint5_linear_632_9284)"/>
<rect x="199" y="4" width="2" height="4" fill="url(#paint6_linear_632_9284)"/>
<rect x="238.4" y="4" width="2" height="4" fill="url(#paint7_linear_632_9284)"/>
<rect x="277.8" y="4" width="2" height="4" fill="url(#paint8_linear_632_9284)"/>
<rect x="317.2" y="4" width="2" height="4" fill="url(#paint9_linear_632_9284)"/>
<rect x="356.6" y="4" width="2" height="4" fill="url(#paint10_linear_632_9284)"/>
<rect x="396" y="4" width="2" height="4" fill="url(#paint11_linear_632_9284)"/>
<defs>
<linearGradient id="paint0_linear_632_9284" x1="2" y1="10" x2="3.16989" y2="31.3807" gradientUnits="userSpaceOnUse">
<stop stop-color="#149BD6"/>
<stop offset="1" stop-color="#2EBAD9"/>
</linearGradient>
<linearGradient id="paint1_linear_632_9284" x1="2" y1="6" x2="3.97519" y2="6.09116" gradientUnits="userSpaceOnUse">
<stop stop-color="#149BD6"/>
<stop offset="1" stop-color="#2EBAD9"/>
</linearGradient>
<linearGradient id="paint2_linear_632_9284" x1="41.4004" y1="6" x2="43.3756" y2="6.09116" gradientUnits="userSpaceOnUse">
<stop stop-color="#149BD6"/>
<stop offset="1" stop-color="#2EBAD9"/>
</linearGradient>
<linearGradient id="paint3_linear_632_9284" x1="80.7998" y1="6" x2="82.775" y2="6.09116" gradientUnits="userSpaceOnUse">
<stop stop-color="#149BD6"/>
<stop offset="1" stop-color="#2EBAD9"/>
</linearGradient>
<linearGradient id="paint4_linear_632_9284" x1="120.2" y1="6" x2="122.175" y2="6.09116" gradientUnits="userSpaceOnUse">
<stop stop-color="#149BD6"/>
<stop offset="1" stop-color="#2EBAD9"/>
</linearGradient>
<linearGradient id="paint5_linear_632_9284" x1="159.6" y1="6" x2="161.575" y2="6.09116" gradientUnits="userSpaceOnUse">
<stop stop-color="#149BD6"/>
<stop offset="1" stop-color="#2EBAD9"/>
</linearGradient>
<linearGradient id="paint6_linear_632_9284" x1="199" y1="6" x2="200.975" y2="6.09116" gradientUnits="userSpaceOnUse">
<stop stop-color="#149BD6"/>
<stop offset="1" stop-color="#2EBAD9"/>
</linearGradient>
<linearGradient id="paint7_linear_632_9284" x1="238.4" y1="6" x2="240.376" y2="6.09116" gradientUnits="userSpaceOnUse">
<stop stop-color="#149BD6"/>
<stop offset="1" stop-color="#2EBAD9"/>
</linearGradient>
<linearGradient id="paint8_linear_632_9284" x1="277.8" y1="6" x2="279.775" y2="6.09116" gradientUnits="userSpaceOnUse">
<stop stop-color="#149BD6"/>
<stop offset="1" stop-color="#2EBAD9"/>
</linearGradient>
<linearGradient id="paint9_linear_632_9284" x1="317.2" y1="6" x2="319.175" y2="6.09116" gradientUnits="userSpaceOnUse">
<stop stop-color="#149BD6"/>
<stop offset="1" stop-color="#2EBAD9"/>
</linearGradient>
<linearGradient id="paint10_linear_632_9284" x1="356.6" y1="6" x2="358.575" y2="6.09116" gradientUnits="userSpaceOnUse">
<stop stop-color="#149BD6"/>
<stop offset="1" stop-color="#2EBAD9"/>
</linearGradient>
<linearGradient id="paint11_linear_632_9284" x1="396" y1="6" x2="397.975" y2="6.09116" gradientUnits="userSpaceOnUse">
<stop stop-color="#149BD6"/>
<stop offset="1" stop-color="#2EBAD9"/>
</linearGradient>
</defs>
</svg>
