<svg width="812" height="766" viewBox="0 0 812 766" fill="none" xmlns="http://www.w3.org/2000/svg">
<path opacity="0.2" d="M132.217 698.055C118.793 692.566 111.555 688.369 99.9554 679.665C87.9817 670.68 81.8451 664.602 72.5289 652.884C62.9212 640.8 58.378 633.139 52.1305 619.021" stroke="url(#paint0_linear_572_15012)" stroke-width="4"/>
<path opacity="0.2" d="M52.1303 619.021C45.6932 604.475 43.152 595.657 40.5902 579.958C37.9529 563.797 37.7065 554.353 39.2258 538.049C40.7885 521.277 42.9871 511.813 48.7218 495.975" stroke="url(#paint1_linear_572_15012)" stroke-width="4"/>
<path opacity="0.2" d="M48.7218 495.975C54.6161 479.696 59.2492 470.849 69.0494 456.576C79.1153 441.917 86.0044 434.318 99.4327 422.661C113.215 410.696 122.018 404.922 138.365 396.805" stroke="url(#paint2_linear_572_15012)" stroke-width="4"/>
<path opacity="0.2" d="M138.365 396.805C155.133 388.478 165.359 385.013 183.681 381.165C202.462 377.22 213.5 376.412 232.67 377.309C252.309 378.227 265.806 382.089 282.243 386.079" stroke="url(#paint3_linear_572_15012)" stroke-width="4"/>
<g filter="url(#filter0_d_572_15012)">
<path d="M132.217 698.055C118.793 692.566 111.555 688.369 99.9554 679.665C87.9817 670.68 81.8451 664.602 72.5289 652.884C62.9212 640.8 58.378 633.139 52.1305 619.021" stroke="url(#paint4_linear_572_15012)" stroke-width="4"/>
</g>
<g filter="url(#filter1_d_572_15012)">
<path d="M52.1303 619.021C45.6932 604.475 43.152 595.657 40.5902 579.958C37.9529 563.797 37.7065 554.353 39.2258 538.049C40.7885 521.277 42.9871 511.813 48.7218 495.975" stroke="url(#paint5_linear_572_15012)" stroke-width="4"/>
</g>
<g filter="url(#filter2_f_572_15012)">
<circle cx="282.122" cy="387.155" r="25" fill="#CCD8ED"/>
</g>
<g clip-path="url(#clip0_572_15012)">
<rect x="262.122" y="367.155" width="40" height="40" rx="20" fill="#202B45" stroke="#435475" stroke-width="2"/>
</g>
<rect x="259.122" y="364.155" width="46" height="46" rx="23" stroke="url(#paint6_linear_572_15012)" stroke-width="4"/>
<g filter="url(#filter3_f_572_15012)">
<circle cx="136.484" cy="395.742" r="25" fill="#CCD8ED"/>
</g>
<g clip-path="url(#clip1_572_15012)">
<rect x="116.484" y="375.742" width="40" height="40" rx="20" fill="#202B45" stroke="#435475" stroke-width="2"/>
</g>
<rect x="113.484" y="372.742" width="46" height="46" rx="23" stroke="url(#paint7_linear_572_15012)" stroke-width="4"/>
<g filter="url(#filter4_f_572_15012)">
<circle cx="49.1765" cy="495.508" r="25" fill="#CCD8ED"/>
</g>
<g clip-path="url(#clip2_572_15012)">
<g clip-path="url(#clip3_572_15012)">
<rect x="28.1765" y="474.508" width="42" height="42" rx="21" fill="#ECECEC"/>
<g clip-path="url(#clip4_572_15012)">
<path d="M54.3064 503.379C55.3536 503.103 57.2386 503.586 57.5178 503.31C57.7971 503.103 61.3576 497.171 61.1482 496.136C60.9387 495.171 60.9387 493.377 59.6821 490.48C58.9141 488.756 58.216 487.1 56.9593 486.135L55.7027 485.169C55.1442 484.341 54.9347 483.513 54.5857 483.169C54.097 482.824 50.6761 482.41 50.1176 482.548C49.5591 482.686 48.5817 483.307 47.8137 484.341C47.6741 484.548 47.6043 484.755 46.8363 484.686C45.9287 484.617 44.0438 484.41 43.5551 484.686C43.0664 484.962 40.7625 486.411 40.6927 487.238C40.6229 488.066 41.4607 489.17 41.1814 489.79C41.0418 490.066 36.2246 493.308 36.2246 494.757C36.2246 495.585 36.5737 496.619 37.0624 497.447C37.2718 497.723 37.4813 498.068 37.97 498.758C38.319 499.309 38.3889 500.068 38.319 500.275C38.1794 502.138 37.6209 502.276 37.6209 502.758C37.6209 503.241 38.0398 505.173 38.3889 505.449C38.7379 505.793 40.4135 506.207 42.2286 506.69C42.7173 506.828 43.6947 507.173 44.1136 507.449C44.9514 508.001 45.7891 509.311 46.4873 509.449C47.1854 509.518 50.7459 507.656 51.8629 506.621C52.3516 506.207 52.7705 505.38 53.1196 504.414C53.329 504.276 53.8177 503.448 54.3064 503.379Z" fill="white"/>
<path d="M46.6269 510.208C46.5571 510.208 46.5571 510.208 46.4873 510.208C45.8589 510.139 45.3004 509.587 44.7419 508.966C44.3928 508.622 44.1136 508.277 43.8343 508.139C43.4853 507.932 42.6475 507.587 42.1588 507.449L41.2512 507.173C39.4361 506.69 38.4587 506.414 38.0398 506.069C37.3416 505.518 36.9926 503.241 36.9926 502.827C36.9926 502.482 37.1322 502.207 37.202 502C37.3416 501.724 37.5511 501.31 37.6209 500.275C37.6209 500.068 37.6209 499.516 37.3416 499.172C37.1322 498.896 36.9926 498.689 36.853 498.551C36.6435 498.275 36.5039 498.068 36.3643 497.861C35.8756 496.826 35.5265 495.654 35.5265 494.757C35.5265 493.584 37.0624 492.136 39.7851 489.997C40.0644 489.791 40.3436 489.515 40.5531 489.377C40.5531 489.239 40.4135 488.894 40.3436 488.687C40.0644 488.273 39.8549 487.652 39.9946 487.1C40.1342 485.997 42.089 484.755 43.206 484.065C43.6947 483.789 44.6023 483.789 46.4873 483.927H46.9061C47.0458 483.927 47.1854 483.927 47.1854 483.927V483.858C47.9533 482.755 49.0704 482.065 49.8383 481.858C50.6063 481.651 54.1668 482.065 54.9347 482.548C55.2838 482.824 55.4932 483.238 55.7027 483.72C55.8423 483.996 55.9819 484.341 56.1914 484.617L57.3084 485.514C58.6349 486.549 59.4028 488.204 60.2406 490.135C61.2878 492.481 61.4972 494.136 61.6369 495.24C61.7067 495.516 61.7067 495.723 61.7765 495.93C62.0557 497.378 58.216 503.517 57.9367 503.724C57.5877 504 57.1688 503.931 56.331 503.862C55.7725 503.793 54.9347 503.724 54.5158 503.862C54.3762 503.931 54.0272 504.345 53.9573 504.552C53.5385 505.655 53.0498 506.483 52.5611 506.966C51.5139 508.07 47.8835 510.208 46.6269 510.208ZM44.4627 485.238C44.1834 485.238 43.974 485.238 43.9041 485.307C42.7173 486.066 41.4607 486.962 41.3908 487.376C41.3908 487.583 41.5305 487.997 41.6701 488.342C41.8097 488.825 42.089 489.446 41.8097 489.997C41.7399 490.204 41.5305 490.342 40.6229 491.101C38.1794 493.032 36.9228 494.274 36.9228 494.757C36.9228 495.378 37.202 496.343 37.6907 497.033C37.8303 497.24 37.9002 497.378 38.1096 497.654C38.2492 497.861 38.3889 498.068 38.5983 498.275C39.087 498.965 39.1568 499.861 39.087 500.275C39.0172 501.655 38.6681 502.207 38.5285 502.551C38.4587 502.62 38.4587 502.758 38.4587 502.758C38.4587 503.241 38.8077 504.69 39.0172 504.966C39.2266 505.104 40.5531 505.518 41.6701 505.793L42.5777 506.069C42.9268 506.138 44.0438 506.552 44.6721 506.897C45.091 507.173 45.4401 507.587 45.8589 507.932C46.1382 508.208 46.6269 508.691 46.8363 508.759C47.3948 508.691 50.6063 507.035 51.6535 506.069C52.0026 505.724 52.3516 505.035 52.7007 504.138C52.7705 503.862 53.3988 502.827 54.2366 502.62C54.9347 502.414 55.8423 502.482 56.6103 502.551C56.8197 502.551 57.099 502.62 57.2386 502.62C57.9367 501.586 60.5198 497.033 60.5198 496.205C60.45 495.999 60.45 495.792 60.3802 495.447C60.2406 494.412 60.0311 492.895 59.0537 490.687C58.216 489.032 57.5178 487.514 56.4706 486.686L55.0744 485.583C54.7951 485.169 54.5857 484.755 54.446 484.41C54.3064 484.203 54.1668 483.858 54.097 483.789C53.6781 483.514 50.7459 483.1 50.1874 483.238C49.7685 483.376 48.9307 483.858 48.3024 484.755C48.0232 485.1 47.6741 485.445 46.6967 485.376H46.2778C45.8589 485.307 45.0212 485.238 44.4627 485.238Z" fill="black"/>
<path d="M53.6083 504.966L52.6309 504.621C52.6309 504.552 53.8177 501.103 51.8629 496.412C51.1648 494.688 50.8157 493.377 50.8157 492.205C50.8157 490.963 50.8157 488.618 53.0498 486.824C54.3762 485.721 55.9121 485.1 55.9819 485.031L56.4008 485.997C56.4008 485.997 54.9347 486.618 53.6781 487.583C52.0026 488.894 51.8629 490.618 51.8629 492.136C51.8629 492.826 51.9327 493.929 52.8403 495.93C54.9347 501.172 53.6083 504.828 53.6083 504.966Z" fill="black"/>
<path d="M43.6947 506.966L42.7871 506.483C42.8569 506.414 43.8343 504.552 45.6495 502.827C46.5571 502 47.6043 501.448 48.5119 500.965C49.4194 500.482 50.1874 500.068 50.7459 499.447C52.1422 497.723 51.5837 495.585 51.5837 495.585L52.6309 495.309C52.6309 495.447 53.2592 497.999 51.5837 500.068C50.9553 500.896 50.0478 501.379 49.0704 501.862C48.1628 502.345 47.2552 502.827 46.4873 503.586C44.6023 505.242 43.6947 506.966 43.6947 506.966Z" fill="black"/>
<path d="M44.8815 493.446L44.6721 492.688C44.3928 491.584 43.974 490.894 43.7645 490.687C42.9267 489.859 41.6003 489.928 41.6003 489.997L41.5305 488.963C41.6003 488.963 43.3456 488.825 44.5325 489.997C44.8117 490.342 45.1608 490.963 45.44 491.791C46.208 491.377 47.6741 490.756 49.4892 491.032C51.5138 491.308 51.8629 493.032 51.8629 493.101L50.8855 493.239C50.8855 493.17 50.6761 492.205 49.3496 491.998C47.1156 491.653 45.5099 492.963 45.5099 492.963L44.8815 493.446Z" fill="black"/>
<path d="M43.8343 489.791L42.7871 489.515C42.7871 489.446 43.2758 487.652 45.2306 486.893C45.7891 486.687 46.2778 486.549 46.6967 486.411C46.9061 486.342 47.1854 486.273 47.2552 486.204C47.2552 486.204 47.2552 486.135 47.2552 486.066C47.2552 485.583 46.8363 484.962 46.6967 484.824L47.5345 484.203C47.6043 484.272 48.3024 485.238 48.3024 486.135C48.3024 487.031 47.6741 487.238 46.976 487.445C46.6269 487.514 46.208 487.652 45.6495 487.859C44.1834 488.48 43.8343 489.791 43.8343 489.791Z" fill="black"/>
<path d="M38.5285 499.723C38.319 499.723 38.1794 499.654 38.1096 499.447C37.97 499.172 38.0398 498.896 38.319 498.758C39.0172 498.344 42.5079 496.412 43.7645 496.481C44.3928 496.55 44.8815 496.895 45.3702 497.24C46.0684 497.723 46.6269 498.137 47.5345 497.861C48.3024 497.654 48.7911 497.309 49.0704 496.826C49.2798 496.481 49.2798 496.137 49.21 495.93C49.1402 495.585 49.0005 495.309 48.7911 495.24C48.6515 495.171 48.2326 495.102 47.1854 495.516C46.9061 495.654 46.6269 495.516 46.4873 495.24C46.3476 494.964 46.4873 494.688 46.7665 494.55C47.8137 494.067 48.6515 493.998 49.21 494.274C49.9081 494.619 50.1176 495.309 50.1874 495.654C50.327 496.205 50.2572 496.826 49.9081 497.378C49.6289 497.861 49.0005 498.551 47.7439 498.827C46.3476 499.172 45.3702 498.482 44.6721 497.999C44.2532 497.723 43.974 497.447 43.6249 497.447C42.9267 497.378 40.3436 498.689 38.8077 499.585C38.7379 499.723 38.5983 499.723 38.5285 499.723Z" fill="black"/>
<path d="M44.4627 497.792C44.323 497.792 44.1136 497.723 44.0438 497.585C43.974 497.516 42.8569 495.654 43.9041 493.584C44.4627 492.481 44.8815 492.136 44.9514 492.067C45.1608 491.86 45.5099 491.86 45.7193 492.067C45.9287 492.274 45.9287 492.619 45.7193 492.826C45.7193 492.826 45.3702 493.17 44.8815 494.067C44.0438 495.585 44.9514 496.964 44.9514 497.033C45.091 497.24 45.0212 497.585 44.8117 497.723C44.6721 497.792 44.6023 497.792 44.4627 497.792Z" fill="black"/>
</g>
</g>
<path opacity="0.7" d="M49.1765 474.508C46.4187 474.508 43.688 475.051 41.1401 476.107C38.5923 477.162 36.2773 478.709 34.3272 480.659C32.3772 482.609 30.8304 484.924 29.775 487.472C28.7197 490.02 28.1765 492.75 28.1765 495.508L49.1765 495.508L49.1765 474.508Z" fill="#202B45"/>
</g>
<rect x="26.1765" y="472.508" width="46" height="46" rx="23" stroke="url(#paint8_linear_572_15012)" stroke-width="4"/>
<g filter="url(#filter5_f_572_15012)">
<circle cx="52.4879" cy="616.201" r="25" fill="#CCD8ED"/>
</g>
<g clip-path="url(#clip5_572_15012)">
<g clip-path="url(#clip6_572_15012)">
<rect x="31.4879" y="595.201" width="42" height="42" rx="21" fill="#ECC081"/>
<g clip-path="url(#clip7_572_15012)">
<path d="M49.4809 601.237C49.4809 601.237 53.7503 603.281 58.175 609.491C62.5998 615.701 62.4445 619.711 61.9787 622.698C61.3577 626.628 56.933 630.166 51.0334 628.829C45.1338 627.493 43.3484 622.698 43.9694 619.082C44.7457 614.601 47.9284 613.972 49.4033 610.67C51.0334 607.133 51.0334 603.124 49.4809 601.237Z" fill="white"/>
<path d="M53.5175 629.851C52.6636 629.851 51.7321 629.773 50.8005 629.537C44.5128 628.122 42.4169 623.012 43.1931 618.924C43.7365 616.016 45.1338 614.522 46.4535 613.186C47.3073 612.321 48.1612 611.535 48.7046 610.277C50.2572 606.976 50.3348 603.281 48.9375 601.709C48.7046 601.395 48.7046 601.001 48.9375 600.687C49.0928 600.451 49.4809 600.373 49.7914 600.53C49.9466 600.608 54.2937 602.731 58.7961 609.02C63.2208 615.23 63.2984 619.318 62.755 622.776C62.4445 624.899 61.1249 626.864 59.2618 628.2C57.554 629.301 55.6134 629.851 53.5175 629.851ZM51.1887 603.281C51.6544 605.482 51.2663 608.312 50.0243 610.985C49.3256 612.478 48.3941 613.422 47.4626 614.287C46.2206 615.544 45.0562 616.723 44.668 619.16C44.047 622.698 45.8324 626.785 51.111 627.965C53.7503 628.593 56.312 628.2 58.2527 626.785C59.8052 625.685 60.8144 624.113 61.1249 622.462C61.5906 619.318 61.513 615.623 57.4764 609.884C55.1476 606.583 52.8188 604.539 51.1887 603.281Z" fill="black"/>
<path d="M48.3941 613.343C48.3941 613.343 48.3941 617.274 51.2663 619.396C52.8188 620.575 56.4673 621.125 58.4079 619.082C59.8828 617.509 60.1157 615.308 60.1933 614.286C60.1933 614.286 62.4445 618.61 61.1248 623.248C60.6591 624.977 59.4171 626.471 57.3212 627.493C55.3805 628.436 53.2846 628.515 51.111 628.043C49.248 627.65 47.7731 626.785 46.5311 625.606C45.2891 624.427 44.7457 622.934 44.5904 621.676C44.4352 620.261 44.5128 618.846 45.1338 617.352C45.7548 615.701 47.2297 614.522 48.3941 613.343Z" fill="#B1B2B1"/>
</g>
</g>
</g>
<rect x="29.4879" y="593.201" width="46" height="46" rx="23" stroke="url(#paint9_linear_572_15012)" stroke-width="4"/>
<g filter="url(#filter6_f_572_15012)">
<circle cx="130.319" cy="695.52" r="25" fill="#CCD8ED"/>
</g>
<g clip-path="url(#clip8_572_15012)">
<g clip-path="url(#clip9_572_15012)">
<rect x="109.319" y="674.52" width="42" height="42" rx="21" fill="#ECECEC"/>
<g clip-path="url(#clip10_572_15012)">
<path d="M135.449 703.391C136.496 703.115 138.381 703.598 138.66 703.322C138.94 703.115 142.5 697.183 142.291 696.148C142.081 695.182 142.081 693.389 140.825 690.492C140.057 688.767 139.358 687.112 138.102 686.146L136.845 685.18C136.287 684.353 136.077 683.525 135.728 683.18C135.239 682.835 131.819 682.421 131.26 682.559C130.702 682.697 129.724 683.318 128.956 684.353C128.817 684.56 128.747 684.767 127.979 684.698C127.071 684.629 125.186 684.422 124.698 684.698C124.209 684.974 121.905 686.422 121.835 687.25C121.765 688.078 122.603 689.181 122.324 689.802C122.184 690.078 117.367 693.32 117.367 694.768C117.367 695.596 117.716 696.631 118.205 697.459C118.414 697.734 118.624 698.079 119.112 698.769C119.461 699.321 119.531 700.08 119.461 700.287C119.322 702.149 118.763 702.287 118.763 702.77C118.763 703.253 119.182 705.184 119.531 705.46C119.88 705.805 121.556 706.219 123.371 706.702C123.86 706.84 124.837 707.184 125.256 707.46C126.094 708.012 126.932 709.323 127.63 709.461C128.328 709.53 131.888 707.667 133.005 706.633C133.494 706.219 133.913 705.391 134.262 704.425C134.471 704.287 134.96 703.46 135.449 703.391Z" fill="white"/>
<path d="M127.769 710.22C127.7 710.22 127.7 710.22 127.63 710.22C127.001 710.151 126.443 709.599 125.884 708.978C125.535 708.633 125.256 708.288 124.977 708.15C124.628 707.943 123.79 707.598 123.301 707.46L122.394 707.184C120.579 706.702 119.601 706.426 119.182 706.081C118.484 705.529 118.135 703.253 118.135 702.839C118.135 702.494 118.275 702.218 118.344 702.011C118.484 701.735 118.694 701.321 118.763 700.287C118.763 700.08 118.763 699.528 118.484 699.183C118.275 698.907 118.135 698.7 117.995 698.562C117.786 698.286 117.646 698.079 117.507 697.872C117.018 696.838 116.669 695.665 116.669 694.768C116.669 693.596 118.205 692.147 120.928 690.009C121.207 689.802 121.486 689.526 121.696 689.388C121.696 689.25 121.556 688.905 121.486 688.698C121.207 688.284 120.997 687.664 121.137 687.112C121.277 686.008 123.231 684.767 124.348 684.077C124.837 683.801 125.745 683.801 127.63 683.939H128.049C128.188 683.939 128.328 683.939 128.328 683.939V683.87C129.096 682.766 130.213 682.076 130.981 681.87C131.749 681.663 135.309 682.076 136.077 682.559C136.426 682.835 136.636 683.249 136.845 683.732C136.985 684.008 137.124 684.353 137.334 684.629L138.451 685.525C139.777 686.56 140.545 688.216 141.383 690.147C142.43 692.492 142.64 694.148 142.779 695.251C142.849 695.527 142.849 695.734 142.919 695.941C143.198 697.39 139.358 703.529 139.079 703.736C138.73 704.012 138.311 703.943 137.473 703.874C136.915 703.805 136.077 703.736 135.658 703.874C135.519 703.943 135.17 704.356 135.1 704.563C134.681 705.667 134.192 706.495 133.704 706.978C132.656 708.081 129.026 710.22 127.769 710.22ZM125.605 685.249C125.326 685.249 125.116 685.249 125.047 685.318C123.86 686.077 122.603 686.974 122.533 687.388C122.533 687.595 122.673 688.009 122.813 688.353C122.952 688.836 123.231 689.457 122.952 690.009C122.882 690.216 122.673 690.354 121.765 691.113C119.322 693.044 118.065 694.286 118.065 694.768C118.065 695.389 118.344 696.355 118.833 697.045C118.973 697.252 119.043 697.39 119.252 697.666C119.392 697.872 119.531 698.079 119.741 698.286C120.229 698.976 120.299 699.873 120.229 700.287C120.16 701.666 119.811 702.218 119.671 702.563C119.601 702.632 119.601 702.77 119.601 702.77C119.601 703.253 119.95 704.701 120.16 704.977C120.369 705.115 121.696 705.529 122.813 705.805L123.72 706.081C124.069 706.15 125.186 706.564 125.815 706.909C126.233 707.184 126.583 707.598 127.001 707.943C127.281 708.219 127.769 708.702 127.979 708.771C128.537 708.702 131.749 707.047 132.796 706.081C133.145 705.736 133.494 705.046 133.843 704.149C133.913 703.874 134.541 702.839 135.379 702.632C136.077 702.425 136.985 702.494 137.753 702.563C137.962 702.563 138.241 702.632 138.381 702.632C139.079 701.597 141.662 697.045 141.662 696.217C141.592 696.01 141.592 695.803 141.523 695.458C141.383 694.424 141.174 692.906 140.196 690.699C139.358 689.043 138.66 687.526 137.613 686.698L136.217 685.594C135.938 685.18 135.728 684.767 135.588 684.422C135.449 684.215 135.309 683.87 135.239 683.801C134.821 683.525 131.888 683.111 131.33 683.249C130.911 683.387 130.073 683.87 129.445 684.767C129.166 685.112 128.817 685.456 127.839 685.387H127.42C127.001 685.318 126.164 685.249 125.605 685.249Z" fill="black"/>
<path d="M134.751 704.977L133.773 704.632C133.773 704.563 134.96 701.114 133.005 696.424C132.307 694.699 131.958 693.389 131.958 692.216C131.958 690.975 131.958 688.629 134.192 686.836C135.519 685.732 137.055 685.112 137.124 685.043L137.543 686.008C137.543 686.008 136.077 686.629 134.821 687.595C133.145 688.905 133.005 690.63 133.005 692.147C133.005 692.837 133.075 693.941 133.983 695.941C136.077 701.183 134.751 704.839 134.751 704.977Z" fill="black"/>
<path d="M124.837 706.978L123.93 706.495C123.999 706.426 124.977 704.563 126.792 702.839C127.7 702.011 128.747 701.459 129.654 700.976C130.562 700.494 131.33 700.08 131.888 699.459C133.285 697.734 132.726 695.596 132.726 695.596L133.773 695.32C133.773 695.458 134.402 698.01 132.726 700.08C132.098 700.907 131.19 701.39 130.213 701.873C129.305 702.356 128.398 702.839 127.63 703.598C125.745 705.253 124.837 706.978 124.837 706.978Z" fill="black"/>
<path d="M126.024 693.458L125.815 692.699C125.535 691.595 125.116 690.906 124.907 690.699C124.069 689.871 122.743 689.94 122.743 690.009L122.673 688.974C122.743 688.974 124.488 688.836 125.675 690.009C125.954 690.354 126.303 690.975 126.583 691.802C127.35 691.389 128.817 690.768 130.632 691.044C132.656 691.32 133.005 693.044 133.005 693.113L132.028 693.251C132.028 693.182 131.819 692.216 130.492 692.009C128.258 691.664 126.652 692.975 126.652 692.975L126.024 693.458Z" fill="black"/>
<path d="M124.977 689.802L123.93 689.526C123.93 689.457 124.418 687.664 126.373 686.905C126.932 686.698 127.42 686.56 127.839 686.422C128.049 686.353 128.328 686.284 128.398 686.215C128.398 686.215 128.398 686.146 128.398 686.077C128.398 685.594 127.979 684.974 127.839 684.836L128.677 684.215C128.747 684.284 129.445 685.249 129.445 686.146C129.445 687.043 128.817 687.25 128.118 687.457C127.769 687.526 127.35 687.664 126.792 687.871C125.326 688.491 124.977 689.802 124.977 689.802Z" fill="black"/>
<path d="M119.671 699.735C119.462 699.735 119.322 699.666 119.252 699.459C119.112 699.183 119.182 698.907 119.462 698.769C120.16 698.355 123.65 696.424 124.907 696.493C125.535 696.562 126.024 696.907 126.513 697.252C127.211 697.734 127.769 698.148 128.677 697.872C129.445 697.666 129.934 697.321 130.213 696.838C130.422 696.493 130.422 696.148 130.352 695.941C130.283 695.596 130.143 695.32 129.934 695.251C129.794 695.182 129.375 695.113 128.328 695.527C128.049 695.665 127.769 695.527 127.63 695.251C127.49 694.975 127.63 694.699 127.909 694.561C128.956 694.079 129.794 694.01 130.352 694.286C131.051 694.63 131.26 695.32 131.33 695.665C131.469 696.217 131.4 696.838 131.051 697.39C130.771 697.872 130.143 698.562 128.886 698.838C127.49 699.183 126.513 698.493 125.815 698.01C125.396 697.734 125.116 697.459 124.767 697.459C124.069 697.39 121.486 698.7 119.95 699.597C119.88 699.735 119.741 699.735 119.671 699.735Z" fill="black"/>
<path d="M125.605 697.803C125.465 697.803 125.256 697.735 125.186 697.597C125.116 697.528 123.999 695.665 125.047 693.596C125.605 692.492 126.024 692.147 126.094 692.078C126.303 691.871 126.652 691.871 126.862 692.078C127.071 692.285 127.071 692.63 126.862 692.837C126.862 692.837 126.513 693.182 126.024 694.079C125.186 695.596 126.094 696.976 126.094 697.045C126.233 697.252 126.164 697.597 125.954 697.735C125.815 697.803 125.745 697.803 125.605 697.803Z" fill="black"/>
</g>
</g>
</g>
<rect x="107.319" y="672.52" width="46" height="46" rx="23" stroke="url(#paint10_linear_572_15012)" stroke-width="4"/>
<path opacity="0.2" d="M764.504 544.997C766.433 559.37 766.401 567.737 764.633 582.131C762.808 596.99 760.596 605.338 755.078 619.254C749.387 633.606 745.009 641.362 735.881 653.812" stroke="url(#paint11_linear_572_15012)" stroke-width="4"/>
<path opacity="0.2" d="M735.881 653.812C726.477 666.641 720.098 673.238 707.762 683.281C695.064 693.62 686.999 698.538 672.105 705.345C656.785 712.346 647.483 715.155 630.894 718.074" stroke="url(#paint12_linear_572_15012)" stroke-width="4"/>
<path opacity="0.2" d="M630.894 718.075C613.842 721.075 603.863 721.466 586.606 720.08C568.88 718.656 558.859 716.469 542.061 710.635C524.82 704.646 515.428 699.89 500.245 689.761" stroke="url(#paint13_linear_572_15012)" stroke-width="4"/>
<path opacity="0.2" d="M500.245 689.761C484.672 679.371 476.572 672.231 464.107 658.263C451.329 643.945 445.129 634.776 436.355 617.709C427.366 600.223 423.99 586.597 419.26 570.357" stroke="url(#paint14_linear_572_15012)" stroke-width="4"/>
<g filter="url(#filter7_d_572_15012)">
<path d="M764.504 544.997C766.433 559.37 766.401 567.737 764.633 582.131C762.808 596.99 760.596 605.338 755.078 619.254C749.387 633.606 745.009 641.362 735.881 653.812" stroke="url(#paint15_linear_572_15012)" stroke-width="4"/>
</g>
<g filter="url(#filter8_d_572_15012)">
<path d="M735.881 653.812C726.477 666.641 720.098 673.238 707.762 683.281C695.064 693.62 686.999 698.538 672.105 705.345C656.785 712.346 647.483 715.155 630.894 718.074" stroke="url(#paint16_linear_572_15012)" stroke-width="4"/>
</g>
<g filter="url(#filter9_d_572_15012)">
<path d="M630.894 718.075C613.842 721.075 603.863 721.466 586.606 720.08C568.88 718.656 558.859 716.469 542.061 710.635C524.82 704.646 515.428 699.89 500.245 689.761" stroke="url(#paint17_linear_572_15012)" stroke-width="4"/>
</g>
<g filter="url(#filter10_f_572_15012)">
<circle cx="419.96" cy="568.469" r="25" fill="#CCD8ED"/>
</g>
<g clip-path="url(#clip11_572_15012)">
<rect x="399.96" y="548.469" width="40" height="40" rx="20" fill="#202B45" stroke="#435475" stroke-width="2"/>
</g>
<rect x="396.96" y="545.469" width="46" height="46" rx="23" stroke="url(#paint18_linear_572_15012)" stroke-width="4"/>
<g filter="url(#filter11_f_572_15012)">
<circle cx="499.96" cy="690.469" r="25" fill="#CCD8ED"/>
</g>
<g clip-path="url(#clip12_572_15012)">
<g clip-path="url(#clip13_572_15012)">
<rect x="478.96" y="669.469" width="42" height="42" rx="21" fill="#ECC081"/>
<g clip-path="url(#clip14_572_15012)">
<path d="M496.953 675.505C496.953 675.505 501.223 677.548 505.647 683.759C510.072 689.969 509.917 693.978 509.451 696.965C508.83 700.896 504.405 704.433 498.506 703.097C492.606 701.76 490.821 696.965 491.442 693.349C492.218 688.868 495.401 688.239 496.875 684.938C498.506 681.4 498.506 677.391 496.953 675.505Z" fill="white"/>
<path d="M500.99 704.119C500.136 704.119 499.204 704.04 498.273 703.804C491.985 702.389 489.889 697.28 490.665 693.192C491.209 690.283 492.606 688.79 493.926 687.453C494.78 686.589 495.633 685.803 496.177 684.545C497.729 681.243 497.807 677.548 496.41 675.976C496.177 675.662 496.177 675.269 496.41 674.954C496.565 674.719 496.953 674.64 497.264 674.797C497.419 674.876 501.766 676.998 506.268 683.287C510.693 689.497 510.771 693.585 510.227 697.044C509.917 699.166 508.597 701.131 506.734 702.468C505.026 703.568 503.086 704.119 500.99 704.119ZM498.661 677.548C499.127 679.75 498.738 682.58 497.496 685.252C496.798 686.746 495.866 687.689 494.935 688.554C493.693 689.812 492.528 690.991 492.14 693.428C491.519 696.965 493.305 701.053 498.583 702.232C501.223 702.861 503.784 702.468 505.725 701.053C507.277 699.952 508.287 698.38 508.597 696.729C509.063 693.585 508.985 689.89 504.949 684.152C502.62 680.85 500.291 678.806 498.661 677.548Z" fill="black"/>
<path d="M495.866 687.61C495.866 687.61 495.866 691.541 498.738 693.663C500.291 694.843 503.939 695.393 505.88 693.349C507.355 691.777 507.588 689.576 507.666 688.554C507.666 688.554 509.917 692.877 508.597 697.515C508.131 699.245 506.889 700.738 504.793 701.76C502.853 702.704 500.757 702.782 498.583 702.31C496.72 701.917 495.245 701.053 494.003 699.874C492.761 698.694 492.218 697.201 492.063 695.943C491.907 694.528 491.985 693.113 492.606 691.62C493.227 689.969 494.702 688.79 495.866 687.61Z" fill="#B1B2B1"/>
</g>
</g>
<path opacity="0.7" d="M499.96 669.469C497.202 669.469 494.472 670.012 491.924 671.067C489.376 672.122 487.061 673.669 485.111 675.619C483.161 677.569 481.614 679.884 480.559 682.432C479.503 684.98 478.96 687.711 478.96 690.469C478.96 693.226 479.503 695.957 480.559 698.505C481.614 701.053 483.161 703.368 485.111 705.318C487.061 707.268 489.376 708.815 491.924 709.87C494.472 710.925 497.202 711.469 499.96 711.469L499.96 690.469L499.96 669.469Z" fill="#202B45"/>
</g>
<rect x="476.96" y="667.469" width="46" height="46" rx="23" stroke="url(#paint19_linear_572_15012)" stroke-width="4"/>
<g filter="url(#filter12_f_572_15012)">
<circle cx="629.96" cy="716.469" r="25" fill="#CCD8ED"/>
</g>
<g clip-path="url(#clip15_572_15012)">
<g clip-path="url(#clip16_572_15012)">
<rect x="608.96" y="695.469" width="42" height="42" rx="21" fill="#ECECEC"/>
<g clip-path="url(#clip17_572_15012)">
<path d="M635.09 724.34C636.137 724.064 638.022 724.547 638.301 724.271C638.581 724.064 642.141 718.132 641.932 717.097C641.722 716.131 641.722 714.338 640.466 711.441C639.698 709.716 639 708.061 637.743 707.095L636.486 706.129C635.928 705.302 635.718 704.474 635.369 704.129C634.881 703.784 631.46 703.37 630.901 703.508C630.343 703.646 629.365 704.267 628.597 705.302C628.458 705.509 628.388 705.716 627.62 705.647C626.712 705.578 624.827 705.371 624.339 705.647C623.85 705.923 621.546 707.371 621.476 708.199C621.406 709.027 622.244 710.13 621.965 710.751C621.825 711.027 617.008 714.269 617.008 715.717C617.008 716.545 617.357 717.58 617.846 718.408C618.055 718.683 618.265 719.028 618.754 719.718C619.103 720.27 619.172 721.029 619.103 721.236C618.963 723.098 618.404 723.236 618.404 723.719C618.404 724.202 618.823 726.133 619.172 726.409C619.521 726.754 621.197 727.168 623.012 727.651C623.501 727.789 624.478 728.133 624.897 728.409C625.735 728.961 626.573 730.272 627.271 730.41C627.969 730.479 631.529 728.616 632.646 727.582C633.135 727.168 633.554 726.34 633.903 725.374C634.113 725.236 634.601 724.409 635.09 724.34Z" fill="white"/>
<path d="M627.41 731.169C627.341 731.169 627.341 731.169 627.271 731.169C626.643 731.1 626.084 730.548 625.525 729.927C625.176 729.582 624.897 729.237 624.618 729.099C624.269 728.892 623.431 728.547 622.942 728.409L622.035 728.133C620.22 727.651 619.242 727.375 618.823 727.03C618.125 726.478 617.776 724.202 617.776 723.788C617.776 723.443 617.916 723.167 617.986 722.96C618.125 722.684 618.335 722.27 618.404 721.236C618.404 721.029 618.404 720.477 618.125 720.132C617.916 719.856 617.776 719.649 617.637 719.511C617.427 719.235 617.287 719.028 617.148 718.821C616.659 717.787 616.31 716.614 616.31 715.717C616.31 714.545 617.846 713.096 620.569 710.958C620.848 710.751 621.127 710.475 621.337 710.337C621.337 710.199 621.197 709.854 621.127 709.647C620.848 709.233 620.639 708.613 620.778 708.061C620.918 706.957 622.873 705.716 623.99 705.026C624.478 704.75 625.386 704.75 627.271 704.888H627.69C627.829 704.888 627.969 704.888 627.969 704.888V704.819C628.737 703.715 629.854 703.025 630.622 702.819C631.39 702.612 634.95 703.025 635.718 703.508C636.067 703.784 636.277 704.198 636.486 704.681C636.626 704.957 636.766 705.302 636.975 705.578L638.092 706.474C639.418 707.509 640.186 709.164 641.024 711.096C642.071 713.441 642.281 715.097 642.42 716.2C642.49 716.476 642.49 716.683 642.56 716.89C642.839 718.339 639 724.478 638.72 724.685C638.371 724.96 637.952 724.892 637.115 724.823C636.556 724.754 635.718 724.685 635.299 724.823C635.16 724.892 634.811 725.305 634.741 725.512C634.322 726.616 633.833 727.444 633.345 727.927C632.297 729.03 628.667 731.169 627.41 731.169ZM625.246 706.198C624.967 706.198 624.758 706.198 624.688 706.267C623.501 707.026 622.244 707.923 622.174 708.337C622.174 708.544 622.314 708.958 622.454 709.302C622.593 709.785 622.873 710.406 622.593 710.958C622.523 711.165 622.314 711.303 621.406 712.062C618.963 713.993 617.706 715.235 617.706 715.717C617.706 716.338 617.986 717.304 618.474 717.994C618.614 718.201 618.684 718.339 618.893 718.614C619.033 718.821 619.172 719.028 619.382 719.235C619.871 719.925 619.94 720.822 619.871 721.236C619.801 722.615 619.452 723.167 619.312 723.512C619.242 723.581 619.242 723.719 619.242 723.719C619.242 724.202 619.591 725.65 619.801 725.926C620.01 726.064 621.337 726.478 622.454 726.754L623.361 727.03C623.71 727.099 624.827 727.513 625.456 727.858C625.875 728.133 626.224 728.547 626.643 728.892C626.922 729.168 627.41 729.651 627.62 729.72C628.178 729.651 631.39 727.996 632.437 727.03C632.786 726.685 633.135 725.995 633.484 725.098C633.554 724.823 634.182 723.788 635.02 723.581C635.718 723.374 636.626 723.443 637.394 723.512C637.603 723.512 637.883 723.581 638.022 723.581C638.72 722.546 641.303 717.994 641.303 717.166C641.234 716.959 641.234 716.752 641.164 716.407C641.024 715.373 640.815 713.855 639.837 711.648C639 709.992 638.301 708.475 637.254 707.647L635.858 706.543C635.579 706.129 635.369 705.716 635.23 705.371C635.09 705.164 634.95 704.819 634.881 704.75C634.462 704.474 631.529 704.06 630.971 704.198C630.552 704.336 629.714 704.819 629.086 705.716C628.807 706.06 628.458 706.405 627.48 706.336H627.061C626.643 706.267 625.805 706.198 625.246 706.198Z" fill="black"/>
<path d="M634.392 725.926L633.414 725.581C633.414 725.512 634.601 722.063 632.647 717.373C631.948 715.648 631.599 714.338 631.599 713.165C631.599 711.924 631.599 709.578 633.833 707.785C635.16 706.681 636.696 706.06 636.766 705.992L637.184 706.957C637.184 706.957 635.718 707.578 634.462 708.544C632.786 709.854 632.647 711.579 632.647 713.096C632.647 713.786 632.716 714.89 633.624 716.89C635.718 722.132 634.392 725.788 634.392 725.926Z" fill="black"/>
<path d="M624.478 727.927L623.571 727.444C623.64 727.375 624.618 725.512 626.433 723.788C627.341 722.96 628.388 722.408 629.295 721.925C630.203 721.443 630.971 721.029 631.529 720.408C632.926 718.683 632.367 716.545 632.367 716.545L633.414 716.269C633.414 716.407 634.043 718.959 632.367 721.029C631.739 721.856 630.831 722.339 629.854 722.822C628.946 723.305 628.039 723.788 627.271 724.547C625.386 726.202 624.478 727.927 624.478 727.927Z" fill="black"/>
<path d="M625.665 714.407L625.456 713.648C625.176 712.544 624.758 711.855 624.548 711.648C623.71 710.82 622.384 710.889 622.384 710.958L622.314 709.923C622.384 709.923 624.129 709.785 625.316 710.958C625.595 711.303 625.944 711.924 626.224 712.751C626.992 712.337 628.458 711.717 630.273 711.993C632.297 712.269 632.646 713.993 632.646 714.062L631.669 714.2C631.669 714.131 631.46 713.165 630.133 712.958C627.899 712.613 626.293 713.924 626.293 713.924L625.665 714.407Z" fill="black"/>
<path d="M624.618 710.751L623.571 710.475C623.571 710.406 624.059 708.613 626.014 707.854C626.573 707.647 627.061 707.509 627.48 707.371C627.69 707.302 627.969 707.233 628.039 707.164C628.039 707.164 628.039 707.095 628.039 707.026C628.039 706.543 627.62 705.923 627.48 705.785L628.318 705.164C628.388 705.233 629.086 706.198 629.086 707.095C629.086 707.992 628.458 708.199 627.76 708.406C627.41 708.475 626.992 708.613 626.433 708.82C624.967 709.44 624.618 710.751 624.618 710.751Z" fill="black"/>
<path d="M619.312 720.684C619.103 720.684 618.963 720.615 618.893 720.408C618.754 720.132 618.823 719.856 619.103 719.718C619.801 719.304 623.291 717.373 624.548 717.442C625.176 717.511 625.665 717.856 626.154 718.201C626.852 718.683 627.41 719.097 628.318 718.821C629.086 718.614 629.575 718.27 629.854 717.787C630.063 717.442 630.063 717.097 629.994 716.89C629.924 716.545 629.784 716.269 629.575 716.2C629.435 716.131 629.016 716.062 627.969 716.476C627.69 716.614 627.41 716.476 627.271 716.2C627.131 715.924 627.271 715.648 627.55 715.51C628.597 715.028 629.435 714.959 629.994 715.235C630.692 715.579 630.901 716.269 630.971 716.614C631.111 717.166 631.041 717.787 630.692 718.339C630.412 718.821 629.784 719.511 628.527 719.787C627.131 720.132 626.154 719.442 625.456 718.959C625.037 718.683 624.758 718.408 624.408 718.408C623.71 718.339 621.127 719.649 619.591 720.546C619.522 720.684 619.382 720.684 619.312 720.684Z" fill="black"/>
<path d="M625.246 718.752C625.107 718.752 624.897 718.683 624.827 718.546C624.758 718.477 623.64 716.614 624.688 714.545C625.246 713.441 625.665 713.096 625.735 713.027C625.944 712.82 626.293 712.82 626.503 713.027C626.712 713.234 626.712 713.579 626.503 713.786C626.503 713.786 626.154 714.131 625.665 715.028C624.827 716.545 625.735 717.925 625.735 717.994C625.875 718.201 625.805 718.546 625.595 718.683C625.456 718.752 625.386 718.752 625.246 718.752Z" fill="black"/>
</g>
</g>
<path opacity="0.7" d="M629.96 695.469C625.807 695.469 621.747 696.7 618.293 699.008C614.84 701.315 612.148 704.595 610.559 708.432C608.969 712.269 608.553 716.492 609.364 720.565C610.174 724.639 612.174 728.381 615.111 731.318C618.048 734.255 621.79 736.255 625.863 737.065C629.937 737.875 634.159 737.459 637.996 735.87C641.834 734.281 645.113 731.589 647.421 728.135C649.728 724.682 650.96 720.622 650.96 716.469H629.96L629.96 695.469Z" fill="#202B45"/>
</g>
<rect x="606.96" y="693.469" width="46" height="46" rx="23" stroke="url(#paint20_linear_572_15012)" stroke-width="4"/>
<g filter="url(#filter13_f_572_15012)">
<circle cx="732.96" cy="653.469" r="25" fill="#CCD8ED"/>
</g>
<g clip-path="url(#clip18_572_15012)">
<g clip-path="url(#clip19_572_15012)">
<rect x="711.96" y="632.469" width="42" height="42" rx="21" fill="#242C3E"/>
<g clip-path="url(#clip20_572_15012)">
<path d="M730.509 653.353C730.509 653.353 733.25 651.969 733.877 649.431C733.877 649.431 733.407 652.507 736.774 653.815C736.774 653.815 733.798 654.122 733.485 656.583C733.485 656.583 733.485 653.891 730.509 653.353Z" fill="black"/>
<path d="M741.551 645.279C741.551 645.279 742.491 647.893 742.335 649.2C742.256 650.431 741.943 651.892 740.612 652.661C739.28 653.43 738.419 653.584 737.322 653.661C736.226 653.738 734.347 654.66 733.798 656.045C733.25 657.429 733.093 659.121 734.112 660.351C735.13 661.582 735.6 661.812 736.304 661.966C737.009 662.12 738.81 662.735 741.63 661.505C744.449 660.274 745.546 658.275 746.172 656.814C746.799 655.353 746.955 654.045 746.877 652.661C746.72 651.2 746.564 649.662 745.467 648.124C744.214 646.432 741.551 645.279 741.551 645.279Z" fill="white"/>
<path d="M738.341 663.12C737.322 663.12 736.618 662.889 736.148 662.812C735.286 662.581 734.581 662.274 733.485 660.889C732.467 659.582 732.31 657.737 733.015 655.814C733.72 654.045 735.913 653.046 737.244 652.892C738.341 652.815 738.967 652.738 740.142 651.969C741.238 651.354 741.473 650.2 741.551 649.047C741.63 648.278 741.082 646.432 740.768 645.432C740.69 645.125 740.768 644.817 741.003 644.586C741.238 644.356 741.551 644.356 741.865 644.433C742.021 644.509 744.762 645.663 746.094 647.586C747.268 649.354 747.503 650.969 747.66 652.507C747.817 654.199 747.582 655.583 746.955 657.044C746.172 658.813 744.919 660.889 742.021 662.12C740.533 662.966 739.28 663.12 738.341 663.12ZM742.805 646.817C743.039 647.662 743.196 648.585 743.118 649.2C743.039 650.585 742.726 652.277 741.003 653.276C739.437 654.199 738.576 654.276 737.401 654.353C736.461 654.43 734.895 655.199 734.503 656.275C734.112 657.275 733.798 658.736 734.738 659.89C735.6 660.966 735.991 661.12 736.539 661.274C737.244 661.505 738.81 661.889 741.317 660.889C743.744 659.89 744.762 658.121 745.467 656.583C746.015 655.353 746.172 654.199 746.094 652.815C746.015 651.431 745.78 650.046 744.841 648.585C744.293 647.893 743.509 647.278 742.805 646.817Z" fill="black"/>
<path d="M725.184 661.659C725.184 661.659 724.244 658.736 724.401 657.506C724.557 656.275 724.949 655.122 726.358 654.276C727.768 653.43 728.551 653.43 729.648 653.43C730.744 653.43 732.702 652.584 733.25 651.123C733.877 649.739 733.955 648.124 733.015 646.74C732.232 645.509 731.527 645.279 730.822 645.048C730.196 644.894 728.395 644.356 725.575 645.432C722.756 646.509 721.581 648.508 720.876 649.97C720.172 651.431 720.015 652.661 720.093 654.122C720.172 655.583 720.328 656.891 721.346 658.736C722.756 661.12 725.184 661.659 725.184 661.659Z" fill="white"/>
<path d="M725.184 662.428C725.105 662.428 725.027 662.428 725.027 662.428C724.949 662.428 722.286 661.735 720.72 659.044C719.545 657.044 719.388 655.583 719.31 654.122C719.232 652.43 719.467 651.046 720.172 649.585C720.955 647.893 722.286 645.74 725.262 644.663C728.316 643.51 730.274 644.125 731.057 644.433C731.919 644.74 732.78 645.048 733.642 646.509C734.581 647.97 734.66 649.739 733.877 651.584C733.093 653.353 730.901 654.276 729.569 654.353C728.473 654.43 727.846 654.43 726.593 655.122C725.575 655.66 725.105 656.429 725.027 657.737C724.949 658.506 725.497 660.505 725.81 661.582C725.888 661.812 725.81 662.12 725.654 662.351C725.575 662.351 725.419 662.428 725.184 662.428ZM728.63 645.586C727.846 645.586 726.907 645.74 725.81 646.124C723.382 647.047 722.286 648.739 721.581 650.277C721.033 651.508 720.798 652.661 720.876 654.045C720.955 655.429 721.111 656.583 722.051 658.352C722.599 659.275 723.304 659.89 723.931 660.351C723.696 659.428 723.461 658.275 723.539 657.583C723.696 655.814 724.479 654.584 725.888 653.815C727.455 652.969 728.316 652.892 729.491 652.815C730.431 652.738 731.997 652.046 732.467 651.046C732.859 650.123 733.172 648.662 732.31 647.432C731.605 646.355 731.136 646.201 730.587 646.048C730.274 645.74 729.569 645.586 728.63 645.586Z" fill="black"/>
<path d="M725.184 645.586C725.184 645.586 727.455 644.279 729.804 644.817C732.78 645.509 733.407 647.124 733.563 648.355C733.72 649.585 733.563 650.892 733.798 651.431C734.268 652.43 735.051 653.584 737.166 653.738C739.28 653.891 740.612 653.199 741.395 652.2C742.178 651.2 742.57 650.046 742.491 648.893C742.413 647.662 742.178 646.048 740.69 644.125C739.75 642.818 737.636 640.895 734.581 640.664C731.919 640.511 730.822 640.818 729.726 641.357C729.099 641.664 726.202 643.356 725.184 645.586Z" fill="#B1B2B1"/>
<path d="M737.792 654.507C737.557 654.507 737.401 654.507 737.166 654.507C734.425 654.353 733.563 652.584 733.093 651.738C732.859 651.277 732.859 650.662 732.859 649.97C732.859 649.508 732.859 648.97 732.78 648.431C732.624 647.355 732.075 646.124 729.569 645.586C727.611 645.048 725.575 646.201 725.575 646.201C725.262 646.355 724.949 646.355 724.635 646.124C724.401 645.894 724.322 645.586 724.479 645.279C725.575 642.895 728.551 641.049 729.569 640.664C730.901 640.049 732.154 639.742 734.738 639.972C738.576 640.203 740.768 642.895 741.395 643.74C742.961 645.894 743.274 647.739 743.353 648.97C743.431 650.277 742.961 651.584 742.1 652.738C741.16 653.891 739.75 654.507 737.792 654.507ZM728.63 643.894C729.099 643.894 729.569 643.971 730.039 644.048C732.624 644.663 734.112 645.971 734.425 648.201C734.503 648.816 734.503 649.431 734.503 649.97C734.503 650.354 734.503 650.892 734.581 651.046C735.051 651.969 735.6 652.815 737.322 652.969C738.967 653.046 740.142 652.661 740.847 651.738C741.473 650.815 741.865 649.893 741.786 648.97C741.708 647.893 741.473 646.432 740.142 644.586C739.672 643.894 737.792 641.664 734.66 641.433C732.075 641.28 731.136 641.587 730.196 642.049C729.804 642.202 728.395 642.971 727.298 644.048C727.69 643.971 728.16 643.894 728.63 643.894Z" fill="black"/>
<path d="M741.63 661.659C741.63 661.659 739.75 663.043 737.009 662.197C734.895 661.582 733.798 660.736 733.485 658.582C733.25 657.429 733.563 656.352 733.093 655.353C732.624 654.353 731.762 653.122 729.648 652.969C727.455 652.892 726.28 653.43 725.497 654.43C724.714 655.429 724.401 656.352 724.401 657.583C724.401 658.813 724.792 660.813 726.202 662.812C727.142 664.119 729.256 665.811 732.31 666.273C734.66 666.58 735.991 666.196 737.166 665.657C738.262 665.042 740.533 663.812 741.63 661.659Z" fill="#B1B2B1"/>
<path d="M733.798 667.119C733.328 667.119 732.702 667.042 732.154 666.965C728.943 666.503 726.672 664.735 725.575 663.197C723.696 660.659 723.617 658.198 723.617 657.506C723.617 656.199 724.009 655.122 724.87 653.968C725.81 652.661 727.376 652.123 729.726 652.277C732.31 652.43 733.328 653.968 733.877 655.122C734.268 655.891 734.268 656.583 734.268 657.352C734.268 657.737 734.268 658.121 734.347 658.582C734.66 660.274 735.365 660.966 737.322 661.582C739.594 662.274 741.16 661.197 741.238 661.12C741.551 660.889 741.943 660.889 742.178 661.12C742.491 661.351 742.57 661.735 742.335 662.043C741.473 663.735 739.829 665.196 737.479 666.273C736.383 666.811 735.286 667.119 733.798 667.119ZM728.943 653.815C727.142 653.815 726.515 654.353 726.123 654.891C725.419 655.814 725.184 656.583 725.184 657.583C725.184 658.736 725.575 660.582 726.828 662.351C727.69 663.581 729.726 665.119 732.389 665.504C734.66 665.811 735.756 665.427 736.774 664.965C737.792 664.504 738.654 663.966 739.359 663.35C738.576 663.427 737.714 663.35 736.774 663.12C734.66 662.504 733.093 661.505 732.702 658.967C732.624 658.275 732.624 657.813 732.624 657.352C732.624 656.737 732.624 656.275 732.389 655.814C731.919 654.891 731.292 653.968 729.569 653.891C729.334 653.815 729.178 653.815 728.943 653.815Z" fill="black"/>
</g>
</g>
</g>
<rect x="709.96" y="630.469" width="46" height="46" rx="23" stroke="url(#paint21_linear_572_15012)" stroke-width="4"/>
<g filter="url(#filter14_f_572_15012)">
<circle cx="762.96" cy="546.469" r="25" fill="#CCD8ED"/>
</g>
<g clip-path="url(#clip21_572_15012)">
<g clip-path="url(#clip22_572_15012)">
<rect x="741.96" y="525.469" width="42" height="42" rx="21" fill="#ECECEC"/>
<g clip-path="url(#clip23_572_15012)">
<path d="M768.09 554.34C769.137 554.064 771.022 554.547 771.301 554.271C771.581 554.064 775.141 548.132 774.932 547.097C774.722 546.131 774.722 544.338 773.466 541.441C772.698 539.716 772 538.061 770.743 537.095L769.486 536.129C768.928 535.302 768.718 534.474 768.369 534.129C767.881 533.784 764.46 533.37 763.901 533.508C763.343 533.646 762.365 534.267 761.597 535.302C761.458 535.509 761.388 535.716 760.62 535.647C759.712 535.578 757.827 535.371 757.339 535.647C756.85 535.922 754.546 537.371 754.476 538.199C754.406 539.026 755.244 540.13 754.965 540.751C754.825 541.027 750.008 544.269 750.008 545.717C750.008 546.545 750.357 547.58 750.846 548.408C751.055 548.683 751.265 549.028 751.754 549.718C752.103 550.27 752.172 551.029 752.103 551.236C751.963 553.098 751.404 553.236 751.404 553.719C751.404 554.202 751.823 556.133 752.172 556.409C752.521 556.754 754.197 557.168 756.012 557.651C756.501 557.789 757.478 558.133 757.897 558.409C758.735 558.961 759.573 560.272 760.271 560.41C760.969 560.479 764.529 558.616 765.646 557.582C766.135 557.168 766.554 556.34 766.903 555.374C767.113 555.236 767.601 554.409 768.09 554.34Z" fill="white"/>
<path d="M760.41 561.168C760.341 561.168 760.341 561.168 760.271 561.168C759.643 561.1 759.084 560.548 758.525 559.927C758.176 559.582 757.897 559.237 757.618 559.099C757.269 558.892 756.431 558.547 755.942 558.409L755.035 558.133C753.22 557.651 752.242 557.375 751.823 557.03C751.125 556.478 750.776 554.202 750.776 553.788C750.776 553.443 750.916 553.167 750.986 552.96C751.125 552.684 751.335 552.27 751.404 551.236C751.404 551.029 751.404 550.477 751.125 550.132C750.916 549.856 750.776 549.649 750.637 549.511C750.427 549.235 750.287 549.028 750.148 548.821C749.659 547.787 749.31 546.614 749.31 545.717C749.31 544.545 750.846 543.096 753.569 540.958C753.848 540.751 754.127 540.475 754.337 540.337C754.337 540.199 754.197 539.854 754.127 539.647C753.848 539.233 753.639 538.613 753.778 538.061C753.918 536.957 755.873 535.716 756.99 535.026C757.478 534.75 758.386 534.75 760.271 534.888H760.69C760.829 534.888 760.969 534.888 760.969 534.888V534.819C761.737 533.715 762.854 533.025 763.622 532.818C764.39 532.612 767.95 533.025 768.718 533.508C769.067 533.784 769.277 534.198 769.486 534.681C769.626 534.957 769.766 535.302 769.975 535.578L771.092 536.474C772.418 537.509 773.186 539.164 774.024 541.096C775.071 543.441 775.281 545.097 775.42 546.2C775.49 546.476 775.49 546.683 775.56 546.89C775.839 548.339 772 554.478 771.72 554.685C771.371 554.96 770.952 554.891 770.115 554.822C769.556 554.754 768.718 554.685 768.299 554.822C768.16 554.891 767.811 555.305 767.741 555.512C767.322 556.616 766.833 557.444 766.345 557.927C765.297 559.03 761.667 561.168 760.41 561.168ZM758.246 536.198C757.967 536.198 757.758 536.198 757.688 536.267C756.501 537.026 755.244 537.923 755.174 538.337C755.174 538.544 755.314 538.958 755.454 539.302C755.593 539.785 755.873 540.406 755.593 540.958C755.523 541.165 755.314 541.303 754.406 542.062C751.963 543.993 750.706 545.235 750.706 545.717C750.706 546.338 750.986 547.304 751.474 547.994C751.614 548.201 751.684 548.339 751.893 548.614C752.033 548.821 752.172 549.028 752.382 549.235C752.871 549.925 752.94 550.822 752.871 551.236C752.801 552.615 752.452 553.167 752.312 553.512C752.242 553.581 752.242 553.719 752.242 553.719C752.242 554.202 752.591 555.65 752.801 555.926C753.01 556.064 754.337 556.478 755.454 556.754L756.361 557.03C756.71 557.099 757.827 557.513 758.456 557.858C758.875 558.133 759.224 558.547 759.643 558.892C759.922 559.168 760.41 559.651 760.62 559.72C761.178 559.651 764.39 557.995 765.437 557.03C765.786 556.685 766.135 555.995 766.484 555.098C766.554 554.822 767.182 553.788 768.02 553.581C768.718 553.374 769.626 553.443 770.394 553.512C770.603 553.512 770.883 553.581 771.022 553.581C771.72 552.546 774.303 547.994 774.303 547.166C774.234 546.959 774.234 546.752 774.164 546.407C774.024 545.372 773.815 543.855 772.837 541.648C772 539.992 771.301 538.475 770.254 537.647L768.858 536.543C768.579 536.129 768.369 535.716 768.23 535.371C768.09 535.164 767.95 534.819 767.881 534.75C767.462 534.474 764.529 534.06 763.971 534.198C763.552 534.336 762.714 534.819 762.086 535.716C761.807 536.06 761.458 536.405 760.48 536.336H760.061C759.643 536.267 758.805 536.198 758.246 536.198Z" fill="black"/>
<path d="M767.392 555.926L766.414 555.581C766.414 555.512 767.601 552.063 765.647 547.373C764.948 545.648 764.599 544.338 764.599 543.165C764.599 541.924 764.599 539.578 766.833 537.785C768.16 536.681 769.696 536.06 769.766 535.991L770.184 536.957C770.184 536.957 768.718 537.578 767.462 538.544C765.786 539.854 765.647 541.579 765.647 543.096C765.647 543.786 765.716 544.89 766.624 546.89C768.718 552.132 767.392 555.788 767.392 555.926Z" fill="black"/>
<path d="M757.478 557.927L756.571 557.444C756.64 557.375 757.618 555.512 759.433 553.788C760.341 552.96 761.388 552.408 762.295 551.925C763.203 551.443 763.971 551.029 764.529 550.408C765.926 548.683 765.367 546.545 765.367 546.545L766.414 546.269C766.414 546.407 767.043 548.959 765.367 551.029C764.739 551.856 763.831 552.339 762.854 552.822C761.946 553.305 761.039 553.788 760.271 554.547C758.386 556.202 757.478 557.927 757.478 557.927Z" fill="black"/>
<path d="M758.665 544.407L758.456 543.648C758.176 542.544 757.758 541.855 757.548 541.648C756.71 540.82 755.384 540.889 755.384 540.958L755.314 539.923C755.384 539.923 757.129 539.785 758.316 540.958C758.595 541.303 758.944 541.924 759.224 542.751C759.992 542.337 761.458 541.717 763.273 541.993C765.297 542.268 765.646 543.993 765.646 544.062L764.669 544.2C764.669 544.131 764.46 543.165 763.133 542.958C760.899 542.613 759.293 543.924 759.293 543.924L758.665 544.407Z" fill="black"/>
<path d="M757.618 540.751L756.571 540.475C756.571 540.406 757.059 538.613 759.014 537.854C759.573 537.647 760.061 537.509 760.48 537.371C760.69 537.302 760.969 537.233 761.039 537.164C761.039 537.164 761.039 537.095 761.039 537.026C761.039 536.543 760.62 535.923 760.48 535.785L761.318 535.164C761.388 535.233 762.086 536.198 762.086 537.095C762.086 537.992 761.458 538.199 760.76 538.406C760.41 538.475 759.992 538.613 759.433 538.82C757.967 539.44 757.618 540.751 757.618 540.751Z" fill="black"/>
<path d="M752.312 550.684C752.103 550.684 751.963 550.615 751.893 550.408C751.754 550.132 751.823 549.856 752.103 549.718C752.801 549.304 756.291 547.373 757.548 547.442C758.176 547.511 758.665 547.856 759.154 548.201C759.852 548.683 760.41 549.097 761.318 548.821C762.086 548.614 762.575 548.27 762.854 547.787C763.063 547.442 763.063 547.097 762.994 546.89C762.924 546.545 762.784 546.269 762.575 546.2C762.435 546.131 762.016 546.062 760.969 546.476C760.69 546.614 760.41 546.476 760.271 546.2C760.131 545.924 760.271 545.648 760.55 545.51C761.597 545.028 762.435 544.959 762.994 545.235C763.692 545.579 763.901 546.269 763.971 546.614C764.111 547.166 764.041 547.787 763.692 548.339C763.412 548.821 762.784 549.511 761.527 549.787C760.131 550.132 759.154 549.442 758.456 548.959C758.037 548.683 757.758 548.408 757.408 548.408C756.71 548.339 754.127 549.649 752.591 550.546C752.522 550.684 752.382 550.684 752.312 550.684Z" fill="black"/>
<path d="M758.246 548.752C758.107 548.752 757.897 548.683 757.827 548.545C757.758 548.476 756.64 546.614 757.688 544.545C758.246 543.441 758.665 543.096 758.735 543.027C758.944 542.82 759.293 542.82 759.503 543.027C759.712 543.234 759.712 543.579 759.503 543.786C759.503 543.786 759.154 544.131 758.665 545.028C757.827 546.545 758.735 547.925 758.735 547.994C758.875 548.201 758.805 548.545 758.595 548.683C758.456 548.752 758.386 548.752 758.246 548.752Z" fill="black"/>
</g>
</g>
</g>
<rect x="739.96" y="523.469" width="46" height="46" rx="23" stroke="url(#paint22_linear_572_15012)" stroke-width="4"/>
<path opacity="0.2" d="M343.408 55.8267C356.316 49.217 364.216 46.4585 378.375 43.3269C392.992 40.0943 401.601 39.3971 416.56 39.9609C431.988 40.5423 440.76 42.0851 455.541 46.5405" stroke="url(#paint23_linear_572_15012)" stroke-width="4"/>
<path opacity="0.2" d="M455.541 46.5404C470.771 51.131 479.117 54.9464 492.697 63.2284C506.678 71.7545 514.004 77.7186 525.385 89.4917C537.093 101.602 542.842 109.435 551.124 124.103" stroke="url(#paint24_linear_572_15012)" stroke-width="4"/>
<path opacity="0.2" d="M551.125 124.103C559.637 139.179 563.332 148.457 567.778 165.19C572.344 182.376 573.623 192.553 573.721 210.335C573.822 228.586 572.469 239.026 567.98 256.717" stroke="url(#paint25_linear_572_15012)" stroke-width="4"/>
<path opacity="0.2" d="M567.98 256.717C563.376 274.863 559.344 284.88 550.33 301.288C541.09 318.108 534.513 327.01 521.346 340.971C507.857 355.274 496.135 362.999 482.4 372.873" stroke="url(#paint26_linear_572_15012)" stroke-width="4"/>
<g filter="url(#filter15_d_572_15012)">
<path d="M343.408 55.8267C356.316 49.217 364.216 46.4585 378.375 43.3269C392.992 40.0943 401.601 39.3971 416.56 39.9609C431.988 40.5423 440.76 42.0851 455.541 46.5405" stroke="url(#paint27_linear_572_15012)" stroke-width="4"/>
</g>
<g filter="url(#filter16_f_572_15012)">
<circle cx="481.149" cy="372.905" r="25" fill="#CCD8ED"/>
</g>
<g clip-path="url(#clip24_572_15012)">
<rect x="461.149" y="352.905" width="40" height="40" rx="20" fill="#202B45" stroke="#435475" stroke-width="2"/>
</g>
<rect x="458.149" y="349.905" width="46" height="46" rx="23" stroke="url(#paint28_linear_572_15012)" stroke-width="4"/>
<g filter="url(#filter17_f_572_15012)">
<circle cx="568.96" cy="256.4" r="25" fill="#CCD8ED"/>
</g>
<g clip-path="url(#clip25_572_15012)">
<rect x="548.96" y="236.4" width="40" height="40" rx="20" fill="#202B45" stroke="#435475" stroke-width="2"/>
</g>
<rect x="545.96" y="233.4" width="46" height="46" rx="23" stroke="url(#paint29_linear_572_15012)" stroke-width="4"/>
<g filter="url(#filter18_f_572_15012)">
<circle cx="549.523" cy="125.259" r="25" fill="#CCD8ED"/>
</g>
<g clip-path="url(#clip26_572_15012)">
<rect x="529.523" y="105.259" width="40" height="40" rx="20" fill="#202B45" stroke="#435475" stroke-width="2"/>
</g>
<rect x="526.523" y="102.259" width="46" height="46" rx="23" stroke="url(#paint30_linear_572_15012)" stroke-width="4"/>
<g filter="url(#filter19_f_572_15012)">
<circle cx="455.437" cy="49.5896" r="25" fill="#CCD8ED"/>
</g>
<g clip-path="url(#clip27_572_15012)">
<g clip-path="url(#clip28_572_15012)">
<rect x="434.437" y="28.5896" width="42" height="42" rx="21" fill="#ECC081"/>
<g clip-path="url(#clip29_572_15012)">
<path d="M452.43 34.6256C452.43 34.6256 456.7 36.6695 461.124 42.8796C465.549 49.0898 465.394 53.0989 464.928 56.086C464.307 60.0165 459.882 63.554 453.983 62.2176C448.083 60.8812 446.298 56.086 446.919 52.47C447.695 47.9892 450.878 47.3604 452.352 44.0588C453.983 40.5213 453.983 36.5122 452.43 34.6256Z" fill="white"/>
<path d="M456.467 63.2396C455.613 63.2396 454.681 63.161 453.75 62.9252C447.462 61.5102 445.366 56.4006 446.142 52.3129C446.686 49.4043 448.083 47.9107 449.403 46.5744C450.257 45.7097 451.11 44.9236 451.654 43.6658C453.206 40.3642 453.284 36.6696 451.887 35.0974C451.654 34.7829 451.654 34.3899 451.887 34.0754C452.042 33.8396 452.43 33.761 452.741 33.9182C452.896 33.9968 457.243 36.1193 461.745 42.4081C466.17 48.6182 466.248 52.7059 465.704 56.1647C465.394 58.2872 464.074 60.2524 462.211 61.5888C460.503 62.6893 458.563 63.2396 456.467 63.2396ZM454.138 36.6696C454.604 38.8706 454.215 41.7006 452.973 44.3733C452.275 45.8669 451.343 46.8102 450.412 47.6749C449.17 48.9327 448.005 50.1118 447.617 52.5487C446.996 56.0861 448.782 60.1738 454.06 61.353C456.7 61.9819 459.261 61.5888 461.202 60.1738C462.754 59.0733 463.764 57.5011 464.074 55.8503C464.54 52.7059 464.462 49.0113 460.426 43.2728C458.097 39.9712 455.768 37.9273 454.138 36.6696Z" fill="black"/>
<path d="M451.343 46.7316C451.343 46.7316 451.343 50.662 454.215 52.7845C455.768 53.9637 459.416 54.5139 461.357 52.4701C462.832 50.8979 463.065 48.6968 463.143 47.6749C463.143 47.6749 465.394 51.9984 464.074 56.6364C463.608 58.3658 462.366 59.8594 460.27 60.8813C458.33 61.8246 456.234 61.9032 454.06 61.4316C452.197 61.0385 450.722 60.1738 449.48 58.9947C448.238 57.8155 447.695 56.3219 447.54 55.0642C447.384 53.6492 447.462 52.2342 448.083 50.7407C448.704 49.0899 450.179 47.9107 451.343 46.7316Z" fill="#B1B2B1"/>
</g>
</g>
</g>
<rect x="432.437" y="26.5896" width="46" height="46" rx="23" stroke="url(#paint31_linear_572_15012)" stroke-width="4"/>
<g filter="url(#filter20_f_572_15012)">
<circle cx="344.592" cy="57.4919" r="25" fill="#CCD8ED"/>
</g>
<g clip-path="url(#clip30_572_15012)">
<g clip-path="url(#clip31_572_15012)">
<rect x="323.592" y="36.4919" width="42" height="42" rx="21" fill="#ECECEC"/>
<g clip-path="url(#clip32_572_15012)">
<path d="M349.722 65.3631C350.769 65.0872 352.654 65.57 352.934 65.2941C353.213 65.0872 356.773 59.155 356.564 58.1204C356.355 57.1547 356.355 55.3612 355.098 52.4642C354.33 50.7397 353.632 49.0842 352.375 48.1185L351.119 47.1529C350.56 46.3251 350.351 45.4974 350.002 45.1525C349.513 44.8076 346.092 44.3937 345.533 44.5317C344.975 44.6696 343.998 45.2904 343.23 46.3251C343.09 46.532 343.02 46.739 342.252 46.67C341.345 46.601 339.46 46.3941 338.971 46.67C338.482 46.9459 336.178 48.3945 336.109 49.2222C336.039 50.0499 336.877 51.1536 336.597 51.7744C336.458 52.0503 331.641 55.2923 331.641 56.7408C331.641 57.5685 331.99 58.6032 332.478 59.431C332.688 59.7069 332.897 60.0518 333.386 60.7415C333.735 61.2934 333.805 62.0521 333.735 62.2591C333.595 64.1215 333.037 64.2594 333.037 64.7423C333.037 65.2251 333.456 67.1565 333.805 67.4324C334.154 67.7773 335.829 68.1912 337.644 68.674C338.133 68.812 339.111 69.1569 339.529 69.4328C340.367 69.9846 341.205 71.2952 341.903 71.4331C342.601 71.5021 346.162 69.6397 347.279 68.605C347.767 68.1912 348.186 67.3634 348.535 66.3977C348.745 66.2598 349.234 65.4321 349.722 65.3631Z" fill="white"/>
<path d="M342.043 72.1919C341.973 72.1919 341.973 72.1919 341.903 72.1919C341.275 72.1229 340.716 71.5711 340.158 70.9503C339.809 70.6054 339.529 70.2605 339.25 70.1226C338.901 69.9156 338.063 69.5708 337.575 69.4328L336.667 69.1569C334.852 68.674 333.875 68.3981 333.456 68.0532C332.758 67.5014 332.408 65.2251 332.408 64.8113C332.408 64.4664 332.548 64.1905 332.618 63.9835C332.758 63.7076 332.967 63.2937 333.037 62.2591C333.037 62.0521 333.037 61.5003 332.758 61.1554C332.548 60.8795 332.408 60.6726 332.269 60.5346C332.059 60.2587 331.92 60.0518 331.78 59.8448C331.291 58.8102 330.942 57.6375 330.942 56.7408C330.942 55.5682 332.478 54.1197 335.201 51.9813C335.48 51.7744 335.76 51.4985 335.969 51.3605C335.969 51.2226 335.829 50.8777 335.76 50.6707C335.48 50.2569 335.271 49.6361 335.41 49.0843C335.55 47.9806 337.505 46.739 338.622 46.0492C339.111 45.7733 340.018 45.7733 341.903 45.9113H342.322C342.462 45.9113 342.601 45.9113 342.601 45.9113V45.8423C343.369 44.7386 344.486 44.0489 345.254 43.8419C346.022 43.635 349.583 44.0489 350.351 44.5317C350.7 44.8076 350.909 45.2215 351.119 45.7043C351.258 45.9802 351.398 46.3251 351.607 46.601L352.724 47.4978C354.051 48.5324 354.819 50.1879 355.656 52.1193C356.704 54.4645 356.913 56.12 357.053 57.2237C357.123 57.4996 357.123 57.7065 357.192 57.9135C357.472 59.362 353.632 65.501 353.353 65.708C353.004 65.9839 352.585 65.9149 351.747 65.8459C351.188 65.777 350.351 65.708 349.932 65.8459C349.792 65.9149 349.443 66.3288 349.373 66.5357C348.954 67.6394 348.466 68.4671 347.977 68.95C346.93 70.0536 343.299 72.1919 342.043 72.1919ZM339.879 47.2218C339.599 47.2218 339.39 47.2218 339.32 47.2908C338.133 48.0496 336.877 48.9463 336.807 49.3602C336.807 49.5671 336.946 49.981 337.086 50.3259C337.226 50.8087 337.505 51.4295 337.226 51.9813C337.156 52.1883 336.946 52.3262 336.039 53.085C333.595 55.0164 332.339 56.258 332.339 56.7408C332.339 57.3616 332.618 58.3273 333.107 59.0171C333.246 59.224 333.316 59.362 333.525 59.6379C333.665 59.8448 333.805 60.0518 334.014 60.2587C334.503 60.9485 334.573 61.8452 334.503 62.2591C334.433 63.6386 334.084 64.1905 333.944 64.5353C333.875 64.6043 333.875 64.7423 333.875 64.7423C333.875 65.2251 334.224 66.6737 334.433 66.9496C334.642 67.0875 335.969 67.5014 337.086 67.7773L337.994 68.0532C338.343 68.1222 339.46 68.5361 340.088 68.881C340.507 69.1569 340.856 69.5708 341.275 69.9156C341.554 70.1916 342.043 70.6744 342.252 70.7434C342.811 70.6744 346.022 69.0189 347.069 68.0532C347.418 67.7083 347.767 67.0186 348.117 66.1218C348.186 65.8459 348.815 64.8113 349.652 64.6043C350.351 64.3974 351.258 64.4664 352.026 64.5353C352.236 64.5353 352.515 64.6043 352.654 64.6043C353.353 63.5697 355.936 59.0171 355.936 58.1894C355.866 57.9824 355.866 57.7755 355.796 57.4306C355.656 56.3959 355.447 54.8784 354.47 52.6711C353.632 51.0156 352.934 49.4981 351.887 48.6704L350.49 47.5667C350.211 47.1529 350.002 46.739 349.862 46.3941C349.722 46.1872 349.583 45.8423 349.513 45.7733C349.094 45.4974 346.162 45.0835 345.603 45.2215C345.184 45.3594 344.347 45.8423 343.718 46.739C343.439 47.0839 343.09 47.4288 342.113 47.3598H341.694C341.275 47.2908 340.437 47.2218 339.879 47.2218Z" fill="black"/>
<path d="M349.024 66.9496L348.047 66.6047C348.047 66.5357 349.234 63.0868 347.279 58.3963C346.581 56.6718 346.232 55.3612 346.232 54.1886C346.232 52.947 346.232 50.6018 348.466 48.8083C349.792 47.7047 351.328 47.0839 351.398 47.0149L351.817 47.9806C351.817 47.9806 350.351 48.6014 349.094 49.5671C347.418 50.8777 347.279 52.6021 347.279 54.1196C347.279 54.8094 347.349 55.9131 348.256 57.9134C350.351 63.1558 349.024 66.8116 349.024 66.9496Z" fill="black"/>
<path d="M339.111 68.95L338.203 68.4671C338.273 68.3981 339.25 66.5357 341.065 64.8113C341.973 63.9835 343.02 63.4317 343.928 62.9489C344.835 62.466 345.603 62.0522 346.162 61.4314C347.558 59.7069 347 57.5686 347 57.5686L348.047 57.2927C348.047 57.4306 348.675 59.9828 347 62.0522C346.371 62.8799 345.464 63.3627 344.486 63.8456C343.579 64.3284 342.671 64.8113 341.903 65.57C340.018 67.2255 339.111 68.95 339.111 68.95Z" fill="black"/>
<path d="M340.297 55.4302L340.088 54.6715C339.809 53.5678 339.39 52.878 339.18 52.6711C338.343 51.8434 337.016 51.9123 337.016 51.9813L336.946 50.9467C337.016 50.9467 338.762 50.8087 339.948 51.9813C340.228 52.3262 340.577 52.947 340.856 53.7748C341.624 53.3609 343.09 52.7401 344.905 53.016C346.93 53.2919 347.279 55.0164 347.279 55.0853L346.301 55.2233C346.301 55.1543 346.092 54.1886 344.765 53.9817C342.531 53.6368 340.926 54.9474 340.926 54.9474L340.297 55.4302Z" fill="black"/>
<path d="M339.25 51.7744L338.203 51.4985C338.203 51.4295 338.692 49.6361 340.646 48.8773C341.205 48.6704 341.694 48.5325 342.113 48.3945C342.322 48.3255 342.601 48.2565 342.671 48.1876C342.671 48.1876 342.671 48.1186 342.671 48.0496C342.671 47.5668 342.252 46.946 342.113 46.808L342.95 46.1872C343.02 46.2562 343.718 47.2219 343.718 48.1186C343.718 49.0153 343.09 49.2222 342.392 49.4292C342.043 49.4981 341.624 49.6361 341.065 49.843C339.599 50.4638 339.25 51.7744 339.25 51.7744Z" fill="black"/>
<path d="M333.944 61.7073C333.735 61.7073 333.595 61.6383 333.525 61.4314C333.386 61.1554 333.456 60.8795 333.735 60.7416C334.433 60.3277 337.924 58.3963 339.18 58.4653C339.809 58.5343 340.297 58.8792 340.786 59.2241C341.484 59.7069 342.043 60.1208 342.95 59.8449C343.718 59.6379 344.207 59.293 344.486 58.8102C344.696 58.4653 344.696 58.1204 344.626 57.9135C344.556 57.5686 344.416 57.2927 344.207 57.2237C344.067 57.1547 343.648 57.0857 342.601 57.4996C342.322 57.6376 342.043 57.4996 341.903 57.2237C341.764 56.9478 341.903 56.6719 342.182 56.5339C343.23 56.0511 344.067 55.9821 344.626 56.258C345.324 56.6029 345.533 57.2927 345.603 57.6376C345.743 58.1894 345.673 58.8102 345.324 59.362C345.045 59.8449 344.416 60.5346 343.16 60.8106C341.764 61.1554 340.786 60.4657 340.088 59.9828C339.669 59.7069 339.39 59.431 339.041 59.431C338.343 59.362 335.76 60.6726 334.224 61.5693C334.154 61.7073 334.014 61.7073 333.944 61.7073Z" fill="black"/>
<path d="M339.879 59.7758C339.739 59.7758 339.529 59.7069 339.46 59.5689C339.39 59.4999 338.273 57.6375 339.32 55.5682C339.879 54.4645 340.297 54.1196 340.367 54.0506C340.577 53.8437 340.926 53.8437 341.135 54.0506C341.345 54.2576 341.345 54.6025 341.135 54.8094C341.135 54.8094 340.786 55.1543 340.297 56.051C339.46 57.5685 340.367 58.9481 340.367 59.0171C340.507 59.224 340.437 59.5689 340.228 59.7069C340.088 59.7758 340.018 59.7758 339.879 59.7758Z" fill="black"/>
</g>
</g>
</g>
<rect x="321.592" y="34.4919" width="46" height="46" rx="23" stroke="url(#paint32_linear_572_15012)" stroke-width="4"/>
<defs>
<filter id="filter0_d_572_15012" x="44.3016" y="612.212" width="94.6719" height="93.6944" filterUnits="userSpaceOnUse" color-interpolation-filters="sRGB">
<feFlood flood-opacity="0" result="BackgroundImageFix"/>
<feColorMatrix in="SourceAlpha" type="matrix" values="0 0 0 0 0 0 0 0 0 0 0 0 0 0 0 0 0 0 127 0" result="hardAlpha"/>
<feMorphology radius="2" operator="dilate" in="SourceAlpha" result="effect1_dropShadow_572_15012"/>
<feOffset/>
<feGaussianBlur stdDeviation="2"/>
<feComposite in2="hardAlpha" operator="out"/>
<feColorMatrix type="matrix" values="0 0 0 0 0.184314 0 0 0 0 0.768627 0 0 0 0 0.827451 0 0 0 0.75 0"/>
<feBlend mode="normal" in2="BackgroundImageFix" result="effect1_dropShadow_572_15012"/>
<feBlend mode="normal" in="SourceGraphic" in2="effect1_dropShadow_572_15012" result="shape"/>
</filter>
<filter id="filter1_d_572_15012" x="30.2902" y="489.294" width="29.669" height="136.537" filterUnits="userSpaceOnUse" color-interpolation-filters="sRGB">
<feFlood flood-opacity="0" result="BackgroundImageFix"/>
<feColorMatrix in="SourceAlpha" type="matrix" values="0 0 0 0 0 0 0 0 0 0 0 0 0 0 0 0 0 0 127 0" result="hardAlpha"/>
<feMorphology radius="2" operator="dilate" in="SourceAlpha" result="effect1_dropShadow_572_15012"/>
<feOffset/>
<feGaussianBlur stdDeviation="2"/>
<feComposite in2="hardAlpha" operator="out"/>
<feColorMatrix type="matrix" values="0 0 0 0 0.184314 0 0 0 0 0.768627 0 0 0 0 0.827451 0 0 0 0.75 0"/>
<feBlend mode="normal" in2="BackgroundImageFix" result="effect1_dropShadow_572_15012"/>
<feBlend mode="normal" in="SourceGraphic" in2="effect1_dropShadow_572_15012" result="shape"/>
</filter>
<filter id="filter2_f_572_15012" x="233.122" y="338.155" width="98" height="98" filterUnits="userSpaceOnUse" color-interpolation-filters="sRGB">
<feFlood flood-opacity="0" result="BackgroundImageFix"/>
<feBlend mode="normal" in="SourceGraphic" in2="BackgroundImageFix" result="shape"/>
<feGaussianBlur stdDeviation="12" result="effect1_foregroundBlur_572_15012"/>
</filter>
<filter id="filter3_f_572_15012" x="87.484" y="346.742" width="98" height="98" filterUnits="userSpaceOnUse" color-interpolation-filters="sRGB">
<feFlood flood-opacity="0" result="BackgroundImageFix"/>
<feBlend mode="normal" in="SourceGraphic" in2="BackgroundImageFix" result="shape"/>
<feGaussianBlur stdDeviation="12" result="effect1_foregroundBlur_572_15012"/>
</filter>
<filter id="filter4_f_572_15012" x="0.176483" y="446.508" width="98" height="98" filterUnits="userSpaceOnUse" color-interpolation-filters="sRGB">
<feFlood flood-opacity="0" result="BackgroundImageFix"/>
<feBlend mode="normal" in="SourceGraphic" in2="BackgroundImageFix" result="shape"/>
<feGaussianBlur stdDeviation="12" result="effect1_foregroundBlur_572_15012"/>
</filter>
<filter id="filter5_f_572_15012" x="3.48788" y="567.201" width="98" height="98" filterUnits="userSpaceOnUse" color-interpolation-filters="sRGB">
<feFlood flood-opacity="0" result="BackgroundImageFix"/>
<feBlend mode="normal" in="SourceGraphic" in2="BackgroundImageFix" result="shape"/>
<feGaussianBlur stdDeviation="12" result="effect1_foregroundBlur_572_15012"/>
</filter>
<filter id="filter6_f_572_15012" x="81.3189" y="646.52" width="98" height="98" filterUnits="userSpaceOnUse" color-interpolation-filters="sRGB">
<feFlood flood-opacity="0" result="BackgroundImageFix"/>
<feBlend mode="normal" in="SourceGraphic" in2="BackgroundImageFix" result="shape"/>
<feGaussianBlur stdDeviation="12" result="effect1_foregroundBlur_572_15012"/>
</filter>
<filter id="filter7_d_572_15012" x="728.268" y="538.731" width="45.687" height="122.264" filterUnits="userSpaceOnUse" color-interpolation-filters="sRGB">
<feFlood flood-opacity="0" result="BackgroundImageFix"/>
<feColorMatrix in="SourceAlpha" type="matrix" values="0 0 0 0 0 0 0 0 0 0 0 0 0 0 0 0 0 0 127 0" result="hardAlpha"/>
<feMorphology radius="2" operator="dilate" in="SourceAlpha" result="effect1_dropShadow_572_15012"/>
<feOffset/>
<feGaussianBlur stdDeviation="2"/>
<feComposite in2="hardAlpha" operator="out"/>
<feColorMatrix type="matrix" values="0 0 0 0 0.184314 0 0 0 0 0.768627 0 0 0 0 0.827451 0 0 0 0.75 0"/>
<feBlend mode="normal" in2="BackgroundImageFix" result="effect1_dropShadow_572_15012"/>
<feBlend mode="normal" in="SourceGraphic" in2="effect1_dropShadow_572_15012" result="shape"/>
</filter>
<filter id="filter8_d_572_15012" x="624.547" y="646.63" width="118.947" height="79.4144" filterUnits="userSpaceOnUse" color-interpolation-filters="sRGB">
<feFlood flood-opacity="0" result="BackgroundImageFix"/>
<feColorMatrix in="SourceAlpha" type="matrix" values="0 0 0 0 0 0 0 0 0 0 0 0 0 0 0 0 0 0 127 0" result="hardAlpha"/>
<feMorphology radius="2" operator="dilate" in="SourceAlpha" result="effect1_dropShadow_572_15012"/>
<feOffset/>
<feGaussianBlur stdDeviation="2"/>
<feComposite in2="hardAlpha" operator="out"/>
<feColorMatrix type="matrix" values="0 0 0 0 0.184314 0 0 0 0 0.768627 0 0 0 0 0.827451 0 0 0 0.75 0"/>
<feBlend mode="normal" in2="BackgroundImageFix" result="effect1_dropShadow_572_15012"/>
<feBlend mode="normal" in="SourceGraphic" in2="effect1_dropShadow_572_15012" result="shape"/>
</filter>
<filter id="filter9_d_572_15012" x="493.135" y="682.097" width="144.105" height="46.7498" filterUnits="userSpaceOnUse" color-interpolation-filters="sRGB">
<feFlood flood-opacity="0" result="BackgroundImageFix"/>
<feColorMatrix in="SourceAlpha" type="matrix" values="0 0 0 0 0 0 0 0 0 0 0 0 0 0 0 0 0 0 127 0" result="hardAlpha"/>
<feMorphology radius="2" operator="dilate" in="SourceAlpha" result="effect1_dropShadow_572_15012"/>
<feOffset/>
<feGaussianBlur stdDeviation="2"/>
<feComposite in2="hardAlpha" operator="out"/>
<feColorMatrix type="matrix" values="0 0 0 0 0.184314 0 0 0 0 0.768627 0 0 0 0 0.827451 0 0 0 0.75 0"/>
<feBlend mode="normal" in2="BackgroundImageFix" result="effect1_dropShadow_572_15012"/>
<feBlend mode="normal" in="SourceGraphic" in2="effect1_dropShadow_572_15012" result="shape"/>
</filter>
<filter id="filter10_f_572_15012" x="370.96" y="519.469" width="98" height="98" filterUnits="userSpaceOnUse" color-interpolation-filters="sRGB">
<feFlood flood-opacity="0" result="BackgroundImageFix"/>
<feBlend mode="normal" in="SourceGraphic" in2="BackgroundImageFix" result="shape"/>
<feGaussianBlur stdDeviation="12" result="effect1_foregroundBlur_572_15012"/>
</filter>
<filter id="filter11_f_572_15012" x="450.96" y="641.469" width="98" height="98" filterUnits="userSpaceOnUse" color-interpolation-filters="sRGB">
<feFlood flood-opacity="0" result="BackgroundImageFix"/>
<feBlend mode="normal" in="SourceGraphic" in2="BackgroundImageFix" result="shape"/>
<feGaussianBlur stdDeviation="12" result="effect1_foregroundBlur_572_15012"/>
</filter>
<filter id="filter12_f_572_15012" x="580.96" y="667.469" width="98" height="98" filterUnits="userSpaceOnUse" color-interpolation-filters="sRGB">
<feFlood flood-opacity="0" result="BackgroundImageFix"/>
<feBlend mode="normal" in="SourceGraphic" in2="BackgroundImageFix" result="shape"/>
<feGaussianBlur stdDeviation="12" result="effect1_foregroundBlur_572_15012"/>
</filter>
<filter id="filter13_f_572_15012" x="683.96" y="604.469" width="98" height="98" filterUnits="userSpaceOnUse" color-interpolation-filters="sRGB">
<feFlood flood-opacity="0" result="BackgroundImageFix"/>
<feBlend mode="normal" in="SourceGraphic" in2="BackgroundImageFix" result="shape"/>
<feGaussianBlur stdDeviation="12" result="effect1_foregroundBlur_572_15012"/>
</filter>
<filter id="filter14_f_572_15012" x="713.96" y="497.469" width="98" height="98" filterUnits="userSpaceOnUse" color-interpolation-filters="sRGB">
<feFlood flood-opacity="0" result="BackgroundImageFix"/>
<feBlend mode="normal" in="SourceGraphic" in2="BackgroundImageFix" result="shape"/>
<feGaussianBlur stdDeviation="12" result="effect1_foregroundBlur_572_15012"/>
</filter>
<filter id="filter15_d_572_15012" x="336.496" y="31.7842" width="125.622" height="31.8227" filterUnits="userSpaceOnUse" color-interpolation-filters="sRGB">
<feFlood flood-opacity="0" result="BackgroundImageFix"/>
<feColorMatrix in="SourceAlpha" type="matrix" values="0 0 0 0 0 0 0 0 0 0 0 0 0 0 0 0 0 0 127 0" result="hardAlpha"/>
<feMorphology radius="2" operator="dilate" in="SourceAlpha" result="effect1_dropShadow_572_15012"/>
<feOffset/>
<feGaussianBlur stdDeviation="2"/>
<feComposite in2="hardAlpha" operator="out"/>
<feColorMatrix type="matrix" values="0 0 0 0 0.184314 0 0 0 0 0.768627 0 0 0 0 0.827451 0 0 0 0.75 0"/>
<feBlend mode="normal" in2="BackgroundImageFix" result="effect1_dropShadow_572_15012"/>
<feBlend mode="normal" in="SourceGraphic" in2="effect1_dropShadow_572_15012" result="shape"/>
</filter>
<filter id="filter16_f_572_15012" x="432.149" y="323.905" width="98" height="98" filterUnits="userSpaceOnUse" color-interpolation-filters="sRGB">
<feFlood flood-opacity="0" result="BackgroundImageFix"/>
<feBlend mode="normal" in="SourceGraphic" in2="BackgroundImageFix" result="shape"/>
<feGaussianBlur stdDeviation="12" result="effect1_foregroundBlur_572_15012"/>
</filter>
<filter id="filter17_f_572_15012" x="519.96" y="207.4" width="98" height="98" filterUnits="userSpaceOnUse" color-interpolation-filters="sRGB">
<feFlood flood-opacity="0" result="BackgroundImageFix"/>
<feBlend mode="normal" in="SourceGraphic" in2="BackgroundImageFix" result="shape"/>
<feGaussianBlur stdDeviation="12" result="effect1_foregroundBlur_572_15012"/>
</filter>
<filter id="filter18_f_572_15012" x="500.523" y="76.2593" width="98" height="98" filterUnits="userSpaceOnUse" color-interpolation-filters="sRGB">
<feFlood flood-opacity="0" result="BackgroundImageFix"/>
<feBlend mode="normal" in="SourceGraphic" in2="BackgroundImageFix" result="shape"/>
<feGaussianBlur stdDeviation="12" result="effect1_foregroundBlur_572_15012"/>
</filter>
<filter id="filter19_f_572_15012" x="406.437" y="0.5896" width="98" height="98" filterUnits="userSpaceOnUse" color-interpolation-filters="sRGB">
<feFlood flood-opacity="0" result="BackgroundImageFix"/>
<feBlend mode="normal" in="SourceGraphic" in2="BackgroundImageFix" result="shape"/>
<feGaussianBlur stdDeviation="12" result="effect1_foregroundBlur_572_15012"/>
</filter>
<filter id="filter20_f_572_15012" x="295.592" y="8.49194" width="98" height="98" filterUnits="userSpaceOnUse" color-interpolation-filters="sRGB">
<feFlood flood-opacity="0" result="BackgroundImageFix"/>
<feBlend mode="normal" in="SourceGraphic" in2="BackgroundImageFix" result="shape"/>
<feGaussianBlur stdDeviation="12" result="effect1_foregroundBlur_572_15012"/>
</filter>
<linearGradient id="paint0_linear_572_15012" x1="92.1735" y1="619.021" x2="92.1735" y2="698.055" gradientUnits="userSpaceOnUse">
<stop stop-color="#35B6F1"/>
<stop offset="1" stop-color="#4CD4EC"/>
</linearGradient>
<linearGradient id="paint1_linear_572_15012" x1="45.2102" y1="495.975" x2="45.2102" y2="619.021" gradientUnits="userSpaceOnUse">
<stop stop-color="#35B6F1"/>
<stop offset="1" stop-color="#4CD4EC"/>
</linearGradient>
<linearGradient id="paint2_linear_572_15012" x1="93.5436" y1="396.805" x2="93.5436" y2="495.975" gradientUnits="userSpaceOnUse">
<stop stop-color="#35B6F1"/>
<stop offset="1" stop-color="#4CD4EC"/>
</linearGradient>
<linearGradient id="paint3_linear_572_15012" x1="210.304" y1="376.978" x2="210.304" y2="396.805" gradientUnits="userSpaceOnUse">
<stop stop-color="#35B6F1"/>
<stop offset="1" stop-color="#4CD4EC"/>
</linearGradient>
<linearGradient id="paint4_linear_572_15012" x1="92.1735" y1="619.021" x2="92.1735" y2="698.055" gradientUnits="userSpaceOnUse">
<stop stop-color="#35B6F1"/>
<stop offset="1" stop-color="#4CD4EC"/>
</linearGradient>
<linearGradient id="paint5_linear_572_15012" x1="45.2102" y1="495.975" x2="45.2102" y2="619.021" gradientUnits="userSpaceOnUse">
<stop stop-color="#35B6F1"/>
<stop offset="1" stop-color="#4CD4EC"/>
</linearGradient>
<linearGradient id="paint6_linear_572_15012" x1="282.122" y1="366.155" x2="282.122" y2="408.155" gradientUnits="userSpaceOnUse">
<stop stop-color="#35B6F1"/>
<stop offset="1" stop-color="#4CD4EC"/>
</linearGradient>
<linearGradient id="paint7_linear_572_15012" x1="136.484" y1="374.742" x2="136.484" y2="416.742" gradientUnits="userSpaceOnUse">
<stop stop-color="#35B6F1"/>
<stop offset="1" stop-color="#4CD4EC"/>
</linearGradient>
<linearGradient id="paint8_linear_572_15012" x1="49.1765" y1="474.508" x2="49.1765" y2="516.508" gradientUnits="userSpaceOnUse">
<stop stop-color="#35B6F1"/>
<stop offset="1" stop-color="#4CD4EC"/>
</linearGradient>
<linearGradient id="paint9_linear_572_15012" x1="52.4879" y1="595.201" x2="52.4879" y2="637.201" gradientUnits="userSpaceOnUse">
<stop stop-color="#35B6F1"/>
<stop offset="1" stop-color="#4CD4EC"/>
</linearGradient>
<linearGradient id="paint10_linear_572_15012" x1="130.319" y1="674.52" x2="130.319" y2="716.52" gradientUnits="userSpaceOnUse">
<stop stop-color="#35B6F1"/>
<stop offset="1" stop-color="#4CD4EC"/>
</linearGradient>
<linearGradient id="paint11_linear_572_15012" x1="750.918" y1="544.997" x2="750.918" y2="653.812" gradientUnits="userSpaceOnUse">
<stop stop-color="#35B6F1"/>
<stop offset="1" stop-color="#4CD4EC"/>
</linearGradient>
<linearGradient id="paint12_linear_572_15012" x1="683.388" y1="653.812" x2="683.388" y2="718.074" gradientUnits="userSpaceOnUse">
<stop stop-color="#35B6F1"/>
<stop offset="1" stop-color="#4CD4EC"/>
</linearGradient>
<linearGradient id="paint13_linear_572_15012" x1="565.569" y1="689.761" x2="565.569" y2="720.847" gradientUnits="userSpaceOnUse">
<stop stop-color="#35B6F1"/>
<stop offset="1" stop-color="#4CD4EC"/>
</linearGradient>
<linearGradient id="paint14_linear_572_15012" x1="459.753" y1="570.357" x2="459.753" y2="689.761" gradientUnits="userSpaceOnUse">
<stop stop-color="#35B6F1"/>
<stop offset="1" stop-color="#4CD4EC"/>
</linearGradient>
<linearGradient id="paint15_linear_572_15012" x1="750.918" y1="544.997" x2="750.918" y2="653.812" gradientUnits="userSpaceOnUse">
<stop stop-color="#35B6F1"/>
<stop offset="1" stop-color="#4CD4EC"/>
</linearGradient>
<linearGradient id="paint16_linear_572_15012" x1="683.388" y1="653.812" x2="683.388" y2="718.074" gradientUnits="userSpaceOnUse">
<stop stop-color="#35B6F1"/>
<stop offset="1" stop-color="#4CD4EC"/>
</linearGradient>
<linearGradient id="paint17_linear_572_15012" x1="565.569" y1="689.761" x2="565.569" y2="720.847" gradientUnits="userSpaceOnUse">
<stop stop-color="#35B6F1"/>
<stop offset="1" stop-color="#4CD4EC"/>
</linearGradient>
<linearGradient id="paint18_linear_572_15012" x1="419.96" y1="547.469" x2="419.96" y2="589.469" gradientUnits="userSpaceOnUse">
<stop stop-color="#35B6F1"/>
<stop offset="1" stop-color="#4CD4EC"/>
</linearGradient>
<linearGradient id="paint19_linear_572_15012" x1="499.96" y1="669.469" x2="499.96" y2="711.469" gradientUnits="userSpaceOnUse">
<stop stop-color="#35B6F1"/>
<stop offset="1" stop-color="#4CD4EC"/>
</linearGradient>
<linearGradient id="paint20_linear_572_15012" x1="629.96" y1="695.469" x2="629.96" y2="737.469" gradientUnits="userSpaceOnUse">
<stop stop-color="#35B6F1"/>
<stop offset="1" stop-color="#4CD4EC"/>
</linearGradient>
<linearGradient id="paint21_linear_572_15012" x1="732.96" y1="632.469" x2="732.96" y2="674.469" gradientUnits="userSpaceOnUse">
<stop stop-color="#35B6F1"/>
<stop offset="1" stop-color="#4CD4EC"/>
</linearGradient>
<linearGradient id="paint22_linear_572_15012" x1="762.96" y1="525.469" x2="762.96" y2="567.469" gradientUnits="userSpaceOnUse">
<stop stop-color="#35B6F1"/>
<stop offset="1" stop-color="#4CD4EC"/>
</linearGradient>
<linearGradient id="paint23_linear_572_15012" x1="399.474" y1="39.7841" x2="399.474" y2="55.8267" gradientUnits="userSpaceOnUse">
<stop stop-color="#35B6F1"/>
<stop offset="1" stop-color="#4CD4EC"/>
</linearGradient>
<linearGradient id="paint24_linear_572_15012" x1="503.333" y1="46.5404" x2="503.333" y2="124.103" gradientUnits="userSpaceOnUse">
<stop stop-color="#35B6F1"/>
<stop offset="1" stop-color="#4CD4EC"/>
</linearGradient>
<linearGradient id="paint25_linear_572_15012" x1="562.425" y1="124.103" x2="562.425" y2="256.717" gradientUnits="userSpaceOnUse">
<stop stop-color="#35B6F1"/>
<stop offset="1" stop-color="#4CD4EC"/>
</linearGradient>
<linearGradient id="paint26_linear_572_15012" x1="525.19" y1="256.717" x2="525.19" y2="372.873" gradientUnits="userSpaceOnUse">
<stop stop-color="#35B6F1"/>
<stop offset="1" stop-color="#4CD4EC"/>
</linearGradient>
<linearGradient id="paint27_linear_572_15012" x1="399.474" y1="39.7841" x2="399.474" y2="55.8267" gradientUnits="userSpaceOnUse">
<stop stop-color="#35B6F1"/>
<stop offset="1" stop-color="#4CD4EC"/>
</linearGradient>
<linearGradient id="paint28_linear_572_15012" x1="481.149" y1="351.905" x2="481.149" y2="393.905" gradientUnits="userSpaceOnUse">
<stop stop-color="#35B6F1"/>
<stop offset="1" stop-color="#4CD4EC"/>
</linearGradient>
<linearGradient id="paint29_linear_572_15012" x1="568.96" y1="235.4" x2="568.96" y2="277.4" gradientUnits="userSpaceOnUse">
<stop stop-color="#35B6F1"/>
<stop offset="1" stop-color="#4CD4EC"/>
</linearGradient>
<linearGradient id="paint30_linear_572_15012" x1="549.523" y1="104.259" x2="549.523" y2="146.259" gradientUnits="userSpaceOnUse">
<stop stop-color="#35B6F1"/>
<stop offset="1" stop-color="#4CD4EC"/>
</linearGradient>
<linearGradient id="paint31_linear_572_15012" x1="455.437" y1="28.5896" x2="455.437" y2="70.5896" gradientUnits="userSpaceOnUse">
<stop stop-color="#35B6F1"/>
<stop offset="1" stop-color="#4CD4EC"/>
</linearGradient>
<linearGradient id="paint32_linear_572_15012" x1="344.592" y1="36.4919" x2="344.592" y2="78.4919" gradientUnits="userSpaceOnUse">
<stop stop-color="#35B6F1"/>
<stop offset="1" stop-color="#4CD4EC"/>
</linearGradient>
<clipPath id="clip0_572_15012">
<rect x="261.122" y="366.155" width="42" height="42" rx="21" fill="white"/>
</clipPath>
<clipPath id="clip1_572_15012">
<rect x="115.484" y="374.742" width="42" height="42" rx="21" fill="white"/>
</clipPath>
<clipPath id="clip2_572_15012">
<rect x="28.1765" y="474.508" width="42" height="42" rx="21" fill="white"/>
</clipPath>
<clipPath id="clip3_572_15012">
<rect width="42" height="42" fill="white" transform="translate(28.1765 474.508)"/>
</clipPath>
<clipPath id="clip4_572_15012">
<rect width="26.25" height="28.35" fill="white" transform="translate(35.5265 481.858)"/>
</clipPath>
<clipPath id="clip5_572_15012">
<rect x="31.4879" y="595.201" width="42" height="42" rx="21" fill="white"/>
</clipPath>
<clipPath id="clip6_572_15012">
<rect width="42" height="42" fill="white" transform="translate(31.4879 595.201)"/>
</clipPath>
<clipPath id="clip7_572_15012">
<rect width="19.95" height="29.4" fill="white" transform="translate(43.0379 600.451)"/>
</clipPath>
<clipPath id="clip8_572_15012">
<rect x="109.319" y="674.52" width="42" height="42" rx="21" fill="white"/>
</clipPath>
<clipPath id="clip9_572_15012">
<rect width="42" height="42" fill="white" transform="translate(109.319 674.52)"/>
</clipPath>
<clipPath id="clip10_572_15012">
<rect width="26.25" height="28.35" fill="white" transform="translate(116.669 681.87)"/>
</clipPath>
<clipPath id="clip11_572_15012">
<rect x="398.96" y="547.469" width="42" height="42" rx="21" fill="white"/>
</clipPath>
<clipPath id="clip12_572_15012">
<rect x="478.96" y="669.469" width="42" height="42" rx="21" fill="white"/>
</clipPath>
<clipPath id="clip13_572_15012">
<rect width="42" height="42" fill="white" transform="translate(478.96 669.469)"/>
</clipPath>
<clipPath id="clip14_572_15012">
<rect width="19.95" height="29.4" fill="white" transform="translate(490.51 674.719)"/>
</clipPath>
<clipPath id="clip15_572_15012">
<rect x="608.96" y="695.469" width="42" height="42" rx="21" fill="white"/>
</clipPath>
<clipPath id="clip16_572_15012">
<rect width="42" height="42" fill="white" transform="translate(608.96 695.469)"/>
</clipPath>
<clipPath id="clip17_572_15012">
<rect width="26.25" height="28.35" fill="white" transform="translate(616.31 702.819)"/>
</clipPath>
<clipPath id="clip18_572_15012">
<rect x="711.96" y="632.469" width="42" height="42" rx="21" fill="white"/>
</clipPath>
<clipPath id="clip19_572_15012">
<rect width="42" height="42" fill="white" transform="translate(711.96 632.469)"/>
</clipPath>
<clipPath id="clip20_572_15012">
<rect width="28.35" height="27.3" fill="white" transform="translate(719.31 639.819)"/>
</clipPath>
<clipPath id="clip21_572_15012">
<rect x="741.96" y="525.469" width="42" height="42" rx="21" fill="white"/>
</clipPath>
<clipPath id="clip22_572_15012">
<rect width="42" height="42" fill="white" transform="translate(741.96 525.469)"/>
</clipPath>
<clipPath id="clip23_572_15012">
<rect width="26.25" height="28.35" fill="white" transform="translate(749.31 532.818)"/>
</clipPath>
<clipPath id="clip24_572_15012">
<rect x="460.149" y="351.905" width="42" height="42" rx="21" fill="white"/>
</clipPath>
<clipPath id="clip25_572_15012">
<rect x="547.96" y="235.4" width="42" height="42" rx="21" fill="white"/>
</clipPath>
<clipPath id="clip26_572_15012">
<rect x="528.523" y="104.259" width="42" height="42" rx="21" fill="white"/>
</clipPath>
<clipPath id="clip27_572_15012">
<rect x="434.437" y="28.5896" width="42" height="42" rx="21" fill="white"/>
</clipPath>
<clipPath id="clip28_572_15012">
<rect width="42" height="42" fill="white" transform="translate(434.437 28.5896)"/>
</clipPath>
<clipPath id="clip29_572_15012">
<rect width="19.95" height="29.4" fill="white" transform="translate(445.987 33.8396)"/>
</clipPath>
<clipPath id="clip30_572_15012">
<rect x="323.592" y="36.4919" width="42" height="42" rx="21" fill="white"/>
</clipPath>
<clipPath id="clip31_572_15012">
<rect width="42" height="42" fill="white" transform="translate(323.592 36.4919)"/>
</clipPath>
<clipPath id="clip32_572_15012">
<rect width="26.25" height="28.35" fill="white" transform="translate(330.942 43.8419)"/>
</clipPath>
</defs>
</svg>
