<svg width="1223" height="638" viewBox="0 0 1223 638" fill="none" xmlns="http://www.w3.org/2000/svg">
<path d="M1197.19 17.219C1198.49 17.9969 1200.3 18.7747 1202.64 16.1818C1204.97 13.589 1207.3 10.7368 1210.67 12.2925C1213.79 13.589 1210.41 19.8119 1211.97 21.6269C1213.53 23.442 1214.3 23.442 1218.19 24.7384C1221.82 26.0348 1222.86 29.1463 1220.27 30.4428C1218.71 31.2206 1213.53 30.1835 1212.49 33.8135C1211.45 37.4436 1212.23 40.2958 1210.93 43.1479C1209.9 45.4816 1207.56 45.7408 1204.97 42.3701C1202.64 38.9993 1203.67 37.9622 1201.34 36.6657C1199.01 35.3693 1196.15 38.74 1192.01 37.9622C1187.86 37.1843 1189.15 33.8135 1191.49 31.7392C1193.82 29.6649 1195.64 27.5906 1194.08 25.257C1192.78 23.442 1188.38 18.7747 1190.97 16.4411C1192.01 15.1447 1195.89 16.7004 1197.19 17.219Z" fill="#E5EF73"/>
<path d="M1208.34 46C1207.3 46 1205.75 45.4814 1203.93 43.1478C1202.9 41.5921 1202.38 40.2956 1202.12 39.5178C1201.86 38.4806 1201.6 38.2213 1200.56 37.7027C1199.78 37.4434 1198.75 37.7027 1197.45 38.2213C1195.89 38.7399 1193.82 39.5178 1191.49 38.9992C1189.15 38.4806 1188.38 37.4434 1188.12 36.4063C1187.6 34.5913 1188.89 32.2577 1190.45 30.9612C1193.56 28.109 1193.56 27.0719 1192.78 25.7754C1192.52 25.5161 1192.52 25.2568 1192.26 24.9976C1190.45 22.664 1187.08 18.256 1189.67 15.6631C1191.75 13.8481 1196.67 16.1817 1197.19 16.441C1198.23 16.9596 1199.52 17.7375 1201.34 15.6631C1203.67 13.0702 1206.27 9.69949 1210.42 11.5145C1212.75 12.5517 1212.49 15.4039 1212.23 17.9967C1211.97 19.2932 1211.97 20.8489 1212.23 21.3675C1213.79 22.4047 1214.3 22.664 1216.38 23.1825C1216.9 23.4418 1217.68 23.7011 1218.71 23.9604C1221.05 24.7383 1222.86 26.5533 1222.86 28.3683C1222.86 29.6648 1222.08 30.7019 1220.79 31.4798C1220.27 31.7391 1219.23 31.7391 1218.19 31.9984C1215.86 32.2577 1213.79 32.517 1213.27 34.332C1212.75 35.8877 1212.75 37.1842 1212.49 38.7399C1212.23 40.5549 1212.23 42.1107 1211.45 43.6664C1210.67 45.2221 1209.64 46 1208.6 46C1208.6 46 1208.6 46 1208.34 46ZM1200.04 35.6284C1200.56 35.6284 1201.08 35.6284 1201.6 35.8877C1203.41 36.6656 1203.67 37.7027 1204.19 38.7399C1204.45 39.5178 1204.71 40.5549 1205.75 41.8514C1206.78 43.4071 1207.82 44.185 1208.6 43.9257C1209.38 43.9257 1209.9 43.1478 1209.9 42.6292C1210.42 41.3328 1210.67 39.7771 1210.67 38.2213C1210.67 36.9249 1210.93 35.1098 1211.45 33.5541C1212.49 30.4426 1215.86 29.9241 1217.93 29.9241C1218.71 29.9241 1219.49 29.6648 1219.75 29.6648C1220.27 29.4055 1220.79 28.8869 1220.53 28.3683C1220.53 27.5905 1219.49 26.294 1217.68 25.7754C1216.9 25.5161 1216.12 25.2568 1215.6 24.9976C1213.53 24.2197 1212.49 23.9604 1211.19 22.4047C1210.16 21.3675 1210.42 19.5525 1210.67 17.7375C1211.19 15.4039 1211.19 13.8481 1210.16 13.3295C1207.56 12.2924 1205.75 13.8481 1203.15 16.9596C1200.3 20.0711 1197.71 18.7746 1196.67 18.256C1194.6 17.2189 1191.75 16.7003 1191.23 17.2189C1189.67 18.7746 1192.52 22.4047 1193.82 23.9604C1194.08 24.2197 1194.34 24.479 1194.34 24.7383C1196.67 27.8497 1193.3 30.9612 1191.75 32.517C1190.45 33.5541 1189.67 35.1098 1189.93 35.8877C1190.19 36.6656 1190.97 36.9249 1191.75 36.9249C1193.56 37.1842 1195.12 36.6656 1196.67 36.147C1197.97 35.8877 1199.01 35.6284 1200.04 35.6284Z" fill="black"/>
<path d="M100.194 592.453C101.69 593.451 104.683 594.448 107.675 590.957C110.668 587.466 114.159 583.476 118.647 585.97C122.637 587.965 118.647 596.443 120.642 598.937C122.637 601.43 123.635 601.43 129.121 603.425C134.108 605.42 135.604 609.41 132.113 611.405C130.118 612.402 122.637 610.906 121.141 615.894C119.645 620.881 120.642 624.871 118.647 628.861C117.151 632.352 113.66 632.85 110.668 627.863C107.176 622.876 108.673 621.878 105.68 619.883C102.189 618.387 98.698 622.876 92.7133 621.38C86.7285 619.883 88.7234 615.395 92.2145 612.901C95.7056 609.909 97.7005 606.916 95.7056 603.924C93.7107 601.43 88.2247 594.947 91.217 591.456C93.212 589.461 98.1993 591.456 100.194 592.453Z" fill="#E5EF73"/>
<path d="M115.655 632.352C114.159 632.352 111.665 631.354 109.171 627.863C107.675 625.369 107.176 623.873 106.678 622.876C106.179 621.379 106.179 621.379 104.683 620.881C103.685 620.382 102.688 620.881 100.693 621.379C98.6979 622.377 95.7055 623.374 92.2144 622.377C88.7233 621.878 87.7258 619.883 87.2271 618.387C86.2296 615.395 88.7233 612.402 90.7182 610.407C95.2068 606.418 94.708 604.921 93.7106 603.924L92.7131 602.926C90.2195 599.435 85.2321 593.451 89.222 589.461C92.2144 586.468 98.6979 589.959 100.194 590.458C101.69 590.957 103.186 591.954 105.181 589.461C108.174 585.471 112.164 580.982 118.647 583.975C122.138 585.471 121.639 589.959 121.141 593.451C121.141 594.947 120.642 596.942 121.141 597.44C122.637 598.937 123.136 599.435 125.629 599.934C126.627 600.433 127.624 600.433 128.622 600.932C132.113 602.428 134.606 604.921 134.606 607.415C134.606 609.41 133.609 611.405 131.614 611.904C130.617 612.402 129.619 612.402 128.123 612.402C125.131 612.901 122.637 612.901 122.138 615.395C121.639 617.39 121.141 619.385 121.141 621.379C121.141 623.873 120.642 626.367 119.645 628.362C119.645 630.855 118.148 631.853 115.655 632.352ZM104.184 616.891C105.181 616.891 105.68 616.891 106.678 617.39C109.171 618.387 109.67 619.883 110.169 621.379C110.667 622.377 111.166 623.873 112.164 625.369C113.66 627.364 114.657 628.362 115.655 627.863C116.153 627.863 117.151 626.866 117.151 626.367C118.148 624.372 118.148 622.876 118.148 620.382C118.148 618.387 118.647 616.392 119.146 613.899C120.642 608.911 125.629 608.911 128.622 608.412C129.619 608.412 130.617 608.412 131.115 607.914C132.113 607.415 132.113 606.916 132.113 606.916C132.113 605.919 130.617 604.423 128.622 603.924C127.624 603.425 126.627 603.425 125.629 602.926C122.637 601.929 121.141 601.43 119.146 598.937C117.65 597.44 118.148 594.448 118.148 591.954C118.647 588.962 118.647 586.967 117.65 586.468C114.159 584.972 112.164 587.466 108.672 590.957C104.683 595.944 100.693 593.949 99.1966 592.952C96.2042 591.456 93.2119 590.957 92.2144 591.456C90.7182 592.952 94.2093 597.939 96.2042 599.934L97.2017 600.932C100.693 605.919 95.7055 610.407 93.2118 612.402C91.2169 613.899 90.7182 615.893 90.7182 616.891C90.7182 617.39 92.2144 617.888 92.7131 617.888C95.2068 618.387 97.2017 617.39 99.1966 616.891C101.192 617.39 102.688 616.891 104.184 616.891Z" fill="black"/>
<path d="M8.26875 5.88892C9.13762 6.32336 10.8753 7.19222 12.8303 5.02006C14.7852 2.8479 16.7402 0.458518 19.564 1.76182C22.1706 2.8479 19.3468 8.06109 20.6501 9.5816C21.9534 11.1021 22.605 11.1021 25.8633 12.1882C28.9043 13.2743 29.7732 15.8809 27.601 16.967C26.2977 17.6186 21.9534 16.7497 21.0845 19.7908C20.2156 22.8318 20.8673 25.2212 19.7812 27.6106C18.9124 29.5655 16.9574 29.7827 14.7852 26.9589C12.8303 24.1351 13.6992 23.2662 11.7442 22.1801C9.78927 21.0941 7.39989 23.9179 3.92443 23.2662C0.448967 22.6146 1.53505 19.7908 3.48999 18.053C5.44494 16.3153 6.96546 14.5776 5.66216 12.6226C4.35886 11.1021 0.666183 7.19222 2.83835 5.02006C3.70721 4.1512 6.96546 5.23728 8.26875 5.88892Z" fill="#E5EF73"/>
<path d="M17.609 30C16.7401 30 15.4368 29.5656 13.9163 27.6106C13.0475 26.3073 12.613 25.2212 12.3958 24.5696C12.1786 23.7007 11.9614 23.4835 11.0925 23.0491C10.4409 22.8319 9.57201 23.0491 8.48592 23.4835C7.18263 23.9179 5.66211 24.5696 3.48995 24.1351C1.535 23.7007 0.883355 22.8319 0.666139 21.963C0.231706 20.4425 1.31779 18.4875 2.62109 17.4014C5.22768 15.0121 5.22768 14.1432 4.57603 13.0571C4.35882 12.8399 4.35882 12.6227 4.1416 12.4055C2.62109 10.4505 -0.202726 6.75785 1.96944 4.58569C3.48995 3.06517 7.83428 5.02012 8.26871 5.23733C9.13757 5.67176 10.2237 6.32342 11.7442 4.58569C13.6991 2.41352 15.8713 -0.41029 19.3467 1.11022C21.7361 1.97909 21.5189 4.36847 21.0845 6.32341C20.8673 7.40949 20.8673 8.71279 21.0845 9.14722C21.9533 10.2333 22.3878 10.2333 24.1255 10.885C24.5599 11.1022 25.2116 11.3194 26.0804 11.5366C28.0354 12.1883 29.5559 13.7088 29.5559 15.2293C29.5559 16.3154 28.9043 17.1842 27.8182 17.8359C27.3837 18.0531 26.5149 18.0531 25.646 18.2703C23.6911 18.4875 21.9533 18.7047 21.5189 20.2253C21.0845 21.5286 21.0845 22.6146 20.8673 23.9179C20.65 25.4384 20.65 26.7417 19.9984 28.045C19.3467 29.1311 18.4779 30 17.609 30ZM10.4409 21.0941C10.8753 21.0941 11.3097 21.0941 11.7442 21.3113C13.2647 21.963 13.4819 22.8319 13.9163 23.7007C14.1335 24.3524 14.3508 25.2212 15.2196 26.3073C16.0885 27.6106 16.9574 28.045 17.609 28.045C18.2607 28.045 18.4779 27.3934 18.6951 26.959C19.1295 25.8729 19.3467 24.5696 19.3467 23.2663C19.3467 22.1802 19.564 20.6597 19.9984 19.3564C20.8673 16.7498 23.6911 16.3154 25.4288 16.3154C26.0804 16.3154 26.7321 16.0981 26.9493 16.0981C27.3837 15.8809 27.8182 15.4465 27.601 15.0121C27.601 14.3604 26.7321 13.2743 25.2116 12.8399C24.5599 12.6227 23.9083 12.4055 23.4738 12.1883C21.7361 11.5366 20.8673 11.3194 19.7812 10.0161C18.9123 9.14723 19.1295 7.62671 19.3467 6.1062C19.564 4.15125 19.7812 2.84795 18.9123 2.41352C16.7401 1.54466 15.2196 2.84795 13.0475 5.45455C10.6581 8.06114 8.48592 6.97506 7.61706 6.54063C5.87933 5.67177 3.48995 5.23733 3.05552 5.67177C1.75222 6.97506 4.1416 10.0161 5.22768 11.3194C5.4449 11.5366 5.66211 11.7538 5.66211 11.971C7.61706 14.5776 4.79325 17.1842 3.48995 18.4875C2.40387 19.3564 1.75222 20.6597 1.96944 21.3113C2.18665 21.963 2.8383 22.1802 3.48995 22.1802C5.01046 22.3974 6.31376 21.963 7.61706 21.5286C8.70314 21.5286 9.57201 21.0941 10.4409 21.0941Z" fill="black"/>
<path d="M847.7 613.21C848.569 613.644 850.307 614.513 852.261 612.341C854.216 610.169 856.171 607.779 858.995 609.083C861.602 610.169 858.778 615.382 860.081 616.902C861.385 618.423 862.036 618.423 865.294 619.509C868.335 620.595 869.204 623.202 867.032 624.288C865.729 624.939 861.385 624.071 860.516 627.112C859.647 630.153 860.298 632.542 859.212 634.931C858.344 636.886 856.389 637.104 854.216 634.28C852.261 631.456 853.13 630.587 851.175 629.501C849.22 628.415 846.831 631.239 843.356 630.587C839.88 629.935 840.966 627.112 842.921 625.374C844.876 623.636 846.397 621.898 845.093 619.943C843.79 618.423 840.097 614.513 842.269 612.341C843.138 611.472 846.397 612.558 847.7 613.21Z" fill="#E5EF73"/>
<path d="M857.04 637.321C856.171 637.321 854.868 636.886 853.347 634.931C852.479 633.628 852.044 632.542 851.827 631.89C851.61 631.022 851.393 630.804 850.524 630.37C849.872 630.153 849.003 630.37 847.917 630.804C846.614 631.239 845.093 631.89 842.921 631.456C840.966 631.022 840.315 630.153 840.097 629.284C839.663 627.763 840.749 625.808 842.052 624.722C844.659 622.333 844.659 621.464 844.007 620.378C843.79 620.161 843.79 619.943 843.573 619.726C842.052 617.771 839.228 614.079 841.401 611.906C842.921 610.386 847.265 612.341 847.7 612.558C848.569 612.993 849.655 613.644 851.175 611.906C853.13 609.734 855.302 606.911 858.778 608.431C861.167 609.3 860.95 611.689 860.516 613.644C860.298 614.73 860.298 616.034 860.516 616.468C861.384 617.554 861.819 617.554 863.557 618.206C863.991 618.423 864.643 618.64 865.512 618.857C867.467 619.509 868.987 621.03 868.987 622.55C868.987 623.636 868.335 624.505 867.249 625.157C866.815 625.374 865.946 625.374 865.077 625.591C863.122 625.808 861.384 626.026 860.95 627.546C860.516 628.849 860.516 629.935 860.298 631.239C860.081 632.759 860.081 634.063 859.43 635.366C858.778 636.452 857.909 637.321 857.04 637.321ZM849.872 628.415C850.306 628.415 850.741 628.415 851.175 628.632C852.696 629.284 852.913 630.153 853.347 631.022C853.565 631.673 853.782 632.542 854.651 633.628C855.52 634.931 856.389 635.366 857.04 635.366C857.692 635.366 857.909 634.714 858.126 634.28C858.561 633.194 858.778 631.89 858.778 630.587C858.778 629.501 858.995 627.98 859.43 626.677C860.298 624.071 863.122 623.636 864.86 623.636C865.512 623.636 866.163 623.419 866.38 623.419C866.815 623.202 867.249 622.767 867.032 622.333C867.032 621.681 866.163 620.595 864.643 620.161C863.991 619.943 863.339 619.726 862.905 619.509C861.167 618.857 860.298 618.64 859.212 617.337C858.343 616.468 858.561 614.948 858.778 613.427C858.995 611.472 859.212 610.169 858.343 609.734C856.171 608.865 854.651 610.169 852.479 612.775C850.089 615.382 847.917 614.296 847.048 613.861C845.31 612.993 842.921 612.558 842.487 612.993C841.183 614.296 843.573 617.337 844.659 618.64C844.876 618.857 845.093 619.075 845.093 619.292C847.048 621.898 844.224 624.505 842.921 625.808C841.835 626.677 841.183 627.98 841.401 628.632C841.618 629.284 842.269 629.501 842.921 629.501C844.442 629.718 845.745 629.284 847.048 628.849C848.134 628.849 849.003 628.415 849.872 628.415Z" fill="black"/>
<path d="M900.944 268.985C902.294 269.659 904.992 271.009 908.028 267.635C911.064 264.262 914.099 260.552 918.484 262.576C922.532 264.262 918.147 272.358 920.171 274.719C922.195 277.08 923.207 277.08 928.266 278.767C932.989 280.453 934.338 284.501 930.965 286.187C928.941 287.199 922.195 285.85 920.846 290.572C919.496 295.295 920.508 299.005 918.822 302.715C917.472 305.751 914.437 306.089 911.064 301.704C908.028 297.319 909.377 295.969 906.341 294.283C903.306 292.596 899.595 296.981 894.198 295.969C888.801 294.957 890.488 290.572 893.524 287.874C896.559 285.175 898.921 282.477 896.897 279.441C894.873 277.08 889.139 271.009 892.512 267.635C893.861 266.286 898.921 267.973 900.944 268.985Z" fill="#E5EF73"/>
<path d="M915.448 306.426C914.099 306.426 912.075 305.751 909.714 302.715C908.365 300.691 907.69 299.005 907.353 297.993C907.016 296.644 906.678 296.307 905.329 295.632C904.317 295.295 902.968 295.632 901.281 296.307C899.258 296.981 896.896 297.993 893.523 297.318C890.488 296.644 889.476 295.295 889.138 293.945C888.464 291.584 890.15 288.548 892.174 286.862C896.222 283.152 896.222 281.802 895.21 280.116C894.873 279.778 894.873 279.441 894.535 279.104C892.174 276.068 887.789 270.334 891.162 266.961C893.523 264.6 900.27 267.635 900.944 267.973C902.293 268.647 903.98 269.659 906.341 266.961C909.377 263.588 912.75 259.203 918.147 261.564C921.857 262.913 921.52 266.623 920.845 269.659C920.508 271.346 920.508 273.37 920.845 274.044C922.194 275.731 922.869 275.731 925.568 276.743C926.242 277.08 927.254 277.417 928.603 277.755C931.639 278.767 934 281.128 934 283.489C934 285.175 932.988 286.525 931.302 287.537C930.627 287.874 929.278 287.874 927.929 288.211C924.893 288.548 922.194 288.886 921.52 291.247C920.845 293.271 920.845 294.957 920.508 296.981C920.171 299.342 920.171 301.366 919.159 303.39C918.147 305.076 916.798 306.426 915.448 306.426ZM904.317 292.596C904.992 292.596 905.666 292.596 906.341 292.933C908.702 293.945 909.04 295.295 909.714 296.644C910.051 297.656 910.389 299.005 911.738 300.691C913.087 302.715 914.436 303.39 915.448 303.39C916.46 303.39 916.798 302.378 917.135 301.703C917.81 300.017 918.147 297.993 918.147 295.969C918.147 294.283 918.484 291.922 919.159 289.898C920.508 285.85 924.893 285.175 927.591 285.175C928.603 285.175 929.615 284.838 929.953 284.838C930.627 284.501 931.302 283.826 930.964 283.152C930.964 282.14 929.615 280.453 927.254 279.778C926.242 279.441 925.23 279.104 924.556 278.767C921.857 277.755 920.508 277.417 918.821 275.393C917.472 274.044 917.81 271.683 918.147 269.322C918.484 266.286 918.821 264.262 917.472 263.588C914.099 262.238 911.738 264.262 908.365 268.31C904.655 272.358 901.281 270.671 899.932 269.997C897.234 268.647 893.523 267.973 892.849 268.647C890.825 270.671 894.535 275.393 896.222 277.417C896.559 277.755 896.896 278.092 896.896 278.429C899.932 282.477 895.547 286.525 893.523 288.548C891.837 289.898 890.825 291.922 891.162 292.933C891.5 293.945 892.511 294.283 893.523 294.283C895.885 294.62 897.908 293.945 899.932 293.271C901.619 293.271 902.968 292.596 904.317 292.596Z" fill="black"/>
<path d="M130.882 270.289C132.111 270.904 134.57 272.133 137.336 269.06C140.102 265.987 142.868 262.606 146.863 264.45C150.551 265.987 146.556 273.363 148.4 275.514C150.244 277.665 151.166 277.665 155.776 279.202C160.079 280.739 161.308 284.427 158.235 285.963C156.391 286.885 150.244 285.656 149.015 289.959C147.785 294.261 148.707 297.642 147.171 301.023C145.941 303.789 143.175 304.096 140.102 300.101C137.336 296.105 138.565 294.876 135.799 293.339C133.033 291.803 129.653 295.798 124.735 294.876C119.818 293.954 121.355 289.959 124.121 287.5C126.887 285.041 129.038 282.583 127.194 279.817C125.35 277.665 120.125 272.133 123.199 269.06C124.428 267.831 129.038 269.367 130.882 270.289Z" fill="#E5EF73"/>
<path d="M144.097 304.403C142.868 304.403 141.024 303.788 138.872 301.022C137.643 299.178 137.028 297.642 136.721 296.72C136.414 295.49 136.106 295.183 134.877 294.568C133.955 294.261 132.726 294.568 131.189 295.183C129.345 295.798 127.194 296.72 124.12 296.105C121.354 295.49 120.432 294.261 120.125 293.032C119.51 290.88 121.047 288.114 122.891 286.578C126.579 283.197 126.579 281.968 125.657 280.431C125.35 280.124 125.35 279.816 125.042 279.509C122.891 276.743 118.896 271.518 121.969 268.445C124.12 266.294 130.267 269.06 130.882 269.367C132.111 269.982 133.648 270.904 135.799 268.445C138.565 265.372 141.638 261.376 146.556 263.528C149.936 264.757 149.629 268.138 149.014 270.904C148.707 272.44 148.707 274.284 149.014 274.899C150.244 276.436 150.858 276.436 153.317 277.358C153.932 277.665 154.854 277.972 156.083 278.28C158.849 279.202 161 281.353 161 283.504C161 285.041 160.078 286.27 158.542 287.192C157.927 287.5 156.698 287.5 155.468 287.807C152.702 288.114 150.244 288.422 149.629 290.573C149.014 292.417 149.014 293.954 148.707 295.798C148.4 297.949 148.4 299.793 147.478 301.637C146.556 303.174 145.326 304.403 144.097 304.403ZM133.955 291.802C134.57 291.802 135.184 291.802 135.799 292.11C137.95 293.032 138.258 294.261 138.872 295.49C139.18 296.412 139.487 297.642 140.716 299.178C141.946 301.022 143.175 301.637 144.097 301.637C145.019 301.637 145.326 300.715 145.634 300.1C146.248 298.564 146.556 296.72 146.556 294.876C146.556 293.339 146.863 291.188 147.478 289.344C148.707 285.656 152.702 285.041 155.161 285.041C156.083 285.041 157.005 284.734 157.312 284.734C157.927 284.426 158.542 283.812 158.234 283.197C158.234 282.275 157.005 280.738 154.854 280.124C153.932 279.816 153.01 279.509 152.395 279.202C149.936 278.28 148.707 277.972 147.17 276.128C145.941 274.899 146.248 272.748 146.556 270.596C146.863 267.83 147.17 265.986 145.941 265.372C142.868 264.142 140.716 265.986 137.643 269.674C134.262 273.362 131.189 271.826 129.96 271.211C127.501 269.982 124.12 269.367 123.506 269.982C121.662 271.826 125.042 276.128 126.579 277.972C126.886 278.28 127.194 278.587 127.194 278.894C129.96 282.582 125.964 286.27 124.12 288.114C122.584 289.344 121.662 291.188 121.969 292.11C122.276 293.032 123.198 293.339 124.12 293.339C126.272 293.646 128.116 293.032 129.96 292.417C131.496 292.417 132.726 291.802 133.955 291.802Z" fill="black"/>
</svg>
