<svg width="246" height="390" viewBox="0 0 246 390" fill="none" xmlns="http://www.w3.org/2000/svg">
<g filter="url(#filter0_d_6005_9886)">
<path d="M187.359 312.866C184.829 318.925 186.961 327.791 190.444 328.764C193.927 329.738 204.994 320.991 207.353 317.234C209.91 313.438 212.941 302.539 213.294 295.872C213.559 290.872 212.496 274.788 210.6 273.506C210.6 273.506 184.792 274.185 175.692 285.643C166.83 297.261 162.295 300.41 162.25 308.667C162.206 316.924 167.915 324.064 173.757 321.28C176.976 319.831 183.854 316.021 187.05 311.277" fill="white"/>
<path d="M192.258 330.681C191.464 330.835 190.632 330.79 189.998 330.707C188.455 330.182 186.994 329.022 186.173 326.913C185.077 324.445 184.184 320.906 184.52 317.335C181.136 320.054 177.24 322.254 174.777 323.351C172.153 324.685 169.42 324.391 166.852 322.827C162.862 320.302 160.354 314.809 160.426 308.815C160.465 301.59 163.656 297.877 169.283 290.805C170.799 289.067 172.435 286.894 174.43 284.444C183.811 272.313 209.779 271.397 210.809 271.403C211.206 271.326 211.642 271.448 211.917 271.807C215.51 274.409 215.554 295.846 215.592 296.045C215.278 302.911 212.125 314.246 209.447 318.477C207.132 321.401 197.813 329.602 192.258 330.681ZM188.99 311.725C189.304 312.283 189.458 313.078 189.139 313.552C187.612 317.354 188.141 322.2 189.475 324.828C190.103 325.944 190.615 326.463 190.852 326.623C192.991 327.033 203.098 319.71 205.457 315.952C207.695 312.631 210.605 302.168 210.996 295.7C211.222 290.501 210.175 278.744 209.123 275.442C204.047 275.809 184.18 277.397 176.954 286.841C174.959 289.291 173.323 291.464 171.807 293.202C166.301 299.838 163.986 302.762 163.876 308.557C163.931 313.083 165.772 317.263 168.577 318.987C169.96 319.749 171.228 319.916 172.539 319.249C175.361 317.876 182.079 314.304 185.154 309.995C185.794 309.046 186.984 308.815 187.932 309.456C188.88 310.097 189.232 310.853 188.99 311.725Z" fill="black"/>
<path d="M165.061 301.935C165.061 301.935 184.36 339.843 187.711 343.317C191.061 346.791 197.151 349.527 202.8 345.75C207.374 342.8 210.499 336.626 209.017 332.17C207.81 328.074 187.359 290.596 187.359 290.596L165.061 301.935Z" fill="#99CCCC"/>
<path d="M199.609 349.462C194.649 350.425 189.667 348.092 186.553 344.779C182.966 341.145 165.392 306.819 163.391 302.877L162.41 301.006L188.247 287.742L189.189 289.415C191.388 293.319 209.915 327.253 211.122 331.349C212.56 336.638 209.59 343.607 203.902 347.185C202.706 348.448 201.196 349.154 199.609 349.462ZM167.91 302.825C175.482 317.44 187.176 339.503 189.303 341.977C192.141 344.931 197.123 347.264 201.857 344.076C205.875 341.441 208.361 336.215 207.27 332.715C206.531 329.972 194.914 308.306 186.632 293.211L167.91 302.825Z" fill="black"/>
<path d="M188.626 298.185C178.006 304.989 152.875 319.765 142.967 319.627C133.058 319.488 127.404 309.45 134.546 300.64C141.689 291.83 157.875 281.883 157.875 281.883C157.875 281.883 160.162 284.12 167.073 281.541C174.023 279.162 174.508 269.994 174.508 269.994C174.508 269.994 195.494 259.322 203.651 261.038C211.807 262.754 213.912 269.357 210.974 277.557C207.998 285.558 195.229 294.017 188.626 298.185Z" fill="#99CCCC"/>
<path d="M146.367 321.235C145.177 321.466 143.986 321.697 142.956 321.691C137.406 321.737 132.705 318.732 130.589 314.193C128.434 309.456 129.217 303.943 133.047 299.282C140.35 290.234 156.139 280.365 156.894 280.012L158.167 279.146L159.192 280.185C159.192 280.185 161.05 281.267 166.252 279.433C171.851 277.521 172.37 269.585 172.37 269.585L172.375 268.552L173.29 267.962C175.555 266.904 195.032 256.938 203.623 258.775C207.702 259.634 210.744 261.518 212.353 264.505C214.276 268.049 214.331 272.575 212.479 277.884C209.542 286.084 197.963 294.311 189.53 299.66C188.494 300.686 160.652 318.462 146.367 321.235ZM157.903 284.147C154.243 286.507 141.832 294.689 136.007 301.8C133.174 305.237 132.518 309.282 133.967 312.507C135.417 315.731 138.856 317.538 142.779 317.601C151.222 317.612 174.083 304.926 187.447 296.352C192.022 293.402 205.904 284.315 208.919 276.513C210.369 272.313 210.545 268.98 209.25 266.55C208.269 264.679 206.175 263.435 203.364 262.744C197.583 261.598 182.962 267.941 176.564 271.039C176.073 273.815 174.37 280.95 167.817 283.253C162.653 285.287 159.683 284.832 157.903 284.147Z" fill="black"/>
<path d="M195.879 305.851C194.446 306.954 190.467 309.788 187.678 312.392C182.977 316.81 180.431 318.541 182.194 322.323C184.586 327.22 199.306 324.569 206.278 318.061" fill="white"/>
<path d="M193.669 326.282C190.693 326.86 187.838 327.002 185.7 326.592C182.492 325.977 180.955 324.42 180.486 323.067C178.332 318.33 181.12 315.727 184.945 312.098L186.34 310.796C188.61 308.705 191.674 306.461 193.664 305.044C194.221 304.73 194.579 304.454 194.739 304.217C195.653 303.627 196.921 303.793 197.472 304.511C198.062 305.427 197.896 306.697 197.18 307.248C196.822 307.524 196.463 307.8 195.907 308.114C194.116 309.493 191.25 311.699 188.941 313.59L187.546 314.892C183.363 318.797 183.044 319.272 183.826 321.182C184.14 321.739 185.05 322.182 186.119 322.386C190.831 323.328 199.841 320.96 204.702 316.305C205.579 315.516 206.808 315.484 207.596 316.362C208.384 317.24 208.417 318.471 207.54 319.26C203.953 323.049 198.629 325.32 193.669 326.282Z" fill="black"/>
<path d="M193.955 309.73C193.955 309.73 196.981 307.287 197.069 305.62C197.235 304.351 196.177 302.082 196.177 302.082L204.515 306.856L204.2 313.722L197.857 313.922L193.955 309.73Z" fill="white"/>
<path d="M182.79 285.09C181.826 287.546 178.436 291.297 174.579 293.695C170.324 296.171 163.138 298.39 160.806 296.987C160.095 296.506 159.743 295.75 158.878 294.475C148.716 275.001 70.512 126.656 35.8657 60.5892C33.6669 56.6856 30.8564 48.5703 34.0035 38.2675C35.9436 31.2923 40.7604 27.4704 44.4198 25.1104C45.4945 24.2832 46.8006 24.6483 47.4289 25.7636L182.41 282.071C182.41 282.071 183.314 283.545 182.79 285.09Z" fill="#E6ECEC"/>
<path d="M165.949 299.082C163.37 299.582 161.11 299.608 159.688 298.647C158.503 297.846 157.914 296.93 157.208 295.417L33.998 61.57C31.959 57.4291 28.873 48.9549 32.0257 37.6201C34.2469 29.9716 39.2235 25.9125 43.2411 23.2768C44.156 22.6868 45.3464 22.4557 46.4155 22.6606C47.4847 22.8655 48.4711 23.7051 49.0994 24.8204L184.081 281.128C184.119 281.326 185.574 283.518 184.61 285.974C183.485 288.667 179.975 292.854 175.522 295.368C173.493 296.586 169.52 298.388 165.949 299.082ZM45.5612 26.7444C41.7034 29.1429 37.84 32.5735 35.9826 38.9141C33.1552 48.7424 35.8499 56.2615 37.7731 59.8061L160.746 293.493C161.375 294.608 161.689 295.166 161.926 295.326C163.072 295.928 169.222 294.734 173.438 292.06C176.938 289.938 179.969 286.462 180.813 284.443C180.934 284.007 180.818 283.411 180.543 283.052L45.5612 26.7444Z" fill="black"/>
</g>
<defs>
<filter id="filter0_d_6005_9886" x="0.675293" y="2.5874" width="244.917" height="387.093" filterUnits="userSpaceOnUse" color-interpolation-filters="sRGB">
<feFlood flood-opacity="0" result="BackgroundImageFix"/>
<feColorMatrix in="SourceAlpha" type="matrix" values="0 0 0 0 0 0 0 0 0 0 0 0 0 0 0 0 0 0 127 0" result="hardAlpha"/>
<feOffset dy="10"/>
<feGaussianBlur stdDeviation="15"/>
<feComposite in2="hardAlpha" operator="out"/>
<feColorMatrix type="matrix" values="0 0 0 0 0.101754 0 0 0 0 0.290587 0 0 0 0 0.376953 0 0 0 0.3 0"/>
<feBlend mode="normal" in2="BackgroundImageFix" result="effect1_dropShadow_6005_9886"/>
<feBlend mode="normal" in="SourceGraphic" in2="effect1_dropShadow_6005_9886" result="shape"/>
</filter>
</defs>
</svg>
