<svg width="40" height="41" viewBox="0 0 40 41" fill="none" xmlns="http://www.w3.org/2000/svg">
<path fill-rule="evenodd" clip-rule="evenodd" d="M22.5744 12.6079C23.5532 12.6079 24.3331 13.0273 24.9143 13.8661C25.4954 14.6896 25.786 15.8257 25.786 17.2745C25.786 18.7233 25.4189 19.9662 24.6849 21.0032C23.9508 22.025 23.0536 22.5359 21.9933 22.5359H21.1216L21.3051 28.392H19.2558L19.4394 22.8333L19.2558 12.6079H22.5744ZM22.0239 14.9183H21.2745L21.1675 20.317H22.2074C22.7172 20.317 23.1097 20.0653 23.385 19.5621C23.6704 19.0588 23.8132 18.342 23.8132 17.4118C23.8132 15.7495 23.2167 14.9183 22.0239 14.9183Z" fill="white"/>
<path d="M14.6714 22.6731L17.2253 28.5979L19.1063 26.8136L15.8642 20.317L18.6628 13.7974L17.0571 12.3791L14.6867 18.1895L12.2245 12.4706L10.3282 14.3236L13.5703 20.5457L10.5576 27.4084L12.2092 28.6208L14.6714 22.6731Z" fill="white"/>
<path fill-rule="evenodd" clip-rule="evenodd" d="M32.4452 10.0753C30.2199 7.12178 27.8846 5.50464 24.617 5.50464H17.8398C14.5722 5.50464 11.5481 7.12178 9.32279 10.0753C7.21161 12.8744 6.04761 16.5762 6.04761 20.4999C6.04761 24.4237 7.21161 28.1255 9.32279 30.9246C11.5481 33.8781 14.5722 35.4953 17.8398 35.4953H24.617C27.8846 35.4953 30.2199 33.8781 32.4452 30.9246C34.5563 28.1314 35.7203 24.4237 35.7203 20.4999C35.7203 16.5762 34.5563 12.8744 32.4452 10.0753ZM34.104 19.6179H29.6092C29.4855 16.8482 28.778 14.2181 27.5664 11.9732H31.8445C33.1873 14.1402 33.9671 16.7908 34.104 19.6179ZM24.617 7.26879C26.7681 7.26879 28.8432 8.3067 30.5397 10.209H26.4519L26.3568 10.0753C25.5876 9.02571 24.6058 8.0782 23.4487 7.26879H24.617ZM11.2932 30.0352C9.38366 27.5022 8.32997 24.1165 8.32997 20.4999C8.32997 16.8834 9.38366 13.4977 11.2932 10.9647C13.0849 8.58162 15.4167 7.712 17.8398 7.712C20.2629 7.712 22.5947 8.58162 24.3864 10.9647C26.2959 13.4977 27.3496 16.8834 27.3496 20.4999C27.3496 24.1165 26.2959 27.5022 24.3864 30.0352C22.5947 32.4183 20.2629 33.3778 17.8398 33.3778C15.4167 33.3778 13.0849 32.4183 11.2932 30.0352ZM24.617 33.7311H23.4487C24.6058 32.9217 25.5876 31.9742 26.3568 30.9246L26.4519 30.7908H30.5397C28.8432 32.6932 26.7681 33.7311 24.617 33.7311ZM31.8445 29.0267H27.5664C28.778 26.7818 29.4855 24.1517 29.6092 21.382H34.104C33.9671 24.2091 33.1873 26.8597 31.8445 29.0267Z" fill="white"/>
</svg>
