<svg width="406" height="304" viewBox="0 0 406 304" fill="none" xmlns="http://www.w3.org/2000/svg">
<g clip-path="url(#clip0_6010_15423)">
<path d="M294.159 216.802C294.159 216.802 343.759 236.653 349.865 238.404C367.486 243.645 369.873 239.944 372.305 232.669C374.781 225.183 370.488 220.18 357.866 215.499C352.149 213.348 303.634 196.477 303.634 196.477L294.159 216.802Z" fill="#99CCCC"/>
<path d="M366.256 241.99C362.74 242.92 357.532 242.317 349.442 239.803C343.429 238.027 295.695 218.87 293.619 218.132L292.196 217.618L302.799 194.816L304.012 195.288C304.456 195.467 352.644 212.227 358.337 214.286C367.786 217.826 377.048 222.901 373.568 233.325C372.004 237.896 370.235 240.938 366.256 241.99ZM296.052 216.103C304.128 219.313 344.858 235.57 350.218 237.123C367.538 242.344 368.81 238.543 370.931 232.339C372.737 226.813 371.187 222.074 357.351 216.922C352.195 215.019 311.959 201.007 304.333 198.371L296.052 216.103Z" fill="black"/>
<path d="M320.699 205.23C316.086 217.736 308.993 233.966 300.582 240.348C292.172 246.729 281.313 241.978 281.64 230.111C281.967 218.244 284.804 211.751 284.804 211.751C284.804 211.751 288.059 212.079 292.382 205.59C296.612 199.125 292.206 192.569 292.206 192.569C292.206 192.569 296.891 183.707 303.987 177.97C311.083 172.233 322.418 176.165 323.7 185.132C324.531 191.644 323.545 197.647 320.699 205.23Z" fill="#99CCCC"/>
<path d="M296.061 244.216C293.008 245.023 289.87 244.764 287.111 243.316C282.647 241.031 280.049 236.075 280.247 230.083C280.642 218.099 283.338 211.446 283.474 211.212L283.901 210.208L284.924 210.334C284.924 210.334 287.569 210.228 291.095 204.841C294.756 199.22 291.106 193.651 290.94 193.398L290.467 192.732L290.851 191.937C291.055 191.586 295.741 182.724 303.021 176.938C306.856 173.845 312.209 173.123 316.854 174.964C321.289 176.761 324.358 180.503 325.045 184.974C325.944 191.37 325.099 197.533 322.03 205.769C315.222 224.201 308.304 236.227 301.388 241.521C299.733 242.75 297.912 243.727 296.061 244.216ZM285.843 213.061C285.173 215.02 283.373 220.941 283.126 230.114C282.937 235.015 284.938 238.841 288.399 240.698C291.836 242.462 296.146 241.917 299.777 239.175C306.119 234.33 312.969 222.421 319.486 204.759C322.307 197.083 323.133 191.222 322.288 185.406C321.753 181.885 319.416 179.038 315.868 177.6C312.111 176.119 307.917 176.733 304.885 179.118C299.259 183.675 295.102 190.417 293.877 192.523C295.019 194.597 297.442 200.391 293.576 206.363C290.255 211.399 287.348 212.762 285.843 213.061Z" fill="black"/>
<path d="M306.446 210.484C308.973 205.064 306.379 198.622 300.871 196.514C276.274 186.98 215.417 163.869 176.286 143.923C80.2312 94.7756 61.0588 79.5506 44.0763 66.6174C36.6407 60.9607 29.6028 53.8128 27.5992 56.7185C25.0021 60.3752 25.8579 75.5925 38.2149 86.3829C68.2393 112.697 81.5554 118.878 144.089 150.951C214.641 187.141 268.2 206.242 293.655 215.648C298.602 217.508 304.143 215.251 306.446 210.484Z" fill="#E6ECEC"/>
<path d="M300.156 217.394C297.935 217.981 295.451 217.945 293.14 217.071C291.391 216.445 289.524 215.75 287.541 214.988C260.127 204.912 209.218 186.1 143.34 152.238L133.148 147.013C78.6329 119.057 65.5891 112.408 37.0909 87.373C24.5925 76.4221 22.9369 60.4262 26.2635 55.7847C26.9058 55.2188 27.5727 54.7455 28.4299 54.6179C31.0016 54.2349 34.3806 56.9053 40.0613 61.5411C41.6801 62.796 43.3234 64.1435 44.9422 65.3984L46.044 66.196C62.583 78.9495 83.0615 94.6212 176.942 142.66C214.016 161.566 270.327 183.207 297.444 193.659L301.411 195.184C304.398 196.373 306.915 198.777 308.092 201.733C309.294 204.781 309.201 208.171 307.801 211.115C306.173 214.318 303.394 216.538 300.156 217.394ZM28.8863 57.4671C28.7938 57.4916 28.7938 57.4916 28.8863 57.4671C26.7902 60.3973 27.2162 74.7384 39.1977 85.2319C67.3204 109.97 80.2717 116.643 134.553 144.464L144.745 149.688C210.389 183.414 261.298 202.226 288.619 212.327C290.603 213.089 292.445 213.691 294.219 214.41C298.512 216.046 303.245 214.102 305.208 209.92C306.292 207.654 306.328 205.169 305.414 202.837C304.501 200.504 302.667 198.811 300.332 197.845L296.365 196.32C269.248 185.868 212.846 164.252 175.63 145.185C81.5397 97.1025 60.9197 81.2703 44.2882 68.5413L43.1863 67.7436C41.4505 66.4207 39.8073 65.0732 38.281 63.7938C35.1359 61.2595 30.0892 57.1491 28.8863 57.4671Z" fill="black"/>
<path d="M275.525 208.859C282.573 211.549 288.733 213.88 293.68 215.74C298.626 217.6 304.167 215.343 306.446 210.484C308.973 205.064 306.379 198.622 300.872 196.514C296.135 194.698 289.389 192.026 282.318 189.243C282.318 189.243 283.127 194.177 281.049 200.171C278.922 205.981 275.525 208.859 275.525 208.859Z" fill="#8FAAAE"/>
<path d="M300.273 217.462C298.052 218.049 295.568 218.013 293.257 217.139C289.105 215.663 282.711 213.196 275.103 210.258L272.793 209.383L274.652 207.803C274.745 207.778 277.888 205.066 279.675 199.842C281.666 194.267 280.861 189.727 280.929 189.61L280.478 187.156L282.813 188.122C289.885 190.905 296.605 193.484 301.343 195.301C304.33 196.491 306.847 198.894 308.024 201.85C309.226 204.898 309.133 208.288 307.733 211.232C306.198 214.41 303.419 216.63 300.273 217.462ZM278.048 208.291C284.861 210.845 290.486 213.021 294.219 214.41C298.512 216.046 303.245 214.102 305.208 209.92C306.292 207.654 306.328 205.169 305.414 202.837C304.501 200.504 302.667 198.811 300.332 197.845C296.039 196.208 290.181 193.896 283.879 191.404C283.954 193.562 283.651 196.909 282.355 200.618C281.059 204.327 279.327 206.765 278.048 208.291Z" fill="black"/>
</g>
<defs>
<clipPath id="clip0_6010_15423">
<rect width="406" height="304" fill="white"/>
</clipPath>
</defs>
</svg>
