<svg width="406" height="304" viewBox="0 0 406 304" fill="none" xmlns="http://www.w3.org/2000/svg">
<g clip-path="url(#clip0_6010_15424)">
<g clip-path="url(#clip1_6010_15424)">
<path d="M206.622 150.734L29.2583 272.434C29.2583 272.434 26.575 274.554 21.8151 267.65C16.9741 260.713 20.1928 258.909 20.1928 258.909L199.297 139.447L206.622 150.734Z" fill="#E6ECEC"/>
<path d="M26.274 273.67C26.6804 273.838 27.1203 273.925 27.4789 273.978C28.9945 274.224 29.8507 273.533 30.0803 273.438L207.33 151.786C207.889 151.352 208.109 150.589 207.708 149.948L200.349 138.742C200.172 138.479 199.88 138.264 199.522 138.211C199.163 138.158 198.852 138.219 198.508 138.362L19.4042 257.823C19.2894 257.871 18.2372 258.576 17.878 260.137C17.3655 262.299 18.316 265.066 20.6481 268.403C22.6601 271.133 24.486 272.932 26.274 273.67ZM204.782 150.354L28.4697 271.348C27.9771 271.62 25.988 271.368 22.8673 266.945C19.6989 262.408 20.3404 260.394 20.8665 260.042L198.918 141.285L204.782 150.354Z" fill="black"/>
<path d="M208.794 149.162L184.736 165.72C184.736 165.72 184.919 162.282 181.889 158.561C179.246 155.286 176.659 154.407 176.659 154.407L202.09 137.752L208.794 149.162Z" fill="#E6ECEC"/>
<path d="M184.233 166.936C184.64 167.104 185.113 167.11 185.524 166.805L209.582 150.247C210.142 149.814 210.329 149.131 210.009 148.524L203.338 137.033C203.195 136.689 202.903 136.473 202.544 136.42C202.186 136.367 201.794 136.395 201.531 136.571L176.1 153.227C175.689 153.532 175.488 154.019 175.483 154.491C175.478 154.964 175.865 155.409 176.353 155.61C176.353 155.61 178.662 156.469 180.966 159.414C183.609 162.69 183.545 165.608 183.512 165.689C183.507 166.161 183.779 166.654 184.152 166.903C184.152 166.903 184.152 166.903 184.233 166.936ZM207.034 148.815L185.789 163.4C185.445 161.929 184.7 159.817 182.893 157.742C181.589 156.063 180.212 155.02 179.174 154.307L201.63 139.556L207.034 148.815Z" fill="black"/>
<path d="M266.225 101.092C266.225 101.092 259.521 91.2959 259.772 84.4678C259.951 79.8886 262.211 83.8607 266.887 84.7473C271.596 85.5529 273.5 84.6297 273.5 84.6297C273.5 84.6297 273.584 89.0327 271.57 92.7587C270.388 94.9294 266.225 101.092 266.225 101.092Z" fill="#99CCCC"/>
<path d="M266.234 103.375L267.263 101.805C267.445 101.595 271.54 95.5952 272.674 93.3098C274.823 89.2593 274.805 84.6941 274.791 84.4983L274.715 82.378L272.812 83.3011C272.812 83.3011 271.09 84.0145 267.017 83.2817C265.501 83.0355 264.186 82.3027 263.163 81.7852C261.848 81.0523 260.744 80.5013 259.644 81.0915C258.625 81.7153 258.367 83.0329 258.338 84.2553C258.033 91.4415 264.705 101.319 265.011 101.73L266.234 103.375ZM272.079 86.2271C271.916 87.774 271.485 89.9699 270.418 92.0931C269.652 93.4861 267.561 96.7058 266.284 98.6472C264.487 95.6261 260.946 89.226 261.111 84.451C261.13 84.1741 261.149 83.8972 261.135 83.7014C261.379 83.8021 261.752 84.051 261.996 84.1517C263.1 84.7028 264.658 85.5363 266.58 85.9503C269.057 86.4034 270.869 86.3922 272.079 86.2271Z" fill="black"/>
<path d="M284.458 101.405C286.991 102.641 287.981 103.24 289.582 104.661C292.364 107.139 293.339 109.156 293.339 109.156C293.339 109.156 296.139 100.532 304.133 90.1595C311.482 80.6598 339.426 54.692 352.58 42.6522C356.751 38.7723 358.952 35.9778 358.952 35.9778C358.952 35.9778 355.265 37.3038 350.19 40.1459C334.542 48.7814 301.097 66.875 289.791 70.7522C277.405 74.9428 268.995 73.6534 268.995 73.6534C268.995 73.6534 270.735 75.8912 271.604 78.6242C272.282 80.8983 272.778 83.3823 272.763 84.8005C272.763 84.8005 276.793 88.174 279.33 92.1657C281.677 95.6986 284.458 101.405 284.458 101.405Z" fill="#E6ECEC"/>
<path d="M292.918 110.407C293.08 110.474 293.357 110.493 293.553 110.479C294.06 110.404 294.553 110.132 294.706 109.531C294.74 109.45 297.588 100.94 305.252 90.9064C312.486 81.4543 341.353 54.6333 353.436 43.5754C357.688 39.729 359.889 36.9345 359.956 36.7723C360.319 36.3527 360.31 35.6841 359.956 35.1582C359.651 34.747 359.082 34.5121 358.508 34.7498C358.393 34.7974 354.672 36.2045 349.55 38.932C335.231 46.8821 300.686 65.5659 289.381 69.4432C277.535 73.4771 269.254 72.336 269.139 72.3835C268.584 72.3444 268.125 72.5346 267.843 72.9878C267.561 73.4409 267.603 74.0283 267.909 74.4395C267.909 74.4395 269.52 76.5291 270.294 79.0326C271.005 81.2257 271.372 83.5614 271.425 84.8174C271.453 85.209 271.596 85.5531 271.888 85.7685C271.969 85.802 275.755 89.0748 278.197 92.8371C280.414 96.2218 283.229 101.847 283.276 101.962C283.372 102.191 283.663 102.407 283.874 102.588C286.326 103.791 287.235 104.356 288.707 105.629C291.231 107.811 292.158 109.713 292.158 109.713C292.301 110.057 292.592 110.272 292.918 110.407ZM353.672 39.7795C353.045 40.3753 352.418 40.9711 351.677 41.6145C336.609 55.5229 310.296 80.0752 303.13 89.3652C297.551 96.6522 294.431 103.055 293.058 106.381C292.413 105.64 291.557 104.717 290.458 103.693C288.856 102.272 287.785 101.64 285.414 100.471C284.726 99.1421 282.342 94.549 280.349 91.5419C278.213 88.1908 275.125 85.3013 273.945 84.2439C273.864 82.5963 273.415 80.227 272.766 78.3445C272.403 77.15 271.892 76.0843 271.395 75.2143C274.904 75.2394 281.618 74.8784 290.121 72.0278C301.197 68.2457 332.867 51.2236 350.749 41.3264C351.849 40.7362 352.801 40.2746 353.672 39.7795Z" fill="black"/>
<path d="M266.24 101.288C266.24 101.288 272.419 111.436 278.906 113.926C283.166 115.59 280.413 111.889 281.539 107.321C282.698 102.672 284.295 101.338 284.295 101.338C284.295 101.338 280.298 99.4972 275.985 99.805C273.518 100.02 266.24 101.288 266.24 101.288Z" fill="#99CCCC"/>
<path d="M278.16 115.042C278.241 115.075 278.322 115.109 278.404 115.143C279.541 115.613 280.828 115.954 281.799 115.215C282.851 114.51 282.717 113.221 282.651 111.769C282.565 110.594 282.499 109.142 282.825 107.663C283.83 103.615 285.198 102.376 285.198 102.376L286.681 101.089L284.845 100.236C284.683 100.169 280.524 98.2609 275.933 98.5492C273.384 98.731 266.302 99.9843 265.992 100.046L264.127 100.415L265.154 102.074C265.379 102.452 271.495 112.29 278.16 115.042ZM280.059 112.977C279.896 112.91 279.652 112.81 279.375 112.79C275.034 111.092 270.508 105.235 268.482 102.309C270.82 101.945 274.517 101.288 276.166 101.209C278.519 101.041 280.766 101.59 282.215 101.998C281.583 103.067 280.832 104.656 280.3 107.095C279.807 108.98 279.935 110.742 280.069 112.032C279.968 112.275 279.997 112.667 280.059 112.977Z" fill="black"/>
<path d="M271.307 92.9351C273.183 88.3923 272.797 84.7195 272.797 84.7195C272.797 84.7195 277.082 84.0201 281.279 85.3739C283.134 85.9501 285.262 87.0186 286.241 88.5627C287.302 90.1403 287.402 93.125 287.037 95.1587C286.275 99.3071 284.424 101.486 284.424 101.486C284.424 101.486 280.279 99.7743 276.392 99.973C274.154 100.093 271.112 100.547 267.621 101.859C266.588 102.287 265.657 100.857 266.465 100.052C268.599 97.4193 270.637 94.5576 271.307 92.9351Z" fill="#99CCCC"/>
<path d="M266.239 102.902C266.808 103.137 267.396 103.095 267.97 102.857C271.691 101.45 274.78 101.111 276.348 101C279.844 100.829 283.745 102.44 283.826 102.474L284.72 102.843L285.299 102.132C285.332 102.051 287.48 99.6147 288.261 95.1894C288.606 93.4327 288.775 89.799 287.279 87.6619C285.817 85.4437 282.824 84.3975 281.653 84.0087C277.178 82.6354 272.812 83.3012 272.616 83.3152L271.373 83.5614L271.425 84.8174C271.425 84.8174 271.796 88.2944 270.088 92.4316C269.552 93.7296 267.662 96.4625 265.366 99.0277C264.638 99.8669 264.495 101.137 265.154 102.074C265.379 102.452 265.751 102.701 266.239 102.902ZM283.822 99.7183C282.326 99.1952 279.185 98.2778 276.163 98.454C274.236 98.5128 271.309 98.9185 267.852 100.149C269.966 97.794 271.856 95.061 272.526 93.4386C273.832 90.2748 274.14 87.4579 274.14 85.8439C275.594 85.7795 278.272 85.7459 280.81 86.5095C282.747 87.1193 284.319 88.1487 285.06 89.1193C285.815 90.2858 286.001 92.8313 285.622 94.6691C285.172 97.1419 284.353 98.8931 283.822 99.7183Z" fill="black"/>
<path d="M358.136 34.9029L359.682 37.0391L286.883 89.5223L285.337 87.3861L358.136 34.9029Z" fill="black"/>
<path d="M252.334 102.477C252.334 102.477 256.078 103.548 258.544 106.561C261.044 109.493 261.573 113.509 261.573 113.509C261.573 113.509 267.754 106.376 270.309 102.494C272.036 99.6934 269.073 95.8109 265.701 96.6026C263.607 97.067 252.334 102.477 252.334 102.477Z" fill="#99CCCC"/>
<path d="M260.692 116.564L262.625 114.419C262.84 114.128 268.92 107.238 271.427 103.24C272.523 101.509 272.366 99.355 271.095 97.5955C269.776 95.7213 267.5 94.7815 265.372 95.327C263.163 95.839 252.875 100.706 251.775 101.297L248.691 102.777L251.994 103.761C252.076 103.795 255.379 104.779 257.621 107.414C259.862 110.049 260.363 113.675 260.33 113.756L260.692 116.564ZM267.613 97.962C268.182 98.197 268.684 98.5942 268.957 99.0865C269.439 99.7606 269.754 100.84 269.19 101.747C267.563 104.303 264.272 108.357 262.272 110.665C261.766 109.126 260.92 107.258 259.582 105.66C258.292 104.178 256.834 103.101 255.519 102.368C259.751 100.413 264.902 98.0768 266.064 97.797C266.605 97.6403 267.126 97.7606 267.613 97.962Z" fill="black"/>
<path d="M200.333 141.774C198.336 137.626 197.572 134.177 199.351 134.247C203.693 134.331 209.724 130.554 215.272 126.104C219.405 122.778 233.663 111.289 239.255 107.426C244.764 103.529 252.597 102.301 252.597 102.301C252.597 102.301 255.763 102.469 258.898 107.087C261.937 111.476 260.678 114.754 260.678 114.754C260.678 114.754 257.051 121.233 251.493 125.015C245.936 128.797 229.512 138.157 224.897 140.809C218.77 144.356 213.456 148.239 211.977 152.281C211.355 154.018 208.008 152.446 204.925 149.084C204.328 148.457 203.234 146.961 202.302 145.531C201.322 143.987 200.668 142.577 200.333 141.774Z" fill="#99CCCC"/>
<path d="M209.055 153.828C209.868 154.163 210.748 154.337 211.403 154.133C212.22 153.995 212.847 153.4 213.182 152.588C214.695 148.465 221.022 144.431 225.556 141.746L227.823 140.403C234.18 136.761 247.303 129.172 252.187 125.871C257.974 121.994 261.634 115.434 261.85 115.143L261.883 115.062L261.917 114.981C261.984 114.818 263.362 111.02 259.969 106.105C256.528 101.075 252.842 100.787 252.646 100.801L252.368 100.782C252.058 100.843 244.191 102.153 238.452 106.145C233.765 109.431 222.816 118.204 216.971 122.912L214.436 124.904C206.204 131.475 201.685 132.742 199.318 132.714C198.486 132.655 197.764 133.022 197.381 133.718C197.066 134.252 196.037 135.822 199.023 142.183L199.071 142.297C199.486 143.134 200.141 144.544 201.073 145.973C201.923 147.369 203.147 149.014 203.792 149.755C205.374 151.453 207.267 153.089 209.055 153.828ZM210.744 151.581C210.074 151.59 208.11 150.588 205.801 148.116C205.251 147.604 204.238 146.141 203.388 144.745C202.537 143.349 201.978 142.169 201.562 141.332L201.515 141.218C199.933 137.906 199.609 136.157 199.681 135.522C203.697 135.472 209.245 132.635 216.176 127.141L218.711 125.15C224.556 120.442 235.437 111.831 240.043 108.511C244.845 105.177 251.487 103.837 252.649 103.557C253.171 103.677 255.499 104.259 257.879 107.711C260.259 111.162 259.612 113.649 259.526 114.088C259.076 114.947 255.737 120.5 250.772 123.767C245.922 126.987 232.798 134.576 226.557 138.171L224.29 139.514C216.389 144.132 212.204 147.816 210.744 151.581Z" fill="black"/>
</g>
</g>
<defs>
<clipPath id="clip0_6010_15424">
<rect width="406" height="304" fill="white"/>
</clipPath>
<clipPath id="clip1_6010_15424">
<rect width="231" height="348" fill="white" transform="matrix(-0.924278 -0.381721 -0.381721 0.924278 360.673 35.2644)"/>
</clipPath>
</defs>
</svg>
