<?xml version="1.0" encoding="utf-8"?><svg width="504.9" height="611" viewBox="0 0 504.9 611" xmlns="http://www.w3.org/2000/svg" xmlns:xlink="http://www.w3.org/1999/xlink"><svg width="32.9" height="43.3" viewBox="0 0 32.9 43.3" id="foot_telline"><path fill="#221F1F" d="M1.9 43.3H0L31 0h1.9"/></svg><svg width="504.9" height="210" viewBox="-239 181 504.9 210" id="head_back" y="44"><defs><path id="ba" d="M-239 181h504.9v210H-239z"/></defs><clipPath id="bb"><use xlink:href="#ba" overflow="visible"/></clipPath><g clip-path="url(#bb)"><path fill="#F0F7F7" d="M-5.125 393.672l-228.762-213.916 9.562-10.225L4.437 383.448z"/></g><defs><path id="bc" d="M-239 181h504.9v210H-239z"/></defs><clipPath id="bd"><use xlink:href="#bc" overflow="visible"/></clipPath><path clip-path="url(#bd)" fill="#FFF100" d="M31.2 420.3C-23.3 369.9-131.5 266.2-224.1 180l-1.4-1.1-13.8-314.5 580.1-102-.1 4.8c-26.2 153.6-72.1 396.1-95.8 506.6v2l-1.7 1.2C154.2 338.1 90.1 384.4 36 420.9l-2.6 1.5-2.2-2.1z"/></svg><svg width="39.2" height="31.8" viewBox="0 0 39.2 31.8" id="head_cart" y="254"><path fill="#221F1F" d="M34.5 20.8l4.6-13.9c.2-.7.1-1.1-.1-1.3-.5-.7-1.5-.7-1.7-.7H11.1l-.7-3.3C10.2.7 9.7 0 8.5 0H1.2C.4 0 0 .4 0 1.1V3c0 .7.4.9 1.2.9h6.2l4.8 20.2c-.8.8-1.2 2-1.2 3.1 0 2.4 1.9 4.6 4.3 4.6 2.3 0 4-2.2 4.3-3.4h9.3c.3 1.3 1.7 3.5 4.3 3.5 2.4 0 4.3-2.1 4.3-4.5s-1.4-4.5-4.3-4.5c-1.2 0-2.6.6-3.3 1.6H18.6c-.8-1.3-2-1.7-3.1-1.7l-.2-.8h17.3c1.4-.1 1.7-.6 1.9-1.2zm-1.2 4.8c.9 0 1.6.7 1.6 1.6s-.7 1.6-1.6 1.6c-.9 0-1.6-.7-1.6-1.6-.1-.8.7-1.6 1.6-1.6zM17 27.3c0 .9-.7 1.7-1.6 1.7-.9 0-1.7-.7-1.7-1.7s.7-1.7 1.7-1.7c.8 0 1.6.7 1.6 1.7z"/></svg><svg width="40.7" height="50.2" viewBox="0 0 40.7 50.2" id="head_cartnum" y="286"><path fill="#FFF" d="M20.2 49C18 46.7 9.3 37.8 2.1 31.9L1 8.7l38.6-7.4c-.2 6.2-.9 32.3-1 36.6-7.8 5.1-16 9.8-18.4 11.1z"/><path fill="#221F1F" d="M38.6 2.4c-.2 7.5-.9 29.6-1 34.8-7.1 4.7-14.3 8.9-17.3 10.5C17.6 44.8 9.8 37 3 31.4L2 9.5l36.6-7.1M40.7 0L0 7.8s1 21.8 1.1 24.5C9.5 39.2 20 50.2 20 50.2s10.1-5.5 19.6-11.9c0-1.6 1.1-38.3 1.1-38.3z"/></svg><svg width="12" height="13" viewBox="0 0 12 13" id="head_corner_bottom" y="337"><path fill="none" stroke="#FFF100" stroke-width="2" stroke-miterlimit="10" d="M12 12H1V0"/></svg><svg width="12" height="12" viewBox="0 0 12 12" id="head_corner_top" y="350"><path fill="none" stroke="#FFF100" stroke-width="2" stroke-miterlimit="10" d="M12 1H1v11"/></svg><svg width="8.8" height="8.5" viewBox="0 0 8.8 8.5" id="header_menuline" y="362"><path fill="#221F1F" d="M0 0l8.8 7.7-.7.8L0 1.3"/></svg><svg width="73.8" height="136.9" viewBox="0 0 73.8 136.9" id="opt_line" y="371"><path fill="#E8EFEF" d="M72.018-.02l1.768.937L1.792 136.934l-1.768-.936z"/></svg><svg width="4.3" height="5.4" viewBox="0 0 4.3 5.4" id="pr_count_corner" y="508"><defs><path id="ia" d="M0 0h4.3v5.4H0z"/></defs><clipPath id="ib"><use xlink:href="#ia" overflow="visible"/></clipPath><g clip-path="url(#ib)"><path fill="#E8EFEF" d="M30.8 10.9h-27V5.2l-3-2.4 3-2.6v-5.5h27"/><path fill="#B6CDD3" d="M31.3 11.4h-28v-6L0 2.8 3.3 0v-5.8h28v17.2zm-27-1h26V-4.8h-26V.5L1.6 2.8 4.3 5v5.4z"/></g></svg><svg width="13.8" height="7.9" viewBox="0 0 13.8 7.9" id="selectArrTop" y="514"><symbol id="ja" viewBox="-6.9 -3.9 13.8 7.9"><path fill="#4D4D4D" d="M0-3.9c-.2 0-.5.1-.7.3l-5.9 5.9c-.4.4-.4 1 0 1.4.4.4 1 .4 1.4 0L0-1.6l5.3 5.3c.4.4 1 .4 1.4 0 .4-.4.4-1 0-1.4l-6-6c-.2-.1-.5-.2-.7-.2z"/></symbol><use xlink:href="#ja" width="13.8" height="7.9" x="-6.9" y="-3.9" transform="matrix(1 0 0 -1 6.902 3.934)" overflow="visible"/></svg><svg width="24" height="21" viewBox="0 0 24 21" id="slash" y="522"><path fill="#E8EFEF" d="M24 21h-2L0 0h2"/></svg><svg width="9.2" height="7.8" viewBox="0 0 9.2 7.8" id="sort_asc" y="543"><linearGradient id="la" gradientUnits="userSpaceOnUse" y1="3.888" x2="9.178" y2="3.888"><stop offset="0" stop-color="#ED1C24"/><stop offset="1" stop-color="#C1272D"/></linearGradient><path fill="url(#la)" d="M3.9.4L.1 6.5c-.1.2-.1.4-.1.6 0 .7.5.7.7.7h7.9c.1 0 .7 0 .7-.7 0-.2 0-.4-.1-.6L5.2.4c-.3-.5-.6-.4-.6-.4s-.4-.1-.7.4z"/></svg><svg width="9.2" height="17" viewBox="0 0 9.2 17" id="sort_def" y="551"><path fill="#CCC" d="M3.9.4L.1 6.5c-.1.2-.1.4-.1.6 0 .7.5.7.7.7h7.9c.1 0 .7 0 .7-.7 0-.2 0-.4-.1-.6L5.2.4c-.3-.5-.6-.4-.6-.4s-.4-.1-.7.4zM4.6 17s.4.1.7-.4l3.8-6.1c.1-.2.1-.4.1-.6 0-.7-.5-.7-.7-.7H.7c-.2 0-.7 0-.7.7 0 .2 0 .4.1.6l3.8 6.1c.3.5.7.4.7.4z"/></svg><svg width="9.2" height="7.8" viewBox="0 0 9.2 7.8" id="sort_desc" y="568"><linearGradient id="na" gradientUnits="userSpaceOnUse" y1="3.888" x2="9.178" y2="3.888"><stop offset="0" stop-color="#ED1C24"/><stop offset="1" stop-color="#C1272D"/></linearGradient><path fill="url(#na)" d="M4.6 7.8s.4.1.7-.4l3.8-6.1c.1-.2.1-.4.1-.6 0-.7-.6-.7-.7-.7H.7C.5 0 0 0 0 .7c0 .2 0 .4.1.6l3.8 6.1c.3.5.7.4.7.4z"/></svg><svg width="21.7" height="34.9" viewBox="0 0 21.7 34.9" id="speechCorLeft" y="576"><path fill="#E8EFEF" stroke="#B6CDD3" stroke-miterlimit="10" d="M21.4 34.6L.8 18 21.4.4"/></svg></svg>