<svg width="19" height="21" viewBox="0 0 19 21" fill="none" xmlns="http://www.w3.org/2000/svg">
<path d="M18.3211 9.4063C17.9642 9.4063 17.6745 9.1123 17.6745 8.75005C17.6745 6.23705 16.7107 3.87544 14.9604 2.09831C14.7078 1.84196 14.7078 1.42636 14.9604 1.17001C15.213 0.913666 15.6225 0.913666 15.8753 1.17001C17.8695 3.19468 18.9677 5.88713 18.9677 8.75005C18.9677 9.1123 18.6781 9.4063 18.3211 9.4063Z" fill="white"/>
<path d="M0.646629 9.4063C0.289689 9.4063 0 9.1123 0 8.75005C0 5.88713 1.09845 3.19468 3.09343 1.17081C3.34602 0.914467 3.75569 0.914467 4.00828 1.17081C4.26087 1.42716 4.26087 1.84293 4.00828 2.09927C2.2572 3.87544 1.29326 6.23705 1.29326 8.75005C1.29326 9.1123 1.00357 9.4063 0.646629 9.4063Z" fill="white"/>
<path d="M9.48395 21.0001C7.70098 21.0001 6.2508 19.5284 6.2508 17.7189C6.2508 17.3566 6.54049 17.0626 6.89743 17.0626C7.25437 17.0626 7.54406 17.3566 7.54406 17.7189C7.54406 18.8048 8.41392 19.6876 9.48395 19.6876C10.5538 19.6876 11.4238 18.8048 11.4238 17.7189C11.4238 17.3566 11.7135 17.0626 12.0705 17.0626C12.4274 17.0626 12.7171 17.3566 12.7171 17.7189C12.7171 19.5284 11.2669 21.0001 9.48395 21.0001Z" fill="white"/>
<path d="M16.5969 18.3751H2.37103C1.5389 18.3751 0.86212 17.6883 0.86212 16.8439C0.86212 16.3958 1.0544 15.9715 1.38987 15.6801C2.70113 14.5557 3.44864 12.9213 3.44864 11.1897V8.75005C3.44864 5.37267 6.15592 2.62511 9.48395 2.62511C12.8118 2.62511 15.5191 5.37267 15.5191 8.75005V11.1897C15.5191 12.9213 16.2666 14.5557 17.5693 15.674C17.9133 15.9715 18.1056 16.3958 18.1056 16.8439C18.1056 17.6883 17.4288 18.3751 16.5969 18.3751ZM9.48395 3.93761C6.86886 3.93761 4.7419 6.09621 4.7419 8.75005V11.1897C4.7419 13.3079 3.82721 15.3082 2.23305 16.6758C2.2029 16.7021 2.15538 16.7564 2.15538 16.8439C2.15538 16.9628 2.25373 17.0626 2.37103 17.0626H16.5969C16.714 17.0626 16.8124 16.9628 16.8124 16.8439C16.8124 16.7564 16.765 16.7021 16.7364 16.6776C15.1405 15.3082 14.2258 13.3079 14.2258 11.1897V8.75005C14.2258 6.09621 12.0989 3.93761 9.48395 3.93761Z" fill="white"/>
<path d="M9.48395 3.93761C9.12701 3.93761 8.83732 3.64361 8.83732 3.28136V0.656357C8.83732 0.294106 9.12701 0.000106812 9.48395 0.000106812C9.84089 0.000106812 10.1306 0.294106 10.1306 0.656357V3.28136C10.1306 3.64361 9.84089 3.93761 9.48395 3.93761Z" fill="white"/>
</svg>
