<svg width="134" height="140" viewBox="0 0 134 140" fill="none" xmlns="http://www.w3.org/2000/svg">
<path d="M24.4701 95.347C10.9556 70.908 18.9757 39.658 42.3834 25.5482C65.7911 11.4383 95.7225 19.8117 109.237 44.2507C122.751 68.6897 114.731 99.9397 91.3236 114.05C67.9159 128.159 37.9845 119.786 24.4701 95.347Z" fill="#242729"/>
<path d="M36.2978 102.874C33.8302 100.363 31.6116 97.5106 29.7097 94.3356L30.9685 93.5164C30.699 93.0665 30.4361 92.6099 30.1799 92.1466C29.9237 91.6834 29.6764 91.2173 29.438 90.7487L28.1291 91.4773C26.4464 88.1701 25.1896 84.7378 24.3405 81.2512L25.7719 80.8536C25.5197 79.8179 25.3047 78.7772 25.1263 77.7337L23.6731 78.0257C23.0486 74.3712 22.8591 70.6815 23.0843 67.0365L24.5569 67.1053C24.6229 66.0361 24.7259 64.9708 24.8652 63.9117L23.4031 63.7343C23.8857 60.0647 24.7902 56.4662 26.0951 53.0227L27.4679 53.555C27.8469 52.5549 28.2608 51.5684 28.709 50.5978L27.3793 49.9627C28.918 46.6306 30.848 43.4775 33.1482 40.5864L34.2812 41.5408C34.9402 40.7124 35.6307 39.9064 36.3521 39.1248L35.2931 38.084C37.7326 35.4409 40.5134 33.0667 43.6164 31.0372L44.3891 32.3204C44.8281 32.0333 45.2738 31.7533 45.7262 31.4806C46.1786 31.2079 46.6338 30.9449 47.0914 30.6915L46.4134 29.3512C49.6483 27.5604 53.0081 26.233 56.4202 25.3489L56.754 26.8268C57.7631 26.5653 58.7769 26.344 59.7936 26.1623L59.5684 24.6607C63.1165 24.0265 66.697 23.8579 70.2303 24.1327L70.0922 25.6525C71.1215 25.7326 72.1467 25.8516 73.1658 26.009L73.4106 24.5016C76.9193 25.0435 80.3565 26.0249 83.6417 27.4233L83.0578 28.834C84.0059 29.2376 84.941 29.6771 85.861 30.152L86.5402 28.7862C89.6763 30.4051 92.642 32.4212 95.3611 34.8131L94.3923 35.9811C95.1688 36.6641 95.9244 37.3789 96.6574 38.1248L97.7029 37.0294C100.17 39.5404 102.389 42.3929 104.291 45.5679L103.032 46.3872C103.302 46.837 103.565 47.2936 103.821 47.7569C104.077 48.2202 104.324 48.6862 104.563 49.1548L105.872 48.4262C107.554 51.7334 108.811 55.1657 109.66 58.6523L108.229 59.0499C108.481 60.0857 108.696 61.1263 108.874 62.1699L110.328 61.8779C110.952 65.5324 111.142 69.222 110.916 72.867L109.444 72.7982C109.378 73.8675 109.275 74.9327 109.136 75.9918L110.598 76.1692C110.115 79.8389 109.21 83.4374 107.906 86.8809L106.533 86.3485C106.154 87.3486 105.74 88.3351 105.292 89.3058L106.621 89.9408C105.083 93.273 103.153 96.4261 100.852 99.3172L99.7195 98.3627C99.0605 99.1911 98.37 99.9971 97.6486 100.779L98.7076 101.82C96.2681 104.463 93.4873 106.837 90.3843 108.866L89.6116 107.583C89.1726 107.87 88.7269 108.15 88.2745 108.423C87.8221 108.696 87.3669 108.959 86.9093 109.212L87.5873 110.552C84.3524 112.343 80.9926 113.671 77.5804 114.555L77.2467 113.077C76.2376 113.338 75.2238 113.56 74.2071 113.741L74.4323 115.243C70.8841 115.877 67.3037 116.046 63.7704 115.771L63.9085 114.251C62.8792 114.171 61.854 114.052 60.8349 113.895L60.5901 115.402C57.0814 114.86 53.6442 113.879 50.359 112.48L50.9429 111.07C49.9947 110.666 49.0597 110.226 48.1397 109.752L47.4605 111.117C44.3244 109.498 41.3587 107.482 38.6396 105.09L39.6084 103.922C38.8319 103.239 38.0763 102.525 37.3433 101.779L36.2978 102.874Z" stroke="white" stroke-width="3" stroke-linejoin="bevel" stroke-dasharray="3 10"/>
<ellipse cx="66.5" cy="69.4297" rx="28.5" ry="29.7556" fill="white"/>
<g filter="url(#filter0_d)">
<path d="M74.5556 72.8907C73.4536 72.8907 72.3716 72.7107 71.3462 72.357C70.9264 72.2075 70.4262 72.2974 70.0942 72.5228C69.9677 72.6087 69.8591 72.7185 69.739 72.8132L69.4661 73.0283C68.515 73.7779 67.1816 73.9135 66.2184 73.1795C65.2563 72.4464 64.4747 71.6153 63.7867 70.5954C63.1589 69.6647 63.279 68.4446 63.9353 67.5338L64.3496 66.9588C64.7348 66.5571 64.873 65.9703 64.7075 65.4197C64.3672 64.3435 64.1943 63.2144 64.1943 62.0633C64.1943 61.2317 63.5464 60.5552 62.75 60.5552H59.4444C58.648 60.5552 58 61.2317 58 62.0632C58 71.5943 65.4268 79.3482 74.5556 79.3482C75.352 79.3482 76 78.6718 76 77.8403V74.3986C76 73.5672 75.352 72.8907 74.5556 72.8907Z" fill="#5ADD09"/>
</g>
<defs>
<filter id="filter0_d" x="38" y="47.5552" width="58" height="58.793" filterUnits="userSpaceOnUse" color-interpolation-filters="sRGB">
<feFlood flood-opacity="0" result="BackgroundImageFix"/>
<feColorMatrix in="SourceAlpha" type="matrix" values="0 0 0 0 0 0 0 0 0 0 0 0 0 0 0 0 0 0 127 0"/>
<feOffset dy="7"/>
<feGaussianBlur stdDeviation="10"/>
<feColorMatrix type="matrix" values="0 0 0 0 0.179167 0 0 0 0 0.45825 0 0 0 0 1 0 0 0 0.31 0"/>
<feBlend mode="normal" in2="BackgroundImageFix" result="effect1_dropShadow"/>
<feBlend mode="normal" in="SourceGraphic" in2="effect1_dropShadow" result="shape"/>
</filter>
</defs>
</svg>
