<svg width="25" height="32" viewBox="0 0 25 32" fill="none" xmlns="http://www.w3.org/2000/svg">
<path d="M18.875 15.5C18.875 15.125 18.5 14.75 18.125 14.75H7.625C7.1875 14.75 6.875 15.125 6.875 15.5V17.25C6.875 17.6875 7.1875 18 7.625 18H18.125C18.5 18 18.875 17.6875 18.875 17.25V15.5ZM18.125 20H7.625C7.1875 20 6.875 20.375 6.875 20.75V22.5C6.875 22.9375 7.1875 23.25 7.625 23.25H18.125C18.5 23.25 18.875 22.9375 18.875 22.5V20.75C18.875 20.375 18.5 20 18.125 20ZM24.875 8.25C24.875 7.5 24.5 6.6875 23.9375 6.125L18.75 0.9375C18.1875 0.375 17.375 0 16.625 0H3.875C2.1875 0 0.875 1.375 0.875 3V29C0.875 30.6875 2.1875 32 3.875 32H21.875C23.5 32 24.875 30.6875 24.875 29V8.25ZM16.875 3.25L21.625 8H16.875V3.25ZM21.875 29H3.875V3H13.875V9.5C13.875 10.375 14.5 11 15.375 11H21.875V29Z" fill="#1763F8"/>
</svg>
