<svg width="57" height="60" viewBox="0 0 57 60" fill="none" xmlns="http://www.w3.org/2000/svg">
<ellipse cx="28.5" cy="29.7556" rx="28.5" ry="29.7556" fill="#E8F0F9"/>
<g filter="url(#filter0_d)">
<path d="M28.1743 35.1953H28.8257C31.9687 35.1953 34.5257 32.6194 34.5257 29.4531V21.7969C34.5257 18.6004 31.9687 16 28.8257 16H28.1743C25.0348 16 22.4799 18.5948 22.4743 21.7864V29.4531C22.4743 32.6194 25.0313 35.1953 28.1743 35.1953ZM28.1743 17.6406H28.8257C30.9075 17.6406 32.6283 19.2442 32.8676 21.3047H31.54C31.0903 21.3047 30.7257 21.672 30.7257 22.125C30.7257 22.578 31.0903 22.9453 31.54 22.9453H32.8971V24.8047H30.6714C30.2217 24.8047 29.8571 25.172 29.8571 25.625C29.8571 26.078 30.2217 26.4453 30.6714 26.4453H32.8971V28.3047H31.54C31.0903 28.3047 30.7257 28.672 30.7257 29.125C30.7257 29.578 31.0903 29.9453 31.54 29.9453H32.8668C32.6245 31.9756 30.9053 33.5547 28.8257 33.5547H28.1743C26.0948 33.5547 24.3755 31.9756 24.1332 29.9453H25.46C25.9097 29.9453 26.2743 29.578 26.2743 29.125C26.2743 28.672 25.9097 28.3047 25.46 28.3047H24.1029V26.4453H26.3286C26.7783 26.4453 27.1429 26.078 27.1429 25.625C27.1429 25.172 26.7783 24.8047 26.3286 24.8047H24.1029V22.9453H25.46C25.9097 22.9453 26.2743 22.578 26.2743 22.125C26.2743 21.672 25.9097 21.3047 25.46 21.3047H24.1324C24.3717 19.2442 26.0925 17.6406 28.1743 17.6406Z" fill="#1763F8"/>
<path d="M38 29.125C38 28.672 37.6354 28.3047 37.1857 28.3047C36.736 28.3047 36.3714 28.672 36.3714 29.125C36.3714 33.4974 32.8403 37.0547 28.5 37.0547C24.1597 37.0547 20.6286 33.4974 20.6286 29.125C20.6286 28.672 20.264 28.3047 19.8143 28.3047C19.3646 28.3047 19 28.672 19 29.125C19 34.1257 22.8272 38.2423 27.6857 38.6598V42.3594H23.2886C22.8389 42.3594 22.4743 42.7267 22.4743 43.1797C22.4743 43.6327 22.8389 44 23.2886 44H33.7114C34.1611 44 34.5257 43.6327 34.5257 43.1797C34.5257 42.7267 34.1611 42.3594 33.7114 42.3594H29.3143V38.6598C34.1728 38.2423 38 34.1257 38 29.125Z" fill="#1763F8"/>
</g>
<defs>
<filter id="filter0_d" x="9" y="8" width="39" height="48" filterUnits="userSpaceOnUse" color-interpolation-filters="sRGB">
<feFlood flood-opacity="0" result="BackgroundImageFix"/>
<feColorMatrix in="SourceAlpha" type="matrix" values="0 0 0 0 0 0 0 0 0 0 0 0 0 0 0 0 0 0 127 0"/>
<feOffset dy="2"/>
<feGaussianBlur stdDeviation="5"/>
<feColorMatrix type="matrix" values="0 0 0 0 0 0 0 0 0 0.596078 0 0 0 0 0.498039 0 0 0 0.2 0"/>
<feBlend mode="normal" in2="BackgroundImageFix" result="effect1_dropShadow"/>
<feBlend mode="normal" in="SourceGraphic" in2="effect1_dropShadow" result="shape"/>
</filter>
</defs>
</svg>
