<svg width="320" height="409" viewBox="0 0 320 409" fill="none" xmlns="http://www.w3.org/2000/svg">
<path d="M29.0123 314.119C29.0522 313.937 29.1845 313.789 29.3606 313.73L41.4094 309.695C41.6856 309.602 41.9843 309.752 42.0764 310.03C42.1685 310.308 42.0192 310.608 41.7429 310.7L31.6784 314.071L44.5417 316.319L61.3634 304.129L43.9951 309.946C43.7188 310.038 43.4202 309.888 43.3281 309.611C43.2359 309.333 43.3853 309.033 43.6616 308.94L64.3059 302.026C64.3129 302.024 64.3179 302.023 64.3239 302.022C64.4736 301.978 64.6394 302 64.7744 302.094C64.9816 302.24 65.0571 302.512 64.9545 302.744L50.9764 334.344C50.9069 334.502 50.7656 334.615 50.5976 334.649C50.5633 334.656 50.5288 334.659 50.4946 334.659C50.3608 334.659 50.2305 334.608 50.1316 334.514L44.2989 328.955L39.1277 332.236C39.1253 332.238 39.1227 332.238 39.1202 332.239C39.039 332.289 38.9451 332.318 38.8465 332.318C38.8267 332.318 38.8069 332.317 38.7869 332.315C38.5437 332.287 38.3514 332.095 38.3225 331.851L37.1803 322.197L29.166 314.619C29.0308 314.491 28.9725 314.301 29.0123 314.119ZM31.1688 315.057L37.7257 321.258L43.3459 317.185L31.1688 315.057ZM41.9374 325.244L49.564 332.512L46.704 320.595L41.9374 325.244ZM41.3997 326.192L39.8582 330.52L43.5095 328.202L41.3997 326.192ZM39.1051 329.489L40.6793 325.07C40.6804 325.067 40.682 325.064 40.6831 325.061C40.7103 324.989 40.7524 324.923 40.8085 324.868L48.6126 317.257C48.8215 317.054 49.1554 317.059 49.3582 317.269C49.5611 317.479 49.5561 317.814 49.3471 318.018L47.5831 319.738L50.6432 332.488L62.8833 304.817L50.8615 316.541C50.6526 316.745 50.3186 316.74 50.1158 316.53C49.9129 316.32 49.9179 315.984 50.1269 315.781L58.9181 307.207L38.2416 322.191L39.1051 329.489Z" fill="white"/>
<path d="M30.6921 328.807C30.8271 328.807 30.9621 328.756 31.065 328.652L35.7244 323.971C35.9303 323.764 35.9303 323.428 35.7244 323.221C35.5185 323.014 35.1845 323.014 34.9787 323.221L30.3193 327.903C30.1133 328.11 30.1133 328.445 30.3193 328.652C30.4222 328.756 30.5572 328.807 30.6921 328.807Z" fill="white"/>
<path d="M38.846 337C38.9809 337 39.1159 336.948 39.2189 336.845L43.8783 332.163C44.0842 331.956 44.0842 331.621 43.8783 331.414C43.6723 331.207 43.3384 331.207 43.1325 331.414L38.4731 336.096C38.2672 336.303 38.2672 336.638 38.4731 336.845C38.5761 336.948 38.7111 337 38.846 337Z" fill="white"/>
<path d="M30.6921 337C30.8271 337 30.9621 336.948 31.065 336.845L35.7244 332.163C35.9303 331.956 35.9303 331.621 35.7244 331.414C35.5185 331.207 35.1845 331.207 34.9787 331.414L30.3193 336.096C30.1133 336.303 30.1133 336.638 30.3193 336.845C30.4222 336.948 30.5572 337 30.6921 337Z" fill="white"/>
<path d="M-191.857 239.68L-193.357 239.68L-191.857 239.68ZM-115.453 323.111L-116.524 322.06L-115.453 323.111ZM18.823 344.586C17.7596 345.242 16.6994 345.846 15.6424 346.401L14.2488 343.744C15.2424 343.223 16.242 342.653 17.2477 342.033L18.823 344.586ZM1.92893 350.977C-0.514519 351.343 -2.9324 351.475 -5.32487 351.403L-5.23487 348.404C-3.01391 348.471 -0.775079 348.349 1.48458 348.01L1.92893 350.977ZM-19.5085 348.738C-21.7555 347.987 -23.9776 347.102 -26.1756 346.113L-24.945 343.377C-22.8255 344.331 -20.6972 345.177 -18.5579 345.892L-19.5085 348.738ZM-38.7149 339.401C-40.7255 338.182 -42.7207 336.918 -44.7002 335.636L-43.0687 333.118C-41.1061 334.39 -39.1373 335.637 -37.1595 336.836L-38.7149 339.401ZM-56.4264 327.885C-58.4007 326.587 -60.3606 325.32 -62.31 324.108L-60.7256 321.56C-58.7472 322.791 -56.7647 324.072 -54.7788 325.377L-56.4264 327.885ZM-74.4439 317.433C-76.5798 316.457 -78.6979 315.619 -80.8018 314.951L-79.8941 312.092C-77.6553 312.802 -75.4232 313.687 -73.1972 314.704L-74.4439 317.433ZM-94.0431 313.303C-96.1944 313.51 -98.3461 313.979 -100.504 314.749L-101.513 311.924C-99.1192 311.069 -96.7251 310.548 -94.3313 310.317L-94.0431 313.303ZM-111.871 321.763C-112.705 322.506 -113.542 323.305 -114.382 324.161L-116.524 322.06C-115.639 321.158 -114.753 320.313 -113.867 319.523L-111.871 321.763ZM-114.382 324.161C-115.342 325.139 -116.428 325.939 -117.621 326.564L-119.013 323.906C-118.092 323.423 -117.259 322.811 -116.524 322.06L-114.382 324.161ZM-132.684 327.235C-134.928 326.632 -137.256 325.782 -139.631 324.707L-138.393 321.974C-136.145 322.992 -133.972 323.783 -131.906 324.337L-132.684 327.235ZM-152.184 317.23C-154.089 315.831 -155.993 314.313 -157.88 312.685L-155.919 310.414C-154.091 311.993 -152.248 313.461 -150.408 314.812L-152.184 317.23ZM-168.164 302.449C-169.738 300.653 -171.276 298.779 -172.765 296.833L-170.382 295.01C-168.934 296.902 -167.438 298.725 -165.908 300.472L-168.164 302.449ZM-180.796 284.749C-181.989 282.66 -183.119 280.516 -184.176 278.32L-181.473 277.019C-180.447 279.149 -179.35 281.231 -178.191 283.261L-180.796 284.749ZM-189.496 264.798C-190.205 262.491 -190.828 260.145 -191.354 257.763L-188.425 257.116C-187.917 259.416 -187.315 261.684 -186.628 263.916L-189.496 264.798ZM-193.275 243.333C-193.329 242.122 -193.357 240.904 -193.357 239.68L-190.357 239.68C-190.357 240.858 -190.33 242.031 -190.278 243.198L-193.275 243.333ZM-193.357 239.68C-193.357 238.609 -193.397 237.392 -193.476 236.037L-190.481 235.863C-190.4 237.261 -190.357 238.537 -190.357 239.68L-193.357 239.68ZM-195.054 221.253C-195.374 218.927 -195.734 216.468 -196.131 213.893L-193.166 213.436C-192.767 216.025 -192.404 218.5 -192.082 220.845L-195.054 221.253ZM-198.573 199.132C-198.993 196.729 -199.433 194.268 -199.89 191.757L-196.938 191.22C-196.48 193.737 -196.039 196.205 -195.618 198.615L-198.573 199.132ZM-202.654 177.02C-203.122 174.593 -203.6 172.137 -204.087 169.659L-201.144 169.08C-200.656 171.562 -200.177 174.021 -199.708 176.453L-202.654 177.02ZM-207.03 154.968C-207.527 152.529 -208.029 150.08 -208.535 147.629L-205.597 147.022C-205.09 149.476 -204.588 151.927 -204.09 154.37L-207.03 154.968ZM-211.603 132.951C-212.122 130.497 -212.641 128.051 -213.161 125.619L-210.227 124.992C-209.707 127.426 -209.187 129.874 -208.668 132.33L-211.603 132.951ZM-216.317 110.979C-216.854 108.508 -217.388 106.065 -217.916 103.657L-214.985 103.015C-214.457 105.424 -213.923 107.868 -213.385 110.342L-216.317 110.979ZM-221.152 89.0085C-221.709 86.5053 -222.254 84.0643 -222.785 81.6948L-219.858 81.0387C-219.326 83.4096 -218.781 85.8521 -218.223 88.3569L-221.152 89.0085ZM-226.084 67.0718C-226.678 64.4566 -227.239 61.999 -227.76 59.72L-224.836 59.0511C-224.314 61.3315 -223.753 63.7905 -223.159 66.4072L-226.084 67.0718ZM-231.123 45.1281C-231.393 43.9671 -231.602 43.0717 -231.744 42.4667C-231.814 42.1642 -231.868 41.9343 -231.904 41.7801C-231.922 41.7029 -231.936 41.6448 -231.945 41.6059C-231.95 41.5864 -231.953 41.5718 -231.955 41.5621C-231.957 41.5572 -231.957 41.5536 -231.958 41.5511C-231.958 41.5499 -231.959 41.549 -231.959 41.5484C-231.959 41.5481 -231.959 41.5479 -231.959 41.5478C-231.959 41.5477 -231.959 41.5476 -231.959 41.5476C-231.959 41.5476 -231.959 41.5476 -231.959 41.5476C-231.959 41.5475 -231.959 41.5475 -230.499 41.2047C-229.038 40.8618 -229.038 40.8618 -229.038 40.8618C-229.038 40.8618 -229.038 40.8618 -229.038 40.8618C-229.038 40.8619 -229.038 40.8619 -229.038 40.862C-229.038 40.8622 -229.038 40.8624 -229.038 40.8627C-229.038 40.8634 -229.038 40.8643 -229.037 40.8655C-229.037 40.868 -229.036 40.8717 -229.035 40.8767C-229.032 40.8865 -229.029 40.9013 -229.024 40.9208C-229.015 40.96 -229.002 41.0184 -228.983 41.0958C-228.947 41.2505 -228.893 41.4809 -228.822 41.784C-228.681 42.39 -228.472 43.2865 -228.201 44.4487L-231.123 45.1281Z" fill="white"/>
<path d="M280.985 134.582C280.933 134.348 280.76 134.158 280.53 134.082L264.8 128.894C264.439 128.775 264.049 128.968 263.929 129.325C263.809 129.682 264.004 130.067 264.364 130.186L277.504 134.52L260.71 137.41L238.749 121.738L261.424 129.217C261.785 129.335 262.175 129.143 262.295 128.786C262.415 128.429 262.22 128.043 261.859 127.924L234.907 119.034C234.898 119.031 234.891 119.031 234.884 119.029C234.688 118.972 234.472 119 234.296 119.122C234.025 119.309 233.926 119.659 234.06 119.957L252.31 160.586C252.4 160.788 252.585 160.934 252.804 160.978C252.849 160.987 252.894 160.991 252.939 160.991C253.113 160.991 253.283 160.925 253.412 160.804L261.027 153.657L267.779 157.876C267.782 157.878 267.785 157.878 267.788 157.88C267.895 157.944 268.017 157.981 268.146 157.981C268.172 157.981 268.198 157.98 268.224 157.977C268.541 157.941 268.792 157.694 268.83 157.38L270.321 144.969L280.784 135.224C280.961 135.06 281.037 134.816 280.985 134.582ZM278.169 135.789L269.609 143.761L262.272 138.524L278.169 135.789ZM264.11 148.885L254.154 158.23L257.887 142.909L264.11 148.885ZM264.812 150.104L266.825 155.668L262.058 152.689L264.812 150.104ZM267.808 154.344L265.753 148.661C265.752 148.658 265.749 148.654 265.748 148.65C265.713 148.558 265.658 148.472 265.584 148.402L255.396 138.617C255.123 138.355 254.687 138.362 254.422 138.631C254.157 138.902 254.164 139.333 254.437 139.595L256.74 141.806L252.745 158.2L236.764 122.623L252.46 137.696C252.732 137.958 253.168 137.952 253.433 137.682C253.698 137.412 253.691 136.98 253.419 136.718L241.941 125.696L268.936 144.96L267.808 154.344Z" fill="white"/>
<path d="M278.792 153.467C278.616 153.467 278.439 153.4 278.305 153.268L272.222 147.248C271.953 146.982 271.953 146.551 272.222 146.285C272.491 146.019 272.927 146.019 273.195 146.285L279.279 152.304C279.547 152.57 279.547 153.001 279.279 153.268C279.144 153.4 278.968 153.467 278.792 153.467Z" fill="white"/>
<path d="M268.146 164C267.97 164 267.794 163.934 267.66 163.801L261.577 157.782C261.308 157.516 261.308 157.084 261.577 156.818C261.845 156.552 262.281 156.552 262.55 156.818L268.633 162.838C268.902 163.104 268.902 163.535 268.633 163.801C268.499 163.934 268.323 164 268.146 164Z" fill="white"/>
<path d="M278.792 164C278.616 164 278.439 163.934 278.305 163.801L272.222 157.782C271.953 157.516 271.953 157.084 272.222 156.818C272.491 156.552 272.927 156.552 273.195 156.818L279.279 162.838C279.547 163.104 279.547 163.535 279.279 163.801C279.144 163.934 278.968 164 278.792 164Z" fill="white"/>
<path d="M495.54 198.896L494.216 199.602L495.54 198.896ZM324.968 300.315L325.756 299.038L324.968 300.315ZM301.725 238.601L300.225 238.601L301.725 238.601ZM462.021 159.255L463.092 158.204L462.021 159.255ZM301.725 198.896L303.218 198.747L301.725 198.896ZM288.132 173.286C287.053 174.328 287.053 174.328 287.053 174.328C287.053 174.328 287.053 174.328 287.053 174.328C287.052 174.328 287.052 174.328 287.052 174.328C287.052 174.328 287.052 174.328 287.053 174.328C287.053 174.328 287.053 174.329 287.054 174.33C287.056 174.332 287.059 174.335 287.063 174.339C287.072 174.348 287.086 174.363 287.104 174.382C287.141 174.421 287.197 174.481 287.271 174.56C287.419 174.72 287.637 174.958 287.912 175.269C288.463 175.89 289.242 176.799 290.145 177.938L292.496 176.074C291.554 174.886 290.739 173.935 290.157 173.278C289.866 172.95 289.632 172.695 289.471 172.52C289.39 172.433 289.326 172.366 289.283 172.32C289.261 172.296 289.244 172.279 289.232 172.266C289.226 172.26 289.221 172.255 289.218 172.251C289.216 172.25 289.215 172.248 289.214 172.247C289.213 172.247 289.213 172.246 289.212 172.246C289.212 172.245 289.212 172.245 289.212 172.245C289.212 172.245 289.212 172.245 289.212 172.245C289.211 172.245 289.211 172.245 288.132 173.286ZM299.328 194.509C299.768 196.019 300.082 197.538 300.233 199.045L303.218 198.747C303.046 197.03 302.691 195.328 302.208 193.67L299.328 194.509ZM300.233 199.045C300.349 200.21 300.448 201.298 300.532 202.324L303.522 202.08C303.437 201.034 303.336 199.928 303.218 198.747L300.233 199.045ZM300.868 215.38C300.802 217.424 300.697 219.521 300.59 221.979L303.588 222.109C303.694 219.677 303.8 217.543 303.866 215.477L300.868 215.38ZM300.238 235.267C300.23 236.325 300.225 237.435 300.225 238.601L303.225 238.601C303.225 237.443 303.23 236.341 303.238 235.291L300.238 235.267ZM300.225 238.601C300.225 239.924 300.225 241.223 300.227 242.5L303.227 242.495C303.225 241.221 303.225 239.924 303.225 238.601L300.225 238.601ZM300.545 258.123C300.694 260.85 300.91 263.464 301.229 265.973L304.205 265.595C303.898 263.174 303.686 260.634 303.541 257.961L300.545 258.123ZM305.272 281.384C306.365 283.821 307.693 286.144 309.306 288.371L311.735 286.612C310.247 284.556 309.021 282.412 308.009 280.157L305.272 281.384ZM320.849 299.407C321.906 300.145 323.016 300.872 324.18 301.591L325.756 299.038C324.636 298.347 323.574 297.651 322.566 296.947L320.849 299.407ZM324.18 301.591C325.389 302.337 326.586 302.996 327.772 303.571L329.08 300.871C327.991 300.343 326.883 299.734 325.756 299.038L324.18 301.591ZM343.403 306.334C346.063 305.945 348.626 305.109 351.094 303.89L349.765 301.2C347.551 302.294 345.289 303.026 342.969 303.365L343.403 306.334ZM363.472 294.027C365.145 292.171 366.777 290.144 368.37 287.972L365.951 286.198C364.408 288.301 362.84 290.247 361.244 292.018L363.472 294.027ZM376.675 274.886C377.906 272.691 379.118 270.42 380.313 268.086L377.643 266.719C376.463 269.024 375.269 271.261 374.059 273.419L376.675 274.886ZM386.937 254.224C387.98 251.91 389.011 249.562 390.034 247.19L387.279 246.002C386.262 248.362 385.237 250.695 384.202 252.993L386.937 254.224ZM395.963 233.023C396.93 230.66 397.891 228.291 398.849 225.926L396.068 224.801C395.111 227.164 394.151 229.529 393.187 231.887L395.963 233.023ZM404.607 211.724C405.582 209.341 406.555 206.982 407.528 204.656L404.76 203.498C403.783 205.833 402.807 208.2 401.83 210.588L404.607 211.724ZM413.601 190.683C414.681 188.314 415.764 186.011 416.853 183.787L414.159 182.468C413.056 184.721 411.961 187.048 410.871 189.438L413.601 190.683ZM424.089 170.459C425.477 168.205 426.876 166.122 428.289 164.231L425.886 162.436C424.41 164.411 422.961 166.57 421.535 168.885L424.089 170.459ZM438.873 154.181C441.046 152.99 443.234 152.343 445.462 152.27L445.364 149.272C442.599 149.362 439.955 150.167 437.432 151.549L438.873 154.181ZM458.14 157.676C459.06 158.459 459.997 159.333 460.95 160.305L463.092 158.204C462.081 157.174 461.079 156.237 460.084 155.391L458.14 157.676ZM460.95 160.305C462.049 161.426 463.087 162.466 464.069 163.435L466.176 161.299C465.206 160.343 464.18 159.314 463.092 158.204L460.95 160.305ZM477.07 175.24C479.486 177.309 481.238 178.894 483.088 181.17L485.416 179.278C483.39 176.785 481.469 175.058 479.021 172.961L477.07 175.24ZM492.14 195.744C492.791 196.941 493.482 198.223 494.216 199.602L496.864 198.191C496.126 196.806 495.431 195.515 494.775 194.31L492.14 195.744ZM494.216 199.602C494.763 200.627 495.316 201.663 495.876 202.708L498.521 201.292C497.962 200.248 497.409 199.214 496.864 198.191L494.216 199.602ZM502.582 215.129C503.698 217.181 504.825 219.248 505.96 221.323L508.592 219.883C507.458 217.811 506.332 215.746 505.218 213.696L502.582 215.129ZM512.756 233.69C513.899 235.761 515.04 237.823 516.172 239.867L518.796 238.412C517.665 236.37 516.525 234.31 515.383 232.24L512.756 233.69ZM523.03 252.198C524.201 254.297 525.351 256.355 526.473 258.36L529.091 256.895C527.969 254.891 526.82 252.834 525.65 250.737L523.03 252.198ZM533.376 270.66C534.602 272.839 535.763 274.898 536.844 276.813L539.456 275.339C538.376 273.424 537.216 271.367 535.99 269.189L533.376 270.66ZM543.798 289.101C544.354 290.08 544.785 290.838 545.077 291.352C545.223 291.609 545.335 291.805 545.41 291.937C545.447 292.002 545.476 292.052 545.495 292.086C545.504 292.102 545.511 292.115 545.516 292.123C545.518 292.127 545.52 292.131 545.521 292.133C545.522 292.134 545.522 292.134 545.523 292.135C545.523 292.135 545.523 292.135 545.523 292.136C545.523 292.136 545.523 292.136 545.523 292.136C545.523 292.136 545.523 292.136 545.523 292.136C545.523 292.136 545.523 292.136 546.826 291.393C548.13 290.65 548.13 290.65 548.13 290.65C548.13 290.65 548.13 290.65 548.13 290.65C548.13 290.65 548.13 290.65 548.13 290.65C548.129 290.65 548.129 290.65 548.129 290.65C548.129 290.649 548.128 290.648 548.128 290.647C548.127 290.645 548.125 290.642 548.123 290.638C548.118 290.63 548.111 290.617 548.101 290.601C548.082 290.567 548.054 290.518 548.017 290.452C547.942 290.321 547.831 290.125 547.685 289.869C547.393 289.356 546.962 288.598 546.407 287.62L543.798 289.101Z" fill="white"/>
</svg>
