<svg width="1920" height="1142" viewBox="0 0 1920 1142" fill="none" xmlns="http://www.w3.org/2000/svg">
<path d="M93.0284 700.099C93.117 699.693 93.411 699.364 93.8023 699.233L120.577 690.24C121.191 690.034 121.855 690.368 122.06 690.986C122.264 691.605 121.932 692.274 121.318 692.48L98.9529 699.992L127.538 705.001L164.92 677.835L126.323 690.799C125.71 691.005 125.046 690.671 124.841 690.052C124.636 689.434 124.968 688.765 125.582 688.559L171.458 673.15C171.474 673.145 171.485 673.144 171.499 673.14C171.831 673.042 172.2 673.091 172.5 673.302C172.96 673.626 173.128 674.233 172.9 674.75L141.837 745.173C141.683 745.524 141.369 745.777 140.996 745.852C140.919 745.867 140.843 745.875 140.767 745.875C140.469 745.875 140.18 745.76 139.96 745.55L126.999 733.162L115.507 740.475C115.502 740.479 115.496 740.48 115.49 740.482C115.31 740.593 115.101 740.658 114.882 740.658C114.838 740.658 114.794 740.655 114.75 740.65C114.209 740.589 113.782 740.161 113.718 739.617L111.179 718.103L93.3699 701.213C93.0694 700.928 92.9398 700.505 93.0284 700.099ZM97.8205 702.191L112.391 716.009L124.881 706.933L97.8205 702.191ZM121.751 724.892L138.699 741.09L132.343 714.532L121.751 724.892ZM120.556 727.005L117.13 736.649L125.244 731.485L120.556 727.005ZM115.457 734.353L118.955 724.504C118.957 724.497 118.961 724.491 118.963 724.484C119.024 724.324 119.117 724.176 119.242 724.054L136.584 707.093C137.049 706.639 137.791 706.651 138.242 707.118C138.692 707.586 138.681 708.334 138.217 708.788L134.297 712.622L141.097 741.037L168.297 679.37L141.582 705.497C141.118 705.951 140.376 705.94 139.925 705.472C139.474 705.004 139.485 704.256 139.95 703.802L159.486 684.696L113.538 718.088L115.457 734.353Z" fill="white"/>
<path d="M96.7613 732.833C97.0611 732.833 97.3611 732.718 97.5899 732.487L107.944 722.054C108.402 721.593 108.402 720.845 107.944 720.384C107.486 719.923 106.744 719.923 106.287 720.384L95.9327 730.818C95.475 731.279 95.475 732.026 95.9327 732.487C96.1614 732.718 96.4614 732.833 96.7613 732.833Z" fill="white"/>
<path d="M114.881 751.091C115.181 751.091 115.481 750.976 115.71 750.746L126.064 740.312C126.521 739.851 126.521 739.104 126.064 738.642C125.606 738.181 124.864 738.181 124.407 738.642L114.052 749.076C113.595 749.537 113.595 750.284 114.052 750.746C114.281 750.976 114.581 751.091 114.881 751.091Z" fill="white"/>
<path d="M96.7613 751.091C97.0611 751.091 97.3611 750.976 97.5899 750.746L107.944 740.312C108.402 739.851 108.402 739.104 107.944 738.642C107.486 738.181 106.744 738.181 106.287 738.642L95.9327 749.076C95.475 749.537 95.475 750.284 95.9327 750.746C96.1614 750.976 96.4614 751.091 96.7613 751.091Z" fill="white"/>
<path d="M-398.442 534.261L-399.942 534.261L-398.442 534.261ZM-228.452 719.883L-229.522 718.832L-228.452 719.883ZM69.3312 766.099C68.2435 766.77 67.1578 767.416 66.074 768.038L64.5814 765.436C65.637 764.83 66.6951 764.2 67.7559 763.546L69.3312 766.099ZM52.7858 774.501C50.4647 775.43 48.1527 776.253 45.8497 776.973L44.9542 774.11C47.1822 773.413 49.421 772.617 51.6708 771.716L52.7858 774.501ZM31.3882 780.216C28.9219 780.555 26.467 780.785 24.0232 780.913L23.8665 777.917C26.2273 777.793 28.5982 777.571 30.9798 777.244L31.3882 780.216ZM9.23105 780.478C6.78132 780.211 4.34369 779.852 1.91784 779.408L2.4582 776.457C4.81549 776.888 7.18115 777.237 9.55562 777.495L9.23105 780.478ZM-12.4032 775.809C-14.7308 775.071 -17.0479 774.266 -19.3546 773.4L-18.3002 770.592C-16.0395 771.44 -13.772 772.228 -11.4972 772.949L-12.4032 775.809ZM-32.8936 767.613C-35.0885 766.567 -37.2748 765.476 -39.4526 764.347L-38.0713 761.683C-35.9212 762.799 -33.7652 763.874 -31.6031 764.905L-32.8936 767.613ZM-52.2835 757.232C-54.3806 756.001 -56.4706 754.743 -58.5538 753.466L-56.9854 750.909C-54.9168 752.177 -52.8433 753.424 -50.7646 754.645L-52.2835 757.232ZM-70.9121 745.639C-72.9537 744.312 -74.9895 742.976 -77.0194 741.636L-75.3664 739.132C-73.3409 740.47 -71.3113 741.802 -69.2773 743.124L-70.9121 745.639ZM-89.171 733.563C-91.2027 732.213 -93.2287 730.869 -95.2501 729.538L-93.6001 727.033C-91.5737 728.367 -89.5437 729.713 -87.5103 731.065L-89.171 733.563ZM-107.475 721.648C-109.542 720.349 -111.603 719.076 -113.661 717.834L-112.11 715.266C-110.036 716.518 -107.958 717.801 -105.878 719.108L-107.475 721.648ZM-126.263 710.638C-128.408 709.494 -130.548 708.398 -132.683 707.357L-131.369 704.66C-129.197 705.719 -127.025 706.831 -124.851 707.992L-126.263 710.638ZM-145.966 701.638C-148.243 700.798 -150.514 700.04 -152.782 699.37L-151.932 696.493C-149.597 697.183 -147.262 697.963 -144.928 698.823L-145.966 701.638ZM-166.772 696.433C-169.149 696.151 -171.522 695.986 -173.892 695.95L-173.846 692.95C-171.368 692.988 -168.892 693.16 -166.418 693.454L-166.772 696.433ZM-188.006 697.321C-190.289 697.813 -192.573 698.442 -194.86 699.219L-195.824 696.378C-193.429 695.565 -191.033 694.905 -188.638 694.388L-188.006 697.321ZM-207.764 705.203C-209.745 706.377 -211.731 707.673 -213.72 709.1L-215.468 706.661C-213.41 705.186 -211.352 703.841 -209.292 702.622L-207.764 705.203ZM-224.729 718.31C-225.612 719.157 -226.496 720.031 -227.381 720.933L-229.522 718.832C-228.617 717.909 -227.711 717.013 -226.805 716.145L-224.729 718.31ZM-227.381 720.933C-228.301 721.872 -229.279 722.732 -230.309 723.514L-232.123 721.125C-231.209 720.431 -230.341 719.667 -229.522 718.832L-227.381 720.933ZM-244.496 729.175C-246.933 729.519 -249.482 729.637 -252.126 729.543L-252.019 726.545C-249.532 726.634 -247.16 726.521 -244.916 726.205L-244.496 729.175ZM-266.908 727.121C-269.237 726.478 -271.61 725.711 -274.018 724.827L-272.984 722.011C-270.648 722.869 -268.353 723.609 -266.109 724.23L-266.908 727.121ZM-287.623 718.777C-289.779 717.66 -291.95 716.461 -294.133 715.184L-292.617 712.594C-290.477 713.847 -288.35 715.021 -286.242 716.114L-287.623 718.777ZM-306.611 707.105C-308.591 705.7 -310.572 704.236 -312.55 702.715L-310.722 700.337C-308.773 701.835 -306.823 703.276 -304.875 704.658L-306.611 707.105ZM-323.949 693.279C-325.779 691.653 -327.601 689.98 -329.411 688.262L-327.346 686.086C-325.559 687.782 -323.762 689.433 -321.957 691.036L-323.949 693.279ZM-339.803 677.744C-341.468 675.948 -343.119 674.113 -344.751 672.24L-342.489 670.269C-340.877 672.118 -339.248 673.93 -337.603 675.703L-339.803 677.744ZM-354.128 660.792C-355.623 658.849 -357.096 656.872 -358.546 654.864L-356.114 653.108C-354.682 655.092 -353.227 657.043 -351.75 658.963L-354.128 660.792ZM-366.836 642.602C-368.148 640.526 -369.432 638.422 -370.687 636.291L-368.102 634.769C-366.863 636.873 -365.595 638.95 -364.3 640.999L-366.836 642.602ZM-377.788 623.301C-378.897 621.107 -379.974 618.889 -381.015 616.647L-378.295 615.383C-377.267 617.594 -376.205 619.783 -375.111 621.948L-377.788 623.301ZM-386.797 603.014C-387.679 600.717 -388.524 598.399 -389.328 596.062L-386.491 595.085C-385.698 597.389 -384.866 599.674 -383.996 601.939L-386.797 603.014ZM-393.638 581.89C-394.267 579.51 -394.854 577.112 -395.395 574.699L-392.468 574.042C-391.935 576.418 -391.358 578.779 -390.738 581.123L-393.638 581.89ZM-398.078 560.125C-398.428 557.689 -398.731 555.239 -398.985 552.775L-396.001 552.468C-395.751 554.891 -395.453 557.301 -395.108 559.698L-398.078 560.125ZM-399.903 537.983C-399.929 536.745 -399.942 535.504 -399.942 534.261L-396.942 534.261C-396.942 535.483 -396.93 536.703 -396.904 537.92L-399.903 537.983ZM-399.942 534.261C-399.942 533.159 -399.961 531.991 -399.998 530.76L-396.999 530.671C-396.962 531.928 -396.942 533.125 -396.942 534.261L-399.942 534.261ZM-401.019 515.758C-401.245 513.402 -401.504 510.932 -401.796 508.356L-398.815 508.019C-398.521 510.61 -398.26 513.097 -398.033 515.472L-401.019 515.758ZM-403.68 493.408C-404.005 491.038 -404.348 488.606 -404.71 486.115L-401.741 485.684C-401.378 488.182 -401.034 490.622 -400.708 493.001L-403.68 493.408ZM-406.968 471.277C-407.355 468.829 -407.757 466.337 -408.171 463.806L-405.21 463.321C-404.795 465.858 -404.393 468.354 -404.005 470.808L-406.968 471.277ZM-410.661 448.993C-411.076 446.584 -411.501 444.145 -411.934 441.68L-408.979 441.161C-408.545 443.629 -408.12 446.071 -407.705 448.484L-410.661 448.993ZM-414.581 426.899C-415.027 424.448 -415.481 421.977 -415.941 419.486L-412.991 418.941C-412.53 421.434 -412.076 423.908 -411.63 426.361L-414.581 426.899ZM-418.7 404.757C-419.166 402.3 -419.637 399.828 -420.114 397.341L-417.168 396.776C-416.691 399.264 -416.219 401.739 -415.752 404.198L-418.7 404.757ZM-422.967 382.62C-423.444 380.18 -423.926 377.73 -424.412 375.271L-421.468 374.69C-420.982 377.151 -420.501 379.603 -420.023 382.044L-422.967 382.62ZM-427.346 360.529C-427.835 358.09 -428.328 355.645 -428.823 353.195L-425.882 352.6C-425.387 355.052 -424.894 357.498 -424.405 359.939L-427.346 360.529ZM-431.818 338.475C-432.32 336.028 -432.823 333.579 -433.328 331.128L-430.39 330.522C-429.884 332.974 -429.381 335.425 -428.88 337.872L-431.818 338.475ZM-436.377 316.422C-436.887 313.973 -437.399 311.525 -437.912 309.078L-434.976 308.463C-434.463 310.91 -433.951 313.36 -433.44 315.81L-436.377 316.422ZM-441.008 294.38C-441.526 291.934 -442.044 289.491 -442.562 287.054L-439.628 286.43C-439.11 288.868 -438.591 291.311 -438.073 293.759L-441.008 294.38ZM-445.702 272.357C-446.227 269.908 -446.752 267.468 -447.276 265.036L-444.343 264.404C-443.819 266.837 -443.294 269.278 -442.769 271.727L-445.702 272.357ZM-450.45 250.364C-450.985 247.898 -451.519 245.443 -452.051 243.002L-449.12 242.363C-448.588 244.805 -448.054 247.26 -447.518 249.728L-450.45 250.364ZM-455.253 228.366C-455.797 225.889 -456.338 223.429 -456.876 220.988L-453.946 220.343C-453.408 222.784 -452.867 225.245 -452.323 227.723L-455.253 228.366ZM-460.117 206.327C-460.661 203.872 -461.201 201.441 -461.737 199.035L-458.808 198.383C-458.273 200.79 -457.733 203.221 -457.188 205.677L-460.117 206.327ZM-465.012 184.36C-465.566 181.886 -466.113 179.447 -466.653 177.044L-463.726 176.387C-463.186 178.79 -462.639 181.23 -462.085 183.704L-465.012 184.36ZM-469.953 162.397C-470.517 159.899 -471.071 157.451 -471.614 155.057L-468.688 154.394C-468.145 156.789 -467.591 159.237 -467.026 161.736L-469.953 162.397ZM-474.933 140.458C-475.516 137.904 -476.08 135.434 -476.625 133.052L-473.7 132.383C-473.155 134.765 -472.591 137.236 -472.008 139.791L-474.933 140.458ZM-479.962 118.513C-480.572 115.864 -481.141 113.396 -481.667 111.122L-478.744 110.446C-478.218 112.721 -477.649 115.19 -477.038 117.84L-479.962 118.513ZM-485.051 96.542C-485.321 95.3881 -485.527 94.5071 -485.665 93.9145C-485.735 93.6183 -485.787 93.3941 -485.822 93.2441C-485.84 93.1691 -485.853 93.1126 -485.862 93.0749C-485.866 93.0561 -485.87 93.0419 -485.872 93.0325C-485.873 93.0278 -485.874 93.0242 -485.874 93.0219C-485.875 93.0207 -485.875 93.0198 -485.875 93.0192C-485.875 93.0189 -485.875 93.0187 -485.875 93.0186C-485.875 93.0185 -485.875 93.0184 -485.875 93.0184C-485.875 93.0184 -485.875 93.0184 -485.875 93.0184C-485.875 93.0184 -485.875 93.0184 -484.415 92.6755C-482.955 92.3326 -482.955 92.3326 -482.955 92.3326C-482.955 92.3326 -482.955 92.3326 -482.955 92.3326C-482.955 92.3327 -482.955 92.3327 -482.955 92.3328C-482.955 92.333 -482.955 92.3332 -482.955 92.3335C-482.954 92.3341 -482.954 92.335 -482.954 92.3362C-482.953 92.3386 -482.952 92.3422 -482.951 92.3469C-482.949 92.3565 -482.946 92.3707 -482.941 92.3896C-482.932 92.4275 -482.919 92.4842 -482.902 92.5593C-482.866 92.7097 -482.814 92.9341 -482.744 93.2307C-482.605 93.8239 -482.399 94.7057 -482.13 95.8603L-485.051 96.542Z" fill="white"/>
<path d="M1769.58 704.428C1769.49 704.016 1769.19 703.682 1768.78 703.549L1741.14 694.428C1740.5 694.219 1739.82 694.558 1739.6 695.186C1739.39 695.813 1739.74 696.491 1740.37 696.7L1763.46 704.319L1733.95 709.4L1695.35 681.848L1735.2 694.996C1735.84 695.204 1736.52 694.866 1736.73 694.238C1736.94 693.611 1736.6 692.932 1735.97 692.723L1688.59 677.096C1688.58 677.09 1688.57 677.089 1688.55 677.086C1688.21 676.986 1687.83 677.035 1687.52 677.25C1687.04 677.578 1686.87 678.194 1687.11 678.718L1719.18 750.142C1719.34 750.498 1719.67 750.754 1720.05 750.831C1720.13 750.846 1720.21 750.854 1720.29 750.854C1720.59 750.854 1720.89 750.738 1721.12 750.525L1734.5 737.961L1746.37 745.378C1746.38 745.381 1746.38 745.382 1746.39 745.385C1746.57 745.497 1746.79 745.563 1747.02 745.563C1747.06 745.563 1747.11 745.56 1747.15 745.555C1747.71 745.493 1748.15 745.059 1748.22 744.507L1750.84 722.687L1769.23 705.557C1769.54 705.268 1769.67 704.839 1769.58 704.428ZM1764.63 706.549L1749.59 720.564L1736.69 711.358L1764.63 706.549ZM1739.92 729.573L1722.42 746.001L1728.99 719.066L1739.92 729.573ZM1741.16 731.716L1744.69 741.497L1736.32 736.26L1741.16 731.716ZM1746.42 739.168L1742.81 729.179C1742.81 729.172 1742.8 729.166 1742.8 729.159C1742.74 728.997 1742.64 728.847 1742.51 728.723L1724.61 711.521C1724.13 711.061 1723.36 711.072 1722.89 711.547C1722.43 712.021 1722.44 712.78 1722.92 713.24L1726.97 717.128L1719.95 745.947L1691.86 683.404L1719.45 709.902C1719.92 710.363 1720.69 710.352 1721.16 709.877C1721.62 709.402 1721.61 708.644 1721.13 708.184L1700.96 688.806L1748.4 722.672L1746.42 739.168Z" fill="white"/>
<path d="M1765.73 737.627C1765.42 737.627 1765.11 737.51 1764.87 737.276L1754.18 726.695C1753.71 726.227 1753.71 725.469 1754.18 725.001C1754.65 724.534 1755.42 724.534 1755.89 725.001L1766.58 735.583C1767.06 736.051 1767.06 736.809 1766.58 737.276C1766.35 737.51 1766.04 737.627 1765.73 737.627Z" fill="white"/>
<path d="M1747.02 756.145C1746.71 756.145 1746.4 756.028 1746.16 755.794L1735.47 745.212C1735 744.745 1735 743.986 1735.47 743.519C1735.94 743.051 1736.71 743.051 1737.18 743.519L1747.87 754.1C1748.35 754.568 1748.35 755.326 1747.87 755.794C1747.64 756.028 1747.33 756.145 1747.02 756.145Z" fill="white"/>
<path d="M1765.73 756.145C1765.42 756.145 1765.11 756.028 1764.87 755.794L1754.18 745.212C1753.71 744.745 1753.71 743.986 1754.18 743.519C1754.65 743.051 1755.42 743.051 1755.89 743.519L1766.58 754.1C1767.06 754.568 1767.06 755.326 1766.58 755.794C1766.35 756.028 1766.04 756.145 1765.73 756.145Z" fill="white"/>
<path d="M2143.9 816.996L2142.58 817.702L2143.9 816.996ZM1845.92 994.17L1846.71 992.894L1845.92 994.17ZM1805.31 886.359L1803.81 886.359L1805.31 886.359ZM2085.34 747.744L2086.42 746.694L2085.34 747.744ZM1805.31 816.996L1806.81 816.847L1805.31 816.996ZM1781.57 772.257C1780.49 773.299 1780.49 773.299 1780.49 773.298C1780.49 773.298 1780.49 773.298 1780.49 773.298C1780.49 773.298 1780.49 773.298 1780.49 773.298C1780.49 773.298 1780.49 773.298 1780.49 773.299C1780.49 773.299 1780.49 773.299 1780.49 773.3C1780.49 773.302 1780.49 773.305 1780.5 773.308C1780.51 773.316 1780.52 773.328 1780.53 773.345C1780.56 773.378 1780.61 773.428 1780.68 773.495C1780.8 773.63 1780.99 773.832 1781.23 774.097C1781.72 774.628 1782.42 775.412 1783.28 776.418L1785.56 774.47C1784.68 773.437 1783.95 772.628 1783.45 772.075C1783.2 771.798 1783 771.586 1782.86 771.441C1782.79 771.369 1782.74 771.313 1782.71 771.276C1782.69 771.257 1782.67 771.242 1782.66 771.232C1782.66 771.227 1782.66 771.223 1782.65 771.22C1782.65 771.219 1782.65 771.218 1782.65 771.217C1782.65 771.216 1782.65 771.216 1782.65 771.216C1782.65 771.216 1782.65 771.216 1782.65 771.215C1782.65 771.215 1782.65 771.215 1782.65 771.215C1782.65 771.215 1782.65 771.215 1781.57 772.257ZM1793.31 790.043C1794.76 792.343 1796.18 794.803 1797.49 797.375L1800.16 796.013C1798.81 793.35 1797.34 790.811 1795.85 788.447L1793.31 790.043ZM1803.2 813.056C1803.48 814.419 1803.69 815.784 1803.82 817.145L1806.81 816.847C1806.66 815.379 1806.44 813.916 1806.14 812.463L1803.2 813.056ZM1803.82 817.145C1803.96 818.479 1804.08 819.756 1804.18 820.984L1807.17 820.72C1807.06 819.48 1806.94 818.191 1806.81 816.847L1803.82 817.145ZM1805.03 836.263C1805.08 838.909 1805.05 841.403 1804.99 843.913L1807.99 843.988C1808.05 841.445 1808.08 838.909 1808.03 836.215L1805.03 836.263ZM1804.37 859.3C1804.27 861.666 1804.17 864.214 1804.09 867.015L1807.09 867.104C1807.17 864.318 1807.27 861.782 1807.37 859.425L1804.37 859.3ZM1803.83 882.484C1803.82 883.735 1803.81 885.026 1803.81 886.359L1806.81 886.359C1806.81 885.031 1806.82 883.745 1806.82 882.499L1803.83 882.484ZM1803.81 886.359C1803.81 887.735 1803.81 889.096 1803.82 890.443L1806.82 890.441C1806.81 889.096 1806.81 887.735 1806.81 886.359L1803.81 886.359ZM1803.92 906.773C1803.97 909.564 1804.03 912.287 1804.13 914.947L1807.13 914.84C1807.03 912.203 1806.97 909.499 1806.92 906.723L1803.92 906.773ZM1805.24 931.315C1805.54 934.108 1805.91 936.826 1806.36 939.474L1809.32 938.972C1808.88 936.39 1808.52 933.732 1808.22 930.99L1805.24 931.315ZM1810.46 955.5C1811.41 958.122 1812.49 960.671 1813.72 963.151L1816.41 961.815C1815.23 959.443 1814.19 957.002 1813.28 954.483L1810.46 955.5ZM1822.9 977.007C1824.65 979.06 1826.56 981.063 1828.64 983.022L1830.7 980.837C1828.69 978.95 1826.86 977.026 1825.18 975.06L1822.9 977.007ZM1841.65 993.222C1842.78 993.969 1843.94 994.71 1845.13 995.447L1846.71 992.894C1845.54 992.174 1844.41 991.45 1843.31 990.722L1841.65 993.222ZM1845.13 995.447C1846.29 996.16 1847.44 996.827 1848.58 997.448L1850.01 994.812C1848.92 994.218 1847.82 993.579 1846.71 992.894L1845.13 995.447ZM1862.74 1002.93C1865.3 1003.51 1867.83 1003.85 1870.31 1003.96L1870.45 1000.96C1868.14 1000.86 1865.8 1000.54 1863.4 1000L1862.74 1002.93ZM1885.45 1001.75C1887.82 1000.94 1890.15 999.922 1892.44 998.708L1891.03 996.059C1888.87 997.204 1886.69 998.16 1884.48 998.916L1885.45 1001.75ZM1904.85 989.924C1906.68 988.301 1908.48 986.555 1910.25 984.697L1908.09 982.624C1906.36 984.428 1904.62 986.116 1902.86 987.679L1904.85 989.924ZM1919.97 973.118C1921.42 971.184 1922.84 969.178 1924.26 967.107L1921.78 965.415C1920.39 967.454 1918.99 969.424 1917.57 971.321L1919.97 973.118ZM1932.26 954.448C1933.51 952.319 1934.75 950.142 1935.99 947.921L1933.36 946.466C1932.14 948.666 1930.91 950.821 1929.67 952.926L1932.26 954.448ZM1942.95 934.716C1944.05 932.527 1945.14 930.307 1946.23 928.061L1943.53 926.755C1942.45 928.988 1941.36 931.194 1940.27 933.368L1942.95 934.716ZM1952.54 914.554C1953.57 912.291 1954.58 910.008 1955.6 907.709L1952.85 906.499C1951.84 908.789 1950.83 911.063 1949.81 913.316L1952.54 914.554ZM1961.49 894.054C1962.45 891.779 1963.41 889.495 1964.37 887.203L1961.6 886.049C1960.64 888.337 1959.69 890.616 1958.73 892.885L1961.49 894.054ZM1970.03 873.438C1970.97 871.143 1971.9 868.846 1972.83 866.551L1970.05 865.424C1969.12 867.718 1968.19 870.013 1967.25 872.305L1970.03 873.438ZM1978.41 852.759C1979.34 850.462 1980.27 848.172 1981.19 845.891L1978.41 844.762C1977.49 847.045 1976.56 849.337 1975.63 851.634L1978.41 852.759ZM1986.82 832.145C1987.78 829.83 1988.73 827.531 1989.69 825.25L1986.92 824.089C1985.96 826.375 1985.01 828.68 1984.05 830.999L1986.82 832.145ZM1995.53 811.6C1996.53 809.321 1997.53 807.069 1998.53 804.847L1995.79 803.615C1994.79 805.847 1993.79 808.109 1992.78 810.397L1995.53 811.6ZM2004.8 791.413C2005.9 789.143 2007 786.918 2008.11 784.743L2005.44 783.381C2004.32 785.576 2003.21 787.818 2002.1 790.103L2004.8 791.413ZM2015.15 771.722C2016.39 769.573 2017.64 767.495 2018.89 765.494L2016.35 763.901C2015.08 765.935 2013.81 768.044 2012.55 770.221L2015.15 771.722ZM2027.37 753.363C2028.91 751.405 2030.47 749.579 2032.04 747.896L2029.85 745.849C2028.22 747.599 2026.61 749.487 2025.01 751.502L2027.37 753.363ZM2043.16 738.59C2045.27 737.322 2047.41 736.333 2049.56 735.636L2048.63 732.782C2046.24 733.556 2043.9 734.646 2041.62 736.017L2043.16 738.59ZM2063.26 735.182C2065.41 735.721 2067.6 736.549 2069.85 737.694L2071.21 735.02C2068.78 733.783 2066.37 732.871 2063.99 732.273L2063.26 735.182ZM2081.49 746.083C2082.41 746.936 2083.34 747.839 2084.27 748.794L2086.42 746.694C2085.45 745.706 2084.48 744.769 2083.53 743.882L2081.49 746.083ZM2084.27 748.794C2085.2 749.742 2086.11 750.657 2086.99 751.54L2089.11 749.422C2088.24 748.545 2087.34 747.636 2086.42 746.694L2084.27 748.794ZM2098.01 762.196C2100.07 764.104 2101.94 765.796 2103.67 767.323L2105.66 765.076C2103.95 763.563 2102.09 761.887 2100.05 759.996L2098.01 762.196ZM2115.22 777.302C2117.16 779.03 2118.89 780.672 2120.58 782.507L2122.79 780.473C2121.01 778.542 2119.2 776.829 2117.21 775.06L2115.22 777.302ZM2129.49 794.531C2130.69 796.443 2131.98 798.581 2133.38 801.002L2135.98 799.499C2134.56 797.054 2133.26 794.884 2132.03 792.935L2129.49 794.531ZM2140.76 814.313C2141.35 815.405 2141.96 816.534 2142.58 817.702L2145.23 816.291C2144.6 815.12 2144 813.987 2143.41 812.892L2140.76 814.313ZM2142.58 817.702C2143.17 818.821 2143.78 819.947 2144.38 821.08L2147.03 819.666C2146.42 818.534 2145.82 817.409 2145.23 816.291L2142.58 817.702ZM2151.68 834.654C2152.89 836.897 2154.11 839.157 2155.35 841.43L2157.98 839.999C2156.75 837.728 2155.53 835.47 2154.32 833.228L2151.68 834.654ZM2162.72 854.96C2163.95 857.209 2165.18 859.462 2166.42 861.717L2169.05 860.275C2167.81 858.021 2166.58 855.768 2165.35 853.521L2162.72 854.96ZM2173.84 875.217C2175.09 877.472 2176.33 879.721 2177.57 881.961L2180.19 880.509C2178.95 878.27 2177.71 876.022 2176.47 873.768L2173.84 875.217ZM2185.04 895.436C2186.29 897.699 2187.54 899.944 2188.78 902.168L2191.4 900.709C2190.16 898.485 2188.92 896.241 2187.66 893.979L2185.04 895.436ZM2196.29 915.621C2197.56 917.896 2198.81 920.137 2200.04 922.34L2202.66 920.874C2201.43 918.672 2200.17 916.432 2198.9 914.157L2196.29 915.621ZM2207.57 935.762C2208.87 938.072 2210.13 940.319 2211.36 942.495L2213.97 941.023C2212.75 938.848 2211.49 936.602 2210.19 934.292L2207.57 935.762ZM2218.91 955.896C2220.27 958.291 2221.54 960.537 2222.71 962.617L2225.32 961.14C2224.15 959.06 2222.88 956.815 2221.53 954.42L2218.91 955.896ZM2230.32 976.039C2230.93 977.107 2231.4 977.929 2231.71 978.484C2231.87 978.762 2231.99 978.972 2232.07 979.114C2232.11 979.184 2232.14 979.238 2232.16 979.274C2232.17 979.291 2232.18 979.305 2232.19 979.314C2232.19 979.318 2232.19 979.322 2232.19 979.324C2232.19 979.325 2232.19 979.326 2232.19 979.326C2232.19 979.327 2232.19 979.327 2232.19 979.327C2232.19 979.327 2232.19 979.327 2232.19 979.327C2232.19 979.327 2232.19 979.327 2232.19 979.327C2232.19 979.327 2232.19 979.327 2233.5 978.585C2234.8 977.842 2234.8 977.842 2234.8 977.842C2234.8 977.842 2234.8 977.842 2234.8 977.842C2234.8 977.842 2234.8 977.842 2234.8 977.842C2234.8 977.842 2234.8 977.841 2234.8 977.841C2234.8 977.841 2234.8 977.84 2234.8 977.839C2234.8 977.836 2234.8 977.833 2234.79 977.829C2234.79 977.82 2234.78 977.806 2234.77 977.788C2234.75 977.753 2234.72 977.7 2234.68 977.629C2234.6 977.488 2234.48 977.278 2234.32 977C2234.01 976.446 2233.54 975.625 2232.93 974.556L2230.32 976.039Z" fill="white"/>
</svg>
