<svg width="1920" height="814" viewBox="0 0 1920 814" fill="none" xmlns="http://www.w3.org/2000/svg">
<path d="M442.022 636.507C442.097 636.169 442.343 635.894 442.671 635.785L465.095 628.291C465.609 628.119 466.165 628.397 466.336 628.913C466.508 629.428 466.23 629.986 465.715 630.158L446.984 636.418L470.924 640.592L502.231 617.954L469.907 628.757C469.393 628.928 468.837 628.65 468.666 628.134C468.494 627.619 468.772 627.061 469.286 626.89L507.708 614.049C507.721 614.045 507.73 614.044 507.741 614.041C508.02 613.959 508.328 614 508.58 614.176C508.965 614.445 509.106 614.951 508.915 615.382L482.9 674.069C482.771 674.361 482.508 674.571 482.195 674.634C482.131 674.647 482.067 674.653 482.003 674.653C481.754 674.653 481.512 674.558 481.328 674.383L470.473 664.059L460.848 670.154C460.844 670.157 460.839 670.157 460.834 670.159C460.683 670.252 460.509 670.306 460.325 670.306C460.288 670.306 460.251 670.304 460.214 670.299C459.761 670.248 459.404 669.891 459.35 669.438L457.224 651.51L442.308 637.435C442.057 637.198 441.948 636.845 442.022 636.507ZM446.036 638.25L458.239 649.765L468.699 642.201L446.036 638.25ZM466.077 657.167L480.271 670.666L474.949 648.535L466.077 657.167ZM465.077 658.928L462.208 666.965L469.003 662.662L465.077 658.928ZM460.806 665.051L463.736 656.844C463.738 656.838 463.741 656.833 463.743 656.828C463.794 656.694 463.872 656.571 463.977 656.469L478.501 642.335C478.889 641.957 479.511 641.966 479.888 642.356C480.266 642.746 480.257 643.369 479.868 643.748L476.585 646.942L482.28 670.622L505.06 619.232L482.686 641.005C482.297 641.383 481.676 641.374 481.298 640.984C480.921 640.594 480.93 639.971 481.319 639.593L497.68 623.671L459.199 651.497L460.806 665.051Z" fill="white"/>
<path d="M445.149 663.785C445.4 663.785 445.651 663.689 445.843 663.497L454.514 654.803C454.898 654.418 454.898 653.795 454.514 653.411C454.131 653.027 453.51 653.027 453.126 653.411L444.455 662.105C444.072 662.49 444.072 663.113 444.455 663.497C444.646 663.689 444.898 663.785 445.149 663.785Z" fill="white"/>
<path d="M460.324 679C460.575 679 460.826 678.904 461.018 678.712L469.69 670.018C470.073 669.633 470.073 669.01 469.69 668.626C469.306 668.242 468.685 668.242 468.302 668.626L459.63 677.32C459.247 677.705 459.247 678.328 459.63 678.712C459.822 678.904 460.073 679 460.324 679Z" fill="white"/>
<path d="M445.149 679C445.4 679 445.651 678.904 445.843 678.712L454.514 670.018C454.898 669.633 454.898 669.01 454.514 668.626C454.131 668.242 453.51 668.242 453.126 668.626L444.455 677.32C444.072 677.705 444.072 678.328 444.455 678.712C444.646 678.904 444.898 679 445.149 679Z" fill="white"/>
<path d="M32.3371 497.931L30.8371 497.931L32.3371 497.931ZM174.171 652.807L173.1 651.756L174.171 652.807ZM422.759 691.579C421.622 692.281 420.487 692.95 419.355 693.587L417.883 690.973C418.98 690.355 420.08 689.707 421.183 689.026L422.759 691.579ZM405.338 699.944C402.836 700.81 400.347 701.53 397.871 702.113L397.183 699.193C399.56 698.634 401.951 697.942 404.357 697.109L405.338 699.944ZM382.509 704.061C379.913 704.115 377.334 704.034 374.77 703.83L375.008 700.839C377.476 701.036 379.954 701.114 382.446 701.062L382.509 704.061ZM359.551 701.207C357.074 700.561 354.612 699.817 352.165 698.986L353.129 696.146C355.513 696.955 357.906 697.678 360.308 698.304L359.551 701.207ZM337.926 693.185C335.628 692.103 333.342 690.962 331.067 689.771L332.459 687.113C334.7 688.286 336.948 689.409 339.203 690.471L337.926 693.185ZM317.756 682.232C315.581 680.918 313.416 679.575 311.259 678.213L312.862 675.677C315.004 677.03 317.152 678.362 319.307 679.664L317.756 682.232ZM298.479 669.904C296.359 668.5 294.246 667.092 292.141 665.691L293.803 663.193C295.91 664.595 298.02 666.001 300.136 667.404L298.479 669.904ZM279.445 657.336C277.303 655.955 275.168 654.6 273.039 653.281L274.62 650.731C276.767 652.062 278.917 653.426 281.07 654.814L279.445 657.336ZM259.986 645.672C257.744 644.464 255.51 643.319 253.282 642.247L254.582 639.544C256.857 640.638 259.132 641.804 261.409 643.031L259.986 645.672ZM239.399 636.601C236.993 635.82 234.595 635.157 232.203 634.622L232.856 631.695C235.348 632.251 237.837 632.94 240.324 633.747L239.399 636.601ZM217.474 633.097C215.024 633.16 212.576 633.392 210.129 633.809L209.625 630.851C212.218 630.41 214.808 630.165 217.397 630.098L217.474 633.097ZM196.104 638.332C193.945 639.373 191.78 640.583 189.608 641.974L187.99 639.448C190.259 637.995 192.529 636.725 194.802 635.63L196.104 638.332ZM177.999 651.149C177.081 652.016 176.162 652.918 175.241 653.857L173.1 651.756C174.046 650.791 174.993 649.862 175.94 648.968L177.999 651.149ZM175.241 653.857C174.323 654.793 173.339 655.636 172.293 656.388L170.542 653.952C171.449 653.3 172.302 652.569 173.1 651.756L175.241 653.857ZM157.918 661.086C155.518 661.217 153.008 661.113 150.41 660.791L150.779 657.814C153.222 658.117 155.553 658.211 157.755 658.091L157.918 661.086ZM136.066 657.165C133.83 656.344 131.558 655.402 129.258 654.344L130.513 651.618C132.745 652.646 134.944 653.557 137.1 654.349L136.066 657.165ZM116.342 647.352C114.307 646.091 112.264 644.749 110.217 643.332L111.926 640.866C113.932 642.255 115.933 643.569 117.923 644.802L116.342 647.352ZM98.5876 634.463C96.7405 632.923 94.9 631.325 93.0707 629.67L95.0833 627.445C96.8831 629.073 98.693 630.645 100.509 632.159L98.5876 634.463ZM82.6191 619.455C80.9563 617.703 79.3106 615.904 77.6858 614.061L79.9363 612.077C81.5368 613.893 83.1577 615.665 84.7953 617.39L82.6191 619.455ZM68.4285 602.759C66.9646 600.834 65.5263 598.871 64.117 596.872L66.5689 595.143C67.9573 597.113 69.3742 599.046 70.8165 600.943L68.4285 602.759ZM56.1419 584.635C54.8923 582.554 53.6761 580.442 52.4964 578.299L55.1245 576.852C56.2858 578.962 57.4832 581.042 58.7138 583.091L56.1419 584.635ZM45.948 565.242C44.9446 563.029 43.982 560.791 43.0631 558.528L45.8427 557.399C46.7463 559.625 47.693 561.826 48.6801 564.002L45.948 565.242ZM38.1279 544.76C37.405 542.44 36.7299 540.097 36.1052 537.735L39.0056 536.968C39.6189 539.288 40.282 541.588 40.9922 543.868L38.1279 544.76ZM33.0057 523.443C32.5991 521.044 32.2466 518.628 31.9508 516.196L34.9289 515.834C35.2189 518.219 35.5646 520.588 35.9635 522.941L33.0057 523.443ZM30.8825 501.606C30.8523 500.384 30.8371 499.159 30.8371 497.931L33.8371 497.931C33.8371 499.135 33.852 500.335 33.8815 501.532L30.8825 501.606ZM30.8371 497.931C30.8371 496.853 30.8157 495.698 30.7733 494.471L33.7715 494.367C33.8149 495.624 33.8371 496.814 33.8371 497.931L30.8371 497.931ZM29.6747 479.862C29.4321 477.529 29.1536 475.076 28.8412 472.512L31.8192 472.149C32.1334 474.729 32.4139 477.199 32.6586 479.552L29.6747 479.862ZM26.8884 457.98C26.5434 455.601 26.1786 453.158 25.7949 450.656L28.7603 450.201C29.1451 452.711 29.5111 455.162 29.8573 457.549L26.8884 457.98ZM23.4741 436.149C23.0758 433.748 22.6644 431.307 22.2405 428.829L25.1976 428.323C25.6222 430.806 26.0345 433.252 26.4337 435.658L23.4741 436.149ZM19.6953 414.308C19.2712 411.942 18.838 409.549 18.3965 407.132L21.3477 406.593C21.7898 409.013 22.2235 411.409 22.6482 413.779L19.6953 414.308ZM15.7053 392.644C15.2506 390.234 14.7891 387.805 14.3213 385.359L17.2679 384.795C17.7361 387.244 18.1981 389.675 18.6533 392.088L15.7053 392.644ZM11.5239 370.909C11.0557 368.519 10.5828 366.117 10.1055 363.704L13.0484 363.122C13.5261 365.536 13.9994 367.94 14.468 370.333L11.5239 370.909ZM7.21811 349.249C6.73418 346.848 6.24689 344.441 5.75662 342.028L8.69653 341.431C9.18709 343.845 9.67472 346.254 10.159 348.657L7.21811 349.249ZM2.80047 327.593C2.30429 325.188 1.80601 322.781 1.30606 320.374L4.24336 319.764C4.7436 322.172 5.24215 324.58 5.73861 326.987L2.80047 327.593ZM-1.70745 305.957C-2.21433 303.547 -2.72211 301.14 -3.23035 298.737L-0.295309 298.116C0.213177 300.52 0.7212 302.928 1.22832 305.34L-1.70745 305.957ZM-6.29674 284.32C-6.81095 281.915 -7.32483 279.518 -7.83792 277.13L-4.90489 276.5C-4.39158 278.889 -3.87749 281.287 -3.36305 283.693L-6.29674 284.32ZM-10.9495 262.72C-11.4737 260.304 -11.9961 257.901 -12.5164 255.513L-9.58514 254.874C-9.06471 257.263 -8.54207 259.667 -8.01767 262.084L-10.9495 262.72ZM-15.666 241.12C-16.1984 238.698 -16.7272 236.296 -17.2521 233.917L-14.3226 233.271C-13.7975 235.65 -13.2685 238.053 -12.736 240.476L-15.666 241.12ZM-20.4392 219.529C-20.9795 217.099 -21.514 214.7 -22.0421 212.334L-19.1141 211.68C-18.5859 214.047 -18.0512 216.447 -17.5107 218.878L-20.4392 219.529ZM-25.2678 197.934C-25.8113 195.517 -26.3455 193.145 -26.8696 190.822L-23.9432 190.162C-23.4189 192.486 -22.8845 194.858 -22.3409 197.276L-25.2678 197.934ZM-30.1355 176.4C-30.6957 173.935 -31.2395 171.547 -31.7654 169.241L-28.8405 168.574C-28.3144 170.88 -27.7705 173.269 -27.2101 175.735L-30.1355 176.4ZM-35.0733 154.791C-35.6632 152.224 -36.215 149.829 -36.7253 147.617L-33.8022 146.942C-33.2916 149.155 -32.7396 151.551 -32.1495 154.119L-35.0733 154.791ZM-40.0234 133.392C-40.2947 132.229 -40.5027 131.339 -40.6428 130.74C-40.7129 130.441 -40.766 130.214 -40.8016 130.062C-40.8194 129.986 -40.8328 129.929 -40.8418 129.891C-40.8463 129.872 -40.8497 129.857 -40.8519 129.848C-40.853 129.843 -40.8539 129.839 -40.8544 129.837C-40.8547 129.836 -40.8549 129.835 -40.855 129.834C-40.8551 129.834 -40.8552 129.834 -40.8552 129.834C-40.8552 129.834 -40.8552 129.833 -40.8552 129.833C-40.8552 129.833 -40.8552 129.833 -40.8552 129.833C-40.8552 129.833 -40.8552 129.833 -39.395 129.491C-37.9347 129.148 -37.9347 129.148 -37.9347 129.148C-37.9347 129.148 -37.9347 129.148 -37.9347 129.148C-37.9347 129.148 -37.9346 129.148 -37.9346 129.148C-37.9346 129.148 -37.9345 129.148 -37.9345 129.149C-37.9343 129.149 -37.9341 129.15 -37.9338 129.151C-37.9333 129.154 -37.9324 129.157 -37.9313 129.162C-37.929 129.172 -37.9256 129.186 -37.9211 129.205C-37.9121 129.244 -37.8986 129.301 -37.8808 129.377C-37.8451 129.53 -37.7919 129.757 -37.7217 130.057C-37.5814 130.656 -37.3732 131.547 -37.1018 132.711L-40.0234 133.392Z" fill="white"/>
<path d="M1744.96 105.458C1744.83 104.87 1744.4 104.393 1743.82 104.203L1704.32 91.1745C1703.42 90.8761 1702.44 91.3601 1702.14 92.2563C1701.84 93.1527 1702.33 94.1216 1703.23 94.4202L1736.22 105.303L1694.06 112.56L1638.92 73.2043L1695.85 91.9849C1696.75 92.283 1697.73 91.7994 1698.04 90.903C1698.34 90.0066 1697.85 89.0377 1696.94 88.7392L1629.28 66.4162C1629.25 66.4086 1629.24 66.407 1629.22 66.402C1628.73 66.2592 1628.18 66.3304 1627.74 66.6363C1627.06 67.1052 1626.81 67.9849 1627.15 68.7338L1672.97 170.758C1673.19 171.266 1673.66 171.632 1674.21 171.741C1674.32 171.763 1674.43 171.774 1674.55 171.774C1674.98 171.774 1675.41 171.608 1675.74 171.304L1694.85 153.357L1711.8 163.952C1711.81 163.957 1711.82 163.958 1711.83 163.962C1712.09 164.122 1712.4 164.216 1712.73 164.216C1712.79 164.216 1712.86 164.213 1712.92 164.205C1713.72 164.116 1714.35 163.496 1714.44 162.708L1718.19 131.54L1744.46 107.072C1744.9 106.659 1745.09 106.046 1744.96 105.458ZM1737.89 108.488L1716.4 128.507L1697.98 115.358L1737.89 108.488ZM1702.59 141.376L1677.6 164.842L1686.97 126.368L1702.59 141.376ZM1704.36 144.437L1709.41 158.409L1697.44 150.928L1704.36 144.437ZM1711.88 155.082L1706.72 140.813C1706.71 140.804 1706.71 140.795 1706.71 140.785C1706.62 140.553 1706.48 140.339 1706.29 140.162L1680.71 115.591C1680.03 114.933 1678.94 114.949 1678.27 115.627C1677.61 116.305 1677.62 117.388 1678.31 118.046L1684.09 123.6L1674.06 164.766L1633.94 75.4268L1673.34 113.278C1674.03 113.936 1675.12 113.92 1675.79 113.242C1676.45 112.564 1676.44 111.481 1675.75 110.823L1646.94 83.1437L1714.71 131.519L1711.88 155.082Z" fill="white"/>
<path d="M1739.45 152.88C1739.01 152.88 1738.57 152.714 1738.23 152.38L1722.96 137.265C1722.28 136.597 1722.28 135.514 1722.96 134.846C1723.63 134.178 1724.73 134.178 1725.4 134.846L1740.68 149.96C1741.35 150.629 1741.35 151.712 1740.68 152.38C1740.34 152.714 1739.9 152.88 1739.45 152.88Z" fill="white"/>
<path d="M1712.73 179.331C1712.28 179.331 1711.84 179.164 1711.5 178.83L1696.23 163.716C1695.56 163.047 1695.56 161.964 1696.23 161.296C1696.91 160.628 1698 160.628 1698.68 161.296L1713.95 176.411C1714.62 177.079 1714.62 178.162 1713.95 178.83C1713.61 179.164 1713.17 179.331 1712.73 179.331Z" fill="white"/>
<path d="M1739.45 179.331C1739.01 179.331 1738.57 179.164 1738.23 178.83L1722.96 163.716C1722.28 163.047 1722.28 161.964 1722.96 161.296C1723.63 160.628 1724.73 160.628 1725.4 161.296L1740.68 176.411C1741.35 177.079 1741.35 178.162 1740.68 178.83C1740.34 179.164 1739.9 179.331 1739.45 179.331Z" fill="white"/>
<path d="M2279.65 266.253L2278.32 266.958L2279.65 266.253ZM1854 519.332L1854.79 518.055L1854 519.332ZM1796 365.332L1794.5 365.332L1796 365.332ZM2196 167.332L2197.07 166.281L2197.07 166.281L2196 167.332ZM1796 266.253L1797.49 266.104L1796 266.253ZM1762.08 202.346C1761 203.388 1761 203.388 1761 203.388C1761 203.388 1761 203.388 1761 203.388C1761 203.388 1761 203.388 1761 203.388C1761 203.388 1761 203.388 1761 203.388C1761 203.388 1761 203.389 1761 203.39C1761 203.391 1761.01 203.394 1761.01 203.398C1761.02 203.405 1761.03 203.417 1761.04 203.432C1761.07 203.463 1761.12 203.511 1761.18 203.574C1761.3 203.7 1761.48 203.891 1761.71 204.141C1762.17 204.643 1762.85 205.387 1763.69 206.348L1765.95 204.37C1765.08 203.388 1764.39 202.625 1763.91 202.106C1763.67 201.847 1763.49 201.648 1763.36 201.514C1763.3 201.446 1763.25 201.395 1763.21 201.36C1763.2 201.343 1763.18 201.329 1763.17 201.32C1763.17 201.315 1763.17 201.312 1763.16 201.309C1763.16 201.308 1763.16 201.307 1763.16 201.306C1763.16 201.306 1763.16 201.305 1763.16 201.305C1763.16 201.305 1763.16 201.305 1763.16 201.305C1763.16 201.305 1763.16 201.305 1763.16 201.305C1763.16 201.305 1763.16 201.305 1762.08 202.346ZM1773.75 219.028C1775.24 221.102 1776.78 223.337 1778.31 225.706L1780.83 224.077C1779.27 221.662 1777.7 219.386 1776.19 217.275L1773.75 219.028ZM1786.3 239.736C1787.47 242.134 1788.56 244.593 1789.56 247.095L1792.35 245.989C1791.32 243.409 1790.19 240.879 1788.99 238.419L1786.3 239.736ZM1793.98 262.46C1794.2 263.774 1794.38 265.088 1794.51 266.402L1797.49 266.104C1797.36 264.719 1797.17 263.337 1796.93 261.959L1793.98 262.46ZM1794.51 266.402C1794.65 267.815 1794.78 269.185 1794.9 270.514L1797.89 270.24C1797.77 268.902 1797.64 267.525 1797.49 266.104L1794.51 266.402ZM1796.04 286.931C1796.17 289.814 1796.23 292.522 1796.26 295.137L1799.26 295.106C1799.23 292.459 1799.16 289.718 1799.04 286.803L1796.04 286.931ZM1795.95 311.573C1795.85 314.207 1795.72 316.925 1795.59 319.817L1798.59 319.952C1798.72 317.063 1798.85 314.337 1798.95 311.693L1795.95 311.573ZM1794.94 336.355C1794.86 338.946 1794.78 341.69 1794.72 344.615L1797.72 344.68C1797.78 341.766 1797.85 339.032 1797.94 336.449L1794.94 336.355ZM1794.51 361.175C1794.5 362.528 1794.5 363.913 1794.5 365.332L1797.5 365.332C1797.5 363.917 1797.5 362.536 1797.51 361.187L1794.51 361.175ZM1794.5 365.332C1794.5 366.56 1794.5 367.78 1794.5 368.992L1797.5 368.992C1797.5 367.78 1797.5 366.56 1797.5 365.332L1794.5 365.332ZM1794.54 383.549C1794.55 386.011 1794.57 388.437 1794.6 390.829L1797.6 390.792C1797.57 388.408 1797.55 385.988 1797.54 383.531L1794.54 383.549ZM1794.92 405.411C1795.01 407.883 1795.11 410.316 1795.23 412.711L1798.23 412.558C1798.11 410.181 1798.01 407.765 1797.92 405.308L1794.92 405.411ZM1796.3 427.28C1796.55 429.751 1796.83 432.18 1797.15 434.569L1800.12 434.173C1799.81 431.82 1799.53 429.424 1799.29 426.983L1796.3 427.28ZM1799.68 449.022C1800.22 451.442 1800.82 453.82 1801.48 456.156L1804.37 455.339C1803.72 453.06 1803.14 450.737 1802.61 448.368L1799.68 449.022ZM1806.4 470.049C1807.38 472.308 1808.44 474.528 1809.59 476.709L1812.25 475.312C1811.13 473.199 1810.11 471.047 1809.15 468.855L1806.4 470.049ZM1817.46 489.202C1818.91 491.152 1820.45 493.071 1822.09 494.962L1824.36 492.998C1822.77 491.163 1821.27 489.301 1819.87 487.411L1817.46 489.202ZM1832.47 505.41C1834.27 507.005 1836.16 508.58 1838.14 510.137L1839.99 507.78C1838.06 506.257 1836.22 504.719 1834.46 503.163L1832.47 505.41ZM1850.08 518.634C1851.11 519.295 1852.15 519.953 1853.21 520.608L1854.79 518.055C1853.74 517.41 1852.72 516.763 1851.71 516.113L1850.08 518.634ZM1853.21 520.608C1854.4 521.337 1855.57 522.032 1856.74 522.693L1858.22 520.08C1857.08 519.439 1855.94 518.764 1854.79 518.055L1853.21 520.608ZM1870.79 529.103C1873.35 529.988 1875.88 530.706 1878.38 531.263L1879.04 528.334C1876.65 527.803 1874.23 527.116 1871.77 526.268L1870.79 529.103ZM1893.87 532.678C1896.49 532.567 1899.07 532.277 1901.61 531.815L1901.08 528.863C1898.66 529.301 1896.22 529.576 1893.74 529.681L1893.87 532.678ZM1916.44 527.081C1918.8 525.999 1921.12 524.77 1923.41 523.403L1921.87 520.826C1919.67 522.142 1917.44 523.32 1915.19 524.356L1916.44 527.081ZM1936 514.303C1937.89 512.692 1939.77 510.989 1941.62 509.197L1939.53 507.04C1937.72 508.791 1935.9 510.451 1934.06 512.018L1936 514.303ZM1952.13 497.881C1953.76 495.937 1955.39 493.927 1956.99 491.854L1954.62 490.016C1953.04 492.059 1951.44 494.038 1949.83 495.948L1952.13 497.881ZM1965.98 479.423C1967.42 477.29 1968.85 475.108 1970.27 472.881L1967.75 471.266C1966.34 473.473 1964.92 475.632 1963.49 477.742L1965.98 479.423ZM1978.19 459.845C1979.46 457.644 1980.73 455.408 1981.99 453.14L1979.37 451.684C1978.12 453.937 1976.86 456.157 1975.59 458.342L1978.19 459.845ZM1989.22 439.623C1990.38 437.374 1991.54 435.1 1992.68 432.803L1990 431.461C1988.86 433.747 1987.71 436.01 1986.55 438.247L1989.22 439.623ZM1999.4 419.002C2000.48 416.715 2001.56 414.409 2002.63 412.088L1999.91 410.829C1998.84 413.143 1997.76 415.44 1996.68 417.718L1999.4 419.002ZM2008.95 398.119C2009.98 395.8 2011.01 393.469 2012.03 391.127L2009.28 389.927C2008.26 392.264 2007.24 394.589 2006.21 396.902L2008.95 398.119ZM2018.08 377.058C2019.07 374.715 2020.06 372.364 2021.05 370.007L2018.28 368.848C2017.29 371.202 2016.3 373.548 2015.31 375.887L2018.08 377.058ZM2026.91 355.879C2027.88 353.52 2028.84 351.158 2029.81 348.795L2027.03 347.661C2026.07 350.022 2025.1 352.382 2024.13 354.738L2026.91 355.879ZM2035.57 334.632C2036.52 332.267 2037.48 329.903 2038.44 327.542L2035.65 326.417C2034.7 328.778 2033.74 331.142 2032.79 333.506L2035.57 334.632ZM2044.17 313.365C2045.13 311.002 2046.08 308.644 2047.04 306.294L2044.26 305.164C2043.3 307.516 2042.35 309.875 2041.39 312.239L2044.17 313.365ZM2052.82 292.125C2053.79 289.771 2054.76 287.427 2055.73 285.095L2052.96 283.945C2051.99 286.28 2051.02 288.627 2050.05 290.984L2052.82 292.125ZM2061.66 270.97C2062.65 268.628 2063.65 266.302 2064.64 263.993L2061.89 262.804C2060.89 265.118 2059.89 267.45 2058.9 269.796L2061.66 270.97ZM2070.81 249.971C2071.85 247.642 2072.9 245.335 2073.94 243.053L2071.22 241.802C2070.17 244.092 2069.12 246.407 2068.07 248.744L2070.81 249.971ZM2080.46 229.241C2081.58 226.921 2082.71 224.633 2083.85 222.38L2081.17 221.033C2080.03 223.299 2078.89 225.599 2077.76 227.931L2080.46 229.241ZM2090.85 208.97C2092.11 206.658 2093.38 204.394 2094.65 202.182L2092.04 200.69C2090.76 202.922 2089.49 205.204 2088.22 207.534L2090.85 208.97ZM2102.53 189.219C2103.94 187.045 2105.35 184.941 2106.78 182.909L2104.32 181.189C2102.87 183.251 2101.44 185.386 2100.01 187.588L2102.53 189.219ZM2116.01 170.902C2117.68 168.946 2119.37 167.1 2121.06 165.369L2118.91 163.272C2117.17 165.055 2115.44 166.951 2113.73 168.952L2116.01 170.902ZM2132.45 155.609C2134.54 154.178 2136.63 152.93 2138.74 151.874L2137.4 149.191C2135.15 150.315 2132.94 151.635 2130.75 153.137L2132.45 155.609ZM2152.78 147.769C2155.2 147.562 2157.65 147.608 2160.13 147.92L2160.51 144.943C2157.82 144.605 2155.15 144.555 2152.53 144.78L2152.78 147.769ZM2173.99 152.314C2176.11 153.385 2178.27 154.65 2180.46 156.117L2182.13 153.625C2179.85 152.094 2177.58 150.766 2175.34 149.634L2173.99 152.314ZM2192.04 165.534C2193 166.445 2193.96 167.395 2194.93 168.382L2197.07 166.281C2196.08 165.27 2195.09 164.297 2194.11 163.361L2192.04 165.534ZM2194.93 168.382C2195.82 169.284 2196.68 170.164 2197.54 171.025L2199.67 168.913C2198.82 168.056 2197.95 167.179 2197.07 166.281L2194.93 168.382ZM2207.89 181.232C2209.74 183.011 2211.5 184.679 2213.18 186.247L2215.22 184.055C2213.56 182.497 2211.81 180.839 2209.97 179.07L2207.89 181.232ZM2223.99 196.043C2225.96 197.77 2227.79 199.344 2229.49 200.807L2231.45 198.528C2229.74 197.07 2227.93 195.504 2225.97 193.788L2223.99 196.043ZM2240.44 210.275C2242.25 211.916 2243.94 213.535 2245.58 215.249L2247.75 213.171C2246.04 211.397 2244.3 209.731 2242.46 208.055L2240.44 210.275ZM2254.62 226.301C2255.89 228.106 2257.22 230.081 2258.62 232.272L2261.15 230.654C2259.72 228.43 2258.37 226.417 2257.07 224.57L2254.62 226.301ZM2266.08 244.667C2267.22 246.643 2268.4 248.745 2269.65 250.984L2272.27 249.526C2271.02 247.276 2269.83 245.164 2268.68 243.175L2266.08 244.667ZM2276.58 263.694C2277.15 264.758 2277.73 265.846 2278.32 266.958L2280.97 265.547C2280.38 264.432 2279.79 263.342 2279.22 262.276L2276.58 263.694ZM2278.32 266.958C2278.89 268.024 2279.46 269.094 2280.03 270.168L2282.68 268.755C2282.11 267.681 2281.54 266.612 2280.97 265.547L2278.32 266.958ZM2286.97 283.103C2288.12 285.242 2289.28 287.394 2290.45 289.557L2293.09 288.132C2291.92 285.97 2290.76 283.819 2289.61 281.682L2286.97 283.103ZM2297.44 302.463C2298.6 304.603 2299.77 306.75 2300.94 308.904L2303.57 307.469C2302.4 305.317 2301.23 303.17 2300.07 301.031L2297.44 302.463ZM2307.97 321.784C2309.14 323.926 2310.31 326.071 2311.49 328.217L2314.12 326.775C2312.94 324.629 2311.77 322.485 2310.6 320.344L2307.97 321.784ZM2318.55 341.075C2319.73 343.219 2320.91 345.361 2322.09 347.501L2324.72 346.053C2323.54 343.914 2322.36 341.772 2321.18 339.628L2318.55 341.075ZM2329.18 360.341C2330.37 362.488 2331.56 364.628 2332.74 366.76L2335.36 365.306C2334.18 363.174 2333 361.035 2331.81 358.889L2329.18 360.341ZM2339.85 379.585C2341.05 381.735 2342.24 383.873 2343.42 385.999L2346.04 384.54C2344.86 382.415 2343.67 380.277 2342.48 378.128L2339.85 379.585ZM2350.56 398.807C2351.76 400.963 2352.96 403.101 2354.14 405.22L2356.76 403.756C2355.57 401.638 2354.38 399.5 2353.18 397.345L2350.56 398.807ZM2361.29 417.996C2362.5 420.164 2363.7 422.305 2364.88 424.416L2367.5 422.949C2366.32 420.838 2365.12 418.698 2363.9 416.53L2361.29 417.996ZM2372.06 437.207C2373.28 439.373 2374.48 441.499 2375.65 443.58L2378.26 442.109C2377.09 440.028 2375.9 437.903 2374.68 435.737L2372.06 437.207ZM2382.85 456.361C2384.09 458.562 2385.29 460.694 2386.46 462.753L2389.07 461.278C2387.91 459.22 2386.7 457.088 2385.46 454.887L2382.85 456.361ZM2393.66 475.501C2394.97 477.803 2396.18 479.953 2397.31 481.936L2399.92 480.457C2398.79 478.474 2397.58 476.325 2396.27 474.023L2393.66 475.501ZM2404.53 494.66C2405.11 495.69 2405.56 496.477 2405.86 497.008C2406.01 497.273 2406.13 497.474 2406.21 497.608C2406.24 497.676 2406.27 497.726 2406.29 497.76C2406.3 497.777 2406.31 497.79 2406.31 497.799C2406.32 497.803 2406.32 497.806 2406.32 497.808C2406.32 497.809 2406.32 497.81 2406.32 497.811C2406.32 497.811 2406.32 497.811 2406.32 497.811C2406.32 497.811 2406.32 497.811 2406.32 497.811C2406.32 497.811 2406.32 497.811 2406.32 497.811C2406.32 497.811 2406.32 497.811 2407.62 497.069C2408.93 496.326 2408.93 496.326 2408.93 496.326C2408.93 496.326 2408.93 496.326 2408.93 496.326C2408.93 496.326 2408.93 496.326 2408.93 496.326C2408.93 496.326 2408.93 496.326 2408.93 496.325C2408.93 496.325 2408.93 496.324 2408.93 496.323C2408.93 496.321 2408.92 496.318 2408.92 496.313C2408.92 496.305 2408.91 496.292 2408.9 496.275C2408.88 496.241 2408.85 496.191 2408.81 496.124C2408.74 495.989 2408.62 495.788 2408.47 495.523C2408.17 494.993 2407.72 494.206 2407.14 493.178L2404.53 494.66Z" fill="white"/>
</svg>
