<svg width="1920" height="848" viewBox="0 0 1920 848" fill="none" xmlns="http://www.w3.org/2000/svg">
<path d="M181.022 261.507C181.097 261.168 181.343 260.894 181.671 260.785L204.095 253.29C204.609 253.119 205.165 253.397 205.336 253.913C205.508 254.428 205.23 254.986 204.715 255.157L185.984 261.417L209.924 265.592L241.231 242.953L208.907 253.756C208.393 253.928 207.837 253.65 207.666 253.134C207.494 252.619 207.772 252.061 208.286 251.889L246.708 239.049C246.721 239.044 246.73 239.044 246.741 239.041C247.02 238.959 247.328 238.999 247.58 239.175C247.965 239.445 248.106 239.951 247.915 240.382L221.9 299.068C221.771 299.36 221.508 299.571 221.195 299.634C221.131 299.646 221.067 299.653 221.003 299.653C220.754 299.653 220.512 299.558 220.328 299.383L209.473 289.059L199.848 295.153C199.844 295.156 199.839 295.157 199.834 295.159C199.683 295.251 199.509 295.306 199.325 295.306C199.288 295.306 199.251 295.303 199.214 295.299C198.761 295.248 198.404 294.891 198.35 294.438L196.224 276.509L181.308 262.435C181.057 262.197 180.948 261.845 181.022 261.507ZM185.036 263.249L197.239 274.765L207.699 267.201L185.036 263.249ZM205.077 282.167L219.271 295.665L213.949 273.534L205.077 282.167ZM204.077 283.928L201.208 291.965L208.003 287.662L204.077 283.928ZM199.806 290.051L202.736 281.844C202.738 281.838 202.741 281.833 202.743 281.828C202.794 281.694 202.872 281.571 202.977 281.469L217.501 267.335C217.889 266.957 218.511 266.966 218.888 267.356C219.266 267.746 219.257 268.369 218.868 268.747L215.585 271.942L221.28 295.621L244.06 244.232L221.686 266.005C221.297 266.383 220.676 266.374 220.298 265.984C219.921 265.594 219.93 264.971 220.319 264.593L236.68 248.671L198.199 276.497L199.806 290.051Z" fill="white"/>
<path d="M184.149 288.785C184.4 288.785 184.651 288.689 184.843 288.497L193.514 279.802C193.898 279.418 193.898 278.795 193.514 278.411C193.131 278.027 192.51 278.027 192.126 278.411L183.455 287.105C183.072 287.49 183.072 288.113 183.455 288.497C183.646 288.689 183.898 288.785 184.149 288.785Z" fill="white"/>
<path d="M199.324 304C199.575 304 199.826 303.904 200.018 303.712L208.69 295.018C209.073 294.633 209.073 294.01 208.69 293.626C208.306 293.242 207.685 293.242 207.302 293.626L198.63 302.32C198.247 302.705 198.247 303.328 198.63 303.712C198.822 303.904 199.073 304 199.324 304Z" fill="white"/>
<path d="M184.149 304C184.4 304 184.651 303.904 184.843 303.712L193.514 295.018C193.898 294.633 193.898 294.01 193.514 293.626C193.131 293.242 192.51 293.242 192.126 293.626L183.455 302.32C183.072 302.705 183.072 303.328 183.455 303.712C183.646 303.904 183.898 304 184.149 304Z" fill="white"/>
<path d="M-228.663 122.931L-230.163 122.931L-228.663 122.931ZM-86.8295 277.806L-87.9003 276.756L-86.8295 277.806ZM161.759 316.579C160.622 317.281 159.487 317.95 158.355 318.587L156.883 315.972C157.98 315.355 159.08 314.707 160.183 314.026L161.759 316.579ZM144.338 324.944C141.836 325.81 139.347 326.53 136.871 327.113L136.183 324.193C138.56 323.633 140.951 322.942 143.357 322.109L144.338 324.944ZM121.509 329.061C118.913 329.115 116.334 329.034 113.77 328.83L114.008 325.839C116.476 326.036 118.954 326.114 121.446 326.061L121.509 329.061ZM98.5509 326.207C96.074 325.561 93.6121 324.817 91.1647 323.986L92.1289 321.145C94.5129 321.954 96.9057 322.677 99.3081 323.304L98.5509 326.207ZM76.9256 318.185C74.6279 317.103 72.3419 315.961 70.0672 314.77L71.4588 312.113C73.6996 313.286 75.9476 314.408 78.2035 315.47L76.9256 318.185ZM56.7556 307.231C54.5812 305.918 52.4159 304.575 50.2594 303.212L51.862 300.676C54.0042 302.03 56.1522 303.362 58.3068 304.663L56.7556 307.231ZM37.4787 294.904C35.3593 293.499 33.246 292.091 31.1412 290.691L32.8034 288.193C34.91 289.595 37.0197 291.001 39.1361 292.404L37.4787 294.904ZM18.4449 282.335C16.3031 280.955 14.1682 279.6 12.0395 278.281L13.62 275.731C15.7667 277.061 17.9167 278.426 20.0702 279.814L18.4449 282.335ZM-1.01446 270.672C-3.2557 269.464 -5.48997 268.319 -7.71816 267.247L-6.41791 264.544C-4.14345 265.637 -1.868 266.804 0.408815 268.031L-1.01446 270.672ZM-21.6014 261.6C-24.0072 260.82 -26.4055 260.156 -28.7974 259.622L-28.1437 256.694C-25.652 257.251 -23.163 257.94 -20.6761 258.747L-21.6014 261.6ZM-43.5265 258.097C-45.9765 258.16 -48.4242 258.392 -50.8712 258.808L-51.375 255.851C-48.7824 255.409 -46.1918 255.164 -43.6032 255.098L-43.5265 258.097ZM-64.8956 263.332C-67.0551 264.373 -69.2202 265.583 -71.3916 266.974L-73.0101 264.448C-70.741 262.994 -68.4707 261.725 -66.1984 260.63L-64.8956 263.332ZM-83.0005 276.149C-83.9186 277.016 -84.838 277.918 -85.7586 278.857L-87.9003 276.756C-86.9535 275.791 -86.0067 274.862 -85.0599 273.968L-83.0005 276.149ZM-85.7586 278.857C-86.6766 279.793 -87.661 280.636 -88.7072 281.388L-90.4579 278.951C-89.5513 278.3 -88.6976 277.569 -87.9003 276.756L-85.7586 278.857ZM-103.082 286.086C-105.482 286.217 -107.992 286.113 -110.59 285.791L-110.221 282.814C-107.778 283.117 -105.447 283.21 -103.245 283.091L-103.082 286.086ZM-124.934 282.165C-127.17 281.344 -129.442 280.402 -131.742 279.343L-130.487 276.618C-128.255 277.646 -126.056 278.557 -123.9 279.349L-124.934 282.165ZM-144.658 272.352C-146.693 271.09 -148.736 269.749 -150.783 268.332L-149.074 265.866C-147.068 267.255 -145.067 268.568 -143.077 269.802L-144.658 272.352ZM-162.412 259.463C-164.259 257.923 -166.1 256.325 -167.929 254.669L-165.917 252.445C-164.117 254.073 -162.307 255.645 -160.491 257.159L-162.412 259.463ZM-178.381 244.455C-180.044 242.703 -181.689 240.904 -183.314 239.061L-181.064 237.077C-179.463 238.893 -177.842 240.664 -176.205 242.39L-178.381 244.455ZM-192.571 227.758C-194.035 225.833 -195.474 223.871 -196.883 221.872L-194.431 220.143C-193.043 222.112 -191.626 224.046 -190.184 225.942L-192.571 227.758ZM-204.858 209.635C-206.108 207.554 -207.324 205.442 -208.504 203.299L-205.876 201.852C-204.714 203.962 -203.517 206.041 -202.286 208.091L-204.858 209.635ZM-215.052 190.241C-216.055 188.029 -217.018 185.791 -217.937 183.527L-215.157 182.399C-214.254 184.624 -213.307 186.826 -212.32 189.002L-215.052 190.241ZM-222.872 169.76C-223.595 167.439 -224.27 165.097 -224.895 162.734L-221.994 161.968C-221.381 164.287 -220.718 166.588 -220.008 168.868L-222.872 169.76ZM-227.994 148.442C-228.401 146.044 -228.753 143.628 -229.049 141.196L-226.071 140.834C-225.781 143.218 -225.435 145.588 -225.036 147.941L-227.994 148.442ZM-230.118 126.606C-230.148 125.384 -230.163 124.159 -230.163 122.931L-227.163 122.931C-227.163 124.134 -227.148 125.335 -227.118 126.532L-230.118 126.606ZM-230.163 122.931C-230.163 121.853 -230.184 120.698 -230.227 119.47L-227.228 119.367C-227.185 120.624 -227.163 121.813 -227.163 122.931L-230.163 122.931ZM-231.325 104.862C-231.568 102.529 -231.846 100.076 -232.159 97.5116L-229.181 97.1488C-228.867 99.7286 -228.586 102.199 -228.341 104.552L-231.325 104.862ZM-234.112 82.9793C-234.457 80.6008 -234.821 78.1582 -235.205 75.6558L-232.24 75.2011C-231.855 77.711 -231.489 80.1616 -231.143 82.5487L-234.112 82.9793ZM-237.526 61.1485C-237.924 58.7482 -238.336 56.3071 -238.759 53.8283L-235.802 53.3226C-235.378 55.8061 -234.965 58.252 -234.566 60.6573L-237.526 61.1485ZM-241.305 39.3077C-241.729 36.9416 -242.162 34.549 -242.603 32.1321L-239.652 31.593C-239.21 34.013 -238.777 36.4089 -238.352 38.7784L-241.305 39.3077ZM-245.295 17.6442C-245.749 15.2336 -246.211 12.8044 -246.679 10.3586L-243.732 9.79505C-243.264 12.2433 -242.802 14.6749 -242.347 17.0881L-245.295 17.6442ZM-249.476 -4.0909C-249.944 -6.48142 -250.417 -8.88371 -250.895 -11.2961L-247.952 -11.8784C-247.474 -9.46415 -247.001 -7.05994 -246.532 -4.66744L-249.476 -4.0909ZM-253.782 -25.7509C-254.266 -28.1519 -254.753 -30.5594 -255.243 -32.9718L-252.303 -33.5693C-251.813 -31.1554 -251.325 -28.7463 -250.841 -26.3437L-253.782 -25.7509ZM-258.2 -47.4072C-258.696 -49.8124 -259.194 -52.2194 -259.694 -54.6266L-256.757 -55.2367C-256.256 -52.8282 -255.758 -50.4199 -255.261 -48.0133L-258.2 -47.4072ZM-262.707 -69.0433C-263.214 -71.4534 -263.722 -73.8606 -264.23 -76.2632L-261.295 -76.8841C-260.787 -74.4803 -260.279 -72.072 -259.772 -69.6607L-262.707 -69.0433ZM-267.297 -90.6801C-267.811 -93.0851 -268.325 -95.4822 -268.838 -97.8699L-265.905 -98.5002C-265.392 -96.1115 -264.877 -93.7134 -264.363 -91.3074L-267.297 -90.6801ZM-271.949 -112.28C-272.474 -114.697 -272.996 -117.1 -273.516 -119.487L-270.585 -120.126C-270.065 -117.737 -269.542 -115.334 -269.018 -112.916L-271.949 -112.28ZM-276.666 -133.88C-277.198 -136.303 -277.727 -138.704 -278.252 -141.083L-275.323 -141.73C-274.797 -139.35 -274.268 -136.947 -273.736 -134.524L-276.666 -133.88ZM-281.439 -155.471C-281.979 -157.901 -282.514 -160.301 -283.042 -162.667L-280.114 -163.32C-279.586 -160.953 -279.051 -158.553 -278.511 -156.123L-281.439 -155.471ZM-286.268 -177.066C-286.811 -179.483 -287.345 -181.855 -287.87 -184.178L-284.943 -184.838C-284.419 -182.514 -283.885 -180.142 -283.341 -177.724L-286.268 -177.066ZM-291.135 -198.6C-291.696 -201.066 -292.239 -203.454 -292.765 -205.76L-289.84 -206.427C-289.314 -204.12 -288.77 -201.731 -288.21 -199.265L-291.135 -198.6ZM-296.073 -220.209C-296.663 -222.776 -297.215 -225.172 -297.725 -227.383L-294.802 -228.058C-294.292 -225.845 -293.74 -223.449 -293.149 -220.881L-296.073 -220.209ZM-301.023 -241.608C-301.295 -242.771 -301.503 -243.661 -301.643 -244.26C-301.713 -244.56 -301.766 -244.786 -301.802 -244.938C-301.819 -245.014 -301.833 -245.071 -301.842 -245.11C-301.846 -245.129 -301.85 -245.143 -301.852 -245.153C-301.853 -245.157 -301.854 -245.161 -301.854 -245.163C-301.855 -245.164 -301.855 -245.165 -301.855 -245.166C-301.855 -245.166 -301.855 -245.166 -301.855 -245.167C-301.855 -245.167 -301.855 -245.167 -301.855 -245.167C-301.855 -245.167 -301.855 -245.167 -301.855 -245.167C-301.855 -245.167 -301.855 -245.167 -300.395 -245.51C-298.935 -245.853 -298.935 -245.853 -298.935 -245.853C-298.935 -245.853 -298.935 -245.853 -298.935 -245.853C-298.935 -245.853 -298.935 -245.852 -298.935 -245.852C-298.935 -245.852 -298.935 -245.852 -298.934 -245.852C-298.934 -245.851 -298.934 -245.85 -298.934 -245.849C-298.933 -245.847 -298.932 -245.843 -298.931 -245.838C-298.929 -245.828 -298.926 -245.814 -298.921 -245.795C-298.912 -245.756 -298.899 -245.699 -298.881 -245.623C-298.845 -245.471 -298.792 -245.244 -298.722 -244.944C-298.581 -244.344 -298.373 -243.453 -298.102 -242.289L-301.023 -241.608Z" fill="white"/>
<path d="M1513.97 223.458C1513.84 222.87 1513.4 222.393 1512.83 222.203L1473.33 209.174C1472.43 208.876 1471.45 209.36 1471.15 210.256C1470.84 211.153 1471.33 212.122 1472.24 212.42L1505.23 223.303L1463.07 230.56L1407.93 191.204L1464.86 209.985C1465.76 210.283 1466.74 209.799 1467.04 208.903C1467.35 208.007 1466.86 207.038 1465.95 206.739L1398.28 184.416C1398.26 184.409 1398.24 184.407 1398.22 184.402C1397.73 184.259 1397.19 184.33 1396.75 184.636C1396.07 185.105 1395.82 185.985 1396.16 186.734L1441.97 288.758C1442.2 289.266 1442.66 289.632 1443.22 289.741C1443.33 289.763 1443.44 289.774 1443.55 289.774C1443.99 289.774 1444.42 289.608 1444.74 289.304L1463.86 271.357L1480.81 281.952C1480.82 281.957 1480.83 281.958 1480.84 281.962C1481.1 282.122 1481.41 282.216 1481.73 282.216C1481.8 282.216 1481.86 282.213 1481.93 282.205C1482.73 282.116 1483.36 281.496 1483.45 280.708L1487.19 249.54L1513.46 225.072C1513.91 224.659 1514.1 224.046 1513.97 223.458ZM1506.9 226.488L1485.41 246.507L1466.98 233.358L1506.9 226.488ZM1471.6 259.376L1446.6 282.842L1455.98 244.368L1471.6 259.376ZM1473.36 262.437L1478.42 276.409L1466.45 268.928L1473.36 262.437ZM1480.89 273.082L1475.73 258.813C1475.72 258.804 1475.72 258.795 1475.71 258.785C1475.62 258.553 1475.49 258.339 1475.3 258.162L1449.72 233.591C1449.04 232.933 1447.94 232.949 1447.28 233.627C1446.61 234.305 1446.63 235.388 1447.31 236.046L1453.1 241.6L1443.07 282.766L1402.95 193.427L1442.35 231.278C1443.04 231.936 1444.13 231.92 1444.79 231.242C1445.46 230.564 1445.44 229.481 1444.76 228.823L1415.94 201.144L1483.72 249.519L1480.89 273.082Z" fill="white"/>
<path d="M1508.46 270.88C1508.02 270.88 1507.58 270.714 1507.24 270.38L1491.97 255.265C1491.29 254.597 1491.29 253.514 1491.97 252.846C1492.64 252.178 1493.74 252.178 1494.41 252.846L1509.68 267.96C1510.36 268.629 1510.36 269.712 1509.68 270.38C1509.35 270.714 1508.9 270.88 1508.46 270.88Z" fill="white"/>
<path d="M1481.73 297.331C1481.29 297.331 1480.85 297.164 1480.51 296.83L1465.24 281.716C1464.56 281.047 1464.56 279.964 1465.24 279.296C1465.91 278.628 1467.01 278.628 1467.68 279.296L1482.96 294.411C1483.63 295.079 1483.63 296.162 1482.96 296.83C1482.62 297.164 1482.18 297.331 1481.73 297.331Z" fill="white"/>
<path d="M1508.46 297.331C1508.02 297.331 1507.58 297.164 1507.24 296.83L1491.97 281.716C1491.29 281.047 1491.29 279.964 1491.97 279.296C1492.64 278.628 1493.74 278.628 1494.41 279.296L1509.68 294.411C1510.36 295.079 1510.36 296.162 1509.68 296.83C1509.35 297.164 1508.9 297.331 1508.46 297.331Z" fill="white"/>
<path d="M2048.65 384.253L2047.33 384.958L2048.65 384.253ZM1623.01 637.332L1623.8 636.055L1623.01 637.332ZM1565.01 483.332L1563.51 483.332L1565.01 483.332ZM1965.01 285.332L1966.08 284.281L1966.08 284.281L1965.01 285.332ZM1565.01 384.253L1566.5 384.104L1565.01 384.253ZM1531.09 320.346C1530.01 321.388 1530.01 321.388 1530.01 321.388C1530.01 321.388 1530.01 321.388 1530.01 321.388C1530.01 321.388 1530.01 321.388 1530.01 321.388C1530.01 321.388 1530.01 321.388 1530.01 321.388C1530.01 321.388 1530.01 321.389 1530.01 321.39C1530.01 321.391 1530.02 321.394 1530.02 321.398C1530.03 321.405 1530.04 321.417 1530.05 321.432C1530.08 321.463 1530.13 321.511 1530.19 321.574C1530.31 321.7 1530.48 321.891 1530.72 322.141C1531.18 322.643 1531.85 323.387 1532.7 324.348L1534.95 322.37C1534.09 321.388 1533.4 320.625 1532.92 320.106C1532.68 319.847 1532.49 319.648 1532.37 319.514C1532.3 319.446 1532.25 319.395 1532.22 319.36C1532.2 319.343 1532.19 319.329 1532.18 319.32C1532.18 319.315 1532.18 319.312 1532.17 319.309C1532.17 319.308 1532.17 319.307 1532.17 319.306C1532.17 319.306 1532.17 319.305 1532.17 319.305C1532.17 319.305 1532.17 319.305 1532.17 319.305C1532.17 319.305 1532.17 319.305 1532.17 319.305C1532.17 319.305 1532.17 319.305 1531.09 320.346ZM1542.76 337.028C1544.25 339.102 1545.79 341.337 1547.32 343.706L1549.84 342.077C1548.28 339.662 1546.71 337.386 1545.19 335.275L1542.76 337.028ZM1555.3 357.736C1556.48 360.134 1557.57 362.593 1558.56 365.095L1561.35 363.989C1560.33 361.409 1559.2 358.879 1558 356.419L1555.3 357.736ZM1562.98 380.46C1563.21 381.774 1563.39 383.088 1563.52 384.402L1566.5 384.104C1566.36 382.719 1566.18 381.337 1565.94 379.959L1562.98 380.46ZM1563.52 384.402C1563.66 385.815 1563.79 387.185 1563.91 388.514L1566.9 388.24C1566.78 386.902 1566.64 385.525 1566.5 384.104L1563.52 384.402ZM1565.05 404.931C1565.17 407.814 1565.24 410.522 1565.27 413.137L1568.27 413.106C1568.24 410.459 1568.17 407.718 1568.05 404.803L1565.05 404.931ZM1564.96 429.573C1564.86 432.207 1564.73 434.925 1564.6 437.817L1567.6 437.952C1567.73 435.063 1567.85 432.337 1567.96 429.693L1564.96 429.573ZM1563.95 454.355C1563.86 456.946 1563.79 459.69 1563.73 462.615L1566.72 462.68C1566.79 459.766 1566.86 457.032 1566.94 454.449L1563.95 454.355ZM1563.52 479.175C1563.51 480.528 1563.51 481.913 1563.51 483.332L1566.51 483.332C1566.51 481.917 1566.51 480.536 1566.52 479.187L1563.52 479.175ZM1563.51 483.332C1563.51 484.56 1563.51 485.78 1563.51 486.992L1566.51 486.992C1566.51 485.78 1566.51 484.56 1566.51 483.332L1563.51 483.332ZM1563.54 501.549C1563.56 504.011 1563.58 506.437 1563.61 508.829L1566.61 508.792C1566.58 506.408 1566.56 503.988 1566.54 501.531L1563.54 501.549ZM1563.93 523.411C1564.02 525.883 1564.12 528.316 1564.24 530.711L1567.24 530.558C1567.12 528.181 1567.01 525.765 1566.93 523.308L1563.93 523.411ZM1565.31 545.28C1565.56 547.751 1565.84 550.18 1566.15 552.569L1569.13 552.173C1568.82 549.82 1568.54 547.424 1568.3 544.983L1565.31 545.28ZM1568.69 567.022C1569.23 569.442 1569.83 571.82 1570.49 574.156L1573.38 573.339C1572.73 571.06 1572.15 568.737 1571.62 566.368L1568.69 567.022ZM1575.41 588.049C1576.39 590.308 1577.45 592.528 1578.6 594.709L1581.25 593.312C1580.14 591.199 1579.11 589.047 1578.16 586.855L1575.41 588.049ZM1586.47 607.202C1587.92 609.152 1589.46 611.071 1591.1 612.962L1593.37 610.998C1591.78 609.163 1590.28 607.301 1588.88 605.411L1586.47 607.202ZM1601.48 623.41C1603.28 625.005 1605.17 626.58 1607.15 628.137L1609 625.78C1607.07 624.257 1605.23 622.719 1603.47 621.163L1601.48 623.41ZM1619.09 636.634C1620.12 637.295 1621.16 637.953 1622.22 638.608L1623.8 636.055C1622.75 635.41 1621.73 634.763 1620.72 634.113L1619.09 636.634ZM1622.22 638.608C1623.4 639.337 1624.58 640.032 1625.75 640.693L1627.23 638.08C1626.09 637.439 1624.95 636.764 1623.8 636.055L1622.22 638.608ZM1639.8 647.103C1642.36 647.988 1644.89 648.706 1647.39 649.263L1648.04 646.334C1645.66 645.803 1643.24 645.116 1640.78 644.268L1639.8 647.103ZM1662.88 650.678C1665.49 650.567 1668.07 650.277 1670.62 649.815L1670.09 646.863C1667.67 647.301 1665.23 647.576 1662.75 647.681L1662.88 650.678ZM1685.45 645.081C1687.8 643.999 1690.13 642.77 1692.42 641.403L1690.88 638.826C1688.68 640.142 1686.45 641.32 1684.2 642.356L1685.45 645.081ZM1705.01 632.303C1706.9 630.692 1708.77 628.989 1710.63 627.197L1708.54 625.04C1706.73 626.791 1704.91 628.451 1703.06 630.018L1705.01 632.303ZM1721.13 615.881C1722.77 613.937 1724.39 611.927 1726 609.854L1723.63 608.016C1722.05 610.059 1720.45 612.038 1718.84 613.948L1721.13 615.881ZM1734.98 597.423C1736.43 595.29 1737.86 593.108 1739.28 590.881L1736.75 589.266C1735.35 591.473 1733.93 593.632 1732.5 595.742L1734.98 597.423ZM1747.2 577.845C1748.47 575.644 1749.74 573.408 1751 571.14L1748.38 569.684C1747.12 571.937 1745.87 574.157 1744.6 576.342L1747.2 577.845ZM1758.23 557.623C1759.39 555.374 1760.54 553.1 1761.69 550.803L1759.01 549.461C1757.87 551.747 1756.72 554.01 1755.56 556.247L1758.23 557.623ZM1768.4 537.002C1769.49 534.715 1770.56 532.409 1771.64 530.088L1768.91 528.829C1767.84 531.143 1766.77 533.44 1765.69 535.718L1768.4 537.002ZM1777.96 516.119C1778.99 513.8 1780.02 511.469 1781.04 509.127L1778.29 507.927C1777.27 510.264 1776.25 512.589 1775.22 514.902L1777.96 516.119ZM1787.08 495.058C1788.08 492.715 1789.07 490.364 1790.05 488.007L1787.29 486.848C1786.3 489.202 1785.31 491.548 1784.32 493.887L1787.08 495.058ZM1795.91 473.879C1796.88 471.52 1797.85 469.158 1798.82 466.795L1796.04 465.661C1795.08 468.022 1794.11 470.382 1793.14 472.738L1795.91 473.879ZM1804.57 452.632C1805.53 450.267 1806.49 447.903 1807.44 445.542L1804.66 444.417C1803.71 446.778 1802.75 449.142 1801.79 451.506L1804.57 452.632ZM1813.18 431.365C1814.13 429.002 1815.09 426.644 1816.04 424.294L1813.27 423.164C1812.31 425.516 1811.35 427.875 1810.4 430.239L1813.18 431.365ZM1821.83 410.125C1822.8 407.771 1823.77 405.427 1824.74 403.095L1821.97 401.945C1821 404.28 1820.03 406.627 1819.06 408.984L1821.83 410.125ZM1830.66 388.97C1831.66 386.628 1832.66 384.302 1833.65 381.993L1830.9 380.804C1829.9 383.118 1828.9 385.45 1827.9 387.796L1830.66 388.97ZM1839.82 367.971C1840.86 365.642 1841.91 363.335 1842.95 361.053L1840.23 359.802C1839.18 362.092 1838.13 364.407 1837.08 366.744L1839.82 367.971ZM1849.47 347.241C1850.59 344.921 1851.72 342.633 1852.85 340.38L1850.17 339.033C1849.04 341.299 1847.9 343.599 1846.77 345.931L1849.47 347.241ZM1859.86 326.97C1861.12 324.658 1862.39 322.394 1863.65 320.182L1861.05 318.69C1859.77 320.922 1858.5 323.204 1857.23 325.534L1859.86 326.97ZM1871.54 307.219C1872.95 305.045 1874.36 302.941 1875.78 300.909L1873.33 299.189C1871.88 301.251 1870.45 303.386 1869.02 305.588L1871.54 307.219ZM1885.02 288.902C1886.69 286.946 1888.37 285.1 1890.06 283.369L1887.92 281.272C1886.18 283.055 1884.45 284.951 1882.74 286.952L1885.02 288.902ZM1901.46 273.609C1903.54 272.178 1905.64 270.93 1907.75 269.874L1906.41 267.191C1904.16 268.315 1901.95 269.635 1899.76 271.137L1901.46 273.609ZM1921.79 265.769C1924.21 265.562 1926.66 265.608 1929.14 265.92L1929.52 262.943C1926.82 262.605 1924.16 262.555 1921.54 262.78L1921.79 265.769ZM1943 270.314C1945.12 271.385 1947.28 272.65 1949.47 274.117L1951.14 271.625C1948.85 270.094 1946.59 268.766 1944.35 267.634L1943 270.314ZM1961.05 283.534C1962.01 284.445 1962.97 285.395 1963.94 286.382L1966.08 284.281C1965.09 283.27 1964.1 282.297 1963.12 281.361L1961.05 283.534ZM1963.94 286.382C1964.82 287.284 1965.69 288.164 1966.54 289.025L1968.68 286.913C1967.83 286.056 1966.96 285.179 1966.08 284.281L1963.94 286.382ZM1976.9 299.232C1978.75 301.011 1980.51 302.679 1982.18 304.247L1984.23 302.055C1982.57 300.497 1980.82 298.839 1978.98 297.07L1976.9 299.232ZM1993 314.043C1994.97 315.77 1996.79 317.344 1998.5 318.807L2000.45 316.528C1998.75 315.07 1996.93 313.504 1994.98 311.788L1993 314.043ZM2009.45 328.275C2011.25 329.916 2012.94 331.535 2014.59 333.249L2016.75 331.171C2015.05 329.397 2013.31 327.731 2011.47 326.055L2009.45 328.275ZM2023.63 344.301C2024.9 346.106 2026.23 348.081 2027.63 350.272L2030.16 348.654C2028.73 346.43 2027.38 344.417 2026.08 342.57L2023.63 344.301ZM2035.09 362.667C2036.22 364.643 2037.41 366.745 2038.66 368.984L2041.28 367.526C2040.03 365.276 2038.83 363.164 2037.69 361.175L2035.09 362.667ZM2045.58 381.694C2046.16 382.758 2046.74 383.846 2047.33 384.958L2049.98 383.547C2049.38 382.432 2048.8 381.342 2048.23 380.276L2045.58 381.694ZM2047.33 384.958C2047.9 386.024 2048.47 387.094 2049.04 388.168L2051.69 386.755C2051.12 385.681 2050.54 384.612 2049.98 383.547L2047.33 384.958ZM2055.98 401.103C2057.13 403.242 2058.29 405.394 2059.46 407.557L2062.1 406.132C2060.93 403.97 2059.77 401.819 2058.62 399.682L2055.98 401.103ZM2066.44 420.463C2067.61 422.603 2068.77 424.75 2069.95 426.904L2072.58 425.469C2071.41 423.317 2070.24 421.17 2069.08 419.031L2066.44 420.463ZM2076.97 439.784C2078.15 441.926 2079.32 444.071 2080.5 446.217L2083.13 444.775C2081.95 442.629 2080.78 440.485 2079.61 438.344L2076.97 439.784ZM2087.56 459.075C2088.74 461.219 2089.92 463.361 2091.1 465.501L2093.73 464.053C2092.55 461.914 2091.37 459.772 2090.19 457.628L2087.56 459.075ZM2098.19 478.341C2099.38 480.488 2100.56 482.628 2101.75 484.76L2104.37 483.306C2103.19 481.174 2102 479.035 2100.82 476.889L2098.19 478.341ZM2108.86 497.585C2110.06 499.735 2111.25 501.873 2112.43 503.999L2115.05 502.54C2113.87 500.415 2112.68 498.277 2111.48 496.128L2108.86 497.585ZM2119.57 516.807C2120.77 518.963 2121.96 521.101 2123.15 523.22L2125.77 521.756C2124.58 519.638 2123.39 517.5 2122.19 515.345L2119.57 516.807ZM2130.29 535.996C2131.51 538.164 2132.71 540.305 2133.89 542.416L2136.51 540.949C2135.32 538.838 2134.13 536.698 2132.91 534.53L2130.29 535.996ZM2141.07 555.207C2142.29 557.373 2143.49 559.499 2144.66 561.58L2147.27 560.109C2146.1 558.028 2144.91 555.903 2143.69 553.737L2141.07 555.207ZM2151.86 574.361C2153.1 576.562 2154.3 578.694 2155.46 580.753L2158.08 579.278C2156.91 577.22 2155.71 575.088 2154.47 572.887L2151.86 574.361ZM2162.67 593.501C2163.97 595.803 2165.19 597.953 2166.31 599.936L2168.92 598.457C2167.8 596.474 2166.58 594.325 2165.28 592.023L2162.67 593.501ZM2173.54 612.66C2174.12 613.69 2174.57 614.477 2174.87 615.008C2175.02 615.273 2175.14 615.474 2175.21 615.608C2175.25 615.676 2175.28 615.726 2175.3 615.76C2175.31 615.777 2175.32 615.79 2175.32 615.799C2175.32 615.803 2175.33 615.806 2175.33 615.808C2175.33 615.809 2175.33 615.81 2175.33 615.811C2175.33 615.811 2175.33 615.811 2175.33 615.811C2175.33 615.811 2175.33 615.811 2175.33 615.811C2175.33 615.811 2175.33 615.811 2175.33 615.811C2175.33 615.811 2175.33 615.811 2176.63 615.069C2177.94 614.326 2177.94 614.326 2177.94 614.326C2177.94 614.326 2177.94 614.326 2177.94 614.326C2177.94 614.326 2177.94 614.326 2177.94 614.326C2177.94 614.326 2177.94 614.326 2177.94 614.325C2177.94 614.325 2177.94 614.324 2177.93 614.323C2177.93 614.321 2177.93 614.318 2177.93 614.313C2177.92 614.305 2177.92 614.292 2177.91 614.275C2177.89 614.241 2177.86 614.191 2177.82 614.124C2177.74 613.989 2177.63 613.788 2177.48 613.523C2177.18 612.993 2176.73 612.206 2176.14 611.178L2173.54 612.66Z" fill="white"/>
</svg>
