<svg width="24" height="24" viewBox="0 0 24 24" fill="none" xmlns="http://www.w3.org/2000/svg">
<path d="M12.0557 0C12.0491 0.00643031 12.036 0.00643031 12.0164 0.00643031C5.38935 0.00643031 0 5.29858 0 11.806C0 14.4618 0.923328 17.0403 2.61282 19.1173L0.864392 23.1041C0.720327 23.432 0.877489 23.8114 1.20491 23.9465C1.32278 23.9979 1.45375 24.0108 1.57817 23.9915L7.98908 22.8855C9.27257 23.342 10.6215 23.5735 11.9836 23.5671C18.6106 23.5671 24 18.2749 24 11.7675C24.0131 5.27928 18.663 0.00643031 12.0557 0ZM11.9902 22.2875C10.7263 22.2875 9.47557 22.0624 8.29031 21.6251C8.17898 21.5801 8.06111 21.5737 7.94324 21.593L2.54734 22.5189L3.97489 19.2588C4.07312 19.0337 4.03383 18.7701 3.87012 18.5836C3.0974 17.7026 2.48185 16.6995 2.04966 15.6128C1.56507 14.3975 1.31623 13.105 1.31623 11.7996C1.31623 5.99948 6.12278 1.28606 12.0229 1.28606C17.9099 1.2732 22.6903 5.94804 22.6968 11.7289C22.6968 11.7417 22.6968 11.7546 22.6968 11.7675C22.6968 17.574 17.8903 22.2875 11.9902 22.2875Z" fill="white"/>
<path d="M11.4794 9.43326H7.94324C7.58308 9.43326 7.2884 9.72263 7.2884 10.0763C7.2884 10.43 7.58308 10.7193 7.94324 10.7193H11.4794C11.8396 10.7193 12.1342 10.43 12.1342 10.0763C12.1342 9.72263 11.8396 9.43326 11.4794 9.43326Z" fill="white"/>
<path d="M16.0633 12.6484H7.94324C7.58308 12.6484 7.2884 12.9378 7.2884 13.2914C7.2884 13.6451 7.58308 13.9345 7.94324 13.9345H16.0633C16.4235 13.9345 16.7181 13.6451 16.7181 13.2914C16.7181 12.9378 16.4235 12.6484 16.0633 12.6484Z" fill="white"/>
</svg>
