<svg width="343" height="21" viewBox="0 0 343 21" fill="none" xmlns="http://www.w3.org/2000/svg">
<path d="M0 0H3.61053V21H0V0Z" fill="#EDEDED"/>
<path d="M7.22105 0H10.8316V21H7.22105V0Z" fill="#EDEDED"/>
<path d="M14.4421 0H18.0526V21H14.4421V0Z" fill="#EDEDED"/>
<path d="M21.6632 0H25.2737V21H21.6632V0Z" fill="#EDEDED"/>
<path d="M28.8842 0H32.4947V21H28.8842V0Z" fill="#EDEDED"/>
<path d="M36.1053 0H39.7158V21H36.1053V0Z" fill="#EDEDED"/>
<path d="M43.3263 0H46.9368V21H43.3263V0Z" fill="#EDEDED"/>
<path d="M50.5474 0H54.1579V21H50.5474V0Z" fill="#EDEDED"/>
<path d="M57.7684 0H61.3789V21H57.7684V0Z" fill="#EDEDED"/>
<path d="M64.9895 0H68.6V21H64.9895V0Z" fill="#EDEDED"/>
<path d="M72.2105 0H75.8211V21H72.2105V0Z" fill="#EDEDED"/>
<path d="M79.4316 0H83.0421V21H79.4316V0Z" fill="#EDEDED"/>
<path d="M86.6526 0H90.2632V21H86.6526V0Z" fill="#EDEDED"/>
<path d="M93.8737 0H97.4842V21H93.8737V0Z" fill="#EDEDED"/>
<path d="M101.095 0H104.705V21H101.095V0Z" fill="#EDEDED"/>
<path d="M108.316 0H111.926V21H108.316V0Z" fill="#EDEDED"/>
<path d="M115.537 0H119.147V21H115.537V0Z" fill="#EDEDED"/>
<path d="M122.758 0H126.368V21H122.758V0Z" fill="#EDEDED"/>
<path d="M129.979 0H133.589V21H129.979V0Z" fill="#EDEDED"/>
<path d="M137.2 0H140.811V21H137.2V0Z" fill="#EDEDED"/>
<path d="M144.421 0H148.032V21H144.421V0Z" fill="#EDEDED"/>
<path d="M151.642 0H155.253V21H151.642V0Z" fill="#EDEDED"/>
<path d="M158.863 0H162.474V21H158.863V0Z" fill="#EDEDED"/>
<path d="M166.084 0H169.695V21H166.084V0Z" fill="#EDEDED"/>
<path d="M173.305 0H176.916V21H173.305V0Z" fill="#EDEDED"/>
<path d="M180.526 0H184.137V21H180.526V0Z" fill="#EDEDED"/>
<path d="M187.747 0H191.358V21H187.747V0Z" fill="#EDEDED"/>
<path d="M194.968 0H198.579V21H194.968V0Z" fill="#EDEDED"/>
<path d="M202.189 0H205.8V21H202.189V0Z" fill="#EDEDED"/>
<path d="M209.411 0H213.021V21H209.411V0Z" fill="#EDEDED"/>
<path d="M216.632 0H220.242V21H216.632V0Z" fill="#EDEDED"/>
<path d="M223.853 0H227.463V21H223.853V0Z" fill="#EDEDED"/>
<path d="M231.074 0H234.684V21H231.074V0Z" fill="#EDEDED"/>
<path d="M238.295 0H241.905V21H238.295V0Z" fill="#EDEDED"/>
<path d="M245.516 0H249.126V21H245.516V0Z" fill="#EDEDED"/>
<path d="M252.737 0H256.347V21H252.737V0Z" fill="#EDEDED"/>
<path d="M259.958 0H263.568V21H259.958V0Z" fill="#EDEDED"/>
<path d="M267.179 0H270.789V21H267.179V0Z" fill="#EDEDED"/>
<path d="M274.4 0H278.011V21H274.4V0Z" fill="#EDEDED"/>
<path d="M281.621 0H285.232V21H281.621V0Z" fill="#EDEDED"/>
<path d="M288.842 0H292.453V21H288.842V0Z" fill="#EDEDED"/>
<path d="M296.063 0H299.674V21H296.063V0Z" fill="#EDEDED"/>
<path d="M303.284 0H306.895V21H303.284V0Z" fill="#EDEDED"/>
<path d="M310.505 0H314.116V21H310.505V0Z" fill="#EDEDED"/>
<path d="M317.726 0H321.337V21H317.726V0Z" fill="#EDEDED"/>
<path d="M324.947 0H328.558V21H324.947V0Z" fill="#EDEDED"/>
<path d="M332.168 0H335.779V21H332.168V0Z" fill="#EDEDED"/>
<path d="M339.389 0H343V21H339.389V0Z" fill="#EDEDED"/>
</svg>
