<svg width="200" height="200" viewBox="0 0 200 200" fill="none" xmlns="http://www.w3.org/2000/svg">
<circle cx="100" cy="100" r="100" fill="url(#paint0_linear_93_3)"/>
<g clip-path="url(#clip0_93_3)">
<path d="M134 72.0999L122.612 129.514C122.612 129.514 121.02 133.495 116.64 131.584L90.243 111.381C93.791 108.191 121.316 83.4455 122.519 82.3233C124.38 80.5866 123.225 79.553 121.062 80.8665L80.4063 106.685L64.721 101.405C64.721 101.405 62.2516 100.529 62.0139 98.6176C61.7749 96.7065 64.8011 95.6715 64.8011 95.6715L128.745 70.5868C128.745 70.5868 134 68.2777 134 72.0999Z" fill="url(#paint1_linear_93_3)"/>
</g>
<defs>
<linearGradient id="paint0_linear_93_3" x1="100" y1="3.72529e-07" x2="100" y2="200" gradientUnits="userSpaceOnUse">
<stop stop-color="white"/>
<stop offset="1" stop-color="#F3F0F4"/>
</linearGradient>
<linearGradient id="paint1_linear_93_3" x1="73.7555" y1="74.9737" x2="114.234" y2="130.342" gradientUnits="userSpaceOnUse">
<stop stop-color="#C2C2C2" stop-opacity="0.5"/>
<stop offset="1" stop-color="#8C8C8C" stop-opacity="0.5"/>
</linearGradient>
<clipPath id="clip0_93_3">
<rect width="72" height="72" fill="white" transform="translate(62 65)"/>
</clipPath>
</defs>
</svg>
