<svg width="200" height="200" viewBox="0 0 200 200" fill="none" xmlns="http://www.w3.org/2000/svg">
<circle cx="100" cy="100" r="100" fill="url(#paint0_linear_93_5)"/>
<g clip-path="url(#clip0_93_5)">
<path d="M100 64.1494C80.1181 64.1494 64 80.2675 64 100.15C64 117.982 76.9788 132.749 93.9961 135.609V107.66H85.3118V97.6026H93.9961V90.1864C93.9961 81.5816 99.2517 76.8924 106.929 76.8924C110.606 76.8924 113.766 77.1664 114.683 77.2871V86.2815L109.358 86.284C105.184 86.284 104.379 88.2672 104.379 91.1785V97.5974H114.339L113.04 107.655H104.379V135.85C122.191 133.682 136 118.538 136 100.139C136 80.2675 119.882 64.1494 100 64.1494Z" fill="url(#paint1_linear_93_5)"/>
</g>
<defs>
<linearGradient id="paint0_linear_93_5" x1="100" y1="3.72529e-07" x2="100" y2="200" gradientUnits="userSpaceOnUse">
<stop stop-color="white"/>
<stop offset="1" stop-color="#F3F0F4"/>
</linearGradient>
<linearGradient id="paint1_linear_93_5" x1="75.7551" y1="70.0025" x2="124.009" y2="127.269" gradientUnits="userSpaceOnUse">
<stop stop-color="#C2C2C2" stop-opacity="0.5"/>
<stop offset="1" stop-color="#8C8C8C" stop-opacity="0.5"/>
</linearGradient>
<clipPath id="clip0_93_5">
<rect width="72" height="72" fill="white" transform="translate(64 64)"/>
</clipPath>
</defs>
</svg>
