<svg width="280" height="280" viewBox="0 0 280 280" fill="none" xmlns="http://www.w3.org/2000/svg">
<path d="M277.122 140C278.712 140 280.003 141.289 279.97 142.878C279.422 169.561 271.256 195.555 256.406 217.78C241.022 240.803 219.157 258.747 193.576 269.343C167.994 279.939 139.845 282.712 112.687 277.31C85.53 271.908 60.5844 258.574 41.005 238.995C21.4257 219.416 8.09197 194.47 2.69006 167.313C-2.71189 140.155 0.060603 112.006 10.6569 86.4243C21.2531 60.8427 39.1973 38.9776 62.2202 23.5942C84.4449 8.74418 110.439 0.577946 137.122 0.0295582C138.711 -0.00309565 140 1.28832 140 2.87754C140 4.46677 138.711 5.75187 137.122 5.78592C111.577 6.33344 86.6958 14.1618 65.4175 28.3794C43.3411 43.1304 26.1346 64.0966 15.9739 88.6267C5.8132 113.157 3.15469 140.149 8.33456 166.19C13.5144 192.231 26.3 216.151 45.0745 234.925C63.849 253.7 87.7691 266.486 113.81 271.665C139.851 276.845 166.843 274.187 191.373 264.026C215.903 253.865 236.87 236.659 251.621 214.582C265.838 193.304 273.667 168.423 274.214 142.878C274.248 141.289 275.533 140 277.122 140Z" fill="url(#paint0_linear_1_63)"/>
<defs>
<linearGradient id="paint0_linear_1_63" x1="-2.05837e-05" y1="280" x2="280.006" y2="0.00559937" gradientUnits="userSpaceOnUse">
<stop stop-color="#9733EE"/>
<stop offset="1" stop-color="#DA22FF"/>
</linearGradient>
</defs>
</svg>
