<svg width="200" height="200" viewBox="0 0 200 200" fill="none" xmlns="http://www.w3.org/2000/svg">
<circle cx="100" cy="100" r="100" fill="url(#paint0_linear_93_4)"/>
<g clip-path="url(#clip0_93_4)">
<path d="M120.929 78.3223C119.966 78.3223 119.181 79.1065 119.181 80.0702C119.181 81.0339 119.966 81.8182 120.929 81.8182C121.893 81.8182 122.677 81.0341 122.677 80.0702C122.677 79.1064 121.893 78.3223 120.929 78.3223Z" fill="url(#paint1_linear_93_4)"/>
<path d="M100 85.5039C91.4553 85.5039 84.5037 92.4556 84.5037 101C84.5037 109.545 91.4553 116.497 100 116.497C108.545 116.497 115.496 109.545 115.496 101C115.496 92.4557 108.545 85.5039 100 85.5039Z" fill="url(#paint2_linear_93_4)"/>
<path d="M116.262 65H83.7377C72.8543 65 64 73.8543 64 84.7378V117.262C64 128.146 72.8543 137 83.7377 137H116.262C127.146 137 136 128.146 136 117.262V84.7378C136 73.8543 127.146 65 116.262 65ZM100 120.748C89.1107 120.748 80.2519 111.889 80.2519 101C80.2519 90.1107 89.1108 81.252 100 81.252C110.889 81.252 119.748 90.1108 119.748 101C119.748 111.889 110.889 120.748 100 120.748ZM120.929 86.0707C117.621 86.0707 114.929 83.3791 114.929 80.0708C114.929 76.7624 117.621 74.0707 120.929 74.0707C124.238 74.0707 126.929 76.7623 126.929 80.0706C126.929 83.379 124.238 86.0707 120.929 86.0707Z" fill="url(#paint3_linear_93_4)"/>
</g>
<defs>
<linearGradient id="paint0_linear_93_4" x1="100" y1="3.72529e-07" x2="100" y2="200" gradientUnits="userSpaceOnUse">
<stop stop-color="white"/>
<stop offset="1" stop-color="#F3F0F4"/>
</linearGradient>
<linearGradient id="paint1_linear_93_4" x1="119.752" y1="78.6076" x2="122.107" y2="81.3901" gradientUnits="userSpaceOnUse">
<stop stop-color="#C2C2C2" stop-opacity="0.5"/>
<stop offset="1" stop-color="#8C8C8C" stop-opacity="0.5"/>
</linearGradient>
<linearGradient id="paint2_linear_93_4" x1="89.5637" y1="88.0339" x2="110.436" y2="112.702" gradientUnits="userSpaceOnUse">
<stop stop-color="#C2C2C2" stop-opacity="0.5"/>
<stop offset="1" stop-color="#8C8C8C" stop-opacity="0.5"/>
</linearGradient>
<linearGradient id="paint3_linear_93_4" x1="75.7551" y1="70.8776" x2="124.245" y2="128.184" gradientUnits="userSpaceOnUse">
<stop stop-color="#C2C2C2" stop-opacity="0.5"/>
<stop offset="1" stop-color="#8C8C8C" stop-opacity="0.5"/>
</linearGradient>
<clipPath id="clip0_93_4">
<rect width="72" height="72" fill="white" transform="translate(64 65)"/>
</clipPath>
</defs>
</svg>
