<svg width="130" height="47" viewBox="0 0 130 47" fill="none" xmlns="http://www.w3.org/2000/svg">
<path d="M58.4827 36.4385V36.5554H53.3467L47.2142 26.5022H43.2664V36.5554H38.7437V10.0586H48.9773C50.6637 10.0586 52.1842 10.4223 53.5384 11.1497C54.8925 11.8511 55.9404 12.8382 56.6813 14.1111C57.4478 15.358 57.8311 16.7608 57.8311 18.3194C57.8311 20.1638 57.2945 21.7744 56.2213 23.1511C55.1482 24.502 53.679 25.4501 51.8136 25.9956L58.4827 36.4385ZM48.5174 22.6836C49.9995 22.6836 51.162 22.3069 52.0052 21.5535C52.8485 20.7742 53.2701 19.7222 53.2701 18.3973C53.2701 17.1244 52.8358 16.0854 51.9669 15.2801C51.098 14.4488 49.9738 14.0331 48.594 14.0331H43.2664V22.6836H48.5174ZM69.0767 18.709C71.4784 18.709 73.3695 19.4754 74.7493 21.008C76.1544 22.5407 76.8574 24.6189 76.8574 27.2426C76.8574 27.6582 76.806 28.3336 76.704 29.2688H64.439C64.6943 30.6456 65.3075 31.7106 66.2788 32.464C67.2753 33.1914 68.4761 33.555 69.8816 33.555C70.8268 33.555 71.6574 33.4251 72.373 33.1654C73.1138 32.8796 73.7911 32.464 74.4044 31.9185L76.1674 34.6461C75.1709 35.4514 74.1361 36.0618 73.0629 36.4775C71.9897 36.8671 70.8015 37.0619 69.4983 37.0619C67.6839 37.0619 66.0741 36.6723 64.669 35.893C63.2892 35.1136 62.2029 34.0226 61.4111 32.6198C60.6445 31.2171 60.2612 29.6195 60.2612 27.827C60.2612 26.1385 60.6315 24.6059 61.3727 23.2291C62.1393 21.8263 63.1868 20.7223 64.5157 19.917C65.8698 19.1117 67.3903 18.709 69.0767 18.709ZM69.0001 22.177C67.8502 22.177 66.8663 22.5537 66.0488 23.307C65.2309 24.0344 64.6943 25.0605 64.439 26.3853H72.9095C72.8582 25.0345 72.4749 23.9954 71.7597 23.268C71.0441 22.5407 70.1242 22.177 69.0001 22.177ZM96.1045 19.1766V19.2935L87.9789 36.7112H86.1775L78.0902 19.2935V19.1766H82.6896L86.0241 26.9698C86.4841 28.0348 86.8417 29.1259 87.0973 30.2429C87.4292 28.9441 87.7872 27.853 88.1705 26.9698L91.5051 19.1766H96.1045ZM106.065 37.0619C104.302 37.0619 102.718 36.6723 101.313 35.893C99.9329 35.1136 98.8471 34.0226 98.0549 32.6198C97.2883 31.2171 96.905 29.6324 96.905 27.866C96.905 26.0996 97.2883 24.5279 98.0549 23.1511C98.8471 21.7484 99.9329 20.6573 101.313 19.878C102.718 19.0987 104.302 18.709 106.065 18.709C107.829 18.709 109.413 19.0987 110.818 19.878C112.224 20.6573 113.31 21.7484 114.076 23.1511C114.868 24.5279 115.264 26.0996 115.264 27.866C115.264 29.6324 114.868 31.2171 114.076 32.6198C113.31 34.0226 112.224 35.1136 110.818 35.893C109.413 36.6723 107.829 37.0619 106.065 37.0619ZM106.065 33.2823C107.548 33.2823 108.736 32.7887 109.63 31.8016C110.55 30.7884 111.01 29.4766 111.01 27.866C111.01 26.2554 110.55 24.9565 109.63 23.9694C108.736 22.9563 107.548 22.4498 106.065 22.4498C104.609 22.4498 103.421 22.9563 102.501 23.9694C101.581 24.9825 101.121 26.2814 101.121 27.866C101.121 29.4506 101.581 30.7495 102.501 31.7626C103.421 32.7757 104.609 33.2823 106.065 33.2823ZM119.089 8.5H123.267L123.305 36.5554H119.089V8.5Z" fill="#272727"/>
<path d="M5.9928 12.1853C2.68435 12.1853 0 9.4574 0 6.09249C0 2.72761 2.68435 0 5.9928 0C9.30231 0 11.9856 2.72796 11.9856 6.09249C11.9856 9.45704 14.6693 12.1853 17.9788 12.1853C21.2883 12.1853 23.9716 9.4574 23.9716 6.09285C23.9716 2.72831 26.6553 0 29.9648 0C33.2743 0 35.9576 2.72796 35.9576 6.09249C35.9576 9.45704 33.2743 12.185 29.9648 12.185C20.0342 12.185 11.986 20.3706 11.986 30.4625C11.986 33.8253 9.30267 36.555 5.99316 36.555C2.68367 36.555 0 33.8277 0 30.4632C0 27.0986 2.68333 24.3703 5.9928 24.3703C9.30231 24.3703 11.9849 21.6424 11.9849 18.2779C11.9849 14.9133 9.30267 12.1853 5.9928 12.1853Z" fill="url(#paint0_linear_1_467)"/>
<path d="M19.3618 26.7134C19.3618 22.8288 22.4571 19.6836 26.2769 19.6836C30.0969 19.6838 33.1916 22.8288 33.1916 26.7134C33.1916 30.5962 30.0969 33.7434 26.2765 33.7434C22.4566 33.7434 19.3618 30.5962 19.3618 26.7134Z" fill="url(#paint1_linear_1_467)"/>
<defs>
<linearGradient id="paint0_linear_1_467" x1="28.2523" y1="28.7222" x2="-0.466035" y2="0.473787" gradientUnits="userSpaceOnUse">
<stop stop-color="#9733EE"/>
<stop offset="1" stop-color="#DA22FF"/>
</linearGradient>
<linearGradient id="paint1_linear_1_467" x1="33.1916" y1="33.7434" x2="19.134" y2="19.9152" gradientUnits="userSpaceOnUse">
<stop stop-color="#9733EE"/>
<stop offset="1" stop-color="#DA22FF"/>
</linearGradient>
</defs>
</svg>
