<svg width="76" height="76" viewBox="0 0 76 76" fill="none" xmlns="http://www.w3.org/2000/svg">
<rect width="76" height="76" rx="19" fill="url(#paint0_linear_64_11)"/>
<path d="M41.3693 29.2917L41.8916 30.1445L41.3693 29.2917ZM43.8156 27.7935L44.3379 28.6462L43.8156 27.7935ZM43.8156 44.9744L43.2933 45.8272L43.8156 44.9744ZM41.3693 43.4762L40.847 44.329H40.847L41.3693 43.4762ZM40.2522 42.8534L40.6268 41.9262L40.6268 41.9262L40.2522 42.8534ZM39.44 42.6251L39.6035 41.6386L39.6035 41.6386L39.44 42.6251ZM39.44 30.1428L39.2765 29.1563H39.2765L39.44 30.1428ZM40.2522 29.9146L40.6268 30.8418L40.6268 30.8418L40.2522 29.9146ZM26.0971 38.5877L27.0771 38.3888L26.0971 38.5877ZM30.0669 42.4779L29.8756 43.4595H29.8756L30.0669 42.4779ZM49.5018 45.7716L48.7048 45.1676L48.7048 45.1676L49.5018 45.7716ZM47.6761 46.7632L47.7547 47.7601H47.7547L47.6761 46.7632ZM49.5018 26.9963L48.7048 27.6003V27.6003L49.5018 26.9963ZM47.6761 26.0047L47.7547 25.0078H47.7547L47.6761 26.0047ZM26.0971 34.1802L27.0771 34.3791L26.0971 34.1802ZM30.0669 30.29L30.2582 31.2715H30.2582L30.0669 30.29ZM31.0526 42.5731V41.5731H30.0526V42.5731H31.0526ZM36.1053 42.5731H37.1053V41.5731H36.1053V42.5731ZM49 31.1524V41.6155H51V31.1524H49ZM32.3158 31.1948H38.1558V29.1948H32.3158V31.1948ZM41.8916 30.1445L44.3379 28.6462L43.2933 26.9407L40.847 28.439L41.8916 30.1445ZM44.3379 44.1217L41.8916 42.6234L40.847 44.329L43.2933 45.8272L44.3379 44.1217ZM38.1558 41.5731H32.3158V43.5731H38.1558V41.5731ZM38.8947 30.5V42.5H40.8947V30.5H38.8947ZM41.8916 42.6234C41.3703 42.3042 41.0156 42.0832 40.6268 41.9262L39.8776 43.7806C40.0773 43.8612 40.2712 43.9763 40.847 44.329L41.8916 42.6234ZM38.1558 43.5731C38.8347 43.5731 39.0625 43.5762 39.2765 43.6116L39.6035 41.6386C39.1899 41.57 38.7708 41.5731 38.1558 41.5731V43.5731ZM40.6268 41.9262C40.2975 41.7931 39.9543 41.6967 39.6035 41.6386L39.2765 43.6116C39.4829 43.6458 39.6846 43.7026 39.8777 43.7806L40.6268 41.9262ZM38.1558 31.1948C38.7708 31.1948 39.1899 31.1979 39.6035 31.1294L39.2765 29.1563C39.0625 29.1918 38.8347 29.1948 38.1558 29.1948V31.1948ZM40.847 28.439C40.2712 28.7917 40.0773 28.9067 39.8776 28.9874L40.6268 30.8418C41.0156 30.6847 41.3703 30.4637 41.8916 30.1445L40.847 28.439ZM39.6035 31.1294C39.9543 31.0712 40.2975 30.9748 40.6268 30.8418L39.8776 28.9874C39.6846 29.0654 39.4829 29.1221 39.2765 29.1563L39.6035 31.1294ZM25 36.384C25 37.4854 24.995 38.1851 25.1171 38.7867L27.0771 38.3888C27.005 38.0338 27 37.5831 27 36.384H25ZM32.3158 41.5731C31.0949 41.5731 30.6276 41.5684 30.2582 41.4964L29.8756 43.4595C30.4823 43.5777 31.1889 43.5731 32.3158 43.5731V41.5731ZM25.1171 38.7867C25.5982 41.1569 27.4842 42.9933 29.8756 43.4595L30.2582 41.4964C28.641 41.1812 27.3933 39.9468 27.0771 38.3888L25.1171 38.7867ZM49 41.6155C49 42.802 48.999 43.6209 48.9421 44.2286C48.8846 44.8429 48.781 45.0671 48.7048 45.1676L50.2988 46.3756C50.7208 45.8188 50.8663 45.1312 50.9334 44.4149C51.001 43.692 51 42.7616 51 41.6155H49ZM43.2933 45.8272C44.2858 46.4351 45.0883 46.9277 45.7474 47.2535C46.4003 47.5762 47.0619 47.8147 47.7547 47.7601L47.5976 45.7663C47.4575 45.7773 47.1981 45.7396 46.6335 45.4605C46.0752 45.1846 45.3638 44.75 44.3379 44.1217L43.2933 45.8272ZM48.7048 45.1676C48.4456 45.5097 48.0432 45.7312 47.5976 45.7663L47.7547 47.7601C48.761 47.6808 49.6896 47.1794 50.2988 46.3756L48.7048 45.1676ZM51 31.1524C51 30.0064 51.001 29.076 50.9334 28.353C50.8663 27.6367 50.7208 26.9491 50.2988 26.3923L48.7048 27.6003C48.781 27.7008 48.8846 27.925 48.9421 28.5394C48.999 29.147 49 29.966 49 31.1524H51ZM44.3379 28.6462C45.3638 28.0179 46.0752 27.5834 46.6335 27.3074C47.1981 27.0284 47.4575 26.9906 47.5976 27.0016L47.7547 25.0078C47.0619 24.9532 46.4003 25.1917 45.7474 25.5144C45.0883 25.8402 44.2859 26.3328 43.2933 26.9407L44.3379 28.6462ZM50.2988 26.3923C49.6896 25.5885 48.761 25.0871 47.7547 25.0078L47.5976 27.0016C48.0432 27.0367 48.4456 27.2582 48.7048 27.6003L50.2988 26.3923ZM27 36.384C27 35.1848 27.005 34.7341 27.0771 34.3791L25.1171 33.9813C24.995 34.5828 25 35.2825 25 36.384H27ZM32.3158 29.1948C31.1889 29.1948 30.4823 29.1902 29.8756 29.3085L30.2582 31.2715C30.6276 31.1995 31.0949 31.1948 32.3158 31.1948V29.1948ZM27.0771 34.3791C27.3933 32.8211 28.641 31.5868 30.2582 31.2715L29.8756 29.3085C27.4842 29.7746 25.5982 31.611 25.1171 33.9813L27.0771 34.3791ZM31.0526 43.5731H36.1053V41.5731H31.0526V43.5731ZM35.1053 42.5731V48.7622H37.1053V42.5731H35.1053ZM34.8421 49H34.2105V51H34.8421V49ZM32.0526 46.9054V42.5731H30.0526V46.9054H32.0526ZM34.2105 49C32.9996 49 32.0526 48.0432 32.0526 46.9054H30.0526C30.0526 49.1858 31.9334 51 34.2105 51V49ZM35.1053 48.7622C35.1053 48.8745 35.0066 49 34.8421 49V51C36.0728 51 37.1053 50.0171 37.1053 48.7622H35.1053Z" fill="url(#paint1_linear_64_11)"/>
<defs>
<linearGradient id="paint0_linear_64_11" x1="12.4082" y1="6.20408" x2="63.5918" y2="66.6939" gradientUnits="userSpaceOnUse">
<stop stop-color="#C2C2C2" stop-opacity="0.5"/>
<stop offset="1" stop-color="#8C8C8C" stop-opacity="0.5"/>
</linearGradient>
<linearGradient id="paint1_linear_64_11" x1="33.4703" y1="29.08" x2="43.4833" y2="52.7656" gradientUnits="userSpaceOnUse">
<stop stop-color="white"/>
<stop offset="1" stop-color="#E5E0E8"/>
</linearGradient>
</defs>
</svg>
