<svg width="76" height="76" viewBox="0 0 76 76" fill="none" xmlns="http://www.w3.org/2000/svg">
<rect width="76" height="76" rx="19" fill="url(#paint0_linear_64_12)"/>
<path d="M36.7816 37.27L35.7817 37.2837V37.2837L36.7816 37.27ZM36.8015 38.7243L37.8014 38.7106V38.7106L36.8015 38.7243ZM38.2757 40.1985L38.2894 39.1986H38.2894L38.2757 40.1985ZM39.73 40.2184L39.7163 41.2183H39.7163L39.73 40.2184ZM45.2773 27.4948L45.9844 28.2019L45.9844 28.2019L45.2773 27.4948ZM44.9916 27.7805L44.2845 27.0733L44.2845 27.0733L44.9916 27.7805ZM37.657 35.1151L38.3641 35.8222L37.657 35.1151ZM41.8849 39.343L41.1778 38.6359L41.8849 39.343ZM49.5052 31.7227L50.2123 32.4298L50.2123 32.4298L49.5052 31.7227ZM49.5052 27.4948L48.7981 28.2019L49.5052 27.4948ZM40.9441 40.1173L41.3205 41.0437L41.3205 41.0437L40.9441 40.1173ZM37.0303 39.9697L36.3232 40.6768L37.0303 39.9697ZM32.9294 49.7274L32.6706 50.6933L32.9294 49.7274ZM27.2726 44.0706L28.2385 43.8117L27.2726 44.0706ZM49.3333 39.3333C49.3333 38.781 48.8856 38.3333 48.3333 38.3333C47.781 38.3333 47.3333 38.781 47.3333 39.3333H49.3333ZM48.0607 44.0706L49.0267 44.3294L48.0607 44.0706ZM42.4039 49.7274L42.6627 50.6933H42.6627L42.4039 49.7274ZM37.6667 29.6667C38.219 29.6667 38.6667 29.219 38.6667 28.6667C38.6667 28.1144 38.219 27.6667 37.6667 27.6667V29.6667ZM32.9294 28.9393L33.1883 29.9052L32.9294 28.9393ZM27.2726 34.5961L28.2385 34.8549L27.2726 34.5961ZM35.7817 37.2837L35.8016 38.738L37.8014 38.7106L37.7815 37.2563L35.7817 37.2837ZM38.262 41.1984L39.7163 41.2183L39.7437 39.2185L38.2894 39.1986L38.262 41.1984ZM44.5702 26.7877L44.2845 27.0733L45.6987 28.4876L45.9844 28.2019L44.5702 26.7877ZM44.2845 27.0733L36.9498 34.408L38.3641 35.8222L45.6987 28.4876L44.2845 27.0733ZM42.592 40.0501L49.9266 32.7155L48.5124 31.3013L41.1778 38.6359L42.592 40.0501ZM49.9266 32.7155L50.2123 32.4298L48.7981 31.0156L48.5124 31.3013L49.9266 32.7155ZM44.2845 28.4876L48.5124 32.7155L49.9266 31.3013L45.6987 27.0733L44.2845 28.4876ZM48.7981 28.2019C49.3164 28.7202 49.6324 29.0392 49.8313 29.2999C50.0125 29.5374 50 29.6057 50 29.6088H52C52 28.9926 51.7383 28.5022 51.4213 28.0867C51.1219 27.6943 50.6906 27.266 50.2123 26.7877L48.7981 28.2019ZM50.2123 32.4298C50.6906 31.9516 51.1219 31.5232 51.4213 31.1308C51.7383 30.7153 52 30.2249 52 29.6088H50C50 29.6118 50.0125 29.6801 49.8313 29.9176C49.6324 30.1783 49.3164 30.4974 48.7981 31.0156L50.2123 32.4298ZM39.7163 41.2183C40.2555 41.2257 40.8088 41.2516 41.3205 41.0437L40.5678 39.1908C40.5186 39.2108 40.4494 39.2282 39.7437 39.2185L39.7163 41.2183ZM41.1778 38.6359C40.6786 39.1351 40.617 39.1708 40.5678 39.1908L41.3205 41.0437C41.8321 40.8359 42.2107 40.4315 42.592 40.0501L41.1778 38.6359ZM35.8016 38.738C35.8059 39.0537 35.8085 39.3899 35.8496 39.6695C35.8949 39.9779 36.0038 40.3574 36.3232 40.6768L37.7374 39.2626C37.8421 39.3673 37.8414 39.4677 37.8283 39.3788C37.8213 39.3309 37.8149 39.2575 37.8103 39.1399C37.8058 39.0228 37.8038 38.8861 37.8014 38.7106L35.8016 38.738ZM38.2894 39.1986C38.1139 39.1962 37.9772 39.1942 37.8601 39.1897C37.7425 39.1851 37.6691 39.1787 37.6212 39.1717C37.5323 39.1586 37.6327 39.1579 37.7374 39.2626L36.3232 40.6768C36.6426 40.9962 37.0221 41.1051 37.3305 41.1504C37.6102 41.1915 37.9463 41.194 38.262 41.1984L38.2894 39.1986ZM37.7815 37.2563C37.7718 36.5505 37.7892 36.4814 37.8092 36.4322L35.9562 35.6795C35.7484 36.1912 35.7743 36.7446 35.7817 37.2837L37.7815 37.2563ZM36.9498 34.408C36.5685 34.7894 36.1641 35.1679 35.9562 35.6795L37.8092 36.4322C37.8292 36.3831 37.865 36.3213 38.3641 35.8222L36.9498 34.408ZM50.2123 26.7877C49.734 26.3094 49.3057 25.8781 48.9133 25.5787C48.4978 25.2617 48.0074 25 47.3912 25V27C47.3943 27 47.4626 26.9875 47.7001 27.1687C47.9608 27.3676 48.2798 27.6836 48.7981 28.2019L50.2123 26.7877ZM45.9844 28.2019C46.5026 27.6836 46.8217 27.3676 47.0824 27.1687C47.3199 26.9875 47.3882 27 47.3912 27V25C46.7751 25 46.2847 25.2617 45.8692 25.5787C45.4768 25.8781 45.0485 26.3094 44.5702 26.7877L45.9844 28.2019ZM37.6667 49C35.1224 49 34.0464 48.9914 33.1883 48.7615L32.6706 50.6933C33.8472 51.0086 35.2511 51 37.6667 51V49ZM26 39.3333C26 41.7489 25.9914 43.1528 26.3067 44.3294L28.2385 43.8117C28.0086 42.9536 28 41.8776 28 39.3333H26ZM33.1883 48.7615C30.7726 48.1142 28.8858 46.2274 28.2385 43.8117L26.3067 44.3294C27.1389 47.4352 29.5648 49.8611 32.6706 50.6933L33.1883 48.7615ZM47.3333 39.3333C47.3333 41.8776 47.3247 42.9536 47.0948 43.8117L49.0267 44.3294C49.3419 43.1528 49.3333 41.7489 49.3333 39.3333H47.3333ZM37.6667 51C40.0822 51 41.4861 51.0086 42.6627 50.6933L42.1451 48.7615C41.287 48.9914 40.211 49 37.6667 49V51ZM47.0948 43.8117C46.4475 46.2274 44.5607 48.1142 42.1451 48.7615L42.6627 50.6933C45.7685 49.8611 48.1945 47.4352 49.0267 44.3294L47.0948 43.8117ZM37.6667 27.6667C35.2511 27.6667 33.8472 27.6581 32.6706 27.9733L33.1883 29.9052C34.0464 29.6753 35.1224 29.6667 37.6667 29.6667V27.6667ZM28 39.3333C28 36.789 28.0086 35.713 28.2385 34.8549L26.3067 34.3373C25.9914 35.5138 26 36.9178 26 39.3333H28ZM32.6706 27.9733C29.5648 28.8055 27.1389 31.2315 26.3067 34.3373L28.2385 34.8549C28.8858 32.4393 30.7726 30.5525 33.1883 29.9052L32.6706 27.9733Z" fill="url(#paint1_linear_64_12)"/>
<defs>
<linearGradient id="paint0_linear_64_12" x1="12.4082" y1="6.20408" x2="63.5918" y2="66.6939" gradientUnits="userSpaceOnUse">
<stop stop-color="#C2C2C2" stop-opacity="0.5"/>
<stop offset="1" stop-color="#8C8C8C" stop-opacity="0.5"/>
</linearGradient>
<linearGradient id="paint1_linear_64_12" x1="34.4703" y1="29.08" x2="44.4833" y2="52.7656" gradientUnits="userSpaceOnUse">
<stop stop-color="white"/>
<stop offset="1" stop-color="#E5E0E8"/>
</linearGradient>
</defs>
</svg>
