<svg width="70" height="70" viewBox="0 0 70 70" fill="none" xmlns="http://www.w3.org/2000/svg">
<ellipse cx="27.7453" cy="10.5915" rx="3.74921" ry="3.59146" fill="#BC6C25"/>
<ellipse cx="39.7426" cy="10.5915" rx="3.74921" ry="3.59146" fill="#BC6C25"/>
<path d="M16.5275 17.0273C17.3331 16.2556 18.6252 16.2865 19.4597 17.0269C22.02 19.2983 27.6939 23.5207 34.4937 23.5207C41.2935 23.5207 46.9674 19.2983 49.5277 17.0269C50.3622 16.2865 51.6543 16.2556 52.4598 17.0273V17.0273C53.288 17.8207 53.2695 19.1372 52.3741 19.8539C49.1365 22.445 41.5577 27.8305 34.4937 27.8305C27.4296 27.8305 19.8509 22.445 16.6133 19.8539C15.7179 19.1372 15.6993 17.8207 16.5275 17.0273V17.0273Z" fill="#BC6C25"/>
<ellipse rx="3.6318" ry="3.71014" transform="matrix(-0.517876 -0.855456 0.874175 -0.485611 16.4091 53.635)" fill="#BC6C25"/>
<ellipse rx="3.6318" ry="3.71014" transform="matrix(-0.517876 -0.855456 0.874175 -0.485611 10.3906 43.6931)" fill="#BC6C25"/>
<path d="M27.98 59.7356C26.8302 59.4427 26.1511 58.2562 26.4073 57.1422C27.1685 53.8325 28.0659 47.1174 24.6995 41.5566C21.3331 35.9958 14.8031 33.4066 11.4262 32.3956C10.2896 32.0553 9.55192 30.9014 9.85764 29.8V29.8C10.1452 28.7639 11.2428 28.1723 12.2974 28.5372C16.2035 29.8888 25.0113 33.4806 28.5915 39.3946C32.1717 45.3085 31.0514 54.4154 30.3359 58.3343C30.1428 59.3924 29.0617 60.0111 27.98 59.7356V59.7356Z" fill="#BC6C25"/>
<ellipse rx="3.62417" ry="3.7176" transform="matrix(-0.467052 0.88423 -0.899871 -0.436156 59.9004 41.9176)" fill="#BC6C25"/>
<ellipse rx="3.62417" ry="3.7176" transform="matrix(-0.467052 0.88423 -0.899871 -0.436156 54.4839 52.1723)" fill="#BC6C25"/>
<path d="M58.925 29.292C59.2968 30.3777 58.6253 31.5768 57.5079 31.9801C54.1944 33.176 47.8376 36.1177 44.8105 41.8486C41.7834 47.5796 43.0746 54.2282 44.0314 57.4939C44.3541 58.5952 43.7434 59.8238 42.61 60.1799V60.1799C41.5498 60.5131 40.4399 59.9576 40.1846 58.9147C39.2371 55.0455 37.5719 46.0069 40.796 39.9029C44.0202 33.7989 52.6088 29.7302 56.4242 28.1695C57.4526 27.7488 58.5773 28.2764 58.925 29.292V29.292Z" fill="#BC6C25"/>
</svg>
