<svg width="24" height="25" viewBox="0 0 24 25" fill="none" xmlns="http://www.w3.org/2000/svg">
<path d="M7.88172 18.04C7.74773 18.0408 7.61495 18.0146 7.49127 17.9631C7.36758 17.9116 7.25552 17.8357 7.16172 17.74C5.8399 16.2913 5.12407 14.3908 5.16172 12.43C5.12202 10.4689 5.83812 8.56764 7.16172 7.12001C7.35063 6.95309 7.59562 6.86368 7.84764 6.86967C8.09965 6.87566 8.34011 6.97661 8.52088 7.15232C8.70164 7.32803 8.80938 7.56553 8.82251 7.81727C8.83565 8.06902 8.75322 8.31644 8.59172 8.51001C7.61783 9.58023 7.09167 10.9833 7.12172 12.43C7.09322 13.8735 7.61935 15.2729 8.59172 16.34C8.77798 16.5274 8.88252 16.7808 8.88252 17.045C8.88252 17.3092 8.77798 17.5626 8.59172 17.75C8.50041 17.8455 8.38998 17.9207 8.26765 17.9707C8.14531 18.0207 8.01381 18.0443 7.88172 18.04Z" fill="#4855DC"/>
<path d="M4.92199 21.11C4.78969 21.1094 4.6588 21.0826 4.53693 21.0311C4.41505 20.9797 4.30461 20.9045 4.21199 20.81C2.09851 18.5369 0.947977 15.5333 1.00199 12.43C0.945376 9.3232 2.09609 6.31558 4.21199 4.03999C4.30461 3.9455 4.41505 3.87033 4.53693 3.81884C4.6588 3.76734 4.78969 3.74054 4.92199 3.73999C5.18433 3.74109 5.43573 3.84525 5.62199 4.02999C5.81041 4.21462 5.91824 4.46622 5.922 4.72999C5.9262 4.99437 5.82552 5.24965 5.64199 5.43999C3.88945 7.34386 2.94316 9.85297 3.00199 12.44C2.94316 15.027 3.88945 17.5361 5.64199 19.44C5.82825 19.6274 5.93279 19.8808 5.93279 20.145C5.93279 20.4092 5.82825 20.6626 5.64199 20.85C5.54494 20.9385 5.4314 21.007 5.30786 21.0516C5.18432 21.0962 5.0532 21.1161 4.92199 21.11ZM16.122 18.04C15.9933 18.0415 15.8656 18.0165 15.7469 17.9666C15.6282 17.9167 15.521 17.843 15.432 17.75C15.2457 17.5626 15.1412 17.3092 15.1412 17.045C15.1412 16.7808 15.2457 16.5274 15.432 16.34C16.4044 15.2728 16.9305 13.8734 16.902 12.43C16.932 10.9833 16.4059 9.58021 15.432 8.50999C15.2457 8.32263 15.1412 8.06918 15.1412 7.80499C15.1412 7.54081 15.2457 7.28735 15.432 7.09999C15.521 7.00698 15.6282 6.93324 15.7469 6.88335C15.8656 6.83347 15.9933 6.8085 16.122 6.80999C16.2567 6.8105 16.3899 6.83823 16.5136 6.8915C16.6374 6.94477 16.7491 7.02249 16.842 7.11999C18.1656 8.56762 18.8817 10.4689 18.842 12.43C18.8796 14.3908 18.1638 16.2913 16.842 17.74C16.7482 17.8357 16.6361 17.9116 16.5125 17.9631C16.3888 18.0146 16.256 18.0408 16.122 18.04Z" fill="#4855DC"/>
<path d="M19.0801 21.11C18.8827 21.1111 18.6893 21.0538 18.5244 20.9453C18.3595 20.8367 18.2304 20.6818 18.1534 20.5C18.0764 20.3182 18.0549 20.1177 18.0917 19.9237C18.1285 19.7297 18.2219 19.551 18.3601 19.41C20.1126 17.5061 21.0589 14.997 21.0001 12.41C21.0589 9.82294 20.1126 7.31383 18.3601 5.40996C18.1766 5.21962 18.0759 4.96434 18.0801 4.69996C18.0839 4.43619 18.1917 4.18459 18.3801 3.99996C18.5664 3.81522 18.8178 3.71107 19.0801 3.70996C19.2131 3.71181 19.3444 3.74018 19.4663 3.79341C19.5882 3.84664 19.6983 3.92366 19.7901 4.01996C21.9109 6.30055 23.0619 9.3163 23.0001 12.43C23.0541 15.5333 21.9036 18.5369 19.7901 20.81C19.6975 20.9044 19.587 20.9796 19.4652 21.0311C19.3433 21.0826 19.2124 21.1094 19.0801 21.11Z" fill="#4855DC"/>
<path d="M12 15.1699C13.3807 15.1699 14.5 14.0506 14.5 12.6699C14.5 11.2892 13.3807 10.1699 12 10.1699C10.6193 10.1699 9.5 11.2892 9.5 12.6699C9.5 14.0506 10.6193 15.1699 12 15.1699Z" fill="#4855DC"/>
</svg>
