<svg width="25" height="25" viewBox="0 0 25 25" fill="none" xmlns="http://www.w3.org/2000/svg">
<g id="reddit-svgrepo-com 1">
<path id="Vector" d="M12.5 1.75488C6.70859 1.75488 2 6.46347 2 12.2549C2 18.0463 6.70859 22.7549 12.5 22.7549C18.2914 22.7549 23 18.0463 23 12.2549C23 6.46347 18.2914 1.75488 12.5 1.75488Z" fill="#FC471E"/>
<path id="Vector_2" fill-rule="evenodd" clip-rule="evenodd" d="M15.5145 6.93702C15.505 6.99726 15.5 7.05908 15.5 7.12208C15.5 7.75811 16.0037 8.27373 16.625 8.27373C17.2463 8.27373 17.75 7.75811 17.75 7.12208C17.75 6.48602 17.2463 5.97041 16.625 5.97041C16.3482 5.97041 16.0947 6.07278 15.8986 6.24258L12.9771 5.50488L11.9212 9.82871C10.5166 9.92336 9.25325 10.3588 8.30023 11.0163C8.02963 10.7446 7.65893 10.5771 7.25 10.5771C6.42157 10.5771 5.75 11.2646 5.75 12.1126C5.75 12.7029 6.07524 13.2153 6.55225 13.4723C6.51779 13.6554 6.5 13.8423 6.5 14.0321C6.5 16.3643 9.18627 18.2549 12.5 18.2549C15.8137 18.2549 18.5 16.3643 18.5 14.0321C18.5 13.8423 18.4822 13.6554 18.4477 13.4723C18.9247 13.2153 19.25 12.7029 19.25 12.1126C19.25 11.2646 18.5784 10.5771 17.75 10.5771C17.3411 10.5771 16.9704 10.7446 16.6998 11.0163C15.6615 10.3 14.2549 9.84716 12.6985 9.81161L13.5229 6.43596L15.5145 6.93702ZM9.875 14.416C10.4963 14.416 11 13.9004 11 13.2643C11 12.6282 10.4963 12.1126 9.875 12.1126C9.2537 12.1126 8.75 12.6282 8.75 13.2643C8.75 13.9004 9.2537 14.416 9.875 14.416ZM15.125 14.416C15.7463 14.416 16.25 13.9004 16.25 13.2643C16.25 12.6282 15.7463 12.1126 15.125 12.1126C14.5037 12.1126 14 12.6282 14 13.2643C14 13.9004 14.5037 14.416 15.125 14.416ZM10.083 15.6321C9.9107 15.5145 9.6779 15.5622 9.563 15.7386C9.4481 15.915 9.49467 16.1534 9.66695 16.271C10.483 16.8279 11.4916 17.1063 12.5 17.1063C13.5084 17.1063 14.517 16.8279 15.333 16.271C15.5053 16.1534 15.5519 15.915 15.437 15.7386C15.3221 15.5622 15.0893 15.5145 14.917 15.6321C14.2269 16.1031 13.3635 16.3386 12.5 16.3386C11.988 16.3386 11.4759 16.2558 11 16.0902C10.6734 15.9765 10.3638 15.8238 10.083 15.6321Z" fill="white"/>
</g>
</svg>
