<svg width="24" height="25" viewBox="0 0 24 25" fill="none" xmlns="http://www.w3.org/2000/svg">
<g clip-path="url(#clip0_1146_5434)">
<path d="M19.4082 7.68558L15.446 7.10982L13.6739 3.51938C12.9895 2.13249 11.0104 2.13291 10.3262 3.51933L8.5542 7.10977L4.59191 7.68558C3.0613 7.90796 2.45033 9.79022 3.55742 10.8695L6.42458 13.6643L5.74775 17.6104C5.48633 19.1348 7.08753 20.2975 8.45614 19.5782L12.0001 17.715L15.5442 19.5782C16.9108 20.2967 18.5139 19.1346 18.2525 17.6104L17.5757 13.6642L20.4429 10.8694C21.5502 9.7898 20.9382 7.90791 19.4082 7.68558ZM19.3259 9.72375L16.1576 12.8121C16.0647 12.9026 15.9953 13.0144 15.9552 13.1377C15.9151 13.2611 15.9056 13.3923 15.9275 13.5202L16.6755 17.881C16.713 18.1 16.4852 18.2654 16.2886 18.1621L12.3723 16.1032C12.2575 16.0429 12.1298 16.0113 12.0001 16.0113C11.8704 16.0113 11.7426 16.0429 11.6278 16.1032L7.71153 18.1621C7.51484 18.2655 7.28708 18.0999 7.32463 17.881L8.07256 13.5202C8.09448 13.3923 8.08499 13.2611 8.04491 13.1377C8.00483 13.0144 7.93537 12.9026 7.8425 12.8121L4.67417 9.72375C4.51503 9.56864 4.60208 9.30089 4.82197 9.26888L9.20047 8.63264C9.32882 8.614 9.45071 8.56442 9.55564 8.48819C9.66058 8.41196 9.7454 8.31137 9.80281 8.19507L11.761 4.22742C11.8593 4.0283 12.1408 4.02816 12.2392 4.22747L14.1973 8.19507C14.2547 8.31137 14.3396 8.41197 14.4445 8.4882C14.5494 8.56443 14.6713 8.614 14.7997 8.63264L19.1782 9.26888C19.398 9.30089 19.485 9.56869 19.3259 9.72375ZM6.31555 2.88005L5.35878 1.56319C5.099 1.20582 4.59875 1.1265 4.24137 1.38628C3.88395 1.64597 3.80469 2.14627 4.06442 2.50369L5.02119 3.8205C5.28106 4.17807 5.78131 4.25705 6.13859 3.99741C6.49602 3.73777 6.57528 3.23747 6.31555 2.88005ZM3.14052 14.6811C3.00406 14.2609 2.55275 14.0308 2.13247 14.1675L0.552969 14.6807C0.132781 14.8172 -0.0971407 15.2685 0.0393593 15.6887C0.176094 16.1096 0.628156 16.3388 1.04741 16.2023L2.62691 15.6891C3.04714 15.5526 3.27706 15.1013 3.14052 14.6811ZM19.7587 1.38633C19.4014 1.12664 18.9011 1.20582 18.6413 1.56324L17.6846 2.88005C17.4248 3.23747 17.5041 3.73782 17.8615 3.99746C18.2191 4.25724 18.7193 4.17783 18.9789 3.82055L19.9357 2.50374C20.1954 2.14632 20.1162 1.64597 19.7587 1.38633ZM23.447 14.6807L21.8675 14.1675C21.4474 14.0307 20.996 14.2609 20.8595 14.6811C20.723 15.1013 20.9529 15.5526 21.3731 15.6891L22.9526 16.2023C23.3719 16.3387 23.8239 16.1096 23.9607 15.6887C24.0972 15.2685 23.8672 14.8172 23.447 14.6807ZM12 20.8825C11.5582 20.8825 11.2001 21.2407 11.2001 21.6825V23.3062C11.2001 23.748 11.5582 24.1061 12 24.1061C12.4418 24.1061 12.8 23.748 12.8 23.3062V21.6825C12.8 21.2407 12.4419 20.8825 12 20.8825Z" fill="#4855DC"/>
</g>
<defs>
<clipPath id="clip0_1146_5434">
<rect width="24" height="24" fill="white" transform="translate(0 0.669922)"/>
</clipPath>
</defs>
</svg>
