<svg width="25" height="25" viewBox="0 0 25 25" fill="none" xmlns="http://www.w3.org/2000/svg">
<g id="amazon-color-svgrepo-com 1" clip-path="url(#clip0_624_840)">
<g id="Icons">
<g id="Color-">
<g id="Amazon">
<path id="Vector" fill-rule="evenodd" clip-rule="evenodd" d="M13.2027 13.2346C12.8316 13.9758 12.1952 14.453 11.5065 14.6139C11.4021 14.6139 11.2427 14.6662 11.0832 14.6662C9.91906 14.6662 9.23045 13.7655 9.23045 12.4412C9.23045 10.7443 10.2366 9.95088 11.5065 9.57818C12.1952 9.42006 12.991 9.36641 13.7855 9.36641V10.0031C13.7855 11.2215 13.8377 12.1744 13.2027 13.2346ZM13.7855 6.93112C13.0969 6.98335 12.301 7.03559 11.5065 7.14006C10.2888 7.301 9.07099 7.51277 8.06629 7.98994C6.10627 8.78477 4.78125 10.4803 4.78125 12.9692C4.78125 16.0977 6.79348 17.6859 9.33769 17.6859C10.1843 17.6859 10.873 17.5786 11.5065 17.4219C12.5155 17.1029 13.3607 16.5198 14.3668 15.4596C14.9496 16.2544 15.1105 16.6271 16.1152 17.4742C16.3805 17.5786 16.6458 17.5786 16.856 17.4219C17.4924 16.8911 18.6058 15.9368 19.1872 15.4074C19.4525 15.1956 19.4002 14.8765 19.2394 14.6139C18.658 13.8714 18.0738 13.2346 18.0738 11.8045V7.03559C18.0738 5.02241 18.2347 3.16735 16.7516 1.79088C15.5338 0.679824 13.626 0.254883 12.143 0.254883H11.5065C8.80712 0.411589 5.94823 1.57771 5.31041 4.91653C5.20458 5.34147 5.52349 5.49959 5.73515 5.55182L8.70128 5.92312C9.01878 5.86947 9.17824 5.60406 9.23045 5.34147C9.49432 4.17535 10.4482 3.59229 11.5065 3.485H11.7196C12.356 3.485 13.0446 3.75041 13.4144 4.28124C13.8377 4.91653 13.7855 5.765 13.7855 6.50759V6.93112Z" fill="#343B45"/>
<path id="Fill-237" fill-rule="evenodd" clip-rule="evenodd" d="M24.4972 18.2282V18.2268C24.4859 17.9769 24.4337 17.7863 24.3293 17.6282L24.318 17.6127L24.3053 17.5971C24.1994 17.4814 24.0978 17.4376 23.9878 17.3896C23.659 17.2625 23.1806 17.1948 22.6049 17.1934C22.1914 17.1934 21.7357 17.2329 21.2771 17.3331L21.2756 17.3021L20.8142 17.4559L20.8057 17.4602L20.5447 17.5449V17.5562C20.2385 17.6832 19.9605 17.8414 19.7023 18.0291C19.5414 18.1491 19.4088 18.3087 19.4017 18.5529C19.3975 18.6856 19.4652 18.8381 19.5767 18.9284C19.6882 19.0188 19.818 19.0498 19.9323 19.0498C19.9591 19.0498 19.9845 19.0484 20.0071 19.0442L20.0296 19.0428L20.0466 19.0399C20.2723 18.9919 20.6011 18.9595 20.9864 18.9058C21.3166 18.8691 21.6665 18.8423 21.9699 18.8423C22.1844 18.8409 22.3777 18.8564 22.5103 18.8847C22.5767 18.8988 22.6261 18.9157 22.6529 18.9298C22.6627 18.9327 22.6698 18.9369 22.674 18.9397C22.6797 18.9581 22.6881 19.0061 22.6867 19.0724C22.6896 19.3265 22.5823 19.7981 22.4342 20.2583C22.2902 20.7185 22.1152 21.1802 21.9995 21.4865C21.9713 21.5571 21.953 21.6348 21.953 21.7195C21.9501 21.8423 22.0009 21.9919 22.1082 22.0908C22.2126 22.1896 22.3481 22.2291 22.461 22.2291H22.4666C22.6359 22.2277 22.7799 22.1599 22.904 22.0625C24.0753 21.0094 24.4831 19.3265 24.5 18.3792L24.4972 18.2282ZM21.0245 19.6879C20.9045 19.6865 20.7818 19.7148 20.6675 19.7684C20.539 19.8192 20.4078 19.8785 20.2836 19.9308L20.1016 20.007L19.8645 20.1016V20.1044C17.2893 21.1491 14.5842 21.7618 12.0809 21.8155C11.9892 21.8183 11.8961 21.8183 11.8072 21.8183C7.87019 21.8211 4.65853 19.9943 1.41865 18.1943C1.30576 18.135 1.18864 18.1039 1.07575 18.1039C0.930408 18.1039 0.780831 18.159 0.672177 18.2607C0.563522 18.3637 0.498611 18.5119 0.500023 18.663C0.498611 18.8592 0.604444 19.0399 0.752609 19.1571C3.79353 21.7985 7.12654 24.2522 11.6096 24.255C11.6971 24.255 11.786 24.2522 11.8749 24.2508C14.7267 24.1872 17.9511 23.223 20.4544 21.6503L20.4699 21.6404C20.7973 21.4442 21.1247 21.2211 21.4337 20.9741C21.6256 20.8315 21.7582 20.6084 21.7582 20.3769C21.7498 19.9661 21.4012 19.6879 21.0245 19.6879Z" fill="#FF9A00"/>
</g>
</g>
</g>
</g>
<defs>
<clipPath id="clip0_624_840">
<rect width="24" height="24" fill="white" transform="translate(0.5 0.254883)"/>
</clipPath>
</defs>
</svg>
