<svg width="24" height="25" viewBox="0 0 24 25" fill="none" xmlns="http://www.w3.org/2000/svg">
<path d="M12.8789 21.3829C12.7588 21.5169 12.6304 21.6426 12.4936 21.7598C12.4685 21.7794 12.4461 21.7989 12.421 21.8185C12.2982 21.9218 12.5494 21.7319 12.4154 21.8213C12.3428 21.8715 12.2702 21.9218 12.1921 21.9664C12.1306 22.0027 12.0664 22.0362 12.0022 22.067C11.9882 22.0725 11.9771 22.0781 11.9631 22.0837C11.8961 22.1144 11.9129 22.106 12.0162 22.0614C11.9882 22.0642 11.9492 22.0865 11.9185 22.0977C11.8487 22.1228 11.7761 22.1423 11.7035 22.1591C11.6783 22.1647 11.6504 22.1703 11.6253 22.1758C11.4327 22.2121 11.737 22.1703 11.6113 22.1786C11.5025 22.1842 11.3908 22.187 11.2819 22.1786C11.2568 22.1758 11.2288 22.173 11.2037 22.1703C11.4382 22.1842 11.3656 22.1954 11.3126 22.1842C11.2623 22.173 11.2093 22.1647 11.159 22.1535C11.0641 22.1312 10.9748 22.0949 10.8826 22.0642C10.7877 22.0307 10.9832 22.106 10.9748 22.1033C10.9497 22.0977 10.9217 22.0809 10.8994 22.0697C10.8491 22.0446 10.8017 22.0195 10.7514 21.9916C10.6649 21.9413 10.5811 21.8883 10.4974 21.8296C10.4778 21.8157 10.4583 21.8017 10.4387 21.785C10.341 21.7124 10.5811 21.8994 10.4862 21.8213C10.4387 21.7822 10.3913 21.7431 10.3466 21.7012C10.1707 21.5449 10.0116 21.3718 9.86359 21.1903C9.84405 21.168 9.8273 21.1456 9.81055 21.1233C9.95293 21.288 9.86359 21.1931 9.83288 21.154C9.79659 21.1065 9.76308 21.0563 9.72679 21.0088C9.64861 20.8971 9.57323 20.7827 9.50064 20.6654C9.34709 20.4141 9.20749 20.1545 9.07906 19.8893C9.01764 19.7608 8.95622 19.6296 8.90038 19.5012C8.89479 19.4872 8.88921 19.4733 8.88363 19.4621C8.85292 19.3923 8.86129 19.409 8.90317 19.5068C8.90038 19.476 8.87246 19.4342 8.86129 19.4035L8.76078 19.1522C8.64064 18.8341 8.53169 18.5119 8.43413 18.1862C8.23869 17.5329 8.08234 16.8656 7.96229 16.1927C7.93158 16.028 7.90366 15.8605 7.87853 15.6958C7.86457 15.6148 7.85341 15.5339 7.84224 15.4557C7.83386 15.4082 7.82828 15.358 7.82269 15.3105C7.79757 15.1402 7.84224 15.4724 7.82269 15.2993C7.77523 14.9308 7.73614 14.5623 7.70543 14.1909C7.64401 13.4343 7.61609 12.6721 7.62447 11.9127C7.63005 11.1422 7.67193 10.3744 7.74731 9.60939C7.76406 9.44188 7.78361 9.27436 7.80315 9.10964C7.80873 9.06218 7.83665 8.79136 7.81711 9.00075C7.82549 8.90304 7.84503 8.80532 7.85899 8.7076C7.91204 8.3614 7.97067 8.0152 8.04046 7.6718C8.17448 7.00732 8.34199 6.34563 8.55418 5.7007C8.60723 5.53598 8.66586 5.37404 8.72449 5.21211C8.75241 5.13952 8.77753 5.06972 8.80545 4.99713C8.83337 4.92734 8.90038 4.82124 8.90596 4.74586C8.89479 4.77378 8.88084 4.8017 8.86967 4.83241C8.88084 4.80449 8.892 4.77936 8.90317 4.75144C8.91434 4.72353 8.92551 4.6984 8.93947 4.67048C8.97018 4.59789 9.00368 4.52809 9.03718 4.4555C9.10419 4.31032 9.17678 4.16793 9.25216 4.02834C9.38338 3.78265 9.52577 3.54533 9.68212 3.3164C9.71841 3.26056 9.7575 3.20751 9.79659 3.15167L9.83847 3.09304C9.91943 2.98416 9.72958 3.22705 9.81613 3.12375C9.8943 3.02604 9.97248 2.93111 10.059 2.83898C10.1344 2.75522 10.2154 2.67425 10.2963 2.59887C10.3382 2.55978 10.3801 2.52349 10.4248 2.4844C10.4415 2.47044 10.4555 2.45928 10.4722 2.44532C10.6035 2.33922 10.355 2.52907 10.4499 2.46207C10.6174 2.34201 10.7877 2.24151 10.972 2.15216C11.0474 2.11587 10.7849 2.22196 10.8938 2.18567C10.9189 2.17729 10.9441 2.16612 10.9692 2.15775C11.0111 2.14379 11.053 2.12983 11.0948 2.11866C11.1367 2.10749 11.1786 2.09632 11.2233 2.08795C11.3042 2.0712 11.4773 2.07399 11.2177 2.08237C11.3126 2.07957 11.4075 2.06561 11.5052 2.06841C11.5499 2.06841 11.5918 2.07399 11.6365 2.07678C11.6532 2.07678 11.67 2.08237 11.6895 2.08237C11.4438 2.07399 11.5639 2.06561 11.6337 2.07678C11.7202 2.09353 11.804 2.11587 11.8877 2.141C11.9352 2.15496 11.9799 2.1745 12.0273 2.19125C12.1055 2.21917 11.8459 2.10749 11.9492 2.15775C11.9771 2.17171 12.0078 2.18567 12.0357 2.19963C12.1251 2.2443 12.2088 2.29176 12.2926 2.34481C12.3344 2.36993 12.3735 2.39785 12.4126 2.42577C12.4377 2.44252 12.4601 2.46207 12.4852 2.47882C12.2982 2.3476 12.3959 2.41181 12.4377 2.44532C12.6192 2.59329 12.7867 2.7608 12.9403 2.93669C12.9766 2.97857 13.0129 3.02324 13.0492 3.06791C13.0715 3.09583 13.0911 3.12375 13.1134 3.14888C12.9878 2.99532 13.0408 3.05395 13.0687 3.09304C13.1553 3.2103 13.239 3.33036 13.32 3.4532C13.4708 3.68493 13.6076 3.92503 13.7332 4.17072C13.803 4.30753 13.87 4.44712 13.9342 4.58951C13.9649 4.65652 13.9929 4.72073 14.0236 4.78774C14.085 4.92734 13.9761 4.67048 14.0124 4.76261C14.0319 4.81007 14.0515 4.86033 14.071 4.90779C14.3251 5.54714 14.5289 6.20604 14.6936 6.87331C14.7802 7.2223 14.8556 7.57408 14.9226 7.92586C14.9533 8.09338 14.984 8.2581 15.0091 8.42562C15.0259 8.52892 15.0426 8.62943 15.0566 8.73273C15.0622 8.76623 15.0677 8.80253 15.0705 8.83603C15.0761 8.87512 15.1152 9.10964 15.0817 8.91141C15.1431 9.27995 15.171 9.65965 15.2018 10.0338C15.2325 10.3967 15.5005 10.7485 15.8997 10.7317C16.2515 10.715 16.6312 10.4246 16.5977 10.0338C16.4637 8.45633 16.2069 6.87889 15.7155 5.37125C15.3078 4.12047 14.7495 2.86131 13.8588 1.87576C13.1916 1.1359 12.2256 0.569143 11.1981 0.689195C10.0451 0.826 9.18236 1.61611 8.53743 2.53466C7.75011 3.65422 7.2671 5.00272 6.92649 6.31771C6.54958 7.77789 6.34577 9.28832 6.26759 10.7932C6.18383 12.4264 6.25922 14.0597 6.48536 15.679C6.6808 17.0973 7.00466 18.5128 7.55188 19.8362C8.00696 20.9418 8.59885 22.0921 9.55648 22.8459C9.95852 23.1642 10.4136 23.4322 10.9245 23.5243C11.6393 23.6528 12.3596 23.516 12.9766 23.1251C13.306 22.9157 13.6048 22.6561 13.8672 22.3685C14.1129 22.0977 14.1548 21.6454 13.8672 21.3801C13.5964 21.1372 13.1413 21.0926 12.8789 21.3829Z" fill="#4855DC"/>
<path d="M18.5499 4.00897C18.36 4.19603 18.1674 4.3775 17.9636 4.5506C17.8714 4.63157 17.7765 4.70695 17.6816 4.78512L17.5978 4.85213C17.5196 4.91355 17.7374 4.74604 17.6201 4.83538C17.5615 4.88005 17.5057 4.92193 17.447 4.96381C17.0227 5.2765 16.5732 5.5557 16.1069 5.80138C15.8696 5.92702 15.6267 6.04149 15.3782 6.15038C15.3419 6.16713 15.2554 6.19784 15.4229 6.13083C15.395 6.142 15.3699 6.15317 15.3419 6.16434C15.2749 6.19225 15.2051 6.22017 15.1381 6.2453C15.0153 6.29276 14.8924 6.33743 14.7668 6.3821C14.2475 6.56079 13.717 6.69759 13.1754 6.79531C13.0498 6.81764 12.9241 6.83719 12.7985 6.85673C12.6952 6.87348 12.9828 6.8344 12.8264 6.85394C12.7957 6.85673 12.7678 6.86232 12.7371 6.86511L12.5109 6.89024C12.2289 6.91815 11.9469 6.93491 11.6622 6.94049C11.3774 6.94607 11.0926 6.94049 10.8078 6.92374C10.6794 6.91536 10.5482 6.90699 10.4198 6.89303C10.3528 6.88744 10.283 6.87907 10.216 6.87069C10.1852 6.8679 10.1545 6.86232 10.1266 6.85952C10.0959 6.85673 10.068 6.85115 10.0373 6.84836C10.068 6.85394 10.1015 6.85673 10.1322 6.86232C9.58777 6.75902 9.05172 6.66967 8.51846 6.50774C8.2644 6.43236 8.01592 6.34581 7.76744 6.25088C7.70601 6.22855 7.64459 6.20342 7.58317 6.17829C7.54966 6.16434 7.51616 6.14758 7.48266 6.13642C7.49662 6.13921 7.63621 6.20342 7.52733 6.15596C7.40169 6.10012 7.27606 6.04428 7.15042 5.98286C6.61716 5.726 6.10345 5.42448 5.61765 5.08386C5.49481 4.99731 5.38034 4.89122 5.25191 4.81584C5.26308 4.82142 5.38313 4.91914 5.291 4.84655C5.25749 4.81863 5.22399 4.7935 5.19049 4.76558C5.13465 4.72091 5.07881 4.67345 5.02297 4.62878C4.79124 4.43334 4.57068 4.22953 4.3557 4.01735V5.00569C4.54555 4.81863 4.73819 4.63715 4.94201 4.46405C5.03414 4.38309 5.12906 4.30771 5.22399 4.22953L5.30775 4.16253C5.38592 4.1011 5.16815 4.26862 5.28541 4.17928C5.34404 4.13461 5.39988 4.09273 5.45851 4.05085C5.88288 3.73815 6.33238 3.45896 6.79864 3.21327C7.03595 3.08763 7.27885 2.97317 7.52733 2.86428C7.56362 2.84753 7.65017 2.81682 7.48266 2.88382C7.51058 2.87266 7.53571 2.86149 7.56362 2.85032C7.63063 2.8224 7.70043 2.79448 7.76744 2.76936C7.89028 2.72189 8.01312 2.67722 8.13876 2.63255C8.65806 2.45387 9.18853 2.31706 9.73016 2.21935C9.8558 2.19701 9.98143 2.17747 10.1071 2.15792C10.2104 2.14117 9.9228 2.18026 10.0792 2.16072C10.1099 2.15792 10.1378 2.15234 10.1685 2.14955L10.3946 2.12442C10.6766 2.0965 10.9586 2.07975 11.2434 2.07417C11.5282 2.06858 11.8129 2.07417 12.0977 2.09092C12.2261 2.09929 12.3574 2.10767 12.4858 2.12163C12.5528 2.12721 12.6226 2.13559 12.6896 2.14396C12.7203 2.14676 12.751 2.15234 12.7789 2.15513C12.8097 2.15792 12.8376 2.16351 12.8683 2.1663C12.8376 2.16072 12.8041 2.15792 12.7734 2.15234C13.3178 2.25564 13.8538 2.34498 14.3871 2.50691C14.6412 2.5823 14.8896 2.66885 15.1381 2.76377C15.1995 2.78611 15.261 2.81123 15.3224 2.83636C15.3559 2.85032 15.3894 2.86707 15.4229 2.87824C15.4089 2.87545 15.2693 2.81123 15.3782 2.8587C15.5039 2.91454 15.6295 2.97037 15.7551 3.0318C16.2884 3.28865 16.8021 3.59018 17.2879 3.9308C17.4108 4.01735 17.5252 4.12344 17.6536 4.19882C17.6425 4.19324 17.5224 4.09552 17.6146 4.16811C17.6481 4.19603 17.6816 4.22116 17.7151 4.24908C17.7709 4.29375 17.8267 4.34121 17.8826 4.38588C18.1143 4.58131 18.3349 4.78512 18.5499 4.99731C18.8095 5.25417 19.2813 5.2765 19.5382 4.99731C19.7923 4.72091 19.8146 4.28537 19.5382 4.00897C17.9077 2.39245 15.7914 1.26172 13.5272 0.859679C11.1289 0.435307 8.66644 0.761962 6.46919 1.81173C5.3245 2.35894 4.27194 3.11555 3.37294 4.00897C3.10492 4.2742 3.10492 4.73208 3.37294 4.99731C5.00343 6.61383 7.11971 7.74456 9.38396 8.1466C11.7822 8.57097 14.2447 8.24432 16.442 7.19455C17.5866 6.64734 18.6392 5.89073 19.5382 4.99731C19.7978 4.74045 19.8146 4.26583 19.5382 4.00897C19.2562 3.75211 18.8263 3.73257 18.5499 4.00897ZM4.35849 20.244C4.5651 20.0402 4.77728 19.8448 4.99784 19.6549C5.09556 19.5712 5.19607 19.4902 5.29658 19.4092C5.42222 19.3087 5.20445 19.4762 5.2882 19.4148C5.31333 19.3953 5.33846 19.3757 5.36638 19.3562C5.43059 19.3087 5.49481 19.2612 5.56181 19.2138C6.02248 18.8843 6.50828 18.594 7.01362 18.3399C7.13367 18.2785 7.25651 18.2227 7.37936 18.1668C7.43799 18.1417 7.49662 18.1166 7.55525 18.0886C7.70322 18.0244 7.44636 18.1333 7.54408 18.0942C7.58038 18.0803 7.61667 18.0635 7.65576 18.0496C7.92378 17.9435 8.19739 17.8457 8.47379 17.762C8.74461 17.6782 9.01822 17.6056 9.29462 17.5442C9.43142 17.5135 9.56544 17.4856 9.70224 17.4605C9.84184 17.4353 9.99818 17.3907 10.1406 17.3907C9.97864 17.3935 10.0568 17.4018 10.1015 17.3962C10.1517 17.3907 10.1992 17.3851 10.2495 17.3795C10.3332 17.3711 10.4142 17.3627 10.4979 17.3544C10.6655 17.3404 10.8302 17.3292 10.9977 17.3209C11.3495 17.3069 11.6985 17.3097 12.0503 17.3264C12.416 17.346 12.765 16.9914 12.7482 16.6285C12.7315 16.2348 12.4411 15.95 12.0503 15.9305C9.56823 15.8021 7.04433 16.4945 4.99784 17.91C4.41992 18.3092 3.8727 18.7587 3.37294 19.2529C3.11329 19.5097 3.09654 19.9844 3.37294 20.2412C3.65214 20.5009 4.08209 20.5176 4.35849 20.244Z" fill="#4855DC"/>
<path d="M22.7757 10.4079C22.5216 8.65181 21.832 6.94315 20.7962 5.50252C19.766 4.06747 18.4258 2.86415 16.8679 2.02937C15.2738 1.17783 13.4925 0.711579 11.6861 0.672492C9.86858 0.633405 8.06221 1.04103 6.42893 1.83114C4.90174 2.56821 3.52812 3.67381 2.48394 5.00835C1.39229 6.40431 0.599386 8.02363 0.244812 9.76579C-0.123723 11.5666 -0.0734683 13.4511 0.423495 15.2212C0.900914 16.9215 1.77758 18.4933 2.95577 19.8055C4.13676 21.1205 5.61927 22.1256 7.25534 22.7817C8.95283 23.4658 10.8485 23.717 12.6689 23.5132C13.1938 23.4546 13.7159 23.368 14.2268 23.2424C14.5814 23.1559 14.827 22.7343 14.7154 22.3825C14.5953 22.014 14.2379 21.8018 13.8555 21.8939C13.6209 21.9497 13.3864 22 13.1519 22.0419C13.0402 22.0614 12.9313 22.0782 12.8196 22.0949C12.7945 22.0977 12.6828 22.1173 12.7834 22.1005C12.8783 22.0865 12.7917 22.1005 12.7722 22.1005C12.7024 22.1089 12.6326 22.1173 12.5656 22.1228C12.0882 22.1703 11.608 22.1898 11.1277 22.1731C10.9128 22.1675 10.6978 22.1536 10.4828 22.134C10.3851 22.1256 10.2846 22.1145 10.1869 22.1033C10.1394 22.0977 9.96351 22.0698 10.1701 22.1033C10.1171 22.0949 10.064 22.0893 10.0138 22.081C9.59777 22.0167 9.18735 21.9302 8.78252 21.8185C8.38328 21.7096 7.99241 21.5756 7.60712 21.4221C7.56245 21.4053 7.4089 21.3327 7.59037 21.4165C7.55128 21.3969 7.50941 21.383 7.47032 21.3634C7.36981 21.3188 7.2693 21.2741 7.17158 21.2266C6.9929 21.1429 6.8198 21.0507 6.6467 20.9586C6.28933 20.7632 5.94593 20.5482 5.61369 20.3137C5.52993 20.255 5.44896 20.1964 5.368 20.135C5.33449 20.1099 5.2982 20.0819 5.2647 20.0568C5.27586 20.0652 5.39592 20.1601 5.30378 20.0847C5.28145 20.068 5.25911 20.0484 5.23678 20.0317C5.07764 19.9061 4.92408 19.7748 4.77332 19.638C4.47179 19.37 4.18701 19.0824 3.91899 18.7809C3.78497 18.6301 3.65375 18.4766 3.53091 18.3174C3.50299 18.2839 3.47786 18.2504 3.44994 18.2141C3.45832 18.2253 3.55045 18.3454 3.48065 18.2532C3.46669 18.2365 3.45553 18.2197 3.44157 18.2002C3.37735 18.1136 3.31314 18.0271 3.25172 17.9377C3.02278 17.6111 2.81338 17.2733 2.62074 16.9243C2.52302 16.7456 2.43089 16.5641 2.34434 16.3826C2.30246 16.2961 2.26337 16.2123 2.22429 16.1258C2.21591 16.1062 2.14611 15.9415 2.19078 16.0476C2.22987 16.1425 2.19916 16.07 2.19078 16.0504L2.14891 15.9499C1.84179 15.1877 1.62402 14.3892 1.49839 13.5768C1.49559 13.5544 1.47047 13.3702 1.48443 13.4902C1.49839 13.6047 1.47884 13.4372 1.47326 13.4037L1.43976 13.0854C1.42021 12.8704 1.40904 12.6582 1.40067 12.4432C1.38671 12.0133 1.40067 11.5805 1.43976 11.1506C1.44813 11.0529 1.4593 10.9551 1.47047 10.8546C1.47605 10.8016 1.48443 10.7485 1.49001 10.6983C1.49001 10.6955 1.46768 10.8518 1.48164 10.7709C1.48722 10.7346 1.4928 10.6955 1.49839 10.6592C1.5291 10.4526 1.56818 10.246 1.61286 10.0394C1.69941 9.64015 1.8055 9.24928 1.93672 8.86121C2.00093 8.66577 2.07352 8.47313 2.14891 8.28328C2.16845 8.23581 2.19358 8.18835 2.20754 8.14089C2.20754 8.1381 2.14891 8.27769 2.17962 8.20789C2.19078 8.17998 2.20195 8.15485 2.21591 8.12693C2.25779 8.0348 2.29967 7.93987 2.34434 7.84774C2.51744 7.48199 2.71287 7.12463 2.92785 6.78122C3.03395 6.61091 3.14562 6.44061 3.26288 6.27588C3.31593 6.2005 3.37177 6.12233 3.42761 6.04695C3.44436 6.02461 3.54766 5.88781 3.47786 5.97994C3.41086 6.06649 3.51137 5.93806 3.53091 5.91573C3.78218 5.60024 4.05021 5.29871 4.33498 5.01393C4.61976 4.72916 4.9185 4.45834 5.23398 4.20707C5.25632 4.19032 5.39033 4.08422 5.2982 4.15402C5.21165 4.22103 5.32612 4.13169 5.34845 4.11773C5.435 4.05351 5.52155 3.9893 5.61089 3.92788C5.77562 3.81062 5.94313 3.69894 6.11623 3.59284C6.45964 3.37787 6.81701 3.18243 7.18275 3.00654C7.2693 2.96466 7.35306 2.92558 7.43961 2.88649C7.48707 2.86694 7.53453 2.8474 7.5792 2.82507C7.582 2.82227 7.4424 2.8809 7.5122 2.85299C7.54012 2.84182 7.56524 2.83065 7.59316 2.81948C7.78301 2.74131 7.97566 2.67151 8.1683 2.6045C8.55917 2.47049 8.95841 2.35881 9.36324 2.27226C9.56705 2.22759 9.77366 2.18851 9.98026 2.1578C10.0333 2.14942 10.0864 2.14384 10.1366 2.13546C10.1394 2.13546 9.98305 2.155 10.064 2.14663L10.131 2.13825C10.2427 2.12429 10.3572 2.11312 10.4716 2.10196C10.8932 2.06287 11.3148 2.04891 11.7392 2.06008C11.9542 2.06566 12.1691 2.07683 12.3813 2.09637C12.4874 2.10475 12.5935 2.11592 12.6996 2.12708L12.8336 2.14384C12.9565 2.1578 12.7973 2.13825 12.7834 2.13825C12.8141 2.14384 12.842 2.14663 12.8727 2.15221C13.6935 2.27506 14.4976 2.49283 15.2682 2.79994C15.31 2.81669 15.3491 2.83344 15.391 2.85019C15.4301 2.86694 15.5055 2.90882 15.3463 2.83065C15.3659 2.83903 15.3854 2.8474 15.4078 2.85578C15.5083 2.90045 15.606 2.94512 15.7065 2.99258C15.8824 3.07634 16.0583 3.16568 16.2314 3.25781C16.586 3.45046 16.9322 3.66264 17.2644 3.89437C17.3426 3.94742 17.418 4.00326 17.4933 4.0591C17.5352 4.08981 17.5743 4.12052 17.6134 4.14844C17.6301 4.1624 17.6469 4.17356 17.6636 4.18752C17.5129 4.07585 17.6078 4.14565 17.6413 4.17077C17.8004 4.29641 17.954 4.42484 18.1048 4.55885C18.4035 4.82408 18.6911 5.10607 18.9591 5.4048C19.0987 5.55836 19.2327 5.7175 19.3611 5.87943C19.3946 5.91852 19.4253 5.9604 19.4589 6.00227C19.5063 6.0637 19.417 5.94644 19.417 5.94923C19.4337 5.97436 19.4533 5.99669 19.47 6.01903L19.6543 6.2703C19.8944 6.61091 20.115 6.96549 20.3132 7.33123C20.4137 7.5155 20.5086 7.70256 20.598 7.88962C20.6398 7.97896 20.6789 8.06551 20.718 8.15485C20.7292 8.18277 20.7431 8.21069 20.7543 8.23861C20.785 8.3112 20.7264 8.17439 20.7292 8.17439C20.7487 8.23023 20.7738 8.28607 20.7962 8.34191C20.9525 8.73557 21.0837 9.1404 21.1926 9.55081C21.2987 9.95285 21.3797 10.3605 21.4411 10.7709C21.4635 10.9328 21.6282 11.1087 21.7622 11.1869C21.913 11.2734 22.1335 11.3125 22.301 11.2567C22.4685 11.2008 22.6333 11.0975 22.717 10.9356C22.798 10.7681 22.8036 10.6034 22.7757 10.4079Z" fill="#4855DC"/>
<path d="M0.698561 12.823H13.896C14.2617 12.823 14.6107 12.5019 14.594 12.125C14.5772 11.7481 14.2869 11.427 13.896 11.427H0.698561C0.332819 11.427 -0.0161719 11.7481 0.000579697 12.125C0.0173313 12.5047 0.3049 12.823 0.698561 12.823ZM22.604 16.8266C22.604 16.9941 22.5928 17.1616 22.5761 17.3291C22.5733 17.3515 22.5705 17.3766 22.5677 17.3989C22.5593 17.4771 22.5817 17.2845 22.5817 17.3012C22.5817 17.3403 22.5705 17.385 22.5621 17.4213C22.5482 17.5078 22.5314 17.5944 22.5119 17.6809C22.4365 18.0271 22.3304 18.3649 22.202 18.6944C22.1852 18.7335 22.1713 18.7726 22.1545 18.8116C22.1489 18.8284 22.1406 18.8451 22.135 18.8619C22.1043 18.9429 22.1992 18.7167 22.1629 18.7949C22.1266 18.8786 22.0875 18.9624 22.0512 19.0462C21.9758 19.2081 21.8949 19.3672 21.8111 19.5236C21.6436 19.8363 21.4593 20.1406 21.2667 20.4365C21.074 20.7269 20.873 21.0117 20.6608 21.2909C20.6497 21.3048 20.6385 21.3188 20.6301 21.3327C20.5799 21.3998 20.7278 21.2071 20.6776 21.2713C20.6525 21.302 20.6301 21.3327 20.605 21.3635C20.5547 21.4277 20.5017 21.4947 20.4487 21.5589C20.3509 21.6789 20.2504 21.799 20.1499 21.9163C19.8205 22.3015 19.4771 22.6729 19.1197 23.0274C18.9522 23.195 18.7819 23.3597 18.606 23.516H19.5943C18.874 22.8823 18.2235 22.1536 17.6288 21.4025C17.5981 21.3635 17.5646 21.3244 17.5367 21.2853C17.6428 21.436 17.5423 21.2937 17.5227 21.2657C17.4613 21.1848 17.3999 21.101 17.3384 21.0173C17.2044 20.8358 17.076 20.6515 16.9532 20.4617C16.7214 20.1099 16.5037 19.7469 16.311 19.3728C16.2161 19.1858 16.1267 18.9987 16.043 18.8061C15.9704 18.6441 16.096 18.9457 16.0318 18.7809C16.0123 18.7335 15.9927 18.686 15.976 18.6357C15.9397 18.5408 15.9034 18.4431 15.8727 18.3454C15.8085 18.1527 15.7526 17.9573 15.7052 17.7591C15.6828 17.6614 15.6633 17.5637 15.6437 17.4631C15.6354 17.4213 15.6158 17.3598 15.6186 17.3152C15.6326 17.4185 15.6326 17.4324 15.6242 17.3515C15.6214 17.318 15.6158 17.2845 15.613 17.2537C15.5963 17.0667 15.5879 16.8796 15.5935 16.6954C15.5963 16.6256 15.5991 16.5558 15.6047 16.4888C15.6075 16.4469 15.613 16.4078 15.6158 16.3659C15.6382 16.1677 15.5963 16.472 15.6186 16.3492C15.6465 16.19 15.6772 16.0309 15.7219 15.8745C15.7443 15.7964 15.7666 15.721 15.7945 15.6456C15.8085 15.6065 15.8196 15.5702 15.8336 15.5339C15.8531 15.4837 15.9397 15.3217 15.8364 15.5172C15.9844 15.2352 16.1156 14.9588 16.3026 14.6991C16.3361 14.6545 16.4255 14.5763 16.2887 14.7159C16.3166 14.688 16.3389 14.6545 16.3613 14.6238C16.4115 14.5651 16.4618 14.5065 16.5176 14.4479C16.6237 14.3334 16.7382 14.2245 16.8554 14.124C16.8862 14.0989 16.9169 14.0737 16.9448 14.0486C17.0565 13.9565 16.8108 14.1463 16.928 14.0626C16.9922 14.0151 17.0537 13.9704 17.1207 13.9258C17.2631 13.8308 17.411 13.7443 17.5618 13.6689C17.6232 13.6382 17.7265 13.6131 17.7768 13.5684C17.7516 13.5796 17.7237 13.5907 17.6986 13.6019C17.7293 13.5907 17.7572 13.5768 17.7879 13.5656C17.8326 13.5489 17.8773 13.5321 17.9247 13.5154C18.109 13.4511 18.2989 13.4037 18.4887 13.3646C18.5362 13.3562 18.5864 13.3478 18.6339 13.3395C18.8042 13.3088 18.472 13.3534 18.6451 13.3395C18.7456 13.3311 18.8461 13.3227 18.9466 13.3171C19.156 13.3088 19.3626 13.3227 19.572 13.3395C19.4101 13.3116 19.7367 13.3534 19.572 13.3395C19.6167 13.3478 19.6641 13.3534 19.7088 13.3646C19.7842 13.3786 19.8596 13.3953 19.9349 13.4149C19.9824 13.426 20.4989 13.5935 20.4961 13.5991C20.4682 13.588 20.4403 13.5768 20.4124 13.5628C20.4403 13.574 20.4682 13.588 20.4933 13.5991C20.5492 13.6242 20.6022 13.6494 20.6553 13.6773C20.7474 13.7248 20.8395 13.775 20.9289 13.8308C21.0182 13.8839 21.1048 13.9425 21.1885 14.0039C21.1969 14.0095 21.2918 14.0849 21.2946 14.0821C21.2108 14.0179 21.1997 14.0095 21.2583 14.057C21.2695 14.0654 21.2806 14.0765 21.2918 14.0849C21.4426 14.2106 21.585 14.3474 21.7162 14.4925C21.7776 14.5595 21.8362 14.66 21.906 14.7159L21.8474 14.6405L21.8977 14.7075C21.9312 14.7522 21.9619 14.7996 21.9954 14.8471C22.0959 15.0007 22.188 15.1598 22.269 15.3245C22.2885 15.3636 22.3053 15.3999 22.3248 15.439C22.336 15.4641 22.3472 15.492 22.3583 15.5172C22.3165 15.4167 22.3081 15.3999 22.336 15.4697C22.3695 15.5646 22.4058 15.6568 22.4365 15.7517C22.4979 15.9471 22.5398 16.1426 22.5761 16.3436C22.604 16.4999 22.5593 16.1733 22.5761 16.3324L22.5929 16.5083C22.5984 16.6172 22.6012 16.7233 22.604 16.8266C22.6068 17.1923 22.9223 17.5413 23.302 17.5246C23.6789 17.5078 24.0028 17.2175 24 16.8266C23.9916 15.1263 23.0982 13.5293 21.6492 12.6387C20.122 11.6978 18.1146 11.6922 16.579 12.6164C15.2138 13.4372 14.3483 14.8722 14.2087 16.4525C14.1305 17.3263 14.3176 18.2253 14.6331 19.0378C14.9765 19.9284 15.4427 20.7576 15.9927 21.5366C16.7382 22.5919 17.5981 23.5914 18.5557 24.4625C18.5725 24.4765 18.5892 24.4932 18.6032 24.5072C18.8991 24.7696 19.2928 24.7696 19.5915 24.5072C20.108 24.0521 20.5855 23.5412 21.035 23.0219C22.0149 21.8967 22.8804 20.6683 23.4611 19.2863C23.7878 18.5101 23.9972 17.6753 24 16.8266C24.0028 16.4608 23.6789 16.1118 23.302 16.1286C22.9223 16.1454 22.604 16.4357 22.604 16.8266Z" fill="#4855DC"/>
<path d="M19.4456 16.8266C19.4456 16.8518 19.4428 16.8769 19.4428 16.902C19.4428 16.9746 19.4009 16.9383 19.454 16.8294C19.4372 16.8629 19.4316 16.9188 19.4233 16.9551C19.387 17.0947 19.4903 16.8406 19.4316 16.9411C19.4065 16.983 19.3842 17.0249 19.3591 17.0667C19.306 17.1589 19.3926 17.0165 19.4037 17.0109C19.3898 17.0193 19.3702 17.05 19.3563 17.0639C19.3339 17.0891 19.2223 17.1784 19.32 17.1058C19.4233 17.0304 19.2976 17.117 19.2725 17.1337C19.253 17.1449 19.2306 17.1561 19.2083 17.1673C19.1106 17.2231 19.3367 17.1337 19.2585 17.1477C19.2195 17.1533 19.1748 17.17 19.1357 17.184C19.024 17.2175 19.2083 17.1784 19.2111 17.1784C19.1943 17.184 19.1497 17.184 19.1357 17.184C19.091 17.1868 19.0464 17.1812 19.0017 17.1812C18.9235 17.1784 19.1078 17.1896 19.0938 17.1924C19.0771 17.198 19.024 17.1784 19.0045 17.1728C18.9821 17.1673 18.957 17.1561 18.9347 17.1505C18.8705 17.1393 19.0157 17.1868 19.0157 17.1868C18.9794 17.1589 18.9263 17.1421 18.8872 17.117C18.8705 17.1058 18.8453 17.0835 18.8286 17.0751C18.8314 17.0751 18.9403 17.1756 18.9012 17.1282C18.8788 17.1002 18.8202 17.0304 18.7867 17.0137C18.7867 17.0137 18.8733 17.1421 18.8398 17.0835C18.8286 17.0639 18.8118 17.0444 18.8007 17.0221C18.7783 16.9858 18.7644 16.9439 18.742 16.9104C18.8286 17.0332 18.7867 17.036 18.7728 16.9746C18.7672 16.9495 18.7588 16.9271 18.7532 16.9048C18.7476 16.8881 18.7476 16.8657 18.742 16.8518C18.7113 16.7764 18.7504 17.0249 18.7504 16.9076C18.7504 16.8629 18.7476 16.8183 18.7504 16.7736C18.7588 16.6117 18.7141 16.8992 18.7476 16.7903C18.7588 16.754 18.7895 16.6842 18.7895 16.648C18.7895 16.6591 18.7085 16.8071 18.7616 16.715C18.7728 16.6954 18.7839 16.6731 18.7951 16.6507C18.8063 16.6312 18.8202 16.6117 18.8342 16.5893C18.8705 16.5307 18.8872 16.5782 18.7895 16.6452C18.8202 16.6256 18.8509 16.5809 18.8761 16.553C18.9766 16.4497 18.7644 16.62 18.8621 16.5614C18.9068 16.5335 18.957 16.5084 19.0017 16.4804C19.0575 16.4441 18.9179 16.5139 18.9179 16.5139C18.9347 16.5139 18.9682 16.4972 18.9877 16.4916C19.0212 16.4804 19.1664 16.4581 19.0408 16.4721C18.9068 16.4888 19.0687 16.4721 19.0994 16.4721C19.1245 16.4721 19.1497 16.4749 19.1748 16.4749C19.2948 16.4776 19.0408 16.4414 19.119 16.4665C19.1552 16.4776 19.239 16.5111 19.2781 16.5111C19.2781 16.5111 19.1413 16.4413 19.1943 16.4776C19.2195 16.4944 19.2474 16.5056 19.2753 16.5195C19.2948 16.5307 19.3144 16.5447 19.3367 16.5586C19.4177 16.6061 19.2921 16.5307 19.2809 16.5139C19.3004 16.5474 19.3674 16.6005 19.3954 16.6284C19.4568 16.6842 19.3144 16.4972 19.3535 16.5726C19.3674 16.5977 19.387 16.6228 19.4037 16.648C19.4121 16.6647 19.4205 16.6787 19.4289 16.6954C19.4903 16.7959 19.4121 16.6842 19.4093 16.6452C19.4093 16.687 19.4372 16.7457 19.4512 16.7875C19.4847 16.8964 19.4456 16.715 19.4456 16.7122C19.454 16.7429 19.4456 16.7959 19.4456 16.8266C19.4512 17.1924 19.7611 17.5414 20.1436 17.5246C20.5149 17.5079 20.8499 17.2175 20.8416 16.8266C20.8276 16.07 20.3558 15.4223 19.6438 15.1682C19.0017 14.9393 18.2032 15.1515 17.7705 15.6847C17.3042 16.2599 17.1981 17.0556 17.5806 17.7089C17.9659 18.3678 18.7253 18.6721 19.4652 18.5325C20.2692 18.3789 20.8248 17.6195 20.8388 16.8266C20.8444 16.4609 20.5121 16.1119 20.1408 16.1287C19.7611 16.1454 19.454 16.4358 19.4456 16.8266Z" fill="#4855DC"/>
</svg>
