<svg width="24" height="25" viewBox="0 0 24 25" fill="none" xmlns="http://www.w3.org/2000/svg">
<g clip-path="url(#clip0_1146_5449)">
<path d="M12 21.6699C7.03727 21.6699 3 17.6327 3 12.6699C3 7.70719 7.03727 3.66992 12 3.66992C16.9627 3.66992 21 7.70719 21 12.6699C21 17.6327 16.9627 21.6699 12 21.6699ZM12 5.42602C8.00576 5.42602 4.7561 8.67568 4.7561 12.6699C4.7561 16.6642 8.00576 19.9138 12 19.9138C15.9942 19.9138 19.2439 16.6642 19.2439 12.6699C19.2439 8.67568 15.9942 5.42602 12 5.42602Z" fill="#4855DC"/>
<path d="M12 6.16992C11.7348 6.16992 11.4804 6.06456 11.2929 5.87703C11.1054 5.68949 11 5.43514 11 5.16992V1.66992C11 1.40471 11.1054 1.15035 11.2929 0.962815C11.4804 0.775279 11.7348 0.669922 12 0.669922C12.2652 0.669922 12.5196 0.775279 12.7071 0.962815C12.8946 1.15035 13 1.40471 13 1.66992V5.16992C13 5.43514 12.8946 5.68949 12.7071 5.87703C12.5196 6.06456 12.2652 6.16992 12 6.16992ZM23 13.6699H19.5C19.2348 13.6699 18.9804 13.5646 18.7929 13.377C18.6054 13.1895 18.5 12.9351 18.5 12.6699C18.5 12.4047 18.6054 12.1504 18.7929 11.9628C18.9804 11.7753 19.2348 11.6699 19.5 11.6699H23C23.2652 11.6699 23.5196 11.7753 23.7071 11.9628C23.8946 12.1504 24 12.4047 24 12.6699C24 12.9351 23.8946 13.1895 23.7071 13.377C23.5196 13.5646 23.2652 13.6699 23 13.6699ZM12 24.6699C11.7348 24.6699 11.4804 24.5646 11.2929 24.377C11.1054 24.1895 11 23.9351 11 23.6699V20.1699C11 19.9047 11.1054 19.6504 11.2929 19.4628C11.4804 19.2753 11.7348 19.1699 12 19.1699C12.2652 19.1699 12.5196 19.2753 12.7071 19.4628C12.8946 19.6504 13 19.9047 13 20.1699V23.6699C13 23.9351 12.8946 24.1895 12.7071 24.377C12.5196 24.5646 12.2652 24.6699 12 24.6699ZM4.5 13.6699H1C0.734784 13.6699 0.48043 13.5646 0.292893 13.377C0.105357 13.1895 0 12.9351 0 12.6699C0 12.4047 0.105357 12.1504 0.292893 11.9628C0.48043 11.7753 0.734784 11.6699 1 11.6699H4.5C4.76522 11.6699 5.01957 11.7753 5.20711 11.9628C5.39464 12.1504 5.5 12.4047 5.5 12.6699C5.5 12.9351 5.39464 13.1895 5.20711 13.377C5.01957 13.5646 4.76522 13.6699 4.5 13.6699ZM12 15.6699C10.346 15.6699 9 14.3239 9 12.6699C9 11.0159 10.346 9.66992 12 9.66992C13.654 9.66992 15 11.0159 15 12.6699C15 14.3239 13.654 15.6699 12 15.6699ZM12 11.6699C11.449 11.6699 11 12.1189 11 12.6699C11 13.2209 11.449 13.6699 12 13.6699C12.551 13.6699 13 13.2209 13 12.6699C13 12.1189 12.551 11.6699 12 11.6699Z" fill="#4855DC"/>
</g>
<defs>
<clipPath id="clip0_1146_5449">
<rect width="24" height="24" fill="white" transform="translate(0 0.669922)"/>
</clipPath>
</defs>
</svg>
