<svg width="24" height="25" viewBox="0 0 24 25" fill="none" xmlns="http://www.w3.org/2000/svg">
<path d="M18.4397 6.66992C14.7072 6.66992 12.8458 9.44623 11.2032 11.8952C9.62784 14.2434 8.26753 16.2699 5.56036 16.2699C3.55298 16.2699 1.92005 14.5477 1.92005 12.4299C1.92005 10.3122 3.55205 8.58992 5.55844 8.58992C6.78722 8.58992 7.80581 8.99506 8.76675 9.86961C8.98561 10.0664 9.19683 10.2834 9.39169 10.509C9.73922 10.9103 10.345 10.9535 10.7462 10.6078C11.1475 10.2603 11.1917 9.65361 10.8451 9.25231C10.5945 8.96431 10.3267 8.68977 10.054 8.44592C8.74073 7.24977 7.27102 6.66992 5.56027 6.66992C2.49506 6.66992 0 9.2533 0 12.4299C0 15.6065 2.49506 18.1899 5.56031 18.1899C9.29278 18.1899 11.1542 15.4136 12.7968 12.9646C14.3722 10.6165 15.7325 8.58992 18.4396 8.58992C20.447 8.58992 22.08 10.3122 22.08 12.4299C22.08 14.5477 20.448 16.2699 18.4416 16.2699C17.2128 16.2699 16.1942 15.8648 15.2333 14.9902C15.0144 14.7935 14.8032 14.5765 14.6083 14.3509C14.2598 13.9496 13.655 13.9073 13.2538 14.252C12.8525 14.5995 12.8083 15.2062 13.1549 15.6075C13.4055 15.8955 13.6733 16.1701 13.9459 16.4139C15.2592 17.6101 16.729 18.1899 18.4397 18.1899C21.5049 18.1899 24 15.6065 24 12.4299C24 9.2533 21.5049 6.66992 18.4397 6.66992Z" fill="#4855DC"/>
</svg>
