<svg width="21" height="21" viewBox="0 0 21 21" fill="none" xmlns="http://www.w3.org/2000/svg">
<path id="Icon" d="M14.4986 6.25488C14.4986 7.31575 14.0772 8.33316 13.327 9.08331C12.5769 9.83346 11.5595 10.2549 10.4986 10.2549C9.43775 10.2549 8.42033 9.83346 7.67018 9.08331C6.92004 8.33316 6.49861 7.31575 6.49861 6.25488M2.13183 5.65627L1.43183 14.0563C1.28145 15.8608 1.20626 16.763 1.5113 17.4591C1.7793 18.0706 2.24364 18.5752 2.8308 18.8931C3.49908 19.2549 4.40447 19.2549 6.21525 19.2549H14.782C16.5928 19.2549 17.4981 19.2549 18.1664 18.8931C18.7536 18.5752 19.2179 18.0706 19.4859 17.4591C19.791 16.763 19.7158 15.8608 19.5654 14.0563L18.8654 5.65627C18.736 4.10363 18.6713 3.32732 18.3275 2.73974C18.0247 2.22232 17.5739 1.80749 17.0331 1.54873C16.419 1.25488 15.64 1.25488 14.082 1.25488L6.91525 1.25488C5.35724 1.25488 4.57823 1.25488 3.96413 1.54873C3.42336 1.80748 2.97251 2.22232 2.66974 2.73974C2.32591 3.32732 2.26122 4.10363 2.13183 5.65627Z" stroke="#07BF82" stroke-width="1.5" stroke-linecap="round" stroke-linejoin="round"/>
</svg>
