<svg width="24" height="25" viewBox="0 0 24 25" fill="none" xmlns="http://www.w3.org/2000/svg">
<g clip-path="url(#clip0_1146_5428)">
<path d="M16.9859 17.5054C14.3564 20.2099 11.3506 22.1641 8.64344 23.2169C7.28908 23.7436 6.15788 23.9703 5.10032 23.9703C3.81631 23.9703 2.67697 23.5926 1.91496 22.8306C0.469055 21.3847 0.326093 19.0346 1.45325 16.1034C1.82687 14.9829 2.42229 13.7895 3.16584 12.6694C1.86094 10.5755 1.03857 8.55397 0.775876 6.80896C0.512098 5.05672 0.811979 3.576 1.76428 2.58561L1.76496 2.5849L1.76496 2.58491C3.21087 1.139 5.56096 0.996041 8.49221 2.12319C9.61313 2.49696 10.8071 3.09271 11.9275 3.83667C13.1178 3.16761 14.2369 2.57179 15.3567 2.12384L15.3584 2.12318L15.3584 2.12321C18.2888 1.07127 20.7145 1.21369 22.0857 2.58491C23.3033 3.80255 23.6008 5.69883 22.924 8.10699C22.8824 8.31124 22.7399 8.47147 22.5621 8.57022C22.3839 8.66924 22.1656 8.70932 21.9655 8.6693C21.7603 8.62826 21.5994 8.48537 21.5004 8.30705C21.4014 8.12883 21.3613 7.91057 21.4013 7.71046L21.4017 7.70859C21.851 5.83643 21.6951 4.43573 20.965 3.70562L20.9636 3.70421L20.9636 3.70418C20.526 3.23011 19.8475 2.98883 18.993 2.97025C18.1387 2.95168 17.1139 3.15606 15.9925 3.56721L15.9911 3.56772L15.9911 3.5677C15.118 3.85874 14.3149 4.29209 13.4406 4.80054C14.6216 5.68879 15.803 6.6511 16.9845 7.75879L16.9855 7.75967L16.9854 7.75968C19.8396 10.5763 21.832 13.6388 22.7725 16.3382C23.712 19.0343 23.6066 21.3847 22.2357 22.7556C21.4737 23.5176 20.3343 23.8953 19.0503 23.8953C17.917 23.8953 16.5605 23.5932 15.0567 22.9917C14.6517 22.8297 14.4955 22.3477 14.6539 21.9517C14.8159 21.5466 15.2979 21.3905 15.6939 21.5488L15.6948 21.5492C16.9283 22.0725 18.0467 22.3329 18.9758 22.3421C19.9048 22.3514 20.6394 22.1099 21.1142 21.6356C21.993 20.6828 22.0769 18.9087 21.1787 16.5883L21.1786 16.5881C20.2067 14.0462 18.3364 11.2772 15.8655 8.80615M16.9859 17.5054C16.9858 17.5055 16.9858 17.5055 16.9857 17.5056L16.9503 17.4703L16.9862 17.5051C16.9861 17.5052 16.986 17.5053 16.9859 17.5054ZM16.9859 17.5054C17.0408 17.4505 17.087 17.3944 17.1284 17.344C17.1449 17.324 17.1606 17.3049 17.1758 17.2872C17.209 17.2484 17.2408 17.2147 17.2753 17.1869M17.2753 17.1869V18.6703C17.2753 18.9066 17.3543 19.1075 17.4962 19.2494C17.6381 19.3913 17.839 19.4703 18.0753 19.4703C18.3117 19.4703 18.5125 19.3913 18.6544 19.2494C18.7963 19.1075 18.8753 18.9066 18.8753 18.6703V14.9203C18.8753 14.6839 18.7963 14.4831 18.6544 14.3412C18.5125 14.1993 18.3117 14.1203 18.0753 14.1203H14.3253C14.089 14.1203 13.8881 14.1993 13.7462 14.3412C13.6043 14.4831 13.5253 14.6839 13.5253 14.9203C13.5253 15.1566 13.6043 15.3575 13.7462 15.4994C13.8881 15.6413 14.089 15.7203 14.3253 15.7203H16.5472M17.2753 17.1869C17.2913 17.1741 17.3078 17.1624 17.3253 17.1521V18.6703C17.3253 19.1203 17.6253 19.4203 18.0753 19.4203C18.5253 19.4203 18.8253 19.1203 18.8253 18.6703V14.9203C18.8253 14.4703 18.5253 14.1703 18.0753 14.1703H14.3253C13.8753 14.1703 13.5753 14.4703 13.5753 14.9203C13.5753 15.3703 13.8753 15.6703 14.3253 15.6703H16.5874C16.5742 15.6871 16.5608 15.7038 16.5472 15.7203M17.2753 17.1869V17.1247L16.6116 15.7203H16.5472M16.5472 15.7203C16.4524 15.8349 16.3472 15.9402 16.24 16.0474L16.2388 16.0486C16.1091 16.1783 15.9766 16.3108 15.8625 16.4624M15.8625 16.4624C13.3921 18.9322 10.6241 20.8017 8.08298 21.7734M15.8625 16.4624C15.8633 16.4616 15.8641 16.4607 15.865 16.4599L15.9003 16.4953L15.8603 16.4653C15.861 16.4643 15.8618 16.4634 15.8625 16.4624ZM8.08298 21.7734C6.92415 22.1845 5.88066 22.3889 5.01702 22.3703C4.15308 22.3517 3.47462 22.1104 3.03706 21.6364L3.03567 21.6349C2.59778 21.197 2.35639 20.5175 2.33781 19.6536C2.31924 18.79 2.52359 17.7466 2.97195 16.5883L2.97196 16.5883L2.97231 16.5874C3.26355 15.7865 3.69728 14.9133 4.20472 14.0372M8.08298 21.7734C8.08319 21.7733 8.08339 21.7732 8.0836 21.7731L8.10032 21.8203L8.08246 21.7736C8.08264 21.7735 8.08281 21.7734 8.08298 21.7734ZM4.20472 14.0372C4.9271 15.0406 5.78433 16.0433 6.71082 17.0453M4.20472 14.0372C4.21386 14.0214 4.22304 14.0056 4.23223 13.9898C4.96382 15.0083 5.83554 16.0268 6.77895 17.0453H6.71082M4.20472 14.0372C4.19403 14.0224 4.18337 14.0075 4.17274 13.9927C3.65957 14.8768 3.22005 15.7597 2.92532 16.5703C2.02532 18.8953 2.10032 20.7703 3.00032 21.6703L7.45032 15.6163M6.71082 17.0453H4.50032C4.26396 17.0453 4.0631 17.1243 3.92121 17.2662C3.77932 17.4081 3.70032 17.6089 3.70032 17.8453C3.70032 18.0816 3.77932 18.2825 3.92121 18.4244C4.0631 18.5663 4.26396 18.6453 4.50032 18.6453H8.25032C8.48668 18.6453 8.68754 18.5663 8.82942 18.4244C8.97131 18.2825 9.05032 18.0816 9.05032 17.8453V14.0953C9.05032 13.8589 8.97131 13.658 8.82942 13.5162C8.68754 13.3743 8.48668 13.2953 8.25032 13.2953C8.01396 13.2953 7.8131 13.3743 7.67121 13.5162C7.52933 13.6581 7.45032 13.8589 7.45032 14.0953V15.5427M6.71082 17.0453C6.72623 17.0619 6.74166 17.0786 6.75711 17.0953H4.50032C4.05032 17.0953 3.75032 17.3953 3.75032 17.8453C3.75032 18.2953 4.05032 18.5953 4.50032 18.5953H8.25032C8.70032 18.5953 9.00032 18.2953 9.00032 17.8453V14.0953C9.00032 13.6453 8.70032 13.3453 8.25032 13.3453C7.80032 13.3453 7.50032 13.6453 7.50032 14.0953V15.5967C7.48361 15.5787 7.46694 15.5607 7.45032 15.5427M7.45032 15.5427C6.52258 14.5385 5.73479 13.601 5.08564 12.5966M7.45032 15.5427V15.6163M5.08564 12.5966C5.97975 11.3329 7.02198 10.0693 8.28568 8.80562C9.47619 7.61511 10.7386 6.50053 12.0734 5.68011M5.08564 12.5966C5.07914 12.6057 5.07265 12.6149 5.06617 12.6241L5.02532 12.5953M5.08564 12.5966C5.07954 12.5871 5.07345 12.5777 5.06738 12.5682L5.02532 12.5953M12.0734 5.68011C13.3371 6.57425 14.6011 7.61622 15.8655 8.80615M12.0734 5.68011C12.0644 5.67377 12.0554 5.66744 12.0465 5.66111L12.0753 5.62027M12.0734 5.68011C12.0827 5.67437 12.092 5.66864 12.1014 5.66293L12.0753 5.62027M15.8655 8.80615C15.8653 8.80597 15.8651 8.8058 15.865 8.80562L15.9003 8.77027M15.8655 8.80615C15.8657 8.80633 15.8659 8.8065 15.8661 8.80668L15.9003 8.77027M15.9003 8.77027C14.6253 7.57027 13.3503 6.52027 12.0753 5.62027M15.9003 8.77027C18.3753 11.2453 20.2503 14.0203 21.2253 16.5703L12.0753 5.62027M12.0753 5.62027C10.7253 6.44527 9.45032 7.57027 8.25032 8.77027C6.97532 10.0453 5.92532 11.3203 5.02532 12.5953M12.0753 5.62027L5.02532 12.5953M5.02532 12.5953C5.68875 13.6273 6.49708 14.5868 7.45032 15.6163M5.02532 12.5953L7.45032 15.6163M8.08323 3.64226C8.88307 3.93311 9.75496 4.36608 10.6299 4.87264C9.37722 5.69017 8.19725 6.65263 7.08996 7.75991C5.98149 8.86839 5.01874 10.0491 4.13052 11.2301C3.1432 9.53337 2.55882 7.95084 2.37483 6.64454C2.18822 5.3196 2.41462 4.29017 3.03459 3.70668L3.0346 3.70669L3.03567 3.70562C3.47356 3.26773 4.15306 3.02633 5.01702 3.00776C5.88063 2.98918 6.92401 3.19354 8.08227 3.6419L8.08227 3.64191L8.08323 3.64226Z" fill="#4855DC" stroke="#4855DC" stroke-width="0.1"/>
</g>
<defs>
<clipPath id="clip0_1146_5428">
<rect width="24" height="24" fill="white" transform="translate(0 0.669922)"/>
</clipPath>
</defs>
</svg>
