<svg width="81" height="44" viewBox="0 0 81 44" fill="none" xmlns="http://www.w3.org/2000/svg">
<g clip-path="url(#clip0_1712_2965)">
<mask id="mask0_1712_2965" style="mask-type:luminance" maskUnits="userSpaceOnUse" x="0" y="28" width="81" height="15">
<path d="M80.4449 28.1069H0.703125V42.3183H80.4449V28.1069Z" fill="white"/>
</mask>
<g mask="url(#mask0_1712_2965)">
<path d="M15.6547 28.1172H0.703125V42.3285H15.6547V28.1172Z" fill="#00B67A"/>
<path d="M31.8538 28.1172H16.9023V42.3285H31.8538V28.1172Z" fill="#00B67A"/>
<path d="M48.0492 28.1172H33.0977V42.3285H48.0492V28.1172Z" fill="#00B67A"/>
<path d="M64.2485 28.1172H49.2969V42.3285H64.2485V28.1172Z" fill="#00B67A"/>
<path d="M80.4445 28.1172H72.9688V42.3285H80.4445V28.1172Z" fill="#DCDCE6"/>
<path d="M77.2129 28.1172H65.3594V42.3285H77.2129V28.1172Z" fill="#00B67A"/>
<path d="M8.17836 37.6943L10.4523 37.1466L11.4023 39.9297L8.17836 37.6943ZM13.4114 34.0971H9.40876L8.17836 30.5146L6.94797 34.0971H2.94531L6.18483 36.3177L4.95444 39.9001L8.19394 37.6795L10.1875 36.3177L13.4114 34.0971Z" fill="white"/>
<path d="M24.3737 37.6943L26.6477 37.1466L27.5977 39.9297L24.3737 37.6943ZM29.6069 34.0971H25.6041L24.3737 30.5146L23.1434 34.0971H19.1406L22.3802 36.3177L21.1498 39.9001L24.3893 37.6795L26.3829 36.3177L29.6069 34.0971Z" fill="white"/>
<path d="M40.5769 37.6943L42.8507 37.1466L43.8008 39.9297L40.5769 37.6943ZM45.8098 34.0971H41.8073L40.5769 30.5146L39.3463 34.0971H35.3438L38.5832 36.3177L37.353 39.9001L40.5924 37.6795L42.5859 36.3177L45.8098 34.0971Z" fill="white"/>
<path d="M56.7721 37.6943L59.0461 37.1466L59.9961 39.9297L56.7721 37.6943ZM62.0052 34.0971H58.0025L56.7721 30.5146L55.5417 34.0971H51.5391L54.7785 36.3177L53.5482 39.9001L56.7877 37.6795L58.7813 36.3177L62.0052 34.0971Z" fill="white"/>
<path d="M72.9675 37.6943L75.2415 37.1466L76.1915 39.9297L72.9675 37.6943ZM78.2005 34.0971H74.1979L72.9675 30.5146L71.7372 34.0971H67.7344L70.9741 36.3177L69.7436 39.9001L72.9831 37.6795L74.9767 36.3177L78.2005 34.0971Z" fill="white"/>
</g>
<path d="M18.5919 6.25269H25.484V7.54375H22.7741V14.8014H21.2838V7.54375H18.5859V6.25269H18.5919ZM25.1895 8.6116H26.4634V9.80614H26.4875C26.5295 9.63721 26.6076 9.47432 26.7219 9.31746C26.836 9.16061 26.9742 9.00977 27.1364 8.88309C27.2987 8.75036 27.479 8.64779 27.6773 8.56333C27.8756 8.48491 28.0798 8.44268 28.2841 8.44268C28.4403 8.44268 28.5545 8.44871 28.6146 8.45474C28.6747 8.46078 28.7347 8.47284 28.8008 8.47888V9.79408C28.7047 9.77598 28.6086 9.76391 28.5064 9.75185C28.4042 9.73978 28.3081 9.73375 28.212 9.73375C27.9836 9.73375 27.7674 9.78201 27.5631 9.8725C27.3587 9.96299 27.1846 10.1018 27.0343 10.2767C26.8841 10.4577 26.7638 10.6749 26.6737 10.9403C26.5836 11.2058 26.5415 11.5075 26.5415 11.8513V14.7954H25.1835V8.6116H25.1895ZM35.0441 14.8014H33.7101V13.9387H33.6861C33.5178 14.2524 33.2715 14.4998 32.941 14.6868C32.6105 14.8738 32.274 14.9704 31.9314 14.9704C31.1203 14.9704 30.5314 14.7713 30.1709 14.3671C29.8104 13.9629 29.6301 13.3536 29.6301 12.5391V8.6116H30.9881V12.4064C30.9881 12.9494 31.0903 13.3355 31.3005 13.5587C31.5048 13.7819 31.7992 13.8965 32.1718 13.8965C32.4602 13.8965 32.6946 13.8543 32.8869 13.7638C33.0791 13.6733 33.2354 13.5587 33.3495 13.4079C33.4698 13.2631 33.5539 13.0821 33.6079 12.8769C33.6621 12.6718 33.6861 12.4486 33.6861 12.2073V8.61763H35.0441V14.8014ZM37.3574 12.8166C37.3995 13.2148 37.5498 13.4923 37.8082 13.6552C38.0726 13.8121 38.385 13.8965 38.7515 13.8965C38.8777 13.8965 39.0219 13.8844 39.1842 13.8664C39.3464 13.8483 39.5026 13.806 39.6408 13.7517C39.7851 13.6974 39.8992 13.613 39.9953 13.5044C40.0854 13.3958 40.1275 13.257 40.1215 13.0821C40.1156 12.9071 40.0495 12.7623 39.9292 12.6537C39.8091 12.5391 39.6588 12.4546 39.4726 12.3822C39.2863 12.3159 39.076 12.2555 38.8356 12.2073C38.5953 12.159 38.3549 12.1047 38.1086 12.0504C37.8562 11.9961 37.6099 11.9237 37.3755 11.8453C37.1411 11.7669 36.9308 11.6583 36.7446 11.5195C36.5583 11.3868 36.408 11.2118 36.3 11.0007C36.1857 10.7895 36.1317 10.5301 36.1317 10.2164C36.1317 9.87853 36.2158 9.60101 36.378 9.37175C36.5402 9.14251 36.7506 8.96151 36.9969 8.82276C37.2493 8.68399 37.5257 8.58747 37.8322 8.52714C38.1387 8.47284 38.4331 8.44268 38.7094 8.44268C39.028 8.44268 39.3343 8.47888 39.6229 8.54524C39.9112 8.6116 40.1756 8.72019 40.41 8.87705C40.6442 9.02787 40.8366 9.22697 40.9928 9.46829C41.149 9.7096 41.2451 10.0052 41.2872 10.3491H39.8692C39.8031 10.0233 39.6588 9.80011 39.4246 9.6915C39.1902 9.57688 38.9198 9.52259 38.6193 9.52259C38.5232 9.52259 38.409 9.52862 38.2768 9.54672C38.1446 9.56482 38.0244 9.59498 37.9043 9.63721C37.7901 9.67944 37.6939 9.74581 37.6099 9.83027C37.5317 9.91473 37.4896 10.0233 37.4896 10.1621C37.4896 10.331 37.5498 10.4637 37.6639 10.5663C37.7781 10.6689 37.9283 10.7533 38.1145 10.8257C38.3009 10.8921 38.5111 10.9524 38.7515 11.0007C38.9919 11.0489 39.2382 11.1032 39.4907 11.1575C39.737 11.2118 39.9773 11.2842 40.2176 11.3627C40.458 11.4411 40.6684 11.5497 40.8546 11.6884C41.0408 11.8272 41.1911 11.9961 41.3052 12.2012C41.4194 12.4064 41.4795 12.6658 41.4795 12.9675C41.4795 13.3355 41.3954 13.6431 41.2272 13.9025C41.0589 14.1559 40.8425 14.3671 40.5781 14.5239C40.3139 14.6808 40.0134 14.8014 39.6888 14.8738C39.3644 14.9462 39.0399 14.9824 38.7215 14.9824C38.3309 14.9824 37.9704 14.9402 37.6399 14.8497C37.3094 14.7592 37.021 14.6265 36.7806 14.4515C36.5402 14.2705 36.348 14.0473 36.2097 13.7819C36.0715 13.5164 35.9995 13.1967 35.9874 12.8287H37.3574V12.8166ZM41.84 8.6116H42.8676V6.75342H44.2256V8.6116H45.4513V9.63118H44.2256V12.9373C44.2256 13.0821 44.2315 13.2027 44.2436 13.3113C44.2556 13.4139 44.2857 13.5044 44.3278 13.5768C44.3697 13.6492 44.4358 13.7035 44.5259 13.7397C44.6162 13.7759 44.7303 13.794 44.8866 13.794C44.9827 13.794 45.0789 13.794 45.175 13.7879C45.2711 13.7819 45.3672 13.7698 45.4634 13.7457V14.8014C45.3132 14.8195 45.1629 14.8316 45.0247 14.8497C44.8806 14.8678 44.7363 14.8738 44.5861 14.8738C44.2256 14.8738 43.9371 14.8376 43.7208 14.7713C43.5046 14.7049 43.3303 14.6024 43.21 14.4696C43.0838 14.3369 43.0058 14.174 42.9577 13.9749C42.9156 13.7759 42.8855 13.5466 42.8796 13.2932V9.64324H41.8521V8.6116H41.84ZM46.4128 8.6116H47.6987V9.45019H47.7227C47.9149 9.08821 48.1793 8.83482 48.5219 8.67796C48.8644 8.52111 49.2309 8.44268 49.6335 8.44268C50.1202 8.44268 50.5409 8.52714 50.9014 8.70209C51.2619 8.87102 51.5624 9.10631 51.8027 9.40796C52.0431 9.7096 52.2173 10.0595 52.3375 10.4577C52.4576 10.8559 52.5178 11.2842 52.5178 11.7367C52.5178 12.153 52.4636 12.5572 52.3556 12.9433C52.2474 13.3355 52.0852 13.6793 51.8688 13.981C51.6525 14.2826 51.376 14.5179 51.0396 14.6989C50.7031 14.8799 50.3126 14.9704 49.8559 14.9704C49.6576 14.9704 49.4593 14.9523 49.261 14.9161C49.0627 14.8799 48.8703 14.8195 48.6901 14.7411C48.5098 14.6627 48.3356 14.5601 48.1853 14.4334C48.0291 14.3067 47.903 14.162 47.7948 13.9991H47.7708V17.088H46.4128V8.6116ZM51.1598 11.7126C51.1598 11.4351 51.1237 11.1636 51.0516 10.8981C50.9794 10.6327 50.8714 10.4034 50.7271 10.1983C50.5829 9.99316 50.4027 9.83027 50.1923 9.7096C49.976 9.58895 49.7296 9.52259 49.4533 9.52259C48.8824 9.52259 48.4497 9.72168 48.1613 10.1199C47.873 10.518 47.7287 11.0489 47.7287 11.7126C47.7287 12.0263 47.7648 12.3159 47.8429 12.5813C47.921 12.8468 48.0291 13.076 48.1853 13.2691C48.3356 13.4622 48.5158 13.613 48.7262 13.7216C48.9364 13.8362 49.1829 13.8905 49.4593 13.8905C49.7717 13.8905 50.0301 13.8241 50.2465 13.6974C50.4627 13.5707 50.637 13.4018 50.7752 13.2027C50.9133 12.9976 51.0155 12.7684 51.0756 12.5089C51.1297 12.2495 51.1598 11.9841 51.1598 11.7126ZM53.5573 6.25269H54.9153V7.54375H53.5573V6.25269ZM53.5573 8.6116H54.9153V14.8014H53.5573V8.6116ZM56.1291 6.25269H57.4871V14.8014H56.1291V6.25269ZM61.6512 14.9704C61.1585 14.9704 60.7198 14.8859 60.3352 14.723C59.9507 14.5601 59.6263 14.3309 59.3558 14.0473C59.0914 13.7578 58.8871 13.4139 58.7489 13.0157C58.6107 12.6175 58.5387 12.1771 58.5387 11.7005C58.5387 11.2299 58.6107 10.7956 58.7489 10.3974C58.8871 9.99919 59.0914 9.65531 59.3558 9.36572C59.6202 9.07615 59.9507 8.85292 60.3352 8.69002C60.7198 8.52714 61.1585 8.44268 61.6512 8.44268C62.1439 8.44268 62.5826 8.52714 62.9671 8.69002C63.3516 8.85292 63.6761 9.08218 63.9465 9.36572C64.2109 9.65531 64.4152 9.99919 64.5535 10.3974C64.6917 10.7956 64.7637 11.2299 64.7637 11.7005C64.7637 12.1771 64.6917 12.6175 64.5535 13.0157C64.4152 13.4139 64.2109 13.7578 63.9465 14.0473C63.6821 14.3369 63.3516 14.5601 62.9671 14.723C62.5826 14.8859 62.1439 14.9704 61.6512 14.9704ZM61.6512 13.8905C61.9516 13.8905 62.216 13.8241 62.4383 13.6974C62.6606 13.5707 62.841 13.4018 62.9851 13.1967C63.1293 12.9916 63.2315 12.7563 63.3036 12.4969C63.3697 12.2374 63.4058 11.972 63.4058 11.7005C63.4058 11.4351 63.3697 11.1756 63.3036 10.9102C63.2375 10.6447 63.1293 10.4155 62.9851 10.2104C62.841 10.0052 62.6606 9.84234 62.4383 9.71565C62.216 9.58895 61.9516 9.52259 61.6512 9.52259C61.3507 9.52259 61.0863 9.58895 60.864 9.71565C60.6417 9.84234 60.4614 10.0113 60.3173 10.2104C60.173 10.4155 60.0709 10.6447 59.9987 10.9102C59.9326 11.1756 59.8966 11.4351 59.8966 11.7005C59.8966 11.972 59.9326 12.2374 59.9987 12.4969C60.0648 12.7563 60.173 12.9916 60.3173 13.1967C60.4614 13.4018 60.6417 13.5707 60.864 13.6974C61.0863 13.8302 61.3507 13.8905 61.6512 13.8905ZM65.1603 8.6116H66.1878V6.75342H67.5459V8.6116H68.7717V9.63118H67.5459V12.9373C67.5459 13.0821 67.5519 13.2027 67.5638 13.3113C67.5759 13.4139 67.6059 13.5044 67.648 13.5768C67.69 13.6492 67.7561 13.7035 67.8463 13.7397C67.9364 13.7759 68.0507 13.794 68.2069 13.794C68.303 13.794 68.3991 13.794 68.4952 13.7879C68.5914 13.7819 68.6875 13.7698 68.7836 13.7457V14.8014C68.6335 14.8195 68.4832 14.8316 68.3451 14.8497C68.2008 14.8678 68.0566 14.8738 67.9064 14.8738C67.5459 14.8738 67.2575 14.8376 67.0411 14.7713C66.8248 14.7049 66.6505 14.6024 66.5304 14.4696C66.4042 14.3369 66.3261 14.174 66.2779 13.9749C66.236 13.7759 66.2059 13.5466 66.1999 13.2932V9.64324H65.1724V8.6116H65.1603Z" fill="black"/>
<path d="M17.005 6.25351H10.7799L8.85711 0.304932L6.92828 6.25351L0.703125 6.24747L5.74454 9.92762L3.81571 15.8701L8.85711 12.1961L13.8925 15.8701L11.9697 9.92762L17.005 6.25351Z" fill="#00B67A"/>
<path d="M12.4007 11.2711L11.968 9.92578L8.85547 12.1942L12.4007 11.2711Z" fill="#005128"/>
</g>
<defs>
<clipPath id="clip0_1712_2965">
<rect width="80" height="44" fill="white" transform="translate(0.703125)"/>
</clipPath>
</defs>
</svg>
