<svg width="107" height="59" viewBox="0 0 107 59" fill="none" xmlns="http://www.w3.org/2000/svg">
<g clip-path="url(#clip0_1146_5004)">
<mask id="mask0_1146_5004" style="mask-type:luminance" maskUnits="userSpaceOnUse" x="0" y="0" width="108" height="59">
<path d="M107.006 0.000747681H0.335938V58.6692H107.006V0.000747681Z" fill="white"/>
</mask>
<g mask="url(#mask0_1146_5004)">
<path d="M10.1502 55.2742L4.08507 58.6692L5.43935 51.8516L0.335938 47.1325L7.23859 46.3135L10.1502 40.002L13.0619 46.3135L19.9646 47.1325L14.8607 51.8516L16.2154 58.6692L10.1502 55.2742Z" fill="#F70340"/>
<path d="M29.7829 55.2742L23.7178 58.6692L25.0721 51.8516L19.9688 47.1325L26.8714 46.3135L29.7829 40.002L32.6946 46.3135L39.5972 47.1325L34.4935 51.8516L35.8482 58.6692L29.7829 55.2742Z" fill="#F70340"/>
<path d="M49.412 55.2742L43.3468 58.6692L44.7012 51.8516L39.5977 47.1325L46.5003 46.3135L49.412 40.002L52.3237 46.3135L59.2263 47.1325L54.1224 51.8516L55.4771 58.6692L49.412 55.2742Z" fill="#F70340"/>
<path d="M69.0409 55.2742L62.9756 58.6692L64.3299 51.8516L59.2266 47.1325L66.1292 46.3135L69.0409 40.002L71.9524 46.3135L78.8552 47.1325L73.7513 51.8516L75.106 58.6692L69.0409 55.2742Z" fill="#F70340"/>
<path d="M88.9972 54.6925L88.6716 54.5102L88.346 54.6925L83.542 57.3816L84.6147 51.9814L84.6875 51.6154L84.4135 51.3621L80.3711 47.6242L85.8386 46.9755L86.2091 46.9315L86.3654 46.5927L88.6716 41.5935L90.978 46.5929L91.1342 46.9315L91.5048 46.9755L96.9721 47.6242L92.9295 51.3621L92.6555 51.6154L92.7281 51.9814L93.8011 57.3815L88.9972 54.6925Z" stroke="#F70340" stroke-width="1.33337"/>
<path d="M27.9375 14.0664H31.3741C32.3571 14.0128 33.3254 14.3224 34.0942 14.936C34.4286 15.2311 34.6925 15.5974 34.8664 16.0078C35.0403 16.4181 35.1196 16.8622 35.0988 17.3073C35.1217 17.7549 35.0449 18.2019 34.8736 18.6163C34.7024 19.0305 34.441 19.4018 34.1085 19.703C33.3325 20.3217 32.3544 20.6315 31.3629 20.5729H30.348V23.5756H27.9375V14.0664ZM30.3445 18.6709H31.0088C32.1202 18.6709 32.6757 18.2164 32.6757 17.3073C32.6901 17.1189 32.6602 16.9297 32.5884 16.7549C32.5167 16.5801 32.4048 16.4243 32.2622 16.3002C31.8934 16.0525 31.4521 15.9358 31.0088 15.9688H30.3445V18.6709Z" fill="#1C0E12"/>
<path d="M36.4727 14.0664H39.9092C40.8967 14.0069 41.8716 14.312 42.6484 14.9235C42.9781 15.2186 43.2374 15.5835 43.4077 15.9915C43.5779 16.3997 43.6546 16.8405 43.6323 17.2819C43.6362 17.7921 43.5067 18.2945 43.2565 18.7395C43.0054 19.1861 42.637 19.556 42.191 19.8092L44.5596 23.5756H41.802L40.1348 20.4979H39.9409C39.8616 20.4979 39.7858 20.4979 39.715 20.5042C39.6442 20.5106 39.5961 20.5105 39.5708 20.5105H38.8835V23.5761H36.4768L36.4727 14.0664ZM38.8791 18.608H39.5666C40.6699 18.608 41.2212 18.1618 41.2208 17.2693C41.2355 17.0857 41.2068 16.9013 41.1372 16.7307C41.0676 16.5602 40.9592 16.4083 40.8203 16.2871C40.4574 16.0483 40.0252 15.9368 39.592 15.9704H38.8771L38.8791 18.608Z" fill="#1C0E12"/>
<path d="M50.1124 23.7755C49.2058 23.7884 48.3104 23.5778 47.5049 23.1623C46.7375 22.7623 46.0953 22.1584 45.6501 21.4172C45.2062 20.6489 44.9689 19.779 44.9611 18.8921C44.9534 18.0052 45.1757 17.1314 45.6062 16.3557C46.0418 15.5994 46.674 14.9747 47.436 14.5476C48.2514 14.0864 49.1754 13.8509 50.1124 13.8657C51.0188 13.8529 51.9146 14.0637 52.72 14.4791C53.4877 14.8789 54.1297 15.4828 54.5749 16.2242C55.0189 16.9923 55.2561 17.8621 55.2639 18.7489C55.2716 19.6358 55.0494 20.5095 54.6188 21.2851C54.1829 22.0412 53.5505 22.6659 52.7887 23.0932C51.9734 23.5546 51.0495 23.79 50.1124 23.7755ZM50.1124 21.559C50.5696 21.5664 51.0204 21.4496 51.4163 21.2213C51.8037 20.9925 52.1204 20.6614 52.3315 20.2644C52.5638 19.8231 52.6803 19.3303 52.6699 18.8317C52.6771 18.3465 52.5695 17.8662 52.3563 17.4301C52.1555 17.023 51.8443 16.6805 51.4576 16.4417C51.0523 16.1953 50.5848 16.0695 50.1104 16.0791C49.6531 16.0719 49.2026 16.1886 48.8066 16.4169C48.419 16.6455 48.1022 16.9769 47.8915 17.3741C47.6591 17.8154 47.5425 18.3084 47.5529 18.8069C47.5457 19.2923 47.6534 19.7724 47.8667 20.2086C48.0671 20.6159 48.3784 20.9586 48.7653 21.197C49.1705 21.444 49.6377 21.5704 50.1124 21.5612V21.559Z" fill="#1C0E12"/>
<path d="M58.8235 18.6207L55.7275 14.0663H58.6736L60.3906 16.9567L62.0577 14.0663H64.9283L61.809 18.7209L65.1183 23.576H62.1476L60.2173 20.3981L58.3747 23.576H55.5039L58.8235 18.6207Z" fill="#1C0E12"/>
<path d="M68.9248 19.7094L65.4883 14.0663H68.2714L70.2016 17.7572L72.1445 14.0663H74.852L71.4049 19.7094V23.5755H68.9233L68.9248 19.7094Z" fill="#1C0E12"/>
<path d="M75.3945 14.0664H78.0379L79.4653 20.322L81.233 14.1915H83.3386L85.1316 20.2075L86.5351 14.0644H89.1787L86.3581 23.5733H84.0773L82.2597 17.4549L80.4799 23.5733H78.1986L75.3945 14.0664Z" fill="#1C0E12"/>
<path d="M92.2927 14.0663H94.9004L98.6357 23.5755H95.9922L95.252 21.3859H91.7798L91.0528 23.5755H88.5586L92.2927 14.0663ZM94.5989 19.4712L93.5086 16.2306L92.4184 19.4712H94.5989Z" fill="#1C0E12"/>
<path d="M101.077 19.7094L97.6406 14.0663H100.423L102.353 17.7572L104.297 14.0663H107.004L103.557 19.7094V23.5755H101.075L101.077 19.7094Z" fill="#1C0E12"/>
<path d="M10.864 29.0447C8.25097 29.0414 5.73227 28.0695 3.79651 26.3174C1.86075 24.5654 0.645811 22.1582 0.387563 19.5627C0.129314 16.9673 0.846156 14.3687 2.39886 12.2708C3.95154 10.1729 6.22943 8.72545 8.79079 8.20919C11.3521 7.69293 14.0145 8.14464 16.261 9.47672C18.5076 10.8088 20.1784 12.9263 20.9494 15.4184C21.7203 17.9106 21.5363 20.5998 20.4334 22.9643C19.3304 25.3287 17.3869 27.2 14.9799 28.2151C13.6777 28.7654 12.278 29.0475 10.864 29.0447ZM2.9335 14.796L14.5649 26.4061V23.6418L5.70273 14.796H2.9335ZM3.1173 21.0618V23.4577L5.88679 26.2218H8.28764L3.1173 21.0618ZM5.24114 18.9419V21.3398L8.01115 24.104H10.4115L5.24114 18.9419ZM9.94938 14.796H7.55008L14.5665 21.799V19.4031L9.94938 14.796ZM11.7949 14.796L14.5649 17.5608V14.796H11.7949Z" fill="#F70340"/>
<path fill-rule="evenodd" clip-rule="evenodd" d="M88.7389 40.1432L88.6737 40.002L85.7621 46.3135L78.8594 47.1325L83.9629 51.8516L82.6086 58.6692L88.6737 55.2742L88.7389 55.3107V40.1432Z" fill="#F70340"/>
</g>
</g>
<defs>
<clipPath id="clip0_1146_5004">
<rect width="106.67" height="58.6685" fill="white" transform="translate(0.335938 0.000747681)"/>
</clipPath>
</defs>
</svg>
