<svg width="31" height="31" viewBox="0 0 31 31" fill="none" xmlns="http://www.w3.org/2000/svg">
<path d="M30.9069 28.7718L20.8435 18.7084C22.4052 16.6896 23.2499 14.2212 23.2499 11.6249C23.2499 8.51721 22.037 5.60323 19.8438 3.40611C17.6505 1.20899 14.7288 0 11.6249 0C8.52109 0 5.59935 1.21287 3.40611 3.40611C1.20899 5.59935 0 8.51721 0 11.6249C0 14.7288 1.21287 17.6505 3.40611 19.8438C5.59935 22.0409 8.51721 23.2499 11.6249 23.2499C14.2212 23.2499 16.6857 22.4052 18.7045 20.8474L28.7679 30.9069C28.7974 30.9364 28.8324 30.9598 28.871 30.9758C28.9095 30.9918 28.9509 31 28.9926 31C29.0344 31 29.0757 30.9918 29.1143 30.9758C29.1528 30.9598 29.1879 30.9364 29.2174 30.9069L30.9069 29.2212C30.9364 29.1917 30.9598 29.1567 30.9758 29.1181C30.9918 29.0796 31 29.0382 31 28.9965C31 28.9548 30.9918 28.9134 30.9758 28.8749C30.9598 28.8363 30.9364 28.8013 30.9069 28.7718ZM17.7629 17.7629C16.1199 19.402 13.9422 20.3049 11.6249 20.3049C9.30771 20.3049 7.12997 19.402 5.48698 17.7629C3.84786 16.1199 2.94499 13.9422 2.94499 11.6249C2.94499 9.30771 3.84786 7.12609 5.48698 5.48698C7.12997 3.84786 9.30771 2.94499 11.6249 2.94499C13.9422 2.94499 16.1238 3.84398 17.7629 5.48698C19.402 7.12997 20.3049 9.30771 20.3049 11.6249C20.3049 13.9422 19.402 16.1238 17.7629 17.7629Z" fill="white"/>
</svg>
