<svg xmlns="http://www.w3.org/2000/svg" width="46" height="46" viewBox="0 0 46 46"><defs><linearGradient id="n38da" x1="19.68" x2="19.68" y1="20.07" y2="37.28" gradientUnits="userSpaceOnUse"><stop offset="0" stop-color="#7e32ff"/><stop offset="1" stop-color="#033fff"/></linearGradient></defs><g><g><g><path fill="#10233e" d="M42.724 32.755h-2.943a4.372 4.372 0 0 1-4.367-4.367 4.372 4.372 0 0 1 4.367-4.367h2.943zm-2.848 5.602a4.372 4.372 0 0 1-4.367 4.367H7.026a4.372 4.372 0 0 1-4.367-4.367V12.524a6.99 6.99 0 0 0 4.367 1.528H35.51a4.372 4.372 0 0 1 4.367 4.367v2.943h-.095c-3.874 0-7.026 3.152-7.026 7.026a7.034 7.034 0 0 0 7.026 7.027h.095zm4.178-16.995h-1.519V18.42a7.034 7.034 0 0 0-7.026-7.026H7.026A4.372 4.372 0 0 1 2.66 7.026 4.372 4.372 0 0 1 7.026 2.66h31.331a1.33 1.33 0 1 0 0-2.659H7.027A7.034 7.034 0 0 0 0 7.026v31.331a7.034 7.034 0 0 0 7.026 7.026H35.51a7.034 7.034 0 0 0 7.026-7.026v-2.943h1.519a1.33 1.33 0 0 0 1.33-1.33V22.693a1.33 1.33 0 0 0-1.33-1.33z"/></g><g><path fill="#10233e" d="M5.696 7.026c0 .734.596 1.33 1.33 1.33h32.755a1.33 1.33 0 1 0 0-2.66H7.026a1.33 1.33 0 0 0-1.33 1.33z"/></g><g><path fill="url(#n38da)" d="M19.716 27.448a1.23 1.23 0 0 1 0-2.458c.436 0 .895.222 1.33.642a1.229 1.229 0 1 0 1.71-1.766c-.625-.604-1.249-.946-1.81-1.132v-1.432a1.23 1.23 0 1 0-2.459 0v1.44a3.693 3.693 0 0 0-2.458 3.477 3.692 3.692 0 0 0 3.687 3.687 1.23 1.23 0 0 1 0 2.458c-.525 0-1.092-.33-1.596-.93a1.229 1.229 0 1 0-1.882 1.583c.657.781 1.43 1.326 2.25 1.6v1.435a1.23 1.23 0 1 0 2.457 0v-1.44a3.694 3.694 0 0 0 2.459-3.476 3.692 3.692 0 0 0-3.688-3.688z"/></g></g></g></svg>