<svg xmlns="http://www.w3.org/2000/svg" width="54" height="48" viewBox="0 0 54 48"><defs><linearGradient id="7ds7a" x1="45.28" x2="45.28" y1="24.29" y2="47.77" gradientUnits="userSpaceOnUse"><stop offset="0" stop-color="#7e32ff"/><stop offset="1" stop-color="#033fff"/></linearGradient></defs><g><g><path fill="#10233e" d="M24 38.334c.124.483.561.84 1.082.84h3.034c.52 0 .958-.357 1.082-.84h3.676a1.116 1.116 0 1 0 0-2.232h-29a3.523 3.523 0 0 0-3.519 3.52c0 1.94 1.579 3.519 3.52 3.519h28.999a1.116 1.116 0 1 0 0-2.233h-29c-.71 0-1.286-.577-1.286-1.287s.577-1.287 1.286-1.287zM5.75 31.293V3.105h41.699v16.86a1.116 1.116 0 1 0 2.232 0V1.989c0-.617-.5-1.116-1.116-1.116H4.633c-.616 0-1.116.5-1.116 1.116v30.42c0 .616.5 1.116 1.116 1.116h28.241a1.116 1.116 0 1 0 0-2.232z"/></g><g><path fill="url(#7ds7a)" d="M45.276 29.126c-.617 0-1.117.5-1.117 1.116v2.76a1.116 1.116 0 1 0 2.233 0v-2.76c0-.616-.5-1.116-1.116-1.116zm5.944 10.465a5.951 5.951 0 0 1-5.944 5.945 5.95 5.95 0 0 1-5.945-5.945v-7.125a5.95 5.95 0 0 1 5.945-5.945 5.951 5.951 0 0 1 5.944 5.945zM45.276 24.29c-4.509 0-8.177 3.668-8.177 8.177v7.125c0 4.509 3.668 8.177 8.177 8.177 4.509 0 8.177-3.668 8.177-8.177v-7.125c0-4.509-3.668-8.177-8.177-8.177z"/></g></g></svg>