<svg xmlns="http://www.w3.org/2000/svg" width="43" height="44" viewBox="0 0 43 44"><defs><linearGradient id="evpba" x1="28.76" x2="28.76" y1="8.79" y2="19.87" gradientUnits="userSpaceOnUse"><stop offset="0" stop-color="#7e32ff"/><stop offset="1" stop-color="#033fff"/></linearGradient><linearGradient id="evpbb" x1="7.33" x2="7.33" y1="29.55" y2="43.59" gradientUnits="userSpaceOnUse"><stop offset="0" stop-color="#7e32ff"/><stop offset="1" stop-color="#033fff"/></linearGradient></defs><g><g><g><g><g><path fill="url(#evpba)" d="M30.886 16.464a3.017 3.017 0 0 1-4.262 0 2.994 2.994 0 0 1-.883-2.131c0-.805.313-1.562.883-2.131a3.004 3.004 0 0 1 2.13-.882c.772 0 1.544.294 2.132.882.569.569.882 1.326.882 2.13 0 .806-.313 1.562-.882 2.132zm1.788-6.05a5.55 5.55 0 0 0-7.839 0 5.506 5.506 0 0 0-1.623 3.919c0 1.48.576 2.872 1.623 3.919a5.525 5.525 0 0 0 3.92 1.62c1.419 0 2.838-.54 3.919-1.62a5.507 5.507 0 0 0 1.623-3.92c0-1.48-.576-2.872-1.623-3.919z"/></g></g></g><g><g><g><path fill="#10233e" d="M39.992 5.777l-.292 1.7a31.187 31.187 0 0 1-2.518 8.002c-1.861 3.956-4.684 7.552-8.161 10.399l-5.738 4.697-10.492-10.492 5.309-7.091c2.805-3.243 6.27-5.821 10.129-7.519a31.215 31.215 0 0 1 7.278-2.189l1.7-.292a2.38 2.38 0 0 1 2.113.672c.562.56.807 1.331.672 2.113zM26.04 39.25a1.93 1.93 0 0 1-1.333 1.393 1.93 1.93 0 0 1-1.884-.412 1.977 1.977 0 0 1-.531-.77l-1.323-3.472 7.547-6.37zm-8.089-4.31a.85.85 0 0 1-1.142-.057l-8.11-8.11a.858.858 0 0 1-.082-1.109l.41-.555 2.232-2.981 10.058 10.057zM3.998 21.758a1.98 1.98 0 0 1-.8-.486 1.93 1.93 0 0 1-.522-1.857 1.93 1.93 0 0 1 1.313-1.411l9.37-3.002-5.824 7.871zM41.109 1.875A4.947 4.947 0 0 0 36.779.5l-1.7.292a33.743 33.743 0 0 0-7.869 2.367c-4.259 1.873-8.074 4.728-11.145 8.32L3.218 15.596a4.467 4.467 0 0 0-3 3.225 4.467 4.467 0 0 0 1.191 4.24c.51.51 1.142.893 1.828 1.11l2.87.904a3.406 3.406 0 0 0 .804 3.488l8.11 8.11a3.372 3.372 0 0 0 3.769.698l1.138 2.99a4.518 4.518 0 0 0 1.214 1.76 4.467 4.467 0 0 0 4.303.942 4.467 4.467 0 0 0 3.044-3.183l3.37-13.11c3.202-2.897 5.817-6.4 7.612-10.213a33.716 33.716 0 0 0 2.722-8.65l.292-1.701a4.948 4.948 0 0 0-1.376-4.33z"/></g></g></g><g><g><g><path fill="url(#evpbb)" d="M3.197 40.698c-.267-1.44-.761-5.018.278-7.687l.074.716a7.446 7.446 0 0 0 2.139 4.491 7.446 7.446 0 0 0 4.494 2.133l.696.07c-2.669 1.037-6.243.544-7.681.277zm11.068-1.096a2.16 2.16 0 0 0-1.864-1.567l-1.963-.2a4.915 4.915 0 0 1-4.373-4.368l-.204-1.976a2.16 2.16 0 0 0-1.568-1.862 2.112 2.112 0 0 0-2.366.882C.848 32.156.305 34.359.313 37.058c.006 2.098.355 3.941.504 4.637a1.806 1.806 0 0 0 1.384 1.383c.695.15 2.538.498 4.636.504h.057c2.673 0 4.857-.543 6.49-1.614a2.111 2.111 0 0 0 .88-2.367z"/></g></g></g></g></g></svg>