<svg width="652" height="168" viewBox="0 0 652 168" fill="none" xmlns="http://www.w3.org/2000/svg">
<path d="M217.557 80.5156H244.534V53.5724H217.557V80.5156ZM244.524 80.698H271.5V107.641H244.524V80.698ZM172.928 26.9433H0V0L172.928 0V13.4716V26.9433ZM217.557 26.9433H50.2529V53.8865H217.557V26.9433Z" fill="url(#paint0_linear)"/>
<path d="M66.1027 45.14C65.4761 45.14 64.9027 45.04 64.3827 44.84C63.8627 44.6267 63.4161 44.3133 63.0427 43.9C62.6827 43.4867 62.4027 42.9733 62.2027 42.36C62.0027 41.7467 61.9027 41.04 61.9027 40.24V39.56C61.9027 38.8133 62.0027 38.1533 62.2027 37.58C62.4161 36.9933 62.7027 36.5 63.0627 36.1C63.4361 35.7 63.8761 35.3933 64.3827 35.18C64.9027 34.9667 65.4761 34.86 66.1027 34.86C66.6894 34.86 67.2161 34.94 67.6827 35.1C68.1494 35.2467 68.5494 35.46 68.8827 35.74C69.2161 36.0067 69.4827 36.32 69.6827 36.68C69.8827 37.0267 70.0227 37.4 70.1027 37.8H68.7427C68.5961 37.3067 68.3227 36.8933 67.9227 36.56C67.5227 36.2267 66.9494 36.06 66.2027 36.06C65.3494 36.06 64.6427 36.36 64.0827 36.96C63.5361 37.56 63.2627 38.4267 63.2627 39.56V40.24C63.2627 41.4667 63.5427 42.3933 64.1027 43.02C64.6627 43.6333 65.3627 43.94 66.2027 43.94C66.9494 43.94 67.5227 43.7667 67.9227 43.42C68.3227 43.0733 68.5961 42.6 68.7427 42H70.1027C70.0227 42.4533 69.8827 42.8733 69.6827 43.26C69.4827 43.6333 69.2161 43.96 68.8827 44.24C68.5494 44.52 68.1494 44.74 67.6827 44.9C67.2161 45.06 66.6894 45.14 66.1027 45.14ZM72.6004 35H73.9204V39.3H76.1604C76.1871 38.6067 76.3071 37.9867 76.5204 37.44C76.7337 36.88 77.0271 36.4133 77.4004 36.04C77.7737 35.6533 78.2137 35.36 78.7204 35.16C79.2271 34.96 79.7804 34.86 80.3804 34.86C81.0071 34.86 81.5804 34.9667 82.1004 35.18C82.6204 35.3933 83.0604 35.7067 83.4204 36.12C83.7937 36.52 84.0804 37.02 84.2804 37.62C84.4937 38.2067 84.6004 38.8867 84.6004 39.66V40.34C84.6004 41.1 84.4937 41.78 84.2804 42.38C84.0804 42.98 83.7937 43.4867 83.4204 43.9C83.0471 44.3 82.6004 44.6067 82.0804 44.82C81.5604 45.0333 80.9937 45.14 80.3804 45.14C79.7537 45.14 79.1804 45.04 78.6604 44.84C78.1537 44.6267 77.7137 44.3267 77.3404 43.94C76.9804 43.54 76.6937 43.0533 76.4804 42.48C76.2671 41.9067 76.1604 41.2467 76.1604 40.5H73.9204V45H72.6004V35ZM80.3804 43.94C81.2071 43.94 81.8871 43.64 82.4204 43.04C82.9671 42.44 83.2404 41.54 83.2404 40.34V39.66C83.2404 39.06 83.1671 38.54 83.0204 38.1C82.8737 37.6467 82.6737 37.2733 82.4204 36.98C82.1671 36.6733 81.8671 36.4467 81.5204 36.3C81.1737 36.14 80.7937 36.06 80.3804 36.06C79.5404 36.06 78.8537 36.3533 78.3204 36.94C77.7871 37.5267 77.5204 38.4 77.5204 39.56V40.24C77.5204 41.48 77.7871 42.4067 78.3204 43.02C78.8671 43.6333 79.5537 43.94 80.3804 43.94ZM85.9098 43.8H87.0098C87.2231 43.4667 87.3964 43.1267 87.5298 42.78C87.6764 42.4333 87.7898 42.04 87.8698 41.6C87.9631 41.16 88.0231 40.6533 88.0498 40.08C88.0898 39.4933 88.1098 38.8 88.1098 38V35H94.9098V43.8H96.2098V47.6H94.9298V45H87.1898V47.6H85.9098V43.8ZM93.5898 43.8V36.2H89.3898V38C89.3898 38.72 89.3764 39.3533 89.3498 39.9C89.3231 40.4467 89.2764 40.9467 89.2098 41.4C89.1431 41.84 89.0498 42.2533 88.9298 42.64C88.8098 43.0133 88.6631 43.3867 88.4898 43.76V43.8H93.5898ZM101.196 45.14C100.09 45.14 99.2632 44.8867 98.7165 44.38C98.1698 43.86 97.8965 43.1467 97.8965 42.24C97.8965 41.2933 98.2232 40.54 98.8765 39.98C99.5298 39.42 100.57 39.14 101.996 39.14H104.576V38.4C104.576 37.6 104.383 37.02 103.996 36.66C103.61 36.2867 102.976 36.1 102.096 36.1C101.283 36.1 100.683 36.24 100.296 36.52C99.9232 36.8 99.7098 37.16 99.6565 37.6H98.2965C98.3232 37.24 98.4232 36.8933 98.5965 36.56C98.7698 36.2267 99.0098 35.9333 99.3165 35.68C99.6365 35.4267 100.03 35.2267 100.496 35.08C100.963 34.9333 101.496 34.86 102.096 34.86C103.39 34.86 104.343 35.16 104.956 35.76C105.583 36.3467 105.896 37.2267 105.896 38.4V45H104.856L104.696 43.3H104.656C104.256 43.9 103.756 44.36 103.156 44.68C102.57 44.9867 101.916 45.14 101.196 45.14ZM101.296 43.9C101.776 43.9 102.216 43.8267 102.616 43.68C103.016 43.52 103.363 43.3067 103.656 43.04C103.95 42.76 104.176 42.4333 104.336 42.06C104.496 41.6733 104.576 41.2533 104.576 40.8V40.26H102.096C101.07 40.26 100.336 40.44 99.8965 40.8C99.4698 41.16 99.2565 41.64 99.2565 42.24C99.2565 42.7467 99.4165 43.1533 99.7365 43.46C100.07 43.7533 100.59 43.9 101.296 43.9ZM112.902 43.8H114.002C114.215 43.4667 114.389 43.1267 114.522 42.78C114.669 42.4333 114.782 42.04 114.862 41.6C114.955 41.16 115.015 40.6533 115.042 40.08C115.082 39.4933 115.102 38.8 115.102 38V35H121.902V43.8H123.202V47.6H121.922V45H114.182V47.6H112.902V43.8ZM120.582 43.8V36.2H116.382V38C116.382 38.72 116.369 39.3533 116.342 39.9C116.315 40.4467 116.269 40.9467 116.202 41.4C116.135 41.84 116.042 42.2533 115.922 42.64C115.802 43.0133 115.655 43.3867 115.482 43.76V43.8H120.582ZM129.193 45.14C127.847 45.14 126.773 44.7267 125.973 43.9C125.187 43.0733 124.793 41.8867 124.793 40.34V39.66C124.793 38.9 124.893 38.22 125.093 37.62C125.307 37.02 125.607 36.52 125.993 36.12C126.38 35.7067 126.84 35.3933 127.373 35.18C127.92 34.9667 128.527 34.86 129.193 34.86C130.54 34.86 131.607 35.2733 132.393 36.1C133.193 36.9267 133.593 38.1133 133.593 39.66V40.34C133.593 41.1 133.487 41.78 133.273 42.38C133.073 42.98 132.78 43.4867 132.393 43.9C132.007 44.3 131.54 44.6067 130.993 44.82C130.46 45.0333 129.86 45.14 129.193 45.14ZM129.193 43.94C130.113 43.94 130.847 43.64 131.393 43.04C131.953 42.44 132.233 41.54 132.233 40.34V39.66C132.233 38.4733 131.953 37.58 131.393 36.98C130.833 36.3667 130.1 36.06 129.193 36.06C128.273 36.06 127.533 36.36 126.973 36.96C126.427 37.56 126.153 38.46 126.153 39.66V40.34C126.153 41.5267 126.433 42.4267 126.993 43.04C127.553 43.64 128.287 43.94 129.193 43.94ZM140.309 45.14C138.949 45.14 137.869 44.7067 137.069 43.84C136.283 42.96 135.889 41.5933 135.889 39.74V38.66C135.889 37.9 135.923 37.18 135.989 36.5C136.056 35.82 136.169 35.2 136.329 34.64C136.503 34.08 136.736 33.5867 137.029 33.16C137.323 32.72 137.703 32.36 138.169 32.08C138.583 31.84 138.989 31.68 139.389 31.6C139.803 31.5067 140.236 31.44 140.689 31.4C141.143 31.36 141.629 31.3133 142.149 31.26C142.669 31.1933 143.249 31.06 143.889 30.86V32.08C143.383 32.2667 142.889 32.3867 142.409 32.44C141.943 32.4933 141.489 32.54 141.049 32.58C140.623 32.62 140.216 32.6733 139.829 32.74C139.443 32.8067 139.089 32.94 138.769 33.14C138.276 33.46 137.903 33.9133 137.649 34.5C137.409 35.0867 137.249 35.8533 137.169 36.8H137.209C137.556 36.24 138.009 35.8133 138.569 35.52C139.143 35.2133 139.803 35.06 140.549 35.06C141.149 35.06 141.703 35.1667 142.209 35.38C142.716 35.5933 143.149 35.9 143.509 36.3C143.883 36.7 144.169 37.1933 144.369 37.78C144.583 38.3667 144.689 39.0267 144.689 39.76V40.44C144.689 41.1733 144.583 41.8333 144.369 42.42C144.156 42.9933 143.856 43.4867 143.469 43.9C143.096 44.3 142.636 44.6067 142.089 44.82C141.556 45.0333 140.963 45.14 140.309 45.14ZM140.309 43.94C141.216 43.94 141.943 43.6467 142.489 43.06C143.049 42.46 143.329 41.5867 143.329 40.44V39.76C143.329 38.6133 143.049 37.7467 142.489 37.16C141.943 36.56 141.216 36.26 140.309 36.26C139.376 36.26 138.629 36.5533 138.069 37.14C137.523 37.7267 137.249 38.6 137.249 39.76V40.44C137.249 41.5733 137.529 42.44 138.089 43.04C138.649 43.64 139.389 43.94 140.309 43.94ZM147.483 35H148.523L148.683 36.5H148.723C149.163 35.9267 149.65 35.5133 150.183 35.26C150.717 34.9933 151.343 34.86 152.063 34.86C152.65 34.86 153.19 34.9667 153.683 35.18C154.177 35.38 154.597 35.6867 154.943 36.1C155.303 36.5 155.583 37 155.783 37.6C155.983 38.2 156.083 38.8867 156.083 39.66V40.34C156.083 41.1133 155.983 41.8 155.783 42.4C155.583 42.9867 155.303 43.4867 154.943 43.9C154.583 44.3 154.157 44.6067 153.663 44.82C153.17 45.0333 152.637 45.14 152.063 45.14C150.623 45.14 149.55 44.6267 148.843 43.6H148.803V49H147.483V35ZM151.763 43.94C152.643 43.94 153.357 43.6467 153.903 43.06C154.45 42.46 154.723 41.5533 154.723 40.34V39.66C154.723 38.4733 154.443 37.58 153.883 36.98C153.337 36.3667 152.63 36.06 151.763 36.06C150.883 36.06 150.17 36.36 149.623 36.96C149.077 37.5467 148.803 38.4467 148.803 39.66V40.34C148.803 41.5267 149.077 42.4267 149.623 43.04C150.183 43.64 150.897 43.94 151.763 43.94ZM161.489 45.14C160.383 45.14 159.556 44.8867 159.009 44.38C158.463 43.86 158.189 43.1467 158.189 42.24C158.189 41.2933 158.516 40.54 159.169 39.98C159.823 39.42 160.863 39.14 162.289 39.14H164.869V38.4C164.869 37.6 164.676 37.02 164.289 36.66C163.903 36.2867 163.269 36.1 162.389 36.1C161.576 36.1 160.976 36.24 160.589 36.52C160.216 36.8 160.003 37.16 159.949 37.6H158.589C158.616 37.24 158.716 36.8933 158.889 36.56C159.063 36.2267 159.303 35.9333 159.609 35.68C159.929 35.4267 160.323 35.2267 160.789 35.08C161.256 34.9333 161.789 34.86 162.389 34.86C163.683 34.86 164.636 35.16 165.249 35.76C165.876 36.3467 166.189 37.2267 166.189 38.4V45H165.149L164.989 43.3H164.949C164.549 43.9 164.049 44.36 163.449 44.68C162.863 44.9867 162.209 45.14 161.489 45.14ZM161.589 43.9C162.069 43.9 162.509 43.8267 162.909 43.68C163.309 43.52 163.656 43.3067 163.949 43.04C164.243 42.76 164.469 42.4333 164.629 42.06C164.789 41.6733 164.869 41.2533 164.869 40.8V40.26H162.389C161.363 40.26 160.629 40.44 160.189 40.8C159.763 41.16 159.549 41.64 159.549 42.24C159.549 42.7467 159.709 43.1533 160.029 43.46C160.363 43.7533 160.883 43.9 161.589 43.9ZM168.195 43.94H168.495C168.908 43.94 169.228 43.8 169.455 43.52C169.682 43.24 169.848 42.8333 169.955 42.3C170.075 41.7667 170.142 41.12 170.155 40.36C170.182 39.6 170.195 38.7467 170.195 37.8V35H176.995V45H175.675V36.2H171.515V37.8C171.515 38.88 171.495 39.8667 171.455 40.76C171.428 41.6533 171.315 42.4267 171.115 43.08C170.928 43.7333 170.628 44.24 170.215 44.6C169.815 44.96 169.242 45.14 168.495 45.14H168.195V43.94ZM180.393 35H181.713V43.5H181.753L186.753 35H188.593V45H187.273V36.5H187.233L182.233 45H180.393V35ZM195.595 45.14C194.968 45.14 194.395 45.04 193.875 44.84C193.355 44.6267 192.908 44.3133 192.535 43.9C192.175 43.4867 191.895 42.9733 191.695 42.36C191.495 41.7467 191.395 41.04 191.395 40.24V39.56C191.395 38.8133 191.495 38.1533 191.695 37.58C191.908 36.9933 192.195 36.5 192.555 36.1C192.928 35.7 193.368 35.3933 193.875 35.18C194.395 34.9667 194.968 34.86 195.595 34.86C196.182 34.86 196.708 34.94 197.175 35.1C197.642 35.2467 198.042 35.46 198.375 35.74C198.708 36.0067 198.975 36.32 199.175 36.68C199.375 37.0267 199.515 37.4 199.595 37.8H198.235C198.088 37.3067 197.815 36.8933 197.415 36.56C197.015 36.2267 196.442 36.06 195.695 36.06C194.842 36.06 194.135 36.36 193.575 36.96C193.028 37.56 192.755 38.4267 192.755 39.56V40.24C192.755 41.4667 193.035 42.3933 193.595 43.02C194.155 43.6333 194.855 43.94 195.695 43.94C196.442 43.94 197.015 43.7667 197.415 43.42C197.815 43.0733 198.088 42.6 198.235 42H199.595C199.515 42.4533 199.375 42.8733 199.175 43.26C198.975 43.6333 198.708 43.96 198.375 44.24C198.042 44.52 197.642 44.74 197.175 44.9C196.708 45.06 196.182 45.14 195.595 45.14ZM202.093 35H203.413V38.6H205.693C206.986 38.6 207.939 38.8867 208.553 39.46C209.179 40.0333 209.493 40.8133 209.493 41.8C209.493 42.7733 209.179 43.5533 208.553 44.14C207.926 44.7133 206.973 45 205.693 45H202.093V35ZM203.413 39.8V43.8H205.593C206.513 43.8 207.166 43.6267 207.553 43.28C207.939 42.9333 208.133 42.44 208.133 41.8C208.133 41.16 207.933 40.6667 207.533 40.32C207.146 39.9733 206.499 39.8 205.593 39.8H203.413Z" fill="white"/>
<path d="M21.5512 18.14C20.6845 18.14 19.8978 17.9933 19.1912 17.7C18.4845 17.4067 17.8712 16.98 17.3512 16.42C16.8445 15.8467 16.4512 15.1467 16.1712 14.32C15.8912 13.48 15.7512 12.52 15.7512 11.44V10.36C15.7512 9.33333 15.8912 8.42 16.1712 7.62C16.4645 6.80667 16.8645 6.12667 17.3712 5.58C17.8778 5.02 18.4845 4.59333 19.1912 4.3C19.9112 4.00667 20.6978 3.86 21.5512 3.86C22.4045 3.86 23.1845 4.00667 23.8912 4.3C24.6112 4.58 25.2245 5 25.7312 5.56C26.2512 6.10667 26.6512 6.78667 26.9312 7.6C27.2112 8.4 27.3512 9.32 27.3512 10.36V11.44C27.3512 12.52 27.2045 13.48 26.9112 14.32C26.6312 15.1467 26.2378 15.8467 25.7312 16.42C25.2245 16.98 24.6112 17.4067 23.8912 17.7C23.1845 17.9933 22.4045 18.14 21.5512 18.14ZM21.5512 16.86C22.1912 16.86 22.7778 16.7467 23.3112 16.52C23.8445 16.2933 24.3045 15.9533 24.6912 15.5C25.0778 15.0467 25.3778 14.4867 25.5912 13.82C25.8045 13.14 25.9112 12.3467 25.9112 11.44V10.36C25.9112 9.52 25.7978 8.78 25.5712 8.14C25.3578 7.48667 25.0578 6.94 24.6712 6.5C24.2845 6.04667 23.8245 5.70667 23.2912 5.48C22.7578 5.25333 22.1778 5.14 21.5512 5.14C20.9112 5.14 20.3245 5.25333 19.7912 5.48C19.2578 5.70667 18.7978 6.04 18.4112 6.48C18.0245 6.92 17.7245 7.46667 17.5112 8.12C17.2978 8.76 17.1912 9.50667 17.1912 10.36V11.44C17.1912 12.3333 17.2978 13.12 17.5112 13.8C17.7378 14.4667 18.0445 15.0267 18.4312 15.48C18.8178 15.9333 19.2778 16.28 19.8112 16.52C20.3445 16.7467 20.9245 16.86 21.5512 16.86ZM30.3504 8H36.7504V9.2H31.6704V18H30.3504V8ZM42.2559 18.14C40.9092 18.14 39.8359 17.7267 39.0359 16.9C38.2492 16.0733 37.8559 14.8867 37.8559 13.34V12.66C37.8559 11.9 37.9559 11.22 38.1559 10.62C38.3692 10.02 38.6692 9.52 39.0559 9.12C39.4425 8.70667 39.9025 8.39333 40.4359 8.18C40.9825 7.96667 41.5892 7.86 42.2559 7.86C43.6025 7.86 44.6692 8.27333 45.4559 9.1C46.2559 9.92667 46.6559 11.1133 46.6559 12.66V13.34C46.6559 14.1 46.5492 14.78 46.3359 15.38C46.1359 15.98 45.8425 16.4867 45.4559 16.9C45.0692 17.3 44.6025 17.6067 44.0559 17.82C43.5225 18.0333 42.9225 18.14 42.2559 18.14ZM42.2559 16.94C43.1759 16.94 43.9092 16.64 44.4559 16.04C45.0159 15.44 45.2959 14.54 45.2959 13.34V12.66C45.2959 11.4733 45.0159 10.58 44.4559 9.98C43.8959 9.36667 43.1625 9.06 42.2559 9.06C41.3359 9.06 40.5959 9.36 40.0359 9.96C39.4892 10.56 39.2159 11.46 39.2159 12.66V13.34C39.2159 14.5267 39.4959 15.4267 40.0559 16.04C40.6159 16.64 41.3492 16.94 42.2559 16.94ZM49.8613 16.3H51.4613L50.0613 21H48.8613L49.8613 16.3ZM63.9774 18.14C62.6174 18.14 61.5374 17.7067 60.7374 16.84C59.9508 15.96 59.5574 14.5933 59.5574 12.74V11.66C59.5574 10.9 59.5908 10.18 59.6574 9.5C59.7241 8.82 59.8374 8.2 59.9974 7.64C60.1708 7.08 60.4041 6.58667 60.6974 6.16C60.9908 5.72 61.3708 5.36 61.8374 5.08C62.2508 4.84 62.6574 4.68 63.0574 4.6C63.4708 4.50667 63.9041 4.44 64.3574 4.4C64.8108 4.36 65.2974 4.31333 65.8174 4.26C66.3374 4.19333 66.9174 4.06 67.5574 3.86V5.08C67.0508 5.26667 66.5574 5.38667 66.0774 5.44C65.6108 5.49333 65.1574 5.54 64.7174 5.58C64.2908 5.62 63.8841 5.67333 63.4974 5.74C63.1108 5.80667 62.7574 5.94 62.4374 6.14C61.9441 6.46 61.5708 6.91333 61.3174 7.5C61.0774 8.08667 60.9174 8.85333 60.8374 9.8H60.8774C61.2241 9.24 61.6774 8.81333 62.2374 8.52C62.8108 8.21333 63.4708 8.06 64.2174 8.06C64.8174 8.06 65.3708 8.16667 65.8774 8.38C66.3841 8.59333 66.8174 8.9 67.1774 9.3C67.5508 9.7 67.8374 10.1933 68.0374 10.78C68.2508 11.3667 68.3574 12.0267 68.3574 12.76V13.44C68.3574 14.1733 68.2508 14.8333 68.0374 15.42C67.8241 15.9933 67.5241 16.4867 67.1374 16.9C66.7641 17.3 66.3041 17.6067 65.7574 17.82C65.2241 18.0333 64.6308 18.14 63.9774 18.14ZM63.9774 16.94C64.8841 16.94 65.6108 16.6467 66.1574 16.06C66.7174 15.46 66.9974 14.5867 66.9974 13.44V12.76C66.9974 11.6133 66.7174 10.7467 66.1574 10.16C65.6108 9.56 64.8841 9.26 63.9774 9.26C63.0441 9.26 62.2974 9.55333 61.7374 10.14C61.1908 10.7267 60.9174 11.6 60.9174 12.76V13.44C60.9174 14.5733 61.1974 15.44 61.7574 16.04C62.3174 16.64 63.0574 16.94 63.9774 16.94ZM80.6312 8H81.9512V18H80.6312V8ZM71.1512 8H72.4712V11.6H74.7512C76.0445 11.6 76.9978 11.8867 77.6112 12.46C78.2378 13.0333 78.5512 13.8133 78.5512 14.8C78.5512 15.7733 78.2378 16.5533 77.6112 17.14C76.9845 17.7133 76.0312 18 74.7512 18H71.1512V8ZM72.4712 12.8V16.8H74.6512C75.5712 16.8 76.2245 16.6267 76.6112 16.28C76.9978 15.9333 77.1912 15.44 77.1912 14.8C77.1912 14.16 76.9912 13.6667 76.5912 13.32C76.2045 12.9733 75.5578 12.8 74.6512 12.8H72.4712ZM88.9504 18.14C88.3237 18.14 87.7504 18.04 87.2304 17.84C86.7104 17.6267 86.2637 17.3133 85.8904 16.9C85.5304 16.4867 85.2504 15.9733 85.0504 15.36C84.8504 14.7467 84.7504 14.04 84.7504 13.24V12.56C84.7504 11.8133 84.8504 11.1533 85.0504 10.58C85.2637 9.99333 85.5504 9.5 85.9104 9.1C86.2837 8.7 86.7237 8.39333 87.2304 8.18C87.7504 7.96667 88.3237 7.86 88.9504 7.86C89.5371 7.86 90.0637 7.94 90.5304 8.1C90.9971 8.24667 91.3971 8.46 91.7304 8.74C92.0637 9.00667 92.3304 9.32 92.5304 9.68C92.7304 10.0267 92.8704 10.4 92.9504 10.8H91.5904C91.4437 10.3067 91.1704 9.89333 90.7704 9.56C90.3704 9.22667 89.7971 9.06 89.0504 9.06C88.1971 9.06 87.4904 9.36 86.9304 9.96C86.3837 10.56 86.1104 11.4267 86.1104 12.56V13.24C86.1104 14.4667 86.3904 15.3933 86.9504 16.02C87.5104 16.6333 88.2104 16.94 89.0504 16.94C89.7971 16.94 90.3704 16.7667 90.7704 16.42C91.1704 16.0733 91.4437 15.6 91.5904 15H92.9504C92.8704 15.4533 92.7304 15.8733 92.5304 16.26C92.3304 16.6333 92.0637 16.96 91.7304 17.24C91.3971 17.52 90.9971 17.74 90.5304 17.9C90.0637 18.06 89.5371 18.14 88.9504 18.14ZM97.488 9.2H94.148V8H102.148V9.2H98.808V18H97.488V9.2ZM104.257 8H105.297L105.457 9.5H105.497C105.937 8.92667 106.423 8.51333 106.957 8.26C107.49 7.99333 108.117 7.86 108.837 7.86C109.423 7.86 109.963 7.96667 110.457 8.18C110.95 8.38 111.37 8.68667 111.717 9.1C112.077 9.5 112.357 10 112.557 10.6C112.757 11.2 112.857 11.8867 112.857 12.66V13.34C112.857 14.1133 112.757 14.8 112.557 15.4C112.357 15.9867 112.077 16.4867 111.717 16.9C111.357 17.3 110.93 17.6067 110.437 17.82C109.943 18.0333 109.41 18.14 108.837 18.14C107.397 18.14 106.323 17.6267 105.617 16.6H105.577V22H104.257V8ZM108.537 16.94C109.417 16.94 110.13 16.6467 110.677 16.06C111.223 15.46 111.497 14.5533 111.497 13.34V12.66C111.497 11.4733 111.217 10.58 110.657 9.98C110.11 9.36667 109.403 9.06 108.537 9.06C107.657 9.06 106.943 9.36 106.397 9.96C105.85 10.5467 105.577 11.4467 105.577 12.66V13.34C105.577 14.5267 105.85 15.4267 106.397 16.04C106.957 16.64 107.67 16.94 108.537 16.94ZM119.463 18.14C118.116 18.14 117.043 17.7267 116.243 16.9C115.456 16.0733 115.063 14.8867 115.063 13.34V12.66C115.063 11.9 115.163 11.22 115.363 10.62C115.576 10.02 115.876 9.52 116.263 9.12C116.65 8.70667 117.11 8.39333 117.643 8.18C118.19 7.96667 118.796 7.86 119.463 7.86C120.81 7.86 121.876 8.27333 122.663 9.1C123.463 9.92667 123.863 11.1133 123.863 12.66V13.34C123.863 14.1 123.756 14.78 123.543 15.38C123.343 15.98 123.05 16.4867 122.663 16.9C122.276 17.3 121.81 17.6067 121.263 17.82C120.73 18.0333 120.13 18.14 119.463 18.14ZM119.463 16.94C120.383 16.94 121.116 16.64 121.663 16.04C122.223 15.44 122.503 14.54 122.503 13.34V12.66C122.503 11.4733 122.223 10.58 121.663 9.98C121.103 9.36667 120.37 9.06 119.463 9.06C118.543 9.06 117.803 9.36 117.243 9.96C116.696 10.56 116.423 11.46 116.423 12.66V13.34C116.423 14.5267 116.703 15.4267 117.263 16.04C117.823 16.64 118.556 16.94 119.463 16.94ZM131.659 8H135.459C136.632 8 137.492 8.24667 138.039 8.74C138.586 9.23333 138.859 9.9 138.859 10.74C138.859 11.18 138.746 11.58 138.519 11.94C138.306 12.3 137.999 12.58 137.599 12.78V12.82C138.146 13.0333 138.559 13.34 138.839 13.74C139.119 14.14 139.259 14.6067 139.259 15.14C139.259 16.0333 138.986 16.7333 138.439 17.24C137.892 17.7467 137.032 18 135.859 18H131.659V8ZM137.499 10.76C137.499 10.2667 137.339 9.88667 137.019 9.62C136.699 9.34 136.146 9.2 135.359 9.2H132.979V12.34H135.359C136.146 12.34 136.699 12.2067 137.019 11.94C137.339 11.66 137.499 11.2667 137.499 10.76ZM137.899 15.12C137.899 14.5733 137.739 14.16 137.419 13.88C137.099 13.6 136.546 13.46 135.759 13.46H132.979V16.8H135.759C136.546 16.8 137.099 16.66 137.419 16.38C137.739 16.1 137.899 15.68 137.899 15.12ZM151.53 8H152.85V18H151.53V8ZM142.05 8H143.37V11.6H145.65C146.943 11.6 147.896 11.8867 148.51 12.46C149.136 13.0333 149.45 13.8133 149.45 14.8C149.45 15.7733 149.136 16.5533 148.51 17.14C147.883 17.7133 146.93 18 145.65 18H142.05V8ZM143.37 12.8V16.8H145.55C146.47 16.8 147.123 16.6267 147.51 16.28C147.896 15.9333 148.09 15.44 148.09 14.8C148.09 14.16 147.89 13.6667 147.49 13.32C147.103 12.9733 146.456 12.8 145.55 12.8H143.37Z" fill="white"/>
<g clip-path="url(#clip0)">
<path d="M305.814 57.9471C297.096 52.7583 269.082 29.9741 263.597 25.4275C258.105 20.8882 275.984 43.4023 273.608 46.5112C271.189 49.6712 256.899 44.9714 252.053 43.3512C247.208 41.7311 294.43 74.7324 317.438 90.058" stroke="white" stroke-width="1.953" stroke-miterlimit="10" stroke-linecap="round" stroke-linejoin="round"/>
<path d="M316.391 68.9743C316.391 68.9743 319.784 93.5465 315.425 103.596C311.066 113.652 321.803 109.755 321.803 109.755C344.325 102.946 361.521 81.7822 361.521 81.7822C338.273 76.9145 313.812 64.7561 306.307 69.1349C307.034 66.9455 305.341 56.9692 306.068 44.3219C310.187 13.9114 358.615 32.4043 376.05 36.7831" stroke="white" stroke-width="1.953" stroke-miterlimit="10" stroke-linecap="round" stroke-linejoin="round"/>
<path d="M381.005 125.577C370.595 123.753 350.13 112.134 350.13 112.134C350.13 112.134 356.203 108.909 359.995 107.208C359.676 111.667 374.3 111.667 376.886 111.587" fill="url(#paint1_linear)"/>
<path d="M346.017 77.9727C347.63 85.4311 348.197 91.919 348.197 94.6776" stroke="white" stroke-width="1.953" stroke-miterlimit="10" stroke-linecap="round" stroke-linejoin="round"/>
<path d="M347.63 87.6497C347.63 87.6497 322.937 84.6794 325.066 94.2981C325.182 99.2826 330.028 103.435 334.989 103.435" stroke="white" stroke-width="1.953" stroke-miterlimit="10" stroke-linecap="round" stroke-linejoin="round"/>
<path d="M361.514 81.7894C361.514 81.7894 337.54 69.6238 334.394 57.9471C331.248 46.2704 330.522 35.3235 315.265 43.592C312.12 39.9431 308.001 38.4835 307.034 41.4027" stroke="white" stroke-width="1.953" stroke-miterlimit="10" stroke-linecap="round" stroke-linejoin="round"/>
<path d="M326.402 55.0279C325.916 51.6198 323.496 52.1088 320.351 55.2688" stroke="white" stroke-width="1.953" stroke-miterlimit="10" stroke-linecap="round" stroke-linejoin="round"/>
<path d="M346.018 61.1071C343.526 55.4293 341.172 42.3733 360.061 42.3733C364.659 55.2687 355.462 62.5667 346.018 61.1071Z" stroke="white" stroke-width="1.953" stroke-miterlimit="10" stroke-linecap="round" stroke-linejoin="round"/>
<path d="M352.527 43.3002C355.404 44.6211 357.242 47.6862 356.864 51.0141C356.392 55.152 352.672 58.1223 348.553 57.6552C347.006 57.4801 345.618 56.8379 344.521 55.8818" stroke="white" stroke-width="1.953" stroke-miterlimit="10" stroke-linecap="round" stroke-linejoin="round"/>
<path d="M375.115 61.8834C372.733 57.0008 372.458 52.2273 374.501 51.2216C376.544 50.2158 380.131 53.3586 382.513 58.2412C384.895 63.1238 385.17 67.8972 383.127 68.903C381.084 69.9088 377.497 66.766 375.115 61.8834Z" stroke="white" stroke-width="1.953" stroke-miterlimit="10" stroke-linecap="round" stroke-linejoin="round"/>
<path d="M585.759 88.1095C582.613 93.707 564.327 116.083 533.328 120.22C502.329 124.358 485.852 120.542 466.615 107.573C428.372 81.7895 434.242 80.3883 434.242 80.3883L585.759 88.1095Z" fill="url(#paint2_linear)"/>
<path d="M366.681 66.7663C366.108 63.844 366.633 61.2792 367.853 61.0377C369.073 60.7962 370.527 62.9694 371.1 65.8916C371.674 68.8139 371.149 71.3787 369.929 71.6202C368.708 71.8617 367.254 69.6885 366.681 66.7663Z" stroke="white" stroke-width="1.953" stroke-miterlimit="10" stroke-linecap="round" stroke-linejoin="round"/>
<path d="M619.657 74.4915C611.665 73.156 593.14 73.5209 579.94 56.1226C565.17 38.0018 536.227 -10.3325 453.654 16.6699C448.205 18.7352 411.518 40.3663 392.992 38.4835C386.214 37.9945 376.77 34.5937 376.53 33.3749C376.283 32.1561 368.459 69.4559 483.803 95.8963C538.53 104.654 573.401 95.4877 580.913 92.2474C580.913 92.2474 610.859 82.1908 619.657 74.4915Z" fill="url(#paint3_linear)"/>
<path d="M402.226 114.535L408.815 130.686C408.815 130.686 411.997 131.824 416.734 133.13C416.763 133.145 416.792 133.152 416.828 133.16C422.916 134.824 431.525 136.75 439.248 136.889C442.197 136.94 445.539 136.823 449.033 136.582C449.041 136.59 449.055 136.59 449.062 136.582C457.57 136.006 466.949 134.729 473.618 133.546C477.039 132.933 479.749 132.35 481.26 131.897C481.66 131.78 482.132 131.649 482.67 131.525C482.699 131.518 482.721 131.51 482.75 131.503C490.015 129.73 509.237 126.942 523.157 128.861C523.891 128.963 524.632 129.058 525.373 129.16C539.067 130.97 553.531 132.255 557.389 132.379H557.411C557.6 132.386 557.767 132.386 557.905 132.386C559.402 132.386 567.16 131.612 575.384 130.219C572.762 126.555 569.507 122.629 566.55 118.892C566.434 118.739 566.31 118.586 566.187 118.44L548.947 116.455C548.947 116.455 548.947 116.455 548.94 116.462C548.933 116.462 548.933 116.462 548.933 116.462C548.809 116.506 547.778 116.841 546.15 117.33C546.041 117.367 545.932 117.396 545.816 117.433C545.758 117.454 545.7 117.469 545.642 117.491C544.734 117.776 543.811 118.046 542.874 118.301C536.118 120.228 525.424 122.884 519.888 122.169C517.934 122.351 515.311 122.351 512.34 122.198C512.252 122.198 512.172 122.198 512.085 122.191C512.071 122.198 512.056 122.198 512.042 122.191C512.042 122.191 512.042 122.198 512.034 122.191C511.896 122.184 511.751 122.176 511.606 122.162H511.548C504.595 121.789 496.001 120.687 489.833 119.345C489.826 119.345 489.826 119.345 489.826 119.345C486.244 118.564 483.483 117.71 482.328 116.871H482.321C482.03 116.965 481.638 117.046 481.159 117.119C469.738 118.826 406.875 115.353 402.226 114.535Z" fill="url(#paint4_linear)"/>
<path d="M378.869 78.301C378.826 85.4384 377.903 92.8969 372.091 100.844C372.091 100.844 340.125 119.98 319.944 119.819C315.585 117.389 312.192 113.981 309.773 110.091C310.259 106.851 315.744 100.034 316.551 97.9252" stroke="white" stroke-width="1.953" stroke-miterlimit="10" stroke-linecap="round" stroke-linejoin="round"/>
<path d="M386.091 91.1527C382.219 95.8964 374.343 100.275 370.471 101.735" stroke="white" stroke-width="1.953" stroke-miterlimit="10" stroke-linecap="round" stroke-linejoin="round"/>
<path d="M408.692 130.766C408.692 130.766 411.605 131.875 416.734 133.13C416.763 133.145 416.792 133.152 416.829 133.16C423.955 134.897 435.303 136.896 449.034 136.582C449.041 136.59 449.056 136.59 449.063 136.582C456.626 136.415 464.922 135.546 473.618 133.546C474.214 133.408 474.81 133.262 475.413 133.116C477.861 132.51 480.28 131.985 482.67 131.525C482.699 131.518 482.721 131.51 482.75 131.503C498.442 128.482 512.907 128.365 525.373 129.16C538.617 130 549.594 131.868 557.39 132.379C557.397 132.379 557.404 132.379 557.411 132.379C557.971 132.415 558.516 132.444 559.039 132.466C563.354 132.641 569.406 131.78 575.559 130.459" stroke="white" stroke-width="1.953" stroke-miterlimit="10" stroke-linecap="round" stroke-linejoin="round"/>
<path d="M548.483 116.396C548.577 116.411 548.671 116.425 548.766 116.433C548.817 116.44 548.875 116.447 548.933 116.462C548.933 116.462 548.933 116.462 548.94 116.462C550.321 116.652 551.723 116.849 553.125 117.046C557.593 117.673 562.126 118.308 566.55 118.892" stroke="white" stroke-width="1.953" stroke-miterlimit="10" stroke-linecap="round" stroke-linejoin="round"/>
<path d="M402.226 114.535C419.03 114.17 464.166 119.308 482.329 116.871" stroke="white" stroke-width="1.953" stroke-miterlimit="10" stroke-linecap="round" stroke-linejoin="round"/>
<path d="M381.368 125.497C368.291 123.957 350.129 111.952 350.129 111.952C350.129 111.952 355.701 109.522 359.494 107.814C360.46 111.704 376.61 111.872 376.61 111.872" stroke="white" stroke-width="1.953" stroke-miterlimit="10" stroke-linecap="round" stroke-linejoin="round"/>
<path d="M454.846 88.8174C485.474 98.0712 521.486 102.749 556.009 97.8522C565.25 96.5386 574.382 94.5463 583.274 91.7658C595.501 87.9489 607.27 82.6506 618.255 75.63C618.967 75.1775 619.679 74.7105 620.383 74.2434C613.845 73.0465 605.214 74.6959 594.034 68.2153C586.994 64.1431 578.944 56.8451 569.776 43.5921C546.042 9.29177 490.102 -1.65514 447.239 19.5089C423.963 31.0031 410.828 37.1188 400.577 38.666C391.961 39.9723 385.379 38.0456 376.53 33.375C375.034 50.817 408.873 74.9586 454.846 88.8174Z" stroke="white" stroke-width="1.953" stroke-miterlimit="10" stroke-linecap="round" stroke-linejoin="round"/>
<path d="M583.274 91.7658C579.409 96.7576 570.416 106.559 555.007 113.696C552.951 114.652 550.771 115.557 548.483 116.396C540.666 119.272 531.476 121.374 520.796 122.016C517.564 122.205 514.193 122.264 510.684 122.169C499.009 121.848 489.717 119.826 482.329 116.871H482.322C480.135 116.002 478.122 115.046 476.263 114.032C462.111 106.332 435.172 87.2411 433.233 80.994" stroke="white" stroke-width="1.953" stroke-miterlimit="10" stroke-linecap="round" stroke-linejoin="round"/>
<path d="M555.007 113.696C556.881 108.777 556.554 102.209 556.009 97.8522" stroke="white" stroke-width="1.953" stroke-miterlimit="10" stroke-linecap="round" stroke-linejoin="round"/>
<path d="M523.499 99.7861C523.709 103.851 523.491 108.887 522.794 113.572C522.344 116.666 521.675 119.6 520.796 122.016" stroke="white" stroke-width="1.953" stroke-miterlimit="10" stroke-linecap="round" stroke-linejoin="round"/>
<path d="M489.143 96.7064C486.767 102.815 481.29 110.565 476.27 114.032C476.27 114.032 476.27 114.032 476.262 114.032" stroke="white" stroke-width="1.953" stroke-miterlimit="10" stroke-linecap="round" stroke-linejoin="round"/>
<path d="M594.033 68.2152C582.489 75.2286 545.279 88.1167 499.306 84.4605C454.758 80.1985 408.379 55.889 400.577 38.6659" stroke="white" stroke-width="1.953" stroke-miterlimit="10" stroke-linecap="round" stroke-linejoin="round"/>
<path d="M591.592 103.107C625.418 107.383 651.963 98.6915 651.281 75.0243C635.073 89.6494 625.207 85.11 612.246 79.3009" stroke="white" stroke-width="1.953" stroke-miterlimit="10" stroke-linecap="round" stroke-linejoin="round"/>
<path d="M447.159 47.2045C450.407 44.5992 462.982 33.2582 471.192 35.0681C474.817 37.8705 481.188 52.4226 480.658 57.5457" stroke="white" stroke-width="1.953" stroke-miterlimit="10" stroke-linecap="round" stroke-linejoin="round"/>
<path d="M436.829 66.5806C437.432 65.3618 447.145 46.971 447.145 46.971C448.903 41.3954 449.993 25.4129 448.205 22.7492C446.338 19.9614 426.011 30.4558 419.393 32.6452C419.386 32.6525 419.371 32.6598 419.364 32.6744" stroke="white" stroke-width="1.953" stroke-miterlimit="10" stroke-linecap="round" stroke-linejoin="round"/>
<path d="M553.539 81.5705C553.292 79.4031 551.991 67.1425 551.766 64.2598C551.766 64.2161 551.759 64.1723 551.752 64.1358C551.548 61.4428 551.447 59.3848 551.563 58.6331C552.035 55.5169 559.344 41.0816 562.86 41.8114C566.376 42.5339 576.067 51.2111 578.813 55.1885C579.925 58.042 581 67.1352 581.676 73.9077" stroke="white" stroke-width="1.953" stroke-miterlimit="10" stroke-linecap="round" stroke-linejoin="round"/>
<path d="M515.834 61.4428C515.144 56.3342 505.635 45.11 501.457 43.2417C497.273 41.3735 482.329 54.7433 480.658 57.5384C479.357 59.7132 476.807 73.4041 475.405 80.3882" stroke="white" stroke-width="1.953" stroke-miterlimit="10" stroke-linecap="round" stroke-linejoin="round"/>
<path d="M515.769 85.1028C515.587 77.5567 515.326 62.7857 516.074 60.4868C517.084 57.3852 528.446 43.2272 532.936 44.1102C537.426 44.9933 549.66 54.5244 551.461 59.341" stroke="white" stroke-width="1.953" stroke-miterlimit="10" stroke-linecap="round" stroke-linejoin="round"/>
<path d="M471.192 35.0607C472.18 27.7774 476.299 12.7145 480.897 9.55444" stroke="white" stroke-width="1.953" stroke-miterlimit="10" stroke-linecap="round" stroke-linejoin="round"/>
<path d="M501.726 42.1324C503.666 28.9962 506.041 11.357 508.221 9.65662" stroke="white" stroke-width="1.953" stroke-miterlimit="10" stroke-linecap="round" stroke-linejoin="round"/>
<path d="M532.478 43.3513C530.299 28.0256 531.025 17.1371 531.752 15.4366" stroke="white" stroke-width="1.953" stroke-miterlimit="10" stroke-linecap="round" stroke-linejoin="round"/>
<path d="M562.86 41.8114C560.571 35.3235 558.334 31.4921 555.726 28.7554" stroke="white" stroke-width="1.953" stroke-miterlimit="10" stroke-linecap="round" stroke-linejoin="round"/>
<path d="M448.206 22.7491C450.872 18.5382 455.638 15.5971 459.51 14.4003" stroke="white" stroke-width="1.953" stroke-miterlimit="10" stroke-linecap="round" stroke-linejoin="round"/>
<path d="M569.769 78.0748C570.953 81.2202 575.225 93.7727 575.225 93.7727" stroke="white" stroke-width="1.953" stroke-miterlimit="10" stroke-linecap="round" stroke-linejoin="round"/>
<path d="M582.003 74.3674C583.376 77.4326 588.417 89.6931 588.417 89.6931" stroke="white" stroke-width="1.953" stroke-miterlimit="10" stroke-linecap="round" stroke-linejoin="round"/>
<path d="M553.662 81.7019C554.215 85.0152 555.973 98.1661 555.973 98.1661" stroke="white" stroke-width="1.953" stroke-miterlimit="10" stroke-linecap="round" stroke-linejoin="round"/>
<path d="M536.437 84.2999C536.779 87.3651 537.73 99.465 537.73 99.465" stroke="white" stroke-width="1.953" stroke-miterlimit="10" stroke-linecap="round" stroke-linejoin="round"/>
<path d="M515.696 84.5408C515.856 87.511 516.096 99.2169 516.096 99.2169" stroke="white" stroke-width="1.953" stroke-miterlimit="10" stroke-linecap="round" stroke-linejoin="round"/>
<path d="M475.623 79.965C474.882 82.6652 471.62 93.218 471.62 93.218" stroke="white" stroke-width="1.953" stroke-miterlimit="10" stroke-linecap="round" stroke-linejoin="round"/>
<path d="M494.701 97.4362L496.313 84.2196" stroke="white" stroke-width="1.953" stroke-miterlimit="10" stroke-linecap="round" stroke-linejoin="round"/>
<path d="M437.148 66.2157C436.131 67.7994 429.317 79.2936 429.317 79.2936" stroke="white" stroke-width="1.953" stroke-miterlimit="10" stroke-linecap="round" stroke-linejoin="round"/>
<path d="M456.378 74.8564C455.049 77.5348 450.988 87.1389 450.988 87.1389" stroke="white" stroke-width="1.953" stroke-miterlimit="10" stroke-linecap="round" stroke-linejoin="round"/>
<path d="M413.879 53.3275C411.518 54.3638 399.938 63.3841 399.938 63.3841" stroke="white" stroke-width="1.953" stroke-miterlimit="10" stroke-linecap="round" stroke-linejoin="round"/>
<path d="M591.244 69.9449C593.728 71.3534 607.227 81.7019 607.227 81.7019" stroke="white" stroke-width="1.953" stroke-miterlimit="10" stroke-linecap="round" stroke-linejoin="round"/>
<path d="M415.114 106.843C415.114 106.843 404.427 112.879 402.226 114.535C400.032 116.192 420.889 146.522 408.815 156.447C396.734 166.373 364.347 158.104 364.347 158.104L384.115 152.901L365.989 149.281C365.989 149.281 376.261 148.427 383.947 145.121C391.634 141.815 381.492 128.387 377.649 116.25C373.806 104.114 384.747 96.7867 395.731 94.0354" stroke="white" stroke-width="1.953" stroke-miterlimit="10" stroke-linecap="round" stroke-linejoin="round"/>
<path d="M575.385 130.219C575.472 130.27 588.447 141.545 586.478 145.033C582.352 152.339 574.68 159.264 574.68 159.264L591.288 151.135L578.676 167.285C578.676 167.285 609.45 154.192 613.097 138.947C616.736 123.702 588.418 112.361 591.237 97.4363C592.217 92.2693 597.753 86.5916 597.753 86.5916" stroke="white" stroke-width="1.953" stroke-miterlimit="10" stroke-linecap="round" stroke-linejoin="round"/>
<path d="M560.702 110.901V110.908C562.134 113.192 564.073 115.754 566.187 118.44L575.559 130.459" stroke="white" stroke-width="1.953" stroke-miterlimit="10" stroke-linecap="round" stroke-linejoin="round"/>
</g>
<defs>
<linearGradient id="paint0_linear" x1="56.5" y1="67.4981" x2="271.5" y2="67.4981" gradientUnits="userSpaceOnUse">
<stop stop-color="#3FFFD8"/>
<stop offset="0.6173" stop-color="#B9C3FC"/>
<stop offset="1" stop-color="#FF7EA7"/>
</linearGradient>
<linearGradient id="paint1_linear" x1="370.476" y1="207.314" x2="352.749" y2="-109.357" gradientUnits="userSpaceOnUse">
<stop stop-color="#3FFFD8"/>
<stop offset="0.4888" stop-color="#B9C3FC"/>
<stop offset="1" stop-color="#FF7EA7"/>
</linearGradient>
<linearGradient id="paint2_linear" x1="513.878" y1="157.388" x2="507.444" y2="42.4635" gradientUnits="userSpaceOnUse">
<stop stop-color="#3FFFD8"/>
<stop offset="0.4888" stop-color="#B9C3FC"/>
<stop offset="1" stop-color="#FF7EA7"/>
</linearGradient>
<linearGradient id="paint3_linear" x1="504.565" y1="173.164" x2="491.533" y2="-59.6316" gradientUnits="userSpaceOnUse">
<stop stop-color="#3FFFD8"/>
<stop offset="0.4888" stop-color="#B9C3FC"/>
<stop offset="1" stop-color="#FF7EA7"/>
</linearGradient>
<linearGradient id="paint4_linear" x1="492.45" y1="188.101" x2="474.698" y2="-129.01" gradientUnits="userSpaceOnUse">
<stop stop-color="#3FFFD8"/>
<stop offset="0.4888" stop-color="#B9C3FC"/>
<stop offset="1" stop-color="#FF7EA7"/>
</linearGradient>
<clipPath id="clip0">
<rect width="401" height="160" fill="white" transform="matrix(-1 0 0 1 652 8)"/>
</clipPath>
</defs>
</svg>
