<svg width="566" height="481" viewBox="0 0 566 481" fill="none" xmlns="http://www.w3.org/2000/svg">
<path d="M527.885 26.67V0H353.624V26.67H422.523V53.33H318V80H460.418V53.33H562V26.67H527.885Z" fill="url(#paint0_linear)"/>
<path d="M328.7 62H330.02V66.3H335.58V62H336.9V72H335.58V67.5H330.02V72H328.7V62ZM342.902 72.14C341.795 72.14 340.968 71.8867 340.422 71.38C339.875 70.86 339.602 70.1467 339.602 69.24C339.602 68.2933 339.928 67.54 340.582 66.98C341.235 66.42 342.275 66.14 343.702 66.14H346.282V65.4C346.282 64.6 346.088 64.02 345.702 63.66C345.315 63.2867 344.682 63.1 343.802 63.1C342.988 63.1 342.388 63.24 342.002 63.52C341.628 63.8 341.415 64.16 341.362 64.6H340.002C340.028 64.24 340.128 63.8933 340.302 63.56C340.475 63.2267 340.715 62.9333 341.022 62.68C341.342 62.4267 341.735 62.2267 342.202 62.08C342.668 61.9333 343.202 61.86 343.802 61.86C345.095 61.86 346.048 62.16 346.662 62.76C347.288 63.3467 347.602 64.2267 347.602 65.4V72H346.562L346.402 70.3H346.362C345.962 70.9 345.462 71.36 344.862 71.68C344.275 71.9867 343.622 72.14 342.902 72.14ZM343.002 70.9C343.482 70.9 343.922 70.8267 344.322 70.68C344.722 70.52 345.068 70.3067 345.362 70.04C345.655 69.76 345.882 69.4333 346.042 69.06C346.202 68.6733 346.282 68.2533 346.282 67.8V67.26H343.802C342.775 67.26 342.042 67.44 341.602 67.8C341.175 68.16 340.962 68.64 340.962 69.24C340.962 69.7467 341.122 70.1533 341.442 70.46C341.775 70.7533 342.295 70.9 343.002 70.9ZM359.107 68.6C357.774 68.6 356.807 68.3133 356.207 67.74C355.607 67.1667 355.307 66.28 355.307 65.08V62H356.627V65C356.627 65.88 356.807 66.5 357.167 66.86C357.54 67.22 358.187 67.4 359.107 67.4C359.614 67.4 360.08 67.3667 360.507 67.3C360.934 67.22 361.294 67.1467 361.587 67.08V62H362.907V72H361.587V68.28C361.294 68.3467 360.934 68.42 360.507 68.5C360.08 68.5667 359.614 68.6 359.107 68.6ZM368.898 72.14C367.791 72.14 366.964 71.8867 366.418 71.38C365.871 70.86 365.598 70.1467 365.598 69.24C365.598 68.2933 365.924 67.54 366.578 66.98C367.231 66.42 368.271 66.14 369.698 66.14H372.278V65.4C372.278 64.6 372.084 64.02 371.698 63.66C371.311 63.2867 370.678 63.1 369.798 63.1C368.984 63.1 368.384 63.24 367.998 63.52C367.624 63.8 367.411 64.16 367.358 64.6H365.998C366.024 64.24 366.124 63.8933 366.298 63.56C366.471 63.2267 366.711 62.9333 367.018 62.68C367.338 62.4267 367.731 62.2267 368.198 62.08C368.664 61.9333 369.198 61.86 369.798 61.86C371.091 61.86 372.044 62.16 372.658 62.76C373.284 63.3467 373.598 64.2267 373.598 65.4V72H372.558L372.398 70.3H372.358C371.958 70.9 371.458 71.36 370.858 71.68C370.271 71.9867 369.618 72.14 368.898 72.14ZM368.998 70.9C369.478 70.9 369.918 70.8267 370.318 70.68C370.718 70.52 371.064 70.3067 371.358 70.04C371.651 69.76 371.878 69.4333 372.038 69.06C372.198 68.6733 372.278 68.2533 372.278 67.8V67.26H369.798C368.771 67.26 368.038 67.44 367.598 67.8C367.171 68.16 366.958 68.64 366.958 69.24C366.958 69.7467 367.118 70.1533 367.438 70.46C367.771 70.7533 368.291 70.9 368.998 70.9ZM376.903 62H378.223V70.8H382.143V62H383.463V70.8H387.383V62H388.703V72H376.903V62ZM392.098 62H393.418V66.2H395.218L398.138 62H399.698L396.278 66.76L400.098 72H398.498L395.218 67.4H393.418V72H392.098V62ZM405.469 72L401.289 62H402.729L406.149 70.36H406.189L409.329 62H410.689L405.289 76H403.929L405.469 72ZM421.08 68.6C419.746 68.6 418.78 68.3133 418.18 67.74C417.58 67.1667 417.28 66.28 417.28 65.08V62H418.6V65C418.6 65.88 418.78 66.5 419.14 66.86C419.513 67.22 420.16 67.4 421.08 67.4C421.586 67.4 422.053 67.3667 422.48 67.3C422.906 67.22 423.266 67.1467 423.56 67.08V62H424.88V72H423.56V68.28C423.266 68.3467 422.906 68.42 422.48 68.5C422.053 68.5667 421.586 68.6 421.08 68.6ZM430.87 72.14C429.764 72.14 428.937 71.8867 428.39 71.38C427.844 70.86 427.57 70.1467 427.57 69.24C427.57 68.2933 427.897 67.54 428.55 66.98C429.204 66.42 430.244 66.14 431.67 66.14H434.25V65.4C434.25 64.6 434.057 64.02 433.67 63.66C433.284 63.2867 432.65 63.1 431.77 63.1C430.957 63.1 430.357 63.24 429.97 63.52C429.597 63.8 429.384 64.16 429.33 64.6H427.97C427.997 64.24 428.097 63.8933 428.27 63.56C428.444 63.2267 428.684 62.9333 428.99 62.68C429.31 62.4267 429.704 62.2267 430.17 62.08C430.637 61.9333 431.17 61.86 431.77 61.86C433.064 61.86 434.017 62.16 434.63 62.76C435.257 63.3467 435.57 64.2267 435.57 65.4V72H434.53L434.37 70.3H434.33C433.93 70.9 433.43 71.36 432.83 71.68C432.244 71.9867 431.59 72.14 430.87 72.14ZM430.97 70.9C431.45 70.9 431.89 70.8267 432.29 70.68C432.69 70.52 433.037 70.3067 433.33 70.04C433.624 69.76 433.85 69.4333 434.01 69.06C434.17 68.6733 434.25 68.2533 434.25 67.8V67.26H431.77C430.744 67.26 430.01 67.44 429.57 67.8C429.144 68.16 428.93 68.64 428.93 69.24C428.93 69.7467 429.09 70.1533 429.41 70.46C429.744 70.7533 430.264 70.9 430.97 70.9ZM440.316 68C439.636 67.7733 439.142 67.42 438.836 66.94C438.529 66.46 438.376 65.86 438.376 65.14C438.376 64.14 438.682 63.3667 439.296 62.82C439.922 62.2733 440.949 62 442.376 62H445.576V72H444.256V68.28H442.376C442.242 68.28 442.109 68.28 441.976 68.28C441.856 68.28 441.736 68.2733 441.616 68.26L439.496 72H437.976L440.316 68ZM439.736 65.14C439.736 65.7667 439.936 66.2467 440.336 66.58C440.736 66.9133 441.449 67.08 442.476 67.08H444.256V63.2H442.476C441.449 63.2 440.736 63.3667 440.336 63.7C439.936 64.0333 439.736 64.5133 439.736 65.14ZM450.273 72.14C449.953 72.14 449.687 72.04 449.473 71.84C449.273 71.6267 449.173 71.36 449.173 71.04C449.173 70.72 449.273 70.46 449.473 70.26C449.687 70.0467 449.953 69.94 450.273 69.94C450.593 69.94 450.853 70.0467 451.053 70.26C451.267 70.46 451.373 70.72 451.373 71.04C451.373 71.36 451.267 71.6267 451.053 71.84C450.853 72.04 450.593 72.14 450.273 72.14Z" fill="white"/>
<path d="M365.8 6H367.2V12.16H375V6H376.4V20H375V13.44H367.2V20H365.8V6ZM383.599 20.14C382.959 20.14 382.373 20.0333 381.839 19.82C381.306 19.6067 380.853 19.3 380.479 18.9C380.106 18.4867 379.813 17.9867 379.599 17.4C379.399 16.8 379.299 16.1133 379.299 15.34V14.66C379.299 13.9 379.399 13.22 379.599 12.62C379.813 12.02 380.106 11.52 380.479 11.12C380.866 10.7067 381.319 10.3933 381.839 10.18C382.373 9.96667 382.959 9.86 383.599 9.86C384.239 9.86 384.826 9.96667 385.359 10.18C385.893 10.3933 386.346 10.7067 386.719 11.12C387.093 11.5333 387.379 12.0467 387.579 12.66C387.793 13.26 387.899 13.96 387.899 14.76V15.36H380.659C380.659 16.52 380.913 17.4067 381.419 18.02C381.926 18.6333 382.653 18.94 383.599 18.94C385.026 18.94 385.973 18.36 386.439 17.2H387.799C387.559 18.16 387.079 18.8933 386.359 19.4C385.653 19.8933 384.733 20.14 383.599 20.14ZM383.599 11.06C382.746 11.06 382.059 11.3333 381.539 11.88C381.019 12.4133 380.726 13.2 380.659 14.24H386.539C386.473 13.16 386.173 12.36 385.639 11.84C385.119 11.32 384.439 11.06 383.599 11.06ZM395.7 10H403.5V20H402.18V11.2H397.02V20H395.7V10ZM410.591 20.14C409.951 20.14 409.365 20.0333 408.831 19.82C408.298 19.6067 407.845 19.3 407.471 18.9C407.098 18.4867 406.805 17.9867 406.591 17.4C406.391 16.8 406.291 16.1133 406.291 15.34V14.66C406.291 13.9 406.391 13.22 406.591 12.62C406.805 12.02 407.098 11.52 407.471 11.12C407.858 10.7067 408.311 10.3933 408.831 10.18C409.365 9.96667 409.951 9.86 410.591 9.86C411.231 9.86 411.818 9.96667 412.351 10.18C412.885 10.3933 413.338 10.7067 413.711 11.12C414.085 11.5333 414.371 12.0467 414.571 12.66C414.785 13.26 414.891 13.96 414.891 14.76V15.36H407.651C407.651 16.52 407.905 17.4067 408.411 18.02C408.918 18.6333 409.645 18.94 410.591 18.94C412.018 18.94 412.965 18.36 413.431 17.2H414.791C414.551 18.16 414.071 18.8933 413.351 19.4C412.645 19.8933 411.725 20.14 410.591 20.14ZM410.591 11.06C409.738 11.06 409.051 11.3333 408.531 11.88C408.011 12.4133 407.718 13.2 407.651 14.24H413.531C413.465 13.16 413.165 12.36 412.631 11.84C412.111 11.32 411.431 11.06 410.591 11.06ZM417.692 10H418.732L418.892 11.5H418.932C419.372 10.9267 419.859 10.5133 420.392 10.26C420.926 9.99333 421.552 9.86 422.272 9.86C422.859 9.86 423.399 9.96667 423.892 10.18C424.386 10.38 424.806 10.6867 425.152 11.1C425.512 11.5 425.792 12 425.992 12.6C426.192 13.2 426.292 13.8867 426.292 14.66V15.34C426.292 16.1133 426.192 16.8 425.992 17.4C425.792 17.9867 425.512 18.4867 425.152 18.9C424.792 19.3 424.366 19.6067 423.872 19.82C423.379 20.0333 422.846 20.14 422.272 20.14C420.832 20.14 419.759 19.6267 419.052 18.6H419.012V24H417.692V10ZM421.972 18.94C422.852 18.94 423.566 18.6467 424.112 18.06C424.659 17.46 424.932 16.5533 424.932 15.34V14.66C424.932 13.4733 424.652 12.58 424.092 11.98C423.546 11.3667 422.839 11.06 421.972 11.06C421.092 11.06 420.379 11.36 419.832 11.96C419.286 12.5467 419.012 13.4467 419.012 14.66V15.34C419.012 16.5267 419.286 17.4267 419.832 18.04C420.392 18.64 421.106 18.94 421.972 18.94ZM432.798 20.14C432.158 20.14 431.572 20.0333 431.038 19.82C430.505 19.6067 430.052 19.3 429.678 18.9C429.305 18.4867 429.012 17.9867 428.798 17.4C428.598 16.8 428.498 16.1133 428.498 15.34V14.66C428.498 13.9 428.598 13.22 428.798 12.62C429.012 12.02 429.305 11.52 429.678 11.12C430.065 10.7067 430.518 10.3933 431.038 10.18C431.572 9.96667 432.158 9.86 432.798 9.86C433.438 9.86 434.025 9.96667 434.558 10.18C435.092 10.3933 435.545 10.7067 435.918 11.12C436.292 11.5333 436.578 12.0467 436.778 12.66C436.992 13.26 437.098 13.96 437.098 14.76V15.36H429.858C429.858 16.52 430.112 17.4067 430.618 18.02C431.125 18.6333 431.852 18.94 432.798 18.94C434.225 18.94 435.172 18.36 435.638 17.2H436.998C436.758 18.16 436.278 18.8933 435.558 19.4C434.852 19.8933 433.932 20.14 432.798 20.14ZM432.798 11.06C431.945 11.06 431.258 11.3333 430.738 11.88C430.218 12.4133 429.925 13.2 429.858 14.24H435.738C435.672 13.16 435.372 12.36 434.838 11.84C434.318 11.32 433.638 11.06 432.798 11.06ZM441.486 14.74L438.606 10H440.086L442.546 14.2H444.346V10H445.666V14.2H447.466L449.926 10H451.406L448.526 14.74L451.606 20H450.086L447.466 15.4H445.666V20H444.346V15.4H442.546L439.926 20H438.406L441.486 14.74ZM453.805 10H455.125V18.5H455.165L460.165 10H462.005V20H460.685V11.5H460.645L455.645 20H453.805V10ZM465.407 10H469.207C470.38 10 471.24 10.2467 471.787 10.74C472.334 11.2333 472.607 11.9 472.607 12.74C472.607 13.18 472.494 13.58 472.267 13.94C472.054 14.3 471.747 14.58 471.347 14.78V14.82C471.894 15.0333 472.307 15.34 472.587 15.74C472.867 16.14 473.007 16.6067 473.007 17.14C473.007 18.0333 472.734 18.7333 472.187 19.24C471.64 19.7467 470.78 20 469.607 20H465.407V10ZM471.247 12.76C471.247 12.2667 471.087 11.8867 470.767 11.62C470.447 11.34 469.894 11.2 469.107 11.2H466.727V14.34H469.107C469.894 14.34 470.447 14.2067 470.767 13.94C471.087 13.66 471.247 13.2667 471.247 12.76ZM471.647 17.12C471.647 16.5733 471.487 16.16 471.167 15.88C470.847 15.6 470.294 15.46 469.507 15.46H466.727V18.8H469.507C470.294 18.8 470.847 18.66 471.167 18.38C471.487 18.1 471.647 17.68 471.647 17.12ZM478.398 20.14C477.291 20.14 476.464 19.8867 475.918 19.38C475.371 18.86 475.098 18.1467 475.098 17.24C475.098 16.2933 475.424 15.54 476.078 14.98C476.731 14.42 477.771 14.14 479.198 14.14H481.778V13.4C481.778 12.6 481.584 12.02 481.198 11.66C480.811 11.2867 480.178 11.1 479.298 11.1C478.484 11.1 477.884 11.24 477.498 11.52C477.124 11.8 476.911 12.16 476.858 12.6H475.498C475.524 12.24 475.624 11.8933 475.798 11.56C475.971 11.2267 476.211 10.9333 476.518 10.68C476.838 10.4267 477.231 10.2267 477.698 10.08C478.164 9.93333 478.698 9.86 479.298 9.86C480.591 9.86 481.544 10.16 482.158 10.76C482.784 11.3467 483.098 12.2267 483.098 13.4V20H482.058L481.898 18.3H481.858C481.458 18.9 480.958 19.36 480.358 19.68C479.771 19.9867 479.118 20.14 478.398 20.14ZM478.498 18.9C478.978 18.9 479.418 18.8267 479.818 18.68C480.218 18.52 480.564 18.3067 480.858 18.04C481.151 17.76 481.378 17.4333 481.538 17.06C481.698 16.6733 481.778 16.2533 481.778 15.8V15.26H479.298C478.271 15.26 477.538 15.44 477.098 15.8C476.671 16.16 476.458 16.64 476.458 17.24C476.458 17.7467 476.618 18.1533 476.938 18.46C477.271 18.7533 477.791 18.9 478.498 18.9ZM486.403 10H487.723V18.5H487.763L492.763 10H494.603V20H493.283V11.5H493.243L488.243 20H486.403V10ZM490.503 8.74C489.663 8.74 489.003 8.5 488.523 8.02C488.043 7.54 487.803 6.86667 487.803 6H489.083C489.083 6.6 489.203 7.03333 489.443 7.3C489.696 7.56667 490.05 7.7 490.503 7.7C490.956 7.7 491.303 7.56667 491.543 7.3C491.796 7.03333 491.923 6.6 491.923 6H493.203C493.203 6.86667 492.963 7.54 492.483 8.02C492.003 8.5 491.343 8.74 490.503 8.74ZM500.045 11.2H496.705V10H504.705V11.2H501.365V20H500.045V11.2ZM510.123 20.14C509.483 20.14 508.896 20.0333 508.363 19.82C507.829 19.6067 507.376 19.3 507.003 18.9C506.629 18.4867 506.336 17.9867 506.123 17.4C505.923 16.8 505.823 16.1133 505.823 15.34V14.66C505.823 13.9 505.923 13.22 506.123 12.62C506.336 12.02 506.629 11.52 507.003 11.12C507.389 10.7067 507.843 10.3933 508.363 10.18C508.896 9.96667 509.483 9.86 510.123 9.86C510.763 9.86 511.349 9.96667 511.883 10.18C512.416 10.3933 512.869 10.7067 513.243 11.12C513.616 11.5333 513.903 12.0467 514.103 12.66C514.316 13.26 514.423 13.96 514.423 14.76V15.36H507.183C507.183 16.52 507.436 17.4067 507.943 18.02C508.449 18.6333 509.176 18.94 510.123 18.94C511.549 18.94 512.496 18.36 512.963 17.2H514.323C514.083 18.16 513.603 18.8933 512.883 19.4C512.176 19.8933 511.256 20.14 510.123 20.14ZM510.123 11.06C509.269 11.06 508.583 11.3333 508.063 11.88C507.543 12.4133 507.249 13.2 507.183 14.24H513.063C512.996 13.16 512.696 12.36 512.163 11.84C511.643 11.32 510.963 11.06 510.123 11.06ZM517.633 18.3H519.233L517.833 23H516.633L517.633 18.3Z" fill="white"/>
<path d="M433.74 36.2H430.4V35H438.4V36.2H435.06V45H433.74V36.2ZM443.879 45L439.699 35H441.139L444.559 43.36H444.599L447.739 35H449.099L443.699 49H442.339L443.879 45ZM453.72 36.2H450.38V35H458.38V36.2H455.04V45H453.72V36.2ZM464.189 43.8H465.289C465.502 43.4667 465.676 43.1267 465.809 42.78C465.956 42.4333 466.069 42.04 466.149 41.6C466.242 41.16 466.302 40.6533 466.329 40.08C466.369 39.4933 466.389 38.8 466.389 38V35H473.189V43.8H474.489V47.6H473.209V45H465.469V47.6H464.189V43.8ZM471.869 43.8V36.2H467.669V38C467.669 38.72 467.656 39.3533 467.629 39.9C467.602 40.4467 467.556 40.9467 467.489 41.4C467.422 41.84 467.329 42.2533 467.209 42.64C467.089 43.0133 466.942 43.3867 466.769 43.76V43.8H471.869ZM480.38 45.14C479.74 45.14 479.154 45.0333 478.62 44.82C478.087 44.6067 477.634 44.3 477.26 43.9C476.887 43.4867 476.594 42.9867 476.38 42.4C476.18 41.8 476.08 41.1133 476.08 40.34V39.66C476.08 38.9 476.18 38.22 476.38 37.62C476.594 37.02 476.887 36.52 477.26 36.12C477.647 35.7067 478.1 35.3933 478.62 35.18C479.154 34.9667 479.74 34.86 480.38 34.86C481.02 34.86 481.607 34.9667 482.14 35.18C482.674 35.3933 483.127 35.7067 483.5 36.12C483.874 36.5333 484.16 37.0467 484.36 37.66C484.574 38.26 484.68 38.96 484.68 39.76V40.36H477.44C477.44 41.52 477.694 42.4067 478.2 43.02C478.707 43.6333 479.434 43.94 480.38 43.94C481.807 43.94 482.754 43.36 483.22 42.2H484.58C484.34 43.16 483.86 43.8933 483.14 44.4C482.434 44.8933 481.514 45.14 480.38 45.14ZM480.38 36.06C479.527 36.06 478.84 36.3333 478.32 36.88C477.8 37.4133 477.507 38.2 477.44 39.24H483.32C483.254 38.16 482.954 37.36 482.42 36.84C481.9 36.32 481.22 36.06 480.38 36.06ZM485.986 43.94H486.286C486.699 43.94 487.019 43.8 487.246 43.52C487.473 43.24 487.639 42.8333 487.746 42.3C487.866 41.7667 487.933 41.12 487.946 40.36C487.973 39.6 487.986 38.7467 487.986 37.8V35H494.786V45H493.466V36.2H489.306V37.8C489.306 38.88 489.286 39.8667 489.246 40.76C489.219 41.6533 489.106 42.4267 488.906 43.08C488.719 43.7333 488.419 44.24 488.006 44.6C487.606 44.96 487.033 45.14 486.286 45.14H485.986V43.94ZM503.184 35H504.224L504.384 36.5H504.424C504.864 35.9267 505.351 35.5133 505.884 35.26C506.418 34.9933 507.044 34.86 507.764 34.86C508.351 34.86 508.891 34.9667 509.384 35.18C509.878 35.38 510.298 35.6867 510.644 36.1C511.004 36.5 511.284 37 511.484 37.6C511.684 38.2 511.784 38.8867 511.784 39.66V40.34C511.784 41.1133 511.684 41.8 511.484 42.4C511.284 42.9867 511.004 43.4867 510.644 43.9C510.284 44.3 509.858 44.6067 509.364 44.82C508.871 45.0333 508.338 45.14 507.764 45.14C506.324 45.14 505.251 44.6267 504.544 43.6H504.504V49H503.184V35ZM507.464 43.94C508.344 43.94 509.058 43.6467 509.604 43.06C510.151 42.46 510.424 41.5533 510.424 40.34V39.66C510.424 38.4733 510.144 37.58 509.584 36.98C509.038 36.3667 508.331 36.06 507.464 36.06C506.584 36.06 505.871 36.36 505.324 36.96C504.778 37.5467 504.504 38.4467 504.504 39.66V40.34C504.504 41.5267 504.778 42.4267 505.324 43.04C505.884 43.64 506.598 43.94 507.464 43.94ZM518.391 45.14C517.044 45.14 515.971 44.7267 515.171 43.9C514.384 43.0733 513.991 41.8867 513.991 40.34V39.66C513.991 38.9 514.091 38.22 514.291 37.62C514.504 37.02 514.804 36.52 515.191 36.12C515.577 35.7067 516.037 35.3933 516.571 35.18C517.117 34.9667 517.724 34.86 518.391 34.86C519.737 34.86 520.804 35.2733 521.591 36.1C522.391 36.9267 522.791 38.1133 522.791 39.66V40.34C522.791 41.1 522.684 41.78 522.471 42.38C522.271 42.98 521.977 43.4867 521.591 43.9C521.204 44.3 520.737 44.6067 520.191 44.82C519.657 45.0333 519.057 45.14 518.391 45.14ZM518.391 43.94C519.311 43.94 520.044 43.64 520.591 43.04C521.151 42.44 521.431 41.54 521.431 40.34V39.66C521.431 38.4733 521.151 37.58 520.591 36.98C520.031 36.3667 519.297 36.06 518.391 36.06C517.471 36.06 516.731 36.36 516.171 36.96C515.624 37.56 515.351 38.46 515.351 39.66V40.34C515.351 41.5267 515.631 42.4267 516.191 43.04C516.751 43.64 517.484 43.94 518.391 43.94ZM525.587 35H529.387C530.56 35 531.42 35.2467 531.967 35.74C532.513 36.2333 532.787 36.9 532.787 37.74C532.787 38.18 532.673 38.58 532.447 38.94C532.233 39.3 531.927 39.58 531.527 39.78V39.82C532.073 40.0333 532.487 40.34 532.767 40.74C533.047 41.14 533.187 41.6067 533.187 42.14C533.187 43.0333 532.913 43.7333 532.367 44.24C531.82 44.7467 530.96 45 529.787 45H525.587V35ZM531.427 37.76C531.427 37.2667 531.267 36.8867 530.947 36.62C530.627 36.34 530.073 36.2 529.287 36.2H526.907V39.34H529.287C530.073 39.34 530.627 39.2067 530.947 38.94C531.267 38.66 531.427 38.2667 531.427 37.76ZM531.827 42.12C531.827 41.5733 531.667 41.16 531.347 40.88C531.027 40.6 530.473 40.46 529.687 40.46H526.907V43.8H529.687C530.473 43.8 531.027 43.66 531.347 43.38C531.667 43.1 531.827 42.68 531.827 42.12ZM535.977 35H537.297V39.3H542.857V35H544.177V45H542.857V40.5H537.297V45H535.977V35ZM551.379 45.14C550.032 45.14 548.959 44.7267 548.159 43.9C547.372 43.0733 546.979 41.8867 546.979 40.34V39.66C546.979 38.9 547.079 38.22 547.279 37.62C547.492 37.02 547.792 36.52 548.179 36.12C548.566 35.7067 549.026 35.3933 549.559 35.18C550.106 34.9667 550.712 34.86 551.379 34.86C552.726 34.86 553.792 35.2733 554.579 36.1C555.379 36.9267 555.779 38.1133 555.779 39.66V40.34C555.779 41.1 555.672 41.78 555.459 42.38C555.259 42.98 554.966 43.4867 554.579 43.9C554.192 44.3 553.726 44.6067 553.179 44.82C552.646 45.0333 552.046 45.14 551.379 45.14ZM551.379 43.94C552.299 43.94 553.032 43.64 553.579 43.04C554.139 42.44 554.419 41.54 554.419 40.34V39.66C554.419 38.4733 554.139 37.58 553.579 36.98C553.019 36.3667 552.286 36.06 551.379 36.06C550.459 36.06 549.719 36.36 549.159 36.96C548.612 37.56 548.339 38.46 548.339 39.66V40.34C548.339 41.5267 548.619 42.4267 549.179 43.04C549.739 43.64 550.472 43.94 551.379 43.94Z" fill="white"/>
<g clip-path="url(#clip0)">
<path d="M237 132.739L264.003 132.739L264.003 159L237 159L237 132.739ZM264.003 132.561L290.997 132.561L290.997 106.3L263.993 106.3L263.993 132.561L264.003 132.561ZM290.997 106.261L318 106.261L318 80L290.997 80L290.997 106.261Z" fill="url(#paint1_linear)"/>
</g>
<g clip-path="url(#clip1)">
<path d="M133.53 293.33C131.35 294.27 65.7101 412.2 38.3501 402.21" stroke="white" stroke-width="2" stroke-miterlimit="10"/>
<path d="M126.67 294.21C123.46 295.01 97.5799 408.31 65.3799 410.72" stroke="white" stroke-width="2" stroke-miterlimit="10"/>
<path d="M119.41 294.44C119.41 294.44 135.76 384.08 100 406.27" stroke="white" stroke-width="2" stroke-miterlimit="10"/>
<path d="M123.14 294.44C123.14 294.44 154.57 400.89 175.33 411.96" stroke="white" stroke-width="2" stroke-miterlimit="10"/>
<path d="M160.56 349.07C159.8 349.56 180.21 407.41 207.89 414" stroke="white" stroke-width="2" stroke-miterlimit="10"/>
<path d="M181.92 349.67C182.41 353.87 200.59 403.76 225.49 407.55" stroke="white" stroke-width="2" stroke-miterlimit="10"/>
<path d="M55.78 389.27C75.55 353.52 69.19 322.75 144.22 247.82" stroke="white" stroke-width="1.8981" stroke-miterlimit="10" stroke-linecap="round"/>
<path d="M119.15 396.19C119.32 397.88 119.45 399.68 119.52 401.58C118.49 401.76 117.45 401.97 116.41 402.19C100.65 405.52 83.6699 412.2 65.3799 410.72C31.3399 407.99 19.6799 383.43 17.4299 376.88C17.5299 377.06 17.2699 376.72 17.4299 376.88C25.7999 385.36 51.0399 405.04 113.68 396.96C115.47 396.73 117.29 396.47 119.15 396.19Z" stroke="white" stroke-width="2.1687" stroke-miterlimit="10"/>
<path d="M224.81 379.16C224.81 379.16 224.81 379.16 227.29 377.53C230.51 375.41 234.4 374.54 238.21 375.08C240.05 375.34 241.66 375.63 242.08 375.75C242.06 375.72 242.05 375.69 242.03 375.66C241.81 375.27 238.17 366.76 237.59 364.84C236.01 365.46 221.34 372.37 221.75 373.06C199.85 370.67 188.05 377.49 159.51 389.73C158.11 390.33 156.7 390.89 155.3 391.39C155.28 392.11 155.28 392.84 155.28 393.58C155.28 398.26 155.43 402.63 155.78 406.83C192.96 419.23 214.56 415.67 228.17 406.26C227.94 404.43 227.7 402 227.48 400.44C226.58 394.2 221.65 390.55 221.48 384.31C221.43 382.5 221.82 382.04 222.78 380.51L224.81 379.16Z" stroke="white" stroke-width="2.1687" stroke-miterlimit="10"/>
<path d="M221.49 372.91C199.59 370.52 187.79 377.34 159.25 389.58C157.85 390.18 156.44 390.74 155.04 391.24C155.05 390.38 155.07 389.54 155.1 388.71C155.93 388.5 156.78 388.27 157.62 388.04C165.95 385.82 173.91 378.8 183.15 375.73C194.75 371.88 221.08 372.22 221.49 372.91Z" stroke="white" stroke-width="2.1687" stroke-miterlimit="10"/>
<path d="M157.62 388.04C141.3 392.42 126.71 395.27 113.68 396.96C110.83 392.66 108.02 391.2 108.02 391.2L108.38 375.88L108.51 370.01C108.51 370.01 116.66 371 126.51 372.24C141.5 374.14 160.41 376.64 160.56 377.23C160.69 377.75 159.11 381.57 157.62 388.04Z" fill="url(#paint2_linear)" stroke="white" stroke-width="2.1687" stroke-miterlimit="10"/>
<path d="M98.8701 467.11C83.9301 450.73 117.18 447.52 119.35 412.72C119.6 408.65 119.64 404.96 119.51 401.58C119.44 399.68 119.31 397.88 119.14 396.19C130.05 394.56 142 392.13 155.09 388.71C155.04 390.24 155.01 391.81 155.01 393.43C155.01 398.11 155.16 402.48 155.51 406.68C156.94 424.27 161.74 438.79 172.84 459.79C186.58 485.81 113.81 483.47 98.8701 467.11Z" stroke="white" stroke-width="2.3889" stroke-miterlimit="10"/>
<path d="M155.11 388.06C155.1 388.28 155.1 388.49 155.09 388.71C142 392.14 130.05 394.57 119.14 396.19C118.6 390.75 117.59 386.32 116.4 382.77C126.46 380.19 136.03 379.27 145.12 383.63C148.56 385.27 151.89 386.75 155.11 388.06Z" stroke="white" stroke-width="2.3889" stroke-miterlimit="10"/>
<path d="M221.49 372.91C199.59 370.52 187.79 377.34 159.25 389.58C157.85 390.18 156.44 390.74 155.04 391.24C140.95 396.34 127.15 396.96 115.31 398.5C52.67 406.58 26.3 387.42 17.93 378.94C17.76 378.78 17.64 378.6 17.55 378.42C17.55 378.41 17.54 378.39 17.52 378.37C17.49 378.28 17.46 378.19 17.44 378.12V378.09C17.03 376.83 17.91 375.38 19.41 375.39C27.54 375.45 44.63 373.82 57.4 360.7C74.75 342.86 84.72 319.59 92.57 311.06C110.89 291.14 140 291.06 163.27 299.66C164.06 299.95 164.71 300.55 165.43 301.03C163.52 301.66 162.22 302.17 161.94 302.29L154.99 316.12C154.99 316.12 154.99 316.12 154.98 316.13C154.55 316.28 143.12 320.62 142.43 337.45C141 339.57 145.22 343.65 145.22 343.65C145.22 343.65 156.08 350.65 161.65 344.48C167.17 341.84 174.56 345.17 174.56 345.17C174.56 345.17 190.38 348.18 201.62 346.61C201.94 350.07 202.53 354.66 203.5 359.79C205.08 357.73 207.37 355.63 210.1 353.61C211.61 356.02 213.76 359.65 215.98 363.44C216.83 364.9 217.69 366.38 218.54 367.83C219.11 368.83 221.08 372.22 221.49 372.91Z" fill="url(#paint3_linear)" stroke="white" stroke-width="2.1687" stroke-miterlimit="10"/>
<path d="M80.9599 348.27C79.0999 348.27 77.2999 349.06 76.1199 350.51C71.4599 356.22 65.1699 360 62.5999 365.79C59.7099 372.3 69.1099 375.55 72.3599 370.85C75.6099 366.15 85.7299 348.28 81.7599 348.28H80.9599V348.27Z" fill="white" stroke="white" stroke-width="2.1687" stroke-miterlimit="10"/>
<path d="M101.19 313.58C101.19 314.11 101.11 314.64 100.97 315.15C98.44 324.36 100.92 328.35 104.08 324.13C107.33 319.79 110.34 311.12 108.29 310.76C106.24 310.4 101.18 310.04 101.18 312.21V313.58H101.19Z" fill="white" stroke="white" stroke-width="2.1687" stroke-miterlimit="10"/>
<path d="M104.81 360.55C103.01 362.25 84.2099 375.56 96.8599 380.37C109.51 385.18 116.44 369.96 116.38 363.86C116.34 360.91 109.51 356.09 104.81 360.55Z" fill="white" stroke="white" stroke-width="2.1687" stroke-miterlimit="10"/>
<path d="M138.78 363.38C139.72 368.78 141.98 373.57 143.45 376.26C144.34 377.88 145.58 379.28 147.1 380.33C151.45 383.34 160.12 387.72 160.47 372.36C161.1 344.38 139.87 355.39 138.78 357.03C137.69 358.68 138.78 363.38 138.78 363.38Z" fill="white" stroke="white" stroke-width="2.1687" stroke-miterlimit="10"/>
<path d="M144.18 305.94C142.95 304.55 141.11 303.87 139.27 304.14C133.88 304.93 123.6 306.44 130.97 310.93C140.32 316.62 149.11 311.74 148.51 310.93C148.14 310.45 145.9 307.89 144.18 305.94Z" fill="white" stroke="white" stroke-width="2.1687" stroke-miterlimit="10"/>
<path d="M120.86 338.44C120.95 338.6 121.05 338.77 121.16 338.92C126.58 346.74 134.61 343.52 133.41 338.68C132.2 333.79 132.23 330.14 127.51 328.89C125.31 328.31 123.22 329.5 121.62 330.93C119.67 332.68 119.23 335.57 120.52 337.85L120.86 338.44Z" fill="white" stroke="white" stroke-width="2.1687" stroke-miterlimit="10"/>
<path d="M132.97 69.94C136.98 67.45 146.08 62.89 159.89 62.12C169.93 61.57 182.46 63.02 197.33 68.76" stroke="white" stroke-width="2.1095" stroke-miterlimit="10" stroke-linecap="round"/>
<path d="M158.9 62.12C168.49 57.74 189 57.39 198.46 58.83" stroke="white" stroke-width="2.1095" stroke-miterlimit="10" stroke-linecap="round"/>
<path d="M135.7 149.89C122.24 151.18 104.24 147.22 98.8001 147.74C93.3601 148.26 96.2501 237.58 107.65 251.3C119.05 265.02 185.93 227.39 203.02 227.91C203.02 227.91 200.17 217.81 201.73 210.56C182.76 213.17 127.62 219.32 124.45 224.11" stroke="white" stroke-width="2" stroke-miterlimit="10" stroke-linecap="round" stroke-linejoin="round"/>
<path d="M202.24 210.09C205.35 205.43 209.4 208.92 208.2 214.1C210.96 214.79 212.3 217.47 209.37 220.57C212.65 221.26 215.41 226.65 211.44 227.17C216.1 229.93 227.49 237.4 222.31 240.85C222.31 240.85 230.25 245.34 225.24 257.25C218.81 261.74 219.91 253.55 219.16 245.77C218.47 229.89 203.06 227.6 201.6 228.21" stroke="white" stroke-width="2" stroke-miterlimit="10" stroke-linecap="round" stroke-linejoin="round"/>
<path d="M168.76 163.62C172.21 163.41 173.42 156.72 168.07 156.89C162.71 157.06 163.06 163.96 168.76 163.62Z" stroke="white" stroke-width="2" stroke-miterlimit="10" stroke-linecap="round"/>
<path d="M164.48 161.35C160.14 165.39 152.51 171.28 149.6 171.73" stroke="white" stroke-width="2" stroke-miterlimit="10" stroke-linecap="round"/>
<path d="M165.64 157.62C158.56 157.78 133.72 158.33 128.19 165.86C127.96 168.9 130.25 170.95 131.56 174.2C132.31 176.07 142.18 190.96 147.01 189.5C161.52 184.99 166.25 169.21 167.5 163.56" stroke="white" stroke-width="2" stroke-miterlimit="10" stroke-linecap="round"/>
<path d="M182.8 170.66C180.54 170.32 174.6 165.73 171.23 162.59" stroke="white" stroke-width="2" stroke-miterlimit="10" stroke-linecap="round"/>
<path d="M171.7 159.72C172.51 159.74 173.46 159.77 174.53 159.81C174.9 159.83 175.27 159.84 175.66 159.86C178.03 159.98 180.8 160.18 183.62 160.51C185.3 160.71 186.99 160.97 188.62 161.28C193.43 162.21 197.69 163.7 199.45 166.1C198.9 172.23 191.53 186.5 184.82 184.49C180.13 183.04 176.75 180.05 174.33 176.76V176.75C170.94 172.13 169.12 166.26 168.55 163.7" stroke="white" stroke-width="2" stroke-miterlimit="10" stroke-linecap="round"/>
<path d="M96.48 186.08C107.44 289.94 32.9 344.89 22.23 375.34" stroke="white" stroke-width="2" stroke-miterlimit="10" stroke-linecap="round"/>
<path d="M154.99 316.12C154.99 316.12 155.96 317.9 156.39 319.97" stroke="white" stroke-width="2" stroke-miterlimit="10" stroke-linecap="round" stroke-linejoin="round"/>
<path d="M194.48 298.25C210.02 297.34 209.76 291.13 209.76 291.13C210.28 278.44 181.02 284.92 171.05 286.34C158.23 288.67 161.34 295.14 164.19 295.4" stroke="white" stroke-width="2" stroke-miterlimit="10" stroke-linecap="round"/>
<path d="M190.47 302.1C196.2 295.02 202.47 287.22 204.6 284.57" stroke="white" stroke-width="2" stroke-miterlimit="10" stroke-linecap="round"/>
<path d="M180.1 314.57C177.6 314.83 162.84 316.08 156.38 319.97" stroke="white" stroke-width="2" stroke-miterlimit="10" stroke-linecap="round"/>
<path d="M142.49 336.32C143.38 335.51 144.26 334.93 145.08 334.5C151.34 331.23 158.5 334.53 160.07 335.29C162.59 333.61 165.42 332.1 168.57 330.89C188.17 323.38 207.64 332.56 213.84 335.81C213.84 335.81 220.36 322.21 209.1 317.42C205 315.65 187.6 313.69 180.35 314.53C180.93 313.84 181.81 312.76 182.91 311.42C184.07 310 185.46 308.29 186.98 306.41C188.09 305.04 189.27 303.59 190.46 302.1C187.02 294.96 172.28 298.76 165.42 301.03C163.51 301.66 162.21 302.17 161.93 302.29L154.98 316.12C153.09 317.07 149.47 319.21 146.55 323.39C142.81 328.76 142.5 334.22 142.49 336.32Z" stroke="white" stroke-width="2" stroke-miterlimit="10" stroke-linecap="round"/>
<path d="M220.11 256.05L209.75 291.13" stroke="white" stroke-width="2" stroke-miterlimit="10" stroke-linecap="round"/>
<path d="M211.95 284.14C211.95 284.14 227.83 320.26 229.9 328.37" stroke="white" stroke-width="2" stroke-miterlimit="10" stroke-linecap="round"/>
<path d="M225.42 315.78C225.42 315.78 244.92 334.59 246.65 338.56C243.56 338.38 238.3 339.66 232.43 341.84" stroke="white" stroke-width="2" stroke-miterlimit="10" stroke-linecap="round" stroke-linejoin="round"/>
<path d="M183.47 260.32C183.08 264.59 161.98 286.21 161.46 291.91" stroke="white" stroke-width="2" stroke-miterlimit="10" stroke-linecap="round" stroke-linejoin="round"/>
<path d="M161.94 302.29L163.27 299.66L165.47 295.29L169.84 286.59" stroke="white" stroke-width="2" stroke-miterlimit="10" stroke-linecap="round"/>
<path d="M235.96 359.73C233.83 360.54 229.12 362.41 224.91 364.38C222.39 365.56 220.04 366.78 218.54 367.83C217.69 366.38 216.83 364.9 215.98 363.44C216.69 362.71 218.03 361.85 219.69 360.95C224.49 358.34 231.98 355.37 234.7 354.32C235.08 356.07 235.5 357.9 235.96 359.73Z" stroke="white" stroke-width="2" stroke-miterlimit="10" stroke-linecap="round"/>
<path d="M234.7 354.32C231.98 355.37 224.49 358.34 219.69 360.95C218.03 361.85 216.69 362.71 215.98 363.44C213.76 359.65 211.61 356.02 210.1 353.61C210.15 353.57 210.2 353.53 210.25 353.5C216.48 348.89 224.95 344.63 232.43 341.84C232.69 343.61 233.46 348.56 234.7 354.32Z" stroke="white" stroke-width="2" stroke-miterlimit="10" stroke-linecap="round"/>
<path d="M207.42 211.17C207.42 211.17 219.33 206.85 224.77 209.06C230.21 211.26 227.49 213.33 224.38 213.59C221.27 213.85 215.19 215.27 215.19 215.27" stroke="white" stroke-width="2" stroke-miterlimit="10" stroke-linecap="round"/>
<path d="M212.93 227.34C214.97 227.33 218.03 227.29 222.44 227.18C232.51 226.93 231.56 214.2 227.82 211.95C227.71 211.88 227.6 211.83 227.49 211.78" stroke="white" stroke-width="2" stroke-miterlimit="10" stroke-linecap="round"/>
<path d="M253.48 202.36C264.299 202.36 273.07 200.932 273.07 199.17C273.07 197.408 264.299 195.98 253.48 195.98C242.661 195.98 233.89 197.408 233.89 199.17C233.89 200.932 242.661 202.36 253.48 202.36Z" stroke="white" stroke-width="2" stroke-miterlimit="10" stroke-linecap="round"/>
<path d="M253.48 226.26C260.726 226.26 266.6 225.302 266.6 224.12C266.6 222.938 260.726 221.98 253.48 221.98C246.234 221.98 240.36 222.938 240.36 224.12C240.36 225.302 246.234 226.26 253.48 226.26Z" stroke="white" stroke-width="2" stroke-miterlimit="10" stroke-linecap="round"/>
<path d="M272.77 198.62C272.85 198.92 272.92 199.2 272.97 199.51C273.22 200.69 273.35 201.92 273.35 203.18C273.35 213.49 264.61 221.87 253.78 221.99C253.69 222 253.61 222 253.52 222C253.43 222 253.33 222 253.24 221.99C248.49 221.94 244.14 220.28 240.76 217.58C236.45 214.12 233.71 208.96 233.71 203.18C233.71 202.02 233.82 200.88 234.04 199.79C234.05 199.74 234.06 199.68 234.07 199.63C234.14 199.25 234.23 198.88 234.33 198.51" stroke="white" stroke-width="2" stroke-miterlimit="10" stroke-linecap="round"/>
<path d="M224.69 209.03C225.66 206.15 228.5 204.07 231.85 204.07C232.24 204.07 232.63 204.1 233 204.15C233.05 204.17 233.11 204.17 233.16 204.18C233.17 204.18 233.17 204.18 233.17 204.18" stroke="white" stroke-width="2" stroke-miterlimit="10" stroke-linecap="round"/>
<path d="M230.43 218.19C230.89 218.28 231.36 218.32 231.84 218.32C234.07 218.32 236.07 217.4 237.45 215.93" stroke="white" stroke-width="2" stroke-miterlimit="10" stroke-linecap="round"/>
<path d="M252.99 192.02C252.99 192.02 243.15 190.48 249.88 187.4C256.61 184.32 271.11 183.94 252.99 172.39C234.87 160.85 256.1 161.62 256.61 155.08C257.13 148.54 247.81 147.77 248.84 141.23" stroke="white" stroke-width="1.724" stroke-miterlimit="10" stroke-linecap="round"/>
<path d="M165.17 295.41C165.86 295.06 190.2 285.57 194 295.76" stroke="white" stroke-width="2" stroke-miterlimit="10" stroke-linecap="round"/>
<path d="M161.94 302.29C161.92 302.3 161.91 302.31 161.9 302.31" stroke="white" stroke-width="2" stroke-miterlimit="10" stroke-linecap="round"/>
<path d="M186.99 306.41C181.11 300.76 159.96 308.21 159.65 308.36" stroke="white" stroke-width="2" stroke-miterlimit="10" stroke-linecap="round"/>
<path d="M183.67 310.49C177.22 306.98 157.17 314 156.72 314.23" stroke="white" stroke-width="2" stroke-miterlimit="10" stroke-linecap="round"/>
<path d="M188.61 161.29C188.44 159.34 188.24 157.27 188.02 155.33C187.54 151.03 187.01 147.41 186.71 147.31C185.93 147.05 177.9 146.53 177.9 146.53L174.52 159.82" stroke="white" stroke-width="2" stroke-miterlimit="10" stroke-linecap="round" stroke-linejoin="round"/>
<path d="M168.71 129.81C170.61 130.99 176.06 133.72 181.95 133.23C184.91 132.94 186.88 131.35 189.1 130.56C189.12 132.03 185.82 138.88 180.42 138.64C175.63 138.43 171.02 133.06 168.71 129.81Z" fill="white"/>
<path d="M188 155.33C191.62 155.33 200.95 155.59 204.05 155.59C207.16 155.59 198.09 208.41 198.09 210.22" stroke="white" stroke-width="2" stroke-miterlimit="10" stroke-linecap="round" stroke-linejoin="round"/>
<path d="M155.9 216.44C158.49 209.19 157.71 185.11 158.23 182.26" stroke="white" stroke-width="2" stroke-miterlimit="10" stroke-linecap="round"/>
<path d="M174.32 176.75C174.44 190.09 174.9 207.68 176.35 212.64" stroke="white" stroke-width="2" stroke-miterlimit="10" stroke-linecap="round"/>
<path d="M233.31 348.23C233.31 348.23 214.67 355.22 213.11 358.33" stroke="white" stroke-width="2" stroke-miterlimit="10" stroke-linecap="round"/>
<path d="M221.25 140.64C221.27 140.67 221.29 140.72 221.31 140.74C221.51 140.94 221.46 140.88 221.25 140.64Z" fill="url(#paint4_linear)"/>
<path d="M235.33 105.6C228.23 105.87 225.46 100.46 226.32 100.41C237.38 99.73 247.9 87.85 246.53 87.57C245.7 87.4 231.84 90.7 225.14 90.3C227.76 87.53 237.29 80 239.43 75.28C215.4 90.76 197.65 92.76 197.65 92.76V101.06L197.4 126.45C196.56 130.6 194.98 141.08 199.42 145.2C199.16 143.34 199.45 139.37 199.8 135.56C202.02 140.09 205.99 145.38 212.67 146.29C207.68 141.87 208.05 136.5 207.15 130.12C209.04 132.07 211.09 134.63 212.53 137.69C215.94 144.93 222.5 141.92 222.5 141.92C222.5 141.92 217.58 141.51 215.26 134.68C213.82 130.44 212.17 126.89 210.96 124.8C215.36 126.44 221.94 133.87 231.24 136.59C227.14 131.4 224.14 128.81 221.68 124.3C218.54 119.11 213.35 117.75 213.35 117.75C212.9 116.05 221.41 117.34 225.09 119.93C227.41 121.43 231.1 128.4 238.2 128.4C232.87 124.3 235.33 120.62 228.78 115.97C219.49 111.42 219.49 107.23 220.04 108.05C231.87 115.79 238.25 107.96 245.98 111.19C246.81 110.96 242.43 105.33 235.33 105.6Z" fill="url(#paint5_linear)"/>
<path d="M123.47 138.76C123.45 138.79 123.43 138.83 123.4 138.85C123.17 139.04 123.23 138.99 123.47 138.76Z" fill="url(#paint6_linear)"/>
<path d="M107.13 106.76C115.37 107.01 118.59 102.07 117.59 102.02C104.75 101.4 92.5499 90.54 94.1399 90.3C95.0999 90.15 111.19 93.16 118.97 92.79C115.93 90.26 104.87 83.38 102.38 79.07C104.68 81.55 111.81 85.07 119.92 88.91C121.43 88.89 122.75 88.89 123.78 88.92L144.23 94.24L146.33 103.89L151.17 125.8C152.14 129.59 147.53 129.11 147.12 125.63C144.55 129.76 141.19 143.1 133.44 143.93C139.23 139.89 138.8 134.99 139.84 129.16C137.65 130.94 135.27 133.28 133.6 136.07C129.64 142.68 122.03 139.94 122.03 139.94C122.03 139.94 127.73 139.57 130.43 133.33C132.1 129.46 134.02 126.21 135.42 124.31C130.31 125.81 122.67 132.6 111.89 135.08C116.64 130.34 120.13 127.97 122.98 123.85C126.62 119.11 132.65 117.86 132.65 117.86C133.17 116.31 123.3 117.49 119.02 119.86C116.33 121.23 112.05 127.59 103.81 127.59C109.99 123.85 107.14 120.48 114.74 116.24C125.52 112.08 125.52 108.26 124.88 109.01C111.15 116.08 103.75 108.93 94.7699 111.88C93.8099 111.65 98.8899 106.51 107.13 106.76Z" fill="url(#paint7_linear)"/>
<path d="M131.56 195.98L130.87 221.09" stroke="white" stroke-width="2" stroke-miterlimit="10" stroke-linecap="round"/>
<path d="M191.2 192.62L194.3 211.26" stroke="white" stroke-width="2" stroke-miterlimit="10" stroke-linecap="round"/>
<path d="M151.36 138.32C151.36 138.32 164.1 144.63 166.86 146.36C169.62 148.09 167.38 156.54 167.38 156.54" stroke="white" stroke-width="2" stroke-miterlimit="10" stroke-linecap="round"/>
<path d="M176.46 145.91L168.24 147.74" stroke="white" stroke-width="2" stroke-miterlimit="10" stroke-linecap="round"/>
<path d="M197.64 92.77V132.94C197.64 134.8 196.95 136.59 195.71 137.98L187.76 146.83" stroke="white" stroke-width="2.1095" stroke-miterlimit="10" stroke-linecap="round" stroke-linejoin="round"/>
<path d="M152.96 160.9C148.86 139.15 151.35 129.81 151.35 129.81C147.5 132.84 133.16 156.49 130.06 160.38C143.26 153.39 150.26 150.8 152.59 160.9C152.59 160.91 152.6 160.92 152.6 160.93" stroke="white" stroke-width="2" stroke-miterlimit="10" stroke-linecap="round" stroke-linejoin="round"/>
<path d="M141.28 93.52C137.32 81.1 131.65 63.12 116.71 36.15C105.79 11.75 215.76 7.74 209.84 23.22C204.76 36.46 195.67 67.8 193.98 92.92" stroke="white" stroke-width="2.1095" stroke-miterlimit="10" stroke-linecap="round"/>
<path d="M143.86 94.4L150.62 128.58C150.62 128.58 155.03 137.05 177.43 146.47" stroke="white" stroke-width="2.1095" stroke-miterlimit="10" stroke-linecap="round" stroke-linejoin="round"/>
<path d="M198.28 155.51C197.96 156.89 197.15 159.63 195.81 163.43" stroke="white" stroke-width="2" stroke-miterlimit="10" stroke-linecap="round"/>
<path d="M238.47 74.56C193 106.79 125.13 97.64 102.6 78.39" stroke="white" stroke-width="2.1095" stroke-miterlimit="10" stroke-linecap="round"/>
<path d="M210.79 92.13C209.42 93.13 203.06 98.88 195.69 100.52C195.62 100.54 195.55 100.56 195.48 100.58C196.12 98.61 196.2 95.68 196.2 95.68C196.2 95.68 193.84 98.24 192.09 99.82C191 100.81 188.17 103.16 187.83 103.31C188.22 103.01 189.26 101.22 190.28 98.61C188.15 100.98 184.43 104.68 183.27 106.34C183.29 105.59 181.73 103.01 181.31 101.73C181.42 102.98 181.5 106 180.84 108.73C180.99 108.95 183 108.29 189.22 107.56C192.38 107.03 196.03 107.44 197.29 107.39C201.04 107.25 205.77 105.56 205.77 105.56C205.77 105.56 202.33 105.49 199.63 105.28C207.63 103.7 210.62 92.83 210.79 92.13Z" fill="url(#paint8_linear)"/>
<path d="M144.56 89.72C146.04 90.82 152.94 97.11 160.96 98.95C161.04 98.97 161.12 98.99 161.19 99.02C160.5 96.87 160.44 93.68 160.44 93.68C160.44 93.68 163 96.48 164.89 98.21C166.08 99.3 169.14 101.87 169.51 102.04C169.09 101.71 167.97 99.76 166.87 96.91C169.17 99.5 173.21 103.55 174.46 105.37C174.44 104.55 176.16 101.76 176.62 100.36C176.49 101.72 176.39 105.01 177.09 107.98C176.93 108.22 174.74 107.49 167.98 106.66C164.54 106.06 160.57 106.49 159.19 106.43C155.11 106.25 149.97 104.39 149.97 104.39C149.97 104.39 153.72 104.33 156.66 104.12C147.94 102.34 144.75 90.5 144.56 89.72Z" fill="url(#paint9_linear)"/>
<path d="M142.75 337.09C142.62 337.2 142.51 337.32 142.43 337.45" stroke="white" stroke-width="2" stroke-miterlimit="10" stroke-linecap="round"/>
<path d="M142.78 337.06C142.77 337.07 142.76 337.08 142.75 337.08" stroke="white" stroke-width="2" stroke-miterlimit="10" stroke-linecap="round"/>
<path d="M203.02 346.39C205.89 345.87 208.38 345 210.1 343.65C215.89 339.11 213.3 334.54 213.13 334.26C213.12 334.25 213.12 334.25 213.12 334.25" stroke="white" stroke-width="2" stroke-miterlimit="10" stroke-linecap="round"/>
<path d="M173.83 112.69C172.06 110.88 170.47 109.81 169.08 109.22C169.46 109.7 169.67 110.31 169.63 110.96C169.54 112.37 168.33 113.44 166.92 113.35C165.51 113.26 164.44 112.05 164.53 110.64C164.58 109.82 165.02 109.13 165.65 108.7C163.79 108.95 162.54 110.09 161.94 110.78C161.66 111.1 161.63 111.56 161.84 111.93C163.44 114.81 166.04 116.69 173.42 114.36C174.12 114.14 174.35 113.23 173.83 112.69Z" fill="white"/>
<path d="M192.68 109.9C190.75 108.68 189.2 108.7 187.97 109.25C188.02 109.25 188.07 109.23 188.12 109.23C189.35 109.23 190.35 110.23 190.35 111.46C190.35 112.69 189.35 113.69 188.12 113.69C186.89 113.69 185.89 112.69 185.89 111.46C185.89 111.23 185.93 111.01 186 110.81C185.46 111.46 185.05 112.16 184.78 112.7C184.51 113.24 184.77 113.9 185.34 114.11C190.21 115.91 198.12 113.33 192.68 109.9Z" fill="white"/>
<path d="M235.96 359.73C235.96 359.73 236.81 362.83 237.71 365.22L235.96 359.73Z" fill="url(#paint10_linear)"/>
<path d="M235.96 359.73C235.96 359.73 236.81 362.83 237.71 365.22" stroke="white" stroke-width="2.1687" stroke-miterlimit="10"/>
<path d="M221.2 372.92C221.2 372.92 225.03 377.59 224.28 379.84L221.2 372.92Z" fill="url(#paint11_linear)"/>
<path d="M221.2 372.92C221.2 372.92 225.03 377.59 224.28 379.84" stroke="white" stroke-width="2.1687" stroke-miterlimit="10"/>
<path d="M230.66 375.97C229.99 376.4 216.22 379 223.77 390.59C231.33 402.18 226.8 420.86 228.21 427.07C230.49 437.07 250.89 442.72 260.49 427.14C265.15 419.57 259.64 409.82 257.55 399.42C255.33 388.39 253.76 384.63 250.88 380.77C248.47 377.53 245.27 375.97 242.13 375.31C236.3 374.09 230.66 375.97 230.66 375.97Z" stroke="white" stroke-width="2.1687" stroke-miterlimit="10"/>
<path d="M228.22 427.07C228.44 428.58 239 434.24 248.5 429.74C251.83 428.16 259.5 424.88 254.17 404.55C248.95 384.67 242.14 375.32 242.14 375.32" stroke="white" stroke-width="2.1687" stroke-miterlimit="10"/>
<path d="M221.52 381.83C221.34 383.31 232.29 394.63 233.31 402.8C234.33 410.97 245.55 411.47 245.55 404.21C245.55 396.95 241.32 376.68 239.91 375.32" stroke="white" stroke-width="2" stroke-miterlimit="10"/>
<path d="M233.31 407.55C233.33 406.48 243.59 398.9 245.46 402.11C247.33 405.32 231.96 398.29 231.96 398.29L244.15 392.34H226.83L242.08 383.31" stroke="white" stroke-width="2" stroke-miterlimit="10"/>
<path d="M179.48 109.91C179.48 109.91 179.84 116.45 183.18 124.09C184.52 127.16 174.52 123.87 174.52 123.87" stroke="white" stroke-width="2.1095" stroke-miterlimit="10" stroke-linecap="round"/>
</g>
<defs>
<linearGradient id="paint0_linear" x1="318" y1="39.9984" x2="561.999" y2="39.9984" gradientUnits="userSpaceOnUse">
<stop stop-color="#3FFFD8"/>
<stop offset="0.6173" stop-color="#B9C3FC"/>
<stop offset="1" stop-color="#FF7EA7"/>
</linearGradient>
<linearGradient id="paint1_linear" x1="318" y1="119.501" x2="237.003" y2="119.501" gradientUnits="userSpaceOnUse">
<stop stop-color="#3FFFD8"/>
<stop offset="0.6173" stop-color="#B9C3FC"/>
<stop offset="1" stop-color="#FF7EA7"/>
</linearGradient>
<linearGradient id="paint2_linear" x1="129.716" y1="406.092" x2="142.276" y2="321.674" gradientUnits="userSpaceOnUse">
<stop stop-color="#3FFFD8"/>
<stop offset="0.4888" stop-color="#B9C3FC"/>
<stop offset="1" stop-color="#FF7EA7"/>
</linearGradient>
<linearGradient id="paint3_linear" x1="114.748" y1="406.441" x2="131.624" y2="293.018" gradientUnits="userSpaceOnUse">
<stop stop-color="#3FFFD8"/>
<stop offset="0.4888" stop-color="#B9C3FC"/>
<stop offset="1" stop-color="#FF7EA7"/>
</linearGradient>
<linearGradient id="paint4_linear" x1="221.338" y1="140.828" x2="221.351" y2="140.646" gradientUnits="userSpaceOnUse">
<stop stop-color="#3FFFD8"/>
<stop offset="0.6173" stop-color="#B9C3FC"/>
<stop offset="1" stop-color="#FF7EA7"/>
</linearGradient>
<linearGradient id="paint5_linear" x1="219.3" y1="137.299" x2="223.909" y2="73.6235" gradientUnits="userSpaceOnUse">
<stop stop-color="#3FFFD8"/>
<stop offset="0.6173" stop-color="#B9C3FC"/>
<stop offset="1" stop-color="#FF7EA7"/>
</linearGradient>
<linearGradient id="paint6_linear" x1="123.369" y1="138.935" x2="123.357" y2="138.772" gradientUnits="userSpaceOnUse">
<stop stop-color="#3FFFD8"/>
<stop offset="0.4888" stop-color="#B9C3FC"/>
<stop offset="1" stop-color="#FF7EA7"/>
</linearGradient>
<linearGradient id="paint7_linear" x1="124.183" y1="135.881" x2="119.943" y2="77.2981" gradientUnits="userSpaceOnUse">
<stop stop-color="#3FFFD8"/>
<stop offset="0.4888" stop-color="#B9C3FC"/>
<stop offset="1" stop-color="#FF7EA7"/>
</linearGradient>
<linearGradient id="paint8_linear" x1="196.519" y1="107.512" x2="195.147" y2="93.6815" gradientUnits="userSpaceOnUse">
<stop stop-color="#3FFFD8"/>
<stop offset="0.3268" stop-color="#B9C3FC"/>
<stop offset="1" stop-color="#FF7EA7"/>
</linearGradient>
<linearGradient id="paint9_linear" x1="159.618" y1="106.335" x2="161.189" y2="91.2846" gradientUnits="userSpaceOnUse">
<stop stop-color="#3FFFD8"/>
<stop offset="0.4888" stop-color="#B9C3FC"/>
<stop offset="1" stop-color="#FF7EA7"/>
</linearGradient>
<linearGradient id="paint10_linear" x1="236.454" y1="365.027" x2="237.215" y2="359.914" gradientUnits="userSpaceOnUse">
<stop stop-color="#3FFFD8"/>
<stop offset="0.4888" stop-color="#B9C3FC"/>
<stop offset="1" stop-color="#FF7EA7"/>
</linearGradient>
<linearGradient id="paint11_linear" x1="222.28" y1="379.537" x2="223.22" y2="373.219" gradientUnits="userSpaceOnUse">
<stop stop-color="#3FFFD8"/>
<stop offset="0.4888" stop-color="#B9C3FC"/>
<stop offset="1" stop-color="#FF7EA7"/>
</linearGradient>
<clipPath id="clip0">
<rect width="81" height="79" fill="white" transform="translate(318 159) rotate(-180)"/>
</clipPath>
<clipPath id="clip1">
<rect width="274.35" height="467.59" fill="white" transform="translate(0 13)"/>
</clipPath>
</defs>
</svg>
