<svg width="647" height="285" viewBox="0 0 647 285" fill="none" xmlns="http://www.w3.org/2000/svg">
<path d="M314.87 79.76H288.28V53.17H314.87V79.76ZM288.29 53.17H261.7V26.59H288.29V53.17ZM0.000152588 26.59H261.81V0L0.000152588 0V26.59Z" fill="url(#paint0_linear)"/>
<g clip-path="url(#clip0)">
<path d="M367.008 142.574C367.016 142.574 367.032 142.566 367.04 142.566C366.976 142.837 366.913 143.107 366.849 143.377C366.913 143.107 366.96 142.845 367.008 142.574Z" fill="url(#paint1_linear)"/>
<path d="M486.689 110.434C486.689 110.45 486.689 110.458 486.681 110.474C486.133 113.16 485.458 115.813 484.703 118.404C484.695 118.428 484.687 118.451 484.687 118.467C480.731 131.919 474.351 143.734 469.068 151.013C465.246 156.36 452.916 169.598 434.047 178.552C433.975 178.584 433.904 178.616 433.84 178.648C430.972 179.998 427.961 181.246 424.799 182.35C424.473 182.47 424.14 182.589 423.806 182.7C420.286 183.892 416.6 184.909 412.739 185.688C383.645 191.313 369.36 180.054 362.837 160.071C363.616 159.872 364.387 159.642 365.149 159.387C370.075 157.751 371.624 155.391 371.831 152.943C372.752 152.785 373.698 152.578 374.683 152.324C378.338 151.378 383.716 149.026 388.316 146.118C389.635 145.284 391.034 144.895 392.44 144.791C398.931 144.283 405.747 149.694 407.344 144.91C408.631 141.049 399.852 128.391 389 128.924C387.522 128.995 386.004 129.313 384.471 129.925C380.443 131.546 377.329 135.662 373.706 138.681C377.909 132.777 380.475 129.718 379.776 123.839C379.212 119.103 374.357 119.794 368.383 121.924C368.295 121.955 368.208 121.987 368.113 122.019C367.914 119.611 367.596 117.355 367.175 115.313C366.492 111.976 365.539 109.203 364.402 107.232C364.116 106.7 363.807 106.183 363.497 105.683C366.706 102.449 370.202 99.0322 373.221 96.2433C371.807 95.7189 370.504 94.9005 369.392 93.7881C368.383 92.779 367.612 91.611 367.088 90.3397C364.617 93.1365 361.749 96.6326 359.024 100.033C354.003 94.9799 347.853 92.1592 343.086 91.9844C345.939 87.8924 349.411 85.6676 349.411 85.6676L349.593 84.8889L350.253 82.0603V82.0523L351.055 78.596L352.477 72.5017L355.298 60.3766C355.298 60.3766 355.369 60.2574 355.504 60.0349C355.79 59.582 356.362 58.6842 357.22 57.4605C357.236 57.4367 357.252 57.4129 357.268 57.389C361.844 50.8498 374.294 35.2683 393.377 27.6643C393.433 27.6484 393.481 27.6246 393.536 27.6087C404.333 23.326 417.251 21.6177 432.069 25.5508C463.8 33.9652 477.553 54.3379 483.559 69.8001C483.734 70.2372 483.901 70.6742 484.06 71.1191C484.512 72.3666 484.918 73.5743 485.275 74.7344C485.283 74.7503 485.291 74.7582 485.291 74.7741C487.134 80.7175 487.818 85.461 488.088 87.7732C488.85 95.3375 488.207 103.037 486.689 110.434Z" fill="url(#paint2_linear)"/>
<path d="M349.347 201.118C347.996 200.395 346.28 189.731 358.269 166.355C359.278 164.377 360.207 162.43 361.057 160.507" stroke="white" stroke-width="1.953" stroke-miterlimit="10" stroke-linecap="round" stroke-linejoin="round"/>
<path d="M289.8 221.634C279.639 203.533 268.23 150.242 316.813 103.633C320.968 99.6757 325.242 96.8232 329.461 94.9878" stroke="white" stroke-width="1.953" stroke-miterlimit="10" stroke-linecap="round" stroke-linejoin="round"/>
<path d="M368.382 121.923C368.128 119.603 367.723 117.394 367.175 115.313C366.261 111.793 364.958 108.622 363.337 105.841" stroke="white" stroke-width="1.953" stroke-miterlimit="10" stroke-linecap="round" stroke-linejoin="round"/>
<path d="M341.998 92.4292C348.488 92.6358 354.392 95.3294 358.992 100.073" stroke="white" stroke-width="1.953" stroke-miterlimit="10" stroke-linecap="round" stroke-linejoin="round"/>
<path d="M348.91 85.5323C349.14 85.3177 349.37 85.0952 349.593 84.8887C353.184 81.472 356.147 78.9135 357.276 78.5957H353.057H351.055H344.079C343.928 78.6354 343.769 78.699 343.602 78.7784C343.173 78.9771 342.689 79.2949 342.141 79.716" stroke="white" stroke-width="1.953" stroke-miterlimit="10" stroke-linecap="round" stroke-linejoin="round"/>
<path d="M341.99 92.4294H341.998C344.318 90.0457 346.709 87.654 348.91 85.5325C347.194 85.0319 345.613 84.1341 344.294 82.8151C343.38 81.9014 342.665 80.8525 342.141 79.7163C339.09 82.1 334.395 87.8209 329.461 94.9879" stroke="white" stroke-width="1.953" stroke-miterlimit="10" stroke-linecap="round" stroke-linejoin="round"/>
<path d="M341.99 92.4292C336.532 98.0229 331.447 103.529 330.2 105.126L341.99 92.4292Z" stroke="white" stroke-width="1.953" stroke-miterlimit="10" stroke-linecap="round" stroke-linejoin="round"/>
<path d="M329.461 94.9878C327.65 97.6258 325.806 100.454 324.003 103.386L329.461 94.9878Z" stroke="white" stroke-width="1.953" stroke-miterlimit="10" stroke-linecap="round" stroke-linejoin="round"/>
<path d="M358.992 100.073C359 100.057 359.016 100.041 359.023 100.033C361.749 96.6323 364.617 93.1362 367.087 90.3394C367.612 91.6107 368.382 92.7787 369.391 93.7878C370.504 94.9002 371.807 95.7186 373.221 96.243C370.202 99.0319 366.706 102.449 363.496 105.682C363.441 105.738 363.393 105.786 363.338 105.841" stroke="white" stroke-width="1.953" stroke-miterlimit="10" stroke-linecap="round" stroke-linejoin="round"/>
<path d="M363.338 105.841C358.658 110.561 354.598 114.883 353.502 116.282" stroke="white" stroke-width="1.953" stroke-miterlimit="10" stroke-linecap="round" stroke-linejoin="round"/>
<path d="M373.221 96.2432C376.724 93.0173 379.601 90.6257 380.705 90.3158L378.409 88.5836L373.173 84.6426C372.387 84.873 370.845 86.2794 368.899 88.3532C368.327 88.965 367.723 89.6324 367.087 90.3396" stroke="white" stroke-width="1.953" stroke-miterlimit="10" stroke-linecap="round" stroke-linejoin="round"/>
<path d="M358.992 100.073C354.416 105.794 350.245 111.276 349.037 112.81" stroke="white" stroke-width="1.953" stroke-miterlimit="10" stroke-linecap="round" stroke-linejoin="round"/>
<path d="M387.728 92.5327C383.589 96.6724 377.821 97.9754 373.221 96.2433C371.807 95.7189 370.504 94.9005 369.392 93.7881C368.383 92.779 367.612 91.611 367.088 90.3397C365.133 85.6835 366.389 79.7004 370.639 75.4495C376.049 70.0385 384.256 69.4744 388.976 74.1941C393.695 78.9138 393.139 87.1296 387.728 92.5327Z" fill="white" stroke="white" stroke-width="1.953" stroke-miterlimit="10" stroke-linecap="round" stroke-linejoin="round"/>
<path d="M362.631 81.5675C358.873 85.3258 353.764 86.7402 349.41 85.6675C349.244 85.6278 349.077 85.588 348.91 85.5324C347.194 85.0318 345.613 84.134 344.294 82.815C343.38 81.9013 342.665 80.8524 342.141 79.7162C339.98 75.0124 341.188 68.8386 345.541 64.4764C348.394 61.624 352.016 60.1222 355.504 60.0348C358.634 59.9474 361.646 60.9962 363.878 63.229C368.597 67.9487 368.041 76.1566 362.631 81.5675Z" fill="white" stroke="white" stroke-width="1.953" stroke-miterlimit="10" stroke-linecap="round" stroke-linejoin="round"/>
<path d="M352.185 80.085C354.231 77.2433 354.31 73.8026 352.363 72.4001C350.415 70.9975 347.178 72.1642 345.132 75.0059C343.086 77.8477 343.006 81.2884 344.954 82.6909C346.902 84.0934 350.139 82.9267 352.185 80.085Z" fill="black"/>
<path d="M377.098 91.2373C379.144 88.3956 379.224 84.9549 377.276 83.5524C375.328 82.1498 372.091 83.3165 370.045 86.1583C367.999 89 367.919 92.4407 369.867 93.8432C371.815 95.2458 375.052 94.0791 377.098 91.2373Z" fill="black"/>
<path d="M373.706 138.681C372.999 139.277 372.268 139.833 371.505 140.317C370.011 141.263 368.542 142.002 367.04 142.566C367.032 142.566 367.016 142.574 367.008 142.574C361.216 144.727 355.004 144.147 345.899 141.907C334.426 139.086 330.009 142.264 327.363 146.15L328.428 146.626C320.42 145.442 313.317 144.211 304.951 142.296C304.18 140.302 303.783 138.275 303.529 136.257C302.647 129.193 307.946 119.834 320.833 119.484C333.719 119.134 332.13 130.608 348.791 128.923C349.903 128.812 351.166 128.518 352.525 128.105C357.196 126.691 363.036 123.862 368.112 122.019C368.208 121.987 368.295 121.955 368.383 121.923C374.357 119.794 379.211 119.103 379.776 123.838C380.475 129.718 377.908 132.777 373.706 138.681Z" stroke="white" stroke-width="1.953" stroke-miterlimit="10" stroke-linecap="round" stroke-linejoin="round"/>
<path d="M367.04 142.566C366.976 142.837 366.913 143.107 366.849 143.377C366.913 143.107 366.96 142.845 367.008 142.574C367.016 142.574 367.032 142.566 367.04 142.566Z" fill="black" stroke="white" stroke-width="1.953" stroke-miterlimit="10" stroke-linecap="round" stroke-linejoin="round"/>
<path d="M371.831 152.943C371.624 155.39 370.075 157.75 365.149 159.387C364.386 159.641 363.616 159.872 362.837 160.07C362.249 160.229 361.653 160.372 361.058 160.507C348.695 163.201 334.879 160.563 330.009 159.212C313.436 154.612 307.366 148.613 304.951 142.296C313.317 144.211 320.42 145.442 328.428 146.626C331.384 147.063 334.466 147.5 337.779 147.953C342.117 148.557 344.191 151.179 345.486 154.278L346.256 154.62C347.671 152.506 349.784 149.677 354.201 151.267C356.696 152.164 359.866 153.173 363.886 153.428C363.934 153.436 363.989 153.444 364.037 153.444C366.349 153.587 368.939 153.475 371.831 152.943Z" stroke="white" stroke-width="1.953" stroke-miterlimit="10" stroke-linecap="round" stroke-linejoin="round"/>
<path d="M288.338 218.789C284.255 218.463 277.208 219.083 278.805 222.03C283.977 228.443 302.313 221.57 306.596 227.704C310.87 233.838 333.799 234.148 330.2 228.578C326.609 223 352.636 233.528 356.346 226.838C356.346 226.838 356.966 221.887 364.275 223.119C371.592 224.359 391.415 222.126 385.464 216.794C385.464 216.794 380.197 207.808 404.555 210.97C428.906 214.133 443.04 205.019 430.948 200.553C418.864 196.088 449.722 196.652 459.947 196.279C484.115 194.976 446.377 187.356 486.904 181.778C504.939 177.503 466.025 182.461 480.897 173.284C495.111 164.52 496.867 137.64 492.243 134.406C492.028 134.263 491.798 134.159 491.559 134.112C491.456 134.366 491.345 134.612 491.202 134.875C487.865 141.176 473.135 150.75 467.375 153.523" stroke="white" stroke-width="1.953" stroke-miterlimit="10" stroke-linecap="round" stroke-linejoin="round"/>
<path d="M376.836 251.167C375.962 250.54 375.033 250.023 374.047 249.618C373.261 249.292 372.45 249.046 371.608 248.871C370.719 248.68 369.805 248.585 368.867 248.585C360.652 248.585 353.995 255.998 353.995 265.136C353.995 273.105 359.055 279.764 365.801 281.329L365.864 281.345C366.833 281.559 367.835 281.679 368.867 281.679C369.193 281.679 369.511 281.671 369.829 281.639" stroke="white" stroke-width="1.953" stroke-miterlimit="10" stroke-linecap="round" stroke-linejoin="round"/>
<path d="M364.307 280.876L374.254 283.752" stroke="white" stroke-width="1.953" stroke-miterlimit="10" stroke-linecap="round" stroke-linejoin="round"/>
<path d="M371.497 248.832L381.619 251.66" stroke="white" stroke-width="1.953" stroke-miterlimit="10" stroke-linecap="round" stroke-linejoin="round"/>
<path d="M377.789 284.214C386.003 284.214 392.662 276.807 392.662 267.671C392.662 258.534 386.003 251.128 377.789 251.128C369.575 251.128 362.917 258.534 362.917 267.671C362.917 276.807 369.575 284.214 377.789 284.214Z" stroke="white" stroke-width="1.953" stroke-miterlimit="10" stroke-linecap="round" stroke-linejoin="round"/>
<path d="M489.82 246.726C498.033 246.726 504.692 239.319 504.692 230.183C504.692 221.047 498.033 213.64 489.82 213.64C481.606 213.64 474.947 221.047 474.947 230.183C474.947 239.319 481.606 246.726 489.82 246.726Z" stroke="white" stroke-width="1.953" stroke-miterlimit="10" stroke-linecap="round" stroke-linejoin="round"/>
<path d="M488.874 213.672C488 213.044 487.063 212.52 486.07 212.122C485.291 211.797 484.481 211.542 483.646 211.375C482.757 211.185 481.843 211.089 480.905 211.089C472.691 211.089 466.033 218.495 466.033 227.64C466.033 235.594 471.078 242.244 477.815 243.825C478.816 244.064 479.849 244.191 480.913 244.191C481.239 244.191 481.557 244.183 481.875 244.151" stroke="white" stroke-width="1.953" stroke-miterlimit="10" stroke-linecap="round" stroke-linejoin="round"/>
<path d="M476.345 243.381L486.292 246.297" stroke="white" stroke-width="1.953" stroke-miterlimit="10" stroke-linecap="round" stroke-linejoin="round"/>
<path d="M493.228 214.037L483.535 211.344" stroke="white" stroke-width="1.953" stroke-miterlimit="10" stroke-linecap="round" stroke-linejoin="round"/>
<path d="M365.149 166.721C375.414 190.574 400.877 190.677 423.806 182.7C424.139 182.589 424.473 182.469 424.799 182.35C427.873 181.246 430.9 179.998 433.84 178.648C433.904 178.616 433.975 178.584 434.047 178.552C446.782 172.656 457.722 164.814 463.299 158.172C468.432 153.436 479.944 136.671 484.687 118.467C484.687 118.451 484.695 118.427 484.703 118.404C488.874 102.314 487.746 85.1192 472.229 74.1383C439.139 50.7145 409.02 85.294 409.02 85.294C395.959 99.8902 389.238 115.599 388.999 128.924" stroke="white" stroke-width="1.953" stroke-miterlimit="10" stroke-linecap="round" stroke-linejoin="round"/>
<path d="M439.139 113.922C448.061 115.781 441.737 136.607 428.724 128.057C413.851 116.902 438.392 88.2656 455.124 106.858C471.856 125.451 440.434 165.982 415.901 160.404C404.349 158.426 396.547 152.729 392.439 144.791" stroke="white" stroke-width="1.953" stroke-miterlimit="10" stroke-linecap="round" stroke-linejoin="round"/>
<path d="M355.854 59.9393C359.079 52.9948 380.022 24.303 413.485 23.8104C442.985 22.8172 474.708 41.9026 485.116 74.1302C491.559 97.1806 485.609 120.239 480.905 129.909" stroke="white" stroke-width="1.953" stroke-miterlimit="10" stroke-linecap="round" stroke-linejoin="round"/>
<path d="M474.446 142.821C478.57 140.786 484.21 138.077 491.202 134.883" stroke="white" stroke-width="1.953" stroke-miterlimit="10" stroke-linecap="round" stroke-linejoin="round"/>
<path d="M492.243 134.414C496.795 132.348 501.911 130.084 507.536 127.684C520.423 118.507 585.428 166.356 552.528 179.736C529.973 192.131 414.463 229.563 395.88 236.254C377.289 242.944 310.115 260.798 282.364 258.565C251.911 256.126 208.254 215.929 229.316 217.422C255.725 219.282 273.045 212.44 284.716 209.238" stroke="white" stroke-width="1.953" stroke-miterlimit="10" stroke-linecap="round" stroke-linejoin="round"/>
<path d="M355.361 272.041C355.361 272.041 349.029 256.086 340.607 251.374" stroke="white" stroke-width="1.953" stroke-miterlimit="10" stroke-linecap="round" stroke-linejoin="round"/>
<path d="M364.275 249.395C363.759 248.394 362.821 247.218 361.868 246.146" stroke="white" stroke-width="1.953" stroke-miterlimit="10" stroke-linecap="round" stroke-linejoin="round"/>
<path d="M455.14 216.159C462.235 222.34 467.717 235.284 467.717 235.284" stroke="white" stroke-width="1.953" stroke-miterlimit="10" stroke-linecap="round" stroke-linejoin="round"/>
<path d="M474.216 209.612C474.907 210.422 476.027 211.884 476.059 211.94" stroke="white" stroke-width="1.953" stroke-miterlimit="10" stroke-linecap="round" stroke-linejoin="round"/>
<path d="M378.504 272.295C380.352 272.295 381.849 270.435 381.849 268.139C381.849 265.844 380.352 263.984 378.504 263.984C376.657 263.984 375.16 265.844 375.16 268.139C375.16 270.435 376.657 272.295 378.504 272.295Z" stroke="white" stroke-width="1.953" stroke-miterlimit="10" stroke-linecap="round" stroke-linejoin="round"/>
<path d="M490.32 234.275C492.167 234.275 493.665 232.415 493.665 230.119C493.665 227.824 492.167 225.964 490.32 225.964C488.473 225.964 486.975 227.824 486.975 230.119C486.975 232.415 488.473 234.275 490.32 234.275Z" stroke="white" stroke-width="1.953" stroke-miterlimit="10" stroke-linecap="round" stroke-linejoin="round"/>
<path d="M486.721 130.092C502.332 120.613 540.817 93.2795 554.204 83.2441L486.721 130.092Z" fill="black"/>
<path d="M486.721 130.092C502.332 120.613 540.817 93.2795 554.204 83.2441" stroke="white" stroke-width="1.953" stroke-miterlimit="10" stroke-linecap="round" stroke-linejoin="round"/>
<path d="M492.862 115.035C504.017 104.435 553.648 48.6646 556.437 40.854" stroke="white" stroke-width="1.953" stroke-miterlimit="10" stroke-linecap="round" stroke-linejoin="round"/>
<path d="M308.471 124.069C319.061 135.193 338.836 136.432 343.603 135.9C348.37 135.368 352.604 127.954 352.604 127.954" stroke="white" stroke-width="1.953" stroke-miterlimit="10" stroke-linecap="round" stroke-linejoin="round"/>
<path d="M407.344 144.91C405.747 149.693 398.93 144.282 392.439 144.791C391.033 144.894 389.635 145.284 388.316 146.118C383.716 149.026 378.337 151.378 374.683 152.323C373.698 152.578 372.752 152.784 371.831 152.943C368.939 153.476 366.349 153.587 364.037 153.444C363.989 153.444 363.933 153.436 363.886 153.428C359.866 153.174 356.696 152.165 354.201 151.267C349.784 149.678 347.67 152.506 346.256 154.62L345.485 154.278C344.19 151.179 342.117 148.557 337.779 147.953C334.466 147.5 331.383 147.063 328.428 146.626L327.363 146.15C330.009 142.264 334.426 139.086 345.899 141.907C355.003 144.147 361.216 144.727 367.008 142.574C366.96 142.844 366.913 143.107 366.849 143.377C366.913 143.107 366.976 142.836 367.04 142.566C368.541 142.002 370.011 141.263 371.505 140.318C372.267 139.833 372.998 139.277 373.706 138.681C377.328 135.661 380.443 131.546 384.471 129.925C386.004 129.313 387.522 128.995 388.999 128.924C399.852 128.391 408.631 141.049 407.344 144.91Z" stroke="white" stroke-width="1.953" stroke-miterlimit="10" stroke-linecap="round" stroke-linejoin="round"/>
<path d="M367.04 142.566C366.976 142.837 366.913 143.107 366.849 143.377C366.913 143.107 366.96 142.845 367.008 142.574C367.016 142.574 367.032 142.566 367.04 142.566Z" fill="black" stroke="white" stroke-width="1.953" stroke-miterlimit="10" stroke-linecap="round" stroke-linejoin="round"/>
<path d="M347.773 161.596C347.027 159.348 346.486 156.67 345.485 154.278" stroke="white" stroke-width="1.953" stroke-miterlimit="10" stroke-linecap="round" stroke-linejoin="round"/>
<path d="M304.951 142.296C304.903 142.288 304.856 142.272 304.808 142.264" stroke="white" stroke-width="1.953" stroke-miterlimit="10" stroke-linecap="round" stroke-linejoin="round"/>
</g>
<path d="M17.3449 5H18.9449L24.1449 19H22.6249L21.1649 14.94H15.0449L13.5849 19H12.1449L17.3449 5ZM20.7049 13.66L18.1449 6.5H18.1049L15.5049 13.66H20.7049ZM31.448 9H35.248C36.4214 9 37.2814 9.24667 37.828 9.74C38.3747 10.2333 38.648 10.9 38.648 11.74C38.648 12.18 38.5347 12.58 38.308 12.94C38.0947 13.3 37.788 13.58 37.388 13.78V13.82C37.9347 14.0333 38.348 14.34 38.628 14.74C38.908 15.14 39.048 15.6067 39.048 16.14C39.048 17.0333 38.7747 17.7333 38.228 18.24C37.6814 18.7467 36.8214 19 35.648 19H31.448V9ZM37.288 11.76C37.288 11.2667 37.128 10.8867 36.808 10.62C36.488 10.34 35.9347 10.2 35.148 10.2H32.768V13.34H35.148C35.9347 13.34 36.488 13.2067 36.808 12.94C37.128 12.66 37.288 12.2667 37.288 11.76ZM37.688 16.12C37.688 15.5733 37.528 15.16 37.208 14.88C36.888 14.6 36.3347 14.46 35.548 14.46H32.768V17.8H35.548C36.3347 17.8 36.888 17.66 37.208 17.38C37.528 17.1 37.688 16.68 37.688 16.12ZM45.6387 19.14C44.292 19.14 43.2187 18.7267 42.4187 17.9C41.632 17.0733 41.2387 15.8867 41.2387 14.34V13.66C41.2387 12.9 41.3387 12.22 41.5387 11.62C41.752 11.02 42.052 10.52 42.4387 10.12C42.8253 9.70667 43.2853 9.39333 43.8187 9.18C44.3653 8.96667 44.972 8.86 45.6387 8.86C46.9853 8.86 48.052 9.27333 48.8387 10.1C49.6387 10.9267 50.0387 12.1133 50.0387 13.66V14.34C50.0387 15.1 49.932 15.78 49.7187 16.38C49.5187 16.98 49.2253 17.4867 48.8387 17.9C48.452 18.3 47.9853 18.6067 47.4387 18.82C46.9053 19.0333 46.3053 19.14 45.6387 19.14ZM45.6387 17.94C46.5587 17.94 47.292 17.64 47.8387 17.04C48.3987 16.44 48.6787 15.54 48.6787 14.34V13.66C48.6787 12.4733 48.3987 11.58 47.8387 10.98C47.2787 10.3667 46.5453 10.06 45.6387 10.06C44.7187 10.06 43.9787 10.36 43.4187 10.96C42.872 11.56 42.5987 12.46 42.5987 13.66V14.34C42.5987 15.5267 42.8787 16.4267 43.4387 17.04C43.9987 17.64 44.732 17.94 45.6387 17.94ZM54.4841 10.2H51.1441V9H59.1441V10.2H55.8041V19H54.4841V10.2ZM66.2527 9H67.5727V17.5H67.6127L72.6127 9H74.4527V19H73.1327V10.5H73.0927L68.0927 19H66.2527V9ZM87.4943 19.14H86.7543C86.0743 19.14 85.4543 19.0333 84.8943 18.82C84.3476 18.5933 83.8743 18.2733 83.4743 17.86C83.0876 17.4333 82.7876 16.9267 82.5743 16.34C82.361 15.7533 82.2543 15.0867 82.2543 14.34V13.66C82.2543 12.9267 82.361 12.2667 82.5743 11.68C82.801 11.08 83.1076 10.5733 83.4943 10.16C83.8943 9.74667 84.3676 9.42667 84.9143 9.2C85.4743 8.97333 86.0876 8.86 86.7543 8.86H87.4943V5H88.8143V8.86H89.5543C90.2343 8.86 90.8476 8.97333 91.3943 9.2C91.9543 9.41333 92.4276 9.73333 92.8143 10.16C93.2143 10.5733 93.521 11.08 93.7343 11.68C93.9476 12.2667 94.0543 12.9267 94.0543 13.66V14.34C94.0543 15.0733 93.941 15.74 93.7143 16.34C93.501 16.9267 93.1943 17.4267 92.7943 17.84C92.4076 18.2533 91.9343 18.5733 91.3743 18.8C90.8276 19.0267 90.221 19.14 89.5543 19.14H88.8143V23H87.4943V19.14ZM92.6943 13.66C92.6943 12.5133 92.4076 11.6333 91.8343 11.02C91.2743 10.4067 90.5143 10.1 89.5543 10.1H88.8143V17.9H89.5543C90.5143 17.9 91.2743 17.6 91.8343 17C92.4076 16.3867 92.6943 15.5 92.6943 14.34V13.66ZM83.6143 14.34C83.6143 15.4867 83.8943 16.3667 84.4543 16.98C85.0276 17.5933 85.7943 17.9 86.7543 17.9H87.4943V10.1H86.7543C85.7943 10.1 85.0276 10.4067 84.4543 11.02C83.8943 11.62 83.6143 12.5 83.6143 13.66V14.34ZM96.8582 9H98.1782V17.5H98.2182L103.218 9H105.058V19H103.738V10.5H103.698L98.6982 19H96.8582V9ZM108.46 9H109.78V13.3H115.34V9H116.66V19H115.34V14.5H109.78V19H108.46V9ZM120.061 9H121.381V17.5H121.421L126.421 9H128.261V19H126.941V10.5H126.901L121.901 19H120.061V9ZM131.663 9H132.983V17.8H136.903V9H138.223V17.8H142.143V9H143.463V19H131.663V9ZM146.858 9H148.178V13.3H153.738V9H155.058V19H153.738V14.5H148.178V19H146.858V9ZM161.06 19.14C159.953 19.14 159.126 18.8867 158.58 18.38C158.033 17.86 157.76 17.1467 157.76 16.24C157.76 15.2933 158.086 14.54 158.74 13.98C159.393 13.42 160.433 13.14 161.86 13.14H164.44V12.4C164.44 11.6 164.246 11.02 163.86 10.66C163.473 10.2867 162.84 10.1 161.96 10.1C161.146 10.1 160.546 10.24 160.16 10.52C159.786 10.8 159.573 11.16 159.52 11.6H158.16C158.186 11.24 158.286 10.8933 158.46 10.56C158.633 10.2267 158.873 9.93333 159.18 9.68C159.5 9.42667 159.893 9.22667 160.36 9.08C160.826 8.93333 161.36 8.86 161.96 8.86C163.253 8.86 164.206 9.16 164.82 9.76C165.446 10.3467 165.76 11.2267 165.76 12.4V19H164.72L164.56 17.3H164.52C164.12 17.9 163.62 18.36 163.02 18.68C162.433 18.9867 161.78 19.14 161.06 19.14ZM161.16 17.9C161.64 17.9 162.08 17.8267 162.48 17.68C162.88 17.52 163.226 17.3067 163.52 17.04C163.813 16.76 164.04 16.4333 164.2 16.06C164.36 15.6733 164.44 15.2533 164.44 14.8V14.26H161.96C160.933 14.26 160.2 14.44 159.76 14.8C159.333 15.16 159.12 15.64 159.12 16.24C159.12 16.7467 159.28 17.1533 159.6 17.46C159.933 17.7533 160.453 17.9 161.16 17.9ZM170.505 15C169.825 14.7733 169.332 14.42 169.025 13.94C168.719 13.46 168.565 12.86 168.565 12.14C168.565 11.14 168.872 10.3667 169.485 9.82C170.112 9.27333 171.139 9 172.565 9H175.765V19H174.445V15.28H172.565C172.432 15.28 172.299 15.28 172.165 15.28C172.045 15.28 171.925 15.2733 171.805 15.26L169.685 19H168.165L170.505 15ZM169.925 12.14C169.925 12.7667 170.125 13.2467 170.525 13.58C170.925 13.9133 171.639 14.08 172.665 14.08H174.445V10.2H172.665C171.639 10.2 170.925 10.3667 170.525 10.7C170.125 11.0333 169.925 11.5133 169.925 12.14ZM184.163 9H191.963V19H190.643V10.2H185.483V19H184.163V9ZM195.354 9H196.394L196.554 10.5H196.594C197.034 9.92667 197.521 9.51333 198.054 9.26C198.588 8.99333 199.214 8.86 199.934 8.86C200.521 8.86 201.061 8.96667 201.554 9.18C202.048 9.38 202.468 9.68667 202.814 10.1C203.174 10.5 203.454 11 203.654 11.6C203.854 12.2 203.954 12.8867 203.954 13.66V14.34C203.954 15.1133 203.854 15.8 203.654 16.4C203.454 16.9867 203.174 17.4867 202.814 17.9C202.454 18.3 202.028 18.6067 201.534 18.82C201.041 19.0333 200.508 19.14 199.934 19.14C198.494 19.14 197.421 18.6267 196.714 17.6H196.674V23H195.354V9ZM199.634 17.94C200.514 17.94 201.228 17.6467 201.774 17.06C202.321 16.46 202.594 15.5533 202.594 14.34V13.66C202.594 12.4733 202.314 11.58 201.754 10.98C201.208 10.3667 200.501 10.06 199.634 10.06C198.754 10.06 198.041 10.36 197.494 10.96C196.948 11.5467 196.674 12.4467 196.674 13.66V14.34C196.674 15.5267 196.948 16.4267 197.494 17.04C198.054 17.64 198.768 17.94 199.634 17.94ZM208.201 15C207.521 14.7733 207.027 14.42 206.721 13.94C206.414 13.46 206.261 12.86 206.261 12.14C206.261 11.14 206.567 10.3667 207.181 9.82C207.807 9.27333 208.834 9 210.261 9H213.461V19H212.141V15.28H210.261C210.127 15.28 209.994 15.28 209.861 15.28C209.741 15.28 209.621 15.2733 209.501 15.26L207.381 19H205.861L208.201 15ZM207.621 12.14C207.621 12.7667 207.821 13.2467 208.221 13.58C208.621 13.9133 209.334 14.08 210.361 14.08H212.141V10.2H210.361C209.334 10.2 208.621 10.3667 208.221 10.7C207.821 11.0333 207.621 11.5133 207.621 12.14ZM216.858 9H218.778L221.978 15.16H222.018L225.218 9H227.058V19H225.738V10.7H225.698L222.618 16.6H221.298L218.218 10.7H218.178V19H216.858V9ZM233.052 19.14C231.945 19.14 231.119 18.8867 230.572 18.38C230.025 17.86 229.752 17.1467 229.752 16.24C229.752 15.2933 230.079 14.54 230.732 13.98C231.385 13.42 232.425 13.14 233.852 13.14H236.432V12.4C236.432 11.6 236.239 11.02 235.852 10.66C235.465 10.2867 234.832 10.1 233.952 10.1C233.139 10.1 232.539 10.24 232.152 10.52C231.779 10.8 231.565 11.16 231.512 11.6H230.152C230.179 11.24 230.279 10.8933 230.452 10.56C230.625 10.2267 230.865 9.93333 231.172 9.68C231.492 9.42667 231.885 9.22667 232.352 9.08C232.819 8.93333 233.352 8.86 233.952 8.86C235.245 8.86 236.199 9.16 236.812 9.76C237.439 10.3467 237.752 11.2267 237.752 12.4V19H236.712L236.552 17.3H236.512C236.112 17.9 235.612 18.36 235.012 18.68C234.425 18.9867 233.772 19.14 233.052 19.14ZM233.152 17.9C233.632 17.9 234.072 17.8267 234.472 17.68C234.872 17.52 235.219 17.3067 235.512 17.04C235.805 16.76 236.032 16.4333 236.192 16.06C236.352 15.6733 236.432 15.2533 236.432 14.8V14.26H233.952C232.925 14.26 232.192 14.44 231.752 14.8C231.325 15.16 231.112 15.64 231.112 16.24C231.112 16.7467 231.272 17.1533 231.592 17.46C231.925 17.7533 232.445 17.9 233.152 17.9ZM242.497 15C241.817 14.7733 241.324 14.42 241.017 13.94C240.711 13.46 240.557 12.86 240.557 12.14C240.557 11.14 240.864 10.3667 241.477 9.82C242.104 9.27333 243.131 9 244.557 9H247.757V19H246.437V15.28H244.557C244.424 15.28 244.291 15.28 244.157 15.28C244.037 15.28 243.917 15.2733 243.797 15.26L241.677 19H240.157L242.497 15ZM241.917 12.14C241.917 12.7667 242.117 13.2467 242.517 13.58C242.917 13.9133 243.631 14.08 244.657 14.08H246.437V10.2H244.657C243.631 10.2 242.917 10.3667 242.517 10.7C242.117 11.0333 241.917 11.5133 241.917 12.14Z" fill="white"/>
<defs>
<linearGradient id="paint0_linear" x1="341.46" y1="39.8784" x2="65.5006" y2="39.8784" gradientUnits="userSpaceOnUse">
<stop stop-color="#3FFFD8"/>
<stop offset="0.6173" stop-color="#B9C3FC"/>
<stop offset="1" stop-color="#FF7EA7"/>
</linearGradient>
<linearGradient id="paint1_linear" x1="366.876" y1="143.513" x2="366.983" y2="142.643" gradientUnits="userSpaceOnUse">
<stop stop-color="#3FFFD8"/>
<stop offset="0.4888" stop-color="#B9C3FC"/>
<stop offset="1" stop-color="#FF7EA7"/>
</linearGradient>
<linearGradient id="paint2_linear" x1="400.926" y1="215.005" x2="422.494" y2="40.9881" gradientUnits="userSpaceOnUse">
<stop stop-color="#3FFFD8"/>
<stop offset="0.4888" stop-color="#B9C3FC"/>
<stop offset="1" stop-color="#FF7EA7"/>
</linearGradient>
<clipPath id="clip0">
<rect width="424" height="262" fill="white" transform="translate(223 23)"/>
</clipPath>
</defs>
</svg>
