<svg width="667" height="479" viewBox="0 0 667 479" fill="none" xmlns="http://www.w3.org/2000/svg">
<path d="M640.837 26.9183H451.906V0H640.837V26.9183ZM640.837 26.9183H451.906V53.8367H666.7V26.9183H640.837ZM451.906 80.755H424.938V53.8367H451.906V80.755ZM424.938 80.9373H397.969V107.856H424.938V80.9373ZM397.969 107.896H371V134.814H397.969V107.896Z" fill="url(#paint0_linear)"/>
<g clip-path="url(#clip0)">
<path d="M188.204 77.3702C188.079 80.6086 174.398 93.7021 168.768 81.3093C163.13 68.9165 171.867 60.4703 177.217 62.4398C182.567 64.4094 187.835 73.2319 188.204 77.3702Z" fill="url(#paint1_linear)"/>
<path d="M168.281 90.6775C168.281 92.3815 165.86 93.761 162.872 93.761C159.883 93.761 157.463 92.3815 157.463 90.6775C157.463 88.9735 159.758 87.3875 162.835 88.7153C166.148 87.3875 168.281 88.9809 168.281 90.6775Z" stroke="white" stroke-width="1.953" stroke-miterlimit="10" stroke-linecap="round" stroke-linejoin="round"/>
<path d="M192.713 97.5307C192.713 97.5307 191.193 98.3421 188.832 99.5593C187.326 100.341 185.481 101.293 183.467 102.296V102.303C175.689 106.206 165.455 111.06 163.034 110.809C159.529 111.082 147.258 104.575 139.273 100.098V100.09C137.333 99.006 135.65 98.0323 134.403 97.3094C132.979 96.4832 132.123 95.9742 132.123 95.9742C133.975 88.7303 136.698 77.7391 138.617 70.9821C139.51 67.8691 140.225 65.6561 140.609 65.1176C141.841 63.3989 155.987 54.4215 162.628 52.7027C169.27 50.9766 158.769 57.5344 159.758 58.5229C168.856 54.3403 172.708 51.9651 174.678 52.9461C169.019 58.604 168.937 59.9982 170.908 59.0098C172.878 58.0287 187.466 52.9461 187.717 55.6534C184.766 58.3532 180.006 59.2606 179.763 61.4736C183.408 62.7792 185.991 64.7488 187.466 66.3864C187.872 66.593 188.404 68.6142 188.964 71.5427V71.5501L188.972 71.5575C190.684 80.4168 192.713 97.5307 192.713 97.5307Z" stroke="white" stroke-width="1.953" stroke-miterlimit="10" stroke-linecap="round" stroke-linejoin="round"/>
<path d="M134.403 97.3094C125.216 98.5634 120.944 87.2107 123.268 84.4223C125.046 82.2905 133.842 74.9286 138.617 70.9821C138.639 70.9673 138.661 70.9452 138.683 70.9304" stroke="white" stroke-width="1.953" stroke-miterlimit="10" stroke-linecap="round" stroke-linejoin="round"/>
<path d="M188.832 99.5591C196.646 102.893 204.114 92.5586 202.963 89.335C202.062 86.8122 193.48 76.743 188.972 71.5572L188.964 71.5499V71.5425" stroke="white" stroke-width="1.953" stroke-miterlimit="10" stroke-linecap="round" stroke-linejoin="round"/>
<path d="M139.273 100.09V100.098L149.575 117.662L156.474 129.42" stroke="white" stroke-width="1.953" stroke-miterlimit="10" stroke-linecap="round" stroke-linejoin="round"/>
<path d="M183.467 102.296V102.303L178.132 114.6L173.697 128.682" stroke="white" stroke-width="1.953" stroke-miterlimit="10" stroke-linecap="round" stroke-linejoin="round"/>
<path d="M146.881 88.8481C147.619 90.3235 152.785 99.4189 161.883 99.6697C172.457 100.164 177.874 94.7495 180.087 90.3235" stroke="white" stroke-width="1.953" stroke-miterlimit="10" stroke-linecap="round" stroke-linejoin="round"/>
<path d="M176.892 87.6162C176.892 87.6162 181.563 89.0915 182.057 90.8103" stroke="white" stroke-width="1.953" stroke-miterlimit="10" stroke-linecap="round" stroke-linejoin="round"/>
<path d="M149.346 87.2917C149.346 87.2917 144.675 88.7671 144.181 90.4858" stroke="white" stroke-width="1.953" stroke-miterlimit="10" stroke-linecap="round" stroke-linejoin="round"/>
<path d="M139.753 77.3702C140.284 80.7192 153.559 93.7021 159.19 81.3093C164.827 68.9165 156.09 60.4703 150.74 62.4398C145.391 64.4094 139.096 71.6312 139.753 77.3702Z" fill="url(#paint2_linear)"/>
<path d="M121.49 179.389C126.286 161.103 131.533 141.79 132.374 139.991C133.798 136.944 142.454 125.097 149.575 117.661" stroke="white" stroke-width="1.953" stroke-miterlimit="10" stroke-linecap="round" stroke-linejoin="round"/>
<path d="M131.385 214.561C136.89 217.497 142.041 220.315 144.107 221.459C148.556 223.915 148.202 225.295 148.276 228.017C148.52 237.363 146.8 260.806 148.276 262.768C149.752 264.738 152.541 254.572 152.785 253.835C153.036 253.097 151.479 262.606 153.198 263.594C154.917 264.575 157.463 254.823 157.463 254.823C157.463 254.823 156.969 264.656 158.688 264.656C160.415 264.656 158.858 222.941 159.101 220.478C159.352 218.021 144.011 201.785 138.108 197.853C132.691 191.627 153.036 135.071 153.036 135.071" stroke="white" stroke-width="1.953" stroke-miterlimit="10" stroke-linecap="round" stroke-linejoin="round"/>
<path d="M144.107 221.458C144.107 221.458 126.22 303.015 145.9 381.208" stroke="white" stroke-width="1.953" stroke-miterlimit="10" stroke-linecap="round" stroke-linejoin="round"/>
<path d="M183.039 381.945C208.128 331.046 194.123 243.847 192.669 225.42" stroke="white" stroke-width="1.953" stroke-miterlimit="10" stroke-linecap="round" stroke-linejoin="round"/>
<path d="M178.125 133.108C178.125 133.108 201.081 193.265 198.948 198.023C196.816 202.773 177.63 227.529 177.63 227.529C174.184 232.693 174.841 259.33 177.63 264.243C178.862 264.243 178.53 256.38 179.763 255.885C180.995 255.391 182.058 263.756 183.039 263.756C184.028 263.756 184.928 256.955 185.666 255.723C186.404 254.491 185.828 262.937 187.799 263.756C191.488 264.494 186.979 233.918 187.466 229.986C187.585 229.049 189.629 227.426 192.669 225.42C194.388 224.284 202.048 218.397 209.176 212.983C214.799 208.741 220.082 204.787 221.905 203.673C221.905 203.673 220.805 200.723 219.086 196.105C219.042 195.994 219.005 195.884 218.961 195.766" stroke="white" stroke-width="1.953" stroke-miterlimit="10" stroke-linecap="round" stroke-linejoin="round"/>
<path d="M213.876 182.141C213.758 181.824 213.64 181.514 213.529 181.197C207.11 164.024 199.207 142.971 198.292 140.972C196.085 136.162 182.921 121.225 178.132 114.6" stroke="white" stroke-width="1.953" stroke-miterlimit="10" stroke-linecap="round" stroke-linejoin="round"/>
<path d="M153.486 81.8772C155.043 79.3396 156.024 75.5628 152.423 73.4383C147.833 70.9819 141.767 75.5702 143.73 77.5397C146.682 81.7961 153.486 81.8772 153.486 81.8772Z" fill="white"/>
<path d="M172.959 82.2092C171.402 79.6717 170.421 75.8948 174.022 73.7703C178.612 71.3139 184.677 75.9022 182.714 77.8718C179.763 82.1281 172.959 82.2092 172.959 82.2092Z" fill="white"/>
<path d="M132.02 386.762C138.676 397.783 147.914 406.561 147.199 409.416C146.21 413.355 129.068 413.805 125.976 414.897C120.398 416.859 121.423 437.432 125.976 433.582C125.976 433.582 158.038 415.605 158.673 414.004C159.987 410.729 145.487 389.816 146.143 381.945C146.63 376.066 158.083 355.721 165.24 342.768" stroke="white" stroke-width="1.953" stroke-miterlimit="10" stroke-linecap="round" stroke-linejoin="round"/>
<path d="M117.092 247.837C117.099 247.808 117.099 247.778 117.107 247.749C118.199 241.671 119.224 235.99 120.147 230.923C120.162 230.827 120.184 230.731 120.198 230.635" stroke="white" stroke-width="1.953" stroke-miterlimit="10" stroke-linecap="round" stroke-linejoin="round"/>
<path d="M196.838 390.045C191.503 396.057 184.271 406.148 184.515 410.301C185.836 411.622 189.931 412.883 194.373 413.886" stroke="white" stroke-width="1.953" stroke-miterlimit="10" stroke-linecap="round" stroke-linejoin="round"/>
<path d="M212.747 426.611C213.065 430.225 212.076 433.619 209.36 434.814C199.029 432.844 179.6 423.911 170.413 416.372C173.933 406.974 183.039 382.683 183.039 381.945C180.323 379.23 168.303 350.793 165.24 342.768" stroke="white" stroke-width="1.953" stroke-miterlimit="10" stroke-linecap="round" stroke-linejoin="round"/>
<path d="M209.176 212.983C209.951 217.077 210.976 222.558 212.157 228.997" stroke="white" stroke-width="1.953" stroke-miterlimit="10" stroke-linecap="round" stroke-linejoin="round"/>
<path d="M99.2861 99.596C95.6925 102.266 81.2147 103.771 77.2964 99.9943C76.4035 99.1386 75.946 97.9731 75.8353 96.6601C75.3556 91.43 80.2628 83.7952 84.8452 83.2714C88.247 82.8805 92.6375 86.1336 95.8475 90.1391C95.8475 90.1465 95.8548 90.1465 95.8548 90.1539L99.2861 99.596Z" fill="url(#paint3_linear)"/>
<path d="M47.6985 98.7625C48.1929 102.038 64.4786 104.251 68.9061 99.9944C73.3335 95.7307 67.1056 83.928 61.3646 83.2715C55.6237 82.615 48.6799 92.5366 47.6985 98.7625Z" fill="url(#paint4_linear)"/>
<path d="M53.1074 122.287C57.0331 129.28 63.4382 150.318 63.4382 150.318" stroke="white" stroke-width="1.953" stroke-miterlimit="10" stroke-linecap="round" stroke-linejoin="round"/>
<path d="M54.5907 194.334C53.8528 196.053 49.1744 212.525 47.9495 218.427C50.1632 219.659 70.0868 236.381 70.0868 240.807C70.0868 245.233 69.6736 279.491 67.4598 278.996C65.2461 278.51 65.6593 261.211 65.6593 261.211C65.6593 261.211 64.5082 279.166 61.7189 278.672C58.7082 278.517 61.7484 261.905 61.9624 260.783" stroke="white" stroke-width="1.953" stroke-miterlimit="10" stroke-linecap="round" stroke-linejoin="round"/>
<path d="M61.0548 261.706C61.0548 261.706 61.0548 261.713 61.0474 261.728C61.0474 261.735 61.0474 261.75 61.0474 261.765C60.8113 262.893 57.3357 279.602 54.2439 278.178C51.7866 277.197 59.579 247.69 58.5902 243.751C50.2296 231.705 25.635 221.621 19.4809 223.591C19.2374 217.933 31.5383 160.889 33.9956 158.919C40.8803 152.509 48.4291 144.933 57.6087 135.071" stroke="white" stroke-width="1.953" stroke-miterlimit="10" stroke-linecap="round" stroke-linejoin="round"/>
<path d="M35.7371 396.433C30.7636 393.623 16.1972 387.146 8.10229 376.287C17.614 346.781 37.2129 236.647 36.8882 227.795" stroke="white" stroke-width="1.953" stroke-miterlimit="10" stroke-linecap="round" stroke-linejoin="round"/>
<path d="M113.911 233.431C113.919 233.468 113.934 233.505 113.948 233.556C114.258 234.744 115.409 239.989 117.092 247.838" stroke="white" stroke-width="1.953" stroke-miterlimit="10" stroke-linecap="round" stroke-linejoin="round"/>
<path d="M116.501 245.093C124.08 280.656 142.668 364.964 143.701 376.597C142.941 377.313 133.215 385.574 132.256 386.43" stroke="white" stroke-width="1.953" stroke-miterlimit="10" stroke-linecap="round" stroke-linejoin="round"/>
<path d="M132.02 386.762C126.109 391.498 119.586 396.123 115.181 397.849C114.546 398.484 113.985 399.627 113.483 401.125C112.067 405.351 111.137 412.418 110.495 418.888C109.971 424.096 109.639 428.92 109.395 431.553C109.381 431.686 109.373 431.819 109.359 431.944C109.381 431.966 109.395 431.989 109.418 432.011C110.731 433.538 112.384 434.777 114.295 435.795C114.31 435.802 114.332 435.817 114.354 435.824C117.151 437.3 120.501 438.303 124.176 439.026C128.692 439.919 133.702 440.383 138.794 440.796C139.104 440.309 139.414 439.896 139.701 439.55C139.709 439.542 139.716 439.535 139.724 439.528C144.889 433.449 147.272 447.221 148.025 453.071C148.217 454.569 148.305 455.55 148.305 455.55C148.114 455.587 147.922 455.623 147.73 455.653C147.723 455.653 147.723 455.653 147.723 455.653C140.432 456.841 129.909 454.672 120.169 451.618C106.805 447.443 94.925 441.593 94.925 440.472C94.925 438.554 96.4082 416.726 98.0021 404.083C98.0094 403.987 98.0242 403.883 98.039 403.788C98.0685 403.552 98.098 403.323 98.1275 403.094C96.2237 402.275 94.4084 400.984 92.6891 399.384C84.0703 391.343 77.9604 375.476 75.4958 372.606C69.9762 381.363 53.6241 400.608 53.5208 401.28C53.5208 401.287 53.5208 401.287 53.5208 401.287V401.294" stroke="white" stroke-width="1.953" stroke-miterlimit="10" stroke-linecap="round" stroke-linejoin="round"/>
<path d="M35.737 396.433C36.2314 398.181 36.7258 400.158 37.1981 402.275C39.6185 413.008 41.6256 427.12 42.0462 431.288C36.4676 437.846 22.3661 438.827 10.2348 439.808C6.4272 433.921 3.98471 438.369 2.53841 443.872C1.2323 448.793 0.723145 454.561 0.723145 454.561C17.7763 457.844 54.5907 443.422 54.5907 441.453C54.5907 441.386 54.1775 434.084 54.1701 433.973C54.0594 431.03 53.5207 413.908 53.5207 401.287" stroke="white" stroke-width="1.953" stroke-miterlimit="10" stroke-linecap="round" stroke-linejoin="round"/>
<path d="M50.1262 235.467C32.8222 364.64 53.528 400.018 53.5206 401.279C53.5206 401.287 53.5206 401.287 53.5206 401.287" stroke="white" stroke-width="1.953" stroke-miterlimit="10" stroke-linecap="round" stroke-linejoin="round"/>
<path d="M105.676 366.816C105.676 348.75 113.912 282.117 104.112 238.513" stroke="white" stroke-width="1.953" stroke-miterlimit="10" stroke-linecap="round" stroke-linejoin="round"/>
<path d="M105.676 366.816C102.68 388.961 98.7916 401.826 98.0979 403.817C98.0463 403.965 98.0168 404.053 98.002 404.083C97.9946 404.09 97.9946 404.09 97.9946 404.09" stroke="white" stroke-width="1.953" stroke-miterlimit="10" stroke-linecap="round" stroke-linejoin="round"/>
<path d="M82.3804 151.056C82.3804 151.056 84.5129 141.842 89.0437 132.348C90.7335 128.808 92.6152 125.031 94.6076 121.35" stroke="white" stroke-width="1.953" stroke-miterlimit="10" stroke-linecap="round" stroke-linejoin="round"/>
<path d="M94.6813 82.9468C94.6813 82.9542 96.8655 91.7766 97.4927 93.488C98.0536 95.0076 98.666 96.6305 99.2859 98.2829C102.688 107.378 106.377 117.44 103.699 117.042C103.212 117.285 102.732 117.529 102.26 117.757H102.252C99.5737 119.092 97.0205 120.28 94.6075 121.35C80.7126 127.517 71.5625 129.663 71.5625 129.663C64.2351 127.14 55.9336 123.157 48.9087 119.955C47.0565 119.115 45.2855 118.325 43.6473 117.632C43.4407 117.536 43.2341 117.455 43.0275 117.366C40.5112 117.366 44.3041 105.49 48.0527 95.9002C48.6061 94.4765 49.1595 93.1044 49.6908 91.8283C49.6908 91.8209 49.6982 91.8135 49.7056 91.7988C49.7499 91.6955 49.7868 91.5996 49.831 91.5037C51.2626 88.0957 52.517 85.4327 53.1959 84.4221" stroke="white" stroke-width="1.953" stroke-miterlimit="10" stroke-linecap="round" stroke-linejoin="round"/>
<path d="M53.1887 84.4223C57.7785 80.9774 71.9612 74.7515 65.8956 51.965C70.4854 51.965 72.3744 78.1964 72.5368 79.0152C72.6991 79.834 73.0312 71.4763 76.3075 52.7838C74.994 77.5399 78.108 78.1521 77.4586 79.1332C76.8019 80.1143 79.3846 50.5265 83.4874 51.8396C79.3846 75.9391 94.6815 82.947 94.6815 82.947" stroke="white" stroke-width="1.953" stroke-miterlimit="10" stroke-linecap="round" stroke-linejoin="round"/>
<path d="M43.6475 117.632C29.0811 120.715 31.7376 106.855 33.516 105.077C35.287 103.306 48.3701 92.861 49.8312 91.5037C49.8607 91.4816 49.8829 91.4594 49.8976 91.4447C49.905 91.4373 49.905 91.4373 49.9124 91.4299" stroke="white" stroke-width="1.953" stroke-miterlimit="10" stroke-linecap="round" stroke-linejoin="round"/>
<path d="M97.4929 93.488C98.1128 93.9675 98.7916 94.4839 99.4927 95.0224C104.584 98.9099 111.211 103.956 112.332 105.077C114.081 106.825 116.147 120.31 102.26 117.757H102.252" stroke="white" stroke-width="1.953" stroke-miterlimit="10" stroke-linecap="round" stroke-linejoin="round"/>
<path d="M85.332 100.813C88.3192 100.813 90.7409 98.3924 90.7409 95.4061C90.7409 92.4199 88.3192 89.999 85.332 89.999C82.3447 89.999 79.9231 92.4199 79.9231 95.4061C79.9231 98.3924 82.3447 100.813 85.332 100.813Z" fill="black" stroke="white" stroke-width="1.953" stroke-miterlimit="10" stroke-linecap="round" stroke-linejoin="round"/>
<path d="M79.3476 107.526C79.3476 109.23 76.9272 110.609 73.9387 110.609C70.9501 110.609 68.5298 109.23 68.5298 107.526C68.5298 105.822 70.8247 104.236 73.9018 105.564C77.215 104.229 79.3476 105.822 79.3476 107.526Z" stroke="white" stroke-width="1.953" stroke-miterlimit="10" stroke-linecap="round" stroke-linejoin="round"/>
<path d="M61.719 100.813C64.7062 100.813 67.1278 98.3924 67.1278 95.4061C67.1278 92.4199 64.7062 89.999 61.719 89.999C58.7317 89.999 56.3101 92.4199 56.3101 95.4061C56.3101 98.3924 58.7317 100.813 61.719 100.813Z" fill="black" stroke="white" stroke-width="1.953" stroke-miterlimit="10" stroke-linecap="round" stroke-linejoin="round"/>
<path d="M69.0981 118.598C74.02 118.104 85.5757 114.416 88.0403 110.24" stroke="white" stroke-width="1.953" stroke-miterlimit="10" stroke-linecap="round" stroke-linejoin="round"/>
<path d="M67.6223 95.4061C70.7363 95.2438 79.9233 95.4061 79.9233 95.4061" stroke="white" stroke-width="1.953" stroke-miterlimit="10" stroke-linecap="round" stroke-linejoin="round"/>
<path d="M99.1088 192.608L107.964 219.821C107.964 219.821 83.8562 238.838 83.3692 243.02C82.8748 247.196 81.9745 278.753 85.6641 279.985C89.1839 281.15 88.3722 268.603 88.2911 267.445" stroke="white" stroke-width="1.953" stroke-miterlimit="10" stroke-linecap="round" stroke-linejoin="round"/>
<path d="M89.0437 132.348C93.9434 136.553 106.731 149.831 112.886 156.714C115.033 158.388 118.184 167.948 121.49 179.389C121.49 179.389 129.179 209.744 131.385 214.561" stroke="white" stroke-width="1.953" stroke-miterlimit="10" stroke-linecap="round" stroke-linejoin="round"/>
<path d="M88.2837 267.363C88.2911 267.393 88.2911 267.415 88.2911 267.445C90.7631 285.547 94.9249 282.338 93.2056 267.113C105.994 303.258 94.187 251.135 95.4193 243.507C99.7435 240.026 106.687 236.706 113.948 233.556C116.007 232.656 118.088 231.778 120.147 230.923C125.696 228.584 131.053 226.357 135.185 224.247C134.3 223.421 132.972 219.769 131.385 214.561" stroke="white" stroke-width="1.953" stroke-miterlimit="10" stroke-linecap="round" stroke-linejoin="round"/>
<path d="M85.9888 108.19C89.2651 110.484 90.0916 112.122 90.0916 112.122" stroke="white" stroke-width="1.953" stroke-miterlimit="10" stroke-linecap="round" stroke-linejoin="round"/>
<path d="M84.9632 66.9617H65.0396V71.6311H84.9632V66.9617Z" fill="url(#paint5_linear)"/>
<path d="M69.5925 58.1097C69.5925 57.7409 68.2421 49.2577 71.1937 47.657C71.1937 47.657 74.6398 48.1512 75.3777 58.9654" stroke="white" stroke-width="1.953" stroke-miterlimit="10" stroke-linecap="round" stroke-linejoin="round"/>
<path d="M75.6064 58.0433C75.6729 57.6819 76.1673 49.1544 78.6245 47.9668C78.6245 47.9668 81.0817 48.9036 79.7166 59.6514" stroke="white" stroke-width="1.953" stroke-miterlimit="10" stroke-linecap="round" stroke-linejoin="round"/>
<path d="M347.97 83.5296C344.376 86.1999 329.898 87.7048 325.98 83.9279C325.087 83.0722 324.63 81.9067 324.519 80.5937C324.039 75.3636 328.946 67.7288 333.529 67.205C336.931 66.8141 341.321 70.0672 344.531 74.0727C344.531 74.0801 344.538 74.0801 344.538 74.0874L347.97 83.5296Z" fill="url(#paint6_linear)"/>
<path d="M296.382 82.6961C296.876 85.9713 313.162 88.1843 317.59 83.928C322.017 79.6716 315.789 67.8616 310.048 67.2051C304.307 66.5485 297.371 76.4702 296.382 82.6961Z" fill="url(#paint7_linear)"/>
<path d="M297.592 105.202C301.518 112.195 316.8 135.565 316.8 135.565" stroke="white" stroke-width="1.953" stroke-miterlimit="10" stroke-linecap="round" stroke-linejoin="round"/>
<path d="M303.274 179.581C302.536 181.3 297.858 197.772 296.633 203.673C298.847 204.905 318.77 221.628 318.77 226.054C318.77 230.48 318.357 264.737 316.143 264.243C313.93 263.756 314.343 246.458 314.343 246.458C314.343 246.458 313.192 264.413 310.402 263.919C307.621 263.779 310.011 249.556 310.55 246.532C310.565 246.436 310.587 246.347 310.602 246.274C310.609 246.229 310.616 246.2 310.624 246.17C310.631 246.141 310.639 246.119 310.639 246.089C310.639 246.067 310.646 246.045 310.646 246.03L310.653 246.001" stroke="white" stroke-width="1.953" stroke-miterlimit="10" stroke-linecap="round" stroke-linejoin="round"/>
<path d="M310.661 245.971L310.653 246.001C310.653 246.008 310.653 246.016 310.653 246.03C310.653 246.045 310.646 246.067 310.639 246.089C310.639 246.119 310.631 246.141 310.624 246.17C310.616 246.2 310.609 246.237 310.602 246.274C310.587 246.348 310.565 246.436 310.55 246.532C309.901 249.564 306.713 263.764 303.85 262.443C301.393 261.462 309.185 231.956 308.196 228.017C303.333 221.009 292.988 214.672 283.963 210.976C277.469 208.321 271.662 207.03 269.087 207.856C269.02 206.241 270.046 201.933 271.588 196.186C271.802 195.412 272.024 194.593 272.26 193.745C272.326 193.516 272.393 193.28 272.452 193.036" stroke="white" stroke-width="1.953" stroke-miterlimit="10" stroke-linecap="round" stroke-linejoin="round"/>
<path d="M277.204 175.288C277.285 175 277.359 174.705 277.433 174.418C280.31 163.183 282.93 151.771 283.358 145.649C290.243 139.238 298.286 130.991 307.466 121.129" stroke="white" stroke-width="1.953" stroke-miterlimit="10" stroke-linecap="round" stroke-linejoin="round"/>
<path d="M281.476 234.84C282.48 225.641 283.328 217.483 283.963 210.976" stroke="white" stroke-width="1.953" stroke-miterlimit="10" stroke-linecap="round" stroke-linejoin="round"/>
<path d="M361.075 219.658C362.388 224.254 386.083 362.028 387.396 376.781C382.378 385.368 377.146 391.889 372.387 396.433C368.284 400.357 364.528 402.806 361.569 403.832C358.736 406.664 357.26 418.482 356.411 427.319" stroke="white" stroke-width="1.953" stroke-miterlimit="10" stroke-linecap="round" stroke-linejoin="round"/>
<path d="M344.922 422.753C345.483 417.361 346.147 411.43 346.811 406.37C335.337 401.457 327.131 379.327 324.179 375.882C321.604 379.983 316.645 386.379 312.1 392.088C306.802 398.727 302.057 404.444 302.212 404.57" stroke="white" stroke-width="1.953" stroke-miterlimit="10" stroke-linecap="round" stroke-linejoin="round"/>
<path d="M288.811 421.027C289.8 427.061 290.501 432.298 290.73 434.57C283.845 438.502 278.104 440.302 267.279 441.777C266.268 440.221 265.139 439.196 264.04 438.694" stroke="white" stroke-width="1.953" stroke-miterlimit="10" stroke-linecap="round" stroke-linejoin="round"/>
<path d="M302.212 404.569C302.212 417.191 302.743 434.312 302.854 437.255C302.861 437.366 302.861 437.455 302.861 437.521C302.861 439.491 271.876 456.368 264.327 454.236C264.327 454.236 262.232 452.842 260.549 450.26" stroke="white" stroke-width="1.953" stroke-miterlimit="10" stroke-linecap="round" stroke-linejoin="round"/>
<path d="M298.928 219.821C303.119 242.991 293.335 337.811 290.339 365.48" stroke="white" stroke-width="1.953" stroke-miterlimit="10" stroke-linecap="round" stroke-linejoin="round"/>
<path d="M347.793 226.711C347.793 226.711 359.112 332.278 362.802 356.621C327.485 349.842 303.068 364.617 291.239 372.009" stroke="white" stroke-width="1.953" stroke-miterlimit="10" stroke-linecap="round" stroke-linejoin="round"/>
<path d="M330.083 134.908C330.083 134.908 333.196 127.089 337.727 117.595C339.417 114.054 341.299 110.277 343.291 106.596" stroke="white" stroke-width="1.953" stroke-miterlimit="10" stroke-linecap="round" stroke-linejoin="round"/>
<path d="M344.531 74.0728C344.531 74.0802 344.538 74.0802 344.538 74.0876C344.988 75.4449 345.549 77.0235 346.176 78.7349C346.737 80.2545 347.35 81.8773 347.969 83.5297C351.371 92.6251 355.061 102.687 352.382 102.289C351.895 102.532 351.416 102.775 350.943 103.004H350.936C348.257 104.339 345.704 105.527 343.291 106.597C329.396 112.763 320.246 114.91 320.246 114.91C312.919 112.387 304.617 108.404 297.592 105.202C295.74 104.361 293.969 103.572 292.331 102.879C292.124 102.783 291.918 102.702 291.711 102.613C289.195 102.613 292.988 90.7367 296.736 81.147C297.29 79.7233 297.843 78.3513 298.374 77.0751C298.374 77.0677 298.382 77.0604 298.389 77.0456C298.433 76.9423 298.47 76.8464 298.515 76.7505C299.946 73.3425 301.201 70.6795 301.88 69.6689" stroke="white" stroke-width="1.953" stroke-miterlimit="10" stroke-linecap="round" stroke-linejoin="round"/>
<path d="M292.331 102.879C277.765 105.962 280.421 92.1014 282.2 90.3236C283.971 88.5532 297.054 78.1078 298.515 76.7505C298.544 76.7284 298.566 76.7063 298.581 76.6915C298.589 76.6841 298.589 76.6841 298.596 76.6768" stroke="white" stroke-width="1.953" stroke-miterlimit="10" stroke-linecap="round" stroke-linejoin="round"/>
<path d="M346.177 78.7349C346.796 79.2143 347.475 79.7307 348.176 80.2692C353.268 84.1567 359.894 89.2024 361.016 90.3236C362.765 92.0719 364.831 105.556 350.943 103.004H350.936" stroke="white" stroke-width="1.953" stroke-miterlimit="10" stroke-linecap="round" stroke-linejoin="round"/>
<path d="M328.031 92.7727C328.031 94.4767 325.611 95.8562 322.622 95.8562C319.634 95.8562 317.213 94.4767 317.213 92.7727C317.213 91.0687 319.508 89.4827 322.585 90.8105C325.899 89.4754 328.031 91.0687 328.031 92.7727Z" stroke="white" stroke-width="1.953" stroke-miterlimit="10" stroke-linecap="round" stroke-linejoin="round"/>
<path d="M347.792 177.855L356.647 205.068C356.647 205.068 332.54 224.085 332.053 228.267C331.558 232.443 330.658 264 334.348 265.232C337.868 266.397 337.056 253.85 336.975 252.691" stroke="white" stroke-width="1.953" stroke-miterlimit="10" stroke-linecap="round" stroke-linejoin="round"/>
<path d="M337.727 117.595C342.118 124.529 353.814 138.257 358.861 142.204C360.057 143.141 361.695 146.534 363.562 151.336C370.173 168.288 379.722 202.788 383.338 208.778C383.338 208.786 383.345 208.786 383.345 208.786C383.537 209.11 383.714 209.346 383.869 209.494C383.375 209.745 382.865 210.003 382.334 210.254C378.076 212.326 372.8 214.495 367.421 216.76C358.529 220.5 349.372 224.513 344.103 228.754C342.871 236.382 354.677 288.505 341.889 252.36C343.608 267.585 339.447 270.794 336.975 252.691C336.975 252.662 336.975 252.64 336.967 252.61" stroke="white" stroke-width="1.953" stroke-miterlimit="10" stroke-linecap="round" stroke-linejoin="round"/>
<path d="M321.722 108.5C311.554 108.175 316.8 99.2568 321.722 98.9248C327.293 99.2568 334.842 109.481 321.722 108.5Z" stroke="white" stroke-width="1.953" stroke-miterlimit="10" stroke-linecap="round" stroke-linejoin="round"/>
<path d="M333.853 82.6149C336.812 82.6149 343.085 82.9026 342.384 79.502C341.402 74.7514 337.137 72.1253 332.215 75.4006C328.445 79.6643 331.559 82.6149 333.853 82.6149Z" fill="white" stroke="white" stroke-width="1.953" stroke-miterlimit="10" stroke-linecap="round" stroke-linejoin="round"/>
<path d="M335.742 81.8773C337.417 81.8773 338.775 80.5199 338.775 78.8455C338.775 77.1711 337.417 75.8137 335.742 75.8137C334.067 75.8137 332.709 77.1711 332.709 78.8455C332.709 80.5199 334.067 81.8773 335.742 81.8773Z" fill="black"/>
<path d="M310.336 82.6149C307.377 82.6149 301.105 82.9026 301.806 79.502C302.787 74.7514 307.052 72.1253 311.974 75.4006C315.752 79.6643 312.631 82.6149 310.336 82.6149Z" fill="white" stroke="white" stroke-width="1.953" stroke-miterlimit="10" stroke-linecap="round" stroke-linejoin="round"/>
<path d="M308.454 81.8773C310.129 81.8773 311.487 80.5199 311.487 78.8455C311.487 77.1711 310.129 75.8137 308.454 75.8137C306.779 75.8137 305.422 77.1711 305.422 78.8455C305.422 80.5199 306.779 81.8773 308.454 81.8773Z" fill="black" stroke="white" stroke-width="0.5" stroke-miterlimit="10" stroke-linecap="round" stroke-linejoin="round"/>
<path d="M302.042 68.437C302.78 64.5052 317.538 53.1894 322.209 54.4213C326.88 55.6532 332.673 56.3762 344.538 74.0875" stroke="white" stroke-width="1.953" stroke-miterlimit="10" stroke-linecap="round" stroke-linejoin="round"/>
<path d="M320.733 58.3532C316.062 56.1402 309.908 55.8967 313.848 50.4823C317.782 45.0752 320.733 43.8433 320.733 43.8433V58.3532Z" stroke="white" stroke-width="1.953" stroke-miterlimit="10" stroke-linecap="round" stroke-linejoin="round"/>
<path d="M320.955 58.3532C325.626 56.1402 331.78 55.8967 327.839 50.4823C323.906 45.0752 320.955 43.8433 320.955 43.8433V58.3532Z" stroke="white" stroke-width="1.953" stroke-miterlimit="10" stroke-linecap="round" stroke-linejoin="round"/>
<path d="M321.545 47.1773C316.417 47.8191 311.096 50.9173 311.509 44.2414C311.923 37.5655 313.745 34.9395 313.745 34.9395L321.545 47.1773Z" stroke="white" stroke-width="1.953" stroke-miterlimit="10" stroke-linecap="round" stroke-linejoin="round"/>
<path d="M321.729 47.0595C324.482 42.6851 329.537 39.1738 323.309 36.7248C317.081 34.2757 313.93 34.829 313.93 34.829L321.729 47.0595Z" stroke="white" stroke-width="1.953" stroke-miterlimit="10" stroke-linecap="round" stroke-linejoin="round"/>
<path d="M317.103 36.5478C313.347 40.1033 310.889 45.7465 307.274 40.1181C303.658 34.4897 303.569 31.303 303.569 31.303L317.103 36.5478Z" stroke="white" stroke-width="1.953" stroke-miterlimit="10" stroke-linecap="round" stroke-linejoin="round"/>
<path d="M317.177 36.3486C316.808 31.1923 318.8 25.3721 312.336 27.0835C305.864 28.7949 303.651 31.0964 303.651 31.0964L317.177 36.3486Z" stroke="white" stroke-width="1.953" stroke-miterlimit="10" stroke-linecap="round" stroke-linejoin="round"/>
<path d="M303.215 31.4357C296.198 37.0788 286.11 33.5749 285.623 31.9816C285.136 30.3808 282.952 16.6602 304.839 31.6791" stroke="white" stroke-width="1.953" stroke-miterlimit="10" stroke-linecap="round" stroke-linejoin="round"/>
<path d="M269.906 169.335C268.43 177.855 251.871 172.942 251.871 172.942C251.215 168.184 250.226 157.857 257.605 157.37C264.984 156.876 268.268 162.615 269.906 169.335Z" fill="url(#paint8_linear)"/>
<path d="M242.404 172.942C242.404 172.942 225.845 177.855 224.369 169.335C226.008 162.615 229.284 156.876 236.663 157.37C244.042 157.857 243.061 168.184 242.404 172.942Z" fill="url(#paint9_linear)"/>
<path d="M235.224 172.396C237.686 172.396 239.681 170.402 239.681 167.941C239.681 165.48 237.686 163.485 235.224 163.485C232.763 163.485 230.767 165.48 230.767 167.941C230.767 170.402 232.763 172.396 235.224 172.396Z" fill="black"/>
<path d="M259.073 172.396C261.535 172.396 263.53 170.402 263.53 167.941C263.53 165.48 261.535 163.485 259.073 163.485C256.612 163.485 254.616 165.48 254.616 167.941C254.616 170.402 256.612 172.396 259.073 172.396Z" fill="black"/>
<path d="M252.196 176.904C252.196 178.608 249.776 179.987 246.787 179.987C243.799 179.987 241.371 178.608 241.371 176.904C241.371 175.2 243.673 173.614 246.743 174.941C250.063 173.614 252.196 175.2 252.196 176.904Z" stroke="white" stroke-width="1.953" stroke-miterlimit="10" stroke-linecap="round" stroke-linejoin="round"/>
<path d="M264.372 196.282H264.364" stroke="white" stroke-width="1.953" stroke-miterlimit="10" stroke-linecap="round" stroke-linejoin="round"/>
<path d="M251.215 221.547C251.215 221.547 256.712 210.113 260.623 203.127" stroke="white" stroke-width="1.953" stroke-miterlimit="10" stroke-linecap="round" stroke-linejoin="round"/>
<path d="M229.794 196.99H229.786" stroke="white" stroke-width="1.953" stroke-miterlimit="10" stroke-linecap="round" stroke-linejoin="round"/>
<path d="M231.387 201.807C234.309 210.482 238.257 221.459 238.257 221.459" stroke="white" stroke-width="1.953" stroke-miterlimit="10" stroke-linecap="round" stroke-linejoin="round"/>
<path d="M219.839 192.785C219.817 192.778 219.794 192.763 219.772 192.756" stroke="white" stroke-width="1.953" stroke-miterlimit="10" stroke-linecap="round" stroke-linejoin="round"/>
<path d="M229.181 196.739C229.387 196.828 229.587 196.909 229.786 196.99H229.793" stroke="white" stroke-width="1.953" stroke-miterlimit="10" stroke-linecap="round" stroke-linejoin="round"/>
<path d="M255.517 199.122H255.509" stroke="white" stroke-width="1.953" stroke-miterlimit="10" stroke-linecap="round" stroke-linejoin="round"/>
<path d="M284.996 189.658C284.996 189.658 284.672 189.053 284.096 187.998" stroke="white" stroke-width="1.953" stroke-miterlimit="10" stroke-linecap="round" stroke-linejoin="round"/>
<path d="M253.679 143.981C253.849 143.93 254.019 143.915 254.203 143.93C255.642 146.239 257.11 148.739 257.686 149.72" stroke="white" stroke-width="1.953" stroke-miterlimit="10" stroke-linecap="round" stroke-linejoin="round"/>
<path d="M249.289 140.278C249.835 139.459 250.314 138.958 250.639 139.009C249.016 141.171 249.768 146.364 250.292 148.99" stroke="white" stroke-width="1.953" stroke-miterlimit="10" stroke-linecap="round" stroke-linejoin="round"/>
<path d="M244.485 148.075C244.396 146.158 243.968 143.59 242.36 143.694" stroke="white" stroke-width="1.953" stroke-miterlimit="10" stroke-linecap="round" stroke-linejoin="round"/>
<path d="M224.76 156.352C224.797 156.263 224.812 156.219 224.812 156.219C224.96 156.175 225.107 156.131 225.248 156.086" stroke="white" stroke-width="1.953" stroke-miterlimit="10" stroke-linecap="round" stroke-linejoin="round"/>
<path d="M219.839 192.786C219.816 192.948 219.794 193.103 219.772 193.25C219.558 194.541 219.3 195.441 218.96 195.766C218.946 195.78 218.924 195.795 218.909 195.81C218.385 196.216 217.507 196.275 216.503 196.068C216.496 196.068 216.496 196.068 216.488 196.068C216.474 196.061 216.466 196.061 216.452 196.053C214.142 195.109 211.456 193.42 210.519 191.207C210.511 191.2 210.511 191.192 210.511 191.185C210.312 190.329 210.445 189.422 211.035 188.514C211.972 186.456 212.924 184.31 213.876 182.141C216.075 177.125 218.252 172.005 220.082 167.661C220.148 169.284 220.813 185.859 219.839 192.786Z" stroke="white" stroke-width="1.953" stroke-miterlimit="10" stroke-linecap="round" stroke-linejoin="round"/>
<path d="M269.227 294.613C267.943 295.565 266.733 296.487 265.641 297.357C262.497 299.872 260.328 302.012 260.232 303.428C259.907 308.341 259.251 326.377 259.575 328.339C259.907 330.309 256.461 329.409 255.967 318.344C255.229 326.945 256.048 329.077 253.591 328.833C252.838 328.582 252.513 327.358 252.41 325.846C252.071 328.258 251.466 330.213 250.396 329.571C247.931 328.096 249.407 301.127 249.407 301.127C249.407 301.127 263.346 279.653 271.382 265.394C268.268 252.772 265.479 236.868 265.479 236.868" stroke="white" stroke-width="1.953" stroke-miterlimit="10" stroke-linecap="round" stroke-linejoin="round"/>
<path d="M238.235 318.831C238.235 318.831 238.884 322.888 238.678 325.846C238.235 322.725 238.235 318.831 238.235 318.831Z" stroke="white" stroke-width="1.953" stroke-miterlimit="10" stroke-linecap="round" stroke-linejoin="round"/>
<path d="M219.588 272.682C222.613 260.872 225.137 238.838 225.137 238.838" stroke="white" stroke-width="1.953" stroke-miterlimit="10" stroke-linecap="round" stroke-linejoin="round"/>
<path d="M219.861 272.734C219.853 272.719 219.853 272.697 219.853 272.682C230.546 283.245 241.673 301.127 241.673 301.127C241.673 301.127 243.149 328.096 240.692 329.571C239.622 330.213 239.017 328.258 238.677 325.846C238.574 327.358 238.249 328.582 237.497 328.833C235.032 329.077 235.851 326.945 235.113 318.344C234.626 329.409 231.18 330.309 231.505 328.339C231.837 326.377 231.18 308.341 230.856 303.428C230.745 301.761 227.727 299.068 223.639 295.948M256.048 198.001C255.871 198.377 255.694 198.753 255.517 199.122L264.364 196.282C263.412 198.111 262.069 200.546 260.623 203.128C266.194 211.168 279.063 228.909 280.569 231.461C280.613 231.542 280.665 231.646 280.709 231.778C280.731 231.823 280.746 231.867 280.761 231.919C280.967 232.516 281.211 233.519 281.476 234.84C281.572 235.312 281.668 235.821 281.772 236.367C281.838 236.728 281.912 237.112 281.978 237.503C281.986 237.547 281.993 237.591 282 237.636C282.045 237.864 282.089 238.1 282.126 238.344C282.524 240.601 282.96 243.257 283.424 246.111C283.491 246.539 283.557 246.967 283.631 247.402C283.808 248.479 283.985 249.586 284.17 250.7C284.251 251.194 284.332 251.695 284.406 252.19C284.782 254.462 285.166 256.763 285.55 258.998C285.623 259.404 285.69 259.81 285.764 260.208C285.83 260.621 285.904 261.027 285.978 261.425C286.074 261.964 286.169 262.488 286.265 263.011C286.937 266.655 287.608 269.96 288.273 272.49C288.317 272.675 288.361 272.852 288.413 273.021C288.457 273.198 288.509 273.368 288.553 273.53C288.597 273.7 288.649 273.855 288.693 274.01C288.737 274.172 288.782 274.32 288.833 274.467C289.04 275.124 289.239 275.692 289.446 276.149C289.49 276.26 289.542 276.37 289.586 276.466C289.697 276.688 289.807 276.879 289.911 277.034C288.42 280.074 283.528 284.072 278.126 288.092M236.744 198.805C236.921 199.218 237.098 199.624 237.275 200.029C235.792 199.439 233.018 198.325 229.793 196.99C230.251 198.436 230.797 200.074 231.387 201.807C227.232 207.871 216.429 222.801 212.157 228.997C211.345 230.17 210.77 231.033 210.519 231.461C208.881 234.25 204.453 272.276 201.169 277.034C202.586 279.926 207.065 283.666 212.135 287.472M233.475 416.534C234.774 412.005 243.732 399.162 245.547 397.584C247.37 399.199 256.321 412.013 257.605 416.534H233.475Z" stroke="white" stroke-width="1.953" stroke-miterlimit="10" stroke-linecap="round" stroke-linejoin="round"/>
<path d="M242.005 459.813C238.707 462.078 205.346 475.164 202.837 474.567C195.945 472.922 202.18 454.893 208.74 458.168C219.499 463.546 231.505 453.256 231.505 453.256C231.505 453.256 227.764 437.189 226.782 431.612C224.76 430.203 220.392 428.92 212.747 426.611C207.958 425.165 201.893 423.321 194.314 420.798C194.174 419.19 194.203 416.837 194.373 413.886C194.713 407.978 195.613 399.649 196.838 390.045C201.413 354.18 210.556 300.426 212.135 287.472C214.607 289.331 217.212 291.205 219.669 292.99C220.259 293.418 220.835 293.846 221.396 294.259C222.17 294.834 222.923 295.395 223.639 295.948C228.649 328.037 232.294 357.602 229.778 363.26C226.797 366.137 223.764 368.822 220.842 371.264C222.724 395.297 226.45 415.605 233.475 416.535C232.162 421.123 247.252 456.206 242.005 459.813Z" stroke="white" stroke-width="1.953" stroke-miterlimit="10" stroke-linecap="round" stroke-linejoin="round"/>
<path d="M245.614 397.518C245.592 397.532 245.569 397.554 245.547 397.584" stroke="white" stroke-width="1.953" stroke-miterlimit="10" stroke-linecap="round" stroke-linejoin="round"/>
<path d="M230.354 181.418C230.288 181.211 230.228 181.02 230.169 180.857" stroke="white" stroke-width="1.953" stroke-miterlimit="10" stroke-linecap="round" stroke-linejoin="round"/>
<path d="M249.894 209.774L249.916 209.744C249.909 209.744 249.901 209.759 249.894 209.774ZM249.894 209.774C249.894 209.767 249.894 209.767 249.894 209.774Z" stroke="white" stroke-width="1.953" stroke-miterlimit="10" stroke-linecap="round" stroke-linejoin="round"/>
<path d="M249.916 209.737C251.849 207.288 253.938 203.482 255.864 199.432L249.916 209.737Z" stroke="white" stroke-width="1.953" stroke-miterlimit="10" stroke-linecap="round" stroke-linejoin="round"/>
<path d="M255.901 199.358C255.886 199.388 255.878 199.41 255.864 199.44L255.908 199.358H255.901Z" stroke="white" stroke-width="1.953" stroke-miterlimit="10" stroke-linecap="round" stroke-linejoin="round"/>
<path d="M243.038 210.202L237.667 200.265C239.415 204.271 241.29 207.945 243.038 210.202Z" stroke="white" stroke-width="1.953" stroke-miterlimit="10" stroke-linecap="round" stroke-linejoin="round"/>
<path d="M249.2 199.985C249.2 202.987 249.03 205.805 248.713 208.217C248.713 208.217 248.713 208.217 248.713 208.225C248.108 213.005 246.994 216.214 245.717 216.214C244.477 216.214 243.385 213.197 242.765 208.653C242.426 206.145 242.227 203.172 242.227 199.985" stroke="white" stroke-width="1.953" stroke-miterlimit="10" stroke-linecap="round" stroke-linejoin="round"/>
<path d="M295.327 416.203C294.98 416.549 294.633 416.881 294.272 417.198C294.05 417.398 293.821 417.597 293.593 417.781C293.512 417.855 293.43 417.921 293.349 417.98C293.076 418.209 292.803 418.43 292.515 418.637C292.25 418.843 291.969 419.043 291.696 419.234C290.759 419.891 289.793 420.488 288.811 421.027C288.538 421.182 288.258 421.337 287.977 421.477C287.431 421.757 286.885 422.03 286.332 422.288C286.037 422.428 285.741 422.561 285.446 422.687C285.166 422.812 284.878 422.937 284.59 423.048C284.31 423.174 284.029 423.284 283.742 423.395C283.173 423.623 282.605 423.837 282.037 424.044C281.646 424.191 281.255 424.324 280.871 424.457C280.539 424.575 280.214 424.686 279.897 424.789C278.842 425.143 277.794 425.475 276.783 425.792C276.34 425.932 275.898 426.065 275.462 426.205C275.079 426.323 274.695 426.441 274.319 426.567C274.038 426.655 273.758 426.744 273.485 426.832C273.448 426.847 273.411 426.854 273.381 426.869C273.226 426.921 273.071 426.972 272.916 427.024C271.699 427.43 270.57 427.843 269.544 428.293C269.315 428.389 269.094 428.492 268.88 428.595C268.216 428.913 267.604 429.244 267.065 429.613C266.939 429.702 266.807 429.79 266.689 429.886C266.637 429.916 266.593 429.953 266.548 429.99C266.423 430.085 266.305 430.174 266.194 430.277C266.061 430.388 265.928 430.506 265.81 430.631C265.803 430.735 265.796 430.845 265.781 430.963C265.759 431.185 265.722 431.435 265.685 431.694C265.663 431.834 265.641 431.966 265.619 432.114C265.471 432.97 265.25 433.988 264.977 435.102C264.925 435.33 264.866 435.566 264.807 435.802C264.726 436.142 264.637 436.488 264.541 436.842C264.49 437.042 264.438 437.241 264.379 437.447C264.371 437.499 264.357 437.543 264.342 437.595C264.246 437.956 264.143 438.325 264.039 438.694C263.191 441.785 262.18 445.112 261.331 447.812C261.198 448.225 261.073 448.623 260.955 448.999C260.948 449.036 260.933 449.066 260.918 449.102C260.859 449.309 260.793 449.508 260.726 449.7C260.667 449.892 260.608 450.076 260.549 450.261C260.357 450.865 260.188 451.397 260.04 451.839C259.996 451.987 259.951 452.12 259.907 452.238C259.811 452.547 259.73 452.798 259.671 452.968C259.656 452.997 259.649 453.027 259.641 453.056C259.597 453.189 259.575 453.256 259.575 453.256C259.575 453.256 275.647 459.813 282.207 458.825C293.025 455.874 292.7 473.173 290.073 478.167C283.188 479.812 254.328 463.413 249.082 459.813C243.835 456.206 258.918 421.123 257.605 416.535C263.42 416.756 266.644 403.079 268.349 384.689C265.338 381.171 262.682 377.446 261.051 373.912C263.693 365.709 266.866 347.71 270.031 326.148C269.869 311.867 269.448 300.02 269.227 294.613C271.02 293.278 272.961 291.884 274.901 290.467C275.979 289.678 277.064 288.881 278.126 288.092C278.185 288.446 278.266 288.896 278.355 289.42C278.392 289.641 278.429 289.877 278.473 290.128C278.879 292.518 279.506 296.206 280.273 300.832C280.347 301.289 280.428 301.754 280.502 302.226C280.746 303.672 280.997 305.191 281.262 306.792C281.307 307.08 281.358 307.367 281.402 307.662C281.808 310.134 282.244 312.767 282.694 315.541C282.76 315.983 282.834 316.426 282.908 316.876C282.982 317.348 283.063 317.82 283.137 318.299C283.21 318.735 283.277 319.17 283.351 319.605C283.941 323.293 284.561 327.166 285.188 331.172C285.269 331.673 285.35 332.175 285.424 332.677C286.228 337.811 287.047 343.137 287.859 348.5C287.985 349.333 288.11 350.174 288.228 351.015C288.641 353.752 289.047 356.496 289.446 359.225C289.519 359.749 289.593 360.273 289.667 360.796C289.896 362.368 290.117 363.932 290.339 365.481V365.488C290.508 366.69 290.671 367.878 290.833 369.066C290.973 370.054 291.106 371.035 291.239 372.009C291.261 372.149 291.283 372.289 291.298 372.429C291.504 373.949 291.704 375.446 291.903 376.929C292.073 378.235 292.242 379.526 292.412 380.802C292.456 381.193 292.508 381.576 292.56 381.967C292.847 384.276 293.128 386.534 293.386 388.717C293.504 389.713 293.622 390.694 293.733 391.66C293.962 393.748 294.183 395.754 294.375 397.665C294.404 397.945 294.434 398.218 294.456 398.484C294.493 398.808 294.523 399.133 294.552 399.45C294.596 399.9 294.641 400.343 294.677 400.785C294.737 401.39 294.788 401.988 294.84 402.57C294.943 403.78 295.032 404.946 295.113 406.045C295.142 406.406 295.165 406.753 295.187 407.1C295.194 407.225 295.201 407.351 295.209 407.476C295.238 407.948 295.268 408.405 295.29 408.855C295.334 409.659 295.364 410.419 295.393 411.135C295.401 411.363 295.401 411.585 295.408 411.806C295.452 413.576 295.423 415.052 295.327 416.203Z" stroke="white" stroke-width="1.953" stroke-miterlimit="10" stroke-linecap="round" stroke-linejoin="round"/>
<path d="M287.977 421.477C287.431 421.764 286.885 422.037 286.332 422.288" stroke="white" stroke-width="1.953" stroke-miterlimit="10" stroke-linecap="round" stroke-linejoin="round"/>
<path d="M283.742 423.395C283.174 423.623 282.605 423.845 282.037 424.044" stroke="white" stroke-width="1.953" stroke-miterlimit="10" stroke-linecap="round" stroke-linejoin="round"/>
<path d="M267.065 429.613C266.932 429.702 266.807 429.79 266.689 429.886" stroke="white" stroke-width="1.953" stroke-miterlimit="10" stroke-linecap="round" stroke-linejoin="round"/>
<path d="M266.194 430.277C266.061 430.388 265.936 430.506 265.811 430.631" stroke="white" stroke-width="1.953" stroke-miterlimit="10" stroke-linecap="round" stroke-linejoin="round"/>
<path d="M265.781 430.963C265.759 431.185 265.729 431.435 265.685 431.694C265.663 431.826 265.641 431.967 265.619 432.114" stroke="white" stroke-width="1.953" stroke-miterlimit="10" stroke-linecap="round" stroke-linejoin="round"/>
<path d="M245.547 397.584C245.525 397.554 245.496 397.54 245.474 397.518" stroke="white" stroke-width="1.953" stroke-miterlimit="10" stroke-linecap="round" stroke-linejoin="round"/>
<path d="M291.903 376.929C291.711 375.446 291.504 373.941 291.298 372.429" stroke="white" stroke-width="1.953" stroke-miterlimit="10" stroke-linecap="round" stroke-linejoin="round"/>
<path d="M220.082 167.661C220.075 167.579 220.075 167.535 220.075 167.535" stroke="white" stroke-width="1.953" stroke-miterlimit="10" stroke-linecap="round" stroke-linejoin="round"/>
<path d="M210.519 191.207C211.072 193.589 214.112 195.566 216.489 196.068" stroke="white" stroke-width="1.953" stroke-miterlimit="10" stroke-linecap="round" stroke-linejoin="round"/>
<path d="M284.096 187.998C284.096 187.991 284.089 187.976 284.081 187.961C282.738 185.46 280.06 180.511 277.204 175.288C272.88 167.365 268.135 158.808 266.954 157.2C264.335 155.4 257.937 150.156 257.937 150.156C257.937 150.156 257.848 150.001 257.686 149.72C257.376 149.462 257.147 149.248 257.037 149.093C256.314 148.112 254.801 145.132 253.679 143.981C251.488 144.608 250.639 150.561 250.639 150.561C250.639 150.561 250.484 149.949 250.292 148.99C250.034 149.484 249.82 149.706 249.658 149.418C249.112 148.466 249.303 142.55 249.289 140.278C247.333 143.185 244.492 150.075 244.492 150.075C244.492 150.075 244.551 149.189 244.485 148.075C244.138 148.843 243.917 149.337 243.917 149.337C243.784 147.589 243.658 144.623 242.36 143.694C242.116 143.701 241.843 143.775 241.541 143.93C239.489 146.821 232.708 153.726 225.255 156.079C225.255 156.079 225.255 156.087 225.248 156.087C225.048 156.19 224.886 156.286 224.76 156.352C224.428 157.163 222.584 161.685 220.082 167.66C220.149 169.283 220.813 185.859 219.839 192.785C222.871 194.121 226.192 195.515 229.181 196.739C231.97 197.514 234.722 198.259 236.744 198.805C236.493 198.2 236.235 197.588 235.984 196.968C235.807 196.533 235.63 196.098 235.46 195.662C235.386 195.485 235.313 195.301 235.246 195.124C235.165 194.917 235.084 194.718 235.003 194.512C234.693 193.73 234.398 192.948 234.11 192.181C234.102 192.158 234.095 192.144 234.095 192.129C233.888 191.583 233.689 191.052 233.497 190.521C233.379 190.204 233.261 189.879 233.151 189.569C232.892 188.861 232.649 188.175 232.42 187.518C232.036 186.441 231.689 185.438 231.387 184.538C231.276 184.214 231.173 183.911 231.077 183.624C230.966 183.284 230.863 182.967 230.76 182.665C230.693 182.451 230.627 182.244 230.56 182.052C230.487 181.831 230.42 181.617 230.354 181.418C230.28 181.211 230.221 181.02 230.169 180.857C229.992 180.297 229.896 179.987 229.896 179.987C231.837 181.234 240.552 184.236 244.5 186.323C245.23 186.707 245.798 187.061 246.13 187.364C246.13 187.364 246.765 187.098 247.791 186.67C251.908 184.951 262.335 180.614 262.859 180.481C262.881 180.474 262.888 180.518 262.874 180.599C262.874 180.621 262.866 180.658 262.859 180.695C262.829 180.865 262.756 181.138 262.645 181.499C262.615 181.602 262.578 181.706 262.542 181.824C262.04 183.439 260.977 186.353 259.605 189.768C259.464 190.122 259.317 190.477 259.169 190.845C258.601 192.232 257.981 193.685 257.332 195.153C257.14 195.596 256.948 196.039 256.742 196.481C256.513 196.99 256.284 197.492 256.048 198.001L272.452 193.036C272.917 191.354 273.411 189.547 273.92 187.659C274.201 189.665 274.547 191.472 274.99 192.867C275.034 193.021 275.086 193.169 275.138 193.317C275.256 193.648 275.374 193.944 275.499 194.216L275.507 194.224C278.739 198.148 283.624 194.748 284.753 193.87C284.937 193.575 285.085 193.258 285.195 192.926C285.313 191.826 284.893 190.108 284.096 187.998ZM224.369 169.335C226.008 162.615 229.284 156.876 236.663 157.37C244.042 157.857 243.061 168.184 242.404 172.942C242.404 172.942 225.845 177.855 224.369 169.335ZM246.787 179.987C243.799 179.987 241.371 178.607 241.371 176.903C241.371 175.199 243.673 173.613 246.743 174.941C250.063 173.613 252.196 175.199 252.196 176.903C252.196 178.607 249.776 179.987 246.787 179.987ZM251.871 172.942C251.215 168.184 250.226 157.857 257.605 157.37C264.984 156.876 268.268 162.615 269.906 169.335C268.43 177.855 251.871 172.942 251.871 172.942Z" stroke="white" stroke-width="1.953" stroke-miterlimit="10" stroke-linecap="round" stroke-linejoin="round"/>
<path d="M272.902 167.653C272.902 167.653 272.784 179.352 273.92 187.659" stroke="white" stroke-width="1.953" stroke-miterlimit="10" stroke-linecap="round" stroke-linejoin="round"/>
<path d="M275.507 194.224C275.794 194.851 276.112 195.308 276.466 195.566C279.078 197.477 283.166 196.459 284.753 193.87" stroke="white" stroke-width="1.953" stroke-miterlimit="10" stroke-linecap="round" stroke-linejoin="round"/>
<path d="M285.159 189.953C285.505 191.044 285.483 192.048 285.196 192.925" stroke="white" stroke-width="1.953" stroke-miterlimit="10" stroke-linecap="round" stroke-linejoin="round"/>
<path d="M269.227 294.613V294.605" stroke="white" stroke-width="1.953" stroke-miterlimit="10" stroke-linecap="round" stroke-linejoin="round"/>
<path d="M179.538 78.654C179.693 76.8926 178.518 75.3507 176.914 75.21C175.311 75.0694 173.885 76.3833 173.731 78.1447C173.576 79.9061 174.751 81.448 176.354 81.5886C177.958 81.7293 179.383 80.4154 179.538 78.654Z" fill="black"/>
<path d="M152.81 78.4145C152.965 76.6531 151.79 75.1112 150.187 74.9705C148.583 74.8299 147.158 76.1438 147.003 77.9052C146.848 79.6666 148.023 81.2085 149.627 81.3491C151.23 81.4898 152.656 80.1759 152.81 78.4145Z" fill="black"/>
<path d="M356.411 427.319C356.087 430.742 355.85 433.722 355.666 435.551C360.75 438.502 369.849 443.172 376.165 443.747C387.315 435.551 384.363 457.844 384.363 457.844C367.31 461.126 343.535 440.472 343.535 438.502C343.535 437.337 344.11 430.624 344.922 422.753" stroke="white" stroke-width="1.953" stroke-miterlimit="10" stroke-linecap="round" stroke-linejoin="round"/>
<path d="M371.354 397.399C380.925 403.721 392.525 408.081 404.575 411.061C441.352 420.156 482.284 416.424 482.284 416.424C482.284 416.424 461.158 431.398 394.059 432.461C379.272 432.697 366.816 430.661 356.411 427.319" stroke="white" stroke-width="1.953" stroke-miterlimit="10" stroke-linecap="round" stroke-linejoin="round"/>
<path d="M344.922 422.753C325.995 413.665 315.988 400.298 312.1 392.088L312.092 392.081" stroke="white" stroke-width="1.953" stroke-miterlimit="10" stroke-linecap="round" stroke-linejoin="round"/>
</g>
<path d="M473.947 15L468.827 5H470.427L474.667 13.4H474.707L478.307 5H479.827L473.727 19H472.207L473.947 15ZM483.213 13.74L480.333 9H481.813L484.273 13.2H486.073V9H487.393V13.2H489.193L491.653 9H493.133L490.253 13.74L493.333 19H491.813L489.193 14.4H487.393V19H486.073V14.4H484.273L481.653 19H480.133L483.213 13.74ZM498.939 19.14C498.299 19.14 497.712 19.0333 497.179 18.82C496.646 18.6067 496.192 18.3 495.819 17.9C495.446 17.4867 495.152 16.9867 494.939 16.4C494.739 15.8 494.639 15.1133 494.639 14.34V13.66C494.639 12.9 494.739 12.22 494.939 11.62C495.152 11.02 495.446 10.52 495.819 10.12C496.206 9.70667 496.659 9.39333 497.179 9.18C497.712 8.96667 498.299 8.86 498.939 8.86C499.579 8.86 500.166 8.96667 500.699 9.18C501.232 9.39333 501.686 9.70667 502.059 10.12C502.432 10.5333 502.719 11.0467 502.919 11.66C503.132 12.26 503.239 12.96 503.239 13.76V14.36H495.999C495.999 15.52 496.252 16.4067 496.759 17.02C497.266 17.6333 497.992 17.94 498.939 17.94C500.366 17.94 501.312 17.36 501.779 16.2H503.139C502.899 17.16 502.419 17.8933 501.699 18.4C500.992 18.8933 500.072 19.14 498.939 19.14ZM498.939 10.06C498.086 10.06 497.399 10.3333 496.879 10.88C496.359 11.4133 496.066 12.2 495.999 13.24H501.879C501.812 12.16 501.512 11.36 500.979 10.84C500.459 10.32 499.779 10.06 498.939 10.06ZM511.04 9H512.36V13.3H517.92V9H519.24V19H517.92V14.5H512.36V19H511.04V9ZM526.341 19.14C525.701 19.14 525.115 19.0333 524.581 18.82C524.048 18.6067 523.595 18.3 523.221 17.9C522.848 17.4867 522.555 16.9867 522.341 16.4C522.141 15.8 522.041 15.1133 522.041 14.34V13.66C522.041 12.9 522.141 12.22 522.341 11.62C522.555 11.02 522.848 10.52 523.221 10.12C523.608 9.70667 524.061 9.39333 524.581 9.18C525.115 8.96667 525.701 8.86 526.341 8.86C526.981 8.86 527.568 8.96667 528.101 9.18C528.635 9.39333 529.088 9.70667 529.461 10.12C529.835 10.5333 530.121 11.0467 530.321 11.66C530.535 12.26 530.641 12.96 530.641 13.76V14.36H523.401C523.401 15.52 523.655 16.4067 524.161 17.02C524.668 17.6333 525.395 17.94 526.341 17.94C527.768 17.94 528.715 17.36 529.181 16.2H530.541C530.301 17.16 529.821 17.8933 529.101 18.4C528.395 18.8933 527.475 19.14 526.341 19.14ZM526.341 10.06C525.488 10.06 524.801 10.3333 524.281 10.88C523.761 11.4133 523.468 12.2 523.401 13.24H529.281C529.215 12.16 528.915 11.36 528.381 10.84C527.861 10.32 527.181 10.06 526.341 10.06ZM540.482 10.2H537.142V9H545.142V10.2H541.802V19H540.482V10.2ZM550.56 19.14C549.92 19.14 549.333 19.0333 548.8 18.82C548.267 18.6067 547.813 18.3 547.44 17.9C547.067 17.4867 546.773 16.9867 546.56 16.4C546.36 15.8 546.26 15.1133 546.26 14.34V13.66C546.26 12.9 546.36 12.22 546.56 11.62C546.773 11.02 547.067 10.52 547.44 10.12C547.827 9.70667 548.28 9.39333 548.8 9.18C549.333 8.96667 549.92 8.86 550.56 8.86C551.2 8.86 551.787 8.96667 552.32 9.18C552.853 9.39333 553.307 9.70667 553.68 10.12C554.053 10.5333 554.34 11.0467 554.54 11.66C554.753 12.26 554.86 12.96 554.86 13.76V14.36H547.62C547.62 15.52 547.873 16.4067 548.38 17.02C548.887 17.6333 549.613 17.94 550.56 17.94C551.987 17.94 552.933 17.36 553.4 16.2H554.76C554.52 17.16 554.04 17.8933 553.32 18.4C552.613 18.8933 551.693 19.14 550.56 19.14ZM550.56 10.06C549.707 10.06 549.02 10.3333 548.5 10.88C547.98 11.4133 547.687 12.2 547.62 13.24H553.5C553.433 12.16 553.133 11.36 552.6 10.84C552.08 10.32 551.4 10.06 550.56 10.06ZM557.661 9H558.701L558.861 10.5H558.901C559.341 9.92667 559.828 9.51333 560.361 9.26C560.894 8.99333 561.521 8.86 562.241 8.86C562.828 8.86 563.368 8.96667 563.861 9.18C564.354 9.38 564.774 9.68667 565.121 10.1C565.481 10.5 565.761 11 565.961 11.6C566.161 12.2 566.261 12.8867 566.261 13.66V14.34C566.261 15.1133 566.161 15.8 565.961 16.4C565.761 16.9867 565.481 17.4867 565.121 17.9C564.761 18.3 564.334 18.6067 563.841 18.82C563.348 19.0333 562.814 19.14 562.241 19.14C560.801 19.14 559.728 18.6267 559.021 17.6H558.981V23H557.661V9ZM561.941 17.94C562.821 17.94 563.534 17.6467 564.081 17.06C564.628 16.46 564.901 15.5533 564.901 14.34V13.66C564.901 12.4733 564.621 11.58 564.061 10.98C563.514 10.3667 562.808 10.06 561.941 10.06C561.061 10.06 560.348 10.36 559.801 10.96C559.254 11.5467 558.981 12.4467 558.981 13.66V14.34C558.981 15.5267 559.254 16.4267 559.801 17.04C560.361 17.64 561.074 17.94 561.941 17.94ZM569.067 9H576.867V19H575.547V10.2H570.387V19H569.067V9ZM580.259 9H581.579V17.5H581.619L586.619 9H588.459V19H587.139V10.5H587.099L582.099 19H580.259V9ZM593.9 10.2H590.56V9H598.56V10.2H595.22V19H593.9V10.2ZM603.878 19.14C603.251 19.14 602.678 19.04 602.158 18.84C601.638 18.6267 601.191 18.3133 600.818 17.9C600.458 17.4867 600.178 16.9733 599.978 16.36C599.778 15.7467 599.678 15.04 599.678 14.24V13.56C599.678 12.8133 599.778 12.1533 599.978 11.58C600.191 10.9933 600.478 10.5 600.838 10.1C601.211 9.7 601.651 9.39333 602.158 9.18C602.678 8.96667 603.251 8.86 603.878 8.86C604.465 8.86 604.991 8.94 605.458 9.1C605.925 9.24667 606.325 9.46 606.658 9.74C606.991 10.0067 607.258 10.32 607.458 10.68C607.658 11.0267 607.798 11.4 607.878 11.8H606.518C606.371 11.3067 606.098 10.8933 605.698 10.56C605.298 10.2267 604.725 10.06 603.978 10.06C603.125 10.06 602.418 10.36 601.858 10.96C601.311 11.56 601.038 12.4267 601.038 13.56V14.24C601.038 15.4667 601.318 16.3933 601.878 17.02C602.438 17.6333 603.138 17.94 603.978 17.94C604.725 17.94 605.298 17.7667 605.698 17.42C606.098 17.0733 606.371 16.6 606.518 16H607.878C607.798 16.4533 607.658 16.8733 607.458 17.26C607.258 17.6333 606.991 17.96 606.658 18.24C606.325 18.52 605.925 18.74 605.458 18.9C604.991 19.06 604.465 19.14 603.878 19.14ZM611.816 15C611.136 14.7733 610.642 14.42 610.336 13.94C610.029 13.46 609.876 12.86 609.876 12.14C609.876 11.14 610.182 10.3667 610.796 9.82C611.422 9.27333 612.449 9 613.876 9H617.076V19H615.756V15.28H613.876C613.742 15.28 613.609 15.28 613.476 15.28C613.356 15.28 613.236 15.2733 613.116 15.26L610.996 19H609.476L611.816 15ZM611.236 12.14C611.236 12.7667 611.436 13.2467 611.836 13.58C612.236 13.9133 612.949 14.08 613.976 14.08H615.756V10.2H613.976C612.949 10.2 612.236 10.3667 611.836 10.7C611.436 11.0333 611.236 11.5133 611.236 12.14Z" fill="white"/>
<path d="M470.013 37H477.813V47H476.493V38.2H471.333V47H470.013V37ZM485.004 47.14C483.657 47.14 482.584 46.7267 481.784 45.9C480.997 45.0733 480.604 43.8867 480.604 42.34V41.66C480.604 40.9 480.704 40.22 480.904 39.62C481.117 39.02 481.417 38.52 481.804 38.12C482.191 37.7067 482.651 37.3933 483.184 37.18C483.731 36.9667 484.337 36.86 485.004 36.86C486.351 36.86 487.417 37.2733 488.204 38.1C489.004 38.9267 489.404 40.1133 489.404 41.66V42.34C489.404 43.1 489.297 43.78 489.084 44.38C488.884 44.98 488.591 45.4867 488.204 45.9C487.817 46.3 487.351 46.6067 486.804 46.82C486.271 47.0333 485.671 47.14 485.004 47.14ZM485.004 45.94C485.924 45.94 486.657 45.64 487.204 45.04C487.764 44.44 488.044 43.54 488.044 42.34V41.66C488.044 40.4733 487.764 39.58 487.204 38.98C486.644 38.3667 485.911 38.06 485.004 38.06C484.084 38.06 483.344 38.36 482.784 38.96C482.237 39.56 481.964 40.46 481.964 41.66V42.34C481.964 43.5267 482.244 44.4267 482.804 45.04C483.364 45.64 484.097 45.94 485.004 45.94ZM490.705 45.94H491.005C491.418 45.94 491.738 45.8 491.965 45.52C492.191 45.24 492.358 44.8333 492.465 44.3C492.585 43.7667 492.651 43.12 492.665 42.36C492.691 41.6 492.705 40.7467 492.705 39.8V37H499.505V47H498.185V38.2H494.025V39.8C494.025 40.88 494.005 41.8667 493.965 42.76C493.938 43.6533 493.825 44.4267 493.625 45.08C493.438 45.7333 493.138 46.24 492.725 46.6C492.325 46.96 491.751 47.14 491.005 47.14H490.705V45.94ZM505.883 47L501.703 37H503.143L506.563 45.36H506.603L509.743 37H511.103L505.703 51H504.343L505.883 47ZM516.689 43.6C515.356 43.6 514.389 43.3133 513.789 42.74C513.189 42.1667 512.889 41.28 512.889 40.08V37H514.209V40C514.209 40.88 514.389 41.5 514.749 41.86C515.122 42.22 515.769 42.4 516.689 42.4C517.196 42.4 517.662 42.3667 518.089 42.3C518.516 42.22 518.876 42.1467 519.169 42.08V37H520.489V47H519.169V43.28C518.876 43.3467 518.516 43.42 518.089 43.5C517.662 43.5667 517.196 43.6 516.689 43.6ZM523.88 37H525.2V45.5H525.24L530.24 37H532.08V47H530.76V38.5H530.72L525.72 47H523.88V37ZM537.521 38.2H534.181V37H542.181V38.2H538.841V47H537.521V38.2ZM544.29 37H545.61V40.6H547.89C549.183 40.6 550.137 40.8867 550.75 41.46C551.377 42.0333 551.69 42.8133 551.69 43.8C551.69 44.7733 551.377 45.5533 550.75 46.14C550.123 46.7133 549.17 47 547.89 47H544.29V37ZM545.61 41.8V45.8H547.79C548.71 45.8 549.363 45.6267 549.75 45.28C550.137 44.9333 550.33 44.44 550.33 43.8C550.33 43.16 550.13 42.6667 549.73 42.32C549.343 41.9733 548.697 41.8 547.79 41.8H545.61ZM559.095 37H562.895C564.068 37 564.928 37.2467 565.475 37.74C566.021 38.2333 566.295 38.9 566.295 39.74C566.295 40.18 566.181 40.58 565.955 40.94C565.741 41.3 565.435 41.58 565.035 41.78V41.82C565.581 42.0333 565.995 42.34 566.275 42.74C566.555 43.14 566.695 43.6067 566.695 44.14C566.695 45.0333 566.421 45.7333 565.875 46.24C565.328 46.7467 564.468 47 563.295 47H559.095V37ZM564.935 39.76C564.935 39.2667 564.775 38.8867 564.455 38.62C564.135 38.34 563.581 38.2 562.795 38.2H560.415V41.34H562.795C563.581 41.34 564.135 41.2067 564.455 40.94C564.775 40.66 564.935 40.2667 564.935 39.76ZM565.335 44.12C565.335 43.5733 565.175 43.16 564.855 42.88C564.535 42.6 563.981 42.46 563.195 42.46H560.415V45.8H563.195C563.981 45.8 564.535 45.66 564.855 45.38C565.175 45.1 565.335 44.68 565.335 44.12ZM572.085 47.14C570.978 47.14 570.152 46.8867 569.605 46.38C569.058 45.86 568.785 45.1467 568.785 44.24C568.785 43.2933 569.112 42.54 569.765 41.98C570.418 41.42 571.458 41.14 572.885 41.14H575.465V40.4C575.465 39.6 575.272 39.02 574.885 38.66C574.498 38.2867 573.865 38.1 572.985 38.1C572.172 38.1 571.572 38.24 571.185 38.52C570.812 38.8 570.598 39.16 570.545 39.6H569.185C569.212 39.24 569.312 38.8933 569.485 38.56C569.658 38.2267 569.898 37.9333 570.205 37.68C570.525 37.4267 570.918 37.2267 571.385 37.08C571.852 36.9333 572.385 36.86 572.985 36.86C574.278 36.86 575.232 37.16 575.845 37.76C576.472 38.3467 576.785 39.2267 576.785 40.4V47H575.745L575.585 45.3H575.545C575.145 45.9 574.645 46.36 574.045 46.68C573.458 46.9867 572.805 47.14 572.085 47.14ZM572.185 45.9C572.665 45.9 573.105 45.8267 573.505 45.68C573.905 45.52 574.252 45.3067 574.545 45.04C574.838 44.76 575.065 44.4333 575.225 44.06C575.385 43.6733 575.465 43.2533 575.465 42.8V42.26H572.985C571.958 42.26 571.225 42.44 570.785 42.8C570.358 43.16 570.145 43.64 570.145 44.24C570.145 44.7467 570.305 45.1533 570.625 45.46C570.958 45.7533 571.478 45.9 572.185 45.9ZM580.091 37H581.411V45.8H585.331V37H586.651V45.8H590.571V37H591.891V47H580.091V37ZM604.206 47.14C602.846 47.14 601.766 46.7067 600.966 45.84C600.179 44.96 599.786 43.5933 599.786 41.74V40.66C599.786 39.9 599.819 39.18 599.886 38.5C599.953 37.82 600.066 37.2 600.226 36.64C600.399 36.08 600.633 35.5867 600.926 35.16C601.219 34.72 601.599 34.36 602.066 34.08C602.479 33.84 602.886 33.68 603.286 33.6C603.699 33.5067 604.133 33.44 604.586 33.4C605.039 33.36 605.526 33.3133 606.046 33.26C606.566 33.1933 607.146 33.06 607.786 32.86V34.08C607.279 34.2667 606.786 34.3867 606.306 34.44C605.839 34.4933 605.386 34.54 604.946 34.58C604.519 34.62 604.113 34.6733 603.726 34.74C603.339 34.8067 602.986 34.94 602.666 35.14C602.173 35.46 601.799 35.9133 601.546 36.5C601.306 37.0867 601.146 37.8533 601.066 38.8H601.106C601.453 38.24 601.906 37.8133 602.466 37.52C603.039 37.2133 603.699 37.06 604.446 37.06C605.046 37.06 605.599 37.1667 606.106 37.38C606.613 37.5933 607.046 37.9 607.406 38.3C607.779 38.7 608.066 39.1933 608.266 39.78C608.479 40.3667 608.586 41.0267 608.586 41.76V42.44C608.586 43.1733 608.479 43.8333 608.266 44.42C608.053 44.9933 607.753 45.4867 607.366 45.9C606.993 46.3 606.533 46.6067 605.986 46.82C605.453 47.0333 604.859 47.14 604.206 47.14ZM604.206 45.94C605.113 45.94 605.839 45.6467 606.386 45.06C606.946 44.46 607.226 43.5867 607.226 42.44V41.76C607.226 40.6133 606.946 39.7467 606.386 39.16C605.839 38.56 605.113 38.26 604.206 38.26C603.273 38.26 602.526 38.5533 601.966 39.14C601.419 39.7267 601.146 40.6 601.146 41.76V42.44C601.146 43.5733 601.426 44.44 601.986 45.04C602.546 45.64 603.286 45.94 604.206 45.94ZM611.38 37H612.42L612.58 38.5H612.62C613.06 37.9267 613.546 37.5133 614.08 37.26C614.613 36.9933 615.24 36.86 615.96 36.86C616.546 36.86 617.086 36.9667 617.58 37.18C618.073 37.38 618.493 37.6867 618.84 38.1C619.2 38.5 619.48 39 619.68 39.6C619.88 40.2 619.98 40.8867 619.98 41.66V42.34C619.98 43.1133 619.88 43.8 619.68 44.4C619.48 44.9867 619.2 45.4867 618.84 45.9C618.48 46.3 618.053 46.6067 617.56 46.82C617.066 47.0333 616.533 47.14 615.96 47.14C614.52 47.14 613.446 46.6267 612.74 45.6H612.7V51H611.38V37ZM615.66 45.94C616.54 45.94 617.253 45.6467 617.8 45.06C618.346 44.46 618.62 43.5533 618.62 42.34V41.66C618.62 40.4733 618.34 39.58 617.78 38.98C617.233 38.3667 616.526 38.06 615.66 38.06C614.78 38.06 614.066 38.36 613.52 38.96C612.973 39.5467 612.7 40.4467 612.7 41.66V42.34C612.7 43.5267 612.973 44.4267 613.52 45.04C614.08 45.64 614.793 45.94 615.66 45.94ZM622.786 37H624.106V45.5H624.146L629.146 37H630.986V47H629.666V38.5H629.626L624.626 47H622.786V37ZM639.028 47.14H638.288C637.608 47.14 636.988 47.0333 636.428 46.82C635.881 46.5933 635.408 46.2733 635.008 45.86C634.621 45.4333 634.321 44.9267 634.108 44.34C633.894 43.7533 633.788 43.0867 633.788 42.34V41.66C633.788 40.9267 633.894 40.2667 634.108 39.68C634.334 39.08 634.641 38.5733 635.028 38.16C635.428 37.7467 635.901 37.4267 636.448 37.2C637.008 36.9733 637.621 36.86 638.288 36.86H639.028V33H640.348V36.86H641.088C641.768 36.86 642.381 36.9733 642.928 37.2C643.488 37.4133 643.961 37.7333 644.348 38.16C644.748 38.5733 645.054 39.08 645.268 39.68C645.481 40.2667 645.588 40.9267 645.588 41.66V42.34C645.588 43.0733 645.474 43.74 645.248 44.34C645.034 44.9267 644.728 45.4267 644.328 45.84C643.941 46.2533 643.468 46.5733 642.908 46.8C642.361 47.0267 641.754 47.14 641.088 47.14H640.348V51H639.028V47.14ZM644.228 41.66C644.228 40.5133 643.941 39.6333 643.368 39.02C642.808 38.4067 642.048 38.1 641.088 38.1H640.348V45.9H641.088C642.048 45.9 642.808 45.6 643.368 45C643.941 44.3867 644.228 43.5 644.228 42.34V41.66ZM635.148 42.34C635.148 43.4867 635.428 44.3667 635.988 44.98C636.561 45.5933 637.328 45.9 638.288 45.9H639.028V38.1H638.288C637.328 38.1 636.561 38.4067 635.988 39.02C635.428 39.62 635.148 40.5 635.148 41.66V42.34ZM648.991 33H650.391V43H648.991V33ZM649.691 47.14C649.371 47.14 649.105 47.0333 648.891 46.82C648.691 46.6067 648.591 46.3467 648.591 46.04C648.591 45.7333 648.691 45.4733 648.891 45.26C649.105 45.0467 649.371 44.94 649.691 44.94C650.011 44.94 650.271 45.0467 650.471 45.26C650.685 45.4733 650.791 45.7333 650.791 46.04C650.791 46.3467 650.685 46.6067 650.471 46.82C650.271 47.0333 650.011 47.14 649.691 47.14Z" fill="white"/>
<defs>
<linearGradient id="paint0_linear" x1="342.742" y1="90.9987" x2="599.743" y2="90.9987" gradientUnits="userSpaceOnUse">
<stop stop-color="#3FFFD8"/>
<stop offset="0.6173" stop-color="#B9C3FC"/>
<stop offset="1" stop-color="#FF7EA7"/>
</linearGradient>
<linearGradient id="paint1_linear" x1="166.944" y1="74.3526" x2="188.206" y2="74.3526" gradientUnits="userSpaceOnUse">
<stop stop-color="#3FFFD8"/>
<stop offset="0.4888" stop-color="#B9C3FC"/>
<stop offset="1" stop-color="#FF7EA7"/>
</linearGradient>
<linearGradient id="paint2_linear" x1="139.703" y1="74.3637" x2="161.012" y2="74.3637" gradientUnits="userSpaceOnUse">
<stop stop-color="#3FFFD8"/>
<stop offset="0.4888" stop-color="#B9C3FC"/>
<stop offset="1" stop-color="#FF7EA7"/>
</linearGradient>
<linearGradient id="paint3_linear" x1="75.8002" y1="92.7508" x2="99.2836" y2="92.7508" gradientUnits="userSpaceOnUse">
<stop stop-color="#3FFFD8"/>
<stop offset="0.4888" stop-color="#B9C3FC"/>
<stop offset="1" stop-color="#FF7EA7"/>
</linearGradient>
<linearGradient id="paint4_linear" x1="47.6983" y1="92.7944" x2="70.4096" y2="92.7944" gradientUnits="userSpaceOnUse">
<stop stop-color="#3FFFD8"/>
<stop offset="0.4888" stop-color="#B9C3FC"/>
<stop offset="1" stop-color="#FF7EA7"/>
</linearGradient>
<linearGradient id="paint5_linear" x1="65.0394" y1="69.2984" x2="84.963" y2="69.2984" gradientUnits="userSpaceOnUse">
<stop stop-color="#3FFFD8"/>
<stop offset="0.4888" stop-color="#B9C3FC"/>
<stop offset="1" stop-color="#FF7EA7"/>
</linearGradient>
<linearGradient id="paint6_linear" x1="324.486" y1="76.6852" x2="347.97" y2="76.6852" gradientUnits="userSpaceOnUse">
<stop stop-color="#3FFFD8"/>
<stop offset="0.4888" stop-color="#B9C3FC"/>
<stop offset="1" stop-color="#FF7EA7"/>
</linearGradient>
<linearGradient id="paint7_linear" x1="296.385" y1="76.7288" x2="319.096" y2="76.7288" gradientUnits="userSpaceOnUse">
<stop stop-color="#3FFFD8"/>
<stop offset="0.4888" stop-color="#B9C3FC"/>
<stop offset="1" stop-color="#FF7EA7"/>
</linearGradient>
<linearGradient id="paint8_linear" x1="251.42" y1="165.844" x2="269.902" y2="165.844" gradientUnits="userSpaceOnUse">
<stop stop-color="#3FFFD8"/>
<stop offset="0.4888" stop-color="#B9C3FC"/>
<stop offset="1" stop-color="#FF7EA7"/>
</linearGradient>
<linearGradient id="paint9_linear" x1="224.366" y1="165.844" x2="242.846" y2="165.844" gradientUnits="userSpaceOnUse">
<stop stop-color="#3FFFD8"/>
<stop offset="0.4888" stop-color="#B9C3FC"/>
<stop offset="1" stop-color="#FF7EA7"/>
</linearGradient>
<clipPath id="clip0">
<rect width="483" height="455" fill="white" transform="translate(0 24)"/>
</clipPath>
</defs>
</svg>
