<svg width="688" height="292" viewBox="0 0 688 292" fill="none" xmlns="http://www.w3.org/2000/svg">
<g clip-path="url(#clip0_2422_3)">
<path d="M138.5 185.5H142.5V181.5H138.5V185.5ZM138.5 273H134.5V277H138.5V273ZM173.5 273V277H177.5V273H173.5ZM173.5 185.5V181.5H169.5V185.5H173.5ZM208.5 185.5V189.5H212.5V185.5H208.5ZM208.5 150.5H212.5V146.5H208.5V150.5ZM173.5 150.5H169.5V154.5H173.5V150.5ZM173.5 28H177.5V24H173.5V28ZM138.5 28V24H134.5V28H138.5ZM138.5 150.5V154.5H142.5V150.5H138.5ZM68.5 150.5H64.5V154.5H68.5V150.5ZM68.5 28H72.5V24H68.5V28ZM33.5 28V24H29.5V28H33.5ZM33.5 185.5H29.5V189.5H33.5V185.5ZM134.5 185.5V273H142.5V185.5H134.5ZM138.5 277H173.5V269H138.5V277ZM177.5 273V185.5H169.5V273H177.5ZM173.5 189.5H208.5V181.5H173.5V189.5ZM212.5 185.5V150.5H204.5V185.5H212.5ZM208.5 146.5H173.5V154.5H208.5V146.5ZM177.5 150.5V28H169.5V150.5H177.5ZM173.5 24H138.5V32H173.5V24ZM134.5 28V150.5H142.5V28H134.5ZM138.5 146.5H68.5V154.5H138.5V146.5ZM72.5 150.5V28H64.5V150.5H72.5ZM68.5 24H33.5V32H68.5V24ZM29.5 28V185.5H37.5V28H29.5ZM33.5 189.5H138.5V181.5H33.5V189.5ZM292.377 28V24H288.377V28H292.377ZM292.377 63H288.377V67H292.377V63ZM397.377 63V67H401.377V63H397.377ZM397.377 28H401.377V24H397.377V28ZM257.377 63V59H253.377V63H257.377ZM257.377 238H253.377V242H257.377V238ZM292.377 238V242H296.377V238H292.377ZM292.377 63H296.377V59H292.377V63ZM397.377 63V59H393.377V63H397.377ZM397.377 238H393.377V242H397.377V238ZM432.377 238V242H436.377V238H432.377ZM432.377 63H436.377V59H432.377V63ZM292.377 238V234H288.377V238H292.377ZM292.377 273H288.377V277H292.377V273ZM397.377 273V277H401.377V273H397.377ZM397.377 238H401.377V234H397.377V238ZM288.377 28V63H296.377V28H288.377ZM292.377 67H397.377V59H292.377V67ZM401.377 63V28H393.377V63H401.377ZM397.377 24H292.377V32H397.377V24ZM253.377 63V238H261.377V63H253.377ZM257.377 242H292.377V234H257.377V242ZM296.377 238V63H288.377V238H296.377ZM292.377 59H257.377V67H292.377V59ZM393.377 63V238H401.377V63H393.377ZM397.377 242H432.377V234H397.377V242ZM436.377 238V63H428.377V238H436.377ZM432.377 59H397.377V67H432.377V59ZM288.377 238V273H296.377V238H288.377ZM292.377 277H397.377V269H292.377V277ZM401.377 273V238H393.377V273H401.377ZM397.377 234H292.377V242H397.377V234ZM586.254 185.5H590.254V181.5H586.254V185.5ZM586.254 273H582.254V277H586.254V273ZM621.254 273V277H625.254V273H621.254ZM621.254 185.5V181.5H617.254V185.5H621.254ZM656.254 185.5V189.5H660.254V185.5H656.254ZM656.254 150.5H660.254V146.5H656.254V150.5ZM621.254 150.5H617.254V154.5H621.254V150.5ZM621.254 28H625.254V24H621.254V28ZM586.254 28V24H582.254V28H586.254ZM586.254 150.5V154.5H590.254V150.5H586.254ZM516.254 150.5H512.254V154.5H516.254V150.5ZM516.254 28H520.254V24H516.254V28ZM481.254 28V24H477.254V28H481.254ZM481.254 185.5H477.254V189.5H481.254V185.5ZM582.254 185.5V273H590.254V185.5H582.254ZM586.254 277H621.254V269H586.254V277ZM625.254 273V185.5H617.254V273H625.254ZM621.254 189.5H656.254V181.5H621.254V189.5ZM660.254 185.5V150.5H652.254V185.5H660.254ZM656.254 146.5H621.254V154.5H656.254V146.5ZM625.254 150.5V28H617.254V150.5H625.254ZM621.254 24H586.254V32H621.254V24ZM582.254 28V150.5H590.254V28H582.254ZM586.254 146.5H516.254V154.5H586.254V146.5ZM520.254 150.5V28H512.254V150.5H520.254ZM516.254 24H481.254V32H516.254V24ZM477.254 28V185.5H485.254V28H477.254ZM481.254 189.5H586.254V181.5H481.254V189.5Z" fill="url(#paint0_linear_2422_3)"/>
</g>
<defs>
<linearGradient id="paint0_linear_2422_3" x1="9.07278" y1="107.5" x2="696.956" y2="107.5" gradientUnits="userSpaceOnUse">
<stop offset="0.0462938" stop-color="#00FFCB"/>
<stop offset="0.573187" stop-color="#A597FD"/>
<stop offset="1" stop-color="#FF598E"/>
</linearGradient>
<clipPath id="clip0_2422_3">
<rect width="688" height="292" fill="white"/>
</clipPath>
</defs>
</svg>
