<svg width="188" height="60" viewBox="0 0 188 60" fill="none" xmlns="http://www.w3.org/2000/svg">
<g filter="url(#filter0_b_1_669)">
<path d="M7.63754 0H184C186.21 0 188 1.78998 188 3.99912C188 4.78239 188 5.74912 188 7.2V52.8C188 54.4788 188 55.3032 188 56.0005C188 58.2097 186.21 60 184 60H4.0004C1.79127 60 0.000422944 58.21 0.000431604 56.0009C0.000434675 55.2176 0.000438242 54.2509 0.000438242 52.8L0.000452784 3.99998C0.000453442 1.79086 1.79131 -7.13624e-06 4.00043 -6.6678e-06C4.79489 -6.49934e-06 5.55827 0 7.63754 0Z" fill="white" fill-opacity="0.1"/>
</g>
<path fill-rule="evenodd" clip-rule="evenodd" d="M49.8524 13C50.0399 14.7802 49.3522 16.5286 48.3415 17.8107C47.289 19.0717 45.601 20.0465 43.9546 19.9194C43.7462 18.2134 44.5798 16.4014 45.5072 15.2888C46.5596 14.0278 48.3936 13.0636 49.8524 13ZM55.2205 23.2422C54.9947 23.3818 52.01 25.2268 52.0408 28.9587C52.0821 33.4535 55.8797 34.9715 55.9981 35.0189L56.0004 35.0198C55.9796 35.1257 55.3961 37.192 53.9477 39.2795C52.7285 41.1232 51.4677 42.9246 49.4462 42.9564C48.4887 42.9771 47.8424 42.6966 47.1691 42.4044C46.4647 42.0987 45.7307 41.7802 44.5799 41.7802C43.3693 41.7802 42.6037 42.1083 41.8658 42.4245C41.2255 42.6988 40.606 42.9643 39.7346 42.9988C37.8068 43.0729 36.348 41.0279 35.0872 39.2053C32.5759 35.4754 30.6274 28.6938 33.2428 24.0844C34.5037 21.8168 36.8273 20.3652 39.2969 20.3228C40.3812 20.3048 41.4256 20.7308 42.3413 21.1043C43.0448 21.3913 43.6724 21.6473 44.184 21.6473C44.6329 21.6473 45.2405 21.4014 45.9487 21.1148C47.065 20.6631 48.4314 20.1101 49.8213 20.2592C50.7695 20.291 53.4788 20.6513 55.2293 23.2367C55.2271 23.2381 55.2242 23.2399 55.2205 23.2422Z" fill="white"/>
<path d="M78.6711 42.7405H80.8605L76.0474 29.2248H73.8117L68.9986 42.7405H71.1511L72.3706 39.0876H77.4516L78.6711 42.7405ZM74.8834 31.4727H74.9388L76.925 37.4017H72.8972L74.8834 31.4727Z" fill="white"/>
<path d="M87.6248 32.7278C86.2206 32.7278 85.1028 33.449 84.53 34.5824H84.493V32.8871H82.5622V46H84.5577V41.1201H84.6039C85.1582 42.216 86.2668 42.9091 87.6618 42.9091C90.1007 42.9091 91.7174 40.9328 91.7174 37.8138C91.7174 34.6948 90.0914 32.7278 87.6248 32.7278ZM87.0982 41.195C85.5647 41.195 84.5485 39.865 84.5485 37.8138C84.5485 35.7813 85.5739 34.4325 87.0982 34.4325C88.678 34.4325 89.6665 35.7532 89.6665 37.8138C89.6665 39.8837 88.678 41.195 87.0982 41.195Z" fill="white"/>
<path d="M98.7957 32.7278C97.3915 32.7278 96.2737 33.449 95.7009 34.5824H95.664V32.8871H93.7332V46H95.7286V41.1201H95.7748C96.3291 42.216 97.4377 42.9091 98.8327 42.9091C101.272 42.9091 102.888 40.9328 102.888 37.8138C102.888 34.6948 101.262 32.7278 98.7957 32.7278ZM98.2692 41.195C96.7356 41.195 95.7194 39.865 95.7194 37.8138C95.7194 35.7813 96.7449 34.4325 98.2692 34.4325C99.8489 34.4325 100.837 35.7532 100.837 37.8138C100.837 39.8837 99.8489 41.195 98.2692 41.195Z" fill="white"/>
<path d="M108.86 39.0314C108.989 41.4386 110.994 42.9653 114.006 42.9653C117.11 42.9653 119.087 41.3636 119.087 38.816C119.087 36.849 117.941 35.7157 115.151 35.1163L113.692 34.8072C111.964 34.4325 111.28 33.7769 111.28 32.7934C111.28 31.557 112.426 30.789 113.987 30.789C115.604 30.789 116.703 31.6226 116.833 32.9807H118.837C118.773 30.6204 116.842 29 114.015 29C111.179 29 109.174 30.5923 109.174 32.9058C109.174 34.854 110.384 36.1091 113.054 36.6804L114.505 36.9895C116.288 37.3829 116.99 38.0386 116.99 39.0876C116.99 40.2959 115.779 41.1763 114.089 41.1763C112.315 41.1763 111.059 40.3708 110.874 39.0314H108.86Z" fill="white"/>
<path d="M121.768 30.5548V32.8871H120.354V34.4887H121.768V40.146C121.768 42.0474 122.534 42.8061 124.502 42.8061C124.946 42.8061 125.389 42.7686 125.611 42.7124V41.1107C125.481 41.1388 125.158 41.1576 124.955 41.1576C124.142 41.1576 123.772 40.7736 123.772 39.9212V34.4887H125.62V32.8871H123.772V30.5548H121.768Z" fill="white"/>
<path d="M131.673 42.9278C134.454 42.9278 136.283 40.989 136.283 37.8138C136.283 34.6479 134.444 32.7091 131.673 32.7091C128.901 32.7091 127.063 34.6479 127.063 37.8138C127.063 40.989 128.892 42.9278 131.673 42.9278ZM131.673 41.2606C130.112 41.2606 129.095 40.0055 129.095 37.8138C129.095 35.6314 130.112 34.3763 131.673 34.3763C133.234 34.3763 134.25 35.6314 134.25 37.8138C134.25 40.0055 133.243 41.2606 131.673 41.2606Z" fill="white"/>
<path d="M138.299 42.7405H140.294V36.8397C140.294 35.4441 141.089 34.573 142.373 34.573C142.761 34.573 143.112 34.6198 143.269 34.6854V32.8028C143.121 32.7747 142.872 32.7278 142.585 32.7278C141.44 32.7278 140.571 33.4116 140.248 34.5636H140.202V32.8871H138.299V42.7405Z" fill="white"/>
<path d="M150.994 39.8463C150.726 40.708 149.885 41.2887 148.749 41.2887C147.151 41.2887 146.135 40.1554 146.135 38.4413V38.3196H152.999V37.6264C152.999 34.6386 151.317 32.7091 148.62 32.7091C145.876 32.7091 144.121 34.7697 144.121 37.8606C144.121 40.9702 145.848 42.9278 148.703 42.9278C150.929 42.9278 152.611 41.6446 152.888 39.8463H150.994ZM148.62 34.3388C150.015 34.3388 150.957 35.3972 151.003 36.9052H146.144C146.245 35.416 147.225 34.3388 148.62 34.3388Z" fill="white"/>
<path d="M75.1004 22.8792H76.4816L73.4453 14.1631H72.0349L68.9986 22.8792H70.3565L71.1258 20.5235H74.3311L75.1004 22.8792ZM72.711 15.6128H72.7459L73.9989 19.4362H71.458L72.711 15.6128Z" fill="white"/>
<path d="M82.2874 16.5248H80.9703L79.4317 21.6047H79.4084L77.8698 16.5248H76.5294L78.7382 22.8792H80.0903L82.2874 16.5248Z" fill="white"/>
<path d="M84.9752 22.9879C85.7795 22.9879 86.5546 22.5409 86.9101 21.8342H86.9392V22.8792H88.1456V18.5C88.1456 17.2255 87.1956 16.4101 85.7095 16.4101C84.1943 16.4101 83.2502 17.2557 83.1802 18.4034H84.3691C84.4798 17.8356 84.9344 17.4732 85.6629 17.4732C86.4322 17.4732 86.8926 17.896 86.8926 18.6027V19.0919L85.2142 19.1946C83.7572 19.2792 82.9354 19.9617 82.9354 21.0732C82.9354 22.2148 83.7747 22.9879 84.9752 22.9879ZM85.3249 21.955C84.6489 21.955 84.2059 21.5926 84.2059 21.0369C84.2059 20.4933 84.6314 20.149 85.3832 20.0946L86.8926 19.998V20.4993C86.8926 21.3268 86.2049 21.955 85.3249 21.955Z" fill="white"/>
<path d="M90.3381 15.498C90.7402 15.498 91.0607 15.1597 91.0607 14.749C91.0607 14.3322 90.7402 14 90.3381 14C89.9359 14 89.6096 14.3322 89.6096 14.749C89.6096 15.1597 89.9359 15.498 90.3381 15.498ZM89.7086 22.8792H90.9675V16.5248H89.7086V22.8792Z" fill="white"/>
<path d="M92.6004 22.8792H93.8593V14.1631H92.6004V22.8792Z" fill="white"/>
<path d="M97.2465 22.9879C98.0507 22.9879 98.8258 22.5409 99.1813 21.8342H99.2105V22.8792H100.417V18.5C100.417 17.2255 99.4669 16.4101 97.9808 16.4101C96.4655 16.4101 95.5214 17.2557 95.4515 18.4034H96.6404C96.7511 17.8356 97.2057 17.4732 97.9341 17.4732C98.7034 17.4732 99.1638 17.896 99.1638 18.6027V19.0919L97.4854 19.1946C96.0284 19.2792 95.2067 19.9617 95.2067 21.0732C95.2067 22.2148 96.0459 22.9879 97.2465 22.9879ZM97.5961 21.955C96.9201 21.955 96.4772 21.5926 96.4772 21.0369C96.4772 20.4933 96.9026 20.149 97.6544 20.0946L99.1638 19.998V20.4993C99.1638 21.3268 98.4761 21.955 97.5961 21.955Z" fill="white"/>
<path d="M105.203 22.9879C106.759 22.9879 107.761 21.7195 107.761 19.702C107.761 17.6906 106.753 16.4221 105.209 16.4221C104.34 16.4221 103.641 16.8691 103.274 17.606H103.245V14.1631H101.986V22.8792H103.21V21.798H103.233C103.612 22.5349 104.305 22.9879 105.203 22.9879ZM104.865 17.5215C105.855 17.5215 106.467 18.3671 106.467 19.702C106.467 21.049 105.855 21.8826 104.865 21.8826C103.909 21.8826 103.239 21.0248 103.239 19.702C103.239 18.3913 103.909 17.5215 104.865 17.5215Z" fill="white"/>
<path d="M109.091 22.8792H110.35V14.1631H109.091V22.8792Z" fill="white"/>
<path d="M116.004 21.0128C115.835 21.5685 115.305 21.943 114.588 21.943C113.58 21.943 112.939 21.2121 112.939 20.1067V20.0282H117.269V19.5812C117.269 17.6544 116.208 16.4101 114.506 16.4101C112.775 16.4101 111.668 17.7389 111.668 19.7322C111.668 21.7376 112.758 23 114.559 23C115.963 23 117.024 22.1725 117.199 21.0128H116.004ZM114.506 17.4611C115.386 17.4611 115.981 18.1436 116.01 19.1161H112.944C113.009 18.1557 113.626 17.4611 114.506 17.4611Z" fill="white"/>
<path d="M123.903 23C125.657 23 126.811 21.7497 126.811 19.702C126.811 17.6604 125.652 16.4101 123.903 16.4101C122.155 16.4101 120.995 17.6604 120.995 19.702C120.995 21.7497 122.149 23 123.903 23ZM123.903 21.9248C122.918 21.9248 122.277 21.1154 122.277 19.702C122.277 18.2946 122.918 17.4852 123.903 17.4852C124.888 17.4852 125.529 18.2946 125.529 19.702C125.529 21.1154 124.894 21.9248 123.903 21.9248Z" fill="white"/>
<path d="M128.083 22.8792H129.342V19.1765C129.342 18.1919 129.913 17.5396 130.799 17.5396C131.673 17.5396 132.104 18.0651 132.104 19.0195V22.8792H133.369V18.7658C133.369 17.3101 132.594 16.4161 131.242 16.4161C130.298 16.4161 129.645 16.8631 129.313 17.5879H129.284V16.5248H128.083V22.8792Z" fill="white"/>
<path d="M137.975 15.0208V16.5248H137.084V17.5577H137.975V21.206C137.975 22.4322 138.459 22.9215 139.7 22.9215C139.98 22.9215 140.26 22.8973 140.4 22.8611V21.8282C140.318 21.8463 140.114 21.8584 139.986 21.8584C139.473 21.8584 139.24 21.6107 139.24 21.0611V17.5577H140.406V16.5248H139.24V15.0208H137.975Z" fill="white"/>
<path d="M141.788 22.8792H143.047V19.2067C143.047 18.204 143.618 17.5396 144.55 17.5396C145.436 17.5396 145.891 18.1013 145.891 19.0376V22.8792H147.155V18.7839C147.155 17.3463 146.351 16.4161 145.005 16.4161C144.073 16.4161 143.402 16.845 143.064 17.5879H143.035V14.1631H141.788V22.8792Z" fill="white"/>
<path d="M152.734 21.0128C152.565 21.5685 152.035 21.943 151.318 21.943C150.31 21.943 149.668 21.2121 149.668 20.1067V20.0282H153.999V19.5812C153.999 17.6544 152.938 16.4101 151.236 16.4101C149.505 16.4101 148.398 17.7389 148.398 19.7322C148.398 21.7376 149.488 23 151.289 23C152.693 23 153.754 22.1725 153.929 21.0128H152.734ZM151.236 17.4611C152.116 17.4611 152.711 18.1436 152.74 19.1161H149.674C149.738 18.1557 150.356 17.4611 151.236 17.4611Z" fill="white"/>
<defs>
<filter id="filter0_b_1_669" x="-65.9996" y="-66" width="320" height="192" filterUnits="userSpaceOnUse" color-interpolation-filters="sRGB">
<feFlood flood-opacity="0" result="BackgroundImageFix"/>
<feGaussianBlur in="BackgroundImageFix" stdDeviation="33"/>
<feComposite in2="SourceAlpha" operator="in" result="effect1_backgroundBlur_1_669"/>
<feBlend mode="normal" in="SourceGraphic" in2="effect1_backgroundBlur_1_669" result="shape"/>
</filter>
</defs>
</svg>
