<svg width="188" height="60" viewBox="0 0 188 60" fill="none" xmlns="http://www.w3.org/2000/svg">
<g filter="url(#filter0_b_12_11426)">
<path d="M7.63711 0H184C186.209 0 188 1.78998 188 3.99912C188 4.78239 188 5.74912 188 7.2V52.8C188 54.4788 188 55.3032 188 56.0005C188 58.2097 186.209 60 184 60H3.99997C1.79085 60 -4.30189e-06 58.21 4.35839e-06 56.0009C7.42903e-06 55.2176 1.09957e-05 54.2509 1.09957e-05 52.8L2.5538e-05 3.99998C2.61963e-05 1.79086 1.79089 -7.13624e-06 4.00001 -6.6678e-06C4.79446 -6.49934e-06 5.55785 0 7.63711 0Z" fill="white"/>
</g>
<path d="M72.0424 36.9114V35.57H66.5178V37.2217H69.9869V37.4498C69.959 39.4482 68.4523 40.817 66.276 40.817C63.7183 40.817 62.1279 38.8733 62.1279 35.7252C62.1279 32.6318 63.6718 30.7885 66.2388 30.7885C67.9873 30.7885 69.2987 31.7284 69.8009 33.3618H71.9401C71.475 30.7338 69.215 29 66.2295 29C62.4069 29 59.998 31.5915 59.998 35.7434C59.998 39.9683 62.4162 42.6055 66.2574 42.6055C69.8939 42.6055 72.0424 40.4793 72.0424 36.9114Z" fill="#01A2CE"/>
<path d="M78.5175 42.569C81.3169 42.569 83.1585 40.6801 83.1585 37.5867C83.1585 34.5024 81.3076 32.6135 78.5175 32.6135C75.7273 32.6135 73.8764 34.5024 73.8764 37.5867C73.8764 40.6801 75.718 42.569 78.5175 42.569ZM78.5175 40.9447C76.9457 40.9447 75.9226 39.722 75.9226 37.5867C75.9226 35.4605 76.9457 34.2378 78.5175 34.2378C80.0893 34.2378 81.1123 35.4605 81.1123 37.5867C81.1123 39.722 80.0986 40.9447 78.5175 40.9447Z" fill="#01A2CE"/>
<path d="M89.3918 42.569C92.1912 42.569 94.0328 40.6801 94.0328 37.5867C94.0328 34.5024 92.1819 32.6135 89.3918 32.6135C86.6016 32.6135 84.7507 34.5024 84.7507 37.5867C84.7507 40.6801 86.5923 42.569 89.3918 42.569ZM89.3918 40.9447C87.82 40.9447 86.7969 39.722 86.7969 37.5867C86.7969 35.4605 87.82 34.2378 89.3918 34.2378C90.9636 34.2378 91.9866 35.4605 91.9866 37.5867C91.9866 39.722 90.9729 40.9447 89.3918 40.9447Z" fill="#01A2CE"/>
<path d="M100.247 46C103.038 46 104.842 44.5035 104.842 42.2131V32.7869H102.889V34.4294H102.852C102.256 33.3162 101.122 32.6318 99.7359 32.6318C97.2247 32.6318 95.625 34.5298 95.625 37.5502C95.625 40.5432 97.234 42.423 99.6894 42.423C101.085 42.423 102.238 41.7386 102.787 40.6983H102.824V42.277C102.824 43.591 101.894 44.467 100.322 44.467C99.1779 44.467 98.285 43.9377 97.9967 43.1347H95.9785C96.2296 44.7955 97.9409 46 100.247 46ZM100.229 40.7896C98.6849 40.7896 97.6805 39.5668 97.6805 37.5593C97.6805 35.5609 98.6849 34.2925 100.229 34.2925C101.801 34.2925 102.833 35.5883 102.833 37.5593C102.833 39.5395 101.801 40.7896 100.229 40.7896Z" fill="#01A2CE"/>
<path d="M107.383 42.3865H109.392V29.219H107.383V42.3865Z" fill="#01A2CE"/>
<path d="M118.415 39.5668C118.146 40.4063 117.299 40.9721 116.155 40.9721C114.546 40.9721 113.523 39.868 113.523 38.1981V38.0794H120.434V37.4042C120.434 34.4933 118.741 32.6135 116.025 32.6135C113.263 32.6135 111.496 34.621 111.496 37.6323C111.496 40.6618 113.235 42.569 116.109 42.569C118.35 42.569 120.043 41.3188 120.322 39.5668H118.415ZM116.025 34.2013C117.429 34.2013 118.378 35.2324 118.425 36.7016H113.532C113.635 35.2507 114.621 34.2013 116.025 34.2013Z" fill="#01A2CE"/>
<path d="M127.059 29.219V42.3865H129.143V37.8878H132.026C134.658 37.8878 136.509 36.1176 136.509 33.5443C136.509 30.9801 134.695 29.219 132.091 29.219H127.059ZM129.143 30.9436H131.542C133.347 30.9436 134.379 31.8926 134.379 33.5534C134.379 35.2142 133.347 36.1723 131.533 36.1723H129.143V30.9436Z" fill="#01A2CE"/>
<path d="M138.64 42.3865H140.649V29.219H138.64V42.3865Z" fill="#01A2CE"/>
<path d="M146.055 42.5507C147.338 42.5507 148.575 41.8755 149.143 40.8078H149.189V42.3865H151.114V35.7708C151.114 33.8454 149.598 32.6135 147.227 32.6135C144.809 32.6135 143.302 33.891 143.19 35.6248H145.088C145.264 34.767 145.99 34.2195 147.152 34.2195C148.38 34.2195 149.115 34.8583 149.115 35.9259V36.6651L146.436 36.8202C144.111 36.9479 142.8 37.9791 142.8 39.6581C142.8 41.3827 144.139 42.5507 146.055 42.5507ZM146.613 40.9903C145.534 40.9903 144.827 40.4428 144.827 39.6033C144.827 38.7821 145.506 38.2619 146.706 38.1798L149.115 38.0338V38.7912C149.115 40.0413 148.017 40.9903 146.613 40.9903Z" fill="#01A2CE"/>
<path d="M154.502 45.9635C156.529 45.9635 157.497 45.2152 158.334 42.8884L161.998 32.7869H159.878L157.404 40.598H157.366L154.892 32.7869H152.716L156.25 42.3956C156.25 42.4047 156.074 42.9705 156.074 42.9887C155.767 43.9742 155.264 44.3575 154.334 44.3575C154.167 44.3575 153.832 44.3575 153.683 44.321V45.9179C153.832 45.9452 154.334 45.9635 154.502 45.9635Z" fill="#01A2CE"/>
<path d="M65.0999 22.8792H66.4811L63.4447 14.1631H62.0344L58.998 22.8792H60.3559L61.1252 20.5235H64.3306L65.0999 22.8792ZM62.7104 15.6128H62.7454L63.9984 19.4362H61.4574L62.7104 15.6128Z" fill="#01A2CE"/>
<path d="M72.2868 16.5248H70.9697L69.4312 21.6047H69.4079L67.8693 16.5248H66.5289L68.7376 22.8792H70.0897L72.2868 16.5248Z" fill="#01A2CE"/>
<path d="M74.9747 22.9879C75.7789 22.9879 76.554 22.5409 76.9095 21.8342H76.9387V22.8792H78.145V18.5C78.145 17.2255 77.1951 16.4101 75.709 16.4101C74.1937 16.4101 73.2496 17.2557 73.1797 18.4034H74.3686C74.4793 17.8356 74.9339 17.4732 75.6624 17.4732C76.4316 17.4732 76.892 17.896 76.892 18.6027V19.0919L75.2136 19.1946C73.7566 19.2792 72.9349 19.9617 72.9349 21.0732C72.9349 22.2148 73.7741 22.9879 74.9747 22.9879ZM75.3243 21.955C74.6483 21.955 74.2054 21.5926 74.2054 21.0369C74.2054 20.4933 74.6308 20.149 75.3826 20.0946L76.892 19.998V20.4993C76.892 21.3268 76.2044 21.955 75.3243 21.955Z" fill="#01A2CE"/>
<path d="M80.3375 15.498C80.7396 15.498 81.0602 15.1597 81.0602 14.749C81.0602 14.3322 80.7396 14 80.3375 14C79.9354 14 79.609 14.3322 79.609 14.749C79.609 15.1597 79.9354 15.498 80.3375 15.498ZM79.7081 22.8792H80.9669V16.5248H79.7081V22.8792Z" fill="#01A2CE"/>
<path d="M82.5999 22.8792H83.8587V14.1631H82.5999V22.8792Z" fill="#01A2CE"/>
<path d="M87.2459 22.9879C88.0502 22.9879 88.8253 22.5409 89.1808 21.8342H89.2099V22.8792H90.4163V18.5C90.4163 17.2255 89.4663 16.4101 87.9802 16.4101C86.465 16.4101 85.5208 17.2557 85.4509 18.4034H86.6398C86.7505 17.8356 87.2051 17.4732 87.9336 17.4732C88.7029 17.4732 89.1633 17.896 89.1633 18.6027V19.0919L87.4848 19.1946C86.0279 19.2792 85.2061 19.9617 85.2061 21.0732C85.2061 22.2148 86.0454 22.9879 87.2459 22.9879ZM87.5956 21.955C86.9195 21.955 86.4766 21.5926 86.4766 21.0369C86.4766 20.4933 86.9021 20.149 87.6539 20.0946L89.1633 19.998V20.4993C89.1633 21.3268 88.4756 21.955 87.5956 21.955Z" fill="#01A2CE"/>
<path d="M95.2022 22.9879C96.7582 22.9879 97.7606 21.7195 97.7606 19.702C97.7606 17.6906 96.7524 16.4221 95.208 16.4221C94.3396 16.4221 93.6403 16.8691 93.2731 17.606H93.244V14.1631H91.9852V22.8792H93.209V21.798H93.2323C93.6111 22.5349 94.3047 22.9879 95.2022 22.9879ZM94.8641 17.5215C95.8549 17.5215 96.4668 18.3671 96.4668 19.702C96.4668 21.049 95.8549 21.8826 94.8641 21.8826C93.9084 21.8826 93.2382 21.0248 93.2382 19.702C93.2382 18.3913 93.9084 17.5215 94.8641 17.5215Z" fill="#01A2CE"/>
<path d="M99.0905 22.8792H100.349V14.1631H99.0905V22.8792Z" fill="#01A2CE"/>
<path d="M106.004 21.0128C105.835 21.5685 105.304 21.943 104.587 21.943C103.579 21.943 102.938 21.2121 102.938 20.1067V20.0282H107.268V19.5812C107.268 17.6544 106.208 16.4101 104.506 16.4101C102.775 16.4101 101.668 17.7389 101.668 19.7322C101.668 21.7376 102.757 23 104.558 23C105.963 23 107.023 22.1725 107.198 21.0128H106.004ZM104.506 17.4611C105.386 17.4611 105.98 18.1436 106.009 19.1161H102.944C103.008 18.1557 103.626 17.4611 104.506 17.4611Z" fill="#01A2CE"/>
<path d="M113.903 23C115.657 23 116.811 21.7497 116.811 19.702C116.811 17.6604 115.651 16.4101 113.903 16.4101C112.154 16.4101 110.995 17.6604 110.995 19.702C110.995 21.7497 112.149 23 113.903 23ZM113.903 21.9248C112.918 21.9248 112.277 21.1154 112.277 19.702C112.277 18.2946 112.918 17.4852 113.903 17.4852C114.888 17.4852 115.529 18.2946 115.529 19.702C115.529 21.1154 114.893 21.9248 113.903 21.9248Z" fill="#01A2CE"/>
<path d="M118.083 22.8792H119.341V19.1765C119.341 18.1919 119.912 17.5396 120.798 17.5396C121.673 17.5396 122.104 18.0651 122.104 19.0195V22.8792H123.368V18.7658C123.368 17.3101 122.593 16.4161 121.241 16.4161C120.297 16.4161 119.644 16.8631 119.312 17.5879H119.283V16.5248H118.083V22.8792Z" fill="#01A2CE"/>
<path d="M127.975 15.0208V16.5248H127.083V17.5577H127.975V21.206C127.975 22.4322 128.459 22.9215 129.7 22.9215C129.98 22.9215 130.259 22.8973 130.399 22.8611V21.8282C130.318 21.8463 130.114 21.8584 129.985 21.8584C129.473 21.8584 129.239 21.6107 129.239 21.0611V17.5577H130.405V16.5248H129.239V15.0208H127.975Z" fill="#01A2CE"/>
<path d="M131.787 22.8792H133.046V19.2067C133.046 18.204 133.617 17.5396 134.55 17.5396C135.436 17.5396 135.89 18.1013 135.89 19.0376V22.8792H137.155V18.7839C137.155 17.3463 136.351 16.4161 135.004 16.4161C134.072 16.4161 133.402 16.845 133.064 17.5879H133.035V14.1631H131.787V22.8792Z" fill="#01A2CE"/>
<path d="M142.733 21.0128C142.564 21.5685 142.034 21.943 141.317 21.943C140.309 21.943 139.668 21.2121 139.668 20.1067V20.0282H143.998V19.5812C143.998 17.6544 142.937 16.4101 141.236 16.4101C139.505 16.4101 138.397 17.7389 138.397 19.7322C138.397 21.7376 139.487 23 141.288 23C142.693 23 143.753 22.1725 143.928 21.0128H142.733ZM141.236 17.4611C142.116 17.4611 142.71 18.1436 142.739 19.1161H139.674C139.738 18.1557 140.356 17.4611 141.236 17.4611Z" fill="#01A2CE"/>
<path fill-rule="evenodd" clip-rule="evenodd" d="M39.4093 31.4034L42.7342 34.7268L37.4995 37.7589L27.1749 43.74L39.4093 31.4034ZM39.4053 29.5655L27.0709 17.2362L37.4995 23.2776L42.6706 26.273L39.4053 29.5655ZM40.3226 30.4824L43.8307 26.945L50 30.5182L43.8958 34.054L40.3226 30.4824ZM38.4921 30.4864L25 44.0913V17L38.4921 30.4864ZM25 44.9658V45L25.0217 44.9874L25 44.9658Z" fill="#01A2CE"/>
<defs>
<filter id="filter0_b_12_11426" x="-66" y="-66" width="320" height="192" filterUnits="userSpaceOnUse" color-interpolation-filters="sRGB">
<feFlood flood-opacity="0" result="BackgroundImageFix"/>
<feGaussianBlur in="BackgroundImageFix" stdDeviation="33"/>
<feComposite in2="SourceAlpha" operator="in" result="effect1_backgroundBlur_12_11426"/>
<feBlend mode="normal" in="SourceGraphic" in2="effect1_backgroundBlur_12_11426" result="shape"/>
</filter>
</defs>
</svg>
