<svg width="188" height="60" viewBox="0 0 188 60" fill="none" xmlns="http://www.w3.org/2000/svg">
<g filter="url(#filter0_b_4_163)">
<path d="M7.63754 0H184C186.21 0 188 1.78998 188 3.99912C188 4.78239 188 5.74912 188 7.2V52.8C188 54.4788 188 55.3032 188 56.0005C188 58.2097 186.21 60 184 60H4.0004C1.79127 60 0.000422944 58.21 0.000431604 56.0009C0.000434675 55.2176 0.000438242 54.2509 0.000438242 52.8L0.000452784 3.99998C0.000453442 1.79086 1.79131 -7.13624e-06 4.00043 -6.6678e-06C4.79489 -6.49934e-06 5.55827 0 7.63754 0Z" fill="white" fill-opacity="0.1"/>
</g>
<path d="M72.0429 36.9114V35.57H66.5183V37.2217H69.9875V37.4498C69.9596 39.4482 68.4529 40.817 66.2765 40.817C63.7188 40.817 62.1284 38.8733 62.1284 35.7252C62.1284 32.6318 63.6723 30.7885 66.2393 30.7885C67.9878 30.7885 69.2992 31.7284 69.8015 33.3618H71.9406C71.4756 30.7338 69.2155 29 66.23 29C62.4075 29 59.9986 31.5915 59.9986 35.7434C59.9986 39.9683 62.4168 42.6055 66.2579 42.6055C69.8945 42.6055 72.0429 40.4793 72.0429 36.9114Z" fill="white"/>
<path d="M78.518 42.569C81.3175 42.569 83.159 40.6801 83.159 37.5867C83.159 34.5024 81.3082 32.6135 78.518 32.6135C75.7278 32.6135 73.877 34.5024 73.877 37.5867C73.877 40.6801 75.7185 42.569 78.518 42.569ZM78.518 40.9447C76.9462 40.9447 75.9231 39.722 75.9231 37.5867C75.9231 35.4605 76.9462 34.2378 78.518 34.2378C80.0898 34.2378 81.1129 35.4605 81.1129 37.5867C81.1129 39.722 80.0991 40.9447 78.518 40.9447Z" fill="white"/>
<path d="M89.3923 42.569C92.1918 42.569 94.0333 40.6801 94.0333 37.5867C94.0333 34.5024 92.1825 32.6135 89.3923 32.6135C86.6021 32.6135 84.7513 34.5024 84.7513 37.5867C84.7513 40.6801 86.5928 42.569 89.3923 42.569ZM89.3923 40.9447C87.8205 40.9447 86.7974 39.722 86.7974 37.5867C86.7974 35.4605 87.8205 34.2378 89.3923 34.2378C90.9641 34.2378 91.9872 35.4605 91.9872 37.5867C91.9872 39.722 90.9734 40.9447 89.3923 40.9447Z" fill="white"/>
<path d="M100.248 46C103.038 46 104.843 44.5035 104.843 42.2131V32.7869H102.889V34.4294H102.852C102.257 33.3162 101.122 32.6318 99.7365 32.6318C97.2253 32.6318 95.6256 34.5298 95.6256 37.5502C95.6256 40.5432 97.2346 42.423 99.69 42.423C101.085 42.423 102.238 41.7386 102.787 40.6983H102.824V42.277C102.824 43.591 101.894 44.467 100.322 44.467C99.1784 44.467 98.2856 43.9377 97.9972 43.1347H95.979C96.2301 44.7955 97.9414 46 100.248 46ZM100.229 40.7896C98.6855 40.7896 97.681 39.5668 97.681 37.5593C97.681 35.5609 98.6855 34.2925 100.229 34.2925C101.801 34.2925 102.834 35.5883 102.834 37.5593C102.834 39.5395 101.801 40.7896 100.229 40.7896Z" fill="white"/>
<path d="M107.383 42.3865H109.392V29.219H107.383V42.3865Z" fill="white"/>
<path d="M118.416 39.5668C118.146 40.4063 117.3 40.9721 116.156 40.9721C114.547 40.9721 113.524 39.868 113.524 38.1981V38.0794H120.434V37.4042C120.434 34.4933 118.741 32.6135 116.026 32.6135C113.263 32.6135 111.496 34.621 111.496 37.6323C111.496 40.6618 113.235 42.569 116.109 42.569C118.351 42.569 120.043 41.3188 120.322 39.5668H118.416ZM116.026 34.2013C117.43 34.2013 118.379 35.2324 118.425 36.7016H113.533C113.635 35.2507 114.621 34.2013 116.026 34.2013Z" fill="white"/>
<path d="M127.06 29.219V42.3865H129.143V37.8878H132.026C134.658 37.8878 136.509 36.1176 136.509 33.5443C136.509 30.9801 134.696 29.219 132.091 29.219H127.06ZM129.143 30.9436H131.543C133.347 30.9436 134.379 31.8926 134.379 33.5534C134.379 35.2142 133.347 36.1723 131.533 36.1723H129.143V30.9436Z" fill="white"/>
<path d="M138.641 42.3865H140.65V29.219H138.641V42.3865Z" fill="white"/>
<path d="M146.055 42.5507C147.339 42.5507 148.576 41.8755 149.143 40.8078H149.19V42.3865H151.115V35.7708C151.115 33.8454 149.599 32.6135 147.227 32.6135C144.809 32.6135 143.302 33.891 143.191 35.6248H145.088C145.265 34.767 145.99 34.2195 147.153 34.2195C148.381 34.2195 149.115 34.8583 149.115 35.9259V36.6651L146.437 36.8202C144.112 36.9479 142.8 37.9791 142.8 39.6581C142.8 41.3827 144.14 42.5507 146.055 42.5507ZM146.614 40.9903C145.535 40.9903 144.828 40.4428 144.828 39.6033C144.828 38.7821 145.507 38.2619 146.707 38.1798L149.115 38.0338V38.7912C149.115 40.0413 148.018 40.9903 146.614 40.9903Z" fill="white"/>
<path d="M154.502 45.9635C156.53 45.9635 157.497 45.2152 158.334 42.8884L161.999 32.7869H159.878L157.404 40.598H157.367L154.893 32.7869H152.717L156.251 42.3956C156.251 42.4047 156.074 42.9705 156.074 42.9887C155.767 43.9742 155.265 44.3575 154.335 44.3575C154.167 44.3575 153.833 44.3575 153.684 44.321V45.9179C153.833 45.9452 154.335 45.9635 154.502 45.9635Z" fill="white"/>
<path d="M65.1004 22.8792H66.4816L63.4453 14.1631H62.0349L58.9986 22.8792H60.3565L61.1258 20.5235H64.3311L65.1004 22.8792ZM62.711 15.6128H62.7459L63.9989 19.4362H61.458L62.711 15.6128Z" fill="white"/>
<path d="M72.2874 16.5248H70.9703L69.4317 21.6047H69.4084L67.8698 16.5248H66.5294L68.7382 22.8792H70.0903L72.2874 16.5248Z" fill="white"/>
<path d="M74.9752 22.9879C75.7795 22.9879 76.5546 22.5409 76.9101 21.8342H76.9392V22.8792H78.1456V18.5C78.1456 17.2255 77.1956 16.4101 75.7095 16.4101C74.1943 16.4101 73.2502 17.2557 73.1802 18.4034H74.3691C74.4798 17.8356 74.9344 17.4732 75.6629 17.4732C76.4322 17.4732 76.8926 17.896 76.8926 18.6027V19.0919L75.2142 19.1946C73.7572 19.2792 72.9354 19.9617 72.9354 21.0732C72.9354 22.2148 73.7747 22.9879 74.9752 22.9879ZM75.3249 21.955C74.6489 21.955 74.2059 21.5926 74.2059 21.0369C74.2059 20.4933 74.6314 20.149 75.3832 20.0946L76.8926 19.998V20.4993C76.8926 21.3268 76.2049 21.955 75.3249 21.955Z" fill="white"/>
<path d="M80.3381 15.498C80.7402 15.498 81.0607 15.1597 81.0607 14.749C81.0607 14.3322 80.7402 14 80.3381 14C79.9359 14 79.6096 14.3322 79.6096 14.749C79.6096 15.1597 79.9359 15.498 80.3381 15.498ZM79.7086 22.8792H80.9675V16.5248H79.7086V22.8792Z" fill="white"/>
<path d="M82.6004 22.8792H83.8593V14.1631H82.6004V22.8792Z" fill="white"/>
<path d="M87.2465 22.9879C88.0507 22.9879 88.8258 22.5409 89.1813 21.8342H89.2105V22.8792H90.4168V18.5C90.4168 17.2255 89.4669 16.4101 87.9808 16.4101C86.4655 16.4101 85.5214 17.2557 85.4515 18.4034H86.6404C86.7511 17.8356 87.2057 17.4732 87.9341 17.4732C88.7034 17.4732 89.1638 17.896 89.1638 18.6027V19.0919L87.4854 19.1946C86.0284 19.2792 85.2067 19.9617 85.2067 21.0732C85.2067 22.2148 86.0459 22.9879 87.2465 22.9879ZM87.5961 21.955C86.9201 21.955 86.4772 21.5926 86.4772 21.0369C86.4772 20.4933 86.9026 20.149 87.6544 20.0946L89.1638 19.998V20.4993C89.1638 21.3268 88.4761 21.955 87.5961 21.955Z" fill="white"/>
<path d="M95.2027 22.9879C96.7588 22.9879 97.7612 21.7195 97.7612 19.702C97.7612 17.6906 96.7529 16.4221 95.2085 16.4221C94.3402 16.4221 93.6408 16.8691 93.2737 17.606H93.2445V14.1631H91.9857V22.8792H93.2096V21.798H93.2329C93.6117 22.5349 94.3052 22.9879 95.2027 22.9879ZM94.8647 17.5215C95.8554 17.5215 96.4674 18.3671 96.4674 19.702C96.4674 21.049 95.8554 21.8826 94.8647 21.8826C93.9089 21.8826 93.2387 21.0248 93.2387 19.702C93.2387 18.3913 93.9089 17.5215 94.8647 17.5215Z" fill="white"/>
<path d="M99.0911 22.8792H100.35V14.1631H99.0911V22.8792Z" fill="white"/>
<path d="M106.004 21.0128C105.835 21.5685 105.305 21.943 104.588 21.943C103.58 21.943 102.939 21.2121 102.939 20.1067V20.0282H107.269V19.5812C107.269 17.6544 106.208 16.4101 104.506 16.4101C102.775 16.4101 101.668 17.7389 101.668 19.7322C101.668 21.7376 102.758 23 104.559 23C105.963 23 107.024 22.1725 107.199 21.0128H106.004ZM104.506 17.4611C105.386 17.4611 105.981 18.1436 106.01 19.1161H102.944C103.009 18.1557 103.626 17.4611 104.506 17.4611Z" fill="white"/>
<path d="M113.903 23C115.657 23 116.811 21.7497 116.811 19.702C116.811 17.6604 115.652 16.4101 113.903 16.4101C112.155 16.4101 110.995 17.6604 110.995 19.702C110.995 21.7497 112.149 23 113.903 23ZM113.903 21.9248C112.918 21.9248 112.277 21.1154 112.277 19.702C112.277 18.2946 112.918 17.4852 113.903 17.4852C114.888 17.4852 115.529 18.2946 115.529 19.702C115.529 21.1154 114.894 21.9248 113.903 21.9248Z" fill="white"/>
<path d="M118.083 22.8792H119.342V19.1765C119.342 18.1919 119.913 17.5396 120.799 17.5396C121.673 17.5396 122.104 18.0651 122.104 19.0195V22.8792H123.369V18.7658C123.369 17.3101 122.594 16.4161 121.242 16.4161C120.298 16.4161 119.645 16.8631 119.313 17.5879H119.284V16.5248H118.083V22.8792Z" fill="white"/>
<path d="M127.975 15.0208V16.5248H127.084V17.5577H127.975V21.206C127.975 22.4322 128.459 22.9215 129.7 22.9215C129.98 22.9215 130.26 22.8973 130.4 22.8611V21.8282C130.318 21.8463 130.114 21.8584 129.986 21.8584C129.473 21.8584 129.24 21.6107 129.24 21.0611V17.5577H130.406V16.5248H129.24V15.0208H127.975Z" fill="white"/>
<path d="M131.788 22.8792H133.047V19.2067C133.047 18.204 133.618 17.5396 134.55 17.5396C135.436 17.5396 135.891 18.1013 135.891 19.0376V22.8792H137.155V18.7839C137.155 17.3463 136.351 16.4161 135.005 16.4161C134.073 16.4161 133.402 16.845 133.064 17.5879H133.035V14.1631H131.788V22.8792Z" fill="white"/>
<path d="M142.734 21.0128C142.565 21.5685 142.035 21.943 141.318 21.943C140.31 21.943 139.668 21.2121 139.668 20.1067V20.0282H143.999V19.5812C143.999 17.6544 142.938 16.4101 141.236 16.4101C139.505 16.4101 138.398 17.7389 138.398 19.7322C138.398 21.7376 139.488 23 141.289 23C142.693 23 143.754 22.1725 143.929 21.0128H142.734ZM141.236 17.4611C142.116 17.4611 142.711 18.1436 142.74 19.1161H139.674C139.738 18.1557 140.356 17.4611 141.236 17.4611Z" fill="white"/>
<path fill-rule="evenodd" clip-rule="evenodd" d="M39.4098 31.4034L42.7347 34.7268L37.4999 37.7589L27.1753 43.74L39.4098 31.4034ZM39.4058 29.5655L27.0714 17.2362L37.4999 23.2776L42.671 26.273L39.4058 29.5655ZM40.3231 30.4824L43.8312 26.945L50.0004 30.5182L43.8962 34.054L40.3231 30.4824ZM38.4925 30.4864L25.0004 44.0913V17L38.4925 30.4864ZM25.0004 44.9658V45L25.0221 44.9874L25.0004 44.9658Z" fill="white"/>
<defs>
<filter id="filter0_b_4_163" x="-65.9996" y="-66" width="320" height="192" filterUnits="userSpaceOnUse" color-interpolation-filters="sRGB">
<feFlood flood-opacity="0" result="BackgroundImageFix"/>
<feGaussianBlur in="BackgroundImageFix" stdDeviation="33"/>
<feComposite in2="SourceAlpha" operator="in" result="effect1_backgroundBlur_4_163"/>
<feBlend mode="normal" in="SourceGraphic" in2="effect1_backgroundBlur_4_163" result="shape"/>
</filter>
</defs>
</svg>
