<svg width="215" height="215" viewBox="0 0 215 215" fill="none" xmlns="http://www.w3.org/2000/svg">
<path d="M3.55603 7.11231C5.52261 7.11231 7.11231 5.52262 7.11231 3.55611C7.11231 1.58961 5.52261 0 3.55603 0C1.58946 0 -0.000244141 1.58961 -0.000244141 3.55611C-0.000244141 5.52262 1.59631 7.11231 3.55603 7.11231Z" fill="#4CD8F9"/>
<path d="M38.2072 7.11231C40.1738 7.11231 41.7635 5.52262 41.7635 3.55611C41.7635 1.58961 40.1738 0 38.2072 0C36.2406 0 34.6509 1.58961 34.6509 3.55611C34.6509 5.52262 36.2406 7.11231 38.2072 7.11231Z" fill="#4CD8F9"/>
<path d="M72.8525 7.11914C74.8166 7.11914 76.4088 5.52704 76.4088 3.56303C76.4088 1.59902 74.8166 0.00683594 72.8525 0.00683594C70.8884 0.00683594 69.2962 1.59902 69.2962 3.56303C69.2962 5.52704 70.8884 7.11914 72.8525 7.11914Z" fill="#4CD8F9"/>
<path d="M107.503 7.11914C109.468 7.11914 111.06 5.52704 111.06 3.56303C111.06 1.59902 109.468 0.00683594 107.503 0.00683594C105.539 0.00683594 103.947 1.59902 103.947 3.56303C103.947 5.52704 105.539 7.11914 107.503 7.11914Z" fill="#4CD8F9"/>
<path d="M142.149 7.11231C144.116 7.11231 145.705 5.52262 145.705 3.55611C145.705 1.58961 144.116 0 142.149 0C140.182 0 138.593 1.58961 138.593 3.55611C138.6 5.52262 140.189 7.11231 142.149 7.11231Z" fill="#4CD8F9"/>
<path d="M176.8 7.11231C178.767 7.11231 180.356 5.52262 180.356 3.55611C180.356 1.58961 178.767 0 176.8 0C174.834 0 173.244 1.58961 173.244 3.55611C173.244 5.52262 174.834 7.11231 176.8 7.11231Z" fill="#4CD8F9"/>
<path d="M211.443 7.11231C213.41 7.11231 215 5.52262 215 3.55611C215 1.58961 213.41 0 211.443 0C209.477 0 207.887 1.58961 207.887 3.55611C207.894 5.52262 209.484 7.11231 211.443 7.11231Z" fill="#4CD8F9"/>
<path d="M3.55605 41.7627C5.52262 41.7627 7.11233 40.173 7.11233 38.2065C7.11233 36.24 5.52262 34.6504 3.55605 34.6504C1.58948 34.6504 -0.000228882 36.24 -0.000228882 38.2065C-0.000228882 40.173 1.59633 41.7627 3.55605 41.7627Z" fill="#4CD8F9"/>
<path d="M38.2072 41.7625C40.1738 41.7625 41.7635 40.1728 41.7635 38.2063C41.7635 36.2398 40.1738 34.6501 38.2072 34.6501C36.2406 34.6501 34.6509 36.2398 34.6509 38.2063C34.6509 40.1728 36.2406 41.7625 38.2072 41.7625Z" fill="#4CD8F9"/>
<path d="M72.8525 41.7625C74.8191 41.7625 76.4088 40.1728 76.4088 38.2063C76.4088 36.2398 74.8191 34.6501 72.8525 34.6501C70.8859 34.6501 69.2962 36.2398 69.2962 38.2063C69.2962 40.1728 70.8928 41.7625 72.8525 41.7625Z" fill="#4CD8F9"/>
<path d="M107.503 41.7627C109.47 41.7627 111.06 40.173 111.06 38.2065C111.06 36.24 109.47 34.6504 107.503 34.6504C105.537 34.6504 103.947 36.24 103.947 38.2065C103.947 40.173 105.537 41.7627 107.503 41.7627Z" fill="#4CD8F9"/>
<path d="M142.149 41.7625C144.116 41.7625 145.705 40.1728 145.705 38.2063C145.705 36.2398 144.116 34.6501 142.149 34.6501C140.182 34.6501 138.593 36.2398 138.593 38.2063C138.6 40.1728 140.189 41.7625 142.149 41.7625Z" fill="#4CD8F9"/>
<path d="M176.8 41.7625C178.767 41.7625 180.356 40.1728 180.356 38.2063C180.356 36.2398 178.767 34.6501 176.8 34.6501C174.834 34.6501 173.244 36.2398 173.244 38.2063C173.244 40.1728 174.834 41.7625 176.8 41.7625Z" fill="#4CD8F9"/>
<path d="M211.443 41.7625C213.41 41.7625 215 40.1728 215 38.2063C215 36.2398 213.41 34.6501 211.443 34.6501C209.477 34.6501 207.887 36.2398 207.887 38.2063C207.894 40.1728 209.484 41.7625 211.443 41.7625Z" fill="#4CD8F9"/>
<path d="M3.55605 76.4057C5.52262 76.4057 7.11233 74.8161 7.11233 72.8496C7.11233 70.8831 5.52262 69.2935 3.55605 69.2935C1.58948 69.2935 -0.000228882 70.8831 -0.000228882 72.8496C-0.000228882 74.8161 1.59633 76.4057 3.55605 76.4057Z" fill="#4CD8F9"/>
<path d="M38.2072 76.4059C40.1738 76.4059 41.7635 74.8163 41.7635 72.8498C41.7635 70.8833 40.1738 69.2937 38.2072 69.2937C36.2406 69.2937 34.6509 70.8833 34.6509 72.8498C34.6509 74.8163 36.2406 76.4059 38.2072 76.4059Z" fill="#4CD8F9"/>
<path d="M72.8525 76.4059C74.8191 76.4059 76.4088 74.8163 76.4088 72.8498C76.4088 70.8833 74.8191 69.2937 72.8525 69.2937C70.8859 69.2937 69.2962 70.8833 69.2962 72.8498C69.2962 74.8163 70.8928 76.4059 72.8525 76.4059Z" fill="#4CD8F9"/>
<path d="M107.503 76.4057C109.47 76.4057 111.06 74.8161 111.06 72.8496C111.06 70.8831 109.47 69.2935 107.503 69.2935C105.537 69.2935 103.947 70.8831 103.947 72.8496C103.947 74.8161 105.537 76.4057 107.503 76.4057Z" fill="#4CD8F9"/>
<path d="M142.149 76.4059C144.116 76.4059 145.705 74.8163 145.705 72.8498C145.705 70.8833 144.116 69.2937 142.149 69.2937C140.182 69.2937 138.593 70.8833 138.593 72.8498C138.6 74.8163 140.189 76.4059 142.149 76.4059Z" fill="#4CD8F9"/>
<path d="M176.8 76.4059C178.767 76.4059 180.356 74.8163 180.356 72.8498C180.356 70.8833 178.767 69.2937 176.8 69.2937C174.834 69.2937 173.244 70.8833 173.244 72.8498C173.244 74.8163 174.834 76.4059 176.8 76.4059Z" fill="#4CD8F9"/>
<path d="M211.443 76.4059C213.41 76.4059 215 74.8163 215 72.8498C215 70.8833 213.41 69.2937 211.443 69.2937C209.477 69.2937 207.887 70.8833 207.887 72.8498C207.894 74.8163 209.484 76.4059 211.443 76.4059Z" fill="#4CD8F9"/>
<path d="M3.55605 111.056C5.52262 111.056 7.11233 109.466 7.11233 107.5C7.11233 105.533 5.52262 103.944 3.55605 103.944C1.58948 103.944 -0.000228882 105.533 -0.000228882 107.5C-0.000228882 109.466 1.59633 111.056 3.55605 111.056Z" fill="#4CD8F9"/>
<path d="M38.2072 111.056C40.1738 111.056 41.7635 109.466 41.7635 107.5C41.7635 105.533 40.1738 103.944 38.2072 103.944C36.2406 103.944 34.6509 105.533 34.6509 107.5C34.6509 109.466 36.2406 111.056 38.2072 111.056Z" fill="#4CD8F9"/>
<path d="M72.8525 111.056C74.8191 111.056 76.4088 109.466 76.4088 107.5C76.4088 105.533 74.8191 103.944 72.8525 103.944C70.8859 103.944 69.2962 105.533 69.2962 107.5C69.2962 109.466 70.8928 111.056 72.8525 111.056Z" fill="#4CD8F9"/>
<path d="M107.503 111.056C109.47 111.056 111.06 109.466 111.06 107.5C111.06 105.533 109.47 103.944 107.503 103.944C105.537 103.944 103.947 105.533 103.947 107.5C103.947 109.466 105.537 111.056 107.503 111.056Z" fill="#4CD8F9"/>
<path d="M142.149 111.056C144.116 111.056 145.705 109.466 145.705 107.5C145.705 105.533 144.116 103.944 142.149 103.944C140.182 103.944 138.593 105.533 138.593 107.5C138.6 109.466 140.189 111.056 142.149 111.056Z" fill="#4CD8F9"/>
<path d="M176.8 111.056C178.767 111.056 180.356 109.466 180.356 107.5C180.356 105.533 178.767 103.944 176.8 103.944C174.834 103.944 173.244 105.533 173.244 107.5C173.244 109.466 174.834 111.056 176.8 111.056Z" fill="#4CD8F9"/>
<path d="M211.443 111.056C213.41 111.056 215 109.466 215 107.5C215 105.533 213.41 103.944 211.443 103.944C209.477 103.944 207.887 105.533 207.887 107.5C207.894 109.466 209.484 111.056 211.443 111.056Z" fill="#4CD8F9"/>
<path d="M3.55605 145.699C5.52262 145.699 7.11233 144.11 7.11233 142.143C7.11233 140.177 5.52262 138.587 3.55605 138.587C1.58948 138.587 -0.000228882 140.177 -0.000228882 142.143C-0.000228882 144.11 1.59633 145.699 3.55605 145.699Z" fill="#4CD8F9"/>
<path d="M38.2072 145.699C40.1738 145.699 41.7635 144.11 41.7635 142.143C41.7635 140.177 40.1738 138.587 38.2072 138.587C36.2406 138.587 34.6509 140.177 34.6509 142.143C34.6509 144.11 36.2406 145.699 38.2072 145.699Z" fill="#4CD8F9"/>
<path d="M72.8525 145.699C74.8191 145.699 76.4088 144.11 76.4088 142.143C76.4088 140.177 74.8191 138.587 72.8525 138.587C70.8859 138.587 69.2962 140.177 69.2962 142.143C69.2962 144.11 70.8928 145.699 72.8525 145.699Z" fill="#4CD8F9"/>
<path d="M107.503 145.699C109.47 145.699 111.06 144.11 111.06 142.143C111.06 140.177 109.47 138.587 107.503 138.587C105.537 138.587 103.947 140.177 103.947 142.143C103.947 144.11 105.537 145.699 107.503 145.699Z" fill="#4CD8F9"/>
<path d="M142.149 145.699C144.116 145.699 145.705 144.11 145.705 142.143C145.705 140.177 144.116 138.587 142.149 138.587C140.182 138.587 138.593 140.177 138.593 142.143C138.593 144.11 140.189 145.699 142.149 145.699Z" fill="#4CD8F9"/>
<path d="M176.8 145.699C178.767 145.699 180.356 144.11 180.356 142.143C180.356 140.177 178.767 138.587 176.8 138.587C174.834 138.587 173.244 140.177 173.244 142.143C173.244 144.11 174.834 145.699 176.8 145.699Z" fill="#4CD8F9"/>
<path d="M211.443 145.699C213.41 145.699 215 144.11 215 142.143C215 140.177 213.41 138.587 211.443 138.587C209.477 138.587 207.887 140.177 207.887 142.143C207.887 144.11 209.484 145.699 211.443 145.699Z" fill="#4CD8F9"/>
<path d="M3.55605 180.35C5.52262 180.35 7.11233 178.76 7.11233 176.793C7.11233 174.827 5.52262 173.237 3.55605 173.237C1.58948 173.237 -0.000228882 174.827 -0.000228882 176.793C-0.000228882 178.76 1.59633 180.35 3.55605 180.35Z" fill="#4CD8F9"/>
<path d="M38.2072 180.349C40.1738 180.349 41.7635 178.76 41.7635 176.793C41.7635 174.827 40.1738 173.237 38.2072 173.237C36.2406 173.237 34.6509 174.827 34.6509 176.793C34.6509 178.76 36.2406 180.349 38.2072 180.349Z" fill="#4CD8F9"/>
<path d="M72.8525 180.349C74.8166 180.349 76.4088 178.757 76.4088 176.793C76.4088 174.829 74.8166 173.237 72.8525 173.237C70.8884 173.237 69.2962 174.829 69.2962 176.793C69.2962 178.757 70.8884 180.349 72.8525 180.349Z" fill="#4CD8F9"/>
<path d="M107.503 180.35C109.468 180.35 111.06 178.757 111.06 176.793C111.06 174.829 109.468 173.237 107.503 173.237C105.539 173.237 103.947 174.829 103.947 176.793C103.947 178.757 105.539 180.35 107.503 180.35Z" fill="#4CD8F9"/>
<path d="M142.149 180.349C144.116 180.349 145.705 178.76 145.705 176.793C145.705 174.827 144.116 173.237 142.149 173.237C140.182 173.237 138.593 174.827 138.593 176.793C138.6 178.76 140.189 180.349 142.149 180.349Z" fill="#4CD8F9"/>
<path d="M176.8 180.349C178.767 180.349 180.356 178.76 180.356 176.793C180.356 174.827 178.767 173.237 176.8 173.237C174.834 173.237 173.244 174.827 173.244 176.793C173.244 178.76 174.834 180.349 176.8 180.349Z" fill="#4CD8F9"/>
<path d="M211.443 180.349C213.41 180.349 215 178.76 215 176.793C215 174.827 213.41 173.237 211.443 173.237C209.477 173.237 207.887 174.827 207.887 176.793C207.894 178.76 209.484 180.349 211.443 180.349Z" fill="#4CD8F9"/>
<path d="M3.55605 215C5.52262 215 7.11233 213.41 7.11233 211.444C7.11233 209.477 5.52262 207.887 3.55605 207.887C1.58948 207.887 -0.000228882 209.477 -0.000228882 211.444C-0.000228882 213.403 1.59633 215 3.55605 215Z" fill="#4CD8F9"/>
<path d="M38.2072 215C40.1738 215 41.7635 213.41 41.7635 211.444C41.7635 209.477 40.1738 207.888 38.2072 207.888C36.2406 207.888 34.6509 209.477 34.6509 211.444C34.6509 213.404 36.2406 215 38.2072 215Z" fill="#4CD8F9"/>
<path d="M72.8525 215C74.8191 215 76.4088 213.41 76.4088 211.444C76.4088 209.477 74.8191 207.888 72.8525 207.888C70.8859 207.888 69.2962 209.477 69.2962 211.444C69.2962 213.404 70.8928 215 72.8525 215Z" fill="#4CD8F9"/>
<path d="M107.503 215C109.47 215 111.06 213.41 111.06 211.444C111.06 209.477 109.47 207.887 107.503 207.887C105.537 207.887 103.947 209.477 103.947 211.444C103.947 213.403 105.537 215 107.503 215Z" fill="#4CD8F9"/>
<path d="M142.149 215C144.116 215 145.705 213.41 145.705 211.444C145.705 209.477 144.116 207.888 142.149 207.888C140.182 207.888 138.593 209.477 138.593 211.444C138.6 213.404 140.189 215 142.149 215Z" fill="#4CD8F9"/>
<path d="M176.8 215C178.767 215 180.356 213.41 180.356 211.444C180.356 209.477 178.767 207.888 176.8 207.888C174.834 207.888 173.244 209.477 173.244 211.444C173.244 213.404 174.834 215 176.8 215Z" fill="#4CD8F9"/>
<path d="M211.443 215C213.41 215 215 213.41 215 211.444C215 209.477 213.41 207.888 211.443 207.888C209.477 207.888 207.887 209.477 207.887 211.444C207.894 213.404 209.484 215 211.443 215Z" fill="#4CD8F9"/>
</svg>
