<svg width="257" height="75" viewBox="0 0 257 75" fill="none" xmlns="http://www.w3.org/2000/svg">
<mask id="path-1-outside-1_3_994" maskUnits="userSpaceOnUse" x="0.0560303" y="56.5852" width="174" height="19" fill="black">
<rect fill="white" x="0.0560303" y="56.5852" width="174" height="19"/>
<path d="M2.05603 69.9001L2.686 68.5753C3.23797 69.005 3.84394 69.3272 4.50391 69.5421C5.17588 69.7569 5.84185 69.8703 6.50182 69.8822C7.16179 69.8822 7.76776 69.7927 8.31973 69.6137C8.8837 69.4346 9.33368 69.1661 9.66966 68.808C10.0056 68.45 10.1736 68.0083 10.1736 67.4832C10.1736 66.8387 9.90965 66.3493 9.38168 66.0151C8.8657 65.6809 8.14574 65.5138 7.22178 65.5138H4.41392V64.0636H7.09579C7.89975 64.0636 8.52372 63.9025 8.9677 63.5802C9.42368 63.246 9.65167 62.7865 9.65167 62.2017C9.65167 61.7601 9.51367 61.3901 9.23769 61.0917C8.9737 60.7814 8.60772 60.5486 8.13974 60.3934C7.68376 60.2383 7.16179 60.1607 6.57381 60.1607C5.99784 60.1488 5.40387 60.2263 4.7919 60.3934C4.17993 60.5486 3.59196 60.7993 3.02798 61.1454L2.45201 59.6773C3.21997 59.2476 4.01794 58.9492 4.8459 58.7821C5.68586 58.6031 6.49582 58.5494 7.27578 58.621C8.05574 58.6807 8.75771 58.8597 9.38168 59.1581C10.0176 59.4446 10.5216 59.8265 10.8936 60.3039C11.2776 60.7694 11.4696 61.3304 11.4696 61.9868C11.4696 62.5836 11.3136 63.1148 11.0016 63.5802C10.6896 64.0338 10.2576 64.3859 9.70566 64.6365C9.15369 64.8753 8.51172 64.9946 7.77976 64.9946L7.85175 64.5112C8.69171 64.5112 9.41768 64.6485 10.0296 64.923C10.6536 65.1856 11.1336 65.5616 11.4696 66.0509C11.8176 66.5403 11.9916 67.1072 11.9916 67.7517C11.9916 68.3604 11.8356 68.9035 11.5236 69.3809C11.2116 69.8464 10.7856 70.2403 10.2456 70.5626C9.71766 70.8729 9.11169 71.0997 8.42772 71.2429C7.75576 71.3861 7.04779 71.4339 6.30383 71.3861C5.55986 71.3384 4.8219 71.1951 4.08993 70.9564C3.36997 70.7177 2.692 70.3656 2.05603 69.9001Z"/>
<path d="M14.9902 71.2608V58.7284H20.408C21.7759 58.7284 22.8499 59.0029 23.6298 59.552C24.4098 60.101 24.7998 60.9007 24.7998 61.951C24.7998 62.9775 24.4278 63.7652 23.6838 64.3143C22.9399 64.8514 21.9619 65.1199 20.75 65.1199L21.0739 64.5828C22.4779 64.5828 23.5518 64.8633 24.2958 65.4243C25.0518 65.9733 25.4297 66.779 25.4297 67.8412C25.4297 68.9155 25.0338 69.7569 24.2418 70.3656C23.4618 70.9624 22.2979 71.2608 20.75 71.2608H14.9902ZM16.7722 69.8464H20.714C21.6739 69.8464 22.3939 69.6734 22.8739 69.3272C23.3658 68.9692 23.6118 68.4261 23.6118 67.698C23.6118 66.97 23.3658 66.4388 22.8739 66.1046C22.3939 65.7704 21.6739 65.6033 20.714 65.6033H16.7722V69.8464ZM16.7722 64.2427H20.282C21.1579 64.2427 21.8239 64.0696 22.2799 63.7235C22.7479 63.3773 22.9819 62.8701 22.9819 62.2017C22.9819 61.5214 22.7479 61.0081 22.2799 60.662C21.8239 60.3159 21.1579 60.1428 20.282 60.1428H16.7722V64.2427Z"/>
<path d="M34.1066 71.404C33.1466 71.404 32.2527 71.2429 31.4247 70.9206C30.6088 70.5984 29.9008 70.1508 29.3008 69.5779C28.7008 68.993 28.2329 68.3127 27.8969 67.5369C27.5609 66.7611 27.3929 65.9137 27.3929 64.9946C27.3929 64.0756 27.5609 63.2281 27.8969 62.4523C28.2329 61.6765 28.7008 61.0022 29.3008 60.4293C29.9008 59.8444 30.6088 59.3909 31.4247 59.0686C32.2407 58.7463 33.1346 58.5852 34.1066 58.5852C35.0665 58.5852 35.9485 58.7463 36.7525 59.0686C37.5684 59.3789 38.2764 59.8265 38.8764 60.4113C39.4883 60.9843 39.9563 61.6586 40.2803 62.4344C40.6163 63.2102 40.7843 64.0636 40.7843 64.9946C40.7843 65.9256 40.6163 66.779 40.2803 67.5548C39.9563 68.3306 39.4883 69.0109 38.8764 69.5958C38.2764 70.1687 37.5684 70.6163 36.7525 70.9385C35.9485 71.2489 35.0665 71.404 34.1066 71.404ZM34.1066 69.8106C34.8026 69.8106 35.4445 69.6913 36.0325 69.4526C36.6325 69.2138 37.1484 68.8796 37.5804 68.45C38.0244 68.0083 38.3664 67.4951 38.6064 66.9103C38.8584 66.3254 38.9844 65.6869 38.9844 64.9946C38.9844 64.3023 38.8584 63.6638 38.6064 63.079C38.3664 62.4941 38.0244 61.9868 37.5804 61.5572C37.1484 61.1155 36.6325 60.7754 36.0325 60.5367C35.4445 60.298 34.8026 60.1786 34.1066 60.1786C33.3986 60.1786 32.7446 60.298 32.1447 60.5367C31.5567 60.7754 31.0407 61.1155 30.5968 61.5572C30.1528 61.9868 29.8048 62.4941 29.5528 63.079C29.3128 63.6638 29.1928 64.3023 29.1928 64.9946C29.1928 65.6869 29.3128 66.3254 29.5528 66.9103C29.8048 67.4951 30.1528 68.0083 30.5968 68.45C31.0407 68.8796 31.5567 69.2138 32.1447 69.4526C32.7446 69.6913 33.3986 69.8106 34.1066 69.8106Z"/>
<path d="M52.7295 58.7284H54.5294V71.2608H52.7295V58.7284ZM45.4939 71.2608H43.6939V58.7284H45.4939V71.2608ZM52.8915 65.6749H45.3139V64.1173H52.8915V65.6749Z"/>
<path d="M58.4589 71.2608V58.7284H60.2408V68.3963L67.6924 58.7284H69.3483V71.2608H67.5844V61.6109L60.1148 71.2608H58.4589Z"/>
<path d="M86.4798 70.4193V60.286H80.9541L80.8641 62.9178C80.8281 63.8011 80.7681 64.6485 80.6841 65.4601C80.6121 66.2717 80.5041 67.0058 80.3601 67.6622C80.2161 68.3067 80.0122 68.8379 79.7482 69.2556C79.4962 69.6734 79.1722 69.93 78.7762 70.0255L76.8323 69.7032C77.3003 69.739 77.6843 69.5838 77.9843 69.2377C78.2962 68.8796 78.5362 68.3843 78.7042 67.7517C78.8842 67.1072 79.0162 66.3612 79.1002 65.5138C79.1842 64.6544 79.2442 63.7354 79.2802 62.7567L79.4062 58.7284H88.2618V70.4193H86.4798ZM76.3823 74L76.4003 69.7032H90.1157V74H88.4418V71.2608H78.0742L78.0563 74H76.3823Z"/>
<path d="M94.2143 64.1352H100.694V65.657H94.2143V64.1352ZM94.3763 69.7032H101.72V71.2608H92.5764V58.7284H101.468V60.286H94.3763V69.7032Z"/>
<path d="M111.98 69.7032L111.566 70.1687V58.7284H113.33V70.1687L112.88 69.7032H119.018L118.568 70.1687V58.7284H120.332V71.2608H104.546V58.7284H106.328V70.1687L105.878 69.7032H111.98Z"/>
<path d="M125.889 64.1352H132.368V65.657H125.889V64.1352ZM126.051 69.7032H133.394V71.2608H124.251V58.7284H133.142V60.286H126.051V69.7032Z"/>
<path d="M136.221 71.2608V58.7284H141.638C143.006 58.7284 144.08 59.0029 144.86 59.552C145.64 60.101 146.03 60.9007 146.03 61.951C146.03 62.9775 145.658 63.7652 144.914 64.3143C144.17 64.8514 143.192 65.1199 141.98 65.1199L142.304 64.5828C143.708 64.5828 144.782 64.8633 145.526 65.4243C146.282 65.9733 146.66 66.779 146.66 67.8412C146.66 68.9155 146.264 69.7569 145.472 70.3656C144.692 70.9624 143.528 71.2608 141.98 71.2608H136.221ZM138.003 69.8464H141.944C142.904 69.8464 143.624 69.6734 144.104 69.3272C144.596 68.9692 144.842 68.4261 144.842 67.698C144.842 66.97 144.596 66.4388 144.104 66.1046C143.624 65.7704 142.904 65.6033 141.944 65.6033H138.003V69.8464ZM138.003 64.2427H141.512C142.388 64.2427 143.054 64.0696 143.51 63.7235C143.978 63.3773 144.212 62.8701 144.212 62.2017C144.212 61.5214 143.978 61.0081 143.51 60.662C143.054 60.3159 142.388 60.1428 141.512 60.1428H138.003V64.2427Z"/>
<path d="M149.073 71.404C148.893 71.404 148.713 71.3921 148.533 71.3682C148.353 71.3443 148.155 71.3085 147.939 71.2608L148.065 69.6674C148.257 69.7151 148.449 69.739 148.641 69.739C149.169 69.739 149.589 69.5301 149.901 69.1124C150.213 68.6946 150.441 68.0621 150.585 67.2146C150.741 66.3672 150.843 65.299 150.891 64.0099L151.089 58.7284H159.963V71.2608H158.199V59.8205L158.631 60.286H152.241L152.637 59.8026L152.493 63.9562C152.457 65.1975 152.373 66.2837 152.241 67.2146C152.109 68.1456 151.911 68.9214 151.647 69.5421C151.383 70.1627 151.041 70.6282 150.621 70.9385C150.213 71.2489 149.697 71.404 149.073 71.404Z"/>
<path d="M165.525 64.1352H172.005V65.657H165.525V64.1352ZM165.687 69.7032H173.031V71.2608H163.887V58.7284H172.779V60.286H165.687V69.7032Z"/>
</mask>
<path d="M2.05603 69.9001L2.686 68.5753C3.23797 69.005 3.84394 69.3272 4.50391 69.5421C5.17588 69.7569 5.84185 69.8703 6.50182 69.8822C7.16179 69.8822 7.76776 69.7927 8.31973 69.6137C8.8837 69.4346 9.33368 69.1661 9.66966 68.808C10.0056 68.45 10.1736 68.0083 10.1736 67.4832C10.1736 66.8387 9.90965 66.3493 9.38168 66.0151C8.8657 65.6809 8.14574 65.5138 7.22178 65.5138H4.41392V64.0636H7.09579C7.89975 64.0636 8.52372 63.9025 8.9677 63.5802C9.42368 63.246 9.65167 62.7865 9.65167 62.2017C9.65167 61.7601 9.51367 61.3901 9.23769 61.0917C8.9737 60.7814 8.60772 60.5486 8.13974 60.3934C7.68376 60.2383 7.16179 60.1607 6.57381 60.1607C5.99784 60.1488 5.40387 60.2263 4.7919 60.3934C4.17993 60.5486 3.59196 60.7993 3.02798 61.1454L2.45201 59.6773C3.21997 59.2476 4.01794 58.9492 4.8459 58.7821C5.68586 58.6031 6.49582 58.5494 7.27578 58.621C8.05574 58.6807 8.75771 58.8597 9.38168 59.1581C10.0176 59.4446 10.5216 59.8265 10.8936 60.3039C11.2776 60.7694 11.4696 61.3304 11.4696 61.9868C11.4696 62.5836 11.3136 63.1148 11.0016 63.5802C10.6896 64.0338 10.2576 64.3859 9.70566 64.6365C9.15369 64.8753 8.51172 64.9946 7.77976 64.9946L7.85175 64.5112C8.69171 64.5112 9.41768 64.6485 10.0296 64.923C10.6536 65.1856 11.1336 65.5616 11.4696 66.0509C11.8176 66.5403 11.9916 67.1072 11.9916 67.7517C11.9916 68.3604 11.8356 68.9035 11.5236 69.3809C11.2116 69.8464 10.7856 70.2403 10.2456 70.5626C9.71766 70.8729 9.11169 71.0997 8.42772 71.2429C7.75576 71.3861 7.04779 71.4339 6.30383 71.3861C5.55986 71.3384 4.8219 71.1951 4.08993 70.9564C3.36997 70.7177 2.692 70.3656 2.05603 69.9001Z" fill="white"/>
<path d="M14.9902 71.2608V58.7284H20.408C21.7759 58.7284 22.8499 59.0029 23.6298 59.552C24.4098 60.101 24.7998 60.9007 24.7998 61.951C24.7998 62.9775 24.4278 63.7652 23.6838 64.3143C22.9399 64.8514 21.9619 65.1199 20.75 65.1199L21.0739 64.5828C22.4779 64.5828 23.5518 64.8633 24.2958 65.4243C25.0518 65.9733 25.4297 66.779 25.4297 67.8412C25.4297 68.9155 25.0338 69.7569 24.2418 70.3656C23.4618 70.9624 22.2979 71.2608 20.75 71.2608H14.9902ZM16.7722 69.8464H20.714C21.6739 69.8464 22.3939 69.6734 22.8739 69.3272C23.3658 68.9692 23.6118 68.4261 23.6118 67.698C23.6118 66.97 23.3658 66.4388 22.8739 66.1046C22.3939 65.7704 21.6739 65.6033 20.714 65.6033H16.7722V69.8464ZM16.7722 64.2427H20.282C21.1579 64.2427 21.8239 64.0696 22.2799 63.7235C22.7479 63.3773 22.9819 62.8701 22.9819 62.2017C22.9819 61.5214 22.7479 61.0081 22.2799 60.662C21.8239 60.3159 21.1579 60.1428 20.282 60.1428H16.7722V64.2427Z" fill="white"/>
<path d="M34.1066 71.404C33.1466 71.404 32.2527 71.2429 31.4247 70.9206C30.6088 70.5984 29.9008 70.1508 29.3008 69.5779C28.7008 68.993 28.2329 68.3127 27.8969 67.5369C27.5609 66.7611 27.3929 65.9137 27.3929 64.9946C27.3929 64.0756 27.5609 63.2281 27.8969 62.4523C28.2329 61.6765 28.7008 61.0022 29.3008 60.4293C29.9008 59.8444 30.6088 59.3909 31.4247 59.0686C32.2407 58.7463 33.1346 58.5852 34.1066 58.5852C35.0665 58.5852 35.9485 58.7463 36.7525 59.0686C37.5684 59.3789 38.2764 59.8265 38.8764 60.4113C39.4883 60.9843 39.9563 61.6586 40.2803 62.4344C40.6163 63.2102 40.7843 64.0636 40.7843 64.9946C40.7843 65.9256 40.6163 66.779 40.2803 67.5548C39.9563 68.3306 39.4883 69.0109 38.8764 69.5958C38.2764 70.1687 37.5684 70.6163 36.7525 70.9385C35.9485 71.2489 35.0665 71.404 34.1066 71.404ZM34.1066 69.8106C34.8026 69.8106 35.4445 69.6913 36.0325 69.4526C36.6325 69.2138 37.1484 68.8796 37.5804 68.45C38.0244 68.0083 38.3664 67.4951 38.6064 66.9103C38.8584 66.3254 38.9844 65.6869 38.9844 64.9946C38.9844 64.3023 38.8584 63.6638 38.6064 63.079C38.3664 62.4941 38.0244 61.9868 37.5804 61.5572C37.1484 61.1155 36.6325 60.7754 36.0325 60.5367C35.4445 60.298 34.8026 60.1786 34.1066 60.1786C33.3986 60.1786 32.7446 60.298 32.1447 60.5367C31.5567 60.7754 31.0407 61.1155 30.5968 61.5572C30.1528 61.9868 29.8048 62.4941 29.5528 63.079C29.3128 63.6638 29.1928 64.3023 29.1928 64.9946C29.1928 65.6869 29.3128 66.3254 29.5528 66.9103C29.8048 67.4951 30.1528 68.0083 30.5968 68.45C31.0407 68.8796 31.5567 69.2138 32.1447 69.4526C32.7446 69.6913 33.3986 69.8106 34.1066 69.8106Z" fill="white"/>
<path d="M52.7295 58.7284H54.5294V71.2608H52.7295V58.7284ZM45.4939 71.2608H43.6939V58.7284H45.4939V71.2608ZM52.8915 65.6749H45.3139V64.1173H52.8915V65.6749Z" fill="white"/>
<path d="M58.4589 71.2608V58.7284H60.2408V68.3963L67.6924 58.7284H69.3483V71.2608H67.5844V61.6109L60.1148 71.2608H58.4589Z" fill="white"/>
<path d="M86.4798 70.4193V60.286H80.9541L80.8641 62.9178C80.8281 63.8011 80.7681 64.6485 80.6841 65.4601C80.6121 66.2717 80.5041 67.0058 80.3601 67.6622C80.2161 68.3067 80.0122 68.8379 79.7482 69.2556C79.4962 69.6734 79.1722 69.93 78.7762 70.0255L76.8323 69.7032C77.3003 69.739 77.6843 69.5838 77.9843 69.2377C78.2962 68.8796 78.5362 68.3843 78.7042 67.7517C78.8842 67.1072 79.0162 66.3612 79.1002 65.5138C79.1842 64.6544 79.2442 63.7354 79.2802 62.7567L79.4062 58.7284H88.2618V70.4193H86.4798ZM76.3823 74L76.4003 69.7032H90.1157V74H88.4418V71.2608H78.0742L78.0563 74H76.3823Z" fill="white"/>
<path d="M94.2143 64.1352H100.694V65.657H94.2143V64.1352ZM94.3763 69.7032H101.72V71.2608H92.5764V58.7284H101.468V60.286H94.3763V69.7032Z" fill="white"/>
<path d="M111.98 69.7032L111.566 70.1687V58.7284H113.33V70.1687L112.88 69.7032H119.018L118.568 70.1687V58.7284H120.332V71.2608H104.546V58.7284H106.328V70.1687L105.878 69.7032H111.98Z" fill="white"/>
<path d="M125.889 64.1352H132.368V65.657H125.889V64.1352ZM126.051 69.7032H133.394V71.2608H124.251V58.7284H133.142V60.286H126.051V69.7032Z" fill="white"/>
<path d="M136.221 71.2608V58.7284H141.638C143.006 58.7284 144.08 59.0029 144.86 59.552C145.64 60.101 146.03 60.9007 146.03 61.951C146.03 62.9775 145.658 63.7652 144.914 64.3143C144.17 64.8514 143.192 65.1199 141.98 65.1199L142.304 64.5828C143.708 64.5828 144.782 64.8633 145.526 65.4243C146.282 65.9733 146.66 66.779 146.66 67.8412C146.66 68.9155 146.264 69.7569 145.472 70.3656C144.692 70.9624 143.528 71.2608 141.98 71.2608H136.221ZM138.003 69.8464H141.944C142.904 69.8464 143.624 69.6734 144.104 69.3272C144.596 68.9692 144.842 68.4261 144.842 67.698C144.842 66.97 144.596 66.4388 144.104 66.1046C143.624 65.7704 142.904 65.6033 141.944 65.6033H138.003V69.8464ZM138.003 64.2427H141.512C142.388 64.2427 143.054 64.0696 143.51 63.7235C143.978 63.3773 144.212 62.8701 144.212 62.2017C144.212 61.5214 143.978 61.0081 143.51 60.662C143.054 60.3159 142.388 60.1428 141.512 60.1428H138.003V64.2427Z" fill="white"/>
<path d="M149.073 71.404C148.893 71.404 148.713 71.3921 148.533 71.3682C148.353 71.3443 148.155 71.3085 147.939 71.2608L148.065 69.6674C148.257 69.7151 148.449 69.739 148.641 69.739C149.169 69.739 149.589 69.5301 149.901 69.1124C150.213 68.6946 150.441 68.0621 150.585 67.2146C150.741 66.3672 150.843 65.299 150.891 64.0099L151.089 58.7284H159.963V71.2608H158.199V59.8205L158.631 60.286H152.241L152.637 59.8026L152.493 63.9562C152.457 65.1975 152.373 66.2837 152.241 67.2146C152.109 68.1456 151.911 68.9214 151.647 69.5421C151.383 70.1627 151.041 70.6282 150.621 70.9385C150.213 71.2489 149.697 71.404 149.073 71.404Z" fill="white"/>
<path d="M165.525 64.1352H172.005V65.657H165.525V64.1352ZM165.687 69.7032H173.031V71.2608H163.887V58.7284H172.779V60.286H165.687V69.7032Z" fill="white"/>
<path d="M2.05603 69.9001L2.686 68.5753C3.23797 69.005 3.84394 69.3272 4.50391 69.5421C5.17588 69.7569 5.84185 69.8703 6.50182 69.8822C7.16179 69.8822 7.76776 69.7927 8.31973 69.6137C8.8837 69.4346 9.33368 69.1661 9.66966 68.808C10.0056 68.45 10.1736 68.0083 10.1736 67.4832C10.1736 66.8387 9.90965 66.3493 9.38168 66.0151C8.8657 65.6809 8.14574 65.5138 7.22178 65.5138H4.41392V64.0636H7.09579C7.89975 64.0636 8.52372 63.9025 8.9677 63.5802C9.42368 63.246 9.65167 62.7865 9.65167 62.2017C9.65167 61.7601 9.51367 61.3901 9.23769 61.0917C8.9737 60.7814 8.60772 60.5486 8.13974 60.3934C7.68376 60.2383 7.16179 60.1607 6.57381 60.1607C5.99784 60.1488 5.40387 60.2263 4.7919 60.3934C4.17993 60.5486 3.59196 60.7993 3.02798 61.1454L2.45201 59.6773C3.21997 59.2476 4.01794 58.9492 4.8459 58.7821C5.68586 58.6031 6.49582 58.5494 7.27578 58.621C8.05574 58.6807 8.75771 58.8597 9.38168 59.1581C10.0176 59.4446 10.5216 59.8265 10.8936 60.3039C11.2776 60.7694 11.4696 61.3304 11.4696 61.9868C11.4696 62.5836 11.3136 63.1148 11.0016 63.5802C10.6896 64.0338 10.2576 64.3859 9.70566 64.6365C9.15369 64.8753 8.51172 64.9946 7.77976 64.9946L7.85175 64.5112C8.69171 64.5112 9.41768 64.6485 10.0296 64.923C10.6536 65.1856 11.1336 65.5616 11.4696 66.0509C11.8176 66.5403 11.9916 67.1072 11.9916 67.7517C11.9916 68.3604 11.8356 68.9035 11.5236 69.3809C11.2116 69.8464 10.7856 70.2403 10.2456 70.5626C9.71766 70.8729 9.11169 71.0997 8.42772 71.2429C7.75576 71.3861 7.04779 71.4339 6.30383 71.3861C5.55986 71.3384 4.8219 71.1951 4.08993 70.9564C3.36997 70.7177 2.692 70.3656 2.05603 69.9001Z" stroke="black" stroke-width="2" mask="url(#path-1-outside-1_3_994)"/>
<path d="M14.9902 71.2608V58.7284H20.408C21.7759 58.7284 22.8499 59.0029 23.6298 59.552C24.4098 60.101 24.7998 60.9007 24.7998 61.951C24.7998 62.9775 24.4278 63.7652 23.6838 64.3143C22.9399 64.8514 21.9619 65.1199 20.75 65.1199L21.0739 64.5828C22.4779 64.5828 23.5518 64.8633 24.2958 65.4243C25.0518 65.9733 25.4297 66.779 25.4297 67.8412C25.4297 68.9155 25.0338 69.7569 24.2418 70.3656C23.4618 70.9624 22.2979 71.2608 20.75 71.2608H14.9902ZM16.7722 69.8464H20.714C21.6739 69.8464 22.3939 69.6734 22.8739 69.3272C23.3658 68.9692 23.6118 68.4261 23.6118 67.698C23.6118 66.97 23.3658 66.4388 22.8739 66.1046C22.3939 65.7704 21.6739 65.6033 20.714 65.6033H16.7722V69.8464ZM16.7722 64.2427H20.282C21.1579 64.2427 21.8239 64.0696 22.2799 63.7235C22.7479 63.3773 22.9819 62.8701 22.9819 62.2017C22.9819 61.5214 22.7479 61.0081 22.2799 60.662C21.8239 60.3159 21.1579 60.1428 20.282 60.1428H16.7722V64.2427Z" stroke="black" stroke-width="2" mask="url(#path-1-outside-1_3_994)"/>
<path d="M34.1066 71.404C33.1466 71.404 32.2527 71.2429 31.4247 70.9206C30.6088 70.5984 29.9008 70.1508 29.3008 69.5779C28.7008 68.993 28.2329 68.3127 27.8969 67.5369C27.5609 66.7611 27.3929 65.9137 27.3929 64.9946C27.3929 64.0756 27.5609 63.2281 27.8969 62.4523C28.2329 61.6765 28.7008 61.0022 29.3008 60.4293C29.9008 59.8444 30.6088 59.3909 31.4247 59.0686C32.2407 58.7463 33.1346 58.5852 34.1066 58.5852C35.0665 58.5852 35.9485 58.7463 36.7525 59.0686C37.5684 59.3789 38.2764 59.8265 38.8764 60.4113C39.4883 60.9843 39.9563 61.6586 40.2803 62.4344C40.6163 63.2102 40.7843 64.0636 40.7843 64.9946C40.7843 65.9256 40.6163 66.779 40.2803 67.5548C39.9563 68.3306 39.4883 69.0109 38.8764 69.5958C38.2764 70.1687 37.5684 70.6163 36.7525 70.9385C35.9485 71.2489 35.0665 71.404 34.1066 71.404ZM34.1066 69.8106C34.8026 69.8106 35.4445 69.6913 36.0325 69.4526C36.6325 69.2138 37.1484 68.8796 37.5804 68.45C38.0244 68.0083 38.3664 67.4951 38.6064 66.9103C38.8584 66.3254 38.9844 65.6869 38.9844 64.9946C38.9844 64.3023 38.8584 63.6638 38.6064 63.079C38.3664 62.4941 38.0244 61.9868 37.5804 61.5572C37.1484 61.1155 36.6325 60.7754 36.0325 60.5367C35.4445 60.298 34.8026 60.1786 34.1066 60.1786C33.3986 60.1786 32.7446 60.298 32.1447 60.5367C31.5567 60.7754 31.0407 61.1155 30.5968 61.5572C30.1528 61.9868 29.8048 62.4941 29.5528 63.079C29.3128 63.6638 29.1928 64.3023 29.1928 64.9946C29.1928 65.6869 29.3128 66.3254 29.5528 66.9103C29.8048 67.4951 30.1528 68.0083 30.5968 68.45C31.0407 68.8796 31.5567 69.2138 32.1447 69.4526C32.7446 69.6913 33.3986 69.8106 34.1066 69.8106Z" stroke="black" stroke-width="2" mask="url(#path-1-outside-1_3_994)"/>
<path d="M52.7295 58.7284H54.5294V71.2608H52.7295V58.7284ZM45.4939 71.2608H43.6939V58.7284H45.4939V71.2608ZM52.8915 65.6749H45.3139V64.1173H52.8915V65.6749Z" stroke="black" stroke-width="2" mask="url(#path-1-outside-1_3_994)"/>
<path d="M58.4589 71.2608V58.7284H60.2408V68.3963L67.6924 58.7284H69.3483V71.2608H67.5844V61.6109L60.1148 71.2608H58.4589Z" stroke="black" stroke-width="2" mask="url(#path-1-outside-1_3_994)"/>
<path d="M86.4798 70.4193V60.286H80.9541L80.8641 62.9178C80.8281 63.8011 80.7681 64.6485 80.6841 65.4601C80.6121 66.2717 80.5041 67.0058 80.3601 67.6622C80.2161 68.3067 80.0122 68.8379 79.7482 69.2556C79.4962 69.6734 79.1722 69.93 78.7762 70.0255L76.8323 69.7032C77.3003 69.739 77.6843 69.5838 77.9843 69.2377C78.2962 68.8796 78.5362 68.3843 78.7042 67.7517C78.8842 67.1072 79.0162 66.3612 79.1002 65.5138C79.1842 64.6544 79.2442 63.7354 79.2802 62.7567L79.4062 58.7284H88.2618V70.4193H86.4798ZM76.3823 74L76.4003 69.7032H90.1157V74H88.4418V71.2608H78.0742L78.0563 74H76.3823Z" stroke="black" stroke-width="2" mask="url(#path-1-outside-1_3_994)"/>
<path d="M94.2143 64.1352H100.694V65.657H94.2143V64.1352ZM94.3763 69.7032H101.72V71.2608H92.5764V58.7284H101.468V60.286H94.3763V69.7032Z" stroke="black" stroke-width="2" mask="url(#path-1-outside-1_3_994)"/>
<path d="M111.98 69.7032L111.566 70.1687V58.7284H113.33V70.1687L112.88 69.7032H119.018L118.568 70.1687V58.7284H120.332V71.2608H104.546V58.7284H106.328V70.1687L105.878 69.7032H111.98Z" stroke="black" stroke-width="2" mask="url(#path-1-outside-1_3_994)"/>
<path d="M125.889 64.1352H132.368V65.657H125.889V64.1352ZM126.051 69.7032H133.394V71.2608H124.251V58.7284H133.142V60.286H126.051V69.7032Z" stroke="black" stroke-width="2" mask="url(#path-1-outside-1_3_994)"/>
<path d="M136.221 71.2608V58.7284H141.638C143.006 58.7284 144.08 59.0029 144.86 59.552C145.64 60.101 146.03 60.9007 146.03 61.951C146.03 62.9775 145.658 63.7652 144.914 64.3143C144.17 64.8514 143.192 65.1199 141.98 65.1199L142.304 64.5828C143.708 64.5828 144.782 64.8633 145.526 65.4243C146.282 65.9733 146.66 66.779 146.66 67.8412C146.66 68.9155 146.264 69.7569 145.472 70.3656C144.692 70.9624 143.528 71.2608 141.98 71.2608H136.221ZM138.003 69.8464H141.944C142.904 69.8464 143.624 69.6734 144.104 69.3272C144.596 68.9692 144.842 68.4261 144.842 67.698C144.842 66.97 144.596 66.4388 144.104 66.1046C143.624 65.7704 142.904 65.6033 141.944 65.6033H138.003V69.8464ZM138.003 64.2427H141.512C142.388 64.2427 143.054 64.0696 143.51 63.7235C143.978 63.3773 144.212 62.8701 144.212 62.2017C144.212 61.5214 143.978 61.0081 143.51 60.662C143.054 60.3159 142.388 60.1428 141.512 60.1428H138.003V64.2427Z" stroke="black" stroke-width="2" mask="url(#path-1-outside-1_3_994)"/>
<path d="M149.073 71.404C148.893 71.404 148.713 71.3921 148.533 71.3682C148.353 71.3443 148.155 71.3085 147.939 71.2608L148.065 69.6674C148.257 69.7151 148.449 69.739 148.641 69.739C149.169 69.739 149.589 69.5301 149.901 69.1124C150.213 68.6946 150.441 68.0621 150.585 67.2146C150.741 66.3672 150.843 65.299 150.891 64.0099L151.089 58.7284H159.963V71.2608H158.199V59.8205L158.631 60.286H152.241L152.637 59.8026L152.493 63.9562C152.457 65.1975 152.373 66.2837 152.241 67.2146C152.109 68.1456 151.911 68.9214 151.647 69.5421C151.383 70.1627 151.041 70.6282 150.621 70.9385C150.213 71.2489 149.697 71.404 149.073 71.404Z" stroke="black" stroke-width="2" mask="url(#path-1-outside-1_3_994)"/>
<path d="M165.525 64.1352H172.005V65.657H165.525V64.1352ZM165.687 69.7032H173.031V71.2608H163.887V58.7284H172.779V60.286H165.687V69.7032Z" stroke="black" stroke-width="2" mask="url(#path-1-outside-1_3_994)"/>
<path d="M1.54306 27.0553L1.36358 27.4593L1.74258 27.6869C3.21175 28.5692 5.06277 29.2747 7.28186 29.813C9.50864 30.3532 11.8148 30.6228 14.1994 30.6228C17.1505 30.6228 19.6381 30.1925 21.6412 29.307L21.6412 29.307L21.6465 29.3046C23.6292 28.4007 25.1488 27.2078 26.1712 25.711C27.2134 24.1977 27.7388 22.5346 27.7388 20.7335C27.7388 19.2125 27.4469 17.9012 26.8331 16.8254C26.235 15.7772 25.4346 14.9232 24.4353 14.2695C23.4907 13.6342 22.4516 13.125 21.3199 12.7406C20.2051 12.362 19.0763 12.0643 17.9334 11.8478C16.8417 11.6359 15.83 11.4372 14.8982 11.2519C14.0194 11.0718 13.3318 10.858 12.8223 10.6179C12.3724 10.3813 12.2595 10.1406 12.2595 9.9119C12.2595 9.72001 12.3193 9.54086 12.4598 9.36175C12.6156 9.19527 12.9021 9.02252 13.3824 8.87918C13.8495 8.73981 14.5148 8.66135 15.3994 8.66135C16.5787 8.66135 17.7882 8.82705 19.0291 9.16135L19.0316 9.16201C20.301 9.497 21.6158 10.0012 22.9763 10.6779L23.4546 10.9157L23.6604 10.4228L26.5003 3.61951L26.6718 3.20854L26.2834 2.99077C24.7685 2.14149 23.0676 1.5152 21.1848 1.10807C19.3099 0.702669 17.4079 0.5 15.4794 0.5C12.5538 0.5 10.0677 0.930636 8.03986 1.8148L8.03986 1.8148L8.03753 1.81582C6.05064 2.69419 4.51716 3.88817 3.46815 5.41102L3.46815 5.41102L3.467 5.41269C2.44954 6.90266 1.93998 8.56606 1.93998 10.3893C1.93998 11.9357 2.2314 13.2714 2.84287 14.372L2.84284 14.372L2.84566 14.3769C3.44246 15.4228 4.22799 16.2766 5.2007 16.9311L5.20068 16.9311L5.20627 16.9348C6.17592 17.5686 7.22728 18.0774 8.35888 18.4618L8.36233 18.4629C9.49803 18.8395 10.6216 19.1492 11.7329 19.3919L11.7328 19.392L11.7443 19.3942C12.8325 19.6054 13.8261 19.8163 14.7254 20.0268L14.7336 20.0287L14.7418 20.0303C15.6496 20.2109 16.3458 20.4377 16.8482 20.6995C17.2925 20.931 17.4192 21.1821 17.4192 21.4496C17.4192 21.6216 17.3618 21.7719 17.2173 21.9199C17.0642 22.0501 16.7744 22.193 16.2878 22.3148C15.8311 22.4093 15.1673 22.4615 14.2794 22.4615C12.7832 22.4615 11.2291 22.2436 9.6158 21.804C8.02533 21.3368 6.58408 20.7289 5.28971 19.9821L4.80846 19.7045L4.58291 20.2122L1.54306 27.0553ZM29.5477 29.4863V29.9863H30.0477H39.4873H39.9873V29.4863V1.63656V1.13656H39.4873H30.0477H29.5477V1.63656V29.4863ZM52.0941 29.5561L52.0941 29.5561L52.102 29.559C54.0818 30.2701 56.2329 30.6228 58.5507 30.6228C60.6539 30.6228 62.819 30.3103 65.0448 29.6894C67.2089 29.0856 69.151 28.2249 70.8667 27.1042L71.2501 27.16V26.8492L71.4862 26.6914L71.2501 26.4033V14.8055V14.3055H70.7501H62.5505H62.0505V14.8055V21.5397C61.0949 21.8626 60.1157 22.0238 59.1107 22.0238C58.154 22.0238 57.2991 21.8743 56.5397 21.5833C55.8029 21.2644 55.1683 20.8259 54.6313 20.2676C54.0956 19.7104 53.6776 19.041 53.3799 18.2522C53.0826 17.4382 52.931 16.5429 52.931 15.5614C52.931 14.5225 53.0839 13.6159 53.3788 12.8335C53.6767 12.0435 54.095 11.3732 54.6313 10.8155C55.1643 10.2612 55.8075 9.83716 56.5681 9.54396C57.3575 9.24987 58.2431 9.09899 59.2307 9.09899C60.4111 9.09899 61.4636 9.34815 62.3986 9.83766L62.4055 9.84126L62.4125 9.84465C63.3832 10.315 64.2911 11.0261 65.1337 11.9913L65.4631 12.3686L65.8399 12.0385L71.8796 6.74709L72.2435 6.42824L71.9368 6.05403C70.4691 4.26366 68.6022 2.89041 66.3467 1.93265C64.1145 0.973463 61.5793 0.5 58.7507 0.5C56.3796 0.5 54.1877 0.865988 52.1802 1.60427C50.2023 2.31497 48.4777 3.3429 47.0128 4.69006C45.5477 6.03736 44.4138 7.6333 43.6129 9.47368C42.8094 11.3202 42.4115 13.3518 42.4115 15.5614C42.4115 17.771 42.8094 19.8026 43.6129 21.6491C44.4129 23.4874 45.532 25.0824 46.9693 26.4295L46.9728 26.4328C48.4356 27.7779 50.1445 28.8186 52.0941 29.5561ZM74.2721 29.4863V29.9863H74.7721H83.3717H83.8717V29.4863V18.9708L89.0271 27.2442L89.1739 27.4798H89.4514H93.6112H93.8949L94.0405 27.2362L99.2126 18.5789L99.2709 29.4889L99.2736 29.9863H99.7709H108.371H108.872L108.871 29.4848L108.791 1.63513L108.789 1.13656H108.291H100.531H100.247L100.102 1.37983L91.6556 15.4953L82.9575 1.37433L82.811 1.13656H82.5318H74.7721H74.2721V1.63656V29.4863ZM109.437 29.2851L109.129 29.9863H109.895H119.494H119.837L119.96 29.6665L121.712 25.1325H131.675L133.427 29.6665L133.551 29.9863H133.893H143.653H144.419L144.111 29.2851L131.871 1.43539L131.74 1.13656H131.413H122.134H121.807L121.676 1.43539L109.437 29.2851ZM126.694 12.2413L128.675 17.369H124.712L126.694 12.2413Z" fill="#4CD8F9" stroke="black"/>
<path d="M164.204 29.1138L164.204 29.1138L164.212 29.1171C166.061 29.8307 168.056 30.185 170.192 30.185C172.22 30.185 174.119 29.8578 175.886 29.1987L175.886 29.1987L175.89 29.1972C177.691 28.5083 179.235 27.4857 180.515 26.1293L180.844 25.7805L180.509 25.4371L179.23 24.1241L178.877 23.7625L178.519 24.1187C177.367 25.2646 176.095 26.0845 174.704 26.5882C173.321 27.0717 171.845 27.3151 170.272 27.3151C168.544 27.3151 166.941 27.0205 165.457 26.4355C163.998 25.8495 162.721 25.0237 161.623 23.9575C160.551 22.8909 159.708 21.6466 159.093 20.2207C158.508 18.8021 158.213 17.2508 158.213 15.5613C158.213 13.8717 158.508 12.3205 159.093 10.9018C159.708 9.476 160.551 8.23171 161.623 7.16508C162.721 6.0989 163.997 5.27305 165.457 4.68705C166.941 4.10209 168.544 3.80741 170.272 3.80741C171.843 3.80741 173.318 4.06341 174.699 4.57229L174.699 4.5724L174.709 4.57598C176.101 5.05411 177.372 5.84823 178.523 6.96802L178.881 7.31621L179.23 6.95861L180.509 5.6457L180.844 5.30228L180.515 4.95348C179.234 3.59593 177.688 2.58575 175.885 1.92341C174.119 1.26463 172.219 0.9375 170.192 0.9375C168.055 0.9375 166.071 1.30547 164.247 2.04735C162.429 2.76001 160.828 3.77575 159.447 5.0942L159.447 5.09418L159.443 5.0977C158.088 6.41868 157.037 7.97351 156.292 9.75764C155.543 11.5229 155.173 13.4596 155.173 15.5613C155.173 17.6635 155.543 19.6129 156.291 21.4035L156.292 21.406C157.038 23.164 158.089 24.7049 159.443 26.0248C160.798 27.3449 162.387 28.3743 164.204 29.1138ZM181.108 29.2762L180.78 29.9861H181.562H183.762H184.083L184.217 29.6936L187.658 22.1484H203.254L206.706 29.6941L206.84 29.9861H207.161H209.361H210.143L209.814 29.2762L196.935 1.42655L196.801 1.13643H196.481H194.441H194.122L193.988 1.42655L181.108 29.2762ZM195.443 5.07621L202.014 19.4377H188.894L195.443 5.07621ZM213.944 29.4861V29.9861H214.444H232.603H233.103V29.4861V27.656V27.156H232.603H216.983V1.63643V1.13643H216.483H214.444H213.944V1.63643V29.4861ZM237.341 29.4861V29.9861H237.841H256H256.5V29.4861V27.656V27.156H256H240.381V1.63643V1.13643H239.881H237.841H237.341V1.63643V29.4861Z" fill="white" stroke="black"/>
</svg>
