<svg width="25" height="19" viewBox="0 0 25 19" fill="none" xmlns="http://www.w3.org/2000/svg">
<path d="M24.1071 0H0.892857C0.398996 0 0 0.385937 0 0.863636V18.1364C0 18.6141 0.398996 19 0.892857 19H24.1071C24.601 19 25 18.6141 25 18.1364V0.863636C25 0.385937 24.601 0 24.1071 0ZM2.00893 1.94318H22.9911V5.18182H2.00893V1.94318ZM22.9911 17.0568H2.00893V7.55682H22.9911V17.0568ZM16.3783 15.3295H20.9821C21.1049 15.3295 21.2054 15.2324 21.2054 15.1136V13.1705C21.2054 13.0517 21.1049 12.9545 20.9821 12.9545H16.3783C16.2556 12.9545 16.1551 13.0517 16.1551 13.1705V15.1136C16.1551 15.2324 16.2556 15.3295 16.3783 15.3295Z" fill="#01A2CE"/>
</svg>
