<svg width="254" height="73" viewBox="0 0 254 73" fill="none" xmlns="http://www.w3.org/2000/svg">
<path d="M0.998291 69.0105L1.62835 67.7213C2.18041 68.1394 2.78647 68.453 3.44653 68.662C4.1186 68.8711 4.78466 68.9814 5.44473 68.993C6.10479 68.993 6.71086 68.9059 7.26291 68.7317C7.82697 68.5575 8.27701 68.2962 8.61304 67.9477C8.94908 67.5993 9.11709 67.1696 9.11709 66.6585C9.11709 66.0314 8.85307 65.5552 8.32501 65.23C7.80896 64.9048 7.08889 64.7422 6.1648 64.7422H3.35652V63.331H6.03879C6.84287 63.331 7.46693 63.1742 7.91097 62.8606C8.36702 62.5354 8.59504 62.0883 8.59504 61.5192C8.59504 61.0894 8.45703 60.7294 8.181 60.439C7.91697 60.137 7.55094 59.9106 7.08289 59.7596C6.62685 59.6086 6.1048 59.5331 5.51674 59.5331C4.94068 59.5215 4.34662 59.597 3.73456 59.7596C3.1225 59.9106 2.53444 60.1545 1.97039 60.4913L1.39433 59.0627C2.16241 58.6446 2.96048 58.3542 3.78857 58.1916C4.62865 58.0174 5.43873 57.9652 6.21881 58.0348C6.99888 58.0929 7.70095 58.2671 8.32501 58.5575C8.96108 58.8362 9.46513 59.2079 9.83716 59.6725C10.2212 60.1254 10.4132 60.6713 10.4132 61.3101C10.4132 61.8908 10.2572 62.4077 9.94518 62.8606C9.63314 63.302 9.2011 63.6446 8.64905 63.8885C8.09699 64.1208 7.45493 64.2369 6.72286 64.2369L6.79486 63.7666C7.63495 63.7666 8.36102 63.9001 8.97308 64.1672C9.59714 64.4228 10.0772 64.7886 10.4132 65.2648C10.7613 65.741 10.9353 66.2927 10.9353 66.9199C10.9353 67.5122 10.7793 68.0407 10.4672 68.5052C10.1552 68.9582 9.72915 69.3415 9.1891 69.6551C8.66105 69.957 8.05499 70.1777 7.37092 70.3171C6.69885 70.4564 5.99078 70.5029 5.24671 70.4564C4.50264 70.41 3.76456 70.2706 3.03249 70.0383C2.31242 69.806 1.63435 69.4634 0.998291 69.0105Z" fill="white"/>
<path d="M13.9344 70.3345V58.1394H19.3529C20.7211 58.1394 21.7952 58.4065 22.5752 58.9408C23.3553 59.475 23.7454 60.2532 23.7454 61.2753C23.7454 62.2741 23.3733 63.0407 22.6293 63.5749C21.8852 64.0976 20.9071 64.3589 19.695 64.3589L20.019 63.8362C21.4231 63.8362 22.4972 64.1092 23.2413 64.6551C23.9974 65.1893 24.3754 65.9733 24.3754 67.007C24.3754 68.0523 23.9794 68.8711 23.1873 69.4634C22.4072 70.0441 21.2431 70.3345 19.695 70.3345H13.9344ZM15.7166 68.9582H19.659C20.6191 68.9582 21.3391 68.7898 21.8192 68.453C22.3112 68.1045 22.5572 67.5761 22.5572 66.8676C22.5572 66.1591 22.3112 65.6423 21.8192 65.3171C21.3391 64.9919 20.6191 64.8293 19.659 64.8293H15.7166V68.9582ZM15.7166 63.5052H19.2269C20.103 63.5052 20.7691 63.3368 21.2251 63C21.6932 62.6632 21.9272 62.1696 21.9272 61.5192C21.9272 60.8571 21.6932 60.3577 21.2251 60.0209C20.7691 59.6841 20.103 59.5157 19.2269 59.5157H15.7166V63.5052Z" fill="white"/>
<path d="M33.0535 70.4739C32.0935 70.4739 31.1994 70.3171 30.3713 70.0035C29.5552 69.6899 28.8471 69.2544 28.2471 68.6969C27.647 68.1278 27.179 67.4657 26.8429 66.7108C26.5069 65.9559 26.3389 65.1312 26.3389 64.2369C26.3389 63.3426 26.5069 62.518 26.8429 61.7631C27.179 61.0081 27.647 60.3519 28.2471 59.7944C28.8471 59.2253 29.5552 58.784 30.3713 58.4704C31.1874 58.1568 32.0815 58 33.0535 58C34.0136 58 34.8957 58.1568 35.6998 58.4704C36.5159 58.7724 37.224 59.2079 37.824 59.777C38.4361 60.3345 38.9041 60.9907 39.2282 61.7456C39.5642 62.5006 39.7322 63.331 39.7322 64.2369C39.7322 65.1429 39.5642 65.9733 39.2282 66.7282C38.9041 67.4832 38.4361 68.1452 37.824 68.7143C37.224 69.2718 36.5159 69.7073 35.6998 70.0209C34.8957 70.3229 34.0136 70.4739 33.0535 70.4739ZM33.0535 68.9233C33.7496 68.9233 34.3917 68.8072 34.9797 68.5749C35.5798 68.3426 36.0959 68.0174 36.5279 67.5993C36.9719 67.1696 37.314 66.6702 37.554 66.101C37.806 65.5319 37.932 64.9106 37.932 64.2369C37.932 63.5633 37.806 62.9419 37.554 62.3728C37.314 61.8037 36.9719 61.3101 36.5279 60.892C36.0959 60.4623 35.5798 60.1312 34.9797 59.899C34.3917 59.6667 33.7496 59.5505 33.0535 59.5505C32.3455 59.5505 31.6914 59.6667 31.0914 59.899C30.5033 60.1312 29.9872 60.4623 29.5432 60.892C29.0992 61.3101 28.7511 61.8037 28.4991 62.3728C28.2591 62.9419 28.1391 63.5633 28.1391 64.2369C28.1391 64.9106 28.2591 65.5319 28.4991 66.101C28.7511 66.6702 29.0992 67.1696 29.5432 67.5993C29.9872 68.0174 30.5033 68.3426 31.0914 68.5749C31.6914 68.8072 32.3455 68.9233 33.0535 68.9233Z" fill="white"/>
<path d="M51.6792 58.1394H53.4794V70.3345H51.6792V58.1394ZM44.4425 70.3345H42.6423V58.1394H44.4425V70.3345ZM51.8412 64.899H44.2625V63.3833H51.8412V64.899Z" fill="white"/>
<path d="M57.4094 70.3345V58.1394H59.1916V67.547L66.6443 58.1394H68.3005V70.3345H66.5363V60.9443L59.0656 70.3345H57.4094Z" fill="white"/>
<path d="M85.4345 69.5157V59.6551H79.908L79.8179 62.216C79.7819 63.0755 79.7219 63.9001 79.6379 64.6899C79.5659 65.4797 79.4579 66.194 79.3139 66.8328C79.1699 67.4599 78.9659 67.9768 78.7018 68.3833C78.4498 68.7898 78.1258 69.0395 77.7297 69.1324L75.7855 68.8188C76.2536 68.8537 76.6376 68.7027 76.9377 68.3659C77.2497 68.0174 77.4897 67.5354 77.6577 66.9199C77.8378 66.2927 77.9698 65.5668 78.0538 64.7422C78.1378 63.9059 78.1978 63.0116 78.2338 62.0592L78.3598 58.1394H87.2167V69.5157H85.4345ZM75.3355 73L75.3535 68.8188H89.0709V73H87.3967V70.3345H77.0277L77.0097 73H75.3355Z" fill="white"/>
<path d="M93.1701 63.4007H99.6507V64.8815H93.1701V63.4007ZM93.3321 68.8188H100.677V70.3345H91.5319V58.1394H100.425V59.6551H93.3321V68.8188Z" fill="white"/>
<path d="M110.939 68.8188L110.524 69.2718V58.1394H112.289V69.2718L111.839 68.8188H117.977L117.527 69.2718V58.1394H119.291V70.3345H103.504V58.1394H105.286V69.2718L104.836 68.8188H110.939Z" fill="white"/>
<path d="M124.849 63.4007H131.33V64.8815H124.849V63.4007ZM125.011 68.8188H132.356V70.3345H123.211V58.1394H132.104V59.6551H125.011V68.8188Z" fill="white"/>
<path d="M135.183 70.3345V58.1394H140.601C141.969 58.1394 143.043 58.4065 143.824 58.9408C144.604 59.475 144.994 60.2532 144.994 61.2753C144.994 62.2741 144.622 63.0407 143.878 63.5749C143.133 64.0976 142.155 64.3589 140.943 64.3589L141.267 63.8362C142.671 63.8362 143.746 64.1092 144.49 64.6551C145.246 65.1893 145.624 65.9733 145.624 67.007C145.624 68.0523 145.228 68.8711 144.436 69.4634C143.656 70.0441 142.491 70.3345 140.943 70.3345H135.183ZM136.965 68.9582H140.907C141.867 68.9582 142.587 68.7898 143.067 68.453C143.56 68.1045 143.806 67.5761 143.806 66.8676C143.806 66.1591 143.56 65.6423 143.067 65.3171C142.587 64.9919 141.867 64.8293 140.907 64.8293H136.965V68.9582ZM136.965 63.5052H140.475C141.351 63.5052 142.017 63.3368 142.473 63C142.941 62.6632 143.175 62.1696 143.175 61.5192C143.175 60.8571 142.941 60.3577 142.473 60.0209C142.017 59.6841 141.351 59.5157 140.475 59.5157H136.965V63.5052Z" fill="white"/>
<path d="M148.037 70.4739C147.857 70.4739 147.677 70.4623 147.497 70.439C147.317 70.4158 147.119 70.381 146.903 70.3345L147.029 68.784C147.221 68.8304 147.413 68.8537 147.605 68.8537C148.133 68.8537 148.553 68.6504 148.865 68.2439C149.177 67.8374 149.405 67.2218 149.549 66.3972C149.705 65.5726 149.807 64.5331 149.855 63.2787L150.053 58.1394H158.928V70.3345H157.164V59.2021L157.596 59.6551H151.206L151.602 59.1847L151.458 63.2265C151.422 64.4344 151.338 65.4913 151.206 66.3972C151.074 67.3031 150.876 68.0581 150.611 68.662C150.347 69.266 150.005 69.7189 149.585 70.0209C149.177 70.3229 148.661 70.4739 148.037 70.4739Z" fill="white"/>
<path d="M164.492 63.4007H170.972V64.8815H164.492V63.4007ZM164.654 68.8188H171.998V70.3345H162.853V58.1394H171.746V59.6551H164.654V68.8188Z" fill="white"/>
<path d="M13.2276 29C10.8753 29 8.60318 28.7359 6.41126 28.2077C4.21934 27.6794 2.41502 26.9927 0.998291 26.1475L4.04559 19.3333C5.38213 20.0993 6.86569 20.7199 8.49626 21.1954C10.1536 21.6444 11.7574 21.8689 13.3078 21.8689C14.2166 21.8689 14.925 21.816 15.4329 21.7104C15.9675 21.5783 16.3551 21.4066 16.5957 21.1954C16.8362 20.9576 16.9565 20.6803 16.9565 20.3634C16.9565 19.8616 16.6759 19.4654 16.1145 19.1749C15.5532 18.8843 14.8047 18.6466 13.8691 18.4618C12.9603 18.2505 11.9579 18.0392 10.8619 17.8279C9.76597 17.5902 8.65664 17.2864 7.53395 16.9167C6.43799 16.5469 5.42223 16.0583 4.48665 15.4508C3.57781 14.8434 2.84271 14.051 2.28137 13.0738C1.72002 12.0701 1.43935 10.8288 1.43935 9.34973C1.43935 7.63297 1.9205 6.07468 2.88281 4.67486C3.87184 3.24863 5.32867 2.11293 7.25328 1.26776C9.20463 0.422587 11.6238 0 14.5107 0C16.4086 0 18.2797 0.198087 20.1241 0.594262C21.9685 0.990436 23.6259 1.5979 25.096 2.41667L22.2492 9.19126C20.8592 8.50455 19.5093 7.98953 18.1995 7.64618C16.9164 7.30282 15.6601 7.13115 14.4305 7.13115C13.5216 7.13115 12.7999 7.21038 12.2653 7.36885C11.7307 7.52732 11.3431 7.73862 11.1025 8.00273C10.8887 8.26685 10.7817 8.55738 10.7817 8.87432C10.7817 9.34973 11.0624 9.7327 11.6238 10.0232C12.1851 10.2873 12.9202 10.5118 13.829 10.6967C14.7646 10.8816 15.7804 11.0797 16.8763 11.291C17.999 11.5023 19.1084 11.7928 20.2043 12.1626C21.3003 12.5323 22.3027 13.0209 23.2115 13.6284C24.1471 14.2359 24.8956 15.0282 25.4569 16.0055C26.0183 16.9827 26.2989 18.1976 26.2989 19.6503C26.2989 21.3406 25.8044 22.8989 24.8154 24.3251C23.8531 25.725 22.4096 26.8607 20.485 27.7322C18.5604 28.5774 16.1412 29 13.2276 29Z" fill="#4CD8F9"/>
<path d="M29.1147 28.3661V0.633879H38.5774V28.3661H29.1147Z" fill="#4CD8F9"/>
<path d="M57.6876 29C55.4155 29 53.3171 28.6567 51.3925 27.9699C49.4946 27.2568 47.8373 26.2532 46.4206 24.959C45.0306 23.6648 43.948 22.133 43.1728 20.3634C42.3976 18.5938 42.01 16.6393 42.01 14.5C42.01 12.3607 42.3976 10.4062 43.1728 8.63661C43.948 6.86703 45.044 5.33516 46.4607 4.04098C47.8774 2.74681 49.5481 1.75637 51.4727 1.06967C53.424 0.356558 55.5625 0 57.8881 0C60.6681 0 63.1407 0.462204 65.3058 1.38661C67.4978 2.31102 69.3021 3.6316 70.7188 5.34836L64.6643 10.6175C63.7822 9.61384 62.8199 8.86111 61.7774 8.35929C60.7616 7.83106 59.6256 7.56694 58.3692 7.56694C57.3267 7.56694 56.3778 7.72541 55.5224 8.04235C54.6937 8.35929 53.9854 8.82149 53.3973 9.42896C52.8092 10.0364 52.3548 10.7628 52.034 11.6079C51.7133 12.4531 51.5529 13.4171 51.5529 14.5C51.5529 15.5301 51.7133 16.4809 52.034 17.3525C52.3548 18.1976 52.8092 18.924 53.3973 19.5314C53.9854 20.1389 54.6804 20.6143 55.4823 20.9576C56.311 21.2746 57.2332 21.4331 58.2489 21.4331C59.3182 21.4331 60.3607 21.2614 61.3764 20.918C62.3922 20.5483 63.4748 19.9276 64.6242 19.056L69.9169 25.474C68.2061 26.6097 66.2548 27.4813 64.0629 28.0888C61.8709 28.6963 59.7459 29 57.6876 29ZM61.6972 24.2855V13.7473H69.9169V25.474L61.6972 24.2855Z" fill="#4CD8F9"/>
<path d="M73.9487 28.3661V0.633879H81.7274L92.9543 18.7391H88.8645L99.7706 0.633879H107.549L107.629 28.3661H99.0088L98.9286 13.4699H100.292L92.834 25.8702H88.664L80.8854 13.4699H82.5694V28.3661H73.9487Z" fill="#4CD8F9"/>
<path d="M109.157 28.3661L121.427 0.633879H130.729L142.998 28.3661H133.215L124.153 5.07104H127.842L118.78 28.3661H109.157ZM116.455 23.5328L118.86 16.7978H131.771L134.177 23.5328H116.455Z" fill="#4CD8F9"/>
<path d="M168.47 29C166.397 29 164.47 28.6582 162.689 27.9746C160.935 27.2648 159.407 26.2789 158.105 25.0169C156.802 23.7549 155.792 22.2826 155.075 20.6C154.357 18.8911 153.998 17.0244 153.998 15C153.998 12.9756 154.357 11.1221 155.075 9.43944C155.792 7.73052 156.802 6.24507 158.105 4.9831C159.434 3.72113 160.975 2.74836 162.729 2.06479C164.483 1.35493 166.397 1 168.47 1C170.437 1 172.271 1.31549 173.972 1.94648C175.7 2.57747 177.175 3.53709 178.397 4.82535L177.121 6.12676C175.925 4.96995 174.597 4.14178 173.135 3.64225C171.699 3.11643 170.171 2.85352 168.55 2.85352C166.769 2.85352 165.108 3.15587 163.567 3.76056C162.052 4.36526 160.723 5.21972 159.58 6.32394C158.463 7.42817 157.586 8.71643 156.948 10.1887C156.337 11.661 156.032 13.2648 156.032 15C156.032 16.7352 156.337 18.339 156.948 19.8113C157.586 21.2836 158.463 22.5718 159.58 23.6761C160.723 24.7803 162.052 25.6347 163.567 26.2394C165.108 26.8441 166.769 27.1465 168.55 27.1465C170.171 27.1465 171.699 26.8967 173.135 26.3972C174.597 25.8714 175.925 25.0169 177.121 23.8338L178.397 25.1352C177.175 26.4235 175.7 27.3962 173.972 28.0535C172.271 28.6845 170.437 29 168.47 29Z" fill="white"/>
<path d="M179.803 28.8028L192.641 1.19718H194.674L207.511 28.8028H205.318L193.199 2.45915H194.076L181.996 28.8028H179.803ZM184.508 21.0338L185.185 19.338H201.89L202.568 21.0338H184.508Z" fill="white"/>
<path d="M212.577 28.8028V1.19718H214.611V26.9887H230.677V28.8028H212.577Z" fill="white"/>
<path d="M235.898 28.8028V1.19718H237.932V26.9887H253.998V28.8028H235.898Z" fill="white"/>
</svg>
