<svg width="414" height="242" fill="none" xmlns="http://www.w3.org/2000/svg">
  <g clip-path="url(#a)">
    <path d="M96.3009 140.835c-8.0002-4.761-33.7074-25.67-38.7408-29.842-5.0401-4.166 11.3669 16.495 9.1869 19.348-2.2201 2.9-15.3337-1.413-19.7805-2.9-4.4467-1.487 38.8875 28.798 60.0015 42.862" stroke="#fff" stroke-width="1.5995" stroke-miterlimit="10" stroke-linecap="round" stroke-linejoin="round"/>
    <path d="M106.008 150.955s3.113 22.549-.887 31.771c-4 9.229 5.853 5.652 5.853 5.652 20.667-6.248 36.448-25.67 36.448-25.67-21.334-4.467-43.781-15.624-50.6679-11.606.6667-2.009-.8867-11.164-.22-22.77 3.7799-27.907 48.2209-10.937 64.2209-6.918" stroke="#fff" stroke-width="1.5995" stroke-miterlimit="10" stroke-linecap="round" stroke-linejoin="round"/>
    <path d="M165.302 202.897c-9.553-1.674-28.334-12.336-28.334-12.336s5.574-2.96 9.054-4.52c-.293 4.092 13.127 4.092 15.5 4.018" fill="url(#b)"/>
    <path d="M133.195 159.212c1.48 6.845 2 12.798 2 15.33" stroke="#fff" stroke-width="1.5995" stroke-miterlimit="10" stroke-linecap="round" stroke-linejoin="round"/>
    <path d="M134.675 168.093s-22.66-2.726-20.707 6.101c.107 4.574 4.554 8.384 9.107 8.384M147.416 162.715s-22.001-11.164-24.888-21.88c-2.886-10.715-3.553-20.761-17.553-13.173-2.887-3.349-6.6671-4.688-7.5538-2.009" stroke="#fff" stroke-width="1.5995" stroke-miterlimit="10" stroke-linecap="round" stroke-linejoin="round"/>
    <path d="M115.194 138.156c-.446-3.127-2.666-2.679-5.553.221M133.195 143.735c-2.287-5.21-4.447-17.192 12.887-17.192 4.22 11.834-4.22 18.531-12.887 17.192Z" stroke="#fff" stroke-width="1.5995" stroke-miterlimit="10" stroke-linecap="round" stroke-linejoin="round"/>
    <path d="M139.169 127.394c2.64 1.212 4.327 4.025 3.98 7.079-.434 3.797-3.847 6.523-7.627 6.094-1.42-.16-2.693-.75-3.7-1.627M159.897 144.447c-2.186-4.48-2.438-8.861-.564-9.784 1.875-.923 5.167 1.961 7.353 6.442s2.438 8.861.564 9.784c-1.875.923-5.167-1.961-7.353-6.442Z" stroke="#fff" stroke-width="1.5995" stroke-miterlimit="10" stroke-linecap="round" stroke-linejoin="round"/>
    <path d="M353.199 168.515c-2.887 5.136-19.667 25.67-48.114 29.467-28.447 3.797-43.568.295-61.221-11.606-35.094-23.661-29.708-24.947-29.708-24.947l139.043 7.086Z" fill="url(#c)"/>
    <path d="M152.157 148.928c-.526-2.681-.044-5.035 1.076-5.257 1.12-.221 2.454 1.773 2.98 4.455.526 2.681.044 5.035-1.076 5.257-1.119.221-2.454-1.773-2.98-4.455Z" stroke="#fff" stroke-width="1.5995" stroke-miterlimit="10" stroke-linecap="round" stroke-linejoin="round"/>
    <path d="M384.307 156.018c-7.334-1.226-24.334-.891-36.448-16.857-13.553-16.629-40.114-60.9841-115.889-36.205-5 1.896-38.667 21.746-55.668 20.018-6.22-.449-14.887-3.57-15.107-4.688-.226-1.118-7.406 33.111 98.442 57.374 50.221 8.037 82.222-.375 89.116-3.348 0 0 27.48-9.229 35.554-16.294Z" fill="url(#d)"/>
    <path d="m184.776 192.765 6.047 14.82s2.92 1.045 7.267 2.244c.026.013.053.02.086.027 5.587 1.527 13.487 3.295 20.574 3.422 2.707.047 5.773-.06 8.98-.281.007.006.02.006.027 0 7.807-.529 16.413-1.701 22.534-2.786 3.14-.563 5.626-1.099 7.013-1.514.367-.107.8-.228 1.293-.341.027-.007.047-.014.074-.021 6.667-1.627 24.307-4.185 37.081-2.424.673.094 1.353.181 2.033.275 12.567 1.661 25.84 2.839 29.381 2.953h.02c.173.007.326.007.453.007 1.373 0 8.493-.71 16.04-1.989-2.407-3.362-5.393-6.965-8.107-10.394-.106-.141-.22-.281-.333-.415l-15.82-1.822-.007.007h-.007c-.113.04-1.06.348-2.553.797-.1.033-.2.06-.307.093-.053.021-.106.034-.16.054-.833.261-1.68.509-2.54.743-6.2 1.768-16.013 4.206-21.094 3.55-1.793.167-4.2.167-6.926.027-.08 0-.154 0-.234-.007a.0407.0407 0 0 1-.04 0s0 .007-.006 0c-.127-.007-.26-.013-.394-.027h-.053c-6.38-.341-14.267-1.353-19.927-2.585h-.007c-3.286-.717-5.82-1.5-6.88-2.27h-.007c-.266.087-.626.16-1.066.227-10.48 1.568-68.168-1.62-72.435-2.37Z" fill="url(#e)"/>
    <path d="M163.342 159.513c-.04 6.55-.887 13.395-6.22 20.688 0 0-29.334 17.56-47.855 17.412-4-2.23-7.113-5.357-9.3332-8.927.4462-2.973 5.4802-9.229 6.2202-11.164" stroke="#fff" stroke-width="1.5995" stroke-miterlimit="10" stroke-linecap="round" stroke-linejoin="round"/>
    <path d="M169.969 171.307c-3.553 4.353-10.78 8.372-14.333 9.711M190.71 207.659s2.673 1.018 7.38 2.17c.026.014.053.02.086.027 6.54 1.594 16.954 3.429 29.554 3.141a.02.02 0 0 0 .027 0c6.94-.154 14.554-.951 22.534-2.786.546-.127 1.093-.261 1.646-.395 2.247-.556 4.467-1.038 6.661-1.46.026-.007.046-.014.073-.02 14.4-2.773 27.674-2.88 39.114-2.15 12.154.77 22.227 2.484 29.381 2.953h.02c.513.034 1.013.061 1.493.081 3.96.16 9.514-.63 15.16-1.842M318.992 194.473c.087.013.173.026.26.033.047.007.1.013.153.027h.007c1.267.174 2.553.355 3.84.536 4.1.576 8.26 1.158 12.32 1.694M184.776 192.765c15.42-.335 56.841 4.38 73.508 2.143M165.635 202.824c-12-1.413-28.667-12.43-28.667-12.43s5.113-2.23 8.594-3.797c.886 3.569 15.706 3.723 15.706 3.723M233.064 169.164c28.107 8.492 61.154 12.785 92.835 8.291 8.48-1.205 16.86-3.034 25.021-5.585 11.22-3.503 22.02-8.365 32.1-14.808.654-.415 1.307-.843 1.954-1.272-6-1.098-13.921.415-24.181-5.532-6.46-3.737-13.847-10.434-22.26-22.596-21.781-31.4766-73.115-41.5223-112.449-22.101-21.361 10.548-33.414 16.161-42.821 17.58-7.907 1.199-13.947-.569-22.067-4.855-1.374 16.006 29.68 38.16 71.868 50.878Z" stroke="#fff" stroke-width="1.5995" stroke-miterlimit="10" stroke-linecap="round" stroke-linejoin="round"/>
    <path d="M350.92 171.87c-3.547 4.581-11.8 13.575-25.941 20.125-1.886.877-3.886 1.707-5.986 2.478-7.174 2.638-15.607 4.567-25.408 5.156-2.966.174-6.06.228-9.28.141-10.713-.295-19.24-2.15-26.02-4.862h-.007c-2.007-.797-3.853-1.674-5.56-2.605-12.987-7.066-37.707-24.586-39.488-30.318" stroke="#fff" stroke-width="1.5995" stroke-miterlimit="10" stroke-linecap="round" stroke-linejoin="round"/>
    <path d="M324.979 191.995c1.72-4.514 1.42-10.542.92-14.54M296.065 179.23c.193 3.73-.007 8.351-.647 12.651-.413 2.839-1.026 5.532-1.833 7.748M264.538 176.404c-2.18 5.605-7.207 12.717-11.814 15.899h-.007M360.793 150.258c-10.594 6.436-44.741 18.263-86.928 14.908-40.881-3.911-83.442-26.219-90.602-42.025M358.553 182.277c31.04 3.925 55.401-4.052 54.774-25.771-14.874 13.422-23.927 9.256-35.821 3.925" stroke="#fff" stroke-width="1.5995" stroke-miterlimit="10" stroke-linecap="round" stroke-linejoin="round"/>
    <path d="M226.011 130.977c2.98-2.391 14.52-12.798 22.053-11.137 3.327 2.571 9.174 15.926 8.687 20.627M216.53 148.758c.553-1.119 9.467-17.995 9.467-17.995 1.613-5.117 2.613-19.784.973-22.228-1.713-2.558-20.367 7.072-26.44 9.081-.007.007-.02.014-.027.027M323.632 162.514c-.227-1.989-1.42-13.24-1.627-15.886 0-.04-.007-.08-.013-.114-.187-2.471-.28-4.359-.174-5.049.434-2.86 7.14-16.107 10.367-15.437 3.227.663 12.12 8.626 14.64 12.276 1.02 2.618 2.007 10.963 2.627 17.178" stroke="#fff" stroke-width="1.5995" stroke-miterlimit="10" stroke-linecap="round" stroke-linejoin="round"/>
    <path d="M289.032 144.043c-.634-4.688-9.36-14.988-13.194-16.703-3.84-1.714-17.554 10.555-19.087 13.12-1.193 1.996-3.533 14.56-4.82 20.969" stroke="#fff" stroke-width="1.5995" stroke-miterlimit="10" stroke-linecap="round" stroke-linejoin="round"/>
    <path d="M288.972 165.755c-.167-6.925-.407-20.48.28-22.589.926-2.847 11.353-15.839 15.473-15.029 4.12.811 15.347 9.557 17.001 13.977M248.064 119.833c.907-6.684 4.687-20.5068 8.907-23.4066M276.085 126.323c1.78-12.055 3.96-28.2423 5.96-29.8027M304.305 127.441c-2-14.064-1.333-24.056-.666-25.617M332.186 126.028c-2.1-5.954-4.154-9.47-6.547-11.981M226.97 108.535c2.447-3.864 6.82-6.563 10.374-7.662M338.525 159.306c1.087 2.886 5.007 14.405 5.007 14.405M349.752 155.904c1.26 2.812 5.887 14.064 5.887 14.064M323.745 162.634c.507 3.041 2.12 15.109 2.12 15.109M307.938 165.018c.314 2.813 1.187 13.917 1.187 13.917M288.905 165.24c.146 2.725.366 13.467.366 13.467M252.131 161.04c-.68 2.478-3.674 12.162-3.674 12.162M269.638 177.073l1.48-12.128M216.823 148.423c-.933 1.453-7.187 12.001-7.187 12.001M234.47 156.352c-1.22 2.458-4.947 11.272-4.947 11.272M195.47 136.596c-2.167.951-12.794 9.229-12.794 9.229M358.233 151.845c2.28 1.293 14.667 10.789 14.667 10.789M196.603 185.706s-9.807 5.539-11.827 7.059c-2.013 1.52 17.127 29.353 6.047 38.461-11.087 9.108-40.808 1.521-40.808 1.521l18.141-4.775-16.634-3.322s9.427-.784 16.48-3.818c7.054-3.033-2.253-15.356-5.78-26.493-3.526-11.138 6.514-17.862 16.594-20.386M343.679 207.157c.08.047 11.987 10.394 10.18 13.595-3.786 6.704-10.827 13.06-10.827 13.06l15.241-7.461-11.574 14.821s28.241-12.015 31.587-26.005c3.341-13.991-22.647-24.398-20.06-38.094.9-4.741 5.98-9.952 5.98-9.952" stroke="#fff" stroke-width="1.5995" stroke-miterlimit="10" stroke-linecap="round" stroke-linejoin="round"/>
    <path d="M330.206 189.43v.006c1.313 2.096 3.093 4.447 5.033 6.912l8.6 11.03" stroke="#fff" stroke-width="1.5995" stroke-miterlimit="10" stroke-linecap="round" stroke-linejoin="round"/>
  </g>
  <path fill-rule="evenodd" clip-rule="evenodd" d="M180 0H40v20H0v20h20v20h20V40h100V20h40V0ZM60 80V60H40v20h20Zm0 0v20h20V80H60Z" fill="url(#f)"/>
  <path d="M60.1409 15.3188c-.6933 0-1.3226-.1173-1.888-.352a4.1654 4.1654 0 0 1-1.472-1.024c-.4053-.4587-.72-1.0187-.944-1.68-.224-.672-.336-1.44-.336-2.304v-.864c0-.8213.112-1.552.336-2.192.2347-.6507.5547-1.1947.96-1.632.4054-.448.8907-.7894 1.456-1.024.576-.2347 1.2054-.352 1.888-.352.6827 0 1.3067.1173 1.872.352.576.224 1.0667.56 1.472 1.008.416.4373.736.9813.96 1.632.224.64.336 1.376.336 2.208v.864c0 .864-.1173 1.632-.352 2.304-.224.6613-.5386 1.2213-.944 1.68-.4053.448-.896.7893-1.472 1.024-.5653.2347-1.1893.352-1.872.352Zm0-1.024c.512 0 .9814-.0907 1.408-.272.4267-.1813.7947-.4533 1.104-.816.3094-.3627.5494-.8107.72-1.344.1707-.544.256-1.1787.256-1.904v-.864c0-.672-.0906-1.264-.272-1.776-.1706-.5227-.4106-.96-.72-1.312-.3093-.3627-.6773-.6347-1.104-.816-.4266-.1814-.8906-.272-1.392-.272-.512 0-.9813.0907-1.408.272-.4266.1813-.7946.448-1.104.8-.3093.352-.5493.7893-.72 1.312-.1706.512-.256 1.1093-.256 1.792v.864c0 .7147.0854 1.344.256 1.888.1814.5333.4267.9813.736 1.344.3094.3627.6774.64 1.104.832.4267.1813.8907.272 1.392.272Zm7.0394-7.088h5.12v.96h-4.064v7.04h-1.056v-8Zm9.5244 8.112c-1.0773 0-1.936-.3307-2.576-.992-.6293-.6613-.944-1.6107-.944-2.848v-.544c0-.608.08-1.152.24-1.632.1707-.48.4107-.88.72-1.2.3093-.3307.6773-.5814 1.104-.752.4373-.1707.9227-.256 1.456-.256 1.0773 0 1.9307.3306 2.56.992.64.6613.96 1.6106.96 2.848v.544c0 .608-.0853 1.152-.256 1.632-.16.48-.3947.8853-.704 1.216-.3093.32-.6827.5653-1.12.736-.4267.1707-.9067.256-1.44.256Zm0-.96c.736 0 1.3227-.24 1.76-.72.448-.48.672-1.2.672-2.16v-.544c0-.9493-.224-1.664-.672-2.144-.448-.4907-1.0347-.736-1.76-.736-.736 0-1.328.24-1.776.72-.4373.48-.656 1.2-.656 2.16v.544c0 .9493.224 1.6693.672 2.16.448.48 1.0347.72 1.76.72Zm6.0844-.512h1.28l-1.12 3.76h-.96l.8-3.76Zm11.2928 1.472c-1.088 0-1.952-.3467-2.592-1.04-.6293-.704-.944-1.7973-.944-3.28v-.864c0-.608.0267-1.184.08-1.728.0534-.544.144-1.04.272-1.488.1387-.448.3254-.8427.56-1.184.2347-.352.5387-.64.912-.864.3307-.192.656-.32.976-.384a7.8547 7.8547 0 0 1 1.04-.16c.3627-.032.752-.0694 1.168-.112.416-.0534.88-.16 1.392-.32v.976c-.4053.1493-.8.2453-1.184.288-.3733.0427-.736.08-1.088.112-.3413.032-.6666.0746-.976.128-.3093.0533-.592.16-.848.32-.3946.256-.6933.6186-.896 1.088-.192.4693-.32 1.0827-.384 1.84h.032c.2774-.448.64-.7894 1.088-1.024.4587-.2454.9867-.368 1.584-.368.48 0 .9227.0853 1.328.256.4054.1707.752.416 1.04.736.2987.32.528.7146.688 1.184.1707.4693.256.9973.256 1.584v.544c0 .5867-.0853 1.1147-.256 1.584-.1706.4587-.4106.8533-.72 1.184-.2986.32-.6666.5653-1.104.736-.4266.1707-.9013.256-1.424.256Zm0-.96c.7254 0 1.3067-.2347 1.744-.704.448-.48.672-1.1787.672-2.096v-.544c0-.9173-.224-1.6107-.672-2.08-.4373-.48-1.0186-.72-1.744-.72-.7466 0-1.344.2347-1.792.704-.4373.4693-.656 1.168-.656 2.096v.544c0 .9067.224 1.6.672 2.08.448.48 1.04.72 1.776.72Zm13.3231-7.152h1.056v8h-1.056v-8Zm-7.5841 0h1.0561v2.88h1.824c1.035 0 1.797.2293 2.288.688.501.4587.752 1.0827.752 1.872 0 .7787-.251 1.4027-.752 1.872-.501.4587-1.264.688-2.288.688h-2.8801v-8Zm1.0561 3.84v3.2h1.744c.736 0 1.259-.1387 1.568-.416.309-.2773.464-.672.464-1.184 0-.512-.16-.9067-.48-1.184-.309-.2773-.827-.416-1.552-.416h-1.744Zm13.183 4.272c-.501 0-.96-.08-1.376-.24-.416-.1707-.773-.4213-1.072-.752-.288-.3307-.512-.7413-.672-1.232-.16-.4907-.24-1.056-.24-1.696v-.544c0-.5973.08-1.1253.24-1.584.171-.4693.4-.864.688-1.184.299-.32.651-.5654 1.056-.736.416-.1707.875-.256 1.376-.256.47 0 .891.064 1.264.192.374.1173.694.288.96.512.267.2133.48.464.64.752.16.2773.272.576.336.896h-1.088c-.117-.3947-.336-.7253-.656-.992-.32-.2667-.778-.4-1.376-.4-.682 0-1.248.24-1.696.72-.437.48-.656 1.1733-.656 2.08v.544c0 .9813.224 1.7227.672 2.224.448.4907 1.008.736 1.68.736.598 0 1.056-.1387 1.376-.416.32-.2773.539-.656.656-1.136h1.088c-.064.3627-.176.6987-.336 1.008-.16.2987-.373.56-.64.784-.266.224-.586.4-.96.528-.373.128-.794.192-1.264.192Zm6.83-7.152h-2.672v-.96h6.4v.96h-2.672v7.04h-1.056v-7.04Zm5.415-.96h.832l.128 1.2h.032c.352-.4587.742-.7894 1.168-.992.427-.2133.928-.32 1.504-.32.47 0 .902.0853 1.296.256.395.16.731.4053 1.008.736.288.32.512.72.672 1.2.16.48.24 1.0293.24 1.648v.544c0 .6187-.08 1.168-.24 1.648-.16.4693-.384.8693-.672 1.2-.288.32-.629.5653-1.024.736-.394.1707-.821.256-1.28.256-1.152 0-2.01-.4107-2.576-1.232h-.032v4.32h-1.056v-11.2Zm3.424 7.152c.704 0 1.275-.2347 1.712-.704.438-.48.656-1.2053.656-2.176v-.544c0-.9493-.224-1.664-.672-2.144-.437-.4907-1.002-.736-1.696-.736-.704 0-1.274.24-1.712.72-.437.4693-.656 1.1893-.656 2.16v.544c0 .9493.219 1.6693.656 2.16.448.48 1.019.72 1.712.72Zm8.741.96c-1.077 0-1.936-.3307-2.576-.992-.629-.6613-.944-1.6107-.944-2.848v-.544c0-.608.08-1.152.24-1.632.171-.48.411-.88.72-1.2.31-.3307.678-.5814 1.104-.752.438-.1707.923-.256 1.456-.256 1.078 0 1.931.3306 2.56.992.64.6613.96 1.6106.96 2.848v.544c0 .608-.085 1.152-.256 1.632-.16.48-.394.8853-.704 1.216-.309.32-.682.5653-1.12.736-.426.1707-.906.256-1.44.256Zm0-.96c.736 0 1.323-.24 1.76-.72.448-.48.672-1.2.672-2.16v-.544c0-.9493-.224-1.664-.672-2.144-.448-.4907-1.034-.736-1.76-.736-.736 0-1.328.24-1.776.72-.437.48-.656 1.2-.656 2.16v.544c0 .9493.224 1.6693.672 2.16.448.48 1.035.72 1.76.72Zm9.757-7.152h3.04c.939 0 1.627.1973 2.064.592.438.3947.656.928.656 1.6 0 .352-.09.672-.272.96-.17.288-.416.512-.736.672v.032c.438.1707.768.416.992.736.224.32.336.6933.336 1.12 0 .7147-.218 1.2747-.656 1.68-.437.4053-1.125.608-2.064.608h-3.36v-8Zm4.672 2.208c0-.3947-.128-.6987-.384-.912-.256-.224-.698-.336-1.328-.336h-1.904v2.512h1.904c.63 0 1.072-.1067 1.328-.32.256-.224.384-.5387.384-.944Zm.32 3.488c0-.4373-.128-.768-.384-.992-.256-.224-.698-.336-1.328-.336h-2.224v2.672h2.224c.63 0 1.072-.112 1.328-.336.256-.224.384-.56.384-1.008Zm10.905-5.696h1.056v8h-1.056v-8Zm-7.584 0h1.056v2.88h1.824c1.034 0 1.797.2293 2.288.688.501.4587.752 1.0827.752 1.872 0 .7787-.251 1.4027-.752 1.872-.502.4587-1.264.688-2.288.688h-2.88v-8Zm1.056 3.84v3.2h1.744c.736 0 1.258-.1387 1.568-.416.309-.2773.464-.672.464-1.184 0-.512-.16-.9067-.48-1.184-.31-.2773-.827-.416-1.552-.416h-1.744ZM13.4822 34.112c-.5013 0-.96-.08-1.376-.24-.416-.1707-.7733-.4213-1.072-.752-.288-.3307-.512-.7413-.672-1.232-.16-.4907-.24-1.056-.24-1.696v-.544c0-.5973.08-1.1253.24-1.584.1707-.4693.4-.864.688-1.184a3.045 3.045 0 0 1 1.056-.736c.416-.1707.8747-.256 1.376-.256.4693 0 .8907.064 1.264.192.3733.1173.6933.288.96.512.2667.2133.48.464.64.752.16.2773.272.576.336.896h-1.088c-.1173-.3947-.336-.7253-.656-.992-.32-.2667-.7787-.4-1.376-.4-.6827 0-1.248.24-1.696.72-.4373.48-.656 1.1733-.656 2.08v.544c0 .9813.224 1.7227.672 2.224.448.4907 1.008.736 1.68.736.5973 0 1.056-.1387 1.376-.416.32-.2773.5387-.656.656-1.136h1.088c-.064.3627-.176.6987-.336 1.008-.16.2987-.3733.56-.64.784-.2667.224-.5867.4-.96.528-.3733.128-.7947.192-1.264.192ZM18.6803 26h1.056v3.44h1.792c.0213-.5547.1173-1.0507.288-1.488.1707-.448.4053-.8213.704-1.12.2987-.3093.6507-.544 1.056-.704.4053-.16.848-.24 1.328-.24.5013 0 .96.0853 1.376.256.416.1707.768.4213 1.056.752.2987.32.528.72.688 1.2.1707.4693.256 1.0133.256 1.632v.544c0 .608-.0853 1.152-.256 1.632-.16.48-.3893.8853-.688 1.216-.2987.32-.656.5653-1.072.736-.416.1707-.8693.256-1.36.256-.5013 0-.96-.08-1.376-.24-.4053-.1707-.7573-.4107-1.056-.72-.288-.32-.5173-.7093-.688-1.168-.1707-.4587-.256-.9867-.256-1.584h-1.792V34h-1.056v-8Zm6.224 7.152c.6613 0 1.2053-.24 1.632-.72.4373-.48.656-1.2.656-2.16v-.544c0-.48-.0587-.896-.176-1.248-.1173-.3627-.2773-.6613-.48-.896-.2027-.2453-.4427-.4267-.72-.544-.2773-.128-.5813-.192-.912-.192-.672 0-1.2213.2347-1.648.704-.4267.4693-.64 1.168-.64 2.096v.544c0 .992.2133 1.7333.64 2.224.4373.4907.9867.736 1.648.736Zm4.4235-.112h.88c.1707-.2667.3093-.5387.416-.816.1173-.2773.208-.592.272-.944.0747-.352.1227-.7573.144-1.216.032-.4693.048-1.024.048-1.664V26h5.44v7.04h1.04v3.04h-1.024V34h-6.192v2.08h-1.024v-3.04Zm6.144 0v-6.08h-3.36v1.44c0 .576-.0107 1.0827-.032 1.52s-.0587.8373-.112 1.2c-.0533.352-.128.6827-.224.992a7.7789 7.7789 0 0 1-.352.896v.032h4.08Zm6.0854 1.072c-.8853 0-1.5467-.2027-1.984-.608-.4373-.416-.656-.9867-.656-1.712 0-.7573.2613-1.36.784-1.808.5227-.448 1.3547-.672 2.496-.672h2.064v-.592c0-.64-.1547-1.104-.464-1.392-.3093-.2987-.816-.448-1.52-.448-.6507 0-1.1307.112-1.44.336-.2987.224-.4693.512-.512.864h-1.088c.0213-.288.1013-.5653.24-.832.1387-.2667.3307-.5013.576-.704.256-.2027.5707-.3627.944-.48.3733-.1173.8-.176 1.28-.176 1.0347 0 1.7973.24 2.288.72.5013.4693.752 1.1733.752 2.112V34h-.832l-.128-1.36h-.032c-.32.48-.72.848-1.2 1.104-.4693.2453-.992.368-1.568.368Zm.08-.992c.384 0 .736-.0587 1.056-.176.32-.128.5973-.2987.832-.512.2347-.224.416-.4853.544-.784.128-.3093.192-.6453.192-1.008v-.432h-1.984c-.8213 0-1.408.144-1.76.432-.3413.288-.512.672-.512 1.152 0 .4053.128.7307.384.976.2667.2347.6827.352 1.248.352Zm9.2844-.08h.88c.1706-.2667.3093-.5387.416-.816.1173-.2773.208-.592.272-.944.0746-.352.1226-.7573.144-1.216.032-.4693.048-1.024.048-1.664V26h5.44v7.04h1.04v3.04h-1.024V34h-6.192v2.08h-1.024v-3.04Zm6.144 0v-6.08h-3.36v1.44c0 .576-.0107 1.0827-.032 1.52-.0214.4373-.0587.8373-.112 1.2-.0534.352-.128.6827-.224.992a7.7971 7.7971 0 0 1-.352.896v.032h4.08Zm6.8891 1.072c-1.0773 0-1.936-.3307-2.576-.992-.6293-.6613-.944-1.6107-.944-2.848v-.544c0-.608.08-1.152.24-1.632.1707-.48.4107-.88.72-1.2.3093-.3307.6773-.5813 1.104-.752.4373-.1707.9227-.256 1.456-.256 1.0773 0 1.9307.3307 2.56.992.64.6613.96 1.6107.96 2.848v.544c0 .608-.0853 1.152-.256 1.632-.16.48-.3947.8853-.704 1.216-.3093.32-.6827.5653-1.12.736-.4267.1707-.9067.256-1.44.256Zm0-.96c.736 0 1.3227-.24 1.76-.72.448-.48.672-1.2.672-2.16v-.544c0-.9493-.224-1.664-.672-2.144-.448-.4907-1.0347-.736-1.76-.736-.736 0-1.328.24-1.776.72-.4373.48-.656 1.2-.656 2.16v.544c0 .9493.224 1.6693.672 2.16.448.48 1.0347.72 1.76.72Zm8.8929.96c-1.088 0-1.952-.3467-2.592-1.04-.6294-.704-.944-1.7973-.944-3.28v-.864c0-.608.0266-1.184.08-1.728.0533-.544.144-1.04.272-1.488.1386-.448.3253-.8427.56-1.184.2346-.352.5386-.64.912-.864.3306-.192.656-.32.976-.384a7.8447 7.8447 0 0 1 1.04-.16c.3626-.032.752-.0693 1.168-.112.416-.0533.88-.16 1.392-.32v.976c-.4054.1493-.8.2453-1.184.288-.3734.0427-.736.08-1.088.112-.3414.032-.6667.0747-.976.128-.3094.0533-.592.16-.848.32-.3947.256-.6934.6187-.896 1.088-.192.4693-.32 1.0827-.384 1.84h.032c.2773-.448.64-.7893 1.088-1.024.4586-.2453.9866-.368 1.584-.368.48 0 .9226.0853 1.328.256.4053.1707.752.416 1.04.736.2986.32.528.7147.688 1.184.1706.4693.256.9973.256 1.584v.544c0 .5867-.0854 1.1147-.256 1.584-.1707.4587-.4107.8533-.72 1.184-.2987.32-.6667.5653-1.104.736-.4267.1707-.9014.256-1.424.256Zm0-.96c.7253 0 1.3066-.2347 1.744-.704.448-.48.672-1.1787.672-2.096v-.544c0-.9173-.224-1.6107-.672-2.08-.4374-.48-1.0187-.72-1.744-.72-.7467 0-1.344.2347-1.792.704-.4374.4693-.656 1.168-.656 2.096v.544c0 .9067.224 1.6.672 2.08.448.48 1.04.72 1.776.72ZM78.5866 26h.832l.128 1.2h.032c.352-.4587.7413-.7893 1.168-.992.4266-.2133.928-.32 1.504-.32.4693 0 .9013.0853 1.296.256.3946.16.7306.4053 1.008.736.288.32.512.72.672 1.2.16.48.24 1.0293.24 1.648v.544c0 .6187-.08 1.168-.24 1.648-.16.4693-.384.8693-.672 1.2a2.924 2.924 0 0 1-1.024.736c-.3947.1707-.8214.256-1.28.256-1.152 0-2.0107-.4107-2.576-1.232h-.032v4.32h-1.056V26Zm3.424 7.152c.704 0 1.2746-.2347 1.712-.704.4373-.48.656-1.2053.656-2.176v-.544c0-.9493-.224-1.664-.672-2.144-.4374-.4907-1.0027-.736-1.696-.736-.704 0-1.2747.24-1.712.72-.4374.4693-.656 1.1893-.656 2.16v.544c0 .9493.2186 1.6693.656 2.16.448.48 1.0186.72 1.712.72Zm7.781.96c-.8854 0-1.5467-.2027-1.984-.608-.4374-.416-.656-.9867-.656-1.712 0-.7573.2613-1.36.784-1.808.5226-.448 1.3546-.672 2.496-.672h2.064v-.592c0-.64-.1547-1.104-.464-1.392-.3094-.2987-.816-.448-1.52-.448-.6507 0-1.1307.112-1.44.336-.2987.224-.4694.512-.512.864h-1.088c.0213-.288.1013-.5653.24-.832.1386-.2667.3306-.5013.576-.704.256-.2027.5706-.3627.944-.48.3733-.1173.8-.176 1.28-.176 1.0346 0 1.7973.24 2.288.72.5013.4693.752 1.1733.752 2.112V34h-.832l-.128-1.36h-.032c-.32.48-.72.848-1.2 1.104-.4694.2453-.992.368-1.568.368Zm.08-.992c.384 0 .736-.0587 1.056-.176.32-.128.5973-.2987.832-.512.2346-.224.416-.4853.544-.784.128-.3093.192-.6453.192-1.008v-.432h-1.984c-.8214 0-1.408.144-1.76.432-.3414.288-.512.672-.512 1.152 0 .4053.128.7307.384.976.2666.2347.6826.352 1.248.352Zm5.2843.032h.24c.3307 0 .5867-.112.768-.336.1814-.224.3147-.5493.4-.976.096-.4267.1494-.944.16-1.552.0214-.608.032-1.2907.032-2.048V26h5.4401v8h-1.056v-7.04h-3.3281v1.28c0 .864-.016 1.6533-.048 2.368-.0213.7147-.112 1.3333-.272 1.856-.1493.5227-.3893.928-.72 1.216-.32.288-.7786.432-1.376.432h-.24v-.96ZM104.915 26h1.056v6.8h.032l4-6.8h1.472v8h-1.056v-6.8h-.032l-4 6.8h-1.472v-8Zm12.161 8.112c-.501 0-.96-.08-1.376-.24-.416-.1707-.773-.4213-1.072-.752-.288-.3307-.512-.7413-.672-1.232-.16-.4907-.24-1.056-.24-1.696v-.544c0-.5973.08-1.1253.24-1.584.171-.4693.4-.864.688-1.184.299-.32.651-.5653 1.056-.736.416-.1707.875-.256 1.376-.256.469 0 .891.064 1.264.192.373.1173.693.288.96.512.267.2133.48.464.64.752.16.2773.272.576.336.896h-1.088c-.117-.3947-.336-.7253-.656-.992-.32-.2667-.779-.4-1.376-.4-.683 0-1.248.24-1.696.72-.437.48-.656 1.1733-.656 2.08v.544c0 .9813.224 1.7227.672 2.224.448.4907 1.008.736 1.68.736.597 0 1.056-.1387 1.376-.416.32-.2773.539-.656.656-1.136h1.088c-.064.3627-.176.6987-.336 1.008-.16.2987-.373.56-.64.784-.267.224-.587.4-.96.528s-.795.192-1.264.192ZM122.274 26h1.056v2.88h1.824c1.035 0 1.797.2293 2.288.688.501.4587.752 1.0827.752 1.872 0 .7787-.251 1.4027-.752 1.872-.501.4587-1.264.688-2.288.688h-2.88v-8Zm1.056 3.84v3.2h1.744c.736 0 1.259-.1387 1.568-.416.309-.2773.464-.672.464-1.184 0-.512-.16-.9067-.48-1.184-.309-.2773-.827-.416-1.552-.416h-1.744Z" fill="#fff"/>
  <defs>
    <linearGradient id="b" x1="155.64" y1="277.905" x2="139.372" y2="-12.6959" gradientUnits="userSpaceOnUse">
      <stop stop-color="#3FFFD8"/>
      <stop offset=".4888" stop-color="#B9C3FC"/>
      <stop offset="1" stop-color="#FF7EA7"/>
    </linearGradient>
    <linearGradient id="c" x1="287.236" y1="232.09" x2="281.332" y2="126.626" gradientUnits="userSpaceOnUse">
      <stop stop-color="#3FFFD8"/>
      <stop offset=".4888" stop-color="#B9C3FC"/>
      <stop offset="1" stop-color="#FF7EA7"/>
    </linearGradient>
    <linearGradient id="d" x1="278.69" y1="246.567" x2="266.73" y2="32.9363" gradientUnits="userSpaceOnUse">
      <stop stop-color="#3FFFD8"/>
      <stop offset=".4888" stop-color="#B9C3FC"/>
      <stop offset="1" stop-color="#FF7EA7"/>
    </linearGradient>
    <linearGradient id="e" x1="267.573" y1="260.274" x2="251.282" y2="-30.7309" gradientUnits="userSpaceOnUse">
      <stop stop-color="#3FFFD8"/>
      <stop offset=".4888" stop-color="#B9C3FC"/>
      <stop offset="1" stop-color="#FF7EA7"/>
    </linearGradient>
    <linearGradient id="f" x1="179.981" y1="50" x2=".0115" y2="50" gradientUnits="userSpaceOnUse">
      <stop stop-color="#68FFE0"/>
      <stop offset=".5729" stop-color="#B9C3FC"/>
      <stop offset="1" stop-color="#FF7EA7"/>
    </linearGradient>
    <clipPath id="a">
      <path fill="#fff" transform="matrix(-1 0 0 1 413.987 95)" d="M0 0h367.988v146.828H0z"/>
    </clipPath>
  </defs>
</svg>
