<svg width="55" height="30" fill="none" xmlns="http://www.w3.org/2000/svg">
  <path d="M10.58 13.9465c.1-.5556-.06-.9259-.7-.9259H7.9l-.18.9465H9.4c.1 0 .14.0617.12.1852l-.22 1.1522H8.26l.16-.8024L6 15.6955h1.8l-.16.8024 1.58-.7819-.2 1.1317c-.02.1235-.08.1646-.2.1646H7.14l-.18.9671h1.98c.64 0 .94-.3909 1.04-.9259l.6-3.107Zm3.26 4.0329L14.78 13h-2.2c-.64 0-.96.3909-1.06.9259l-1.12 4.0535h1.08l1.02-3.8271c.02-.1235.08-.1852.18-.1852h.88l-.76 4.0123h1.04Zm3.5-2.3045-.22 1.214c-.02.1234-.1.1852-.2.1852h-.88l.3-1.5844h.88c.12.0206.16.0617.12.1852Zm1.06-.1235c.1-.5555-.06-.9465-.7-.9465h-1.18l.3-1.5843h-1.04L14.84 18h2.22c.66 0 .94-.3909 1.06-.9259l.28-1.5227Zm3.42-1.5843-.58 3.0452h-1.1l.76-2.86c.02-.1235.08-.1852.18-.1852h.74Zm.46 3.0452L23.04 13h-2.08c-.64 0-.96.3909-1.06.9259l-.84 3.0659h-.44l-.2.967H22.4l.18-.967h-.3v.0205Zm3.6-2.86-.5 2.6954c-.04.1235-.1.1646-.2.1646h-.74c-.1 0-.14-.0411-.12-.1646l.52-2.6954c.02-.1235.06-.1852.18-.1852h.74c.1 0 .14.0617.12.1852Zm1.06-.2058c.1-.5556-.06-.9259-.7-.9259h-1.32c-.64 0-.96.3909-1.08.9259l-.58 3.107c-.1.5556.06.9259.7.9259h1.34c.66 0 .96-.3909 1.06-.9259l.58-3.107Zm2.94.2058-.24 1.2345c-.02.1441-.08.1852-.2.1852h-.88l.32-1.6049h.88c.1 0 .14.0617.12.1852Zm1.06-.2058c.12-.5556-.06-.9259-.7-.9259h-2.2L27.1 18h1l.28-1.4403h1.2c.64 0 .9-.391 1.02-.9465l.34-1.6667Zm2.12.3704-.16 1.9341h-.72l.82-1.9341h.06Zm.86 3.6625L34.04 13h-1.4l-2.32 4.9794h1.12l.38-.9259h1l-.08.9259h1.18Zm3.82-4.0123-.58 3.0452h-1.1l.76-2.86c.02-.1235.08-.1852.18-.1852h.74Zm.46 3.0452L38.96 13h-2.08c-.64 0-.96.3909-1.06.9259l-.84 3.0659h-.44l-.2.967H38.32l.18-.967h-.3v.0205Zm3.72-2.86-.52 2.6954c-.02.1235-.08.1646-.18.1646h-.74c-.1 0-.14-.0411-.12-.1646l.5-2.6954c.04-.1235.1-.1852.18-.1852h.74c.1 0 .16.0617.14.1852Zm.34-1.1317h-1.34c-.64 0-.94.3909-1.04.9259l-.58 3.107c-.1.5556.06.9259.7.9259h1.34c.64 0 .94-.3909 1.04-.9259l.6-3.107c.08-.5556-.08-.9259-.72-.9259Zm1.72 3.8271L43.76 18h-1.02l.22-1.1523h1.02Zm5.5.4321c-.08.4116-.3.6996-.78.6996h-.86c-.48 0-.6-.288-.52-.6996l.52-2.7777h.74l-.5 2.6543c-.02.0617 0 .1029.04.1029h.54c.06 0 .08-.0206.1-.1029l.5-2.6543H50l-.52 2.7777Zm-3.16-1.9753-.18.8642c-.02.1029-.06.1235-.14.1235h-.6l.22-1.1111h.62c.06 0 .1.0411.08.1234Zm.24-.8024h-1.54l-.66 3.4773h.7l.2-1.0082h.34l.16 1.0082h.78l-.2-1.0288c.28-.0823.42-.3292.48-.6378l.22-1.1523c.1-.391-.02-.6584-.48-.6584Z" fill="#fff"/>
</svg>
