<svg width="55" height="30" fill="none" xmlns="http://www.w3.org/2000/svg">
  <g clip-path="url(#a)">
    <path d="M37.4083 17.9303c2.3372-1.081 2.8975-2.4449 2.1793-2.8322-1.0597-.5203-3.9766.41-3.6415 2.9651-.1449.0754-.4348.2139-.4348.2139l.1911.5146s.408-.2139.5132-.2771c.3425.2431.5207.376 1.0468.3873 1.1261.0235 2.0935-1.0753 2.0935-1.0753l-.2834-.3874c.0074 0-1.2304 1.0462-1.6642.4911Zm.3092-1.5664c.336-.5203.876-.9247 1.1455-.7634.2631.1621-.2705.983-1.5277 1.8614-.0526-.0802.0462-.5778.3822-1.098Zm-21.4844 2.538c-.1708 0-.4283-.0575-.612-.2252-.5594-.5146-.0333-2.2545.0794-2.6305.0129-.0349-.0194-.0697-.0591-.0697a.0692.0692 0 0 0-.0591.0292c-.2372.4222-1.5212 2.8962-2.6538 2.8962h-.0655c-1.1013-.0923-.9563-1.4222-.6139-2.2317h1.7714c-.1449.3468-.1911.5664-.1911.6823.0065.081.0858.1272.1578.0924.1847-.0867.4874-.4336.7505-.8323.4745-.7342 1.0938-1.8322 2.1535-4.6126h1.9422c-.5733 1.5494-1.0403 2.9481-1.297 4.5494-.0129.0811.0924.1443.1782.0811.5529-.4571 2.5744-4.295 2.699-4.6305h1.9486s-1.9162 4.6532-1.7584 5.4335c.0268.1443.204.1621.2898.0633.1117-.1216.2705-.3007.3822-.4101l.2769.2431c-.5529.6013-1.4547 1.6824-2.351 1.5551a.7922.7922 0 0 1-.3757-.1791c-.9351-.7107.3692-3.0923.599-3.6531.0527-.1216.0988-.2367.132-.3063.013-.0349-.0129-.0754-.059-.0754a.0692.0692 0 0 0-.0591.0292c-.0462.0867-.1643.312-.2105.3873-.5723 1.0454-1.9024 3.8144-2.9953 3.8144Zm18.3035-5.7115c-.8622-.017-1.416.4506-1.416.4506l.0129.4571s.6194-.5495 1.2646-.312c.4219.1499.7376.5834.5003 1.3411-.0129.0462-.0397.1329-.0526.1791-.1846-.3468-.8695-.6126-1.824.0235-.6978.4627-.876.9538-1.0135 1.3525-.1975.5835-.1846 1.214-.0332 1.59.0987.2488.3618.5259.731.6475 1.5803.5259 2.8246-1.6183 3.2068-3.1621.2437-.9773.4283-2.5381-1.3763-2.5673Zm-.8492 4.6937c-.1782.1037-.481.1499-.5271-.3298-.0591-.688.5132-1.4968.6849-1.688.2963-.3177.6978-.3355.6914.1621-.0065.5786-.408 1.6021-.8492 1.8557Zm-4.7668-5.0924c-.935-.2836-4.2405.6362-5.327 3.8436-.132.0349-.7707.1735-.7707.1735l-.277.6588.9813-.2658s-.1053 1.6475 1.5406 1.6993c1.2969-.0405 1.9753-1.7163 1.5609-2.8557-.0794.0348-1.1197.474-1.1197.474s.2169 1.1159-.2437 1.3704c-.072.0405-.1643.0348-.2243-.0405-.132-.1621-.2169-.59-.0729-1.1564 2.3769-1.0867 4.0033-2.9944 4.1021-3.6532.0351-.1669-.1163-.2366-.1496-.248Zm-2.9565 2.8388c-.4413.2949-.7837.4449-.7837.4449s.1246-.2545.2169-.3987c.2566-.3761 1.4815-1.8266 2.5089-2.0924.0397-.0114.072.017.0655.0518.001.3177-1.3024 1.526-2.0076 1.9944ZM30.8628 18c-.0129.0462.0397.0697.0729.0519.1578-.0867.3683-.2367.3683-.2367l.132.3525c-.0794.0754-.7108.5146-1.1058.6767-.4283.1734-.8169-.0575-.876-.3355-.0591-.3233.1255-.7455.1255-.7455s-.6784.6823-1.3698 1.0113c-.1911.0924-.336.1272-.4542.1272-.467-.0113-.612-.4043-.5593-.6183.059-.2544.6913-1.9595.7707-2.2366.0065-.0292-.0268-.0575-.0655-.0519-.1911.0462-.6914.3355-.6914.3355v-.474s1.4483-.8671 1.8111-.9595c.336-.0811.6258.0867.54.4222-.0397.2309-.9813 2.2374-.9813 2.4911 0 .0462.0462.0518.0591.0462.2705-.0697.7643-.4393 1.1391-.9652.3554-.4911.5926-1.1102.8889-1.8784h1.2572c-.0009.004-.9563 2.5648-1.0615 2.987Zm13.1362-2.4044c.0267.3582-.3619 2.2488-1.9422 3.0057-.468.2253-.7837.312-1.067.3006-.6711-.017-.9877-.4975-1.0597-.6531-.7708-1.6767 1.4815-3.231 1.4815-3.231h1.3034s-1.9883 1.3931-1.7123 2.6305c.2169.7512 1.0135.3874 1.4547-.4627.0859-.1678.6194-1.2837.2834-1.3007-.2963-.017-.6914.5316-.6914.5316l-.2769-.3703c.2169-.2431.8234-.8785 1.5009-1.081.1126-.0284.7191-.1386.7256.6304Zm-21.8537 2.3931c.2899 0 .5197.2025.5197.457s-.2308.4571-.5197.4571c-.2898 0-.5206-.2026-.5206-.4571.0009-.2553.2372-.457.5206-.457Z" fill="#fff"/>
  </g>
  <defs>
    <clipPath id="a">
      <path fill="#fff" transform="translate(12 12)" d="M0 0h32v7H0z"/>
    </clipPath>
  </defs>
</svg>
