<svg width="562" height="690" fill="none" xmlns="http://www.w3.org/2000/svg">
  <g clip-path="url(#a)">
    <path d="m206.24 476.962 4.765 2.797 16.138 90.88.675 3.799M69.7351 477.826h-7.9418l.6592 3.954.7544 4.489a3.6736 3.6736 0 0 1-1.5723.449 3.6349 3.6349 0 0 1-1.6044-.285c-2.8749-1.372-3.2879-7.234-.9212-13.087 2.3666-5.854 6.6234-9.497 9.5301-8.107 2.9067 1.39 3.2482 6.907 1.096 12.587ZM426.87 483.8c-19.648-38.547-74.208-37.701-112.527-100.429a61.8406 61.8406 0 0 1-2.192-3.954l-.326-.673c-.461-.907-.881-1.831-1.294-2.772-.048-.12-.096-.215-.135-.302l-.135-.319c-8.991-21.082-9.888-49.485-9.888-51.004v-.061M448.885 622.542c-12.54 13.813-28.035 20.297-41.75 19.062-3.892-.325-7.709-1.337-11.301-2.995-8.577-3.998-15.622-11.819-19.537-23.621-9.888-29.775 15.185-36.621 31.719-37.985l-3.105 15.729c-3.661 1.347-6.139 4.99-4.844 12.95.594.695 1.228 1.35 1.898 1.96 2.17 2.11 4.878 3.455 7.767 3.859 2.088.25 4.296-.76 6.52-2.832 2.478-2.305 4.964-5.931 7.314-10.567l.699.699.794.76v.043l1.144 1.105 1.287 1.226.738.682.659.613.747.682c.85.769 1.739 1.571 2.684 2.383l1.39 1.2.048.043c.571.484 1.151.967 1.747 1.45.921.76 1.869 1.517 2.843 2.271l.985.76c.413.319.794.63 1.255.941.46.31.841.63 1.27.941-.389 2.382 1.43 5.499 4.551 7.459.781.497 1.612.894 2.478 1.182Z" stroke="#fff" stroke-width="2" stroke-linecap="round" stroke-linejoin="round"/>
    <path d="m404.91 592.731-2.946 14.918c-.67-.609-1.304-1.264-1.898-1.959-1.295-7.969 1.167-11.612 4.844-12.959ZM509.417 604.931c-.394-.75-1.022-1.32-1.771-1.606-2.462-.864-5.559 1.856-6.87 6.155-1.207 3.902-.564 7.77 1.422 9.082-1.454 1.432-3.053 2.68-4.765 3.721-.556-2.59-4.027-4.256-7.99-3.755-4.137.535-7.25 3.237-6.949 6.043.125.936.57 1.787 1.247 2.383-2.918.393-5.863.505-8.799.336.683-2.711-1.978-5.905-5.973-7.148-3.994-1.243-7.838-.06-8.561 2.659-.123.478-.147.979-.071 1.468-1.867-.7-3.725-1.52-5.559-2.426.229-.225.424-.487.579-.777 1.295-2.443-.579-6.268-4.193-8.538-3.614-2.271-7.592-2.124-8.895.328-.173.335-.294.7-.357 1.079-.429-.311-.858-.622-1.271-.941-.413-.32-.842-.622-1.255-.941l-.984-.76c-.98-.754-1.928-1.511-2.844-2.27-.595-.484-1.175-.967-1.747-1.451l-.047-.043-1.39-1.2c-.945-.811-1.835-1.614-2.685-2.383l-.746-.682-.659-.613-.739-.682-1.286-1.226-1.2-1.105v-.043l-.794-.759-.699-.7c-2.382 4.636-4.836 8.262-7.314 10.567l3.828-13.813 4.646-16.834c1.898.699 3.796 1.493 5.678 2.348 4.856 2.244 9.589 4.789 14.176 7.623l1.589 1.001c.029.011.056.029.079.052 2.907 2.133 16.678 11.327 16.932 11.327.355.242.736.433 1.136.57 2.382.509 35.65 7.769 29.122-30.035-.937-8.081 0-10.999 1.882-10.593 2.931.613 8.093 9.497 11.468 19.433-1.914 1.157-3.049 4.541-2.644 8.331.484 4.507 2.978 7.891 5.559 7.563l.381-.078c.166 3.129-.059 6.269-.667 9.333v0Z" stroke="#fff" stroke-width="2" stroke-linecap="round" stroke-linejoin="round"/>
    <path d="M446.279 589.088c7.942 4.981 14.566 9.099 17.21 10.705 9.959-21.971 13.604-51.798 5.289-90.198M430.404 580.412c1.89-6.462 3.379-13.056 4.456-19.735v-.173c.429-2.702.794-5.447 1.127-8.236.376-3.28.654-6.601.834-9.962M309.395 320.608c42.282 109.131 104.871 83.292 142.094 142.153 2.089 3.298 10.713 22.61 11.913 26.477.158.518.317 1.028.468 1.546M276.921 366.019l-.238.647c-.884 2.429-1.834 4.731-2.851 6.906-28.86 62.297-108.238 31.08-146.74 36.622-26.677 3.833-42.449 12.604-58.0626 32.806-20.6883 26.762-20.7916 68.805-7.0602 99.28 3.1884 7.259 7.3888 13.939 12.4527 19.804M92.9023 576.104c14.8907 6.993 34.6897 8.107 60.9537 0M205.668 576.104c2.111.947 4.16 2.052 6.131 3.307 3.204 2.062 5.935 4.887 7.989 8.262 4.932 8.495 2.383 18.371 2.026 19.761-2.303 8.469-8.141 13.217-11.309 15.79a33.8156 33.8156 0 0 1-3.971 2.797" stroke="#fff" stroke-width="2" stroke-linecap="round" stroke-linejoin="round"/>
    <path d="M206.509 626.03c1.504-.589 2.862-1.546 3.971-2.798 12.937-13.812 14.478-65.974-67.354-27.703C95.1256 617.975 4.4066 562.654 42.5827 452.988c17.742-50.935 81.1093-65.301 136.1623-59.836 2.882.289 5.782.289 8.664 0 51.812-5.318 65.25-60.794 63.725-77.68" stroke="#fff" stroke-width="2" stroke-linecap="round" stroke-linejoin="round"/>
    <path d="M290.954 514.585c-36 0-64.551-9.807-64.019-47.793.532-37.985 47.317-56.443 49.986-103.122M76.7864 291.204c.1589.086.1351.12-.0555.112-1.6519-.138-15.836-4.317-25.2629-15.894-8.8868-10.869-14.7637-37.692.7466-59.956 13.0324-18.717 43.1397-35.353 77.6464-14.962 34.507 20.392 28.885 61.39 28.885 84.795-.03 5.341.404 10.674 1.294 15.928M160.971 305.708c3.971 16.481 14.12 31.347 36.532 37.632 31.513 8.823 51.725-26.72 53.599-27.868" stroke="#fff" stroke-width="2" stroke-linecap="round" stroke-linejoin="round"/>
    <path d="M118.577 302.349c-18.337 30.026-79.7351 27.652-91.1315-41.37-6.83-41.439 19.9577-78.474 60.3972-85.769 45.5223-8.211 80.4743 18.854 88.5663 49.286.07.284.123.572.159.863 18.068 116.27 66.878 77.163 66.997 53.292" stroke="#fff" stroke-width="2" stroke-linecap="round" stroke-linejoin="round"/>
    <path d="M76.724 291.938a2.3299 2.3299 0 0 1 0-.622.6435.6435 0 0 1 0-.121c.6512-4.014 10.1972-9.047 21.5063-4.377h.0795c2.9392 1.254 5.6952 2.967 8.1802 5.085M132.006 217.848c-1.867-2.733-4.103-5.146-6.631-7.157M56.4394 222.52c-1.6935 3.076-3.0983 6.33-4.1933 9.712M79.0664 202.179c-3.5838 1.308-6.9774 3.165-10.0781 5.516M98.1992 200.151c1.1357.138 2.3028.32 3.4788.553 1.927.38 3.761.806 5.503 1.278M59.5781 266.22c-1.9377-4.576-5.3368-7.364-7.5844-6.233-.5777.304-1.0408.817-1.3103 1.45v0c-.9292 1.986-.6989 5.439.7544 8.866 1.5884 3.756 4.1615 6.311 6.274 6.475.448.047.8995-.033 1.3104-.233 2.2555-1.122 2.5017-5.749.5559-10.325Z" stroke="#fff" stroke-width="2" stroke-linecap="round" stroke-linejoin="round"/>
    <path d="M76.7871 291.204c-.3415-.095-3.1767-1.01-12.135-7.614-2.6022-1.904-4.9397-4.204-6.9412-6.829M50.6835 261.438c-.9277-4.044-1.3551-8.205-1.2707-12.372M331.654 364.404c24.247 14.322 52.464 11.352 69.515-6.285 15.161-15.686 15.987-37.278 16.058-42.647M445.041 318.666c0 .682-.079 1.537-.135 2.547M442.189 343.313c-.899 4.569-2.047 9.075-3.439 13.494M429.569 377.26c-2.433 3.958-5.23 7.637-8.346 10.981M387.502 404.617c6.024-.066 11.97-1.477 17.472-4.144M357.117 393.705a40.1212 40.1212 0 0 0 4.67 3.298v0c2.711 1.674 5.545 3.101 8.474 4.265" stroke="#fff" stroke-width="2" stroke-linecap="round" stroke-linejoin="round"/>
    <path d="M312.285 297.031c.046 4.398.924 8.739 2.581 12.751 8.339 20.547 27.852 28.852 27.852 28.852 1.541.647 16.17 6.613 30.012 2.21 22.07-7.019 38.446-39.22 35.937-78.949M330.098 248.271c-9.53 18.13-16.153 31.649-17.567 43.675M199.551 132.01c-3.717-9.157-5.328-19.16-4.694-29.145 2.065-42.052 34.492-69.0649 39.003-72.7081 42.536-34.351 92.918-14.918 98.835-12.5266 9.316 3.7813 44.244 17.9482 55.942 52.4287 8.418 24.8029 1.429 50.184-14.732 87.712M212.092 303.334s14.224-11.672 17.178-53.525M395.841 638.607c3.592 1.659 7.409 2.671 11.301 2.996L393.744 690l-2.041-.578-3.629-1.019-2.01-.561 9.777-49.235ZM434.59 542.289l-9.864 35.767-4.646 16.783-3.828 13.813c-2.224 2.071-4.431 3.082-6.52 2.831-2.888-.403-5.596-1.749-7.767-3.859l2.946-14.892 3.113-15.747 6.862-34.696h19.704Z" stroke="#fff" stroke-width="2" stroke-linecap="round" stroke-linejoin="round"/>
    <path d="m327.667 437.724-.444 23.905c-5.321 8.02-31.926 14.677-43.442 9.98l-.738-4.316c2.589 1.372 6.226 2.072 11.333 1.303 17.781-2.676 8.553-5.931 4.614-7.027-1.05-.291-2.056-.745-2.986-1.347-3.598-2.305-14.145-8.633-15.773-9.332l-1.723-10.032c16.359 3.619 33.305 2.533 49.159-3.151v.017Z" fill="url(#b)"/>
    <path d="M291.15 514.585c.151.864.302 1.727.461 2.59l.159.924c4.602 3.161 9.888 4.948 15.327 5.18 6.818.2 13.51-2.021 19.061-6.328.754-4.696 1.445-10.412.238-10.861-.453-.164-1.017.467-1.159.622-1.644 1.77-9.856 4.273-34.087 7.873Z" fill="url(#c)"/>
    <path d="M333.06 432.769s-16.805 15.695-54.552 8.107c-1.152-.225-2.312-.475-3.503-.751-1.191-.276-1.969-.639-3.319-1.002l3.383-9.384h.127a1.903 1.903 0 0 0 0 .302c.135 1.459 2.597 2.53 6.568 3.126 5.027.768 12.484.777 20.728-.139 2.184-.241 4.328-.543 6.353-.863 4.397-.442 8.725-1.486 12.882-3.108v0c2.4-.955 4.683-2.228 6.798-3.79 0 0 .071-1.131.095-1.148l4.44 8.65ZM434.859 560.677v-.173c.53-2.82.906-5.565 1.128-8.236.311-3.309.427-6.637.35-9.962" stroke="#fff" stroke-width="2" stroke-linecap="round" stroke-linejoin="round"/>
    <path d="M345.584 430.102c-13.858-18.769-28.82-41.008-33.435-50.685l-.325-.674-.953-2.02-.223-.483c-.039-.095-.079-.19-.119-.268-.039-.078-.095-.216-.135-.302l-.135-.319c1.501 19.977-7.703 34.825-18.568 47.274M363.645 452.53c-1.469-1.571-2.962-3.229-4.463-4.981M400.923 484.274h-1.025a9.1402 9.1402 0 0 0-.23-1.053l1.255 1.053ZM384.818 471.66c-2.811-2.21-5.686-4.532-8.632-7.088M444.58 588.036c.072-.095.643.285 1.588 1.001M229.692 590.418a33.8496 33.8496 0 0 0-.612-4.973M228.333 604.533a40.4294 40.4294 0 0 1-1.493 4.8M206.508 626.028c5.488-.516 10.638-3.096 14.565-7.295M243.191 413.665c15.948-10.567 25.335-25.554 30.68-40.083 1.191-3.242 2.222-6.55 3.089-9.911 4.384-16.999 3.717-31.683 2.486-35.396M224.815 422.591a94.0761 94.0761 0 0 1-11.547 3.116M181.818 427.839c4.114.207 8.053.242 11.842.121M162.978 427.599c-3.923.121-7.751.336-11.396.621M124.416 432.501c.937-.258 1.882-.509 2.851-.759 1.549-.397 3.359-.786 5.377-1.157M104.664 440.185c-2.438 1.367-4.7678 2.953-6.9648 4.739" stroke="#fff" stroke-width="2" stroke-linecap="round" stroke-linejoin="round"/>
    <path d="M84.5627 461.828c-.8895 2.107-3.4309 9.402-4.2092 11.81" stroke="#fff" stroke-width="1.8425" stroke-linecap="round" stroke-linejoin="round"/>
    <path d="M82.1552 476.962h-5.6943c.8736-2.012 2.1681-3.341 3.3674-3.384.1765-.01.3534.01.5241.06 1.0166.311 1.6201 1.597 1.8028 3.324Z" stroke="#fff" stroke-width="2" stroke-linecap="round" stroke-linejoin="round"/>
    <path d="M218.683 569.742c-.373-.19-.794-.371-1.143-.544-.35-.173-.58-.259-.866-.371-.715-1.632-2.517-3.186-4.884-4.04a9.9064 9.9064 0 0 0-2.796-.596c-1.922-.121-3.589.406-4.479 1.442l-1.128-.13c-1.503-.155-3.007-.25-4.51-.285h-4.861c-.516 0-1.032.052-1.548.087l-1.152.086-1.215.112-1.191.121c-2.454.285-4.869.665-7.219 1.131l-1.478.302-1.453.32c-.858.189-1.692.397-2.518.604l-.865.224-1.239.328c-.794.225-1.588.449-2.383.682-.794.234-1.588.467-2.311.708h-.143l-1.874.613c-2.216.743-4.249 1.485-6.044 2.193l-1.588.613-.881.363h-.08c-2.478.863-4.551 1.726-5.956 2.287H76.7637l-2.3428-14.011-12.8022-76.576-.7545-4.489-.6591-3.954L206.08 475.9" fill="url(#d)"/>
    <path d="M160.041 301.236c.723 2.659 1.152 4.231 1.167 4.317.016.086-.079.086-.238.173M203.842 245.765c6.583-1.083 9.078-22.365 5.572-47.534-3.506-25.169-11.685-44.694-18.268-43.611-6.583 1.084-9.077 22.366-5.572 47.535 3.506 25.169 11.685 44.694 18.268 43.61ZM376.96 210.076c5.258-26.843 4.241-49.825-2.272-51.332-6.512-1.507-16.053 19.031-21.311 45.873-5.257 26.843-4.24 49.825 2.272 51.332 6.512 1.507 16.053-19.031 21.311-45.873Z" stroke="#fff" stroke-width="2" stroke-linecap="round" stroke-linejoin="round"/>
    <path d="M203.857 245.742s5.472 5.041 25.414 4.083c2.78-.129 4.638-3.082 5.726-7.942" stroke="#fff" stroke-width="2" stroke-linecap="round" stroke-linejoin="round"/>
    <path d="m191.158 154.724 20.649-14.452c7.807 5.473 18.941 24.622 19.394 46.446.095 4.645.063.302.095.458" stroke="#fff" stroke-width="2.0085" stroke-linecap="round" stroke-linejoin="round"/>
    <path d="M326.033 231.005c.961 9.108 3.225 16.903 6.894 22.031 8.061 11.293 22.737 2.884 22.737 2.884M330.035 186.028c4.408-16.446 11.913-31.01 22.07-37.701 9.832-6.475 22.603 10.437 22.603 10.437" stroke="#fff" stroke-width="2" stroke-linecap="round" stroke-linejoin="round"/>
    <path d="M368.895 152.695c-2.803-102.0687-84.977-92.5637-84.977-92.5637-77.662-2.2964-89.17 91.8127-89.17 91.8127l9.911-6.716c1.311-.916 11.19-61.7442 57.801-74.4003 60.357-16.4029 95.579 25.8992 98.899 76.9203l7.536 4.947Z" fill="url(#e)"/>
    <path d="M205.223 142.723c1.247-.863 12.937-59.7491 57.244-71.8959 57.387-15.7381 95.571 25.9856 97.557 76.2219" stroke="#fff" stroke-width="2.0752" stroke-linecap="round" stroke-linejoin="round"/>
    <path d="M256.805 171.066c4.233.164 9.228.958 26.152-9.618 16.114-10.066 19.799-8.754 19.799-8.754M243.566 247.934c-3.253-1.256-6.189-3.326-8.57-6.043-3.756-4.152-7.441-10.903-8.021-21.583-.194-5.894.79-11.764 2.883-17.205a35.5893 35.5893 0 0 1 3.828-3.195c3.139-2.374 6.692-4.021 10.441-4.841 3.749-.82 7.612-.794 11.351.076 12.826 3.004 16.146 8.124 17.321 8.469a45.8603 45.8603 0 0 1 1.477 5.473c5.449 26.055-12.174 41.69-30.71 38.849Z" stroke="#fff" stroke-width="2" stroke-linecap="round" stroke-linejoin="round"/>
    <path d="m330.036 186.028-.262-1.011c-7.108-2.995-32.307-14.564-51.884 6.389a63.9065 63.9065 0 0 0-1.795 8.771c-7.258 53.353 35.198 57.039 49.938 30.863.461-.863.898-1.674 1.303-2.59 1.641-3.61 2.728-7.489 3.216-11.481.568-4.339.915-8.708 1.041-13.088.275-6.002-.249-12.015-1.557-17.853v0ZM341.955 258.968c-.04.699 1.342 40.368-29.424 32.969-29.115-7.001-25.017-5.352-25.017-3.496 0 1.856 13.914 5.18 20.117 7.278 1.516.524 3.056.962 4.614 1.312 33.157 7.45 36.572-38.063 36.572-38.063h-6.862ZM258.788 263.052c-.985 6.794 17.147 39.712 41.258-8.728" stroke="#fff" stroke-width="2" stroke-linecap="round" stroke-linejoin="round"/>
    <path d="M277.891 191.406c-.627.674-1.247 1.373-1.858 2.107-.225.268-.525.449-.853.514-.329.065-.668.011-.966-.153-.298-.165-.538-.432-.682-.759-.145-.327-.187-.697-.12-1.053 1.019-4.969 2.711-9.746 5.019-14.175 5.981-11.802 17.941-16.317 17.941-16.317" stroke="#fff" stroke-width="2" stroke-linecap="round" stroke-linejoin="round"/>
    <path d="m229.858 203.06-.294.285c-.261.266-.598.428-.955.46-.357.032-.713-.068-1.011-.284-.298-.216-.52-.535-.63-.905-.111-.371-.102-.771.023-1.135 1.159-3.745 2.707-7.333 4.614-10.697a47.8942 47.8942 0 0 1 3.518-5.301" stroke="#fff" stroke-width="2.0095" stroke-linecap="round" stroke-linejoin="round"/>
    <path d="M260.996 270.598s18.401 10.359 38.319-14.815M323.57 157.771c1.906.241 10.642 5.024 11.436 13.372" stroke="#fff" stroke-width="2" stroke-linecap="round" stroke-linejoin="round"/>
    <path d="M293.101 289.268c1.114-4.171-3.016-9.141-9.225-11.101-6.209-1.96-12.145-.167-13.259 4.005-1.114 4.171 3.016 9.141 9.225 11.101 6.208 1.959 12.145.166 13.259-4.005Z" fill="#fff" stroke="#fff" stroke-width=".75" stroke-linecap="round" stroke-linejoin="round"/>
    <path d="M294.377 468.613c-5.107.769-8.736.069-11.333-1.303l-.111-.061c-1.761-.985-3.263-2.439-4.366-4.227-1.102-1.787-1.77-3.85-1.94-5.994 0-.199.111-.354.135-.544.151-1.537 3.177-5.361 3.391-5.603h.072c1.628.708 12.174 7.027 15.772 9.332.931.602 1.936 1.056 2.986 1.347 3.947 1.122 13.175 4.377-4.606 7.053Z" stroke="#fff" stroke-width="2" stroke-linecap="round" stroke-linejoin="round"/>
    <path d="M337.635 461.423c0 6.906-4.106 13.692-10.658 18.993l-.103.086c-9.824 7.822-24.977 12.328-40.003 8.901h-.087c-6.698-1.51-13.025-4.544-18.568-8.901-.925-.744-1.758-1.614-2.478-2.59-10.626-14.098-2.7-25.234 9.268-37.778 1.192.276 2.383.526 3.503.751.468 2.926 1.032 6.302 1.644 9.98-.342-.277-8.959 9.021.174 18.526.972.96 2.108 1.702 3.344 2.184l.111.044c11.516 4.731 38.12-1.96 43.441-9.98.064-.086.12-.181.175-.268.122-5.577.228-10.414.318-14.512 0 0 9.919 1.131 9.919 14.564Z" stroke="#fff" stroke-width="2" stroke-linecap="round" stroke-linejoin="round"/>
    <path d="M327.716 446.831c0-.664 0-1.303.04-1.925 8.204 4.317 24.381 12.95 14.708 42.009-2.994 8.996-9.069 15.073-16.034 19.174h-.04c-.794.449-13.7 7.64-35.23 8.443" stroke="#fff" stroke-width="2" stroke-linecap="round" stroke-linejoin="round"/>
    <path d="M328.573 425.25c-2.114 1.562-4.397 2.835-6.798 3.79v0c-4.217 1.379-8.523 2.418-12.881 3.108v0c-2.057.354-4.201.656-6.354.864-8.243.915-15.701.906-20.728.138-3.971-.596-6.433-1.667-6.568-3.126a1.903 1.903 0 0 1 0-.302c.302-2.46 7.005-5.249 16.495-7.148 2.987-.596 6.251-1.105 9.682-1.493 14.763-1.641 25.85.069 27.295 2.987.088.19.122.404.096.615-.025.211-.108.408-.239.567Z" stroke="#fff" stroke-width="2.1019" stroke-linecap="round" stroke-linejoin="round"/>
    <path d="M513.522 586.931c-.484-4.507-2.978-7.891-5.559-7.554-.389.054-.764.192-1.104.405-1.914 1.157-3.05 4.541-2.645 8.331.485 4.507 2.979 7.891 5.56 7.563l.381-.078c2.327-.639 3.852-4.385 3.367-8.667ZM509.418 604.93c-.394-.75-1.022-1.32-1.771-1.606-2.462-.864-5.559 1.856-6.869 6.155-1.208 3.902-.564 7.77 1.421 9.082.2.135.413.245.635.328 2.462.864 5.56-1.856 6.862-6.155.937-3.022.762-5.992-.278-7.804ZM497.479 622.645a2.7679 2.7679 0 0 0-.063-.362c-.556-2.59-4.027-4.256-7.99-3.756-4.137.536-7.251 3.238-6.949 6.043.125.937.57 1.788 1.247 2.383 1.453 1.373 3.971 2.098 6.806 1.727 4.138-.553 7.251-3.229 6.949-6.035ZM468.951 620.141c-3.971-1.252-7.838-.06-8.561 2.659-.123.478-.147.979-.071 1.468.333 2.314 2.739 4.688 6.043 5.706 3.971 1.252 7.839.061 8.554-2.65.691-2.745-1.97-5.94-5.965-7.183ZM451.148 612.528c-3.614-2.262-7.592-2.124-8.895.328-.173.335-.294.7-.357 1.079-.389 2.383 1.429 5.499 4.55 7.459.773.483 1.593.869 2.447 1.148 2.382.795 4.622.544 5.869-.699.229-.225.424-.487.579-.777 1.295-2.435-.58-6.268-4.193-8.538ZM420.08 594.847s40.606 22.584 66.084 14.521c25.477-8.064 9.172-49.054 9.172-49.054M372.849 389.328c5.882 0 10.65-2.771 10.65-6.19 0-3.418-4.768-6.19-10.65-6.19-5.882 0-10.65 2.772-10.65 6.19 0 3.419 4.768 6.19 10.65 6.19ZM380.632 393.705c-5.877 0-10.65 2.763-10.65 6.181.002.476.094.946.27 1.382 1.081 2.754 5.321 4.808 10.38 4.808 2.356.04 4.694-.457 6.862-1.459v0c2.311-1.139 3.78-2.831 3.78-4.731.008-3.418-4.757-6.181-10.642-6.181ZM402.534 380.355c5.543-2.137 9.185-6.482 8.133-9.704-1.051-3.222-6.397-4.101-11.94-1.964-5.544 2.138-9.185 6.483-8.134 9.704 1.051 3.222 6.397 4.101 11.941 1.964ZM421.238 388.266c-1.374-3.065-6.758-3.324-12.047-.587-5.29 2.736-8.522 7.485-7.148 10.567.302.593.724 1.104 1.235 1.495.51.39 1.095.649 1.711.758 2.383.621 5.766.086 9.11-1.649 5.281-2.771 8.489-7.502 7.139-10.584ZM425.104 356.447c3.123-5.418 3.494-11.281.829-13.097-2.665-1.815-7.357 1.106-10.48 6.524s-3.494 11.282-.829 13.097c2.665 1.815 7.357-1.106 10.48-6.524ZM243.985 415.383c-.115-.644-.39-1.241-.794-1.727-1.803-2.158-6.092-3.039-10.754-1.994-5.765 1.295-9.919 5.059-9.276 8.4.237 1.049.845 1.955 1.692 2.521 2.105 1.562 5.853 2.106 9.888 1.199 5.718-1.286 9.871-5.05 9.244-8.399ZM202.69 418.456c-5.885.103-10.603 2.961-10.555 6.379.034.6.185 1.184.442 1.716.257.531.616.997 1.051 1.366 0 0 0 0 0 0 1.874 1.813 5.321 2.979 9.244 2.91 5.147-.095 9.396-2.288 10.325-5.12.138-.403.205-.83.198-1.26.016-3.419-4.797-6.104-10.705-5.991ZM355.965 434.747c-3.518-3.876-7.775-5.706-10.324-4.679-.444.167-.848.438-1.184.794-.374.441-.657.963-.833 1.531a4.6036 4.6036 0 0 0-.183 1.767v0c.087 2.728 1.699 6.242 4.455 9.272 3.614 3.98 8.013 5.801 10.555 4.593.289-.128.557-.306.794-.527.072-.056.138-.12.198-.19 2.177-2.357.636-7.985-3.478-12.561ZM376.186 464.573c-.833-2.685-2.243-5.115-4.114-7.088-2.74-3.013-5.94-4.8-8.426-4.955a3.6524 3.6524 0 0 0-1.658.173c-.536.184-1.029.49-1.447.897-.376.441-.661.964-.836 1.534a4.5773 4.5773 0 0 0-.181 1.773c.096 2.728 1.7 6.241 4.456 9.28 3.621 3.972 8.013 5.802 10.554 4.593.363-.169.694-.409.977-.708 1.104-1.208 1.295-3.22.675-5.499ZM399.645 483.239c-.899-2.821-2.456-5.34-4.519-7.312-3.574-3.609-7.783-5.249-10.324-4.265-.514.185-.978.505-1.35.933-.357.458-.62.994-.772 1.571-.152.578-.19 1.184-.11 1.778v0c.199 2.72 1.946 6.156 4.821 9.056 1.153 1.176 2.442 2.183 3.836 2.996l1.286-3.73h7.354a8.731 8.731 0 0 0-.222-1.027v0ZM385.096 447.057c-4.955-3.454-10.324-3.92-12.039-1.054-.277.518-.449 1.093-.506 1.689-.056.595.006 1.197.18 1.765.635 2.641 2.915 5.689 6.21 7.994 4.337 3.021 8.991 3.755 11.222 1.977.314-.258.582-.573.794-.933 1.724-2.857-.913-7.985-5.861-11.438ZM408.61 466.128c-4.392-4.248-9.649-5.62-11.738-3.065-.343.469-.591 1.011-.728 1.591-.137.58-.159 1.186-.066 1.776v0c.254 2.719 2.065 6.112 4.996 8.944 3.843 3.721 8.338 5.231 10.8 3.85.352-.197.668-.463.93-.785 2.072-2.547.206-8.064-4.194-12.311ZM172.463 418.628c-5.877-.311-10.761 2.192-10.92 5.611a4.631 4.631 0 0 0 .385 1.86c.254.581.625 1.093 1.084 1.498 1.795 1.848 5.083 3.186 8.887 3.393 4.368.242 8.188-1.088 9.919-3.194.587-.652.941-1.508 1.001-2.417.159-3.41-4.479-6.432-10.356-6.751ZM152.91 423.472c-.992-3.246-6.353-4.23-11.912-2.21-5.559 2.02-9.149 6.112-8.363 9.324.015.067.034.133.056.198.992 3.246 6.353 4.239 11.912 2.219 2.688-.886 5.11-2.537 7.013-4.783 1.223-1.588 1.747-3.272 1.294-4.748ZM110.271 427.939c5.452-2.398 8.916-6.911 7.737-10.08-1.18-3.169-6.556-3.794-12.009-1.396-5.452 2.398-8.9158 6.912-7.7362 10.081 1.1796 3.169 6.5562 3.793 12.0082 1.395ZM82.2408 446.837c4.6912-3.857 6.9564-9.194 5.0594-11.92-1.897-2.727-7.2378-1.811-11.929 2.046-4.6913 3.857-6.9564 9.194-5.0594 11.92 1.897 2.727 7.2378 1.811 11.929-2.046ZM124.416 432.502a3.7044 3.7044 0 0 0-.31-1.235c-1.382-3.064-6.782-3.28-12.071-.466-4.607 2.452-7.601 6.389-7.37 9.384.027.435.129.859.302 1.252 1.381 3.074 6.79 3.281 12.071.475 4.646-2.452 7.616-6.397 7.378-9.41Z" stroke="#fff" stroke-width="2" stroke-linecap="round" stroke-linejoin="round"/>
    <path d="M229.11 609.515c-.337-.229-.719-.365-1.115-.397-.396-.031-.793.043-1.156.216-1.666.755-3.072 2.059-4.019 3.729-1.109 1.649-1.719 3.63-1.747 5.672-.008.417.071.831.23 1.211.16.379.396.715.691.982 1.501 1.191 4.32-.397 6.282-3.548 1.962-3.151 2.335-6.674.834-7.865Z" stroke="#fff" stroke-width="1.1878" stroke-linecap="round" stroke-linejoin="round"/>
    <path d="M233.829 597.687c-.183-3.919-2.001-7.07-4.13-7.269h-.286c-2.247.06-3.907 3.453-3.716 7.519.142 2.944 1.215 5.456 2.636 6.605.508.438 1.138.675 1.787.673 2.248-.078 3.907-3.445 3.709-7.528ZM229.087 585.446l-.071.043c-2.018 1.088-5.075-.958-6.838-4.576-.75-1.474-1.161-3.124-1.199-4.808h.087l-.072-.475c-.015-.649.128-1.291.415-1.86.288-.568.709-1.044 1.221-1.377 1.47-.795 3.511.086 5.186 2.046.65.759 1.203 1.61 1.644 2.529 1.74 3.574 1.573 7.338-.373 8.478Z" stroke="#fff" stroke-width="1.3526" stroke-linecap="round" stroke-linejoin="round"/>
    <path d="M221.066 576.104h-.111v-.475l.111.475Z" stroke="#fff" stroke-width="1.3526" stroke-linecap="round" stroke-linejoin="round"/>
    <path d="M97.9507 445.192a2.5905 2.5905 0 0 0-.2542-.267c-2.2316-2.184-7.2588-.76-11.4917 3.324-4.3998 4.247-6.2661 9.764-4.1774 12.319.6607.763 1.57 1.216 2.5334 1.26 2.5414.251 6.0914-1.321 9.2046-4.316 4.3997-4.256 6.2656-9.773 4.1853-12.32ZM166.889 336.978c2.558-1.989 1.857-7.817-1.565-13.017-3.422-5.201-8.27-7.804-10.828-5.814-2.557 1.989-1.856 7.817 1.566 13.017 3.422 5.2 8.27 7.803 10.827 5.814ZM153.912 254.747c-.286 4.506-1.803 8.313-3.772 10.083-.405-1.502-.794-2.995-1.215-4.489-.961-3.514-1.906-6.984-2.804-10.291-.421-1.528-.794-3.03-1.215-4.48 1.128-1.839 2.557-2.91 4.051-2.797 3.137.233 5.352 5.594 4.955 11.974Z" stroke="#fff" stroke-width="2" stroke-linecap="round" stroke-linejoin="round"/>
    <path d="M118.848 200.712c-4.916-2.763-9.999-2.685-11.357.164-.166.344-.271.719-.31 1.105-.318 2.831 2.43 6.647 6.751 9.073 4.916 2.754 9.998 2.685 11.356-.172.03-.062.057-.126.08-.19 1.151-2.867-1.716-7.313-6.52-9.98ZM142.553 222.373c-3.756-4.42-8.561-6.233-10.729-4.057-.26.264-.476.577-.635.923-1.192 2.59.198 7.149 3.494 11.034 3.756 4.411 8.561 6.233 10.729 4.048l.135-.146c1.986-2.305.675-7.485-2.994-11.802Z" stroke="#fff" stroke-width="1.8814" stroke-linecap="round" stroke-linejoin="round"/>
    <path d="M68.9885 207.697c-.148-.325-.3499-.618-.5957-.863-2.0569-2.02-6.544-.251-10.0225 3.936-3.4785 4.187-4.6142 9.229-2.5493 11.223.1863.183.3947.337.6194.458 2.2396 1.226 6.2423-.587 9.3952-4.394 3.1529-3.807 4.3203-7.977 3.1529-10.36Z" stroke="#fff" stroke-width="1.7649" stroke-linecap="round" stroke-linejoin="round"/>
    <path d="M55.4241 240.502c-.1827-3.799-1.4851-6.985-3.1767-8.254-.4988-.412-1.1129-.625-1.7393-.604-2.4778.147-4.2885 4.317-4.0423 9.367.1667 3.626 1.366 6.699 2.9464 8.072.5424.521 1.2455.802 1.9695.785 2.4779-.155 4.2807-4.351 4.0424-9.366Z" stroke="#fff" stroke-width="1.5761" stroke-linecap="round" stroke-linejoin="round"/>
    <path d="M98.2475 199.227c-.2621-3.116-4.8286-5.179-10.1893-4.653-5.3607.527-9.5301 3.505-9.2283 6.622.0303.34.1108.672.2382.984 1.0324 2.59 5.1781 4.152 9.9511 3.678 4.773-.475 8.6644-2.944 9.1807-5.707.0556-.304.0716-.615.0476-.924Z" stroke="#fff" stroke-width="1.8316" stroke-linecap="round" stroke-linejoin="round"/>
    <path d="M154.431 346.979c2.557-1.989 1.856-7.817-1.566-13.017-3.422-5.201-8.27-7.804-10.828-5.815-2.557 1.99-1.856 7.818 1.566 13.018 3.422 5.2 8.27 7.803 10.828 5.814ZM244.639 340.361c-1.406-3.056-6.814-3.203-12.072-.337-5.257 2.866-8.37 7.666-6.957 10.722 1.414 3.056 6.814 3.203 12.072.337 5.257-2.866 8.37-7.675 6.957-10.722ZM196.59 369.834c-5.187.6-10.422.487-15.582-.337" stroke="#fff" stroke-width="2" stroke-linecap="round" stroke-linejoin="round"/>
    <path d="M233.543 352.731c-5.386 4.97-11.463 8.98-18.004 11.88M251.547 314.979c-.262 8.571-2.677 16.9-6.981 24.087M134.096 316.474c.857 10.359 3.542 20.106 9.53 28.592 5.24 7.608 11.977 13.846 19.719 18.259M189.037 350.789c-1.183 3.169-6.56 3.79-12.008 1.382-5.448-2.409-8.918-6.907-7.735-10.075 1.183-3.168 6.56-3.79 12.008-1.39 5.448 2.4 8.911 6.915 7.735 10.083Z" stroke="#fff" stroke-width="2" stroke-linecap="round" stroke-linejoin="round"/>
    <path d="M181.007 369.498c.461-.364.828-.852 1.064-1.416 1.271-3.125-2.057-7.77-7.433-10.36-5.377-2.59-10.769-2.149-12.048.976-.548 1.347-.238 2.978.723 4.601 1.699 2.561 4.028 4.551 6.719 5.741 4.407 2.133 8.831 2.228 10.975.458ZM218.644 349.676c-.056 3.453-4.86 6.103-10.745 6.043-5.885-.061-10.603-2.987-10.555-6.441.048-3.453 4.86-6.094 10.745-5.991 5.885.104 10.603 2.97 10.555 6.389ZM215.539 364.602c.197.444.3.931.302 1.424 0 3.454-4.718 6.234-10.594 6.285-3.558 0-6.711-.941-8.657-2.477-.579-.383-1.067-.91-1.423-1.537-.356-.628-.571-1.337-.626-2.072 0-3.41 4.725-6.233 10.602-6.285 5.035-.043 9.276 1.943 10.396 4.662ZM440.274 357.326c-.459-.311-.984-.49-1.524-.518-2.693-.225-6.354 2.546-8.951 7.044-3.121 5.413-3.494 11.275-.794 13.088.189.127.388.234.596.319 2.724 1.071 6.981-1.813 9.879-6.837 3.09-5.422 3.463-11.283.794-13.096ZM433.706 327.98c-1.39 6.216-4.987 10.602-8.037 9.799-3.05-.803-4.416-6.501-2.994-12.673.25-1.15.593-2.274 1.024-3.359.746.322 1.534.511 2.335.561.723.056 1.45.003 2.16-.155l3.558-.786 2.383-.526c.278 2.388.133 4.811-.429 7.139v0ZM446.201 321.065a2.866 2.866 0 0 0-1.294.147c-2.637.863-4.972 5.18-5.56 10.688-.516 5.11.691 9.643 2.804 11.413.486.423 1.072.69 1.691.768 3.13.371 6.179-4.481 6.815-10.843.635-6.363-1.335-11.802-4.456-12.173Z" stroke="#fff" stroke-width="2" stroke-linecap="round" stroke-linejoin="round"/>
    <path d="M229.086 574.81c-.087-.138 69.888-26.245 69.888-26.245" stroke="#fff" stroke-width="2.1023" stroke-linecap="round" stroke-linejoin="round"/>
    <path d="m298.038 543.246-71.198 25.692 71.198-25.692ZM299.198 549.765l-1.16-6.527-73.739 7.589" stroke="#fff" stroke-width="2" stroke-linecap="round" stroke-linejoin="round"/>
    <path d="M135.281 531.072c4.017-.583 6.74-5.403 6.082-10.767-.659-5.364-4.449-9.241-8.466-8.658-4.017.583-6.74 5.404-6.082 10.768.659 5.364 4.449 9.24 8.466 8.657Z" fill="#fff" stroke="#fff" stroke-width="2.4637" stroke-linecap="round" stroke-linejoin="round"/>
    <path d="M508.924 295.261 486.759 177.23c-.211-1.13-.626-2.204-1.219-3.159-.594-.955-1.355-1.774-2.241-2.408-.886-.635-1.878-1.073-2.919-1.289a7.4071 7.4071 0 0 0-3.151.027l-74.454 16.575c-1.04.23-2.027.68-2.906 1.326-.879.645-1.632 1.473-2.215 2.435-.584.963-.987 2.041-1.186 3.174-.2 1.132-.191 2.296.025 3.425l22.165 118.032c.269 1.443.87 2.788 1.746 3.912.876 1.123 1.999 1.986 3.265 2.511.746.321 1.534.511 2.335.561.723.055 1.45.002 2.16-.156l3.558-.785 2.383-.527 68.561-15.22c1.042-.232 2.03-.686 2.91-1.336.879-.649 1.631-1.481 2.213-2.449.581-.967.981-2.049 1.176-3.185a9.4994 9.4994 0 0 0-.041-3.433Zm-97.683-91.511c-.472 0-.932-.151-1.324-.436-.392-.285-.697-.689-.878-1.162-.18-.474-.227-.994-.135-1.497.092-.502.319-.964.652-1.326.333-.362.758-.609 1.22-.709.462-.1.941-.048 1.376.148.436.196.808.528 1.07.954.261.426.401.926.401 1.438.005.341-.051.679-.166.995-.115.316-.286.605-.504.85-.217.244-.477.44-.764.575-.287.135-.596.208-.909.214l-.039-.044Z" fill="url(#f)"/>
    <path d="M160.043 301.236c-1.922-7.054-5.917-21.756-9.904-36.406-.405-1.502-.794-2.996-1.215-4.489-.961-3.514-1.906-6.985-2.803-10.291-.421-1.528-.794-3.03-1.215-4.481l-2.422-8.892c-.477-1.726-.906-3.315-1.287-4.722l-1.93-7.079-3.177 1.165-.794.294-2.493.924-34.301 12.578 7.291 22.705c10.586-8.754 30.79-9.03 33.99 1.053.587 2.02.587 4.188 0 6.208-6.353 9.591-16.169 16.886-16.169 16.886-.443 5.595-2.171 10.98-5.027 15.66l5.861 18.259s3.923-1.545 9.212-3.652c10.134-4.031 25.263-10.109 27.32-11.223-.36-1.473-.672-2.972-.937-4.497Zm-45.213-49.382-4.264 1.416c-.999.319-2.072.199-2.99-.334-.918-.532-1.607-1.436-1.918-2.515l-1.152-4.109c-.293-1.085-.183-2.252.307-3.25.49-.998 1.321-1.747 2.314-2.085l4.28-1.408c.998-.319 2.07-.2 2.988.331.918.531 1.607 1.432 1.92 2.51l1.152 4.118c.29 1.086.177 2.253-.317 3.249-.493.996-1.326 1.742-2.32 2.077Z" fill="url(#g)"/>
    <path d="M434.905 528.372h-20.228c-2.898 0-4.646-2.495-3.899-5.586l2.692-11.128c.431-1.561 1.297-2.937 2.48-3.938 1.183-1.001 2.622-1.577 4.12-1.648h20.227c2.907 0 4.654 2.504 3.908 5.586l-2.692 11.145c-.434 1.559-1.303 2.932-2.487 3.93-1.184.998-2.624 1.57-4.121 1.639Z" fill="url(#h)"/>
    <path d="M453.856 527.577h-7.72c-.243.018-.487-.03-.71-.14-.222-.11-.416-.278-.564-.489-.148-.211-.245-.459-.283-.722-.038-.262-.016-.53.064-.781l1.025-4.247c.164-.598.495-1.125.948-1.507.453-.383 1.004-.601 1.577-.626h7.72c.244-.018.487.031.71.14.222.11.416.278.564.49.148.211.245.459.284.721a1.74 1.74 0 0 1-.065.782l-1.033 4.247c-.165.595-.496 1.119-.947 1.501-.45.382-.999.603-1.57.631Z" fill="url(#i)"/>
    <path d="M456.658 514.714h-7.719c-.243.017-.486-.033-.707-.143-.222-.111-.414-.279-.561-.49a1.682 1.682 0 0 1-.282-.72c-.038-.261-.016-.529.065-.779l1.024-4.247c.163-.597.494-1.122.945-1.505.451-.382 1.001-.601 1.573-.628h7.727c.243-.016.486.033.707.144.222.11.414.279.561.49.147.211.244.458.282.72.038.261.016.529-.065.779l-1 4.247c-.167.6-.503 1.129-.96 1.511-.457.382-1.013.6-1.59.621Z" fill="url(#j)"/>
    <path d="M458.77 542.297h-62.184l13.906-43.027h62.176l-13.898 43.027Z" stroke="#fff" stroke-width="1.9514" stroke-linecap="round" stroke-linejoin="round"/>
    <path d="m410.494 499.262-13.898 43.036-18.266-15.946 12.413-36.803.127-.362.405-1.174 1.287-3.73 4.876 4.066.794.691a.3538.3538 0 0 1-.095.06v0l12.357 10.162ZM391.257 488.004l-.405 1.174.397-1.183.008.009Z" stroke="#fff" stroke-width="2.3038" stroke-linecap="round" stroke-linejoin="round"/>
    <path d="M487.299 180.113c70.062 7.58 50.827 96.561 23.754 111.229-9.768 5.292-22.039 8.633-33.419 5.827-3.24-.803-18.266-4.549-21.753-16.463-1.262-4.317-1.326-10.696 1.668-12.95 3.653-2.71 8.172 3.454 16.328 4.084 9.721.734 22.237-6.622 26.121-19.183 3.733-11.965-2.16-22.765-3.177-24.552M118.578 302.35s5.138-7.416 5.027-15.66c22.515-18.423 15.153-24.259 15.153-24.259" stroke="#fff" stroke-width="2" stroke-linecap="round" stroke-linejoin="round"/>
    <path d="M98.5008 286.931c-1.1912-.604-3.5579-1.079-3.7326-2.391-.548-4.17.5321-11.439 9.3788-20.495 27.852-17.543 35.055 0 35.635-.449M152.896 576.104c-1.271.536-2.001.864-2.001.864" stroke="#fff" stroke-width="2" stroke-linecap="round" stroke-linejoin="round"/>
    <path d="M207.384 576.916c1.85 1.381-3.534-2.478-1.319-.812 0 0-12.158-4.713-20.648-5.551-12.707-2.331-32.562 5.551-32.562 5.551M216.904 571.148v.086c-.794 2.305-4.281 3.117-7.854 1.831-1.481-.508-2.826-1.397-3.924-2.59l.064-.069-.35-.294c-.423-.456-.728-1.027-.881-1.654a3.9479 3.9479 0 0 1 .008-1.911c.121-.366.313-.699.564-.976.889-1.036 2.557-1.563 4.479-1.442.952.062 1.892.263 2.795.596 2.383.863 4.17 2.409 4.885 4.04.178.363.288.76.325 1.169.037.408-.001.821-.111 1.214v0Z" stroke="#fff" stroke-width="2" stroke-linecap="round" stroke-linejoin="round"/>
    <path d="M204.509 565.623c-.373-.051-.755-.095-1.128-.129-1.503-.156-3.007-.25-4.511-.285h-4.86c-.516 0-1.033.052-1.549.086l-1.151.087-1.215.112-1.192.121c-2.454.285-4.868.665-7.219 1.131l-1.477.302-1.453.319c-.85.19-1.692.397-2.518.605l-.865.224-1.239.328c-.795.225-1.589.449-2.383.682-.794.233-1.588.466-2.311.708h-.143l-1.874.613c-2.216.742-4.249 1.485-6.044 2.193l-1.588.613-.882.362h-.079l-2.383.993" stroke="#fff" stroke-width="2" stroke-linecap="round" stroke-linejoin="round"/>
    <path d="M158.928 573.79c-.905.363-1.715.708-2.438 1.019M409.763 498.122l.73 1.139-12.246-10.23-.826-.691-4.876-4.066h8.378l25.946-.475 28.082-.509 8.919 7.494 8.8 7.389h-62.836l-.071-.051Z" stroke="#fff" stroke-width="2" stroke-linecap="round" stroke-linejoin="round"/>
  </g>
  <defs>
    <linearGradient id="b" x1="278.513" y1="455.438" x2="327.664" y2="455.438" gradientUnits="userSpaceOnUse">
      <stop stop-color="#68FFE0"/>
      <stop offset=".5729" stop-color="#B9C3FC"/>
      <stop offset="1" stop-color="#FF7EA7"/>
    </linearGradient>
    <linearGradient id="c" x1="291.154" y1="514.677" x2="327.049" y2="514.677" gradientUnits="userSpaceOnUse">
      <stop stop-color="#68FFE0"/>
      <stop offset=".5729" stop-color="#B9C3FC"/>
      <stop offset="1" stop-color="#FF7EA7"/>
    </linearGradient>
    <linearGradient id="d" x1="60.2218" y1="525.946" x2="218.673" y2="525.946" gradientUnits="userSpaceOnUse">
      <stop stop-color="#68FFE0"/>
      <stop offset=".5729" stop-color="#B9C3FC"/>
      <stop offset="1" stop-color="#FF7EA7"/>
    </linearGradient>
    <linearGradient id="e" x1="194.766" y1="106.296" x2="368.884" y2="106.296" gradientUnits="userSpaceOnUse">
      <stop stop-color="#68FFE0"/>
      <stop offset=".5729" stop-color="#B9C3FC"/>
      <stop offset="1" stop-color="#FF7EA7"/>
    </linearGradient>
    <linearGradient id="f" x1="396.336" y1="246.295" x2="509.095" y2="246.295" gradientUnits="userSpaceOnUse">
      <stop stop-color="#68FFE0"/>
      <stop offset=".5729" stop-color="#B9C3FC"/>
      <stop offset="1" stop-color="#FF7EA7"/>
    </linearGradient>
    <linearGradient id="g" x1="98.5086" y1="272.742" x2="160.976" y2="272.742" gradientUnits="userSpaceOnUse">
      <stop stop-color="#68FFE0"/>
      <stop offset=".5729" stop-color="#B9C3FC"/>
      <stop offset="1" stop-color="#FF7EA7"/>
    </linearGradient>
    <linearGradient id="h" x1="410.609" y1="517.222" x2="444.375" y2="517.222" gradientUnits="userSpaceOnUse">
      <stop stop-color="#68FFE0"/>
      <stop offset=".5729" stop-color="#B9C3FC"/>
      <stop offset="1" stop-color="#FF7EA7"/>
    </linearGradient>
    <linearGradient id="i" x1="444.562" y1="523.321" x2="457.488" y2="523.321" gradientUnits="userSpaceOnUse">
      <stop stop-color="#68FFE0"/>
      <stop offset=".5729" stop-color="#B9C3FC"/>
      <stop offset="1" stop-color="#FF7EA7"/>
    </linearGradient>
    <linearGradient id="j" x1="447.372" y1="510.458" x2="460.29" y2="510.458" gradientUnits="userSpaceOnUse">
      <stop stop-color="#68FFE0"/>
      <stop offset=".5729" stop-color="#B9C3FC"/>
      <stop offset="1" stop-color="#FF7EA7"/>
    </linearGradient>
    <clipPath id="a">
      <path fill="#fff" d="M0 0h562v690H0z"/>
    </clipPath>
  </defs>
</svg>
