<svg width="55" height="30" fill="none" xmlns="http://www.w3.org/2000/svg">
  <path d="M13.4241 23v-3.1604H12V19h4v.8396h-1.4177V23h-1.1582ZM20.5169 23l-.4893-.7845h-2.0401L17.4981 23H16l2.5295-4h1.0088L22 23h-1.4831Zm-2.0702-1.5767h1.1443l-.5647-.9709-.5796.9709ZM25.5658 23v-1.695h-2.1316V23H22v-4h1.4342v1.4653h2.1316V19H27v4h-1.4342ZM28.7353 19l1.4161 1.7743L31.3547 19H33l-2.9386 4h-1.6453l.9168-1.1644L27 19h1.7353ZM36.2047 23l-1.8471-1.6238V23H33v-4h1.3576v1.4337L36.1528 19h1.7433l-2.448 1.8614L38 23h-1.7953ZM40.3299 19.0838v2.2705L43.0698 19H44v3.9314h-1.3299v-2.2857L39.9302 23H39v-3.9162h1.3299Z" fill="#fff"/>
  <path fill-rule="evenodd" clip-rule="evenodd" d="M30.4088 10.4544C28.405 9.3044 27.5 8 27.5 8v.0631V8s-.905 1.3043-2.9088 2.4544c-.9481.54-2.1332 1.0098-3.5912 1.3605L22.4149 13s1.3144-.554 2.9879-1.8233c1.5011-1.136 2.011-2.1318 2.0972-2.3212.0862.1894.589 1.1852 2.0972 2.3212C31.2707 12.446 32.5851 13 32.5851 13L34 11.8149c-1.4652-.3577-2.6503-.8205-3.5912-1.3605Z" fill="#fff"/>
  <path d="M30 12h-5v2h5v-2ZM31 15h-6v1h6v-1Z" fill="#fff"/>
</svg>
