<svg width="55" height="30" fill="none" xmlns="http://www.w3.org/2000/svg">
  <path fill-rule="evenodd" clip-rule="evenodd" d="M33.0767 16.0783h-1v3.8376h1.1754l1.4889-2.5949h.0228l-.0684 2.5949h1v-3.8376H34.52l-1.4882 2.5948h-.0228l.0677-2.5948ZM22.145 18.0159v-.0453c0-.8197.6416-1.1445 1.6872-1.1445 1.0463 0 1.6947.3254 1.6947 1.1445v.0453c0 .8196-.6484 1.1509-1.6947 1.1509-1.0532-.0059-1.6872-.3377-1.6872-1.1509Zm-1.183.0524c0 1.1703 1.1374 1.9317 2.8702 1.9317 1.7327 0 2.8777-.7543 2.8777-1.9317v-.1495c0-1.1709-1.145-1.9188-2.8777-1.9188-1.7328 0-2.8702.7479-2.8702 1.9188v.1495ZM40 16.0783h-2.8626l-.038 2.1265c-.0151.6502-.1298.8779-.5421.8779h-.2596v.8326h.29c1.1071 0 1.4275-.3772 1.4579-1.7105l.0228-1.3922h.9309v3.1027h.9924v-3.837H40Zm-25 3.837h1.0304l-.0456-2.5431h.0228l1.1222 2.5431h1.0304l1.1071-2.5431h.0228l-.0456 2.5431h1.0304v-3.837H18.855l-1.1982 2.8361h-.0228l-1.2141-2.8361H15v3.837Zm14.8702-.7414h-1.4199v-.722h1.4199c.3356 0 .4806.1236.4806.3642.0007.2407-.1443.3578-.4806.3578Zm-2.4807-3.0956v3.8376h2.4427c.8929 0 1.5573-.2795 1.5573-1.0992 0-.8196-.6568-1.0927-1.5573-1.0927h-1.3736v-.8914h2.7783v-.7543h-3.8474ZM22.8445 13.6922l-1.1468-.4785c-.36.6252-.9463.7626-1.6575.7626-1.1727 0-1.7666-.5035-1.7666-1.4446v-.0647c0-.9418.5946-1.4447 1.7666-1.4447.7118 0 1.2982.1296 1.6582.7627l1.1468-.4785C22.3005 10.2187 21.1952 10 20.0395 10 18.1727 10 17 10.9331 17 12.4108v.1784C17 14.0741 18.1727 15 20.0395 15c1.1557-.0086 2.261-.2201 2.805-1.3078Zm10.9269-3.5865H32.557v4.7886h1.348l2.8718-3.336h.0252l-.0163 3.336H38v-4.7886h-1.348l-2.8718 3.3354h-.0252l.0164-3.3354Zm-9.1684 0h-1.0964v4.7886h1.2893l1.633-3.2382h.0252l-.0757 3.2382h1.0971v-4.7886h-1.2894l-1.6247 3.2382h-.0253l.0669-3.2382Zm4.8484.9411v3.8389H30.59v-3.8389h1.3227v-.9411h-3.7841v.9417h1.3228v-.0006Z" fill="#fff"/>
</svg>
