<svg width="55" height="30" fill="none" xmlns="http://www.w3.org/2000/svg">
  <path d="M33.4162 18.0395c-.5156.1398-1.1877.2097-1.7715.2097-1.499 0-2.4916-.8182-2.4916-2.3163 0-1.4178.9245-2.3361 2.2779-2.3361.302 0 .6225.0397.8176.1398v-2.0589h1.1676v6.3618Zm-1.1684-3.2456c-.185-.0898-.4281-.1398-.7208-.1398-.71 0-1.187.4496-1.187 1.2383 0 .8492.5157 1.3281 1.3434 1.3281.1463 0 .3693-.0103.5644-.05v-2.3766ZM43 18.0395c-.5157.1398-1.1878.2097-1.7716.2097-1.499 0-2.4916-.8182-2.4916-2.3163 0-1.4178.9245-2.3361 2.2779-2.3361.302 0 .6225.0397.8177.1398v-2.0589H43v6.3618Zm-1.1676-3.2456c-.1851-.0898-.429-.1398-.7201-.1398-.7108 0-1.1878.4496-1.1878 1.2383 0 .8492.5157 1.3281 1.3434 1.3281.1456 0 .3701-.0103.5645-.05v-2.3766ZM35.2528 14.7845c.1944-.0802.4669-.1096.7007-.1096.7201 0 1.2172.4289 1.2172 1.1978 0 .9064-.5497 1.3162-1.2853 1.3273v1.0486c.0194 0 .0387.0008.0588.0008 1.5083 0 2.4142-.8682 2.4142-2.4164 0-1.4075-.9632-2.2368-2.3847-2.2368-.7201 0-1.4309.17-1.8978.3694v5.9812h1.1777v-5.1623h-.0008ZM18.67 8.05l-5.3742 3.036 6.0246 3.4942c.0557.031.0976.1048.0976.1716l-.0024 5.2513c0 .0659-.0433.1414-.0999.1715l-.322.1835a.2073.2073 0 0 1-.0961.0231h-.0062a.2119.2119 0 0 1-.1029-.0223l-.3237-.1835c-.055-.0302-.0983-.1056-.0983-.1715l-.0008-4.6802c-.0031-.0342-.0271-.0755-.0534-.0914l-5.3077-3.0875L13 18.2818c0 .1382.0952.3082.2114.3781l5.4702 3.2877c.1162.0699.3059.0691.422-.0016l5.3975-3.2901c.1161-.0707.2106-.2415.2106-.3797V12.082l-3.5896 2.2083a.1837.1837 0 0 1-.0944.0238.1902.1902 0 0 1-.1015-.0278l-.3128-.1986c-.0534-.0333-.0952-.1104-.0952-.1747v-.3805c0-.0644.0426-.1398.0976-.1716l.0031-.0016a.1496.1496 0 0 1 .0456-.0437l3.6956-2.2733L19.099 8.05c-.0597-.0333-.1379-.05-.2153-.05s-.1549.0167-.2137.05Z" fill="#fff"/>
</svg>
