<svg width="55" height="30" fill="none" xmlns="http://www.w3.org/2000/svg">
  <g clip-path="url(#a)" fill="#fff">
    <path d="M48.9934 15.0052v-.7366h-.9337v-1.1322h-.0273l-.8517.2636-.0273.0272v.8452h-1.3596v-.4808c0-.2093.0547-.3954.1602-.5001.0781-.1319.2383-.1861.3985-.1861.1328 0 .2656.0271.3985.1047h.0547v-.76h-.0274c-.1328-.0543-.293-.0775-.5079-.0775-.2656 0-.5078.0775-.7188.1861-.2149.1047-.3711.2636-.5079.473-.1055.2094-.1601.4498-.1601.7134v.5273h-.6407v.7367h.6407v3.0825h.9063v-3.0825h1.3596v1.9503c0 .8181.3711 1.2136 1.1446 1.2136.1329 0 .2383 0 .3712-.0271.1601-.0543.2383-.0776.293-.1047h.0273v-.7367l-.0547.0271c-.0547.0272-.1055.0543-.1875.0776-.0781.0271-.1328.0271-.1875.0271-.1602 0-.293-.0543-.3712-.1318-.0781-.1047-.1328-.2637-.1328-.5002V15.013h.9415v-.0078Zm-5.7819 1.1594c0-.3955-.0782-.7135-.2657-.9228-.1875-.2094-.4258-.318-.7462-.318-.3477 0-.586.1047-.7735.318-.1875.2365-.293.5544-.293.9499 0 .3955.1055.7134.293.9228.1875.2094.4258.3179.7735.3179.3204 0 .586-.1047.7462-.3179.1875-.2094.2657-.5273.2657-.9499Zm.4297-1.4502c.3477.3412.5079.8182.5079 1.423 0 .6049-.1602 1.105-.5313 1.4773-.3477.3683-.8517.5544-1.465.5544-.5861 0-1.0666-.1861-1.4104-.5273-.3477-.3412-.5313-.8181-.5313-1.423 0-.632.1875-1.1321.5313-1.5005.3712-.3412.879-.5273 1.4924-.5273.6055-.0039 1.0861.1551 1.4064.5234Zm-4.8248 1.1361c-.293-.1047-.4805-.2094-.5313-.2908-.0781-.0543-.1328-.159-.1328-.2908 0-.1047.0547-.1861.1601-.2637.0782-.0775.2149-.1046.3712-.1046.1602 0 .3203.0271.4805.0542.1602.0543.293.1319.3985.1861l.0273.0272v-.822c-.1054-.0543-.2383-.0775-.4258-.1318-.1602-.0272-.3203-.0272-.4532-.0272-.4258 0-.7735.1047-1.0392.318-.293.2093-.4258.5001-.4258.8452 0 .1861.0274.3412.0781.4731.0782.1318.1602.2636.293.3412.1055.1046.2931.2093.5587.3179.1875.0775.3477.159.4532.2094.1055.0542.1602.1047.2149.1861.0273.0543.0547.1047.0547.2094 0 .2365-.1876.3683-.5861.3683-.1601 0-.3203-.0271-.5078-.0776-.1876-.0775-.3712-.1589-.5079-.2636l-.0547-.0271v.8685h.0274c.1054.0775.293.1047.4805.1589.1875.0272.3711.0543.5079.0543.4805 0 .8516-.1047 1.1173-.3179.293-.2365.4258-.5273.4258-.8685 0-.2637-.0781-.4731-.2149-.6592-.1562-.1861-.4219-.3412-.7696-.473Zm-2.9574.3141c0-.3955-.0781-.7135-.2656-.9228-.1876-.2094-.4259-.318-.7462-.318-.3204 0-.586.1047-.7735.318-.1876.2365-.2931.5544-.2931.9499 0 .3955.1055.7134.2931.9228.1875.2094.4531.3179.7735.3179.3477 0 .586-.1047.7735-.3179.1563-.2094.2383-.5273.2383-.9499Zm.4532-1.4502c.3204.3412.5079.8182.5079 1.423 0 .6049-.1875 1.105-.5587 1.4773-.3477.3683-.8517.5544-1.465.5544-.586 0-1.0665-.1861-1.4103-.5273-.3438-.3412-.5313-.8181-.5313-1.423 0-.632.1875-1.1321.5313-1.5005.3711-.3412.879-.5273 1.5197-.5273.5782-.0039 1.0587.1551 1.4064.5234Zm-3.8911-.5001c-.2149 0-.4258.0543-.586.2093-.1602.1319-.2657.2908-.3477.5002h-.0273v-.6591h-.9025v3.823h.9064v-1.9503c0-.3412.0781-.6048.2383-.8181.1328-.2094.3477-.3179.586-.3179.0781 0 .1602.0271.2656.0542.1055.0272.1602.0543.2149.0776l.0274.0271v-.8917c-.0821-.0543-.2149-.0543-.3751-.0543Zm-2.9847.0271c-.1602-.0543-.3204-.0543-.5079-.0543-.3985 0-.7735.0776-1.0939.2637-.3203.159-.5586.4226-.7188.7367-.1602.3179-.2383.6863-.2383 1.0817 0 .3684.0781.6863.2383.9732.1602.2908.3711.5274.668.6863.293.159.6134.2365.9845.2365.4259 0 .8009-.0775 1.0939-.2365l.0273-.0271v-.8142l-.0546.0271c-.1329.1047-.2657.1861-.4259.2365-.1602.0543-.3203.0776-.4532.0776-.3477 0-.6407-.1047-.8516-.318-.1875-.2365-.293-.5273-.293-.9228 0-.3683.1055-.6863.3203-.9228.2149-.2365.5079-.3412.8517-.3412.293 0 .586.1047.8517.2908l.0546.0272v-.8686h-.0273c-.1055-.0542-.2383-.1046-.4258-.1318Zm-3.6255-1.5819c-.1601 0-.293.0543-.3985.1589-.1054.0776-.1601.2094-.1601.3684 0 .1318.0547.2636.1601.3683a.6622.6622 0 0 0 .3985.1319c.1329 0 .2657-.0543.3712-.1319.1054-.1047.1601-.2365.1601-.3683 0-.159-.0547-.2637-.1601-.3684-.1055-.1046-.2344-.1589-.3712-.1589Zm-.4766 5.4282h.9064v-3.8191h-.9064v3.8191Zm-2.1331-5.3235h1.2541v5.3235h-.9064v-3.3733c0-.2365 0-.5815.0274-.9732-.0547.159-.0782.3412-.1328.4227l-1.5979 3.9277h-.6134l-1.5978-3.8734c-.0274-.1047-.0781-.2637-.1328-.4731h-.0274c.0274.1047.0274.2094.0274.3412.0273.2908.0273.5273.0273.7367v3.2686h-.879v-5.3274h1.3322l1.3322 3.3461c.1328.2908.2149.5273.2383.6863h.0273l.2384-.6863 1.3829-3.3461ZM11.2622 11H7v4.2185h4.2622V11ZM15.9505 11h-4.2349v4.2185h4.2349V11ZM11.2622 15.6372H7v4.2185h4.2622v-4.2185ZM15.9505 15.6372h-4.2349v4.2185h4.2349v-4.2185Z"/>
  </g>
  <defs>
    <clipPath id="a">
      <path fill="#fff" transform="translate(7 11)" d="M0 0h41.9934v8.8558H0z"/>
    </clipPath>
  </defs>
</svg>
