<svg width="55" height="30" fill="none" xmlns="http://www.w3.org/2000/svg">
  <path d="M25.9984 16.9987h-1.068v-3.0123c-.0111-.0013-.0127-.0013-.0158-.0013-.0032 0-.0048.0027-.008.004a.351.351 0 0 1-.0063.0053c-.0031.0039-.0047.0092-.0063.0132-.4557.9904-.9098 1.9795-1.3655 2.9699-.0016.004-.0063.0093-.0095.0132-.0016.0014-.0032.004-.0095.0093h-1.1029c-.462-.9983-.9224-1.9954-1.3829-2.9924a.1106.1106 0 0 1-.0205.0026v2.9885H20V13.004c.0301-.0014.0617-.004.0918-.004h1.4968c.087 0 .087 0 .1187.0701.4272.9428.8528 1.8869 1.28 2.8297.0127.0278.0254.0542.0475.1005.4525-1.0102.8987-2.0033 1.3449-2.9963H26c-.0016 1.3329-.0016 2.6618-.0016 3.9947ZM17.7276 14.3809c-.0054-.2892-.0253-.5556-.1503-.803-.1033-.2036-.2664-.3311-.4729-.3958-.2591-.0819-.5237-.0895-.7882-.0533-.3153.0437-.5562.2226-.732.4948-.0724.1122-.125.2359-.1957.3729-.3823-.0647-.779-.1313-1.1795-.1979.0037-.0304.0037-.0514.0091-.0723.212-.8925.7537-1.4368 1.5962-1.6594.1794-.0476.366-.0666.5545-.0666.2138.0019.4294-.0038.6432.0038.25.0095.4928.0571.7265.1541.5671.2322.924.6718 1.1179 1.2674.0924.2855.1395.5824.1413.883.0037 1.1628.0018 2.3274.0018 3.4901 0 .021-.0018.0419-.0036.0628-.0743.0229-1.0527.0305-1.2049.0077v-.5671c-.0199.0019-.0289-.0019-.0326.0019-.2373.2949-.549.4605-.8932.5709a2.605 2.605 0 0 1-.732.1218c-.3026.0095-.6051.0038-.9005-.0857-.3478-.1046-.6504-.2873-.8823-.5842-.2211-.2816-.3407-.609-.3497-.9724a2.8276 2.8276 0 0 1 .0344-.51c.0544-.3407.2283-.6128.4729-.8412.3116-.2892.6722-.4643 1.0817-.5404.2917-.0533.587-.0761.8823-.08.3769-.0057.7556-.0019 1.1324-.0019h.1232Zm.0254.9668c-.0399-.0019-.0562-.0057-.0725-.0057-.3968.0095-.7954.0171-1.1922.0304-.1395.0038-.2772.019-.4167.0343-.1884.0228-.366.0761-.5218.196-.0833.0647-.1522.1427-.1921.2436-.105.2664-.0887.6793.2809.8982a.8233.8233 0 0 0 .2355.0951c.2591.0628.52.0495.7791 0 .5689-.1122.9657-.5366 1.0618-1.1361.0199-.1141.0253-.2302.038-.3558ZM42.9883 14.828h-3.7931c-.0033.0271-.0083.0495-.0083.0718-.0067.6323.5139 1.1559 1.1784 1.1846.2327.0096.4637.0032.688-.0718.3147-.1054.559-.2906.7298-.5652.0134-.0223.0284-.0447.0485-.075.3549.0591.7081.1182 1.073.1788-.0151.0431-.0251.0767-.0385.1086-.1791.4534-.5055.7871-.9424 1.0233-.3248.1756-.6746.2714-1.0462.3002-.313.0239-.6277.0255-.9391-.0176-.9306-.1293-1.6487-.7567-1.8647-1.6316-.0468-.1868-.0753-.3768-.0736-.5684.0016-.2474-.0067-.4981.0201-.7439.0669-.6227.3297-1.1559.8553-1.5534.308-.2315.6612-.3688 1.0462-.4231.4151-.0591.8336-.0654 1.2471.0112.9373.174 1.5148.7136 1.7475 1.5917.0586.2219.0837.447.0837.6753v.4582c-.0033.0128-.0067.024-.0117.0463Zm-3.7947-.9084h2.6029c.0016-.016.0033-.0239.0033-.0335l-.005-.0447c-.0737-.4231-.3281-.7073-.7466-.8462-.3599-.1197-.7298-.1165-1.0897.0048-.3716.1261-.621.3752-.7281.7408-.0168.0575-.0234.1165-.0368.1788ZM32 14.5006c-.013.2239-.0081.4509-.0391.6732-.1026.7165-.4951 1.2379-1.1434 1.5737-.3127.1615-.6515.2399-1.005.2479-.272.0064-.5456.0096-.8144-.0144-.9203-.0832-1.6565-.6685-1.9057-1.4825-.0505-.1679-.0863-.3374-.0879-.5118-.0033-.315-.0082-.6301 0-.9435.0195-.83.5521-1.5913 1.4252-1.8999a2.4436 2.4436 0 0 1 .772-.1392c.259-.0032.5212-.0128.7786.016.8958.1008 1.5441.5422 1.8813 1.3802.0798.1983.1189.4094.1221.6237.0033.1583 0 .3182 0 .4766H32Zm-1.1679-.0016h-.0114c0-.1408.0098-.2831-.0016-.4222-.0407-.5006-.2948-.8556-.7769-1.0364-.3046-.1151-.6222-.1167-.9382-.0495-.5408.1151-.917.5437-.9382 1.0779-.0114.2878-.0179.5757.0016.862.0326.4893.2851.8412.7542 1.0219.3225.1247.6596.1327.9903.0448.5098-.1344.8176-.4606.8942-.9788.026-.1711.0195-.3454.026-.5197ZM37 13v3.9852c-.0723.0172-1.11.0211-1.2193.0026v-3.1453h-1.6044c-.0034.0238-.0068.045-.0068.0662-.0134.496-.0235.992-.042 1.488-.0101.2579-.0168.5158-.0892.7684a1.6682 1.6682 0 0 1-.0672.1931c-.1413.3373-.439.5357-.8796.6018a3.2196 3.2196 0 0 1-.3751.0331c-.2135.0066-.4288.004-.6441.0053-.0218 0-.0437-.0026-.0723-.004v-.8332l.0975-.004c.1295-.004.259-.0027.3869-.0132.2186-.0186.3632-.1138.4372-.2778.0723-.1614.0908-.3293.0942-.4986.0151-.7513.0269-1.5026.0404-2.2539V13H37ZM13.9762 13.5831a347.916 347.916 0 0 1-1.1773.2124 3.2484 3.2484 0 0 1-.0289-.0639c-.1701-.4201-.4985-.6645-.9612-.7523-.2943-.0559-.5869-.0336-.8608.0878-.4475.1981-.6907.5352-.7214.9936-.0187.2859-.0136.5751-.0017.8626.0204.5255.376.9393.917 1.0782.3045.0783.6074.0703.9034-.0351.3419-.1214.5767-.345.7111-.6629.0102-.0256.0204-.0495.0357-.0863.3998.0511.7996.1023 1.2079.155a1.449 1.449 0 0 1-.0289.1022c-.2552.7715-.8115 1.2476-1.6366 1.4552-.2042.0511-.4134.0719-.6261.0703-.2075-.0016-.4151.0032-.6209-.016-.9902-.091-1.7932-.7108-2.0211-1.6006a2.0026 2.0026 0 0 1-.063-.4712c-.0017-.2731-.0068-.5447 0-.8179.0154-.5734.2331-1.0686.6754-1.4696.3573-.3242.7894-.5159 1.2794-.5814.4253-.0559.8557-.0655 1.2776.0192.8455.1709 1.4291.6325 1.7183 1.4057a.8267.8267 0 0 1 .0255.0862c.0017.0048-.0017.0112-.0034.0288ZM45.5273 13.8387V17h-1.0437v-3.1587h-1.4655c-.0203-.0583-.0247-.7459-.0073-.8413H47v.8387h-.732c-.2435.0013-.4871 0-.7407 0Z" fill="#fff"/>
</svg>
