<svg width="55" height="30" fill="none" xmlns="http://www.w3.org/2000/svg">
  <g clip-path="url(#a)" fill="#fff">
    <path d="M37.9999 24.951v-.5906h-1.6957v-2.3027h-.6388v2.8897l2.3345.0036Zm-8.5487 0h2.4132v-.5725h-1.7745v-.6249h1.5978v-.5419h-1.5978v-.5924h1.7658v-.5616h-2.4045v2.8933Zm-5.2588-1.4449v-.903h.9222a.7954.7954 0 0 1 .3116.0506.3003.3003 0 0 1 .1574.1462.618.618 0 0 1 .0438.2457.4435.4435 0 0 1-.1207.3504.5878.5878 0 0 1-.3921.1065l-.9222.0036Zm-.6388-1.4448v2.8897h.6388v-.903h.959c.294.0234.588-.0596.8295-.233.1995-.1969.301-.4786.2747-.7622a1.2113 1.2113 0 0 0-.1225-.5978c-.0822-.1463-.2099-.2565-.3639-.3125a1.7155 1.7155 0 0 0-.6178-.0939l-1.5978.0127Zm-5.4915 2.2612a.5896.5896 0 0 1-.301-.2998 1.2873 1.2873 0 0 1-.091-.513c-.007-.177.0245-.354.0893-.5183a.6023.6023 0 0 1 .2975-.2998c.182-.0759.378-.1102.574-.1012a1.413 1.413 0 0 1 .5792.0958.5823.5823 0 0 1 .2958.298c.0647.1643.0945.3413.0892.5201.007.177-.0227.354-.0892.5184-.0613.1336-.168.2402-.301.2962-.182.074-.378.1083-.574.0993a1.3708 1.3708 0 0 1-.5688-.0957Zm1.491.5165c.2293-.1011.42-.2799.5408-.5057a2.0536 2.0536 0 0 0 0-1.6688c-.1225-.224-.3115-.3992-.5408-.4985a2.2407 2.2407 0 0 0-.9222-.1661 2.2012 2.2012 0 0 0-.9188.1661c-.2275.103-.4165.28-.5372.5039a2.0545 2.0545 0 0 0 0 1.6634c.1207.2222.308.3992.5355.5003.294.1192.6072.1752.9222.1644a2.2303 2.2303 0 0 0 .9188-.1644M35.4292 13.1649l-1.5365-.1012-.1855-.0126a7.0104 7.0104 0 0 0 .0228-.5418c-.0228-3.6176-2.884-6.5326-6.3893-6.5092-2.933.02-5.4705 2.1096-6.1407 5.0553h-1.4a.2462.2462 0 0 0-.1943.0975l-.35.5129a.1222.1222 0 0 0-.0262.0777c0 .0704.0542.1264.1225.1264h.0017l1.5295.0975.1925.0127a7.0102 7.0102 0 0 0-.0227.5418c-.0018 3.6194 2.8385 6.5543 6.3455 6.5579 2.9645.0018 5.5352-2.1113 6.195-5.095h1.4a.2378.2378 0 0 0 .1942-.0993l.3605-.5111a.1357.1357 0 0 0 .0245-.0777c.0035-.0704-.0472-.13-.1155-.1336-.0105 0-.0192 0-.028.0018Zm-8.05-6.4423c3.101.0036 5.6123 2.5953 5.6158 5.7939 0 .1643-.0088.3269-.021.4876l-4.6935-.307 2.037-1.4449a.108.108 0 0 0 .0455-.0885.1072.1072 0 0 0-.1033-.1101h-8.3125c.6475-2.5484 2.8788-4.3274 5.432-4.331Zm0 11.5896c-3.0992-.0036-5.6105-2.5971-5.614-5.7957 0-.1644 0-.3269.021-.4877l4.6953.3017-2.0335 1.4448a.1141.1141 0 0 0-.0455.0903c0 .0614.0472.1102.1067.1102h8.3038c-.6458 2.552-2.877 4.3328-5.4338 4.3364Z"/>
  </g>
  <defs>
    <clipPath id="a">
      <path fill="#fff" transform="translate(17 6)" d="M0 0h21v19H0z"/>
    </clipPath>
  </defs>
</svg>
