<svg width="55" height="30" fill="none" xmlns="http://www.w3.org/2000/svg">
  <path d="m5.6973 13.8622-.7665.7713-.7665-.7713c-.4228-.426-.4228-1.118 0-1.5427a1.0807 1.0807 0 0 1 1.5343 0c.4228.426.4228 1.1167-.0013 1.5427ZM4.1628 16.0306l.7664-.7713.7665.7713c.4242.426.4242 1.118 0 1.5427-.4229.426-1.11.426-1.5342 0-.4216-.426-.4216-1.1167.0013-1.5427ZM6.0077 15.7172l-.7665-.7714.7665-.7713a1.0807 1.0807 0 0 1 1.5342 0c.4242.426.4242 1.118 0 1.5427-.4229.4273-1.11.4273-1.5342 0ZM3.8524 14.1743l.7678.7727-.7678.7713c-.4229.4261-1.11.4261-1.5342 0-.4243-.426-.4243-1.1166 0-1.5426.4241-.4274 1.1113-.4274 1.5342-.0014ZM46.7967 13.8159h-3.1702v.8931h1.1232v2.7069h.9237v-2.7082h1.1233v-.8918ZM17.0501 15.2765c-.1136-.5186-.5008-.7276-.8867-.7276-.4942 0-.8299.2659-.9382.7276h1.8249Zm-.8021 1.3972c.3581 0 .6449-.1508.8021-.3599l.744.4326c-.337.4896-.8735.7701-1.5593.7701-1.2026 0-1.9611-.8283-1.9611-1.9013 0-1.0716.7651-1.8999 1.8897-1.8999 1.0585 0 1.8104.8428 1.8104 1.8999 0 .1376-.0145.2594-.0356.3824h-2.6985c.1282.4737.522.6761 1.0083.6761ZM21.5245 15.6152c0-.6046-.4229-1.0147-.9951-1.0147-.5656 0-.9871.4101-.9871 1.0147 0 .6047.4228 1.0161.9871 1.0161.5722-.0013.9951-.4114.9951-1.0161Zm.9237 0c0 1.073-.7876 1.9013-1.7457 1.9013-.5233 0-.9025-.1945-1.1589-.5253v1.8642h-.9237v-5.0395h.9237v.4247c.2577-.3308.6369-.5253 1.1589-.5253.9568-.0013 1.7457.8283 1.7457 1.8999ZM25.6911 15.2765c-.1149-.5186-.5008-.7276-.888-.7276-.4942 0-.8299.2659-.9369.7276h1.8249Zm-.8008 1.3972c.3581 0 .6436-.1508.8022-.3599l.7439.4326c-.3356.4896-.8735.7701-1.5593.7701-1.2026 0-1.9611-.8283-1.9611-1.9013 0-1.0716.7665-1.8999 1.8897-1.8999 1.0599 0 1.8105.8428 1.8105 1.8999 0 .1376-.0146.2594-.0357.3824H23.882c.1282.4737.5207.6761 1.0083.6761ZM34.1896 15.6152c0-.6046-.4228-1.0147-.995-1.0147-.5656 0-.9872.4101-.9872 1.0147 0 .6047.4229 1.0161.9872 1.0161.5722-.0013.995-.4114.995-1.0161Zm.9224 0c0 1.073-.7876 1.9013-1.7456 1.9013-.5234 0-.9013-.1945-1.159-.5253v1.8642h-.9237v-5.0395h.9237v.4247c.2577-.3308.637-.5253 1.159-.5253.958-.0013 1.7456.8283 1.7456 1.8999ZM37.619 12.9505c0-.266.222-.4896.4863-.4896.2656 0 .4797.2236.4797.4896 0 .2672-.2154.4829-.4797.4829s-.4863-.2157-.4863-.4829Zm.7374 2.3259c-.115-.5186-.5009-.7277-.8881-.7277-.4942 0-.8299.2659-.9369.7277h1.825Zm-2.0972-2.3259c0-.266.222-.4896.4863-.4896s.4797.2236.4797.4896c0 .2672-.2154.4829-.4797.4829s-.4863-.2157-.4863-.4829Zm1.295 3.723c.3582 0 .6436-.1508.8022-.3598l.744.4326c-.337.4895-.8735.77-1.5607.77-1.2026 0-1.9611-.8282-1.9611-1.9012s.7665-1.9012 1.8897-1.9012c1.0599 0 1.8105.8428 1.8105 1.9012 0 .1376-.0146.2593-.0357.381h-2.6985c.1295.475.5233.6774 1.0096.6774ZM39.7095 15.6152c0-1.0716.8021-1.8999 1.8897-1.8999.7017 0 1.3096.3745 1.603.9288l-.7943.4684c-.144-.2951-.4506-.4829-.8153-.4829-.5511 0-.9594.4101-.9594.9856 0 .5689.4083.9804.9594.9804.3726 0 .6792-.1799.8233-.475l.8021.4605c-.3079.5609-.9158.9354-1.6175.9354-1.0889 0-1.891-.8283-1.891-1.9013ZM49.9616 15.6152c0-.5821-.4229-.9923-.9727-.9923-.5444 0-.9673.4102-.9673.9923 0 .5835.4229.9936.9673.9936.5498 0 .9727-.4101.9727-.9936Zm-2.8637 0c0-1.0716.8378-1.8999 1.8897-1.8999 1.0519 0 1.8964.8283 1.8964 1.8999 0 1.073-.8445 1.9013-1.8964 1.9013s-1.8897-.8283-1.8897-1.9013ZM29.6025 17.4145h1.0744l-1.3691-1.8219 1.3268-1.7781h-1.1021l-1.0334 1.4619h-.3159v-1.4606h-.9237v3.6h.9237v-1.4196h.3872l1.0321 1.4183ZM53.7766 17.4145h1.0744l-1.3691-1.8219 1.3268-1.7781h-1.1022l-1.0334 1.4619h-.3158v-1.4606h-.9237v3.6h.9237v-1.4196h.3872l1.0321 1.4183ZM13.6671 17.4159h-.9885v-4.026h-1.7681v4.0247h-.9872v-4.9522h3.7425v4.9535h.0013Z" fill="#fff"/>
</svg>
