<svg width="55" height="30" fill="none" xmlns="http://www.w3.org/2000/svg">
  <g clip-path="url(#a)" fill="#fff">
    <path d="M11 15.5003c0 1.4305 1.3552 2.5002 3.1463 2.5002.6363 0 1.1874-.1143 1.6652-.3956v-.934c-.4672.25-1.089.4122-1.6758.4122-1.1348 0-1.9821-.6597-1.9821-1.5828 0-.9232.8473-1.5828 1.9821-1.5828.5868 0 1.2086.1616 1.6758.4122v-.9341C15.3337 13.1144 14.7826 13 14.1463 13 12.3552 13 11 14.0698 11 15.5003Zm26.9853-1.2793c-1.2819 0-2.3215.8478-2.3215 1.8895S36.7034 18 37.9853 18c1.2813 0 2.3209-.8478 2.3209-1.8895s-1.0396-1.8895-2.3209-1.8895Zm0 3.0055c-.744 0-1.3352-.4985-1.3352-1.116 0-.6175.5919-1.116 1.3352-1.116.744 0 1.3352.4985 1.3352 1.116 0 .6175-.5918 1.116-1.3352 1.116Zm6.0152-2.9306-1.927 2.3505v-2.3505h-.9707v3.6303h.9857l1.9258-2.3433v2.3433H45v-3.6303h-.9995Zm-23.7639 1.7184c.2418-.119.4754-.3945.4754-.6991 0-.5879-.538-1.0193-1.2726-1.0193h-2.4612v3.6303h2.5595c.7353 0 1.2907-.4387 1.2907-1.0412-.0006-.4096-.2962-.7371-.5918-.8707Zm-2.2726-1.0042h1.3226c.2511 0 .439.1486.439.3493 0 .2006-.1885.3498-.439.3498H17.964v-.6991Zm1.3852 2.2019H17.964v-.7886h1.3852c.2869 0 .4929.171.4929.394s-.206.3946-.4929.3946Zm3.8778-2.9161c-.8692 0-1.5237.5432-1.5237 1.2496 0 .5733.4409 1.0412 1.0784 1.1914l-1.1949 1.1893h1.2726l1.1435-1.1384h.5467v1.1384h.9858v-3.6303H23.227Zm.1346.7142h1.1887v1.064h-1.1887c-.3939 0-.6719-.2453-.6719-.5281 0-.2978.278-.5359.6719-.5359Zm8.5941-.7142H30.97v3.6303h.9857v-1.4731h1.9258v1.4731h.9857v-3.6303h-.9857v1.4429h-1.9258v-1.4429Zm-5.4452 3.4182v-.8026c.3851.1674.8554.3155 1.3934.3155.6538 0 1.0665-.1621 1.0665-.4501 0-.2573-.3607-.3555-.8192-.3555h-.7521v-.7148h.7521c.4672 0 .729-.1424.729-.3373 0-.2859-.4133-.3743-.8905-.3743-.5518 0-1.0002.1326-1.3659.2807v-.7787c.3795-.1549.8824-.276 1.508-.276.9544 0 1.7304.4216 1.7304 1.0022 0 .4236-.2988.6841-.5392.7719.3081.1206.6563.4211.6563.8556 0 .681-.7878 1.1493-1.9408 1.1493-.6619 0-1.146-.1185-1.528-.2859ZM42.9696 14.0993c.7577 0 1.3358-.3888 1.3978-.9596l-.7897-.0816c0 .2464-.2693.4361-.6081.4361s-.6081-.1892-.6081-.4361l-.7897.0816c.0626.5708.6406.9596 1.3978.9596Z"/>
  </g>
  <defs>
    <clipPath id="a">
      <path fill="#fff" transform="translate(11 13)" d="M0 0h34v5H0z"/>
    </clipPath>
  </defs>
</svg>
