<svg width="149" height="174" fill="none" xmlns="http://www.w3.org/2000/svg">
  <g clip-path="url(#a)">
    <path d="m52.6305 117.878 1.3882.705 4.7015 22.899.1967.957M12.8621 118.096h-2.3137l.192.996.2198 1.131c-.3285.133-.6455.155-.9209.042-.8375-.346-.9579-1.823-.2684-3.298s1.9297-2.389 2.7673-2.043c.8144.335.9509 1.74.3239 3.172Z" stroke="#fff" stroke-width=".6" stroke-miterlimit="10" stroke-linecap="round" stroke-linejoin="round"/>
    <path d="M88.0076 107.991c-.044 2.008-.0856 4.016-.1296 6.024-1.5502 2.02-9.3012 3.706-12.6561 2.514l-.2152-1.083c.7543.346 1.814.522 3.3017.328 5.1804-.674 2.4919-1.494 1.3443-1.77-.3054-.074-.5993-.187-.87-.34-1.0481-.58-4.1208-2.173-4.5951-2.351l-.5021-2.528c1.7724.337 4.1278.62 6.8927.498 3.068-.137 5.6038-.726 7.4294-1.292Z" fill="url(#b)"/>
    <path d="M116.909 119.601c-5.725-9.713-21.62-9.5-32.7838-25.3052a14.4367 14.4367 0 0 1-.6385-.9963c-.0324-.0587-.0648-.1153-.0949-.1697-.1342-.2284-.2568-.4611-.3771-.6982-.0139-.0305-.0278-.0544-.0394-.0762l-.0393-.0805c-2.6192-5.312-2.876-12.4686-2.8922-12.8515v-.0152M123.325 154.559c-3.654 3.474-8.168 5.114-12.164 4.803-1.152-.087-2.26-.339-3.292-.754-2.499-1.008-4.551-2.978-5.692-5.952-2.8807-7.502 4.424-9.227 9.241-9.575l-.907 3.967c-1.067.34-1.788 1.258-1.411 3.265.182.183.365.348.553.494.728.581 1.492.892 2.262.972.609.064 1.252-.191 1.9-.713.722-.581 1.446-1.494 2.131-2.663.065.057.132.116.204.177.071.061.148.126.224.191.005.002.007.007.012.011.104.089.217.183.333.278.002.003.004.005.007.007.12.1.245.202.375.309.069.056.141.113.215.172.062.052.127.102.192.154.071.057.143.113.217.172.248.194.507.396.782.6.132.1.266.2.405.303.005.004.009.006.014.011.167.121.336.243.509.365.269.191.544.383.828.572.095.065.19.128.287.192.121.08.241.158.366.237.12.08.245.158.37.237-.113.6.417 1.385 1.326 1.879.236.126.477.224.713.289Z" stroke="#fff" stroke-width=".6" stroke-miterlimit="10" stroke-linecap="round" stroke-linejoin="round"/>
    <path d="m110.511 147.048-.858 3.759c-.188-.146-.37-.311-.553-.494-.377-2.007.345-2.925 1.411-3.265ZM140.957 150.122c-.127-.196-.3-.337-.516-.405-.717-.226-1.615.468-2.001 1.551-.352.984-.164 1.952.414 2.289-.421.359-.888.672-1.393.937-.162-.654-1.173-1.072-2.327-.946-1.206.135-2.113.816-2.025 1.523.028.228.16.433.363.6-.844.1-1.707.126-2.563.085.199-.683-.576-1.488-1.74-1.801-1.169-.316-2.284-.015-2.494.67-.037.119-.042.246-.021.37-.544-.177-1.085-.383-1.62-.612a.8077.8077 0 0 0 .169-.195c.377-.616-.169-1.58-1.221-2.152-1.053-.57-2.212-.535-2.592.083a.8422.8422 0 0 0-.104.272c-.125-.078-.25-.157-.37-.237-.125-.079-.245-.157-.366-.237a14.326 14.326 0 0 1-.287-.192c-.284-.189-.56-.38-.828-.572-.174-.122-.342-.244-.509-.365-.005-.005-.009-.007-.014-.011-.139-.102-.273-.203-.405-.303-.275-.204-.534-.406-.782-.6-.074-.059-.146-.115-.217-.172-.065-.052-.13-.102-.192-.154-.074-.059-.146-.116-.216-.172-.129-.107-.254-.209-.374-.309a.0234.0234 0 0 1-.007-.007c-.116-.095-.229-.189-.333-.278-.005-.004-.007-.009-.012-.011-.076-.065-.153-.13-.224-.191-.072-.061-.139-.12-.204-.176-.685 1.168-1.409 2.081-2.131 2.662l1.115-3.485 1.354-4.228c.553.176 1.106.376 1.654.591 1.446.568 2.853 1.247 4.13 1.921.16.085.317.17.472.252.007.003.016.007.023.013.847.538 4.854 2.854 4.933 2.854.155.083.266.131.331.144.694.128 10.386 1.96 8.484-7.568-.273-2.036.01-2.771.549-2.669.854.155 2.357 2.402 3.341 4.897-.558.291-.889 1.144-.771 2.099.141 1.135.868 1.988 1.62 1.905.037-.004.074-.011.111-.019.042.861-.032 1.642-.204 2.349Z" stroke="#fff" stroke-width=".6" stroke-miterlimit="10" stroke-linecap="round" stroke-linejoin="round"/>
    <path d="M122.563 146.13c2.326 1.256 4.244 2.293 5.014 2.698 2.902-5.536 3.964-13.058 1.541-22.727M117.938 143.944c.521-1.524.965-3.204 1.298-4.972.002-.016.007-.029.009-.044.125-.681.236-1.372.329-2.075v-.004c.109-.827.19-1.664.243-2.511M82.6838 78.4814C95.0022 105.979 113.237 99.4685 124.081 114.3c.609.83 3.121 5.697 3.471 6.671.046.131.092.259.136.389M73.2228 89.9233l-.0694.1632a20.1563 20.1563 0 0 1-.8306 1.7424c-8.4081 15.6971-31.5339 7.8309-42.7509 9.2271-7.7719.966-12.3669 3.176-16.9157 8.266-6.0273 6.744-6.0574 17.337-2.057 25.016.9626 1.849 2.1564 3.544 3.628 4.99M19.6113 142.859c4.3383 1.762 10.1064 2.042 17.7579 0M52.464 142.859c.7172.28 1.3119.57 1.7862.833.4651.259 1.5756.959 2.3276 2.082 1.4368 2.14.6988 4.629.59 4.979-.671 2.134-2.3716 3.33-3.2947 3.979a9.993 9.993 0 0 1-1.1615.704" stroke="#fff" stroke-width=".6" stroke-miterlimit="10" stroke-linecap="round" stroke-linejoin="round"/>
    <path d="m52.7091 155.438.0024-.002c.4049-.124.8005-.37 1.1615-.705 3.769-3.474 4.2179-16.623-19.6228-6.98-13.9843 5.655-40.414-8.284-29.292-35.916 5.1689-12.8431 23.6302-16.454 39.6691-15.0771.8398.0718 1.6867.0675 2.5242-.0065 15.0902-1.3313 19.0028-15.3096 18.5493-19.5644" stroke="#fff" stroke-width=".6" stroke-miterlimit="10" stroke-linecap="round" stroke-linejoin="round"/>
    <path d="M77.3113 127.357c-10.4882 0-18.8061-2.471-18.6511-12.042.155-9.571 13.7853-14.224 14.5627-25.9835M14.9168 71.0724c.0462.0218.0393.0305-.0162.0283-.4813-.0348-4.6136-1.0942-7.36-4.0047-2.589-2.7387-4.2943-9.4972.2175-15.1051 3.7968-4.716 12.5682-8.9077 22.6214-3.7697 10.0555 5.138 8.415 15.4683 8.415 21.3655 0 1.3247.1065 2.6821.3772 4.0134M39.4421 74.7271c1.1615 4.1525 4.1139 7.8983 10.6432 9.4819 9.1809 2.2231 15.0694-6.7324 15.6154-7.0217" stroke="#fff" stroke-width=".6" stroke-miterlimit="10" stroke-linecap="round" stroke-linejoin="round"/>
    <path d="M27.0916 73.8813c-5.3401 7.5656-23.2299 6.9674-26.55-10.4239-1.9899-10.4369 5.8143-19.7732 17.5959-21.6113 13.2623-2.0687 23.4451 4.7508 25.8028 12.4186.0208.0696.0347.1414.0463.211 5.2637 29.2966 19.4839 19.4426 19.5186 13.428" stroke="#fff" stroke-width=".6" stroke-miterlimit="10" stroke-linecap="round" stroke-linejoin="round"/>
    <path d="M14.8981 71.258a.5078.5078 0 0 1 .0024-.1566c0-.0109.0023-.0196.0046-.0305h.0023c.1897-1.0115 2.9708-2.2797 6.2656-1.1028.0069.0043.0162.0065.0231.0087.7751.2806 1.578.696 2.3832 1.2812M31.0018 52.5889c-.5183-.6591-1.1546-1.2638-1.932-1.8033M8.9889 53.7661c-.4952.7744-.9024 1.5988-1.2217 2.4472M15.5807 48.6411c-1.069.3394-2.05.8136-2.9362 1.3966M21.1544 48.1304c.3309.0348.671.0805 1.0134.1392.5623.0957 1.0967.2023 1.6035.3219M9.9027 64.7775c-.5646-1.1529-1.5548-1.8555-2.2096-1.5706-.1643.0696-.2915.198-.3818.3655v.0022c-.2707.5003-.2036 1.3704.2198 2.234.465.9462 1.2124 1.5901 1.8279 1.6314.1365.0109.2637-.0087.3817-.0587.6571-.285.7289-1.4509.162-2.6038Z" stroke="#fff" stroke-width=".6" stroke-miterlimit="10" stroke-linecap="round" stroke-linejoin="round"/>
    <path d="M14.9167 71.0727s-.0023 0-.0092-.0022h-.0023c-.0995-.0239-.9163-.2545-3.5354-1.9186-.7751-.4938-1.4461-1.0703-2.0107-1.712M7.3115 63.5723c-.2707-1.005-.391-2.0535-.3702-3.1172M89.1689 89.5164c7.0639 3.6088 15.2841 2.8605 20.2521-1.5857 4.417-3.9525 4.66-9.3928 4.678-10.7437M122.202 77.9922c-.012.1718-.023.3872-.039.6417M121.372 84.2026c-.248 1.0811-.574 2.2319-1.002 3.4M117.695 92.7559c-.696.9745-1.501 1.9077-2.432 2.7669M105.439 99.6496c1.588-.0152 3.307-.3067 5.084-1.0441M96.5869 96.8999s.4905.3654 1.3605.831c.0023 0 .0023.0021.0046.0021.634.3394 1.4692.7309 2.462 1.0724" stroke="#fff" stroke-width=".6" stroke-miterlimit="10" stroke-linecap="round" stroke-linejoin="round"/>
    <path d="M83.5143 72.5409c.0139 1.0963.2545 2.1535.7519 3.2128 2.4318 5.1772 8.1143 7.2698 8.1143 7.2698.4489.1631 4.7108 1.6641 8.7435.5569 6.43-1.7685 11.203-9.8823 10.472-19.8929M88.7155 60.2524c-2.7741 4.5594-4.7061 7.9746-5.118 11.0048M50.6824 30.9606c-.9625-2.0535-1.5363-4.3876-1.3674-7.3438.6016-10.5957 10.0486-17.4021 11.3628-18.3201 12.3923-8.6554 27.0753-3.7589 28.7944-3.1563 2.714.9527 12.8918 4.5245 16.2978 13.2104 2.453 6.2496.417 12.6449-4.292 22.1008M54.3358 74.1285v.0022c.0324.0087 4.1462-2.9409 5.0046-13.4867M107.869 158.608c1.032.415 2.14.668 3.292.755l-3.903 12.194-.585-.141-1.058-.257-.585-.141 2.839-12.41ZM119.167 134.338l-2.883 9.015-1.354 4.228-1.115 3.485c-.648.522-1.291.777-1.9.714-.77-.081-1.534-.392-2.263-.973l.859-3.758.907-3.968 1.999-8.743h5.75v0Z" stroke="#fff" stroke-width=".6" stroke-miterlimit="10" stroke-linecap="round" stroke-linejoin="round"/>
    <path d="M77.369 127.358c.044.219.0903.439.1342.659.0139.069.0324.163.0463.233.7172.424 2.2975 1.231 4.4655 1.303 2.8667.093 4.9051-1.153 5.5622-1.595.2221-1.185.4211-2.625.0694-2.736-.1319-.042-.2961.117-.3378.154-.4882.444-2.8806 1.075-9.9398 1.982Z" fill="url(#c)"/>
    <path d="M74.1646 111.31v-.01M89.5786 106.743s-4.9075 3.955-15.8931 2.043c-.3355-.057-.6733-.12-1.0204-.19-.3794-.078-.5738-.161-.9671-.252l.9857-2.364s.0115.002.037.008a.4193.4193 0 0 0 0 .076c.0393.368.7566.638 1.9134.788 1.4646.193 3.6372.196 6.0389-.035.6363-.061 1.261-.137 1.8602-.226h.0023c1.3027-.129 2.5891-.372 3.7529-.783h.0023c.715-.253 1.3813-.566 1.9806-.955.0069-.002.0208-.285.0278-.29l1.2795 2.18ZM119.236 138.972c.002-.016.007-.029.009-.044.148-.711.257-1.403.329-2.075v-.004c.092-.866.125-1.704.102-2.511" stroke="#fff" stroke-width=".6" stroke-miterlimit="10" stroke-linecap="round" stroke-linejoin="round"/>
    <path d="M93.2274 106.07c-4.0375-4.729-8.3966-10.3321-9.7409-12.7705-.0323-.0588-.0647-.1153-.0948-.1697a123.0214 123.0214 0 0 0-.2777-.509c-.0231-.0457-.0462-.0849-.0647-.1218a.9975.9975 0 0 0-.0347-.0675c-.0139-.0304-.0278-.0544-.0394-.0761l-.0393-.0805c.4373 5.0336-2.2443 8.7751-5.4095 11.9121M98.4888 111.721c-.4281-.395-.863-.813-1.3003-1.255M109.349 119.721l-.298.004a2.0314 2.0314 0 0 0-.067-.266c.123.087.245.175.365.262ZM104.657 116.543c-.819-.557-1.656-1.142-2.515-1.786M122.068 145.865c.021-.024.188.072.472.252M59.4654 146.465a7.4195 7.4195 0 0 0-.1782-1.253M59.0674 150.022c-.1249.437-.2707.84-.435 1.209M52.7092 155.438s2.3161-.061 4.2434-1.838M63.3848 101.929c4.646-2.6626 7.3808-6.4389 8.9379-10.0998.3587-.844.6571-1.6815.9001-2.4972 1.2772-4.2831 1.0828-7.9833.7242-8.9165M58.0424 104.178c-1.0528.311-2.1726.574-3.3642.785M45.5157 105.49c1.1986.055 2.3462.064 3.4498.032M40.0369 105.44c-1.143.031-2.2582.086-3.3202.158M28.7921 106.675c.273-.065.5484-.128.8306-.191.4512-.1.9788-.198 1.5664-.292M23.0379 108.611c-.7288.357-1.4021.751-2.0291 1.195M17.1817 114.064c-.2591.531-.9995 2.369-1.2263 2.976M16.4809 117.878h-1.659c.2545-.507.6317-.842.981-.853a.5295.5295 0 0 1 .1527.016c.2962.078.4813.402.5253.837Z" stroke="#fff" stroke-width=".6" stroke-miterlimit="10" stroke-linecap="round" stroke-linejoin="round"/>
    <path d="M56.256 141.256a7.8645 7.8645 0 0 0-.3331-.137 3.6824 3.6824 0 0 0-.2522-.094c0-.002-.0023-.002-.0023-.002-.2083-.411-.7335-.803-1.423-1.018-.2776-.087-.553-.137-.8144-.15-.5599-.031-1.0458.102-1.305.363a9.6891 9.6891 0 0 0-.3285-.033 18.584 18.584 0 0 0-1.3142-.071 5.0238 5.0238 0 0 0-.2106-.005c-.229-.002-.4604-.002-.6895.002a4.377 4.377 0 0 0-.229.007c-.0949 0-.1874.004-.28.009-.1504.004-.3008.013-.4512.021-.111.007-.2221.013-.3355.022-.118.009-.236.017-.354.028-.1156.009-.2313.02-.347.031-.715.072-1.4183.167-2.1032.285-.1435.024-.2869.05-.4304.076-.1411.026-.2822.052-.4234.08-.2499.048-.4928.1-.7334.153-.0856.017-.1689.037-.2522.056-.1227.026-.243.055-.361.083-.2383.056-.472.113-.701.172-.2291.058-.4535.117-.6733.178-.0139.004-.0278.007-.0417.011-.1874.052-.3679.102-.546.154-.6455.188-1.2379.375-1.7608.553-.1573.052-.31.104-.4558.154-.0879.031-.1735.061-.2568.092-.0069.002-.0162.004-.0231.006-.7219.216-1.3258.427-1.7353.577H14.9096l-.6826-3.531-3.7297-19.323-.2198-1.131-.1921-.996 42.4987-.268" fill="url(#d)"/>
    <path d="M39.1715 73.6006c.2106.67.3355 1.0658.3401 1.0832 0 .0066-.0231.0218-.0694.0436M51.9366 59.6164c1.9178-.2731 2.6441-5.6355 1.6221-11.9772-1.022-6.3416-3.4052-11.261-5.3231-10.9879-1.9178.2732-2.644 5.6356-1.6221 11.9772 1.022 6.3417 3.4053 11.2611 5.3231 10.9879ZM102.373 50.63c1.532-6.7637 1.236-12.5547-.661-12.9345-1.8976-.3799-4.6777 4.7952-6.2097 11.5588-1.5321 6.7637-1.2361 12.5546.6612 12.9345 1.8973.3799 4.6775-4.7952 6.2095-11.5588ZM51.9364 59.6179s1.5942 1.2703 7.404 1.0288c.8098-.0326 1.3512-.7765 1.6682-2.0012" stroke="#fff" stroke-width=".6" stroke-miterlimit="10" stroke-linecap="round" stroke-linejoin="round"/>
    <path d="m48.2368 36.6839 6.0134-3.6414c2.2744 1.3791 5.5183 6.2039 5.6502 11.7029.0277 1.1703.0185.0762.0277.1153M87.531 55.9131c.28 2.2949.9394 4.2592 2.0083 5.5513 2.3485 2.8452 6.6243.7265 6.6243.7265M88.697 44.5712c1.2841-4.1439 3.4706-7.8135 6.4299-9.4994 2.8644-1.6314 6.5851 2.6299 6.5851 2.6299" stroke="#fff" stroke-width=".6" stroke-miterlimit="10" stroke-linecap="round" stroke-linejoin="round"/>
    <path d="M100.018 36.1728c-.8164-25.7182-24.759-23.3232-24.759-23.3232-22.6237-.5808-25.974 23.134-25.974 23.134l2.8876-1.6924c.3817-.2284 3.26-15.5553 16.8393-18.7465 17.5868-4.133 27.8459 6.5345 28.813 19.3839l2.1931 1.2442Z" fill="url(#e)"/>
    <path d="M52.3345 33.6603c.3632-.2197 3.769-15.0551 16.6774-18.1157 16.719-3.9655 27.8435 6.5497 28.4219 19.2055M67.3621 40.8018c1.2332.0435 2.6885.2415 7.6191-2.4232 4.6946-2.5364 5.7589-2.2058 5.7589-2.2058M63.5053 60.1706s-1.261-.3437-2.4965-1.5248c-1.0944-1.0463-2.168-2.7474-2.3369-5.4447 0 0-.1782-2.0252.8399-4.3354.317-.2632.6895-.5394 1.1152-.8048 1.5132-.9463 3.6811-1.7402 6.3489-1.2008 3.7367.757 4.7038 2.047 5.0462 2.134.1666.4242.3124.8853.4304 1.3791 1.5757 6.5737-3.547 10.5131-8.9472 9.7974Z" stroke="#fff" stroke-width=".6" stroke-miterlimit="10" stroke-linecap="round" stroke-linejoin="round"/>
    <path d="M89.1576 49.0695c-.1689-.9898-.5206-1.8468-1.0064-2.4777-.4813-.6243-1.0944-1.0245-1.8001-1.1137-2.0246-.2545-4.0352 2.16-4.4956 5.3925-.4605 3.2324.8075 6.0603 2.8297 6.3126 1.0111.1262 2.0176-.4111 2.832-1.3878l.0139.1175c-4.2943 6.5954-16.6636 5.6665-14.5488-7.7766.1272-.8114.3054-1.5445.5229-2.2101 5.7034-5.2794 13.0448-2.3645 15.1156-1.6097.0255.0827.0509.1675.0764.2545.3471 1.2182.516 2.7017.4604 4.4985Z" stroke="#fff" stroke-width=".6" stroke-miterlimit="10" stroke-linecap="round" stroke-linejoin="round"/>
    <path d="M89.1574 49.0697c-.0277.9985-.1272 2.0948-.3031 3.2978-.1573 1.0702-.4835 2.0382-.9416 2.8996-.0024 0-.0024 0-.0024.0022a8.592 8.592 0 0 1-.3794.6438l-.0139-.1174c-.8144.9767-1.8209 1.514-2.832 1.3878-2.0222-.2523-3.2901-3.0802-2.8297-6.3126.4604-3.2325 2.4711-5.647 4.4956-5.3925.7057.0892 1.3188.4894 1.8001 1.1137.4859.6308.8375 1.4879 1.0064 2.4776ZM92.17 62.9502c-.0116.174.391 10.1716-8.5724 8.3073-8.4822-1.7641-7.2883-1.3486-7.2883-.8809 0 .4676 4.0537 1.3008 5.8607 1.8337.4674.1392.9162.248 1.3443.3307 9.6598 1.8772 10.6617-9.5908 10.6617-9.5908H92.17ZM67.9406 63.979c-.2869 1.7097 4.9953 10.0062 12.0198-2.1992" stroke="#fff" stroke-width=".6" stroke-miterlimit="10" stroke-linecap="round" stroke-linejoin="round"/>
    <path d="M66.1079 54.0491c-.5807-2.7692-2.6747-4.7139-4.676-4.3419-2.0014.372-3.1537 2.9171-2.5752 5.6862.5807 2.7691 2.6746 4.7138 4.676 4.3418 2.0037-.372 3.156-2.917 2.5752-5.6861Zm-4.0606 4.2722c-1.0065.1871-2.0847-.9158-2.4086-2.4646-.3239-1.5466.2291-2.9518 1.2332-3.1389 1.0065-.1871 2.0847.9158 2.4086 2.4646.324 1.5466-.229 2.9518-1.2332 3.1389ZM89.1575 49.0697c-.1689-.9897-.5206-1.8468-1.0065-2.4776-.4813-.6243-1.0944-1.0245-1.8001-1.1137-2.0245-.2545-4.0352 2.16-4.4956 5.3925-.4604 3.2324.8075 6.0603 2.8297 6.3126 1.0111.1262 2.0176-.4111 2.832-1.3878a6.1395 6.1395 0 0 0 .3934-.5264c0-.0022 0-.0022.0023-.0022.6177-.9288 1.0759-2.1318 1.2679-3.4761.1365-.9615.1203-1.8881-.0231-2.7213Zm-.398 2.9432c-.2453 1.7163-1.3142 2.9997-2.3878 2.8648-1.0736-.1348-1.7469-1.6358-1.5039-3.3543.2429-1.7184 1.3142-2.9997 2.3878-2.8648 1.0735.1349 1.7491 1.6358 1.5039 3.3543Z" fill="#fff" stroke="#fff" stroke-width=".6" stroke-miterlimit="10" stroke-linecap="round" stroke-linejoin="round"/>
    <path d="M73.5051 45.9264a13.617 13.617 0 0 0-.5414.5308c-.3054.3176-.8561.0522-.7635-.3654.1966-.881.6085-2.1166 1.4622-3.5718 1.7423-2.9736 5.2268-4.1113 5.2268-4.1113M59.5117 48.8634c-.0301.0218-.0578.0457-.0856.0696-.3586.3024-.9046-.0391-.7496-.4698a12.7126 12.7126 0 0 1 1.3466-2.693 11.6343 11.6343 0 0 1 1.0226-1.3356M68.5837 65.8807s5.361 2.619 11.1638-3.7328M86.8137 37.4517c.5553.063 3.1004 1.2681 3.3318 3.3716" stroke="#fff" stroke-width=".6" stroke-miterlimit="10" stroke-linecap="round" stroke-linejoin="round"/>
    <path d="M77.9315 70.5851c.3245-1.051-.8787-2.3033-2.6874-2.797-1.8088-.4937-3.5382-.0419-3.8627 1.0091-.3246 1.051.8786 2.3032 2.6874 2.7969 1.8087.4937 3.5381.0419 3.8627-1.009Z" fill="#fff" stroke="#fff" stroke-width=".6" stroke-miterlimit="10" stroke-linecap="round" stroke-linejoin="round"/>
    <path d="M78.3083 115.774c-1.4877.194-2.5474.018-3.3017-.328-.0116-.004-.0208-.011-.0324-.015-1.5756-.738-1.8047-2.221-1.8371-2.576-.0046-.05.0324-.089.0393-.137.044-.387.9302-1.351.988-1.412l.0023-.002c.007.002.0139.005.0209.009.4743.178 3.5469 1.771 4.595 2.351.2707.153.5646.266.87.34 1.1476.276 3.8362 1.096-1.3443 1.77Z" stroke="#fff" stroke-width=".6" stroke-miterlimit="10" stroke-linecap="round" stroke-linejoin="round"/>
    <path d="M90.9114 113.963c0 1.74-1.1962 3.45-3.105 4.779-.0093.006-.0209.013-.0301.021-2.8529 1.978-7.2767 3.113-11.6636 2.25-.0092 0-.0162-.003-.0254-.005-1.8487-.365-3.6881-1.085-5.4003-2.249a3.7966 3.7966 0 0 1-.7219-.644c-3.0957-3.552-.7866-6.358 2.7002-9.519.347.07.6848.133 1.0203.189.1365.738.3008 1.588.479 2.515-.0995-.07-2.6099 2.273.0509 4.668.2522.226.583.409.9741.551.0115.004.0208.008.0323.01 3.355 1.192 11.106-.493 12.6562-2.514.0185-.022.0347-.046.0509-.068.0347-1.405.0648-2.623.0925-3.656 0 0 2.8899.287 2.8899 3.672Z" stroke="#fff" stroke-width=".6" stroke-miterlimit="10" stroke-linecap="round" stroke-linejoin="round"/>
    <path d="M88.0216 110.291c.0046-.168.0092-.329.0115-.485 2.3901 1.087 7.1032 3.26 4.2851 10.585-.8723 2.266-2.6423 3.798-4.6715 4.831 0 0-.0046.002-.0115.006-.2291.113-3.9912 1.925-10.2638 2.128-.0208 0-.0393.002-.0601.002h.0578M88.2713 104.852c-.5992.39-1.2656.703-1.9805.955h-.0023c-1.0042.298-2.3091.574-3.7529.783h-.0023c-.5993.089-1.224.166-1.8603.226-2.4016.231-4.5742.229-6.0388.035-1.1569-.15-1.8741-.42-1.9135-.787a.4193.4193 0 0 1 0-.076c.088-.62 2.0407-1.323 4.8057-1.801.8699-.151 1.8209-.279 2.8204-.377 4.3012-.413 7.5312.018 7.9523.753.0532.091.0416.189-.0278.289ZM142.154 145.586c-.142-1.135-.868-1.988-1.62-1.903a.9056.9056 0 0 0-.333.104c-.558.292-.889 1.145-.771 2.1.141 1.135.868 1.988 1.62 1.905.037-.004.074-.011.111-.019.689-.164 1.127-1.108.993-2.187ZM140.957 150.122c-.127-.196-.3-.337-.515-.404-.718-.227-1.615.467-2.002 1.551-.352.983-.164 1.951.414 2.288.058.035.121.061.185.083.718.226 1.613-.468 1.999-1.551.273-.762.223-1.51-.081-1.967ZM137.48 154.585c-.005-.03-.009-.06-.019-.091-.162-.655-1.173-1.072-2.327-.946-1.206.135-2.113.816-2.025 1.523.028.228.16.432.363.6.424.346 1.169.528 1.983.437 1.206-.133 2.113-.816 2.025-1.523ZM129.169 153.955c-1.168-.315-2.284-.015-2.494.67-.037.12-.042.246-.021.37.097.583.798 1.181 1.761 1.438 1.168.315 2.283.015 2.492-.668 0-.002.002-.007.002-.009.199-.683-.576-1.488-1.74-1.801ZM123.982 152.036c-1.053-.569-2.212-.535-2.592.083a.8422.8422 0 0 0-.104.272c-.113.6.417 1.386 1.326 1.879.236.127.476.225.712.29.692.2 1.347.137 1.71-.176a.8318.8318 0 0 0 .169-.196c.377-.616-.169-1.579-1.221-2.152ZM114.93 147.581s11.831 5.689 19.255 3.659c7.425-2.03 2.673-12.362 2.673-12.362M101.17 95.7966c1.714 0 3.103-.6983 3.103-1.5597s-1.389-1.5597-3.103-1.5597c-1.7132 0-3.1024.6983-3.1024 1.5597s1.3892 1.5597 3.1024 1.5597ZM103.438 96.8999c-1.712 0-3.103.6961-3.103 1.5575 0 .1197.028.2371.079.3481.315.6939 1.55 1.2115 3.024 1.2115.761 0 1.46-.1369 1.999-.3675h.002c.674-.2872 1.102-.7135 1.102-1.1921 0-.8614-1.389-1.5575-3.103-1.5575ZM109.824 93.5385c1.615-.5385 2.676-1.6333 2.37-2.4451-.307-.8119-1.864-1.0334-3.479-.4948-1.615.5385-2.676 1.6333-2.37 2.4451.306.8119 1.864 1.0334 3.479.4948ZM115.268 95.529c0-.0021-.002-.0043-.005-.0065-.4-.7722-1.969-.8375-3.51-.1479-1.547.6939-2.482 1.886-2.089 2.6625.146.2872.451.4764.859.5678h.002c.694.1566 1.68.0217 2.654-.4155 1.548-.6917 2.482-1.8838 2.089-2.6604ZM116.387 87.5094c.909-1.3652 1.017-2.8427.241-3.3-.776-.4573-2.143.2787-3.053 1.6439-.91 1.3652-1.018 2.8426-.241 3.2999.776.4573 2.143-.2787 3.053-1.6438ZM63.6254 102.362c-.0347-.161-.118-.307-.2406-.433-.5252-.544-1.7747-.766-3.1328-.502-1.6798.326-2.8899 1.274-2.7025 2.116.0556.252.2314.468.4929.635.6131.394 1.7052.531 2.8806.303 1.6774-.327 2.8875-1.275 2.7024-2.119ZM51.6056 103.136c-1.7145.026-3.0889.746-3.075 1.608.0046.287.1643.552.435.776 0 .002 0 .002.0023 0 .5461.457 1.5502.751 2.6932.733 1.4993-.024 2.7372-.576 3.0148-1.29h.0023a.8266.8266 0 0 0 .0579-.317c-.0162-.862-1.4184-1.538-3.1305-1.51ZM96.2445 107.25c-1.025-.977-2.2652-1.438-3.0172-1.179a.9232.9232 0 0 0-.3447.2c-.2175.2-.31.493-.2962.831 0 .002 0 .002.0024.002.0254.687.4951 1.573 1.298 2.336 1.0527 1.003 2.3345 1.462 3.0749 1.157v.002a.85.85 0 0 0 .2268-.132c.0208-.013.0393-.031.0578-.048.6525-.607.2036-2.025-1.0018-3.169ZM102.142 114.756c-.183-.574-.597-1.213-1.198-1.785-.799-.76-1.7311-1.21-2.4553-1.249-.3702-.02-.6848.065-.9046.27-.2175.202-.3124.493-.2962.833.0278.687.4951 1.573 1.298 2.338 1.0551 1.001 2.3341 1.462 3.0751 1.157h.002a.9444.9444 0 0 0 .285-.178c.326-.304.375-.811.194-1.386ZM108.984 119.459c-.19-.594-.648-1.264-1.317-1.842-1.041-.91-2.267-1.323-3.01-1.075-.155.05-.287.128-.393.235-.208.211-.287.505-.257.844h.002c.058.685.567 1.551 1.405 2.282.358.313.74.568 1.117.755 0 0 .003 0 .003.002l.374-.94h2.143a1.9277 1.9277 0 0 0-.067-.261ZM104.738 110.343c-1.441-.873-3.01-.99-3.507-.266-.167.242-.19.546-.095.872-.002.003-.002.003.002.003.185.665.847 1.433 1.81 2.014 1.26.761 2.616.946 3.269.498l.002.002c.093-.065.174-.141.236-.235.493-.726-.275-2.018-1.717-2.888ZM111.589 115.148c-1.282-1.072-2.811-1.416-3.42-.774-.203.215-.277.511-.238.848-.002.002-.002.002.002.002.075.683.602 1.538 1.456 2.254 1.12.937 2.429 1.318 3.147.97l.002.002c.102-.05.194-.115.271-.198.606-.644.062-2.034-1.22-3.104ZM42.7903 103.179c-1.7122-.078-3.1351.553-3.1814 1.414-.0162.303.1412.594.4281.847.5229.465 1.4808.802 2.589.854 1.2726.061 2.3855-.274 2.8899-.804.1781-.183.2799-.39.2915-.61.0463-.859-1.3049-1.62-3.0171-1.701ZM37.0939 104.4c-.2892-.818-1.8418-1.066-3.4683-.557-1.5919.498-2.6654 1.54-2.4364 2.349a.3693.3693 0 0 0 .0162.05c.2892.818 1.8417 1.068 3.4683.559.8885-.278 1.615-.724 2.043-1.205.3563-.4.5091-.824.3772-1.196ZM24.6841 105.525c1.5885-.604 2.5975-1.742 2.2538-2.54-.3438-.799-1.9102-.956-3.4987-.351-1.5885.604-2.5975 1.741-2.2538 2.54.3438.798 1.9102.956 3.4987.351ZM16.5047 110.289c1.3667-.972 2.0267-2.317 1.474-3.004-.5527-.687-2.1087-.456-3.4754.516-1.3668.972-2.0267 2.317-1.4741 3.004.5527.687 2.1087.456 3.4755-.516ZM28.7921 106.675a.8207.8207 0 0 0-.0903-.311c-.4026-.772-1.9759-.826-3.5169-.117-1.3419.617-2.2142 1.609-2.1471 2.364.0093.111.037.218.0879.316.4026.774 1.9783.826 3.5169.119 1.3443-.618 2.2189-1.612 2.1495-2.371ZM59.2942 151.277c-.1735-.117-.4072-.128-.6617-.046-.3887.122-.826.459-1.1708.94-.3563.494-.5321 1.027-.509 1.429.0139.242.1018.44.2684.553.4373.3 1.2587-.1 1.8302-.894.5714-.794.6802-1.682.2429-1.982ZM60.6684 148.297c-.0532-.987-.583-1.781-1.2031-1.831-.0278-.003-.0556-.003-.0833-.003-.6548.016-1.1384.864-1.0829 1.895.0417.742.354 1.375.7682 1.664.162.113.3378.174.5206.17.6548-.018 1.1384-.866 1.0805-1.895ZM59.2871 145.212c-.0069.005-.0139.007-.0208.011-.5877.274-1.4785-.241-1.9921-1.153-.236-.417-.3494-.844-.3494-1.211h.0255l-.0209-.12c.0278-.381.1874-.681.4767-.816.428-.2 1.0226.022 1.5108.516.1782.178.3424.394.479.637.5067.901.4581 1.849-.1088 2.136Z" stroke="#fff" stroke-width=".6" stroke-miterlimit="10" stroke-linecap="round" stroke-linejoin="round"/>
    <path d="M56.9501 142.86h-.0253c0-.042.0023-.081.0046-.121l.0207.121ZM21.0827 109.873a.6256.6256 0 0 0-.074-.067c-.6502-.551-2.1147-.192-3.348.837-1.2818 1.07-1.8255 2.46-1.217 3.104.1759.19.4327.292.7381.318.7404.063 1.7746-.333 2.6816-1.09 1.2818-1.07 1.8255-2.46 1.2193-3.102ZM41.1637 82.6065c.7451-.5012.541-1.9696-.456-3.2799-.997-1.3102-2.4092-1.9661-3.1544-1.465-.7451.5012-.541 1.9696.456 3.2799.9969 1.3102 2.4092 1.9661 3.1544 1.465ZM37.3855 61.8868c-.0833 1.1355-.5252 2.0948-1.099 2.5407-.118-.3785-.2383-.7548-.354-1.1311-.28-.8854-.5553-1.7598-.8168-2.5929a161.7465 161.7465 0 0 1-.354-1.129c.3286-.4633.745-.7331 1.18-.7048.914.0587 1.5595 1.4096 1.4438 3.0171ZM27.1702 48.272c-1.4322-.6961-2.913-.6765-3.3087.0413a.7487.7487 0 0 0-.0902.2785c-.0926.7135.708 1.6749 1.9667 2.2862 1.4322.6939 2.913.6765 3.3086-.0435.0093-.0152.0162-.0326.0231-.0479.3355-.7222-.4997-1.8337-1.8995-2.5146ZM34.0767 53.7249c-1.0944-1.1137-2.4919-1.5705-3.1259-1.0223a.7743.7743 0 0 0-.1851.2327c-.3447.6417.0579 1.8011 1.0204 2.78 1.0944 1.1116 2.4919 1.5706 3.1258 1.0202.0139-.0109.0278-.0261.0394-.037.5761-.5721.1943-1.8838-.8746-2.9736ZM12.6446 50.038a.7485.7485 0 0 0-.1735-.2132c-.5993-.509-1.9065-.0631-2.92.9919-1.011 1.0572-1.3442 2.3254-.7426 2.8344a.8066.8066 0 0 0 .1804.1153c.6525.3089 1.8186-.1479 2.7372-1.1072.8931-.931 1.2586-2.0274.9185-2.6212ZM8.6927 58.2928c-.0532-.9571-.4327-1.7598-.9255-2.0796-.1596-.1066-.3308-.1609-.5067-.1522-.7219.0369-1.2494 1.0919-1.1777 2.3601.0486.9136.398 1.688.8584 2.0339.1782.1371.3725.2067.5738.198.722-.0348 1.2471-1.092 1.1777-2.3602ZM21.1683 47.8974c-.0764-.7853-1.4067-1.3095-2.9685-1.1725-1.5641.1349-2.7673.8832-2.6886 1.6684a.7672.7672 0 0 0 .0694.248c.3008.6439 1.5086 1.0463 2.8991.9267 1.4045-.124 2.5243-.7418 2.6747-1.4379a.7855.7855 0 0 0 .0139-.2327ZM37.5334 85.127c.7452-.5012.541-1.9696-.4559-3.2799-.997-1.3102-2.4093-1.9661-3.1544-1.465-.7452.5012-.541 1.9696.4559 3.2799.997 1.3102 2.4092 1.9661 3.1544 1.465ZM63.8175 83.4589c-.4095-.77-1.9852-.807-3.5169-.0848-1.5293.7222-2.4386 1.9316-2.0268 2.7017.4095.77 1.9852.807 3.5169.0848 1.5294-.7222 2.4387-1.9338 2.0268-2.7017ZM49.8193 90.8846c-1.5039.1479-3.031.1262-4.5395-.0848" stroke="#fff" stroke-width=".6" stroke-miterlimit="10" stroke-linecap="round" stroke-linejoin="round"/>
    <path d="M60.5851 86.5737c-1.5294 1.2312-3.3156 2.2471-5.2453 2.9932M65.8304 77.0635c-.0578 2.1796-.7982 4.2374-2.0338 6.069M31.6125 77.438c.2499 2.6081 1.032 5.0662 2.7673 7.2045 1.6774 2.0665 3.6372 3.5761 5.745 4.6007M47.6189 86.0866c-.3447.7983-1.9111.9549-3.4983.348-1.5896-.6047-2.5984-1.7424-2.2536-2.5385.3447-.7984 1.9111-.955 3.4984-.3503 1.5872.6048 2.596 1.7424 2.2535 2.5408ZM45.2798 90.8002c.1365-.0957.243-.2153.3101-.3567.3702-.7875-.5993-1.9556-2.1657-2.606-1.5687-.6526-3.1374-.5417-3.5099.2458-.1597.3393-.0694.7505.2105 1.1594.3702.5395 1.0667 1.0768 1.9575 1.4466 1.2841.5329 2.5705.5568 3.1975.1109ZM56.2446 85.8063c-.0162.8614-1.416 1.5379-3.1305 1.5118-1.7121-.0261-3.0888-.7461-3.0749-1.6075.0162-.8593 1.416-1.5358 3.1305-1.5097 1.7121.0261 3.0888.744 3.0749 1.6054Z" stroke="#fff" stroke-width=".6" stroke-miterlimit="10" stroke-linecap="round" stroke-linejoin="round"/>
    <path d="M55.3398 89.5674c.0579.1153.088.2349.088.3589.0092.8614-1.3744 1.5705-3.0866 1.5836-1.0365.0087-1.9551-.2371-2.5219-.6243-.3726-.2545-.5924-.5677-.597-.9093-.0069-.8592 1.3767-1.5705 3.0889-1.5835 1.4669-.0109 2.7024.4894 3.0286 1.1746ZM120.814 87.7333c-.132-.0783-.282-.1218-.444-.1305-.785-.0566-1.854.6417-2.608 1.775-.909 1.3639-1.018 2.8409-.24 3.2978.055.0326.113.0587.173.0804.794.2698 2.034-.4568 2.878-1.7228.91-1.3661 1.018-2.8431.241-3.2999ZM118.901 80.3399c-.405 1.5662-1.453 2.6712-2.342 2.4689-.891-.2045-1.286-1.638-.882-3.202.077-.3023.179-.5851.299-.8462.215.0805.444.1284.68.1414.206.0131.417.0022.63-.0391l1.036-.198.687-.1327c.088.5264.058 1.1551-.108 1.8077ZM122.54 78.5967a.9632.9632 0 0 0-.377.037c-.768.2175-1.448 1.3139-1.608 2.693-.15 1.2878.201 2.4298.817 2.8757.15.1088.314.1762.492.1936.912.0935 1.801-1.129 1.986-2.7321.187-1.601-.401-2.9736-1.31-3.0672ZM59.2873 142.533c-.0255-.037 20.3632-6.613 20.3632-6.613M79.3751 134.58l-20.7427 6.474 20.7427-6.474Z" stroke="#fff" stroke-width=".6" stroke-miterlimit="10" stroke-linecap="round" stroke-linejoin="round"/>
    <path d="m79.7127 136.222-.3378-1.642-21.4831 1.91" stroke="#fff" stroke-width=".6" stroke-miterlimit="10" stroke-linecap="round" stroke-linejoin="round"/>
    <path d="M31.9647 131.509c1.1703-.146 1.9635-1.361 1.7716-2.713-.1918-1.351-1.2961-2.328-2.4665-2.181-1.1703.147-1.9635 1.362-1.7716 2.713.1919 1.352 1.2962 2.328 2.4665 2.181Z" fill="#fff" stroke="#fff" stroke-width=".6" stroke-miterlimit="10" stroke-linecap="round" stroke-linejoin="round"/>
    <path d="m140.814 72.0948-.141-.6504c-2.707 1.1333-5.949 1.7838-8.975 1.1312-.944-.2023-5.319-1.1464-6.337-4.1483-.368-1.0854-.387-2.6951.485-3.2542 1.065-.683 2.381.8745 4.758 1.0289 2.832.1849 6.471-1.6684 7.609-4.8334.063-.1719.116-.3437.16-.5156l-3.859-17.772-.158-.7265c-.259-1.1942-1.499-1.9643-2.767-1.7206l-21.7 4.1656c-1.271.2436-2.09 1.4074-1.831 2.6016l6.458 29.7404c.167.7678.738 1.3595 1.46 1.6184.215.0805.444.1283.68.1414.206.013.417.0021.63-.0392l1.036-.1979.687-.1327 19.975-3.835c1.27-.2437 2.089-1.4074 1.83-2.6017Zm-28.447-23.047c-.384 0-.697-.2936-.697-.6547 0-.3633.313-.657.697-.657.386 0 .698.2937.698.657 0 .3611-.312.6547-.698.6547Z" fill="url(#f)"/>
    <path d="M39.1715 73.6001c-.56-1.7771-1.7238-5.4816-2.8853-9.1731-.118-.3785-.2383-.7548-.354-1.1311-.2799-.8854-.5553-1.7598-.8167-2.5929a156.5673 156.5673 0 0 1-.354-1.129c-.2568-.8136-.4952-1.5706-.7057-2.2405-.1388-.4351-.2638-.8353-.3748-1.1899a2642.8365 2642.8365 0 0 1-.5623-1.7837l-.9208.2936-.2337.074-.7312.2327-9.9907 3.1694 2.124 5.721c3.0842-2.2079 8.9704-2.2754 9.9051.2654.162.4415.1736.9614-.0046 1.564-1.8579 2.4167-4.7108 4.2548-4.7108 4.2548-.1411 1.4814-.6617 2.8061-1.4646 3.946l1.7076 4.6007s1.143-.3894 2.6839-.9202c2.9523-1.0158 7.36-2.5472 7.9593-2.8344a15.6194 15.6194 0 0 1-.2707-1.1268ZM25.9994 61.1576l-1.2472.3567c-.6061.1719-1.2447-.1479-1.4298-.7178l-.3355-1.0354c-.1828-.57.1573-1.1703.7635-1.3444l1.2471-.3567c.6062-.1718 1.2448.1479 1.4299.7178l.3355 1.0355c.1828.5699-.1573 1.1724-.7635 1.3443Z" fill="url(#g)"/>
    <path d="M119.25 130.832h-5.893c-.634 0-1.356-.631-1.139-1.408l.785-2.804c.217-.776 1.078-1.407 1.925-1.407h5.893c.844 0 1.356.631 1.138 1.407l-.784 2.804c-.218.779-1.081 1.408-1.925 1.408Z" fill="url(#h)"/>
    <path d="M124.771 130.632h-2.249c-.322 0-.516-.242-.435-.538l.298-1.07c.083-.296.412-.537.736-.537h2.249c.321 0 .516.241.435.537l-.299 1.07c-.085.296-.414.538-.735.538Z" fill="url(#i)"/>
    <path d="M125.587 127.39h-2.249c-.321 0-.516-.241-.435-.537l.299-1.07c.083-.296.412-.537.736-.537h2.249c.321 0 .515.241.435.537l-.299 1.07c-.083.296-.412.537-.736.537Z" fill="url(#j)"/>
    <path d="M126.203 134.341h-18.117l4.052-10.842h18.114l-4.049 10.842Z" stroke="#fff" stroke-width=".6" stroke-miterlimit="10" stroke-linecap="round" stroke-linejoin="round"/>
    <path d="m112.138 123.496-4.049 10.844-5.327-4.018 3.617-9.273v-.002l.037-.091.118-.296.375-.94 1.42 1.025.241.174c-.007.006-.019.011-.028.015l-.002-.002c-.002 0-.005.002-.007.002l3.605 2.562Z" stroke="#fff" stroke-width=".6" stroke-miterlimit="10" stroke-linecap="round" stroke-linejoin="round"/>
    <path d="m106.534 120.661-.118.296.115-.298s.003 0 .003.002ZM134.692 43.0815c20.412 1.9099 14.803 24.3305 6.92 28.0263a21.376 21.376 0 0 1-.761.3371c-2.707 1.1333-5.949 1.7837-8.975 1.1312-.944-.2023-5.319-1.1464-6.337-4.1483-.368-1.0854-.387-2.6951.486-3.2542 1.064-.683 2.38.8745 4.757 1.0289 8.035-.3306 7.959-6.2756 7.073-8.5967M27.0914 73.8812s1.497-1.8685 1.4646-3.9459c6.5595-4.6421 4.4169-6.1125 4.4169-6.1125" stroke="#fff" stroke-width=".6" stroke-miterlimit="10" stroke-linecap="round" stroke-linejoin="round"/>
    <path d="M21.2424 69.9961c-.3471-.1522-1.0366-.2719-1.0875-.6025-.1596-1.0507.1551-2.8823 2.7326-5.1641 8.1142-4.4202 10.2128.0065 10.3817-.1131M37.089 142.859c-.3702.135-.583.222-.583.222M52.9638 143.063c.5391.348-1.0273-.624-.3841-.204 0 0-3.54-1.188-6.0088-1.399-3.7019-.587-9.4817 1.399-9.4817 1.399M55.738 141.619c-.0023.009-.0046.013-.0069.022-.2221.581-1.2471.785-2.2883.461-.4766-.148-.8723-.383-1.143-.648l.0185-.018-.1018-.074c-.2591-.291-.3655-.613-.2545-.898a.6814.6814 0 0 1 .1643-.246c.2591-.261.745-.394 1.3049-.363.2615.013.5368.063.8145.15.6895.215 1.2147.607 1.4229 1.018 0 0 .0023 0 .0023.002.1042.2.1319.405.0671.594Z" stroke="#fff" stroke-width=".6" stroke-miterlimit="10" stroke-linecap="round" stroke-linejoin="round"/>
    <path d="M52.1261 140.218a9.1354 9.1354 0 0 0-.3286-.033 18.584 18.584 0 0 0-1.3142-.071c-.0694-.002-.1388-.005-.2105-.005a22.6391 22.6391 0 0 0-.6895.003c-.0764 0-.1527.002-.2291.006-.0925 0-.1851.004-.28.009-.1503.004-.3007.013-.4511.022-.1111.006-.2222.013-.3355.021-.118.009-.236.018-.354.029-.1157.008-.2314.019-.3471.03-.7149.072-1.4183.167-2.1032.285-.1434.024-.2869.05-.4303.076-.1412.026-.2823.052-.4234.081-.2476.047-.4929.1-.7335.152-.0856.017-.1689.037-.2522.056-.1203.027-.2406.055-.3609.083-.2384.057-.472.113-.7011.172a37.504 37.504 0 0 0-.6733.178c-.0139.005-.0278.007-.0416.011-.1851.052-.3679.102-.5461.155a40.315 40.315 0 0 0-1.7607.552c-.1574.052-.3101.105-.4559.155a9.98 9.98 0 0 0-.2568.091c-.0069.002-.0162.004-.0231.006-.2545.092-.4836.174-.6872.251" stroke="#fff" stroke-width=".6" stroke-miterlimit="10" stroke-linecap="round" stroke-linejoin="round"/>
    <path d="M38.8475 142.276a27.963 27.963 0 0 0-.7103.257M111.925 123.21l.213.287-3.568-2.578-.241-.174-1.42-1.024h2.441l7.559-.12 8.181-.128 2.598 1.888 2.564 1.862h-18.306l-.021-.013Z" stroke="#fff" stroke-width=".6" stroke-miterlimit="10" stroke-linecap="round" stroke-linejoin="round"/>
  </g>
  <defs>
    <linearGradient id="b" x1="73.6851" y1="112.459" x2="88.0071" y2="112.459" gradientUnits="userSpaceOnUse">
      <stop stop-color="#3FFFD8"/>
      <stop offset=".4888" stop-color="#B9C3FC"/>
      <stop offset="1" stop-color="#FF7EA7"/>
    </linearGradient>
    <linearGradient id="c" x1="77.3686" y1="127.387" x2="87.8376" y2="127.387" gradientUnits="userSpaceOnUse">
      <stop stop-color="#3FFFD8"/>
      <stop offset=".4888" stop-color="#B9C3FC"/>
      <stop offset="1" stop-color="#FF7EA7"/>
    </linearGradient>
    <linearGradient id="d" x1="10.0859" y1="130.235" x2="56.2566" y2="130.235" gradientUnits="userSpaceOnUse">
      <stop stop-color="#3FFFD8"/>
      <stop offset=".4888" stop-color="#B9C3FC"/>
      <stop offset="1" stop-color="#FF7EA7"/>
    </linearGradient>
    <linearGradient id="e" x1="49.286" y1="24.4816" x2="100.019" y2="24.4816" gradientUnits="userSpaceOnUse">
      <stop stop-color="#3FFFD8"/>
      <stop offset=".4888" stop-color="#B9C3FC"/>
      <stop offset="1" stop-color="#FF7EA7"/>
    </linearGradient>
    <linearGradient id="f" x1="108.011" y1="59.7479" x2="140.862" y2="59.7479" gradientUnits="userSpaceOnUse">
      <stop stop-color="#3FFFD8"/>
      <stop offset=".4888" stop-color="#B9C3FC"/>
      <stop offset="1" stop-color="#FF7EA7"/>
    </linearGradient>
    <linearGradient id="g" x1="21.2419" y1="66.4213" x2="39.4417" y2="66.4213" gradientUnits="userSpaceOnUse">
      <stop stop-color="#3FFFD8"/>
      <stop offset=".4888" stop-color="#B9C3FC"/>
      <stop offset="1" stop-color="#FF7EA7"/>
    </linearGradient>
    <linearGradient id="h" x1="112.17" y1="128.023" x2="122.009" y2="128.023" gradientUnits="userSpaceOnUse">
      <stop stop-color="#3FFFD8"/>
      <stop offset=".4888" stop-color="#B9C3FC"/>
      <stop offset="1" stop-color="#FF7EA7"/>
    </linearGradient>
    <linearGradient id="i" x1="122.068" y1="129.558" x2="125.823" y2="129.558" gradientUnits="userSpaceOnUse">
      <stop stop-color="#3FFFD8"/>
      <stop offset=".4888" stop-color="#B9C3FC"/>
      <stop offset="1" stop-color="#FF7EA7"/>
    </linearGradient>
    <linearGradient id="j" x1="122.886" y1="126.318" x2="126.641" y2="126.318" gradientUnits="userSpaceOnUse">
      <stop stop-color="#3FFFD8"/>
      <stop offset=".4888" stop-color="#B9C3FC"/>
      <stop offset="1" stop-color="#FF7EA7"/>
    </linearGradient>
    <clipPath id="a">
      <path fill="#fff" d="M0 0h149v174H0z"/>
    </clipPath>
  </defs>
</svg>
