<svg width="55" height="30" fill="none" xmlns="http://www.w3.org/2000/svg">
  <path d="M22.1121 17.7684c-.0857.0286-.1428-.0286-.1428-.0857-.0286-.1428-.1143-.6856-.1428-.8284-.0286-.0857 0-.1429.0857-.1714.3713-.1143.9998-.3429 1.514-.5143.1429-.0571.1714-.0857.2571-.2285.2-.3428.7428-1.2569.9999-1.7426.0285-.0571.0285-.1428 0-.2285l-.1143-.2c-.0286-.0571-.1428-.1428-.2-.1428-.5142-.1428-1.1998-.3142-1.5426-.3714-.0857-.0285-.1428-.0285-.2285 0l-.0572.0286c.4857.1714.9142.3142 1.457.5142.0571.0286.0857.0571.1142.1143l.0572.1714c.0285.0571 0 .1428-.0286.1999-.2285.4571-.6285 1.0284-.9427 1.4284-.0572.0571-.1143.1142-.1714.1142-.3143.1143-.857.2857-1.1141.3714-.0572 0-.0857 0-.1143-.0286-.1714-.1142-.5428-.457-.5428-.457s-.0285.3713-.0285.5427v.0572l.2285.5713c0 .0286.0286.0572.0286.1143.0571.2571.2285.9713.2285.9713.0286.1142.0857.1428.1714.1142.1143-.0285.5142-.1428.6856-.1999.0286 0 .0571-.0286.0571-.0286.1143-.0857.2857-.2571.2857-.2571s-.5713.1428-.7999.1714Z" fill="#fff"/>
  <path d="M22.9976 15.5687c.2-.2571.4571-.6285.6856-.9999l-1.6568 1.3713c.2571-.0857.6284-.2.857-.2857.0571-.0286.0857-.0571.1142-.0857ZM23.055 10.084l-.2857.0286c-.0286 0-.0286.0285-.0571.0571l-.0286.3428c0 .0286.0286.0286.0286.0286l.2856-.0572c.0286 0 .0857-.0285.0857-.0857.0286-.0857.0572-.1714 0-.2571.0286-.0285 0-.0571-.0285-.0571ZM20.1697 14.4834l.457.5142.1429-.9141c-.2857.0571-.5142.2-.5999.3999ZM34.7961 14.3687c-.1714-.3143-1.0855-1.5427-2.2282-2.7425-.0286-.0571-.0857-.0857-.1429-.1142l-.1999-.0857s.3428 1.4569.4856 2.2282c.0286.1143.0571.2.1428.2571.5143.5142.8571.8856 1.1142 1.3141.1142.1714.1999.3999.1999.5999.0857 1.1427.0286 2.7424-.0857 3.5994-.0285.1714-.0571.2285-.1999.3428-1.1142.8856-2.9139 2.4568-3.7137 3.2281-.0857.0857-.1143.1142-.1714.1999-.1143.1429-.2.3714-.2.3714s-.2-.5713-.2285-.8856c-.0286-.1428-.0286-.1714 0-.3428.0857-.657.5713-2.1996.6284-2.4282V19.7107c-.1714.3428-1.0284 2.2853-1.2284 2.9709-.0285.1429-.0285.2 0 .3143.1143.3142.4286 1.1141.6 1.4569 0 0 .3428-.6571.5713-.9999.0571-.0857.1143-.1714.2-.2571.6284-.5713 2.8281-2.4281 3.8565-3.1995.1428-.1142.1714-.1714.2285-.3142.4285-1.5997.5999-3.428.4-5.1706.0285 0 0-.0857-.0286-.1428ZM30.2538 9.7127c.0286-.0857.0571-.1714.0571-.2285-.0285-.2-.0857-.4285-.1428-.6285 0-.0285-.0286-.0571-.0571-.0857l-.3143-.1428c-.0285-.0286-.0857-.0286-.1428-.0286-.7427.1429-1.5426.2857-2.1425.4285-.0572 0-.0857.0286-.1143.0857l-.2.3143c-.0285.0285 0 .0571.0286.0571.1428.0286.4856.0857.5999.1143.0571 0 .0857 0 .1428-.0286.3714-.1714.9999-.4 1.457-.5713h.1142l.2.0571c.0286 0 .0571.0286.0857.0571.0571.1143.1143.2.1428.2857.0286.0571 0 .1143-.0285.2-.1429.2285-.4285.5713-.5999.7998-.0286.0572-.0572.1143-.0286.1715.1143.3713.3428 1.1426.4571 1.514.0285.0571.0285.0857.0857.1143l.1714.1714s-.2857-1.2855-.3428-1.6569c0-.0571 0-.1143.0285-.1714.1429-.2.4-.6.5428-.8285Z" fill="#fff"/>
  <path d="M36.967 10.7698c-.0285-.0857-.0571-.1428-.1428-.1999-.8284-.6285-2.3425-1.514-3.2566-1.8855a.4238.4238 0 0 0-.3714 0c-.4285.1715-1.1141.4571-1.8283.7714 0 0 .3143.0285.4571.0285h.1714c.2285-.0571.5999-.1428.9141-.2285.1429-.0286.3143 0 .4285.0857.4285.3142 1.0856.857 1.5141 1.2284.0857.0571.1714.1142.2571.1428.657.2571.9427.3999 1.0855.4571.1143.0571.1714.1428.2.2571.1714.657.2857 1.6569.3428 2.3996 0 .1428 0 .2571-.0571.3999-.1714.5142-.6571 1.3998-.9142 1.7998-.0285.0285-.0571.0571-.0857.1142-.0857.0857-.2571.2-.3713.2857-.0286.0286-.0286.0571-.0286.0857 0 .2857-.0571.8284-.0571.8284.6284-.7998 1.2283-1.8283 1.7711-2.9138.0571-.0857.0571-.1428.0571-.2285.2-1.1427.1143-2.5139-.0857-3.4281ZM28.597 24.9388c-.1429-.3428-.9142-2.1711-1.1427-2.8567-.0857-.2571-.0857-.3143-.0571-.5999.1714-1.714.7998-4.4565.8855-4.8278.0286-.0857.0286-.1143 0-.1714-.0285-.1429-.1142-.6285-.1142-.6285-.2857.657-1.2855 3.3138-1.6283 4.8849-.0572.2857-.0572.3714 0 .5428.5427 1.3712 1.8854 3.8565 2.1139 4.2279l-.0571-.4285c.0285-.0857 0-.1143 0-.1428Z" fill="#fff"/>
  <path d="M27.3971 25.0246s-.2857-.2-.3714-.2571c-.0857-.0572-.1143-.0857-.1714-.1429-.5999-.5427-2.771-3.1995-3.3995-4.3421-.1142-.2-.1428-.2857-.1428-.4857 0-.2285.0571-.657.0857-.8856.0286-.1428.0571-.2571.2-.3713.3714-.3428.9427-.9142 1.2569-1.2284.1429-.1428.2-.2285.2857-.3714.2857-.5427 1.1427-2.3996 1.4283-3.1709.0572-.1428.0572-.1714.0286-.3142-.0571-.4-.3714-1.457-.3714-1.457l-.0285.3429v.0857c.0285.1428.1142.7427.1142 1.0569 0 .1143 0 .1429-.0571.2571-.4285.857-2.1139 3.1424-3.1995 4.3708-.1143.1428-.1428.2285-.2.3999-.0571.2571-.1142.857-.1714 1.3141-.0285.2571 0 .3428.1429.5999.657 1.0855 2.8281 3.628 3.5708 4.2279.0572.0286.0857.0857.1429.1143.2571.1428.9427.4856.9427.4856l-.1143-.2c.0286 0 .0286 0 .0286-.0285ZM24.1977 9.7414l1.3712-.4285c.0857-.0286.1428-.0857.1999-.1429l.7142-1.257c.0286-.0285 0-.057-.0286-.057h-.6284c-.0572 0-.1143 0-.1714.0285-.5428.1714-1.3141.5142-1.7426.7428-.0571.0285-.0857.0571-.1428.1142l-.6571.8c-.0286.0285-.0571.057-.0857.057l-.4285.1714c-.0286 0-.0286.0286-.0571.0572l-.0286.0571s.8856-.0286 1.1998-.0571c.2-.0286.3143-.0572.4857-.0857Z" fill="#fff"/>
  <path d="M26.7115 6.7702c1.714-.1428 3.6851-.0857 4.1708-.0857.0857 0 .1428 0 .1999.0286l.3428.1143c-.857.057-2.9424.2285-3.7994.3713l.2857.0572h.0571c.6285-.0286 1.8569-.0857 2.3711-.0857.1428 0 .2 0 .3428.057.3142.1143.9427.4 1.1998.5429.1428.057.2285.0857.3714.0857.2856 0 .7141.0285 1.0284.0857.0857 0 .1714.0285.2571.0857.657.3142 1.4283.7998 1.9711 1.1426.0286.0286.0571.0286.1143.0286l.2571.0571-1.1713-1.1712c-.0571-.0286-.1142-.0857-.1428-.1143-1.257-.7142-2.3996-1.314-3.0281-1.5711-.1143-.0572-.2-.0572-.3142-.0858-1.9426-.1428-3.9708-.1142-5.4849.0286-.1143 0-.2.0572-.2571.1428-.0571.0857-.1428.2286-.2285.3714-.0286.0572-.0857.1429-.1429.2-.2856.2285-.7141.6285-1.0284.8284-.0285.0286-.0285.0286-.0571.0286-.1143.0857-.5142.3428-.5999.4l-.0571.057c-.0286.0286-.1429.1715-.1429.1715 1.1998-.6856 2.7139-1.514 3.2566-1.7426.0572 0 .1429 0 .2286-.0286ZM21.1125 10.5697l-.0571.0571c-1.057.7714-1.6569 1.257-1.914 1.457l-.2857.2856c-.0857.0857-.0857.1143-.0857.1714v.1714c0 .0286 0 .0286.0286.0572.0286.0285.0857.1142.1143.1428h.0285c.1714-.1143.3714-.2857.5714-.4285.0285 0 .0571-.0286.0571-.0571.0286-.0572.0857-.1429.1143-.2.0285-.0286.0285-.0571.0571-.0857.0286-.0286.1714-.1143.1714-.1143s-.0857.3714-.1428.5142c-.0286.0572-.0572.0857-.0572.0857-.1714.1714-.4285.4857-.5713.6571-.0571.0571-.0286.1428 0 .1999.1428.2.3999.5428.5713.7142l.1143.1143.1143.0571s.1428-.657.1999-.857c.0286-.0571.0572-.1143.1429-.1428.6856-.1714 2.1996-.4285 2.1996-.4285-.1714-.2-.6856-.7428-.857-.8856-.0571-.0286-.0857-.0571-.1428-.0571-.2-.0286-.8285-.0572-.8285-.0572s.0572-.0571.0857-.1142c.0286-.0286.0572-.0572.1143-.0857.7713-.2857 1.8283-.6571 2.4282-.9142.1428-.0571.2-.0857.3142-.2.0572-.0571.1429-.1428.2-.2285l.0286-.0286v-.0571s-.2571.2-.3714.2571c-.0857.0571-.1428.0857-.2571.1143-.2285.0571-.6285.1428-.857.2-.0571.0285-.0857.0285-.1428 0-.0286 0-.1143-.0572-.1429-.0572-.0571-.0285-.0571-.0285-.1143 0-.1999.0572-.7998.2-.7998.2s.2571-.2285.2856-.2571c.0286-.0286.0286-.0286.0857-.0571.2-.0858.4571-.1715.6571-.2572.0571-.0285.0571-.0571.0857-.0857 0-.1714.0571-.457.0857-.5999 0-.057.0286-.057.0571-.0857.1143-.0857.5714-.457.6856-.5142l.0286-.0285.1143-.1429c-.3143.2-.8856.5428-1.1999.7142-.1142.0857-.1999.1143-.3142.2285l-.0286.0286c-.1428.0571-.457.4571-.5713.5999ZM20.627 4.6276V2.7993c.7713-.0571 1.5711-.1142 2.3424-.1714v.3143c-.6856.0285-1.3712.0857-2.0568.1428v.457c.5999-.057 1.1998-.0856 1.7997-.1428v.3143c-.5999.0285-1.1998.0857-1.7997.1428v.4856c.6856-.057 1.3712-.1142 2.0568-.1428v.3143c-.7713 0-1.5711.057-2.3424.1142ZM17.4275 4.9706V3.1423c.6285-.0857 1.2284-.1428 1.8568-.2h.2571c.0857.0287.1429.0572.2.1143.0571.0572.0857.1143.0857.1715 0 .057.0286.1142.0286.2v.2285c0 .057 0 .1428-.0286.2-.0286.057-.0571.1428-.0857.1999-.0571.0571-.1143.1143-.2.1428-.0857.0286-.1714.0572-.2571.0572-.5142.057-1.0284.1142-1.5711.1714v.5713c-.0857-.0571-.1714-.0286-.2857-.0286Zm.3142-.9141c.5428-.0571 1.1141-.1428 1.6569-.2.0857 0 .1714-.0857.1714-.2v-.3142c0-.0857-.0857-.1714-.1714-.1428-.5428.0571-1.1141.1143-1.6569.2v.657ZM34.0821 4.4845c-.1143 0-.2-.0285-.2857-.0285-.0857-.0286-.1714-.0572-.2285-.1143-.0572-.0571-.1143-.1143-.1143-.2-.0286-.0571-.0286-.1428-.0286-.2v-.8284c0-.0857 0-.1428.0286-.2.0286-.0856.0571-.1428.1143-.1713a.9673.9673 0 0 1 .2285-.0857h.2857c.3999.0285.8284.057 1.2284.0857.1142 0 .1999.0285.2856.057.0857.0287.1714.0572.2286.1143.0571.0572.1142.1143.1142.2.0286.0572.0286.1429.0286.2286v.8284c0 .0857 0 .1428-.0286.2-.0285.0857-.0571.1428-.1142.1714-.0572.0285-.1143.0571-.2286.0857h-.2856c-.4285-.0857-.8285-.1143-1.2284-.1429Zm-.2-1.5426c-.0857 0-.1714.0572-.1714.1714v.8856c0 .0857.0857.1714.1714.1714h.1714c.4.0286.7999.0571 1.2284.0857h.2c.0857 0 .1714-.0571.1714-.1428v-.8856c0-.0857-.0857-.1714-.1714-.2-.5428 0-1.057-.0571-1.5998-.0857ZM37.6529 4.7988V3.256c-.3713-.0285-.7141-.0857-1.0855-.1142v-.3143c.8284.0857 1.6283.1714 2.4567.2857v.3142c-.3713-.057-.7141-.0857-1.0855-.1428v1.5426c-.0857 0-.2 0-.2857-.0286ZM30.2827 4.3132V2.4849c.7713.0285 1.5712.0571 2.3425.0857v.3142l-2.0568-.0857v.457c.5999.0286 1.1998.0286 1.7997.0572v.3142c-.5999-.0285-1.1998-.057-1.7997-.057v.4855l2.0568.0857v.3143c-.7713-.0857-1.5426-.1143-2.3425-.1429ZM27.6829 4.2846c-.1142 0-.1999 0-.2857-.0286-.0857-.0286-.1714-.0571-.2285-.0857-.0571-.0571-.1143-.1143-.1143-.1714-.0285-.0571-.0285-.1428-.0285-.2v-.7998c0-.1714.0571-.3143.1428-.4.0857-.0857.2285-.1142.4571-.1142h1.7426v.3142h-1.8569c-.0857 0-.1714.0857-.1714.1714V3.8561c0 .0857.0857.1714.1714.1714h1.6855v-.4857h-.9713v-.3142h1.2855v1.0856c-.6285-.0286-1.2284-.0286-1.8283-.0286ZM24.4263 4.37h-.2856c-.0857 0-.1714-.0285-.2286-.0857-.0571-.0571-.1142-.1142-.1142-.1714-.0286-.0571-.0286-.1428-.0286-.2V2.599c.1143 0 .2 0 .3142-.0286v1.3712c0 .0857.0857.1714.1714.1714.5142-.0285 1.0284-.0571 1.5426-.0571.0857 0 .1714-.0857.1714-.1714V2.5132h.3143v1.314c0 .0858 0 .1429-.0286.2-.0286.0857-.0571.1429-.1143.2-.0571.0571-.1142.0857-.2285.0857-.0857.0286-.1714.0286-.2857.0286-.4285 0-.8284.0285-1.1998.0285Z" fill="#fff"/>
  <path d="M41.3665 1.1427C36.8815.3714 32.4821 0 28.2257 0c-4.2565 0-8.6558.3714-13.1408 1.1427-.0571 1.7997-.1428 4.5707-.0286 6.9132.2857 5.2563 1.4284 9.3128 3.628 12.8265 2.1997 3.4852 5.5706 6.4847 9.5128 8.2559 3.9422-1.7712 7.3417-4.7707 9.5128-8.2559 2.1996-3.4851 3.3423-7.5702 3.628-12.8265.1714-2.3425.1143-5.1135.0286-6.9132Zm-.4857 6.8846c-.2857 5.1706-1.3998 9.1414-3.5708 12.5694-2.1426 3.4281-5.3706 6.2562-9.0843 7.9702-3.7137-1.7426-6.9418-4.5707-9.0843-7.9702-2.1425-3.428-3.2852-7.4273-3.5709-12.5694-.0857-1.6854-.0857-3.7994 0-6.4561C19.7699.857 24.0263.5142 28.2257.5142c4.1993 0 8.4558.3428 12.6551 1.057.0857 2.6567.0857 4.7707 0 6.4561Z" fill="#fff"/>
</svg>
