<svg width="157" height="125" fill="none" xmlns="http://www.w3.org/2000/svg">
  <path d="M79.9573 117.646c-.6676.265-1.3351.669-1.9372 1.394 0 0-2.1903 2.818 3.1501 2.231-2.1379 1.915.8202 2.267 2.6571 1.542 3.6344-.851 5.0131-2.579 5.9773-2.154-1.1518 2.036 1.8369.656 2.9582.4M94.46 116.443c.493-4.259 1.2696-10.758 1.7234-11.435.6413-.955 7.3736 1.489 8.3336 1.064.964-.426-.855-5.744-.855-5.744s17.845-7.7577 19.873-10.6317M81.6501 102.642c.3665 1.089.7505 1.754.7505 1.936 0 .451 1.8673 6.95 1.7495 10.033M80.9825 98.2395c.0437-1.6844.4189-3.6597 1.4224-5.8868 5.1266-24.242 22.3131-31.7873 22.3131-31.7873M48.1157 17.6422c-5.8334-3.7639-14.145-7.9533-14.8693-8.4656-9.5289-4.402 3.4643-2.0057 19.0447-.5296 15.5805 1.4717 23.9619 4.8102 30.7683 7.0633 0 0 3.0279 1.0767.9206 2.1273-2.103 1.0463-6.5097 2.0925-10.2532 3.5338-3.7479 1.437-3.4861 2.2488-1.8412 3.2821 1.6449 1.0332 5.5236 2.0795 4.9957 2.8001-.5236.7207-5.5891-.586-7.5612 1.437-1.9721 2.0274-5.5236 9.9417-5.5236 9.9417" stroke="#fff" stroke-width=".6" stroke-miterlimit="10"/>
  <path d="M55.5417 23.66c2.2819 2.2706.2618.3517-2.9276-2.6786M54.2896 119.374s3.3377 1.177 3.0672 2.053c-1.1868 1.19-16.5185 0-16.5185 0M27.5789 94.3885c18.1023-9.8895 28.3249-3.1778 29.7822 3.8074.5366 4.3281.0087 7.7321-.9686 10.3671M72.4441 21.9062c3.5734 1.5586 5.1528 2.4095 3.9704 2.8653-1.1824.4559-3.7086-.0173-4.9128-.369M82.7496 15.6079c1.9503-.9117 4.7121-1.0419 4.843 1.0506.1309 2.0925-1.6449 3.7292-6.0472 5.8868-4.4024 2.1577-5.2575 4.4499-4.4722 5.3008.7898.8509 4.5376 1.437 9.926-1.5064M63.0722 40.7094c-.0043-.0043-.0043-.0043 0 0-.5933-1.1418 1.1214-1.5151 5.5193-.3039 4.398 1.2156 5.5629 4.3848 5.5629 4.3848 5.9556-1.5065 6.994 2.4832 8.9661 3.0736 1.9721.5861 5.3927-1.6367 5.3927-1.6367.7243-5.5438 8.3465-6.4121 8.3465-6.4121 2.4346-8.2442 11.1083-6.1256 11.1083-6.1256 5.262-.9595 12.099 3.4426 13.412 11.2267" stroke="#fff" stroke-width=".6" stroke-miterlimit="10"/>
  <path d="M69.0278 43.3355c-1.9764-1.1244-5.9599-2.6265-5.9599-2.6265-5.6545 1.2807 2.9582 6.1082 2.9582 6.1082 1.5139 2.4225 5.0654 4.9578 7.8229 4.9578 0 0 22.4697 10.6146 44.56-4.9187" stroke="#fff" stroke-width=".6" stroke-miterlimit="10"/>
  <path d="M122.061 49.8164c6.104 5.4831 6.815 9.755 4.729 17.1135 0-7.7666-5.087-10.4409-5.641-8.6262-4.804 18.3682-24.6601 29.4907-41.9727 37.5308-17.365-8.5481-30.0004-21.889-34.8346-27.3764-9.6424-.4949-21.3484 19.7791-36.3399 38.4689M86.6808 19.1408c-2.103-.0651-7.0114 2.5614-8.4905 3.7987-1.4791 1.2373-2.7007 3.1605-.6937 2.5614M61.1481 14.5645c.0174 1.6366 3.8962 4.3152 6.7889 1.1113M85.817 8.418c-.6589 1.6367-2.0638 2.8132-4.254 2.353M82.9677 28.0312c.6806 2.301 1.623 4.0028 3.7129 4.5888 0 0-.973 3.23 0 5.049 0 0-2.0463 6.0996 2.3255 6.8376" stroke="#fff" stroke-width=".6" stroke-miterlimit="10"/>
  <path d="M103.352 9.6464c-1.553-1.1288-3.268-1.2937-3.268-1.2937-1.3133-4.5801-5.2619-2.8783-5.2619-2.8783-.877-1.2416-2.007-1.78-3.1021-1.958 3.4904-1.5498 4.8997-1.9188 10.196-2.8826.075 3.3689 1.619 6.0214 1.436 9.0126Z" fill="url(#a)"/>
  <path d="M91.72 3.5165C91.1005 2.1967 87.3439 1.0506 85.987 0c-.4058 1.1591-4.1624 3.8898-4.0489 5.3442 0 0 2.4564-3.0476 5.8508-1.2416 1.9197-.9638 3.9311-.5861 3.9311-.5861Z" fill="url(#b)"/>
  <path d="M113.003 20.2702c-1.078-1.1374-2.666-1.3197-2.666-1.3197-.458-4.2502-4.537-4.3804-4.537-4.3804-.088-2.518-1.222-4.0245-2.452-4.9231 4.864-.9594 8.241-2.392 12.993-2.9868-.376 4.211-1.889 11.5826-3.338 13.61Z" fill="url(#c)"/>
  <path d="M35.6418 38.1129c-.5584-.9638-2.3516-2.2228-4.3979-3.065 1.6231-1.2894 6.6406.1389 7.9407 1.0245l-3.5428 2.0405Z" fill="url(#d)"/>
  <path d="M33.6304 40.305c-.5978.5036-1.2042 1.0159-1.8281 1.5238-.7156.5818-1.3962 1.2026-2.0463 1.8538-.6588-1.1418-3.0847-3.1648-5.4975-4.159 2.679-1.8798 7.8317-.2605 9.3719.7814Z" fill="url(#e)"/>
  <path d="M27.8886 45.7441c-1.0384 1.259-2.4956 2.9174-4.1754 4.9491-.8508-1.0072-4.4241-3.1431-8.9923-3.7075 3.1022-3.1344 11.4705-2.0013 13.1677-1.2416Z" fill="url(#f)"/>
  <path d="M17.2908 59.2723c-.8508-1.0072-3.9573-4.172-9.2715-4.172 3.6213-3.6033 11.8282-2.4702 13.5254-1.7105l-4.2539 5.8825Z" fill="url(#g)"/>
  <path d="M11.8718 68.4546c-.8508-1.0072-5.035-3.8941-10.3448-3.8941 3.6213-3.6034 12.535-3.6598 14.2322-2.9001l-3.8874 6.7942Z" fill="url(#h)"/>
  <path d="M8.787 76.6678c-.602-.712-4.4764-3.1171-8.2417-3.1171 2.5655-2.5527 8.8832-2.5918 10.0874-2.0535l-1.8456 5.1706Z" fill="url(#i)"/>
  <path d="M44.8653 33.7794c-1.2959.2692-2.4695.6686-3.569 1.1679-.7984-.9768-2.6702-2.7047-3.3944-3.1345 2.5698-.8422 6.0777 1.2503 6.9634 1.9666Z" fill="url(#j)"/>
  <path d="M8.0017 79.3642c-.3446 1.2677-.6719 2.6048-.973 3.981-1.2303-.2865-4.664-1.3458-5.5017-1.246 1.527-2.2271 5.336-2.7611 6.4747-2.735Z" fill="url(#k)"/>
  <path d="M5.5018 91.2107C4.2714 90.9242.8378 89.8649 0 89.9648c1.5227-2.2271 5.3316-2.7655 6.4748-2.7351l-.973 3.981Z" fill="url(#l)"/>
  <path d="M126.79 36.7103c0-6.7031-7.247-7.8839-7.247-7.8839-1.182-5.2357-5.589-5.3919-5.589-5.3919.144-1.4935-.314-2.4963-.951-3.1649 3.661-.573 8.381-1.1287 19.59-2.5831-2.779 8.0011-4.201 15.5941-5.803 19.0238Z" fill="url(#m)"/>
  <path d="M155.87 64.5209c-4.52 5.8044-8.49 12.9198-10.397 16.3842 2.823-9.2687-5.506-13.6709-5.506-13.6709.807-4.0287.022-6.8897-1.078-8.8172 4.014 1.7018 11.06 4.4151 16.981 6.1039Z" fill="url(#n)"/>
  <path d="M157 92.6139c-5.175 3.1344-9.621 6.373-14.097 9.6031 5.249-10.046 2.57-21.3117 2.57-21.3117 1.906 2.0621 7.67 8.3136 11.527 11.7086Z" fill="url(#o)"/>
  <path d="M78.6527 8.1055c-1.0253.3256-1.7365.9378-2.2077 1.78-.2007-.9334.8072-4.2675.6545-5.201.6806.456 4.1841.3778 4.8386.66-3.3508-.0652-3.2854 2.761-3.2854 2.761Z" fill="url(#p)"/>
  <path d="M105.8 117.507c-6.0956-.243-13.0895-1.124-21.1219-2.787 4.3281-1.845 6.8194-2.739 10.4975-4.146 2.0637 1.407 8.3684 5.479 10.6244 6.933Z" fill="url(#q)"/>
  <path d="M84.6781 114.72c-4.1143-.851-8.4992-1.91-13.1764-3.191.8552-1.124 5.9948-1.615 7.4085-2.249.637 1.298 5.7679 5.44 5.7679 5.44Z" fill="url(#r)"/>
  <path d="M138.893 58.4168c-1.343-2.3487-3.158-3.3124-3.158-3.3124 1.483-2.9782-.354-9.3817-5.083-10.5929 1.832-5.635-3.862-7.8014-3.862-7.8014 5.803-.4471 15.293-1.1808 22.213-1.1808-2.308 6.7942-8.744 18.3899-10.11 22.8875Z" fill="url(#s)"/>
  <path d="M108.26 98.2012s17.858 6.4468 12.889 18.3728M37.8539 90.2259s6.0515-20.3782 6.4922-21.7718M52.3173 91.463s4.5942-7.9923 4.7426-10.4669" stroke="#fff" stroke-width=".6" stroke-miterlimit="10"/>
  <path d="M68.2729 113.204c6.4879 2.966 17.2123 6.86 34.7081 9.86 21.183 3.633 31.628 1.115 37.278-12.377" stroke="#fff" stroke-width=".6" stroke-miterlimit="10"/>
  <path d="m71.5017 111.529-.5149-.143" stroke="#fff" stroke-width="2" stroke-miterlimit="10"/>
  <path d="M105.8 117.508c3.032-2.223 6.147-3.916 8.049-6.196 2.474 1.906 6.104 4.168 7.3 5.262 0 0-7.064 1.602-15.349.934Z" fill="url(#t)"/>
  <path d="M142.34 108.099s4.874 2.396 6.283 5.018c1.409 2.622-3.573 8.9-3.765 9.226-.367.62-2.671 3.407-3.412 0-1.977 2.222-2.871.499-2.5-.452.96-2.448 3.22-5.995 2.57-6.421-.184-.117-1.484-.256-3.465-.469M112.322 100.103s-2.22 6.438-1.579 7.284c1.802 2.392 6.278 4.042 11.274 5.201M8.0018 106.922c9.4897 11.279 24.1844 16.541 41.0956 13.619 9.1886-1.585 17.7838-5.579 24.961-11.509 7.4957-6.195 8.5778-9.021 23.6826-13.2018-26.235-1.7192-40.7029 23.9378-69.5208 12.1858M32.8145 91.8883s-3.87.5296-2.8141-4.0983" stroke="#fff" stroke-width=".6" stroke-miterlimit="10"/>
  <path d="M40.8862 105.091s-2.7487-.443-3.0323-3.808" stroke="#fff" stroke-width=".6" stroke-miterlimit="10"/>
  <path d="M48.1158 17.6427s-3.8657-.3386-10.2619 1.4978c8.5647 1.1288 10.8989 1.1288 14.7602 1.8364 0 0-5.4146 7.7406-7.7183 12.7765" stroke="#fff" stroke-width=".6" stroke-miterlimit="10" stroke-linejoin="round"/>
  <path d="M142.785 102.434c-3.669 6.234-8.259 9.017-8.259 9.017 2.448.408 4.734.147 7.225-1.702 2.125-5.479 1.012-6.694 1.148-7.532" fill="url(#u)"/>
  <path d="M121.149 116.573c1.981-2.544 3.996-3.495 6.252-4.953 2.051 0 5.262-.56 7.125-.165 0-.005-5.14 3.746-13.377 5.118Z" fill="url(#v)"/>
  <path d="M71.506 111.529c86.925 23.878 73.967-30.6191 73.967-30.6191 2.823-9.2688-5.506-13.6709-5.506-13.6709 1.788-8.9345-4.237-12.1297-4.237-12.1297 1.483-2.9781-.353-9.3816-5.083-10.5928 1.837-5.6351-3.857-7.8014-3.857-7.8014 0-6.703-7.247-7.8795-7.247-7.8795-1.182-5.2313-5.589-5.392-5.589-5.392.393-4.02-3.617-4.4846-3.617-4.4846-.458-4.2501-4.537-4.3847-4.537-4.3847-.197-5.6915-5.72-6.2124-5.72-6.2124-1.3137-4.5758-5.2579-2.8784-5.2579-2.8784-2.5-3.5338-7.0332-1.3718-7.0332-1.3718-3.6824-1.7018-5.8509 1.2416-5.8509 1.2416-3.3508-.0651-3.2853 2.7611-3.2853 2.7611-2.103.6686-2.8927 2.5353-2.9538 5.1575M42.1296 110.981c1.2958-5.166-.2705-9.225-12.4565-3.664-.493.243-.9773.477-1.4529.699C-3.0062 122.442 5.432 84.0951 10.3797 72.0566 15.672 59.1802 24.2629 50.0938 27.845 45.7438c1.178-1.4283 2.4825-2.7437 3.918-3.9159 4.747-3.8768 8.4861-7.8795 15.4626-8.3831 6.6406-.4819 14.4592 3.3342 17.4173 6.2125M54.0145 8.8217s-7.1248-3.2473-9.1493-4.1373c-2.0244-.89 2.5 3.4644 2.5 3.4644" stroke="#fff" stroke-width=".6" stroke-miterlimit="10"/>
  <path d="M82.2043 66.9297s.1658 5.2877-2.5175 9.7376c0-3.3472-1.13-9.1385-1.3177-9.7072" fill="url(#w)"/>
  <path d="M118.413 46.8513s6.588-5.6828 12.439-.7641c-4.201.8683-7.05 1.7192-8.761 3.7032M48.7571 47.7979c-.2269 3.4122 10.9468 16.7184 27.6355 18.8891 18.4775 2.4008 38.8794-11.6869 45.6684-16.8704" stroke="#fff" stroke-width=".6" stroke-miterlimit="10"/>
  <defs>
    <linearGradient id="a" x1="97.2961" y1="11.1777" x2="93.1031" y2="91.6654" gradientUnits="userSpaceOnUse">
      <stop stop-color="#3FFFD8"/>
      <stop offset=".4888" stop-color="#B9C3FC"/>
      <stop offset="1" stop-color="#FF7EA7"/>
    </linearGradient>
    <linearGradient id="b" x1="86.5005" y1="10.6154" x2="82.3075" y2="91.1031" gradientUnits="userSpaceOnUse">
      <stop stop-color="#3FFFD8"/>
      <stop offset=".4888" stop-color="#B9C3FC"/>
      <stop offset="1" stop-color="#FF7EA7"/>
    </linearGradient>
    <linearGradient id="c" x1="109.655" y1="11.8221" x2="105.462" y2="92.3099" gradientUnits="userSpaceOnUse">
      <stop stop-color="#3FFFD8"/>
      <stop offset=".4888" stop-color="#B9C3FC"/>
      <stop offset="1" stop-color="#FF7EA7"/>
    </linearGradient>
    <linearGradient id="d" x1="10.3663" y1="79.0061" x2="24.797" y2="53.5204" gradientUnits="userSpaceOnUse">
      <stop stop-color="#3FFFD8"/>
      <stop offset=".4888" stop-color="#B9C3FC"/>
      <stop offset="1" stop-color="#FF7EA7"/>
    </linearGradient>
    <linearGradient id="e" x1="7.513" y1="77.3906" x2="21.9438" y2="51.9048" gradientUnits="userSpaceOnUse">
      <stop stop-color="#3FFFD8"/>
      <stop offset=".4888" stop-color="#B9C3FC"/>
      <stop offset="1" stop-color="#FF7EA7"/>
    </linearGradient>
    <linearGradient id="f" x1="4.5279" y1="75.6997" x2="18.9588" y2="50.2139" gradientUnits="userSpaceOnUse">
      <stop stop-color="#3FFFD8"/>
      <stop offset=".4888" stop-color="#B9C3FC"/>
      <stop offset="1" stop-color="#FF7EA7"/>
    </linearGradient>
    <linearGradient id="g" x1="3.0074" y1="74.8393" x2="17.4381" y2="49.3535" gradientUnits="userSpaceOnUse">
      <stop stop-color="#3FFFD8"/>
      <stop offset=".4888" stop-color="#B9C3FC"/>
      <stop offset="1" stop-color="#FF7EA7"/>
    </linearGradient>
    <linearGradient id="h" x1="2.1992" y1="74.3821" x2="16.63" y2="48.8964" gradientUnits="userSpaceOnUse">
      <stop stop-color="#3FFFD8"/>
      <stop offset=".4888" stop-color="#B9C3FC"/>
      <stop offset="1" stop-color="#FF7EA7"/>
    </linearGradient>
    <linearGradient id="i" x1="4.3764" y1="75.6143" x2="18.8072" y2="50.1285" gradientUnits="userSpaceOnUse">
      <stop stop-color="#3FFFD8"/>
      <stop offset=".4888" stop-color="#B9C3FC"/>
      <stop offset="1" stop-color="#FF7EA7"/>
    </linearGradient>
    <linearGradient id="j" x1="13.8319" y1="80.968" x2="28.2627" y2="55.4822" gradientUnits="userSpaceOnUse">
      <stop stop-color="#3FFFD8"/>
      <stop offset=".4888" stop-color="#B9C3FC"/>
      <stop offset="1" stop-color="#FF7EA7"/>
    </linearGradient>
    <linearGradient id="k" x1="7.375" y1="77.3126" x2="21.8059" y2="51.8267" gradientUnits="userSpaceOnUse">
      <stop stop-color="#3FFFD8"/>
      <stop offset=".4888" stop-color="#B9C3FC"/>
      <stop offset="1" stop-color="#FF7EA7"/>
    </linearGradient>
    <linearGradient id="l" x1="9.6171" y1="78.5811" x2="24.048" y2="53.0952" gradientUnits="userSpaceOnUse">
      <stop stop-color="#3FFFD8"/>
      <stop offset=".4888" stop-color="#B9C3FC"/>
      <stop offset="1" stop-color="#FF7EA7"/>
    </linearGradient>
    <linearGradient id="m" x1="123.124" y1="12.7683" x2="118.974" y2="92.434" gradientUnits="userSpaceOnUse">
      <stop stop-color="#3FFFD8"/>
      <stop offset=".4888" stop-color="#B9C3FC"/>
      <stop offset="1" stop-color="#FF7EA7"/>
    </linearGradient>
    <linearGradient id="n" x1="149.857" y1="14.4162" x2="145.696" y2="94.305" gradientUnits="userSpaceOnUse">
      <stop stop-color="#3FFFD8"/>
      <stop offset=".4888" stop-color="#B9C3FC"/>
      <stop offset="1" stop-color="#FF7EA7"/>
    </linearGradient>
    <linearGradient id="o" x1="154.332" y1="14.1492" x2="150.139" y2="94.637" gradientUnits="userSpaceOnUse">
      <stop stop-color="#3FFFD8"/>
      <stop offset=".4888" stop-color="#B9C3FC"/>
      <stop offset="1" stop-color="#FF7EA7"/>
    </linearGradient>
    <linearGradient id="p" x1="79.0314" y1="10.2226" x2="74.9196" y2="89.1508" gradientUnits="userSpaceOnUse">
      <stop stop-color="#3FFFD8"/>
      <stop offset=".4888" stop-color="#B9C3FC"/>
      <stop offset="1" stop-color="#FF7EA7"/>
    </linearGradient>
    <linearGradient id="q" x1="100.751" y1="11.3583" x2="96.5584" y2="91.8459" gradientUnits="userSpaceOnUse">
      <stop stop-color="#3FFFD8"/>
      <stop offset=".4888" stop-color="#B9C3FC"/>
      <stop offset="1" stop-color="#FF7EA7"/>
    </linearGradient>
    <linearGradient id="r" x1="83.4755" y1="10.8119" x2="79.2967" y2="91.0262" gradientUnits="userSpaceOnUse">
      <stop stop-color="#3FFFD8"/>
      <stop offset=".4888" stop-color="#B9C3FC"/>
      <stop offset="1" stop-color="#FF7EA7"/>
    </linearGradient>
    <linearGradient id="s" x1="138.991" y1="15.2988" x2="134.979" y2="92.3059" gradientUnits="userSpaceOnUse">
      <stop stop-color="#3FFFD8"/>
      <stop offset=".4888" stop-color="#B9C3FC"/>
      <stop offset="1" stop-color="#FF7EA7"/>
    </linearGradient>
    <linearGradient id="t" x1="118.984" y1="12.3079" x2="114.791" y2="92.7959" gradientUnits="userSpaceOnUse">
      <stop stop-color="#3FFFD8"/>
      <stop offset=".4888" stop-color="#B9C3FC"/>
      <stop offset="1" stop-color="#FF7EA7"/>
    </linearGradient>
    <linearGradient id="u" x1="143.764" y1="13.5988" x2="139.571" y2="94.0864" gradientUnits="userSpaceOnUse">
      <stop stop-color="#3FFFD8"/>
      <stop offset=".4888" stop-color="#B9C3FC"/>
      <stop offset="1" stop-color="#FF7EA7"/>
    </linearGradient>
    <linearGradient id="v" x1="133.151" y1="13.0453" x2="128.957" y2="93.5329" gradientUnits="userSpaceOnUse">
      <stop stop-color="#3FFFD8"/>
      <stop offset=".4888" stop-color="#B9C3FC"/>
      <stop offset="1" stop-color="#FF7EA7"/>
    </linearGradient>
    <linearGradient id="w" x1="86.651" y1="84.7158" x2="53.8936" y2="9.7985" gradientUnits="userSpaceOnUse">
      <stop stop-color="#3FFFD8"/>
      <stop offset=".4888" stop-color="#B9C3FC"/>
      <stop offset="1" stop-color="#FF7EA7"/>
    </linearGradient>
  </defs>
</svg>
