<svg width="150" height="123" fill="none" xmlns="http://www.w3.org/2000/svg">
  <path d="M72.3123 22.5797c-.0934-.4487-.5249-.6945-.9565-.5425l-7.3034 2.5499c-.4315.1495-.8403.6463-.911 1.1l-6.4958 42.5896c-.0681.4537-.4972.8669-.9514.9201l-8.4441.9683c-.4542.0532-.8832.4663-.9564.92l-6.5564 41.4389c-.0707.454.2423.824.7016.824H75.2044c.4567 0 .858-.375.8908-.832l3.74-52.9128c.0328-.4588-.0177-1.1989-.1136-1.6501l-7.4093-35.3734Z" fill="url(#a)"/>
  <path d="m68.8628 75.8616-2.3394 14.7136c-.0252.1673-7.1898-.0608-7.1898-.0608a2.9845 2.9845 0 0 1 .0353-.3904l2.4126-15.3827a2.8984 2.8984 0 0 1 .0909-.3954 2.8717 2.8717 0 0 1 .275-.6387c.5679-.4994 1.9508-.7047 3.4978-.4613 1.547.2458 2.8012.8668 3.1899 1.5182a3.027 3.027 0 0 1 .0656.692c-.0051.1343-.0152.2712-.0379.4055Z" fill="#202020"/>
  <path d="M68.9563 75.2783a.6947.6947 0 0 1-.0555.1774c-.3306.692-1.9104 1.0189-3.7173.7325-1.8044-.2864-3.2075-1.0848-3.311-1.8452a.7746.7746 0 0 1 0-.1876c.0252-.1673.1211-.3194.2725-.4512.5679-.4993 1.9508-.7046 3.4978-.4613 1.547.2459 2.8012.8669 3.1898 1.5183.1035.1749.1489.3498.1237.5171ZM61.2719 77.9932a.584.584 0 0 0 0 .1875c.1034.7604 1.5066 1.5588 3.311 1.8452 1.8069.2864 3.3867-.0431 3.7173-.7325a.6561.6561 0 0 0 .0555-.1774M85.3572 75.9114l-2.4302 14.663c-.0404.2585-7.1015-.033-7.0662-.2535l2.4151-15.5298a2.8984 2.8984 0 0 1 .0909-.3954c.0656-.2256.159-.4385.27-.6362l.0025-.0025c.5678-.4994 1.9508-.7047 3.4978-.4613 1.547.2458 2.8012.8668 3.1898 1.5182l.0026.0025c.0479.2231.0681.4538.0631.6895a2.7618 2.7618 0 0 1-.0354.4055Z" fill="#202020"/>
  <path d="M77.7663 78.04a.5845.5845 0 0 0 0 .1876c.1034.7604 1.5066 1.5588 3.311 1.8452 1.8069.2865 3.3867-.0405 3.7173-.7325a.6597.6597 0 0 0 .0555-.1774M85.4507 75.3286a.6942.6942 0 0 1-.0555.1775c-.3306.6919-1.9104 1.0189-3.7173.7325-1.8044-.2864-3.2076-1.0849-3.311-1.8453a.7738.7738 0 0 1 0-.1875c.0252-.1673.1211-.3168.27-.4512l.0025-.0025c.5678-.4993 1.9508-.7046 3.4978-.4613 1.5469.2458 2.8012.8668 3.1898 1.5182l.0025.0026c.101.1774.1464.3497.1212.517ZM149.508 94.4331c-.253 1.5943 0 7.7869-6.307 7.9889-1.438 0-3.311 8.415-3.311 12.02-66.679 2.985-137.5955-.629-137.5955-.629L1 95.343l44.7086 1.2116v-5.6827l83.0805-.659v4.5725l3.533.0836.083 2.1824 3.198.0861.196-2.3166 13.709-.3878Z" fill="#202020"/>
  <path d="M68.9104 75.7434 66.571 90.4571c-.0252.1673-7.1898-.0609-7.1898-.0609a2.9845 2.9845 0 0 1 .0353-.3903l2.4126-15.3828a2.9018 2.9018 0 0 1 .0909-.3954 2.8674 2.8674 0 0 1 .2751-.6387c.5678-.4993 1.9507-.7046 3.4977-.4613 1.547.2459 2.8012.8668 3.1899 1.5182a3.027 3.027 0 0 1 .0656.692c-.0051.1343-.0152.2712-.0379.4055Z" stroke="#fff" stroke-width=".6" stroke-miterlimit="10" stroke-linecap="round" stroke-linejoin="round"/>
  <path d="M69.0039 75.1601a.6923.6923 0 0 1-.0555.1774c-.3306.692-1.9104 1.019-3.7173.7325-1.8044-.2864-3.2076-1.0848-3.311-1.8452a.7746.7746 0 0 1 0-.1876c.0252-.1672.1211-.3193.2725-.4511.5678-.4994 1.9508-.7047 3.4978-.4613 1.547.2458 2.8012.8668 3.1899 1.5182.1034.1749.1488.3498.1236.5171ZM61.3195 77.874a.5845.5845 0 0 0 0 .1876c.1035.7604 1.5066 1.5588 3.311 1.8452 1.8069.2864 3.3867-.0431 3.7173-.7325a.6561.6561 0 0 0 .0555-.1774M69.0039 75.1602l3.3716 15.2965M61.9199 74.04l-9.7336 16.6704M85.4048 75.7933l-2.4302 14.6629c-.0404.2585-7.1015-.033-7.0662-.2535l2.4151-15.5298a2.9018 2.9018 0 0 1 .0909-.3954c.0656-.2255.159-.4385.27-.6362l.0025-.0025c.5678-.4993 1.9508-.7046 3.4978-.4613 1.547.2459 2.8012.8669 3.1898 1.5183l.0026.0025c.0479.223.0681.4537.0631.6894a2.7644 2.7644 0 0 1-.0354.4056Z" stroke="#fff" stroke-width=".6" stroke-miterlimit="10" stroke-linecap="round" stroke-linejoin="round"/>
  <path d="M77.8136 77.9219a.584.584 0 0 0 0 .1875c.1035.7604 1.5066 1.5589 3.311 1.8453 1.807.2864 3.3867-.0406 3.7173-.7325a.656.656 0 0 0 .0556-.1775M85.4983 75.2105a.6947.6947 0 0 1-.0555.1774c-.3306.692-1.9104 1.0189-3.7174.7325-1.8044-.2864-3.2075-1.0848-3.311-1.8452a.7849.7849 0 0 1 0-.1876c.0253-.1673.1212-.3168.2701-.4511l.0025-.0026c.5678-.4993 1.9508-.7046 3.4977-.4613 1.547.2459 2.8013.8669 3.1899 1.5183l.0025.0025c.101.1774.1464.3498.1212.5171ZM78.4146 74.0898l-9.1457 16.2877M85.4982 75.21l2.077 15.2459M113.225 73.7031l-.003.0026a2.9495 2.9495 0 0 0-.27.6362c-.037.1267-.068.261-.09.3954L110.449 90.12c1.799.0811 6.09.0811 7.081.0811l2.413-14.3461c.02-.1343.033-.2712.035-.4055.005-.2357-.015-.4664-.063-.6894l-.002-.0026" stroke="#fff" stroke-width=".6" stroke-miterlimit="10" stroke-linecap="round" stroke-linejoin="round"/>
  <path d="M112.352 77.9883a.5897.5897 0 0 0 0 .1875c.103.7604 1.507 1.5588 3.311 1.8453 1.807.2864 3.387-.0406 3.717-.7325a.6467.6467 0 0 0 .056-.1775M120.036 75.2769a.6979.6979 0 0 1-.055.1774c-.331.6919-1.911 1.0189-3.717.7325-1.805-.2864-3.208-1.0848-3.311-1.8452a.7362.7362 0 0 1 0-.1876c.025-.1673.121-.3168.27-.4511l.002-.0026c.568-.4993 1.951-.7046 3.498-.4613 1.547.2459 2.801.8669 3.19 1.5183l.002.0025c.104.1774.147.3473.121.5171ZM112.953 74.1562l-11.304 16.0469M120.037 75.2764l2.811 14.9265M94.4267 73.7383l-.0026.0025a2.9287 2.9287 0 0 0-.2145.659 2.9917 2.9917 0 0 0-.0555.403l-1.0675 15.5349c.2347.1216 7.0284.1825 7.0484-.1318l1.171-14.9063c.01-.1368.008-.2737 0-.4055-.015-.2357-.055-.4639-.124-.6818l-.002-.0026" stroke="#fff" stroke-width=".6" stroke-miterlimit="10" stroke-linecap="round" stroke-linejoin="round"/>
  <path d="M101.346 74.7095a.6273.6273 0 0 1-.04.1825c-.27.7173-1.8144 1.1836-3.639 1.0569-1.822-.1267-3.2882-.8009-3.4573-1.5486-.0126-.0609-.0202-.1242-.0152-.1876.0127-.1698.0934-.327.2297-.4714l.0025-.0026c.5224-.5475 1.8801-.8719 3.4448-.7654 1.5646.1089 2.8665.6184 3.3105 1.2343l.003.0026c.114.1622.174.3295.161.4993ZM93.9296 78.083c-.0051.0634.0025.1242.0151.1876.1691.7477 1.6353 1.4219 3.4574 1.5486 1.8246.1268 3.3689-.3371 3.6389-1.0569.023-.0583.035-.1191.041-.1825M149.555 94.3139c-.252 1.5943 0 7.7861-6.306 7.9891-1.439 0-3.311 8.415-3.311 12.019-66.6794 2.986-137.5959-.628-137.5959-.628L1.0475 95.2239l44.7086 1.2115v-5.6826l83.0799-.659v4.5724l3.534.0837.083 2.1823 3.197.0862.197-2.3167 13.708-.3878ZM127.517 60.9561v28.8087M38.3694 60.9561l-26.5183 34.57M38.3695 60.9561 57.655 90.6596M45.7561 96.4355l89.8389.5906" stroke="#fff" stroke-width=".6" stroke-miterlimit="10" stroke-linecap="round" stroke-linejoin="round"/>
  <path d="M1.7896 97.3936c25.5391 1.5182 124.8034 2.7754 147.1624.5018M126.593 94.9785H47.1824v-2.4256h79.4106v2.4256ZM47.9011 90.659l-9.6175-19.5877-18.3771 24.6722M49.5391 92.5527v2.4257M51.8506 92.5527v2.4257M54.2078 92.5527v2.4257M56.5195 92.5527v2.4257M58.9167 92.5527v2.4257M61.231 92.5527v2.4257M63.5857 92.5527v2.4257M65.8999 92.5527v2.4257M68.2695 92.5527v2.4257M70.5835 92.5527v2.4257M72.9382 92.5527v2.4257M75.2522 92.5527v2.4257M77.5286 92.5527v2.4257M79.8403 92.5527v2.4257M82.1973 92.5527v2.4257M84.5088 92.5527v2.4257M86.8887 92.5527v2.4257M89.1877 92.5527v2.4257M112.753 92.5527v2.4257M115.068 92.5527v2.4257M117.422 92.5527v2.4257M119.736 92.5527v2.4257M122.114 92.5527v2.4257M124.413 92.5527v2.4257M6.019 112.297s8.0882-4.306 11.8888-4.149c3.7854.157 4.3583 3.632 6.6447 3.949.8 0 6.5614-1.884 10.9349-2.223 3.2756-.256 2.9779 2.02 4.1211 2.223 1.1432.202 4.6308-1.075 6.8138-1.293 2.4857-.248 1.3652 1.904 3.1141 1.944 1.7489.038 2.5691-.54 5.552-1.452 4.2876-.885 2.2359 1.774 3.1116 1.706.8757-.069 5.0624-1.184 8.4113-1.521 4.8226-.484 2.6245 1.657 4.5425 1.521 1.918-.137 6.1324-1.166 7.9065-1.41 2.7306-.375 2.6095 2.104 3.364 2.254M119.29 113.798s5.769-2.808 7.888-2.823c4.992-.343 4.207 2.648 6.451 2.59 2.243-.056 4.992-2.606 7.682-2.59 2.69.015 1.125 2.083 5.188 2.59M139.63 94.355l-12.114-31.0064-9.198 26.8293" stroke="#fff" stroke-width=".6" stroke-miterlimit="10" stroke-linecap="round" stroke-linejoin="round"/>
  <path d="m135.847 94.7016-8.33-22.5102-5.403 17.9022M38.3694 56.9844v39.2515M12.5654 104.298c-.3945 0-.7142-1.022-.7142-2.281 0-1.26.3197-2.2816.7142-2.2816.3944 0 .7141 1.0216.7141 2.2816 0 1.259-.3197 2.281-.7141 2.281ZM84.027 119.311c4.6914.74 10.9879-3.25 21.872-3.057 4.878.086 12.596 2.124 25.363 3.011" stroke="#fff" stroke-width=".6" stroke-miterlimit="10" stroke-linecap="round" stroke-linejoin="round"/>
  <path d="M22.2335 107.657c-.2634 0-.477-.214-.477-.479 0-.264.2136-.479.477-.479.2634 0 .4769.215.4769.479 0 .265-.2135.479-.4769.479ZM28.0401 107.657c-.2634 0-.4769-.214-.4769-.479 0-.264.2135-.479.4769-.479.2635 0 .477.215.477.479 0 .265-.2135.479-.477.479ZM33.8473 107.657c-.2635 0-.477-.214-.477-.479 0-.264.2135-.479.477-.479.2634 0 .4769.215.4769.479 0 .265-.2135.479-.4769.479ZM39.6514 107.657c-.2634 0-.4769-.214-.4769-.479 0-.264.2135-.479.4769-.479.2635 0 .477.215.477.479 0 .265-.2135.479-.477.479ZM45.4583 107.657c-.2634 0-.4769-.214-.4769-.479 0-.264.2135-.479.4769-.479.2635 0 .477.215.477.479 0 .265-.2135.479-.477.479ZM51.2652 107.657c-.2634 0-.4769-.214-.4769-.479 0-.264.2135-.479.4769-.479.2634 0 .477.215.477.479 0 .265-.2136.479-.477.479ZM57.0721 107.657c-.2634 0-.4769-.214-.4769-.479 0-.264.2135-.479.4769-.479.2634 0 .477.215.477.479 0 .265-.2136.479-.477.479ZM62.8765 107.657c-.2634 0-.4769-.214-.4769-.479 0-.264.2135-.479.4769-.479.2635 0 .477.215.477.479 0 .265-.2135.479-.477.479ZM68.6834 107.657c-.2634 0-.477-.214-.477-.479 0-.264.2136-.479.477-.479.2634 0 .477.215.477.479 0 .265-.2136.479-.477.479ZM74.4903 107.657c-.2634 0-.4769-.214-.4769-.479 0-.264.2135-.479.4769-.479.2634 0 .477.215.477.479 0 .265-.2136.479-.477.479ZM80.297 107.657c-.2635 0-.477-.214-.477-.479 0-.264.2135-.479.477-.479.2634 0 .4769.215.4769.479 0 .265-.2135.479-.4769.479ZM86.1014 107.657c-.2634 0-.477-.214-.477-.479 0-.264.2136-.479.477-.479.2634 0 .477.215.477.479 0 .265-.2136.479-.477.479ZM22.2335 103.276c-.2634 0-.477-.214-.477-.479 0-.264.2136-.479.477-.479.2634 0 .4769.215.4769.479 0 .265-.2135.479-.4769.479ZM28.0401 103.276c-.2634 0-.4769-.214-.4769-.479 0-.264.2135-.479.4769-.479.2635 0 .477.215.477.479 0 .265-.2135.479-.477.479ZM33.8473 103.276c-.2635 0-.477-.214-.477-.479 0-.264.2135-.479.477-.479.2634 0 .4769.215.4769.479 0 .265-.2135.479-.4769.479ZM39.6514 103.276c-.2634 0-.4769-.214-.4769-.479 0-.264.2135-.479.4769-.479.2635 0 .477.215.477.479 0 .265-.2135.479-.477.479ZM45.4583 103.276c-.2634 0-.4769-.214-.4769-.479 0-.264.2135-.479.4769-.479.2635 0 .477.215.477.479 0 .265-.2135.479-.477.479ZM51.2652 103.276c-.2634 0-.4769-.214-.4769-.479 0-.264.2135-.479.4769-.479.2634 0 .477.215.477.479 0 .265-.2136.479-.477.479ZM57.0721 103.276c-.2634 0-.4769-.214-.4769-.479 0-.264.2135-.479.4769-.479.2634 0 .477.215.477.479 0 .265-.2136.479-.477.479ZM62.8765 103.276c-.2634 0-.4769-.214-.4769-.479 0-.264.2135-.479.4769-.479.2635 0 .477.215.477.479 0 .265-.2135.479-.477.479ZM68.6834 103.276c-.2634 0-.477-.214-.477-.479 0-.264.2136-.479.477-.479.2634 0 .477.215.477.479 0 .265-.2136.479-.477.479ZM74.4903 103.276c-.2634 0-.4769-.214-.4769-.479 0-.264.2135-.479.4769-.479.2634 0 .477.215.477.479 0 .265-.2136.479-.477.479ZM80.297 103.276c-.2635 0-.477-.214-.477-.479 0-.264.2135-.479.477-.479.2634 0 .4769.215.4769.479 0 .265-.2135.479-.4769.479ZM86.1014 103.276c-.2634 0-.477-.214-.477-.479 0-.264.2136-.479.477-.479.2634 0 .477.215.477.479 0 .265-.2136.479-.477.479Z" fill="#fff" stroke="#fff" stroke-width=".6" stroke-miterlimit="10" stroke-linecap="round" stroke-linejoin="round"/>
  <path d="M119.131 121.195c.456-.013.797-.398.757-.855l-4.911-56.3801c-.041-.4562-.278-1.1457-.53-1.5284l-6.219-9.4745c-.252-.3827-.492-1.0696-.535-1.5284l-1.655-17.6006c-.043-.4562-.449-.8693-.904-.9175l-10.205-1.0848c-.4543-.0482-.8858-.4588-.959-.9125l-4.3508-27.179c-.0731-.4537-.4719-.9809-.8858-1.1735L83.4237.1047c-.4138-.1927-1.0447-.1116-1.398.1799l-8.7898 7.2237c-.3533.2915-.6612.9023-.6865 1.3611l-2.1173 41.6518c-.0227.4588.3306.8339.7874.8339h10.6219c.4568 0 .9842.3422 1.171.7604l5.9053 13.2004c.1867.4182.3381 1.1355.3331 1.5968l-.5022 54.2793c-.0051.459.3659.824.8227.811l29.5597-.808Z" fill="url(#b)"/>
  <defs>
    <linearGradient id="a" x1="68.7775" y1="126.339" x2="44.1721" y2="14.1206" gradientUnits="userSpaceOnUse">
      <stop stop-color="#3FFFD8"/>
      <stop offset=".4888" stop-color="#B9C3FC"/>
      <stop offset="1" stop-color="#FF7EA7"/>
    </linearGradient>
    <linearGradient id="b" x1="105.786" y1="117.442" x2="81.3793" y2="6.1289" gradientUnits="userSpaceOnUse">
      <stop stop-color="#3FFFD8"/>
      <stop offset=".4888" stop-color="#B9C3FC"/>
      <stop offset="1" stop-color="#FF7EA7"/>
    </linearGradient>
  </defs>
</svg>
