<svg width="1011" height="824" fill="none" xmlns="http://www.w3.org/2000/svg">
  <g clip-path="url(#a)">
    <path d="M485.21 130.503c-.634-3.03-3.562-4.691-6.49-3.664l-49.555 17.222c-2.929 1.01-5.702 4.366-6.182 7.43l-44.076 287.655c-.462 3.064-3.373 5.854-6.455 6.214l-57.295 6.539c-3.082.36-5.993 3.15-6.49 6.215l-44.486 279.882c-.48 3.064 1.643 5.564 4.76 5.564h235.892c3.099 0 5.822-2.534 6.044-5.615l25.377-357.381c.223-3.099-.119-8.098-.77-11.145L485.21 130.503Z" fill="url(#b)"/>
    <path d="m461.805 490.375-15.874 99.377c-.171 1.13-48.784-.411-48.784-.411.017-.856.103-1.746.24-2.636l16.37-103.897c.137-.907.359-1.814.616-2.67.445-1.524 1.079-2.962 1.867-4.314 3.852-3.373 13.236-4.759 23.733-3.116 10.496 1.661 19.007 5.855 21.644 10.254.325 1.524.479 3.099.445 4.674-.035.907-.103 1.832-.257 2.739Z" fill="#202020"/>
    <path d="M462.438 486.438c-.068.428-.205.821-.377 1.198-2.243 4.674-12.962 6.882-25.222 4.948-12.244-1.935-21.764-7.327-22.466-12.463a5.1647 5.1647 0 0 1 0-1.267c.171-1.13.822-2.157 1.849-3.047 3.853-3.373 13.236-4.759 23.733-3.116 10.497 1.661 19.007 5.855 21.644 10.254.702 1.182 1.01 2.363.839 3.493ZM410.298 504.772c-.069.428-.069.839 0 1.267.702 5.136 10.223 10.529 22.466 12.463 12.26 1.934 22.979-.291 25.223-4.947.188-.394.308-.788.376-1.199M573.722 490.718l-16.49 99.035c-.274 1.746-48.185-.223-47.945-1.712l16.387-104.89c.137-.907.359-1.814.616-2.67.445-1.524 1.079-2.962 1.832-4.297l.017-.017c3.853-3.373 13.237-4.76 23.733-3.116 10.497 1.66 19.007 5.855 21.644 10.254l.018.017c.325 1.507.462 3.065.428 4.657-.017.907-.086 1.832-.24 2.739Z" fill="#202020"/>
    <path d="M522.216 505.098c-.069.428-.069.839 0 1.267.702 5.136 10.222 10.528 22.466 12.463 12.26 1.934 22.979-.274 25.223-4.948.188-.393.308-.787.376-1.198M574.356 486.78c-.069.428-.206.822-.377 1.199-2.243 4.673-12.962 6.882-25.223 4.947-12.243-1.934-21.763-7.327-22.466-12.462a5.2652 5.2652 0 0 1 0-1.267c.172-1.13.822-2.14 1.833-3.048l.017-.017c3.853-3.372 13.236-4.759 23.733-3.115 10.496 1.66 19.007 5.854 21.644 10.254l.017.017c.685 1.199.993 2.363.822 3.492ZM1009 615.808c-1.71 10.768 0 52.59-42.791 53.96-9.761 0-22.466 56.835-22.466 81.179-452.435 20.166-933.6196-4.246-933.6196-4.246L1.339 621.954l303.358 8.183v-38.382l563.72-4.451v30.883l23.973.565.565 14.74 21.695.582 1.336-15.647 93.014-2.619Z" fill="#202020"/>
    <path d="m462.127 489.576-15.873 99.377c-.171 1.13-48.785-.411-48.785-.411.017-.856.103-1.746.24-2.637l16.37-103.896c.137-.907.359-1.815.616-2.671.446-1.523 1.079-2.961 1.867-4.314 3.853-3.372 13.236-4.759 23.733-3.116 10.496 1.661 19.007 5.855 21.644 10.255.325 1.523.479 3.098.445 4.673-.034.908-.103 1.832-.257 2.74Z" stroke="#fff" stroke-width="1.953" stroke-miterlimit="10" stroke-linecap="round" stroke-linejoin="round"/>
    <path d="M462.76 485.638c-.068.428-.205.822-.376 1.199-2.244 4.673-12.963 6.881-25.223 4.947-12.243-1.934-21.764-7.327-22.466-12.463a5.2652 5.2652 0 0 1 0-1.267c.171-1.13.822-2.157 1.849-3.047 3.853-3.372 13.237-4.759 23.733-3.116 10.497 1.661 19.007 5.855 21.644 10.255.702 1.181 1.011 2.362.839 3.492ZM410.62 503.973a3.96 3.96 0 0 0 0 1.267c.702 5.135 10.223 10.528 22.466 12.462 12.26 1.935 22.98-.291 25.223-4.947.188-.394.308-.787.377-1.198M462.76 485.638l22.877 103.315M414.695 478.072 348.65 590.665M574.044 489.918l-16.49 99.035c-.274 1.746-48.185-.223-47.945-1.712l16.387-104.89c.137-.907.36-1.814.616-2.67.446-1.524 1.079-2.962 1.833-4.297l.017-.018c3.852-3.372 13.236-4.759 23.733-3.115 10.496 1.66 19.007 5.855 21.644 10.254l.017.017c.325 1.507.462 3.065.428 4.657-.017.907-.086 1.832-.24 2.739Z" stroke="#fff" stroke-width="1.953" stroke-miterlimit="10" stroke-linecap="round" stroke-linejoin="round"/>
    <path d="M522.538 504.298a3.96 3.96 0 0 0 0 1.267c.702 5.136 10.223 10.528 22.466 12.463 12.26 1.934 22.98-.274 25.223-4.948.188-.393.308-.787.377-1.198M574.678 485.98c-.068.428-.205.822-.377 1.199-2.243 4.673-12.962 6.882-25.222 4.947-12.244-1.934-21.764-7.327-22.466-12.463a5.1565 5.1565 0 0 1 0-1.266c.171-1.13.822-2.14 1.832-3.048l.017-.017c3.853-3.372 13.236-4.759 23.733-3.115 10.497 1.66 19.007 5.854 21.644 10.254l.017.017c.685 1.198.993 2.363.822 3.492ZM526.613 478.414l-62.055 110.008M574.679 485.98l14.092 102.973M762.813 475.794l-.017.018c-.77 1.335-1.387 2.773-1.832 4.297-.257.855-.462 1.763-.617 2.67l-16.369 103.897c12.209.548 41.318.548 48.048.548l16.37-96.895c.137-.908.222-1.832.24-2.739.034-1.592-.103-3.15-.429-4.657l-.017-.017" stroke="#fff" stroke-width="1.953" stroke-miterlimit="10" stroke-linecap="round" stroke-linejoin="round"/>
    <path d="M756.89 504.743c-.069.428-.069.839 0 1.267.702 5.136 10.222 10.528 22.466 12.463 12.26 1.934 22.979-.274 25.222-4.948.189-.393.309-.787.377-1.198M809.03 486.426c-.068.428-.205.821-.376 1.198-2.244 4.674-12.963 6.882-25.223 4.948-12.243-1.935-21.764-7.327-22.466-12.463a5.1647 5.1647 0 0 1 0-1.267c.171-1.13.822-2.14 1.832-3.047l.017-.017c3.853-3.373 13.237-4.76 23.733-3.116 10.497 1.66 19.007 5.855 21.644 10.254l.017.017c.702 1.199.993 2.346.822 3.493ZM760.965 478.859l-76.696 108.382M809.03 486.426l19.075 100.815M635.261 476.034l-.017.018c-.651 1.403-1.148 2.893-1.456 4.451-.188.873-.308 1.797-.377 2.721l-7.243 104.924c1.593.822 47.689 1.233 47.826-.89l7.945-100.678c.069-.925.052-1.849 0-2.739-.103-1.592-.377-3.133-.839-4.605l-.017-.017" stroke="#fff" stroke-width="1.953" stroke-miterlimit="10" stroke-linecap="round" stroke-linejoin="round"/>
    <path d="M682.213 482.591c-.034.428-.119.839-.274 1.233-1.832 4.844-12.311 7.994-24.691 7.138-12.364-.856-22.312-5.409-23.46-10.46-.085-.41-.137-.838-.102-1.266.085-1.147.633-2.209 1.558-3.185l.017-.017c3.545-3.697 12.757-5.889 23.374-5.17 10.616.736 19.452 4.177 22.465 8.337l.018.017c.77 1.096 1.181 2.226 1.095 3.373ZM631.888 505.376c-.034.428.017.839.103 1.267 1.147 5.051 11.096 9.604 23.459 10.46 12.38.856 22.86-2.277 24.692-7.139.154-.393.24-.804.274-1.232M1009.32 615.008c-1.71 10.768 0 52.59-42.789 53.96-9.76 0-22.466 56.836-22.466 81.179-452.435 20.167-933.6194-4.245-933.6194-4.245L1.6613 621.154l303.3587 8.183v-38.382l563.719-4.451v30.884l23.973.564.565 14.74 21.695.582 1.336-15.647 93.012-2.619ZM859.783 389.702v194.577M254.898 389.702 74.9657 623.191M254.899 389.702l130.857 200.62M305.02 629.337l609.576 3.989" stroke="#fff" stroke-width="1.953" stroke-miterlimit="10" stroke-linecap="round" stroke-linejoin="round"/>
    <path d="M6.6962 635.808c173.2888 10.255 846.8208 18.746 998.5338 3.39M853.52 619.495H314.697v-16.383H853.52v16.383ZM319.574 590.322l-65.257-132.297-124.693 166.639M330.688 603.11v16.384M346.373 603.11v16.384M362.365 603.11v16.384M378.051 603.11v16.384M394.318 603.11v16.384M410.02 603.11v16.384M425.996 603.11v16.384M441.699 603.11v16.384M457.777 603.11v16.384M473.48 603.11v16.384M489.455 603.11v16.384M505.158 603.11v16.384M520.604 603.11v16.384M536.289 603.11v16.384M552.281 603.11v16.384M567.967 603.11v16.384M584.113 603.11v16.384M599.713 603.11v16.384M759.611 603.11v16.384M775.314 603.11v16.384M791.289 603.11v16.384M806.992 603.11v16.384M823.123 603.11v16.384M838.723 603.11v16.384M35.394 736.469s54.8805-29.086 80.668-28.024c25.685 1.061 29.573 24.532 45.086 26.672 5.428 0 44.521-12.72 74.196-15.014 22.226-1.729 20.206 13.644 27.963 15.014 7.756 1.369 31.421-7.259 46.233-8.731 16.866-1.678 9.264 12.856 21.13 13.13 11.867.257 17.432-3.646 37.672-9.809 29.092-5.975 15.171 11.983 21.113 11.521 5.941-.462 34.349-7.994 57.072-10.271 32.723-3.27 17.808 11.196 30.822 10.271 13.014-.924 41.61-7.875 53.648-9.518 18.527-2.534 17.705 14.209 22.825 15.219M803.961 746.604s39.144-18.968 53.528-19.071c33.87-2.311 28.545 17.889 43.768 17.496 15.222-.377 33.87-17.599 52.123-17.496 18.254.103 7.637 14.072 35.206 17.496M941.977 615.282l-82.193-209.419-62.415 181.207" stroke="#fff" stroke-width="1.953" stroke-miterlimit="10" stroke-linecap="round" stroke-linejoin="round"/>
    <path d="m916.309 617.627-56.525-152.035-36.661 120.913M254.898 362.876v265.109M79.8123 682.441c-2.6764 0-4.846-6.898-4.846-15.408 0-8.509 2.1696-15.407 4.846-15.407 2.6763 0 4.8459 6.898 4.8459 15.407 0 8.51-2.1696 15.408-4.8459 15.408ZM564.697 783.838c31.832 4.999 74.555-21.947 148.408-20.646 33.1.582 85.463 14.346 172.09 20.338" stroke="#fff" stroke-width="1.953" stroke-miterlimit="10" stroke-linecap="round" stroke-linejoin="round"/>
    <path d="M145.412 705.124c-1.787 0-3.236-1.449-3.236-3.236 0-1.787 1.449-3.235 3.236-3.235 1.787 0 3.236 1.448 3.236 3.235s-1.449 3.236-3.236 3.236ZM184.813 705.124c-1.788 0-3.237-1.449-3.237-3.236 0-1.787 1.449-3.235 3.237-3.235 1.787 0 3.236 1.448 3.236 3.235s-1.449 3.236-3.236 3.236ZM224.215 705.124c-1.787 0-3.236-1.449-3.236-3.236 0-1.787 1.449-3.235 3.236-3.235 1.787 0 3.236 1.448 3.236 3.235s-1.449 3.236-3.236 3.236ZM263.598 705.124c-1.788 0-3.237-1.449-3.237-3.236 0-1.787 1.449-3.235 3.237-3.235 1.787 0 3.236 1.448 3.236 3.235s-1.449 3.236-3.236 3.236ZM303 705.124c-1.787 0-3.236-1.449-3.236-3.236 0-1.787 1.449-3.235 3.236-3.235 1.787 0 3.236 1.448 3.236 3.235s-1.449 3.236-3.236 3.236ZM342.4 705.124c-1.787 0-3.236-1.449-3.236-3.236 0-1.787 1.449-3.235 3.236-3.235 1.788 0 3.237 1.448 3.237 3.235s-1.449 3.236-3.237 3.236ZM381.801 705.124c-1.788 0-3.237-1.449-3.237-3.236 0-1.787 1.449-3.235 3.237-3.235 1.787 0 3.236 1.448 3.236 3.235s-1.449 3.236-3.236 3.236ZM421.186 705.124c-1.788 0-3.237-1.449-3.237-3.236 0-1.787 1.449-3.235 3.237-3.235 1.787 0 3.236 1.448 3.236 3.235s-1.449 3.236-3.236 3.236ZM460.586 705.124c-1.787 0-3.236-1.449-3.236-3.236 0-1.787 1.449-3.235 3.236-3.235 1.787 0 3.236 1.448 3.236 3.235s-1.449 3.236-3.236 3.236ZM499.986 705.124c-1.787 0-3.236-1.449-3.236-3.236 0-1.787 1.449-3.235 3.236-3.235 1.788 0 3.237 1.448 3.237 3.235s-1.449 3.236-3.237 3.236ZM539.387 705.124c-1.788 0-3.237-1.449-3.237-3.236 0-1.787 1.449-3.235 3.237-3.235 1.787 0 3.236 1.448 3.236 3.235s-1.449 3.236-3.236 3.236ZM578.771 705.124c-1.787 0-3.236-1.449-3.236-3.236 0-1.787 1.449-3.235 3.236-3.235 1.788 0 3.237 1.448 3.237 3.235s-1.449 3.236-3.237 3.236ZM145.412 675.541c-1.787 0-3.236-1.448-3.236-3.235s1.449-3.236 3.236-3.236c1.787 0 3.236 1.449 3.236 3.236 0 1.787-1.449 3.235-3.236 3.235ZM184.813 675.541c-1.788 0-3.237-1.448-3.237-3.235s1.449-3.236 3.237-3.236c1.787 0 3.236 1.449 3.236 3.236 0 1.787-1.449 3.235-3.236 3.235ZM224.215 675.541c-1.787 0-3.236-1.448-3.236-3.235s1.449-3.236 3.236-3.236c1.787 0 3.236 1.449 3.236 3.236 0 1.787-1.449 3.235-3.236 3.235ZM263.598 675.541c-1.788 0-3.237-1.448-3.237-3.235s1.449-3.236 3.237-3.236c1.787 0 3.236 1.449 3.236 3.236 0 1.787-1.449 3.235-3.236 3.235ZM303 675.541c-1.787 0-3.236-1.448-3.236-3.235s1.449-3.236 3.236-3.236c1.787 0 3.236 1.449 3.236 3.236 0 1.787-1.449 3.235-3.236 3.235ZM342.4 675.541c-1.787 0-3.236-1.448-3.236-3.235s1.449-3.236 3.236-3.236c1.788 0 3.237 1.449 3.237 3.236 0 1.787-1.449 3.235-3.237 3.235ZM381.801 675.541c-1.788 0-3.237-1.448-3.237-3.235s1.449-3.236 3.237-3.236c1.787 0 3.236 1.449 3.236 3.236 0 1.787-1.449 3.235-3.236 3.235ZM421.186 675.541c-1.788 0-3.237-1.448-3.237-3.235s1.449-3.236 3.237-3.236c1.787 0 3.236 1.449 3.236 3.236 0 1.787-1.449 3.235-3.236 3.235ZM460.586 675.541c-1.787 0-3.236-1.448-3.236-3.235s1.449-3.236 3.236-3.236c1.787 0 3.236 1.449 3.236 3.236 0 1.787-1.449 3.235-3.236 3.235ZM499.986 675.541c-1.787 0-3.236-1.448-3.236-3.235s1.449-3.236 3.236-3.236c1.788 0 3.237 1.449 3.237 3.236 0 1.787-1.449 3.235-3.237 3.235ZM539.387 675.541c-1.788 0-3.237-1.448-3.237-3.235s1.449-3.236 3.237-3.236c1.787 0 3.236 1.449 3.236 3.236 0 1.787-1.449 3.235-3.236 3.235ZM578.771 675.541c-1.787 0-3.236-1.448-3.236-3.235s1.449-3.236 3.236-3.236c1.788 0 3.237 1.449 3.237 3.236 0 1.787-1.449 3.235-3.237 3.235Z" fill="#fff" stroke="#fff" stroke-width="1.953" stroke-miterlimit="10" stroke-linecap="round" stroke-linejoin="round"/>
    <path d="M802.882 796.561c3.099-.086 5.411-2.688 5.137-5.769l-33.322-380.801c-.274-3.081-1.884-7.738-3.596-10.323l-42.192-63.991c-1.712-2.585-3.339-7.225-3.63-10.323l-11.233-118.876c-.291-3.082-3.048-5.872-6.13-6.197l-69.247-7.327c-3.083-.326-6.011-3.099-6.507-6.163L602.641 3.2213c-.497-3.0643-3.202-6.6251-6.01-7.9262l-36.028-16.5885c-2.808-1.3011-7.089-.7533-9.486 1.2154l-59.641 48.7898c-2.398 1.9687-4.487 6.0945-4.658 9.1931L472.452 319.225c-.154 3.099 2.243 5.632 5.342 5.632h72.073c3.099 0 6.678 2.312 7.945 5.136l40.069 89.157c1.267 2.825 2.294 7.67 2.26 10.785l-3.408 366.609c-.034 3.098 2.483 5.563 5.583 5.478l200.566-5.461Z" fill="url(#c)"/>
    <path d="m166.605 33.3741.152 1.9466 1.491-1.2611 15.789-13.3576-13.51 15.573-1.302 1.5013 1.981.1511L191.841 39.5l-20.635 1.5726-1.981.1511 1.302 1.5013 13.51 15.573-15.789-13.3576-1.491-1.2611-.152 1.9466L165 66.1658l-1.605-20.5399-.152-1.9466-1.491 1.2611-15.789 13.3576 13.51-15.573 1.302-1.5013-1.981-.1511L138.159 39.5l20.635-1.5726 1.981-.1511-1.302-1.5013-13.51-15.573 15.789 13.3576 1.491 1.2611.152-1.9466L165 12.8342l1.605 20.5399Z" stroke="#fff" stroke-width="2"/>
  </g>
  <defs>
    <linearGradient id="b" x1="461.225" y1="831.307" x2="295.731" y2="73.0511" gradientUnits="userSpaceOnUse">
      <stop stop-color="#3FFFD8"/>
      <stop offset=".4888" stop-color="#B9C3FC"/>
      <stop offset="1" stop-color="#FF7EA7"/>
    </linearGradient>
    <linearGradient id="c" x1="712.337" y1="771.215" x2="548.178" y2="19.079" gradientUnits="userSpaceOnUse">
      <stop stop-color="#3FFFD8"/>
      <stop offset=".4888" stop-color="#B9C3FC"/>
      <stop offset="1" stop-color="#FF7EA7"/>
    </linearGradient>
    <clipPath id="a">
      <path fill="#fff" transform="matrix(-1 0 0 1 1011 0)" d="M0 0h1011v824H0z"/>
    </clipPath>
  </defs>
</svg>
