<svg width="18" height="18" fill="none" xmlns="http://www.w3.org/2000/svg">
  <path d="M13.1275 0h-8.255C2.1856 0 0 2.1857 0 4.8724v8.2553C0 15.8142 2.1857 18 4.8724 18h8.2553C15.8142 18 18 15.8142 18 13.1277V4.8724C18 2.1857 15.8142 0 13.1275 0Zm3.8172 13.1277c0 2.1047-1.7123 3.817-3.8172 3.817h-8.255c-2.105 0-3.8173-1.7123-3.8173-3.817V4.8724c0-2.1048 1.7124-3.8172 3.8172-3.8172h8.2553c2.1047 0 3.817 1.7124 3.817 3.8172v8.2553Z" fill="#000"/>
  <path d="M8.9999 4.0781C6.2858 4.0781 4.078 6.286 4.078 9c0 2.7138 2.2079 4.9217 4.9218 4.9217 2.7138 0 4.9217-2.2079 4.9217-4.9217 0-2.714-2.2079-4.9218-4.9217-4.9218Zm0 8.7882c-2.132 0-3.8665-1.7344-3.8665-3.8665 0-2.1318 1.7346-3.8664 3.8665-3.8664 2.132 0 3.8664 1.7346 3.8664 3.8665 0 2.132-1.7344 3.8664-3.8665 3.8664ZM14.0393 2.3306c-.802 0-1.4543.6524-1.4543 1.4543 0 .802.6523 1.4544 1.4543 1.4544.802 0 1.4544-.6524 1.4544-1.4544 0-.802-.6524-1.4543-1.4544-1.4543Zm0 1.8534a.3996.3996 0 0 1-.3991-.3991c0-.2202.1791-.3991.3991-.3991.2201 0 .3992.179.3992.399 0 .22-.1791.3992-.3992.3992Z" fill="#000"/>
</svg>
