<svg width="214" height="130" fill="none" xmlns="http://www.w3.org/2000/svg">
  <path d="M3.7667 117.097c1.5695-10.839 4.8182-18.532 9.1687-24.1431-.3233-.223-3.776-2.5654-5.3298-1.5103-1.626 1.1084.0282 10.6064.0282 10.6064s-3.321.562-4.6863 1.721c-1.3654 1.159 1.3528 9.062 1.3528 9.062s-3.1231-.311-3.2864.807c-.1632 1.118 1.1332 3.325 2.5143 3.79l.7816.232c-.0063-.069-.5525-.49-.543-.565ZM37.5065 78.9744c-.0816-1.3659 1.2775-4.6157 1.2775-4.6157-1.5945-1.8369-3.4684-3.4006-4.7177-2.5496-2.577 1.7583-4.2689 8.952-4.2689 8.952s-2.2348-4.396-4.5262-4.0192c-2.2882.3768-5.154 9.1153-5.154 9.1153s-3.7761-3.3001-5.22-2.8197c-1.2744.4239-2.8877 6.528-1.9429 9.8909 6.2965-8.3837 15.4526-12.8048 24.5522-13.954Z" stroke="#fff" stroke-width=".6" stroke-miterlimit="10" stroke-linecap="round" stroke-linejoin="round"/>
  <path d="M66.0545 43.5429c-4.7334-1.077-7.3858-2.3989-8.8705-3.5198-.5995-.4522-.0816-1.391.6152-1.1147 2.1125.8478 5.4899 1.7207 9.8906 1.2842l-1.6353 3.3503Z" fill="url(#a)"/>
  <path d="M75.6438 38.6383c6.7454-1.6171 13.2178-3.4351 18.3624-1.9122 6.7078 1.9844-.1569 11.4011-.1569 11.4011s-4.7743 2.7758-7.6181 3.4194C82.135 47.719 75.6438 38.6383 75.6438 38.6383Z" fill="url(#b)"/>
  <path d="M123.954 63.4506s2.364-9.7904 8.183-5.9094c5.82 3.881 8.73 13.1282 13.253 20.9247 2.683 4.6251 6.007 7.0649 8.271 8.2832.662.3579.273 1.3596-.459 1.1869-2.144-.5024-5.549-2.0755-10.612-6.3459-8.117-6.8482-9.065 4.6189-9.116 9.6146-.003.4709-.64.6122-.844.1915-1.368-2.804-4.184-7.6709-7.42-8.1231-3.908-.5463-10.691 8.1168-10.691 8.1168l4.266-7.9127s6.692-4.9423 5.169-20.0266Z" fill="url(#c)"/>
  <path d="M124.56 30.0225s1.654 6.8294 2.966 7.7965c0 0-4.906-.0503-6.886-2.019-.226-.2261-.302-.5621-.217-.8698.229-.8101 1.067-2.5088 4.137-4.9077Z" stroke="#fff" stroke-width=".6" stroke-miterlimit="10" stroke-linecap="round" stroke-linejoin="round"/>
  <path d="M120.823 19.2212h-.003c-.02.0032-.036.0129-.055.0161M139.664 39.7874c-4.893.2293-6.507-7.3883-6.667-11.1531.207-2.5245-2.068-4.3111-3.857-5.6299" stroke="#fff" stroke-width=".6" stroke-miterlimit="10" stroke-linecap="round"/>
  <path d="M125.294 24.9453s.007 1.8871-.618 2.6941c-.625.807-5.622 3.95-5.892 5.0239 0 0 .911-3.7679 3.428-5.4949 2.517-1.727 3.082-2.2231 3.082-2.2231Z" stroke="#fff" stroke-width=".6" stroke-miterlimit="10" stroke-linecap="round" stroke-linejoin="round"/>
  <path d="M128.085 24.6123s-.085 1.2968.559 1.7238c.643.4271 4.036 2.9422 4.473 3.6487 0 0 .42-1.7584-.901-2.9704-.819-.7505-4.131-2.4021-4.131-2.4021Z" stroke="#fff" stroke-width=".6" stroke-miterlimit="10"/>
  <path d="M122.915 49.3397c-.546-.8258-1.949-2.8668-2.564-3.6581a.2637.2637 0 0 0-.377-.0439c-.396.3171-1.161.763-1.767 1.0989-.239.1319-.493-.1287-.364-.3673.392-.7159.681-1.4444.841-1.8934a.267.267 0 0 0-.286-.358c-.536.0691-1.252.0722-1.833.0597-.267-.0063-.364-.3611-.132-.4993 1.243-.7347 2.273-1.7866 2.847-2.4397.17-.1947-.006-.493-.26-.4396-1.714.358-2.882.5432-3.516.6311-.223.0314-.383-.2103-.267-.4019.314-.5244.71-1.234.999-1.7646.125-.2261-.113-.4773-.349-.3706-1.381.6218-3.035 1.1367-2.935.7976.116-.3925 1.774-5.7744 1.827-6.0036" stroke="#fff" stroke-width=".6" stroke-miterlimit="10" stroke-linecap="round"/>
  <path d="M114.779 33.687c-.094.1319-7.885 4.0757-2.856 7.6081M125.072 21.1552l3.512 1.595.034.0158.522.2386.003.0031.028.0126s-.057-.201-.176-.5715c-.003-.0125-.009-.0251-.012-.0377-.214-.6688-.609-1.8463-1.193-3.3377-.063-.1664-.132-.336-.201-.515v-.0031c-2.012-5.002-5.976-13.0057-12.097-17.5272-.11-.0817-.261.0282-.217.157.819 2.4366 4.978 14.9085 5.537 18.0296l.003.0031h.003l1.595.7253M119.522 23.3596c-4.624-6.5531-7.047-12.3746-16.291-19.0281-.113-.0817-.267.0376-.213.1664.835 1.9907 4.203 10.0698 6.08 15.3229.951 2.6659 3.412 4.5122 6.24 4.6315 1.874.0785 3.675-.0942 4.193-.942.029-.044.022-.1068-.009-.1507ZM122.912 49.3395s.474 2.5497 1.309 3.7931c.185.2732.593.2543.738-.044.351-.7316.982-2.0221 1.45-2.8856 6.337 1.3722 9.903 1.0111 11.607.2575 3.648-1.2842 3.258-5.407 7.37-2.3864" stroke="#fff" stroke-width=".6" stroke-miterlimit="10" stroke-linecap="round"/>
  <path d="M69.9812 62.4488c-1.0546-1.5229-7.844-8.7322-3.9267-18.9057.4175-1.0832.9542-2.2042 1.6354-3.3503.069-.1162.1412-.2323.2134-.3517.6623-1.0738 1.4439-2.1728 2.3699-3.2969v-.0032c.2919-.3548.5995-.7127.9228-1.0738.1067-.1225.2166-.2387.3264-.3611.0659-.0722.1319-.1476.2009-.2198 0 0 .022-.022.0565-.0597.2543-.2637 1.2995-1.2842 2.1093-1.2308.6906.0471 1.2054.876.9009 3.6486-.0502.4898-.1318 1.0362-.2386 1.6547-.0157.066-.0251.1319-.0376.2041v.0032c-.0534.2889-.113.5903-.1789.9074-.0314.1507-.0628.3109-.1005.471-.0377.1759-.0785.358-.1193.5432" stroke="#fff" stroke-width=".6" stroke-miterlimit="10" stroke-linecap="round" stroke-linejoin="round"/>
  <path d="M74.115 41.031s0-.0032.0031-.0063c.0189-.0314.0973-.1696.226-.3642.0534-.088.1224-.1853.1978-.2889.1255-.1727.2731-.3643.4426-.5526.2636-.2983.5712-.5872.9102-.7945.0346-.0188.0659-.0408.1036-.0596.1318-.0722.1883.1256.1915.5118v.0031c.0125.4522-.0408 1.1618-.1036 1.9939v.0031c-.0345.4428-.0722.9201-.1036 1.413a12.8806 12.8806 0 0 0-.0157.4082c-.0219 1.0959.0848 2.8951.1758 4.0537v.0031c.022.2858.0439.5307.0628.716" stroke="#fff" stroke-width=".6" stroke-miterlimit="10" stroke-linecap="round" stroke-linejoin="round"/>
  <path d="M128.826 29.1523s.179 5.4416 3.754 7.9912c0 0 .402-1.6987.201-3.6706 0 0-1.099-1.9436-3.955-4.3206ZM58.1759 105.3c-6.9589-.568-12.9541-.663-16.5575-.653-2.282.009-3.6035.06-3.6035.06 3.1138-2.425 9.2252-3.891 9.2252-3.891-2.6241-2.9514-4.5859-5.6392-5.9921-8.0852-11.6672-20.2527 6.0643-29.0854 17.1508-24.1086.1161-.0157.1789-.0188.1789-.0188" stroke="#fff" stroke-width=".6" stroke-miterlimit="10" stroke-linecap="round"/>
  <path d="M37.5064 78.9741C25.833 80.6006 8.0167 87.923 3.8294 116.864c-.0878.609.5714 1.055 1.1018.741 4.6707-2.76 20.9206-11.882 33.6519-13.147M112.117 86.5795c-2.486 5.7461-8.299 9.9097-15.2357 10.2049-9.0399.3862-16.7396-5.9346-17.8036-14.3434a15.1928 15.1928 0 0 1-.113-1.3219c-.0063-.113-.0094-.226-.0126-.3391 0-.0157 0-.0314-.0031-.0471M103.159 65.3345c3.44 2.1414 5.942 3.6172 7.763 6.4745M124.996 23.212s.606-2.3801-.932-5.3756c-1.538-2.9955-1.808 4.129-1.808 4.129s-8.939-17.7721-5.634-2.9516M86.2344 51.5466c3.1954-1.0676 9.0933-3.1431 12.8286-7.6772.0125-.0157.0251-.0314.0376-.0502.0189-.022.0346-.0471.0534-.0659.1915-.2355.3829-.4773.5681-.7317.0628-.0816.1224-.1601.1789-.2355 2.464-3.3628 4.57-8.0163 5.512-12.2866M91.7367 14.5518s1.1802 9.5988-2.6366 8.729M89.4016 23.5825s5.2011 7.6866 2.056 9.6585M130.135 10.5796s3.025 4.9831 4.444 3.1305M134.585 13.8672s.644 5.5828 2.835 5.2877M113.018 31.5986s-4.793-.1382-5.672 4.5403c-.04.2198.186.3894.393.2983 1.098-.4867 2.464.0252 2.796 1.0519M106.333 25.5414s1.214-2.7381 3.87-3.476" stroke="#fff" stroke-width=".6" stroke-miterlimit="10" stroke-linecap="round"/>
  <path d="M87.6531 109.604c1.3936-.625 24.9199-8.205 31.1309-26.1274M64.1932 126.102s-6.5226-35.3403 17.9889-36.0908M88.7329 53.9736c5.5903-3.8401 8.0952-7.3129 10.33-10.1043a.686.686 0 0 0 .0377-.0503c.0188-.022.0345-.0471.0534-.0659.204-.2638.3955-.5087.5681-.7316.0628-.0817.1224-.1633.1789-.2355.694-.9169 1.048-1.4632 1.048-1.4632" stroke="#fff" stroke-width=".6" stroke-miterlimit="10" stroke-linecap="round"/>
  <path d="M77.2414 60.2446c-2.1124.763-1.3842.4993-3.6536 1.1336-1.2556.3516-2.4672.6719-3.6097 1.0644-4.6738 1.6233-8.3902 3.8716-11.5762 6.1763-12.3389 8.9237-12.7155 23.8636-2.8626 34.6241 0 0 .9981.914 2.6398 2.054 1.4909 1.033 3.5124 2.251 5.8037 3.146M88.802 79.6774c-13.3308-7.3067 6.9588-5.2595 7.1189-5.4133M121.904 50.9062s13.968 50.7698-28.6354 30.9977" stroke="#fff" stroke-width=".6" stroke-miterlimit="10" stroke-linecap="round"/>
  <path d="M113.778 61.8047c1.224 12.4562-8.779 13.3825-14.3259 12.9648M74.79 37.2441s.2763.4962.8538 1.3942c.0785.1224.1601.2512.2511.3893.0911.1413.1915.2889.2951.449v.0032c3.1137 4.6377 11.5605 15.7249 26.966 25.8575M79.0808 82.469c-.0597-1.3942-2.8752-34.3982-2.8752-34.3982M74.5421 40.3714l-.2071-.3611M67.6616 25.375l4.9092 8.5564M63.2925 27.8838c.0031.0063.0094.0126.0125.022.0032.0031.0032.0063.0063.0094l.1256.2198c0 .0031.0031.0031.0031.0063l4.9971 8.8766M64.1931 126.102c2.3228 2.342 7.6086-.327 7.6086-.327 5.5213-10.406 12.5838-14.666 15.8514-16.171M90.6978 74.1136c1.3026-1.2466 3.0321-2.0504 4.9594-2.1698" stroke="#fff" stroke-width=".6" stroke-miterlimit="10" stroke-linecap="round"/>
  <path d="M98.2341 72.1982h.0032c1.6102.4334 3.0227 1.3659 4.0587 2.6313M88.2369 79.3604a6.2232 6.2232 0 0 0-.0125.4207M88.353 81.2788c.6906 3.8496 4.1371 6.6912 8.1485 6.5185 2.1659-.0941 4.0995-1.0487 5.4645-2.5245a.1212.1212 0 0 0 .025-.022M63.5903 120.732s1.0735 3.052 5.0944 2.355" stroke="#fff" stroke-width=".6" stroke-miterlimit="10" stroke-linecap="round"/>
  <path d="M64.0078 125.763s-1.5757.311-2.4766 1.366l2.9129-.666-.4363-.7ZM64.9589 126.601s-1.9963.402-2.8092 1.925l4.0177-1.51-1.2085-.415ZM70.27 126.363s-1.0735.631-1.3623 2.012l2.8909-2.6-1.5286.588ZM67.3948 127.047s-1.6667.656-1.99 1.953l3.9864-2.317-1.9964.364ZM39.0038 104.025s-1.8488.326-2.7496 1.381l2.916-.668-.3516-.333.1852-.38ZM40.5793 104.59s-1.99.543-2.6115 2.157l4.1213-2.104-1.5098-.053ZM45.9909 104.688s-1.2524.935-1.538 2.317l2.8909-2.283-1.3529-.034ZM43.4641 104.649s-2.1125.986-2.4358 2.283l4.1245-2.264-1.6887-.019Z" stroke="#fff" stroke-width=".6" stroke-miterlimit="10" stroke-linecap="round" stroke-linejoin="round"/>
  <path d="M99.4521 74.7696c-.0503-1.212-2.6022-4.8858-3.5438-4.8449-.8507.0376.091 3.2875.0125 4.3394M93.2653 81.9035c-.9887-.3611-7.0373-.4961-6.8427-1.3251.1098-.4647 1.1676-.6876 2.3761-.9012M84.3667 75.4136s3.663 1.3062 5.176 1.5228M62.4923 27.3441c-.0065-.0033-.0097-.0033-.0162-.0033M67.5268 24.4053a1.6987 1.6987 0 0 0 .0439-.1507c.0063-.0188.0094-.0377.0157-.0565.4206-1.5731.3547-3.7805-.8569-5.9502-1.8457-3.3064-5.4428-4.8104-8.0261-3.366-2.5864 1.4538-3.186 5.3002-1.3434 8.6034 1.1676 2.0881 3.0384 3.4602 4.906 3.8182" stroke="#fff" stroke-width=".6" stroke-miterlimit="10" stroke-linecap="round"/>
  <path d="M62.2659 27.3062a.981.981 0 0 1 .2103.0345c.0063 0 .0094 0 .0157.0031.3233.0817.6058.2763.8035.5401.0032.0063.0094.0126.0126.022.0533.0722.0973.1538.135.2355M67.5868 24.1978c-.0065.0194-.0097.0388-.0162.0582M67.6303 25.3248a1.4036 1.4036 0 0 1-.1036-.92M64.3721 17.0887l1.6761-.8509M55.6807 21.5536l1.6227-.8886M66.72 21.3686l1.8456-1.0707M57.8086 25.843l1.5035-.8855" stroke="#fff" stroke-width=".6" stroke-miterlimit="10" stroke-linecap="round"/>
  <path d="M54.9708 22.822c.595-.2947.9277-.8359.7431-1.2089-.1846-.373-.8166-.4365-1.4116-.1418-.5951.2947-.9278.836-.7432 1.2089.1846.373.8166.4365 1.4117.1418ZM67.4009 16.2883c.5951-.2947.9278-.8359.7432-1.2089-.1846-.373-.8166-.4365-1.4117-.1418-.595.2947-.9277.836-.7431 1.209.1846.373.8166.4364 1.4116.1417ZM69.982 20.4416c.595-.2946.9277-.8359.7431-1.2089-.1846-.373-.8166-.4365-1.4116-.1418-.595.2947-.9278.836-.7432 1.209.1846.373.8167.4364 1.4117.1417ZM57.0652 27.0554c.5951-.2947.9278-.8359.7432-1.2089-.1846-.373-.8166-.4365-1.4117-.1418-.595.2947-.9277.836-.7431 1.2089.1846.373.8166.4365 1.4116.1418Z" stroke="#fff" stroke-width=".6" stroke-miterlimit="10"/>
  <path d="M71.3467 40.5725c.0188-.3611.1287-.8572.3013-1.4161.0126-.0471.0283-.0942.044-.1444.1663-.5369.3798-1.1273.6058-1.7176.0659-.1664.1349-.3328.1977-.4961.0691-.1695.135-.3391.204-.5055.5776-1.4036 1.1363-2.5905 1.1897-2.7004.0063-.0063.0063-.0094.0063-.0094M67.9033 39.8413c.4646-2.4712.8193-4.5247 1.2116-5.3191.1287-.2512.2574-.3768.3955-.3423.5681.1288.7533 2.264.7596 2.3613v.0031M74.5137 39.1001c.1538.2418.3139.4804.4708.719M100.852 74.8387a374.5883 374.5883 0 0 1-1.9054-2.4114C92.468 64.2069 83.381 52.3284 76.0894 41.4768v-.0032M71.7799 34.8263c-3.3586-5.4038-5.9545-10.2456-7.141-13.8346M103.662 85.7861s-.009-.0161-.035-.0517M95.9208 74.2515c-.4614-.6971-.9322-1.413-1.425-2.1509-5.3392-8.0728-12.2416-18.6607-18.5288-28.8027M74.3443 40.6609c-.0377-.0628-.0754-.1193-.1068-.179M71.196 35.4668c-3.9644-6.6191-7.3732-12.6666-9.539-17.2007M98.774 88.5636c-.1883-.3391-.3735-.6813-.565-1.0267-.8004-1.4664-1.6353-2.983-2.4954-4.5467M90.839 74.1107c-.0125-.0282-.0314-.0565-.047-.0816a93591.3494 93591.3494 0 0 0-14.646-26.6739v-.0031M60.6116 19.0547s3.4465 6.283 8.4969 15.4768M93.19 88.5355s-.2354-.5715-.6686-1.6139c-.5085-1.2121-1.2869-3.0678-2.2851-5.4133M76.46 51.019c4.024 8.3617 7.753 16.6449 10.6627 23.2922" stroke="#fff" stroke-width=".6" stroke-miterlimit="10" stroke-linecap="round"/>
  <path d="M61.2742 22.7437c2.3981 3.7553 4.9217 8.1889 7.4579 12.9522M91.1528 13.7134s5.7285 9.0807 16.1592 12.4091M89.844 33.2027s8.9646 1.8808 17.603-3.9312M88.3906 22.8257s8.3902 6.1009 19.2824 4.9862M130.078 9.3081s-.822 7.5673-2.285 9.7653M135.182 12.6963s-2.665 5.6739-6.375 8.9677M138.49 18.2412s-.769 1.504-8.6 5.3285" stroke="#fff" stroke-width=".6" stroke-miterlimit="10" stroke-linecap="round"/>
  <path d="M93.4505 90.0614c.5149 0 .9323-.4175.9323-.9325 0-.5151-.4174-.9326-.9323-.9326-.5148 0-.9322.4175-.9322.9326 0 .515.4174.9325.9322.9325ZM98.953 89.9296c.5149 0 .9322-.4176.9322-.9326 0-.515-.4173-.9325-.9322-.9325s-.9322.4175-.9322.9325.4173.9326.9322.9326Z" stroke="#fff" stroke-width=".6" stroke-miterlimit="10"/>
  <path d="M103.856 35.5014s-3.635-3.4351-3.205-1.1712c.43 2.2671 1.381 4.6817 1.381 4.6817M111.104 47.7188c4.931 1.8839 5.719 1.8305 10.8 3.1839.38.091.876.1476 1.444.1758M125.928 51.1009c1.906-.0408 3.974-.1538 5.415-.1004h.003c.383.0125.722.0376.998.0785.007 0 .01.0031.016.0031 7.354 1.1053 9.718 3.4382 12.625 3.1933 1.456-.3799.649-4.9328.442-5.9847a.6497.6497 0 0 0-.21-.3611c-2.185-1.906-2.756-3.1996-2.756-3.1996" stroke="#fff" stroke-width=".6" stroke-miterlimit="10" stroke-linecap="round"/>
  <path d="M137.495 50.6547s3.764-.314 6.08.5746c0 0 1.494-1.3188.779-3.8182M142.461 44.7298s.191-2.5371.072-3.2247c-.107-.606-1.949-3.6863-4.146-.3988-.157.2355-.477.2889-.707.1193-4.403-3.2938-8.534 3.8119-.687 6.5029" stroke="#fff" stroke-width=".6" stroke-miterlimit="10" stroke-linecap="round"/>
  <path d="M141.607 43.5208s-.791-3.4885-1.24-.5307c-.298 1.9751 1.347 3.0175 1.347 3.0175M136.597 45.8635c-1.415-1.6988-1.607-3.1965.251-2.4461 1.856.7505 2.034 2.2922 2.176 3.005.069 1.5574-2.031 1.303-2.031 1.303" stroke="#fff" stroke-width=".6" stroke-miterlimit="10" stroke-linecap="round"/>
  <path d="m205.912 56.828 4.088-.8827-2.897-2.7218-1.191 3.6045Zm0 0L202.788 51 198 54.5844 205.018 65l3.149-.438-1.7-3.5711L205.018 65" stroke="#fff" stroke-width=".6" stroke-miterlimit="10" stroke-linecap="round" stroke-linejoin="round"/>
  <path d="m203.585 52.4878-4.555 3.6245" stroke="#fff" stroke-width=".6" stroke-miterlimit="10"/>
  <path d="M213.135 73.7976c-1.891.8463-6.486 2.7093-10.139 2.6318-4.718-.1023-6.175-3.9555-11.321-6.7206-3.466-1.863-5.992-1.4693-7.707-.5022-1.944 1.0912-3.139 2.762-3.098 2.8488.509 1.0819 4.551 1.3113 4.551 1.3113 0 .1023-.547 4.6623 1.58 6.0479 0 0 2.595 1.2462-.293 1.7608 6.597 5.7131 14.401 3.5401 17.411 2.3621.337-.1302.284-.62-.075-.6696-.947-.1364-1.991-.3875-3.051-.7005 7.861-.1922 11.475-5.7039 12.604-7.8924.151-.2945-.157-.6138-.462-.4774Zm-25.647 2.1792c-.349-3.1433-2.664-4.1508-2.664-4.1508l2.23-2.7868.025 2.2444 3.181-.062-1.164 2.8519 2.025 1.5375-3.633.3658Z" fill="url(#d)"/>
  <path d="m181.747 77.5145.004.0031v.0031l-.007-.0062c-.472-.1922-1.123-.0589-1.415-.3503-.293-.2883-.007-.8432-.151-1.1935h.003c.358.1426.922-.1395 1.214.1488.293.2883.157.93.352 1.395Z" fill="#0FF"/>
  <path d="M174.242 119.103c5.646.669 8.871-1.553 8.871-1.553.056.053.563.459 1.141.747M207.646 108.25s.594 11.46-13.524 8.37c0 0-4.378 1.86-7.867 1.987M166.406 116.176c2.702 1.901 5.486 2.651 7.836 2.927M207.161 107.506c-.047-.009-.094-.015-.141-.028h-.01c-13.743-2.498-11.771-14.1385-20.752-14.7275-1.617 2.0924-5.008 1.8072-5.008 1.8072-4.111 3.7633-15.171 1.6492-20.535.5084" stroke="#fff" stroke-width=".6" stroke-miterlimit="10" stroke-linecap="round" stroke-linejoin="round"/>
  <path d="M207.646 108.257v-.007c-.044-.431-.217-.666-.485-.744a.585.585 0 0 0-.126-.024c-.006 0-.015 0-.025-.004-.361-.027-.858.162-1.44.493-2.935 1.674-8.003 6.978-8.616 6.169-.944-1.24-2.202-4.03-7.55-.31-.978.679-3.086 2.461-6.134 1.814-3.416-.431-7.267-4.914-7.267-9.089 0-.53-1.503-5.314-9.352-9.1606h-.003c-1.607-.8276-3.117-1.4166-4.275-1.8134-.695-.2356-1.265-.4061-1.651-.5115-.004-.0031-.004-.0031-.007-.0031l.007.0031c-.004-.0031-.004-.0031-.007-.0031-7.556.0775-1.686 12.2846 1.007 16.2836 1.151 1.711 3.08 3.559 3.092 3.568M181.521 87.8431s-4.958-3.0038-7.934-4.0082c0 0-8.263-.0992-8.128-3.3975 0 0-.028-8.5279 7.675-1.9963 0 0 3.061 2.6721 8.802 6.2463 0-.0031-.422 1.0199-.415 3.1557Z" stroke="#fff" stroke-width=".6" stroke-miterlimit="10" stroke-linecap="round" stroke-linejoin="round"/>
  <path d="M179.033 82.8122v-.0031c-.894-3.2425-2.747-9.9941-2.051-13.311.135-.6386.541-1.1842 1.113-1.5066.39-.2201.912-.499 1.488-.7687.009-.0062.022-.0093.032-.0124.27-.1271.547-.2511.833-.3658.094-.0372.192-.0744.29-.1116 1.591-.5983 3.208-.8401 3.476.4867.097.4556.031 1.0973-.249 1.9715M181.25 94.5577c-.525-1.0168-1.849-3.2115-4.297-4.9971v-.0031c-.427-.31-.89-.6107-1.39-.8897-3.338-1.863-1.554-3.5711-.544-4.2655" stroke="#fff" stroke-width=".6" stroke-miterlimit="10" stroke-linecap="round" stroke-linejoin="round"/>
  <path d="M175.934 84.8301c.305.7781.733 2.2319 1.019 4.7273v.0031M181.596 86.3242c-.138.9889-.151 2.7868.362 3.4812.667.899 2.822 2.17 4.168 2.9108M180.448 66.8786c.041-.7967 1.551-1.8878 2.199-2.3218.157-.1054.141-.341-.025-.4247-1.161-.5921-2.879.9982-2.879.9982l-.424-.7254c-.107-.186-.387-.1922-.491-.0031-.39.7161.664 2.7217.664 2.7217s.056.0434.141.0992M183.487 81.5815c-.132.1519-.258.3255-.378.5146-.569.8959-.997 2.1142-1.173 2.5916M181.587 80.9614l-2.007 2.2103M181.077 72.1948c.869 1.1935 4.341 1.1563 4.341 1.1563 0 .1023-.547 4.6623 1.58 6.0479 0 0 2.595 1.2462-.293 1.7608" stroke="#fff" stroke-width=".6" stroke-miterlimit="10" stroke-linecap="round" stroke-linejoin="round"/>
  <path d="M183.367 75.6141s.774-.0992.954.6634c.179.7626.409.7594.409.7594M182.109 74.5324s.101-.7626-.673-.9393c-.774-.1767-.529-.2821-.529-.2821" stroke="#fff" stroke-width=".6" stroke-miterlimit="10" stroke-linecap="round" stroke-linejoin="round"/>
  <path d="M181.751 77.5176v.0031l-.007-.0062c-.472-.1922-1.123-.0589-1.415-.3503-.293-.2883-.007-.8432-.151-1.1935h.003c.358.1426.922-.1395 1.214.1488.293.2883.157.93.352 1.395l.004.0031Z" fill="#fff"/>
  <path d="m184.012 115.932.419 4.147.147 1.467v.006-.006.006c.007.142.107 2.573-.314 3.45-.648 1.348-1.293 1.779-1.293 1.779s2.586 1.29 3.331-2.393c.349-1.714 1.262-2.343 1.262-2.343s.449-1.197-1.504-1.42l.494-5.174M176.003 106.554l-9.842 8.953c.11.322.198.462.245.669.072.31-.063 1.219-1.192 1.237-.422-.018-.853-.139-1.859.623-2.011 1.513-3.895.658-3.715.338 1.45-.728 3.476-3.028 5.174-3.456l9.135-11.798" stroke="#fff" stroke-width=".6" stroke-miterlimit="10" stroke-linecap="round" stroke-linejoin="round"/>
  <path d="M171.722 105.993c.286.664.966 1.69 2.513 2.145M166.214 77.1702s-1.211-.1829-2.435 0c-.478.0713-2.529.5579-2.878 1.4755-.076.2015 2.875-.31 2.875-.31s-1.076 1.1532-.944 1.3082c.076.0651 2.759-1.1222 2.759-1.1222M186.705 81.1599c-.941.3348-2.067.5673-3.218.4216-.4-.0496-.802-.1426-1.202-.2945-.236-.0868-.468-.1953-.701-.3255-.777-.4371-1.526-1.119-2.196-2.1327-1.975-2.9852-.881-4.8545.569-5.9518a6.6536 6.6536 0 0 1 1.12-.682l.003-.0031" stroke="#fff" stroke-width=".6" stroke-miterlimit="10" stroke-linecap="round" stroke-linejoin="round"/>
  <defs>
    <linearGradient id="a" x1="156.611" y1="68.7996" x2="35.9324" y2="32.6781" gradientUnits="userSpaceOnUse">
      <stop stop-color="#3FFFD8"/>
      <stop offset=".4888" stop-color="#B9C3FC"/>
      <stop offset="1" stop-color="#FF7EA7"/>
    </linearGradient>
    <linearGradient id="b" x1="157.916" y1="64.4418" x2="37.2368" y2="28.3202" gradientUnits="userSpaceOnUse">
      <stop stop-color="#3FFFD8"/>
      <stop offset=".4888" stop-color="#B9C3FC"/>
      <stop offset="1" stop-color="#FF7EA7"/>
    </linearGradient>
    <linearGradient id="c" x1="152.356" y1="83.0167" x2="31.6771" y2="46.8951" gradientUnits="userSpaceOnUse">
      <stop stop-color="#3FFFD8"/>
      <stop offset=".4888" stop-color="#B9C3FC"/>
      <stop offset="1" stop-color="#FF7EA7"/>
    </linearGradient>
    <linearGradient id="d" x1="180.866" y1="76.6687" x2="213.635" y2="76.6687" gradientUnits="userSpaceOnUse">
      <stop stop-color="#3FFFD8"/>
      <stop offset=".4888" stop-color="#B9C3FC"/>
      <stop offset="1" stop-color="#FF7EA7"/>
    </linearGradient>
  </defs>
</svg>
