<svg width="911" height="558" viewBox="0 0 911 558" fill="none" xmlns="http://www.w3.org/2000/svg">
<path d="M872.584 250.762L890.968 247.163L877.94 236.066L872.584 250.762ZM872.584 250.762L858.533 227L837 241.615L868.563 284.081L882.723 282.295L875.078 267.735L868.563 284.081" stroke="white" stroke-width="1.953" stroke-miterlimit="10" stroke-linecap="round" stroke-linejoin="round"/>
<path d="M862.116 233.066L841.633 247.845" stroke="white" stroke-width="1.953" stroke-miterlimit="10"/>
<path d="M13.329 505.065C20.1433 458.004 34.2487 424.603 53.1376 400.241C51.7339 399.273 36.7427 389.103 29.9966 393.684C22.9371 398.496 30.1193 439.736 30.1193 439.736C30.1193 439.736 15.7004 442.176 9.77203 447.207C3.84367 452.237 15.6459 486.551 15.6459 486.551C15.6459 486.551 2.08561 485.202 1.37693 490.055C0.668253 494.908 6.29679 504.492 12.2933 506.51L15.6868 507.519C15.6595 507.219 13.2882 505.392 13.329 505.065Z" stroke="white" stroke-width="1.953" stroke-miterlimit="10" stroke-linecap="round" stroke-linejoin="round"/>
<path d="M159.821 339.547C159.467 333.617 165.368 319.507 165.368 319.507C158.445 311.531 150.308 304.742 144.884 308.437C133.695 316.071 126.35 347.304 126.35 347.304C126.35 347.304 116.646 328.218 106.698 329.854C96.7624 331.49 84.3197 369.431 84.3197 369.431C84.3197 369.431 67.9247 355.102 61.6557 357.188C56.1225 359.029 49.1175 385.531 53.2197 400.132C80.5583 363.732 120.312 344.537 159.821 339.547Z" stroke="white" stroke-width="1.953" stroke-miterlimit="10" stroke-linecap="round" stroke-linejoin="round"/>
<path d="M283.771 185.712C263.219 181.036 251.703 175.297 245.257 170.43C242.654 168.467 244.902 164.39 247.928 165.59C257.1 169.271 271.764 173.061 290.871 171.166L283.771 185.712Z" fill="url(#paint0_linear)"/>
<path d="M325.406 164.417C354.694 157.396 382.795 149.503 405.132 156.115C434.256 164.731 404.451 205.616 404.451 205.616C404.451 205.616 383.722 217.668 371.375 220.462C353.59 203.844 325.406 164.417 325.406 164.417Z" fill="url(#paint1_linear)"/>
<path d="M535.16 272.146C535.16 272.146 545.423 229.638 570.69 246.489C595.957 263.339 608.59 303.488 628.229 337.339C639.881 357.42 654.314 368.013 664.14 373.302C667.015 374.857 665.325 379.206 662.15 378.456C652.842 376.274 638.055 369.444 616.072 350.904C580.829 321.17 576.713 370.958 576.495 392.648C576.482 394.693 573.715 395.306 572.829 393.479C566.887 381.305 554.663 360.174 540.612 358.211C523.644 355.839 494.193 393.452 494.193 393.452L512.714 359.097C512.714 359.097 541.77 337.639 535.16 272.146Z" fill="url(#paint2_linear)"/>
<path d="M537.791 127.009C537.791 127.009 544.973 156.661 550.67 160.859C550.67 160.859 529.368 160.641 520.769 152.093C519.788 151.112 519.461 149.653 519.829 148.317C520.823 144.8 524.462 137.424 537.791 127.009Z" stroke="white" stroke-width="1.953" stroke-miterlimit="10" stroke-linecap="round" stroke-linejoin="round"/>
<path d="M521.56 80.1113H521.546C521.464 80.125 521.396 80.1659 521.314 80.1795" stroke="white" stroke-width="1.953" stroke-miterlimit="10" stroke-linecap="round"/>
<path d="M603.372 169.407C582.125 170.402 575.12 137.329 574.425 120.983C575.325 110.022 565.444 102.265 557.676 96.5391" stroke="white" stroke-width="1.953" stroke-miterlimit="10" stroke-linecap="round"/>
<path d="M540.98 104.965C540.98 104.965 541.007 113.158 538.295 116.662C535.583 120.166 513.887 133.812 512.715 138.475C512.715 138.475 516.667 122.115 527.597 114.617C538.527 107.119 540.98 104.965 540.98 104.965Z" stroke="white" stroke-width="1.953" stroke-miterlimit="10" stroke-linecap="round" stroke-linejoin="round"/>
<path d="M553.096 103.52C553.096 103.52 552.728 109.15 555.522 111.004C558.316 112.858 573.048 123.778 574.942 126.846C574.942 126.846 576.769 119.211 571.031 113.949C567.474 110.69 553.096 103.52 553.096 103.52Z" stroke="white" stroke-width="1.953" stroke-miterlimit="10"/>
<path d="M530.651 210.879C528.279 207.294 522.187 198.432 519.516 194.997C519.121 194.479 518.385 194.397 517.881 194.806C516.164 196.183 512.838 198.119 510.208 199.578C509.172 200.15 508.068 199.019 508.627 197.983C510.331 194.874 511.584 191.711 512.279 189.762C512.579 188.93 511.911 188.099 511.039 188.208C508.709 188.508 505.602 188.521 503.08 188.467C501.922 188.439 501.499 186.899 502.508 186.299C507.905 183.109 512.375 178.542 514.869 175.706C515.605 174.861 514.842 173.566 513.738 173.798C506.297 175.352 501.227 176.156 498.474 176.538C497.506 176.674 496.811 175.624 497.315 174.793C498.678 172.516 500.395 169.435 501.649 167.131C502.194 166.15 501.159 165.059 500.137 165.522C494.14 168.222 486.958 170.458 487.394 168.985C487.898 167.281 495.094 143.914 495.326 142.919" stroke="white" stroke-width="1.953" stroke-miterlimit="10" stroke-linecap="round"/>
<path d="M495.324 142.919C494.915 143.492 461.09 160.615 482.922 175.952" stroke="white" stroke-width="1.953" stroke-miterlimit="10" stroke-linecap="round"/>
<path d="M540.014 88.5092L555.264 95.4348L555.414 95.503L557.676 96.5391L557.69 96.5527L557.812 96.6072C557.812 96.6072 557.567 95.7347 557.049 94.126C557.035 94.0715 557.008 94.017 556.995 93.9624C556.068 91.0586 554.351 85.9462 551.816 79.4706C551.543 78.748 551.243 78.0118 550.944 77.2348V77.2211C542.208 55.5038 524.995 20.7534 498.42 1.12187C497.943 0.767418 497.288 1.24457 497.479 1.80352C501.036 12.3827 519.094 66.5329 521.52 80.0841L521.533 80.0977H521.547L528.47 83.2469" stroke="white" stroke-width="1.953" stroke-miterlimit="10" stroke-linecap="round"/>
<path d="M515.918 98.0797C495.844 69.6277 485.323 44.3522 445.187 15.4639C444.696 15.1094 444.029 15.6275 444.26 16.1864C447.885 24.8297 462.509 59.9074 470.658 82.7154C474.788 94.2898 485.473 102.306 497.752 102.824C505.888 103.165 513.711 102.415 515.959 98.7341C516.082 98.5432 516.055 98.2706 515.918 98.0797Z" stroke="white" stroke-width="1.953" stroke-miterlimit="10" stroke-linecap="round"/>
<path d="M530.637 210.878C530.637 210.878 532.695 221.948 536.32 227.347C537.124 228.533 538.896 228.451 539.522 227.156C541.049 223.98 543.788 218.377 545.819 214.628C573.335 220.585 588.816 219.017 596.217 215.745C612.053 210.17 610.363 192.269 628.216 205.384" stroke="white" stroke-width="1.953" stroke-miterlimit="10" stroke-linecap="round"/>
<path d="M300.82 267.797C296.241 261.185 266.763 229.884 283.771 185.713C285.583 181.009 287.914 176.142 290.871 171.166C291.171 170.662 291.485 170.157 291.798 169.639C294.674 164.977 298.067 160.205 302.087 155.325C302.087 155.325 302.087 155.325 302.087 155.311C303.355 153.771 304.69 152.216 306.094 150.649C306.558 150.117 307.035 149.613 307.512 149.081C307.798 148.767 308.084 148.44 308.384 148.127C308.384 148.127 308.479 148.031 308.629 147.868C309.733 146.722 314.271 142.292 317.787 142.523C320.786 142.728 323.021 146.327 321.699 158.365C321.481 160.492 321.126 162.864 320.663 165.55C320.595 165.836 320.554 166.122 320.499 166.436V166.449C320.268 167.704 320.009 169.012 319.723 170.389C319.586 171.044 319.45 171.739 319.287 172.434C319.123 173.198 318.946 173.988 318.769 174.793" stroke="white" stroke-width="1.953" stroke-miterlimit="10" stroke-linecap="round" stroke-linejoin="round"/>
<path d="M318.77 174.806C318.77 174.806 318.77 174.792 318.783 174.778C318.865 174.642 319.206 174.042 319.764 173.197C319.996 172.815 320.296 172.393 320.623 171.943C321.168 171.193 321.809 170.361 322.545 169.543C323.689 168.248 325.025 166.994 326.497 166.094C326.647 166.012 326.783 165.917 326.947 165.835C327.519 165.522 327.764 166.381 327.778 168.057C327.778 168.057 327.778 168.057 327.778 168.071C327.832 170.034 327.601 173.115 327.328 176.728V176.742C327.178 178.664 327.015 180.736 326.878 182.876C326.851 183.395 326.824 183.994 326.81 184.649C326.715 189.407 327.178 197.218 327.574 202.249V202.263C327.669 203.503 327.764 204.567 327.846 205.371" stroke="white" stroke-width="1.953" stroke-miterlimit="10" stroke-linecap="round" stroke-linejoin="round"/>
<path d="M556.312 123.232C556.312 123.232 557.089 146.858 572.612 157.928C572.612 157.928 574.357 150.553 573.484 141.991C573.484 141.991 568.714 133.553 556.312 123.232Z" stroke="white" stroke-width="1.953" stroke-miterlimit="10" stroke-linecap="round"/>
<path d="M249.563 453.846C219.349 451.378 193.319 450.969 177.674 451.01C167.766 451.051 162.028 451.269 162.028 451.269C175.548 440.745 202.082 434.378 202.082 434.378C190.689 421.563 182.171 409.893 176.065 399.273C125.409 311.34 202.396 272.991 250.531 294.599C251.035 294.531 251.308 294.517 251.308 294.517" stroke="white" stroke-width="1.953" stroke-miterlimit="10" stroke-linecap="round"/>
<path d="M159.82 339.547C109.136 346.609 31.7812 378.401 13.6009 504.056C13.2193 506.701 16.0813 508.637 18.3845 507.273C38.6635 495.29 109.218 455.686 164.495 450.192" stroke="white" stroke-width="1.953" stroke-miterlimit="10" stroke-linecap="round"/>
<path d="M483.767 372.566C472.974 397.515 447.734 415.592 417.615 416.873C378.365 418.55 344.935 391.107 340.315 354.598C340.069 352.717 339.906 350.794 339.824 348.859C339.797 348.368 339.783 347.877 339.769 347.386C339.769 347.318 339.769 347.25 339.756 347.182" stroke="white" stroke-width="1.953" stroke-miterlimit="10" stroke-linecap="round"/>
<path d="M444.873 280.325C459.81 289.623 470.672 296.03 478.576 308.436" stroke="white" stroke-width="1.953" stroke-miterlimit="10" stroke-linecap="round"/>
<path d="M539.685 97.4389C539.685 97.4389 542.315 87.1051 535.637 74.0992C528.96 61.0933 527.788 92.0266 527.788 92.0266C527.788 92.0266 488.974 14.8639 503.325 79.2116" stroke="white" stroke-width="1.953" stroke-miterlimit="10" stroke-linecap="round"/>
<path d="M371.389 220.463C385.262 215.828 410.87 206.816 427.088 187.13C427.143 187.062 427.197 186.994 427.252 186.912C427.333 186.817 427.401 186.708 427.483 186.626C428.315 185.603 429.146 184.554 429.95 183.449C430.223 183.095 430.481 182.754 430.727 182.427C441.425 167.826 450.57 147.622 454.658 129.081" stroke="white" stroke-width="1.953" stroke-miterlimit="10" stroke-linecap="round"/>
<path d="M395.28 59.8389C395.28 59.8389 400.404 101.515 383.832 97.7385" stroke="white" stroke-width="1.953" stroke-miterlimit="10" stroke-linecap="round"/>
<path d="M385.139 99.0479C385.139 99.0479 407.721 132.421 394.065 140.983" stroke="white" stroke-width="1.953" stroke-miterlimit="10" stroke-linecap="round"/>
<path d="M561.996 42.5938C561.996 42.5938 575.134 64.2293 581.294 56.1858" stroke="white" stroke-width="1.953" stroke-miterlimit="10" stroke-linecap="round"/>
<path d="M581.32 56.8672C581.32 56.8672 584.114 81.1066 593.627 79.8251" stroke="white" stroke-width="1.953" stroke-miterlimit="10" stroke-linecap="round"/>
<path d="M487.679 133.852C487.679 133.852 466.868 133.253 463.052 153.566C462.875 154.52 463.856 155.256 464.756 154.861C469.526 152.748 475.454 154.97 476.899 159.428" stroke="white" stroke-width="1.953" stroke-miterlimit="10" stroke-linecap="round"/>
<path d="M458.65 107.555C458.65 107.555 463.925 95.6666 475.454 92.4629" stroke="white" stroke-width="1.953" stroke-miterlimit="10" stroke-linecap="round"/>
<path d="M377.549 472.537C383.6 469.824 485.745 436.914 512.715 359.097" stroke="white" stroke-width="1.953" stroke-miterlimit="10" stroke-linecap="round"/>
<path d="M275.69 544.164C275.69 544.164 247.37 390.725 353.795 387.467" stroke="white" stroke-width="1.953" stroke-miterlimit="10" stroke-linecap="round"/>
<path d="M382.236 231C406.509 214.327 417.384 199.249 427.087 187.13C427.142 187.061 427.196 186.993 427.251 186.911C427.333 186.816 427.401 186.707 427.483 186.625C428.369 185.48 429.2 184.417 429.949 183.449C430.222 183.094 430.481 182.74 430.726 182.426C433.738 178.445 435.278 176.073 435.278 176.073" stroke="white" stroke-width="1.953" stroke-miterlimit="10" stroke-linecap="round"/>
<path d="M332.343 258.227C323.171 261.539 326.333 260.394 316.48 263.148C311.028 264.675 305.768 266.066 300.807 267.77C280.514 274.818 264.378 284.579 250.546 294.586C196.972 333.331 195.337 398.196 238.116 444.917C238.116 444.917 242.45 448.884 249.578 453.832C256.051 458.318 264.828 463.607 274.777 467.493" stroke="white" stroke-width="1.953" stroke-miterlimit="10" stroke-linecap="round"/>
<path d="M382.536 342.601C324.656 310.877 412.75 319.766 413.445 319.098" stroke="white" stroke-width="1.953" stroke-miterlimit="10" stroke-linecap="round"/>
<path d="M526.262 217.682C526.262 217.682 586.908 438.113 401.93 352.266" stroke="white" stroke-width="1.953" stroke-miterlimit="10" stroke-linecap="round"/>
<path d="M490.977 265.002C496.293 319.084 452.859 323.106 428.777 321.293" stroke="white" stroke-width="1.953" stroke-miterlimit="10" stroke-linecap="round"/>
<path d="M321.699 158.364C321.699 158.364 322.899 160.518 325.406 164.417C325.747 164.949 326.101 165.508 326.496 166.108C326.892 166.721 327.328 167.362 327.777 168.057C327.777 168.057 327.777 168.057 327.777 168.071C341.297 188.207 377.971 236.345 444.859 280.338" stroke="white" stroke-width="1.953" stroke-miterlimit="10" stroke-linecap="round"/>
<path d="M340.329 354.72C340.07 348.667 327.846 205.371 327.846 205.371" stroke="white" stroke-width="1.953" stroke-miterlimit="10" stroke-linecap="round"/>
<path d="M320.622 171.943L319.723 170.375" stroke="white" stroke-width="1.953" stroke-miterlimit="10" stroke-linecap="round"/>
<path d="M290.748 106.832L312.063 143.982" stroke="white" stroke-width="1.953" stroke-miterlimit="10" stroke-linecap="round"/>
<path d="M271.777 117.725C271.791 117.752 271.818 117.779 271.832 117.82C271.845 117.834 271.845 117.847 271.859 117.861L272.404 118.815C272.404 118.829 272.418 118.829 272.418 118.843L294.114 157.383" stroke="white" stroke-width="1.953" stroke-miterlimit="10" stroke-linecap="round"/>
<path d="M275.689 544.164C285.774 554.334 308.725 542.746 308.725 542.746C332.697 497.566 363.361 479.066 377.548 472.536" stroke="white" stroke-width="1.953" stroke-miterlimit="10" stroke-linecap="round"/>
<path d="M390.768 318.443C396.423 313.031 403.933 309.541 412.3 309.022" stroke="white" stroke-width="1.953" stroke-miterlimit="10" stroke-linecap="round"/>
<path d="M423.49 310.127H423.504C430.495 312.008 436.628 316.057 441.125 321.551" stroke="white" stroke-width="1.953" stroke-miterlimit="10" stroke-linecap="round"/>
<path d="M380.084 341.224C380.043 341.823 380.029 342.437 380.029 343.05" stroke="white" stroke-width="1.953" stroke-miterlimit="10" stroke-linecap="round"/>
<path d="M380.588 349.554C383.586 366.268 398.55 378.606 415.967 377.856C425.371 377.447 433.766 373.302 439.694 366.895C439.735 366.868 439.762 366.84 439.803 366.799" stroke="white" stroke-width="1.953" stroke-miterlimit="10" stroke-linecap="round"/>
<path d="M273.072 520.852C273.072 520.852 277.733 534.103 295.191 531.076" stroke="white" stroke-width="1.953" stroke-miterlimit="10" stroke-linecap="round"/>
<path d="M274.886 542.691C274.886 542.691 268.044 544.041 264.133 548.622L276.78 545.732L274.886 542.691Z" stroke="white" stroke-width="1.953" stroke-miterlimit="10" stroke-linecap="round" stroke-linejoin="round"/>
<path d="M279.016 546.332C279.016 546.332 270.348 548.077 266.818 554.689L284.263 548.132L279.016 546.332Z" stroke="white" stroke-width="1.953" stroke-miterlimit="10" stroke-linecap="round" stroke-linejoin="round"/>
<path d="M302.075 545.295C302.075 545.295 297.414 548.036 296.16 554.034L308.712 542.746L302.075 545.295Z" stroke="white" stroke-width="1.953" stroke-miterlimit="10" stroke-linecap="round" stroke-linejoin="round"/>
<path d="M289.59 548.268C289.59 548.268 282.353 551.117 280.949 556.748L298.257 546.687L289.59 548.268Z" stroke="white" stroke-width="1.953" stroke-miterlimit="10" stroke-linecap="round" stroke-linejoin="round"/>
<path d="M166.321 448.311C166.321 448.311 158.294 449.728 154.383 454.309L167.044 451.405L165.517 449.96L166.321 448.311Z" stroke="white" stroke-width="1.953" stroke-miterlimit="10" stroke-linecap="round" stroke-linejoin="round"/>
<path d="M173.163 450.765C173.163 450.765 164.523 453.123 161.824 460.13L179.718 450.996L173.163 450.765Z" stroke="white" stroke-width="1.953" stroke-miterlimit="10" stroke-linecap="round" stroke-linejoin="round"/>
<path d="M196.658 451.188C196.658 451.188 191.221 455.25 189.98 461.249L202.532 451.337L196.658 451.188Z" stroke="white" stroke-width="1.953" stroke-miterlimit="10" stroke-linecap="round" stroke-linejoin="round"/>
<path d="M185.687 451.023C185.687 451.023 176.515 455.304 175.111 460.935L193.019 451.105L185.687 451.023Z" stroke="white" stroke-width="1.953" stroke-miterlimit="10" stroke-linecap="round" stroke-linejoin="round"/>
<path d="M428.778 321.292C428.56 316.03 417.48 300.079 413.391 300.256C409.698 300.42 413.787 314.53 413.446 319.097" stroke="white" stroke-width="1.953" stroke-miterlimit="10" stroke-linecap="round"/>
<path d="M401.915 352.266C397.622 350.699 371.361 350.112 372.205 346.513C372.682 344.496 377.275 343.528 382.522 342.601" stroke="white" stroke-width="1.953" stroke-miterlimit="10" stroke-linecap="round"/>
<path d="M363.279 324.087C363.279 324.087 379.184 329.758 385.753 330.699" stroke="white" stroke-width="1.953" stroke-miterlimit="10" stroke-linecap="round"/>
<path d="M268.303 115.38C268.275 115.366 268.262 115.366 268.234 115.366" stroke="white" stroke-width="1.953" stroke-miterlimit="10" stroke-linecap="round"/>
<path d="M290.162 102.62C290.23 102.415 290.299 102.197 290.353 101.965C290.38 101.883 290.394 101.802 290.421 101.72C292.247 94.8896 291.961 85.3056 286.701 75.8853C278.687 61.5297 263.069 54.9995 251.853 61.2707C240.623 67.5828 238.02 84.2832 246.02 98.6251C251.09 107.691 259.212 113.649 267.321 115.203" stroke="white" stroke-width="1.953" stroke-miterlimit="10" stroke-linecap="round"/>
<path d="M267.322 115.216C267.622 115.229 267.936 115.284 268.235 115.366C268.263 115.366 268.276 115.366 268.304 115.379C269.707 115.734 270.934 116.579 271.792 117.724C271.806 117.752 271.833 117.779 271.847 117.82C272.079 118.133 272.269 118.488 272.433 118.842" stroke="white" stroke-width="1.953" stroke-miterlimit="10" stroke-linecap="round"/>
<path d="M290.422 101.72C290.394 101.802 290.381 101.883 290.354 101.965" stroke="white" stroke-width="1.953" stroke-miterlimit="10" stroke-linecap="round"/>
<path d="M290.612 106.614C290.026 105.387 289.849 103.982 290.163 102.619" stroke="white" stroke-width="1.953" stroke-miterlimit="10" stroke-linecap="round"/>
<path d="M276.467 70.8547L283.744 67.1602" stroke="white" stroke-width="1.953" stroke-miterlimit="10" stroke-linecap="round"/>
<path d="M238.729 90.24L245.774 86.3818" stroke="white" stroke-width="1.953" stroke-miterlimit="10" stroke-linecap="round"/>
<path d="M286.66 89.4359L294.674 84.7871" stroke="white" stroke-width="1.953" stroke-miterlimit="10" stroke-linecap="round"/>
<path d="M247.969 108.863L254.497 105.019" stroke="white" stroke-width="1.953" stroke-miterlimit="10" stroke-linecap="round"/>
<path d="M235.647 95.747C238.23 94.4675 239.675 92.1175 238.873 90.498C238.072 88.8785 235.328 88.603 232.744 89.8825C230.161 91.162 228.716 93.512 229.518 95.1315C230.319 96.751 233.063 97.0265 235.647 95.747Z" stroke="white" stroke-width="1.953" stroke-miterlimit="10"/>
<path d="M289.618 67.3779C292.201 66.0984 293.646 63.7483 292.844 62.1289C292.043 60.5094 289.299 60.2338 286.715 61.5133C284.131 62.7928 282.687 65.1429 283.488 66.7624C284.29 68.3818 287.034 68.6574 289.618 67.3779Z" stroke="white" stroke-width="1.953" stroke-miterlimit="10"/>
<path d="M300.823 85.4111C303.406 84.1316 304.851 81.7815 304.049 80.1621C303.248 78.5426 300.504 78.267 297.92 79.5465C295.337 80.826 293.892 83.1761 294.693 84.7956C295.495 86.415 298.239 86.6906 300.823 85.4111Z" stroke="white" stroke-width="1.953" stroke-miterlimit="10"/>
<path d="M244.741 114.126C247.324 112.846 248.769 110.496 247.967 108.877C247.166 107.257 244.422 106.982 241.838 108.261C239.255 109.541 237.81 111.891 238.611 113.51C239.413 115.13 242.157 115.405 244.741 114.126Z" stroke="white" stroke-width="1.953" stroke-miterlimit="10"/>
<path d="M306.748 172.816C306.83 171.248 307.307 169.094 308.056 166.667C308.111 166.463 308.179 166.258 308.247 166.04C308.969 163.709 309.896 161.146 310.877 158.583C311.164 157.86 311.463 157.138 311.736 156.429C312.036 155.693 312.322 154.957 312.622 154.234C315.13 148.14 317.555 142.987 317.787 142.51C317.814 142.482 317.814 142.469 317.814 142.469" stroke="white" stroke-width="1.953" stroke-miterlimit="10" stroke-linecap="round"/>
<path d="M291.799 169.639C293.816 158.91 295.356 149.994 297.059 146.545C297.618 145.454 298.177 144.909 298.777 145.059C301.243 145.618 302.047 154.888 302.075 155.311C302.075 155.324 302.075 155.324 302.075 155.324" stroke="white" stroke-width="1.953" stroke-miterlimit="10" stroke-linecap="round"/>
<path d="M320.5 166.422C321.168 167.472 321.863 168.508 322.544 169.544" stroke="white" stroke-width="1.953" stroke-miterlimit="10" stroke-linecap="round"/>
<path d="M434.856 321.593C432.226 318.293 429.46 314.79 426.584 311.122C398.455 275.431 359.001 223.858 327.342 176.742V176.729" stroke="white" stroke-width="1.953" stroke-miterlimit="10" stroke-linecap="round"/>
<path d="M308.63 147.867C294.047 124.404 282.777 103.382 277.625 87.7998" stroke="white" stroke-width="1.953" stroke-miterlimit="10" stroke-linecap="round"/>
<path d="M447.054 369.117C447.054 369.117 447.013 369.048 446.904 368.898" stroke="white" stroke-width="1.953" stroke-miterlimit="10" stroke-linecap="round"/>
<path d="M413.446 319.042C411.443 316.016 409.399 312.907 407.259 309.704C384.077 274.653 354.108 228.683 326.811 184.648" stroke="white" stroke-width="1.953" stroke-miterlimit="10" stroke-linecap="round"/>
<path d="M319.764 173.197C319.601 172.924 319.437 172.679 319.301 172.42" stroke="white" stroke-width="1.953" stroke-miterlimit="10" stroke-linecap="round"/>
<path d="M306.095 150.648C288.882 121.91 274.081 95.6528 264.678 75.9668" stroke="white" stroke-width="1.953" stroke-miterlimit="10" stroke-linecap="round"/>
<path d="M425.835 381.182C425.017 379.71 424.213 378.224 423.381 376.724C419.906 370.357 416.281 363.773 412.547 356.983" stroke="white" stroke-width="1.953" stroke-miterlimit="10" stroke-linecap="round"/>
<path d="M391.381 318.429C391.326 318.307 391.244 318.184 391.176 318.075C370.325 280.08 347.892 239.235 327.586 202.263V202.249" stroke="white" stroke-width="1.953" stroke-miterlimit="10" stroke-linecap="round"/>
<path d="M260.139 79.3887C260.139 79.3887 275.103 106.668 297.031 146.586" stroke="white" stroke-width="1.953" stroke-miterlimit="10" stroke-linecap="round"/>
<path d="M401.588 381.059C401.588 381.059 400.566 378.578 398.685 374.052C396.477 368.79 393.097 360.733 388.764 350.549" stroke="white" stroke-width="1.953" stroke-miterlimit="10" stroke-linecap="round"/>
<path d="M328.949 218.172C346.421 254.476 362.611 290.44 375.245 319.301" stroke="white" stroke-width="1.953" stroke-miterlimit="10" stroke-linecap="round"/>
<path d="M263.016 95.4072C273.428 111.712 284.385 130.962 295.397 151.643" stroke="white" stroke-width="1.953" stroke-miterlimit="10" stroke-linecap="round"/>
<path d="M392.744 56.1992C392.744 56.1992 417.616 95.6258 462.903 110.077" stroke="white" stroke-width="1.953" stroke-miterlimit="10" stroke-linecap="round"/>
<path d="M387.061 140.818C387.061 140.818 425.983 148.985 463.489 123.75" stroke="white" stroke-width="1.953" stroke-miterlimit="10" stroke-linecap="round"/>
<path d="M380.752 95.7617C380.752 95.7617 417.181 122.251 464.471 117.411" stroke="white" stroke-width="1.953" stroke-miterlimit="10" stroke-linecap="round"/>
<path d="M561.75 37.0723C561.75 37.0723 558.179 69.9277 551.828 79.4708" stroke="white" stroke-width="1.953" stroke-miterlimit="10" stroke-linecap="round"/>
<path d="M583.91 51.7822C583.91 51.7822 572.339 76.417 556.23 90.718" stroke="white" stroke-width="1.953" stroke-miterlimit="10" stroke-linecap="round"/>
<path d="M598.273 75.8574C598.273 75.8574 594.935 82.3876 560.932 98.9926" stroke="white" stroke-width="1.953" stroke-miterlimit="10" stroke-linecap="round"/>
<path d="M402.719 387.685C404.955 387.685 406.767 385.872 406.767 383.636C406.767 381.4 404.955 379.587 402.719 379.587C400.484 379.587 398.672 381.4 398.672 383.636C398.672 385.872 400.484 387.685 402.719 387.685Z" stroke="white" stroke-width="1.953" stroke-miterlimit="10"/>
<path d="M426.61 387.113C428.846 387.113 430.658 385.3 430.658 383.064C430.658 380.827 428.846 379.015 426.61 379.015C424.375 379.015 422.562 380.827 422.562 383.064C422.562 385.3 424.375 387.113 426.61 387.113Z" stroke="white" stroke-width="1.953" stroke-miterlimit="10"/>
<path d="M447.898 150.798C447.898 150.798 432.116 135.883 433.984 145.713C435.851 155.556 439.98 166.04 439.98 166.04" stroke="white" stroke-width="1.953" stroke-miterlimit="10" stroke-linecap="round"/>
<path d="M479.365 203.844C500.775 212.024 504.196 211.792 526.261 217.668C527.91 218.063 530.063 218.308 532.53 218.431" stroke="white" stroke-width="1.953" stroke-miterlimit="10" stroke-linecap="round"/>
<path d="M543.732 218.527C552.005 218.349 560.986 217.859 567.241 218.09C567.255 218.09 567.255 218.09 567.255 218.09C568.918 218.145 570.39 218.254 571.589 218.431C571.616 218.431 571.63 218.445 571.657 218.445C603.588 223.244 613.851 233.373 626.47 232.309C632.794 230.66 629.292 210.892 628.392 206.325C628.269 205.712 627.942 205.166 627.479 204.757C617.994 196.482 615.513 190.865 615.513 190.865" stroke="white" stroke-width="1.953" stroke-miterlimit="10" stroke-linecap="round"/>
<path d="M593.953 216.591C593.953 216.591 610.294 215.227 620.351 219.086C620.351 219.086 626.838 213.36 623.731 202.508" stroke="white" stroke-width="1.953" stroke-miterlimit="10" stroke-linecap="round"/>
<path d="M615.514 190.865C615.514 190.865 616.345 179.85 615.827 176.864C615.364 174.233 607.364 160.859 597.824 175.133C597.143 176.155 595.753 176.387 594.758 175.651C575.637 161.35 557.702 192.201 591.773 203.885" stroke="white" stroke-width="1.953" stroke-miterlimit="10" stroke-linecap="round"/>
<path d="M611.808 185.616C611.808 185.616 608.373 170.47 606.425 183.312C605.13 191.888 612.271 196.414 612.271 196.414" stroke="white" stroke-width="1.953" stroke-miterlimit="10" stroke-linecap="round"/>
<path d="M590.055 195.787C583.909 188.412 583.078 181.909 591.146 185.167C599.2 188.426 599.977 195.119 600.59 198.214C600.89 204.976 591.772 203.872 591.772 203.872" stroke="white" stroke-width="1.953" stroke-miterlimit="10" stroke-linecap="round"/>
<path d="M907.199 320.088C899.009 323.81 879.097 332.004 863.275 331.663C842.832 331.213 836.522 314.267 814.226 302.107C799.208 293.913 788.264 295.645 780.837 299.898C772.414 304.697 767.235 312.045 767.413 312.427C769.62 317.185 787.133 318.193 787.133 318.193C787.133 318.643 784.762 338.698 793.974 344.791C793.974 344.791 805.218 350.272 792.707 352.535C821.286 377.661 855.098 368.104 868.14 362.923C869.598 362.351 869.367 360.197 867.813 359.979C863.711 359.379 859.186 358.274 854.594 356.898C888.651 356.052 904.31 331.813 909.203 322.188C909.857 320.893 908.521 319.489 907.199 320.088ZM796.087 329.672C794.574 315.849 784.544 311.418 784.544 311.418L794.206 299.162L794.315 309.032L808.093 308.759L803.051 321.302L811.828 328.064L796.087 329.672Z" fill="url(#paint3_linear)"/>
<path d="M771.215 336.435L771.228 336.448V336.462L771.201 336.435C769.157 335.59 766.336 336.176 765.068 334.894C763.801 333.626 765.041 331.186 764.414 329.646H764.428C765.981 330.273 768.421 329.032 769.688 330.3C770.956 331.568 770.37 334.39 771.215 336.435Z" fill="#00FFFF"/>
<path d="M738.699 519.334C763.162 522.279 777.131 512.504 777.131 512.504C777.377 512.736 779.571 514.522 782.079 515.789" stroke="white" stroke-width="1.953" stroke-miterlimit="10" stroke-linecap="round" stroke-linejoin="round"/>
<path d="M883.419 471.605C883.419 471.605 885.995 522.007 824.831 508.414C824.831 508.414 805.86 516.594 790.746 517.153" stroke="white" stroke-width="1.953" stroke-miterlimit="10" stroke-linecap="round" stroke-linejoin="round"/>
<path d="M704.75 506.465C716.457 514.822 728.518 518.121 738.698 519.334" stroke="white" stroke-width="1.953" stroke-miterlimit="10" stroke-linecap="round" stroke-linejoin="round"/>
<path d="M881.319 468.333C881.115 468.292 880.91 468.265 880.706 468.211C880.692 468.211 880.679 468.211 880.665 468.211C821.122 457.223 829.668 406.031 790.758 403.44C783.753 412.643 769.062 411.388 769.062 411.388C751.25 427.939 703.332 418.641 680.096 413.624" stroke="white" stroke-width="1.953" stroke-miterlimit="10" stroke-linecap="round" stroke-linejoin="round"/>
<path d="M883.418 471.632C883.418 471.619 883.418 471.619 883.418 471.619V471.605C883.228 469.71 882.478 468.674 881.32 468.333C881.142 468.279 880.965 468.238 880.774 468.224C880.747 468.224 880.706 468.224 880.665 468.21C879.098 468.088 876.945 468.919 874.424 470.378C861.708 477.74 839.753 501.066 837.095 497.508C833.007 492.055 827.555 479.785 804.387 496.144C800.149 499.13 791.018 506.969 777.812 504.12C763.011 502.225 746.33 482.511 746.33 464.148C746.33 461.817 739.816 440.781 705.813 423.862H705.799C698.835 420.222 692.293 417.632 687.278 415.887C684.266 414.851 681.8 414.101 680.123 413.638C680.11 413.624 680.11 413.624 680.096 413.624L680.123 413.638C680.11 413.624 680.11 413.624 680.096 413.624C647.361 413.965 672.791 467.652 684.457 485.238C689.445 492.763 697.799 500.889 697.854 500.93" stroke="white" stroke-width="1.953" stroke-miterlimit="10" stroke-linecap="round" stroke-linejoin="round"/>
<path d="M770.234 381.859C770.234 381.859 748.756 368.649 735.864 364.232C735.864 364.232 700.062 363.796 700.648 349.29C700.648 349.29 700.525 311.786 733.901 340.511C733.901 340.511 747.162 352.262 772.033 367.981C772.033 367.967 770.207 372.466 770.234 381.859Z" stroke="white" stroke-width="1.953" stroke-miterlimit="10" stroke-linecap="round" stroke-linejoin="round"/>
<path d="M759.454 359.733V359.72C755.583 345.46 747.556 315.767 750.568 301.18C751.154 298.371 752.912 295.972 755.392 294.554C757.082 293.586 759.345 292.359 761.839 291.173C761.879 291.146 761.934 291.132 761.975 291.118C763.147 290.56 764.346 290.014 765.586 289.51C765.995 289.346 766.418 289.183 766.84 289.019C773.736 286.388 780.741 285.324 781.9 291.159C782.322 293.163 782.036 295.985 780.823 299.83" stroke="white" stroke-width="1.953" stroke-miterlimit="10" stroke-linecap="round" stroke-linejoin="round"/>
<path d="M769.062 411.388C766.786 406.917 761.049 397.264 750.446 389.412V389.398C748.592 388.035 746.589 386.713 744.422 385.486C729.962 377.292 737.69 369.78 742.064 366.727" stroke="white" stroke-width="1.953" stroke-miterlimit="10" stroke-linecap="round" stroke-linejoin="round"/>
<path d="M746.031 368.608C747.353 372.03 749.207 378.424 750.447 389.399V389.412" stroke="white" stroke-width="1.953" stroke-miterlimit="10" stroke-linecap="round" stroke-linejoin="round"/>
<path d="M770.562 375.179C769.962 379.528 769.908 387.435 772.129 390.489C775.019 394.442 784.354 400.032 790.187 403.29" stroke="white" stroke-width="1.953" stroke-miterlimit="10" stroke-linecap="round" stroke-linejoin="round"/>
<path d="M765.587 289.66C765.764 286.156 772.306 281.357 775.114 279.449C775.795 278.985 775.727 277.949 775.005 277.581C769.976 274.977 762.534 281.971 762.534 281.971L760.695 278.781C760.231 277.963 759.018 277.935 758.569 278.767C756.879 281.916 761.444 290.737 761.444 290.737C761.444 290.737 761.69 290.928 762.058 291.173" stroke="white" stroke-width="1.953" stroke-miterlimit="10" stroke-linecap="round" stroke-linejoin="round"/>
<path d="M778.752 354.32C778.18 354.988 777.634 355.752 777.117 356.583C774.65 360.523 772.796 365.881 772.033 367.981" stroke="white" stroke-width="1.953" stroke-miterlimit="10" stroke-linecap="round" stroke-linejoin="round"/>
<path d="M770.521 351.594L761.826 361.314" stroke="white" stroke-width="1.953" stroke-miterlimit="10" stroke-linecap="round" stroke-linejoin="round"/>
<path d="M768.312 313.04C772.074 318.289 787.12 318.125 787.12 318.125C787.12 318.575 784.748 338.629 793.961 344.723C793.961 344.723 805.205 350.204 792.694 352.467" stroke="white" stroke-width="1.953" stroke-miterlimit="10" stroke-linecap="round" stroke-linejoin="round"/>
<path d="M778.234 328.077C778.234 328.077 781.587 327.641 782.364 330.995C783.141 334.348 784.135 334.335 784.135 334.335" stroke="white" stroke-width="1.953" stroke-miterlimit="10" stroke-linecap="round" stroke-linejoin="round"/>
<path d="M772.782 323.32C772.782 323.32 773.218 319.966 769.866 319.189C766.513 318.412 767.576 317.948 767.576 317.948" stroke="white" stroke-width="1.953" stroke-miterlimit="10" stroke-linecap="round" stroke-linejoin="round"/>
<path d="M771.228 336.448V336.462L771.201 336.435C769.157 335.59 766.336 336.176 765.068 334.894C763.801 333.626 765.041 331.186 764.414 329.646H764.428C765.981 330.273 768.421 329.032 769.688 330.3C770.956 331.568 770.37 334.39 771.215 336.435L771.228 336.448Z" fill="white"/>
<path d="M781.029 505.388L782.841 523.628L783.482 530.077C783.482 530.077 783.482 530.091 783.482 530.104V530.077C783.482 530.077 783.482 530.091 783.482 530.104C783.509 530.731 783.945 541.42 782.119 545.278C779.311 551.208 776.518 553.103 776.518 553.103C776.518 553.103 787.72 558.774 790.95 542.578C792.463 535.039 796.415 532.272 796.415 532.272C796.415 532.272 798.364 527.009 789.901 526.028L792.04 503.274" stroke="white" stroke-width="1.953" stroke-miterlimit="10" stroke-linecap="round" stroke-linejoin="round"/>
<path d="M746.329 464.148L703.686 503.52C704.163 504.938 704.544 505.552 704.749 506.465C705.062 507.828 704.476 511.823 699.584 511.905C697.757 511.823 695.89 511.291 691.529 514.645C682.821 521.298 674.657 517.535 675.434 516.131C681.717 512.927 690.494 502.811 697.853 500.93L737.43 449.043" stroke="white" stroke-width="1.953" stroke-miterlimit="10" stroke-linecap="round" stroke-linejoin="round"/>
<path d="M727.781 461.681C729.021 464.598 731.965 469.111 738.67 471.115" stroke="white" stroke-width="1.953" stroke-miterlimit="10" stroke-linecap="round" stroke-linejoin="round"/>
<path d="M703.919 334.921C703.919 334.921 698.672 334.117 693.371 334.921C691.299 335.235 682.413 337.375 680.901 341.41C680.574 342.296 693.357 340.047 693.357 340.047C693.357 340.047 688.696 345.118 689.269 345.8C689.596 346.086 701.221 340.865 701.221 340.865" stroke="white" stroke-width="1.953" stroke-miterlimit="10" stroke-linecap="round" stroke-linejoin="round"/>
<path d="M792.693 352.467C788.618 353.939 783.739 354.961 778.751 354.321C777.021 354.102 775.276 353.694 773.545 353.025C772.523 352.644 771.515 352.167 770.506 351.594C767.14 349.672 763.896 346.672 760.994 342.215C752.435 329.086 757.178 320.865 763.46 316.039C765.041 314.826 766.717 313.817 768.312 313.04L768.326 313.026" stroke="white" stroke-width="1.953" stroke-miterlimit="10" stroke-linecap="round" stroke-linejoin="round"/>
<defs>
<linearGradient id="paint0_linear" x1="676.952" y1="295.371" x2="152.987" y2="138.537" gradientUnits="userSpaceOnUse">
<stop stop-color="#3FFFD8"/>
<stop offset="0.4888" stop-color="#B9C3FC"/>
<stop offset="1" stop-color="#FF7EA7"/>
</linearGradient>
<linearGradient id="paint1_linear" x1="682.616" y1="276.45" x2="158.651" y2="119.616" gradientUnits="userSpaceOnUse">
<stop stop-color="#3FFFD8"/>
<stop offset="0.4888" stop-color="#B9C3FC"/>
<stop offset="1" stop-color="#FF7EA7"/>
</linearGradient>
<linearGradient id="paint2_linear" x1="658.477" y1="357.097" x2="134.511" y2="200.263" gradientUnits="userSpaceOnUse">
<stop stop-color="#3FFFD8"/>
<stop offset="0.4888" stop-color="#B9C3FC"/>
<stop offset="1" stop-color="#FF7EA7"/>
</linearGradient>
<linearGradient id="paint3_linear" x1="767.398" y1="332.715" x2="909.367" y2="332.715" gradientUnits="userSpaceOnUse">
<stop stop-color="#3FFFD8"/>
<stop offset="0.4888" stop-color="#B9C3FC"/>
<stop offset="1" stop-color="#FF7EA7"/>
</linearGradient>
</defs>
</svg>
