<svg width="500" height="525" fill="none" xmlns="http://www.w3.org/2000/svg">
  <g clip-path="url(#a)">
    <mask id="b" style="mask-type:alpha" maskUnits="userSpaceOnUse" x="46" y="0" width="398" height="526">
      <path d="M46.6647.939H418.166l25.564 524.513-397.0663-64.611.001-459.902Z" fill="#C4C4C4"/>
    </mask>
    <g clip-path="url(#c)" mask="url(#b)">
      <path d="M208.905 155.144c-1.13 3.63.579 9.675 2.824 17.034 3.826 11.933 17.028 33.368 17.028 33.368l8.175 10.161 2.668 2.057s13.173 12.004 13.879 12.862c.706.857.819 2.029 1.059 2.329 1.906 2.472 3.911 9.231 4.886 16.491 1.708 12.661 2.357 17.148 1.849 18.949 2.937-2.601 4.236-8.474 14.811-15.362 6.863-5.999 15.272-9.895 24.243-11.232 4.081-2.415 6.438-3.444 10.406-3.459l3.883-.6s-5.45-26.051-6.424-29.581c-.551-2-5.549-21.507-5.549-21.507l-10.449-1.557-.536 4.916 4.829 11.618s6.918 24.164-12.214 24.293c-.593 0-10.292-.457-14.938-3.087-2.245-1.271-12.439-5.916-20.67-14.29-15.291-15.719-24.271-28.338-33.887-48.13l-2.47-7.502-3.403 2.229Z" fill="url(#d)"/>
      <path d="M295.455 259.649s3.233-1.543 7.695-3.201c4.236-1.572 10.801-3.187 13.089-4.001l.451 8.974c-5.167-.429-21.235-1-21.235-1.772Z" fill="url(#e)"/>
      <path d="m351.538 547.298-34.988 6.388-23.014 6.345-22.323 7.774-23.494 3.33s-23.706 1.643-50.152 1.429c-32.178-.286-68.323-2.501-69.608-3.116-2.358-1.114-.635-21.163-.805-23.064-.084-.915 13.837 3.401 28.733 6.059 16.209 2.858 33.519 4.201 33.519 4.201l26.107.972 23.212-1.429s3.855-1.429 6.876-21.164c1.821-11.875 4.575-29.552 7.328-48.415 3.53-24.165 6.227-52.874 9.163-80.698 3.248-30.752 6.608-60.433 8.048-82.883l.099-1.515c5.853-1.176 11.337-3.77 15.983-7.56 2.217-1.757 11.07-9.903 18.595-7.359.537.171 7.3-.415 10.42-4.473 1.327-1.743.353-4.844.48-7.145.006-.586.184-1.156.511-1.64.327-.483.788-.858 1.325-1.075l15.107 249.108 18.878 5.93Z" fill="url(#f)"/>
      <path d="M388.009 195.086s10.236 8.731 22.379 189.275c1.623 24.293 20.557 131.47-5.987 173.212 0 .386-2.132-21.164-31.147-26.351M190.577 94.44s-7.977-31.9245-8.076-36.7832c-.184-12.4612 8.217-23.6933 11.126-27.3945 4.871-6.202 28.013-26.8229 46.932-27.0944 23.283-.343 56.647 9.4602 65.302 25.3653.847 1.5719 6.071 11.7466 6.071 15.0762M307.697 78.5483c-2.261 1.3699-4.166 3.2654-5.558 5.5294-1.393 2.264-2.232 4.8313-2.448 7.4891-.169 2.4762.558 4.9301 2.048 6.9022a87.5218 87.5218 0 0 1 9.022 11.575c2.118 3.258 5.323 6.659 5.803 7.403 1.652 2.543 1.977 5.144-.41 7.302-1.482 1.329-5.393 4.13-12.707 3.115-3.869-.543-8.994 4.93-12.524.929-.663-.743-.805-3.687.946-6.859.348-.724.896-1.33 1.578-1.743a4.0544 4.0544 0 0 1 2.263-.587" stroke="#fff" stroke-width="2" stroke-linecap="round" stroke-linejoin="round"/>
      <path d="M319.459 67.3876s-7.554.6002-11.535 5.0444c-1.723 1.9864-2.09 2.8581-1.328 4.0442.434.6546.808 1.3483 1.116 2.0721.169.4859 13.06-5.5589 13.06-5.5589M321.646 138.182c-.296 3.215-.988 3.344-3.826 4.944-1.144.643-1.991.786-3.389 1.429-2.979 1.429-2.584 2.501-12.354 2.944-.282 0-10.293 2.244-14.119 2.301-3.205 0-5.295-.086-6.142-.157-.379-.035-.761.019-1.116.157-1.182.455-2.218 1.232-2.993 2.243M296.697 156.345c5.719 2.543 16.252 2 18.85-1.744" stroke="#fff" stroke-width="2" stroke-linecap="round" stroke-linejoin="round"/>
      <path d="M271.072 101.97a6.5554 6.5554 0 0 1 .72-3.058 24.917 24.917 0 0 0-5.986 3.973c-.339.271-1.525 1.243-1.116 1.429 1.383.609 2.797 1.143 4.236 1.6 1.247.192 2.509.274 3.77.243-1.065-1.125-1.648-2.629-1.624-4.187ZM281.449 101.341c-.608-.5-1.412-1.143-2.076-1.6716a6.653 6.653 0 0 1 .409 2.1726 6.7745 6.7745 0 0 1-.367 2.172l1.949-1.258a.8594.8594 0 0 0 .282-.293c.07-.12.111-.254.119-.392a.8736.8736 0 0 0-.071-.404.8755.8755 0 0 0-.245-.326Z" fill="#fff"/>
      <path d="M285.573 82.5639a2.7203 2.7203 0 0 0-.01-1.1641 2.7141 2.7141 0 0 0-.492-1.0518 2.676 2.676 0 0 0-.885-.7441 2.6437 2.6437 0 0 0-1.112-.2982c-6.17-.343-19.301-.9717-20.176-.2429-1.144.9717-5.013 8.5027-5.832 10.9463 3.598-1.9012 7.524-3.0804 11.564-3.4725 4.462-.3287 10.759-.5859 14.021-.7145a2.807 2.807 0 0 0 1.659-.6411c.47-.3887.804-.9206.953-1.5168l.31-1.1003ZM262.982 98.6405c3.446-3.444 9.404-7.4167 16.393-6.0019 4.998 1.0003 6.382 6.9879 8.217 6.9593h.156M308.982 85.6077c1.875-2.0219 4.249-3.5017 6.877-4.287 3.134-.7003 5.379 2.3864 4.814 4.187a1.1207 1.1207 0 0 0 0 .4001M204.683 90.8094c-.48-.1858-8.782-4.9016-13.244 1.429a9.5532 9.5532 0 0 0-1.115 3.2725c-1.168 5.0011-.363 10.2661 2.245 14.6761 3.629 6.259 9.234 16.763 13.399 19.206 3.191 2.015 4.73 3.516 10.491 4.359 2.733.143 5.42.776 7.935 1.872" stroke="#fff" stroke-width="2" stroke-linecap="round" stroke-linejoin="round"/>
      <path d="M218.746 120.776a16.2173 16.2173 0 0 1-3.77-3.315c-.73-.915-1.133-2.053-1.144-3.23 0-1.429.932-1.243 1.215-3.258 0 0-1.243-7.717-3.982-10.175-4.391-3.9723-7.342-3.8437-12.143-2.8577-4.8.9861-3.162 9.3457-3.162 9.3457" stroke="#fff" stroke-width="2" stroke-linecap="round" stroke-linejoin="round"/>
      <path d="M207.917 104.085c-.311.157-8.655 1.429-6.17 7.774 1.595 4.058 4.235 7.245 7.299 7.974a8.57 8.57 0 0 1 3.615 1.758c.565.471 1.241.786 1.962.914 1.593.284 3.201.475 4.815.572M235.746 44.7233s-1.143 22.3214 0 28.2662c-2.605 1.416-4.852 3.4216-6.567 5.8606-1.714 2.439-2.849 5.2455-3.316 8.201-1.596 9.8603-1.158 24.2939 2.033 28.0089.381.457.141.443-.339.229a5.6399 5.6399 0 0 1-1.971-1.483 5.7297 5.7297 0 0 1-1.163-2.19c-1.384-4.855-3.529-9.453-6.354-13.6185-1.779-2.6152-3.219-4.2871-9.022-3.5583-1.699-2.2545-4.079-3.8853-6.777-4.6444" stroke="#fff" stroke-width="2" stroke-linecap="round" stroke-linejoin="round"/>
      <path d="M218.746 120.776c4.71 15.675 12.967 30.021 24.116 41.899 10.279 10.847 31.175 17.606 51.479 22.193 9.883 2.229 25.781 1.929 27.617-11.032.861-6.145-.537-14.519.085-21.436.196-2.882.593-5.747 1.186-8.574 3.261-12.218 5.421-25.994-1.511-48.8439-.41-2.5294-1.581-7.631-.946-10.4605.734-3.2582 2.457-6.0305.607-11.3608-.339-.986-1.412-3.644-3.487-11.0178-1.977-6.9879-4.095-28.9235-30.202-41.8991" stroke="#fff" stroke-width="2" stroke-linecap="round" stroke-linejoin="round"/>
      <path d="M310.875 90.0234a6.4768 6.4768 0 0 1 .635-2.9724l-.48.2715c-1.835 1.2433-4.235 4.5729-5.647 6.1163a.4598.4598 0 0 0-.106.2304.4627.4627 0 0 0 .032.252.4523.4523 0 0 0 .398.275c1.412.1143 3.7 0 4.504 0a11.8127 11.8127 0 0 0 2.161-.2287c-.962-1.0834-1.495-2.4878-1.497-3.9441Z" fill="#fff"/>
      <path d="M322.465 165.005c.409.171 54.204 15.79 64.779 28.709 10.575 12.918-4.532 226.529-4.532 226.529s-5.648 126.227-23.791 141.303c0 0 24.511 20.306 24.977 21.164.466.857-38.715 170.754-53.06 236.847M212.349 152.415c-.381 0-16.83 12.732-31.063 17.463-90.0241 29.952-84.9129 61.605-86.7626 66.378M292.123 184.411s-2.245 20.321-3.402 30.681" stroke="#fff" stroke-width="2" stroke-linecap="round" stroke-linejoin="round"/>
      <path d="M215.286 133.566c.311 6.831-2.936 16.191-2.936 18.849 0 4.616 32.94 73.909 71.923 73.423 23.156-.285 11.027-30.995 7.3-36.511" stroke="#fff" stroke-width="2" stroke-linecap="round" stroke-linejoin="round"/>
      <path d="M261.767 267.066c-.974-8.074-2.118-18.206-3.219-24.565-1.254-7.332-5.223-13.904-11.098-18.378-8.517-6.236-15.717-14.131-21.179-23.221-14.768-25.251-19.216-39.113-17.225-46.329M240.687 344.504c-25.076 38.241-46.269 53.346-53.526 60.491-2.824 2.786-22.788 14.919-30.356 18.106-9.884 4.172-14.275 5.559-19.301 5.716-2.358.071-13.174 2.858-26.672-1.115-13.4978-3.973-18.976-31.281-19.4561-37.469-.48-6.188.4801-61.92 1.4119-66.693.9319-4.773 2.5839-31.739 1.892-40.827a322.7682 322.7682 0 0 1-.6353-41.442c.2182-4.096.8378-8.16 1.8496-12.132 3.5298-13.576 29.2979-35.726 56.2089-15.477 22.068 16.634 20.713 94.616 19.555 104.148-.255 3.165-.141 6.35.339 9.489 14.98-11.99 31.062-21.55 42.88-26.323-2.824 3.458-3.812 1.858-2.824 11.589 1.596 17.091 17.127 28.609 28.634 31.939Z" stroke="#fff" stroke-width="2" stroke-linecap="round" stroke-linejoin="round"/>
      <path d="M118.965 359.981c6.452-1.657 24.299-16.676 53.004-32.667M240.688 344.505l13.061-17.148c-4.712-.944-9.037-3.289-12.423-6.736-3.386-3.448-5.678-7.84-6.582-12.613-3.304-16.906.692-17.749.692-17.749l-20.6 10.732" stroke="#fff" stroke-width="2" stroke-linecap="round" stroke-linejoin="round"/>
      <path d="m234.615 291.045 17.565-14.19s12.283-11.59 14.641-16.434c1.638-3.358 12.821-10.946 22.944-16.591 5.012-.472 11.691-3.073 15.249-4.602a21.6265 21.6265 0 0 1 5.648-1.557c6.127-.843 19.555-2.501 26.149-1.858 4.97 2.458 4.729 9.132-.834 11.204-6.904.543-26.205 7.774-27.221 7.931-6.594 1.029-14.515 5.473-14.515 5.473l-6.396-3.801" stroke="#fff" stroke-width="2" stroke-linecap="round" stroke-linejoin="round"/>
      <path d="M294.227 260.421s18.609 0 26.954 1.7c.968.21 1.852.709 2.536 1.432.685.724 1.139 1.639 1.304 2.627 2.076 11.075-8.725 10.203-8.725 10.203l-22.069-.243 20.995 2.287c1.325.129 2.568.702 3.533 1.63.964.927 1.595 2.154 1.79 3.486a6.6356 6.6356 0 0 1-.811 4.658c-.833 1.398-2.149 2.432-3.693 2.901-3.769 1.429-24.482 1.301-24.482 1.301M253.986 327.114l5.648-4.287s12.792-1.029 17.183-2.858c2.612-1.086 18.355-12.247 20.473-13.333 2.118-1.086 20.388 1.9 19.061-9.575-.389-1.793-1.287-3.432-2.584-4.716M249.793 278.784l-.014.014-.339.272-.014.028-.07.057h-.014l-14.727 11.89" stroke="#fff" stroke-width="2" stroke-linecap="round" stroke-linejoin="round"/>
      <path d="M291.572 292.345s6.707 0 13.188-.185c4.913-.172 9.671-.5 11.295-1.115 1.546-.467 2.864-1.5 3.697-2.898.833-1.398 1.12-3.06.807-4.662-.208-1.323-.845-2.539-1.812-3.455-.966-.916-2.206-1.48-3.525-1.603l-11.295-1.201M303.109 260.592c6.052.094 12.09.604 18.073 1.529.967.212 1.85.711 2.535 1.434a5.04 5.04 0 0 1 1.305 2.625c2.076 11.075-8.725 10.203-8.725 10.203l-12.369-.128M313.812 292.345c1.302 1.288 2.204 2.932 2.598 4.731.79 6.773-5.295 8.502-10.83 9.002M314.545 237.056c-.183-3.501-9.601-42.356-11.973-50.187M316.648 253.161v8.26M270.238 321.555c-.254.185-20.303 233.289-31.514 234.632-48.5 5.83-115.524-8.26-116.272-14.005-2.513-19.048-.099-112.278-.099-112.278" stroke="#fff" stroke-width="2" stroke-linecap="round" stroke-linejoin="round"/>
      <path d="M289.907 150.371c.141.172 13.343 3.344 18.355 1.429 9.22-3.515 10.138-8.831 10.209-8.988.07-.157-9.63 4.015-10.886 4.287-1.257.271-8.797 1-8.797 1-1.313 1.1-11.733 1.429-11.747 2.158.056.329 2.866.114 2.866.114Z" fill="#fff"/>
      <path d="M317.51 291.602c.381 2.515 14.528 247.851 15.15 249.695l33.533 6.373s-55.955 4.516-86.128 17.377c-30.172 12.861-141.828 5.645-152.954 4.287v-24.008M325.29 270.195c-.198.586-4.702 10.79-4.702 10.79M320.588 285.7l-4.871 9.361M254.171 231.269s-52.849-5.488-53.653-71.166M303.801 137.053c0 1.843.409 2.058 1.143 2.501.802.509 1.757.712 2.694.574.937-.139 1.794-.611 2.418-1.332.889-1.057.635-1.429.522-1.743 0 0-2.457-.915-2.457-4.645M235.746 36.3062c5.069 5.2446 26.488 7.3024 26.488 7.3024s-6.283-6.2735-4.801-4.8302c2.711 2.658 14.021 5.116 13.343 4.673-3.078-2.0435-4.928-3.4011-4.928-3.4011a28.7231 28.7231 0 0 0 15.737-.2917c5.12-1.5607 9.714-4.5206 13.278-8.554a36.2366 36.2366 0 0 0-6.593-7.1452" stroke="#fff" stroke-width="2" stroke-linecap="round" stroke-linejoin="round"/>
    </g>
    <path d="m327.164 122.939 157.5 24.973-62.782 375.027-391.2179-63.435L95.5212 85.4393l93.6428 14.9997" stroke="url(#g)" stroke-width="3"/>
  </g>
  <defs>
    <linearGradient id="d" x1="208.558" y1="210.655" x2="314.609" y2="210.655" gradientUnits="userSpaceOnUse">
      <stop stop-color="#68FFE0"/>
      <stop offset=".5729" stop-color="#B9C3FC"/>
      <stop offset="1" stop-color="#FF7EA7"/>
    </linearGradient>
    <linearGradient id="e" x1="3460.16" y1="1903.18" x2="3523.81" y2="1752.57" gradientUnits="userSpaceOnUse">
      <stop stop-color="#3FFFD8"/>
      <stop offset=".58" stop-color="#B6C0F9"/>
      <stop offset=".96" stop-color="#F189B5"/>
      <stop offset="1" stop-color="#FF7EA7"/>
    </linearGradient>
    <linearGradient id="f" x1="126.729" y1="432.421" x2="351.524" y2="432.421" gradientUnits="userSpaceOnUse">
      <stop stop-color="#68FFE0"/>
      <stop offset=".5729" stop-color="#B9C3FC"/>
      <stop offset="1" stop-color="#FF7EA7"/>
    </linearGradient>
    <linearGradient id="g" x1="30.7121" y1="304.189" x2="484.635" y2="304.189" gradientUnits="userSpaceOnUse">
      <stop offset=".0463" stop-color="#00FFCB"/>
      <stop offset=".5732" stop-color="#A597FD"/>
      <stop offset="1" stop-color="#FF598E"/>
    </linearGradient>
    <clipPath id="a">
      <path fill="#fff" d="M0 0h500v525H0z"/>
    </clipPath>
    <clipPath id="c">
      <path fill="#fff" transform="translate(90.7266 2.624)" d="M0 0h328.428v522.815H0z"/>
    </clipPath>
  </defs>
</svg>
