<svg width="1010" height="427" fill="none" xmlns="http://www.w3.org/2000/svg">
  <path d="M796.264 387.255s39.144-18.968 53.528-19.071c33.87-2.311 28.545 17.89 43.767 17.496 15.223-.377 33.87-17.598 52.124-17.496 18.253.103 7.637 14.072 35.206 17.496M556.999 424.489c31.833 4.999 74.556-21.947 148.409-20.645 33.099.582 85.463 14.346 172.09 20.337M254.559 28.7021 74.6259 262.191M254.559 28.7021 385.416 229.322M319.234 229.322 253.977 97.0249 129.284 263.664M254.559 1.876v265.108" stroke="#fff" stroke-width="1.953" stroke-miterlimit="10" stroke-linecap="round" stroke-linejoin="round"/>
  <path d="m461.465 129.375-15.873 99.377c-.172 1.13-48.785-.411-48.785-.411.017-.856.103-1.746.24-2.636l16.37-103.897c.137-.907.359-1.814.616-2.67.445-1.524 1.079-2.962 1.867-4.314 3.852-3.373 13.236-4.759 23.733-3.116 10.496 1.661 19.007 5.855 21.644 10.254.325 1.524.479 3.099.445 4.674-.034.907-.103 1.832-.257 2.739Z" fill="#202020"/>
  <path d="M462.098 125.438c-.068.428-.205.821-.377 1.198-2.243 4.674-12.962 6.882-25.222 4.948-12.243-1.935-21.764-7.327-22.466-12.463a5.1647 5.1647 0 0 1 0-1.267c.171-1.13.822-2.157 1.849-3.047 3.853-3.373 13.237-4.759 23.733-3.116 10.497 1.661 19.007 5.855 21.644 10.254.702 1.182 1.01 2.363.839 3.493ZM409.958 143.772a3.96 3.96 0 0 0 0 1.267c.702 5.136 10.223 10.529 22.466 12.463 12.26 1.934 22.98-.291 25.223-4.947.188-.394.308-.788.376-1.199M573.382 129.718l-16.49 99.035c-.274 1.746-48.185-.223-47.945-1.712l16.387-104.89c.137-.907.359-1.814.616-2.67.445-1.524 1.079-2.962 1.832-4.297l.018-.017c3.852-3.373 13.236-4.76 23.733-3.116 10.496 1.66 19.007 5.855 21.644 10.254l.017.017c.325 1.507.462 3.065.428 4.657-.017.907-.086 1.832-.24 2.739Z" fill="#202020"/>
  <path d="M521.876 144.098c-.069.428-.069.839 0 1.267.702 5.136 10.223 10.528 22.466 12.463 12.26 1.934 22.98-.274 25.223-4.948.188-.393.308-.787.376-1.198M574.016 125.78c-.068.428-.205.822-.377 1.199-2.243 4.673-12.962 6.882-25.222 4.947-12.244-1.934-21.764-7.327-22.466-12.462a5.1647 5.1647 0 0 1 0-1.267c.171-1.13.822-2.14 1.832-3.048l.017-.017c3.853-3.372 13.236-4.759 23.733-3.115 10.497 1.66 19.007 5.854 21.644 10.254l.017.017c.685 1.199.993 2.363.822 3.492ZM1008.66 254.808c-1.71 10.768 0 52.59-42.791 53.96-9.761 0-22.466 56.835-22.466 81.179-452.435 20.166-933.6195-4.246-933.6195-4.246L.9992 260.954l303.3578 8.183v-38.382l563.72-4.451v30.883l23.973.565.565 14.74 21.695.582 1.336-15.647 93.014-2.619Z" fill="#202020"/>
  <path d="m461.787 128.575-15.873 99.377c-.171 1.13-48.785-.41-48.785-.41.017-.856.103-1.747.24-2.637l16.37-103.896c.137-.908.36-1.815.616-2.671.446-1.524 1.079-2.962 1.867-4.314 3.853-3.373 13.236-4.759 23.733-3.116 10.497 1.661 19.007 5.855 21.644 10.255.325 1.523.479 3.098.445 4.673-.034.908-.103 1.832-.257 2.739Z" stroke="#fff" stroke-width="1.953" stroke-miterlimit="10" stroke-linecap="round" stroke-linejoin="round"/>
  <path d="M462.42 124.638c-.068.428-.205.822-.376 1.198-2.243 4.674-12.963 6.882-25.223 4.948-12.243-1.935-21.764-7.327-22.466-12.463a5.2652 5.2652 0 0 1 0-1.267c.171-1.13.822-2.157 1.849-3.047 3.853-3.373 13.237-4.759 23.733-3.116 10.497 1.661 19.007 5.855 21.644 10.255.702 1.181 1.011 2.362.839 3.492ZM410.28 142.973c-.068.428-.068.838 0 1.266.702 5.136 10.223 10.529 22.466 12.463 12.261 1.935 22.98-.291 25.223-4.947.188-.394.308-.788.377-1.199M462.42 124.638l22.877 103.315M414.355 117.071 348.31 229.664M573.704 128.918l-16.489 99.035c-.274 1.746-48.186-.223-47.946-1.712l16.387-104.89c.137-.907.36-1.814.617-2.67.445-1.524 1.078-2.962 1.832-4.297l.017-.017c3.853-3.373 13.236-4.759 23.733-3.116 10.497 1.661 19.007 5.855 21.644 10.254l.017.018c.325 1.506.462 3.064.428 4.656-.017.907-.086 1.832-.24 2.739Z" stroke="#fff" stroke-width="1.953" stroke-miterlimit="10" stroke-linecap="round" stroke-linejoin="round"/>
  <path d="M522.198 143.298a3.96 3.96 0 0 0 0 1.267c.702 5.136 10.223 10.529 22.466 12.463 12.261 1.934 22.98-.274 25.223-4.947.188-.394.308-.788.377-1.199M574.338 124.981c-.068.428-.205.821-.376 1.198-2.244 4.674-12.963 6.882-25.223 4.947-12.243-1.934-21.764-7.327-22.466-12.462a5.2652 5.2652 0 0 1 0-1.267c.171-1.13.822-2.14 1.832-3.047l.017-.017c3.853-3.373 13.237-4.76 23.733-3.116 10.497 1.66 19.007 5.855 21.644 10.254l.017.017c.685 1.199.994 2.363.822 3.493ZM526.273 117.414l-62.055 110.008M574.339 124.981l14.093 102.972M762.473 114.794l-.017.018c-.77 1.335-1.387 2.773-1.832 4.297-.257.855-.462 1.763-.616 2.67l-16.37 103.897c12.209.548 41.318.548 48.048.548l16.37-96.895c.137-.908.223-1.832.24-2.739.034-1.592-.103-3.15-.428-4.657l-.018-.017" stroke="#fff" stroke-width="1.953" stroke-miterlimit="10" stroke-linecap="round" stroke-linejoin="round"/>
  <path d="M756.55 143.743c-.069.428-.069.839 0 1.267.702 5.136 10.223 10.528 22.466 12.463 12.26 1.934 22.979-.274 25.223-4.948.188-.393.308-.787.376-1.198M808.69 125.425c-.068.428-.205.822-.376 1.199-2.243 4.673-12.963 6.882-25.223 4.947-12.243-1.934-21.764-7.327-22.466-12.462a5.2652 5.2652 0 0 1 0-1.267c.171-1.13.822-2.14 1.832-3.048l.017-.017c3.853-3.372 13.237-4.759 23.733-3.115 10.497 1.66 19.007 5.854 21.644 10.254l.017.017c.703 1.199.994 2.346.822 3.492ZM760.625 117.859l-76.696 108.382M808.69 125.426l19.076 100.815M634.921 115.034l-.017.017c-.651 1.404-1.147 2.893-1.456 4.451-.188.873-.308 1.798-.376 2.722l-7.244 104.924c1.593.822 47.689 1.233 47.826-.89l7.945-100.678c.069-.925.052-1.849 0-2.739-.102-1.593-.376-3.133-.839-4.606l-.017-.017" stroke="#fff" stroke-width="1.953" stroke-miterlimit="10" stroke-linecap="round" stroke-linejoin="round"/>
  <path d="M681.874 121.591c-.035.428-.12.839-.274 1.232-1.833 4.845-12.312 7.995-24.692 7.139-12.363-.856-22.312-5.41-23.459-10.46-.086-.411-.137-.839-.103-1.267.085-1.147.633-2.208 1.558-3.184l.017-.017c3.545-3.698 12.757-5.889 23.374-5.17 10.616.736 19.452 4.177 22.466 8.337l.017.017c.77 1.096 1.181 2.226 1.096 3.373ZM631.548 144.376c-.034.428.018.839.103 1.267 1.147 5.05 11.096 9.604 23.459 10.46 12.38.856 22.86-2.277 24.692-7.139.154-.394.24-.804.274-1.232M1008.98 254.008c-1.71 10.768 0 52.59-42.789 53.96-9.76 0-22.466 56.836-22.466 81.179-452.434 20.167-933.6192-4.245-933.6192-4.245L1.3214 260.154l303.3586 8.183v-38.382l563.719-4.451v30.884l23.973.564.565 14.74 21.695.582 1.336-15.647 93.012-2.619ZM859.443 28.7021V223.279M304.68 268.337l609.576 3.989" stroke="#fff" stroke-width="1.953" stroke-miterlimit="10" stroke-linecap="round" stroke-linejoin="round"/>
  <path d="M6.3544 274.808c173.2886 10.255 846.8206 18.746 998.5356 3.39M853.18 258.495H314.357v-16.383H853.18v16.383ZM393.979 242.11v16.384M409.68 242.11v16.384M425.656 242.11v16.384M441.357 242.11v16.384M457.438 242.11v16.384M473.139 242.11v16.384M489.115 242.11v16.384M504.818 242.11v16.384M520.264 242.11v16.384M535.947 242.11v16.384M551.941 242.11v16.384M567.627 242.11v16.384M583.773 242.11v16.384M599.373 242.11v16.384M759.271 242.11v16.384M774.973 242.11v16.384M790.949 242.11v16.384M806.652 242.11v16.384M822.781 242.11v16.384M838.381 242.11v16.384M35.0542 375.469s54.8805-29.086 80.6688-28.024c25.685 1.061 29.572 24.532 45.085 26.672 5.429 0 44.521-12.72 74.196-15.014 22.226-1.729 20.206 13.644 27.963 15.014 7.757 1.369 31.421-7.259 46.233-8.731 16.866-1.678 9.264 12.856 21.13 13.13 11.867.257 17.432-3.646 37.672-9.809 29.092-5.975 15.171 11.983 21.113 11.521 5.942-.462 34.349-7.994 57.072-10.271 32.723-3.27 17.809 11.196 30.822 10.271 13.014-.924 41.61-7.875 53.648-9.518 18.527-2.534 17.706 14.209 22.825 15.219M941.637 254.282 859.444 44.8623 797.03 226.069" stroke="#fff" stroke-width="1.953" stroke-miterlimit="10" stroke-linecap="round" stroke-linejoin="round"/>
  <path d="m915.969 256.627-56.525-152.036-36.661 120.913" stroke="#fff" stroke-width="1.953" stroke-miterlimit="10" stroke-linecap="round" stroke-linejoin="round"/>
  <path d="M145.072 344.124c-1.787 0-3.236-1.449-3.236-3.236 0-1.787 1.449-3.235 3.236-3.235 1.788 0 3.237 1.448 3.237 3.235s-1.449 3.236-3.237 3.236ZM184.473 344.124c-1.788 0-3.237-1.449-3.237-3.236 0-1.787 1.449-3.235 3.237-3.235 1.787 0 3.236 1.448 3.236 3.235s-1.449 3.236-3.236 3.236ZM223.875 344.124c-1.787 0-3.236-1.449-3.236-3.236 0-1.787 1.449-3.235 3.236-3.235 1.787 0 3.236 1.448 3.236 3.235s-1.449 3.236-3.236 3.236ZM263.258 344.124c-1.788 0-3.237-1.449-3.237-3.236 0-1.787 1.449-3.235 3.237-3.235 1.787 0 3.236 1.448 3.236 3.235s-1.449 3.236-3.236 3.236ZM302.66 344.124c-1.787 0-3.236-1.449-3.236-3.236 0-1.787 1.449-3.235 3.236-3.235 1.788 0 3.236 1.448 3.236 3.235s-1.448 3.236-3.236 3.236ZM342.061 344.124c-1.788 0-3.237-1.449-3.237-3.236 0-1.787 1.449-3.235 3.237-3.235 1.787 0 3.236 1.448 3.236 3.235s-1.449 3.236-3.236 3.236ZM381.461 344.124c-1.787 0-3.236-1.449-3.236-3.236 0-1.787 1.449-3.235 3.236-3.235 1.787 0 3.236 1.448 3.236 3.235s-1.449 3.236-3.236 3.236ZM420.846 344.124c-1.788 0-3.237-1.449-3.237-3.236 0-1.787 1.449-3.235 3.237-3.235 1.787 0 3.236 1.448 3.236 3.235s-1.449 3.236-3.236 3.236ZM460.246 344.124c-1.787 0-3.236-1.449-3.236-3.236 0-1.787 1.449-3.235 3.236-3.235 1.787 0 3.236 1.448 3.236 3.235s-1.449 3.236-3.236 3.236ZM499.646 344.124c-1.787 0-3.236-1.449-3.236-3.236 0-1.787 1.449-3.235 3.236-3.235 1.788 0 3.237 1.448 3.237 3.235s-1.449 3.236-3.237 3.236ZM539.047 344.124c-1.788 0-3.236-1.449-3.236-3.236 0-1.787 1.448-3.235 3.236-3.235 1.787 0 3.236 1.448 3.236 3.235s-1.449 3.236-3.236 3.236ZM578.432 344.124c-1.788 0-3.237-1.449-3.237-3.236 0-1.787 1.449-3.235 3.237-3.235 1.787 0 3.236 1.448 3.236 3.235s-1.449 3.236-3.236 3.236ZM145.072 314.541c-1.787 0-3.236-1.448-3.236-3.235s1.449-3.236 3.236-3.236c1.788 0 3.237 1.449 3.237 3.236 0 1.787-1.449 3.235-3.237 3.235ZM184.473 314.541c-1.788 0-3.237-1.448-3.237-3.235s1.449-3.236 3.237-3.236c1.787 0 3.236 1.449 3.236 3.236 0 1.787-1.449 3.235-3.236 3.235ZM223.875 314.541c-1.787 0-3.236-1.448-3.236-3.235s1.449-3.236 3.236-3.236c1.787 0 3.236 1.449 3.236 3.236 0 1.787-1.449 3.235-3.236 3.235ZM263.258 314.541c-1.788 0-3.237-1.448-3.237-3.235s1.449-3.236 3.237-3.236c1.787 0 3.236 1.449 3.236 3.236 0 1.787-1.449 3.235-3.236 3.235ZM302.66 314.541c-1.787 0-3.236-1.448-3.236-3.235s1.449-3.236 3.236-3.236c1.788 0 3.236 1.449 3.236 3.236 0 1.787-1.448 3.235-3.236 3.235ZM342.061 314.541c-1.788 0-3.237-1.448-3.237-3.235s1.449-3.236 3.237-3.236c1.787 0 3.236 1.449 3.236 3.236 0 1.787-1.449 3.235-3.236 3.235ZM381.461 314.541c-1.787 0-3.236-1.448-3.236-3.235s1.449-3.236 3.236-3.236c1.787 0 3.236 1.449 3.236 3.236 0 1.787-1.449 3.235-3.236 3.235ZM420.846 314.541c-1.788 0-3.237-1.448-3.237-3.235s1.449-3.236 3.237-3.236c1.787 0 3.236 1.449 3.236 3.236 0 1.787-1.449 3.235-3.236 3.235ZM460.246 314.541c-1.787 0-3.236-1.448-3.236-3.235s1.449-3.236 3.236-3.236c1.787 0 3.236 1.449 3.236 3.236 0 1.787-1.449 3.235-3.236 3.235ZM499.646 314.541c-1.787 0-3.236-1.448-3.236-3.235s1.449-3.236 3.236-3.236c1.788 0 3.237 1.449 3.237 3.236 0 1.787-1.449 3.235-3.237 3.235ZM539.047 314.541c-1.788 0-3.236-1.448-3.236-3.235s1.448-3.236 3.236-3.236c1.787 0 3.236 1.449 3.236 3.236 0 1.787-1.449 3.235-3.236 3.235ZM578.432 314.541c-1.788 0-3.237-1.448-3.237-3.235s1.449-3.236 3.237-3.236c1.787 0 3.236 1.449 3.236 3.236 0 1.787-1.449 3.235-3.236 3.235Z" fill="#fff" stroke="#fff" stroke-width="1.953" stroke-miterlimit="10" stroke-linecap="round" stroke-linejoin="round"/>
</svg>
