<svg width="18" height="18" fill="none" xmlns="http://www.w3.org/2000/svg">
  <path d="M13.2463 0H4.7537C2.088 0 0 2.088 0 4.7537v8.4926C0 15.912 2.088 18 4.7537 18h8.4926C15.912 18 18 15.912 18 13.2463V4.7537C18 2.088 15.9114 0 13.2463 0Zm3.5924 13.2463c0 2.0148-1.5782 3.5924-3.5924 3.5924H4.7537c-2.0142 0-3.5924-1.5782-3.5924-3.5924V4.7537c0-2.0142 1.5782-3.5924 3.5924-3.5924h8.4926c2.0148 0 3.5924 1.5782 3.5924 3.5924v8.4926Z" fill="#000"/>
  <path d="M14.6607 4.596a.5806.5806 0 0 0-.6352-.032c-.1986.1167-.6387.1742-.9917.2207-.0732.0098-.1452.0191-.2149.029a2.7897 2.7897 0 0 0-1.7762-.6399c-1.4661 0-2.6692 1.1346-2.7546 2.5618-1.3296-.224-2.5472-.9174-3.41-1.959-.1284-.1557-.3276-.2317-.5285-.2056a.5797.5797 0 0 0-.4511.342c-.0372.0848-.3612.882-.3612 2.8539 0 1.7076 1.3477 2.9624 2.272 3.6226-.6322.2874-1.361.3931-2.053.3165a.5818.5818 0 0 0-.6132.3849.5812.5812 0 0 0 .238.6834c1.0916.6887 2.3534 1.0528 3.6494 1.0528 4.162 0 6.6809-3.2697 6.7744-6.4934.1196-.1736.3478-.5116.7333-1.1044.1545-.2386.2839-.753.3472-1.0382a.58.58 0 0 0-.2247-.5951Zm-1.9033 2.2099a.5821.5821 0 0 0-.1103.3402c0 2.2919-1.7426 5.5197-5.616 5.5197-.3502 0-.6974-.032-1.0377-.0947a4.9841 4.9841 0 0 0 1.2775-.7153.5812.5812 0 0 0 .2235-.5145.5798.5798 0 0 0-.3159-.4633c-.025-.0128-2.4793-1.3036-2.4793-3.1106 0-.6056.0325-1.0817.0755-1.444a6.8367 6.8367 0 0 0 4.1167 1.6438.352.352 0 0 0 .0349.0006c.338-.01.5864-.2578.5864-.5807a.575.575 0 0 0-.0458-.2259 1.5955 1.5955 0 0 1-.0221-.2624c0-.8623.7165-1.5637 1.5979-1.5637.4425 0 .8681.1812 1.1683.4965a.5824.5824 0 0 0 .5307.1695c.1318-.025.2839-.0447.4436-.0656.0569-.0075.1144-.015.173-.0232-.436.6642-.5934.8831-.6009.8936Z" fill="#000"/>
</svg>
