<svg width="18" height="17" fill="none" xmlns="http://www.w3.org/2000/svg">
  <path d="M17.866.1762a.528.528 0 0 0-.605-.1322L.3158 7.462a.5277.5277 0 0 0-.3157.4714.5275.5275 0 0 0 .2946.4848l4.0461 1.9898 1.0083 6.0489a.5273.5273 0 0 0 .9004.2929l3.1942-3.1943 4.5584 3.2562a.5277.5277 0 0 0 .8237-.3259L17.9898.6304a.5257.5257 0 0 0-.1238-.4542ZM4.7585 9.438 1.779 7.9727 13.55 2.82 4.7585 9.438Zm1.6502 1.5676-.4904 2.4522-.5291-3.1746 6.4676-4.8688-5.3043 5.3223a.5353.5353 0 0 0-.1438.2689Zm.321 3.7723.5533-2.7657 1.2906.9218-1.844 1.8439Zm7.2214.701L7.738 11.0412l8.8758-8.9054-2.6627 13.3431Z" fill="#000"/>
</svg>
