<svg width="18" height="18" fill="none" xmlns="http://www.w3.org/2000/svg">
  <path d="M13.2463 0H4.7537C2.088 0 0 2.088 0 4.7537v8.4926C0 15.912 2.088 18 4.7537 18h8.4926C15.912 18 18 15.912 18 13.2463V4.7537C18 2.088 15.9114 0 13.2463 0Zm3.5924 13.2463c0 2.0148-1.5782 3.5924-3.5924 3.5924H4.7537c-2.0142 0-3.5924-1.5782-3.5924-3.5924V4.7537c0-2.0142 1.5782-3.5924 3.5924-3.5924h8.4926c2.0148 0 3.5924 1.5782 3.5924 3.5924v8.4926Z" fill="#000"/>
  <path d="m12.0013 5.8972-.0029.007-.0001.0001v.0003l-.0011.0025-.0049.0118a9.764 9.764 0 0 1-.1049.2384 12.6522 12.6522 0 0 1-.3197.6494c-.2651.5016-.6243 1.0977-1.0328 1.5684V6.1953c0-.1883-.0205-.4522-.1845-.6679-.1924-.2528-.4729-.3096-.6913-.3096H7.5964c-.4748 0-.837.3764-.837.8005 0 .2186.0862.3815.1613.4913.0348.0509.0727.0982.1.132l.0057.0072c.0277.0345.0495.0617.0716.0916.0728.099.1635.2454.1875.5703v1.5689c-.1017-.1298-.2134-.2888-.331-.4748-.3847-.6078-.7987-1.4482-1.105-2.3487l-.0027-.0079-.003-.0077c-.0681-.1805-.165-.4047-.3491-.572-.2103-.191-.462-.2483-.71-.2483H3.4733c-.255 0-.5292.0592-.7285.2686-.1967.2067-.2223.4584-.2223.6071 0 .1562.0427.3822.1119.6367.073.2687.1862.6082.3505 1.0054.3287.7945.865 1.8283 1.7019 2.9977 1.1591 1.6561 2.825 2.6108 4.41 2.6108.4172 0 .7913-.0392 1.0586-.217.347-.2308.3795-.5836.3795-.7896v-1.0743c.0099.0053.0204.0111.0315.0175.1535.0881.3958.2671.7689.626.2122.2122.3809.3961.5244.5553l.0796.0886c.1096.1222.2129.2374.3071.3322.1185.1194.2534.2392.4172.326.1749.0926.3586.1353.5587.1353h1.3113c.2493 0 .5684-.0592.7868-.3125.2356-.2732.2248-.6154.1424-.8858l.0001-.0001-.0038-.0114c-.0865-.2613-.262-.5385-.4595-.8062-.2031-.2754-.4594-.5797-.7423-.9006-.1648-.1939-.3628-.3879-.523-.5449l-.022-.0215a9.4753 9.4753 0 0 1-.2181-.2184 1.8162 1.8162 0 0 1-.0697-.0767.6509.6509 0 0 1-.02-.0245l-.0053-.007-.0017-.0025-.0104-.0158a3.0057 3.0057 0 0 0 .0117-.018l.0407-.0625a37.0591 37.0591 0 0 0 .7792-1.1738c.2128-.3347.435-.6997.6157-1.034.1672-.3094.3272-.6429.3877-.9116.0541-.1905.0941-.491-.0942-.7567-.2006-.2831-.5288-.3442-.7833-.3442h-1.3114c-.2618 0-.4946.071-.6843.2162-.1828.1398-.2856.318-.3476.4632Zm-1.4625 2.9544-.0002-.0009.0002.0009Zm-3.266.5763.0002-.0012-.0003.0012Zm.3617-.1895a.0265.0265 0 0 1 .0047.0024.0248.0248 0 0 1-.0047-.0024Z" stroke="#000"/>
</svg>
