<svg width="140" height="144" viewBox="0 0 140 144" fill="none" xmlns="http://www.w3.org/2000/svg">
<g clip-path="url(#clip0)">
<path d="M110.115 72.2038C110.029 71.3883 110.208 70.7988 110.507 70.3732C111.227 69.3367 112.639 69.2559 112.639 69.2559C112.639 69.2559 113.959 69.9976 114.886 71.2433C115.385 71.9161 115.77 72.7339 115.77 73.6611" stroke="white" stroke-width="0.6" stroke-miterlimit="10" stroke-linecap="round" stroke-linejoin="round"/>
<path d="M110.044 81.2549C110.533 81.5782 111.275 81.8516 112.043 81.98" stroke="white" stroke-width="0.6" stroke-miterlimit="10" stroke-linecap="round" stroke-linejoin="round"/>
<path d="M119.519 77.3911C120.011 77.529 120.47 77.6598 120.9 77.7929C123.28 78.5322 124.385 80.8692 124.409 83.3583C124.551 98.212 124.975 109.214 124.975 109.214C124.975 109.214 115.799 124.142 105.059 120.97C104.638 118.719 102.777 107.441 104.823 98.6447" stroke="white" stroke-width="0.6" stroke-miterlimit="10" stroke-linecap="round" stroke-linejoin="round"/>
<path d="M107.988 90.6285C108.705 89.3994 109.542 88.1846 110.514 87.0007C111.858 85.1986 112.975 83.4727 113.883 81.9393C115.659 78.9319 116.136 78.2116 116.443 77.71" stroke="white" stroke-width="0.6" stroke-miterlimit="10" stroke-linecap="round" stroke-linejoin="round"/>
<path d="M114.206 85.8381C113.762 85.0869 113.51 84.2928 114.078 84.2738C114.556 84.2548 115.342 84.0955 116.089 83.8696" stroke="white" stroke-width="0.6" stroke-miterlimit="10" stroke-linecap="round" stroke-linejoin="round"/>
<path d="M116.443 77.7102L117.225 76.1388L117.746 75.019" stroke="white" stroke-width="0.6" stroke-miterlimit="10" stroke-linecap="round" stroke-linejoin="round"/>
<path d="M117.746 75.019L119.519 77.3916V77.394C119.519 77.394 119.457 78.2808 119.089 79.4362" stroke="white" stroke-width="0.6" stroke-miterlimit="10" stroke-linecap="round" stroke-linejoin="round"/>
<path d="M122.402 78.5846C118.527 78.0735 118.328 80.931 116.089 83.8695C114.577 85.8546 107.367 92.1284 103.518 92.4612C101.628 92.8416 101.983 93.9162 101.983 93.9162C101.983 93.9162 100.632 94.8243 99.3938 94.8124C100.468 95.1619 102.463 96.8997 101.79 99.6979C101.892 100.254 104.818 98.64 104.818 98.64C104.818 98.64 105.415 99.4055 106.442 98.9324C107.469 98.4593 113.124 101.883 117.215 95.5042C119.516 91.9168 119.901 88.7811 121.38 89.209" stroke="white" stroke-width="0.6" stroke-miterlimit="10" stroke-linecap="round" stroke-linejoin="round"/>
<path d="M109.746 75.7104C108.653 75.9791 107.469 76.4308 105.867 77.2605C103.592 78.442 97.0477 85.2555 94.8845 85.5836C94.7394 85.5836 94.3234 84.9227 95.3052 82.9638C95.8424 81.5825 94.1594 80.8598 94.1594 80.8598C94.1594 80.8598 94.4375 79.0601 95.2149 78.0949C95.3385 77.9428 95.2291 77.7169 95.0318 77.7264C93.9288 77.7906 92.1127 77.8929 91.1357 77.0917C91.0026 76.9823 90.8029 77.0537 90.7767 77.2248C90.6056 78.3945 90.3298 79.8756 89.997 80.1799C89.6238 80.5246 88.5945 80.7172 88.6872 83.0565C88.7728 85.1866 88.2807 89.3089 88.3829 91.3582" stroke="white" stroke-width="0.6" stroke-miterlimit="10" stroke-linecap="round" stroke-linejoin="round"/>
<path d="M90.803 92.495C91.8775 92.8017 107.422 82.3746 112.297 74.9834" stroke="white" stroke-width="0.6" stroke-miterlimit="10" stroke-linecap="round" stroke-linejoin="round"/>
<path d="M103.975 114.599C103.193 115.329 101.579 116.339 99.5652 117.11" stroke="white" stroke-width="0.6" stroke-miterlimit="10" stroke-linecap="round" stroke-linejoin="round"/>
<path d="M85.3594 113.102C87.8245 116.207 92.3102 118.035 96.1754 118.035" stroke="white" stroke-width="0.6" stroke-miterlimit="10" stroke-linecap="round" stroke-linejoin="round"/>
<path d="M92.9732 75.7106C92.9732 75.7106 91.7823 74.6836 89.7356 74.6004C89.6999 74.2771 91.9107 73.6661 93.684 73.9704C93.9764 73.609 93.0969 71.8593 92.1032 71.1128C92.0343 71.0581 91.9606 71.0106 91.8821 70.9678C90.6674 70.3021 89.3077 71.2982 89.883 70.8632C90.173 70.4043 90.5533 69.9099 90.9455 69.4368C91.0073 69.3583 91.0715 69.2799 91.1381 69.2038C91.3806 68.9114 91.6254 68.6285 91.8489 68.3693C92.0604 68.1245 91.7443 67.4897 91.207 67.832C90.9646 67.9866 90.6627 68.1577 90.3322 68.3646C89.5288 68.8638 88.5684 69.5556 87.9384 70.6611C87.9194 70.692 87.9004 70.7229 87.8838 70.7562C86.7832 72.7746 88.1809 75.0664 88.9701 75.7106C89.4765 76.1243 90.4368 76.6948 91.0596 77.0491C91.0858 77.0633 91.1119 77.0776 91.1357 77.0919C91.1381 77.0919 91.1381 77.0942 91.1405 77.0942C91.4447 77.2678 91.6492 77.3771 91.6492 77.3771" stroke="white" stroke-width="0.6" stroke-miterlimit="10" stroke-linecap="round" stroke-linejoin="round"/>
<path d="M92.9731 71.084C94.9272 73.0001 95.5738 76.4663 95.0318 77.7263" stroke="white" stroke-width="0.6" stroke-miterlimit="10"/>
<path d="M93.1158 93.5783C91.6658 92.8627 89.8568 92.0306 88.3829 91.3578C86.1579 90.3427 84.0969 89.4963 82.7633 89.1825C74.391 86.1704 58.1099 107.441 53.1702 111.841C53.4126 115.122 57.7842 117.402 57.7842 117.402C57.7842 117.402 65.3008 113.9 71.5693 107.978" stroke="white" stroke-width="0.6" stroke-miterlimit="10" stroke-linecap="round" stroke-linejoin="round"/>
<path d="M84.2539 102.39C90.5962 106.574 95.2554 108.421 100.174 109.001C101.436 109.151 102.553 109.186 103.882 109.186" stroke="white" stroke-width="0.6" stroke-miterlimit="10" stroke-linecap="round" stroke-linejoin="round"/>
<path d="M84.2539 102.389C78.6058 96.0867 76.5044 98.212 76.5044 98.212C70.5853 104.132 65.6551 131.55 65.5767 132.013C65.484 132.574 70.6352 133.288 73.1004 132.382C75.1827 129.997 84.7056 114.247 87.8078 109.012C87.9766 108.725 88.2808 108.404 88.6018 108.494C91.0573 109.188 93.6461 109.481 96.7173 109.188C96.7625 109.188 101.771 109.195 103.884 109.188" stroke="white" stroke-width="0.6" stroke-miterlimit="10" stroke-linecap="round" stroke-linejoin="round"/>
<path d="M122.433 67.9795C122.433 67.9795 123.185 65.7994 124.311 66.408C125.443 67.0143 123.95 71.8736 121.295 71.1104" stroke="white" stroke-width="0.6" stroke-miterlimit="10"/>
<path d="M123.36 111.514H125.238V139.448H128.169V80.3442H123.762L124.119 81.2952L126.427 81.2429V109.215H124.974" stroke="white" stroke-width="0.6" stroke-miterlimit="10" stroke-linecap="round" stroke-linejoin="round"/>
<path d="M103.882 109.186L96.1753 109.214V139.447H99.5651V111.513H103.975" stroke="white" stroke-width="0.6" stroke-miterlimit="10" stroke-linecap="round" stroke-linejoin="round"/>
<path d="M111.579 74.6001L103.39 79.8208C103.39 79.8208 103.428 81.5135 104.063 82.0935C104.697 82.6736 101.581 82.7497 101.581 82.7497C101.581 82.7497 91.4756 92.0166 90.8005 92.4945" stroke="white" stroke-width="0.6" stroke-miterlimit="10" stroke-linecap="round" stroke-linejoin="round"/>
<path d="M116.745 76.9492C115.642 77.4532 113.429 78.3994 112.404 78.2211C112.404 78.2211 112.404 80.4202 112.045 81.9797C111.979 82.2721 111.898 82.5432 111.803 82.7714C112.169 82.9616 112.678 82.9925 113.336 82.8498" stroke="white" stroke-width="0.6" stroke-miterlimit="10" stroke-linecap="round" stroke-linejoin="round"/>
<path d="M111.289 76.4165C111.289 76.9467 112.402 78.2185 112.402 78.2185C112.402 78.2185 110.5 80.0562 109.706 81.9391C109.295 81.6039 108.071 80.496 108.156 79.8161" stroke="white" stroke-width="0.6" stroke-miterlimit="10" stroke-linecap="round" stroke-linejoin="round"/>
<path d="M110.044 101.845C111.149 103.259 112.977 105.489 116.334 105.649C116.64 107.144 116.483 109.474 116.443 110.156C116.403 110.839 111.648 112.781 109.312 112.819C108.765 109.54 108.52 101.291 110.044 101.845Z" stroke="white" stroke-width="0.6" stroke-miterlimit="10" stroke-linecap="round" stroke-linejoin="round"/>
<path d="M67.5091 133.906C67.5472 133.77 67.7183 133.732 67.811 133.837C68.1771 134.25 68.8974 134.968 69.5535 135.056C70.4853 135.182 71.2959 134.987 71.4148 134.59C71.5337 134.196 71.826 135.805 71.8546 136.492V137.165L71.7262 138.378C71.7262 138.378 71.5265 139.046 68.7048 138.948C67.6613 139 63.8483 140.757 62.3008 139.723C61.7422 139.438 61.2976 138.836 61.1027 138.378C60.9957 138.123 61.1194 137.831 61.3785 137.733C62.3222 137.379 64.7849 136.447 65.2199 136.226C65.7595 135.953 66.4632 135.782 67.1026 134.785C67.3356 134.422 67.4521 134.12 67.5091 133.906Z" stroke="white" stroke-width="0.6" stroke-miterlimit="10" stroke-linecap="round" stroke-linejoin="round"/>
<path d="M71.2817 132.75L71.2983 134.812" stroke="white" stroke-width="0.6" stroke-miterlimit="10" stroke-linecap="round" stroke-linejoin="round"/>
<path d="M68.0536 132.715L67.8135 133.837" stroke="white" stroke-width="0.6" stroke-miterlimit="10" stroke-linecap="round" stroke-linejoin="round"/>
<path d="M71.8309 137.429C71.8309 137.429 70.4783 138.006 69.0972 137.987C68.7953 137.983 68.5006 138.056 68.2248 138.175C67.2383 138.601 65.0846 139.064 63.1757 139.048C61.0815 139.029 61.1219 137.964 61.1219 137.964" stroke="white" stroke-width="0.6" stroke-miterlimit="10"/>
<path d="M52.3429 114.676C52.3429 114.676 51.9269 116.214 52.495 116.956C53.0631 117.7 53.7715 118.135 54.1329 117.94C54.3943 117.8 53.4958 118.967 52.9752 119.628C52.7494 119.913 52.495 120.172 52.2121 120.4L51.6868 120.826C51.6868 120.826 51.0758 121.156 49.1575 119.1C48.3873 118.401 42.8557 116.409 44.32 113.245C44.4008 113.069 44.5791 112.962 44.755 113.043C45.5823 113.418 48.1377 114.574 48.6179 114.73C49.1908 114.918 50.1535 114.895 51.2755 114.678C52.1551 114.507 52.3429 114.676 52.3429 114.676Z" stroke="white" stroke-width="0.6" stroke-miterlimit="10" stroke-linecap="round" stroke-linejoin="round"/>
<path d="M52.0007 120.572C52.0007 120.572 50.3224 119.252 49.7566 118.603C49.6425 118.473 49.5023 118.37 49.3478 118.299C48.1307 117.729 44.263 115.801 44.5031 113.036" stroke="white" stroke-width="0.6" stroke-miterlimit="10" stroke-linecap="round" stroke-linejoin="round"/>
<path d="M55.8088 116.04L54.0474 117.818" stroke="white" stroke-width="0.6" stroke-miterlimit="10" stroke-linecap="round" stroke-linejoin="round"/>
<path d="M53.7668 113.722L52.6472 114.333" stroke="white" stroke-width="0.6" stroke-miterlimit="10" stroke-linecap="round" stroke-linejoin="round"/>
<path d="M93.0898 72.3656C93.0898 72.3656 91.5494 71.9234 91.0074 72.0209C90.4655 72.116 89.5194 72.8672 89.4314 73.0003" stroke="white" stroke-width="0.6" stroke-miterlimit="10" stroke-linecap="round" stroke-linejoin="round"/>
<path d="M99.5651 94.8054C99.5651 94.8054 95.7355 93.8212 95.5216 93.7404C95.3076 93.6619 92.6547 93.5811 92.1389 93.5027C91.623 93.4242 93.2086 95.105 94.8726 95.6898C96.5366 96.2747 96.9574 96.6313 97.9962 97.3064C99.0326 97.9792 101.298 98.6163 101.88 98.4927" stroke="white" stroke-width="0.6" stroke-miterlimit="10" stroke-linecap="round" stroke-linejoin="round"/>
<path d="M101.881 99.8144C101.881 99.8144 100.031 98.9871 99.3965 97.9648" stroke="white" stroke-width="0.6" stroke-miterlimit="10" stroke-linecap="round" stroke-linejoin="round"/>
<path d="M12.3119 60.4736L10.453 66.8117C10.163 67.803 10.3769 68.8752 11.0282 69.6788C12.8919 71.9753 16.6668 76.6278 17.2992 77.4575C18.1454 78.5677 20.4465 79.861 21.502 80.2318C22.5598 80.6003 23.8791 83.6647 23.1208 83.5078C22.3839 83.3533 20.7627 81.6131 20.6628 81.5037" stroke="white" stroke-width="0.6" stroke-miterlimit="10" stroke-linecap="round" stroke-linejoin="round"/>
<path d="M3.85872 70.7893C2.15192 65.7089 2.2898 54.9133 6.56867 50.5556C7.22001 49.8899 11.3349 49.2005 14.1732 48.3423" stroke="white" stroke-width="0.6" stroke-miterlimit="10" stroke-linecap="round" stroke-linejoin="round"/>
<path d="M15.7444 80.8452C16.0558 81.0544 16.246 81.2066 16.2721 81.2874C16.3054 81.392 16.4171 81.6107 16.5907 81.9031C17.4892 83.408 20.0922 86.8885 22.9281 86.8885C23.9147 86.8885 20.7673 81.6797 20.6627 81.5037L20.6603 81.5014C20.658 81.499 20.658 81.499 20.658 81.499" stroke="white" stroke-width="0.6" stroke-miterlimit="10" stroke-linecap="round" stroke-linejoin="round"/>
<path d="M17.0684 44.2956C17.0565 42.5672 16.9067 40.7676 16.9067 40.7676" stroke="white" stroke-width="0.6" stroke-miterlimit="10"/>
<path d="M21.3782 46.1717L22.1032 46.6496L22.6618 46.1479" stroke="white" stroke-width="0.6" stroke-miterlimit="10" stroke-linecap="round" stroke-linejoin="round"/>
<path d="M17.5771 44.4316L18.6873 47.9834L19.0106 49.0199L22.5525 60.3457L26.8884 73.9822L29.6911 57.5404L24.8821 49.0057" stroke="white" stroke-width="0.6" stroke-miterlimit="10" stroke-linecap="round" stroke-linejoin="round"/>
<path d="M23.8269 46.1475V45.3867" stroke="white" stroke-width="0.6" stroke-miterlimit="10" stroke-linecap="round" stroke-linejoin="round"/>
<path d="M10.9236 65.2046C14.1731 70.8746 17.5107 70.9768 17.2991 75.5199C17.0162 75.8076 16.7452 76.1071 16.4814 76.421" stroke="white" stroke-width="0.6" stroke-miterlimit="10" stroke-linecap="round" stroke-linejoin="round"/>
<path d="M17.4273 43.9844C17.4273 43.9844 27.7346 73.7869 26.9953 82.8732C26.2561 91.9595 26.7766 107.148 22.8781 113.28C19.8568 118.034 9.14056 116.791 9.14056 116.791C9.14056 116.791 7.23171 94.3297 13.5383 81.0973" stroke="white" stroke-width="0.6" stroke-miterlimit="10" stroke-linecap="round" stroke-linejoin="round"/>
<path d="M21.3093 46.8184C21.3093 46.8184 22.4456 46.4404 22.7285 46.8184C23.0114 47.1964 22.8236 48.095 22.7285 48.3803C22.6334 48.6632 21.3093 48.3803 21.3093 48.3803C21.3093 48.3803 21.0264 47.3628 21.3093 46.8184Z" stroke="white" stroke-width="0.6" stroke-miterlimit="10" stroke-linecap="round" stroke-linejoin="round"/>
<path d="M21.3094 48.3804C21.3094 48.3804 19.7714 49.0009 19.0107 49.0199" stroke="white" stroke-width="0.6" stroke-miterlimit="10" stroke-linecap="round" stroke-linejoin="round"/>
<path d="M18.6874 47.9832C18.8039 47.7051 18.9441 47.4792 18.9441 47.4792C18.9441 47.4792 17.9505 45.4941 18.6612 45.4941C19.3696 45.4941 21.3094 46.8183 21.3094 46.8183" stroke="white" stroke-width="0.6" stroke-miterlimit="10" stroke-linecap="round" stroke-linejoin="round"/>
<path d="M22.7571 46.8183C22.7571 46.8183 24.6968 45.4941 25.4052 45.4941C26.116 45.4941 25.1223 47.4792 25.1223 47.4792C25.1223 47.4792 25.8331 48.6156 25.4052 48.9461C24.9797 49.2765 22.7571 48.3779 22.7571 48.3779" stroke="white" stroke-width="0.6" stroke-miterlimit="10" stroke-linecap="round" stroke-linejoin="round"/>
<path d="M37.6428 55.0841C37.726 54.7584 37.7545 54.4897 37.8449 54.1688C37.9138 54.0356 38.3512 50.8547 39.8369 49.1454C40.0604 48.8887 40.493 49.0503 40.4764 49.3903C40.455 49.823 40.3005 50.3888 39.9225 51.7439C40.9375 51.48 41.8789 50.8975 42.9344 49.9466C43.9922 48.9956 46.3337 47.2055 47.1776 47.5787C47.1776 48.059 45.0548 52.3976 43.9019 53.3438C43.134 54.3186 40.5786 56.0778 40.6856 56.394" stroke="white" stroke-width="0.6" stroke-miterlimit="10" stroke-linecap="round" stroke-linejoin="round"/>
<path d="M31.3599 71.0464C32.9953 73.5402 34.1364 73.9824 35.5104 73.9824" stroke="white" stroke-width="0.6" stroke-miterlimit="10" stroke-linecap="round" stroke-linejoin="round"/>
<path d="M27.8228 49.3315C28.3933 49.6454 29.0803 50.0281 29.9028 50.4893C33.9796 52.7716 34.1816 61.953 34.6571 63.2201" stroke="white" stroke-width="0.6" stroke-miterlimit="10" stroke-linecap="round" stroke-linejoin="round"/>
<path d="M20.3324 37.0429C20.3324 37.0429 19.5622 37.932 19.9758 38.2886C20.3895 38.6452 22.0511 39.4155 22.4647 39.2966C22.8807 39.1778 23.4132 38.1769 23.4132 38.1769C23.4132 38.1769 21.4996 34.4207 21.6327 33.1321C21.7658 31.8507 24.6683 31.0781 25.5788 32.3975" stroke="white" stroke-width="0.6" stroke-miterlimit="10" stroke-linecap="round" stroke-linejoin="round"/>
<path d="M25.0707 75.4699C25.3668 75.4259 25.5576 75.0586 25.4969 74.6495C25.4362 74.2404 25.1469 73.9444 24.8508 73.9883C24.5547 74.0322 24.3639 74.3995 24.4246 74.8087C24.4853 75.2178 24.7746 75.5138 25.0707 75.4699Z" stroke="white" stroke-width="0.6" stroke-miterlimit="10" stroke-linecap="round" stroke-linejoin="round"/>
<path d="M25.3362 78.2043C25.6355 78.2043 25.8782 77.869 25.8782 77.4554C25.8782 77.0418 25.6355 76.7065 25.3362 76.7065C25.0368 76.7065 24.7942 77.0418 24.7942 77.4554C24.7942 77.869 25.0368 78.2043 25.3362 78.2043Z" stroke="white" stroke-width="0.6" stroke-miterlimit="10" stroke-linecap="round" stroke-linejoin="round"/>
<path d="M29.3141 75.4391C29.6102 75.3951 29.801 75.0279 29.7403 74.6187C29.6796 74.2096 29.3903 73.9136 29.0942 73.9575C28.7981 74.0015 28.6073 74.3688 28.668 74.7779C28.7287 75.187 29.018 75.483 29.3141 75.4391Z" stroke="white" stroke-width="0.6" stroke-miterlimit="10" stroke-linecap="round" stroke-linejoin="round"/>
<path d="M29.5793 78.173C29.8787 78.173 30.1213 77.8378 30.1213 77.4242C30.1213 77.0106 29.8787 76.6753 29.5793 76.6753C29.28 76.6753 29.0374 77.0106 29.0374 77.4242C29.0374 77.8378 29.28 78.173 29.5793 78.173Z" stroke="white" stroke-width="0.6" stroke-miterlimit="10" stroke-linecap="round" stroke-linejoin="round"/>
<path d="M24.9963 33.9144C24.9987 33.9381 25.0034 33.9619 25.0034 33.9857C25.0034 34.3471 24.7111 34.6395 24.3497 34.6395C23.9884 34.6395 23.696 34.3471 23.696 33.9857C23.696 33.893 23.715 33.805 23.7507 33.7266C23.2158 33.9595 23.0898 34.6442 23.0898 34.6442C23.0898 34.6442 24.925 35.7354 25.253 34.0665C25.1627 34.0071 25.0795 33.9572 24.9963 33.9144Z" fill="white" stroke="white" stroke-width="0.6" stroke-miterlimit="10" stroke-linecap="round" stroke-linejoin="round"/>
<path d="M19.0579 33.9615C19.0579 33.9686 19.0603 33.9758 19.0603 33.9853C19.0603 34.3466 18.7679 34.6391 18.4066 34.6391C18.0453 34.6391 17.7529 34.3466 17.7529 33.9853C17.7529 33.8569 17.7909 33.738 17.8551 33.6382C17.5223 33.7071 17.1443 33.9068 16.7307 34.3229C18.737 35.804 19.3979 34.3229 19.3979 34.3229C19.3979 34.3229 19.2766 34.1398 19.0579 33.9615Z" fill="white" stroke="white" stroke-width="0.6" stroke-miterlimit="10" stroke-linecap="round" stroke-linejoin="round"/>
<path d="M22.5526 40.7681C22.5526 40.7681 21.2238 40.0644 20.6723 42.513C20.2705 44.2961 25.3362 44.2961 22.5526 40.7681Z" stroke="white" stroke-width="0.6" stroke-miterlimit="10"/>
<path d="M26.0186 100.404C26.7935 101.533 27.3498 102.087 28.4884 104.182C29.3775 106.062 29.7031 106.659 30.1168 110.81C28.8997 119.076 30.2214 135.877 30.2214 135.877C30.2214 135.877 32.4297 137.001 36.2213 135.378C35.6389 131.959 40.4764 109.616 40.1388 108.116C40.0057 106.913 39.2569 104.598 38.2538 101.819C37.1769 98.828 35.8077 95.3 34.6048 92.0502C34.6024 92.0478 34.6024 92.0478 34.6024 92.0454" stroke="white" stroke-width="0.6" stroke-miterlimit="10"/>
<path d="M28.26 76.4858C28.2362 76.4858 28.2124 76.4858 28.1887 76.4858C27.6514 76.4763 27.0738 76.4645 26.4795 76.4502" stroke="white" stroke-width="0.6" stroke-miterlimit="10" stroke-linecap="round" stroke-linejoin="round"/>
<path d="M28.2602 76.4854C28.2602 76.4854 27.7515 78.9008 27.0312 82.1244C27.0312 82.1268 27.0312 82.1268 27.0312 82.1268" stroke="white" stroke-width="0.6" stroke-miterlimit="10" stroke-linecap="round" stroke-linejoin="round"/>
<path d="M21.3783 114.825C21.3616 115.265 21.3474 115.704 21.3307 116.147C21.0098 125.316 20.9932 134.78 21.4472 136.257C20.1968 137.044 17.0423 136.435 16.7999 135.876C14.3704 130.48 13.5931 123.093 13.4695 116.912" stroke="white" stroke-width="0.6" stroke-miterlimit="10"/>
<path d="M35.7197 135.577C35.7197 135.577 38.974 138.126 40.89 138.085C42.8084 138.042 40.1388 139.628 37.9733 139.043C35.8053 138.461 34.4313 137.084 34.4313 137.084L31.845 136.961V137.795L30.345 137.752L30.219 135.877" stroke="white" stroke-width="0.6" stroke-miterlimit="10" stroke-linecap="round" stroke-linejoin="round"/>
<path d="M21.3118 136.333C21.3118 136.333 23.7674 138.34 25.2983 138.307C26.8292 138.273 24.6993 139.538 22.9687 139.072C21.2381 138.606 20.1399 137.508 20.1399 137.508L18.0765 137.408V138.074L16.8784 138.04L16.7976 135.877" stroke="white" stroke-width="0.6" stroke-miterlimit="10" stroke-linecap="round" stroke-linejoin="round"/>
<path d="M17.1279 44.2129L14.1731 48.34L14.6509 57.2646H17.7151L15.4045 59.2711L25.6856 72.4868" stroke="white" stroke-width="0.6" stroke-miterlimit="10" stroke-linecap="round" stroke-linejoin="round"/>
<path d="M21.3308 116.147C25.1057 116.594 27.3593 116.508 29.7031 115.515" stroke="white" stroke-width="0.6" stroke-miterlimit="10"/>
<path d="M31.0461 66.2148C31.0461 66.2148 31.0461 78.8077 34.6024 92.0448C34.6024 92.0472 34.6024 92.0472 34.6047 92.0496" stroke="white" stroke-width="0.6" stroke-miterlimit="10" stroke-linecap="round" stroke-linejoin="round"/>
<path d="M27.6467 71.0464C27.6467 71.0464 27.8607 85.2012 38.458 102.389" stroke="white" stroke-width="0.6" stroke-miterlimit="10" stroke-linecap="round" stroke-linejoin="round"/>
<path d="M24.4783 48.9346C24.4783 48.9346 30.0788 58.7578 28.2722 65.7068" stroke="white" stroke-width="0.6" stroke-miterlimit="10" stroke-linecap="round" stroke-linejoin="round"/>
<path d="M23.3989 48.6152C23.3989 48.6152 27.9583 59.4917 28.1699 66.4716" stroke="white" stroke-width="0.6" stroke-miterlimit="10" stroke-linecap="round" stroke-linejoin="round"/>
<path d="M22.2102 48.5016C22.2102 48.5016 27.7941 60.581 27.0358 73.1263L32.0255 58.7671L30.6515 57.3216L32.3939 56.7867L27.8227 49.3313L25.1959 44.3579" stroke="white" stroke-width="0.6" stroke-miterlimit="10" stroke-linecap="round" stroke-linejoin="round"/>
<path d="M20.4226 48.6987C20.4226 48.6987 26.0636 63.1959 25.8806 70.8129" stroke="white" stroke-width="0.6" stroke-miterlimit="10" stroke-linecap="round" stroke-linejoin="round"/>
<path d="M15.4949 33.2056C16.6811 30.9495 19.0036 31.8529 19.6573 32.0954" stroke="white" stroke-width="0.6" stroke-miterlimit="10" stroke-linecap="round" stroke-linejoin="round"/>
<path d="M17.8815 78.2046C17.8815 78.2046 14.4727 81.6969 15.4045 82.5147C16.0963 83.0164 16.5907 81.9014 16.5907 81.9014" stroke="white" stroke-width="0.6" stroke-miterlimit="10" stroke-linecap="round" stroke-linejoin="round"/>
<path d="M15.4045 82.5142C15.4045 82.5142 4.1653 74.3028 3.85864 70.7891" stroke="white" stroke-width="0.6" stroke-miterlimit="10" stroke-linecap="round" stroke-linejoin="round"/>
<path d="M37.8447 54.1665C37.5191 54.0762 37.1102 54.0262 37.0294 54.3163C36.9866 54.5255 37.2386 54.8013 37.6427 55.0842C38.7267 55.8402 40.9041 56.6485 41.4675 56.4179C41.5293 56.2039 41.3819 55.978 41.1823 55.7831" stroke="white" stroke-width="0.6" stroke-miterlimit="10" stroke-linecap="round" stroke-linejoin="round"/>
<path d="M35.5105 73.9824C35.5105 73.9824 41.4676 73.9824 41.4676 56.4185" stroke="white" stroke-width="0.6" stroke-miterlimit="10" stroke-linecap="round" stroke-linejoin="round"/>
<path d="M37.0294 54.3164L34.657 63.2196" stroke="white" stroke-width="0.6" stroke-miterlimit="10" stroke-linecap="round" stroke-linejoin="round"/>
<path d="M122.041 69.2562C122.994 69.6009 123.004 68.2886 123.241 67.8916C123.477 67.4945 124.047 67.3733 124.152 67.611" stroke="white" stroke-width="0.6" stroke-miterlimit="10" stroke-linecap="round" stroke-linejoin="round"/>
<path d="M28.1317 32.5212C28.6048 32.1574 29.3655 29.8443 28.5073 28.4963C28.3885 27.2149 26.1754 26.428 26.0922 26.4993C26.1516 26.3805 27.2332 25.3534 26.5034 24.0055C25.7617 22.6314 24.8275 24.4928 23.6128 23.4373C22.3981 22.3794 16.1533 24.8637 14.601 23.4896C13.0511 22.1155 11.6034 23.4349 11.3538 25.7077C7.39111 25.5484 7.97114 26.447 7.07257 28.0327C4.93314 27.001 3.50685 33.0846 7.17241 33.843C4.97355 37.5541 9.38316 37.8037 10.2247 36.9145C9.067 38.0295 11.0044 38.9329 11.3966 38.6025C9.52817 42.411 14.0495 42.411 14.311 42.0544C14.2112 43.0909 14.91 44.0728 16.208 43.9634C16.5336 45.4588 18.9964 44.7812 19.1984 43.4547C19.3981 42.1281 17.2539 42.8175 17.5249 42.1352C17.7983 41.4529 18.1786 40.6922 17.5249 39.9837C16.8712 39.2753 16.6073 40.8015 15.9179 39.9837C16.6073 38.902 15.9964 38.3933 15.3712 37.8037C14.7436 37.2141 14.0661 38.7855 14.0923 38.2958C14.1208 37.8061 14.0661 37.1238 13.769 36.8789C13.441 36.6055 13.1509 36.4914 12.8966 36.4842C12.8966 36.4842 12.8966 36.4842 12.8966 36.4819C12.8847 36.3511 12.8752 36.1633 12.8633 35.9398C13.0368 36.0278 13.2746 36.0896 13.4885 35.9232C14.6533 34.3422 12.975 33.5268 12.975 33.5268C12.975 33.5268 14.7531 31.5607 13.1842 30.605C13.4219 30.4648 13.6739 30.227 13.8736 29.8276C14.4013 28.7721 13.2579 27.505 13.2579 27.505C13.5337 27.0485 13.9449 26.8607 14.5606 26.6967C15.8609 26.3519 17.5962 27.3837 20.2753 28.2134C21.906 28.589 22.0177 27.6286 23.2752 26.6753C24.0882 26.0833 24.6682 26.6467 24.7728 26.9059C25.2007 27.6333 26.5058 29.7492 26.4321 31.235C25.94 33.1821 26.3465 35.8614 26.3465 35.8614C26.3465 35.8614 26.715 36.1158 27.15 36.1158C27.5826 36.1158 27.9511 35.4263 28.2791 34.202C28.6048 32.98 27.6611 32.8849 28.1317 32.5212ZM12.6185 37.7847C12.4972 37.8298 12.3594 37.8013 12.1953 37.7157C12.0693 37.6468 11.9243 37.5469 11.7579 37.4185C11.4418 37.1784 11.0424 36.8456 10.5194 36.4842C9.37128 35.6854 9.49013 33.7527 10.7572 33.5316C12.0242 33.3081 12.2239 35.6165 12.2239 35.6165C12.2239 35.6165 12.3974 36.0611 12.5424 36.5484C12.5876 36.703 12.6304 36.8622 12.6636 37.012C12.7492 37.3971 12.7706 37.7276 12.6185 37.7847Z" fill="url(#paint0_linear)"/>
<path d="M90.3925 67.1479C90.4093 67.0243 89.597 66.8122 88.5783 66.6742C87.5595 66.5363 86.7201 66.5246 86.7034 66.6483C86.6867 66.7719 87.4989 66.9839 88.5177 67.1219C89.5364 67.2599 90.3758 67.2715 90.3925 67.1479Z" stroke="white" stroke-width="0.6" stroke-miterlimit="10" stroke-linecap="round" stroke-linejoin="round"/>
<path d="M90.3887 67.1514C90.3887 67.1514 90.431 67.7148 90.3323 68.3638" stroke="white" stroke-width="0.6" stroke-miterlimit="10" stroke-linecap="round" stroke-linejoin="round"/>
<path d="M91.1382 69.2031C97.3021 69.41 100.884 70.9315 100.884 70.9315C100.578 71.1906 101.191 71.4568 95.0771 70.9219C94.3117 71.0028 93.6128 71.0551 92.9733 71.0836C92.6691 71.0979 92.3791 71.1074 92.1033 71.1121" stroke="white" stroke-width="0.6" stroke-miterlimit="10" stroke-linecap="round" stroke-linejoin="round"/>
<path d="M87.9386 70.6605C86.5622 70.2397 86.2888 69.6739 86.2888 69.6739L86.6977 66.6547V66.6499" stroke="white" stroke-width="0.6" stroke-miterlimit="10" stroke-linecap="round" stroke-linejoin="round"/>
<path d="M88.5447 65.3453C88.5447 65.3453 87.387 64.1613 89.4337 61.9813C91.4805 59.7989 90.3323 58.3511 90.3323 58.3511" stroke="white" stroke-width="0.6" stroke-miterlimit="10" stroke-linecap="round" stroke-linejoin="round"/>
<path d="M131.362 64.7221C131.821 64.3774 137.186 63.8663 137.623 58.201C136.29 59.4349 132.655 58.4293 131.067 58.8596C133.287 57.1384 134.89 52.9304 134.84 50.5531C134.355 50.5245 132.356 52.9685 127.166 55.1889C127.128 55.0724 131.312 50.0253 130.573 47.0655C130.152 48.2542 123.917 48.8485 122.997 50.2892C122.405 48.8794 123.299 45.3966 123.099 45.1636C114.565 44.4765 112.428 51.5325 112.133 53.6341C112.133 53.6222 112.133 53.6032 112.135 53.5794L112.133 53.6341C112.133 53.2609 112.404 51.4113 109.91 49.6354C110.816 52.0579 107.495 52.7807 107.985 56.5274C107.626 56.0471 107.343 55.5004 106.846 54.7871C106.699 55.2341 107.35 57.3309 107.707 57.7636C108.061 58.1963 105.575 56.2302 105.575 56.2302C105.537 56.6795 104.108 59.637 106.987 63.7854C107.576 65.1928 109.877 66.4291 109.877 66.4291C109.877 66.4291 110.849 64.5034 110.904 64.3417C111.158 63.5525 111.004 62.9557 111.097 61.981C112.05 51.7417 122.785 58.5315 122.785 58.5315C124.28 60.0791 123.463 64.1944 122.438 67.9815C122.438 67.9815 123.189 65.8014 124.316 66.4101C125.448 67.0163 123.955 71.8756 121.299 71.1125C121.121 71.5095 120.919 71.9017 120.71 72.2845C120.586 72.5127 120.451 72.7267 120.313 72.9216C120.311 72.9311 120.303 72.9383 120.296 72.9502C120.244 73.0215 120.192 73.0904 120.142 73.1594C120.063 73.264 119.982 73.3638 119.899 73.4565C119.899 73.4565 121.597 75.2871 122.486 75.5177C123.655 75.8244 125.305 76.8871 125.623 77.227C125.669 76.7967 125.319 75.135 124.487 74.127C126.047 74.4669 128.566 74.6524 129.838 74.4051C129.81 73.5707 127.328 72.7338 126.86 72.2488C127.663 72.0491 131.818 71.4596 133.853 71.4596C133.72 70.2733 131.169 66.6811 130.739 66.5337C131.688 65.9298 134.897 66.7999 136.071 66.3031C135.322 65.7896 133.059 64.6199 131.362 64.7221ZM131.362 64.7221C131.821 64.3774 137.186 63.8663 137.623 58.201C136.29 59.4349 132.655 58.4293 131.067 58.8596C133.287 57.1384 134.89 52.9304 134.84 50.5531C134.355 50.5245 132.356 52.9685 127.166 55.1889C127.128 55.0724 131.312 50.0253 130.573 47.0655C130.152 48.2542 123.917 48.8485 122.997 50.2892C122.405 48.8794 123.299 45.3966 123.099 45.1636C114.565 44.4765 112.428 51.5325 112.133 53.6341C112.133 53.6222 112.133 53.6032 112.135 53.5794L112.133 53.6341C112.133 53.2609 112.404 51.4113 109.91 49.6354C110.816 52.0579 107.495 52.7807 107.985 56.5274C107.626 56.0471 107.343 55.5004 106.846 54.7871C106.699 55.2341 107.35 57.3309 107.707 57.7636C108.061 58.1963 105.575 56.2302 105.575 56.2302C105.537 56.6795 104.108 59.637 106.987 63.7854C107.576 65.1928 109.877 66.4291 109.877 66.4291C109.877 66.4291 110.849 64.5034 110.904 64.3417C111.158 63.5525 111.004 62.9557 111.097 61.981C112.05 51.7417 122.785 58.5315 122.785 58.5315C124.28 60.0791 123.463 64.1944 122.438 67.9815C122.438 67.9815 123.189 65.8014 124.316 66.4101C125.448 67.0163 123.955 71.8756 121.299 71.1125C121.121 71.5095 120.919 71.9017 120.71 72.2845C120.586 72.5127 120.451 72.7267 120.313 72.9216C120.311 72.9311 120.303 72.9383 120.296 72.9502C120.244 73.0215 120.192 73.0904 120.142 73.1594C120.063 73.264 119.982 73.3638 119.899 73.4565C119.899 73.4565 121.406 74.9828 122.486 75.5177C123.567 76.055 125.305 76.8871 125.623 77.227C125.669 76.7967 125.319 75.135 124.487 74.127C126.047 74.4669 128.566 74.6524 129.838 74.4051C129.81 73.5707 127.328 72.7338 126.86 72.2488C127.663 72.0491 131.818 71.4596 133.853 71.4596C133.72 70.2733 131.169 66.6811 130.739 66.5337C131.688 65.9298 134.897 66.7999 136.071 66.3031C135.322 65.7896 133.059 64.6199 131.362 64.7221Z" fill="url(#paint1_linear)"/>
<path d="M122.433 67.9791C122.15 69.0275 121.772 70.0855 121.295 71.1101C121.116 71.5071 120.914 71.8994 120.705 72.2821C120.582 72.5104 120.446 72.7243 120.308 72.9193C120.306 72.9288 120.299 72.9359 120.292 72.9478C120.239 73.0191 120.187 73.0881 120.137 73.157C120.059 73.2616 119.978 73.3615 119.895 73.4542C119.666 73.7204 119.426 73.951 119.177 74.1507C116.257 76.5115 112.521 75.2729 111.596 74.612C110.505 73.6586 106.818 71.6117 110.899 64.3394C111.154 63.5501 110.84 61.4343 111.67 59.0569C114.886 52.8496 122.778 58.5291 122.778 58.5291C124.276 60.0792 123.455 64.1944 122.433 67.9791Z" stroke="white" stroke-width="0.6" stroke-miterlimit="10" stroke-linecap="round" stroke-linejoin="round"/>
<path d="M110.505 70.3711C110.505 70.3711 111.313 73.212 114.886 71.2436" stroke="white" stroke-width="0.6" stroke-miterlimit="10" stroke-linecap="round" stroke-linejoin="round"/>
<path d="M111.41 67.9842C113.942 68.7902 116.338 67.6847 116.574 69.6579C116.681 71.0796 116.405 72.7366 116.405 72.7366C116.405 72.7366 112.932 68.3456 109.231 71.3411C109.088 69.8267 110.35 67.3875 111.41 67.9842Z" fill="url(#paint2_linear)"/>
<path d="M114.831 62.7422C114.831 62.7422 114.872 64.4206 113.029 65.0768C110.975 65.809 110.7 67.1046 111.194 67.7941C111.689 68.4835 114.299 68.4502 114.91 68.222C115.523 67.9914 115.257 66.8788 115.257 66.8788" stroke="white" stroke-width="0.6" stroke-miterlimit="10" stroke-linecap="round" stroke-linejoin="round"/>
<path d="M120.52 64.4705C120.196 63.5101 118.889 62.5758 118.178 62.3975C117.967 62.3452 117.769 62.3309 117.582 62.3428C117.784 62.1954 117.853 62.0599 117.27 62.1288C116.303 62.2453 116.115 62.8991 116.082 63.0774C116.079 63.0822 116.074 63.0845 116.074 63.0845C116.074 63.0893 116.077 63.094 116.077 63.0988C116.074 63.1131 116.074 63.1226 116.074 63.1226L116.084 63.1178C116.172 63.4887 117.07 63.27 117.998 63.5315C118.906 63.8239 120.791 65.2717 120.52 64.4705Z" fill="url(#paint3_linear)"/>
<path d="M114.515 61.4511C114.051 61.0659 114.049 61.2395 114.147 61.482C113.997 61.3655 113.826 61.2585 113.624 61.1729C112.951 60.8852 112.193 60.9708 111.753 61.8718C111.382 62.6302 112.309 61.7435 113.208 62.0573C114.08 62.3972 114.658 63.0891 114.96 62.9012L114.979 62.9345C114.979 62.9345 115.387 62.1714 114.515 61.4511Z" fill="url(#paint4_linear)"/>
<path d="M18.4045 44.7382C18.9608 45.1257 19.3245 45.3301 19.9164 45.6392C22.0535 46.7542 23.4346 46.0528 24.3997 44.7334C25.2341 43.5994 25.7594 42.0066 26.1992 40.7181C26.5154 39.7933 26.5819 38.7758 26.5487 37.744C26.5296 37.0926 26.4702 36.4364 26.4084 35.7922C26.406 35.7708 26.4036 35.7518 26.4013 35.7304C26.3442 35.1265 26.2872 34.5322 26.261 33.9687C26.2586 33.9497 26.2586 33.9307 26.2586 33.9141C26.2325 33.3625 26.2396 32.8395 26.3038 32.3593C26.3228 32.2166 26.3466 32.0787 26.3775 31.9456C26.4227 31.7435 26.4488 31.5391 26.4607 31.3346C26.4607 31.3346 26.4607 31.3322 26.4607 31.3299C26.4845 30.8639 26.425 30.3908 26.3157 29.9391V29.9367C25.1319 26.4705 24.3973 26.6084 24.1596 26.5371C23.311 26.5371 22.8474 27.0387 22.8474 27.0387" stroke="white" stroke-width="0.6" stroke-miterlimit="10" stroke-linecap="round" stroke-linejoin="round"/>
<path d="M27.0334 38.3787C26.9431 38.053 26.8504 37.5989 26.199 38.198C25.0033 38.9231 25.0247 41.0128 25.2505 41.7569C24.5778 42.085 23.9883 42.5034 24.1689 43.2118C23.9692 43.975 23.8266 45.72 25.3694 44.4909C25.8852 44.5693 26.9763 43.9227 26.924 42.7483C26.8741 41.5715 27.5445 41.7973 27.264 40.7679C27.9177 39.4841 27.1927 38.954 27.0334 38.3787Z" fill="url(#paint5_linear)"/>
<path d="M116.312 65.3452C116.312 65.3452 117.617 66.4768 120.033 66.3009" stroke="white" stroke-width="0.6" stroke-miterlimit="10" stroke-linecap="round" stroke-linejoin="round"/>
<path d="M113.814 64.691C111.396 64.8669 110.98 64.2227 110.98 64.2227" stroke="white" stroke-width="0.6" stroke-miterlimit="10" stroke-linecap="round" stroke-linejoin="round"/>
<path d="M52.4209 9.1V14H51.7349V12.572H50.3839C50.2999 12.572 50.2369 12.5697 50.1949 12.565L49.2149 14H48.4729L49.5579 12.446C49.2079 12.3293 48.9396 12.1357 48.7529 11.865C48.5662 11.5897 48.4729 11.256 48.4729 10.864C48.4729 10.3087 48.6502 9.877 49.0049 9.569C49.3642 9.25633 49.8472 9.1 50.4539 9.1H52.4209ZM49.1799 10.857C49.1799 11.221 49.2849 11.501 49.4949 11.697C49.7096 11.8883 50.0246 11.984 50.4399 11.984H51.7349V9.709H50.4819C50.0619 9.709 49.7399 9.807 49.5159 10.003C49.2919 10.199 49.1799 10.4837 49.1799 10.857ZM63.8509 10.255C64.2102 10.255 64.5322 10.3343 64.8169 10.493C65.1016 10.6517 65.3232 10.8733 65.4819 11.158C65.6452 11.4427 65.7269 11.7717 65.7269 12.145C65.7269 12.5183 65.6452 12.8497 65.4819 13.139C65.3232 13.4237 65.1016 13.6453 64.8169 13.804C64.5322 13.9627 64.2102 14.042 63.8509 14.042C63.5849 14.042 63.3399 13.9907 63.1159 13.888C62.8966 13.7853 62.7099 13.636 62.5559 13.44V15.358H61.8839V10.29H62.5279V10.878C62.6772 10.6727 62.8662 10.5187 63.0949 10.416C63.3236 10.3087 63.5756 10.255 63.8509 10.255ZM63.7949 13.454C64.0329 13.454 64.2452 13.4003 64.4319 13.293C64.6232 13.181 64.7726 13.027 64.8799 12.831C64.9919 12.6303 65.0479 12.4017 65.0479 12.145C65.0479 11.8883 64.9919 11.662 64.8799 11.466C64.7726 11.2653 64.6232 11.1113 64.4319 11.004C64.2452 10.8967 64.0329 10.843 63.7949 10.843C63.5616 10.843 63.3492 10.899 63.1579 11.011C62.9712 11.1183 62.8219 11.27 62.7099 11.466C62.6026 11.662 62.5489 11.8883 62.5489 12.145C62.5489 12.4017 62.6026 12.6303 62.7099 12.831C62.8172 13.027 62.9666 13.181 63.1579 13.293C63.3492 13.4003 63.5616 13.454 63.7949 13.454ZM67.9921 10.255C68.5054 10.255 68.8974 10.381 69.1681 10.633C69.4434 10.885 69.5811 11.2607 69.5811 11.76V14H68.9441V13.51C68.8321 13.6827 68.6711 13.8157 68.4611 13.909C68.2557 13.9977 68.0107 14.042 67.7261 14.042C67.3107 14.042 66.9771 13.9417 66.7251 13.741C66.4777 13.5403 66.3541 13.2767 66.3541 12.95C66.3541 12.6233 66.4731 12.362 66.7111 12.166C66.9491 11.9653 67.3271 11.865 67.8451 11.865H68.9091V11.732C68.9091 11.4427 68.8251 11.221 68.6571 11.067C68.4891 10.913 68.2417 10.836 67.9151 10.836C67.6957 10.836 67.4811 10.8733 67.2711 10.948C67.0611 11.018 66.8837 11.1137 66.7391 11.235L66.4591 10.731C66.6504 10.577 66.8791 10.4603 67.1451 10.381C67.4111 10.297 67.6934 10.255 67.9921 10.255ZM67.8381 13.524C68.0947 13.524 68.3164 13.468 68.5031 13.356C68.6897 13.2393 68.8251 13.076 68.9091 12.866V12.348H67.8731C67.3037 12.348 67.0191 12.5393 67.0191 12.922C67.0191 13.1087 67.0914 13.2557 67.2361 13.363C67.3807 13.4703 67.5814 13.524 67.8381 13.524ZM73.3181 12.075C73.7988 12.1963 74.0391 12.4973 74.0391 12.978C74.0391 13.3047 73.9155 13.5567 73.6681 13.734C73.4255 13.9113 73.0615 14 72.5761 14H70.7911V10.29H72.5131C72.9518 10.29 73.2948 10.374 73.5421 10.542C73.7895 10.7053 73.9131 10.9387 73.9131 11.242C73.9131 11.438 73.8595 11.6083 73.7521 11.753C73.6495 11.893 73.5048 12.0003 73.3181 12.075ZM71.4491 11.886H72.4571C72.7138 11.886 72.9075 11.8393 73.0381 11.746C73.1735 11.6527 73.2411 11.5173 73.2411 11.34C73.2411 10.9853 72.9798 10.808 72.4571 10.808H71.4491V11.886ZM72.5271 13.482C72.8071 13.482 73.0171 13.4377 73.1571 13.349C73.2971 13.2603 73.3671 13.1227 73.3671 12.936C73.3671 12.7447 73.3018 12.6023 73.1711 12.509C73.0451 12.4157 72.8445 12.369 72.5691 12.369H71.4491V13.482H72.5271ZM75.0909 10.29H75.7629V11.865H77.8769V10.29H78.5489V14H77.8769V12.446H75.7629V14H75.0909V10.29ZM82.8306 10.29V14H82.2286V12.824H81.1506H81.0736L80.2616 14H79.5406L80.4436 12.733C80.1636 12.649 79.9489 12.5113 79.7996 12.32C79.6503 12.124 79.5756 11.8813 79.5756 11.592C79.5756 11.1673 79.7203 10.8453 80.0096 10.626C80.2989 10.402 80.6979 10.29 81.2066 10.29H82.8306ZM80.2616 11.613C80.2616 11.8603 80.3386 12.0447 80.4926 12.166C80.6513 12.2827 80.8869 12.341 81.1996 12.341H82.2286V10.878H81.2276C80.5836 10.878 80.2616 11.123 80.2616 11.613ZM87.3267 10.29V14H86.6547V10.878H85.0587L85.0167 11.704C84.9934 12.2033 84.9491 12.621 84.8837 12.957C84.8184 13.2883 84.7111 13.5543 84.5617 13.755C84.4124 13.9557 84.2047 14.056 83.9387 14.056C83.8174 14.056 83.6797 14.035 83.5257 13.993L83.5677 13.426C83.6284 13.44 83.6844 13.447 83.7357 13.447C83.9224 13.447 84.0624 13.3653 84.1557 13.202C84.2491 13.0387 84.3097 12.845 84.3377 12.621C84.3657 12.397 84.3914 12.0773 84.4147 11.662L84.4777 10.29H87.3267ZM57.8347 19.075C58.3154 19.1963 58.5557 19.4973 58.5557 19.978C58.5557 20.3047 58.4321 20.5567 58.1847 20.734C57.9421 20.9113 57.5781 21 57.0927 21H55.3077V17.29H57.0297C57.4684 17.29 57.8114 17.374 58.0587 17.542C58.3061 17.7053 58.4297 17.9387 58.4297 18.242C58.4297 18.438 58.3761 18.6083 58.2687 18.753C58.1661 18.893 58.0214 19.0003 57.8347 19.075ZM55.9657 18.886H56.9737C57.2304 18.886 57.4241 18.8393 57.5547 18.746C57.6901 18.6527 57.7577 18.5173 57.7577 18.34C57.7577 17.9853 57.4964 17.808 56.9737 17.808H55.9657V18.886ZM57.0437 20.482C57.3237 20.482 57.5337 20.4377 57.6737 20.349C57.8137 20.2603 57.8837 20.1227 57.8837 19.936C57.8837 19.7447 57.8184 19.6023 57.6877 19.509C57.5617 19.4157 57.3611 19.369 57.0857 19.369H55.9657V20.482H57.0437ZM62.9294 19.432H62.1594V21H61.4874V17.29H62.1594V18.858H62.9434L64.1474 17.29H64.8684L63.4614 19.075L64.9664 21H64.1754L62.9294 19.432ZM68.198 19.075C68.6787 19.1963 68.919 19.4973 68.919 19.978C68.919 20.3047 68.7953 20.5567 68.548 20.734C68.3053 20.9113 67.9413 21 67.456 21H65.671V17.29H67.393C67.8317 17.29 68.1747 17.374 68.422 17.542C68.6693 17.7053 68.793 17.9387 68.793 18.242C68.793 18.438 68.7393 18.6083 68.632 18.753C68.5293 18.893 68.3847 19.0003 68.198 19.075ZM66.329 18.886H67.337C67.5937 18.886 67.7873 18.8393 67.918 18.746C68.0533 18.6527 68.121 18.5173 68.121 18.34C68.121 17.9853 67.8597 17.808 67.337 17.808H66.329V18.886ZM67.407 20.482C67.687 20.482 67.897 20.4377 68.037 20.349C68.177 20.2603 68.247 20.1227 68.247 19.936C68.247 19.7447 68.1817 19.6023 68.051 19.509C67.925 19.4157 67.7243 19.369 67.449 19.369H66.329V20.482H67.407ZM71.2938 17.255C71.8072 17.255 72.1992 17.381 72.4698 17.633C72.7452 17.885 72.8828 18.2607 72.8828 18.76V21H72.2458V20.51C72.1338 20.6827 71.9728 20.8157 71.7628 20.909C71.5575 20.9977 71.3125 21.042 71.0278 21.042C70.6125 21.042 70.2788 20.9417 70.0268 20.741C69.7795 20.5403 69.6558 20.2767 69.6558 19.95C69.6558 19.6233 69.7748 19.362 70.0128 19.166C70.2508 18.9653 70.6288 18.865 71.1468 18.865H72.2108V18.732C72.2108 18.4427 72.1268 18.221 71.9588 18.067C71.7908 17.913 71.5435 17.836 71.2168 17.836C70.9975 17.836 70.7828 17.8733 70.5728 17.948C70.3628 18.018 70.1855 18.1137 70.0408 18.235L69.7608 17.731C69.9522 17.577 70.1808 17.4603 70.4468 17.381C70.7128 17.297 70.9952 17.255 71.2938 17.255ZM71.1398 20.524C71.3965 20.524 71.6182 20.468 71.8048 20.356C71.9915 20.2393 72.1268 20.076 72.2108 19.866V19.348H71.1748C70.6055 19.348 70.3208 19.5393 70.3208 19.922C70.3208 20.1087 70.3932 20.2557 70.5378 20.363C70.6825 20.4703 70.8832 20.524 71.1398 20.524ZM77.8659 20.412V21.861H77.2359V21H74.1349V21.861H73.4979V20.412H73.6939C73.9319 20.398 74.0952 20.23 74.1839 19.908C74.2726 19.586 74.3332 19.131 74.3659 18.543L74.4219 17.29H77.2989V20.412H77.8659ZM74.9819 18.592C74.9632 19.0587 74.9236 19.446 74.8629 19.754C74.8069 20.0573 74.7019 20.2767 74.5479 20.412H76.6269V17.878H75.0169L74.9819 18.592ZM80.7083 17.255C81.0677 17.255 81.3897 17.3343 81.6743 17.493C81.959 17.6517 82.1807 17.8733 82.3393 18.158C82.5027 18.4427 82.5843 18.7717 82.5843 19.145C82.5843 19.5183 82.5027 19.8497 82.3393 20.139C82.1807 20.4237 81.959 20.6453 81.6743 20.804C81.3897 20.9627 81.0677 21.042 80.7083 21.042C80.4423 21.042 80.1973 20.9907 79.9733 20.888C79.754 20.7853 79.5673 20.636 79.4133 20.44V22.358H78.7413V17.29H79.3853V17.878C79.5347 17.6727 79.7237 17.5187 79.9523 17.416C80.181 17.3087 80.433 17.255 80.7083 17.255ZM80.6523 20.454C80.8903 20.454 81.1027 20.4003 81.2893 20.293C81.4807 20.181 81.63 20.027 81.7373 19.831C81.8493 19.6303 81.9053 19.4017 81.9053 19.145C81.9053 18.8883 81.8493 18.662 81.7373 18.466C81.63 18.2653 81.4807 18.1113 81.2893 18.004C81.1027 17.8967 80.8903 17.843 80.6523 17.843C80.419 17.843 80.2067 17.899 80.0153 18.011C79.8287 18.1183 79.6793 18.27 79.5673 18.466C79.46 18.662 79.4063 18.8883 79.4063 19.145C79.4063 19.4017 79.46 19.6303 79.5673 19.831C79.6747 20.027 79.824 20.181 80.0153 20.293C80.2067 20.4003 80.419 20.454 80.6523 20.454ZM84.8495 17.255C85.3628 17.255 85.7548 17.381 86.0255 17.633C86.3008 17.885 86.4385 18.2607 86.4385 18.76V21H85.8015V20.51C85.6895 20.6827 85.5285 20.8157 85.3185 20.909C85.1132 20.9977 84.8682 21.042 84.5835 21.042C84.1682 21.042 83.8345 20.9417 83.5825 20.741C83.3352 20.5403 83.2115 20.2767 83.2115 19.95C83.2115 19.6233 83.3305 19.362 83.5685 19.166C83.8065 18.9653 84.1845 18.865 84.7025 18.865H85.7665V18.732C85.7665 18.4427 85.6825 18.221 85.5145 18.067C85.3465 17.913 85.0992 17.836 84.7725 17.836C84.5532 17.836 84.3385 17.8733 84.1285 17.948C83.9185 18.018 83.7412 18.1137 83.5965 18.235L83.3165 17.731C83.5078 17.577 83.7365 17.4603 84.0025 17.381C84.2685 17.297 84.5508 17.255 84.8495 17.255ZM84.6955 20.524C84.9522 20.524 85.1738 20.468 85.3605 20.356C85.5472 20.2393 85.6825 20.076 85.7665 19.866V19.348H84.7305C84.1612 19.348 83.8765 19.5393 83.8765 19.922C83.8765 20.1087 83.9488 20.2557 84.0935 20.363C84.2382 20.4703 84.4388 20.524 84.6955 20.524ZM90.4136 17.878H89.0556V21H88.3836V17.878H87.0256V17.29H90.4136V17.878ZM94.2896 19.166C94.2896 19.2173 94.285 19.285 94.2756 19.369H91.2656C91.3076 19.6957 91.45 19.9593 91.6926 20.16C91.94 20.356 92.2456 20.454 92.6096 20.454C93.053 20.454 93.41 20.3047 93.6806 20.006L94.0516 20.44C93.8836 20.636 93.6736 20.7853 93.4216 20.888C93.1743 20.9907 92.8966 21.042 92.5886 21.042C92.1966 21.042 91.849 20.9627 91.5456 20.804C91.2423 20.6407 91.0066 20.4143 90.8386 20.125C90.6753 19.8357 90.5936 19.509 90.5936 19.145C90.5936 18.7857 90.673 18.4613 90.8316 18.172C90.995 17.8827 91.2166 17.6587 91.4966 17.5C91.7813 17.3367 92.101 17.255 92.4556 17.255C92.8103 17.255 93.1253 17.3367 93.4006 17.5C93.6806 17.6587 93.8976 17.8827 94.0516 18.172C94.2103 18.4613 94.2896 18.7927 94.2896 19.166ZM92.4556 17.822C92.1336 17.822 91.863 17.92 91.6436 18.116C91.429 18.312 91.303 18.5687 91.2656 18.886H93.6456C93.6083 18.5733 93.48 18.319 93.2606 18.123C93.046 17.9223 92.7776 17.822 92.4556 17.822Z" fill="#3FFFD8"/>
<path d="M59.0569 12.166C59.0569 12.2173 59.0522 12.285 59.0429 12.369H56.0329C56.0749 12.6957 56.2172 12.9593 56.4599 13.16C56.7072 13.356 57.0129 13.454 57.3769 13.454C57.8202 13.454 58.1772 13.3047 58.4479 13.006L58.8189 13.44C58.6509 13.636 58.4409 13.7853 58.1889 13.888C57.9416 13.9907 57.6639 14.042 57.3559 14.042C56.9639 14.042 56.6162 13.9627 56.3129 13.804C56.0096 13.6407 55.7739 13.4143 55.6059 13.125C55.4426 12.8357 55.3609 12.509 55.3609 12.145C55.3609 11.7857 55.4402 11.4613 55.5989 11.172C55.7622 10.8827 55.9839 10.6587 56.2639 10.5C56.5486 10.3367 56.8682 10.255 57.2229 10.255C57.5776 10.255 57.8926 10.3367 58.1679 10.5C58.4479 10.6587 58.6649 10.8827 58.8189 11.172C58.9776 11.4613 59.0569 11.7927 59.0569 12.166ZM57.2229 10.822C56.9009 10.822 56.6302 10.92 56.4109 11.116C56.1962 11.312 56.0702 11.5687 56.0329 11.886H58.4129C58.3756 11.5733 58.2472 11.319 58.0279 11.123C57.8132 10.9223 57.5449 10.822 57.2229 10.822ZM46.6388 17.255C47.1055 17.255 47.4742 17.3903 47.7448 17.661C48.0202 17.9317 48.1578 18.333 48.1578 18.865V21H47.4858V18.942C47.4858 18.5827 47.4018 18.312 47.2338 18.13C47.0705 17.948 46.8348 17.857 46.5268 17.857C46.1862 17.857 45.9155 17.9643 45.7148 18.179C45.5142 18.389 45.4138 18.6923 45.4138 19.089V21H44.7418V18.942C44.7418 18.5827 44.6578 18.312 44.4898 18.13C44.3265 17.948 44.0908 17.857 43.7828 17.857C43.4422 17.857 43.1715 17.9643 42.9708 18.179C42.7702 18.389 42.6698 18.6923 42.6698 19.089V21H41.9978V17.29H42.6418V17.843C42.7772 17.6517 42.9545 17.507 43.1738 17.409C43.3932 17.3063 43.6428 17.255 43.9228 17.255C44.2122 17.255 44.4688 17.3133 44.6928 17.43C44.9168 17.5467 45.0895 17.717 45.2108 17.941C45.3508 17.7263 45.5445 17.5583 45.7918 17.437C46.0438 17.3157 46.3262 17.255 46.6388 17.255ZM51.0318 21.042C50.6538 21.042 50.3155 20.9603 50.0168 20.797C49.7228 20.6337 49.4918 20.4097 49.3238 20.125C49.1558 19.8357 49.0718 19.509 49.0718 19.145C49.0718 18.781 49.1558 18.4567 49.3238 18.172C49.4918 17.8827 49.7228 17.6587 50.0168 17.5C50.3155 17.3367 50.6538 17.255 51.0318 17.255C51.3678 17.255 51.6665 17.3227 51.9278 17.458C52.1938 17.5933 52.3992 17.7893 52.5438 18.046L52.0328 18.375C51.9162 18.1977 51.7715 18.0647 51.5988 17.976C51.4262 17.8873 51.2348 17.843 51.0248 17.843C50.7822 17.843 50.5628 17.8967 50.3668 18.004C50.1755 18.1113 50.0238 18.2653 49.9118 18.466C49.8045 18.662 49.7508 18.8883 49.7508 19.145C49.7508 19.4063 49.8045 19.6373 49.9118 19.838C50.0238 20.034 50.1755 20.1857 50.3668 20.293C50.5628 20.4003 50.7822 20.454 51.0248 20.454C51.2348 20.454 51.4262 20.4097 51.5988 20.321C51.7715 20.2323 51.9162 20.0993 52.0328 19.922L52.5438 20.244C52.3992 20.5007 52.1938 20.699 51.9278 20.839C51.6665 20.9743 51.3678 21.042 51.0318 21.042Z" fill="#FF598E"/>
<path d="M67.9902 0C49.4182 0 34.3604 7.2693 34.3604 16.2366C34.3604 21.2484 39.0648 25.7321 46.4595 28.7094C45.7567 29.4997 44.9443 30.3135 43.9959 31.1038C40.3948 34.1086 36.7182 35.2941 34.5493 35.7988C37.4475 36.1235 42.0725 36.2487 47.3966 34.625C50.4913 33.6821 53.0155 32.3949 54.9388 31.2056C58.9517 32.0233 63.3614 32.4732 67.9902 32.4732C86.5622 32.4732 101.62 25.2039 101.62 16.2366C101.62 7.2693 86.5622 0 67.9902 0Z" stroke="white" stroke-width="0.6" stroke-miterlimit="10" stroke-linecap="round" stroke-linejoin="round"/>
</g>
<defs>
<linearGradient id="paint0_linear" x1="4.91799" y1="33.8731" x2="28.8961" y2="33.8731" gradientUnits="userSpaceOnUse">
<stop stop-color="#3FFFD8"/>
<stop offset="0.4888" stop-color="#B9C3FC"/>
<stop offset="1" stop-color="#FF7EA7"/>
</linearGradient>
<linearGradient id="paint1_linear" x1="115.83" y1="74.5577" x2="130.01" y2="36.776" gradientUnits="userSpaceOnUse">
<stop stop-color="#3FFFD8"/>
<stop offset="0.4888" stop-color="#B9C3FC"/>
<stop offset="1" stop-color="#FF7EA7"/>
</linearGradient>
<linearGradient id="paint2_linear" x1="112.379" y1="72.7241" x2="126.327" y2="35.5589" gradientUnits="userSpaceOnUse">
<stop stop-color="#3FFFD8"/>
<stop offset="0.4888" stop-color="#B9C3FC"/>
<stop offset="1" stop-color="#FF7EA7"/>
</linearGradient>
<linearGradient id="paint3_linear" x1="114.658" y1="73.5794" x2="128.606" y2="36.4142" gradientUnits="userSpaceOnUse">
<stop stop-color="#3FFFD8"/>
<stop offset="0.4888" stop-color="#B9C3FC"/>
<stop offset="1" stop-color="#FF7EA7"/>
</linearGradient>
<linearGradient id="paint4_linear" x1="109.848" y1="71.774" x2="123.796" y2="34.6086" gradientUnits="userSpaceOnUse">
<stop stop-color="#3FFFD8"/>
<stop offset="0.4888" stop-color="#B9C3FC"/>
<stop offset="1" stop-color="#FF7EA7"/>
</linearGradient>
<linearGradient id="paint5_linear" x1="24.0488" y1="41.4107" x2="27.5331" y2="41.4107" gradientUnits="userSpaceOnUse">
<stop stop-color="#3FFFD8"/>
<stop offset="0.4888" stop-color="#B9C3FC"/>
<stop offset="1" stop-color="#FF7EA7"/>
</linearGradient>
<clipPath id="clip0">
<rect width="140" height="144" fill="white"/>
</clipPath>
</defs>
</svg>
