<svg width="113" height="44" viewBox="0 0 113 44" fill="none" xmlns="http://www.w3.org/2000/svg">
<path d="M0.967 33.297L0.67 29.832L3.013 29.7C4.971 29.568 5.95 28.49 5.95 26.466V9.735H10.174V26.433C10.174 30.613 8.007 32.857 3.673 33.165L0.967 33.297ZM16.3275 38.94L19.2975 32.34L12.5985 16.863H16.9875L21.5085 28.149L26.1285 16.863H30.2865L20.5845 38.94H16.3275ZM40.6606 33.33C38.8346 33.33 37.1406 33.099 35.5786 32.637C34.0166 32.153 32.6966 31.504 31.6186 30.69L32.9056 27.357C33.9836 28.127 35.1606 28.721 36.4366 29.139C37.7346 29.557 39.1426 29.766 40.6606 29.766C42.3986 29.766 43.6636 29.48 44.4556 28.908C45.2476 28.314 45.6436 27.555 45.6436 26.631C45.6436 25.861 45.3576 25.256 44.7856 24.816C44.2356 24.376 43.2786 24.013 41.9146 23.727L38.2846 22.968C34.1486 22.088 32.0806 19.965 32.0806 16.599C32.0806 15.147 32.4656 13.882 33.2356 12.804C34.0056 11.726 35.0726 10.89 36.4366 10.296C37.8006 9.702 39.3736 9.405 41.1556 9.405C42.7396 9.405 44.2246 9.647 45.6106 10.131C46.9966 10.593 48.1516 11.253 49.0756 12.111L47.7886 15.279C45.9626 13.739 43.7406 12.969 41.1226 12.969C39.6046 12.969 38.4166 13.288 37.5586 13.926C36.7006 14.564 36.2716 15.4 36.2716 16.434C36.2716 17.226 36.5356 17.864 37.0636 18.348C37.5916 18.81 38.4936 19.173 39.7696 19.437L43.3666 20.196C45.5446 20.658 47.1616 21.384 48.2176 22.374C49.2956 23.364 49.8346 24.684 49.8346 26.334C49.8346 27.72 49.4606 28.941 48.7126 29.997C47.9646 31.053 46.8976 31.878 45.5116 32.472C44.1476 33.044 42.5306 33.33 40.6606 33.33ZM60.4229 33.33C58.7509 33.33 57.2989 32.989 56.0669 32.307C54.8349 31.625 53.8779 30.657 53.1959 29.403C52.5139 28.127 52.1729 26.631 52.1729 24.915C52.1729 23.199 52.5139 21.714 53.1959 20.46C53.8779 19.206 54.8349 18.238 56.0669 17.556C57.2989 16.874 58.7509 16.533 60.4229 16.533C62.0949 16.533 63.5469 16.874 64.7789 17.556C66.0109 18.238 66.9679 19.206 67.6499 20.46C68.3319 21.714 68.6729 23.199 68.6729 24.915C68.6729 26.631 68.3319 28.127 67.6499 29.403C66.9679 30.657 66.0109 31.625 64.7789 32.307C63.5469 32.989 62.0949 33.33 60.4229 33.33ZM60.4229 30.195C61.6549 30.195 62.6449 29.755 63.3929 28.875C64.1409 27.973 64.5149 26.653 64.5149 24.915C64.5149 23.155 64.1409 21.846 63.3929 20.988C62.6449 20.108 61.6549 19.668 60.4229 19.668C59.1909 19.668 58.2009 20.108 57.4529 20.988C56.7049 21.846 56.3309 23.155 56.3309 24.915C56.3309 26.653 56.7049 27.973 57.4529 28.875C58.2009 29.755 59.1909 30.195 60.4229 30.195ZM72.0776 38.94V16.863H76.1036V19.437C76.5656 18.557 77.2586 17.853 78.1826 17.325C79.1286 16.797 80.1956 16.533 81.3836 16.533C82.7916 16.533 84.0236 16.874 85.0796 17.556C86.1576 18.238 86.9936 19.206 87.5876 20.46C88.1816 21.692 88.4786 23.177 88.4786 24.915C88.4786 26.631 88.1816 28.127 87.5876 29.403C86.9936 30.657 86.1686 31.625 85.1126 32.307C84.0566 32.989 82.8136 33.33 81.3836 33.33C80.2396 33.33 79.2056 33.088 78.2816 32.604C77.3796 32.098 76.6866 31.427 76.2026 30.591V38.94H72.0776ZM80.2286 30.195C81.4606 30.195 82.4506 29.755 83.1986 28.875C83.9466 27.973 84.3206 26.653 84.3206 24.915C84.3206 23.155 83.9466 21.846 83.1986 20.988C82.4506 20.108 81.4606 19.668 80.2286 19.668C78.9966 19.668 78.0066 20.108 77.2586 20.988C76.5106 21.846 76.1366 23.155 76.1366 24.915C76.1366 26.653 76.5106 27.973 77.2586 28.875C78.0066 29.755 78.9966 30.195 80.2286 30.195Z" fill="url(#paint0_linear_23_54)"/>
<line x1="27" y1="43" x2="113" y2="43" stroke="#FD62D2" stroke-width="2"/>
<defs>
<linearGradient id="paint0_linear_23_54" x1="12.8209" y1="17" x2="97" y2="17" gradientUnits="userSpaceOnUse">
<stop stop-color="#FC5C7D"/>
<stop offset="1" stop-color="#6A82FB"/>
</linearGradient>
</defs>
</svg>
