<svg width="128" height="94" viewBox="0 0 128 94" fill="none" xmlns="http://www.w3.org/2000/svg">
<g filter="url(#filter0_d)">
<path d="M90.0202 61.5122L99.3333 78.0568C96.0856 81.4392 61.9774 67.9595 43.2575 68.8185C26.5648 69.5845 11 79.1596 11 79.1596C11 79.1596 32.3611 64.0994 40.399 61.964C56.1161 57.7885 86.8268 69.9447 86.8268 69.9447L80.6133 59.4945L90.0202 61.5122Z" stroke="white" stroke-width="0.8"/>
<path d="M83.0853 43.7156L74.48 42.3097L64.9477 25.7836L53.0245 43.7156C67.8291 43.7156 75.6479 49.8295 92.1568 48.3834C105.493 47.2152 117 39.9557 117 39.9557C117 39.9557 97.6598 55.9032 87.8767 55.9032C77.3351 55.9032 45.1053 46.3335 39.2671 52.9708L64.9477 11.6116L83.0853 43.7156Z" stroke="white" stroke-width="0.8"/>
<g clip-path="url(#clip0)">
<path d="M43.1265 36.0307C47.8093 38.8411 53.9816 37.3179 56.9126 32.6286C59.8436 27.9393 58.4236 21.8595 53.7408 19.0491C49.058 16.2387 42.8857 17.7619 39.9547 22.4512C37.0302 27.1415 38.4491 33.2164 43.1265 36.0307ZM52.6235 20.8367C56.3204 23.0554 57.4415 27.8552 55.1276 31.5573C52.8136 35.2594 47.9407 36.4619 44.2438 34.2432C40.5469 32.0244 39.4258 27.2246 41.7397 23.5225C44.0568 19.8247 48.9257 18.6231 52.6235 20.8367Z" fill="white"/>
<path d="M45.0727 27.2757C45.3118 25.4163 47.0238 24.077 48.8907 24.2768C50.7575 24.4767 52.0833 26.1412 51.8442 28.0007C51.605 29.8601 49.893 31.1995 48.0262 30.9996C46.1593 30.7997 44.8336 29.1352 45.0727 27.2757Z" stroke="white" stroke-width="0.8"/>
<path d="M42.9025 38.3538L43.5735 36.2984L42.681 35.7628L41.1175 37.2825L40.0002 39.07C39.6916 39.5637 39.8411 40.2036 40.334 40.4995C40.827 40.7953 41.4767 40.635 41.7852 40.1413L42.9025 38.3538Z" fill="white"/>
<path d="M55.7511 17.7972L54.1875 19.3169L53.295 18.7813L53.966 16.7259L55.0833 14.9384C55.3919 14.4447 56.0416 14.2844 56.5345 14.5803C57.0274 14.8761 57.1769 15.516 56.8684 16.0097L55.7511 17.7972Z" fill="white"/>
<path d="M52.1754 38.9103L51.1899 37.0154L50.1639 37.2686L50.1228 39.4168L50.5953 41.4383C50.7258 41.9964 51.2907 42.3355 51.8573 42.1957C52.4239 42.0558 52.7775 41.4901 52.6472 40.9319L52.1754 38.9103Z" fill="white"/>
<path d="M46.7457 15.663L46.7045 17.8113L45.6786 18.0644L44.693 16.1696L44.2212 14.1479C44.0909 13.5898 44.4446 13.0241 45.0111 12.8841C45.5777 12.7444 46.1427 13.0835 46.2732 13.6416L46.7457 15.663Z" fill="white"/>
<path d="M59.2571 32.8062L57.1927 32.1817L56.6341 33.0755L58.1398 34.5937L59.9249 35.665C60.4178 35.9608 61.0675 35.8005 61.376 35.3069C61.6846 34.8133 61.5351 34.1733 61.0421 33.8775L59.2571 32.8062Z" fill="white"/>
<path d="M38.7287 20.4861L40.2344 22.0043L39.6758 22.898L37.6114 22.2736L35.8264 21.2023C35.3335 20.9065 35.184 20.2665 35.4925 19.7729C35.8011 19.2792 36.4507 19.1189 36.9437 19.4148L38.7287 20.4861Z" fill="white"/>
<path d="M59.9987 23.6168L58.0645 24.6289L58.3005 25.6395L60.471 25.6387L62.5232 25.1319C63.0898 24.9919 63.4434 24.4262 63.3131 23.8681C63.1827 23.31 62.6177 22.9709 62.0511 23.1107L59.9987 23.6168Z" fill="white"/>
<path d="M36.3975 29.4409L38.5679 29.4401L38.804 30.4507L36.8698 31.4629L34.8174 31.969C34.2508 32.1087 33.6858 31.7696 33.5553 31.2116C33.4251 30.6534 33.7787 30.0877 34.3453 29.9478L36.3975 29.4409Z" fill="white"/>
<path d="M44.6904 34.5109L43.7979 33.9752L46.0325 30.4001L46.925 30.9358L44.6904 34.5109Z" fill="white"/>
<path d="M50.8359 24.6796L49.9434 24.144L52.178 20.5689L53.0705 21.1045L50.8359 24.6796Z" fill="white"/>
<path d="M50.7158 34.9939L49.6897 35.2472L48.7453 31.2041L49.7715 30.9509L50.7158 34.9939Z" fill="white"/>
<path d="M48.1211 23.8757L47.0949 24.129L46.1506 20.0859L47.1768 19.8327L48.1211 23.8757Z" fill="white"/>
<path d="M54.8486 32.0041L51.2786 29.8615L51.8372 28.9677L55.4073 31.1103L54.8486 32.0041Z" fill="white"/>
<path d="M45.0312 26.1119L41.4612 23.9692L42.0198 23.0755L45.5899 25.2181L45.0312 26.1119Z" fill="white"/>
<path d="M56.2466 26.1454L52.1421 27.1583L51.906 26.1475L56.0105 25.1346L56.2466 26.1454Z" fill="white"/>
<path d="M44.9605 28.9322L40.8559 29.9451L40.6198 28.9344L44.7244 27.9215L44.9605 28.9322Z" fill="white"/>
</g>
</g>
<defs>
<filter id="filter0_d" x="0.769531" y="0" width="126.485" height="93.5003" filterUnits="userSpaceOnUse" color-interpolation-filters="sRGB">
<feFlood flood-opacity="0" result="BackgroundImageFix"/>
<feColorMatrix in="SourceAlpha" type="matrix" values="0 0 0 0 0 0 0 0 0 0 0 0 0 0 0 0 0 0 127 0"/>
<feOffset dy="4"/>
<feGaussianBlur stdDeviation="5"/>
<feColorMatrix type="matrix" values="0 0 0 0 1 0 0 0 0 1 0 0 0 0 1 0 0 0 0.4 0"/>
<feBlend mode="normal" in2="BackgroundImageFix" result="effect1_dropShadow"/>
<feBlend mode="normal" in="SourceGraphic" in2="effect1_dropShadow" result="shape"/>
</filter>
<clipPath id="clip0">
<rect width="20.3117" height="31.5247" fill="white" transform="matrix(-0.857433 -0.514595 0.530026 -0.847981 44.8076 43.1846)"/>
</clipPath>
</defs>
</svg>
