<svg width="65" height="46" viewBox="0 0 65 46" fill="none" xmlns="http://www.w3.org/2000/svg">
<path d="M47.9643 34.1434L53.4993 44.3198C51.5691 46.4002 31.2975 38.1091 20.1717 38.6374C10.2507 39.1086 1 44.9981 1 44.9981C1 44.9981 13.6956 35.7347 18.4728 34.4213C27.814 31.8531 46.0663 39.3301 46.0663 39.3301L42.3734 32.9023L47.9643 34.1434Z" stroke="black" stroke-width="0.8"/>
<path d="M43.8434 23.1979L38.729 22.3331L33.0636 12.1682L25.9773 23.1979C34.7761 23.1979 39.4231 26.9585 49.2349 26.069C57.1608 25.3504 64.0002 20.8852 64.0002 20.8852C64.0002 20.8852 52.5055 30.6943 46.6911 30.6943C40.4258 30.6943 21.2706 24.8081 17.8008 28.8906L33.0636 3.45117L43.8434 23.1979Z" stroke="black" stroke-width="0.8"/>
<g clip-path="url(#clip0)">
<path d="M20.0955 18.4696C22.8786 20.1983 26.547 19.2614 28.289 16.377C30.031 13.4927 29.187 9.75313 26.4038 8.0245C23.6207 6.29586 19.9524 7.23274 18.2103 10.1171C16.4722 13.002 17.3155 16.7386 20.0955 18.4696ZM25.7398 9.12398C27.937 10.4887 28.6033 13.441 27.2281 15.7181C25.8528 17.9952 22.9567 18.7349 20.7595 17.3701C18.5623 16.0054 17.896 13.0531 19.2712 10.776C20.6484 8.50152 23.5421 7.76248 25.7398 9.12398Z" fill="black"/>
<path d="M21.4087 13.1025C21.5407 12.0401 22.4832 11.2841 23.5008 11.3969C24.5183 11.5096 25.2499 12.4511 25.1179 13.5135C24.9859 14.5758 24.0434 15.3318 23.0258 15.2191C22.0083 15.1063 21.2767 14.1648 21.4087 13.1025Z" stroke="black" stroke-width="0.8"/>
<path d="M19.9609 19.8996L20.3597 18.6354L19.8293 18.3059L18.9 19.2407L18.236 20.3401C18.0526 20.6438 18.1414 21.0374 18.4344 21.2194C18.7274 21.4013 19.1135 21.3027 19.2969 20.9991L19.9609 19.8996Z" fill="black"/>
<path d="M27.5976 7.25403L26.6684 8.18878L26.1379 7.85931L26.5367 6.59509L27.2008 5.4956C27.3842 5.19197 27.7703 5.09335 28.0632 5.27532C28.3562 5.45729 28.4451 5.85091 28.2617 6.15454L27.5976 7.25403Z" fill="black"/>
<path d="M25.4728 20.2413L24.887 19.0758L24.2773 19.2315L24.2528 20.5529L24.5336 21.7962C24.6112 22.1395 24.9469 22.3481 25.2837 22.2621C25.6204 22.1761 25.8306 21.8281 25.7532 21.4848L25.4728 20.2413Z" fill="black"/>
<path d="M22.2455 5.94233L22.2211 7.26368L21.6113 7.41941L21.0256 6.2539L20.7451 5.01042C20.6677 4.66712 20.8779 4.31914 21.2146 4.23308C21.5514 4.14713 21.8872 4.35569 21.9647 4.69895L22.2455 5.94233Z" fill="black"/>
<path d="M29.6821 16.4863L28.4551 16.1022L28.1231 16.652L29.018 17.5858L30.0789 18.2447C30.3719 18.4267 30.758 18.3281 30.9414 18.0245C31.1248 17.7209 31.0359 17.3272 30.743 17.1453L29.6821 16.4863Z" fill="black"/>
<path d="M17.482 8.90954L18.3769 9.84336L18.0449 10.3931L16.818 10.009L15.7571 9.35008C15.4641 9.16811 15.3753 8.7745 15.5587 8.47087C15.742 8.16724 16.1282 8.06863 16.4211 8.2506L17.482 8.90954Z" fill="black"/>
<path d="M30.1231 10.8337L28.9735 11.4562L29.1138 12.0778L30.4038 12.0773L31.6235 11.7656C31.9602 11.6795 32.1704 11.3315 32.093 10.9882C32.0154 10.645 31.6796 10.4364 31.3429 10.5224L30.1231 10.8337Z" fill="black"/>
<path d="M16.0946 14.4179L17.3845 14.4174L17.5248 15.039L16.3752 15.6615L15.1554 15.9728C14.8187 16.0588 14.4829 15.8502 14.4054 15.5069C14.3279 15.1637 14.5381 14.8157 14.8748 14.7296L16.0946 14.4179Z" fill="black"/>
<path d="M21.0234 17.5352L20.493 17.2057L21.8211 15.0067L22.3515 15.3362L21.0234 17.5352Z" fill="black"/>
<path d="M24.6777 11.4883L24.1473 11.1588L25.4754 8.95983L26.0058 9.28931L24.6777 11.4883Z" fill="black"/>
<path d="M24.6059 17.832L23.996 17.9877L23.4347 15.5009L24.0446 15.3452L24.6059 17.832Z" fill="black"/>
<path d="M23.0629 10.9941L22.453 11.1498L21.8918 8.66303L22.5016 8.50727L23.0629 10.9941Z" fill="black"/>
<path d="M27.0625 15.9941L24.9407 14.6763L25.2727 14.1265L27.3945 15.4444L27.0625 15.9941Z" fill="black"/>
<path d="M21.2266 12.3691L19.1047 11.0513L19.4368 10.5015L21.5586 11.8194L21.2266 12.3691Z" fill="black"/>
<path d="M27.8922 12.3904L25.4528 13.0134L25.3125 12.3917L27.7519 11.7687L27.8922 12.3904Z" fill="black"/>
<path d="M21.1852 14.1033L18.7457 14.7263L18.6054 14.1046L21.0449 13.4816L21.1852 14.1033Z" fill="black"/>
</g>
<defs>
<clipPath id="clip0">
<rect width="12.185" height="19.2088" fill="white" transform="matrix(-0.849479 -0.527623 0.516983 -0.855996 21.0938 22.8711)"/>
</clipPath>
</defs>
</svg>
