<svg width="39" height="38" viewBox="0 0 39 38" fill="none" xmlns="http://www.w3.org/2000/svg">
<path d="M19.0137 24.9375C22.2929 24.9375 24.9512 22.2792 24.9512 19C24.9512 15.7208 22.2929 13.0625 19.0137 13.0625C15.7345 13.0625 13.0762 15.7208 13.0762 19C13.0762 22.2792 15.7345 24.9375 19.0137 24.9375Z" stroke="black" stroke-width="1.2" stroke-miterlimit="10"/>
<path d="M25.5449 5.34375H12.4824C8.54739 5.34375 5.35742 8.53372 5.35742 12.4688V25.5312C5.35742 29.4663 8.54739 32.6562 12.4824 32.6562H25.5449C29.4799 32.6562 32.6699 29.4663 32.6699 25.5312V12.4688C32.6699 8.53372 29.4799 5.34375 25.5449 5.34375Z" stroke="black" stroke-width="1.2" stroke-linecap="round" stroke-linejoin="round"/>
<path d="M26.7324 13.0625C27.7162 13.0625 28.5137 12.265 28.5137 11.2812C28.5137 10.2975 27.7162 9.5 26.7324 9.5C25.7487 9.5 24.9512 10.2975 24.9512 11.2812C24.9512 12.265 25.7487 13.0625 26.7324 13.0625Z" fill="black"/>
</svg>
