<svg width="32" height="32" viewBox="0 0 32 32" fill="none" xmlns="http://www.w3.org/2000/svg">
<path d="M23.7985 22.5572C22.2131 23.9824 20.12 24.7723 17.8229 24.7723C12.7592 24.7723 9.04068 21.0537 9.04068 15.9482C9.04068 10.8427 12.6409 7.28061 17.8229 7.28061C20.0799 7.28061 22.2132 8.03233 23.8386 9.45751L24.9434 10.4076L29.8524 5.50049L28.6238 4.39202C25.7352 1.78373 21.9001 0.320312 17.8211 0.320312C8.72034 0.320312 2.11133 6.88745 2.11133 15.91C2.11133 24.8943 8.87869 31.6962 17.8211 31.6962C21.9765 31.6962 25.8517 30.2328 28.7038 27.5827L29.8906 26.4742L24.9052 21.5707L23.7985 22.5572Z" fill="black"/>
<path d="M17.5842 10.7637C18.9802 10.7637 20.3191 11.3183 21.3063 12.3055C22.2935 13.2926 22.8481 14.6315 22.8481 16.0276C22.8481 17.4237 22.2935 18.7626 21.3063 19.7497C20.3191 20.7369 18.9802 21.2915 17.5842 21.2915C16.1881 21.2915 14.8492 20.7369 13.862 19.7497C12.8748 18.7626 12.3203 17.4237 12.3203 16.0276C12.3203 14.6315 12.8748 13.2926 13.862 12.3055C14.8492 11.3183 16.1881 10.7637 17.5842 10.7637Z" fill="#FF3D2E"/>
</svg>
