<svg width="327" height="417" viewBox="0 0 327 417" fill="none" xmlns="http://www.w3.org/2000/svg">
<g clip-path="url(#clip0_1_7439)">
<path d="M0 40.0908C0 17.9994 17.9086 0.0908203 40 0.0908203H327V376.091C327 398.182 309.091 416.091 287 416.091H0V40.0908Z" fill="#03271E"/>
<path d="M626 -66.999V-10.1641H376.882C323.303 -10.0982 271.939 11.222 234.059 49.1182C196.179 87.0144 174.877 138.392 174.828 191.977V262.557H239.656V191.981C239.704 155.596 254.178 120.714 279.903 94.9854C305.227 69.6589 339.418 55.2366 375.183 54.7461L376.888 54.7334H626V182.085C625.919 250.729 598.617 316.538 550.085 365.076C501.552 413.615 435.749 440.92 367.113 441.001H118V384.166H367.118C420.686 384.1 472.041 362.788 509.919 324.905C547.797 287.023 569.106 235.662 569.172 182.088V111.507H504.344V182.146C504.295 218.531 489.821 253.412 464.097 279.14C438.371 304.868 403.493 319.344 367.112 319.392H118V191.98C118.065 123.325 145.359 57.4995 193.894 8.94727C242.049 -39.2256 307.213 -66.4902 375.278 -66.9922L376.887 -66.999H626ZM376.883 111.507C366.325 111.515 355.872 113.604 346.12 117.652C336.369 121.701 327.51 127.631 320.05 135.104C312.59 142.576 306.674 151.445 302.642 161.204C298.735 170.658 296.669 180.768 296.551 190.99L296.546 191.979V262.434H367.118C388.425 262.4 408.85 253.916 423.91 238.842C438.971 223.768 447.437 203.335 447.454 182.025V111.507H376.883Z" stroke="url(#paint0_radial_1_7439)" stroke-width="4"/>
</g>
<defs>
<radialGradient id="paint0_radial_1_7439" cx="0" cy="0" r="1" gradientUnits="userSpaceOnUse" gradientTransform="translate(312.151 98.4388) rotate(66.8672) scale(197.689)">
<stop stop-color="#A3E625" stop-opacity="0.9"/>
<stop offset="1" stop-color="#A3E625" stop-opacity="0.2"/>
</radialGradient>
<clipPath id="clip0_1_7439">
<path d="M0 40.0908C0 17.9994 17.9086 0.0908203 40 0.0908203H327V376.091C327 398.182 309.091 416.091 287 416.091H0V40.0908Z" fill="white"/>
</clipPath>
</defs>
</svg>
