<svg width="1126" height="379" viewBox="0 0 1126 379" fill="none" xmlns="http://www.w3.org/2000/svg">
<g clip-path="url(#clip0_1_6647)">
<path d="M0 60C0 26.8629 26.8629 0 60 0H1126V319C1126 352.137 1099.14 379 1066 379H0V60Z" fill="#03271E"/>
<path d="M1124 -26V29.4092H880.768C828.432 29.4734 778.26 50.2988 741.259 87.3154C704.258 124.332 683.45 174.518 683.402 226.859V295.831H746.805V226.863C746.852 191.343 760.981 157.291 786.095 132.174C811.208 107.057 845.257 92.9259 880.772 92.8789H1124V217.199C1123.92 284.222 1097.26 348.477 1049.88 395.869C1002.49 443.262 938.243 469.921 871.228 470H628V414.591H871.232C923.557 414.527 973.721 393.71 1010.72 356.706C1047.43 319.991 1068.21 270.316 1068.59 218.428L1068.6 217.202V148.229H1005.2V217.259C1005.15 252.779 991.018 286.83 965.905 311.946C940.792 337.063 906.743 351.194 871.228 351.241H628V226.862C628.063 159.829 654.713 95.5578 702.102 48.1523C749.12 1.11716 812.744 -25.5031 879.202 -25.9932L880.772 -26H1124ZM880.769 148.229C870.451 148.237 860.237 150.277 850.708 154.233C841.18 158.189 832.524 163.984 825.234 171.285C817.945 178.587 812.164 187.253 808.224 196.789C804.406 206.027 802.388 215.906 802.272 225.896L802.268 226.86V295.712H871.233C892.053 295.679 912.01 287.389 926.727 272.659C941.443 257.93 949.716 237.963 949.732 217.141V148.229H880.769Z" stroke="url(#paint0_radial_1_6647)" stroke-width="4"/>
</g>
<defs>
<radialGradient id="paint0_radial_1_6647" cx="0" cy="0" r="1" gradientUnits="userSpaceOnUse" gradientTransform="translate(817.554 135.514) rotate(66.8672) scale(193.056)">
<stop stop-color="#A3E625" stop-opacity="0.9"/>
<stop offset="1" stop-color="#A3E625" stop-opacity="0.2"/>
</radialGradient>
<clipPath id="clip0_1_6647">
<path d="M0 60C0 26.8629 26.8629 0 60 0H1126V319C1126 352.137 1099.14 379 1066 379H0V60Z" fill="white"/>
</clipPath>
</defs>
</svg>
