<svg width="20" height="16" viewBox="0 0 20 16" fill="none" xmlns="http://www.w3.org/2000/svg">
<mask id="mask0_201_422" style="mask-type:luminance" maskUnits="userSpaceOnUse" x="0" y="0" width="20" height="16">
<rect y="0.5" width="20" height="15" fill="white"/>
</mask>
<g mask="url(#mask0_201_422)">
<path fill-rule="evenodd" clip-rule="evenodd" d="M0 0.5V15.5H20V0.5H0Z" fill="#FFB400"/>
<mask id="mask1_201_422" style="mask-type:luminance" maskUnits="userSpaceOnUse" x="0" y="0" width="20" height="16">
<path fill-rule="evenodd" clip-rule="evenodd" d="M0 0.5V15.5H20V0.5H0Z" fill="white"/>
</mask>
<g mask="url(#mask1_201_422)">
<path fill-rule="evenodd" clip-rule="evenodd" d="M0 0.5V4.25H20V0.5H0Z" fill="#C51918"/>
<path fill-rule="evenodd" clip-rule="evenodd" d="M0 11.75V15.5H20V11.75H0Z" fill="#C51918"/>
<rect x="3.12891" y="6.92188" width="0.7" height="3.64" fill="#F1F9FF"/>
<path d="M4.10938 6.64062H3.89941V6.9209H3.05957V6.64062H2.84961V6.29102H4.10938V6.64062Z" fill="#C88A02"/>
<path fill-rule="evenodd" clip-rule="evenodd" d="M3.89961 10.7722H4.10961V11.1222H2.84961V10.7722H3.05961V10.4922H3.89961V10.7722Z" fill="#C88A02"/>
<path fill-rule="evenodd" clip-rule="evenodd" d="M3.48023 6.3618C3.63257 6.3618 3.64805 6.30444 3.73792 6.21877C3.80771 6.15224 3.97023 6.06974 3.97023 5.9768C3.97023 5.76417 3.75085 5.5918 3.48023 5.5918C3.20961 5.5918 2.99023 5.76417 2.99023 5.9768C2.99023 6.08034 3.10216 6.14957 3.18679 6.21877C3.27595 6.29166 3.3414 6.3618 3.48023 6.3618Z" fill="#AD1619"/>
<path fill-rule="evenodd" clip-rule="evenodd" d="M2.84961 11.1211H4.10961V11.6811C4.10961 11.6811 3.95211 11.6111 3.79461 11.6111C3.63711 11.6111 3.47961 11.6811 3.47961 11.6811C3.47961 11.6811 3.32211 11.6111 3.16461 11.6111C3.00711 11.6111 2.84961 11.6811 2.84961 11.6811V11.1211Z" fill="#005BBF"/>
<mask id="mask2_201_422" style="mask-type:luminance" maskUnits="userSpaceOnUse" x="2" y="11" width="3" height="1">
<path fill-rule="evenodd" clip-rule="evenodd" d="M2.84961 11.1211H4.10961V11.6811C4.10961 11.6811 3.95211 11.6111 3.79461 11.6111C3.63711 11.6111 3.47961 11.6811 3.47961 11.6811C3.47961 11.6811 3.32211 11.6111 3.16461 11.6111C3.00711 11.6111 2.84961 11.6811 2.84961 11.6811V11.1211Z" fill="white"/>
</mask>
<g mask="url(#mask2_201_422)">
<path d="M2.83805 11.5706L2.81055 11.5036C2.92403 11.4531 3.03792 11.4277 3.15199 11.4277C3.22568 11.4277 3.26416 11.438 3.32958 11.4671C3.38705 11.4927 3.41683 11.5007 3.47968 11.5007C3.54252 11.5007 3.57231 11.4927 3.62977 11.4671C3.69519 11.438 3.73367 11.4277 3.80737 11.4277C3.92143 11.4277 4.03532 11.4531 4.14881 11.5036L4.1213 11.5706C4.01633 11.5239 3.91176 11.5007 3.80737 11.5007C3.74452 11.5007 3.71473 11.5086 3.65727 11.5342C3.59185 11.5633 3.55337 11.5736 3.47968 11.5736C3.40598 11.5736 3.3675 11.5633 3.30208 11.5342C3.24462 11.5086 3.21483 11.5007 3.15199 11.5007C3.04759 11.5007 2.94302 11.5239 2.83805 11.5706Z" fill="white"/>
<path d="M2.83805 11.3617L2.81055 11.2946C2.92403 11.2441 3.03792 11.2188 3.15199 11.2188C3.22568 11.2188 3.26416 11.229 3.32958 11.2581C3.38705 11.2837 3.41683 11.2917 3.47968 11.2917C3.54252 11.2917 3.57231 11.2837 3.62977 11.2581C3.69519 11.229 3.73367 11.2188 3.80737 11.2188C3.92143 11.2188 4.03532 11.2441 4.14881 11.2946L4.1213 11.3617C4.01633 11.3149 3.91176 11.2917 3.80737 11.2917C3.74452 11.2917 3.71473 11.2996 3.65727 11.3252C3.59185 11.3543 3.55337 11.3646 3.47968 11.3646C3.40598 11.3646 3.3675 11.3543 3.30208 11.3252C3.24462 11.2996 3.21483 11.2917 3.15199 11.2917C3.04759 11.2917 2.94302 11.3149 2.83805 11.3617Z" fill="white"/>
</g>
<rect x="9.99023" y="6.92188" width="0.7" height="3.64" fill="#F1F9FF"/>
<path d="M10.9688 6.64062H10.7588V6.9209H9.91895V6.64062H9.70898V6.29102H10.9688V6.64062Z" fill="#C88A02"/>
<path fill-rule="evenodd" clip-rule="evenodd" d="M10.759 10.7722H10.969V11.1222H9.70898V10.7722H9.91898V10.4922H10.759V10.7722Z" fill="#C88A02"/>
<path fill-rule="evenodd" clip-rule="evenodd" d="M10.3396 6.3618C10.4919 6.3618 10.5074 6.30444 10.5973 6.21877C10.6671 6.15224 10.8296 6.06974 10.8296 5.9768C10.8296 5.76417 10.6102 5.5918 10.3396 5.5918C10.069 5.5918 9.84961 5.76417 9.84961 5.9768C9.84961 6.08034 9.96153 6.14957 10.0462 6.21877C10.1353 6.29166 10.2008 6.3618 10.3396 6.3618Z" fill="#AD1619"/>
<path fill-rule="evenodd" clip-rule="evenodd" d="M9.70898 11.1211H10.969V11.6811C10.969 11.6811 10.8115 11.6111 10.654 11.6111C10.4965 11.6111 10.339 11.6811 10.339 11.6811C10.339 11.6811 10.1815 11.6111 10.024 11.6111C9.86648 11.6111 9.70898 11.6811 9.70898 11.6811V11.1211Z" fill="#005BBF"/>
<mask id="mask3_201_422" style="mask-type:luminance" maskUnits="userSpaceOnUse" x="9" y="11" width="2" height="1">
<path fill-rule="evenodd" clip-rule="evenodd" d="M9.70898 11.1211H10.969V11.6811C10.969 11.6811 10.8115 11.6111 10.654 11.6111C10.4965 11.6111 10.339 11.6811 10.339 11.6811C10.339 11.6811 10.1815 11.6111 10.024 11.6111C9.86648 11.6111 9.70898 11.6811 9.70898 11.6811V11.1211Z" fill="white"/>
</mask>
<g mask="url(#mask3_201_422)">
<path d="M9.69742 11.5706L9.66992 11.5036C9.78341 11.4531 9.8973 11.4277 10.0114 11.4277C10.0851 11.4277 10.1235 11.438 10.189 11.4671C10.2464 11.4927 10.2762 11.5007 10.3391 11.5007C10.4019 11.5007 10.4317 11.4927 10.4891 11.4671C10.5546 11.438 10.593 11.4277 10.6667 11.4277C10.7808 11.4277 10.8947 11.4531 11.0082 11.5036L10.9807 11.5706C10.8757 11.5239 10.7711 11.5007 10.6667 11.5007C10.6039 11.5007 10.5741 11.5086 10.5166 11.5342C10.4512 11.5633 10.4127 11.5736 10.3391 11.5736C10.2654 11.5736 10.2269 11.5633 10.1615 11.5342C10.104 11.5086 10.0742 11.5007 10.0114 11.5007C9.90696 11.5007 9.8024 11.5239 9.69742 11.5706Z" fill="white"/>
<path d="M9.69742 11.3617L9.66992 11.2946C9.78341 11.2441 9.8973 11.2188 10.0114 11.2188C10.0851 11.2188 10.1235 11.229 10.189 11.2581C10.2464 11.2837 10.2762 11.2917 10.3391 11.2917C10.4019 11.2917 10.4317 11.2837 10.4891 11.2581C10.5546 11.229 10.593 11.2188 10.6667 11.2188C10.7808 11.2188 10.8947 11.2441 11.0082 11.2946L10.9807 11.3617C10.8757 11.3149 10.7711 11.2917 10.6667 11.2917C10.6039 11.2917 10.5741 11.2996 10.5166 11.3252C10.4512 11.3543 10.4127 11.3646 10.3391 11.3646C10.2654 11.3646 10.2269 11.3543 10.1615 11.3252C10.104 11.2996 10.0742 11.2917 10.0114 11.2917C9.90696 11.2917 9.8024 11.3149 9.69742 11.3617Z" fill="white"/>
</g>
<path d="M2.74219 7.9209C3.21102 7.59803 4.46674 7.56911 5.01758 7.85352L4.75977 8.35156C4.48939 8.21213 3.87553 8.1853 3.44531 8.25684C3.51065 8.26825 3.58393 8.28008 3.66602 8.29297C3.71716 8.301 3.89763 8.3288 3.91211 8.33105C4.08396 8.35777 4.2012 8.39203 4.28809 8.45117C4.46546 8.57193 4.49181 8.78969 4.36523 8.9502C4.31179 9.01796 4.24147 9.06855 4.13574 9.12988C4.10188 9.14952 4.06552 9.17019 4.0166 9.19629C4.00574 9.20208 3.92155 9.24631 3.89648 9.25977C3.79573 9.31387 3.72907 9.35279 3.67969 9.38867C3.6023 9.44495 3.52271 9.49098 3.43262 9.53418C3.38495 9.55703 3.25021 9.61638 3.24609 9.61816C3.24325 9.61946 3.23994 9.6209 3.2373 9.62207C3.28585 9.68782 3.31445 9.76818 3.31445 9.86133C3.31438 10.009 3.24322 10.1479 3.11719 10.3008L2.6875 9.94629L2.64648 9.93359L2.62305 9.75488C2.58082 9.42416 2.72255 9.24089 3.01367 9.1084C3.02109 9.10503 3.15265 9.0474 3.19043 9.0293C3.25196 8.99979 3.30324 8.97096 3.35059 8.93652C3.39726 8.90258 3.44739 8.87001 3.50781 8.83496C3.1473 8.77704 2.95221 8.73429 2.80273 8.66992C2.44497 8.51578 2.39836 8.15772 2.74219 7.9209ZM8.73828 7.85352C9.28933 7.56934 10.544 7.59812 11.0127 7.9209C11.3566 8.15771 11.3099 8.51577 10.9521 8.66992C10.8027 8.73427 10.6075 8.77705 10.2471 8.83496C10.3075 8.86999 10.3576 8.9026 10.4043 8.93652C10.4516 8.97096 10.5029 8.99979 10.5645 9.0293C10.6021 9.04736 10.7338 9.10502 10.7412 9.1084C11.0324 9.24089 11.1741 9.42413 11.1318 9.75488L11.1084 9.93359L11.0674 9.94629L10.6377 10.3008C10.5117 10.1479 10.4415 10.009 10.4414 9.86133C10.4414 9.7682 10.4691 9.68781 10.5176 9.62207C10.5149 9.6209 10.5116 9.61946 10.5088 9.61816C10.5033 9.61577 10.3696 9.55688 10.3223 9.53418C10.2322 9.49098 10.1526 9.44495 10.0752 9.38867C10.0258 9.3528 9.95911 9.31385 9.8584 9.25977C9.83318 9.24623 9.74882 9.20191 9.73828 9.19629C9.68933 9.17017 9.65302 9.14953 9.61914 9.12988C9.51341 9.06855 9.44309 9.01796 9.38965 8.9502C9.26312 8.7897 9.28947 8.57192 9.4668 8.45117C9.55368 8.39202 9.67095 8.35778 9.84277 8.33105C9.85726 8.3288 10.0377 8.301 10.0889 8.29297C10.1709 8.28008 10.2442 8.26824 10.3096 8.25684C9.87932 8.18531 9.26544 8.21211 8.99512 8.35156L8.73828 7.85352Z" fill="#AD1619"/>
<path d="M3.701 8.25195L3.90762 8.2947V8.60266C3.68756 8.77824 3.12891 9.07418 3.12891 9.07418V8.25195H3.701Z" fill="#F1F9FF"/>
<path d="M10.1955 8.25195L9.98887 8.2947V8.60266C10.2089 8.77824 10.7676 9.07418 10.7676 9.07418V8.25195H10.1955Z" fill="#F1F9FF"/>
<path d="M6.95801 4.31836L6.95703 4.31934C7.34414 4.28187 7.72661 4.34742 8.10449 4.51465C8.49852 4.51465 8.87532 4.64397 9.23535 4.90234V5.00488L8.5293 5.71387C8.38824 6.10445 8.13726 6.1254 7.94141 6.19043C7.87739 6.21172 6.97556 6.23674 6.95508 6.2373V6.23535C5.58009 6.39395 5.36924 5.73023 5.36426 5.71387L4.6582 5.00488V4.90234C4.6582 4.90234 5.19811 4.51477 5.78906 4.51465C5.78906 4.51465 6.37615 4.26142 6.95801 4.31836Z" fill="#AD1619"/>
<path d="M8.04297 5.18945C8.05847 5.36335 8.1056 5.44533 8.17578 5.45703C8.27163 5.47263 8.34469 5.465 8.39551 5.4375L8.49902 5.38184V5.47656C8.53146 5.48 8.58705 5.47452 8.66309 5.45801L8.68457 5.55859L9.20117 5.07422L9.24902 5.125L8.60742 5.72949C8.51407 5.90144 8.46703 6.01501 8.4668 6.0625C8.4668 6.13466 8.27852 6.17769 7.91211 6.22168C7.62523 6.25611 7.28673 6.2768 7.00977 6.28027V6.2832C6.99795 6.2832 6.98572 6.28133 6.97363 6.28125C6.96211 6.28132 6.95072 6.2832 6.93945 6.2832V6.28027C6.66231 6.27683 6.32326 6.25615 6.03613 6.22168C5.66983 6.17769 5.48242 6.13465 5.48242 6.0625C5.48237 6.05237 5.47892 6.0395 5.47461 6.02344C5.4434 5.98129 5.4208 5.91823 5.4043 5.85742C5.38579 5.81953 5.36613 5.77611 5.34082 5.72949L5.19824 5.59473H5.19531V5.59277L4.69922 5.125L4.74707 5.07422L5.21289 5.51172L5.22559 5.45801C5.30161 5.47452 5.35723 5.48001 5.38965 5.47656V5.38184L5.49316 5.4375C5.54398 5.46498 5.61706 5.47262 5.71289 5.45703C5.78304 5.44529 5.8302 5.3633 5.8457 5.18945L5.87695 4.83789L5.98242 5.1748C6.03002 5.32734 6.10268 5.39453 6.20605 5.39453C6.30689 5.39452 6.34703 5.35776 6.35156 5.26465L6.36426 5L6.48438 5.23633C6.52748 5.3214 6.58738 5.36035 6.67188 5.36035C6.79257 5.36014 6.87305 5.25857 6.87305 5.10059H7.01562C7.01562 5.2586 7.09607 5.36018 7.2168 5.36035C7.30131 5.36035 7.36119 5.32142 7.4043 5.23633L7.52344 5L7.53613 5.26465C7.54066 5.35782 7.58172 5.39453 7.68262 5.39453C7.78599 5.39453 7.85865 5.32734 7.90625 5.1748L8.01172 4.83789L8.04297 5.18945ZM6.93555 5.91406C6.75137 5.92579 5.74254 5.993 5.58984 6.06445C5.58777 6.06542 5.58505 6.06463 5.58301 6.06543C5.60562 6.07375 5.63625 6.08398 5.6748 6.09277C5.76484 6.1133 5.89313 6.13412 6.04492 6.15234C6.34157 6.18795 6.69426 6.20911 6.97461 6.21094C7.25496 6.20908 7.60778 6.18795 7.9043 6.15234C8.05609 6.13411 8.18442 6.1133 8.27441 6.09277C8.31993 6.08238 8.35492 6.07215 8.37793 6.0625C8.38586 6.05916 8.39238 6.05633 8.39648 6.05371C8.39734 6.04129 8.40121 6.02686 8.40527 6.01074C8.37336 6.05993 8.33423 6.08879 8.28223 6.06445C8.12859 5.99283 7.11551 5.92551 6.93555 5.91406ZM7.94629 5.40527C7.89015 5.4768 7.81772 5.51767 7.73145 5.5293C8.17516 5.59149 8.49008 5.67871 8.50391 5.68262C8.50391 5.68262 8.49164 5.76436 8.46777 5.85352C8.49003 5.80633 8.51576 5.75116 8.54883 5.69043L8.55566 5.68164L8.63672 5.60352C8.52168 5.62395 8.43855 5.62373 8.39453 5.58789C8.3259 5.60779 8.24519 5.61065 8.15332 5.5957C8.05521 5.57963 7.98743 5.5136 7.94629 5.40527ZM5.94238 5.40527C5.90125 5.51358 5.83343 5.57961 5.73535 5.5957C5.64334 5.61068 5.56187 5.60788 5.49316 5.58789C5.45874 5.61588 5.401 5.62216 5.32227 5.61426L5.38867 5.67676C5.46632 5.6559 5.75789 5.58256 6.14746 5.52832C6.0655 5.51487 5.99641 5.47411 5.94238 5.40527ZM7.43848 5.41992C7.40324 5.45097 7.36236 5.47133 7.31738 5.48438C7.39115 5.48992 7.46336 5.49525 7.5332 5.50293C7.4936 5.48356 7.46124 5.4565 7.43848 5.41992ZM6.4502 5.41992C6.4282 5.45528 6.39713 5.48168 6.35938 5.50098C6.42652 5.4938 6.49575 5.48858 6.56641 5.4834C6.52334 5.4702 6.48419 5.44987 6.4502 5.41992ZM6.94434 5.34961C6.90921 5.40423 6.86252 5.44629 6.80469 5.47168C6.839 5.47061 6.8735 5.46914 6.9082 5.46875V5.46777H6.96484V5.46875C7.00515 5.46921 7.04519 5.47032 7.08496 5.47168C7.02675 5.44634 6.97964 5.4045 6.94434 5.34961Z" fill="#C88A02"/>
<path fill-rule="evenodd" clip-rule="evenodd" d="M6.94437 3.84383C7.06035 3.84383 7.15437 3.74981 7.15437 3.63383C7.15437 3.51785 7.06035 3.42383 6.94437 3.42383C6.8284 3.42383 6.73438 3.51785 6.73438 3.63383C6.73438 3.74981 6.8284 3.84383 6.94437 3.84383Z" fill="#005BBF"/>
<path d="M5.0293 5.24512C5.04846 5.22289 5.07455 5.20199 5.10547 5.18555C5.19073 5.14032 5.2814 5.14514 5.30859 5.19629C5.33579 5.24744 5.28928 5.3257 5.2041 5.37109C5.11876 5.41647 5.02722 5.41155 5 5.36035C4.99909 5.35864 4.99977 5.35627 4.99902 5.35449C4.99028 5.36437 4.98087 5.37225 4.96875 5.37598C4.91329 5.39293 4.84564 5.33168 4.81738 5.23926C4.78935 5.14713 4.81104 5.05914 4.86621 5.04199C4.92167 5.02504 4.98932 5.08628 5.01758 5.17871C5.02451 5.20145 5.0282 5.22385 5.0293 5.24512ZM8.97559 5.02051C9.03104 5.03746 9.05365 5.12632 9.02539 5.21875C8.99708 5.31101 8.92844 5.37143 8.87305 5.35449C8.86098 5.35071 8.85148 5.3429 8.84277 5.33301C8.84204 5.33475 8.8427 5.33718 8.8418 5.33887C8.81453 5.38993 8.72389 5.39482 8.63867 5.34961C8.5534 5.30427 8.50611 5.22601 8.5332 5.1748C8.56043 5.1236 8.65197 5.11869 8.7373 5.16406C8.76857 5.18072 8.7933 5.20305 8.8125 5.22559C8.81345 5.20377 8.81709 5.18064 8.82422 5.15723C8.85247 5.06482 8.92014 5.00359 8.97559 5.02051ZM5.8291 4.75195C5.88595 4.74115 5.94741 4.80957 5.96582 4.9043C5.97252 4.93889 5.97018 4.97198 5.96484 5.00098C5.98654 4.99519 6.01086 4.99121 6.03613 4.99121C6.13259 4.99135 6.21094 5.03878 6.21094 5.09668C6.21079 5.15451 6.13249 5.20103 6.03613 5.20117C5.93958 5.20117 5.8605 5.15459 5.86035 5.09668C5.86035 5.09476 5.86116 5.09272 5.86133 5.09082C5.86004 5.09038 5.85871 5.09035 5.85742 5.08984C5.85767 5.09215 5.86035 5.09433 5.86035 5.09668C5.8602 5.15459 5.7821 5.20117 5.68555 5.20117C5.58906 5.20112 5.51089 5.15456 5.51074 5.09668C5.51074 5.03872 5.58897 4.99126 5.68555 4.99121C5.72076 4.99121 5.75282 5 5.78027 5.01074C5.77085 4.99097 5.76347 4.96844 5.75879 4.94434C5.74035 4.84946 5.77218 4.76302 5.8291 4.75195ZM7.98828 4.72656C8.0461 4.72353 8.09735 4.7992 8.10254 4.89551C8.10438 4.93062 8.09715 4.96326 8.08789 4.99121C8.11028 4.98846 8.13499 4.98865 8.16016 4.99219C8.25547 5.00569 8.32601 5.0629 8.31836 5.12012C8.3103 5.17749 8.22646 5.21355 8.13086 5.2002C8.03539 5.18678 7.96402 5.12955 7.97168 5.07227C7.97195 5.07037 7.9732 5.06825 7.97363 5.06641C7.97244 5.06581 7.9709 5.06609 7.96973 5.06543C7.96964 5.06754 7.97198 5.07016 7.97168 5.07227C7.96326 5.12941 7.87959 5.16472 7.78418 5.15137C7.68865 5.13794 7.61724 5.08076 7.625 5.02344C7.63307 4.96601 7.71777 4.92991 7.81348 4.94336C7.84808 4.94825 7.87874 4.9603 7.9043 4.97461C7.89792 4.95405 7.89386 4.93126 7.89258 4.90723C7.88752 4.81073 7.93039 4.72963 7.98828 4.72656ZM6.87891 4.68262C6.9358 4.67156 6.99715 4.73918 7.01562 4.83398C7.02234 4.86854 7.01995 4.90168 7.01465 4.93066C7.03637 4.92486 7.06063 4.92188 7.08594 4.92188C7.1824 4.92195 7.26061 4.96849 7.26074 5.02637C7.26074 5.08431 7.18248 5.13176 7.08594 5.13184C6.98929 5.13184 6.91113 5.08436 6.91113 5.02637C6.91114 5.0247 6.91198 5.02313 6.91211 5.02148C6.91111 5.02116 6.91018 5.02088 6.90918 5.02051C6.90937 5.02249 6.91113 5.02436 6.91113 5.02637C6.91113 5.08436 6.832 5.13184 6.73535 5.13184C6.63886 5.13172 6.56055 5.08429 6.56055 5.02637C6.56068 4.96851 6.63895 4.92199 6.73535 4.92188C6.77045 4.92188 6.80268 4.92976 6.83008 4.94043C6.82073 4.92074 6.81423 4.898 6.80957 4.87402C6.7912 4.77924 6.82204 4.69372 6.87891 4.68262Z" fill="#C88A02"/>
<path d="M7.01172 3.14062H7.10742V3.28711H7.01172V3.57812H7.10742V3.72461H6.76953V3.57812H6.86621V3.28711H6.76953V3.14062H6.86621V3.04883H7.01172V3.14062Z" fill="#C88A02"/>
<rect x="6.83984" y="3.8418" width="0.28" height="0.91" fill="#C88A02"/>
<path d="M5.71286 3.99308L5.71164 4.06307C5.09095 4.05223 4.73492 4.14281 4.64454 4.32334C4.5511 4.50998 4.56848 4.73687 4.6994 5.00639L4.63644 5.03698C4.49675 4.74941 4.47767 4.5003 4.58194 4.29201C4.68928 4.07761 5.06591 3.98178 5.71286 3.99308Z" fill="white"/>
<path d="M5.83246 4.61321L5.79657 4.67332C5.6614 4.59261 5.59375 4.45487 5.59375 4.26506C5.59375 3.99226 5.73428 3.83229 6.04512 3.72281C6.24351 3.65295 6.51452 3.68159 6.8589 3.80645L6.83504 3.87226C6.50444 3.7524 6.24863 3.72536 6.06838 3.78884C5.78326 3.88925 5.66375 4.0253 5.66375 4.26506C5.66375 4.43163 5.71994 4.54603 5.83246 4.61321Z" fill="white"/>
<path d="M4.78714 4.89906L4.65505 4.94545C4.518 4.55524 4.55714 4.29023 4.79132 4.17591C4.99768 4.07518 5.29842 4.03419 5.69504 4.05026L5.68937 4.19015C5.31385 4.17493 5.03447 4.21301 4.85274 4.30173C4.69883 4.37685 4.67068 4.56747 4.78714 4.89906Z" fill="#C88A02"/>
<path d="M6.33131 3.89977C6.01122 3.89977 5.87978 3.97772 5.80468 4.2079C5.75683 4.35459 5.80324 4.47979 5.95373 4.59665L5.86787 4.70723C5.67303 4.55593 5.60433 4.37063 5.67159 4.16448C5.76729 3.87114 5.95507 3.75977 6.33131 3.75977C6.57791 3.75977 6.77 3.82455 6.90376 3.9564L6.92462 3.97696V4.65194H6.78462V4.0368C6.68016 3.94607 6.5301 3.89977 6.33131 3.89977Z" fill="#C88A02"/>
<path d="M8.15628 4.06339L8.1575 4.13338C8.77819 4.12254 9.13423 4.21312 9.2246 4.39366C9.31804 4.5803 9.30066 4.80718 9.16974 5.0767L9.2327 5.10729C9.37239 4.81973 9.39147 4.57061 9.2872 4.36232C9.17986 4.14792 8.80323 4.0521 8.15628 4.06339Z" fill="white"/>
<path d="M7.93707 4.62689L7.97296 4.68699C8.10813 4.60628 8.17578 4.46855 8.17578 4.27873C8.17578 4.00593 8.03525 3.84596 7.72441 3.73649C7.52602 3.66662 7.25501 3.69526 6.91063 3.82013L6.93449 3.88593C7.26509 3.76607 7.5209 3.73903 7.70116 3.80251C7.98627 3.90292 8.10578 4.03897 8.10578 4.27873C8.10578 4.4453 8.04959 4.5597 7.93707 4.62689Z" fill="white"/>
<path d="M9.12497 4.96938L9.25706 5.01577C9.39411 4.62555 9.35497 4.36054 9.12079 4.24623C8.91443 4.1455 8.61369 4.1045 8.21707 4.12058L8.22274 4.26046C8.59826 4.24524 8.87764 4.28332 9.05937 4.37204C9.21328 4.44717 9.24143 4.63778 9.12497 4.96938Z" fill="#C88A02"/>
<path d="M7.57298 3.90953C7.89307 3.90953 8.02452 3.98749 8.09961 4.21767C8.14747 4.36436 8.10106 4.48956 7.95056 4.60642L8.03643 4.717C8.23127 4.56569 8.29996 4.38039 8.23271 4.17425C8.13701 3.8809 7.94922 3.76953 7.57298 3.76953C7.32639 3.76953 7.13429 3.83432 7.00054 3.96617L6.97968 3.98673V4.66171H7.11968V4.04657C7.22414 3.95583 7.37419 3.90953 7.57298 3.90953Z" fill="#C88A02"/>
<path opacity="0.3" fill-rule="evenodd" clip-rule="evenodd" d="M4.66992 6.29102H9.21992V10.379C9.21992 10.379 8.88194 11.751 6.94492 11.751C5.00791 11.751 4.66992 10.3429 4.66992 10.3429V6.29102Z" fill="#E1E5E8"/>
<mask id="mask4_201_422" style="mask-type:luminance" maskUnits="userSpaceOnUse" x="4" y="6" width="6" height="6">
<path fill-rule="evenodd" clip-rule="evenodd" d="M4.66992 6.29102H9.21992V10.379C9.21992 10.379 8.88194 11.751 6.94492 11.751C5.00791 11.751 4.66992 10.3429 4.66992 10.3429V6.29102Z" fill="white"/>
</mask>
<g mask="url(#mask4_201_422)">
<rect x="4.66992" y="8.81055" width="2.31" height="2.73" fill="#FFC034"/>
<rect x="4.94922" y="8.95117" width="0.28" height="2.59" fill="#AD1619"/>
<rect x="5.92969" y="8.95117" width="0.28" height="2.59" fill="#AD1619"/>
<rect x="5.43945" y="8.95117" width="0.28" height="2.59" fill="#AD1619"/>
<rect x="6.41992" y="8.95117" width="0.28" height="2.59" fill="#AD1619"/>
<rect x="4.66992" y="6.2207" width="2.31" height="2.66" fill="#AD1619"/>
<rect x="6.91016" y="8.74023" width="2.31" height="2.66" fill="#AD1619"/>
<rect x="6.91016" y="6.29102" width="2.45" height="2.59" fill="#F1F9FF"/>
<path d="M5.86035 7.08301H6V6.79199H6.20996V7.08301H6.41992V7.44531H6.20996V8.09863H6.41992V8.46191H5.16016V8.09863H5.37012V7.44531H5.16016V7.08301H5.2998V6.79199H5.50977V7.08301H5.65039V6.50195H5.86035V7.08301Z" fill="#C88A02"/>
<path d="M7.89062 6.62988C8.05719 6.56335 8.2512 6.63302 8.41602 6.86816C8.50999 7.0023 8.5106 7.15041 8.41895 7.26758C8.37268 7.32669 8.30814 7.36973 8.23047 7.40625C8.2896 7.48983 8.3253 7.53605 8.38574 7.60449C8.41418 7.63668 8.43836 7.66864 8.46094 7.69727C8.48276 7.68467 8.51048 7.67444 8.54492 7.66406C8.55036 7.66243 8.55657 7.66082 8.5625 7.65918C8.58415 7.65318 8.60047 7.64882 8.61328 7.64453C8.67074 7.62526 8.6682 7.63124 8.66797 7.46387C8.66795 7.45093 8.66797 7.45002 8.66797 7.43652C8.66797 7.39444 8.66651 7.35859 8.66309 7.27637C8.66293 7.27256 8.66322 7.27205 8.66309 7.26855C8.65051 6.966 8.66236 6.84965 8.75488 6.7666L8.84766 6.87109C8.803 6.91178 8.7925 7.01656 8.80273 7.2627C8.80291 7.26623 8.80355 7.26668 8.80371 7.27051C8.80722 7.35473 8.80761 7.39181 8.80762 7.43652C8.80762 7.44974 8.8076 7.45036 8.80762 7.46289C8.8079 7.68559 8.79139 7.7323 8.65723 7.77734C8.64166 7.78255 8.62334 7.78736 8.59961 7.79395C8.59479 7.79531 8.59026 7.79753 8.58594 7.79883C8.56654 7.80466 8.55259 7.80742 8.54297 7.81152C8.55604 7.83371 8.56707 7.85437 8.5752 7.87402C8.61299 7.9655 8.60051 8.05261 8.53027 8.10156L8.53125 8.10449C8.53176 8.10687 8.53236 8.10921 8.53418 8.11621C8.54236 8.14933 8.54053 8.18304 8.52539 8.31738C8.51692 8.39271 8.51768 8.44225 8.52246 8.45605C8.5177 8.44314 8.50049 8.42956 8.47656 8.42969L8.47168 8.42578C8.46398 8.43422 8.45755 8.43969 8.4541 8.44238H8.45605C8.4601 8.43996 8.46614 8.43749 8.47461 8.43555L8.56641 8.51953C8.5076 8.58407 8.42364 8.59505 8.39062 8.50391C8.376 8.46323 8.3758 8.3988 8.38672 8.30176C8.3995 8.18833 8.40079 8.16065 8.39844 8.15039C8.39706 8.14524 8.39575 8.13949 8.39453 8.13379C8.38943 8.10966 8.38702 8.07668 8.38672 8.02246L8.33105 8.14551C8.26916 8.11684 8.23766 8.09125 8.22949 8.0459C8.22663 8.02964 8.22723 8.01412 8.23145 7.99902C8.23336 7.99221 8.23624 7.98543 8.23926 7.97754C8.24659 7.95744 8.24467 7.94476 8.21289 7.90137C8.20541 7.89115 8.19847 7.8797 8.19043 7.86816C8.18743 7.86727 8.18456 7.86609 8.18164 7.86523C8.14884 7.85562 8.12053 7.84829 8.09766 7.84375C8.1052 7.86356 8.11423 7.88564 8.125 7.91016C8.12834 7.91754 8.16309 7.99625 8.17188 8.01758C8.19052 8.06284 8.20118 8.09627 8.20312 8.12988C8.21139 8.27341 8.09484 8.30812 7.9502 8.26562C7.84254 8.234 7.78776 8.22125 7.77246 8.22168C7.82015 8.22033 7.84674 8.16802 7.84375 8.14844L7.63574 8.18066C7.62188 8.09154 7.66038 8.01478 7.7666 8.01172C7.80688 8.01058 7.85839 8.02123 7.95605 8.04883C7.94939 8.03366 7.94191 8.01529 7.93262 7.99414C7.90946 7.94143 7.89286 7.8992 7.87988 7.85645C7.84348 7.73629 7.90417 7.64192 8.02051 7.62988C8.0269 7.62923 8.03341 7.6301 8.04004 7.62988C8.01466 7.5874 7.9874 7.54167 7.95898 7.49219C7.94352 7.49519 7.92941 7.49992 7.91602 7.50195L7.90723 7.44727C7.84885 7.51238 7.79033 7.5735 7.73242 7.61914C7.59316 7.72878 7.46376 7.7646 7.36621 7.65527L7.52246 7.51562C7.51735 7.5102 7.50947 7.5082 7.51367 7.50684C7.53434 7.50102 7.56579 7.48304 7.60254 7.4541C7.64202 7.42299 7.68372 7.38079 7.72656 7.33496C7.66778 7.29582 7.60955 7.24267 7.55371 7.1748C7.51144 7.12342 7.47523 7.08841 7.44043 7.06445C7.42328 7.05265 7.37238 7.02582 7.36426 7.02051C7.2776 6.96229 7.28253 6.90639 7.33496 6.77441L7.53027 6.85254C7.52785 6.85864 7.52538 6.86409 7.52344 6.86914C7.53598 6.87656 7.54939 6.88459 7.55957 6.8916C7.61076 6.92686 7.66143 6.97493 7.71582 7.04102C7.76957 7.10635 7.82008 7.14896 7.86621 7.17383L7.86328 7.15527C7.87254 7.15387 7.89174 7.15122 7.91699 7.14551C7.95919 7.13596 8.00117 7.12364 8.03906 7.10938C8.07821 7.09463 8.10866 7.07848 8.12695 7.06543C8.0801 6.99934 8.04259 6.96749 8.0166 6.95801C8.01285 6.95666 8.01581 6.95597 8.02051 6.9541C8.02549 6.95211 8.03211 6.94922 8.04004 6.94336L7.83203 6.66113C7.84687 6.65022 7.8665 6.63956 7.89062 6.62988ZM8.47656 8.42969L8.48145 8.43359C8.47905 8.43401 8.47669 8.43507 8.47461 8.43555L8.46777 8.42969L8.46875 8.42871C8.47129 8.42837 8.47415 8.42965 8.47656 8.42969ZM8.38086 7.95508C8.38162 7.97427 8.38056 7.99287 8.375 8.01172C8.37828 8.01341 8.38263 8.01467 8.38672 8.0166C8.38671 8.01467 8.38672 8.01272 8.38672 8.01074C8.38672 7.99372 8.38533 7.97786 8.38477 7.95996C8.38415 7.95843 8.38175 7.95725 8.38086 7.95508Z" fill="#C37C9C"/>
<path d="M8.11133 6.62221L8.25468 6.46875L8.55564 6.74989L8.41229 6.90335L8.11133 6.62221Z" fill="#C88A02"/>
<path d="M8.97461 10.5889L8.97168 10.6016C8.88266 10.9707 8.58099 11.1562 8.09961 11.1562C7.61766 11.1562 7.31613 10.9654 7.22754 10.5879L7.22461 10.5762V9.05664H8.97461V10.5889ZM7.43457 10.5518C7.50175 10.8165 7.71299 10.9463 8.09961 10.9463C8.48645 10.9463 8.69769 10.8196 8.76465 10.5635V9.2666H7.43457V10.5518Z" fill="#FFC034"/>
<path d="M8.17188 9.80371L8.67871 9.25293L8.78223 9.34766L8.2627 9.91309H8.84375V10.123H8.25195L8.78223 10.7012L8.67871 10.7959L8.17188 10.2441V10.9824H8.02539V10.1709L7.45117 10.7959L7.34766 10.7012L7.87793 10.123H7.39648V9.91309H7.86719L7.34766 9.34766L7.45117 9.25293L8.02539 9.87695V9.18359H8.17188V9.80371Z" fill="#FFC034"/>
<path fill-rule="evenodd" clip-rule="evenodd" d="M8.42575 11.4022C8.42575 11.4022 6.94312 11.5187 6.94312 10.5625C6.94312 10.5625 6.92898 11.4022 5.38086 11.4022V12.157H8.42575V11.4022Z" fill="#F1F9FF"/>
<path fill-rule="evenodd" clip-rule="evenodd" d="M6.94492 9.37195C7.23487 9.37195 7.46992 9.12123 7.46992 8.81195C7.46992 8.50267 7.23487 8.25195 6.94492 8.25195C6.65497 8.25195 6.41992 8.50267 6.41992 8.81195C6.41992 9.12123 6.65497 9.37195 6.94492 9.37195Z" fill="#005BBF" stroke="#AD1619" stroke-width="0.729167"/>
</g>
</g>
</g>
</svg>
