<svg width="14" height="16" viewBox="0 0 14 16" fill="none" xmlns="http://www.w3.org/2000/svg">
<path d="M2 15V14H1C0.716667 14 0.479167 13.9042 0.2875 13.7125C0.0958333 13.5208 0 13.2833 0 13V3C0 2.71667 0.0958333 2.47917 0.2875 2.2875C0.479167 2.09583 0.716667 2 1 2H2V1C2 0.716667 2.09583 0.479167 2.2875 0.2875C2.47917 0.0958333 2.71667 0 3 0C3.28333 0 3.52083 0.0958333 3.7125 0.2875C3.90417 0.479167 4 0.716667 4 1V2H5C5.28333 2 5.52083 2.09583 5.7125 2.2875C5.90417 2.47917 6 2.71667 6 3V13C6 13.2833 5.90417 13.5208 5.7125 13.7125C5.52083 13.9042 5.28333 14 5 14H4V15C4 15.2833 3.90417 15.5208 3.7125 15.7125C3.52083 15.9042 3.28333 16 3 16C2.71667 16 2.47917 15.9042 2.2875 15.7125C2.09583 15.5208 2 15.2833 2 15ZM2 12H4V4H2V12ZM10 15V11H9C8.71667 11 8.47917 10.9042 8.2875 10.7125C8.09583 10.5208 8 10.2833 8 10V5C8 4.71667 8.09583 4.47917 8.2875 4.2875C8.47917 4.09583 8.71667 4 9 4H10V1C10 0.716667 10.0958 0.479167 10.2875 0.2875C10.4792 0.0958333 10.7167 0 11 0C11.2833 0 11.5208 0.0958333 11.7125 0.2875C11.9042 0.479167 12 0.716667 12 1V4H13C13.2833 4 13.5208 4.09583 13.7125 4.2875C13.9042 4.47917 14 4.71667 14 5V10C14 10.2833 13.9042 10.5208 13.7125 10.7125C13.5208 10.9042 13.2833 11 13 11H12V15C12 15.2833 11.9042 15.5208 11.7125 15.7125C11.5208 15.9042 11.2833 16 11 16C10.7167 16 10.4792 15.9042 10.2875 15.7125C10.0958 15.5208 10 15.2833 10 15ZM10 9H12V6H10V9Z" fill="white"/>
</svg>
