<svg width="13" height="18" viewBox="0 0 13 18" fill="none" xmlns="http://www.w3.org/2000/svg">
<path d="M3 17V16H1C0.716667 16 0.479167 15.9042 0.2875 15.7125C0.0958333 15.5208 0 15.2833 0 15C0 14.7167 0.0958333 14.4792 0.2875 14.2875C0.479167 14.0958 0.716667 14 1 14H2V4H1C0.716667 4 0.479167 3.90417 0.2875 3.7125C0.0958333 3.52083 0 3.28333 0 3C0 2.71667 0.0958333 2.47917 0.2875 2.2875C0.479167 2.09583 0.716667 2 1 2H3V1C3 0.716667 3.09583 0.479167 3.2875 0.2875C3.47917 0.0958333 3.71667 0 4 0C4.28333 0 4.52083 0.0958333 4.7125 0.2875C4.90417 0.479167 5 0.716667 5 1V2H7V1C7 0.716667 7.09583 0.479167 7.2875 0.2875C7.47917 0.0958333 7.71667 0 8 0C8.28333 0 8.52083 0.0958333 8.7125 0.2875C8.90417 0.479167 9 0.716667 9 1V2.125C9.86667 2.35833 10.5833 2.82917 11.15 3.5375C11.7167 4.24583 12 5.06667 12 6C12 6.48333 11.9167 6.94583 11.75 7.3875C11.5833 7.82917 11.35 8.225 11.05 8.575C11.6333 8.925 12.1042 9.4 12.4625 10C12.8208 10.6 13 11.2667 13 12C13 13.1 12.6083 14.0417 11.825 14.825C11.0417 15.6083 10.1 16 9 16V17C9 17.2833 8.90417 17.5208 8.7125 17.7125C8.52083 17.9042 8.28333 18 8 18C7.71667 18 7.47917 17.9042 7.2875 17.7125C7.09583 17.5208 7 17.2833 7 17V16H5V17C5 17.2833 4.90417 17.5208 4.7125 17.7125C4.52083 17.9042 4.28333 18 4 18C3.71667 18 3.47917 17.9042 3.2875 17.7125C3.09583 17.5208 3 17.2833 3 17ZM4 8H8C8.55 8 9.02083 7.80417 9.4125 7.4125C9.80417 7.02083 10 6.55 10 6C10 5.45 9.80417 4.97917 9.4125 4.5875C9.02083 4.19583 8.55 4 8 4H4V8ZM4 14H9C9.55 14 10.0208 13.8042 10.4125 13.4125C10.8042 13.0208 11 12.55 11 12C11 11.45 10.8042 10.9792 10.4125 10.5875C10.0208 10.1958 9.55 10 9 10H4V14Z" fill="white"/>
</svg>
