<svg width="327" height="519" viewBox="0 0 327 519" fill="none" xmlns="http://www.w3.org/2000/svg">
<g clip-path="url(#clip0_1_7285)">
<path d="M0 40C0 17.9086 17.9086 0 40 0H327V479C327 501.091 309.091 519 287 519H0V40Z" fill="#03271E"/>
<path d="M720 -67V1.00391H424.779C361.461 1.08158 300.759 26.2776 255.993 71.0625C211.227 115.847 186.054 176.564 185.996 239.89V323.06H261.991V239.894C262.048 196.731 279.218 155.352 309.735 124.831C339.776 94.787 380.336 77.6783 422.763 77.0967L424.784 77.0811H720V228.182C719.904 309.525 687.551 387.51 630.039 445.028C572.527 502.548 494.551 534.904 413.216 535H118V466.996H413.221C476.526 466.918 537.217 441.733 581.98 396.964C626.744 352.195 651.926 291.497 652.004 228.184V145.013H576.009V228.254C575.951 271.416 558.781 312.794 528.265 343.314C497.747 373.835 456.374 391.007 413.216 391.064H118V239.894C118.076 158.536 150.421 80.532 207.936 22.9971C265.001 -34.0884 342.219 -66.3974 422.878 -66.9922L424.784 -67H720ZM424.78 145.013C412.332 145.022 400.006 147.484 388.509 152.258C377.012 157.031 366.567 164.023 357.771 172.833C348.976 181.643 342.002 192.1 337.247 203.606C332.641 214.753 330.205 226.673 330.066 238.726L330.06 239.892V322.914H413.222C438.343 322.875 462.424 312.871 480.181 295.099C497.937 277.326 507.921 253.235 507.94 228.11V145.013H424.78Z" stroke="url(#paint0_radial_1_7285)" stroke-width="4"/>
</g>
<defs>
<radialGradient id="paint0_radial_1_7285" cx="0" cy="0" r="1" gradientUnits="userSpaceOnUse" gradientTransform="translate(348.164 129.178) rotate(66.8672) scale(233.984)">
<stop stop-color="#A3E625" stop-opacity="0.9"/>
<stop offset="1" stop-color="#A3E625" stop-opacity="0.2"/>
</radialGradient>
<clipPath id="clip0_1_7285">
<path d="M0 40C0 17.9086 17.9086 0 40 0H327V479C327 501.091 309.091 519 287 519H0V40Z" fill="white"/>
</clipPath>
</defs>
</svg>
