<svg width="22" height="21" viewBox="0 0 22 21" fill="none" xmlns="http://www.w3.org/2000/svg">
<path d="M10.0008 16.8258C9.30078 17.2758 8.57995 17.6674 7.83828 18.0008C7.09661 18.3341 6.31745 18.5008 5.50078 18.5008C4.61745 18.5008 3.77995 18.3299 2.98828 17.9883C2.19661 17.6466 1.45078 17.2008 0.750781 16.6508C0.534115 16.4841 0.425781 16.2674 0.425781 16.0008C0.425781 15.7341 0.534115 15.5174 0.750781 15.3508C1.26745 14.9341 1.82161 14.5758 2.41328 14.2758C3.00495 13.9758 3.62578 13.7591 4.27578 13.6258C3.27578 12.8258 2.51745 11.8591 2.00078 10.7258C1.48411 9.59245 1.15911 8.39245 1.02578 7.12578C0.992448 6.82578 1.08411 6.56745 1.30078 6.35078C1.51745 6.13411 1.78411 6.04245 2.10078 6.07578C3.10078 6.17578 4.05911 6.40495 4.97578 6.76328C5.89245 7.12161 6.73411 7.60078 7.50078 8.20078V8.00078C7.50078 6.68411 7.76328 5.43411 8.28828 4.25078C8.81328 3.06745 9.47578 1.95078 10.2758 0.900781C10.4591 0.667448 10.7008 0.550781 11.0008 0.550781C11.3008 0.550781 11.5424 0.667448 11.7258 0.900781C12.5258 1.95078 13.1883 3.06745 13.7133 4.25078C14.2383 5.43411 14.5008 6.68411 14.5008 8.00078C14.5008 8.03411 14.4966 8.06745 14.4883 8.10078C14.4799 8.13411 14.4758 8.16745 14.4758 8.20078C15.2591 7.60078 16.1091 7.12578 17.0258 6.77578C17.9424 6.42578 18.9008 6.19245 19.9008 6.07578C20.2008 6.04245 20.4633 6.12995 20.6883 6.33828C20.9133 6.54661 21.0091 6.80911 20.9758 7.12578C20.8591 8.39245 20.5341 9.59245 20.0008 10.7258C19.4674 11.8591 18.7008 12.8258 17.7008 13.6258C18.3508 13.7591 18.9674 13.9758 19.5508 14.2758C20.1341 14.5758 20.6924 14.9341 21.2258 15.3508C21.4424 15.5174 21.5508 15.7341 21.5508 16.0008C21.5508 16.2674 21.4424 16.4841 21.2258 16.6508C20.5258 17.2008 19.7841 17.6466 19.0008 17.9883C18.2174 18.3299 17.3841 18.5008 16.5008 18.5008C15.6674 18.5008 14.8799 18.3341 14.1383 18.0008C13.3966 17.6674 12.6841 17.2758 12.0008 16.8258V20.0008C12.0008 20.2841 11.9049 20.5216 11.7133 20.7133C11.5216 20.9049 11.2841 21.0008 11.0008 21.0008C10.7174 21.0008 10.4799 20.9049 10.2883 20.7133C10.0966 20.5216 10.0008 20.2841 10.0008 20.0008V16.8258ZM8.60078 13.6008C8.41745 12.9674 8.17995 12.3633 7.88828 11.7883C7.59661 11.2133 7.21745 10.7008 6.75078 10.2508C6.28411 9.78411 5.76328 9.40495 5.18828 9.11328C4.61328 8.82161 4.00911 8.58412 3.37578 8.40078C3.55911 9.03411 3.79661 9.63828 4.08828 10.2133C4.37995 10.7883 4.75911 11.3091 5.22578 11.7758C5.67578 12.2424 6.19245 12.6216 6.77578 12.9133C7.35911 13.2049 7.96745 13.4341 8.60078 13.6008ZM5.50078 16.5008C5.85078 16.5008 6.19245 16.4549 6.52578 16.3633C6.85911 16.2716 7.18411 16.1508 7.50078 16.0008C7.18411 15.8674 6.85911 15.7508 6.52578 15.6508C6.19245 15.5508 5.85078 15.5008 5.50078 15.5008C5.15078 15.5008 4.80911 15.5508 4.47578 15.6508C4.14245 15.7508 3.80911 15.8674 3.47578 16.0008C3.79245 16.1508 4.12161 16.2716 4.46328 16.3633C4.80495 16.4549 5.15078 16.5008 5.50078 16.5008ZM11.0008 12.7008C11.4341 11.9674 11.7924 11.2133 12.0758 10.4383C12.3591 9.66328 12.5008 8.85078 12.5008 8.00078C12.5008 7.15078 12.3591 6.33828 12.0758 5.56328C11.7924 4.78828 11.4341 4.04245 11.0008 3.32578C10.5674 4.04245 10.2091 4.78828 9.92578 5.56328C9.64245 6.33828 9.50078 7.15078 9.50078 8.00078C9.50078 8.85078 9.64245 9.66745 9.92578 10.4508C10.2091 11.2341 10.5674 11.9841 11.0008 12.7008ZM13.4008 13.6008C14.0341 13.4341 14.6383 13.2049 15.2133 12.9133C15.7883 12.6216 16.3008 12.2424 16.7508 11.7758C17.2174 11.3091 17.5966 10.7883 17.8883 10.2133C18.1799 9.63828 18.4174 9.03411 18.6008 8.40078C17.9674 8.58412 17.3633 8.82161 16.7883 9.11328C16.2133 9.40495 15.6924 9.78411 15.2258 10.2508C14.7591 10.7008 14.3799 11.2133 14.0883 11.7883C13.7966 12.3633 13.5674 12.9674 13.4008 13.6008ZM16.5008 16.5008C16.8508 16.5008 17.1924 16.4549 17.5258 16.3633C17.8591 16.2716 18.1841 16.1508 18.5008 16.0008C18.1841 15.8674 17.8591 15.7508 17.5258 15.6508C17.1924 15.5508 16.8508 15.5008 16.5008 15.5008C16.1508 15.5008 15.8091 15.5508 15.4758 15.6508C15.1424 15.7508 14.8091 15.8674 14.4758 16.0008C14.7924 16.1508 15.1216 16.2716 15.4633 16.3633C15.8049 16.4549 16.1508 16.5008 16.5008 16.5008Z" fill="white"/>
</svg>
