<svg width="20" height="12" viewBox="0 0 20 12" fill="none" xmlns="http://www.w3.org/2000/svg">
<path d="M2.82578 6.02539L6.70078 9.90039C6.88411 10.0837 6.97578 10.3171 6.97578 10.6004C6.97578 10.8837 6.88411 11.1171 6.70078 11.3004C6.51745 11.4837 6.28411 11.5754 6.00078 11.5754C5.71745 11.5754 5.48411 11.4837 5.30078 11.3004L0.700781 6.70039C0.600781 6.60039 0.529948 6.49206 0.488281 6.37539C0.446615 6.25872 0.425781 6.13372 0.425781 6.00039C0.425781 5.86706 0.446615 5.74206 0.488281 5.62539C0.529948 5.50872 0.600781 5.40039 0.700781 5.30039L5.30078 0.700391C5.50078 0.500391 5.73828 0.400391 6.01328 0.400391C6.28828 0.400391 6.52578 0.500391 6.72578 0.700391C6.92578 0.900391 7.02578 1.13789 7.02578 1.41289C7.02578 1.68789 6.92578 1.92539 6.72578 2.12539L2.82578 6.02539ZM17.1758 5.97539L13.3008 2.10039C13.1174 1.91706 13.0258 1.68372 13.0258 1.40039C13.0258 1.11706 13.1174 0.883724 13.3008 0.700391C13.4841 0.517057 13.7174 0.425391 14.0008 0.425391C14.2841 0.425391 14.5174 0.517057 14.7008 0.700391L19.3008 5.30039C19.4008 5.40039 19.4716 5.50872 19.5133 5.62539C19.5549 5.74206 19.5758 5.86706 19.5758 6.00039C19.5758 6.13372 19.5549 6.25872 19.5133 6.37539C19.4716 6.49206 19.4008 6.60039 19.3008 6.70039L14.7008 11.3004C14.5008 11.5004 14.2674 11.5962 14.0008 11.5879C13.7341 11.5796 13.5008 11.4754 13.3008 11.2754C13.1008 11.0754 13.0008 10.8379 13.0008 10.5629C13.0008 10.2879 13.1008 10.0504 13.3008 9.85039L17.1758 5.97539Z" fill="white"/>
</svg>
