<svg width="1128" height="468" viewBox="0 0 1128 468" fill="none" xmlns="http://www.w3.org/2000/svg">
<g clip-path="url(#clip0_1_6489)">
<path d="M0 60C0 26.8629 26.8629 0 60 0H1128V408C1128 441.137 1101.14 468 1068 468H0V60Z" fill="#03271E"/>
<path d="M1168 -67V1.00391H872.779C809.461 1.08158 748.759 26.2775 703.993 71.0625C659.227 115.847 634.054 176.564 633.996 239.89V323.06H709.991V239.894C710.048 196.731 727.218 155.352 757.735 124.831C787.776 94.787 828.336 77.6783 870.763 77.0967L872.784 77.0811H1168V228.182C1167.9 309.525 1135.55 387.51 1078.04 445.028C1020.53 502.548 942.551 534.904 861.216 535H566V466.996H861.221C924.526 466.918 985.217 441.733 1029.98 396.964C1074.74 352.195 1099.93 291.497 1100 228.184V145.013H1024.01V228.254C1023.95 271.416 1006.78 312.794 976.265 343.314C945.747 373.835 904.374 391.007 861.216 391.064H566V239.894C566.076 158.536 598.421 80.532 655.936 22.9971C713.001 -34.0884 790.219 -66.3974 870.878 -66.9922L872.784 -67H1168ZM872.78 145.013C860.332 145.022 848.006 147.484 836.509 152.258C825.012 157.031 814.567 164.023 805.771 172.833C796.976 181.643 790.002 192.1 785.247 203.606C780.641 214.753 778.205 226.673 778.066 238.726L778.06 239.892V322.914H861.222C886.343 322.875 910.424 312.871 928.181 295.099C945.937 277.326 955.921 253.235 955.94 228.11V145.013H872.78Z" stroke="url(#paint0_radial_1_6489)" stroke-width="4"/>
</g>
<defs>
<radialGradient id="paint0_radial_1_6489" cx="0" cy="0" r="1" gradientUnits="userSpaceOnUse" gradientTransform="translate(796.164 129.178) rotate(66.8672) scale(233.984)">
<stop stop-color="#A3E625" stop-opacity="0.9"/>
<stop offset="1" stop-color="#A3E625" stop-opacity="0.2"/>
</radialGradient>
<clipPath id="clip0_1_6489">
<path d="M0 60C0 26.8629 26.8629 0 60 0H1128V408C1128 441.137 1101.14 468 1068 468H0V60Z" fill="white"/>
</clipPath>
</defs>
</svg>
