<svg width="24" height="24" viewBox="0 0 24 24" fill="none" xmlns="http://www.w3.org/2000/svg">
<path d="M4.72578 20C3.72578 20 2.87161 19.6417 2.16328 18.925C1.45495 18.2083 1.08411 17.3417 1.05078 16.325C1.05078 16.175 1.05911 16.025 1.07578 15.875C1.09245 15.725 1.11745 15.575 1.15078 15.425L3.25078 7.025C3.48411 6.125 3.95911 5.39583 4.67578 4.8375C5.39245 4.27917 6.20912 4 7.12578 4H16.8758C17.7924 4 18.6091 4.27917 19.3258 4.8375C20.0424 5.39583 20.5175 6.125 20.7508 7.025L22.8508 15.425C22.8841 15.575 22.9133 15.7292 22.9383 15.8875C22.9633 16.0458 22.9758 16.2 22.9758 16.35C22.9758 17.3667 22.6133 18.2292 21.8883 18.9375C21.1633 19.6458 20.2924 20 19.2758 20C18.5758 20 17.9258 19.8167 17.3258 19.45C16.7258 19.0833 16.2758 18.5833 15.9758 17.95L15.2758 16.5C15.1924 16.3333 15.0674 16.2083 14.9008 16.125C14.7341 16.0417 14.5591 16 14.3758 16H9.62578C9.44245 16 9.26745 16.0417 9.10078 16.125C8.93412 16.2083 8.80912 16.3333 8.72578 16.5L8.02578 17.95C7.72578 18.5833 7.27578 19.0833 6.67578 19.45C6.07578 19.8167 5.42578 20 4.72578 20ZM4.80078 18C5.11745 18 5.40495 17.9167 5.66328 17.75C5.92162 17.5833 6.11745 17.3583 6.25078 17.075L6.95078 15.65C7.20078 15.1333 7.56745 14.7292 8.05078 14.4375C8.53412 14.1458 9.05912 14 9.62578 14H14.3758C14.9424 14 15.4674 14.15 15.9508 14.45C16.4341 14.75 16.8091 15.15 17.0758 15.65L17.7758 17.075C17.9091 17.3583 18.1049 17.5833 18.3633 17.75C18.6216 17.9167 18.9091 18 19.2258 18C19.6924 18 20.0924 17.8458 20.4258 17.5375C20.7591 17.2292 20.9341 16.8417 20.9508 16.375C20.9508 16.3917 20.9341 16.2333 20.9008 15.9L18.8008 7.525C18.6841 7.075 18.4508 6.70833 18.1008 6.425C17.7508 6.14167 17.3424 6 16.8758 6H7.12578C6.65912 6 6.24661 6.14167 5.88828 6.425C5.52995 6.70833 5.30078 7.075 5.20078 7.525L3.10078 15.9C3.06745 16 3.05078 16.15 3.05078 16.35C3.05078 16.8167 3.22161 17.2083 3.56328 17.525C3.90495 17.8417 4.31745 18 4.80078 18ZM13.5008 11C13.7841 11 14.0216 10.9042 14.2133 10.7125C14.4049 10.5208 14.5008 10.2833 14.5008 10C14.5008 9.71667 14.4049 9.47917 14.2133 9.2875C14.0216 9.09583 13.7841 9 13.5008 9C13.2174 9 12.9799 9.09583 12.7883 9.2875C12.5966 9.47917 12.5008 9.71667 12.5008 10C12.5008 10.2833 12.5966 10.5208 12.7883 10.7125C12.9799 10.9042 13.2174 11 13.5008 11ZM15.5008 9C15.7841 9 16.0216 8.90417 16.2133 8.7125C16.4049 8.52083 16.5008 8.28333 16.5008 8C16.5008 7.71667 16.4049 7.47917 16.2133 7.2875C16.0216 7.09583 15.7841 7 15.5008 7C15.2174 7 14.9799 7.09583 14.7883 7.2875C14.5966 7.47917 14.5008 7.71667 14.5008 8C14.5008 8.28333 14.5966 8.52083 14.7883 8.7125C14.9799 8.90417 15.2174 9 15.5008 9ZM15.5008 13C15.7841 13 16.0216 12.9042 16.2133 12.7125C16.4049 12.5208 16.5008 12.2833 16.5008 12C16.5008 11.7167 16.4049 11.4792 16.2133 11.2875C16.0216 11.0958 15.7841 11 15.5008 11C15.2174 11 14.9799 11.0958 14.7883 11.2875C14.5966 11.4792 14.5008 11.7167 14.5008 12C14.5008 12.2833 14.5966 12.5208 14.7883 12.7125C14.9799 12.9042 15.2174 13 15.5008 13ZM17.5008 11C17.7841 11 18.0216 10.9042 18.2133 10.7125C18.4049 10.5208 18.5008 10.2833 18.5008 10C18.5008 9.71667 18.4049 9.47917 18.2133 9.2875C18.0216 9.09583 17.7841 9 17.5008 9C17.2174 9 16.9799 9.09583 16.7883 9.2875C16.5966 9.47917 16.5008 9.71667 16.5008 10C16.5008 10.2833 16.5966 10.5208 16.7883 10.7125C16.9799 10.9042 17.2174 11 17.5008 11ZM8.50078 12.5C8.71745 12.5 8.89662 12.4292 9.03828 12.2875C9.17995 12.1458 9.25078 11.9667 9.25078 11.75V10.75H10.2508C10.4674 10.75 10.6466 10.6792 10.7883 10.5375C10.9299 10.3958 11.0008 10.2167 11.0008 10C11.0008 9.78333 10.9299 9.60417 10.7883 9.4625C10.6466 9.32083 10.4674 9.25 10.2508 9.25H9.25078V8.25C9.25078 8.03333 9.17995 7.85417 9.03828 7.7125C8.89662 7.57083 8.71745 7.5 8.50078 7.5C8.28412 7.5 8.10495 7.57083 7.96328 7.7125C7.82162 7.85417 7.75078 8.03333 7.75078 8.25V9.25H6.75078C6.53411 9.25 6.35495 9.32083 6.21328 9.4625C6.07162 9.60417 6.00078 9.78333 6.00078 10C6.00078 10.2167 6.07162 10.3958 6.21328 10.5375C6.35495 10.6792 6.53411 10.75 6.75078 10.75H7.75078V11.75C7.75078 11.9667 7.82162 12.1458 7.96328 12.2875C8.10495 12.4292 8.28412 12.5 8.50078 12.5Z" fill="white"/>
</svg>
