<svg width="24" height="24" viewBox="0 0 24 24" fill="none" xmlns="http://www.w3.org/2000/svg">
<path d="M18.0007 6.0026H18.0033M16.0007 12.0026C16.0007 14.2117 14.2098 16.0026 12.0007 16.0026C9.79151 16.0026 8.00065 14.2117 8.00065 12.0026C8.00065 9.79346 9.79151 8.0026 12.0007 8.0026C14.2098 8.0026 16.0007 9.79346 16.0007 12.0026ZM5.33399 22.6693H18.6673C20.8765 22.6693 22.6673 20.8784 22.6673 18.6693V5.33594C22.6673 3.1268 20.8765 1.33594 18.6673 1.33594H5.33398C3.12485 1.33594 1.33398 3.1268 1.33398 5.33594V18.6693C1.33398 20.8784 3.12485 22.6693 5.33399 22.6693Z" stroke="white" stroke-width="2" stroke-linecap="round" stroke-linejoin="round"/>
</svg>
