<svg width="30" height="38" viewBox="0 0 30 38" fill="none" xmlns="http://www.w3.org/2000/svg">
<path d="M15 0.666016L0 7.33268V17.3327C0 26.5827 6.4 35.2327 15 37.3327C23.6 35.2327 30 26.5827 30 17.3327V7.33268L15 0.666016ZM26.6667 17.3327C26.6667 20.416 25.8167 23.416 24.3667 26.016L21.95 23.5993C24.1 20.366 23.7333 15.966 20.8833 13.116C17.6333 9.86602 12.35 9.86602 9.1 13.116C5.85 16.366 5.85 21.6493 9.1 24.8993C11.95 27.7493 16.35 28.0993 19.5833 25.966L22.45 28.8327C20.4667 31.1994 17.9 33.016 15 33.8994C8.3 31.816 3.33333 24.866 3.33333 17.3327V9.49935L15 4.31602L26.6667 9.49935V17.3327ZM15 23.9993C12.2333 23.9993 10 21.766 10 18.9993C10 16.2327 12.2333 13.9993 15 13.9993C17.7667 13.9993 20 16.2327 20 18.9993C20 21.766 17.7667 23.9993 15 23.9993Z" fill="white"/>
</svg>
