<svg width="28" height="36" viewBox="0 0 28 36" fill="none" xmlns="http://www.w3.org/2000/svg">
<path d="M10.1327 19.8173L13.9993 16.884L17.8493 19.8173L16.3827 15.0673L20.2493 12.0007H15.516L13.9993 7.31732L12.4827 12.0007H7.74935L11.5993 15.0673L10.1327 19.8173ZM27.3327 13.6673C27.3327 6.30065 21.366 0.333984 13.9993 0.333984C6.63268 0.333984 0.666016 6.30065 0.666016 13.6673C0.666016 17.0506 1.93268 20.1173 3.99935 22.4673V35.334L13.9993 32.0007L23.9993 35.334V22.4673C26.066 20.1173 27.3327 17.0506 27.3327 13.6673ZM13.9993 3.66732C19.516 3.66732 23.9993 8.15065 23.9993 13.6673C23.9993 19.184 19.516 23.6673 13.9993 23.6673C8.48268 23.6673 3.99935 19.184 3.99935 13.6673C3.99935 8.15065 8.48268 3.66732 13.9993 3.66732ZM13.9993 28.6673L7.33268 30.3673V25.2007C9.29935 26.334 11.566 27.0007 13.9993 27.0007C16.4327 27.0007 18.6993 26.334 20.666 25.2007V30.3673L13.9993 28.6673Z" fill="white"/>
</svg>
