<svg width="40" height="40" viewBox="0 0 40 40" fill="none" xmlns="http://www.w3.org/2000/svg">
<g clip-path="url(#clip0_201_716)">
<path d="M25.0007 26.666H30.0007C30.9173 26.666 31.6673 25.916 31.6673 24.9993V14.9993C31.6673 14.0827 30.9173 13.3327 30.0007 13.3327H25.0007C24.084 13.3327 23.334 14.0827 23.334 14.9993V24.9993C23.334 25.916 24.084 26.666 25.0007 26.666ZM26.6673 16.666H28.334V23.3327H26.6673V16.666ZM15.0007 26.666H20.0007C20.9173 26.666 21.6673 25.916 21.6673 24.9993V14.9993C21.6673 14.0827 20.9173 13.3327 20.0007 13.3327H15.0007C14.084 13.3327 13.334 14.0827 13.334 14.9993V24.9993C13.334 25.916 14.084 26.666 15.0007 26.666ZM16.6673 16.666H18.334V23.3327H16.6673V16.666ZM10.0007 13.3327C9.08398 13.3327 8.33398 14.0827 8.33398 14.9993V24.9993C8.33398 25.916 9.08398 26.666 10.0007 26.666C10.9173 26.666 11.6673 25.916 11.6673 24.9993V14.9993C11.6673 14.0827 10.9173 13.3327 10.0007 13.3327ZM3.33398 9.99935V29.9993C3.33398 31.8327 4.83398 33.3327 6.66732 33.3327H33.334C35.1673 33.3327 36.6673 31.8327 36.6673 29.9993V9.99935C36.6673 8.16602 35.1673 6.66602 33.334 6.66602H6.66732C4.83398 6.66602 3.33398 8.16602 3.33398 9.99935ZM31.6673 29.9993H8.33398C7.41732 29.9993 6.66732 29.2493 6.66732 28.3327V11.666C6.66732 10.7493 7.41732 9.99935 8.33398 9.99935H31.6673C32.584 9.99935 33.334 10.7493 33.334 11.666V28.3327C33.334 29.2493 32.584 29.9993 31.6673 29.9993Z" fill="white"/>
</g>
<defs>
<clipPath id="clip0_201_716">
<rect width="40" height="40" fill="white"/>
</clipPath>
</defs>
</svg>
