<svg width="1128" height="665" viewBox="0 0 1128 665" fill="none" xmlns="http://www.w3.org/2000/svg">
<g clip-path="url(#clip0_1_6551)">
<path d="M0 60C0 26.8629 26.8629 0 60 0H1128V605C1128 638.137 1101.14 665 1068 665H0V60Z" fill="#03271E"/>
<path d="M1168 -67V20.7285H791.362C710.845 20.8274 633.654 52.8663 576.729 109.816C519.803 166.766 487.792 243.976 487.718 324.503V429.908H583.435V324.508C583.507 269.376 605.438 216.523 644.417 177.539C683.092 138.86 735.418 116.966 790.076 116.555L791.368 116.549H1168V309.588C1167.88 413.359 1126.6 512.845 1053.24 586.223C979.867 659.601 880.392 700.878 776.633 701H400V613.271H776.638C857.139 613.173 934.315 581.147 991.238 524.217C1048.16 467.287 1080.18 390.101 1080.28 309.59V204.185H984.565V309.681C984.492 364.811 962.562 417.663 923.583 456.646C884.604 495.63 831.757 517.563 776.632 517.636H400V324.507C400.098 220.719 441.36 121.208 514.731 47.8096C587.53 -25.0149 686.039 -66.2306 788.937 -66.9893L791.367 -67H1168ZM791.363 204.185C775.577 204.197 759.947 207.32 745.367 213.373C730.787 219.426 717.542 228.293 706.388 239.466C695.234 250.639 686.389 263.899 680.359 278.49C674.33 293.081 671.232 308.717 671.244 324.505V429.723H776.638C808.496 429.673 839.033 416.987 861.552 394.448C884.07 371.91 896.731 341.358 896.756 309.496V204.185H791.363Z" stroke="url(#paint0_radial_1_6551)" stroke-width="4"/>
</g>
<defs>
<radialGradient id="paint0_radial_1_6551" cx="0" cy="0" r="1" gradientUnits="userSpaceOnUse" gradientTransform="translate(693.759 183.465) rotate(66.8672) scale(298.079)">
<stop stop-color="#A3E625" stop-opacity="0.9"/>
<stop offset="1" stop-color="#A3E625" stop-opacity="0.2"/>
</radialGradient>
<clipPath id="clip0_1_6551">
<path d="M0 60C0 26.8629 26.8629 0 60 0H1128V605C1128 638.137 1101.14 665 1068 665H0V60Z" fill="white"/>
</clipPath>
</defs>
</svg>
