<svg width="40" height="40" viewBox="0 0 40 40" fill="none" xmlns="http://www.w3.org/2000/svg">
<path d="M31.6667 5H8.33333C6.5 5 5 6.5 5 8.33333V31.6667C5 33.5 6.5 35 8.33333 35H31.6667C33.5 35 35 33.5 35 31.6667V8.33333C35 6.5 33.5 5 31.6667 5ZM31.6667 31.6667H8.33333V8.33333H31.6667V31.6667Z" fill="white"/>
<path d="M14.9993 20H11.666V28.3333H14.9993V20Z" fill="white"/>
<path d="M28.3333 11.666H25V28.3327H28.3333V11.666Z" fill="white"/>
<path d="M21.6673 23.334H18.334V28.334H21.6673V23.334Z" fill="white"/>
<path d="M21.6673 16.666H18.334V19.9993H21.6673V16.666Z" fill="white"/>
</svg>
