<svg width="20" height="20" viewBox="0 0 20 20" fill="none" xmlns="http://www.w3.org/2000/svg">
<path d="M8.83268 11.4993L7.04102 9.70768C6.88824 9.5549 6.69379 9.47852 6.45768 9.47852C6.22157 9.47852 6.02713 9.5549 5.87435 9.70768C5.72157 9.86046 5.64518 10.0549 5.64518 10.291C5.64518 10.5271 5.72157 10.7216 5.87435 10.8743L8.24935 13.2493C8.41602 13.416 8.61046 13.4993 8.83268 13.4993C9.0549 13.4993 9.24935 13.416 9.41602 13.2493L14.1243 8.54102C14.2771 8.38824 14.3535 8.19379 14.3535 7.95768C14.3535 7.72157 14.2771 7.52713 14.1243 7.37435C13.9716 7.22157 13.7771 7.14518 13.541 7.14518C13.3049 7.14518 13.1105 7.22157 12.9577 7.37435L8.83268 11.4993ZM9.99935 18.3327C8.84657 18.3327 7.76324 18.1139 6.74935 17.6764C5.73546 17.2389 4.85352 16.6452 4.10352 15.8952C3.35352 15.1452 2.75977 14.2632 2.32227 13.2493C1.88477 12.2355 1.66602 11.1521 1.66602 9.99935C1.66602 8.84657 1.88477 7.76324 2.32227 6.74935C2.75977 5.73546 3.35352 4.85352 4.10352 4.10352C4.85352 3.35352 5.73546 2.75977 6.74935 2.32227C7.76324 1.88477 8.84657 1.66602 9.99935 1.66602C11.1521 1.66602 12.2355 1.88477 13.2493 2.32227C14.2632 2.75977 15.1452 3.35352 15.8952 4.10352C16.6452 4.85352 17.2389 5.73546 17.6764 6.74935C18.1139 7.76324 18.3327 8.84657 18.3327 9.99935C18.3327 11.1521 18.1139 12.2355 17.6764 13.2493C17.2389 14.2632 16.6452 15.1452 15.8952 15.8952C15.1452 16.6452 14.2632 17.2389 13.2493 17.6764C12.2355 18.1139 11.1521 18.3327 9.99935 18.3327ZM9.99935 16.666C11.8605 16.666 13.4368 16.0202 14.7285 14.7285C16.0202 13.4368 16.666 11.8605 16.666 9.99935C16.666 8.13824 16.0202 6.56185 14.7285 5.27018C13.4368 3.97852 11.8605 3.33268 9.99935 3.33268C8.13824 3.33268 6.56185 3.97852 5.27018 5.27018C3.97852 6.56185 3.33268 8.13824 3.33268 9.99935C3.33268 11.8605 3.97852 13.4368 5.27018 14.7285C6.56185 16.0202 8.13824 16.666 9.99935 16.666Z" fill="#89D200"/>
</svg>
