<svg width="170" height="32" viewBox="0 0 170 32" fill="none" xmlns="http://www.w3.org/2000/svg">
<path d="M42.2324 23.0238V6.8938H44.4054L45.3437 10.0507V23.0485H42.2324V23.0238ZM53.3936 23.0238L43.8128 10.6427L44.4054 6.86914L54.0109 19.2503L53.3936 23.0238ZM53.3936 23.0238L52.5047 19.9902V6.86914H55.6407V22.9991H53.3936V23.0238Z" fill="white"/>
<path d="M62.5805 23.2469C61.5681 23.2469 60.6544 23.0003 59.8642 22.4823C59.0494 21.9891 58.432 21.2985 57.9629 20.4106C57.4937 19.5474 57.2715 18.5608 57.2715 17.4756C57.2715 16.3658 57.4937 15.3792 57.9629 14.516C58.432 13.6528 59.0494 12.9622 59.8642 12.4443C60.6791 11.951 61.5927 11.6797 62.6052 11.6797C63.3953 11.6797 64.0867 11.8523 64.7287 12.173C65.3461 12.4936 65.8646 12.9375 66.235 13.5048C66.6054 14.0721 66.8276 14.7133 66.8523 15.4532V19.4734C66.8276 20.1886 66.6301 20.8299 66.235 21.4218C65.8646 21.9891 65.3461 22.433 64.7287 22.7536C64.0867 23.0743 63.3706 23.2469 62.5805 23.2469ZM63.1484 20.4599C63.988 20.4599 64.6794 20.1886 65.1979 19.6214C65.7165 19.0541 65.9881 18.3389 65.9881 17.4756C65.9881 16.8837 65.8646 16.3658 65.6177 15.9218C65.3708 15.4532 65.0498 15.1079 64.63 14.8613C64.2102 14.6147 63.7163 14.4913 63.1484 14.4913C62.6052 14.4913 62.1113 14.6147 61.6915 14.886C61.2717 15.1573 60.9507 15.5025 60.7038 15.9465C60.4569 16.3904 60.3581 16.9084 60.3581 17.4756C60.3581 18.0676 60.4816 18.5855 60.7038 19.0294C60.9507 19.4734 61.2717 19.8187 61.7162 20.09C62.136 20.3366 62.6052 20.4599 63.1484 20.4599ZM65.7905 23.0249V20.0406L66.2844 17.3277L65.7905 14.6393V11.9263H68.8278V23.0249H65.7905Z" fill="white"/>
<path d="M76.952 11.9238H69.791V14.5628H76.952V11.9238Z" fill="white"/>
<path d="M74.3602 7.3125H71.3477V23.0232H74.3602V7.3125Z" fill="white"/>
<path d="M82.926 23.2217C81.963 23.2217 81.0987 23.0244 80.3333 22.6051C79.5678 22.1858 78.9752 21.6186 78.5307 20.9033C78.1109 20.1634 77.8887 19.3249 77.8887 18.363V11.9258H80.9259V18.289C80.9259 18.7576 81 19.1522 81.1481 19.4728C81.2963 19.7935 81.5185 20.0401 81.8395 20.2127C82.1359 20.3854 82.5062 20.4594 82.926 20.4594C83.5433 20.4594 84.0372 20.2621 84.4076 19.8921C84.7533 19.4975 84.9262 18.9796 84.9262 18.289V11.9258H87.9387V18.363C87.9387 19.3249 87.7165 20.1881 87.2967 20.9033C86.8769 21.6432 86.2843 22.2105 85.5188 22.6051C84.7533 23.0244 83.889 23.2217 82.926 23.2217Z" fill="white"/>
<path d="M89.8633 23.0249V11.9263H92.8758V23.0249H89.8633ZM92.8758 16.9084L91.7153 16.0945C91.8634 14.738 92.2585 13.6528 92.9005 12.8635C93.5672 12.0743 94.5055 11.6797 95.7402 11.6797C96.2834 11.6797 96.7773 11.7783 97.1971 11.951C97.6169 12.1236 98.0119 12.4196 98.3576 12.8142L96.481 14.9846C96.3081 14.7873 96.1106 14.6393 95.8637 14.5653C95.6167 14.4913 95.3451 14.442 95.0488 14.442C94.4068 14.442 93.8882 14.6393 93.4684 15.0339C93.0734 15.4532 92.8758 16.0698 92.8758 16.9084Z" fill="white"/>
<path d="M103.299 23.2469C102.287 23.2469 101.373 23.0003 100.583 22.4823C99.7681 21.9891 99.1508 21.2985 98.6816 20.4106C98.2125 19.5474 97.9902 18.5608 97.9902 17.4756C97.9902 16.3658 98.2125 15.3792 98.6816 14.516C99.1508 13.6528 99.7681 12.9622 100.583 12.4443C101.398 11.951 102.311 11.6797 103.324 11.6797C104.114 11.6797 104.805 11.8523 105.447 12.173C106.065 12.4936 106.583 12.9375 106.954 13.5048C107.349 14.0721 107.546 14.7133 107.571 15.4532V19.4734C107.546 20.1886 107.349 20.8299 106.954 21.4218C106.583 21.9891 106.065 22.433 105.447 22.7536C104.83 23.0743 104.089 23.2469 103.299 23.2469ZM103.867 20.4599C104.707 20.4599 105.398 20.1886 105.917 19.6214C106.435 19.0541 106.707 18.3389 106.707 17.4756C106.707 16.8837 106.583 16.3658 106.336 15.9218C106.09 15.4532 105.769 15.1079 105.349 14.8613C104.929 14.6147 104.435 14.4913 103.867 14.4913C103.324 14.4913 102.83 14.6147 102.41 14.886C101.99 15.1573 101.669 15.5025 101.423 15.9465C101.176 16.3904 101.077 16.9084 101.077 17.4756C101.077 18.0676 101.2 18.5855 101.423 19.0294C101.669 19.4734 101.99 19.8187 102.435 20.09C102.855 20.3366 103.324 20.4599 103.867 20.4599ZM106.509 23.0249V20.0406L107.003 17.3277L106.509 14.6393V11.9263H109.547V23.0249H106.509Z" fill="white"/>
<path d="M111.717 23.0236V6.40039H114.729V22.999H111.717V23.0236Z" fill="white"/>
<path d="M121.453 22.9991V6.86914H124.589V22.9991H121.453ZM123.75 22.9991V20.2121H131.972V22.9991H123.75Z" fill="white"/>
<path d="M134.96 10.1255C134.466 10.1255 134.071 9.95286 133.75 9.63223C133.429 9.3116 133.256 8.89232 133.256 8.39905C133.256 7.93044 133.429 7.51116 133.75 7.19054C134.071 6.84525 134.466 6.69727 134.96 6.69727C135.454 6.69727 135.873 6.86991 136.194 7.19054C136.515 7.53583 136.663 7.93044 136.663 8.39905C136.663 8.89232 136.515 9.28694 136.194 9.63223C135.873 9.95286 135.478 10.1255 134.96 10.1255ZM133.429 22.9999V11.9013H136.491V22.9999H133.429Z" fill="white"/>
<path d="M138.395 22.9995V16.7103C138.395 15.6991 138.617 14.8112 139.037 14.0713C139.456 13.3314 140.074 12.7395 140.839 12.2956C141.605 11.8763 142.518 11.6543 143.531 11.6543C144.568 11.6543 145.481 11.8763 146.222 12.2956C146.988 12.7148 147.58 13.3068 148 14.0713C148.42 14.8359 148.642 15.7238 148.642 16.735V23.0242H145.63V16.8583C145.63 16.1431 145.457 15.5511 145.086 15.1319C144.716 14.6879 144.197 14.4659 143.506 14.4659C142.815 14.4659 142.296 14.6879 141.926 15.1319C141.555 15.5758 141.382 16.1431 141.382 16.8583V22.9995H138.395Z" fill="white"/>
<path d="M150.564 22.999V6.40039H153.577V22.999H150.564ZM157.627 22.999L153.355 17.277L157.602 11.9004H161.084L156.071 17.9676L156.194 16.4878L161.306 22.9743H157.627V22.999Z" fill="white"/>
<path d="M165.455 23.2701C164.813 23.2701 164.196 23.1961 163.578 23.0235C162.961 22.8508 162.418 22.6289 161.924 22.3082C161.43 21.9876 160.986 21.6177 160.615 21.1984L162.443 19.3733C162.813 19.8172 163.257 20.1378 163.751 20.3598C164.245 20.5818 164.813 20.6804 165.406 20.6804C165.9 20.6804 166.27 20.6065 166.542 20.4585C166.813 20.3105 166.937 20.1132 166.937 19.8419C166.937 19.5459 166.788 19.2993 166.517 19.1513C166.245 18.9787 165.9 18.8553 165.48 18.732C165.06 18.6087 164.615 18.4854 164.146 18.3374C163.677 18.1894 163.233 18.0168 162.813 17.7701C162.393 17.5235 162.047 17.2029 161.776 16.7589C161.504 16.3397 161.356 15.7724 161.356 15.1065C161.356 14.3912 161.529 13.7746 161.875 13.2567C162.22 12.7388 162.714 12.3195 163.381 12.0482C164.023 11.7769 164.788 11.6289 165.653 11.6289C166.566 11.6289 167.406 11.7769 168.147 12.0975C168.887 12.4181 169.505 12.8867 169.999 13.528L168.171 15.3531C167.826 14.9585 167.455 14.6625 167.035 14.4652C166.616 14.2679 166.171 14.1693 165.702 14.1693C165.233 14.1693 164.887 14.2432 164.665 14.3666C164.443 14.5145 164.319 14.6872 164.319 14.9338C164.319 15.2051 164.443 15.4271 164.714 15.5751C164.986 15.7231 165.332 15.8464 165.751 15.9697C166.171 16.093 166.64 16.2163 167.085 16.3643C167.554 16.5123 167.998 16.7096 168.418 16.9809C168.838 17.2522 169.184 17.5975 169.455 18.0168C169.727 18.4361 169.85 19.0033 169.85 19.6692C169.85 20.7544 169.455 21.6177 168.69 22.2589C167.85 22.9495 166.788 23.2701 165.455 23.2701Z" fill="white"/>
<path d="M16.019 32C24.8661 32 32.0381 24.8366 32.0381 16C32.0381 7.16344 24.8661 0 16.019 0C7.17196 0 0 7.16344 0 16C0 24.8366 7.17196 32 16.019 32Z" fill="#A3E625"/>
<path d="M16.0842 8.74816H25.2794V6.52344H16.0842C13.5511 6.52641 11.1227 7.53294 9.33173 9.32218C7.54079 11.1114 6.53363 13.5372 6.53125 16.0673V20.7998H15.7264C17.078 20.7981 18.3737 20.261 19.3294 19.3064C20.2851 18.3518 20.8228 17.0577 20.8246 15.7077V13.1976H23.052V15.7055C23.0496 17.6453 22.2771 19.505 20.9038 20.8766C19.5305 22.2483 17.6686 23.0199 15.7264 23.0223H6.53125V25.247H15.7264C18.2591 25.2441 20.6872 24.2378 22.4781 22.4491C24.269 20.6603 25.2764 18.2351 25.2794 15.7055V10.9751H16.0842C14.7326 10.9769 13.4369 11.514 12.4812 12.4685C11.5255 13.4231 10.9878 14.7173 10.986 16.0673V18.5751H8.75862V16.0673C8.7604 14.127 9.5327 12.2668 10.9061 10.8946C12.2794 9.52249 14.1417 8.75054 16.0842 8.74816ZM13.2156 16.0673C13.2153 15.6907 13.2893 15.3178 13.4333 14.9698C13.5773 14.6218 13.7885 14.3055 14.0548 14.039C14.3212 13.7726 14.6375 13.5611 14.9857 13.4167C15.3339 13.2724 15.7072 13.1979 16.0842 13.1976H18.595V15.7032C18.5944 16.4631 18.2921 17.1918 17.7543 17.7293C17.2165 18.2669 16.4873 18.5694 15.7264 18.5706H13.2156V16.0673Z" fill="#03271E"/>
</svg>
