<svg width="40" height="40" viewBox="0 0 40 40" fill="none" xmlns="http://www.w3.org/2000/svg">
<path d="M10.0007 30.0007L6.16732 33.834C5.63954 34.3618 5.03537 34.4798 4.35482 34.1882C3.67426 33.8965 3.33398 33.3757 3.33398 32.6257V6.66732C3.33398 5.75065 3.66037 4.96593 4.31315 4.31315C4.96593 3.66037 5.75065 3.33398 6.66732 3.33398H33.334C34.2506 3.33398 35.0354 3.66037 35.6881 4.31315C36.3409 4.96593 36.6673 5.75065 36.6673 6.66732V26.6673C36.6673 27.584 36.3409 28.3687 35.6881 29.0215C35.0354 29.6743 34.2506 30.0007 33.334 30.0007H10.0007ZM8.58398 26.6673H33.334V6.66732H6.66732V28.5423L8.58398 26.6673ZM11.6673 23.334H21.6673C22.1395 23.334 22.5354 23.1743 22.8548 22.8548C23.1743 22.5354 23.334 22.1395 23.334 21.6673C23.334 21.1951 23.1743 20.7993 22.8548 20.4798C22.5354 20.1604 22.1395 20.0007 21.6673 20.0007H11.6673C11.1951 20.0007 10.7993 20.1604 10.4798 20.4798C10.1604 20.7993 10.0007 21.1951 10.0007 21.6673C10.0007 22.1395 10.1604 22.5354 10.4798 22.8548C10.7993 23.1743 11.1951 23.334 11.6673 23.334ZM11.6673 18.334H28.334C28.8062 18.334 29.202 18.1743 29.5215 17.8548C29.8409 17.5354 30.0006 17.1395 30.0006 16.6673C30.0006 16.1951 29.8409 15.7993 29.5215 15.4798C29.202 15.1604 28.8062 15.0007 28.334 15.0007H11.6673C11.1951 15.0007 10.7993 15.1604 10.4798 15.4798C10.1604 15.7993 10.0007 16.1951 10.0007 16.6673C10.0007 17.1395 10.1604 17.5354 10.4798 17.8548C10.7993 18.1743 11.1951 18.334 11.6673 18.334ZM11.6673 13.334H28.334C28.8062 13.334 29.202 13.1743 29.5215 12.8548C29.8409 12.5354 30.0006 12.1395 30.0006 11.6673C30.0006 11.1951 29.8409 10.7993 29.5215 10.4798C29.202 10.1604 28.8062 10.0007 28.334 10.0007H11.6673C11.1951 10.0007 10.7993 10.1604 10.4798 10.4798C10.1604 10.7993 10.0007 11.1951 10.0007 11.6673C10.0007 12.1395 10.1604 12.5354 10.4798 12.8548C10.7993 13.1743 11.1951 13.334 11.6673 13.334Z" fill="#03271E"/>
</svg>
