<svg width="64" height="64" viewBox="0 0 64 64" fill="none" xmlns="http://www.w3.org/2000/svg">
<g filter="url(#filter0_d_201_1656)">
<rect x="10" y="2" width="44" height="44" rx="6" fill="#03271E"/>
<path d="M42 16.0286C39.3099 15.5932 37.3119 16.1077 36.0058 17.5723C34.6998 19.0369 34.0468 21.1941 34.0468 24.0441V32.1189H42V24.0441H37.9064C37.692 22.6191 37.8869 21.4613 38.4912 20.5707C39.115 19.6801 40.1287 19.2941 41.5322 19.4129L42 16.0286ZM29.9532 16.0286C27.2632 15.5932 25.2651 16.1077 23.9591 17.5723C22.653 19.0369 22 21.1941 22 24.0441V32.1189H29.9532V24.0441H25.8596C25.6452 22.6191 25.8402 21.4613 26.4444 20.5707C27.0682 19.6801 28.0819 19.2941 29.4854 19.4129L29.9532 16.0286Z" fill="white"/>
</g>
<defs>
<filter id="filter0_d_201_1656" x="0" y="0" width="64" height="64" filterUnits="userSpaceOnUse" color-interpolation-filters="sRGB">
<feFlood flood-opacity="0" result="BackgroundImageFix"/>
<feColorMatrix in="SourceAlpha" type="matrix" values="0 0 0 0 0 0 0 0 0 0 0 0 0 0 0 0 0 0 127 0" result="hardAlpha"/>
<feMorphology radius="8" operator="erode" in="SourceAlpha" result="effect1_dropShadow_201_1656"/>
<feOffset dy="8"/>
<feGaussianBlur stdDeviation="9"/>
<feColorMatrix type="matrix" values="0 0 0 0 0.0117647 0 0 0 0 0.152941 0 0 0 0 0.117647 0 0 0 1 0"/>
<feBlend mode="normal" in2="BackgroundImageFix" result="effect1_dropShadow_201_1656"/>
<feBlend mode="normal" in="SourceGraphic" in2="effect1_dropShadow_201_1656" result="shape"/>
</filter>
</defs>
</svg>
