<svg width="132" height="56" viewBox="0 0 132 56" fill="none" xmlns="http://www.w3.org/2000/svg">
<g clip-path="url(#clip0_11_1487)">
<path d="M22.6266 0H26.4945V24H22.6266V0ZM40.0319 16.344C40.0319 20.017 36.9212 20.3098 35.9958 20.3098C33.6838 20.3098 33.2632 18.1613 33.2632 16.8653V7.68H29.3954V16.8461C29.3954 19.1213 30.1148 20.999 31.3757 22.2509C32.4896 23.3578 34.1586 23.9626 35.9668 23.9626C37.249 23.9626 39.065 23.5661 40.0319 22.6896V24H43.8998V7.68H40.0319V16.344ZM51.6354 1.92H47.7676V7.68H44.8667V11.52H47.7676V24H51.6354V11.52H54.5363V7.68H51.6354V1.92ZM66.7171 19.1203C65.8749 19.872 64.7629 20.2886 63.5426 20.2886C60.8525 20.2886 58.877 18.3274 58.877 15.6346C58.877 12.9418 60.7897 11.063 63.5426 11.063C64.7416 11.063 65.8749 11.4595 66.7384 12.2112L67.3253 12.7123L69.9332 10.1242L69.2805 9.53952C67.746 8.16384 65.7086 7.392 63.5416 7.392C58.7068 7.392 55.1958 10.8557 55.1958 15.6144C55.1958 20.353 58.791 23.9405 63.5416 23.9405C65.7492 23.9405 67.8078 23.1686 69.3231 21.7709L69.9535 21.1862L67.305 18.6L66.7171 19.1203ZM83.7385 9.10272C82.6246 7.9968 81.3192 7.392 79.511 7.392C78.2288 7.392 76.7764 7.78848 75.8094 8.664V0H71.9416V24H75.8094V15.0096C75.8094 11.3366 78.4376 11.0448 79.363 11.0448C81.675 11.0448 81.6112 13.1942 81.6112 14.4883V24H85.479V14.5085C85.479 12.2333 85.0004 10.3555 83.7385 9.10272Z" fill="white"/>
<path d="M63.4149 12.9005C64.1566 12.9005 64.8679 13.193 65.3923 13.7136C65.9167 14.2343 66.2114 14.9404 66.2114 15.6768C66.2114 16.4131 65.9167 17.1193 65.3923 17.6399C64.8679 18.1606 64.1566 18.4531 63.4149 18.4531C62.6733 18.4531 61.962 18.1606 61.4375 17.6399C60.9131 17.1193 60.6185 16.4131 60.6185 15.6768C60.6185 14.9404 60.9131 14.2343 61.4375 13.7136C61.962 13.193 62.6733 12.9005 63.4149 12.9005Z" fill="#FF3D2E"/>
<path d="M17.2116 17.9722C15.7409 19.4746 13.7431 20.2886 11.641 20.2886C7.3322 20.2886 4.19925 16.9286 4.19925 12.3168C4.19925 7.68384 7.3322 4.32384 11.641 4.32384C13.7228 4.32384 15.6983 5.13696 17.1913 6.6192L17.7792 7.20384L20.3649 4.6368L19.7973 4.05216C17.6535 1.86048 14.7527 0.671997 11.641 0.671997C5.29288 0.671997 0.520935 5.68032 0.520935 12.337C0.520935 18.9734 5.31416 23.9616 11.641 23.9616C14.7739 23.9616 17.6748 22.752 19.8186 20.5603L20.3862 19.9757L17.8218 17.3674L17.2116 17.9722Z" fill="white"/>
</g>
<g clip-path="url(#clip1_11_1487)">
<path d="M14.93 38L13.46 33.16C13.17 32.21 11.83 32.21 11.55 33.16L10.07 38H5.62002C4.65002 38 4.25002 39.25 5.04002 39.81L8.68002 42.41L7.25002 47.02C6.96002 47.95 8.04002 48.7 8.81002 48.11L12.5 45.31L16.19 48.12C16.96 48.71 18.04 47.96 17.75 47.03L16.32 42.42L19.96 39.82C20.75 39.25 20.35 38.01 19.38 38.01H14.93V38Z" fill="#FF3D2E"/>
</g>
<g clip-path="url(#clip2_11_1487)">
<path d="M38.93 38L37.46 33.16C37.17 32.21 35.83 32.21 35.55 33.16L34.07 38H29.62C28.65 38 28.25 39.25 29.04 39.81L32.68 42.41L31.25 47.02C30.96 47.95 32.04 48.7 32.81 48.11L36.5 45.31L40.19 48.12C40.96 48.71 42.04 47.96 41.75 47.03L40.32 42.42L43.96 39.82C44.75 39.25 44.35 38.01 43.38 38.01H38.93V38Z" fill="#FF3D2E"/>
</g>
<g clip-path="url(#clip3_11_1487)">
<path d="M62.93 38L61.46 33.16C61.17 32.21 59.83 32.21 59.55 33.16L58.07 38H53.62C52.65 38 52.25 39.25 53.04 39.81L56.68 42.41L55.25 47.02C54.96 47.95 56.04 48.7 56.81 48.11L60.5 45.31L64.19 48.12C64.96 48.71 66.04 47.96 65.75 47.03L64.32 42.42L67.96 39.82C68.75 39.25 68.35 38.01 67.38 38.01H62.93V38Z" fill="#FF3D2E"/>
</g>
<g clip-path="url(#clip4_11_1487)">
<path d="M86.93 38L85.46 33.16C85.17 32.21 83.83 32.21 83.55 33.16L82.07 38H77.62C76.65 38 76.25 39.25 77.04 39.81L80.68 42.41L79.25 47.02C78.96 47.95 80.04 48.7 80.81 48.11L84.5 45.31L88.19 48.12C88.96 48.71 90.04 47.96 89.75 47.03L88.32 42.42L91.96 39.82C92.75 39.25 92.35 38.01 91.38 38.01H86.93V38Z" fill="#FF3D2E"/>
</g>
<g clip-path="url(#clip5_11_1487)">
<path d="M110.93 38L109.46 33.16C109.17 32.21 107.83 32.21 107.55 33.16L106.07 38H101.62C100.65 38 100.25 39.25 101.04 39.81L104.68 42.41L103.25 47.02C102.96 47.95 104.04 48.7 104.81 48.11L108.5 45.31L112.19 48.12C112.96 48.71 114.04 47.96 113.75 47.03L112.32 42.42L115.96 39.82C116.75 39.25 116.35 38.01 115.38 38.01H110.93V38Z" fill="#FF3D2E"/>
</g>
<defs>
<clipPath id="clip0_11_1487">
<rect width="85" height="24" fill="white" transform="translate(0.5)"/>
</clipPath>
<clipPath id="clip1_11_1487">
<rect width="24" height="24" fill="white" transform="translate(0.5 28)"/>
</clipPath>
<clipPath id="clip2_11_1487">
<rect width="24" height="24" fill="white" transform="translate(24.5 28)"/>
</clipPath>
<clipPath id="clip3_11_1487">
<rect width="24" height="24" fill="white" transform="translate(48.5 28)"/>
</clipPath>
<clipPath id="clip4_11_1487">
<rect width="24" height="24" fill="white" transform="translate(72.5 28)"/>
</clipPath>
<clipPath id="clip5_11_1487">
<rect width="24" height="24" fill="white" transform="translate(96.5 28)"/>
</clipPath>
</defs>
</svg>
