<svg width="132" height="64" viewBox="0 0 132 64" fill="none" xmlns="http://www.w3.org/2000/svg">
<g clip-path="url(#clip0_11_1486)">
<path d="M34.9207 11.309H48.1826V13.7634H42.968V27.5613H40.1006V13.7634H34.9092V11.309H34.9207ZM47.6161 15.7935H50.0673V18.0645H50.1135C50.1944 17.7434 50.3447 17.4337 50.5644 17.1355C50.7841 16.8373 51.05 16.5505 51.3622 16.3097C51.6744 16.0573 52.0213 15.8624 52.4028 15.7018C52.7844 15.5527 53.1775 15.4724 53.5706 15.4724C53.8712 15.4724 54.0909 15.4839 54.2065 15.4953C54.3222 15.5068 54.4378 15.5297 54.565 15.5412V18.0416C54.38 18.0072 54.195 17.9842 53.9984 17.9613C53.8019 17.9384 53.6169 17.9269 53.4319 17.9269C52.9925 17.9269 52.5763 18.0186 52.1831 18.1907C51.79 18.3627 51.4547 18.6265 51.1657 18.9591C50.8766 19.3032 50.6454 19.7161 50.4719 20.2208C50.2985 20.7254 50.2176 21.2989 50.2176 21.9527V27.5498H47.6045V15.7935H47.6161ZM66.5781 27.5613H64.0113V25.9211H63.965C63.6413 26.5176 63.1673 26.9878 62.5313 27.3434C61.8954 27.6989 61.2479 27.8824 60.5889 27.8824C59.028 27.8824 57.8949 27.5039 57.2011 26.7355C56.5074 25.967 56.1605 24.8086 56.1605 23.2602V15.7935H58.7736V23.0079C58.7736 24.0401 58.9702 24.7742 59.3748 25.1986C59.768 25.6229 60.3345 25.8409 61.0514 25.8409C61.6064 25.8409 62.0573 25.7606 62.4273 25.5885C62.7973 25.4165 63.0979 25.1986 63.3176 24.9118C63.5488 24.6366 63.7107 24.2925 63.8147 23.9025C63.9188 23.5125 63.965 23.0882 63.965 22.6294V15.805H66.5781V27.5613ZM71.0296 23.7878C71.1105 24.5448 71.3996 25.0724 71.8967 25.3821C72.4055 25.6803 73.0067 25.8409 73.712 25.8409C73.9548 25.8409 74.2323 25.8179 74.5445 25.7835C74.8567 25.7491 75.1573 25.6688 75.4232 25.5656C75.7007 25.4624 75.9204 25.3018 76.1054 25.0953C76.2788 24.8889 76.3597 24.6251 76.3482 24.2925C76.3366 23.9599 76.2094 23.6846 75.9782 23.4781C75.7469 23.2602 75.4579 23.0996 75.0995 22.962C74.741 22.8358 74.3364 22.7211 73.8739 22.6294C73.4114 22.5376 72.9489 22.4344 72.4748 22.3312C71.9892 22.228 71.5152 22.0903 71.0642 21.9412C70.6133 21.7921 70.2086 21.5857 69.8502 21.3219C69.4918 21.0695 69.2027 20.7369 68.9946 20.3355C68.7749 19.9341 68.6709 19.4409 68.6709 18.8444C68.6709 18.2022 68.8327 17.6746 69.1449 17.2387C69.4571 16.8029 69.8618 16.4588 70.3358 16.195C70.8214 15.9312 71.3533 15.7477 71.943 15.633C72.5327 15.5297 73.0992 15.4724 73.6311 15.4724C74.2439 15.4724 74.8335 15.5412 75.3885 15.6674C75.9435 15.7935 76.4522 16 76.9032 16.2982C77.3541 16.5849 77.7241 16.9634 78.0247 17.4222C78.3253 17.881 78.5103 18.443 78.5913 19.0968H75.8626C75.7354 18.4774 75.4579 18.053 75.007 17.8466C74.556 17.6287 74.0357 17.5254 73.4576 17.5254C73.2726 17.5254 73.053 17.5369 72.7986 17.5713C72.5442 17.6057 72.313 17.6631 72.0817 17.7434C71.862 17.8237 71.677 17.9498 71.5152 18.1104C71.3649 18.271 71.2839 18.4774 71.2839 18.7412C71.2839 19.0624 71.3996 19.3147 71.6192 19.5097C71.8389 19.7047 72.128 19.8652 72.4864 20.0029C72.8448 20.129 73.2495 20.2437 73.712 20.3355C74.1745 20.4272 74.6485 20.5305 75.1342 20.6337C75.6082 20.7369 76.0707 20.8746 76.5332 21.0237C76.9957 21.1728 77.4003 21.3792 77.7588 21.643C78.1172 21.9068 78.4063 22.228 78.6259 22.6179C78.8456 23.0079 78.9612 23.5011 78.9612 24.0746C78.9612 24.7742 78.7994 25.3591 78.4756 25.8523C78.1519 26.3341 77.7356 26.7355 77.2269 27.0337C76.7182 27.3319 76.1401 27.5613 75.5157 27.6989C74.8913 27.8366 74.267 27.9054 73.6542 27.9054C72.9026 27.9054 72.2089 27.8251 71.573 27.653C70.9371 27.481 70.3821 27.2287 69.9196 26.8961C69.4571 26.552 69.0871 26.1276 68.8212 25.6229C68.5553 25.1183 68.4165 24.5104 68.3934 23.8108H71.0296V23.7878ZM79.655 15.7935H81.6321V12.2609H84.2452V15.7935H86.6039V17.7319H84.2452V24.0172C84.2452 24.2925 84.2567 24.5219 84.2799 24.7283C84.303 24.9233 84.3608 25.0953 84.4417 25.233C84.5227 25.3706 84.6499 25.4738 84.8233 25.5427C84.9967 25.6115 85.2164 25.6459 85.517 25.6459C85.702 25.6459 85.887 25.6459 86.072 25.6344C86.257 25.6229 86.442 25.6 86.627 25.5541V27.5613C86.3379 27.5957 86.0489 27.6186 85.783 27.653C85.5055 27.6875 85.228 27.6989 84.9389 27.6989C84.2452 27.6989 83.6902 27.6301 83.274 27.5039C82.8577 27.3778 82.5224 27.1828 82.2912 26.9305C82.0484 26.6781 81.8981 26.3685 81.8056 25.99C81.7246 25.6115 81.6668 25.1756 81.6553 24.6939V17.7548H79.6781V15.7935H79.655ZM88.4538 15.7935H90.9281V17.3878H90.9744C91.3444 16.6996 91.8531 16.2179 92.5122 15.9197C93.1712 15.6215 93.8765 15.4724 94.6512 15.4724C95.5877 15.4724 96.3971 15.633 97.0908 15.9656C97.7846 16.2867 98.3627 16.734 98.8252 17.3075C99.2876 17.881 99.6229 18.5462 99.8542 19.3032C100.085 20.0602 100.201 20.8746 100.201 21.7348C100.201 22.5262 100.097 23.2946 99.8889 24.0287C99.6808 24.7742 99.3686 25.428 98.9523 26.0014C98.5361 26.5749 98.0042 27.0222 97.3567 27.3663C96.7093 27.7104 95.9577 27.8824 95.079 27.8824C94.6974 27.8824 94.3159 27.848 93.9343 27.7792C93.5528 27.7104 93.1828 27.5957 92.8359 27.4466C92.489 27.2975 92.1537 27.1025 91.8647 26.8616C91.5641 26.6208 91.3213 26.3455 91.1131 26.0358H91.0669V31.9082H88.4538V15.7935ZM97.588 21.6889C97.588 21.1613 97.5186 20.6452 97.3799 20.1405C97.2411 19.6358 97.033 19.2 96.7555 18.81C96.478 18.4201 96.1311 18.1104 95.7265 17.881C95.3102 17.6516 94.8362 17.5254 94.3043 17.5254C93.2059 17.5254 92.3734 17.9039 91.8184 18.6609C91.2635 19.4179 90.986 20.4272 90.986 21.6889C90.986 22.2853 91.0553 22.8358 91.2056 23.3405C91.356 23.8452 91.5641 24.281 91.8647 24.648C92.1537 25.0151 92.5006 25.3018 92.9053 25.5082C93.31 25.7262 93.784 25.8294 94.3159 25.8294C94.9171 25.8294 95.4143 25.7032 95.8305 25.4624C96.2468 25.2215 96.5821 24.9004 96.848 24.5219C97.1139 24.1319 97.3105 23.6961 97.4261 23.2029C97.5302 22.7097 97.588 22.205 97.588 21.6889ZM102.201 11.309H104.814V13.7634H102.201V11.309ZM102.201 15.7935H104.814V27.5613H102.201V15.7935ZM107.15 11.309H109.763V27.5613H107.15V11.309ZM117.776 27.8824C116.828 27.8824 115.983 27.7219 115.244 27.4122C114.504 27.1025 113.879 26.6667 113.359 26.1276C112.85 25.5771 112.457 24.9233 112.191 24.1663C111.925 23.4093 111.786 22.572 111.786 21.6659C111.786 20.7713 111.925 19.9455 112.191 19.1885C112.457 18.4315 112.85 17.7778 113.359 17.2272C113.868 16.6767 114.504 16.2523 115.244 15.9427C115.983 15.633 116.828 15.4724 117.776 15.4724C118.724 15.4724 119.568 15.633 120.308 15.9427C121.048 16.2523 121.672 16.6882 122.192 17.2272C122.701 17.7778 123.094 18.4315 123.36 19.1885C123.626 19.9455 123.765 20.7713 123.765 21.6659C123.765 22.572 123.626 23.4093 123.36 24.1663C123.094 24.9233 122.701 25.5771 122.192 26.1276C121.684 26.6781 121.048 27.1025 120.308 27.4122C119.568 27.7219 118.724 27.8824 117.776 27.8824ZM117.776 25.8294C118.354 25.8294 118.862 25.7032 119.29 25.4624C119.718 25.2215 120.065 24.9004 120.342 24.5104C120.62 24.1204 120.817 23.6731 120.955 23.1799C121.082 22.6867 121.152 22.1821 121.152 21.6659C121.152 21.1613 121.082 20.6681 120.955 20.1634C120.828 19.6588 120.62 19.2229 120.342 18.833C120.065 18.443 119.718 18.1333 119.29 17.8925C118.862 17.6516 118.354 17.5254 117.776 17.5254C117.198 17.5254 116.689 17.6516 116.261 17.8925C115.833 18.1333 115.486 18.4545 115.209 18.833C114.931 19.2229 114.735 19.6588 114.596 20.1634C114.469 20.6681 114.399 21.1613 114.399 21.6659C114.399 22.1821 114.469 22.6867 114.596 23.1799C114.723 23.6731 114.931 24.1204 115.209 24.5104C115.486 24.9004 115.833 25.2215 116.261 25.4624C116.689 25.7147 117.198 25.8294 117.776 25.8294ZM124.528 15.7935H126.505V12.2609H129.118V15.7935H131.477V17.7319H129.118V24.0172C129.118 24.2925 129.13 24.5219 129.153 24.7283C129.176 24.9233 129.234 25.0953 129.315 25.233C129.396 25.3706 129.523 25.4738 129.696 25.5427C129.87 25.6115 130.089 25.6459 130.39 25.6459C130.575 25.6459 130.76 25.6459 130.945 25.6344C131.13 25.6229 131.315 25.6 131.5 25.5541V27.5613C131.211 27.5957 130.922 27.6186 130.656 27.653C130.378 27.6875 130.101 27.6989 129.812 27.6989C129.118 27.6989 128.563 27.6301 128.147 27.5039C127.731 27.3778 127.395 27.1828 127.164 26.9305C126.921 26.6781 126.771 26.3685 126.679 25.99C126.598 25.6115 126.54 25.1756 126.528 24.6939V17.7548H124.551V15.7935H124.528Z" fill="white"/>
<path d="M31.8683 11.309H19.8898L16.1899 0L12.4785 11.309L0.5 11.2975L10.2007 18.2939L6.48923 29.5914L16.1899 22.6065L25.8791 29.5914L22.1792 18.2939L31.8683 11.309Z" fill="#00B67A"/>
<path d="M23.0117 20.8516L22.1792 18.2939L16.1899 22.6064L23.0117 20.8516Z" fill="#005128"/>
</g>
<g clip-path="url(#clip1_11_1486)">
<path d="M14.93 46L13.46 41.16C13.17 40.21 11.83 40.21 11.55 41.16L10.07 46H5.62002C4.65002 46 4.25002 47.25 5.04002 47.81L8.68002 50.41L7.25002 55.02C6.96002 55.95 8.04002 56.7 8.81002 56.11L12.5 53.31L16.19 56.12C16.96 56.71 18.04 55.96 17.75 55.03L16.32 50.42L19.96 47.82C20.75 47.25 20.35 46.01 19.38 46.01H14.93V46Z" fill="#00B67A"/>
</g>
<g clip-path="url(#clip2_11_1486)">
<path d="M38.93 46L37.46 41.16C37.17 40.21 35.83 40.21 35.55 41.16L34.07 46H29.62C28.65 46 28.25 47.25 29.04 47.81L32.68 50.41L31.25 55.02C30.96 55.95 32.04 56.7 32.81 56.11L36.5 53.31L40.19 56.12C40.96 56.71 42.04 55.96 41.75 55.03L40.32 50.42L43.96 47.82C44.75 47.25 44.35 46.01 43.38 46.01H38.93V46Z" fill="#00B67A"/>
</g>
<g clip-path="url(#clip3_11_1486)">
<path d="M62.93 46L61.46 41.16C61.17 40.21 59.83 40.21 59.55 41.16L58.07 46H53.62C52.65 46 52.25 47.25 53.04 47.81L56.68 50.41L55.25 55.02C54.96 55.95 56.04 56.7 56.81 56.11L60.5 53.31L64.19 56.12C64.96 56.71 66.04 55.96 65.75 55.03L64.32 50.42L67.96 47.82C68.75 47.25 68.35 46.01 67.38 46.01H62.93V46Z" fill="#00B67A"/>
</g>
<g clip-path="url(#clip4_11_1486)">
<path d="M86.93 46L85.46 41.16C85.17 40.21 83.83 40.21 83.55 41.16L82.07 46H77.62C76.65 46 76.25 47.25 77.04 47.81L80.68 50.41L79.25 55.02C78.96 55.95 80.04 56.7 80.81 56.11L84.5 53.31L88.19 56.12C88.96 56.71 90.04 55.96 89.75 55.03L88.32 50.42L91.96 47.82C92.75 47.25 92.35 46.01 91.38 46.01H86.93V46Z" fill="#00B67A"/>
</g>
<g clip-path="url(#clip5_11_1486)">
<path d="M110.93 46L109.46 41.16C109.17 40.21 107.83 40.21 107.55 41.16L106.07 46H101.62C100.65 46 100.25 47.25 101.04 47.81L104.68 50.41L103.25 55.02C102.96 55.95 104.04 56.7 104.81 56.11L108.5 53.31L112.19 56.12C112.96 56.71 114.04 55.96 113.75 55.03L112.32 50.42L115.96 47.82C116.75 47.25 116.35 46.01 115.38 46.01H110.93V46Z" fill="#00B67A"/>
</g>
<defs>
<clipPath id="clip0_11_1486">
<rect width="131" height="32" fill="white" transform="translate(0.5)"/>
</clipPath>
<clipPath id="clip1_11_1486">
<rect width="24" height="24" fill="white" transform="translate(0.5 36)"/>
</clipPath>
<clipPath id="clip2_11_1486">
<rect width="24" height="24" fill="white" transform="translate(24.5 36)"/>
</clipPath>
<clipPath id="clip3_11_1486">
<rect width="24" height="24" fill="white" transform="translate(48.5 36)"/>
</clipPath>
<clipPath id="clip4_11_1486">
<rect width="24" height="24" fill="white" transform="translate(72.5 36)"/>
</clipPath>
<clipPath id="clip5_11_1486">
<rect width="24" height="24" fill="white" transform="translate(96.5 36)"/>
</clipPath>
</defs>
</svg>
