<svg width="16" height="16" viewBox="0 0 16 16" fill="none" xmlns="http://www.w3.org/2000/svg">
<path d="M4.34448 9.54932L3.35115 13.8507C3.28981 14.1167 3.39648 14.3933 3.62181 14.5487C3.73581 14.6273 3.86781 14.6673 4.00048 14.6673C4.12915 14.6673 4.25848 14.63 4.37048 14.5553L8.00048 12.1353L11.6305 14.5553C11.8625 14.71 12.1671 14.704 12.3938 14.5393C12.6191 14.3747 12.7185 14.086 12.6418 13.818L11.4225 9.55132L14.4465 6.82998C14.6445 6.65132 14.7171 6.37265 14.6318 6.12065C14.5458 5.86865 14.3185 5.69132 14.0531 5.66998L10.2525 5.36732L8.60781 1.72665C8.50048 1.48732 8.26248 1.33398 8.00048 1.33398C7.73848 1.33398 7.50048 1.48732 7.39315 1.72665L5.74848 5.36732L1.94781 5.66932C1.68648 5.68998 1.46181 5.86132 1.37381 6.10732C1.28448 6.35332 1.34848 6.62865 1.53515 6.81132L4.34448 9.54932ZM6.24648 6.66532C6.48848 6.64598 6.70181 6.49665 6.80115 6.27465L8.00048 3.62065L9.19981 6.27465C9.29915 6.49665 9.51248 6.64598 9.75448 6.66532L12.4025 6.87532L10.2218 8.83798C10.0325 9.00865 9.95715 9.27132 10.0265 9.51665L10.8618 12.44L8.37115 10.7793C8.14715 10.6293 7.85581 10.6293 7.63181 10.7793L5.02915 12.5147L5.72915 9.48398C5.78115 9.25732 5.71181 9.01932 5.54515 8.85732L3.51981 6.88265L6.24648 6.66532Z" fill="#B4B7C9"/>
</svg>
