<svg width="16" height="16" viewBox="0 0 16 16" fill="none" xmlns="http://www.w3.org/2000/svg">
<path d="M14.6316 6.11998C14.5456 5.86798 14.3183 5.68998 14.053 5.66932L10.2523 5.36732L8.60765 1.72665C8.50031 1.48732 8.26231 1.33398 8.00031 1.33398C7.73831 1.33398 7.50031 1.48732 7.39298 1.72598L5.74831 5.36732L1.94764 5.66932C1.68698 5.68998 1.46231 5.86132 1.37364 6.10732C1.28498 6.35332 1.34764 6.62865 1.53498 6.81132L4.34364 9.54932L3.35031 13.8507C3.28898 14.1167 3.39631 14.3933 3.62098 14.5487C3.73565 14.6273 3.86764 14.6673 4.00031 14.6673C4.12898 14.6673 4.25831 14.63 4.37031 14.5553L8.00031 12.1353L11.6303 14.5553C11.8623 14.71 12.167 14.704 12.3936 14.5393C12.619 14.3747 12.7183 14.086 12.6416 13.818L11.4223 9.55132L14.4463 6.82998C14.6443 6.65132 14.717 6.37265 14.6316 6.11998Z" fill="#FFBA08"/>
</svg>
