<svg width="40" height="40" viewBox="0 0 40 40" fill="none" xmlns="http://www.w3.org/2000/svg">
<rect width="40" height="40" rx="20" fill="white"/>
<path d="M15.9063 18.1384C16.2946 17.8571 16.4821 17.3929 16.4821 16.7545C16.4955 16.4509 16.433 16.1518 16.2991 15.8795C16.1786 15.6607 16 15.4777 15.7813 15.3482C15.5544 15.2107 15.3025 15.1196 15.0402 15.0804C14.7545 15.0268 14.4643 15 14.1786 15.0045H11.0402V18.5625H14.4375C15.0223 18.567 15.5179 18.4241 15.9063 18.1384ZM16.433 21.3527C15.9955 21.0179 15.4107 20.8527 14.683 20.8527H11.0313V25.0491H14.6116C14.9464 25.0491 15.2545 25.0179 15.5536 24.9554C15.8366 24.9 16.1063 24.7909 16.3482 24.6339C16.5759 24.4866 16.7589 24.2857 16.8973 24.0268C17.0312 23.7679 17.0982 23.4375 17.0982 23.0402C17.0982 22.25 16.875 21.692 16.433 21.3527ZM20 0C8.95536 0 0 8.95536 0 20C0 31.0446 8.95536 40 20 40C31.0446 40 40 31.0446 40 20C40 8.95536 31.0446 0 20 0ZM23.8616 12.808H30.0402V14.3125H23.8616V12.808ZM20 25.2143C19.711 25.7629 19.2983 26.2367 18.7946 26.5982C18.2679 26.9643 17.683 27.2321 17.0625 27.3884C16.4133 27.5624 15.7435 27.648 15.0714 27.6429H7.67857V12.4152H14.8661C15.5938 12.4152 16.2545 12.4821 16.8571 12.6071C17.4554 12.7321 17.9643 12.9464 18.3929 13.2366C18.817 13.5268 19.1518 13.9152 19.3884 14.3973C19.6205 14.875 19.7411 15.4732 19.7411 16.183C19.7411 16.9509 19.567 17.5848 19.2188 18.0982C18.8661 18.6116 18.3571 19.0268 17.6652 19.3527C18.6071 19.6205 19.2991 20.0982 19.7545 20.7679C20.2188 21.4464 20.4464 22.2589 20.4464 23.2143C20.4464 23.9911 20.2991 24.6563 20 25.2143ZM32.4464 22.8571H24.4821C24.4821 23.7232 24.7813 24.5536 25.2321 25C25.6875 25.442 26.3393 25.6652 27.192 25.6652C27.808 25.6652 28.3304 25.5089 28.7768 25.2009C29.2188 24.8929 29.4866 24.567 29.5848 24.2277H32.2545C31.8259 25.5536 31.1741 26.5 30.2902 27.0714C29.4152 27.6429 28.3438 27.9286 27.0982 27.9286C26.2277 27.9286 25.4464 27.7857 24.7455 27.5134C24.0714 27.25 23.4643 26.8482 22.9643 26.3304C22.4713 25.7985 22.0902 25.1731 21.8438 24.4911C21.5714 23.7366 21.4375 22.942 21.4464 22.1429C21.4464 21.317 21.5848 20.5491 21.8527 19.8348C22.3661 18.4464 23.433 17.3348 24.7946 16.7589C25.5223 16.4554 26.3036 16.3036 27.0938 16.3125C28.0313 16.3125 28.8438 16.4911 29.5491 16.8571C30.2282 17.2067 30.8177 17.7077 31.2723 18.3214C31.7232 18.933 32.0402 19.6295 32.2411 20.4152C32.433 21.1875 32.5 22 32.4464 22.8571ZM27 18.5893C26.5179 18.5893 26.1116 18.6741 25.7991 18.8393C25.4866 19.0045 25.2277 19.2098 25.0313 19.4464C24.8442 19.6749 24.7059 19.9392 24.625 20.2232C24.5536 20.4598 24.5045 20.7009 24.4866 20.9464H29.4196C29.3482 20.1741 29.0804 19.6027 28.7232 19.2009C28.3482 18.8036 27.7455 18.5893 27 18.5893Z" fill="#1E5CF5"/>
</svg>
