<svg width="18" height="19" viewBox="0 0 18 19" fill="none" xmlns="http://www.w3.org/2000/svg">
<path d="M15.3368 15.8371H12.6698V11.6603C12.6698 10.6643 12.652 9.3822 11.2827 9.3822C9.8936 9.3822 9.68105 10.4674 9.68105 11.5878V15.8368H7.01409V7.24772H9.57438V8.42152H9.61024C9.86647 7.98341 10.2367 7.62299 10.6816 7.37866C11.1264 7.13432 11.6292 7.01523 12.1364 7.03404C14.8396 7.03404 15.338 8.81211 15.338 11.1252L15.3368 15.8371ZM4.00472 6.07372C3.14993 6.07386 2.45686 5.381 2.45672 4.52621C2.45658 3.67142 3.14937 2.97835 4.00416 2.97821C4.85895 2.978 5.55202 3.67086 5.55216 4.52565C5.55223 4.93613 5.38924 5.32984 5.09904 5.62016C4.80884 5.91047 4.41521 6.07362 4.00472 6.07372ZM5.33827 15.8372H2.66843V7.24772H5.3382V15.8371L5.33827 15.8372ZM16.6665 0.50131H1.32827C0.603351 0.493154 0.00885938 1.07386 0 1.79879V17.201C0.00857813 17.9262 0.603 18.5075 1.3282 18.4999H16.6665C17.3932 18.5089 17.9899 17.9276 18 17.201V1.79759C17.9897 1.07126 17.3929 0.490623 16.6665 0.500115" fill="white"/>
</svg>
