<svg width="18" height="19" viewBox="0 0 18 19" fill="none" xmlns="http://www.w3.org/2000/svg">
<g clip-path="url(#clip0_1111_184)">
<path d="M4.75844 15.9162L5.0527 16.0617C6.27895 16.7889 7.65222 17.1282 9.02557 17.1282C13.3417 17.1282 16.8731 13.6377 16.8731 9.3716C16.8731 7.33552 16.0392 5.34787 14.5679 3.89348C13.0965 2.4391 11.1345 1.61499 9.02557 1.61499C4.70944 1.61499 1.17799 5.10546 1.22707 9.42011C1.22707 10.8744 1.66849 12.2804 2.40417 13.4923L2.60034 13.7832L1.81565 16.6435L4.75844 15.9162Z" fill="#00E676"/>
<path d="M15.4008 3.11785C13.7332 1.42113 11.428 0.5 9.07369 0.5C4.07095 0.5 0.0490781 4.52373 0.0980859 9.42008C0.0980859 10.9714 0.539508 12.4743 1.27526 13.8317L0 18.4372L4.75756 17.2252C6.08182 17.9524 7.55318 18.2918 9.02468 18.2918C13.9784 18.2918 18.0003 14.268 18.0003 9.37171C18.0003 6.99619 17.0684 4.76614 15.4008 3.11785H15.4008ZM9.07369 16.789C7.74942 16.789 6.42516 16.4497 5.29706 15.7709L5.00281 15.6255L2.1581 16.3526L2.89378 13.5894L2.69761 13.2985C0.539508 9.85653 1.56952 5.2994 5.10089 3.16629C8.63227 1.03326 13.1936 2.05134 15.3518 5.54181C17.5098 9.03228 16.4798 13.5408 12.9485 15.6739C11.8203 16.4011 10.447 16.7889 9.07369 16.7889V16.789ZM13.3898 11.4079L12.8503 11.1655C12.8503 11.1655 12.0656 10.8261 11.5751 10.5837C11.526 10.5837 11.477 10.5352 11.428 10.5352C11.2808 10.5352 11.1827 10.5837 11.0846 10.6322C11.0846 10.6322 11.0356 10.6806 10.3489 11.4563C10.2999 11.5533 10.2018 11.6018 10.1037 11.6018H10.0546C10.0056 11.6018 9.90752 11.5533 9.85845 11.5048L9.6132 11.4079C9.07369 11.1655 8.58326 10.8745 8.19084 10.4867C8.09276 10.3898 7.94559 10.2928 7.84751 10.1959C7.50417 9.85653 7.16084 9.46866 6.91566 9.03235L6.86658 8.9354C6.81757 8.88689 6.81757 8.83845 6.76849 8.7415C6.76849 8.64455 6.76849 8.5476 6.81757 8.49909C6.81757 8.49909 7.01374 8.25668 7.16084 8.11129C7.25899 8.01427 7.308 7.86888 7.40609 7.77193C7.50417 7.62647 7.55325 7.43257 7.50417 7.28711C7.45516 7.0447 6.86658 5.73578 6.71949 5.44493C6.62133 5.29947 6.52331 5.25103 6.37615 5.20252H5.83664C5.73849 5.20252 5.64047 5.25103 5.54231 5.25103L5.49324 5.29947C5.39515 5.34798 5.29706 5.44493 5.19898 5.49337C5.10089 5.59039 5.05181 5.68727 4.95373 5.78429C4.61039 6.22059 4.41422 6.75385 4.41422 7.28711C4.41422 7.67491 4.5123 8.06278 4.65947 8.40214L4.70855 8.5476C5.14997 9.46866 5.73848 10.2928 6.52331 11.02L6.71949 11.2139C6.86658 11.3594 7.01374 11.4563 7.11183 11.6017C8.14184 12.4744 9.31894 13.1046 10.6432 13.4439C10.7904 13.4924 10.9865 13.4924 11.1337 13.5409H11.6241C11.8694 13.5409 12.1636 13.4439 12.3599 13.347C12.507 13.25 12.6051 13.25 12.7032 13.1531L12.8013 13.0561C12.8994 12.9591 12.9975 12.9107 13.0956 12.8137C13.1937 12.7168 13.2917 12.6198 13.3408 12.5228C13.4389 12.3289 13.4879 12.0865 13.537 11.8442V11.5048C13.537 11.5048 13.4879 11.4563 13.3898 11.4079Z" fill="#1C1C1E"/>
</g>
<defs>
<clipPath id="clip0_1111_184">
<rect width="18" height="18" fill="white" transform="translate(0 0.5)"/>
</clipPath>
</defs>
</svg>
