<svg width="18" height="19" viewBox="0 0 18 19" fill="none" xmlns="http://www.w3.org/2000/svg">
<g clip-path="url(#clip0_1111_1095)">
<path d="M9 0.5C4.0294 0.5 0 4.5294 0 9.5C0 14.4706 4.0294 18.5 9 18.5C13.9706 18.5 18 14.4706 18 9.5C18 4.5294 13.9706 0.5 9 0.5Z" fill="#40B3E0"/>
<path d="M13.3787 5.67714L11.7711 13.782C11.7711 13.782 11.5463 14.3441 10.9281 14.0743L7.21851 11.2303L5.86963 10.5783L3.59896 9.81391C3.59896 9.81391 3.25049 9.6903 3.21674 9.42051C3.18299 9.15072 3.61021 9.00461 3.61021 9.00461L12.6366 5.46367C12.6366 5.46367 13.3786 5.13771 13.3786 5.67728" fill="#1C1C1E"/>
<path d="M6.93492 13.6908C6.93492 13.6908 6.82664 13.6807 6.69164 13.2535C6.55685 12.8263 5.87109 10.5781 5.87109 10.5781L11.323 7.11594C11.323 7.11594 11.6378 6.92483 11.6265 7.11594C11.6265 7.11594 11.6827 7.14969 11.514 7.30705C11.3455 7.46448 7.23129 11.1627 7.23129 11.1627" fill="#D2E5F1"/>
<path d="M8.64099 12.3205L7.17378 13.6583C7.17378 13.6583 7.05903 13.7453 6.93359 13.6908L7.21456 11.2059" fill="#B5CFE4"/>
</g>
<defs>
<clipPath id="clip0_1111_1095">
<rect width="18" height="18" fill="white" transform="translate(0 0.5)"/>
</clipPath>
</defs>
</svg>
