<svg width="32" height="32" viewBox="0 0 32 32" fill="none" xmlns="http://www.w3.org/2000/svg">
<path d="M16 0C7.16337 0 0 7.16337 0 16C0 24.8366 7.16337 32 16 32C24.8366 32 32 24.8366 32 16C32 7.16337 24.8366 0 16 0Z" fill="#40B3E0"/>
<path d="M23.7858 9.20374L20.9279 23.6124C20.9279 23.6124 20.5283 24.6116 19.4292 24.132L12.8344 19.076L10.4364 17.917L6.39967 16.558C6.39967 16.558 5.78017 16.3382 5.72017 15.8586C5.66017 15.379 6.41967 15.1192 6.41967 15.1192L22.4667 8.82424C22.4667 8.82424 23.7857 8.24474 23.7857 9.20399" fill="white"/>
<path d="M12.3268 23.4503C12.3268 23.4503 12.1343 23.4323 11.8943 22.6728C11.6547 21.9135 10.4355 17.9167 10.4355 17.9167L20.1278 11.7617C20.1278 11.7617 20.6874 11.422 20.6674 11.7617C20.6674 11.7617 20.7673 11.8217 20.4674 12.1015C20.1678 12.3813 12.8537 18.956 12.8537 18.956" fill="#D2E5F1"/>
<path d="M15.3635 21.0143L12.7551 23.3926C12.7551 23.3926 12.5511 23.5473 12.3281 23.4503L12.8276 19.0328" fill="#B5CFE4"/>
</svg>
