<svg width="19" height="18" viewBox="0 0 19 18" fill="none" xmlns="http://www.w3.org/2000/svg">
<g clip-path="url(#clip0_135_1479)">
<path d="M9.81641 0C4.8458 0 0.816406 4.0294 0.816406 9C0.816406 13.9706 4.8458 18 9.81641 18C14.787 18 18.8164 13.9706 18.8164 9C18.8164 4.0294 14.787 0 9.81641 0Z" fill="#40B3E0"/>
<path d="M14.1951 5.17714L12.5875 13.282C12.5875 13.282 12.3627 13.8441 11.7445 13.5743L8.03491 10.7303L6.68604 10.0783L4.41537 9.31391C4.41537 9.31391 4.0669 9.1903 4.03315 8.92051C3.9994 8.65072 4.42662 8.50461 4.42662 8.50461L13.4531 4.96367C13.4531 4.96367 14.195 4.63771 14.195 5.17728" fill="white"/>
<path d="M7.75133 13.1908C7.75133 13.1908 7.64305 13.1807 7.50805 12.7535C7.37326 12.3263 6.6875 10.0781 6.6875 10.0781L12.1394 6.61594C12.1394 6.61594 12.4542 6.42483 12.4429 6.61594C12.4429 6.61594 12.4991 6.64969 12.3304 6.80705C12.1619 6.96448 8.0477 10.6627 8.0477 10.6627" fill="#D2E5F1"/>
<path d="M9.4574 11.8205L7.99019 13.1583C7.99019 13.1583 7.87544 13.2453 7.75 13.1908L8.03097 10.7059" fill="#B5CFE4"/>
</g>
<defs>
<clipPath id="clip0_135_1479">
<rect width="18" height="18" fill="white" transform="translate(0.816406)"/>
</clipPath>
</defs>
</svg>
