<svg width="32" height="32" viewBox="0 0 32 32" fill="none" xmlns="http://www.w3.org/2000/svg">
<g clip-path="url(#clip0_132_437)">
<path d="M8.60346 27.4067L9.11653 27.6653C11.2546 28.9581 13.649 29.5614 16.0436 29.5614C23.5691 29.5614 29.7264 23.3561 29.7264 15.7718C29.7264 12.1521 28.2725 8.61853 25.7071 6.03296C23.1415 3.44738 19.7207 1.9823 16.0436 1.9823C8.51801 1.9823 2.36062 8.18758 2.44619 15.8581C2.44619 18.4435 3.21585 20.943 4.49858 23.0975L4.84062 23.6147L3.47245 28.6996L8.60346 27.4067Z" fill="#00E676"/>
<path d="M27.1612 4.65396C24.2536 1.63756 20.2343 0 16.1294 0C7.40667 0 0.394166 7.1533 0.479615 15.8579C0.479615 18.6158 1.24927 21.2877 2.53212 23.7008L0.308594 31.8883L8.60382 29.7337C10.9128 31.0265 13.4782 31.6298 16.0439 31.6298C24.6812 31.6298 31.6937 24.4764 31.6937 15.7719C31.6937 11.5488 30.0688 7.58425 27.1613 4.65396H27.1612ZM16.1294 28.9581C13.8204 28.9581 11.5114 28.355 9.5445 27.1484L9.03143 26.8898L4.07144 28.1825L5.35416 23.2701L5.01212 22.7529C1.24927 16.6338 3.04518 8.53226 9.20245 4.74008C15.3597 0.948016 23.3129 2.75793 27.0757 8.96321C30.8385 15.1685 29.0426 23.1837 22.8854 26.9759C20.9184 28.2686 18.5239 28.958 16.1294 28.958V28.9581ZM23.6549 19.3918L22.7143 18.9608C22.7143 18.9608 21.3461 18.3575 20.4909 17.9265C20.4053 17.9265 20.3198 17.8403 20.2343 17.8403C19.9777 17.8403 19.8067 17.9265 19.6356 18.0128C19.6356 18.0128 19.5502 18.0989 18.3529 19.4779C18.2673 19.6502 18.0963 19.7365 17.9253 19.7365H17.8397C17.7543 19.7365 17.5833 19.6502 17.4977 19.5641L17.0701 19.3918C16.1294 18.9608 15.2743 18.4436 14.5901 17.7542C14.419 17.5818 14.1624 17.4095 13.9914 17.2371C13.3928 16.6338 12.7942 15.9443 12.3667 15.1686L12.2811 14.9963C12.1956 14.91 12.1956 14.8239 12.1101 14.6516C12.1101 14.4792 12.1101 14.3068 12.1956 14.2206C12.1956 14.2206 12.5377 13.7897 12.7942 13.5312C12.9653 13.3587 13.0507 13.1002 13.2218 12.9279C13.3928 12.6693 13.4784 12.3246 13.3928 12.066C13.3073 11.635 12.2811 9.30805 12.0246 8.79098C11.8535 8.53239 11.6826 8.44627 11.426 8.36003H10.4853C10.3142 8.36003 10.1433 8.44627 9.97211 8.44627L9.88654 8.53239C9.71552 8.61862 9.5445 8.79098 9.37348 8.8771C9.20245 9.04957 9.11688 9.22181 8.94586 9.39429C8.34722 10.1699 8.00518 11.118 8.00518 12.066C8.00518 12.7554 8.1762 13.4449 8.4328 14.0482L8.51837 14.3068C9.28803 15.9443 10.3142 17.4095 11.6826 18.7022L12.0246 19.0469C12.2811 19.3055 12.5377 19.4779 12.7087 19.7363C14.5046 21.2878 16.557 22.4082 18.866 23.0115C19.1226 23.0976 19.4646 23.0976 19.7212 23.1838H20.5763C21.0039 23.1838 21.517 23.0115 21.8592 22.8391C22.1156 22.6667 22.2867 22.6667 22.4577 22.4944L22.6288 22.3219C22.7998 22.1496 22.9709 22.0634 23.1419 21.8911C23.3129 21.7187 23.4839 21.5464 23.5695 21.3739C23.7405 21.0292 23.826 20.5982 23.9115 20.1674V19.5641C23.9115 19.5641 23.826 19.4779 23.6549 19.3918Z" fill="white"/>
</g>
<defs>
<clipPath id="clip0_132_437">
<rect width="31.3846" height="32" fill="white" transform="translate(0.308594)"/>
</clipPath>
</defs>
</svg>
