<svg xmlns="http://www.w3.org/2000/svg" xmlns:xlink="http://www.w3.org/1999/xlink" width="233.5" height="77.927" viewBox="0 0 233.5 77.927">
  <defs>
    <clipPath id="clip-path">
      <rect id="Rectangle_8331" data-name="Rectangle 8331" width="233.5" height="77.927" fill="none"/>
    </clipPath>
  </defs>
  <g id="Group_12757" data-name="Group 12757" clip-path="url(#clip-path)">
    <path id="Path_20565" data-name="Path 20565" d="M98.354,15.5a4.43,4.43,0,1,1-4.408-4.453A4.414,4.414,0,0,1,98.354,15.5m-7.922.015a3.495,3.495,0,1,0,6.983,0,3.495,3.495,0,1,0-6.983,0m5.234-1.446a3.147,3.147,0,0,0-1.373-.319A1.649,1.649,0,0,0,92.5,15.546a1.706,1.706,0,0,0,1.777,1.807,2.684,2.684,0,0,0,1.446-.361l.216.753a3.29,3.29,0,0,1-1.792.462,2.5,2.5,0,0,1-2.673-2.616A2.686,2.686,0,0,1,94.292,12.9a2.741,2.741,0,0,1,1.589.4Z" transform="translate(135.146 16.686)" fill="#fff"/>
    <path id="Path_20566" data-name="Path 20566" d="M71.2,31.083a3.689,3.689,0,0,0-2.392-1.077L65.931,17.749a3.719,3.719,0,0,0,.773-.592,3.7,3.7,0,1,0-2.829,1.074l2.877,12.259a3.7,3.7,0,0,0-1.82,2.691L45.443,36.138a9.454,9.454,0,0,0-.771-1.98L52.206,29.1a3.693,3.693,0,1,0,2.352-6.541,3.72,3.72,0,0,0-.858.1L44.216,6.23a3.686,3.686,0,1,0-1.827,1.057l9.483,16.426a3.705,3.705,0,0,0-.843,3.637L43.5,32.408c-.176-.206-.359-.4-.55-.6a9.626,9.626,0,0,0-13.612,0c-.191.193-.374.392-.547.6L21.256,27.35a3.705,3.705,0,0,0-.843-3.637L29.9,7.287A3.7,3.7,0,1,0,28.068,6.23L18.585,22.659a3.694,3.694,0,1,0-.856,7.287,3.661,3.661,0,0,0,2.349-.846l7.533,5.058a9.454,9.454,0,0,0-.771,1.98L7.352,33.181a3.682,3.682,0,0,0-1.82-2.691L8.411,18.231A3.692,3.692,0,1,0,5.58,17.157a3.786,3.786,0,0,0,.773.592L3.477,30.006A3.7,3.7,0,1,0,7.036,35.27l19.489,2.957q-.008.2-.008.392a9.6,9.6,0,0,0,.11,1.456L14.584,43.3a3.646,3.646,0,0,0-.532-.675,3.694,3.694,0,1,0-3.67,6.152V61.089a3.694,3.694,0,1,0,3.67,6.152v-.005A3.694,3.694,0,0,0,12.5,61.089V48.777a3.7,3.7,0,0,0,2.633-3.436l12.041-3.226a9.688,9.688,0,0,0,1.458,2.52l-3.913,3.913a3.694,3.694,0,1,0-1.86,6.943l4.179,15.6a3.646,3.646,0,0,0-.675.532,3.7,3.7,0,1,0,2.716-1.079L24.9,54.944a3.7,3.7,0,0,0,1.315-4.9l3.913-3.913a9.63,9.63,0,0,0,12.034,0l3.913,3.913a3.7,3.7,0,0,0,1.313,4.9l-4.179,15.6a3.692,3.692,0,1,0,2.716,1.079,3.646,3.646,0,0,0-.675-.532l4.179-15.6a3.694,3.694,0,1,0-1.857-6.943l-3.913-3.913a9.609,9.609,0,0,0,1.456-2.52l12.041,3.226a3.7,3.7,0,0,0,2.636,3.436V61.089a3.691,3.691,0,0,0-1.554,6.147v.005a3.694,3.694,0,1,0,3.67-6.152V48.777A3.693,3.693,0,1,0,57.7,43.3L45.657,40.074a9.6,9.6,0,0,0,.11-1.456q0-.2-.008-.392L65.248,35.27a3.724,3.724,0,0,0,.73,1.037A3.694,3.694,0,1,0,71.2,31.083M65.208,15.661a1.579,1.579,0,0,1-2.232,0,1.58,1.58,0,1,1,2.232,0M53.441,25.136a1.579,1.579,0,1,1-.462,1.115,1.572,1.572,0,0,1,.462-1.115M42.647,4.809a1.579,1.579,0,0,1-2.232,0,1.58,1.58,0,1,1,2.232,0M29.637,2.578a1.579,1.579,0,1,1-.462,1.114,1.571,1.571,0,0,1,.462-1.114M18.844,27.368a1.579,1.579,0,1,1,.462-1.117,1.566,1.566,0,0,1-.462,1.117M7.076,13.429a1.579,1.579,0,1,1-.462,1.114,1.573,1.573,0,0,1,.462-1.114M4.812,34.811a1.579,1.579,0,1,1,.462-1.117,1.572,1.572,0,0,1-.462,1.117m7.744,28.7a1.588,1.588,0,0,1,0,2.237l0,0a1.579,1.579,0,1,1,0-2.234m0-17.159a1.579,1.579,0,1,1,.462-1.114,1.575,1.575,0,0,1-.462,1.114m11.522,6.561a1.579,1.579,0,1,1,.462-1.114,1.573,1.573,0,0,1-.462,1.114m3.78,20.2a1.578,1.578,0,0,1,2.693,1.117,1.578,1.578,0,1,1-2.693-1.117m16.569,2.232a1.579,1.579,0,1,1,.462-1.115,1.569,1.569,0,0,1-.462,1.115m3.78-24.667a1.579,1.579,0,1,1-.462,1.117,1.572,1.572,0,0,1,.462-1.117M36.143,31.108a7.488,7.488,0,0,1,6.31,3.444l-2.611,8.115L37.06,34.238H35.378l-2.784,8.429-2.661-8.273a7.771,7.771,0,0,1,.9-1.087,7.5,7.5,0,0,1,5.311-2.2m-7.51,7.51a7.71,7.71,0,0,1,.131-1.393l2.44,7.046c-.128-.11-.251-.223-.371-.344a7.486,7.486,0,0,1-2.2-5.309m4.792,7,2.761-8.078,2.754,8.047a7.51,7.51,0,0,1-5.515.03m8.027-1.689c-.08.08-.161.156-.243.233l2.342-6.767a7.563,7.563,0,0,1,.1,1.225,7.486,7.486,0,0,1-2.2,5.309m20.51,19.587a1.578,1.578,0,0,1-2.232,2.232l0,0a1.58,1.58,0,1,1,2.234-2.234M59.731,44.121a1.573,1.573,0,1,1-.464,1.117,1.567,1.567,0,0,1,.464-1.117m9.975-9.31a1.579,1.579,0,1,1,.462-1.117,1.572,1.572,0,0,1-.462,1.117" transform="translate(0 -0.001)" fill="#fff"/>
    <path id="Path_20567" data-name="Path 20567" d="M49.784,18.983h2.749l-.7-2.6H49.152Z" transform="translate(74.226 24.747)" fill="#fff"/>
    <path id="Path_20568" data-name="Path 20568" d="M51.305,18.983h2.736l-.7-2.6H50.65Z" transform="translate(76.488 24.747)" fill="#fff"/>
    <path id="Path_20569" data-name="Path 20569" d="M55.16,21.518l.643,2.6h2.749l-.7-2.6Z" transform="translate(83.298 32.494)" fill="#fff"/>
    <path id="Path_20570" data-name="Path 20570" d="M53.661,21.518l.623,2.6h2.759l-.7-2.6Z" transform="translate(81.035 32.494)" fill="#fff"/>
    <path id="Path_20571" data-name="Path 20571" d="M90.956,20.49a33.3,33.3,0,0,0-2.967-3.75H83.42q.96,1.024,2.99,3.542,2.082,2.609,2.844,3.775H83.38l0-.013a20.276,20.276,0,0,0-2.771-4.34h-4.34a20.417,20.417,0,0,1,3.055,4.353H63.307l-.005-.013A25.544,25.544,0,0,0,61.11,20.37a30.925,30.925,0,0,0-2.759-3.63H53.891a63.667,63.667,0,0,1,5.344,7.317H56.4a16.659,16.659,0,0,0-2.488-4.32H49.825a21.168,21.168,0,0,1,2.508,4.32h-2.9a16.99,16.99,0,0,0-.954-2.2,17.682,17.682,0,0,0-1.217-2.121h-4.23q3.291,5.693,3.281,7.829A2.138,2.138,0,0,1,45.54,29.4a4.153,4.153,0,0,1-2.442.545,6.064,6.064,0,0,1-3.74-1.22,7.394,7.394,0,0,1-1.963-2.357q-.373-.794-.753-1.6a1.73,1.73,0,0,0-1.637-.7h-2.5q1.352,3.577,1.526,3.946a10.052,10.052,0,0,0,3.642,4.232A10,10,0,0,0,43,33.565a8.625,8.625,0,0,0,5.462-1.576,5.209,5.209,0,0,0,2.006-4.335H94.151l-.959-3.61a28.33,28.33,0,0,0-2.237-3.554" transform="translate(49.094 25.278)" fill="#fff"/>
    <path id="Path_20572" data-name="Path 20572" d="M71.111,23.751A33.3,33.3,0,0,0,68.144,20H63.576q.96,1.024,2.99,3.542,2.082,2.609,2.844,3.775H63.5L60.2,14.581h-3.73L60.546,29.9q.26,1.013,1.014,1.014H74.307l-.959-3.61a28.329,28.329,0,0,0-2.237-3.554" transform="translate(85.273 22.018)" fill="#fff"/>
    <path id="Path_20573" data-name="Path 20573" d="M60.82,21.723l.643,2.6h2.749l-.7-2.6Z" transform="translate(91.846 32.803)" fill="#fff"/>
    <path id="Path_20574" data-name="Path 20574" d="M70.651,21.723l.643,2.6h2.749l-.7-2.6Z" transform="translate(106.692 32.803)" fill="#fff"/>
    <path id="Path_20575" data-name="Path 20575" d="M81.919,21.518l.643,2.6H85.31l-.7-2.6Z" transform="translate(123.709 32.494)" fill="#fff"/>
    <path id="Path_20576" data-name="Path 20576" d="M107.535,20.49a33.3,33.3,0,0,0-2.967-3.75H100q.96,1.024,2.99,3.542,2.082,2.609,2.844,3.775H89.775l0-.013a29.245,29.245,0,0,0-2.247-3.554,36.205,36.205,0,0,0-2.957-3.75H80a44.76,44.76,0,0,1,3.087,3.733,33.052,33.052,0,0,1,2.5,3.584H73.721a4.453,4.453,0,0,1-2.387-.469,3.294,3.294,0,0,1-1.047-1.647q-.188-.689-.371-1.386a1.249,1.249,0,0,0-1.275-.786H66.012q.851,3.456.916,3.665a6.256,6.256,0,0,0,2.114,3.248,6.038,6.038,0,0,0,3.61.971H110.73l-.959-3.61a28.33,28.33,0,0,0-2.237-3.554" transform="translate(99.687 25.278)" fill="#fff"/>
    <path id="Path_20577" data-name="Path 20577" d="M80.421,21.518l.622,2.6H83.8l-.7-2.6Z" transform="translate(121.446 32.494)" fill="#fff"/>
    <path id="Path_20578" data-name="Path 20578" d="M93.42,18.995a5.59,5.59,0,0,0-4.764-2.312A4.828,4.828,0,0,0,85.2,18.036a4.169,4.169,0,0,0-1.413,3.13,6.3,6.3,0,0,0,2.093,4.471,6.925,6.925,0,0,0,5.028,2.136,9.9,9.9,0,0,0,1.473-.1,1.753,1.753,0,0,0,.043.173v.241Q92.394,30,88.754,30a12.494,12.494,0,0,1-2.922-.349q.655,2.564.718,2.749a2.034,2.034,0,0,0,2.181,1.232q7.775-.045,7.776-4.865a6.265,6.265,0,0,0-.1-1.067q-1.148-6.194-2.99-8.7m-4.95,4.242a2.375,2.375,0,0,1-1.037-1.888,1.266,1.266,0,0,1,.344-.843,1.025,1.025,0,0,1,.781-.366,2.406,2.406,0,0,1,1.679.949,5.741,5.741,0,0,1,1.4,3.12,5.023,5.023,0,0,1-3.163-.971" transform="translate(126.535 25.192)" fill="#fff"/>
    <path id="Path_20579" data-name="Path 20579" d="M38.041,21.747a2.954,2.954,0,0,0,2.425-1.285l2.711-3.444c1.483-1.868,2.159-2.754,2.734-3.625A38.806,38.806,0,0,0,47.3,17.035l1.421,3.426a1.927,1.927,0,0,0,1.948,1.285,2.768,2.768,0,0,0,2.54-1.667L58.556,9.424H54.648l-2.021,4.222c-.67,1.36-1.117,2.375-1.483,3.336-.248-.836-.577-1.649-1.19-3.336L48.8,10.584a1.789,1.789,0,0,0-2.041-1.358,2.748,2.748,0,0,0-2.523,1.358l-2.307,3.045c-1.215,1.576-1.87,2.538-2.427,3.354-.058-1-.113-1.958-.251-3.336l-.422-4.222H34.863l1.25,10.656a1.781,1.781,0,0,0,1.928,1.667" transform="translate(52.648 13.931)" fill="#fff"/>
    <path id="Path_20580" data-name="Path 20580" d="M60.036,18.566H49.067l.306-1.752H57.3l2.771-2.924H49.893l.271-1.541H58.5L61.673,9h-14.9L44.486,21.877h12.4Z" transform="translate(67.179 13.59)" fill="#fff"/>
    <path id="Path_20581" data-name="Path 20581" d="M68.762,17.6a2.3,2.3,0,0,0-1.6-2.347,3.249,3.249,0,0,0,2.292-3.236c0-2-1.674-3.02-4.466-3.02H56.462L53.154,12.35H64.547c.52,0,.981.153.981.673,0,.771-.6,1.022-1.27,1.022H52.865l-1.388,7.832H62.8c4.907,0,5.967-2.194,5.967-4.272m-12.4-.808H63.7c.751,0,1.117.251,1.117.73,0,.675-.442,1.039-1.423,1.039H56.058Z" transform="translate(77.737 13.591)" fill="#fff"/>
    <path id="Path_20582" data-name="Path 20582" d="M64.957,21.875h4l.73-4.252L78.87,9h-5L70.308,12.56c-1.137,1.135-1.619,1.674-1.983,2.041-.213-.346-1.059-1.579-1.368-2.021L64.495,9H59.374l6.333,8.6Z" transform="translate(89.663 13.591)" fill="#fff"/>
    <path id="Path_20583" data-name="Path 20583" d="M71.816,21.875H75.8l1.694-9.526h4.581L85.268,9H70.642l-3.193,3.349h6.042Z" transform="translate(101.857 13.591)" fill="#fff"/>
    <path id="Path_20584" data-name="Path 20584" d="M90.16,18.566H79.19l.306-1.752h7.929L90.2,13.89H80.016l.271-1.541h8.334L91.8,9H76.9L74.609,21.877H87Z" transform="translate(112.67 13.59)" fill="#fff"/>
    <path id="Path_20585" data-name="Path 20585" d="M87.5,16.7h7.026c.808,0,1.212.251,1.212.771,0,.751-.462,1.1-1.541,1.1H84.44L81.3,21.877H93.293c4.561,0,6.331-2.023,6.331-4.812,0-1.925-1.481-2.927-4.272-2.927H88.345c-.826,0-1.23-.249-1.23-.73,0-.771.462-1.059,1.539-1.059h8.931L100.74,9H89.558c-4.521,0-6.293,1.983-6.293,4.6,0,1.865,1.31,3.1,4.235,3.1" transform="translate(122.777 13.59)" fill="#fff"/>
  </g>
</svg>
