<svg xmlns="http://www.w3.org/2000/svg" width="13.485" height="17.699" viewBox="0 0 13.485 17.699">
  <path id="Icon_ionic-md-lock" data-name="Icon ionic-md-lock" d="M18.549,9.134h-.843V7.448a4.214,4.214,0,1,0-8.428,0V9.134H8.436A1.69,1.69,0,0,0,6.75,10.82v8.428a1.69,1.69,0,0,0,1.686,1.686H18.549a1.69,1.69,0,0,0,1.686-1.686V10.82A1.69,1.69,0,0,0,18.549,9.134ZM13.492,16.8a1.686,1.686,0,1,1,1.686-1.686A1.69,1.69,0,0,1,13.492,16.8Zm2.613-7.669H10.88V7.448a2.613,2.613,0,1,1,5.226,0Z" transform="translate(-6.75 -3.234)"/>
</svg>
