<svg width="40" height="40" viewBox="0 0 40 40" fill="none" xmlns="http://www.w3.org/2000/svg">
<path fill-rule="evenodd" clip-rule="evenodd" d="M5 37.5L35 37.5C35.663 37.5 36.2989 37.2366 36.7678 36.7678C37.2366 36.2989 37.5 35.663 37.5 35L37.5 5C37.5 4.33696 37.2366 3.70107 36.7678 3.23223C36.2989 2.76339 35.663 2.5 35 2.5L5 2.5C4.33696 2.5 3.70107 2.76339 3.23223 3.23223C2.76339 3.70107 2.5 4.33696 2.5 5L2.5 35C2.5 35.663 2.76339 36.2989 3.23223 36.7678C3.70107 37.2366 4.33696 37.5 5 37.5ZM35 40C36.3261 40 37.5979 39.4732 38.5355 38.5355C39.4732 37.5979 40 36.3261 40 35V5C40 3.67392 39.4732 2.40215 38.5355 1.46447C37.5979 0.526787 36.3261 0 35 0L5 0C3.67392 0 2.40215 0.526787 1.46447 1.46447C0.526787 2.40215 0 3.67392 0 5L0 35C0 36.3261 0.526787 37.5979 1.46447 38.5355C2.40215 39.4732 3.67392 40 5 40L35 40Z" fill="#61A036"/>
<path fill-rule="evenodd" clip-rule="evenodd" d="M20.8847 11.6149C21.0011 11.731 21.0935 11.8689 21.1565 12.0208C21.2195 12.1727 21.252 12.3355 21.252 12.4999C21.252 12.6643 21.2195 12.8271 21.1565 12.979C21.0935 13.1308 21.0011 13.2688 20.8847 13.3849L14.2672 19.9999L20.8847 26.6149C21.0009 26.7311 21.0931 26.8691 21.156 27.0209C21.2189 27.1728 21.2513 27.3355 21.2513 27.4999C21.2513 27.6642 21.2189 27.827 21.156 27.9788C21.0931 28.1307 21.0009 28.2687 20.8847 28.3849C20.7685 28.5011 20.6305 28.5933 20.4787 28.6562C20.3268 28.7191 20.1641 28.7515 19.9997 28.7515C19.8354 28.7515 19.6726 28.7191 19.5208 28.6562C19.3689 28.5933 19.2309 28.5011 19.1147 28.3849L11.6147 20.8849C11.4983 20.7688 11.406 20.6308 11.3429 20.479C11.2799 20.3271 11.2475 20.1643 11.2475 19.9999C11.2475 19.8355 11.2799 19.6727 11.3429 19.5208C11.406 19.3689 11.4983 19.231 11.6147 19.1149L19.1147 11.6149C19.2308 11.4985 19.3688 11.4061 19.5206 11.3431C19.6725 11.2801 19.8353 11.2477 19.9997 11.2477C20.1641 11.2477 20.3269 11.2801 20.4788 11.3431C20.6307 11.4061 20.7686 11.4985 20.8847 11.6149Z" fill="#61A036"/>
<path fill-rule="evenodd" clip-rule="evenodd" d="M28.75 20C28.75 20.3315 28.6183 20.6495 28.3839 20.8839C28.1495 21.1183 27.8315 21.25 27.5 21.25H15C14.6685 21.25 14.3505 21.1183 14.1161 20.8839C13.8817 20.6495 13.75 20.3315 13.75 20C13.75 19.6685 13.8817 19.3505 14.1161 19.1161C14.3505 18.8817 14.6685 18.75 15 18.75H27.5C27.8315 18.75 28.1495 18.8817 28.3839 19.1161C28.6183 19.3505 28.75 19.6685 28.75 20Z" fill="#61A036"/>
</svg>
