<svg width="30" height="31" viewBox="0 0 30 31" fill="none" xmlns="http://www.w3.org/2000/svg">
<path d="M28.5342 0.322266H1.18892C0.5313 0.322266 0 0.855927 0 1.51647V28.9832C0 29.6438 0.5313 30.1774 1.18892 30.1774H28.5342C29.1918 30.1774 29.7231 29.6438 29.7231 28.9832V1.51647C29.7231 0.855927 29.1918 0.322266 28.5342 0.322266ZM22.8608 11.1336C22.8719 11.309 22.8719 11.4918 22.8719 11.671C22.8719 17.1494 18.7181 23.46 11.1276 23.46C8.78689 23.46 6.6171 22.7771 4.78913 21.6015C5.12352 21.6389 5.44304 21.6538 5.78485 21.6538C7.71685 21.6538 9.49281 20.997 10.9084 19.8849C9.09526 19.8476 7.57195 18.6533 7.0518 17.0113C7.68713 17.1046 8.2593 17.1046 8.91321 16.9367C7.97963 16.7462 7.14051 16.2369 6.53839 15.4954C5.93628 14.7538 5.60832 13.8258 5.61023 12.8689V12.8167C6.15639 13.1264 6.79915 13.3167 7.47164 13.3429C6.90631 12.9644 6.44269 12.4517 6.12188 11.8502C5.80107 11.2487 5.63298 10.577 5.63252 9.89458C5.63252 9.12208 5.83315 8.41675 6.19355 7.80472C7.22978 9.08602 8.52283 10.134 9.98868 10.8804C11.4545 11.6269 13.0603 12.0552 14.7018 12.1375C14.1185 9.31987 16.2139 7.03968 18.733 7.03968C19.9219 7.03968 20.9919 7.53976 21.7461 8.34585C22.6787 8.17045 23.5704 7.81965 24.3655 7.34943C24.0571 8.30853 23.4106 9.11835 22.5524 9.62962C23.3846 9.54005 24.1872 9.30868 24.9302 8.984C24.3692 9.81248 23.667 10.5477 22.8608 11.1336Z" fill="#1A1A1A"/>
</svg>
