<svg width="31" height="31" viewBox="0 0 31 31" fill="none" xmlns="http://www.w3.org/2000/svg">
<path d="M29.0879 0.322266H1.74263C1.08501 0.322266 0.553711 0.855927 0.553711 1.51647V28.9832C0.553711 29.6438 1.08501 30.1774 1.74263 30.1774H29.0879C29.7455 30.1774 30.2768 29.6438 30.2768 28.9832V1.51647C30.2768 0.855927 29.7455 0.322266 29.0879 0.322266ZM25.6549 9.03625H23.2807C21.4193 9.03625 21.0589 9.92444 21.0589 11.2306V14.1079H25.5025L24.9229 18.6123H21.0589V30.1774H16.4258V18.616H12.5507V14.1079H16.4258V10.7865C16.4258 6.93146 18.7702 4.8304 22.1958 4.8304C23.838 4.8304 25.2462 4.95355 25.6586 5.00953V9.03625H25.6549Z" fill="#1A1A1A"/>
</svg>
