<svg width="20" height="19" viewBox="0 0 20 19" fill="none" xmlns="http://www.w3.org/2000/svg">
<path d="M14.8429 18.9272C14.6561 18.9266 14.4699 18.9061 14.2874 18.8658C10.8133 18.1439 7.61272 16.4514 5.05405 13.9831C2.54997 11.5093 0.813266 8.35962 0.0540471 4.91516C-0.0354743 4.48588 -0.0135022 4.04068 0.11785 3.62239C0.249201 3.20411 0.485512 2.82681 0.804047 2.52681L3.02627 0.378417C3.13977 0.2706 3.27464 0.188035 3.42206 0.136113C3.56948 0.0841899 3.72614 0.0640759 3.88183 0.0770834C4.04325 0.0939988 4.19903 0.14623 4.3382 0.230104C4.47737 0.313978 4.59656 0.427459 4.68738 0.562565L7.46516 4.68637C7.56933 4.84638 7.61961 5.03575 7.60861 5.22661C7.59761 5.41747 7.5259 5.59975 7.40405 5.74661L6.0096 7.42069C6.56497 8.65529 7.35146 9.77113 8.32627 10.7075C9.29477 11.6777 10.4395 12.4525 11.6985 12.9898L13.4263 11.6115C13.5714 11.4963 13.748 11.4282 13.9325 11.4162C14.1171 11.4042 14.301 11.449 14.4596 11.5445L18.6541 14.2677C18.798 14.354 18.9206 14.4719 19.0127 14.6126C19.1049 14.7533 19.1641 14.9131 19.186 15.08C19.2079 15.247 19.1919 15.4167 19.1393 15.5766C19.0866 15.7365 18.9986 15.8823 18.8818 16.0031L16.7152 18.1571C16.469 18.4031 16.1769 18.5978 15.8556 18.7299C15.5343 18.8621 15.1901 18.9291 14.8429 18.9272ZM3.79294 1.18197L1.57071 3.33037C1.39152 3.49808 1.25887 3.70976 1.18582 3.94458C1.11276 4.17939 1.10181 4.42927 1.15405 4.66963C1.86 7.90178 3.48278 10.8594 5.82627 13.1851C8.23416 15.5073 11.2461 17.0993 14.5152 17.7776C14.7626 17.8296 15.019 17.8191 15.2614 17.747C15.5038 17.6749 15.7246 17.5436 15.904 17.3647L18.0707 15.2107L14.0207 12.5824L12.1652 14.0668C12.0941 14.1232 12.0104 14.1614 11.9213 14.1779C11.8322 14.1945 11.7405 14.1889 11.654 14.1616C10.1133 13.5914 8.71708 12.6863 7.56516 11.511C6.37369 10.3934 5.44884 9.01999 4.8596 7.49323C4.83468 7.4008 4.83385 7.30349 4.8572 7.21064C4.88055 7.1178 4.9273 7.03256 4.99294 6.96311L6.49294 5.16069L3.79294 1.18197Z" fill="black"/>
</svg>
