<svg width="33" height="33" viewBox="0 0 33 33" fill="none" xmlns="http://www.w3.org/2000/svg">
<path d="M31.4334 0H1.84832C1.13683 0 0.562012 0.574818 0.562012 1.28631V30.8714C0.562012 31.5828 1.13683 32.1577 1.84832 32.1577H31.4334C32.1449 32.1577 32.7197 31.5828 32.7197 30.8714V1.28631C32.7197 0.574818 32.1449 0 31.4334 0ZM25.2953 11.6451C25.3073 11.834 25.3073 12.031 25.3073 12.2239C25.3073 18.1249 20.8133 24.9222 12.601 24.9222C10.0686 24.9222 7.72111 24.1866 5.74342 22.9204C6.10519 22.9606 6.45088 22.9767 6.8207 22.9767C8.91095 22.9767 10.8324 22.2692 12.3639 21.0713C10.4023 21.0311 8.75418 19.7448 8.19142 17.9761C8.87879 18.0766 9.49782 18.0766 10.2053 17.8957C9.19524 17.6905 8.28739 17.142 7.63596 16.3433C6.98453 15.5445 6.62971 14.5449 6.63177 13.5143V13.458C7.22267 13.7916 7.91808 13.9966 8.64565 14.0248C8.03402 13.6171 7.53242 13.0649 7.18533 12.417C6.83824 11.7691 6.65639 11.0456 6.65589 10.3106C6.65589 9.47847 6.87295 8.71875 7.26287 8.05951C8.38397 9.43963 9.78294 10.5684 11.3689 11.3724C12.9548 12.1765 14.6921 12.6378 16.468 12.7264C15.8369 9.69152 18.104 7.23548 20.8294 7.23548C22.1157 7.23548 23.2734 7.77412 24.0894 8.64237C25.0983 8.45345 26.063 8.07559 26.9233 7.56911C26.5896 8.60218 25.8902 9.47445 24.9616 10.0252C25.8621 9.92868 26.7303 9.67946 27.5343 9.32974C26.9273 10.2221 26.1676 11.014 25.2953 11.6451Z" fill="#520E0E"/>
</svg>
