<svg width="28" height="28" viewBox="0 0 28 28" fill="none" xmlns="http://www.w3.org/2000/svg">
<path d="M14.0003 0.892456C12.2494 0.892456 10.5156 1.23733 8.89788 1.9074C7.2802 2.57746 5.81035 3.55958 4.57223 4.7977C2.07175 7.29818 0.666992 10.6896 0.666992 14.2258C0.666992 17.762 2.07175 21.1534 4.57223 23.6539C5.81035 24.892 7.2802 25.8741 8.89788 26.5442C10.5156 27.2142 12.2494 27.5591 14.0003 27.5591C17.5365 27.5591 20.9279 26.1544 23.4284 23.6539C25.9289 21.1534 27.3337 17.762 27.3337 14.2258C27.3337 12.4748 26.9888 10.741 26.3187 9.12334C25.6487 7.50567 24.6665 6.03581 23.4284 4.7977C22.1903 3.55958 20.7204 2.57746 19.1028 1.9074C17.4851 1.23733 15.7513 0.892456 14.0003 0.892456ZM7.42699 22.5991C8.00033 21.3991 11.4937 20.2258 14.0003 20.2258C16.507 20.2258 20.0003 21.3991 20.5737 22.5991C18.7062 24.0872 16.3882 24.8959 14.0003 24.8925C11.5203 24.8925 9.24032 24.0391 7.42699 22.5991ZM22.4803 20.6658C20.5737 18.3458 15.947 17.5591 14.0003 17.5591C12.0537 17.5591 7.42699 18.3458 5.52033 20.6658C4.10191 18.8186 3.33321 16.5547 3.33366 14.2258C3.33366 8.34579 8.12033 3.55912 14.0003 3.55912C19.8803 3.55912 24.667 8.34579 24.667 14.2258C24.667 16.6525 23.8403 18.8925 22.4803 20.6658ZM14.0003 6.22579C11.4137 6.22579 9.33366 8.30579 9.33366 10.8925C9.33366 13.4791 11.4137 15.5591 14.0003 15.5591C16.587 15.5591 18.667 13.4791 18.667 10.8925C18.667 8.30579 16.587 6.22579 14.0003 6.22579ZM14.0003 12.8925C13.4699 12.8925 12.9612 12.6817 12.5861 12.3067C12.211 11.9316 12.0003 11.4229 12.0003 10.8925C12.0003 10.362 12.211 9.85331 12.5861 9.47824C12.9612 9.10317 13.4699 8.89246 14.0003 8.89246C14.5308 8.89246 15.0395 9.10317 15.4145 9.47824C15.7896 9.85331 16.0003 10.362 16.0003 10.8925C16.0003 11.4229 15.7896 11.9316 15.4145 12.3067C15.0395 12.6817 14.5308 12.8925 14.0003 12.8925Z" fill="#61A036"/>
</svg>
