<svg width="24" height="25" viewBox="0 0 24 25" fill="none" xmlns="http://www.w3.org/2000/svg">
<path d="M12.0002 0.982422C10.4681 0.982422 8.95099 1.28419 7.53552 1.87049C6.12006 2.4568 4.83393 3.31616 3.75058 4.39951C1.56266 6.58743 0.333496 9.5549 0.333496 12.6491C0.333496 15.7433 1.56266 18.7107 3.75058 20.8987C4.83393 21.982 6.12006 22.8414 7.53552 23.4277C8.95099 24.014 10.4681 24.3158 12.0002 24.3158C15.0944 24.3158 18.0618 23.0866 20.2497 20.8987C22.4377 18.7107 23.6668 15.7433 23.6668 12.6491C23.6668 11.117 23.3651 9.59991 22.7788 8.18445C22.1925 6.76898 21.3331 5.48286 20.2497 4.39951C19.1664 3.31616 17.8803 2.4568 16.4648 1.87049C15.0493 1.28419 13.5323 0.982422 12.0002 0.982422ZM6.2485 19.9758C6.75016 18.9258 9.80683 17.8991 12.0002 17.8991C14.1935 17.8991 17.2502 18.9258 17.7518 19.9758C16.1178 21.2778 14.0895 21.9854 12.0002 21.9824C9.83016 21.9824 7.83516 21.2358 6.2485 19.9758ZM19.4202 18.2841C17.7518 16.2541 13.7035 15.5658 12.0002 15.5658C10.2968 15.5658 6.2485 16.2541 4.58016 18.2841C3.33905 16.6678 2.66644 14.6869 2.66683 12.6491C2.66683 7.50409 6.85516 3.31576 12.0002 3.31576C17.1452 3.31576 21.3335 7.50409 21.3335 12.6491C21.3335 14.7724 20.6102 16.7324 19.4202 18.2841ZM12.0002 5.64909C9.73683 5.64909 7.91683 7.46909 7.91683 9.73242C7.91683 11.9958 9.73683 13.8158 12.0002 13.8158C14.2635 13.8158 16.0835 11.9958 16.0835 9.73242C16.0835 7.46909 14.2635 5.64909 12.0002 5.64909ZM12.0002 11.4824C11.536 11.4824 11.0909 11.298 10.7627 10.9699C10.4345 10.6417 10.2502 10.1966 10.2502 9.73242C10.2502 9.26829 10.4345 8.82317 10.7627 8.49499C11.0909 8.1668 11.536 7.98242 12.0002 7.98242C12.4643 7.98242 12.9094 8.1668 13.2376 8.49499C13.5658 8.82317 13.7502 9.26829 13.7502 9.73242C13.7502 10.1966 13.5658 10.6417 13.2376 10.9699C12.9094 11.298 12.4643 11.4824 12.0002 11.4824Z" fill="#61A036"/>
</svg>
