<svg width="10" height="11" viewBox="0 0 10 11" fill="none" xmlns="http://www.w3.org/2000/svg">
<path fill-rule="evenodd" clip-rule="evenodd" d="M1.01654 2.66725e-05C1.29168 2.66642e-05 1.52989 0.0635309 1.73117 0.190537L8.84695 4.68067C9.04823 4.80767 9.14886 4.95799 9.14886 5.1316C9.14886 5.30522 9.04823 5.45554 8.84695 5.58254L1.73117 10.0727C1.52989 10.1997 1.29168 10.2632 1.01654 10.2632C0.741397 10.2632 0.503187 10.1997 0.301912 10.0727C0.100637 9.94567 -2.98877e-08 9.79535 -4.09795e-08 9.62174L-6.14692e-07 0.641474C-6.25784e-07 0.467855 0.100637 0.317544 0.301912 0.190537C0.503187 0.0635309 0.741396 2.66807e-05 1.01654 2.66725e-05Z" fill="#333333"/>
</svg>
