<svg width="32" height="24" viewBox="0 0 32 24" fill="none" xmlns="http://www.w3.org/2000/svg">
<path fill-rule="evenodd" clip-rule="evenodd" d="M0.803527 0.995117C0.472573 0.995117 0.155174 1.12659 -0.0788453 1.36061C-0.312865 1.59463 -0.444336 1.91203 -0.444336 2.24298C-0.444336 2.57393 -0.312865 2.89133 -0.0788453 3.12535C0.155174 3.35937 0.472573 3.49084 0.803527 3.49084H30.7522C31.0832 3.49084 31.4006 3.35937 31.6346 3.12535C31.8686 2.89133 32.0001 2.57393 32.0001 2.24298C32.0001 1.91203 31.8686 1.59463 31.6346 1.36061C31.4006 1.12659 31.0832 0.995117 30.7522 0.995117H0.803527ZM-0.444336 12.2259C-0.444336 11.8949 -0.312865 11.5775 -0.0788453 11.3435C0.155174 11.1095 0.472573 10.978 0.803527 10.978H30.7522C31.0832 10.978 31.4006 11.1095 31.6346 11.3435C31.8686 11.5775 32.0001 11.8949 32.0001 12.2259C32.0001 12.5568 31.8686 12.8742 31.6346 13.1083C31.4006 13.3423 31.0832 13.4738 30.7522 13.4738H0.803527C0.472573 13.4738 0.155174 13.3423 -0.0788453 13.1083C-0.312865 12.8742 -0.444336 12.5568 -0.444336 12.2259ZM-0.444336 22.2088C-0.444336 21.8778 -0.312865 21.5604 -0.0788453 21.3264C0.155174 21.0924 0.472573 20.9609 0.803527 20.9609H30.7522C31.0832 20.9609 31.4006 21.0924 31.6346 21.3264C31.8686 21.5604 32.0001 21.8778 32.0001 22.2088C32.0001 22.5398 31.8686 22.8572 31.6346 23.0912C31.4006 23.3252 31.0832 23.4567 30.7522 23.4567H0.803527C0.472573 23.4567 0.155174 23.3252 -0.0788453 23.0912C-0.312865 22.8572 -0.444336 22.5398 -0.444336 22.2088Z" fill="#61A036"/>
</svg>
