<svg width="33" height="33" viewBox="0 0 33 33" fill="none" xmlns="http://www.w3.org/2000/svg">
<path d="M31.7136 0.124512H2.12859C1.4171 0.124512 0.842285 0.69933 0.842285 1.41082V30.9959C0.842285 31.7074 1.4171 32.2822 2.12859 32.2822H31.7136C32.4251 32.2822 33 31.7074 33 30.9959V1.41082C33 0.69933 32.4251 0.124512 31.7136 0.124512ZM10.3811 27.5269H5.60966V12.1796H10.3811V27.5269ZM7.99737 10.0813C7.45039 10.0813 6.9157 9.91913 6.4609 9.61525C6.00611 9.31136 5.65164 8.87944 5.44232 8.3741C5.233 7.86876 5.17824 7.3127 5.28495 6.77624C5.39166 6.23977 5.65505 5.74699 6.04182 5.36022C6.42859 4.97345 6.92137 4.71006 7.45783 4.60335C7.9943 4.49664 8.55036 4.55141 9.0557 4.76073C9.56104 4.97004 9.99296 5.32451 10.2968 5.77931C10.6007 6.2341 10.7629 6.76879 10.7629 7.31577C10.7589 8.84326 9.52083 10.0813 7.99737 10.0813ZM28.2446 27.5269H23.4773V20.0623C23.4773 18.2815 23.4451 15.9943 20.9971 15.9943C18.5169 15.9943 18.1351 17.9318 18.1351 19.9336V27.5269H13.3717V12.1796H17.9461V14.2779H18.0105C18.6456 13.072 20.2012 11.7977 22.5246 11.7977C27.3563 11.7977 28.2446 14.9773 28.2446 19.1096V27.5269Z" fill="#520E0E"/>
</svg>
