<svg width="45" height="45" viewBox="0 0 45 45" fill="none" xmlns="http://www.w3.org/2000/svg">
<rect x="0.5" y="0.5" width="44" height="44" rx="22" fill="#61A036" stroke="#61A036"/>
<path d="M24.9751 14.6248C25.2379 14.6243 25.4927 14.7159 25.6951 14.8836C25.809 14.978 25.9032 15.094 25.9722 15.2249C26.0412 15.3558 26.0837 15.499 26.0973 15.6463C26.1109 15.7937 26.0953 15.9423 26.0513 16.0836C26.0074 16.2249 25.936 16.3561 25.8413 16.4698L20.8013 22.4998L25.6613 28.5411C25.7548 28.6561 25.8246 28.7886 25.8667 28.9307C25.9088 29.0728 25.9224 29.2219 25.9067 29.3693C25.891 29.5167 25.8464 29.6595 25.7753 29.7896C25.7042 29.9197 25.6081 30.0345 25.4926 30.1273C25.3762 30.2297 25.2399 30.307 25.0922 30.3542C24.9445 30.4015 24.7887 30.4177 24.6344 30.4018C24.4802 30.386 24.3309 30.3384 24.196 30.2621C24.061 30.1859 23.9432 30.0825 23.8501 29.9586L18.4163 23.2086C18.2509 23.0073 18.1604 22.7548 18.1604 22.4942C18.1604 22.2336 18.2509 21.9811 18.4163 21.7798L24.0413 15.0298C24.1542 14.8937 24.2975 14.7861 24.4598 14.7157C24.622 14.6453 24.7986 14.6142 24.9751 14.6248Z" fill="white"/>
</svg>
