<svg width="45" height="45" viewBox="0 0 45 45" fill="none" xmlns="http://www.w3.org/2000/svg">
<rect x="0.5" y="0.5" width="44" height="44" rx="22" fill="#61A036" stroke="#61A036"/>
<path d="M22.1152 14.6253C22.3781 14.6248 22.6328 14.7163 22.8352 14.8841C22.9491 14.9785 23.0433 15.0945 23.1123 15.2254C23.1813 15.3563 23.2239 15.4995 23.2374 15.6468C23.251 15.7942 23.2354 15.9428 23.1915 16.0841C23.1476 16.2254 23.0762 16.3566 22.9815 16.4703L17.9415 22.5003L22.8015 28.5416C22.8949 28.6566 22.9647 28.789 23.0068 28.9312C23.0489 29.0733 23.0625 29.2224 23.0468 29.3698C23.0312 29.5172 22.9865 29.66 22.9154 29.7901C22.8444 29.9202 22.7483 30.035 22.6327 30.1278C22.5163 30.2302 22.38 30.3075 22.2323 30.3547C22.0847 30.402 21.9288 30.4182 21.7746 30.4023C21.6204 30.3865 21.4711 30.3389 21.3361 30.2626C21.2011 30.1864 21.0834 30.083 20.9902 29.9591L15.5565 23.2091C15.391 23.0078 15.3005 22.7553 15.3005 22.4947C15.3005 22.2341 15.391 21.9816 15.5565 21.7803L21.1815 15.0303C21.2943 14.8942 21.4377 14.7865 21.5999 14.7162C21.7621 14.6458 21.9387 14.6147 22.1152 14.6253Z" fill="white"/>
<path d="M28.4145 14.6253C28.6774 14.6248 28.9321 14.7163 29.1345 14.8841C29.2484 14.9785 29.3426 15.0945 29.4116 15.2254C29.4806 15.3563 29.5232 15.4995 29.5368 15.6468C29.5503 15.7942 29.5347 15.9428 29.4908 16.0841C29.4469 16.2254 29.3755 16.3566 29.2808 16.4703L24.2408 22.5003L29.1008 28.5416C29.1942 28.6566 29.264 28.789 29.3061 28.9312C29.3482 29.0733 29.3618 29.2224 29.3462 29.3698C29.3305 29.5172 29.2858 29.66 29.2147 29.7901C29.1437 29.9202 29.0476 30.035 28.932 30.1278C28.8156 30.2302 28.6793 30.3075 28.5316 30.3547C28.384 30.402 28.2281 30.4182 28.0739 30.4023C27.9197 30.3865 27.7704 30.3389 27.6354 30.2626C27.5004 30.1864 27.3827 30.083 27.2895 29.9591L21.8558 23.2091C21.6903 23.0078 21.5999 22.7553 21.5999 22.4947C21.5999 22.2341 21.6903 21.9816 21.8558 21.7803L27.4808 15.0303C27.5936 14.8942 27.737 14.7865 27.8992 14.7162C28.0615 14.6458 28.238 14.6147 28.4145 14.6253Z" fill="white"/>
</svg>
