<svg width="27" height="25" viewBox="0 0 27 25" fill="none" xmlns="http://www.w3.org/2000/svg">
<path d="M13.6332 20.7333L13.4998 20.8667L13.3532 20.7333C7.01984 14.9867 2.83317 11.1867 2.83317 7.33333C2.83317 4.66667 4.83317 2.66667 7.49984 2.66667C9.55317 2.66667 11.5532 4 12.2598 5.81333H14.7398C15.4465 4 17.4465 2.66667 19.4998 2.66667C22.1665 2.66667 24.1665 4.66667 24.1665 7.33333C24.1665 11.1867 19.9798 14.9867 13.6332 20.7333ZM19.4998 0C17.1798 0 14.9532 1.08 13.4998 2.77333C12.0465 1.08 9.81984 0 7.49984 0C3.39317 0 0.166504 3.21333 0.166504 7.33333C0.166504 12.36 4.69984 16.48 11.5665 22.7067L13.4998 24.4667L15.4332 22.7067C22.2998 16.48 26.8332 12.36 26.8332 7.33333C26.8332 3.21333 23.6065 0 19.4998 0Z" fill="#61A036"/>
</svg>
