<svg width="24" height="23" viewBox="0 0 24 23" fill="none" xmlns="http://www.w3.org/2000/svg">
<path d="M12.0449 0.250067C5.9024 0.250067 0.896153 5.25632 0.896153 11.3988C0.896153 13.3676 1.41365 15.2801 2.38115 16.9676L0.806152 22.7501L6.7124 21.1976C8.34365 22.0863 10.1774 22.5588 12.0449 22.5588C18.1874 22.5588 23.1937 17.5526 23.1937 11.4101C23.1937 8.42882 22.0349 5.62757 19.9312 3.52382C18.8998 2.48198 17.6712 1.65594 16.3172 1.09387C14.9633 0.531806 13.5109 0.24496 12.0449 0.250067ZM12.0562 2.12882C14.5312 2.12882 16.8487 3.09632 18.6037 4.85132C19.465 5.71234 20.1478 6.73492 20.6131 7.86042C21.0783 8.98592 21.3168 10.1922 21.3149 11.4101C21.3149 16.5176 17.1524 20.6688 12.0449 20.6688C10.3799 20.6688 8.74865 20.2301 7.33115 19.3751L6.99365 19.1838L3.48365 20.1063L4.4174 16.6863L4.1924 16.3263C3.26309 14.8511 2.77154 13.1424 2.7749 11.3988C2.78615 6.29132 6.9374 2.12882 12.0562 2.12882ZM8.09615 6.24632C7.91615 6.24632 7.6124 6.31382 7.35365 6.59507C7.10615 6.87632 6.3749 7.56257 6.3749 8.92382C6.3749 10.2963 7.37615 11.6126 7.4999 11.8038C7.6574 11.9951 9.4799 14.8076 12.2812 16.0001C12.9449 16.3038 13.4624 16.4726 13.8674 16.5963C14.5312 16.8101 15.1387 16.7763 15.6224 16.7088C16.1624 16.6301 17.2649 16.0338 17.5012 15.3813C17.7374 14.7288 17.7374 14.1776 17.6699 14.0538C17.5912 13.9413 17.4112 13.8738 17.1299 13.7501C16.8487 13.5926 15.4762 12.9176 15.2287 12.8276C14.9699 12.7376 14.8124 12.6926 14.5987 12.9626C14.4187 13.2438 13.8787 13.8738 13.7212 14.0538C13.5524 14.2451 13.3949 14.2676 13.1249 14.1326C12.8324 13.9863 11.9324 13.6938 10.8749 12.7488C10.0424 12.0063 9.49115 11.0951 9.3224 10.8138C9.1874 10.5438 9.31115 10.3751 9.44615 10.2513C9.5699 10.1276 9.7499 9.92507 9.8624 9.75632C10.0087 9.59882 10.0537 9.47507 10.1437 9.29507C10.2337 9.10382 10.1887 8.94632 10.1212 8.81132C10.0537 8.68757 9.49115 7.29257 9.2549 6.74132C9.0299 6.20132 8.8049 6.26882 8.6249 6.25757C8.4674 6.25757 8.2874 6.24632 8.09615 6.24632Z" fill="black"/>
</svg>
