<svg width="24" height="23" viewBox="0 0 24 23" fill="none" xmlns="http://www.w3.org/2000/svg">
<path d="M15.4537 0.25H8.54625C2.24625 0.25 0.75 1.74625 0.75 8.04625V14.9537C0.75 21.2537 2.24625 22.75 8.54625 22.75H15.4537C21.7537 22.75 23.25 21.2537 23.25 14.9537V8.04625C23.25 1.74625 21.7537 0.25 15.4537 0.25ZM18.9187 16.3038H17.2763C16.6575 16.3038 16.4663 15.7975 15.375 14.6838C14.385 13.75 13.9575 13.615 13.7212 13.615C13.395 13.615 13.2937 13.705 13.2937 14.1775V15.6512C13.2937 16.045 13.17 16.2925 12.1237 16.2925C10.3912 16.2925 8.4675 15.235 7.1175 13.2887C5.08125 10.4313 4.53 8.27125 4.53 7.84375C4.53 7.6075 4.60875 7.3825 5.08125 7.3825H6.735C7.15125 7.3825 7.30875 7.5625 7.46625 8.0125C8.27625 10.375 9.62625 12.4 10.1775 12.4C10.3912 12.4 10.4812 12.2987 10.4812 11.7812V9.3625C10.425 8.26 9.82875 8.15875 9.82875 7.765C9.82875 7.5625 9.98625 7.3825 10.245 7.3825H12.8212C13.17 7.3825 13.2937 7.5625 13.2937 7.99V11.2413C13.2937 11.59 13.44 11.7137 13.5525 11.7137C13.755 11.7137 13.935 11.59 14.3063 11.2075C15.4875 9.89125 16.3313 7.855 16.3313 7.855C16.4438 7.61875 16.6237 7.39375 17.0625 7.39375H18.6712C19.1663 7.39375 19.2788 7.6525 19.1663 8.00125C18.9638 8.9575 16.9613 11.7812 16.9837 11.7812C16.8038 12.0625 16.7362 12.1862 16.9837 12.5125C17.1525 12.7487 17.7262 13.2437 18.1087 13.6825C18.8062 14.4812 19.3463 15.145 19.4925 15.6062C19.6162 16.0675 19.3912 16.3038 18.9187 16.3038Z" fill="black"/>
</svg>
