<svg width="57" height="56" viewBox="0 0 57 56" fill="none" xmlns="http://www.w3.org/2000/svg">
<g filter="url(#filter0_d)">
<circle cx="30.5" cy="24" r="23.5" fill="white" stroke="#61A036"/>
<g clip-path="url(#clip0)">
<path d="M18.3446 25.9494L28.6894 38.3244C29.5946 39.3556 30.6506 39.8712 31.8575 39.8712C32.9351 39.8712 33.8618 39.549 34.6377 38.9044L43.6248 31.3634C44.4868 30.59 44.9825 29.6232 45.1118 28.463C45.2411 27.3888 44.9179 26.3361 44.142 25.3048L33.7972 12.9298C32.6765 11.4689 31.211 10.5451 29.4006 10.1583L20.4136 8.09584C19.5515 7.83803 18.7325 8.03139 17.9567 8.67592L16.8575 9.64272C16.211 10.1154 15.8877 10.8888 15.8877 11.963L16.4049 21.1798C16.6205 23.0275 17.267 24.6173 18.3446 25.9494ZM19.8963 10.7384L29.0127 12.9298C29.961 13.1447 30.9092 13.7247 31.8575 14.6701L42.2023 27.0451C42.5472 27.3888 42.6549 27.7755 42.5256 28.2052C42.5256 28.463 42.3317 28.8283 41.9437 29.3009L32.9567 36.8419C32.6549 37.0997 32.2886 37.2179 31.8575 37.1964C31.4265 37.1749 31.1032 37.0138 30.8877 36.713L20.5429 24.338C19.7239 23.3068 19.3144 22.254 19.3144 21.1798L18.6679 11.7052L19.8963 10.7384ZM23.5817 15.2501C23.5817 15.6369 23.4524 15.9591 23.1937 16.2169C22.9351 16.4747 22.6118 16.6037 22.2239 16.6037C21.836 16.6037 21.5127 16.4747 21.2541 16.2169C20.9955 15.9591 20.8661 15.6369 20.8661 15.2501C20.8661 14.8634 20.9955 14.5412 21.2541 14.2833C21.5127 14.0255 21.836 13.8966 22.2239 13.8966C22.6118 13.8966 22.9351 14.0255 23.1937 14.2833C23.4524 14.5412 23.5817 14.8634 23.5817 15.2501ZM24.2929 24.8537L36.9653 28.8497H37.4179C38.0213 28.8497 38.4739 28.5275 38.7756 27.883C38.9049 27.5392 38.8834 27.1955 38.711 26.8517C38.5386 26.508 38.2799 26.2716 37.9351 26.1427L25.2627 22.1466C24.9179 21.9747 24.5623 21.9747 24.1959 22.1466C23.8295 22.3185 23.5817 22.5763 23.4524 22.9201C23.1937 23.9083 23.4739 24.5529 24.2929 24.8537ZM34.6377 31.0412C34.6377 31.5997 34.4437 32.0831 34.0558 32.4914C33.6679 32.8996 33.1722 33.1037 32.5687 33.1037C31.9653 33.1037 31.4696 32.8996 31.0817 32.4914C30.6937 32.0831 30.4998 31.5997 30.4998 31.0412C30.4998 30.4826 30.7045 29.9992 31.114 29.591C31.5235 29.1828 32.0084 28.9787 32.5687 28.9787C33.1291 28.9787 33.614 29.1828 34.0235 29.591C34.433 29.9992 34.6377 30.4826 34.6377 31.0412ZM30.4998 20.0841C30.4998 20.6427 30.295 21.1261 29.8855 21.5343C29.4761 21.9425 28.9911 22.1466 28.4308 22.1466C27.8705 22.1466 27.3855 21.9425 26.9761 21.5343C26.5666 21.1261 26.3618 20.6427 26.3618 20.0841C26.3618 19.5255 26.5558 19.0421 26.9437 18.6339C27.3317 18.2257 27.8273 18.0216 28.4308 18.0216C29.0342 18.0216 29.5299 18.2257 29.9179 18.6339C30.3058 19.0421 30.4998 19.5255 30.4998 20.0841Z" fill="#61A036"/>
</g>
</g>
<defs>
<filter id="filter0_d" x="0.5" y="0" width="56" height="56" filterUnits="userSpaceOnUse" color-interpolation-filters="sRGB">
<feFlood flood-opacity="0" result="BackgroundImageFix"/>
<feColorMatrix in="SourceAlpha" type="matrix" values="0 0 0 0 0 0 0 0 0 0 0 0 0 0 0 0 0 0 127 0"/>
<feOffset dx="-2" dy="4"/>
<feGaussianBlur stdDeviation="2"/>
<feColorMatrix type="matrix" values="0 0 0 0 0 0 0 0 0 0 0 0 0 0 0 0 0 0 0.1 0"/>
<feBlend mode="normal" in2="BackgroundImageFix" result="effect1_dropShadow"/>
<feBlend mode="normal" in="SourceGraphic" in2="effect1_dropShadow" result="shape"/>
</filter>
<clipPath id="clip0">
<rect width="30" height="33" fill="white" transform="translate(15.5 7)"/>
</clipPath>
</defs>
</svg>
