<svg width="382" height="295" fill="none" xmlns="http://www.w3.org/2000/svg">
  <path fill-rule="evenodd" clip-rule="evenodd" d="M80 0h60v20h-20v20h20v20H60V40H0V20h80V0Zm60 60h20v20h-20V60Z" fill="url(#a)"/>
  <path d="M94.9369 3.8h1.28L100.377 15h-1.2161l-1.168-3.248h-4.896L91.9289 15h-1.152l4.16-11.2Zm2.688 6.928L95.5769 5h-.032l-2.08 5.728h4.16ZM106.219 7h3.04c.939 0 1.627.1973 2.064.592.438.3947.656.928.656 1.6 0 .352-.09.672-.272.96-.17.288-.416.512-.736.672v.032c.438.1707.768.416.992.736.224.32.336.6933.336 1.12 0 .7147-.218 1.2747-.656 1.68-.437.4053-1.125.608-2.064.608h-3.36V7Zm4.672 2.208c0-.3947-.128-.6987-.384-.912-.256-.224-.698-.336-1.328-.336h-1.904v2.512h1.904c.63 0 1.072-.1067 1.328-.32.256-.224.384-.5387.384-.944Zm.32 3.488c0-.4373-.128-.768-.384-.992-.256-.224-.698-.336-1.328-.336h-2.224v2.672h2.224c.63 0 1.072-.112 1.328-.336.256-.224.384-.56.384-1.008Zm6.361 2.416c-1.077 0-1.936-.3307-2.576-.992-.629-.6613-.944-1.6107-.944-2.848v-.544c0-.608.08-1.152.24-1.632.171-.48.411-.88.72-1.2.309-.3307.677-.5813 1.104-.752.437-.1707.923-.256 1.456-.256 1.077 0 1.931.3307 2.56.992.64.6613.96 1.6107.96 2.848v.544c0 .608-.085 1.152-.256 1.632-.16.48-.395.8853-.704 1.216-.309.32-.683.5653-1.12.736-.427.1707-.907.256-1.44.256Zm0-.96c.736 0 1.323-.24 1.76-.72.448-.48.672-1.2.672-2.16v-.544c0-.9493-.224-1.664-.672-2.144-.448-.4907-1.035-.736-1.76-.736-.736 0-1.328.24-1.776.72-.437.48-.656 1.2-.656 2.16v.544c0 .9493.224 1.6693.672 2.16.448.48 1.035.72 1.76.72Zm7.076-6.192h-2.672V7h6.4v.96h-2.672V15h-1.056V7.96ZM16.6959 27h1.056v6.8h.032l4-6.8h1.472v8h-1.056v-6.8h-.032l-4 6.8h-1.472v-8Zm16.9933 8.112h-.592c-.544 0-1.04-.0853-1.488-.256-.4373-.1813-.816-.4373-1.136-.768-.3093-.3413-.5493-.7467-.72-1.216-.1707-.4693-.256-1.0027-.256-1.6v-.544c0-.5867.0853-1.1147.256-1.584.1813-.48.4267-.8853.736-1.216.32-.3307.6987-.5867 1.136-.768.448-.1813.9387-.272 1.472-.272h.592V23.8h1.056v3.088h.592c.544 0 1.0347.0907 1.472.272.448.1707.8267.4267 1.136.768.32.3307.5653.736.736 1.216.1707.4693.256.9973.256 1.584v.544c0 .5867-.0907 1.12-.272 1.6-.1707.4693-.416.8693-.736 1.2-.3093.3307-.688.5867-1.136.768-.4373.1813-.9227.272-1.456.272h-.592V38.2h-1.056v-3.088Zm4.16-4.384c0-.9173-.2293-1.6213-.688-2.112-.448-.4907-1.056-.736-1.824-.736h-.592v6.24h.592c.768 0 1.376-.24 1.824-.72.4587-.4907.688-1.2.688-2.128v-.544Zm-7.264.544c0 .9173.224 1.6213.672 2.112.4587.4907 1.072.736 1.84.736h.592v-6.24h-.592c-.768 0-1.3813.2453-1.84.736-.448.48-.672 1.184-.672 2.112v.544ZM41.1803 27h1.056v6.8h.032l4-6.8h1.472v8h-1.056v-6.8h-.032l-4 6.8h-1.472v-8Zm9.2813 0h1.056v3.44h4.448V27h1.056v8h-1.056v-3.6h-4.448V35h-1.056v-8Zm9.2812 0h1.056v6.8h.032l4-6.8h1.472v8h-1.056v-6.8h-.032l-4 6.8h-1.472v-8Zm9.2813 0h1.056v7.04h3.136V27h1.056v7.04h3.136V27h1.056v8h-9.44v-8Zm12.1562 0h1.056v3.44h4.448V27h1.056v8h-1.056v-3.6h-4.448V35h-1.056v-8Zm11.3613 8.112c-.8854 0-1.5467-.2027-1.984-.608-.4374-.416-.656-.9867-.656-1.712 0-.7573.2613-1.36.784-1.808.5226-.448 1.3546-.672 2.496-.672h2.064v-.592c0-.64-.1547-1.104-.464-1.392-.3094-.2987-.816-.448-1.52-.448-.6507 0-1.1307.112-1.44.336-.2987.224-.4694.512-.512.864h-1.088c.0213-.288.1013-.5653.24-.832.1386-.2667.3306-.5013.576-.704.256-.2027.5706-.3627.944-.48.3733-.1173.8-.176 1.28-.176 1.0346 0 1.7973.24 2.288.72.5013.4693.752 1.1733.752 2.112V35h-.832l-.128-1.36h-.032c-.32.48-.72.848-1.2 1.104-.4694.2453-.992.368-1.568.368Zm.08-.992c.384 0 .736-.0587 1.056-.176.32-.128.5973-.2987.832-.512.2346-.224.416-.4853.544-.784.128-.3093.192-.6453.192-1.008v-.432h-1.984c-.8214 0-1.408.144-1.76.432-.3414.288-.512.672-.512 1.152 0 .4053.128.7307.384.976.2666.2347.6826.352 1.248.352Zm7.4764-2.32c-.5441-.1813-.9387-.464-1.1841-.848-.2453-.384-.368-.864-.368-1.44 0-.8.2454-1.4187.736-1.856.5014-.4373 1.3231-.656 2.4641-.656h2.56v8h-1.056v-2.976h-1.824c-.096 0-.192-.0053-.288-.016L99.4419 35h-1.216l1.8721-3.2Zm-.4641-2.288c0 .5013.16.8853.4801 1.152.32.2667.891.4 1.712.4h1.424V27.96h-1.424c-.821 0-1.392.1333-1.712.4-.3201.2667-.4801.6507-.4801 1.152ZM74.5631 46h6.24v8h-1.056v-7.04h-4.128V54h-1.056v-8Zm8.9532 0h.832l.128 1.2h.0319c.3521-.4587.7414-.7893 1.1681-.992.4266-.2133.928-.32 1.504-.32.4693 0 .9013.0853 1.296.256.3946.16.7306.4053 1.008.736.288.32.512.72.6719 1.2.1601.48.2401 1.0293.2401 1.648v.544c0 .6187-.08 1.168-.2401 1.648-.1599.4693-.3839.8693-.6719 1.2a2.924 2.924 0 0 1-1.024.736c-.3947.1707-.8214.256-1.28.256-1.152 0-2.0107-.4107-2.576-1.232h-.032v4.32h-1.056V46Zm3.424 7.152c.704 0 1.2746-.2347 1.712-.704.4373-.48.656-1.2053.656-2.176v-.544c0-.9493-.224-1.664-.672-2.144-.4374-.4907-1.0027-.736-1.696-.736-.704 0-1.2747.24-1.712.72-.4374.4693-.656 1.1893-.656 2.16v.544c0 .9493.2186 1.6693.656 2.16.448.48 1.0186.72 1.712.72Zm6.853-2.352c-.544-.1813-.9387-.464-1.184-.848-.2454-.384-.368-.864-.368-1.44 0-.8.2453-1.4187.736-1.856.5013-.4373 1.3226-.656 2.464-.656h2.56v8h-1.056v-2.976h-1.824c-.096 0-.192-.0053-.288-.016L93.1373 54h-1.216l1.872-3.2Zm-.464-2.288c0 .5013.16.8853.48 1.152.32.2667.8906.4 1.712.4h1.424V46.96h-1.424c-.8214 0-1.392.1333-1.712.4-.32.2667-.48.6507-.48 1.152ZM100.719 46h1.536l2.56 4.928h.032l2.56-4.928h1.472v8h-1.056v-6.64h-.032l-2.464 4.72h-1.056l-2.464-4.72h-.032V54h-1.056v-8Zm12.955 8.112c-.885 0-1.546-.2027-1.984-.608-.437-.416-.656-.9867-.656-1.712 0-.7573.262-1.36.784-1.808.523-.448 1.355-.672 2.496-.672h2.064v-.592c0-.64-.154-1.104-.464-1.392-.309-.2987-.816-.448-1.52-.448-.65 0-1.13.112-1.44.336-.298.224-.469.512-.512.864h-1.088c.022-.288.102-.5653.24-.832.139-.2667.331-.5013.576-.704.256-.2027.571-.3627.944-.48.374-.1173.8-.176 1.28-.176 1.035 0 1.798.24 2.288.72.502.4693.752 1.1733.752 2.112V54h-.832l-.128-1.36h-.032c-.32.48-.72.848-1.2 1.104-.469.2453-.992.368-1.568.368Zm.08-.992c.384 0 .736-.0587 1.056-.176.32-.128.598-.2987.832-.512.235-.224.416-.4853.544-.784.128-.3093.192-.6453.192-1.008v-.432h-1.984c-.821 0-1.408.144-1.76.432-.341.288-.512.672-.512 1.152 0 .4053.128.7307.384.976.267.2347.683.352 1.248.352Zm7.477-2.32c-.544-.1813-.939-.464-1.184-.848-.246-.384-.368-.864-.368-1.44 0-.8.245-1.4187.736-1.856.501-.4373 1.322-.656 2.464-.656h2.56v8h-1.056v-2.976h-1.824c-.096 0-.192-.0053-.288-.016L120.575 54h-1.216l1.872-3.2Zm-.464-2.288c0 .5013.16.8853.48 1.152.32.2667.89.4 1.712.4h1.424V46.96h-1.424c-.822 0-1.392.1333-1.712.4-.32.2667-.48.6507-.48 1.152Z" fill="#fff"/>
  <g clip-path="url(#b)">
    <path d="M142.122 173.231c.006 0 .02-.006.027-.006-.054.231-.109.462-.163.693.054-.231.095-.456.136-.687Z" fill="url(#c)"/>
    <path d="M244.444 145.753c0 .014 0 .02-.006.034-.469 2.296-1.046 4.565-1.692 6.78-.006.02-.013.04-.013.054-3.383 11.501-8.837 21.603-13.354 27.825-3.268 4.572-13.81 15.89-29.942 23.545-.061.028-.122.055-.176.082-2.453 1.155-5.027 2.221-7.73 3.166-.279.102-.564.203-.849.299-3.01 1.019-6.161 1.888-9.462 2.554-24.875 4.809-37.088-4.817-42.664-21.902.665-.169 1.324-.366 1.976-.584 4.212-1.399 5.536-3.417 5.713-5.509.788-.136 1.596-.313 2.438-.53 3.125-.808 7.723-2.819 11.656-5.305 1.128-.714 2.323-1.047 3.526-1.135 5.549-.435 11.377 4.191 12.742.102 1.101-3.302-6.405-14.123-15.684-13.668-1.263.061-2.56.333-3.871.856-3.444 1.386-6.107 4.905-9.204 7.486 3.593-5.047 5.787-7.663 5.189-12.69-.482-4.048-4.632-3.457-9.74-1.637-.075.027-.15.054-.231.082-.17-2.059-.442-3.988-.802-5.734-.584-2.853-1.399-5.224-2.37-6.909-.245-.455-.51-.896-.775-1.324 2.745-2.765 5.733-5.686 8.315-8.071-1.21-.448-2.324-1.148-3.274-2.099-.863-.862-1.522-1.861-1.97-2.948-2.113 2.391-4.565 5.38-6.895 8.288-4.293-4.321-9.55-6.732-13.626-6.882 2.439-3.498 5.407-5.4 5.407-5.4l.157-.666.563-2.419v-.006l.686-2.955 1.216-5.211 2.412-10.366s.061-.102.176-.292c.245-.388.734-1.155 1.467-2.201.014-.021.028-.041.041-.062 3.913-5.5903 14.557-18.9119 30.872-25.413.048-.0136.088-.034.136-.0475 9.231-3.6616 20.276-5.1221 32.944-1.7595 27.129 7.194 38.887 24.6119 44.022 37.832.15.373.292.747.428 1.127.387 1.067.734 2.099 1.039 3.091.007.014.014.021.014.034 1.576 5.081 2.16 9.137 2.391 11.114.652 6.467.102 13.05-1.196 19.374Z" fill="url(#d)"/>
    <path d="M127.021 223.284c-1.154-.618-2.621-9.735 7.629-29.721.862-1.691 1.657-3.356 2.384-5M76.1117 240.824c-8.6877-15.475-18.4418-61.037 23.0946-100.886 3.5527-3.383 7.2067-5.822 10.8137-7.391M143.297 155.576c-.218-1.984-.564-3.872-1.033-5.652-.781-3.01-1.895-5.72-3.281-8.098M120.738 130.359c5.55.177 10.597 2.48 14.53 6.535M126.648 124.463c.197-.184.394-.374.584-.551 3.07-2.921 5.604-5.108 6.569-5.38H122.518c-.129.034-.265.089-.407.156-.367.17-.781.442-1.25.802" stroke="#fff" stroke-width="1.6697" stroke-miterlimit="10" stroke-linecap="round" stroke-linejoin="round"/>
    <path d="M120.732 130.359h.007c1.984-2.038 4.028-4.082 5.91-5.896-1.468-.428-2.819-1.196-3.947-2.323-.781-.782-1.392-1.678-1.841-2.65-2.608 2.038-6.622 6.929-10.84 13.057" stroke="#fff" stroke-width="1.6697" stroke-miterlimit="10" stroke-linecap="round" stroke-linejoin="round"/>
    <path d="M120.732 130.359c-4.666 4.783-9.014 9.491-10.08 10.856l10.08-10.856ZM110.02 132.547c-1.548 2.255-3.124 4.674-4.666 7.18l4.666-7.18ZM135.268 136.894c.007-.014.02-.027.027-.034 2.33-2.907 4.782-5.897 6.895-8.288.448 1.087 1.107 2.086 1.969 2.949.951.951 2.065 1.65 3.274 2.099-2.581 2.384-5.569 5.305-8.314 8.07-.047.048-.088.088-.135.136M138.983 141.826c-4 4.035-7.471 7.731-8.409 8.926" stroke="#fff" stroke-width="1.6697" stroke-miterlimit="10" stroke-linecap="round" stroke-linejoin="round"/>
    <path d="M147.433 133.62c2.996-2.758 5.455-4.803 6.399-5.067l-1.963-1.481-4.476-3.37c-.673.197-1.991 1.4-3.655 3.173-.489.523-1.005 1.093-1.549 1.698M135.268 136.895c-3.913 4.891-7.479 9.578-8.511 10.889" stroke="#fff" stroke-width="1.6697" stroke-miterlimit="10" stroke-linecap="round" stroke-linejoin="round"/>
    <path d="M159.837 130.448c-3.539 3.539-8.471 4.653-12.403 3.172a9.0643 9.0643 0 0 1-3.274-2.099c-.863-.863-1.522-1.861-1.97-2.948-1.671-3.981-.598-9.097 3.036-12.731 4.626-4.626 11.642-5.108 15.677-1.073s3.559 11.059-1.066 15.679ZM138.379 121.073c-3.213 3.213-7.58 4.423-11.303 3.505-.142-.034-.285-.067-.428-.115-1.467-.428-2.819-1.196-3.946-2.323-.781-.782-1.393-1.678-1.841-2.65-1.847-4.021-.815-9.3 2.907-13.029 2.439-2.439 5.536-3.723 8.518-3.798 2.676-.074 5.251.822 7.159 2.731 4.035 4.036 3.56 11.053-1.066 15.679Z" fill="#fff" stroke="#fff" stroke-width="1.6697" stroke-miterlimit="10" stroke-linecap="round" stroke-linejoin="round"/>
    <path d="M129.448 119.806c1.749-2.43 1.817-5.372.152-6.571-1.665-1.199-4.433-.201-6.182 2.228-1.75 2.43-1.818 5.371-.152 6.571 1.665 1.199 4.433.201 6.182-2.228ZM150.748 129.34c1.749-2.429 1.817-5.371.152-6.57-1.665-1.199-4.433-.202-6.183 2.228-1.749 2.429-1.817 5.371-.152 6.57 1.666 1.199 4.434.202 6.183-2.228Z" fill="#000"/>
    <path d="M147.848 169.903c-.605.509-1.23.985-1.882 1.399-1.277.808-2.533 1.44-3.817 1.922-.007 0-.021.007-.027.007-4.952 1.841-10.264 1.345-18.048-.57-9.809-2.412-13.585.305-15.847 3.627l.91.408c-6.847-1.012-12.9193-2.065-20.0718-3.703-.6589-1.705-.9985-3.437-1.2159-5.162-.754-6.04 3.7766-14.042 14.7937-14.341 11.018-.299 9.659 9.511 23.903 8.07.951-.095 2.031-.346 3.193-.699 3.994-1.209 8.986-3.628 13.327-5.204.081-.027.156-.054.231-.081 5.108-1.821 9.258-2.412 9.74 1.637.598 5.027-1.596 7.642-5.189 12.69Z" stroke="#fff" stroke-width="1.6697" stroke-miterlimit="10" stroke-linecap="round" stroke-linejoin="round"/>
    <path d="M142.149 173.225c-.054.231-.109.462-.163.693.054-.231.095-.456.136-.687.006 0 .02-.006.027-.006Z" fill="#000" stroke="#fff" stroke-width="1.6697" stroke-miterlimit="10" stroke-linecap="round" stroke-linejoin="round"/>
    <path d="M146.244 182.096c-.176 2.092-1.501 4.11-5.712 5.509-.652.218-1.311.415-1.977.585-.502.135-1.012.258-1.521.373-10.569 2.303-22.382.048-26.545-1.107-14.1696-3.933-19.3591-9.062-21.4241-14.463 7.1526 1.637 13.2251 2.69 20.0721 3.702 2.527.374 5.162.748 7.995 1.135 3.708.516 5.481 2.758 6.588 5.407l.659.292c1.209-1.807 3.016-4.225 6.793-2.866 2.133.767 4.843 1.63 8.28 1.847.041.007.088.014.129.014 1.977.122 4.191.027 6.663-.428ZM74.862 238.392c-3.4913-.279-9.5163.251-8.151 2.771 4.4219 5.482 20.0991-.394 23.7603 4.851 3.6544 5.244 23.2577 5.509 20.1807.747-3.07-4.769 19.182 4.232 22.354-1.488 0 0 .53-4.232 6.779-3.179 6.256 1.06 23.203-.849 18.116-5.408 0 0-4.504-7.683 16.322-4.979 20.819 2.704 32.903-5.088 22.565-8.906-10.331-3.818 16.051-3.335 24.793-3.655 20.663-1.114-11.602-7.628 23.047-12.397 15.419-3.655-17.851.584-5.135-7.262 12.151-7.493 13.653-30.475 9.699-33.24-.183-.122-.38-.21-.584-.251-.088.217-.183.428-.305.652-2.853 5.387-15.447 13.573-20.371 15.944M150.524 266.075c-.747-.537-1.542-.979-2.384-1.325-.673-.279-1.365-.489-2.085-.639-.761-.163-1.542-.244-2.344-.244-7.023 0-12.715 6.338-12.715 14.15 0 6.814 4.326 12.506 10.093 13.845l.055.013c.828.184 1.684.286 2.567.286.279 0 .55-.007.822-.034M139.812 291.474l8.504 2.459M145.959 264.077l8.654 2.419" stroke="#fff" stroke-width="1.6697" stroke-miterlimit="10" stroke-linecap="round" stroke-linejoin="round"/>
    <path d="M151.339 294.328c7.023 0 12.716-6.333 12.716-14.144s-5.693-14.143-12.716-14.143c-7.022 0-12.715 6.332-12.715 14.143 0 7.811 5.693 14.144 12.715 14.144ZM247.12 262.277c7.023 0 12.716-6.332 12.716-14.143 0-7.811-5.693-14.144-12.716-14.144-7.022 0-12.715 6.333-12.715 14.144s5.693 14.143 12.715 14.143Z" stroke="#fff" stroke-width="1.6697" stroke-miterlimit="10" stroke-linecap="round" stroke-linejoin="round"/>
    <path d="M246.312 234.017c-.747-.537-1.548-.985-2.398-1.325-.665-.278-1.358-.496-2.071-.638-.761-.163-1.542-.245-2.344-.245-7.023 0-12.715 6.331-12.715 14.15 0 6.8 4.313 12.486 10.073 13.838.856.204 1.739.313 2.649.313.279 0 .55-.007.822-.034M235.6 259.417l8.504 2.494M250.035 234.33l-8.287-2.303M140.532 193.876c8.776 20.393 30.546 20.481 50.149 13.661.285-.095.571-.197.849-.299 2.629-.944 5.217-2.011 7.73-3.166.054-.027.115-.054.177-.081 10.888-5.041 20.241-11.746 25.01-17.425 4.388-4.049 14.23-18.382 18.285-33.946 0-.013.007-.034.014-.054 3.566-13.756 2.601-28.457-10.665-37.845-28.29-20.0265-54.041 9.538-54.041 9.538-11.167 12.479-16.913 25.909-17.117 37.301" stroke="#fff" stroke-width="1.6697" stroke-miterlimit="10" stroke-linecap="round" stroke-linejoin="round"/>
    <path d="M203.791 148.735c7.628 1.589 2.221 19.394-8.905 12.085-12.715-9.538 8.267-34.021 22.572-18.125 14.305 15.897-12.56 50.549-33.535 45.78-9.876-1.691-16.547-6.562-20.058-13.349" stroke="#fff" stroke-width="1.6697" stroke-miterlimit="10" stroke-linecap="round" stroke-linejoin="round"/>
    <path d="M132.585 102.582c2.758-5.9377 20.663-30.4681 49.273-30.8893 25.221-.8491 52.343 15.4682 61.241 43.0213 5.509 19.707.422 39.421-3.6 47.689M233.977 173.442c3.525-1.739 8.348-4.055 14.325-6.786" stroke="#fff" stroke-width="1.6697" stroke-miterlimit="10" stroke-linecap="round" stroke-linejoin="round"/>
    <path d="M249.192 166.254a625.881 625.881 0 0 1 13.076-5.753c11.017-7.847 66.594 33.062 38.466 44.502-19.284 10.598-118.041 42.6-133.928 48.32-15.895 5.72-73.3258 20.985-97.0521 19.076-26.0358-2.086-63.3608-36.453-45.3538-35.176 22.5784 1.59 37.3861-4.259 47.3644-6.997" stroke="#fff" stroke-width="1.6697" stroke-miterlimit="10" stroke-linecap="round" stroke-linejoin="round"/>
    <path d="M132.164 283.92s-5.414-13.641-12.614-17.669M139.785 264.559c-.442-.856-1.243-1.861-2.058-2.778M217.471 236.144c6.065 5.285 10.752 16.351 10.752 16.351M233.78 230.546c.591.693 1.548 1.943 1.576 1.99M151.95 284.137c1.58 0 2.86-1.59 2.86-3.552 0-1.963-1.28-3.553-2.86-3.553-1.579 0-2.859 1.59-2.859 3.553 0 1.962 1.28 3.552 2.859 3.552ZM247.549 251.632c1.579 0 2.859-1.591 2.859-3.553s-1.28-3.553-2.859-3.553c-1.58 0-2.86 1.591-2.86 3.553s1.28 3.553 2.86 3.553Z" stroke="#fff" stroke-width="1.6697" stroke-miterlimit="10" stroke-linecap="round" stroke-linejoin="round"/>
    <path d="M244.471 162.559c13.348-8.104 46.251-31.473 57.696-40.053l-57.696 40.053Z" fill="#000"/>
    <path d="M244.471 162.559c13.348-8.104 46.251-31.473 57.696-40.053M249.722 149.686c9.536-9.062 51.969-56.7436 54.354-63.4214M92.0742 157.41c9.0548 9.51 25.9608 10.57 30.0368 10.115 4.075-.455 7.696-6.793 7.696-6.793M176.607 175.229c-1.365 4.089-7.193-.537-12.743-.102-1.202.088-2.398.421-3.525 1.134-3.933 2.487-8.532 4.497-11.656 5.306-.842.217-1.651.394-2.439.53-2.472.455-4.686.55-6.663.428-.041 0-.088-.007-.129-.014-3.437-.217-6.147-1.08-8.28-1.848-3.777-1.358-5.584 1.06-6.793 2.867l-.659-.292c-1.107-2.649-2.88-4.891-6.588-5.407-2.833-.388-5.468-.761-7.995-1.135l-.91-.407c2.261-3.322 6.038-6.04 15.847-3.628 7.784 1.916 13.096 2.412 18.047.571-.04.231-.081.455-.136.686.055-.231.109-.462.163-.693 1.284-.483 2.541-1.114 3.818-1.923.652-.414 1.277-.89 1.881-1.399 3.098-2.582 5.76-6.1 9.204-7.486 1.311-.523 2.609-.795 3.872-.856 9.279-.455 16.784 10.366 15.684 13.668Z" stroke="#fff" stroke-width="1.6697" stroke-miterlimit="10" stroke-linecap="round" stroke-linejoin="round"/>
    <path d="M142.149 173.225c-.054.231-.109.462-.163.693.054-.231.095-.456.136-.687.006 0 .02-.006.027-.006Z" fill="#000" stroke="#fff" stroke-width="1.6697" stroke-miterlimit="10" stroke-linecap="round" stroke-linejoin="round"/>
    <path d="M125.676 189.494c-.638-1.922-1.1-4.211-1.956-6.256M89.0646 172.993c-.0406-.006-.0812-.02-.1217-.027" stroke="#fff" stroke-width="1.6697" stroke-miterlimit="10" stroke-linecap="round" stroke-linejoin="round"/>
  </g>
  <defs>
    <linearGradient id="a" x1=".0169" y1="40" x2="159.99" y2="40" gradientUnits="userSpaceOnUse">
      <stop stop-color="#68FFE0"/>
      <stop offset=".5729" stop-color="#B9C3FC"/>
      <stop offset="1" stop-color="#FF7EA7"/>
    </linearGradient>
    <linearGradient id="c" x1="142.008" y1="174.034" x2="142.101" y2="173.29" gradientUnits="userSpaceOnUse">
      <stop stop-color="#3FFFD8"/>
      <stop offset=".4888" stop-color="#B9C3FC"/>
      <stop offset="1" stop-color="#FF7EA7"/>
    </linearGradient>
    <linearGradient id="d" x1="171.12" y1="235.157" x2="189.56" y2="86.3793" gradientUnits="userSpaceOnUse">
      <stop stop-color="#3FFFD8"/>
      <stop offset=".4888" stop-color="#B9C3FC"/>
      <stop offset="1" stop-color="#FF7EA7"/>
    </linearGradient>
    <clipPath id="b">
      <path fill="#fff" transform="translate(19 71)" d="M0 0h362.504v224H0z"/>
    </clipPath>
  </defs>
</svg>
