<svg width="308" height="297" fill="none" xmlns="http://www.w3.org/2000/svg">
  <g clip-path="url(#a)">
    <path d="M97.4141 88.581c-.0649 1.6762-7.1461 8.4534-10.0603 2.0389-2.9181-6.4145 1.6041-10.7862 4.3732-9.7668 2.7691 1.0195 5.4962 5.586 5.6871 7.7279Z" fill="url(#b)"/>
    <path d="M87.1017 95.469c0 .882-1.2528 1.596-2.7996 1.596-1.5469 0-2.7997-.714-2.7997-1.596 0-.882 1.1879-1.7029 2.7806-1.0156 1.7149-.6873 2.8187.1375 2.8187 1.0156Z" stroke="#fff" stroke-width="1.3626" stroke-miterlimit="10" stroke-linecap="round" stroke-linejoin="round"/>
    <path d="M99.748 99.016s-.7868.42-2.009 1.05c-.7792.405-1.7341.897-2.7768 1.417v.003c-4.0256 2.02-9.3232 4.532-10.5759 4.403-1.8143.141-8.166-3.227-12.2986-5.544v-.004c-1.0045-.5614-1.8753-1.0654-2.5208-1.4396-.7371-.4276-1.1802-.691-1.1802-.691.9587-3.7495 2.3681-9.4385 3.3611-12.9359.4622-1.6113.8326-2.7567 1.0313-3.0355.6378-.8896 7.9596-5.5363 11.3971-6.4259 3.4375-.8935-1.9976 2.5009-1.4858 3.0125 4.7094-2.1649 6.7031-3.3943 7.7229-2.8865-2.9295 2.9285-2.9715 3.6501-1.9517 3.1385 1.0198-.5078 8.5708-3.1385 8.7006-1.7373-1.5277 1.3975-3.9913 1.8671-4.1173 3.0126 1.8868.6758 3.2236 1.6952 3.9875 2.5429.21.1069.485 1.153.7753 2.6688v.0039l.0038.0038c.8861 4.5856 1.9365 13.4437 1.9365 13.4437Z" stroke="#fff" stroke-width="1.3626" stroke-miterlimit="10" stroke-linecap="round" stroke-linejoin="round"/>
    <path d="M69.5668 98.9013c-4.7551.649-6.9666-5.2271-5.7635-6.6703.9205-1.1035 5.4733-4.914 7.9444-6.9567.0115-.0077.023-.0191.0344-.0267M97.7388 100.066c4.0452 1.726 7.9102-3.6236 7.3142-5.2922-.466-1.3058-4.908-6.5175-7.2417-9.2017l-.0038-.0038v-.0038M72.0879 100.341v.004l5.3319 9.091 3.5712 6.086M94.9622 101.482v.004l-2.7615 6.365-2.2954 7.289M76.0254 94.522c.3819.7636 3.0555 5.4714 7.7649 5.601 5.4732.256 8.2766-2.5465 9.4225-4.8374M91.5591 93.8843s2.4177.7636 2.6736 1.6532M77.3015 93.7163s-2.4177.7636-2.6736 1.6533" stroke="#fff" stroke-width="1.3626" stroke-miterlimit="10" stroke-linecap="round" stroke-linejoin="round"/>
    <path d="M72.3361 88.581c.275 1.7335 7.1461 8.4534 10.0603 2.0389 2.9181-6.4145-1.6041-10.7862-4.3732-9.7668-2.7691 1.0195-6.0271 4.7574-5.6871 7.7279Z" fill="url(#c)"/>
    <path d="M62.8828 141.386c2.4826-9.465 5.1982-19.461 5.6337-20.393.7371-1.577 5.2173-7.709 8.903-11.557M68.0049 159.591c2.8493 1.519 5.5152 2.978 6.5847 3.57 2.3031 1.271 2.1197 1.985 2.1579 3.394.1261 4.838-.7639 16.972 0 17.987.7639 1.02 2.2077-4.242 2.3337-4.624.1299-.381-.676 4.54.2139 5.052.8899.508 2.2076-4.54 2.2076-4.54s-.2559 5.09.634 5.09c.8938 0 .0879-21.592.2139-22.867.1299-1.272-7.8107-9.675-10.8662-11.71-2.8035-3.223 7.7267-32.497 7.7267-32.497" stroke="#fff" stroke-width="1.3626" stroke-miterlimit="10" stroke-linecap="round" stroke-linejoin="round"/>
    <path d="M74.5893 163.161s-9.2582 42.213.9281 82.685M94.7407 246.228c12.9863-26.345 5.7363-71.479 4.9844-81.017" stroke="#fff" stroke-width="1.3626" stroke-miterlimit="10" stroke-linecap="round" stroke-linejoin="round"/>
    <path d="M92.1971 117.431s11.8819 31.137 10.7779 33.599c-1.103 2.459-11.0338 15.273-11.0338 15.273-1.7837 2.673-1.4438 16.46 0 19.003.6378 0 .4659-4.07 1.1038-4.326.6378-.256 1.1878 4.074 1.6958 4.074.5118 0 .9778-3.52 1.3597-4.158.3819-.638.084 3.734 1.1038 4.158 1.9097.382-.4239-15.445-.1719-17.48.0612-.485 1.1191-1.325 2.6927-2.363.8899-.588 4.8549-3.635 8.5439-6.437 2.911-2.196 5.645-4.242 6.589-4.819 0 0-.569-1.527-1.459-3.917-.023-.058-.042-.115-.065-.176M110.702 142.81c-.061-.164-.122-.324-.18-.489-3.322-8.888-7.413-19.785-7.887-20.82-1.142-2.489-7.9555-10.221-10.4343-13.65" stroke="#fff" stroke-width="1.3626" stroke-miterlimit="10" stroke-linecap="round" stroke-linejoin="round"/>
    <path d="M79.444 90.9135c.8059-1.3134 1.3138-3.2683-.55-4.368-2.3757-1.2714-5.5153 1.1035-4.4993 2.1229 1.5277 2.2031 5.0493 2.2451 5.0493 2.2451ZM89.5236 91.0854c-.8059-1.3135-1.3139-3.2684.55-4.368 2.3757-1.2714 5.5152 1.1035 4.4993 2.1229-1.5278 2.2031-5.0493 2.2451-5.0493 2.2451Z" fill="#fff"/>
    <path d="M68.3335 248.722c3.4451 5.704 8.2271 10.248 7.8566 11.725-.5118 2.039-9.3843 2.272-10.9847 2.837-2.8875 1.016-2.3566 11.664 0 9.671 0 0 16.5954-9.304 16.9239-10.133.6798-1.695-6.8253-12.52-6.4854-16.594.2521-3.043 6.1798-13.573 9.8846-20.278M60.6064 176.815c.0039-.016.0039-.031.0077-.046.5653-3.146 1.0962-6.086 1.5736-8.709.0076-.05.0191-.1.0267-.149M101.883 250.421c-2.7614 3.112-6.5045 8.335-6.3784 10.485.6836.683 2.8034 1.336 5.1024 1.855" stroke="#fff" stroke-width="1.3626" stroke-miterlimit="10" stroke-linecap="round" stroke-linejoin="round"/>
    <path d="M110.118 269.347c.164 1.871-.348 3.628-1.753 4.246-5.348-1.019-15.4041-5.643-20.1593-9.545 1.8219-4.865 6.5351-17.438 6.5351-17.82-1.4056-1.405-7.6274-16.124-9.2125-20.278M108.269 158.774c.401 2.119.932 4.956 1.543 8.289" stroke="#fff" stroke-width="1.3626" stroke-miterlimit="10" stroke-linecap="round" stroke-linejoin="round"/>
    <path d="M51.3903 100.085c-1.86 1.382-9.3537 2.161-11.3819.206-.4621-.4425-.6989-1.0458-.7562-1.7254-.2483-2.7071 2.2917-6.6588 4.6635-6.9299 1.7608-.2024 4.0333 1.4814 5.6948 3.5547 0 .0038.0038.0038.0038.0076l1.776 4.887Z" fill="url(#d)"/>
    <path d="M24.689 99.6533c.2559 1.6957 8.6853 2.8407 10.977.6377 2.2916-2.207-.932-8.316-3.9035-8.6558-2.9715-.3398-6.5656 4.7956-7.0735 8.0181Z" fill="url(#e)"/>
    <path d="M27.4883 111.83c2.0319 3.619 5.3472 14.509 5.3472 14.509M28.2563 149.122c-.3819.889-2.8034 9.415-3.4375 12.47 1.1459.637 11.4583 9.293 11.4583 11.584 0 2.291-.2139 20.022-1.3597 19.766-1.1458-.252-.9319-9.205-.9319-9.205s-.5959 9.293-2.0396 9.037c-1.5583-.08.0153-8.678.126-9.259" stroke="#fff" stroke-width="1.3626" stroke-miterlimit="10" stroke-linecap="round" stroke-linejoin="round"/>
    <path d="M31.602 183.992s0 .004-.0038.012v.019c-.1223.584-1.9212 9.232-3.5215 8.495-1.2719-.507 2.7614-15.78 2.2496-17.819-4.3274-6.235-17.0575-11.454-20.2429-10.435-.126-2.928 6.2409-32.454 7.5128-33.474 3.5635-3.318 7.4708-7.239 12.2221-12.344" stroke="#fff" stroke-width="1.3626" stroke-miterlimit="10" stroke-linecap="round" stroke-linejoin="round"/>
    <path d="M18.4976 253.727c-2.5743-1.455-10.1138-4.807-14.3037-10.427 4.9232-15.273 15.0676-72.278 14.8995-76.86M58.9604 169.357c.0039.02.0115.039.0191.065.1605.615.7563 3.33 1.6271 7.392" stroke="#fff" stroke-width="1.3626" stroke-miterlimit="10" stroke-linecap="round" stroke-linejoin="round"/>
    <path d="M60.3008 175.394c3.9225 18.407 13.5436 62.045 14.0784 68.066-.3934.371-5.4274 4.647-5.924 5.09M68.3331 248.722c-3.0593 2.451-6.4357 4.845-8.7159 5.738-.3285.329-.6187.92-.8785 1.695-.7333 2.188-1.2145 5.846-1.5468 9.195-.2712 2.695-.4431 5.192-.5691 6.555-.0077.069-.0115.138-.0191.203.0114.011.0191.023.0305.034.6799.79 1.5354 1.432 2.5247 1.959.0076.004.0191.011.0305.015 1.4476.764 3.1816 1.283 5.0837 1.657 2.3375.462 4.9308.703 7.5662.916.1605-.252.3209-.465.4698-.645.0039-.004.0077-.007.0115-.011 2.6736-3.146 3.9073 3.982 4.2968 7.01.0993.775.1452 1.283.1452 1.283a7.75 7.75 0 0 1-.2979.053h-.0039c-3.7735.615-9.22-.508-14.2617-2.088-6.9169-2.161-13.0662-5.189-13.0662-5.77 0-.992.7677-12.29 1.5927-18.834.0038-.05.0115-.104.0191-.153.0153-.122.0306-.241.0458-.359-.9854-.424-1.925-1.092-2.8149-1.921-4.4611-4.161-7.6235-12.374-8.8992-13.859-2.8569 4.532-11.3208 14.493-11.3743 14.841v.007" stroke="#fff" stroke-width="1.3626" stroke-miterlimit="10" stroke-linecap="round" stroke-linejoin="round"/>
    <path d="M18.4977 253.728c.2559.904.5118 1.928.7562 3.024 1.2528 5.555 2.2916 12.859 2.5094 15.016-2.8875 3.395-10.1864 3.902-16.4656 4.41-1.9708-3.047-3.235-.744-3.9836 2.104-.676 2.547-.9396 5.533-.9396 5.533 8.8267 1.699 27.8818-5.766 27.8818-6.785 0-.035-.2139-3.815-.2177-3.872-.0573-1.523-.3362-10.385-.3362-16.918M25.9455 170.412c-8.9565 66.859 1.7608 85.171 1.7569 85.824v.004M54.6979 238.397c0-9.35 4.2625-43.84-.8097-66.409M54.6977 238.397c-1.5507 11.463-3.5635 18.121-3.9225 19.152-.0268.077-.0421.122-.0497.138l-.0038.004M42.6401 126.72s1.1038-4.768 3.449-9.682c.8746-1.833 1.8486-3.788 2.8798-5.693" stroke="#fff" stroke-width="1.3626" stroke-miterlimit="10" stroke-linecap="round" stroke-linejoin="round"/>
    <path d="M49.0071 91.4673c0 .0038 1.1306 4.5703 1.4552 5.4561.2903.7866.6073 1.6265.9282 2.4818 1.7607 4.7078 3.6704 9.9158 2.284 9.7098-.2521.126-.5004.252-.7448.37h-.0038a97.2784 97.2784 0 0 1-3.9569 1.86c-7.192 3.192-11.9281 4.303-11.9281 4.303-3.7927-1.306-8.0895-3.368-11.7256-5.025-.9587-.435-1.8753-.844-2.7233-1.203-.1069-.049-.2138-.091-.3208-.137-1.3024 0 .6608-6.147 2.601-11.111.2865-.7369.573-1.4471.8479-2.1077 0-.0038.0039-.0076.0077-.0152.0229-.0535.042-.1031.0649-.1528.741-1.7639 1.3903-3.1423 1.7417-3.6654M27.5303 92.231c2.3757-1.7831 9.7166-5.0056 6.577-16.7999 2.3757 0 3.3535 13.5774 3.4375 14.0012.084.4238.2559-3.9022 1.9517-13.5774-.6798 12.8137.9319 13.1306.5958 13.6385-.3399.5078.9969-14.8068 3.1205-14.1272-2.1236 12.4739 5.7941 16.1011 5.7941 16.1011" stroke="#fff" stroke-width="1.3626" stroke-miterlimit="10" stroke-linecap="round" stroke-linejoin="round"/>
    <path d="M22.5918 109.42c-7.5395 1.596-6.1645-5.578-5.244-6.498.9166-.916 7.6885-6.3229 8.4447-7.0254a.3142.3142 0 0 0 .0344-.0306l.0076-.0076M50.4619 96.9238c.3208.2482.6722.5155 1.0351.7942 2.6354 2.0122 6.0652 4.624 6.6458 5.204.9052.905 1.9746 7.885-5.2135 6.564h-.0039" stroke="#fff" stroke-width="1.3626" stroke-miterlimit="10" stroke-linecap="round" stroke-linejoin="round"/>
    <path d="M44.1678 100.715c1.5462 0 2.7996-1.2529 2.7996-2.7986s-1.2534-2.7987-2.7996-2.7987c-1.5462 0-2.7996 1.253-2.7996 2.7987 0 1.5457 1.2534 2.7986 2.7996 2.7986Z" fill="#000" stroke="#fff" stroke-width="1.3626" stroke-miterlimit="10" stroke-linecap="round" stroke-linejoin="round"/>
    <path d="M41.07 104.189c0 .882-1.2528 1.596-2.7997 1.596-1.5468 0-2.7996-.714-2.7996-1.596 0-.882 1.1878-1.702 2.7805-1.015 1.715-.691 2.8188.133 2.8188 1.015Z" stroke="#fff" stroke-width="1.3626" stroke-miterlimit="10" stroke-linecap="round" stroke-linejoin="round"/>
    <path d="M31.9456 100.715c1.5462 0 2.7997-1.2529 2.7997-2.7986s-1.2535-2.7987-2.7997-2.7987-2.7996 1.253-2.7996 2.7987c0 1.5457 1.2534 2.7986 2.7996 2.7986Z" fill="#000" stroke="#fff" stroke-width="1.3626" stroke-miterlimit="10" stroke-linecap="round" stroke-linejoin="round"/>
    <path d="M35.7651 109.921c2.5476-.256 8.5288-2.165 9.8045-4.326M35.001 97.9162c1.6118-.084 6.367 0 6.367 0M51.2985 148.228l4.5833 14.085s-12.478 9.843-12.7301 12.008c-.2559 2.161-.7219 18.495 1.1878 19.133 1.8219.603 1.4018-5.891 1.3598-6.491M46.0889 117.038c2.5361 2.176 9.1551 9.049 12.3405 12.611 1.1115.867 2.7424 5.815 4.4535 11.737 0 0 3.9798 15.712 5.1218 18.205" stroke="#fff" stroke-width="1.3626" stroke-miterlimit="10" stroke-linecap="round" stroke-linejoin="round"/>
    <path d="M45.6953 186.921c.0038.015.0038.027.0038.042 1.2795 9.37 3.4337 7.709 2.5438-.172 6.619 18.709.5079-8.27 1.1458-12.218 2.2382-1.802 5.8322-3.52 9.5905-5.15 1.0657-.466 2.1427-.921 3.2084-1.364 2.8722-1.21 5.6451-2.363 7.7839-3.455-.4583-.428-1.1458-2.318-1.967-5.013M44.5078 104.533c1.6958 1.188 2.1236 2.035 2.1236 2.035" stroke="#fff" stroke-width="1.3626" stroke-miterlimit="10" stroke-linecap="round" stroke-linejoin="round"/>
    <path d="M43.977 83.1934H33.6646v2.4169H43.977v-2.4169Z" fill="url(#f)"/>
    <path d="M36.0209 78.612c0-.1909-.699-4.5818.8288-5.4103 0 0 1.7837.2558 2.1656 5.8532M39.1338 78.5774c.0344-.1871.2903-4.6009 1.5621-5.2156 0 0 1.2719.4849.5653 6.048" stroke="#fff" stroke-width="1.3626" stroke-miterlimit="10" stroke-linecap="round" stroke-linejoin="round"/>
    <path d="M180.109 91.7688c-1.86 1.3822-9.354 2.1611-11.382.2062-.462-.4429-.699-1.0462-.757-1.7258-.248-2.7071 2.292-6.6589 4.664-6.9299 1.761-.2024 4.033 1.4814 5.695 3.5547 0 .0038.004.0038.004.0076l1.776 4.8872Z" fill="url(#g)"/>
    <path d="M153.407 91.3379c.256 1.6952 8.686 2.8407 10.977.6376 2.292-2.2031-.932-8.3159-3.903-8.6557-2.972-.3399-6.562 4.7956-7.074 8.0181Z" fill="url(#h)"/>
    <path d="M154.033 102.987c2.032 3.619 9.942 15.715 9.942 15.715M156.974 141.485c-.382.889-2.803 9.415-3.437 12.47 1.145.638 11.458 9.293 11.458 11.584 0 2.291-.214 20.023-1.36 19.767-1.146-.252-.932-9.206-.932-9.206s-.596 9.294-2.039 9.038c-1.44-.073-.203-7.434.076-9 .008-.049.019-.095.027-.133a.7185.7185 0 0 1 .011-.054c.004-.015.008-.026.008-.042 0-.011.004-.023.004-.03l.004-.016" stroke="#fff" stroke-width="1.3626" stroke-miterlimit="10" stroke-linecap="round" stroke-linejoin="round"/>
    <path d="m160.798 175.848-.004.016v.015c0 .007-.004.019-.008.03 0 .016-.004.027-.008.042-.003.016-.007.035-.011.054-.008.038-.019.084-.027.133-.336 1.57-1.986 8.92-3.468 8.236-1.272-.508 2.762-15.78 2.25-17.819-2.517-3.627-7.872-6.907-12.543-8.82-3.361-1.375-6.367-2.043-7.7-1.615-.034-.836.496-3.066 1.295-6.04.11-.401.225-.825.347-1.264.035-.119.069-.241.1-.367M143.48 139.263c.042-.149.081-.302.119-.451 1.489-5.815 2.845-11.721 3.067-14.89 3.563-3.318 7.727-7.587 12.478-12.692" stroke="#fff" stroke-width="1.3626" stroke-miterlimit="10" stroke-linecap="round" stroke-linejoin="round"/>
    <path d="M145.692 170.087c.519-4.762.959-8.985 1.287-12.352M186.891 162.229c.68 2.379 12.944 73.69 13.624 81.327-2.597 4.444-5.305 7.819-7.768 10.171-2.124 2.031-4.068 3.299-5.6 3.83-1.466 1.466-2.23 7.583-2.669 12.157M178.531 267.35c.29-2.791.634-5.861.978-8.48-5.939-2.543-10.187-13.997-11.714-15.78-1.333 2.123-3.9 5.433-6.253 8.388-2.742 3.437-5.198 6.396-5.118 6.461M149.488 266.457c.512 3.123.875 5.834.993 7.01-3.563 2.035-6.535 2.967-12.138 3.73-.523-.805-1.107-1.336-1.676-1.596" stroke="#fff" stroke-width="1.3626" stroke-miterlimit="10" stroke-linecap="round" stroke-linejoin="round"/>
    <path d="M156.424 257.938c0 6.533.275 15.395.333 16.919.003.057.003.103.003.137 0 1.02-16.037 9.756-19.945 8.652 0 0-1.084-.722-1.955-2.058M154.725 162.313c2.169 11.993-2.896 61.071-4.446 75.393M180.017 165.879s5.859 54.642 7.768 67.242c-18.279-3.509-30.918 4.139-37.04 7.964M170.85 118.363s1.612-4.048 3.957-8.962c.875-1.832 1.849-3.787 2.88-5.693" stroke="#fff" stroke-width="1.3626" stroke-miterlimit="10" stroke-linecap="round" stroke-linejoin="round"/>
    <path d="M178.328 86.8742c0 .0038.004.0038.004.0076.233.7025.523 1.5196.848 2.4054.29.7866.607 1.6266.928 2.4818 1.761 4.7078 3.671 9.916 2.284 9.71-.252.126-.5.252-.745.37h-.003a96.1253 96.1253 0 0 1-3.957 1.859c-7.192 3.192-11.928 4.303-11.928 4.303-3.793-1.305-8.09-3.367-11.726-5.024-.959-.436-1.875-.844-2.723-1.203-.107-.05-.214-.092-.321-.137-1.302 0 .661-6.1476 2.601-11.1112.286-.7369.573-1.4471.848-2.1077 0-.0038.004-.0076.008-.0152.022-.0535.042-.1031.064-.1527.741-1.764 1.391-3.1424 1.742-3.6655" stroke="#fff" stroke-width="1.3626" stroke-miterlimit="10" stroke-linecap="round" stroke-linejoin="round"/>
    <path d="M151.31 101.784c-7.539 1.596-6.164-5.5786-5.244-6.4987.917-.9164 7.689-6.3229 8.445-7.0254a.2711.2711 0 0 0 .034-.0306l.008-.0076M179.18 89.2871c.321.2482.672.5155 1.035.7942 2.636 2.0121 6.065 4.6238 6.646 5.2041.905.9049 1.975 7.8846-5.213 6.5636h-.004M169.788 96.5532c0 .882-1.253 1.596-2.799 1.596-1.547 0-2.8-.714-2.8-1.596 0-.882 1.188-1.7029 2.781-1.0156 1.714-.6911 2.818.1336 2.818 1.0156ZM180.017 140.592l4.583 14.085s-12.478 9.843-12.73 12.008c-.256 2.161-.722 18.495 1.188 19.133 1.822.603 1.402-5.892 1.36-6.491" stroke="#fff" stroke-width="1.3626" stroke-miterlimit="10" stroke-linecap="round" stroke-linejoin="round"/>
    <path d="M174.807 109.401c2.273 3.589 8.326 10.695 10.939 12.738.619.485 1.466 2.241 2.433 4.727 3.422 8.774 8.364 26.631 10.236 29.732 0 .003.004.003.004.003.099.168.191.291.271.367-.256.13-.52.263-.795.393-2.203 1.073-4.934 2.196-7.719 3.368-4.602 1.936-9.342 4.013-12.069 6.208-.638 3.948 5.473 30.927-1.146 12.218.89 7.881-1.264 9.542-2.544.172 0-.015 0-.027-.003-.042M166.523 104.693c-5.264-.168-2.548-4.7839 0-4.9557 2.883.1718 6.79 5.4637 0 4.9557Z" stroke="#fff" stroke-width="1.3626" stroke-miterlimit="10" stroke-linecap="round" stroke-linejoin="round"/>
    <path d="M172.802 91.2955c1.531 0 4.778.1489 4.415-1.6112-.508-2.4589-2.716-3.8182-5.263-2.1229-1.952 2.2069-.34 3.7341.848 3.7341Z" fill="#fff" stroke="#fff" stroke-width="1.3626" stroke-miterlimit="10" stroke-linecap="round" stroke-linejoin="round"/>
    <path d="M173.78 90.9134c.867 0 1.57-.7026 1.57-1.5692 0-.8667-.703-1.5693-1.57-1.5693-.867 0-1.57.7026-1.57 1.5693 0 .8666.703 1.5692 1.57 1.5692Z" fill="#000"/>
    <path d="M160.629 91.2955c-1.531 0-4.778.1489-4.415-1.6112.508-2.4589 2.716-3.8182 5.263-2.1229 1.956 2.2069.34 3.7341-.848 3.7341Z" fill="#fff" stroke="#fff" stroke-width="1.3626" stroke-miterlimit="10" stroke-linecap="round" stroke-linejoin="round"/>
    <path d="M159.655 90.9134c.867 0 1.57-.7026 1.57-1.5692 0-.8667-.703-1.5693-1.57-1.5693-.867 0-1.57.7026-1.57 1.5693 0 .8666.703 1.5692 1.57 1.5692Z" fill="#000" stroke="#fff" stroke-width=".3489" stroke-miterlimit="10" stroke-linecap="round" stroke-linejoin="round"/>
    <path d="M156.336 83.957c.382-2.035 8.021-7.8921 10.439-7.2545 2.418.6377 5.416 1.0119 11.557 10.1792" stroke="#fff" stroke-width="1.3626" stroke-miterlimit="10" stroke-linecap="round" stroke-linejoin="round"/>
    <path d="M166.011 78.7378c-2.418-1.1454-5.603-1.2714-3.564-4.0739 2.036-2.7987 3.564-3.4364 3.564-3.4364v7.5103ZM166.125 78.7378c2.418-1.1454 5.604-1.2714 3.564-4.0739-2.036-2.7987-3.564-3.4364-3.564-3.4364v7.5103Z" stroke="#fff" stroke-width="1.3626" stroke-miterlimit="10" stroke-linecap="round" stroke-linejoin="round"/>
    <path d="M166.431 72.953c-2.654.3321-5.408 1.9358-5.194-1.5197.214-3.4554 1.157-4.8146 1.157-4.8146l4.037 6.3343ZM166.527 72.8919c1.425-2.2641 4.041-4.0816.817-5.3492-3.223-1.2676-4.854-.9813-4.854-.9813l4.037 6.3305Z" stroke="#fff" stroke-width="1.3626" stroke-miterlimit="10" stroke-linecap="round" stroke-linejoin="round"/>
    <path d="M164.132 67.451c-1.944 1.8404-3.216 4.7613-5.088 1.848-1.871-2.9132-1.917-4.5627-1.917-4.5627l7.005 2.7147ZM164.17 67.348c-.191-2.6689.84-5.6814-2.506-4.7956-3.349.8858-4.495 2.077-4.495 2.077l7.001 2.7186Z" stroke="#fff" stroke-width="1.3626" stroke-miterlimit="10" stroke-linecap="round" stroke-linejoin="round"/>
    <path d="M156.944 64.8053c-3.632 2.9209-8.853 1.1073-9.106.2825-.252-.8285-1.382-7.9303 9.946-.1565" stroke="#fff" stroke-width="1.3626" stroke-miterlimit="10" stroke-linecap="round" stroke-linejoin="round"/>
    <path d="M139.703 136.182c-.764 4.41-9.335 1.867-9.335 1.867-.34-2.463-.851-7.808 2.968-8.06 3.819-.256 5.519 2.714 6.367 6.193Z" fill="url(#i)"/>
    <path d="M125.468 138.049s-8.571 2.543-9.335-1.867c.848-3.479 2.544-6.449 6.363-6.193 3.82.252 3.312 5.597 2.972 8.06Z" fill="url(#j)"/>
    <path d="M121.752 137.766c1.274 0 2.307-1.032 2.307-2.306s-1.033-2.306-2.307-2.306-2.307 1.032-2.307 2.306 1.033 2.306 2.307 2.306ZM134.096 137.766c1.274 0 2.307-1.032 2.307-2.306s-1.033-2.306-2.307-2.306-2.307 1.032-2.307 2.306 1.033 2.306 2.307 2.306Z" fill="#000"/>
    <path d="M130.536 140.099c0 .882-1.253 1.596-2.799 1.596-1.547 0-2.804-.714-2.804-1.596 0-.882 1.192-1.703 2.781-1.016 1.718-.687 2.822.134 2.822 1.016ZM136.839 150.129h-.005M130.028 163.206s2.846-5.918 4.87-9.534M118.941 150.496h-.004M119.765 152.989c1.513 4.49 3.556 10.172 3.556 10.172M113.788 148.32c-.011-.004-.023-.012-.035-.016M118.624 150.366c.106.046.21.088.313.13h.004M132.256 151.6h-.005M147.513 146.701s-.168-.313-.466-.859M131.304 123.059c.088-.027.176-.035.271-.027.745 1.195 1.505 2.49 1.803 2.997M129.031 121.142c.283-.424.531-.683.699-.657-.84 1.119-.45 3.807-.179 5.166M126.545 125.178c-.046-.993-.268-2.322-1.1-2.268M116.335 129.462c.02-.046.027-.069.027-.069.077-.023.153-.046.226-.069" stroke="#fff" stroke-width="1.3626" stroke-miterlimit="10" stroke-linecap="round" stroke-linejoin="round"/>
    <path d="M113.788 148.32c-.011.084-.023.164-.034.24-.111.668-.245 1.134-.42 1.302-.008.008-.02.015-.027.023-.271.21-.726.241-1.245.134h-.008c-.008-.004-.011-.004-.019-.008-1.196-.489-2.586-1.363-3.071-2.509-.004-.003-.004-.007-.004-.011-.103-.443-.034-.913.271-1.382.486-1.065.978-2.176 1.471-3.299 1.138-2.596 2.265-5.246 3.212-7.495.034.84.378 9.419-.126 13.005ZM139.352 201.026c-.665.492-1.291.969-1.857 1.42-1.627 1.302-2.75 2.409-2.799 3.142-.168 2.543-.508 11.879-.34 12.894.172 1.02-1.612.554-1.868-5.173-.382 4.452.042 5.555-1.23 5.429-.389-.13-.557-.764-.611-1.546-.176 1.248-.489 2.26-1.043 1.928-1.275-.764-.511-14.723-.511-14.723s7.214-11.115 11.374-18.495c-1.612-6.533-3.056-14.765-3.056-14.765M123.31 213.561s.336 2.1.229 3.631c-.229-1.615-.229-3.631-.229-3.631ZM113.658 189.674c1.566-6.113 2.872-17.518 2.872-17.518" stroke="#fff" stroke-width="1.3626" stroke-miterlimit="10" stroke-linecap="round" stroke-linejoin="round"/>
    <path d="M113.8 189.701c-.004-.008-.004-.019-.004-.027 5.534 5.468 11.294 14.723 11.294 14.723s.764 13.959-.508 14.723c-.554.332-.867-.68-1.043-1.929-.053.783-.221 1.417-.611 1.547-1.276.126-.852-.978-1.234-5.43-.252 5.728-2.035 6.193-1.867 5.174.172-1.016-.168-10.351-.336-12.894-.058-.863-1.62-2.257-3.736-3.872m16.775-50.697c-.092.195-.183.389-.275.58l4.58-1.47c-.493.947-1.188 2.207-1.937 3.544 2.884 4.161 9.545 13.344 10.324 14.665.023.042.05.096.073.164.011.023.019.046.026.073.107.309.233.828.371 1.512.049.244.099.508.153.79.034.187.072.386.106.588l.012.069c.023.118.046.24.065.366.206 1.169.431 2.543.672 4.021.034.221.069.443.107.668.092.558.183 1.13.279 1.707.042.256.084.515.122.771.195 1.176.393 2.367.592 3.524.038.21.073.42.111.626.034.214.072.424.111.63.049.279.099.55.149.821.347 1.887.695 3.597 1.038 4.907.023.095.046.187.073.275.023.091.05.179.073.263.022.088.049.168.072.248.023.084.046.161.073.237.107.34.21.634.317.87.023.058.049.115.072.165.058.114.115.213.168.294-.771 1.573-3.303 3.642-6.099 5.723m-21.42-46.215c.092.214.184.424.275.634-.767-.305-2.203-.882-3.872-1.573.236.748.519 1.596.825 2.493-2.151 3.139-7.742 10.867-9.954 14.074-.42.607-.718 1.054-.848 1.275-.848 1.443-3.139 21.126-4.839 23.589.733 1.496 3.052 3.432 5.676 5.402m11.045 66.803c.673-2.345 5.309-8.992 6.249-9.809.943.836 5.576 7.468 6.241 9.809h-12.49Z" stroke="#fff" stroke-width="1.3626" stroke-miterlimit="10" stroke-linecap="round" stroke-linejoin="round"/>
    <path d="M125.262 286.533c-1.708 1.172-18.975 7.945-20.274 7.636-3.567-.852-.34-10.183 3.056-8.488 5.569 2.784 11.783-2.543 11.783-2.543s-1.937-8.316-2.445-11.202c-1.046-.73-3.307-1.394-7.264-2.589-2.479-.748-5.619-1.703-9.541-3.009-.073-.832-.057-2.05.03-3.577.176-3.059.642-7.369 1.276-12.341 2.368-18.563 7.1-46.386 7.918-53.091 1.279.962 2.628 1.932 3.899 2.856.306.222.604.443.894.657.401.298.791.588 1.161.874 2.594 16.609 4.48 31.912 3.178 34.841-1.543 1.489-3.113 2.879-4.625 4.142.974 12.44 2.902 22.951 6.539 23.432-.68 2.375 7.13 20.534 4.415 22.402ZM127.13 254.289a.1239.1239 0 0 0-.035.034M119.231 142.436c-.035-.107-.065-.206-.096-.29M129.345 157.114l.012-.016c-.004 0-.008.008-.012.016Zm0 0c0-.004 0-.004 0 0ZM129.356 157.094c1.001-1.268 2.082-3.238 3.078-5.334l-3.078 5.334ZM132.454 151.722c-.008.015-.012.027-.019.043l.023-.043h-.004ZM125.796 157.334l-2.78-5.143c.905 2.073 1.875 3.975 2.78 5.143Z" stroke="#fff" stroke-width="1.3626" stroke-miterlimit="10" stroke-linecap="round" stroke-linejoin="round"/>
    <path d="M128.986 152.046c0 1.554-.088 3.013-.252 4.261v.004c-.313 2.474-.89 4.135-1.551 4.135-.642 0-1.207-1.561-1.528-3.913-.175-1.298-.279-2.837-.279-4.487M152.861 263.96c-.18.179-.359.351-.546.515a9.058 9.058 0 0 1-.352.302c-.042.038-.084.072-.126.103-.141.118-.282.233-.431.34-.138.107-.283.21-.424.309-.485.34-.986.649-1.494.928-.141.08-.286.16-.431.233-.283.145-.566.286-.852.42-.153.072-.306.141-.458.206-.146.065-.294.13-.443.187-.146.065-.291.122-.44.179-.294.119-.588.229-.882.336-.202.077-.405.145-.603.214-.172.061-.34.119-.505.172-.546.183-1.088.355-1.611.519-.23.073-.459.142-.684.214-.199.061-.397.122-.592.187-.145.046-.29.092-.432.138-.019.007-.038.011-.053.019-.08.026-.161.053-.241.08-.63.21-1.214.424-1.745.657-.119.049-.233.103-.344.156-.344.164-.661.336-.94.527-.064.046-.133.092-.194.141-.027.016-.05.035-.073.054-.065.049-.126.095-.183.149-.069.057-.138.118-.199.183-.004.053-.007.111-.015.172-.012.114-.031.244-.05.378-.011.072-.023.141-.034.217-.077.443-.191.97-.332 1.547-.027.118-.058.24-.088.363-.042.175-.088.355-.138.538-.027.103-.053.206-.084.313a.497.497 0 0 1-.019.076c-.05.187-.103.378-.156.569-.44 1.6-.963 3.322-1.402 4.719-.069.214-.134.42-.195.615-.004.019-.011.035-.019.054-.031.107-.065.21-.099.309-.031.099-.062.195-.092.29-.099.313-.187.588-.264.817a3.12 3.12 0 0 1-.068.206c-.05.161-.092.291-.123.378-.007.016-.011.031-.015.046-.023.069-.034.103-.034.103s8.318 3.395 11.714 2.883c5.599-1.527 5.431 7.426 4.071 10.011-3.563.852-18.501-7.636-21.216-9.499-2.716-1.867 5.091-20.027 4.411-22.401 3.01.114 4.679-6.965 5.561-16.483-1.558-1.822-2.933-3.75-3.777-5.579 1.367-4.246 3.009-13.562 4.648-24.722-.084-7.392-.302-13.524-.416-16.323.928-.691 1.932-1.413 2.937-2.146.557-.408 1.119-.821 1.669-1.229.03.183.072.416.118.687.019.115.038.237.061.367.21 1.237.535 3.146.932 5.54.038.237.08.477.119.721.126.749.256 1.535.393 2.364.023.149.05.298.073.45.21 1.28.435 2.643.668 4.078.034.229.073.458.111.691.038.245.08.489.118.737.038.225.073.451.111.676.305 1.909.626 3.914.951 5.987.042.26.084.519.122.779.416 2.657.84 5.414 1.261 8.19.065.431.129.866.191 1.302.213 1.416.424 2.837.63 4.249l.114.814c.119.813.233 1.622.348 2.424v.004c.088.622.172 1.237.256 1.852.072.511.141 1.019.21 1.523.011.073.023.145.03.218.107.786.21 1.561.314 2.329.087.676.175 1.344.263 2.004.023.203.05.401.077.604.149 1.195.294 2.363.427 3.493.061.516.123 1.024.18 1.524.118 1.08.233 2.119.332 3.108.015.145.031.286.042.424.019.168.035.336.05.5.023.233.046.462.065.691.03.313.057.622.084.924.053.626.099 1.229.141 1.798.015.187.027.367.038.546l.012.195c.015.244.03.481.042.714.023.416.038.809.053 1.18.004.118.004.233.008.347.023.916.007 1.68-.042 2.276Z" stroke="#fff" stroke-width="1.3626" stroke-miterlimit="10" stroke-linecap="round" stroke-linejoin="round"/>
    <path d="M149.057 266.69c-.283.149-.565.29-.852.42M146.864 267.683c-.294.118-.588.233-.882.336M138.232 270.901a2.618 2.618 0 0 0-.194.142M137.782 271.245c-.069.057-.134.118-.199.183M137.568 271.6c-.012.115-.027.244-.05.378-.011.069-.023.141-.034.218M127.097 254.325c-.012-.016-.028-.024-.04-.036M151.089 243.632c-.1-.768-.207-1.547-.314-2.329M113.914 135.315c-.004-.042-.004-.065-.004-.065M108.964 147.502c.286 1.234 1.86 2.257 3.09 2.517" stroke="#fff" stroke-width="1.3626" stroke-miterlimit="10" stroke-linecap="round" stroke-linejoin="round"/>
    <path d="M147.048 145.842c0-.004-.004-.012-.008-.019-.695-1.295-2.082-3.857-3.56-6.56-2.238-4.101-4.694-8.53-5.305-9.362-1.356-.932-4.667-3.646-4.667-3.646s-.046-.081-.13-.226c-.161-.133-.279-.244-.336-.324-.375-.508-1.158-2.051-1.738-2.646-1.134.324-1.574 3.406-1.574 3.406s-.08-.317-.179-.814c-.134.256-.245.371-.329.222-.282-.493-.183-3.555-.191-4.731-1.012 1.504-2.482 5.071-2.482 5.071s.03-.459-.004-1.035c-.18.397-.294.653-.294.653-.069-.905-.134-2.44-.806-2.921-.126.004-.267.042-.424.122-1.062 1.497-4.572 5.071-8.429 6.289 0 0 0 .003-.004.003-.103.054-.187.103-.252.138-.172.42-1.127 2.76-2.422 5.853.034.84.378 9.419-.126 13.005 1.57.691 3.289 1.412 4.835 2.046 1.444.401 2.869.787 3.915 1.069-.13-.313-.263-.63-.393-.95-.092-.226-.183-.451-.271-.676a8.0869 8.0869 0 0 1-.111-.279c-.042-.107-.084-.21-.126-.317-.16-.405-.313-.809-.462-1.206-.004-.012-.008-.02-.008-.027-.107-.283-.21-.558-.309-.832a111.4955 111.4955 0 0 1-.558-1.554c-.198-.558-.378-1.077-.535-1.543-.057-.168-.11-.325-.16-.473-.057-.176-.111-.34-.164-.497-.035-.111-.069-.217-.103-.317-.038-.114-.073-.225-.107-.328-.038-.107-.069-.206-.096-.29-.091-.29-.141-.451-.141-.451 1.004.645 5.515 2.199 7.559 3.28.378.199.672.382.844.538l.859-.359c2.131-.889 7.528-3.134 7.799-3.203.012-.004.016.019.008.061 0 .012-.004.031-.008.05-.015.088-.053.229-.11.416-.016.053-.035.107-.054.168-.26.836-.81 2.344-1.52 4.112-.073.183-.149.367-.225.557-.295.718-.615 1.47-.951 2.23-.1.229-.199.458-.306.688-.118.263-.237.523-.359.786l8.491-2.57c.24-.87.496-1.805.76-2.783.145 1.039.324 1.974.553 2.696.023.08.05.156.077.233.061.171.122.324.187.465l.004.004c1.673 2.031 4.201.271 4.785-.183.096-.153.172-.317.23-.489.061-.569-.157-1.458-.569-2.55Zm-30.915-9.66c.848-3.479 2.544-6.449 6.363-6.193 3.82.252 3.312 5.597 2.972 8.06 0 0-8.571 2.543-9.335-1.867Zm11.604 5.513c-1.547 0-2.804-.714-2.804-1.596 0-.882 1.192-1.703 2.781-1.015 1.718-.688 2.822.133 2.822 1.015 0 .882-1.253 1.596-2.799 1.596Zm2.631-3.646c-.34-2.463-.852-7.808 2.968-8.06 3.819-.256 5.519 2.714 6.367 6.193-.764 4.41-9.335 1.867-9.335 1.867Z" stroke="#fff" stroke-width="1.3626" stroke-miterlimit="10" stroke-linecap="round" stroke-linejoin="round"/>
    <path d="M141.254 135.312s-.061 6.055.527 10.354M142.602 149.064c.149.325.313.561.497.695 1.352.989 3.468.462 4.289-.878M147.598 146.854c.179.565.168 1.084.019 1.538M139.352 201.026v-.005" stroke="#fff" stroke-width="1.3626" stroke-miterlimit="10" stroke-linecap="round" stroke-linejoin="round"/>
    <path d="M92.9286 89.2452c.08-.9117-.528-1.7098-1.3581-1.7826-.83-.0728-1.5678.6072-1.6478 1.5189-.08.9117.528 1.7098 1.3581 1.7826.83.0728 1.5678-.6072 1.6478-1.5189ZM79.0946 89.1216c.08-.9117-.528-1.7097-1.3581-1.7825-.83-.0728-1.5678.6072-1.6478 1.5189-.08.9117.528 1.7098 1.3581 1.7826.83.0728 1.5678-.6073 1.6478-1.519Z" fill="#000"/>
    <path d="M184.478 269.714c-.168 1.772-.29 3.314-.386 4.261 2.632 1.527 7.341 3.944 10.61 4.242 5.772-4.242 4.244 7.297 4.244 7.297-8.827 1.699-21.133-8.992-21.133-10.012 0-.603.298-4.077.718-8.151" stroke="#fff" stroke-width="1.3626" stroke-miterlimit="10" stroke-linecap="round" stroke-linejoin="round"/>
    <path d="M192.212 254.228c4.954 3.272 10.958 5.528 17.195 7.071 19.036 4.708 40.222 2.776 40.222 2.776s-10.935 7.75-45.665 8.3c-7.654.122-14.101-.931-19.486-2.661M178.531 267.35c-9.797-4.703-14.976-11.622-16.989-15.872l-.003-.003" stroke="#fff" stroke-width="1.3626" stroke-miterlimit="10" stroke-linecap="round" stroke-linejoin="round"/>
  </g>
  <path fill-rule="evenodd" clip-rule="evenodd" d="M188 0h120v20h-20v20H148v20h-20V20h40V0h20Zm-60 60v20h-20V60h20Z" fill="url(#k)"/>
  <path d="m181.857 11.8-4.096-8h1.28l3.392 6.72h.032l2.88-6.72h1.216l-4.88 11.2h-1.216l1.392-3.2Zm7.413-1.008L186.966 7h1.184l1.968 3.36h1.44V7h1.056v3.36h1.44L196.022 7h1.184l-2.304 3.792L197.366 15h-1.216l-2.096-3.68h-1.44V15h-1.056v-3.68h-1.44L188.022 15h-1.216l2.464-4.208Zm12.581 4.32c-.512 0-.981-.0853-1.408-.256-.426-.1707-.789-.416-1.088-.736-.298-.3307-.533-.7307-.704-1.2-.16-.48-.24-1.0293-.24-1.648v-.544c0-.608.08-1.152.24-1.632.171-.48.406-.88.704-1.2.31-.3307.672-.5813 1.088-.752.427-.1707.896-.256 1.408-.256.512 0 .982.0853 1.408.256.427.1707.79.4213 1.088.752.299.3307.528.7413.688 1.232.171.48.256 1.04.256 1.68v.48h-5.792c0 .928.203 1.6373.608 2.128.406.4907.987.736 1.744.736 1.142 0 1.899-.464 2.272-1.392h1.088c-.192.768-.576 1.3547-1.152 1.76-.565.3947-1.301.592-2.208.592Zm0-7.264c-.682 0-1.232.2187-1.648.656-.416.4267-.65 1.056-.704 1.888h4.704c-.053-.864-.293-1.504-.72-1.92-.416-.416-.96-.624-1.632-.624ZM211.532 7h1.056v3.44h4.448V7h1.056v8h-1.056v-3.6h-4.448V15h-1.056V7Zm12.241 8.112c-.512 0-.981-.0853-1.408-.256-.427-.1707-.789-.416-1.088-.736-.299-.3307-.533-.7307-.704-1.2-.16-.48-.24-1.0293-.24-1.648v-.544c0-.608.08-1.152.24-1.632.171-.48.405-.88.704-1.2a3.0657 3.0657 0 0 1 1.088-.752c.427-.1707.896-.256 1.408-.256.512 0 .981.0853 1.408.256.427.1707.789.4213 1.088.752.299.3307.528.7413.688 1.232.171.48.256 1.04.256 1.68v.48h-5.792c0 .928.203 1.6373.608 2.128.405.4907.987.736 1.744.736 1.141 0 1.899-.464 2.272-1.392h1.088c-.192.768-.576 1.3547-1.152 1.76-.565.3947-1.301.592-2.208.592Zm0-7.264c-.683 0-1.232.2187-1.648.656-.416.4267-.651 1.056-.704 1.888h4.704c-.053-.864-.293-1.504-.72-1.92-.416-.416-.96-.624-1.632-.624Zm11.313.112h-2.672V7h6.4v.96h-2.672V15h-1.056V7.96Zm8.062 7.152c-.512 0-.981-.0853-1.408-.256-.427-.1707-.789-.416-1.088-.736-.299-.3307-.533-.7307-.704-1.2-.16-.48-.24-1.0293-.24-1.648v-.544c0-.608.08-1.152.24-1.632.171-.48.405-.88.704-1.2a3.0657 3.0657 0 0 1 1.088-.752c.427-.1707.896-.256 1.408-.256.512 0 .981.0853 1.408.256.427.1707.789.4213 1.088.752.299.3307.528.7413.688 1.232.171.48.256 1.04.256 1.68v.48h-5.792c0 .928.203 1.6373.608 2.128.405.4907.987.736 1.744.736 1.141 0 1.899-.464 2.272-1.392h1.088c-.192.768-.576 1.3547-1.152 1.76-.565.3947-1.301.592-2.208.592Zm0-7.264c-.683 0-1.232.2187-1.648.656-.416.4267-.651 1.056-.704 1.888h4.704c-.053-.864-.293-1.504-.72-1.92-.416-.416-.96-.624-1.632-.624ZM248.829 7h.832l.128 1.2h.032c.352-.4587.741-.7893 1.168-.992.426-.2133.928-.32 1.504-.32.469 0 .901.0853 1.296.256.394.16.73.4053 1.008.736.288.32.512.72.672 1.2.16.48.24 1.0293.24 1.648v.544c0 .6187-.08 1.168-.24 1.648-.16.4693-.384.8693-.672 1.2-.288.32-.63.5653-1.024.736-.395.1707-.822.256-1.28.256-1.152 0-2.011-.4107-2.576-1.232h-.032v4.32h-1.056V7Zm3.424 7.152c.704 0 1.274-.2347 1.712-.704.437-.48.656-1.2053.656-2.176v-.544c0-.9493-.224-1.664-.672-2.144-.438-.4907-1.003-.736-1.696-.736-.704 0-1.275.24-1.712.72-.438.4693-.656 1.1893-.656 2.16v.544c0 .9493.218 1.6693.656 2.16.448.48 1.018.72 1.712.72ZM257.954 7h6.24v8h-1.056V7.96h-4.128V15h-1.056V7Zm8.953 0h1.056v6.8h.032l4-6.8h1.472v8h-1.056V8.2h-.032l-4 6.8h-1.472V7Zm10.913.96h-2.672V7h6.4v.96h-2.672V15h-1.056V7.96Zm7.983 7.152c-.502 0-.96-.08-1.376-.24-.416-.1707-.774-.4213-1.072-.752-.288-.3307-.512-.7413-.672-1.232-.16-.4907-.24-1.056-.24-1.696v-.544c0-.5973.08-1.1253.24-1.584.17-.4693.4-.864.688-1.184.298-.32.65-.5653 1.056-.736.416-.1707.874-.256 1.376-.256.469 0 .89.064 1.264.192.373.1173.693.288.96.512.266.2133.48.464.64.752.16.2773.272.576.336.896h-1.088c-.118-.3947-.336-.7253-.656-.992-.32-.2667-.779-.4-1.376-.4-.683 0-1.248.24-1.696.72-.438.48-.656 1.1733-.656 2.08v.544c0 .9813.224 1.7227.672 2.224.448.4907 1.008.736 1.68.736.597 0 1.056-.1387 1.376-.416.32-.2773.538-.656.656-1.136h1.088c-.064.3627-.176.6987-.336 1.008-.16.2987-.374.56-.64.784-.267.224-.587.4-.96.528-.374.128-.795.192-1.264.192Zm6.35-3.312c-.544-.1813-.939-.464-1.184-.848-.246-.384-.368-.864-.368-1.44 0-.8.245-1.4187.736-1.856.501-.4373 1.322-.656 2.464-.656h2.56v8h-1.056v-2.976h-1.824c-.096 0-.192-.0053-.288-.016L291.497 15h-1.216l1.872-3.2Zm-.464-2.288c0 .5013.16.8853.48 1.152.32.2667.89.4 1.712.4h1.424V7.96h-1.424c-.822 0-1.392.1333-1.712.4-.32.2667-.48.6507-.48 1.152ZM136.704 27h6.24v8h-1.056v-7.04h-4.128V35h-1.056v-8Zm11.993 8.112c-1.077 0-1.936-.3307-2.576-.992-.629-.6613-.944-1.6107-.944-2.848v-.544c0-.608.08-1.152.24-1.632.171-.48.411-.88.72-1.2.309-.3307.677-.5813 1.104-.752.437-.1707.923-.256 1.456-.256 1.077 0 1.931.3307 2.56.992.64.6613.96 1.6107.96 2.848v.544c0 .608-.085 1.152-.256 1.632-.16.48-.395.8853-.704 1.216-.309.32-.683.5653-1.12.736-.427.1707-.907.256-1.44.256Zm0-.96c.736 0 1.323-.24 1.76-.72.448-.48.672-1.2.672-2.16v-.544c0-.9493-.224-1.664-.672-2.144-.448-.4907-1.035-.736-1.76-.736-.736 0-1.328.24-1.776.72-.437.48-.656 1.2-.656 2.16v.544c0 .9493.224 1.6693.672 2.16.448.48 1.035.72 1.76.72Zm4.561 0h.24c.33 0 .586-.112.768-.336.181-.224.314-.5493.4-.976.096-.4267.149-.944.16-1.552.021-.608.032-1.2907.032-2.048V27h5.44v8h-1.056v-7.04h-3.328v1.28c0 .864-.016 1.6533-.048 2.368-.022.7147-.112 1.3333-.272 1.856-.15.5227-.39.928-.72 1.216-.32.288-.779.432-1.376.432h-.24v-.96ZM165.4 35l-3.344-8h1.152l2.736 6.688h.032L168.488 27h1.088l-4.32 11.2h-1.088L165.4 35Zm8.645-2.72c-1.067 0-1.84-.2293-2.32-.688-.48-.4587-.72-1.168-.72-2.128V27h1.056v2.4c0 .704.144 1.2.432 1.488.299.288.816.432 1.552.432.405 0 .779-.0267 1.12-.08.341-.064.629-.1227.864-.176V27h1.056v8h-1.056v-2.976c-.235.0533-.523.112-.864.176-.341.0533-.715.08-1.12.08Zm5.753-5.28h1.056v6.8h.032l4-6.8h1.472v8h-1.056v-6.8h-.032l-4 6.8h-1.472v-8Zm10.913.96h-2.672V27h6.4v.96h-2.672V35h-1.056v-7.04Zm5.415-.96h1.056v2.88h1.824c1.034 0 1.797.2293 2.288.688.501.4587.752 1.0827.752 1.872 0 .7787-.251 1.4027-.752 1.872-.502.4587-1.264.688-2.288.688h-2.88v-8Zm1.056 3.84v3.2h1.744c.736 0 1.258-.1387 1.568-.416.309-.2773.464-.672.464-1.184 0-.512-.16-.9067-.48-1.184-.31-.2773-.827-.416-1.552-.416h-1.744Zm10.867-7.04h3.52c1.28 0 2.214.2667 2.8.8.587.5227.88 1.248.88 2.176 0 .5547-.133 1.0347-.4 1.44-.256.4053-.629.72-1.12.944v.032c.608.2133 1.067.5493 1.376 1.008.31.448.464 1.0027.464 1.664 0 1.0133-.293 1.792-.88 2.336-.586.5333-1.52.8-2.8.8h-3.84V23.8Zm1.12 1.024v3.904h2.32c.939 0 1.606-.1707 2-.512.406-.352.608-.832.608-1.44s-.202-1.0827-.608-1.424c-.394-.352-1.061-.528-2-.528h-2.32Zm0 4.928v4.224h2.64c.939 0 1.606-.176 2-.528.406-.3627.608-.8907.608-1.584s-.202-1.216-.608-1.568c-.394-.3627-1.061-.544-2-.544h-2.64Zm10.802 5.36c-.885 0-1.546-.2027-1.984-.608-.437-.416-.656-.9867-.656-1.712 0-.7573.262-1.36.784-1.808.523-.448 1.355-.672 2.496-.672h2.064v-.592c0-.64-.154-1.104-.464-1.392-.309-.2987-.816-.448-1.52-.448-.65 0-1.13.112-1.44.336-.298.224-.469.512-.512.864h-1.088c.022-.288.102-.5653.24-.832.139-.2667.331-.5013.576-.704.256-.2027.571-.3627.944-.48.374-.1173.8-.176 1.28-.176 1.035 0 1.798.24 2.288.72.502.4693.752 1.1733.752 2.112V35h-.832l-.128-1.36h-.032c-.32.48-.72.848-1.2 1.104-.469.2453-.992.368-1.568.368Zm.08-.992c.384 0 .736-.0587 1.056-.176.32-.128.598-.2987.832-.512.235-.224.416-.4853.544-.784.128-.3093.192-.6453.192-1.008v-.432h-1.984c-.821 0-1.408.144-1.76.432-.341.288-.512.672-.512 1.152 0 .4053.128.7307.384.976.267.2347.683.352 1.248.352Zm6.325-7.12h1.056v7.04h3.136V27h1.056v7.04h3.136V27h1.056v8h-9.44v-8Zm19.292 8.112c-1.088 0-1.952-.3467-2.592-1.04-.629-.704-.944-1.7973-.944-3.28v-.864c0-.608.027-1.184.08-1.728.053-.544.144-1.04.272-1.488.139-.448.325-.8427.56-1.184.235-.352.539-.64.912-.864.331-.192.656-.32.976-.384.331-.0747.677-.128 1.04-.16s.752-.0693 1.168-.112c.416-.0533.88-.16 1.392-.32v.976c-.405.1493-.8.2453-1.184.288-.373.0427-.736.08-1.088.112-.341.032-.667.0747-.976.128-.309.0533-.592.16-.848.32-.395.256-.693.6187-.896 1.088-.192.4693-.32 1.0827-.384 1.84h.032c.277-.448.64-.7893 1.088-1.024.459-.2453.987-.368 1.584-.368.48 0 .923.0853 1.328.256.405.1707.752.416 1.04.736.299.32.528.7147.688 1.184.171.4693.256.9973.256 1.584v.544c0 .5867-.085 1.1147-.256 1.584-.171.4587-.411.8533-.72 1.184-.299.32-.667.5653-1.104.736-.427.1707-.901.256-1.424.256Zm0-.96c.725 0 1.307-.2347 1.744-.704.448-.48.672-1.1787.672-2.096v-.544c0-.9173-.224-1.6107-.672-2.08-.437-.48-1.019-.72-1.744-.72-.747 0-1.344.2347-1.792.704-.437.4693-.656 1.168-.656 2.096v.544c0 .9067.224 1.6.672 2.08.448.48 1.04.72 1.776.72ZM251.407 27h.832l.128 1.2h.032c.352-.4587.741-.7893 1.168-.992.427-.2133.928-.32 1.504-.32.469 0 .901.0853 1.296.256.395.16.731.4053 1.008.736.288.32.512.72.672 1.2.16.48.24 1.0293.24 1.648v.544c0 .6187-.08 1.168-.24 1.648-.16.4693-.384.8693-.672 1.2-.288.32-.629.5653-1.024.736-.395.1707-.821.256-1.28.256-1.152 0-2.011-.4107-2.576-1.232h-.032v4.32h-1.056V27Zm3.424 7.152c.704 0 1.275-.2347 1.712-.704.437-.48.656-1.2053.656-2.176v-.544c0-.9493-.224-1.664-.672-2.144-.437-.4907-1.003-.736-1.696-.736-.704 0-1.275.24-1.712.72-.437.4693-.656 1.1893-.656 2.16v.544c0 .9493.219 1.6693.656 2.16.448.48 1.019.72 1.712.72ZM260.532 27h1.056v6.8h.032l4-6.8h1.472v8h-1.056v-6.8h-.032l-4 6.8h-1.472v-8Zm12.993 8.112h-.592c-.544 0-1.04-.0853-1.488-.256-.437-.1813-.816-.4373-1.136-.768-.309-.3413-.549-.7467-.72-1.216-.171-.4693-.256-1.0027-.256-1.6v-.544c0-.5867.085-1.1147.256-1.584.181-.48.427-.8853.736-1.216.32-.3307.699-.5867 1.136-.768.448-.1813.939-.272 1.472-.272h.592V23.8h1.056v3.088h.592c.544 0 1.035.0907 1.472.272.448.1707.827.4267 1.136.768.32.3307.565.736.736 1.216.171.4693.256.9973.256 1.584v.544c0 .5867-.091 1.12-.272 1.6-.171.4693-.416.8693-.736 1.2-.309.3307-.688.5867-1.136.768-.437.1813-.923.272-1.456.272h-.592V38.2h-1.056v-3.088Zm4.16-4.384c0-.9173-.229-1.6213-.688-2.112-.448-.4907-1.056-.736-1.824-.736h-.592v6.24h.592c.768 0 1.376-.24 1.824-.72.459-.4907.688-1.2.688-2.128v-.544Zm-7.264.544c0 .9173.224 1.6213.672 2.112.459.4907 1.072.736 1.84.736h.592v-6.24h-.592c-.768 0-1.381.2453-1.84.736-.448.48-.672 1.184-.672 2.112v.544Z" fill="#fff"/>
  <defs>
    <linearGradient id="b" x1="86.4097" y1="87.0191" x2="97.4151" y2="87.0191" gradientUnits="userSpaceOnUse">
      <stop stop-color="#3FFFD8"/>
      <stop offset=".4888" stop-color="#B9C3FC"/>
      <stop offset="1" stop-color="#FF7EA7"/>
    </linearGradient>
    <linearGradient id="c" x1="72.31" y1="87.0249" x2="83.3399" y2="87.0249" gradientUnits="userSpaceOnUse">
      <stop stop-color="#3FFFD8"/>
      <stop offset=".4888" stop-color="#B9C3FC"/>
      <stop offset="1" stop-color="#FF7EA7"/>
    </linearGradient>
    <linearGradient id="d" x1="39.234" y1="96.5422" x2="51.389" y2="96.5422" gradientUnits="userSpaceOnUse">
      <stop stop-color="#3FFFD8"/>
      <stop offset=".4888" stop-color="#B9C3FC"/>
      <stop offset="1" stop-color="#FF7EA7"/>
    </linearGradient>
    <linearGradient id="e" x1="24.6889" y1="96.5642" x2="36.4442" y2="96.5642" gradientUnits="userSpaceOnUse">
      <stop stop-color="#3FFFD8"/>
      <stop offset=".4888" stop-color="#B9C3FC"/>
      <stop offset="1" stop-color="#FF7EA7"/>
    </linearGradient>
    <linearGradient id="f" x1="33.6645" y1="84.4028" x2="43.9769" y2="84.4028" gradientUnits="userSpaceOnUse">
      <stop stop-color="#3FFFD8"/>
      <stop offset=".4888" stop-color="#B9C3FC"/>
      <stop offset="1" stop-color="#FF7EA7"/>
    </linearGradient>
    <linearGradient id="g" x1="167.954" y1="88.2262" x2="180.109" y2="88.2262" gradientUnits="userSpaceOnUse">
      <stop stop-color="#3FFFD8"/>
      <stop offset=".4888" stop-color="#B9C3FC"/>
      <stop offset="1" stop-color="#FF7EA7"/>
    </linearGradient>
    <linearGradient id="h" x1="153.409" y1="88.2492" x2="165.164" y2="88.2492" gradientUnits="userSpaceOnUse">
      <stop stop-color="#3FFFD8"/>
      <stop offset=".4888" stop-color="#B9C3FC"/>
      <stop offset="1" stop-color="#FF7EA7"/>
    </linearGradient>
    <linearGradient id="i" x1="130.135" y1="134.375" x2="139.701" y2="134.375" gradientUnits="userSpaceOnUse">
      <stop stop-color="#3FFFD8"/>
      <stop offset=".4888" stop-color="#B9C3FC"/>
      <stop offset="1" stop-color="#FF7EA7"/>
    </linearGradient>
    <linearGradient id="j" x1="116.132" y1="134.375" x2="125.697" y2="134.375" gradientUnits="userSpaceOnUse">
      <stop stop-color="#3FFFD8"/>
      <stop offset=".4888" stop-color="#B9C3FC"/>
      <stop offset="1" stop-color="#FF7EA7"/>
    </linearGradient>
    <linearGradient id="k" x1="108.021" y1="40" x2="307.987" y2="40" gradientUnits="userSpaceOnUse">
      <stop stop-color="#68FFE0"/>
      <stop offset=".5729" stop-color="#B9C3FC"/>
      <stop offset="1" stop-color="#FF7EA7"/>
    </linearGradient>
    <clipPath id="a">
      <path fill="#fff" transform="translate(0 60.9565)" d="M0 0h250v235.507H0z"/>
    </clipPath>
  </defs>
</svg>
