<svg width="55" height="30" fill="none" xmlns="http://www.w3.org/2000/svg">
  <path fill-rule="evenodd" clip-rule="evenodd" d="M17.3118 11.0014c.2237-.0017.8871-.0717 1.1683 1.0415.1897.7498.4908 1.978.9049 3.6852h.1683c.4446-1.7997.7493-3.0287.9155-3.6852.2841-1.1248.9943-1.0415 1.2784-1.0415h2.1917V19h-2.2336v-4.7142h-.1499L20.3097 19h-1.6804l-1.2458-4.7175h-.1498V19H15v-7.9986h2.3118Zm9.8353 0v4.7175h.1782l1.5149-3.8793c.2941-.7716.9205-.8382.9205-.8382h2.1619V19h-2.2805v-4.7175h-.1783l-1.4851 3.8793c-.294.7682-.9503.8382-.9503.8382h-2.1619v-7.9986h2.2806Zm12.6584 3.801c-.3182 1.0573-1.3175 1.8147-2.4233 1.8147h-2.3914V19h-2.169v-4.1976h6.9837Zm-2.3189-3.801h-4.7785c.1137 1.7805 1.4212 3.3052 2.7742 3.3052h4.4737c.2586-1.4805-.6306-3.3052-2.4694-3.3052Z" fill="#fff"/>
</svg>
