<svg width="55" height="30" fill="none" xmlns="http://www.w3.org/2000/svg">
  <g clip-path="url(#a)" fill="#fff">
    <path d="m17.6011 13.8942.1233.1082c1.7667-2.0215 5.8335-3.8721 10.6804-3.8749 4.8985.0028 8.6154 1.5659 10.5885 3.6044h.1578C37.459 11.3005 33.547 9.0057 28.4048 9c-5.1423.0057-9.06 2.3688-10.8037 4.8942ZM15.3469 16.7357c1.2677-.279 2.0592-.9993 2.0592-1.8193 0-.7033-.6912-1.267-1.7408-1.267-1.2849 0-2.6328.8086-3.3011 1.7396-.0573.0797-.0229.1452.0459.0968.8719-.6207 1.8613-1.0847 2.6902-1.0847.6682 0 .9693.3302.9693.6975 0 .6007-.5305 1.2214-1.6376 1.4264l.3843-1.5944c-.8718.131-1.3192.3047-1.5315 1.1076-.2495.9452-.8116 3.2998-.889 3.5959-.0717.2762-.2037.3843-.3844.4897-.0114.0057-.0114.0256.0029.0256.3958.0313 1.3566.0484 1.7179.0484 2.3747 0 3.2867-1.0705 3.2867-2.1325 0-.7744-.6883-1.2755-1.672-1.3296Zm-1.6749 2.9325.6166-2.5652c.892-.0342 1.3222.2875 1.3222.9395 0 .7574-.6281 1.7197-1.9388 1.6257Zm6.2006-3.2742c-1.5803-.1423-2.65 1.2983-2.65 2.5169 0 .7146.456 1.2641 1.2017 1.3268 1.6032.1309 2.6471-1.2983 2.6471-2.5169.0029-.7175-.4531-1.2613-1.1988-1.3268Zm-1.0669 3.3369c-.2266 0-.3958-.1737-.3728-.6662.0487-1.0848.5363-2.1525 1.0525-2.1525.2438 0 .3872.1794.3786.6691-.0172 1.0136-.5392 2.1496-1.0583 2.1496Zm18.3178-.4669c.1176-.6976.8116-3.6415 1.0267-4.6608.0803-.3644-.0545-.6264-.4474-.6264-.1921 0-.5248.0997-.8145.1794-.0373.0114-.0344.0569-.0086.074.0746.0598.1147.1623.1147.2933 0 .4698-.9206 4.1169-1.0468 5.0109-.0717.5211.2008.709.5162.709.327 0 .6941-.0684 1.0038-.2534.023-.0143.0259-.0655.0029-.0769-.2323-.1167-.3986-.336-.347-.6491Zm1.8326 0c.1147-.6976.8088-3.6415 1.0268-4.6608.0803-.3644-.0545-.6264-.4503-.6264-.1922 0-.522.0997-.8117.1794-.0372.0114-.0315.0569-.0086.074.0717.0598.1119.1623.1119.2933 0 .4698-.9235 4.1169-1.0497 5.0109-.0746.5211.2008.709.5163.709.3269 0 .694-.0684 1.0037-.2534.023-.0143.0259-.0655.0029-.0769-.2294-.1167-.3958-.336-.3413-.6491Zm-13.2214.9822c.5163 0 1.044-.4214 1.2906-.726 0 .0085-.0028.0142-.0028.0199-.1033.5182.2036.709.5162.709.3327 0 .6396-.0712.955-.2648.0172-.0114.0172-.0484 0-.057-.2409-.1195-.3441-.3416-.2925-.6605.066-.3986.8288-3.6927 1.0411-4.7092.0573-.279-.0402-.5751-.4646-.5751-.1979 0-.545.1054-.8289.1851-.0287.0085-.0258.0427-.0057.0569.0774.057.1319.1936.1319.3246 0 .1224-.152.8883-.3528 1.8307-1.563-.074-2.8794 1.0905-2.8794 2.682-.0029.7061.3585 1.1844.8919 1.1844Zm1.8757-3.3568a432.89 432.89 0 0 1-.4531 2.05c-.2037.2192-.5019.4726-.7515.4726-.1491 0-.3355-.074-.3355-.4242 0-1.1616.7571-2.0443 1.5401-2.0984Zm8.4405.3702c0-.5381-.3757-.8826-1.0497-.8826-1.348 0-2.3833 1.2299-2.3833 2.5481 0 .8001.4675 1.3183 1.2877 1.3183.8203 0 1.4369-.4043 1.7179-.988.0344-.0712 0-.1253-.0917-.0655-.3671.2392-.7601.3588-1.0469.3588-.3671 0-.6481-.1908-.6711-.6777.9866-.1024 2.2371-.7687 2.2371-1.6114Zm-2.217 1.2271c.1061-.8684.6166-1.6286 1.0239-1.6286.1204 0 .2065.0826.2065.2193 0 .5466-.456 1.1844-1.2304 1.4093ZM43 17.2596c0-.5381-.3757-.8826-1.0497-.8826-1.3508 0-2.3833 1.2299-2.3833 2.5481 0 .8001.4675 1.3183 1.2877 1.3183.8203 0 1.4398-.4043 1.7179-.988.0345-.0712 0-.1253-.0917-.0655-.3671.2392-.76.3588-1.0497.3588-.3671 0-.6482-.1908-.6682-.6777.9865-.1024 2.237-.7687 2.237-1.6114Zm-2.217 1.2271c.1061-.8684.6138-1.6286 1.0239-1.6286.1205 0 .2065.0826.2065.2193 0 .5466-.4531 1.1844-1.2304 1.4093Zm-8.1967-2.0528c-.9665-.1082-1.193.3388-1.2733.7203-.1434.6862-.2954 1.3524-.3987 1.8108-.1692.1765-.522.4442-.7256.4442-.1118 0-.1606-.0684-.1606-.168 0-.2563.5478-2.2977.5478-2.5824 0-.1936-.1262-.2818-.3671-.2818-.1979 0-.6453.1053-.9264.1879-.0258.0085-.0258.0398-.0086.0569.0602.057.0832.1623.0832.2534 0 .726-.5335 2.3375-.5335 2.7418 0 .4157.2324.6292.5478.6292.479 0 1.0784-.3644 1.3996-.6349-.0602.4641.2266.6463.5277.6463.3327 0 .6396-.0769.9493-.2676.0201-.0143.023-.0513.0086-.0598-.2409-.1196-.347-.3417-.2925-.6634.0401-.2505.3441-1.5972.6223-2.8329Zm-4.0381 4.4273c-.5449.2733-1.3823.5324-2.0879.5324-1.7494 0-2.2743-.9196-2.1653-1.9247.1033-.9509.4962-1.9816.4962-2.4656 0-.4156-.2352-.6292-.5507-.6292-.4904 0-1.15.3758-1.4713.6492.0373-.1936.0603-.3275.0603-.3673 0-.1936-.1291-.2819-.3671-.2819-.218 0-.6941.1253-.9665.2079.0745.0227.1147.1708.1147.2904 0 .4697-.413 2.4428-.7887 3.2912 1.064.0883 1.2103-.0939 1.3393-.521.1148-.3872.3241-1.2726.4761-1.9816.1635-.1765.5593-.4555.7658-.4555.1147 0 .1606.0683.1606.1708 0 .3559-.3585 1.4691-.413 2.1325-.1262 1.62 1.1443 2.4884 2.7389 2.4884.9264 0 1.9072-.3331 2.7275-1.025.0631-.0512.0086-.148-.0689-.111Z"/>
  </g>
  <defs>
    <clipPath id="a">
      <path fill="#fff" transform="translate(12 9)" d="M0 0h31v13H0z"/>
    </clipPath>
  </defs>
</svg>
