<svg width="55" height="30" fill="none" xmlns="http://www.w3.org/2000/svg">
  <path fill-rule="evenodd" clip-rule="evenodd" d="M28 7c-4.4184 0-8 3.5816-8 8s3.5816 8 8 8 8-3.5816 8-8-3.5816-8-8-8Zm-.3104 11.4408h-1.2872V15.82c0-.52-.0232-.8496-.072-.9896-.0488-.1408-.1352-.252-.2584-.3328-.124-.084-.2784-.1248-.4648-.1248-.2128 0-.4048.0536-.5712.1592-.1696.1064-.292.2664-.3696.4792-.0784.2136-.1176.528-.116.9456l-.0016 2.4848h-1.2856v-7.052h1.2872v2.7216c.4144-.4936.9104-.7424 1.4864-.7424.2968 0 .5624.0568.8008.1688.2392.112.4176.2552.5384.4288.1216.176.2032.368.2472.58.044.2112.0664.5392.0664.9848v2.9096Zm5.0688 0H31.472V15.82c0-.52-.024-.8496-.0736-.9896-.0488-.1408-.1344-.252-.2592-.3328-.1224-.084-.2784-.1248-.4648-.1248-.2128 0-.4048.0536-.5712.1592-.168.1064-.2904.2664-.3688.4792-.0768.2136-.116.528-.116.9456v2.4848h-1.2856v-7.052h1.2856v2.7216c.4144-.4936.9104-.7424 1.4864-.7424.2952 0 .5632.0568.8016.1688.2376.112.4168.2552.5368.4288.1216.176.204.368.2472.58.044.2112.0664.5392.0664.9848v2.9096h.0016Z" fill="#fff"/>
</svg>
