<svg width="55" height="30" fill="none" xmlns="http://www.w3.org/2000/svg">
  <path d="M3 15.3125c0-2.0325 0-3.0488.6183-3.6806C4.2366 11 5.231 11 7.2199 11h.367c1.9888 0 2.9832 0 3.6015.6319.6183.6318.6183 1.6481.6183 3.6806v.375c0 2.0325 0 3.0488-.6183 3.6806C10.5701 20 9.5757 20 7.5868 20h-.367c-1.9888 0-2.9832 0-3.6015-.6319C3 18.7363 3 17.72 3 15.6875v-.375Zm2.3852-1.5H4.743c-.1835 0-.2202.0881-.2202.1856 0 .1744.2184 1.035 1.0146 2.1769.5303.7781 1.2788 1.2 1.9595 1.2.4092 0 .4587-.0938.4587-.255v-.5888c0-.1874.0385-.225.1688-.225.0954 0 .2587.0488.6403.4238.4349.4444.5064.645.7523.645h.6421c.1835 0 .2752-.0938.222-.2794-.0587-.1837-.266-.4519-.5412-.7687-.1505-.18-.3743-.375-.4422-.4725-.0954-.1257-.0679-.18 0-.2925 0 0 .7834-1.1269.8642-1.5094.0403-.1387 0-.2419-.1945-.2419h-.6422c-.1633 0-.2385.0881-.2789.1856 0 0-.3265.8138-.7889 1.3425-.1504.1538-.2183.2025-.299.2025-.0404 0-.0991-.0487-.0991-.1875v-1.2993c-.0055-.1669-.0514-.2419-.189-.2419H6.7612c-.1027 0-.1633.0769-.1633.15 0 .1575.2312.195.255.6394v.9656c0 .2119-.0367.2494-.1192.2494-.2184 0-.7468-.8175-1.0623-1.7513-.0606-.18-.1211-.2531-.2862-.2531Zm12.6394 1.6087c.3486-.1668.5743-.4443.5743-.8718 0-.6506-.5817-1.11-1.4201-1.11h-1.932v4.125h2.0182c.8697 0 1.4751-.4838 1.4751-1.1419-.0018-.5025-.3192-.8738-.7155-1.0013Zm-1.8861-1.2299h1.0403c.31 0 .5284.1912.5284.4518 0 .2607-.2165.4444-.5284.4444h-1.0403v-.8962Zm1.1265 2.6174h-1.1247v-1.0068h1.1247c.3486 0 .5816.2062.5816.5081s-.233.4987-.5816.4987Zm4.7942.7538h1.1723l-1.8549-2.1413 1.699-1.9837h-1.0623l-1.3504 1.6013h-.2165v-1.6013h-.8917v4.125h.8917V15.92h.2165l1.3963 1.6425Zm3.4492.0787c1.266 0 2.1577-.8887 2.1577-2.1412s-.8935-2.1413-2.1577-2.1413c-1.2641 0-2.1576.8888-2.1576 2.1413 0 1.2525.8917 2.1412 2.1576 2.1412Zm0-.8325c-.7302 0-1.2256-.5306-1.2256-1.3087s.4973-1.3087 1.2256-1.3087c.7303 0 1.2256.5306 1.2256 1.3087s-.4953 1.3087-1.2256 1.3087Zm5.6345-3.3712v1.6256h-1.8091v-1.6256h-.8916v4.125h.8916v-1.665h1.8091v1.665h.8935v-4.125h-.8935Zm2.908 4.125h.8935v-3.2906h1.3963v-.8344h-3.686v.8325h1.3962v3.2925Zm4.4034-4.2038c-.7834 0-1.4751.4126-1.677 1.1269l.822.1425c.1248-.2531.4036-.4912.8073-.4912.488 0 .7761.3562.8146.8962h-.8697c-1.187 0-1.7778.5306-1.7778 1.2919 0 .7687.5816 1.3162 1.4054 1.3162.6605 0 1.1027-.3881 1.2953-.7293l.1853.6506h.6605v-2.3156c.0018-1.1982-.633-1.8882-1.6659-1.8882Zm-.2642 3.5138c-.4349 0-.7137-.2306-.7137-.5869 0-.3168.2256-.54.9082-.54h.8458c0 .675-.4183 1.1269-1.0403 1.1269Zm5.4069.69h1.1724l-1.8549-2.1413 1.7008-1.9837H43.553l-1.3504 1.6013h-.2165v-1.6013h-.8916v4.125h.8916V15.92h.2165l1.3944 1.6425Zm2.6861 0h.8935v-3.2906h1.3962v-.8344h-3.686v.8325h1.3963v3.2925ZM53 15.4531c0-1.1887-.8697-2.0944-2.0953-2.0944s-2.0952.8963-2.0952 2.1413.8696 2.1412 2.0952 2.1412c.8385 0 1.6293-.405 1.932-1.1887l-.8385-.1425c-.1944.2944-.5669.4987-1.0402.4987-.6826 0-1.1339-.4275-1.2183-1.0631h3.2438A2.7012 2.7012 0 0 0 53 15.4531Zm-2.0953-1.3012c.5596 0 .978.3656 1.1247.8812h-2.2347c.1468-.5325.567-.8812 1.11-.8812Z" fill="#fff"/>
</svg>
