<svg width="55" height="30" fill="none" xmlns="http://www.w3.org/2000/svg">
  <g clip-path="url(#a)" fill="#fff">
    <path d="M33.745 17.3897c-.2276-.2435-5.432-5.96-7.3186-5.96-1.8865 0-7.0978 5.7165-7.3185 5.96a2.1941 2.1941 0 0 0-.5303 1.2766c0 .5234.0342 1.0514.0342 1.0559 0 .0046.0136.2481.1388.3095a.1526.1526 0 0 0 .0637.0137.274.274 0 0 0 .1548-.0615c.0568-.0478 5.366-4.7174 7.4573-4.7174 2.0914 0 7.4005 4.6605 7.4551 4.7061.0433.0386.1001.0591.157.0637a.153.153 0 0 0 .0638-.0137c.1251-.0614.1365-.2844.1388-.3095.0022-.025.0341-.5325.0341-1.0559a2.1822 2.1822 0 0 0-.5302-1.2675Zm.0569 1.9161c-1.37-1.1674-5.4434-4.4945-7.3755-4.4945-1.932 0-6.0032 3.3202-7.3731 4.4877 0-.2754-.016-.4438-.016-.6827.0023-.305.1206-.5963.3345-.8125a24.1383 24.1383 0 0 1 6.1853-4.0279c.9285-.3891.8761-.3163.8761-1.8843a.3542.3542 0 0 1 .0683 0c1.3085.1161 4.8267 3.5114 6.909 5.8053a1.73 1.73 0 0 1 .4118.9671 58.9969 58.9969 0 0 1-.0204.6418ZM30.4497 22.4416c-.6599-.0136-1.3313 0-1.3358 0-.8056 0-1.4633.5598-1.4633 1.2471 0 .6872.6577 1.2653 1.4633 1.2653 0 0 .6827.0136 1.3358 0 .8079 0 1.4655-.569 1.4655-1.2653 0-.6964-.644-1.2266-1.4655-1.2471Zm-.4551 2.1664h-.421c-.5166.0114-.9467-.3936-.9649-.9102.0136-.5098.4392-.9126.9489-.8966h.0137a4.3778 4.3778 0 0 1 .4256 0c.5097-.0228.9421.3709.9648.8807v.0159c-.0182.5166-.4483.9216-.9648.9102h-.0023ZM39.0313 24.9221h.8215v-1.197c0-.6986-.6258-1.2471-1.4246-1.2471h-2.0799c-.0342 0-.1138 0-.1138.0911v2.2551c-.0023.0501.0364.0888.0864.0911H37.1925v-1.8911a.1226.1226 0 0 1 .1184-.1275h.9648a.7134.7134 0 0 1 .6668.7578V24.8242c0 .0501.0387.0933.0888.0979ZM21.6818 22.9628h1.2812v-.3891a.0914.0914 0 0 0-.0865-.0956h-3.5796c-.05-.0023-.091.0387-.0933.0888V22.9628h.8511a.5417.5417 0 0 1 .5371.5325v1.329a.0984.0984 0 0 0 .0933.0933h.867v-1.8342c.0046-.0682.0614-.1228.1297-.1206ZM17.729 24.8242a.0984.0984 0 0 0 .0933.0933h.867v-2.3462a.0985.0985 0 0 0-.0933-.0933h-.7737a.0986.0986 0 0 0-.0933.0933v2.2529ZM26.3013 24.9225h.9535c-.016-.5871-.6258-.8306-.6964-.8579h-.0136v-.0342h.0113c.3755-.0637.6577-.38.6827-.76 0-.3801-.3709-.7874-.9694-.7874h-2.2916c-.2731-.0046-.4961.2139-.5007.487v1.8546c-.0022.0501.0365.0888.0865.0911h.8716v-.8671h.817c.5279-.0409.9922.3459 1.0491.8739Zm-1.8661-1.2994v-.4893a.2282.2282 0 0 1 .2276-.2275h1.2766c.198 0 .3573.1593.3573.3572a.3564.3564 0 0 1-.3573.3573l-1.5042.0023ZM16.2701 23.2973h.9353a1.5155 1.5155 0 0 0-1.4063-.8738h-.2868c-.4551-.0114-.6554-.0137-1.049 0a1.5343 1.5343 0 0 0-1.0332.3755c-.2708.2252-.4301.5575-.4301.9102 0 .6987.6213 1.2471 1.4451 1.2744.5666.0205.6258.0205 1.3654 0 .6827-.0205 1.1787-.3323 1.3904-.8739h-.933a.0899.0899 0 0 0-.0797.0456c-.1775.2958-.4984.4778-.8443.4733h-.4232c-.5166.0159-.949-.3891-.9649-.9057v-.0046c.0114-.5143.4392-.9239.9558-.9102H15.3439a.9926.9926 0 0 1 .842.446.1005.1005 0 0 0 .0842.0432ZM35.7204 24.4827h-2.2597c-.066.0045-.1252-.0455-.1297-.1115v-.4665h1.9707v-.4461h-1.9594v-.4255a.1247.1247 0 0 1 .0319-.0842.1614.1614 0 0 1 .1138-.0387h2.2438v-.3436a.0856.0856 0 0 0-.025-.0683c-.0251-.0182-.0547-.0296-.0842-.0273h-3.1564a.0914.0914 0 0 0-.0956.0865V24.4167c-.0023.2731.2208.4961.4938.4984h2.7627a.1145.1145 0 0 0 .0637-.0273.0849.0849 0 0 0 .0296-.0638v-.3413ZM35.017 21.5953a.678.678 0 0 0-.6645 0c-.0887.0547-.157.1275-.2617.1275-.1047 0-.1661-.0728-.2594-.1275a.6312.6312 0 0 0-.3323-.0864.6392.6392 0 0 0-.3345.0864.2267.2267 0 0 0-.1365.2026.24.24 0 0 0 .1365.2025.6206.6206 0 0 0 .3345.0842.6477.6477 0 0 0 .3255-.0774c.0819-.05.1729-.1342.2662-.1342.0979.0182.1866.0637.2617.1274a.6503.6503 0 0 0 .3323.0842.6233.6233 0 0 0 .3368-.0842.2422.2422 0 0 0 .1342-.2025.2262.2262 0 0 0-.1388-.2026Z"/>
    <path d="M33.7384 11.9554C33.5108 11.7119 28.3109 6 26.4267 6c-1.8843 0-7.091 5.7119-7.3118 5.9554a2.1822 2.1822 0 0 0-.5302 1.2744c0 .5234.0364 1.0514.0364 1.0559 0 .0046.0137.2481.1366.3072a.1651.1651 0 0 0 .066.016.2666.2666 0 0 0 .1524-.0615c.0569-.05 5.3615-4.706 7.4506-4.706 2.089 0 7.3936 4.656 7.4482 4.7037a.276.276 0 0 0 .1548.0638.1656.1656 0 0 0 .066-.016c.1229-.0591.1365-.2822.1365-.3072 0-.025.0364-.5325.0364-1.0559a2.181 2.181 0 0 0-.5302-1.2744Zm.0569 1.9139c-1.3654-1.1675-5.4389-4.4877-7.3686-4.4877-1.9298 0-5.9964 3.318-7.3664 4.4854 0-.2754-.0159-.4551-.0159-.6827 0-.3049.1183-.5962.3277-.817a24.2046 24.2046 0 0 1 6.1784-4.0234c.9285-.3891.8762-.3163.8762-1.882a.3424.3424 0 0 1 .0682 0c1.3063.1161 4.8222 3.5069 6.9022 5.7985.2344.2708.3777.6098.4119.9671 0 .2321-.0069.462-.0137.6418Z"/>
  </g>
  <defs>
    <clipPath id="a">
      <path fill="#fff" transform="translate(13 6)" d="M0 0h26.8529v18.9996H0z"/>
    </clipPath>
  </defs>
</svg>
