<svg width="55" height="30" fill="none" xmlns="http://www.w3.org/2000/svg">
  <path fill-rule="evenodd" clip-rule="evenodd" d="M16.3104 17.9418v-4.4672h3.6165v4.4672h-.8833v-3.6127h-1.8498v3.6127h-.8834Zm6.2011-2.5741h-.5013c-.4172 0-.6263.1499-.6263.4419 0 .2862.2032.4302.6088.4302.1788 0 .3517-.0118.5188-.0412v-.8309Zm.817-.681v3.2551h-.8179V16.813c-.1583.0294-.3264.0667-.5287.0725l-.6772 1.0563h-.9195l.8081-1.1709c-.4241-.1793-.6469-.489-.6469-.973 0-.6634.4828-1.1112 1.4384-1.1112h1.3437Zm5.5268.2754c.2502.2449.3762.5791.3762 1.0151v1.9646h-.8413V16.132c0-.4958-.2629-.7584-.6508-.7584-.4241 0-.7163.3047-.7163.7819v1.7854h-.8413v-1.802c0-.4841-.257-.7643-.6567-.7643-.4114 0-.7104.3047-.7104.7888v1.7794h-.8413v-3.2561h.8237v.4654c.1847-.34.5668-.5614.9909-.5555.4055 0 .7817.1969.9547.5732.2384-.3586.6801-.5732 1.1638-.5732.3879.0009.7036.1205.9488.3655Zm6.9643 2.0185c.1671-.1793.2512-.3998.2512-.6624s-.0841-.4841-.2512-.6634c-.1671-.1793-.382-.2685-.6508-.2685-.2628 0-.4778.0902-.6439.2685-.1671.1793-.2511.3998-.2511.6634 0 .2626.084.484.2511.6624.1671.1793.3821.2685.6439.2685.2688 0 .4847-.0892.6508-.2685Zm.645-1.8814c.3039.3283.4534.7349.4534 1.2121 0 .4772-.1554.8839-.4593 1.2121-.3039.3283-.686.4949-1.1462.4949-.3997 0-.769-.1745-1.0202-.4841v1.7442h-.8413v-4.5917h.8355v.4272c.2667-.3331.6205-.5105 1.0328-.5105.4593 0 .8404.1676 1.1453.4958Zm2.5006 2.144c.256 0 .4651-.0902.638-.2685.173-.1852.2629-.4057.2629-.6624s-.0899-.4782-.2629-.6565c-.1729-.1793-.382-.2685-.638-.2685-.257 0-.472.0892-.645.2685-.1729.1793-.256.3998-.256.6565s.084.4782.256.6624c.174.1793.3889.2685.645.2685Zm-1.2528-2.144c.3283-.3341.7466-.5017 1.2537-.5017.5072 0 .9244.1666 1.2537.5017.3284.3283.4896.7349.4896 1.2121 0 .4841-.1612.8898-.4896 1.218-.3283.3283-.7465.4958-1.2537.4958-.5071 0-.9244-.1675-1.2537-.4958-.3283-.3282-.4895-.7349-.4895-1.218 0-.4772.1612-.8838.4895-1.2121Zm5.3647-.4125h.8413v3.2551h-.8413v-1.0955c-.2463.1411-.513.2117-.7221.2117-.388 0-.6743-.0715-.9313-.245-.256-.1852-.3996-.5311-.3996-1.0337v-1.0926h.8354v1.0338c0 .3821.1964.5732.5912.5732.2209 0 .4095-.0304.6264-.1176v-1.4894Zm3.6233 3.2551-1.2947-1.5031v1.5031h-.8414v-3.26h.8414v1.2915l1.1814-1.2866h1.0622l-1.4501 1.508 1.5341 1.7471h-1.0329Zm3.2491-2.2929c.173.1852.2629.4057.2629.6624 0 .2626-.0899.4841-.2629.6693-.1729.1852-.3879.2743-.6508.2743-.2628 0-.4768-.0891-.6508-.2743-.1729-.1852-.2569-.4067-.2569-.6693 0-.2567.084-.4772.2511-.6624.1729-.1852.3879-.2743.6566-.2743.2629-.001.4779.0891.6508.2743Zm.2512-.9622H51v3.2551h-.7993v-.4301c-.2795.339-.6264.5075-1.0388.5075-.4651 0-.853-.1616-1.1579-.4899-.3039-.3282-.4534-.7408-.4534-1.2297 0-.49.1554-.8956.4593-1.2121.3048-.3224.6928-.4841 1.152-.4841.4056 0 .7642.1842 1.0388.5105v-.4272Zm-18.6415-.8172c0-.2802.2208-.4899.5071-.4899.2805 0 .4954.2214.4954.4899 0 .293-.2149.5076-.4954.5076-.2863 0-.5071-.2156-.5071-.5076Zm-1.0388 2.1136h1.6534c-.0772-.4243-.3821-.681-.812-.681-.4241 0-.7397.2567-.8414.681Zm.2443-2.6035c.2805 0 .5013.2214.5013.4899 0 .293-.215.5076-.5013.5076s-.5013-.2146-.5013-.5076c0-.2695.2209-.4899.5013-.4899Zm2.1967 3.2306h-2.441c.1193.4595.4359.6928.9489.6928.3518 0 .7436-.1323 1.0416-.3675l.3391.5331c-.4104.385-.8785.5448-1.4159.5448-.5736 0-1.0084-.1666-1.3133-.4959-.3039-.3282-.4534-.7349-.4534-1.2062 0-.4958.1553-.9014.4719-1.2238s.7222-.4841 1.2235-.4841c.4719 0 .8648.149 1.1696.4419.3049.293.4593.6869.4593 1.1945a2.8572 2.8572 0 0 1-.0303.3704ZM14.9707 15.5c0 3.0327-2.4605 5.5-5.4849 5.5C6.4605 21.001 4 18.5337 4 15.5S6.4605 10 9.4849 10c3.0243 0 5.4858 2.4673 5.4858 5.5Zm-3.5852-3.9205c-.7026.002-1.499.0049-2.1117.2783-.4397.196-.7485.5194-.941.9956a7.7808 7.7808 0 0 1 .338-.0059c.1271 0 .2561.002.3939.0039.1417.002.2882.0049.4368.0049 1.3807 0 2.3335-.2244 2.7527-1.3003-.2697.0216-.5629.0226-.8687.0235Zm1.2976.3214c-.6195 1.3523-1.9992 1.4875-3.1816 1.4875-.26 0-.5082-.0059-.7388-.0079l-.298 1.168c1.5263-1.2473 3.5442-.0107 3.3282 1.8716-.1456 1.2679-1.0465 2.0969-2.0002 2.335-1.0388.2597-2.1899-.1293-2.7058-1.1905-.0547-.1117-.1505-.3371-.1867-.4566l1.0955-.2822c.0195.0637.0517.1244.087.1803.7328 1.1856 2.2191.5928 2.3872-.6379.171-1.2513-1.5811-1.9186-2.3785-.4557l-.9713-.4154-.0166-.0079.468-1.8862c.0294-.1343.1261-.5086.1427-.5703.5297-1.9529 2.2426-1.9833 3.6165-1.9882a4.8397 4.8397 0 0 0-1.8458-.3655c-2.656 0-4.8087 2.1587-4.8087 4.822s2.1527 4.8219 4.8087 4.8219c2.6559 0 4.8086-2.1586 4.8086-4.8219 0-1.4326-.6224-2.7172-1.6104-3.6001Z" fill="#fff"/>
</svg>
