<svg width="18" height="18" fill="none" xmlns="http://www.w3.org/2000/svg">
  <path d="M2.6367 18h5.8711v-6.3984H6.3984V9.4922h2.1094V6.8555c0-1.454 1.1828-2.6368 2.6367-2.6368h2.6367v2.1094h-2.1093c-.5816 0-1.0547.4731-1.0547 1.0547v2.1094h3.0689l-.3516 2.1094h-2.7173V18h4.7461C16.8172 18 18 16.8172 18 15.3633V2.6367C18 1.1828 16.8172 0 15.3633 0H2.6367C1.1828 0 0 1.1828 0 2.6367v12.7266C0 16.8172 1.1828 18 2.6367 18ZM1.0547 2.6367c0-.8723.7097-1.582 1.582-1.582h12.7266c.8723 0 1.582.7097 1.582 1.582v12.7266c0 .8723-.7097 1.582-1.582 1.582h-3.6914v-4.2891h2.5561l.7031-4.2187h-3.2592V7.3828h3.164V3.1641h-3.6914c-2.0355 0-3.6914 1.6559-3.6914 3.6914v1.582H5.3437v4.2187h2.1094v4.2891H2.6367c-.8723 0-1.582-.7097-1.582-1.582V2.6367Z" fill="#000"/>
</svg>
