<svg width="93" height="21" fill="none" xmlns="http://www.w3.org/2000/svg">
  <path d="M4.3057 10.6407a3.8618 3.8618 0 0 0-1.1334 2.7319c0 .5074.1 1.0098.2945 1.4786a3.8685 3.8685 0 0 0 2.0942 2.0909 3.8742 3.8742 0 0 0 4.2171-.8375 1.5895 1.5895 0 0 1 1.1231-.4644c.4212 0 .8252.167 1.1231.4644.2978.2974.4651.7008.4651 1.1213 0 .4206-.1673.824-.4651 1.1214a7.0474 7.0474 0 0 1-3.6067 1.9243 7.0542 7.0542 0 0 1-4.0696-.4004 7.0422 7.0422 0 0 1-3.161-2.5904A7.025 7.025 0 0 1 0 13.3736c0-1.3909.413-2.7506 1.187-3.9071A7.0416 7.0416 0 0 1 4.348 6.876a7.0541 7.0541 0 0 1 4.0696-.4005A7.0476 7.0476 0 0 1 12.0243 8.4a1.5839 1.5839 0 0 1-.001 2.2417 1.589 1.589 0 0 1-1.1228.4637 1.5887 1.5887 0 0 1-1.1224-.4647 3.8741 3.8741 0 0 0-2.7362-1.131 3.8741 3.8741 0 0 0-2.7362 1.131Zm23.7688 2.831a7.025 7.025 0 0 1-1.1871 3.9073 7.0422 7.0422 0 0 1-3.1612 2.5904 7.0548 7.0548 0 0 1-4.0698.4002 7.0473 7.0473 0 0 1-3.6066-1.9248 7.0294 7.0294 0 0 1-1.9278-3.601 7.0231 7.0231 0 0 1 .4008-4.0635 7.0356 7.0356 0 0 1 2.5944-3.1563 7.0517 7.0517 0 0 1 3.9134-1.1853 7.0554 7.0554 0 0 1 4.9842 2.0588 7.0334 7.0334 0 0 1 2.0677 4.9742h-.008Zm-3.1747 0c0-.7641-.2269-1.511-.6521-2.1463a3.8678 3.8678 0 0 0-1.7364-1.4228 3.875 3.875 0 0 0-2.2356-.2199 3.8714 3.8714 0 0 0-1.9811 1.0573 3.8581 3.8581 0 0 0-.8387 4.2101 3.8648 3.8648 0 0 0 1.4251 1.7337 3.8733 3.8733 0 0 0 2.1496.6511 3.8785 3.8785 0 0 0 2.7393-1.1304 3.8664 3.8664 0 0 0 1.1379-2.7328h-.008Zm11.0124 4.3585a2.1845 2.1845 0 0 1-1.5434-.6383 2.1776 2.1776 0 0 1-.6392-1.541V1.5849c0-.4203-.1673-.8235-.465-1.1207a1.5888 1.5888 0 0 0-2.2449 0 1.584 1.584 0 0 0-.4649 1.1207v14.066a5.345 5.345 0 0 0 1.5692 3.7824A5.3616 5.3616 0 0 0 35.9122 21c.421 0 .8247-.167 1.1224-.4642a1.5837 1.5837 0 0 0 .465-1.1207c0-.4203-.1673-.8235-.465-1.1207a1.5886 1.5886 0 0 0-1.1224-.4642Zm8.8297-11.2925h6.6472v14.0661h-6.6472a7.0494 7.0494 0 0 1-4.9808-2.06 7.0273 7.0273 0 0 1-2.0631-4.973 7.0275 7.0275 0 0 1 2.0631-4.9731 7.0496 7.0496 0 0 1 4.9808-2.06Zm3.4724 3.1698h-3.4724a3.8723 3.8723 0 0 0-2.7359 1.1316 3.8601 3.8601 0 0 0-1.1333 2.7317 3.8604 3.8604 0 0 0 1.1333 2.7317 3.8726 3.8726 0 0 0 2.7359 1.1315h3.4724V9.7075Zm9.9211-2.3773h9.1274v13.2736H54.9606V.5943h3.1748v6.7359Zm0 3.1698v6.934h5.9526V10.5h-5.9526Zm13.2942 10.1038h3.1748V.5943h-3.1748v20.0095Zm10.4588-5.4897v2.3199H93v3.1698H78.7137V6.7358H93v8.3783H81.8884Zm0-5.2084v2.831h7.9369v-2.831h-7.9369Z" fill="url(#a)"/>
  <defs>
    <linearGradient id="a" x1=".0098" y1="10.5" x2="92.994" y2="10.5" gradientUnits="userSpaceOnUse">
      <stop stop-color="#68FFE0"/>
      <stop offset=".5729" stop-color="#B9C3FC"/>
      <stop offset="1" stop-color="#FF7EA7"/>
    </linearGradient>
  </defs>
</svg>
