<svg width="95" height="5" fill="none" xmlns="http://www.w3.org/2000/svg">
  <path d="M3.4987 1.04c.07 0 .125-.03.16-.09.02-.03.03-.06.03-.095 0-.065-.035-.125-.105-.17-.255-.155-.565-.235-.92-.235-.535 0-.955.17-1.27.51-.315.345-.475.775-.475 1.29 0 .545.165.98.495 1.305.325.33.755.495 1.28.495.38 0 .705-.095.98-.29.065-.045.095-.105.095-.17 0-.04-.01-.075-.035-.1-.035-.045-.085-.07-.15-.07-.045 0-.09.01-.125.035-.215.13-.455.195-.725.195-.405 0-.735-.13-.985-.39-.255-.255-.38-.595-.38-1.01 0-.415.12-.75.365-1.01s.555-.39.935-.39c.275 0 .515.055.71.16.04.02.08.03.12.03Zm6.1375 2.8c0-.05-.02-.1-.055-.145l-.93-1.175c.21-.055.39-.17.54-.345.145-.175.22-.39.22-.645 0-.695-.415-1.04-1.245-1.04-.135 0-.375.005-.73.01-.115 0-.21.095-.21.21v3.115c0 .115.095.21.215.21.115 0 .21-.095.21-.21V2.6h.57l1.005 1.315c.065.08.135.12.215.12.115 0 .195-.09.195-.195ZM7.6512.9c.22-.005.385-.01.49-.01.545 0 .82.215.82.645 0 .2-.08.36-.235.48-.16.125-.345.185-.56.185h-.515V.9Zm5.9347 1.53h1.205c.105 0 .195-.095.195-.2 0-.105-.09-.2-.195-.2h-1.205V.9h1.355c.105 0 .195-.095.195-.2 0-.105-.09-.2-.195-.2h-1.57c-.115 0-.21.095-.21.21v3.08c0 .115.095.21.21.21h1.62c.105 0 .195-.095.195-.2 0-.105-.09-.2-.195-.2h-1.405V2.43Zm7.631 1.465c.04.095.105.14.2.14.125 0 .205-.1.205-.215 0-.025-.005-.055-.015-.085l-1.335-3.09c-.045-.115-.125-.17-.24-.17-.115 0-.195.055-.245.17l-1.34 3.105c-.015.04-.02.07-.02.09 0 .105.075.195.2.195.09 0 .155-.045.19-.14l.4-.955h1.595l.405.955Zm-1.83-1.355.63-1.495.63 1.495h-1.26ZM26.9181.9c.105 0 .195-.095.195-.2 0-.105-.09-.2-.195-.2h-2.485c-.105 0-.195.095-.195.2 0 .105.09.2.195.2h1.03v2.925c0 .115.095.21.215.21.115 0 .21-.095.21-.21V.9h1.03Zm3.9936 1.53h1.205c.105 0 .195-.095.195-.2 0-.105-.09-.2-.195-.2h-1.205V.9h1.355c.105 0 .195-.095.195-.2 0-.105-.09-.2-.195-.2h-1.57c-.115 0-.21.095-.21.21v3.08c0 .115.095.21.21.21h1.62c.105 0 .195-.095.195-.2 0-.105-.09-.2-.195-.2h-1.405V2.43Zm5.251 1.36c0 .115.095.21.21.21.36.005.595.01.705.01.64 0 1.135-.17 1.485-.51.345-.34.52-.77.52-1.295 0-.92-.565-1.72-1.965-1.72-.005 0-.255.005-.745.015-.12 0-.21.095-.21.21v3.08Zm.425-2.89c.135 0 .35-.015.52-.015.49 0 .865.12 1.13.365.265.245.395.56.395.955 0 .42-.135.76-.405 1.015-.27.26-.65.39-1.135.39-.03 0-.2-.005-.505-.01V.9ZM47.542.485c-.07 0-.32.005-.75.015-.115 0-.21.1-.21.215V3.79c0 .115.095.21.21.215.285.005.53.01.73.01.765 0 1.27-.335 1.27-1.015 0-.465-.28-.755-.725-.835.36-.125.6-.395.6-.815 0-.525-.34-.865-1.125-.865Zm.03 1.92c.505 0 .795.205.795.57 0 .42-.295.64-.82.64-.205 0-.385-.005-.54-.02v-1.19h.565ZM47.007.9c.25-.01.425-.015.525-.015.475 0 .71.185.71.56 0 .365-.29.585-.675.585h-.56V.9Zm5.076-.22c0 .045.01.085.035.12l1.06 1.7v1.325c0 .115.095.21.215.21.115 0 .21-.095.21-.21V2.5L54.688.77c.025-.04.035-.08.035-.115 0-.1-.07-.18-.19-.18-.085 0-.155.05-.22.155l-.905 1.47-.9-1.47c-.06-.105-.13-.155-.21-.155-.125 0-.215.09-.215.205Zm11.6579 1.86c.105 0 .195-.095.195-.2 0-.105-.09-.2-.195-.2h-1.205V.9h1.355c.105 0 .195-.095.195-.2 0-.105-.09-.2-.195-.2h-1.57c-.115 0-.21.095-.21.21v3.115c0 .115.095.21.215.21.115 0 .21-.095.21-.21V2.54h1.205Zm6.0598 1.355c.04.095.105.14.2.14.125 0 .205-.1.205-.215 0-.025-.005-.055-.015-.085l-1.335-3.09c-.045-.115-.125-.17-.24-.17-.115 0-.195.055-.245.17l-1.34 3.105c-.015.04-.02.07-.02.09 0 .105.075.195.2.195.09 0 .155-.045.19-.14l.4-.955h1.595l.405.955Zm-1.83-1.355.63-1.495.63 1.495h-1.26ZM74.6036.485c-.07 0-.32.005-.75.015-.115 0-.21.1-.21.215V3.79c0 .115.095.21.21.215.285.005.53.01.73.01.765 0 1.27-.335 1.27-1.015 0-.465-.28-.755-.725-.835.36-.125.6-.395.6-.815 0-.525-.34-.865-1.125-.865Zm.03 1.92c.505 0 .795.205.795.57 0 .42-.295.64-.82.64-.205 0-.385-.005-.54-.02v-1.19h.565ZM74.0686.9c.25-.01.425-.015.525-.015.475 0 .71.185.71.56 0 .365-.29.585-.675.585h-.56V.9Zm5.8359-.22c0-.115-.095-.205-.21-.205-.12 0-.215.09-.215.205v1.825c0 .495.135.875.4 1.14.265.265.615.4 1.05.4.39 0 .715-.125.97-.375s.385-.625.385-1.13V.68c0-.115-.095-.205-.21-.205-.12 0-.215.09-.215.205v1.775c0 .78-.345 1.19-.93 1.19-.655 0-1.025-.455-1.025-1.22V.68Zm6.6049 0c0-.115-.095-.205-.21-.205-.12 0-.215.09-.215.205v3.11c0 .115.095.21.21.21h1.745c.105 0 .195-.095.195-.2 0-.105-.09-.2-.195-.2h-1.53V.68Zm7.504 3.215c.04.095.105.14.2.14.125 0 .205-.1.205-.215 0-.025-.005-.055-.015-.085l-1.335-3.09c-.045-.115-.125-.17-.24-.17-.115 0-.195.055-.245.17l-1.34 3.105c-.015.04-.02.07-.02.09 0 .105.075.195.2.195.09 0 .155-.045.19-.14l.4-.955h1.595l.405.955Zm-1.83-1.355.63-1.495.63 1.495h-1.26Z" fill="#fff"/>
</svg>
