<svg width="80" height="79" fill="none" xmlns="http://www.w3.org/2000/svg">
  <path d="m41.6053 33.3741.1521 1.9466 1.4907-1.2611L59.0373 20.702 45.527 36.275l-1.3025 1.5013 1.9819.1511L66.8408 39.5l-20.6344 1.5726-1.9819.1511 1.3025 1.5013 13.5103 15.573-15.7892-13.3576-1.4907-1.2611-.1521 1.9466L40 66.1658l-1.6053-20.5399-.1521-1.9466-1.4907 1.2611L20.9627 58.298 34.473 42.725l1.3025-1.5013-1.9819-.1511L13.1592 39.5l20.6344-1.5726 1.9819-.1511-1.3025-1.5013-13.5103-15.573 15.7892 13.3576 1.4907 1.2611.1521-1.9466L40 12.8342l1.6053 20.5399Z" stroke="#fff" stroke-width="2"/>
</svg>
