<svg width="544" height="825" fill="none" xmlns="http://www.w3.org/2000/svg">
  <g clip-path="url(#a)">
    <path d="M538.542 818.561c3.099-.086 5.411-2.688 5.137-5.769l-33.322-380.801c-.274-3.081-1.884-7.738-3.596-10.323l-42.192-63.991c-1.712-2.585-3.339-7.225-3.63-10.323l-11.233-118.876c-.291-3.082-3.048-5.872-6.13-6.197l-69.247-7.327c-3.083-.326-6.011-3.099-6.507-6.163L338.301 25.2213c-.497-3.0643-3.202-6.6251-6.01-7.9262L296.263.7066c-2.808-1.3011-7.089-.7533-9.486 1.2154l-59.641 48.7898c-2.397 1.9687-4.486 6.0945-4.658 9.1931L208.112 341.225c-.154 3.099 2.243 5.632 5.342 5.632h72.073c3.099 0 6.678 2.312 7.945 5.136l40.069 89.157c1.267 2.825 2.294 7.67 2.26 10.785l-3.408 366.609c-.034 3.098 2.483 5.563 5.583 5.478l200.566-5.461Z" fill="url(#b)"/>
  </g>
  <defs>
    <linearGradient id="b" x1="447.997" y1="793.215" x2="283.838" y2="41.079" gradientUnits="userSpaceOnUse">
      <stop stop-color="#3FFFD8"/>
      <stop offset=".4888" stop-color="#B9C3FC"/>
      <stop offset="1" stop-color="#FF7EA7"/>
    </linearGradient>
    <clipPath id="a">
      <path fill="#fff" d="M0 0h543.93v824.02H0z"/>
    </clipPath>
  </defs>
</svg>
