<svg width="544" height="825" fill="none" xmlns="http://www.w3.org/2000/svg">
  <g clip-path="url(#a)">
    <path d="M220.87 152.503c-.634-3.03-3.562-4.691-6.49-3.664l-49.555 17.222c-2.928 1.01-5.702 4.366-6.182 7.43l-44.075 287.655c-.463 3.064-3.374 5.854-6.456 6.214l-57.2949 6.539c-3.0822.36-5.9932 3.15-6.4898 6.215L-.1593 759.996c-.4795 3.064 1.6439 5.564 4.7604 5.564H240.493c3.099 0 5.822-2.534 6.045-5.615l25.377-357.381c.222-3.099-.12-8.098-.771-11.145L220.87 152.503Z" fill="url(#b)"/>
  </g>
  <defs>
    <linearGradient id="b" x1="196.885" y1="853.307" x2="31.391" y2="95.0511" gradientUnits="userSpaceOnUse">
      <stop stop-color="#3FFFD8"/>
      <stop offset=".4888" stop-color="#B9C3FC"/>
      <stop offset="1" stop-color="#FF7EA7"/>
    </linearGradient>
    <clipPath id="a">
      <path fill="#fff" d="M0 0h543.93v824.02H0z"/>
    </clipPath>
  </defs>
</svg>
