<svg width="42" height="10" fill="none" xmlns="http://www.w3.org/2000/svg">
  <g clip-path="url(#a)" fill="#fff">
    <path d="M41.9934 4.1556V3.419h-.9337V2.2868h-.0273l-.8517.2636-.0273.0272v.8452h-1.3596V2.942c0-.2093.0547-.3954.1602-.5001.0781-.1319.2383-.1861.3985-.1861.1328 0 .2656.0271.3985.1047h.0547v-.76h-.0274c-.1328-.0543-.293-.0776-.5079-.0776-.2656 0-.5078.0776-.7188.1862-.2149.1046-.3711.2636-.5079.473-.1055.2094-.1601.4498-.1601.7134v.5273h-.6407v.7367h.6407V7.242h.9063V4.1595h1.3596v1.9503c0 .8181.3711 1.2136 1.1446 1.2136.1329 0 .2383 0 .3712-.0272.1601-.0542.2383-.0775.293-.1046h.0273v-.7367l-.0547.0271c-.0547.0271-.1055.0543-.1875.0776-.0781.0271-.1328.0271-.1875.0271-.1602 0-.293-.0543-.3712-.1318-.0781-.1047-.1328-.2637-.1328-.5002V4.1634h.9415v-.0078ZM36.2115 5.315c0-.3954-.0782-.7134-.2657-.9227-.1875-.2094-.4258-.318-.7462-.318-.3477 0-.586.1047-.7735.318-.1875.2365-.293.5544-.293.9499 0 .3955.1055.7134.293.9228.1875.2094.4258.318.7735.318.3204 0 .586-.1048.7462-.318.1875-.2094.2657-.5273.2657-.95Zm.4297-1.45c.3477.3411.5079.818.5079 1.4229 0 .6049-.1602 1.105-.5313 1.4772-.3477.3684-.8517.5545-1.465.5545-.5861 0-1.0666-.1861-1.4104-.5273-.3477-.3412-.5313-.8181-.5313-1.423 0-.632.1875-1.1321.5313-1.5005.3712-.3412.879-.5273 1.4924-.5273.6055-.0039 1.0861.155 1.4064.5234Zm-4.8248 1.136c-.293-.1047-.4805-.2094-.5313-.2908-.0781-.0543-.1328-.159-.1328-.2908 0-.1047.0547-.1861.1601-.2637.0782-.0775.2149-.1046.3712-.1046.1602 0 .3203.027.4805.0542.1602.0543.293.1319.3985.1861l.0273.0272v-.822c-.1054-.0543-.2383-.0776-.4258-.1318-.1602-.0272-.3203-.0272-.4532-.0272-.4258 0-.7735.1047-1.0392.318-.293.2093-.4258.5001-.4258.8452 0 .1861.0274.3412.0781.473.0782.1319.1602.2637.2931.3412.1054.1047.293.2094.5586.318.1875.0775.3477.159.4532.2094.1055.0542.1602.1046.2149.186.0273.0544.0547.1048.0547.2094 0 .2366-.1876.3684-.5861.3684-.1601 0-.3203-.0272-.5078-.0776-.1876-.0775-.3712-.159-.5079-.2636l-.0547-.0272v.8686h.0274c.1054.0775.293.1046.4805.159.1875.027.3711.0542.5079.0542.4805 0 .8516-.1047 1.1173-.318.293-.2365.4258-.5272.4258-.8685 0-.2636-.0781-.473-.2149-.659-.1562-.1862-.4219-.3413-.7696-.4731Zm-2.9574.314c0-.3954-.0781-.7134-.2656-.9227-.1876-.2094-.4259-.318-.7462-.318-.3204 0-.586.1047-.7735.318-.1876.2365-.2931.5544-.2931.9499 0 .3955.1055.7134.2931.9228.1875.2094.4531.318.7735.318.3477 0 .586-.1048.7735-.318.1563-.2094.2383-.5273.2383-.95Zm.4532-1.45c.3204.3411.5079.818.5079 1.4229 0 .6049-.1875 1.105-.5587 1.4772-.3477.3684-.8517.5545-1.465.5545-.586 0-1.0665-.1861-1.4103-.5273-.3438-.3412-.5313-.8181-.5313-1.423 0-.632.1875-1.1321.5313-1.5005.3711-.3412.879-.5273 1.5197-.5273.5782-.0039 1.0587.155 1.4064.5234Zm-3.8911-.5002c-.2149 0-.4258.0543-.586.2093-.1602.1319-.2657.2908-.3477.5002h-.0273v-.6591h-.9025v3.823h.9064V5.2878c0-.3412.0781-.6048.2383-.8181.1328-.2094.3477-.318.586-.318.0781 0 .1602.0272.2656.0543.1055.0272.1602.0543.2149.0776l.0274.0271V3.419c-.0821-.0543-.2149-.0543-.3751-.0543Zm-2.9847.0271c-.1602-.0543-.3204-.0543-.5079-.0543-.3985 0-.7735.0776-1.0939.2637-.3203.159-.5586.4226-.7188.7367-.1602.3179-.2383.6862-.2383 1.0817 0 .3684.0781.6863.2383.9732.1602.2908.3711.5273.668.6863.293.159.6134.2365.9845.2365.4259 0 .8009-.0775 1.0939-.2365l.0273-.0271v-.8143l-.0546.0272c-.1329.1047-.2657.186-.4259.2365-.1602.0543-.3203.0775-.4532.0775-.3477 0-.6407-.1046-.8516-.3179-.1875-.2365-.293-.5273-.293-.9228 0-.3683.1055-.6863.3203-.9228.2149-.2365.5079-.3412.8517-.3412.293 0 .586.1047.8517.2908l.0546.0271v-.8685h-.0273c-.1055-.0543-.2383-.1046-.4258-.1318Zm-3.6255-1.582c-.1601 0-.293.0543-.3985.159-.1054.0776-.1601.2094-.1601.3684 0 .1318.0547.2636.1601.3683a.6625.6625 0 0 0 .3985.1319c.1329 0 .2657-.0543.3712-.1319.1054-.1047.1601-.2365.1601-.3683 0-.159-.0547-.2637-.1601-.3684-.1055-.1047-.2344-.159-.3712-.159Zm-.4766 5.4283h.9064V3.4189h-.9064v3.8192Zm-2.1331-5.3235h1.2541V7.238h-.9064V3.8648c0-.2365 0-.5816.0274-.9732-.0547.159-.0782.3412-.1328.4227L14.8456 7.242h-.6134l-1.5978-3.8735c-.0274-.1046-.0781-.2636-.1328-.473h-.0274c.0274.1047.0274.2094.0274.3412.0273.2908.0273.5273.0273.7367V7.242h-.879V1.9146h1.3322l1.3322 3.346c.1328.2909.2149.5274.2383.6863h.0273l.2384-.6862 1.3829-3.3461ZM4.2622.1504H0v4.2185h4.2622V.1504ZM8.9503.1504H4.7154v4.2185h4.235V.1504ZM4.2622 4.7876H0v4.2185h4.2622V4.7876ZM8.9503 4.7876H4.7154v4.2185h4.235V4.7876Z"/>
  </g>
  <defs>
    <clipPath id="a">
      <path fill="#fff" transform="translate(0 .1504)" d="M0 0h41.9934v8.8558H0z"/>
    </clipPath>
  </defs>
</svg>
