<svg width="148" height="151" fill="none" xmlns="http://www.w3.org/2000/svg">
  <g filter="url(#a)">
    <ellipse cx="71" cy="68.0898" rx="21" ry="18" fill="#A597FD"/>
  </g>
  <g filter="url(#b)">
    <ellipse cx="82.5" cy="88.5898" rx="15.5" ry="11.5" fill="#00FFCB"/>
  </g>
  <path d="M89.2729 65.6938c5.2597 3.093 5.2597 10.6991 0 13.7921l-16.7177 9.8307C67.2221 92.4527 60.5 88.6074 60.5 82.4205V62.7592c0-6.1869 6.7221-10.0322 12.0552-6.8961l16.7177 9.8307Z" fill="url(#c)"/>
  <path d="M107.433 46.8675c6.445 8.3427 9.513 18.7919 8.595 29.2802-.917 10.4882-5.752 20.2514-13.549 27.3573-7.7962 7.106-17.9859 11.038-28.5525 11.017-10.5667-.021-20.7405-3.993-28.5084-11.131l.4289-.463c7.6513 7.03 17.6725 10.943 28.0807 10.964 10.4082.02 20.4451-3.852 28.1243-10.852 7.68-6.9994 12.443-16.6161 13.346-26.947.904-10.331-2.118-20.6235-8.466-28.841l.501-.3845Z" fill="#FF598E"/>
  <path d="M107.433 46.8675c6.445 8.3427 9.513 18.7919 8.595 29.2802-.917 10.4882-5.752 20.2514-13.549 27.3573-7.7962 7.106-17.9859 11.038-28.5525 11.017-10.5667-.021-20.7405-3.993-28.5084-11.131l.4289-.463c7.6513 7.03 17.6725 10.943 28.0807 10.964 10.4082.02 20.4451-3.852 28.1243-10.852 7.68-6.9994 12.443-16.6161 13.346-26.947.904-10.331-2.118-20.6235-8.466-28.841l.501-.3845Z" fill="#FF598E"/>
  <path d="M33.8816 85.4156a41.8771 41.8771 0 0 1 .079-26.1097c2.8081-8.4728 8.2509-15.8337 15.5399-21.0163 7.289-5.1827 16.0458-7.918 25.0018-7.8098 8.956.1083 17.6462 3.0545 24.8117 8.4118l-.3795.5041c-7.0581-5.277-15.618-8.179-24.4396-8.2856-8.8217-.1066-17.4471 2.5877-24.6267 7.6926-7.1797 5.1049-12.5409 12.3554-15.3069 20.7011a41.25 41.25 0 0 0-.0778 25.7181l-.6019.1937Z" fill="#00FFCB"/>
  <defs>
    <filter id="a" x="0" y=".0898" width="142" height="136" filterUnits="userSpaceOnUse" color-interpolation-filters="sRGB">
      <feFlood flood-opacity="0" result="BackgroundImageFix"/>
      <feBlend in="SourceGraphic" in2="BackgroundImageFix" result="shape"/>
      <feGaussianBlur stdDeviation="25" result="effect1_foregroundBlur_2034_151"/>
    </filter>
    <filter id="b" x="17" y="27.0898" width="131" height="123" filterUnits="userSpaceOnUse" color-interpolation-filters="sRGB">
      <feFlood flood-opacity="0" result="BackgroundImageFix"/>
      <feBlend in="SourceGraphic" in2="BackgroundImageFix" result="shape"/>
      <feGaussianBlur stdDeviation="25" result="effect1_foregroundBlur_2034_151"/>
    </filter>
    <linearGradient id="c" x1="74" y1="45.0957" x2="74" y2="100.086" gradientUnits="userSpaceOnUse">
      <stop offset=".0463" stop-color="#00FFCB"/>
      <stop offset=".5732" stop-color="#A597FD"/>
      <stop offset="1" stop-color="#FF598E"/>
    </linearGradient>
  </defs>
</svg>
