<svg width="484" height="475" fill="none" xmlns="http://www.w3.org/2000/svg">
  <g clip-path="url(#a)">
    <path d="m107.325 449.657-3.579 5.138 3.579 7.888 3.458-3.133-3.458-9.893ZM123.875 473.797c.85-4.009 5.214-9.007 8.429-11.366M457.442 242.283c-3.355-.261-8.364-.475-12.616-.522M441.826 241.752c-4.57.018-9.495.205-13.111.466" stroke="#fff" stroke-width="2" stroke-miterlimit="10" stroke-linecap="round" stroke-linejoin="round"/>
    <path d="M440.602 269.351c.645.009 1.299.009 1.972.009 1.196 0 2.392-.009 3.542-.037 5.186-.093 9.849-.355 13.466-.746h.009c4.7-.513 7.625-1.222 7.625-2.023V244.54s1.505-11.618 0-11.618c-.915 0-5.962 5.249-9.774 9.352-2.43 2.639-4.374 4.802-4.374 4.802v.009c-3.177.168-6.747.261-10.503.261-3.224 0-6.318-.065-9.13-.196-.57-.606-2.467-2.62-4.729-4.932-4.018-4.131-9.214-9.287-10.111-9.287-1.514 0-.664 11.618-.664 11.618v20.093" stroke="#fff" stroke-width="2" stroke-miterlimit="10" stroke-linecap="round" stroke-linejoin="round"/>
    <path d="M444.835 223.094h-3.019v21.455h3.019v-21.455Z" stroke="#fff" stroke-width="2" stroke-miterlimit="10" stroke-linecap="round" stroke-linejoin="round"/>
    <path d="M443.331 219.542s-5.466-.923-4.242-4.121c1.224-3.198 2.448-2.471 3.485-6.424 2.832 3.021 5.944 7.067.757 10.545Z" fill="url(#b)"/>
    <path d="M359.273 330.674v1.138c-.121-.149-.234-.289-.355-.438v-.01c.131-.242.243-.466.355-.69Z" fill="url(#c)"/>
    <path d="m339.574 370.553 5.682 10.443 20.783-22.49 6.14 22.49 11.812-20-25.063-28.14-19.354 37.697ZM390.271 195.831c9.999 3.403 17.643 34.359 17.643 34.359l-23.316-15.077s-30.025 7.45-32.539 8.075c-7.149 1.753-15.129 3.375-23.334 4.447-.103.01-.205.019-.308.038-7.485.96-42.678 26.368-50.089 26.079 43.79-44.821 39.837-63.459 73.049-71.04M367.732 313.472l-.019.009M126.1 442.506l.28 16.83 5.925 3.095 8.018 4.177s6.448 4.476 4.822 5.185c-10.214 4.456-29.735.997-29.735.997l-8.084-23.133s4.439-6.265 5.841-8.242M372.029 282.302c5.448-.495 9.85-3.021 11.794-8.961" stroke="#fff" stroke-width="2" stroke-miterlimit="10" stroke-linecap="round" stroke-linejoin="round"/>
    <path d="m324.502 229.043 7.102 27.543.664 11.944s.719.457 1.999 1.203M391.495 242.097c-.822 4.634-2.14 11.338-3.102 15.711" stroke="#fff" stroke-width="2" stroke-miterlimit="10" stroke-linecap="round" stroke-linejoin="round"/>
    <path d="m332.266 268.53-10.139 32.876 37.146 9.837 8.438 2.238.019-.009 15.092-11.86.252-.206.916-28.475" stroke="#fff" stroke-width="2" stroke-miterlimit="10" stroke-linecap="round" stroke-linejoin="round"/>
    <path d="M342.304 263.971c-3.551-.784-7.093 1.473-7.869 5.007l-.168.755-1.215 5.492c-.785 3.533 1.477 7.067 5.018 7.85 3.542.784 7.084-1.473 7.869-5.007l.458-2.079.925-4.168c.103-.475.159-.951.159-1.417 0-3.021-2.112-5.753-5.177-6.433Z" stroke="#fff" stroke-width="2" stroke-miterlimit="10" stroke-linecap="round" stroke-linejoin="round"/>
    <path d="M360.405 273.295c0 .261-.018.531-.046.802 0 .009-.01.028-.01.046-.028.187-.065.382-.103.569l-1.317 5.949-.075.345c-.037.177-.084.345-.131.512-1.009 3.264-4.401 5.278-7.793 4.532-3.57-.793-5.841-4.345-5.056-7.907l1.392-6.294c.785-3.561 4.355-5.827 7.925-5.044 1.215.271 2.28.858 3.121 1.66-2.747 2.741-5.233 5.231-6.906 6.909 2.252-.793 5.579-1.949 8.915-3.105.056.336.084.681.084 1.026Z" stroke="#fff" stroke-width="2" stroke-miterlimit="10" stroke-linecap="round" stroke-linejoin="round"/>
    <path d="M373.254 276.083c0 .466-.056.941-.159 1.417l-1.065 4.802-.318 1.445c-.785 3.534-4.317 5.79-7.868 5.007-3.327-.737-5.523-3.907-5.131-7.217 0 0 0-.009.01-.019.018-.205.056-.41.102-.615l.056-.261 1.327-5.986c.038-.177.085-.345.141-.513 0-.018.009-.037.009-.046.28-.868.72-1.641 1.29-2.294 1.495-1.744 3.859-2.648 6.251-2.182h.01c.056 0 .112.019.168.028.308.065.607.159.888.27l-3.523 7.087 7.102-3.86c.458.895.71 1.902.71 2.937ZM388.795 138.386c2.532.42 7.382 2.536 8.223 3.152h.028M376.431 136.736c-3.56 2.639-6.597 6.098-9.167 9.986-8.383 20.848-15.877 35.99-15.877 35.99M404.045 150.582c2.607 6.48 1.673 12.718 1.673 12.718s-.664 2.676-1.608 6.377v.01M401.307 180.661c-.579 2.266-1.14 4.41-1.617 6.173 1.084 2.508-.747 8.783-2.467 9.128-2.775 1.37-7.896.112-13.643-2.9-1.421-.746-2.86-1.594-4.327-2.517h-.009l-.01-.01" stroke="#fff" stroke-width="2" stroke-miterlimit="10" stroke-linecap="round" stroke-linejoin="round"/>
    <path d="m395.392 163.738-11.718-2.881s2.897 5.52 6.822 6.89c3.373.168 4.896-4.009 4.896-4.009Z" fill="url(#d)"/>
    <path d="m379.253 190.544-5.7-11.645 1.887-10.21 16.204 5.585 12.167 8.047.3-12.644M376.432 136.736c5.999-7.217 15.951-14.676 20.278-17.194-2.944 4.448-6.551 15.049-7.924 18.844M397.018 141.547s6.831-7.59 17.231-13.977c-6.784 9.175-10.213 23.021-10.213 23.021" stroke="#fff" stroke-width="2" stroke-miterlimit="10" stroke-linecap="round" stroke-linejoin="round"/>
    <path d="M400.13 185.137s-5.42.801-12.214-2.816M483.065 464.203l-27.502 8.485-18.381.522-3.29-18.909c-.028-.047-.056-.103-.093-.149l-23.624-36.196c-.159-.224-.308-.457-.458-.69 0-.009-.009-.019-.009-.028-.907-1.361-1.785-2.704-2.636-4.037-.102-.14-.205-.299-.299-.448l15.111-22.573 18.737 61.781 22.184 7.263 9.532-3.627 10.728 8.606Z" stroke="#fff" stroke-width="2" stroke-miterlimit="10" stroke-linecap="round" stroke-linejoin="round"/>
    <path d="M358.928 332.856v.01c.112.158.224.317.345.466 3.729 4.904 8.103 10.107 13.27 15.561 5.495 5.819 11.906 11.916 19.316 18.247-2.85 6.294-1.682 13.865 1.981 22.536 2.953 7.003 7.532 14.714 12.934 23.077.093.159.196.317.299.448.85 1.333 1.728 2.676 2.635 4.037 0 .009.009.019.009.028.15.224.299.457.458.69 7.336 11.086 15.784 23.207 23.624 36.196.037.046.065.102.093.149M382.822 301.621l5.888 13.631 13.568 27.161 13.018 26.07 6.438 21.203.15.494 18.736 61.78" stroke="#fff" stroke-width="2" stroke-miterlimit="10" stroke-linecap="round" stroke-linejoin="round"/>
    <path d="M356.93 337.08c.701-1.492 1.373-2.89 1.99-4.205v-.009c.122-.252.234-.485.355-.728 4-8.391 6.523-13.426 8.448-18.051l.009-.009M289.636 405.872l-13.354 23.282-12.382 15.291 18.653 16.308 29.679 8.932-7.373-7.44-8.607-11.618-12.288-15.608 35.735-36.485 8.662-8.848 2.86-2.919s7.261-14.107 14.232-27.599c4.775-9.23 9.411-18.163 11.476-22.088" stroke="#fff" stroke-width="2" stroke-miterlimit="10" stroke-linecap="round" stroke-linejoin="round"/>
    <path d="m319.699 398.534-30.062 7.338 9.728-16.186 13.587-22.62 1.103-7.898 6.373-45.65 1.701-12.112M391.494 242.106c1.523-2.079 3.327-4.867 4.925-8.214v-.01c1.336-2.769 2.458-5.706 3.196-9.063M328.725 227.635c2.345 7.124 12.12 34.648 24.137 38.835M362.441 249.882c-2.103-5.408-8.261-21.249-10.382-26.694M359.274 267.486l-6.411-1.017M406.129 255.971l-.037-.01c-4.729-2.125-11.037-9.314-12.971-15.813M415.998 243.738l-8.195-13.884v-.018" stroke="#fff" stroke-width="2" stroke-miterlimit="10" stroke-linecap="round" stroke-linejoin="round"/>
    <path d="m417.932 262.283-11.803-6.312-.037-.01M417.932 245.239l-1.934-1.501M439.826 272.614c20.204 6.676 21.587-.466 22.353-3.776-.691 0-1.57-.094-2.579-.261h-.009M360.32 272.269c.44-.158.888-.317 1.327-.466 2.271-.793 4.467-1.567 6.252-2.182h.009c.533-.196 1.019-.364 1.468-.522l-.412.82" stroke="#fff" stroke-width="2" stroke-miterlimit="10" stroke-linecap="round" stroke-linejoin="round"/>
    <path d="M362.441 249.882s40.417 12.103 51.575 15.627c11.251-2.144 25.147-6.405 9.42 3.32 2.663.326 13.671.522 17.166.522-1.523 8.195-6.878 9.044-30.95 6.004l.075.019c-3.196-.168-23.054-3.506-23.624-3.608-1.327.727-7.766 4.279-9.523 5.24l1-6.592-5.037 2.732" stroke="#fff" stroke-width="2" stroke-miterlimit="10" stroke-linecap="round" stroke-linejoin="round"/>
    <path d="M358.311 268.465c5.457-5.473 11.952-11.981 15.176-15.208M406.129 255.971s3.691-7.18 10.84-11.478M274.273 180.316l-6.953 1.427M147.07 196.614s-19.101 2.35-33.221 3.488c-30.614 11.645-71.1615 36.363-71.1615 37.547.0093 6.145 5.906 12.233 5.906 12.233l73.3015-25.174M274.273 189.472l-4.121 1.707M128.352 338.749c11.606 22.788 43.313 83.076 65.246 106.153M102.606 380.996l-.018-.149c-.028-.14-7.5418-49.296-7.9903-52.905M112.588 439.131c1.607 6.526 3.243 12.335 4.887 17.118 5.514 5.306 8.906 3.087 8.906 3.087l-.28-16.83" stroke="#fff" stroke-width="2" stroke-miterlimit="10" stroke-linecap="round" stroke-linejoin="round"/>
    <path d="M141.051 260.484s-14.681 11.487-40.912 13.081c-5.2425.317-15.1574 14.545-10.1953 33.688.4485 3.608 4.0463 15.99 4.6631 20.689-25.1938 17.035-39.314 9.129-39.314 9.129s26.6236-18.835 34.6602-29.828C24.9593 353.639.9336 317.481.9336 317.481s68.0588-12.326 101.6534-54.853c8.205-8.83 8.205-22.07 7.009-33.697M148.014 196.885l15.166 12.046M146.902 206.218c.15.177 1.365 4.429 5.841 7.534M156.162 263.654l-2.691 8.326 3.355 12.261 19.549-48.662M179.049 228.931l-1.084 2.704M151.433 185.09l-4.308 10.564M43.006 240.213s-27.0254 2.163-33.0435-4.466c-3.3268 3.319-1.2429 13.986 21.8016 14.135-5.906 4.653-14.9425 5.082-11.4195 5.958 4.1492 1.035 17.5404.327 27.147-7.207M197.626 448.79s-.252 8.224 3.58 10.387l3.7 3.972 6.121-1.436.617-2.228s26.511 4.932 35.417-14.527c-5.57-1.837-12.092.401-15.008.671-5.345-.727-13.943-1.491-17.606-4.895.29 5.278-9.261 15.487-16.821 8.056Z" stroke="#fff" stroke-width="2" stroke-miterlimit="10" stroke-linecap="round" stroke-linejoin="round"/>
    <path d="M231.567 458.217c-1.205-3.926-.075-9.501.757-12.597M197.832 452.221c2.85.588 12.849 4.028 13.821 7.255-3.084.121-8.41-.635-10.148.009M210.101 431.522v.01c-2.112 5.715-4.364 10.955-16.503 13.361" stroke="#fff" stroke-width="2" stroke-miterlimit="10" stroke-linecap="round" stroke-linejoin="round"/>
    <path d="M208.363 435.644s4.673 5.184 6.084 5.622M197.121 444.035l.505 4.755M102.588 380.847l6.691 56.633s12.615 5.772 22.895 4.532c-.626-5.464-3.878-104.932-3.878-104.932l-1.626-33.473 18.119-32.699-16.699 6.471-10.709-6.471M113.166 441.751c.991 4.345 1.365 14.816-2.383 17.799M183.898 198.806l42.576-11.161 36.006-9.912s11.428 6.005 6.644 16.784c-1.701.289-4.514 1.146-7.84 2.303M179.049 228.931l53.733-20.848s11.821-5.044 22.306-9.007M331.604 256.586c-3.29-12.727-7.102-27.543-7.102-27.543-7.757 3.403-38.763 24.998-46.164 24.709-25.839 21.249-57.742 57.519-96.225 89.929-3.177 2.676-6.205 5.147-9.064 7.394l9.205 19.413c8.924-6.34 22.483-16.019 22.483-16.019l8.261 22.322c6.85-5.296 20.671-21.762 20.671-21.762l4.514 23.99 23.717-20.82 3.43 20.82s19.017-14.312 17.923-20.205l4.196 21.278 18.849-19.991-1.178 19.991 7.831-13.035 9.177-65.66s6.597-23.944 10.139-32.885c-.177-3.096-.448-7.982-.663-11.926Z" stroke="#fff" stroke-width="2" stroke-miterlimit="10" stroke-linecap="round" stroke-linejoin="round"/>
    <path d="m210.101 431.532-62.349-138.638 5.728-20.923M147.127 195.654l-6.074 64.83-4.411-41.94 6.644-7.459-8.307-4.14 12.148-11.291ZM286.159 178.666c.664-.252 1.29-.672 1.869-1.175l-.112.308c-1.093.708-2.551 1.454-4.457 2.107-.411.14-.804.28-1.178.41 1.383-.634 2.776-1.24 3.878-1.65ZM328.183 69.6966 290.233 171.58l-6.831.913 39.081-104.9129 5.7 2.1165Z" stroke="#fff" stroke-width="2" stroke-miterlimit="10" stroke-linecap="round" stroke-linejoin="round"/>
    <path d="M439.528 114.461c-8.961-26.7505-21.511-48.5872-35.968-66.4146-29.857-36.783-77.31-54.3867-123.997-45.9765-22.578 4.0653-46.342 12.4009-70.601 26.7785-1.159.6899-.514 2.4522.813 2.2564 15.793-2.3031 32.548 3.599 45.201 20.7365.393.5314 1.131.634 1.673.2424 12.503-8.9137 37.286.3543 41.641 15.4311.187.662.916.9884 1.57.7739 6.429-2.0979 14.653-2.7319 22.614-.7179l5.71 2.1165c7.345 3.6643 13.139 9.5011 16.634 15.282.355.5874 1.112.8112 1.682.4382 13.111-8.4382 38.482 2.5734 41.632 15.3475.168.68.887 1.044 1.551.839 18.531-5.8182 36.856 1.678 47.743 14.042.897 1.016 2.523.084 2.102-1.175Z" fill="url(#e)"/>
    <path d="M283.459 179.906c-1.299.438-2.374.848-3.271 1.212l-3.317 8.895-1.047 2.816c-1.794 4.802-7.139 7.245-11.952 5.454a9.2573 9.2573 0 0 1-2.588-1.463c-3.047-2.434-4.336-6.62-2.897-10.462l-5.654-2.088c-1.934 5.184-.85 10.759 2.355 14.806 1.682 2.126 3.953 3.832 6.682 4.848 7.896 2.928 16.736-1.044 19.717-8.885h.01l1.682-4.513 4.738-12.727c-1.094.708-2.552 1.454-4.458 2.107Z" stroke="#fff" stroke-width="2" stroke-miterlimit="10" stroke-linecap="round" stroke-linejoin="round"/>
    <path d="m280.189 181.118-3.318 8.895c-1.57-.27-2.598-.541-2.598-.541l1.916-6.238s.841-.811 4-2.116ZM290.925 187.486c-1.552 2.21-4.645 2.947-7.747 3.04l4.738-12.727c2.289-1.492 3.009-2.835 3.009-2.835s3.775 7.142 0 12.522Z" stroke="#fff" stroke-width="2" stroke-miterlimit="10" stroke-linecap="round" stroke-linejoin="round"/>
    <path d="m283.403 172.493-.738.103-8.392 7.72 1.916 2.919s3.019-1.52 6.056-2.9c.009-.01.028-.019.037-.019 1.383-.634 2.775-1.24 3.878-1.65.664-.252 1.29-.672 1.869-1.175l2.205-5.911-6.831.913Z" stroke="#fff" stroke-width="2" stroke-miterlimit="10" stroke-linecap="round" stroke-linejoin="round"/>
    <path d="M292.233 171.309s-1.683 3.972-4.206 6.182l2.206-5.911 2-.271ZM383.992 218.526s-6.999 11.617-10.027 11.31c-3.028-.308-10.98 1.221-11.522 3.095-.542 1.874 6.307-1.641 8.485 1.669 2.177 3.319 7.737-1.007 8.382 1.93.645 2.937 1.374 5.324 1.374 5.324l3.298-4.736s5.075.447 5.047 2.489c-.038 2.042 3.224-4.792-1.523-7.431-4.738-2.648-3.514-13.65-3.514-13.65Z" stroke="#fff" stroke-width="2" stroke-miterlimit="10" stroke-linecap="round" stroke-linejoin="round"/>
    <path d="m186.954 152.698-4.579-9.808c-4.588-10.415-11.093-2.527-11.093-2.527s-5.719-6.154-25.679-4.923c-19.952 1.231 0 11.907 0 11.907s-4.392 1.23-4.392 7.384c-14.737.83 1.719 11.086 1.719 11.086.168.541 1.635 4.327 1.804 4.858-4 .14-18.924-3.067-27.344-9.557 2.29.793 4.888-2.051 5.888-5.352-5.579-.14-10.597-3.963-12.485-9.594 4.822 5.743 14.681-15.879 30.259-22.135 9.204-3.702 22.269-.401 29.165 3.002-1.888-5.389-7.934-6.741-7.934-6.741s7.934 0 15.55 3.384c15.793 8.541 9.121 29.016 9.121 29.016Z" fill="url(#f)"/>
    <path d="m181.264 139.766 5.691 12.933s-8.635 6.778-41.351 6.778" stroke="#fff" stroke-width="2" stroke-miterlimit="10" stroke-linecap="round" stroke-linejoin="round"/>
    <path d="M184.795 153.901s1.345 1.669 2.28 5.576c3.869 18.061-6.364 33.669-2.252 42.284-13.532 4.187-31.268-1.641-41.894-36.54 0 0-16.456-10.266-1.719-11.087 0-6.153 4.392-7.394 4.392-7.394s-19.961-10.675 0-11.906c19.961-1.231 25.68 4.923 25.68 4.923s6.504-7.898 11.083 2.517M169.441 158.377l-.664.186" stroke="#fff" stroke-width="2" stroke-miterlimit="10" stroke-linecap="round" stroke-linejoin="round"/>
    <path d="M179.077 157.37c-.065-.41-.009-.821.149-1.175l-7.419 2.07.009.009c.215.159 5.018 3.627 8.569.69-.663-.251-1.187-.839-1.308-1.594ZM182.655 155.597c.056-.13.103-.26.159-.4l-.466.131c.102.083.214.167.307.269ZM163.975 158.927c.224.224.392.494.514.802.186-.28.373-.569.56-.895l-1.074.093ZM160.03 160.548c0-.485.15-.932.402-1.296l-6.28.56c.468.475 3.589 3.3 6.803 2.573-.56-.42-.925-1.082-.925-1.837Z" fill="#fff" stroke="#fff" stroke-width="2" stroke-miterlimit="10" stroke-linecap="round" stroke-linejoin="round"/>
    <path d="M157.481 172.176s-3.093-1.594-5.149 0" stroke="#fff" stroke-width="2" stroke-miterlimit="10" stroke-linecap="round" stroke-linejoin="round"/>
    <path d="M177.309 178.656c6.701-1.715 6.589-7.347 6.589-7.347-.617 9.828-3.084 13.455-3.084 20.075-18.326 4-17.765-4.7-25.914-19.208 8.252 6.117 14.401 8.532 22.409 6.48Z" fill="#fff" stroke="#fff" stroke-width="2" stroke-miterlimit="10" stroke-linecap="round" stroke-linejoin="round"/>
    <path d="M167.992 158.144s1.738.046 6.112 9.352c2.056 4.792 3.513 7.123 3.513 7.123s-6.055-1.799-9.625-3.99M168.703 224.391c1.691 2.312 3.224 4.484 4.607 6.526l-17.148 32.737s6.869-21.781 12.541-39.263ZM176.245 212.969l1.944 8.634-3.458 6.601c-1.999-2.107-3.84-4.037-5.401-5.716.439-1.361.869-2.685 1.299-3.962.832-2.564 1.626-4.942 2.318-7.031 1.738-5.146 2.943-8.531 3.139-8.587l5.318 8.792-5.159 1.269Z" stroke="#fff" stroke-width="2" stroke-miterlimit="10" stroke-linecap="round" stroke-linejoin="round"/>
    <path d="M164.285 216.185c9.868 5.045 8.092 1.045 8.41-3.515 2.15-7.879-7.065-5.109-9.373-3.123 0-.01 1.925 4.018.963 6.638ZM163.322 209.537c-1.926-2.359-10.971-6.75-10.252 1.38-.495 4.55-1.822 8.271 8.784 5.045-.476-2.742 1.468-6.425 1.468-6.425Z" stroke="#fff" stroke-width="2" stroke-miterlimit="10" stroke-linecap="round" stroke-linejoin="round"/>
    <path d="M178.489 232.204c-.178-.187-.355-.382-.523-.569-1.112-1.184-2.196-2.331-3.234-3.431-1.999-2.107-3.84-4.037-5.401-5.716-3.093-3.31-5.112-5.622-5.046-6.303l-1.916-.168c2.327 2.975 4.43 5.763 6.336 8.373 1.691 2.313 3.224 4.485 4.607 6.527 1.112 1.632 2.14 3.189 3.065 4.662 10.027 15.748 10.709 22.76 11.476 27.217 3.317.196.308.028 4.438.401 2.944-11.907-6.195-22.816-13.802-30.993ZM144.781 270.908v12.848l4.495 2.947M396.41 332.856l8.551-57.491" stroke="#fff" stroke-width="2" stroke-miterlimit="10" stroke-linecap="round" stroke-linejoin="round"/>
  </g>
  <defs>
    <linearGradient id="b" x1="442.584" y1="222.71" x2="442.396" y2="204.077" gradientUnits="userSpaceOnUse">
      <stop offset=".0806" stop-color="#3FFFD8"/>
      <stop offset=".4888" stop-color="#B9C3FC"/>
      <stop offset=".7876" stop-color="#FF7EA7"/>
    </linearGradient>
    <linearGradient id="c" x1="358.921" y1="331.24" x2="359.272" y2="331.24" gradientUnits="userSpaceOnUse">
      <stop stop-color="#3FFFD8"/>
      <stop offset=".4888" stop-color="#B9C3FC"/>
      <stop offset="1" stop-color="#FF7EA7"/>
    </linearGradient>
    <linearGradient id="d" x1="383.674" y1="164.304" x2="395.391" y2="164.304" gradientUnits="userSpaceOnUse">
      <stop stop-color="#3FFFD8"/>
      <stop offset=".4888" stop-color="#B9C3FC"/>
      <stop offset="1" stop-color="#FF7EA7"/>
    </linearGradient>
    <linearGradient id="e" x1="219.524" y1="-.3057" x2="450.53" y2="85.7444" gradientUnits="userSpaceOnUse">
      <stop stop-color="#3FFFD8"/>
      <stop offset=".4888" stop-color="#B9C3FC"/>
      <stop offset="1" stop-color="#FF7EA7"/>
    </linearGradient>
    <linearGradient id="f" x1="110.79" y1="145.486" x2="188.353" y2="145.486" gradientUnits="userSpaceOnUse">
      <stop stop-color="#3FFFD8"/>
      <stop offset=".4888" stop-color="#B9C3FC"/>
      <stop offset="1" stop-color="#FF7EA7"/>
    </linearGradient>
    <clipPath id="a">
      <path fill="#fff" d="M0 0h484v475H0z"/>
    </clipPath>
  </defs>
</svg>
