<svg width="279" height="113" fill="none" xmlns="http://www.w3.org/2000/svg">
  <path d="M277.61 83.3407c-1.554 6.623-6.842 12.2361-15.165 16.7003-8.321 4.464-19.637 7.757-33.161 9.749-27.044 3.984-62.846 2.758-100.991-4.633-38.1453-7.3905-71.3848-19.5421-94.2892-33.2044C22.5504 65.1208 13.6958 57.9198 8.1014 50.76 2.5059 43.5988.1969 36.5137 1.7506 29.8908c1.5537-6.623 6.8416-12.2361 15.1644-16.7006 8.3211-4.4635 19.6374-7.7562 33.1609-9.7486C77.1201-.5427 112.923.6832 151.068 8.0741c38.145 7.3909 71.384 19.5425 94.289 33.2048 11.453 6.8318 20.308 14.0328 25.902 21.1926 5.596 7.1612 7.904 14.2463 6.351 20.8692Z" stroke="#B9C3FC" stroke-width=".6"/>
</svg>
