<svg width="587" height="530" viewBox="0 0 587 530" fill="none" xmlns="http://www.w3.org/2000/svg">
<path d="M462.26 228C461.9 224.57 462.65 222.09 463.91 220.3C466.94 215.94 472.88 215.6 472.88 215.6C472.88 215.6 478.43 218.72 482.33 223.96C484.43 226.79 486.05 230.23 486.05 234.13" stroke="white" stroke-width="2" stroke-miterlimit="10" stroke-linecap="round" stroke-linejoin="round"/>
<path d="M461.961 266.07C464.021 267.43 467.141 268.58 470.371 269.12" stroke="white" stroke-width="2" stroke-miterlimit="10" stroke-linecap="round" stroke-linejoin="round"/>
<path d="M501.82 249.82C503.89 250.4 505.82 250.95 507.63 251.51C517.64 254.62 522.29 264.45 522.39 274.92C522.99 337.4 524.77 383.68 524.77 383.68C524.77 383.68 486.17 446.47 440.99 433.13C439.22 423.66 431.39 376.22 440 339.22" stroke="white" stroke-width="2" stroke-miterlimit="10" stroke-linecap="round" stroke-linejoin="round"/>
<path d="M453.311 305.5C456.331 300.33 459.851 295.22 463.941 290.24C469.591 282.66 474.291 275.4 478.111 268.95C485.581 256.3 487.591 253.27 488.881 251.16" stroke="white" stroke-width="2" stroke-miterlimit="10" stroke-linecap="round" stroke-linejoin="round"/>
<path d="M479.471 285.35C477.601 282.19 476.541 278.85 478.931 278.77C480.941 278.69 484.251 278.02 487.391 277.07" stroke="white" stroke-width="2" stroke-miterlimit="10" stroke-linecap="round" stroke-linejoin="round"/>
<path d="M488.881 251.16L492.171 244.55L494.361 239.84" stroke="white" stroke-width="2" stroke-miterlimit="10" stroke-linecap="round" stroke-linejoin="round"/>
<path d="M494.359 239.84L501.819 249.82V249.83C501.819 249.83 501.559 253.56 500.009 258.42" stroke="white" stroke-width="2" stroke-miterlimit="10" stroke-linecap="round" stroke-linejoin="round"/>
<path d="M513.95 254.84C497.65 252.69 496.81 264.71 487.39 277.07C481.03 285.42 450.7 311.81 434.51 313.21C426.56 314.81 428.05 319.33 428.05 319.33C428.05 319.33 422.37 323.15 417.16 323.1C421.68 324.57 430.07 331.88 427.24 343.65C427.67 345.99 439.98 339.2 439.98 339.2C439.98 339.2 442.49 342.42 446.81 340.43C451.13 338.44 474.92 352.84 492.13 326.01C501.81 310.92 503.43 297.73 509.65 299.53" stroke="white" stroke-width="2" stroke-miterlimit="10" stroke-linecap="round" stroke-linejoin="round"/>
<path d="M460.71 242.75C456.11 243.88 451.13 245.78 444.39 249.27C434.82 254.24 407.29 282.9 398.19 284.28C397.58 284.28 395.83 281.5 399.96 273.26C402.22 267.45 395.14 264.41 395.14 264.41C395.14 264.41 396.31 256.84 399.58 252.78C400.1 252.14 399.64 251.19 398.81 251.23C394.17 251.5 386.53 251.93 382.42 248.56C381.86 248.1 381.02 248.4 380.91 249.12C380.19 254.04 379.03 260.27 377.63 261.55C376.06 263 371.73 263.81 372.12 273.65C372.48 282.61 370.41 299.95 370.84 308.57" stroke="white" stroke-width="2" stroke-miterlimit="10" stroke-linecap="round" stroke-linejoin="round"/>
<path d="M381.02 313.35C385.54 314.64 450.93 270.78 471.44 239.69" stroke="white" stroke-width="2" stroke-miterlimit="10" stroke-linecap="round" stroke-linejoin="round"/>
<path d="M436.431 406.33C433.141 409.4 426.351 413.65 417.881 416.89" stroke="white" stroke-width="2" stroke-miterlimit="10" stroke-linecap="round" stroke-linejoin="round"/>
<path d="M358.119 400.03C368.489 413.09 387.359 420.78 403.619 420.78" stroke="white" stroke-width="2" stroke-miterlimit="10" stroke-linecap="round" stroke-linejoin="round"/>
<path d="M390.149 242.75C390.149 242.75 385.139 238.43 376.529 238.08C376.379 236.72 385.679 234.15 393.139 235.43C394.369 233.91 390.669 226.55 386.489 223.41C386.199 223.18 385.889 222.98 385.559 222.8C380.449 220 374.729 224.19 377.149 222.36C378.369 220.43 379.969 218.35 381.619 216.36C381.879 216.03 382.149 215.7 382.429 215.38C383.449 214.15 384.479 212.96 385.419 211.87C386.309 210.84 384.979 208.17 382.719 209.61C381.699 210.26 380.429 210.98 379.039 211.85C375.659 213.95 371.619 216.86 368.969 221.51C368.889 221.64 368.809 221.77 368.739 221.91C364.109 230.4 369.989 240.04 373.309 242.75C375.439 244.49 379.479 246.89 382.099 248.38C382.209 248.44 382.319 248.5 382.419 248.56C382.429 248.56 382.429 248.57 382.439 248.57C383.719 249.3 384.579 249.76 384.579 249.76" stroke="white" stroke-width="2" stroke-miterlimit="10" stroke-linecap="round" stroke-linejoin="round"/>
<path d="M390.15 223.29C398.37 231.35 401.09 245.93 398.81 251.23" stroke="white" stroke-width="2" stroke-miterlimit="10"/>
<path d="M390.751 317.91C384.651 314.9 377.041 311.4 370.841 308.57C361.481 304.3 352.811 300.74 347.201 299.42C311.981 286.75 243.491 376.22 222.711 394.73C223.731 408.53 242.121 418.12 242.121 418.12C242.121 418.12 273.741 403.39 300.111 378.48" stroke="white" stroke-width="2" stroke-miterlimit="10" stroke-linecap="round" stroke-linejoin="round"/>
<path d="M353.471 354.97C380.151 372.57 399.751 380.34 420.441 382.78C425.751 383.41 430.451 383.56 436.041 383.56" stroke="white" stroke-width="2" stroke-miterlimit="10" stroke-linecap="round" stroke-linejoin="round"/>
<path d="M353.47 354.97C329.71 328.46 320.87 337.4 320.87 337.4C295.97 362.3 275.23 477.63 274.9 479.58C274.51 481.94 296.18 484.94 306.55 481.13C315.31 471.1 355.37 404.85 368.42 382.83C369.13 381.62 370.41 380.27 371.76 380.65C382.09 383.57 392.98 384.8 405.9 383.57C406.09 383.57 427.16 383.6 436.05 383.57" stroke="white" stroke-width="2" stroke-miterlimit="10" stroke-linecap="round" stroke-linejoin="round"/>
<path d="M514.079 210.23C514.079 210.23 517.239 201.06 521.979 203.62C526.739 206.17 520.459 226.61 509.289 223.4" stroke="white" stroke-width="2" stroke-miterlimit="10"/>
<path d="M517.98 393.35H525.88V510.85H538.21V262.24H519.67L521.17 266.24L530.88 266.02V383.68H524.77" stroke="white" stroke-width="2" stroke-miterlimit="10" stroke-linecap="round" stroke-linejoin="round"/>
<path d="M436.039 383.56L403.619 383.68V510.85H417.879V393.35H436.429" stroke="white" stroke-width="2" stroke-miterlimit="10" stroke-linecap="round" stroke-linejoin="round"/>
<path d="M468.42 238.08L433.97 260.04C433.97 260.04 434.13 267.16 436.8 269.6C439.47 272.04 426.36 272.36 426.36 272.36C426.36 272.36 383.85 311.34 381.01 313.35" stroke="white" stroke-width="2" stroke-miterlimit="10" stroke-linecap="round" stroke-linejoin="round"/>
<path d="M490.149 247.96C485.509 250.08 476.199 254.06 471.889 253.31C471.889 253.31 471.889 262.56 470.379 269.12C470.099 270.35 469.759 271.49 469.359 272.45C470.899 273.25 473.039 273.38 475.809 272.78" stroke="white" stroke-width="2" stroke-miterlimit="10" stroke-linecap="round" stroke-linejoin="round"/>
<path d="M467.2 245.72C467.2 247.95 471.88 253.3 471.88 253.3C471.88 253.3 463.88 261.03 460.54 268.95C458.81 267.54 453.66 262.88 454.02 260.02" stroke="white" stroke-width="2" stroke-miterlimit="10" stroke-linecap="round" stroke-linejoin="round"/>
<path d="M461.96 352.68C466.61 358.63 474.3 368.01 488.42 368.68C489.71 374.97 489.05 384.77 488.88 387.64C488.71 390.51 468.71 398.68 458.88 398.84C456.58 385.05 455.55 350.35 461.96 352.68Z" stroke="white" stroke-width="2" stroke-miterlimit="10" stroke-linecap="round" stroke-linejoin="round"/>
<path d="M283.03 487.54C283.19 486.97 283.91 486.81 284.3 487.25C285.84 488.99 288.87 492.01 291.63 492.38C295.55 492.91 298.96 492.09 299.46 490.42C299.96 488.76 301.19 495.53 301.31 498.42V501.25L300.77 506.35C300.77 506.35 299.93 509.16 288.06 508.75C283.67 508.97 267.63 516.36 261.12 512.01C258.77 510.81 256.9 508.28 256.08 506.35C255.63 505.28 256.15 504.05 257.24 503.64C261.21 502.15 271.57 498.23 273.4 497.3C275.67 496.15 278.63 495.43 281.32 491.24C282.3 489.71 282.79 488.44 283.03 487.54Z" stroke="white" stroke-width="2" stroke-miterlimit="10" stroke-linecap="round" stroke-linejoin="round"/>
<path d="M298.9 482.68L298.97 491.35" stroke="white" stroke-width="2" stroke-miterlimit="10" stroke-linecap="round" stroke-linejoin="round"/>
<path d="M285.321 482.53L284.311 487.25" stroke="white" stroke-width="2" stroke-miterlimit="10" stroke-linecap="round" stroke-linejoin="round"/>
<path d="M301.21 502.36C301.21 502.36 295.52 504.79 289.71 504.71C288.44 504.69 287.2 505 286.04 505.5C281.89 507.29 272.83 509.24 264.8 509.17C255.99 509.09 256.16 504.61 256.16 504.61" stroke="white" stroke-width="2" stroke-miterlimit="10"/>
<path d="M219.23 406.65C219.23 406.65 217.48 413.12 219.87 416.24C222.26 419.37 225.24 421.2 226.76 420.38C227.86 419.79 224.08 424.7 221.89 427.48C220.94 428.68 219.87 429.77 218.68 430.73L216.47 432.52C216.47 432.52 213.9 433.91 205.83 425.26C202.59 422.32 179.32 413.94 185.48 400.63C185.82 399.89 186.57 399.44 187.31 399.78C190.79 401.36 201.54 406.22 203.56 406.88C205.97 407.67 210.02 407.57 214.74 406.66C218.44 405.94 219.23 406.65 219.23 406.65Z" stroke="white" stroke-width="2" stroke-miterlimit="10" stroke-linecap="round" stroke-linejoin="round"/>
<path d="M217.79 431.451C217.79 431.451 210.73 425.901 208.35 423.171C207.87 422.621 207.28 422.191 206.63 421.891C201.51 419.491 185.24 411.38 186.25 399.75" stroke="white" stroke-width="2" stroke-miterlimit="10" stroke-linecap="round" stroke-linejoin="round"/>
<path d="M233.81 412.39L226.4 419.87" stroke="white" stroke-width="2" stroke-miterlimit="10" stroke-linecap="round" stroke-linejoin="round"/>
<path d="M225.22 402.64L220.51 405.21" stroke="white" stroke-width="2" stroke-miterlimit="10" stroke-linecap="round" stroke-linejoin="round"/>
<path d="M390.64 228.68C390.64 228.68 384.16 226.82 381.88 227.23C379.6 227.63 375.62 230.79 375.25 231.35" stroke="white" stroke-width="2" stroke-miterlimit="10" stroke-linecap="round" stroke-linejoin="round"/>
<path d="M417.879 323.07C417.879 323.07 401.769 318.93 400.869 318.59C399.969 318.26 388.809 317.92 386.639 317.59C384.469 317.26 391.139 324.33 398.139 326.79C405.139 329.25 406.909 330.75 411.279 333.59C415.639 336.42 425.169 339.1 427.619 338.58" stroke="white" stroke-width="2" stroke-miterlimit="10" stroke-linecap="round" stroke-linejoin="round"/>
<path d="M427.62 344.14C427.62 344.14 419.84 340.66 417.17 336.36" stroke="white" stroke-width="2" stroke-miterlimit="10" stroke-linecap="round" stroke-linejoin="round"/>
<path d="M50.83 178.66L43.01 205.32C41.79 209.49 42.69 214 45.43 217.38C53.27 227.04 69.15 246.61 71.81 250.1C75.37 254.77 85.05 260.21 89.49 261.77C93.94 263.32 99.49 276.21 96.3 275.55C93.2 274.9 86.38 267.58 85.96 267.12" stroke="white" stroke-width="2" stroke-miterlimit="10" stroke-linecap="round" stroke-linejoin="round"/>
<path d="M15.2709 222.05C8.0909 200.68 8.6709 155.27 26.6709 136.94C29.4109 134.14 46.7209 131.24 58.6609 127.63" stroke="white" stroke-width="2" stroke-miterlimit="10" stroke-linecap="round" stroke-linejoin="round"/>
<path d="M65.2695 264.35C66.5795 265.23 67.3795 265.87 67.4895 266.21C67.6295 266.65 68.0995 267.57 68.8295 268.8C72.6095 275.13 83.5595 289.77 95.4895 289.77C99.6395 289.77 86.3995 267.86 85.9595 267.12L85.9495 267.11C85.9395 267.1 85.9395 267.1 85.9395 267.1" stroke="white" stroke-width="2" stroke-miterlimit="10" stroke-linecap="round" stroke-linejoin="round"/>
<path d="M70.8402 110.61C70.7902 103.34 70.1602 95.7695 70.1602 95.7695" stroke="white" stroke-width="2" stroke-miterlimit="10"/>
<path d="M88.9707 118.5L92.0207 120.51L94.3707 118.4" stroke="white" stroke-width="2" stroke-miterlimit="10" stroke-linecap="round" stroke-linejoin="round"/>
<path d="M72.9805 111.18L77.6505 126.12L79.0105 130.48L93.9105 178.12L112.15 235.48L123.94 166.32L103.71 130.42" stroke="white" stroke-width="2" stroke-miterlimit="10" stroke-linecap="round" stroke-linejoin="round"/>
<path d="M99.2695 118.4V115.2" stroke="white" stroke-width="2" stroke-miterlimit="10" stroke-linecap="round" stroke-linejoin="round"/>
<path d="M44.9902 198.56C58.6602 222.41 72.7002 222.84 71.8102 241.95C70.6202 243.16 69.4802 244.42 68.3702 245.74" stroke="white" stroke-width="2" stroke-miterlimit="10" stroke-linecap="round" stroke-linejoin="round"/>
<path d="M72.3495 109.3C72.3495 109.3 115.709 234.66 112.599 272.88C109.489 311.1 111.679 374.99 95.2795 400.78C82.5695 420.78 37.4895 415.55 37.4895 415.55C37.4895 415.55 29.4595 321.07 55.9895 265.41" stroke="white" stroke-width="2" stroke-miterlimit="10" stroke-linecap="round" stroke-linejoin="round"/>
<path d="M88.6812 121.22C88.6812 121.22 93.4612 119.63 94.6512 121.22C95.8412 122.81 95.0512 126.59 94.6512 127.79C94.2512 128.98 88.6812 127.79 88.6812 127.79C88.6812 127.79 87.4912 123.51 88.6812 121.22Z" stroke="white" stroke-width="2" stroke-miterlimit="10" stroke-linecap="round" stroke-linejoin="round"/>
<path d="M88.6798 127.791C88.6798 127.791 82.2098 130.401 79.0098 130.481" stroke="white" stroke-width="2" stroke-miterlimit="10" stroke-linecap="round" stroke-linejoin="round"/>
<path d="M77.6507 126.12C78.1407 124.95 78.7307 124 78.7307 124C78.7307 124 74.5507 115.65 77.5407 115.65C80.5207 115.65 88.6806 121.22 88.6806 121.22" stroke="white" stroke-width="2" stroke-miterlimit="10" stroke-linecap="round" stroke-linejoin="round"/>
<path d="M94.7715 121.22C94.7715 121.22 102.931 115.65 105.911 115.65C108.901 115.65 104.721 124 104.721 124C104.721 124 107.711 128.78 105.911 130.17C104.121 131.56 94.7715 127.78 94.7715 127.78" stroke="white" stroke-width="2" stroke-miterlimit="10" stroke-linecap="round" stroke-linejoin="round"/>
<path d="M157.391 155.99C157.741 154.62 157.861 153.49 158.241 152.14C158.531 151.58 160.371 138.2 166.621 131.01C167.561 129.93 169.381 130.61 169.311 132.04C169.221 133.86 168.571 136.24 166.981 141.94C171.251 140.83 175.211 138.38 179.651 134.38C184.101 130.38 193.951 122.85 197.501 124.42C197.501 126.44 188.571 144.69 183.721 148.67C180.491 152.77 169.741 160.17 170.191 161.5" stroke="white" stroke-width="2" stroke-miterlimit="10" stroke-linecap="round" stroke-linejoin="round"/>
<path d="M130.961 223.13C137.841 233.62 142.641 235.48 148.421 235.48" stroke="white" stroke-width="2" stroke-miterlimit="10" stroke-linecap="round" stroke-linejoin="round"/>
<path d="M116.08 131.79C118.48 133.11 121.37 134.72 124.83 136.66C141.98 146.26 142.83 184.88 144.83 190.21" stroke="white" stroke-width="2" stroke-miterlimit="10" stroke-linecap="round" stroke-linejoin="round"/>
<path d="M84.5701 80.0998C84.5701 80.0998 81.3301 83.8398 83.0701 85.3398C84.8101 86.8398 91.8001 90.0798 93.5401 89.5798C95.2901 89.0798 97.5301 84.8698 97.5301 84.8698C97.5301 84.8698 89.4801 69.0698 90.0401 63.6498C90.6001 58.2598 102.81 55.0098 106.64 60.5598" stroke="white" stroke-width="2" stroke-miterlimit="10" stroke-linecap="round" stroke-linejoin="round"/>
<path d="M104.502 241.739C105.748 241.554 106.551 240.009 106.295 238.288C106.04 236.567 104.823 235.322 103.578 235.507C102.332 235.692 101.529 237.237 101.785 238.958C102.04 240.679 103.257 241.924 104.502 241.739Z" stroke="white" stroke-width="2" stroke-miterlimit="10" stroke-linecap="round" stroke-linejoin="round"/>
<path d="M105.62 253.24C106.879 253.24 107.9 251.83 107.9 250.09C107.9 248.351 106.879 246.94 105.62 246.94C104.361 246.94 103.34 248.351 103.34 250.09C103.34 251.83 104.361 253.24 105.62 253.24Z" stroke="white" stroke-width="2" stroke-miterlimit="10" stroke-linecap="round" stroke-linejoin="round"/>
<path d="M122.354 241.608C123.6 241.423 124.402 239.878 124.147 238.158C123.892 236.437 122.675 235.191 121.429 235.376C120.184 235.561 119.381 237.106 119.636 238.827C119.892 240.548 121.108 241.793 122.354 241.608Z" stroke="white" stroke-width="2" stroke-miterlimit="10" stroke-linecap="round" stroke-linejoin="round"/>
<path d="M123.469 253.11C124.729 253.11 125.749 251.699 125.749 249.96C125.749 248.22 124.729 246.81 123.469 246.81C122.21 246.81 121.189 248.22 121.189 249.96C121.189 251.699 122.21 253.11 123.469 253.11Z" stroke="white" stroke-width="2" stroke-miterlimit="10" stroke-linecap="round" stroke-linejoin="round"/>
<path d="M104.19 66.9404C104.2 67.0404 104.22 67.1404 104.22 67.2404C104.22 68.7604 102.99 69.9904 101.47 69.9904C99.9499 69.9904 98.7199 68.7604 98.7199 67.2404C98.7199 66.8504 98.7999 66.4804 98.9499 66.1504C96.6999 67.1304 96.1699 70.0104 96.1699 70.0104C96.1699 70.0104 103.89 74.6004 105.27 67.5804C104.89 67.3304 104.54 67.1204 104.19 66.9404Z" fill="white" stroke="white" stroke-width="2" stroke-miterlimit="10" stroke-linecap="round" stroke-linejoin="round"/>
<path d="M79.2099 67.1403C79.2099 67.1703 79.2199 67.2003 79.2199 67.2403C79.2199 68.7603 77.9899 69.9903 76.4699 69.9903C74.9499 69.9903 73.7199 68.7603 73.7199 67.2403C73.7199 66.7003 73.8799 66.2003 74.1499 65.7803C72.7499 66.0703 71.1599 66.9103 69.4199 68.6603C77.8599 74.8903 80.6399 68.6603 80.6399 68.6603C80.6399 68.6603 80.1299 67.8903 79.2099 67.1403Z" fill="white" stroke="white" stroke-width="2" stroke-miterlimit="10" stroke-linecap="round" stroke-linejoin="round"/>
<path d="M93.9104 95.7703C93.9104 95.7703 88.3204 92.8103 86.0004 103.11C84.3104 110.61 105.62 110.61 93.9104 95.7703Z" stroke="white" stroke-width="2" stroke-miterlimit="10"/>
<path d="M108.49 346.62C111.75 351.37 114.09 353.7 118.88 362.51C122.62 370.42 123.99 372.93 125.73 390.39C120.61 425.16 126.17 495.83 126.17 495.83C126.17 495.83 135.46 500.56 151.41 493.73C148.96 479.35 169.31 385.37 167.89 379.06C167.33 374 164.18 364.26 159.96 352.57C155.43 339.99 149.67 325.15 144.61 311.48C144.6 311.47 144.6 311.47 144.6 311.46" stroke="white" stroke-width="2" stroke-miterlimit="10"/>
<path d="M117.92 246.01C117.82 246.01 117.72 246.01 117.62 246.01C115.36 245.97 112.93 245.92 110.43 245.86" stroke="white" stroke-width="2" stroke-miterlimit="10" stroke-linecap="round" stroke-linejoin="round"/>
<path d="M117.92 246.01C117.92 246.01 115.78 256.17 112.75 269.73C112.75 269.74 112.75 269.74 112.75 269.74" stroke="white" stroke-width="2" stroke-miterlimit="10" stroke-linecap="round" stroke-linejoin="round"/>
<path d="M88.9692 407.28C88.8992 409.13 88.8392 410.98 88.7692 412.84C87.4192 451.41 87.3492 491.22 89.2592 497.43C83.9992 500.74 70.7292 498.18 69.7092 495.83C59.4892 473.13 56.2192 442.06 55.6992 416.06" stroke="white" stroke-width="2" stroke-miterlimit="10"/>
<path d="M149.3 494.57C149.3 494.57 162.99 505.29 171.05 505.12C179.12 504.94 167.89 511.61 158.78 509.15C149.66 506.7 143.88 500.91 143.88 500.91L133 500.39V503.9L126.69 503.72L126.16 495.83" stroke="white" stroke-width="2" stroke-miterlimit="10" stroke-linecap="round" stroke-linejoin="round"/>
<path d="M88.6892 497.75C88.6892 497.75 99.0192 506.19 105.459 506.05C111.899 505.91 102.939 511.23 95.6592 509.27C88.3792 507.31 83.7592 502.69 83.7592 502.69L75.0792 502.27V505.07L70.0392 504.93L69.6992 495.83" stroke="white" stroke-width="2" stroke-miterlimit="10" stroke-linecap="round" stroke-linejoin="round"/>
<path d="M71.0902 110.26L58.6602 127.62L60.6702 165.16H73.5602L63.8402 173.6L107.09 229.19" stroke="white" stroke-width="2" stroke-miterlimit="10" stroke-linecap="round" stroke-linejoin="round"/>
<path d="M88.7695 412.84C104.65 414.72 114.13 414.36 123.99 410.18" stroke="white" stroke-width="2" stroke-miterlimit="10"/>
<path d="M129.641 202.81C129.641 202.81 129.641 255.78 144.601 311.46C144.601 311.47 144.601 311.47 144.611 311.48" stroke="white" stroke-width="2" stroke-miterlimit="10" stroke-linecap="round" stroke-linejoin="round"/>
<path d="M115.34 223.13C115.34 223.13 116.24 282.67 160.82 354.97" stroke="white" stroke-width="2" stroke-miterlimit="10" stroke-linecap="round" stroke-linejoin="round"/>
<path d="M102.01 130.12C102.01 130.12 125.57 171.44 117.97 200.67" stroke="white" stroke-width="2" stroke-miterlimit="10" stroke-linecap="round" stroke-linejoin="round"/>
<path d="M97.4707 128.78C97.4707 128.78 116.651 174.53 117.541 203.89" stroke="white" stroke-width="2" stroke-miterlimit="10" stroke-linecap="round" stroke-linejoin="round"/>
<path d="M92.4707 128.3C92.4707 128.3 115.961 179.11 112.771 231.88L133.761 171.48L127.981 165.4L135.311 163.15L116.081 131.79L105.031 110.87" stroke="white" stroke-width="2" stroke-miterlimit="10" stroke-linecap="round" stroke-linejoin="round"/>
<path d="M84.9492 129.13C84.9492 129.13 108.679 190.11 107.909 222.15" stroke="white" stroke-width="2" stroke-miterlimit="10" stroke-linecap="round" stroke-linejoin="round"/>
<path d="M64.2207 63.9599C69.2107 54.4699 78.9807 58.2699 81.7307 59.2899" stroke="white" stroke-width="2" stroke-miterlimit="10" stroke-linecap="round" stroke-linejoin="round"/>
<path d="M74.2608 253.24C74.2608 253.24 59.9208 267.93 63.8408 271.37C66.7508 273.48 68.8308 268.79 68.8308 268.79" stroke="white" stroke-width="2" stroke-miterlimit="10" stroke-linecap="round" stroke-linejoin="round"/>
<path d="M63.8395 271.37C63.8395 271.37 16.5595 236.83 15.2695 222.05" stroke="white" stroke-width="2" stroke-miterlimit="10" stroke-linecap="round" stroke-linejoin="round"/>
<path d="M158.241 152.13C156.871 151.75 155.151 151.54 154.811 152.76C154.631 153.64 155.691 154.8 157.391 155.99C161.951 159.17 171.111 162.57 173.481 161.6C173.741 160.7 173.121 159.75 172.281 158.93" stroke="white" stroke-width="2" stroke-miterlimit="10" stroke-linecap="round" stroke-linejoin="round"/>
<path d="M148.42 235.48C148.42 235.48 173.48 235.48 173.48 161.6" stroke="white" stroke-width="2" stroke-miterlimit="10" stroke-linecap="round" stroke-linejoin="round"/>
<path d="M154.81 152.76L144.83 190.21" stroke="white" stroke-width="2" stroke-miterlimit="10" stroke-linecap="round" stroke-linejoin="round"/>
<path d="M512.43 215.6C516.44 217.05 516.48 211.53 517.48 209.86C518.47 208.19 520.87 207.68 521.31 208.68" stroke="white" stroke-width="2" stroke-miterlimit="10" stroke-linecap="round" stroke-linejoin="round"/>
<path d="M117.38 61.0803C119.37 59.5503 122.57 49.8203 118.96 44.1503C118.46 38.7603 109.15 35.4503 108.8 35.7503C109.05 35.2503 113.6 30.9303 110.53 25.2603C107.41 19.4803 103.48 27.3103 98.3704 22.8703C93.2604 18.4203 66.9904 28.8703 60.4604 23.0903C53.9404 17.3103 47.8504 22.8603 46.8004 32.4203C30.1304 31.7503 32.5704 35.5303 28.7904 42.2003C19.7904 37.8603 13.7904 63.4503 29.2104 66.6403C19.9604 82.2503 38.5104 83.3003 42.0504 79.5603C37.1804 84.2503 45.3304 88.0503 46.9804 86.6603C39.1204 102.68 58.1404 102.68 59.2404 101.18C58.8204 105.54 61.7604 109.67 67.2204 109.21C68.5904 115.5 78.9504 112.65 79.8004 107.07C80.6404 101.49 71.6204 104.39 72.7604 101.52C73.9104 98.6503 75.5104 95.4503 72.7604 92.4703C70.0104 89.4903 68.9004 95.9103 66.0004 92.4703C68.9004 87.9203 66.3304 85.7803 63.7004 83.3003C61.0604 80.8203 58.2104 87.4303 58.3204 85.3703C58.4404 83.3103 58.2104 80.4403 56.9604 79.4103C55.5804 78.2603 54.3604 77.7803 53.2904 77.7503C53.2904 77.7503 53.2904 77.7503 53.2904 77.7403C53.2404 77.1903 53.2004 76.4003 53.1504 75.4603C53.8804 75.8303 54.8804 76.0903 55.7804 75.3903C60.6804 68.7403 53.6204 65.3103 53.6204 65.3103C53.6204 65.3103 61.1004 57.0403 54.5004 53.0203C55.5004 52.4303 56.5604 51.4303 57.4004 49.7503C59.6204 45.3103 54.8104 39.9803 54.8104 39.9803C55.9704 38.0603 57.7004 37.2703 60.2904 36.5803C65.7604 35.1303 73.0604 39.4703 84.3304 42.9603C91.1904 44.5403 91.6604 40.5003 96.9504 36.4903C100.37 34.0003 102.81 36.3703 103.25 37.4603C105.05 40.5203 110.54 49.4203 110.23 55.6703C108.16 63.8603 109.87 75.1303 109.87 75.1303C109.87 75.1303 111.42 76.2003 113.25 76.2003C115.07 76.2003 116.62 73.3003 118 68.1503C119.37 63.0103 115.4 62.6103 117.38 61.0803ZM52.1204 83.2203C51.6104 83.4103 51.0304 83.2903 50.3404 82.9303C49.8104 82.6403 49.2004 82.2203 48.5004 81.6803C47.1704 80.6703 45.4904 79.2703 43.2904 77.7503C38.4604 74.3903 38.9604 66.2603 44.2904 65.3303C49.6204 64.3903 50.4604 74.1003 50.4604 74.1003C50.4604 74.1003 51.1904 75.9703 51.8004 78.0203C51.9904 78.6703 52.1704 79.3403 52.3104 79.9703C52.6704 81.5903 52.7604 82.9803 52.1204 83.2203Z" fill="url(#paint0_linear)"/>
<path d="M379.293 206.732C379.363 206.212 375.946 205.32 371.661 204.74C367.376 204.16 363.844 204.111 363.774 204.631C363.704 205.151 367.121 206.043 371.406 206.623C375.691 207.203 379.223 207.252 379.293 206.732Z" stroke="white" stroke-width="2" stroke-miterlimit="10" stroke-linecap="round" stroke-linejoin="round"/>
<path d="M379.279 206.75C379.279 206.75 379.459 209.12 379.039 211.85" stroke="white" stroke-width="2" stroke-miterlimit="10" stroke-linecap="round" stroke-linejoin="round"/>
<path d="M382.43 215.38C408.36 216.25 423.43 222.65 423.43 222.65C422.14 223.74 424.72 224.86 399 222.61C395.78 222.95 392.84 223.17 390.15 223.29C388.87 223.35 387.65 223.39 386.49 223.41" stroke="white" stroke-width="2" stroke-miterlimit="10" stroke-linecap="round" stroke-linejoin="round"/>
<path d="M368.969 221.51C363.179 219.74 362.029 217.36 362.029 217.36L363.749 204.66V204.64" stroke="white" stroke-width="2" stroke-miterlimit="10" stroke-linecap="round" stroke-linejoin="round"/>
<path d="M371.52 199.15C371.52 199.15 366.651 194.17 375.261 185C383.871 175.82 379.041 169.73 379.041 169.73" stroke="white" stroke-width="2" stroke-miterlimit="10" stroke-linecap="round" stroke-linejoin="round"/>
<path d="M551.641 196.53C553.571 195.08 576.141 192.93 577.981 169.1C572.371 174.29 557.081 170.06 550.401 171.87C559.741 164.63 566.481 146.93 566.271 136.93C564.231 136.81 555.821 147.09 533.991 156.43C533.831 155.94 551.431 134.71 548.321 122.26C546.551 127.26 520.321 129.76 516.451 135.82C513.961 129.89 517.721 115.24 516.881 114.26C480.981 111.37 471.991 141.05 470.751 149.89C470.751 149.84 470.751 149.76 470.761 149.66L470.751 149.89C470.751 148.32 471.891 140.54 461.401 133.07C465.211 143.26 451.241 146.3 453.301 162.06C451.791 160.04 450.601 157.74 448.511 154.74C447.891 156.62 450.631 165.44 452.131 167.26C453.621 169.08 443.161 160.81 443.161 160.81C443.001 162.7 436.991 175.14 449.101 192.59C451.581 198.51 461.261 203.71 461.261 203.71C461.261 203.71 465.351 195.61 465.581 194.93C466.651 191.61 466.001 189.1 466.391 185C470.401 141.93 515.561 170.49 515.561 170.49C521.851 177 518.411 194.31 514.101 210.24C514.101 210.24 517.261 201.07 522.001 203.63C526.761 206.18 520.481 226.62 509.311 223.41C508.561 225.08 507.711 226.73 506.831 228.34C506.311 229.3 505.741 230.2 505.161 231.02C505.151 231.06 505.121 231.09 505.091 231.14C504.871 231.44 504.651 231.73 504.441 232.02C504.111 232.46 503.771 232.88 503.421 233.27C503.421 233.27 510.561 240.97 514.301 241.94C519.221 243.23 526.161 247.7 527.501 249.13C527.691 247.32 526.221 240.33 522.721 236.09C529.281 237.52 539.881 238.3 545.231 237.26C545.111 233.75 534.671 230.23 532.701 228.19C536.081 227.35 553.561 224.87 562.121 224.87C561.561 219.88 550.831 204.77 549.021 204.15C553.011 201.61 566.511 205.27 571.451 203.18C568.301 201.02 558.781 196.1 551.641 196.53ZM551.641 196.53C553.571 195.08 576.141 192.93 577.981 169.1C572.371 174.29 557.081 170.06 550.401 171.87C559.741 164.63 566.481 146.93 566.271 136.93C564.231 136.81 555.821 147.09 533.991 156.43C533.831 155.94 551.431 134.71 548.321 122.26C546.551 127.26 520.321 129.76 516.451 135.82C513.961 129.89 517.721 115.24 516.881 114.26C480.981 111.37 471.991 141.05 470.751 149.89C470.751 149.84 470.751 149.76 470.761 149.66L470.751 149.89C470.751 148.32 471.891 140.54 461.401 133.07C465.211 143.26 451.241 146.3 453.301 162.06C451.791 160.04 450.601 157.74 448.511 154.74C447.891 156.62 450.631 165.44 452.131 167.26C453.621 169.08 443.161 160.81 443.161 160.81C443.001 162.7 436.991 175.14 449.101 192.59C451.581 198.51 461.261 203.71 461.261 203.71C461.261 203.71 465.351 195.61 465.581 194.93C466.651 191.61 466.001 189.1 466.391 185C470.401 141.93 515.561 170.49 515.561 170.49C521.851 177 518.411 194.31 514.101 210.24C514.101 210.24 517.261 201.07 522.001 203.63C526.761 206.18 520.481 226.62 509.311 223.41C508.561 225.08 507.711 226.73 506.831 228.34C506.311 229.3 505.741 230.2 505.161 231.02C505.151 231.06 505.121 231.09 505.091 231.14C504.871 231.44 504.651 231.73 504.441 232.02C504.111 232.46 503.771 232.88 503.421 233.27C503.421 233.27 509.761 239.69 514.301 241.94C518.851 244.2 526.161 247.7 527.501 249.13C527.691 247.32 526.221 240.33 522.721 236.09C529.281 237.52 539.881 238.3 545.231 237.26C545.111 233.75 534.671 230.23 532.701 228.19C536.081 227.35 553.561 224.87 562.121 224.87C561.561 219.88 550.831 204.77 549.021 204.15C553.011 201.61 566.511 205.27 571.451 203.18C568.301 201.02 558.781 196.1 551.641 196.53Z" fill="url(#paint1_linear)"/>
<path d="M514.08 210.23C512.89 214.64 511.3 219.09 509.29 223.4C508.54 225.07 507.69 226.72 506.81 228.33C506.29 229.29 505.72 230.19 505.14 231.01C505.13 231.05 505.1 231.08 505.07 231.13C504.85 231.43 504.63 231.72 504.42 232.01C504.09 232.45 503.75 232.87 503.4 233.26C502.44 234.38 501.43 235.35 500.38 236.19C488.1 246.12 472.38 240.91 468.49 238.13C463.9 234.12 448.39 225.51 465.56 194.92C466.63 191.6 465.31 182.7 468.8 172.7C482.33 146.59 515.53 170.48 515.53 170.48C521.83 177 518.38 194.31 514.08 210.23Z" stroke="white" stroke-width="2" stroke-miterlimit="10" stroke-linecap="round" stroke-linejoin="round"/>
<path d="M463.9 220.29C463.9 220.29 467.3 232.24 482.33 223.96" stroke="white" stroke-width="2" stroke-miterlimit="10" stroke-linecap="round" stroke-linejoin="round"/>
<path d="M467.711 210.25C478.361 213.64 488.441 208.99 489.431 217.29C489.881 223.27 488.721 230.24 488.721 230.24C488.721 230.24 474.111 211.77 458.541 224.37C457.941 218 463.251 207.74 467.711 210.25Z" fill="url(#paint2_linear)"/>
<path d="M482.099 188.2C482.099 188.2 482.269 195.26 474.519 198.02C465.879 201.1 464.719 206.55 466.799 209.45C468.879 212.35 479.859 212.21 482.429 211.25C485.009 210.28 483.889 205.6 483.889 205.6" stroke="white" stroke-width="2" stroke-miterlimit="10" stroke-linecap="round" stroke-linejoin="round"/>
<path d="M506.03 195.47C504.67 191.43 499.17 187.5 496.18 186.75C495.29 186.53 494.46 186.47 493.67 186.52C494.52 185.9 494.81 185.33 492.36 185.62C488.29 186.11 487.5 188.86 487.36 189.61C487.35 189.63 487.33 189.64 487.33 189.64C487.33 189.66 487.34 189.68 487.34 189.7C487.33 189.76 487.33 189.8 487.33 189.8L487.37 189.78C487.74 191.34 491.52 190.42 495.42 191.52C499.24 192.75 507.17 198.84 506.03 195.47Z" fill="url(#paint3_linear)"/>
<path d="M480.77 182.77C478.82 181.15 478.81 181.88 479.22 182.9C478.59 182.41 477.87 181.96 477.02 181.6C474.19 180.39 471 180.75 469.15 184.54C467.59 187.73 471.49 184 475.27 185.32C478.94 186.75 481.37 189.66 482.64 188.87L482.72 189.01C482.72 189.01 484.44 185.8 480.77 182.77Z" fill="url(#paint4_linear)"/>
<path d="M76.4609 112.47C78.8009 114.1 80.3309 114.96 82.8209 116.26C91.8109 120.95 97.6209 118 101.681 112.45C105.191 107.68 107.401 100.98 109.251 95.5602C110.581 91.6702 110.861 87.3902 110.721 83.0502C110.641 80.3102 110.391 77.5502 110.131 74.8402C110.121 74.7502 110.111 74.6702 110.101 74.5802C109.861 72.0402 109.621 69.5402 109.511 67.1702C109.501 67.0902 109.501 67.0102 109.501 66.9402C109.391 64.6202 109.421 62.4202 109.691 60.4002C109.771 59.8002 109.871 59.2202 110.001 58.6602C110.191 57.8102 110.301 56.9502 110.351 56.0902C110.351 56.0902 110.351 56.0802 110.351 56.0702C110.451 54.1102 110.201 52.1202 109.741 50.2202V50.2102C104.761 35.6302 101.671 36.2102 100.671 35.9102C97.1009 35.9102 95.1509 38.0202 95.1509 38.0202" stroke="white" stroke-width="2" stroke-miterlimit="10" stroke-linecap="round" stroke-linejoin="round"/>
<path d="M112.759 85.7198C112.379 84.3498 111.989 82.4398 109.249 84.9598C104.219 88.0098 104.309 96.7998 105.259 99.9298C102.429 101.31 99.9495 103.07 100.709 106.05C99.8695 109.26 99.2695 116.6 105.759 111.43C107.929 111.76 112.519 109.04 112.299 104.1C112.089 99.1498 114.909 100.1 113.729 95.7698C116.479 90.3698 113.429 88.1398 112.759 85.7198Z" fill="url(#paint5_linear)"/>
<path d="M488.33 199.15C488.33 199.15 493.82 203.91 503.98 203.17" stroke="white" stroke-width="2" stroke-miterlimit="10" stroke-linecap="round" stroke-linejoin="round"/>
<path d="M477.82 196.4C467.65 197.14 465.9 194.43 465.9 194.43" stroke="white" stroke-width="2" stroke-miterlimit="10" stroke-linecap="round" stroke-linejoin="round"/>
<path d="M230.199 6.5C181.049 6.5 141.199 25.08 141.199 48C141.199 60.81 153.649 72.27 173.219 79.88C171.359 81.9 169.209 83.98 166.699 86C157.169 93.68 147.439 96.71 141.699 98C149.369 98.83 161.609 99.15 175.699 95C183.889 92.59 190.569 89.3 195.659 86.26C206.279 88.35 217.949 89.5 230.199 89.5C279.349 89.5 319.199 70.92 319.199 48C319.199 25.08 279.349 6.5 230.199 6.5Z" stroke="white" stroke-width="2" stroke-miterlimit="10" stroke-linecap="round" stroke-linejoin="round"/>
<path d="M192.114 31.1V43H190.448V39.532H187.167C186.963 39.532 186.81 39.5263 186.708 39.515L184.328 43H182.526L185.161 39.226C184.311 38.9427 183.659 38.4723 183.206 37.815C182.753 37.1463 182.526 36.336 182.526 35.384C182.526 34.0353 182.957 32.987 183.818 32.239C184.691 31.4797 185.864 31.1 187.337 31.1H192.114ZM184.243 35.367C184.243 36.251 184.498 36.931 185.008 37.407C185.529 37.8717 186.294 38.104 187.303 38.104H190.448V32.579H187.405C186.385 32.579 185.603 32.817 185.059 33.293C184.515 33.769 184.243 34.4603 184.243 35.367ZM219.873 33.905C220.745 33.905 221.527 34.0977 222.219 34.483C222.91 34.8683 223.448 35.4067 223.834 36.098C224.23 36.7893 224.429 37.5883 224.429 38.495C224.429 39.4017 224.23 40.2063 223.834 40.909C223.448 41.6003 222.91 42.1387 222.219 42.524C221.527 42.9093 220.745 43.102 219.873 43.102C219.227 43.102 218.632 42.9773 218.088 42.728C217.555 42.4787 217.102 42.116 216.728 41.64V46.298H215.096V33.99H216.66V35.418C217.022 34.9193 217.481 34.5453 218.037 34.296C218.592 34.0353 219.204 33.905 219.873 33.905ZM219.737 41.674C220.315 41.674 220.83 41.5437 221.284 41.283C221.748 41.011 222.111 40.637 222.372 40.161C222.644 39.6737 222.78 39.1183 222.78 38.495C222.78 37.8717 222.644 37.322 222.372 36.846C222.111 36.3587 221.748 35.9847 221.284 35.724C220.83 35.4633 220.315 35.333 219.737 35.333C219.17 35.333 218.654 35.469 218.19 35.741C217.736 36.0017 217.374 36.37 217.102 36.846C216.841 37.322 216.711 37.8717 216.711 38.495C216.711 39.1183 216.841 39.6737 217.102 40.161C217.362 40.637 217.725 41.011 218.19 41.283C218.654 41.5437 219.17 41.674 219.737 41.674ZM229.93 33.905C231.176 33.905 232.128 34.211 232.786 34.823C233.454 35.435 233.789 36.3473 233.789 37.56V43H232.242V41.81C231.97 42.2293 231.579 42.5523 231.069 42.779C230.57 42.9943 229.975 43.102 229.284 43.102C228.275 43.102 227.465 42.8583 226.853 42.371C226.252 41.8837 225.952 41.2433 225.952 40.45C225.952 39.6567 226.241 39.022 226.819 38.546C227.397 38.0587 228.315 37.815 229.573 37.815H232.157V37.492C232.157 36.7893 231.953 36.251 231.545 35.877C231.137 35.503 230.536 35.316 229.743 35.316C229.21 35.316 228.689 35.4067 228.179 35.588C227.669 35.758 227.238 35.9903 226.887 36.285L226.207 35.061C226.671 34.687 227.227 34.4037 227.873 34.211C228.519 34.007 229.204 33.905 229.93 33.905ZM229.556 41.844C230.179 41.844 230.717 41.708 231.171 41.436C231.624 41.1527 231.953 40.756 232.157 40.246V38.988H229.641C228.258 38.988 227.567 39.4527 227.567 40.382C227.567 40.8353 227.742 41.1923 228.094 41.453C228.445 41.7137 228.932 41.844 229.556 41.844ZM242.864 38.325C244.032 38.6197 244.615 39.3507 244.615 40.518C244.615 41.3113 244.315 41.9233 243.714 42.354C243.125 42.7847 242.241 43 241.062 43H236.727V33.99H240.909C241.975 33.99 242.808 34.194 243.408 34.602C244.009 34.9987 244.309 35.5653 244.309 36.302C244.309 36.778 244.179 37.1917 243.918 37.543C243.669 37.883 243.318 38.1437 242.864 38.325ZM238.325 37.866H240.773C241.397 37.866 241.867 37.7527 242.184 37.526C242.513 37.2993 242.677 36.9707 242.677 36.54C242.677 35.6787 242.043 35.248 240.773 35.248H238.325V37.866ZM240.943 41.742C241.623 41.742 242.133 41.6343 242.473 41.419C242.813 41.2037 242.983 40.8693 242.983 40.416C242.983 39.9513 242.825 39.6057 242.507 39.379C242.201 39.1523 241.714 39.039 241.045 39.039H238.325V41.742H240.943ZM247.17 33.99H248.802V37.815H253.936V33.99H255.568V43H253.936V39.226H248.802V43H247.17V33.99ZM265.966 33.99V43H264.504V40.144H261.886H261.699L259.727 43H257.976L260.169 39.923C259.489 39.719 258.968 39.3847 258.605 38.92C258.242 38.444 258.061 37.8547 258.061 37.152C258.061 36.1207 258.412 35.3387 259.115 34.806C259.818 34.262 260.787 33.99 262.022 33.99H265.966ZM259.727 37.203C259.727 37.8037 259.914 38.2513 260.288 38.546C260.673 38.8293 261.246 38.971 262.005 38.971H264.504V35.418H262.073C260.509 35.418 259.727 36.013 259.727 37.203ZM276.885 33.99V43H275.253V35.418H271.377L271.275 37.424C271.219 38.6367 271.111 39.651 270.952 40.467C270.794 41.2717 270.533 41.9177 270.17 42.405C269.808 42.8923 269.303 43.136 268.657 43.136C268.363 43.136 268.028 43.085 267.654 42.983L267.756 41.606C267.904 41.64 268.04 41.657 268.164 41.657C268.618 41.657 268.958 41.4587 269.184 41.062C269.411 40.6653 269.558 40.195 269.626 39.651C269.694 39.107 269.757 38.3307 269.813 37.322L269.966 33.99H276.885ZM205.262 56.325C206.429 56.6197 207.013 57.3507 207.013 58.518C207.013 59.3113 206.713 59.9233 206.112 60.354C205.523 60.7847 204.639 61 203.46 61H199.125V51.99H203.307C204.372 51.99 205.205 52.194 205.806 52.602C206.407 52.9987 206.707 53.5653 206.707 54.302C206.707 54.778 206.577 55.1917 206.316 55.543C206.067 55.883 205.715 56.1437 205.262 56.325ZM200.723 55.866H203.171C203.794 55.866 204.265 55.7527 204.582 55.526C204.911 55.2993 205.075 54.9707 205.075 54.54C205.075 53.6787 204.44 53.248 203.171 53.248H200.723V55.866ZM203.341 59.742C204.021 59.742 204.531 59.6343 204.871 59.419C205.211 59.2037 205.381 58.8693 205.381 58.416C205.381 57.9513 205.222 57.6057 204.905 57.379C204.599 57.1523 204.112 57.039 203.443 57.039H200.723V59.742H203.341ZM217.635 57.192H215.765V61H214.133V51.99H215.765V55.798H217.669L220.593 51.99H222.344L218.927 56.325L222.582 61H220.661L217.635 57.192ZM230.43 56.325C231.597 56.6197 232.181 57.3507 232.181 58.518C232.181 59.3113 231.881 59.9233 231.28 60.354C230.691 60.7847 229.807 61 228.628 61H224.293V51.99H228.475C229.54 51.99 230.373 52.194 230.974 52.602C231.575 52.9987 231.875 53.5653 231.875 54.302C231.875 54.778 231.745 55.1917 231.484 55.543C231.235 55.883 230.883 56.1437 230.43 56.325ZM225.891 55.866H228.339C228.962 55.866 229.433 55.7527 229.75 55.526C230.079 55.2993 230.243 54.9707 230.243 54.54C230.243 53.6787 229.608 53.248 228.339 53.248H225.891V55.866ZM228.509 59.742C229.189 59.742 229.699 59.6343 230.039 59.419C230.379 59.2037 230.549 58.8693 230.549 58.416C230.549 57.9513 230.39 57.6057 230.073 57.379C229.767 57.1523 229.28 57.039 228.611 57.039H225.891V59.742H228.509ZM237.948 51.905C239.195 51.905 240.147 52.211 240.804 52.823C241.473 53.435 241.807 54.3473 241.807 55.56V61H240.26V59.81C239.988 60.2293 239.597 60.5523 239.087 60.779C238.589 60.9943 237.994 61.102 237.302 61.102C236.294 61.102 235.483 60.8583 234.871 60.371C234.271 59.8837 233.97 59.2433 233.97 58.45C233.97 57.6567 234.259 57.022 234.837 56.546C235.415 56.0587 236.333 55.815 237.591 55.815H240.175V55.492C240.175 54.7893 239.971 54.251 239.563 53.877C239.155 53.503 238.555 53.316 237.761 53.316C237.229 53.316 236.707 53.4067 236.197 53.588C235.687 53.758 235.257 53.9903 234.905 54.285L234.225 53.061C234.69 52.687 235.245 52.4037 235.891 52.211C236.537 52.007 237.223 51.905 237.948 51.905ZM237.574 59.844C238.198 59.844 238.736 59.708 239.189 59.436C239.643 59.1527 239.971 58.756 240.175 58.246V56.988H237.659C236.277 56.988 235.585 57.4527 235.585 58.382C235.585 58.8353 235.761 59.1923 236.112 59.453C236.464 59.7137 236.951 59.844 237.574 59.844ZM253.909 59.572V63.091H252.379V61H244.848V63.091H243.301V59.572H243.777C244.355 59.538 244.752 59.13 244.967 58.348C245.182 57.566 245.33 56.461 245.409 55.033L245.545 51.99H252.532V59.572H253.909ZM246.905 55.152C246.86 56.2853 246.763 57.226 246.616 57.974C246.48 58.7107 246.225 59.2433 245.851 59.572H250.9V53.418H246.99L246.905 55.152ZM260.812 51.905C261.685 51.905 262.467 52.0977 263.158 52.483C263.849 52.8683 264.388 53.4067 264.773 54.098C265.17 54.7893 265.368 55.5883 265.368 56.495C265.368 57.4017 265.17 58.2063 264.773 58.909C264.388 59.6003 263.849 60.1387 263.158 60.524C262.467 60.9093 261.685 61.102 260.812 61.102C260.166 61.102 259.571 60.9773 259.027 60.728C258.494 60.4787 258.041 60.116 257.667 59.64V64.298H256.035V51.99H257.599V53.418C257.962 52.9193 258.421 52.5453 258.976 52.296C259.531 52.0353 260.143 51.905 260.812 51.905ZM260.676 59.674C261.254 59.674 261.77 59.5437 262.223 59.283C262.688 59.011 263.05 58.637 263.311 58.161C263.583 57.6737 263.719 57.1183 263.719 56.495C263.719 55.8717 263.583 55.322 263.311 54.846C263.05 54.3587 262.688 53.9847 262.223 53.724C261.77 53.4633 261.254 53.333 260.676 53.333C260.109 53.333 259.594 53.469 259.129 53.741C258.676 54.0017 258.313 54.37 258.041 54.846C257.78 55.322 257.65 55.8717 257.65 56.495C257.65 57.1183 257.78 57.6737 258.041 58.161C258.302 58.637 258.664 59.011 259.129 59.283C259.594 59.5437 260.109 59.674 260.676 59.674ZM270.869 51.905C272.116 51.905 273.068 52.211 273.725 52.823C274.394 53.435 274.728 54.3473 274.728 55.56V61H273.181V59.81C272.909 60.2293 272.518 60.5523 272.008 60.779C271.51 60.9943 270.915 61.102 270.223 61.102C269.215 61.102 268.404 60.8583 267.792 60.371C267.192 59.8837 266.891 59.2433 266.891 58.45C266.891 57.6567 267.18 57.022 267.758 56.546C268.336 56.0587 269.254 55.815 270.512 55.815H273.096V55.492C273.096 54.7893 272.892 54.251 272.484 53.877C272.076 53.503 271.476 53.316 270.682 53.316C270.15 53.316 269.628 53.4067 269.118 53.588C268.608 53.758 268.178 53.9903 267.826 54.285L267.146 53.061C267.611 52.687 268.166 52.4037 268.812 52.211C269.458 52.007 270.144 51.905 270.869 51.905ZM270.495 59.844C271.119 59.844 271.657 59.708 272.11 59.436C272.564 59.1527 272.892 58.756 273.096 58.246V56.988H270.58C269.198 56.988 268.506 57.4527 268.506 58.382C268.506 58.8353 268.682 59.1923 269.033 59.453C269.385 59.7137 269.872 59.844 270.495 59.844ZM284.382 53.418H281.084V61H279.452V53.418H276.154V51.99H284.382V53.418ZM293.795 56.546C293.795 56.6707 293.784 56.835 293.761 57.039H286.451C286.553 57.8323 286.899 58.4727 287.488 58.96C288.089 59.436 288.831 59.674 289.715 59.674C290.792 59.674 291.659 59.3113 292.316 58.586L293.217 59.64C292.809 60.116 292.299 60.4787 291.687 60.728C291.087 60.9773 290.412 61.102 289.664 61.102C288.712 61.102 287.868 60.9093 287.131 60.524C286.395 60.1273 285.822 59.5777 285.414 58.875C285.018 58.1723 284.819 57.379 284.819 56.495C284.819 55.6223 285.012 54.8347 285.397 54.132C285.794 53.4293 286.332 52.8853 287.012 52.5C287.704 52.1033 288.48 51.905 289.341 51.905C290.203 51.905 290.968 52.1033 291.636 52.5C292.316 52.8853 292.843 53.4293 293.217 54.132C293.603 54.8347 293.795 55.6393 293.795 56.546ZM289.341 53.282C288.559 53.282 287.902 53.52 287.369 53.996C286.848 54.472 286.542 55.0953 286.451 55.866H292.231C292.141 55.1067 291.829 54.489 291.296 54.013C290.775 53.5257 290.123 53.282 289.341 53.282Z" fill="#3FFFD8"/>
<path d="M208.23 38.546C208.23 38.6707 208.219 38.835 208.196 39.039H200.886C200.988 39.8323 201.334 40.4727 201.923 40.96C202.524 41.436 203.266 41.674 204.15 41.674C205.227 41.674 206.094 41.3113 206.751 40.586L207.652 41.64C207.244 42.116 206.734 42.4787 206.122 42.728C205.521 42.9773 204.847 43.102 204.099 43.102C203.147 43.102 202.303 42.9093 201.566 42.524C200.829 42.1273 200.257 41.5777 199.849 40.875C199.452 40.1723 199.254 39.379 199.254 38.495C199.254 37.6223 199.447 36.8347 199.832 36.132C200.229 35.4293 200.767 34.8853 201.447 34.5C202.138 34.1033 202.915 33.905 203.776 33.905C204.637 33.905 205.402 34.1033 206.071 34.5C206.751 34.8853 207.278 35.4293 207.652 36.132C208.037 36.8347 208.23 37.6393 208.23 38.546ZM203.776 35.282C202.994 35.282 202.337 35.52 201.804 35.996C201.283 36.472 200.977 37.0953 200.886 37.866H206.666C206.575 37.1067 206.264 36.489 205.731 36.013C205.21 35.5257 204.558 35.282 203.776 35.282ZM178.072 51.905C179.205 51.905 180.101 52.2337 180.758 52.891C181.427 53.5483 181.761 54.523 181.761 55.815V61H180.129V56.002C180.129 55.1293 179.925 54.472 179.517 54.03C179.12 53.588 178.548 53.367 177.8 53.367C176.973 53.367 176.315 53.6277 175.828 54.149C175.341 54.659 175.097 55.3957 175.097 56.359V61H173.465V56.002C173.465 55.1293 173.261 54.472 172.853 54.03C172.456 53.588 171.884 53.367 171.136 53.367C170.309 53.367 169.651 53.6277 169.164 54.149C168.677 54.659 168.433 55.3957 168.433 56.359V61H166.801V51.99H168.365V53.333C168.694 52.8683 169.124 52.517 169.657 52.279C170.19 52.0297 170.796 51.905 171.476 51.905C172.179 51.905 172.802 52.0467 173.346 52.33C173.89 52.6133 174.309 53.027 174.604 53.571C174.944 53.0497 175.414 52.6417 176.015 52.347C176.627 52.0523 177.313 51.905 178.072 51.905ZM188.741 61.102C187.823 61.102 187.001 60.9037 186.276 60.507C185.562 60.1103 185.001 59.5663 184.593 58.875C184.185 58.1723 183.981 57.379 183.981 56.495C183.981 55.611 184.185 54.8233 184.593 54.132C185.001 53.4293 185.562 52.8853 186.276 52.5C187.001 52.1033 187.823 51.905 188.741 51.905C189.557 51.905 190.282 52.0693 190.917 52.398C191.563 52.7267 192.061 53.2027 192.413 53.826L191.172 54.625C190.888 54.1943 190.537 53.8713 190.118 53.656C189.698 53.4407 189.234 53.333 188.724 53.333C188.134 53.333 187.602 53.4633 187.126 53.724C186.661 53.9847 186.293 54.3587 186.021 54.846C185.76 55.322 185.63 55.8717 185.63 56.495C185.63 57.1297 185.76 57.6907 186.021 58.178C186.293 58.654 186.661 59.0223 187.126 59.283C187.602 59.5437 188.134 59.674 188.724 59.674C189.234 59.674 189.698 59.5663 190.118 59.351C190.537 59.1357 190.888 58.8127 191.172 58.382L192.413 59.164C192.061 59.7873 191.563 60.269 190.917 60.609C190.282 60.9377 189.557 61.102 188.741 61.102Z" fill="#FF598E"/>
<defs>
<linearGradient id="paint0_linear" x1="19.7267" y1="66.767" x2="120.596" y2="66.767" gradientUnits="userSpaceOnUse">
<stop stop-color="#3FFFD8"/>
<stop offset="0.4888" stop-color="#B9C3FC"/>
<stop offset="1" stop-color="#FF7EA7"/>
</linearGradient>
<linearGradient id="paint1_linear" x1="486.303" y1="237.902" x2="545.943" y2="78.9754" gradientUnits="userSpaceOnUse">
<stop stop-color="#3FFFD8"/>
<stop offset="0.4888" stop-color="#B9C3FC"/>
<stop offset="1" stop-color="#FF7EA7"/>
</linearGradient>
<linearGradient id="paint2_linear" x1="471.785" y1="230.187" x2="530.452" y2="73.8542" gradientUnits="userSpaceOnUse">
<stop stop-color="#3FFFD8"/>
<stop offset="0.4888" stop-color="#B9C3FC"/>
<stop offset="1" stop-color="#FF7EA7"/>
</linearGradient>
<linearGradient id="paint3_linear" x1="481.372" y1="233.785" x2="540.039" y2="77.4517" gradientUnits="userSpaceOnUse">
<stop stop-color="#3FFFD8"/>
<stop offset="0.4888" stop-color="#B9C3FC"/>
<stop offset="1" stop-color="#FF7EA7"/>
</linearGradient>
<linearGradient id="paint4_linear" x1="461.136" y1="226.191" x2="519.802" y2="69.8582" gradientUnits="userSpaceOnUse">
<stop stop-color="#3FFFD8"/>
<stop offset="0.4888" stop-color="#B9C3FC"/>
<stop offset="1" stop-color="#FF7EA7"/>
</linearGradient>
<linearGradient id="paint5_linear" x1="100.204" y1="98.4734" x2="114.862" y2="98.4734" gradientUnits="userSpaceOnUse">
<stop stop-color="#3FFFD8"/>
<stop offset="0.4888" stop-color="#B9C3FC"/>
<stop offset="1" stop-color="#FF7EA7"/>
</linearGradient>
</defs>
</svg>
