<svg width="346" height="312" fill="none" xmlns="http://www.w3.org/2000/svg">
  <path d="M272.474 134.219c-.213-2.02.229-3.48.972-4.533 1.786-2.567 5.287-2.767 5.287-2.767s3.272 1.837 5.571 4.921c1.237 1.666 2.192 3.691 2.192 5.987M272.297 156.63c1.214.8 3.053 1.477 4.957 1.795M295.792 147.064c1.22.341 2.357.665 3.424.995 5.901 1.831 8.641 7.617 8.7 13.781.354 36.781 1.403 64.025 1.403 64.025s-22.752 36.963-49.383 29.11c-1.043-5.575-5.658-33.502-.583-55.283M267.198 179.841c1.78-3.043 3.855-6.051 6.266-8.983 3.33-4.462 6.1-8.736 8.352-12.533 4.403-7.447 5.588-9.23 6.348-10.472" stroke="#fff" stroke-width="2" stroke-miterlimit="10" stroke-linecap="round" stroke-linejoin="round"/>
  <path d="M282.618 167.98c-1.102-1.86-1.727-3.827-.319-3.874 1.185-.047 3.136-.441 4.987-1.001M288.164 147.853l1.94-3.891 1.29-2.773M291.394 141.189l4.398 5.875v.006s-.154 2.196-1.067 5.057" stroke="#fff" stroke-width="2" stroke-miterlimit="10" stroke-linecap="round" stroke-linejoin="round"/>
  <path d="M302.942 150.019c-9.608-1.266-10.103 5.81-15.656 13.086-3.749 4.916-21.626 20.451-31.169 21.275-4.686.942-3.808 3.603-3.808 3.603s-3.348 2.249-6.419 2.219c2.664.865 7.61 5.169 5.941 12.097.254 1.378 7.51-2.619 7.51-2.619s1.479 1.895 4.026.724c2.546-1.172 16.569 7.305 26.713-8.489 5.706-8.883 6.661-16.648 10.327-15.588M271.56 142.902c-2.712.665-5.647 1.784-9.62 3.838-5.641 2.926-21.868 19.797-27.232 20.61-.359 0-1.391-1.637 1.044-6.488 1.332-3.42-2.842-5.209-2.842-5.209s.69-4.457 2.618-6.847c.306-.376.035-.936-.454-.912-2.735.159-7.239.412-9.661-1.572-.33-.271-.825-.094-.89.33-.425 2.896-1.108 6.564-1.934 7.317-.925.854-3.477 1.33-3.247 7.123.212 5.275-1.008 15.482-.755 20.557M224.588 184.463c2.664.759 41.207-25.06 53.297-43.362M257.248 239.198c-1.939 1.807-5.941 4.309-10.934 6.217M211.089 235.49c6.113 7.688 17.236 12.215 26.82 12.215" stroke="#fff" stroke-width="2" stroke-miterlimit="10" stroke-linecap="round" stroke-linejoin="round"/>
  <path d="M229.969 142.902s-2.953-2.543-8.028-2.749c-.088-.8 5.393-2.313 9.791-1.56.725-.895-1.456-5.227-3.92-7.076-.171-.135-.354-.253-.548-.359-3.012-1.648-6.384.818-4.958-.259.72-1.136 1.663-2.361 2.635-3.532.154-.194.313-.389.478-.577.601-.724 1.208-1.425 1.762-2.066.525-.607-.259-2.178-1.591-1.331-.602.383-1.35.807-2.169 1.319-1.993 1.236-4.374 2.949-5.936 5.687-.047.076-.094.153-.136.235-2.729 4.998.737 10.673 2.694 12.268 1.256 1.025 3.637 2.437 5.181 3.315.065.035.13.07.189.105.006 0 .006.006.012.006.754.43 1.261.701 1.261.701" stroke="#fff" stroke-width="2" stroke-miterlimit="10" stroke-linecap="round" stroke-linejoin="round"/>
  <path d="M229.969 131.446c4.845 4.745 6.449 13.328 5.105 16.448" stroke="#fff" stroke-width="2" stroke-miterlimit="10"/>
  <path d="M230.323 187.147c-3.596-1.772-8.081-3.832-11.736-5.498-5.517-2.514-10.627-4.61-13.934-5.387-20.76-7.458-61.131 45.211-73.379 56.107.601 8.124 11.441 13.77 11.441 13.77s18.638-8.672 34.181-23.336M208.349 208.963c15.726 10.361 27.279 14.935 39.474 16.372 3.13.37 5.901.459 9.195.459" stroke="#fff" stroke-width="2" stroke-miterlimit="10" stroke-linecap="round" stroke-linejoin="round"/>
  <path d="M208.349 208.963c-14.005-15.606-19.216-10.343-19.216-10.343-14.677 14.658-26.902 82.55-27.097 83.698-.229 1.39 12.544 3.156 18.656.913 5.164-5.905 28.777-44.905 36.469-57.867.418-.713 1.173-1.507 1.968-1.284 6.089 1.719 12.508 2.443 20.124 1.719.112 0 12.531.018 17.771 0" stroke="#fff" stroke-width="2" stroke-miterlimit="10" stroke-linecap="round" stroke-linejoin="round"/>
  <path d="M303.018 123.758s1.863-5.398 4.657-3.891c2.806 1.501-.896 13.534-7.48 11.644" stroke="#fff" stroke-width="2" stroke-miterlimit="10"/>
  <path d="M305.317 231.557h4.657v69.17h7.267V154.375h-10.928l.884 2.355 5.724-.129v69.264h-3.602M257.018 225.793l-19.109.071v74.862h8.405v-69.169h10.934M276.104 140.153l-20.306 12.927s.095 4.192 1.668 5.628c1.574 1.436-6.153 1.625-6.153 1.625s-25.057 22.946-26.731 24.13M288.913 145.969c-2.735 1.248-8.223 3.591-10.763 3.149 0 0 0 5.445-.89 9.307-.165.724-.366 1.395-.601 1.961.907.47 2.169.547 3.801.194M275.385 144.65c0 1.313 2.759 4.463 2.759 4.463s-4.716 4.55-6.684 9.212c-1.02-.83-4.056-3.573-3.843-5.257M272.297 207.616c2.741 3.502 7.273 9.024 15.596 9.419.761 3.702.372 9.471.271 11.161-.1 1.689-11.889 6.499-17.683 6.593-1.355-8.118-1.963-28.545 1.816-27.173ZM166.829 287.005c.094-.336.518-.43.748-.171.908 1.024 2.694 2.802 4.321 3.02 2.31.312 4.32-.171 4.615-1.154.295-.977 1.02 3.008 1.091 4.71v1.666l-.319 3.002s-.495 1.654-7.492 1.413c-2.587.129-12.042 4.48-15.879 1.919-1.385-.707-2.487-2.196-2.971-3.332-.265-.63.042-1.354.684-1.595 2.34-.878 8.447-3.185 9.525-3.733 1.338-.677 3.083-1.101 4.669-3.567.577-.901.866-1.648 1.008-2.178ZM176.183 284.144l.041 5.103M168.178 284.056l-.595 2.778" stroke="#fff" stroke-width="2" stroke-miterlimit="10" stroke-linecap="round" stroke-linejoin="round"/>
  <path d="M177.545 295.729s-3.354 1.431-6.779 1.383c-.749-.011-1.479.171-2.163.465-2.446 1.054-7.787 2.202-12.52 2.161-5.193-.047-5.093-2.684-5.093-2.684" stroke="#fff" stroke-width="2" stroke-miterlimit="10"/>
  <path d="M129.222 239.387s-1.031 3.808.378 5.645c1.408 1.843 3.165 2.92 4.061 2.437.648-.347-1.58 2.543-2.871 4.18-.56.706-1.19 1.348-1.892 1.913l-1.302 1.054s-1.515.818-6.272-4.274c-1.91-1.731-15.626-6.664-11.995-14.499.2-.436.642-.701 1.079-.501 2.051.93 8.387 3.791 9.578 4.18 1.421.465 3.808.406 6.59-.13 2.181-.423 2.646-.005 2.646-.005Z" stroke="#fff" stroke-width="2" stroke-miterlimit="10" stroke-linecap="round" stroke-linejoin="round"/>
  <path d="M128.374 253.986s-4.162-3.267-5.565-4.874c-.283-.324-.63-.577-1.013-.754-3.018-1.413-12.609-6.187-12.013-13.033M137.816 242.765l-4.367 4.403M132.753 237.025l-2.776 1.513M230.258 134.619s-3.82-1.095-5.163-.853c-1.344.235-3.69 2.095-3.908 2.425M246.314 190.185s-9.496-2.437-10.026-2.638c-.531-.194-7.109-.394-8.388-.588-1.279-.195 2.653 3.967 6.779 5.416 4.126 1.448 5.169 2.331 7.745 4.003 2.57 1.666 8.187 3.243 9.631 2.937" stroke="#fff" stroke-width="2" stroke-miterlimit="10" stroke-linecap="round" stroke-linejoin="round"/>
  <path d="M252.055 202.588s-4.585-2.048-6.159-4.58M29.9611 105.173l-4.6094 15.695a7.7899 7.7899 0 0 0 1.4265 7.099c4.6211 5.687 13.9814 17.207 15.5493 19.262 2.0984 2.749 7.8042 5.951 10.4213 6.869 2.623.913 5.8944 8.501 4.0141 8.112-1.8273-.382-5.8473-4.691-6.0948-4.962M9.0007 130.716c-4.2321-12.58-3.8903-39.3121 6.7196-50.1026 1.6151-1.6483 11.8182-3.3555 18.8561-5.4806M38.4726 155.617c.7722.518 1.2437.895 1.3085 1.095.0826.259.3596.801.7899 1.525 2.2281 3.726 8.6824 12.344 15.7144 12.344 2.4462 0-5.358-12.898-5.6173-13.333l-.0059-.006-.0059-.006" stroke="#fff" stroke-width="2" stroke-miterlimit="10" stroke-linecap="round" stroke-linejoin="round"/>
  <path d="M41.7558 65.1134c-.0295-4.2797-.4009-8.736-.4009-8.736" stroke="#fff" stroke-width="2" stroke-miterlimit="10"/>
  <path d="m52.4423 69.7586 1.7978 1.1832 1.3852-1.2421M43.0172 65.4492l2.7527 8.7949.8016 2.5666 8.7826 28.0443 10.7514 33.767 6.9494-40.713-11.9243-21.1336M58.5135 69.6997v-1.8838M26.5188 116.888c8.0576 14.04 16.3333 14.293 15.8087 25.542-.7014.713-1.3734 1.455-2.0276 2.232" stroke="#fff" stroke-width="2" stroke-miterlimit="10" stroke-linecap="round" stroke-linejoin="round"/>
  <path d="M42.6458 64.3428S68.2039 138.14 66.3707 160.639c-1.8331 22.499-.5423 60.11-10.2091 75.292-7.4917 11.774-34.0636 8.695-34.0636 8.695s-4.7331-55.619 10.9046-88.385M52.2713 71.3598s2.8175-.936 3.519 0c.7014.936.2358 3.1613 0 3.8677-.2358.7005-3.519 0-3.519 0s-.7014-2.5196 0-3.8677Z" stroke="#fff" stroke-width="2" stroke-miterlimit="10" stroke-linecap="round" stroke-linejoin="round"/>
  <path d="M52.2713 75.2275s-3.8136 1.5365-5.6998 1.5836M45.7698 74.2445c.2889-.6887.6366-1.248.6366-1.248s-2.4638-4.9154-.7014-4.9154c1.7565 0 6.5663 3.2789 6.5663 3.2789M55.861 71.36s4.8098-3.2789 6.5664-3.2789c1.7624 0-.7015 4.9154-.7015 4.9154s1.7625 2.8139.7015 3.6322c-1.0551.8182-6.5664-1.407-6.5664-1.407M92.7716 91.8281c.2063-.8065.2771-1.4717.5011-2.2664.1709-.3297 1.2555-8.2062 4.9394-12.4388.5541-.6358 1.6269-.2355 1.5856.6063-.053 1.0714-.4362 2.4725-1.3734 5.828 2.5167-.6535 4.8507-2.0957 7.4687-4.4504 2.623-2.3548 8.428-6.7875 10.521-5.8633 0 1.1891-5.264 11.9325-8.122 14.2755-1.904 2.4136-8.241 6.7698-7.976 7.5527M77.1928 131.352c4.0553 6.175 6.8846 7.27 10.2916 7.27M68.4219 77.582c1.4147.7771 3.1182 1.7249 5.1576 2.8669 10.1089 5.6513 10.6099 28.3861 11.7888 31.5241M49.8488 47.1532s-1.9098 2.2016-.8842 3.0846c1.0256.8831 5.1458 2.7904 6.1714 2.496 1.0315-.2943 2.3519-2.7726 2.3519-2.7726s-4.745-9.3012-4.4149-12.4918c.3301-3.173 7.5271-5.0862 9.7847-1.819M61.598 142.307c.7343-.109 1.2074-1.019 1.0569-2.032-.1506-1.013-.8678-1.746-1.602-1.637-.7342.109-1.2074 1.018-1.0568 2.031.1505 1.013.8677 1.746 1.6019 1.638ZM62.2564 149.077c.7422 0 1.3439-.83 1.3439-1.854s-.6017-1.854-1.3439-1.854c-.7422 0-1.3439.83-1.3439 1.854s.6017 1.854 1.3439 1.854ZM72.12 142.23c.7342-.109 1.2074-1.018 1.0568-2.031-.1505-1.014-.8677-1.747-1.6019-1.638-.7343.109-1.2074 1.019-1.0569 2.032.1506 1.013.8678 1.746 1.602 1.637ZM72.7779 149c.7422 0 1.3439-.83 1.3439-1.854s-.6017-1.854-1.3439-1.854c-.7422 0-1.3439.83-1.3439 1.854S72.0357 149 72.7779 149Z" stroke="#fff" stroke-width="2" stroke-miterlimit="10" stroke-linecap="round" stroke-linejoin="round"/>
  <path d="M55.3541 56.3781s-3.295-1.7425-4.6625 4.3209c-.9961 4.4151 11.5648 4.4151 4.6625-4.3209ZM63.9481 204.048c1.9216 2.796 3.3008 4.168 6.1243 9.354 2.2045 4.657 3.012 6.134 4.0376 16.413-3.0179 20.468.2594 62.07.2594 62.07s5.4758 2.784 14.8774-1.236c-1.4441-8.466 10.5509-63.79 9.7139-67.504-.3301-2.979-2.1868-8.713-4.6742-15.594-2.6702-7.406-6.0653-16.142-9.0479-24.189-.0059-.006-.0059-.006-.0059-.012" stroke="#fff" stroke-width="2" stroke-miterlimit="10"/>
  <path d="M69.5065 144.821h-.1768a660.5596 660.5596 0 0 1-4.2381-.088M69.5065 144.821s-1.2614 5.981-3.0474 13.963v.006" stroke="#fff" stroke-width="2" stroke-miterlimit="10" stroke-linecap="round" stroke-linejoin="round"/>
  <path d="M52.4423 239.757c-.0413 1.089-.0766 2.178-.1179 3.273-.7957 22.706-.837 46.141.2888 49.797-3.1004 1.948-10.9223.441-11.5235-.942-6.024-13.363-7.9515-31.653-8.258-46.959" stroke="#fff" stroke-width="2" stroke-miterlimit="10"/>
  <path d="M88.0031 291.144s8.0694 6.31 12.8199 6.21c4.757-.106-1.8623 3.821-7.2321 2.372-5.3756-1.442-8.7826-4.85-8.7826-4.85l-6.4131-.306v2.066l-3.7193-.106-.3124-4.645M52.2773 293.015s6.0888 4.969 9.8848 4.886c3.796-.082-1.4854 3.049-5.7765 1.896-4.2911-1.154-7.0143-3.874-7.0143-3.874l-5.1163-.247v1.648l-2.9708-.082-.2004-5.357M41.9031 64.9077l-7.3267 10.2195 1.1848 22.099h7.5978l-5.7293 4.9688 25.4932 32.724" stroke="#fff" stroke-width="2" stroke-miterlimit="10" stroke-linecap="round" stroke-linejoin="round"/>
  <path d="M52.3244 243.03c9.3603 1.107 14.9481.895 20.76-1.566" stroke="#fff" stroke-width="2" stroke-miterlimit="10"/>
  <path d="M76.4147 119.39s0 31.182 8.818 63.96c0 .006 0 .006.0059.011" stroke="#fff" stroke-width="2" stroke-miterlimit="10" stroke-linecap="round" stroke-linejoin="round"/>
  <path d="M67.9857 131.352s.5305 35.05 26.8077 77.612M60.1286 76.5991S74.0157 100.923 69.536 118.13" stroke="#fff" stroke-width="2" stroke-miterlimit="10" stroke-linecap="round" stroke-linejoin="round"/>
  <path d="M57.4525 75.8101s11.3054 26.9319 11.83 44.2159" stroke="#fff" stroke-width="2" stroke-miterlimit="10" stroke-linecap="round" stroke-linejoin="round"/>
  <path d="M54.5053 75.5278s13.8459 29.9112 11.9656 60.9752l12.3723-35.556-3.4069-3.5792 4.3205-1.3246-11.3349-18.4609-6.5133-12.3152" stroke="#fff" stroke-width="2" stroke-miterlimit="10" stroke-linecap="round" stroke-linejoin="round"/>
  <path d="M50.0728 76.0161s13.9873 35.8979 13.5335 54.7589M37.8537 37.6519c2.9413-5.5866 8.7001-3.3496 10.3211-2.7491M43.7716 149.077s-8.4525 8.648-6.1419 10.673c1.7153 1.242 2.9413-1.519 2.9413-1.519" stroke="#fff" stroke-width="2" stroke-miterlimit="10" stroke-linecap="round" stroke-linejoin="round"/>
  <path d="M37.6297 159.75s-27.8686-20.333-28.629-29.034M93.2726 89.5554c-.8075-.2237-1.8213-.3473-2.0217.3709-.1061.518.5187 1.2009 1.5207 1.9014 2.6878 1.872 8.0874 3.8736 9.4844 3.3025.153-.5298-.213-1.089-.708-1.5717M87.4843 138.622s14.7717 0 14.7717-43.4916M91.2509 89.9263l-5.8826 22.0457M302.046 126.919c2.363.854 2.387-2.396 2.976-3.379.584-.983 1.998-1.283 2.258-.694" stroke="#fff" stroke-width="2" stroke-miterlimit="10" stroke-linecap="round" stroke-linejoin="round"/>
  <path d="M69.1882 35.9569c1.173-.9006 3.0592-6.6285.9313-9.9663-.2947-3.173-5.7823-5.1215-5.9886-4.9449.1473-.2943 2.8293-2.8374 1.0197-6.1752-1.8391-3.4026-4.1556 1.2067-7.1676-1.407-3.012-2.6196-18.4965 3.5321-22.3456.1295-3.8431-3.4026-7.4328-.1354-8.0517 5.4924-9.8259-.3944-8.3877 1.8308-10.6158 5.7573-5.3049-2.5549-8.8415 12.5094.2476 14.3873-5.4523 9.1893 5.4818 9.8074 7.5684 7.6057-2.8706 2.7609 1.9333 4.9979 2.9059 4.1797-4.633 9.4306 6.5781 9.4306 7.2265 8.5476-.2475 2.5666 1.4854 4.9979 4.7037 4.7271.8076 3.7028 6.9141 2.025 7.4152-1.2598.4951-3.2848-4.8216-1.5777-4.1497-3.2672.6779-1.6895 1.621-3.5733 0-5.3275-1.6209-1.7543-2.2752 2.025-3.9846 0 1.7094-2.6785.1945-3.9383-1.3557-5.3982-1.5561-1.4599-3.236 2.4312-3.1712 1.2186.0708-1.2127-.0648-2.9022-.8016-3.5086-.8134-.6769-1.5325-.9595-2.1632-.9772v-.0059c-.0295-.3237-.0531-.7888-.0826-1.3422.4303.2179 1.0198.3709 1.5503-.0412 2.8882-3.9147-1.2732-5.9338-1.2732-5.9338s4.409-4.8684.5187-7.2349c.5894-.3473 1.2142-.936 1.7093-1.925 1.3086-2.6137-1.5266-5.7514-1.5266-5.7514.6838-1.1303 1.7035-1.5953 3.2301-2.0015 3.2242-.8536 7.5271 1.7013 14.1701 3.7558 4.0436.9301 4.3206-1.4482 7.4387-3.8088 2.0159-1.4658 3.4541-.0706 3.7135.571 1.061 1.8014 4.297 7.0406 4.1142 10.7199-1.2201 4.8213-.2121 11.4557-.2121 11.4557s.9136.6299 1.9922.6299c1.0728 0 1.9865-1.7072 2.7999-4.7389.8075-3.0258-1.5326-3.2613-.3655-4.162ZM30.7215 48.9903c-.3006.1118-.6425.0412-1.0492-.1707-.3124-.1707-.6719-.418-1.0846-.7359-.7839-.5945-1.7742-1.4187-3.0709-2.3135-2.847-1.9779-2.5523-6.7639.5894-7.3114 3.1417-.5533 3.6368 5.1627 3.6368 5.1627s.4303 1.1009.7899 2.3077c.112.3826.2181.777.3006 1.1479.2122.9537.2653 1.7719-.112 1.9132Z" fill="url(#a)"/>
  <path d="M223.57 121.699c.041-.306-1.973-.831-4.499-1.173-2.526-.341-4.607-.37-4.649-.064-.041.306 1.973.831 4.499 1.173 2.526.341 4.607.37 4.649.064Z" stroke="#fff" stroke-width="2" stroke-miterlimit="10" stroke-linecap="round" stroke-linejoin="round"/>
  <path d="M223.562 121.709s.106 1.396-.141 3.003M225.419 126.79c15.284.512 24.167 4.279 24.167 4.279-.761.642.76 1.301-14.4-.023-1.898.2-3.631.329-5.217.4-.754.035-1.473.059-2.157.071M217.485 130.398c-3.413-1.042-4.091-2.443-4.091-2.443l1.014-7.476v-.012M218.988 117.236s-2.871-2.932 2.204-8.33c5.076-5.404 2.229-8.989 2.229-8.989" stroke="#fff" stroke-width="2" stroke-miterlimit="10" stroke-linecap="round" stroke-linejoin="round"/>
  <path d="M325.158 115.693c1.137-.853 14.441-2.119 15.525-16.1472-3.306 3.0552-12.319.5652-16.256 1.6302 5.505-4.2616 9.478-14.6812 9.354-20.568-1.202-.0707-6.16 5.9809-19.027 11.4792-.094-.2884 10.28-12.7861 8.447-20.1152-1.044 2.9434-16.505 4.4151-18.786 7.9825-1.468-3.4908.749-12.115.254-12.6919-21.161-1.7013-26.46 15.7707-27.191 20.9747 0-.0295 0-.0766.006-.1354l-.006.1354c0-.9243.672-5.5042-5.511-9.9016 2.245 5.9986-5.989 7.7882-4.775 17.0658-.89-1.1892-1.591-2.5431-2.823-4.3092-.366 1.1068 1.249 6.2989 2.134 7.3703.878 1.0714-5.288-3.797-5.288-3.797-.094 1.1126-3.637 8.4354 3.502 18.7084 1.461 3.485 7.167 6.546 7.167 6.546s2.411-4.768 2.546-5.169c.631-1.954.248-3.432.478-5.845 2.364-25.3546 28.983-8.542 28.983-8.542 3.707 3.832 1.679 14.022-.861 23.4 0 0 1.863-5.398 4.657-3.891 2.805 1.501-.896 13.534-7.48 11.644-.442.983-.944 1.954-1.462 2.902-.307.565-.643 1.095-.985 1.578-.005.023-.023.041-.041.07-.13.177-.259.348-.383.518-.194.259-.395.507-.601.736 0 0 4.208 4.533 6.413 5.104 2.9.76 6.991 3.391 7.78 4.233.112-1.066-.754-5.181-2.817-7.677 3.867.842 10.115 1.301 13.268.689-.071-2.066-6.224-4.138-7.385-5.339 1.992-.495 12.295-1.955 17.341-1.955-.33-2.937-6.655-11.832-7.722-12.197 2.352-1.495 10.309.659 13.221-.571-1.856-1.272-7.468-4.168-11.676-3.915Zm0 0c1.137-.853 14.441-2.119 15.525-16.1472-3.306 3.0552-12.319.5652-16.256 1.6302 5.505-4.2616 9.478-14.6812 9.354-20.568-1.202-.0707-6.16 5.9809-19.027 11.4792-.094-.2884 10.28-12.7861 8.447-20.1152-1.044 2.9434-16.505 4.4151-18.786 7.9825-1.468-3.4908.749-12.115.254-12.6919-21.161-1.7013-26.46 15.7707-27.191 20.9747 0-.0295 0-.0766.006-.1354l-.006.1354c0-.9243.672-5.5042-5.511-9.9016 2.245 5.9986-5.989 7.7882-4.775 17.0658-.89-1.1892-1.591-2.5431-2.823-4.3092-.366 1.1068 1.249 6.2989 2.134 7.3703.878 1.0714-5.288-3.797-5.288-3.797-.094 1.1126-3.637 8.4354 3.502 18.7084 1.461 3.485 7.167 6.546 7.167 6.546s2.411-4.768 2.546-5.169c.631-1.954.248-3.432.478-5.845 2.364-25.3546 28.983-8.542 28.983-8.542 3.707 3.832 1.679 14.022-.861 23.4 0 0 1.863-5.398 4.657-3.891 2.805 1.501-.896 13.534-7.48 11.644-.442.983-.944 1.954-1.462 2.902-.307.565-.643 1.095-.985 1.578-.005.023-.023.041-.041.07-.13.177-.259.348-.383.518-.194.259-.395.507-.601.736 0 0 3.737 3.78 6.413 5.104 2.682 1.331 6.991 3.391 7.78 4.233.112-1.066-.754-5.181-2.817-7.677 3.867.842 10.115 1.301 13.268.689-.071-2.066-6.224-4.138-7.385-5.339 1.992-.495 12.295-1.955 17.341-1.955-.33-2.937-6.655-11.832-7.722-12.197 2.352-1.495 10.309.659 13.221-.571-1.856-1.272-7.468-4.168-11.676-3.915Z" fill="url(#b)"/>
  <path d="M303.018 123.758c-.701 2.596-1.638 5.215-2.823 7.752-.442.984-.943 1.955-1.462 2.903-.307.565-.642 1.095-.984 1.577-.006.024-.024.042-.042.071-.129.177-.259.347-.383.518-.194.259-.395.506-.601.736-.566.659-1.161 1.23-1.78 1.725-7.238 5.845-16.504 2.778-18.797 1.142-2.706-2.361-11.848-7.429-1.727-25.437.63-1.955-.148-7.194 1.909-13.081 7.976-15.37 27.545-1.306 27.545-1.306 3.713 3.838 1.68 14.028-.855 23.4Z" stroke="#fff" stroke-width="2" stroke-miterlimit="10" stroke-linecap="round" stroke-linejoin="round"/>
  <path d="M273.44 129.68s2.004 7.035 10.863 2.161" stroke="#fff" stroke-width="2" stroke-miterlimit="10" stroke-linecap="round" stroke-linejoin="round"/>
  <path d="M275.686 123.77c6.277 1.995 12.219-.742 12.803 4.144.265 3.52-.419 7.623-.419 7.623s-8.612-10.873-17.789-3.455c-.354-3.75 2.776-9.79 5.405-8.312Z" fill="url(#c)"/>
  <path d="M284.168 110.79s.1 4.156-4.468 5.78c-5.093 1.814-5.776 5.022-4.55 6.729 1.226 1.707 7.698 1.625 9.212 1.06 1.521-.571.861-3.326.861-3.326" stroke="#fff" stroke-width="2" stroke-miterlimit="10" stroke-linecap="round" stroke-linejoin="round"/>
  <path d="M298.273 115.069c-.801-2.378-4.043-4.692-5.806-5.133-.524-.13-1.014-.165-1.479-.136.501-.365.672-.7-.772-.53-2.399.289-2.865 1.908-2.948 2.349-.005.012-.017.018-.017.018 0 .012.006.023.006.035-.006.036-.006.059-.006.059l.023-.012c.218.919 2.447.377 4.745 1.025 2.252.724 6.926 4.309 6.254 2.325Z" fill="url(#d)"/>
  <path d="M283.384 107.593c-1.149-.954-1.155-.524-.914.076-.371-.288-.795-.553-1.296-.765-1.668-.712-3.549-.5-4.639 1.731-.92 1.878 1.379-.318 3.607.459 2.163.842 3.596 2.555 4.344 2.09l.047.082s1.014-1.889-1.149-3.673Z" fill="url(#e)"/>
  <path d="M45.0684 66.2089c1.3793.9596 2.2811 1.4658 3.7488 2.2311 5.2991 2.7609 8.7237 1.0243 11.1168-2.2428 2.069-2.808 3.3716-6.7522 4.4621-9.9428.7839-2.29.949-4.8095.8665-7.3644-.0472-1.613-.1946-3.2378-.3478-4.8331-.0059-.053-.0118-.1-.0177-.153-.1415-1.4953-.2829-2.967-.3478-4.3621-.0059-.0471-.0059-.0942-.0059-.1354-.0648-1.3658-.0471-2.6609.112-3.85.0472-.3532.1061-.6946.1828-1.0243.112-.5004.1768-1.0066.2063-1.5129v-.0118c.0589-1.1538-.0884-2.3253-.3596-3.4438v-.0058c-2.9354-8.583-4.7568-8.2415-5.3462-8.4182-2.1043 0-3.2537 1.2422-3.2537 1.2422" stroke="#fff" stroke-width="2" stroke-miterlimit="10" stroke-linecap="round" stroke-linejoin="round"/>
  <path d="M66.465 50.4613c-.224-.8065-.4539-1.9309-2.0689-.4474-2.9649 1.7955-2.9118 6.97-2.3519 8.8125-1.6681.8124-3.1299 1.8485-2.6819 3.6027-.4951 1.8897-.8488 6.2106 2.9766 3.1671 1.2791.1943 3.9847-1.4069 3.855-4.315-.1238-2.9139 1.5384-2.3547.8429-4.9037 1.6209-3.1789-.1769-4.4916-.5718-5.9162Z" fill="url(#f)"/>
  <path d="M287.84 117.236s3.236 2.802 9.225 2.366M281.645 115.616c-5.994.436-7.026-1.159-7.026-1.159M135.689 3.8267c-28.971 0-52.4604 10.9376-52.4604 24.4302 0 7.5409 7.3385 14.2872 18.8734 18.767-1.096 1.1892-2.3632 2.4136-3.8427 3.6028-5.6173 4.521-11.3526 6.3047-14.7359 7.0641 4.5209.4886 11.7357.677 20.0406-1.766 4.828-1.4187 8.765-3.3555 11.765-5.1451 6.26 1.2304 13.139 1.9073 20.36 1.9073 28.97 0 52.46-10.9376 52.46-24.4301 0-13.4926-23.49-24.4302-52.46-24.4302Z" stroke="#fff" stroke-width="2" stroke-miterlimit="10" stroke-linecap="round" stroke-linejoin="round"/>
  <defs>
    <linearGradient id="a" x1="11.6274" y1="39.3046" x2="71.0835" y2="39.3046" gradientUnits="userSpaceOnUse">
      <stop stop-color="#3FFFD8"/>
      <stop offset=".4888" stop-color="#B9C3FC"/>
      <stop offset="1" stop-color="#FF7EA7"/>
    </linearGradient>
    <linearGradient id="b" x1="286.645" y1="140.048" x2="321.72" y2="46.4617" gradientUnits="userSpaceOnUse">
      <stop stop-color="#3FFFD8"/>
      <stop offset=".4888" stop-color="#B9C3FC"/>
      <stop offset="1" stop-color="#FF7EA7"/>
    </linearGradient>
    <linearGradient id="c" x1="278.088" y1="135.507" x2="312.59" y2="43.4472" gradientUnits="userSpaceOnUse">
      <stop stop-color="#3FFFD8"/>
      <stop offset=".4888" stop-color="#B9C3FC"/>
      <stop offset="1" stop-color="#FF7EA7"/>
    </linearGradient>
    <linearGradient id="d" x1="283.739" y1="137.624" x2="318.241" y2="45.565" gradientUnits="userSpaceOnUse">
      <stop stop-color="#3FFFD8"/>
      <stop offset=".4888" stop-color="#B9C3FC"/>
      <stop offset="1" stop-color="#FF7EA7"/>
    </linearGradient>
    <linearGradient id="e" x1="271.811" y1="133.154" x2="306.314" y2="41.0947" gradientUnits="userSpaceOnUse">
      <stop stop-color="#3FFFD8"/>
      <stop offset=".4888" stop-color="#B9C3FC"/>
      <stop offset="1" stop-color="#FF7EA7"/>
    </linearGradient>
    <linearGradient id="f" x1="59.0645" y1="57.9691" x2="67.7041" y2="57.9691" gradientUnits="userSpaceOnUse">
      <stop stop-color="#3FFFD8"/>
      <stop offset=".4888" stop-color="#B9C3FC"/>
      <stop offset="1" stop-color="#FF7EA7"/>
    </linearGradient>
  </defs>
</svg>
