<svg width="19" height="14" fill="none" xmlns="http://www.w3.org/2000/svg">
  <path d="M12.4246 6.0116 8.2271 3.8358a.8013.8013 0 0 0-.7633.0123c-.2367.133-.3779.3678-.3779.6284V8.791c0 .2594.1404.4938.3755.6269a.8017.8017 0 0 0 .7607.0163l4.1977-2.1383c.2492-.127.4047-.3725.4059-.6407.001-.2682-.1527-.5147-.4011-.6435ZM8.1994 8.2481V5.0236L11.3365 6.65 8.1994 8.2481Z" fill="#000"/>
  <path d="m18.8602 3.2178-.0009-.0083c-.0161-.1449-.1763-1.4336-.8376-2.089-.7643-.771-1.6309-.8647-2.0476-.9096a5.3416 5.3416 0 0 1-.0944-.0107L15.8465.197C13.3347.024 9.5413.0003 9.5033.0001L9.5 0l-.0034.0001C9.4586.0003 5.6652.024 3.1308.197l-.0335.0033c-.027.0035-.0567.0066-.089.0102-.412.045-1.2692.1388-2.0358.9377C.3427 1.7965.1606 3.0576.142 3.1994l-.0022.0184C.1341 3.278 0 4.7133 0 6.154v1.347c0 1.4408.134 2.876.1397 2.9365l.001.009c.0161.1426.1762 1.4076.8344 2.0634.7187.7451 1.6275.8437 2.1163.8968.0772.0083.1438.0155.1891.023l.044.0058c1.4503.1307 5.9974.1951 6.1902.1977l.0059.0002.0058-.0002c.038-.0001 3.8312-.0237 6.343-.1967l.0332-.0033a3.8765 3.8765 0 0 1 .1066-.0114c.4096-.0412 1.2622-.1268 2.0182-.9148.6298-.6486.8121-1.9097.8306-2.0513l.0022-.0184c.0056-.0604.1399-1.4955.1399-2.9364V6.1542c-.0002-1.4408-.1343-2.876-.1399-2.9363Zm-.9737 4.2833c0 1.3336-.1229 2.707-.1345 2.8331-.0473.3473-.2393 1.1451-.5462 1.4611-.4732.4932-.9592.5421-1.3141.5776a6.335 6.335 0 0 0-.1185.0127c-2.4295.1664-6.0797.192-6.2479.1929-.1886-.0026-4.6692-.0675-6.0753-.1913a5.1997 5.1997 0 0 0-.232-.0284c-.4161-.0452-.9858-.107-1.4239-.5635l-.0103-.0104c-.3015-.2976-.488-1.0437-.5354-1.4466-.0089-.0953-.135-1.485-.135-2.8373V6.1542c0-1.332.1227-2.704.1345-2.8327.0564-.409.2521-1.1586.5462-1.4616.4877-.508 1.0018-.5644 1.342-.6016.0324-.0036.0627-.0069.0907-.0103C5.6916 1.0806 9.368 1.0558 9.5 1.055c.1319.0008 3.807.0257 6.25.193.03.0036.0627.0071.098.011.3497.0378.8784.0949 1.3636.5852l.0045.0045c.3015.2976.488 1.0567.5354 1.4678.0085.09.135 1.4826.135 2.8377v1.347Z" fill="#000"/>
</svg>
