<svg width="78" height="85" viewBox="0 0 78 85" fill="none" xmlns="http://www.w3.org/2000/svg">
<path d="M1.03611 34.8069C1.32265 34.8389 1.61286 34.7796 1.85255 34.6398C2.09225 34.5001 2.26503 34.2896 2.33863 34.0476C2.60782 33.1619 3.56484 30.6321 4.7621 29.5081C6.34297 28.1884 8.4516 27.4491 10.6471 27.4449H10.6877C12.8662 27.4403 14.959 28.1791 16.5133 29.5012C18.0418 30.8702 18.8989 32.6987 18.905 34.6032C18.905 34.8765 19.0303 35.1385 19.2534 35.3317C19.4764 35.5249 19.7789 35.6335 20.0944 35.6335C20.4098 35.6335 20.7123 35.5249 20.9354 35.3317C21.1584 35.1385 21.2837 34.8765 21.2837 34.6032C21.2669 33.6558 21.4708 32.7151 21.883 31.8374C22.2953 30.9597 22.9075 30.163 23.6831 29.4948C24.4588 28.8267 25.3819 28.3008 26.3974 27.9486C27.4129 27.5964 28.4999 27.425 29.5936 27.4449C31.772 27.4403 33.8648 28.1791 35.4191 29.5012C36.9476 30.8702 37.8048 32.6987 37.8109 34.6032V43.9697C37.8109 44.243 37.9362 44.505 38.1592 44.6982C38.3823 44.8915 38.6848 45 39.0002 45C39.3156 45 39.6181 44.8915 39.8412 44.6982C40.0642 44.505 40.1895 44.243 40.1895 43.9697V34.6032C40.1729 33.6588 40.3754 32.7211 40.7851 31.8458C41.1949 30.9706 41.8035 30.1755 42.5748 29.5079C43.3461 28.8403 44.2644 28.3137 45.2751 27.9595C46.2859 27.6052 47.3686 27.4305 48.4588 27.4457H48.4984C50.677 27.4411 52.77 28.1798 54.3244 29.5021C55.8527 30.8712 56.7098 32.6997 56.7159 34.6043C56.7159 34.8775 56.8412 35.1395 57.0643 35.3327C57.2873 35.526 57.5898 35.6345 57.9052 35.6345C58.2207 35.6345 58.5232 35.526 58.7462 35.3327C58.9693 35.1395 59.0946 34.8775 59.0946 34.6043C59.0778 33.6598 59.2803 32.722 59.69 31.8467C60.0997 30.9713 60.7083 30.1762 61.4796 29.5085C62.2509 28.8408 63.1692 28.3141 64.18 27.9598C65.1908 27.6055 66.2735 27.4307 67.3638 27.4459C69.5562 27.431 71.6659 28.1703 73.2296 29.5016C74.4267 30.6177 75.3902 33.159 75.661 34.0476C75.7349 34.2893 75.9078 34.4995 76.1474 34.639C76.387 34.7784 76.677 34.8376 76.9633 34.8055C77.2496 34.7734 77.5126 34.6522 77.7034 34.4645C77.8941 34.2768 77.9996 34.0354 78 33.7854V33.7423C77.9877 15.1316 60.5059 0 39.0246 0H38.9506C28.6134 0.00605479 18.7023 3.56901 11.3977 9.90508C4.09303 16.2411 -0.00682809 24.8313 8.53649e-06 33.7859C0.000200931 34.036 0.105438 34.2775 0.296085 34.4654C0.486732 34.6533 0.749766 34.7746 1.03611 34.8069ZM13.0803 11.3609C16.4684 8.40588 20.4996 6.06232 24.9403 4.4659C29.3811 2.86948 34.1433 2.0519 38.9512 2.0605H39.0002C39.0083 2.05981 39.0165 2.05981 39.0246 2.0605C57.0011 2.0605 71.9972 13.3493 75.0534 28.1755C75.0184 28.1411 74.983 28.1076 74.9472 28.0749C74.9365 28.0651 74.9256 28.0556 74.9145 28.046C73.9193 27.1934 72.7396 26.5193 71.443 26.0626C70.1465 25.6059 68.7585 25.3754 67.3588 25.3845C64.5455 25.3864 61.843 26.335 59.8218 28.0302C59.8044 28.0445 59.7874 28.0591 59.7709 28.0742C59.0305 28.7508 58.4028 29.5137 57.906 30.3407C57.4094 29.5136 56.7817 28.7507 56.0412 28.0742C56.0306 28.0644 56.0197 28.0549 56.0086 28.0453C54.0106 26.3355 51.3135 25.3789 48.505 25.3838H48.453C45.6397 25.3856 42.9372 26.3343 40.916 28.0295C40.8986 28.0438 40.8815 28.0584 40.8651 28.0733C40.1245 28.7502 39.4968 29.5134 39.0002 30.3409C38.5035 29.5138 37.8758 28.751 37.1353 28.0743C37.1248 28.0646 37.1139 28.0549 37.1028 28.0455C36.1078 27.1928 34.9281 26.5188 33.6315 26.062C32.335 25.6053 30.947 25.3749 29.5474 25.384C26.734 25.3858 24.0314 26.3344 22.0102 28.0297C21.9926 28.0439 21.9756 28.0587 21.9591 28.074C21.2186 28.7506 20.591 29.5135 20.0944 30.3406C19.5976 29.5135 18.9699 28.7506 18.2295 28.074C18.2188 28.0642 18.2079 28.0546 18.197 28.0452C17.2018 27.1927 16.0221 26.5188 14.7255 26.062C13.429 25.6053 12.0412 25.3748 10.6416 25.3837C7.82798 25.3857 5.12536 26.3345 3.10417 28.03C3.08672 28.0445 3.06968 28.0592 3.05303 28.0743C3.01477 28.1095 2.97711 28.1454 2.93964 28.1818C4.24144 21.8046 7.78268 15.9305 13.0803 11.3609Z" fill="#DEC69A"/>
<path d="M14 56.2468L14.0039 64.1374C14.0039 64.4102 14.1287 64.6718 14.3509 64.8646C14.573 65.0575 14.8743 65.1658 15.1884 65.1658L17.8882 65.1641L19.0911 84.0285C19.1078 84.291 19.2397 84.5379 19.4596 84.7186C19.6795 84.8993 19.9708 85 20.2736 85H31.6183C31.9218 85 32.2138 84.8988 32.434 84.7173C32.6541 84.5358 32.7855 84.2878 32.8012 84.0246L33.4068 73.824H34.1116L35.2566 84.0714C35.2852 84.3257 35.4219 84.5616 35.6399 84.7332C35.858 84.9048 36.1418 84.9998 36.4361 84.9997H42.3454C42.6411 84.9997 42.926 84.9037 43.1443 84.7306C43.3626 84.5575 43.4985 84.3198 43.5252 84.0641L44.5691 74.0694L45.2829 84.0352C45.3017 84.2964 45.4344 84.5415 45.6541 84.7207C45.8737 84.8999 46.1638 84.9997 46.4652 84.9997H57.8099C58.1126 84.9996 58.4037 84.899 58.6236 84.7185C58.8435 84.538 58.9755 84.2912 58.9924 84.0288L60.1132 66.6699L62.8155 66.6682C63.1297 66.6682 63.4309 66.5598 63.6531 66.367C63.8752 66.1741 64 65.9125 64 65.6398L63.9961 59.265C63.9903 57.3454 63.1082 55.5061 61.5431 54.1503C59.978 52.7944 57.8576 52.0326 55.6467 52.0319H55.6406L48.5353 52.0364C46.8746 52.04 45.2528 52.4727 43.8764 53.2794C43.4328 52.5733 42.7783 51.9839 41.9818 51.5732C41.1853 51.1625 40.2761 50.9456 39.3497 50.9452H39.346C38.1815 50.9433 37.0511 51.2862 36.1414 51.9174C35.3651 51.0132 34.3565 50.2786 33.1959 49.7721C32.0353 49.2657 30.7546 49.0013 29.4556 49H29.4499L22.3444 49.0045C20.1334 49.0091 18.0145 49.7737 16.451 51.131C14.8875 52.4884 14.0066 54.328 14.001 56.2477L14 56.2468ZM43.5131 71.7572C43.2176 71.7574 42.9329 71.8534 42.7147 72.0265C42.4966 72.1996 42.3609 72.4372 42.3342 72.6927L41.2636 82.9428H37.5112L36.3662 72.6948C36.3378 72.4404 36.2013 72.2044 35.9833 72.0327C35.7654 71.8609 35.4816 71.7658 35.1873 71.7658L32.5984 71.7673L32.5955 68.4096C32.6015 67.0558 33.2241 65.7591 34.3273 64.8023C35.4305 63.8456 36.9248 63.3066 38.4841 63.3029L40.2049 63.2986H40.2092C41.7685 63.2988 43.264 63.8357 44.3681 64.7916C45.4722 65.7475 46.0947 67.0445 46.0992 68.3983L46.1022 71.7557L43.5131 71.7572ZM39.3477 53.0012H39.3497C40.0868 53.0009 40.794 53.2545 41.316 53.7063C41.8381 54.1581 42.1324 54.7713 42.1344 55.4112C42.1342 55.7284 42.062 56.0424 41.922 56.3353C41.782 56.6283 41.5769 56.8944 41.3184 57.1185C41.0599 57.3426 40.7531 57.5203 40.4155 57.6414C40.0779 57.7626 39.7162 57.8248 39.3509 57.8246H39.3487C38.982 57.8274 38.6182 57.7671 38.2785 57.6472C37.9387 57.5273 37.6297 57.3501 37.3692 57.126C37.1087 56.9018 36.9019 56.6351 36.7607 56.3412C36.6195 56.0473 36.5468 55.7321 36.5467 55.4137C36.5465 55.0952 36.619 54.7799 36.76 54.486C36.901 54.192 37.1076 53.9252 37.3679 53.7009C37.6282 53.4766 37.9372 53.2993 38.2768 53.1792C38.6165 53.0591 38.981 52.9986 39.3477 53.0012ZM22.3462 51.0604L29.4515 51.056H29.4558C30.4343 51.0572 31.3976 51.2666 32.2614 51.6658C33.1252 52.065 33.8632 52.6418 34.4109 53.3459C34.4845 53.44 34.5542 53.5368 34.6207 53.6352C34.2816 54.3156 34.1427 55.0586 34.2166 55.7973C34.2905 56.5359 34.5747 57.247 35.0438 57.8665C35.5129 58.486 36.1521 58.9946 36.9038 59.3463C37.6555 59.698 38.4962 59.8819 39.3501 59.8814H39.3541C40.709 59.8816 42.0094 59.418 42.9732 58.5912C43.937 57.7644 44.4865 56.641 44.5026 55.4647C44.6013 55.3869 44.7 55.3105 44.8026 55.239C45.8587 54.495 47.1779 54.09 48.5379 54.0923L55.6431 54.0879H55.6475C57.2306 54.0881 58.7489 54.6332 59.8699 55.6038C60.9909 56.5743 61.6231 57.8911 61.6279 59.2655L61.6313 64.612L58.9942 64.6136C58.6917 64.6138 58.4007 64.7145 58.181 64.895C57.9612 65.0756 57.8294 65.3223 57.8125 65.5846L56.69 82.9428H47.5783L47.2512 78.3774L46.9242 73.812H47.2879C47.602 73.812 47.9033 73.7036 48.1254 73.5108C48.3475 73.3179 48.4723 73.0563 48.4723 72.7836L48.4684 68.3976C48.4626 66.4984 47.5897 64.6788 46.041 63.3376C44.4923 61.9963 42.3943 61.243 40.2069 61.2428H40.2008L38.4799 61.2471C36.2929 61.2518 34.197 62.0081 32.6504 63.3506C31.1039 64.6932 30.2324 66.5128 30.2267 68.4117L30.2306 72.7976C30.231 73.0131 30.3094 73.2231 30.4546 73.3978C30.5998 73.5726 30.8046 73.7033 31.04 73.7715L30.4942 82.9428H21.3951L20.1924 64.0778C20.1757 63.8153 20.0438 63.5683 19.8238 63.3876C19.6038 63.207 19.3125 63.1063 19.0097 63.1063L16.3731 63.1078L16.3697 56.2456C16.3758 54.8714 17.0075 53.555 18.1271 52.5836C19.2466 51.6123 20.7634 51.0647 22.3462 51.0604Z" fill="#DEC69A"/>
<mask id="path-3-inside-1_582:2" fill="white">
<path d="M25.5046 47C27.2278 46.9995 28.8803 46.3668 30.0984 45.2412C31.3166 44.1156 32.0006 42.5893 32 40.998C31.9994 39.4067 31.3143 37.8808 30.0954 36.756C28.8764 35.6311 27.2235 34.9995 25.5002 35H25.4953C23.7721 35.0006 22.1196 35.6332 20.9015 36.7588C19.6834 37.8844 18.9994 39.4108 19 41.0021C19.0006 42.5934 19.6857 44.1193 20.9047 45.2441C22.1237 46.3689 23.7766 47.0006 25.4999 47H25.5046ZM21.3433 41.0027C21.3451 39.9863 21.7834 39.0119 22.5621 38.2935C23.3409 37.5751 24.3963 37.1712 25.4971 37.1704H25.5C26.0447 37.1703 26.584 37.2691 27.0872 37.4614C27.5904 37.6537 28.0477 37.9357 28.433 38.2911C28.8182 38.6466 29.1238 39.0687 29.3324 39.5332C29.541 39.9978 29.6485 40.4957 29.6487 40.9986C29.6489 41.5015 29.5418 41.9996 29.3336 42.4643C29.1253 42.9289 28.82 43.3512 28.435 43.7069C28.0501 44.0627 27.593 44.3449 27.0899 44.5375C26.5868 44.7302 26.0476 44.8294 25.503 44.8296H25.4999C24.3996 44.8294 23.3444 44.4266 22.5652 43.7092C21.7861 42.9919 21.3467 42.0187 21.3433 41.0027Z"/>
</mask>
<path d="M25.5046 47C27.2278 46.9995 28.8803 46.3668 30.0984 45.2412C31.3166 44.1156 32.0006 42.5893 32 40.998C31.9994 39.4067 31.3143 37.8808 30.0954 36.756C28.8764 35.6311 27.2235 34.9995 25.5002 35H25.4953C23.7721 35.0006 22.1196 35.6332 20.9015 36.7588C19.6834 37.8844 18.9994 39.4108 19 41.0021C19.0006 42.5934 19.6857 44.1193 20.9047 45.2441C22.1237 46.3689 23.7766 47.0006 25.4999 47H25.5046ZM21.3433 41.0027C21.3451 39.9863 21.7834 39.0119 22.5621 38.2935C23.3409 37.5751 24.3963 37.1712 25.4971 37.1704H25.5C26.0447 37.1703 26.584 37.2691 27.0872 37.4614C27.5904 37.6537 28.0477 37.9357 28.433 38.2911C28.8182 38.6466 29.1238 39.0687 29.3324 39.5332C29.541 39.9978 29.6485 40.4957 29.6487 40.9986C29.6489 41.5015 29.5418 41.9996 29.3336 42.4643C29.1253 42.9289 28.82 43.3512 28.435 43.7069C28.0501 44.0627 27.593 44.3449 27.0899 44.5375C26.5868 44.7302 26.0476 44.8294 25.503 44.8296H25.4999C24.3996 44.8294 23.3444 44.4266 22.5652 43.7092C21.7861 42.9919 21.3467 42.0187 21.3433 41.0027Z" fill="#DEC69A"/>
<path d="M25.5046 47V128H25.517L25.5294 128L25.5046 47ZM25.5002 35V116H25.5126H25.525L25.5002 35ZM25.4953 35V-46H25.4824L25.4694 -46L25.4953 35ZM25.4999 47V-34H25.4869H25.4739L25.4999 47ZM25.4971 37.1704V-43.8296H25.469L25.4408 -43.8295L25.4971 37.1704ZM25.5 37.1704V118.17H25.5133L25.5265 118.17L25.5 37.1704ZM25.503 44.8296V125.83H25.5162L25.5295 125.83L25.503 44.8296ZM25.4999 44.8296L25.4896 125.83H25.4999V44.8296ZM25.5294 128C46.7447 127.993 68.2605 120.264 85.0697 104.732L-24.8729 -14.2496C-10.4999 -27.5306 7.71091 -33.9946 25.4798 -34L25.5294 128ZM85.0697 104.732C102.096 88.9993 113.009 66.2197 113 40.9689L-49 41.0271C-49.0079 18.959 -39.4628 -0.768009 -24.8729 -14.2496L85.0697 104.732ZM113 40.9689C112.991 15.7186 102.062 -7.05156 85.0273 -22.7712L-24.8366 96.2831C-39.4333 82.8132 -48.9921 63.0948 -49 41.0271L113 40.9689ZM85.0273 -22.7712C68.2097 -38.2906 46.6908 -46.0065 25.4754 -46L25.525 116C7.75626 116.005 -10.4569 109.553 -24.8366 96.2831L85.0273 -22.7712ZM25.5002 -46H25.4953V116H25.5002V-46ZM25.4694 -46C4.25399 -45.9932 -17.2617 -38.2636 -34.0707 -22.7311L75.8737 96.2488C61.501 109.53 43.2902 115.994 25.5213 116L25.4694 -46ZM-34.0707 -22.7311C-51.0967 -6.99809 -62.0095 15.7818 -62 41.0325L100 40.9717C100.008 63.0398 90.4635 82.767 75.8737 96.2488L-34.0707 -22.7311ZM-62 41.0325C-61.9905 66.2828 -51.0611 89.0528 -34.0264 104.772L75.8358 -14.2838C90.4326 -0.814198 99.9917 18.9039 100 40.9717L-62 41.0325ZM-34.0264 104.772C-17.2086 120.291 4.31042 128.007 25.5258 128L25.4739 -34C43.2427 -34.0057 61.4559 -27.5533 75.8358 -14.2838L-34.0264 104.772ZM25.4999 128H25.5046V-34H25.4999V128ZM102.343 41.1473C102.303 63.7509 92.5002 83.9762 77.4872 97.827L-32.3629 -21.24C-48.9333 -5.95228 -59.6126 16.2216 -59.6566 40.8581L102.343 41.1473ZM77.4872 97.827C62.6898 111.479 43.9153 118.158 25.5534 118.17L25.4408 -43.8295C4.87744 -43.8153 -16.0081 -36.3288 -32.3629 -21.24L77.4872 97.827ZM25.4971 118.17H25.5V-43.8296H25.4971V118.17ZM25.5265 118.17C16.2908 118.173 7.01431 116.503 -1.82483 113.126L55.9992 -38.2029C46.1536 -41.965 35.7985 -43.8329 25.4736 -43.8296L25.5265 118.17ZM-1.82483 113.126C-10.6691 109.746 -19.1034 104.643 -26.4977 97.8195L83.3636 -21.2372C75.1988 -28.7714 65.85 -34.4389 55.9992 -38.2029L-1.82483 113.126ZM-26.4977 97.8195C-33.905 90.9843 -40.1584 82.5159 -44.5604 72.7122L103.225 6.35423C98.4061 -4.37852 91.5414 -13.6911 83.3636 -21.2372L-26.4977 97.8195ZM-44.5604 72.7122C-48.9718 62.8877 -51.3471 52.101 -51.3513 41.0297L110.649 40.9676C110.644 28.8905 108.054 17.1079 103.225 6.35423L-44.5604 72.7122ZM-51.3513 41.0297C-51.3556 29.9583 -48.9885 19.1693 -44.5841 9.34055L103.251 75.588C108.072 64.8298 110.653 53.0448 110.649 40.9676L-51.3513 41.0297ZM-44.5841 9.34055C-40.189 -0.467339 -33.9411 -8.94129 -26.5376 -15.7826L83.4077 103.197C91.5811 95.6437 98.4397 86.3252 103.251 75.588L-44.5841 9.34055ZM-26.5376 -15.7826C-19.1473 -22.6118 -10.7157 -27.7217 -1.87269 -31.1075L56.0525 120.183C65.9017 116.412 75.2475 110.737 83.4077 103.197L-26.5376 -15.7826ZM-1.87269 -31.1075C6.96502 -34.4912 16.2409 -36.1674 25.4765 -36.1704L25.5295 125.83C35.8543 125.826 46.2087 123.952 56.0525 120.183L-1.87269 -31.1075ZM25.503 -36.1704H25.4999V125.83H25.503V-36.1704ZM25.5101 -36.1704C43.8621 -36.1681 62.6283 -29.5075 77.4287 -15.8811L-32.2982 103.3C-15.9395 118.361 4.93724 125.827 25.4896 125.83L25.5101 -36.1704ZM77.4287 -15.8811C92.444 -2.0568 102.267 18.1401 102.343 40.7299L-59.6562 41.2755C-59.5733 65.8972 -48.8718 88.0406 -32.2982 103.3L77.4287 -15.8811Z" fill="#DEC69A" mask="url(#path-3-inside-1_582:2)"/>
<mask id="path-5-inside-2_582:2" fill="white">
<path d="M51.9218 49.9997C53.1828 49.9987 54.4195 49.696 55.4972 49.1247C56.5749 48.5533 57.4525 47.7351 58.0345 46.7591H58.7809C59.3329 46.7639 59.8806 46.6731 60.3923 46.4921C60.9039 46.3111 61.3693 46.0434 61.7617 45.7045C62.154 45.3656 62.4655 44.9623 62.678 44.5177C62.8906 44.0731 63 43.5962 63 43.1145C63 42.6329 62.8906 42.1559 62.678 41.7114C62.4655 41.2668 62.154 40.8634 61.7617 40.5245C61.3693 40.1856 60.9039 39.9179 60.3923 39.7369C59.8806 39.5559 59.3329 39.4652 58.7809 39.47H56.4258C55.1758 38.5213 53.5745 37.9991 51.9176 38.0001H51.9124C51.0062 37.996 50.1079 38.1483 49.2693 38.4481C48.4307 38.748 47.6683 39.1894 47.0259 39.7472C46.3835 40.305 45.8739 40.968 45.5262 41.6982C45.1785 42.4284 44.9997 43.2114 45 44.0021C45.0003 44.7928 45.1798 45.5756 45.528 46.3056C45.8763 47.0356 46.3865 47.6983 47.0293 48.2557C47.6721 48.8131 48.4349 49.2541 49.2737 49.5535C50.1125 49.8528 51.0109 50.0045 51.9172 49.9999L51.9218 49.9997ZM60.4702 43.1145C60.4697 43.5054 60.2915 43.8802 59.9747 44.1566C59.6579 44.433 59.2283 44.5884 58.7802 44.5888H58.7713C58.7932 44.393 58.804 44.1952 58.8039 43.9956C58.8041 43.1857 58.6151 42.3843 58.2483 41.6403H58.7802C59.2283 41.6407 59.6579 41.7961 59.9747 42.0725C60.2915 42.3489 60.4697 42.7236 60.4702 43.1145ZM47.5174 44.0026C47.5181 42.9857 47.9817 42.0108 48.8062 41.2921C49.6308 40.5734 50.7488 40.1699 51.9143 40.1703H51.9176C52.4966 40.1667 53.0706 40.263 53.6067 40.4538C54.1428 40.6445 54.6303 40.9259 55.0413 41.2817C55.4522 41.6375 55.7784 42.0608 56.001 42.5271C56.2237 42.9933 56.3384 43.4934 56.3386 43.9985C56.3388 44.5037 56.2244 45.0038 56.0021 45.4702C55.7798 45.9366 55.454 46.36 55.0433 46.7161C54.6327 47.0722 54.1453 47.3538 53.6094 47.5449C53.0734 47.7359 52.4995 47.8326 51.9205 47.8293H51.9174C50.7526 47.8303 49.6349 47.4278 48.81 46.7103C47.9851 45.9928 47.5204 45.0189 47.5181 44.0026H47.5174Z"/>
</mask>
<path d="M51.9218 49.9997C53.1828 49.9987 54.4195 49.696 55.4972 49.1247C56.5749 48.5533 57.4525 47.7351 58.0345 46.7591H58.7809C59.3329 46.7639 59.8806 46.6731 60.3923 46.4921C60.9039 46.3111 61.3693 46.0434 61.7617 45.7045C62.154 45.3656 62.4655 44.9623 62.678 44.5177C62.8906 44.0731 63 43.5962 63 43.1145C63 42.6329 62.8906 42.1559 62.678 41.7114C62.4655 41.2668 62.154 40.8634 61.7617 40.5245C61.3693 40.1856 60.9039 39.9179 60.3923 39.7369C59.8806 39.5559 59.3329 39.4652 58.7809 39.47H56.4258C55.1758 38.5213 53.5745 37.9991 51.9176 38.0001H51.9124C51.0062 37.996 50.1079 38.1483 49.2693 38.4481C48.4307 38.748 47.6683 39.1894 47.0259 39.7472C46.3835 40.305 45.8739 40.968 45.5262 41.6982C45.1785 42.4284 44.9997 43.2114 45 44.0021C45.0003 44.7928 45.1798 45.5756 45.528 46.3056C45.8763 47.0356 46.3865 47.6983 47.0293 48.2557C47.6721 48.8131 48.4349 49.2541 49.2737 49.5535C50.1125 49.8528 51.0109 50.0045 51.9172 49.9999L51.9218 49.9997ZM60.4702 43.1145C60.4697 43.5054 60.2915 43.8802 59.9747 44.1566C59.6579 44.433 59.2283 44.5884 58.7802 44.5888H58.7713C58.7932 44.393 58.804 44.1952 58.8039 43.9956C58.8041 43.1857 58.6151 42.3843 58.2483 41.6403H58.7802C59.2283 41.6407 59.6579 41.7961 59.9747 42.0725C60.2915 42.3489 60.4697 42.7236 60.4702 43.1145ZM47.5174 44.0026C47.5181 42.9857 47.9817 42.0108 48.8062 41.2921C49.6308 40.5734 50.7488 40.1699 51.9143 40.1703H51.9176C52.4966 40.1667 53.0706 40.263 53.6067 40.4538C54.1428 40.6445 54.6303 40.9259 55.0413 41.2817C55.4522 41.6375 55.7784 42.0608 56.001 42.5271C56.2237 42.9933 56.3384 43.4934 56.3386 43.9985C56.3388 44.5037 56.2244 45.0038 56.0021 45.4702C55.7798 45.9366 55.454 46.36 55.0433 46.7161C54.6327 47.0722 54.1453 47.3538 53.6094 47.5449C53.0734 47.7359 52.4995 47.8326 51.9205 47.8293H51.9174C50.7526 47.8303 49.6349 47.4278 48.81 46.7103C47.9851 45.9928 47.5204 45.0189 47.5181 44.0026H47.5174Z" fill="#DEC69A"/>
<path d="M51.9218 49.9997L51.8547 -31.0003L50.2694 -30.9989L48.6853 -30.9356L51.9218 49.9997ZM58.0345 46.7591V-34.2409H12.0266L-11.5362 5.27515L58.0345 46.7591ZM58.7809 46.7591L59.4849 -34.2379L59.1329 -34.2409H58.7809V46.7591ZM58.7809 39.47V120.47H59.1329L59.4849 120.467L58.7809 39.47ZM56.4258 39.47L7.45611 103.991L29.1683 120.47H56.4258V39.47ZM51.9176 38.0001V119H51.9404L51.9632 119L51.9176 38.0001ZM51.9124 38.0001L51.5497 118.999L51.7311 119H51.9124V38.0001ZM51.9172 49.9999L52.3289 130.999L53.7418 130.992L55.1536 130.935L51.9172 49.9999ZM58.7802 44.5888V125.589H58.8148L58.8495 125.589L58.7802 44.5888ZM58.7713 44.5888L-21.7297 35.6119L-31.7633 125.589H58.7713V44.5888ZM58.8039 43.9956L-22.1961 43.9714L-22.1961 44.0115L-22.1961 44.0516L58.8039 43.9956ZM58.2483 41.6403V-39.3597H-71.9938L-14.4025 77.4574L58.2483 41.6403ZM58.7802 41.6403L58.8495 -39.3597L58.8148 -39.3597H58.7802V41.6403ZM47.5174 44.0026L-33.4826 43.9501L-33.5351 125.003H47.5174V44.0026ZM51.9143 40.1703L51.8843 121.17L51.8993 121.17H51.9143V40.1703ZM51.9176 40.1703V121.17H52.1718L52.4261 121.169L51.9176 40.1703ZM51.9205 47.8293L52.3823 -33.1694L52.1514 -33.1707H51.9205V47.8293ZM51.9174 47.8293V-33.1707H51.8823L51.8473 -33.1707L51.9174 47.8293ZM47.5181 44.0026L128.518 43.8143L128.33 -36.9974H47.5181V44.0026ZM51.9888 131C65.9908 130.988 80.2899 127.66 93.437 120.69L17.5574 -22.4405C28.5491 -28.2676 40.3749 -30.9908 51.8547 -31.0003L51.9888 131ZM93.437 120.69C106.614 113.704 118.872 102.889 127.605 88.243L-11.5362 5.27515C-3.9672 -7.41842 6.53603 -16.5976 17.5574 -22.4405L93.437 120.69ZM58.0345 127.759H58.7809V-34.2409H58.0345V127.759ZM58.0768 127.756C67.9016 127.841 77.8409 126.239 87.4069 122.854L33.3776 -29.8702C41.9204 -32.8924 50.7643 -34.3137 59.4849 -34.2379L58.0768 127.756ZM87.4069 122.854C96.9744 119.47 106.333 114.239 114.711 107.002L8.81244 -15.5929C16.406 -22.1523 24.8334 -26.8475 33.3776 -29.8702L87.4069 122.854ZM114.711 107.002C123.11 99.7472 130.473 90.5037 135.755 79.4569L-10.399 9.57848C-5.5425 -0.579159 1.19845 -9.01589 8.81244 -15.5929L114.711 107.002ZM135.755 79.4569C141.059 68.3628 144 55.9724 144 43.1145H-18C-18 31.2201 -15.2782 19.7835 -10.399 9.57848L135.755 79.4569ZM144 43.1145C144 30.2568 141.059 17.8664 135.755 6.77218L-10.399 76.6506C-15.2782 66.4455 -18 55.0089 -18 43.1145H144ZM135.755 6.77218C130.473 -4.27458 123.11 -13.5181 114.711 -20.7729L8.81244 101.822C1.19845 95.245 -5.5425 86.8082 -10.399 76.6506L135.755 6.77218ZM114.711 -20.7729C106.332 -28.0103 96.9741 -33.2408 87.4069 -36.6254L33.3776 116.099C24.8337 113.077 16.4062 108.382 8.81244 101.822L114.711 -20.7729ZM87.4069 -36.6254C77.8411 -40.0095 67.9019 -41.6123 58.0768 -41.5269L59.4849 120.467C50.764 120.543 41.9201 119.121 33.3776 116.099L87.4069 -36.6254ZM58.7809 -41.53H56.4258V120.47H58.7809V-41.53ZM105.395 -25.0511C89.228 -37.3218 70.1733 -43.0102 51.872 -42.9999L51.9632 119C36.9757 119.009 21.1235 114.364 7.45611 103.991L105.395 -25.0511ZM51.9176 -42.9999H51.9124V119H51.9176V-42.9999ZM52.2752 -42.9991C42.1221 -43.0446 31.8615 -41.3496 21.999 -37.8233L76.5396 114.72C68.3543 117.646 59.8902 119.037 51.5497 118.999L52.2752 -42.9991ZM21.999 -37.8233C12.1351 -34.2965 2.51381 -28.8765 -6.08017 -21.4144L100.132 100.909C92.8228 107.255 84.7263 111.792 76.5396 114.72L21.999 -37.8233ZM-6.08017 -21.4144C-14.6943 -13.9348 -22.2199 -4.43725 -27.6069 6.87653L118.659 76.5199C113.968 86.3733 107.461 94.5448 100.132 100.909L-6.08017 -21.4144ZM-27.6069 6.87653C-33.0164 18.2377 -36.0052 30.9039 -36 44.0343L126 43.9699C126.005 55.5189 123.373 66.6192 118.659 76.5199L-27.6069 6.87653ZM-36 44.0343C-35.9948 57.1643 -32.9961 69.8272 -27.5786 81.1829L118.635 11.4284C123.356 21.3241 125.995 32.4212 126 43.9699L-36 44.0343ZM-27.5786 81.1829C-22.1837 92.4911 -14.6523 101.982 -6.03479 109.454L100.093 -12.9423C107.425 -6.58496 113.936 1.5801 118.635 11.4284L-27.5786 81.1829ZM-6.03479 109.454C2.5627 116.909 12.186 122.322 22.0512 125.842L76.4962 -26.735C84.6837 -23.8134 92.7815 -19.2824 100.093 -12.9423L-6.03479 109.454ZM22.0512 125.842C31.9149 129.362 42.1759 131.05 52.3289 130.999L51.5055 -30.9991C59.846 -31.0415 68.3102 -29.6561 76.4962 -26.735L22.0512 125.842ZM55.1536 130.935L55.1582 130.935L48.6853 -30.9356L48.6808 -30.9354L55.1536 130.935ZM-20.5297 43.0122C-20.4982 18.1146 -9.05812 -3.11164 6.72749 -16.8822L113.222 105.195C129.641 90.872 141.438 68.8963 141.47 43.2169L-20.5297 43.0122ZM6.72749 -16.8822C22.1636 -30.3479 40.9985 -36.396 58.711 -36.4112L58.8495 125.589C77.458 125.573 97.1521 119.214 113.222 105.195L6.72749 -16.8822ZM58.7802 -36.4112H58.7713V125.589H58.7802V-36.4112ZM139.272 53.5658C139.633 50.3314 139.806 47.1174 139.804 43.9395L-22.1961 44.0516C-22.198 41.2731 -22.0467 38.4546 -21.7297 35.6119L139.272 53.5658ZM139.804 44.0197C139.808 30.4731 136.624 17.4365 130.899 5.82314L-14.4025 77.4574C-19.3943 67.332 -22.1997 55.8982 -22.1961 43.9714L139.804 44.0197ZM58.2483 122.64H58.7802V-39.3597H58.2483V122.64ZM58.711 122.64C40.9985 122.625 22.1636 116.577 6.72749 103.111L113.222 -18.9663C97.1521 -32.9848 77.458 -39.3438 58.8495 -39.3597L58.711 122.64ZM6.72749 103.111C-9.05811 89.3407 -20.4982 68.1145 -20.5297 43.2169L141.47 43.0122C141.438 17.3327 129.641 -4.64298 113.222 -18.9663L6.72749 103.111ZM128.517 44.0552C128.502 68.3613 117.329 89.0164 102.027 102.354L-4.41471 -19.7696C-21.3661 -4.9949 -33.4655 17.6102 -33.4826 43.9501L128.517 44.0552ZM102.027 102.354C87.0758 115.385 68.901 121.177 51.8843 121.17L51.9443 -40.8297C32.5966 -40.8368 12.1858 -34.2385 -4.41471 -19.7696L102.027 102.354ZM51.9143 121.17H51.9176V-40.8297H51.9143V121.17ZM52.4261 121.169C43.7503 121.223 34.9528 119.791 26.4546 116.767L80.7588 -35.8598C71.1885 -39.2649 61.2428 -40.8898 51.4091 -40.8281L52.4261 121.169ZM26.4546 116.767C17.9553 113.743 9.57203 109.056 2.01817 102.515L108.064 -19.9519C99.6887 -27.2045 90.3303 -32.4543 80.7588 -35.8598L26.4546 116.767ZM2.01817 102.515C-5.55578 95.9569 -12.2611 87.5494 -17.093 77.4307L129.095 7.62337C123.818 -3.42785 116.46 -12.6818 108.064 -19.9519L2.01817 102.515ZM-17.093 77.4307C-21.9475 67.2647 -24.6569 55.8748 -24.6614 44.0292L137.339 43.9678C137.334 31.112 134.395 18.722 129.095 7.62337L-17.093 77.4307ZM-24.6614 44.0292C-24.6659 32.1833 -21.9649 20.7905 -17.1171 10.6195L129.121 80.3209C134.414 69.2171 137.343 56.824 137.339 43.9678L-24.6614 44.0292ZM-17.1171 10.6195C-12.2917 0.495476 -5.5909 -7.91819 1.98016 -14.4828L108.106 107.915C116.499 100.638 123.851 91.3777 129.121 80.3209L-17.1171 10.6195ZM1.98016 -14.4828C9.53109 -21.0299 17.9129 -25.7229 26.4118 -28.7525L80.807 123.842C90.3778 120.431 99.7342 115.174 108.106 107.915L1.98016 -14.4828ZM26.4118 -28.7525C34.9093 -31.7816 43.7067 -33.2189 52.3823 -33.1694L51.4588 128.828C61.2923 128.884 71.2376 127.253 80.807 123.842L26.4118 -28.7525ZM51.9205 -33.1707H51.9174V128.829H51.9205V-33.1707ZM51.8473 -33.1707C68.8548 -33.1854 87.0186 -27.4096 101.97 -14.4049L-4.34953 107.825C12.2513 122.265 32.6503 128.846 51.9876 128.829L51.8473 -33.1707ZM101.97 -14.4049C117.27 -1.09609 128.461 19.5252 128.518 43.8143L-33.4817 44.1909C-33.4205 70.5126 -21.2999 93.0816 -4.34953 107.825L101.97 -14.4049ZM47.5181 -36.9974H47.5174V125.003H47.5181V-36.9974Z" fill="#DEC69A" mask="url(#path-5-inside-2_582:2)"/>
</svg>
