<svg width="89" height="78" viewBox="0 0 89 78" fill="none" xmlns="http://www.w3.org/2000/svg">
<path d="M88.053 49.2985C86.3601 46.9186 82.951 46.2887 80.4555 47.893L69.0975 55.1643L69.0645 32.5314L73.0104 36.0674C73.8495 36.8192 74.9436 37.2329 76.0922 37.2329C76.0943 37.2329 76.0967 37.2329 76.099 37.2329C77.3391 37.2312 78.5364 36.7341 79.384 35.8685C80.2074 35.0277 80.6394 33.9305 80.6001 32.7788C80.5608 31.6272 80.055 30.5591 79.1759 29.7714L71.6952 23.0679C71.1831 22.6089 70.3792 22.634 69.8996 23.1239C69.42 23.6138 69.4462 24.3827 69.9582 24.8416L77.4389 31.5452C77.8227 31.889 78.0434 32.3553 78.0606 32.858C78.0777 33.3607 77.8893 33.8397 77.5296 34.2067C77.1541 34.5902 76.6448 34.8017 76.0952 34.8023C76.0941 34.8023 76.0933 34.8023 76.0922 34.8023C75.5911 34.8023 75.1136 34.6218 74.7473 34.2935C74.7471 34.2933 74.7471 34.2933 74.7471 34.2933L45.043 7.67482C44.5535 7.23633 43.7918 7.237 43.3035 7.67715L13.6766 34.3753C13.294 34.7202 12.7937 34.9008 12.2681 34.8868C11.7424 34.8718 11.2545 34.6618 10.894 34.2955C10.5335 33.9295 10.3435 33.451 10.3593 32.9483C10.3749 32.4454 10.5945 31.9787 10.9771 31.6338L42.8184 2.94023C43.5732 2.25997 44.7573 2.2583 45.5139 2.93674L64.1426 19.6303C64.6545 20.0891 65.4585 20.0641 65.9382 19.5742C66.4178 19.0844 66.3916 18.3155 65.8796 17.8565L47.2512 1.16299C45.5176 -0.390762 42.8054 -0.387271 41.0763 1.17114L30.8832 10.3566L30.8804 8.71826C30.8797 8.20178 30.6687 7.71656 30.2864 7.35207C29.9049 6.98807 29.3983 6.7877 28.8595 6.7877C28.8584 6.7877 28.8576 6.7877 28.8565 6.7877L21.5649 6.79751C21.025 6.79818 20.518 7.00005 20.1368 7.3657C19.7557 7.73136 19.5461 8.21708 19.547 8.73372L19.5671 20.5543L9.23497 29.865C8.35818 30.6551 7.85564 31.7244 7.81966 32.8761C7.78368 34.0278 8.21877 35.1239 9.04463 35.9623C9.87031 36.8011 10.9882 37.282 12.1923 37.3164C12.2384 37.3177 12.2844 37.3184 12.3305 37.3184C13.4838 37.3184 14.576 36.9043 15.4189 36.1444L19.3559 32.5966L19.3716 43.2871C18.0978 43.1097 16.809 43.0166 15.5143 43.0166H13.3406V42.2879C13.3406 39.8417 11.2601 37.8515 8.70288 37.8515H4.63773C2.08055 37.8513 0 39.8414 0 42.2878V61.3302C0 62.0014 0.568766 62.5454 1.27034 62.5454C1.97191 62.5454 2.54067 62.0014 2.54067 61.3302V42.2878C2.54067 41.1816 3.48143 40.2817 4.63773 40.2817H8.7027C9.85901 40.2817 10.7998 41.1816 10.7998 42.2878V44.2316V69.1402V71.065C10.7998 72.1711 9.85901 73.071 8.7027 73.071H4.63773C3.48143 73.071 2.54067 72.1711 2.54067 71.065V68.9385C2.54067 68.2674 1.97191 67.7233 1.27034 67.7233C0.568766 67.7233 0 68.2674 0 68.9385V71.065C0 73.5112 2.08055 75.5014 4.63773 75.5014H8.7027C11.2599 75.5014 13.3404 73.5113 13.3404 71.065V70.8999L31.9442 77.639C31.9786 77.6515 32.0136 77.6624 32.049 77.6719C32.8579 77.8904 33.6663 78 34.4646 78C34.8963 78 35.3252 77.9679 35.7497 77.9037L63.0895 74.1337C63.096 74.1329 63.1022 74.1319 63.1087 74.1309C65.4331 73.7759 67.6259 72.8359 69.4499 71.4128C69.4657 71.4005 69.4814 71.3877 69.4965 71.3746L87.1593 56.1783C89.2162 54.4315 89.6002 51.4738 88.053 49.2985ZM28.3404 9.21894L28.3463 12.6427L22.1038 18.2681L22.0883 9.22708L28.3404 9.21894ZM44.1769 10.2289L66.5204 30.2515L66.5591 56.7892L62.9625 59.0919L59.1537 58.8875L59.0531 57.9198C58.6986 54.5113 56.0683 51.7694 52.5901 51.1151L52.5672 35.3273C52.5654 34.1158 51.5343 33.1312 50.268 33.1312C50.2669 33.1312 50.2661 33.1312 50.2648 33.1312L38.157 33.1475C37.5429 33.1483 36.9658 33.3778 36.5322 33.7938C36.0985 34.2097 35.8602 34.7624 35.8611 35.3497L35.8813 49.1149C33.4829 48.5904 31.1929 47.7242 29.0519 46.5262C28.7847 46.3767 28.5149 46.2323 28.2429 46.092C28.1369 46.0373 28.0291 45.9859 27.9222 45.9325C27.7567 45.8499 27.5916 45.7668 27.4243 45.6874C27.2912 45.6242 27.1565 45.5644 27.0223 45.5034C26.8799 45.4387 26.7377 45.3733 26.5943 45.311C26.4483 45.2476 26.3011 45.1872 26.154 45.1264C26.0196 45.0709 25.8853 45.015 25.75 44.9616C25.5988 44.9019 25.4467 44.8445 25.2944 44.7875C25.1594 44.737 25.0241 44.6867 24.8884 44.6382C24.7377 44.5843 24.5863 44.5323 24.4345 44.4812C24.2921 44.4332 24.1496 44.3863 24.0064 44.3405C23.861 44.2941 23.7154 44.2487 23.569 44.2047C23.4131 44.1576 23.2565 44.1127 23.0997 44.0683C22.965 44.0304 22.8304 43.9925 22.695 43.9566C22.5182 43.9095 22.3406 43.8655 22.1627 43.8219C22.0795 43.8014 21.9967 43.7783 21.9129 43.7585L21.8933 30.3099L44.1769 10.2289ZM50.0491 50.811L39.4239 49.6408L38.4228 49.5306L38.4023 35.5776L50.0269 35.5619L50.0491 50.811ZM85.4666 54.3663L67.8211 69.5476C66.3507 70.6882 64.5869 71.4426 62.7174 71.7296L35.3893 75.4979C35.3836 75.4988 35.378 75.4996 35.3723 75.5004L35.3533 75.5033C34.5254 75.6286 33.6632 75.5758 32.7904 75.3466L13.3406 68.3008V45.4468H15.5143C17.3647 45.4468 19.2026 45.6512 20.9924 46.0481C21.0589 46.0629 21.1253 46.078 21.1917 46.0933C21.4116 46.144 21.631 46.1963 21.8493 46.2528C21.8684 46.2578 21.8874 46.2631 21.9065 46.2681C22.1254 46.3253 22.3433 46.3857 22.5606 46.4487C22.5996 46.46 22.6387 46.4711 22.6774 46.4826C22.9086 46.5509 23.1388 46.6223 23.3677 46.6971C23.3914 46.7049 23.4148 46.7129 23.4385 46.7207C23.9153 46.8782 24.3874 47.05 24.8536 47.2359C24.879 47.246 24.9044 47.2562 24.9297 47.2665C25.1621 47.3599 25.3932 47.4565 25.6226 47.557C25.6287 47.5596 25.635 47.5624 25.641 47.5653C25.8628 47.6627 26.0831 47.7638 26.3019 47.8677C26.3277 47.8799 26.3536 47.8919 26.3793 47.9042C26.5931 48.0064 26.8052 48.1123 27.016 48.2208C27.0558 48.2412 27.0955 48.2622 27.1353 48.2828C27.348 48.3937 27.5596 48.5068 27.769 48.624C30.7921 50.3156 34.083 51.4112 37.5505 51.8807C37.5615 51.8822 37.5723 51.8835 37.5832 51.8847L51.8164 53.4522C51.8952 53.463 51.9734 53.4755 52.0511 53.4895C54.1464 53.8659 55.8002 55.347 56.3535 57.2757C56.4356 57.5614 56.4933 57.8571 56.5249 58.1602L56.5814 58.7039L29.9057 56.4683C29.2073 56.4099 28.5906 56.9043 28.5294 57.5727C28.468 58.2413 28.9851 58.8308 29.6839 58.8894L57.8862 61.2531C57.8929 61.2536 57.8995 61.2534 57.9061 61.2539C57.9128 61.2544 57.9192 61.2554 57.926 61.2559L63.2446 61.5414C63.2684 61.5427 63.292 61.5432 63.3157 61.5432C63.3409 61.5432 63.3657 61.5394 63.3908 61.5379C63.4191 61.5363 63.4474 61.5353 63.4756 61.5319C63.5135 61.5273 63.5505 61.5195 63.5877 61.5117C63.6143 61.506 63.6411 61.5018 63.6672 61.4945C63.7078 61.4834 63.7469 61.4682 63.7864 61.4531C63.8076 61.445 63.8295 61.4388 63.8504 61.4295C63.9096 61.4032 63.9674 61.373 64.0223 61.3377L68.5369 58.4475C68.5371 58.4474 68.5373 58.4472 68.5375 58.447L81.8704 49.9114C83.2119 49.0489 85.043 49.3872 85.9523 50.6656C86.7835 51.8339 86.5772 53.4228 85.4666 54.3663Z" fill="#DEC69A"/>
</svg>
