<svg width="82" height="83" viewBox="0 0 82 83" fill="none" xmlns="http://www.w3.org/2000/svg">
<path d="M42.0705 45.2978C41.9188 45.2646 41.7631 45.2586 41.6095 45.2819C40.0694 45.1004 38.9076 43.7815 38.9049 42.2126C38.9049 41.4608 38.3027 40.8512 37.5599 40.8512C36.8171 40.8512 36.2149 41.4608 36.2149 42.2126C36.2188 44.8325 37.95 47.1273 40.4457 47.8206V49.1821C40.4457 49.9339 41.0479 50.5435 41.7907 50.5435C42.5335 50.5435 43.1358 49.9339 43.1358 49.1821V47.903C46.0163 47.2928 47.9741 44.5772 47.6713 41.6144C47.3679 38.6515 44.9018 36.3999 41.9589 36.3993C40.2723 36.3993 38.9049 35.0152 38.9049 33.3081C38.9049 31.601 40.2723 30.2169 41.9589 30.2169C43.6454 30.2169 45.0128 31.601 45.0128 33.3081C45.0128 34.06 45.615 34.6695 46.3578 34.6695C47.1006 34.6695 47.7028 34.06 47.7028 33.3081C47.6989 30.5573 45.795 28.1848 43.1358 27.617V26.3779C43.1358 25.6261 42.5335 25.0165 41.7907 25.0165C41.0479 25.0165 40.4457 25.6261 40.4457 26.3779V27.7001C37.6702 28.4673 35.8839 31.1948 36.2661 34.0812C36.6483 36.9676 39.0816 39.1221 41.9589 39.1215C43.6231 39.1215 44.9806 40.4703 45.0108 42.1541C45.0417 43.838 43.7334 45.2367 42.0705 45.2978Z" fill="#DEC69A"/>
<path d="M22.4545 37.865C22.4545 48.7685 31.1868 57.6072 41.9589 57.6072C52.731 57.6072 61.4632 48.7685 61.4632 37.865C61.4632 26.9615 52.731 18.1228 41.9589 18.1228C31.192 18.1348 22.467 26.9668 22.4545 37.865ZM41.9589 20.8457C51.2454 20.8457 58.7731 28.4652 58.7731 37.865C58.7731 47.2648 51.2454 54.8843 41.9589 54.8843C32.6723 54.8843 25.1446 47.2648 25.1446 37.865C25.1551 28.4699 32.6769 20.8563 41.9589 20.8457Z" fill="#DEC69A"/>
<path d="M68.0938 60.9636L57.5575 66.0025C56.1028 63.2637 53.3122 61.5207 50.2412 61.4329L40.5147 61.1624C38.9746 61.1178 37.4634 60.7229 36.094 60.007L35.1043 59.4878C30.0368 56.8141 23.9966 56.8208 18.9343 59.5051L18.996 57.2356C19.0164 56.4837 18.4312 55.8575 17.6884 55.8369L7.02272 55.5398C6.27993 55.5192 5.66192 56.1115 5.64156 56.8633L4.99728 80.5542C4.97692 81.3061 5.56209 81.9323 6.30488 81.9529L16.9706 82.25H17.0074C17.7364 82.25 18.3327 81.6631 18.3524 80.9258L18.3833 79.7924L21.1541 78.2907C22.2417 77.6984 23.5132 77.5575 24.7013 77.8978L41.2476 82.5984C41.2765 82.607 41.3054 82.6137 41.3349 82.6203C42.5309 82.8736 43.7498 83.0006 44.9714 82.9999C47.559 83.0012 50.1164 82.4368 52.4683 81.344C52.5261 81.3174 52.5819 81.2861 52.6351 81.2509L76.6257 65.5438C77.2234 65.1523 77.4165 64.3579 77.0664 63.7303C75.2853 60.5315 71.3349 59.313 68.0938 60.9636ZM7.72348 79.2686L8.29354 58.2992L16.2698 58.5212L15.6998 79.4913L7.72348 79.2686ZM51.2566 78.9123C48.3347 80.2471 45.0712 80.6154 41.9306 79.9659L25.429 75.2773C23.5717 74.7462 21.5837 74.9662 19.8846 75.8909L18.4687 76.6587L18.8476 62.7166C23.3346 59.6959 29.0891 59.3854 33.8676 61.9056L34.8574 62.4247C36.5873 63.3288 38.4951 63.8274 40.4411 63.8846L50.1683 64.1551C52.9004 64.2349 55.2207 66.2039 55.775 68.9135L41.2864 68.5087C40.5436 68.4881 39.9255 69.081 39.9045 69.8322C39.8842 70.5841 40.47 71.2103 41.2121 71.2309L57.2015 71.6763H57.239C57.9673 71.6756 58.563 71.0886 58.5827 70.3521C58.5991 69.7604 58.5558 69.1681 58.4526 68.5858L69.2596 63.4172C69.2701 63.4126 69.2806 63.4073 69.2911 63.402C70.824 62.6169 72.6773 62.8794 73.9383 64.0607L51.2566 78.9123Z" fill="#DEC69A"/>
<path d="M43.3039 14.2951V1.36144C43.3039 0.60959 42.7017 0 41.9589 0C41.2161 0 40.6138 0.60959 40.6138 1.36144V14.2951C40.6138 15.047 41.2161 15.6566 41.9589 15.6566C42.7017 15.6566 43.3039 15.047 43.3039 14.2951Z" fill="#DEC69A"/>
<path d="M53.3917 14.2952V8.16875C53.3917 7.4169 52.7894 6.80731 52.0466 6.80731C51.3038 6.80731 50.7016 7.4169 50.7016 8.16875V14.2952C50.7016 15.0471 51.3038 15.6567 52.0466 15.6567C52.7894 15.6567 53.3917 15.0471 53.3917 14.2952Z" fill="#DEC69A"/>
<path d="M33.2161 14.2952V8.16875C33.2161 7.4169 32.6139 6.80731 31.8711 6.80731C31.1283 6.80731 30.5261 7.4169 30.5261 8.16875V14.2952C30.5261 15.0471 31.1283 15.6567 31.8711 15.6567C32.6139 15.6567 33.2161 15.0471 33.2161 14.2952Z" fill="#DEC69A"/>
</svg>
