<svg width="107" height="84" viewBox="0 0 107 84" fill="none" xmlns="http://www.w3.org/2000/svg">
<path d="M11.7158 53.6873L12.2093 50.5989L19.2386 51.4661L18.7451 54.5545L11.7158 53.6873Z" fill="#DEC69A"/>
<path d="M26.3199 74.4019L26.8136 71.3126L30.3292 71.7463L29.8356 74.8356L26.3199 74.4019Z" fill="#DEC69A"/>
<path d="M106.906 34.7786L106.597 31.6736L70.9872 34.4107C69.8108 34.5002 68.7015 34.9304 67.8339 35.6338C66.9664 36.3373 66.3896 37.274 66.1945 38.2966L64.5792 46.8104C64.5243 47.2458 64.5745 47.6865 64.7266 48.1037C64.8787 48.5209 65.1292 48.9053 65.4619 49.2318C65.7945 49.5583 66.2017 49.8196 66.6571 49.9986C67.1124 50.1776 67.6056 50.2703 68.1045 50.2707C68.2088 50.2712 68.313 50.2671 68.4169 50.2583L98.0891 47.9747L100.256 69.7143L89.5066 70.5404C88.8295 67.9845 87.1249 65.7289 84.7057 64.1881C82.2866 62.6474 79.3156 61.925 76.3385 62.1536C73.3615 62.3822 70.5783 63.5465 68.5005 65.4326C66.4227 67.3187 65.1898 69.7999 65.0283 72.4202L59.5841 72.838C59.3522 72.8568 59.1184 72.8346 58.8965 72.7728C58.6745 72.7109 58.4689 72.6107 58.2918 72.4779C58.1125 72.3471 57.9644 72.1863 57.8563 72.0049C57.7481 71.8235 57.682 71.6251 57.6617 71.4211L57.5072 69.8624L62.8112 69.454L62.5005 66.349L57.1966 66.7621L57.0368 65.1597L63.2887 61.8614C63.5197 61.7395 63.7161 61.5729 63.8629 61.3743C64.0097 61.1758 64.1031 60.9504 64.1359 60.7155C64.1688 60.4805 64.1402 60.2421 64.0525 60.0182C63.9647 59.7944 63.8201 59.591 63.6295 59.4236L61.3343 57.4097L63.6295 55.3943C63.8278 55.2196 63.9761 55.0061 64.0621 54.7713C64.1482 54.5365 64.1696 54.2872 64.1245 54.0437C64.0795 53.8003 63.9693 53.5697 63.803 53.3709C63.6367 53.1721 63.4191 53.0109 63.168 52.9003L57.0493 50.2131C57.209 49.6628 57.3652 49.1111 57.5694 48.5733L64.2472 34.3406C64.6169 33.5466 65.229 32.8577 66.0161 32.3497C66.8032 31.8417 67.7347 31.5344 68.708 31.4616L105.298 28.6559C105.699 28.627 106.104 28.6364 106.503 28.684L107 25.5977C106.334 25.5165 105.659 25.5009 104.989 25.5509L68.3974 28.3566C66.7753 28.4784 65.2229 28.9909 63.9112 29.8377C62.5996 30.6845 61.5795 31.8327 60.9633 33.156L54.2517 47.4962C53.381 49.7894 52.8739 52.1769 52.7447 54.5915C52.3592 53.8151 51.8732 53.0803 51.2962 52.4015C50.3172 51.2546 49.089 50.2896 47.6826 49.5621C46.2761 48.8346 44.7194 48.3592 43.1025 48.1634L40.2748 47.8142L49.7235 42.2838L52.2441 44.4972L54.7541 42.2932L51.2039 39.1757C50.9138 38.9209 50.532 38.7621 50.1235 38.7266C49.7151 38.6911 49.3053 38.781 48.9638 38.9809L36.2187 46.441L24.4712 29.7922C23.7861 28.8209 22.8659 27.994 21.7759 27.3701C20.6859 26.7462 19.4529 26.3406 18.1644 26.1822L0.493472 24L0 27.0878L17.6691 29.2701C18.4426 29.3645 19.1829 29.6075 19.8373 29.9817C20.4917 30.3559 21.0442 30.8521 21.4554 31.4351L22.5772 33.0235L0.493472 30.2988L0 33.3851L7.67012 34.3328L6.18793 43.5932L0.493472 42.8917L0 45.978L5.69445 46.681L2.23482 68.2912L0.493472 68.0761L0 71.1623L15.942 73.1295C15.9542 76.0162 17.2687 78.7811 19.5976 80.8186C21.9265 82.856 25.0801 84 28.3675 84C31.0541 83.9933 33.666 83.2234 35.8131 81.8055C37.9602 80.3876 39.5273 78.3977 40.2801 76.1331L45.6923 76.8003C45.941 76.8313 46.1919 76.8469 46.4432 76.847C47.7255 76.8448 48.9638 76.4364 49.9307 75.6967C50.8976 74.9571 51.528 73.9359 51.7063 72.8208L53.2684 63.0523L54.131 71.6923C54.2499 72.8545 54.8584 73.9359 55.8374 74.725C56.8164 75.514 58.0955 75.9539 59.4243 75.9585C59.5805 75.9585 59.7367 75.9585 59.893 75.9414L65.3389 75.5221C65.9806 77.9123 67.5207 80.0429 69.7107 81.5701C71.9007 83.0972 74.6129 83.9318 77.4094 83.9392C77.7716 83.9392 78.1354 83.9252 78.5011 83.8971C81.4771 83.6705 84.2598 82.5081 86.3378 80.6238C88.4159 78.7395 89.6495 76.2599 89.8119 73.6407L106.902 72.3267L106.594 69.2217L103.789 69.4368L101.623 47.6973L106.902 47.292L106.594 44.187L101.314 44.6048L100.388 35.2758L106.906 34.7786ZM50.162 60.0393L49.9135 61.5824L42.8841 60.7142L43.3776 57.6279L50.2312 58.4728C50.2674 58.9957 50.2442 59.5204 50.162 60.0393ZM11.1865 34.7661L25.002 36.4714V36.462L32.3171 46.8182L9.70258 44.0281L11.1865 34.7661ZM37.1453 74.1722C36.9011 75.6988 36.1468 77.1275 34.9779 78.2777C33.8089 79.4278 32.2778 80.2477 30.5781 80.6336C28.8785 81.0195 27.0867 80.9542 25.4293 80.4458C23.772 79.9374 22.3235 79.0089 21.2672 77.7776C20.2752 76.6215 19.6694 75.2457 19.5178 73.8044C19.3661 72.363 19.6746 70.913 20.4086 69.6169C21.1426 68.3209 22.2732 67.2299 23.6736 66.4663C25.074 65.7027 26.6889 65.2967 28.3374 65.2937C28.7566 65.2937 29.1754 65.3192 29.5906 65.3701C31.9202 65.6603 34.0237 66.7499 35.4399 68.3999C36.8561 70.0499 37.4694 72.1258 37.1453 74.1722ZM46.1805 73.714L40.7665 73.0453C40.7589 71.0222 40.1103 69.0408 38.8933 67.323C37.6762 65.6052 35.9387 64.2188 33.8753 63.3188C31.8119 62.4188 29.504 62.0409 27.2099 62.2272C24.9157 62.4136 22.7259 63.157 20.8856 64.3741C18.7427 65.7889 17.1845 67.7795 16.4479 70.0432L5.74948 68.7245L9.20911 47.1221L35.5708 50.369L42.6019 51.2372C43.9705 51.3763 45.279 51.8094 46.4118 52.498C47.5445 53.1866 48.4668 54.1096 49.0969 55.1854L43.8658 54.5401C42.9339 54.4249 41.9881 54.6393 41.2362 55.1362C40.4843 55.6331 39.9878 56.3718 39.8559 57.1899L39.3624 60.2762C39.2307 61.0947 39.4746 61.9256 40.0405 62.5862C40.6064 63.2469 41.4479 63.6831 42.38 63.7989L49.4111 64.6656L48.9176 67.7534L43.6439 67.1034L43.1504 70.1897L48.4242 70.8412L48.1757 72.3844C48.1109 72.7926 47.8646 73.1617 47.4906 73.4109C47.1167 73.66 46.6457 73.769 46.1805 73.714ZM59.3782 54.7193L57.5694 56.3077C57.2366 56.6 57.0497 56.9964 57.0497 57.4097C57.0497 57.823 57.2366 58.2194 57.5694 58.5117L59.5131 60.2154L56.6925 61.704L56.3215 57.9818C56.1733 56.4571 56.1941 54.9234 56.3836 53.4022L59.3782 54.7193ZM86.2635 72.3532C86.4166 73.8888 86.0477 75.4298 85.2034 76.7813C84.359 78.1328 83.0773 79.2341 81.5202 79.9459C79.9631 80.6577 78.2005 80.948 76.4555 80.7802C74.7105 80.6123 73.0613 79.9938 71.7166 79.0029C70.3719 78.012 69.3921 76.6932 68.9009 75.2132C68.4098 73.7333 68.4296 72.1587 68.9576 70.6886C69.4856 69.2185 70.4983 67.9189 71.8675 66.9542C73.2367 65.9894 74.9009 65.4029 76.6497 65.2688C76.9124 65.2485 77.1822 65.2376 77.4378 65.2376C79.6553 65.2411 81.7909 65.9734 83.4243 67.2904C85.0578 68.6073 86.0706 70.4134 86.2635 72.3532ZM97.782 44.8885L68.0938 47.2344L69.7003 38.8172C69.7653 38.4764 69.9576 38.1641 70.2467 37.9296C70.5359 37.6952 70.9057 37.5517 71.2978 37.5219L96.859 35.5579L97.782 44.8885Z" fill="#DEC69A"/>
<path d="M70.0798 53.2307L77.1532 52.6878L77.4621 55.7955L70.3888 56.3385L70.0798 53.2307Z" fill="#DEC69A"/>
<path d="M75.4464 71.6221L78.9831 71.3506L79.292 74.4584L75.7553 74.7298L75.4464 71.6221Z" fill="#DEC69A"/>
<path d="M28.8699 30.4122L31.3905 28.1671L29.0856 26.1141H33.6955C34.1683 26.1141 34.6217 25.9468 34.956 25.6491C35.2903 25.3513 35.4781 24.9474 35.4781 24.5263V20.4203L41.3484 25.6489C41.6826 25.9466 42.136 26.1138 42.6087 26.1138C43.0814 26.1138 43.5347 25.9466 43.869 25.6489L49.7392 20.4203V24.5263C49.7392 24.9474 49.9271 25.3513 50.2614 25.6491C50.5957 25.9468 51.0491 26.1141 51.5219 26.1141H57.9144L53.8268 29.7549L56.3475 32L63.4781 25.6489C63.7273 25.4268 63.897 25.1439 63.9658 24.836C64.0345 24.528 63.9992 24.2088 63.8643 23.9188C63.7294 23.6287 63.501 23.3807 63.2079 23.2062C62.9148 23.0318 62.5703 22.9386 62.2177 22.9385H53.3045V16.5874C53.3045 16.2735 53.1999 15.9665 53.004 15.7055C52.8081 15.4444 52.5297 15.241 52.204 15.1208C51.8783 15.0007 51.52 14.9693 51.1742 15.0305C50.8285 15.0917 50.5109 15.2429 50.2616 15.4649L42.6087 22.2812L34.9558 15.4649C34.7065 15.2429 34.3889 15.0917 34.0431 15.0305C33.6974 14.9693 33.339 15.0007 33.0133 15.1208C32.6876 15.241 32.4093 15.4444 32.2134 15.7055C32.0175 15.9665 31.9129 16.2735 31.9128 16.5874V22.9385H24.7823C24.4297 22.9386 24.0852 23.0318 23.7921 23.2062C23.499 23.3807 23.2706 23.6287 23.1357 23.9188C23.0008 24.2088 22.9655 24.528 23.0342 24.836C23.103 25.1439 23.2727 25.4268 23.5219 25.6489L28.8699 30.4122Z" fill="#DEC69A"/>
<path d="M40.0001 19H43.5294C43.5302 18.6905 43.6038 18.3846 43.7453 18.1029C43.8868 17.8212 44.0929 17.5701 44.35 17.3664C45.4079 16.3751 45.9993 15.0498 45.9993 13.6704C45.9993 12.291 45.4079 10.9657 44.35 9.9744C44.0917 9.77045 43.8847 9.51868 43.7428 9.23605C43.601 8.95343 43.5276 8.64652 43.5276 8.336C43.5276 8.02548 43.601 7.71857 43.7428 7.43595C43.8847 7.15332 44.0917 6.90155 44.35 6.6976C45.4137 5.70903 46.0062 4.38106 46 3H42.4706C42.4702 3.31045 42.3966 3.61722 42.2547 3.89978C42.1129 4.18234 41.9061 4.43417 41.6483 4.6384C40.591 5.63061 40 6.95635 40 8.336C40 9.71565 40.591 11.0414 41.6483 12.0336C41.9061 12.2373 42.1129 12.4887 42.2545 12.7709C42.3962 13.0531 42.4695 13.3595 42.4695 13.6696C42.4695 13.9797 42.3962 14.2861 42.2545 14.5683C42.1129 14.8505 41.9061 15.1019 41.6483 15.3056C40.5845 16.2927 39.9923 17.6199 40.0001 19Z" fill="#DEC69A"/>
<path d="M50.0001 16H54.1176C54.1185 15.6905 54.2044 15.3846 54.3695 15.1029C54.5346 14.8212 54.7751 14.5701 55.075 14.3664C56.3092 13.3751 56.9992 12.0498 56.9992 10.6704C56.9992 9.29103 56.3092 7.96569 55.075 6.9744C54.7737 6.77045 54.5322 6.51868 54.3667 6.23605C54.2011 5.95343 54.1155 5.64652 54.1155 5.336C54.1155 5.02548 54.2011 4.71857 54.3667 4.43595C54.5322 4.15332 54.7737 3.90155 55.075 3.6976C56.3159 2.70903 57.0073 1.38106 56.9999 0H52.8824C52.8819 0.310445 52.796 0.61722 52.6305 0.899783C52.4651 1.18234 52.2238 1.43417 51.923 1.6384C50.6895 2.63061 50 3.95635 50 5.336C50 6.71565 50.6895 8.04139 51.923 9.0336C52.2238 9.23725 52.465 9.48866 52.6303 9.77087C52.7956 10.0531 52.8811 10.3595 52.8811 10.6696C52.8811 10.9797 52.7956 11.2861 52.6303 11.5683C52.465 11.8505 52.2238 12.1019 51.923 12.3056C50.6819 13.2927 49.9911 14.6199 50.0001 16Z" fill="#DEC69A"/>
</svg>
