<svg width="78" height="61" viewBox="0 0 78 61" fill="none" xmlns="http://www.w3.org/2000/svg">
<path d="M71.4998 9.15014H55.2499V6.10004C55.2499 2.73585 52.3349 0 48.7499 0H29.2499C25.6652 0 22.7499 2.7357 22.7499 6.10004V9.14999H6.50004C2.91509 9.15014 0 11.8858 0 15.25V54.9C0 58.2642 2.91509 61 6.50004 61H71.5C75.0848 61 78 58.2643 78 54.9V15.25C77.9999 11.8858 75.0848 9.15014 71.4998 9.15014ZM26 6.10004C26 4.41873 27.4584 3.05009 29.2499 3.05009H48.7499C50.5415 3.05009 51.9999 4.41873 51.9999 6.10004V9.14999H26V6.10004ZM74.7499 54.9001C74.7499 56.5814 73.2915 57.95 71.5 57.95H6.50004C4.70848 57.95 3.2501 56.5814 3.2501 54.9001V32.7018C4.21001 33.2271 5.31085 33.5502 6.50004 33.5502H32.5V38.1252C32.5 38.9681 33.2269 39.6502 34.1251 39.6502H43.8751C44.7733 39.6502 45.5001 38.9681 45.5001 38.1252V33.5502H71.5001C72.6893 33.5502 73.7903 33.2272 74.7501 32.7018V54.9001H74.7499ZM35.75 36.6001V30.5001H42.25V36.6001H35.75ZM74.7499 27.4501C74.7499 29.1314 73.2915 30.5001 71.5 30.5001H45.5V28.975C45.5 28.1321 44.7731 27.45 43.8749 27.45H34.1249C33.2267 27.45 32.4999 28.1321 32.4999 28.975V30.5001H6.50004C4.70848 30.5001 3.2501 29.1314 3.2501 27.4501V15.2502C3.2501 13.5689 4.70848 12.2002 6.50004 12.2002H71.5C73.2915 12.2002 74.7499 13.5689 74.7499 15.2502V27.4501Z" fill="#DEC69A"/>
</svg>
