<svg width="63" height="72" viewBox="0 0 63 72" fill="none" xmlns="http://www.w3.org/2000/svg">
<path d="M31.1666 71.5269C31.0326 71.5269 30.9017 71.512 30.7708 71.4763C30.4623 71.402 0 63.4408 0 36.3854V12.0709C0 11.4496 0.405166 10.8907 1.01915 10.6766L30.6274 0.271833C30.9734 0.149949 31.3567 0.149949 31.7058 0.271833L61.3141 10.6766C61.9281 10.8907 62.3333 11.4496 62.3333 12.0709V36.3854C62.3333 63.4438 31.871 71.402 31.5624 71.4793C31.4315 71.512 31.3006 71.5269 31.1666 71.5269ZM3.11666 13.1084V36.3854C3.11666 59.817 27.5825 67.4987 31.1666 68.4976C34.7508 67.4987 59.2166 59.817 59.2166 36.3854V13.1084L31.1666 3.25058L3.11666 13.1084Z" fill="#DEC69A"/>
<path d="M42.075 41.7988H17.1416C16.3999 41.7988 15.761 41.2994 15.6145 40.6038L12.4978 25.7399C12.4043 25.3029 12.5259 24.851 12.8188 24.5061C13.1149 24.1613 13.5575 23.9621 14.025 23.9621H44.7522L46.7967 16.1705C47.0024 15.3708 47.8439 14.8862 48.6854 15.0884C49.5207 15.2875 50.0287 16.0932 49.8199 16.8899L43.5866 40.6721C43.412 41.3351 42.7887 41.7988 42.075 41.7988ZM18.4195 38.826H40.8595L43.9762 26.9349H15.9261L18.4195 38.826Z" fill="#DEC69A"/>
<path d="M21.8166 50.7173C20.0962 50.7173 18.7 49.3825 18.7 47.7445C18.7 46.1065 20.0962 44.7717 21.8166 44.7717C23.537 44.7717 24.9332 46.1065 24.9332 47.7445C24.9332 49.3825 23.537 50.7173 21.8166 50.7173Z" fill="#DEC69A"/>
<path d="M37.4 50.7173C35.6796 50.7173 34.2833 49.3825 34.2833 47.7445C34.2833 46.1065 35.6796 44.7717 37.4 44.7717C39.1203 44.7717 40.5166 46.1065 40.5166 47.7445C40.5166 49.3825 39.1203 50.7173 37.4 50.7173Z" fill="#DEC69A"/>
</svg>
