<?xml version="1.0" standalone="no"?>
<!DOCTYPE svg PUBLIC "-//W3C//DTD SVG 20010904//EN"
 "http://www.w3.org/TR/2001/REC-SVG-20010904/DTD/svg10.dtd">
<svg version="1.0" xmlns="http://www.w3.org/2000/svg"
 width="2080.000000pt" height="1280.000000pt" viewBox="0 0 2080.000000 1280.000000"
 preserveAspectRatio="xMidYMid meet">
<metadata>
Created by potrace 1.16, written by Peter Selinger 2001-2019
</metadata>
<g transform="translate(0.000000,1280.000000) scale(0.100000,-0.100000)"
fill="#000000" stroke="none">
<path d="M1477 12003 c-812 -438 -1477 -800 -1477 -805 0 -12 10389 -11198
10400 -11198 11 0 10400 11186 10400 11198 0 11 -2954 1602 -2974 1602 -8 0
-16 -4 -18 -9 -3 -8 -73 -85 -284 -311 -34 -36 -72 -77 -86 -92 -13 -15 -72
-78 -130 -140 -58 -62 -116 -125 -130 -140 -13 -15 -72 -78 -130 -140 -58 -62
-116 -125 -130 -140 -13 -15 -72 -78 -130 -140 -58 -62 -116 -125 -130 -140
-13 -15 -72 -78 -130 -140 -58 -62 -116 -125 -130 -140 -13 -15 -72 -78 -130
-140 -58 -62 -116 -125 -130 -140 -13 -15 -72 -78 -130 -140 -58 -62 -116
-125 -130 -140 -13 -15 -72 -78 -130 -140 -58 -62 -116 -125 -130 -140 -13
-15 -72 -78 -130 -140 -58 -62 -116 -125 -130 -140 -13 -15 -72 -78 -130 -140
-58 -62 -116 -125 -130 -140 -13 -15 -72 -78 -130 -140 -58 -62 -116 -125
-130 -140 -13 -15 -72 -78 -130 -140 -58 -62 -116 -125 -130 -140 -13 -15 -72
-78 -130 -140 -58 -62 -116 -125 -130 -140 -13 -15 -72 -78 -130 -140 -58 -62
-116 -125 -130 -140 -13 -15 -72 -78 -130 -140 -58 -62 -116 -125 -130 -140
-13 -15 -72 -78 -130 -140 -58 -62 -116 -125 -130 -140 -13 -15 -72 -78 -130
-140 -58 -62 -116 -125 -130 -140 -13 -15 -72 -78 -130 -140 -58 -62 -116
-125 -130 -140 -13 -15 -72 -78 -130 -140 -58 -62 -116 -125 -130 -140 -13
-15 -72 -78 -130 -140 -58 -62 -116 -125 -130 -140 -13 -15 -72 -78 -130 -140
-58 -62 -116 -125 -130 -140 -13 -15 -72 -78 -130 -140 -58 -62 -116 -125
-130 -140 -13 -15 -72 -78 -130 -140 -58 -62 -116 -125 -130 -140 -13 -15 -72
-78 -130 -140 -58 -62 -116 -125 -130 -140 -13 -15 -72 -78 -130 -140 -58 -62
-116 -125 -130 -140 -13 -15 -72 -78 -130 -140 -58 -62 -116 -125 -130 -140
-13 -15 -72 -78 -130 -140 -58 -62 -116 -125 -130 -140 -13 -15 -73 -79 -134
-144 -60 -64 -113 -123 -117 -130 -10 -18 -44 -18 -54 0 -4 7 -57 66 -117 130
-61 65 -121 129 -134 144 -14 15 -52 56 -86 92 -81 87 -274 294 -304 328 -14
15 -72 78 -130 140 -58 62 -117 125 -130 140 -14 15 -72 78 -130 140 -58 62
-117 125 -130 140 -14 15 -72 78 -130 140 -58 62 -117 125 -130 140 -14 15
-72 78 -130 140 -58 62 -117 125 -130 140 -14 15 -72 78 -130 140 -58 62 -117
125 -130 140 -14 15 -72 78 -130 140 -58 62 -117 125 -130 140 -14 15 -72 78
-130 140 -58 62 -117 125 -130 140 -14 15 -72 78 -130 140 -58 62 -117 125
-130 140 -14 15 -72 78 -130 140 -58 62 -117 125 -130 140 -14 15 -72 78 -130
140 -58 62 -117 125 -130 140 -14 15 -72 78 -130 140 -58 62 -117 125 -130
140 -14 15 -72 78 -130 140 -58 62 -117 125 -130 140 -14 15 -72 78 -130 140
-58 62 -117 125 -130 140 -14 15 -72 78 -130 140 -58 62 -117 125 -130 140
-14 15 -72 78 -130 140 -58 62 -117 125 -130 140 -14 15 -72 78 -130 140 -58
62 -117 125 -130 140 -14 15 -72 78 -130 140 -58 62 -117 125 -130 140 -14 15
-72 78 -130 140 -58 62 -117 125 -130 140 -14 15 -72 78 -130 140 -58 62 -117
125 -130 140 -14 15 -72 78 -130 140 -58 62 -117 125 -130 140 -14 15 -72 78
-130 140 -58 62 -117 125 -130 140 -14 15 -72 78 -130 140 -58 62 -117 125
-130 140 -14 15 -72 78 -130 140 -58 62 -117 125 -130 140 -14 15 -72 78 -130
140 -58 62 -117 125 -130 140 -14 15 -72 78 -130 140 -58 62 -117 125 -130
140 -14 15 -73 78 -131 141 -58 62 -107 117 -109 122 -2 5 -11 9 -20 9 -9 -1
-682 -359 -1495 -797z"/>
</g>
</svg>
