<svg width="40" height="40" viewBox="0 0 40 40" fill="none" xmlns="http://www.w3.org/2000/svg">
<path d="M20 0C8.97164 0 0 8.97164 0 20C0 31.0284 8.97164 40 20 40C31.0284 40 40 31.0284 40 20C40 8.97164 31.0284 0 20 0ZM28.3334 28.3334H11.6666C10.745 28.3334 10 27.5867 10 26.6667C10 25.7467 10.745 25.0001 11.6666 25.0001H28.3333C29.2549 25.0001 29.9999 25.7467 29.9999 26.6667C30 27.5866 29.255 28.3334 28.3334 28.3334ZM28.3334 21.6666H11.6666C10.745 21.6666 10 20.92 10 20C10 19.08 10.745 18.3334 11.6666 18.3334H28.3333C29.2549 18.3334 29.9999 19.08 29.9999 20C29.9999 20.92 29.255 21.6666 28.3334 21.6666ZM28.3334 15H11.6666C10.745 15 10 14.2534 10 13.3334C10 12.4134 10.745 11.6667 11.6666 11.6667H28.3333C29.2549 11.6667 29.9999 12.4134 29.9999 13.3334C29.9999 14.2534 29.255 15 28.3334 15Z" fill="#C4AA73"/>
</svg>
