<svg width="12" height="19" viewBox="0 0 12 19" fill="none" xmlns="http://www.w3.org/2000/svg">
<path d="M11.5481 0.00395327L8.66986 0C5.43624 0 3.34653 1.8353 3.34653 4.67593V6.83184H0.452578C0.202506 6.83184 0 7.00539 0 7.21946V10.3431C0 10.5572 0.202736 10.7306 0.452578 10.7306H3.34653V18.6126C3.34653 18.8267 3.54904 19 3.79911 19H7.5749C7.82497 19 8.02748 18.8265 8.02748 18.6126V10.7306H11.4112C11.6613 10.7306 11.8638 10.5572 11.8638 10.3431L11.8652 7.21946C11.8652 7.11667 11.8174 7.01824 11.7326 6.9455C11.6479 6.87276 11.5324 6.83184 11.4123 6.83184H8.02748V5.00424C8.02748 4.12583 8.27201 3.6799 9.60873 3.6799L11.5477 3.67931C11.7975 3.67931 12 3.50576 12 3.29189V0.391374C12 0.177699 11.7977 0.0043486 11.5481 0.00395327Z" fill="#C4AA73"/>
</svg>
