<svg width="71" height="71" viewBox="0 0 71 71" fill="none" xmlns="http://www.w3.org/2000/svg">
<g clip-path="url(#clip0_2:292)">
<path d="M52.5895 24.9629H52.3779L49.4504 17.9765V17.9415C49.5968 17.9401 49.744 17.9383 49.8903 17.9318C50.4641 17.9064 50.9088 17.4208 50.8836 16.847C50.8582 16.2733 50.3749 15.832 49.7987 15.8537C49.6828 15.859 49.5665 15.8602 49.4504 15.8614V15.4621C49.4504 14.8876 48.9849 14.422 48.4104 14.422C47.8358 14.422 47.3703 14.8876 47.3703 15.4621V15.6713C43.1525 14.8306 43.1454 12.4835 40.0605 12.4835H39.8765C39.549 11.537 38.7957 10.788 37.8462 10.4661V9.80426C37.8462 9.22974 37.3807 8.76422 36.8062 8.76422C36.2316 8.76422 35.7661 9.22974 35.7661 9.80426V10.4661C34.8166 10.788 34.0631 11.5374 33.7356 12.4844C33.646 12.4991 32.0239 12.3298 30.5677 13.5678C29.6414 14.3555 28.2276 15.2567 26.318 15.6557V15.4629C26.318 14.8884 25.8525 14.4229 25.278 14.4229C24.7034 14.4229 24.2379 14.8884 24.2379 15.4629V15.8659C23.6757 15.8799 23.2241 16.339 23.2241 16.9045C23.2241 17.47 23.6756 17.9292 24.2379 17.9432V17.977L21.3107 24.9629C21.2276 24.9763 20.6116 24.868 20.1207 25.3802C19.6214 25.9007 19.716 26.5236 19.8427 27.3476C20.0292 28.4484 20.7294 29.4442 21.8582 29.9891C22.3765 30.2363 22.7755 30.8405 23.7632 30.8405H26.7927C27.5135 30.8405 28.0244 30.4519 28.1193 30.3741C28.4054 30.1397 28.4596 30.1115 28.7206 29.9778C30.19 29.2759 30.7404 27.9789 30.8099 26.3731C30.829 25.5509 30.1882 24.963 29.457 24.963H29.2452L26.318 17.9772V17.7686C29.0185 17.2995 30.9238 15.9954 31.9151 15.1526C32.7112 14.4757 33.6618 14.5739 33.7228 14.5646C34.0433 15.5291 34.8039 16.294 35.766 16.62V27.4268C33.689 27.5663 32.3332 29.6952 33.0979 31.6386C31.8011 32.0059 30.8478 33.1996 30.8478 34.6124C30.8478 36.3169 32.2347 37.7036 33.9391 37.7036H39.7617C41.4662 37.7036 42.8528 36.3168 42.8528 34.6124C42.8528 33.1705 41.8605 31.9564 40.5229 31.6164C41.2693 29.6757 39.912 27.5656 37.8461 27.4268V16.62C38.8082 16.2938 39.5692 15.5286 39.8895 14.5638C39.9632 14.5751 40.8767 14.4657 41.6838 15.1517C42.686 16.0039 44.6225 17.3273 47.3702 17.7832V17.9767L44.4427 24.9632C44.3596 24.9766 43.7439 24.8683 43.2529 25.3804C42.8237 25.8279 42.876 26.3866 42.8783 26.3728C42.8783 28.1679 43.723 29.3774 44.9903 29.9892C45.5252 30.2444 45.9121 30.8406 46.8954 30.8406H49.9249C50.8685 30.8402 51.1928 30.3201 51.8555 29.9764C53.3352 29.2684 53.8811 27.9743 53.9428 26.3715C53.9742 25.6076 53.3621 24.9629 52.5895 24.9629ZM23.7519 28.7622L23.7517 28.762C23.7527 28.762 23.7821 28.788 23.7821 28.788C23.7743 28.7815 23.7596 28.7686 23.7519 28.7622ZM26.7995 28.7656C26.7942 28.7697 26.7918 28.7607 26.7923 28.7603C22.3413 28.7502 24.5227 28.9436 22.7385 28.104C22.3041 27.8989 21.9941 27.5046 21.9014 27.0434H28.6541C28.4548 28.0349 27.6811 28.011 26.7995 28.7656ZM26.9897 24.9629H23.5659L25.278 20.8773L26.9897 24.9629ZM40.7726 34.6121C40.7726 35.1697 40.319 35.6232 39.7617 35.6232H33.9393C33.3817 35.6232 32.9282 35.1696 32.9282 34.6121C32.9282 34.0546 33.3818 33.6012 33.9393 33.6012C36.1017 33.6012 37.8246 33.6012 39.7617 33.6012C40.319 33.6012 40.7726 34.0548 40.7726 34.6121ZM38.6481 30.5098C38.6481 31.0674 38.1945 31.5208 37.6372 31.5208H35.975C35.4175 31.5208 34.964 31.0672 34.964 30.5098C34.964 29.9523 35.4176 29.4989 35.975 29.4989H37.6372C38.1945 29.4989 38.6481 29.9523 38.6481 30.5098ZM36.8059 14.7112C36.1616 14.7112 35.6373 14.1871 35.6373 13.5426C35.6373 12.8983 36.1613 12.3741 36.8059 12.3741C37.4504 12.3741 37.9745 12.8982 37.9745 13.5426C37.9745 14.1871 37.4503 14.7112 36.8059 14.7112ZM48.4102 20.8767L50.1225 24.9629H46.698L48.4102 20.8767ZM46.8847 28.7622C46.9244 28.7962 46.9108 28.7846 46.9137 28.7872C46.9138 28.7872 46.8965 28.7725 46.8847 28.7622ZM49.932 28.7656C49.9294 28.7686 49.9244 28.7607 49.9244 28.7607C45.9994 28.7511 47.3175 28.9335 46.1716 28.2609C45.6679 27.9875 45.1793 27.7668 45.0338 27.0431H51.7866C51.586 28.0434 50.7739 28.0432 49.932 28.7656Z" fill="#DEC69A"/>
<path d="M46.6014 42.1299H27.0105C26.436 42.1299 25.9705 42.5955 25.9705 43.17C25.9705 43.7445 26.436 44.21 27.0105 44.21H46.6016C47.1762 44.21 47.6417 43.7445 47.6417 43.17C47.6417 42.5955 47.176 42.1299 46.6014 42.1299Z" fill="#DEC69A"/>
<path d="M46.6014 46.4981H27.0105C26.436 46.4981 25.9705 46.9636 25.9705 47.5381C25.9705 48.1127 26.436 48.5782 27.0105 48.5782H46.6016C47.1762 48.5782 47.6417 48.1127 47.6417 47.5381C47.6417 46.9636 47.176 46.4981 46.6014 46.4981Z" fill="#DEC69A"/>
<path d="M64.547 50.5197C65.1216 50.5197 65.5871 50.0542 65.5871 49.4797V3.47498C65.5872 1.55881 64.0283 0 62.1122 0C59.8592 0 13.6239 0 11.35 0C8.05322 0 5.41277 2.72976 5.41277 5.88385C5.41277 9.41305 5.41291 61.7023 5.41291 65.1049C5.41291 68.2754 8.13642 71.0001 11.35 71.0001H44.43C45.0046 71.0001 45.4701 70.5346 45.4701 69.9601C45.4701 69.3856 45.0046 68.9201 44.43 68.9201C44.4159 68.9201 11.3725 68.8919 11.35 68.8919C8.32404 68.8919 6.30512 65.4271 8.28425 62.839C8.95237 61.965 9.9809 61.3805 11.1553 61.3179C11.325 61.3093 15.2581 61.3129 15.2725 61.3129V65.6273C15.2725 66.7743 16.5412 67.4729 17.5109 66.8573L19.8786 65.3531L22.2108 66.8348C23.1974 67.4604 24.4846 66.749 24.4846 65.585V61.3127H58.2573V68.9196H49.284C48.7095 68.9196 48.2439 69.3852 48.2439 69.9597C48.2439 70.5342 48.7095 70.9997 49.284 70.9997C50.7692 70.9997 60.2568 70.9997 61.883 70.9997C63.9255 70.9997 65.5872 69.338 65.5872 67.2955C65.5872 65.7149 65.5872 55.46 65.5872 54.333C65.5872 53.7585 65.1217 53.293 64.5472 53.293C63.9727 53.293 63.5071 53.7585 63.5071 54.333V57.613C63.5071 58.3383 63.0276 58.9539 62.3691 59.1592C61.9768 59.2815 13.6622 59.2331 12.7258 59.2322V12.9961C12.7258 12.4215 12.2602 11.956 11.6857 11.956C11.1112 11.956 10.6457 12.4215 10.6457 12.9961V59.2747C9.45561 59.4188 8.36135 59.9229 7.49354 60.6684C7.61654 4.64551 7.08515 5.53564 8.0553 3.94175C8.62247 3.01278 9.56765 2.3455 10.6454 2.14664V8.14226C10.6454 8.71677 11.1109 9.1823 11.6855 9.1823C12.26 9.1823 12.7255 8.71677 12.7255 8.14226V2.08022H62.1122C62.8812 2.08022 63.507 2.7059 63.507 3.47498V49.4797C63.507 50.0542 63.9725 50.5197 64.547 50.5197ZM60.3372 61.3128C61.421 61.2388 62.3422 61.5121 63.5067 60.9394V67.2959C63.5067 68.1913 62.7783 68.9199 61.8827 68.9199H60.3371V61.3128H60.3372ZM17.3526 61.3128H22.4044V64.4934C21.033 63.6955 20.6959 63.2136 19.8786 63.2136C19.06 63.2136 18.7208 63.6968 17.3526 64.4932V61.3128Z" fill="#DEC69A"/>
</g>
<defs>
<clipPath id="clip0_2:292">
<rect width="71" height="71" fill="white"/>
</clipPath>
</defs>
</svg>
