<svg width="34" height="35" viewBox="0 0 34 35" fill="none" xmlns="http://www.w3.org/2000/svg">
<path d="M17 0C7.62582 0 0 7.85011 0 17.5C0 27.1499 7.62582 35 17 35C26.3742 35 34 27.1499 34 17.5C34 7.85011 26.3742 0 17 0Z" fill="white"/>
<path d="M24.4375 18.9582H18.4165V25.1562C18.4165 25.9613 17.782 26.6145 17 26.6145C16.2179 26.6145 15.5834 25.9613 15.5834 25.1562V18.9582H9.56245C8.78036 18.9582 8.14587 18.3051 8.14587 17.5C8.14587 16.6949 8.78036 16.0418 9.56245 16.0418H15.5834V9.84375C15.5834 9.03866 16.2179 8.38551 17 8.38551C17.782 8.38551 18.4165 9.03866 18.4165 9.84375V16.0418H24.4375C25.2195 16.0418 25.854 16.6949 25.854 17.5C25.854 18.3051 25.2195 18.9582 24.4375 18.9582Z" fill="#C4AA73"/>
</svg>
