<svg width="40" height="40" viewBox="0 0 40 40" fill="none" xmlns="http://www.w3.org/2000/svg">
<path d="M20 40C31.0457 40 40 31.0457 40 20C40 8.9543 31.0457 0 20 0C8.9543 0 0 8.9543 0 20C0 31.0457 8.9543 40 20 40Z" fill="#039BE5"/>
<path d="M9.15168 19.5666L28.435 12.1316C29.33 11.8083 30.1117 12.35 29.8217 13.7033L29.8234 13.7016L26.54 29.17C26.2967 30.2666 25.645 30.5333 24.7334 30.0166L19.7334 26.3316L17.3217 28.655C17.055 28.9216 16.83 29.1466 16.3134 29.1466L16.6684 24.0583L25.935 15.6866C26.3384 15.3316 25.845 15.1316 25.3134 15.485L13.8617 22.695L8.92502 21.155C7.85335 20.815 7.83002 20.0833 9.15168 19.5666Z" fill="white"/>
</svg>
