<svg width="24" height="36" viewBox="0 0 24 36" fill="none" xmlns="http://www.w3.org/2000/svg">
<path d="M23.3483 16.5953L5.16885 0.575118C4.74838 0.204291 4.18709 0 3.5886 0C2.99012 0 2.42883 0.204291 2.00836 0.575118L0.669563 1.75462C-0.201599 2.5232 -0.201599 3.77236 0.669563 4.53977L15.9353 17.9926L0.652625 31.4603C0.232155 31.8311 0 32.3254 0 32.8526C0 33.3803 0.232155 33.8746 0.652625 34.2457L1.99142 35.4249C2.41222 35.7958 2.97318 36 3.57167 36C4.17016 36 4.73145 35.7958 5.15191 35.4249L23.3483 19.3901C23.7698 19.0181 24.0013 18.5214 24 17.9934C24.0013 17.4634 23.7698 16.967 23.3483 16.5953Z" fill="#C4AA73"/>
</svg>
