<svg width="24" height="36" viewBox="0 0 24 36" fill="none" xmlns="http://www.w3.org/2000/svg">
<path d="M0.651651 19.4047L18.8311 35.4249C19.2516 35.7957 19.8129 36 20.4114 36C21.0099 36 21.5712 35.7957 21.9916 35.4249L23.3304 34.2454C24.2016 33.4768 24.2016 32.2276 23.3304 31.4602L8.06467 18.0074L23.3474 4.53973C23.7678 4.1689 24 3.67456 24 3.14744C24 2.61974 23.7678 2.1254 23.3474 1.75428L22.0086 0.575069C21.5878 0.204243 21.0268 -4.95911e-05 20.4283 -4.95911e-05C19.8298 -4.95911e-05 19.2686 0.204243 18.8481 0.575069L0.651651 16.6099C0.230185 16.9819 -0.00130463 17.4786 2.28882e-05 18.0066C-0.00130463 18.5366 0.230185 19.033 0.651651 19.4047Z" fill="#C4AA73"/>
</svg>
