<svg width="24" height="24" viewBox="0 0 24 24" fill="none" xmlns="http://www.w3.org/2000/svg">
<g id="24px-set-1">
<path id="Vector" d="M12 0C5.935 0 1 4.935 1 11V17C1 18.654 2.346 20 4 20H7C7.552 20 8 19.552 8 19V12C8 11.448 7.552 11 7 11H3C3 6.038 7.038 2 12 2C16.962 2 21 6.038 21 11H17C16.448 11 16 11.448 16 12V19C16 19.552 16.448 20 17 20H20C20.352 20 20.686 19.928 21 19.816C21 21.261 20.004 22 19 22H14C13.448 22 13 22.448 13 23C13 23.552 13.448 24 14 24H19C21.206 24 23 22.206 23 20V11C23 4.935 18.065 0 12 0Z" fill="#24BBEB"/>
</g>
</svg>
