<svg width="40" height="40" viewBox="0 0 40 40" fill="none" xmlns="http://www.w3.org/2000/svg">
<g id="logo">
<rect id="Rectangle 127" x="0.5" y="0.5" width="39" height="39" rx="7.5" fill="white" stroke="#EEEEEE"/>
<g id="Clip path group">
<mask id="mask0_100_4720" style="mask-type:luminance" maskUnits="userSpaceOnUse" x="11" y="10" width="19" height="20">
<g id="clip1_816_904">
<path id="Vector" d="M29.9474 10H11V30H29.9474V10Z" fill="white"/>
</g>
</mask>
<g mask="url(#mask0_100_4720)">
<g id="Group">
<path id="Vector_2" fill-rule="evenodd" clip-rule="evenodd" d="M27.5821 27.5068C25.7645 28.8465 23.13 29.5613 20.8618 29.5613C17.6813 29.5613 14.8181 28.385 12.652 26.4285C12.4818 26.2747 12.6343 26.065 12.8385 26.1848C15.1762 27.545 18.0666 28.3632 21.0524 28.3632C23.0661 28.3632 25.2812 27.9466 27.318 27.082C27.6256 26.9514 27.883 27.2835 27.5821 27.5068Z" fill="#FF9900"/>
<path id="Vector_3" fill-rule="evenodd" clip-rule="evenodd" d="M28.3382 26.6408C28.1067 26.344 26.8024 26.5006 26.217 26.57C26.0386 26.5918 26.0114 26.4366 26.172 26.3249C27.2109 25.5938 28.9155 25.8048 29.1142 26.0499C29.313 26.2964 29.0625 28.005 28.0863 28.8205C27.9365 28.9458 27.7936 28.8791 27.8603 28.713C28.0795 28.1657 28.571 26.939 28.3382 26.6408Z" fill="#FF9900"/>
<path id="Vector_4" fill-rule="evenodd" clip-rule="evenodd" d="M22.1649 18.9625C22.1649 19.8635 22.1876 20.6149 21.7322 21.415C21.3647 22.0655 20.7825 22.4656 20.1319 22.4656C19.244 22.4656 18.7268 21.7891 18.7268 20.7905C18.7268 18.8194 20.493 18.4616 22.1649 18.4616V18.9625ZM24.497 24.5993C24.3441 24.7359 24.1229 24.7457 23.9506 24.6546C23.1829 24.0171 23.0463 23.7211 22.6234 23.1129C21.355 24.4074 20.4572 24.7945 18.8114 24.7945C16.8663 24.7945 15.3506 23.5942 15.3506 21.1906C15.3506 19.3138 16.3687 18.0355 17.8161 17.411C19.0716 16.8581 20.8248 16.7605 22.1649 16.6076V16.3084C22.1649 15.7586 22.2072 15.1081 21.8851 14.6332C21.6021 14.2072 21.0622 14.0315 20.5873 14.0315C19.7059 14.0315 18.9187 14.4836 18.7268 15.4204C18.6878 15.6286 18.5349 15.8335 18.3267 15.8432L16.0824 15.6025C15.8938 15.5603 15.6856 15.4074 15.7377 15.1179C16.2548 12.3987 18.7106 11.579 20.9093 11.579C22.0347 11.579 23.5049 11.8783 24.3929 12.7305C25.5183 13.7811 25.411 15.183 25.411 16.7085V20.3124C25.411 21.3955 25.8598 21.8703 26.2827 22.4558C26.4323 22.664 26.4648 22.9145 26.2762 23.0706C25.8045 23.4641 24.9653 24.196 24.5035 24.6059L24.497 24.5993Z" fill="#081425"/>
</g>
</g>
</g>
</g>
</svg>
