<svg width="32" height="32" viewBox="0 0 32 32" fill="none" xmlns="http://www.w3.org/2000/svg">
<g id="32px">
<path id="i" d="M28.268 2.45188L16.268 0.0518789C16.096 0.0172122 15.9173 0.0172122 15.7453 0.0518789L3.7453 2.45188C3.11997 2.57455 2.66797 3.12255 2.66797 3.75988V17.3332C2.66797 27.9999 16.0013 31.9999 16.0013 31.9999C16.0013 31.9999 29.3346 27.9999 29.3346 17.3332V3.75988C29.3346 3.12521 28.8893 2.57855 28.268 2.45188ZM23.68 11.5345L15.68 20.8679C15.4386 21.1492 15.0906 21.3185 14.7186 21.3319C14.7013 21.3319 14.684 21.3319 14.6666 21.3319C14.3133 21.3319 13.9746 21.1919 13.724 20.9412L9.72397 16.9412C9.20263 16.4199 9.20263 15.5772 9.72397 15.0559C10.2453 14.5345 11.088 14.5345 11.6093 15.0559L14.5906 18.0372L21.6533 9.79721C22.1333 9.23988 22.976 9.17321 23.5333 9.65321C24.092 10.1319 24.1573 10.9745 23.6773 11.5332L23.68 11.5345Z" fill="#24BBEB"/>
</g>
</svg>
