<svg width="24" height="24" viewBox="0 0 24 24" fill="none" xmlns="http://www.w3.org/2000/svg">
<g id="12px">
<path id="Vector" d="M12.0548 19.7759C11.8283 19.7772 11.6037 19.7338 11.394 19.6481C11.1843 19.5625 10.9936 19.4363 10.8328 19.2767L0.506162 8.95013C0.182072 8.62604 0 8.18648 0 7.72815C0 7.26981 0.182072 6.83025 0.506162 6.50616C0.830252 6.18207 1.26981 6 1.72815 6C2.18648 6 2.62604 6.18207 2.95013 6.50616L12.0548 15.628L21.1594 6.52337C21.4886 6.24141 21.9122 6.09407 22.3453 6.1108C22.7785 6.12754 23.1894 6.3071 23.4959 6.61362C23.8024 6.92014 23.982 7.33104 23.9987 7.7642C24.0154 8.19736 23.8681 8.62088 23.5861 8.95013L13.2595 19.2767C12.939 19.5947 12.5063 19.774 12.0548 19.7759Z" fill="#A3ABB8"/>
</g>
</svg>
