<svg width="71" height="38" viewBox="0 0 71 38" fill="none" xmlns="http://www.w3.org/2000/svg">
<g id="4.8">
<path id="Vector" d="M69.6755 21.3454C70.4837 22.9616 70.8877 24.7711 70.8877 26.7739C70.8877 28.8821 70.4485 30.6916 69.5701 32.2025C68.6566 33.9944 67.2511 35.4175 65.3537 36.4716C63.4915 37.4905 61.2604 38 58.6603 38C56.2007 38 53.9871 37.5081 52.0195 36.5243C50.0519 35.5053 48.5761 34.0472 47.5923 32.1498C46.749 30.4984 46.3274 28.6889 46.3274 26.7212C46.3274 24.7887 46.7315 22.9792 47.5396 21.2926C48.1369 20.0629 49.0153 19.0615 50.1748 18.2885C50.3154 18.1831 50.3154 18.0601 50.1748 17.9196C49.3316 17.2871 48.6113 16.4438 48.0139 15.3897C47.2058 13.9843 46.8017 12.4031 46.8017 10.6463C46.8017 8.15164 47.5045 6.04346 48.9099 4.32178C49.9289 2.95146 51.2816 1.89737 52.9682 1.1595C54.6899 0.3865 56.5872 0 58.6603 0C60.8036 0 62.7009 0.3865 64.3524 1.1595C66.0038 1.9325 67.339 2.98659 68.3579 4.32178C69.7634 6.14887 70.4661 8.25705 70.4661 10.6463C70.4661 12.4734 70.0093 14.1073 69.0958 15.5479C68.4985 16.4614 67.7782 17.2344 66.9349 17.8669C66.7943 18.0074 66.7943 18.1304 66.9349 18.2358C68.0944 18.9736 69.0079 20.0102 69.6755 21.3454ZM54.7074 8.69626C54.3561 9.39898 54.1804 10.1368 54.1804 10.9098C54.1804 11.9288 54.4088 12.8423 54.8655 13.6505C55.6737 14.9154 56.921 15.5479 58.6076 15.5479C60.2941 15.5479 61.5766 14.9154 62.455 13.6505C62.9118 12.8775 63.1402 11.9464 63.1402 10.8571C63.1402 10.0841 62.9645 9.34628 62.6131 8.64355C62.2617 7.94082 61.7347 7.39621 61.032 7.00971C60.3292 6.58807 59.5035 6.37726 58.5549 6.37726C57.7116 6.37726 56.9386 6.58807 56.2359 7.00971C55.5683 7.39621 55.0588 7.95839 54.7074 8.69626ZM62.4023 29.7781C63.0699 28.8294 63.4037 27.5996 63.4037 26.0888C63.4037 24.7887 63.1577 23.6995 62.6658 22.8211C61.8928 21.3454 60.5401 20.6075 58.6076 20.6075C56.7805 20.6075 55.4804 21.3278 54.7074 22.7684C54.1804 23.6468 53.9169 24.7887 53.9169 26.1942C53.9169 27.5645 54.2155 28.7064 54.8128 29.62C55.621 30.9552 56.9034 31.6227 58.6603 31.6227C60.3468 31.6227 61.5942 31.0079 62.4023 29.7781Z" fill="#081425"/>
<path id="Vector_2" d="M37.0233 37.7892C35.8286 37.7892 34.8273 37.4027 34.0191 36.6297C33.2461 35.8216 32.8596 34.8202 32.8596 33.6256C32.8596 32.3958 33.2461 31.3944 34.0191 30.6214C34.7921 29.8484 35.7935 29.4619 37.0233 29.4619C38.2531 29.4619 39.2544 29.8484 40.0274 30.6214C40.8004 31.3944 41.1869 32.3958 41.1869 33.6256C41.1869 34.8202 40.7829 35.8216 39.9747 36.6297C39.2017 37.4027 38.2179 37.7892 37.0233 37.7892Z" fill="#081425"/>
<path id="Vector_3" d="M27.0374 21.5034C27.2131 21.5034 27.3537 21.5736 27.4591 21.7142C27.5996 21.8196 27.6699 21.9601 27.6699 22.1358V27.459C27.6699 27.6347 27.5996 27.7928 27.4591 27.9333C27.3537 28.0387 27.2131 28.0914 27.0374 28.0914H24.7711C24.5955 28.0914 24.5076 28.1793 24.5076 28.355V36.9458C24.5076 37.1215 24.4374 37.2796 24.2968 37.4201C24.1914 37.5256 24.0509 37.5783 23.8752 37.5783H17.7087C17.5331 37.5783 17.3749 37.5256 17.2344 37.4201C17.129 37.2796 17.0763 37.1215 17.0763 36.9458V28.355C17.0763 28.1793 16.9884 28.0914 16.8128 28.0914H0.632455C0.456773 28.0914 0.298659 28.0387 0.158114 27.9333C0.0527046 27.7928 0 27.6347 0 27.459V23.2426C0 23.0318 0.0527046 22.7683 0.158114 22.452L9.64494 1.1594C9.78548 0.843172 10.0314 0.685059 10.3828 0.685059H16.9709C17.2168 0.685059 17.3749 0.755332 17.4452 0.895878C17.5506 1.00129 17.5506 1.17697 17.4452 1.42292L8.64355 21.1871C8.60841 21.2574 8.60841 21.3277 8.64355 21.398C8.67869 21.4682 8.73139 21.5034 8.80166 21.5034H16.8128C16.9884 21.5034 17.0763 21.4155 17.0763 21.2398V14.7045C17.0763 14.5288 17.129 14.3882 17.2344 14.2828C17.3749 14.1423 17.5331 14.072 17.7087 14.072H23.8752C24.0509 14.072 24.1914 14.1423 24.2968 14.2828C24.4374 14.3882 24.5076 14.5288 24.5076 14.7045V21.2398C24.5076 21.4155 24.5955 21.5034 24.7711 21.5034H27.0374Z" fill="#081425"/>
</g>
</svg>
