<svg width="40" height="40" viewBox="0 0 40 40" fill="none" xmlns="http://www.w3.org/2000/svg">
<g id="logo">
<rect id="Rectangle 127" x="0.5" y="0.5" width="39" height="39" rx="7.5" fill="white" stroke="#EEEEEE"/>
<g id="Clip path group">
<mask id="mask0_100_4144" style="mask-type:luminance" maskUnits="userSpaceOnUse" x="8" y="15" width="24" height="11">
<g id="clip1_816_972">
<path id="Vector" d="M32 15H8V25.4151H32V15Z" fill="white"/>
</g>
</mask>
<g mask="url(#mask0_100_4144)">
<g id="Group">
<path id="Vector_2" d="M11.113 17.9152C9.41498 17.9152 8 18.6318 8 20.794C8 22.507 8.95148 23.5857 11.1569 23.5857C13.7528 23.5857 13.9192 21.8845 13.9192 21.8845H12.6613C12.6613 21.8845 12.3917 22.8005 11.0802 22.8005C10.012 22.8005 9.24371 22.0827 9.24371 21.0765H14.0507V20.4451C14.0507 19.4496 13.4155 17.9152 11.113 17.9152ZM11.0692 18.7221C12.086 18.7221 12.7792 19.3418 12.7792 20.2706H9.27153C9.27153 19.2846 10.1763 18.7221 11.0692 18.7221Z" fill="#E53238"/>
<path id="Vector_3" d="M14.0497 15.8214V22.4998C14.0497 22.8789 14.0225 23.4112 14.0225 23.4112H15.2222C15.2222 23.4112 15.2652 23.0289 15.2652 22.6795C15.2652 22.6795 15.858 23.602 17.4696 23.602C19.1668 23.602 20.3196 22.4298 20.3196 20.7504C20.3196 19.188 19.2607 17.9315 17.4723 17.9315C15.7977 17.9315 15.2773 18.8311 15.2773 18.8311V15.8214H14.0497ZM17.1627 18.7575C18.3152 18.7575 19.048 19.6084 19.048 20.7504C19.048 21.9749 18.2016 22.776 17.1709 22.776C15.9408 22.776 15.2773 21.8205 15.2773 20.7613C15.2773 19.7743 15.8727 18.7575 17.1627 18.7575Z" fill="#0064D2"/>
<path id="Vector_4" d="M23.3016 17.9152C20.747 17.9152 20.5831 19.3067 20.5831 19.529H21.8546C21.8546 19.529 21.9213 18.7167 23.2139 18.7167C24.0538 18.7167 24.7046 19.0991 24.7046 19.8344V20.0961H23.2139C21.2348 20.0961 20.1885 20.6721 20.1885 21.8409C20.1885 22.9912 21.1552 23.617 22.4616 23.617C24.2421 23.617 24.8156 22.6383 24.8156 22.6383C24.8156 23.0276 24.8458 23.4112 24.8458 23.4112H25.9761C25.9761 23.4112 25.9323 22.9357 25.9323 22.6315V20.0021C25.9323 18.278 24.5344 17.9152 23.3016 17.9152ZM24.7046 20.8812V21.2302C24.7046 21.6854 24.4223 22.8169 22.7603 22.8169C21.8502 22.8169 21.46 22.3651 21.46 21.8409C21.46 20.8874 22.7741 20.8812 24.7046 20.8812Z" fill="#F5AF02"/>
<path id="Vector_5" d="M25.2476 18.1334H26.6781L28.7309 22.2251L30.7792 18.1334H32.075L28.3442 25.4179H26.985L28.0615 23.3873L25.2476 18.1334Z" fill="#86B817"/>
</g>
</g>
</g>
</g>
</svg>
