<svg width="40" height="40" viewBox="0 0 40 40" fill="none" xmlns="http://www.w3.org/2000/svg">
<g id="logo">
<rect id="Rectangle 127" x="0.5" y="0.5" width="39" height="39" rx="7.5" fill="white" stroke="#EEEEEE"/>
<path id="Vector" d="M12.1441 15.7276V18.4174C12.1441 18.4174 13.0919 18.4174 13.5992 18.3789C13.9981 18.3091 14.0715 18.2706 14.145 17.8717L14.2918 17.2874H14.7256L14.6522 18.5643L14.6907 19.8725H14.2533L14.145 19.3617C14.0366 18.9981 13.8898 18.9243 13.5992 18.8893C13.2357 18.8508 12.1441 18.8508 12.1441 18.8508V21.1069C12.1441 21.5407 12.3644 21.7261 12.8717 21.7261H14.4002C14.8725 21.7261 15.3444 21.6876 15.6386 20.9985L16.0339 20.1241H16.401C16.3625 20.3059 16.1807 21.9078 16.1458 22.2682C16.1458 22.2682 14.7642 22.2333 14.1834 22.2333H11.5634L10 22.2682V21.8729L10.5072 21.761C10.8744 21.6876 10.9827 21.5792 10.9827 21.2887C10.9827 21.2887 11.0212 20.3059 11.0212 18.6686C11.0212 17.0353 10.9827 16.0521 10.9827 16.0521C10.9827 15.7266 10.8744 15.6532 10.5072 15.5798L10 15.4724V15.0734L11.5285 15.1048H14.4386C15.0194 15.1048 15.9985 15 15.9985 15C15.9985 15 15.9636 15.6156 15.9251 17.0707H15.5262L15.3793 16.5598C15.236 15.9057 15.0189 15.5802 14.6169 15.5802H12.3295C12.1441 15.5807 12.1441 15.6156 12.1441 15.7276ZM18.0343 16.0145H18.4717V17.543L19.9653 17.4696L19.8918 18.1622L18.4368 18.0503V20.7438C18.4368 21.5062 18.692 21.7999 19.1294 21.7999C19.5247 21.7999 19.8185 21.5796 19.9268 21.3979L20.1435 21.6531C19.9268 22.1604 19.3112 22.4156 18.7269 22.4156C18.0029 22.4156 17.4151 21.9817 17.4151 21.1458V18.0883H16.5474V17.7248C17.2754 17.6514 17.8176 17.2139 18.0343 16.0145ZM21.1647 20.7048L21.4549 21.3974C21.5632 21.6876 21.8184 21.9817 22.3991 21.9817C23.0183 21.9817 23.2735 21.6531 23.2735 21.2542C23.2735 20.0158 20.8357 20.3798 20.8357 18.7075C20.8357 17.7633 21.5981 17.3223 22.5808 17.3223C23.0183 17.3223 23.6724 17.3958 24.001 17.5426C23.9276 17.9062 23.8891 18.3785 23.8891 18.7425L23.5287 18.7774L23.2735 18.0499C23.2 17.8717 22.9064 17.7243 22.5459 17.7243C22.1085 17.7243 21.6715 17.9062 21.6715 18.3785C21.6715 19.5049 24.1828 19.2529 24.1828 20.9251C24.1828 21.8729 23.3469 22.3801 22.3256 22.3801C21.5632 22.3801 20.7971 22.0865 20.7971 22.0865C20.8706 21.6526 20.8357 21.1808 20.7971 20.7048H21.1647ZM24.0015 24.1957C24.1098 23.7967 24.1832 23.29 24.2567 22.814L24.6556 22.7791L24.8024 23.5415C24.8373 23.7233 24.9457 23.8702 25.2363 23.8702C25.7086 23.8702 26.3278 23.5801 26.9117 22.562C26.6529 21.9428 25.8904 19.9455 25.1978 18.417C25.016 18.015 24.9811 17.9795 24.729 17.9062L24.5437 17.8363V17.4691L25.6383 17.5077L26.9815 17.4342V17.7982L26.6529 17.8717C26.3977 17.9066 26.2925 18.0499 26.2925 18.1971C26.2925 18.2357 26.2925 18.2706 26.3274 18.344C26.3972 18.5643 26.9815 20.198 27.4189 21.2891C27.7793 20.5267 28.4719 18.8163 28.5803 18.5258C28.6188 18.3789 28.6537 18.344 28.6537 18.2357C28.6537 18.0503 28.5454 17.9419 28.2933 17.8721L28.0345 17.7982V17.4347L29.0558 17.4696L30 17.4347V17.7982L29.8182 17.9415C29.4547 18.0883 29.4162 18.1233 29.2724 18.417L27.6741 22.1594C26.7263 24.3071 25.7435 24.4889 25.0541 24.4889C24.6171 24.4894 24.2885 24.3774 24.0015 24.1957Z" fill="#F45800"/>
</g>
</svg>
