<svg width="24" height="24" viewBox="0 0 24 24" fill="none" xmlns="http://www.w3.org/2000/svg">
<g id="i">
<path id="Vector" d="M23.5999 7.2L19.9999 4.5V0H17.9999V4.5L14.3999 7.2C14.2757 7.29315 14.1749 7.41393 14.1055 7.55279C14.0361 7.69164 13.9999 7.84475 13.9999 8V11C13.9999 11.2652 14.1053 11.5196 14.2928 11.7071C14.4804 11.8946 14.7347 12 14.9999 12C15.2652 12 15.5195 11.8946 15.707 11.7071C15.8946 11.5196 15.9999 11.2652 15.9999 11V8.5L18.9999 6.25L21.9999 8.5V11C21.9999 11.2652 22.1053 11.5196 22.2928 11.7071C22.4804 11.8946 22.7347 12 22.9999 12C23.2652 12 23.5195 11.8946 23.707 11.7071C23.8946 11.5196 23.9999 11.2652 23.9999 11V8C23.9999 7.84475 23.9638 7.69164 23.8944 7.55279C23.8249 7.41393 23.7241 7.29315 23.5999 7.2Z" fill="#24BBEB"/>
<path id="Vector_2" d="M22.9999 14H14.9999C14.4477 14 13.9999 14.4477 13.9999 15V19C13.9999 19.5523 14.4477 20 14.9999 20H22.9999C23.5522 20 23.9999 19.5523 23.9999 19V15C23.9999 14.4477 23.5522 14 22.9999 14Z" fill="#24BBEB"/>
<path id="Vector_3" d="M23 22H1C0.447715 22 0 22.4477 0 23C0 23.5523 0.447715 24 1 24H23C23.5523 24 24 23.5523 24 23C24 22.4477 23.5523 22 23 22Z" fill="#24BBEB"/>
<path id="Vector_4" d="M11 8H1C0.734784 8 0.48043 8.10536 0.292893 8.29289C0.105357 8.48043 0 8.73478 0 9L0 19C0 19.2652 0.105357 19.5196 0.292893 19.7071C0.48043 19.8946 0.734784 20 1 20H11C11.2652 20 11.5196 19.8946 11.7071 19.7071C11.8946 19.5196 12 19.2652 12 19V9C12 8.73478 11.8946 8.48043 11.7071 8.29289C11.5196 8.10536 11.2652 8 11 8Z" fill="#24BBEB"/>
</g>
</svg>
