<svg width="40" height="40" viewBox="0 0 40 40" fill="none" xmlns="http://www.w3.org/2000/svg">
<g id="logo">
<rect id="Rectangle 127" x="0.5" y="0.5" width="39" height="39" rx="7.5" fill="white" stroke="#EEEEEE"/>
<g id="Clip path group">
<mask id="mask0_100_5199" style="mask-type:luminance" maskUnits="userSpaceOnUse" x="10" y="10" width="20" height="20">
<g id="clip1_816_888">
<path id="Vector" d="M30 10H10V30H30V10Z" fill="white"/>
</g>
</mask>
<g mask="url(#mask0_100_5199)">
<g id="Group">
<path id="Vector_2" d="M20 30.0016C25.5229 30.0016 30 25.5244 30 20.0016C30 14.4787 25.5229 10.0016 20 10.0016C14.4772 10.0016 10 14.4787 10 20.0016C10 25.5244 14.4772 30.0016 20 30.0016Z" fill="#1977F3"/>
<path id="Vector_3" d="M23.8926 22.8927L24.3356 20.0014H21.5624V18.1255C21.5624 17.3351 21.9491 16.5631 23.1922 16.5631H24.4537V14.1021C24.4537 14.1021 23.309 13.9066 22.2149 13.9066C19.9311 13.9066 18.4376 15.2904 18.4376 17.7978V20.0014H15.8979V22.8927H18.4376V29.8804C18.9467 29.9606 19.4684 30.0014 20 30.0014C20.5316 30.0014 21.0533 29.9592 21.5624 29.8804V22.8927H23.8926Z" fill="white"/>
</g>
</g>
</g>
</g>
</svg>
