<svg width="32" height="32" viewBox="0 0 32 32" fill="none" xmlns="http://www.w3.org/2000/svg">
<g id="32px" clip-path="url(#clip0_43_2682)">
<path id="i" d="M32 16.0958C31.9996 13.0382 31.1232 10.0447 29.4744 7.46977C27.8256 4.89481 25.4735 2.8462 22.6966 1.56648C19.9197 0.286756 16.8343 -0.170492 13.8055 0.248869C10.7768 0.668229 7.93171 1.94664 5.60699 3.93274C3.28227 5.91885 1.57532 8.52948 0.688211 11.4556C-0.198895 14.3816 -0.229004 17.5007 0.601451 20.4433C1.43191 23.386 3.08814 26.0291 5.37409 28.0597C7.66003 30.0903 10.48 31.4234 13.5 31.9011V20.7211H9.43733V16.0958H13.5V12.5705C13.5 8.56115 15.8893 6.34515 19.5427 6.34515C20.7429 6.36236 21.9402 6.46663 23.1253 6.65715V10.5958H21.1067C20.499 10.5151 19.8842 10.6791 19.3973 11.0517C18.9105 11.4242 18.5916 11.9748 18.5107 12.5825C18.4878 12.7526 18.4842 12.9248 18.5 13.0958V16.0958H22.9333L22.224 20.7211H18.4907V31.9011C22.2561 31.3078 25.6859 29.3896 28.1626 26.4919C30.6393 23.5943 32.0001 19.9077 32 16.0958Z" fill="#24BBEB"/>
</g>
<defs>
<clipPath id="clip0_43_2682">
<rect width="32" height="32" fill="white"/>
</clipPath>
</defs>
</svg>
