<svg width="163" height="44" viewBox="0 0 163 44" fill="none" xmlns="http://www.w3.org/2000/svg">
<path d="M39.0555 28.5191C39.0555 31.3739 38.202 33.8462 36.4656 35.8769C34.6114 37.996 32.2863 39.0555 29.4609 39.0555H23.5157V44H15.5692V39.0555H11.1251C8.03478 39.0555 5.41538 38.0254 3.23746 35.9652C1.08896 33.905 0 31.3445 0 28.2542V27.6361C2.00134 30.7264 7.94649 31.0796 11.1251 31.0796C17.2468 31.0796 23.3391 31.0796 29.4609 31.0796C30.5498 31.0796 31.109 30.2261 31.109 28.4896C31.109 26.7826 30.5498 25.8997 29.4609 25.8997H12.3318V17.9532H29.4609C32.2863 17.9532 34.6408 19.0127 36.4656 21.1318C38.2314 23.1625 39.0555 25.6348 39.0555 28.5191ZM0.0294332 19.5719V15.7458C0.0294332 12.6555 1.1184 10.095 3.26689 8.03478C5.41539 5.97458 8.06422 4.94448 11.1545 4.94448H15.5987V0H23.5452V4.94448H35.9652V12.891C27.695 12.891 19.4542 12.891 11.1839 12.891C9.06488 12.891 8.00535 13.8328 8.00535 15.7458V25.9291C5.00334 25.9291 0.0294332 24.0749 0.0294332 19.5719Z" fill="#24BBEB"/>
<path d="M89.8541 29.8141C93.8273 29.8141 96.3879 27.5184 96.3879 22.986V14.3626H93.7096V23.1037C93.7096 25.8997 92.2675 27.3418 89.8835 27.3418C87.4996 27.3418 86.028 25.8114 86.028 23.0154V14.392H83.3792V23.1331C83.3792 27.5478 85.9103 29.8141 89.8541 29.8141ZM66.2501 29.5786H68.9283V25.1639L71.2828 22.7211L76.4628 29.5492H79.7002L73.1076 20.8963L79.4354 14.3626H76.1685L68.9283 22.0147V14.3626H66.2501V29.5786ZM55.743 29.7846C58.9216 29.7846 61.1584 28.0776 61.1584 25.2522C61.1584 22.6917 59.4808 21.5438 56.2728 20.7492C53.3591 20.0428 52.6822 19.5425 52.6822 18.3652C52.6822 17.3351 53.5945 16.5111 55.1544 16.5111C56.5377 16.5111 57.921 17.0408 59.2748 18.0709L60.717 16.0401C59.1865 14.804 57.4206 14.1271 55.2133 14.1271C52.2113 14.1271 50.0333 15.9224 50.0333 18.5418C50.0333 21.3967 51.8581 22.3385 55.0955 23.1037C57.921 23.7806 58.5096 24.3692 58.5096 25.4582C58.5096 26.6649 57.4795 27.4007 55.8313 27.4007C53.9477 27.4007 52.4762 26.6943 51.034 25.4288L49.4153 27.3418C51.2106 28.99 53.418 29.7846 55.743 29.7846Z" fill="#081425"/>
<path d="M150.954 27.1358V16.8054H153.956C157.134 16.8054 159.224 18.9833 159.224 21.9559C159.224 24.9579 157.134 27.1064 153.956 27.1064H150.954V27.1358ZM148.305 29.5786H153.956C158.724 29.5786 162.02 26.2529 162.02 21.9853C162.02 17.6589 158.724 14.392 153.956 14.392H148.305V29.5786ZM139.593 29.5786H142.272V14.392H139.593V29.5786ZM124.466 21.9264V16.8348H128.351C130.322 16.8348 131.5 17.7177 131.5 19.3659C131.5 20.9552 130.293 21.9559 128.38 21.9559H124.466V21.9264ZM121.817 29.5786H124.495V24.281H127.791L131.559 29.5786H134.708L130.617 23.8395C132.736 23.2214 134.237 21.7204 134.237 19.2482C134.237 16.305 132.147 14.4214 128.586 14.4214H121.817V29.5786ZM110.044 29.8435C112.722 29.8435 114.871 28.7545 116.372 27.489V21.1024H109.897V23.4274H113.782V26.2823C112.84 26.9887 111.545 27.4301 110.103 27.4301C107.013 27.4301 104.953 25.1345 104.953 22.0147C104.953 19.0716 107.072 16.5994 109.868 16.5994C111.81 16.5994 112.958 17.2174 114.135 18.2181L115.842 16.1873C114.282 14.8629 112.664 14.1271 110.015 14.1271C105.423 14.1271 102.186 17.7177 102.186 21.9853C102.157 26.4589 105.306 29.8435 110.044 29.8435Z" fill="#081425"/>
</svg>
