<svg width="24" height="24" viewBox="0 0 24 24" fill="none" xmlns="http://www.w3.org/2000/svg">
<g id="i">
<path id="Vector" d="M12 6C10.343 6 9 4.657 9 3C9 1.343 10.343 0 12 0C13.657 0 15 1.343 15 3C15 4.657 13.657 6 12 6Z" fill="#24BBEB"/>
<path id="Vector_2" d="M6 19C4.895 19 4 18.105 4 17V11C4 9.87 4.391 8.838 5.026 8H2C0.895 8 0 8.895 0 10V15C0 15.552 0.448 16 1 16H2V21C2 21.552 2.448 22 3 22H5C5.552 22 6 21.552 6 21V19Z" fill="#24BBEB"/>
<path id="Vector_3" d="M14 24H10C9.448 24 9 23.552 9 23V17H7C6.448 17 6 16.552 6 16V11C6 9.343 7.343 8 9 8H15C16.657 8 18 9.343 18 11V16C18 16.552 17.552 17 17 17H15V23C15 23.552 14.552 24 14 24Z" fill="#24BBEB"/>
<path id="Vector_4" d="M4 7C2.895 7 2 6.105 2 5C2 3.895 2.895 3 4 3C5.105 3 6 3.895 6 5C6 6.105 5.105 7 4 7Z" fill="#24BBEB"/>
<path id="Vector_5" d="M18 19C19.105 19 20 18.105 20 17V11C20 9.87 19.609 8.838 18.974 8H22C23.105 8 24 8.895 24 10V15C24 15.552 23.552 16 23 16H22V21C22 21.552 21.552 22 21 22H19C18.448 22 18 21.552 18 21V19Z" fill="#24BBEB"/>
<path id="Vector_6" d="M20 7C21.105 7 22 6.105 22 5C22 3.895 21.105 3 20 3C18.895 3 18 3.895 18 5C18 6.105 18.895 7 20 7Z" fill="#24BBEB"/>
</g>
</svg>
