<svg width="32" height="32" viewBox="0 0 32 32" fill="none" xmlns="http://www.w3.org/2000/svg">
<g id="32px">
<path id="i" d="M29.75 1H2.25C1.5 1 1 1.5 1 2.25V29.75C1 30.5 1.5 31 2.25 31H29.75C30.5 31 31 30.5 31 29.75V2.25C31 1.5 30.5 1 29.75 1ZM9.875 26.625H5.5V12.25H10V26.625H9.875ZM7.625 10.25C6.25 10.25 5 9.125 5 7.625C5 6.25 6.125 5 7.625 5C9 5 10.25 6.125 10.25 7.625C10.25 9.125 9.125 10.25 7.625 10.25ZM26.625 26.625H22.125V19.625C22.125 18 22.125 15.875 19.875 15.875C17.5 15.875 17.25 17.625 17.25 19.5V26.625H12.75V12.25H17V14.25C17.625 13.125 19 12 21.25 12C25.75 12 26.625 15 26.625 18.875V26.625Z" fill="#24BBEB"/>
</g>
</svg>
