<svg width="32" height="32" viewBox="0 0 32 32" fill="none" xmlns="http://www.w3.org/2000/svg">
<g id="32px">
<path id="i" d="M23.6667 1H7.66667C6.79119 1 5.92428 1.17244 5.11544 1.50747C4.30661 1.8425 3.57168 2.33356 2.95262 2.95262C1.70238 4.20286 1 5.89856 1 7.66667V23.6667C1 24.5421 1.17244 25.4091 1.50747 26.2179C1.8425 27.0267 2.33356 27.7617 2.95262 28.3807C4.20286 29.631 5.89856 30.3333 7.66667 30.3333H23.6667C24.5421 30.3333 25.4091 30.1609 26.2179 29.8259C27.0267 29.4908 27.7617 28.9998 28.3807 28.3807C28.9998 27.7617 29.4908 27.0267 29.8259 26.2179C30.1609 25.4091 30.3333 24.5421 30.3333 23.6667V7.66667C30.3333 6.79119 30.1609 5.92428 29.8259 5.11544C29.4908 4.30661 28.9998 3.57168 28.3807 2.95262C27.7617 2.33356 27.0267 1.8425 26.2179 1.50747C25.4091 1.17244 24.5421 1 23.6667 1ZM6.33333 7.66667C6.06962 7.66667 5.81184 7.58847 5.59257 7.44196C5.37331 7.29545 5.20241 7.08721 5.10149 6.84358C5.00058 6.59994 4.97417 6.33185 5.02562 6.07321C5.07707 5.81457 5.20405 5.57699 5.39052 5.39052C5.57699 5.20405 5.81457 5.07707 6.07321 5.02562C6.33185 4.97417 6.59994 5.00058 6.84358 5.10149C7.08721 5.20241 7.29545 5.37331 7.44196 5.59257C7.58847 5.81184 7.66667 6.06962 7.66667 6.33333C7.66667 6.68696 7.52619 7.02609 7.27614 7.27614C7.02609 7.52619 6.68696 7.66667 6.33333 7.66667ZM15.6667 23.6667C14.0844 23.6667 12.5377 23.1975 11.2221 22.3184C9.90651 21.4394 8.88113 20.1899 8.27563 18.7281C7.67013 17.2663 7.5117 15.6578 7.82038 14.1059C8.12907 12.5541 8.89099 11.1286 10.0098 10.0098C11.1286 8.89099 12.5541 8.12907 14.1059 7.82038C15.6578 7.5117 17.2663 7.67013 18.7281 8.27563C20.1899 8.88113 21.4394 9.90651 22.3184 11.2221C23.1975 12.5377 23.6667 14.0844 23.6667 15.6667C23.6667 17.7884 22.8238 19.8232 21.3235 21.3235C19.8232 22.8238 17.7884 23.6667 15.6667 23.6667Z" fill="#24BBEB"/>
</g>
</svg>
