<svg width="12" height="12" viewBox="0 0 12 12" fill="none" xmlns="http://www.w3.org/2000/svg">
<g id="12px">
<path id="Vector" d="M6.02738 9.88793C5.91413 9.88859 5.80186 9.86688 5.69701 9.82405C5.59216 9.78123 5.4968 9.71813 5.41639 9.63837L0.253081 4.47506C0.091036 4.31302 0 4.09324 0 3.86407C0 3.63491 0.091036 3.41513 0.253081 3.25308C0.415126 3.09104 0.634906 3 0.864073 3C1.09324 3 1.31302 3.09104 1.47506 3.25308L6.02738 7.814L10.5797 3.26169C10.7443 3.12071 10.9561 3.04704 11.1727 3.0554C11.3892 3.06377 11.5947 3.15355 11.748 3.30681C11.9012 3.46007 11.991 3.66552 11.9994 3.8821C12.0077 4.09868 11.9341 4.31044 11.7931 4.47506L6.62977 9.63837C6.46948 9.79735 6.25314 9.88698 6.02738 9.88793Z" fill="#A3ABB8"/>
</g>
</svg>
