<svg width="20" height="20" viewBox="0 0 20 20" fill="none" xmlns="http://www.w3.org/2000/svg">
<g id="sort 1">
<path id="Vector" fill-rule="evenodd" clip-rule="evenodd" d="M2.88738 17.1129C4.10777 18.3334 6.07195 18.3334 10.0003 18.3334C13.9287 18.3334 15.8929 18.3334 17.1132 17.1129C18.3337 15.8926 18.3337 13.9284 18.3337 10C18.3337 6.07165 18.3337 4.10746 17.1132 2.88708C15.8929 1.66669 13.9287 1.66669 10.0003 1.66669C6.07195 1.66669 4.10777 1.66669 2.88738 2.88708C1.66699 4.10746 1.66699 6.07165 1.66699 10C1.66699 13.9284 1.66699 15.8926 2.88738 17.1129ZM12.292 13.3334C12.292 13.6785 12.0122 13.9584 11.667 13.9584H8.33366C7.98848 13.9584 7.70866 13.6785 7.70866 13.3334C7.70866 12.9882 7.98848 12.7084 8.33366 12.7084H11.667C12.0122 12.7084 12.292 12.9882 12.292 13.3334ZM13.3337 10.625C13.6788 10.625 13.9587 10.3452 13.9587 10C13.9587 9.65485 13.6788 9.37502 13.3337 9.37502H6.66699C6.32182 9.37502 6.04199 9.65485 6.04199 10C6.04199 10.3452 6.32182 10.625 6.66699 10.625H13.3337ZM15.6253 6.66669C15.6253 7.01186 15.3455 7.29169 15.0003 7.29169H5.00033C4.65515 7.29169 4.37533 7.01186 4.37533 6.66669C4.37533 6.32151 4.65515 6.04169 5.00033 6.04169H15.0003C15.3455 6.04169 15.6253 6.32151 15.6253 6.66669Z" fill="#9CA1A8"/>
</g>
</svg>
