<svg width="24" height="24" viewBox="0 0 24 24" fill="none" xmlns="http://www.w3.org/2000/svg">
<g id="i">
<path id="Vector" d="M17.0001 16.0001C14.0491 16.0001 11.5971 15.3611 10.0001 14.2881C10.0001 15.0341 10.0001 15.5261 10.0001 16.0001C10.0001 17.6571 13.1341 19.0001 17.0001 19.0001C20.8661 19.0001 24.0001 17.6571 24.0001 16.0001C24.0001 15.5261 24.0001 15.0341 24.0001 14.2881C22.4031 15.3611 19.9511 16.0001 17.0001 16.0001Z" fill="#24BBEB"/>
<path id="Vector_2" d="M17.0001 21.0001C14.0491 21.0001 11.5971 20.3611 10.0001 19.2881C10.0001 20.0341 10.0001 20.5261 10.0001 21.0001C10.0001 22.6571 13.1341 24.0001 17.0001 24.0001C20.8661 24.0001 24.0001 22.6571 24.0001 21.0001C24.0001 20.5261 24.0001 20.0341 24.0001 19.2881C22.4031 20.3611 19.9511 21.0001 17.0001 21.0001Z" fill="#24BBEB"/>
<path id="Vector_3" d="M17.0001 14C20.8661 14 24.0001 12.6569 24.0001 11C24.0001 9.34315 20.8661 8 17.0001 8C13.1341 8 10.0001 9.34315 10.0001 11C10.0001 12.6569 13.1341 14 17.0001 14Z" fill="#24BBEB"/>
<path id="Vector_4" d="M7 6C10.866 6 14 4.65685 14 3C14 1.34315 10.866 0 7 0C3.13401 0 0 1.34315 0 3C0 4.65685 3.13401 6 7 6Z" fill="#24BBEB"/>
<path id="Vector_5" d="M8 17.9731C7.673 17.9891 7.341 18.0001 7 18.0001C4.049 18.0001 1.597 17.3611 0 16.2881C0 17.0341 0 17.5261 0 18.0001C0 19.6571 3.134 21.0001 7 21.0001C7.34 21.0001 7.673 20.9861 8 20.9661V17.9731Z" fill="#24BBEB"/>
<path id="Vector_6" d="M8 12.9731C7.673 12.9891 7.341 13.0001 7 13.0001C4.049 13.0001 1.597 12.3611 0 11.2881C0 12.0341 0 12.5261 0 13.0001C0 14.6571 3.134 16.0001 7 16.0001C7.34 16.0001 7.673 15.9861 8 15.9661V12.9731Z" fill="#24BBEB"/>
<path id="Vector_7" d="M9.92 7.76609C9.018 7.91609 8.042 8.00009 7 8.00009C4.049 8.00009 1.597 7.36109 0 6.28809C0 7.03409 0 7.52609 0 8.00009C0 9.65709 3.134 11.0001 7 11.0001C7.341 11.0001 7.674 10.9861 8.003 10.9661C8.015 9.70309 8.71 8.60609 9.92 7.76609Z" fill="#24BBEB"/>
</g>
</svg>
