<svg width="36" height="36" viewBox="0 0 36 36" fill="none" xmlns="http://www.w3.org/2000/svg">
<g id="i">
<path id="Vector" fill-rule="evenodd" clip-rule="evenodd" d="M14.8866 6.71944L17.9993 3.16298L21.112 6.71944C20.531 6.82995 20.0923 7.34065 20.0923 7.95349V25.5349C20.0923 26.2281 20.6549 26.7907 21.3481 26.7907C22.0413 26.7907 22.604 26.2281 22.604 25.5349V9.2093H23.8598C24.352 9.2093 24.7991 8.9213 25.0034 8.47256C25.2077 8.02381 25.129 7.49805 24.8041 7.12633L18.9437 0.428651C18.7059 0.155721 18.361 0 17.9993 0C17.6376 0 17.2927 0.155721 17.0549 0.428651L11.1945 7.12633C10.8696 7.49805 10.7909 8.02381 10.9952 8.47256C11.1995 8.9213 11.6466 9.2093 12.1388 9.2093H13.3947V15.8567C13.3947 16.55 13.9573 17.1126 14.6505 17.1126C15.3437 17.1126 15.9063 16.55 15.9063 15.8567V7.95349C15.9063 7.34065 15.4676 6.82995 14.8866 6.71944Z" fill="#24BBEB"/>
<path id="Vector_2" fill-rule="evenodd" clip-rule="evenodd" d="M29.2813 15.7247L32.8378 18.8374L29.2813 21.9502C29.1708 21.3692 28.6601 20.9305 28.0473 20.9305H24.6984C23.4778 20.9305 22.3057 21.416 21.4417 22.2784C20.5794 23.1424 20.0938 24.3145 20.0938 25.5351C20.0938 26.2283 20.6564 26.7909 21.3496 26.7909C22.0428 26.7909 22.6054 26.2283 22.6054 25.5351C22.6054 24.9792 22.8264 24.4484 23.2183 24.0549C23.6117 23.6631 24.1425 23.4421 24.6984 23.4421H26.7915V24.6979C26.7915 25.1902 27.0795 25.6373 27.5282 25.8415C27.977 26.0458 28.5027 25.9671 28.8744 25.6423L35.5721 19.7818C35.845 19.544 36.0008 19.1991 36.0008 18.8374C36.0008 18.4758 35.845 18.1308 35.5721 17.8931L28.8744 12.0326C28.5027 11.7078 27.977 11.6291 27.5282 11.8333C27.0795 12.0376 26.7915 12.4847 26.7915 12.977V14.2328H24.6984C23.4024 14.2328 22.1299 14.4555 20.931 14.8791C20.278 15.1102 19.9347 15.8285 20.1658 16.4815C20.3969 17.1346 21.1152 17.4778 21.7682 17.2467C22.7009 16.9169 23.6904 16.7444 24.6984 16.7444H28.0473C28.6601 16.7444 29.1708 16.3057 29.2813 15.7247Z" fill="#24BBEB"/>
<path id="Vector_3" fill-rule="evenodd" clip-rule="evenodd" d="M9.2093 14.2328V12.977C9.2093 12.4847 8.9213 12.0376 8.47256 11.8333C8.02381 11.6291 7.49805 11.7078 7.12633 12.0326L0.428651 17.8931C0.155721 18.1308 0 18.4758 0 18.8374C0 19.1991 0.155721 19.544 0.428651 19.7818L7.12633 25.6423C7.49805 25.9671 8.02381 26.0458 8.47256 25.8415C8.9213 25.6373 9.2093 25.1902 9.2093 24.6979V23.4421H11.3023C11.8582 23.4421 12.389 23.6631 12.7825 24.0549C13.1743 24.4484 13.3953 24.9792 13.3953 25.5351V34.7444C13.3953 35.4376 13.958 36.0002 14.6512 36.0002H21.3488C22.042 36.0002 22.6047 35.4376 22.6047 34.7444C22.6047 34.7444 22.6047 30.2051 22.6047 25.5351C22.6047 22.5379 21.4141 19.6629 19.2943 17.5431C17.1745 15.4233 14.2995 14.2328 11.3023 14.2328H9.2093ZM3.16298 18.8374L6.71944 15.7247C6.82995 16.3057 7.34065 16.7444 7.95349 16.7444H11.3023C13.6331 16.7444 15.8701 17.6704 17.5178 19.3197C19.1671 20.9673 20.093 23.2043 20.093 25.5351V33.4886H15.907V25.5351C15.907 24.3145 15.4214 23.1424 14.5591 22.2784C13.6951 21.416 12.523 20.9305 11.3023 20.9305H7.95349C7.34065 20.9305 6.82995 21.3692 6.71944 21.9502L3.16298 18.8374Z" fill="#24BBEB"/>
</g>
</svg>
