<svg width="44" height="44" viewBox="0 0 44 44" fill="none" xmlns="http://www.w3.org/2000/svg">
<g id="44px">
<g id="i">
<mask id="path-1-inside-1_99_3818" fill="white">
<path d="M33.6271 37.2715C33.9759 37.2718 34.311 37.1354 34.5604 36.8916C36.688 34.819 38.2696 32.2522 39.1642 29.4199C40.0588 26.5876 40.2386 23.578 39.6875 20.6594C39.1364 17.7408 37.8716 15.0039 36.0059 12.6928C34.1402 10.3817 31.7315 8.56829 28.9947 7.41422C26.2579 6.26015 23.278 5.80131 20.3208 6.07863C17.3635 6.35594 14.5209 7.36079 12.0464 9.00356C9.57184 10.6463 7.5423 12.876 6.13876 15.4936C4.73522 18.1113 4.00131 21.0356 4.00246 24.0058V24.4857C3.99918 24.5257 3.99918 24.5658 4.00246 24.6057C3.99918 24.6701 3.99918 24.7346 4.00246 24.799C4.18779 29.2963 6.06382 33.5578 9.25543 36.7316C9.37926 36.8555 9.5263 36.9539 9.68815 37.021C9.85 37.088 10.0235 37.1226 10.1987 37.1226C10.3739 37.1226 10.5474 37.088 10.7093 37.021C10.8711 36.9539 11.0181 36.8555 11.142 36.7316L16.7949 31.0719C16.9189 30.9481 17.0172 30.8011 17.0843 30.6392C17.1514 30.4774 17.1859 30.3039 17.1859 30.1287C17.1859 29.9535 17.1514 29.78 17.0843 29.6181C17.0172 29.4563 16.9189 29.3092 16.7949 29.1854C15.452 27.9019 14.6464 26.1565 14.5406 24.3019C14.4349 22.4472 15.037 20.6216 16.2253 19.1938C17.4136 17.7659 19.0996 16.8423 20.9426 16.6095C22.7856 16.3767 24.6482 16.852 26.1543 17.9395L21.0613 23.0325C20.9272 23.1535 20.8192 23.3005 20.7437 23.4646C20.6682 23.6287 20.6268 23.8064 20.622 23.9869C20.6172 24.1674 20.6492 24.3471 20.716 24.5149C20.7827 24.6827 20.8829 24.8352 21.0104 24.9631C21.1379 25.0911 21.29 25.1918 21.4576 25.2591C21.6251 25.3265 21.8047 25.3591 21.9852 25.3549C22.1658 25.3508 22.3436 25.3101 22.5079 25.2351C22.6723 25.1602 22.8197 25.0527 22.9412 24.919L28.0408 19.826C29.0552 21.3058 29.492 23.106 29.2684 24.8861C29.0448 26.6662 28.1764 28.3025 26.8276 29.4854C26.7587 29.5455 26.6961 29.6125 26.6409 29.6854V29.732L26.5276 29.9187C26.5247 29.9475 26.5247 29.9765 26.5276 30.0054C26.5036 30.0594 26.4835 30.1151 26.4676 30.172C26.4639 30.2075 26.4639 30.2432 26.4676 30.2787C26.4612 30.3318 26.4612 30.3855 26.4676 30.4387C26.4669 30.4498 26.4669 30.4609 26.4676 30.472C26.4676 30.472 26.4676 30.5253 26.4676 30.552C26.4643 30.603 26.4643 30.6543 26.4676 30.7053V30.8186L26.5143 30.9653C26.528 31.0027 26.5459 31.0385 26.5676 31.0719C26.5858 31.1162 26.6081 31.1586 26.6342 31.1986L26.7142 31.3053L26.7542 31.3653C26.7687 31.3842 26.7869 31.4001 26.8076 31.4119L26.8542 31.4719L32.7738 36.8916C33.0031 37.117 33.3062 37.2519 33.6271 37.2715ZM10.2554 33.8651C8.36066 31.6134 7.161 28.8598 6.80227 25.939H12.1886C12.1886 26.0123 12.1886 26.0856 12.2419 26.1589C12.2819 26.3456 12.3286 26.5389 12.3819 26.7256C12.4352 26.9122 12.4419 26.9389 12.4752 27.0456C12.5085 27.1522 12.6085 27.4389 12.6885 27.6322C12.6885 27.7188 12.7485 27.8055 12.7885 27.8922C12.9011 28.1707 13.0302 28.4423 13.1752 28.7054V28.7454C13.3085 28.9988 13.4618 29.2454 13.6151 29.4787C13.6685 29.5654 13.7285 29.6387 13.7818 29.7187C13.8351 29.7987 13.9418 29.9587 14.0284 30.072L10.2554 33.8651ZM29.8807 30.1253C29.954 30.0387 30.0273 29.952 30.094 29.8587C30.254 29.6387 30.4073 29.4054 30.5473 29.1921C30.5473 29.1454 30.6073 29.1054 30.6273 29.0654C30.792 28.785 30.9411 28.4956 31.0739 28.1988C31.1206 28.1121 31.1539 28.0188 31.1939 27.9255C31.2806 27.7188 31.3673 27.5055 31.4406 27.2589C31.5139 27.0122 31.5139 27.0322 31.5472 26.9189C31.5806 26.8056 31.6672 26.5123 31.7206 26.3056C31.7739 26.099 31.7739 26.0723 31.7939 25.9523C31.8139 25.8323 31.8739 25.5123 31.9072 25.2857L31.9472 24.9724C31.9809 24.6512 31.9987 24.3286 32.0005 24.0058C32.0013 21.8119 31.2771 19.6793 29.9407 17.9395L32.2739 15.6063C32.4079 15.4853 32.516 15.3383 32.5915 15.1742C32.667 15.0102 32.7084 14.8325 32.7132 14.6519C32.7179 14.4714 32.6859 14.2918 32.6192 14.124C32.5524 13.9561 32.4523 13.8036 32.3248 13.6757C32.1973 13.5478 32.0452 13.4471 31.8776 13.3797C31.71 13.3124 31.5305 13.2798 31.3499 13.2839C31.1694 13.288 30.9915 13.3288 30.8272 13.4037C30.6629 13.4786 30.5155 13.5862 30.394 13.7198L28.0542 16.0596C26.622 14.9737 24.9236 14.2939 23.1378 14.0917C21.3519 13.8895 19.5445 14.1723 17.9058 14.9105C16.2671 15.6486 14.8577 16.8148 13.8258 18.2864C12.7939 19.7579 12.1776 21.4803 12.0419 23.2725H6.66895C6.78807 20.8312 7.48911 18.4538 8.71359 16.3385C9.93808 14.2232 11.6505 12.4313 13.7082 11.1122C15.7658 9.79307 18.109 8.98499 20.5423 8.75533C22.9756 8.52566 25.4286 8.88107 27.6967 9.7919C29.9648 10.7027 31.9823 12.1426 33.5809 13.9915C35.1796 15.8403 36.313 18.0446 36.8868 20.4204C37.4606 22.7963 37.4581 25.2749 36.8794 27.6496C36.3008 30.0242 35.1628 32.2262 33.5604 34.0717L29.6274 30.4587C29.714 30.352 29.794 30.2387 29.8807 30.1253Z"/>
</mask>
<path d="M33.6271 37.2715C33.9759 37.2718 34.311 37.1354 34.5604 36.8916C36.688 34.819 38.2696 32.2522 39.1642 29.4199C40.0588 26.5876 40.2386 23.578 39.6875 20.6594C39.1364 17.7408 37.8716 15.0039 36.0059 12.6928C34.1402 10.3817 31.7315 8.56829 28.9947 7.41422C26.2579 6.26015 23.278 5.80131 20.3208 6.07863C17.3635 6.35594 14.5209 7.36079 12.0464 9.00356C9.57184 10.6463 7.5423 12.876 6.13876 15.4936C4.73522 18.1113 4.00131 21.0356 4.00246 24.0058V24.4857C3.99918 24.5257 3.99918 24.5658 4.00246 24.6057C3.99918 24.6701 3.99918 24.7346 4.00246 24.799C4.18779 29.2963 6.06382 33.5578 9.25543 36.7316C9.37926 36.8555 9.5263 36.9539 9.68815 37.021C9.85 37.088 10.0235 37.1226 10.1987 37.1226C10.3739 37.1226 10.5474 37.088 10.7093 37.021C10.8711 36.9539 11.0181 36.8555 11.142 36.7316L16.7949 31.0719C16.9189 30.9481 17.0172 30.8011 17.0843 30.6392C17.1514 30.4774 17.1859 30.3039 17.1859 30.1287C17.1859 29.9535 17.1514 29.78 17.0843 29.6181C17.0172 29.4563 16.9189 29.3092 16.7949 29.1854C15.452 27.9019 14.6464 26.1565 14.5406 24.3019C14.4349 22.4472 15.037 20.6216 16.2253 19.1938C17.4136 17.7659 19.0996 16.8423 20.9426 16.6095C22.7856 16.3767 24.6482 16.852 26.1543 17.9395L21.0613 23.0325C20.9272 23.1535 20.8192 23.3005 20.7437 23.4646C20.6682 23.6287 20.6268 23.8064 20.622 23.9869C20.6172 24.1674 20.6492 24.3471 20.716 24.5149C20.7827 24.6827 20.8829 24.8352 21.0104 24.9631C21.1379 25.0911 21.29 25.1918 21.4576 25.2591C21.6251 25.3265 21.8047 25.3591 21.9852 25.3549C22.1658 25.3508 22.3436 25.3101 22.5079 25.2351C22.6723 25.1602 22.8197 25.0527 22.9412 24.919L28.0408 19.826C29.0552 21.3058 29.492 23.106 29.2684 24.8861C29.0448 26.6662 28.1764 28.3025 26.8276 29.4854C26.7587 29.5455 26.6961 29.6125 26.6409 29.6854V29.732L26.5276 29.9187C26.5247 29.9475 26.5247 29.9765 26.5276 30.0054C26.5036 30.0594 26.4835 30.1151 26.4676 30.172C26.4639 30.2075 26.4639 30.2432 26.4676 30.2787C26.4612 30.3318 26.4612 30.3855 26.4676 30.4387C26.4669 30.4498 26.4669 30.4609 26.4676 30.472C26.4676 30.472 26.4676 30.5253 26.4676 30.552C26.4643 30.603 26.4643 30.6543 26.4676 30.7053V30.8186L26.5143 30.9653C26.528 31.0027 26.5459 31.0385 26.5676 31.0719C26.5858 31.1162 26.6081 31.1586 26.6342 31.1986L26.7142 31.3053L26.7542 31.3653C26.7687 31.3842 26.7869 31.4001 26.8076 31.4119L26.8542 31.4719L32.7738 36.8916C33.0031 37.117 33.3062 37.2519 33.6271 37.2715ZM10.2554 33.8651C8.36066 31.6134 7.161 28.8598 6.80227 25.939H12.1886C12.1886 26.0123 12.1886 26.0856 12.2419 26.1589C12.2819 26.3456 12.3286 26.5389 12.3819 26.7256C12.4352 26.9122 12.4419 26.9389 12.4752 27.0456C12.5085 27.1522 12.6085 27.4389 12.6885 27.6322C12.6885 27.7188 12.7485 27.8055 12.7885 27.8922C12.9011 28.1707 13.0302 28.4423 13.1752 28.7054V28.7454C13.3085 28.9988 13.4618 29.2454 13.6151 29.4787C13.6685 29.5654 13.7285 29.6387 13.7818 29.7187C13.8351 29.7987 13.9418 29.9587 14.0284 30.072L10.2554 33.8651ZM29.8807 30.1253C29.954 30.0387 30.0273 29.952 30.094 29.8587C30.254 29.6387 30.4073 29.4054 30.5473 29.1921C30.5473 29.1454 30.6073 29.1054 30.6273 29.0654C30.792 28.785 30.9411 28.4956 31.0739 28.1988C31.1206 28.1121 31.1539 28.0188 31.1939 27.9255C31.2806 27.7188 31.3673 27.5055 31.4406 27.2589C31.5139 27.0122 31.5139 27.0322 31.5472 26.9189C31.5806 26.8056 31.6672 26.5123 31.7206 26.3056C31.7739 26.099 31.7739 26.0723 31.7939 25.9523C31.8139 25.8323 31.8739 25.5123 31.9072 25.2857L31.9472 24.9724C31.9809 24.6512 31.9987 24.3286 32.0005 24.0058C32.0013 21.8119 31.2771 19.6793 29.9407 17.9395L32.2739 15.6063C32.4079 15.4853 32.516 15.3383 32.5915 15.1742C32.667 15.0102 32.7084 14.8325 32.7132 14.6519C32.7179 14.4714 32.6859 14.2918 32.6192 14.124C32.5524 13.9561 32.4523 13.8036 32.3248 13.6757C32.1973 13.5478 32.0452 13.4471 31.8776 13.3797C31.71 13.3124 31.5305 13.2798 31.3499 13.2839C31.1694 13.288 30.9915 13.3288 30.8272 13.4037C30.6629 13.4786 30.5155 13.5862 30.394 13.7198L28.0542 16.0596C26.622 14.9737 24.9236 14.2939 23.1378 14.0917C21.3519 13.8895 19.5445 14.1723 17.9058 14.9105C16.2671 15.6486 14.8577 16.8148 13.8258 18.2864C12.7939 19.7579 12.1776 21.4803 12.0419 23.2725H6.66895C6.78807 20.8312 7.48911 18.4538 8.71359 16.3385C9.93808 14.2232 11.6505 12.4313 13.7082 11.1122C15.7658 9.79307 18.109 8.98499 20.5423 8.75533C22.9756 8.52566 25.4286 8.88107 27.6967 9.7919C29.9648 10.7027 31.9823 12.1426 33.5809 13.9915C35.1796 15.8403 36.313 18.0446 36.8868 20.4204C37.4606 22.7963 37.4581 25.2749 36.8794 27.6496C36.3008 30.0242 35.1628 32.2262 33.5604 34.0717L29.6274 30.4587C29.714 30.352 29.794 30.2387 29.8807 30.1253Z" fill="#24BBEB" stroke="#24BBEB" stroke-width="2" mask="url(#path-1-inside-1_99_3818)"/>
</g>
</g>
</svg>
