<svg width="44" height="44" viewBox="0 0 44 44" fill="none" xmlns="http://www.w3.org/2000/svg">
<g id="44px">
<path id="i" d="M38.9773 21.2858L33.8661 16.1732C33.3791 15.687 33.5309 15.1671 34.2019 15.016C34.2019 15.016 34.7562 14.891 35.4389 14.2084C36.9045 12.7434 36.9031 10.365 35.4389 8.90218C33.9725 7.43654 31.5975 7.43654 30.1312 8.90218C29.4485 9.5848 29.3242 10.1384 29.3242 10.1384C29.1731 10.8108 28.6517 10.9612 28.1662 10.4735L23.0549 5.36515C22.5686 4.87824 21.772 4.87824 21.2857 5.36515L16.1751 10.4749C15.6896 10.9625 15.84 11.4838 16.511 11.6342C16.511 11.6342 17.066 11.7592 17.7479 12.4406C19.2115 13.9055 19.2136 16.2825 17.7479 17.7487C16.283 19.2137 13.9045 19.2123 12.441 17.7487C11.759 17.0654 11.6339 16.5112 11.6339 16.5112C11.4835 15.8395 10.9615 15.689 10.4753 16.1753L5.3647 21.2865C4.87843 21.7727 4.87843 22.5687 5.3647 23.0543L10.4753 28.1654C10.9615 28.6517 10.8105 29.1729 10.1394 29.324C10.1394 29.324 9.58521 29.4497 8.90251 30.1317C7.4368 31.598 7.4368 33.9736 8.90251 35.4386C10.3674 36.9035 12.7438 36.9049 14.2095 35.4386C14.8929 34.7559 15.0164 34.2024 15.0164 34.2024C15.1676 33.5299 15.6889 33.3795 16.1744 33.8679L21.2857 38.9762C21.772 39.4632 22.5686 39.4632 23.0549 38.9762L28.1669 33.8665C28.6531 33.3802 28.5014 32.8576 27.8311 32.7079C27.8311 32.7079 27.2754 32.5829 26.5934 31.9016C25.127 30.4352 25.1277 28.0597 26.5934 26.5933C28.0584 25.1284 30.4348 25.1263 31.9004 26.5933C32.5831 27.276 32.7067 27.831 32.7067 27.831C32.8585 28.5033 33.3791 28.6544 33.8661 28.1682L38.9773 23.0556C39.4629 22.568 39.4629 21.772 38.9773 21.2858Z" stroke="#24BBEB" stroke-width="2.5" stroke-miterlimit="10"/>
</g>
</svg>
