<svg width="44" height="44" viewBox="0 0 44 44" fill="none" xmlns="http://www.w3.org/2000/svg">
<g id="44px">
<g id="i">
<mask id="path-1-inside-1_99_3830" fill="white">
<path d="M34.7278 9.27217C31.328 5.87228 26.8078 4 21.9998 4C17.1917 4 12.6717 5.87235 9.27203 9.27217C5.87235 12.6719 4 17.1921 4 22.0001C4 26.8082 5.87228 31.3283 9.27203 34.728C12.6717 38.1277 17.1918 40 21.9998 40C26.8078 40 31.3279 38.1277 34.7278 34.728C38.1276 31.3283 39.9999 26.8081 39.9999 22.0001C39.9999 17.192 38.1276 12.6719 34.7278 9.27217ZM29.0115 9.18252C29.2693 8.92975 29.5312 8.67269 29.7752 8.41928C30.7908 9.00302 31.7346 9.69791 32.591 10.4864C32.5868 10.4922 32.5823 10.4987 32.5786 10.5034C32.4233 10.4884 32.2137 10.4197 31.993 10.3472C31.5656 10.207 31.0335 10.0328 30.4166 10.0822C29.8154 10.1305 29.311 10.3789 28.9057 10.5784C28.7179 10.6708 28.406 10.8245 28.2987 10.825C28.1891 10.7724 27.9617 10.4814 27.8713 10.3651C28.1519 10.0256 28.5884 9.59758 29.0115 9.18252ZM17.0608 7.14691C17.3401 7.99959 17.6591 8.80424 17.9714 9.56995C18.2281 10.199 18.519 10.9119 18.4595 11.4964C18.4353 11.7334 18.394 11.8488 18.3735 11.8938C18.2689 11.9274 18.0192 11.9483 17.8486 11.9625C17.3126 12.0073 16.5786 12.0685 15.8993 12.5455C15.7659 12.6391 15.6463 12.7326 15.5305 12.823C15.3354 12.9754 15.1336 13.133 15.0068 13.1685C14.8815 13.2036 14.6305 13.175 14.3879 13.1474C14.2092 13.1271 14.0066 13.1039 13.7931 13.0969C13.1386 13.0748 11.5382 13.3533 10.7747 14.3504C10.3809 14.8646 10.2677 15.4868 10.456 16.1027C10.5956 16.5594 10.8894 16.8708 11.1297 17.0912C12.1804 18.0545 13.6203 18.7364 15.0804 18.9624C15.2842 18.9939 15.4782 19.0176 15.6659 19.0406C16.679 19.1646 16.9645 19.2472 17.2253 19.7172C17.3047 19.8603 17.3756 20.0483 17.4509 20.2475C17.5449 20.4966 17.6515 20.7788 17.8066 21.0634C18.3066 21.9803 19.1689 22.5186 20.0554 22.4672C20.7153 22.4292 21.1855 22.0968 21.529 21.8542C21.6489 21.7694 21.7729 21.6818 21.8458 21.6514C21.9847 21.5935 22.3189 21.6546 22.7249 21.9251C23.1211 22.1894 23.3928 22.4968 23.4899 22.7907C23.56 23.0034 23.514 23.2457 23.4214 23.3239L21.2713 25.1603C20.7187 25.6323 19.6901 26.5109 19.6582 27.837C19.6491 28.2186 19.7229 28.5621 19.7879 28.8651C19.8006 28.924 19.8158 28.9951 19.8292 29.0638C19.6277 29.1132 19.3815 29.1764 19.1243 29.3062C17.8188 29.9654 17.7014 31.4687 17.6313 32.3669C17.6108 32.6294 17.5584 32.8331 17.5058 32.972C17.4767 32.9172 17.4496 32.8522 17.431 32.7798C17.3806 32.5829 17.3549 32.3447 17.3277 32.0924C17.2834 31.6809 17.233 31.2145 17.0597 30.734C16.8365 30.1155 16.4663 29.6293 16.1395 29.2006C15.855 28.8272 15.6094 28.5047 15.5388 28.2068C15.4859 27.9827 15.5111 27.6659 15.5376 27.3303C15.5781 26.8215 15.624 26.2446 15.4535 25.6245C15.211 24.7422 14.6422 24.1454 14.1405 23.619C13.8566 23.3212 13.5885 23.0399 13.4458 22.7674C13.3032 22.4954 13.3135 22.204 13.344 21.7126C13.3732 21.242 13.4096 20.6563 13.2006 20.044C12.9742 19.3808 12.4604 19.013 12.1161 18.7664C11.212 18.1192 10.3653 17.3822 9.59927 16.5757C9.21747 16.1736 8.84594 15.7404 8.71354 15.2954C8.67318 15.1597 8.6452 15.0573 8.6234 14.9772C8.54387 14.6862 8.47588 14.5043 8.36106 14.3285C10.2555 10.9736 13.3514 8.3837 17.0608 7.14691ZM21.9998 37.6522C13.3692 37.6522 6.3478 30.6306 6.3478 22.0001C6.3478 20.3372 6.60944 18.7343 7.09206 17.2296C7.34266 17.5882 7.62559 17.907 7.897 18.1926C8.76515 19.1066 9.72484 19.942 10.7537 20.6786C10.83 20.7332 10.9386 20.811 10.9952 20.8619C11.0339 21.0348 11.0184 21.2838 11.0009 21.5674C10.9636 22.1683 10.9125 22.9913 11.3664 23.8574C11.662 24.4216 12.076 24.8558 12.4412 25.239C12.7968 25.6122 13.1039 25.9343 13.1898 26.2469C13.2509 26.4696 13.2249 26.7974 13.1973 27.1444C13.1593 27.6224 13.1162 28.1643 13.2541 28.7473C13.4395 29.5308 13.8818 30.1113 14.272 30.6235C14.518 30.9464 14.7504 31.2515 14.8513 31.5308C14.929 31.7463 14.9604 32.0368 14.9935 32.3444C15.0268 32.6527 15.0645 33.0021 15.1566 33.362C15.4327 34.4403 16.3277 35.475 17.5354 35.475C17.5997 35.475 17.6652 35.472 17.7313 35.466C18.9818 35.3517 19.8406 34.2343 19.9722 32.5496C19.9935 32.2769 20.0496 31.5581 20.1887 31.3996C20.2317 31.3824 20.3365 31.3568 20.4143 31.3378C20.7451 31.2568 21.245 31.1343 21.658 30.7113C22.4187 29.9322 22.209 28.9555 22.0836 28.372C22.0459 28.1963 22.0031 27.997 22.0056 27.8932C22.0122 27.6151 22.5818 27.1286 22.7963 26.9454L24.9419 25.1127C25.7773 24.4062 26.0898 23.1774 25.7195 22.055C25.4552 21.2537 24.87 20.5332 24.0272 19.9713C22.9873 19.2782 21.8631 19.1005 20.9432 19.4838C20.6304 19.6141 20.3775 19.7928 20.1742 19.9365C20.1127 19.98 20.0316 20.0373 19.9656 20.0791C19.9353 20.0454 19.9004 19.9987 19.868 19.9392C19.7906 19.7973 19.7212 19.6131 19.6476 19.4181C19.5507 19.1614 19.4408 18.8705 19.2783 18.5776C18.4088 17.0107 16.9883 16.8369 15.9512 16.71C15.774 16.6884 15.6065 16.6679 15.4395 16.642C14.5664 16.507 13.6782 16.1236 12.9964 15.5961C13.2463 15.5063 13.5517 15.437 13.7161 15.4434C13.8351 15.4474 13.9745 15.4633 14.1223 15.4801C14.5458 15.5284 15.0727 15.5883 15.6405 15.4292C16.2138 15.2685 16.6364 14.9384 16.976 14.6732C17.0729 14.5975 17.1643 14.526 17.2487 14.4668C17.4076 14.3553 17.7168 14.3295 18.0441 14.3021C18.8592 14.2341 20.5554 14.0925 20.7955 11.734C20.9143 10.5671 20.4881 9.52241 20.1456 8.68295C19.8607 7.98461 19.5843 7.29147 19.3432 6.57421C20.207 6.42613 21.0944 6.34787 21.9999 6.34787C23.9429 6.34787 25.8039 6.70485 27.5221 7.35475C27.4707 7.40538 27.4191 7.45593 27.3677 7.50634C26.8459 8.01808 26.3063 8.54732 25.935 9.02805C25.778 9.23132 25.5153 9.57142 25.4378 10.0612C25.3065 10.8922 25.8034 11.5305 26.0156 11.8031C26.3309 12.2083 26.8588 12.8865 27.7307 13.104C27.9255 13.1525 28.1135 13.1733 28.294 13.1733C28.951 13.1733 29.5098 12.8982 29.9431 12.6848C30.1925 12.562 30.4505 12.4349 30.6047 12.4225C30.7515 12.4105 31.0107 12.4959 31.2618 12.5782C31.6284 12.6984 32.0439 12.8346 32.5333 12.8523C32.5628 12.8535 32.592 12.854 32.6213 12.854C33.229 12.8539 33.7687 12.6225 34.1964 12.202C35.2358 13.4932 36.0747 14.9519 36.6655 16.531C36.5818 16.5332 36.4966 16.5344 36.4205 16.5353C36.1905 16.5382 35.9296 16.5415 35.6455 16.5633C34.9898 16.6137 34.4762 16.4234 33.8259 16.1823C33.3794 16.0169 32.8733 15.8293 32.28 15.7114C30.6809 15.3936 29.0407 16.2654 28.1013 17.9324C27.8277 18.4178 26.5194 20.9172 27.6327 22.4506C28.05 23.0255 28.6085 23.3603 29.0573 23.6291C29.6594 23.9901 30.282 24.3632 30.9873 24.6478C31.1375 24.7084 31.2862 24.7634 31.43 24.8164C31.8577 24.9743 32.3001 25.1376 32.4584 25.3543C32.547 25.4756 32.6395 25.749 32.5765 26.3615C32.5342 26.7712 32.3702 27.2183 32.1966 27.6917C31.769 28.8579 31.1832 30.4552 32.5558 32.0235C32.8015 32.3041 33.0787 32.5417 33.3797 32.7352C30.5238 35.7607 26.4787 37.6522 21.9998 37.6522ZM34.3225 30.4773C33.9204 30.0178 33.9741 29.6637 34.4008 28.5C34.6064 27.9393 34.8393 27.304 34.9117 26.6022C35.0253 25.4997 34.8429 24.6384 34.3538 23.9692C33.7777 23.1805 32.9267 22.8663 32.2428 22.614C32.1093 22.5647 31.9832 22.5181 31.8655 22.4706C31.3308 22.2549 30.8126 21.9443 30.264 21.6155C29.9826 21.4469 29.6921 21.2728 29.5494 21.0937C29.4662 20.8053 29.7078 19.8635 30.1465 19.085C30.5005 18.4566 31.1557 17.8814 31.822 18.0141C32.2324 18.0957 32.6099 18.2356 33.0098 18.3838C33.7816 18.6699 34.6563 18.9938 35.8254 18.9042C36.0344 18.8881 36.2457 18.8854 36.4499 18.8829C36.7401 18.8793 37.0359 18.8755 37.3298 18.8328C37.541 19.856 37.652 20.9153 37.652 22.0001C37.6521 25.2948 36.628 28.3541 34.8827 30.8787C34.6729 30.7946 34.4833 30.661 34.3225 30.4773Z"/>
</mask>
<path d="M34.7278 9.27217C31.328 5.87228 26.8078 4 21.9998 4C17.1917 4 12.6717 5.87235 9.27203 9.27217C5.87235 12.6719 4 17.1921 4 22.0001C4 26.8082 5.87228 31.3283 9.27203 34.728C12.6717 38.1277 17.1918 40 21.9998 40C26.8078 40 31.3279 38.1277 34.7278 34.728C38.1276 31.3283 39.9999 26.8081 39.9999 22.0001C39.9999 17.192 38.1276 12.6719 34.7278 9.27217ZM29.0115 9.18252C29.2693 8.92975 29.5312 8.67269 29.7752 8.41928C30.7908 9.00302 31.7346 9.69791 32.591 10.4864C32.5868 10.4922 32.5823 10.4987 32.5786 10.5034C32.4233 10.4884 32.2137 10.4197 31.993 10.3472C31.5656 10.207 31.0335 10.0328 30.4166 10.0822C29.8154 10.1305 29.311 10.3789 28.9057 10.5784C28.7179 10.6708 28.406 10.8245 28.2987 10.825C28.1891 10.7724 27.9617 10.4814 27.8713 10.3651C28.1519 10.0256 28.5884 9.59758 29.0115 9.18252ZM17.0608 7.14691C17.3401 7.99959 17.6591 8.80424 17.9714 9.56995C18.2281 10.199 18.519 10.9119 18.4595 11.4964C18.4353 11.7334 18.394 11.8488 18.3735 11.8938C18.2689 11.9274 18.0192 11.9483 17.8486 11.9625C17.3126 12.0073 16.5786 12.0685 15.8993 12.5455C15.7659 12.6391 15.6463 12.7326 15.5305 12.823C15.3354 12.9754 15.1336 13.133 15.0068 13.1685C14.8815 13.2036 14.6305 13.175 14.3879 13.1474C14.2092 13.1271 14.0066 13.1039 13.7931 13.0969C13.1386 13.0748 11.5382 13.3533 10.7747 14.3504C10.3809 14.8646 10.2677 15.4868 10.456 16.1027C10.5956 16.5594 10.8894 16.8708 11.1297 17.0912C12.1804 18.0545 13.6203 18.7364 15.0804 18.9624C15.2842 18.9939 15.4782 19.0176 15.6659 19.0406C16.679 19.1646 16.9645 19.2472 17.2253 19.7172C17.3047 19.8603 17.3756 20.0483 17.4509 20.2475C17.5449 20.4966 17.6515 20.7788 17.8066 21.0634C18.3066 21.9803 19.1689 22.5186 20.0554 22.4672C20.7153 22.4292 21.1855 22.0968 21.529 21.8542C21.6489 21.7694 21.7729 21.6818 21.8458 21.6514C21.9847 21.5935 22.3189 21.6546 22.7249 21.9251C23.1211 22.1894 23.3928 22.4968 23.4899 22.7907C23.56 23.0034 23.514 23.2457 23.4214 23.3239L21.2713 25.1603C20.7187 25.6323 19.6901 26.5109 19.6582 27.837C19.6491 28.2186 19.7229 28.5621 19.7879 28.8651C19.8006 28.924 19.8158 28.9951 19.8292 29.0638C19.6277 29.1132 19.3815 29.1764 19.1243 29.3062C17.8188 29.9654 17.7014 31.4687 17.6313 32.3669C17.6108 32.6294 17.5584 32.8331 17.5058 32.972C17.4767 32.9172 17.4496 32.8522 17.431 32.7798C17.3806 32.5829 17.3549 32.3447 17.3277 32.0924C17.2834 31.6809 17.233 31.2145 17.0597 30.734C16.8365 30.1155 16.4663 29.6293 16.1395 29.2006C15.855 28.8272 15.6094 28.5047 15.5388 28.2068C15.4859 27.9827 15.5111 27.6659 15.5376 27.3303C15.5781 26.8215 15.624 26.2446 15.4535 25.6245C15.211 24.7422 14.6422 24.1454 14.1405 23.619C13.8566 23.3212 13.5885 23.0399 13.4458 22.7674C13.3032 22.4954 13.3135 22.204 13.344 21.7126C13.3732 21.242 13.4096 20.6563 13.2006 20.044C12.9742 19.3808 12.4604 19.013 12.1161 18.7664C11.212 18.1192 10.3653 17.3822 9.59927 16.5757C9.21747 16.1736 8.84594 15.7404 8.71354 15.2954C8.67318 15.1597 8.6452 15.0573 8.6234 14.9772C8.54387 14.6862 8.47588 14.5043 8.36106 14.3285C10.2555 10.9736 13.3514 8.3837 17.0608 7.14691ZM21.9998 37.6522C13.3692 37.6522 6.3478 30.6306 6.3478 22.0001C6.3478 20.3372 6.60944 18.7343 7.09206 17.2296C7.34266 17.5882 7.62559 17.907 7.897 18.1926C8.76515 19.1066 9.72484 19.942 10.7537 20.6786C10.83 20.7332 10.9386 20.811 10.9952 20.8619C11.0339 21.0348 11.0184 21.2838 11.0009 21.5674C10.9636 22.1683 10.9125 22.9913 11.3664 23.8574C11.662 24.4216 12.076 24.8558 12.4412 25.239C12.7968 25.6122 13.1039 25.9343 13.1898 26.2469C13.2509 26.4696 13.2249 26.7974 13.1973 27.1444C13.1593 27.6224 13.1162 28.1643 13.2541 28.7473C13.4395 29.5308 13.8818 30.1113 14.272 30.6235C14.518 30.9464 14.7504 31.2515 14.8513 31.5308C14.929 31.7463 14.9604 32.0368 14.9935 32.3444C15.0268 32.6527 15.0645 33.0021 15.1566 33.362C15.4327 34.4403 16.3277 35.475 17.5354 35.475C17.5997 35.475 17.6652 35.472 17.7313 35.466C18.9818 35.3517 19.8406 34.2343 19.9722 32.5496C19.9935 32.2769 20.0496 31.5581 20.1887 31.3996C20.2317 31.3824 20.3365 31.3568 20.4143 31.3378C20.7451 31.2568 21.245 31.1343 21.658 30.7113C22.4187 29.9322 22.209 28.9555 22.0836 28.372C22.0459 28.1963 22.0031 27.997 22.0056 27.8932C22.0122 27.6151 22.5818 27.1286 22.7963 26.9454L24.9419 25.1127C25.7773 24.4062 26.0898 23.1774 25.7195 22.055C25.4552 21.2537 24.87 20.5332 24.0272 19.9713C22.9873 19.2782 21.8631 19.1005 20.9432 19.4838C20.6304 19.6141 20.3775 19.7928 20.1742 19.9365C20.1127 19.98 20.0316 20.0373 19.9656 20.0791C19.9353 20.0454 19.9004 19.9987 19.868 19.9392C19.7906 19.7973 19.7212 19.6131 19.6476 19.4181C19.5507 19.1614 19.4408 18.8705 19.2783 18.5776C18.4088 17.0107 16.9883 16.8369 15.9512 16.71C15.774 16.6884 15.6065 16.6679 15.4395 16.642C14.5664 16.507 13.6782 16.1236 12.9964 15.5961C13.2463 15.5063 13.5517 15.437 13.7161 15.4434C13.8351 15.4474 13.9745 15.4633 14.1223 15.4801C14.5458 15.5284 15.0727 15.5883 15.6405 15.4292C16.2138 15.2685 16.6364 14.9384 16.976 14.6732C17.0729 14.5975 17.1643 14.526 17.2487 14.4668C17.4076 14.3553 17.7168 14.3295 18.0441 14.3021C18.8592 14.2341 20.5554 14.0925 20.7955 11.734C20.9143 10.5671 20.4881 9.52241 20.1456 8.68295C19.8607 7.98461 19.5843 7.29147 19.3432 6.57421C20.207 6.42613 21.0944 6.34787 21.9999 6.34787C23.9429 6.34787 25.8039 6.70485 27.5221 7.35475C27.4707 7.40538 27.4191 7.45593 27.3677 7.50634C26.8459 8.01808 26.3063 8.54732 25.935 9.02805C25.778 9.23132 25.5153 9.57142 25.4378 10.0612C25.3065 10.8922 25.8034 11.5305 26.0156 11.8031C26.3309 12.2083 26.8588 12.8865 27.7307 13.104C27.9255 13.1525 28.1135 13.1733 28.294 13.1733C28.951 13.1733 29.5098 12.8982 29.9431 12.6848C30.1925 12.562 30.4505 12.4349 30.6047 12.4225C30.7515 12.4105 31.0107 12.4959 31.2618 12.5782C31.6284 12.6984 32.0439 12.8346 32.5333 12.8523C32.5628 12.8535 32.592 12.854 32.6213 12.854C33.229 12.8539 33.7687 12.6225 34.1964 12.202C35.2358 13.4932 36.0747 14.9519 36.6655 16.531C36.5818 16.5332 36.4966 16.5344 36.4205 16.5353C36.1905 16.5382 35.9296 16.5415 35.6455 16.5633C34.9898 16.6137 34.4762 16.4234 33.8259 16.1823C33.3794 16.0169 32.8733 15.8293 32.28 15.7114C30.6809 15.3936 29.0407 16.2654 28.1013 17.9324C27.8277 18.4178 26.5194 20.9172 27.6327 22.4506C28.05 23.0255 28.6085 23.3603 29.0573 23.6291C29.6594 23.9901 30.282 24.3632 30.9873 24.6478C31.1375 24.7084 31.2862 24.7634 31.43 24.8164C31.8577 24.9743 32.3001 25.1376 32.4584 25.3543C32.547 25.4756 32.6395 25.749 32.5765 26.3615C32.5342 26.7712 32.3702 27.2183 32.1966 27.6917C31.769 28.8579 31.1832 30.4552 32.5558 32.0235C32.8015 32.3041 33.0787 32.5417 33.3797 32.7352C30.5238 35.7607 26.4787 37.6522 21.9998 37.6522ZM34.3225 30.4773C33.9204 30.0178 33.9741 29.6637 34.4008 28.5C34.6064 27.9393 34.8393 27.304 34.9117 26.6022C35.0253 25.4997 34.8429 24.6384 34.3538 23.9692C33.7777 23.1805 32.9267 22.8663 32.2428 22.614C32.1093 22.5647 31.9832 22.5181 31.8655 22.4706C31.3308 22.2549 30.8126 21.9443 30.264 21.6155C29.9826 21.4469 29.6921 21.2728 29.5494 21.0937C29.4662 20.8053 29.7078 19.8635 30.1465 19.085C30.5005 18.4566 31.1557 17.8814 31.822 18.0141C32.2324 18.0957 32.6099 18.2356 33.0098 18.3838C33.7816 18.6699 34.6563 18.9938 35.8254 18.9042C36.0344 18.8881 36.2457 18.8854 36.4499 18.8829C36.7401 18.8793 37.0359 18.8755 37.3298 18.8328C37.541 19.856 37.652 20.9153 37.652 22.0001C37.6521 25.2948 36.628 28.3541 34.8827 30.8787C34.6729 30.7946 34.4833 30.661 34.3225 30.4773Z" fill="#24BBEB" stroke="#24BBEB" stroke-width="2" mask="url(#path-1-inside-1_99_3830)"/>
</g>
</g>
</svg>
