<svg width="71" height="38" viewBox="0 0 71 38" fill="none" xmlns="http://www.w3.org/2000/svg">
<g id="4.8">
<path id="Vector" d="M69.6754 21.3454C70.4835 22.9616 70.8876 24.7711 70.8876 26.7739C70.8876 28.8821 70.4484 30.6916 69.57 32.2025C68.6564 33.9944 67.251 35.4175 65.3536 36.4716C63.4914 37.4905 61.2602 38 58.6601 38C56.2006 38 53.987 37.5081 52.0194 36.5243C50.0517 35.5053 48.576 34.0472 47.5922 32.1498C46.7489 30.4984 46.3273 28.6889 46.3273 26.7212C46.3273 24.7887 46.7313 22.9792 47.5395 21.2926C48.1368 20.0629 49.0152 19.0615 50.1747 18.2885C50.3153 18.1831 50.3153 18.0601 50.1747 17.9196C49.3314 17.2871 48.6111 16.4438 48.0138 15.3897C47.2057 13.9843 46.8016 12.4031 46.8016 10.6463C46.8016 8.15164 47.5043 6.04346 48.9098 4.32178C49.9288 2.95146 51.2815 1.89737 52.9681 1.1595C54.6897 0.3865 56.5871 0 58.6601 0C60.8035 0 62.7008 0.3865 64.3522 1.1595C66.0036 1.9325 67.3388 2.98659 68.3578 4.32178C69.7632 6.14887 70.466 8.25705 70.466 10.6463C70.466 12.4734 70.0092 14.1073 69.0957 15.5479C68.4983 16.4614 67.778 17.2344 66.9348 17.8669C66.7942 18.0074 66.7942 18.1304 66.9348 18.2358C68.0943 18.9736 69.0078 20.0102 69.6754 21.3454ZM54.7073 8.69626C54.3559 9.39898 54.1803 10.1368 54.1803 10.9098C54.1803 11.9288 54.4086 12.8423 54.8654 13.6505C55.6736 14.9154 56.9209 15.5479 58.6074 15.5479C60.294 15.5479 61.5765 14.9154 62.4549 13.6505C62.9116 12.8775 63.14 11.9464 63.14 10.8571C63.14 10.0841 62.9643 9.34628 62.613 8.64355C62.2616 7.94082 61.7346 7.39621 61.0318 7.00971C60.3291 6.58807 59.5034 6.37726 58.5547 6.37726C57.7115 6.37726 56.9385 6.58807 56.2357 7.00971C55.5681 7.39621 55.0587 7.95839 54.7073 8.69626ZM62.4022 29.7781C63.0698 28.8294 63.4036 27.5996 63.4036 26.0888C63.4036 24.7887 63.1576 23.6995 62.6657 22.8211C61.8927 21.3454 60.5399 20.6075 58.6074 20.6075C56.7803 20.6075 55.4803 21.3278 54.7073 22.7684C54.1803 23.6468 53.9167 24.7887 53.9167 26.1942C53.9167 27.5645 54.2154 28.7064 54.8127 29.62C55.6208 30.9552 56.9033 31.6227 58.6601 31.6227C60.3467 31.6227 61.594 31.0079 62.4022 29.7781Z" fill="#24BBEB"/>
<path id="Vector_2" d="M37.0233 37.7892C35.8287 37.7892 34.8273 37.4027 34.0192 36.6297C33.2462 35.8216 32.8596 34.8202 32.8596 33.6255C32.8596 32.3958 33.2462 31.3944 34.0192 30.6214C34.7922 29.8484 35.7935 29.4619 37.0233 29.4619C38.2531 29.4619 39.2545 29.8484 40.0275 30.6214C40.8005 31.3944 41.187 32.3958 41.187 33.6255C41.187 34.8202 40.7829 35.8216 39.9748 36.6297C39.2018 37.4027 38.2179 37.7892 37.0233 37.7892Z" fill="#24BBEB"/>
<path id="Vector_3" d="M27.0374 21.5035C27.2131 21.5035 27.3537 21.5738 27.4591 21.7143C27.5996 21.8197 27.6699 21.9603 27.6699 22.1359V27.4591C27.6699 27.6348 27.5996 27.7929 27.4591 27.9334C27.3537 28.0389 27.2131 28.0916 27.0374 28.0916H24.7711C24.5955 28.0916 24.5076 28.1794 24.5076 28.3551V36.9459C24.5076 37.1216 24.4374 37.2797 24.2968 37.4203C24.1914 37.5257 24.0509 37.5784 23.8752 37.5784H17.7087C17.5331 37.5784 17.3749 37.5257 17.2344 37.4203C17.129 37.2797 17.0763 37.1216 17.0763 36.9459V28.3551C17.0763 28.1794 16.9884 28.0916 16.8128 28.0916H0.632455C0.456773 28.0916 0.298659 28.0389 0.158114 27.9334C0.0527046 27.7929 0 27.6348 0 27.4591V23.2427C0 23.0319 0.0527046 22.7684 0.158114 22.4522L9.64494 1.15952C9.78548 0.843294 10.0314 0.685181 10.3828 0.685181H16.9709C17.2168 0.685181 17.3749 0.755454 17.4452 0.896C17.5506 1.00141 17.5506 1.17709 17.4452 1.42304L8.64355 21.1873C8.60841 21.2575 8.60841 21.3278 8.64355 21.3981C8.67869 21.4683 8.73139 21.5035 8.80166 21.5035H16.8128C16.9884 21.5035 17.0763 21.4156 17.0763 21.24V14.7046C17.0763 14.5289 17.129 14.3884 17.2344 14.283C17.3749 14.1424 17.5331 14.0721 17.7087 14.0721H23.8752C24.0509 14.0721 24.1914 14.1424 24.2968 14.283C24.4374 14.3884 24.5076 14.5289 24.5076 14.7046V21.24C24.5076 21.4156 24.5955 21.5035 24.7711 21.5035H27.0374Z" fill="#24BBEB"/>
</g>
</svg>
