<svg width="12" height="12" viewBox="0 0 12 12" fill="none" xmlns="http://www.w3.org/2000/svg">
<g id="12px" clip-path="url(#clip0_234_3217)">
<path id="Vector" d="M9.88793 6.02738C9.88859 5.91413 9.86688 5.80186 9.82405 5.69701C9.78123 5.59216 9.71813 5.4968 9.63837 5.41639L4.47506 0.253081C4.31302 0.0910361 4.09324 4.7787e-08 3.86407 3.77698e-08C3.63491 2.77526e-08 3.41513 0.091036 3.25308 0.253081C3.09104 0.415126 3 0.634906 3 0.864073C3 1.09324 3.09104 1.31302 3.25308 1.47506L7.814 6.02738L3.26169 10.5797C3.12071 10.7443 3.04704 10.9561 3.0554 11.1727C3.06377 11.3892 3.15355 11.5947 3.30681 11.748C3.46007 11.9012 3.66552 11.991 3.8821 11.9994C4.09868 12.0077 4.31044 11.9341 4.47506 11.7931L9.63837 6.62977C9.79735 6.46948 9.88698 6.25314 9.88793 6.02738Z" fill="#24BBEB"/>
</g>
<defs>
<clipPath id="clip0_234_3217">
<rect width="12" height="12" fill="white"/>
</clipPath>
</defs>
</svg>
