<svg width="40" height="40" viewBox="0 0 40 40" fill="none" xmlns="http://www.w3.org/2000/svg">
<g id="logo">
<rect id="Rectangle 127" x="0.5" y="0.5" width="39" height="39" rx="7.5" fill="white" stroke="#EEEEEE"/>
<g id="Group">
<g id="Clip path group">
<mask id="mask0_100_4151" style="mask-type:luminance" maskUnits="userSpaceOnUse" x="11" y="10" width="18" height="20">
<g id="clip1_816_881">
<path id="Vector" d="M28.8082 10H11V30H28.8082V10Z" fill="white"/>
</g>
</mask>
<g mask="url(#mask0_100_4151)">
<g id="Group_2">
<path id="Vector_2" d="M26.5974 13.8511C26.5834 13.7501 26.4943 13.6941 26.4204 13.688C26.3472 13.6819 24.9106 13.6603 24.9106 13.6603C24.9106 13.6603 23.7091 12.5039 23.5904 12.3863C23.4718 12.2686 23.24 12.3042 23.1498 12.3308C23.1487 12.3313 22.9242 12.4001 22.5463 12.5161C22.483 12.313 22.3901 12.0633 22.2574 11.8125C21.8297 11.0035 21.2033 10.5758 20.4463 10.5746H20.4435C20.3909 10.5746 20.3388 10.5796 20.2862 10.584C20.2638 10.5574 20.2414 10.5314 20.2179 10.5058C19.8881 10.1563 19.4655 9.98593 18.9588 10.0009C17.9813 10.0286 17.0077 10.7283 16.2184 11.9712C15.663 12.8457 15.2403 13.9444 15.1205 14.795C13.998 15.1395 13.213 15.3803 13.1958 15.3859C12.6291 15.5623 12.6113 15.5795 12.5374 16.1089C12.4825 16.5089 11 27.8704 11 27.8704L23.4236 30L28.8082 28.6733C28.8082 28.6733 26.6114 13.9521 26.5974 13.8511ZM21.9243 12.707C21.6382 12.7947 21.313 12.8945 20.9602 13.0027C20.953 12.5122 20.8942 11.8297 20.6636 11.2399C21.4053 11.3792 21.7703 12.2109 21.9243 12.707ZM20.3103 13.2025C19.6592 13.4022 18.9487 13.6203 18.236 13.8389C18.4364 13.0782 18.8166 12.3208 19.2835 11.8242C19.457 11.6394 19.7 11.4335 19.9878 11.3159C20.2582 11.8752 20.317 12.667 20.3103 13.2025ZM18.9784 10.6457C19.2079 10.6406 19.4011 10.6906 19.5662 10.7982C19.302 10.9342 19.0467 11.1295 18.8071 11.3842C18.1862 12.0445 17.7103 13.0693 17.5205 14.0581C16.9288 14.2395 16.3499 14.4176 15.8169 14.5808C16.1534 13.0244 17.4696 10.6889 18.9784 10.6457Z" fill="#95BF47"/>
<path id="Vector_3" d="M26.4202 13.6891C26.3469 13.683 24.9103 13.6614 24.9103 13.6614C24.9103 13.6614 23.7089 12.505 23.5902 12.3874C23.546 12.3436 23.4861 12.3208 23.4233 12.3114L23.4239 30L28.808 28.6739C28.808 28.6739 26.6111 13.9532 26.5971 13.8522C26.5831 13.7512 26.4935 13.6952 26.4202 13.6891Z" fill="#5E8E3E"/>
<path id="Vector_4" d="M20.4398 16.4324L19.8145 18.7512C19.8145 18.7512 19.1169 18.4366 18.29 18.4882C17.0774 18.5642 17.0645 19.3221 17.0768 19.5125C17.1429 20.5495 19.8957 20.7759 20.0501 23.2051C20.1717 25.1161 19.0273 26.4233 17.3786 26.5265C15.3995 26.6502 14.3101 25.4933 14.3101 25.4933L14.7294 23.7256C14.7294 23.7256 15.8261 24.5456 16.7039 24.4907C17.2772 24.4547 17.4821 23.9924 17.4614 23.6656C17.3752 22.3129 15.1336 22.3927 14.9919 20.17C14.8727 18.2995 16.1122 16.4041 18.847 16.2332C19.9007 16.166 20.4398 16.4324 20.4398 16.4324Z" fill="white"/>
</g>
</g>
</g>
</g>
</g>
</svg>
