<svg width="17" height="16" viewBox="0 0 17 16" fill="none" xmlns="http://www.w3.org/2000/svg">
<g id="16px" clip-path="url(#clip0_98_3807)">
<path id="i" d="M15.9125 5.80193L11.1923 5.116L9.08386 0.841782C9.02256 0.737698 8.93515 0.651418 8.83029 0.591475C8.72542 0.531531 8.60672 0.5 8.48592 0.5C8.36513 0.5 8.24643 0.531531 8.14156 0.591475C8.03669 0.651418 7.94928 0.737698 7.88799 0.841782L5.77554 5.116L1.05537 5.80193C0.932281 5.81969 0.816613 5.87154 0.721447 5.95161C0.626281 6.03168 0.555413 6.13678 0.516855 6.25502C0.478296 6.37326 0.473585 6.49993 0.503255 6.62071C0.532925 6.74149 0.595791 6.85155 0.684747 6.93847L4.10105 10.2675L3.29514 14.969C3.27413 15.0915 3.28784 15.2176 3.33472 15.3328C3.3816 15.448 3.45977 15.5478 3.5604 15.6209C3.66102 15.694 3.7801 15.7374 3.90415 15.7464C4.0282 15.7554 4.15228 15.7294 4.26237 15.6715L8.48392 13.4524L12.7055 15.6715C12.8156 15.7294 12.9396 15.7554 13.0637 15.7464C13.1877 15.7374 13.3068 15.694 13.4074 15.6209C13.5081 15.5478 13.5862 15.448 13.6331 15.3328C13.68 15.2176 13.6937 15.0915 13.6727 14.969L12.8668 10.2675L16.2831 6.93847C16.372 6.85164 16.4349 6.74168 16.4646 6.621C16.4944 6.50032 16.4898 6.37373 16.4514 6.25552C16.413 6.13731 16.3423 6.0322 16.2473 5.95205C16.1523 5.8719 16.0368 5.8199 15.9138 5.80193H15.9125Z" fill="#F19D39"/>
</g>
<defs>
<clipPath id="clip0_98_3807">
<rect width="16" height="16" fill="white" transform="translate(0.484009)"/>
</clipPath>
</defs>
</svg>
