<svg width="16" height="16" viewBox="0 0 16 16" fill="none" xmlns="http://www.w3.org/2000/svg">
<g id="16px" clip-path="url(#clip0_99_3851)">
<path id="i" d="M15.4285 5.80193L10.7083 5.116L8.59985 0.841782C8.53855 0.737698 8.45115 0.651418 8.34628 0.591475C8.24141 0.531531 8.12271 0.5 8.00191 0.5C7.88112 0.5 7.76242 0.531531 7.65755 0.591475C7.55268 0.651418 7.46528 0.737698 7.40398 0.841782L5.29153 5.116L0.571365 5.80193C0.448272 5.81969 0.332604 5.87154 0.237438 5.95161C0.142272 6.03168 0.0714041 6.13678 0.0328457 6.25502C-0.00571262 6.37326 -0.0104233 6.49993 0.0192462 6.62071C0.0489157 6.74149 0.111782 6.85155 0.200738 6.93847L3.61704 10.2675L2.81113 14.969C2.79012 15.0915 2.80384 15.2176 2.85071 15.3328C2.89759 15.448 2.97576 15.5478 3.07639 15.6209C3.17702 15.694 3.29609 15.7374 3.42014 15.7464C3.54419 15.7554 3.66827 15.7294 3.77836 15.6715L7.99991 13.4524L12.2215 15.6715C12.3316 15.7294 12.4556 15.7554 12.5797 15.7464C12.7037 15.7374 12.8228 15.694 12.9234 15.6209C13.0241 15.5478 13.1022 15.448 13.1491 15.3328C13.196 15.2176 13.2097 15.0915 13.1887 14.969L12.3828 10.2675L15.7991 6.93847C15.888 6.85164 15.9509 6.74168 15.9806 6.621C16.0104 6.50032 16.0058 6.37373 15.9674 6.25552C15.929 6.13731 15.8583 6.0322 15.7633 5.95205C15.6683 5.8719 15.5528 5.8199 15.4298 5.80193H15.4285Z" fill="#F19D39"/>
</g>
<defs>
<clipPath id="clip0_99_3851">
<rect width="16" height="16" fill="white"/>
</clipPath>
</defs>
</svg>
