<svg width="20" height="20" viewBox="0 0 20 20" fill="none" xmlns="http://www.w3.org/2000/svg">
<g id="24px-set-1">
<path id="Vector" d="M18.9428 4.32105L18.1789 3.5572C17.9154 3.29367 17.4991 3.25853 17.1951 3.47546L6.92966 10.8077L2.785 8.04483C2.48175 7.84241 2.0792 7.88289 1.82101 8.14031L1.05716 8.90416C0.772245 9.18832 0.757732 9.64434 1.02279 9.94759L6.36976 16.0584C6.50572 16.2142 6.69974 16.3074 6.90598 16.3181C6.91897 16.3181 6.93195 16.3189 6.94417 16.3189C7.13743 16.3189 7.32381 16.2456 7.46512 16.1134L18.9237 5.41947C19.0749 5.27816 19.1628 5.08185 19.1666 4.87408C19.1696 4.66707 19.0894 4.46771 18.9428 4.32105Z" fill="#24BBEB"/>
</g>
</svg>
