<svg width="22" height="22" viewBox="0 0 22 22" fill="none" xmlns="http://www.w3.org/2000/svg">
<g id="i">
<path id="Vector" d="M19 6C18.8011 6 18.6103 5.92098 18.4697 5.78033C18.329 5.63968 18.25 5.44891 18.25 5.25C18.25 4.85218 18.092 4.47064 17.8107 4.18934C17.5294 3.90804 17.1478 3.75 16.75 3.75C16.5511 3.75 16.3603 3.67098 16.2197 3.53033C16.079 3.38968 16 3.19891 16 3C16 2.80109 16.079 2.61032 16.2197 2.46967C16.3603 2.32902 16.5511 2.25 16.75 2.25C17.1478 2.25 17.5294 2.09196 17.8107 1.81066C18.092 1.52936 18.25 1.14782 18.25 0.75C18.25 0.551088 18.329 0.360322 18.4697 0.21967C18.6103 0.0790177 18.8011 0 19 0C19.1989 0 19.3897 0.0790177 19.5303 0.21967C19.671 0.360322 19.75 0.551088 19.75 0.75C19.75 1.14782 19.908 1.52936 20.1893 1.81066C20.4706 2.09196 20.8522 2.25 21.25 2.25C21.4489 2.25 21.6397 2.32902 21.7803 2.46967C21.921 2.61032 22 2.80109 22 3C22 3.19891 21.921 3.38968 21.7803 3.53033C21.6397 3.67098 21.4489 3.75 21.25 3.75C20.8522 3.75 20.4706 3.90804 20.1893 4.18934C19.908 4.47064 19.75 4.85218 19.75 5.25C19.75 5.44891 19.671 5.63968 19.5303 5.78033C19.3897 5.92098 19.1989 6 19 6Z" fill="white"/>
<path id="Vector_2" d="M3 22C2.80109 22 2.61032 21.921 2.46967 21.7803C2.32902 21.6397 2.25 21.4489 2.25 21.25C2.25 20.8522 2.09196 20.4706 1.81066 20.1893C1.52936 19.908 1.14782 19.75 0.75 19.75C0.551088 19.75 0.360322 19.671 0.21967 19.5303C0.0790177 19.3897 0 19.1989 0 19C0 18.8011 0.0790177 18.6103 0.21967 18.4697C0.360322 18.329 0.551088 18.25 0.75 18.25C1.14782 18.25 1.52936 18.092 1.81066 17.8107C2.09196 17.5294 2.25 17.1478 2.25 16.75C2.25 16.5511 2.32902 16.3603 2.46967 16.2197C2.61032 16.079 2.80109 16 3 16C3.19891 16 3.38968 16.079 3.53033 16.2197C3.67098 16.3603 3.75 16.5511 3.75 16.75C3.75 17.1478 3.90804 17.5294 4.18934 17.8107C4.47064 18.092 4.85218 18.25 5.25 18.25C5.44891 18.25 5.63968 18.329 5.78033 18.4697C5.92098 18.6103 6 18.8011 6 19C6 19.1989 5.92098 19.3897 5.78033 19.5303C5.63968 19.671 5.44891 19.75 5.25 19.75C4.85218 19.75 4.47064 19.908 4.18934 20.1893C3.90804 20.4706 3.75 20.8522 3.75 21.25C3.75 21.4489 3.67098 21.6397 3.53033 21.7803C3.38968 21.921 3.19891 22 3 22Z" fill="white"/>
<path id="Vector_3" d="M16 22C15.7348 22 15.4804 21.8946 15.2929 21.7071C15.1054 21.5196 15 21.2652 15 21C15 19.9391 14.5786 18.9217 13.8284 18.1716C13.0783 17.4214 12.0609 17 11 17C10.7348 17 10.4804 16.8946 10.2929 16.7071C10.1054 16.5196 10 16.2652 10 16C10 15.7348 10.1054 15.4804 10.2929 15.2929C10.4804 15.1054 10.7348 15 11 15C12.0609 15 13.0783 14.5786 13.8284 13.8284C14.5786 13.0783 15 12.0609 15 11C15 10.7348 15.1054 10.4804 15.2929 10.2929C15.4804 10.1054 15.7348 10 16 10C16.2652 10 16.5196 10.1054 16.7071 10.2929C16.8946 10.4804 17 10.7348 17 11C17 12.0609 17.4214 13.0783 18.1716 13.8284C18.9217 14.5786 19.9391 15 21 15C21.2652 15 21.5196 15.1054 21.7071 15.2929C21.8946 15.4804 22 15.7348 22 16C22 16.2652 21.8946 16.5196 21.7071 16.7071C21.5196 16.8946 21.2652 17 21 17C19.9391 17 18.9217 17.4214 18.1716 18.1716C17.4214 18.9217 17 19.9391 17 21C17 21.2652 16.8946 21.5196 16.7071 21.7071C16.5196 21.8946 16.2652 22 16 22Z" fill="white"/>
<path id="Vector_4" d="M6 12C5.73478 12 5.48043 11.8946 5.29289 11.7071C5.10536 11.5196 5 11.2652 5 11C5 9.93913 4.57857 8.92172 3.82843 8.17157C3.07828 7.42143 2.06087 7 1 7C0.734784 7 0.48043 6.89464 0.292893 6.70711C0.105357 6.51957 0 6.26522 0 6C0 5.73478 0.105357 5.48043 0.292893 5.29289C0.48043 5.10536 0.734784 5 1 5C2.06087 5 3.07828 4.57857 3.82843 3.82843C4.57857 3.07828 5 2.06087 5 1C5 0.734784 5.10536 0.48043 5.29289 0.292893C5.48043 0.105357 5.73478 0 6 0C6.26522 0 6.51957 0.105357 6.70711 0.292893C6.89464 0.48043 7 0.734784 7 1C7 2.06087 7.42143 3.07828 8.17157 3.82843C8.92172 4.57857 9.93913 5 11 5C11.2652 5 11.5196 5.10536 11.7071 5.29289C11.8946 5.48043 12 5.73478 12 6C12 6.26522 11.8946 6.51957 11.7071 6.70711C11.5196 6.89464 11.2652 7 11 7C9.93913 7 8.92172 7.42143 8.17157 8.17157C7.42143 8.92172 7 9.93913 7 11C7 11.2652 6.89464 11.5196 6.70711 11.7071C6.51957 11.8946 6.26522 12 6 12Z" fill="white"/>
</g>
</svg>
