<svg width="24" height="24" viewBox="0 0 24 24" fill="none" xmlns="http://www.w3.org/2000/svg">
<g id="i">
<path id="Vector" d="M17.7073 9.29301L14.7072 6.29301C14.3162 5.90201 13.6842 5.90201 13.2933 6.29301L0.29325 19.293C-0.09775 19.684 -0.09775 20.316 0.29325 20.707L3.29325 23.707C3.48825 23.902 3.74425 24 4.00025 24C4.25625 24 4.51225 23.902 4.70725 23.707L17.7073 10.707C18.0983 10.316 18.0983 9.68401 17.7073 9.29301ZM13.0002 12.586L11.4142 11L14.0002 8.41401L15.5863 10L13.0002 12.586Z" fill="white"/>
<path id="Vector_2" d="M23.0002 2.5C22.1732 2.5 21.5002 1.827 21.5002 1C21.5002 0.448 21.0522 0 20.5002 0C19.9482 0 19.5002 0.448 19.5002 1C19.5002 1.827 18.8272 2.5 18.0002 2.5C17.4482 2.5 17.0002 2.948 17.0002 3.5C17.0002 4.052 17.4482 4.5 18.0002 4.5C18.8272 4.5 19.5002 5.173 19.5002 6C19.5002 6.552 19.9482 7 20.5002 7C21.0522 7 21.5002 6.552 21.5002 6C21.5002 5.173 22.1732 4.5 23.0002 4.5C23.5522 4.5 24.0002 4.052 24.0002 3.5C24.0002 2.948 23.5522 2.5 23.0002 2.5Z" fill="white"/>
<path id="Vector_3" d="M10.0002 2.5C9.17324 2.5 8.50024 1.827 8.50024 1C8.50024 0.448 8.05224 0 7.50024 0C6.94824 0 6.50024 0.448 6.50024 1C6.50024 1.827 5.82724 2.5 5.00024 2.5C4.44824 2.5 4.00024 2.948 4.00024 3.5C4.00024 4.052 4.44824 4.5 5.00024 4.5C5.82724 4.5 6.50024 5.173 6.50024 6C6.50024 6.552 6.94824 7 7.50024 7C8.05224 7 8.50024 6.552 8.50024 6C8.50024 5.173 9.17324 4.5 10.0002 4.5C10.5522 4.5 11.0002 4.052 11.0002 3.5C11.0002 2.948 10.5522 2.5 10.0002 2.5Z" fill="white"/>
<path id="Vector_4" d="M18.0002 17.5C18.8272 17.5 19.5002 18.173 19.5002 19C19.5002 19.552 19.9482 20 20.5002 20C21.0522 20 21.5002 19.552 21.5002 19C21.5002 18.173 22.1732 17.5 23.0002 17.5C23.5522 17.5 24.0002 17.052 24.0002 16.5C24.0002 15.948 23.5522 15.5 23.0002 15.5C22.1732 15.5 21.5002 14.827 21.5002 14C21.5002 13.448 21.0522 13 20.5002 13C19.9482 13 19.5002 13.448 19.5002 14C19.5002 14.827 18.8272 15.5 18.0002 15.5C17.4482 15.5 17.0002 15.948 17.0002 16.5C17.0002 17.052 17.4482 17.5 18.0002 17.5Z" fill="white"/>
</g>
</svg>
