<svg width="24" height="24" viewBox="0 0 24 24" fill="none" xmlns="http://www.w3.org/2000/svg">
<g id="24px-set-1" clip-path="url(#clip0_269_4132)">
<path id="i" fill-rule="evenodd" clip-rule="evenodd" d="M19.6294 13.249L23.3714 14.749C23.5569 14.8231 23.716 14.9512 23.8281 15.1166C23.9402 15.282 24.0002 15.4772 24.0004 15.677V20C24.0004 20.2652 23.895 20.5196 23.7075 20.7071C23.5199 20.8946 23.2656 21 23.0004 21H15.8164C15.9348 20.6797 15.997 20.3414 16.0004 20V17.677C16.0021 17.0769 15.8231 16.4903 15.4867 15.9933C15.1503 15.4964 14.6721 15.1123 14.1144 14.891L12.1934 14.123L14.3714 13.251C14.5569 13.1769 14.716 13.0488 14.8281 12.8834C14.9402 12.718 15.0002 12.5228 15.0004 12.323V11.445C14.3939 11.0969 13.8897 10.5953 13.5386 9.99056C13.1875 9.38581 13.0019 8.69927 13.0004 8V6.172C12.9776 5.08833 13.3862 4.04 14.1363 3.2576C14.8865 2.4752 15.9167 2.02283 17.0004 2C18.084 2.02283 19.1142 2.4752 19.8644 3.2576C20.6145 4.04 21.0231 5.08833 21.0004 6.172V8C20.9988 8.69927 20.8132 9.38581 20.4621 9.99056C20.111 10.5953 19.6069 11.0969 19.0004 11.445V12.323C19.0009 12.5225 19.0611 12.7172 19.1731 12.8823C19.2852 13.0473 19.4441 13.175 19.6294 13.249ZM9.629 15.249L13.371 16.749C13.5566 16.8231 13.7157 16.9512 13.8278 17.1166C13.9399 17.282 13.9999 17.4772 14 17.677V20C14 20.2652 13.8946 20.5196 13.7071 20.7071C13.5196 20.8946 13.2652 21 13 21H1C0.734784 21 0.48043 20.8946 0.292893 20.7071C0.105357 20.5196 0 20.2652 0 20V17.677C0.000525486 17.4775 0.0606998 17.2828 0.172788 17.1177C0.284876 16.9527 0.443754 16.825 0.629 16.751L4.371 15.251C4.55656 15.1769 4.71566 15.0488 4.82777 14.8834C4.93989 14.718 4.99987 14.5228 5 14.323V13.445C4.3935 13.0969 3.88935 12.5953 3.53826 11.9906C3.18717 11.3858 3.00153 10.6993 3 10V8.172C2.97722 7.08833 3.38584 6.04 4.13598 5.2576C4.88612 4.4752 5.91633 4.02283 7 4C8.08367 4.02283 9.11388 4.4752 9.86402 5.2576C10.6142 6.04 11.0228 7.08833 11 8.172V10C10.9985 10.6993 10.8128 11.3858 10.4617 11.9906C10.1107 12.5953 9.6065 13.0969 9 13.445V14.323C9.00053 14.5225 9.0607 14.7172 9.17279 14.8823C9.28488 15.0473 9.44375 15.175 9.629 15.249Z" fill="white"/>
</g>
<defs>
<clipPath id="clip0_269_4132">
<rect width="24" height="24" fill="white"/>
</clipPath>
</defs>
</svg>
