<svg width="24" height="24" viewBox="0 0 24 24" fill="none" xmlns="http://www.w3.org/2000/svg">
<g id="24px-set-2">
<path id="Vector" d="M22.8615 2.493C22.7732 2.34287 22.6472 2.21841 22.496 2.13194C22.3448 2.04547 22.1737 1.99999 21.9995 2H1.99949C1.82545 2.00009 1.65446 2.0456 1.5034 2.13202C1.35235 2.21844 1.22646 2.34279 1.13819 2.49278C1.04991 2.64276 1.00231 2.81318 1.00008 2.9872C0.997855 3.16122 1.04108 3.33281 1.12549 3.485L11.1255 21.485C11.2121 21.6408 11.3388 21.7706 11.4925 21.861C11.6462 21.9514 11.8212 21.9991 11.9995 21.9991C12.1778 21.9991 12.3528 21.9514 12.5065 21.861C12.6601 21.7706 12.7869 21.6408 12.8735 21.485L22.8735 3.485C22.958 3.33289 23.0013 3.16138 22.9992 2.98741C22.9971 2.81343 22.9496 2.64302 22.8615 2.493ZM11.9995 12C11.4061 12 10.8261 11.8241 10.3328 11.4944C9.83943 11.1648 9.45491 10.6962 9.22785 10.1481C9.00078 9.59987 8.94137 8.99667 9.05713 8.41473C9.17289 7.83279 9.45861 7.29824 9.87817 6.87868C10.2977 6.45912 10.8323 6.1734 11.4142 6.05764C11.9962 5.94189 12.5994 6.0013 13.1475 6.22836C13.6957 6.45542 14.1643 6.83994 14.4939 7.33329C14.8235 7.82664 14.9995 8.40666 14.9995 9C14.9995 9.79565 14.6834 10.5587 14.1208 11.1213C13.5582 11.6839 12.7951 12 11.9995 12Z" fill="white"/>
</g>
</svg>
