<svg width="24" height="24" viewBox="0 0 24 24" fill="none" xmlns="http://www.w3.org/2000/svg">
<g id="24px-set-1">
<path id="i" d="M12.3311 18.2333C9.81333 18.2333 8.82333 17.1089 8.68889 15.6667H6C6.14667 18.3433 8.15111 19.8467 10.4978 20.3478V23H14.1644V20.3722C16.5478 19.92 18.4422 18.5389 18.4422 16.0333C18.4422 12.5622 15.4722 11.3767 12.6978 10.6556C9.92333 9.93444 9.03111 9.18889 9.03111 8.02778C9.03111 6.69556 10.2656 5.76667 12.3311 5.76667C14.5067 5.76667 15.3133 6.80556 15.3867 8.33333H18.0878C18.0022 6.23111 16.7189 4.3 14.1644 3.67667V1H10.4978V3.64C8.12667 4.15333 6.22 5.69333 6.22 8.05222C6.22 10.8756 8.55444 12.2811 11.9644 13.1C15.02 13.8333 15.6311 14.9089 15.6311 16.0456C15.6311 16.8889 15.0322 18.2333 12.3311 18.2333Z" fill="white"/>
</g>
</svg>
