<svg width="24" height="20" viewBox="0 0 24 20" fill="none" xmlns="http://www.w3.org/2000/svg">
<g id="i">
<path id="Vector" d="M23 8H1C0.448 8 0 7.552 0 7V1C0 0.448 0.448 0 1 0H23C23.552 0 24 0.448 24 1V7C24 7.552 23.552 8 23 8Z" fill="white"/>
<path id="Vector_2" d="M23 14H1C0.448 14 0 13.552 0 13C0 12.448 0.448 12 1 12H23C23.552 12 24 12.448 24 13C24 13.552 23.552 14 23 14Z" fill="white"/>
<path id="Vector_3" d="M23 20H1C0.448 20 0 19.552 0 19C0 18.448 0.448 18 1 18H23C23.552 18 24 18.448 24 19C24 19.552 23.552 20 23 20Z" fill="white"/>
</g>
</svg>
