<svg width="228" height="44" viewBox="0 0 228 44" fill="none" xmlns="http://www.w3.org/2000/svg">
<g id="facebook-logo 1" clip-path="url(#clip0_56_442)">
<g id="Group">
<path id="Vector" d="M15.016 43.252H6.46429V21.9324H0.637436V14.9914H6.46429V10.0509C6.46429 4.19886 9.03987 0 17.5696 0C19.3736 0 22.2069 0.363 22.2069 0.363V6.809H19.2322C16.2009 6.809 15.0176 7.72986 15.0176 10.2803V14.9914H22.0937L21.4636 21.9324H15.016V43.252ZM34.64 14.4367C34.5159 14.4367 34.3886 14.4414 34.2613 14.443C26.3303 14.443 22.7019 20.4097 22.7019 28.8766C22.7019 39.5434 27.4083 43.813 34.3242 43.813C38.281 43.813 40.8786 42.1473 42.4579 39.0406V43.2567H50.5932V14.9946H42.4579V19.3396C41.1661 16.544 38.4963 14.4697 34.64 14.4367ZM36.7096 21.1137C40.0394 21.1137 42.0399 23.4379 42.0399 27.39L42.0477 31.4254C42.0477 34.0874 40.3961 37.2051 36.7111 37.2051C31.043 37.2051 31.1954 31.0844 31.1954 29.0494C31.1923 22.1901 34.211 21.1137 36.7096 21.1137ZM53.8774 29.1264C53.8774 25.6897 53.714 14.4556 68.3534 14.4556C74.2306 14.4556 76.6852 16.3224 76.6852 16.3224L74.713 22.44C74.713 22.44 72.2632 21.0901 69.07 21.0901C64.9796 21.0901 62.3694 23.4614 62.3694 27.6336L62.3726 30.624C62.3726 34.6343 64.8916 37.3089 69.0763 37.3089C71.9866 37.3089 74.6674 35.9464 74.6674 35.9464L76.6349 41.9367C76.6349 41.9367 74.3909 43.8193 68.3943 43.8193C54.4541 43.8193 53.8774 33.737 53.8774 29.1264ZM124.383 14.443C132.312 14.443 135.997 20.4097 135.997 28.8766C135.997 39.5434 131.291 43.813 124.38 43.813C120.42 43.813 117.498 42.1504 115.917 39.0406V43.2567L107.883 43.2536V0.858L116.414 0.114714V18.9546C117.643 15.6609 121.689 14.443 124.383 14.443ZM121.993 21.1137C118.661 21.1137 116.414 23.4379 116.414 27.39L116.406 31.4254C116.4 34.0874 117.963 37.2051 121.993 37.2051C127.658 37.2051 127.507 31.0844 127.507 29.0494C127.505 22.1901 124.488 21.1137 121.993 21.1137ZM91.4817 14.4666C82.4869 14.4666 77.738 19.371 77.738 28.0861V29.7047C77.738 41.0174 84.4072 43.9293 92.357 43.9293C100.085 43.9293 103.583 41.7686 103.583 41.7686L101.988 36.0124C101.988 36.0124 97.8727 37.763 93.3784 37.763C88.7223 37.763 86.7187 36.5734 86.2049 32.0996H104.265V27.4827C104.265 18.029 98.935 14.4666 91.4817 14.4666ZM91.6986 20.2321C94.81 20.2321 96.8293 22.1414 96.7177 26.5681H86.2206C86.4029 21.9057 88.5793 20.2321 91.6986 20.2321ZM153.002 14.4273C143.766 14.4273 138.904 19.6334 138.904 28.963C138.904 41.7623 147.285 43.8209 153.019 43.8209C161.409 43.8209 166.997 39.303 166.997 29.0777C166.997 18.436 160.716 14.4273 153.002 14.4273ZM152.888 21.1373C156.949 21.1373 158.558 24.1764 158.558 27.6367V30.6146C158.558 34.8056 156.306 37.2287 152.871 37.2287C149.658 37.2287 147.404 34.9627 147.404 30.6146V27.6367C147.403 22.9979 150.087 21.1373 152.888 21.1373ZM183.984 14.4273C174.749 14.4273 169.882 19.6334 169.882 28.963C169.882 41.7623 178.267 43.8209 184 43.8209C192.393 43.8209 197.974 39.303 197.974 29.0777C197.974 18.436 191.696 14.4273 183.984 14.4273ZM183.866 21.1373C187.933 21.1373 189.537 24.1764 189.537 27.6367V30.6146C189.537 34.8056 187.284 37.2287 183.852 37.2287C180.64 37.2287 178.385 34.9627 178.385 30.6146V27.6367C178.383 22.9979 181.069 21.1373 183.866 21.1373ZM201.199 43.252V0.858L209.752 0.114714V28.5309L218.238 14.9899H227.27L218.419 29.0117L227.611 43.252H218.551L209.751 29.425V43.252H201.199Z" fill="#CED0D3"/>
</g>
</g>
<defs>
<clipPath id="clip0_56_442">
<rect width="227.236" height="44" fill="white" transform="translate(0.375)"/>
</clipPath>
</defs>
</svg>
