<svg width="92" height="44" viewBox="0 0 92 44" fill="none" xmlns="http://www.w3.org/2000/svg">
<g id="etsy 1" clip-path="url(#clip0_56_462)">
<g id="Group">
<g id="Group_2">
<g id="Group_3">
<g id="Group_4">
<path id="Vector" d="M10.0408 15.5929V3.39424C10.0408 2.94362 10.0863 2.67204 10.854 2.67204H21.2001C23.0056 2.67204 24.0009 4.209 24.7246 7.09935L25.3118 9.40707H27.0718C27.3889 2.85562 27.659 0.00927734 27.659 0.00927734C27.659 0.00927734 23.2317 0.505415 20.6114 0.505415H7.37496L0.28186 0.277829V2.17438L2.67607 2.62804C4.34807 2.94362 4.75469 3.30473 4.89124 4.84169C4.89124 4.84169 5.02779 9.35852 5.02779 16.8127C5.02779 24.2669 4.89124 28.7413 4.89124 28.7413C4.89124 30.0962 4.34807 30.5923 2.67607 30.9109L0.28186 31.3616V33.2581L7.37496 33.0336H19.2125C21.8783 33.0336 28.0671 33.2581 28.0671 33.2581C28.2021 31.6316 29.1064 24.2669 29.2414 23.4567H27.5725L25.8094 27.4774C24.409 30.6378 22.3759 30.8639 20.1168 30.8639H13.3832C11.1241 30.8639 10.0408 29.9611 10.0408 28.0176V17.717C10.0408 17.717 14.9642 17.717 16.6802 17.8536C17.9456 17.9446 18.7133 18.3057 19.1214 20.0672L19.6631 22.4159H21.6052L21.4686 16.4971L21.7417 10.5344H19.7997L19.167 13.1547C18.7588 14.8707 18.4888 15.1878 16.7257 15.3683C14.7381 15.5959 10.0392 15.5504 10.0392 15.5504V15.5944L10.0408 15.5929ZM36.8307 4.66114C36.198 7.46197 35.5653 9.63011 33.3517 11.076C31.9968 11.9788 30.6419 12.2944 30.1002 12.3399V14.0574H34.1209V27.925C34.1209 31.8122 36.6957 33.7102 40.1292 33.7102C42.795 33.7102 45.5503 32.5814 46.5001 30.2312L45.5503 29.0113C45.0981 29.7791 43.6537 30.9079 41.8467 30.9079C39.8591 30.9079 38.7743 29.553 38.7743 26.1195V13.8769L45.4608 14.3745L45.8219 11.3021L38.7743 11.5722V4.70514L36.8322 4.65962L36.8307 4.66114ZM51.1079 25.9936L49.3904 26.0391C49.4814 27.0329 49.527 28.2982 49.527 29.4726C49.527 30.6924 49.4814 31.8213 49.3904 32.3644C49.3904 32.3644 52.8239 33.6283 56.303 33.6283C61.0019 33.6283 64.7525 31.3676 64.7525 26.9418C64.7525 19.3526 53.3671 20.4814 53.3671 15.3759C53.3671 13.2518 55.2637 12.44 57.3423 12.44C58.9688 12.44 60.3237 13.0272 60.5952 13.886L61.7256 17.274L63.3976 17.1829C63.5326 15.3774 63.6221 13.2988 63.8937 11.6268C62.4478 10.9941 59.4209 10.633 57.5243 10.633C53.0955 10.633 49.5285 12.5751 49.5285 16.9129C49.5285 24.4566 60.6408 22.9211 60.6408 28.4788C60.6408 30.4664 59.4209 31.8668 56.6656 31.8668C54.1363 31.8668 52.871 30.5574 52.3748 29.2465L51.1079 25.9936ZM78.3379 31.2129C75.7221 38.5199 72.5208 40.4119 69.635 40.4119C68.4166 40.4119 67.8295 39.8702 67.6489 39.016L66.9737 35.496L65.0787 35.5871C64.7176 37.6611 64.3565 39.9628 63.8619 41.8563C64.9892 42.712 66.8812 43.1627 68.3711 43.1627C71.483 43.1627 76.2183 42.756 80.547 32.4752L87.807 15.3395C88.3941 13.9406 88.6187 13.8071 90.3332 13.1289L91.2799 12.7693V11.1913L86.9952 11.4159L82.3965 11.1913V12.7693L83.5678 13.1289C84.7391 13.49 85.2823 13.9406 85.2823 14.7523C85.2823 15.1589 85.1457 15.564 84.9197 16.1952C84.243 17.9097 80.0493 28.101 78.9235 30.2661L80.0493 29.8595C78.0648 24.9436 75.0455 16.7353 74.5933 15.3395C74.5023 15.0694 74.4568 14.8433 74.4568 14.6173C74.4568 13.8966 74.9544 13.3094 76.0362 13.0849L77.5246 12.7693V11.1913L71.3464 11.4159L66.4306 11.1913V12.7693L67.2423 13.0393C68.3696 13.4004 68.6412 13.716 69.3179 15.294C73.0594 23.8633 74.8194 28.5516 77.2075 34.6858L78.3379 31.2129Z" fill="#CED0D3"/>
</g>
</g>
</g>
</g>
</g>
<defs>
<clipPath id="clip0_56_462">
<rect width="91.0345" height="44" fill="white" transform="translate(0.277344)"/>
</clipPath>
</defs>
</svg>
