<svg width="112" height="44" viewBox="0 0 112 44" fill="none" xmlns="http://www.w3.org/2000/svg">
<g id="e-bay-logo 1" clip-path="url(#clip0_56_419)">
<g id="Group">
<path id="Vector" d="M14.8555 9.27148C6.75262 9.27148 0 12.4711 0 22.1332C0 29.7851 4.54025 34.6045 15.0659 34.6045C27.4532 34.6045 28.2466 27.0049 28.2466 27.0049H22.2447C22.2447 27.0049 20.9578 31.0969 14.6987 31.0969C9.60162 31.0969 5.9345 27.8904 5.9345 23.3941H28.875V20.574C28.875 16.1272 25.8431 9.27148 14.8555 9.27148ZM14.6465 12.8767C19.5002 12.8767 22.8071 15.6446 22.8071 19.793H6.06787C6.06787 15.3889 10.384 12.8767 14.6465 12.8767Z" fill="#CED0D3"/>
<path id="Vector_2" d="M27.6306 1.27197V31.027C27.6306 32.7169 27.5 35.0873 27.5 35.0873H33.2626C33.2626 35.0873 33.4689 33.3851 33.4689 31.8286C33.4689 31.8286 36.3179 35.9385 44.0591 35.9385C52.2129 35.9385 57.75 30.7148 57.75 23.2335C57.75 16.2718 52.6625 10.6728 44.0729 10.6728C36.0291 10.6728 33.528 14.681 33.528 14.681V1.27197H27.6306ZM42.5851 14.3537C48.1209 14.3537 51.6422 18.1446 51.6422 23.2321C51.6422 28.6881 47.5764 32.2576 42.625 32.2576C36.7153 32.2576 33.528 28.0006 33.528 23.2816C33.528 18.8843 36.388 14.3537 42.5851 14.3537Z" fill="#CED0D3"/>
<path id="Vector_3" d="M70.4275 10.604C58.8954 10.604 58.1556 16.7874 58.1556 17.7746H63.8963C63.8963 17.7746 64.1974 14.1653 70.0315 14.1653C73.8224 14.1653 76.7607 15.8648 76.7607 19.1318V20.295H70.0315C61.0981 20.295 56.375 22.8525 56.375 28.0473C56.375 33.1568 60.7393 35.9384 66.6353 35.9384C74.6721 35.9384 77.2612 31.5893 77.2612 31.5893C77.2612 33.319 77.3988 35.024 77.3988 35.024H82.5C82.5 35.024 82.302 32.9106 82.302 31.559V19.877C82.302 12.2169 75.9921 10.604 70.4275 10.604ZM76.7607 23.7834V25.333C76.7607 27.3556 75.4861 32.3826 67.9841 32.3826C63.8756 32.3826 62.1142 30.3751 62.1142 28.0473C62.1142 23.8109 68.046 23.7834 76.7607 23.7834Z" fill="#CED0D3"/>
<path id="Vector_4" d="M79.75 10.604H86.3761L95.8856 29.3274L105.373 10.604H111.375L94.094 43.9381H87.7979L92.785 34.6459L79.75 10.604Z" fill="#CED0D3"/>
</g>
</g>
<defs>
<clipPath id="clip0_56_419">
<rect width="111.375" height="44" fill="white"/>
</clipPath>
</defs>
</svg>
