<svg width="145" height="44" viewBox="0 0 145 44" fill="none" xmlns="http://www.w3.org/2000/svg">
<g id="amazon-logo 1" clip-path="url(#clip0_56_468)">
<path id="Vector" fill-rule="evenodd" clip-rule="evenodd" d="M89.8397 34.2405C81.4702 40.4095 69.3392 43.7009 58.8945 43.7009C44.2495 43.7009 31.0651 38.2842 21.0907 29.2752C20.307 28.5668 21.0092 27.6014 21.9496 28.153C32.7139 34.4161 46.0237 38.1839 59.7722 38.1839C69.0444 38.1839 79.2446 36.2655 88.6235 32.2845C90.0403 31.6826 91.2252 33.2124 89.8397 34.2405Z" fill="#CED0D3"/>
<path id="Vector_2" fill-rule="evenodd" clip-rule="evenodd" d="M93.32 30.2601C92.2543 28.8933 86.2483 29.6143 83.5525 29.9341C82.7312 30.0343 82.6058 29.3196 83.3456 28.8055C88.1291 25.4389 95.9782 26.4107 96.8935 27.5392C97.8088 28.6739 96.6553 36.5419 92.1602 40.2972C91.4706 40.8739 90.8123 40.5667 91.1195 39.8019C92.1289 37.2817 94.3921 31.633 93.32 30.2601Z" fill="#CED0D3"/>
<path id="Vector_3" fill-rule="evenodd" clip-rule="evenodd" d="M83.7405 5.03859V1.76602C83.7405 1.27074 84.1167 0.938477 84.568 0.938477H99.2189C99.6893 0.938477 100.066 1.27702 100.066 1.76602V4.5684C100.06 5.03859 99.6648 5.65298 98.9628 6.62471L91.3702 17.4643C94.1914 17.3954 97.1693 17.8153 99.7274 19.2574C100.304 19.5834 100.461 20.0598 100.505 20.53V24.022C100.505 24.4985 99.9777 25.0564 99.4262 24.768C94.9186 22.4046 88.9315 22.1475 83.9473 24.7931C83.4396 25.069 82.9067 24.5172 82.9067 24.0408V20.7243C82.9067 20.1914 82.9129 19.2824 83.4458 18.4737L92.2416 5.85987H84.5869C84.1167 5.85987 83.7405 5.5276 83.7405 5.03859Z" fill="#CED0D3"/>
<path id="Vector_4" fill-rule="evenodd" clip-rule="evenodd" d="M30.2958 25.4578H25.8383C25.412 25.4264 25.0735 25.1067 25.0421 24.6992V1.82257C25.0421 1.36492 25.4245 1.00129 25.901 1.00129H30.0575C30.4901 1.02008 30.835 1.35237 30.8662 1.76615V4.75659H30.9478C32.0323 1.86645 34.0699 0.518555 36.8158 0.518555C39.6057 0.518555 41.3485 1.86645 42.6024 4.75659C43.6807 1.86645 46.132 0.518555 48.7588 0.518555C50.627 0.518555 52.6709 1.28968 53.9184 3.02C55.3291 4.94467 55.0406 7.74077 55.0406 10.192L55.0344 24.6302C55.0344 25.0879 54.652 25.4578 54.1755 25.4578H49.7244C49.2792 25.4264 48.9219 25.0691 48.9219 24.6302V12.5055C48.9219 11.54 49.0096 9.13256 48.7964 8.21724C48.4642 6.68127 47.4673 6.24868 46.1759 6.24868C45.0976 6.24868 43.9692 6.96965 43.5115 8.1232C43.0538 9.27675 43.0977 11.2076 43.0977 12.5055V24.6302C43.0977 25.0879 42.7153 25.4578 42.2388 25.4578H37.7875C37.3362 25.4264 36.9851 25.0691 36.9851 24.6302L36.9788 12.5055C36.9788 9.95384 37.3989 6.19853 34.2329 6.19853C31.0293 6.19853 31.1547 9.85978 31.1547 12.5055V24.6302C31.1547 25.0879 30.7723 25.4578 30.2958 25.4578Z" fill="#CED0D3"/>
<path id="Vector_5" fill-rule="evenodd" clip-rule="evenodd" d="M112.68 0.518555C119.295 0.518555 122.874 6.19853 122.874 13.4207C122.874 20.3985 118.918 25.9343 112.68 25.9343C106.186 25.9343 102.649 20.2542 102.649 13.1762C102.649 6.05433 106.23 0.518555 112.68 0.518555ZM112.718 5.18917C109.433 5.18917 109.226 9.66544 109.226 12.4553C109.226 15.2513 109.182 21.2197 112.68 21.2197C116.135 21.2197 116.298 16.4049 116.298 13.4709C116.298 11.54 116.216 9.23286 115.633 7.40223C115.131 5.80984 114.135 5.18917 112.718 5.18917Z" fill="#CED0D3"/>
<path id="Vector_6" fill-rule="evenodd" clip-rule="evenodd" d="M131.453 25.4578H127.014C126.569 25.4264 126.212 25.0691 126.212 24.6302L126.206 1.74733C126.244 1.32729 126.613 1.00129 127.065 1.00129H131.196C131.585 1.02008 131.904 1.28341 131.992 1.64076V5.13902H132.074C133.322 2.01064 135.07 0.518555 138.149 0.518555C140.149 0.518555 142.098 1.23953 143.352 3.21434C144.518 5.04498 144.518 8.1232 144.518 10.3363V24.7368C144.469 25.138 144.098 25.4578 143.66 25.4578H139.19C138.782 25.4264 138.443 25.1255 138.399 24.7368V12.3111C138.399 9.80962 138.688 6.14837 135.61 6.14837C134.526 6.14837 133.528 6.87561 133.033 7.97901C132.406 9.37706 132.325 10.7688 132.325 12.3111V24.6302C132.319 25.0879 131.93 25.4578 131.453 25.4578Z" fill="#CED0D3"/>
<path id="Vector_7" fill-rule="evenodd" clip-rule="evenodd" d="M72.0643 14.5301C72.0643 16.2667 72.1082 17.7149 71.2305 19.2572C70.5221 20.511 69.3936 21.2822 68.146 21.2822C66.4345 21.2822 65.4314 19.9781 65.4314 18.0534C65.4314 14.2543 68.8356 13.5647 72.0643 13.5647V14.5301ZM76.5593 25.3948C76.2647 25.6581 75.8384 25.6769 75.5061 25.5014C74.0266 24.2726 73.757 23.7021 72.9482 22.5297C70.5032 25.0249 68.7667 25.771 65.6006 25.771C61.8454 25.771 58.9301 23.4575 58.9301 18.8245C58.9301 15.2072 60.8862 12.7433 63.6822 11.5397C66.1022 10.4739 69.4813 10.2858 72.0643 9.99118V9.41437C72.0643 8.35486 72.1458 7.101 71.5188 6.18569C70.9797 5.36441 69.939 5.02587 69.0175 5.02587C67.3185 5.02587 65.8075 5.8973 65.4376 7.70285C65.3624 8.10409 65.0677 8.49905 64.6603 8.51787L60.3408 8.05393C59.9771 7.97243 59.5696 7.67777 59.6762 7.11981C60.6667 1.87869 65.4063 0.298828 69.6443 0.298828C71.8135 0.298828 74.6472 0.875602 76.3587 2.51815C78.5279 4.54313 78.321 7.24519 78.321 10.1855V17.1319C78.321 19.2195 79.1862 20.1348 80.0012 21.2633C80.2833 21.6646 80.346 22.1473 79.9824 22.4482C79.0733 23.2068 77.4559 24.6174 76.5656 25.4073L76.5593 25.3948Z" fill="#CED0D3"/>
<path id="Vector_8" fill-rule="evenodd" clip-rule="evenodd" d="M13.6249 14.5301C13.6249 16.2667 13.6688 17.7149 12.791 19.2572C12.0826 20.511 10.9604 21.2822 9.70657 21.2822C7.99505 21.2822 6.99824 19.9781 6.99824 18.0534C6.99824 14.2543 10.4024 13.5647 13.6249 13.5647V14.5301ZM18.1199 25.3948C17.8253 25.6581 17.399 25.6769 17.0668 25.5014C15.5872 24.2726 15.3239 23.7021 14.5089 22.5297C12.0639 25.0249 10.3335 25.771 7.16124 25.771C3.41221 25.771 0.490723 23.4575 0.490723 18.8245C0.490723 15.2072 2.45301 12.7433 5.24284 11.5397C7.66278 10.4739 11.0419 10.2858 13.6249 9.99118V9.41437C13.6249 8.35486 13.7063 7.101 13.0857 6.18569C12.5403 5.36441 11.4996 5.02587 10.5843 5.02587C8.8853 5.02587 7.36813 5.8973 6.99824 7.70285C6.92301 8.10409 6.62835 8.49905 6.22712 8.51787L1.90132 8.05393C1.53769 7.97243 1.13646 7.67777 1.23677 7.11981C2.23358 1.87869 6.96689 0.298828 11.205 0.298828C13.3741 0.298828 16.2078 0.875602 17.9194 2.51815C20.0885 4.54313 19.8816 7.24519 19.8816 10.1855V17.1319C19.8816 19.2195 20.7468 20.1348 21.5618 21.2633C21.8501 21.6646 21.9129 22.1473 21.5493 22.4482C20.6402 23.2068 19.0227 24.6174 18.1325 25.4073L18.1199 25.3948Z" fill="#CED0D3"/>
</g>
<defs>
<clipPath id="clip0_56_468">
<rect width="144.711" height="44" fill="white" transform="translate(0.0400391)"/>
</clipPath>
</defs>
</svg>
