<svg width="157" height="44" viewBox="0 0 157 44" fill="none" xmlns="http://www.w3.org/2000/svg">
<g clip-path="url(#clip0_56_425)">
<mask id="mask0_56_425" style="mask-type:luminance" maskUnits="userSpaceOnUse" x="0" y="0" width="157" height="44">
<path d="M156.208 0H0.375V44H156.208V0Z" fill="white"/>
</mask>
<g mask="url(#mask0_56_425)">
<path d="M34.1248 8.3336C34.0946 8.11504 33.902 7.9938 33.742 7.9806C33.5834 7.9674 30.4748 7.92058 30.4748 7.92058C30.4748 7.92058 27.8752 5.41832 27.6184 5.16376C27.3616 4.90922 26.86 4.98606 26.665 5.0437C26.665 5.0437 26.1768 5.19378 25.3592 5.44472C25.2222 5.00528 25.021 4.46496 24.734 3.92224C23.8086 2.17162 22.453 1.24589 20.815 1.24349H20.809C20.6952 1.24349 20.5824 1.2543 20.4686 1.2639C20.4202 1.20626 20.3717 1.14984 20.3209 1.0946C19.6073 0.338162 18.6927 -0.0304524 17.5964 0.00196638C15.4813 0.0620012 13.3747 1.57608 11.6666 4.26564C10.4648 6.15794 9.5502 8.53536 9.29098 10.376C6.8621 11.1216 5.1637 11.6427 5.12614 11.6547C3.9002 12.0365 3.86144 12.0737 3.70152 13.2193C3.58282 14.0849 0.375 38.6704 0.375 38.6704L27.2574 43.2788L38.9086 40.4078C38.9086 40.4078 34.1552 8.55216 34.1248 8.3336ZM24.0132 5.85776C23.3942 6.04748 22.6904 6.2636 21.9272 6.49774C21.9114 5.43632 21.7842 3.95946 21.2852 2.68312C22.8902 2.9845 23.68 4.78434 24.0132 5.85776ZM20.5206 6.92998C19.1119 7.36222 17.5746 7.8341 16.0325 8.3072C16.4661 6.66104 17.2887 5.02208 18.299 3.94746C18.6745 3.54762 19.2003 3.10216 19.8229 2.84762C20.408 4.05792 20.5352 5.77132 20.5206 6.92998ZM17.6387 1.39717C18.1354 1.38637 18.5534 1.49444 18.9108 1.72737C18.339 2.02154 17.7866 2.44418 17.2681 2.9953C15.9246 4.42414 14.8949 6.64182 14.4843 8.78146C13.2038 9.17408 11.9512 9.55954 10.7979 9.91256C11.526 6.54456 14.374 1.49083 17.6387 1.39717Z" fill="#CED0D3"/>
<path d="M33.7434 7.98181C33.5848 7.96861 30.4764 7.92179 30.4764 7.92179C30.4764 7.92179 27.8766 5.41953 27.6198 5.16497C27.5242 5.07013 27.3946 5.02089 27.2588 5.00049L27.26 43.2776L38.9102 40.4078C38.9102 40.4078 34.1566 8.55337 34.1264 8.33483C34.096 8.11627 33.9022 7.99501 33.7434 7.98181Z" fill="#CED0D3"/>
<path d="M20.8004 13.9194L19.4472 18.937C19.4472 18.937 17.9378 18.2563 16.1486 18.3679C13.5246 18.5325 13.4967 20.1726 13.5234 20.5844C13.6664 22.8286 19.6228 23.3184 19.9572 28.575C20.2201 32.7102 17.7439 35.539 14.1764 35.7624C9.89402 36.0302 7.53662 33.5268 7.53662 33.5268L8.44398 29.7014C8.44398 29.7014 10.8171 31.476 12.7166 31.357C13.9571 31.279 14.4004 30.2788 14.3556 29.5716C14.1691 26.6444 9.31858 26.8172 9.01214 22.0072C8.75408 17.9597 11.4362 13.8581 17.3539 13.4883C19.6337 13.3431 20.8004 13.9194 20.8004 13.9194Z" fill="white"/>
<path d="M54.2522 24.4263C52.9124 23.7057 52.224 23.0985 52.224 22.2635C52.224 21.2013 53.1804 20.5189 54.6738 20.5189C56.4124 20.5189 57.9648 21.2393 57.9648 21.2393L59.1892 17.5214C59.1892 17.5214 58.0634 16.6484 54.7496 16.6484C50.138 16.6484 46.942 19.266 46.942 22.9459C46.942 25.0323 48.4344 26.6259 50.4252 27.7631C52.0328 28.6729 52.6072 29.3185 52.6072 30.2665C52.6072 31.2525 51.8034 32.0493 50.3112 32.0493C48.087 32.0493 45.9868 30.9107 45.9868 30.9107L44.6856 34.6287C44.6856 34.6287 46.626 35.9185 49.8906 35.9185C54.6366 35.9185 58.043 33.6045 58.043 29.4317C58.0418 27.1951 56.32 25.6017 54.2522 24.4263Z" fill="#CED0D3"/>
<path d="M73.1584 16.6116C70.8236 16.6116 68.9866 17.712 67.5712 19.3805L67.4942 19.3423L69.5224 8.83496H64.2404L59.1124 35.578H64.3942L66.1544 26.4366C66.843 22.9842 68.6416 20.8608 70.3262 20.8608C71.512 20.8608 71.9724 21.6574 71.9724 22.796C71.9724 23.5166 71.8954 24.3894 71.7428 25.11L69.753 35.5792H75.0352L77.1014 24.7682C77.3312 23.6296 77.4848 22.2648 77.4848 21.3538C77.4826 18.3944 75.9136 16.6116 73.1584 16.6116Z" fill="#CED0D3"/>
<path d="M89.4238 16.6113C83.0698 16.6113 78.8614 22.3015 78.8614 28.6359C78.8614 32.6945 81.3866 35.9565 86.133 35.9565C92.3712 35.9565 96.5812 30.4187 96.5812 23.9319C96.5812 20.1769 94.3608 16.6113 89.4238 16.6113ZM86.8214 31.9371C85.0224 31.9371 84.2568 30.4199 84.2568 28.5229C84.2568 25.5265 85.8266 20.6331 88.6968 20.6331C90.5722 20.6331 91.1836 22.2265 91.1836 23.7819C91.1836 27.0055 89.616 31.9371 86.8214 31.9371Z" fill="#CED0D3"/>
<path d="M110.091 16.6113C106.526 16.6113 104.503 19.722 104.503 19.722H104.427L104.733 16.915H100.064C99.8348 18.8121 99.4126 21.6941 98.9928 23.8569L95.3184 43.0125H100.6L102.054 35.2741H102.169C102.169 35.2741 103.253 35.9565 105.27 35.9565C111.469 35.9565 115.526 29.6601 115.526 23.2865C115.526 19.7601 113.956 16.6113 110.091 16.6113ZM105.039 32.0121C103.668 32.0121 102.856 31.2535 102.856 31.2535L103.737 26.3601C104.35 23.0983 106.072 20.9355 107.909 20.9355C109.517 20.9355 110.014 22.4147 110.014 23.8187C110.014 27.1949 107.986 32.0121 105.039 32.0121Z" fill="#CED0D3"/>
<path d="M123.066 9.10059C121.382 9.10059 120.042 10.4284 120.042 12.135C120.042 13.6904 121.037 14.7526 122.53 14.7526H122.606C124.253 14.7526 125.668 13.6522 125.707 11.7182C125.707 10.2009 124.673 9.10059 123.066 9.10059Z" fill="#CED0D3"/>
<path d="M115.68 35.5777H120.961L124.559 17.0293H119.239L115.68 35.5777Z" fill="#CED0D3"/>
<path d="M137.992 16.9913H134.318L134.509 16.1183C134.815 14.3355 135.887 12.7421 137.647 12.7421C138.587 12.7421 139.331 13.0077 139.331 13.0077L140.364 8.91098C140.364 8.91098 139.446 8.45605 137.493 8.45605C135.618 8.45605 133.744 8.98716 132.327 10.2007C130.528 11.718 129.686 13.9175 129.265 16.1183L129.113 16.9913H126.663L125.897 20.9367H128.348L125.554 35.5789H130.836L133.63 20.9367H137.265L137.992 16.9913Z" fill="#CED0D3"/>
<path d="M150.698 17.0295C150.698 17.0295 147.396 25.2742 145.913 29.7746H145.836C145.736 28.3254 144.535 17.0295 144.535 17.0295H138.985L142.163 34.0606C142.24 34.4394 142.202 34.668 142.048 34.9336C141.435 36.109 140.402 37.2476 139.177 38.0824C138.183 38.8028 137.073 39.2578 136.193 39.5614L137.647 44C138.719 43.7726 140.938 42.8996 142.813 41.155C145.225 38.9172 147.444 35.4648 149.74 30.7606L156.208 17.0283L150.698 17.0295Z" fill="#CED0D3"/>
</g>
</g>
<defs>
<clipPath id="clip0_56_425">
<rect width="156" height="44" fill="white" transform="translate(0.375)"/>
</clipPath>
</defs>
</svg>
