<svg width="108" height="44" viewBox="0 0 108 44" fill="none" xmlns="http://www.w3.org/2000/svg">
<g id="wix2 1" clip-path="url(#clip0_56_445)">
<g id="Clip path group">
<mask id="mask0_56_445" style="mask-type:luminance" maskUnits="userSpaceOnUse" x="0" y="1" width="108" height="42">
<g id="clip0_101_2163">
<path id="Vector" d="M107.277 1.75977H0.751099V42.2398H107.277V1.75977Z" fill="white"/>
</g>
</mask>
<g mask="url(#mask0_56_445)">
<g id="Group">
<g id="Mask group">
<mask id="mask1_56_445" style="mask-type:luminance" maskUnits="userSpaceOnUse" x="0" y="1" width="107" height="42">
<g id="Group_2">
<path id="Vector_2" d="M106.831 1.75977H0.751099V42.2398H106.831V1.75977Z" fill="white"/>
</g>
</mask>
<g mask="url(#mask1_56_445)">
<g id="Group_3">
<path id="Vector_3" d="M106.831 1.75977H100.971C99.3456 1.75977 97.8267 2.55312 96.9133 3.87991L89.0774 15.2739C88.868 15.5761 88.4158 15.5761 88.2071 15.2739L80.3705 3.87991C79.4592 2.55312 77.9382 1.75977 76.3128 1.75977H70.4531L84.4134 22.0563L70.5302 42.2398H76.3899C78.0153 42.2398 79.535 41.4464 80.4481 40.1197L88.2071 28.8388C88.4158 28.5366 88.868 28.5366 89.0774 28.8388L96.8365 40.1197C97.7477 41.4464 99.2685 42.2398 100.894 42.2398H106.754L92.8711 22.0563L106.831 1.75977Z" fill="#CED0D3"/>
<path id="Vector_4" d="M58.3959 5.90043V42.2398H61.1964C63.5173 42.2398 65.3984 40.3865 65.3984 38.0991V1.75977H62.5975C60.2766 1.75977 58.3959 3.6132 58.3959 5.90043Z" fill="#CED0D3"/>
<path id="Vector_5" d="M53.2619 1.75977H50.7696C48.0259 1.75977 45.6482 3.63008 45.0403 6.26674L39.4648 30.4237L34.585 7.87372C33.6823 3.70604 29.3437 0.895511 24.9041 2.10412C22.0761 2.87383 19.9795 5.2286 19.3681 8.05602L14.5379 30.3934L8.97275 6.26841C8.36298 3.63177 5.98557 1.75977 3.24159 1.75977H0.751099L10.0913 42.2382H13.63C16.8416 42.2382 19.6164 40.0252 20.2862 36.9292L26.2572 9.31187C26.3308 8.96925 26.6426 8.72106 26.9971 8.72106C27.3516 8.72106 27.6634 8.96925 27.737 9.31187L33.7131 36.9311C34.3828 40.0268 37.1576 42.2382 40.3694 42.2382H43.92L53.2619 1.75977Z" fill="#CED0D3"/>
</g>
</g>
</g>
</g>
</g>
</g>
</g>
<defs>
<clipPath id="clip0_56_445">
<rect width="106.526" height="44" fill="white" transform="translate(0.751099)"/>
</clipPath>
</defs>
</svg>
