<svg width="77" height="44" viewBox="0 0 77 44" fill="none" xmlns="http://www.w3.org/2000/svg">
<g id="woocommerce-logo 1">
<path id="Vector" fill-rule="evenodd" clip-rule="evenodd" d="M9.16898 1.79346H66.8822C67.7496 1.79346 68.6086 1.96397 69.41 2.29526C70.2113 2.62657 70.9395 3.11214 71.5527 3.72427C72.1658 4.33639 72.6523 5.06308 72.9839 5.8628C73.3156 6.66251 73.4861 7.5196 73.4858 8.3851V30.3545C73.4858 31.2196 73.315 32.0762 72.9831 32.8754C72.6512 33.6746 72.1647 34.401 71.5515 35.0126C70.9382 35.6242 70.2103 36.1091 69.4091 36.44C68.6079 36.7708 67.7493 36.9409 66.8822 36.9405H46.1838L49.0168 43.8886L36.5128 36.9405H9.16061C7.41115 36.9383 5.73408 36.2436 4.49755 35.0088C3.26101 33.774 2.56611 32.1001 2.56537 30.3545V8.3851C2.56537 6.63737 3.26101 4.96117 4.49936 3.72509C5.73769 2.48899 7.41733 1.7942 9.16898 1.79346Z" fill="#CED0D3"/>
<path id="Vector_2" d="M6.13497 7.76115C6.3534 7.48878 6.62908 7.26757 6.94253 7.1131C7.256 6.95864 7.59962 6.87471 7.94915 6.86723C9.42097 6.76512 10.2657 7.4576 10.4834 8.94469C11.3914 14.9766 12.3637 20.0969 13.4001 24.3056L19.7525 12.2531C20.3274 11.1651 21.054 10.5896 21.9323 10.5265C23.205 10.4373 24.0004 11.2459 24.3186 12.952C24.9164 16.3259 25.8351 19.6354 27.0622 22.8353C27.8251 15.4946 29.0988 10.1876 30.8831 6.91456C31.0554 6.54746 31.3245 6.23418 31.6619 6.00844C31.9993 5.78272 32.392 5.6531 32.7978 5.63355C33.4584 5.57938 34.1141 5.78415 34.626 6.20443C34.8871 6.40122 35.1018 6.6529 35.2547 6.94164C35.4076 7.23039 35.495 7.54914 35.5107 7.87532C35.5575 8.35677 35.4604 8.84124 35.2316 9.26773C34.1003 11.3619 33.17 14.8439 32.4406 19.7136C31.7205 24.4144 31.4543 28.0912 31.6423 30.7443C31.7083 31.3945 31.5914 32.0503 31.3046 32.6378C31.1655 32.9345 30.9485 33.1881 30.677 33.3718C30.4053 33.5557 30.0888 33.6629 29.7611 33.6822C28.9965 33.7378 28.2345 33.3786 27.467 32.61C24.7726 29.8531 22.6328 25.751 21.0476 20.304C19.1868 24.017 17.7912 26.7945 16.861 28.636C15.1584 31.9037 13.6996 33.5791 12.4846 33.6627C11.6957 33.7183 11.024 33.0574 10.4695 31.6799C8.98091 27.8981 7.38443 20.5815 5.68003 9.73001C5.61268 9.38837 5.61838 9.03638 5.69678 8.6971C5.77518 8.35781 5.92449 8.03887 6.13497 7.76115Z" fill="white"/>
<path id="Vector_3" d="M68.4337 12.3062C67.9547 11.4439 67.2914 10.6973 66.4906 10.1198C65.6898 9.54221 64.7713 9.14774 63.8005 8.96445C63.2828 8.85527 62.7555 8.7993 62.2264 8.79736C59.4501 8.79736 57.1821 10.239 55.4218 13.1222C53.9228 15.574 53.1426 18.3959 53.1694 21.2677C53.1694 23.4955 53.6346 25.405 54.5649 26.996C55.0434 27.8594 55.707 28.6066 56.5084 29.1843C57.3097 29.7619 58.2291 30.1559 59.2009 30.3378C59.7173 30.4494 60.2438 30.5063 60.7722 30.5077C63.5762 30.5077 65.8435 29.0661 67.5739 26.183C69.0728 23.7135 69.8536 20.8769 69.8291 17.99C69.8291 15.7622 69.3639 13.8676 68.4337 12.3062ZM64.7774 20.3293C64.3811 22.223 63.646 23.6497 62.5724 24.6095C61.7221 25.3726 60.9425 25.6836 60.2335 25.5425C59.5246 25.4014 58.9562 24.7775 58.5282 23.6711C58.2004 22.8318 58.0272 21.9401 58.0175 21.0394C58.0148 20.3266 58.0858 19.6155 58.2296 18.9173C58.5058 17.682 59.0258 16.5138 59.7591 15.4809C60.723 14.0681 61.7295 13.4749 62.779 13.7014C63.4879 13.8444 64.0553 14.4663 64.4815 15.5672C64.8084 16.4057 64.9804 17.2964 64.9894 18.196C64.9932 18.9126 64.922 19.6275 64.7774 20.3293Z" fill="white"/>
<path id="Vector_4" d="M50.2699 12.3062C49.7909 11.4439 49.1276 10.6973 48.3268 10.1198C47.526 9.54221 46.6075 9.14774 45.6367 8.96445C45.119 8.85527 44.5915 8.7993 44.0626 8.79736C41.2844 8.79736 39.0172 10.239 37.2608 13.1222C35.7598 15.5732 34.9783 18.3955 35.0056 21.2677C35.0056 23.4955 35.4708 25.405 36.4011 26.996C36.8788 27.86 37.5421 28.6077 38.3437 29.1855C39.1453 29.7632 40.065 30.1568 41.0371 30.3378C41.5533 30.4494 42.0801 30.5063 42.6084 30.5077C45.4143 30.5077 47.6825 29.0661 49.413 26.183C50.917 23.7149 51.7044 20.8785 51.6876 17.99C51.6876 15.7622 51.2225 13.8676 50.2922 12.3062H50.2699ZM46.6135 20.3293C46.2172 22.2266 45.4803 23.6552 44.4031 24.615C43.5508 25.3781 42.7712 25.6891 42.0642 25.548C41.357 25.4069 40.7905 24.7813 40.3644 23.6711C40.0364 22.8318 39.8634 21.9401 39.8537 21.0394C39.8508 20.3266 39.922 19.6155 40.0658 18.9173C40.3444 17.6828 40.8642 16.5151 41.5953 15.4809C42.5554 14.0718 43.5619 13.4805 44.6151 13.707C45.3241 13.8499 45.8906 14.4719 46.3149 15.5728C46.6425 16.4112 46.8156 17.3019 46.8256 18.2017C46.8284 18.9143 46.7574 19.6256 46.6135 20.3238V20.3293Z" fill="white"/>
</g>
</svg>
