<svg width="33" height="24" viewBox="0 0 33 24" fill="none" xmlns="http://www.w3.org/2000/svg">
<g id="_x30_2_x2C__United_States_x2C__country_x2C__national_x2C__flag_x2C__world_flag">
<g id="XMLID_684_">
<path id="XMLID_657_" d="M14.5 0H32.5L31.8333 1.33333L32.5 2.66667V5.33333L31.8333 6.66667L32.5 8V10.6667L31.8333 12L32.5 13.3333V16L31.8333 17.3333L32.5 18.6667V21.3333L31.8333 22.6667L32.5 24H0.5L1.16667 22.6667L0.5 21.3333V18.6667L1.16667 17.3333L0.5 16V13.3333L1.16667 12L0.5 10.6667L14.5 0Z" fill="#D60612"/>
<path id="XMLID_656_" d="M0.5 21.3333H32.5V23.9999H0.5V21.3333Z" fill="white"/>
<path id="XMLID_655_" d="M0.5 16H32.5V18.6667H0.5V16Z" fill="white"/>
<path id="XMLID_654_" d="M0.5 10.6667H32.5V13.3334H0.5V10.6667Z" fill="white"/>
<path id="XMLID_653_" d="M14.5 5.33325H32.5V7.99992H14.5V5.33325Z" fill="white"/>
<path id="XMLID_652_" d="M14.5 0H32.5V2.66667H14.5V0Z" fill="white"/>
<path id="XMLID_651_" d="M0.5 0H14.5V10.6667H0.5V0Z" fill="#2956B0"/>
<g id="Group">
<path id="XMLID_650_" d="M2.84589 0.625L3.05755 1.27647H3.74255L3.18835 1.67913L3.40009 2.3306L2.84589 1.92793L2.29169 2.3306L2.50342 1.67913L1.94922 1.27647H2.63422L2.84589 0.625Z" fill="white"/>
<path id="XMLID_649_" d="M5.9494 0.625L6.16107 1.27647H6.84607L6.29187 1.67913L6.5036 2.3306L5.9494 1.92793L5.39527 2.3306L5.60693 1.67913L5.05273 1.27647H5.73773L5.9494 0.625Z" fill="white"/>
<path id="XMLID_648_" d="M9.05096 0.625L9.26263 1.27647H9.94763L9.3935 1.67913L9.60516 2.3306L9.05096 1.92793L8.49683 2.3306L8.7085 1.67913L8.1543 1.27647H8.8393L9.05096 0.625Z" fill="white"/>
<path id="XMLID_647_" d="M12.1564 0.625L12.3681 1.27647H13.0531L12.499 1.67913L12.7106 2.3306L12.1564 1.92793L11.6023 2.3306L11.814 1.67913L11.2598 1.27647H11.9448L12.1564 0.625Z" fill="white"/>
<path id="XMLID_646_" d="M2.84589 3.19531L3.05755 3.84678H3.74255L3.18835 4.24938L3.40009 4.90085L2.84589 4.49825L2.29169 4.90085L2.50342 4.24938L1.94922 3.84678H2.63422L2.84589 3.19531Z" fill="white"/>
<path id="XMLID_645_" d="M5.9494 3.19531L6.16107 3.84678H6.84607L6.29187 4.24938L6.5036 4.90085L5.9494 4.49825L5.39527 4.90085L5.60693 4.24938L5.05273 3.84678H5.73773L5.9494 3.19531Z" fill="white"/>
<path id="XMLID_644_" d="M9.05096 3.19531L9.26263 3.84678H9.94763L9.3935 4.24938L9.60516 4.90085L9.05096 4.49825L8.49683 4.90085L8.7085 4.24938L8.1543 3.84678H8.8393L9.05096 3.19531Z" fill="white"/>
<path id="XMLID_643_" d="M12.1564 3.19531L12.3681 3.84678H13.0531L12.499 4.24938L12.7106 4.90085L12.1564 4.49825L11.6023 4.90085L11.814 4.24938L11.2598 3.84678H11.9448L12.1564 3.19531Z" fill="white"/>
<path id="XMLID_642_" d="M2.84589 5.76636L3.05755 6.41782H3.74255L3.18835 6.82042L3.40009 7.47189L2.84589 7.06929L2.29169 7.47189L2.50342 6.82042L1.94922 6.41782H2.63422L2.84589 5.76636Z" fill="white"/>
<path id="XMLID_641_" d="M5.9494 5.76636L6.16107 6.41782H6.84607L6.29187 6.82042L6.5036 7.47189L5.9494 7.06929L5.39527 7.47189L5.60693 6.82042L5.05273 6.41782H5.73773L5.9494 5.76636Z" fill="white"/>
<path id="XMLID_640_" d="M9.05096 5.76636L9.26263 6.41782H9.94763L9.3935 6.82042L9.60516 7.47189L9.05096 7.06929L8.49683 7.47189L8.7085 6.82042L8.1543 6.41782H8.8393L9.05096 5.76636Z" fill="white"/>
<path id="XMLID_639_" d="M12.1564 5.76636L12.3681 6.41782H13.0531L12.499 6.82042L12.7106 7.47189L12.1564 7.06929L11.6023 7.47189L11.814 6.82042L11.2598 6.41782H11.9448L12.1564 5.76636Z" fill="white"/>
<path id="XMLID_638_" d="M2.84589 8.33667L3.05755 8.98814H3.74255L3.18835 9.3908L3.40009 10.0423L2.84589 9.6396L2.29169 10.0423L2.50342 9.3908L1.94922 8.98814H2.63422L2.84589 8.33667Z" fill="white"/>
<path id="XMLID_637_" d="M5.9494 8.33667L6.16107 8.98814H6.84607L6.29187 9.3908L6.5036 10.0423L5.9494 9.6396L5.39527 10.0423L5.60693 9.3908L5.05273 8.98814H5.73773L5.9494 8.33667Z" fill="white"/>
<path id="XMLID_636_" d="M9.05096 8.33667L9.26263 8.98814H9.94763L9.3935 9.3908L9.60516 10.0423L9.05096 9.6396L8.49683 10.0423L8.7085 9.3908L8.1543 8.98814H8.8393L9.05096 8.33667Z" fill="white"/>
<path id="XMLID_635_" d="M12.1564 8.33667L12.3681 8.98814H13.0531L12.499 9.3908L12.7106 10.0423L12.1564 9.6396L11.6023 10.0423L11.814 9.3908L11.2598 8.98814H11.9448L12.1564 8.33667Z" fill="white"/>
</g>
</g>
</g>
</svg>
