<svg width="16" height="17" viewBox="0 0 16 17" fill="none" xmlns="http://www.w3.org/2000/svg">
<path d="M12.3792 13.8333C13.2206 13.8333 13.9032 13.1513 13.9032 12.3093V9.26196L14.6652 8.49996L13.9032 7.73796V4.69063C13.9032 3.84863 13.2212 3.16663 12.3792 3.16663M3.61803 3.16663C2.77603 3.16663 2.09403 3.84863 2.09403 4.69063V7.73796L1.33203 8.49996L2.09403 9.26196V12.3093C2.09403 13.1513 2.77603 13.8333 3.61803 13.8333M4.9987 8.49996L6.62157 10.1228C6.75358 10.2548 6.81958 10.3208 6.89569 10.3456C6.96264 10.3673 7.03476 10.3673 7.1017 10.3456C7.17781 10.3208 7.24382 10.2548 7.37582 10.1228L10.9987 6.49996" stroke="#F6CA45" stroke-width="1.33333" stroke-linecap="round" stroke-linejoin="round"/>
</svg>
