<svg width="81" height="26" viewBox="0 0 81 26" fill="none" xmlns="http://www.w3.org/2000/svg">
<g id="coca-cola-logo-svgrepo-com 1" clip-path="url(#clip0_657_13929)">
<g id="Group">
<path id="Vector" d="M31.1048 22.8486C28.0908 20.9122 24.0004 20.5724 17.4038 22.3977C10.3713 24.0459 8.02652 25.1025 4.9472 22.9815C3.76419 21.9396 3.34006 20.2619 3.65677 17.8454C4.39134 13.9061 6.37644 10.1152 9.90258 5.91005C11.8707 3.72258 13.6964 1.84532 16.1071 1.09149C17.9547 0.618588 17.782 2.06677 17.5584 2.27389C17.3225 2.27389 16.9262 2.31095 16.6199 2.51029C16.3713 2.70256 15.689 3.32339 15.6524 4.15852C15.5995 5.43695 16.926 5.17086 17.4981 4.46894C18.1149 3.67794 19.0263 2.16321 18.3094 0.75148C18.0089 0.248993 17.4896 -0.0982846 16.845 -0.216535C14.6375 -0.342358 12.5818 0.707149 10.6843 1.86743C6.5349 4.74229 3.21562 8.72584 1.33743 13.0862C0.254667 15.7171 -0.724623 19.4858 0.743198 22.5531C1.87882 24.6814 4.23622 25.8119 7.04885 25.5755C9.0215 25.3688 11.4068 24.7329 13.0112 24.349C14.6156 23.9643 22.8277 21.149 25.5261 26.0491C25.5261 26.0491 26.4233 24.3119 28.6657 24.2749C30.5093 24.1052 33.1689 24.8071 35.1056 26.2258C34.4604 25.258 32.631 23.8317 31.1048 22.8486Z" fill="#E61A27"/>
<path id="Vector_2" d="M18.2433 6.40529C16.7073 5.40022 13.6202 7.32171 11.1476 10.6177C8.88646 13.5741 7.91011 17.0102 8.97272 18.5992C10.5532 20.4689 13.4876 17.7493 14.7354 16.2937L14.8964 16.1235C15.7449 15.2145 16.4004 14.1206 17.0351 13.071C17.0351 13.071 17.6183 12.1103 17.6461 12.0658C18.0066 11.9996 18.4407 11.8961 18.93 11.7556C18.923 11.7776 17.0581 14.9038 17.2484 16.4555C17.3076 16.9289 17.2625 18.6583 18.9553 19.1829C21.2115 19.56 23.0132 17.8157 24.6026 16.2637C24.6026 16.2637 24.8734 16.0053 25.0266 15.8577C24.9878 16.0124 24.9373 16.2189 24.9373 16.2189C24.2768 18.51 25.1672 18.9908 25.7241 19.1681C27.4074 19.6563 29.4183 17.2172 29.4249 17.2172C29.3727 17.9855 29.2203 18.621 30.0323 19.1311C30.7987 19.4047 31.5744 18.9875 32.164 18.5958C34.2878 17.103 35.9987 14.7665 37.3805 12.747H36.4991C36.4886 12.747 34.324 15.8762 32.9183 16.5563C32.9161 16.5563 32.6603 16.6873 32.5129 16.5837C32.3304 16.4285 32.4024 16.1056 32.5151 15.877C32.5222 15.8622 37.9425 6.48608 37.9425 6.48608H35.3833C35.3833 6.48608 35.1037 6.93717 35.0809 6.96675C35.0637 6.95201 35.0227 6.87446 34.9944 6.83729C33.4088 4.64982 29.8182 8.01454 27.1149 11.9165C26.0742 13.4169 24.7491 15.1062 23.3751 16.3256C23.3751 16.3256 21.3396 18.1865 20.47 16.8495C20.152 16.2877 20.2498 15.4664 20.4292 14.9271C21.4418 12.0521 23.1866 9.44304 25.1722 7.86883C25.7326 7.43309 26.342 7.30706 26.6442 7.49186C26.9323 7.66212 26.9788 8.08301 26.7966 8.37131C26.3342 8.35657 25.9636 8.49673 25.6625 8.80715C25.0691 9.42799 24.863 10.0267 25.0516 10.5885C25.968 11.8891 27.7957 9.31721 27.7073 7.75048C27.6757 7.18871 27.3753 6.65674 26.9268 6.39782C26.2584 5.99894 25.2388 6.10224 24.579 6.42024C23.6956 6.75267 22.2974 7.91285 21.4812 8.81462C20.4538 9.94552 18.6915 11.2017 18.1405 11.0611C18.3206 10.5806 19.8091 7.54326 18.2433 6.40529ZM30.5817 10.8986C31.0795 10.2114 32.5285 8.37111 32.8818 8.06079C34.0699 7.01835 34.5447 7.47702 34.5858 7.80198C33.477 9.78254 32.1684 12.0515 30.938 14.0913C30.9405 14.0841 30.5529 14.6751 30.5529 14.6751C30.0095 15.5026 29.4624 16.2122 28.5699 16.7072C28.4426 16.7444 28.2328 16.7593 28.0932 16.6554C27.9251 16.5445 27.8588 16.3597 27.8777 16.1675C27.9313 15.5322 28.5799 13.5889 30.5817 10.8986ZM16.6593 12.0884C16.6593 12.0884 16.6369 12.1551 16.626 12.1769C16.6232 12.1769 15.5101 13.9873 15.5101 13.9873C14.8384 14.8817 13.9998 16.0054 12.9514 16.5446C12.6407 16.648 12.2111 16.7148 11.9922 16.4415C11.5282 15.8871 11.7673 15.1184 11.9616 14.4978L12.0305 14.276C12.5876 12.7686 13.4714 11.438 14.3318 10.2038C14.3425 10.1966 14.3666 10.1892 14.3753 10.1892C14.3774 10.1966 14.3809 10.1966 14.3823 10.2114C14.9222 11.2459 15.9345 11.726 16.6915 11.9481C16.6961 11.9481 16.701 11.9555 16.701 11.9703C16.7011 11.9923 16.6888 12.0221 16.6593 12.0884ZM17.7137 9.9528C17.7088 9.96754 17.218 11.0909 17.218 11.0909C17.147 11.1499 17.0349 11.1205 16.9063 11.0909L16.6859 11.0537C15.9941 10.8395 15.4723 10.3813 15.3114 9.83444C15.0895 8.77019 16.0011 7.93507 16.4027 7.63223C16.788 7.36594 17.3871 7.22557 17.735 7.49913C17.9495 7.75047 18.0309 8.07554 18.0309 8.43049C18.031 8.91066 17.8823 9.45011 17.7137 9.9528ZM50.0672 13.3816C49.8203 12.8497 49.2346 12.5097 48.6103 12.5465C46.5829 12.7314 44.6 14.3942 43.5587 16.7811C43.0124 18.008 42.7142 19.0204 42.5187 20.6315C43.1492 19.9074 44.435 18.7176 45.8942 18.0672C45.8942 18.0672 46.0928 16.5227 47.1053 15.148C47.4884 14.5788 48.2551 13.6625 49.116 13.9062C49.8683 14.1576 49.6038 16.2344 48.6041 18.2441C47.8644 19.7224 46.7324 21.2009 45.5871 22.2205C44.5745 23.0777 43.0763 24.1124 41.7655 23.3143C40.9399 22.8268 40.5188 21.8066 40.6077 20.4912C41.0022 16.7592 42.7056 13.5813 45.1432 9.96007C47.6566 6.59746 50.4272 3.14619 54.1596 1.30569C54.9209 0.921457 55.6259 0.832795 56.2353 1.06929C56.2353 1.06929 52.7317 2.99078 51.0615 6.54566C50.6367 7.44743 50.0458 8.66648 50.6408 9.74558C50.9518 10.3071 51.5038 10.3516 51.9484 10.322C53.9956 9.84888 55.3182 7.94224 56.3988 6.19828C57.0254 4.87541 57.5822 3.55992 57.5822 2.09659C57.5822 1.91926 57.573 1.68286 57.558 1.50534C58.536 0.988206 60.5417 1.90442 60.5417 1.90442C62.1089 2.42195 65.446 4.97175 66.5717 5.45929C67.1208 4.82381 68.0231 3.86317 68.5313 3.38269L67.7957 2.93181C66.6182 2.21494 65.3735 1.53492 64.1485 0.862484C61.3663 -0.65235 59.1015 -0.120376 57.949 0.29355C57.496 0.45603 57.0821 0.596497 57.0821 0.596497C56.2267 -0.33466 54.8238 -0.246199 53.7901 0.00524622C50.0728 1.0694 46.6215 3.66332 42.9213 8.1642C40.201 11.6895 38.5135 14.7344 37.6141 17.7422C36.9209 19.767 36.7102 22.7453 38.4023 24.5117C39.8409 26.0116 41.7486 25.6866 43.0956 25.1474C46.0143 23.7136 48.6376 20.6243 49.9448 17.0694C50.2602 16.0127 50.6103 14.5199 50.0672 13.3816ZM56.7787 2.24453C56.3924 6.66401 52.9479 9.25824 52.0956 9.46485C51.5791 9.56815 50.6978 9.33923 51.4847 7.48449C52.6432 4.98629 54.6213 2.86546 56.7435 1.779C56.7952 1.96379 56.7938 2.08174 56.7787 2.24453ZM77.2108 2.80599C75.358 3.85559 73.4373 4.5353 71.1124 4.29891C70.4681 5.02335 69.8407 5.76971 69.2624 6.53818C72.5256 7.36594 75.985 5.52574 77.9145 3.7744C79.9556 2.00802 81.0021 -0.216309 81.0021 -0.216309C81.0021 -0.216309 79.4722 1.52765 77.2108 2.80599ZM42.1959 6.48628H39.7655L38.3946 8.70789H40.8245L42.1959 6.48628Z" fill="#E61A27"/>
<path id="Vector_3" d="M71.0984 23.054C70.8371 23.2314 70.4699 23.095 70.6071 22.6887C70.9492 21.654 72.3085 19.5455 72.3085 19.5455L76.0949 12.8478H73.5014C73.378 13.0497 73.1145 13.5134 73.1145 13.5134C72.9945 13.3141 72.6357 12.8709 72.488 12.7751C71.8543 12.3757 70.9248 12.5645 70.2834 12.9265C67.4951 14.5526 65.4607 17.7654 63.8562 20.2709C63.8562 20.2709 62.1672 23.0559 61.2298 23.2631C60.4978 23.3222 60.5734 22.3389 60.6051 22.1097C60.8881 20.454 61.5453 18.88 62.2073 17.4537C63.5542 16.5225 65.091 15.3031 66.4878 13.9655C69.519 11.0756 72.0745 7.80168 72.448 7.07007C72.448 7.07007 72.0437 7.15146 71.5663 7.1661C69.2343 10.4105 64.4622 15.1257 63.0154 15.8276C63.6563 14.2901 67.7973 6.95172 71.321 3.44137L71.8755 2.9091C72.733 2.07398 73.6214 1.21674 74.3137 1.07627C74.3868 1.0689 74.481 1.07627 74.5623 1.24653C74.5932 1.89675 74.3505 2.37722 74.072 2.92404L73.6818 3.72231C73.6818 3.72231 74.2345 3.6188 74.5976 3.50025C75.0187 2.70986 75.4853 1.82273 75.3132 0.766155C75.2559 0.426148 75.0091 0.167533 74.6866 0.108358C73.6354 -0.0911831 72.4899 0.684562 71.568 1.31297L71.5308 1.33499C66.7921 5.0376 62.7908 10.3735 59.2925 17.6605C59.0389 17.8523 58.0593 18.0817 57.8929 17.9707C58.2383 17.2614 58.6733 16.3078 58.8909 15.2732C58.9286 14.9774 58.9636 14.6746 58.9636 14.3791C58.9636 13.743 58.8105 13.1445 58.2393 12.7309C57.5694 12.3983 56.7415 12.5536 56.1832 12.8046C53.6826 13.8393 51.8136 16.3966 50.4649 18.5026C49.7395 19.8406 49.0163 21.2736 48.816 22.9146C48.675 24.2003 48.9621 25.0281 49.6952 25.4421C50.4489 25.8261 51.3976 25.4269 51.7703 25.2349C54.3037 23.9046 56.0738 21.2369 57.469 18.7979C57.5245 18.7907 58.2863 18.7686 58.8626 18.6206C58.8702 18.6206 58.8735 18.6206 58.8862 18.6283C58.8532 18.7388 58.5555 19.6259 58.5555 19.6259C57.6711 22.2122 57.2622 23.9713 58.0975 25.0133C59.2911 26.484 61.2673 24.9618 62.8749 22.9512C62.5298 25.3604 63.7817 25.7375 64.7361 25.5529C65.8323 25.2575 67.0539 24.0895 67.6208 23.4911C67.4387 24.193 67.4881 25.4496 68.4854 25.575C69.1689 25.7011 69.6805 25.3303 70.2723 25.0124C72.3954 23.8594 74.9369 20.0173 75.5967 18.9065H74.7316C73.7935 20.3205 72.5998 22.1742 71.0984 23.054ZM52.0413 22.7967C51.9067 22.5971 51.862 22.379 51.8576 22.1431C51.8317 20.6939 53.395 18.0988 54.4984 16.6851H54.5007C54.963 17.6949 56.0101 18.344 56.6422 18.6176C55.8572 20.3618 53.1647 24.0974 52.0413 22.7967ZM57.0854 17.8378C57.0107 17.8899 55.6903 17.4462 55.435 16.2268C55.2186 15.177 55.9434 14.3567 56.6447 13.9433C56.9457 13.7066 57.3991 13.6256 57.7317 13.7434C58.0404 13.9507 58.124 14.3205 58.124 14.7189C58.124 14.9632 58.0915 15.2143 58.0629 15.4433L58.0566 15.4952C57.8354 16.3146 57.509 17.1019 57.0854 17.8378ZM67.6759 22.3312C67.6747 22.3312 67.4253 22.5529 67.4253 22.5529C67.0691 22.8705 66.7025 23.2104 66.2601 23.0404C66.1379 22.9962 66.0519 22.8337 66.0312 22.7077C66.0111 21.7986 66.4215 20.9563 66.8196 20.136L66.9216 19.9217C68.0666 18.015 69.3974 15.7684 71.3519 14.2092C71.6813 13.9722 72.0387 13.7731 72.416 13.9284C72.5027 14.0096 72.6038 14.15 72.6038 14.2903C72.6038 14.3348 72.5641 14.453 72.5413 14.4898C71.9954 15.3697 71.4756 16.2933 70.97 17.1801C69.982 18.9316 68.9571 20.7419 67.6759 22.3312Z" fill="#E61A27"/>
</g>
</g>
<defs>
<clipPath id="clip0_657_13929">
<rect width="81" height="26" fill="white"/>
</clipPath>
</defs>
</svg>
