<svg width="16" height="17" viewBox="0 0 16 17" fill="none" xmlns="http://www.w3.org/2000/svg">
<path d="M14.6654 6.49994H1.33203M9.33203 12.1666L10.9987 10.4999L9.33203 8.83327M6.66536 8.83327L4.9987 10.4999L6.66536 12.1666M1.33203 5.69994L1.33203 11.2999C1.33203 12.42 1.33203 12.9801 1.55002 13.4079C1.74176 13.7842 2.04773 14.0902 2.42405 14.2819C2.85187 14.4999 3.41193 14.4999 4.53203 14.4999H11.4654C12.5855 14.4999 13.1455 14.4999 13.5733 14.282C13.9497 14.0902 14.2556 13.7842 14.4474 13.4079C14.6654 12.9801 14.6654 12.42 14.6654 11.2999V5.69994C14.6654 4.57983 14.6654 4.01978 14.4474 3.59196C14.2556 3.21563 13.9497 2.90967 13.5733 2.71793C13.1455 2.49994 12.5855 2.49994 11.4654 2.49994L4.53203 2.49994C3.41193 2.49994 2.85187 2.49994 2.42405 2.71793C2.04773 2.90967 1.74177 3.21563 1.55002 3.59196C1.33203 4.01978 1.33203 4.57983 1.33203 5.69994Z" stroke="#70C9F4" stroke-width="1.33333" stroke-linecap="round" stroke-linejoin="round"/>
</svg>
