<svg width="1360" height="500" viewBox="0 0 1360 500" fill="none" xmlns="http://www.w3.org/2000/svg">
<g opacity="0.2">
<path opacity="0.5" d="M1360.69 500.316L1565.33 299.261C1655.25 210.921 1775.01 159.748 1900.7 155.961L2254 145.316" stroke="url(#paint0_linear_624_4972)"/>
<path opacity="0.512821" d="M1320.89 500.316L1525.54 299.261C1615.46 210.921 1735.22 159.748 1860.91 155.961L2214.21 145.316" stroke="url(#paint1_linear_624_4972)"/>
<path opacity="0.525641" d="M1281.1 500.316L1485.75 299.261C1575.66 210.921 1695.43 159.748 1821.12 155.961L2174.42 145.316" stroke="url(#paint2_linear_624_4972)"/>
<path opacity="0.538462" d="M1241.31 500.316L1445.96 299.261C1535.88 210.921 1655.64 159.748 1781.33 155.961L2134.63 145.316" stroke="url(#paint3_linear_624_4972)"/>
<path opacity="0.551282" d="M1201.52 500.316L1406.17 299.261C1496.08 210.921 1615.85 159.748 1741.54 155.961L2094.83 145.316" stroke="url(#paint4_linear_624_4972)"/>
<path opacity="0.564103" d="M1161.73 500.316L1366.38 299.261C1456.29 210.921 1576.06 159.748 1701.75 155.961L2055.05 145.316" stroke="url(#paint5_linear_624_4972)"/>
<path opacity="0.576923" d="M1121.94 500.316L1326.58 299.261C1416.5 210.921 1536.26 159.748 1661.95 155.961L2015.25 145.316" stroke="url(#paint6_linear_624_4972)"/>
<path opacity="0.589744" d="M1082.15 500.316L1286.79 299.261C1376.71 210.921 1496.47 159.748 1622.16 155.961L1975.46 145.316" stroke="url(#paint7_linear_624_4972)"/>
<path opacity="0.602564" d="M1042.36 500.316L1247 299.261C1336.92 210.921 1456.68 159.748 1582.37 155.961L1935.67 145.316" stroke="url(#paint8_linear_624_4972)"/>
<path opacity="0.615385" d="M1002.56 500.316L1207.21 299.261C1297.13 210.921 1416.89 159.748 1542.58 155.961L1895.88 145.316" stroke="url(#paint9_linear_624_4972)"/>
<path opacity="0.628205" d="M962.773 500.316L1167.42 299.261C1257.34 210.921 1377.1 159.748 1502.79 155.961L1856.09 145.316" stroke="url(#paint10_linear_624_4972)"/>
<path opacity="0.641026" d="M922.98 500.316L1127.63 299.261C1217.54 210.921 1337.31 159.748 1463 155.961L1816.3 145.316" stroke="url(#paint11_linear_624_4972)"/>
<path opacity="0.653846" d="M883.191 500.316L1087.84 299.261C1177.75 210.921 1297.52 159.748 1423.21 155.961L1776.51 145.316" stroke="url(#paint12_linear_624_4972)"/>
<path opacity="0.666667" d="M843.398 500.316L1048.04 299.261C1137.96 210.921 1257.72 159.748 1383.41 155.961L1736.71 145.316" stroke="url(#paint13_linear_624_4972)"/>
<path opacity="0.679487" d="M803.609 500.316L1008.26 299.261C1098.17 210.921 1217.94 159.748 1343.63 155.961L1696.92 145.316" stroke="url(#paint14_linear_624_4972)"/>
<path opacity="0.692308" d="M763.816 500.316L968.462 299.261C1058.38 210.921 1178.14 159.748 1303.83 155.961L1657.13 145.316" stroke="url(#paint15_linear_624_4972)"/>
<path opacity="0.705128" d="M724.023 500.316L928.669 299.261C1018.59 210.921 1138.35 159.748 1264.04 155.961L1617.34 145.316" stroke="url(#paint16_linear_624_4972)"/>
<path opacity="0.717949" d="M684.234 500.316L888.88 299.261C978.798 210.921 1098.56 159.748 1224.25 155.961L1577.55 145.316" stroke="url(#paint17_linear_624_4972)"/>
<path opacity="0.730769" d="M644.441 500.316L849.087 299.261C939.005 210.921 1058.77 159.748 1184.46 155.961L1537.76 145.316" stroke="url(#paint18_linear_624_4972)"/>
<path opacity="0.74359" d="M604.652 500.316L809.298 299.261C899.216 210.921 1018.98 159.748 1144.67 155.961L1497.97 145.316" stroke="url(#paint19_linear_624_4972)"/>
<path opacity="0.75641" d="M564.859 500.316L769.505 299.261C859.423 210.921 979.185 159.748 1104.88 155.961L1458.17 145.316" stroke="url(#paint20_linear_624_4972)"/>
<path opacity="0.769231" d="M525.07 500.316L729.716 299.261C819.634 210.921 939.396 159.748 1065.09 155.961L1418.39 145.316" stroke="url(#paint21_linear_624_4972)"/>
<path opacity="0.782051" d="M485.277 500.316L689.923 299.261C779.841 210.921 899.603 159.748 1025.29 155.961L1378.59 145.316" stroke="url(#paint22_linear_624_4972)"/>
<path opacity="0.794872" d="M445.484 500.316L650.13 299.261C740.048 210.921 859.81 159.748 985.5 155.961L1338.8 145.316" stroke="url(#paint23_linear_624_4972)"/>
<path opacity="0.807692" d="M405.695 500.316L610.341 299.261C700.259 210.921 820.021 159.748 945.711 155.961L1299.01 145.316" stroke="url(#paint24_linear_624_4972)"/>
<path opacity="0.820513" d="M365.902 500.316L570.548 299.261C660.466 210.921 780.228 159.748 905.918 155.961L1259.22 145.316" stroke="url(#paint25_linear_624_4972)"/>
<path opacity="0.833333" d="M326.113 500.316L530.759 299.261C620.677 210.921 740.439 159.748 866.129 155.961L1219.43 145.316" stroke="url(#paint26_linear_624_4972)"/>
<path opacity="0.846154" d="M286.32 500.316L490.966 299.261C580.884 210.921 700.646 159.748 826.336 155.961L1179.64 145.316" stroke="url(#paint27_linear_624_4972)"/>
<path opacity="0.858974" d="M246.531 500.316L451.177 299.261C541.095 210.921 660.857 159.748 786.547 155.961L1139.85 145.316" stroke="url(#paint28_linear_624_4972)"/>
<path opacity="0.871795" d="M206.738 500.316L411.384 299.261C501.302 210.921 621.064 159.748 746.754 155.961L1100.05 145.316" stroke="url(#paint29_linear_624_4972)"/>
<path opacity="0.884615" d="M166.945 500.316L371.591 299.261C461.509 210.921 581.271 159.748 706.961 155.961L1060.26 145.316" stroke="url(#paint30_linear_624_4972)"/>
<path opacity="0.897436" d="M127.156 500.316L331.802 299.261C421.72 210.921 541.482 159.748 667.172 155.961L1020.47 145.316" stroke="url(#paint31_linear_624_4972)"/>
<path opacity="0.910256" d="M87.3633 500.316L292.009 299.261C381.927 210.921 501.689 159.748 627.379 155.961L980.678 145.316" stroke="url(#paint32_linear_624_4972)"/>
<path opacity="0.923077" d="M47.5742 500.316L252.22 299.261C342.138 210.921 461.9 159.748 587.59 155.961L940.889 145.316" stroke="url(#paint33_linear_624_4972)"/>
<path opacity="0.935897" d="M7.78125 500.316L212.427 299.261C302.345 210.921 422.107 159.748 547.797 155.961L901.096 145.316" stroke="url(#paint34_linear_624_4972)"/>
<path opacity="0.948718" d="M-32.0078 500.316L172.638 299.261C262.556 210.921 382.318 159.748 508.008 155.961L861.307 145.316" stroke="url(#paint35_linear_624_4972)"/>
<path opacity="0.961538" d="M-71.8008 500.316L132.845 299.261C222.763 210.921 342.525 159.748 468.215 155.961L821.514 145.316" stroke="url(#paint36_linear_624_4972)"/>
<path opacity="0.974359" d="M-111.594 500.316L93.052 299.261C182.97 210.921 302.732 159.748 428.422 155.961L781.721 145.316" stroke="url(#paint37_linear_624_4972)"/>
<path opacity="0.987179" d="M-151.383 500.316L53.2629 299.261C143.181 210.921 262.943 159.748 388.633 155.961L741.932 145.316" stroke="url(#paint38_linear_624_4972)"/>
<path d="M-191.176 500.316L13.47 299.261C103.388 210.921 223.15 159.748 348.84 155.961L702.139 145.316" stroke="url(#paint39_linear_624_4972)"/>
</g>
<defs>
<linearGradient id="paint0_linear_624_4972" x1="1400.3" y1="462.351" x2="2196.62" y2="170.554" gradientUnits="userSpaceOnUse">
<stop stop-color="#F6F3F0"/>
<stop offset="1" stop-color="white" stop-opacity="0"/>
</linearGradient>
<linearGradient id="paint1_linear_624_4972" x1="1360.5" y1="462.351" x2="2156.82" y2="170.554" gradientUnits="userSpaceOnUse">
<stop stop-color="#F6F3F0"/>
<stop offset="1" stop-color="white" stop-opacity="0"/>
</linearGradient>
<linearGradient id="paint2_linear_624_4972" x1="1320.71" y1="462.351" x2="2117.03" y2="170.554" gradientUnits="userSpaceOnUse">
<stop stop-color="#F6F3F0"/>
<stop offset="1" stop-color="white" stop-opacity="0"/>
</linearGradient>
<linearGradient id="paint3_linear_624_4972" x1="1280.92" y1="462.351" x2="2077.24" y2="170.554" gradientUnits="userSpaceOnUse">
<stop stop-color="#F6F3F0"/>
<stop offset="1" stop-color="white" stop-opacity="0"/>
</linearGradient>
<linearGradient id="paint4_linear_624_4972" x1="1241.13" y1="462.351" x2="2037.45" y2="170.554" gradientUnits="userSpaceOnUse">
<stop stop-color="#F6F3F0"/>
<stop offset="1" stop-color="white" stop-opacity="0"/>
</linearGradient>
<linearGradient id="paint5_linear_624_4972" x1="1201.34" y1="462.351" x2="1997.66" y2="170.554" gradientUnits="userSpaceOnUse">
<stop stop-color="#F6F3F0"/>
<stop offset="1" stop-color="white" stop-opacity="0"/>
</linearGradient>
<linearGradient id="paint6_linear_624_4972" x1="1161.55" y1="462.351" x2="1957.87" y2="170.554" gradientUnits="userSpaceOnUse">
<stop stop-color="#F6F3F0"/>
<stop offset="1" stop-color="white" stop-opacity="0"/>
</linearGradient>
<linearGradient id="paint7_linear_624_4972" x1="1121.76" y1="462.351" x2="1918.08" y2="170.554" gradientUnits="userSpaceOnUse">
<stop stop-color="#F6F3F0"/>
<stop offset="1" stop-color="white" stop-opacity="0"/>
</linearGradient>
<linearGradient id="paint8_linear_624_4972" x1="1081.96" y1="462.351" x2="1878.28" y2="170.554" gradientUnits="userSpaceOnUse">
<stop stop-color="#F6F3F0"/>
<stop offset="1" stop-color="white" stop-opacity="0"/>
</linearGradient>
<linearGradient id="paint9_linear_624_4972" x1="1042.17" y1="462.351" x2="1838.49" y2="170.554" gradientUnits="userSpaceOnUse">
<stop stop-color="#F6F3F0"/>
<stop offset="1" stop-color="white" stop-opacity="0"/>
</linearGradient>
<linearGradient id="paint10_linear_624_4972" x1="1002.38" y1="462.351" x2="1798.7" y2="170.554" gradientUnits="userSpaceOnUse">
<stop stop-color="#F6F3F0"/>
<stop offset="1" stop-color="white" stop-opacity="0"/>
</linearGradient>
<linearGradient id="paint11_linear_624_4972" x1="962.589" y1="462.351" x2="1758.91" y2="170.554" gradientUnits="userSpaceOnUse">
<stop stop-color="#F6F3F0"/>
<stop offset="1" stop-color="white" stop-opacity="0"/>
</linearGradient>
<linearGradient id="paint12_linear_624_4972" x1="922.8" y1="462.351" x2="1719.12" y2="170.554" gradientUnits="userSpaceOnUse">
<stop stop-color="#F6F3F0"/>
<stop offset="1" stop-color="white" stop-opacity="0"/>
</linearGradient>
<linearGradient id="paint13_linear_624_4972" x1="883.007" y1="462.351" x2="1679.33" y2="170.554" gradientUnits="userSpaceOnUse">
<stop stop-color="#F6F3F0"/>
<stop offset="1" stop-color="white" stop-opacity="0"/>
</linearGradient>
<linearGradient id="paint14_linear_624_4972" x1="843.218" y1="462.351" x2="1639.54" y2="170.554" gradientUnits="userSpaceOnUse">
<stop stop-color="#F6F3F0"/>
<stop offset="1" stop-color="white" stop-opacity="0"/>
</linearGradient>
<linearGradient id="paint15_linear_624_4972" x1="803.425" y1="462.351" x2="1599.74" y2="170.554" gradientUnits="userSpaceOnUse">
<stop stop-color="#F6F3F0"/>
<stop offset="1" stop-color="white" stop-opacity="0"/>
</linearGradient>
<linearGradient id="paint16_linear_624_4972" x1="763.632" y1="462.351" x2="1559.95" y2="170.554" gradientUnits="userSpaceOnUse">
<stop stop-color="#F6F3F0"/>
<stop offset="1" stop-color="white" stop-opacity="0"/>
</linearGradient>
<linearGradient id="paint17_linear_624_4972" x1="723.843" y1="462.351" x2="1520.16" y2="170.554" gradientUnits="userSpaceOnUse">
<stop stop-color="#F6F3F0"/>
<stop offset="1" stop-color="white" stop-opacity="0"/>
</linearGradient>
<linearGradient id="paint18_linear_624_4972" x1="684.05" y1="462.351" x2="1480.37" y2="170.554" gradientUnits="userSpaceOnUse">
<stop stop-color="#F6F3F0"/>
<stop offset="1" stop-color="white" stop-opacity="0"/>
</linearGradient>
<linearGradient id="paint19_linear_624_4972" x1="644.261" y1="462.351" x2="1440.58" y2="170.554" gradientUnits="userSpaceOnUse">
<stop stop-color="#F6F3F0"/>
<stop offset="1" stop-color="white" stop-opacity="0"/>
</linearGradient>
<linearGradient id="paint20_linear_624_4972" x1="604.468" y1="462.351" x2="1400.79" y2="170.554" gradientUnits="userSpaceOnUse">
<stop stop-color="#F6F3F0"/>
<stop offset="1" stop-color="white" stop-opacity="0"/>
</linearGradient>
<linearGradient id="paint21_linear_624_4972" x1="564.679" y1="462.351" x2="1361" y2="170.554" gradientUnits="userSpaceOnUse">
<stop stop-color="#F6F3F0"/>
<stop offset="1" stop-color="white" stop-opacity="0"/>
</linearGradient>
<linearGradient id="paint22_linear_624_4972" x1="524.886" y1="462.351" x2="1321.2" y2="170.554" gradientUnits="userSpaceOnUse">
<stop stop-color="#F6F3F0"/>
<stop offset="1" stop-color="white" stop-opacity="0"/>
</linearGradient>
<linearGradient id="paint23_linear_624_4972" x1="485.093" y1="462.351" x2="1281.41" y2="170.554" gradientUnits="userSpaceOnUse">
<stop stop-color="#F6F3F0"/>
<stop offset="1" stop-color="white" stop-opacity="0"/>
</linearGradient>
<linearGradient id="paint24_linear_624_4972" x1="445.304" y1="462.351" x2="1241.62" y2="170.554" gradientUnits="userSpaceOnUse">
<stop stop-color="#F6F3F0"/>
<stop offset="1" stop-color="white" stop-opacity="0"/>
</linearGradient>
<linearGradient id="paint25_linear_624_4972" x1="405.511" y1="462.351" x2="1201.83" y2="170.554" gradientUnits="userSpaceOnUse">
<stop stop-color="#F6F3F0"/>
<stop offset="1" stop-color="white" stop-opacity="0"/>
</linearGradient>
<linearGradient id="paint26_linear_624_4972" x1="365.722" y1="462.351" x2="1162.04" y2="170.554" gradientUnits="userSpaceOnUse">
<stop stop-color="#F6F3F0"/>
<stop offset="1" stop-color="white" stop-opacity="0"/>
</linearGradient>
<linearGradient id="paint27_linear_624_4972" x1="325.929" y1="462.351" x2="1122.25" y2="170.554" gradientUnits="userSpaceOnUse">
<stop stop-color="#F6F3F0"/>
<stop offset="1" stop-color="white" stop-opacity="0"/>
</linearGradient>
<linearGradient id="paint28_linear_624_4972" x1="286.14" y1="462.351" x2="1082.46" y2="170.554" gradientUnits="userSpaceOnUse">
<stop stop-color="#F6F3F0"/>
<stop offset="1" stop-color="white" stop-opacity="0"/>
</linearGradient>
<linearGradient id="paint29_linear_624_4972" x1="246.347" y1="462.351" x2="1042.67" y2="170.554" gradientUnits="userSpaceOnUse">
<stop stop-color="#F6F3F0"/>
<stop offset="1" stop-color="white" stop-opacity="0"/>
</linearGradient>
<linearGradient id="paint30_linear_624_4972" x1="206.554" y1="462.351" x2="1002.87" y2="170.554" gradientUnits="userSpaceOnUse">
<stop stop-color="#F6F3F0"/>
<stop offset="1" stop-color="white" stop-opacity="0"/>
</linearGradient>
<linearGradient id="paint31_linear_624_4972" x1="166.765" y1="462.351" x2="963.084" y2="170.554" gradientUnits="userSpaceOnUse">
<stop stop-color="#F6F3F0"/>
<stop offset="1" stop-color="white" stop-opacity="0"/>
</linearGradient>
<linearGradient id="paint32_linear_624_4972" x1="126.972" y1="462.351" x2="923.291" y2="170.554" gradientUnits="userSpaceOnUse">
<stop stop-color="#F6F3F0"/>
<stop offset="1" stop-color="white" stop-opacity="0"/>
</linearGradient>
<linearGradient id="paint33_linear_624_4972" x1="87.1829" y1="462.351" x2="883.502" y2="170.554" gradientUnits="userSpaceOnUse">
<stop stop-color="#F6F3F0"/>
<stop offset="1" stop-color="white" stop-opacity="0"/>
</linearGradient>
<linearGradient id="paint34_linear_624_4972" x1="47.3899" y1="462.351" x2="843.709" y2="170.554" gradientUnits="userSpaceOnUse">
<stop stop-color="#F6F3F0"/>
<stop offset="1" stop-color="white" stop-opacity="0"/>
</linearGradient>
<linearGradient id="paint35_linear_624_4972" x1="7.60088" y1="462.351" x2="803.92" y2="170.554" gradientUnits="userSpaceOnUse">
<stop stop-color="#F6F3F0"/>
<stop offset="1" stop-color="white" stop-opacity="0"/>
</linearGradient>
<linearGradient id="paint36_linear_624_4972" x1="-32.1921" y1="462.351" x2="764.127" y2="170.554" gradientUnits="userSpaceOnUse">
<stop stop-color="#F6F3F0"/>
<stop offset="1" stop-color="white" stop-opacity="0"/>
</linearGradient>
<linearGradient id="paint37_linear_624_4972" x1="-71.9851" y1="462.351" x2="724.334" y2="170.554" gradientUnits="userSpaceOnUse">
<stop stop-color="#F6F3F0"/>
<stop offset="1" stop-color="white" stop-opacity="0"/>
</linearGradient>
<linearGradient id="paint38_linear_624_4972" x1="-111.774" y1="462.351" x2="684.545" y2="170.554" gradientUnits="userSpaceOnUse">
<stop stop-color="#F6F3F0"/>
<stop offset="1" stop-color="white" stop-opacity="0"/>
</linearGradient>
<linearGradient id="paint39_linear_624_4972" x1="-151.567" y1="462.351" x2="644.752" y2="170.554" gradientUnits="userSpaceOnUse">
<stop stop-color="#F6F3F0"/>
<stop offset="1" stop-color="white" stop-opacity="0"/>
</linearGradient>
</defs>
</svg>
