<svg width="25" height="25" viewBox="0 0 25 25" fill="none" xmlns="http://www.w3.org/2000/svg">
<g id="ui/database-01">
<path id="Icon" d="M21.5 5.52197C21.5 7.17883 17.4706 8.52197 12.5 8.52197C7.52944 8.52197 3.5 7.17883 3.5 5.52197M21.5 5.52197C21.5 3.86512 17.4706 2.52197 12.5 2.52197C7.52944 2.52197 3.5 3.86512 3.5 5.52197M21.5 5.52197V19.522C21.5 21.182 17.5 22.522 12.5 22.522C7.5 22.522 3.5 21.182 3.5 19.522V5.52197M21.5 12.522C21.5 14.182 17.5 15.522 12.5 15.522C7.5 15.522 3.5 14.182 3.5 12.522" stroke="url(#paint0_linear_0_1433)" stroke-width="1.33333" stroke-linecap="round" stroke-linejoin="round"/>
</g>
<defs>
<linearGradient id="paint0_linear_0_1433" x1="3.5" y1="13.1102" x2="21.5" y2="13.1102" gradientUnits="userSpaceOnUse">
<stop stop-color="#00B67A"/>
<stop offset="0.519737" stop-color="#D0F6EA"/>
<stop offset="1" stop-color="#00B67A"/>
</linearGradient>
</defs>
</svg>
