<svg width="22" height="25" viewBox="0 0 22 25" fill="none" xmlns="http://www.w3.org/2000/svg">
<g id="Group 1">
<path id="Vector" d="M8.88806 10.2197C8.20406 10.2197 7.66406 10.8197 7.66406 11.5517C7.66406 12.2837 8.21606 12.8837 8.88806 12.8837C9.57206 12.8837 10.1121 12.2837 10.1121 11.5517C10.1241 10.8197 9.57206 10.2197 8.88806 10.2197ZM13.2681 10.2197C12.5841 10.2197 12.0441 10.8197 12.0441 11.5517C12.0441 12.2837 12.5961 12.8837 13.2681 12.8837C13.9521 12.8837 14.4921 12.2837 14.4921 11.5517C14.4921 10.8197 13.9521 10.2197 13.2681 10.2197Z" fill="#ACADC4"/>
<path id="Vector_2" d="M19.0986 0.151367H3.01859C1.66259 0.151367 0.558594 1.25537 0.558594 2.62337V18.8474C0.558594 20.2154 1.66259 21.3194 3.01859 21.3194H16.6266L15.9906 19.0994L17.5266 20.5274L18.9786 21.8714L21.5586 24.1514V2.62337C21.5586 1.25537 20.4546 0.151367 19.0986 0.151367ZM14.4666 15.8234C14.4666 15.8234 14.0346 15.3074 13.6746 14.8514C15.2466 14.4074 15.8466 13.4234 15.8466 13.4234C15.3546 13.7474 14.8866 13.9754 14.4666 14.1314C13.8666 14.3834 13.2906 14.5514 12.7266 14.6474C11.5746 14.8634 10.5186 14.8034 9.61859 14.6354C8.93459 14.5034 8.34659 14.3114 7.85459 14.1194C7.57859 14.0114 7.27859 13.8794 6.97859 13.7114C6.94259 13.6874 6.90659 13.6754 6.87059 13.6514C6.84659 13.6394 6.83459 13.6274 6.82259 13.6154C6.60659 13.4954 6.48659 13.4114 6.48659 13.4114C6.48659 13.4114 7.06259 14.3714 8.58659 14.8274C8.22659 15.2834 7.78259 15.8234 7.78259 15.8234C5.13059 15.7394 4.12259 13.9994 4.12259 13.9994C4.12259 10.1354 5.85059 7.00337 5.85059 7.00337C7.57859 5.70737 9.22259 5.74337 9.22259 5.74337L9.34259 5.88737C7.18259 6.51137 6.18659 7.45937 6.18659 7.45937C6.18659 7.45937 6.45059 7.31537 6.89459 7.11137C8.17859 6.54737 9.19859 6.39137 9.61859 6.35537C9.69059 6.34337 9.75059 6.33137 9.82259 6.33137C10.5546 6.23537 11.3826 6.21137 12.2466 6.30737C13.3866 6.43937 14.6106 6.77537 15.8586 7.45937C15.8586 7.45937 14.9106 6.55937 12.8706 5.93537L13.0386 5.74337C13.0386 5.74337 14.6826 5.70737 16.4106 7.00337C16.4106 7.00337 18.1386 10.1354 18.1386 13.9994C18.1386 13.9994 17.1186 15.7394 14.4666 15.8234Z" fill="#ACADC4"/>
</g>
</svg>
