<svg width="23" height="20" viewBox="0 0 23 20" fill="none" xmlns="http://www.w3.org/2000/svg">
<path id="Icon" d="M15 9.75488H14L12.5 12.7549L10.5 6.75488L9 9.75488H8M11.4932 3.3907C9.4938 1.05328 6.15975 0.424525 3.65469 2.5649C1.14964 4.70527 0.796968 8.28386 2.7642 10.8153C4.25009 12.7273 8.47129 16.5658 10.448 18.3298C10.8114 18.654 10.9931 18.8162 11.2058 18.88C11.3905 18.9354 11.5958 18.9354 11.7805 18.88C11.9932 18.8162 12.1749 18.654 12.5383 18.3298C14.515 16.5658 18.7362 12.7273 20.2221 10.8153C22.1893 8.28386 21.8797 4.68275 19.3316 2.5649C16.7835 0.44704 13.4925 1.05328 11.4932 3.3907Z" stroke="#07BF82" stroke-width="1.5" stroke-linecap="round" stroke-linejoin="round"/>
</svg>
