<svg width="21" height="21" viewBox="0 0 21 21" fill="none" xmlns="http://www.w3.org/2000/svg">
<path id="Icon" d="M3.5 7.2549V15.2549M8 7.2549V15.2549M13 7.2549V15.2549M17.5 7.2549V15.2549M1.5 16.8549L1.5 17.6549C1.5 18.215 1.5 18.495 1.60899 18.7089C1.70487 18.8971 1.85785 19.05 2.04601 19.1459C2.25992 19.2549 2.53995 19.2549 3.1 19.2549H17.9C18.4601 19.2549 18.7401 19.2549 18.954 19.1459C19.1422 19.05 19.2951 18.8971 19.391 18.7089C19.5 18.495 19.5 18.215 19.5 17.6549V16.8549C19.5 16.2949 19.5 16.0148 19.391 15.8009C19.2951 15.6128 19.1422 15.4598 18.954 15.3639C18.7401 15.2549 18.4601 15.2549 17.9 15.2549H3.1C2.53995 15.2549 2.25992 15.2549 2.04601 15.3639C1.85785 15.4598 1.70487 15.6127 1.60899 15.8009C1.5 16.0148 1.5 16.2948 1.5 16.8549ZM10.1529 1.33203L2.75291 2.97648C2.30585 3.07582 2.08232 3.1255 1.91546 3.24571C1.76829 3.35174 1.65273 3.4958 1.58115 3.66247C1.5 3.85143 1.5 4.08041 1.5 4.53838L1.5 5.6549C1.5 6.21495 1.5 6.49498 1.60899 6.70889C1.70487 6.89705 1.85785 7.05004 2.04601 7.14591C2.25992 7.2549 2.53995 7.2549 3.1 7.2549H17.9C18.4601 7.2549 18.7401 7.2549 18.954 7.14591C19.1422 7.05004 19.2951 6.89706 19.391 6.70889C19.5 6.49498 19.5 6.21496 19.5 5.6549V4.53838C19.5 4.08041 19.5 3.85143 19.4188 3.66247C19.3473 3.4958 19.2317 3.35174 19.0845 3.24571C18.9177 3.1255 18.6942 3.07583 18.2471 2.97648L10.8471 1.33203C10.7176 1.30325 10.6528 1.28886 10.5874 1.28312C10.5292 1.27802 10.4708 1.27802 10.4126 1.28312C10.3472 1.28886 10.2824 1.30325 10.1529 1.33203Z" stroke="#07BF82" stroke-width="1.5" stroke-linecap="round" stroke-linejoin="round"/>
</svg>
