<svg width="25" height="25" viewBox="0 0 25 25" fill="none" xmlns="http://www.w3.org/2000/svg">
<g id="Group">
<path id="Vector" d="M20.3477 5.84983C20.3477 5.0522 19.7012 4.40815 18.9066 4.40815C18.1119 4.40815 17.4648 5.0522 17.4648 5.84983C17.4648 6.64453 18.1119 7.28857 18.9066 7.28857C19.7012 7.28857 20.3477 6.64453 20.3477 5.84983Z" fill="url(#paint0_linear_624_813)"/>
<path id="Vector_2" d="M22.2666 17.1033C22.2132 18.2734 22.0175 18.9091 21.855 19.3314C21.6367 19.8912 21.3764 20.2915 20.9542 20.7114C20.5367 21.1313 20.1364 21.391 19.5765 21.6069C19.1543 21.7718 18.5161 21.9681 17.3461 22.0238C16.0811 22.0796 15.7063 22.0915 12.4985 22.0915C9.2937 22.0915 8.9159 22.0796 7.65094 22.0238C6.48089 21.9681 5.84573 21.7718 5.42345 21.6069C4.86067 21.391 4.46334 21.1313 4.04347 20.7114C3.62061 20.2915 3.36028 19.8912 3.145 19.3314C2.98248 18.9091 2.78384 18.2734 2.7334 17.1033C2.67175 15.8384 2.66045 15.4576 2.66045 12.2564C2.66045 9.04858 2.67175 8.67078 2.7334 7.40582C2.78384 6.23577 2.98248 5.60061 3.145 5.17478C3.36028 4.61555 3.62061 4.2176 4.04347 3.79772C4.46334 3.37847 4.86067 3.11809 5.42345 2.89988C5.84573 2.73442 6.48089 2.54107 7.65094 2.48534C8.9159 2.42957 9.2937 2.41533 12.4985 2.41533C15.7063 2.41533 16.0811 2.42957 17.3461 2.48534C18.5161 2.54107 19.1543 2.73442 19.5765 2.89988C20.1364 3.11809 20.5367 3.37847 20.9542 3.79772C21.3764 4.2176 21.6367 4.61555 21.855 5.17478C22.0175 5.60061 22.2132 6.23577 22.2666 7.40582C22.3253 8.67078 22.3395 9.04858 22.3395 12.2564C22.3395 15.4576 22.3253 15.8384 22.2666 17.1033ZM24.4271 7.30739C24.3683 6.02876 24.1667 5.15521 23.8672 4.39436C23.5624 3.605 23.1538 2.93604 22.4848 2.26709C21.8188 1.60111 21.1499 1.19249 20.3605 0.884118C19.5967 0.58758 18.7261 0.383556 17.4469 0.327825C16.1677 0.266133 15.7591 0.254879 12.4985 0.254879C9.24091 0.254879 8.82935 0.266133 7.55015 0.327825C6.27388 0.383556 5.40388 0.58758 4.6365 0.884118C3.85012 1.19249 3.18116 1.60111 2.51519 2.26709C1.84623 2.93604 1.43761 3.605 1.12982 4.39436C0.833277 5.15521 0.631656 6.02876 0.569965 7.30739C0.514233 8.58659 0.5 8.99579 0.5 12.2564C0.5 15.514 0.514233 15.9226 0.569965 17.2018C0.631656 18.478 0.833277 19.351 1.12982 20.1154C1.43761 20.9018 1.84623 21.5737 2.51519 22.2397C3.18116 22.9057 3.85012 23.3173 4.6365 23.6251C5.40388 23.9216 6.27388 24.1232 7.55015 24.1819C8.82935 24.2406 9.24091 24.2549 12.4985 24.2549C15.7591 24.2549 16.1677 24.2406 17.4469 24.1819C18.7261 24.1232 19.5967 23.9216 20.3605 23.6251C21.1499 23.3173 21.8188 22.9057 22.4848 22.2397C23.1538 21.5737 23.5624 20.9018 23.8672 20.1154C24.1667 19.351 24.3683 18.478 24.4271 17.2018C24.4858 15.9226 24.5 15.514 24.5 12.2564C24.5 8.99579 24.4858 8.58659 24.4271 7.30739Z" fill="url(#paint1_linear_624_813)"/>
<path id="Vector_3" d="M12.4998 16.2531C10.2919 16.2531 8.5003 14.4644 8.5003 12.2565C8.5003 10.045 10.2919 8.25406 12.4998 8.25406C14.7083 8.25406 16.5023 10.045 16.5023 12.2565C16.5023 14.4644 14.7083 16.2531 12.4998 16.2531ZM12.4998 6.09063C9.09631 6.09063 6.33984 8.85301 6.33984 12.2565C6.33984 15.6571 9.09631 18.4165 12.4998 18.4165C15.9033 18.4165 18.6627 15.6571 18.6627 12.2565C18.6627 8.85301 15.9033 6.09063 12.4998 6.09063Z" fill="url(#paint2_linear_624_813)"/>
</g>
<defs>
<linearGradient id="paint0_linear_624_813" x1="0.717846" y1="24.0069" x2="22.5024" y2="2.2224" gradientUnits="userSpaceOnUse">
<stop stop-color="#FFD521"/>
<stop offset="0.05" stop-color="#FFD521"/>
<stop offset="0.501119" stop-color="#F50000"/>
<stop offset="0.95" stop-color="#B900B4"/>
<stop offset="0.950079" stop-color="#B900B4"/>
<stop offset="1" stop-color="#B900B4"/>
</linearGradient>
<linearGradient id="paint1_linear_624_813" x1="0.716477" y1="24.0366" x2="22.5189" y2="2.23417" gradientUnits="userSpaceOnUse">
<stop stop-color="#FFD521"/>
<stop offset="0.05" stop-color="#FFD521"/>
<stop offset="0.501119" stop-color="#F50000"/>
<stop offset="0.95" stop-color="#B900B4"/>
<stop offset="0.950079" stop-color="#B900B4"/>
<stop offset="1" stop-color="#B900B4"/>
</linearGradient>
<linearGradient id="paint2_linear_624_813" x1="0.723418" y1="24.0374" x2="22.5206" y2="2.24017" gradientUnits="userSpaceOnUse">
<stop stop-color="#FFD521"/>
<stop offset="0.05" stop-color="#FFD521"/>
<stop offset="0.501119" stop-color="#F50000"/>
<stop offset="0.95" stop-color="#B900B4"/>
<stop offset="0.950079" stop-color="#B900B4"/>
<stop offset="1" stop-color="#B900B4"/>
</linearGradient>
</defs>
</svg>
