<svg width="390" height="213" viewBox="0 0 390 213" fill="none" xmlns="http://www.w3.org/2000/svg">
<rect x="-9.5" y="-53.875" width="79" height="79" rx="13.5" fill="white" stroke="#F0EBE6"/>
<rect x="100.5" y="-53.875" width="79" height="79" rx="13.5" fill="white" stroke="#F0EBE6"/>
<rect x="210.5" y="-53.875" width="79" height="79" rx="13.5" fill="white" stroke="#F0EBE6"/>
<g filter="url(#filter0_b_961_2371)">
<path d="M250.271 -30.1606L238.386 -26.9761C234.055 -25.8157 232.259 -22.7047 233.419 -18.3742L236.6 -6.5022C237.761 -2.17174 240.872 -0.375686 245.203 -1.53614L257.087 -4.72056C261.418 -5.88101 263.203 -8.98901 262.043 -13.3195L258.862 -25.1915C257.701 -29.5219 254.602 -31.321 250.271 -30.1606Z" fill="url(#paint0_linear_961_2371)"/>
</g>
<path d="M237.8 -21.7515C237.07 -20.7036 236.834 -19.482 237.135 -18.3585L239.352 -10.0816C239.981 -7.73492 242.73 -6.44298 245.498 -7.18454L253.334 -9.28431C256.102 -10.0259 257.834 -12.5276 257.208 -14.8659L254.99 -23.1427C254.363 -25.4811 251.612 -26.7822 248.844 -26.0407L241.008 -23.9409C239.679 -23.5847 238.528 -22.7997 237.8 -21.7515Z" fill="#EF5641" fill-opacity="0.5"/>
<g filter="url(#filter2_b_961_2371)">
<mask id="path-6-outside-1_961_2371" maskUnits="userSpaceOnUse" x="238.664" y="-24.5903" width="28" height="28" fill="black">
<rect fill="white" x="238.664" y="-24.5903" width="28" height="28"/>
<path d="M258.99 -23.5903H246.687C242.204 -23.5903 239.664 -21.0502 239.664 -16.567V-4.27621C239.664 0.207003 242.204 2.7471 246.687 2.7471H258.99C263.473 2.7471 266.002 0.207003 266.002 -4.27621V-16.567C266.002 -21.0502 263.473 -23.5903 258.99 -23.5903Z"/>
</mask>
<path d="M258.99 -23.5903H246.687C242.204 -23.5903 239.664 -21.0502 239.664 -16.567V-4.27621C239.664 0.207003 242.204 2.7471 246.687 2.7471H258.99C263.473 2.7471 266.002 0.207003 266.002 -4.27621V-16.567C266.002 -21.0502 263.473 -23.5903 258.99 -23.5903Z" fill="#FFAC95" fill-opacity="0.4"/>
<path d="M258.99 -23.1729C259.22 -23.1729 259.407 -23.3598 259.407 -23.5903C259.407 -23.8209 259.22 -24.0078 258.99 -24.0078V-23.1729ZM258.99 -24.0078C258.759 -24.0078 258.572 -23.8209 258.572 -23.5903C258.572 -23.3598 258.759 -23.1729 258.99 -23.1729V-24.0078ZM258.99 -24.0078H246.687V-23.1729H258.99V-24.0078ZM246.687 -24.0078C244.368 -24.0078 242.494 -23.3495 241.199 -22.0551C239.905 -20.7607 239.247 -18.8862 239.247 -16.567H240.082C240.082 -18.731 240.693 -20.3682 241.79 -21.4647C242.886 -22.5612 244.523 -23.1729 246.687 -23.1729V-24.0078ZM239.247 -16.567V-4.27621H240.082V-16.567H239.247ZM239.247 -4.27621C239.247 -1.95699 239.905 -0.0825272 241.199 1.21185C242.494 2.50623 244.368 3.16458 246.687 3.16458V2.32962C244.523 2.32962 242.886 1.71793 241.79 0.621449C240.693 -0.475027 240.082 -2.11222 240.082 -4.27621H239.247ZM246.687 3.16458H258.99V2.32962H246.687V3.16458ZM258.99 3.16458C261.309 3.16458 263.181 2.5062 264.473 1.21149C265.764 -0.0830669 266.419 -1.95751 266.419 -4.27621H265.584C265.584 -2.1117 264.975 -0.474487 263.881 0.621811C262.788 1.71795 261.154 2.32962 258.99 2.32962V3.16458ZM266.419 -4.27621V-16.567H265.584V-4.27621H266.419ZM266.419 -16.567C266.419 -18.8857 265.764 -20.7602 264.473 -22.0547C263.181 -23.3494 261.309 -24.0078 258.99 -24.0078V-23.1729C261.154 -23.1729 262.788 -22.5612 263.881 -21.465C264.975 -20.3687 265.584 -18.7315 265.584 -16.567H266.419Z" fill="white" mask="url(#path-6-outside-1_961_2371)"/>
</g>
<g filter="url(#filter3_bd_961_2371)">
<path d="M251.845 -5.04744V-13.4096L248.606 -10.1437C248.211 -9.76184 247.592 -9.76184 247.197 -10.1437C246.815 -10.5256 246.815 -11.1577 247.197 -11.5396L252.135 -16.5042C252.504 -16.8729 253.162 -16.8729 253.531 -16.5042L258.469 -11.5396C258.851 -11.1577 258.851 -10.5256 258.469 -10.1437C258.271 -9.95937 258.02 -9.85402 257.771 -9.85402C257.521 -9.85402 257.257 -9.95937 257.073 -10.1437L253.82 -13.4096V-5.04744C253.82 -4.49435 253.386 -4.05978 252.833 -4.05978C252.293 -4.05978 251.845 -4.49435 251.845 -5.04744Z" fill="url(#paint1_linear_961_2371)"/>
<path d="M251.887 -13.4096V-13.5109L251.816 -13.439L248.576 -10.1734C248.197 -9.80758 247.605 -9.8076 247.226 -10.1735C246.861 -10.5391 246.861 -11.1446 247.226 -11.5101L247.226 -11.5102L252.164 -16.4747C252.517 -16.8271 253.149 -16.8271 253.501 -16.4747L258.439 -11.5102L258.439 -11.5101C258.805 -11.1447 258.805 -10.5394 258.44 -10.1738C258.249 -9.99613 258.008 -9.89577 257.771 -9.89577C257.532 -9.89577 257.279 -9.99684 257.103 -10.1733L253.85 -13.439L253.779 -13.5106V-13.4096V-5.04744C253.779 -4.51741 253.363 -4.10153 252.833 -4.10153C252.316 -4.10153 251.887 -4.51777 251.887 -5.04744V-13.4096Z" stroke="url(#paint2_linear_961_2371)" stroke-opacity="0.5" stroke-width="0.0834952"/>
</g>
<rect x="320.5" y="-53.875" width="79" height="79" rx="13.5" fill="white" stroke="#F0EBE6"/>
<rect x="-64.5" y="56.3799" width="79" height="79" rx="13.5" fill="white" stroke="url(#paint3_linear_961_2371)"/>
<rect x="45.5" y="56.3799" width="79" height="79" rx="13.5" fill="white" stroke="url(#paint4_linear_961_2371)"/>
<g filter="url(#filter4_d_961_2371)">
<rect x="155" y="55.8799" width="80" height="80" rx="20" fill="white"/>
</g>
<rect x="159.5" y="60.3799" width="71" height="71" rx="15.5" fill="white" stroke="#F0EBE6"/>
<line x1="202.953" y1="107.125" x2="202.953" y2="114.625" stroke="url(#paint5_linear_961_2371)" stroke-width="1.5"/>
<line x1="188.555" y1="107.125" x2="188.555" y2="114.625" stroke="url(#paint6_linear_961_2371)" stroke-width="1.5"/>
<line y1="-0.75" x2="7.5" y2="-0.75" transform="matrix(5.59506e-08 -1 -1 -3.41495e-08 202.203 82.125)" stroke="url(#paint7_linear_961_2371)" stroke-width="1.5" stroke-dasharray="2 2"/>
<line y1="-0.75" x2="7.5" y2="-0.75" transform="matrix(5.59506e-08 -1 -1 -3.41495e-08 187.805 82.125)" stroke="url(#paint8_linear_961_2371)" stroke-width="1.5" stroke-dasharray="2 2"/>
<g filter="url(#filter5_d_961_2371)">
<rect x="183" y="83.625" width="24" height="24" rx="7" fill="white"/>
<rect x="183.75" y="84.375" width="22.5" height="22.5" rx="6.25" stroke="url(#paint9_linear_961_2371)" stroke-width="1.5"/>
</g>
<path fill-rule="evenodd" clip-rule="evenodd" d="M189.168 90.9585H200.835V93.8752H199.96V91.8335H190.043V99.4168H194.418V100.292H189.168V90.9585ZM195.585 98.396V97.521C196.544 97.521 197.135 97.3087 197.493 96.9504C197.851 96.592 198.064 96.0012 198.064 95.0418H198.939C198.939 96.0012 199.151 96.592 199.509 96.9504C199.868 97.3087 200.459 97.521 201.418 97.521V98.396C200.459 98.396 199.868 98.6083 199.509 98.9666C199.151 99.3249 198.939 99.9158 198.939 100.875H198.064C198.064 99.9158 197.851 99.3249 197.493 98.9666C197.135 98.6083 196.544 98.396 195.585 98.396ZM198.501 98.8603C198.609 98.6722 198.738 98.501 198.891 98.3479C199.044 98.1949 199.215 98.0658 199.403 97.9585C199.215 97.8512 199.044 97.7221 198.891 97.5691C198.738 97.416 198.609 97.2448 198.501 97.0567C198.394 97.2448 198.265 97.416 198.112 97.5691C197.959 97.7221 197.788 97.8512 197.599 97.9585C197.788 98.0658 197.959 98.1949 198.112 98.3479C198.265 98.501 198.394 98.6722 198.501 98.8603Z" fill="url(#paint10_linear_961_2371)"/>
<path d="M192.085 93.2918C192.085 93.614 191.823 93.8752 191.501 93.8752C191.179 93.8752 190.918 93.614 190.918 93.2918C190.918 92.9697 191.179 92.7085 191.501 92.7085C191.823 92.7085 192.085 92.9697 192.085 93.2918Z" fill="url(#paint11_linear_961_2371)"/>
<path d="M193.835 93.2918C193.835 93.614 193.573 93.8752 193.251 93.8752C192.929 93.8752 192.668 93.614 192.668 93.2918C192.668 92.9697 192.929 92.7085 193.251 92.7085C193.573 92.7085 193.835 92.9697 193.835 93.2918Z" fill="url(#paint12_linear_961_2371)"/>
<path d="M195.001 93.8752C195.323 93.8752 195.585 93.614 195.585 93.2918C195.585 92.9697 195.323 92.7085 195.001 92.7085C194.679 92.7085 194.418 92.9697 194.418 93.2918C194.418 93.614 194.679 93.8752 195.001 93.8752Z" fill="url(#paint13_linear_961_2371)"/>
<rect x="265.5" y="56.3799" width="79" height="79" rx="13.5" fill="white" stroke="url(#paint14_linear_961_2371)"/>
<rect x="375.5" y="56.3799" width="79" height="79" rx="13.5" fill="white" stroke="url(#paint15_linear_961_2371)"/>
<path d="M-68 25.3799V25.3799C-68 33.9403 -61.0604 40.8799 -52.5 40.8799H-18C-8.05888 40.8799 0 48.9388 0 58.8799V94.8799C0 103.164 6.71573 109.88 15 109.88V109.88" stroke="#F0EBE6"/>
<path d="M193 135.38V135.38C193 143.94 199.94 150.88 208.5 150.88H243C252.941 150.88 261 158.939 261 168.88V204.88C261 213.164 267.716 219.88 276 219.88V219.88" stroke="#F0EBE6"/>
<path d="M60 14.8799V14.8799C60 23.7164 67.1634 30.8799 76 30.8799H110C119.941 30.8799 128 38.9388 128 48.8799V188.88C128 197.164 134.716 203.88 143 203.88V203.88" stroke="#F0EBE6"/>
<path d="M332.5 26.3799V56.3799" stroke="#F0EBE6"/>
<defs>
<filter id="filter0_b_961_2371" x="227.647" y="-35.9321" width="40.1708" height="40.1678" filterUnits="userSpaceOnUse" color-interpolation-filters="sRGB">
<feFlood flood-opacity="0" result="BackgroundImageFix"/>
<feGaussianBlur in="BackgroundImageFix" stdDeviation="2.71359"/>
<feComposite in2="SourceAlpha" operator="in" result="effect1_backgroundBlur_961_2371"/>
<feBlend mode="normal" in="SourceGraphic" in2="effect1_backgroundBlur_961_2371" result="shape"/>
</filter>
<filter id="filter2_b_961_2371" x="232.984" y="-30.2699" width="39.6961" height="39.6966" filterUnits="userSpaceOnUse" color-interpolation-filters="sRGB">
<feFlood flood-opacity="0" result="BackgroundImageFix"/>
<feGaussianBlur in="BackgroundImageFix" stdDeviation="3.13107"/>
<feComposite in2="SourceAlpha" operator="in" result="effect1_backgroundBlur_961_2371"/>
<feBlend mode="normal" in="SourceGraphic" in2="effect1_backgroundBlur_961_2371" result="shape"/>
</filter>
<filter id="filter3_bd_961_2371" x="240.648" y="-23.0429" width="24.368" height="25.2455" filterUnits="userSpaceOnUse" color-interpolation-filters="sRGB">
<feFlood flood-opacity="0" result="BackgroundImageFix"/>
<feGaussianBlur in="BackgroundImageFix" stdDeviation="3.13107"/>
<feComposite in2="SourceAlpha" operator="in" result="effect1_backgroundBlur_961_2371"/>
<feColorMatrix in="SourceAlpha" type="matrix" values="0 0 0 0 0 0 0 0 0 0 0 0 0 0 0 0 0 0 127 0" result="hardAlpha"/>
<feOffset dx="2.08738" dy="2.08738"/>
<feGaussianBlur stdDeviation="2.08738"/>
<feColorMatrix type="matrix" values="0 0 0 0 1 0 0 0 0 0.447059 0 0 0 0 0.368627 0 0 0 0.5 0"/>
<feBlend mode="normal" in2="effect1_backgroundBlur_961_2371" result="effect2_dropShadow_961_2371"/>
<feBlend mode="normal" in="SourceGraphic" in2="effect2_dropShadow_961_2371" result="shape"/>
</filter>
<filter id="filter4_d_961_2371" x="151" y="53.8799" width="88" height="88" filterUnits="userSpaceOnUse" color-interpolation-filters="sRGB">
<feFlood flood-opacity="0" result="BackgroundImageFix"/>
<feColorMatrix in="SourceAlpha" type="matrix" values="0 0 0 0 0 0 0 0 0 0 0 0 0 0 0 0 0 0 127 0" result="hardAlpha"/>
<feOffset dy="2"/>
<feGaussianBlur stdDeviation="2"/>
<feComposite in2="hardAlpha" operator="out"/>
<feColorMatrix type="matrix" values="0 0 0 0 0.494118 0 0 0 0 0.494118 0 0 0 0 0.988235 0 0 0 0.21 0"/>
<feBlend mode="normal" in2="BackgroundImageFix" result="effect1_dropShadow_961_2371"/>
<feBlend mode="normal" in="SourceGraphic" in2="effect1_dropShadow_961_2371" result="shape"/>
</filter>
<filter id="filter5_d_961_2371" x="163" y="67.625" width="64" height="64" filterUnits="userSpaceOnUse" color-interpolation-filters="sRGB">
<feFlood flood-opacity="0" result="BackgroundImageFix"/>
<feColorMatrix in="SourceAlpha" type="matrix" values="0 0 0 0 0 0 0 0 0 0 0 0 0 0 0 0 0 0 127 0" result="hardAlpha"/>
<feOffset dy="4"/>
<feGaussianBlur stdDeviation="10"/>
<feComposite in2="hardAlpha" operator="out"/>
<feColorMatrix type="matrix" values="0 0 0 0 0.494118 0 0 0 0 0.494118 0 0 0 0 0.988235 0 0 0 0.25 0"/>
<feBlend mode="normal" in2="BackgroundImageFix" result="effect1_dropShadow_961_2371"/>
<feBlend mode="normal" in="SourceGraphic" in2="effect1_dropShadow_961_2371" result="shape"/>
</filter>
<linearGradient id="paint0_linear_961_2371" x1="250.061" y1="-14.6452" x2="230.618" y2="2.21554" gradientUnits="userSpaceOnUse">
<stop stop-color="#FFA78F"/>
<stop offset="1" stop-color="#F23E2C"/>
</linearGradient>
<linearGradient id="paint1_linear_961_2371" x1="257.916" y1="-14.4836" x2="244.719" y2="-14.083" gradientUnits="userSpaceOnUse">
<stop stop-color="white"/>
<stop offset="1" stop-color="white" stop-opacity="0.2"/>
</linearGradient>
<linearGradient id="paint2_linear_961_2371" x1="258.248" y1="-10.1512" x2="246.729" y2="-9.70436" gradientUnits="userSpaceOnUse">
<stop stop-color="white"/>
<stop offset="1" stop-color="white" stop-opacity="0"/>
</linearGradient>
<linearGradient id="paint3_linear_961_2371" x1="-25" y1="55.8799" x2="-25" y2="135.88" gradientUnits="userSpaceOnUse">
<stop stop-color="#F0EBE6"/>
<stop offset="1" stop-color="#F0EBE6" stop-opacity="0.4"/>
</linearGradient>
<linearGradient id="paint4_linear_961_2371" x1="85" y1="55.8799" x2="85" y2="135.88" gradientUnits="userSpaceOnUse">
<stop stop-color="#F0EBE6"/>
<stop offset="1" stop-color="#F0EBE6" stop-opacity="0.4"/>
</linearGradient>
<linearGradient id="paint5_linear_961_2371" x1="202.203" y1="114.625" x2="202.203" y2="107.125" gradientUnits="userSpaceOnUse">
<stop stop-color="#7E7EFC" stop-opacity="0"/>
<stop offset="1" stop-color="#7E7EFC"/>
</linearGradient>
<linearGradient id="paint6_linear_961_2371" x1="187.805" y1="114.625" x2="187.805" y2="107.125" gradientUnits="userSpaceOnUse">
<stop stop-color="#7E7EFC" stop-opacity="0"/>
<stop offset="1" stop-color="#7E7EFC"/>
</linearGradient>
<linearGradient id="paint7_linear_961_2371" x1="7.5" y1="-1.13649e-06" x2="0" y2="-1.04193e-06" gradientUnits="userSpaceOnUse">
<stop stop-color="#7E7EFC" stop-opacity="0"/>
<stop offset="1" stop-color="#7E7EFC"/>
</linearGradient>
<linearGradient id="paint8_linear_961_2371" x1="7.5" y1="-1.13649e-06" x2="0" y2="-1.04193e-06" gradientUnits="userSpaceOnUse">
<stop stop-color="#7E7EFC" stop-opacity="0"/>
<stop offset="1" stop-color="#7E7EFC"/>
</linearGradient>
<linearGradient id="paint9_linear_961_2371" x1="204.897" y1="107.625" x2="185.992" y2="106.454" gradientUnits="userSpaceOnUse">
<stop stop-color="#6F6CFF"/>
<stop offset="0.526042" stop-color="#B9E1F2"/>
<stop offset="1" stop-color="#7B78FC"/>
</linearGradient>
<linearGradient id="paint10_linear_961_2371" x1="200.344" y1="100.875" x2="190.714" y2="100.138" gradientUnits="userSpaceOnUse">
<stop stop-color="#6F6CFF"/>
<stop offset="0.526042" stop-color="#B9E1F2"/>
<stop offset="1" stop-color="#7B78FC"/>
</linearGradient>
<linearGradient id="paint11_linear_961_2371" x1="200.344" y1="100.875" x2="190.714" y2="100.138" gradientUnits="userSpaceOnUse">
<stop stop-color="#6F6CFF"/>
<stop offset="0.526042" stop-color="#B9E1F2"/>
<stop offset="1" stop-color="#7B78FC"/>
</linearGradient>
<linearGradient id="paint12_linear_961_2371" x1="200.344" y1="100.875" x2="190.714" y2="100.138" gradientUnits="userSpaceOnUse">
<stop stop-color="#6F6CFF"/>
<stop offset="0.526042" stop-color="#B9E1F2"/>
<stop offset="1" stop-color="#7B78FC"/>
</linearGradient>
<linearGradient id="paint13_linear_961_2371" x1="200.344" y1="100.875" x2="190.714" y2="100.138" gradientUnits="userSpaceOnUse">
<stop stop-color="#6F6CFF"/>
<stop offset="0.526042" stop-color="#B9E1F2"/>
<stop offset="1" stop-color="#7B78FC"/>
</linearGradient>
<linearGradient id="paint14_linear_961_2371" x1="305" y1="55.8799" x2="305" y2="135.88" gradientUnits="userSpaceOnUse">
<stop stop-color="#F0EBE6"/>
<stop offset="1" stop-color="#F0EBE6" stop-opacity="0.4"/>
</linearGradient>
<linearGradient id="paint15_linear_961_2371" x1="415" y1="55.8799" x2="415" y2="135.88" gradientUnits="userSpaceOnUse">
<stop stop-color="#F0EBE6"/>
<stop offset="1" stop-color="#F0EBE6" stop-opacity="0.4"/>
</linearGradient>
</defs>
</svg>
