<svg width="16" height="17" viewBox="0 0 16 17" fill="none" xmlns="http://www.w3.org/2000/svg">
<path d="M9.33464 7.83331H5.33464M6.66797 10.5H5.33464M10.668 5.16665H5.33464M13.3346 7.49998V5.03331C13.3346 3.91321 13.3346 3.35316 13.1166 2.92533C12.9249 2.54901 12.6189 2.24305 12.2426 2.0513C11.8148 1.83331 11.2547 1.83331 10.1346 1.83331H5.86797C4.74786 1.83331 4.18781 1.83331 3.75999 2.0513C3.38366 2.24305 3.0777 2.54901 2.88596 2.92533C2.66797 3.35316 2.66797 3.91321 2.66797 5.03331V11.9666C2.66797 13.0868 2.66797 13.6468 2.88596 14.0746C3.0777 14.451 3.38366 14.7569 3.75999 14.9487C4.18781 15.1666 4.74786 15.1666 5.86797 15.1666H7.66797M14.668 15.1666L13.668 14.1666M14.3346 12.5C14.3346 13.7886 13.29 14.8333 12.0013 14.8333C10.7126 14.8333 9.66797 13.7886 9.66797 12.5C9.66797 11.2113 10.7126 10.1666 12.0013 10.1666C13.29 10.1666 14.3346 11.2113 14.3346 12.5Z" stroke="#52B588" stroke-width="1.33333" stroke-linecap="round" stroke-linejoin="round"/>
</svg>
