<svg width="624" height="259" viewBox="0 0 624 259" fill="none" xmlns="http://www.w3.org/2000/svg">
<g clip-path="url(#clip0_624_4583)">
<rect width="624" height="258" transform="translate(0 0.254883)" fill="#0B0C17"/>
<rect x="175.32" y="44.3623" width="273.357" height="263.786" rx="19.5" fill="url(#paint0_linear_624_4583)" stroke="url(#paint1_linear_624_4583)" stroke-dasharray="12 12"/>
<rect x="217.5" y="76.7549" width="189" height="189" rx="19.5" fill="url(#paint2_linear_624_4583)" stroke="url(#paint3_linear_624_4583)" stroke-dasharray="12 12"/>
<rect x="255.5" y="113.755" width="113" height="113" rx="19.5" fill="url(#paint4_linear_624_4583)" stroke="url(#paint5_linear_624_4583)" stroke-dasharray="12 12"/>
<path d="M297.332 181.255H302.832M297.332 170.255H306.499M297.332 159.255H326.665M321.165 167.505L323.915 173.005L329.415 175.755L323.915 178.505L321.165 184.005L318.415 178.505L312.915 175.755L318.415 173.005L321.165 167.505Z" stroke="url(#paint6_linear_624_4583)" stroke-width="2" stroke-linecap="square"/>
</g>
<defs>
<linearGradient id="paint0_linear_624_4583" x1="188.89" y1="61.0734" x2="335.379" y2="116.546" gradientUnits="userSpaceOnUse">
<stop stop-color="#111322"/>
<stop offset="1" stop-color="#0B0C17"/>
</linearGradient>
<linearGradient id="paint1_linear_624_4583" x1="197" y1="91.2549" x2="286.092" y2="186.114" gradientUnits="userSpaceOnUse">
<stop stop-color="#303251"/>
<stop offset="1" stop-opacity="0"/>
</linearGradient>
<linearGradient id="paint2_linear_624_4583" x1="226.744" y1="88.6049" x2="367.179" y2="165.561" gradientUnits="userSpaceOnUse">
<stop stop-color="#111322"/>
<stop offset="1" stop-color="#0B0C17"/>
</linearGradient>
<linearGradient id="paint3_linear_624_4583" x1="232.36" y1="110.262" x2="296.391" y2="176.059" gradientUnits="userSpaceOnUse">
<stop stop-color="#303251"/>
<stop offset="1" stop-opacity="0"/>
</linearGradient>
<linearGradient id="paint4_linear_624_4583" x1="260.846" y1="120.665" x2="345.107" y2="166.839" gradientUnits="userSpaceOnUse">
<stop stop-color="#111322"/>
<stop offset="1" stop-color="#0B0C17"/>
</linearGradient>
<linearGradient id="paint5_linear_624_4583" x1="264.216" y1="133.659" x2="302.635" y2="173.137" gradientUnits="userSpaceOnUse">
<stop stop-color="#303251"/>
<stop offset="1" stop-opacity="0"/>
</linearGradient>
<linearGradient id="paint6_linear_624_4583" x1="297.818" y1="158.88" x2="323.991" y2="195.121" gradientUnits="userSpaceOnUse">
<stop stop-color="#8C8FBE"/>
<stop offset="0.506088" stop-color="#8C8FBE"/>
<stop offset="1" stop-color="#8C8FBE" stop-opacity="0"/>
</linearGradient>
<clipPath id="clip0_624_4583">
<rect width="624" height="258" fill="white" transform="translate(0 0.254883)"/>
</clipPath>
</defs>
</svg>
