<svg width="1320" height="547" viewBox="0 0 1320 547" fill="none" xmlns="http://www.w3.org/2000/svg">
<rect y="0.521973" width="1320" height="546" rx="20" fill="#F7F3F0"/>
<g clip-path="url(#clip0_0_1355)">
<line x1="250.5" y1="18.522" x2="250.5" y2="899.522" stroke="url(#paint0_linear_0_1355)" stroke-opacity="0.6"/>
<line x1="250.5" y1="18.522" x2="250.5" y2="899.522" stroke="url(#paint1_linear_0_1355)" stroke-opacity="0.6"/>
<line x1="250.5" y1="18.522" x2="250.5" y2="899.522" stroke="url(#paint2_linear_0_1355)" stroke-opacity="0.6"/>
<line x1="320.5" y1="18.522" x2="320.5" y2="899.522" stroke="url(#paint3_linear_0_1355)" stroke-opacity="0.6"/>
<line x1="320.5" y1="18.522" x2="320.5" y2="899.522" stroke="url(#paint4_linear_0_1355)" stroke-opacity="0.6"/>
<line x1="320.5" y1="18.522" x2="320.5" y2="899.522" stroke="url(#paint5_linear_0_1355)" stroke-opacity="0.6"/>
<line x1="320.5" y1="18.522" x2="320.5" y2="899.522" stroke="url(#paint6_linear_0_1355)" stroke-opacity="0.6"/>
<line x1="320.5" y1="18.522" x2="320.5" y2="899.522" stroke="url(#paint7_linear_0_1355)" stroke-opacity="0.6"/>
<line x1="390.5" y1="18.522" x2="390.5" y2="899.522" stroke="url(#paint8_linear_0_1355)" stroke-opacity="0.6"/>
<line x1="460.5" y1="18.522" x2="460.5" y2="899.522" stroke="url(#paint9_linear_0_1355)" stroke-opacity="0.6"/>
<line x1="530.5" y1="18.522" x2="530.5" y2="899.522" stroke="url(#paint10_linear_0_1355)" stroke-opacity="0.6"/>
<line x1="600.5" y1="18.522" x2="600.5" y2="899.522" stroke="url(#paint11_linear_0_1355)" stroke-opacity="0.6"/>
<line x1="43.5" y1="18.522" x2="43.5" y2="899.522" stroke="url(#paint12_linear_0_1355)" stroke-opacity="0.6"/>
<line x1="113.5" y1="18.522" x2="113.5" y2="899.522" stroke="url(#paint13_linear_0_1355)" stroke-opacity="0.6"/>
<line x1="183.5" y1="18.522" x2="183.5" y2="899.522" stroke="url(#paint14_linear_0_1355)" stroke-opacity="0.6"/>
<line x1="670.5" y1="18.522" x2="670.5" y2="899.522" stroke="url(#paint15_linear_0_1355)" stroke-opacity="0.6"/>
<line x1="740.5" y1="18.522" x2="740.5" y2="899.522" stroke="url(#paint16_linear_0_1355)" stroke-opacity="0.6"/>
<line x1="810.5" y1="18.522" x2="810.5" y2="899.522" stroke="url(#paint17_linear_0_1355)" stroke-opacity="0.6"/>
<line x1="880.5" y1="18.522" x2="880.5" y2="899.522" stroke="url(#paint18_linear_0_1355)" stroke-opacity="0.6"/>
<line x1="950.5" y1="18.522" x2="950.5" y2="899.522" stroke="url(#paint19_linear_0_1355)" stroke-opacity="0.6"/>
<line x1="1020.5" y1="18.522" x2="1020.5" y2="899.522" stroke="url(#paint20_linear_0_1355)" stroke-opacity="0.6"/>
<line x1="1090.5" y1="18.522" x2="1090.5" y2="899.522" stroke="url(#paint21_linear_0_1355)" stroke-opacity="0.6"/>
<line x1="1160.5" y1="18.522" x2="1160.5" y2="899.522" stroke="url(#paint22_linear_0_1355)" stroke-opacity="0.6"/>
<line x1="1230.5" y1="18.522" x2="1230.5" y2="899.522" stroke="url(#paint23_linear_0_1355)" stroke-opacity="0.6"/>
<line opacity="0.5" x1="11" y1="464.022" x2="1369" y2="464.022" stroke="#E3E1E0" stroke-opacity="0.6"/>
<line opacity="0.5" x1="11" y1="394.022" x2="1369" y2="394.022" stroke="#E3E1E0" stroke-opacity="0.6"/>
<line opacity="0.6" x1="11" y1="324.021" x2="1369" y2="324.022" stroke="#E3E1E0" stroke-opacity="0.6"/>
<line opacity="0.7" x1="11" y1="254.021" x2="1369" y2="254.022" stroke="#E3E1E0" stroke-opacity="0.6"/>
<line opacity="0.8" x1="11" y1="184.021" x2="1369" y2="184.022" stroke="#E3E1E0" stroke-opacity="0.6"/>
<line opacity="0.9" x1="11" y1="114.021" x2="1369" y2="114.022" stroke="#E3E1E0" stroke-opacity="0.6"/>
<path d="M11 44.5215C541.332 44.5215 838.668 44.5215 1369 44.5215" stroke="#E3E1E0" stroke-opacity="0.6"/>
</g>
<defs>
<linearGradient id="paint0_linear_0_1355" x1="323.997" y1="38.0207" x2="1.03473" y2="753.677" gradientUnits="userSpaceOnUse">
<stop stop-color="#EAE8E6"/>
<stop offset="1" stop-color="#F1EFED" stop-opacity="0"/>
</linearGradient>
<linearGradient id="paint1_linear_0_1355" x1="323.997" y1="38.0207" x2="1.03473" y2="753.677" gradientUnits="userSpaceOnUse">
<stop stop-color="#EAE8E6"/>
<stop offset="1" stop-color="#F1EFED" stop-opacity="0"/>
</linearGradient>
<linearGradient id="paint2_linear_0_1355" x1="323.997" y1="38.0207" x2="1.03473" y2="753.677" gradientUnits="userSpaceOnUse">
<stop stop-color="#EAE8E6"/>
<stop offset="1" stop-color="#F1EFED" stop-opacity="0"/>
</linearGradient>
<linearGradient id="paint3_linear_0_1355" x1="393.997" y1="38.0207" x2="71.0347" y2="753.677" gradientUnits="userSpaceOnUse">
<stop stop-color="#EAE8E6"/>
<stop offset="1" stop-color="#F1EFED" stop-opacity="0"/>
</linearGradient>
<linearGradient id="paint4_linear_0_1355" x1="393.997" y1="38.0207" x2="71.0347" y2="753.677" gradientUnits="userSpaceOnUse">
<stop stop-color="#EAE8E6"/>
<stop offset="1" stop-color="#F1EFED" stop-opacity="0"/>
</linearGradient>
<linearGradient id="paint5_linear_0_1355" x1="393.997" y1="38.0207" x2="71.0347" y2="753.677" gradientUnits="userSpaceOnUse">
<stop stop-color="#EAE8E6"/>
<stop offset="1" stop-color="#F1EFED" stop-opacity="0"/>
</linearGradient>
<linearGradient id="paint6_linear_0_1355" x1="393.997" y1="38.0207" x2="71.0347" y2="753.677" gradientUnits="userSpaceOnUse">
<stop stop-color="#EAE8E6"/>
<stop offset="1" stop-color="#F1EFED" stop-opacity="0"/>
</linearGradient>
<linearGradient id="paint7_linear_0_1355" x1="393.997" y1="38.0207" x2="71.0347" y2="753.677" gradientUnits="userSpaceOnUse">
<stop stop-color="#EAE8E6"/>
<stop offset="1" stop-color="#F1EFED" stop-opacity="0"/>
</linearGradient>
<linearGradient id="paint8_linear_0_1355" x1="463.997" y1="38.0207" x2="141.035" y2="753.677" gradientUnits="userSpaceOnUse">
<stop stop-color="#EAE8E6"/>
<stop offset="1" stop-color="#F1EFED" stop-opacity="0"/>
</linearGradient>
<linearGradient id="paint9_linear_0_1355" x1="533.997" y1="38.0207" x2="211.035" y2="753.677" gradientUnits="userSpaceOnUse">
<stop stop-color="#EAE8E6"/>
<stop offset="1" stop-color="#F1EFED" stop-opacity="0"/>
</linearGradient>
<linearGradient id="paint10_linear_0_1355" x1="603.997" y1="38.0207" x2="281.035" y2="753.677" gradientUnits="userSpaceOnUse">
<stop stop-color="#EAE8E6"/>
<stop offset="1" stop-color="#F1EFED" stop-opacity="0"/>
</linearGradient>
<linearGradient id="paint11_linear_0_1355" x1="673.997" y1="38.0207" x2="351.035" y2="753.677" gradientUnits="userSpaceOnUse">
<stop stop-color="#EAE8E6"/>
<stop offset="1" stop-color="#F1EFED" stop-opacity="0"/>
</linearGradient>
<linearGradient id="paint12_linear_0_1355" x1="116.997" y1="38.0207" x2="-205.965" y2="753.677" gradientUnits="userSpaceOnUse">
<stop stop-color="#EAE8E6"/>
<stop offset="1" stop-color="#F1EFED" stop-opacity="0"/>
</linearGradient>
<linearGradient id="paint13_linear_0_1355" x1="186.997" y1="38.0207" x2="-135.965" y2="753.677" gradientUnits="userSpaceOnUse">
<stop stop-color="#EAE8E6"/>
<stop offset="1" stop-color="#F1EFED" stop-opacity="0"/>
</linearGradient>
<linearGradient id="paint14_linear_0_1355" x1="256.997" y1="38.0207" x2="-65.9653" y2="753.677" gradientUnits="userSpaceOnUse">
<stop stop-color="#EAE8E6"/>
<stop offset="1" stop-color="#F1EFED" stop-opacity="0"/>
</linearGradient>
<linearGradient id="paint15_linear_0_1355" x1="743.997" y1="38.0207" x2="421.035" y2="753.677" gradientUnits="userSpaceOnUse">
<stop stop-color="#EAE8E6"/>
<stop offset="1" stop-color="#F1EFED" stop-opacity="0"/>
</linearGradient>
<linearGradient id="paint16_linear_0_1355" x1="813.997" y1="38.0207" x2="491.035" y2="753.677" gradientUnits="userSpaceOnUse">
<stop stop-color="#EAE8E6"/>
<stop offset="1" stop-color="#F1EFED" stop-opacity="0"/>
</linearGradient>
<linearGradient id="paint17_linear_0_1355" x1="883.997" y1="38.0207" x2="561.035" y2="753.677" gradientUnits="userSpaceOnUse">
<stop stop-color="#EAE8E6"/>
<stop offset="1" stop-color="#F1EFED" stop-opacity="0"/>
</linearGradient>
<linearGradient id="paint18_linear_0_1355" x1="953.997" y1="38.0207" x2="631.035" y2="753.677" gradientUnits="userSpaceOnUse">
<stop stop-color="#EAE8E6"/>
<stop offset="1" stop-color="#F1EFED" stop-opacity="0"/>
</linearGradient>
<linearGradient id="paint19_linear_0_1355" x1="1024" y1="38.0207" x2="701.035" y2="753.677" gradientUnits="userSpaceOnUse">
<stop stop-color="#EAE8E6"/>
<stop offset="1" stop-color="#F1EFED" stop-opacity="0"/>
</linearGradient>
<linearGradient id="paint20_linear_0_1355" x1="1094" y1="38.0207" x2="771.035" y2="753.677" gradientUnits="userSpaceOnUse">
<stop stop-color="#EAE8E6"/>
<stop offset="1" stop-color="#F1EFED" stop-opacity="0"/>
</linearGradient>
<linearGradient id="paint21_linear_0_1355" x1="1164" y1="38.0207" x2="841.035" y2="753.677" gradientUnits="userSpaceOnUse">
<stop stop-color="#EAE8E6"/>
<stop offset="1" stop-color="#F1EFED" stop-opacity="0"/>
</linearGradient>
<linearGradient id="paint22_linear_0_1355" x1="1234" y1="38.0207" x2="911.035" y2="753.677" gradientUnits="userSpaceOnUse">
<stop stop-color="#EAE8E6"/>
<stop offset="1" stop-color="#F1EFED" stop-opacity="0"/>
</linearGradient>
<linearGradient id="paint23_linear_0_1355" x1="1304" y1="38.0207" x2="981.035" y2="753.677" gradientUnits="userSpaceOnUse">
<stop stop-color="#EAE8E6"/>
<stop offset="1" stop-color="#F1EFED" stop-opacity="0"/>
</linearGradient>
<clipPath id="clip0_0_1355">
<rect width="1298" height="508" fill="white" transform="translate(11 18.522)"/>
</clipPath>
</defs>
</svg>
