<svg width="81" height="44" viewBox="0 0 81 44" fill="none" xmlns="http://www.w3.org/2000/svg">
<path d="M29.2301 15.1776C28.4933 15.1776 27.8449 15.0352 27.2849 14.7502C26.7249 14.4554 26.2927 14.0428 25.988 13.5124C25.6835 12.9818 25.5312 12.3726 25.5312 11.6849V8.11862C25.5312 7.42107 25.6835 6.81195 25.988 6.29124C26.2927 5.76072 26.7249 5.353 27.2849 5.06808C27.8449 4.77335 28.4933 4.62598 29.2301 4.62598C29.9572 4.62598 30.5957 4.76844 31.146 5.05335C31.706 5.33826 32.1383 5.72634 32.4429 6.21756C32.7474 6.70879 32.8996 7.26388 32.8996 7.88283V8.00072C32.8996 8.04984 32.8801 8.09406 32.8407 8.13335C32.8113 8.16283 32.7718 8.17756 32.7228 8.17756H31.3818C31.3327 8.17756 31.2885 8.16283 31.2491 8.13335C31.2197 8.09406 31.2049 8.04984 31.2049 8.00072V7.92703C31.2049 7.39651 31.0232 6.95931 30.6596 6.61546C30.306 6.27159 29.8294 6.09967 29.2301 6.09967C28.6309 6.09967 28.1494 6.28142 27.786 6.64492C27.4224 6.99862 27.2407 7.47019 27.2407 8.05967V11.7439C27.2407 12.3334 27.4322 12.8098 27.8154 13.1733C28.1985 13.527 28.6947 13.7038 29.3039 13.7038C29.8934 13.7038 30.355 13.5516 30.689 13.247C31.0329 12.9326 31.2049 12.5053 31.2049 11.9649V11.0512C31.2049 11.0021 31.1804 10.9776 31.1312 10.9776H29.3186C29.2696 10.9776 29.2252 10.9628 29.186 10.9333C29.1565 10.8941 29.1417 10.8498 29.1417 10.8007V9.71019C29.1417 9.66107 29.1565 9.62178 29.186 9.5923C29.2252 9.553 29.2696 9.53335 29.3186 9.53335H32.7228C32.7718 9.53335 32.8113 9.553 32.8407 9.5923C32.8801 9.62178 32.8996 9.66107 32.8996 9.71019V11.5965C32.8996 12.7263 32.5656 13.6057 31.8976 14.2344C31.2393 14.8632 30.3501 15.1776 29.2301 15.1776ZM36.7648 13.4976C36.7452 13.5172 36.7353 13.5369 36.7353 13.5565C36.7452 13.5761 36.7648 13.586 36.7943 13.586H40.9942C41.0434 13.586 41.0826 13.6057 41.1122 13.6449C41.1514 13.6744 41.1712 13.7137 41.1712 13.7628V14.8828C41.1712 14.932 41.1514 14.9761 41.1122 15.0154C41.0826 15.0449 41.0434 15.0597 40.9942 15.0597H34.6575C34.6084 15.0597 34.5642 15.0449 34.5249 15.0154C34.4954 14.9761 34.4806 14.932 34.4806 14.8828V13.8218C34.4806 13.7333 34.5101 13.6597 34.569 13.6008C35.3157 12.8049 36.1802 11.8274 37.1626 10.6681L37.8553 9.85756C38.7592 8.80634 39.2112 8.01055 39.2112 7.47019C39.2112 7.06739 39.0688 6.73826 38.7838 6.48283C38.499 6.22739 38.1304 6.09967 37.6785 6.09967C37.2265 6.09967 36.8581 6.22739 36.5732 6.48283C36.2981 6.73826 36.1607 7.0772 36.1607 7.49967V7.88283C36.1607 7.93195 36.1409 7.97616 36.1017 8.01546C36.0722 8.04492 36.0329 8.05967 35.9837 8.05967H34.6132C34.5641 8.05967 34.5198 8.04492 34.4806 8.01546C34.4513 7.97616 34.4364 7.93195 34.4364 7.88283V7.24914C34.456 6.71862 34.6084 6.25686 34.8932 5.86388C35.1781 5.4709 35.5613 5.16634 36.0427 4.95019C36.534 4.73406 37.0792 4.62598 37.6785 4.62598C38.3368 4.62598 38.9115 4.74879 39.4027 4.9944C39.8941 5.24002 40.2724 5.57896 40.5375 6.01124C40.8027 6.4337 40.9354 6.91019 40.9354 7.44072C40.9354 8.24634 40.508 9.17475 39.6532 10.226C39.1817 10.8155 38.4057 11.6997 37.3249 12.8786L36.7648 13.4976Z" fill="black"/>
<mask id="mask0_1712_2984" style="mask-type:luminance" maskUnits="userSpaceOnUse" x="1" y="2" width="19" height="17">
<path d="M19.4323 2.03345H1.77344V18.8897H19.4323V2.03345Z" fill="white"/>
</mask>
<g mask="url(#mask0_1712_2984)">
<path d="M10.6029 18.8898C15.4793 18.8898 19.4323 15.1163 19.4323 10.4616C19.4323 5.80686 15.4793 2.03345 10.6029 2.03345C5.72655 2.03345 1.77344 5.80686 1.77344 10.4616C1.77344 15.1163 5.72655 18.8898 10.6029 18.8898Z" fill="#FF492C"/>
<path d="M14.4234 8.49157H12.9153C12.9559 8.26569 13.1025 8.13928 13.3992 7.996L13.6764 7.86114C14.1726 7.61841 14.4375 7.34365 14.4375 6.89528C14.4375 6.61378 14.3227 6.39128 14.0949 6.23114C13.8671 6.07101 13.5987 5.99178 13.2844 5.99178C13.0412 5.98905 12.8025 6.05408 12.5975 6.17889C12.3908 6.30025 12.2372 6.45701 12.1419 6.65254L12.578 7.07058C12.7476 6.74357 12.993 6.58344 13.3162 6.58344C13.5899 6.58344 13.7577 6.71829 13.7577 6.9054C13.7577 7.06216 13.6764 7.19194 13.3621 7.34365L13.1837 7.42625C12.797 7.61336 12.5286 7.82744 12.3732 8.07016C12.2178 8.31289 12.1419 8.618 12.1419 8.98714V9.08828H14.4234V8.49157ZM14.2221 9.77602H11.7251L10.4766 11.8392H12.9736L14.2221 13.9041L15.4706 11.8392L14.2221 9.77602Z" fill="white"/>
<path d="M10.6897 13.2062C9.10038 13.2062 7.80598 11.9706 7.80598 10.4535C7.80598 8.93647 9.10038 7.70091 10.6897 7.70091L11.6768 5.7304C11.3518 5.6687 11.0211 5.63764 10.6897 5.6377C7.90311 5.6377 5.64453 7.79361 5.64453 10.4535C5.64453 13.1135 7.90311 15.2693 10.6897 15.2693C11.7576 15.2713 12.7982 14.9476 13.6599 14.3456L12.5686 12.5387C12.0465 12.9692 11.3796 13.2061 10.6897 13.2062Z" fill="white"/>
</g>
<mask id="mask1_1712_2984" style="mask-type:luminance" maskUnits="userSpaceOnUse" x="1" y="28" width="79" height="15">
<path d="M79.9253 28.4919H1.77344V42.9402H79.9253V28.4919Z" fill="white"/>
</mask>
<g mask="url(#mask1_1712_2984)">
<path d="M66.0564 34.3322L70.1531 33.6701L72.3589 29.9978L73.0574 31.5888L74.1136 32.6209L74.6417 33.6701V40.877L72.2961 39.63L68.4514 41.436L68.9557 37.2821L66.0564 34.3322ZM3.09375 34.4526L7.19042 33.7905L9.3333 29.8774L11.2871 33.7302L15.6989 34.4526L12.6107 37.3424L13.2409 41.5564L9.3333 39.7504L5.4257 41.5564L5.92991 37.4025L3.09375 34.4526ZM18.787 34.4526L22.8837 33.7905L25.0266 29.8774L27.0434 33.7302L31.3923 34.4526L28.304 37.3424L28.9973 41.5564L25.0266 39.7504L21.1821 41.5564L21.6862 37.4025L18.787 34.4526ZM34.7956 34.4526L38.8923 33.7905L41.0353 29.8774L42.989 33.7302L47.4009 34.4526L44.3125 37.3424L45.0059 41.5564L41.0353 39.7504L37.1277 41.5564L37.6319 37.4025L34.7956 34.4526ZM50.3001 34.4526L54.3967 33.7905L56.5396 29.8774L58.5564 33.7302L62.9053 34.4526L59.817 37.3424L60.5102 41.5564L56.5396 39.7504L52.695 41.5564L53.1992 37.4025L50.3001 34.4526Z" fill="#FF492C"/>
<path d="M16.8995 34.0837L11.6684 33.3613L9.33653 28.8462L7.00457 33.3613L1.77344 34.0837L5.55499 37.5754L4.67263 42.5721L9.33653 40.2242L14.0004 42.5721L13.118 37.5754L16.8995 34.0837ZM9.33653 39.1406L6.05919 40.8262L6.68945 37.3346L4.04236 34.8663L7.76088 34.3245L9.39955 31.1338L11.0382 34.3245L14.7567 34.8663L12.1096 37.3346L12.7399 40.8262L9.33653 39.1406ZM32.6561 34.0837L27.4249 33.3613L25.0929 28.8462L22.761 33.3613L17.5298 34.0837L21.3114 37.5754L20.429 42.5721L25.0929 40.2242L29.7569 42.5721L28.8745 37.5754L32.6561 34.0837ZM25.0929 39.1406L21.8155 40.8262L22.4458 37.3346L19.7987 34.8663L23.5173 34.3245L25.1559 31.1338L26.7946 34.3245L30.5131 34.8663L27.8661 37.3346L28.4963 40.8262L25.0929 39.1406ZM48.4125 34.0837L43.1813 33.3613L40.8494 28.8462L38.5174 33.3613L33.2862 34.0837L37.0678 37.5754L36.1854 42.5721L40.8494 40.2242L45.5133 42.5721L44.6309 37.5754L48.4125 34.0837ZM40.8494 39.1406L37.5721 40.8262L38.2023 37.3346L35.5551 34.8663L39.2737 34.3245L40.9123 31.1338L42.551 34.3245L46.2695 34.8663L43.6225 37.3346L44.2527 40.8262L40.8494 39.1406ZM64.1689 34.0837L58.9377 33.3613L56.6058 28.8462L54.2738 33.3613L49.0427 34.0837L52.8242 37.5754L51.9419 42.5721L56.6058 40.2242L61.2697 42.5721L60.3873 37.5754L64.1689 34.0837ZM56.6058 39.1406L53.3285 40.8262L53.9587 37.3346L51.3117 34.8663L55.0302 34.3245L56.6689 31.1338L58.3075 34.3245L62.0259 34.8663L59.3789 37.3346L60.0091 40.8262L56.6058 39.1406ZM79.9253 34.0837L74.6942 33.3613L72.3622 28.8462L70.0302 33.3613L64.7991 34.0837L68.5807 37.5754L67.6983 42.5721L72.3622 40.2242L77.0261 42.5721L76.1438 37.5754L79.9253 34.0837ZM72.3622 39.1406L69.0849 40.8262L69.7151 37.3346L67.0681 34.8663L70.7866 34.3245L72.4253 31.1338L74.0639 34.3245L77.7825 34.8663L75.1354 37.3346L75.7655 40.8262L72.3622 39.1406Z" fill="#FF492C"/>
</g>
</svg>
