<svg width="128" height="44" viewBox="0 0 128 44" fill="none" xmlns="http://www.w3.org/2000/svg">
<g id="Capterra 1" clip-path="url(#clip0_1775_665)">
<path id="Vector" d="M0.703125 10.2557H12.2855H19.3191V3.28519L0.703125 10.2557Z" fill="#FF9D28"/>
<path id="Vector_2" d="M19.3203 3.28518V27.924L28.1229 0L19.3203 3.28518Z" fill="#68C5ED"/>
<path id="Vector_3" d="M19.3188 10.2557H12.2852L19.3188 27.9029V10.2557Z" fill="#044D80"/>
<path id="Vector_4" d="M0.703125 10.2557L14.0966 14.7833L12.2855 10.2557H0.703125Z" fill="#E54747"/>
<path id="Vector_5" d="M43.3665 21.4169C43.2613 21.5222 43.0927 21.6485 42.8611 21.7959C42.6293 21.9433 42.3135 22.1118 41.9344 22.2592C41.5554 22.4066 41.092 22.554 40.5235 22.6593C39.9761 22.7646 39.3443 22.8278 38.6283 22.8278C37.2594 22.8278 36.0591 22.5962 35.0483 22.175C34.0375 21.7327 33.216 21.122 32.5634 20.3218C31.9105 19.5216 31.426 18.595 31.1313 17.521C30.8155 16.447 30.668 15.2466 30.668 13.962C30.668 12.6774 30.8366 11.4771 31.1734 10.382C31.5104 9.28696 31.9946 8.33932 32.6686 7.53908C33.3215 6.73885 34.1639 6.10709 35.1535 5.66486C36.1434 5.22262 37.3225 4.99097 38.6703 4.99097C39.3232 4.99097 39.9338 5.05414 40.4603 5.15942C40.9868 5.28579 41.4711 5.41214 41.8713 5.58062C42.2714 5.74907 42.6084 5.91755 42.8611 6.08603C43.1347 6.2545 43.3245 6.42296 43.4508 6.52826C43.5981 6.65461 43.7456 6.82309 43.8508 7.01261C43.9562 7.20215 44.0194 7.41274 44.0194 7.62332C44.0194 7.96025 43.893 8.29719 43.6403 8.63414C43.3877 8.97107 43.1138 9.28696 42.798 9.58179C42.5873 9.3712 42.3557 9.16062 42.103 8.95003C41.8504 8.73942 41.5554 8.5499 41.2395 8.38142C40.9237 8.21297 40.5658 8.08662 40.1656 7.98132C39.7654 7.87601 39.3232 7.81284 38.8178 7.81284C37.9543 7.81284 37.2173 7.98132 36.6276 8.33932C36.0379 8.69732 35.5748 9.13955 35.2167 9.70814C34.8588 10.2767 34.6061 10.9085 34.4586 11.6245C34.3111 12.3405 34.2271 13.0776 34.2271 13.8357C34.2271 14.6359 34.3111 15.394 34.4586 16.1311C34.6061 16.8681 34.8797 17.4999 35.2587 18.0685C35.638 18.6371 36.1222 19.0793 36.7328 19.4163C37.3437 19.7532 38.0806 19.9217 38.9862 19.9217C39.4707 19.9217 39.8917 19.8585 40.2919 19.7532C40.6921 19.6269 41.05 19.4795 41.3447 19.311C41.6608 19.1425 41.9135 18.953 42.1451 18.7845C42.3766 18.595 42.5662 18.4265 42.7136 18.3002C42.8189 18.4265 42.9243 18.5739 43.0715 18.7424C43.219 18.9108 43.3454 19.1004 43.4508 19.2688C43.5772 19.4584 43.6612 19.6479 43.7667 19.8375C43.8508 20.027 43.893 20.1954 43.893 20.3429C43.893 20.5745 43.8508 20.743 43.7667 20.9114C43.6824 21.0589 43.5349 21.2273 43.3665 21.4169ZM56.5073 19.4584C56.5073 20.8062 56.6968 21.7959 57.0967 22.4066C56.7809 22.533 56.5073 22.6172 56.2334 22.6593C55.9596 22.7014 55.686 22.7436 55.3911 22.7436C54.7805 22.7436 54.3171 22.6172 54.0012 22.3856C53.6854 22.1539 53.4747 21.7959 53.3904 21.3537C53.0114 21.7538 52.5271 22.0907 51.8954 22.3645C51.2845 22.6383 50.5265 22.7646 49.642 22.7646C49.1787 22.7646 48.7153 22.7015 48.2522 22.5751C47.7889 22.4487 47.3676 22.2382 46.9885 21.9433C46.6095 21.6485 46.3148 21.2694 46.0621 20.7851C45.8303 20.3007 45.7039 19.7111 45.7039 19.0162C45.7039 18.1527 45.9146 17.4367 46.3359 16.8892C46.757 16.3417 47.2835 15.9205 47.9152 15.6046C48.547 15.2887 49.2419 15.0782 49.9579 14.9518C50.6948 14.8254 51.3689 14.7623 51.9795 14.7202C52.1901 14.6991 52.3796 14.6991 52.5903 14.6991H53.1377V14.2358C53.1377 13.583 52.9693 13.1197 52.6114 12.8249C52.2533 12.5511 51.6847 12.4037 50.9055 12.4037C50.1686 12.4037 49.5157 12.53 48.9471 12.7617C48.3786 12.9933 47.8098 13.2671 47.2624 13.583C47.0308 13.2881 46.8201 12.9723 46.6938 12.6143C46.5463 12.2563 46.4831 12.0036 46.4831 11.8351C46.4831 11.6034 46.6095 11.3718 46.8833 11.1402C47.1572 10.9085 47.5151 10.719 47.9784 10.5294C48.4418 10.3399 48.968 10.2135 49.5789 10.0872C50.1686 9.98192 50.8003 9.91872 51.4741 9.91872C52.4008 9.91872 53.18 10.003 53.8117 10.1925C54.4435 10.382 54.97 10.6768 55.3699 11.0559C55.7701 11.456 56.0651 11.9404 56.2334 12.53C56.4018 13.1197 56.4861 13.8146 56.4861 14.5938L56.5073 19.4584ZM53.222 16.4891H52.8641C52.7378 16.4891 52.6323 16.4891 52.506 16.5101C52.0849 16.5523 51.6636 16.5944 51.2425 16.6576C50.8212 16.7207 50.4422 16.8471 50.1263 17.0156C49.8104 17.184 49.5368 17.4157 49.3262 17.6894C49.1155 17.9632 49.0103 18.3212 49.0103 18.7424C49.0103 19.2267 49.1367 19.6269 49.4102 19.9638C49.6841 20.3007 50.1474 20.4692 50.8003 20.4692C51.1162 20.4692 51.432 20.4271 51.7268 20.3429C52.0217 20.2586 52.2744 20.1533 52.506 20.0059C52.7378 19.8585 52.9062 19.7111 53.0325 19.5637C53.1589 19.3952 53.222 19.2478 53.222 19.1215V16.4891ZM62.888 11.435C63.1618 11.1191 63.5829 10.7822 64.1726 10.4452C64.7623 10.1083 65.4784 9.93979 66.3628 9.93979C66.9945 9.93979 67.6051 10.0451 68.1737 10.2557C68.7425 10.4663 69.2479 10.8243 69.6901 11.2876C70.1323 11.7719 70.4902 12.4037 70.7429 13.1829C71.0167 13.962 71.1431 14.9307 71.1431 16.089C71.1431 17.4157 70.9956 18.5318 70.6797 19.3952C70.3638 20.2586 69.9848 20.9536 69.5005 21.4379C69.0161 21.9433 68.4686 22.3013 67.8789 22.5119C67.2892 22.7225 66.6786 22.8278 66.089 22.8278C65.6047 22.8278 65.1625 22.7646 64.8043 22.6593C64.4464 22.554 64.1306 22.4277 63.8779 22.2803C63.6252 22.1539 63.4354 22.0065 63.2882 21.8802C63.1618 21.7538 63.0564 21.6485 63.0355 21.6064V27.924H59.5396V10.3189C59.6239 10.2978 59.7291 10.2767 59.8555 10.2767C59.9609 10.2557 60.0872 10.2557 60.2136 10.2346C60.3608 10.2346 60.5083 10.2135 60.6978 10.2135C61.2664 10.2135 61.7509 10.2978 62.1511 10.4873C62.5301 10.6768 62.7828 10.9927 62.888 11.435ZM67.521 16.1732C67.521 15.6678 67.4788 15.1834 67.3947 14.7412C67.3104 14.299 67.1629 13.9199 66.9734 13.583C66.7839 13.2671 66.51 13.0144 66.1733 12.8249C65.8363 12.6353 65.4361 12.5511 64.9518 12.5511C64.2358 12.5511 63.7304 12.6985 63.4566 12.9512C63.1827 13.225 63.0355 13.5198 63.0355 13.8567V19.311C63.1618 19.4584 63.4145 19.6058 63.7724 19.7953C64.1306 19.9849 64.5305 20.0691 64.9939 20.0691C65.8574 20.0691 66.4891 19.7321 66.9102 19.0372C67.3104 18.3633 67.521 17.4157 67.521 16.1732ZM73.8386 20.5956C73.7123 20.2586 73.6491 19.9006 73.607 19.5216C73.5648 19.1425 73.5648 18.7634 73.5648 18.3844V6.48613C73.6911 6.46509 73.8175 6.44402 73.9438 6.44402C74.0702 6.42296 74.1965 6.42296 74.3229 6.40192C74.4494 6.40192 74.5967 6.38085 74.723 6.38085C74.9969 6.38085 75.2707 6.40189 75.5443 6.46509C75.8181 6.5072 76.0708 6.6125 76.2815 6.78096C76.513 6.92837 76.6816 7.13895 76.8289 7.41274C76.9552 7.6865 77.0395 8.02343 77.0395 8.4446V10.2767H80.6407V12.867H77.0607V18.3423C77.0607 19.5426 77.5449 20.1323 78.5137 20.1323C78.7452 20.1323 78.977 20.0901 79.1877 20.027C79.3981 19.9427 79.5876 19.8585 79.7562 19.7743C79.9246 19.69 80.0721 19.5847 80.1984 19.4795C80.3248 19.3741 80.4089 19.2899 80.472 19.2478C80.725 19.6269 80.9354 19.9427 81.0617 20.2165C81.1881 20.4903 81.2724 20.743 81.2724 20.9957C81.2724 21.2273 81.1881 21.4379 80.9986 21.6485C80.809 21.8591 80.5563 22.0697 80.2405 22.2382C79.9246 22.4277 79.5244 22.5751 79.0611 22.6804C78.598 22.7857 78.0926 22.8488 77.5449 22.8488C76.4921 22.8488 75.6497 22.6383 75.06 22.2382C74.5126 21.7959 74.0913 21.2694 73.8386 20.5956ZM89.4854 20.2586C89.9065 20.2586 90.2855 20.2165 90.6225 20.1112C90.9384 20.027 91.2331 19.9006 91.5069 19.7743C91.7596 19.6479 91.9914 19.4795 92.181 19.332C92.3705 19.1636 92.5388 19.0162 92.6863 18.8898C92.8967 19.1425 93.1074 19.4795 93.3392 19.8796C93.5708 20.2797 93.676 20.6166 93.676 20.8693C93.676 21.2484 93.4656 21.5853 93.0442 21.9012C92.6863 22.175 92.181 22.4066 91.5069 22.6172C90.8541 22.8067 90.0751 22.912 89.1904 22.912C88.3903 22.912 87.59 22.8067 86.8107 22.5962C86.0318 22.3856 85.3369 22.0276 84.726 21.5222C84.1154 21.0168 83.6309 20.3218 83.2519 19.4584C82.8729 18.595 82.6833 17.4999 82.6833 16.1943C82.6833 15.1203 82.8517 14.1937 83.1887 13.4145C83.5257 12.6353 83.9679 11.9825 84.5154 11.4771C85.063 10.9717 85.6948 10.5926 86.4108 10.3399C87.1057 10.1083 87.8218 9.98192 88.5587 9.98192C89.5063 9.98192 90.3278 10.1293 91.0016 10.4241C91.6756 10.719 92.2018 11.1191 92.6232 11.6245C93.0442 12.1299 93.3392 12.6985 93.5287 13.3513C93.7182 14.0042 93.8023 14.678 93.8023 15.394V15.752C93.8023 15.8995 93.8023 16.0258 93.7814 16.1943C93.7814 16.3417 93.7603 16.4891 93.7603 16.6365C93.7603 16.7839 93.7391 16.8892 93.7182 16.9734H86.1581C86.2213 17.9211 86.516 18.7003 87.0425 19.332C87.5479 19.9427 88.3692 20.2586 89.4854 20.2586ZM90.6645 15.0571C90.6645 14.2358 90.4962 13.5619 90.1803 13.0565C89.8644 12.5511 89.2959 12.2773 88.4744 12.2773C87.7586 12.2773 87.2109 12.53 86.7898 13.0144C86.3685 13.4987 86.1581 14.1726 86.1581 15.0571H90.6645ZM99.8883 11.4981C99.9938 11.3507 100.12 11.1823 100.289 10.9927C100.457 10.8032 100.668 10.6347 100.92 10.4873C101.173 10.3399 101.447 10.2135 101.741 10.1083C102.036 10.003 102.352 9.96085 102.71 9.96085C102.921 9.96085 103.132 9.98189 103.363 10.003C103.595 10.0451 103.805 10.1083 103.995 10.1925C104.184 10.2767 104.353 10.4031 104.479 10.5715C104.606 10.74 104.669 10.9295 104.669 11.1612C104.669 11.5403 104.585 11.9614 104.395 12.4458C104.205 12.9301 104.016 13.3513 103.826 13.6883C103.531 13.4566 103.237 13.2671 102.963 13.1407C102.668 13.0144 102.331 12.9512 101.931 12.9512C101.405 12.9512 100.962 13.0986 100.604 13.4145C100.246 13.7304 100.057 14.0884 100.057 14.5306V22.8278H96.561V10.2978C96.6454 10.2767 96.7506 10.2557 96.8769 10.2557C96.9824 10.2346 97.1087 10.2346 97.2351 10.2135C97.3614 10.2135 97.5298 10.1925 97.7193 10.1925C98.267 10.1925 98.7512 10.2978 99.1514 10.5084C99.5304 10.74 99.7831 11.0559 99.8883 11.4981ZM109.807 11.4981C109.912 11.3507 110.039 11.1823 110.207 10.9927C110.376 10.8032 110.586 10.6347 110.839 10.4873C111.092 10.3399 111.365 10.2135 111.66 10.1083C111.955 10.003 112.271 9.96085 112.629 9.96085C112.84 9.96085 113.05 9.98189 113.282 10.003C113.513 10.0451 113.724 10.1083 113.914 10.1925C114.103 10.2767 114.272 10.4031 114.398 10.5715C114.524 10.74 114.588 10.9295 114.588 11.1612C114.588 11.5403 114.503 11.9614 114.314 12.4458C114.124 12.9301 113.935 13.3513 113.745 13.6883C113.45 13.4566 113.155 13.2671 112.882 13.1407C112.587 13.0144 112.25 12.9512 111.85 12.9512C111.323 12.9512 110.881 13.0986 110.523 13.4145C110.165 13.7304 109.976 14.0884 109.976 14.5306V22.8278H106.48V10.2978C106.564 10.2767 106.669 10.2557 106.796 10.2557C106.901 10.2346 107.027 10.2346 107.154 10.2135C107.28 10.2135 107.448 10.1925 107.638 10.1925C108.186 10.1925 108.67 10.2978 109.07 10.5084C109.449 10.74 109.702 11.0559 109.807 11.4981ZM126.465 19.4584C126.465 20.8062 126.654 21.7959 127.054 22.4066C126.738 22.533 126.465 22.6172 126.191 22.6593C125.917 22.7014 125.643 22.7436 125.349 22.7436C124.738 22.7436 124.274 22.6172 123.959 22.3856C123.643 22.1539 123.432 21.7959 123.348 21.3537C122.969 21.7538 122.484 22.0907 121.853 22.3645C121.242 22.6383 120.484 22.7646 119.599 22.7646C119.136 22.7646 118.673 22.7015 118.21 22.5751C117.746 22.4487 117.325 22.2382 116.946 21.9433C116.567 21.6485 116.272 21.2694 116.019 20.7851C115.788 20.3007 115.661 19.7111 115.661 19.0162C115.661 18.1527 115.872 17.4367 116.293 16.8892C116.715 16.3417 117.241 15.9205 117.873 15.6046C118.505 15.2887 119.199 15.0782 119.915 14.9518C120.652 14.8254 121.326 14.7623 121.937 14.7202C122.148 14.6991 122.337 14.6991 122.548 14.6991H123.095V14.2358C123.095 13.583 122.927 13.1197 122.569 12.8249C122.211 12.5511 121.642 12.4037 120.863 12.4037C120.126 12.4037 119.473 12.53 118.904 12.7617C118.336 12.9933 117.767 13.2671 117.22 13.583C116.988 13.2881 116.778 12.9723 116.651 12.6143C116.504 12.2563 116.441 12.0036 116.441 11.8351C116.441 11.6034 116.567 11.3718 116.841 11.1402C117.114 10.9085 117.473 10.719 117.936 10.5294C118.399 10.3399 118.926 10.2135 119.536 10.0872C120.126 9.98192 120.758 9.91872 121.432 9.91872C122.358 9.91872 123.137 10.003 123.769 10.1925C124.401 10.382 124.927 10.6768 125.327 11.0559C125.728 11.456 126.022 11.9404 126.191 12.53C126.359 13.1197 126.444 13.8146 126.444 14.5938L126.465 19.4584ZM123.18 16.4891H122.821C122.695 16.4891 122.59 16.4891 122.464 16.5101C122.042 16.5523 121.621 16.5944 121.2 16.6576C120.779 16.7207 120.4 16.8471 120.084 17.0156C119.768 17.184 119.494 17.4157 119.283 17.6894C119.073 17.9632 118.968 18.3212 118.968 18.7424C118.968 19.2267 119.094 19.6269 119.368 19.9638C119.642 20.3007 120.105 20.4692 120.758 20.4692C121.073 20.4692 121.39 20.4271 121.684 20.3429C121.979 20.2586 122.232 20.1533 122.464 20.0059C122.695 19.8585 122.863 19.7111 122.99 19.5637C123.116 19.3952 123.18 19.2478 123.18 19.1215V16.4891Z" fill="#044D80"/>
<path id="Vector_6" d="M34.3798 41.0606L30.7678 43.0824L31.5744 39.0224L28.5352 36.212L32.6458 35.7243L34.3798 31.9656L36.1137 35.7243L40.2244 36.212L37.185 39.0224L37.9917 43.0824L34.3798 41.0606Z" fill="#FF8300"/>
<path id="Vector_7" d="M49.1259 41.0606L45.5139 43.0824L46.3204 39.0224L43.2812 36.212L47.3919 35.7243L49.1259 31.9656L50.8598 35.7243L54.9705 36.212L51.9311 39.0224L52.7378 43.0824L49.1259 41.0606Z" fill="#FF8300"/>
<path id="Vector_8" d="M63.8759 41.0606L60.2639 43.0824L61.0704 39.0224L58.0312 36.212L62.1419 35.7243L63.8759 31.9656L65.6098 35.7243L69.7205 36.212L66.6811 39.0224L67.4878 43.0824L63.8759 41.0606Z" fill="#FF8300"/>
<path id="Vector_9" d="M78.6259 41.0606L75.0139 43.0824L75.8204 39.0224L72.7812 36.212L76.8919 35.7243L78.6259 31.9656L80.3598 35.7243L84.4705 36.212L81.4311 39.0224L82.2378 43.0824L78.6259 41.0606Z" fill="#FF8300"/>
<path id="Vector_10" d="M93.372 41.0606L89.76 43.0824L90.5665 39.0224L87.5273 36.212L91.638 35.7243L93.372 31.9656L95.1059 35.7243L99.2166 36.212L96.1772 39.0224L96.9839 43.0824L93.372 41.0606Z" fill="#FF8300"/>
</g>
<defs>
<clipPath id="clip0_1775_665">
<rect width="126.592" height="44" fill="white" transform="translate(0.703125)"/>
</clipPath>
</defs>
</svg>
