<svg width="1200" height="44" viewBox="0 0 1200 44" fill="none" xmlns="http://www.w3.org/2000/svg">
<g clip-path="url(#clip0_1712_2964)">
<mask id="mask0_1712_2964" style="mask-type:luminance" maskUnits="userSpaceOnUse" x="416" y="28" width="81" height="15">
<path d="M496.445 28.1069H416.703V42.3183H496.445V28.1069Z" fill="white"/>
</mask>
<g mask="url(#mask0_1712_2964)">
<path d="M431.655 28.1172H416.703V42.3285H431.655V28.1172Z" fill="#00B67A"/>
<path d="M447.854 28.1172H432.902V42.3285H447.854V28.1172Z" fill="#00B67A"/>
<path d="M464.049 28.1172H449.098V42.3285H464.049V28.1172Z" fill="#00B67A"/>
<path d="M480.248 28.1172H465.297V42.3285H480.248V28.1172Z" fill="#00B67A"/>
<path d="M496.445 28.1172H488.969V42.3285H496.445V28.1172Z" fill="#DCDCE6"/>
<path d="M493.213 28.1172H481.359V42.3285H493.213V28.1172Z" fill="#00B67A"/>
<path d="M424.178 37.6943L426.452 37.1466L427.402 39.9297L424.178 37.6943ZM429.411 34.0971H425.409L424.178 30.5146L422.948 34.0971H418.945L422.185 36.3177L420.954 39.9001L424.194 37.6795L426.187 36.3177L429.411 34.0971Z" fill="white"/>
<path d="M440.374 37.6943L442.648 37.1466L443.598 39.9297L440.374 37.6943ZM445.607 34.0971H441.604L440.374 30.5146L439.143 34.0971H435.141L438.38 36.3177L437.15 39.9001L440.389 37.6795L442.383 36.3177L445.607 34.0971Z" fill="white"/>
<path d="M456.577 37.6943L458.851 37.1466L459.801 39.9297L456.577 37.6943ZM461.81 34.0971H457.807L456.577 30.5146L455.346 34.0971H451.344L454.583 36.3177L453.353 39.9001L456.592 37.6795L458.586 36.3177L461.81 34.0971Z" fill="white"/>
<path d="M472.772 37.6943L475.046 37.1466L475.996 39.9297L472.772 37.6943ZM478.005 34.0971H474.002L472.772 30.5146L471.542 34.0971H467.539L470.778 36.3177L469.548 39.9001L472.788 37.6795L474.781 36.3177L478.005 34.0971Z" fill="white"/>
<path d="M488.967 37.6943L491.241 37.1466L492.191 39.9297L488.967 37.6943ZM494.2 34.0971H490.198L488.967 30.5146L487.737 34.0971H483.734L486.974 36.3177L485.744 39.9001L488.983 37.6795L490.977 36.3177L494.2 34.0971Z" fill="white"/>
</g>
<path d="M434.592 6.25269H441.484V7.54375H438.774V14.8014H437.284V7.54375H434.586V6.25269H434.592ZM441.19 8.6116H442.463V9.80614H442.488C442.53 9.63721 442.608 9.47432 442.722 9.31746C442.836 9.16061 442.974 9.00977 443.136 8.88309C443.299 8.75036 443.479 8.64779 443.677 8.56333C443.876 8.48491 444.08 8.44268 444.284 8.44268C444.44 8.44268 444.555 8.44871 444.615 8.45474C444.675 8.46078 444.735 8.47284 444.801 8.47888V9.79408C444.705 9.77598 444.609 9.76391 444.506 9.75185C444.404 9.73978 444.308 9.73375 444.212 9.73375C443.984 9.73375 443.767 9.78201 443.563 9.8725C443.359 9.96299 443.185 10.1018 443.034 10.2767C442.884 10.4577 442.764 10.6749 442.674 10.9403C442.584 11.2058 442.542 11.5075 442.542 11.8513V14.7954H441.184V8.6116H441.19ZM451.044 14.8014H449.71V13.9387H449.686C449.518 14.2524 449.272 14.4998 448.941 14.6868C448.611 14.8738 448.274 14.9704 447.931 14.9704C447.12 14.9704 446.531 14.7713 446.171 14.3671C445.81 13.9629 445.63 13.3536 445.63 12.5391V8.6116H446.988V12.4064C446.988 12.9494 447.09 13.3355 447.301 13.5587C447.505 13.7819 447.799 13.8965 448.172 13.8965C448.46 13.8965 448.695 13.8543 448.887 13.7638C449.079 13.6733 449.235 13.5587 449.35 13.4079C449.47 13.2631 449.554 13.0821 449.608 12.8769C449.662 12.6718 449.686 12.4486 449.686 12.2073V8.61763H451.044V14.8014ZM453.357 12.8166C453.4 13.2148 453.55 13.4923 453.808 13.6552C454.073 13.8121 454.385 13.8965 454.752 13.8965C454.878 13.8965 455.022 13.8844 455.184 13.8664C455.346 13.8483 455.503 13.806 455.641 13.7517C455.785 13.6974 455.899 13.613 455.995 13.5044C456.085 13.3958 456.128 13.257 456.122 13.0821C456.116 12.9071 456.05 12.7623 455.929 12.6537C455.809 12.5391 455.659 12.4546 455.473 12.3822C455.286 12.3159 455.076 12.2555 454.836 12.2073C454.595 12.159 454.355 12.1047 454.109 12.0504C453.856 11.9961 453.61 11.9237 453.376 11.8453C453.141 11.7669 452.931 11.6583 452.745 11.5195C452.558 11.3868 452.408 11.2118 452.3 11.0007C452.186 10.7895 452.132 10.5301 452.132 10.2164C452.132 9.87853 452.216 9.60101 452.378 9.37175C452.54 9.14251 452.751 8.96151 452.997 8.82276C453.249 8.68399 453.526 8.58747 453.832 8.52714C454.139 8.47284 454.433 8.44268 454.709 8.44268C455.028 8.44268 455.334 8.47888 455.623 8.54524C455.911 8.6116 456.176 8.72019 456.41 8.87705C456.644 9.02787 456.837 9.22697 456.993 9.46829C457.149 9.7096 457.245 10.0052 457.287 10.3491H455.869C455.803 10.0233 455.659 9.80011 455.425 9.6915C455.19 9.57688 454.92 9.52259 454.619 9.52259C454.523 9.52259 454.409 9.52862 454.277 9.54672C454.145 9.56482 454.024 9.59498 453.904 9.63721C453.79 9.67944 453.694 9.74581 453.61 9.83027C453.532 9.91473 453.49 10.0233 453.49 10.1621C453.49 10.331 453.55 10.4637 453.664 10.5663C453.778 10.6689 453.928 10.7533 454.115 10.8257C454.301 10.8921 454.511 10.9524 454.752 11.0007C454.992 11.0489 455.238 11.1032 455.491 11.1575C455.737 11.2118 455.977 11.2842 456.218 11.3627C456.458 11.4411 456.668 11.5497 456.855 11.6884C457.041 11.8272 457.191 11.9961 457.305 12.2012C457.419 12.4064 457.48 12.6658 457.48 12.9675C457.48 13.3355 457.395 13.6431 457.227 13.9025C457.059 14.1559 456.843 14.3671 456.578 14.5239C456.314 14.6808 456.013 14.8014 455.689 14.8738C455.364 14.9462 455.04 14.9824 454.722 14.9824C454.331 14.9824 453.97 14.9402 453.64 14.8497C453.309 14.7592 453.021 14.6265 452.781 14.4515C452.54 14.2705 452.348 14.0473 452.21 13.7819C452.072 13.5164 452 13.1967 451.987 12.8287H453.357V12.8166ZM457.84 8.6116H458.868V6.75342H460.226V8.6116H461.451V9.63118H460.226V12.9373C460.226 13.0821 460.232 13.2027 460.244 13.3113C460.256 13.4139 460.286 13.5044 460.328 13.5768C460.37 13.6492 460.436 13.7035 460.526 13.7397C460.616 13.7759 460.73 13.794 460.887 13.794C460.983 13.794 461.079 13.794 461.175 13.7879C461.271 13.7819 461.367 13.7698 461.463 13.7457V14.8014C461.313 14.8195 461.163 14.8316 461.025 14.8497C460.881 14.8678 460.736 14.8738 460.586 14.8738C460.226 14.8738 459.937 14.8376 459.721 14.7713C459.505 14.7049 459.33 14.6024 459.21 14.4696C459.084 14.3369 459.006 14.174 458.958 13.9749C458.916 13.7759 458.886 13.5466 458.88 13.2932V9.64324H457.852V8.6116H457.84ZM462.413 8.6116H463.699V9.45019H463.723C463.915 9.08821 464.179 8.83482 464.522 8.67796C464.864 8.52111 465.231 8.44268 465.634 8.44268C466.12 8.44268 466.541 8.52714 466.901 8.70209C467.262 8.87102 467.562 9.10631 467.803 9.40796C468.043 9.7096 468.217 10.0595 468.338 10.4577C468.458 10.8559 468.518 11.2842 468.518 11.7367C468.518 12.153 468.464 12.5572 468.356 12.9433C468.247 13.3355 468.085 13.6793 467.869 13.981C467.653 14.2826 467.376 14.5179 467.04 14.6989C466.703 14.8799 466.313 14.9704 465.856 14.9704C465.658 14.9704 465.459 14.9523 465.261 14.9161C465.063 14.8799 464.87 14.8195 464.69 14.7411C464.51 14.6627 464.336 14.5601 464.185 14.4334C464.029 14.3067 463.903 14.162 463.795 13.9991H463.771V17.088H462.413V8.6116ZM467.16 11.7126C467.16 11.4351 467.124 11.1636 467.052 10.8981C466.979 10.6327 466.871 10.4034 466.727 10.1983C466.583 9.99316 466.403 9.83027 466.192 9.7096C465.976 9.58895 465.73 9.52259 465.453 9.52259C464.882 9.52259 464.45 9.72168 464.161 10.1199C463.873 10.518 463.729 11.0489 463.729 11.7126C463.729 12.0263 463.765 12.3159 463.843 12.5813C463.921 12.8468 464.029 13.076 464.185 13.2691C464.336 13.4622 464.516 13.613 464.726 13.7216C464.936 13.8362 465.183 13.8905 465.459 13.8905C465.772 13.8905 466.03 13.8241 466.247 13.6974C466.463 13.5707 466.637 13.4018 466.775 13.2027C466.913 12.9976 467.016 12.7684 467.076 12.5089C467.13 12.2495 467.16 11.9841 467.16 11.7126ZM469.557 6.25269H470.915V7.54375H469.557V6.25269ZM469.557 8.6116H470.915V14.8014H469.557V8.6116ZM472.129 6.25269H473.487V14.8014H472.129V6.25269ZM477.651 14.9704C477.159 14.9704 476.72 14.8859 476.335 14.723C475.951 14.5601 475.626 14.3309 475.356 14.0473C475.091 13.7578 474.887 13.4139 474.749 13.0157C474.611 12.6175 474.539 12.1771 474.539 11.7005C474.539 11.2299 474.611 10.7956 474.749 10.3974C474.887 9.99919 475.091 9.65531 475.356 9.36572C475.62 9.07615 475.951 8.85292 476.335 8.69002C476.72 8.52714 477.159 8.44268 477.651 8.44268C478.144 8.44268 478.583 8.52714 478.967 8.69002C479.352 8.85292 479.676 9.08218 479.947 9.36572C480.211 9.65531 480.415 9.99919 480.554 10.3974C480.692 10.7956 480.764 11.2299 480.764 11.7005C480.764 12.1771 480.692 12.6175 480.554 13.0157C480.415 13.4139 480.211 13.7578 479.947 14.0473C479.682 14.3369 479.352 14.5601 478.967 14.723C478.583 14.8859 478.144 14.9704 477.651 14.9704ZM477.651 13.8905C477.952 13.8905 478.216 13.8241 478.438 13.6974C478.661 13.5707 478.841 13.4018 478.985 13.1967C479.129 12.9916 479.232 12.7563 479.304 12.4969C479.37 12.2374 479.406 11.972 479.406 11.7005C479.406 11.4351 479.37 11.1756 479.304 10.9102C479.238 10.6447 479.129 10.4155 478.985 10.2104C478.841 10.0052 478.661 9.84234 478.438 9.71565C478.216 9.58895 477.952 9.52259 477.651 9.52259C477.351 9.52259 477.086 9.58895 476.864 9.71565C476.642 9.84234 476.461 10.0113 476.317 10.2104C476.173 10.4155 476.071 10.6447 475.999 10.9102C475.933 11.1756 475.897 11.4351 475.897 11.7005C475.897 11.972 475.933 12.2374 475.999 12.4969C476.065 12.7563 476.173 12.9916 476.317 13.1967C476.461 13.4018 476.642 13.5707 476.864 13.6974C477.086 13.8302 477.351 13.8905 477.651 13.8905ZM481.16 8.6116H482.188V6.75342H483.546V8.6116H484.772V9.63118H483.546V12.9373C483.546 13.0821 483.552 13.2027 483.564 13.3113C483.576 13.4139 483.606 13.5044 483.648 13.5768C483.69 13.6492 483.756 13.7035 483.846 13.7397C483.936 13.7759 484.051 13.794 484.207 13.794C484.303 13.794 484.399 13.794 484.495 13.7879C484.591 13.7819 484.688 13.7698 484.784 13.7457V14.8014C484.634 14.8195 484.483 14.8316 484.345 14.8497C484.201 14.8678 484.057 14.8738 483.906 14.8738C483.546 14.8738 483.258 14.8376 483.041 14.7713C482.825 14.7049 482.651 14.6024 482.53 14.4696C482.404 14.3369 482.326 14.174 482.278 13.9749C482.236 13.7759 482.206 13.5466 482.2 13.2932V9.64324H481.172V8.6116H481.16Z" fill="black"/>
<path d="M433.005 6.25351H426.78L424.857 0.304932L422.928 6.25351L416.703 6.24747L421.745 9.92762L419.816 15.8701L424.857 12.1961L429.893 15.8701L427.97 9.92762L433.005 6.25351Z" fill="#00B67A"/>
<path d="M428.401 11.2711L427.968 9.92578L424.855 12.1942L428.401 11.2711Z" fill="#005128"/>
</g>
<path d="M565.23 15.1776C564.493 15.1776 563.845 15.0352 563.285 14.7502C562.725 14.4554 562.293 14.0428 561.988 13.5124C561.684 12.9818 561.531 12.3726 561.531 11.6849V8.11862C561.531 7.42107 561.684 6.81195 561.988 6.29124C562.293 5.76072 562.725 5.353 563.285 5.06808C563.845 4.77335 564.493 4.62598 565.23 4.62598C565.957 4.62598 566.596 4.76844 567.146 5.05335C567.706 5.33826 568.138 5.72634 568.443 6.21756C568.747 6.70879 568.9 7.26388 568.9 7.88283V8.00072C568.9 8.04984 568.88 8.09406 568.841 8.13335C568.811 8.16283 568.772 8.17756 568.723 8.17756H567.382C567.333 8.17756 567.288 8.16283 567.249 8.13335C567.22 8.09406 567.205 8.04984 567.205 8.00072V7.92703C567.205 7.39651 567.023 6.95931 566.66 6.61546C566.306 6.27159 565.829 6.09967 565.23 6.09967C564.631 6.09967 564.149 6.28142 563.786 6.64492C563.422 6.99862 563.241 7.47019 563.241 8.05967V11.7439C563.241 12.3334 563.432 12.8098 563.815 13.1733C564.199 13.527 564.695 13.7038 565.304 13.7038C565.893 13.7038 566.355 13.5516 566.689 13.247C567.033 12.9326 567.205 12.5053 567.205 11.9649V11.0512C567.205 11.0021 567.18 10.9776 567.131 10.9776H565.319C565.27 10.9776 565.225 10.9628 565.186 10.9333C565.157 10.8941 565.142 10.8498 565.142 10.8007V9.71019C565.142 9.66107 565.157 9.62178 565.186 9.5923C565.225 9.553 565.27 9.53335 565.319 9.53335H568.723C568.772 9.53335 568.811 9.553 568.841 9.5923C568.88 9.62178 568.9 9.66107 568.9 9.71019V11.5965C568.9 12.7263 568.566 13.6057 567.898 14.2344C567.239 14.8632 566.35 15.1776 565.23 15.1776ZM572.765 13.4976C572.745 13.5172 572.735 13.5369 572.735 13.5565C572.745 13.5761 572.765 13.586 572.794 13.586H576.994C577.043 13.586 577.083 13.6057 577.112 13.6449C577.151 13.6744 577.171 13.7137 577.171 13.7628V14.8828C577.171 14.932 577.151 14.9761 577.112 15.0154C577.083 15.0449 577.043 15.0597 576.994 15.0597H570.658C570.608 15.0597 570.564 15.0449 570.525 15.0154C570.495 14.9761 570.481 14.932 570.481 14.8828V13.8218C570.481 13.7333 570.51 13.6597 570.569 13.6008C571.316 12.8049 572.18 11.8274 573.163 10.6681L573.855 9.85756C574.759 8.80634 575.211 8.01055 575.211 7.47019C575.211 7.06739 575.069 6.73826 574.784 6.48283C574.499 6.22739 574.13 6.09967 573.679 6.09967C573.227 6.09967 572.858 6.22739 572.573 6.48283C572.298 6.73826 572.161 7.0772 572.161 7.49967V7.88283C572.161 7.93195 572.141 7.97616 572.102 8.01546C572.072 8.04492 572.033 8.05967 571.984 8.05967H570.613C570.564 8.05967 570.52 8.04492 570.481 8.01546C570.451 7.97616 570.436 7.93195 570.436 7.88283V7.24914C570.456 6.71862 570.608 6.25686 570.893 5.86388C571.178 5.4709 571.561 5.16634 572.043 4.95019C572.534 4.73406 573.079 4.62598 573.679 4.62598C574.337 4.62598 574.911 4.74879 575.403 4.9944C575.894 5.24002 576.272 5.57896 576.538 6.01124C576.803 6.4337 576.935 6.91019 576.935 7.44072C576.935 8.24634 576.508 9.17475 575.653 10.226C575.182 10.8155 574.406 11.6997 573.325 12.8786L572.765 13.4976Z" fill="black"/>
<mask id="mask1_1712_2964" style="mask-type:luminance" maskUnits="userSpaceOnUse" x="537" y="2" width="19" height="17">
<path d="M555.432 2.03345H537.773V18.8897H555.432V2.03345Z" fill="white"/>
</mask>
<g mask="url(#mask1_1712_2964)">
<path d="M546.603 18.8898C551.479 18.8898 555.432 15.1163 555.432 10.4616C555.432 5.80686 551.479 2.03345 546.603 2.03345C541.727 2.03345 537.773 5.80686 537.773 10.4616C537.773 15.1163 541.727 18.8898 546.603 18.8898Z" fill="#FF492C"/>
<path d="M550.423 8.49157H548.915C548.956 8.26569 549.102 8.13928 549.399 7.996L549.676 7.86114C550.173 7.61841 550.437 7.34365 550.437 6.89528C550.437 6.61378 550.323 6.39128 550.095 6.23114C549.867 6.07101 549.599 5.99178 549.284 5.99178C549.041 5.98905 548.802 6.05408 548.597 6.17889C548.391 6.30025 548.237 6.45701 548.142 6.65254L548.578 7.07058C548.748 6.74357 548.993 6.58344 549.316 6.58344C549.59 6.58344 549.758 6.71829 549.758 6.9054C549.758 7.06216 549.676 7.19194 549.362 7.34365L549.184 7.42625C548.797 7.61336 548.529 7.82744 548.373 8.07016C548.218 8.31289 548.142 8.618 548.142 8.98714V9.08828H550.423V8.49157ZM550.222 9.77602H547.725L546.477 11.8392H548.974L550.222 13.9041L551.471 11.8392L550.222 9.77602Z" fill="white"/>
<path d="M546.69 13.2062C545.1 13.2062 543.806 11.9706 543.806 10.4535C543.806 8.93647 545.1 7.70091 546.69 7.70091L547.677 5.7304C547.352 5.6687 547.021 5.63764 546.69 5.6377C543.903 5.6377 541.645 7.79361 541.645 10.4535C541.645 13.1135 543.903 15.2693 546.69 15.2693C547.758 15.2713 548.798 14.9476 549.66 14.3456L548.569 12.5387C548.047 12.9692 547.38 13.2061 546.69 13.2062Z" fill="white"/>
</g>
<mask id="mask2_1712_2964" style="mask-type:luminance" maskUnits="userSpaceOnUse" x="537" y="28" width="79" height="15">
<path d="M615.925 28.4919H537.773V42.9402H615.925V28.4919Z" fill="white"/>
</mask>
<g mask="url(#mask2_1712_2964)">
<path d="M602.056 34.3322L606.153 33.6701L608.359 29.9978L609.057 31.5888L610.114 32.6209L610.642 33.6701V40.877L608.296 39.63L604.451 41.436L604.956 37.2821L602.056 34.3322ZM539.094 34.4526L543.19 33.7905L545.333 29.8774L547.287 33.7302L551.699 34.4526L548.611 37.3424L549.241 41.5564L545.333 39.7504L541.426 41.5564L541.93 37.4025L539.094 34.4526ZM554.787 34.4526L558.884 33.7905L561.027 29.8774L563.043 33.7302L567.392 34.4526L564.304 37.3424L564.997 41.5564L561.027 39.7504L557.182 41.5564L557.686 37.4025L554.787 34.4526ZM570.796 34.4526L574.892 33.7905L577.035 29.8774L578.989 33.7302L583.401 34.4526L580.313 37.3424L581.006 41.5564L577.035 39.7504L573.128 41.5564L573.632 37.4025L570.796 34.4526ZM586.3 34.4526L590.397 33.7905L592.54 29.8774L594.556 33.7302L598.905 34.4526L595.817 37.3424L596.51 41.5564L592.54 39.7504L588.695 41.5564L589.199 37.4025L586.3 34.4526Z" fill="#FF492C"/>
<path d="M552.9 34.0837L547.668 33.3613L545.337 28.8462L543.005 33.3613L537.773 34.0837L541.555 37.5754L540.673 42.5721L545.337 40.2242L550 42.5721L549.118 37.5754L552.9 34.0837ZM545.337 39.1406L542.059 40.8262L542.689 37.3346L540.042 34.8663L543.761 34.3245L545.4 31.1338L547.038 34.3245L550.757 34.8663L548.11 37.3346L548.74 40.8262L545.337 39.1406ZM568.656 34.0837L563.425 33.3613L561.093 28.8462L558.761 33.3613L553.53 34.0837L557.311 37.5754L556.429 42.5721L561.093 40.2242L565.757 42.5721L564.875 37.5754L568.656 34.0837ZM561.093 39.1406L557.816 40.8262L558.446 37.3346L555.799 34.8663L559.517 34.3245L561.156 31.1338L562.795 34.3245L566.513 34.8663L563.866 37.3346L564.496 40.8262L561.093 39.1406ZM584.413 34.0837L579.181 33.3613L576.849 28.8462L574.517 33.3613L569.286 34.0837L573.068 37.5754L572.185 42.5721L576.849 40.2242L581.513 42.5721L580.631 37.5754L584.413 34.0837ZM576.849 39.1406L573.572 40.8262L574.202 37.3346L571.555 34.8663L575.274 34.3245L576.912 31.1338L578.551 34.3245L582.27 34.8663L579.623 37.3346L580.253 40.8262L576.849 39.1406ZM600.169 34.0837L594.938 33.3613L592.606 28.8462L590.274 33.3613L585.043 34.0837L588.824 37.5754L587.942 42.5721L592.606 40.2242L597.27 42.5721L596.387 37.5754L600.169 34.0837ZM592.606 39.1406L589.329 40.8262L589.959 37.3346L587.312 34.8663L591.03 34.3245L592.669 31.1338L594.308 34.3245L598.026 34.8663L595.379 37.3346L596.009 40.8262L592.606 39.1406ZM615.925 34.0837L610.694 33.3613L608.362 28.8462L606.03 33.3613L600.799 34.0837L604.581 37.5754L603.698 42.5721L608.362 40.2242L613.026 42.5721L612.144 37.5754L615.925 34.0837ZM608.362 39.1406L605.085 40.8262L605.715 37.3346L603.068 34.8663L606.787 34.3245L608.425 31.1338L610.064 34.3245L613.783 34.8663L611.135 37.3346L611.766 40.8262L608.362 39.1406Z" fill="#FF492C"/>
</g>
<g clip-path="url(#clip1_1712_2964)">
<path d="M656.703 10.2557H668.285H675.319V3.28519L656.703 10.2557Z" fill="#FF9D28"/>
<path d="M675.32 3.28518V27.924L684.123 0L675.32 3.28518Z" fill="#68C5ED"/>
<path d="M675.319 10.2557H668.285L675.319 27.9029V10.2557Z" fill="#044D80"/>
<path d="M656.703 10.2557L670.097 14.7833L668.285 10.2557H656.703Z" fill="#E54747"/>
<path d="M699.367 21.4169C699.261 21.5222 699.093 21.6485 698.861 21.7959C698.629 21.9433 698.313 22.1118 697.934 22.2592C697.555 22.4066 697.092 22.554 696.523 22.6593C695.976 22.7646 695.344 22.8278 694.628 22.8278C693.259 22.8278 692.059 22.5962 691.048 22.175C690.038 21.7327 689.216 21.122 688.563 20.3218C687.911 19.5216 687.426 18.595 687.131 17.521C686.815 16.447 686.668 15.2466 686.668 13.962C686.668 12.6774 686.837 11.4771 687.173 10.382C687.51 9.28696 687.995 8.33932 688.669 7.53908C689.321 6.73885 690.164 6.10709 691.154 5.66486C692.143 5.22262 693.323 4.99097 694.67 4.99097C695.323 4.99097 695.934 5.05414 696.46 5.15942C696.987 5.28579 697.471 5.41214 697.871 5.58062C698.271 5.74907 698.608 5.91755 698.861 6.08603C699.135 6.2545 699.324 6.42296 699.451 6.52826C699.598 6.65461 699.746 6.82309 699.851 7.01261C699.956 7.20215 700.019 7.41274 700.019 7.62332C700.019 7.96025 699.893 8.29719 699.64 8.63414C699.388 8.97107 699.114 9.28696 698.798 9.58179C698.587 9.3712 698.356 9.16062 698.103 8.95003C697.85 8.73942 697.555 8.5499 697.24 8.38142C696.924 8.21297 696.566 8.08662 696.166 7.98132C695.765 7.87601 695.323 7.81284 694.818 7.81284C693.954 7.81284 693.217 7.98132 692.628 8.33932C692.038 8.69732 691.575 9.13955 691.217 9.70814C690.859 10.2767 690.606 10.9085 690.459 11.6245C690.311 12.3405 690.227 13.0776 690.227 13.8357C690.227 14.6359 690.311 15.394 690.459 16.1311C690.606 16.8681 690.88 17.4999 691.259 18.0685C691.638 18.6371 692.122 19.0793 692.733 19.4163C693.344 19.7532 694.081 19.9217 694.986 19.9217C695.471 19.9217 695.892 19.8585 696.292 19.7532C696.692 19.6269 697.05 19.4795 697.345 19.311C697.661 19.1425 697.914 18.953 698.145 18.7845C698.377 18.595 698.566 18.4265 698.714 18.3002C698.819 18.4265 698.924 18.5739 699.072 18.7424C699.219 18.9108 699.345 19.1004 699.451 19.2688C699.577 19.4584 699.661 19.6479 699.767 19.8375C699.851 20.027 699.893 20.1954 699.893 20.3429C699.893 20.5745 699.851 20.743 699.767 20.9114C699.682 21.0589 699.535 21.2273 699.367 21.4169ZM712.507 19.4584C712.507 20.8062 712.697 21.7959 713.097 22.4066C712.781 22.533 712.507 22.6172 712.233 22.6593C711.96 22.7014 711.686 22.7436 711.391 22.7436C710.78 22.7436 710.317 22.6172 710.001 22.3856C709.685 22.1539 709.475 21.7959 709.39 21.3537C709.011 21.7538 708.527 22.0907 707.895 22.3645C707.285 22.6383 706.526 22.7646 705.642 22.7646C705.179 22.7646 704.715 22.7015 704.252 22.5751C703.789 22.4487 703.368 22.2382 702.989 21.9433C702.609 21.6485 702.315 21.2694 702.062 20.7851C701.83 20.3007 701.704 19.7111 701.704 19.0162C701.704 18.1527 701.915 17.4367 702.336 16.8892C702.757 16.3417 703.283 15.9205 703.915 15.6046C704.547 15.2887 705.242 15.0782 705.958 14.9518C706.695 14.8254 707.369 14.7623 707.979 14.7202C708.19 14.6991 708.38 14.6991 708.59 14.6991H709.138V14.2358C709.138 13.583 708.969 13.1197 708.611 12.8249C708.253 12.5511 707.685 12.4037 706.906 12.4037C706.169 12.4037 705.516 12.53 704.947 12.7617C704.379 12.9933 703.81 13.2671 703.262 13.583C703.031 13.2881 702.82 12.9723 702.694 12.6143C702.546 12.2563 702.483 12.0036 702.483 11.8351C702.483 11.6034 702.609 11.3718 702.883 11.1402C703.157 10.9085 703.515 10.719 703.978 10.5294C704.442 10.3399 704.968 10.2135 705.579 10.0872C706.169 9.98192 706.8 9.91872 707.474 9.91872C708.401 9.91872 709.18 10.003 709.812 10.1925C710.443 10.382 710.97 10.6768 711.37 11.0559C711.77 11.456 712.065 11.9404 712.233 12.53C712.402 13.1197 712.486 13.8146 712.486 14.5938L712.507 19.4584ZM709.222 16.4891H708.864C708.738 16.4891 708.632 16.4891 708.506 16.5101C708.085 16.5523 707.664 16.5944 707.243 16.6576C706.821 16.7207 706.442 16.8471 706.126 17.0156C705.81 17.184 705.537 17.4157 705.326 17.6894C705.116 17.9632 705.01 18.3212 705.01 18.7424C705.01 19.2267 705.137 19.6269 705.41 19.9638C705.684 20.3007 706.147 20.4692 706.8 20.4692C707.116 20.4692 707.432 20.4271 707.727 20.3429C708.022 20.2586 708.274 20.1533 708.506 20.0059C708.738 19.8585 708.906 19.7111 709.033 19.5637C709.159 19.3952 709.222 19.2478 709.222 19.1215V16.4891ZM718.888 11.435C719.162 11.1191 719.583 10.7822 720.173 10.4452C720.762 10.1083 721.478 9.93979 722.363 9.93979C722.995 9.93979 723.605 10.0451 724.174 10.2557C724.742 10.4663 725.248 10.8243 725.69 11.2876C726.132 11.7719 726.49 12.4037 726.743 13.1829C727.017 13.962 727.143 14.9307 727.143 16.089C727.143 17.4157 726.996 18.5318 726.68 19.3952C726.364 20.2586 725.985 20.9536 725.501 21.4379C725.016 21.9433 724.469 22.3013 723.879 22.5119C723.289 22.7225 722.679 22.8278 722.089 22.8278C721.605 22.8278 721.162 22.7646 720.804 22.6593C720.446 22.554 720.131 22.4277 719.878 22.2803C719.625 22.1539 719.435 22.0065 719.288 21.8802C719.162 21.7538 719.056 21.6485 719.035 21.6064V27.924H715.54V10.3189C715.624 10.2978 715.729 10.2767 715.855 10.2767C715.961 10.2557 716.087 10.2557 716.214 10.2346C716.361 10.2346 716.508 10.2135 716.698 10.2135C717.266 10.2135 717.751 10.2978 718.151 10.4873C718.53 10.6768 718.783 10.9927 718.888 11.435ZM723.521 16.1732C723.521 15.6678 723.479 15.1834 723.395 14.7412C723.31 14.299 723.163 13.9199 722.973 13.583C722.784 13.2671 722.51 13.0144 722.173 12.8249C721.836 12.6353 721.436 12.5511 720.952 12.5511C720.236 12.5511 719.73 12.6985 719.457 12.9512C719.183 13.225 719.035 13.5198 719.035 13.8567V19.311C719.162 19.4584 719.415 19.6058 719.772 19.7953C720.131 19.9849 720.531 20.0691 720.994 20.0691C721.857 20.0691 722.489 19.7321 722.91 19.0372C723.31 18.3633 723.521 17.4157 723.521 16.1732ZM729.839 20.5956C729.712 20.2586 729.649 19.9006 729.607 19.5216C729.565 19.1425 729.565 18.7634 729.565 18.3844V6.48613C729.691 6.46509 729.817 6.44402 729.944 6.44402C730.07 6.42296 730.197 6.42296 730.323 6.40192C730.449 6.40192 730.597 6.38085 730.723 6.38085C730.997 6.38085 731.271 6.40189 731.544 6.46509C731.818 6.5072 732.071 6.6125 732.281 6.78096C732.513 6.92837 732.682 7.13895 732.829 7.41274C732.955 7.6865 733.04 8.02343 733.04 8.4446V10.2767H736.641V12.867H733.061V18.3423C733.061 19.5426 733.545 20.1323 734.514 20.1323C734.745 20.1323 734.977 20.0901 735.188 20.027C735.398 19.9427 735.588 19.8585 735.756 19.7743C735.925 19.69 736.072 19.5847 736.198 19.4795C736.325 19.3741 736.409 19.2899 736.472 19.2478C736.725 19.6269 736.935 19.9427 737.062 20.2165C737.188 20.4903 737.272 20.743 737.272 20.9957C737.272 21.2273 737.188 21.4379 736.999 21.6485C736.809 21.8591 736.556 22.0697 736.24 22.2382C735.925 22.4277 735.524 22.5751 735.061 22.6804C734.598 22.7857 734.093 22.8488 733.545 22.8488C732.492 22.8488 731.65 22.6383 731.06 22.2382C730.513 21.7959 730.091 21.2694 729.839 20.5956ZM745.485 20.2586C745.906 20.2586 746.286 20.2165 746.623 20.1112C746.938 20.027 747.233 19.9006 747.507 19.7743C747.76 19.6479 747.991 19.4795 748.181 19.332C748.37 19.1636 748.539 19.0162 748.686 18.8898C748.897 19.1425 749.107 19.4795 749.339 19.8796C749.571 20.2797 749.676 20.6166 749.676 20.8693C749.676 21.2484 749.466 21.5853 749.044 21.9012C748.686 22.175 748.181 22.4066 747.507 22.6172C746.854 22.8067 746.075 22.912 745.19 22.912C744.39 22.912 743.59 22.8067 742.811 22.5962C742.032 22.3856 741.337 22.0276 740.726 21.5222C740.115 21.0168 739.631 20.3218 739.252 19.4584C738.873 18.595 738.683 17.4999 738.683 16.1943C738.683 15.1203 738.852 14.1937 739.189 13.4145C739.526 12.6353 739.968 11.9825 740.515 11.4771C741.063 10.9717 741.695 10.5926 742.411 10.3399C743.106 10.1083 743.822 9.98192 744.559 9.98192C745.506 9.98192 746.328 10.1293 747.002 10.4241C747.676 10.719 748.202 11.1191 748.623 11.6245C749.044 12.1299 749.339 12.6985 749.529 13.3513C749.718 14.0042 749.802 14.678 749.802 15.394V15.752C749.802 15.8995 749.802 16.0258 749.781 16.1943C749.781 16.3417 749.76 16.4891 749.76 16.6365C749.76 16.7839 749.739 16.8892 749.718 16.9734H742.158C742.221 17.9211 742.516 18.7003 743.043 19.332C743.548 19.9427 744.369 20.2586 745.485 20.2586ZM746.665 15.0571C746.665 14.2358 746.496 13.5619 746.18 13.0565C745.864 12.5511 745.296 12.2773 744.474 12.2773C743.759 12.2773 743.211 12.53 742.79 13.0144C742.369 13.4987 742.158 14.1726 742.158 15.0571H746.665ZM755.888 11.4981C755.994 11.3507 756.12 11.1823 756.289 10.9927C756.457 10.8032 756.668 10.6347 756.92 10.4873C757.173 10.3399 757.447 10.2135 757.741 10.1083C758.036 10.003 758.352 9.96085 758.71 9.96085C758.921 9.96085 759.132 9.98189 759.363 10.003C759.595 10.0451 759.805 10.1083 759.995 10.1925C760.184 10.2767 760.353 10.4031 760.479 10.5715C760.606 10.74 760.669 10.9295 760.669 11.1612C760.669 11.5403 760.585 11.9614 760.395 12.4458C760.205 12.9301 760.016 13.3513 759.826 13.6883C759.531 13.4566 759.237 13.2671 758.963 13.1407C758.668 13.0144 758.331 12.9512 757.931 12.9512C757.405 12.9512 756.962 13.0986 756.604 13.4145C756.246 13.7304 756.057 14.0884 756.057 14.5306V22.8278H752.561V10.2978C752.645 10.2767 752.751 10.2557 752.877 10.2557C752.982 10.2346 753.109 10.2346 753.235 10.2135C753.361 10.2135 753.53 10.1925 753.719 10.1925C754.267 10.1925 754.751 10.2978 755.151 10.5084C755.53 10.74 755.783 11.0559 755.888 11.4981ZM765.807 11.4981C765.912 11.3507 766.039 11.1823 766.207 10.9927C766.376 10.8032 766.586 10.6347 766.839 10.4873C767.092 10.3399 767.365 10.2135 767.66 10.1083C767.955 10.003 768.271 9.96085 768.629 9.96085C768.84 9.96085 769.05 9.98189 769.282 10.003C769.513 10.0451 769.724 10.1083 769.914 10.1925C770.103 10.2767 770.272 10.4031 770.398 10.5715C770.524 10.74 770.588 10.9295 770.588 11.1612C770.588 11.5403 770.503 11.9614 770.314 12.4458C770.124 12.9301 769.935 13.3513 769.745 13.6883C769.45 13.4566 769.155 13.2671 768.882 13.1407C768.587 13.0144 768.25 12.9512 767.85 12.9512C767.323 12.9512 766.881 13.0986 766.523 13.4145C766.165 13.7304 765.976 14.0884 765.976 14.5306V22.8278H762.48V10.2978C762.564 10.2767 762.669 10.2557 762.796 10.2557C762.901 10.2346 763.027 10.2346 763.154 10.2135C763.28 10.2135 763.448 10.1925 763.638 10.1925C764.186 10.1925 764.67 10.2978 765.07 10.5084C765.449 10.74 765.702 11.0559 765.807 11.4981ZM782.465 19.4584C782.465 20.8062 782.654 21.7959 783.054 22.4066C782.738 22.533 782.465 22.6172 782.191 22.6593C781.917 22.7014 781.643 22.7436 781.349 22.7436C780.738 22.7436 780.274 22.6172 779.959 22.3856C779.643 22.1539 779.432 21.7959 779.348 21.3537C778.969 21.7538 778.484 22.0907 777.853 22.3645C777.242 22.6383 776.484 22.7646 775.599 22.7646C775.136 22.7646 774.673 22.7015 774.21 22.5751C773.746 22.4487 773.325 22.2382 772.946 21.9433C772.567 21.6485 772.272 21.2694 772.019 20.7851C771.788 20.3007 771.661 19.7111 771.661 19.0162C771.661 18.1527 771.872 17.4367 772.293 16.8892C772.715 16.3417 773.241 15.9205 773.873 15.6046C774.505 15.2887 775.199 15.0782 775.915 14.9518C776.652 14.8254 777.326 14.7623 777.937 14.7202C778.148 14.6991 778.337 14.6991 778.548 14.6991H779.095V14.2358C779.095 13.583 778.927 13.1197 778.569 12.8249C778.211 12.5511 777.642 12.4037 776.863 12.4037C776.126 12.4037 775.473 12.53 774.904 12.7617C774.336 12.9933 773.767 13.2671 773.22 13.583C772.988 13.2881 772.778 12.9723 772.651 12.6143C772.504 12.2563 772.441 12.0036 772.441 11.8351C772.441 11.6034 772.567 11.3718 772.841 11.1402C773.114 10.9085 773.473 10.719 773.936 10.5294C774.399 10.3399 774.926 10.2135 775.536 10.0872C776.126 9.98192 776.758 9.91872 777.432 9.91872C778.358 9.91872 779.137 10.003 779.769 10.1925C780.401 10.382 780.927 10.6768 781.327 11.0559C781.728 11.456 782.022 11.9404 782.191 12.53C782.359 13.1197 782.444 13.8146 782.444 14.5938L782.465 19.4584ZM779.18 16.4891H778.821C778.695 16.4891 778.59 16.4891 778.464 16.5101C778.042 16.5523 777.621 16.5944 777.2 16.6576C776.779 16.7207 776.4 16.8471 776.084 17.0156C775.768 17.184 775.494 17.4157 775.283 17.6894C775.073 17.9632 774.968 18.3212 774.968 18.7424C774.968 19.2267 775.094 19.6269 775.368 19.9638C775.642 20.3007 776.105 20.4692 776.758 20.4692C777.073 20.4692 777.39 20.4271 777.684 20.3429C777.979 20.2586 778.232 20.1533 778.464 20.0059C778.695 19.8585 778.863 19.7111 778.99 19.5637C779.116 19.3952 779.18 19.2478 779.18 19.1215V16.4891Z" fill="#044D80"/>
<path d="M690.38 41.0606L686.768 43.0824L687.574 39.0224L684.535 36.212L688.646 35.7243L690.38 31.9656L692.114 35.7243L696.224 36.212L693.185 39.0224L693.992 43.0824L690.38 41.0606Z" fill="#FF8300"/>
<path d="M705.126 41.0606L701.514 43.0824L702.32 39.0224L699.281 36.212L703.392 35.7243L705.126 31.9656L706.86 35.7243L710.97 36.212L707.931 39.0224L708.738 43.0824L705.126 41.0606Z" fill="#FF8300"/>
<path d="M719.876 41.0606L716.264 43.0824L717.07 39.0224L714.031 36.212L718.142 35.7243L719.876 31.9656L721.61 35.7243L725.721 36.212L722.681 39.0224L723.488 43.0824L719.876 41.0606Z" fill="#FF8300"/>
<path d="M734.626 41.0606L731.014 43.0824L731.82 39.0224L728.781 36.212L732.892 35.7243L734.626 31.9656L736.36 35.7243L740.471 36.212L737.431 39.0224L738.238 43.0824L734.626 41.0606Z" fill="#FF8300"/>
<path d="M749.372 41.0606L745.76 43.0824L746.567 39.0224L743.527 36.212L747.638 35.7243L749.372 31.9656L751.106 35.7243L755.217 36.212L752.177 39.0224L752.984 43.0824L749.372 41.0606Z" fill="#FF8300"/>
</g>
<defs>
<clipPath id="clip0_1712_2964">
<rect width="80" height="44" fill="white" transform="translate(416.703)"/>
</clipPath>
<clipPath id="clip1_1712_2964">
<rect width="126.592" height="44" fill="white" transform="translate(656.703)"/>
</clipPath>
</defs>
</svg>
