<svg width="24" height="25" viewBox="0 0 24 25" fill="none" xmlns="http://www.w3.org/2000/svg">
<g id="ui/home-line">
<path id="Icon" d="M8 17.522H16M11.0177 3.28597L4.23539 8.5611C3.78202 8.91372 3.55534 9.09003 3.39203 9.31083C3.24737 9.50642 3.1396 9.72676 3.07403 9.96102C3 10.2255 3 10.5127 3 11.087V18.322C3 19.4421 3 20.0021 3.21799 20.4299C3.40973 20.8063 3.71569 21.1122 4.09202 21.304C4.51984 21.522 5.07989 21.522 6.2 21.522H17.8C18.9201 21.522 19.4802 21.522 19.908 21.304C20.2843 21.1122 20.5903 20.8063 20.782 20.4299C21 20.0021 21 19.4421 21 18.322V11.087C21 10.5127 21 10.2255 20.926 9.96102C20.8604 9.72676 20.7526 9.50642 20.608 9.31083C20.4447 9.09003 20.218 8.91372 19.7646 8.5611L12.9823 3.28597C12.631 3.01272 12.4553 2.87609 12.2613 2.82357C12.0902 2.77723 11.9098 2.77723 11.7387 2.82357C11.5447 2.87609 11.369 3.01272 11.0177 3.28597Z" stroke="url(#paint0_linear_0_1406)" stroke-width="1.33333" stroke-linecap="round" stroke-linejoin="round"/>
</g>
<defs>
<linearGradient id="paint0_linear_0_1406" x1="3" y1="12.7064" x2="21" y2="12.7064" gradientUnits="userSpaceOnUse">
<stop stop-color="#00B67A"/>
<stop offset="0.519737" stop-color="#D0F6EA"/>
<stop offset="1" stop-color="#00B67A"/>
</linearGradient>
</defs>
</svg>
