<svg width="24" height="25" viewBox="0 0 24 25" fill="none" xmlns="http://www.w3.org/2000/svg">
<g id="Group">
<path id="Vector" d="M22.2234 0.151367H1.77187C0.792187 0.151367 0 0.924805 0 1.88105V22.417C0 23.3732 0.792187 24.1514 1.77187 24.1514H22.2234C23.2031 24.1514 24 23.3732 24 22.4217V1.88105C24 0.924805 23.2031 0.151367 22.2234 0.151367ZM7.12031 20.6029H3.55781V9.14668H7.12031V20.6029ZM5.33906 7.58574C4.19531 7.58574 3.27188 6.6623 3.27188 5.52324C3.27188 4.38418 4.19531 3.46074 5.33906 3.46074C6.47813 3.46074 7.40156 4.38418 7.40156 5.52324C7.40156 6.65762 6.47813 7.58574 5.33906 7.58574ZM20.4516 20.6029H16.8937V15.0342C16.8937 13.7076 16.8703 11.9967 15.0422 11.9967C13.1906 11.9967 12.9094 13.4451 12.9094 14.9404V20.6029H9.35625V9.14668H12.7687V10.7123H12.8156C13.2891 9.81231 14.4516 8.86074 16.1813 8.86074C19.7859 8.86074 20.4516 11.2326 20.4516 14.317V20.6029Z" fill="#ACADC4"/>
</g>
</svg>
