<svg width="110" height="26" viewBox="0 0 110 26" fill="none" xmlns="http://www.w3.org/2000/svg">
<path d="M7.58014 10.0034C7.58014 10.7965 7.46807 11.443 7.24392 11.9429C7.01978 12.4429 6.5629 12.8568 5.87329 13.1844C6.5629 13.4935 7.01978 13.9073 7.24392 14.4259C7.46807 14.926 7.58014 15.5639 7.58014 16.3397V20.9171C7.58014 21.7448 7.73469 22.3309 8.04378 22.6755C8.35287 23.0376 8.88736 23.2186 9.64726 23.2186H11.7422C12.1732 23.2186 12.3887 23.4341 12.3887 23.8652V24.5376C12.3887 24.9686 12.1732 25.1841 11.7422 25.1841H9.64726C8.13009 25.1841 7.03529 24.8565 6.36285 24.2014C5.7077 23.5462 5.38012 22.4514 5.38012 20.917V16.3395C5.38012 15.5637 5.22557 15.0119 4.91649 14.6842C4.6074 14.3394 4.0729 14.167 3.313 14.167H1.24417C0.81316 14.167 0.597656 13.9515 0.597656 13.5205V12.848C0.597656 12.417 0.81316 12.2015 1.24417 12.2015H3.313C4.07164 12.2015 4.60614 12.0291 4.91649 11.6843C5.22557 11.3395 5.38012 10.7786 5.38012 10.0015V5.44981C5.38012 3.91536 5.7077 2.82055 6.36285 2.1654C7.03529 1.51025 8.13009 1.18267 9.64726 1.18267H11.7422C12.1732 1.18267 12.3887 1.39817 12.3887 1.82918V2.50162C12.3887 2.93263 12.1732 3.14813 11.7422 3.14813H9.64726C8.88862 3.14813 8.35413 3.32917 8.04378 3.69127C7.73469 4.05336 7.58014 4.63948 7.58014 5.44964V10.0034ZM28.4182 0.925781C28.8492 0.925781 29.0647 1.14128 29.0647 1.57229V3.27915C29.0647 3.71016 28.8492 3.92566 28.4182 3.92566H26.7354C26.3044 3.92566 26.0889 3.71016 26.0889 3.27915V1.57229C26.0889 1.14128 26.3044 0.925781 26.7354 0.925781H28.4182ZM28.4182 7.64966C28.8492 7.64966 29.0647 7.86517 29.0647 8.29618V17.477C29.0647 20.0115 28.4699 21.8477 27.2803 22.9856C26.108 24.1418 24.6081 24.72 22.7804 24.72C21.4184 24.72 20.1248 24.4613 18.8997 23.9441C18.6249 23.8407 18.4875 23.6596 18.4875 23.401C18.4875 23.2975 18.5134 23.1941 18.5652 23.0907L18.8238 22.47C18.9273 22.1952 19.1083 22.0578 19.3669 22.0578C19.4876 22.0578 19.5824 22.075 19.6514 22.1094C20.7376 22.5059 21.7807 22.7042 22.7806 22.7042C24.0392 22.7042 25.0306 22.3076 25.7547 21.5145C26.4788 20.7214 26.8408 19.3767 26.8408 17.4802V9.67008H19.6253C19.1943 9.67008 18.9788 9.45457 18.9788 9.02357V8.29755C18.9788 7.86654 19.1943 7.65104 19.6253 7.65104L28.4182 7.64966ZM48.2683 9.12402C48.1648 9.50328 47.9062 9.65783 47.4924 9.58765C46.5097 9.43254 45.7338 9.35498 45.1648 9.35498C44.3028 9.35498 43.5787 9.50151 42.9926 9.79457C42.4065 10.0693 42.1134 10.4659 42.1134 10.9842C42.1134 11.4325 42.3462 11.8291 42.8116 12.1739C43.2771 12.5187 43.9236 12.7428 44.7512 12.8463C46.2856 13.036 47.4235 13.4842 48.1649 14.1908C48.9235 14.8977 49.3028 15.7678 49.3028 16.8009C49.3028 18.0077 48.8287 18.9818 47.8805 19.7232C46.9323 20.4645 45.5961 20.8352 43.872 20.8352C42.7158 20.8352 41.552 20.7404 40.3806 20.5507C40.0186 20.4989 39.8375 20.3093 39.8375 19.9818C39.8375 19.8956 39.8461 19.8266 39.8633 19.7749L40.0185 19.1024C40.0874 18.7059 40.3374 18.5335 40.7686 18.5852C41.7685 18.7576 42.803 18.8438 43.872 18.8438C44.9064 18.8438 45.6995 18.6542 46.2513 18.2749C46.8202 17.8957 47.1047 17.4043 47.1047 16.8008C47.1047 16.3007 46.8892 15.8697 46.4582 15.5077C46.0444 15.1456 45.3892 14.9215 44.4927 14.8353C43.0618 14.6973 41.941 14.2749 41.1305 13.568C40.3203 12.844 39.9151 11.9819 39.9151 10.982C39.9151 9.93028 40.3547 9.06827 41.2339 8.39594C42.1131 7.7235 43.3372 7.38728 44.9062 7.38728C45.9235 7.38728 46.9406 7.48213 47.9576 7.67182C48.3024 7.72356 48.4748 7.91319 48.4748 8.24071C48.4748 8.32691 48.4662 8.39589 48.4491 8.44763L48.2683 9.12402ZM80.9338 8.39989C80.9338 8.02063 81.1321 7.7879 81.5286 7.7017C82.9078 7.49484 84.3733 7.3914 85.9251 7.3914C87.8561 7.3914 89.2526 7.79654 90.1146 8.60681C90.9766 9.39991 91.4076 10.7361 91.4076 12.6153V19.9339C91.4076 20.3649 91.1921 20.5804 90.7611 20.5804H89.8561C89.4251 20.5804 89.2096 20.3649 89.2096 19.9339V12.6153C89.2096 11.4085 88.9596 10.5637 88.4596 10.0808C87.9595 9.59807 87.1147 9.3567 85.9251 9.3567C85.0974 9.3567 84.1664 9.39115 83.1321 9.46007V19.9339C83.1321 20.3649 82.9166 20.5804 82.4856 20.5804H81.5806C81.1496 20.5804 80.9341 20.3649 80.9341 19.9339L80.9338 8.39989ZM102.419 5.45153C102.419 4.64126 102.264 4.05513 101.955 3.69316C101.646 3.33106 101.111 3.15002 100.351 3.15002H98.2565C97.8255 3.15002 97.61 2.93452 97.61 2.50351V1.83107C97.61 1.40006 97.8255 1.18456 98.2565 1.18456H100.351C101.869 1.18456 102.955 1.51213 103.61 2.16729C104.282 2.82244 104.619 3.91724 104.619 5.4517V10.0034C104.619 10.7792 104.773 11.3401 105.082 11.6862C105.391 12.031 105.926 12.2034 106.686 12.2034H108.755C109.186 12.2034 109.401 12.4189 109.401 12.8499V13.5224C109.401 13.9534 109.186 14.1689 108.755 14.1689H106.686C105.927 14.1689 105.393 14.3413 105.082 14.6861C104.773 15.0137 104.619 15.5655 104.619 16.3414V20.9188C104.619 22.4533 104.291 23.5481 103.636 24.2033C102.981 24.8584 101.886 25.186 100.351 25.186H98.2565C97.8255 25.186 97.61 24.9705 97.61 24.5395V23.867C97.61 23.436 97.8255 23.2205 98.2565 23.2205H100.351C101.11 23.2205 101.645 23.0395 101.955 22.6774C102.264 22.3326 102.419 21.7465 102.419 20.919V16.3416C102.419 15.5658 102.531 14.9278 102.755 14.4278C102.979 13.9106 103.436 13.4968 104.125 13.1863C103.436 12.8587 102.979 12.4448 102.755 11.9448C102.531 11.4448 102.419 10.7982 102.419 10.0053V5.45153Z" fill="white"/>
<path fill-rule="evenodd" clip-rule="evenodd" d="M64.7621 17.6548C68.3167 22.5005 71.7954 16.3022 71.7903 12.575C71.7841 8.16803 67.3174 5.70508 64.7592 5.70508C60.6528 5.70508 56.7422 9.09871 56.7422 13.742C56.7422 18.903 61.2249 21.7619 64.7592 21.7619C63.9594 21.6468 61.2941 21.0757 61.2583 14.9368C61.2342 10.7848 62.6127 9.12602 64.7533 9.85566C64.8012 9.87344 67.1146 10.786 67.1146 13.7669C67.1146 16.7353 64.7621 17.6546 64.7621 17.6546V17.6548Z" fill="url(#paint0_linear_624_4796)"/>
<path fill-rule="evenodd" clip-rule="evenodd" d="M64.7573 9.85254C62.4085 9.04317 59.5312 10.9789 59.5312 14.8564C59.5312 21.1875 64.2228 21.7621 64.7916 21.7621C68.898 21.7621 72.8085 18.3684 72.8085 13.7251C72.8085 8.56397 68.3259 5.70527 64.7916 5.70527C65.7704 5.5697 70.0675 6.76468 70.0675 12.6378C70.0675 16.4678 66.8589 18.553 64.772 17.6621C64.7241 17.6443 62.4107 16.7317 62.4107 13.7508C62.4107 10.7824 64.7572 9.85274 64.7572 9.85274L64.7573 9.85254Z" fill="url(#paint1_linear_624_4796)"/>
<defs>
<linearGradient id="paint0_linear_624_4796" x1="59.1185" y1="8.07133" x2="70.4372" y2="19.3901" gradientUnits="userSpaceOnUse">
<stop/>
<stop offset="1" stop-color="white"/>
</linearGradient>
<linearGradient id="paint1_linear_624_4796" x1="70.4367" y1="19.3903" x2="59.1179" y2="8.07152" gradientUnits="userSpaceOnUse">
<stop/>
<stop offset="1" stop-color="white"/>
</linearGradient>
</defs>
</svg>
