<svg width="73" height="72" viewBox="0 0 73 72" fill="none" xmlns="http://www.w3.org/2000/svg">
<g id="countries/japan" filter="url(#filter0_d_810_3933)">
<g clip-path="url(#clip0_810_3933)">
<path id="Vector" d="M36.5 59.7139C51.1355 59.7139 63 47.8494 63 33.2139C63 18.5783 51.1355 6.71387 36.5 6.71387C21.8645 6.71387 10 18.5783 10 33.2139C10 47.8494 21.8645 59.7139 36.5 59.7139Z" fill="#F0F0F0"/>
<path id="Vector_2" d="M36.4983 44.7353C42.8615 44.7353 48.02 39.5769 48.02 33.2136C48.02 26.8503 42.8615 21.6919 36.4983 21.6919C30.135 21.6919 24.9766 26.8503 24.9766 33.2136C24.9766 39.5769 30.135 44.7353 36.4983 44.7353Z" fill="#D80027"/>
</g>
</g>
<defs>
<filter id="filter0_d_810_3933" x="0.67" y="0.0538673" width="71.66" height="71.66" filterUnits="userSpaceOnUse" color-interpolation-filters="sRGB">
<feFlood flood-opacity="0" result="BackgroundImageFix"/>
<feColorMatrix in="SourceAlpha" type="matrix" values="0 0 0 0 0 0 0 0 0 0 0 0 0 0 0 0 0 0 127 0" result="hardAlpha"/>
<feOffset dy="2.67"/>
<feGaussianBlur stdDeviation="4.665"/>
<feComposite in2="hardAlpha" operator="out"/>
<feColorMatrix type="matrix" values="0 0 0 0 0 0 0 0 0 0 0 0 0 0 0 0 0 0 0.16 0"/>
<feBlend mode="normal" in2="BackgroundImageFix" result="effect1_dropShadow_810_3933"/>
<feBlend mode="normal" in="SourceGraphic" in2="effect1_dropShadow_810_3933" result="shape"/>
</filter>
<clipPath id="clip0_810_3933">
<rect x="10" y="6.71387" width="53" height="53" rx="26.5" fill="white"/>
</clipPath>
</defs>
</svg>
