<svg width="61" height="16" viewBox="0 0 61 16" fill="none" xmlns="http://www.w3.org/2000/svg">
<path d="M60.4113 7.602L59.8599 7.75204C59.3299 5.95155 58.442 5.17358 57.1884 5.17358C56.3077 5.17358 55.688 5.75387 55.688 6.67399C55.688 7.55474 56.4187 8.02437 58.3813 8.82259C60.193 9.48877 60.9451 10.305 60.9451 11.7304C60.9451 13.9004 59.2406 15.2612 56.4439 15.2612C55.0935 15.2612 53.5721 14.9604 52.7123 14.6168L52.605 11.6017L53.1351 11.4944C53.9303 13.5575 54.9468 14.3377 56.2721 14.3377C57.418 14.3377 58.02 13.5425 58.02 12.7263C58.02 11.9101 57.5549 11.4371 55.7642 10.7926C54.0597 10.23 52.8924 9.5034 52.8924 7.69165C52.8924 5.90841 54.4603 4.39712 57.1322 4.39712C58.3925 4.39712 59.5384 4.61205 60.2905 4.95977L60.4113 7.602ZM48.8731 8.54726C48.9377 7.12937 48.6511 5.08131 47.4838 5.08131C46.2834 5.08131 45.6289 6.99358 45.6075 8.63353L48.8731 8.54726ZM47.7703 4.39337C50.7066 4.39337 52.1215 6.54196 52.1463 9.36348H45.543C45.5216 11.8628 46.8465 13.7537 49.324 13.7537C50.4054 13.7537 51.0285 13.4529 51.6872 12.9802L51.9948 13.3238C51.2644 14.3122 49.7603 15.2575 47.755 15.2575C44.5321 15.2575 42.2972 13.0444 42.2972 9.92201C42.2897 7.10011 44.124 4.39299 47.7688 4.39299M38.245 9.62193C38.1805 7.38744 37.3642 5.61845 35.7955 5.61845C35.4231 5.61845 35.1365 5.68297 34.6927 5.83339L34.8218 14.4206C34.9793 14.4851 35.3518 14.5279 35.617 14.5279C37.1425 14.5279 38.2453 12.3722 38.2453 9.62155M41.5185 9.44976C41.5185 12.9806 39.284 15.2579 35.5093 15.2579C34.159 15.2579 32.7662 15.0429 31.5558 14.7638C31.663 13.346 31.663 4.56104 31.5558 2.91058C31.4485 2.04785 31.2047 1.64274 30.543 1.56021L30.0989 1.51708V1.12322L34.7569 0.26123C34.7355 0.991556 34.6924 2.91096 34.6924 5.16758C35.509 4.75947 36.2603 4.52315 37.278 4.52315C39.706 4.52315 41.5177 6.58622 41.5177 9.45051M29.651 7.53073C28.2113 6.58547 26.6644 6.99358 26.3565 7.53073C26.2203 9.18118 26.2492 11.7319 26.3778 13.0384C26.4423 13.9011 26.6854 14.2631 27.352 14.3276L28.2327 14.4139V14.9765H21.6508V14.4139L22.1594 14.3276C22.7971 14.2631 23.0222 13.8977 23.0619 13.0384C23.2195 11.6419 23.2626 8.71268 23.0619 7.10124C23.0188 6.17736 22.7971 5.83339 22.1594 5.75087L21.6508 5.68635V5.29999L26.3561 4.39749L26.2916 6.80378C27.3944 4.31159 29.5861 4.01076 30.7748 4.67694L29.651 7.53073ZM14.2099 9.83686C14.2099 12.4652 14.9226 14.6138 16.3479 14.6138C17.8949 14.6138 18.339 12.5083 18.339 9.83686C18.339 7.16538 17.6548 5.08131 16.2005 5.08131C14.6465 5.08131 14.2099 7.12262 14.2099 9.83686ZM21.6722 9.79373C21.6722 12.8088 19.6811 15.2582 16.1289 15.2582C12.6341 15.2582 10.8722 12.9307 10.8722 9.87925C10.8722 6.88593 12.8632 4.39337 16.4155 4.39337C19.9103 4.39337 21.6722 6.73551 21.6722 9.79373ZM12.5268 4.61243L11.7964 4.82736C11.1805 2.71478 10.092 1.51145 8.21534 1.51145H5.76591C5.62975 2.91509 5.56523 5.08506 5.62975 7.42683L7.26257 7.34055C8.36538 7.34055 8.83051 6.54533 9.09608 5.38551H9.712V10.2694H9.09608C8.83126 9.08778 8.36575 8.28131 7.26257 8.2213L5.62975 8.19991C5.62975 9.94039 5.65113 11.4258 5.76591 12.3324C5.87319 13.6217 6.23104 14.2087 7.1763 14.3306L8.06454 14.4169V14.9795H0.065094V14.4169L0.731277 14.3306C1.65516 14.2016 2.03476 13.6179 2.14167 12.3324C2.32059 10.227 2.36373 5.72911 2.14167 3.2298C2.03439 1.89818 1.65478 1.36066 0.731277 1.253L0.065094 1.14572V0.565064H12.5058L12.5268 4.61243Z" fill="#080A27"/>
</svg>
