<svg width="52" height="31" viewBox="0 0 52 31" fill="none" xmlns="http://www.w3.org/2000/svg">
<path d="M0.945099 4.85216H4.9623V14.9873H7.39473V4.85216H11.4119V2.604H0.945099V4.85216Z" fill="#080A27"/>
<path d="M20.2571 12.7023H15.5766V9.75388H19.6306V7.46887H15.5766V4.85216H20.2571V2.604H13.1441V14.9873H20.2571V12.7023Z" fill="#080A27"/>
<path d="M27.8861 12.9602C25.6748 12.9602 24.2006 11.1912 24.2006 8.79559C24.2006 6.40001 25.6748 4.66782 27.8493 4.66782C29.5077 4.66782 30.4291 5.40493 30.8714 6.62114H33.5249C32.8616 4.115 31.0188 2.38281 27.8493 2.38281C24.2375 2.38281 21.6576 5.07323 21.6576 8.79559C21.6576 12.5179 24.2375 15.2452 27.8493 15.2452C31.0188 15.2452 32.8984 13.5867 33.5618 10.8963H30.9819C30.6134 12.0757 29.6183 12.9602 27.8861 12.9602Z" fill="#080A27"/>
<path d="M37.7264 9.717H40.1957V9.75386H43.0335V14.9873H45.466V9.717H48.267C48.5987 10.1224 49.0778 10.4173 49.6675 10.4173C50.6625 10.4173 51.4734 9.56959 51.4734 8.5745C51.4734 7.54256 50.6625 6.73175 49.6675 6.73175C49.0778 6.73175 48.5987 7.02659 48.267 7.43199H45.466V0.76123H43.0335V7.43199H40.1957H37.7264V2.60398H35.294V14.9873H37.7264V9.717Z" fill="#080A27"/>
<path d="M0.945099 20.4049H4.9623V30.54H7.39473V20.4049H11.4119V18.1567H0.945099V20.4049Z" fill="#080A27"/>
<path d="M14.6552 17.4199C13.8075 17.4199 13.1073 18.0833 13.1073 18.931C13.1073 19.7786 13.7706 20.442 14.6552 20.442C15.5028 20.442 16.2031 19.8155 16.2031 18.931C16.1662 18.0833 15.466 17.4199 14.6552 17.4199Z" fill="#080A27"/>
<path d="M15.7608 21.5845H13.4758V30.5402H15.7608V21.5845Z" fill="#080A27"/>
<path d="M25.0483 26.1174L24.7903 26.8545L24.4955 26.1174L20.9574 18.1567H18.1933V30.54H20.5888V22.6899L20.9574 23.7956L23.7584 30.54H25.8222L28.6232 23.7956L28.9918 22.6899V30.54H31.4242V18.1567H28.6232L25.0483 26.1174Z" fill="#080A27"/>
<path d="M33.9304 30.54H41.0434V28.255H36.3628V25.3066H40.4168V23.0216H36.3628V20.4049H41.0434V18.1567H33.9304V30.54Z" fill="#080A27"/>
<path d="M47.3825 23.169C45.8714 22.653 45.208 22.3213 45.208 21.3999C45.208 20.5523 45.724 20.0731 46.6085 20.0731C47.4562 20.0731 48.0827 20.626 48.1196 21.6211H50.5888C50.4783 19.1518 49.0041 17.9355 46.6822 17.9355C44.2498 17.9355 42.7756 19.4835 42.7756 21.6211C42.7756 23.6849 44.1024 24.68 46.3137 25.4171C47.8616 25.9331 48.4881 26.4122 48.4881 27.223C48.4881 28.0338 47.8984 28.6235 46.8665 28.6235C45.6134 28.6235 44.9869 27.9601 44.9132 26.7439H42.4439C42.5176 29.1026 43.9918 30.7611 46.7928 30.7611C49.1146 30.7611 50.9205 29.3975 50.9205 27.0019C50.9574 25.1591 50.036 24.0535 47.3825 23.169Z" fill="#080A27"/>
</svg>
