<svg width="110" height="16" viewBox="0 0 110 16" fill="none" xmlns="http://www.w3.org/2000/svg">
<path d="M20.349 2.41303H24.2427C25.3564 2.35203 26.4536 2.70452 27.3247 3.40326C27.7036 3.73925 28.0026 4.15628 28.1995 4.62352C28.3965 5.09075 28.4864 5.5964 28.4628 6.10314C28.4888 6.61283 28.4018 7.12184 28.2077 7.59363C28.0137 8.06541 27.7175 8.48807 27.3408 8.83105C26.4615 9.53543 25.3534 9.88832 24.2301 9.82143H23.08V13.2404H20.349V2.41303ZM23.0762 7.65583H23.8288C25.088 7.65583 25.7174 7.13827 25.7174 6.10314C25.7337 5.88866 25.6999 5.67327 25.6186 5.47424C25.5373 5.2752 25.4105 5.09788 25.2489 4.95653C24.8311 4.67438 24.331 4.54151 23.8288 4.57921H23.0762V7.65583Z" fill="#080A27"/>
<path d="M30.0209 2.41311H33.9146C35.0334 2.34538 36.1381 2.69272 37.0182 3.38896C37.3917 3.72501 37.6856 4.14051 37.8784 4.60512C38.0713 5.06972 38.1582 5.57169 38.1329 6.07433C38.1374 6.6553 37.9906 7.22736 37.707 7.73396C37.4227 8.24256 37.0052 8.66374 36.4999 8.95201L39.1835 13.2405H36.0591L34.1702 9.73613H33.9505C33.8607 9.73613 33.7749 9.73611 33.6946 9.74332C33.6143 9.75053 33.5599 9.75051 33.5311 9.75051H32.7525V13.2411H30.0256L30.0209 2.41311ZM32.7475 7.58432H33.5264C34.7764 7.58432 35.4011 7.07625 35.4007 6.05995C35.4173 5.85094 35.3848 5.64092 35.306 5.44674C35.2271 5.25256 35.1042 5.07958 34.9468 4.94165C34.5357 4.66976 34.046 4.54286 33.5551 4.58106H32.7452L32.7475 7.58432Z" fill="#080A27"/>
<path d="M45.4747 13.4683C44.4476 13.483 43.433 13.2431 42.5205 12.77C41.6508 12.3147 40.9234 11.627 40.419 10.783C39.9159 9.90822 39.647 8.91776 39.6383 7.90793C39.6296 6.8981 39.8814 5.90319 40.3692 5.01983C40.8628 4.15875 41.5791 3.44745 42.4424 2.96117C43.3662 2.436 44.413 2.16798 45.4747 2.18483C46.5018 2.17026 47.5166 2.41015 48.4292 2.88313C49.2989 3.33842 50.0264 4.02609 50.5307 4.87019C51.0339 5.7448 51.3027 6.73519 51.3114 7.74495C51.3201 8.75471 51.0685 9.74954 50.5805 10.6328C50.0866 11.4936 49.3701 12.2048 48.507 12.6914C47.5833 13.2167 46.5364 13.4849 45.4747 13.4683ZM45.4747 10.9446C45.9927 10.9529 46.5034 10.8199 46.9521 10.56C47.3911 10.2995 47.7498 9.92251 47.989 9.47059C48.2522 8.96806 48.3842 8.40685 48.3724 7.83927C48.3806 7.28669 48.2587 6.73994 48.0171 6.24331C47.7897 5.77971 47.4369 5.38965 46.9989 5.11782C46.5397 4.83726 46.0099 4.69404 45.4724 4.70501C44.9544 4.69678 44.4439 4.82963 43.9953 5.08951C43.556 5.34994 43.1972 5.72717 42.9584 6.1795C42.6951 6.68203 42.5631 7.24339 42.5749 7.81096C42.5668 8.36355 42.6886 8.9103 42.9303 9.40692C43.1574 9.87075 43.5102 10.2609 43.9485 10.5324C44.4075 10.8136 44.937 10.9574 45.4747 10.947V10.9446Z" fill="#080A27"/>
<path d="M55.3485 7.59882L51.8406 2.41309H55.1785L57.1239 5.70418L59.0128 2.41309H62.2653L58.7311 7.71295L62.4806 13.2411H59.1146L56.9276 9.62256L54.8398 13.2411H51.5873L55.3485 7.59882Z" fill="#080A27"/>
<path d="M66.7935 8.83844L62.8998 2.41309H66.0532L68.2401 6.61563L70.4414 2.41309H73.5091L69.6034 8.83844V13.2405H66.7917L66.7935 8.83844Z" fill="#080A27"/>
<path d="M74.1225 2.41299H77.1176L78.7348 9.53591L80.7375 2.55544H83.1233L85.1547 9.4055L86.745 2.41064H89.7401L86.5443 13.2379H83.9602L81.9007 6.27123L79.8843 13.2379H77.2995L74.1225 2.41299Z" fill="#080A27"/>
<path d="M93.2674 2.41309H96.2219L100.454 13.2405H97.4589L96.6203 10.7475H92.6863L91.8626 13.2405H89.0365L93.2674 2.41309ZM95.8803 8.56734L94.6451 4.87737L93.4099 8.56734H95.8803Z" fill="#080A27"/>
<path d="M103.219 8.83844L99.3256 2.41309H102.478L104.665 6.61563L106.867 2.41309H109.935L106.029 8.83844V13.2405H103.217L103.219 8.83844Z" fill="#080A27"/>
<path d="M8.24221 15.2612C6.38882 15.2589 4.60234 14.566 3.22934 13.3172C1.85634 12.0684 0.994599 10.3525 0.811428 8.50244C0.628256 6.65238 1.1367 4.80007 2.238 3.30472C3.3393 1.80937 4.95496 0.777622 6.77169 0.409635C8.58843 0.0416474 10.4768 0.363619 12.0702 1.31313C13.6637 2.26264 14.8488 3.772 15.3956 5.5484C15.9424 7.3248 15.8119 9.24162 15.0296 10.927C14.2472 12.6125 12.8687 13.9463 11.1615 14.6699C10.2379 15.0621 9.2451 15.2632 8.24221 15.2612ZM2.61721 5.10473L10.8672 13.3804V11.41L4.58139 5.10473H2.61721ZM2.74758 9.57097V11.2788L4.71194 13.2491H6.41482L2.74758 9.57097ZM4.25399 8.05988V9.76915L6.21872 11.7395H7.92123L4.25399 8.05988ZM7.59347 5.10473H5.89169L10.8683 10.0965V8.38865L7.59347 5.10473ZM8.90249 5.10473L10.8672 7.07547V5.10473H8.90249Z" fill="#080A27"/>
</svg>
