<svg width="94" height="16" viewBox="0 0 94 16" fill="none" xmlns="http://www.w3.org/2000/svg">
<g clip-path="url(#clip0_2_776)">
<path d="M8.28586 6.07373H6.03586V11.1987C6.03586 12.0737 6.53586 12.2612 7.34836 12.2612C7.66086 12.2612 7.97336 12.1987 8.28586 12.1987V14.8862C7.59836 14.8862 6.91086 15.0112 6.28586 15.0112C3.16086 15.0112 2.34836 14.0737 2.34836 11.0112V6.07373H0.473358V3.63623H2.34836V0.26123H6.03586V3.63623H8.28586V6.07373ZM11.5359 10.1987C11.5984 11.7612 12.4734 12.7612 14.0359 12.7612C14.9109 12.7612 15.7859 12.3237 16.1609 11.5112H19.5984C18.9734 14.1362 16.5359 15.2612 14.0359 15.2612C10.3484 15.2612 7.84836 13.0737 7.84836 9.26123C7.84836 5.82373 10.5984 3.32373 13.9109 3.32373C17.9734 3.32373 19.9734 6.38623 19.7859 10.1987H11.5359ZM16.0984 8.13623C16.0359 6.88623 15.1609 5.82373 13.9109 5.82373C12.5984 5.82373 11.7234 6.76123 11.5359 8.13623H16.0984ZM27.9109 7.76123C27.9109 6.82373 27.0359 6.13623 26.0984 6.13623C24.0359 6.13623 23.7234 7.88623 23.7234 9.44873C23.7234 10.8862 24.3484 12.3862 25.9109 12.3862C27.2234 12.3862 27.8484 11.6362 28.0359 10.4487H31.5984C31.2859 13.5112 28.9734 15.2612 25.9734 15.2612C22.5984 15.2612 20.0359 12.9487 20.0359 9.51123C20.0359 5.94873 22.2859 3.38623 25.9734 3.38623C28.7859 3.38623 31.2859 4.88623 31.5359 7.82373H27.9109V7.76123ZM31.7234 0.26123H35.4109V5.19873H35.4734C36.0359 4.07373 37.5359 3.32373 38.9109 3.32373C42.6609 3.32373 42.9734 6.07373 42.9734 7.69873V14.9487H39.2859V9.51123C39.2859 7.94873 39.4734 6.38623 37.4109 6.38623C36.0359 6.38623 35.4109 7.57373 35.4109 8.82373V14.9487H31.7234V0.26123ZM43.2859 3.63623H46.8484V5.63623H46.9109C47.4734 4.19873 48.7234 3.44873 50.2859 3.44873C50.5984 3.44873 50.8484 3.44873 51.1609 3.51123V6.88623C50.6609 6.76123 50.2234 6.69873 49.7234 6.69873C47.9109 6.69873 46.9734 7.94873 46.9734 9.38623V14.9487H43.2859V3.63623ZM51.1609 7.13623C51.2234 5.63623 51.9109 4.69873 52.9109 4.13623C53.9109 3.57373 55.2234 3.32373 56.4734 3.32373C59.1609 3.32373 61.7234 3.88623 61.7234 7.07373V12.0112C61.7234 12.9487 61.7234 14.0112 62.1609 14.8862H58.4734C58.3484 14.5112 58.2859 14.1987 58.2859 13.8237C57.2859 14.8862 55.9109 15.2612 54.5359 15.2612C52.4109 15.2612 50.6609 14.1987 50.6609 11.8237C50.6609 8.13623 54.6609 8.44873 57.2234 7.88623C57.8484 7.76123 58.2234 7.51123 58.2234 6.82373C58.2234 5.94873 57.2234 5.63623 56.4109 5.63623C55.4109 5.63623 54.7234 6.07373 54.5359 7.07373H51.1609V7.13623ZM55.9109 13.0112C57.6609 13.0112 58.2859 12.0112 58.1609 9.69873C57.6609 10.0112 56.6609 10.0737 55.9109 10.3237C55.0984 10.5112 54.4109 10.8862 54.4109 11.7612C54.4109 12.6362 55.0984 13.0112 55.9109 13.0112ZM73.6609 14.9487H70.1609V13.6362H70.0984C69.7685 14.1455 69.3141 14.562 68.7781 14.8464C68.2422 15.1308 67.6425 15.2736 67.0359 15.2612C63.4734 15.2612 61.9734 12.1987 61.9734 9.07373C61.9734 6.13623 63.5359 3.38623 66.7234 3.38623C68.0984 3.38623 69.1609 3.88623 69.9109 4.94873H69.9734V0.26123H73.6609V14.9487ZM65.6609 9.19873C65.6609 10.7612 66.2234 12.4487 67.9109 12.4487C69.7234 12.4487 70.0984 10.7612 70.0984 9.32373C70.0984 7.69873 69.5359 6.19873 67.9109 6.19873C66.2234 6.13623 65.6609 7.76123 65.6609 9.19873ZM74.2234 7.13623C74.2859 5.63623 74.9734 4.69873 75.9734 4.13623C76.9734 3.57373 78.2859 3.32373 79.5359 3.32373C82.2234 3.32373 84.7859 3.88623 84.7859 7.07373V12.0112C84.7859 12.9487 84.7859 14.0112 85.2234 14.8862H81.5359C81.4109 14.5112 81.3484 14.1987 81.3484 13.8237C80.3484 14.8862 78.9109 15.2612 77.5984 15.2612C75.4734 15.2612 73.7234 14.1987 73.7234 11.8237C73.7234 8.13623 77.7234 8.44873 80.2859 7.88623C80.9109 7.76123 81.2859 7.51123 81.2859 6.82373C81.2859 5.94873 80.2859 5.63623 79.4734 5.63623C78.4734 5.63623 77.7859 6.07373 77.5984 7.07373H74.2234V7.13623ZM78.9734 13.0112C80.7234 13.0112 81.3484 12.0112 81.2234 9.69873C80.7234 10.0112 79.7234 10.0737 78.9734 10.3237C78.1609 10.5112 77.4734 10.8862 77.4734 11.7612C77.4109 12.6362 78.1609 13.0112 78.9734 13.0112ZM85.3484 3.63623H88.9109V5.63623H88.9734C89.5359 4.19873 90.7859 3.44873 92.3484 3.44873C92.6609 3.44873 93.2859 3.44873 93.5984 3.51123V6.88623C93.0984 6.76123 92.3484 6.69873 91.8484 6.69873C90.0359 6.69873 89.0984 7.94873 89.0984 9.38623V14.9487H85.4109V3.63623H85.3484Z" fill="#080A27"/>
<path d="M89.9109 11.2612H93.5984V14.9487H89.9109V11.2612Z" fill="#080A27"/>
</g>
<defs>
<clipPath id="clip0_2_776">
<rect width="93.125" height="15" fill="white" transform="translate(0.473358 0.26123)"/>
</clipPath>
</defs>
</svg>
