<svg width="73" height="22" viewBox="0 0 73 22" fill="none" xmlns="http://www.w3.org/2000/svg">
<rect x="1" y="0.5" width="71" height="21" rx="10.5" fill="#FFF5D6"/>
<path d="M20.552 15H18.644L14.804 7.8V15H13.46V6.3H15.368L19.208 13.488V6.3H20.552V15ZM23.2397 11.796C23.2397 13.38 24.1157 14.1 25.0517 14.1C26.0117 14.1 26.8757 13.368 26.8757 11.796C26.8757 10.2 26.0117 9.48 25.0517 9.48C24.1157 9.48 23.2397 10.164 23.2397 11.796ZM25.0517 8.424C26.5877 8.424 28.1957 9.456 28.1957 11.796C28.1957 14.124 26.5877 15.156 25.0517 15.156C23.5277 15.156 21.9197 14.124 21.9197 11.796C21.9197 9.456 23.5277 8.424 25.0517 8.424ZM34.9301 8.424C36.4061 8.424 37.5341 9.468 37.7261 10.728H36.4781C36.3461 9.996 35.6861 9.492 34.8701 9.492C33.9701 9.492 33.1421 10.2 33.1421 11.772C33.1421 13.368 33.9701 14.088 34.8701 14.088C35.6741 14.088 36.3461 13.62 36.5261 12.852H37.7861C37.5221 14.208 36.2741 15.156 34.8461 15.156C32.9741 15.156 31.8101 13.74 31.8101 11.784C31.8101 9.876 33.0221 8.424 34.9301 8.424ZM39.9038 11.796C39.9038 13.38 40.7798 14.1 41.7158 14.1C42.6758 14.1 43.5398 13.368 43.5398 11.796C43.5398 10.2 42.6758 9.48 41.7158 9.48C40.7798 9.48 39.9038 10.164 39.9038 11.796ZM41.7158 8.424C43.2518 8.424 44.8598 9.456 44.8598 11.796C44.8598 14.124 43.2518 15.156 41.7158 15.156C40.1918 15.156 38.5838 14.124 38.5838 11.796C38.5838 9.456 40.1918 8.424 41.7158 8.424ZM50.5554 9.492V6.3H51.8034V15H50.5554V14.088C50.1594 14.76 49.4994 15.156 48.5394 15.156C47.0394 15.156 45.7554 13.896 45.7554 11.784C45.7554 9.672 47.0394 8.424 48.5394 8.424C49.4994 8.424 50.1594 8.82 50.5554 9.492ZM50.6034 11.784C50.6034 10.188 49.7874 9.468 48.8274 9.468C47.7834 9.468 47.0874 10.332 47.0874 11.784C47.0874 13.236 47.7834 14.112 48.8274 14.112C49.7874 14.112 50.6034 13.38 50.6034 11.784ZM56.2124 14.088C57.1244 14.088 57.6284 13.716 57.9044 13.104H59.1644C58.8764 14.172 57.8924 15.156 56.2604 15.156C54.1844 15.156 53.0444 13.632 53.0444 11.76C53.0444 9.756 54.3884 8.424 56.2244 8.424C58.2164 8.424 59.3804 10.056 59.2484 12.156H54.3284C54.4604 13.356 55.1924 14.088 56.2124 14.088ZM56.2124 9.444C55.2404 9.444 54.5324 9.936 54.3524 11.172H57.9524C57.9164 10.224 57.2324 9.444 56.2124 9.444Z" fill="#E4B002"/>
<rect x="1" y="0.5" width="71" height="21" rx="10.5" stroke="url(#paint0_linear_624_619)"/>
<defs>
<linearGradient id="paint0_linear_624_619" x1="65.5" y1="31" x2="36.5" y2="22" gradientUnits="userSpaceOnUse">
<stop stop-color="#E4B002"/>
<stop offset="1" stop-color="#FFF5D6"/>
</linearGradient>
</defs>
</svg>
