<svg width="24" height="25" viewBox="0 0 24 25" fill="none" xmlns="http://www.w3.org/2000/svg">
<g id="ui/phone-01">
<path id="Icon" d="M12 18.022H12.01M8.2 22.522H15.8C16.9201 22.522 17.4802 22.522 17.908 22.304C18.2843 22.1122 18.5903 21.8063 18.782 21.43C19 21.0021 19 20.4421 19 19.322V5.72197C19 4.60187 19 4.04182 18.782 3.61399C18.5903 3.23767 18.2843 2.93171 17.908 2.73996C17.4802 2.52197 16.9201 2.52197 15.8 2.52197H8.2C7.0799 2.52197 6.51984 2.52197 6.09202 2.73996C5.71569 2.93171 5.40973 3.23767 5.21799 3.61399C5 4.04182 5 4.60187 5 5.72197V19.322C5 20.4421 5 21.0021 5.21799 21.43C5.40973 21.8063 5.71569 22.1122 6.09202 22.304C6.51984 22.522 7.07989 22.522 8.2 22.522ZM12.5 18.022C12.5 18.2981 12.2761 18.522 12 18.522C11.7239 18.522 11.5 18.2981 11.5 18.022C11.5 17.7458 11.7239 17.522 12 17.522C12.2761 17.522 12.5 17.7458 12.5 18.022Z" stroke="url(#paint0_linear_0_1424)" stroke-width="1.33333" stroke-linecap="round" stroke-linejoin="round"/>
</g>
<defs>
<linearGradient id="paint0_linear_0_1424" x1="5" y1="13.1102" x2="19" y2="13.1102" gradientUnits="userSpaceOnUse">
<stop stop-color="#00B67A"/>
<stop offset="0.519737" stop-color="#D0F6EA"/>
<stop offset="1" stop-color="#00B67A"/>
</linearGradient>
</defs>
</svg>
