<svg width="31" height="11" viewBox="0 0 31 11" fill="none" xmlns="http://www.w3.org/2000/svg">
<path d="M7.308 0.35L9.044 8.204L10.584 0.35H12.446L10.08 10.5H7.98L6.272 2.716L4.592 10.5H2.464L0.084 0.35H2.016L3.64 8.19L5.25 0.35H7.308ZM13.5728 10.5V0.35H20.7548V1.834H15.3508V4.55H20.4608V6.02H15.3508V9.002H20.7548V10.5H13.5728ZM22.1861 10.5V0.35H26.0081C27.8561 0.35 29.6621 0.854 29.6621 2.94C29.6621 3.892 29.1301 4.732 28.5281 5.11C29.3681 5.488 30.0541 6.146 30.0541 7.49C30.0541 9.674 28.3321 10.5 26.2601 10.5H22.1861ZM23.9641 5.95V9.072H26.3301C27.6041 9.072 28.2201 8.498 28.2201 7.49C28.2201 6.44 27.5901 5.95 26.2321 5.95H23.9641ZM23.9641 1.778V4.592H26.1761C27.2261 4.592 27.8561 4.144 27.8561 3.136C27.8561 2.24 27.1841 1.778 26.1761 1.778H23.9641Z" fill="url(#paint0_linear_626_5517)"/>
<defs>
<linearGradient id="paint0_linear_626_5517" x1="4.11087e-08" y1="5.97058" x2="31" y2="5.97058" gradientUnits="userSpaceOnUse">
<stop stop-color="#00B67A"/>
<stop offset="0.519737" stop-color="#D0F6EA"/>
<stop offset="1" stop-color="#00B67A"/>
</linearGradient>
</defs>
</svg>
