<svg width="16" height="16" viewBox="0 0 16 16" fill="none" xmlns="http://www.w3.org/2000/svg">
<g id="ui/phone-01">
<path id="Icon" d="M7.9987 11.6668H8.00536M5.46536 14.6668H10.532C11.2788 14.6668 11.6521 14.6668 11.9374 14.5215C12.1882 14.3937 12.3922 14.1897 12.52 13.9388C12.6654 13.6536 12.6654 13.2802 12.6654 12.5335V3.46683C12.6654 2.72009 12.6654 2.34672 12.52 2.06151C12.3922 1.81063 12.1882 1.60665 11.9374 1.47882C11.6521 1.3335 11.2788 1.3335 10.532 1.3335H5.46536C4.71863 1.3335 4.34526 1.3335 4.06004 1.47882C3.80916 1.60665 3.60519 1.81063 3.47736 2.06151C3.33203 2.34672 3.33203 2.72009 3.33203 3.46683V12.5335C3.33203 13.2802 3.33203 13.6536 3.47736 13.9388C3.60519 14.1897 3.80916 14.3937 4.06004 14.5215C4.34526 14.6668 4.71863 14.6668 5.46536 14.6668ZM8.33203 11.6668C8.33203 11.8509 8.18279 12.0002 7.9987 12.0002C7.8146 12.0002 7.66536 11.8509 7.66536 11.6668C7.66536 11.4827 7.8146 11.3335 7.9987 11.3335C8.18279 11.3335 8.33203 11.4827 8.33203 11.6668Z" stroke="#F6CA45" stroke-width="0.888889" stroke-linecap="round" stroke-linejoin="round"/>
</g>
</svg>
