<svg width="390" height="213" viewBox="0 0 390 213" fill="none" xmlns="http://www.w3.org/2000/svg">
<g clip-path="url(#clip0_2160_1796)">
<rect x="-9.5" y="-54.0063" width="79" height="79" rx="13.5" fill="white" stroke="#F0EBE6"/>
<rect x="100.5" y="-54.0063" width="79" height="79" rx="13.5" fill="white" stroke="#F0EBE6"/>
<rect x="210.5" y="-54.0063" width="79" height="79" rx="13.5" fill="white" stroke="#F0EBE6"/>
<path d="M237.8 -21.8828C237.07 -20.835 236.834 -19.6133 237.135 -18.4898L239.352 -10.213C239.981 -7.86626 242.73 -6.57433 245.498 -7.31589L253.334 -9.41566C256.102 -10.1572 257.834 -12.6589 257.208 -14.9973L254.99 -23.2741C254.363 -25.6124 251.612 -26.9136 248.844 -26.172L241.008 -24.0723C239.679 -23.7161 238.528 -22.931 237.8 -21.8828Z" fill="#EF5641" fill-opacity="0.5"/>
<g filter="url(#filter1_b_2160_1796)">
<mask id="path-5-outside-1_2160_1796" maskUnits="userSpaceOnUse" x="238.664" y="-24.7217" width="28" height="28" fill="black">
<rect fill="white" x="238.664" y="-24.7217" width="28" height="28"/>
<path d="M258.99 -23.7217H246.687C242.204 -23.7217 239.664 -21.1816 239.664 -16.6984V-4.40756C239.664 0.075655 242.204 2.61575 246.687 2.61575H258.99C263.473 2.61575 266.002 0.075655 266.002 -4.40756V-16.6984C266.002 -21.1816 263.473 -23.7217 258.99 -23.7217Z"/>
</mask>
<path d="M258.99 -23.7217H246.687C242.204 -23.7217 239.664 -21.1816 239.664 -16.6984V-4.40756C239.664 0.075655 242.204 2.61575 246.687 2.61575H258.99C263.473 2.61575 266.002 0.075655 266.002 -4.40756V-16.6984C266.002 -21.1816 263.473 -23.7217 258.99 -23.7217Z" fill="#FFAC95" fill-opacity="0.4"/>
<path d="M258.99 -23.3042C259.22 -23.3042 259.407 -23.4911 259.407 -23.7217C259.407 -23.9522 259.22 -24.1392 258.99 -24.1392V-23.3042ZM258.99 -24.1392C258.759 -24.1392 258.572 -23.9522 258.572 -23.7217C258.572 -23.4911 258.759 -23.3042 258.99 -23.3042V-24.1392ZM258.99 -24.1392H246.687V-23.3042H258.99V-24.1392ZM246.687 -24.1392C244.368 -24.1392 242.494 -23.4808 241.199 -22.1864C239.905 -20.8921 239.247 -19.0176 239.247 -16.6984H240.082C240.082 -18.8624 240.693 -20.4996 241.79 -21.596C242.886 -22.6925 244.523 -23.3042 246.687 -23.3042V-24.1392ZM239.247 -16.6984V-4.40756H240.082V-16.6984H239.247ZM239.247 -4.40756C239.247 -2.08834 239.905 -0.213875 241.199 1.0805C242.494 2.37488 244.368 3.03323 246.687 3.03323V2.19828C244.523 2.19828 242.886 1.58658 241.79 0.490101C240.693 -0.606375 240.082 -2.24357 240.082 -4.40756H239.247ZM246.687 3.03323H258.99V2.19828H246.687V3.03323ZM258.99 3.03323C261.309 3.03323 263.181 2.37485 264.473 1.08014C265.764 -0.214415 266.419 -2.08886 266.419 -4.40756H265.584C265.584 -2.24305 264.975 -0.605835 263.881 0.490463C262.788 1.58661 261.154 2.19828 258.99 2.19828V3.03323ZM266.419 -4.40756V-16.6984H265.584V-4.40756H266.419ZM266.419 -16.6984C266.419 -19.0171 265.764 -20.8915 264.473 -22.1861C263.181 -23.4808 261.309 -24.1392 258.99 -24.1392V-23.3042C261.154 -23.3042 262.788 -22.6925 263.881 -21.5964C264.975 -20.5001 265.584 -18.8629 265.584 -16.6984H266.419Z" fill="white" mask="url(#path-5-outside-1_2160_1796)"/>
</g>
<g filter="url(#filter2_bd_2160_1796)">
<path d="M251.845 -5.17879V-13.5409L248.606 -10.2751C248.211 -9.89319 247.592 -9.89319 247.197 -10.2751C246.815 -10.657 246.815 -11.2891 247.197 -11.671L252.135 -16.6356C252.504 -17.0043 253.162 -17.0043 253.531 -16.6356L258.469 -11.671C258.851 -11.2891 258.851 -10.657 258.469 -10.2751C258.271 -10.0907 258.02 -9.98537 257.771 -9.98537C257.521 -9.98537 257.257 -10.0907 257.073 -10.2751L253.82 -13.5409V-5.17879C253.82 -4.6257 253.386 -4.19113 252.833 -4.19113C252.293 -4.19113 251.845 -4.6257 251.845 -5.17879Z" fill="url(#paint0_linear_2160_1796)"/>
<path d="M251.887 -13.5409V-13.6423L251.816 -13.5703L248.576 -10.3048C248.197 -9.93893 247.605 -9.93895 247.226 -10.3048C246.861 -10.6705 246.861 -11.2759 247.226 -11.6414L247.226 -11.6415L252.164 -16.606C252.517 -16.9585 253.149 -16.9585 253.501 -16.606L258.439 -11.6415L258.439 -11.6414C258.805 -11.276 258.805 -10.6708 258.44 -10.3051C258.249 -10.1275 258.008 -10.0271 257.771 -10.0271C257.532 -10.0271 257.279 -10.1282 257.103 -10.3046L253.85 -13.5704L253.779 -13.642V-13.5409V-5.17879C253.779 -4.64876 253.363 -4.23288 252.833 -4.23288C252.316 -4.23288 251.887 -4.64912 251.887 -5.17879V-13.5409Z" stroke="url(#paint1_linear_2160_1796)" stroke-opacity="0.5" stroke-width="0.0834952"/>
</g>
<rect x="320.5" y="-54.0063" width="79" height="79" rx="13.5" fill="white" stroke="#F0EBE6"/>
<rect x="-64.5" y="56.2485" width="79" height="79" rx="13.5" fill="white" stroke="url(#paint2_linear_2160_1796)"/>
<rect x="45.5" y="56.2485" width="79" height="79" rx="13.5" fill="white" stroke="url(#paint3_linear_2160_1796)"/>
<g filter="url(#filter3_d_2160_1796)">
<rect x="155" y="55.7485" width="80" height="80" rx="20" fill="white"/>
</g>
<rect x="159.5" y="60.2485" width="71" height="71" rx="15.5" fill="white" stroke="#F0EBE6"/>
<line x1="202.953" y1="106.994" x2="202.953" y2="114.494" stroke="url(#paint4_linear_2160_1796)" stroke-width="1.5"/>
<line x1="188.555" y1="106.994" x2="188.555" y2="114.494" stroke="url(#paint5_linear_2160_1796)" stroke-width="1.5"/>
<line y1="-0.75" x2="7.5" y2="-0.75" transform="matrix(5.59506e-08 -1 -1 -3.41495e-08 202.203 81.9937)" stroke="url(#paint6_linear_2160_1796)" stroke-width="1.5" stroke-dasharray="2 2"/>
<line y1="-0.75" x2="7.5" y2="-0.75" transform="matrix(5.59506e-08 -1 -1 -3.41495e-08 187.805 81.9937)" stroke="url(#paint7_linear_2160_1796)" stroke-width="1.5" stroke-dasharray="2 2"/>
<g filter="url(#filter4_d_2160_1796)">
<rect x="183" y="83.4937" width="24" height="24" rx="7" fill="white"/>
<rect x="183.75" y="84.2437" width="22.5" height="22.5" rx="6.25" stroke="url(#paint8_linear_2160_1796)" stroke-width="1.5"/>
</g>
<path fill-rule="evenodd" clip-rule="evenodd" d="M189.168 90.8271H200.835V93.7438H199.96V91.7021H190.043V99.2855H194.418V100.16H189.168V90.8271ZM195.585 98.2646V97.3896C196.544 97.3896 197.135 97.1773 197.493 96.819C197.851 96.4607 198.064 95.8698 198.064 94.9105H198.939C198.939 95.8698 199.151 96.4607 199.509 96.819C199.868 97.1773 200.459 97.3896 201.418 97.3896V98.2646C200.459 98.2646 199.868 98.477 199.509 98.8353C199.151 99.1936 198.939 99.7845 198.939 100.744H198.064C198.064 99.7845 197.851 99.1936 197.493 98.8353C197.135 98.477 196.544 98.2646 195.585 98.2646ZM198.501 98.729C198.609 98.5408 198.738 98.3696 198.891 98.2166C199.044 98.0635 199.215 97.9345 199.403 97.8271C199.215 97.7198 199.044 97.5908 198.891 97.4377C198.738 97.2847 198.609 97.1135 198.501 96.9253C198.394 97.1135 198.265 97.2847 198.112 97.4377C197.959 97.5908 197.788 97.7198 197.599 97.8271C197.788 97.9345 197.959 98.0635 198.112 98.2166C198.265 98.3696 198.394 98.5408 198.501 98.729Z" fill="url(#paint9_linear_2160_1796)"/>
<path d="M192.085 93.1605C192.085 93.4826 191.823 93.7438 191.501 93.7438C191.179 93.7438 190.918 93.4826 190.918 93.1605C190.918 92.8383 191.179 92.5771 191.501 92.5771C191.823 92.5771 192.085 92.8383 192.085 93.1605Z" fill="url(#paint10_linear_2160_1796)"/>
<path d="M193.835 93.1605C193.835 93.4826 193.573 93.7438 193.251 93.7438C192.929 93.7438 192.668 93.4826 192.668 93.1605C192.668 92.8383 192.929 92.5771 193.251 92.5771C193.573 92.5771 193.835 92.8383 193.835 93.1605Z" fill="url(#paint11_linear_2160_1796)"/>
<path d="M195.001 93.7438C195.323 93.7438 195.585 93.4826 195.585 93.1605C195.585 92.8383 195.323 92.5771 195.001 92.5771C194.679 92.5771 194.418 92.8383 194.418 93.1605C194.418 93.4826 194.679 93.7438 195.001 93.7438Z" fill="url(#paint12_linear_2160_1796)"/>
<rect x="265.5" y="56.2485" width="79" height="79" rx="13.5" fill="white" stroke="url(#paint13_linear_2160_1796)"/>
<rect x="375.5" y="56.2485" width="79" height="79" rx="13.5" fill="white" stroke="url(#paint14_linear_2160_1796)"/>
<path d="M-68 25.2485V25.2485C-68 33.8089 -61.0604 40.7485 -52.5 40.7485H-18C-8.05888 40.7485 0 48.8074 0 58.7485V94.7485C0 103.033 6.71573 109.749 15 109.749V109.749" stroke="#F0EBE6"/>
<path d="M193 135.249V135.249C193 143.809 199.94 150.749 208.5 150.749H243C252.941 150.749 261 158.807 261 168.749V204.749C261 213.033 267.716 219.749 276 219.749V219.749" stroke="#F0EBE6"/>
<path d="M60 14.7485V14.7485C60 23.5851 67.1634 30.7485 76 30.7485H110C119.941 30.7485 128 38.8074 128 48.7485V188.749C128 197.033 134.716 203.749 143 203.749V203.749" stroke="#F0EBE6"/>
<path d="M332.5 26.2485V56.2485" stroke="#F0EBE6"/>
<rect y="-0.251465" width="390" height="46" fill="url(#paint15_linear_2160_1796)"/>
<rect width="390" height="43" transform="matrix(1 0 0 -1 0.5 228.749)" fill="url(#paint16_linear_2160_1796)"/>
</g>
<defs>
<filter id="filter1_b_2160_1796" x="232.984" y="-30.4013" width="39.6961" height="39.6966" filterUnits="userSpaceOnUse" color-interpolation-filters="sRGB">
<feFlood flood-opacity="0" result="BackgroundImageFix"/>
<feGaussianBlur in="BackgroundImageFix" stdDeviation="3.13107"/>
<feComposite in2="SourceAlpha" operator="in" result="effect1_backgroundBlur_2160_1796"/>
<feBlend mode="normal" in="SourceGraphic" in2="effect1_backgroundBlur_2160_1796" result="shape"/>
</filter>
<filter id="filter2_bd_2160_1796" x="240.648" y="-23.1742" width="24.368" height="25.2455" filterUnits="userSpaceOnUse" color-interpolation-filters="sRGB">
<feFlood flood-opacity="0" result="BackgroundImageFix"/>
<feGaussianBlur in="BackgroundImageFix" stdDeviation="3.13107"/>
<feComposite in2="SourceAlpha" operator="in" result="effect1_backgroundBlur_2160_1796"/>
<feColorMatrix in="SourceAlpha" type="matrix" values="0 0 0 0 0 0 0 0 0 0 0 0 0 0 0 0 0 0 127 0" result="hardAlpha"/>
<feOffset dx="2.08738" dy="2.08738"/>
<feGaussianBlur stdDeviation="2.08738"/>
<feColorMatrix type="matrix" values="0 0 0 0 1 0 0 0 0 0.447059 0 0 0 0 0.368627 0 0 0 0.5 0"/>
<feBlend mode="normal" in2="effect1_backgroundBlur_2160_1796" result="effect2_dropShadow_2160_1796"/>
<feBlend mode="normal" in="SourceGraphic" in2="effect2_dropShadow_2160_1796" result="shape"/>
</filter>
<filter id="filter3_d_2160_1796" x="151" y="53.7485" width="88" height="88" filterUnits="userSpaceOnUse" color-interpolation-filters="sRGB">
<feFlood flood-opacity="0" result="BackgroundImageFix"/>
<feColorMatrix in="SourceAlpha" type="matrix" values="0 0 0 0 0 0 0 0 0 0 0 0 0 0 0 0 0 0 127 0" result="hardAlpha"/>
<feOffset dy="2"/>
<feGaussianBlur stdDeviation="2"/>
<feComposite in2="hardAlpha" operator="out"/>
<feColorMatrix type="matrix" values="0 0 0 0 0.494118 0 0 0 0 0.494118 0 0 0 0 0.988235 0 0 0 0.21 0"/>
<feBlend mode="normal" in2="BackgroundImageFix" result="effect1_dropShadow_2160_1796"/>
<feBlend mode="normal" in="SourceGraphic" in2="effect1_dropShadow_2160_1796" result="shape"/>
</filter>
<filter id="filter4_d_2160_1796" x="163" y="67.4937" width="64" height="64" filterUnits="userSpaceOnUse" color-interpolation-filters="sRGB">
<feFlood flood-opacity="0" result="BackgroundImageFix"/>
<feColorMatrix in="SourceAlpha" type="matrix" values="0 0 0 0 0 0 0 0 0 0 0 0 0 0 0 0 0 0 127 0" result="hardAlpha"/>
<feOffset dy="4"/>
<feGaussianBlur stdDeviation="10"/>
<feComposite in2="hardAlpha" operator="out"/>
<feColorMatrix type="matrix" values="0 0 0 0 0.494118 0 0 0 0 0.494118 0 0 0 0 0.988235 0 0 0 0.25 0"/>
<feBlend mode="normal" in2="BackgroundImageFix" result="effect1_dropShadow_2160_1796"/>
<feBlend mode="normal" in="SourceGraphic" in2="effect1_dropShadow_2160_1796" result="shape"/>
</filter>
<linearGradient id="paint0_linear_2160_1796" x1="257.916" y1="-14.615" x2="244.719" y2="-14.2143" gradientUnits="userSpaceOnUse">
<stop stop-color="white"/>
<stop offset="1" stop-color="white" stop-opacity="0.2"/>
</linearGradient>
<linearGradient id="paint1_linear_2160_1796" x1="258.248" y1="-10.2825" x2="246.729" y2="-9.83571" gradientUnits="userSpaceOnUse">
<stop stop-color="white"/>
<stop offset="1" stop-color="white" stop-opacity="0"/>
</linearGradient>
<linearGradient id="paint2_linear_2160_1796" x1="-25" y1="55.7485" x2="-25" y2="135.749" gradientUnits="userSpaceOnUse">
<stop stop-color="#F0EBE6"/>
<stop offset="1" stop-color="#F0EBE6" stop-opacity="0.4"/>
</linearGradient>
<linearGradient id="paint3_linear_2160_1796" x1="85" y1="55.7485" x2="85" y2="135.749" gradientUnits="userSpaceOnUse">
<stop stop-color="#F0EBE6"/>
<stop offset="1" stop-color="#F0EBE6" stop-opacity="0.4"/>
</linearGradient>
<linearGradient id="paint4_linear_2160_1796" x1="202.203" y1="114.494" x2="202.203" y2="106.994" gradientUnits="userSpaceOnUse">
<stop stop-color="#7E7EFC" stop-opacity="0"/>
<stop offset="1" stop-color="#7E7EFC"/>
</linearGradient>
<linearGradient id="paint5_linear_2160_1796" x1="187.805" y1="114.494" x2="187.805" y2="106.994" gradientUnits="userSpaceOnUse">
<stop stop-color="#7E7EFC" stop-opacity="0"/>
<stop offset="1" stop-color="#7E7EFC"/>
</linearGradient>
<linearGradient id="paint6_linear_2160_1796" x1="7.5" y1="-1.13649e-06" x2="0" y2="-1.04193e-06" gradientUnits="userSpaceOnUse">
<stop stop-color="#7E7EFC" stop-opacity="0"/>
<stop offset="1" stop-color="#7E7EFC"/>
</linearGradient>
<linearGradient id="paint7_linear_2160_1796" x1="7.5" y1="-1.13649e-06" x2="0" y2="-1.04193e-06" gradientUnits="userSpaceOnUse">
<stop stop-color="#7E7EFC" stop-opacity="0"/>
<stop offset="1" stop-color="#7E7EFC"/>
</linearGradient>
<linearGradient id="paint8_linear_2160_1796" x1="204.897" y1="107.494" x2="185.992" y2="106.322" gradientUnits="userSpaceOnUse">
<stop stop-color="#6F6CFF"/>
<stop offset="0.526042" stop-color="#B9E1F2"/>
<stop offset="1" stop-color="#7B78FC"/>
</linearGradient>
<linearGradient id="paint9_linear_2160_1796" x1="200.344" y1="100.744" x2="190.714" y2="100.007" gradientUnits="userSpaceOnUse">
<stop stop-color="#6F6CFF"/>
<stop offset="0.526042" stop-color="#B9E1F2"/>
<stop offset="1" stop-color="#7B78FC"/>
</linearGradient>
<linearGradient id="paint10_linear_2160_1796" x1="200.344" y1="100.744" x2="190.714" y2="100.007" gradientUnits="userSpaceOnUse">
<stop stop-color="#6F6CFF"/>
<stop offset="0.526042" stop-color="#B9E1F2"/>
<stop offset="1" stop-color="#7B78FC"/>
</linearGradient>
<linearGradient id="paint11_linear_2160_1796" x1="200.344" y1="100.744" x2="190.714" y2="100.007" gradientUnits="userSpaceOnUse">
<stop stop-color="#6F6CFF"/>
<stop offset="0.526042" stop-color="#B9E1F2"/>
<stop offset="1" stop-color="#7B78FC"/>
</linearGradient>
<linearGradient id="paint12_linear_2160_1796" x1="200.344" y1="100.744" x2="190.714" y2="100.007" gradientUnits="userSpaceOnUse">
<stop stop-color="#6F6CFF"/>
<stop offset="0.526042" stop-color="#B9E1F2"/>
<stop offset="1" stop-color="#7B78FC"/>
</linearGradient>
<linearGradient id="paint13_linear_2160_1796" x1="305" y1="55.7485" x2="305" y2="135.749" gradientUnits="userSpaceOnUse">
<stop stop-color="#F0EBE6"/>
<stop offset="1" stop-color="#F0EBE6" stop-opacity="0.4"/>
</linearGradient>
<linearGradient id="paint14_linear_2160_1796" x1="415" y1="55.7485" x2="415" y2="135.749" gradientUnits="userSpaceOnUse">
<stop stop-color="#F0EBE6"/>
<stop offset="1" stop-color="#F0EBE6" stop-opacity="0.4"/>
</linearGradient>
<linearGradient id="paint15_linear_2160_1796" x1="195" y1="7.96282" x2="195" y2="45.7485" gradientUnits="userSpaceOnUse">
<stop stop-color="white"/>
<stop offset="1" stop-color="white" stop-opacity="0"/>
</linearGradient>
<linearGradient id="paint16_linear_2160_1796" x1="195" y1="7.67857" x2="195" y2="43" gradientUnits="userSpaceOnUse">
<stop stop-color="white"/>
<stop offset="1" stop-color="white" stop-opacity="0"/>
</linearGradient>
<clipPath id="clip0_2160_1796">
<rect width="390" height="212" fill="white" transform="translate(0 0.493652)"/>
</clipPath>
</defs>
</svg>
