<svg width="200" height="44" viewBox="0 0 200 44" fill="none" xmlns="http://www.w3.org/2000/svg">
<path d="M28.527 15.1776C27.7902 15.1776 27.1418 15.0352 26.5818 14.7502C26.0218 14.4554 25.5896 14.0428 25.2849 13.5124C24.9804 12.9818 24.8281 12.3726 24.8281 11.6849V8.11862C24.8281 7.42107 24.9804 6.81195 25.2849 6.29124C25.5896 5.76072 26.0218 5.353 26.5818 5.06808C27.1418 4.77335 27.7902 4.62598 28.527 4.62598C29.2541 4.62598 29.8926 4.76844 30.4429 5.05335C31.0029 5.33826 31.4351 5.72634 31.7397 6.21756C32.0442 6.70879 32.1965 7.26388 32.1965 7.88283V8.00072C32.1965 8.04984 32.1769 8.09406 32.1375 8.13335C32.1081 8.16283 32.0687 8.17756 32.0197 8.17756H30.6786C30.6295 8.17756 30.5853 8.16283 30.5459 8.13335C30.5165 8.09406 30.5018 8.04984 30.5018 8.00072V7.92703C30.5018 7.39651 30.3201 6.95931 29.9565 6.61546C29.6029 6.27159 29.1263 6.09967 28.527 6.09967C27.9278 6.09967 27.4463 6.28142 27.0829 6.64492C26.7193 6.99862 26.5375 7.47019 26.5375 8.05967V11.7439C26.5375 12.3334 26.7291 12.8098 27.1123 13.1733C27.4954 13.527 27.9915 13.7038 28.6007 13.7038C29.1902 13.7038 29.6519 13.5516 29.9859 13.247C30.3298 12.9326 30.5018 12.5053 30.5018 11.9649V11.0512C30.5018 11.0021 30.4773 10.9776 30.4281 10.9776H28.6154C28.5664 10.9776 28.5221 10.9628 28.4829 10.9333C28.4534 10.8941 28.4386 10.8498 28.4386 10.8007V9.71019C28.4386 9.66107 28.4534 9.62178 28.4829 9.5923C28.5221 9.553 28.5664 9.53335 28.6154 9.53335H32.0197C32.0687 9.53335 32.1081 9.553 32.1375 9.5923C32.1769 9.62178 32.1965 9.66107 32.1965 9.71019V11.5965C32.1965 12.7263 31.8625 13.6057 31.1945 14.2344C30.5362 14.8632 29.647 15.1776 28.527 15.1776ZM36.0617 13.4976C36.0421 13.5172 36.0322 13.5369 36.0322 13.5565C36.0421 13.5761 36.0617 13.586 36.0912 13.586H40.2911C40.3403 13.586 40.3795 13.6057 40.4091 13.6449C40.4483 13.6744 40.4681 13.7137 40.4681 13.7628V14.8828C40.4681 14.932 40.4483 14.9761 40.4091 15.0154C40.3795 15.0449 40.3403 15.0597 40.2911 15.0597H33.9544C33.9053 15.0597 33.861 15.0449 33.8217 15.0154C33.7922 14.9761 33.7775 14.932 33.7775 14.8828V13.8218C33.7775 13.7333 33.807 13.6597 33.8659 13.6008C34.6126 12.8049 35.4771 11.8274 36.4595 10.6681L37.1522 9.85756C38.0561 8.80634 38.5081 8.01055 38.5081 7.47019C38.5081 7.06739 38.3656 6.73826 38.0806 6.48283C37.7958 6.22739 37.4273 6.09967 36.9754 6.09967C36.5234 6.09967 36.155 6.22739 35.8701 6.48283C35.595 6.73826 35.4575 7.0772 35.4575 7.49967V7.88283C35.4575 7.93195 35.4378 7.97616 35.3986 8.01546C35.3691 8.04492 35.3298 8.05967 35.2806 8.05967H33.9101C33.861 8.05967 33.8167 8.04492 33.7775 8.01546C33.7481 7.97616 33.7333 7.93195 33.7333 7.88283V7.24914C33.7529 6.71862 33.9053 6.25686 34.1901 5.86388C34.475 5.4709 34.8582 5.16634 35.3395 4.95019C35.8309 4.73406 36.3761 4.62598 36.9754 4.62598C37.6337 4.62598 38.2083 4.74879 38.6995 4.9944C39.1909 5.24002 39.5692 5.57896 39.8344 6.01124C40.0995 6.4337 40.2322 6.91019 40.2322 7.44072C40.2322 8.24634 39.8049 9.17475 38.9501 10.226C38.4786 10.8155 37.7025 11.6997 36.6217 12.8786L36.0617 13.4976Z" fill="black"/>
<mask id="mask0_624_893" style="mask-type:luminance" maskUnits="userSpaceOnUse" x="1" y="2" width="18" height="17">
<path d="M18.7292 2.0332H1.07031V18.8895H18.7292V2.0332Z" fill="white"/>
</mask>
<g mask="url(#mask0_624_893)">
<path d="M9.8998 18.8896C14.7762 18.8896 18.7292 15.1161 18.7292 10.4614C18.7292 5.80661 14.7762 2.0332 9.8998 2.0332C5.02342 2.0332 1.07031 5.80661 1.07031 10.4614C1.07031 15.1161 5.02342 18.8896 9.8998 18.8896Z" fill="#FF492C"/>
<path d="M13.7202 8.49108H12.2121C12.2527 8.2652 12.3993 8.13879 12.696 7.99551L12.9732 7.86065C13.4694 7.61792 13.7343 7.34316 13.7343 6.89479C13.7343 6.61329 13.6195 6.39079 13.3917 6.23065C13.1639 6.07052 12.8955 5.99129 12.5812 5.99129C12.338 5.98856 12.0993 6.05359 11.8943 6.1784C11.6876 6.29976 11.534 6.45652 11.4387 6.65205L11.8748 7.07009C12.0444 6.74308 12.2898 6.58295 12.613 6.58295C12.8867 6.58295 13.0545 6.7178 13.0545 6.90491C13.0545 7.06167 12.9732 7.19145 12.6589 7.34316L12.4805 7.42576C12.0938 7.61287 11.8254 7.82695 11.67 8.06967C11.5146 8.3124 11.4387 8.61751 11.4387 8.98665V9.08779H13.7202V8.49108ZM13.5189 9.77553H11.0219L9.77344 11.8387H12.2704L13.5189 13.9036L14.7674 11.8387L13.5189 9.77553Z" fill="white"/>
<path d="M9.98658 13.2062C8.39726 13.2062 7.10286 11.9706 7.10286 10.4535C7.10286 8.93647 8.39726 7.70091 9.98658 7.70091L10.9737 5.7304C10.6487 5.6687 10.318 5.63764 9.98658 5.6377C7.19999 5.6377 4.94141 7.79361 4.94141 10.4535C4.94141 13.1135 7.19999 15.2693 9.98658 15.2693C11.0545 15.2713 12.0951 14.9476 12.9568 14.3456L11.8655 12.5387C11.3434 12.9692 10.6765 13.2061 9.98658 13.2062Z" fill="white"/>
</g>
<mask id="mask1_624_893" style="mask-type:luminance" maskUnits="userSpaceOnUse" x="1" y="28" width="79" height="15">
<path d="M79.2222 28.4917H1.07031V42.94H79.2222V28.4917Z" fill="white"/>
</mask>
<g mask="url(#mask1_624_893)">
<path d="M65.3533 34.3322L69.4499 33.6701L71.6558 29.9978L72.3543 31.5888L73.4105 32.6209L73.9385 33.6701V40.877L71.5929 39.63L67.7482 41.436L68.2525 37.2821L65.3533 34.3322ZM2.39062 34.4526L6.4873 33.7905L8.63018 29.8774L10.5839 33.7302L14.9957 34.4526L11.9075 37.3424L12.5377 41.5564L8.63018 39.7504L4.72257 41.5564L5.22678 37.4025L2.39062 34.4526ZM18.0839 34.4526L22.1806 33.7905L24.3235 29.8774L26.3403 33.7302L30.6891 34.4526L27.6009 37.3424L28.2942 41.5564L24.3235 39.7504L20.479 41.5564L20.9831 37.4025L18.0839 34.4526ZM34.0925 34.4526L38.1891 33.7905L40.3321 29.8774L42.2858 33.7302L46.6977 34.4526L43.6094 37.3424L44.3027 41.5564L40.3321 39.7504L36.4245 41.5564L36.9287 37.4025L34.0925 34.4526ZM49.5969 34.4526L53.6935 33.7905L55.8364 29.8774L57.8533 33.7302L62.2021 34.4526L59.1138 37.3424L59.807 41.5564L55.8364 39.7504L51.9918 41.5564L52.4961 37.4025L49.5969 34.4526Z" fill="#FF492C"/>
<path d="M16.1964 34.0837L10.9653 33.3613L8.6334 28.8462L6.30144 33.3613L1.07031 34.0837L4.85186 37.5754L3.9695 42.5721L8.6334 40.2242L13.2973 42.5721L12.4149 37.5754L16.1964 34.0837ZM8.6334 39.1406L5.35606 40.8262L5.98632 37.3346L3.33923 34.8663L7.05775 34.3245L8.69642 31.1338L10.3351 34.3245L14.0536 34.8663L11.4065 37.3346L12.0368 40.8262L8.6334 39.1406ZM31.953 34.0837L26.7218 33.3613L24.3898 28.8462L22.0579 33.3613L16.8267 34.0837L20.6083 37.5754L19.7259 42.5721L24.3898 40.2242L29.0538 42.5721L28.1714 37.5754L31.953 34.0837ZM24.3898 39.1406L21.1124 40.8262L21.7427 37.3346L19.0956 34.8663L22.8142 34.3245L24.4528 31.1338L26.0915 34.3245L29.81 34.8663L27.163 37.3346L27.7932 40.8262L24.3898 39.1406ZM47.7094 34.0837L42.4782 33.3613L40.1463 28.8462L37.8143 33.3613L32.5831 34.0837L36.3647 37.5754L35.4823 42.5721L40.1463 40.2242L44.8102 42.5721L43.9278 37.5754L47.7094 34.0837ZM40.1463 39.1406L36.869 40.8262L37.4992 37.3346L34.852 34.8663L38.5706 34.3245L40.2092 31.1338L41.8479 34.3245L45.5664 34.8663L42.9194 37.3346L43.5496 40.8262L40.1463 39.1406ZM63.4658 34.0837L58.2346 33.3613L55.9027 28.8462L53.5707 33.3613L48.3396 34.0837L52.1211 37.5754L51.2388 42.5721L55.9027 40.2242L60.5666 42.5721L59.6842 37.5754L63.4658 34.0837ZM55.9027 39.1406L52.6254 40.8262L53.2556 37.3346L50.6086 34.8663L54.3271 34.3245L55.9658 31.1338L57.6044 34.3245L61.3228 34.8663L58.6758 37.3346L59.306 40.8262L55.9027 39.1406ZM79.2222 34.0837L73.9911 33.3613L71.6591 28.8462L69.3271 33.3613L64.096 34.0837L67.8776 37.5754L66.9952 42.5721L71.6591 40.2242L76.323 42.5721L75.4407 37.5754L79.2222 34.0837ZM71.6591 39.1406L68.3818 40.8262L69.012 37.3346L66.365 34.8663L70.0835 34.3245L71.7222 31.1338L73.3608 34.3245L77.0794 34.8663L74.4323 37.3346L75.0624 40.8262L71.6591 39.1406Z" fill="#FF492C"/>
</g>
<mask id="mask2_624_893" style="mask-type:luminance" maskUnits="userSpaceOnUse" x="120" y="28" width="80" height="15">
<path d="M199.742 28.1069H120V42.3183H199.742V28.1069Z" fill="white"/>
</mask>
<g mask="url(#mask2_624_893)">
<path d="M134.952 28.1172H120V42.3285H134.952V28.1172Z" fill="#00B67A"/>
<path d="M151.151 28.1172H136.199V42.3285H151.151V28.1172Z" fill="#00B67A"/>
<path d="M167.346 28.1172H152.395V42.3285H167.346V28.1172Z" fill="#00B67A"/>
<path d="M183.545 28.1172H168.594V42.3285H183.545V28.1172Z" fill="#00B67A"/>
<path d="M199.741 28.1172H192.266V42.3285H199.741V28.1172Z" fill="#DCDCE6"/>
<path d="M196.51 28.1172H184.656V42.3285H196.51V28.1172Z" fill="#00B67A"/>
<path d="M127.475 37.6943L129.749 37.1466L130.699 39.9297L127.475 37.6943ZM132.708 34.0971H128.706L127.475 30.5146L126.245 34.0971H122.242L125.482 36.3177L124.251 39.9001L127.491 37.6795L129.484 36.3177L132.708 34.0971Z" fill="white"/>
<path d="M143.671 37.6943L145.945 37.1466L146.895 39.9297L143.671 37.6943ZM148.904 34.0971H144.901L143.671 30.5146L142.44 34.0971H138.438L141.677 36.3177L140.447 39.9001L143.686 37.6795L145.68 36.3177L148.904 34.0971Z" fill="white"/>
<path d="M159.874 37.6943L162.148 37.1466L163.098 39.9297L159.874 37.6943ZM165.107 34.0971H161.104L159.874 30.5146L158.643 34.0971H154.641L157.88 36.3177L156.65 39.9001L159.889 37.6795L161.883 36.3177L165.107 34.0971Z" fill="white"/>
<path d="M176.069 37.6943L178.343 37.1466L179.293 39.9297L176.069 37.6943ZM181.302 34.0971H177.299L176.069 30.5146L174.839 34.0971H170.836L174.075 36.3177L172.845 39.9001L176.085 37.6795L178.078 36.3177L181.302 34.0971Z" fill="white"/>
<path d="M192.264 37.6943L194.538 37.1466L195.488 39.9297L192.264 37.6943ZM197.497 34.0971H193.495L192.264 30.5146L191.034 34.0971H187.031L190.271 36.3177L189.04 39.9001L192.28 37.6795L194.274 36.3177L197.497 34.0971Z" fill="white"/>
</g>
<path d="M137.889 6.25293H144.781V7.54399H142.071V14.8016H140.581V7.54399H137.883V6.25293H137.889ZM144.486 8.61184H145.76V9.80638H145.784C145.826 9.63745 145.905 9.47456 146.019 9.3177C146.133 9.16085 146.271 9.01001 146.433 8.88333C146.596 8.7506 146.776 8.64803 146.974 8.56357C147.173 8.48515 147.377 8.44292 147.581 8.44292C147.737 8.44292 147.851 8.44895 147.912 8.45498C147.972 8.46102 148.032 8.47308 148.098 8.47912V9.79432C148.002 9.77622 147.906 9.76415 147.803 9.75209C147.701 9.74002 147.605 9.73399 147.509 9.73399C147.281 9.73399 147.064 9.78225 146.86 9.87274C146.656 9.96323 146.482 10.102 146.331 10.2769C146.181 10.4579 146.061 10.6751 145.971 10.9405C145.881 11.206 145.838 11.5077 145.838 11.8515V14.7956H144.48V8.61184H144.486ZM154.341 14.8016H153.007V13.9389H152.983C152.815 14.2526 152.568 14.5 152.238 14.687C151.907 14.874 151.571 14.9706 151.228 14.9706C150.417 14.9706 149.828 14.7715 149.468 14.3673C149.107 13.9631 148.927 13.3538 148.927 12.5393V8.61184H150.285V12.4066C150.285 12.9496 150.387 13.3357 150.597 13.5589C150.802 13.7821 151.096 13.8967 151.469 13.8967C151.757 13.8967 151.992 13.8545 152.184 13.764C152.376 13.6735 152.532 13.5589 152.646 13.4081C152.767 13.2633 152.851 13.0823 152.905 12.8771C152.959 12.672 152.983 12.4488 152.983 12.2075V8.61787H154.341V14.8016ZM156.654 12.8168C156.696 13.215 156.847 13.4925 157.105 13.6554C157.37 13.8123 157.682 13.8967 158.048 13.8967C158.175 13.8967 158.319 13.8846 158.481 13.8666C158.643 13.8485 158.8 13.8062 158.938 13.7519C159.082 13.6976 159.196 13.6132 159.292 13.5046C159.382 13.396 159.424 13.2572 159.418 13.0823C159.413 12.9073 159.346 12.7625 159.226 12.6539C159.106 12.5393 158.956 12.4548 158.77 12.3824C158.583 12.3161 158.373 12.2557 158.133 12.2075C157.892 12.1592 157.652 12.1049 157.406 12.0506C157.153 11.9963 156.907 11.9239 156.672 11.8455C156.438 11.7671 156.228 11.6585 156.042 11.5197C155.855 11.387 155.705 11.212 155.597 11.0009C155.483 10.7897 155.429 10.5303 155.429 10.2166C155.429 9.87877 155.513 9.60125 155.675 9.37199C155.837 9.14275 156.048 8.96175 156.294 8.823C156.546 8.68423 156.823 8.58771 157.129 8.52738C157.436 8.47308 157.73 8.44292 158.006 8.44292C158.325 8.44292 158.631 8.47912 158.92 8.54548C159.208 8.61184 159.473 8.72043 159.707 8.87729C159.941 9.02811 160.134 9.22721 160.29 9.46853C160.446 9.70984 160.542 10.0054 160.584 10.3493H159.166C159.1 10.0235 158.956 9.80035 158.722 9.69174C158.487 9.57712 158.217 9.52283 157.916 9.52283C157.82 9.52283 157.706 9.52886 157.574 9.54696C157.442 9.56506 157.321 9.59522 157.201 9.63745C157.087 9.67968 156.991 9.74605 156.907 9.83051C156.829 9.91497 156.787 10.0235 156.787 10.1623C156.787 10.3312 156.847 10.4639 156.961 10.5665C157.075 10.6691 157.225 10.7535 157.411 10.8259C157.598 10.8923 157.808 10.9526 158.048 11.0009C158.289 11.0491 158.535 11.1034 158.788 11.1577C159.034 11.212 159.274 11.2844 159.515 11.3629C159.755 11.4413 159.965 11.5499 160.152 11.6886C160.338 11.8274 160.488 11.9963 160.602 12.2014C160.716 12.4066 160.776 12.666 160.776 12.9677C160.776 13.3357 160.692 13.6433 160.524 13.9027C160.356 14.1561 160.139 14.3673 159.875 14.5241C159.611 14.681 159.31 14.8016 158.986 14.874C158.661 14.9464 158.337 14.9826 158.018 14.9826C157.628 14.9826 157.267 14.9404 156.937 14.8499C156.606 14.7594 156.318 14.6267 156.078 14.4517C155.837 14.2707 155.645 14.0475 155.507 13.7821C155.368 13.5166 155.296 13.1969 155.284 12.8289H156.654V12.8168ZM161.137 8.61184H162.165V6.75366H163.523V8.61184H164.748V9.63142H163.523V12.9375C163.523 13.0823 163.528 13.2029 163.541 13.3115C163.553 13.4141 163.583 13.5046 163.625 13.577C163.667 13.6494 163.733 13.7037 163.823 13.7399C163.913 13.7761 164.027 13.7942 164.184 13.7942C164.28 13.7942 164.376 13.7942 164.472 13.7881C164.568 13.7821 164.664 13.77 164.76 13.7459V14.8016C164.61 14.8197 164.46 14.8318 164.322 14.8499C164.178 14.868 164.033 14.874 163.883 14.874C163.523 14.874 163.234 14.8378 163.018 14.7715C162.802 14.7051 162.627 14.6026 162.507 14.4698C162.381 14.3371 162.303 14.1742 162.255 13.9751C162.213 13.7761 162.182 13.5468 162.177 13.2934V9.64348H161.149V8.61184H161.137ZM165.71 8.61184H166.996V9.45043H167.02C167.212 9.08845 167.476 8.83506 167.819 8.6782C168.161 8.52135 168.528 8.44292 168.93 8.44292C169.417 8.44292 169.838 8.52738 170.198 8.70233C170.559 8.87126 170.859 9.10655 171.1 9.4082C171.34 9.70984 171.514 10.0597 171.634 10.4579C171.755 10.8561 171.815 11.2844 171.815 11.7369C171.815 12.1532 171.761 12.5574 171.653 12.9435C171.544 13.3357 171.382 13.6795 171.166 13.9812C170.949 14.2828 170.673 14.5181 170.337 14.6991C170 14.8801 169.61 14.9706 169.153 14.9706C168.955 14.9706 168.756 14.9525 168.558 14.9163C168.36 14.8801 168.167 14.8197 167.987 14.7413C167.807 14.6629 167.633 14.5603 167.482 14.4336C167.326 14.3069 167.2 14.1622 167.092 13.9993H167.068V17.0882H165.71V8.61184ZM170.457 11.7128C170.457 11.4353 170.421 11.1638 170.349 10.8983C170.276 10.6329 170.168 10.4036 170.024 10.1985C169.88 9.9934 169.7 9.83051 169.489 9.70984C169.273 9.58919 169.027 9.52283 168.75 9.52283C168.179 9.52283 167.747 9.72192 167.458 10.1201C167.17 10.5182 167.026 11.0491 167.026 11.7128C167.026 12.0265 167.062 12.3161 167.14 12.5815C167.218 12.847 167.326 13.0762 167.482 13.2693C167.633 13.4624 167.813 13.6132 168.023 13.7218C168.233 13.8364 168.48 13.8907 168.756 13.8907C169.069 13.8907 169.327 13.8243 169.543 13.6976C169.76 13.5709 169.934 13.402 170.072 13.2029C170.21 12.9978 170.312 12.7686 170.373 12.5091C170.427 12.2497 170.457 11.9843 170.457 11.7128ZM172.854 6.25293H174.212V7.54399H172.854V6.25293ZM172.854 8.61184H174.212V14.8016H172.854V8.61184ZM175.426 6.25293H176.784V14.8016H175.426V6.25293ZM180.948 14.9706C180.455 14.9706 180.017 14.8861 179.632 14.7232C179.248 14.5603 178.923 14.3311 178.653 14.0475C178.388 13.758 178.184 13.4141 178.046 13.0159C177.908 12.6177 177.836 12.1773 177.836 11.7007C177.836 11.2301 177.908 10.7958 178.046 10.3976C178.184 9.99943 178.388 9.65555 178.653 9.36596C178.917 9.07639 179.248 8.85316 179.632 8.69026C180.017 8.52738 180.455 8.44292 180.948 8.44292C181.441 8.44292 181.88 8.52738 182.264 8.69026C182.649 8.85316 182.973 9.08242 183.243 9.36596C183.508 9.65555 183.712 9.99943 183.85 10.3976C183.989 10.7958 184.061 11.2301 184.061 11.7007C184.061 12.1773 183.989 12.6177 183.85 13.0159C183.712 13.4141 183.508 13.758 183.243 14.0475C182.979 14.3371 182.649 14.5603 182.264 14.7232C181.88 14.8861 181.441 14.9706 180.948 14.9706ZM180.948 13.8907C181.249 13.8907 181.513 13.8243 181.735 13.6976C181.958 13.5709 182.138 13.402 182.282 13.1969C182.426 12.9918 182.528 12.7565 182.601 12.4971C182.667 12.2376 182.703 11.9722 182.703 11.7007C182.703 11.4353 182.667 11.1758 182.601 10.9104C182.534 10.6449 182.426 10.4157 182.282 10.2106C182.138 10.0054 181.958 9.84258 181.735 9.71589C181.513 9.58919 181.249 9.52283 180.948 9.52283C180.648 9.52283 180.383 9.58919 180.161 9.71589C179.939 9.84258 179.758 10.0115 179.614 10.2106C179.47 10.4157 179.368 10.6449 179.296 10.9104C179.23 11.1758 179.194 11.4353 179.194 11.7007C179.194 11.9722 179.23 12.2376 179.296 12.4971C179.362 12.7565 179.47 12.9918 179.614 13.1969C179.758 13.402 179.939 13.5709 180.161 13.6976C180.383 13.8304 180.648 13.8907 180.948 13.8907ZM184.457 8.61184H185.485V6.75366H186.843V8.61184H188.069V9.63142H186.843V12.9375C186.843 13.0823 186.849 13.2029 186.861 13.3115C186.873 13.4141 186.903 13.5046 186.945 13.577C186.987 13.6494 187.053 13.7037 187.143 13.7399C187.233 13.7761 187.348 13.7942 187.504 13.7942C187.6 13.7942 187.696 13.7942 187.792 13.7881C187.888 13.7821 187.984 13.77 188.081 13.7459V14.8016C187.93 14.8197 187.78 14.8318 187.642 14.8499C187.498 14.868 187.354 14.874 187.203 14.874C186.843 14.874 186.554 14.8378 186.338 14.7715C186.122 14.7051 185.947 14.6026 185.827 14.4698C185.701 14.3371 185.623 14.1742 185.575 13.9751C185.533 13.7761 185.503 13.5468 185.497 13.2934V9.64348H184.469V8.61184H184.457Z" fill="black"/>
<path d="M136.302 6.25375H130.077L128.154 0.305176L126.225 6.25375L120 6.24771L125.041 9.92786L123.113 15.8703L128.154 12.1963L133.189 15.8703L131.267 9.92786L136.302 6.25375Z" fill="#00B67A"/>
<path d="M131.698 11.2711L131.265 9.92578L128.152 12.1942L131.698 11.2711Z" fill="#005128"/>
</svg>
