<svg width="80" height="45" viewBox="0 0 80 45" fill="none" xmlns="http://www.w3.org/2000/svg">
<g clip-path="url(#clip0_1701_5873)">
<mask id="mask0_1701_5873" style="mask-type:luminance" maskUnits="userSpaceOnUse" x="0" y="28" width="80" height="15">
<path d="M79.7418 28.1289H0V42.3403H79.7418V28.1289Z" fill="white"/>
</mask>
<g mask="url(#mask0_1701_5873)">
<path d="M14.9516 28.1392H0V42.3505H14.9516V28.1392Z" fill="#00B67A"/>
<path d="M31.1507 28.1392H16.1992V42.3505H31.1507V28.1392Z" fill="#00B67A"/>
<path d="M47.346 28.1392H32.3945V42.3505H47.346V28.1392Z" fill="#00B67A"/>
<path d="M63.5453 28.1392H48.5938V42.3505H63.5453V28.1392Z" fill="#00B67A"/>
<path d="M79.7414 28.1392H72.2656V42.3505H79.7414V28.1392Z" fill="#DCDCE6"/>
<path d="M76.5098 28.1392H64.6562V42.3505H76.5098V28.1392Z" fill="#00B67A"/>
<path d="M7.47524 37.7163L9.74913 37.1686L10.6992 39.9517L7.47524 37.7163ZM12.7083 34.1191H8.70564L7.47524 30.5366L6.24485 34.1191H2.24219L5.48171 36.3397L4.25132 39.9221L7.49082 37.7015L9.48437 36.3397L12.7083 34.1191Z" fill="white"/>
<path d="M23.6706 37.7163L25.9446 37.1686L26.8946 39.9517L23.6706 37.7163ZM28.9038 34.1191H24.901L23.6706 30.5366L22.4403 34.1191H18.4375L21.6771 36.3397L20.4467 39.9221L23.6862 37.7015L25.6798 36.3397L28.9038 34.1191Z" fill="white"/>
<path d="M39.8737 37.7163L42.1476 37.1686L43.0977 39.9517L39.8737 37.7163ZM45.1067 34.1191H41.1041L39.8737 30.5366L38.6432 34.1191H34.6406L37.8801 36.3397L36.6498 39.9221L39.8893 37.7015L41.8828 36.3397L45.1067 34.1191Z" fill="white"/>
<path d="M56.0689 37.7163L58.3429 37.1686L59.2929 39.9517L56.0689 37.7163ZM61.302 34.1191H57.2993L56.0689 30.5366L54.8385 34.1191H50.8359L54.0753 36.3397L52.845 39.9221L56.0845 37.7015L58.0781 36.3397L61.302 34.1191Z" fill="white"/>
<path d="M72.2644 37.7163L74.5384 37.1686L75.4883 39.9517L72.2644 37.7163ZM77.4974 34.1191H73.4948L72.2644 30.5366L71.034 34.1191H67.0312L70.271 36.3397L69.0405 39.9221L72.28 37.7015L74.2736 36.3397L77.4974 34.1191Z" fill="white"/>
</g>
<path d="M17.8888 6.27441H24.7809V7.56547H22.071V14.8231H20.5807V7.56547H17.8828V6.27441H17.8888ZM24.4864 8.63332H25.7603V9.82786H25.7844C25.8264 9.65893 25.9045 9.49604 26.0188 9.33918C26.1329 9.18233 26.2711 9.03149 26.4333 8.90481C26.5956 8.77208 26.7759 8.66951 26.9742 8.58505C27.1725 8.50663 27.3767 8.4644 27.581 8.4644C27.7372 8.4644 27.8514 8.47043 27.9115 8.47646C27.9716 8.4825 28.0316 8.49456 28.0977 8.5006V9.8158C28.0016 9.7977 27.9055 9.78563 27.8033 9.77357C27.7011 9.7615 27.605 9.75547 27.5089 9.75547C27.2805 9.75547 27.0643 9.80373 26.86 9.89422C26.6556 9.98471 26.4815 10.1235 26.3312 10.2984C26.181 10.4794 26.0607 10.6966 25.9706 10.962C25.8805 11.2275 25.8384 11.5292 25.8384 11.873V14.8171H24.4804V8.63332H24.4864ZM34.341 14.8231H33.007V13.9604H32.983C32.8147 14.2741 32.5684 14.5215 32.2379 14.7085C31.9074 14.8955 31.5709 14.9921 31.2283 14.9921C30.4172 14.9921 29.8283 14.793 29.4678 14.3888C29.1073 13.9846 28.927 13.3753 28.927 12.5608V8.63332H30.285V12.4281C30.285 12.9711 30.3872 13.3572 30.5974 13.5804C30.8017 13.8036 31.0961 13.9182 31.4687 13.9182C31.7571 13.9182 31.9915 13.876 32.1838 13.7855C32.376 13.695 32.5323 13.5804 32.6464 13.4296C32.7667 13.2848 32.8508 13.1038 32.9048 12.8986C32.959 12.6935 32.983 12.4703 32.983 12.229V8.63935H34.341V14.8231ZM36.6543 12.8383C36.6964 13.2365 36.8467 13.514 37.1051 13.6769C37.3695 13.8338 37.6819 13.9182 38.0484 13.9182C38.1746 13.9182 38.3188 13.9061 38.4811 13.8881C38.6433 13.87 38.7995 13.8277 38.9377 13.7734C39.082 13.7191 39.1961 13.6347 39.2922 13.5261C39.3823 13.4175 39.4244 13.2787 39.4184 13.1038C39.4125 12.9288 39.3464 12.784 39.2261 12.6754C39.106 12.5608 38.9557 12.4763 38.7695 12.4039C38.5832 12.3376 38.3729 12.2772 38.1325 12.229C37.8922 12.1807 37.6518 12.1264 37.4055 12.0721C37.1531 12.0178 36.9068 11.9454 36.6724 11.867C36.438 11.7886 36.2277 11.68 36.0415 11.5412C35.8552 11.4085 35.7049 11.2335 35.5969 11.0224C35.4826 10.8112 35.4286 10.5518 35.4286 10.2381C35.4286 9.90025 35.5127 9.62273 35.6749 9.39347C35.8371 9.16423 36.0475 8.98323 36.2938 8.84448C36.5462 8.70571 36.8226 8.60919 37.1291 8.54886C37.4356 8.49456 37.73 8.4644 38.0063 8.4644C38.3249 8.4644 38.6312 8.5006 38.9198 8.56696C39.2081 8.63332 39.4725 8.74191 39.7069 8.89877C39.9411 9.04959 40.1335 9.24869 40.2897 9.49001C40.4459 9.73132 40.542 10.0269 40.5841 10.3708H39.1661C39.1 10.045 38.9557 9.82183 38.7215 9.71322C38.4871 9.5986 38.2167 9.54431 37.9162 9.54431C37.8201 9.54431 37.7059 9.55034 37.5737 9.56844C37.4415 9.58654 37.3213 9.6167 37.2012 9.65893C37.087 9.70116 36.9908 9.76753 36.9068 9.85199C36.8286 9.93645 36.7865 10.045 36.7865 10.1838C36.7865 10.3527 36.8467 10.4854 36.9608 10.588C37.075 10.6906 37.2252 10.775 37.4114 10.8474C37.5978 10.9138 37.808 10.9741 38.0484 11.0224C38.2888 11.0706 38.5351 11.1249 38.7876 11.1792C39.0339 11.2335 39.2742 11.3059 39.5145 11.3844C39.7549 11.4628 39.9653 11.5714 40.1515 11.7101C40.3377 11.8489 40.488 12.0178 40.6021 12.2229C40.7163 12.4281 40.7764 12.6875 40.7764 12.9892C40.7764 13.3572 40.6923 13.6648 40.5241 13.9242C40.3558 14.1776 40.1394 14.3888 39.875 14.5456C39.6108 14.7025 39.3103 14.8231 38.9857 14.8955C38.6613 14.9679 38.3368 15.0041 38.0184 15.0041C37.6278 15.0041 37.2673 14.9619 36.9368 14.8714C36.6063 14.7809 36.3179 14.6482 36.0775 14.4732C35.8371 14.2922 35.6449 14.069 35.5066 13.8036C35.3684 13.5381 35.2964 13.2184 35.2843 12.8504H36.6543V12.8383ZM41.1369 8.63332H42.1645V6.77514H43.5225V8.63332H44.7482V9.6529H43.5225V12.959C43.5225 13.1038 43.5284 13.2244 43.5405 13.333C43.5525 13.4356 43.5826 13.5261 43.6247 13.5985C43.6666 13.6709 43.7327 13.7252 43.8228 13.7614C43.9131 13.7976 44.0272 13.8157 44.1835 13.8157C44.2796 13.8157 44.3758 13.8157 44.4719 13.8096C44.568 13.8036 44.6641 13.7915 44.7603 13.7674V14.8231C44.6101 14.8412 44.4598 14.8533 44.3216 14.8714C44.1775 14.8895 44.0332 14.8955 43.883 14.8955C43.5225 14.8955 43.234 14.8593 43.0177 14.793C42.8015 14.7266 42.6272 14.6241 42.5069 14.4913C42.3807 14.3586 42.3027 14.1957 42.2546 13.9966C42.2125 13.7976 42.1824 13.5683 42.1765 13.3149V9.66496H41.149V8.63332H41.1369ZM45.7097 8.63332H46.9956V9.47191H47.0196C47.2118 9.10993 47.4762 8.85654 47.8188 8.69968C48.1613 8.54283 48.5278 8.4644 48.9304 8.4644C49.4171 8.4644 49.8378 8.54886 50.1983 8.72381C50.5588 8.89274 50.8593 9.12803 51.0996 9.42968C51.34 9.73132 51.5142 10.0812 51.6344 10.4794C51.7545 10.8776 51.8147 11.3059 51.8147 11.7584C51.8147 12.1747 51.7605 12.5789 51.6525 12.965C51.5443 13.3572 51.3821 13.701 51.1657 14.0027C50.9494 14.3043 50.6729 14.5396 50.3365 14.7206C50 14.9016 49.6095 14.9921 49.1528 14.9921C48.9545 14.9921 48.7562 14.974 48.5579 14.9378C48.3596 14.9016 48.1672 14.8412 47.987 14.7628C47.8067 14.6844 47.6325 14.5818 47.4822 14.4551C47.326 14.3284 47.1999 14.1837 47.0917 14.0208H47.0677V17.1097H45.7097V8.63332ZM50.4567 11.7343C50.4567 11.4568 50.4206 11.1853 50.3485 10.9198C50.2763 10.6544 50.1683 10.4251 50.024 10.22C49.8798 10.0149 49.6996 9.85199 49.4892 9.73132C49.2729 9.61067 49.0265 9.54431 48.7502 9.54431C48.1793 9.54431 47.7466 9.7434 47.4582 10.1416C47.1699 10.5397 47.0256 11.0706 47.0256 11.7343C47.0256 12.048 47.0617 12.3376 47.1398 12.603C47.2179 12.8685 47.326 13.0977 47.4822 13.2908C47.6325 13.4839 47.8127 13.6347 48.0231 13.7433C48.2333 13.8579 48.4798 13.9122 48.7562 13.9122C49.0686 13.9122 49.327 13.8458 49.5434 13.7191C49.7596 13.5924 49.9339 13.4235 50.0721 13.2244C50.2102 13.0193 50.3124 12.7901 50.3725 12.5306C50.4266 12.2712 50.4567 12.0058 50.4567 11.7343ZM52.8542 6.27441H54.2122V7.56547H52.8542V6.27441ZM52.8542 8.63332H54.2122V14.8231H52.8542V8.63332ZM55.426 6.27441H56.784V14.8231H55.426V6.27441ZM60.9481 14.9921C60.4554 14.9921 60.0167 14.9076 59.6321 14.7447C59.2476 14.5818 58.9232 14.3526 58.6527 14.069C58.3883 13.7795 58.184 13.4356 58.0458 13.0374C57.9076 12.6392 57.8356 12.1988 57.8356 11.7222C57.8356 11.2516 57.9076 10.8173 58.0458 10.4191C58.184 10.0209 58.3883 9.67703 58.6527 9.38744C58.9171 9.09787 59.2476 8.87464 59.6321 8.71174C60.0167 8.54886 60.4554 8.4644 60.9481 8.4644C61.4408 8.4644 61.8795 8.54886 62.264 8.71174C62.6485 8.87464 62.973 9.1039 63.2434 9.38744C63.5078 9.67703 63.7121 10.0209 63.8504 10.4191C63.9886 10.8173 64.0606 11.2516 64.0606 11.7222C64.0606 12.1988 63.9886 12.6392 63.8504 13.0374C63.7121 13.4356 63.5078 13.7795 63.2434 14.069C62.979 14.3586 62.6485 14.5818 62.264 14.7447C61.8795 14.9076 61.4408 14.9921 60.9481 14.9921ZM60.9481 13.9122C61.2485 13.9122 61.5129 13.8458 61.7352 13.7191C61.9575 13.5924 62.1379 13.4235 62.282 13.2184C62.4262 13.0133 62.5284 12.778 62.6005 12.5186C62.6666 12.2591 62.7027 11.9937 62.7027 11.7222C62.7027 11.4568 62.6666 11.1973 62.6005 10.9319C62.5344 10.6664 62.4262 10.4372 62.282 10.2321C62.1379 10.0269 61.9575 9.86406 61.7352 9.73737C61.5129 9.61067 61.2485 9.54431 60.9481 9.54431C60.6476 9.54431 60.3832 9.61067 60.1609 9.73737C59.9386 9.86406 59.7583 10.033 59.6142 10.2321C59.4699 10.4372 59.3678 10.6664 59.2956 10.9319C59.2295 11.1973 59.1935 11.4568 59.1935 11.7222C59.1935 11.9937 59.2295 12.2591 59.2956 12.5186C59.3617 12.778 59.4699 13.0133 59.6142 13.2184C59.7583 13.4235 59.9386 13.5924 60.1609 13.7191C60.3832 13.8519 60.6476 13.9122 60.9481 13.9122ZM64.4572 8.63332H65.4847V6.77514H66.8428V8.63332H68.0686V9.6529H66.8428V12.959C66.8428 13.1038 66.8488 13.2244 66.8607 13.333C66.8728 13.4356 66.9028 13.5261 66.9449 13.5985C66.9869 13.6709 67.053 13.7252 67.1432 13.7614C67.2333 13.7976 67.3476 13.8157 67.5038 13.8157C67.5999 13.8157 67.696 13.8157 67.7921 13.8096C67.8883 13.8036 67.9844 13.7915 68.0805 13.7674V14.8231C67.9304 14.8412 67.7801 14.8533 67.642 14.8714C67.4977 14.8895 67.3535 14.8955 67.2033 14.8955C66.8428 14.8955 66.5544 14.8593 66.338 14.793C66.1217 14.7266 65.9474 14.6241 65.8273 14.4913C65.7011 14.3586 65.623 14.1957 65.5748 13.9966C65.5329 13.7976 65.5028 13.5683 65.4968 13.3149V9.66496H64.4693V8.63332H64.4572Z" fill="black"/>
<path d="M16.3019 6.27573H10.0768L8.15398 0.327148L6.22515 6.27573L0 6.26969L5.04142 9.94984L3.11258 15.8923L8.15398 12.2183L13.1894 15.8923L11.2666 9.94984L16.3019 6.27573Z" fill="#00B67A"/>
<path d="M11.6976 11.2931L11.2649 9.94775L8.15234 12.2162L11.6976 11.2931Z" fill="#005128"/>
</g>
<defs>
<clipPath id="clip0_1701_5873">
<rect width="80" height="44" fill="white" transform="translate(0 0.0219727)"/>
</clipPath>
</defs>
</svg>
