<svg width="80" height="80" viewBox="0 0 80 80" fill="none" xmlns="http://www.w3.org/2000/svg">
<g clip-path="url(#clip0_1678_3234)">
<mask id="mask0_1678_3234" style="mask-type:luminance" maskUnits="userSpaceOnUse" x="0" y="0" width="80" height="80">
<path d="M80 0.318359H0V79.7258H80V0.318359Z" fill="white"/>
</mask>
<g mask="url(#mask0_1678_3234)">
<path d="M79.6022 40.0221L39.9985 0.318359L0.394531 40.0221L39.9985 79.7258L79.6022 40.0221Z" fill="#C7BAAF"/>
<path d="M77.487 40.0221L39.9995 2.43994L2.51172 40.0221L39.9995 77.6043L77.487 40.0221Z" fill="#F06A2B"/>
<path d="M75.0682 40.0222L39.9989 4.86475L4.92969 40.0222L39.9989 75.1796L75.0682 40.0222Z" fill="white"/>
<path fill-rule="evenodd" clip-rule="evenodd" d="M26.1517 52.1816L26.7795 53.522L28.1827 53.7371L27.1671 54.7802L27.4072 56.2536L26.1517 55.5581L24.8966 56.2536L25.1364 54.7802L24.1211 53.7371L25.5244 53.522L26.1517 52.1816Z" fill="#FFCB00"/>
<path fill-rule="evenodd" clip-rule="evenodd" d="M53.9447 52.1816L54.5724 53.522L55.9758 53.7371L54.9601 54.7802L55.2002 56.2536L53.9447 55.5581L52.6896 56.2536L52.9294 54.7802L51.9141 53.7371L53.3173 53.522L53.9447 52.1816Z" fill="#FFCB00"/>
<path fill-rule="evenodd" clip-rule="evenodd" d="M39.0655 11.0337H40.6587C40.7365 11.0337 40.7996 11.097 40.7996 11.175V11.2321C40.7996 11.2863 40.7791 11.3385 40.7423 11.3782L35.7342 16.7662C35.6579 16.8483 35.6577 16.9756 35.7338 17.0579L39.693 21.3411C39.7683 21.4226 39.7691 21.5484 39.6946 21.6307L38.9689 22.4335C38.8896 22.5212 38.7544 22.5279 38.6669 22.4484C38.6624 22.4442 38.6581 22.44 38.6539 22.4355L33.6666 17.0576C33.5904 16.9754 33.5903 16.8482 33.6664 16.766L38.9087 11.1023C38.9492 11.0585 39.006 11.0337 39.0655 11.0337Z" fill="#F06A2A"/>
<path fill-rule="evenodd" clip-rule="evenodd" d="M41.0294 23.4639H39.4431C39.3645 23.4639 39.3008 23.4001 39.3008 23.3213V23.2616C39.3008 23.2082 39.3207 23.1568 39.3565 23.1173L44.3634 17.6039C44.4376 17.5222 44.4377 17.3974 44.3635 17.3155L40.4085 12.9504C40.3349 12.8693 40.3344 12.7452 40.4076 12.6634L41.1318 11.8531C41.2106 11.7649 41.3457 11.7574 41.4336 11.8364C41.4389 11.8412 41.4439 11.8461 41.4487 11.8514L46.4374 17.3155C46.512 17.3973 46.5122 17.5225 46.4379 17.6044L41.1875 23.3937C41.1469 23.4384 41.0895 23.4639 41.0294 23.4639Z" fill="#F06A2A"/>
<path fill-rule="evenodd" clip-rule="evenodd" d="M40.3112 20.0348C41.3496 20.0348 42.1687 18.8629 42.0716 17.6099C42.0284 17.0524 41.6913 16.0543 41.5769 16.2319C41.5205 16.3196 41.6486 17.0043 41.6066 17.4232C41.5369 18.1196 41.2741 18.5436 41.1398 18.2958C41.0056 18.0478 41.0516 17.5585 41.019 17.0435C40.9837 16.4851 40.8915 15.9289 40.7769 15.584C40.7271 15.4336 40.2571 14.1549 39.9181 14.0342C39.8962 14.0342 39.8823 14.0342 39.8767 14.0342C39.8658 14.0342 39.8347 14.0448 39.8157 14.0617C39.741 14.1285 39.8534 14.5674 39.5423 15.102C39.3381 15.4529 38.9402 15.9104 38.7451 16.3597C38.481 16.968 38.4338 17.5641 38.4474 17.8789C38.5066 19.252 39.2728 20.0348 40.3112 20.0348Z" fill="#F06A2A"/>
<path fill-rule="evenodd" clip-rule="evenodd" d="M14.7932 32.251H65.2086L73.0794 40.0733L65.2086 47.8957H14.7932L7.02344 40.0733L14.7932 32.251Z" fill="url(#paint0_linear_1678_3234)"/>
<path fill-rule="evenodd" clip-rule="evenodd" d="M23.303 26.7887C23.2877 26.8198 23.2659 26.8357 23.2288 26.8357C23.2071 26.8357 23.1772 26.8198 23.1401 26.7811C23.1038 26.7426 23.0515 26.7048 22.9927 26.6662C22.9257 26.6192 22.8516 26.5814 22.7556 26.5504C22.6596 26.5118 22.5412 26.4959 22.4009 26.4959C22.2599 26.4959 22.1421 26.5202 22.0309 26.558C21.9277 26.5965 21.8391 26.6578 21.7648 26.7274C21.6907 26.797 21.6391 26.8811 21.6021 26.9733C21.565 27.0656 21.5431 27.1663 21.5431 27.2661C21.5431 27.4046 21.573 27.5128 21.6238 27.6051C21.6762 27.6891 21.7504 27.7662 21.8462 27.8283C21.935 27.8895 22.0382 27.9433 22.1567 27.9819C22.2752 28.0287 22.3937 28.0666 22.5121 28.1052C22.6299 28.1438 22.7483 28.1899 22.8669 28.2436C22.9854 28.2898 23.0813 28.3594 23.1772 28.4283C23.2732 28.4979 23.34 28.5985 23.3989 28.7051C23.4513 28.8134 23.4803 28.9517 23.4803 29.1137C23.4803 29.2831 23.4513 29.4368 23.3989 29.5827C23.3473 29.7296 23.2659 29.8604 23.1627 29.9679C23.0595 30.0761 22.9257 30.16 22.7782 30.2297C22.6226 30.2909 22.4525 30.3219 22.2599 30.3219C22.0091 30.3219 21.7874 30.2758 21.6094 30.1835C21.4247 30.0912 21.2692 29.9595 21.1289 29.7992L21.203 29.6751C21.2248 29.6441 21.2473 29.6372 21.2765 29.6372C21.2916 29.6372 21.3135 29.644 21.336 29.6683C21.3578 29.6909 21.3949 29.722 21.4247 29.7523C21.4618 29.7833 21.5061 29.8219 21.5577 29.8604C21.6094 29.8982 21.6682 29.9368 21.7351 29.9679C21.802 29.9989 21.8761 30.0291 21.9648 30.0519C22.0535 30.0761 22.1494 30.0828 22.2599 30.0828C22.4155 30.0828 22.5485 30.0601 22.6669 30.014C22.7854 29.9679 22.8887 29.8983 22.9701 29.8219C23.0515 29.7446 23.1184 29.6372 23.1627 29.5291C23.2071 29.4141 23.2288 29.2908 23.2288 29.1675C23.2288 29.029 23.1991 28.914 23.1481 28.8216C23.0958 28.7286 23.0217 28.6514 22.9257 28.5901C22.8371 28.5289 22.7338 28.4752 22.6154 28.4365C22.4969 28.398 22.3791 28.351 22.2599 28.3132C22.1421 28.2747 22.0237 28.2277 21.9052 28.1823C21.7874 28.1355 21.6907 28.0742 21.5948 27.9978C21.5061 27.9206 21.432 27.8283 21.3731 27.7125C21.3207 27.5968 21.2916 27.4591 21.2916 27.2813C21.2916 27.1512 21.3135 27.0203 21.3651 26.8969C21.4174 26.7728 21.4843 26.6662 21.5795 26.5655C21.6762 26.4732 21.7874 26.396 21.9277 26.3348C22.068 26.2811 22.2235 26.25 22.4009 26.25C22.6008 26.25 22.7782 26.2811 22.9403 26.3507C23.0958 26.4195 23.2434 26.5202 23.3771 26.6503L23.303 26.7887Z" fill="black"/>
<path fill-rule="evenodd" clip-rule="evenodd" d="M27.2937 28.2856C27.2937 28.0105 27.2561 27.758 27.1807 27.5363C27.1061 27.3147 27.0005 27.1312 26.8654 26.9787C26.7302 26.8253 26.5649 26.7104 26.3699 26.627C26.1743 26.5429 25.9638 26.5045 25.7313 26.5045C25.4979 26.5045 25.2883 26.5429 25.0926 26.627C24.8969 26.7104 24.7323 26.8253 24.5972 26.9787C24.4621 27.1312 24.3491 27.3147 24.2738 27.5363C24.1985 27.758 24.1608 28.0031 24.1608 28.2856C24.1608 28.5606 24.1985 28.8132 24.2738 29.0349C24.3491 29.2566 24.4539 29.4399 24.5972 29.5932C24.7323 29.7458 24.8969 29.8608 25.0926 29.945C25.2883 30.0284 25.4979 30.0674 25.7313 30.0674C25.9638 30.0674 26.1817 30.0284 26.3699 29.945C26.5649 29.8683 26.7302 29.7458 26.8654 29.5932C27.0005 29.4399 27.1061 29.2566 27.1807 29.0349C27.2561 28.8132 27.2937 28.5689 27.2937 28.2856ZM27.5443 28.286C27.5443 28.5922 27.5003 28.8676 27.4123 29.1204C27.3241 29.3731 27.1993 29.5868 27.0383 29.7637C26.8766 29.9389 26.6862 30.0774 26.4652 30.1767C26.2451 30.2768 25.9954 30.3219 25.724 30.3219C25.4591 30.3219 25.2101 30.2768 24.9892 30.1767C24.7691 30.0774 24.5785 29.9473 24.4161 29.7637C24.2552 29.5868 24.1304 29.3731 24.0422 29.1204C23.9542 28.8676 23.9102 28.5922 23.9102 28.286C23.9102 27.9805 23.9542 27.7044 24.0422 27.4523C24.1304 27.1995 24.2552 26.9851 24.4161 26.809C24.5785 26.633 24.7691 26.4946 24.9892 26.3952C25.2101 26.2959 25.4591 26.25 25.724 26.25C25.9954 26.25 26.2451 26.2959 26.4652 26.3952C26.6862 26.4946 26.8766 26.6254 27.0383 26.809C27.1993 26.9851 27.3241 27.1995 27.4123 27.4523C27.5003 27.7044 27.5443 27.9805 27.5443 28.286Z" fill="black"/>
<path fill-rule="evenodd" clip-rule="evenodd" d="M29.5843 30.0666C29.7604 30.0666 29.9157 30.0353 30.0571 29.9651C30.1978 29.895 30.3108 29.802 30.4092 29.6861C30.5084 29.5703 30.5784 29.4223 30.6276 29.2676C30.6775 29.1044 30.7052 28.9344 30.7052 28.74V26.25H30.9666V28.74C30.9666 28.9648 30.9311 29.1661 30.8682 29.3606C30.8044 29.5542 30.7122 29.7174 30.5929 29.8646C30.473 30.0041 30.3247 30.1206 30.1555 30.1984C29.9864 30.2754 29.7889 30.3219 29.5774 30.3219C29.3659 30.3219 29.1677 30.283 28.9986 30.1984C28.8294 30.1131 28.6817 30.0041 28.5611 29.8646C28.4419 29.725 28.3497 29.5542 28.2866 29.3606C28.2229 29.1661 28.1875 28.9573 28.1875 28.74V26.25H28.4558V28.7324C28.4558 28.9184 28.4842 29.0968 28.5334 29.2592C28.5826 29.4223 28.6603 29.5619 28.7518 29.6785C28.851 29.7952 28.9632 29.8882 29.1047 29.9576C29.2453 30.0353 29.4082 30.0666 29.5843 30.0666Z" fill="black"/>
<path fill-rule="evenodd" clip-rule="evenodd" d="M32.8339 28.1525H33.0926C33.2849 28.1525 33.4608 28.1306 33.6111 28.0934C33.7614 28.048 33.8954 27.9962 33.9956 27.9151C34.104 27.8398 34.1796 27.7435 34.2379 27.6396C34.2962 27.5352 34.3217 27.4088 34.3217 27.2758C34.3217 27.0003 34.2215 26.7995 34.0211 26.6658C33.8206 26.5321 33.5273 26.4648 33.1345 26.4648H32.341V30.1076H32.0312V26.25H33.1345C33.6366 26.25 34.0128 26.3392 34.2543 26.5101C34.5057 26.6804 34.6224 26.9331 34.6224 27.2678C34.6224 27.4168 34.5969 27.5506 34.5394 27.6696C34.4802 27.788 34.3964 27.8998 34.288 27.9889C34.1796 28.078 34.0538 28.1599 33.9035 28.2117C33.7531 28.2716 33.5774 28.3089 33.3942 28.3308C33.4443 28.3608 33.4854 28.3981 33.5273 28.4419L35.0241 30.1076H34.7481C34.7143 30.1076 34.6897 30.0996 34.6643 30.0923C34.6396 30.0857 34.6142 30.0624 34.5969 30.0405L33.2102 28.4792C33.1764 28.4419 33.1345 28.4127 33.1018 28.3981C33.0599 28.3827 32.8167 28.376 32.7337 28.376C32.7337 28.1744 32.7665 28.1525 32.8339 28.1525Z" fill="black"/>
<path fill-rule="evenodd" clip-rule="evenodd" d="M37.6593 29.6089C37.6737 29.6089 37.6943 29.6172 37.7012 29.6315L37.8054 29.7544C37.7292 29.8396 37.6524 29.9232 37.5612 29.9926C37.4706 30.0619 37.3733 30.1229 37.2684 30.1689C37.1641 30.2149 37.0449 30.2526 36.9269 30.2843C36.8014 30.3152 36.6614 30.3219 36.5154 30.3219C36.2637 30.3219 36.0332 30.276 35.8241 30.1765C35.6149 30.077 35.4332 29.9458 35.2871 29.7619C35.1404 29.5862 35.0217 29.3714 34.9381 29.1181C34.8544 28.8656 34.8125 28.589 34.8125 28.2822C34.8125 27.9837 34.8543 27.7071 34.9449 27.4546C35.0292 27.2013 35.1548 26.9941 35.3077 26.8101C35.4613 26.6337 35.6499 26.495 35.8659 26.3955C36.0826 26.296 36.3268 26.25 36.5846 26.25C36.717 26.25 36.8357 26.2576 36.9474 26.281C37.0593 26.3035 37.1573 26.3345 37.2546 26.373C37.3521 26.4114 37.4357 26.4649 37.5193 26.526C37.6031 26.587 37.6875 26.6563 37.7636 26.7332L37.6873 26.856C37.6737 26.8787 37.6524 26.887 37.6243 26.887C37.6106 26.887 37.5893 26.8787 37.5688 26.856C37.5475 26.8327 37.5125 26.8101 37.4776 26.7792C37.4433 26.7483 37.3939 26.7181 37.3452 26.6872C37.2965 26.6488 37.2334 26.6179 37.1573 26.5953C37.0873 26.5644 37.003 26.5417 36.9056 26.5184C36.815 26.495 36.7033 26.4875 36.5846 26.4875C36.3611 26.4875 36.1588 26.526 35.9777 26.6104C35.7967 26.6948 35.6362 26.8101 35.5031 26.9707C35.3708 27.1244 35.2658 27.3159 35.1891 27.5307C35.1129 27.7456 35.0779 27.9981 35.0779 28.2739C35.0779 28.5581 35.1129 28.8038 35.1891 29.0262C35.2658 29.2478 35.364 29.4325 35.4963 29.5862C35.6293 29.7392 35.7823 29.8539 35.9572 29.9382C36.1313 30.0235 36.3268 30.0619 36.5291 30.0619C36.6614 30.0619 36.7732 30.0536 36.8774 30.031C36.9824 30.0152 37.0736 29.985 37.1573 29.9458C37.2409 29.9074 37.3246 29.8622 37.3939 29.8086C37.4706 29.7544 37.5407 29.6933 37.6106 29.6172C37.6174 29.6089 37.6243 29.6014 37.6312 29.6014C37.638 29.6172 37.6524 29.6089 37.6593 29.6089Z" fill="black"/>
<path fill-rule="evenodd" clip-rule="evenodd" d="M41.0105 26.25V26.4806H38.759V28.0448H40.6311V28.2681H38.759V29.877H41.0105V30.1076H38.4453V26.25H41.0105Z" fill="black"/>
<path fill-rule="evenodd" clip-rule="evenodd" d="M44.2166 26.25V26.8569H42.2611V28.0599H43.9091V28.6659H42.2611V30.3219H41.4375V26.2584H44.2166V26.25Z" fill="black"/>
<path fill-rule="evenodd" clip-rule="evenodd" d="M47.7298 28.286C47.7298 28.0689 47.6994 27.8739 47.6387 27.7023C47.5787 27.5302 47.4966 27.3808 47.3907 27.2601C47.2849 27.1401 47.1493 27.0504 46.9917 26.9834C46.8332 26.9164 46.66 26.8863 46.4646 26.8863C46.2684 26.8863 46.0952 26.9164 45.9375 26.9834C45.7791 27.0504 45.651 27.1401 45.5377 27.2601C45.4251 27.3808 45.3422 27.5302 45.2815 27.7023C45.2216 27.8739 45.1912 28.0689 45.1912 28.286C45.1912 28.5031 45.2216 28.6981 45.2815 28.8703C45.3422 29.0418 45.4251 29.1919 45.5377 29.3119C45.651 29.4317 45.7791 29.5216 45.9375 29.5893C46.0952 29.6562 46.2684 29.6857 46.4646 29.6857C46.66 29.6857 46.8332 29.6562 46.9917 29.5893C47.1493 29.5216 47.2775 29.4317 47.3907 29.3119C47.4966 29.1919 47.5787 29.0418 47.6387 28.8703C47.6994 28.6981 47.7298 28.5031 47.7298 28.286ZM48.4914 28.286C48.4914 28.5792 48.446 28.8502 48.3481 29.0975C48.2502 29.3457 48.1144 29.5628 47.9326 29.7437C47.7596 29.924 47.5407 30.0664 47.2913 30.172C47.042 30.2769 46.7629 30.3219 46.4609 30.3219C46.1589 30.3219 45.879 30.2702 45.6297 30.172C45.3811 30.0664 45.1695 29.932 44.9885 29.7437C44.8067 29.5628 44.6709 29.3457 44.5729 29.0975C44.475 28.8502 44.4297 28.5792 44.4297 28.286C44.4297 27.9935 44.475 27.7225 44.5729 27.4744C44.6709 27.2263 44.8067 27.0092 44.9885 26.8283C45.1695 26.648 45.3811 26.5055 45.6297 26.3999C45.879 26.2951 46.1589 26.25 46.4609 26.25C46.7629 26.25 47.042 26.3025 47.2913 26.4081C47.5407 26.5136 47.7514 26.6562 47.9326 26.8363C48.1062 27.0166 48.2502 27.2344 48.3481 27.4825C48.4387 27.7225 48.4914 27.9935 48.4914 28.286Z" fill="black"/>
<path fill-rule="evenodd" clip-rule="evenodd" d="M49.8504 28.1859H50.0051C50.1328 28.1859 50.2406 28.1701 50.3346 28.1323C50.4291 28.0938 50.5031 28.0477 50.564 27.9858C50.6242 27.9245 50.6712 27.8483 50.6983 27.7629C50.7254 27.6791 50.7452 27.5787 50.7452 27.4789C50.7452 27.2712 50.685 27.1103 50.564 27.0031C50.443 26.8951 50.2611 26.8339 50.0183 26.8339H49.5885V30.3219H48.9219V26.25H50.0118C50.2538 26.25 50.4628 26.281 50.6374 26.3347C50.8127 26.3875 50.9536 26.4721 51.062 26.5718C51.1692 26.6723 51.2565 26.8029 51.304 26.9419C51.3577 27.087 51.3847 27.241 51.3847 27.417C51.3847 27.556 51.3642 27.6866 51.3305 27.8097C51.2975 27.9321 51.2432 28.0402 51.1757 28.1398C51.1083 28.2396 51.0276 28.3249 50.9271 28.4012C50.8259 28.4783 50.7181 28.5394 50.5904 28.5787C50.6711 28.6315 50.7452 28.7086 50.8061 28.8083L51.7009 30.3144H51.1024C51.0415 30.3144 50.9939 30.2993 50.9536 30.2766C50.9132 30.2533 50.8802 30.2155 50.853 30.1611L50.1064 28.8552C50.0858 28.8242 50.0455 28.7547 50.0051 28.7471H49.7697V28.2555C49.7763 28.1859 49.8504 28.1859 49.8504 28.1859Z" fill="black"/>
<path fill-rule="evenodd" clip-rule="evenodd" d="M54.0481 29.7448C54.2183 29.7448 54.3725 29.7293 54.4964 29.6991C54.6203 29.6696 54.7442 29.6246 54.8597 29.5723V28.6723H54.3498C54.3034 28.6723 54.2646 28.6568 54.2335 28.6347C54.2031 28.6044 54.1871 28.575 54.1871 28.5373V28.1172H55.5482V29.9025C55.4479 29.977 55.3392 30.0367 55.223 30.0898C55.1074 30.1421 54.9912 30.1878 54.8597 30.2247C54.7289 30.2622 54.5974 30.2844 54.4501 30.2999C54.3034 30.3145 54.1484 30.3219 53.9788 30.3219C53.6771 30.3219 53.4067 30.2696 53.1513 30.1723C52.8959 30.0743 52.6794 29.932 52.5016 29.7521C52.3161 29.5723 52.1771 29.3548 52.0691 29.1072C51.968 28.8602 51.9141 28.5823 51.9141 28.2896C51.9141 27.9897 51.9604 27.7199 52.0615 27.4649C52.1618 27.2172 52.3009 26.9997 52.4863 26.8198C52.6718 26.64 52.8959 26.4977 53.1589 26.4004C53.4219 26.3023 53.716 26.25 54.0405 26.25C54.3725 26.25 54.6667 26.295 54.9061 26.3923C55.1538 26.4904 55.3552 26.6179 55.5247 26.7675L55.3004 27.1052C55.2541 27.173 55.2002 27.2105 55.1302 27.2105C55.0839 27.2105 55.0376 27.1951 54.9912 27.1648C54.9296 27.1272 54.868 27.097 54.8057 27.0594C54.7442 27.0226 54.6742 26.9931 54.5974 26.9695C54.52 26.9474 54.4348 26.9253 54.3422 26.9098C54.2494 26.895 54.1331 26.8876 54.0093 26.8876C53.8086 26.8876 53.6225 26.9171 53.4606 26.9849C53.298 27.0527 53.1589 27.1427 53.0434 27.2703C52.9272 27.3904 52.842 27.54 52.7804 27.7125C52.7181 27.885 52.687 28.0796 52.687 28.2896C52.687 28.5227 52.7181 28.7246 52.788 28.9045C52.858 29.0843 52.9506 29.2347 53.0661 29.3548C53.1824 29.475 53.3291 29.5723 53.4917 29.6393C53.6536 29.7072 53.855 29.7448 54.0481 29.7448Z" fill="black"/>
<path fill-rule="evenodd" clip-rule="evenodd" d="M58.148 28.6857H56.8083V29.7148H58.7557V30.3219H55.9766V26.25H58.7557V26.8578H56.8002V28.1097H58.3393V28.5551C58.3393 28.5551 58.3312 28.6857 58.148 28.6857Z" fill="black"/>
<path d="M13.6693 41.916V36.9453H11.8984V35.9331H16.641V36.9453H14.8742V41.916H13.6693Z" fill="black"/>
<path d="M16.5312 39.6877C16.5312 39.3068 16.6249 38.9382 16.8121 38.5817C16.9993 38.2253 17.264 37.9533 17.6059 37.7655C17.9506 37.5778 18.3346 37.4839 18.758 37.4839C19.412 37.4839 19.948 37.6975 20.366 38.1246C20.7839 38.5491 20.9929 39.0864 20.9929 39.7367C20.9929 40.3923 20.7812 40.9365 20.3579 41.3692C19.9372 41.799 19.4066 42.0139 18.7662 42.0139C18.3699 42.0139 17.9913 41.9242 17.6304 41.7446C17.2722 41.565 16.9993 41.3024 16.8121 40.957C16.6249 40.6086 16.5312 40.1856 16.5312 39.6877ZM17.7037 39.7489C17.7037 40.1788 17.8054 40.5081 18.0089 40.7366C18.2125 40.9651 18.4635 41.0794 18.7621 41.0794C19.0606 41.0794 19.3103 40.9651 19.5111 40.7366C19.7147 40.5081 19.8165 40.1761 19.8165 39.7407C19.8165 39.3163 19.7147 38.9898 19.5111 38.7613C19.3103 38.5328 19.0606 38.4185 18.7621 38.4185C18.4635 38.4185 18.2125 38.5328 18.0089 38.7613C17.8054 38.9898 17.7037 39.3191 17.7037 39.7489Z" fill="black"/>
<path d="M21.8594 37.5819H22.9259V38.2185C23.0643 38.0008 23.2516 37.824 23.4877 37.688C23.7237 37.5519 23.9857 37.4839 24.2734 37.4839C24.7754 37.4839 25.2015 37.6812 25.5516 38.0756C25.9017 38.4702 26.0768 39.0198 26.0768 39.7244C26.0768 40.4482 25.9003 41.0113 25.5475 41.414C25.1947 41.814 24.7673 42.0139 24.2652 42.0139C24.0264 42.0139 23.8093 41.9664 23.6139 41.8711C23.4212 41.7759 23.2176 41.6126 23.0033 41.3814V43.5648H21.8594V37.5819ZM22.991 39.6755C22.991 40.1625 23.0874 40.5229 23.2801 40.757C23.4728 40.9882 23.7075 41.1039 23.9844 41.1039C24.2503 41.1039 24.4715 40.9977 24.6479 40.7855C24.8243 40.5706 24.9125 40.2196 24.9125 39.7326C24.9125 39.2783 24.8216 38.9408 24.6397 38.7205C24.458 38.5001 24.2327 38.3899 23.964 38.3899C23.6844 38.3899 23.4524 38.4987 23.2678 38.7164C23.0833 38.9314 22.991 39.251 22.991 39.6755Z" fill="black"/>
<path d="M29.3164 41.916V35.9331H31.25C31.9828 35.9331 32.4605 35.963 32.683 36.0229C33.025 36.1127 33.3113 36.3086 33.5419 36.6106C33.7726 36.9099 33.888 37.2975 33.888 37.7737C33.888 38.141 33.8215 38.4498 33.6886 38.7002C33.5556 38.9504 33.3859 39.1477 33.1796 39.2919C32.9761 39.4334 32.7684 39.5272 32.5568 39.5735C32.2691 39.6306 31.8526 39.6592 31.3071 39.6592H30.5214V41.916H29.3164ZM30.5214 36.9453V38.643H31.1809C31.6558 38.643 31.9733 38.6117 32.1335 38.5491C32.2935 38.4865 32.4185 38.3886 32.5079 38.2553C32.6002 38.122 32.6464 37.9669 32.6464 37.7901C32.6464 37.5724 32.5825 37.3928 32.455 37.2513C32.3275 37.1099 32.166 37.0214 31.9706 36.986C31.8267 36.9588 31.5377 36.9453 31.1035 36.9453H30.5214Z" fill="black"/>
<path d="M37.3725 40.5366L38.5123 40.7284C38.3658 41.1474 38.1338 41.4671 37.8162 41.6875C37.5014 41.9051 37.1065 42.0139 36.6316 42.0139C35.8799 42.0139 35.3235 41.7677 34.9625 41.2753C34.6776 40.8807 34.5352 40.3829 34.5352 39.7815C34.5352 39.0633 34.7224 38.5015 35.0969 38.096C35.4715 37.688 35.945 37.4839 36.5176 37.4839C37.1608 37.4839 37.6684 37.6975 38.0402 38.1246C38.412 38.5491 38.5897 39.2007 38.5734 40.0795H35.7075C35.7157 40.4196 35.8079 40.6849 35.9843 40.8753C36.1607 41.063 36.3806 41.1569 36.6438 41.1569C36.823 41.1569 36.9736 41.1079 37.0957 41.01C37.2178 40.912 37.3101 40.7542 37.3725 40.5366ZM37.4376 39.3775C37.4295 39.0456 37.344 38.7939 37.1811 38.6225C37.0184 38.4484 36.8202 38.3613 36.5869 38.3613C36.3371 38.3613 36.1309 38.4525 35.9681 38.6348C35.8053 38.817 35.7251 39.0646 35.7279 39.3775H37.4376Z" fill="black"/>
<path d="M40.6048 41.916H39.4609V37.5819H40.5234V38.1981C40.7053 37.907 40.8681 37.7152 41.012 37.6227C41.1585 37.5302 41.3241 37.4839 41.5086 37.4839C41.7691 37.4839 42.0202 37.556 42.2617 37.7002L41.9076 38.7001C41.7149 38.575 41.5358 38.5124 41.3702 38.5124C41.2101 38.5124 41.0744 38.5573 40.9631 38.647C40.8518 38.7341 40.7636 38.8932 40.6985 39.1245C40.6361 39.3558 40.6048 39.84 40.6048 40.5773V41.916Z" fill="black"/>
<path d="M42.2578 37.5814H42.8928V37.2549C42.8928 36.8904 42.9309 36.6182 43.0068 36.4387C43.0855 36.2591 43.2281 36.1136 43.4343 36.0021C43.6432 35.8878 43.9065 35.8306 44.224 35.8306C44.5497 35.8306 44.8686 35.8796 45.1807 35.9775L45.026 36.7775C44.8441 36.7339 44.6691 36.7122 44.5008 36.7122C44.3353 36.7122 44.2159 36.7516 44.1426 36.8305C44.072 36.9067 44.0368 37.055 44.0368 37.2753V37.5814H44.8917V38.4834H44.0368V41.9156H42.8928V38.4834H42.2578V37.5814Z" fill="black"/>
<path d="M45.2695 39.6877C45.2695 39.3068 45.3632 38.9382 45.5504 38.5817C45.7377 38.2253 46.0023 37.9533 46.3443 37.7655C46.6888 37.5778 47.073 37.4839 47.4963 37.4839C48.1503 37.4839 48.6863 37.6975 49.1042 38.1246C49.5222 38.5491 49.7312 39.0864 49.7312 39.7367C49.7312 40.3923 49.5195 40.9365 49.0961 41.3692C48.6755 41.799 48.1449 42.0139 47.5044 42.0139C47.1082 42.0139 46.7296 41.9242 46.3686 41.7446C46.0104 41.565 45.7377 41.3024 45.5504 40.957C45.3632 40.6086 45.2695 40.1856 45.2695 39.6877ZM46.4419 39.7489C46.4419 40.1788 46.5437 40.5081 46.7472 40.7366C46.9508 40.9651 47.2018 41.0794 47.5003 41.0794C47.7989 41.0794 48.0486 40.9651 48.2494 40.7366C48.4529 40.5081 48.5547 40.1761 48.5547 39.7407C48.5547 39.3163 48.4529 38.9898 48.2494 38.7613C48.0486 38.5328 47.7989 38.4185 47.5003 38.4185C47.2018 38.4185 46.9508 38.5328 46.7472 38.7613C46.5437 38.9898 46.4419 39.3191 46.4419 39.7489Z" fill="black"/>
<path d="M51.7259 41.916H50.582V37.5819H51.6445V38.1981C51.8263 37.907 51.9891 37.7152 52.133 37.6227C52.2795 37.5302 52.445 37.4839 52.6296 37.4839C52.8901 37.4839 53.1412 37.556 53.3827 37.7002L53.0286 38.7001C52.8358 38.575 52.6568 38.5124 52.4912 38.5124C52.3311 38.5124 52.1954 38.5573 52.0841 38.647C51.9729 38.7341 51.8847 38.8932 51.8195 39.1245C51.7571 39.3558 51.7259 39.84 51.7259 40.5773V41.916Z" fill="black"/>
<path d="M53.793 37.5819H54.8473V38.1736C55.2246 37.7138 55.6737 37.4839 56.1948 37.4839C56.4716 37.4839 56.7118 37.5411 56.9153 37.6553C57.1189 37.7696 57.2858 37.9423 57.416 38.1736C57.606 37.9423 57.8109 37.7696 58.0307 37.6553C58.2506 37.5411 58.4853 37.4839 58.735 37.4839C59.0525 37.4839 59.3211 37.5491 59.5409 37.6798C59.7608 37.8076 59.9249 37.9968 60.0334 38.2471C60.1122 38.4321 60.1519 38.7314 60.1519 39.1449V41.916H59.0078V39.4387C59.0078 39.0089 58.9684 38.7314 58.8897 38.6063C58.7838 38.443 58.621 38.3613 58.4012 38.3613C58.241 38.3613 58.0905 38.4103 57.9493 38.5082C57.8081 38.6063 57.7065 38.7504 57.6441 38.9408C57.5815 39.1286 57.5504 39.4265 57.5504 39.8346V41.916H56.4065V39.5408C56.4065 39.119 56.3862 38.847 56.3454 38.7245C56.3047 38.6021 56.2409 38.511 56.154 38.4512C56.07 38.3913 55.9546 38.3613 55.8081 38.3613C55.6316 38.3613 55.4729 38.409 55.3318 38.5042C55.1907 38.5994 55.0889 38.7368 55.0265 38.9164C54.9667 39.0959 54.9369 39.3939 54.9369 39.8101V41.916H53.793V37.5819Z" fill="black"/>
<path d="M63.8022 40.5366L64.9423 40.7284C64.7954 41.1474 64.5637 41.4671 64.246 41.6875C63.9314 41.9051 63.5361 42.0139 63.0614 42.0139C62.3094 42.0139 61.753 41.7677 61.3921 41.2753C61.1071 40.8807 60.9648 40.3829 60.9648 39.7815C60.9648 39.0633 61.1521 38.5015 61.5266 38.096C61.9011 37.688 62.3746 37.4839 62.9471 37.4839C63.5906 37.4839 64.0979 37.6975 64.47 38.1246C64.8416 38.5491 65.0194 39.2007 65.0034 40.0795H62.137C62.1453 40.4196 62.2377 40.6849 62.4143 40.8753C62.5903 41.063 62.8102 41.1569 63.0733 41.1569C63.2528 41.1569 63.4034 41.1079 63.5254 41.01C63.6475 40.912 63.74 40.7542 63.8022 40.5366ZM63.8674 39.3775C63.8591 39.0456 63.7737 38.7939 63.6108 38.6225C63.4478 38.4484 63.2499 38.3613 63.0164 38.3613C62.7669 38.3613 62.5607 38.4525 62.3977 38.6348C62.2348 38.817 62.1548 39.0646 62.1577 39.3775H63.8674Z" fill="black"/>
<path d="M67.031 41.916H65.8867V37.5819H66.9492V38.1981C67.1312 37.907 67.2941 37.7152 67.4381 37.6227C67.5845 37.5302 67.7498 37.4839 67.9347 37.4839C68.1955 37.4839 68.4461 37.556 68.6879 37.7002L68.3335 38.7001C68.1409 38.575 67.962 38.5124 67.7961 38.5124C67.6361 38.5124 67.5003 38.5573 67.3889 38.647C67.2781 38.7341 67.1898 38.8932 67.1246 39.1245C67.0618 39.3558 67.031 39.84 67.031 40.5773V41.916Z" fill="black"/>
<path d="M28.4375 54.4843L29.2792 54.4021C29.3299 54.6854 29.4322 54.8934 29.5861 55.0263C29.742 55.1592 29.9515 55.2255 30.2145 55.2255C30.4931 55.2255 30.7026 55.1669 30.8428 55.0497C30.9851 54.9305 31.0562 54.7919 31.0562 54.6337C31.0562 54.5321 31.026 54.4462 30.9656 54.3758C30.9072 54.3035 30.8039 54.2411 30.6559 54.1883C30.5545 54.1531 30.3236 54.0907 29.9632 54.0008C29.4994 53.8855 29.174 53.7439 28.987 53.5759C28.724 53.3396 28.5924 53.0514 28.5924 52.7116C28.5924 52.4928 28.6538 52.2886 28.7766 52.0992C28.9013 51.9077 29.0795 51.7622 29.3114 51.6626C29.5452 51.563 29.8268 51.5132 30.1561 51.5132C30.6938 51.5132 31.0981 51.6313 31.3689 51.8677C31.6418 52.1041 31.7849 52.4195 31.7986 52.8141L30.9335 52.8522C30.8965 52.6315 30.8166 52.4733 30.6938 52.3775C30.573 52.2798 30.3908 52.231 30.1472 52.231C29.8959 52.231 29.6991 52.2828 29.5569 52.3863C29.4654 52.4527 29.4195 52.5416 29.4195 52.653C29.4195 52.7545 29.4624 52.8415 29.5481 52.9138C29.6573 53.0056 29.9222 53.1012 30.343 53.2009C30.764 53.3004 31.0747 53.404 31.2754 53.5115C31.478 53.617 31.6359 53.7624 31.7489 53.948C31.8639 54.1316 31.9214 54.3592 31.9214 54.6308C31.9214 54.8769 31.8531 55.1074 31.7168 55.3222C31.5804 55.5371 31.3875 55.6973 31.1381 55.8027C30.8886 55.9063 30.5779 55.958 30.2057 55.958C29.6641 55.958 29.2481 55.833 28.9577 55.583C28.6674 55.331 28.494 54.9647 28.4375 54.4843Z" fill="black"/>
<path d="M34.6856 55.8817V55.4158C34.5725 55.5818 34.4235 55.7127 34.2384 55.8084C34.0552 55.9041 33.8614 55.952 33.6568 55.952C33.4483 55.952 33.2612 55.9061 33.0956 55.8143C32.9299 55.7224 32.8101 55.5935 32.7362 55.4275C32.6621 55.2615 32.625 55.032 32.625 54.739V52.77H33.4463V54.1998C33.4463 54.6374 33.4609 54.906 33.4901 55.0056C33.5214 55.1032 33.5769 55.1815 33.6568 55.2399C33.7366 55.2967 33.8379 55.325 33.9607 55.325C34.101 55.325 34.2267 55.2869 34.3377 55.2107C34.4488 55.1326 34.5249 55.0368 34.5657 54.9235C34.6066 54.8083 34.6271 54.528 34.6271 54.0826V52.77H35.4484V55.8817H34.6856Z" fill="black"/>
<path d="M36.2422 52.77H36.9992V53.1949C37.27 52.8647 37.5925 52.6997 37.9666 52.6997C38.1653 52.6997 38.3378 52.7407 38.4838 52.8228C38.63 52.9048 38.7499 53.0288 38.8434 53.1949C38.9798 53.0288 39.1269 52.9048 39.2847 52.8228C39.4425 52.7407 39.6111 52.6997 39.7903 52.6997C40.0182 52.6997 40.2112 52.7466 40.369 52.8403C40.5269 52.9322 40.6447 53.0679 40.7227 53.2476C40.7791 53.3804 40.8074 53.5953 40.8074 53.8922V55.8817H39.9861V54.1032C39.9861 53.7945 39.9579 53.5953 39.9014 53.5055C39.8254 53.3882 39.7085 53.3297 39.5507 53.3297C39.4357 53.3297 39.3276 53.3648 39.2262 53.4352C39.125 53.5055 39.0518 53.609 39.007 53.7457C38.9622 53.8804 38.9398 54.0944 38.9398 54.3874V55.8817H38.1186V54.1764C38.1186 53.8736 38.104 53.6783 38.0747 53.5904C38.0455 53.5025 37.9998 53.4371 37.9373 53.3941C37.877 53.3511 37.7941 53.3297 37.6889 53.3297C37.5622 53.3297 37.4483 53.3638 37.347 53.4322C37.2457 53.5006 37.1726 53.5992 37.1278 53.7281C37.0849 53.857 37.0635 54.071 37.0635 54.3699V55.8817H36.2422V52.77Z" fill="black"/>
<path d="M41.5664 52.77H42.3234V53.1949C42.5942 52.8647 42.9166 52.6997 43.2907 52.6997C43.4895 52.6997 43.6619 52.7407 43.8081 52.8228C43.9542 52.9048 44.074 53.0288 44.1676 53.1949C44.3039 53.0288 44.451 52.9048 44.6088 52.8228C44.7667 52.7407 44.9352 52.6997 45.1145 52.6997C45.3425 52.6997 45.5354 52.7466 45.6932 52.8403C45.851 52.9322 45.9689 53.0679 46.0469 53.2476C46.1034 53.3804 46.1316 53.5953 46.1316 53.8922V55.8817H45.3103V54.1032C45.3103 53.7945 45.282 53.5953 45.2255 53.5055C45.1496 53.3882 45.0327 53.3297 44.8748 53.3297C44.7599 53.3297 44.6517 53.3648 44.5504 53.4352C44.4491 53.5055 44.3761 53.609 44.3312 53.7457C44.2864 53.8804 44.2639 54.0944 44.2639 54.3874V55.8817H43.4427V54.1764C43.4427 53.8736 43.4281 53.6783 43.3989 53.5904C43.3696 53.5025 43.3239 53.4371 43.2615 53.3941C43.2011 53.3511 43.1183 53.3297 43.0131 53.3297C42.8865 53.3297 42.7724 53.3638 42.6711 53.4322C42.5698 53.5006 42.4968 53.5992 42.4519 53.7281C42.4091 53.857 42.3876 54.071 42.3876 54.3699V55.8817H41.5664V52.77Z" fill="black"/>
<path d="M48.7481 54.8914L49.5665 55.0291C49.4612 55.3299 49.2946 55.5594 49.0667 55.7177C48.8406 55.8739 48.5571 55.9521 48.2161 55.9521C47.6764 55.9521 47.277 55.7753 47.0178 55.4217C46.8133 55.1385 46.7109 54.7811 46.7109 54.3493C46.7109 53.8336 46.8455 53.4303 47.1143 53.1392C47.3832 52.8462 47.7232 52.6997 48.1343 52.6997C48.5961 52.6997 48.9604 52.8531 49.2274 53.1597C49.4943 53.4645 49.622 53.9322 49.6103 54.5632H47.5527C47.5585 54.8074 47.6248 54.9978 47.7514 55.1346C47.878 55.2693 48.0359 55.3367 48.2249 55.3367C48.3535 55.3367 48.4617 55.3015 48.5493 55.2313C48.637 55.1609 48.7032 55.0476 48.7481 54.8914ZM48.7948 54.0592C48.789 53.821 48.7277 53.6403 48.6107 53.5172C48.4938 53.3922 48.3516 53.3298 48.1839 53.3298C48.0047 53.3298 47.8567 53.3952 47.7398 53.526C47.6229 53.6569 47.5653 53.8346 47.5674 54.0592H48.7948Z" fill="black"/>
<path d="M51.0713 55.8817H50.25V52.77H51.0128V53.2125C51.1434 53.0034 51.2603 52.8658 51.3635 52.7994C51.4687 52.7329 51.5875 52.6997 51.7201 52.6997C51.9072 52.6997 52.0874 52.7515 52.2608 52.855L52.0065 53.5729C51.8682 53.4831 51.7396 53.4381 51.6207 53.4381C51.5058 53.4381 51.4083 53.4704 51.3285 53.5347C51.2486 53.5973 51.1853 53.7116 51.1385 53.8777C51.0936 54.0436 51.0713 54.3913 51.0713 54.9207V55.8817Z" fill="black"/>
<path d="M34.6899 62.5543V63.3732H31.6055C31.6388 63.0639 31.739 62.7706 31.906 62.4944C32.0731 62.2159 32.4029 61.8479 32.8956 61.3892C33.2923 61.0189 33.5354 60.7676 33.6251 60.6361C33.7463 60.4541 33.8068 60.274 33.8068 60.0962C33.8068 59.8995 33.7536 59.7484 33.6471 59.6441C33.5427 59.5372 33.3977 59.4839 33.2119 59.4839C33.0282 59.4839 32.882 59.5394 32.7735 59.6506C32.6649 59.7614 32.6023 59.9457 32.5856 60.2029L31.7088 60.1152C31.7609 59.6292 31.9248 59.2809 32.2004 59.0695C32.4759 58.8582 32.8204 58.7524 33.2338 58.7524C33.6868 58.7524 34.0427 58.8749 34.3016 59.1197C34.5604 59.3646 34.6899 59.6689 34.6899 60.0334C34.6899 60.2402 34.6523 60.4381 34.5771 60.6266C34.5041 60.8126 34.3872 61.0088 34.2264 61.2138C34.12 61.3495 33.9279 61.5451 33.6503 61.8005C33.3726 62.0559 33.1962 62.2254 33.121 62.3095C33.048 62.3931 32.9885 62.4749 32.9425 62.5543H34.6899Z" fill="black"/>
<path d="M36.7757 58.7524C37.2204 58.7524 37.5679 58.9115 37.8185 59.2296C38.117 59.6061 38.2663 60.2313 38.2663 61.1036C38.2663 61.9741 38.116 62.6005 37.8154 62.9809C37.5669 63.295 37.2204 63.4521 36.7757 63.4521C36.329 63.4521 35.9688 63.2802 35.6954 62.9371C35.4219 62.5916 35.2852 61.9777 35.2852 61.0941C35.2852 60.2278 35.4354 59.6044 35.7361 59.2233C35.9845 58.9094 36.331 58.7524 36.7757 58.7524ZM36.7757 59.4839C36.6693 59.4839 36.5743 59.5184 36.4907 59.5878C36.4072 59.6547 36.3425 59.7756 36.2966 59.9516C36.2361 60.1798 36.2058 60.5638 36.2058 61.1036C36.2058 61.6435 36.2329 62.015 36.2872 62.2183C36.3415 62.4192 36.4094 62.5531 36.4907 62.6201C36.5743 62.687 36.6693 62.7208 36.7757 62.7208C36.8822 62.7208 36.9771 62.687 37.0607 62.6201C37.1442 62.5507 37.2089 62.4286 37.2549 62.2526C37.3154 62.0269 37.3456 61.6435 37.3456 61.1036C37.3456 60.5638 37.3185 60.1934 37.2642 59.9925C37.21 59.7892 37.141 59.6547 37.0575 59.5878C36.9761 59.5184 36.8822 59.4839 36.7757 59.4839Z" fill="black"/>
<path d="M41.8267 62.5543V63.3732H38.7422C38.7756 63.0639 38.8758 62.7706 39.0428 62.4944C39.2099 62.2159 39.5396 61.8479 40.0323 61.3892C40.429 61.0189 40.6723 60.7676 40.762 60.6361C40.8831 60.4541 40.9436 60.274 40.9436 60.0962C40.9436 59.8995 40.8904 59.7484 40.784 59.6441C40.6796 59.5372 40.5344 59.4839 40.3486 59.4839C40.1649 59.4839 40.0188 59.5394 39.9102 59.6506C39.8017 59.7614 39.739 59.9457 39.7223 60.2029L38.8455 60.1152C38.8977 59.6292 39.0617 59.2809 39.3372 59.0695C39.6128 58.8582 39.9572 58.7524 40.3706 58.7524C40.8236 58.7524 41.1795 58.8749 41.4384 59.1197C41.6972 59.3646 41.8267 59.6689 41.8267 60.0334C41.8267 60.2402 41.7891 60.4381 41.7139 60.6266C41.6409 60.8126 41.524 61.0088 41.3632 61.2138C41.2567 61.3495 41.0647 61.5451 40.7871 61.8005C40.5094 62.0559 40.333 62.2254 40.2579 62.3095C40.1847 62.3931 40.1252 62.4749 40.0793 62.5543H41.8267Z" fill="black"/>
<path d="M45.397 62.5543V63.3732H42.3125C42.3459 63.0639 42.4461 62.7706 42.6132 62.4944C42.7802 62.2159 43.1101 61.8479 43.6028 61.3892C43.9993 61.0189 44.2426 60.7676 44.3323 60.6361C44.4534 60.4541 44.5139 60.274 44.5139 60.0962C44.5139 59.8995 44.4607 59.7484 44.3543 59.6441C44.2499 59.5372 44.1047 59.4839 43.919 59.4839C43.7353 59.4839 43.5891 59.5394 43.4806 59.6506C43.372 59.7614 43.3094 59.9457 43.2927 60.2029L42.4159 60.1152C42.4681 59.6292 42.632 59.2809 42.9075 59.0695C43.1831 58.8582 43.5275 58.7524 43.9409 58.7524C44.3939 58.7524 44.7498 58.8749 45.0087 59.1197C45.2676 59.3646 45.397 59.6689 45.397 60.0334C45.397 60.2402 45.3594 60.4381 45.2843 60.6266C45.2112 60.8126 45.0943 61.0088 44.9336 61.2138C44.8271 61.3495 44.635 61.5451 44.3574 61.8005C44.0797 62.0559 43.9033 62.2254 43.8282 62.3095C43.7551 62.3931 43.6955 62.4749 43.6497 62.5543H45.397Z" fill="black"/>
</g>
</g>
<defs>
<linearGradient id="paint0_linear_1678_3234" x1="157.26" y1="31.6548" x2="61.6815" y2="39.9806" gradientUnits="userSpaceOnUse">
<stop stop-color="#FFCB00"/>
<stop offset="1" stop-color="#F06A2B"/>
</linearGradient>
<clipPath id="clip0_1678_3234">
<rect width="80" height="79.4074" fill="white" transform="translate(0 0.318359)"/>
</clipPath>
</defs>
</svg>
