<svg width="80" height="28" viewBox="0 0 80 28" fill="none" xmlns="http://www.w3.org/2000/svg">
<mask id="mask0_1678_3191" style="mask-type:luminance" maskUnits="userSpaceOnUse" x="0" y="0" width="80" height="28">
<path d="M79.9946 0.838867H0.0078125V27.2046H79.9946V0.838867Z" fill="white"/>
</mask>
<g mask="url(#mask0_1678_3191)">
<path d="M75.7679 1.04199H10.165C7.96101 1.04199 6.1426 2.76301 5.95558 4.93311L1.00104 6.80191C0.442861 7.01344 0.077455 7.55229 0.0860872 8.15201C0.0947188 8.75179 0.477388 9.28203 1.0442 9.47324L5.93544 11.1421V22.743C5.93544 25.084 7.83731 26.9992 10.1621 26.9992H75.7657C78.0902 26.9992 79.9923 25.084 79.9923 22.743V5.29817C79.9951 2.95713 78.093 1.04199 75.7679 1.04199Z" fill="#243746"/>
<path d="M69.16 12.6606C69.6087 12.6606 70.0148 12.7649 70.374 12.9764C70.7343 13.1879 71.0157 13.4834 71.2171 13.8659C71.4185 14.2484 71.5197 14.6917 71.5197 15.1929C71.5197 16.0708 71.2579 16.7458 70.7309 17.2152C70.2045 17.6846 69.4106 17.9192 68.3455 17.9192C67.4336 17.9192 66.6912 17.7773 66.1133 17.4933V15.7521C66.4238 15.8969 66.7717 16.0128 67.1634 16.1055C67.5522 16.1982 67.8884 16.2446 68.1703 16.2446C68.5614 16.2446 68.8641 16.1605 69.0738 15.9954C69.2836 15.8274 69.3877 15.5811 69.3877 15.2566C69.3877 14.9553 69.2808 14.7206 69.0677 14.5525C68.8551 14.3845 68.5301 14.3005 68.0954 14.3005C67.7647 14.3005 67.4078 14.3642 67.0224 14.4888L66.2481 14.1006L66.5418 9.94873H70.9961V11.719H68.3371L68.242 12.7562C68.5183 12.7012 68.7175 12.6722 68.835 12.6664C68.953 12.6606 69.0593 12.6606 69.16 12.6606Z" fill="#68C5ED"/>
<path d="M16.2505 7.90001C16.4029 7.65951 16.6044 7.46253 16.8547 7.31187C17.105 7.16122 17.4158 7.08586 17.7869 7.08586C17.997 7.08586 18.1897 7.10902 18.3595 7.15831C18.5292 7.20469 18.6817 7.2655 18.817 7.33503C18.9522 7.40457 19.073 7.48569 19.1824 7.57554C19.2917 7.66824 19.3895 7.75803 19.4758 7.84496C19.6053 7.72038 19.7262 7.58421 19.8355 7.43931C19.9448 7.29447 19.9995 7.14673 19.9995 6.99892C19.9995 6.90331 19.9765 6.81643 19.9276 6.73526C19.8815 6.6542 19.824 6.58466 19.7578 6.5267C19.7002 6.47456 19.614 6.41078 19.5017 6.33543C19.3895 6.25727 19.2485 6.18479 19.0759 6.11524C18.9062 6.04574 18.7048 5.98486 18.4775 5.93272C18.2473 5.88058 17.9912 5.85449 17.7092 5.85449C17.1338 5.85449 16.636 5.953 16.2102 6.14424C15.7844 6.33834 15.4305 6.60782 15.1485 6.94969C14.8666 7.29448 14.6536 7.70298 14.5097 8.17235C14.3688 8.64463 14.2969 9.15747 14.2969 9.71372C14.2969 10.27 14.3631 10.78 14.4925 11.2435C14.622 11.7071 14.8291 12.1099 15.1082 12.4517C15.3873 12.7907 15.7412 13.0573 16.1699 13.2485C16.5986 13.4397 17.1079 13.5325 17.6949 13.5325C17.9999 13.5325 18.2703 13.5092 18.5062 13.46C18.7422 13.4136 18.9436 13.3557 19.1047 13.289C19.2687 13.2224 19.401 13.1587 19.5017 13.0921C19.6024 13.0254 19.6773 12.9703 19.7204 12.9269C19.801 12.8457 19.8585 12.7734 19.8959 12.7067C19.9333 12.64 19.9506 12.5618 19.9506 12.4662C19.9506 12.3996 19.9333 12.3271 19.8959 12.246C19.8585 12.1649 19.8154 12.0837 19.7664 12.0055C19.7147 11.9244 19.66 11.8491 19.6024 11.7737C19.5449 11.7013 19.4931 11.6376 19.4499 11.5883C19.3838 11.6463 19.3033 11.7158 19.2054 11.7969C19.1076 11.8781 18.9925 11.9534 18.863 12.0287C18.7335 12.1012 18.5811 12.1649 18.4113 12.2141C18.2415 12.2663 18.0545 12.2923 17.8502 12.2923C17.4647 12.2923 17.1424 12.22 16.8864 12.0722C16.6274 11.9273 16.4202 11.7332 16.2592 11.4898C16.098 11.2493 15.9858 10.9712 15.9225 10.6554C15.8563 10.3396 15.8247 10.0122 15.8247 9.6674C15.8247 9.34583 15.8563 9.02997 15.9225 8.71708C15.9887 8.41867 16.098 8.14343 16.2505 7.90001Z" fill="#243746" stroke="#243746" stroke-width="2.11186" stroke-miterlimit="10" stroke-linejoin="round"/>
<path d="M25.3447 10.0209C25.3447 9.68189 25.3073 9.38634 25.2353 9.1314C25.1635 8.87641 25.0397 8.66488 24.8671 8.49683C24.6944 8.32883 24.4729 8.20133 24.1967 8.12021C23.9233 8.03909 23.5867 7.99854 23.1925 7.99854C22.9077 7.99854 22.6372 8.0217 22.3812 8.07098C22.1251 8.12021 21.8978 8.18103 21.7021 8.25929C21.5036 8.3375 21.3482 8.42444 21.236 8.52005C21.1238 8.61565 21.0663 8.71417 21.0663 8.81845C21.0663 8.8909 21.0979 9.00391 21.1583 9.15456C21.2216 9.30522 21.3022 9.4443 21.4058 9.56888C21.6388 9.43557 21.8776 9.31971 22.1251 9.21537C22.3697 9.11109 22.6487 9.06186 22.9652 9.06186C23.3019 9.06186 23.5436 9.12273 23.6932 9.2415C23.8428 9.36027 23.9176 9.56021 23.9176 9.84413V10.044C23.8456 10.044 23.7651 10.044 23.6817 10.044C23.5983 10.044 23.5119 10.0469 23.4227 10.0557C23.1609 10.0701 22.8703 10.102 22.5567 10.1541C22.2431 10.2063 21.9496 10.299 21.6791 10.4352C21.4087 10.5713 21.1842 10.7567 21.0059 10.9914C20.8275 11.2262 20.7383 11.5303 20.7383 11.9041C20.7383 12.2054 20.7901 12.4604 20.8908 12.669C20.9943 12.8776 21.1238 13.0457 21.285 13.1703C21.4461 13.2948 21.6244 13.3847 21.823 13.4397C22.0215 13.4948 22.2172 13.5208 22.4157 13.5208C22.7955 13.5208 23.1177 13.4629 23.3796 13.3441C23.6414 13.2253 23.8543 13.0833 24.0154 12.9124C24.0528 13.1037 24.1391 13.2513 24.2744 13.3528C24.4096 13.4571 24.6081 13.5063 24.8728 13.5063C24.9966 13.5063 25.1145 13.4948 25.2296 13.4745C25.3418 13.4513 25.4656 13.4165 25.5979 13.3644C25.431 13.1007 25.3447 12.6748 25.3447 12.0954V10.0209ZM23.9406 11.9447C23.9406 12.0027 23.9118 12.0692 23.8572 12.1388C23.8025 12.2084 23.7277 12.2721 23.6327 12.333C23.5378 12.3909 23.4285 12.4402 23.3047 12.4778C23.181 12.5155 23.0487 12.5329 22.9105 12.5329C22.6315 12.5329 22.4358 12.4604 22.3179 12.3185C22.1999 12.1736 22.1423 11.9998 22.1423 11.794C22.1423 11.6115 22.1856 11.4579 22.2747 11.342C22.3611 11.2233 22.4761 11.1277 22.6142 11.0552C22.7523 10.9828 22.9105 10.9306 23.0918 10.9016C23.2703 10.8727 23.4515 10.8495 23.6356 10.835C23.6874 10.8263 23.7392 10.8234 23.7881 10.8234H23.9406V11.9447Z" fill="#243746" stroke="#243746" stroke-width="2.11186" stroke-miterlimit="10" stroke-linejoin="round"/>
<path d="M30.9813 8.5867C30.7914 8.38105 30.5756 8.23039 30.3311 8.14054C30.0865 8.04784 29.8304 8.00146 29.56 8.00146C29.1802 8.00146 28.8665 8.07391 28.6191 8.2159C28.3717 8.36074 28.1904 8.50272 28.0725 8.64174C28.0293 8.45058 27.92 8.31436 27.7531 8.23324C27.5833 8.15212 27.3761 8.11156 27.1345 8.11156C27.0539 8.11156 26.9849 8.11447 26.9244 8.11738C26.8669 8.12029 26.8151 8.12605 26.7691 8.13472C26.7173 8.14339 26.6741 8.14921 26.6367 8.15794V15.7315H28.1271V13.0168C28.1415 13.0399 28.1789 13.0805 28.2364 13.1385C28.294 13.1964 28.3774 13.2572 28.4868 13.3151C28.5961 13.3731 28.7285 13.4282 28.8867 13.4745C29.042 13.5209 29.2263 13.5469 29.4391 13.5469C29.6952 13.5469 29.9484 13.5035 30.2044 13.4137C30.4606 13.3267 30.6907 13.1732 30.8979 12.9559C31.105 12.7386 31.2748 12.4431 31.4071 12.0722C31.5395 11.7014 31.6028 11.2262 31.6028 10.6525C31.6028 10.16 31.5453 9.74272 31.433 9.40376C31.3237 9.06479 31.1712 8.79246 30.9813 8.5867ZM29.7873 11.9216C29.6118 12.2171 29.3413 12.362 28.9701 12.362C28.7745 12.362 28.6019 12.3214 28.4522 12.2403C28.3026 12.1591 28.199 12.0896 28.1415 12.0317V9.69058C28.1415 9.55156 28.2019 9.42116 28.3228 9.30524C28.4436 9.18647 28.6565 9.12851 28.9615 9.12851C29.1658 9.12851 29.3384 9.16622 29.4794 9.24443C29.6204 9.32264 29.7326 9.42988 29.8189 9.56891C29.9023 9.70804 29.9628 9.87319 30.0002 10.0673C30.0376 10.2585 30.0548 10.4642 30.0548 10.6844C30.0491 11.2146 29.9628 11.626 29.7873 11.9216Z" fill="#243746" stroke="#243746" stroke-width="2.11186" stroke-miterlimit="10" stroke-linejoin="round"/>
<path d="M35.5974 11.9881C35.5743 12.0113 35.537 12.0432 35.4823 12.0866C35.4276 12.1301 35.3643 12.1736 35.2895 12.2141C35.2176 12.2547 35.1341 12.2923 35.042 12.3242C34.95 12.3561 34.855 12.3735 34.7515 12.3735C34.3343 12.3735 34.1271 12.1156 34.1271 11.6028V9.24725H35.6636V8.13178H34.1271V7.3466C34.1271 7.16406 34.0984 7.0134 34.0408 6.90039C33.9832 6.78744 33.9056 6.69469 33.8106 6.63097C33.7157 6.56434 33.6092 6.52087 33.4913 6.49771C33.3733 6.47449 33.2582 6.46582 33.1402 6.46582C33.0827 6.46582 33.0223 6.46873 32.9647 6.47158C32.9072 6.47449 32.8525 6.48025 32.8007 6.48898C32.7432 6.49771 32.6885 6.50347 32.6367 6.5122V11.6347C32.6367 11.7969 32.6453 11.9592 32.6598 12.1214C32.6741 12.2837 32.7058 12.4372 32.7576 12.585C32.8612 12.8718 33.0366 13.1036 33.2898 13.2804C33.543 13.4571 33.8941 13.544 34.3487 13.544C34.5817 13.544 34.7975 13.5208 34.996 13.4716C35.1945 13.4223 35.3614 13.3615 35.4995 13.2833C35.6377 13.205 35.747 13.121 35.8218 13.0283C35.8995 12.9355 35.9369 12.84 35.9369 12.7443C35.9369 12.64 35.9081 12.5299 35.8506 12.4112C35.793 12.2895 35.7067 12.1504 35.5974 11.9881Z" fill="#243746" stroke="#243746" stroke-width="2.11186" stroke-miterlimit="10" stroke-linejoin="round"/>
<path d="M40.778 8.71425C40.5996 8.4969 40.3666 8.32309 40.0817 8.19559C39.7969 8.06809 39.4487 8.00146 39.0401 8.00146C38.7266 8.00146 38.4187 8.05366 38.1194 8.15503C37.8202 8.25931 37.5498 8.41864 37.3139 8.64174C37.075 8.86194 36.8851 9.14009 36.7441 9.47621C36.6031 9.81232 36.5312 10.2092 36.5312 10.6757C36.5312 11.2436 36.6118 11.713 36.7729 12.0838C36.934 12.4547 37.1441 12.7531 37.403 12.9733C37.6619 13.1935 37.9583 13.3499 38.2921 13.4368C38.6259 13.5238 38.9625 13.5701 39.3078 13.5701C39.6875 13.5701 40.0184 13.5267 40.3004 13.4426C40.5824 13.3587 40.7982 13.2572 40.9535 13.1385C41.1348 13.0052 41.2269 12.8574 41.2269 12.698C41.2269 12.5879 41.1779 12.4459 41.083 12.2721C40.988 12.0983 40.896 11.9563 40.8068 11.8462C40.7406 11.9042 40.6686 11.9708 40.5852 12.0403C40.5047 12.1099 40.4097 12.1736 40.3004 12.2345C40.1911 12.2924 40.0645 12.3446 39.9264 12.3822C39.7882 12.4228 39.6242 12.4431 39.443 12.4431C38.9653 12.4431 38.6172 12.3098 38.3986 12.0403C38.1799 11.7709 38.0533 11.4348 38.0245 11.0292H41.2585C41.2642 10.9915 41.27 10.9423 41.2758 10.8814C41.2786 10.8177 41.2844 10.754 41.2872 10.6873C41.2901 10.6207 41.293 10.5598 41.293 10.499C41.293 10.441 41.293 10.3889 41.293 10.3454C41.293 10.0354 41.2527 9.74272 41.1722 9.46172C41.0887 9.1778 40.9592 8.93153 40.778 8.71425ZM38.0101 10.1977C38.0101 9.82099 38.0993 9.52835 38.2806 9.31979C38.4618 9.11117 38.7006 9.00393 39.0027 9.00393C39.3566 9.00393 39.6012 9.11402 39.7365 9.33422C39.8717 9.55442 39.9407 9.84124 39.9407 10.1948H38.0101V10.1977Z" fill="#243746" stroke="#243746" stroke-width="2.11186" stroke-miterlimit="10" stroke-linejoin="round"/>
<path d="M45.643 8.1058C45.5598 8.06524 45.4674 8.03912 45.3696 8.02463C45.2718 8.01019 45.1772 8.00146 45.0905 8.00146C44.9438 8.00146 44.8061 8.02463 44.6794 8.06809C44.5527 8.11156 44.4347 8.16661 44.3282 8.23324C44.2218 8.29987 44.1326 8.37232 44.0607 8.45344C43.9888 8.53456 43.9283 8.607 43.8852 8.67363C43.842 8.48532 43.7327 8.34334 43.5629 8.25349C43.3903 8.16376 43.1889 8.11738 42.9529 8.11738C42.8724 8.11738 42.8033 8.12029 42.7457 8.12314C42.6882 8.12605 42.6364 8.13181 42.5933 8.14054C42.5415 8.14921 42.4984 8.15503 42.4609 8.16376V13.5527H43.9513V9.96874C43.9513 9.78334 44.029 9.62395 44.1815 9.4936C44.334 9.36029 44.5239 9.29366 44.7514 9.29366C44.9181 9.29366 45.0647 9.32264 45.1888 9.37774C45.3123 9.43279 45.4359 9.51095 45.5625 9.61528C45.643 9.46748 45.7239 9.29075 45.8043 9.08214C45.8848 8.87358 45.9252 8.68812 45.9252 8.52874C45.9252 8.42737 45.8994 8.34049 45.8474 8.27095C45.7954 8.19844 45.7296 8.1463 45.643 8.1058Z" fill="#243746" stroke="#243746" stroke-width="2.11186" stroke-miterlimit="10" stroke-linejoin="round"/>
<path d="M49.8853 8.1058C49.8022 8.06524 49.7098 8.03912 49.612 8.02463C49.5143 8.01019 49.4195 8.00146 49.3329 8.00146C49.1862 8.00146 49.0511 8.02463 48.9218 8.06809C48.7951 8.11156 48.6769 8.16661 48.5706 8.23324C48.464 8.29987 48.3751 8.37232 48.3031 8.45344C48.2311 8.53456 48.1706 8.607 48.1276 8.67363C48.0844 8.48532 47.9751 8.34334 47.8053 8.25349C47.6325 8.16376 47.4311 8.11738 47.1951 8.11738C47.1147 8.11738 47.0458 8.12029 46.988 8.12314C46.9307 8.12605 46.8787 8.13181 46.8355 8.14054C46.784 8.14921 46.7409 8.15503 46.7031 8.16376V13.5527H48.1938V9.96874C48.1938 9.78334 48.2716 9.62395 48.424 9.4936C48.5765 9.36029 48.7662 9.29366 48.9938 9.29366C49.1605 9.29366 49.3071 9.32264 49.4311 9.37774C49.5546 9.43279 49.6782 9.51095 49.8049 9.61528C49.8853 9.46748 49.9662 9.29075 50.0467 9.08214C50.1271 8.87358 50.1676 8.68812 50.1676 8.52874C50.1676 8.42737 50.1418 8.34049 50.0898 8.27095C50.0378 8.19844 49.9689 8.1463 49.8853 8.1058Z" fill="#243746" stroke="#243746" stroke-width="2.11186" stroke-miterlimit="10" stroke-linejoin="round"/>
<path d="M55.2403 12.0982V10.0208C55.2403 9.68184 55.2029 9.38634 55.1309 9.13135C55.0589 8.87641 54.9354 8.66488 54.7625 8.49683C54.5901 8.32883 54.3683 8.20128 54.095 8.12021C53.8216 8.03904 53.4852 7.99854 53.0909 7.99854C52.8061 7.99854 52.5358 8.02164 52.2794 8.07093C52.0234 8.12021 51.7963 8.18102 51.6007 8.25923C51.4021 8.3375 51.2465 8.42438 51.1345 8.51999C51.0221 8.61565 50.9647 8.71417 50.9647 8.81845C50.9647 8.8909 50.9963 9.00385 51.0567 9.15456C51.1198 9.30516 51.2007 9.4443 51.3043 9.56883C51.5372 9.43557 51.7759 9.31971 52.0234 9.21537C52.2678 9.11109 52.5469 9.06181 52.8638 9.06181C53.2003 9.06181 53.4421 9.12267 53.5914 9.24144C53.7412 9.36021 53.8158 9.56016 53.8158 9.84407V10.044C53.7443 10.044 53.6634 10.044 53.5803 10.044C53.4967 10.044 53.4105 10.0469 53.3212 10.0556C53.0594 10.0701 52.7687 10.102 52.455 10.1541C52.1416 10.2063 51.8479 10.299 51.5776 10.4352C51.3069 10.5713 51.0825 10.7567 50.9043 10.9914C50.7261 11.2261 50.6367 11.5303 50.6367 11.9041C50.6367 12.2054 50.6883 12.4604 50.7892 12.669C50.8927 12.8776 51.0221 13.0456 51.1834 13.1702C51.3443 13.2948 51.5229 13.3846 51.7212 13.4397C51.9199 13.4947 52.1154 13.5208 52.3141 13.5208C52.6941 13.5208 53.0163 13.4629 53.2781 13.3441C53.5398 13.2253 53.7527 13.0833 53.9136 12.9124C53.9514 13.1036 54.0376 13.2513 54.1727 13.3528C54.3078 13.4571 54.5065 13.5063 54.7714 13.5063C54.895 13.5063 55.0127 13.4947 55.1278 13.4745C55.2403 13.4513 55.3638 13.4165 55.4963 13.3644C55.3238 13.1036 55.2403 12.6806 55.2403 12.0982ZM53.8363 11.9447C53.8363 12.0026 53.8074 12.0692 53.7527 12.1388C53.6981 12.2083 53.6234 12.272 53.5283 12.3329C53.4332 12.3908 53.3238 12.4401 53.2003 12.4778C53.0767 12.5155 52.9443 12.5328 52.8061 12.5328C52.527 12.5328 52.3314 12.4604 52.2132 12.3184C52.0954 12.1735 52.0381 11.9997 52.0381 11.794C52.0381 11.6115 52.0812 11.4579 52.1701 11.342C52.2567 11.2232 52.3718 11.1276 52.5096 11.0552C52.6478 10.9828 52.8092 10.9306 52.9874 10.9016C53.1656 10.8727 53.3469 10.8494 53.5309 10.835C53.583 10.8263 53.6349 10.8234 53.6838 10.8234H53.8363V11.9447Z" fill="#243746" stroke="#243746" stroke-width="2.11186" stroke-miterlimit="10" stroke-linejoin="round"/>
<path d="M7.21601 10.0817L1.49609 8.13182L9.45444 5.13017L13.2121 3.71338L9.45444 15.7286L7.21601 10.0817Z" fill="#243746"/>
<path d="M1.49609 8.18085H6.44488L9.45444 8.18376V5.1792L1.49609 8.18085Z" fill="#FF9D28"/>
<path d="M9.45312 5.17948V15.7809L13.2108 3.7627L9.45312 5.17948Z" fill="#69C3EA"/>
<path d="M9.45488 8.18406L6.44531 8.18115L9.45488 15.7808V8.18406Z" fill="#004F80"/>
<path d="M1.49609 8.18115L7.21601 10.1311L6.44488 8.18115H1.49609Z" fill="#E14748"/>
<path d="M19.7244 12.9903C19.6812 13.0338 19.6093 13.0888 19.5057 13.1554C19.405 13.2221 19.2726 13.2858 19.1086 13.3525C18.9446 13.4192 18.7461 13.4742 18.5102 13.5234C18.2742 13.5698 18.0038 13.5959 17.6988 13.5959C17.109 13.5959 16.6026 13.5002 16.1739 13.3119C15.7451 13.1207 15.3912 12.8571 15.1122 12.5152C14.8331 12.1761 14.6259 11.7735 14.4965 11.307C14.367 10.8434 14.3008 10.3306 14.3008 9.77429C14.3008 9.21799 14.3727 8.70515 14.5137 8.23292C14.6547 7.76064 14.8676 7.35214 15.1525 7.01027C15.4373 6.66543 15.7912 6.396 16.2141 6.20478C16.64 6.01064 17.1378 5.91504 17.7131 5.91504C17.998 5.91504 18.2541 5.94113 18.4814 5.99327C18.7116 6.04541 18.9101 6.10628 19.0799 6.17578C19.2496 6.24534 19.3935 6.31774 19.5057 6.396C19.6179 6.47421 19.7042 6.53793 19.7618 6.58722C19.8279 6.64518 19.8826 6.71466 19.9315 6.79583C19.9775 6.87695 20.0034 6.96389 20.0034 7.0595C20.0034 7.20725 19.9488 7.35214 19.8394 7.49989C19.7301 7.64764 19.6093 7.78095 19.4798 7.90548C19.3935 7.81855 19.2956 7.72881 19.1863 7.63606C19.077 7.5433 18.9562 7.46509 18.8209 7.39561C18.6857 7.32601 18.5332 7.26806 18.3634 7.21883C18.1936 7.1725 18.0009 7.14638 17.7909 7.14638C17.4197 7.14638 17.109 7.22174 16.8587 7.37239C16.6083 7.52305 16.407 7.71718 16.2545 7.96053C16.1019 8.20104 15.9926 8.47913 15.9265 8.78918C15.8603 9.09922 15.8286 9.41788 15.8286 9.7395C15.8286 10.0843 15.8603 10.4117 15.9265 10.7275C15.9926 11.0433 16.1048 11.3215 16.2631 11.5619C16.4242 11.8024 16.6314 11.9966 16.8903 12.1443C17.1492 12.2921 17.4686 12.3645 17.8541 12.3645C18.0584 12.3645 18.2455 12.3384 18.4152 12.2862C18.585 12.2341 18.7375 12.1733 18.8669 12.1008C18.9964 12.0284 19.1115 11.9502 19.2094 11.8691C19.3072 11.7879 19.3906 11.7184 19.4539 11.6604C19.497 11.7126 19.5488 11.7735 19.6064 11.8458C19.6639 11.9183 19.7186 11.9966 19.7704 12.0777C19.8222 12.1588 19.8654 12.2399 19.8999 12.3181C19.9373 12.3992 19.9545 12.4717 19.9545 12.5383C19.9545 12.634 19.9373 12.715 19.8999 12.7788C19.8625 12.8367 19.8049 12.9092 19.7244 12.9903Z" fill="white"/>
<path d="M25.3447 12.1476C25.3447 12.73 25.4281 13.153 25.5979 13.4167C25.4656 13.4688 25.3447 13.5036 25.2296 13.5268C25.1174 13.5499 24.9966 13.5586 24.8729 13.5586C24.6111 13.5586 24.4096 13.5064 24.2744 13.4051C24.1392 13.3007 24.0528 13.1558 24.0154 12.9647C23.8543 13.1356 23.6414 13.2776 23.3796 13.3963C23.1178 13.5152 22.7955 13.5731 22.4157 13.5731C22.2172 13.5731 22.0215 13.5441 21.823 13.492C21.6245 13.4369 21.4461 13.3471 21.285 13.2225C21.1238 13.0979 20.9915 12.9299 20.8908 12.7213C20.7872 12.5127 20.7383 12.2577 20.7383 11.9564C20.7383 11.5826 20.8275 11.2784 21.0059 11.0437C21.1843 10.809 21.4087 10.6236 21.6791 10.4874C21.9496 10.3513 22.2431 10.2586 22.5567 10.2064C22.8703 10.1542 23.1609 10.1223 23.4228 10.1079C23.5119 10.0992 23.5953 10.0963 23.6817 10.0963H23.9176V9.89638C23.9176 9.61246 23.8428 9.41252 23.6932 9.29369C23.5436 9.17492 23.299 9.11411 22.9652 9.11411C22.6516 9.11411 22.3726 9.16625 22.1251 9.26768C21.8805 9.37196 21.6418 9.48787 21.4058 9.62113C21.3023 9.49654 21.2216 9.35747 21.1584 9.20681C21.0951 9.05615 21.0663 8.94314 21.0663 8.87075C21.0663 8.76642 21.1238 8.6679 21.2361 8.57229C21.3482 8.47668 21.5036 8.38975 21.7021 8.31154C21.9007 8.23333 22.1251 8.17246 22.3812 8.12323C22.6372 8.07394 22.9077 8.05078 23.1925 8.05078C23.5867 8.05078 23.9205 8.09134 24.1967 8.17246C24.47 8.25358 24.6945 8.37817 24.8671 8.54913C25.0397 8.71719 25.1605 8.92871 25.2354 9.18359C25.3073 9.43859 25.3447 9.73414 25.3447 10.0731V12.1476ZM23.9406 10.867C23.8888 10.867 23.837 10.867 23.7881 10.867C23.7363 10.867 23.6846 10.8699 23.6357 10.8786C23.4515 10.893 23.2731 10.9162 23.0918 10.9452C22.9135 10.9742 22.7523 11.0263 22.6143 11.0988C22.4761 11.1712 22.3611 11.2668 22.2747 11.3856C22.1856 11.5044 22.1424 11.655 22.1424 11.8376C22.1424 12.0433 22.1999 12.2171 22.3179 12.362C22.4358 12.5069 22.6315 12.5764 22.9106 12.5764C23.0487 12.5764 23.181 12.559 23.3048 12.5214C23.4285 12.4837 23.5378 12.4373 23.6328 12.3765C23.7277 12.3185 23.8025 12.2519 23.8572 12.1824C23.9118 12.1128 23.9406 12.0491 23.9406 11.9882V10.867Z" fill="white"/>
<path d="M28.0735 8.69106C28.1885 8.55204 28.3727 8.41005 28.6202 8.26522C28.8676 8.12032 29.1812 8.05078 29.561 8.05078C29.8314 8.05078 30.0876 8.09716 30.3321 8.18986C30.5766 8.28256 30.7925 8.43036 30.9823 8.63601C31.1723 8.84177 31.3219 9.11411 31.4369 9.45308C31.5492 9.79204 31.6067 10.2064 31.6067 10.7019C31.6067 11.2755 31.5405 11.7478 31.411 12.1216C31.2787 12.4924 31.1118 12.788 30.9018 13.0052C30.6947 13.2225 30.4616 13.3761 30.2084 13.463C29.9523 13.5499 29.6991 13.5963 29.443 13.5963C29.233 13.5963 29.0488 13.5731 28.8906 13.5238C28.7352 13.4746 28.6 13.4224 28.4907 13.3645C28.3814 13.3066 28.2979 13.2457 28.2404 13.1878C28.1828 13.1298 28.1454 13.0893 28.131 13.0661V15.7809H26.6406V8.20435C26.6781 8.19853 26.7212 8.18986 26.773 8.18119C26.8162 8.17537 26.8679 8.16961 26.9283 8.16379C26.9859 8.16088 27.0579 8.15803 27.1384 8.15803C27.3801 8.15803 27.5872 8.19853 27.757 8.2797C27.921 8.36368 28.0274 8.4999 28.0735 8.69106ZM30.0473 10.7337C30.0473 10.5135 30.03 10.3078 29.9926 10.1166C29.9552 9.92536 29.8976 9.76021 29.8113 9.61822C29.7279 9.4792 29.6157 9.3691 29.4718 9.29375C29.3308 9.21554 29.1582 9.17783 28.9539 9.17783C28.6489 9.17783 28.436 9.23579 28.3152 9.35456C28.1944 9.47338 28.1339 9.60088 28.1339 9.7399V12.081C28.1915 12.1389 28.2951 12.2084 28.4447 12.2896C28.5942 12.3707 28.7669 12.4113 28.9626 12.4113C29.3337 12.4113 29.6071 12.2635 29.7796 11.9709C29.961 11.6753 30.0473 11.2639 30.0473 10.7337Z" fill="white"/>
<path d="M32.7576 12.6343C32.7058 12.4865 32.6741 12.3329 32.6598 12.1707C32.6454 12.0084 32.6367 11.8462 32.6367 11.684V6.55858C32.6885 6.55277 32.7432 6.54404 32.8007 6.53537C32.8526 6.52961 32.9072 6.52379 32.9648 6.51803C33.0223 6.51512 33.0827 6.51221 33.1402 6.51221C33.2583 6.51221 33.3733 6.52379 33.4913 6.54404C33.6093 6.56726 33.7128 6.61072 33.8106 6.67735C33.9056 6.74398 33.9832 6.83383 34.0408 6.94684C34.0984 7.05979 34.1271 7.21045 34.1271 7.39299V8.17817H35.6636V9.29363H34.1271V11.6492C34.1271 12.162 34.3343 12.4198 34.7515 12.4198C34.8551 12.4198 34.95 12.4025 35.0421 12.3706C35.1342 12.3387 35.2147 12.3011 35.2895 12.2605C35.3615 12.22 35.4277 12.1765 35.4823 12.133C35.537 12.0895 35.5743 12.0548 35.5974 12.0345C35.7067 12.1968 35.7902 12.3358 35.8506 12.4546C35.9082 12.5735 35.9369 12.6836 35.9369 12.7878C35.9369 12.8834 35.8995 12.9791 35.8218 13.0718C35.7441 13.1645 35.6377 13.2514 35.4995 13.3267C35.3615 13.405 35.1917 13.4687 34.996 13.5151C34.7975 13.5643 34.5817 13.5875 34.3487 13.5875C33.8941 13.5875 33.5431 13.4977 33.2899 13.3238C33.0367 13.1529 32.8612 12.9211 32.7576 12.6343Z" fill="white"/>
<path d="M39.4391 12.4895C39.6232 12.4895 39.7844 12.4692 39.9225 12.4287C40.0605 12.3881 40.1871 12.3388 40.2965 12.2809C40.4058 12.223 40.5008 12.1563 40.5813 12.0868C40.6619 12.0173 40.7367 11.9535 40.8029 11.8927C40.892 12.0028 40.9813 12.1447 41.0791 12.3186C41.174 12.4924 41.223 12.6344 41.223 12.7445C41.223 12.9067 41.1309 13.0545 40.9496 13.1849C40.7971 13.3037 40.5785 13.4051 40.2965 13.4891C40.0145 13.5731 39.6836 13.6166 39.3038 13.6166C38.9615 13.6166 38.6219 13.5731 38.2882 13.4833C37.9544 13.3963 37.6581 13.2399 37.3991 13.0197C37.1402 12.7995 36.9301 12.504 36.769 12.1302C36.6079 11.7594 36.5273 11.29 36.5273 10.7221C36.5273 10.2585 36.5993 9.8587 36.7403 9.52265C36.8841 9.18654 37.074 8.90838 37.3099 8.68819C37.5487 8.46799 37.8163 8.30575 38.1156 8.20147C38.4148 8.09714 38.7226 8.04785 39.0363 8.04785C39.4448 8.04785 39.793 8.11163 40.0778 8.24203C40.3626 8.36947 40.5957 8.54335 40.7741 8.76063C40.9525 8.97792 41.082 9.22715 41.1625 9.50525C41.2431 9.78631 41.2834 10.0789 41.2834 10.3889V10.5425C41.2834 10.6005 41.2805 10.6642 41.2776 10.7308C41.2748 10.7974 41.269 10.8612 41.2661 10.9249C41.2632 10.9887 41.2575 11.0379 41.2488 11.0727H38.0148C38.0436 11.4783 38.1703 11.8145 38.3889 12.0839C38.6133 12.3562 38.9615 12.4895 39.4391 12.4895ZM39.9397 10.247C39.9397 9.8935 39.8706 9.60668 39.7355 9.38648C39.6002 9.16629 39.3556 9.05619 39.0017 9.05619C38.6996 9.05619 38.4579 9.16047 38.2796 9.37194C38.0983 9.58055 38.0091 9.87319 38.0091 10.2499H39.9397V10.247Z" fill="white"/>
<path d="M43.8852 8.72008C43.9283 8.65345 43.9887 8.581 44.0607 8.49988C44.1326 8.41876 44.2247 8.34631 44.3282 8.27968C44.4346 8.213 44.5499 8.15795 44.6793 8.11454C44.8059 8.07107 44.9437 8.04785 45.0909 8.04785C45.1771 8.04785 45.2722 8.05658 45.37 8.07107C45.4677 8.08556 45.5597 8.11454 45.6433 8.15219C45.7264 8.19275 45.7957 8.2478 45.8473 8.31733C45.8993 8.38687 45.925 8.47381 45.925 8.57524C45.925 8.73456 45.8846 8.91996 45.8042 9.12858C45.7237 9.33725 45.6433 9.51398 45.5624 9.66172C45.4388 9.55745 45.3153 9.47918 45.1886 9.42413C45.0646 9.36908 44.9179 9.3401 44.7513 9.3401C44.5237 9.3401 44.334 9.40673 44.1815 9.53999C44.029 9.67331 43.9513 9.83269 43.9513 10.0152V13.5905H42.4609V8.20147C42.4983 8.19566 42.5414 8.18698 42.5933 8.17831C42.6364 8.17249 42.6882 8.16668 42.7457 8.16086C42.8033 8.15795 42.8724 8.1551 42.9529 8.1551C43.186 8.1551 43.3903 8.20147 43.5629 8.29126C43.7327 8.38978 43.8391 8.52886 43.8852 8.72008Z" fill="white"/>
<path d="M48.1232 8.72008C48.1663 8.65345 48.2268 8.58094 48.2988 8.49982C48.3708 8.4187 48.4627 8.34626 48.5663 8.27963C48.673 8.213 48.7881 8.15795 48.9174 8.11448C49.0441 8.07101 49.1823 8.04785 49.329 8.04785C49.4152 8.04785 49.5103 8.05658 49.6081 8.07101C49.7059 8.0855 49.7978 8.11448 49.8814 8.15219C49.9645 8.19269 50.0339 8.24774 50.0854 8.31733C50.1374 8.38687 50.1632 8.47375 50.1632 8.57518C50.1632 8.73451 50.1232 8.91996 50.0423 9.12858C49.9619 9.33719 49.8814 9.51392 49.8005 9.66167C49.6769 9.55739 49.5534 9.47918 49.4268 9.42413C49.3032 9.36908 49.1561 9.34005 48.9894 9.34005C48.7619 9.34005 48.5721 9.40673 48.4197 9.53999C48.2672 9.67325 48.1894 9.83263 48.1894 10.0151V13.5905H46.6992V8.20142C46.7365 8.1956 46.7797 8.18693 46.8316 8.17826C46.8748 8.17244 46.9263 8.16668 46.9841 8.16086C47.0414 8.15795 47.1107 8.1551 47.1912 8.1551C47.4241 8.1551 47.6285 8.20142 47.801 8.29121C47.9738 8.38973 48.0801 8.5288 48.1232 8.72008Z" fill="white"/>
<path d="M55.2434 12.1476C55.2434 12.73 55.3265 13.153 55.4963 13.4167C55.3643 13.4688 55.2434 13.5036 55.1283 13.5268C55.0159 13.5499 54.895 13.5586 54.7714 13.5586C54.5065 13.5586 54.3083 13.5064 54.1727 13.4051C54.0376 13.3007 53.9514 13.1558 53.9141 12.9647C53.7527 13.1356 53.5398 13.2776 53.2781 13.3963C53.0163 13.5152 52.6941 13.5731 52.3141 13.5731C52.1158 13.5731 51.9203 13.5441 51.7216 13.492C51.523 13.4369 51.3447 13.3471 51.1834 13.2225C51.0225 13.0979 50.8901 12.9299 50.7892 12.7213C50.6856 12.5127 50.6367 12.2577 50.6367 11.9564C50.6367 11.5826 50.7261 11.2784 50.9043 11.0437C51.083 10.809 51.3074 10.6236 51.5776 10.4874C51.8483 10.3513 52.1416 10.2586 52.4554 10.2064C52.7687 10.1542 53.0594 10.1223 53.3212 10.1079C53.4105 10.0992 53.4941 10.0963 53.5803 10.0963H53.8163V9.89638C53.8163 9.61246 53.7412 9.41252 53.5919 9.29369C53.4421 9.17492 53.1976 9.11411 52.8639 9.11411C52.5501 9.11411 52.271 9.16625 52.0239 9.26768C51.779 9.37196 51.5403 9.48787 51.3043 9.62113C51.2008 9.49654 51.1203 9.35747 51.0567 9.20681C50.9936 9.05615 50.9647 8.94314 50.9647 8.87075C50.9647 8.76642 51.0225 8.6679 51.1345 8.57229C51.247 8.47668 51.4021 8.38975 51.6007 8.31154C51.7994 8.23333 52.0239 8.17246 52.2799 8.12323C52.5359 8.07394 52.8061 8.05078 53.091 8.05078C53.4852 8.05078 53.819 8.09134 54.0954 8.17246C54.3687 8.25358 54.5932 8.37817 54.763 8.54913C54.9354 8.71719 55.0563 8.92871 55.131 9.18359C55.203 9.43859 55.2403 9.73414 55.2403 10.0731V12.1476H55.2434ZM53.8394 10.867C53.7874 10.867 53.7354 10.867 53.6865 10.867C53.635 10.867 53.583 10.8699 53.5341 10.8786C53.3501 10.893 53.1718 10.9162 52.9905 10.9452C52.8118 10.9742 52.651 11.0263 52.5127 11.0988C52.3745 11.1712 52.2594 11.2668 52.1732 11.3856C52.087 11.5044 52.0407 11.655 52.0407 11.8376C52.0407 12.0433 52.0985 12.2171 52.2163 12.362C52.3345 12.5069 52.5301 12.5764 52.8092 12.5764C52.9474 12.5764 53.0794 12.559 53.2034 12.5214C53.327 12.4837 53.4363 12.4373 53.5314 12.3765C53.6261 12.3185 53.7012 12.2519 53.7558 12.1824C53.8105 12.1128 53.8394 12.0491 53.8394 11.9882V10.867Z" fill="white"/>
<path d="M54.1737 22.2014C54.0727 22.2014 53.9781 22.1783 53.8861 22.129L52.9421 21.6307C52.8963 21.6046 52.8416 21.593 52.7897 21.593C52.7376 21.593 52.683 21.6075 52.6372 21.6307L51.6937 22.129C51.6012 22.1783 51.5065 22.2014 51.4057 22.2014C51.2243 22.2014 51.0519 22.1203 50.931 21.9783C50.8132 21.8363 50.7643 21.6567 50.7959 21.4742L50.9741 20.4167C50.9914 20.3095 50.9568 20.1994 50.8789 20.124L50.1168 19.3765C49.947 19.2114 49.8866 18.9651 49.9612 18.7391C50.0332 18.5131 50.2261 18.3509 50.459 18.3161L51.5123 18.1625C51.6185 18.1481 51.7136 18.0785 51.7594 17.98L52.2314 17.0181C52.3349 16.8037 52.5479 16.6704 52.7838 16.6704C53.0199 16.6704 53.2327 16.8037 53.3363 17.0181L53.8083 17.98C53.8572 18.0785 53.9492 18.1452 54.0554 18.1625L55.1088 18.3161C55.3417 18.3509 55.5346 18.5131 55.6066 18.7391C55.6786 18.9651 55.6208 19.2114 55.451 19.3765L54.6887 20.124C54.611 20.1994 54.5763 20.3095 54.5936 20.4167L54.7719 21.4742C54.8039 21.6596 54.755 21.8363 54.6368 21.9783C54.5305 22.1203 54.3577 22.2014 54.1737 22.2014Z" fill="#FF9D28"/>
<path d="M52.7903 16.8151C52.96 16.8151 53.1267 16.905 53.216 17.0817L53.688 18.0436C53.7569 18.1856 53.8893 18.2812 54.0449 18.3044L55.0978 18.4579C55.4863 18.5159 55.6418 18.9968 55.3595 19.2721L54.5974 20.0195C54.4849 20.1296 54.436 20.2861 54.4618 20.4426L54.6431 21.5001C54.6951 21.8072 54.4534 22.0593 54.1769 22.0593C54.1053 22.0593 54.0303 22.0419 53.9556 22.0042L53.0147 21.5059C52.9458 21.4683 52.8707 21.4508 52.7933 21.4508C52.7183 21.4508 52.6404 21.4683 52.5716 21.5059L51.6307 22.0042C51.5587 22.0419 51.484 22.0593 51.4093 22.0593C51.1329 22.0593 50.8911 21.8101 50.9431 21.5001L51.1245 20.4426C51.1503 20.289 51.0987 20.1296 50.9894 20.0195L50.2267 19.2721C49.9449 18.9968 50.1 18.5159 50.4884 18.4579L51.5414 18.3044C51.6969 18.2812 51.8294 18.1856 51.8982 18.0436L52.3702 17.0817C52.4507 16.905 52.6205 16.8151 52.7903 16.8151ZM52.7903 16.5254C52.4996 16.5254 52.2378 16.6905 52.1085 16.9513L51.6365 17.9132C51.6107 17.9682 51.556 18.006 51.4955 18.0146L50.4427 18.1682C50.1547 18.2117 49.9187 18.4115 49.8267 18.6897C49.7373 18.9679 49.8093 19.2692 50.0196 19.4749L50.7818 20.2224C50.8253 20.2659 50.8454 20.3267 50.8365 20.3875L50.6555 21.4451C50.6178 21.6682 50.6783 21.8941 50.8223 22.068C50.9689 22.2419 51.1818 22.3432 51.4063 22.3432C51.5302 22.3432 51.648 22.3143 51.76 22.2534L52.7009 21.7551C52.7271 21.7406 52.7587 21.7348 52.7876 21.7348C52.816 21.7348 52.848 21.7435 52.8738 21.7551L53.8147 22.2534C53.9267 22.3113 54.0449 22.3432 54.1684 22.3432C54.3929 22.3432 54.6058 22.2419 54.7524 22.068C54.8964 21.897 54.9569 21.6682 54.9196 21.4451L54.7382 20.3875C54.7267 20.3267 54.7467 20.2659 54.7929 20.2224L55.5551 19.4749C55.7654 19.2692 55.8374 18.9679 55.748 18.6897C55.6587 18.4115 55.4231 18.2087 55.1325 18.1682L54.0791 18.0146C54.0187 18.006 53.9671 17.9682 53.9382 17.9132L53.4662 16.9513C53.3427 16.6905 53.0809 16.5254 52.7903 16.5254Z" fill="#FF9D28"/>
<path d="M46.9754 22.2014C46.8745 22.2014 46.7798 22.1783 46.6874 22.129L45.747 21.6307C45.7007 21.6046 45.646 21.593 45.5941 21.593C45.5394 21.593 45.4878 21.6075 45.4416 21.6307L44.4981 22.129C44.406 22.1783 44.3111 22.2014 44.2103 22.2014C44.029 22.2014 43.8564 22.1203 43.7356 21.9783C43.6176 21.8363 43.5687 21.6596 43.6004 21.4742L43.7787 20.4167C43.796 20.3095 43.7615 20.1994 43.6838 20.124L42.9213 19.3765C42.7516 19.2114 42.6912 18.9651 42.766 18.7391C42.8379 18.5131 43.0307 18.3509 43.2637 18.3161L44.3168 18.1625C44.4232 18.1481 44.518 18.0785 44.5643 17.98L45.0363 17.0181C45.1399 16.8037 45.3527 16.6704 45.5887 16.6704C45.8243 16.6704 46.0371 16.8037 46.1407 17.0181L46.6127 17.98C46.6616 18.0785 46.7536 18.1452 46.8603 18.1625L47.9132 18.3161C48.1465 18.3509 48.339 18.5131 48.411 18.7391C48.483 18.9651 48.4256 19.2114 48.2558 19.3765L47.4931 20.124C47.4154 20.1994 47.3811 20.3095 47.398 20.4167L47.5794 21.4742C47.6114 21.6596 47.5621 21.8363 47.4443 21.9783C47.3323 22.1203 47.1594 22.2014 46.9754 22.2014Z" fill="#FF9D28"/>
<path d="M45.595 16.8151C45.7648 16.8151 45.9314 16.905 46.0208 17.0817L46.4923 18.0436C46.5616 18.1856 46.6941 18.2812 46.8492 18.3044L47.9025 18.4579C48.291 18.5159 48.4461 18.9968 48.1643 19.2721L47.4016 20.0195C47.2896 20.1296 47.2407 20.2861 47.2665 20.4426L47.4478 21.5001C47.4994 21.8072 47.2576 22.0593 46.9817 22.0593C46.9097 22.0593 46.835 22.0419 46.7598 22.0042L45.8194 21.5059C45.7501 21.4683 45.6754 21.4508 45.5977 21.4508C45.523 21.4508 45.4452 21.4683 45.3763 21.5059L44.4353 22.0042C44.3634 22.0419 44.2885 22.0593 44.2137 22.0593C43.9375 22.0593 43.6958 21.8101 43.7476 21.5001L43.9289 20.4426C43.9548 20.289 43.903 20.1296 43.7937 20.0195L43.0312 19.2721C42.7492 18.9968 42.9046 18.5159 43.293 18.4579L44.3461 18.3044C44.5017 18.2812 44.6336 18.1856 44.7029 18.0436L45.1745 17.0817C45.2554 16.905 45.4252 16.8151 45.595 16.8151ZM45.595 16.5254C45.3043 16.5254 45.0425 16.6905 44.9127 16.9542L44.4411 17.9161C44.4152 17.9712 44.3605 18.0089 44.3 18.0175L43.247 18.1711C42.9593 18.2146 42.7233 18.4145 42.6313 18.6926C42.5421 18.9707 42.614 19.2721 42.824 19.4778L43.5865 20.2253C43.6297 20.2688 43.6498 20.3296 43.6412 20.3905L43.4599 21.448C43.4225 21.671 43.4829 21.897 43.6268 22.0709C43.7735 22.2447 43.9864 22.3461 44.2109 22.3461C44.3346 22.3461 44.4528 22.3172 44.5648 22.2563L45.5056 21.758C45.5314 21.7435 45.563 21.7377 45.5918 21.7377C45.6208 21.7377 45.6523 21.7464 45.6781 21.758L46.619 22.2563C46.7314 22.3143 46.8492 22.3461 46.9732 22.3461C47.1972 22.3461 47.4105 22.2447 47.5572 22.0709C47.7008 21.8999 47.7612 21.671 47.7239 21.448L47.5456 20.3905C47.5341 20.3296 47.5541 20.2688 47.6003 20.2253L48.3625 19.4778C48.5728 19.2721 48.6448 18.9707 48.5554 18.6926C48.4661 18.4145 48.2305 18.2146 47.9399 18.1711L46.8865 18.0175C46.8261 18.0089 46.7745 17.9712 46.7456 17.9161L46.2736 16.9542C46.1474 16.6905 45.8852 16.5254 45.595 16.5254Z" fill="#FF9D28"/>
<path d="M39.7811 22.2014C39.6804 22.2014 39.5854 22.1783 39.4933 22.129L38.5525 21.6307C38.5064 21.6046 38.4518 21.593 38.4 21.593C38.3453 21.593 38.2936 21.6075 38.2475 21.6307L37.3038 22.129C37.2117 22.1783 37.1168 22.2014 37.016 22.2014C36.8348 22.2014 36.6622 22.1203 36.5413 21.9783C36.4234 21.8363 36.3745 21.6596 36.4061 21.4742L36.5873 20.4167C36.6046 20.3095 36.5701 20.1994 36.4924 20.124L35.73 19.3765C35.5602 19.2114 35.4998 18.9651 35.5746 18.7391C35.6465 18.5131 35.8393 18.3509 36.0723 18.3161L37.1254 18.1625C37.2318 18.1481 37.3268 18.0785 37.3728 17.98L37.8447 17.0181C37.9483 16.8037 38.1612 16.6704 38.3971 16.6704C38.6331 16.6704 38.846 16.8037 38.9496 17.0181L39.4214 17.98C39.4703 18.0785 39.5624 18.1452 39.6688 18.1625L40.7219 18.3161C40.955 18.3509 41.1477 18.5131 41.2197 18.7391C41.2916 18.9651 41.234 19.2114 41.0643 19.3765L40.3018 20.124C40.2241 20.1994 40.1896 20.3095 40.2069 20.4167L40.3853 21.4742C40.4169 21.6596 40.368 21.8363 40.25 21.9783C40.135 22.1203 39.9623 22.2014 39.7811 22.2014Z" fill="#FF9D28"/>
<path d="M38.3956 16.8151C38.5653 16.8151 38.7322 16.9049 38.8214 17.0817L39.2933 18.0435C39.3623 18.1856 39.4947 18.2811 39.6501 18.3044L40.7031 18.4579C41.0916 18.5159 41.2469 18.9968 40.9649 19.272L40.2025 20.0195C40.0903 20.1296 40.0413 20.2861 40.0672 20.4426L40.2486 21.5001C40.3003 21.8072 40.0586 22.0593 39.7824 22.0593C39.7105 22.0593 39.6357 22.0419 39.5608 22.0042L38.62 21.5059C38.551 21.4682 38.4761 21.4508 38.3984 21.4508C38.3236 21.4508 38.2459 21.4682 38.1769 21.5059L37.2361 22.0042C37.1641 22.0419 37.0893 22.0593 37.0145 22.0593C36.7383 22.0593 36.4966 21.8101 36.5484 21.5001L36.7297 20.4426C36.7556 20.289 36.7038 20.1296 36.5945 20.0195L35.832 19.272C35.55 18.9968 35.7054 18.5159 36.0938 18.4579L37.1469 18.3044C37.3023 18.2811 37.4346 18.1856 37.5037 18.0435L37.9755 17.0817C38.059 16.9049 38.2287 16.8151 38.3956 16.8151ZM38.3956 16.5254C38.1049 16.5254 37.8431 16.6905 37.7137 16.9541L37.2418 17.9161C37.2159 17.9712 37.1612 18.0088 37.1009 18.0175L36.0478 18.171C35.7601 18.2145 35.5241 18.4145 35.4321 18.6926C35.3429 18.9707 35.4148 19.272 35.6248 19.4777L36.3873 20.2253C36.4304 20.2687 36.4506 20.3296 36.442 20.3905L36.2607 21.448C36.2233 21.671 36.2837 21.897 36.4276 22.0708C36.5743 22.2447 36.7872 22.3461 37.0116 22.3461C37.1354 22.3461 37.2533 22.3172 37.3655 22.2563L38.3064 21.7579C38.3323 21.7435 38.364 21.7376 38.3927 21.7376C38.4215 21.7376 38.4531 21.7464 38.479 21.7579L39.4199 22.2563C39.5321 22.3143 39.6501 22.3461 39.7738 22.3461C39.9981 22.3461 40.2111 22.2447 40.3579 22.0708C40.5017 21.8999 40.5621 21.671 40.5247 21.448L40.3435 20.3905C40.332 20.3296 40.3521 20.2687 40.3982 20.2253L41.1606 19.4777C41.3706 19.272 41.4426 18.9707 41.3534 18.6926C41.2642 18.4145 41.0282 18.2116 40.7376 18.171L39.6846 18.0175C39.6242 18.0088 39.5724 17.9712 39.5436 17.9161L39.0717 16.9541C38.9509 16.6905 38.6891 16.5254 38.3956 16.5254Z" fill="#FF9D28"/>
<path d="M32.5836 22.2014C32.4829 22.2014 32.388 22.1783 32.2959 22.129L31.3523 21.6307C31.3062 21.6046 31.2516 21.593 31.1998 21.593C31.1479 21.593 31.0933 21.6075 31.0472 21.6307L30.1035 22.129C30.0114 22.1783 29.9165 22.2014 29.8158 22.2014C29.6345 22.2014 29.4619 22.1203 29.3411 21.9783C29.2231 21.8363 29.1742 21.6567 29.2059 21.4742L29.3842 20.4167C29.4015 20.3095 29.367 20.1994 29.2893 20.124L28.5268 19.3765C28.3571 19.2114 28.2966 18.9651 28.3714 18.7391C28.4433 18.5131 28.6362 18.3509 28.8692 18.3161L29.9223 18.1625C30.0287 18.1481 30.1237 18.0785 30.1697 17.98L30.6416 17.0181C30.7452 16.8037 30.9581 16.6704 31.194 16.6704C31.4299 16.6704 31.6428 16.8037 31.7464 17.0181L32.2183 17.98C32.2672 18.0785 32.3593 18.1452 32.4657 18.1625L33.5188 18.3161C33.7519 18.3509 33.9446 18.5131 34.0165 18.7391C34.0885 18.9651 34.0309 19.2114 33.8612 19.3765L33.0987 20.124C33.021 20.1994 32.9864 20.3095 33.0037 20.4167L33.1821 21.4742C33.2138 21.6596 33.1648 21.8363 33.0469 21.9783C32.9376 22.1203 32.765 22.2014 32.5836 22.2014Z" fill="#FF9D28"/>
<path d="M31.2015 16.8151C31.3713 16.8151 31.5382 16.905 31.6274 17.0817L32.0992 18.0436C32.1683 18.1856 32.3007 18.2812 32.456 18.3044L33.5091 18.4579C33.8975 18.5159 34.0528 18.9968 33.7709 19.2721L33.0084 20.0195C32.8962 20.1296 32.8473 20.2861 32.8732 20.4426L33.0545 21.5001C33.1063 21.8072 32.8646 22.0593 32.5884 22.0593C32.5164 22.0593 32.4416 22.0419 32.3668 22.0042L31.426 21.5059C31.3569 21.4683 31.2821 21.4508 31.2044 21.4508C31.1296 21.4508 31.0519 21.4683 30.9828 21.5059L30.042 22.0042C29.9701 22.0419 29.8953 22.0593 29.8205 22.0593C29.5443 22.0593 29.3026 21.8101 29.3544 21.5001L29.5357 20.4426C29.5615 20.289 29.5097 20.1296 29.4004 20.0195L28.638 19.2721C28.356 18.9968 28.5114 18.5159 28.8998 18.4579L29.9528 18.3044C30.1082 18.2812 30.2405 18.1856 30.3096 18.0436L30.7815 17.0817C30.8649 16.905 31.0347 16.8151 31.2015 16.8151ZM31.2015 16.5254C30.911 16.5254 30.6491 16.6905 30.5197 16.9513L30.0478 17.9132C30.0219 17.9682 29.9672 18.006 29.9068 18.0146L28.8537 18.1682C28.566 18.2117 28.3301 18.4115 28.238 18.6897C28.1459 18.9679 28.2208 19.2692 28.4308 19.4749L29.1933 20.2224C29.2364 20.2659 29.2565 20.3267 29.2479 20.3875L29.0695 21.448C29.0321 21.671 29.0926 21.897 29.2364 22.0709C29.3831 22.2447 29.5961 22.3461 29.8205 22.3461C29.9442 22.3461 30.0622 22.3172 30.1744 22.2563L31.1152 21.758C31.1411 21.7435 31.1728 21.7377 31.2015 21.7377C31.2303 21.7377 31.262 21.7464 31.2879 21.758L32.2287 22.2563C32.3409 22.3143 32.4589 22.3461 32.5826 22.3461C32.807 22.3461 33.0199 22.2447 33.1667 22.0709C33.3106 21.8999 33.3709 21.671 33.3336 21.448L33.1523 20.3905C33.1408 20.3296 33.161 20.2688 33.207 20.2253L33.9694 19.4778C34.1795 19.2721 34.2514 18.9707 34.1622 18.6926C34.073 18.4145 33.8371 18.2117 33.5465 18.1711L32.4935 18.0175C32.433 18.0089 32.3812 17.9712 32.3524 17.9161L31.8805 16.9542C31.7568 16.6905 31.495 16.5254 31.2015 16.5254Z" fill="#FF9D28"/>
<path d="M25.3894 22.2014C25.2887 22.2014 25.1937 22.1783 25.1017 22.129L24.1608 21.6307C24.1148 21.6046 24.0601 21.593 24.0084 21.593C23.9565 21.593 23.9019 21.6075 23.8559 21.6307L22.9122 22.129C22.82 22.1783 22.7252 22.2014 22.6244 22.2014C22.4432 22.2014 22.2705 22.1203 22.1497 21.9783C22.0317 21.8363 21.9828 21.6567 22.0144 21.4742L22.1928 20.4167C22.2101 20.3095 22.1756 20.1994 22.0979 20.124L21.3355 19.3765C21.1657 19.2114 21.1052 18.9651 21.18 18.7391C21.252 18.5131 21.4448 18.3509 21.6778 18.3161L22.7309 18.1625C22.8374 18.1481 22.9323 18.0785 22.9783 17.98L23.4502 17.0181C23.5537 16.8037 23.7667 16.6704 24.0026 16.6704C24.2386 16.6704 24.4514 16.8037 24.555 17.0181L25.0269 17.98C25.0758 18.0785 25.1679 18.1452 25.2743 18.1625L26.3274 18.3161C26.5605 18.3509 26.7532 18.5131 26.8251 18.7391C26.8971 18.9651 26.8395 19.2114 26.6698 19.3765L25.9073 20.124C25.8296 20.1994 25.7951 20.3095 25.8124 20.4167L25.9936 21.4742C26.0252 21.6596 25.9764 21.8363 25.8584 21.9783C25.7433 22.1203 25.5707 22.2014 25.3894 22.2014Z" fill="#FF9D28"/>
<path d="M24.005 16.8151C24.1747 16.8151 24.3416 16.9049 24.4308 17.0817L24.9026 18.0435C24.9717 18.1856 25.1041 18.2811 25.2594 18.3044L26.3125 18.4579C26.7009 18.5159 26.8563 18.9968 26.5743 19.272L25.8118 20.0195C25.6997 20.1296 25.6507 20.2861 25.6767 20.4426L25.8579 21.5001C25.9097 21.8072 25.668 22.0593 25.3918 22.0593C25.3199 22.0593 25.2451 22.0419 25.1703 22.0042L24.2294 21.5059C24.1603 21.4682 24.0855 21.4508 24.0079 21.4508C23.9331 21.4508 23.8554 21.4682 23.7863 21.5059L22.8455 22.0042C22.7735 22.0419 22.6987 22.0593 22.6239 22.0593C22.3477 22.0593 22.106 21.8101 22.1578 21.5001L22.3391 20.4426C22.365 20.289 22.3132 20.1296 22.2038 20.0195L21.4414 19.272C21.1594 18.9968 21.3148 18.5159 21.7032 18.4579L22.7562 18.3044C22.9116 18.2811 23.044 18.1856 23.113 18.0435L23.5849 17.0817C23.6683 16.9049 23.8352 16.8151 24.005 16.8151ZM24.005 16.5254C23.7144 16.5254 23.4526 16.6905 23.3231 16.9541L22.8512 17.9161C22.8253 17.9712 22.7707 18.0088 22.7102 18.0175L21.6572 18.171C21.3694 18.2145 21.1335 18.4145 21.0414 18.6926C20.9523 18.9707 21.0242 19.272 21.2342 19.4777L21.9967 20.2253C22.0399 20.2687 22.06 20.3296 22.0513 20.3905L21.8701 21.448C21.8327 21.671 21.8931 21.897 22.037 22.0708C22.1837 22.2447 22.3966 22.3461 22.6211 22.3461C22.7448 22.3461 22.8627 22.3172 22.9749 22.2563L23.9158 21.7579C23.9417 21.7435 23.9733 21.7376 24.0021 21.7376C24.0309 21.7376 24.0625 21.7464 24.0884 21.7579L25.0293 22.2563C25.1415 22.3143 25.2594 22.3461 25.3832 22.3461C25.6076 22.3461 25.8205 22.2447 25.9672 22.0708C26.1111 21.8999 26.1716 21.671 26.1341 21.448L25.9557 20.3905C25.9442 20.3296 25.9644 20.2687 26.0104 20.2253L26.7728 19.4777C26.9829 19.272 27.0548 18.9707 26.9656 18.6926C26.8764 18.4145 26.6405 18.2145 26.3499 18.171L25.2968 18.0175C25.2364 18.0088 25.1846 17.9712 25.1558 17.9161L24.684 16.9541C24.5574 16.6905 24.2956 16.5254 24.005 16.5254Z" fill="#FF9D28"/>
<path d="M58.5234 5.85156V22.1925" stroke="#68C5ED" stroke-width="0.263999" stroke-miterlimit="10" stroke-linecap="round"/>
</g>
</svg>
