<svg width="16" height="16" viewBox="0 0 16 16" fill="none" xmlns="http://www.w3.org/2000/svg">
<g id="ui/home-line">
<path id="Icon" d="M5.33333 11.3333H10.6667M7.34513 1.84268L2.82359 5.35944C2.52135 5.59452 2.37022 5.71206 2.26135 5.85926C2.16491 5.98965 2.09307 6.13654 2.04935 6.29272C2 6.46903 2 6.66048 2 7.04339V11.8667C2 12.6134 2 12.9868 2.14532 13.272C2.27316 13.5229 2.47713 13.7269 2.72801 13.8547C3.01323 14 3.3866 14 4.13333 14H11.8667C12.6134 14 12.9868 14 13.272 13.8547C13.5229 13.7269 13.7268 13.5229 13.8547 13.272C14 12.9868 14 12.6134 14 11.8667V7.04339C14 6.66048 14 6.46903 13.9506 6.29272C13.9069 6.13654 13.8351 5.98965 13.7386 5.85926C13.6298 5.71206 13.4787 5.59452 13.1764 5.35944L8.65487 1.84269C8.42065 1.66052 8.30354 1.56943 8.17423 1.53442C8.06013 1.50353 7.93987 1.50353 7.82577 1.53442C7.69646 1.56943 7.57935 1.66052 7.34513 1.84268Z" stroke="#B6B1AD" stroke-width="1.33333" stroke-linecap="round" stroke-linejoin="round"/>
</g>
</svg>
