<svg width="16" height="16" viewBox="0 0 16 16" fill="none" xmlns="http://www.w3.org/2000/svg">
<g id="ui/phone-01">
<path id="Icon" d="M8 11.6667H8.00667M5.46667 14.6667H10.5333C11.2801 14.6667 11.6534 14.6667 11.9387 14.5213C12.1895 14.3935 12.3935 14.1895 12.5213 13.9387C12.6667 13.6534 12.6667 13.2801 12.6667 12.5333V3.46667C12.6667 2.71993 12.6667 2.34656 12.5213 2.06135C12.3935 1.81047 12.1895 1.60649 11.9387 1.47866C11.6534 1.33334 11.2801 1.33334 10.5333 1.33334H5.46667C4.71993 1.33334 4.34656 1.33334 4.06135 1.47866C3.81046 1.60649 3.60649 1.81047 3.47866 2.06135C3.33333 2.34656 3.33333 2.71993 3.33333 3.46667V12.5333C3.33333 13.2801 3.33333 13.6534 3.47866 13.9387C3.60649 14.1895 3.81046 14.3935 4.06135 14.5213C4.34656 14.6667 4.71993 14.6667 5.46667 14.6667ZM8.33333 11.6667C8.33333 11.8508 8.18409 12 8 12C7.8159 12 7.66667 11.8508 7.66667 11.6667C7.66667 11.4826 7.8159 11.3333 8 11.3333C8.18409 11.3333 8.33333 11.4826 8.33333 11.6667Z" stroke="#B6B1AD" stroke-width="1.33333" stroke-linecap="round" stroke-linejoin="round"/>
</g>
</svg>
