<svg width="20" height="21" viewBox="0 0 20 21" fill="none" xmlns="http://www.w3.org/2000/svg">
<g id="ui/phone-01">
<path id="Icon" d="M10.0013 15.1051H10.0096M6.83464 18.8551H13.168C14.1014 18.8551 14.5681 18.8551 14.9246 18.6735C15.2382 18.5137 15.4932 18.2587 15.653 17.9451C15.8346 17.5886 15.8346 17.1219 15.8346 16.1885V4.85514C15.8346 3.92172 15.8346 3.45501 15.653 3.09849C15.4932 2.78489 15.2382 2.52992 14.9246 2.37013C14.5681 2.18848 14.1014 2.18848 13.168 2.18848H6.83464C5.90121 2.18848 5.4345 2.18848 5.07798 2.37013C4.76438 2.52992 4.50941 2.78489 4.34962 3.09849C4.16797 3.45501 4.16797 3.92172 4.16797 4.85514V16.1885C4.16797 17.1219 4.16797 17.5886 4.34962 17.9451C4.50941 18.2587 4.76438 18.5137 5.07798 18.6735C5.4345 18.8551 5.90121 18.8551 6.83464 18.8551ZM10.418 15.1051C10.418 15.3353 10.2314 15.5218 10.0013 15.5218C9.77118 15.5218 9.58464 15.3353 9.58464 15.1051C9.58464 14.875 9.77118 14.6885 10.0013 14.6885C10.2314 14.6885 10.418 14.875 10.418 15.1051Z" stroke="black" stroke-width="1.33333" stroke-linecap="round" stroke-linejoin="round"/>
</g>
</svg>
