<svg width="20" height="21" viewBox="0 0 20 21" fill="none" xmlns="http://www.w3.org/2000/svg">
<g id="ui/home-line">
<path id="Icon" d="M6.66667 14.6887H13.3333M9.18141 2.82543L3.52949 7.22137C3.15168 7.51522 2.96278 7.66214 2.82669 7.84614C2.70614 8.00913 2.61633 8.19275 2.56169 8.38797C2.5 8.60836 2.5 8.84768 2.5 9.32631V15.3554C2.5 16.2888 2.5 16.7555 2.68166 17.1121C2.84144 17.4257 3.09641 17.6806 3.41002 17.8404C3.76654 18.0221 4.23325 18.0221 5.16667 18.0221H14.8333C15.7668 18.0221 16.2335 18.0221 16.59 17.8404C16.9036 17.6806 17.1586 17.4257 17.3183 17.1121C17.5 16.7555 17.5 16.2888 17.5 15.3554V9.32631C17.5 8.84768 17.5 8.60836 17.4383 8.38797C17.3837 8.19275 17.2939 8.00913 17.1733 7.84614C17.0372 7.66214 16.8483 7.51522 16.4705 7.22137L10.8186 2.82543C10.5258 2.59772 10.3794 2.48386 10.2178 2.4401C10.0752 2.40148 9.92484 2.40148 9.78221 2.4401C9.62057 2.48386 9.47418 2.59772 9.18141 2.82543Z" stroke="black" stroke-width="1.33333" stroke-linecap="round" stroke-linejoin="round"/>
</g>
</svg>
