<svg width="73" height="72" viewBox="0 0 73 72" fill="none" xmlns="http://www.w3.org/2000/svg">
<g filter="url(#filter0_d_810_3791)">
<g clip-path="url(#clip0_810_3791)">
<path d="M36.5 59.7139C51.1356 59.7139 63 47.8494 63 33.2139C63 18.5783 51.1356 6.71387 36.5 6.71387C21.8645 6.71387 10 18.5783 10 33.2139C10 47.8494 21.8645 59.7139 36.5 59.7139Z" fill="#F0F0F0"/>
<path d="M35.3477 33.2139H62.9998C62.9998 30.822 62.681 28.5049 62.0869 26.3008H35.3477V33.2139Z" fill="#D80027"/>
<path d="M35.3477 19.3877H59.1103C57.4881 16.7406 55.414 14.4008 52.9956 12.4746H35.3477V19.3877Z" fill="#D80027"/>
<path d="M36.4997 59.714C42.7365 59.714 48.4688 57.5584 52.9956 53.9531H20.0039C24.5306 57.5584 30.263 59.714 36.4997 59.714Z" fill="#D80027"/>
<path d="M13.8907 47.04H59.1117C60.414 44.915 61.424 42.5921 62.0883 40.127H10.9141C11.5783 42.5921 12.5883 44.915 13.8907 47.04Z" fill="#D80027"/>
<path d="M22.2753 10.8522H24.6902L22.4439 12.4841L23.302 15.1247L21.0558 13.4928L18.8096 15.1247L19.5508 12.8435C17.573 14.491 15.8395 16.4211 14.411 18.5718H15.1848L13.7549 19.6106C13.5322 19.9822 13.3185 20.3597 13.1137 20.7428L13.7965 22.8443L12.5227 21.9188C12.206 22.5896 11.9164 23.2756 11.656 23.9759L12.4083 26.2914H15.1848L12.9385 27.9233L13.7965 30.5639L11.5504 28.9319L10.2049 29.9095C10.0702 30.9921 10 32.0948 10 33.2139H36.5C36.5 18.5784 36.5 16.853 36.5 6.71387C31.265 6.71387 26.385 8.23244 22.2753 10.8522ZM23.302 30.5639L21.0558 28.9319L18.8096 30.5639L19.6676 27.9233L17.4213 26.2914H20.1978L21.0558 23.6508L21.9137 26.2914H24.6902L22.4439 27.9233L23.302 30.5639ZM22.4439 20.2037L23.302 22.8443L21.0558 21.2124L18.8096 22.8443L19.6676 20.2037L17.4213 18.5718H20.1978L21.0558 15.9312L21.9137 18.5718H24.6902L22.4439 20.2037ZM32.8074 30.5639L30.5612 28.9319L28.315 30.5639L29.1731 27.9233L26.9268 26.2914H29.7033L30.5612 23.6508L31.4191 26.2914H34.1956L31.9494 27.9233L32.8074 30.5639ZM31.9494 20.2037L32.8074 22.8443L30.5612 21.2124L28.315 22.8443L29.1731 20.2037L26.9268 18.5718H29.7033L30.5612 15.9312L31.4191 18.5718H34.1956L31.9494 20.2037ZM31.9494 12.4841L32.8074 15.1247L30.5612 13.4928L28.315 15.1247L29.1731 12.4841L26.9268 10.8522H29.7033L30.5612 8.21163L31.4191 10.8522H34.1956L31.9494 12.4841Z" fill="#0052B4"/>
</g>
</g>
<defs>
<filter id="filter0_d_810_3791" x="0.67" y="0.0538673" width="71.66" height="71.66" filterUnits="userSpaceOnUse" color-interpolation-filters="sRGB">
<feFlood flood-opacity="0" result="BackgroundImageFix"/>
<feColorMatrix in="SourceAlpha" type="matrix" values="0 0 0 0 0 0 0 0 0 0 0 0 0 0 0 0 0 0 127 0" result="hardAlpha"/>
<feOffset dy="2.67"/>
<feGaussianBlur stdDeviation="4.665"/>
<feComposite in2="hardAlpha" operator="out"/>
<feColorMatrix type="matrix" values="0 0 0 0 0 0 0 0 0 0 0 0 0 0 0 0 0 0 0.16 0"/>
<feBlend mode="normal" in2="BackgroundImageFix" result="effect1_dropShadow_810_3791"/>
<feBlend mode="normal" in="SourceGraphic" in2="effect1_dropShadow_810_3791" result="shape"/>
</filter>
<clipPath id="clip0_810_3791">
<rect x="10" y="6.71387" width="53" height="53" rx="26.5" fill="white"/>
</clipPath>
</defs>
</svg>
