<svg width="179" height="78" viewBox="0 0 179 78" fill="none" xmlns="http://www.w3.org/2000/svg">
<path d="M87.3155 35.8455C87.3971 35.3979 87.4786 34.9505 87.5601 34.5034C87.6014 34.2738 87.6119 34.264 87.8656 34.264C88.7727 34.264 89.6798 34.264 90.5867 34.264C90.7923 34.264 90.8157 34.2848 90.8157 34.4658C90.8157 39.4212 90.8157 44.3765 90.8157 49.3314C90.8157 49.5027 90.7892 49.5262 90.594 49.5262H87.1288C86.9121 49.5262 86.8823 49.5004 86.8823 49.3068V44.0867L86.8364 44.0618C86.8263 44.0862 86.8134 44.1099 86.7981 44.1323C86.0652 45.0002 85.0731 45.4759 83.8846 45.6284C82.8797 45.7576 81.8912 45.6823 80.9423 45.3414C79.7208 44.9042 78.9106 44.0978 78.4049 43.0277C78.0779 42.3357 77.9103 41.6094 77.8452 40.8633C77.7436 39.6969 77.8027 38.541 78.1658 37.4107C78.5094 36.3442 79.1089 35.4275 80.1445 34.7767C80.8049 34.3616 81.5451 34.1257 82.3401 34.033C83.3533 33.9153 84.3554 33.9511 85.3172 34.2976C86.0873 34.5702 86.7381 35.0587 87.1721 35.6901C87.2089 35.743 87.2464 35.7955 87.2835 35.848L87.3155 35.8455ZM86.9303 39.8355L86.9762 39.8301C86.9075 39.3823 86.8612 38.9302 86.7637 38.4873C86.6686 38.0146 86.4201 37.5776 86.0492 37.2306C85.5183 36.7421 84.8515 36.5859 84.1122 36.5912C83.0129 36.5994 82.2545 37.0682 81.883 37.9968C81.6206 38.6531 81.5807 39.3359 81.5955 40.0234C81.6082 40.6066 81.6793 41.1821 81.9238 41.7304C82.134 42.2008 82.4574 42.586 82.9745 42.8148C84.4589 43.471 86.1669 42.8238 86.6775 41.4175C86.864 40.9027 86.9317 40.374 86.9303 39.8355Z" fill="#080A27"/>
<path d="M129.927 34.2726C129.708 34.5026 129.511 34.7094 129.314 34.9156C128.02 36.2702 126.725 37.6251 125.431 38.9803C125.247 39.1703 125.247 39.2378 125.407 39.447L129.81 45.1416C129.861 45.2077 129.911 45.2741 129.975 45.3585C129.902 45.3623 129.854 45.3663 129.806 45.3663C128.55 45.3663 127.293 45.3635 126.036 45.3692C125.761 45.3692 125.568 45.2769 125.414 45.0739C124.537 43.9181 123.657 42.7643 122.773 41.6126C122.745 41.5758 122.714 41.5408 122.676 41.4945C122.638 41.5257 122.604 41.5503 122.575 41.5766C122.135 42.0088 121.696 42.4428 121.253 42.8731C121.218 42.9048 121.191 42.9426 121.173 42.9843C121.154 43.0259 121.146 43.0704 121.148 43.115C121.152 43.7955 121.15 44.4763 121.148 45.1568C121.148 45.3389 121.12 45.3646 120.922 45.3646C119.777 45.3646 118.632 45.3646 117.487 45.3646C117.285 45.3646 117.258 45.3413 117.258 45.1597C117.258 40.0865 117.258 35.0133 117.258 29.9397C117.258 29.7502 117.282 29.7289 117.494 29.7289H120.929C121.147 29.7289 121.166 29.7445 121.164 29.9368C121.15 31.6244 121.135 33.3122 121.118 35.0002C121.107 36.3019 121.094 37.604 121.08 38.906C121.08 39.0291 121.08 39.1545 121.08 39.3096C121.132 39.2584 121.163 39.2313 121.19 39.2014C122.613 37.6299 124.036 36.0576 125.459 34.4845C125.589 34.341 125.747 34.2594 125.954 34.2594C127.241 34.2594 128.528 34.2594 129.815 34.2594C129.842 34.264 129.866 34.2676 129.927 34.2726Z" fill="#080A27"/>
<path d="M66.76 36.2414C66.9624 35.9952 67.1338 35.7594 67.3361 35.5473C68.3016 34.5363 69.5543 34.056 71.0176 33.9851C71.6458 33.9475 72.2767 33.9977 72.8878 34.1336C74.3749 34.4777 75.3005 35.335 75.7232 36.6454C75.8875 37.161 75.9698 37.6949 75.9678 38.2311C75.9715 40.5366 75.9715 42.8423 75.9678 45.1478C75.9678 45.355 75.9532 45.3681 75.7136 45.3681H72.2785C72.0496 45.3681 72.0303 45.3489 72.0309 45.1389C72.0309 43.2464 72.0309 41.3537 72.0309 39.4611C72.0309 39.0382 71.9822 38.6182 71.8398 38.2118C71.6163 37.5732 71.1528 37.1806 70.3998 37.076C69.8173 36.994 69.2452 37.0215 68.6996 37.2332C67.9174 37.5366 67.4781 38.103 67.2798 38.8192C67.1823 39.1666 67.1301 39.523 67.1246 39.8811C67.109 41.6284 67.1172 43.376 67.1172 45.1232C67.1172 45.3575 67.1053 45.3693 66.8424 45.3693H63.4211C63.198 45.3693 63.1719 45.3476 63.1719 45.154C63.1719 41.5993 63.1719 38.0457 63.1719 34.4932C63.1719 34.2919 63.2022 34.2653 63.4252 34.2653C64.3528 34.2653 65.2803 34.2653 66.2076 34.2653C66.4265 34.2653 66.4458 34.2809 66.4774 34.4757C66.569 35.0573 66.6629 35.6405 66.76 36.2414Z" fill="#080A27"/>
<path d="M57.0851 43.5289C56.9248 43.7307 56.7906 43.9169 56.6368 44.0888C55.99 44.8098 55.1597 45.2783 54.1634 45.5121C53.0483 45.776 51.8718 45.7475 50.7742 45.43C49.4291 45.0486 48.5848 44.2156 48.1814 43.0146C48.0106 42.4911 47.9265 41.948 47.9318 41.4028C47.929 39.0977 47.929 36.7926 47.9318 34.4875C47.9318 34.2825 47.9542 34.2623 48.1846 34.2623H51.6046C51.8538 34.2623 51.8679 34.2754 51.8679 34.5043C51.8679 36.4321 51.861 38.3598 51.8743 40.29C51.8723 40.6749 51.9183 41.0589 52.0117 41.4348C52.2485 42.3313 52.9223 42.7853 53.9514 42.798C55.2825 42.814 56.2195 42.1632 56.5392 40.9688C56.6306 40.6293 56.6787 40.2818 56.6826 39.9327C56.6967 38.1178 56.689 36.3028 56.6894 34.4879C56.6894 34.2829 56.7123 34.2627 56.9427 34.2627H60.332C60.5812 34.2627 60.6068 34.2829 60.6068 34.4994C60.6068 38.0565 60.6068 41.6139 60.6068 45.1716C60.6068 45.3356 60.5724 45.3669 60.3811 45.3669C59.4489 45.3669 58.5165 45.3669 57.584 45.3669C57.4396 45.3669 57.3765 45.3225 57.3572 45.1913C57.2826 44.6831 57.1978 44.1765 57.1163 43.6692C57.1103 43.6324 57.0989 43.5929 57.0851 43.5289Z" fill="#080A27"/>
<path d="M99.1733 33.9773C100.171 33.9794 101.156 34.0688 102.105 34.3579C103.708 34.8452 104.774 35.8168 105.244 37.27C105.785 38.9372 105.799 40.6238 105.237 42.289C104.701 43.8763 103.508 44.914 101.729 45.3676C99.9272 45.8278 98.1102 45.8189 96.3189 45.3266C94.5638 44.8452 93.4431 43.7681 92.9521 42.1963C92.48 40.7075 92.4641 39.1325 92.9063 37.6363C93.4457 35.7905 94.7942 34.6634 96.8517 34.2028C97.6147 34.0318 98.3901 33.9744 99.1733 33.9773ZM96.3245 39.8121C96.3245 40.3671 96.3656 40.9196 96.532 41.4565C96.8067 42.344 97.4172 42.9173 98.4616 43.0417C98.8479 43.088 99.239 43.0934 99.6268 43.0581C100.715 42.9564 101.374 42.4367 101.672 41.4917C101.815 41.018 101.887 40.5298 101.888 40.0393C101.9 39.3519 101.868 38.6681 101.618 38.0095C101.334 37.2614 100.763 36.7943 99.8846 36.6752C99.4991 36.6238 99.1088 36.6086 98.7198 36.6302C97.5001 36.6982 96.7838 37.2528 96.4966 38.3117C96.3611 38.8059 96.3281 39.3077 96.3245 39.8121Z" fill="#080A27"/>
<path d="M111.211 36.4173C111.463 36.0154 111.729 35.6421 112.067 35.3128C112.978 34.4252 114.114 33.992 115.457 33.9785C115.626 33.9785 115.656 34.0073 115.658 34.1647C115.666 35.1311 115.673 36.0974 115.679 37.0638C115.679 37.3098 115.665 37.3171 115.396 37.3098C114.72 37.2914 114.061 37.3607 113.443 37.6281C112.555 38.0116 112.053 38.6715 111.785 39.496C111.636 39.9635 111.562 40.4477 111.566 40.9339C111.566 42.2995 111.566 43.6651 111.566 45.0309C111.566 45.09 111.566 45.149 111.566 45.2081C111.566 45.3205 111.506 45.3722 111.377 45.3688C111.083 45.3648 110.789 45.3688 110.495 45.3688H107.866C107.648 45.3688 107.625 45.3501 107.625 45.1639C107.625 41.6064 107.625 38.049 107.625 34.4917C107.625 34.2865 107.648 34.2661 107.878 34.2661H110.659C110.872 34.2661 110.892 34.2788 110.92 34.467C111.01 35.0686 111.099 35.671 111.186 36.2746C111.192 36.3209 111.203 36.3689 111.211 36.4173Z" fill="#080A27"/>
</svg>
