<svg width="24" height="18" viewBox="0 0 24 18" fill="none" xmlns="http://www.w3.org/2000/svg">
<path d="M23.7609 4.35142C23.7609 4.35142 23.5266 2.69673 22.8047 1.97017C21.8906 1.01392 20.8688 1.00923 20.4 0.952978C17.0438 0.709228 12.0047 0.709229 12.0047 0.709229H11.9953C11.9953 0.709229 6.95625 0.709228 3.6 0.952978C3.13125 1.00923 2.10938 1.01392 1.19531 1.97017C0.473438 2.69673 0.24375 4.35142 0.24375 4.35142C0.24375 4.35142 0 6.29673 0 8.23735V10.0561C0 11.9967 0.239062 13.942 0.239062 13.942C0.239062 13.942 0.473437 15.5967 1.19062 16.3233C2.10469 17.2795 3.30469 17.2467 3.83906 17.3499C5.76094 17.5327 12 17.5889 12 17.5889C12 17.5889 17.0438 17.5795 20.4 17.3405C20.8688 17.2842 21.8906 17.2795 22.8047 16.3233C23.5266 15.5967 23.7609 13.942 23.7609 13.942C23.7609 13.942 24 12.0014 24 10.0561V8.23735C24 6.29673 23.7609 4.35142 23.7609 4.35142ZM9.52031 12.2639V5.5186L16.0031 8.90298L9.52031 12.2639Z" fill="#ACADC4"/>
</svg>
