<svg width="30" height="30" viewBox="0 0 30 30" fill="none" xmlns="http://www.w3.org/2000/svg">
<path d="M10.3125 18.75C13.678 18.75 16.4062 16.0217 16.4062 12.6562C16.4062 9.29076 13.678 6.5625 10.3125 6.5625C6.94701 6.5625 4.21875 9.29076 4.21875 12.6562C4.21875 16.0217 6.94701 18.75 10.3125 18.75Z" stroke="#02569C" stroke-width="1.5" stroke-linecap="round" stroke-linejoin="round"/>
<path d="M18.2109 6.78942C19.0491 6.55327 19.9281 6.49948 20.7888 6.63166C21.6495 6.76384 22.4719 7.07892 23.2005 7.55569C23.9292 8.03246 24.5472 8.65984 25.013 9.39558C25.4788 10.1313 25.7815 10.9583 25.9007 11.8209C26.02 12.6835 25.953 13.5616 25.7043 14.3961C25.4556 15.2306 25.0309 16.0021 24.459 16.6587C23.887 17.3153 23.1809 17.8417 22.3884 18.2024C21.5958 18.5631 20.7352 18.7498 19.8644 18.7499" stroke="#02569C" stroke-width="1.5" stroke-linecap="round" stroke-linejoin="round"/>
<path d="M1.875 23.1324C2.82672 21.7787 4.09019 20.6738 5.55873 19.911C7.02727 19.1483 8.65778 18.7501 10.3126 18.75C11.9674 18.7499 13.598 19.148 15.0666 19.9107C16.5352 20.6733 17.7987 21.7781 18.7505 23.1318" stroke="#02569C" stroke-width="1.5" stroke-linecap="round" stroke-linejoin="round"/>
<path d="M19.8672 18.75C21.5222 18.7488 23.153 19.1464 24.6218 19.9091C26.0905 20.6719 27.3538 21.7773 28.3047 23.1318" stroke="#02569C" stroke-width="1.5" stroke-linecap="round" stroke-linejoin="round"/>
</svg>
