<svg width="32" height="33" viewBox="0 0 32 33" fill="none" xmlns="http://www.w3.org/2000/svg">
<rect y="0.5" width="32" height="32" rx="8" fill="#174EE2"/>
<path fill-rule="evenodd" clip-rule="evenodd" d="M25.9358 20.2906C26.0691 19.9799 25.9906 19.6212 25.7389 19.3905C25.4872 19.1598 25.115 19.1055 24.8051 19.2543C23.7584 19.7567 22.5801 20.0393 21.3317 20.0393C16.9835 20.0393 13.4585 16.6036 13.4585 12.3654C13.4585 10.6496 14.0352 9.06751 15.0103 7.78997C15.2164 7.51994 15.2292 7.15366 15.0423 6.87065C14.8554 6.58764 14.5081 6.44722 14.1706 6.51822C9.50017 7.50066 6 11.5487 6 16.3954C6 21.976 10.6415 26.5 16.3672 26.5C20.6778 26.5 24.372 23.936 25.9358 20.2906Z" fill="white"/>
</svg>
