<svg width="70" height="70" viewBox="0 0 70 70" fill="none" xmlns="http://www.w3.org/2000/svg">
<rect width="70" height="70" rx="18" fill="black"/>
<path d="M27 58C31.1174 58 35 54.1174 35 50V43H27C22.8826 43 20 45.8826 20 50C20 54.1174 22.8826 58 27 58Z" fill="#0ACF83"/>
<path d="M20 35C20 30.8826 22.8826 28 27 28H35V43H27C22.8826 43 20 39.1174 20 35Z" fill="#A259FF"/>
<path d="M20 20C20 15.8826 22.8826 13 27 13H35V28H27C22.8826 28 20 24.1174 20 20Z" fill="#F24E1E"/>
<path d="M35 13H42C46.1174 13 50 15.8826 50 20C50 24.1174 46.1174 28 42 28H35V13Z" fill="#FF7262"/>
<path d="M50 35C50 39.1174 46.1174 43 42 43C37.8826 43 35 39.1174 35 35C35 30.8826 37.8826 28 42 28C46.1174 28 50 30.8826 50 35Z" fill="#1ABCFE"/>
</svg>
