<?xml version="1.0" standalone="no"?>
<!DOCTYPE svg PUBLIC "-//W3C//DTD SVG 20010904//EN"
 "http://www.w3.org/TR/2001/REC-SVG-20010904/DTD/svg10.dtd">
<svg version="1.0" xmlns="http://www.w3.org/2000/svg"
 width="32.000000pt" height="32.000000pt" viewBox="0 0 32.000000 32.000000"
 preserveAspectRatio="xMidYMid meet">

<g transform="translate(0.000000,32.000000) scale(0.100000,-0.100000)"
fill="#000000" stroke="none">
<path d="M50 307 c-28 -14 -54 -78 -44 -109 8 -28 24 -11 24 26 0 55 23 66
132 66 125 0 128 -3 128 -132 0 -109 -11 -128 -73 -128 -20 0 -37 -4 -37 -9 0
-16 32 -21 71 -11 54 15 69 48 69 150 0 91 -14 130 -55 148 -34 16 -183 15
-215 -1z"/>
<path d="M230 245 c0 -8 7 -15 15 -15 8 0 15 7 15 15 0 8 -7 15 -15 15 -8 0
-15 -7 -15 -15z"/>
<path d="M105 215 c-33 -33 -32 -70 4 -106 36 -36 73 -37 106 -4 50 49 15 135
-55 135 -19 0 -40 -9 -55 -25z m93 -17 c21 -21 14 -66 -12 -83 -28 -19 -58 -9
-76 26 -25 45 51 94 88 57z"/>
</g>
</svg>
