<svg width="32" height="32" viewBox="0 0 32 32" fill="none" xmlns="http://www.w3.org/2000/svg">
<rect width="32" height="32" rx="16" fill="white"/>
<path d="M27.2655 27.2658H22.5241V19.8405C22.5241 18.0698 22.4925 15.7905 20.0581 15.7905C17.5886 15.7905 17.2108 17.7197 17.2108 19.7116V27.2653H12.4695V11.9958H17.0211V14.0826H17.0849C17.5404 13.3037 18.1986 12.663 18.9895 12.2286C19.7803 11.7942 20.6742 11.5825 21.5759 11.616C26.3815 11.616 27.2675 14.777 27.2675 18.8892L27.2655 27.2658ZM7.1195 9.90871C5.59988 9.90896 4.36775 8.67721 4.3675 7.15758C4.36725 5.63796 5.59888 4.40583 7.1185 4.40558C8.63812 4.40521 9.87025 5.63696 9.8705 7.15658C9.87063 7.88634 9.58087 8.58626 9.06497 9.10238C8.54906 9.6185 7.84925 9.90854 7.1195 9.90871ZM9.49025 27.266H4.74388V11.9958H9.49012V27.2658L9.49025 27.266ZM29.6293 0.00220692H2.36137C1.07262 -0.0122931 0.01575 1.02008 0 2.30883V29.6905C0.01525 30.9798 1.072 32.0132 2.36125 31.9997H29.6293C30.9213 32.0157 31.9821 30.9823 32 29.6905V2.30671C31.9816 1.01546 30.9206 -0.0167931 29.6293 8.19162e-05" fill="#0A66C2"/>
</svg>
