<svg width="18" height="19" viewBox="0 0 18 19" fill="none" xmlns="http://www.w3.org/2000/svg">
<rect y="0.5" width="18" height="18" rx="9" fill="white"/>
<path d="M15.3368 15.837H12.6698V11.6602C12.6698 10.6642 12.652 9.38208 11.2827 9.38208C9.8936 9.38208 9.68105 10.4673 9.68105 11.5877V15.8367H7.01409V7.2476H9.57438V8.4214H9.61024C9.86647 7.98328 10.2367 7.62287 10.6816 7.37853C11.1264 7.1342 11.6292 7.0151 12.1364 7.03392C14.8396 7.03392 15.338 8.81198 15.338 11.1251L15.3368 15.837ZM4.00472 6.07359C3.14993 6.07373 2.45686 5.38088 2.45672 4.52609C2.45658 3.6713 3.14937 2.97823 4.00416 2.97809C4.85895 2.97788 5.55202 3.67073 5.55216 4.52552C5.55223 4.93601 5.38924 5.32972 5.09904 5.62003C4.80884 5.91035 4.41521 6.0735 4.00472 6.07359ZM5.33827 15.837H2.66843V7.2476H5.3382V15.837L5.33827 15.837ZM16.6665 0.501188H1.32827C0.603351 0.493032 0.00885938 1.07374 0 1.79866V17.2008C0.00857813 17.9261 0.603 18.5074 1.3282 18.4998H16.6665C17.3932 18.5088 17.9899 17.9275 18 17.2008V1.79747C17.9897 1.07114 17.3929 0.4905 16.6665 0.499993" fill="#0A66C2"/>
</svg>
