<svg width="73" height="72" viewBox="0 0 73 72" fill="none" xmlns="http://www.w3.org/2000/svg">
<g filter="url(#filter0_d_810_3916)">
<g clip-path="url(#clip0_810_3916)">
<path d="M36.5 59.7139C51.1356 59.7139 63 47.8494 63 33.2139C63 18.5783 51.1356 6.71387 36.5 6.71387C21.8645 6.71387 10 18.5783 10 33.2139C10 47.8494 21.8645 59.7139 36.5 59.7139Z" fill="#6DA544"/>
<path d="M36.5006 17.0835L58.3919 33.2139L36.5006 49.3443L14.6094 33.2139L36.5006 17.0835Z" fill="#FFDA44"/>
<path d="M36.4986 42.4313C41.5892 42.4313 45.7159 38.3045 45.7159 33.2139C45.7159 28.1233 41.5892 23.9966 36.4986 23.9966C31.408 23.9966 27.2812 28.1233 27.2812 33.2139C27.2812 38.3045 31.408 42.4313 36.4986 42.4313Z" fill="#F0F0F0"/>
<path d="M31.8909 32.6377C30.288 32.6377 28.7412 32.8815 27.2852 33.3338C27.3496 38.3688 31.4493 42.4312 36.4996 42.4312C39.6225 42.4312 42.3805 40.8767 44.0479 38.5009C41.1953 34.9299 36.8061 32.6377 31.8909 32.6377Z" fill="#0052B4"/>
<path d="M45.548 34.9799C45.6589 34.4081 45.7189 33.8181 45.7189 33.2139C45.7189 28.1232 41.5921 23.9966 36.5015 23.9966C32.7031 23.9966 29.4424 26.2947 28.0312 29.576C29.2786 29.3175 30.5701 29.1814 31.8929 29.1814C37.2464 29.1813 42.0895 31.4066 45.548 34.9799Z" fill="#0052B4"/>
</g>
</g>
<defs>
<filter id="filter0_d_810_3916" x="0.67" y="0.0538673" width="71.66" height="71.66" filterUnits="userSpaceOnUse" color-interpolation-filters="sRGB">
<feFlood flood-opacity="0" result="BackgroundImageFix"/>
<feColorMatrix in="SourceAlpha" type="matrix" values="0 0 0 0 0 0 0 0 0 0 0 0 0 0 0 0 0 0 127 0" result="hardAlpha"/>
<feOffset dy="2.67"/>
<feGaussianBlur stdDeviation="4.665"/>
<feComposite in2="hardAlpha" operator="out"/>
<feColorMatrix type="matrix" values="0 0 0 0 0 0 0 0 0 0 0 0 0 0 0 0 0 0 0.16 0"/>
<feBlend mode="normal" in2="BackgroundImageFix" result="effect1_dropShadow_810_3916"/>
<feBlend mode="normal" in="SourceGraphic" in2="effect1_dropShadow_810_3916" result="shape"/>
</filter>
<clipPath id="clip0_810_3916">
<rect x="10" y="6.71387" width="53" height="53" rx="26.5" fill="white"/>
</clipPath>
</defs>
</svg>
