<svg width="73" height="72" viewBox="0 0 73 72" fill="none" xmlns="http://www.w3.org/2000/svg">
<g filter="url(#filter0_d_810_3888)">
<g clip-path="url(#clip0_810_3888)">
<path d="M36.5 59.7139C51.1355 59.7139 63 47.8494 63 33.2139C63 18.5783 51.1355 6.71387 36.5 6.71387C21.8645 6.71387 10 18.5783 10 33.2139C10 47.8494 21.8645 59.7139 36.5 59.7139Z" fill="#D80027"/>
<path d="M24.5016 22.8418L26.7893 29.8809H34.1906L28.2074 34.2389L30.4951 41.2779L24.5016 36.9303L18.508 41.2779L20.8061 34.2389L14.8125 29.8809H22.2139L24.5016 22.8418Z" fill="#FFDA44"/>
<path d="M41.4178 47.7579L39.6684 45.6048L37.0805 46.6089L38.5814 44.2798L36.832 42.1163L39.5131 42.8306L41.0244 40.5015L41.1693 43.2757L43.8607 43.9899L41.2625 44.9837L41.4178 47.7579Z" fill="#FFDA44"/>
<path d="M44.8959 41.4435L45.724 38.7935L43.457 37.189L46.2312 37.1476L47.049 34.4976L47.9496 37.1269L50.7238 37.0958L48.4982 38.7521L49.3885 41.3813L47.1215 39.7769L44.8959 41.4435Z" fill="#FFDA44"/>
<path d="M49.5846 26.1647L48.3631 28.6595L50.3506 30.5952L47.6074 30.2019L46.3859 32.6862L45.9098 29.9534L43.1562 29.5601L45.6199 28.2661L45.1438 25.5229L47.1313 27.4587L49.5846 26.1647Z" fill="#FFDA44"/>
<path d="M41.49 18.6079L41.283 21.3718L43.8606 22.4173L41.1588 23.0798L40.9621 25.854L39.5025 23.4938L36.8008 24.1563L38.5916 22.0343L37.1217 19.6845L39.6992 20.73L41.49 18.6079Z" fill="#FFDA44"/>
</g>
</g>
<defs>
<filter id="filter0_d_810_3888" x="0.67" y="0.0538673" width="71.66" height="71.66" filterUnits="userSpaceOnUse" color-interpolation-filters="sRGB">
<feFlood flood-opacity="0" result="BackgroundImageFix"/>
<feColorMatrix in="SourceAlpha" type="matrix" values="0 0 0 0 0 0 0 0 0 0 0 0 0 0 0 0 0 0 127 0" result="hardAlpha"/>
<feOffset dy="2.67"/>
<feGaussianBlur stdDeviation="4.665"/>
<feComposite in2="hardAlpha" operator="out"/>
<feColorMatrix type="matrix" values="0 0 0 0 0 0 0 0 0 0 0 0 0 0 0 0 0 0 0.16 0"/>
<feBlend mode="normal" in2="BackgroundImageFix" result="effect1_dropShadow_810_3888"/>
<feBlend mode="normal" in="SourceGraphic" in2="effect1_dropShadow_810_3888" result="shape"/>
</filter>
<clipPath id="clip0_810_3888">
<rect x="10" y="6.71387" width="53" height="53" rx="26.5" fill="white"/>
</clipPath>
</defs>
</svg>
