<svg width="17" height="17" viewBox="0 0 17 17" fill="none" xmlns="http://www.w3.org/2000/svg">
<g filter="url(#filter0_d_657_6166)">
<path d="M14.5004 8.00021C14.5004 11.314 11.814 14.0004 8.50021 14.0004C5.18639 14.0004 2.5 11.314 2.5 8.00021C2.5 4.68639 5.18639 2 8.50021 2C11.814 2 14.5004 4.68639 14.5004 8.00021Z" fill="#0052B5"/>
<path d="M7.00016 5.30012V2.18903C7.24449 2.12615 7.49485 2.07826 7.75019 2.04642C7.99589 2.01578 8.24621 2 8.50021 2C8.75422 2 9.00454 2.01578 9.25024 2.04642C9.50558 2.07826 9.75594 2.12615 10.0003 2.18903V6.12515L12.5504 3.5731C12.8253 3.82472 13.2262 4.32662 13.4504 4.62509L11.5003 6.50016H14.3114C14.3743 6.74449 14.4222 6.99485 14.454 7.25019C14.4846 7.49589 14.5004 7.74621 14.5004 8.00021C14.5004 8.25422 14.4846 8.50454 14.454 8.75024C14.4222 9.00558 14.3743 9.25594 14.3114 9.50027H11.0503L13.3008 11.6003C12.9783 12.0297 12.5995 12.4145 12.1753 12.7436L10.0003 10.5503V13.8114C9.75594 13.8743 9.50558 13.9222 9.25024 13.954C9.00454 13.9846 8.75422 14.0004 8.50021 14.0004C8.24621 14.0004 7.99589 13.9846 7.75019 13.954C7.49485 13.9222 7.24449 13.8743 7.00016 13.8114L7.00016 9.95028L4.52507 12.4948C4.1894 12.1977 3.88726 11.8636 3.62504 11.4989L5.80012 9.50027H2.68903C2.62615 9.25594 2.57826 9.00558 2.54642 8.75024C2.51578 8.50454 2.5 8.25422 2.5 8.00021C2.5 7.74621 2.51578 7.49589 2.54642 7.25019C2.57826 6.99485 2.62615 6.74449 2.68903 6.50016H5.87512L3.70004 4.3995C4.03295 3.9564 4.42578 3.56089 4.86651 3.22501L7.00016 5.30012Z" fill="white"/>
<path d="M7.00016 6.50016L4.2618 3.75305C4.117 3.89755 3.97955 4.04941 3.85005 4.20802L6.25013 6.50016H7.00016Z" fill="#D90026"/>
<path d="M10.0003 6.50016L12.7386 3.75305C12.8834 3.89755 13.0209 4.04941 13.1504 4.20802L10.7503 6.50016H10.0003Z" fill="#D90026"/>
<path d="M10.0003 9.55177L12.7386 12.2989C12.8834 12.1544 13.0209 12.0025 13.1504 11.8439L10.7503 9.55177H10.0003Z" fill="#D90026"/>
<path d="M7.00016 9.55177L4.2618 12.2989C4.117 12.1544 3.97955 12.0025 3.85005 11.8439L6.25013 9.55177H7.00016Z" fill="#D90026"/>
<path d="M2.54642 7.25019C2.51578 7.49589 2.5 7.74621 2.5 8.00021C2.5 8.25422 2.51578 8.50454 2.54642 8.75024H7.75019V13.954C7.99589 13.9846 8.24621 14.0004 8.50021 14.0004C8.75422 14.0004 9.00454 13.9846 9.25024 13.954V8.75024H14.454C14.4846 8.50454 14.5004 8.25422 14.5004 8.00021C14.5004 7.74621 14.4846 7.49589 14.454 7.25019H9.25024V2.04642C8.95666 2.00226 8.80611 2 8.50021 2C8.24621 2 7.99589 2.01578 7.75019 2.04642V7.25019H2.54642Z" fill="#D90026"/>
</g>
<defs>
<filter id="filter0_d_657_6166" x="0.399925" y="0.499946" width="16.2002" height="16.2002" filterUnits="userSpaceOnUse" color-interpolation-filters="sRGB">
<feFlood flood-opacity="0" result="BackgroundImageFix"/>
<feColorMatrix in="SourceAlpha" type="matrix" values="0 0 0 0 0 0 0 0 0 0 0 0 0 0 0 0 0 0 127 0" result="hardAlpha"/>
<feOffset dy="0.600021"/>
<feGaussianBlur stdDeviation="1.05004"/>
<feComposite in2="hardAlpha" operator="out"/>
<feColorMatrix type="matrix" values="0 0 0 0 0 0 0 0 0 0 0 0 0 0 0 0 0 0 0.36 0"/>
<feBlend mode="normal" in2="BackgroundImageFix" result="effect1_dropShadow_657_6166"/>
<feBlend mode="normal" in="SourceGraphic" in2="effect1_dropShadow_657_6166" result="shape"/>
</filter>
</defs>
</svg>
