<svg width="16" height="17" viewBox="0 0 16 17" fill="none" xmlns="http://www.w3.org/2000/svg">
<path d="M14 3.83331C14 4.93788 11.3137 5.83331 8 5.83331C4.68629 5.83331 2 4.93788 2 3.83331M14 3.83331C14 2.72874 11.3137 1.83331 8 1.83331C4.68629 1.83331 2 2.72874 2 3.83331M14 3.83331V13.1666C14 14.2733 11.3333 15.1666 8 15.1666C4.66667 15.1666 2 14.2733 2 13.1666V3.83331M14 8.49998C14 9.60665 11.3333 10.5 8 10.5C4.66667 10.5 2 9.60665 2 8.49998" stroke="#F170F4" stroke-width="1.33333" stroke-linecap="round" stroke-linejoin="round"/>
</svg>
