<svg width="24" height="25" viewBox="0 0 24 25" fill="none" xmlns="http://www.w3.org/2000/svg">
<g id="Social icon" clip-path="url(#clip0_624_5099)">
<path id="Vector" d="M24 12.1514C24 5.52395 18.6274 0.151367 12 0.151367C5.37258 0.151367 0 5.52395 0 12.1514C0 18.1408 4.3882 23.1054 10.125 24.0056V15.6201H7.07812V12.1514H10.125V9.50762C10.125 6.50012 11.9166 4.83887 14.6576 4.83887C15.9701 4.83887 17.3438 5.07324 17.3438 5.07324V8.02637H15.8306C14.34 8.02637 13.875 8.95145 13.875 9.90137V12.1514H17.2031L16.6711 15.6201H13.875V24.0056C19.6118 23.1054 24 18.1408 24 12.1514Z" fill="#ACADC4"/>
</g>
<defs>
<clipPath id="clip0_624_5099">
<rect width="24" height="24" fill="white" transform="translate(0 0.151367)"/>
</clipPath>
</defs>
</svg>
