<svg width="23" height="21" viewBox="0 0 23 21" fill="none" xmlns="http://www.w3.org/2000/svg">
<path id="Icon" d="M12.5 9.25488H17.3C18.4201 9.25488 18.9802 9.25488 19.408 9.47287C19.7843 9.66462 20.0903 9.97058 20.282 10.3469C20.5 10.7747 20.5 11.3348 20.5 12.4549V19.2549M12.5 19.2549V4.45488C12.5 3.33478 12.5 2.77473 12.282 2.3469C12.0903 1.97058 11.7843 1.66462 11.408 1.47287C10.9802 1.25488 10.4201 1.25488 9.3 1.25488H5.7C4.5799 1.25488 4.01984 1.25488 3.59202 1.47287C3.21569 1.66462 2.90973 1.97058 2.71799 2.3469C2.5 2.77473 2.5 3.33478 2.5 4.45488V19.2549M21.5 19.2549H1.5M6 5.25488H9M6 9.25488H9M6 13.2549H9" stroke="#07BF82" stroke-width="1.5" stroke-linecap="round" stroke-linejoin="round"/>
</svg>
