<svg width="23" height="23" viewBox="0 0 23 23" fill="none" xmlns="http://www.w3.org/2000/svg">
<path id="Icon" d="M17.5 9.25488L14.0657 12.6892C13.8677 12.8872 13.7687 12.9862 13.6545 13.0233C13.5541 13.0559 13.4459 13.0559 13.3455 13.0233C13.2313 12.9862 13.1323 12.8872 12.9343 12.6892L10.0657 9.82057C9.86768 9.62256 9.76867 9.52356 9.65451 9.48646C9.55409 9.45383 9.44591 9.45383 9.34549 9.48646C9.23133 9.52356 9.13232 9.62256 8.93431 9.82057L5.5 13.2549M21.5 11.2549C21.5 16.7777 17.0228 21.2549 11.5 21.2549C5.97715 21.2549 1.5 16.7777 1.5 11.2549C1.5 5.73204 5.97715 1.25488 11.5 1.25488C17.0228 1.25488 21.5 5.73204 21.5 11.2549Z" stroke="#07BF82" stroke-width="1.5" stroke-linecap="round" stroke-linejoin="round"/>
</svg>
