<svg width="21" height="20" viewBox="0 0 21 20" fill="none" xmlns="http://www.w3.org/2000/svg">
<path id="Icon" d="M6.49865 7.75488H10.4986M6.49865 11.2549H13.4986M10.9986 18.2549C15.6931 18.2549 19.4986 14.4493 19.4986 9.75488C19.4986 5.06046 15.6931 1.25488 10.9986 1.25488C6.30423 1.25488 2.49865 5.06046 2.49865 9.75488C2.49865 10.7049 2.6545 11.6185 2.94202 12.4715C3.05022 12.7925 3.10432 12.953 3.11408 13.0763C3.12371 13.1981 3.11643 13.2835 3.0863 13.4018C3.0558 13.5217 2.98844 13.6464 2.85374 13.8957L1.21808 16.9232C0.984773 17.3551 0.868118 17.571 0.894226 17.7377C0.916967 17.8828 1.0024 18.0106 1.12782 18.0871C1.27183 18.175 1.51595 18.1497 2.00419 18.0993L7.12521 17.5699C7.28029 17.5539 7.35783 17.5459 7.42851 17.5486C7.49802 17.5512 7.54709 17.5577 7.61488 17.5734C7.6838 17.5893 7.77047 17.6226 7.9438 17.6894C8.89185 18.0547 9.92187 18.2549 10.9986 18.2549Z" stroke="#07BF82" stroke-width="1.5" stroke-linecap="round" stroke-linejoin="round"/>
</svg>
