<svg width="22" height="25" viewBox="0 0 22 25" fill="none" xmlns="http://www.w3.org/2000/svg">
<g id="Group">
<path id="Vector" d="M8.77189 9.70656V8.77135C8.44724 8.71991 8.11934 8.69173 7.79068 8.68703C4.60881 8.68028 1.79167 10.7422 0.836296 13.7773C-0.119231 16.8123 1.00862 20.116 3.62047 21.9333C1.66404 19.8394 1.12077 16.7912 2.23344 14.1504C3.34604 11.5095 5.90684 9.76904 8.77189 9.70656Z" fill="#25F4EE"/>
<path id="Vector_2" d="M8.94861 20.3006C10.7276 20.2983 12.19 18.8967 12.2679 17.1194V1.25909H15.1655C15.1063 0.927686 15.0781 0.591507 15.0812 0.254883L11.118 0.254883V16.0999C11.0521 17.8862 9.58632 19.3012 7.79876 19.3041C7.26457 19.2996 6.7391 19.1682 6.26562 18.9208C6.57247 19.346 6.97546 19.6926 7.44172 19.9324C7.90798 20.1721 8.42431 20.2983 8.94861 20.3006ZM20.5775 6.6404V5.75884C19.5111 5.75921 18.4683 5.44452 17.5802 4.85429C18.3588 5.7594 19.4109 6.38637 20.5775 6.6404Z" fill="#25F4EE"/>
<path id="Vector_3" d="M17.5797 4.85434C16.7049 3.85805 16.2226 2.57736 16.2229 1.25146H15.165C15.3017 1.98454 15.5863 2.68209 16.0014 3.30153C16.4166 3.92098 16.9536 4.44933 17.5797 4.85434ZM7.79066 12.6503C6.26396 12.6582 4.93856 13.7041 4.57597 15.1871C4.21339 16.6701 4.90667 18.2095 6.25752 18.9209C5.89855 18.4253 5.68357 17.8401 5.63634 17.23C5.58911 16.6199 5.71146 16.0086 5.98988 15.4636C6.2683 14.9187 6.69195 14.4613 7.21401 14.1421C7.73607 13.8228 8.33623 13.6541 8.94817 13.6545C9.28086 13.6587 9.61126 13.7103 9.92938 13.8079V9.77571C9.60453 9.72704 9.27664 9.70142 8.94817 9.69905H8.77186V12.7653C8.45211 12.6796 8.12157 12.6409 7.79066 12.6503Z" fill="#FE2C55"/>
<path id="Vector_4" d="M20.5776 6.64014V9.70641C18.6034 9.70259 16.6806 9.07771 15.0813 7.92031V15.9769C15.0729 19.9971 11.8114 23.2517 7.79123 23.2517C6.29823 23.2543 4.84119 22.7937 3.62109 21.9332C5.65725 24.1231 8.82609 24.844 11.6093 23.7504C14.3924 22.6567 16.2228 19.9715 16.2235 16.9811V8.94751C17.8281 10.0973 19.7534 10.7141 21.7274 10.7106V6.76279C21.341 6.76156 20.9556 6.72046 20.5776 6.64014Z" fill="#FE2C55"/>
<path id="Vector_5" d="M15.0818 15.9772V7.92061C16.686 9.07137 18.6115 9.68821 20.5858 9.68372V6.61744C19.4194 6.37116 18.3648 5.75235 17.5808 4.85434C16.9547 4.44933 16.4177 3.92098 16.0025 3.30153C15.5873 2.68209 15.3028 1.98454 15.1661 1.25146H12.2685V17.1194C12.2105 18.5351 11.2623 19.7587 9.90593 20.1682C8.54948 20.5777 7.08266 20.0833 6.25093 18.9362C4.90008 18.2248 4.2068 16.6854 4.56938 15.2024C4.93197 13.7194 6.25737 12.6735 7.78407 12.6657C8.11686 12.6686 8.44743 12.7203 8.76527 12.819V9.75271C5.88413 9.80154 3.30401 11.548 2.18819 14.2047C1.07245 16.8614 1.63166 19.9264 3.61393 22.0178C4.84606 22.8499 6.30522 23.281 7.79173 23.252C11.8119 23.252 15.0734 19.9974 15.0818 15.9772Z" fill="black"/>
</g>
</svg>
