<svg width="25" height="25" viewBox="0 0 25 25" fill="none" xmlns="http://www.w3.org/2000/svg">
<path d="M16.4986 8.25488C16.4986 9.31575 16.0772 10.3332 15.327 11.0833C14.5769 11.8335 13.5595 12.2549 12.4986 12.2549C11.4377 12.2549 10.4203 11.8335 9.67018 11.0833C8.92004 10.3332 8.49861 9.31575 8.49861 8.25488M4.13183 7.65627L3.43183 16.0563C3.28145 17.8608 3.20626 18.763 3.5113 19.4591C3.7793 20.0706 4.24364 20.5752 4.8308 20.8931C5.49908 21.2549 6.40447 21.2549 8.21525 21.2549H16.782C18.5928 21.2549 19.4981 21.2549 20.1664 20.8931C20.7536 20.5752 21.2179 20.0706 21.4859 19.4591C21.791 18.763 21.7158 17.8608 21.5654 16.0563L20.8654 7.65627C20.736 6.10363 20.6713 5.32732 20.3275 4.73974C20.0247 4.22232 19.5739 3.80749 19.0331 3.54873C18.419 3.25488 17.64 3.25488 16.082 3.25488L8.91525 3.25488C7.35724 3.25488 6.57823 3.25488 5.96413 3.54873C5.42336 3.80748 4.97251 4.22232 4.66974 4.73974C4.32591 5.32732 4.26122 6.10363 4.13183 7.65627Z" stroke="black" stroke-width="2" stroke-linecap="round" stroke-linejoin="round"/>
</svg>
