<svg width="25" height="25" viewBox="0 0 25 25" fill="none" xmlns="http://www.w3.org/2000/svg">
<g id="Google_Pay-Logo.wine 1" clip-path="url(#clip0_624_831)">
<path id="Vector" d="M23.973 12.5404C23.974 11.7256 23.9051 10.9123 23.7671 10.1094H12.4922V14.714H18.95C18.8178 15.4494 18.5381 16.1505 18.1277 16.7749C17.7174 17.3993 17.1848 17.9342 16.5621 18.3472V21.3362H20.4162C22.6728 19.2555 23.973 16.1786 23.973 12.5404Z" fill="#4285F4"/>
<path id="Vector_2" d="M12.4907 24.2242C15.7171 24.2242 18.4337 23.1648 20.4147 21.3382L16.5607 18.3493C15.488 19.0766 14.1064 19.4917 12.4907 19.4917C9.37226 19.4917 6.72539 17.3895 5.7789 14.5566H1.80859V17.6369C2.80369 19.617 4.32956 21.2816 6.21585 22.4448C8.10214 23.608 10.2746 24.2241 12.4907 24.2242Z" fill="#34A853"/>
<path id="Vector_3" d="M5.78244 14.5561C5.28206 13.0716 5.28206 11.4641 5.78244 9.97968V6.89941H1.81214C0.975028 8.56517 0.539062 10.4036 0.539062 12.2679C0.539062 14.1321 0.975028 15.9706 1.81214 17.6363L5.78244 14.5561Z" fill="#FBBC04"/>
<path id="Vector_4" d="M12.4907 5.04479C14.1957 5.01694 15.8432 5.66114 17.0771 6.83815L20.4894 3.42578C18.3256 1.39343 15.4591 0.277638 12.4907 0.312308C10.2746 0.312409 8.10214 0.928452 6.21585 2.09166C4.32956 3.25487 2.80369 4.91946 1.80859 6.89959L5.7789 9.97986C6.72539 7.14701 9.37226 5.04479 12.4907 5.04479Z" fill="#EA4335"/>
</g>
<defs>
<clipPath id="clip0_624_831">
<rect width="23.5294" height="24" fill="white" transform="translate(0.5 0.254883)"/>
</clipPath>
</defs>
</svg>
