<svg width="23" height="23" viewBox="0 0 23 23" fill="none" xmlns="http://www.w3.org/2000/svg">
<g id="Icon">
<path d="M11.5 21.2549C17.0228 21.2549 21.5 16.7777 21.5 11.2549C21.5 5.73204 17.0228 1.25488 11.5 1.25488C5.97715 1.25488 1.5 5.73204 1.5 11.2549C1.5 16.7777 5.97715 21.2549 11.5 21.2549Z" stroke="#07BF82" stroke-width="1.5" stroke-linecap="round" stroke-linejoin="round"/>
<path d="M14.2221 7.52085C14.7107 7.358 14.9549 7.27657 15.1174 7.3345C15.2587 7.38491 15.37 7.49615 15.4204 7.63751C15.4783 7.79995 15.3969 8.04423 15.234 8.53278L13.7465 12.9954C13.7001 13.1345 13.6769 13.2041 13.6374 13.2619C13.6024 13.3131 13.5582 13.3573 13.507 13.3923C13.4492 13.4318 13.3797 13.455 13.2405 13.5014L8.77789 14.9889C8.28935 15.1518 8.04507 15.2332 7.88263 15.1753C7.74127 15.1249 7.63003 15.0136 7.57962 14.8723C7.52169 14.7098 7.60312 14.4655 7.76596 13.977L9.25351 9.51436C9.29989 9.37522 9.32308 9.30565 9.3626 9.24787C9.3976 9.1967 9.44182 9.15249 9.49299 9.11748C9.55076 9.07796 9.62033 9.05477 9.75947 9.00839L14.2221 7.52085Z" stroke="#07BF82" stroke-width="1.5" stroke-linecap="round" stroke-linejoin="round"/>
</g>
</svg>
