<svg width="73" height="72" viewBox="0 0 73 72" fill="none" xmlns="http://www.w3.org/2000/svg">
<g id="countries/germany" filter="url(#filter0_d_810_3840)">
<g clip-path="url(#clip0_810_3840)">
<path id="Vector" d="M11.6484 42.4312C15.3927 52.5223 25.1061 59.7139 36.5002 59.7139C47.8942 59.7139 57.6076 52.5223 61.3519 42.4312L36.5002 40.127L11.6484 42.4312Z" fill="#FFDA44"/>
<path id="Vector_2" d="M36.5002 6.71387C25.1061 6.71387 15.3927 13.9053 11.6484 23.9965L36.5002 26.3008L61.3519 23.9964C57.6076 13.9053 47.8942 6.71387 36.5002 6.71387Z" fill="black"/>
<path id="Vector_3" d="M11.6483 23.9966C10.5831 26.8674 10 29.9724 10 33.2139C10 36.4554 10.5831 39.5605 11.6483 42.4313H61.3518C62.417 39.5605 63 36.4554 63 33.2139C63 29.9724 62.417 26.8674 61.3517 23.9966H11.6483Z" fill="#D80027"/>
</g>
</g>
<defs>
<filter id="filter0_d_810_3840" x="0.67" y="0.0538673" width="71.66" height="71.66" filterUnits="userSpaceOnUse" color-interpolation-filters="sRGB">
<feFlood flood-opacity="0" result="BackgroundImageFix"/>
<feColorMatrix in="SourceAlpha" type="matrix" values="0 0 0 0 0 0 0 0 0 0 0 0 0 0 0 0 0 0 127 0" result="hardAlpha"/>
<feOffset dy="2.67"/>
<feGaussianBlur stdDeviation="4.665"/>
<feComposite in2="hardAlpha" operator="out"/>
<feColorMatrix type="matrix" values="0 0 0 0 0 0 0 0 0 0 0 0 0 0 0 0 0 0 0.16 0"/>
<feBlend mode="normal" in2="BackgroundImageFix" result="effect1_dropShadow_810_3840"/>
<feBlend mode="normal" in="SourceGraphic" in2="effect1_dropShadow_810_3840" result="shape"/>
</filter>
<clipPath id="clip0_810_3840">
<rect x="10" y="6.71387" width="53" height="53" rx="26.5" fill="white"/>
</clipPath>
</defs>
</svg>
