<svg width="73" height="72" viewBox="0 0 73 72" fill="none" xmlns="http://www.w3.org/2000/svg">
<g filter="url(#filter0_d_810_3971)">
<g clip-path="url(#clip0_810_3971)">
<path d="M36.5 59.7139C51.1355 59.7139 63 47.8494 63 33.2139C63 18.5783 51.1355 6.71387 36.5 6.71387C21.8645 6.71387 10 18.5783 10 33.2139C10 47.8494 21.8645 59.7139 36.5 59.7139Z" fill="#F0F0F0"/>
<path d="M36.5 26.3008H62.0871C61.4226 23.8357 60.4127 21.5127 59.1105 19.3877H36.5V26.3008Z" fill="#338AF3"/>
<path d="M20.0052 53.9531H52.997C55.4154 52.0269 57.4894 49.6872 59.1115 47.04H13.8906C15.5128 49.6871 17.5869 52.0269 20.0052 53.9531Z" fill="#338AF3"/>
<path d="M19.2185 13.1255C17.1351 14.9195 15.334 17.0322 13.8906 19.3878H19.2185V13.1255Z" fill="#338AF3"/>
<path d="M36.5 33.2139C36.5 30.5146 36.5 28.2556 36.5 26.3008H26.1304V33.2139H19.2173V26.3008H10.9129C10.3188 28.505 10 30.8219 10 33.2139C10 35.6058 10.3188 37.9227 10.9129 40.127H62.0872C62.6812 37.9227 63 35.6058 63 33.2139H36.5Z" fill="#338AF3"/>
<path d="M36.4985 6.71387C32.8186 6.71387 29.3141 7.46467 26.1289 8.8202V19.3878H36.4985C36.4985 16.9746 36.4985 14.9222 36.4985 12.4747H52.9944C48.4676 8.86948 42.7352 6.71387 36.4985 6.71387Z" fill="#338AF3"/>
</g>
</g>
<defs>
<filter id="filter0_d_810_3971" x="0.67" y="0.0538673" width="71.66" height="71.66" filterUnits="userSpaceOnUse" color-interpolation-filters="sRGB">
<feFlood flood-opacity="0" result="BackgroundImageFix"/>
<feColorMatrix in="SourceAlpha" type="matrix" values="0 0 0 0 0 0 0 0 0 0 0 0 0 0 0 0 0 0 127 0" result="hardAlpha"/>
<feOffset dy="2.67"/>
<feGaussianBlur stdDeviation="4.665"/>
<feComposite in2="hardAlpha" operator="out"/>
<feColorMatrix type="matrix" values="0 0 0 0 0 0 0 0 0 0 0 0 0 0 0 0 0 0 0.16 0"/>
<feBlend mode="normal" in2="BackgroundImageFix" result="effect1_dropShadow_810_3971"/>
<feBlend mode="normal" in="SourceGraphic" in2="effect1_dropShadow_810_3971" result="shape"/>
</filter>
<clipPath id="clip0_810_3971">
<rect x="10" y="6.71387" width="53" height="53" rx="26.5" fill="white"/>
</clipPath>
</defs>
</svg>
