<svg width="73" height="72" viewBox="0 0 73 72" fill="none" xmlns="http://www.w3.org/2000/svg">
<g filter="url(#filter0_d_810_3953)">
<g clip-path="url(#clip0_810_3953)">
<path d="M36.5 59.7139C51.1356 59.7139 63 47.8494 63 33.2139C63 18.5783 51.1356 6.71387 36.5 6.71387C21.8645 6.71387 10 18.5783 10 33.2139C10 47.8494 21.8645 59.7139 36.5 59.7139Z" fill="#F0F0F0"/>
<path d="M10.9141 40.127C12.4473 45.8161 15.8266 50.7469 20.3707 54.2384V40.127H10.9141Z" fill="#0052B4"/>
<path d="M34.1953 59.6131C34.9549 59.6785 35.7231 59.7139 36.4997 59.7139C48.7434 59.7139 59.0459 51.4097 62.0868 40.127H34.1953V59.6131Z" fill="#0052B4"/>
<path d="M62.0868 26.3008C59.0459 15.018 48.7434 6.71387 36.4997 6.71387C35.7231 6.71387 34.9549 6.74927 34.1953 6.81469V26.3008H62.0868Z" fill="#0052B4"/>
<path d="M20.3707 12.1895C15.8266 15.681 12.4473 20.6118 10.9141 26.3009H20.3707V12.1895Z" fill="#0052B4"/>
<path d="M62.7757 29.7574H30.7393H30.7392V7.34375C28.2902 7.88679 25.9684 8.76699 23.8261 9.93599V29.7573H10.2243C10.0768 30.8888 10 32.0424 10 33.2139C10 34.3853 10.0768 35.5389 10.2243 36.6703H23.826H23.8261V56.4916C25.9684 57.6605 28.2902 58.5409 30.7392 59.0839V36.6707V36.6705H62.7757C62.923 35.5389 63 34.3853 63 33.2139C63 32.0424 62.923 30.8888 62.7757 29.7574Z" fill="#D80027"/>
</g>
</g>
<defs>
<filter id="filter0_d_810_3953" x="0.67" y="0.0538673" width="71.66" height="71.66" filterUnits="userSpaceOnUse" color-interpolation-filters="sRGB">
<feFlood flood-opacity="0" result="BackgroundImageFix"/>
<feColorMatrix in="SourceAlpha" type="matrix" values="0 0 0 0 0 0 0 0 0 0 0 0 0 0 0 0 0 0 127 0" result="hardAlpha"/>
<feOffset dy="2.67"/>
<feGaussianBlur stdDeviation="4.665"/>
<feComposite in2="hardAlpha" operator="out"/>
<feColorMatrix type="matrix" values="0 0 0 0 0 0 0 0 0 0 0 0 0 0 0 0 0 0 0.16 0"/>
<feBlend mode="normal" in2="BackgroundImageFix" result="effect1_dropShadow_810_3953"/>
<feBlend mode="normal" in="SourceGraphic" in2="effect1_dropShadow_810_3953" result="shape"/>
</filter>
<clipPath id="clip0_810_3953">
<rect x="10" y="6.71387" width="53" height="53" rx="26.5" fill="white"/>
</clipPath>
</defs>
</svg>
