<svg width="40" height="40" viewBox="0 0 40 40" fill="none" xmlns="http://www.w3.org/2000/svg">
<g clip-path="url(#clip0_624_4765)">
<path fill-rule="evenodd" clip-rule="evenodd" d="M22.9421 33.1529C25.8127 35.2 27.5068 37.6471 27.5539 39.9294V40H34.4951V39.9294C34.5186 37.6941 35.8833 35.6706 38.9657 33.6C38.9892 33.5765 39.0127 33.5765 39.0127 33.5529L39.1068 33.4824C39.1304 33.4588 39.1304 33.4588 39.1539 33.4588L39.2245 33.4118V24.9176C38.9892 25.0353 38.8245 25.1529 38.6833 25.2235L38.448 25.3647C37.1774 26.1176 36.1421 26.7529 35.201 27.4353L35.0833 27.5294C33.5774 28.6118 32.1892 29.8588 31.0363 31.2235C29.8833 29.8588 28.5186 28.6353 26.9892 27.5294C26.001 26.8235 24.9421 26.1412 23.601 25.3882L23.4127 25.2706C23.2951 25.2 23.1304 25.1059 22.9421 24.9882L20.801 23.7647C20.448 23.5765 20.1657 23.3882 19.9539 23.2706L19.7421 23.1529C18.3539 22.3529 17.201 21.6471 16.048 20.8941C13.9304 19.4824 12.6363 17.9529 11.9304 16.4C11.4363 15.3412 11.2716 14.3529 11.2716 13.3412C11.2716 9.81176 14.1421 6.96471 17.6716 6.96471C21.201 6.96471 24.0716 9.83529 24.0716 13.3412C24.0716 14.3529 23.9068 15.3412 23.4127 16.4C22.801 17.7647 21.7186 19.1059 20.048 20.3529C20.3539 20.5176 20.6598 20.7059 20.9892 20.8941L21.1774 21.0118L21.3186 21.1059L22.9657 22.0471C23.8598 22.5412 24.3304 22.8235 24.6127 22.9882L24.9657 23.2C25.4363 23.4588 25.8363 23.7176 26.2363 23.9529L26.401 24.0471C27.8598 22.5882 28.9657 20.9882 29.7421 19.3176C30.6833 17.2471 31.0127 15.3176 31.0127 13.3882C30.9657 6.04706 25.1068 0.117647 17.8363 0H17.6245H17.3892C10.1657 0.117647 4.30685 6.04706 4.30685 13.3176C4.30685 15.2471 4.65979 17.2 5.57744 19.2471C6.82449 22 8.9892 24.4941 12.1421 26.6118C13.4833 27.5059 14.801 28.3059 16.3539 29.2L16.401 29.2235C16.5186 29.2941 16.6833 29.3882 16.8716 29.5059L19.1774 30.8C19.4363 30.9412 19.648 31.0588 19.7892 31.1529L20.0245 31.2941C21.2716 32.0235 22.1657 32.5882 22.9421 33.1529ZM10.7304 28.7765C10.001 28.2824 9.31861 27.7647 8.65979 27.2235L8.63626 27.2471C8.51861 27.3412 8.37744 27.4118 8.25979 27.5059C6.30685 28.9176 4.56567 30.5647 3.27155 32.4471C1.67155 34.7529 0.753906 37.2941 0.753906 40H7.69508C7.69508 37.6941 9.41273 35.2235 12.3068 33.1529C13.0127 32.6353 13.7892 32.1412 14.801 31.5529L15.0127 31.4353L14.8716 31.3647C13.3186 30.4471 12.0245 29.6235 10.7304 28.7765Z" fill="#0540F7"/>
</g>
<defs>
<clipPath id="clip0_624_4765">
<rect width="40" height="40" fill="white"/>
</clipPath>
</defs>
</svg>
