<svg width="100" height="50" viewBox="0 0 100 50" fill="none" xmlns="http://www.w3.org/2000/svg">
<path d="M5.25 17.8955H10V22.5872H14.3442V17.8955H19.0942V32.1038H14.3442V27.3538H10V32.1038H5.25V17.8955ZM25.3392 22.608H21.15V17.8963H34.2633V22.608H30.08V32.1055H25.33V22.608H25.3392ZM36.345 17.8955H41.2975L44.3442 22.8955L47.3875 17.8955H52.3333V32.1038H47.6033V25.0605L44.3367 30.113H44.255L41 25.0613V32.1047H36.3533L36.345 17.8955ZM54.7033 17.8955H59.4533V27.4163H66.1325V32.113H54.7042L54.7033 17.8955Z" fill="white"/>
<path d="M68.3906 10.0498H94.7548L92.3531 36.9565L81.5573 39.9498L70.7906 36.9606L68.3906 10.0498Z" fill="#E44D26"/>
<path d="M90.3026 35.2443L92.3551 12.251H81.5859V37.6626L90.3026 35.2443Z" fill="#F16529"/>
<path d="M77.2086 22.2318L76.9069 18.8518H81.5836V15.5518H73.3086L74.1986 25.5326H81.5836V22.2326L77.2086 22.2318ZM74.3369 27.1834L74.7994 32.3668L81.5603 34.2434L81.5753 34.2393V30.8059L81.5611 30.8101L77.8944 29.8101L77.6594 27.1768H75.8736L74.3369 27.1834Z" fill="#EBEBEB"/>
<path d="M89.1533 23.1163L89.2342 22.2296H81.5625V25.5296H85.6267L85.2433 29.8105L81.5625 30.8038V34.2371L88.3292 32.3621L88.3792 31.8038L89.1533 23.1163ZM81.57 18.8513H89.5425L89.8383 15.543H81.57V18.8346V18.8513Z" fill="white"/>
</svg>
