<svg width="16" height="17" viewBox="0 0 16 17" fill="none" xmlns="http://www.w3.org/2000/svg">
<path d="M4.66406 7.16667V5.83333C4.66406 3.99238 6.15645 2.5 7.9974 2.5C9.36428 2.5 10.539 3.32273 11.0534 4.5M7.9974 10.1667V11.5M5.86406 14.5H10.1307C11.2508 14.5 11.8109 14.5 12.2387 14.282C12.615 14.0903 12.921 13.7843 13.1127 13.408C13.3307 12.9802 13.3307 12.4201 13.3307 11.3V10.3667C13.3307 9.24656 13.3307 8.68651 13.1127 8.25869C12.921 7.88236 12.615 7.5764 12.2387 7.38465C11.8109 7.16667 11.2508 7.16667 10.1307 7.16667H5.86406C4.74396 7.16667 4.18391 7.16667 3.75608 7.38465C3.37976 7.5764 3.0738 7.88236 2.88205 8.25869C2.66406 8.68651 2.66406 9.24656 2.66406 10.3667V11.3C2.66406 12.4201 2.66406 12.9802 2.88205 13.408C3.0738 13.7843 3.37976 14.0903 3.75608 14.282C4.18391 14.5 4.74396 14.5 5.86406 14.5Z" stroke="#EB79AD" stroke-width="1.33333" stroke-linecap="round" stroke-linejoin="round"/>
</svg>
