<svg width="169" height="71" viewBox="0 0 169 71" fill="none" xmlns="http://www.w3.org/2000/svg">
<g id="Vector" filter="url(#filter0_f_624_4578)">
<path d="M60.8275 37.6619C58.8103 36.4272 58.2361 34.5675 58.6324 32.4029C59.044 30.1672 60.6395 28.9732 62.7176 28.4651C64.867 27.9366 67.0061 28.0281 68.9674 29.2272C69.2875 29.4254 69.44 29.2425 69.6331 29.0799C70.3952 28.4397 71.2946 28.2059 72.2702 28.15C72.6716 28.1246 72.7986 28.272 72.7834 28.6632C72.7579 29.3288 72.763 29.9996 72.7834 30.6703C72.7935 31.0005 72.6868 31.1428 72.3413 31.1225C71.8891 31.1022 71.4318 31.1377 70.9846 31.1123C70.568 31.092 70.4359 31.1631 70.5375 31.6408C70.9592 33.6224 70.507 35.3856 68.9623 36.7524C67.56 37.9922 65.8476 38.353 64.0235 38.2971C63.7644 38.2869 63.5001 38.2869 63.2512 38.231C62.6313 38.104 62.2553 38.3021 62.1384 38.9474C61.9961 39.7299 62.2197 40.2787 62.8345 40.5074C63.2613 40.6649 63.7186 40.6852 64.1708 40.7055C65.6799 40.7716 67.1941 40.6141 68.6981 40.8122C70.1869 41.0104 71.5893 41.4016 72.1787 42.9717C72.824 44.6891 72.5903 46.3354 71.4267 47.7835C70.0395 49.5061 68.1138 50.2123 66.0102 50.4918C64.2166 50.7357 62.4331 50.629 60.7309 49.9278C58.7544 49.1148 57.8093 47.4126 58.2717 45.497C58.5308 44.4249 59.2117 43.678 60.1466 43.1343C60.3397 43.0225 60.6191 42.9717 60.2889 42.6465C58.8103 41.2086 58.8408 39.5165 60.3397 38.0989C60.482 37.9668 60.6445 37.8296 60.8275 37.6619ZM64.9279 48.5864C65.4106 48.6067 65.8781 48.5203 66.3405 48.4187C67.3008 48.2053 68.124 47.7581 68.6219 46.8639C69.5467 45.2125 68.7439 43.7136 66.9096 43.5205C65.4462 43.368 63.9828 43.6424 62.5246 43.4544C62.2553 43.4188 62.1435 43.6272 62.0419 43.8152C61.4524 44.9534 61.4931 46.1169 62.0419 47.2348C62.6262 48.4238 63.7999 48.4949 64.9279 48.5864ZM62.3874 33.033C62.3721 33.8815 62.428 34.6539 62.7634 35.3754C63.1495 36.1986 63.866 36.605 64.8111 36.5491C65.6342 36.4983 66.2846 35.9801 66.5183 35.1061C66.8537 33.8561 66.8689 32.5909 66.5234 31.3359C66.2744 30.4416 65.6596 29.9945 64.7145 29.964C63.6577 29.9284 63.0022 30.3197 62.6618 31.1936C62.4229 31.8084 62.3569 32.4487 62.3874 33.033ZM79.1246 36.3662C79.1246 37.6822 79.15 38.9983 79.1144 40.3143C79.0992 40.8376 79.2719 41.0561 79.7851 41.0866C80.1154 41.1069 80.6032 41.0409 80.7099 41.3762C80.842 41.7878 80.7658 42.2705 80.7404 42.7227C80.7251 42.9666 80.3288 42.9209 80.3288 42.9209L74.5008 42.926C74.5008 42.926 74.0181 42.8193 74.0536 42.4788C74.0689 42.3315 74.074 42.174 74.0536 42.0266C73.9571 41.3966 74.1603 41.051 74.8565 41.0612C75.3595 41.0663 75.5068 40.797 75.5068 40.2838C75.4814 35.8378 75.4814 31.3969 75.5068 26.9509C75.5119 26.3665 75.3239 26.1277 74.7752 26.1023C74.6888 26.0972 74.6024 26.082 74.5211 26.0668C73.7945 25.955 73.4439 25.269 73.7437 24.5881C73.8199 24.4103 73.9622 24.4052 74.1095 24.3849C75.6034 24.1766 77.0972 23.9733 78.5911 23.7599C79.0077 23.6989 79.0992 23.8971 79.0941 24.2731C79.0839 25.9753 79.0941 27.6826 79.1043 29.3847C79.1043 29.5626 78.9874 29.8116 79.1957 29.9081C79.3888 29.9945 79.5463 29.7811 79.6988 29.6794C80.9995 28.7953 82.407 28.2923 84.0126 28.3787C85.7961 28.4752 86.8835 29.3695 87.2392 31.153C87.4526 32.2149 87.5034 33.2921 87.4983 34.3693C87.4881 36.3307 87.5237 38.2971 87.478 40.2584C87.4678 40.8275 87.666 41.0206 88.1842 41.0714C88.4942 41.0968 88.9718 41.0053 89.0684 41.3102C89.2005 41.7421 89.1293 42.2451 89.1192 42.7177C89.1141 42.926 88.7686 42.9057 88.7686 42.9057L82.9405 42.9107C82.9405 42.9107 82.5289 42.7634 82.534 42.4788C82.5391 42.2858 82.5544 42.0876 82.5289 41.8945C82.4629 41.3813 82.6915 41.1222 83.1946 41.1019C83.7332 41.0764 83.8958 40.8224 83.8805 40.2736C83.8094 37.8144 83.9618 35.3551 83.7891 32.9009C83.657 31.0412 82.7169 30.3857 80.9081 30.8735C80.781 30.9091 80.6591 30.9497 80.5371 30.9853C79.2313 31.3918 79.1195 31.5391 79.1195 32.8704C79.1246 34.0391 79.1246 35.2026 79.1246 36.3662ZM22.7953 34.2474C22.7953 31.8339 22.7851 29.4152 22.8054 27.0017C22.8105 26.5342 22.719 26.2548 22.2008 26.2649C22.1195 26.2649 22.0331 26.2294 21.9467 26.2141C21.1541 26.0769 20.8085 25.4672 21.088 24.7304C21.1591 24.5424 21.2963 24.5373 21.4437 24.517C22.9579 24.3087 24.4771 24.1054 25.9862 23.8869C26.4181 23.826 26.4333 24.0546 26.4333 24.3747C26.4283 25.9042 26.4283 27.4387 26.4333 28.9681C26.4333 29.1713 26.3419 29.4559 26.5705 29.5575C26.7535 29.6388 26.9059 29.4051 27.0583 29.2933C29.4617 27.5098 33.3894 27.9671 34.6241 31.5696C35.5844 34.3693 35.5946 37.1894 34.1363 39.8417C32.9321 42.0317 30.9911 43.1394 28.4709 43.1902C26.7535 43.2258 25.0767 43.0378 23.4355 42.4941C22.9629 42.3366 22.7749 42.0978 22.7851 41.5642C22.8105 39.1202 22.7953 36.6863 22.7953 34.2474ZM26.4283 36.224C26.4283 37.6264 26.4384 39.0287 26.4232 40.4311C26.4181 40.8173 26.5146 41.0866 26.8856 41.2644C27.851 41.7217 29.0704 41.5185 29.8123 40.7513C30.3052 40.2431 30.6049 39.6283 30.8082 38.9627C31.3315 37.2554 31.3011 35.5177 31.1181 33.7698C31.0578 33.1895 30.898 32.624 30.6456 32.0981C29.8987 30.5432 28.2727 30.1418 26.8652 31.153C26.5604 31.3715 26.4181 31.6255 26.4232 32.0168C26.4435 33.4192 26.4283 34.8216 26.4283 36.224Z" fill="#4280F6"/>
<path d="M113.194 41.6874C112.37 42.4293 111.461 42.9882 110.338 43.1914C108.102 43.5979 105.917 42.4851 105.008 40.4019C103.834 37.7038 103.839 34.9803 104.957 32.2822C106.131 29.4469 109.169 27.887 112.193 28.4917C113.061 28.6644 113.158 28.5831 113.158 27.7041C113.158 27.3586 113.133 27.0131 113.163 26.6676C113.209 26.1493 113.036 25.8851 112.482 25.941C112.157 25.9714 111.842 25.8901 111.527 25.8342C110.856 25.7123 110.714 25.5192 110.831 24.8333C110.866 24.6249 110.958 24.5436 111.161 24.5182C112.497 24.3506 113.839 24.1829 115.175 24C115.704 23.9288 115.77 24.188 115.77 24.6351C115.76 29.8331 115.76 35.026 115.765 40.224V40.7423C115.775 41.2453 115.942 41.5553 116.537 41.4892C116.801 41.4588 117.223 41.352 117.172 41.8602C117.131 42.2667 117.467 42.8408 116.694 42.9679C116.039 43.0796 115.419 43.3184 114.733 43.2981C113.697 43.2676 113.564 43.1813 113.331 42.1854C113.285 42.0329 113.361 41.8449 113.194 41.6874ZM113.158 35.3563C113.158 33.9336 113.138 32.5109 113.168 31.0932C113.178 30.6359 113.026 30.3463 112.635 30.1735C111.019 29.4622 108.803 29.7671 107.909 31.6318C107.487 32.5159 107.244 33.4306 107.152 34.4061C107.01 35.8949 106.959 37.3684 107.462 38.8013C107.833 39.8633 108.382 40.783 109.55 41.1742C110.816 41.5959 111.862 41.1539 112.853 40.4222C113.128 40.219 113.168 39.9395 113.163 39.6245C113.153 38.2017 113.158 36.779 113.158 35.3563ZM127.787 36.6418C127.787 38.2881 127.807 39.6041 127.776 40.9151C127.766 41.4232 127.873 41.6722 128.442 41.6315C128.722 41.6112 129.184 41.3978 129.214 42.0024C129.24 42.5207 129.265 42.9628 128.539 43.0593C127.883 43.1457 127.238 43.3185 126.562 43.3032C125.607 43.2778 125.47 43.1711 125.332 42.2108C125.312 42.0736 125.404 41.8805 125.221 41.8094C125.048 41.7433 124.967 41.9313 124.855 42.0228C123.02 43.5471 120.714 43.7504 118.94 42.5715C118.122 42.0278 117.675 41.2352 117.584 40.3206C117.325 37.714 117.975 36.3014 120.785 35.1277C122.025 34.6094 123.361 34.4823 124.687 34.3706C125.078 34.335 125.21 34.2283 125.205 33.837C125.19 33.085 125.18 32.3432 124.88 31.6217C124.58 30.9001 124.032 30.6461 123.315 30.5902C121.771 30.4682 120.327 30.8443 118.93 31.4591C118.671 31.5759 118.326 31.8402 118.178 31.393C118.046 31.0018 117.492 30.575 118.204 30.138C119.865 29.1217 121.608 28.3901 123.595 28.4002C124.326 28.4053 125.058 28.5374 125.734 28.8118C127.09 29.3606 127.482 30.5394 127.665 31.8554C127.898 33.5677 127.715 35.275 127.787 36.6418ZM125.2 38.1154C125.2 37.4904 125.195 36.8654 125.2 36.2404C125.2 35.9762 125.17 35.7425 124.819 35.8136C124.082 35.966 123.33 35.9559 122.599 36.1642C120.714 36.6926 119.824 38.4406 120.582 40.2444C120.841 40.8643 121.334 41.2504 121.999 41.3419C123.02 41.4842 123.96 41.1945 124.845 40.6915C125.119 40.534 125.216 40.3053 125.21 39.9954C125.185 39.3704 125.2 38.7403 125.2 38.1154ZM147.08 36.6469C147.08 38.029 147.085 39.406 147.075 40.788C147.075 41.1234 147.085 41.4029 147.537 41.3571C147.811 41.3266 148.04 41.4181 147.974 41.7382C147.898 42.099 148.258 42.602 147.679 42.8002C146.892 43.0644 146.074 43.1 145.255 43.0034C144.752 42.9424 144.686 42.4902 144.656 42.1244C144.615 41.5401 144.575 41.3876 144.026 41.85C142.293 43.3083 139.936 43.4607 138.218 42.2971C137.329 41.6976 136.953 40.8185 136.846 39.7871C136.521 36.6164 138.452 35.3461 140.825 34.6195C141.861 34.3045 142.928 34.213 143.995 34.1165C144.407 34.0809 144.503 33.9336 144.493 33.5627C144.473 32.897 144.514 32.2314 144.28 31.5861C143.99 30.7884 143.503 30.3971 142.664 30.3412C141.125 30.2345 139.676 30.575 138.274 31.1847C137.969 31.3168 137.639 31.5963 137.42 31.0831C137.248 30.6766 136.872 30.265 137.502 29.8839C139.595 28.6136 141.79 27.7702 144.29 28.324C145.921 28.6848 146.775 29.8026 146.963 31.5454C147.054 32.4042 147.075 33.2578 147.075 34.1216C147.08 34.9651 147.08 35.8085 147.08 36.6469ZM144.493 37.9375C144.493 37.2922 144.478 36.6469 144.498 36.0016C144.509 35.6256 144.361 35.4833 144 35.5341C143.386 35.6205 142.766 35.6764 142.161 35.8136C140.271 36.2353 139.382 37.5818 139.712 39.4771C139.859 40.3206 140.51 40.971 141.343 41.0827C142.369 41.2199 143.299 40.91 144.173 40.4019C144.422 40.2545 144.498 40.031 144.493 39.7464C144.483 39.1468 144.493 38.5422 144.493 37.9375Z" fill="#C8DBFB"/>
<path d="M91.6824 35.8782C91.6824 34.4097 91.657 32.9464 91.6926 31.4779C91.7078 30.9495 91.5249 30.7716 91.027 30.8478C90.985 30.8555 90.9419 30.8555 90.8999 30.8478C90.6103 30.7564 90.1683 31.0917 90.0463 30.5531C89.8685 29.8011 90.0362 29.3845 90.6611 29.1812C91.3217 28.9627 91.7587 28.541 92.0635 27.9313C92.4598 27.1386 92.7952 26.3205 93.034 25.472C93.1255 25.1519 93.2728 25.035 93.6183 25.0249C95.285 24.9791 95.2799 24.969 95.3053 26.6356C95.3104 27.1742 95.351 27.7128 95.351 28.2514C95.3459 28.5918 95.4882 28.7036 95.8134 28.6985C96.6314 28.6884 97.4546 28.7138 98.2727 28.6884C98.6639 28.6782 98.7859 28.8052 98.796 29.2015C98.8367 30.8631 98.8468 30.8631 97.2259 30.8631C96.7534 30.8631 96.2758 30.8783 95.8032 30.858C95.4628 30.8478 95.351 30.9901 95.3561 31.3204C95.3764 34.0794 95.3764 36.8385 95.4171 39.5976C95.4272 40.4614 95.7981 40.7459 96.667 40.6646C97.2259 40.6138 97.7798 40.5325 98.3082 40.3343C98.608 40.2225 98.7604 40.2886 98.8875 40.6036C99.36 41.7672 99.3549 41.8079 98.2168 42.3922C96.9262 43.0527 95.5644 43.4033 94.1011 43.3017C92.9476 43.2204 92.2312 42.6564 91.8908 41.5487C91.7383 41.0508 91.6824 40.5376 91.6824 40.0193V35.8782ZM42.0551 31.3102C42.3447 30.8834 42.6191 30.4261 42.9494 30.0145C43.803 28.9526 44.8192 28.1752 46.2724 28.1548C46.8212 28.1498 47.1007 28.2971 47.0702 28.9272C47.0194 29.984 47.0448 31.0409 47.06 32.0978C47.0651 32.4738 46.9736 32.5856 46.5722 32.484C45.3731 32.1842 44.179 32.2706 43.0002 32.6262C42.5937 32.7482 42.4108 32.9413 42.4159 33.3986C42.4413 35.6851 42.4362 37.9716 42.4159 40.2581C42.4108 40.7103 42.5632 40.8475 43.0002 40.8678C43.6252 40.8983 44.24 41.0304 44.865 41.066C45.2461 41.0914 45.3273 41.2591 45.3172 41.5945C45.2867 43.0477 45.4645 42.753 44.1739 42.7631C42.0399 42.7834 39.9007 42.753 37.7666 42.7784C37.3043 42.7834 37.0604 42.6869 37.1467 42.1788C37.1569 42.1178 37.1467 42.0518 37.1467 41.9857C37.1569 40.9187 37.0248 41.0304 38.0461 40.9491C38.7219 40.8933 38.8591 40.6087 38.8489 39.9837C38.8133 37.2653 38.8286 34.5469 38.8388 31.8285C38.8388 31.4322 38.7524 31.2188 38.3306 31.0867C37.2077 30.7411 36.9587 30.2279 37.2026 29.0593C37.2585 28.7951 37.4313 28.7747 37.6193 28.7442C38.7473 28.5715 39.8753 28.3886 41.0084 28.2412C41.5114 28.1752 41.9332 28.5969 41.9433 29.1355C41.9586 29.8469 41.9586 30.5582 41.9636 31.2696C41.9586 31.2797 41.9941 31.2899 42.0551 31.3102ZM54.8799 34.6587C54.8799 36.5336 54.9002 38.4086 54.8646 40.2835C54.8545 40.812 55.0221 41.0355 55.5353 41.0406C55.6827 41.0406 55.8351 41.1016 55.9825 41.1067C56.455 41.1117 56.582 41.3455 56.5719 41.8028C56.5465 42.9155 56.5719 42.9155 55.4337 42.9155C53.6655 42.9155 51.8972 42.8952 50.129 42.9308C49.5752 42.941 49.3821 42.7631 49.4685 42.2398C49.4786 42.1788 49.4786 42.1076 49.4685 42.0467C49.3262 41.3404 49.6666 41.0508 50.3323 41.0813C51.0233 41.1117 51.2265 40.8221 51.2164 40.126C51.1706 37.4991 51.1757 34.867 51.2164 32.235C51.2265 31.6151 51.0538 31.2848 50.444 31.1324C50.1544 31.0612 49.6971 31.0765 49.6463 30.7005C49.5701 30.172 49.6209 29.6284 49.6514 29.0898C49.6615 28.917 49.875 28.9119 50.0223 28.8916C51.4501 28.6934 52.883 28.5004 54.3108 28.292C54.7782 28.2209 54.8951 28.3936 54.89 28.8459C54.8697 30.7767 54.8799 32.7177 54.8799 34.6587Z" fill="#4280F6"/>
<path d="M129.855 35.8123C129.855 34.1965 129.839 32.5756 129.865 30.9598C129.875 30.4822 129.733 30.2688 129.245 30.3399C129.138 30.3552 129.026 30.3603 128.925 30.3399C128.666 30.279 128.239 30.5381 128.193 30.0605C128.152 29.6286 127.975 29.1103 128.666 28.9223C129.723 28.6327 130.048 27.7079 130.368 26.8035C130.525 26.3563 130.683 25.9092 130.81 25.4519C130.901 25.1267 131.074 25.02 131.415 25.0251C132.665 25.0505 132.431 24.9489 132.451 26.0616C132.461 26.6205 132.492 27.1846 132.441 27.7435C132.385 28.3329 132.675 28.5158 133.183 28.5209C134.087 28.526 134.997 28.5412 135.901 28.5158C136.318 28.5057 136.47 28.6327 136.465 29.0646C136.44 30.5178 136.562 30.3298 135.236 30.3399C134.458 30.345 133.681 30.3501 132.903 30.3349C132.573 30.3298 132.446 30.4466 132.446 30.7871C132.456 33.5919 132.446 36.3967 132.461 39.2015C132.461 39.5419 132.532 39.8823 132.588 40.2228C132.675 40.7512 133.183 41.0459 133.904 40.9443C134.56 40.8477 135.21 40.6953 135.866 40.5937C136.084 40.5581 136.399 40.3549 136.47 40.7969C136.531 41.178 137.004 41.615 136.425 41.9351C135.363 42.5245 134.25 42.9869 133.015 43.0326C132.482 43.053 131.933 43.1343 131.41 42.9615C130.434 42.6312 129.87 41.803 129.86 40.6699C129.85 39.049 129.855 37.4332 129.855 35.8123Z" fill="#C8DBFB"/>
<path d="M52.4945 20.3511C52.5911 21.4486 53.4345 21.9974 53.9274 22.7595C54.0544 22.9526 54.1713 22.8154 54.2679 22.6782C54.3746 22.5207 54.5727 22.0634 54.8522 22.0279C54.6743 22.7291 54.8319 23.6284 54.9335 24.289C55.1825 25.8387 54.3136 27.1547 52.8655 27.4291C51.148 27.7594 49.705 26.3062 50.02 24.5735C50.1369 23.9434 50.7161 23.3032 50.4113 22.6935C49.9794 21.8297 50.6857 22.4293 50.8127 22.5817C51.3411 23.1914 51.4275 22.6274 51.5494 22.3022C51.6714 21.9821 51.707 21.6366 51.7883 21.3012C51.8848 20.91 52.0677 20.5899 52.4945 20.3511Z" fill="#4280F6"/>
</g>
<defs>
<filter id="filter0_f_624_4578" x="0.992188" y="0.351074" width="167.023" height="70.2593" filterUnits="userSpaceOnUse" color-interpolation-filters="sRGB">
<feFlood flood-opacity="0" result="BackgroundImageFix"/>
<feBlend mode="normal" in="SourceGraphic" in2="BackgroundImageFix" result="shape"/>
<feGaussianBlur stdDeviation="10" result="effect1_foregroundBlur_624_4578"/>
</filter>
</defs>
</svg>
