<svg width="179" height="78" viewBox="0 0 179 78" fill="none" xmlns="http://www.w3.org/2000/svg">
<g id="ness 1">
<g id="Clip path group">
<mask id="mask0_624_530" style="mask-type:luminance" maskUnits="userSpaceOnUse" x="57" y="28" width="65" height="22">
<g id="clip0_3134_2177">
<path id="Vector" d="M121.633 28.3383H57.6641V49.6611H121.633V28.3383Z" fill="white"/>
</g>
</mask>
<g mask="url(#mask0_624_530)">
<g id="Group">
<path id="Vector_2" d="M113.42 49.6611C118.178 49.6611 119.64 46.8525 119.64 44.961C119.64 41.3498 114.681 40.2894 114.681 38.054C114.681 37.452 115.083 36.7355 116.086 36.7355C117.032 36.7355 117.461 37.3661 117.691 38.5698C117.805 39.2003 117.977 39.7162 119.066 39.7162C120.499 39.7162 121.331 38.8564 121.331 37.8533C121.331 36.3916 119.496 34.7581 116.401 34.7581C112.876 34.7581 110.468 36.8503 110.468 39.4869C110.468 43.2987 115.14 44.0438 115.14 46.1074C115.14 46.652 114.796 47.483 113.621 47.483C112.446 47.483 111.844 46.652 111.529 45.3909C111.386 44.7891 111.185 44.3304 110.297 44.3304C108.949 44.3304 108.118 45.2762 108.118 46.394C108.118 47.8843 109.637 49.6611 113.42 49.6611ZM90.1772 49.6611C92.5847 49.6611 93.7884 48.6867 94.6482 47.7982C94.9348 47.5116 95.3933 46.9959 95.7945 46.9959C96.0238 46.9959 96.2532 47.1391 97.027 47.913C98.0015 48.8874 99.5491 49.6611 101.899 49.6611C106.37 49.6611 107.717 46.8238 107.717 44.961C107.717 41.3786 103.16 40.2608 103.16 38.0826C103.16 37.4808 103.561 36.7355 104.536 36.7355C105.51 36.7355 106.026 37.4808 106.227 38.9998C106.313 39.6015 106.456 39.9742 107.43 39.9742C108.892 39.9742 109.924 39.1716 109.924 37.9966C109.924 36.3916 108.032 34.7581 104.88 34.7581C101.297 34.7581 98.9472 36.8503 98.9472 39.4869C98.9472 43.27 103.218 44.0438 103.218 46.0787C103.218 46.652 102.845 47.483 101.727 47.483C99.1477 47.483 100.552 42.9547 97.7435 42.9547C95.3933 42.9547 94.4762 46.0213 91.553 46.0213C90.1772 46.0213 89.2315 45.2476 89.1169 44.1871C89.0595 43.6999 89.2601 43.442 89.6615 43.4706C89.8906 43.4993 90.1199 43.4993 90.3493 43.4993C94.5909 43.4993 98.2594 40.9199 98.2594 37.9106C98.2594 35.8759 96.5684 34.7581 93.8457 34.7581C88.2284 34.7581 84.4167 39.8594 84.4167 44.0725C84.4167 47.1391 86.4801 49.6611 90.1772 49.6611ZM89.9766 41.6077C89.3749 41.6077 89.2028 41.4645 89.2028 41.1493C89.2028 40.2894 90.4352 37.3948 92.5847 37.3948C93.3586 37.3948 93.8457 37.7387 93.8457 38.3979C93.8457 39.7449 92.0401 41.6077 89.9766 41.6077ZM62.1193 49.6611C66.3322 49.6611 67.9086 45.8781 70.7172 40.0028L71.3191 38.7418C72.2649 36.7355 72.7234 35.6179 73.5833 35.6179C74.0418 35.6179 74.3283 35.9332 74.3283 36.5637C74.3283 37.1942 74.0418 37.9681 73.5545 39.0857L72.924 40.5186C71.749 43.2128 71.3191 44.1584 71.3191 45.8208C71.3191 47.8555 72.8954 49.6611 75.4747 49.6611C79.4871 49.6611 81.0349 45.5628 82.5825 41.8943L83.041 40.8053C85.7064 34.4428 89.4321 32.6945 93.3586 32.6945C95.3074 32.6945 96.4825 33.1245 96.941 33.1245C97.4282 33.1245 97.5716 32.6086 97.5716 32.0927C97.5716 30.7457 96.5398 28.3383 92.3269 28.3383C86.3082 28.3383 83.4137 32.7518 80.433 39.5443L79.9171 40.7193C79.0859 42.5822 78.6847 43.2128 77.9681 43.2128C77.5096 43.2128 77.1371 42.9547 77.1371 42.2957C77.1371 41.8943 77.2517 41.6077 77.8822 40.2033L78.2835 39.315C79.3725 36.9076 79.7738 35.5318 79.7738 34.2994C79.7738 31.9208 78.2549 30.4591 75.6467 30.4591C72.1216 30.4591 70.8032 33.1245 69.3703 36.1338L68.1664 38.6559C67.1061 40.8913 65.6157 44.4164 59.0527 44.8464C58.1929 44.9037 57.8203 45.1903 57.8203 46.0787C57.8203 47.9416 59.2247 49.6611 62.1193 49.6611Z" fill="#080A27"/>
</g>
</g>
</g>
</g>
</svg>
