<svg width="144" height="27" viewBox="0 0 144 27" fill="none" xmlns="http://www.w3.org/2000/svg">
<g clip-path="url(#clip0_59_2923)">
<path d="M13.7743 18.4178C7.29751 21.5002 3.27795 18.9213 0.704904 17.3549C0.545685 17.2561 0.275068 17.3779 0.509865 17.6476C1.36708 18.687 4.17633 21.1922 7.84323 21.1922C11.5127 21.1922 13.6956 19.19 13.9687 18.8408C14.2399 18.4944 14.0483 18.3034 13.7742 18.4178H13.7743ZM15.5933 17.4133C15.4193 17.1868 14.5357 17.1446 13.9795 17.2129C13.4225 17.2792 12.5865 17.6196 12.6592 17.824C12.6965 17.9006 12.7726 17.8662 13.1552 17.8318C13.5389 17.7936 14.6138 17.6579 14.8377 17.9507C15.0627 18.2455 14.4949 19.6498 14.3912 19.8763C14.291 20.1028 14.4295 20.1612 14.6177 20.0104C14.8033 19.8596 15.1394 19.4691 15.3649 18.9165C15.5888 18.3608 15.7255 17.5857 15.5933 17.4133Z" fill="#FF9900"/>
<path fill-rule="evenodd" clip-rule="evenodd" d="M9.41782 12.128C9.41782 12.9368 9.43825 13.6112 9.02946 14.3295C8.69952 14.9135 8.17687 15.2726 7.59292 15.2726C6.79578 15.2726 6.33154 14.6653 6.33154 13.7689C6.33154 11.9995 7.91696 11.6783 9.41782 11.6783V12.128ZM11.5113 17.188C11.3741 17.3106 11.1755 17.3194 11.0208 17.2376C10.3317 16.6654 10.2091 16.3997 9.8295 15.8537C8.69078 17.0158 7.8849 17.3632 6.40749 17.3632C4.66144 17.3632 3.30078 16.2858 3.30078 14.128C3.30078 12.4434 4.21474 11.2958 5.51397 10.7353C6.64106 10.2388 8.21484 10.1513 9.41782 10.0141V9.74543C9.41782 9.25195 9.45573 8.66801 9.16671 8.24174C8.91265 7.85924 8.42798 7.70155 8.00165 7.70155C7.21042 7.70155 6.50381 8.10739 6.33154 8.94829C6.29646 9.1352 6.15928 9.31916 5.97242 9.3279L3.95772 9.11188C3.78841 9.07384 3.60156 8.93666 3.64827 8.67675C4.11251 6.23584 6.31689 5.5 8.29067 5.5C9.30094 5.5 10.6207 5.76865 11.4178 6.53366C12.4281 7.47673 12.3317 8.73515 12.3317 10.1045V13.3397C12.3317 14.312 12.7346 14.7383 13.1142 15.2639C13.2485 15.4507 13.2777 15.6756 13.1083 15.8157C12.685 16.169 11.9317 16.826 11.5171 17.1939L11.5112 17.188" fill="black"/>
<path d="M13.7743 18.4178C7.29751 21.5002 3.27795 18.9213 0.704904 17.3549C0.545685 17.2561 0.275068 17.3779 0.509865 17.6476C1.36708 18.687 4.17633 21.1922 7.84323 21.1922C11.5127 21.1922 13.6956 19.19 13.9687 18.8408C14.2399 18.4944 14.0483 18.3034 13.7742 18.4178H13.7743ZM15.5933 17.4133C15.4193 17.1868 14.5357 17.1446 13.9795 17.2129C13.4225 17.2792 12.5865 17.6196 12.6592 17.824C12.6965 17.9006 12.7726 17.8662 13.1552 17.8318C13.5389 17.7936 14.6138 17.6579 14.8377 17.9507C15.0627 18.2455 14.4949 19.6498 14.3912 19.8763C14.291 20.1028 14.4295 20.1612 14.6177 20.0104C14.8033 19.8596 15.1394 19.4691 15.3649 18.9165C15.5888 18.3608 15.7255 17.5857 15.5933 17.4133Z" fill="#FF9900"/>
<path fill-rule="evenodd" clip-rule="evenodd" d="M9.41782 12.128C9.41782 12.9368 9.43825 13.6112 9.02946 14.3295C8.69952 14.9135 8.17687 15.2726 7.59292 15.2726C6.79578 15.2726 6.33154 14.6653 6.33154 13.7689C6.33154 11.9995 7.91696 11.6783 9.41782 11.6783V12.128ZM11.5113 17.188C11.3741 17.3106 11.1755 17.3194 11.0208 17.2376C10.3317 16.6654 10.2091 16.3997 9.8295 15.8537C8.69078 17.0158 7.8849 17.3632 6.40749 17.3632C4.66144 17.3632 3.30078 16.2858 3.30078 14.128C3.30078 12.4434 4.21474 11.2958 5.51397 10.7353C6.64106 10.2388 8.21484 10.1513 9.41782 10.0141V9.74543C9.41782 9.25195 9.45573 8.66801 9.16671 8.24174C8.91265 7.85924 8.42798 7.70155 8.00165 7.70155C7.21042 7.70155 6.50381 8.10739 6.33154 8.94829C6.29646 9.1352 6.15928 9.31916 5.97242 9.3279L3.95772 9.11188C3.78841 9.07384 3.60156 8.93666 3.64827 8.67675C4.11251 6.23584 6.31689 5.5 8.29067 5.5C9.30094 5.5 10.6207 5.76865 11.4178 6.53366C12.4281 7.47673 12.3317 8.73515 12.3317 10.1045V13.3397C12.3317 14.312 12.7346 14.7383 13.1142 15.2639C13.2485 15.4507 13.2777 15.6756 13.1083 15.8157C12.685 16.169 11.9317 16.826 11.5171 17.1939L11.5112 17.188" fill="white"/>
</g>
<g clip-path="url(#clip1_59_2923)">
<path d="M70.7908 11.5397C71.0748 11.5397 71.3085 11.3935 71.3401 11.2046L71.6204 8.06507C71.6204 7.75475 71.2533 7.5 70.7917 7.5C70.3306 7.5 69.9639 7.75475 69.9639 8.06512L70.244 11.2046C70.2749 11.3934 70.5086 11.5397 70.7918 11.5397H70.7908ZM69.0774 12.5203C69.2198 12.2771 69.2091 12.0038 69.0589 11.8823L66.4531 10.0721C66.1822 9.91676 65.7759 10.1038 65.5454 10.4997C65.3141 10.8952 65.3551 11.3369 65.6253 11.4923L68.5107 12.8227C68.6911 12.8889 68.937 12.7615 69.0783 12.5185L69.0774 12.5203ZM72.5058 12.5186C72.648 12.7617 72.8927 12.8892 73.0732 12.8229L75.9587 11.4925C76.2306 11.3371 76.2692 10.8954 76.04 10.4999C75.8083 10.1043 75.4013 9.91693 75.1311 10.0723L72.5251 11.8825C72.3762 12.0038 72.3651 12.2773 72.5067 12.5205L72.5058 12.5186ZM70.7908 15.4615C71.0748 15.4615 71.3085 15.6064 71.3401 15.7955L71.6204 18.9346C71.6204 19.2459 71.2533 19.5001 70.7917 19.5001C70.3306 19.5001 69.9639 19.2459 69.9639 18.9346L70.244 15.7955C70.2749 15.6064 70.5086 15.4615 70.7918 15.4615H70.7908ZM72.5058 14.4806C72.648 14.2369 72.8927 14.1105 73.0732 14.1775L75.9587 15.5071C76.2306 15.6626 76.2692 16.1047 76.04 16.5005C75.8083 16.8948 75.4013 17.0827 75.1311 16.9276L72.5251 15.1191C72.3762 14.9968 72.3651 14.7231 72.5067 14.4801H72.5056M69.0774 14.4803C69.2198 14.7231 69.2091 14.9968 69.0589 15.1193L66.4531 16.9277C66.1822 17.0829 65.7759 16.895 65.5454 16.5007C65.3141 16.1049 65.3551 15.6628 65.6253 15.5072L68.5107 14.1777C68.6911 14.1107 68.937 14.2371 69.0783 14.4809H69.0774" fill="#FDBB30"/>
<path d="M54.3525 15.1134C54.3525 15.2098 54.3438 15.3092 54.3172 15.3964C54.2067 15.7589 53.8277 16.0654 53.3536 16.0654C52.9583 16.0654 52.6443 15.843 52.6443 15.3734C52.6443 14.6545 53.4433 14.456 54.3527 14.461L54.3525 15.1134V15.1134ZM55.779 13.8608C55.779 12.6755 55.2676 11.6325 53.5395 11.6325C52.6524 11.6325 51.9484 11.8792 51.5641 12.0991L51.8455 13.052C52.1967 12.8325 52.7565 12.6507 53.2862 12.6507C54.1627 12.6483 54.3063 13.1423 54.3063 13.4584V13.5333C52.3956 13.5305 51.1877 14.1856 51.1877 15.5203C51.1877 16.3359 51.8029 17.0997 52.8723 17.0997C53.5293 17.0997 54.0797 16.84 54.4091 16.4235H54.4416C54.4416 16.4235 54.6595 17.3277 55.8627 16.9818C55.7999 16.6058 55.7792 16.2044 55.7792 15.7217L55.7791 13.8608M26.0078 10.0183C26.0078 10.0183 27.2564 15.0849 27.4558 15.9072C27.6884 16.867 28.1076 17.2203 29.3156 16.9818L30.0952 13.8407C30.2929 13.06 30.4252 12.5035 30.5525 11.7102H30.5747C30.6641 12.5119 30.791 13.0625 30.9537 13.8432C30.9537 13.8432 31.2709 15.2693 31.4336 16.0181C31.5965 16.7667 32.0499 17.2388 33.2333 16.9818L35.0911 10.0181H33.5916L32.9571 13.029C32.7865 13.905 32.6318 14.5903 32.5125 15.3916H32.4913C32.3829 14.5974 32.2448 13.94 32.0715 13.0863L31.4114 10.0181H29.8489L29.1424 13.0089C28.9424 13.918 28.7549 14.6518 28.6362 15.4264H28.6145C28.4926 14.697 28.3303 13.7744 28.1546 12.8948C28.1546 12.8948 27.7352 10.7555 27.5877 10.0181L26.0078 10.0183ZM37.9274 15.1134C37.9274 15.2098 37.9188 15.3092 37.8918 15.3964C37.7815 15.7589 37.4023 16.0654 36.9282 16.0654C36.5328 16.0654 36.2193 15.843 36.2193 15.3734C36.2193 14.6545 37.018 14.456 37.9276 14.461L37.9274 15.1134V15.1134ZM39.3538 13.8608C39.3538 12.6755 38.8423 11.6325 37.1146 11.6325C36.2273 11.6325 35.5227 11.8792 35.1386 12.0991L35.4197 13.052C35.7709 12.8325 36.3306 12.6507 36.8605 12.6507C37.7377 12.6483 37.8812 13.1423 37.8812 13.4584V13.5333C35.9697 13.5305 34.7624 14.1856 34.7624 15.5203C34.7624 16.3359 35.3773 17.0997 36.4458 17.0997C37.1038 17.0997 37.6539 16.84 37.9836 16.4235H38.0157C38.0157 16.4235 38.2343 17.3277 39.4372 16.9818C39.3743 16.6058 39.3538 16.2044 39.3538 15.7217V13.8608ZM41.7343 15.5036V10.0183H40.3061V16.982H41.7343V15.5036ZM60.4178 10.0183V15.1553C60.4178 15.8639 60.5527 16.3597 60.8403 16.6632C61.0923 16.9286 61.5064 17.1003 62.003 17.1003C62.4254 17.1003 62.8407 17.0205 63.0367 16.9485L63.0183 15.8436C62.8724 15.8789 62.705 15.9074 62.4758 15.9074C61.9892 15.9074 61.8264 15.5987 61.8264 14.9629V12.9974H63.0701V11.6648H61.8264V10.0183H60.4178ZM56.7313 11.7506V16.982H58.2046V14.3034C58.2046 14.1586 58.2135 14.0325 58.2366 13.9171C58.3456 13.3557 58.7789 12.9974 59.4012 12.9974C59.5718 12.9974 59.6939 13.0157 59.8262 13.0343V11.6648C59.7152 11.6429 59.6398 11.6327 59.5017 11.6327C58.9519 11.6327 58.3264 11.984 58.0639 12.7376H58.0241V11.7506H56.7313ZM42.7343 11.7506V16.982H44.1697V13.9143C44.1697 13.7704 44.1868 13.6181 44.2371 13.4861C44.3561 13.1773 44.6463 12.8155 45.1095 12.8155C45.689 12.8155 45.9596 13.3005 45.9596 14.0003V16.9816H47.3938V13.8766C47.3938 13.7392 47.4128 13.5736 47.4538 13.4525C47.5716 13.101 47.8842 12.8152 48.3149 12.8152C48.9021 12.8152 49.1839 13.2916 49.1839 14.1153V16.9814H50.6192V13.9001C50.6192 12.2754 49.786 11.6322 48.8454 11.6322C48.4292 11.6322 48.1003 11.7354 47.8029 11.9159C47.5532 12.0682 47.3292 12.2841 47.1338 12.5679H47.1126C46.8857 12.0041 46.3521 11.6324 45.6566 11.6324C44.7632 11.6324 44.3617 12.0809 44.1181 12.4613H44.0968V11.7505H42.7343" fill="#1A75CF"/>
<path d="M76.6846 16.7278H76.7062C76.735 16.7278 76.7534 16.716 76.7534 16.6985C76.7534 16.6786 76.7361 16.6678 76.7094 16.6678C76.7002 16.6678 76.6908 16.6697 76.6846 16.6697V16.7283V16.7277L76.6846 16.7278ZM76.6812 16.8688H76.6049V16.6226C76.6222 16.6193 76.6626 16.6133 76.7143 16.6133C76.7705 16.6133 76.7957 16.6211 76.8141 16.6334C76.8296 16.6442 76.841 16.6626 76.841 16.6874C76.841 16.7126 76.8175 16.734 76.7829 16.7434V16.7465C76.8111 16.754 76.8265 16.7743 76.8346 16.8098C76.8423 16.8453 76.847 16.8598 76.8518 16.869H76.7654C76.7579 16.8598 76.7534 16.838 76.7483 16.8163C76.7434 16.7914 76.7316 16.7789 76.7061 16.7789H76.6811L76.6812 16.8688ZM76.7128 16.5424C76.6032 16.5424 76.5206 16.6308 76.5206 16.7435C76.5206 16.8533 76.6035 16.9429 76.7158 16.9429C76.8286 16.9447 76.9114 16.8533 76.9114 16.7417C76.9114 16.6306 76.8286 16.5424 76.7145 16.5424H76.7128ZM76.7177 16.4756C76.8704 16.4756 76.9922 16.5947 76.9922 16.7417C76.9922 16.8904 76.8704 17.0096 76.7156 17.0096C76.5608 17.0096 76.4375 16.8902 76.4375 16.7417C76.4375 16.5947 76.561 16.4756 76.7156 16.4756H76.7173" fill="#FDBB30"/>
</g>
<g clip-path="url(#clip2_59_2923)">
<path d="M93.3181 15.8794C91.0253 15.8794 89.1647 14.0217 89.1647 11.7285C89.1647 9.43125 91.0253 7.57491 93.3181 7.57491C95.6128 7.57491 97.4711 9.43125 97.4711 11.7285C97.4711 14.0217 95.6128 15.8794 93.3181 15.8794ZM93.3181 5.50098C89.8809 5.50098 87.0938 8.28891 87.0938 11.7285C87.0938 15.1655 89.881 17.9526 93.3181 17.9526C96.7567 17.9526 99.5483 15.1655 99.5483 11.7285C99.5483 8.28891 96.7567 5.50098 93.3181 5.50098Z" fill="#FE0707"/>
<path d="M93.3162 9.59473C92.138 9.59473 91.1834 10.547 91.1834 11.7287C91.1834 12.9066 92.138 13.8617 93.3162 13.8617C94.4955 13.8617 95.4521 12.9065 95.4521 11.7287C95.4521 10.547 94.4955 9.59473 93.3162 9.59473ZM87.6865 19.5771H87V19.1534H88.8768V19.5771H88.1903V21.4442H87.6865V19.5771ZM88.6586 21.4442H89.1685L89.3483 20.934H90.205L90.3783 21.4442H90.9011L90.0445 19.1534H89.5281L88.6586 21.4442ZM89.7783 19.7179H89.7846L90.0732 20.5586H89.4801L89.7783 19.7179ZM91.0998 21.4442H91.6038V20.5491H92.1072C92.3609 20.5491 92.4538 20.6549 92.4889 20.8954C92.5149 21.0784 92.5084 21.2998 92.5694 21.4443H93.0729C92.9831 21.316 92.9864 21.0461 92.9767 20.9018C92.9606 20.6705 92.8902 20.4302 92.643 20.3661V20.3597C92.8968 20.2571 93.0058 20.0552 93.0058 19.7854C93.0058 19.4391 92.7457 19.1536 92.3352 19.1536H91.0998L91.0998 21.4442ZM91.6038 19.5448H92.1557C92.3799 19.5448 92.5019 19.6411 92.5019 19.8622C92.5019 20.0931 92.3799 20.1895 92.1557 20.1895H91.6038V19.5448ZM95.0074 21.1842C94.8308 21.4123 94.6002 21.4993 94.3787 21.4993C93.6699 21.4993 93.2527 20.969 93.2527 20.3081C93.2527 19.6282 93.6698 19.0991 94.3787 19.0991C94.847 19.0991 95.2899 19.3879 95.3446 19.9071H94.8631C94.8052 19.6534 94.616 19.5224 94.3787 19.5224C93.9263 19.5224 93.756 19.9071 93.756 20.3081C93.756 20.69 93.9263 21.0748 94.3787 21.0748C94.7061 21.0748 94.8949 20.8985 94.924 20.5807H94.4173V20.2057H95.3796V21.4442H95.0585L95.0074 21.1842ZM95.723 19.1534H97.4356V19.5771H96.2266V20.0677H97.3365V20.4595H96.2266V21.0206H97.4616V21.4442H95.723V19.1534ZM98.3727 19.5771H97.6862V19.1534H99.5632V19.5771H98.8763V21.4442H98.3727V19.5771Z" fill="#FE0707"/>
</g>
<g clip-path="url(#clip3_59_2923)">
<path d="M113.442 10.1191C111.326 10.1191 109.562 11.0149 109.562 13.7179C109.562 15.8593 110.748 17.2077 113.496 17.2077C116.731 17.2077 116.938 15.0811 116.938 15.0811H115.371C115.371 15.0811 115.035 16.2262 113.401 16.2262C112.07 16.2262 111.112 15.3288 111.112 14.0711H117.102V13.2817C117.102 12.0374 116.311 10.1191 113.442 10.1191ZM113.387 11.1279C114.654 11.1279 115.518 11.9026 115.518 13.0636H111.147C111.147 11.831 112.275 11.1279 113.387 11.1279Z" fill="#E53238"/>
<path d="M117.1 7.50195V15.8505C117.1 16.3244 117.066 16.9898 117.066 16.9898H118.561C118.561 16.9898 118.615 16.512 118.615 16.0751C118.615 16.0751 119.354 17.2284 121.362 17.2284C123.477 17.2284 124.913 15.763 124.913 13.6636C124.913 11.7105 123.594 10.1397 121.365 10.1397C119.279 10.1397 118.63 11.2643 118.63 11.2643V7.50195H117.1ZM120.98 11.1724C122.416 11.1724 123.329 12.2361 123.329 13.6636C123.329 15.1944 122.274 16.1958 120.99 16.1958C119.457 16.1958 118.63 15.0013 118.63 13.6772C118.63 12.4435 119.372 11.1724 120.98 11.1724Z" fill="#0064D2"/>
<path d="M128.629 10.1191C125.446 10.1191 125.242 11.8586 125.242 12.1367H126.826C126.826 12.1367 126.909 11.1211 128.52 11.1211C129.567 11.1211 130.378 11.5993 130.378 12.5183V12.8455H128.52C126.054 12.8455 124.75 13.5656 124.75 15.0267C124.75 16.4646 125.955 17.2469 127.583 17.2469C129.801 17.2469 130.516 16.0235 130.516 16.0235C130.516 16.5101 130.553 16.9897 130.553 16.9897H131.962C131.962 16.9897 131.907 16.3953 131.907 16.015V12.728C131.907 10.5726 130.166 10.1191 128.629 10.1191ZM130.378 13.827V14.2632C130.378 14.8322 130.026 16.2467 127.955 16.2467C126.821 16.2467 126.334 15.6818 126.334 15.0266C126.334 13.8347 127.972 13.827 130.378 13.827Z" fill="#F5AF02"/>
<path d="M131.055 10.3921H132.837L135.395 15.5071L137.948 10.3921H139.562L134.913 19.4984H133.22L134.561 16.9598L131.055 10.3921Z" fill="#86B817"/>
</g>
<rect x="65" y="0.5" width="79" height="26" fill="url(#paint0_linear_59_2923)"/>
<defs>
<linearGradient id="paint0_linear_59_2923" x1="98.3039" y1="13.5" x2="144" y2="13.5" gradientUnits="userSpaceOnUse">
<stop stop-color="#242738" stop-opacity="0"/>
<stop offset="1" stop-color="#242738"/>
</linearGradient>
<clipPath id="clip0_59_2923">
<rect width="16" height="16" fill="white" transform="translate(0 5.5)"/>
</clipPath>
<clipPath id="clip1_59_2923">
<rect width="51" height="12" fill="white" transform="translate(26 7.5)"/>
</clipPath>
<clipPath id="clip2_59_2923">
<rect width="12.5632" height="16" fill="white" transform="translate(87 5.5)"/>
</clipPath>
<clipPath id="clip3_59_2923">
<rect width="30" height="12" fill="white" transform="translate(109.562 7.5)"/>
</clipPath>
</defs>
</svg>
