<svg width="102" height="27" viewBox="0 0 102 27" fill="none" xmlns="http://www.w3.org/2000/svg">
<g clip-path="url(#clip0_59_2922)">
<mask id="mask0_59_2922" style="mask-type:luminance" maskUnits="userSpaceOnUse" x="0" y="5" width="16" height="17">
<path d="M15.7046 12.0455H8.25V15.1364H12.5409C12.1409 17.1 10.4682 18.2273 8.25 18.2273C5.63182 18.2273 3.52273 16.1182 3.52273 13.5C3.52273 10.8818 5.63182 8.77273 8.25 8.77273C9.37728 8.77273 10.3955 9.17273 11.1955 9.82727L13.5227 7.5C12.1045 6.26364 10.2864 5.5 8.25 5.5C3.81364 5.5 0.25 9.06364 0.25 13.5C0.25 17.9364 3.81364 21.5 8.25 21.5C12.25 21.5 15.8864 18.5909 15.8864 13.5C15.8864 13.0273 15.8136 12.5182 15.7046 12.0455Z" fill="white"/>
</mask>
<g mask="url(#mask0_59_2922)">
<path d="M-0.476562 18.2275V8.77295L5.70526 13.5002L-0.476562 18.2275Z" fill="#FBBC05"/>
</g>
<mask id="mask1_59_2922" style="mask-type:luminance" maskUnits="userSpaceOnUse" x="0" y="5" width="16" height="17">
<path d="M15.7046 12.0455H8.25V15.1364H12.5409C12.1409 17.1 10.4682 18.2273 8.25 18.2273C5.63182 18.2273 3.52273 16.1182 3.52273 13.5C3.52273 10.8818 5.63182 8.77273 8.25 8.77273C9.37728 8.77273 10.3955 9.17273 11.1955 9.82727L13.5227 7.5C12.1045 6.26364 10.2864 5.5 8.25 5.5C3.81364 5.5 0.25 9.06364 0.25 13.5C0.25 17.9364 3.81364 21.5 8.25 21.5C12.25 21.5 15.8864 18.5909 15.8864 13.5C15.8864 13.0273 15.8136 12.5182 15.7046 12.0455Z" fill="white"/>
</mask>
<g mask="url(#mask1_59_2922)">
<path d="M-0.476562 8.77295L5.70526 13.5002L8.25071 11.282L16.978 9.86386V4.77295H-0.476562V8.77295Z" fill="#EA4335"/>
</g>
<mask id="mask2_59_2922" style="mask-type:luminance" maskUnits="userSpaceOnUse" x="0" y="5" width="16" height="17">
<path d="M15.7046 12.0455H8.25V15.1364H12.5409C12.1409 17.1 10.4682 18.2273 8.25 18.2273C5.63182 18.2273 3.52273 16.1182 3.52273 13.5C3.52273 10.8818 5.63182 8.77273 8.25 8.77273C9.37728 8.77273 10.3955 9.17273 11.1955 9.82727L13.5227 7.5C12.1045 6.26364 10.2864 5.5 8.25 5.5C3.81364 5.5 0.25 9.06364 0.25 13.5C0.25 17.9364 3.81364 21.5 8.25 21.5C12.25 21.5 15.8864 18.5909 15.8864 13.5C15.8864 13.0273 15.8136 12.5182 15.7046 12.0455Z" fill="white"/>
</mask>
<g mask="url(#mask2_59_2922)">
<path d="M-0.476562 18.2275L10.4325 9.86386L13.3053 10.2275L16.978 4.77295V22.2275H-0.476562V18.2275Z" fill="#34A853"/>
</g>
<mask id="mask3_59_2922" style="mask-type:luminance" maskUnits="userSpaceOnUse" x="0" y="5" width="16" height="17">
<path d="M15.7046 12.0455H8.25V15.1364H12.5409C12.1409 17.1 10.4682 18.2273 8.25 18.2273C5.63182 18.2273 3.52273 16.1182 3.52273 13.5C3.52273 10.8818 5.63182 8.77273 8.25 8.77273C9.37728 8.77273 10.3955 9.17273 11.1955 9.82727L13.5227 7.5C12.1045 6.26364 10.2864 5.5 8.25 5.5C3.81364 5.5 0.25 9.06364 0.25 13.5C0.25 17.9364 3.81364 21.5 8.25 21.5C12.25 21.5 15.8864 18.5909 15.8864 13.5C15.8864 13.0273 15.8136 12.5182 15.7046 12.0455Z" fill="white"/>
</mask>
<g mask="url(#mask3_59_2922)">
<path d="M16.9773 22.2275L5.70455 13.5002L4.25 12.4093L16.9773 8.77295V22.2275Z" fill="#4285F4"/>
</g>
</g>
<g clip-path="url(#clip1_59_2922)">
<path d="M32.3528 9.64767L33.9836 13.1811L36.3891 14.2662L27.7064 18.8333L31.2656 15.6659V6.6236L27.6016 5.5V18.9489L31.2442 21.5L40.3998 16.0425V12.111L32.3528 9.64767Z" fill="#00897B"/>
</g>
<g clip-path="url(#clip2_59_2922)">
<path fill-rule="evenodd" clip-rule="evenodd" d="M60.2301 10.4708H57.6368L56.117 14.0167L54.5972 10.4708H52.0039C52.9459 12.6686 53.8876 14.8669 54.83 17.0645L53.7861 19.5H56.3794C57.6762 16.4743 58.9416 13.4769 60.23 10.4709L60.2301 10.4708ZM93.2056 7.51891H95.9965L93.4727 13.4928H90.6819L93.2056 7.51891ZM91.3679 14.0689C92.2369 14.0689 92.9414 14.759 92.9414 15.6104C92.9414 16.4617 92.2369 17.1518 91.3679 17.1518C90.4989 17.1518 89.7944 16.4617 89.7944 15.6104C89.7944 14.7591 90.4989 14.0689 91.3679 14.0689ZM85.8804 10.2915C87.8346 10.2915 89.4188 11.8434 89.4188 13.7577C89.4188 15.6721 87.8346 17.224 85.8804 17.224C83.9262 17.224 82.3421 15.6721 82.3421 13.7577C82.3421 11.8433 83.9262 10.2915 85.8804 10.2915ZM85.8804 12.4043C86.6435 12.4043 87.2621 13.0103 87.2621 13.7578C87.2621 14.5053 86.6435 15.1113 85.8804 15.1113C85.1173 15.1113 84.4988 14.5053 84.4988 13.7578C84.4988 13.0103 85.1173 12.4043 85.8804 12.4043ZM78.2841 10.2915C80.2383 10.2915 81.8224 11.8434 81.8224 13.7577C81.8224 15.6721 80.2382 17.224 78.2841 17.224C76.3299 17.224 74.7457 15.6721 74.7457 13.7577C74.7457 11.8433 76.3299 10.2915 78.2841 10.2915ZM78.2841 12.4043C79.0471 12.4043 79.6657 13.0103 79.6657 13.7578C79.6657 14.5053 79.0471 15.1113 78.2841 15.1113C77.521 15.1113 76.9025 14.5053 76.9025 13.7578C76.9025 13.0103 77.521 12.4043 78.2841 12.4043ZM67.8378 7.50006H70.1776V11.0635C70.1776 11.0635 70.587 10.2915 71.9393 10.2915C73.2915 10.2915 74.1588 10.8743 74.1761 13.2609V17.1518H71.8363V13.2609C71.8363 12.8122 71.465 12.4484 71.007 12.4484C70.5383 12.4484 70.1663 12.8259 70.178 13.2839L70.1776 17.1518H67.8378V7.5L67.8378 7.50006ZM64.6518 10.4708H66.9916V17.1519H64.6518V16.522C64.1278 16.9625 63.4748 17.2241 62.7667 17.2241C61.0411 17.2241 59.6423 15.6722 59.6423 13.7578C59.6423 11.8435 61.0411 10.2916 62.7667 10.2916C63.4748 10.2916 64.1279 10.5531 64.6518 10.9936V10.4709V10.4708ZM63.3339 12.4043C64.0969 12.4043 64.7155 13.0103 64.7155 13.7578C64.7155 14.5053 64.0969 15.1113 63.3339 15.1113C62.5708 15.1113 61.9522 14.5053 61.9522 13.7578C61.9522 13.0103 62.5708 12.4043 63.3339 12.4043Z" fill="#8A2CF9"/>
</g>
<rect x="40" y="0.5" width="62" height="26" fill="url(#paint0_linear_59_2922)"/>
<defs>
<linearGradient id="paint0_linear_59_2922" x1="66.1373" y1="13.5" x2="102" y2="13.5" gradientUnits="userSpaceOnUse">
<stop stop-color="#242738" stop-opacity="0"/>
<stop offset="1" stop-color="#242738"/>
</linearGradient>
<clipPath id="clip0_59_2922">
<rect width="16" height="16" fill="white" transform="translate(0 5.5)"/>
</clipPath>
<clipPath id="clip1_59_2922">
<rect width="16" height="16" fill="white" transform="translate(26 5.5)"/>
</clipPath>
<clipPath id="clip2_59_2922">
<rect width="44" height="12" fill="white" transform="translate(52 7.5)"/>
</clipPath>
</defs>
</svg>
