<svg width="102" height="27" viewBox="0 0 102 27" fill="none" xmlns="http://www.w3.org/2000/svg">
<g clip-path="url(#clip0_59_2916)">
<path d="M12.3338 13.5C12.3338 12.0273 13.5273 10.8331 15 10.8331C16.4727 10.8331 17.6669 12.0273 17.6669 13.5C17.6669 14.9727 16.4727 16.1669 15 16.1669C13.5273 16.1669 12.3338 14.9727 12.3338 13.5ZM10.8921 13.5C10.8921 15.7688 12.7312 17.6079 15 17.6079C17.2688 17.6079 19.1079 15.7688 19.1079 13.5C19.1079 11.2312 17.2688 9.3921 15 9.3921C12.7312 9.3921 10.8921 11.2312 10.8921 13.5ZM18.3105 9.22922C18.3105 9.41909 18.3667 9.60471 18.4721 9.76263C18.5775 9.92054 18.7274 10.0436 18.9028 10.1164C19.0782 10.1891 19.2712 10.2082 19.4574 10.1712C19.6437 10.1343 19.8148 10.0429 19.9491 9.90869C20.0834 9.77449 20.1749 9.60347 20.212 9.41726C20.2491 9.23106 20.2302 9.03802 20.1576 8.86258C20.085 8.68713 19.962 8.53715 19.8042 8.4316C19.6464 8.32605 19.4608 8.26968 19.2709 8.2696H19.2705C19.016 8.26972 18.772 8.37085 18.592 8.55077C18.412 8.7307 18.3107 8.97471 18.3105 9.22922ZM11.768 20.0118C10.988 19.9763 10.5641 19.8464 10.2824 19.7366C9.90886 19.5912 9.64237 19.418 9.36218 19.1382C9.08198 18.8584 8.90854 18.5922 8.76378 18.2187C8.65395 17.9371 8.52403 17.513 8.48858 16.733C8.44979 15.8898 8.44205 15.6364 8.44205 13.5001C8.44205 11.3637 8.45043 11.1111 8.48858 10.2671C8.5241 9.48714 8.65498 9.0639 8.76378 8.78147C8.90918 8.40797 9.08237 8.14147 9.36218 7.86128C9.64198 7.58109 9.90822 7.40765 10.2824 7.26288C10.564 7.15306 10.988 7.02314 11.768 6.98768C12.6113 6.9489 12.8646 6.94115 15 6.94115C17.1354 6.94115 17.389 6.94954 18.233 6.98768C19.0129 7.0232 19.4362 7.15408 19.7186 7.26288C20.0921 7.40765 20.3586 7.58147 20.6388 7.86128C20.919 8.14109 21.0918 8.40797 21.2372 8.78147C21.347 9.06307 21.4769 9.48714 21.5124 10.2671C21.5512 11.1111 21.5589 11.3637 21.5589 13.5001C21.5589 15.6364 21.5512 15.8891 21.5124 16.733C21.4769 17.513 21.3463 17.9369 21.2372 18.2187C21.0918 18.5922 20.9186 18.8587 20.6388 19.1382C20.359 19.4178 20.0921 19.5912 19.7186 19.7366C19.437 19.8464 19.0129 19.9764 18.233 20.0118C17.3897 20.0506 17.1364 20.0583 15 20.0583C12.8636 20.0583 12.611 20.0506 11.768 20.0118ZM11.7018 5.54845C10.8501 5.58723 10.2682 5.72227 9.75994 5.92003C9.2336 6.12426 8.78803 6.39824 8.34278 6.84278C7.89754 7.28733 7.62426 7.7336 7.42003 8.25994C7.22227 8.76848 7.08723 9.35011 7.04845 10.2018C7.00902 11.0548 7 11.3275 7 13.5C7 15.6725 7.00902 15.9452 7.04845 16.7982C7.08723 17.65 7.22227 18.2315 7.42003 18.7401C7.62426 19.2661 7.8976 19.7129 8.34278 20.1572C8.78797 20.6016 9.2336 20.8752 9.75994 21.08C10.2691 21.2777 10.8501 21.4128 11.7018 21.4516C12.5552 21.4903 12.8275 21.5 15 21.5C17.1725 21.5 17.4452 21.491 18.2982 21.4516C19.15 21.4128 19.7315 21.2777 20.2401 21.08C20.7661 20.8752 21.212 20.6018 21.6572 20.1572C22.1025 19.7127 22.3752 19.2661 22.58 18.7401C22.7777 18.2315 22.9134 17.6499 22.9516 16.7982C22.9903 15.9446 22.9994 15.6725 22.9994 13.5C22.9994 11.3275 22.9903 11.0548 22.9516 10.2018C22.9128 9.35005 22.7777 8.76816 22.58 8.25994C22.3752 7.73392 22.1018 7.28803 21.6572 6.84278C21.2127 6.39754 20.7661 6.12426 20.2407 5.92003C19.7315 5.72227 19.1499 5.58659 18.2989 5.54845C17.4459 5.50966 17.1732 5.5 15.0006 5.5C12.8281 5.5 12.5552 5.50902 11.7018 5.54845Z" fill="url(#paint0_radial_59_2916)"/>
<path d="M12.3338 13.5C12.3338 12.0273 13.5273 10.8331 15 10.8331C16.4727 10.8331 17.6669 12.0273 17.6669 13.5C17.6669 14.9727 16.4727 16.1669 15 16.1669C13.5273 16.1669 12.3338 14.9727 12.3338 13.5ZM10.8921 13.5C10.8921 15.7688 12.7312 17.6079 15 17.6079C17.2688 17.6079 19.1079 15.7688 19.1079 13.5C19.1079 11.2312 17.2688 9.3921 15 9.3921C12.7312 9.3921 10.8921 11.2312 10.8921 13.5ZM18.3105 9.22922C18.3105 9.41909 18.3667 9.60471 18.4721 9.76263C18.5775 9.92054 18.7274 10.0436 18.9028 10.1164C19.0782 10.1891 19.2712 10.2082 19.4574 10.1712C19.6437 10.1343 19.8148 10.0429 19.9491 9.90869C20.0834 9.77449 20.1749 9.60347 20.212 9.41726C20.2491 9.23106 20.2302 9.03802 20.1576 8.86258C20.085 8.68713 19.962 8.53715 19.8042 8.4316C19.6464 8.32605 19.4608 8.26968 19.2709 8.2696H19.2705C19.016 8.26972 18.772 8.37085 18.592 8.55077C18.412 8.7307 18.3107 8.97471 18.3105 9.22922ZM11.768 20.0118C10.988 19.9763 10.5641 19.8464 10.2824 19.7366C9.90886 19.5912 9.64237 19.418 9.36218 19.1382C9.08198 18.8584 8.90854 18.5922 8.76378 18.2187C8.65395 17.9371 8.52403 17.513 8.48858 16.733C8.44979 15.8898 8.44205 15.6364 8.44205 13.5001C8.44205 11.3637 8.45043 11.1111 8.48858 10.2671C8.5241 9.48714 8.65498 9.0639 8.76378 8.78147C8.90918 8.40797 9.08237 8.14147 9.36218 7.86128C9.64198 7.58109 9.90822 7.40765 10.2824 7.26288C10.564 7.15306 10.988 7.02314 11.768 6.98768C12.6113 6.9489 12.8646 6.94115 15 6.94115C17.1354 6.94115 17.389 6.94954 18.233 6.98768C19.0129 7.0232 19.4362 7.15408 19.7186 7.26288C20.0921 7.40765 20.3586 7.58147 20.6388 7.86128C20.919 8.14109 21.0918 8.40797 21.2372 8.78147C21.347 9.06307 21.4769 9.48714 21.5124 10.2671C21.5512 11.1111 21.5589 11.3637 21.5589 13.5001C21.5589 15.6364 21.5512 15.8891 21.5124 16.733C21.4769 17.513 21.3463 17.9369 21.2372 18.2187C21.0918 18.5922 20.9186 18.8587 20.6388 19.1382C20.359 19.4178 20.0921 19.5912 19.7186 19.7366C19.437 19.8464 19.0129 19.9764 18.233 20.0118C17.3897 20.0506 17.1364 20.0583 15 20.0583C12.8636 20.0583 12.611 20.0506 11.768 20.0118ZM11.7018 5.54845C10.8501 5.58723 10.2682 5.72227 9.75994 5.92003C9.2336 6.12426 8.78803 6.39824 8.34278 6.84278C7.89754 7.28733 7.62426 7.7336 7.42003 8.25994C7.22227 8.76848 7.08723 9.35011 7.04845 10.2018C7.00902 11.0548 7 11.3275 7 13.5C7 15.6725 7.00902 15.9452 7.04845 16.7982C7.08723 17.65 7.22227 18.2315 7.42003 18.7401C7.62426 19.2661 7.8976 19.7129 8.34278 20.1572C8.78797 20.6016 9.2336 20.8752 9.75994 21.08C10.2691 21.2777 10.8501 21.4128 11.7018 21.4516C12.5552 21.4903 12.8275 21.5 15 21.5C17.1725 21.5 17.4452 21.491 18.2982 21.4516C19.15 21.4128 19.7315 21.2777 20.2401 21.08C20.7661 20.8752 21.212 20.6018 21.6572 20.1572C22.1025 19.7127 22.3752 19.2661 22.58 18.7401C22.7777 18.2315 22.9134 17.6499 22.9516 16.7982C22.9903 15.9446 22.9994 15.6725 22.9994 13.5C22.9994 11.3275 22.9903 11.0548 22.9516 10.2018C22.9128 9.35005 22.7777 8.76816 22.58 8.25994C22.3752 7.73392 22.1018 7.28803 21.6572 6.84278C21.2127 6.39754 20.7661 6.12426 20.2407 5.92003C19.7315 5.72227 19.1499 5.58659 18.2989 5.54845C17.4459 5.50966 17.1732 5.5 15.0006 5.5C12.8281 5.5 12.5552 5.50902 11.7018 5.54845Z" fill="url(#paint1_radial_59_2916)"/>
</g>
<g clip-path="url(#clip1_59_2916)">
<path d="M49 13.5C49 9.08172 45.4183 5.5 41 5.5C36.5817 5.5 33 9.08172 33 13.5C33 17.493 35.9255 20.8027 39.75 21.4028V15.8125H37.7188V13.5H39.75V11.7375C39.75 9.7325 40.9444 8.625 42.7717 8.625C43.6467 8.625 44.5625 8.78125 44.5625 8.78125V10.75H43.5538C42.56 10.75 42.25 11.3667 42.25 12V13.5H44.4688L44.1141 15.8125H42.25V21.4028C46.0745 20.8027 49 17.493 49 13.5Z" fill="#3B5998"/>
</g>
<path d="M64.0334 20C70.0697 20 73.3722 14.9978 73.3722 10.6612C73.3722 10.5206 73.3691 10.3769 73.3628 10.2362C74.0053 9.77164 74.5597 9.19617 75 8.53687C74.4017 8.80307 73.7664 8.97692 73.1159 9.05249C73.8009 8.64194 74.3137 7.99698 74.5594 7.23718C73.915 7.61904 73.2104 7.88841 72.4756 8.03374C71.9806 7.50771 71.326 7.15941 70.6131 7.0427C69.9003 6.92599 69.1688 7.04737 68.5318 7.38806C67.8949 7.72876 67.3879 8.2698 67.0892 8.92754C66.7906 9.58528 66.717 10.3231 66.8797 11.0269C65.575 10.9614 64.2986 10.6225 63.1333 10.0321C61.968 9.44166 60.9398 8.61296 60.1153 7.59968C59.6963 8.32216 59.568 9.1771 59.7567 9.99073C59.9453 10.8044 60.4367 11.5156 61.1309 11.98C60.6098 11.9634 60.1 11.8231 59.6438 11.5706V11.6112C59.6433 12.3694 59.9054 13.1044 60.3855 13.6912C60.8657 14.278 61.5342 14.6804 62.2775 14.83C61.7947 14.9621 61.288 14.9813 60.7966 14.8862C61.0063 15.5383 61.4144 16.1086 61.9638 16.5176C62.5133 16.9265 63.1767 17.1537 63.8616 17.1675C62.6989 18.0807 61.2628 18.5761 59.7844 18.5737C59.5222 18.5733 59.2603 18.5573 59 18.5256C60.5019 19.4892 62.249 20.0009 64.0334 20Z" fill="#00ACEE"/>
<g clip-path="url(#clip2_59_2916)">
<path d="M99.8156 5.5H86.1812C85.5281 5.5 85 6.01563 85 6.65313V20.3438C85 20.9813 85.5281 21.5 86.1812 21.5H99.8156C100.469 21.5 101 20.9813 101 20.3469V6.65313C101 6.01563 100.469 5.5 99.8156 5.5ZM89.7469 19.1344H87.3719V11.4969H89.7469V19.1344ZM88.5594 10.4563C87.7969 10.4563 87.1813 9.84062 87.1813 9.08125C87.1813 8.32188 87.7969 7.70625 88.5594 7.70625C89.3188 7.70625 89.9344 8.32188 89.9344 9.08125C89.9344 9.8375 89.3188 10.4563 88.5594 10.4563ZM98.6344 19.1344H96.2625V15.4219C96.2625 14.5375 96.2469 13.3969 95.0281 13.3969C93.7937 13.3969 93.6062 14.3625 93.6062 15.3594V19.1344H91.2375V11.4969H93.5125V12.5406H93.5437C93.8594 11.9406 94.6344 11.3063 95.7875 11.3063C98.1906 11.3063 98.6344 12.8875 98.6344 14.9438V19.1344V19.1344Z" fill="#0072B1"/>
</g>
<rect y="0.5" width="102" height="26" fill="url(#paint2_linear_59_2916)"/>
<defs>
<radialGradient id="paint0_radial_59_2916" cx="0" cy="0" r="1" gradientUnits="userSpaceOnUse" gradientTransform="translate(9.1257 21.5756) scale(20.8867 20.8867)">
<stop offset="0.09" stop-color="#FA8F21"/>
<stop offset="0.78" stop-color="#D82D7E"/>
</radialGradient>
<radialGradient id="paint1_radial_59_2916" cx="0" cy="0" r="1" gradientUnits="userSpaceOnUse" gradientTransform="translate(16.7033 22.2924) scale(16.4616)">
<stop offset="0.64" stop-color="#8C3AAA" stop-opacity="0"/>
<stop offset="1" stop-color="#8C3AAA"/>
</radialGradient>
<linearGradient id="paint2_linear_59_2916" x1="43" y1="13.5" x2="102" y2="13.5" gradientUnits="userSpaceOnUse">
<stop stop-color="#242738" stop-opacity="0"/>
<stop offset="1" stop-color="#242738"/>
</linearGradient>
<clipPath id="clip0_59_2916">
<rect width="16" height="16" fill="white" transform="translate(7 5.5)"/>
</clipPath>
<clipPath id="clip1_59_2916">
<rect width="16" height="16" fill="white" transform="translate(33 5.5)"/>
</clipPath>
<clipPath id="clip2_59_2916">
<rect width="16" height="16" fill="white" transform="translate(85 5.5)"/>
</clipPath>
</defs>
</svg>
