<svg width="801" height="212" viewBox="0 0 801 212" fill="none" xmlns="http://www.w3.org/2000/svg">
<g clip-path="url(#clip0_29_1409)">
<rect x="91" y="-74.2451" width="99" height="99" rx="13.5" fill="white" stroke="#F0EBE6"/>
<rect x="221" y="-74.2451" width="99" height="99" rx="13.5" fill="white" stroke="#F0EBE6"/>
<rect x="351" y="-74.2451" width="99" height="99" rx="13.5" fill="white" stroke="#F0EBE6"/>
<rect x="481" y="-74.2451" width="99" height="99" rx="13.5" fill="white" stroke="#F0EBE6"/>
<rect x="611" y="-74.2451" width="99" height="99" rx="13.5" fill="white" stroke="#F0EBE6"/>
<rect x="91" y="55.7549" width="99" height="99" rx="13.5" fill="white" stroke="url(#paint0_linear_29_1409)"/>
<rect x="221" y="55.7549" width="99" height="99" rx="13.5" fill="white" stroke="url(#paint1_linear_29_1409)"/>
<g filter="url(#filter0_d_29_1409)">
<rect x="350.5" y="55.2549" width="100" height="100" rx="20" fill="white"/>
</g>
<rect x="356" y="60.7549" width="89" height="89" rx="15.5" fill="white" stroke="#F0EBE6"/>
<line x1="410.25" y1="125.255" x2="410.25" y2="137.255" stroke="url(#paint2_linear_29_1409)" stroke-width="1.5"/>
<line x1="392.25" y1="125.255" x2="392.25" y2="137.255" stroke="url(#paint3_linear_29_1409)" stroke-width="1.5"/>
<line y1="-0.75" x2="12" y2="-0.75" transform="matrix(4.37114e-08 -1 -1 -4.37114e-08 409.5 85.2549)" stroke="url(#paint4_linear_29_1409)" stroke-width="1.5" stroke-dasharray="2 2"/>
<line y1="-0.75" x2="12" y2="-0.75" transform="matrix(4.37114e-08 -1 -1 -4.37114e-08 391.5 85.2549)" stroke="url(#paint5_linear_29_1409)" stroke-width="1.5" stroke-dasharray="2 2"/>
<g filter="url(#filter1_d_29_1409)">
<rect x="380.5" y="85.2549" width="40" height="40" rx="7" fill="white"/>
<rect x="381.25" y="86.0049" width="38.5" height="38.5" rx="6.25" stroke="url(#paint6_linear_29_1409)" stroke-width="1.5"/>
</g>
<path fill-rule="evenodd" clip-rule="evenodd" d="M390 97.2549H410V102.255H408.5V98.7549H391.5V111.755H399V113.255H390V97.2549ZM401 110.005V108.505C402.645 108.505 403.658 108.141 404.272 107.527C404.886 106.912 405.25 105.899 405.25 104.255H406.75C406.75 105.899 407.114 106.912 407.728 107.527C408.342 108.141 409.355 108.505 411 108.505V110.005C409.355 110.005 408.342 110.369 407.728 110.983C407.114 111.597 406.75 112.61 406.75 114.255H405.25C405.25 112.61 404.886 111.597 404.272 110.983C403.658 110.369 402.645 110.005 401 110.005ZM406 110.801C406.184 110.478 406.405 110.185 406.668 109.922C406.93 109.66 407.223 109.439 407.546 109.255C407.223 109.071 406.93 108.85 406.668 108.587C406.405 108.325 406.184 108.031 406 107.709C405.816 108.031 405.595 108.325 405.332 108.587C405.07 108.85 404.777 109.071 404.454 109.255C404.777 109.439 405.07 109.66 405.332 109.922C405.595 110.185 405.816 110.478 406 110.801Z" fill="url(#paint7_linear_29_1409)"/>
<path d="M395 101.255C395 101.807 394.552 102.255 394 102.255C393.448 102.255 393 101.807 393 101.255C393 100.703 393.448 100.255 394 100.255C394.552 100.255 395 100.703 395 101.255Z" fill="url(#paint8_linear_29_1409)"/>
<path d="M398 101.255C398 101.807 397.552 102.255 397 102.255C396.448 102.255 396 101.807 396 101.255C396 100.703 396.448 100.255 397 100.255C397.552 100.255 398 100.703 398 101.255Z" fill="url(#paint9_linear_29_1409)"/>
<path d="M400 102.255C400.552 102.255 401 101.807 401 101.255C401 100.703 400.552 100.255 400 100.255C399.448 100.255 399 100.703 399 101.255C399 101.807 399.448 102.255 400 102.255Z" fill="url(#paint10_linear_29_1409)"/>
<rect x="481" y="55.7549" width="99" height="99" rx="13.5" fill="white" stroke="url(#paint11_linear_29_1409)"/>
<rect x="611" y="55.7549" width="99" height="99" rx="13.5" fill="white" stroke="url(#paint12_linear_29_1409)"/>
<path d="M137.5 24.7549V24.7549C137.5 33.3153 144.44 40.2549 153 40.2549H187.5C197.441 40.2549 205.5 48.3138 205.5 58.2549V94.2549C205.5 102.539 212.216 109.255 220.5 109.255V109.255" stroke="#F0EBE6"/>
<path d="M398.5 154.755V154.755C398.5 163.315 405.44 170.255 414 170.255H448.5C458.441 170.255 466.5 178.314 466.5 188.255V224.255C466.5 232.539 473.216 239.255 481.5 239.255V239.255" stroke="#F0EBE6"/>
<path d="M657.5 24.7549V24.7549C657.5 33.3153 664.44 40.2549 673 40.2549H766.5C776.441 40.2549 784.5 48.3138 784.5 58.2549V94.2549C784.5 102.539 791.216 109.255 799.5 109.255V109.255" stroke="#F0EBE6"/>
<path d="M266.5 24.2549V24.2549C266.5 33.0914 273.663 40.2549 282.5 40.2549H316.5C326.441 40.2549 334.5 48.3138 334.5 58.2549V198.255C334.5 206.539 341.216 213.255 349.5 213.255V213.255" stroke="#F0EBE6"/>
<path d="M528 25.7549V55.7549" stroke="#F0EBE6"/>
<path d="M660.5 155.755V185.755" stroke="#F0EBE6"/>
<rect x="0.5" y="-0.745117" width="800" height="46" fill="url(#paint13_linear_29_1409)"/>
<rect width="800" height="43" transform="matrix(1 0 0 -1 1 228.255)" fill="url(#paint14_linear_29_1409)"/>
</g>
<defs>
<filter id="filter0_d_29_1409" x="346.5" y="53.2549" width="108" height="108" filterUnits="userSpaceOnUse" color-interpolation-filters="sRGB">
<feFlood flood-opacity="0" result="BackgroundImageFix"/>
<feColorMatrix in="SourceAlpha" type="matrix" values="0 0 0 0 0 0 0 0 0 0 0 0 0 0 0 0 0 0 127 0" result="hardAlpha"/>
<feOffset dy="2"/>
<feGaussianBlur stdDeviation="2"/>
<feComposite in2="hardAlpha" operator="out"/>
<feColorMatrix type="matrix" values="0 0 0 0 0.494118 0 0 0 0 0.494118 0 0 0 0 0.988235 0 0 0 0.21 0"/>
<feBlend mode="normal" in2="BackgroundImageFix" result="effect1_dropShadow_29_1409"/>
<feBlend mode="normal" in="SourceGraphic" in2="effect1_dropShadow_29_1409" result="shape"/>
</filter>
<filter id="filter1_d_29_1409" x="360.5" y="69.2549" width="80" height="80" filterUnits="userSpaceOnUse" color-interpolation-filters="sRGB">
<feFlood flood-opacity="0" result="BackgroundImageFix"/>
<feColorMatrix in="SourceAlpha" type="matrix" values="0 0 0 0 0 0 0 0 0 0 0 0 0 0 0 0 0 0 127 0" result="hardAlpha"/>
<feOffset dy="4"/>
<feGaussianBlur stdDeviation="10"/>
<feComposite in2="hardAlpha" operator="out"/>
<feColorMatrix type="matrix" values="0 0 0 0 0.494118 0 0 0 0 0.494118 0 0 0 0 0.988235 0 0 0 0.25 0"/>
<feBlend mode="normal" in2="BackgroundImageFix" result="effect1_dropShadow_29_1409"/>
<feBlend mode="normal" in="SourceGraphic" in2="effect1_dropShadow_29_1409" result="shape"/>
</filter>
<linearGradient id="paint0_linear_29_1409" x1="140.5" y1="55.2549" x2="140.5" y2="155.255" gradientUnits="userSpaceOnUse">
<stop stop-color="#F0EBE6"/>
<stop offset="1" stop-color="#F0EBE6" stop-opacity="0.4"/>
</linearGradient>
<linearGradient id="paint1_linear_29_1409" x1="270.5" y1="55.2549" x2="270.5" y2="155.255" gradientUnits="userSpaceOnUse">
<stop stop-color="#F0EBE6"/>
<stop offset="1" stop-color="#F0EBE6" stop-opacity="0.4"/>
</linearGradient>
<linearGradient id="paint2_linear_29_1409" x1="409.5" y1="137.255" x2="409.5" y2="125.255" gradientUnits="userSpaceOnUse">
<stop stop-color="#7E7EFC" stop-opacity="0"/>
<stop offset="1" stop-color="#7E7EFC"/>
</linearGradient>
<linearGradient id="paint3_linear_29_1409" x1="391.5" y1="137.255" x2="391.5" y2="125.255" gradientUnits="userSpaceOnUse">
<stop stop-color="#7E7EFC" stop-opacity="0"/>
<stop offset="1" stop-color="#7E7EFC"/>
</linearGradient>
<linearGradient id="paint4_linear_29_1409" x1="12" y1="-1.13649e-06" x2="0" y2="-8.94401e-07" gradientUnits="userSpaceOnUse">
<stop stop-color="#7E7EFC" stop-opacity="0"/>
<stop offset="1" stop-color="#7E7EFC"/>
</linearGradient>
<linearGradient id="paint5_linear_29_1409" x1="12" y1="-1.13649e-06" x2="0" y2="-8.94401e-07" gradientUnits="userSpaceOnUse">
<stop stop-color="#7E7EFC" stop-opacity="0"/>
<stop offset="1" stop-color="#7E7EFC"/>
</linearGradient>
<linearGradient id="paint6_linear_29_1409" x1="416.994" y1="125.255" x2="385.486" y2="123.303" gradientUnits="userSpaceOnUse">
<stop stop-color="#6F6CFF"/>
<stop offset="0.526042" stop-color="#B9E1F2"/>
<stop offset="1" stop-color="#7B78FC"/>
</linearGradient>
<linearGradient id="paint7_linear_29_1409" x1="409.159" y1="114.255" x2="392.651" y2="112.991" gradientUnits="userSpaceOnUse">
<stop stop-color="#6F6CFF"/>
<stop offset="0.526042" stop-color="#B9E1F2"/>
<stop offset="1" stop-color="#7B78FC"/>
</linearGradient>
<linearGradient id="paint8_linear_29_1409" x1="409.159" y1="114.255" x2="392.651" y2="112.991" gradientUnits="userSpaceOnUse">
<stop stop-color="#6F6CFF"/>
<stop offset="0.526042" stop-color="#B9E1F2"/>
<stop offset="1" stop-color="#7B78FC"/>
</linearGradient>
<linearGradient id="paint9_linear_29_1409" x1="409.159" y1="114.255" x2="392.651" y2="112.991" gradientUnits="userSpaceOnUse">
<stop stop-color="#6F6CFF"/>
<stop offset="0.526042" stop-color="#B9E1F2"/>
<stop offset="1" stop-color="#7B78FC"/>
</linearGradient>
<linearGradient id="paint10_linear_29_1409" x1="409.159" y1="114.255" x2="392.651" y2="112.991" gradientUnits="userSpaceOnUse">
<stop stop-color="#6F6CFF"/>
<stop offset="0.526042" stop-color="#B9E1F2"/>
<stop offset="1" stop-color="#7B78FC"/>
</linearGradient>
<linearGradient id="paint11_linear_29_1409" x1="530.5" y1="55.2549" x2="530.5" y2="155.255" gradientUnits="userSpaceOnUse">
<stop stop-color="#F0EBE6"/>
<stop offset="1" stop-color="#F0EBE6" stop-opacity="0.4"/>
</linearGradient>
<linearGradient id="paint12_linear_29_1409" x1="660.5" y1="55.2549" x2="660.5" y2="155.255" gradientUnits="userSpaceOnUse">
<stop stop-color="#F0EBE6"/>
<stop offset="1" stop-color="#F0EBE6" stop-opacity="0.4"/>
</linearGradient>
<linearGradient id="paint13_linear_29_1409" x1="400.5" y1="7.46917" x2="400.5" y2="45.2549" gradientUnits="userSpaceOnUse">
<stop stop-color="white"/>
<stop offset="1" stop-color="white" stop-opacity="0"/>
</linearGradient>
<linearGradient id="paint14_linear_29_1409" x1="400" y1="7.67857" x2="400" y2="43" gradientUnits="userSpaceOnUse">
<stop stop-color="white"/>
<stop offset="1" stop-color="white" stop-opacity="0"/>
</linearGradient>
<clipPath id="clip0_29_1409">
<rect width="800" height="212" fill="white" transform="translate(0.5)"/>
</clipPath>
</defs>
</svg>
