<svg width="1358" height="728" viewBox="0 0 1358 728" fill="none" xmlns="http://www.w3.org/2000/svg">
<rect x="22" y="2" width="1314" height="725" rx="20" fill="#F6F3F0"/>
<g clip-path="url(#clip0_624_564)">
<line x1="277.5" y1="2.00012" x2="277.5" y2="883" stroke="url(#paint0_linear_624_564)" stroke-opacity="0.6"/>
<line x1="277.5" y1="2.00012" x2="277.5" y2="883" stroke="url(#paint1_linear_624_564)" stroke-opacity="0.6"/>
<line x1="277.5" y1="2.00012" x2="277.5" y2="883" stroke="url(#paint2_linear_624_564)" stroke-opacity="0.6"/>
<line x1="347.5" y1="2" x2="347.5" y2="883" stroke="url(#paint3_linear_624_564)" stroke-opacity="0.6"/>
<line x1="347.5" y1="2" x2="347.5" y2="883" stroke="url(#paint4_linear_624_564)" stroke-opacity="0.6"/>
<line x1="347.5" y1="2" x2="347.5" y2="883" stroke="url(#paint5_linear_624_564)" stroke-opacity="0.6"/>
<line x1="347.5" y1="2" x2="347.5" y2="883" stroke="url(#paint6_linear_624_564)" stroke-opacity="0.6"/>
<line x1="347.5" y1="2" x2="347.5" y2="883" stroke="url(#paint7_linear_624_564)" stroke-opacity="0.6"/>
<line x1="417.5" y1="2" x2="417.5" y2="883" stroke="url(#paint8_linear_624_564)" stroke-opacity="0.6"/>
<line x1="487.5" y1="2" x2="487.5" y2="883" stroke="url(#paint9_linear_624_564)" stroke-opacity="0.6"/>
<line x1="557.5" y1="2" x2="557.5" y2="883" stroke="url(#paint10_linear_624_564)" stroke-opacity="0.6"/>
<line x1="627.5" y1="2" x2="627.5" y2="883" stroke="url(#paint11_linear_624_564)" stroke-opacity="0.6"/>
<line x1="70.5" y1="2" x2="70.5" y2="883" stroke="url(#paint12_linear_624_564)" stroke-opacity="0.6"/>
<line x1="140.5" y1="2" x2="140.5" y2="883" stroke="url(#paint13_linear_624_564)" stroke-opacity="0.6"/>
<line x1="210.5" y1="2" x2="210.5" y2="883" stroke="url(#paint14_linear_624_564)" stroke-opacity="0.6"/>
<line x1="697.5" y1="2" x2="697.5" y2="883" stroke="url(#paint15_linear_624_564)" stroke-opacity="0.6"/>
<line x1="767.5" y1="2.00012" x2="767.5" y2="883" stroke="url(#paint16_linear_624_564)" stroke-opacity="0.6"/>
<line x1="837.5" y1="2" x2="837.5" y2="883" stroke="url(#paint17_linear_624_564)" stroke-opacity="0.6"/>
<line x1="907.5" y1="2" x2="907.5" y2="883" stroke="url(#paint18_linear_624_564)" stroke-opacity="0.6"/>
<line x1="977.5" y1="2" x2="977.5" y2="883" stroke="url(#paint19_linear_624_564)" stroke-opacity="0.6"/>
<line x1="1047.5" y1="2" x2="1047.5" y2="883" stroke="url(#paint20_linear_624_564)" stroke-opacity="0.6"/>
<line x1="1117.5" y1="2" x2="1117.5" y2="883" stroke="url(#paint21_linear_624_564)" stroke-opacity="0.6"/>
<line x1="1187.5" y1="2" x2="1187.5" y2="883" stroke="url(#paint22_linear_624_564)" stroke-opacity="0.6"/>
<line x1="1257.5" y1="2" x2="1257.5" y2="883" stroke="url(#paint23_linear_624_564)" stroke-opacity="0.6"/>
<line opacity="0.5" x1="22" y1="657.5" x2="1380" y2="657.5" stroke="#E3E1E0" stroke-opacity="0.6"/>
<line opacity="0.5" x1="22" y1="587.5" x2="1380" y2="587.5" stroke="#E3E1E0" stroke-opacity="0.6"/>
<line opacity="0.5" x1="22" y1="517.5" x2="1380" y2="517.5" stroke="#E3E1E0" stroke-opacity="0.6"/>
<line opacity="0.5" x1="22" y1="447.5" x2="1380" y2="447.5" stroke="#E3E1E0" stroke-opacity="0.6"/>
<line opacity="0.5" x1="22" y1="377.5" x2="1380" y2="377.5" stroke="#E3E1E0" stroke-opacity="0.6"/>
<line opacity="0.6" x1="22" y1="307.5" x2="1380" y2="307.5" stroke="#E3E1E0" stroke-opacity="0.6"/>
<line opacity="0.7" x1="22" y1="237.5" x2="1380" y2="237.5" stroke="#E3E1E0" stroke-opacity="0.6"/>
<line opacity="0.8" x1="22" y1="167.5" x2="1380" y2="167.5" stroke="#E3E1E0" stroke-opacity="0.6"/>
<line opacity="0.9" x1="22" y1="97.4995" x2="1380" y2="97.4996" stroke="#E3E1E0" stroke-opacity="0.6"/>
<path d="M22 27.9994C552.332 27.9994 849.668 27.9994 1380 27.9994" stroke="#E3E1E0" stroke-opacity="0.6"/>
</g>
<defs>
<linearGradient id="paint0_linear_624_564" x1="350.997" y1="21.4989" x2="28.0347" y2="737.155" gradientUnits="userSpaceOnUse">
<stop stop-color="#EAE8E6"/>
<stop offset="1" stop-color="#F1EFED" stop-opacity="0"/>
</linearGradient>
<linearGradient id="paint1_linear_624_564" x1="350.997" y1="21.4989" x2="28.0347" y2="737.155" gradientUnits="userSpaceOnUse">
<stop stop-color="#EAE8E6"/>
<stop offset="1" stop-color="#F1EFED" stop-opacity="0"/>
</linearGradient>
<linearGradient id="paint2_linear_624_564" x1="350.997" y1="21.4989" x2="28.0347" y2="737.155" gradientUnits="userSpaceOnUse">
<stop stop-color="#EAE8E6"/>
<stop offset="1" stop-color="#F1EFED" stop-opacity="0"/>
</linearGradient>
<linearGradient id="paint3_linear_624_564" x1="420.997" y1="21.4987" x2="98.0347" y2="737.155" gradientUnits="userSpaceOnUse">
<stop stop-color="#EAE8E6"/>
<stop offset="1" stop-color="#F1EFED" stop-opacity="0"/>
</linearGradient>
<linearGradient id="paint4_linear_624_564" x1="420.997" y1="21.4987" x2="98.0347" y2="737.155" gradientUnits="userSpaceOnUse">
<stop stop-color="#EAE8E6"/>
<stop offset="1" stop-color="#F1EFED" stop-opacity="0"/>
</linearGradient>
<linearGradient id="paint5_linear_624_564" x1="420.997" y1="21.4987" x2="98.0347" y2="737.155" gradientUnits="userSpaceOnUse">
<stop stop-color="#EAE8E6"/>
<stop offset="1" stop-color="#F1EFED" stop-opacity="0"/>
</linearGradient>
<linearGradient id="paint6_linear_624_564" x1="420.997" y1="21.4987" x2="98.0347" y2="737.155" gradientUnits="userSpaceOnUse">
<stop stop-color="#EAE8E6"/>
<stop offset="1" stop-color="#F1EFED" stop-opacity="0"/>
</linearGradient>
<linearGradient id="paint7_linear_624_564" x1="420.997" y1="21.4987" x2="98.0347" y2="737.155" gradientUnits="userSpaceOnUse">
<stop stop-color="#EAE8E6"/>
<stop offset="1" stop-color="#F1EFED" stop-opacity="0"/>
</linearGradient>
<linearGradient id="paint8_linear_624_564" x1="490.997" y1="21.4987" x2="168.035" y2="737.155" gradientUnits="userSpaceOnUse">
<stop stop-color="#EAE8E6"/>
<stop offset="1" stop-color="#F1EFED" stop-opacity="0"/>
</linearGradient>
<linearGradient id="paint9_linear_624_564" x1="560.997" y1="21.4987" x2="238.035" y2="737.155" gradientUnits="userSpaceOnUse">
<stop stop-color="#EAE8E6"/>
<stop offset="1" stop-color="#F1EFED" stop-opacity="0"/>
</linearGradient>
<linearGradient id="paint10_linear_624_564" x1="630.997" y1="21.4987" x2="308.035" y2="737.155" gradientUnits="userSpaceOnUse">
<stop stop-color="#EAE8E6"/>
<stop offset="1" stop-color="#F1EFED" stop-opacity="0"/>
</linearGradient>
<linearGradient id="paint11_linear_624_564" x1="700.997" y1="21.4987" x2="378.035" y2="737.155" gradientUnits="userSpaceOnUse">
<stop stop-color="#EAE8E6"/>
<stop offset="1" stop-color="#F1EFED" stop-opacity="0"/>
</linearGradient>
<linearGradient id="paint12_linear_624_564" x1="143.997" y1="21.4987" x2="-178.965" y2="737.155" gradientUnits="userSpaceOnUse">
<stop stop-color="#EAE8E6"/>
<stop offset="1" stop-color="#F1EFED" stop-opacity="0"/>
</linearGradient>
<linearGradient id="paint13_linear_624_564" x1="213.997" y1="21.4987" x2="-108.965" y2="737.155" gradientUnits="userSpaceOnUse">
<stop stop-color="#EAE8E6"/>
<stop offset="1" stop-color="#F1EFED" stop-opacity="0"/>
</linearGradient>
<linearGradient id="paint14_linear_624_564" x1="283.997" y1="21.4987" x2="-38.9653" y2="737.155" gradientUnits="userSpaceOnUse">
<stop stop-color="#EAE8E6"/>
<stop offset="1" stop-color="#F1EFED" stop-opacity="0"/>
</linearGradient>
<linearGradient id="paint15_linear_624_564" x1="770.997" y1="21.4987" x2="448.035" y2="737.155" gradientUnits="userSpaceOnUse">
<stop stop-color="#EAE8E6"/>
<stop offset="1" stop-color="#F1EFED" stop-opacity="0"/>
</linearGradient>
<linearGradient id="paint16_linear_624_564" x1="840.997" y1="21.4989" x2="518.035" y2="737.155" gradientUnits="userSpaceOnUse">
<stop stop-color="#EAE8E6"/>
<stop offset="1" stop-color="#F1EFED" stop-opacity="0"/>
</linearGradient>
<linearGradient id="paint17_linear_624_564" x1="910.997" y1="21.4987" x2="588.035" y2="737.155" gradientUnits="userSpaceOnUse">
<stop stop-color="#EAE8E6"/>
<stop offset="1" stop-color="#F1EFED" stop-opacity="0"/>
</linearGradient>
<linearGradient id="paint18_linear_624_564" x1="980.997" y1="21.4987" x2="658.035" y2="737.155" gradientUnits="userSpaceOnUse">
<stop stop-color="#EAE8E6"/>
<stop offset="1" stop-color="#F1EFED" stop-opacity="0"/>
</linearGradient>
<linearGradient id="paint19_linear_624_564" x1="1051" y1="21.4987" x2="728.035" y2="737.155" gradientUnits="userSpaceOnUse">
<stop stop-color="#EAE8E6"/>
<stop offset="1" stop-color="#F1EFED" stop-opacity="0"/>
</linearGradient>
<linearGradient id="paint20_linear_624_564" x1="1121" y1="21.4987" x2="798.035" y2="737.155" gradientUnits="userSpaceOnUse">
<stop stop-color="#EAE8E6"/>
<stop offset="1" stop-color="#F1EFED" stop-opacity="0"/>
</linearGradient>
<linearGradient id="paint21_linear_624_564" x1="1191" y1="21.4987" x2="868.035" y2="737.155" gradientUnits="userSpaceOnUse">
<stop stop-color="#EAE8E6"/>
<stop offset="1" stop-color="#F1EFED" stop-opacity="0"/>
</linearGradient>
<linearGradient id="paint22_linear_624_564" x1="1261" y1="21.4987" x2="938.035" y2="737.155" gradientUnits="userSpaceOnUse">
<stop stop-color="#EAE8E6"/>
<stop offset="1" stop-color="#F1EFED" stop-opacity="0"/>
</linearGradient>
<linearGradient id="paint23_linear_624_564" x1="1331" y1="21.4987" x2="1008.03" y2="737.155" gradientUnits="userSpaceOnUse">
<stop stop-color="#EAE8E6"/>
<stop offset="1" stop-color="#F1EFED" stop-opacity="0"/>
</linearGradient>
<clipPath id="clip0_624_564">
<rect width="1314" height="725" fill="white" transform="translate(22 2)"/>
</clipPath>
</defs>
</svg>
