<svg width="179" height="78" viewBox="0 0 179 78" fill="none" xmlns="http://www.w3.org/2000/svg">
<g id="safety-wing 1">
<path id="Vector" d="M48.488 30.45L48.6085 35.475H48.1708C48.0168 34.3204 47.4807 33.2504 46.648 32.4358C45.9618 31.7195 45.0195 31.3042 44.0277 31.2812C43.7124 31.2678 43.3976 31.317 43.1014 31.4259C42.8052 31.5348 42.5335 31.7013 42.3019 31.9156C42.1051 32.0915 41.9472 32.3065 41.8379 32.5468C41.7287 32.7871 41.6706 33.0475 41.6674 33.3115C41.6614 33.622 41.738 33.9285 41.8895 34.1997C42.1548 34.5924 42.493 34.9306 42.8856 35.1958C43.6222 35.679 44.387 36.1176 45.1761 36.5092C46.475 37.083 47.6415 37.9189 48.6021 38.9646C49.1818 39.7238 49.4901 40.6554 49.4778 41.6103C49.4834 42.2218 49.3603 42.8275 49.1167 43.3882C48.8729 43.9491 48.5138 44.4522 48.0629 44.8652C47.5849 45.3195 47.0211 45.6741 46.4045 45.9084C45.7879 46.1426 45.131 46.2517 44.4718 46.2293C44.0446 46.2294 43.6188 46.1805 43.2029 46.0834C42.6785 45.9453 42.167 45.7628 41.6738 45.5377C41.4095 45.4206 41.1252 45.3561 40.8362 45.3473C40.6211 45.3573 40.4146 45.4351 40.2462 45.5694C40.0195 45.7449 39.8459 45.9799 39.745 46.2483H39.3516V40.5381H39.745C39.9467 41.9185 40.5796 43.1998 41.5532 44.199C42.311 44.9853 43.3482 45.4413 44.44 45.4679C45.1393 45.5024 45.8238 45.2583 46.3435 44.789C46.7048 44.4693 46.9454 44.0353 47.025 43.5595C47.1047 43.0837 47.0186 42.595 46.7813 42.175C46.571 41.8069 46.2908 41.4838 45.9565 41.2233C45.3404 40.7725 44.6842 40.3796 43.996 40.0495C42.996 39.5693 42.0459 38.9912 41.1598 38.3237C40.6124 37.8836 40.1592 37.3377 39.8274 36.7185C39.5205 36.1312 39.3616 35.4778 39.3642 34.8152C39.3543 34.2436 39.4618 33.6762 39.68 33.1481C39.8984 32.6198 40.2228 32.142 40.6332 31.7442C41.0488 31.3294 41.5443 31.003 42.0894 30.785C42.6347 30.5669 43.2185 30.4615 43.8056 30.4753C44.2671 30.4656 44.7279 30.5167 45.1761 30.6276C45.6148 30.7488 46.04 30.9147 46.445 31.1225C46.7548 31.3069 47.0973 31.4297 47.4538 31.4842C47.5354 31.4884 47.6167 31.4746 47.6924 31.4439C47.768 31.4133 47.836 31.3663 47.8915 31.3065C48.0521 31.0461 48.1539 30.7538 48.1898 30.45H48.488ZM55.5497 44.3386C54.3315 45.4594 53.2402 46.02 52.2758 46.02C52.0114 46.0268 51.7484 45.9784 51.5037 45.8779C51.2589 45.7773 51.038 45.6268 50.8545 45.4362C50.6681 45.2428 50.522 45.0141 50.425 44.7635C50.328 44.513 50.2822 44.2455 50.2899 43.9769C50.2961 43.5716 50.3867 43.1723 50.556 42.804C50.7253 42.4359 50.9697 42.107 51.2734 41.8388C51.9289 41.2042 53.3545 40.3583 55.5497 39.3009V38.254C55.58 37.7559 55.5394 37.256 55.4291 36.7693C55.3328 36.5486 55.1712 36.3625 54.9659 36.2364C54.739 36.0844 54.4714 36.0047 54.1983 36.0079C53.7928 35.9913 53.3927 36.1047 53.0562 36.3315C52.9741 36.3802 52.9056 36.4487 52.8569 36.5308C52.8081 36.6127 52.7807 36.7057 52.7771 36.801C52.8081 37.0217 52.9134 37.2252 53.0752 37.3784C53.3158 37.627 53.4597 37.9531 53.4813 38.2984C53.4832 38.471 53.4499 38.6422 53.3832 38.8014C53.3168 38.9607 53.2185 39.1048 53.0943 39.2247C52.9584 39.3537 52.7979 39.454 52.6224 39.5194C52.4468 39.5849 52.2599 39.6141 52.0727 39.6054C51.6572 39.6163 51.2539 39.4637 50.9498 39.1803C50.8084 39.0571 50.695 38.905 50.6173 38.7342C50.5396 38.5634 50.4994 38.3781 50.4992 38.1905C50.5187 37.6209 50.7441 37.0776 51.1338 36.6615C51.5772 36.1509 52.1489 35.7676 52.7897 35.5511C53.5186 35.3028 54.2849 35.1826 55.0548 35.1958C55.8529 35.1542 56.6425 35.3772 57.3008 35.8303C57.788 36.166 58.1619 36.6417 58.3731 37.1944C58.4962 37.8893 58.5388 38.5961 58.4999 39.3009V43.3361C58.486 43.6352 58.503 43.935 58.5507 44.2307C58.5753 44.3354 58.6305 44.4305 58.7093 44.5035C58.7783 44.562 58.8663 44.5936 58.9567 44.5924C59.1429 44.5924 59.3311 44.4548 59.5215 44.1799L59.8387 44.4465C59.5566 44.9157 59.1808 45.3217 58.7348 45.6392C58.357 45.8844 57.9161 46.0144 57.4658 46.0136C56.9854 46.0417 56.5113 45.8927 56.1333 45.5949C55.7879 45.2643 55.5796 44.8158 55.5497 44.3386ZM55.5497 43.5264V40.0432C54.8078 40.4715 54.1603 41.0456 53.6462 41.7309C53.3845 42.0817 53.2382 42.5052 53.2275 42.9427C53.2255 43.2775 53.3528 43.6003 53.5828 43.8436C53.6779 43.9454 53.7943 44.025 53.9238 44.0766C54.0533 44.128 54.1925 44.1504 54.3315 44.1419C54.7967 44.0845 55.2275 43.8669 55.5497 43.5264ZM64.2736 36.5472V43.7802C64.2246 44.2295 64.2992 44.6836 64.4893 45.0935C64.6576 45.2501 64.8594 45.3658 65.0795 45.4319C65.2995 45.4979 65.5317 45.5124 65.7583 45.4743V45.874H59.8641V45.4743C60.1912 45.4911 60.518 45.437 60.8221 45.3156C60.9979 45.2279 61.1356 45.0789 61.2091 44.8969C61.3019 44.5345 61.3383 44.16 61.317 43.7866V36.5662H59.8641V35.475H61.317V34.7072V34.187C61.3033 33.6881 61.3956 33.1919 61.5882 32.7313C61.7807 32.2709 62.069 31.8565 62.4337 31.5159C63.2689 30.7736 64.3633 30.3905 65.4792 30.45C66.1677 30.3978 66.8538 30.5789 67.427 30.9638C67.6134 31.0912 67.7677 31.26 67.8779 31.4571C67.9879 31.6541 68.0507 31.8741 68.0614 32.0995C68.062 32.2642 68.0272 32.427 67.9594 32.5769C67.8915 32.727 67.7922 32.8606 67.6682 32.9688C67.3802 33.2227 67.0047 33.3547 66.6212 33.3368C66.3001 33.3528 65.985 33.2461 65.7394 33.0386C65.6409 32.9571 65.5611 32.8555 65.5053 32.7406C65.4496 32.6256 65.419 32.5002 65.4158 32.3724C65.4259 32.2335 65.4472 32.0955 65.4792 31.9601C65.5071 31.8435 65.522 31.7244 65.5235 31.6048C65.5288 31.5418 65.5201 31.4785 65.4982 31.4192C65.4763 31.3601 65.4416 31.3065 65.3967 31.2621C65.3416 31.2076 65.2763 31.1649 65.2043 31.1365C65.1322 31.1083 65.0553 31.0948 64.978 31.0972C64.8762 31.0966 64.7758 31.1205 64.6853 31.1669C64.5947 31.2133 64.5167 31.2807 64.4576 31.3636C64.2972 31.6189 64.2237 31.9195 64.2483 32.2201V34.168V35.4941H65.7203V36.5853L64.2736 36.5472ZM74.5584 40.2715H69.083C69.0796 41.4458 69.4508 42.5904 70.1425 43.5391C70.3443 43.821 70.6099 44.0513 70.9175 44.2112C71.2251 44.371 71.5661 44.4559 71.9128 44.4591C72.3319 44.4762 72.7456 44.3583 73.0929 44.1229C73.5391 43.7573 73.9135 43.312 74.1969 42.8094L74.5584 43.057C74.1691 44.0059 73.5525 44.8448 72.7629 45.4996C72.3245 45.8033 71.8302 46.0168 71.3085 46.1279C70.7871 46.239 70.2486 46.2455 69.7245 46.1469C69.2004 46.0483 68.7011 45.8467 68.2556 45.5537C67.81 45.2607 67.427 44.8822 67.1287 44.4401C66.4845 43.3675 66.1649 42.1311 66.2088 40.8806C66.1299 39.3799 66.6116 37.9032 67.5602 36.7376C67.9406 36.2603 68.4229 35.8741 68.9717 35.6074C69.5208 35.3407 70.1223 35.1999 70.7325 35.1958C71.2386 35.1965 71.7378 35.3109 72.1937 35.5305C72.6494 35.7502 73.0499 36.0695 73.3657 36.4647C74.1802 37.5633 74.6004 38.9046 74.5584 40.2715ZM71.9318 39.5292C71.9634 38.7149 71.9016 37.8996 71.7477 37.0993C71.663 36.716 71.4692 36.3657 71.1894 36.0904C71.0233 35.95 70.8103 35.8775 70.5931 35.8873C70.4049 35.8907 70.2211 35.9449 70.0613 36.0443C69.9015 36.1438 69.7718 36.2846 69.6857 36.4521C69.2223 37.2792 69.0023 38.2207 69.0513 39.1677V39.5547L71.9318 39.5292ZM78.6953 31.6744V35.4813H81.0618V36.579H78.6953V42.9934C78.6865 43.3834 78.7227 43.773 78.803 44.1546C78.8516 44.3226 78.9514 44.4712 79.0887 44.5797C79.1889 44.6581 79.3105 44.7044 79.4376 44.7129C79.8986 44.7129 80.3365 44.3471 80.7509 43.6153L81.0682 43.8627C80.4929 45.2839 79.5581 45.9945 78.2637 45.9945C77.72 45.9991 77.1892 45.829 76.7494 45.5092C76.3096 45.1894 75.9842 44.7367 75.8211 44.218C75.719 43.5422 75.6808 42.8581 75.7068 42.175V36.579H74.4062V36.1919C75.2444 35.5853 76.0126 34.8873 76.6967 34.1108C77.3391 33.3654 77.8927 32.5479 78.3462 31.6744H78.6953ZM85.5221 46.2674L82.2991 38.5903C82.0266 37.842 81.6667 37.1286 81.2268 36.4647C81.0056 36.2037 80.7154 36.0101 80.3893 35.9064V35.4941H85.6934V35.9064C85.4319 35.894 85.1733 35.9676 84.9575 36.1158C84.8899 36.1712 84.8356 36.241 84.7983 36.3199C84.7609 36.3989 84.7417 36.4853 84.7417 36.5726C84.83 37.1535 85.0098 37.7168 85.2747 38.2412L86.9814 42.3083L88.1425 39.1358C88.4694 38.3936 88.6833 37.6067 88.777 36.801C88.7797 36.683 88.758 36.5658 88.7132 36.4566C88.6684 36.3475 88.6017 36.2487 88.5168 36.1666C88.2483 35.973 87.9209 35.8788 87.5905 35.9001V35.4877H90.9279V35.9001C90.6217 35.9268 90.3365 36.0671 90.1284 36.2934C89.6872 37.0162 89.3395 37.7923 89.0942 38.6029L86.2455 46.2927C85.8489 47.5359 85.3125 48.73 84.6466 49.8521C84.4353 50.1435 84.1576 50.38 83.8365 50.5423C83.5153 50.7044 83.16 50.7876 82.8002 50.7848C82.5341 50.7994 82.2678 50.7603 82.017 50.6699C81.7663 50.5794 81.5364 50.4394 81.3409 50.2582C81.1651 50.0971 81.0251 49.9011 80.9301 49.6825C80.835 49.4639 80.7869 49.2276 80.789 48.9892C80.7755 48.5985 80.9116 48.2172 81.1697 47.9233C81.2843 47.7883 81.4274 47.6802 81.5886 47.6067C81.7498 47.5333 81.9253 47.4963 82.1023 47.4982C82.2624 47.4922 82.4217 47.5209 82.5695 47.5822C82.7174 47.6435 82.8502 47.7361 82.9589 47.8535C83.2009 48.1663 83.3205 48.5566 83.2952 48.9511C83.2821 49.138 83.3148 49.3253 83.3903 49.4968C83.4177 49.5366 83.4548 49.5686 83.4982 49.5897C83.5416 49.6108 83.5897 49.6203 83.6378 49.6174C83.7463 49.6046 83.851 49.5693 83.945 49.5135C84.039 49.4577 84.1202 49.3829 84.1834 49.2938C84.6352 48.6446 84.9741 47.9239 85.1859 47.162L85.5221 46.2674ZM113.179 30.7926V31.205C112.933 31.2184 112.696 31.2997 112.494 31.4397C112.283 31.6093 112.115 31.8268 112.005 32.0742C111.963 32.1631 111.739 32.7383 111.333 33.8L106.796 46.2419H106.377L102.793 36.5219L98.8461 46.2166H98.4718L93.6879 33.9268C93.4189 33.1486 93.079 32.3969 92.6727 31.6808C92.5541 31.5384 92.4057 31.4237 92.238 31.3449C92.0703 31.2659 91.8873 31.2247 91.7019 31.224V30.7926H97.9768V31.205C97.6238 31.1792 97.2714 31.2634 96.9681 31.4461C96.8878 31.511 96.8234 31.5934 96.7795 31.6867C96.7356 31.7801 96.7132 31.8822 96.7143 31.9854C96.8045 32.6028 96.9796 33.205 97.2345 33.7746L100.071 41.0901L102.342 35.3797L101.746 33.7809C101.546 33.1769 101.3 32.5893 101.01 32.0235C100.859 31.7586 100.64 31.5394 100.375 31.3889C100.055 31.2442 99.7045 31.1789 99.3537 31.1987V30.7926H106.365V31.205C106.007 31.1941 105.651 31.2347 105.305 31.3255C105.162 31.3717 105.037 31.4629 104.95 31.5857C104.858 31.7129 104.811 31.8668 104.816 32.0235C104.922 32.5612 105.084 33.0863 105.299 33.5906L107.989 40.7157L110.349 34.2568C110.525 33.8083 110.678 33.3508 110.806 32.8864C110.859 32.6639 110.887 32.4361 110.888 32.2075C110.895 32.0733 110.872 31.9392 110.821 31.8152C110.769 31.6911 110.69 31.5801 110.59 31.4904C110.249 31.277 109.849 31.1771 109.448 31.205V30.7926H113.179ZM116.535 35.475V43.7231C116.481 44.2066 116.567 44.6955 116.783 45.1316C116.909 45.2529 117.06 45.3465 117.225 45.4066C117.39 45.4666 117.566 45.4918 117.741 45.4806V45.8804H112.354V45.4743C112.537 45.4826 112.72 45.4512 112.889 45.3822C113.059 45.3131 113.212 45.2083 113.337 45.0745C113.531 44.6499 113.606 44.1806 113.553 43.7168V37.6449C113.607 37.1614 113.522 36.6725 113.306 36.2364C113.18 36.1159 113.03 36.0228 112.866 35.9627C112.702 35.9026 112.528 35.877 112.354 35.8873V35.475H116.535ZM115.038 30.4373C115.258 30.4339 115.477 30.4772 115.679 30.5647C115.882 30.6523 116.063 30.7818 116.212 30.9449C116.368 31.1061 116.491 31.2967 116.574 31.5059C116.657 31.7149 116.698 31.9382 116.694 32.1631C116.698 32.3874 116.657 32.6103 116.573 32.8185C116.489 33.0267 116.364 33.2159 116.205 33.3749C116.056 33.5349 115.875 33.6622 115.674 33.7485C115.473 33.8349 115.257 33.8783 115.038 33.8761C114.82 33.8786 114.604 33.8353 114.404 33.749C114.204 33.6626 114.024 33.5351 113.877 33.3749C113.72 33.215 113.597 33.0254 113.514 32.8174C113.431 32.6093 113.391 32.3868 113.395 32.1631C113.391 31.9382 113.431 31.7149 113.514 31.5059C113.597 31.2967 113.72 31.1061 113.877 30.9449C114.023 30.7828 114.202 30.6537 114.403 30.5662C114.603 30.4788 114.819 30.4348 115.038 30.4373ZM121.712 35.475V36.82C122.13 36.319 122.627 35.8902 123.184 35.5511C123.647 35.2903 124.17 35.1547 124.701 35.1578C125.289 35.1358 125.864 35.3351 126.312 35.7161C126.735 36.0819 127.034 36.5694 127.169 37.1119C127.315 37.9154 127.372 38.7324 127.34 39.5483V43.5963C127.29 44.1049 127.362 44.6182 127.55 45.0935C127.662 45.2117 127.796 45.3058 127.946 45.3701C128.095 45.4345 128.256 45.4678 128.419 45.4679V45.8677H123.343V45.4743C123.507 45.4625 123.667 45.412 123.808 45.3272C123.949 45.2423 124.068 45.1252 124.155 44.9858C124.309 44.544 124.367 44.0748 124.327 43.6089V39.0026C124.35 38.4636 124.318 37.9236 124.231 37.3911C124.18 37.1901 124.067 37.0104 123.908 36.8772C123.765 36.7584 123.586 36.6932 123.4 36.6932C122.787 36.6932 122.218 37.15 121.693 38.0637V43.6344C121.646 44.1367 121.718 44.6431 121.903 45.1126C121.997 45.2286 122.114 45.3231 122.248 45.3899C122.381 45.4566 122.528 45.494 122.677 45.4996V45.8994H117.601V45.4743C117.772 45.47 117.939 45.4299 118.094 45.3568C118.248 45.2835 118.385 45.1788 118.496 45.0492C118.666 44.5872 118.729 44.0924 118.68 43.6025V37.7337C118.729 37.2354 118.658 36.7325 118.47 36.2681C118.241 36.0335 117.929 35.8971 117.601 35.8873V35.475H121.712ZM135.125 35.5956H138.488V36.82H136.584C136.878 37.1083 137.122 37.4426 137.308 37.8099C137.521 38.3248 137.601 38.8847 137.542 39.4387C137.484 39.9927 137.287 40.5233 136.971 40.9822C136.555 41.5397 135.999 41.9773 135.36 42.2511C134.796 42.5308 134.18 42.6886 133.552 42.7143L132.283 42.6572C132.133 42.654 131.984 42.6815 131.845 42.7384C131.707 42.7951 131.581 42.8798 131.477 42.9872C131.372 43.0892 131.29 43.2117 131.234 43.3471C131.178 43.4824 131.151 43.6275 131.153 43.7738C131.153 43.8945 131.179 44.0137 131.229 44.1233C131.28 44.2329 131.354 44.3301 131.445 44.4084C131.725 44.6036 132.064 44.6936 132.403 44.6622H134.25C135.743 44.6622 136.771 44.8335 137.333 45.176C137.718 45.3921 138.035 45.7117 138.248 46.0984C138.461 46.4853 138.562 46.924 138.539 47.365C138.544 47.9824 138.35 48.5853 137.987 49.0844C137.621 49.5979 137.114 49.9945 136.527 50.2265C135.514 50.6071 134.437 50.7922 133.355 50.7722C132.529 50.7799 131.704 50.6884 130.9 50.4993C130.309 50.41 129.752 50.1647 129.288 49.7887C129.144 49.6605 129.027 49.5045 128.944 49.3301C128.861 49.1557 128.814 48.9664 128.806 48.7736C128.806 48.4309 128.938 48.1015 129.174 47.8535C129.562 47.5071 130.035 47.2706 130.544 47.1684C130.143 47.012 129.798 46.7407 129.55 46.3886C129.303 46.0364 129.165 45.6189 129.155 45.1888C129.167 44.6419 129.366 44.1155 129.72 43.6978C130.204 43.1329 130.821 42.6969 131.515 42.4288C130.7 42.1632 129.981 41.6647 129.447 40.995C129.02 40.3953 128.798 39.6747 128.812 38.9392C128.811 38.4397 128.917 37.9456 129.123 37.4904C129.329 37.0351 129.629 36.6292 130.005 36.2998C130.847 35.543 131.951 35.1465 133.082 35.1958C133.783 35.1948 134.477 35.3305 135.125 35.5956ZM132.651 47.4031C132.163 47.3665 131.672 47.4313 131.211 47.5935C131.026 47.6715 130.868 47.8009 130.756 47.9663C130.643 48.1318 130.581 48.326 130.576 48.526C130.588 48.7367 130.652 48.9408 130.763 49.1204C130.874 49.2998 131.028 49.4488 131.211 49.554C131.939 49.9318 132.76 50.0926 133.577 50.017C134.376 50.0532 135.174 49.9125 135.912 49.6047C136.154 49.5203 136.364 49.365 136.516 49.1589C136.667 48.9528 136.753 48.7057 136.762 48.45C136.768 48.2793 136.712 48.1123 136.604 47.9805C136.372 47.7364 136.067 47.5757 135.734 47.5237C134.71 47.4131 133.68 47.375 132.651 47.4093V47.4031ZM133.285 35.8494C133.071 35.8583 132.863 35.921 132.68 36.0319C132.497 36.1429 132.345 36.2984 132.238 36.4838C131.955 36.9068 131.813 37.8056 131.813 39.1803C131.744 39.9614 131.889 40.7466 132.232 41.4518C132.33 41.6341 132.473 41.7882 132.647 41.8993C132.822 42.0104 133.022 42.0748 133.228 42.0862C133.445 42.0805 133.657 42.0191 133.844 41.908C134.031 41.7969 134.186 41.6398 134.294 41.4518C134.648 40.7115 134.795 39.8894 134.719 39.0724C134.8 38.1406 134.633 37.204 134.237 36.3569C134.139 36.1917 133.998 36.0559 133.83 35.9633C133.661 35.8706 133.471 35.8247 133.279 35.8303L133.285 35.8494Z" fill="#080A27"/>
</g>
</svg>
