<svg width="16" height="17" viewBox="0 0 16 17" fill="none" xmlns="http://www.w3.org/2000/svg">
<path d="M10.6657 5.83333C10.6657 6.54058 10.3848 7.21885 9.88469 7.71895C9.3846 8.21905 8.70632 8.5 7.99907 8.5C7.29183 8.5 6.61355 8.21905 6.11346 7.71895C5.61336 7.21885 5.33241 6.54058 5.33241 5.83333M2.42122 5.43426L1.95455 11.0343C1.8543 12.2373 1.80418 12.8388 2.00753 13.3028C2.1862 13.7105 2.49576 14.0469 2.8872 14.2588C3.33272 14.5 3.93631 14.5 5.1435 14.5H10.8546C12.0618 14.5 12.6654 14.5 13.111 14.2588C13.5024 14.0469 13.812 13.7105 13.9906 13.3028C14.194 12.8388 14.1438 12.2373 14.0436 11.0343L13.5769 5.43426C13.4907 4.39917 13.4475 3.88162 13.2183 3.4899C13.0165 3.14496 12.7159 2.8684 12.3554 2.6959C11.946 2.5 11.4267 2.5 10.388 2.5L5.61017 2.5C4.57149 2.5 4.05215 2.5 3.64275 2.6959C3.28224 2.8684 2.98167 3.14496 2.77982 3.4899C2.55061 3.88162 2.50748 4.39917 2.42122 5.43426Z" stroke="#5C76F6" stroke-width="1.33333" stroke-linecap="round" stroke-linejoin="round"/>
</svg>
