<svg width="179" height="78" viewBox="0 0 179 78" fill="none" xmlns="http://www.w3.org/2000/svg">
<g id="sorare 1">
<g id="Clip path group">
<mask id="mask0_624_548" style="mask-type:luminance" maskUnits="userSpaceOnUse" x="41" y="26" width="27" height="27">
<g id="clip0_4329_45">
<path id="Vector" d="M67.3638 26.3517H41.1406V52.5748H67.3638V26.3517Z" fill="white"/>
</g>
</mask>
<g mask="url(#mask0_624_548)">
<g id="Group">
<path id="Vector_2" d="M53.0943 33.9C53.8071 34.7883 54.7252 35.49 55.7696 35.9446C56.8139 36.3992 57.9531 36.5929 59.089 36.5094C59.1348 36.5042 59.1811 36.5123 59.2224 36.5326C59.2637 36.5529 59.2984 36.5845 59.3224 36.6238C59.3464 36.6632 59.3587 36.7085 59.3577 36.7545C59.3568 36.8006 59.3428 36.8453 59.3173 36.8837C58.693 37.8364 58.3097 38.9267 58.2004 40.0605C58.091 41.1944 58.2589 42.3378 58.6896 43.3923C58.7064 43.434 58.7113 43.4796 58.7035 43.524C58.696 43.5683 58.6761 43.6098 58.6462 43.6434C58.6163 43.6771 58.5775 43.7018 58.5344 43.7146C58.4913 43.7275 58.4454 43.7281 58.4019 43.7164C57.3016 43.4158 56.1446 43.3875 55.0309 43.6341C53.9173 43.8808 52.8806 44.3948 52.01 45.1317C51.9751 45.1604 51.9331 45.1789 51.8884 45.1853C51.8437 45.1916 51.7982 45.1856 51.7569 45.1675C51.7156 45.1496 51.68 45.1205 51.654 45.0835C51.6283 45.0467 51.6131 45.0033 51.6105 44.9582C51.5554 43.821 51.2246 42.7141 50.6468 41.7331C50.069 40.7519 49.2613 39.926 48.2933 39.3264C48.2552 39.3023 48.2245 39.2681 48.2046 39.2276C48.1847 39.187 48.1765 39.1418 48.1808 39.0969C48.185 39.052 48.2015 39.009 48.2286 38.973C48.2559 38.937 48.2925 38.9092 48.3345 38.8926C49.4004 38.4895 50.3524 37.8331 51.1081 36.98C51.8637 36.1269 52.4005 35.1027 52.672 33.9958C52.6825 33.9521 52.7052 33.9124 52.7373 33.8808C52.7693 33.8492 52.8095 33.8273 52.8534 33.8173C52.8973 33.8074 52.943 33.8097 52.9856 33.8243C53.0282 33.8389 53.0658 33.8652 53.0943 33.9Z" fill="#080A27"/>
<path id="Vector_3" d="M54.0845 29.2589C56.1028 29.2589 58.0757 29.8573 59.7538 30.9786C61.432 32.1 62.7398 33.6936 63.5122 35.5582C64.2846 37.4229 64.4867 39.4746 64.0929 41.454C63.6991 43.4336 62.7272 45.2518 61.3001 46.679C59.8729 48.1061 58.0547 49.078 56.0753 49.4717C54.0959 49.8655 52.044 49.6633 50.1794 48.891C48.3148 48.1186 46.7211 46.8107 45.5998 45.1326C44.4786 43.4546 43.8801 41.4816 43.8801 39.4633C43.883 36.7579 44.959 34.1641 46.8721 32.251C48.7852 30.3379 51.379 29.2619 54.0845 29.2589ZM54.0845 26.5194C51.5245 26.5194 49.0219 27.2786 46.8933 28.7009C44.7646 30.1232 43.1056 32.1448 42.1259 34.5099C41.1462 36.8751 40.8899 39.4777 41.3893 41.9886C41.8888 44.4995 43.1216 46.8058 44.9318 48.616C46.7421 50.4263 49.0484 51.6591 51.5592 52.1585C54.0701 52.658 56.6727 52.4017 59.0379 51.4219C61.4032 50.4422 63.4247 48.7832 64.8471 46.6545C66.2693 44.5259 67.0284 42.0233 67.0284 39.4633C67.0284 36.0305 65.6646 32.738 63.2371 30.3107C60.8098 27.8832 57.5174 26.5194 54.0845 26.5194Z" fill="#080A27"/>
</g>
</g>
</g>
<g id="Clip path group_2">
<mask id="mask1_624_548" style="mask-type:luminance" maskUnits="userSpaceOnUse" x="76" y="34" width="63" height="11">
<g id="clip1_4329_45">
<path id="Vector_4" d="M138.319 34.0643H76.6172V44.8621H138.319V34.0643Z" fill="white"/>
</g>
</mask>
<g mask="url(#mask1_624_548)">
<g id="Group_2">
<path id="Vector_5" d="M76.6172 41.4606H78.7275C78.7275 42.2811 79.4866 42.9791 80.7219 42.9791C81.97 42.9791 82.7421 42.428 82.7421 41.6566C82.7421 40.9707 82.163 40.6157 81.3524 40.4442L79.8856 40.1135C77.8654 39.6115 76.939 38.6196 76.939 37.0889C76.939 35.4113 78.5344 34.0643 80.7861 34.0643C82.639 34.0643 84.6334 34.9949 84.6334 37.1503H82.4589C82.4589 36.4032 81.6483 35.889 80.8377 35.889C79.8856 35.889 79.2421 36.4399 79.2421 37.1503C79.2421 37.787 79.8726 38.1421 80.5417 38.3013L82.1887 38.6809C84.5177 39.2319 85.0195 40.6035 85.0195 41.7055C85.0195 43.6648 82.9736 44.8158 80.7476 44.8158C78.7275 44.8158 76.6558 43.6036 76.6172 41.4606ZM86.036 39.4034C86.036 36.1339 88.6351 34.0643 91.7233 34.0643C94.8114 34.0643 97.4234 36.1339 97.4234 39.4034C97.4234 42.6729 94.7985 44.8158 91.7105 44.8158C88.6223 44.8158 86.036 42.6729 86.036 39.4034ZM95.1459 39.4034C95.1459 37.4196 93.5632 36.0849 91.7105 36.0849C89.8575 36.0849 88.3007 37.4074 88.3007 39.4034C88.3007 41.4116 89.8575 42.7587 91.7105 42.7587C93.5632 42.7587 95.1459 41.4116 95.1459 39.4034ZM106.019 34.444L105.62 36.5013C105.118 36.2808 104.578 36.1583 104.024 36.1461C102.056 36.1461 101.129 38.1053 101.129 40.8973V44.6078H98.8259V34.297H101.129V36.6114C101.682 34.7991 102.776 34.0766 104.166 34.0766C104.899 34.0643 105.671 34.2358 106.019 34.444ZM117.741 34.2847V44.5954H115.463V43.0525C114.743 44.2281 113.186 44.8158 111.732 44.8158C108.785 44.8158 106.353 42.6975 106.353 39.4278C106.353 36.1339 108.785 34.0643 111.706 34.0643C113.237 34.0643 114.743 34.6399 115.463 35.8032V34.2725H117.741V34.2847ZM115.45 39.4034C115.45 37.3338 113.662 36.1094 111.989 36.1094C110.136 36.1094 108.631 37.4563 108.631 39.4034C108.631 41.3259 110.136 42.7587 111.989 42.7587C113.829 42.7587 115.45 41.4851 115.45 39.4034ZM126.709 34.444L126.31 36.5013C125.808 36.2808 125.268 36.1583 124.715 36.1461C122.746 36.1461 121.819 38.1053 121.819 40.8973V44.6078H119.529V34.297H121.832V36.6114C122.386 34.7991 123.479 34.0766 124.869 34.0766C125.59 34.0643 126.362 34.2358 126.709 34.444ZM137.968 40.3095H129.334C129.63 41.9871 130.929 42.8076 132.692 42.8076C133.94 42.8076 135.124 42.3056 135.729 41.3504L137.543 42.2076C136.591 43.9343 134.648 44.8158 132.576 44.8158C129.45 44.8158 126.992 42.6729 126.992 39.4034C126.992 36.1339 129.501 34.0643 132.576 34.0643C135.652 34.0643 138.006 36.1339 138.006 39.3789C138.006 39.6727 137.981 39.9789 137.968 40.3095ZM135.742 38.5707C135.536 36.9543 134.275 36.0727 132.615 36.0727C130.955 36.0727 129.694 36.8685 129.372 38.5707H135.742Z" fill="#080A27"/>
</g>
</g>
</g>
</g>
</svg>
