<svg width="18" height="19" viewBox="0 0 18 19" fill="none" xmlns="http://www.w3.org/2000/svg">
<g id="ui/star-01">
<path id="Solid" d="M9.48322 1.83169C9.17695 1.68566 8.82114 1.68566 8.51487 1.83169C8.25011 1.95792 8.10413 2.1771 8.03052 2.29734C7.95441 2.42165 7.87629 2.57999 7.80014 2.73433L6.18335 6.0098L2.56681 6.5384C2.39656 6.56325 2.22188 6.58875 2.0802 6.62282C1.94312 6.65578 1.68969 6.72707 1.48801 6.93995C1.25469 7.18622 1.14496 7.52464 1.18938 7.86096C1.22777 8.15169 1.39116 8.35812 1.48281 8.46524C1.57754 8.57597 1.70403 8.69912 1.8273 8.81914L4.44315 11.367L3.82593 14.9657C3.79679 15.1354 3.7669 15.3094 3.75539 15.4548C3.74426 15.5953 3.7335 15.8585 3.87353 16.1163C4.03549 16.4145 4.3234 16.6236 4.65706 16.6855C4.94551 16.739 5.19247 16.6474 5.3227 16.5933C5.45736 16.5375 5.61368 16.4552 5.76604 16.375L8.99904 14.6748L12.2321 16.375C12.3844 16.4552 12.5407 16.5375 12.6754 16.5933C12.8056 16.6474 13.0526 16.739 13.341 16.6855C13.6747 16.6236 13.9626 16.4145 14.1246 16.1163C14.2646 15.8585 14.2538 15.5953 14.2427 15.4548C14.2312 15.3094 14.2013 15.1354 14.1722 14.9657L13.5549 11.367L16.1708 8.81911C16.2941 8.6991 16.4205 8.57597 16.5153 8.46524C16.6069 8.35812 16.7703 8.15169 16.8087 7.86096C16.8531 7.52464 16.7434 7.18622 16.5101 6.93995C16.3084 6.72707 16.055 6.65578 15.9179 6.62282C15.7762 6.58875 15.6015 6.56325 15.4313 6.5384L11.8147 6.0098L10.198 2.73439C10.1218 2.58004 10.0437 2.42166 9.96757 2.29734C9.89395 2.1771 9.74798 1.95792 9.48322 1.83169Z" fill="#E7BA01"/>
</g>
</svg>
