<svg width="24" height="25" viewBox="0 0 24 25" fill="none" xmlns="http://www.w3.org/2000/svg">
<g id="Social icon">
<path id="Vector" d="M7.55016 21.9011C16.6045 21.9011 21.5583 14.3978 21.5583 7.89298C21.5583 7.68205 21.5536 7.46642 21.5442 7.25548C22.5079 6.55858 23.3395 5.69538 24 4.70642C23.1025 5.10572 22.1496 5.36651 21.1739 5.47986C22.2013 4.86403 22.9705 3.8966 23.3391 2.75689C22.3726 3.32968 21.3156 3.73373 20.2134 3.95173C19.4708 3.16268 18.489 2.64024 17.4197 2.46517C16.3504 2.29011 15.2532 2.47217 14.2977 2.98322C13.3423 3.49427 12.5818 4.30583 12.1338 5.29243C11.6859 6.27904 11.5754 7.38574 11.8195 8.44142C9.86249 8.34321 7.94794 7.83483 6.19998 6.94922C4.45203 6.06362 2.90969 4.82056 1.67297 3.30064C1.0444 4.38437 0.852057 5.66677 1.13503 6.88721C1.418 8.10766 2.15506 9.17457 3.19641 9.87111C2.41463 9.84629 1.64998 9.6358 0.965625 9.25705V9.31798C0.964925 10.4553 1.3581 11.5577 2.07831 12.4379C2.79852 13.3181 3.80132 13.9217 4.91625 14.1461C4.19206 14.3443 3.43198 14.3731 2.69484 14.2305C3.00945 15.2086 3.62157 16.064 4.44577 16.6775C5.26997 17.2909 6.26512 17.6317 7.29234 17.6524C5.54842 19.0222 3.39417 19.7652 1.17656 19.7617C0.783287 19.7611 0.390399 19.737 0 19.6895C2.25286 21.1349 4.87353 21.9025 7.55016 21.9011Z" fill="#ACADC4"/>
</g>
</svg>
