<svg width="73" height="72" viewBox="0 0 73 72" fill="none" xmlns="http://www.w3.org/2000/svg">
<g filter="url(#filter0_d_810_3799)">
<g clip-path="url(#clip0_810_3799)">
<path d="M36.5 59.7139C51.1356 59.7139 63 47.8494 63 33.2139C63 18.5783 51.1356 6.71387 36.5 6.71387C21.8645 6.71387 10 18.5783 10 33.2139C10 47.8494 21.8645 59.7139 36.5 59.7139Z" fill="#F0F0F0"/>
<path d="M15.4792 17.0806C13.3976 19.7888 11.828 22.9104 10.9141 26.3014H24.7001L15.4792 17.0806Z" fill="#0052B4"/>
<path d="M62.0866 26.3013C61.1726 22.9104 59.6029 19.7888 57.5214 17.0806L48.3008 26.3013H62.0866Z" fill="#0052B4"/>
<path d="M10.9141 40.1274C11.8281 43.5184 13.3977 46.6399 15.4792 49.3481L24.6998 40.1274H10.9141Z" fill="#0052B4"/>
<path d="M52.6348 12.1922C49.9265 10.1106 46.8051 8.541 43.4141 7.62695V21.4129L52.6348 12.1922Z" fill="#0052B4"/>
<path d="M20.3672 54.2362C23.0755 56.3178 26.197 57.8874 29.5879 58.8014V45.0156L20.3672 54.2362Z" fill="#0052B4"/>
<path d="M29.5878 7.62695C26.1969 8.541 23.0754 10.1106 20.3672 12.1921L29.5878 21.4127V7.62695Z" fill="#0052B4"/>
<path d="M43.4141 58.8014C46.805 57.8874 49.9265 56.3178 52.6347 54.2363L43.4141 45.0156V58.8014Z" fill="#0052B4"/>
<path d="M48.3008 40.1274L57.5214 49.3482C59.6029 46.64 61.1726 43.5184 62.0866 40.1274H48.3008Z" fill="#0052B4"/>
<path d="M62.7757 29.7574H39.9567H39.9566V6.93819C38.8251 6.79088 37.6715 6.71387 36.5 6.71387C35.3283 6.71387 34.1749 6.79088 33.0435 6.93819V29.7572V29.7573H10.2243C10.077 30.8888 10 32.0424 10 33.2139C10 34.3856 10.077 35.5389 10.2243 36.6704H33.0433H33.0434V59.4895C34.1749 59.6369 35.3283 59.7139 36.5 59.7139C37.6715 59.7139 38.8251 59.637 39.9565 59.4895V36.6706V36.6705H62.7757C62.923 35.5389 63 34.3856 63 33.2139C63 32.0424 62.923 30.8888 62.7757 29.7574Z" fill="#D80027"/>
<path d="M43.4141 40.1271L55.2393 51.9523C55.7831 51.4086 56.302 50.8402 56.797 50.251L46.6729 40.127H43.4141V40.1271Z" fill="#D80027"/>
<path d="M29.587 40.127H29.5868L17.7617 51.9521C18.3054 52.4959 18.8738 53.0147 19.463 53.5098L29.587 43.3855V40.127Z" fill="#D80027"/>
<path d="M29.586 26.3011V26.3009L17.7608 14.4756C17.217 15.0193 16.6981 15.5877 16.2031 16.1769L26.3273 26.301H29.586V26.3011Z" fill="#D80027"/>
<path d="M43.4141 26.301L55.2394 14.4756C54.6957 13.9317 54.1273 13.4129 53.5381 12.918L43.4141 23.0421V26.301Z" fill="#D80027"/>
</g>
</g>
<defs>
<filter id="filter0_d_810_3799" x="0.67" y="0.0538673" width="71.66" height="71.66" filterUnits="userSpaceOnUse" color-interpolation-filters="sRGB">
<feFlood flood-opacity="0" result="BackgroundImageFix"/>
<feColorMatrix in="SourceAlpha" type="matrix" values="0 0 0 0 0 0 0 0 0 0 0 0 0 0 0 0 0 0 127 0" result="hardAlpha"/>
<feOffset dy="2.67"/>
<feGaussianBlur stdDeviation="4.665"/>
<feComposite in2="hardAlpha" operator="out"/>
<feColorMatrix type="matrix" values="0 0 0 0 0 0 0 0 0 0 0 0 0 0 0 0 0 0 0.16 0"/>
<feBlend mode="normal" in2="BackgroundImageFix" result="effect1_dropShadow_810_3799"/>
<feBlend mode="normal" in="SourceGraphic" in2="effect1_dropShadow_810_3799" result="shape"/>
</filter>
<clipPath id="clip0_810_3799">
<rect x="10" y="6.71387" width="53" height="53" rx="26.5" fill="white"/>
</clipPath>
</defs>
</svg>
