<svg width="179" height="78" viewBox="0 0 179 78" fill="none" xmlns="http://www.w3.org/2000/svg">
<g id="visa 1">
<g id="Clip path group">
<mask id="mask0_624_536" style="mask-type:luminance" maskUnits="userSpaceOnUse" x="61" y="30" width="57" height="18">
<g id="clip0_3134_2176">
<path id="Vector" d="M117.461 30.1732H61.8359V47.9423H117.461V30.1732Z" fill="white"/>
</g>
</mask>
<g mask="url(#mask0_624_536)">
<g id="Group">
<path id="Vector_2" d="M85.9396 47.6859H81.4336L84.252 30.4849H88.7577L85.9396 47.6859Z" fill="#080A27"/>
<path id="Vector_3" d="M102.275 30.9055C101.386 30.5574 99.9761 30.1732 98.2331 30.1732C93.7833 30.1732 90.6496 32.5153 90.6304 35.8638C90.5934 38.3344 92.8739 39.7066 94.5797 40.5303C96.323 41.3721 96.9155 41.9215 96.9155 42.6719C96.8978 43.8242 95.5068 44.3554 94.2095 44.3554C92.4106 44.3554 91.4466 44.0816 89.9817 43.4403L89.3883 43.1655L88.7578 47.0268C89.8147 47.5021 91.7617 47.9238 93.7833 47.9422C98.5112 47.9422 101.589 45.6364 101.626 42.0679C101.644 40.1098 100.44 38.6094 97.8435 37.3835C96.2675 36.5964 95.3024 36.0657 95.3024 35.2604C95.3207 34.5284 96.1187 33.7786 97.8977 33.7786C99.3626 33.7418 100.439 34.0894 101.254 34.4372L101.662 34.6199L102.275 30.9055Z" fill="#080A27"/>
<path id="Vector_4" d="M108.264 41.5922C108.636 40.604 110.064 36.7795 110.064 36.7795C110.045 36.8162 110.434 35.7731 110.656 35.1327L110.971 36.6149C110.971 36.6149 111.825 40.7322 112.01 41.5922C111.306 41.5922 109.154 41.5922 108.264 41.5922ZM113.827 30.4849H110.341C109.266 30.4849 108.45 30.7958 107.986 31.9121L101.293 47.6856H106.021C106.021 47.6856 106.799 45.5626 106.967 45.1053C107.485 45.1053 112.085 45.1053 112.752 45.1053C112.881 45.7093 113.29 47.6856 113.29 47.6856H117.462L113.827 30.4849Z" fill="#080A27"/>
<path id="Vector_5" d="M77.6717 30.4849L73.2589 42.2144L72.7767 39.8354C71.9609 37.0906 69.4021 34.1083 66.5469 32.6255L70.5889 47.6677H75.3538L82.4366 30.4849H77.6717Z" fill="#080A27"/>
<path id="Vector_6" d="M69.1598 30.4849H61.9101L61.8359 30.8325C67.4912 32.2599 71.2366 35.7005 72.7753 39.8363L71.1993 31.9308C70.9399 30.8322 70.1426 30.5212 69.1598 30.4849Z" fill="#080A27"/>
</g>
</g>
</g>
</g>
</svg>
