<svg width="74" height="74" viewBox="0 0 74 74" fill="none" xmlns="http://www.w3.org/2000/svg">
<path d="M11.5625 32.3753C10.9492 32.3753 10.361 32.1316 9.92732 31.6979C9.49364 31.2643 9.25 30.6761 9.25 30.0628V11.5674C9.25 10.9541 9.49364 10.3659 9.92732 9.9322C10.361 9.49852 10.9492 9.25488 11.5625 9.25488H30.0625C30.6758 9.25488 31.264 9.49852 31.6977 9.9322C32.1314 10.3659 32.375 10.9541 32.375 11.5674V30.0628C32.375 30.6761 32.1314 31.2643 31.6977 31.6979C31.264 32.1316 30.6758 32.3753 30.0625 32.3753H11.5625ZM43.9375 32.3753C43.3242 32.3753 42.736 32.1316 42.3023 31.6979C41.8686 31.2643 41.625 30.6761 41.625 30.0628V11.5674C41.625 10.9541 41.8686 10.3659 42.3023 9.9322C42.736 9.49852 43.3242 9.25488 43.9375 9.25488H62.4329C63.0462 9.25488 63.6344 9.49852 64.0681 9.9322C64.5017 10.3659 64.7454 10.9541 64.7454 11.5674V30.0628C64.7454 30.6761 64.5017 31.2643 64.0681 31.6979C63.6344 32.1316 63.0462 32.3753 62.4329 32.3753H43.9375ZM11.5625 64.7503C10.9492 64.7503 10.361 64.5066 9.92732 64.0729C9.49364 63.6393 9.25 63.0511 9.25 62.4378V43.9378C9.25 43.3244 9.49364 42.7362 9.92732 42.3026C10.361 41.8689 10.9492 41.6253 11.5625 41.6253H30.0625C30.6758 41.6253 31.264 41.8689 31.6977 42.3026C32.1314 42.7362 32.375 43.3244 32.375 43.9378V62.4378C32.375 63.0511 32.1314 63.6393 31.6977 64.0729C31.264 64.5066 30.6758 64.7503 30.0625 64.7503H11.5625ZM43.9375 64.7503C43.3242 64.7503 42.736 64.5066 42.3023 64.0729C41.8686 63.6393 41.625 63.0511 41.625 62.4378V43.9378C41.625 43.3244 41.8686 42.7362 42.3023 42.3026C42.736 41.8689 43.3242 41.6253 43.9375 41.6253H62.4329C63.0462 41.6253 63.6344 41.8689 64.0681 42.3026C64.5017 42.7362 64.7454 43.3244 64.7454 43.9378V62.4378C64.7454 63.0511 64.5017 63.6393 64.0681 64.0729C63.6344 64.5066 63.0462 64.7503 62.4329 64.7503H43.9375Z" fill="#EEB969"/>
</svg>
