<svg width="80" height="38" viewBox="0 0 80 38" fill="none" xmlns="http://www.w3.org/2000/svg">
<path d="M2.8125 30V10.0117H6.09375V27.2109H14.584V30H2.8125ZM35.7891 19.9785C35.7891 21.5189 35.5931 22.9225 35.2012 24.1895C34.8184 25.4473 34.2396 26.5319 33.4648 27.4434C32.6901 28.3457 31.7194 29.043 30.5527 29.5352C29.3861 30.0273 28.0189 30.2734 26.4512 30.2734C24.8561 30.2734 23.4707 30.0273 22.2949 29.5352C21.1283 29.043 20.1576 28.3411 19.3828 27.4297C18.6172 26.5182 18.043 25.429 17.6602 24.1621C17.2773 22.8952 17.0859 21.4915 17.0859 19.9512C17.0859 17.8913 17.4232 16.0957 18.0977 14.5645C18.7812 13.0241 19.8158 11.8301 21.2012 10.9824C22.5957 10.1257 24.3548 9.69727 26.4785 9.69727C28.5566 9.69727 30.2839 10.1211 31.6602 10.9688C33.0365 11.8164 34.0664 13.0104 34.75 14.5508C35.4427 16.082 35.7891 17.8913 35.7891 19.9785ZM20.5312 19.9785C20.5312 21.5189 20.7409 22.8542 21.1602 23.9844C21.5794 25.1055 22.222 25.9714 23.0879 26.582C23.9629 27.1836 25.084 27.4844 26.4512 27.4844C27.8275 27.4844 28.9486 27.1836 29.8145 26.582C30.6803 25.9714 31.3184 25.1055 31.7285 23.9844C32.1387 22.8542 32.3438 21.5189 32.3438 19.9785C32.3438 17.6361 31.8743 15.804 30.9355 14.4824C30.0059 13.1517 28.5202 12.4863 26.4785 12.4863C25.1113 12.4863 23.9857 12.7871 23.1016 13.3887C22.2266 13.9902 21.5794 14.8516 21.1602 15.9727C20.7409 17.0846 20.5312 18.4199 20.5312 19.9785ZM48.1484 19.1445H55.6133V29.1797C54.5651 29.526 53.4805 29.7949 52.3594 29.9863C51.2383 30.1777 49.9805 30.2734 48.5859 30.2734C46.5534 30.2734 44.8307 29.8724 43.418 29.0703C42.0143 28.2591 40.9479 27.0879 40.2188 25.5566C39.4896 24.0163 39.125 22.1615 39.125 19.9922C39.125 17.9049 39.5306 16.0957 40.3418 14.5645C41.153 13.0241 42.3333 11.8346 43.8828 10.9961C45.4323 10.1484 47.3099 9.72461 49.5156 9.72461C50.6003 9.72461 51.6484 9.83398 52.6602 10.0527C53.681 10.2624 54.6152 10.554 55.4629 10.9277L54.3145 13.6348C53.64 13.3158 52.8835 13.0469 52.0449 12.8281C51.2064 12.6094 50.3359 12.5 49.4336 12.5C48.0026 12.5 46.7676 12.8099 45.7285 13.4297C44.6986 14.0495 43.9056 14.9245 43.3496 16.0547C42.7936 17.1758 42.5156 18.502 42.5156 20.0332C42.5156 21.5189 42.7389 22.8223 43.1855 23.9434C43.6322 25.0645 44.3294 25.9395 45.2773 26.5684C46.2344 27.1882 47.4694 27.498 48.9824 27.498C49.7389 27.498 50.3815 27.457 50.9102 27.375C51.4388 27.293 51.9264 27.2018 52.373 27.1016V21.9473H48.1484V19.1445ZM78.1445 19.9785C78.1445 21.5189 77.9486 22.9225 77.5566 24.1895C77.1738 25.4473 76.5951 26.5319 75.8203 27.4434C75.0456 28.3457 74.0749 29.043 72.9082 29.5352C71.7415 30.0273 70.3743 30.2734 68.8066 30.2734C67.2116 30.2734 65.8262 30.0273 64.6504 29.5352C63.4837 29.043 62.513 28.3411 61.7383 27.4297C60.9727 26.5182 60.3984 25.429 60.0156 24.1621C59.6328 22.8952 59.4414 21.4915 59.4414 19.9512C59.4414 17.8913 59.7786 16.0957 60.4531 14.5645C61.1367 13.0241 62.1712 11.8301 63.5566 10.9824C64.9512 10.1257 66.7103 9.69727 68.834 9.69727C70.9121 9.69727 72.6393 10.1211 74.0156 10.9688C75.3919 11.8164 76.4219 13.0104 77.1055 14.5508C77.7982 16.082 78.1445 17.8913 78.1445 19.9785ZM62.8867 19.9785C62.8867 21.5189 63.0964 22.8542 63.5156 23.9844C63.9349 25.1055 64.5775 25.9714 65.4434 26.582C66.3184 27.1836 67.4395 27.4844 68.8066 27.4844C70.1829 27.4844 71.304 27.1836 72.1699 26.582C73.0358 25.9714 73.6738 25.1055 74.084 23.9844C74.4941 22.8542 74.6992 21.5189 74.6992 19.9785C74.6992 17.6361 74.2298 15.804 73.291 14.4824C72.3613 13.1517 70.8757 12.4863 68.834 12.4863C67.4668 12.4863 66.3411 12.7871 65.457 13.3887C64.582 13.9902 63.9349 14.8516 63.5156 15.9727C63.0964 17.0846 62.8867 18.4199 62.8867 19.9785Z" fill="#070707"/>
</svg>
