<svg width="356" height="87" viewBox="0 0 356 87" fill="none" xmlns="http://www.w3.org/2000/svg">
<path d="M115.851 18.9398C115.851 16.6951 116.248 14.5023 117.042 12.3612C117.836 10.1856 118.993 8.21716 120.513 6.45596C122.067 4.66022 123.949 3.24435 126.159 2.20834C128.369 1.13781 130.873 0.602539 133.67 0.602539C136.985 0.602539 139.852 1.36228 142.269 2.88175C144.686 4.36669 146.482 6.28329 147.656 8.63157L143.098 11.6878C142.407 10.2028 141.526 9.0287 140.456 8.16536C139.42 7.30203 138.28 6.69769 137.037 6.35236C135.828 6.00702 134.637 5.83436 133.463 5.83436C131.529 5.83436 129.837 6.23149 128.386 7.02576C126.936 7.7855 125.71 8.80423 124.709 10.082C123.742 11.3597 122.999 12.7928 122.481 14.3814C121.998 15.9699 121.756 17.5585 121.756 19.147C121.756 20.9082 122.05 22.6176 122.637 24.2752C123.224 25.8983 124.035 27.3487 125.071 28.6264C126.142 29.8696 127.402 30.8538 128.853 31.579C130.303 32.3042 131.892 32.6668 133.618 32.6668C134.792 32.6668 136.018 32.4596 137.296 32.0452C138.574 31.6308 139.748 30.992 140.818 30.1286C141.924 29.2308 142.787 28.0566 143.408 26.6062L148.226 29.3516C147.466 31.1819 146.275 32.7359 144.652 34.0136C143.063 35.2914 141.267 36.2583 139.264 36.9145C137.296 37.5706 135.345 37.8987 133.411 37.8987C130.821 37.8987 128.456 37.3634 126.314 36.2929C124.173 35.1878 122.326 33.7374 120.772 31.9416C119.218 30.1114 118.009 28.0739 117.146 25.8292C116.282 23.55 115.851 21.2535 115.851 18.9398Z" fill="black"/>
<path d="M154.628 37.5879V0.80974H160.43V32.4596H180.166V37.5879H154.628Z" fill="black"/>
<path d="M211.141 32.4596V37.5879H185.915V0.80974H210.675V5.93796H191.716V16.4016H208.137V21.219H191.716V32.4596H211.141Z" fill="black"/>
<path d="M228.781 0.80974H234.272L248.569 37.5879H242.456L238.571 27.5904H224.378L220.545 37.5879H214.381L228.781 0.80974ZM237.432 23.291L231.527 7.18116L225.414 23.291H237.432Z" fill="black"/>
<path d="M259.955 11.5842V37.5879H254.153V0.80974H258.919L279.742 27.3832V0.86154H285.596V37.5879H280.519L259.955 11.5842Z" fill="black"/>
<path d="M320.126 32.4596V37.5879H294.899V0.80974H319.66V5.93796H300.701V16.4016H317.122V21.219H300.701V32.4596H320.126Z" fill="black"/>
<path d="M327.147 37.5879V0.80974H343.153C344.811 0.80974 346.33 1.15507 347.712 1.84574C349.093 2.53641 350.284 3.45155 351.286 4.59115C352.322 5.73076 353.116 7.00849 353.669 8.42436C354.256 9.84024 354.549 11.2906 354.549 12.7756C354.549 14.3987 354.256 15.9527 353.669 17.4376C353.081 18.9225 352.235 20.2003 351.13 21.2708C350.06 22.3413 348.799 23.1183 347.349 23.6018L356 37.5879H349.473L341.496 24.7932H332.948V37.5879H327.147ZM332.948 19.665H343.101C344.172 19.665 345.122 19.3542 345.95 18.7326C346.779 18.111 347.435 17.2822 347.919 16.2462C348.402 15.1757 348.644 14.0188 348.644 12.7756C348.644 11.4978 348.368 10.3582 347.815 9.35677C347.263 8.32076 346.537 7.49196 345.64 6.87036C344.776 6.24876 343.827 5.93796 342.791 5.93796H332.948V19.665Z" fill="black"/>
<path d="M128.801 49.3906H134.292L148.588 86.1687H142.476L138.591 76.1712H124.398L120.565 86.1687H114.4L128.801 49.3906ZM137.451 71.8718L131.546 55.762L125.434 71.8718H137.451Z" fill="black"/>
<path d="M166.742 86.4277C164.325 86.4277 162.063 85.9269 159.957 84.9255C157.85 83.924 156.003 82.5427 154.414 80.7815C152.86 79.0202 151.634 77.0173 150.736 74.7726C149.873 72.528 149.441 70.1452 149.441 67.6242C149.441 65.1033 149.873 62.7377 150.736 60.5276C151.634 58.3175 152.86 56.349 154.414 54.6224C156.003 52.8957 157.85 51.5489 159.957 50.582C162.098 49.615 164.429 49.1316 166.95 49.1316C170.438 49.1316 173.373 49.874 175.756 51.359C178.173 52.8094 179.986 54.7432 181.195 57.1606L176.74 60.3722C175.773 58.3692 174.392 56.867 172.596 55.8656C170.835 54.8641 168.901 54.3634 166.794 54.3634C165.068 54.3634 163.496 54.726 162.08 55.4512C160.665 56.1764 159.439 57.1778 158.403 58.4556C157.401 59.6988 156.641 61.1319 156.123 62.755C155.605 64.3435 155.346 66.0184 155.346 67.7796C155.346 69.6444 155.64 71.3884 156.227 73.0114C156.814 74.6345 157.643 76.0676 158.713 77.3108C159.784 78.5195 161.044 79.4692 162.495 80.1599C163.945 80.8505 165.516 81.1959 167.209 81.1959C169.212 81.1959 171.111 80.6951 172.907 79.6936C174.737 78.6576 176.446 77.1209 178.035 75.0834V80.9887C174.823 84.6147 171.059 86.4277 166.742 86.4277ZM177.465 71.8718H169.747V67.5724H182.334V86.1687H177.465V71.8718Z" fill="black"/>
<path d="M214.178 81.0405V86.1687H188.952V49.3906H213.712V54.5188H194.753V64.9824H211.174V69.7998H194.753V81.0405H214.178Z" fill="black"/>
<path d="M225.965 60.165V86.1687H220.163V49.3906H224.929L245.753 75.964V49.4424H251.606V86.1687H246.53L225.965 60.165Z" fill="black"/>
<path d="M257.542 67.5206C257.542 65.2759 257.94 63.0831 258.734 60.942C259.528 58.7664 260.685 56.798 262.204 55.0368C263.758 53.241 265.641 51.8252 267.851 50.7892C270.061 49.7186 272.564 49.1834 275.362 49.1834C278.677 49.1834 281.543 49.9431 283.961 51.4626C286.378 52.9475 288.174 54.8641 289.348 57.2124L284.789 60.2686C284.099 58.7837 283.218 57.6095 282.148 56.7462C281.112 55.8828 279.972 55.2785 278.729 54.9332C277.52 54.5878 276.329 54.4152 275.154 54.4152C273.221 54.4152 271.528 54.8123 270.078 55.6066C268.628 56.3663 267.402 57.385 266.4 58.6628C265.433 59.9405 264.691 61.3737 264.173 62.9622C263.689 64.5507 263.448 66.1393 263.448 67.7278C263.448 69.489 263.741 71.1984 264.328 72.856C264.915 74.4791 265.727 75.9295 266.763 77.2072C267.833 78.4504 269.094 79.4347 270.544 80.1599C271.995 80.8851 273.583 81.2477 275.31 81.2477C276.484 81.2477 277.71 81.0405 278.988 80.6261C280.265 80.2116 281.44 79.5728 282.51 78.7094C283.615 77.8116 284.479 76.6374 285.1 75.187L289.918 77.9324C289.158 79.7627 287.966 81.3167 286.343 82.5945C284.755 83.8722 282.959 84.8391 280.956 85.4953C278.988 86.1514 277.037 86.4795 275.103 86.4795C272.513 86.4795 270.147 85.9442 268.006 84.8737C265.865 83.7686 264.017 82.3182 262.463 80.5225C260.909 78.6922 259.701 76.6547 258.837 74.41C257.974 72.1308 257.542 69.8344 257.542 67.5206Z" fill="black"/>
<path d="M297.016 49.3906L307.169 67.676L317.425 49.3906H323.797L310.07 73.0114V86.1687H304.268V72.9078L290.645 49.3906H297.016Z" fill="black"/>
<path fill-rule="evenodd" clip-rule="evenodd" d="M49.7305 0L99.4609 32.8347V86.5939H0V32.8347L49.7305 0ZM5.81313 35.9625V80.7808H93.6478V35.9625L49.7305 6.9659L5.81313 35.9625ZM49.7362 23.3754C47.5088 26.8334 45.3563 30.3411 43.3074 33.9079C41.0835 37.7795 38.878 41.9183 37.2138 45.6897C35.504 49.5644 34.5311 52.6931 34.4584 54.6725C34.1428 63.2616 41.4582 70.3913 49.7362 70.3913C58.0142 70.3913 65.3296 63.2616 65.0141 54.6725C64.9413 52.6931 63.9685 49.5644 62.2587 45.6897C60.5944 41.9183 58.389 37.7795 56.1651 33.9079C54.1161 30.3411 51.9636 26.8334 49.7362 23.3754ZM67.577 43.3429C69.3119 47.2745 70.7066 51.2832 70.8233 54.459C71.2653 66.4906 61.1559 76.2044 49.7362 76.2044C38.3166 76.2044 28.2071 66.4906 28.6492 54.459C28.7659 51.2832 30.1605 47.2745 31.8954 43.3429C33.6759 39.308 35.9924 34.9717 38.2667 31.0124C40.546 27.0445 42.8095 23.4096 44.5011 20.7692C46.1983 18.1203 47.9667 15.5212 49.7362 12.9203C51.5057 15.5211 53.2741 18.1203 54.9713 20.7692C56.663 23.4096 58.9264 27.0445 61.2057 31.0124C63.4801 34.9717 65.7966 39.308 67.577 43.3429Z" fill="#050505"/>
</svg>
