<svg width="174" height="120" viewBox="0 0 174 120" fill="none" xmlns="http://www.w3.org/2000/svg">
<path d="M1.24529 73.08C1.24529 72.1413 1.40662 71.21 1.72929 70.286C2.06662 69.3473 2.55062 68.5113 3.18129 67.778C3.81196 67.0447 4.58929 66.4507 5.51329 65.996C6.43729 65.5267 7.48596 65.292 8.65929 65.292C10.0526 65.292 11.2406 65.6073 12.2233 66.238C13.2206 66.8687 13.954 67.69 14.4233 68.702L13.2133 69.45C12.964 68.9367 12.656 68.504 12.2893 68.152C11.9373 67.8 11.556 67.514 11.1453 67.294C10.7346 67.074 10.3093 66.92 9.86929 66.832C9.42929 66.7293 8.99662 66.678 8.57129 66.678C7.63262 66.678 6.80396 66.8687 6.08529 67.25C5.36662 67.6313 4.75796 68.13 4.25929 68.746C3.77529 69.362 3.40862 70.0587 3.15929 70.836C2.90996 71.5987 2.78529 72.376 2.78529 73.168C2.78529 74.0333 2.93196 74.862 3.22529 75.654C3.53329 76.446 3.94396 77.15 4.45729 77.766C4.98529 78.3673 5.60129 78.8513 6.30529 79.218C7.02396 79.57 7.80129 79.746 8.63729 79.746C9.07729 79.746 9.52462 79.6947 9.97929 79.592C10.4486 79.4747 10.896 79.2987 11.3213 79.064C11.7613 78.8147 12.1646 78.514 12.5313 78.162C12.898 77.7953 13.206 77.3553 13.4553 76.842L14.7313 77.502C14.482 78.0887 14.13 78.6093 13.6753 79.064C13.2206 79.504 12.7146 79.878 12.1573 80.186C11.6 80.494 11.006 80.7287 10.3753 80.89C9.75929 81.0513 9.15062 81.132 8.54929 81.132C7.47862 81.132 6.49596 80.8973 5.60129 80.428C4.70662 79.9587 3.93662 79.35 3.29129 78.602C2.64596 77.8393 2.13996 76.9813 1.77329 76.028C1.42129 75.06 1.24529 74.0773 1.24529 73.08ZM22.9273 81.22C21.9593 81.22 21.1013 80.978 20.3533 80.494C19.62 79.9953 19.026 79.372 18.5713 78.624V85.686H17.0753V69.538H18.4173V71.76C18.8867 71.0413 19.4953 70.462 20.2433 70.022C20.9913 69.5673 21.8053 69.34 22.6853 69.34C23.4773 69.34 24.2033 69.5087 24.8633 69.846C25.5233 70.1687 26.0953 70.6087 26.5793 71.166C27.0633 71.7087 27.4373 72.3393 27.7013 73.058C27.98 73.7767 28.1193 74.5173 28.1193 75.28C28.1193 76.0867 27.9947 76.8493 27.7453 77.568C27.496 78.2867 27.1367 78.9173 26.6673 79.46C26.2127 80.0027 25.6627 80.4353 25.0173 80.758C24.3867 81.066 23.69 81.22 22.9273 81.22ZM22.5093 79.9C23.1253 79.9 23.6827 79.768 24.1813 79.504C24.6947 79.24 25.1273 78.8953 25.4793 78.47C25.846 78.03 26.1247 77.5387 26.3153 76.996C26.506 76.4387 26.6013 75.8667 26.6013 75.28C26.6013 74.664 26.4913 74.0773 26.2713 73.52C26.0513 72.9627 25.7507 72.4713 25.3693 72.046C24.988 71.6207 24.5333 71.2833 24.0053 71.034C23.492 70.7847 22.9347 70.66 22.3333 70.66C21.952 70.66 21.5487 70.7407 21.1233 70.902C20.7127 71.0487 20.324 71.254 19.9573 71.518C19.6053 71.7673 19.2973 72.068 19.0333 72.42C18.784 72.7573 18.63 73.1167 18.5713 73.498V77.018C18.7473 77.4287 18.9673 77.81 19.2313 78.162C19.51 78.514 19.818 78.822 20.1553 79.086C20.5073 79.3353 20.8813 79.5333 21.2773 79.68C21.6733 79.8267 22.084 79.9 22.5093 79.9ZM35.6244 81.22C34.7884 81.22 34.0184 81.066 33.3144 80.758C32.6251 80.4353 32.0237 80.0027 31.5104 79.46C30.9971 78.9027 30.5937 78.2647 30.3004 77.546C30.0217 76.8273 29.8824 76.0573 29.8824 75.236C29.8824 74.4293 30.0217 73.674 30.3004 72.97C30.5937 72.2513 30.9897 71.628 31.4884 71.1C32.0017 70.5573 32.6104 70.132 33.3144 69.824C34.0184 69.5013 34.7811 69.34 35.6024 69.34C36.4384 69.34 37.2011 69.5013 37.8904 69.824C38.5944 70.132 39.1957 70.5573 39.6944 71.1C40.1931 71.6427 40.5817 72.266 40.8604 72.97C41.1391 73.674 41.2784 74.422 41.2784 75.214C41.2784 75.3313 41.2784 75.4487 41.2784 75.566C41.2784 75.6833 41.2711 75.764 41.2564 75.808H31.4444C31.4884 76.424 31.6277 76.996 31.8624 77.524C32.1117 78.0373 32.4271 78.4847 32.8084 78.866C33.1897 79.2473 33.6224 79.548 34.1064 79.768C34.6051 79.9733 35.1331 80.076 35.6904 80.076C36.0571 80.076 36.4237 80.0247 36.7904 79.922C37.1571 79.8193 37.4944 79.68 37.8024 79.504C38.1104 79.328 38.3891 79.1153 38.6384 78.866C38.8877 78.602 39.0784 78.316 39.2104 78.008L40.5084 78.36C40.3324 78.7853 40.0831 79.174 39.7604 79.526C39.4377 79.8633 39.0637 80.164 38.6384 80.428C38.2131 80.6773 37.7437 80.868 37.2304 81C36.7171 81.1467 36.1817 81.22 35.6244 81.22ZM39.8484 74.664C39.8044 74.048 39.6577 73.4907 39.4084 72.992C39.1737 72.4787 38.8657 72.0387 38.4844 71.672C38.1177 71.3053 37.6851 71.0193 37.1864 70.814C36.7024 70.6087 36.1817 70.506 35.6244 70.506C35.0671 70.506 34.5391 70.6087 34.0404 70.814C33.5417 71.0193 33.1017 71.3053 32.7204 71.672C32.3537 72.0387 32.0531 72.4787 31.8184 72.992C31.5984 73.5053 31.4664 74.0627 31.4224 74.664H39.8484ZM41.9888 79.702H42.6488C42.9714 79.6287 43.2501 79.4673 43.4848 79.218C43.7341 78.954 43.9541 78.558 44.1448 78.03C44.3354 77.4873 44.5041 76.7833 44.6508 75.918C44.7974 75.038 44.9514 73.9453 45.1128 72.64L45.4648 69.538H52.1748V79.702H53.5828V84.542H52.2628V81H43.2428V84.542H41.9888V79.702ZM50.7228 79.702V70.726H46.8508L46.5208 73.278C46.2714 75.0967 46.0001 76.5193 45.7068 77.546C45.4281 78.5727 45.0908 79.2913 44.6948 79.702H50.7228ZM57.436 74.488H63.86V69.538H65.334V81H63.86V75.742H57.436V81H55.962V69.538H57.436V74.488ZM70.7708 76.446C70.0668 76.2407 69.4875 75.8667 69.0328 75.324C68.5781 74.7667 68.3508 74.026 68.3508 73.102C68.3508 72.5887 68.4461 72.112 68.6368 71.672C68.8275 71.232 69.0841 70.858 69.4068 70.55C69.7441 70.2273 70.1401 69.978 70.5948 69.802C71.0641 69.626 71.5775 69.538 72.1348 69.538H76.2268V81H74.7528V76.644H72.2668L69.3628 81H67.6688L70.7708 76.446ZM74.7528 75.346V70.836H72.2008C71.8928 70.836 71.5921 70.8873 71.2988 70.99C71.0201 71.0927 70.7708 71.2467 70.5508 71.452C70.3308 71.6427 70.1548 71.8773 70.0228 72.156C69.8908 72.4347 69.8248 72.75 69.8248 73.102C69.8248 73.7767 70.0228 74.3193 70.4188 74.73C70.8295 75.1407 71.3648 75.346 72.0248 75.346H74.7528ZM81.6634 76.446C80.9594 76.2407 80.38 75.8667 79.9254 75.324C79.4707 74.7667 79.2434 74.026 79.2434 73.102C79.2434 72.5887 79.3387 72.112 79.5294 71.672C79.72 71.232 79.9767 70.858 80.2994 70.55C80.6367 70.2273 81.0327 69.978 81.4874 69.802C81.9567 69.626 82.47 69.538 83.0274 69.538H87.1194V81H85.6454V76.644H83.1594L80.2554 81H78.5614L81.6634 76.446ZM85.6454 75.346V70.836H83.0934C82.7854 70.836 82.4847 70.8873 82.1914 70.99C81.9127 71.0927 81.6634 71.2467 81.4434 71.452C81.2234 71.6427 81.0474 71.8773 80.9154 72.156C80.7834 72.4347 80.7174 72.75 80.7174 73.102C80.7174 73.7767 80.9154 74.3193 81.3114 74.73C81.722 75.1407 82.2574 75.346 82.9174 75.346H85.6454ZM100.935 81.22C100.099 81.22 99.3367 81.066 98.6474 80.758C97.958 80.4353 97.3567 80.0027 96.8434 79.46C96.3447 78.9173 95.956 78.2867 95.6774 77.568C95.3987 76.8493 95.2594 76.094 95.2594 75.302C95.2594 74.4953 95.3987 73.7327 95.6774 73.014C95.9707 72.2953 96.3667 71.6647 96.8654 71.122C97.3787 70.5793 97.98 70.1467 98.6694 69.824C99.3587 69.5013 100.114 69.34 100.935 69.34C101.757 69.34 102.512 69.5013 103.201 69.824C103.905 70.1467 104.507 70.5793 105.005 71.122C105.519 71.6647 105.915 72.2953 106.193 73.014C106.487 73.7327 106.633 74.4953 106.633 75.302C106.633 76.094 106.494 76.8493 106.215 77.568C105.937 78.2867 105.541 78.9173 105.027 79.46C104.529 80.0027 103.927 80.4353 103.223 80.758C102.534 81.066 101.771 81.22 100.935 81.22ZM96.7774 75.324C96.7774 75.9693 96.8874 76.5707 97.1074 77.128C97.3274 77.6707 97.6207 78.1547 97.9874 78.58C98.3687 78.9907 98.8087 79.3133 99.3074 79.548C99.8207 79.7827 100.363 79.9 100.935 79.9C101.507 79.9 102.043 79.7827 102.541 79.548C103.055 79.2987 103.502 78.9687 103.883 78.558C104.265 78.1327 104.565 77.6413 104.785 77.084C105.005 76.5267 105.115 75.9253 105.115 75.28C105.115 74.6493 105.005 74.0553 104.785 73.498C104.565 72.926 104.265 72.4347 103.883 72.024C103.502 71.5987 103.055 71.2687 102.541 71.034C102.043 70.7847 101.507 70.66 100.935 70.66C100.363 70.66 99.828 70.7847 99.3294 71.034C98.8307 71.2687 98.3907 71.5987 98.0094 72.024C97.628 72.4493 97.3274 72.948 97.1074 73.52C96.8874 74.0773 96.7774 74.6787 96.7774 75.324ZM109.157 69.538H110.631V79.702H116.241V69.538H117.693V79.702H119.607V84.542H118.309V81H109.157V69.538ZM126.482 81.22C125.646 81.22 124.876 81.066 124.172 80.758C123.483 80.4353 122.881 80.0027 122.368 79.46C121.855 78.9027 121.451 78.2647 121.158 77.546C120.879 76.8273 120.74 76.0573 120.74 75.236C120.74 74.4293 120.879 73.674 121.158 72.97C121.451 72.2513 121.847 71.628 122.346 71.1C122.859 70.5573 123.468 70.132 124.172 69.824C124.876 69.5013 125.639 69.34 126.46 69.34C127.296 69.34 128.059 69.5013 128.748 69.824C129.452 70.132 130.053 70.5573 130.552 71.1C131.051 71.6427 131.439 72.266 131.718 72.97C131.997 73.674 132.136 74.422 132.136 75.214C132.136 75.3313 132.136 75.4487 132.136 75.566C132.136 75.6833 132.129 75.764 132.114 75.808H122.302C122.346 76.424 122.485 76.996 122.72 77.524C122.969 78.0373 123.285 78.4847 123.666 78.866C124.047 79.2473 124.48 79.548 124.964 79.768C125.463 79.9733 125.991 80.076 126.548 80.076C126.915 80.076 127.281 80.0247 127.648 79.922C128.015 79.8193 128.352 79.68 128.66 79.504C128.968 79.328 129.247 79.1153 129.496 78.866C129.745 78.602 129.936 78.316 130.068 78.008L131.366 78.36C131.19 78.7853 130.941 79.174 130.618 79.526C130.295 79.8633 129.921 80.164 129.496 80.428C129.071 80.6773 128.601 80.868 128.088 81C127.575 81.1467 127.039 81.22 126.482 81.22ZM130.706 74.664C130.662 74.048 130.515 73.4907 130.266 72.992C130.031 72.4787 129.723 72.0387 129.342 71.672C128.975 71.3053 128.543 71.0193 128.044 70.814C127.56 70.6087 127.039 70.506 126.482 70.506C125.925 70.506 125.397 70.6087 124.898 70.814C124.399 71.0193 123.959 71.3053 123.578 71.672C123.211 72.0387 122.911 72.4787 122.676 72.992C122.456 73.5053 122.324 74.0627 122.28 74.664H130.706ZM135.94 74.488H142.364V69.538H143.838V81H142.364V75.742H135.94V81H134.466V69.538H135.94V74.488ZM153.961 69.538H155.633L151.299 75.082L156.007 81H154.335L150.287 75.764H148.659V81H147.185V69.538H148.659V74.598H150.155L153.961 69.538ZM160.594 81.22C160.051 81.22 159.545 81.132 159.076 80.956C158.621 80.7653 158.218 80.5087 157.866 80.186C157.528 79.8633 157.264 79.4893 157.074 79.064C156.883 78.624 156.788 78.1547 156.788 77.656C156.788 77.1573 156.905 76.6953 157.14 76.27C157.374 75.8447 157.704 75.478 158.13 75.17C158.555 74.862 159.061 74.6273 159.648 74.466C160.234 74.29 160.88 74.202 161.584 74.202C162.17 74.202 162.764 74.2533 163.366 74.356C163.967 74.4587 164.502 74.6053 164.972 74.796V73.762C164.972 72.75 164.686 71.9507 164.114 71.364C163.542 70.7627 162.75 70.462 161.738 70.462C161.151 70.462 160.55 70.5793 159.934 70.814C159.318 71.0487 158.694 71.386 158.064 71.826L157.536 70.836C159.017 69.8387 160.454 69.34 161.848 69.34C163.285 69.34 164.414 69.7433 165.236 70.55C166.057 71.3567 166.468 72.4713 166.468 73.894V79.064C166.468 79.4747 166.651 79.68 167.018 79.68V81C166.768 81.044 166.578 81.066 166.446 81.066C166.064 81.066 165.764 80.9707 165.544 80.78C165.338 80.5893 165.228 80.3253 165.214 79.988L165.17 79.086C164.642 79.7753 163.974 80.3033 163.168 80.67C162.376 81.0367 161.518 81.22 160.594 81.22ZM160.946 80.076C161.723 80.076 162.434 79.9293 163.08 79.636C163.74 79.3427 164.238 78.954 164.576 78.47C164.708 78.338 164.803 78.1987 164.862 78.052C164.935 77.8907 164.972 77.744 164.972 77.612V75.742C164.473 75.5513 163.952 75.4047 163.41 75.302C162.882 75.1993 162.339 75.148 161.782 75.148C160.726 75.148 159.868 75.368 159.208 75.808C158.548 76.248 158.218 76.8273 158.218 77.546C158.218 77.898 158.284 78.228 158.416 78.536C158.562 78.844 158.753 79.1153 158.988 79.35C159.237 79.57 159.53 79.746 159.868 79.878C160.205 80.01 160.564 80.076 160.946 80.076ZM44.3044 100.538H45.9764L41.6424 106.082L46.3504 112H44.6784L40.6304 106.764H39.0024V112H37.5284V100.538H39.0024V105.598H40.4984L44.3044 100.538ZM46.6447 110.746C47.0554 110.717 47.4147 110.607 47.7227 110.416C48.0307 110.211 48.2947 109.851 48.5147 109.338C48.7494 108.81 48.9474 108.091 49.1087 107.182C49.2847 106.273 49.4534 105.092 49.6147 103.64L49.9447 100.538H56.6767V112H55.2027V101.726H51.3307L51.0227 104.278C50.832 105.803 50.6194 107.065 50.3847 108.062C50.15 109.045 49.8714 109.837 49.5487 110.438C49.2407 111.025 48.8667 111.443 48.4267 111.692C47.9867 111.927 47.4734 112.059 46.8867 112.088L46.6447 110.746ZM61.4966 109.888L68.3386 100.538H69.5486V112H68.0746V102.826L61.3646 112H60.0226V100.538H61.4966V109.888ZM77.8412 112.22C77.0052 112.22 76.2352 112.066 75.5312 111.758C74.8419 111.435 74.2405 111.003 73.7272 110.46C73.2139 109.903 72.8105 109.265 72.5172 108.546C72.2385 107.827 72.0992 107.057 72.0992 106.236C72.0992 105.429 72.2385 104.674 72.5172 103.97C72.8105 103.251 73.2065 102.628 73.7052 102.1C74.2185 101.557 74.8272 101.132 75.5312 100.824C76.2352 100.501 76.9979 100.34 77.8192 100.34C78.6552 100.34 79.4179 100.501 80.1072 100.824C80.8112 101.132 81.4125 101.557 81.9112 102.1C82.4099 102.643 82.7985 103.266 83.0772 103.97C83.3559 104.674 83.4952 105.422 83.4952 106.214C83.4952 106.331 83.4952 106.449 83.4952 106.566C83.4952 106.683 83.4879 106.764 83.4732 106.808H73.6612C73.7052 107.424 73.8445 107.996 74.0792 108.524C74.3285 109.037 74.6439 109.485 75.0252 109.866C75.4065 110.247 75.8392 110.548 76.3232 110.768C76.8219 110.973 77.3499 111.076 77.9072 111.076C78.2739 111.076 78.6405 111.025 79.0072 110.922C79.3739 110.819 79.7112 110.68 80.0192 110.504C80.3272 110.328 80.6059 110.115 80.8552 109.866C81.1045 109.602 81.2952 109.316 81.4272 109.008L82.7252 109.36C82.5492 109.785 82.2999 110.174 81.9772 110.526C81.6545 110.863 81.2805 111.164 80.8552 111.428C80.4299 111.677 79.9605 111.868 79.4472 112C78.9339 112.147 78.3985 112.22 77.8412 112.22ZM82.0652 105.664C82.0212 105.048 81.8745 104.491 81.6252 103.992C81.3905 103.479 81.0825 103.039 80.7012 102.672C80.3345 102.305 79.9019 102.019 79.4032 101.814C78.9192 101.609 78.3985 101.506 77.8412 101.506C77.2839 101.506 76.7559 101.609 76.2572 101.814C75.7585 102.019 75.3185 102.305 74.9372 102.672C74.5705 103.039 74.2699 103.479 74.0352 103.992C73.8152 104.505 73.6832 105.063 73.6392 105.664H82.0652ZM87.2993 105.488H93.7233V100.538H95.1973V112H93.7233V106.742H87.2993V112H85.8253V100.538H87.2993V105.488ZM102.812 112H101.36V101.836H97.3341V100.538H106.838V101.836H102.812V112ZM113.267 112.22C112.431 112.22 111.669 112.066 110.979 111.758C110.29 111.435 109.689 111.003 109.175 110.46C108.677 109.917 108.288 109.287 108.009 108.568C107.731 107.849 107.591 107.094 107.591 106.302C107.591 105.495 107.731 104.733 108.009 104.014C108.303 103.295 108.699 102.665 109.197 102.122C109.711 101.579 110.312 101.147 111.001 100.824C111.691 100.501 112.446 100.34 113.267 100.34C114.089 100.34 114.844 100.501 115.533 100.824C116.237 101.147 116.839 101.579 117.337 102.122C117.851 102.665 118.247 103.295 118.525 104.014C118.819 104.733 118.965 105.495 118.965 106.302C118.965 107.094 118.826 107.849 118.547 108.568C118.269 109.287 117.873 109.917 117.359 110.46C116.861 111.003 116.259 111.435 115.555 111.758C114.866 112.066 114.103 112.22 113.267 112.22ZM109.109 106.324C109.109 106.969 109.219 107.571 109.439 108.128C109.659 108.671 109.953 109.155 110.319 109.58C110.701 109.991 111.141 110.313 111.639 110.548C112.153 110.783 112.695 110.9 113.267 110.9C113.839 110.9 114.375 110.783 114.873 110.548C115.387 110.299 115.834 109.969 116.215 109.558C116.597 109.133 116.897 108.641 117.117 108.084C117.337 107.527 117.447 106.925 117.447 106.28C117.447 105.649 117.337 105.055 117.117 104.498C116.897 103.926 116.597 103.435 116.215 103.024C115.834 102.599 115.387 102.269 114.873 102.034C114.375 101.785 113.839 101.66 113.267 101.66C112.695 101.66 112.16 101.785 111.661 102.034C111.163 102.269 110.723 102.599 110.341 103.024C109.96 103.449 109.659 103.948 109.439 104.52C109.219 105.077 109.109 105.679 109.109 106.324ZM127.143 100.538C127.554 100.538 127.928 100.611 128.265 100.758C128.617 100.905 128.918 101.11 129.167 101.374C129.431 101.623 129.629 101.917 129.761 102.254C129.908 102.591 129.981 102.958 129.981 103.354C129.981 103.618 129.945 103.882 129.871 104.146C129.813 104.41 129.717 104.667 129.585 104.916C129.453 105.151 129.285 105.371 129.079 105.576C128.874 105.767 128.632 105.921 128.353 106.038C128.999 106.214 129.505 106.551 129.871 107.05C130.238 107.549 130.421 108.15 130.421 108.854C130.421 109.323 130.333 109.749 130.157 110.13C129.996 110.511 129.761 110.841 129.453 111.12C129.16 111.399 128.808 111.619 128.397 111.78C127.987 111.927 127.539 112 127.055 112H121.533V100.538H127.143ZM126.549 105.598C127.151 105.598 127.627 105.407 127.979 105.026C128.331 104.645 128.507 104.161 128.507 103.574C128.507 103.061 128.361 102.613 128.067 102.232C127.774 101.851 127.319 101.66 126.703 101.66H122.985V105.598H126.549ZM126.901 110.878C127.209 110.878 127.488 110.819 127.737 110.702C128.001 110.585 128.221 110.431 128.397 110.24C128.573 110.035 128.713 109.807 128.815 109.558C128.918 109.309 128.969 109.045 128.969 108.766C128.969 108.238 128.786 107.769 128.419 107.358C128.067 106.947 127.576 106.742 126.945 106.742H122.985V110.878H126.901ZM132.989 99.988L133.935 98.624L132.439 98.14L132.681 97.348L134.199 97.92V96.314H135.013V97.92L136.531 97.348L136.773 98.14L135.277 98.624L136.245 99.988L135.541 100.472L134.617 99.042L133.671 100.472L132.989 99.988Z" fill="black"/>
<path d="M62.565 15.195C64.325 15.195 65.975 15.5067 67.515 16.13C69.0917 16.7167 70.4483 17.56 71.585 18.66C72.7217 19.76 73.62 21.08 74.28 22.62C74.94 24.1233 75.27 25.7917 75.27 27.625C75.27 29.5683 74.9033 31.3283 74.17 32.905C73.4733 34.4817 72.52 35.8383 71.31 36.975C70.1 38.1117 68.67 38.9917 67.02 39.615C65.37 40.2383 63.61 40.55 61.74 40.55C58.9533 40.55 56.4417 39.8717 54.205 38.515C52.005 37.1583 50.3367 35.325 49.2 33.015L51.73 31.145C52.72 32.9783 54.1133 34.445 55.91 35.545C57.7067 36.6083 59.6683 37.14 61.795 37.14C63.1517 37.14 64.4167 36.92 65.59 36.48C66.7633 36.0033 67.79 35.3617 68.67 34.555C69.55 33.7117 70.2283 32.7033 70.705 31.53C71.2183 30.3567 71.475 29.0733 71.475 27.68C71.475 26.3233 71.2367 25.095 70.76 23.995C70.2833 22.8583 69.6233 21.8867 68.78 21.08C67.9367 20.2733 66.9467 19.65 65.81 19.21C64.6733 18.7333 63.445 18.495 62.125 18.495C60.4017 18.495 58.77 18.88 57.23 19.65C55.7267 20.42 54.4983 21.5017 53.545 22.895L50.025 22.895C50.0617 22.675 50.1533 22.1983 50.3 21.465C50.4833 20.695 50.685 19.7783 50.905 18.715C51.125 17.615 51.3633 16.4233 51.62 15.14C51.8767 13.8567 52.1333 12.555 52.39 11.235C53.0133 8.155 53.6917 4.72666 54.425 0.949998L73.29 0.949998V4.415L57.23 4.415L54.48 18.44C55.4333 17.3767 56.6067 16.57 58 16.02C59.3933 15.47 60.915 15.195 62.565 15.195ZM82.2915 44.455L83.2265 39.835L81.9615 39.835L81.9615 34.61L85.5915 34.61L85.5915 39.835L84.2165 44.455H82.2915ZM108.027 40.55C105.387 40.4767 103.058 39.8167 101.042 38.57C99.0251 37.3233 97.3385 35.7467 95.9818 33.84C94.6251 31.9333 93.5985 29.825 92.9018 27.515C92.2051 25.205 91.8568 22.95 91.8568 20.75C91.8568 18.4033 92.2235 16.0567 92.9568 13.71C93.7268 11.3267 94.8085 9.2 96.2018 7.33C97.5951 5.42333 99.2818 3.88333 101.262 2.71C103.278 1.53666 105.533 0.949998 108.027 0.949998C110.703 0.949998 113.032 1.59167 115.012 2.875C117.028 4.12167 118.715 5.71667 120.072 7.66C121.428 9.60333 122.437 11.7483 123.097 14.095C123.793 16.405 124.142 18.6233 124.142 20.75C124.142 23.1333 123.757 25.4983 122.987 27.845C122.253 30.1917 121.19 32.3 119.797 34.17C118.403 36.04 116.717 37.5617 114.737 38.735C112.757 39.9083 110.52 40.5133 108.027 40.55ZM95.7618 20.75C95.7985 22.6567 96.0918 24.5817 96.6418 26.525C97.1918 28.4683 97.9618 30.2283 98.9518 31.805C99.9785 33.345 101.243 34.61 102.747 35.6C104.287 36.59 106.047 37.085 108.027 37.085C110.08 37.085 111.877 36.5717 113.417 35.545C114.957 34.4817 116.222 33.1433 117.212 31.53C118.238 29.9167 119.008 28.1567 119.522 26.25C120.035 24.3067 120.292 22.4733 120.292 20.75C120.292 18.8433 120.017 16.9183 119.467 14.975C118.917 13.0317 118.11 11.29 117.047 9.75C116.02 8.17333 114.737 6.89 113.197 5.9C111.693 4.91 109.97 4.415 108.027 4.415C105.937 4.415 104.122 4.94667 102.582 6.01C101.078 7.07333 99.8135 8.41166 98.7868 10.025C97.7601 11.6383 96.9901 13.3983 96.4768 15.305C96.0001 17.2117 95.7618 19.0267 95.7618 20.75Z" fill="black"/>
</svg>
