<svg width="304" height="295" viewBox="0 0 304 295" fill="none" xmlns="http://www.w3.org/2000/svg">
<path d="M29.2613 74.0387L156.5 0.57735L283.739 74.0387V220.961L156.5 294.423L29.2613 220.961V74.0387Z" fill="white" stroke="#BFBFBF"/>
<path d="M5.12212 61.5387L34.5 44.5774L63.8779 61.5387V95.4613L34.5 112.423L5.12212 95.4613V61.5387Z" fill="white" stroke="#BFBFBF"/>
<path d="M70.2453 162.08C70.2453 161.141 70.4066 160.21 70.7293 159.286C71.0666 158.347 71.5506 157.511 72.1813 156.778C72.812 156.045 73.5893 155.451 74.5133 154.996C75.4373 154.527 76.486 154.292 77.6593 154.292C79.0526 154.292 80.2406 154.607 81.2233 155.238C82.2206 155.869 82.954 156.69 83.4233 157.702L82.2133 158.45C81.964 157.937 81.656 157.504 81.2893 157.152C80.9373 156.8 80.556 156.514 80.1453 156.294C79.7346 156.074 79.3093 155.92 78.8693 155.832C78.4293 155.729 77.9966 155.678 77.5713 155.678C76.6326 155.678 75.804 155.869 75.0853 156.25C74.3666 156.631 73.758 157.13 73.2593 157.746C72.7753 158.362 72.4086 159.059 72.1593 159.836C71.91 160.599 71.7853 161.376 71.7853 162.168C71.7853 163.033 71.932 163.862 72.2253 164.654C72.5333 165.446 72.944 166.15 73.4573 166.766C73.9853 167.367 74.6013 167.851 75.3053 168.218C76.024 168.57 76.8013 168.746 77.6373 168.746C78.0773 168.746 78.5246 168.695 78.9793 168.592C79.4486 168.475 79.896 168.299 80.3213 168.064C80.7613 167.815 81.1646 167.514 81.5313 167.162C81.898 166.795 82.206 166.355 82.4553 165.842L83.7313 166.502C83.482 167.089 83.13 167.609 82.6753 168.064C82.2206 168.504 81.7146 168.878 81.1573 169.186C80.6 169.494 80.006 169.729 79.3753 169.89C78.7593 170.051 78.1506 170.132 77.5493 170.132C76.4786 170.132 75.496 169.897 74.6013 169.428C73.7066 168.959 72.9366 168.35 72.2913 167.602C71.646 166.839 71.14 165.981 70.7733 165.028C70.4213 164.06 70.2453 163.077 70.2453 162.08ZM91.9273 170.22C90.9593 170.22 90.1013 169.978 89.3533 169.494C88.62 168.995 88.026 168.372 87.5713 167.624V174.686H86.0753V158.538H87.4173V160.76C87.8867 160.041 88.4953 159.462 89.2433 159.022C89.9913 158.567 90.8053 158.34 91.6853 158.34C92.4773 158.34 93.2033 158.509 93.8633 158.846C94.5233 159.169 95.0953 159.609 95.5793 160.166C96.0633 160.709 96.4373 161.339 96.7013 162.058C96.98 162.777 97.1193 163.517 97.1193 164.28C97.1193 165.087 96.9947 165.849 96.7453 166.568C96.496 167.287 96.1367 167.917 95.6673 168.46C95.2127 169.003 94.6627 169.435 94.0173 169.758C93.3867 170.066 92.69 170.22 91.9273 170.22ZM91.5093 168.9C92.1253 168.9 92.6827 168.768 93.1813 168.504C93.6947 168.24 94.1273 167.895 94.4793 167.47C94.846 167.03 95.1247 166.539 95.3153 165.996C95.506 165.439 95.6013 164.867 95.6013 164.28C95.6013 163.664 95.4913 163.077 95.2713 162.52C95.0513 161.963 94.7507 161.471 94.3693 161.046C93.988 160.621 93.5333 160.283 93.0053 160.034C92.492 159.785 91.9347 159.66 91.3333 159.66C90.952 159.66 90.5487 159.741 90.1233 159.902C89.7127 160.049 89.324 160.254 88.9573 160.518C88.6053 160.767 88.2973 161.068 88.0333 161.42C87.784 161.757 87.63 162.117 87.5713 162.498V166.018C87.7473 166.429 87.9673 166.81 88.2313 167.162C88.51 167.514 88.818 167.822 89.1553 168.086C89.5073 168.335 89.8813 168.533 90.2773 168.68C90.6733 168.827 91.084 168.9 91.5093 168.9ZM104.624 170.22C103.788 170.22 103.018 170.066 102.314 169.758C101.625 169.435 101.024 169.003 100.51 168.46C99.9971 167.903 99.5937 167.265 99.3004 166.546C99.0217 165.827 98.8824 165.057 98.8824 164.236C98.8824 163.429 99.0217 162.674 99.3004 161.97C99.5937 161.251 99.9897 160.628 100.488 160.1C101.002 159.557 101.61 159.132 102.314 158.824C103.018 158.501 103.781 158.34 104.602 158.34C105.438 158.34 106.201 158.501 106.89 158.824C107.594 159.132 108.196 159.557 108.694 160.1C109.193 160.643 109.582 161.266 109.86 161.97C110.139 162.674 110.278 163.422 110.278 164.214C110.278 164.331 110.278 164.449 110.278 164.566C110.278 164.683 110.271 164.764 110.256 164.808H100.444C100.488 165.424 100.628 165.996 100.862 166.524C101.112 167.037 101.427 167.485 101.808 167.866C102.19 168.247 102.622 168.548 103.106 168.768C103.605 168.973 104.133 169.076 104.69 169.076C105.057 169.076 105.424 169.025 105.79 168.922C106.157 168.819 106.494 168.68 106.802 168.504C107.11 168.328 107.389 168.115 107.638 167.866C107.888 167.602 108.078 167.316 108.21 167.008L109.508 167.36C109.332 167.785 109.083 168.174 108.76 168.526C108.438 168.863 108.064 169.164 107.638 169.428C107.213 169.677 106.744 169.868 106.23 170C105.717 170.147 105.182 170.22 104.624 170.22ZM108.848 163.664C108.804 163.048 108.658 162.491 108.408 161.992C108.174 161.479 107.866 161.039 107.484 160.672C107.118 160.305 106.685 160.019 106.186 159.814C105.702 159.609 105.182 159.506 104.624 159.506C104.067 159.506 103.539 159.609 103.04 159.814C102.542 160.019 102.102 160.305 101.72 160.672C101.354 161.039 101.053 161.479 100.818 161.992C100.598 162.505 100.466 163.063 100.422 163.664H108.848ZM110.989 168.702H111.649C111.971 168.629 112.25 168.467 112.485 168.218C112.734 167.954 112.954 167.558 113.145 167.03C113.335 166.487 113.504 165.783 113.651 164.918C113.797 164.038 113.951 162.945 114.113 161.64L114.465 158.538H121.175V168.702H122.583V173.542H121.263V170H112.243V173.542H110.989V168.702ZM119.723 168.702V159.726H115.851L115.521 162.278C115.271 164.097 115 165.519 114.707 166.546C114.428 167.573 114.091 168.291 113.695 168.702H119.723ZM126.436 163.488H132.86V158.538H134.334V170H132.86V164.742H126.436V170H124.962V158.538H126.436V163.488ZM139.771 165.446C139.067 165.241 138.487 164.867 138.033 164.324C137.578 163.767 137.351 163.026 137.351 162.102C137.351 161.589 137.446 161.112 137.637 160.672C137.827 160.232 138.084 159.858 138.407 159.55C138.744 159.227 139.14 158.978 139.595 158.802C140.064 158.626 140.577 158.538 141.135 158.538H145.227V170H143.753V165.644H141.267L138.363 170H136.669L139.771 165.446ZM143.753 164.346V159.836H141.201C140.893 159.836 140.592 159.887 140.299 159.99C140.02 160.093 139.771 160.247 139.551 160.452C139.331 160.643 139.155 160.877 139.023 161.156C138.891 161.435 138.825 161.75 138.825 162.102C138.825 162.777 139.023 163.319 139.419 163.73C139.829 164.141 140.365 164.346 141.025 164.346H143.753ZM150.663 165.446C149.959 165.241 149.38 164.867 148.925 164.324C148.471 163.767 148.243 163.026 148.243 162.102C148.243 161.589 148.339 161.112 148.529 160.672C148.72 160.232 148.977 159.858 149.299 159.55C149.637 159.227 150.033 158.978 150.487 158.802C150.957 158.626 151.47 158.538 152.027 158.538H156.119V170H154.645V165.644H152.159L149.255 170H147.561L150.663 165.446ZM154.645 164.346V159.836H152.093C151.785 159.836 151.485 159.887 151.191 159.99C150.913 160.093 150.663 160.247 150.443 160.452C150.223 160.643 150.047 160.877 149.915 161.156C149.783 161.435 149.717 161.75 149.717 162.102C149.717 162.777 149.915 163.319 150.311 163.73C150.722 164.141 151.257 164.346 151.917 164.346H154.645ZM169.935 170.22C169.099 170.22 168.337 170.066 167.647 169.758C166.958 169.435 166.357 169.003 165.843 168.46C165.345 167.917 164.956 167.287 164.677 166.568C164.399 165.849 164.259 165.094 164.259 164.302C164.259 163.495 164.399 162.733 164.677 162.014C164.971 161.295 165.367 160.665 165.865 160.122C166.379 159.579 166.98 159.147 167.669 158.824C168.359 158.501 169.114 158.34 169.935 158.34C170.757 158.34 171.512 158.501 172.201 158.824C172.905 159.147 173.507 159.579 174.005 160.122C174.519 160.665 174.915 161.295 175.193 162.014C175.487 162.733 175.633 163.495 175.633 164.302C175.633 165.094 175.494 165.849 175.215 166.568C174.937 167.287 174.541 167.917 174.027 168.46C173.529 169.003 172.927 169.435 172.223 169.758C171.534 170.066 170.771 170.22 169.935 170.22ZM165.777 164.324C165.777 164.969 165.887 165.571 166.107 166.128C166.327 166.671 166.621 167.155 166.987 167.58C167.369 167.991 167.809 168.313 168.307 168.548C168.821 168.783 169.363 168.9 169.935 168.9C170.507 168.9 171.043 168.783 171.541 168.548C172.055 168.299 172.502 167.969 172.883 167.558C173.265 167.133 173.565 166.641 173.785 166.084C174.005 165.527 174.115 164.925 174.115 164.28C174.115 163.649 174.005 163.055 173.785 162.498C173.565 161.926 173.265 161.435 172.883 161.024C172.502 160.599 172.055 160.269 171.541 160.034C171.043 159.785 170.507 159.66 169.935 159.66C169.363 159.66 168.828 159.785 168.329 160.034C167.831 160.269 167.391 160.599 167.009 161.024C166.628 161.449 166.327 161.948 166.107 162.52C165.887 163.077 165.777 163.679 165.777 164.324ZM178.157 158.538H179.631V168.702H185.241V158.538H186.693V168.702H188.607V173.542H187.309V170H178.157V158.538ZM195.482 170.22C194.646 170.22 193.876 170.066 193.172 169.758C192.483 169.435 191.881 169.003 191.368 168.46C190.855 167.903 190.451 167.265 190.158 166.546C189.879 165.827 189.74 165.057 189.74 164.236C189.74 163.429 189.879 162.674 190.158 161.97C190.451 161.251 190.847 160.628 191.346 160.1C191.859 159.557 192.468 159.132 193.172 158.824C193.876 158.501 194.639 158.34 195.46 158.34C196.296 158.34 197.059 158.501 197.748 158.824C198.452 159.132 199.053 159.557 199.552 160.1C200.051 160.643 200.439 161.266 200.718 161.97C200.997 162.674 201.136 163.422 201.136 164.214C201.136 164.331 201.136 164.449 201.136 164.566C201.136 164.683 201.129 164.764 201.114 164.808H191.302C191.346 165.424 191.485 165.996 191.72 166.524C191.969 167.037 192.285 167.485 192.666 167.866C193.047 168.247 193.48 168.548 193.964 168.768C194.463 168.973 194.991 169.076 195.548 169.076C195.915 169.076 196.281 169.025 196.648 168.922C197.015 168.819 197.352 168.68 197.66 168.504C197.968 168.328 198.247 168.115 198.496 167.866C198.745 167.602 198.936 167.316 199.068 167.008L200.366 167.36C200.19 167.785 199.941 168.174 199.618 168.526C199.295 168.863 198.921 169.164 198.496 169.428C198.071 169.677 197.601 169.868 197.088 170C196.575 170.147 196.039 170.22 195.482 170.22ZM199.706 163.664C199.662 163.048 199.515 162.491 199.266 161.992C199.031 161.479 198.723 161.039 198.342 160.672C197.975 160.305 197.543 160.019 197.044 159.814C196.56 159.609 196.039 159.506 195.482 159.506C194.925 159.506 194.397 159.609 193.898 159.814C193.399 160.019 192.959 160.305 192.578 160.672C192.211 161.039 191.911 161.479 191.676 161.992C191.456 162.505 191.324 163.063 191.28 163.664H199.706ZM204.94 163.488H211.364V158.538H212.838V170H211.364V164.742H204.94V170H203.466V158.538H204.94V163.488ZM222.961 158.538H224.633L220.299 164.082L225.007 170H223.335L219.287 164.764H217.659V170H216.185V158.538H217.659V163.598H219.155L222.961 158.538ZM229.594 170.22C229.051 170.22 228.545 170.132 228.076 169.956C227.621 169.765 227.218 169.509 226.866 169.186C226.528 168.863 226.264 168.489 226.074 168.064C225.883 167.624 225.788 167.155 225.788 166.656C225.788 166.157 225.905 165.695 226.14 165.27C226.374 164.845 226.704 164.478 227.13 164.17C227.555 163.862 228.061 163.627 228.648 163.466C229.234 163.29 229.88 163.202 230.584 163.202C231.17 163.202 231.764 163.253 232.366 163.356C232.967 163.459 233.502 163.605 233.972 163.796V162.762C233.972 161.75 233.686 160.951 233.114 160.364C232.542 159.763 231.75 159.462 230.738 159.462C230.151 159.462 229.55 159.579 228.934 159.814C228.318 160.049 227.694 160.386 227.064 160.826L226.536 159.836C228.017 158.839 229.454 158.34 230.848 158.34C232.285 158.34 233.414 158.743 234.236 159.55C235.057 160.357 235.468 161.471 235.468 162.894V168.064C235.468 168.475 235.651 168.68 236.018 168.68V170C235.768 170.044 235.578 170.066 235.446 170.066C235.064 170.066 234.764 169.971 234.544 169.78C234.338 169.589 234.228 169.325 234.214 168.988L234.17 168.086C233.642 168.775 232.974 169.303 232.168 169.67C231.376 170.037 230.518 170.22 229.594 170.22ZM229.946 169.076C230.723 169.076 231.434 168.929 232.08 168.636C232.74 168.343 233.238 167.954 233.576 167.47C233.708 167.338 233.803 167.199 233.862 167.052C233.935 166.891 233.972 166.744 233.972 166.612V164.742C233.473 164.551 232.952 164.405 232.41 164.302C231.882 164.199 231.339 164.148 230.782 164.148C229.726 164.148 228.868 164.368 228.208 164.808C227.548 165.248 227.218 165.827 227.218 166.546C227.218 166.898 227.284 167.228 227.416 167.536C227.562 167.844 227.753 168.115 227.988 168.35C228.237 168.57 228.53 168.746 228.868 168.878C229.205 169.01 229.564 169.076 229.946 169.076ZM113.304 189.538H114.976L110.642 195.082L115.35 201H113.678L109.63 195.764H108.002V201H106.528V189.538H108.002V194.598H109.498L113.304 189.538ZM115.645 199.746C116.055 199.717 116.415 199.607 116.723 199.416C117.031 199.211 117.295 198.851 117.515 198.338C117.749 197.81 117.947 197.091 118.109 196.182C118.285 195.273 118.453 194.092 118.615 192.64L118.945 189.538H125.677V201H124.203V190.726H120.331L120.023 193.278C119.832 194.803 119.619 196.065 119.385 197.062C119.15 198.045 118.871 198.837 118.549 199.438C118.241 200.025 117.867 200.443 117.427 200.692C116.987 200.927 116.473 201.059 115.887 201.088L115.645 199.746ZM130.497 198.888L137.339 189.538H138.549V201H137.075V191.826L130.365 201H129.023V189.538H130.497V198.888ZM146.841 201.22C146.005 201.22 145.235 201.066 144.531 200.758C143.842 200.435 143.241 200.003 142.727 199.46C142.214 198.903 141.811 198.265 141.517 197.546C141.239 196.827 141.099 196.057 141.099 195.236C141.099 194.429 141.239 193.674 141.517 192.97C141.811 192.251 142.207 191.628 142.705 191.1C143.219 190.557 143.827 190.132 144.531 189.824C145.235 189.501 145.998 189.34 146.819 189.34C147.655 189.34 148.418 189.501 149.107 189.824C149.811 190.132 150.413 190.557 150.911 191.1C151.41 191.643 151.799 192.266 152.077 192.97C152.356 193.674 152.495 194.422 152.495 195.214C152.495 195.331 152.495 195.449 152.495 195.566C152.495 195.683 152.488 195.764 152.473 195.808H142.661C142.705 196.424 142.845 196.996 143.079 197.524C143.329 198.037 143.644 198.485 144.025 198.866C144.407 199.247 144.839 199.548 145.323 199.768C145.822 199.973 146.35 200.076 146.907 200.076C147.274 200.076 147.641 200.025 148.007 199.922C148.374 199.819 148.711 199.68 149.019 199.504C149.327 199.328 149.606 199.115 149.855 198.866C150.105 198.602 150.295 198.316 150.427 198.008L151.725 198.36C151.549 198.785 151.3 199.174 150.977 199.526C150.655 199.863 150.281 200.164 149.855 200.428C149.43 200.677 148.961 200.868 148.447 201C147.934 201.147 147.399 201.22 146.841 201.22ZM151.065 194.664C151.021 194.048 150.875 193.491 150.625 192.992C150.391 192.479 150.083 192.039 149.701 191.672C149.335 191.305 148.902 191.019 148.403 190.814C147.919 190.609 147.399 190.506 146.841 190.506C146.284 190.506 145.756 190.609 145.257 190.814C144.759 191.019 144.319 191.305 143.937 191.672C143.571 192.039 143.27 192.479 143.035 192.992C142.815 193.505 142.683 194.063 142.639 194.664H151.065ZM156.299 194.488H162.723V189.538H164.197V201H162.723V195.742H156.299V201H154.825V189.538H156.299V194.488ZM171.812 201H170.36V190.836H166.334V189.538H175.838V190.836H171.812V201ZM182.267 201.22C181.431 201.22 180.669 201.066 179.979 200.758C179.29 200.435 178.689 200.003 178.175 199.46C177.677 198.917 177.288 198.287 177.009 197.568C176.731 196.849 176.591 196.094 176.591 195.302C176.591 194.495 176.731 193.733 177.009 193.014C177.303 192.295 177.699 191.665 178.197 191.122C178.711 190.579 179.312 190.147 180.001 189.824C180.691 189.501 181.446 189.34 182.267 189.34C183.089 189.34 183.844 189.501 184.533 189.824C185.237 190.147 185.839 190.579 186.337 191.122C186.851 191.665 187.247 192.295 187.525 193.014C187.819 193.733 187.965 194.495 187.965 195.302C187.965 196.094 187.826 196.849 187.547 197.568C187.269 198.287 186.873 198.917 186.359 199.46C185.861 200.003 185.259 200.435 184.555 200.758C183.866 201.066 183.103 201.22 182.267 201.22ZM178.109 195.324C178.109 195.969 178.219 196.571 178.439 197.128C178.659 197.671 178.953 198.155 179.319 198.58C179.701 198.991 180.141 199.313 180.639 199.548C181.153 199.783 181.695 199.9 182.267 199.9C182.839 199.9 183.375 199.783 183.873 199.548C184.387 199.299 184.834 198.969 185.215 198.558C185.597 198.133 185.897 197.641 186.117 197.084C186.337 196.527 186.447 195.925 186.447 195.28C186.447 194.649 186.337 194.055 186.117 193.498C185.897 192.926 185.597 192.435 185.215 192.024C184.834 191.599 184.387 191.269 183.873 191.034C183.375 190.785 182.839 190.66 182.267 190.66C181.695 190.66 181.16 190.785 180.661 191.034C180.163 191.269 179.723 191.599 179.341 192.024C178.96 192.449 178.659 192.948 178.439 193.52C178.219 194.077 178.109 194.679 178.109 195.324ZM196.143 189.538C196.554 189.538 196.928 189.611 197.265 189.758C197.617 189.905 197.918 190.11 198.167 190.374C198.431 190.623 198.629 190.917 198.761 191.254C198.908 191.591 198.981 191.958 198.981 192.354C198.981 192.618 198.945 192.882 198.871 193.146C198.813 193.41 198.717 193.667 198.585 193.916C198.453 194.151 198.285 194.371 198.079 194.576C197.874 194.767 197.632 194.921 197.353 195.038C197.999 195.214 198.505 195.551 198.871 196.05C199.238 196.549 199.421 197.15 199.421 197.854C199.421 198.323 199.333 198.749 199.157 199.13C198.996 199.511 198.761 199.841 198.453 200.12C198.16 200.399 197.808 200.619 197.397 200.78C196.987 200.927 196.539 201 196.055 201H190.533V189.538H196.143ZM195.549 194.598C196.151 194.598 196.627 194.407 196.979 194.026C197.331 193.645 197.507 193.161 197.507 192.574C197.507 192.061 197.361 191.613 197.067 191.232C196.774 190.851 196.319 190.66 195.703 190.66H191.985V194.598H195.549ZM195.901 199.878C196.209 199.878 196.488 199.819 196.737 199.702C197.001 199.585 197.221 199.431 197.397 199.24C197.573 199.035 197.713 198.807 197.815 198.558C197.918 198.309 197.969 198.045 197.969 197.766C197.969 197.238 197.786 196.769 197.419 196.358C197.067 195.947 196.576 195.742 195.945 195.742H191.985V199.878H195.901ZM201.989 188.988L202.935 187.624L201.439 187.14L201.681 186.348L203.199 186.92V185.314H204.013V186.92L205.531 186.348L205.773 187.14L204.277 187.624L205.245 188.988L204.541 189.472L203.617 188.042L202.671 189.472L201.989 188.988Z" fill="black"/>
<path d="M131.565 104.195C133.325 104.195 134.975 104.507 136.515 105.13C138.092 105.717 139.448 106.56 140.585 107.66C141.722 108.76 142.62 110.08 143.28 111.62C143.94 113.123 144.27 114.792 144.27 116.625C144.27 118.568 143.903 120.328 143.17 121.905C142.473 123.482 141.52 124.838 140.31 125.975C139.1 127.112 137.67 127.992 136.02 128.615C134.37 129.238 132.61 129.55 130.74 129.55C127.953 129.55 125.442 128.872 123.205 127.515C121.005 126.158 119.337 124.325 118.2 122.015L120.73 120.145C121.72 121.978 123.113 123.445 124.91 124.545C126.707 125.608 128.668 126.14 130.795 126.14C132.152 126.14 133.417 125.92 134.59 125.48C135.763 125.003 136.79 124.362 137.67 123.555C138.55 122.712 139.228 121.703 139.705 120.53C140.218 119.357 140.475 118.073 140.475 116.68C140.475 115.323 140.237 114.095 139.76 112.995C139.283 111.858 138.623 110.887 137.78 110.08C136.937 109.273 135.947 108.65 134.81 108.21C133.673 107.733 132.445 107.495 131.125 107.495C129.402 107.495 127.77 107.88 126.23 108.65C124.727 109.42 123.498 110.502 122.545 111.895L119.025 111.895C119.062 111.675 119.153 111.198 119.3 110.465C119.483 109.695 119.685 108.778 119.905 107.715C120.125 106.615 120.363 105.423 120.62 104.14C120.877 102.857 121.133 101.555 121.39 100.235C122.013 97.155 122.692 93.7267 123.425 89.95L142.29 89.95V93.415L126.23 93.415L123.48 107.44C124.433 106.377 125.607 105.57 127 105.02C128.393 104.47 129.915 104.195 131.565 104.195ZM151.292 133.455L152.227 128.835H150.962V123.61H154.592V128.835L153.217 133.455H151.292ZM177.027 129.55C174.387 129.477 172.058 128.817 170.042 127.57C168.025 126.323 166.338 124.747 164.982 122.84C163.625 120.933 162.598 118.825 161.902 116.515C161.205 114.205 160.857 111.95 160.857 109.75C160.857 107.403 161.223 105.057 161.957 102.71C162.727 100.327 163.808 98.2 165.202 96.33C166.595 94.4233 168.282 92.8833 170.262 91.71C172.278 90.5367 174.533 89.95 177.027 89.95C179.703 89.95 182.032 90.5917 184.012 91.875C186.028 93.1217 187.715 94.7167 189.072 96.66C190.428 98.6033 191.437 100.748 192.097 103.095C192.793 105.405 193.142 107.623 193.142 109.75C193.142 112.133 192.757 114.498 191.987 116.845C191.253 119.192 190.19 121.3 188.797 123.17C187.403 125.04 185.717 126.562 183.737 127.735C181.757 128.908 179.52 129.513 177.027 129.55ZM164.762 109.75C164.798 111.657 165.092 113.582 165.642 115.525C166.192 117.468 166.962 119.228 167.952 120.805C168.978 122.345 170.243 123.61 171.747 124.6C173.287 125.59 175.047 126.085 177.027 126.085C179.08 126.085 180.877 125.572 182.417 124.545C183.957 123.482 185.222 122.143 186.212 120.53C187.238 118.917 188.008 117.157 188.522 115.25C189.035 113.307 189.292 111.473 189.292 109.75C189.292 107.843 189.017 105.918 188.467 103.975C187.917 102.032 187.11 100.29 186.047 98.75C185.02 97.1733 183.737 95.89 182.197 94.9C180.693 93.91 178.97 93.415 177.027 93.415C174.937 93.415 173.122 93.9467 171.582 95.01C170.078 96.0733 168.813 97.4117 167.787 99.025C166.76 100.638 165.99 102.398 165.477 104.305C165 106.212 164.762 108.027 164.762 109.75Z" fill="black"/>
<path d="M36.6747 68C38.1487 68 38.8857 69.0032 38.8857 70.1527C38.8857 71.5882 37.6053 72.9159 35.9388 72.9159C34.5429 72.9159 33.7289 72.0909 33.7674 70.7269C33.7674 69.5796 34.7365 68 36.6747 68ZM32.1394 90C30.9756 90 30.1231 89.2828 30.9371 86.1236L32.2725 80.5224C32.5046 79.627 32.5431 79.2673 32.2725 79.2673C31.9238 79.2673 30.4146 79.8855 29.5203 80.496L28.9395 79.528C31.7687 77.1234 35.0236 75.7143 36.4206 75.7143C37.5833 75.7143 37.7769 77.1146 37.1961 79.2673L35.666 85.1545C35.3954 86.194 35.5109 86.5526 35.7826 86.5526C36.1313 86.5526 37.2753 86.1214 38.3995 85.2249L39.0595 86.1203C36.3073 88.922 33.301 90 32.1394 90Z" fill="black"/>
</svg>
