<svg width="243" height="165" viewBox="0 0 243 165" fill="none" xmlns="http://www.w3.org/2000/svg">
<path d="M5.12212 17.5387L34.5 0.57735L63.8779 17.5387V51.4613L34.5 68.4226L5.12212 51.4613V17.5387Z" fill="white" stroke="#BFBFBF"/>
<path d="M70.2453 118.08C70.2453 117.141 70.4066 116.21 70.7293 115.286C71.0666 114.347 71.5506 113.511 72.1813 112.778C72.812 112.045 73.5893 111.451 74.5133 110.996C75.4373 110.527 76.486 110.292 77.6593 110.292C79.0526 110.292 80.2406 110.607 81.2233 111.238C82.2206 111.869 82.954 112.69 83.4233 113.702L82.2133 114.45C81.964 113.937 81.656 113.504 81.2893 113.152C80.9373 112.8 80.556 112.514 80.1453 112.294C79.7346 112.074 79.3093 111.92 78.8693 111.832C78.4293 111.729 77.9966 111.678 77.5713 111.678C76.6326 111.678 75.804 111.869 75.0853 112.25C74.3666 112.631 73.758 113.13 73.2593 113.746C72.7753 114.362 72.4086 115.059 72.1593 115.836C71.91 116.599 71.7853 117.376 71.7853 118.168C71.7853 119.033 71.932 119.862 72.2253 120.654C72.5333 121.446 72.944 122.15 73.4573 122.766C73.9853 123.367 74.6013 123.851 75.3053 124.218C76.024 124.57 76.8013 124.746 77.6373 124.746C78.0773 124.746 78.5246 124.695 78.9793 124.592C79.4486 124.475 79.896 124.299 80.3213 124.064C80.7613 123.815 81.1646 123.514 81.5313 123.162C81.898 122.795 82.206 122.355 82.4553 121.842L83.7313 122.502C83.482 123.089 83.13 123.609 82.6753 124.064C82.2206 124.504 81.7146 124.878 81.1573 125.186C80.6 125.494 80.006 125.729 79.3753 125.89C78.7593 126.051 78.1506 126.132 77.5493 126.132C76.4786 126.132 75.496 125.897 74.6013 125.428C73.7066 124.959 72.9366 124.35 72.2913 123.602C71.646 122.839 71.14 121.981 70.7733 121.028C70.4213 120.06 70.2453 119.077 70.2453 118.08ZM91.9273 126.22C90.9593 126.22 90.1013 125.978 89.3533 125.494C88.62 124.995 88.026 124.372 87.5713 123.624V130.686H86.0753V114.538H87.4173V116.76C87.8867 116.041 88.4953 115.462 89.2433 115.022C89.9913 114.567 90.8053 114.34 91.6853 114.34C92.4773 114.34 93.2033 114.509 93.8633 114.846C94.5233 115.169 95.0953 115.609 95.5793 116.166C96.0633 116.709 96.4373 117.339 96.7013 118.058C96.98 118.777 97.1193 119.517 97.1193 120.28C97.1193 121.087 96.9947 121.849 96.7453 122.568C96.496 123.287 96.1367 123.917 95.6673 124.46C95.2127 125.003 94.6627 125.435 94.0173 125.758C93.3867 126.066 92.69 126.22 91.9273 126.22ZM91.5093 124.9C92.1253 124.9 92.6827 124.768 93.1813 124.504C93.6947 124.24 94.1273 123.895 94.4793 123.47C94.846 123.03 95.1247 122.539 95.3153 121.996C95.506 121.439 95.6013 120.867 95.6013 120.28C95.6013 119.664 95.4913 119.077 95.2713 118.52C95.0513 117.963 94.7507 117.471 94.3693 117.046C93.988 116.621 93.5333 116.283 93.0053 116.034C92.492 115.785 91.9347 115.66 91.3333 115.66C90.952 115.66 90.5487 115.741 90.1233 115.902C89.7127 116.049 89.324 116.254 88.9573 116.518C88.6053 116.767 88.2973 117.068 88.0333 117.42C87.784 117.757 87.63 118.117 87.5713 118.498V122.018C87.7473 122.429 87.9673 122.81 88.2313 123.162C88.51 123.514 88.818 123.822 89.1553 124.086C89.5073 124.335 89.8813 124.533 90.2773 124.68C90.6733 124.827 91.084 124.9 91.5093 124.9ZM104.624 126.22C103.788 126.22 103.018 126.066 102.314 125.758C101.625 125.435 101.024 125.003 100.51 124.46C99.9971 123.903 99.5937 123.265 99.3004 122.546C99.0217 121.827 98.8824 121.057 98.8824 120.236C98.8824 119.429 99.0217 118.674 99.3004 117.97C99.5937 117.251 99.9897 116.628 100.488 116.1C101.002 115.557 101.61 115.132 102.314 114.824C103.018 114.501 103.781 114.34 104.602 114.34C105.438 114.34 106.201 114.501 106.89 114.824C107.594 115.132 108.196 115.557 108.694 116.1C109.193 116.643 109.582 117.266 109.86 117.97C110.139 118.674 110.278 119.422 110.278 120.214C110.278 120.331 110.278 120.449 110.278 120.566C110.278 120.683 110.271 120.764 110.256 120.808H100.444C100.488 121.424 100.628 121.996 100.862 122.524C101.112 123.037 101.427 123.485 101.808 123.866C102.19 124.247 102.622 124.548 103.106 124.768C103.605 124.973 104.133 125.076 104.69 125.076C105.057 125.076 105.424 125.025 105.79 124.922C106.157 124.819 106.494 124.68 106.802 124.504C107.11 124.328 107.389 124.115 107.638 123.866C107.888 123.602 108.078 123.316 108.21 123.008L109.508 123.36C109.332 123.785 109.083 124.174 108.76 124.526C108.438 124.863 108.064 125.164 107.638 125.428C107.213 125.677 106.744 125.868 106.23 126C105.717 126.147 105.182 126.22 104.624 126.22ZM108.848 119.664C108.804 119.048 108.658 118.491 108.408 117.992C108.174 117.479 107.866 117.039 107.484 116.672C107.118 116.305 106.685 116.019 106.186 115.814C105.702 115.609 105.182 115.506 104.624 115.506C104.067 115.506 103.539 115.609 103.04 115.814C102.542 116.019 102.102 116.305 101.72 116.672C101.354 117.039 101.053 117.479 100.818 117.992C100.598 118.505 100.466 119.063 100.422 119.664H108.848ZM110.989 124.702H111.649C111.971 124.629 112.25 124.467 112.485 124.218C112.734 123.954 112.954 123.558 113.145 123.03C113.335 122.487 113.504 121.783 113.651 120.918C113.797 120.038 113.951 118.945 114.113 117.64L114.465 114.538H121.175V124.702H122.583V129.542H121.263V126H112.243V129.542H110.989V124.702ZM119.723 124.702V115.726H115.851L115.521 118.278C115.271 120.097 115 121.519 114.707 122.546C114.428 123.573 114.091 124.291 113.695 124.702H119.723ZM126.436 119.488H132.86V114.538H134.334V126H132.86V120.742H126.436V126H124.962V114.538H126.436V119.488ZM139.771 121.446C139.067 121.241 138.487 120.867 138.033 120.324C137.578 119.767 137.351 119.026 137.351 118.102C137.351 117.589 137.446 117.112 137.637 116.672C137.827 116.232 138.084 115.858 138.407 115.55C138.744 115.227 139.14 114.978 139.595 114.802C140.064 114.626 140.577 114.538 141.135 114.538H145.227V126H143.753V121.644H141.267L138.363 126H136.669L139.771 121.446ZM143.753 120.346V115.836H141.201C140.893 115.836 140.592 115.887 140.299 115.99C140.02 116.093 139.771 116.247 139.551 116.452C139.331 116.643 139.155 116.877 139.023 117.156C138.891 117.435 138.825 117.75 138.825 118.102C138.825 118.777 139.023 119.319 139.419 119.73C139.829 120.141 140.365 120.346 141.025 120.346H143.753ZM150.663 121.446C149.959 121.241 149.38 120.867 148.925 120.324C148.471 119.767 148.243 119.026 148.243 118.102C148.243 117.589 148.339 117.112 148.529 116.672C148.72 116.232 148.977 115.858 149.299 115.55C149.637 115.227 150.033 114.978 150.487 114.802C150.957 114.626 151.47 114.538 152.027 114.538H156.119V126H154.645V121.644H152.159L149.255 126H147.561L150.663 121.446ZM154.645 120.346V115.836H152.093C151.785 115.836 151.485 115.887 151.191 115.99C150.913 116.093 150.663 116.247 150.443 116.452C150.223 116.643 150.047 116.877 149.915 117.156C149.783 117.435 149.717 117.75 149.717 118.102C149.717 118.777 149.915 119.319 150.311 119.73C150.722 120.141 151.257 120.346 151.917 120.346H154.645ZM169.935 126.22C169.099 126.22 168.337 126.066 167.647 125.758C166.958 125.435 166.357 125.003 165.843 124.46C165.345 123.917 164.956 123.287 164.677 122.568C164.399 121.849 164.259 121.094 164.259 120.302C164.259 119.495 164.399 118.733 164.677 118.014C164.971 117.295 165.367 116.665 165.865 116.122C166.379 115.579 166.98 115.147 167.669 114.824C168.359 114.501 169.114 114.34 169.935 114.34C170.757 114.34 171.512 114.501 172.201 114.824C172.905 115.147 173.507 115.579 174.005 116.122C174.519 116.665 174.915 117.295 175.193 118.014C175.487 118.733 175.633 119.495 175.633 120.302C175.633 121.094 175.494 121.849 175.215 122.568C174.937 123.287 174.541 123.917 174.027 124.46C173.529 125.003 172.927 125.435 172.223 125.758C171.534 126.066 170.771 126.22 169.935 126.22ZM165.777 120.324C165.777 120.969 165.887 121.571 166.107 122.128C166.327 122.671 166.621 123.155 166.987 123.58C167.369 123.991 167.809 124.313 168.307 124.548C168.821 124.783 169.363 124.9 169.935 124.9C170.507 124.9 171.043 124.783 171.541 124.548C172.055 124.299 172.502 123.969 172.883 123.558C173.265 123.133 173.565 122.641 173.785 122.084C174.005 121.527 174.115 120.925 174.115 120.28C174.115 119.649 174.005 119.055 173.785 118.498C173.565 117.926 173.265 117.435 172.883 117.024C172.502 116.599 172.055 116.269 171.541 116.034C171.043 115.785 170.507 115.66 169.935 115.66C169.363 115.66 168.828 115.785 168.329 116.034C167.831 116.269 167.391 116.599 167.009 117.024C166.628 117.449 166.327 117.948 166.107 118.52C165.887 119.077 165.777 119.679 165.777 120.324ZM178.157 114.538H179.631V124.702H185.241V114.538H186.693V124.702H188.607V129.542H187.309V126H178.157V114.538ZM195.482 126.22C194.646 126.22 193.876 126.066 193.172 125.758C192.483 125.435 191.881 125.003 191.368 124.46C190.855 123.903 190.451 123.265 190.158 122.546C189.879 121.827 189.74 121.057 189.74 120.236C189.74 119.429 189.879 118.674 190.158 117.97C190.451 117.251 190.847 116.628 191.346 116.1C191.859 115.557 192.468 115.132 193.172 114.824C193.876 114.501 194.639 114.34 195.46 114.34C196.296 114.34 197.059 114.501 197.748 114.824C198.452 115.132 199.053 115.557 199.552 116.1C200.051 116.643 200.439 117.266 200.718 117.97C200.997 118.674 201.136 119.422 201.136 120.214C201.136 120.331 201.136 120.449 201.136 120.566C201.136 120.683 201.129 120.764 201.114 120.808H191.302C191.346 121.424 191.485 121.996 191.72 122.524C191.969 123.037 192.285 123.485 192.666 123.866C193.047 124.247 193.48 124.548 193.964 124.768C194.463 124.973 194.991 125.076 195.548 125.076C195.915 125.076 196.281 125.025 196.648 124.922C197.015 124.819 197.352 124.68 197.66 124.504C197.968 124.328 198.247 124.115 198.496 123.866C198.745 123.602 198.936 123.316 199.068 123.008L200.366 123.36C200.19 123.785 199.941 124.174 199.618 124.526C199.295 124.863 198.921 125.164 198.496 125.428C198.071 125.677 197.601 125.868 197.088 126C196.575 126.147 196.039 126.22 195.482 126.22ZM199.706 119.664C199.662 119.048 199.515 118.491 199.266 117.992C199.031 117.479 198.723 117.039 198.342 116.672C197.975 116.305 197.543 116.019 197.044 115.814C196.56 115.609 196.039 115.506 195.482 115.506C194.925 115.506 194.397 115.609 193.898 115.814C193.399 116.019 192.959 116.305 192.578 116.672C192.211 117.039 191.911 117.479 191.676 117.992C191.456 118.505 191.324 119.063 191.28 119.664H199.706ZM204.94 119.488H211.364V114.538H212.838V126H211.364V120.742H204.94V126H203.466V114.538H204.94V119.488ZM222.961 114.538H224.633L220.299 120.082L225.007 126H223.335L219.287 120.764H217.659V126H216.185V114.538H217.659V119.598H219.155L222.961 114.538ZM229.594 126.22C229.051 126.22 228.545 126.132 228.076 125.956C227.621 125.765 227.218 125.509 226.866 125.186C226.528 124.863 226.264 124.489 226.074 124.064C225.883 123.624 225.788 123.155 225.788 122.656C225.788 122.157 225.905 121.695 226.14 121.27C226.374 120.845 226.704 120.478 227.13 120.17C227.555 119.862 228.061 119.627 228.648 119.466C229.234 119.29 229.88 119.202 230.584 119.202C231.17 119.202 231.764 119.253 232.366 119.356C232.967 119.459 233.502 119.605 233.972 119.796V118.762C233.972 117.75 233.686 116.951 233.114 116.364C232.542 115.763 231.75 115.462 230.738 115.462C230.151 115.462 229.55 115.579 228.934 115.814C228.318 116.049 227.694 116.386 227.064 116.826L226.536 115.836C228.017 114.839 229.454 114.34 230.848 114.34C232.285 114.34 233.414 114.743 234.236 115.55C235.057 116.357 235.468 117.471 235.468 118.894V124.064C235.468 124.475 235.651 124.68 236.018 124.68V126C235.768 126.044 235.578 126.066 235.446 126.066C235.064 126.066 234.764 125.971 234.544 125.78C234.338 125.589 234.228 125.325 234.214 124.988L234.17 124.086C233.642 124.775 232.974 125.303 232.168 125.67C231.376 126.037 230.518 126.22 229.594 126.22ZM229.946 125.076C230.723 125.076 231.434 124.929 232.08 124.636C232.74 124.343 233.238 123.954 233.576 123.47C233.708 123.338 233.803 123.199 233.862 123.052C233.935 122.891 233.972 122.744 233.972 122.612V120.742C233.473 120.551 232.952 120.405 232.41 120.302C231.882 120.199 231.339 120.148 230.782 120.148C229.726 120.148 228.868 120.368 228.208 120.808C227.548 121.248 227.218 121.827 227.218 122.546C227.218 122.898 227.284 123.228 227.416 123.536C227.562 123.844 227.753 124.115 227.988 124.35C228.237 124.57 228.53 124.746 228.868 124.878C229.205 125.01 229.564 125.076 229.946 125.076ZM113.304 145.538H114.976L110.642 151.082L115.35 157H113.678L109.63 151.764H108.002V157H106.528V145.538H108.002V150.598H109.498L113.304 145.538ZM115.645 155.746C116.055 155.717 116.415 155.607 116.723 155.416C117.031 155.211 117.295 154.851 117.515 154.338C117.749 153.81 117.947 153.091 118.109 152.182C118.285 151.273 118.453 150.092 118.615 148.64L118.945 145.538H125.677V157H124.203V146.726H120.331L120.023 149.278C119.832 150.803 119.619 152.065 119.385 153.062C119.15 154.045 118.871 154.837 118.549 155.438C118.241 156.025 117.867 156.443 117.427 156.692C116.987 156.927 116.473 157.059 115.887 157.088L115.645 155.746ZM130.497 154.888L137.339 145.538H138.549V157H137.075V147.826L130.365 157H129.023V145.538H130.497V154.888ZM146.841 157.22C146.005 157.22 145.235 157.066 144.531 156.758C143.842 156.435 143.241 156.003 142.727 155.46C142.214 154.903 141.811 154.265 141.517 153.546C141.239 152.827 141.099 152.057 141.099 151.236C141.099 150.429 141.239 149.674 141.517 148.97C141.811 148.251 142.207 147.628 142.705 147.1C143.219 146.557 143.827 146.132 144.531 145.824C145.235 145.501 145.998 145.34 146.819 145.34C147.655 145.34 148.418 145.501 149.107 145.824C149.811 146.132 150.413 146.557 150.911 147.1C151.41 147.643 151.799 148.266 152.077 148.97C152.356 149.674 152.495 150.422 152.495 151.214C152.495 151.331 152.495 151.449 152.495 151.566C152.495 151.683 152.488 151.764 152.473 151.808H142.661C142.705 152.424 142.845 152.996 143.079 153.524C143.329 154.037 143.644 154.485 144.025 154.866C144.407 155.247 144.839 155.548 145.323 155.768C145.822 155.973 146.35 156.076 146.907 156.076C147.274 156.076 147.641 156.025 148.007 155.922C148.374 155.819 148.711 155.68 149.019 155.504C149.327 155.328 149.606 155.115 149.855 154.866C150.105 154.602 150.295 154.316 150.427 154.008L151.725 154.36C151.549 154.785 151.3 155.174 150.977 155.526C150.655 155.863 150.281 156.164 149.855 156.428C149.43 156.677 148.961 156.868 148.447 157C147.934 157.147 147.399 157.22 146.841 157.22ZM151.065 150.664C151.021 150.048 150.875 149.491 150.625 148.992C150.391 148.479 150.083 148.039 149.701 147.672C149.335 147.305 148.902 147.019 148.403 146.814C147.919 146.609 147.399 146.506 146.841 146.506C146.284 146.506 145.756 146.609 145.257 146.814C144.759 147.019 144.319 147.305 143.937 147.672C143.571 148.039 143.27 148.479 143.035 148.992C142.815 149.505 142.683 150.063 142.639 150.664H151.065ZM156.299 150.488H162.723V145.538H164.197V157H162.723V151.742H156.299V157H154.825V145.538H156.299V150.488ZM171.812 157H170.36V146.836H166.334V145.538H175.838V146.836H171.812V157ZM182.267 157.22C181.431 157.22 180.669 157.066 179.979 156.758C179.29 156.435 178.689 156.003 178.175 155.46C177.677 154.917 177.288 154.287 177.009 153.568C176.731 152.849 176.591 152.094 176.591 151.302C176.591 150.495 176.731 149.733 177.009 149.014C177.303 148.295 177.699 147.665 178.197 147.122C178.711 146.579 179.312 146.147 180.001 145.824C180.691 145.501 181.446 145.34 182.267 145.34C183.089 145.34 183.844 145.501 184.533 145.824C185.237 146.147 185.839 146.579 186.337 147.122C186.851 147.665 187.247 148.295 187.525 149.014C187.819 149.733 187.965 150.495 187.965 151.302C187.965 152.094 187.826 152.849 187.547 153.568C187.269 154.287 186.873 154.917 186.359 155.46C185.861 156.003 185.259 156.435 184.555 156.758C183.866 157.066 183.103 157.22 182.267 157.22ZM178.109 151.324C178.109 151.969 178.219 152.571 178.439 153.128C178.659 153.671 178.953 154.155 179.319 154.58C179.701 154.991 180.141 155.313 180.639 155.548C181.153 155.783 181.695 155.9 182.267 155.9C182.839 155.9 183.375 155.783 183.873 155.548C184.387 155.299 184.834 154.969 185.215 154.558C185.597 154.133 185.897 153.641 186.117 153.084C186.337 152.527 186.447 151.925 186.447 151.28C186.447 150.649 186.337 150.055 186.117 149.498C185.897 148.926 185.597 148.435 185.215 148.024C184.834 147.599 184.387 147.269 183.873 147.034C183.375 146.785 182.839 146.66 182.267 146.66C181.695 146.66 181.16 146.785 180.661 147.034C180.163 147.269 179.723 147.599 179.341 148.024C178.96 148.449 178.659 148.948 178.439 149.52C178.219 150.077 178.109 150.679 178.109 151.324ZM196.143 145.538C196.554 145.538 196.928 145.611 197.265 145.758C197.617 145.905 197.918 146.11 198.167 146.374C198.431 146.623 198.629 146.917 198.761 147.254C198.908 147.591 198.981 147.958 198.981 148.354C198.981 148.618 198.945 148.882 198.871 149.146C198.813 149.41 198.717 149.667 198.585 149.916C198.453 150.151 198.285 150.371 198.079 150.576C197.874 150.767 197.632 150.921 197.353 151.038C197.999 151.214 198.505 151.551 198.871 152.05C199.238 152.549 199.421 153.15 199.421 153.854C199.421 154.323 199.333 154.749 199.157 155.13C198.996 155.511 198.761 155.841 198.453 156.12C198.16 156.399 197.808 156.619 197.397 156.78C196.987 156.927 196.539 157 196.055 157H190.533V145.538H196.143ZM195.549 150.598C196.151 150.598 196.627 150.407 196.979 150.026C197.331 149.645 197.507 149.161 197.507 148.574C197.507 148.061 197.361 147.613 197.067 147.232C196.774 146.851 196.319 146.66 195.703 146.66H191.985V150.598H195.549ZM195.901 155.878C196.209 155.878 196.488 155.819 196.737 155.702C197.001 155.585 197.221 155.431 197.397 155.24C197.573 155.035 197.713 154.807 197.815 154.558C197.918 154.309 197.969 154.045 197.969 153.766C197.969 153.238 197.786 152.769 197.419 152.358C197.067 151.947 196.576 151.742 195.945 151.742H191.985V155.878H195.901ZM201.989 144.988L202.935 143.624L201.439 143.14L201.681 142.348L203.199 142.92V141.314H204.013V142.92L205.531 142.348L205.773 143.14L204.277 143.624L205.245 144.988L204.541 145.472L203.617 144.042L202.671 145.472L201.989 144.988Z" fill="black"/>
<path d="M131.565 60.195C133.325 60.195 134.975 60.5067 136.515 61.13C138.092 61.7167 139.448 62.56 140.585 63.66C141.722 64.76 142.62 66.08 143.28 67.62C143.94 69.1233 144.27 70.7917 144.27 72.625C144.27 74.5683 143.903 76.3283 143.17 77.905C142.473 79.4817 141.52 80.8383 140.31 81.975C139.1 83.1117 137.67 83.9917 136.02 84.615C134.37 85.2383 132.61 85.55 130.74 85.55C127.953 85.55 125.442 84.8717 123.205 83.515C121.005 82.1583 119.337 80.325 118.2 78.015L120.73 76.145C121.72 77.9783 123.113 79.445 124.91 80.545C126.707 81.6083 128.668 82.14 130.795 82.14C132.152 82.14 133.417 81.92 134.59 81.48C135.763 81.0033 136.79 80.3617 137.67 79.555C138.55 78.7117 139.228 77.7033 139.705 76.53C140.218 75.3567 140.475 74.0733 140.475 72.68C140.475 71.3233 140.237 70.095 139.76 68.995C139.283 67.8583 138.623 66.8867 137.78 66.08C136.937 65.2733 135.947 64.65 134.81 64.21C133.673 63.7333 132.445 63.495 131.125 63.495C129.402 63.495 127.77 63.88 126.23 64.65C124.727 65.42 123.498 66.5017 122.545 67.895L119.025 67.895C119.062 67.675 119.153 67.1983 119.3 66.465C119.483 65.695 119.685 64.7783 119.905 63.715C120.125 62.615 120.363 61.4233 120.62 60.14C120.877 58.8567 121.133 57.555 121.39 56.235C122.013 53.155 122.692 49.7267 123.425 45.95L142.29 45.95V49.415L126.23 49.415L123.48 63.44C124.433 62.3767 125.607 61.57 127 61.02C128.393 60.47 129.915 60.195 131.565 60.195ZM151.292 89.455L152.227 84.835H150.962V79.61H154.592V84.835L153.217 89.455H151.292ZM177.027 85.55C174.387 85.4767 172.058 84.8167 170.042 83.57C168.025 82.3233 166.338 80.7467 164.982 78.84C163.625 76.9333 162.598 74.825 161.902 72.515C161.205 70.205 160.857 67.95 160.857 65.75C160.857 63.4033 161.223 61.0567 161.957 58.71C162.727 56.3267 163.808 54.2 165.202 52.33C166.595 50.4233 168.282 48.8833 170.262 47.71C172.278 46.5367 174.533 45.95 177.027 45.95C179.703 45.95 182.032 46.5917 184.012 47.875C186.028 49.1217 187.715 50.7167 189.072 52.66C190.428 54.6033 191.437 56.7483 192.097 59.095C192.793 61.405 193.142 63.6233 193.142 65.75C193.142 68.1333 192.757 70.4983 191.987 72.845C191.253 75.1917 190.19 77.3 188.797 79.17C187.403 81.04 185.717 82.5617 183.737 83.735C181.757 84.9083 179.52 85.5133 177.027 85.55ZM164.762 65.75C164.798 67.6567 165.092 69.5817 165.642 71.525C166.192 73.4683 166.962 75.2283 167.952 76.805C168.978 78.345 170.243 79.61 171.747 80.6C173.287 81.59 175.047 82.085 177.027 82.085C179.08 82.085 180.877 81.5717 182.417 80.545C183.957 79.4817 185.222 78.1433 186.212 76.53C187.238 74.9167 188.008 73.1567 188.522 71.25C189.035 69.3067 189.292 67.4733 189.292 65.75C189.292 63.8433 189.017 61.9183 188.467 59.975C187.917 58.0317 187.11 56.29 186.047 54.75C185.02 53.1733 183.737 51.89 182.197 50.9C180.693 49.91 178.97 49.415 177.027 49.415C174.937 49.415 173.122 49.9467 171.582 51.01C170.078 52.0733 168.813 53.4117 167.787 55.025C166.76 56.6383 165.99 58.3983 165.477 60.305C165 62.2117 164.762 64.0267 164.762 65.75Z" fill="black"/>
<path d="M36.6747 24C38.1487 24 38.8857 25.0032 38.8857 26.1527C38.8857 27.5882 37.6053 28.9159 35.9388 28.9159C34.5429 28.9159 33.7289 28.0909 33.7674 26.7269C33.7674 25.5796 34.7365 24 36.6747 24ZM32.1394 46C30.9756 46 30.1231 45.2828 30.9371 42.1236L32.2725 36.5224C32.5046 35.627 32.5431 35.2673 32.2725 35.2673C31.9238 35.2673 30.4146 35.8855 29.5203 36.496L28.9395 35.528C31.7687 33.1234 35.0236 31.7143 36.4206 31.7143C37.5833 31.7143 37.7769 33.1146 37.1961 35.2673L35.666 41.1545C35.3954 42.194 35.5109 42.5526 35.7826 42.5526C36.1313 42.5526 37.2753 42.1214 38.3995 41.2249L39.0595 42.1203C36.3073 44.922 33.301 46 32.1394 46Z" fill="black"/>
</svg>
