<svg width="167" height="135" viewBox="0 0 167 135" fill="none" xmlns="http://www.w3.org/2000/svg">
<path d="M2.32421 65V49.38H14.1162V65H12.5762V50.744H3.86421V65H2.32421ZM22.6053 65.22C21.784 65.22 21.0213 65.066 20.3173 64.758C19.628 64.4353 19.0266 64.0027 18.5133 63.46C18.0146 62.9027 17.626 62.272 17.3473 61.568C17.0686 60.8493 16.9293 60.094 16.9293 59.302C16.9293 58.4807 17.0686 57.718 17.3473 57.014C17.626 56.2953 18.022 55.6647 18.5353 55.122C19.0486 54.5647 19.65 54.132 20.3393 53.824C21.0433 53.5013 21.806 53.34 22.6273 53.34C23.4486 53.34 24.204 53.5013 24.8933 53.824C25.5826 54.132 26.184 54.5647 26.6973 55.122C27.2106 55.6647 27.6066 56.2953 27.8853 57.014C28.164 57.718 28.3033 58.4807 28.3033 59.302C28.3033 60.094 28.164 60.8493 27.8853 61.568C27.6066 62.272 27.2106 62.9027 26.6973 63.46C26.1986 64.0027 25.5973 64.4353 24.8933 64.758C24.204 65.066 23.4413 65.22 22.6053 65.22ZM18.4473 59.324C18.4473 60.1747 18.6306 60.952 18.9973 61.656C19.3786 62.3453 19.8846 62.8953 20.5153 63.306C21.146 63.702 21.8426 63.9 22.6053 63.9C23.368 63.9 24.0646 63.6947 24.6953 63.284C25.326 62.8733 25.832 62.316 26.2133 61.612C26.5946 60.8933 26.7853 60.116 26.7853 59.28C26.7853 58.4293 26.5946 57.652 26.2133 56.948C25.832 56.244 25.326 55.6867 24.6953 55.276C24.0646 54.8653 23.368 54.66 22.6053 54.66C21.8426 54.66 21.146 54.8727 20.5153 55.298C19.8993 55.7233 19.4006 56.288 19.0193 56.992C18.638 57.6813 18.4473 58.4587 18.4473 59.324ZM42.2647 65.22C41.3114 65.22 40.4534 64.9707 39.6907 64.472C38.9427 63.9733 38.3487 63.3573 37.9087 62.624V69.686H36.4127V53.538H37.7547V55.76C38.2094 55.0413 38.818 54.462 39.5807 54.022C40.3434 53.5673 41.1574 53.34 42.0227 53.34C42.8147 53.34 43.5407 53.5087 44.2007 53.846C44.8607 54.1687 45.4327 54.6087 45.9167 55.166C46.4007 55.7233 46.7747 56.3613 47.0387 57.08C47.3174 57.784 47.4567 58.5173 47.4567 59.28C47.4567 60.3507 47.2367 61.3407 46.7967 62.25C46.3714 63.1447 45.77 63.8633 44.9927 64.406C44.2154 64.9487 43.306 65.22 42.2647 65.22ZM41.8467 63.9C42.4774 63.9 43.042 63.7753 43.5407 63.526C44.0394 63.262 44.4647 62.91 44.8167 62.47C45.1834 62.03 45.462 61.5387 45.6527 60.996C45.8434 60.4387 45.9387 59.8667 45.9387 59.28C45.9387 58.664 45.8287 58.0773 45.6087 57.52C45.4034 56.9627 45.1027 56.4713 44.7067 56.046C44.3107 55.6207 43.856 55.2833 43.3427 55.034C42.8294 54.7847 42.272 54.66 41.6707 54.66C41.2894 54.66 40.8934 54.7333 40.4827 54.88C40.072 55.0267 39.676 55.2393 39.2947 55.518C38.928 55.782 38.62 56.0827 38.3707 56.42C38.1214 56.7573 37.9674 57.1167 37.9087 57.498V61.018C38.1434 61.5607 38.4587 62.052 38.8547 62.492C39.2507 62.9173 39.7054 63.262 40.2187 63.526C40.7467 63.7753 41.2894 63.9 41.8467 63.9ZM54.9408 65.22C54.1195 65.22 53.3568 65.066 52.6528 64.758C51.9488 64.4353 51.3402 64.0027 50.8268 63.46C50.3135 62.9027 49.9102 62.2647 49.6168 61.546C49.3382 60.8273 49.1988 60.0573 49.1988 59.236C49.1988 58.1653 49.4408 57.1827 49.9248 56.288C50.4235 55.3933 51.1055 54.682 51.9708 54.154C52.8362 53.6113 53.8188 53.34 54.9188 53.34C56.0482 53.34 57.0308 53.6113 57.8668 54.154C58.7175 54.6967 59.3848 55.4153 59.8688 56.31C60.3528 57.19 60.5948 58.158 60.5948 59.214C60.5948 59.3313 60.5948 59.4487 60.5948 59.566C60.5948 59.6687 60.5875 59.7493 60.5728 59.808H50.7608C50.8342 60.6293 51.0615 61.3627 51.4428 62.008C51.8388 62.6387 52.3448 63.1447 52.9608 63.526C53.5915 63.8927 54.2735 64.076 55.0068 64.076C55.7548 64.076 56.4588 63.8853 57.1188 63.504C57.7935 63.1227 58.2628 62.624 58.5268 62.008L59.8248 62.36C59.5902 62.9027 59.2308 63.394 58.7468 63.834C58.2628 64.274 57.6908 64.6187 57.0308 64.868C56.3855 65.1027 55.6888 65.22 54.9408 65.22ZM50.7168 58.73H59.1868C59.1282 57.894 58.9008 57.1607 58.5048 56.53C58.1235 55.8993 57.6175 55.408 56.9868 55.056C56.3708 54.6893 55.6888 54.506 54.9408 54.506C54.1928 54.506 53.5108 54.6893 52.8948 55.056C52.2788 55.408 51.7728 55.9067 51.3768 56.552C50.9955 57.1827 50.7755 57.9087 50.7168 58.73ZM66.2249 65.132C65.1689 65.132 64.2669 64.934 63.5189 64.538C62.7709 64.1273 62.1989 63.5553 61.8029 62.822L63.0349 62.272C63.3136 62.7853 63.7169 63.1887 64.2449 63.482C64.7729 63.7607 65.4109 63.9 66.1589 63.9C67.0536 63.9 67.7649 63.6947 68.2929 63.284C68.8356 62.8733 69.1069 62.3233 69.1069 61.634C69.1069 61.0033 68.8943 60.4973 68.4689 60.116C68.0436 59.7347 67.4569 59.5367 66.7089 59.522H65.5429V58.488H66.7969C67.1196 58.488 67.4129 58.4 67.6769 58.224C67.9409 58.048 68.1463 57.8133 68.2929 57.52C68.4396 57.2267 68.5129 56.8967 68.5129 56.53C68.5129 55.958 68.3076 55.496 67.8969 55.144C67.5009 54.792 66.9143 54.616 66.1369 54.616C65.4916 54.616 64.9489 54.748 64.5089 55.012C64.0836 55.2613 63.7389 55.6353 63.4749 56.134L62.3309 55.518C62.6683 54.8433 63.1669 54.3153 63.8269 53.934C64.5016 53.5527 65.2863 53.362 66.1809 53.362C66.9143 53.362 67.5523 53.4867 68.0949 53.736C68.6523 53.9707 69.0849 54.3153 69.3929 54.77C69.7156 55.21 69.8769 55.7453 69.8769 56.376C69.8769 56.9187 69.7449 57.4247 69.4809 57.894C69.2169 58.3487 68.8503 58.6933 68.3809 58.928C69.0556 59.1333 69.5763 59.4927 69.9429 60.006C70.3243 60.5193 70.5149 61.1207 70.5149 61.81C70.5149 62.4993 70.3316 63.0933 69.9649 63.592C69.5983 64.0907 69.0923 64.472 68.4469 64.736C67.8016 65 67.0609 65.132 66.2249 65.132ZM74.2761 69.796C74.0267 69.796 73.7701 69.752 73.5061 69.664C73.2567 69.5907 73.0001 69.4807 72.7361 69.334L73.2861 68.278C73.4474 68.366 73.5941 68.4393 73.7261 68.498C73.8727 68.5567 74.0267 68.586 74.1881 68.586C74.5694 68.586 74.9287 68.3953 75.2661 68.014C75.6034 67.6327 75.9261 67.0753 76.2341 66.342L76.8061 64.912L71.7021 53.538H73.2861L77.4881 63.46L81.3601 53.538H82.8561L77.4001 66.804C77.1067 67.4933 76.7987 68.058 76.4761 68.498C76.1534 68.938 75.8087 69.2607 75.4421 69.466C75.0754 69.686 74.6867 69.796 74.2761 69.796ZM83.8459 65.066V63.702C84.2419 63.702 84.5939 63.5993 84.9019 63.394C85.2099 63.174 85.4812 62.8073 85.7159 62.294C85.9652 61.7807 86.1632 61.0767 86.3099 60.182C86.4566 59.2727 86.5519 58.1213 86.5959 56.728L86.7279 53.538H94.1639V65H92.6679V54.88H88.0479L88.0039 56.86C87.9452 58.444 87.8206 59.7713 87.6299 60.842C87.4392 61.898 87.1679 62.734 86.8159 63.35C86.4786 63.966 86.0606 64.406 85.5619 64.67C85.0632 64.934 84.4912 65.066 83.8459 65.066ZM97.4493 65V53.538H98.9453V57.586H101.915C103.221 57.586 104.203 57.9233 104.863 58.598C105.538 59.258 105.875 60.1307 105.875 61.216C105.875 61.92 105.729 62.558 105.435 63.13C105.142 63.702 104.709 64.1567 104.137 64.494C103.58 64.8313 102.876 65 102.025 65H97.4493ZM98.9453 63.812H101.827C102.429 63.812 102.913 63.6947 103.279 63.46C103.646 63.2107 103.917 62.8953 104.093 62.514C104.269 62.118 104.357 61.6927 104.357 61.238C104.357 60.798 104.277 60.3947 104.115 60.028C103.969 59.6467 103.705 59.346 103.323 59.126C102.957 58.8913 102.443 58.774 101.783 58.774H98.9453V63.812ZM111.073 65V54.88H106.981V53.538H116.661V54.88H112.569V65H111.073ZM117.709 61.7C117.709 60.9813 117.915 60.3653 118.325 59.852C118.736 59.324 119.301 58.9207 120.019 58.642C120.753 58.3487 121.596 58.202 122.549 58.202C123.107 58.202 123.686 58.246 124.287 58.334C124.889 58.422 125.424 58.554 125.893 58.73V57.762C125.893 56.794 125.607 56.024 125.035 55.452C124.463 54.88 123.671 54.594 122.659 54.594C122.043 54.594 121.435 54.7113 120.833 54.946C120.247 55.166 119.631 55.496 118.985 55.936L118.413 54.88C119.161 54.3667 119.895 53.9853 120.613 53.736C121.332 53.472 122.065 53.34 122.813 53.34C124.221 53.34 125.336 53.7433 126.157 54.55C126.979 55.3567 127.389 56.4713 127.389 57.894V63.196C127.389 63.4013 127.433 63.5553 127.521 63.658C127.609 63.746 127.749 63.7973 127.939 63.812V65C127.778 65.0147 127.639 65.0293 127.521 65.044C127.404 65.0587 127.316 65.0587 127.257 65.044C126.891 65.0293 126.612 64.912 126.421 64.692C126.231 64.472 126.128 64.2373 126.113 63.988L126.091 63.152C125.578 63.812 124.911 64.3253 124.089 64.692C123.268 65.044 122.432 65.22 121.581 65.22C120.848 65.22 120.181 65.066 119.579 64.758C118.993 64.4353 118.531 64.01 118.193 63.482C117.871 62.9393 117.709 62.3453 117.709 61.7ZM125.387 62.58C125.549 62.3747 125.673 62.1767 125.761 61.986C125.849 61.7953 125.893 61.6267 125.893 61.48V59.808C125.395 59.6173 124.874 59.4707 124.331 59.368C123.803 59.2653 123.268 59.214 122.725 59.214C121.655 59.214 120.789 59.4267 120.129 59.852C119.469 60.2773 119.139 60.8567 119.139 61.59C119.139 62.0153 119.249 62.4187 119.469 62.8C119.689 63.1667 120.012 63.4747 120.437 63.724C120.863 63.9587 121.361 64.076 121.933 64.076C122.652 64.076 123.319 63.9367 123.935 63.658C124.566 63.3793 125.05 63.02 125.387 62.58ZM133.31 65V54.88H129.218V53.538H138.898V54.88H134.806V65H133.31ZM139.946 61.7C139.946 60.9813 140.151 60.3653 140.562 59.852C140.972 59.324 141.537 58.9207 142.256 58.642C142.989 58.3487 143.832 58.202 144.786 58.202C145.343 58.202 145.922 58.246 146.524 58.334C147.125 58.422 147.66 58.554 148.13 58.73V57.762C148.13 56.794 147.844 56.024 147.272 55.452C146.7 54.88 145.908 54.594 144.896 54.594C144.28 54.594 143.671 54.7113 143.07 54.946C142.483 55.166 141.867 55.496 141.222 55.936L140.65 54.88C141.398 54.3667 142.131 53.9853 142.85 53.736C143.568 53.472 144.302 53.34 145.05 53.34C146.458 53.34 147.572 53.7433 148.394 54.55C149.215 55.3567 149.626 56.4713 149.626 57.894V63.196C149.626 63.4013 149.67 63.5553 149.758 63.658C149.846 63.746 149.985 63.7973 150.176 63.812V65C150.014 65.0147 149.875 65.0293 149.758 65.044C149.64 65.0587 149.552 65.0587 149.494 65.044C149.127 65.0293 148.848 64.912 148.658 64.692C148.467 64.472 148.364 64.2373 148.35 63.988L148.328 63.152C147.814 63.812 147.147 64.3253 146.326 64.692C145.504 65.044 144.668 65.22 143.818 65.22C143.084 65.22 142.417 65.066 141.816 64.758C141.229 64.4353 140.767 64.01 140.43 63.482C140.107 62.9393 139.946 62.3453 139.946 61.7ZM147.624 62.58C147.785 62.3747 147.91 62.1767 147.998 61.986C148.086 61.7953 148.13 61.6267 148.13 61.48V59.808C147.631 59.6173 147.11 59.4707 146.568 59.368C146.04 59.2653 145.504 59.214 144.962 59.214C143.891 59.214 143.026 59.4267 142.366 59.852C141.706 60.2773 141.376 60.8567 141.376 61.59C141.376 62.0153 141.486 62.4187 141.706 62.8C141.926 63.1667 142.248 63.4747 142.674 63.724C143.099 63.9587 143.598 64.076 144.17 64.076C144.888 64.076 145.556 63.9367 146.172 63.658C146.802 63.3793 147.286 63.02 147.624 62.58ZM152.836 65V53.538H154.376L158.93 61.436L163.506 53.538H164.98V65H163.55V55.782L159.414 62.954H158.446L154.266 55.782V65H152.836ZM15.4112 96V84.538H21.1312C21.7765 84.538 22.3192 84.6773 22.7592 84.956C23.1992 85.22 23.5292 85.5647 23.7492 85.99C23.9839 86.4153 24.1012 86.87 24.1012 87.354C24.1012 87.97 23.9545 88.5273 23.6612 89.026C23.3679 89.51 22.9425 89.8767 22.3852 90.126C23.0452 90.3167 23.5805 90.6613 23.9912 91.16C24.4019 91.6587 24.6072 92.26 24.6072 92.964C24.6072 93.58 24.4532 94.1153 24.1452 94.57C23.8519 95.0247 23.4412 95.3767 22.9132 95.626C22.3999 95.8753 21.8059 96 21.1312 96H15.4112ZM16.8412 94.922H21.0872C21.4685 94.922 21.8132 94.8267 22.1212 94.636C22.4439 94.4307 22.6932 94.1667 22.8692 93.844C23.0599 93.5213 23.1552 93.184 23.1552 92.832C23.1552 92.4507 23.0672 92.106 22.8912 91.798C22.7152 91.4753 22.4805 91.2187 22.1872 91.028C21.8939 90.8373 21.5565 90.742 21.1752 90.742H16.8412V94.922ZM16.8412 89.708H20.7352C21.1165 89.708 21.4539 89.6053 21.7472 89.4C22.0405 89.1947 22.2679 88.9307 22.4292 88.608C22.5905 88.2853 22.6712 87.948 22.6712 87.596C22.6712 87.068 22.4952 86.606 22.1432 86.21C21.8059 85.814 21.3659 85.616 20.8232 85.616H16.8412V89.708ZM27.1846 96V84.538H28.6806V89.466H35.2366V84.538H36.7326V96H35.2366V90.808H28.6806V96H27.1846ZM41.0505 100.796C40.8012 100.796 40.5445 100.752 40.2805 100.664C40.0312 100.591 39.7745 100.481 39.5105 100.334L40.0605 99.278C40.2218 99.366 40.3685 99.4393 40.5005 99.498C40.6472 99.5567 40.8012 99.586 40.9625 99.586C41.3438 99.586 41.7032 99.3953 42.0405 99.014C42.3778 98.6327 42.7005 98.0753 43.0085 97.342L43.5805 95.912L38.4765 84.538H40.0605L44.2625 94.46L48.1345 84.538H49.6305L44.1745 97.804C43.8812 98.4933 43.5732 99.058 43.2505 99.498C42.9278 99.938 42.5832 100.261 42.2165 100.466C41.8498 100.686 41.4612 100.796 41.0505 100.796ZM54.5803 96V85.88H50.4883V84.538H60.1683V85.88H56.0763V96H54.5803ZM68.0567 96.22C67.1034 96.22 66.2454 95.9707 65.4827 95.472C64.7347 94.9733 64.1407 94.3573 63.7007 93.624V100.686H62.2047V84.538H63.5467V86.76C64.0014 86.0413 64.61 85.462 65.3727 85.022C66.1354 84.5673 66.9494 84.34 67.8147 84.34C68.6067 84.34 69.3327 84.5087 69.9927 84.846C70.6527 85.1687 71.2247 85.6087 71.7087 86.166C72.1927 86.7233 72.5667 87.3613 72.8307 88.08C73.1094 88.784 73.2487 89.5173 73.2487 90.28C73.2487 91.3507 73.0287 92.3407 72.5887 93.25C72.1634 94.1447 71.562 94.8633 70.7847 95.406C70.0074 95.9487 69.098 96.22 68.0567 96.22ZM67.6387 94.9C68.2694 94.9 68.834 94.7753 69.3327 94.526C69.8314 94.262 70.2567 93.91 70.6087 93.47C70.9754 93.03 71.254 92.5387 71.4447 91.996C71.6354 91.4387 71.7307 90.8667 71.7307 90.28C71.7307 89.664 71.6207 89.0773 71.4007 88.52C71.1954 87.9627 70.8947 87.4713 70.4987 87.046C70.1027 86.6207 69.648 86.2833 69.1347 86.034C68.6214 85.7847 68.064 85.66 67.4627 85.66C67.0814 85.66 66.6854 85.7333 66.2747 85.88C65.864 86.0267 65.468 86.2393 65.0867 86.518C64.72 86.782 64.412 87.0827 64.1627 87.42C63.9134 87.7573 63.7594 88.1167 63.7007 88.498V92.018C63.9354 92.5607 64.2507 93.052 64.6467 93.492C65.0427 93.9173 65.4974 94.262 66.0107 94.526C66.5387 94.7753 67.0814 94.9 67.6387 94.9ZM80.7328 96.22C79.9115 96.22 79.1488 96.066 78.4448 95.758C77.7408 95.4353 77.1321 95.0027 76.6188 94.46C76.1055 93.9027 75.7021 93.2647 75.4088 92.546C75.1301 91.8273 74.9908 91.0573 74.9908 90.236C74.9908 89.1653 75.2328 88.1827 75.7168 87.288C76.2155 86.3933 76.8975 85.682 77.7628 85.154C78.6281 84.6113 79.6108 84.34 80.7108 84.34C81.8401 84.34 82.8228 84.6113 83.6588 85.154C84.5095 85.6967 85.1768 86.4153 85.6608 87.31C86.1448 88.19 86.3868 89.158 86.3868 90.214C86.3868 90.3313 86.3868 90.4487 86.3868 90.566C86.3868 90.6687 86.3795 90.7493 86.3648 90.808H76.5528C76.6261 91.6293 76.8535 92.3627 77.2348 93.008C77.6308 93.6387 78.1368 94.1447 78.7528 94.526C79.3835 94.8927 80.0655 95.076 80.7988 95.076C81.5468 95.076 82.2508 94.8853 82.9108 94.504C83.5855 94.1227 84.0548 93.624 84.3188 93.008L85.6168 93.36C85.3821 93.9027 85.0228 94.394 84.5388 94.834C84.0548 95.274 83.4828 95.6187 82.8228 95.868C82.1775 96.1027 81.4808 96.22 80.7328 96.22ZM76.5088 89.73H84.9788C84.9201 88.894 84.6928 88.1607 84.2968 87.53C83.9155 86.8993 83.4095 86.408 82.7788 86.056C82.1628 85.6893 81.4808 85.506 80.7328 85.506C79.9848 85.506 79.3028 85.6893 78.6868 86.056C78.0708 86.408 77.5648 86.9067 77.1688 87.552C76.7875 88.1827 76.5675 88.9087 76.5088 89.73ZM88.6729 96V84.538H90.1689V89.466H96.7249V84.538H98.2209V96H96.7249V90.808H90.1689V96H88.6729ZM101.499 96V84.538H102.995V89.466H109.551V84.538H111.047V96H109.551V90.808H102.995V96H101.499ZM119.297 96.22C118.476 96.22 117.713 96.066 117.009 95.758C116.305 95.4353 115.697 95.0027 115.183 94.46C114.67 93.9027 114.267 93.2647 113.973 92.546C113.695 91.8273 113.555 91.0573 113.555 90.236C113.555 89.1653 113.797 88.1827 114.281 87.288C114.78 86.3933 115.462 85.682 116.327 85.154C117.193 84.6113 118.175 84.34 119.275 84.34C120.405 84.34 121.387 84.6113 122.223 85.154C123.074 85.6967 123.741 86.4153 124.225 87.31C124.709 88.19 124.951 89.158 124.951 90.214C124.951 90.3313 124.951 90.4487 124.951 90.566C124.951 90.6687 124.944 90.7493 124.929 90.808H115.117C115.191 91.6293 115.418 92.3627 115.799 93.008C116.195 93.6387 116.701 94.1447 117.317 94.526C117.948 94.8927 118.63 95.076 119.363 95.076C120.111 95.076 120.815 94.8853 121.475 94.504C122.15 94.1227 122.619 93.624 122.883 93.008L124.181 93.36C123.947 93.9027 123.587 94.394 123.103 94.834C122.619 95.274 122.047 95.6187 121.387 95.868C120.742 96.1027 120.045 96.22 119.297 96.22ZM115.073 89.73H123.543C123.485 88.894 123.257 88.1607 122.861 87.53C122.48 86.8993 121.974 86.408 121.343 86.056C120.727 85.6893 120.045 85.506 119.297 85.506C118.549 85.506 117.867 85.6893 117.251 86.056C116.635 86.408 116.129 86.9067 115.733 87.552C115.352 88.1827 115.132 88.9087 115.073 89.73ZM127.237 96V84.538H134.079V85.88H128.733V96H127.237ZM141.059 96.22C140.238 96.22 139.475 96.066 138.771 95.758C138.082 95.4353 137.481 95.0027 136.967 94.46C136.469 93.9027 136.08 93.272 135.801 92.568C135.523 91.8493 135.383 91.094 135.383 90.302C135.383 89.4807 135.523 88.718 135.801 88.014C136.08 87.2953 136.476 86.6647 136.989 86.122C137.503 85.5647 138.104 85.132 138.793 84.824C139.497 84.5013 140.26 84.34 141.081 84.34C141.903 84.34 142.658 84.5013 143.347 84.824C144.037 85.132 144.638 85.5647 145.151 86.122C145.665 86.6647 146.061 87.2953 146.339 88.014C146.618 88.718 146.757 89.4807 146.757 90.302C146.757 91.094 146.618 91.8493 146.339 92.568C146.061 93.272 145.665 93.9027 145.151 94.46C144.653 95.0027 144.051 95.4353 143.347 95.758C142.658 96.066 141.895 96.22 141.059 96.22ZM136.901 90.324C136.901 91.1747 137.085 91.952 137.451 92.656C137.833 93.3453 138.339 93.8953 138.969 94.306C139.6 94.702 140.297 94.9 141.059 94.9C141.822 94.9 142.519 94.6947 143.149 94.284C143.78 93.8733 144.286 93.316 144.667 92.612C145.049 91.8933 145.239 91.116 145.239 90.28C145.239 89.4293 145.049 88.652 144.667 87.948C144.286 87.244 143.78 86.6867 143.149 86.276C142.519 85.8653 141.822 85.66 141.059 85.66C140.297 85.66 139.6 85.8727 138.969 86.298C138.353 86.7233 137.855 87.288 137.473 87.992C137.092 88.6813 136.901 89.4587 136.901 90.324ZM10.4161 127V115.56H11.9121V124.976L18.8861 115.538H20.2281V127H18.7321V117.738L11.8681 127H10.4161ZM28.4726 127.22C27.6366 127.22 26.8666 127.066 26.1626 126.758C25.4733 126.435 24.8646 125.995 24.3366 125.438C23.8233 124.881 23.4199 124.243 23.1266 123.524C22.8479 122.805 22.7086 122.043 22.7086 121.236C22.7086 120.151 22.9506 119.161 23.4346 118.266C23.9186 117.371 24.5933 116.66 25.4586 116.132C26.3239 115.604 27.3213 115.34 28.4506 115.34C29.5213 115.34 30.4673 115.589 31.2886 116.088C32.1099 116.572 32.7186 117.232 33.1146 118.068L31.6626 118.53C31.3399 117.943 30.8853 117.489 30.2986 117.166C29.7266 116.829 29.0886 116.66 28.3846 116.66C27.6219 116.66 26.9253 116.858 26.2946 117.254C25.6639 117.65 25.1579 118.193 24.7766 118.882C24.4099 119.571 24.2266 120.356 24.2266 121.236C24.2266 122.101 24.4173 122.886 24.7986 123.59C25.1799 124.294 25.6859 124.859 26.3166 125.284C26.9473 125.695 27.6439 125.9 28.4066 125.9C28.9053 125.9 29.3819 125.812 29.8366 125.636C30.3059 125.46 30.7093 125.225 31.0466 124.932C31.3986 124.624 31.6333 124.294 31.7506 123.942L33.2246 124.382C33.0193 124.925 32.6746 125.416 32.1906 125.856C31.7213 126.281 31.1639 126.619 30.5186 126.868C29.8879 127.103 29.2059 127.22 28.4726 127.22ZM40.4394 127.22C39.6034 127.22 38.8334 127.066 38.1294 126.758C37.44 126.435 36.8314 125.995 36.3034 125.438C35.79 124.881 35.3867 124.243 35.0934 123.524C34.8147 122.805 34.6754 122.043 34.6754 121.236C34.6754 120.151 34.9174 119.161 35.4014 118.266C35.8854 117.371 36.56 116.66 37.4254 116.132C38.2907 115.604 39.288 115.34 40.4174 115.34C41.488 115.34 42.4341 115.589 43.2554 116.088C44.0767 116.572 44.6854 117.232 45.0814 118.068L43.6294 118.53C43.3067 117.943 42.852 117.489 42.2654 117.166C41.6934 116.829 41.0554 116.66 40.3514 116.66C39.5887 116.66 38.892 116.858 38.2614 117.254C37.6307 117.65 37.1247 118.193 36.7434 118.882C36.3767 119.571 36.1934 120.356 36.1934 121.236C36.1934 122.101 36.384 122.886 36.7654 123.59C37.1467 124.294 37.6527 124.859 38.2834 125.284C38.914 125.695 39.6107 125.9 40.3734 125.9C40.872 125.9 41.3487 125.812 41.8034 125.636C42.2727 125.46 42.676 125.225 43.0134 124.932C43.3654 124.624 43.6001 124.294 43.7174 123.942L45.1914 124.382C44.986 124.925 44.6414 125.416 44.1574 125.856C43.6881 126.281 43.1307 126.619 42.4854 126.868C41.8547 127.103 41.1727 127.22 40.4394 127.22ZM46.4416 127.066V125.702C46.8376 125.702 47.1896 125.599 47.4976 125.394C47.8056 125.174 48.0769 124.807 48.3116 124.294C48.5609 123.781 48.7589 123.077 48.9056 122.182C49.0523 121.273 49.1476 120.121 49.1916 118.728L49.3236 115.538H56.7596V127H55.2636V116.88H50.6436L50.5996 118.86C50.5409 120.444 50.4163 121.771 50.2256 122.842C50.0349 123.898 49.7636 124.734 49.4116 125.35C49.0743 125.966 48.6563 126.406 48.1576 126.67C47.6589 126.934 47.0869 127.066 46.4416 127.066ZM65.017 127.22C64.1957 127.22 63.433 127.066 62.729 126.758C62.025 126.435 61.4163 126.003 60.903 125.46C60.3897 124.903 59.9863 124.265 59.693 123.546C59.4143 122.827 59.275 122.057 59.275 121.236C59.275 120.165 59.517 119.183 60.001 118.288C60.4997 117.393 61.1817 116.682 62.047 116.154C62.9123 115.611 63.895 115.34 64.995 115.34C66.1243 115.34 67.107 115.611 67.943 116.154C68.7937 116.697 69.461 117.415 69.945 118.31C70.429 119.19 70.671 120.158 70.671 121.214C70.671 121.331 70.671 121.449 70.671 121.566C70.671 121.669 70.6637 121.749 70.649 121.808H60.837C60.9103 122.629 61.1377 123.363 61.519 124.008C61.915 124.639 62.421 125.145 63.037 125.526C63.6677 125.893 64.3497 126.076 65.083 126.076C65.831 126.076 66.535 125.885 67.195 125.504C67.8697 125.123 68.339 124.624 68.603 124.008L69.901 124.36C69.6663 124.903 69.307 125.394 68.823 125.834C68.339 126.274 67.767 126.619 67.107 126.868C66.4617 127.103 65.765 127.22 65.017 127.22ZM60.793 120.73H69.263C69.2043 119.894 68.977 119.161 68.581 118.53C68.1997 117.899 67.6937 117.408 67.063 117.056C66.447 116.689 65.765 116.506 65.017 116.506C64.269 116.506 63.587 116.689 62.971 117.056C62.355 117.408 61.849 117.907 61.453 118.552C61.0717 119.183 60.8517 119.909 60.793 120.73ZM71.7031 129.662V125.658H71.9011C72.2384 125.658 72.5464 125.555 72.8251 125.35C73.1038 125.145 73.3531 124.785 73.5731 124.272C73.7931 123.759 73.9691 123.055 74.1011 122.16C74.2331 121.251 74.3211 120.107 74.3651 118.728L74.4751 115.538H81.9331V125.658H83.4731V129.662H82.1311V127H73.0231V129.662H71.7031ZM74.1671 125.658H80.4371V116.88H75.8171L75.7511 118.86C75.7071 120.224 75.6118 121.368 75.4651 122.292C75.3331 123.201 75.1571 123.927 74.9371 124.47C74.7318 124.998 74.4751 125.394 74.1671 125.658ZM90.6248 127.22C89.8035 127.22 89.0408 127.066 88.3368 126.758C87.6475 126.435 87.0462 126.003 86.5328 125.46C86.0342 124.903 85.6455 124.272 85.3668 123.568C85.0882 122.849 84.9488 122.094 84.9488 121.302C84.9488 120.481 85.0882 119.718 85.3668 119.014C85.6455 118.295 86.0415 117.665 86.5548 117.122C87.0682 116.565 87.6695 116.132 88.3588 115.824C89.0628 115.501 89.8255 115.34 90.6468 115.34C91.4682 115.34 92.2235 115.501 92.9128 115.824C93.6022 116.132 94.2035 116.565 94.7168 117.122C95.2302 117.665 95.6262 118.295 95.9048 119.014C96.1835 119.718 96.3228 120.481 96.3228 121.302C96.3228 122.094 96.1835 122.849 95.9048 123.568C95.6262 124.272 95.2302 124.903 94.7168 125.46C94.2182 126.003 93.6168 126.435 92.9128 126.758C92.2235 127.066 91.4608 127.22 90.6248 127.22ZM86.4668 121.324C86.4668 122.175 86.6502 122.952 87.0168 123.656C87.3982 124.345 87.9042 124.895 88.5348 125.306C89.1655 125.702 89.8622 125.9 90.6248 125.9C91.3875 125.9 92.0842 125.695 92.7148 125.284C93.3455 124.873 93.8515 124.316 94.2328 123.612C94.6142 122.893 94.8048 122.116 94.8048 121.28C94.8048 120.429 94.6142 119.652 94.2328 118.948C93.8515 118.244 93.3455 117.687 92.7148 117.276C92.0842 116.865 91.3875 116.66 90.6248 116.66C89.8622 116.66 89.1655 116.873 88.5348 117.298C87.9188 117.723 87.4202 118.288 87.0388 118.992C86.6575 119.681 86.4668 120.459 86.4668 121.324ZM98.8028 127V115.538H104.523C105.168 115.538 105.711 115.677 106.151 115.956C106.591 116.22 106.921 116.565 107.141 116.99C107.375 117.415 107.493 117.87 107.493 118.354C107.493 118.97 107.346 119.527 107.053 120.026C106.759 120.51 106.334 120.877 105.777 121.126C106.437 121.317 106.972 121.661 107.383 122.16C107.793 122.659 107.999 123.26 107.999 123.964C107.999 124.58 107.845 125.115 107.537 125.57C107.243 126.025 106.833 126.377 106.305 126.626C105.791 126.875 105.197 127 104.523 127H98.8028ZM100.233 125.922H104.479C104.86 125.922 105.205 125.827 105.513 125.636C105.835 125.431 106.085 125.167 106.261 124.844C106.451 124.521 106.547 124.184 106.547 123.832C106.547 123.451 106.459 123.106 106.283 122.798C106.107 122.475 105.872 122.219 105.579 122.028C105.285 121.837 104.948 121.742 104.567 121.742H100.233V125.922ZM100.233 120.708H104.127C104.508 120.708 104.845 120.605 105.139 120.4C105.432 120.195 105.659 119.931 105.821 119.608C105.982 119.285 106.063 118.948 106.063 118.596C106.063 118.068 105.887 117.606 105.535 117.21C105.197 116.814 104.757 116.616 104.215 116.616H100.233V120.708ZM109.674 123.7C109.674 122.981 109.88 122.365 110.29 121.852C110.701 121.324 111.266 120.921 111.984 120.642C112.718 120.349 113.561 120.202 114.514 120.202C115.072 120.202 115.651 120.246 116.252 120.334C116.854 120.422 117.389 120.554 117.858 120.73V119.762C117.858 118.794 117.572 118.024 117 117.452C116.428 116.88 115.636 116.594 114.624 116.594C114.008 116.594 113.4 116.711 112.798 116.946C112.212 117.166 111.596 117.496 110.95 117.936L110.378 116.88C111.126 116.367 111.86 115.985 112.578 115.736C113.297 115.472 114.03 115.34 114.778 115.34C116.186 115.34 117.301 115.743 118.122 116.55C118.944 117.357 119.354 118.471 119.354 119.894V125.196C119.354 125.401 119.398 125.555 119.486 125.658C119.574 125.746 119.714 125.797 119.904 125.812V127C119.743 127.015 119.604 127.029 119.486 127.044C119.369 127.059 119.281 127.059 119.222 127.044C118.856 127.029 118.577 126.912 118.386 126.692C118.196 126.472 118.093 126.237 118.078 125.988L118.056 125.152C117.543 125.812 116.876 126.325 116.054 126.692C115.233 127.044 114.397 127.22 113.546 127.22C112.813 127.22 112.146 127.066 111.544 126.758C110.958 126.435 110.496 126.01 110.158 125.482C109.836 124.939 109.674 124.345 109.674 123.7ZM117.352 124.58C117.514 124.375 117.638 124.177 117.726 123.986C117.814 123.795 117.858 123.627 117.858 123.48V121.808C117.36 121.617 116.839 121.471 116.296 121.368C115.768 121.265 115.233 121.214 114.69 121.214C113.62 121.214 112.754 121.427 112.094 121.852C111.434 122.277 111.104 122.857 111.104 123.59C111.104 124.015 111.214 124.419 111.434 124.8C111.654 125.167 111.977 125.475 112.402 125.724C112.828 125.959 113.326 126.076 113.898 126.076C114.617 126.076 115.284 125.937 115.9 125.658C116.531 125.379 117.015 125.02 117.352 124.58ZM122.565 127V115.538H124.061V120.466H130.617V115.538H132.113V127H130.617V121.808H124.061V127H122.565ZM135.391 127V115.56H136.887V124.976L143.861 115.538H145.203V127H143.707V117.738L136.843 127H135.391ZM147.617 127L151.027 122.314C150.25 122.197 149.619 121.859 149.135 121.302C148.666 120.73 148.431 119.953 148.431 118.97C148.431 118.31 148.585 117.723 148.893 117.21C149.201 116.697 149.634 116.286 150.191 115.978C150.763 115.67 151.431 115.516 152.193 115.516H156.571V127H155.075V122.556H152.523L149.289 127H147.617ZM152.171 121.412H155.075V116.704H152.435C151.673 116.704 151.064 116.924 150.609 117.364C150.155 117.789 149.927 118.332 149.927 118.992C149.927 119.667 150.111 120.239 150.477 120.708C150.859 121.177 151.423 121.412 152.171 121.412Z" fill="black"/>
<path fill-rule="evenodd" clip-rule="evenodd" d="M71 31V4C71 2.93913 71.4214 1.92172 72.1716 1.17157C72.9217 0.421427 73.9391 0 75 0H91C92.0609 0 93.0783 0.421427 93.8284 1.17157C94.5786 1.92172 95 2.93913 95 4V31C95.0001 31.1737 94.955 31.3443 94.8692 31.4953C94.7833 31.6462 94.6596 31.7722 94.5102 31.8608C94.3609 31.9494 94.191 31.9976 94.0174 32.0006C93.8438 32.0036 93.6723 31.9614 93.52 31.878L83 26.138L72.48 31.878C72.3277 31.9614 72.1562 32.0036 71.9826 32.0006C71.809 31.9976 71.6391 31.9494 71.4898 31.8608C71.3404 31.7722 71.2167 31.6462 71.1308 31.4953C71.045 31.3443 70.9999 31.1737 71 31ZM88.708 11.708C88.8958 11.5202 89.0013 11.2656 89.0013 11C89.0013 10.7344 88.8958 10.4798 88.708 10.292C88.5202 10.1042 88.2656 9.99874 88 9.99874C87.7344 9.99874 87.4798 10.1042 87.292 10.292L82 15.586L79.708 13.292C79.615 13.199 79.5046 13.1253 79.3832 13.075C79.2617 13.0246 79.1315 12.9987 79 12.9987C78.8685 12.9987 78.7383 13.0246 78.6168 13.075C78.4954 13.1253 78.385 13.199 78.292 13.292C78.199 13.385 78.1253 13.4954 78.075 13.6168C78.0246 13.7383 77.9987 13.8685 77.9987 14C77.9987 14.1315 78.0246 14.2617 78.075 14.3832C78.1253 14.5046 78.199 14.615 78.292 14.708L81.292 17.708C81.3849 17.8011 81.4952 17.875 81.6167 17.9254C81.7382 17.9758 81.8685 18.0018 82 18.0018C82.1315 18.0018 82.2618 17.9758 82.3833 17.9254C82.5048 17.875 82.6151 17.8011 82.708 17.708L88.708 11.708Z" fill="black"/>
</svg>
