<svg width="50" height="50" viewBox="0 0 50 50" fill="none" xmlns="http://www.w3.org/2000/svg">
<path d="M1.61441 20.7405L3.15441 19.5405V48.7805C3.15441 49.3305 3.60441 49.7805 4.15441 49.7805H45.8444C46.3944 49.7805 46.8444 49.3305 46.8444 48.7805V19.5405L48.3844 20.7405C48.5644 20.8805 48.7844 20.9505 48.9944 20.9505C49.2944 20.9505 49.5844 20.8205 49.7844 20.5705C50.1244 20.1305 50.0444 19.5105 49.6144 19.1705L25.6144 0.440469C25.2544 0.160469 24.7444 0.160469 24.3844 0.440469L0.384405 19.1705C-0.055595 19.5105 -0.125595 20.1405 0.214405 20.5705C0.544405 21.0005 1.17441 21.0805 1.61441 20.7405V20.7405ZM24.9944 2.49047L44.8444 17.9805V47.7905H5.1444V17.9805L24.9944 2.49047Z" fill="black"/>
<path d="M24.9941 37.1706C28.3241 37.1706 31.0241 34.4606 31.0241 31.1406C31.0241 27.8206 28.3241 25.1006 24.9941 25.1006C21.6641 25.1006 18.9541 27.8106 18.9541 31.1306C18.9541 34.4506 21.6641 37.1706 24.9941 37.1706ZM24.9941 27.1006C27.2141 27.1006 29.0241 28.9106 29.0241 31.1306C29.0241 33.3506 27.2141 35.1606 24.9941 35.1606C22.7741 35.1606 20.9541 33.3506 20.9541 31.1306C20.9541 28.9106 22.7741 27.1006 24.9941 27.1006Z" fill="black"/>
<path d="M12.744 28.8905C13.224 29.0405 13.744 29.9405 13.744 31.1305C13.744 32.3205 13.224 33.2205 12.744 33.3705C12.234 33.5305 11.944 34.0705 12.084 34.5805C12.384 35.7205 12.834 36.8005 13.424 37.8105C13.694 38.2705 14.274 38.4405 14.754 38.2005C15.204 37.9705 16.204 38.2405 17.044 39.0805C17.884 39.9205 18.154 40.9305 17.924 41.3705C17.674 41.8405 17.844 42.4305 18.314 42.7005C19.324 43.2805 20.404 43.7305 21.544 44.0405C22.064 44.1805 22.594 43.8805 22.754 43.3805C22.904 42.9005 23.804 42.3805 24.994 42.3805C26.184 42.3805 27.084 42.9005 27.234 43.3805C27.364 43.8005 27.764 44.0805 28.184 44.0805C28.264 44.0805 28.354 44.0705 28.444 44.0505C29.584 43.7505 30.674 43.3005 31.674 42.7105C32.134 42.4405 32.304 41.8605 32.064 41.3805C31.834 40.9305 32.104 39.9305 32.944 39.0905C33.784 38.2505 34.784 37.9805 35.234 38.2105C35.714 38.4605 36.294 38.2905 36.564 37.8205C37.144 36.8205 37.594 35.7305 37.904 34.5905C38.044 34.0705 37.754 33.5405 37.244 33.3805C36.764 33.2305 36.244 32.3305 36.244 31.1405C36.244 29.9505 36.764 29.0505 37.244 28.9005C37.754 28.7405 38.044 28.2005 37.904 27.6905C37.604 26.5505 37.154 25.4605 36.564 24.4605C36.294 24.0005 35.714 23.8305 35.234 24.0705C34.784 24.3005 33.784 24.0305 32.944 23.1905C32.104 22.3505 31.834 21.3405 32.064 20.9005C32.314 20.4305 32.144 19.8405 31.674 19.5705C30.664 18.9905 29.584 18.5405 28.444 18.2305C27.924 18.0905 27.394 18.3805 27.234 18.8905C27.084 19.3705 26.184 19.8905 24.994 19.8905C23.804 19.8905 22.904 19.3705 22.754 18.8905C22.594 18.3805 22.054 18.0905 21.544 18.2305C20.404 18.5305 19.314 18.9805 18.314 19.5705C17.854 19.8405 17.684 20.4205 17.924 20.9005C18.154 21.3505 17.884 22.3505 17.044 23.1905C16.204 24.0305 15.204 24.3105 14.754 24.0705C14.284 23.8205 13.694 23.9905 13.424 24.4605C12.844 25.4705 12.394 26.5505 12.084 27.6905C11.944 28.1905 12.244 28.7305 12.744 28.8905V28.8905ZM14.234 27.4705C14.394 27.0105 14.574 26.5605 14.794 26.1205C15.984 26.2405 17.364 25.6905 18.454 24.5905C19.544 23.5005 20.104 22.1105 19.984 20.9305C20.424 20.7205 20.874 20.5305 21.334 20.3705C22.084 21.2905 23.454 21.8805 25.004 21.8805C26.554 21.8805 27.924 21.2905 28.664 20.3705C29.124 20.5305 29.584 20.7105 30.014 20.9305C29.894 22.1105 30.444 23.4905 31.544 24.5905C32.634 25.6805 34.034 26.2305 35.204 26.1205C35.414 26.5605 35.604 27.0105 35.764 27.4705C34.844 28.2205 34.254 29.5905 34.254 31.1305C34.254 32.6705 34.844 34.0505 35.764 34.8005C35.604 35.2605 35.424 35.7105 35.204 36.1505C34.034 36.0305 32.634 36.5805 31.544 37.6805C30.454 38.7705 29.894 40.1605 30.014 41.3405C29.574 41.5505 29.124 41.7405 28.664 41.9005C27.914 40.9805 26.544 40.3905 25.004 40.3905C23.464 40.3905 22.084 40.9805 21.334 41.9005C20.874 41.7405 20.414 41.5605 19.984 41.3405C20.104 40.1605 19.554 38.7805 18.454 37.6805C17.364 36.5905 15.984 36.0305 14.794 36.1505C14.584 35.7105 14.394 35.2605 14.234 34.8005C15.154 34.0505 15.744 32.6805 15.744 31.1305C15.744 29.5805 15.154 28.2205 14.234 27.4705V27.4705Z" fill="black"/>
</svg>
