<svg width="60" height="60" viewBox="0 0 60 60" fill="none" xmlns="http://www.w3.org/2000/svg">
<g clip-path="url(#clip0_44_44)">
<path d="M31.9293 36.2991H42.6581C43.0724 36.2991 43.4077 35.9638 43.4077 35.549C43.4077 35.1347 43.0724 34.7988 42.6581 34.7988H31.9293C31.515 34.7988 31.1797 35.1347 31.1797 35.549C31.1797 35.9638 31.515 36.2991 31.9293 36.2991Z" fill="black"/>
<path d="M17.7111 29.25C17.2968 29.25 16.9609 29.5853 16.9609 30.0002V31.952C16.9609 32.3662 17.2968 32.7021 17.7111 32.7021C18.1254 32.7021 18.4607 32.3662 18.4607 31.952V30.0002C18.4607 29.5853 18.1254 29.25 17.7111 29.25Z" fill="black"/>
<path d="M22.133 29.25C21.7187 29.25 21.3828 29.5853 21.3828 30.0002V31.952C21.3828 32.3662 21.7187 32.7021 22.133 32.7021C22.5472 32.7021 22.8831 32.3662 22.8831 31.952V30.0002C22.8831 29.5853 22.5472 29.25 22.133 29.25Z" fill="black"/>
<path d="M17.7111 34.7988C17.2968 34.7988 16.9609 35.1347 16.9609 35.549V37.5019C16.9609 37.9162 17.2968 38.2515 17.7111 38.2515C18.1254 38.2515 18.4607 37.9162 18.4607 37.5019V35.549C18.4607 35.1347 18.1254 34.7988 17.7111 34.7988V34.7988Z" fill="black"/>
<path d="M22.133 34.7988C21.7187 34.7988 21.3828 35.1347 21.3828 35.549V37.5019C21.3828 37.9162 21.7187 38.2515 22.133 38.2515C22.5472 38.2515 22.8831 37.9162 22.8831 37.5019V35.549C22.8831 35.1347 22.5472 34.7988 22.133 34.7988V34.7988Z" fill="black"/>
<path d="M17.7111 40.3486C17.2968 40.3486 16.9609 40.6839 16.9609 41.0988V43.0506C16.9609 43.4649 17.2968 43.8007 17.7111 43.8007C18.1254 43.8007 18.4607 43.4649 18.4607 43.0506V41.0988C18.4607 40.6839 18.1254 40.3486 17.7111 40.3486Z" fill="black"/>
<path d="M22.133 40.3486C21.7187 40.3486 21.3828 40.6839 21.3828 41.0988V43.0506C21.3828 43.4649 21.7187 43.8007 22.133 43.8007C22.5472 43.8007 22.8831 43.4649 22.8831 43.0506V41.0988C22.8831 40.6839 22.5472 40.3486 22.133 40.3486Z" fill="black"/>
<path d="M17.7111 45.8975C17.2968 45.8975 16.9609 46.2333 16.9609 46.6476V48.5994C16.9609 49.0143 17.2968 49.3496 17.7111 49.3496C18.1254 49.3496 18.4607 49.0143 18.4607 48.5994V46.6476C18.4607 46.2333 18.1254 45.8975 17.7111 45.8975V45.8975Z" fill="black"/>
<path d="M22.133 45.8975C21.7187 45.8975 21.3828 46.2333 21.3828 46.6476V48.5994C21.3828 49.0143 21.7187 49.3496 22.133 49.3496C22.5472 49.3496 22.8831 49.0143 22.8831 48.5994V46.6476C22.8831 46.2333 22.5472 45.8975 22.133 45.8975V45.8975Z" fill="black"/>
<path d="M17.7111 51.4473C17.2968 51.4473 16.9609 51.7826 16.9609 52.1969V54.1498C16.9609 54.5641 17.2968 54.8999 17.7111 54.8999C18.1254 54.8999 18.4607 54.5641 18.4607 54.1498V52.1969C18.4607 51.7826 18.1254 51.4473 17.7111 51.4473Z" fill="black"/>
<path d="M22.133 51.4473C21.7187 51.4473 21.3828 51.7826 21.3828 52.1969V54.1498C21.3828 54.5641 21.7187 54.8999 22.133 54.8999C22.5472 54.8999 22.8831 54.5641 22.8831 54.1498V52.1969C22.8831 51.7826 22.5472 51.4473 22.133 51.4473Z" fill="black"/>
<path d="M31.9293 40.7986H42.6581C43.0724 40.7986 43.4077 40.4633 43.4077 40.0484C43.4077 39.6341 43.0724 39.2988 42.6581 39.2988H31.9293C31.515 39.2988 31.1797 39.6341 31.1797 40.0484C31.1797 40.4633 31.515 40.7986 31.9293 40.7986Z" fill="black"/>
<path d="M31.9293 45.2986H42.6581C43.0724 45.2986 43.4077 44.9633 43.4077 44.549C43.4077 44.1341 43.0724 43.7988 42.6581 43.7988H31.9293C31.515 43.7988 31.1797 44.1341 31.1797 44.549C31.1797 44.9633 31.515 45.2986 31.9293 45.2986Z" fill="black"/>
<path d="M31.9293 27.2253H42.6581C43.0724 27.2253 43.4077 26.89 43.4077 26.4752C43.4077 26.0609 43.0724 25.7256 42.6581 25.7256H31.9293C31.515 25.7256 31.1797 26.0609 31.1797 26.4752C31.1797 26.89 31.515 27.2253 31.9293 27.2253Z" fill="black"/>
<path d="M31.9293 31.7253H42.6581C43.0724 31.7253 43.4077 31.39 43.4077 30.9757C43.4077 30.5609 43.0724 30.2256 42.6581 30.2256H31.9293C31.515 30.2256 31.1797 30.5609 31.1797 30.9757C31.1797 31.39 31.515 31.7253 31.9293 31.7253Z" fill="black"/>
<path d="M60.0002 42.3523C60.0002 39.9582 58.0524 38.0104 55.6589 38.0104C53.2654 38.0104 51.3176 39.9582 51.3176 42.3523C51.3176 43.9945 52.2354 45.4268 53.5841 46.1643C52.2354 46.9013 51.3176 48.3335 51.3176 49.9763C51.3176 52.1135 52.8723 53.8908 54.9088 54.2479V58.4999H48.1316V10.7815C48.1316 10.5291 48.0051 10.2951 47.7951 10.1555C47.5851 10.0159 47.3185 9.99241 47.0879 10.0914L36.3968 14.6364V7.96852C36.3968 7.55424 36.0609 7.21893 35.6472 7.21893H28.5816V0.75016C28.5816 0.335312 28.2457 0 27.8315 0C27.4178 0 27.0819 0.335312 27.0819 0.75016V7.21893H19.772C19.3577 7.21893 19.0224 7.55424 19.0224 7.96852V24.1407H12.6183C12.2046 24.1407 11.8687 24.4761 11.8687 24.8909V58.4999H5.0909V54.2479C7.12795 53.8908 8.68206 52.1135 8.68206 49.9763C8.68206 48.3335 7.76482 46.9013 6.41556 46.1643C7.76482 45.4268 8.68206 43.9945 8.68206 42.3523C8.68206 39.9582 6.73485 38.0104 4.34132 38.0104C1.94778 38.0104 0 39.9582 0 42.3523C0 43.9945 0.917244 45.4268 2.2665 46.1643C0.917244 46.9013 0 48.3335 0 49.9763C0 52.1135 1.55411 53.8908 3.59116 54.2479V58.4999H0.75016C0.335884 58.4999 0 58.8352 0 59.2501C0 59.6643 0.335884 60.0002 0.75016 60.0002H59.2501C59.6643 60.0002 60.0002 59.6643 60.0002 59.2501C60.0002 58.8352 59.6643 58.4999 59.2501 58.4999H56.4091V54.2479C58.4455 53.8908 60.0002 52.1135 60.0002 49.9763C60.0002 48.3335 59.0824 46.9013 57.7337 46.1643C59.0824 45.4268 60.0002 43.9945 60.0002 42.3523V42.3523ZM4.34132 39.5107C5.90744 39.5107 7.18231 40.7856 7.18231 42.3523C7.18231 43.919 5.90744 45.1933 4.34132 45.1933C2.77462 45.1933 1.49975 43.919 1.49975 42.3523C1.49975 40.7856 2.77462 39.5107 4.34132 39.5107ZM1.49975 49.9763C1.49975 48.4097 2.77462 47.1348 4.34132 47.1348C5.90744 47.1348 7.18231 48.4097 7.18231 49.9763C7.18231 51.5425 5.90744 52.8173 4.34132 52.8173C2.77462 52.8173 1.49975 51.5425 1.49975 49.9763ZM46.6312 58.4999H42.3986V50.964C42.3986 50.5497 42.0628 50.2144 41.6485 50.2144H32.939C32.5247 50.2144 32.1888 50.5497 32.1888 50.964V58.4999H27.9556V19.8544L46.6312 11.915V58.4999ZM40.8983 58.4999H33.6891V51.7141H40.8983V58.4999ZM34.897 8.71868V14.4373H20.5221V8.71868H34.897ZM20.5221 15.9376H33.3366L26.9119 18.6687C26.635 18.786 26.4553 19.0578 26.4553 19.3588V24.1407H20.5221V15.9376ZM13.3684 25.6405H26.4553V58.4999H13.3684V25.6405ZM55.6589 52.8173C54.0922 52.8173 52.8179 51.5425 52.8179 49.9763C52.8179 48.4097 54.0922 47.1348 55.6589 47.1348C57.2256 47.1348 58.4999 48.4097 58.4999 49.9763C58.4999 51.5425 57.2256 52.8173 55.6589 52.8173V52.8173ZM55.6589 45.1933C54.0922 45.1933 52.8179 43.919 52.8179 42.3523C52.8179 40.7856 54.0922 39.5107 55.6589 39.5107C57.2256 39.5107 58.4999 40.7856 58.4999 42.3523C58.4999 43.919 57.2256 45.1933 55.6589 45.1933V45.1933Z" fill="black"/>
</g>
<defs>
<clipPath id="clip0_44_44">
<rect width="60" height="60" fill="white"/>
</clipPath>
</defs>
</svg>
