<svg width="49" height="49" viewBox="0 0 49 49" fill="none" xmlns="http://www.w3.org/2000/svg">
<path d="M1 46.001C0.447266 46.001 0 46.4482 0 47.001C0 47.5537 0.447266 48.001 1 48.001H4.27063C4.27576 48.001 4.28003 48.0039 4.28516 48.0039H43.7188C43.7239 48.0039 43.7281 48.001 43.7333 48.001H47C47.5527 48.001 48 47.5537 48 47.001C48 46.4482 47.5527 46.001 47 46.001H44.7188V17.1641H47.0039C47.5566 17.1641 48.0039 16.7168 48.0039 16.1641V11.1094V6.05469V1C48.0039 0.447266 47.5566 0 47.0039 0H1C0.447266 0 0 0.447266 0 1V6.05469V11.1094V16.1641C0 16.7168 0.447266 17.1641 1 17.1641H3.28516V46.001H1V46.001ZM22.1689 46.001H9.84473V25.6162H22.1689V46.001ZM42.7188 46.001H24.1689V24.6162C24.1689 24.0635 23.7217 23.6162 23.1689 23.6162H8.84473C8.29199 23.6162 7.84473 24.0635 7.84473 24.6162V46.001H5.28516V17.1641H42.7188V46.001ZM2 2H46.0039V5.05469H2V2ZM2 7.05469H46.0039V10.1094H2V7.05469ZM2 15.1641V12.1094H46.0039V15.1641H2Z" fill="black"/>
<path d="M27.1982 38.7881H39.1592C39.7119 38.7881 40.1592 38.3408 40.1592 37.7881V24.6162C40.1592 24.0635 39.7119 23.6162 39.1592 23.6162H27.1982C26.6455 23.6162 26.1982 24.0635 26.1982 24.6162V37.7881C26.1982 38.3408 26.6455 38.7881 27.1982 38.7881ZM28.1982 25.6162H38.1592V36.7881H28.1982V25.6162Z" fill="black"/>
</svg>
