<svg width="44" height="44" viewBox="0 0 44 44" fill="none" xmlns="http://www.w3.org/2000/svg">
<path d="M43.2724 18.1841L25.8694 13.6334V0.913757C25.8694 0.428162 25.4761 0.0351562 24.9909 0.0351562H0.87854C0.393372 0.0351562 0 0.428162 0 0.913757V43.0853C0 43.571 0.393372 43.9639 0.87854 43.9639H8.90802H16.9614H24.9909H43.0502C43.5353 43.9639 43.9287 43.571 43.9287 43.0853V19.0344C43.9287 18.6345 43.6589 18.2853 43.2724 18.1841V18.1841ZM1.75714 1.79236H24.1123V14.312V42.2068H17.84V33.4948C17.84 33.0092 17.4467 32.6163 16.9614 32.6163H8.90802C8.42279 32.6163 8.02942 33.0092 8.02942 33.4948V42.2068H1.75714V1.79236ZM9.78656 42.2068V34.3734H16.0829V42.2068H9.78656ZM42.1716 42.2068H25.8694V15.4497L42.1716 19.713V42.2068Z" fill="black"/>
<path d="M29.2125 25.0745H38.8284C39.3136 25.0745 39.707 24.6816 39.707 24.1959C39.707 23.7103 39.3136 23.3174 38.8284 23.3174H29.2125C28.7274 23.3174 28.334 23.7103 28.334 24.1959C28.334 24.6816 28.7274 25.0745 29.2125 25.0745V25.0745Z" fill="black"/>
<path d="M29.2125 31.3715H38.8284C39.3136 31.3715 39.707 30.9785 39.707 30.4929C39.707 30.0073 39.3136 29.6143 38.8284 29.6143H29.2125C28.7274 29.6143 28.334 30.0073 28.334 30.4929C28.334 30.9785 28.7274 31.3715 29.2125 31.3715V31.3715Z" fill="black"/>
<path d="M29.2125 37.6673H38.8284C39.3136 37.6673 39.707 37.2744 39.707 36.7888C39.707 36.3031 39.3136 35.9102 38.8284 35.9102H29.2125C28.7274 35.9102 28.334 36.3031 28.334 36.7888C28.334 37.2744 28.7274 37.6673 29.2125 37.6673V37.6673Z" fill="black"/>
<path d="M5.35712 7.72198H20.5125C20.9977 7.72198 21.3911 7.32904 21.3911 6.84338C21.3911 6.35779 20.9977 5.96484 20.5125 5.96484H5.35712C4.87189 5.96484 4.47852 6.35779 4.47852 6.84338C4.47852 7.32904 4.87189 7.72198 5.35712 7.72198V7.72198Z" fill="black"/>
<path d="M5.35712 14.6302H20.5125C20.9977 14.6302 21.3911 14.2372 21.3911 13.7516C21.3911 13.266 20.9977 12.873 20.5125 12.873H5.35712C4.87189 12.873 4.47852 13.266 4.47852 13.7516C4.47852 14.2372 4.87189 14.6302 5.35712 14.6302V14.6302Z" fill="black"/>
<path d="M5.35712 21.5364H20.5125C20.9977 21.5364 21.3911 21.1435 21.3911 20.6578C21.3911 20.1722 20.9977 19.7793 20.5125 19.7793H5.35712C4.87189 19.7793 4.47852 20.1722 4.47852 20.6578C4.47852 21.1435 4.87189 21.5364 5.35712 21.5364V21.5364Z" fill="black"/>
<path d="M20.5125 28.4427C20.9977 28.4427 21.3911 28.0497 21.3911 27.5641C21.3911 27.0785 20.9977 26.6855 20.5125 26.6855H5.35712C4.87189 26.6855 4.47852 27.0785 4.47852 27.5641C4.47852 28.0497 4.87189 28.4427 5.35712 28.4427H20.5125Z" fill="black"/>
</svg>
