<svg width="982" height="971" viewBox="0 0 982 971" fill="none" xmlns="http://www.w3.org/2000/svg">
<g filter="url(#filter0_ddii_1736_3801)">
<path d="M483.252 286.178L371.051 336.045V410.846C371.051 480.037 418.923 544.739 483.252 560.448C547.581 544.739 595.453 480.037 595.453 410.846V336.045L483.252 286.178Z" fill="url(#paint0_linear_1736_3801)"/>
</g>
<g filter="url(#filter1_ddii_1736_3801)">
<path d="M482.958 305.025L386.365 347.861V412.113C386.365 471.547 427.578 527.126 482.958 540.619C538.338 527.126 579.551 471.547 579.551 412.113V347.861L482.958 305.025Z" fill="url(#paint1_linear_1736_3801)"/>
</g>
<path d="M444.65 406.343C447.037 406.343 449.111 406.745 450.87 407.549C452.629 408.328 453.986 409.459 454.941 410.941C455.896 412.399 456.373 414.12 456.373 416.106C456.373 418.091 455.896 419.812 454.941 421.27C453.986 422.727 452.629 423.858 450.87 424.662C449.111 425.441 447.037 425.831 444.65 425.831H440.051V432.729H432.588V406.343H444.65ZM444.198 419.95C445.731 419.95 446.887 419.624 447.666 418.97C448.445 418.292 448.834 417.337 448.834 416.106C448.834 414.874 448.445 413.919 447.666 413.241C446.887 412.562 445.731 412.223 444.198 412.223H440.051V419.95H444.198ZM469.653 433.257C467.517 433.257 465.444 432.993 463.434 432.465C461.423 431.937 459.79 431.234 458.533 430.354L460.983 424.851C462.165 425.63 463.534 426.258 465.092 426.736C466.65 427.213 468.183 427.452 469.691 427.452C472.556 427.452 473.988 426.736 473.988 425.303C473.988 424.549 473.574 423.996 472.744 423.645C471.94 423.268 470.633 422.878 468.824 422.476C466.839 422.049 465.18 421.596 463.848 421.119C462.516 420.616 461.373 419.825 460.418 418.744C459.463 417.664 458.986 416.206 458.986 414.372C458.986 412.763 459.425 411.318 460.305 410.037C461.185 408.73 462.491 407.7 464.225 406.946C465.984 406.192 468.133 405.815 470.671 405.815C472.405 405.815 474.114 406.016 475.798 406.418C477.481 406.795 478.964 407.36 480.246 408.114L477.946 413.655C475.433 412.298 472.996 411.62 470.633 411.62C469.151 411.62 468.07 411.846 467.392 412.298C466.713 412.726 466.374 413.291 466.374 413.995C466.374 414.698 466.776 415.226 467.58 415.578C468.384 415.93 469.678 416.294 471.463 416.671C473.473 417.098 475.132 417.563 476.438 418.066C477.77 418.543 478.914 419.322 479.869 420.403C480.849 421.458 481.339 422.903 481.339 424.738C481.339 426.321 480.899 427.753 480.019 429.035C479.14 430.317 477.821 431.347 476.061 432.126C474.302 432.88 472.166 433.257 469.653 433.257ZM484.786 406.343H497.263C500.153 406.343 502.717 406.883 504.953 407.963C507.19 409.044 508.924 410.577 510.155 412.562C511.386 414.547 512.002 416.872 512.002 419.536C512.002 422.2 511.386 424.524 510.155 426.509C508.924 428.495 507.19 430.028 504.953 431.108C502.717 432.189 500.153 432.729 497.263 432.729H484.786V406.343ZM496.962 426.773C499.224 426.773 501.033 426.132 502.39 424.851C503.772 423.569 504.463 421.797 504.463 419.536C504.463 417.274 503.772 415.502 502.39 414.221C501.033 412.939 499.224 412.298 496.962 412.298H492.25V426.773H496.962ZM534.597 426.811V432.729H514.053V428.055L523.929 418.82C524.884 417.915 525.525 417.148 525.851 416.52C526.178 415.867 526.341 415.213 526.341 414.56C526.341 413.706 526.052 413.04 525.474 412.562C524.897 412.085 524.055 411.846 522.949 411.846C521.969 411.846 521.064 412.072 520.235 412.525C519.431 412.952 518.765 413.58 518.237 414.409L512.696 411.318C513.726 409.609 515.171 408.265 517.031 407.285C518.89 406.305 521.089 405.815 523.627 405.815C525.638 405.815 527.41 406.142 528.942 406.795C530.5 407.448 531.707 408.391 532.561 409.622C533.441 410.828 533.88 412.236 533.88 413.844C533.88 415.276 533.566 416.633 532.938 417.915C532.335 419.171 531.154 420.604 529.395 422.212L524.419 426.811H534.597Z" fill="white"/>
<g filter="url(#filter2_f_1736_3801)">
<circle cx="361.627" cy="485.254" r="9.42373" fill="url(#paint2_radial_1736_3801)" fill-opacity="0.5"/>
</g>
<g filter="url(#filter3_f_1736_3801)">
<circle cx="361.627" cy="485.254" r="3.5339" fill="#00F1FF"/>
<circle cx="361.627" cy="485.254" r="3.5339" fill="url(#paint3_linear_1736_3801)" fill-opacity="0.75"/>
</g>
<g filter="url(#filter4_f_1736_3801)">
<circle cx="508.873" cy="263.797" r="9.42373" fill="url(#paint4_radial_1736_3801)" fill-opacity="0.5"/>
</g>
<g filter="url(#filter5_f_1736_3801)">
<circle cx="508.873" cy="263.797" r="3.5339" fill="#00F1FF"/>
<circle cx="508.873" cy="263.797" r="3.5339" fill="url(#paint5_linear_1736_3801)" fill-opacity="0.75"/>
</g>
<g filter="url(#filter6_dd_1736_3801)">
<g filter="url(#filter7_bii_1736_3801)">
<rect x="242.653" y="177.805" width="67.1441" height="67.1441" rx="4.63063" fill="#04093E"/>
</g>
<path d="M275.243 196.26L286.705 199.841C287.025 199.941 287.304 200.14 287.503 200.41C287.701 200.68 287.808 201.006 287.808 201.341V204.113H290.949C291.366 204.113 291.765 204.278 292.06 204.573C292.354 204.867 292.52 205.267 292.52 205.683V208.825H272.102V205.683C272.102 205.267 272.267 204.867 272.562 204.573C272.856 204.278 273.256 204.113 273.672 204.113H284.667V202.495L275.243 199.549L265.819 202.495V214.124C265.819 215.086 266.04 216.034 266.464 216.897C266.888 217.76 267.505 218.514 268.266 219.101L268.563 219.315L275.243 223.871L281.183 219.819H273.672C273.256 219.819 272.856 219.654 272.562 219.359C272.267 219.065 272.102 218.665 272.102 218.248V211.966H292.52V218.248C292.52 218.665 292.354 219.065 292.06 219.359C291.765 219.654 291.366 219.819 290.949 219.819L285.892 219.821C285.284 220.622 284.546 221.328 283.693 221.91L275.243 227.672L266.793 221.911C265.525 221.046 264.487 219.885 263.77 218.528C263.053 217.171 262.678 215.659 262.678 214.124V201.341C262.678 201.006 262.785 200.68 262.984 200.411C263.182 200.141 263.461 199.942 263.781 199.842L275.243 196.26Z" fill="url(#paint6_radial_1736_3801)"/>
<g filter="url(#filter8_f_1736_3801)">
<path d="M305.807 212.555L309.208 215.956L312.608 212.555L309.208 209.155L305.807 212.555ZM397.555 212.555L398.086 212.3C397.988 212.096 397.781 211.966 397.555 211.966V212.555ZM442.613 306.324L444.205 301.786L439.667 300.194L438.075 304.731L442.613 306.324ZM309.208 213.144H397.555V211.966H309.208V213.144ZM397.024 212.81L440.609 303.514L441.671 303.003L398.086 212.3L397.024 212.81Z" fill="#00F1FF"/>
</g>
<g filter="url(#filter9_f_1736_3801)">
<path d="M693.091 212.555L689.691 215.956L686.29 212.555L689.691 209.155L693.091 212.555ZM601.343 212.555L600.813 212.299C600.911 212.096 601.117 211.966 601.343 211.966V212.555ZM552.748 313.39L551.161 308.85L555.701 307.263L557.288 311.803L552.748 313.39ZM689.691 213.144H601.343V211.966H689.691V213.144ZM601.874 212.811L554.755 310.582L553.694 310.071L600.813 212.299L601.874 212.811Z" fill="#00F1FF"/>
</g>
</g>
<g filter="url(#filter10_bii_1736_3801)">
<rect x="226.161" y="374.525" width="67.1441" height="67.1441" rx="4.63063" fill="#04093E"/>
</g>
<path d="M245.332 415.391C244.264 415.391 243.227 415.259 242.222 414.995C241.217 414.731 240.4 414.379 239.772 413.94L240.997 411.188C241.588 411.577 242.273 411.891 243.052 412.13C243.831 412.369 244.597 412.488 245.351 412.488C246.783 412.488 247.5 412.13 247.5 411.414C247.5 411.037 247.292 410.761 246.878 410.585C246.476 410.396 245.822 410.201 244.917 410C243.925 409.787 243.096 409.561 242.43 409.322C241.764 409.071 241.192 408.675 240.715 408.135C240.237 407.594 239.998 406.865 239.998 405.948C239.998 405.144 240.218 404.422 240.658 403.781C241.098 403.127 241.751 402.612 242.618 402.235C243.498 401.858 244.572 401.67 245.841 401.67C246.708 401.67 247.562 401.77 248.404 401.971C249.246 402.16 249.987 402.443 250.628 402.82L249.479 405.59C248.222 404.912 247.003 404.572 245.822 404.572C245.081 404.572 244.541 404.685 244.201 404.912C243.862 405.125 243.692 405.408 243.692 405.76C243.692 406.112 243.893 406.375 244.296 406.551C244.698 406.727 245.345 406.909 246.237 407.098C247.242 407.312 248.071 407.544 248.725 407.795C249.391 408.034 249.962 408.424 250.44 408.964C250.93 409.492 251.175 410.214 251.175 411.131C251.175 411.923 250.955 412.639 250.515 413.28C250.075 413.921 249.416 414.436 248.536 414.825C247.657 415.202 246.589 415.391 245.332 415.391ZM259.476 415.391C258.094 415.391 256.85 415.102 255.745 414.524C254.651 413.933 253.791 413.117 253.163 412.074C252.534 411.031 252.22 409.85 252.22 408.53C252.22 407.211 252.534 406.03 253.163 404.987C253.791 403.944 254.651 403.134 255.745 402.556C256.85 401.965 258.094 401.67 259.476 401.67C260.683 401.67 261.77 401.883 262.737 402.311C263.705 402.738 264.509 403.354 265.149 404.158L262.775 406.306C261.92 405.276 260.884 404.761 259.665 404.761C258.949 404.761 258.308 404.918 257.742 405.232C257.19 405.546 256.756 405.992 256.442 406.57C256.14 407.136 255.99 407.789 255.99 408.53C255.99 409.272 256.14 409.931 256.442 410.509C256.756 411.075 257.19 411.515 257.742 411.829C258.308 412.143 258.949 412.3 259.665 412.3C260.884 412.3 261.92 411.785 262.775 410.754L265.149 412.903C264.509 413.707 263.705 414.323 262.737 414.75C261.77 415.177 260.683 415.391 259.476 415.391ZM275.432 412.564H269.853L268.817 415.127H265.009L270.833 401.934H274.508L280.351 415.127H276.469L275.432 412.564ZM274.339 409.812L272.643 405.59L270.946 409.812H274.339Z" fill="white"/>
<path d="M245.332 415.391C244.264 415.391 243.227 415.259 242.222 414.995C241.217 414.731 240.4 414.379 239.772 413.94L240.997 411.188C241.588 411.577 242.273 411.891 243.052 412.13C243.831 412.369 244.597 412.488 245.351 412.488C246.783 412.488 247.5 412.13 247.5 411.414C247.5 411.037 247.292 410.761 246.878 410.585C246.476 410.396 245.822 410.201 244.917 410C243.925 409.787 243.096 409.561 242.43 409.322C241.764 409.071 241.192 408.675 240.715 408.135C240.237 407.594 239.998 406.865 239.998 405.948C239.998 405.144 240.218 404.422 240.658 403.781C241.098 403.127 241.751 402.612 242.618 402.235C243.498 401.858 244.572 401.67 245.841 401.67C246.708 401.67 247.562 401.77 248.404 401.971C249.246 402.16 249.987 402.443 250.628 402.82L249.479 405.59C248.222 404.912 247.003 404.572 245.822 404.572C245.081 404.572 244.541 404.685 244.201 404.912C243.862 405.125 243.692 405.408 243.692 405.76C243.692 406.112 243.893 406.375 244.296 406.551C244.698 406.727 245.345 406.909 246.237 407.098C247.242 407.312 248.071 407.544 248.725 407.795C249.391 408.034 249.962 408.424 250.44 408.964C250.93 409.492 251.175 410.214 251.175 411.131C251.175 411.923 250.955 412.639 250.515 413.28C250.075 413.921 249.416 414.436 248.536 414.825C247.657 415.202 246.589 415.391 245.332 415.391ZM259.476 415.391C258.094 415.391 256.85 415.102 255.745 414.524C254.651 413.933 253.791 413.117 253.163 412.074C252.534 411.031 252.22 409.85 252.22 408.53C252.22 407.211 252.534 406.03 253.163 404.987C253.791 403.944 254.651 403.134 255.745 402.556C256.85 401.965 258.094 401.67 259.476 401.67C260.683 401.67 261.77 401.883 262.737 402.311C263.705 402.738 264.509 403.354 265.149 404.158L262.775 406.306C261.92 405.276 260.884 404.761 259.665 404.761C258.949 404.761 258.308 404.918 257.742 405.232C257.19 405.546 256.756 405.992 256.442 406.57C256.14 407.136 255.99 407.789 255.99 408.53C255.99 409.272 256.14 409.931 256.442 410.509C256.756 411.075 257.19 411.515 257.742 411.829C258.308 412.143 258.949 412.3 259.665 412.3C260.884 412.3 261.92 411.785 262.775 410.754L265.149 412.903C264.509 413.707 263.705 414.323 262.737 414.75C261.77 415.177 260.683 415.391 259.476 415.391ZM275.432 412.564H269.853L268.817 415.127H265.009L270.833 401.934H274.508L280.351 415.127H276.469L275.432 412.564ZM274.339 409.812L272.643 405.59L270.946 409.812H274.339Z" fill="url(#paint7_radial_1736_3801)"/>
<g filter="url(#filter11_f_1736_3801)">
<path d="M289.316 406.331L292.716 409.731L296.117 406.331L292.716 402.93L289.316 406.331ZM373.273 406.331L369.873 402.93L366.472 406.331L369.873 409.731L373.273 406.331ZM292.716 406.92H369.873V405.742H292.716V406.92Z" fill="#00F1FF"/>
</g>
<g filter="url(#filter12_f_1736_3801)">
<path d="M594.409 408.687L597.809 412.087L601.21 408.687L597.809 405.286L594.409 408.687ZM678.367 408.687L674.966 405.286L671.566 408.687L674.966 412.087L678.367 408.687ZM597.809 409.276H674.966V408.098H597.809V409.276Z" fill="#00F1FF"/>
</g>
<g filter="url(#filter13_dd_1736_3801)">
<g filter="url(#filter14_bii_1736_3801)">
<rect x="672.61" y="375.115" width="67.1441" height="67.1441" rx="4.63063" fill="#04093E"/>
</g>
<path d="M689.944 405.483H685.892V402.524H697.709V405.483H693.676V415.717H689.944V405.483ZM704.867 412.211H702.831V415.717H699.099V402.524H705.13C706.324 402.524 707.361 402.725 708.24 403.127C709.12 403.516 709.798 404.082 710.276 404.823C710.753 405.552 710.992 406.412 710.992 407.405C710.992 408.36 710.766 409.196 710.314 409.912C709.874 410.615 709.239 411.168 708.41 411.57L711.256 415.717H707.26L704.867 412.211ZM707.223 407.405C707.223 406.789 707.028 406.312 706.638 405.973C706.249 405.633 705.671 405.464 704.904 405.464H702.831V409.328H704.904C705.671 409.328 706.249 409.164 706.638 408.837C707.028 408.498 707.223 408.021 707.223 407.405ZM721.89 413.154H716.311L715.275 415.717H711.468L717.291 402.524H720.967L726.809 415.717H722.927L721.89 413.154ZM720.797 410.402L719.101 406.18L717.405 410.402H720.797Z" fill="white"/>
<path d="M689.944 405.483H685.892V402.524H697.709V405.483H693.676V415.717H689.944V405.483ZM704.867 412.211H702.831V415.717H699.099V402.524H705.13C706.324 402.524 707.361 402.725 708.24 403.127C709.12 403.516 709.798 404.082 710.276 404.823C710.753 405.552 710.992 406.412 710.992 407.405C710.992 408.36 710.766 409.196 710.314 409.912C709.874 410.615 709.239 411.168 708.41 411.57L711.256 415.717H707.26L704.867 412.211ZM707.223 407.405C707.223 406.789 707.028 406.312 706.638 405.973C706.249 405.633 705.671 405.464 704.904 405.464H702.831V409.328H704.904C705.671 409.328 706.249 409.164 706.638 408.837C707.028 408.498 707.223 408.021 707.223 407.405ZM721.89 413.154H716.311L715.275 415.717H711.468L717.291 402.524H720.967L726.809 415.717H722.927L721.89 413.154ZM720.797 410.402L719.101 406.18L717.405 410.402H720.797Z" fill="url(#paint8_radial_1736_3801)"/>
</g>
<g filter="url(#filter15_bii_1736_3801)">
<rect x="226.161" y="589.504" width="67.1441" height="67.1441" rx="4.63063" fill="#04093E"/>
</g>
<path d="M247.515 616.913H253.754C255.199 616.913 256.48 617.183 257.598 617.723C258.717 618.263 259.584 619.03 260.199 620.023C260.815 621.015 261.123 622.177 261.123 623.509C261.123 624.841 260.815 626.003 260.199 626.996C259.584 627.989 258.717 628.755 257.598 629.296C256.48 629.836 255.199 630.106 253.754 630.106H247.515V616.913ZM253.603 627.128C254.734 627.128 255.638 626.808 256.317 626.167C257.008 625.526 257.353 624.64 257.353 623.509C257.353 622.378 257.008 621.493 256.317 620.852C255.638 620.211 254.734 619.891 253.603 619.891H251.247V627.128H253.603ZM263.086 616.913H266.818V627.147H273.113V630.106H263.086V616.913Z" fill="white"/>
<path d="M247.515 616.913H253.754C255.199 616.913 256.48 617.183 257.598 617.723C258.717 618.263 259.584 619.03 260.199 620.023C260.815 621.015 261.123 622.177 261.123 623.509C261.123 624.841 260.815 626.003 260.199 626.996C259.584 627.989 258.717 628.755 257.598 629.296C256.48 629.836 255.199 630.106 253.754 630.106H247.515V616.913ZM253.603 627.128C254.734 627.128 255.638 626.808 256.317 626.167C257.008 625.526 257.353 624.64 257.353 623.509C257.353 622.378 257.008 621.493 256.317 620.852C255.638 620.211 254.734 619.891 253.603 619.891H251.247V627.128H253.603ZM263.086 616.913H266.818V627.147H273.113V630.106H263.086V616.913Z" fill="url(#paint9_radial_1736_3801)"/>
<g filter="url(#filter16_f_1736_3801)">
<path d="M289.316 623.665L292.716 627.066L296.117 623.665L292.716 620.265L289.316 623.665ZM381.652 623.665V624.254C381.881 624.254 382.088 624.122 382.185 623.916L381.652 623.665ZM426.689 528.12L422.162 529.743L423.786 534.27L428.312 532.646L426.689 528.12ZM402.856 578.608L402.323 578.357L402.323 578.357L402.856 578.608ZM292.716 624.254H381.652V623.076H292.716V624.254ZM382.185 623.916L403.389 578.859L402.323 578.357L381.12 623.414L382.185 623.916ZM403.389 578.859L425.77 531.446L424.705 530.943L402.323 578.357L403.389 578.859Z" fill="#00F1FF"/>
</g>
<g filter="url(#filter17_f_1736_3801)">
<path d="M676.011 623.665L672.61 627.066L669.21 623.665L672.61 620.265L676.011 623.665ZM583.674 623.665V624.254C583.446 624.254 583.238 624.122 583.141 623.916L583.674 623.665ZM538.637 528.12L543.164 529.743L541.541 534.27L537.014 532.646L538.637 528.12ZM562.47 578.608L563.003 578.357L563.003 578.357L562.47 578.608ZM672.61 624.254H583.674V623.076H672.61V624.254ZM583.141 623.916L561.937 578.859L563.003 578.357L584.207 623.414L583.141 623.916ZM561.938 578.859L539.556 531.446L540.622 530.943L563.003 578.357L561.938 578.859Z" fill="#00F1FF"/>
</g>
<g filter="url(#filter18_f_1736_3801)">
<path d="M305.807 212.555L309.208 215.956L312.608 212.555L309.208 209.155L305.807 212.555ZM397.555 212.555L398.086 212.3C397.988 212.096 397.781 211.966 397.555 211.966V212.555ZM442.613 306.324L444.205 301.786L439.667 300.194L438.075 304.731L442.613 306.324ZM309.208 213.144H397.555V211.966H309.208V213.144ZM397.024 212.81L440.609 303.514L441.671 303.003L398.086 212.3L397.024 212.81Z" fill="#00F1FF"/>
</g>
<g filter="url(#filter19_f_1736_3801)">
<path d="M693.091 212.555L689.691 215.956L686.29 212.555L689.691 209.155L693.091 212.555ZM601.343 212.555L600.812 212.301C600.91 212.096 601.117 211.966 601.343 211.966V212.555ZM551.576 316.337L549.98 311.801L554.517 310.205L556.113 314.742L551.576 316.337ZM689.691 213.144H601.343V211.966H689.691V213.144ZM601.874 212.81L553.578 313.526L552.516 313.017L600.812 212.301L601.874 212.81Z" fill="#00F1FF"/>
</g>
<g filter="url(#filter20_f_1736_3801)">
<path d="M289.316 406.331L292.716 409.731L296.117 406.331L292.716 402.93L289.316 406.331ZM373.273 406.331L369.873 402.93L366.472 406.331L369.873 409.731L373.273 406.331ZM292.716 406.92H369.873V405.742H292.716V406.92Z" fill="#00F1FF"/>
</g>
<g filter="url(#filter21_f_1736_3801)">
<path d="M594.409 408.687L597.809 412.087L601.21 408.687L597.809 405.286L594.409 408.687ZM678.367 408.687L674.966 405.286L671.566 408.687L674.966 412.087L678.367 408.687ZM597.809 409.276H674.966V408.098H597.809V409.276Z" fill="#00F1FF"/>
</g>
<g filter="url(#filter22_f_1736_3801)">
<path d="M289.316 623.665L292.716 627.066L296.117 623.665L292.716 620.265L289.316 623.665ZM381.652 623.665V624.254C381.881 624.254 382.088 624.122 382.185 623.916L381.652 623.665ZM426.689 528.12L422.162 529.743L423.786 534.27L428.312 532.646L426.689 528.12ZM402.856 578.608L402.323 578.357L402.323 578.357L402.856 578.608ZM292.716 624.254H381.652V623.076H292.716V624.254ZM382.185 623.916L403.389 578.859L402.323 578.357L381.12 623.414L382.185 623.916ZM403.389 578.859L425.77 531.446L424.705 530.943L402.323 578.357L403.389 578.859Z" fill="#00F1FF"/>
</g>
<g filter="url(#filter23_f_1736_3801)">
<path d="M676.011 623.665L672.61 627.066L669.21 623.665L672.61 620.265L676.011 623.665ZM583.674 623.665V624.254C583.446 624.254 583.238 624.122 583.141 623.916L583.674 623.665ZM538.637 528.12L543.164 529.743L541.541 534.27L537.014 532.646L538.637 528.12ZM562.47 578.608L563.003 578.357L563.003 578.357L562.47 578.608ZM672.61 624.254H583.674V623.076H672.61V624.254ZM583.141 623.916L561.937 578.859L563.003 578.357L584.207 623.414L583.141 623.916ZM561.938 578.859L539.556 531.446L540.622 530.943L563.003 578.357L561.938 578.859Z" fill="#00F1FF"/>
</g>
<g filter="url(#filter24_dd_1736_3801)">
<g filter="url(#filter25_bii_1736_3801)">
<path d="M672.61 602.381C672.61 599.823 674.683 597.75 677.241 597.75H735.124C737.681 597.75 739.754 599.823 739.754 602.381V660.263C739.754 662.821 737.681 664.894 735.124 664.894H677.241C674.683 664.894 672.61 662.821 672.61 660.263V602.381Z" fill="#04093E"/>
</g>
<g clip-path="url(#clip0_1736_3801)">
<path d="M695.09 618.905H718.453C718.72 618.905 718.943 619.128 718.943 619.395V624.402C718.943 624.669 718.72 624.893 718.453 624.893H695.09C694.822 624.893 694.599 624.669 694.599 624.402V619.395C694.599 619.128 694.822 618.905 695.09 618.905Z" stroke="black" stroke-width="2.35593"/>
<path d="M695.09 618.905H718.453C718.72 618.905 718.943 619.128 718.943 619.395V624.402C718.943 624.669 718.72 624.893 718.453 624.893H695.09C694.822 624.893 694.599 624.669 694.599 624.402V619.395C694.599 619.128 694.822 618.905 695.09 618.905Z" stroke="url(#paint10_radial_1736_3801)" stroke-width="2.35593"/>
<path d="M695.09 628.917H718.453C718.72 628.917 718.944 629.141 718.944 629.408V633.89C718.776 633.931 718.555 633.974 718.266 634.029L718.216 634.038C717.797 634.117 717.271 634.216 716.778 634.369C716.416 634.483 716 634.646 715.619 634.905H695.09C694.823 634.905 694.599 634.682 694.599 634.414V629.408C694.599 629.141 694.823 628.917 695.09 628.917ZM719.284 633.779C719.285 633.779 719.278 633.783 719.261 633.79C719.275 633.782 719.283 633.779 719.284 633.779Z" stroke="black" stroke-width="2.35593"/>
<path d="M695.09 628.917H718.453C718.72 628.917 718.944 629.141 718.944 629.408V633.89C718.776 633.931 718.555 633.974 718.266 634.029L718.216 634.038C717.797 634.117 717.271 634.216 716.778 634.369C716.416 634.483 716 634.646 715.619 634.905H695.09C694.823 634.905 694.599 634.682 694.599 634.414V629.408C694.599 629.141 694.823 628.917 695.09 628.917ZM719.284 633.779C719.285 633.779 719.278 633.783 719.261 633.79C719.275 633.782 719.283 633.779 719.284 633.779Z" stroke="url(#paint11_radial_1736_3801)" stroke-width="2.35593"/>
<path d="M695.09 638.93H715.449C717.385 638.93 718.944 640.489 718.944 642.425V644.427C718.944 644.694 718.72 644.918 718.453 644.918H695.09C694.823 644.918 694.599 644.694 694.599 644.427V639.421C694.599 639.153 694.823 638.93 695.09 638.93Z" stroke="black" stroke-width="2.35593"/>
<path d="M695.09 638.93H715.449C717.385 638.93 718.944 640.489 718.944 642.425V644.427C718.944 644.694 718.72 644.918 718.453 644.918H695.09C694.823 644.918 694.599 644.694 694.599 644.427V639.421C694.599 639.153 694.823 638.93 695.09 638.93Z" stroke="url(#paint12_radial_1736_3801)" stroke-width="2.35593"/>
<path d="M725.128 632.746H713.446C712.528 632.746 711.777 633.497 711.777 634.414V644.26C711.777 645.345 712.278 646.263 713.112 646.93L719.287 651.519L725.462 646.93C726.296 646.263 726.797 645.345 726.797 644.26V634.414C726.797 633.497 726.046 632.746 725.128 632.746Z" fill="#009688"/>
<path d="M725.128 632.746H713.446C712.528 632.746 711.777 633.497 711.777 634.414V644.26C711.777 645.345 712.278 646.263 713.112 646.93L719.287 651.519L725.462 646.93C726.296 646.263 726.797 645.345 726.797 644.26V634.414C726.797 633.497 726.046 632.746 725.128 632.746Z" fill="url(#paint13_radial_1736_3801)"/>
</g>
</g>
<g filter="url(#filter26_dd_1736_3801)">
<g filter="url(#filter27_bii_1736_3801)">
<rect x="672.61" y="177.805" width="67.1441" height="67.1441" rx="4.63063" fill="#04093E"/>
</g>
<path d="M694.726 218.671C693.343 218.671 692.1 218.382 690.994 217.804C689.901 217.213 689.04 216.396 688.412 215.353C687.783 214.311 687.469 213.129 687.469 211.81C687.469 210.491 687.783 209.31 688.412 208.267C689.04 207.224 689.901 206.413 690.994 205.835C692.1 205.245 693.343 204.95 694.726 204.95C695.932 204.95 697.019 205.163 697.986 205.59C698.954 206.018 699.758 206.633 700.399 207.438L698.024 209.586C697.17 208.556 696.133 208.041 694.914 208.041C694.198 208.041 693.557 208.198 692.992 208.512C692.439 208.826 692.005 209.272 691.691 209.85C691.39 210.415 691.239 211.069 691.239 211.81C691.239 212.551 691.39 213.211 691.691 213.789C692.005 214.355 692.439 214.794 692.992 215.108C693.557 215.423 694.198 215.58 694.914 215.58C696.133 215.58 697.17 215.064 698.024 214.034L700.399 216.183C699.758 216.987 698.954 217.603 697.986 218.03C697.019 218.457 695.932 218.671 694.726 218.671ZM706.552 218.671C705.484 218.671 704.447 218.539 703.442 218.275C702.437 218.011 701.62 217.659 700.992 217.219L702.217 214.468C702.807 214.857 703.492 215.171 704.271 215.41C705.05 215.649 705.817 215.768 706.571 215.768C708.003 215.768 708.719 215.41 708.719 214.694C708.719 214.317 708.512 214.04 708.097 213.865C707.695 213.676 707.042 213.481 706.137 213.28C705.145 213.067 704.315 212.84 703.649 212.602C702.983 212.35 702.412 211.955 701.934 211.414C701.457 210.874 701.218 210.145 701.218 209.228C701.218 208.424 701.438 207.701 701.878 207.061C702.317 206.407 702.971 205.892 703.838 205.515C704.717 205.138 705.792 204.95 707.061 204.95C707.928 204.95 708.782 205.05 709.624 205.251C710.466 205.44 711.207 205.722 711.848 206.099L710.698 208.87C709.442 208.191 708.223 207.852 707.042 207.852C706.301 207.852 705.76 207.965 705.421 208.191C705.082 208.405 704.912 208.688 704.912 209.04C704.912 209.391 705.113 209.655 705.515 209.831C705.917 210.007 706.564 210.189 707.457 210.378C708.462 210.591 709.291 210.824 709.944 211.075C710.61 211.314 711.182 211.703 711.659 212.244C712.15 212.771 712.395 213.494 712.395 214.411C712.395 215.203 712.175 215.919 711.735 216.56C711.295 217.201 710.635 217.716 709.756 218.105C708.876 218.482 707.808 218.671 706.552 218.671ZM720.696 218.671C719.314 218.671 718.07 218.382 716.964 217.804C715.871 217.213 715.01 216.396 714.382 215.353C713.754 214.311 713.44 213.129 713.44 211.81C713.44 210.491 713.754 209.31 714.382 208.267C715.01 207.224 715.871 206.413 716.964 205.835C718.07 205.245 719.314 204.95 720.696 204.95C721.902 204.95 722.989 205.163 723.957 205.59C724.924 206.018 725.728 206.633 726.369 207.438L723.994 209.586C723.14 208.556 722.103 208.041 720.885 208.041C720.168 208.041 719.528 208.198 718.962 208.512C718.409 208.826 717.976 209.272 717.662 209.85C717.36 210.415 717.209 211.069 717.209 211.81C717.209 212.551 717.36 213.211 717.662 213.789C717.976 214.355 718.409 214.794 718.962 215.108C719.528 215.423 720.168 215.58 720.885 215.58C722.103 215.58 723.14 215.064 723.994 214.034L726.369 216.183C725.728 216.987 724.924 217.603 723.957 218.03C722.989 218.457 721.902 218.671 720.696 218.671Z" fill="white"/>
<path d="M694.726 218.671C693.343 218.671 692.1 218.382 690.994 217.804C689.901 217.213 689.04 216.396 688.412 215.353C687.783 214.311 687.469 213.129 687.469 211.81C687.469 210.491 687.783 209.31 688.412 208.267C689.04 207.224 689.901 206.413 690.994 205.835C692.1 205.245 693.343 204.95 694.726 204.95C695.932 204.95 697.019 205.163 697.986 205.59C698.954 206.018 699.758 206.633 700.399 207.438L698.024 209.586C697.17 208.556 696.133 208.041 694.914 208.041C694.198 208.041 693.557 208.198 692.992 208.512C692.439 208.826 692.005 209.272 691.691 209.85C691.39 210.415 691.239 211.069 691.239 211.81C691.239 212.551 691.39 213.211 691.691 213.789C692.005 214.355 692.439 214.794 692.992 215.108C693.557 215.423 694.198 215.58 694.914 215.58C696.133 215.58 697.17 215.064 698.024 214.034L700.399 216.183C699.758 216.987 698.954 217.603 697.986 218.03C697.019 218.457 695.932 218.671 694.726 218.671ZM706.552 218.671C705.484 218.671 704.447 218.539 703.442 218.275C702.437 218.011 701.62 217.659 700.992 217.219L702.217 214.468C702.807 214.857 703.492 215.171 704.271 215.41C705.05 215.649 705.817 215.768 706.571 215.768C708.003 215.768 708.719 215.41 708.719 214.694C708.719 214.317 708.512 214.04 708.097 213.865C707.695 213.676 707.042 213.481 706.137 213.28C705.145 213.067 704.315 212.84 703.649 212.602C702.983 212.35 702.412 211.955 701.934 211.414C701.457 210.874 701.218 210.145 701.218 209.228C701.218 208.424 701.438 207.701 701.878 207.061C702.317 206.407 702.971 205.892 703.838 205.515C704.717 205.138 705.792 204.95 707.061 204.95C707.928 204.95 708.782 205.05 709.624 205.251C710.466 205.44 711.207 205.722 711.848 206.099L710.698 208.87C709.442 208.191 708.223 207.852 707.042 207.852C706.301 207.852 705.76 207.965 705.421 208.191C705.082 208.405 704.912 208.688 704.912 209.04C704.912 209.391 705.113 209.655 705.515 209.831C705.917 210.007 706.564 210.189 707.457 210.378C708.462 210.591 709.291 210.824 709.944 211.075C710.61 211.314 711.182 211.703 711.659 212.244C712.15 212.771 712.395 213.494 712.395 214.411C712.395 215.203 712.175 215.919 711.735 216.56C711.295 217.201 710.635 217.716 709.756 218.105C708.876 218.482 707.808 218.671 706.552 218.671ZM720.696 218.671C719.314 218.671 718.07 218.382 716.964 217.804C715.871 217.213 715.01 216.396 714.382 215.353C713.754 214.311 713.44 213.129 713.44 211.81C713.44 210.491 713.754 209.31 714.382 208.267C715.01 207.224 715.871 206.413 716.964 205.835C718.07 205.245 719.314 204.95 720.696 204.95C721.902 204.95 722.989 205.163 723.957 205.59C724.924 206.018 725.728 206.633 726.369 207.438L723.994 209.586C723.14 208.556 722.103 208.041 720.885 208.041C720.168 208.041 719.528 208.198 718.962 208.512C718.409 208.826 717.976 209.272 717.662 209.85C717.36 210.415 717.209 211.069 717.209 211.81C717.209 212.551 717.36 213.211 717.662 213.789C717.976 214.355 718.409 214.794 718.962 215.108C719.528 215.423 720.168 215.58 720.885 215.58C722.103 215.58 723.14 215.064 723.994 214.034L726.369 216.183C725.728 216.987 724.924 217.603 723.957 218.03C722.989 218.457 721.902 218.671 720.696 218.671Z" fill="url(#paint14_radial_1736_3801)"/>
</g>
<g filter="url(#filter28_f_1736_3801)">
<circle cx="600.754" cy="535.907" r="9.42373" fill="url(#paint15_radial_1736_3801)" fill-opacity="0.5"/>
</g>
<g filter="url(#filter29_f_1736_3801)">
<circle cx="600.754" cy="535.907" r="3.5339" fill="#00F1FF"/>
<circle cx="600.754" cy="535.907" r="3.5339" fill="url(#paint16_linear_1736_3801)" fill-opacity="0.75"/>
</g>
<g filter="url(#filter30_f_1736_3801)">
<circle cx="663.186" cy="155.424" r="9.42373" fill="url(#paint17_radial_1736_3801)" fill-opacity="0.5"/>
</g>
<g filter="url(#filter31_f_1736_3801)">
<circle cx="663.186" cy="155.424" r="3.5339" fill="#00F1FF"/>
<circle cx="663.186" cy="155.424" r="3.5339" fill="url(#paint18_linear_1736_3801)" fill-opacity="0.75"/>
</g>
<g filter="url(#filter32_f_1736_3801)">
<circle cx="313.33" cy="252.017" r="9.42373" fill="url(#paint19_radial_1736_3801)" fill-opacity="0.5"/>
</g>
<g filter="url(#filter33_f_1736_3801)">
<circle cx="313.331" cy="252.017" r="3.5339" fill="#00F1FF"/>
<circle cx="313.331" cy="252.017" r="3.5339" fill="url(#paint20_linear_1736_3801)" fill-opacity="0.75"/>
</g>
<defs>
<filter id="filter0_ddii_1736_3801" x="129.244" y="108.635" width="708.016" height="757.883" filterUnits="userSpaceOnUse" color-interpolation-filters="sRGB">
<feFlood flood-opacity="0" result="BackgroundImageFix"/>
<feColorMatrix in="SourceAlpha" type="matrix" values="0 0 0 0 0 0 0 0 0 0 0 0 0 0 0 0 0 0 127 0" result="hardAlpha"/>
<feOffset dy="3.22094"/>
<feGaussianBlur stdDeviation="6.05973"/>
<feColorMatrix type="matrix" values="0 0 0 0 0.0704861 0 0 0 0 0.235625 0 0 0 0 0.483333 0 0 0 0.38 0"/>
<feBlend mode="normal" in2="BackgroundImageFix" result="effect1_dropShadow_1736_3801"/>
<feColorMatrix in="SourceAlpha" type="matrix" values="0 0 0 0 0 0 0 0 0 0 0 0 0 0 0 0 0 0 127 0" result="hardAlpha"/>
<feOffset dy="64.2639"/>
<feGaussianBlur stdDeviation="120.903"/>
<feColorMatrix type="matrix" values="0 0 0 0 0.411765 0 0 0 0 0.0470588 0 0 0 0 1 0 0 0 0.630424 0"/>
<feBlend mode="normal" in2="effect1_dropShadow_1736_3801" result="effect2_dropShadow_1736_3801"/>
<feBlend mode="normal" in="SourceGraphic" in2="effect2_dropShadow_1736_3801" result="shape"/>
<feColorMatrix in="SourceAlpha" type="matrix" values="0 0 0 0 0 0 0 0 0 0 0 0 0 0 0 0 0 0 127 0" result="hardAlpha"/>
<feOffset dy="-4.71186"/>
<feGaussianBlur stdDeviation="2.35593"/>
<feComposite in2="hardAlpha" operator="arithmetic" k2="-1" k3="1"/>
<feColorMatrix type="matrix" values="0 0 0 0 1 0 0 0 0 1 0 0 0 0 1 0 0 0 0.08 0"/>
<feBlend mode="normal" in2="shape" result="effect3_innerShadow_1736_3801"/>
<feColorMatrix in="SourceAlpha" type="matrix" values="0 0 0 0 0 0 0 0 0 0 0 0 0 0 0 0 0 0 127 0" result="hardAlpha"/>
<feOffset dx="2.35593"/>
<feGaussianBlur stdDeviation="2.35593"/>
<feComposite in2="hardAlpha" operator="arithmetic" k2="-1" k3="1"/>
<feColorMatrix type="matrix" values="0 0 0 0 1 0 0 0 0 1 0 0 0 0 1 0 0 0 0.29 0"/>
<feBlend mode="normal" in2="effect3_innerShadow_1736_3801" result="effect4_innerShadow_1736_3801"/>
</filter>
<filter id="filter1_ddii_1736_3801" x="144.558" y="127.483" width="676.8" height="719.206" filterUnits="userSpaceOnUse" color-interpolation-filters="sRGB">
<feFlood flood-opacity="0" result="BackgroundImageFix"/>
<feColorMatrix in="SourceAlpha" type="matrix" values="0 0 0 0 0 0 0 0 0 0 0 0 0 0 0 0 0 0 127 0" result="hardAlpha"/>
<feOffset dy="3.22094"/>
<feGaussianBlur stdDeviation="6.05973"/>
<feColorMatrix type="matrix" values="0 0 0 0 0.0704861 0 0 0 0 0.235625 0 0 0 0 0.483333 0 0 0 0.38 0"/>
<feBlend mode="normal" in2="BackgroundImageFix" result="effect1_dropShadow_1736_3801"/>
<feColorMatrix in="SourceAlpha" type="matrix" values="0 0 0 0 0 0 0 0 0 0 0 0 0 0 0 0 0 0 127 0" result="hardAlpha"/>
<feOffset dy="64.2639"/>
<feGaussianBlur stdDeviation="120.903"/>
<feColorMatrix type="matrix" values="0 0 0 0 0.411765 0 0 0 0 0.0470588 0 0 0 0 1 0 0 0 0.630424 0"/>
<feBlend mode="normal" in2="effect1_dropShadow_1736_3801" result="effect2_dropShadow_1736_3801"/>
<feBlend mode="normal" in="SourceGraphic" in2="effect2_dropShadow_1736_3801" result="shape"/>
<feColorMatrix in="SourceAlpha" type="matrix" values="0 0 0 0 0 0 0 0 0 0 0 0 0 0 0 0 0 0 127 0" result="hardAlpha"/>
<feOffset dy="-4.71186"/>
<feGaussianBlur stdDeviation="2.35593"/>
<feComposite in2="hardAlpha" operator="arithmetic" k2="-1" k3="1"/>
<feColorMatrix type="matrix" values="0 0 0 0 1 0 0 0 0 1 0 0 0 0 1 0 0 0 0.08 0"/>
<feBlend mode="normal" in2="shape" result="effect3_innerShadow_1736_3801"/>
<feColorMatrix in="SourceAlpha" type="matrix" values="0 0 0 0 0 0 0 0 0 0 0 0 0 0 0 0 0 0 127 0" result="hardAlpha"/>
<feOffset dx="2.35593"/>
<feGaussianBlur stdDeviation="2.35593"/>
<feComposite in2="hardAlpha" operator="arithmetic" k2="-1" k3="1"/>
<feColorMatrix type="matrix" values="0 0 0 0 1 0 0 0 0 1 0 0 0 0 1 0 0 0 0.29 0"/>
<feBlend mode="normal" in2="effect3_innerShadow_1736_3801" result="effect4_innerShadow_1736_3801"/>
</filter>
<filter id="filter2_f_1736_3801" x="347.492" y="471.119" width="28.2711" height="28.2714" filterUnits="userSpaceOnUse" color-interpolation-filters="sRGB">
<feFlood flood-opacity="0" result="BackgroundImageFix"/>
<feBlend mode="normal" in="SourceGraphic" in2="BackgroundImageFix" result="shape"/>
<feGaussianBlur stdDeviation="2.35593" result="effect1_foregroundBlur_1736_3801"/>
</filter>
<filter id="filter3_f_1736_3801" x="355.737" y="479.364" width="11.7797" height="11.7797" filterUnits="userSpaceOnUse" color-interpolation-filters="sRGB">
<feFlood flood-opacity="0" result="BackgroundImageFix"/>
<feBlend mode="normal" in="SourceGraphic" in2="BackgroundImageFix" result="shape"/>
<feGaussianBlur stdDeviation="1.17797" result="effect1_foregroundBlur_1736_3801"/>
</filter>
<filter id="filter4_f_1736_3801" x="494.737" y="249.661" width="28.2711" height="28.2714" filterUnits="userSpaceOnUse" color-interpolation-filters="sRGB">
<feFlood flood-opacity="0" result="BackgroundImageFix"/>
<feBlend mode="normal" in="SourceGraphic" in2="BackgroundImageFix" result="shape"/>
<feGaussianBlur stdDeviation="2.35593" result="effect1_foregroundBlur_1736_3801"/>
</filter>
<filter id="filter5_f_1736_3801" x="502.983" y="257.907" width="11.7796" height="11.7797" filterUnits="userSpaceOnUse" color-interpolation-filters="sRGB">
<feFlood flood-opacity="0" result="BackgroundImageFix"/>
<feBlend mode="normal" in="SourceGraphic" in2="BackgroundImageFix" result="shape"/>
<feGaussianBlur stdDeviation="1.17797" result="effect1_foregroundBlur_1736_3801"/>
</filter>
<filter id="filter6_dd_1736_3801" x="0.845993" y="0.262497" width="934.052" height="619.198" filterUnits="userSpaceOnUse" color-interpolation-filters="sRGB">
<feFlood flood-opacity="0" result="BackgroundImageFix"/>
<feColorMatrix in="SourceAlpha" type="matrix" values="0 0 0 0 0 0 0 0 0 0 0 0 0 0 0 0 0 0 127 0" result="hardAlpha"/>
<feOffset dy="3.22094"/>
<feGaussianBlur stdDeviation="6.05973"/>
<feColorMatrix type="matrix" values="0 0 0 0 0.0704861 0 0 0 0 0.235625 0 0 0 0 0.483333 0 0 0 0.38 0"/>
<feBlend mode="normal" in2="BackgroundImageFix" result="effect1_dropShadow_1736_3801"/>
<feColorMatrix in="SourceAlpha" type="matrix" values="0 0 0 0 0 0 0 0 0 0 0 0 0 0 0 0 0 0 127 0" result="hardAlpha"/>
<feOffset dy="64.2639"/>
<feGaussianBlur stdDeviation="120.903"/>
<feColorMatrix type="matrix" values="0 0 0 0 0.411765 0 0 0 0 0.0470588 0 0 0 0 1 0 0 0 0.630424 0"/>
<feBlend mode="normal" in2="effect1_dropShadow_1736_3801" result="effect2_dropShadow_1736_3801"/>
<feBlend mode="normal" in="SourceGraphic" in2="effect2_dropShadow_1736_3801" result="shape"/>
</filter>
<filter id="filter7_bii_1736_3801" x="240.337" y="175.49" width="71.7747" height="71.7747" filterUnits="userSpaceOnUse" color-interpolation-filters="sRGB">
<feFlood flood-opacity="0" result="BackgroundImageFix"/>
<feGaussianBlur in="BackgroundImage" stdDeviation="1.15766"/>
<feComposite in2="SourceAlpha" operator="in" result="effect1_backgroundBlur_1736_3801"/>
<feBlend mode="normal" in="SourceGraphic" in2="effect1_backgroundBlur_1736_3801" result="shape"/>
<feColorMatrix in="SourceAlpha" type="matrix" values="0 0 0 0 0 0 0 0 0 0 0 0 0 0 0 0 0 0 127 0" result="hardAlpha"/>
<feOffset dy="-2.31531"/>
<feGaussianBlur stdDeviation="1.15766"/>
<feComposite in2="hardAlpha" operator="arithmetic" k2="-1" k3="1"/>
<feColorMatrix type="matrix" values="0 0 0 0 1 0 0 0 0 1 0 0 0 0 1 0 0 0 0.08 0"/>
<feBlend mode="normal" in2="shape" result="effect2_innerShadow_1736_3801"/>
<feColorMatrix in="SourceAlpha" type="matrix" values="0 0 0 0 0 0 0 0 0 0 0 0 0 0 0 0 0 0 127 0" result="hardAlpha"/>
<feOffset dx="1.15766"/>
<feGaussianBlur stdDeviation="1.15766"/>
<feComposite in2="hardAlpha" operator="arithmetic" k2="-1" k3="1"/>
<feColorMatrix type="matrix" values="0 0 0 0 1 0 0 0 0 1 0 0 0 0 1 0 0 0 0.29 0"/>
<feBlend mode="normal" in2="effect2_innerShadow_1736_3801" result="effect3_innerShadow_1736_3801"/>
</filter>
<filter id="filter8_f_1736_3801" x="301.095" y="204.443" width="147.821" height="106.593" filterUnits="userSpaceOnUse" color-interpolation-filters="sRGB">
<feFlood flood-opacity="0" result="BackgroundImageFix"/>
<feBlend mode="normal" in="SourceGraphic" in2="BackgroundImageFix" result="shape"/>
<feGaussianBlur stdDeviation="2.35593" result="effect1_foregroundBlur_1736_3801"/>
</filter>
<filter id="filter9_f_1736_3801" x="546.449" y="204.443" width="151.354" height="113.659" filterUnits="userSpaceOnUse" color-interpolation-filters="sRGB">
<feFlood flood-opacity="0" result="BackgroundImageFix"/>
<feBlend mode="normal" in="SourceGraphic" in2="BackgroundImageFix" result="shape"/>
<feGaussianBlur stdDeviation="2.35593" result="effect1_foregroundBlur_1736_3801"/>
</filter>
<filter id="filter10_bii_1736_3801" x="223.846" y="372.21" width="71.7747" height="71.7747" filterUnits="userSpaceOnUse" color-interpolation-filters="sRGB">
<feFlood flood-opacity="0" result="BackgroundImageFix"/>
<feGaussianBlur in="BackgroundImage" stdDeviation="1.15766"/>
<feComposite in2="SourceAlpha" operator="in" result="effect1_backgroundBlur_1736_3801"/>
<feBlend mode="normal" in="SourceGraphic" in2="effect1_backgroundBlur_1736_3801" result="shape"/>
<feColorMatrix in="SourceAlpha" type="matrix" values="0 0 0 0 0 0 0 0 0 0 0 0 0 0 0 0 0 0 127 0" result="hardAlpha"/>
<feOffset dy="-2.31531"/>
<feGaussianBlur stdDeviation="1.15766"/>
<feComposite in2="hardAlpha" operator="arithmetic" k2="-1" k3="1"/>
<feColorMatrix type="matrix" values="0 0 0 0 1 0 0 0 0 1 0 0 0 0 1 0 0 0 0.08 0"/>
<feBlend mode="normal" in2="shape" result="effect2_innerShadow_1736_3801"/>
<feColorMatrix in="SourceAlpha" type="matrix" values="0 0 0 0 0 0 0 0 0 0 0 0 0 0 0 0 0 0 127 0" result="hardAlpha"/>
<feOffset dx="1.15766"/>
<feGaussianBlur stdDeviation="1.15766"/>
<feComposite in2="hardAlpha" operator="arithmetic" k2="-1" k3="1"/>
<feColorMatrix type="matrix" values="0 0 0 0 1 0 0 0 0 1 0 0 0 0 1 0 0 0 0.29 0"/>
<feBlend mode="normal" in2="effect2_innerShadow_1736_3801" result="effect3_innerShadow_1736_3801"/>
</filter>
<filter id="filter11_f_1736_3801" x="284.604" y="398.218" width="93.3815" height="16.2245" filterUnits="userSpaceOnUse" color-interpolation-filters="sRGB">
<feFlood flood-opacity="0" result="BackgroundImageFix"/>
<feBlend mode="normal" in="SourceGraphic" in2="BackgroundImageFix" result="shape"/>
<feGaussianBlur stdDeviation="2.35593" result="effect1_foregroundBlur_1736_3801"/>
</filter>
<filter id="filter12_f_1736_3801" x="589.697" y="400.574" width="93.3815" height="16.2245" filterUnits="userSpaceOnUse" color-interpolation-filters="sRGB">
<feFlood flood-opacity="0" result="BackgroundImageFix"/>
<feBlend mode="normal" in="SourceGraphic" in2="BackgroundImageFix" result="shape"/>
<feGaussianBlur stdDeviation="2.35593" result="effect1_foregroundBlur_1736_3801"/>
</filter>
<filter id="filter13_dd_1736_3801" x="430.804" y="197.572" width="550.757" height="550.757" filterUnits="userSpaceOnUse" color-interpolation-filters="sRGB">
<feFlood flood-opacity="0" result="BackgroundImageFix"/>
<feColorMatrix in="SourceAlpha" type="matrix" values="0 0 0 0 0 0 0 0 0 0 0 0 0 0 0 0 0 0 127 0" result="hardAlpha"/>
<feOffset dy="3.22094"/>
<feGaussianBlur stdDeviation="6.05973"/>
<feColorMatrix type="matrix" values="0 0 0 0 0.0704861 0 0 0 0 0.235625 0 0 0 0 0.483333 0 0 0 0.38 0"/>
<feBlend mode="normal" in2="BackgroundImageFix" result="effect1_dropShadow_1736_3801"/>
<feColorMatrix in="SourceAlpha" type="matrix" values="0 0 0 0 0 0 0 0 0 0 0 0 0 0 0 0 0 0 127 0" result="hardAlpha"/>
<feOffset dy="64.2639"/>
<feGaussianBlur stdDeviation="120.903"/>
<feColorMatrix type="matrix" values="0 0 0 0 0.411765 0 0 0 0 0.0470588 0 0 0 0 1 0 0 0 0.630424 0"/>
<feBlend mode="normal" in2="effect1_dropShadow_1736_3801" result="effect2_dropShadow_1736_3801"/>
<feBlend mode="normal" in="SourceGraphic" in2="effect2_dropShadow_1736_3801" result="shape"/>
</filter>
<filter id="filter14_bii_1736_3801" x="670.295" y="372.799" width="71.7747" height="71.7747" filterUnits="userSpaceOnUse" color-interpolation-filters="sRGB">
<feFlood flood-opacity="0" result="BackgroundImageFix"/>
<feGaussianBlur in="BackgroundImage" stdDeviation="1.15766"/>
<feComposite in2="SourceAlpha" operator="in" result="effect1_backgroundBlur_1736_3801"/>
<feBlend mode="normal" in="SourceGraphic" in2="effect1_backgroundBlur_1736_3801" result="shape"/>
<feColorMatrix in="SourceAlpha" type="matrix" values="0 0 0 0 0 0 0 0 0 0 0 0 0 0 0 0 0 0 127 0" result="hardAlpha"/>
<feOffset dy="-2.31531"/>
<feGaussianBlur stdDeviation="1.15766"/>
<feComposite in2="hardAlpha" operator="arithmetic" k2="-1" k3="1"/>
<feColorMatrix type="matrix" values="0 0 0 0 1 0 0 0 0 1 0 0 0 0 1 0 0 0 0.08 0"/>
<feBlend mode="normal" in2="shape" result="effect2_innerShadow_1736_3801"/>
<feColorMatrix in="SourceAlpha" type="matrix" values="0 0 0 0 0 0 0 0 0 0 0 0 0 0 0 0 0 0 127 0" result="hardAlpha"/>
<feOffset dx="1.15766"/>
<feGaussianBlur stdDeviation="1.15766"/>
<feComposite in2="hardAlpha" operator="arithmetic" k2="-1" k3="1"/>
<feColorMatrix type="matrix" values="0 0 0 0 1 0 0 0 0 1 0 0 0 0 1 0 0 0 0.29 0"/>
<feBlend mode="normal" in2="effect2_innerShadow_1736_3801" result="effect3_innerShadow_1736_3801"/>
</filter>
<filter id="filter15_bii_1736_3801" x="223.846" y="587.189" width="71.7747" height="71.7747" filterUnits="userSpaceOnUse" color-interpolation-filters="sRGB">
<feFlood flood-opacity="0" result="BackgroundImageFix"/>
<feGaussianBlur in="BackgroundImage" stdDeviation="1.15766"/>
<feComposite in2="SourceAlpha" operator="in" result="effect1_backgroundBlur_1736_3801"/>
<feBlend mode="normal" in="SourceGraphic" in2="effect1_backgroundBlur_1736_3801" result="shape"/>
<feColorMatrix in="SourceAlpha" type="matrix" values="0 0 0 0 0 0 0 0 0 0 0 0 0 0 0 0 0 0 127 0" result="hardAlpha"/>
<feOffset dy="-2.31531"/>
<feGaussianBlur stdDeviation="1.15766"/>
<feComposite in2="hardAlpha" operator="arithmetic" k2="-1" k3="1"/>
<feColorMatrix type="matrix" values="0 0 0 0 1 0 0 0 0 1 0 0 0 0 1 0 0 0 0.08 0"/>
<feBlend mode="normal" in2="shape" result="effect2_innerShadow_1736_3801"/>
<feColorMatrix in="SourceAlpha" type="matrix" values="0 0 0 0 0 0 0 0 0 0 0 0 0 0 0 0 0 0 127 0" result="hardAlpha"/>
<feOffset dx="1.15766"/>
<feGaussianBlur stdDeviation="1.15766"/>
<feComposite in2="hardAlpha" operator="arithmetic" k2="-1" k3="1"/>
<feColorMatrix type="matrix" values="0 0 0 0 1 0 0 0 0 1 0 0 0 0 1 0 0 0 0.29 0"/>
<feBlend mode="normal" in2="effect2_innerShadow_1736_3801" result="effect3_innerShadow_1736_3801"/>
</filter>
<filter id="filter16_f_1736_3801" x="284.604" y="523.408" width="148.42" height="108.37" filterUnits="userSpaceOnUse" color-interpolation-filters="sRGB">
<feFlood flood-opacity="0" result="BackgroundImageFix"/>
<feBlend mode="normal" in="SourceGraphic" in2="BackgroundImageFix" result="shape"/>
<feGaussianBlur stdDeviation="2.35593" result="effect1_foregroundBlur_1736_3801"/>
</filter>
<filter id="filter17_f_1736_3801" x="532.302" y="523.408" width="148.421" height="108.37" filterUnits="userSpaceOnUse" color-interpolation-filters="sRGB">
<feFlood flood-opacity="0" result="BackgroundImageFix"/>
<feBlend mode="normal" in="SourceGraphic" in2="BackgroundImageFix" result="shape"/>
<feGaussianBlur stdDeviation="2.35593" result="effect1_foregroundBlur_1736_3801"/>
</filter>
<filter id="filter18_f_1736_3801" x="304.629" y="207.977" width="140.754" height="99.5249" filterUnits="userSpaceOnUse" color-interpolation-filters="sRGB">
<feFlood flood-opacity="0" result="BackgroundImageFix"/>
<feBlend mode="normal" in="SourceGraphic" in2="BackgroundImageFix" result="shape"/>
<feGaussianBlur stdDeviation="0.588983" result="effect1_foregroundBlur_1736_3801"/>
</filter>
<filter id="filter19_f_1736_3801" x="548.803" y="207.977" width="145.467" height="109.539" filterUnits="userSpaceOnUse" color-interpolation-filters="sRGB">
<feFlood flood-opacity="0" result="BackgroundImageFix"/>
<feBlend mode="normal" in="SourceGraphic" in2="BackgroundImageFix" result="shape"/>
<feGaussianBlur stdDeviation="0.588983" result="effect1_foregroundBlur_1736_3801"/>
</filter>
<filter id="filter20_f_1736_3801" x="288.138" y="401.752" width="86.3137" height="9.15671" filterUnits="userSpaceOnUse" color-interpolation-filters="sRGB">
<feFlood flood-opacity="0" result="BackgroundImageFix"/>
<feBlend mode="normal" in="SourceGraphic" in2="BackgroundImageFix" result="shape"/>
<feGaussianBlur stdDeviation="0.588983" result="effect1_foregroundBlur_1736_3801"/>
</filter>
<filter id="filter21_f_1736_3801" x="593.231" y="404.108" width="86.3137" height="9.15671" filterUnits="userSpaceOnUse" color-interpolation-filters="sRGB">
<feFlood flood-opacity="0" result="BackgroundImageFix"/>
<feBlend mode="normal" in="SourceGraphic" in2="BackgroundImageFix" result="shape"/>
<feGaussianBlur stdDeviation="0.588983" result="effect1_foregroundBlur_1736_3801"/>
</filter>
<filter id="filter22_f_1736_3801" x="288.138" y="526.942" width="141.353" height="101.302" filterUnits="userSpaceOnUse" color-interpolation-filters="sRGB">
<feFlood flood-opacity="0" result="BackgroundImageFix"/>
<feBlend mode="normal" in="SourceGraphic" in2="BackgroundImageFix" result="shape"/>
<feGaussianBlur stdDeviation="0.588983" result="effect1_foregroundBlur_1736_3801"/>
</filter>
<filter id="filter23_f_1736_3801" x="535.836" y="526.942" width="141.353" height="101.302" filterUnits="userSpaceOnUse" color-interpolation-filters="sRGB">
<feFlood flood-opacity="0" result="BackgroundImageFix"/>
<feBlend mode="normal" in="SourceGraphic" in2="BackgroundImageFix" result="shape"/>
<feGaussianBlur stdDeviation="0.588983" result="effect1_foregroundBlur_1736_3801"/>
</filter>
<filter id="filter24_dd_1736_3801" x="430.804" y="420.207" width="550.757" height="550.757" filterUnits="userSpaceOnUse" color-interpolation-filters="sRGB">
<feFlood flood-opacity="0" result="BackgroundImageFix"/>
<feColorMatrix in="SourceAlpha" type="matrix" values="0 0 0 0 0 0 0 0 0 0 0 0 0 0 0 0 0 0 127 0" result="hardAlpha"/>
<feOffset dy="3.22094"/>
<feGaussianBlur stdDeviation="6.05973"/>
<feColorMatrix type="matrix" values="0 0 0 0 0.0704861 0 0 0 0 0.235625 0 0 0 0 0.483333 0 0 0 0.38 0"/>
<feBlend mode="normal" in2="BackgroundImageFix" result="effect1_dropShadow_1736_3801"/>
<feColorMatrix in="SourceAlpha" type="matrix" values="0 0 0 0 0 0 0 0 0 0 0 0 0 0 0 0 0 0 127 0" result="hardAlpha"/>
<feOffset dy="64.2639"/>
<feGaussianBlur stdDeviation="120.903"/>
<feColorMatrix type="matrix" values="0 0 0 0 0.411765 0 0 0 0 0.0470588 0 0 0 0 1 0 0 0 0.630424 0"/>
<feBlend mode="normal" in2="effect1_dropShadow_1736_3801" result="effect2_dropShadow_1736_3801"/>
<feBlend mode="normal" in="SourceGraphic" in2="effect2_dropShadow_1736_3801" result="shape"/>
</filter>
<filter id="filter25_bii_1736_3801" x="670.295" y="595.435" width="71.7747" height="71.7747" filterUnits="userSpaceOnUse" color-interpolation-filters="sRGB">
<feFlood flood-opacity="0" result="BackgroundImageFix"/>
<feGaussianBlur in="BackgroundImage" stdDeviation="1.15766"/>
<feComposite in2="SourceAlpha" operator="in" result="effect1_backgroundBlur_1736_3801"/>
<feBlend mode="normal" in="SourceGraphic" in2="effect1_backgroundBlur_1736_3801" result="shape"/>
<feColorMatrix in="SourceAlpha" type="matrix" values="0 0 0 0 0 0 0 0 0 0 0 0 0 0 0 0 0 0 127 0" result="hardAlpha"/>
<feOffset dy="-2.31531"/>
<feGaussianBlur stdDeviation="1.15766"/>
<feComposite in2="hardAlpha" operator="arithmetic" k2="-1" k3="1"/>
<feColorMatrix type="matrix" values="0 0 0 0 1 0 0 0 0 1 0 0 0 0 1 0 0 0 0.08 0"/>
<feBlend mode="normal" in2="shape" result="effect2_innerShadow_1736_3801"/>
<feColorMatrix in="SourceAlpha" type="matrix" values="0 0 0 0 0 0 0 0 0 0 0 0 0 0 0 0 0 0 127 0" result="hardAlpha"/>
<feOffset dx="1.15766"/>
<feGaussianBlur stdDeviation="1.15766"/>
<feComposite in2="hardAlpha" operator="arithmetic" k2="-1" k3="1"/>
<feColorMatrix type="matrix" values="0 0 0 0 1 0 0 0 0 1 0 0 0 0 1 0 0 0 0.29 0"/>
<feBlend mode="normal" in2="effect2_innerShadow_1736_3801" result="effect3_innerShadow_1736_3801"/>
</filter>
<filter id="filter26_dd_1736_3801" x="430.804" y="0.262497" width="550.757" height="550.757" filterUnits="userSpaceOnUse" color-interpolation-filters="sRGB">
<feFlood flood-opacity="0" result="BackgroundImageFix"/>
<feColorMatrix in="SourceAlpha" type="matrix" values="0 0 0 0 0 0 0 0 0 0 0 0 0 0 0 0 0 0 127 0" result="hardAlpha"/>
<feOffset dy="3.22094"/>
<feGaussianBlur stdDeviation="6.05973"/>
<feColorMatrix type="matrix" values="0 0 0 0 0.0704861 0 0 0 0 0.235625 0 0 0 0 0.483333 0 0 0 0.38 0"/>
<feBlend mode="normal" in2="BackgroundImageFix" result="effect1_dropShadow_1736_3801"/>
<feColorMatrix in="SourceAlpha" type="matrix" values="0 0 0 0 0 0 0 0 0 0 0 0 0 0 0 0 0 0 127 0" result="hardAlpha"/>
<feOffset dy="64.2639"/>
<feGaussianBlur stdDeviation="120.903"/>
<feColorMatrix type="matrix" values="0 0 0 0 0.411765 0 0 0 0 0.0470588 0 0 0 0 1 0 0 0 0.630424 0"/>
<feBlend mode="normal" in2="effect1_dropShadow_1736_3801" result="effect2_dropShadow_1736_3801"/>
<feBlend mode="normal" in="SourceGraphic" in2="effect2_dropShadow_1736_3801" result="shape"/>
</filter>
<filter id="filter27_bii_1736_3801" x="670.295" y="175.49" width="71.7747" height="71.7747" filterUnits="userSpaceOnUse" color-interpolation-filters="sRGB">
<feFlood flood-opacity="0" result="BackgroundImageFix"/>
<feGaussianBlur in="BackgroundImage" stdDeviation="1.15766"/>
<feComposite in2="SourceAlpha" operator="in" result="effect1_backgroundBlur_1736_3801"/>
<feBlend mode="normal" in="SourceGraphic" in2="effect1_backgroundBlur_1736_3801" result="shape"/>
<feColorMatrix in="SourceAlpha" type="matrix" values="0 0 0 0 0 0 0 0 0 0 0 0 0 0 0 0 0 0 127 0" result="hardAlpha"/>
<feOffset dy="-2.31531"/>
<feGaussianBlur stdDeviation="1.15766"/>
<feComposite in2="hardAlpha" operator="arithmetic" k2="-1" k3="1"/>
<feColorMatrix type="matrix" values="0 0 0 0 1 0 0 0 0 1 0 0 0 0 1 0 0 0 0.08 0"/>
<feBlend mode="normal" in2="shape" result="effect2_innerShadow_1736_3801"/>
<feColorMatrix in="SourceAlpha" type="matrix" values="0 0 0 0 0 0 0 0 0 0 0 0 0 0 0 0 0 0 127 0" result="hardAlpha"/>
<feOffset dx="1.15766"/>
<feGaussianBlur stdDeviation="1.15766"/>
<feComposite in2="hardAlpha" operator="arithmetic" k2="-1" k3="1"/>
<feColorMatrix type="matrix" values="0 0 0 0 1 0 0 0 0 1 0 0 0 0 1 0 0 0 0.29 0"/>
<feBlend mode="normal" in2="effect2_innerShadow_1736_3801" result="effect3_innerShadow_1736_3801"/>
</filter>
<filter id="filter28_f_1736_3801" x="586.619" y="521.771" width="28.2711" height="28.2714" filterUnits="userSpaceOnUse" color-interpolation-filters="sRGB">
<feFlood flood-opacity="0" result="BackgroundImageFix"/>
<feBlend mode="normal" in="SourceGraphic" in2="BackgroundImageFix" result="shape"/>
<feGaussianBlur stdDeviation="2.35593" result="effect1_foregroundBlur_1736_3801"/>
</filter>
<filter id="filter29_f_1736_3801" x="594.865" y="530.017" width="11.7796" height="11.7797" filterUnits="userSpaceOnUse" color-interpolation-filters="sRGB">
<feFlood flood-opacity="0" result="BackgroundImageFix"/>
<feBlend mode="normal" in="SourceGraphic" in2="BackgroundImageFix" result="shape"/>
<feGaussianBlur stdDeviation="1.17797" result="effect1_foregroundBlur_1736_3801"/>
</filter>
<filter id="filter30_f_1736_3801" x="649.051" y="141.288" width="28.2711" height="28.2714" filterUnits="userSpaceOnUse" color-interpolation-filters="sRGB">
<feFlood flood-opacity="0" result="BackgroundImageFix"/>
<feBlend mode="normal" in="SourceGraphic" in2="BackgroundImageFix" result="shape"/>
<feGaussianBlur stdDeviation="2.35593" result="effect1_foregroundBlur_1736_3801"/>
</filter>
<filter id="filter31_f_1736_3801" x="657.297" y="149.534" width="11.7796" height="11.7797" filterUnits="userSpaceOnUse" color-interpolation-filters="sRGB">
<feFlood flood-opacity="0" result="BackgroundImageFix"/>
<feBlend mode="normal" in="SourceGraphic" in2="BackgroundImageFix" result="shape"/>
<feGaussianBlur stdDeviation="1.17797" result="effect1_foregroundBlur_1736_3801"/>
</filter>
<filter id="filter32_f_1736_3801" x="299.195" y="237.881" width="28.2711" height="28.2714" filterUnits="userSpaceOnUse" color-interpolation-filters="sRGB">
<feFlood flood-opacity="0" result="BackgroundImageFix"/>
<feBlend mode="normal" in="SourceGraphic" in2="BackgroundImageFix" result="shape"/>
<feGaussianBlur stdDeviation="2.35593" result="effect1_foregroundBlur_1736_3801"/>
</filter>
<filter id="filter33_f_1736_3801" x="307.441" y="246.127" width="11.7797" height="11.7797" filterUnits="userSpaceOnUse" color-interpolation-filters="sRGB">
<feFlood flood-opacity="0" result="BackgroundImageFix"/>
<feBlend mode="normal" in="SourceGraphic" in2="BackgroundImageFix" result="shape"/>
<feGaussianBlur stdDeviation="1.17797" result="effect1_foregroundBlur_1736_3801"/>
</filter>
<linearGradient id="paint0_linear_1736_3801" x1="371.051" y1="291.743" x2="653.804" y2="386.702" gradientUnits="userSpaceOnUse">
<stop stop-color="#01EDF7" stop-opacity="0.69"/>
<stop offset="0.276042" stop-color="#47F2F9" stop-opacity="0.502292"/>
<stop offset="0.557292" stop-color="#8FF7FB" stop-opacity="0.311042"/>
<stop offset="0.770833" stop-color="#A8F9FC" stop-opacity="0.24375"/>
<stop offset="1" stop-color="white" stop-opacity="0.01"/>
</linearGradient>
<linearGradient id="paint1_linear_1736_3801" x1="386.365" y1="309.806" x2="629.675" y2="391.7" gradientUnits="userSpaceOnUse">
<stop stop-color="#01EDF7" stop-opacity="0.69"/>
<stop offset="0.276042" stop-color="#47F2F9" stop-opacity="0.502292"/>
<stop offset="0.557292" stop-color="#8FF7FB" stop-opacity="0.311042"/>
<stop offset="0.770833" stop-color="#A8F9FC" stop-opacity="0.24375"/>
<stop offset="1" stop-color="white" stop-opacity="0.01"/>
</linearGradient>
<radialGradient id="paint2_radial_1736_3801" cx="0" cy="0" r="1" gradientUnits="userSpaceOnUse" gradientTransform="translate(361.627 485.254) rotate(-30.9638) scale(17.1717 9.65183)">
<stop stop-color="#1CA2EB"/>
<stop offset="1" stop-color="#194F8A"/>
</radialGradient>
<linearGradient id="paint3_linear_1736_3801" x1="358.104" y1="481.843" x2="367.033" y2="480.034" gradientUnits="userSpaceOnUse">
<stop stop-color="#1CA2EB"/>
<stop offset="1" stop-color="#194F8A"/>
</linearGradient>
<radialGradient id="paint4_radial_1736_3801" cx="0" cy="0" r="1" gradientUnits="userSpaceOnUse" gradientTransform="translate(508.873 263.797) rotate(-30.9638) scale(17.1717 9.65183)">
<stop stop-color="#1CA2EB"/>
<stop offset="1" stop-color="#194F8A"/>
</radialGradient>
<linearGradient id="paint5_linear_1736_3801" x1="505.349" y1="260.386" x2="514.278" y2="258.576" gradientUnits="userSpaceOnUse">
<stop stop-color="#1CA2EB"/>
<stop offset="1" stop-color="#194F8A"/>
</linearGradient>
<radialGradient id="paint6_radial_1736_3801" cx="0" cy="0" r="1" gradientUnits="userSpaceOnUse" gradientTransform="translate(288.307 200.229) rotate(137.786) scale(27.8485 18.0003)">
<stop stop-color="#00F1FF"/>
<stop offset="1" stop-color="#1CA2EB"/>
</radialGradient>
<radialGradient id="paint7_radial_1736_3801" cx="0" cy="0" r="1" gradientUnits="userSpaceOnUse" gradientTransform="translate(274.527 391.081) rotate(135.434) scale(39.9974 25.9727)">
<stop stop-color="#00F1FF"/>
<stop offset="1" stop-color="#1CA2EB"/>
</radialGradient>
<radialGradient id="paint8_radial_1736_3801" cx="0" cy="0" r="1" gradientUnits="userSpaceOnUse" gradientTransform="translate(720.976 391.67) rotate(135.434) scale(39.9974 25.9727)">
<stop stop-color="#00F1FF"/>
<stop offset="1" stop-color="#1CA2EB"/>
</radialGradient>
<radialGradient id="paint9_radial_1736_3801" cx="0" cy="0" r="1" gradientUnits="userSpaceOnUse" gradientTransform="translate(269.455 606.06) rotate(123.711) scale(33.7406 20.2327)">
<stop stop-color="#00F1FF"/>
<stop offset="1" stop-color="#1CA2EB"/>
</radialGradient>
<radialGradient id="paint10_radial_1736_3801" cx="0" cy="0" r="1" gradientUnits="userSpaceOnUse" gradientTransform="translate(716.352 618.781) rotate(164.927) scale(19.1121 6.23355)">
<stop stop-color="#00F1FF"/>
<stop offset="1" stop-color="#1CA2EB"/>
</radialGradient>
<radialGradient id="paint11_radial_1736_3801" cx="0" cy="0" r="1" gradientUnits="userSpaceOnUse" gradientTransform="translate(716.352 628.794) rotate(164.927) scale(19.1121 6.23355)">
<stop stop-color="#00F1FF"/>
<stop offset="1" stop-color="#1CA2EB"/>
</radialGradient>
<radialGradient id="paint12_radial_1736_3801" cx="0" cy="0" r="1" gradientUnits="userSpaceOnUse" gradientTransform="translate(716.352 638.806) rotate(164.927) scale(19.1121 6.23355)">
<stop stop-color="#00F1FF"/>
<stop offset="1" stop-color="#1CA2EB"/>
</radialGradient>
<radialGradient id="paint13_radial_1736_3801" cx="0" cy="0" r="1" gradientUnits="userSpaceOnUse" gradientTransform="translate(724.676 635.118) rotate(132.869) scale(15.2584 9.88192)">
<stop stop-color="#00F1FF"/>
<stop offset="1" stop-color="#1CA2EB"/>
</radialGradient>
<radialGradient id="paint14_radial_1736_3801" cx="0" cy="0" r="1" gradientUnits="userSpaceOnUse" gradientTransform="translate(721.142 194.36) rotate(134.604) scale(39.4215 25.5992)">
<stop stop-color="#00F1FF"/>
<stop offset="1" stop-color="#1CA2EB"/>
</radialGradient>
<radialGradient id="paint15_radial_1736_3801" cx="0" cy="0" r="1" gradientUnits="userSpaceOnUse" gradientTransform="translate(600.754 535.907) rotate(-30.9638) scale(17.1717 9.65183)">
<stop stop-color="#1CA2EB"/>
<stop offset="1" stop-color="#194F8A"/>
</radialGradient>
<linearGradient id="paint16_linear_1736_3801" x1="597.231" y1="532.496" x2="606.16" y2="530.687" gradientUnits="userSpaceOnUse">
<stop stop-color="#1CA2EB"/>
<stop offset="1" stop-color="#194F8A"/>
</linearGradient>
<radialGradient id="paint17_radial_1736_3801" cx="0" cy="0" r="1" gradientUnits="userSpaceOnUse" gradientTransform="translate(663.186 155.424) rotate(-30.9638) scale(17.1717 9.65183)">
<stop stop-color="#1CA2EB"/>
<stop offset="1" stop-color="#194F8A"/>
</radialGradient>
<linearGradient id="paint18_linear_1736_3801" x1="659.663" y1="152.013" x2="668.592" y2="150.203" gradientUnits="userSpaceOnUse">
<stop stop-color="#1CA2EB"/>
<stop offset="1" stop-color="#194F8A"/>
</linearGradient>
<radialGradient id="paint19_radial_1736_3801" cx="0" cy="0" r="1" gradientUnits="userSpaceOnUse" gradientTransform="translate(313.33 252.017) rotate(-30.9638) scale(17.1717 9.65183)">
<stop stop-color="#1CA2EB"/>
<stop offset="1" stop-color="#194F8A"/>
</radialGradient>
<linearGradient id="paint20_linear_1736_3801" x1="309.807" y1="248.606" x2="318.736" y2="246.796" gradientUnits="userSpaceOnUse">
<stop stop-color="#1CA2EB"/>
<stop offset="1" stop-color="#194F8A"/>
</linearGradient>
<clipPath id="clip0_1736_3801">
<rect width="40.0508" height="40.0508" fill="white" transform="translate(686.746 611.886)"/>
</clipPath>
</defs>
</svg>
