<svg width="736" height="638" viewBox="0 0 736 638" fill="none" xmlns="http://www.w3.org/2000/svg">
<g filter="url(#filter0_ddii_1746_3805)">
<path d="M506.741 225.614L491.499 221.064C490.446 217.385 488.996 213.831 487.177 210.463L494.639 196.496C494.919 195.969 495.021 195.365 494.931 194.775C494.841 194.185 494.563 193.64 494.138 193.22L483.264 182.301C482.845 181.877 482.3 181.599 481.71 181.508C481.119 181.418 480.516 181.521 479.989 181.801L466.112 189.217C462.712 187.309 459.111 185.783 455.375 184.667L450.826 169.608C450.633 169.053 450.27 168.573 449.787 168.238C449.305 167.903 448.729 167.729 448.141 167.742H432.764C432.173 167.745 431.598 167.936 431.124 168.288C430.649 168.64 430.299 169.134 430.125 169.699L425.575 184.713C421.808 185.823 418.176 187.348 414.747 189.262L401.098 181.892C400.571 181.612 399.968 181.509 399.377 181.599C398.787 181.69 398.242 181.968 397.822 182.392L386.767 193.175C386.342 193.594 386.064 194.14 385.974 194.73C385.884 195.32 385.986 195.923 386.266 196.451L393.637 210.099C391.726 213.514 390.2 217.131 389.087 220.882L374.028 225.432C373.463 225.606 372.969 225.956 372.617 226.431C372.266 226.905 372.074 227.48 372.072 228.07V243.448C372.074 244.039 372.266 244.614 372.617 245.088C372.969 245.563 373.463 245.913 374.028 246.087L389.178 250.637C390.303 254.326 391.829 257.88 393.728 261.237L386.266 275.523C385.986 276.05 385.884 276.654 385.974 277.244C386.064 277.834 386.342 278.379 386.767 278.799L397.64 289.672C398.06 290.097 398.605 290.375 399.195 290.465C399.786 290.555 400.389 290.453 400.916 290.173L414.975 282.666C418.3 284.461 421.808 285.894 425.439 286.943L429.988 302.275C430.163 302.839 430.513 303.334 430.987 303.685C431.462 304.037 432.036 304.229 432.627 304.231H448.005C448.596 304.229 449.17 304.037 449.645 303.685C450.119 303.334 450.469 302.839 450.644 302.275L455.193 286.897C458.793 285.843 462.27 284.41 465.566 282.621L479.716 290.173C480.243 290.453 480.846 290.555 481.437 290.465C482.027 290.375 482.572 290.097 482.992 289.672L493.865 278.799C494.29 278.379 494.568 277.834 494.658 277.244C494.748 276.654 494.646 276.05 494.366 275.523L486.813 261.419C488.621 258.11 490.07 254.618 491.135 251.001L506.468 246.451C507.032 246.277 507.526 245.927 507.878 245.452C508.23 244.978 508.421 244.403 508.424 243.812V228.298C508.451 227.732 508.304 227.172 508.003 226.692C507.702 226.212 507.262 225.836 506.741 225.614ZM440.452 261.01C435.503 261.01 430.665 259.542 426.55 256.793C422.435 254.043 419.228 250.135 417.334 245.563C415.44 240.99 414.945 235.959 415.91 231.105C416.876 226.251 419.259 221.792 422.759 218.293C426.258 214.793 430.717 212.41 435.571 211.445C440.425 210.479 445.456 210.975 450.028 212.869C454.601 214.763 458.509 217.97 461.258 222.085C464.008 226.2 465.475 231.038 465.475 235.987C465.475 242.623 462.839 248.988 458.146 253.681C453.454 258.373 447.089 261.01 440.452 261.01Z" fill="url(#paint0_linear_1746_3805)"/>
<path d="M506.741 225.614L491.499 221.064C490.446 217.385 488.996 213.831 487.177 210.463L494.639 196.496C494.919 195.969 495.021 195.365 494.931 194.775C494.841 194.185 494.563 193.64 494.138 193.22L483.264 182.301C482.845 181.877 482.3 181.599 481.71 181.508C481.119 181.418 480.516 181.521 479.989 181.801L466.112 189.217C462.712 187.309 459.111 185.783 455.375 184.667L450.826 169.608C450.633 169.053 450.27 168.573 449.787 168.238C449.305 167.903 448.729 167.729 448.141 167.742H432.764C432.173 167.745 431.598 167.936 431.124 168.288C430.649 168.64 430.299 169.134 430.125 169.699L425.575 184.713C421.808 185.823 418.176 187.348 414.747 189.262L401.098 181.892C400.571 181.612 399.968 181.509 399.377 181.599C398.787 181.69 398.242 181.968 397.822 182.392L386.767 193.175C386.342 193.594 386.064 194.14 385.974 194.73C385.884 195.32 385.986 195.923 386.266 196.451L393.637 210.099C391.726 213.514 390.2 217.131 389.087 220.882L374.028 225.432C373.463 225.606 372.969 225.956 372.617 226.431C372.266 226.905 372.074 227.48 372.072 228.07V243.448C372.074 244.039 372.266 244.614 372.617 245.088C372.969 245.563 373.463 245.913 374.028 246.087L389.178 250.637C390.303 254.326 391.829 257.88 393.728 261.237L386.266 275.523C385.986 276.05 385.884 276.654 385.974 277.244C386.064 277.834 386.342 278.379 386.767 278.799L397.64 289.672C398.06 290.097 398.605 290.375 399.195 290.465C399.786 290.555 400.389 290.453 400.916 290.173L414.975 282.666C418.3 284.461 421.808 285.894 425.439 286.943L429.988 302.275C430.163 302.839 430.513 303.334 430.987 303.685C431.462 304.037 432.036 304.229 432.627 304.231H448.005C448.596 304.229 449.17 304.037 449.645 303.685C450.119 303.334 450.469 302.839 450.644 302.275L455.193 286.897C458.793 285.843 462.27 284.41 465.566 282.621L479.716 290.173C480.243 290.453 480.846 290.555 481.437 290.465C482.027 290.375 482.572 290.097 482.992 289.672L493.865 278.799C494.29 278.379 494.568 277.834 494.658 277.244C494.748 276.654 494.646 276.05 494.366 275.523L486.813 261.419C488.621 258.11 490.07 254.618 491.135 251.001L506.468 246.451C507.032 246.277 507.526 245.927 507.878 245.452C508.23 244.978 508.421 244.403 508.424 243.812V228.298C508.451 227.732 508.304 227.172 508.003 226.692C507.702 226.212 507.262 225.836 506.741 225.614ZM440.452 261.01C435.503 261.01 430.665 259.542 426.55 256.793C422.435 254.043 419.228 250.135 417.334 245.563C415.44 240.99 414.945 235.959 415.91 231.105C416.876 226.251 419.259 221.792 422.759 218.293C426.258 214.793 430.717 212.41 435.571 211.445C440.425 210.479 445.456 210.975 450.028 212.869C454.601 214.763 458.509 217.97 461.258 222.085C464.008 226.2 465.475 231.038 465.475 235.987C465.475 242.623 462.839 248.988 458.146 253.681C453.454 258.373 447.089 261.01 440.452 261.01Z" fill="url(#paint1_linear_1746_3805)"/>
</g>
<g filter="url(#filter1_dddd_1746_3805)">
<g filter="url(#filter2_bii_1746_3805)">
<rect x="371.84" y="368.787" width="30.6719" height="30.6719" rx="2.1153" fill="#04093E"/>
</g>
<path d="M379.758 382.954H377.907V381.603H383.305V382.954H381.463V387.629H379.758V382.954ZM386.575 386.028H385.645V387.629H383.941V381.603H386.696C387.241 381.603 387.714 381.694 388.116 381.878C388.518 382.056 388.828 382.314 389.046 382.653C389.264 382.986 389.373 383.379 389.373 383.833C389.373 384.269 389.27 384.65 389.063 384.978C388.862 385.299 388.573 385.552 388.194 385.735L389.494 387.629H387.669L386.575 386.028ZM387.651 383.833C387.651 383.551 387.562 383.333 387.384 383.178C387.207 383.023 386.942 382.946 386.592 382.946H385.645V384.711H386.592C386.942 384.711 387.207 384.636 387.384 384.487C387.562 384.332 387.651 384.114 387.651 383.833ZM394.352 386.458H391.803L391.33 387.629H389.591L392.251 381.603H393.93L396.599 387.629H394.825L394.352 386.458ZM393.852 385.201L393.077 383.273L392.303 385.201H393.852Z" fill="white"/>
<path d="M379.758 382.954H377.907V381.603H383.305V382.954H381.463V387.629H379.758V382.954ZM386.575 386.028H385.645V387.629H383.941V381.603H386.696C387.241 381.603 387.714 381.694 388.116 381.878C388.518 382.056 388.828 382.314 389.046 382.653C389.264 382.986 389.373 383.379 389.373 383.833C389.373 384.269 389.27 384.65 389.063 384.978C388.862 385.299 388.573 385.552 388.194 385.735L389.494 387.629H387.669L386.575 386.028ZM387.651 383.833C387.651 383.551 387.562 383.333 387.384 383.178C387.207 383.023 386.942 382.946 386.592 382.946H385.645V384.711H386.592C386.942 384.711 387.207 384.636 387.384 384.487C387.562 384.332 387.651 384.114 387.651 383.833ZM394.352 386.458H391.803L391.33 387.629H389.591L392.251 381.603H393.93L396.599 387.629H394.825L394.352 386.458ZM393.852 385.201L393.077 383.273L392.303 385.201H393.852Z" fill="url(#paint2_radial_1746_3805)"/>
</g>
<g filter="url(#filter3_ddddd_1746_3805)">
<g filter="url(#filter4_bii_1746_3805)">
<rect x="203.627" y="189.507" width="30.6719" height="30.6719" rx="2.1153" fill="#04093E"/>
</g>
<path d="M212.384 208.47C211.896 208.47 211.423 208.409 210.964 208.289C210.504 208.168 210.131 208.008 209.844 207.807L210.404 206.55C210.674 206.728 210.987 206.871 211.342 206.98C211.698 207.089 212.048 207.144 212.393 207.144C213.047 207.144 213.374 206.98 213.374 206.653C213.374 206.481 213.28 206.355 213.09 206.274C212.906 206.188 212.608 206.099 212.195 206.007C211.741 205.91 211.362 205.806 211.058 205.697C210.754 205.583 210.493 205.402 210.275 205.155C210.057 204.908 209.948 204.575 209.948 204.156C209.948 203.789 210.048 203.459 210.249 203.166C210.45 202.868 210.748 202.632 211.144 202.46C211.546 202.288 212.037 202.202 212.617 202.202C213.013 202.202 213.403 202.248 213.788 202.34C214.172 202.426 214.511 202.555 214.803 202.727L214.278 203.993C213.704 203.683 213.148 203.528 212.608 203.528C212.269 203.528 212.023 203.579 211.868 203.683C211.713 203.78 211.635 203.909 211.635 204.07C211.635 204.231 211.727 204.351 211.911 204.432C212.094 204.512 212.39 204.595 212.797 204.681C213.257 204.779 213.635 204.885 213.934 205C214.238 205.109 214.499 205.287 214.717 205.534C214.941 205.775 215.053 206.105 215.053 206.524C215.053 206.885 214.953 207.213 214.752 207.505C214.551 207.798 214.25 208.033 213.848 208.211C213.446 208.384 212.958 208.47 212.384 208.47ZM218.845 208.47C218.214 208.47 217.646 208.338 217.141 208.074C216.641 207.804 216.248 207.431 215.961 206.954C215.674 206.478 215.531 205.938 215.531 205.336C215.531 204.733 215.674 204.194 215.961 203.717C216.248 203.241 216.641 202.871 217.141 202.606C217.646 202.337 218.214 202.202 218.845 202.202C219.396 202.202 219.893 202.299 220.335 202.495C220.777 202.69 221.144 202.971 221.437 203.338L220.352 204.32C219.962 203.849 219.488 203.614 218.931 203.614C218.604 203.614 218.312 203.686 218.053 203.829C217.801 203.973 217.603 204.176 217.459 204.44C217.321 204.699 217.253 204.997 217.253 205.336C217.253 205.674 217.321 205.976 217.459 206.24C217.603 206.498 217.801 206.699 218.053 206.842C218.312 206.986 218.604 207.058 218.931 207.058C219.488 207.058 219.962 206.822 220.352 206.352L221.437 207.333C221.144 207.701 220.777 207.982 220.335 208.177C219.893 208.372 219.396 208.47 218.845 208.47ZM226.134 207.178H223.586L223.112 208.349H221.373L224.033 202.322H225.712L228.381 208.349H226.608L226.134 207.178ZM225.635 205.921L224.86 203.993L224.085 205.921H225.635Z" fill="white"/>
<path d="M212.384 208.47C211.896 208.47 211.423 208.409 210.964 208.289C210.504 208.168 210.131 208.008 209.844 207.807L210.404 206.55C210.674 206.728 210.987 206.871 211.342 206.98C211.698 207.089 212.048 207.144 212.393 207.144C213.047 207.144 213.374 206.98 213.374 206.653C213.374 206.481 213.28 206.355 213.09 206.274C212.906 206.188 212.608 206.099 212.195 206.007C211.741 205.91 211.362 205.806 211.058 205.697C210.754 205.583 210.493 205.402 210.275 205.155C210.057 204.908 209.948 204.575 209.948 204.156C209.948 203.789 210.048 203.459 210.249 203.166C210.45 202.868 210.748 202.632 211.144 202.46C211.546 202.288 212.037 202.202 212.617 202.202C213.013 202.202 213.403 202.248 213.788 202.34C214.172 202.426 214.511 202.555 214.803 202.727L214.278 203.993C213.704 203.683 213.148 203.528 212.608 203.528C212.269 203.528 212.023 203.579 211.868 203.683C211.713 203.78 211.635 203.909 211.635 204.07C211.635 204.231 211.727 204.351 211.911 204.432C212.094 204.512 212.39 204.595 212.797 204.681C213.257 204.779 213.635 204.885 213.934 205C214.238 205.109 214.499 205.287 214.717 205.534C214.941 205.775 215.053 206.105 215.053 206.524C215.053 206.885 214.953 207.213 214.752 207.505C214.551 207.798 214.25 208.033 213.848 208.211C213.446 208.384 212.958 208.47 212.384 208.47ZM218.845 208.47C218.214 208.47 217.646 208.338 217.141 208.074C216.641 207.804 216.248 207.431 215.961 206.954C215.674 206.478 215.531 205.938 215.531 205.336C215.531 204.733 215.674 204.194 215.961 203.717C216.248 203.241 216.641 202.871 217.141 202.606C217.646 202.337 218.214 202.202 218.845 202.202C219.396 202.202 219.893 202.299 220.335 202.495C220.777 202.69 221.144 202.971 221.437 203.338L220.352 204.32C219.962 203.849 219.488 203.614 218.931 203.614C218.604 203.614 218.312 203.686 218.053 203.829C217.801 203.973 217.603 204.176 217.459 204.44C217.321 204.699 217.253 204.997 217.253 205.336C217.253 205.674 217.321 205.976 217.459 206.24C217.603 206.498 217.801 206.699 218.053 206.842C218.312 206.986 218.604 207.058 218.931 207.058C219.488 207.058 219.962 206.822 220.352 206.352L221.437 207.333C221.144 207.701 220.777 207.982 220.335 208.177C219.893 208.372 219.396 208.47 218.845 208.47ZM226.134 207.178H223.586L223.112 208.349H221.373L224.033 202.322H225.712L228.381 208.349H226.608L226.134 207.178ZM225.635 205.921L224.86 203.993L224.085 205.921H225.635Z" fill="url(#paint3_radial_1746_3805)"/>
</g>
<g filter="url(#filter5_f_1746_3805)">
<circle cx="206.15" cy="273.922" r="8.85333" transform="rotate(-40.5583 206.15 273.922)" fill="url(#paint4_radial_1746_3805)" fill-opacity="0.5"/>
</g>
<g filter="url(#filter6_f_1746_3805)">
<circle cx="206.15" cy="273.923" r="3.32" transform="rotate(-40.5583 206.15 273.923)" fill="#00F1FF"/>
<circle cx="206.15" cy="273.923" r="3.32" transform="rotate(-40.5583 206.15 273.923)" fill="url(#paint5_linear_1746_3805)" fill-opacity="0.75"/>
</g>
<g filter="url(#filter7_f_1746_3805)">
<circle cx="274.615" cy="372.643" r="8.85333" transform="rotate(-40.5583 274.615 372.643)" fill="url(#paint6_radial_1746_3805)" fill-opacity="0.5"/>
</g>
<g filter="url(#filter8_f_1746_3805)">
<circle cx="274.615" cy="372.643" r="3.32" transform="rotate(-40.5583 274.615 372.643)" fill="#00F1FF"/>
<circle cx="274.615" cy="372.643" r="3.32" transform="rotate(-40.5583 274.615 372.643)" fill="url(#paint7_linear_1746_3805)" fill-opacity="0.75"/>
</g>
<g filter="url(#filter9_ddii_1746_3805)">
<rect x="227.973" y="229.347" width="212.48" height="120.627" rx="8.85333" fill="url(#paint8_linear_1746_3805)"/>
<rect x="227.973" y="229.347" width="212.48" height="120.627" rx="8.85333" fill="url(#paint9_linear_1746_3805)"/>
</g>
<g filter="url(#filter10_ii_1746_3805)">
<rect x="236.826" y="240.413" width="196.987" height="17.7067" rx="8.85333" fill="white" fill-opacity="0.15"/>
</g>
<g filter="url(#filter11_f_1746_3805)">
<circle cx="400.613" cy="269.186" r="8.85333" fill="url(#paint10_radial_1746_3805)" fill-opacity="0.5"/>
</g>
<g filter="url(#filter12_f_1746_3805)">
<circle cx="400.613" cy="269.187" r="3.32" fill="#00F1FF"/>
<circle cx="400.613" cy="269.187" r="3.32" fill="url(#paint11_linear_1746_3805)" fill-opacity="0.75"/>
</g>
<g filter="url(#filter13_f_1746_3805)">
<circle cx="231.293" cy="295.747" r="8.85333" fill="url(#paint12_radial_1746_3805)" fill-opacity="0.5"/>
</g>
<g filter="url(#filter14_f_1746_3805)">
<circle cx="231.293" cy="295.747" r="3.32" fill="#00F1FF"/>
<circle cx="231.293" cy="295.747" r="3.32" fill="url(#paint13_linear_1746_3805)" fill-opacity="0.75"/>
</g>
<g filter="url(#filter15_f_1746_3805)">
<circle cx="270.027" cy="190.613" r="8.85333" fill="url(#paint14_radial_1746_3805)" fill-opacity="0.5"/>
</g>
<g filter="url(#filter16_f_1746_3805)">
<circle cx="270.027" cy="190.613" r="3.32" fill="#00F1FF"/>
<circle cx="270.027" cy="190.613" r="3.32" fill="url(#paint15_linear_1746_3805)" fill-opacity="0.75"/>
</g>
<g filter="url(#filter17_f_1746_3805)">
<circle cx="322.04" cy="238.2" r="7.74667" fill="url(#paint16_radial_1746_3805)" fill-opacity="0.5"/>
</g>
<g filter="url(#filter18_f_1746_3805)">
<circle cx="322.593" cy="238.753" r="2.76667" fill="#00F1FF"/>
<circle cx="322.593" cy="238.753" r="2.76667" fill="url(#paint17_linear_1746_3805)" fill-opacity="0.75"/>
</g>
<g filter="url(#filter19_ddddii_1746_3805)">
<path d="M239.593 279.146L196.987 298.262V326.934C196.987 353.457 215.165 378.259 239.593 384.28C264.021 378.259 282.2 353.457 282.2 326.934V298.262L239.593 279.146Z" fill="url(#paint18_linear_1746_3805)"/>
</g>
<g filter="url(#filter20_i_1746_3805)">
<path d="M239.593 292.427L209.16 306.31V327.136C209.16 346.399 222.145 364.413 239.593 368.787C257.041 364.413 270.026 346.399 270.026 327.136V306.31L239.593 292.427Z" fill="white" fill-opacity="0.15"/>
</g>
<defs>
<filter id="filter0_ddii_1746_3805" x="144.901" y="0.945286" width="590.697" height="590.831" filterUnits="userSpaceOnUse" color-interpolation-filters="sRGB">
<feFlood flood-opacity="0" result="BackgroundImageFix"/>
<feColorMatrix in="SourceAlpha" type="matrix" values="0 0 0 0 0 0 0 0 0 0 0 0 0 0 0 0 0 0 127 0" result="hardAlpha"/>
<feOffset dy="3.02598"/>
<feGaussianBlur stdDeviation="5.69295"/>
<feColorMatrix type="matrix" values="0 0 0 0 0.0704861 0 0 0 0 0.235625 0 0 0 0 0.483333 0 0 0 0.38 0"/>
<feBlend mode="normal" in2="BackgroundImageFix" result="effect1_dropShadow_1746_3805"/>
<feColorMatrix in="SourceAlpha" type="matrix" values="0 0 0 0 0 0 0 0 0 0 0 0 0 0 0 0 0 0 127 0" result="hardAlpha"/>
<feOffset dy="60.3742"/>
<feGaussianBlur stdDeviation="113.585"/>
<feColorMatrix type="matrix" values="0 0 0 0 0.411765 0 0 0 0 0.0470588 0 0 0 0 1 0 0 0 0.630424 0"/>
<feBlend mode="normal" in2="effect1_dropShadow_1746_3805" result="effect2_dropShadow_1746_3805"/>
<feBlend mode="normal" in="SourceGraphic" in2="effect2_dropShadow_1746_3805" result="shape"/>
<feColorMatrix in="SourceAlpha" type="matrix" values="0 0 0 0 0 0 0 0 0 0 0 0 0 0 0 0 0 0 127 0" result="hardAlpha"/>
<feOffset dy="-4.42667"/>
<feGaussianBlur stdDeviation="2.21333"/>
<feComposite in2="hardAlpha" operator="arithmetic" k2="-1" k3="1"/>
<feColorMatrix type="matrix" values="0 0 0 0 1 0 0 0 0 1 0 0 0 0 1 0 0 0 0.08 0"/>
<feBlend mode="normal" in2="shape" result="effect3_innerShadow_1746_3805"/>
<feColorMatrix in="SourceAlpha" type="matrix" values="0 0 0 0 0 0 0 0 0 0 0 0 0 0 0 0 0 0 127 0" result="hardAlpha"/>
<feOffset dx="2.21333"/>
<feGaussianBlur stdDeviation="2.21333"/>
<feComposite in2="hardAlpha" operator="arithmetic" k2="-1" k3="1"/>
<feColorMatrix type="matrix" values="0 0 0 0 1 0 0 0 0 1 0 0 0 0 1 0 0 0 0.29 0"/>
<feBlend mode="normal" in2="effect3_innerShadow_1746_3805" result="effect4_innerShadow_1746_3805"/>
</filter>
<filter id="filter1_dddd_1746_3805" x="204.176" y="245.682" width="366" height="366" filterUnits="userSpaceOnUse" color-interpolation-filters="sRGB">
<feFlood flood-opacity="0" result="BackgroundImageFix"/>
<feColorMatrix in="SourceAlpha" type="matrix" values="0 0 0 0 0 0 0 0 0 0 0 0 0 0 0 0 0 0 127 0" result="hardAlpha"/>
<feOffset dy="1.47135"/>
<feGaussianBlur stdDeviation="2.76813"/>
<feColorMatrix type="matrix" values="0 0 0 0 0.0704861 0 0 0 0 0.235625 0 0 0 0 0.483333 0 0 0 0.38 0"/>
<feBlend mode="normal" in2="BackgroundImageFix" result="effect1_dropShadow_1746_3805"/>
<feColorMatrix in="SourceAlpha" type="matrix" values="0 0 0 0 0 0 0 0 0 0 0 0 0 0 0 0 0 0 127 0" result="hardAlpha"/>
<feOffset dy="29.3562"/>
<feGaussianBlur stdDeviation="55.2295"/>
<feColorMatrix type="matrix" values="0 0 0 0 0.411765 0 0 0 0 0.0470588 0 0 0 0 1 0 0 0 0.630424 0"/>
<feBlend mode="normal" in2="effect1_dropShadow_1746_3805" result="effect2_dropShadow_1746_3805"/>
<feColorMatrix in="SourceAlpha" type="matrix" values="0 0 0 0 0 0 0 0 0 0 0 0 0 0 0 0 0 0 127 0" result="hardAlpha"/>
<feOffset dy="2.23333"/>
<feGaussianBlur stdDeviation="4.2017"/>
<feColorMatrix type="matrix" values="0 0 0 0 0.0704861 0 0 0 0 0.235625 0 0 0 0 0.483333 0 0 0 0.38 0"/>
<feBlend mode="normal" in2="effect2_dropShadow_1746_3805" result="effect3_dropShadow_1746_3805"/>
<feColorMatrix in="SourceAlpha" type="matrix" values="0 0 0 0 0 0 0 0 0 0 0 0 0 0 0 0 0 0 127 0" result="hardAlpha"/>
<feOffset dy="44.5593"/>
<feGaussianBlur stdDeviation="83.832"/>
<feColorMatrix type="matrix" values="0 0 0 0 0.411765 0 0 0 0 0.0470588 0 0 0 0 1 0 0 0 0.630424 0"/>
<feBlend mode="normal" in2="effect3_dropShadow_1746_3805" result="effect4_dropShadow_1746_3805"/>
<feBlend mode="normal" in="SourceGraphic" in2="effect4_dropShadow_1746_3805" result="shape"/>
</filter>
<filter id="filter2_bii_1746_3805" x="370.782" y="367.729" width="32.7872" height="32.7872" filterUnits="userSpaceOnUse" color-interpolation-filters="sRGB">
<feFlood flood-opacity="0" result="BackgroundImageFix"/>
<feGaussianBlur in="BackgroundImage" stdDeviation="0.528826"/>
<feComposite in2="SourceAlpha" operator="in" result="effect1_backgroundBlur_1746_3805"/>
<feBlend mode="normal" in="SourceGraphic" in2="effect1_backgroundBlur_1746_3805" result="shape"/>
<feColorMatrix in="SourceAlpha" type="matrix" values="0 0 0 0 0 0 0 0 0 0 0 0 0 0 0 0 0 0 127 0" result="hardAlpha"/>
<feOffset dy="-1.05765"/>
<feGaussianBlur stdDeviation="0.528826"/>
<feComposite in2="hardAlpha" operator="arithmetic" k2="-1" k3="1"/>
<feColorMatrix type="matrix" values="0 0 0 0 1 0 0 0 0 1 0 0 0 0 1 0 0 0 0.08 0"/>
<feBlend mode="normal" in2="shape" result="effect2_innerShadow_1746_3805"/>
<feColorMatrix in="SourceAlpha" type="matrix" values="0 0 0 0 0 0 0 0 0 0 0 0 0 0 0 0 0 0 127 0" result="hardAlpha"/>
<feOffset dx="0.528826"/>
<feGaussianBlur stdDeviation="0.528826"/>
<feComposite in2="hardAlpha" operator="arithmetic" k2="-1" k3="1"/>
<feColorMatrix type="matrix" values="0 0 0 0 1 0 0 0 0 1 0 0 0 0 1 0 0 0 0.29 0"/>
<feBlend mode="normal" in2="effect2_innerShadow_1746_3805" result="effect3_innerShadow_1746_3805"/>
</filter>
<filter id="filter3_ddddd_1746_3805" x="35.9628" y="66.4022" width="366" height="366" filterUnits="userSpaceOnUse" color-interpolation-filters="sRGB">
<feFlood flood-opacity="0" result="BackgroundImageFix"/>
<feColorMatrix in="SourceAlpha" type="matrix" values="0 0 0 0 0 0 0 0 0 0 0 0 0 0 0 0 0 0 127 0" result="hardAlpha"/>
<feOffset dy="1.47135"/>
<feGaussianBlur stdDeviation="2.76813"/>
<feColorMatrix type="matrix" values="0 0 0 0 0.0704861 0 0 0 0 0.235625 0 0 0 0 0.483333 0 0 0 0.38 0"/>
<feBlend mode="normal" in2="BackgroundImageFix" result="effect1_dropShadow_1746_3805"/>
<feColorMatrix in="SourceAlpha" type="matrix" values="0 0 0 0 0 0 0 0 0 0 0 0 0 0 0 0 0 0 127 0" result="hardAlpha"/>
<feOffset dy="29.3562"/>
<feGaussianBlur stdDeviation="55.2295"/>
<feColorMatrix type="matrix" values="0 0 0 0 0.411765 0 0 0 0 0.0470588 0 0 0 0 1 0 0 0 0.630424 0"/>
<feBlend mode="normal" in2="effect1_dropShadow_1746_3805" result="effect2_dropShadow_1746_3805"/>
<feColorMatrix in="SourceAlpha" type="matrix" values="0 0 0 0 0 0 0 0 0 0 0 0 0 0 0 0 0 0 127 0" result="hardAlpha"/>
<feOffset dy="2.23333"/>
<feGaussianBlur stdDeviation="4.2017"/>
<feColorMatrix type="matrix" values="0 0 0 0 0.0704861 0 0 0 0 0.235625 0 0 0 0 0.483333 0 0 0 0.38 0"/>
<feBlend mode="normal" in2="effect2_dropShadow_1746_3805" result="effect3_dropShadow_1746_3805"/>
<feColorMatrix in="SourceAlpha" type="matrix" values="0 0 0 0 0 0 0 0 0 0 0 0 0 0 0 0 0 0 127 0" result="hardAlpha"/>
<feOffset dy="44.5593"/>
<feGaussianBlur stdDeviation="83.832"/>
<feColorMatrix type="matrix" values="0 0 0 0 0.411765 0 0 0 0 0.0470588 0 0 0 0 1 0 0 0 0.630424 0"/>
<feBlend mode="normal" in2="effect3_dropShadow_1746_3805" result="effect4_dropShadow_1746_3805"/>
<feColorMatrix in="SourceAlpha" type="matrix" values="0 0 0 0 0 0 0 0 0 0 0 0 0 0 0 0 0 0 127 0" result="hardAlpha"/>
<feOffset dy="2.23333"/>
<feGaussianBlur stdDeviation="4.2017"/>
<feColorMatrix type="matrix" values="0 0 0 0 0.0704861 0 0 0 0 0.235625 0 0 0 0 0.483333 0 0 0 0.38 0"/>
<feBlend mode="normal" in2="effect4_dropShadow_1746_3805" result="effect5_dropShadow_1746_3805"/>
<feBlend mode="normal" in="SourceGraphic" in2="effect5_dropShadow_1746_3805" result="shape"/>
</filter>
<filter id="filter4_bii_1746_3805" x="202.569" y="188.449" width="32.7872" height="32.7872" filterUnits="userSpaceOnUse" color-interpolation-filters="sRGB">
<feFlood flood-opacity="0" result="BackgroundImageFix"/>
<feGaussianBlur in="BackgroundImage" stdDeviation="0.528826"/>
<feComposite in2="SourceAlpha" operator="in" result="effect1_backgroundBlur_1746_3805"/>
<feBlend mode="normal" in="SourceGraphic" in2="effect1_backgroundBlur_1746_3805" result="shape"/>
<feColorMatrix in="SourceAlpha" type="matrix" values="0 0 0 0 0 0 0 0 0 0 0 0 0 0 0 0 0 0 127 0" result="hardAlpha"/>
<feOffset dy="-1.05765"/>
<feGaussianBlur stdDeviation="0.528826"/>
<feComposite in2="hardAlpha" operator="arithmetic" k2="-1" k3="1"/>
<feColorMatrix type="matrix" values="0 0 0 0 1 0 0 0 0 1 0 0 0 0 1 0 0 0 0.08 0"/>
<feBlend mode="normal" in2="shape" result="effect2_innerShadow_1746_3805"/>
<feColorMatrix in="SourceAlpha" type="matrix" values="0 0 0 0 0 0 0 0 0 0 0 0 0 0 0 0 0 0 127 0" result="hardAlpha"/>
<feOffset dx="0.528826"/>
<feGaussianBlur stdDeviation="0.528826"/>
<feComposite in2="hardAlpha" operator="arithmetic" k2="-1" k3="1"/>
<feColorMatrix type="matrix" values="0 0 0 0 1 0 0 0 0 1 0 0 0 0 1 0 0 0 0.29 0"/>
<feBlend mode="normal" in2="effect2_innerShadow_1746_3805" result="effect3_innerShadow_1746_3805"/>
</filter>
<filter id="filter5_f_1746_3805" x="192.869" y="260.642" width="26.5604" height="26.5604" filterUnits="userSpaceOnUse" color-interpolation-filters="sRGB">
<feFlood flood-opacity="0" result="BackgroundImageFix"/>
<feBlend mode="normal" in="SourceGraphic" in2="BackgroundImageFix" result="shape"/>
<feGaussianBlur stdDeviation="2.21333" result="effect1_foregroundBlur_1746_3805"/>
</filter>
<filter id="filter6_f_1746_3805" x="200.616" y="268.389" width="11.0667" height="11.0668" filterUnits="userSpaceOnUse" color-interpolation-filters="sRGB">
<feFlood flood-opacity="0" result="BackgroundImageFix"/>
<feBlend mode="normal" in="SourceGraphic" in2="BackgroundImageFix" result="shape"/>
<feGaussianBlur stdDeviation="1.10667" result="effect1_foregroundBlur_1746_3805"/>
</filter>
<filter id="filter7_f_1746_3805" x="261.334" y="359.363" width="26.5604" height="26.5604" filterUnits="userSpaceOnUse" color-interpolation-filters="sRGB">
<feFlood flood-opacity="0" result="BackgroundImageFix"/>
<feBlend mode="normal" in="SourceGraphic" in2="BackgroundImageFix" result="shape"/>
<feGaussianBlur stdDeviation="2.21333" result="effect1_foregroundBlur_1746_3805"/>
</filter>
<filter id="filter8_f_1746_3805" x="269.081" y="367.109" width="11.0667" height="11.0668" filterUnits="userSpaceOnUse" color-interpolation-filters="sRGB">
<feFlood flood-opacity="0" result="BackgroundImageFix"/>
<feBlend mode="normal" in="SourceGraphic" in2="BackgroundImageFix" result="shape"/>
<feGaussianBlur stdDeviation="1.10667" result="effect1_foregroundBlur_1746_3805"/>
</filter>
<filter id="filter9_ddii_1746_3805" x="0.802567" y="62.5503" width="666.821" height="574.968" filterUnits="userSpaceOnUse" color-interpolation-filters="sRGB">
<feFlood flood-opacity="0" result="BackgroundImageFix"/>
<feColorMatrix in="SourceAlpha" type="matrix" values="0 0 0 0 0 0 0 0 0 0 0 0 0 0 0 0 0 0 127 0" result="hardAlpha"/>
<feOffset dy="3.02598"/>
<feGaussianBlur stdDeviation="5.69295"/>
<feColorMatrix type="matrix" values="0 0 0 0 0.0704861 0 0 0 0 0.235625 0 0 0 0 0.483333 0 0 0 0.38 0"/>
<feBlend mode="normal" in2="BackgroundImageFix" result="effect1_dropShadow_1746_3805"/>
<feColorMatrix in="SourceAlpha" type="matrix" values="0 0 0 0 0 0 0 0 0 0 0 0 0 0 0 0 0 0 127 0" result="hardAlpha"/>
<feOffset dy="60.3742"/>
<feGaussianBlur stdDeviation="113.585"/>
<feColorMatrix type="matrix" values="0 0 0 0 0.411765 0 0 0 0 0.0470588 0 0 0 0 1 0 0 0 0.630424 0"/>
<feBlend mode="normal" in2="effect1_dropShadow_1746_3805" result="effect2_dropShadow_1746_3805"/>
<feBlend mode="normal" in="SourceGraphic" in2="effect2_dropShadow_1746_3805" result="shape"/>
<feColorMatrix in="SourceAlpha" type="matrix" values="0 0 0 0 0 0 0 0 0 0 0 0 0 0 0 0 0 0 127 0" result="hardAlpha"/>
<feOffset dy="-4.42667"/>
<feGaussianBlur stdDeviation="2.21333"/>
<feComposite in2="hardAlpha" operator="arithmetic" k2="-1" k3="1"/>
<feColorMatrix type="matrix" values="0 0 0 0 1 0 0 0 0 1 0 0 0 0 1 0 0 0 0.08 0"/>
<feBlend mode="normal" in2="shape" result="effect3_innerShadow_1746_3805"/>
<feColorMatrix in="SourceAlpha" type="matrix" values="0 0 0 0 0 0 0 0 0 0 0 0 0 0 0 0 0 0 127 0" result="hardAlpha"/>
<feOffset dx="2.21333"/>
<feGaussianBlur stdDeviation="2.21333"/>
<feComposite in2="hardAlpha" operator="arithmetic" k2="-1" k3="1"/>
<feColorMatrix type="matrix" values="0 0 0 0 1 0 0 0 0 1 0 0 0 0 1 0 0 0 0.29 0"/>
<feBlend mode="normal" in2="effect3_innerShadow_1746_3805" result="effect4_innerShadow_1746_3805"/>
</filter>
<filter id="filter10_ii_1746_3805" x="236.826" y="235.986" width="196.987" height="26.5599" filterUnits="userSpaceOnUse" color-interpolation-filters="sRGB">
<feFlood flood-opacity="0" result="BackgroundImageFix"/>
<feBlend mode="normal" in="SourceGraphic" in2="BackgroundImageFix" result="shape"/>
<feColorMatrix in="SourceAlpha" type="matrix" values="0 0 0 0 0 0 0 0 0 0 0 0 0 0 0 0 0 0 127 0" result="hardAlpha"/>
<feOffset dy="4.42667"/>
<feGaussianBlur stdDeviation="2.21333"/>
<feComposite in2="hardAlpha" operator="arithmetic" k2="-1" k3="1"/>
<feColorMatrix type="matrix" values="0 0 0 0 1 0 0 0 0 1 0 0 0 0 1 0 0 0 0.79 0"/>
<feBlend mode="normal" in2="shape" result="effect1_innerShadow_1746_3805"/>
<feColorMatrix in="SourceAlpha" type="matrix" values="0 0 0 0 0 0 0 0 0 0 0 0 0 0 0 0 0 0 127 0" result="hardAlpha"/>
<feOffset dy="-4.42667"/>
<feGaussianBlur stdDeviation="2.21333"/>
<feComposite in2="hardAlpha" operator="arithmetic" k2="-1" k3="1"/>
<feColorMatrix type="matrix" values="0 0 0 0 0.00392157 0 0 0 0 0.929412 0 0 0 0 0.968627 0 0 0 0.13 0"/>
<feBlend mode="normal" in2="effect1_innerShadow_1746_3805" result="effect2_innerShadow_1746_3805"/>
</filter>
<filter id="filter11_f_1746_3805" x="387.333" y="255.906" width="26.56" height="26.5599" filterUnits="userSpaceOnUse" color-interpolation-filters="sRGB">
<feFlood flood-opacity="0" result="BackgroundImageFix"/>
<feBlend mode="normal" in="SourceGraphic" in2="BackgroundImageFix" result="shape"/>
<feGaussianBlur stdDeviation="2.21333" result="effect1_foregroundBlur_1746_3805"/>
</filter>
<filter id="filter12_f_1746_3805" x="395.08" y="263.653" width="11.0667" height="11.0668" filterUnits="userSpaceOnUse" color-interpolation-filters="sRGB">
<feFlood flood-opacity="0" result="BackgroundImageFix"/>
<feBlend mode="normal" in="SourceGraphic" in2="BackgroundImageFix" result="shape"/>
<feGaussianBlur stdDeviation="1.10667" result="effect1_foregroundBlur_1746_3805"/>
</filter>
<filter id="filter13_f_1746_3805" x="218.013" y="282.467" width="26.56" height="26.5599" filterUnits="userSpaceOnUse" color-interpolation-filters="sRGB">
<feFlood flood-opacity="0" result="BackgroundImageFix"/>
<feBlend mode="normal" in="SourceGraphic" in2="BackgroundImageFix" result="shape"/>
<feGaussianBlur stdDeviation="2.21333" result="effect1_foregroundBlur_1746_3805"/>
</filter>
<filter id="filter14_f_1746_3805" x="225.76" y="290.213" width="11.0667" height="11.0668" filterUnits="userSpaceOnUse" color-interpolation-filters="sRGB">
<feFlood flood-opacity="0" result="BackgroundImageFix"/>
<feBlend mode="normal" in="SourceGraphic" in2="BackgroundImageFix" result="shape"/>
<feGaussianBlur stdDeviation="1.10667" result="effect1_foregroundBlur_1746_3805"/>
</filter>
<filter id="filter15_f_1746_3805" x="256.747" y="177.333" width="26.56" height="26.5599" filterUnits="userSpaceOnUse" color-interpolation-filters="sRGB">
<feFlood flood-opacity="0" result="BackgroundImageFix"/>
<feBlend mode="normal" in="SourceGraphic" in2="BackgroundImageFix" result="shape"/>
<feGaussianBlur stdDeviation="2.21333" result="effect1_foregroundBlur_1746_3805"/>
</filter>
<filter id="filter16_f_1746_3805" x="264.493" y="185.08" width="11.0667" height="11.0668" filterUnits="userSpaceOnUse" color-interpolation-filters="sRGB">
<feFlood flood-opacity="0" result="BackgroundImageFix"/>
<feBlend mode="normal" in="SourceGraphic" in2="BackgroundImageFix" result="shape"/>
<feGaussianBlur stdDeviation="1.10667" result="effect1_foregroundBlur_1746_3805"/>
</filter>
<filter id="filter17_f_1746_3805" x="309.867" y="226.027" width="24.3466" height="24.3465" filterUnits="userSpaceOnUse" color-interpolation-filters="sRGB">
<feFlood flood-opacity="0" result="BackgroundImageFix"/>
<feBlend mode="normal" in="SourceGraphic" in2="BackgroundImageFix" result="shape"/>
<feGaussianBlur stdDeviation="2.21333" result="effect1_foregroundBlur_1746_3805"/>
</filter>
<filter id="filter18_f_1746_3805" x="317.613" y="233.773" width="9.95999" height="9.95987" filterUnits="userSpaceOnUse" color-interpolation-filters="sRGB">
<feFlood flood-opacity="0" result="BackgroundImageFix"/>
<feBlend mode="normal" in="SourceGraphic" in2="BackgroundImageFix" result="shape"/>
<feGaussianBlur stdDeviation="1.10667" result="effect1_foregroundBlur_1746_3805"/>
</filter>
<filter id="filter19_ddddii_1746_3805" x="8.52394" y="140.771" width="462.139" height="482.059" filterUnits="userSpaceOnUse" color-interpolation-filters="sRGB">
<feFlood flood-opacity="0" result="BackgroundImageFix"/>
<feColorMatrix in="SourceAlpha" type="matrix" values="0 0 0 0 0 0 0 0 0 0 0 0 0 0 0 0 0 0 127 0" result="hardAlpha"/>
<feOffset dy="2.51038"/>
<feGaussianBlur stdDeviation="4.72292"/>
<feColorMatrix type="matrix" values="0 0 0 0 0.0704861 0 0 0 0 0.235625 0 0 0 0 0.483333 0 0 0 0.38 0"/>
<feBlend mode="normal" in2="BackgroundImageFix" result="effect1_dropShadow_1746_3805"/>
<feColorMatrix in="SourceAlpha" type="matrix" values="0 0 0 0 0 0 0 0 0 0 0 0 0 0 0 0 0 0 127 0" result="hardAlpha"/>
<feOffset dy="50.0869"/>
<feGaussianBlur stdDeviation="94.2313"/>
<feColorMatrix type="matrix" values="0 0 0 0 0.411765 0 0 0 0 0.0470588 0 0 0 0 1 0 0 0 0.630424 0"/>
<feBlend mode="normal" in2="effect1_dropShadow_1746_3805" result="effect2_dropShadow_1746_3805"/>
<feColorMatrix in="SourceAlpha" type="matrix" values="0 0 0 0 0 0 0 0 0 0 0 0 0 0 0 0 0 0 127 0" result="hardAlpha"/>
<feOffset dy="2.23333"/>
<feGaussianBlur stdDeviation="4.2017"/>
<feColorMatrix type="matrix" values="0 0 0 0 0.0704861 0 0 0 0 0.235625 0 0 0 0 0.483333 0 0 0 0.38 0"/>
<feBlend mode="normal" in2="effect2_dropShadow_1746_3805" result="effect3_dropShadow_1746_3805"/>
<feColorMatrix in="SourceAlpha" type="matrix" values="0 0 0 0 0 0 0 0 0 0 0 0 0 0 0 0 0 0 127 0" result="hardAlpha"/>
<feOffset dy="44.5593"/>
<feGaussianBlur stdDeviation="83.832"/>
<feColorMatrix type="matrix" values="0 0 0 0 0.411765 0 0 0 0 0.0470588 0 0 0 0 1 0 0 0 0.630424 0"/>
<feBlend mode="normal" in2="effect3_dropShadow_1746_3805" result="effect4_dropShadow_1746_3805"/>
<feBlend mode="normal" in="SourceGraphic" in2="effect4_dropShadow_1746_3805" result="shape"/>
<feColorMatrix in="SourceAlpha" type="matrix" values="0 0 0 0 0 0 0 0 0 0 0 0 0 0 0 0 0 0 127 0" result="hardAlpha"/>
<feOffset dy="-3.6724"/>
<feGaussianBlur stdDeviation="1.8362"/>
<feComposite in2="hardAlpha" operator="arithmetic" k2="-1" k3="1"/>
<feColorMatrix type="matrix" values="0 0 0 0 1 0 0 0 0 1 0 0 0 0 1 0 0 0 0.08 0"/>
<feBlend mode="normal" in2="shape" result="effect5_innerShadow_1746_3805"/>
<feColorMatrix in="SourceAlpha" type="matrix" values="0 0 0 0 0 0 0 0 0 0 0 0 0 0 0 0 0 0 127 0" result="hardAlpha"/>
<feOffset dx="1.8362"/>
<feGaussianBlur stdDeviation="1.8362"/>
<feComposite in2="hardAlpha" operator="arithmetic" k2="-1" k3="1"/>
<feColorMatrix type="matrix" values="0 0 0 0 1 0 0 0 0 1 0 0 0 0 1 0 0 0 0.29 0"/>
<feBlend mode="normal" in2="effect5_innerShadow_1746_3805" result="effect6_innerShadow_1746_3805"/>
</filter>
<filter id="filter20_i_1746_3805" x="209.16" y="292.427" width="63.08" height="76.3599" filterUnits="userSpaceOnUse" color-interpolation-filters="sRGB">
<feFlood flood-opacity="0" result="BackgroundImageFix"/>
<feBlend mode="normal" in="SourceGraphic" in2="BackgroundImageFix" result="shape"/>
<feColorMatrix in="SourceAlpha" type="matrix" values="0 0 0 0 0 0 0 0 0 0 0 0 0 0 0 0 0 0 127 0" result="hardAlpha"/>
<feOffset dx="2.21333"/>
<feGaussianBlur stdDeviation="2.21333"/>
<feComposite in2="hardAlpha" operator="arithmetic" k2="-1" k3="1"/>
<feColorMatrix type="matrix" values="0 0 0 0 1 0 0 0 0 1 0 0 0 0 1 0 0 0 0.29 0"/>
<feBlend mode="normal" in2="shape" result="effect1_innerShadow_1746_3805"/>
</filter>
<linearGradient id="paint0_linear_1746_3805" x1="372.072" y1="170.511" x2="535.74" y2="237.626" gradientUnits="userSpaceOnUse">
<stop stop-color="#01EDF7" stop-opacity="0.69"/>
<stop offset="0.276042" stop-color="#47F2F9" stop-opacity="0.502292"/>
<stop offset="0.557292" stop-color="#8FF7FB" stop-opacity="0.311042"/>
<stop offset="0.770833" stop-color="#A8F9FC" stop-opacity="0.24375"/>
<stop offset="1" stop-color="white" stop-opacity="0.01"/>
</linearGradient>
<linearGradient id="paint1_linear_1746_3805" x1="372.274" y1="170.118" x2="544.546" y2="135.24" gradientUnits="userSpaceOnUse">
<stop stop-color="#1CA2EB"/>
<stop offset="1" stop-color="#194F8A"/>
</linearGradient>
<radialGradient id="paint2_radial_1746_3805" cx="0" cy="0" r="1" gradientUnits="userSpaceOnUse" gradientTransform="translate(393.934 376.349) rotate(135.434) scale(18.2711 11.8645)">
<stop stop-color="#00F1FF"/>
<stop offset="1" stop-color="#1CA2EB"/>
</radialGradient>
<radialGradient id="paint3_radial_1746_3805" cx="0" cy="0" r="1" gradientUnits="userSpaceOnUse" gradientTransform="translate(225.721 197.069) rotate(135.434) scale(18.2711 11.8645)">
<stop stop-color="#00F1FF"/>
<stop offset="1" stop-color="#1CA2EB"/>
</radialGradient>
<radialGradient id="paint4_radial_1746_3805" cx="0" cy="0" r="1" gradientUnits="userSpaceOnUse" gradientTransform="translate(206.15 273.922) rotate(-30.9638) scale(16.1323 9.06762)">
<stop stop-color="#1CA2EB"/>
<stop offset="1" stop-color="#194F8A"/>
</radialGradient>
<linearGradient id="paint5_linear_1746_3805" x1="202.839" y1="270.718" x2="211.228" y2="269.018" gradientUnits="userSpaceOnUse">
<stop stop-color="#1CA2EB"/>
<stop offset="1" stop-color="#194F8A"/>
</linearGradient>
<radialGradient id="paint6_radial_1746_3805" cx="0" cy="0" r="1" gradientUnits="userSpaceOnUse" gradientTransform="translate(274.615 372.643) rotate(-30.9638) scale(16.1323 9.06762)">
<stop stop-color="#1CA2EB"/>
<stop offset="1" stop-color="#194F8A"/>
</radialGradient>
<linearGradient id="paint7_linear_1746_3805" x1="271.305" y1="369.439" x2="279.693" y2="367.739" gradientUnits="userSpaceOnUse">
<stop stop-color="#1CA2EB"/>
<stop offset="1" stop-color="#194F8A"/>
</linearGradient>
<linearGradient id="paint8_linear_1746_3805" x1="227.973" y1="231.794" x2="423.621" y2="373.253" gradientUnits="userSpaceOnUse">
<stop stop-color="#01EDF7" stop-opacity="0.69"/>
<stop offset="0.276042" stop-color="#47F2F9" stop-opacity="0.502292"/>
<stop offset="0.557292" stop-color="#8FF7FB" stop-opacity="0.311042"/>
<stop offset="0.770833" stop-color="#A8F9FC" stop-opacity="0.24375"/>
<stop offset="1" stop-color="white" stop-opacity="0.01"/>
</linearGradient>
<linearGradient id="paint9_linear_1746_3805" x1="228.289" y1="231.447" x2="476.155" y2="142.965" gradientUnits="userSpaceOnUse">
<stop stop-color="#1CA2EB"/>
<stop offset="1" stop-color="#194F8A"/>
</linearGradient>
<radialGradient id="paint10_radial_1746_3805" cx="0" cy="0" r="1" gradientUnits="userSpaceOnUse" gradientTransform="translate(400.613 269.186) rotate(-30.9638) scale(16.1323 9.06762)">
<stop stop-color="#1CA2EB"/>
<stop offset="1" stop-color="#194F8A"/>
</radialGradient>
<linearGradient id="paint11_linear_1746_3805" x1="397.303" y1="265.982" x2="405.691" y2="264.282" gradientUnits="userSpaceOnUse">
<stop stop-color="#1CA2EB"/>
<stop offset="1" stop-color="#194F8A"/>
</linearGradient>
<radialGradient id="paint12_radial_1746_3805" cx="0" cy="0" r="1" gradientUnits="userSpaceOnUse" gradientTransform="translate(231.293 295.747) rotate(-30.9638) scale(16.1323 9.06762)">
<stop stop-color="#1CA2EB"/>
<stop offset="1" stop-color="#194F8A"/>
</radialGradient>
<linearGradient id="paint13_linear_1746_3805" x1="227.983" y1="292.542" x2="236.371" y2="290.842" gradientUnits="userSpaceOnUse">
<stop stop-color="#1CA2EB"/>
<stop offset="1" stop-color="#194F8A"/>
</linearGradient>
<radialGradient id="paint14_radial_1746_3805" cx="0" cy="0" r="1" gradientUnits="userSpaceOnUse" gradientTransform="translate(270.027 190.613) rotate(-30.9638) scale(16.1323 9.06762)">
<stop stop-color="#1CA2EB"/>
<stop offset="1" stop-color="#194F8A"/>
</radialGradient>
<linearGradient id="paint15_linear_1746_3805" x1="266.716" y1="187.409" x2="275.105" y2="185.709" gradientUnits="userSpaceOnUse">
<stop stop-color="#1CA2EB"/>
<stop offset="1" stop-color="#194F8A"/>
</linearGradient>
<radialGradient id="paint16_radial_1746_3805" cx="0" cy="0" r="1" gradientUnits="userSpaceOnUse" gradientTransform="translate(322.04 238.2) rotate(-30.9638) scale(14.1158 7.93417)">
<stop stop-color="#1CA2EB"/>
<stop offset="1" stop-color="#194F8A"/>
</radialGradient>
<linearGradient id="paint17_linear_1746_3805" x1="319.835" y1="236.083" x2="326.825" y2="234.667" gradientUnits="userSpaceOnUse">
<stop stop-color="#1CA2EB"/>
<stop offset="1" stop-color="#194F8A"/>
</linearGradient>
<linearGradient id="paint18_linear_1746_3805" x1="197.113" y1="280.977" x2="306.241" y2="263.052" gradientUnits="userSpaceOnUse">
<stop stop-color="#1CA2EB"/>
<stop offset="1" stop-color="#194F8A"/>
</linearGradient>
</defs>
</svg>
