<svg width="544" height="551" viewBox="0 0 544 551" fill="none" xmlns="http://www.w3.org/2000/svg">
<g filter="url(#filter0_ddddii_1746_3804)">
<path d="M234.675 219.288H229.354C222.093 219.022 214.855 220.27 208.09 222.953C201.325 225.636 195.177 229.697 190.028 234.885L188.56 236.618V287.866H213.513V258.776L216.877 254.939L218.406 253.144C226.369 244.866 236.282 238.774 247.213 235.442C241.74 231.228 237.424 225.667 234.675 219.288Z" fill="#04093E"/>
<path d="M234.675 219.288H229.354C222.093 219.022 214.855 220.27 208.09 222.953C201.325 225.636 195.177 229.697 190.028 234.885L188.56 236.618V287.866H213.513V258.776L216.877 254.939L218.406 253.144C226.369 244.866 236.282 238.774 247.213 235.442C241.74 231.228 237.424 225.667 234.675 219.288Z" fill="url(#paint0_linear_1746_3804)"/>
</g>
<g filter="url(#filter1_ddddii_1746_3804)">
<path d="M353.27 234.829C348.099 229.66 341.925 225.613 335.132 222.94C328.338 220.266 321.07 219.023 313.778 219.288C311.542 219.294 309.307 219.418 307.084 219.658C304.271 225.621 300.055 230.807 294.8 234.767C306.518 238.023 317.134 244.418 325.509 253.269L327.045 254.995L330.361 258.819V287.866H354.56V236.556L353.27 234.829Z" fill="#04093E"/>
<path d="M353.27 234.829C348.099 229.66 341.925 225.613 335.132 222.94C328.338 220.266 321.07 219.023 313.778 219.288C311.542 219.294 309.307 219.418 307.084 219.658C304.271 225.621 300.055 230.807 294.8 234.767C306.518 238.023 317.134 244.418 325.509 253.269L327.045 254.995L330.361 258.819V287.866H354.56V236.556L353.27 234.829Z" fill="url(#paint1_linear_1746_3804)"/>
</g>
<g filter="url(#filter2_ddddii_1746_3804)">
<path d="M229.372 207.943H231.29C230.399 200.414 231.742 192.792 235.157 185.996C238.571 179.201 243.912 173.524 250.533 169.65C248.133 166.041 244.821 163.109 240.923 161.138C237.025 159.168 232.673 158.227 228.294 158.409C223.915 158.59 219.659 159.888 215.943 162.174C212.227 164.46 209.178 167.657 207.095 171.451C205.012 175.245 203.966 179.506 204.059 183.817C204.152 188.129 205.382 192.342 207.628 196.045C209.873 199.749 213.058 202.814 216.87 204.943C220.682 207.071 224.99 208.189 229.372 208.187V207.943Z" fill="#04093E"/>
<path d="M229.372 207.943H231.29C230.399 200.414 231.742 192.792 235.157 185.996C238.571 179.201 243.912 173.524 250.533 169.65C248.133 166.041 244.821 163.109 240.923 161.138C237.025 159.168 232.673 158.227 228.294 158.409C223.915 158.59 219.659 159.888 215.943 162.174C212.227 164.46 209.178 167.657 207.095 171.451C205.012 175.245 203.966 179.506 204.059 183.817C204.152 188.129 205.382 192.342 207.628 196.045C209.873 199.749 213.058 202.814 216.87 204.943C220.682 207.071 224.99 208.189 229.372 208.187V207.943Z" fill="url(#paint2_linear_1746_3804)"/>
</g>
<g filter="url(#filter3_ddddii_1746_3804)">
<path d="M310.684 203.578C310.758 205.009 310.758 206.444 310.684 207.875C311.857 208.065 313.042 208.169 314.23 208.186H315.392C319.704 207.952 323.882 206.585 327.521 204.217C331.16 201.85 334.135 198.563 336.157 194.677C338.178 190.79 339.177 186.437 339.057 182.041C338.937 177.644 337.701 173.355 335.469 169.589C333.238 165.824 330.088 162.711 326.325 160.554C322.562 158.397 318.315 157.269 313.998 157.28C309.68 157.291 305.438 158.441 301.686 160.617C297.934 162.793 294.799 165.922 292.587 169.699C298.12 173.379 302.671 178.401 305.829 184.314C308.988 190.227 310.656 196.846 310.684 203.578Z" fill="#04093E"/>
<path d="M310.684 203.578C310.758 205.009 310.758 206.444 310.684 207.875C311.857 208.065 313.042 208.169 314.23 208.186H315.392C319.704 207.952 323.882 206.585 327.521 204.217C331.16 201.85 334.135 198.563 336.157 194.677C338.178 190.79 339.177 186.437 339.057 182.041C338.937 177.644 337.701 173.355 335.469 169.589C333.238 165.824 330.088 162.711 326.325 160.554C322.562 158.397 318.315 157.269 313.998 157.28C309.68 157.291 305.438 158.441 301.686 160.617C297.934 162.793 294.799 165.922 292.587 169.699C298.12 173.379 302.671 178.401 305.829 184.314C308.988 190.227 310.656 196.846 310.684 203.578Z" fill="url(#paint3_linear_1746_3804)"/>
</g>
<g filter="url(#filter4_ddddii_1746_3804)">
<path d="M271.007 230.32C285.981 230.32 298.12 218.429 298.12 203.76C298.12 189.091 285.981 196.013 271.007 196.013C256.032 196.013 243.893 189.091 243.893 203.76C243.893 218.429 256.032 230.32 271.007 230.32Z" fill="#04093E"/>
<path d="M271.007 230.32C285.981 230.32 298.12 218.429 298.12 203.76C298.12 189.091 285.981 196.013 271.007 196.013C256.032 196.013 243.893 189.091 243.893 203.76C243.893 218.429 256.032 230.32 271.007 230.32Z" fill="url(#paint4_linear_1746_3804)"/>
</g>
<g filter="url(#filter5_ddddii_1746_3804)">
<path d="M272.205 245.868C264.236 245.546 256.284 246.842 248.828 249.679C241.372 252.517 234.566 256.836 228.819 262.378L227.293 264.09V302.795C227.317 304.056 227.588 305.3 228.092 306.455C228.596 307.611 229.322 308.656 230.228 309.53C231.135 310.405 232.205 311.092 233.376 311.552C234.548 312.012 235.798 312.236 237.057 312.212H307.17C308.428 312.236 309.679 312.012 310.85 311.552C312.022 311.092 313.092 310.405 313.998 309.53C314.905 308.656 315.631 307.611 316.134 306.455C316.638 305.3 316.909 304.056 316.933 302.795V264.212L315.469 262.378C309.759 256.819 302.977 252.487 295.537 249.649C288.098 246.81 280.158 245.523 272.205 245.868Z" fill="#04093E"/>
<path d="M272.205 245.868C264.236 245.546 256.284 246.842 248.828 249.679C241.372 252.517 234.566 256.836 228.819 262.378L227.293 264.09V302.795C227.317 304.056 227.588 305.3 228.092 306.455C228.596 307.611 229.322 308.656 230.228 309.53C231.135 310.405 232.205 311.092 233.376 311.552C234.548 312.012 235.798 312.236 237.057 312.212H307.17C308.428 312.236 309.679 312.012 310.85 311.552C312.022 311.092 313.092 310.405 313.998 309.53C314.905 308.656 315.631 307.611 316.134 306.455C316.638 305.3 316.909 304.056 316.933 302.795V264.212L315.469 262.378C309.759 256.819 302.977 252.487 295.537 249.649C288.098 246.81 280.158 245.523 272.205 245.868Z" fill="url(#paint5_linear_1746_3804)"/>
</g>
<g filter="url(#filter6_ddddii_1746_3804)">
<path d="M272.184 253.602C265.986 253.355 259.801 254.349 254.002 256.524C248.203 258.699 242.909 262.011 238.44 266.259L237.253 267.572V297.246C237.272 298.213 237.483 299.166 237.875 300.052C238.266 300.938 238.831 301.739 239.536 302.41C240.241 303.08 241.073 303.607 241.984 303.959C242.896 304.312 243.868 304.484 244.847 304.465H299.379C300.358 304.484 301.331 304.312 302.242 303.959C303.153 303.607 303.985 303.08 304.69 302.41C305.396 301.739 305.96 300.938 306.352 300.052C306.744 299.166 306.955 298.213 306.973 297.246V267.666L305.834 266.259C301.393 261.998 296.118 258.677 290.332 256.5C284.546 254.324 278.37 253.338 272.184 253.602Z" fill="url(#paint6_linear_1746_3804)"/>
</g>
<g filter="url(#filter7_f_1746_3804)">
<circle cx="357.88" cy="196.013" r="8.85333" fill="url(#paint7_radial_1746_3804)" fill-opacity="0.5"/>
</g>
<g filter="url(#filter8_f_1746_3804)">
<circle cx="357.88" cy="196.013" r="3.32" fill="#00F1FF"/>
<circle cx="357.88" cy="196.013" r="3.32" fill="url(#paint8_linear_1746_3804)" fill-opacity="0.75"/>
</g>
<g filter="url(#filter9_f_1746_3804)">
<circle cx="188.56" cy="222.573" r="8.85333" fill="url(#paint9_radial_1746_3804)" fill-opacity="0.5"/>
</g>
<g filter="url(#filter10_f_1746_3804)">
<circle cx="188.56" cy="222.573" r="3.32" fill="#00F1FF"/>
<circle cx="188.56" cy="222.573" r="3.32" fill="url(#paint10_linear_1746_3804)" fill-opacity="0.75"/>
</g>
<g filter="url(#filter11_f_1746_3804)">
<circle cx="227.293" cy="117.44" r="8.85333" fill="url(#paint11_radial_1746_3804)" fill-opacity="0.5"/>
</g>
<g filter="url(#filter12_f_1746_3804)">
<circle cx="227.293" cy="117.44" r="3.32" fill="#00F1FF"/>
<circle cx="227.293" cy="117.44" r="3.32" fill="url(#paint12_linear_1746_3804)" fill-opacity="0.75"/>
</g>
<g filter="url(#filter13_f_1746_3804)">
<circle cx="170.853" cy="149.533" r="8.85333" fill="url(#paint13_radial_1746_3804)" fill-opacity="0.5"/>
</g>
<g filter="url(#filter14_f_1746_3804)">
<circle cx="170.853" cy="149.533" r="3.32" fill="#00F1FF"/>
<circle cx="170.853" cy="149.533" r="3.32" fill="url(#paint14_linear_1746_3804)" fill-opacity="0.75"/>
</g>
<g filter="url(#filter15_f_1746_3804)">
<circle cx="345.707" cy="315.533" r="8.85333" fill="url(#paint15_radial_1746_3804)" fill-opacity="0.5"/>
</g>
<g filter="url(#filter16_f_1746_3804)">
<circle cx="345.707" cy="315.533" r="3.32" fill="#00F1FF"/>
<circle cx="345.707" cy="315.533" r="3.32" fill="url(#paint16_linear_1746_3804)" fill-opacity="0.75"/>
</g>
<g filter="url(#filter17_f_1746_3804)">
<circle cx="279.307" cy="165.026" r="7.74667" fill="url(#paint17_radial_1746_3804)" fill-opacity="0.5"/>
</g>
<g filter="url(#filter18_f_1746_3804)">
<circle cx="279.86" cy="165.58" r="2.76667" fill="#00F1FF"/>
<circle cx="279.86" cy="165.58" r="2.76667" fill="url(#paint18_linear_1746_3804)" fill-opacity="0.75"/>
</g>
<path d="M239.896 176.951V189.131C239.896 192.295 241.629 195.242 244.403 196.76L266.076 208.593C268.676 210.023 271.797 210.023 274.398 208.593L296.07 196.76C298.844 195.242 300.578 192.295 300.578 189.131V176.951L274.398 191.255C271.797 192.685 268.676 192.685 266.076 191.255L239.896 176.951ZM266.076 139.507L229.536 159.446C226.546 161.093 226.546 165.427 229.536 167.074L266.076 187.013C268.676 188.443 271.797 188.443 274.398 187.013L309.247 167.984V193.601C309.247 195.985 311.197 197.935 313.581 197.935C315.965 197.935 317.916 195.985 317.916 193.601V165.817C317.916 164.213 317.049 162.783 315.662 162.003L274.398 139.507C273.117 138.824 271.688 138.467 270.237 138.467C268.785 138.467 267.356 138.824 266.076 139.507Z" fill="url(#paint19_linear_1746_3804)"/>
<path d="M239.896 176.951V189.131C239.896 192.295 241.629 195.242 244.403 196.76L266.076 208.593C268.676 210.023 271.797 210.023 274.398 208.593L296.07 196.76C298.844 195.242 300.578 192.295 300.578 189.131V176.951L274.398 191.255C271.797 192.685 268.676 192.685 266.076 191.255L239.896 176.951ZM266.076 139.507L229.536 159.446C226.546 161.093 226.546 165.427 229.536 167.074L266.076 187.013C268.676 188.443 271.797 188.443 274.398 187.013L309.247 167.984V193.601C309.247 195.985 311.197 197.935 313.581 197.935C315.965 197.935 317.916 195.985 317.916 193.601V165.817C317.916 164.213 317.049 162.783 315.662 162.003L274.398 139.507C273.117 138.824 271.688 138.467 270.237 138.467C268.785 138.467 267.356 138.824 266.076 139.507Z" fill="white" fill-opacity="0.15"/>
<g filter="url(#filter19_ddddii_1746_3804)">
<path d="M239.896 176.951V189.131C239.896 192.295 241.629 195.242 244.403 196.76L266.076 208.593C268.676 210.023 271.797 210.023 274.398 208.593L296.07 196.76C298.844 195.242 300.578 192.295 300.578 189.131V176.951L274.398 191.255C271.797 192.685 268.676 192.685 266.076 191.255L239.896 176.951ZM266.076 139.507L229.536 159.446C226.546 161.093 226.546 165.427 229.536 167.074L266.076 187.013C268.676 188.443 271.797 188.443 274.398 187.013L309.247 167.984V193.601C309.247 195.985 311.197 197.935 313.581 197.935C315.965 197.935 317.916 195.985 317.916 193.601V165.817C317.916 164.213 317.049 162.783 315.662 162.003L274.398 139.507C273.117 138.824 271.688 138.467 270.237 138.467C268.785 138.467 267.356 138.824 266.076 139.507Z" fill="url(#paint20_linear_1746_3804)"/>
</g>
<path d="M239.896 176.951V189.131C239.896 192.295 241.629 195.243 244.403 196.76L266.076 208.593C268.676 210.023 271.797 210.023 274.398 208.593L296.07 196.76C298.844 195.243 300.578 192.295 300.578 189.131V176.951L274.398 191.255C271.797 192.685 268.676 192.685 266.076 191.255L239.896 176.951Z" fill="black"/>
<path d="M239.896 176.951V189.131C239.896 192.295 241.629 195.243 244.403 196.76L266.076 208.593C268.676 210.023 271.797 210.023 274.398 208.593L296.07 196.76C298.844 195.243 300.578 192.295 300.578 189.131V176.951L274.398 191.255C271.797 192.685 268.676 192.685 266.076 191.255L239.896 176.951Z" fill="url(#paint21_linear_1746_3804)"/>
<g filter="url(#filter20_dd_1746_3804)">
<g filter="url(#filter21_bii_1746_3804)">
<rect x="326.893" y="118.546" width="30.6719" height="30.6719" rx="2.1153" fill="#04093E"/>
</g>
<path d="M335.893 136.403C335.262 136.403 334.693 136.271 334.188 136.007C333.689 135.737 333.296 135.364 333.009 134.888C332.722 134.412 332.578 133.872 332.578 133.269C332.578 132.667 332.722 132.127 333.009 131.651C333.296 131.174 333.689 130.804 334.188 130.54C334.693 130.27 335.262 130.135 335.893 130.135C336.444 130.135 336.941 130.233 337.383 130.428C337.824 130.623 338.192 130.905 338.485 131.272L337.4 132.253C337.009 131.783 336.536 131.547 335.979 131.547C335.652 131.547 335.359 131.619 335.101 131.763C334.848 131.906 334.65 132.11 334.507 132.374C334.369 132.632 334.3 132.931 334.3 133.269C334.3 133.608 334.369 133.909 334.507 134.173C334.65 134.432 334.848 134.633 335.101 134.776C335.359 134.92 335.652 134.991 335.979 134.991C336.536 134.991 337.009 134.756 337.4 134.285L338.485 135.267C338.192 135.634 337.824 135.915 337.383 136.111C336.941 136.306 336.444 136.403 335.893 136.403ZM341.879 134.681H340.949V136.283H339.245V130.256H342C342.545 130.256 343.019 130.348 343.42 130.531C343.822 130.709 344.132 130.968 344.35 131.306C344.568 131.639 344.677 132.032 344.677 132.486C344.677 132.922 344.574 133.304 344.367 133.631C344.166 133.952 343.877 134.205 343.498 134.389L344.798 136.283H342.973L341.879 134.681ZM342.955 132.486C342.955 132.205 342.866 131.986 342.688 131.832C342.511 131.677 342.247 131.599 341.896 131.599H340.949V133.364H341.896C342.247 133.364 342.511 133.289 342.688 133.14C342.866 132.985 342.955 132.767 342.955 132.486ZM351.059 136.283L351.042 133.089L349.492 135.689H348.734L347.193 133.175V136.283H345.618V130.256H347.021L349.139 133.734L351.205 130.256H352.609L352.626 136.283H351.059Z" fill="white"/>
<path d="M335.893 136.403C335.262 136.403 334.693 136.271 334.188 136.007C333.689 135.737 333.296 135.364 333.009 134.888C332.722 134.412 332.578 133.872 332.578 133.269C332.578 132.667 332.722 132.127 333.009 131.651C333.296 131.174 333.689 130.804 334.188 130.54C334.693 130.27 335.262 130.135 335.893 130.135C336.444 130.135 336.941 130.233 337.383 130.428C337.824 130.623 338.192 130.905 338.485 131.272L337.4 132.253C337.009 131.783 336.536 131.547 335.979 131.547C335.652 131.547 335.359 131.619 335.101 131.763C334.848 131.906 334.65 132.11 334.507 132.374C334.369 132.632 334.3 132.931 334.3 133.269C334.3 133.608 334.369 133.909 334.507 134.173C334.65 134.432 334.848 134.633 335.101 134.776C335.359 134.92 335.652 134.991 335.979 134.991C336.536 134.991 337.009 134.756 337.4 134.285L338.485 135.267C338.192 135.634 337.824 135.915 337.383 136.111C336.941 136.306 336.444 136.403 335.893 136.403ZM341.879 134.681H340.949V136.283H339.245V130.256H342C342.545 130.256 343.019 130.348 343.42 130.531C343.822 130.709 344.132 130.968 344.35 131.306C344.568 131.639 344.677 132.032 344.677 132.486C344.677 132.922 344.574 133.304 344.367 133.631C344.166 133.952 343.877 134.205 343.498 134.389L344.798 136.283H342.973L341.879 134.681ZM342.955 132.486C342.955 132.205 342.866 131.986 342.688 131.832C342.511 131.677 342.247 131.599 341.896 131.599H340.949V133.364H341.896C342.247 133.364 342.511 133.289 342.688 133.14C342.866 132.985 342.955 132.767 342.955 132.486ZM351.059 136.283L351.042 133.089L349.492 135.689H348.734L347.193 133.175V136.283H345.618V130.256H347.021L349.139 133.734L351.205 130.256H352.609L352.626 136.283H351.059Z" fill="url(#paint22_radial_1746_3804)"/>
</g>
<defs>
<filter id="filter0_ddddii_1746_3804" x="0.0971832" y="80.8772" width="435.579" height="445.539" filterUnits="userSpaceOnUse" color-interpolation-filters="sRGB">
<feFlood flood-opacity="0" result="BackgroundImageFix"/>
<feColorMatrix in="SourceAlpha" type="matrix" values="0 0 0 0 0 0 0 0 0 0 0 0 0 0 0 0 0 0 127 0" result="hardAlpha"/>
<feOffset dy="2.51038"/>
<feGaussianBlur stdDeviation="4.72292"/>
<feColorMatrix type="matrix" values="0 0 0 0 0.0704861 0 0 0 0 0.235625 0 0 0 0 0.483333 0 0 0 0.38 0"/>
<feBlend mode="normal" in2="BackgroundImageFix" result="effect1_dropShadow_1746_3804"/>
<feColorMatrix in="SourceAlpha" type="matrix" values="0 0 0 0 0 0 0 0 0 0 0 0 0 0 0 0 0 0 127 0" result="hardAlpha"/>
<feOffset dy="50.0869"/>
<feGaussianBlur stdDeviation="94.2313"/>
<feColorMatrix type="matrix" values="0 0 0 0 0.411765 0 0 0 0 0.0470588 0 0 0 0 1 0 0 0 0.630424 0"/>
<feBlend mode="normal" in2="effect1_dropShadow_1746_3804" result="effect2_dropShadow_1746_3804"/>
<feColorMatrix in="SourceAlpha" type="matrix" values="0 0 0 0 0 0 0 0 0 0 0 0 0 0 0 0 0 0 127 0" result="hardAlpha"/>
<feOffset dy="2.23333"/>
<feGaussianBlur stdDeviation="4.2017"/>
<feColorMatrix type="matrix" values="0 0 0 0 0.0704861 0 0 0 0 0.235625 0 0 0 0 0.483333 0 0 0 0.38 0"/>
<feBlend mode="normal" in2="effect2_dropShadow_1746_3804" result="effect3_dropShadow_1746_3804"/>
<feColorMatrix in="SourceAlpha" type="matrix" values="0 0 0 0 0 0 0 0 0 0 0 0 0 0 0 0 0 0 127 0" result="hardAlpha"/>
<feOffset dy="44.5593"/>
<feGaussianBlur stdDeviation="83.832"/>
<feColorMatrix type="matrix" values="0 0 0 0 0.411765 0 0 0 0 0.0470588 0 0 0 0 1 0 0 0 0.630424 0"/>
<feBlend mode="normal" in2="effect3_dropShadow_1746_3804" result="effect4_dropShadow_1746_3804"/>
<feBlend mode="normal" in="SourceGraphic" in2="effect4_dropShadow_1746_3804" result="shape"/>
<feColorMatrix in="SourceAlpha" type="matrix" values="0 0 0 0 0 0 0 0 0 0 0 0 0 0 0 0 0 0 127 0" result="hardAlpha"/>
<feOffset dy="-3.6724"/>
<feGaussianBlur stdDeviation="1.8362"/>
<feComposite in2="hardAlpha" operator="arithmetic" k2="-1" k3="1"/>
<feColorMatrix type="matrix" values="0 0 0 0 1 0 0 0 0 1 0 0 0 0 1 0 0 0 0.08 0"/>
<feBlend mode="normal" in2="shape" result="effect5_innerShadow_1746_3804"/>
<feColorMatrix in="SourceAlpha" type="matrix" values="0 0 0 0 0 0 0 0 0 0 0 0 0 0 0 0 0 0 127 0" result="hardAlpha"/>
<feOffset dx="1.8362"/>
<feGaussianBlur stdDeviation="1.8362"/>
<feComposite in2="hardAlpha" operator="arithmetic" k2="-1" k3="1"/>
<feColorMatrix type="matrix" values="0 0 0 0 1 0 0 0 0 1 0 0 0 0 1 0 0 0 0.29 0"/>
<feBlend mode="normal" in2="effect5_innerShadow_1746_3804" result="effect6_innerShadow_1746_3804"/>
</filter>
<filter id="filter1_ddddii_1746_3804" x="106.337" y="80.8772" width="436.685" height="445.539" filterUnits="userSpaceOnUse" color-interpolation-filters="sRGB">
<feFlood flood-opacity="0" result="BackgroundImageFix"/>
<feColorMatrix in="SourceAlpha" type="matrix" values="0 0 0 0 0 0 0 0 0 0 0 0 0 0 0 0 0 0 127 0" result="hardAlpha"/>
<feOffset dy="2.51038"/>
<feGaussianBlur stdDeviation="4.72292"/>
<feColorMatrix type="matrix" values="0 0 0 0 0.0704861 0 0 0 0 0.235625 0 0 0 0 0.483333 0 0 0 0.38 0"/>
<feBlend mode="normal" in2="BackgroundImageFix" result="effect1_dropShadow_1746_3804"/>
<feColorMatrix in="SourceAlpha" type="matrix" values="0 0 0 0 0 0 0 0 0 0 0 0 0 0 0 0 0 0 127 0" result="hardAlpha"/>
<feOffset dy="50.0869"/>
<feGaussianBlur stdDeviation="94.2313"/>
<feColorMatrix type="matrix" values="0 0 0 0 0.411765 0 0 0 0 0.0470588 0 0 0 0 1 0 0 0 0.630424 0"/>
<feBlend mode="normal" in2="effect1_dropShadow_1746_3804" result="effect2_dropShadow_1746_3804"/>
<feColorMatrix in="SourceAlpha" type="matrix" values="0 0 0 0 0 0 0 0 0 0 0 0 0 0 0 0 0 0 127 0" result="hardAlpha"/>
<feOffset dy="2.23333"/>
<feGaussianBlur stdDeviation="4.2017"/>
<feColorMatrix type="matrix" values="0 0 0 0 0.0704861 0 0 0 0 0.235625 0 0 0 0 0.483333 0 0 0 0.38 0"/>
<feBlend mode="normal" in2="effect2_dropShadow_1746_3804" result="effect3_dropShadow_1746_3804"/>
<feColorMatrix in="SourceAlpha" type="matrix" values="0 0 0 0 0 0 0 0 0 0 0 0 0 0 0 0 0 0 127 0" result="hardAlpha"/>
<feOffset dy="44.5593"/>
<feGaussianBlur stdDeviation="83.832"/>
<feColorMatrix type="matrix" values="0 0 0 0 0.411765 0 0 0 0 0.0470588 0 0 0 0 1 0 0 0 0.630424 0"/>
<feBlend mode="normal" in2="effect3_dropShadow_1746_3804" result="effect4_dropShadow_1746_3804"/>
<feBlend mode="normal" in="SourceGraphic" in2="effect4_dropShadow_1746_3804" result="shape"/>
<feColorMatrix in="SourceAlpha" type="matrix" values="0 0 0 0 0 0 0 0 0 0 0 0 0 0 0 0 0 0 127 0" result="hardAlpha"/>
<feOffset dy="-3.6724"/>
<feGaussianBlur stdDeviation="1.8362"/>
<feComposite in2="hardAlpha" operator="arithmetic" k2="-1" k3="1"/>
<feColorMatrix type="matrix" values="0 0 0 0 1 0 0 0 0 1 0 0 0 0 1 0 0 0 0.08 0"/>
<feBlend mode="normal" in2="shape" result="effect5_innerShadow_1746_3804"/>
<feColorMatrix in="SourceAlpha" type="matrix" values="0 0 0 0 0 0 0 0 0 0 0 0 0 0 0 0 0 0 127 0" result="hardAlpha"/>
<feOffset dx="1.8362"/>
<feGaussianBlur stdDeviation="1.8362"/>
<feComposite in2="hardAlpha" operator="arithmetic" k2="-1" k3="1"/>
<feColorMatrix type="matrix" values="0 0 0 0 1 0 0 0 0 1 0 0 0 0 1 0 0 0 0.29 0"/>
<feBlend mode="normal" in2="effect5_innerShadow_1746_3804" result="effect6_innerShadow_1746_3804"/>
</filter>
<filter id="filter2_ddddii_1746_3804" x="15.5906" y="20.011" width="423.405" height="426.725" filterUnits="userSpaceOnUse" color-interpolation-filters="sRGB">
<feFlood flood-opacity="0" result="BackgroundImageFix"/>
<feColorMatrix in="SourceAlpha" type="matrix" values="0 0 0 0 0 0 0 0 0 0 0 0 0 0 0 0 0 0 127 0" result="hardAlpha"/>
<feOffset dy="2.51038"/>
<feGaussianBlur stdDeviation="4.72292"/>
<feColorMatrix type="matrix" values="0 0 0 0 0.0704861 0 0 0 0 0.235625 0 0 0 0 0.483333 0 0 0 0.38 0"/>
<feBlend mode="normal" in2="BackgroundImageFix" result="effect1_dropShadow_1746_3804"/>
<feColorMatrix in="SourceAlpha" type="matrix" values="0 0 0 0 0 0 0 0 0 0 0 0 0 0 0 0 0 0 127 0" result="hardAlpha"/>
<feOffset dy="50.0869"/>
<feGaussianBlur stdDeviation="94.2313"/>
<feColorMatrix type="matrix" values="0 0 0 0 0.411765 0 0 0 0 0.0470588 0 0 0 0 1 0 0 0 0.630424 0"/>
<feBlend mode="normal" in2="effect1_dropShadow_1746_3804" result="effect2_dropShadow_1746_3804"/>
<feColorMatrix in="SourceAlpha" type="matrix" values="0 0 0 0 0 0 0 0 0 0 0 0 0 0 0 0 0 0 127 0" result="hardAlpha"/>
<feOffset dy="2.23333"/>
<feGaussianBlur stdDeviation="4.2017"/>
<feColorMatrix type="matrix" values="0 0 0 0 0.0704861 0 0 0 0 0.235625 0 0 0 0 0.483333 0 0 0 0.38 0"/>
<feBlend mode="normal" in2="effect2_dropShadow_1746_3804" result="effect3_dropShadow_1746_3804"/>
<feColorMatrix in="SourceAlpha" type="matrix" values="0 0 0 0 0 0 0 0 0 0 0 0 0 0 0 0 0 0 127 0" result="hardAlpha"/>
<feOffset dy="44.5593"/>
<feGaussianBlur stdDeviation="83.832"/>
<feColorMatrix type="matrix" values="0 0 0 0 0.411765 0 0 0 0 0.0470588 0 0 0 0 1 0 0 0 0.630424 0"/>
<feBlend mode="normal" in2="effect3_dropShadow_1746_3804" result="effect4_dropShadow_1746_3804"/>
<feBlend mode="normal" in="SourceGraphic" in2="effect4_dropShadow_1746_3804" result="shape"/>
<feColorMatrix in="SourceAlpha" type="matrix" values="0 0 0 0 0 0 0 0 0 0 0 0 0 0 0 0 0 0 127 0" result="hardAlpha"/>
<feOffset dy="-3.6724"/>
<feGaussianBlur stdDeviation="1.8362"/>
<feComposite in2="hardAlpha" operator="arithmetic" k2="-1" k3="1"/>
<feColorMatrix type="matrix" values="0 0 0 0 1 0 0 0 0 1 0 0 0 0 1 0 0 0 0.08 0"/>
<feBlend mode="normal" in2="shape" result="effect5_innerShadow_1746_3804"/>
<feColorMatrix in="SourceAlpha" type="matrix" values="0 0 0 0 0 0 0 0 0 0 0 0 0 0 0 0 0 0 127 0" result="hardAlpha"/>
<feOffset dx="1.8362"/>
<feGaussianBlur stdDeviation="1.8362"/>
<feComposite in2="hardAlpha" operator="arithmetic" k2="-1" k3="1"/>
<feColorMatrix type="matrix" values="0 0 0 0 1 0 0 0 0 1 0 0 0 0 1 0 0 0 0.29 0"/>
<feBlend mode="normal" in2="effect5_innerShadow_1746_3804" result="effect6_innerShadow_1746_3804"/>
</filter>
<filter id="filter3_ddddii_1746_3804" x="104.124" y="18.9041" width="423.405" height="427.832" filterUnits="userSpaceOnUse" color-interpolation-filters="sRGB">
<feFlood flood-opacity="0" result="BackgroundImageFix"/>
<feColorMatrix in="SourceAlpha" type="matrix" values="0 0 0 0 0 0 0 0 0 0 0 0 0 0 0 0 0 0 127 0" result="hardAlpha"/>
<feOffset dy="2.51038"/>
<feGaussianBlur stdDeviation="4.72292"/>
<feColorMatrix type="matrix" values="0 0 0 0 0.0704861 0 0 0 0 0.235625 0 0 0 0 0.483333 0 0 0 0.38 0"/>
<feBlend mode="normal" in2="BackgroundImageFix" result="effect1_dropShadow_1746_3804"/>
<feColorMatrix in="SourceAlpha" type="matrix" values="0 0 0 0 0 0 0 0 0 0 0 0 0 0 0 0 0 0 127 0" result="hardAlpha"/>
<feOffset dy="50.0869"/>
<feGaussianBlur stdDeviation="94.2313"/>
<feColorMatrix type="matrix" values="0 0 0 0 0.411765 0 0 0 0 0.0470588 0 0 0 0 1 0 0 0 0.630424 0"/>
<feBlend mode="normal" in2="effect1_dropShadow_1746_3804" result="effect2_dropShadow_1746_3804"/>
<feColorMatrix in="SourceAlpha" type="matrix" values="0 0 0 0 0 0 0 0 0 0 0 0 0 0 0 0 0 0 127 0" result="hardAlpha"/>
<feOffset dy="2.23333"/>
<feGaussianBlur stdDeviation="4.2017"/>
<feColorMatrix type="matrix" values="0 0 0 0 0.0704861 0 0 0 0 0.235625 0 0 0 0 0.483333 0 0 0 0.38 0"/>
<feBlend mode="normal" in2="effect2_dropShadow_1746_3804" result="effect3_dropShadow_1746_3804"/>
<feColorMatrix in="SourceAlpha" type="matrix" values="0 0 0 0 0 0 0 0 0 0 0 0 0 0 0 0 0 0 127 0" result="hardAlpha"/>
<feOffset dy="44.5593"/>
<feGaussianBlur stdDeviation="83.832"/>
<feColorMatrix type="matrix" values="0 0 0 0 0.411765 0 0 0 0 0.0470588 0 0 0 0 1 0 0 0 0.630424 0"/>
<feBlend mode="normal" in2="effect3_dropShadow_1746_3804" result="effect4_dropShadow_1746_3804"/>
<feBlend mode="normal" in="SourceGraphic" in2="effect4_dropShadow_1746_3804" result="shape"/>
<feColorMatrix in="SourceAlpha" type="matrix" values="0 0 0 0 0 0 0 0 0 0 0 0 0 0 0 0 0 0 127 0" result="hardAlpha"/>
<feOffset dy="-3.6724"/>
<feGaussianBlur stdDeviation="1.8362"/>
<feComposite in2="hardAlpha" operator="arithmetic" k2="-1" k3="1"/>
<feColorMatrix type="matrix" values="0 0 0 0 1 0 0 0 0 1 0 0 0 0 1 0 0 0 0.08 0"/>
<feBlend mode="normal" in2="shape" result="effect5_innerShadow_1746_3804"/>
<feColorMatrix in="SourceAlpha" type="matrix" values="0 0 0 0 0 0 0 0 0 0 0 0 0 0 0 0 0 0 127 0" result="hardAlpha"/>
<feOffset dx="1.8362"/>
<feGaussianBlur stdDeviation="1.8362"/>
<feComposite in2="hardAlpha" operator="arithmetic" k2="-1" k3="1"/>
<feColorMatrix type="matrix" values="0 0 0 0 1 0 0 0 0 1 0 0 0 0 1 0 0 0 0.29 0"/>
<feBlend mode="normal" in2="effect5_innerShadow_1746_3804" result="effect6_innerShadow_1746_3804"/>
</filter>
<filter id="filter4_ddddii_1746_3804" x="55.4307" y="56.0056" width="431.152" height="412.864" filterUnits="userSpaceOnUse" color-interpolation-filters="sRGB">
<feFlood flood-opacity="0" result="BackgroundImageFix"/>
<feColorMatrix in="SourceAlpha" type="matrix" values="0 0 0 0 0 0 0 0 0 0 0 0 0 0 0 0 0 0 127 0" result="hardAlpha"/>
<feOffset dy="2.51038"/>
<feGaussianBlur stdDeviation="4.72292"/>
<feColorMatrix type="matrix" values="0 0 0 0 0.0704861 0 0 0 0 0.235625 0 0 0 0 0.483333 0 0 0 0.38 0"/>
<feBlend mode="normal" in2="BackgroundImageFix" result="effect1_dropShadow_1746_3804"/>
<feColorMatrix in="SourceAlpha" type="matrix" values="0 0 0 0 0 0 0 0 0 0 0 0 0 0 0 0 0 0 127 0" result="hardAlpha"/>
<feOffset dy="50.0869"/>
<feGaussianBlur stdDeviation="94.2313"/>
<feColorMatrix type="matrix" values="0 0 0 0 0.411765 0 0 0 0 0.0470588 0 0 0 0 1 0 0 0 0.630424 0"/>
<feBlend mode="normal" in2="effect1_dropShadow_1746_3804" result="effect2_dropShadow_1746_3804"/>
<feColorMatrix in="SourceAlpha" type="matrix" values="0 0 0 0 0 0 0 0 0 0 0 0 0 0 0 0 0 0 127 0" result="hardAlpha"/>
<feOffset dy="2.23333"/>
<feGaussianBlur stdDeviation="4.2017"/>
<feColorMatrix type="matrix" values="0 0 0 0 0.0704861 0 0 0 0 0.235625 0 0 0 0 0.483333 0 0 0 0.38 0"/>
<feBlend mode="normal" in2="effect2_dropShadow_1746_3804" result="effect3_dropShadow_1746_3804"/>
<feColorMatrix in="SourceAlpha" type="matrix" values="0 0 0 0 0 0 0 0 0 0 0 0 0 0 0 0 0 0 127 0" result="hardAlpha"/>
<feOffset dy="44.5593"/>
<feGaussianBlur stdDeviation="83.832"/>
<feColorMatrix type="matrix" values="0 0 0 0 0.411765 0 0 0 0 0.0470588 0 0 0 0 1 0 0 0 0.630424 0"/>
<feBlend mode="normal" in2="effect3_dropShadow_1746_3804" result="effect4_dropShadow_1746_3804"/>
<feBlend mode="normal" in="SourceGraphic" in2="effect4_dropShadow_1746_3804" result="shape"/>
<feColorMatrix in="SourceAlpha" type="matrix" values="0 0 0 0 0 0 0 0 0 0 0 0 0 0 0 0 0 0 127 0" result="hardAlpha"/>
<feOffset dy="-3.6724"/>
<feGaussianBlur stdDeviation="1.8362"/>
<feComposite in2="hardAlpha" operator="arithmetic" k2="-1" k3="1"/>
<feColorMatrix type="matrix" values="0 0 0 0 1 0 0 0 0 1 0 0 0 0 1 0 0 0 0.08 0"/>
<feBlend mode="normal" in2="shape" result="effect5_innerShadow_1746_3804"/>
<feColorMatrix in="SourceAlpha" type="matrix" values="0 0 0 0 0 0 0 0 0 0 0 0 0 0 0 0 0 0 127 0" result="hardAlpha"/>
<feOffset dx="1.8362"/>
<feGaussianBlur stdDeviation="1.8362"/>
<feComposite in2="hardAlpha" operator="arithmetic" k2="-1" k3="1"/>
<feColorMatrix type="matrix" values="0 0 0 0 1 0 0 0 0 1 0 0 0 0 1 0 0 0 0.29 0"/>
<feBlend mode="normal" in2="effect5_innerShadow_1746_3804" result="effect6_innerShadow_1746_3804"/>
</filter>
<filter id="filter5_ddddii_1746_3804" x="38.8306" y="107.438" width="466.565" height="443.325" filterUnits="userSpaceOnUse" color-interpolation-filters="sRGB">
<feFlood flood-opacity="0" result="BackgroundImageFix"/>
<feColorMatrix in="SourceAlpha" type="matrix" values="0 0 0 0 0 0 0 0 0 0 0 0 0 0 0 0 0 0 127 0" result="hardAlpha"/>
<feOffset dy="2.51038"/>
<feGaussianBlur stdDeviation="4.72292"/>
<feColorMatrix type="matrix" values="0 0 0 0 0.0704861 0 0 0 0 0.235625 0 0 0 0 0.483333 0 0 0 0.38 0"/>
<feBlend mode="normal" in2="BackgroundImageFix" result="effect1_dropShadow_1746_3804"/>
<feColorMatrix in="SourceAlpha" type="matrix" values="0 0 0 0 0 0 0 0 0 0 0 0 0 0 0 0 0 0 127 0" result="hardAlpha"/>
<feOffset dy="50.0869"/>
<feGaussianBlur stdDeviation="94.2313"/>
<feColorMatrix type="matrix" values="0 0 0 0 0.411765 0 0 0 0 0.0470588 0 0 0 0 1 0 0 0 0.630424 0"/>
<feBlend mode="normal" in2="effect1_dropShadow_1746_3804" result="effect2_dropShadow_1746_3804"/>
<feColorMatrix in="SourceAlpha" type="matrix" values="0 0 0 0 0 0 0 0 0 0 0 0 0 0 0 0 0 0 127 0" result="hardAlpha"/>
<feOffset dy="2.23333"/>
<feGaussianBlur stdDeviation="4.2017"/>
<feColorMatrix type="matrix" values="0 0 0 0 0.0704861 0 0 0 0 0.235625 0 0 0 0 0.483333 0 0 0 0.38 0"/>
<feBlend mode="normal" in2="effect2_dropShadow_1746_3804" result="effect3_dropShadow_1746_3804"/>
<feColorMatrix in="SourceAlpha" type="matrix" values="0 0 0 0 0 0 0 0 0 0 0 0 0 0 0 0 0 0 127 0" result="hardAlpha"/>
<feOffset dy="44.5593"/>
<feGaussianBlur stdDeviation="83.832"/>
<feColorMatrix type="matrix" values="0 0 0 0 0.411765 0 0 0 0 0.0470588 0 0 0 0 1 0 0 0 0.630424 0"/>
<feBlend mode="normal" in2="effect3_dropShadow_1746_3804" result="effect4_dropShadow_1746_3804"/>
<feBlend mode="normal" in="SourceGraphic" in2="effect4_dropShadow_1746_3804" result="shape"/>
<feColorMatrix in="SourceAlpha" type="matrix" values="0 0 0 0 0 0 0 0 0 0 0 0 0 0 0 0 0 0 127 0" result="hardAlpha"/>
<feOffset dy="-3.6724"/>
<feGaussianBlur stdDeviation="1.8362"/>
<feComposite in2="hardAlpha" operator="arithmetic" k2="-1" k3="1"/>
<feColorMatrix type="matrix" values="0 0 0 0 1 0 0 0 0 1 0 0 0 0 1 0 0 0 0.08 0"/>
<feBlend mode="normal" in2="shape" result="effect5_innerShadow_1746_3804"/>
<feColorMatrix in="SourceAlpha" type="matrix" values="0 0 0 0 0 0 0 0 0 0 0 0 0 0 0 0 0 0 127 0" result="hardAlpha"/>
<feOffset dx="1.8362"/>
<feGaussianBlur stdDeviation="1.8362"/>
<feComposite in2="hardAlpha" operator="arithmetic" k2="-1" k3="1"/>
<feColorMatrix type="matrix" values="0 0 0 0 1 0 0 0 0 1 0 0 0 0 1 0 0 0 0.29 0"/>
<feBlend mode="normal" in2="effect5_innerShadow_1746_3804" result="effect6_innerShadow_1746_3804"/>
</filter>
<filter id="filter6_ddddii_1746_3804" x="48.7905" y="115.184" width="446.645" height="427.832" filterUnits="userSpaceOnUse" color-interpolation-filters="sRGB">
<feFlood flood-opacity="0" result="BackgroundImageFix"/>
<feColorMatrix in="SourceAlpha" type="matrix" values="0 0 0 0 0 0 0 0 0 0 0 0 0 0 0 0 0 0 127 0" result="hardAlpha"/>
<feOffset dy="2.51038"/>
<feGaussianBlur stdDeviation="4.72292"/>
<feColorMatrix type="matrix" values="0 0 0 0 0.0704861 0 0 0 0 0.235625 0 0 0 0 0.483333 0 0 0 0.38 0"/>
<feBlend mode="normal" in2="BackgroundImageFix" result="effect1_dropShadow_1746_3804"/>
<feColorMatrix in="SourceAlpha" type="matrix" values="0 0 0 0 0 0 0 0 0 0 0 0 0 0 0 0 0 0 127 0" result="hardAlpha"/>
<feOffset dy="50.0869"/>
<feGaussianBlur stdDeviation="94.2313"/>
<feColorMatrix type="matrix" values="0 0 0 0 0.411765 0 0 0 0 0.0470588 0 0 0 0 1 0 0 0 0.630424 0"/>
<feBlend mode="normal" in2="effect1_dropShadow_1746_3804" result="effect2_dropShadow_1746_3804"/>
<feColorMatrix in="SourceAlpha" type="matrix" values="0 0 0 0 0 0 0 0 0 0 0 0 0 0 0 0 0 0 127 0" result="hardAlpha"/>
<feOffset dy="2.23333"/>
<feGaussianBlur stdDeviation="4.2017"/>
<feColorMatrix type="matrix" values="0 0 0 0 0.0704861 0 0 0 0 0.235625 0 0 0 0 0.483333 0 0 0 0.38 0"/>
<feBlend mode="normal" in2="effect2_dropShadow_1746_3804" result="effect3_dropShadow_1746_3804"/>
<feColorMatrix in="SourceAlpha" type="matrix" values="0 0 0 0 0 0 0 0 0 0 0 0 0 0 0 0 0 0 127 0" result="hardAlpha"/>
<feOffset dy="44.5593"/>
<feGaussianBlur stdDeviation="83.832"/>
<feColorMatrix type="matrix" values="0 0 0 0 0.411765 0 0 0 0 0.0470588 0 0 0 0 1 0 0 0 0.630424 0"/>
<feBlend mode="normal" in2="effect3_dropShadow_1746_3804" result="effect4_dropShadow_1746_3804"/>
<feBlend mode="normal" in="SourceGraphic" in2="effect4_dropShadow_1746_3804" result="shape"/>
<feColorMatrix in="SourceAlpha" type="matrix" values="0 0 0 0 0 0 0 0 0 0 0 0 0 0 0 0 0 0 127 0" result="hardAlpha"/>
<feOffset dy="-3.6724"/>
<feGaussianBlur stdDeviation="1.8362"/>
<feComposite in2="hardAlpha" operator="arithmetic" k2="-1" k3="1"/>
<feColorMatrix type="matrix" values="0 0 0 0 1 0 0 0 0 1 0 0 0 0 1 0 0 0 0.08 0"/>
<feBlend mode="normal" in2="shape" result="effect5_innerShadow_1746_3804"/>
<feColorMatrix in="SourceAlpha" type="matrix" values="0 0 0 0 0 0 0 0 0 0 0 0 0 0 0 0 0 0 127 0" result="hardAlpha"/>
<feOffset dx="1.8362"/>
<feGaussianBlur stdDeviation="1.8362"/>
<feComposite in2="hardAlpha" operator="arithmetic" k2="-1" k3="1"/>
<feColorMatrix type="matrix" values="0 0 0 0 1 0 0 0 0 1 0 0 0 0 1 0 0 0 0.29 0"/>
<feBlend mode="normal" in2="effect5_innerShadow_1746_3804" result="effect6_innerShadow_1746_3804"/>
</filter>
<filter id="filter7_f_1746_3804" x="344.6" y="182.733" width="26.56" height="26.5599" filterUnits="userSpaceOnUse" color-interpolation-filters="sRGB">
<feFlood flood-opacity="0" result="BackgroundImageFix"/>
<feBlend mode="normal" in="SourceGraphic" in2="BackgroundImageFix" result="shape"/>
<feGaussianBlur stdDeviation="2.21333" result="effect1_foregroundBlur_1746_3804"/>
</filter>
<filter id="filter8_f_1746_3804" x="352.347" y="190.48" width="11.0667" height="11.0668" filterUnits="userSpaceOnUse" color-interpolation-filters="sRGB">
<feFlood flood-opacity="0" result="BackgroundImageFix"/>
<feBlend mode="normal" in="SourceGraphic" in2="BackgroundImageFix" result="shape"/>
<feGaussianBlur stdDeviation="1.10667" result="effect1_foregroundBlur_1746_3804"/>
</filter>
<filter id="filter9_f_1746_3804" x="175.28" y="209.293" width="26.5599" height="26.5599" filterUnits="userSpaceOnUse" color-interpolation-filters="sRGB">
<feFlood flood-opacity="0" result="BackgroundImageFix"/>
<feBlend mode="normal" in="SourceGraphic" in2="BackgroundImageFix" result="shape"/>
<feGaussianBlur stdDeviation="2.21333" result="effect1_foregroundBlur_1746_3804"/>
</filter>
<filter id="filter10_f_1746_3804" x="183.027" y="217.04" width="11.0666" height="11.0668" filterUnits="userSpaceOnUse" color-interpolation-filters="sRGB">
<feFlood flood-opacity="0" result="BackgroundImageFix"/>
<feBlend mode="normal" in="SourceGraphic" in2="BackgroundImageFix" result="shape"/>
<feGaussianBlur stdDeviation="1.10667" result="effect1_foregroundBlur_1746_3804"/>
</filter>
<filter id="filter11_f_1746_3804" x="214.013" y="104.16" width="26.5599" height="26.5599" filterUnits="userSpaceOnUse" color-interpolation-filters="sRGB">
<feFlood flood-opacity="0" result="BackgroundImageFix"/>
<feBlend mode="normal" in="SourceGraphic" in2="BackgroundImageFix" result="shape"/>
<feGaussianBlur stdDeviation="2.21333" result="effect1_foregroundBlur_1746_3804"/>
</filter>
<filter id="filter12_f_1746_3804" x="221.76" y="111.907" width="11.0666" height="11.0668" filterUnits="userSpaceOnUse" color-interpolation-filters="sRGB">
<feFlood flood-opacity="0" result="BackgroundImageFix"/>
<feBlend mode="normal" in="SourceGraphic" in2="BackgroundImageFix" result="shape"/>
<feGaussianBlur stdDeviation="1.10667" result="effect1_foregroundBlur_1746_3804"/>
</filter>
<filter id="filter13_f_1746_3804" x="157.573" y="136.253" width="26.5599" height="26.5599" filterUnits="userSpaceOnUse" color-interpolation-filters="sRGB">
<feFlood flood-opacity="0" result="BackgroundImageFix"/>
<feBlend mode="normal" in="SourceGraphic" in2="BackgroundImageFix" result="shape"/>
<feGaussianBlur stdDeviation="2.21333" result="effect1_foregroundBlur_1746_3804"/>
</filter>
<filter id="filter14_f_1746_3804" x="165.32" y="144" width="11.0666" height="11.0668" filterUnits="userSpaceOnUse" color-interpolation-filters="sRGB">
<feFlood flood-opacity="0" result="BackgroundImageFix"/>
<feBlend mode="normal" in="SourceGraphic" in2="BackgroundImageFix" result="shape"/>
<feGaussianBlur stdDeviation="1.10667" result="effect1_foregroundBlur_1746_3804"/>
</filter>
<filter id="filter15_f_1746_3804" x="332.427" y="302.253" width="26.56" height="26.5599" filterUnits="userSpaceOnUse" color-interpolation-filters="sRGB">
<feFlood flood-opacity="0" result="BackgroundImageFix"/>
<feBlend mode="normal" in="SourceGraphic" in2="BackgroundImageFix" result="shape"/>
<feGaussianBlur stdDeviation="2.21333" result="effect1_foregroundBlur_1746_3804"/>
</filter>
<filter id="filter16_f_1746_3804" x="340.173" y="310" width="11.0667" height="11.0668" filterUnits="userSpaceOnUse" color-interpolation-filters="sRGB">
<feFlood flood-opacity="0" result="BackgroundImageFix"/>
<feBlend mode="normal" in="SourceGraphic" in2="BackgroundImageFix" result="shape"/>
<feGaussianBlur stdDeviation="1.10667" result="effect1_foregroundBlur_1746_3804"/>
</filter>
<filter id="filter17_f_1746_3804" x="267.133" y="152.853" width="24.3466" height="24.3465" filterUnits="userSpaceOnUse" color-interpolation-filters="sRGB">
<feFlood flood-opacity="0" result="BackgroundImageFix"/>
<feBlend mode="normal" in="SourceGraphic" in2="BackgroundImageFix" result="shape"/>
<feGaussianBlur stdDeviation="2.21333" result="effect1_foregroundBlur_1746_3804"/>
</filter>
<filter id="filter18_f_1746_3804" x="274.88" y="160.6" width="9.95999" height="9.95987" filterUnits="userSpaceOnUse" color-interpolation-filters="sRGB">
<feFlood flood-opacity="0" result="BackgroundImageFix"/>
<feBlend mode="normal" in="SourceGraphic" in2="BackgroundImageFix" result="shape"/>
<feGaussianBlur stdDeviation="1.10667" result="effect1_foregroundBlur_1746_3804"/>
</filter>
<filter id="filter19_ddddii_1746_3804" x="38.8306" y="0.0910835" width="467.548" height="448.124" filterUnits="userSpaceOnUse" color-interpolation-filters="sRGB">
<feFlood flood-opacity="0" result="BackgroundImageFix"/>
<feColorMatrix in="SourceAlpha" type="matrix" values="0 0 0 0 0 0 0 0 0 0 0 0 0 0 0 0 0 0 127 0" result="hardAlpha"/>
<feOffset dy="2.51038"/>
<feGaussianBlur stdDeviation="4.72292"/>
<feColorMatrix type="matrix" values="0 0 0 0 0.0704861 0 0 0 0 0.235625 0 0 0 0 0.483333 0 0 0 0.38 0"/>
<feBlend mode="normal" in2="BackgroundImageFix" result="effect1_dropShadow_1746_3804"/>
<feColorMatrix in="SourceAlpha" type="matrix" values="0 0 0 0 0 0 0 0 0 0 0 0 0 0 0 0 0 0 127 0" result="hardAlpha"/>
<feOffset dy="50.0869"/>
<feGaussianBlur stdDeviation="94.2313"/>
<feColorMatrix type="matrix" values="0 0 0 0 0.411765 0 0 0 0 0.0470588 0 0 0 0 1 0 0 0 0.630424 0"/>
<feBlend mode="normal" in2="effect1_dropShadow_1746_3804" result="effect2_dropShadow_1746_3804"/>
<feColorMatrix in="SourceAlpha" type="matrix" values="0 0 0 0 0 0 0 0 0 0 0 0 0 0 0 0 0 0 127 0" result="hardAlpha"/>
<feOffset dy="2.23333"/>
<feGaussianBlur stdDeviation="4.2017"/>
<feColorMatrix type="matrix" values="0 0 0 0 0.0704861 0 0 0 0 0.235625 0 0 0 0 0.483333 0 0 0 0.38 0"/>
<feBlend mode="normal" in2="effect2_dropShadow_1746_3804" result="effect3_dropShadow_1746_3804"/>
<feColorMatrix in="SourceAlpha" type="matrix" values="0 0 0 0 0 0 0 0 0 0 0 0 0 0 0 0 0 0 127 0" result="hardAlpha"/>
<feOffset dy="44.5593"/>
<feGaussianBlur stdDeviation="83.832"/>
<feColorMatrix type="matrix" values="0 0 0 0 0.411765 0 0 0 0 0.0470588 0 0 0 0 1 0 0 0 0.630424 0"/>
<feBlend mode="normal" in2="effect3_dropShadow_1746_3804" result="effect4_dropShadow_1746_3804"/>
<feBlend mode="normal" in="SourceGraphic" in2="effect4_dropShadow_1746_3804" result="shape"/>
<feColorMatrix in="SourceAlpha" type="matrix" values="0 0 0 0 0 0 0 0 0 0 0 0 0 0 0 0 0 0 127 0" result="hardAlpha"/>
<feOffset dy="-3.6724"/>
<feGaussianBlur stdDeviation="1.8362"/>
<feComposite in2="hardAlpha" operator="arithmetic" k2="-1" k3="1"/>
<feColorMatrix type="matrix" values="0 0 0 0 1 0 0 0 0 1 0 0 0 0 1 0 0 0 0.08 0"/>
<feBlend mode="normal" in2="shape" result="effect5_innerShadow_1746_3804"/>
<feColorMatrix in="SourceAlpha" type="matrix" values="0 0 0 0 0 0 0 0 0 0 0 0 0 0 0 0 0 0 127 0" result="hardAlpha"/>
<feOffset dx="1.8362"/>
<feGaussianBlur stdDeviation="1.8362"/>
<feComposite in2="hardAlpha" operator="arithmetic" k2="-1" k3="1"/>
<feColorMatrix type="matrix" values="0 0 0 0 1 0 0 0 0 1 0 0 0 0 1 0 0 0 0.29 0"/>
<feBlend mode="normal" in2="effect5_innerShadow_1746_3804" result="effect6_innerShadow_1746_3804"/>
</filter>
<filter id="filter20_dd_1746_3804" x="216.434" y="37.4435" width="251.59" height="251.59" filterUnits="userSpaceOnUse" color-interpolation-filters="sRGB">
<feFlood flood-opacity="0" result="BackgroundImageFix"/>
<feColorMatrix in="SourceAlpha" type="matrix" values="0 0 0 0 0 0 0 0 0 0 0 0 0 0 0 0 0 0 127 0" result="hardAlpha"/>
<feOffset dy="1.47135"/>
<feGaussianBlur stdDeviation="2.76813"/>
<feColorMatrix type="matrix" values="0 0 0 0 0.0704861 0 0 0 0 0.235625 0 0 0 0 0.483333 0 0 0 0.38 0"/>
<feBlend mode="normal" in2="BackgroundImageFix" result="effect1_dropShadow_1746_3804"/>
<feColorMatrix in="SourceAlpha" type="matrix" values="0 0 0 0 0 0 0 0 0 0 0 0 0 0 0 0 0 0 127 0" result="hardAlpha"/>
<feOffset dy="29.3562"/>
<feGaussianBlur stdDeviation="55.2295"/>
<feColorMatrix type="matrix" values="0 0 0 0 0.411765 0 0 0 0 0.0470588 0 0 0 0 1 0 0 0 0.630424 0"/>
<feBlend mode="normal" in2="effect1_dropShadow_1746_3804" result="effect2_dropShadow_1746_3804"/>
<feBlend mode="normal" in="SourceGraphic" in2="effect2_dropShadow_1746_3804" result="shape"/>
</filter>
<filter id="filter21_bii_1746_3804" x="325.836" y="117.489" width="32.7872" height="32.7872" filterUnits="userSpaceOnUse" color-interpolation-filters="sRGB">
<feFlood flood-opacity="0" result="BackgroundImageFix"/>
<feGaussianBlur in="BackgroundImage" stdDeviation="0.528826"/>
<feComposite in2="SourceAlpha" operator="in" result="effect1_backgroundBlur_1746_3804"/>
<feBlend mode="normal" in="SourceGraphic" in2="effect1_backgroundBlur_1746_3804" result="shape"/>
<feColorMatrix in="SourceAlpha" type="matrix" values="0 0 0 0 0 0 0 0 0 0 0 0 0 0 0 0 0 0 127 0" result="hardAlpha"/>
<feOffset dy="-1.05765"/>
<feGaussianBlur stdDeviation="0.528826"/>
<feComposite in2="hardAlpha" operator="arithmetic" k2="-1" k3="1"/>
<feColorMatrix type="matrix" values="0 0 0 0 1 0 0 0 0 1 0 0 0 0 1 0 0 0 0.08 0"/>
<feBlend mode="normal" in2="shape" result="effect2_innerShadow_1746_3804"/>
<feColorMatrix in="SourceAlpha" type="matrix" values="0 0 0 0 0 0 0 0 0 0 0 0 0 0 0 0 0 0 127 0" result="hardAlpha"/>
<feOffset dx="0.528826"/>
<feGaussianBlur stdDeviation="0.528826"/>
<feComposite in2="hardAlpha" operator="arithmetic" k2="-1" k3="1"/>
<feColorMatrix type="matrix" values="0 0 0 0 1 0 0 0 0 1 0 0 0 0 1 0 0 0 0.29 0"/>
<feBlend mode="normal" in2="effect2_innerShadow_1746_3804" result="effect3_innerShadow_1746_3804"/>
</filter>
<linearGradient id="paint0_linear_1746_3804" x1="188.647" y1="220.447" x2="263.54" y2="207.473" gradientUnits="userSpaceOnUse">
<stop stop-color="#1CA2EB"/>
<stop offset="1" stop-color="#194F8A"/>
</linearGradient>
<linearGradient id="paint1_linear_1746_3804" x1="294.889" y1="220.447" x2="371.11" y2="206.994" gradientUnits="userSpaceOnUse">
<stop stop-color="#1CA2EB"/>
<stop offset="1" stop-color="#194F8A"/>
</linearGradient>
<linearGradient id="paint2_linear_1746_3804" x1="204.122" y1="159.254" x2="263.141" y2="148.091" gradientUnits="userSpaceOnUse">
<stop stop-color="#1CA2EB"/>
<stop offset="1" stop-color="#194F8A"/>
</linearGradient>
<linearGradient id="paint3_linear_1746_3804" x1="292.656" y1="158.166" x2="351.762" y2="147.229" gradientUnits="userSpaceOnUse">
<stop stop-color="#1CA2EB"/>
<stop offset="1" stop-color="#194F8A"/>
</linearGradient>
<linearGradient id="paint4_linear_1746_3804" x1="243.974" y1="178.125" x2="312.365" y2="163.976" gradientUnits="userSpaceOnUse">
<stop stop-color="#1CA2EB"/>
<stop offset="1" stop-color="#194F8A"/>
</linearGradient>
<linearGradient id="paint5_linear_1746_3804" x1="227.427" y1="246.969" x2="337.11" y2="216.961" gradientUnits="userSpaceOnUse">
<stop stop-color="#1CA2EB"/>
<stop offset="1" stop-color="#194F8A"/>
</linearGradient>
<linearGradient id="paint6_linear_1746_3804" x1="237.357" y1="254.446" x2="322.493" y2="230.817" gradientUnits="userSpaceOnUse">
<stop stop-color="#1CA2EB"/>
<stop offset="1" stop-color="#194F8A"/>
</linearGradient>
<radialGradient id="paint7_radial_1746_3804" cx="0" cy="0" r="1" gradientUnits="userSpaceOnUse" gradientTransform="translate(357.88 196.013) rotate(-30.9638) scale(16.1323 9.06762)">
<stop stop-color="#1CA2EB"/>
<stop offset="1" stop-color="#194F8A"/>
</radialGradient>
<linearGradient id="paint8_linear_1746_3804" x1="354.57" y1="192.809" x2="362.958" y2="191.109" gradientUnits="userSpaceOnUse">
<stop stop-color="#1CA2EB"/>
<stop offset="1" stop-color="#194F8A"/>
</linearGradient>
<radialGradient id="paint9_radial_1746_3804" cx="0" cy="0" r="1" gradientUnits="userSpaceOnUse" gradientTransform="translate(188.56 222.573) rotate(-30.9638) scale(16.1323 9.06762)">
<stop stop-color="#1CA2EB"/>
<stop offset="1" stop-color="#194F8A"/>
</radialGradient>
<linearGradient id="paint10_linear_1746_3804" x1="185.25" y1="219.369" x2="193.638" y2="217.669" gradientUnits="userSpaceOnUse">
<stop stop-color="#1CA2EB"/>
<stop offset="1" stop-color="#194F8A"/>
</linearGradient>
<radialGradient id="paint11_radial_1746_3804" cx="0" cy="0" r="1" gradientUnits="userSpaceOnUse" gradientTransform="translate(227.293 117.44) rotate(-30.9638) scale(16.1323 9.06762)">
<stop stop-color="#1CA2EB"/>
<stop offset="1" stop-color="#194F8A"/>
</radialGradient>
<linearGradient id="paint12_linear_1746_3804" x1="223.983" y1="114.236" x2="232.372" y2="112.536" gradientUnits="userSpaceOnUse">
<stop stop-color="#1CA2EB"/>
<stop offset="1" stop-color="#194F8A"/>
</linearGradient>
<radialGradient id="paint13_radial_1746_3804" cx="0" cy="0" r="1" gradientUnits="userSpaceOnUse" gradientTransform="translate(170.853 149.533) rotate(-30.9638) scale(16.1323 9.06762)">
<stop stop-color="#1CA2EB"/>
<stop offset="1" stop-color="#194F8A"/>
</radialGradient>
<linearGradient id="paint14_linear_1746_3804" x1="167.543" y1="146.329" x2="175.931" y2="144.629" gradientUnits="userSpaceOnUse">
<stop stop-color="#1CA2EB"/>
<stop offset="1" stop-color="#194F8A"/>
</linearGradient>
<radialGradient id="paint15_radial_1746_3804" cx="0" cy="0" r="1" gradientUnits="userSpaceOnUse" gradientTransform="translate(345.707 315.533) rotate(-30.9638) scale(16.1323 9.06762)">
<stop stop-color="#1CA2EB"/>
<stop offset="1" stop-color="#194F8A"/>
</radialGradient>
<linearGradient id="paint16_linear_1746_3804" x1="342.396" y1="312.328" x2="350.785" y2="310.629" gradientUnits="userSpaceOnUse">
<stop stop-color="#1CA2EB"/>
<stop offset="1" stop-color="#194F8A"/>
</linearGradient>
<radialGradient id="paint17_radial_1746_3804" cx="0" cy="0" r="1" gradientUnits="userSpaceOnUse" gradientTransform="translate(279.307 165.026) rotate(-30.9638) scale(14.1158 7.93417)">
<stop stop-color="#1CA2EB"/>
<stop offset="1" stop-color="#194F8A"/>
</radialGradient>
<linearGradient id="paint18_linear_1746_3804" x1="277.101" y1="162.909" x2="284.092" y2="161.493" gradientUnits="userSpaceOnUse">
<stop stop-color="#1CA2EB"/>
<stop offset="1" stop-color="#194F8A"/>
</linearGradient>
<linearGradient id="paint19_linear_1746_3804" x1="227.428" y1="139.706" x2="339.178" y2="110.881" gradientUnits="userSpaceOnUse">
<stop stop-color="#1CA2EB"/>
<stop offset="1" stop-color="#00F1FF"/>
</linearGradient>
<linearGradient id="paint20_linear_1746_3804" x1="227.428" y1="139.706" x2="339.178" y2="110.881" gradientUnits="userSpaceOnUse">
<stop stop-color="#1CA2EB"/>
<stop offset="1" stop-color="#00F1FF"/>
</linearGradient>
<linearGradient id="paint21_linear_1746_3804" x1="227.428" y1="139.706" x2="339.178" y2="110.881" gradientUnits="userSpaceOnUse">
<stop stop-color="#1CA2EB"/>
<stop offset="1" stop-color="#194F8A"/>
</linearGradient>
<radialGradient id="paint22_radial_1746_3804" cx="0" cy="0" r="1" gradientUnits="userSpaceOnUse" gradientTransform="translate(350.302 125.079) rotate(137.786) scale(19.6222 12.6831)">
<stop stop-color="#00F1FF"/>
<stop offset="1" stop-color="#1CA2EB"/>
</radialGradient>
</defs>
</svg>
