<svg width="99" height="98" viewBox="0 0 99 98" fill="none" xmlns="http://www.w3.org/2000/svg">
<g filter="url(#filter0_f_640_10094)">
<circle cx="49.2165" cy="49" r="25" fill="#CCD8ED"/>
</g>
<g clip-path="url(#clip0_640_10094)">
<g clip-path="url(#clip1_640_10094)">
<rect x="28.2165" y="28" width="42" height="42" rx="21" fill="#ECECEC"/>
<g clip-path="url(#clip2_640_10094)">
<path d="M54.3464 56.8713C55.3936 56.5954 57.2786 57.0782 57.5578 56.8023C57.8371 56.5954 61.3976 50.6633 61.1881 49.6286C60.9787 48.6629 60.9787 46.8695 59.722 43.9724C58.9541 42.248 58.2559 40.5925 56.9993 39.6268L55.7426 38.6611C55.1841 37.8334 54.9747 37.0056 54.6256 36.6607C54.1369 36.3158 50.7161 35.902 50.1575 36.0399C49.599 36.1779 48.6216 36.7987 47.8537 37.8334C47.7141 38.0403 47.6442 38.2472 46.8763 38.1782C45.9687 38.1093 44.0837 37.9023 43.595 38.1782C43.1063 38.4542 40.8025 39.9027 40.7327 40.7304C40.6629 41.5582 41.5006 42.6618 41.2214 43.2826C41.0817 43.5585 36.2646 46.8005 36.2646 48.2491C36.2646 49.0768 36.6137 50.1115 37.1024 50.9392C37.3118 51.2151 37.5212 51.56 38.0099 52.2498C38.359 52.8016 38.4288 53.5604 38.359 53.7673C38.2194 55.6297 37.6609 55.7677 37.6609 56.2505C37.6609 56.7334 38.0797 58.6647 38.4288 58.9407C38.7779 59.2855 40.4534 59.6994 42.2686 60.1823C42.7573 60.3202 43.7347 60.6651 44.1536 60.941C44.9913 61.4928 45.8291 62.8034 46.5272 62.9414C47.2254 63.0104 50.7859 61.148 51.9029 60.1133C52.3916 59.6994 52.8105 58.8717 53.1595 57.906C53.369 57.768 53.8577 56.9403 54.3464 56.8713Z" fill="white"/>
<path d="M46.6669 63.7C46.5971 63.7 46.5971 63.7 46.5272 63.7C45.8989 63.6311 45.3404 63.0792 44.7819 62.4584C44.4328 62.1135 44.1536 61.7687 43.8743 61.6307C43.5252 61.4238 42.6875 61.0789 42.1988 60.9409L41.2912 60.665C39.476 60.1822 38.4986 59.9062 38.0798 59.5614C37.3816 59.0095 37.0326 56.7332 37.0326 56.3194C37.0326 55.9745 37.1722 55.6986 37.242 55.4916C37.3816 55.2157 37.5911 54.8019 37.6609 53.7672C37.6609 53.5603 37.6609 53.0084 37.3816 52.6635C37.1722 52.3876 37.0326 52.1807 36.8929 52.0427C36.6835 51.7668 36.5439 51.5599 36.4042 51.353C35.9155 50.3183 35.5665 49.1457 35.5665 48.2489C35.5665 47.0763 37.1024 45.6278 39.8251 43.4895C40.1044 43.2825 40.3836 43.0066 40.5931 42.8686C40.5931 42.7307 40.4534 42.3858 40.3836 42.1789C40.1044 41.765 39.8949 41.1442 40.0346 40.5924C40.1742 39.4887 42.129 38.2471 43.246 37.5573C43.7347 37.2814 44.6423 37.2814 46.5272 37.4194H46.9461C47.0857 37.4194 47.2254 37.4194 47.2254 37.4194V37.3504C47.9933 36.2467 49.1104 35.557 49.8783 35.35C50.6463 35.1431 54.2068 35.557 54.9747 36.0398C55.3238 36.3157 55.5332 36.7296 55.7427 37.2124C55.8823 37.4884 56.0219 37.8332 56.2314 38.1092L57.3484 39.0059C58.6748 40.0405 59.4428 41.696 60.2806 43.6274C61.3278 45.9727 61.5372 47.6281 61.6768 48.7318C61.7467 49.0077 61.7467 49.2146 61.8165 49.4216C62.0957 50.8701 58.256 57.0092 57.9767 57.2161C57.6276 57.492 57.2088 57.423 56.371 57.3541C55.8125 57.2851 54.9747 57.2161 54.5558 57.3541C54.4162 57.423 54.0671 57.8369 53.9973 58.0438C53.5784 59.1475 53.0897 59.9752 52.601 60.4581C51.5538 61.5617 47.9235 63.7 46.6669 63.7ZM44.5026 38.73C44.2234 38.73 44.0139 38.73 43.9441 38.7989C42.7573 39.5577 41.5006 40.4544 41.4308 40.8683C41.4308 41.0752 41.5705 41.4891 41.7101 41.834C41.8497 42.3168 42.129 42.9376 41.8497 43.4895C41.7799 43.6964 41.5705 43.8343 40.6629 44.5931C38.2194 46.5245 36.9627 47.7661 36.9627 48.2489C36.9627 48.8697 37.242 49.8354 37.7307 50.5252C37.8703 50.7322 37.9401 50.8701 38.1496 51.146C38.2892 51.353 38.4288 51.5599 38.6383 51.7668C39.127 52.4566 39.1968 53.3533 39.127 53.7672C39.0572 55.1468 38.7081 55.6986 38.5685 56.0435C38.4986 56.1124 38.4986 56.2504 38.4986 56.2504C38.4986 56.7332 38.8477 58.1818 39.0572 58.4577C39.2666 58.5957 40.5931 59.0095 41.7101 59.2854L42.6177 59.5614C42.9667 59.6303 44.0838 60.0442 44.7121 60.3891C45.131 60.665 45.48 61.0789 45.8989 61.4238C46.1782 61.6997 46.6669 62.1825 46.8763 62.2515C47.4348 62.1825 50.6463 60.527 51.6935 59.5614C52.0425 59.2165 52.3916 58.5267 52.7407 57.63C52.8105 57.3541 53.4388 56.3194 54.2766 56.1124C54.9747 55.9055 55.8823 55.9745 56.6502 56.0435C56.8597 56.0435 57.1389 56.1124 57.2786 56.1124C57.9767 55.0778 60.5598 50.5252 60.5598 49.6975C60.49 49.4905 60.49 49.2836 60.4202 48.9387C60.2806 47.9041 60.0711 46.3865 59.0937 44.1792C58.256 42.5238 57.5578 41.0062 56.5106 40.1785L55.1143 39.0749C54.8351 38.661 54.6256 38.2471 54.486 37.9022C54.3464 37.6953 54.2068 37.3504 54.1369 37.2814C53.7181 37.0055 50.7859 36.5916 50.2274 36.7296C49.8085 36.8676 48.9707 37.3504 48.3424 38.2471C48.0631 38.592 47.7141 38.9369 46.7367 38.8679H46.3178C45.8989 38.7989 45.0611 38.73 44.5026 38.73Z" fill="black"/>
<path d="M53.6483 58.4576L52.6709 58.1127C52.6709 58.0438 53.8577 54.5948 51.9029 49.9043C51.2048 48.1799 50.8557 46.8693 50.8557 45.6967C50.8557 44.4551 50.8557 42.1098 53.0898 40.3164C54.4162 39.2127 55.9521 38.5919 56.0219 38.5229L56.4408 39.4886C56.4408 39.4886 54.9747 40.1094 53.7181 41.0751C52.0425 42.3857 51.9029 44.1102 51.9029 45.6277C51.9029 46.3175 51.9727 47.4211 52.8803 49.4215C54.9747 54.6638 53.6483 58.3197 53.6483 58.4576Z" fill="black"/>
<path d="M43.7347 60.4581L42.8271 59.9752C42.8969 59.9063 43.8743 58.0438 45.6895 56.3194C46.597 55.4917 47.6442 54.9398 48.5518 54.457C49.4594 53.9741 50.2274 53.5603 50.7859 52.9395C52.1821 51.215 51.6236 49.0767 51.6236 49.0767L52.6708 48.8008C52.6708 48.9387 53.2992 51.4909 51.6236 53.5603C50.9953 54.388 50.0877 54.8709 49.1103 55.3537C48.2028 55.8365 47.2952 56.3194 46.5272 57.0782C44.6422 58.7336 43.7347 60.4581 43.7347 60.4581Z" fill="black"/>
<path d="M44.9215 46.9383L44.7121 46.1795C44.4328 45.0759 44.0139 44.3861 43.8045 44.1792C42.9667 43.3514 41.6402 43.4204 41.6402 43.4894L41.5704 42.4547C41.6402 42.4547 43.3856 42.3168 44.5724 43.4894C44.8517 43.8343 45.2008 44.4551 45.48 45.2828C46.248 44.8689 47.7141 44.2481 49.5292 44.5241C51.5538 44.8 51.9029 46.5244 51.9029 46.5934L50.9255 46.7314C50.9255 46.6624 50.716 45.6967 49.3896 45.4897C47.1555 45.1449 45.5498 46.4554 45.5498 46.4554L44.9215 46.9383Z" fill="black"/>
<path d="M43.8743 43.2825L42.8271 43.0066C42.8271 42.9376 43.3158 41.1442 45.2706 40.3855C45.8291 40.1785 46.3178 40.0406 46.7367 39.9026C46.9461 39.8336 47.2254 39.7647 47.2952 39.6957C47.2952 39.6957 47.2952 39.6267 47.2952 39.5577C47.2952 39.0749 46.8763 38.4541 46.7367 38.3161L47.5744 37.6953C47.6442 37.7643 48.3424 38.73 48.3424 39.6267C48.3424 40.5234 47.7141 40.7303 47.0159 40.9373C46.6668 41.0063 46.248 41.1442 45.6895 41.3512C44.2234 41.972 43.8743 43.2825 43.8743 43.2825Z" fill="black"/>
<path d="M38.5685 53.2151C38.359 53.2151 38.2194 53.1462 38.1496 52.9392C38.01 52.6633 38.0798 52.3874 38.359 52.2494C39.0572 51.8356 42.5479 49.9042 43.8045 49.9732C44.4328 50.0421 44.9215 50.387 45.4102 50.7319C46.1084 51.2148 46.6669 51.6286 47.5745 51.3527C48.3424 51.1458 48.8311 50.8009 49.1104 50.3181C49.3198 49.9732 49.3198 49.6283 49.25 49.4213C49.1802 49.0765 49.0405 48.8005 48.8311 48.7316C48.6915 48.6626 48.2726 48.5936 47.2254 49.0075C46.9461 49.1454 46.6669 49.0075 46.5272 48.7316C46.3876 48.4557 46.5272 48.1797 46.8065 48.0418C47.8537 47.5589 48.6915 47.49 49.25 47.7659C49.9481 48.1108 50.1576 48.8005 50.2274 49.1454C50.367 49.6973 50.2972 50.3181 49.9481 50.8699C49.6689 51.3527 49.0405 52.0425 47.7839 52.3184C46.3876 52.6633 45.4102 51.9735 44.7121 51.4907C44.2932 51.2148 44.0139 50.9389 43.6649 50.9389C42.9667 50.8699 40.3836 52.1805 38.8477 53.0772C38.7779 53.2151 38.6383 53.2151 38.5685 53.2151Z" fill="black"/>
<path d="M44.5026 51.2842C44.363 51.2842 44.1535 51.2152 44.0837 51.0773C44.0139 51.0083 42.8969 49.1459 43.9441 47.0765C44.5026 45.9729 44.9215 45.628 44.9913 45.559C45.2008 45.3521 45.5498 45.3521 45.7593 45.559C45.9687 45.7659 45.9687 46.1108 45.7593 46.3178C45.7593 46.3178 45.4102 46.6627 44.9215 47.5594C44.0837 49.0769 44.9913 50.4565 44.9913 50.5254C45.1309 50.7324 45.0611 51.0773 44.8517 51.2152C44.7121 51.2842 44.6422 51.2842 44.5026 51.2842Z" fill="black"/>
</g>
</g>
</g>
<rect x="26.2165" y="26" width="46" height="46" rx="23" stroke="url(#paint0_linear_640_10094)" stroke-width="4"/>
<defs>
<filter id="filter0_f_640_10094" x="0.216492" y="0" width="98" height="98" filterUnits="userSpaceOnUse" color-interpolation-filters="sRGB">
<feFlood flood-opacity="0" result="BackgroundImageFix"/>
<feBlend mode="normal" in="SourceGraphic" in2="BackgroundImageFix" result="shape"/>
<feGaussianBlur stdDeviation="12" result="effect1_foregroundBlur_640_10094"/>
</filter>
<linearGradient id="paint0_linear_640_10094" x1="49.2165" y1="28" x2="49.2165" y2="70" gradientUnits="userSpaceOnUse">
<stop stop-color="#35B6F1"/>
<stop offset="1" stop-color="#4CD4EC"/>
</linearGradient>
<clipPath id="clip0_640_10094">
<rect x="28.2165" y="28" width="42" height="42" rx="21" fill="white"/>
</clipPath>
<clipPath id="clip1_640_10094">
<rect width="42" height="42" fill="white" transform="translate(28.2165 28)"/>
</clipPath>
<clipPath id="clip2_640_10094">
<rect width="26.25" height="28.35" fill="white" transform="translate(35.5665 35.3501)"/>
</clipPath>
</defs>
</svg>
