<svg width="99" height="98" viewBox="0 0 99 98" fill="none" xmlns="http://www.w3.org/2000/svg">
<g filter="url(#filter0_f_640_10093)">
<circle cx="49.2166" cy="49" r="25" fill="#CCD8ED"/>
</g>
<g clip-path="url(#clip0_640_10093)">
<g clip-path="url(#clip1_640_10093)">
<rect x="28.2166" y="28" width="42" height="42" rx="21" fill="#ECC081"/>
<g clip-path="url(#clip2_640_10093)">
<path d="M46.2095 34.0361C46.2095 34.0361 50.479 36.08 54.9037 42.2901C59.3284 48.5003 59.1732 52.5094 58.7074 55.4966C58.0864 59.427 53.6617 62.9645 47.7621 61.6281C41.8625 60.2917 40.077 55.4966 40.6981 51.8805C41.4743 47.3998 44.657 46.7709 46.1319 43.4693C47.7621 39.9319 47.7621 35.9228 46.2095 34.0361Z" fill="white"/>
<path d="M50.2461 62.6503C49.3922 62.6503 48.4607 62.5716 47.5292 62.3358C41.2415 60.9208 39.1456 55.8112 39.9218 51.7235C40.4652 48.815 41.8625 47.3214 43.1821 45.985C44.036 45.1203 44.8899 44.3342 45.4333 43.0765C46.9858 39.7749 47.0634 36.0802 45.6662 34.508C45.4333 34.1936 45.4333 33.8005 45.6662 33.4861C45.8214 33.2503 46.2096 33.1716 46.5201 33.3289C46.6753 33.4075 51.0224 35.5299 55.5247 41.8187C59.9494 48.0289 60.0271 52.1166 59.4837 55.5754C59.1732 57.6979 57.8535 59.6631 55.9905 60.9995C54.2827 62.1 52.342 62.6503 50.2461 62.6503ZM47.9173 36.0802C48.3831 38.2813 47.995 41.1112 46.7529 43.7839C46.0543 45.2775 45.1228 46.2208 44.1913 47.0856C42.9492 48.3433 41.7849 49.5224 41.3967 51.9593C40.7757 55.4968 42.5611 59.5845 47.8397 60.7636C50.479 61.3925 53.0407 60.9995 54.9813 59.5845C56.5339 58.4839 57.543 56.9118 57.8535 55.261C58.3193 52.1166 58.2417 48.4219 54.2051 42.6834C51.8763 39.3818 49.5475 37.338 47.9173 36.0802Z" fill="black"/>
<path d="M45.1229 46.1421C45.1229 46.1421 45.1229 50.0726 47.9951 52.195C49.5476 53.3742 53.196 53.9244 55.1367 51.8806C56.6116 50.3084 56.8445 48.1073 56.9221 47.0854C56.9221 47.0854 59.1733 51.4089 57.8536 56.0469C57.3879 57.7763 56.1458 59.2699 54.0499 60.2918C52.1093 61.2351 50.0134 61.3137 47.8398 60.8421C45.9768 60.449 44.5019 59.5843 43.2599 58.4052C42.0178 57.226 41.4744 55.7325 41.3192 54.4747C41.1639 53.0597 41.2416 51.6448 41.8626 50.1512C42.4836 48.5004 43.9585 47.3212 45.1229 46.1421Z" fill="#B1B2B1"/>
</g>
</g>
</g>
<rect x="26.2166" y="26" width="46" height="46" rx="23" stroke="url(#paint0_linear_640_10093)" stroke-width="4"/>
<defs>
<filter id="filter0_f_640_10093" x="0.216553" y="0" width="98" height="98" filterUnits="userSpaceOnUse" color-interpolation-filters="sRGB">
<feFlood flood-opacity="0" result="BackgroundImageFix"/>
<feBlend mode="normal" in="SourceGraphic" in2="BackgroundImageFix" result="shape"/>
<feGaussianBlur stdDeviation="12" result="effect1_foregroundBlur_640_10093"/>
</filter>
<linearGradient id="paint0_linear_640_10093" x1="49.2166" y1="28" x2="49.2166" y2="70" gradientUnits="userSpaceOnUse">
<stop stop-color="#35B6F1"/>
<stop offset="1" stop-color="#4CD4EC"/>
</linearGradient>
<clipPath id="clip0_640_10093">
<rect x="28.2166" y="28" width="42" height="42" rx="21" fill="white"/>
</clipPath>
<clipPath id="clip1_640_10093">
<rect width="42" height="42" fill="white" transform="translate(28.2166 28)"/>
</clipPath>
<clipPath id="clip2_640_10093">
<rect width="19.95" height="29.4" fill="white" transform="translate(39.7666 33.25)"/>
</clipPath>
</defs>
</svg>
