<svg width="99" height="98" viewBox="0 0 99 98" fill="none" xmlns="http://www.w3.org/2000/svg">
<g filter="url(#filter0_f_640_10056)">
<circle cx="49.2166" cy="49" r="25" fill="#CCD8ED"/>
</g>
<g clip-path="url(#clip0_640_10056)">
<g clip-path="url(#clip1_640_10056)">
<rect x="28.2166" y="28" width="42" height="42" rx="21" fill="#242C3E"/>
<g clip-path="url(#clip2_640_10056)">
<path d="M46.7655 48.8849C46.7655 48.8849 49.5065 47.5006 50.133 44.9629C50.133 44.9629 49.6632 48.0389 53.0307 49.3463C53.0307 49.3463 50.0547 49.6539 49.7415 52.1147C49.7415 52.1147 49.7415 49.4232 46.7655 48.8849Z" fill="black"/>
<path d="M57.8079 40.8101C57.8079 40.8101 58.7477 43.4247 58.5911 44.732C58.5128 45.9625 58.1995 47.4236 56.8682 48.1926C55.5368 48.9616 54.6754 49.1154 53.5789 49.1923C52.4825 49.2692 50.603 50.192 50.0548 51.5763C49.5066 52.9605 49.3499 54.6523 50.368 55.8827C51.3861 57.1132 51.856 57.3439 52.5608 57.4977C53.2657 57.6515 55.0669 58.2667 57.8863 57.0363C60.7056 55.8058 61.802 53.8064 62.4285 52.3453C63.055 50.8841 63.2117 49.5768 63.1334 48.1926C62.9767 46.7315 62.8201 45.1934 61.7237 43.6554C60.4707 41.9636 57.8079 40.8101 57.8079 40.8101Z" fill="white"/>
<path d="M54.597 58.651C53.5789 58.651 52.8741 58.4203 52.4042 58.3434C51.5428 58.1127 50.8379 57.8051 49.7415 56.4209C48.7234 55.1135 48.5668 53.2679 49.2716 51.3454C49.9765 49.5766 52.1693 48.5769 53.5006 48.4231C54.597 48.3462 55.2236 48.2693 56.3983 47.5003C57.4947 46.8851 57.7296 45.7316 57.8079 44.578C57.8863 43.809 57.3381 41.9634 57.0248 40.9637C56.9465 40.6561 57.0248 40.3485 57.2597 40.1178C57.4947 39.8871 57.8079 39.8871 58.1212 39.964C58.2778 40.0409 61.0189 41.1944 62.3502 43.1169C63.5249 44.8857 63.7599 46.5006 63.9165 48.0386C64.0731 49.7304 63.8382 51.1147 63.2117 52.5758C62.4285 54.3445 61.1755 56.4209 58.2778 57.6513C56.7899 58.4972 55.5368 58.651 54.597 58.651ZM59.061 42.3479C59.2959 43.1938 59.4526 44.1166 59.3742 44.7318C59.2959 46.1161 58.9827 47.8079 57.2597 48.8076C55.6934 49.7304 54.832 49.8073 53.6573 49.8842C52.7175 49.9611 51.1512 50.7302 50.7596 51.8068C50.368 52.8065 50.0548 54.2676 50.9946 55.4211C51.856 56.4978 52.2476 56.6516 52.7958 56.8054C53.5006 57.0361 55.0669 57.4206 57.573 56.4209C60.0008 55.4211 61.0189 53.6524 61.7237 52.1144C62.2719 50.884 62.4285 49.7304 62.3502 48.3462C62.2719 46.962 62.037 45.5778 61.0972 44.1166C60.549 43.4245 59.7658 42.8093 59.061 42.3479Z" fill="black"/>
<path d="M41.4401 57.1897C41.4401 57.1897 40.5003 54.2675 40.6569 53.037C40.8136 51.8066 41.2052 50.6531 42.6148 49.8072C44.0245 48.9613 44.8076 48.9613 45.904 48.9613C47.0005 48.9613 48.9583 48.1153 49.5065 46.6542C50.133 45.27 50.2114 43.6551 49.2716 42.2708C48.4884 41.0404 47.7836 40.8097 47.0788 40.579C46.4522 40.4252 44.651 39.8869 41.8317 40.9635C39.0123 42.0401 37.8376 44.0396 37.1328 45.5007C36.4279 46.9618 36.2713 48.1922 36.3496 49.6534C36.4279 51.1145 36.5846 52.4218 37.6027 54.2675C39.0123 56.6514 41.4401 57.1897 41.4401 57.1897Z" fill="white"/>
<path d="M41.4401 57.9589C41.3618 57.9589 41.2835 57.9589 41.2835 57.9589C41.2052 57.9589 38.5425 57.2668 36.9762 54.5753C35.8015 52.5758 35.6448 51.1147 35.5665 49.6536C35.4882 47.9617 35.7231 46.5775 36.428 45.1164C37.2111 43.4246 38.5425 41.2713 41.5184 40.1947C44.5727 39.0412 46.5306 39.6564 47.3138 39.964C48.1752 40.2716 49.0367 40.5792 49.8981 42.0403C50.8379 43.5015 50.9162 45.2702 50.1331 47.1158C49.3499 48.8846 47.1571 49.8074 45.8258 49.8843C44.7294 49.9612 44.1028 49.9612 42.8498 50.6533C41.8317 51.1916 41.3618 51.9606 41.2835 53.2679C41.2052 54.037 41.7534 56.0364 42.0667 57.113C42.145 57.3437 42.0667 57.6513 41.91 57.882C41.8317 57.882 41.6751 57.9589 41.4401 57.9589ZM44.886 41.1175C44.1028 41.1175 43.1631 41.2713 42.0667 41.6558C39.6389 42.5786 38.5425 44.2705 37.8376 45.8085C37.2894 47.0389 37.0545 48.1924 37.1328 49.5767C37.2111 50.9609 37.3678 52.1144 38.3075 53.8832C38.8557 54.806 39.5606 55.4212 40.1871 55.8826C39.9522 54.9598 39.7172 53.8063 39.7955 53.1141C39.9522 51.3454 40.7353 50.115 42.145 49.346C43.7113 48.5001 44.5727 48.4232 45.7475 48.3462C46.6872 48.2693 48.2535 47.5772 48.7234 46.5775C49.115 45.6547 49.4283 44.1936 48.5668 42.9632C47.862 41.8865 47.3921 41.7327 46.8439 41.5789C46.5306 41.2713 45.8258 41.1175 44.886 41.1175Z" fill="black"/>
<path d="M41.4402 41.1175C41.4402 41.1175 43.7113 39.8102 46.0608 40.3485C49.0367 41.0406 49.6633 42.6556 49.8199 43.886C49.9765 45.1164 49.8199 46.4237 50.0548 46.962C50.5247 47.9618 51.3079 49.1153 53.4224 49.2691C55.5369 49.4229 56.8682 48.7308 57.6514 47.7311C58.4345 46.7313 58.8261 45.5778 58.7478 44.4243C58.6695 43.1939 58.4345 41.5789 56.9465 39.6564C56.0068 38.3491 53.8923 36.4265 50.838 36.1958C48.1753 36.042 47.0789 36.3496 45.9825 36.888C45.3559 37.1956 42.4583 38.8874 41.4402 41.1175Z" fill="#B1B2B1"/>
<path d="M54.0488 50.0382C53.8139 50.0382 53.6573 50.0382 53.4223 50.0382C50.6813 49.8844 49.8198 48.1157 49.3499 47.2698C49.115 46.8084 49.115 46.1931 49.115 45.501C49.115 45.0396 49.115 44.5013 49.0367 43.963C48.88 42.8864 48.3318 41.656 45.8258 41.1176C43.8679 40.5793 41.8317 41.7329 41.8317 41.7329C41.5184 41.8867 41.2052 41.8867 40.8919 41.656C40.657 41.4253 40.5787 41.1176 40.7353 40.81C41.8317 38.4261 44.8077 36.5805 45.8258 36.196C47.1571 35.5807 48.4102 35.2731 50.9946 35.5038C54.832 35.7345 57.0248 38.4261 57.6513 39.272C59.2176 41.4253 59.5309 43.2709 59.6092 44.5013C59.6875 45.8086 59.2176 47.116 58.3562 48.2695C57.4164 49.423 56.0067 50.0382 54.0488 50.0382ZM44.886 39.4258C45.3559 39.4258 45.8258 39.5027 46.2957 39.5796C48.88 40.1948 50.368 41.5022 50.6813 43.7323C50.7596 44.3475 50.7596 44.9627 50.7596 45.501C50.7596 45.8855 50.7596 46.4238 50.8379 46.5776C51.3078 47.5005 51.856 48.3464 53.5789 48.5002C55.2236 48.5771 56.3983 48.1926 57.1031 47.2698C57.7296 46.3469 58.1212 45.4241 58.0429 44.5013C57.9646 43.4247 57.7296 41.9636 56.3983 40.1179C55.9284 39.4258 54.0488 37.1957 50.9162 36.965C48.3318 36.8112 47.3921 37.1188 46.4523 37.5802C46.0607 37.734 44.651 38.503 43.5546 39.5796C43.9462 39.5027 44.4161 39.4258 44.886 39.4258Z" fill="black"/>
<path d="M57.8864 57.1903C57.8864 57.1903 56.0068 58.5745 53.2658 57.7286C51.1513 57.1134 50.0549 56.2675 49.7416 54.1142C49.5067 52.9607 49.82 51.8841 49.3501 50.8844C48.8802 49.8846 48.0187 48.6542 45.9042 48.5004C43.7114 48.4235 42.5367 48.9618 41.7535 49.9615C40.9704 50.9613 40.6571 51.8841 40.6571 53.1145C40.6571 54.3449 41.0487 56.3444 42.4583 58.3438C43.3981 59.6511 45.5126 61.3429 48.5669 61.8044C50.9164 62.112 52.2477 61.7275 53.4224 61.1891C54.5188 60.5739 56.79 59.3435 57.8864 57.1903Z" fill="#B1B2B1"/>
<path d="M50.0548 62.6502C49.5849 62.6502 48.9584 62.5733 48.4102 62.4964C45.1993 62.035 42.9282 60.2663 41.8318 58.7282C39.9522 56.1905 39.8739 53.7297 39.8739 53.0375C39.8739 51.7302 40.2655 50.6536 41.1269 49.5001C42.0667 48.1928 43.633 47.6544 45.9825 47.8082C48.5669 47.962 49.585 49.5001 50.1332 50.6536C50.5247 51.4226 50.5247 52.1147 50.5247 52.8837C50.5247 53.2682 50.5247 53.6528 50.603 54.1142C50.9163 55.806 51.6211 56.4981 53.579 57.1133C55.8501 57.8054 57.4164 56.7288 57.4948 56.6519C57.808 56.4212 58.1996 56.4212 58.4345 56.6519C58.7478 56.8826 58.8261 57.2671 58.5912 57.5747C57.7297 59.2666 56.0851 60.7277 53.7356 61.8043C52.6392 62.3426 51.5428 62.6502 50.0548 62.6502ZM45.1993 49.3463C43.3981 49.3463 42.7716 49.8846 42.38 50.4229C41.6751 51.3457 41.4402 52.1147 41.4402 53.1144C41.4402 54.268 41.8318 56.1136 43.0848 57.8823C43.9463 59.1127 45.9825 60.6508 48.6452 61.0353C50.9163 61.3429 52.0127 60.9584 53.0308 60.497C54.0489 60.0356 54.9104 59.4973 55.6152 58.882C54.832 58.9589 53.9706 58.882 53.0308 58.6513C50.9163 58.0361 49.35 57.0364 48.9584 54.4987C48.8801 53.8066 48.8801 53.3451 48.8801 52.8837C48.8801 52.2685 48.8801 51.8071 48.6452 51.3457C48.1753 50.4229 47.5488 49.5001 45.8258 49.4232C45.5909 49.3463 45.4343 49.3463 45.1993 49.3463Z" fill="black"/>
</g>
</g>
</g>
<rect x="26.2166" y="26" width="46" height="46" rx="23" stroke="url(#paint0_linear_640_10056)" stroke-width="4"/>
<defs>
<filter id="filter0_f_640_10056" x="0.216553" y="0" width="98" height="98" filterUnits="userSpaceOnUse" color-interpolation-filters="sRGB">
<feFlood flood-opacity="0" result="BackgroundImageFix"/>
<feBlend mode="normal" in="SourceGraphic" in2="BackgroundImageFix" result="shape"/>
<feGaussianBlur stdDeviation="12" result="effect1_foregroundBlur_640_10056"/>
</filter>
<linearGradient id="paint0_linear_640_10056" x1="49.2166" y1="28" x2="49.2166" y2="70" gradientUnits="userSpaceOnUse">
<stop stop-color="#35B6F1"/>
<stop offset="1" stop-color="#4CD4EC"/>
</linearGradient>
<clipPath id="clip0_640_10056">
<rect x="28.2166" y="28" width="42" height="42" rx="21" fill="white"/>
</clipPath>
<clipPath id="clip1_640_10056">
<rect width="42" height="42" fill="white" transform="translate(28.2166 28)"/>
</clipPath>
<clipPath id="clip2_640_10056">
<rect width="28.35" height="27.3" fill="white" transform="translate(35.5665 35.3501)"/>
</clipPath>
</defs>
</svg>
