<svg width="40" height="40" viewBox="0 0 40 40" fill="none" xmlns="http://www.w3.org/2000/svg">
<path d="M37.9997 19.9999C37.9997 24.9846 35.9735 29.496 32.6998 32.7555C29.4447 35.9965 24.9562 37.9997 19.9999 37.9997C10.0588 37.9997 2 29.9409 2 19.9999C2 15.1953 3.88242 10.8304 6.94996 7.60246C10.2294 4.15148 14.8634 2 19.9999 2C24.9562 2 29.4447 4.00323 32.6998 7.24422C35.9735 10.5038 37.9997 15.0152 37.9997 19.9999Z" fill="#D85988" stroke="#B23560" stroke-width="4" stroke-linecap="round" stroke-linejoin="round"/>
<path d="M37.9999 19.9998C35.3734 19.9998 28.1281 19.0092 21.6439 21.8566C14.6001 24.9499 9.49932 29.7481 7.27686 32.7322" stroke="#B43561" stroke-width="4" stroke-linecap="round" stroke-linejoin="round"/>
<path d="M13.25 3.30835C16.0673 5.90833 22.2142 12.5285 24.4999 19.0998C26.7856 25.6711 27.6327 33.7509 28.1544 36.0509" stroke="#B43561" stroke-width="4" stroke-linecap="round" stroke-linejoin="round"/>
<path d="M2.13867 17.75C5.53864 17.9549 14.5393 18.1398 20.2993 15.6799C26.0592 13.2199 31.0158 8.69568 32.7158 7.26074" stroke="#B43561" stroke-width="4" stroke-linecap="round" stroke-linejoin="round"/>
<path d="M3.3501 26.8518C4.93558 30.7004 7.81658 33.8787 11.45 35.8435" stroke="#B23560" stroke-width="4" stroke-linecap="round" stroke-linejoin="round"/>
<path d="M2 19.9997C2 15.1952 3.88242 10.8302 6.94996 7.60229" stroke="#B23560" stroke-width="4" stroke-linecap="round" stroke-linejoin="round"/>
<path d="M20.0001 2C14.8637 2 10.2297 4.15148 6.9502 7.60246" stroke="#B23560" stroke-width="4" stroke-linecap="round" stroke-linejoin="round"/>
<path d="M27.1997 3.4978C29.2637 4.3996 31.1258 5.67726 32.6997 7.24428C35.9734 10.5038 37.9996 15.0152 37.9996 19.9999C37.9996 22.2163 37.599 24.3391 36.8664 26.2999" stroke="#B23560" stroke-width="4" stroke-linecap="round" stroke-linejoin="round"/>
<path d="M20 37.9998C24.9564 37.9998 29.4448 35.9966 32.7 32.7556" stroke="#B23560" stroke-width="4" stroke-linecap="round" stroke-linejoin="round"/>
</svg>
