<svg width="40" height="40" viewBox="0 0 40 40" fill="none" xmlns="http://www.w3.org/2000/svg">
<rect width="40" height="40" rx="10.4918" fill="black"/>
<g clip-path="url(#clip0_1041_1890)">
<path d="M15.4098 32.7868C17.7625 32.7868 19.6721 30.8773 19.6721 28.5245V24.2622H15.4098C13.057 24.2622 11.1475 26.1717 11.1475 28.5245C11.1475 30.8773 13.057 32.7868 15.4098 32.7868Z" fill="#0ACF83"/>
<path d="M11.1475 20.0001C11.1475 17.6473 13.057 15.7378 15.4098 15.7378H19.6721V24.2624H15.4098C13.057 24.2624 11.1475 22.3529 11.1475 20.0001Z" fill="#A259FF"/>
<path d="M11.1475 11.4754C11.1475 9.12264 13.057 7.21313 15.4098 7.21313H19.6721V15.7377H15.4098C13.057 15.7377 11.1475 13.8282 11.1475 11.4754Z" fill="#F24E1E"/>
<path d="M19.6719 7.21313H23.9342C26.287 7.21313 28.1965 9.12264 28.1965 11.4754C28.1965 13.8282 26.287 15.7377 23.9342 15.7377H19.6719V7.21313Z" fill="#FF7262"/>
<path d="M28.1965 20.0001C28.1965 22.3529 26.287 24.2624 23.9342 24.2624C21.5814 24.2624 19.6719 22.3529 19.6719 20.0001C19.6719 17.6473 21.5814 15.7378 23.9342 15.7378C26.287 15.7378 28.1965 17.6473 28.1965 20.0001Z" fill="#1ABCFE"/>
</g>
<defs>
<clipPath id="clip0_1041_1890">
<rect width="17.0492" height="25.5738" fill="white" transform="translate(11.1475 7.21313)"/>
</clipPath>
</defs>
</svg>
