<svg width="84" height="84" viewBox="0 0 84 84" fill="none" xmlns="http://www.w3.org/2000/svg">
<g filter="url(#filter0_d)">
<path d="M46 72H16.6667C12.992 72 10 69.0107 10 65.3333V14.6667C10 10.9893 12.992 8 16.6667 8H46C49.6747 8 52.6667 10.9893 52.6667 14.6667V20C52.6667 20.736 52.0693 21.3333 51.3333 21.3333C50.5973 21.3333 50 20.736 50 20V14.6667C50 12.4613 48.2053 10.6667 46 10.6667H16.6667C14.4613 10.6667 12.6667 12.4613 12.6667 14.6667V65.3333C12.6667 67.5387 14.4613 69.3333 16.6667 69.3333H46C48.2053 69.3333 50 67.5387 50 65.3333V54.6667C50 53.9307 50.5973 53.3333 51.3333 53.3333C52.0693 53.3333 52.6667 53.9307 52.6667 54.6667V65.3333C52.6667 69.0107 49.6747 72 46 72Z" fill="#1763F8"/>
<path d="M36.6667 16H26C23.7947 16 22 14.2053 22 12C22 11.2667 21.4027 10.6667 20.6667 10.6667H18C17.264 10.6667 16.6667 10.0693 16.6667 9.33333C16.6667 8.59733 17.264 8 18 8H20.6667C22.872 8 24.6667 9.79467 24.6667 12C24.6667 12.7333 25.264 13.3333 26 13.3333H36.6667C37.4027 13.3333 38 12.7333 38 12C38 9.79467 39.7947 8 42 8H44.6667C45.4027 8 46 8.59733 46 9.33333C46 10.0693 45.4027 10.6667 44.6667 10.6667H42C41.264 10.6667 40.6667 11.2667 40.6667 12C40.6667 14.2053 38.872 16 36.6667 16Z" fill="#1763F8"/>
<path d="M31.3333 58C28.392 58 26 55.608 26 52.6667C26 49.7253 28.392 47.3333 31.3333 47.3333C34.2747 47.3333 36.6667 49.7253 36.6667 52.6667C36.6667 55.608 34.2747 58 31.3333 58ZM31.3333 50C29.864 50 28.6667 51.1947 28.6667 52.6667C28.6667 54.1387 29.864 55.3333 31.3333 55.3333C32.8027 55.3333 34 54.1387 34 52.6667C34 51.1947 32.8027 50 31.3333 50Z" fill="#1763F8"/>
<path d="M40.6667 71.3333C39.9307 71.3333 39.3333 70.736 39.3333 70V67.3333C39.3333 65.128 37.5387 63.3333 35.3333 63.3333H27.3333C25.128 63.3333 23.3333 65.128 23.3333 67.3333V70C23.3333 70.736 22.736 71.3333 22 71.3333C21.264 71.3333 20.6667 70.736 20.6667 70V67.3333C20.6667 63.656 23.6587 60.6667 27.3333 60.6667H35.3333C39.008 60.6667 42 63.656 42 67.3333V70C42 70.736 41.4027 71.3333 40.6667 71.3333Z" fill="#1763F8"/>
<path d="M72.6667 48C72.36 48 72.056 47.896 71.8133 47.6907L66 42.8453V44C66 46.2053 64.2053 48 62 48H46C43.7947 48 42 46.2053 42 44V30.6667C42 28.4613 43.7947 26.6667 46 26.6667H62C64.2053 26.6667 66 28.4613 66 30.6667V31.8213L71.8133 26.9787C72.2107 26.6453 72.768 26.5813 73.232 26.7947C73.7013 27.0133 74 27.4827 74 28V46.6667C74 47.184 73.7013 47.6533 73.232 47.8747C73.0533 47.9573 72.8587 48 72.6667 48ZM46 29.3333C45.264 29.3333 44.6667 29.9333 44.6667 30.6667V44C44.6667 44.7333 45.264 45.3333 46 45.3333H62C62.736 45.3333 63.3333 44.7333 63.3333 44V40C63.3333 39.4827 63.632 39.0133 64.1013 38.792C64.568 38.576 65.1227 38.64 65.52 38.976L71.3333 43.8213V30.8453L65.52 35.688C65.1227 36.024 64.5653 36.088 64.1013 35.872C63.632 35.6533 63.3333 35.184 63.3333 34.6667V30.6667C63.3333 29.9333 62.736 29.3333 62 29.3333H46Z" fill="#1763F8"/>
</g>
<defs>
<filter id="filter0_d" x="0" y="0" width="84" height="84" filterUnits="userSpaceOnUse" color-interpolation-filters="sRGB">
<feFlood flood-opacity="0" result="BackgroundImageFix"/>
<feColorMatrix in="SourceAlpha" type="matrix" values="0 0 0 0 0 0 0 0 0 0 0 0 0 0 0 0 0 0 127 0"/>
<feOffset dy="2"/>
<feGaussianBlur stdDeviation="5"/>
<feColorMatrix type="matrix" values="0 0 0 0 0 0 0 0 0 0.596078 0 0 0 0 0.498039 0 0 0 0.2 0"/>
<feBlend mode="normal" in2="BackgroundImageFix" result="effect1_dropShadow"/>
<feBlend mode="normal" in="SourceGraphic" in2="effect1_dropShadow" result="shape"/>
</filter>
</defs>
</svg>
