<svg width="84" height="84" viewBox="0 0 84 84" fill="none" xmlns="http://www.w3.org/2000/svg">
<g filter="url(#filter0_d)">
<path d="M72.75 8H11.25C10.5598 8 10 8.55963 10 9.25V70.75C10 71.4404 10.5598 72 11.25 72H72.75C73.4403 72 74 71.4404 74 70.75V9.25C74 8.55963 73.4403 8 72.75 8ZM71.5 69.5H12.5V10.5H71.5V69.5Z" fill="#1763F8"/>
<path d="M16.25 67H26.25C26.9403 67 27.5 66.4404 27.5 65.75V56.9997C27.5 56.3094 26.9403 55.7497 26.25 55.7497H16.25C15.5598 55.7497 15 56.3094 15 56.9997V65.75C15 66.4404 15.5598 67 16.25 67ZM17.5 58.2497H25V64.5H17.5V58.2497Z" fill="#1763F8"/>
<path d="M16.25 24.2501H26.25C26.9403 24.2501 27.5 23.6905 27.5 23.0001V14.25C27.5 13.5596 26.9403 13 26.25 13H16.25C15.5598 13 15 13.5596 15 14.25V23.0001C15 23.6905 15.5598 24.2501 16.25 24.2501ZM17.5 15.5H25V21.7501H17.5V15.5Z" fill="#1763F8"/>
<path d="M16.25 38.5H26.25C26.9403 38.5 27.5 37.9404 27.5 37.25V28.4999C27.5 27.8095 26.9403 27.2499 26.25 27.2499H16.25C15.5598 27.2499 15 27.8095 15 28.4999V37.25C15 37.9404 15.5598 38.5 16.25 38.5ZM17.5 29.7499H25V36H17.5V29.7499Z" fill="#1763F8"/>
<path d="M16.25 52.75H26.25C26.9403 52.75 27.5 52.1904 27.5 51.5V42.7499C27.5 42.0595 26.9403 41.4999 26.25 41.4999H16.25C15.5598 41.4999 15 42.0595 15 42.7499V51.5C15 52.1904 15.5598 52.75 16.25 52.75ZM17.5 43.9999H25V50.25H17.5V43.9999Z" fill="#1763F8"/>
<path d="M33.75 16.75H34.375C35.0653 16.75 35.625 16.1904 35.625 15.5C35.625 14.8096 35.0653 14.25 34.375 14.25H33.75C33.0597 14.25 32.5 14.8096 32.5 15.5C32.5 16.1904 33.0597 16.75 33.75 16.75Z" fill="#1763F8"/>
<path d="M39.0286 16.7498C39.7188 16.7498 40.2786 16.1897 40.2786 15.4998C40.2786 14.8098 39.7188 14.2498 39.0286 14.2498C38.3386 14.2498 37.7786 14.8098 37.7786 15.4998C37.7786 16.1897 38.3388 16.7498 39.0286 16.7498Z" fill="#1763F8"/>
<path d="M54.1536 16.7498H55.3175C56.0063 16.7498 56.5675 16.1897 56.5675 15.4998C56.5675 14.811 56.0063 14.2498 55.3175 14.2498H54.1536C53.4649 14.2498 52.9036 14.811 52.9036 15.4998C52.9036 16.1897 53.465 16.7498 54.1536 16.7498Z" fill="#1763F8"/>
<path d="M43.6825 16.7498H44.8462C45.5351 16.7498 46.0962 16.1897 46.0962 15.4998C46.0962 14.811 45.5351 14.2498 44.8462 14.2498H43.6825C42.9937 14.2498 42.4325 14.811 42.4325 15.4998C42.4325 16.1897 42.9937 16.7498 43.6825 16.7498Z" fill="#1763F8"/>
<path d="M59.9712 16.7498C60.6601 16.7498 61.2212 16.1897 61.2212 15.4998C61.2212 14.811 60.6601 14.2498 59.9712 14.2498C59.2812 14.2498 58.7212 14.811 58.7212 15.4998C58.7212 16.1897 59.2812 16.7498 59.9712 16.7498Z" fill="#1763F8"/>
<path d="M49.5 16.7498C50.1888 16.7498 50.75 16.1897 50.75 15.4998C50.75 14.811 50.1888 14.2498 49.5 14.2498C48.8099 14.2498 48.25 14.811 48.25 15.4998C48.25 16.1897 48.8099 16.7498 49.5 16.7498Z" fill="#1763F8"/>
<path d="M64.625 16.75H65.25C65.9403 16.75 66.5 16.1904 66.5 15.5C66.5 14.8096 65.9403 14.25 65.25 14.25H64.625C63.9347 14.25 63.375 14.8096 63.375 15.5C63.375 16.1904 63.9347 16.75 64.625 16.75Z" fill="#1763F8"/>
<path d="M60.25 21.7498C60.25 22.4397 60.8112 22.9998 61.5 22.9998C62.1888 22.9998 62.75 22.4397 62.75 21.7498C62.75 21.061 62.1888 20.4998 61.5 20.4998C60.8112 20.4998 60.25 21.061 60.25 21.7498Z" fill="#1763F8"/>
<path d="M34 20.4998C33.3113 20.4998 32.75 21.061 32.75 21.7498C32.75 22.4397 33.3113 22.9998 34 22.9998H56.5C57.1888 22.9998 57.75 22.4397 57.75 21.7498C57.75 21.061 57.1888 20.4998 56.5 20.4998H34Z" fill="#1763F8"/>
<path d="M65 30.9999C65.6903 30.9999 66.25 30.4402 66.25 29.7499C66.25 29.0595 65.6903 28.4999 65 28.4999H62.5C61.8097 28.4999 61.25 29.0595 61.25 29.7499C61.25 30.4402 61.8097 30.9999 62.5 30.9999H65Z" fill="#1763F8"/>
<path d="M53.75 28.4999C53.0597 28.4999 52.5 29.0595 52.5 29.7499C52.5 30.4402 53.0597 30.9999 53.75 30.9999H57.5C58.1903 30.9999 58.75 30.4402 58.75 29.7499C58.75 29.0595 58.1903 28.4999 57.5 28.4999H53.75Z" fill="#1763F8"/>
<path d="M46.25 30.9999H48.75C49.4403 30.9999 50 30.4402 50 29.7499C50 29.0595 49.4403 28.4999 48.75 28.4999H46.25C45.5597 28.4999 45 29.0595 45 29.7499C45 30.4402 45.5597 30.9999 46.25 30.9999Z" fill="#1763F8"/>
<path d="M37.5 29.7498C37.5 30.4398 38.0599 30.9998 38.75 30.9998C39.44 30.9998 40 30.4398 40 29.7498C40 29.0597 39.44 28.4998 38.75 28.4998C38.0599 28.4998 37.5 29.0597 37.5 29.7498Z" fill="#1763F8"/>
<path d="M33.75 30.9998C34.44 30.9998 35 30.4398 35 29.7498C35 29.0597 34.44 28.4998 33.75 28.4998C33.0599 28.4998 32.5 29.0597 32.5 29.7498C32.5 30.4398 33.0599 30.9998 33.75 30.9998Z" fill="#1763F8"/>
<path d="M61.25 56.9997C60.5599 56.9997 60 57.5597 60 58.2497C60 58.9397 60.5599 59.4997 61.25 59.4997C61.94 59.4997 62.5 58.9397 62.5 58.2497C62.5 57.5597 61.94 56.9997 61.25 56.9997Z" fill="#1763F8"/>
<path d="M66.25 56.9997C65.5599 56.9997 65 57.5597 65 58.2497C65 58.9397 65.5599 59.4997 66.25 59.4997C66.94 59.4997 67.5 58.9397 67.5 58.2497C67.5 57.5597 66.94 56.9997 66.25 56.9997Z" fill="#1763F8"/>
<path d="M52.75 36C52.75 36.6904 53.3097 37.25 54 37.25H65.25C65.9403 37.25 66.5 36.6904 66.5 36C66.5 35.3096 65.9403 34.75 65.25 34.75H54C53.3097 34.75 52.75 35.3097 52.75 36Z" fill="#1763F8"/>
<path d="M44 36C44 36.6904 44.5597 37.25 45.25 37.25H49C49.6903 37.25 50.25 36.6904 50.25 36C50.25 35.3096 49.6903 34.75 49 34.75H45.25C44.5597 34.75 44 35.3097 44 36Z" fill="#1763F8"/>
<path d="M33.75 37.25H40.25C40.9403 37.25 41.5 36.6904 41.5 36C41.5 35.3096 40.9403 34.75 40.25 34.75H33.75C33.0597 34.75 32.5 35.3096 32.5 36C32.5 36.6904 33.0597 37.25 33.75 37.25Z" fill="#1763F8"/>
<path d="M53.75 45.2497C54.44 45.2497 55 44.6897 55 43.9997C55 43.3097 54.44 42.7497 53.75 42.7497C53.0599 42.7497 52.5 43.3097 52.5 43.9997C52.5 44.6897 53.0599 45.2497 53.75 45.2497Z" fill="#1763F8"/>
<path d="M33.75 45.2497C34.44 45.2497 35 44.6897 35 43.9997C35 43.3097 34.44 42.7497 33.75 42.7497C33.0599 42.7497 32.5 43.3097 32.5 43.9997C32.5 44.6897 33.0599 45.2497 33.75 45.2497Z" fill="#1763F8"/>
<path d="M42.5 43.9997C42.5 44.6897 43.0599 45.2497 43.75 45.2497C44.44 45.2497 45 44.6897 45 43.9997C45 43.3097 44.44 42.7497 43.75 42.7497C43.0599 42.7497 42.5 43.3097 42.5 43.9997Z" fill="#1763F8"/>
<path d="M48.75 42.7497C48.0599 42.7497 47.5 43.3097 47.5 43.9997C47.5 44.6897 48.0599 45.2497 48.75 45.2497C49.44 45.2497 50 44.6897 50 43.9997C50 43.3097 49.44 42.7497 48.75 42.7497Z" fill="#1763F8"/>
<path d="M40 43.9997C40 43.3097 39.44 42.7497 38.75 42.7497C38.0599 42.7497 37.5 43.3097 37.5 43.9997C37.5 44.6897 38.0599 45.2497 38.75 45.2497C39.44 45.2497 40 44.6897 40 43.9997Z" fill="#1763F8"/>
<path d="M58.75 42.7499C58.0597 42.7499 57.5 43.3095 57.5 43.9999C57.5 44.6903 58.0597 45.2499 58.75 45.2499H66.5C67.1903 45.2499 67.75 44.6903 67.75 43.9999C67.75 43.3095 67.1903 42.7499 66.5 42.7499H58.75Z" fill="#1763F8"/>
<path d="M61.5 48.9997C60.8112 48.9997 60.25 49.561 60.25 50.2497C60.25 50.9397 60.8112 51.4997 61.5 51.4997C62.1888 51.4997 62.75 50.9397 62.75 50.2497C62.75 49.561 62.1888 48.9997 61.5 48.9997Z" fill="#1763F8"/>
<path d="M32.75 50.2497C32.75 50.9397 33.3113 51.4997 34 51.4997H56.5C57.1888 51.4997 57.75 50.9397 57.75 50.2497C57.75 49.561 57.1888 48.9997 56.5 48.9997H34C33.3113 48.9997 32.75 49.561 32.75 50.2497Z" fill="#1763F8"/>
<path d="M50 56.9997C49.3097 56.9997 48.75 57.5594 48.75 58.2497C48.75 58.9401 49.3097 59.4997 50 59.4997H52.5C53.1903 59.4997 53.75 58.9401 53.75 58.2497C53.75 57.5594 53.1903 56.9997 52.5 56.9997H50Z" fill="#1763F8"/>
<path d="M33.75 59.4997H36.25C36.9403 59.4997 37.5 58.9401 37.5 58.2497C37.5 57.5594 36.9403 56.9997 36.25 56.9997H33.75C33.0597 56.9997 32.5 57.5594 32.5 58.2497C32.5 58.9401 33.0597 59.4997 33.75 59.4997Z" fill="#1763F8"/>
<path d="M41.25 56.9997C40.5597 56.9997 40 57.5594 40 58.2497C40 58.9401 40.5597 59.4997 41.25 59.4997H45C45.6903 59.4997 46.25 58.9401 46.25 58.2497C46.25 57.5594 45.6903 56.9997 45 56.9997H41.25Z" fill="#1763F8"/>
<path d="M60.25 63.2497H38.75C38.0599 63.2497 37.5 63.811 37.5 64.4997C37.5 65.1897 38.0599 65.7497 38.75 65.7497H60.25C60.9388 65.7497 61.5 65.1897 61.5 64.4997C61.5 63.811 60.9388 63.2497 60.25 63.2497Z" fill="#1763F8"/>
<path d="M33.75 65.7497C34.4387 65.7497 35 65.1897 35 64.4997C35 63.811 34.4387 63.2497 33.75 63.2497C33.0613 63.2497 32.5 63.811 32.5 64.4997C32.5 65.1897 33.0613 65.7497 33.75 65.7497Z" fill="#1763F8"/>
</g>
<defs>
<filter id="filter0_d" x="0" y="0" width="84" height="84" filterUnits="userSpaceOnUse" color-interpolation-filters="sRGB">
<feFlood flood-opacity="0" result="BackgroundImageFix"/>
<feColorMatrix in="SourceAlpha" type="matrix" values="0 0 0 0 0 0 0 0 0 0 0 0 0 0 0 0 0 0 127 0"/>
<feOffset dy="2"/>
<feGaussianBlur stdDeviation="5"/>
<feColorMatrix type="matrix" values="0 0 0 0 0 0 0 0 0 0.596078 0 0 0 0 0.498039 0 0 0 0.2 0"/>
<feBlend mode="normal" in2="BackgroundImageFix" result="effect1_dropShadow"/>
<feBlend mode="normal" in="SourceGraphic" in2="effect1_dropShadow" result="shape"/>
</filter>
</defs>
</svg>
