<svg width="84" height="84" viewBox="0 0 84 84" fill="none" xmlns="http://www.w3.org/2000/svg">
<g filter="url(#filter0_d)">
<path d="M48.6666 42.6666H46C45.263 42.6666 44.6666 43.263 44.6666 44C44.6666 44.737 45.263 45.3334 46 45.3334H47.3334C47.3334 46.0704 47.9298 46.6667 48.6668 46.6667C49.4038 46.6667 50.0001 46.0704 50.0001 45.3334V45.0877C51.5487 44.5355 52.6668 43.0694 52.6668 41.3334C52.6668 39.1276 50.8725 37.3334 48.6668 37.3334C47.9311 37.3334 47.3334 36.7357 47.3334 36C47.3334 35.2642 47.931 34.6666 48.6668 34.6666H51.3334C52.0704 34.6666 52.6668 34.0702 52.6668 33.3332C52.6668 32.5962 52.0704 31.9999 51.3334 31.9999H50C50 31.2629 49.4036 30.6665 48.6666 30.6665C47.9296 30.6665 47.3332 31.2629 47.3332 31.9999V32.2455C45.7846 32.7977 44.6666 34.2639 44.6666 35.9999C44.6666 38.2056 46.4609 39.9999 48.6666 39.9999C49.4023 39.9999 50 40.5975 50 41.3332C50 42.069 49.4024 42.6666 48.6666 42.6666Z" fill="#1763F8"/>
<path d="M68.5308 54.9248C68.5799 54.6726 68.6666 54.4272 68.6666 54.1666C68.6666 49.5585 65.1888 43.6029 64.2734 42.1159C64.2306 32.091 62.4497 24.7824 55.1246 22.2829C55.4585 21.2389 56.0618 19.8475 56.6224 18.5651C57.6979 16.1041 58.7135 13.78 58.7135 12.237C58.7135 10.1276 57.4036 8 54.4753 8C52.5143 8 51.7851 8.92575 51.388 9.72C51.3671 9.6965 51.3464 9.67188 51.3268 9.64963C50.7812 9.0325 49.8685 8 47.6979 8C45.2565 8 43.6719 10.1263 42.9036 11.8685C41.9128 11.918 40.4726 12.1536 39.5339 13.026C38.9362 13.582 38.6197 14.3137 38.6197 15.1419C38.6197 16.5272 39.6159 18.1275 40.6693 19.8202C41.1931 20.6622 41.7429 21.5642 42.0939 22.3278C34.8685 24.8656 33.1025 32.1456 33.0599 42.1171C32.6214 42.8314 31.5861 44.6189 30.6278 46.7669C28.5015 46.9529 26.664 47.3693 25.506 47.6879C25.1045 46.2917 23.965 45.1661 22.4544 44.8645L11.595 42.6927C11.2044 42.6159 10.7969 42.7163 10.4882 42.9688C10.1797 43.2226 10 43.6003 10 44V65.3334C10 66.0704 10.5964 66.6668 11.3334 66.6668H19.6875C21.3331 66.6668 22.7355 65.619 23.339 64.1484C26.3234 65.5711 40.1319 72 46 72C51.1719 72 61.8164 66.7669 68.8594 63.3046C70.6979 62.401 72.2175 61.6536 73.2031 61.2212C73.6875 61.0079 74 60.5286 74 60C74 57.4645 71.8356 55.5696 68.5308 54.9248ZM22.9896 48.9753L21.0065 62.8555C20.9141 63.5079 20.3464 64 19.6875 64H12.6666V45.6263L21.931 47.4791C22.625 47.6185 23.0899 48.2747 22.9896 48.9753ZM41.349 14.9805C41.7449 14.612 42.9884 14.4922 43.7319 14.5351C44.3516 14.6106 44.9194 14.1861 45.1004 13.595C45.336 12.8359 46.3165 10.6666 47.698 10.6666C48.6668 10.6666 48.9155 10.9491 49.3283 11.4166C49.7463 11.8892 50.3778 12.6029 51.5705 12.6029C53.0549 12.6029 53.5366 11.4649 53.7176 11.0365C53.7593 10.9389 53.8218 10.7904 53.8491 10.7591C53.8504 10.7579 53.991 10.6666 54.4754 10.6666C54.9051 10.6666 56.047 10.6666 56.047 12.237C56.047 13.2226 55.0119 15.5925 54.1797 17.4974C53.5204 19.0042 52.9035 20.4386 52.5375 21.6479C51.3571 21.4509 50.0834 21.3333 48.6668 21.3333C47.214 21.3333 45.9075 21.4539 44.7029 21.6608C44.2944 20.6273 43.6377 19.5433 42.9336 18.4114C42.2383 17.2942 41.2865 15.7656 41.349 14.9805ZM35.513 43.2214C35.651 43.0065 35.7253 42.7552 35.7253 42.5C35.7253 28.8411 39.112 24 48.6666 24C58.2212 24 61.608 28.8411 61.608 42.5C61.608 42.7565 61.6823 43.0079 61.8203 43.2226C61.8619 43.2878 66 49.7604 66 54.1666C66 54.3381 65.9663 54.5042 65.901 54.6707C63.2648 54.7041 57.9676 56.1261 55.2643 56.9029C54.9015 53.0764 49.9988 51.7219 44.9323 50.6927C42.6198 50.224 40.8997 49.3946 39.2356 48.5925C37.4371 47.724 35.7001 46.9374 33.5691 46.7466C34.5564 44.7241 35.5009 43.2396 35.513 43.2214ZM67.6823 60.9115C61.276 64.0612 50.5521 69.3334 46 69.3334C41.1497 69.3334 28.414 63.655 23.9166 61.4675C23.9112 61.4649 23.9054 61.4659 23.9 61.4632L25.4696 50.476C26.4395 50.1722 29.4087 49.3334 32.6666 49.3334C34.6354 49.3334 36.1549 50.0665 38.0781 50.9935C39.8048 51.8269 41.763 52.7709 44.401 53.3073C50.1953 54.4818 52.6666 55.6861 52.6666 57.3332C52.6666 57.6587 52.5676 57.8592 52.3138 58.0481C51.47 58.6822 48.1588 59.7474 35.7121 56.0546C35.0038 55.8424 34.2642 56.2486 34.0546 56.9544C33.845 57.6601 34.2486 58.4022 34.9544 58.6119C41.095 60.4322 45.7916 61.3397 49.1198 61.3397C51.2904 61.3397 52.8789 60.9544 53.9089 60.1848C53.9977 60.1185 54.0629 60.0371 54.1437 59.9656C54.2269 59.9566 54.3088 59.9666 54.392 59.9412C56.75 59.2161 63.4297 57.3334 66 57.3334C68.1745 57.3334 70.4622 57.9949 71.1367 59.2344C70.2057 59.6719 69.0274 60.2512 67.6823 60.9115Z" fill="#1763F8"/>
</g>
<defs>
<filter id="filter0_d" x="0" y="0" width="84" height="84" filterUnits="userSpaceOnUse" color-interpolation-filters="sRGB">
<feFlood flood-opacity="0" result="BackgroundImageFix"/>
<feColorMatrix in="SourceAlpha" type="matrix" values="0 0 0 0 0 0 0 0 0 0 0 0 0 0 0 0 0 0 127 0"/>
<feOffset dy="2"/>
<feGaussianBlur stdDeviation="5"/>
<feColorMatrix type="matrix" values="0 0 0 0 0 0 0 0 0 0.596078 0 0 0 0 0.498039 0 0 0 0.2 0"/>
<feBlend mode="normal" in2="BackgroundImageFix" result="effect1_dropShadow"/>
<feBlend mode="normal" in="SourceGraphic" in2="effect1_dropShadow" result="shape"/>
</filter>
</defs>
</svg>
