<svg width="57" height="60" viewBox="0 0 57 60" fill="none" xmlns="http://www.w3.org/2000/svg">
<ellipse cx="28.5" cy="29.7556" rx="28.5" ry="29.7556" fill="#E8F0F9"/>
<g filter="url(#filter0_d)">
<path d="M29.5 22.5625C27.2732 22.5625 25.4615 24.4025 25.4615 26.6641C25.4615 28.9257 27.2732 30.7656 29.5 30.7656C31.7268 30.7656 33.5385 28.9257 33.5385 26.6641C33.5385 24.4025 31.7268 22.5625 29.5 22.5625ZM29.5 29.125C28.1639 29.125 27.0769 28.021 27.0769 26.6641C27.0769 25.3071 28.1639 24.2031 29.5 24.2031C30.8361 24.2031 31.9231 25.3071 31.9231 26.6641C31.9231 28.021 30.8361 29.125 29.5 29.125Z" fill="#1763F8"/>
<path d="M28.6923 19.2812H30.3077V20.9219H28.6923V19.2812Z" fill="#1763F8"/>
<path d="M31.1154 16H27.8846C22.9856 16 19 20.0479 19 25.0234V28.3047C19 33.2802 22.9856 37.3281 27.8846 37.3281H28.6923V39.0781H26.2692C24.0424 39.0781 22.2308 40.9181 22.2308 43.1797V44H36.7692V43.1797C36.7692 40.9181 34.9576 39.0781 32.7308 39.0781H30.3077V37.3281H31.1154C36.0144 37.3281 40 33.2802 40 28.3047V25.0234C40 20.0479 36.0144 16 31.1154 16ZM35.0155 42.3594H23.9845C24.3179 41.4045 25.2162 40.7188 26.2692 40.7188H32.7308C33.7838 40.7188 34.6822 41.4045 35.0155 42.3594ZM31.1154 35.6875H27.8846C23.8764 35.6875 20.6154 32.3756 20.6154 28.3047V27.4844H23.8462V25.8438H20.6154V25.0234C20.6154 20.9526 23.8763 17.6406 27.8846 17.6406H31.1154C35.1236 17.6406 38.3846 20.9526 38.3846 25.0234V25.8438H35.1538V27.4844H38.3846V28.3047C38.3846 32.3756 35.1237 35.6875 31.1154 35.6875Z" fill="#1763F8"/>
</g>
<defs>
<filter id="filter0_d" x="9" y="8" width="41" height="48" filterUnits="userSpaceOnUse" color-interpolation-filters="sRGB">
<feFlood flood-opacity="0" result="BackgroundImageFix"/>
<feColorMatrix in="SourceAlpha" type="matrix" values="0 0 0 0 0 0 0 0 0 0 0 0 0 0 0 0 0 0 127 0"/>
<feOffset dy="2"/>
<feGaussianBlur stdDeviation="5"/>
<feColorMatrix type="matrix" values="0 0 0 0 0 0 0 0 0 0.596078 0 0 0 0 0.498039 0 0 0 0.2 0"/>
<feBlend mode="normal" in2="BackgroundImageFix" result="effect1_dropShadow"/>
<feBlend mode="normal" in="SourceGraphic" in2="effect1_dropShadow" result="shape"/>
</filter>
</defs>
</svg>
