<svg width="57" height="60" viewBox="0 0 57 60" fill="none" xmlns="http://www.w3.org/2000/svg">
<ellipse cx="28.5" cy="29.7556" rx="28.5" ry="29.7556" fill="#E8F0F9"/>
<path d="M31.8869 17.2506C31.1964 16.8822 30.3625 16.9224 29.7108 17.3553L20.6003 23.4066H17.1463C16.2605 23.4066 15.5327 24.0879 15.46 24.9519H14.9723C13.3334 24.9519 12 26.2803 12 27.9132V31.0869C12 32.7198 13.3334 34.0482 14.9723 34.0482H15.4599C15.5327 34.9122 16.2606 35.5935 17.1462 35.5935H20.6001L29.7107 41.6448C30.066 41.8807 30.4754 42.0001 30.8863 42C31.2291 42 31.5728 41.917 31.8868 41.7495C32.5774 41.3813 33.0063 40.6678 33.0063 39.8875V19.1126C33.0065 18.3323 32.5775 17.6187 31.8869 17.2506ZM15.4527 32.3725H14.9723C14.2609 32.3724 13.6821 31.7957 13.6821 31.0869V27.9131C13.6821 27.2043 14.2609 26.6276 14.9723 26.6276H15.4527V32.3725ZM20.0139 33.9177H17.1463C17.14 33.9177 17.1348 33.9126 17.1348 33.9062V25.0938C17.1348 25.0875 17.1399 25.0823 17.1463 25.0823H20.0139V33.9177ZM31.3245 39.8876C31.3245 40.1233 31.1629 40.235 31.0933 40.2721C31.0237 40.3091 30.8408 40.3812 30.6438 40.2504L21.6958 34.3072V24.6929L30.6438 18.7497C30.8409 18.6189 31.0238 18.691 31.0933 18.7281C31.1628 18.7651 31.3245 18.8768 31.3245 19.1126V39.8876Z" fill="#1763F8"/>
<path d="M41.5911 18.8795C41.2955 18.585 40.8163 18.585 40.5207 18.8795C40.225 19.1741 40.225 19.6515 40.5207 19.946C43.0779 22.4937 44.4861 25.8867 44.4861 29.5C44.4861 33.1134 43.0777 36.5065 40.5206 39.0542C40.225 39.3487 40.225 39.8261 40.5206 40.1206C40.6683 40.2679 40.8621 40.3414 41.0558 40.3414C41.2495 40.3414 41.4433 40.2678 41.5911 40.1206C44.4342 37.288 46 33.5162 46 29.4999C46 25.4837 44.4342 21.712 41.5911 18.8795Z" fill="#1763F8"/>
<path d="M37.4341 23.0209C37.1385 22.7262 36.6593 22.7262 36.3637 23.0208C36.068 23.3153 36.068 23.7927 36.3637 24.0873C37.8123 25.5305 38.6101 27.4528 38.61 29.5001C38.61 31.5473 37.8122 33.4697 36.3636 34.9129C36.0679 35.2075 36.0679 35.6849 36.3636 35.9794C36.5113 36.1268 36.705 36.2003 36.8988 36.2003C37.0925 36.2003 37.2863 36.1266 37.434 35.9794C39.1686 34.2513 40.1239 31.9502 40.1239 29.5001C40.1239 27.0501 39.1687 24.7489 37.4341 23.0209Z" fill="#1763F8"/>
</svg>
