<svg width="26" height="25" viewBox="0 0 26 25" fill="none" xmlns="http://www.w3.org/2000/svg">
<path fill-rule="evenodd" clip-rule="evenodd" d="M26 16.0561C26 16.7581 25.6319 17.4087 25.0302 17.7703L14.081 24.3504C13.4205 24.7473 12.5907 24.7294 11.9479 24.3045L0.897086 16.9993C0.336947 16.629 1.2577e-08 16.0023 1.20493e-08 15.3309L1.5719e-09 2C7.03764e-10 0.895432 0.895431 1.00635e-06 2 1.00635e-06H2.44981C2.84682 1.00635e-06 3.23485 0.11816 3.56448 0.339431L8.02941 3.33657L11.9517 5.96947C12.5921 6.39933 13.4226 6.42266 14.0861 6.02942L17.9706 3.72719L22.4696 1.06073C22.7783 0.877784 23.1305 0.781251 23.4893 0.781251H24C25.1046 0.781251 26 1.67668 26 2.78125V16.0561ZM7.41406 6.58462C8.63236 7.40832 8.57493 9.221 7.30692 9.96591L6.07188 10.6915C4.73861 11.4747 3.05882 10.5133 3.05882 8.96702V7.40645C3.05882 5.80316 4.85082 4.8516 6.17903 5.74961L7.41406 6.58462ZM19.9251 6.11432C21.2583 5.32792 22.9412 6.28909 22.9412 7.83698V9.59493C22.9412 11.1952 21.1552 12.1474 19.8265 11.2555L18.4325 10.3198C17.2104 9.49938 17.2632 7.68439 18.5311 6.93655L19.9251 6.11432Z" fill="#1763F8"/>
</svg>
