<svg width="235" height="32" viewBox="0 0 235 32" fill="none" xmlns="http://www.w3.org/2000/svg">
<path fill-rule="evenodd" clip-rule="evenodd" d="M34 20.8561C34 21.5648 33.6249 22.2206 33.014 22.58L18.0641 31.3741C17.4118 31.7578 16.5989 31.7404 15.9635 31.3293L0.913497 21.5911C0.343915 21.2225 1.65331e-08 20.5904 1.59884e-08 19.9119L1.60591e-09 2C7.18989e-10 0.895432 0.895431 1.28813e-06 2 1.28813e-06H3.40174C3.79204 1.28813e-06 4.1738 0.114198 4.49999 0.328517L10.5 4.27081L15.9671 7.86298C16.6002 8.2789 17.4138 8.30154 18.069 7.92146L23.5 4.77081L29.5345 1.27003C29.8394 1.09316 30.1856 1 30.5381 1H32C33.1046 1 34 1.89543 34 3V20.8561ZM10.4288 8.91376C11.6692 9.7346 11.6114 11.574 10.3221 12.3154L6.99698 14.2274C5.66365 14.9941 4 14.0317 4 12.4936V8.3811C4 6.78678 5.77422 5.83338 7.10376 6.71326L10.4288 8.91376ZM27 7.28125C28.3333 6.51144 30 7.47369 30 9.0133V13.376C30 14.9674 28.2317 15.9214 26.9018 15.0475L23.3674 12.7253C22.1233 11.9078 22.1764 10.0661 23.4657 9.32178L27 7.28125Z" fill="#1763F8"/>
<path d="M72.5568 12.875C71.9091 7.5 67.8409 4.40909 62.4545 4.40909C56.3068 4.40909 51.6136 8.75 51.6136 16.3636C51.6136 23.9545 56.2273 28.3182 62.4545 28.3182C68.4205 28.3182 72.0227 24.3523 72.5568 20.0682L67.5795 20.0455C67.1136 22.5341 65.1591 23.9659 62.5341 23.9659C59 23.9659 56.6023 21.3409 56.6023 16.3636C56.6023 11.5227 58.9659 8.76136 62.5682 8.76136C65.2614 8.76136 67.2045 10.3182 67.5795 12.875H72.5568ZM83.8807 28.3409C89.1761 28.3409 92.4716 24.7159 92.4716 19.3409C92.4716 13.9318 89.1761 10.3182 83.8807 10.3182C78.5852 10.3182 75.2898 13.9318 75.2898 19.3409C75.2898 24.7159 78.5852 28.3409 83.8807 28.3409ZM83.9034 24.5909C81.4602 24.5909 80.2102 22.3523 80.2102 19.3068C80.2102 16.2614 81.4602 14.0114 83.9034 14.0114C86.3011 14.0114 87.5511 16.2614 87.5511 19.3068C87.5511 22.3523 86.3011 24.5909 83.9034 24.5909ZM100.46 17.9091C100.472 15.6591 101.812 14.3409 103.767 14.3409C105.71 14.3409 106.881 15.6136 106.869 17.75V28H111.71V16.8864C111.71 12.8182 109.324 10.3182 105.688 10.3182C103.097 10.3182 101.222 11.5909 100.438 13.625H100.233V10.5455H95.6193V28H100.46V17.9091ZM130.048 15.5227C129.616 12.3068 127.026 10.3182 122.616 10.3182C118.151 10.3182 115.207 12.3864 115.219 15.75C115.207 18.3636 116.855 20.0568 120.264 20.7386L123.287 21.3409C124.81 21.6477 125.503 22.2045 125.526 23.0795C125.503 24.1136 124.378 24.8523 122.685 24.8523C120.957 24.8523 119.81 24.1136 119.514 22.6932L114.753 22.9432C115.207 26.2841 118.048 28.3409 122.673 28.3409C127.196 28.3409 130.435 26.0341 130.446 22.5909C130.435 20.0682 128.787 18.5568 125.401 17.8636L122.241 17.2273C120.616 16.875 120.014 16.3182 120.026 15.4773C120.014 14.4318 121.196 13.75 122.696 13.75C124.378 13.75 125.378 14.6705 125.616 15.7955L130.048 15.5227ZM144.688 20.5682C144.699 22.9091 143.097 24.1364 141.358 24.1364C139.528 24.1364 138.347 22.8523 138.335 20.7955V10.5455H133.494V21.6591C133.506 25.7386 135.892 28.2273 139.403 28.2273C142.028 28.2273 143.915 26.875 144.699 24.8295H144.881V28H149.528V10.5455H144.688V20.5682ZM158.241 4.72727H153.401V28H158.241V4.72727ZM171.403 10.5455H168.119V6.36364H163.278V10.5455H160.892V14.1818H163.278V23.2727C163.256 26.6932 165.585 28.3864 169.097 28.2386C170.347 28.1932 171.233 27.9432 171.722 27.7841L170.96 24.1818C170.722 24.2273 170.21 24.3409 169.756 24.3409C168.79 24.3409 168.119 23.9773 168.119 22.6364V14.1818H171.403V10.5455Z" fill="#213243"/>
</svg>
