<svg width="181" height="25" viewBox="0 0 181 25" fill="none" xmlns="http://www.w3.org/2000/svg">
<path fill-rule="evenodd" clip-rule="evenodd" d="M26 16.0561C26 16.7581 25.6319 17.4087 25.0302 17.7703L14.081 24.3504C13.4205 24.7473 12.5907 24.7294 11.9479 24.3045L0.897086 16.9993C0.336947 16.629 1.2577e-08 16.0023 1.20493e-08 15.3309L1.5719e-09 2C7.03764e-10 0.895432 0.895431 1.00635e-06 2 1.00635e-06H2.44981C2.84682 1.00635e-06 3.23485 0.11816 3.56448 0.339431L8.02941 3.33657L11.9517 5.96947C12.5921 6.39933 13.4226 6.42266 14.0861 6.02942L17.9706 3.72719L22.4696 1.06073C22.7783 0.877784 23.1305 0.781251 23.4893 0.781251H24C25.1046 0.781251 26 1.67668 26 2.78125V16.0561ZM7.41406 6.58462C8.63236 7.40832 8.57493 9.221 7.30692 9.96591L6.07188 10.6915C4.73861 11.4747 3.05882 10.5133 3.05882 8.96702V7.40645C3.05882 5.80316 4.85082 4.8516 6.17903 5.74961L7.41406 6.58462ZM19.9251 6.11432C21.2583 5.32792 22.9412 6.28909 22.9412 7.83698V9.59493C22.9412 11.1952 21.1552 12.1474 19.8265 11.2555L18.4325 10.3198C17.2104 9.49938 17.2632 7.68439 18.5311 6.93655L19.9251 6.11432Z" fill="#1763F8"/>
<path d="M48.216 5.752C49.912 5.752 51.376 6.176 52.608 7.024C53.856 7.856 54.808 9.008 55.464 10.48H52.104C51.128 9.2 49.832 8.56 48.216 8.56C46.76 8.56 45.544 9.08 44.568 10.12C43.608 11.16 43.128 12.464 43.128 14.032C43.128 15.6 43.608 16.904 44.568 17.944C45.544 18.984 46.76 19.504 48.216 19.504C49.848 19.504 51.144 18.864 52.104 17.584H55.464C54.808 19.056 53.856 20.216 52.608 21.064C51.376 21.896 49.912 22.312 48.216 22.312C45.864 22.312 43.904 21.528 42.336 19.96C40.768 18.376 39.984 16.4 39.984 14.032C39.984 11.664 40.768 9.696 42.336 8.128C43.904 6.544 45.864 5.752 48.216 5.752ZM58.9179 12.016C60.1019 10.864 61.5819 10.288 63.3579 10.288C65.1339 10.288 66.6059 10.864 67.7739 12.016C68.9579 13.152 69.5499 14.584 69.5499 16.312C69.5499 18.024 68.9579 19.456 67.7739 20.608C66.6059 21.744 65.1339 22.312 63.3579 22.312C61.5819 22.312 60.1019 21.744 58.9179 20.608C57.7499 19.456 57.1659 18.024 57.1659 16.312C57.1659 14.584 57.7499 13.152 58.9179 12.016ZM65.6139 13.984C65.0219 13.376 64.2699 13.072 63.3579 13.072C62.4459 13.072 61.6859 13.376 61.0779 13.984C60.4859 14.592 60.1899 15.368 60.1899 16.312C60.1899 17.256 60.4859 18.032 61.0779 18.64C61.6859 19.232 62.4459 19.528 63.3579 19.528C64.2699 19.528 65.0219 19.232 65.6139 18.64C66.2219 18.032 66.5259 17.256 66.5259 16.312C66.5259 15.368 66.2219 14.592 65.6139 13.984ZM78.8486 10.288C80.3526 10.288 81.5686 10.728 82.4966 11.608C83.4406 12.472 83.9126 13.648 83.9126 15.136V22H80.8886V15.688C80.8886 14.856 80.6566 14.216 80.1926 13.768C79.7446 13.304 79.0886 13.072 78.2246 13.072C77.4406 13.072 76.7686 13.36 76.2086 13.936C75.6646 14.512 75.3926 15.272 75.3926 16.216V22H72.3686V10.6H75.3926V11.464C76.1286 10.68 77.2806 10.288 78.8486 10.288ZM97.7417 13.96H94.5257C94.0937 13.176 93.1657 12.784 91.7417 12.784C91.0857 12.784 90.5737 12.888 90.2057 13.096C89.8377 13.288 89.6537 13.56 89.6537 13.912C89.6537 14.488 90.2617 14.824 91.4777 14.92L93.5417 15.088C96.2777 15.312 97.6457 16.464 97.6457 18.544C97.6457 19.664 97.1657 20.576 96.2057 21.28C95.2617 21.968 93.9657 22.312 92.3177 22.312C90.6377 22.312 89.2777 21.976 88.2377 21.304C87.2137 20.632 86.5657 19.664 86.2937 18.4H89.5097C89.8617 19.344 90.8777 19.816 92.5577 19.816C93.1657 19.816 93.6617 19.728 94.0457 19.552C94.4297 19.36 94.6217 19.088 94.6217 18.736C94.6217 18.144 94.0297 17.784 92.8457 17.656L90.5897 17.44C87.9497 17.168 86.6297 16.04 86.6297 14.056C86.6297 12.936 87.0937 12.032 88.0217 11.344C88.9497 10.64 90.2137 10.288 91.8137 10.288C95.0457 10.288 97.0217 11.512 97.7417 13.96ZM105.012 22.312C103.524 22.312 102.316 21.88 101.388 21.016C100.476 20.136 100.02 18.952 100.02 17.464V10.6H103.044V16.912C103.044 17.744 103.26 18.392 103.692 18.856C104.14 19.304 104.788 19.528 105.636 19.528C106.404 19.528 107.052 19.24 107.58 18.664C108.124 18.088 108.396 17.328 108.396 16.384V10.6H111.42V22H108.396V21.136C107.66 21.92 106.532 22.312 105.012 22.312ZM114.884 5.944H117.908V22H114.884V5.944ZM122.361 8.032H125.385V10.6H128.841V13.24H125.385V17.944C125.385 18.888 125.825 19.36 126.705 19.36H128.841V22H126.681C125.289 22 124.217 21.68 123.465 21.04C122.729 20.384 122.361 19.512 122.361 18.424V13.24H120.273V10.6H122.361V8.032Z" fill="#213243"/>
</svg>
