<svg width="1920" height="808" viewBox="0 0 1920 808" fill="none" xmlns="http://www.w3.org/2000/svg">
<path d="M105.022 261.507C105.096 261.168 105.343 260.894 105.67 260.785L128.094 253.29C128.608 253.119 129.165 253.397 129.336 253.913C129.507 254.428 129.229 254.986 128.715 255.157L109.984 261.417L133.924 265.592L165.231 242.953L132.907 253.756C132.393 253.928 131.837 253.65 131.665 253.134C131.494 252.619 131.772 252.061 132.286 251.889L170.707 239.049C170.721 239.044 170.73 239.044 170.741 239.041C171.02 238.959 171.328 238.999 171.579 239.175C171.965 239.445 172.106 239.951 171.915 240.382L145.9 299.068C145.77 299.36 145.508 299.571 145.195 299.634C145.131 299.646 145.067 299.653 145.003 299.653C144.754 299.653 144.512 299.558 144.328 299.383L133.472 289.059L123.848 295.153C123.844 295.156 123.839 295.157 123.834 295.159C123.683 295.251 123.508 295.306 123.325 295.306C123.288 295.306 123.251 295.303 123.214 295.299C122.761 295.248 122.403 294.891 122.35 294.438L120.224 276.509L105.308 262.435C105.057 262.197 104.948 261.845 105.022 261.507ZM109.036 263.249L121.239 274.765L131.699 267.201L109.036 263.249ZM129.077 282.167L143.271 295.665L137.948 273.534L129.077 282.167ZM128.077 283.928L125.208 291.965L132.003 287.662L128.077 283.928ZM123.806 290.051L126.736 281.844C126.738 281.838 126.741 281.833 126.743 281.828C126.793 281.694 126.872 281.571 126.976 281.469L141.5 267.335C141.889 266.957 142.511 266.966 142.888 267.356C143.266 267.746 143.256 268.369 142.868 268.747L139.585 271.942L145.28 295.621L168.06 244.232L145.686 266.005C145.297 266.383 144.676 266.374 144.298 265.984C143.921 265.594 143.93 264.971 144.319 264.593L160.68 248.671L122.199 276.497L123.806 290.051Z" fill="white"/>
<path d="M108.149 288.785C108.4 288.785 108.651 288.689 108.842 288.497L117.514 279.802C117.897 279.418 117.897 278.795 117.514 278.411C117.131 278.027 116.509 278.027 116.126 278.411L107.455 287.105C107.071 287.49 107.071 288.113 107.455 288.497C107.646 288.689 107.897 288.785 108.149 288.785Z" fill="white"/>
<path d="M123.324 304C123.575 304 123.826 303.904 124.018 303.712L132.689 295.018C133.073 294.633 133.073 294.01 132.689 293.626C132.306 293.242 131.685 293.242 131.301 293.626L122.63 302.32C122.247 302.705 122.247 303.328 122.63 303.712C122.822 303.904 123.073 304 123.324 304Z" fill="white"/>
<path d="M108.149 304C108.4 304 108.651 303.904 108.842 303.712L117.514 295.018C117.897 294.633 117.897 294.01 117.514 293.626C117.131 293.242 116.509 293.242 116.126 293.626L107.455 302.32C107.071 302.705 107.071 303.328 107.455 303.712C107.646 303.904 107.897 304 108.149 304Z" fill="white"/>
<path d="M-304.663 122.931L-306.163 122.931L-304.663 122.931ZM-162.83 277.806L-163.9 276.756L-162.83 277.806ZM85.7587 316.579C84.6215 317.281 83.4868 317.95 82.3546 318.587L80.8832 315.972C81.9798 315.355 83.0799 314.707 84.1834 314.026L85.7587 316.579ZM68.3378 324.944C65.8362 325.81 63.3474 326.53 60.871 327.113L60.183 324.193C62.5595 323.633 64.9505 322.942 67.3565 322.109L68.3378 324.944ZM45.5087 329.061C42.9131 329.115 40.3335 329.034 37.7697 328.83L38.0083 325.839C40.4755 326.036 42.9543 326.114 45.4458 326.061L45.5087 329.061ZM22.5509 326.207C20.074 325.561 17.612 324.817 15.1647 323.986L16.1288 321.145C18.5128 321.954 20.9056 322.677 23.3081 323.304L22.5509 326.207ZM0.925529 318.185C-1.37216 317.103 -3.65816 315.961 -5.93287 314.77L-4.5413 312.113C-2.30045 313.286 -0.0524361 314.408 2.2034 315.47L0.925529 318.185ZM-19.2444 307.231C-21.4188 305.918 -23.5842 304.575 -25.7407 303.212L-24.1381 300.676C-21.9959 302.03 -19.8478 303.362 -17.6933 304.663L-19.2444 307.231ZM-38.5213 294.904C-40.6408 293.499 -42.7541 292.091 -44.8588 290.691L-43.1967 288.193C-41.0901 289.595 -38.9803 291.001 -36.864 292.404L-38.5213 294.904ZM-57.5551 282.335C-59.697 280.955 -61.8318 279.6 -63.9606 278.281L-62.38 275.731C-60.2334 277.061 -58.0833 278.426 -55.9299 279.814L-57.5551 282.335ZM-77.0145 270.672C-79.2558 269.464 -81.49 268.319 -83.7182 267.247L-82.418 264.544C-80.1435 265.637 -77.8681 266.804 -75.5912 268.031L-77.0145 270.672ZM-97.6014 261.6C-100.007 260.82 -102.406 260.156 -104.797 259.622L-104.144 256.694C-101.652 257.251 -99.163 257.94 -96.6762 258.747L-97.6014 261.6ZM-119.527 258.097C-121.977 258.16 -124.424 258.392 -126.871 258.808L-127.375 255.851C-124.782 255.409 -122.192 255.164 -119.603 255.098L-119.527 258.097ZM-140.896 263.332C-143.055 264.373 -145.22 265.583 -147.392 266.974L-149.01 264.448C-146.741 262.994 -144.471 261.725 -142.198 260.63L-140.896 263.332ZM-159.001 276.149C-159.919 277.016 -160.838 277.918 -161.759 278.857L-163.9 276.756C-162.954 275.791 -162.007 274.862 -161.06 273.968L-159.001 276.149ZM-161.759 278.857C-162.677 279.793 -163.661 280.636 -164.707 281.388L-166.458 278.951C-165.551 278.3 -164.698 277.569 -163.9 276.756L-161.759 278.857ZM-179.082 286.086C-181.482 286.217 -183.992 286.113 -186.59 285.791L-186.221 282.814C-183.778 283.117 -181.447 283.21 -179.245 283.091L-179.082 286.086ZM-200.934 282.165C-203.17 281.344 -205.442 280.402 -207.742 279.343L-206.487 276.618C-204.255 277.646 -202.056 278.557 -199.9 279.349L-200.934 282.165ZM-220.658 272.352C-222.693 271.09 -224.736 269.749 -226.783 268.332L-225.075 265.866C-223.069 267.255 -221.067 268.568 -219.077 269.802L-220.658 272.352ZM-238.412 259.463C-240.26 257.923 -242.1 256.325 -243.929 254.669L-241.917 252.445C-240.117 254.073 -238.307 255.645 -236.491 257.159L-238.412 259.463ZM-254.381 244.455C-256.044 242.703 -257.689 240.904 -259.314 239.061L-257.064 237.077C-255.463 238.893 -253.842 240.664 -252.205 242.39L-254.381 244.455ZM-268.572 227.758C-270.035 225.833 -271.474 223.871 -272.883 221.872L-270.431 220.143C-269.043 222.112 -267.626 224.046 -266.184 225.942L-268.572 227.758ZM-280.858 209.635C-282.108 207.554 -283.324 205.442 -284.504 203.299L-281.876 201.852C-280.714 203.962 -279.517 206.041 -278.286 208.091L-280.858 209.635ZM-291.052 190.241C-292.055 188.029 -293.018 185.791 -293.937 183.527L-291.157 182.399C-290.254 184.624 -289.307 186.826 -288.32 189.002L-291.052 190.241ZM-298.872 169.76C-299.595 167.439 -300.27 165.097 -300.895 162.734L-297.994 161.968C-297.381 164.287 -296.718 166.588 -296.008 168.868L-298.872 169.76ZM-303.994 148.442C-304.401 146.044 -304.753 143.628 -305.049 141.196L-302.071 140.834C-301.781 143.218 -301.435 145.588 -301.037 147.941L-303.994 148.442ZM-306.118 126.606C-306.148 125.384 -306.163 124.159 -306.163 122.931L-303.163 122.931C-303.163 124.134 -303.148 125.335 -303.119 126.532L-306.118 126.606ZM-306.163 122.931C-306.163 121.853 -306.184 120.698 -306.227 119.47L-303.229 119.367C-303.185 120.624 -303.163 121.813 -303.163 122.931L-306.163 122.931ZM-307.325 104.862C-307.568 102.529 -307.846 100.076 -308.159 97.5116L-305.181 97.1488C-304.867 99.7286 -304.586 102.199 -304.341 104.552L-307.325 104.862ZM-310.112 82.9793C-310.457 80.6008 -310.821 78.1582 -311.205 75.6558L-308.24 75.2011C-307.855 77.711 -307.489 80.1616 -307.143 82.5487L-310.112 82.9793ZM-313.526 61.1485C-313.924 58.7482 -314.336 56.3071 -314.76 53.8283L-311.802 53.3226C-311.378 55.8061 -310.966 58.252 -310.566 60.6573L-313.526 61.1485ZM-317.305 39.3077C-317.729 36.9416 -318.162 34.549 -318.604 32.1321L-315.652 31.593C-315.21 34.013 -314.777 36.4089 -314.352 38.7784L-317.305 39.3077ZM-321.295 17.6442C-321.749 15.2336 -322.211 12.8044 -322.679 10.3586L-319.732 9.79505C-319.264 12.2433 -318.802 14.6749 -318.347 17.0881L-321.295 17.6442ZM-325.476 -4.0909C-325.944 -6.48142 -326.417 -8.88371 -326.895 -11.2961L-323.952 -11.8784C-323.474 -9.46415 -323.001 -7.05994 -322.532 -4.66744L-325.476 -4.0909ZM-329.782 -25.7509C-330.266 -28.1519 -330.753 -30.5594 -331.243 -32.9718L-328.304 -33.5693C-327.813 -31.1554 -327.325 -28.7463 -326.841 -26.3437L-329.782 -25.7509ZM-334.2 -47.4072C-334.696 -49.8124 -335.194 -52.2194 -335.694 -54.6266L-332.757 -55.2367C-332.256 -52.8282 -331.758 -50.4199 -331.261 -48.0133L-334.2 -47.4072ZM-338.708 -69.0433C-339.214 -71.4534 -339.722 -73.8606 -340.23 -76.2632L-337.295 -76.8841C-336.787 -74.4803 -336.279 -72.072 -335.772 -69.6607L-338.708 -69.0433ZM-343.297 -90.6801C-343.811 -93.0851 -344.325 -95.4822 -344.838 -97.8699L-341.905 -98.5002C-341.392 -96.1115 -340.878 -93.7134 -340.363 -91.3074L-343.297 -90.6801ZM-347.95 -112.28C-348.474 -114.697 -348.996 -117.1 -349.516 -119.487L-346.585 -120.126C-346.065 -117.737 -345.542 -115.334 -345.018 -112.916L-347.95 -112.28ZM-352.666 -133.88C-353.198 -136.303 -353.727 -138.704 -354.252 -141.083L-351.323 -141.73C-350.798 -139.35 -350.269 -136.947 -349.736 -134.524L-352.666 -133.88ZM-357.439 -155.471C-357.98 -157.901 -358.514 -160.301 -359.042 -162.667L-356.114 -163.32C-355.586 -160.953 -355.051 -158.553 -354.511 -156.123L-357.439 -155.471ZM-362.268 -177.066C-362.811 -179.483 -363.346 -181.855 -363.87 -184.178L-360.943 -184.838C-360.419 -182.514 -359.885 -180.142 -359.341 -177.724L-362.268 -177.066ZM-367.136 -198.6C-367.696 -201.066 -368.24 -203.454 -368.765 -205.76L-365.841 -206.427C-365.314 -204.12 -364.771 -201.731 -364.21 -199.265L-367.136 -198.6ZM-372.073 -220.209C-372.663 -222.776 -373.215 -225.172 -373.725 -227.383L-370.802 -228.058C-370.292 -225.845 -369.74 -223.449 -369.15 -220.881L-372.073 -220.209ZM-377.024 -241.608C-377.295 -242.771 -377.503 -243.661 -377.643 -244.26C-377.713 -244.56 -377.766 -244.786 -377.802 -244.938C-377.819 -245.014 -377.833 -245.071 -377.842 -245.11C-377.846 -245.129 -377.85 -245.143 -377.852 -245.153C-377.853 -245.157 -377.854 -245.161 -377.854 -245.163C-377.855 -245.164 -377.855 -245.165 -377.855 -245.166C-377.855 -245.166 -377.855 -245.166 -377.855 -245.167C-377.855 -245.167 -377.855 -245.167 -377.855 -245.167C-377.855 -245.167 -377.855 -245.167 -377.855 -245.167C-377.855 -245.167 -377.855 -245.167 -376.395 -245.51C-374.935 -245.853 -374.935 -245.853 -374.935 -245.853C-374.935 -245.853 -374.935 -245.853 -374.935 -245.853C-374.935 -245.853 -374.935 -245.852 -374.935 -245.852C-374.935 -245.852 -374.935 -245.852 -374.935 -245.852C-374.934 -245.851 -374.934 -245.85 -374.934 -245.849C-374.933 -245.847 -374.932 -245.843 -374.931 -245.838C-374.929 -245.828 -374.926 -245.814 -374.921 -245.795C-374.912 -245.756 -374.899 -245.699 -374.881 -245.623C-374.845 -245.471 -374.792 -245.244 -374.722 -244.944C-374.581 -244.344 -374.373 -243.453 -374.102 -242.289L-377.024 -241.608Z" fill="white"/>
<path d="M1778.96 183.458C1778.83 182.87 1778.39 182.393 1777.82 182.203L1738.32 169.174C1737.42 168.876 1736.44 169.36 1736.14 170.256C1735.84 171.153 1736.33 172.122 1737.23 172.42L1770.22 183.303L1728.06 190.56L1672.92 151.204L1729.85 169.985C1730.75 170.283 1731.73 169.799 1732.04 168.903C1732.34 168.007 1731.85 167.038 1730.94 166.739L1663.27 144.416C1663.25 144.409 1663.24 144.407 1663.22 144.402C1662.73 144.259 1662.18 144.33 1661.74 144.636C1661.06 145.105 1660.81 145.985 1661.15 146.734L1706.97 248.758C1707.19 249.266 1707.66 249.632 1708.21 249.741C1708.32 249.763 1708.43 249.774 1708.55 249.774C1708.98 249.774 1709.41 249.608 1709.74 249.304L1728.85 231.357L1745.8 241.952C1745.81 241.957 1745.82 241.958 1745.83 241.962C1746.09 242.122 1746.4 242.216 1746.73 242.216C1746.79 242.216 1746.85 242.213 1746.92 242.205C1747.72 242.116 1748.35 241.496 1748.44 240.708L1752.19 209.54L1778.46 185.072C1778.9 184.659 1779.09 184.046 1778.96 183.458ZM1771.89 186.488L1750.4 206.507L1731.98 193.358L1771.89 186.488ZM1736.59 219.376L1711.6 242.842L1720.97 204.368L1736.59 219.376ZM1738.36 222.437L1743.41 236.409L1731.44 228.928L1738.36 222.437ZM1745.88 233.082L1740.72 218.813C1740.71 218.804 1740.71 218.795 1740.71 218.785C1740.62 218.553 1740.48 218.339 1740.29 218.162L1714.71 193.591C1714.03 192.933 1712.93 192.949 1712.27 193.627C1711.61 194.305 1711.62 195.388 1712.31 196.046L1718.09 201.6L1708.06 242.766L1667.94 153.427L1707.34 191.278C1708.03 191.936 1709.12 191.92 1709.79 191.242C1710.45 190.564 1710.44 189.481 1709.75 188.823L1680.93 161.144L1748.71 209.519L1745.88 233.082Z" fill="white"/>
<path d="M1773.45 230.88C1773.01 230.88 1772.57 230.714 1772.23 230.38L1756.96 215.265C1756.28 214.597 1756.28 213.514 1756.96 212.846C1757.63 212.178 1758.73 212.178 1759.4 212.846L1774.68 227.96C1775.35 228.629 1775.35 229.712 1774.68 230.38C1774.34 230.714 1773.9 230.88 1773.45 230.88Z" fill="white"/>
<path d="M1746.73 257.331C1746.28 257.331 1745.84 257.164 1745.5 256.83L1730.23 241.716C1729.56 241.047 1729.56 239.964 1730.23 239.296C1730.91 238.628 1732 238.628 1732.68 239.296L1747.95 254.411C1748.62 255.079 1748.62 256.162 1747.95 256.83C1747.61 257.164 1747.17 257.331 1746.73 257.331Z" fill="white"/>
<path d="M1773.45 257.331C1773.01 257.331 1772.57 257.164 1772.23 256.83L1756.96 241.716C1756.28 241.047 1756.28 239.964 1756.96 239.296C1757.63 238.628 1758.73 238.628 1759.4 239.296L1774.68 254.411C1775.35 255.079 1775.35 256.162 1774.68 256.83C1774.34 257.164 1773.9 257.331 1773.45 257.331Z" fill="white"/>
<path d="M2313.65 344.253L2312.32 344.958L2313.65 344.253ZM1888 597.332L1888.79 596.055L1888 597.332ZM1830 443.332L1828.5 443.332L1830 443.332ZM2230 245.332L2231.07 244.281L2231.07 244.281L2230 245.332ZM1830 344.253L1831.49 344.104L1830 344.253ZM1796.08 280.346C1795 281.388 1795 281.388 1795 281.388C1795 281.388 1795 281.388 1795 281.388C1795 281.388 1795 281.388 1795 281.388C1795 281.388 1795 281.388 1795 281.388C1795 281.388 1795 281.389 1795 281.39C1795.01 281.391 1795.01 281.394 1795.01 281.398C1795.02 281.405 1795.03 281.417 1795.04 281.432C1795.07 281.463 1795.12 281.511 1795.18 281.574C1795.3 281.7 1795.48 281.891 1795.71 282.141C1796.17 282.643 1796.85 283.387 1797.69 284.348L1799.95 282.37C1799.08 281.388 1798.39 280.625 1797.91 280.106C1797.67 279.847 1797.49 279.648 1797.36 279.514C1797.3 279.446 1797.25 279.395 1797.21 279.36C1797.2 279.343 1797.18 279.329 1797.18 279.32C1797.17 279.315 1797.17 279.312 1797.17 279.309C1797.16 279.308 1797.16 279.307 1797.16 279.306C1797.16 279.306 1797.16 279.305 1797.16 279.305C1797.16 279.305 1797.16 279.305 1797.16 279.305C1797.16 279.305 1797.16 279.305 1797.16 279.305C1797.16 279.305 1797.16 279.305 1796.08 280.346ZM1807.75 297.028C1809.24 299.102 1810.78 301.337 1812.31 303.706L1814.83 302.077C1813.27 299.662 1811.7 297.386 1810.19 295.275L1807.75 297.028ZM1820.3 317.736C1821.47 320.134 1822.57 322.593 1823.56 325.095L1826.35 323.989C1825.32 321.409 1824.19 318.879 1822.99 316.419L1820.3 317.736ZM1827.98 340.46C1828.2 341.774 1828.38 343.088 1828.51 344.402L1831.49 344.104C1831.36 342.719 1831.17 341.337 1830.94 339.959L1827.98 340.46ZM1828.51 344.402C1828.65 345.815 1828.78 347.185 1828.9 348.514L1831.89 348.24C1831.77 346.902 1831.64 345.525 1831.49 344.104L1828.51 344.402ZM1830.04 364.931C1830.17 367.814 1830.23 370.522 1830.26 373.137L1833.26 373.106C1833.23 370.459 1833.16 367.718 1833.04 364.803L1830.04 364.931ZM1829.95 389.573C1829.85 392.207 1829.73 394.925 1829.6 397.817L1832.59 397.952C1832.72 395.063 1832.85 392.337 1832.95 389.693L1829.95 389.573ZM1828.94 414.355C1828.86 416.946 1828.78 419.69 1828.72 422.615L1831.72 422.68C1831.78 419.766 1831.86 417.032 1831.94 414.449L1828.94 414.355ZM1828.51 439.175C1828.5 440.528 1828.5 441.913 1828.5 443.332L1831.5 443.332C1831.5 441.917 1831.5 440.536 1831.51 439.187L1828.51 439.175ZM1828.5 443.332C1828.5 444.56 1828.5 445.78 1828.5 446.992L1831.5 446.992C1831.5 445.78 1831.5 444.56 1831.5 443.332L1828.5 443.332ZM1828.54 461.549C1828.55 464.011 1828.57 466.437 1828.6 468.829L1831.6 468.792C1831.57 466.408 1831.55 463.988 1831.54 461.531L1828.54 461.549ZM1828.92 483.411C1829.01 485.883 1829.11 488.316 1829.23 490.711L1832.23 490.558C1832.11 488.181 1832.01 485.765 1831.92 483.308L1828.92 483.411ZM1830.3 505.28C1830.55 507.751 1830.83 510.18 1831.15 512.569L1834.12 512.173C1833.81 509.82 1833.53 507.424 1833.29 504.983L1830.3 505.28ZM1833.68 527.022C1834.22 529.442 1834.82 531.82 1835.48 534.156L1838.37 533.339C1837.73 531.06 1837.14 528.737 1836.61 526.368L1833.68 527.022ZM1840.4 548.049C1841.38 550.308 1842.44 552.528 1843.59 554.709L1846.25 553.312C1845.13 551.199 1844.11 549.047 1843.15 546.855L1840.4 548.049ZM1851.46 567.202C1852.91 569.152 1854.45 571.071 1856.09 572.962L1858.36 570.998C1856.77 569.163 1855.27 567.301 1853.87 565.411L1851.46 567.202ZM1866.47 583.41C1868.28 585.005 1870.16 586.58 1872.14 588.137L1874 585.78C1872.06 584.257 1870.22 582.719 1868.46 581.163L1866.47 583.41ZM1884.09 596.634C1885.11 597.295 1886.15 597.953 1887.21 598.608L1888.79 596.055C1887.74 595.41 1886.72 594.763 1885.71 594.113L1884.09 596.634ZM1887.21 598.608C1888.4 599.337 1889.57 600.032 1890.74 600.693L1892.22 598.08C1891.08 597.439 1889.94 596.764 1888.79 596.055L1887.21 598.608ZM1904.79 607.103C1907.35 607.988 1909.88 608.706 1912.39 609.263L1913.04 606.334C1910.65 605.803 1908.23 605.116 1905.77 604.268L1904.79 607.103ZM1927.87 610.678C1930.49 610.567 1933.07 610.277 1935.61 609.815L1935.08 606.863C1932.66 607.301 1930.22 607.576 1927.75 607.681L1927.87 610.678ZM1950.44 605.081C1952.8 603.999 1955.12 602.77 1957.41 601.403L1955.88 598.826C1953.67 600.142 1951.44 601.32 1949.19 602.356L1950.44 605.081ZM1970 592.303C1971.89 590.692 1973.77 588.989 1975.62 587.197L1973.53 585.04C1971.72 586.791 1969.9 588.451 1968.06 590.018L1970 592.303ZM1986.13 575.881C1987.76 573.937 1989.39 571.927 1990.99 569.854L1988.62 568.016C1987.04 570.059 1985.44 572.038 1983.83 573.948L1986.13 575.881ZM1999.98 557.423C2001.42 555.29 2002.85 553.108 2004.27 550.881L2001.75 549.266C2000.34 551.473 1998.92 553.632 1997.49 555.742L1999.98 557.423ZM2012.19 537.845C2013.46 535.644 2014.73 533.408 2015.99 531.14L2013.37 529.684C2012.12 531.937 2010.86 534.157 2009.59 536.342L2012.19 537.845ZM2023.22 517.623C2024.38 515.374 2025.54 513.1 2026.69 510.803L2024 509.461C2022.86 511.747 2021.71 514.01 2020.55 516.247L2023.22 517.623ZM2033.4 497.002C2034.48 494.715 2035.56 492.409 2036.63 490.088L2033.91 488.829C2032.84 491.143 2031.76 493.44 2030.68 495.718L2033.4 497.002ZM2042.95 476.119C2043.98 473.8 2045.01 471.469 2046.03 469.127L2043.28 467.927C2042.26 470.264 2041.24 472.589 2040.21 474.902L2042.95 476.119ZM2052.08 455.058C2053.07 452.715 2054.06 450.364 2055.05 448.007L2052.28 446.848C2051.29 449.202 2050.31 451.548 2049.31 453.887L2052.08 455.058ZM2060.91 433.879C2061.88 431.52 2062.84 429.158 2063.81 426.795L2061.03 425.661C2060.07 428.022 2059.1 430.382 2058.13 432.738L2060.91 433.879ZM2069.57 412.632C2070.52 410.267 2071.48 407.903 2072.44 405.542L2069.65 404.417C2068.7 406.778 2067.74 409.142 2066.79 411.506L2069.57 412.632ZM2078.17 391.365C2079.13 389.002 2080.08 386.644 2081.04 384.294L2078.26 383.164C2077.3 385.516 2076.35 387.875 2075.39 390.239L2078.17 391.365ZM2086.83 370.125C2087.79 367.771 2088.76 365.427 2089.73 363.095L2086.96 361.945C2085.99 364.28 2085.02 366.627 2084.05 368.984L2086.83 370.125ZM2095.66 348.97C2096.65 346.628 2097.65 344.302 2098.64 341.993L2095.89 340.804C2094.89 343.118 2093.89 345.45 2092.9 347.796L2095.66 348.97ZM2104.81 327.971C2105.85 325.642 2106.9 323.335 2107.95 321.053L2105.22 319.802C2104.17 322.092 2103.12 324.407 2102.07 326.744L2104.81 327.971ZM2114.46 307.241C2115.59 304.921 2116.71 302.633 2117.85 300.38L2115.17 299.033C2114.03 301.299 2112.89 303.599 2111.76 305.931L2114.46 307.241ZM2124.85 286.97C2126.11 284.658 2127.38 282.394 2128.65 280.182L2126.04 278.69C2124.76 280.922 2123.49 283.204 2122.22 285.534L2124.85 286.97ZM2136.53 267.219C2137.94 265.045 2139.35 262.941 2140.78 260.909L2138.32 259.189C2136.88 261.251 2135.44 263.386 2134.01 265.588L2136.53 267.219ZM2150.01 248.902C2151.69 246.946 2153.37 245.1 2155.06 243.369L2152.91 241.272C2151.17 243.055 2149.44 244.951 2147.73 246.952L2150.01 248.902ZM2166.46 233.609C2168.54 232.178 2170.63 230.93 2172.74 229.874L2171.4 227.191C2169.15 228.315 2166.94 229.635 2164.76 231.137L2166.46 233.609ZM2186.78 225.769C2189.2 225.562 2191.65 225.608 2194.14 225.92L2194.51 222.943C2191.82 222.605 2189.16 222.555 2186.53 222.78L2186.78 225.769ZM2207.99 230.314C2210.11 231.385 2212.27 232.65 2214.46 234.117L2216.13 231.625C2213.85 230.094 2211.58 228.766 2209.34 227.634L2207.99 230.314ZM2226.04 243.534C2227 244.445 2227.96 245.395 2228.93 246.382L2231.07 244.281C2230.08 243.27 2229.09 242.297 2228.11 241.361L2226.04 243.534ZM2228.93 246.382C2229.82 247.284 2230.68 248.164 2231.54 249.025L2233.67 246.913C2232.82 246.056 2231.95 245.179 2231.07 244.281L2228.93 246.382ZM2241.89 259.232C2243.74 261.011 2245.5 262.679 2247.18 264.247L2249.23 262.055C2247.56 260.497 2245.81 258.839 2243.97 257.07L2241.89 259.232ZM2257.99 274.043C2259.96 275.77 2261.79 277.344 2263.5 278.807L2265.45 276.528C2263.74 275.07 2261.93 273.504 2259.97 271.788L2257.99 274.043ZM2274.44 288.275C2276.25 289.916 2277.94 291.535 2279.58 293.249L2281.75 291.171C2280.04 289.397 2278.3 287.731 2276.46 286.055L2274.44 288.275ZM2288.62 304.301C2289.89 306.106 2291.22 308.081 2292.62 310.272L2295.15 308.654C2293.72 306.43 2292.37 304.417 2291.07 302.57L2288.62 304.301ZM2300.08 322.667C2301.22 324.643 2302.4 326.745 2303.65 328.984L2306.27 327.526C2305.02 325.276 2303.83 323.164 2302.69 321.175L2300.08 322.667ZM2310.58 341.694C2311.15 342.758 2311.73 343.846 2312.32 344.958L2314.97 343.547C2314.38 342.432 2313.79 341.342 2313.22 340.276L2310.58 341.694ZM2312.32 344.958C2312.89 346.024 2313.46 347.094 2314.04 348.168L2316.68 346.755C2316.11 345.681 2315.54 344.612 2314.97 343.547L2312.32 344.958ZM2320.97 361.103C2322.12 363.242 2323.28 365.394 2324.45 367.557L2327.09 366.132C2325.92 363.97 2324.76 361.819 2323.61 359.682L2320.97 361.103ZM2331.44 380.463C2332.6 382.603 2333.77 384.75 2334.94 386.904L2337.57 385.469C2336.4 383.317 2335.23 381.17 2334.07 379.031L2331.44 380.463ZM2341.97 399.784C2343.14 401.926 2344.31 404.071 2345.49 406.217L2348.12 404.775C2346.94 402.629 2345.77 400.485 2344.6 398.344L2341.97 399.784ZM2352.55 419.075C2353.73 421.219 2354.91 423.361 2356.09 425.501L2358.72 424.053C2357.54 421.914 2356.36 419.772 2355.18 417.628L2352.55 419.075ZM2363.18 438.341C2364.37 440.488 2365.56 442.628 2366.74 444.76L2369.36 443.306C2368.18 441.174 2367 439.035 2365.81 436.889L2363.18 438.341ZM2373.85 457.585C2375.05 459.735 2376.24 461.873 2377.42 463.999L2380.04 462.54C2378.86 460.415 2377.67 458.277 2376.48 456.128L2373.85 457.585ZM2384.56 476.807C2385.76 478.963 2386.96 481.101 2388.14 483.22L2390.76 481.756C2389.58 479.638 2388.38 477.5 2387.18 475.345L2384.56 476.807ZM2395.29 495.996C2396.5 498.164 2397.7 500.305 2398.88 502.416L2401.5 500.949C2400.32 498.838 2399.12 496.698 2397.9 494.53L2395.29 495.996ZM2406.07 515.207C2407.28 517.373 2408.48 519.499 2409.65 521.58L2412.26 520.109C2411.09 518.028 2409.9 515.903 2408.68 513.737L2406.07 515.207ZM2416.85 534.361C2418.09 536.562 2419.29 538.694 2420.46 540.753L2423.07 539.278C2421.91 537.22 2420.7 535.088 2419.46 532.887L2416.85 534.361ZM2427.66 553.501C2428.97 555.803 2430.18 557.953 2431.31 559.936L2433.92 558.457C2432.79 556.474 2431.58 554.325 2430.27 552.023L2427.66 553.501ZM2438.53 572.66C2439.11 573.69 2439.56 574.477 2439.86 575.008C2440.02 575.273 2440.13 575.474 2440.21 575.608C2440.25 575.676 2440.27 575.726 2440.29 575.76C2440.3 575.777 2440.31 575.79 2440.32 575.799C2440.32 575.803 2440.32 575.806 2440.32 575.808C2440.32 575.809 2440.32 575.81 2440.32 575.811C2440.32 575.811 2440.32 575.811 2440.32 575.811C2440.32 575.811 2440.32 575.811 2440.32 575.811C2440.32 575.811 2440.32 575.811 2440.32 575.811C2440.32 575.811 2440.32 575.811 2441.63 575.069C2442.93 574.326 2442.93 574.326 2442.93 574.326C2442.93 574.326 2442.93 574.326 2442.93 574.326C2442.93 574.326 2442.93 574.326 2442.93 574.326C2442.93 574.326 2442.93 574.326 2442.93 574.325C2442.93 574.325 2442.93 574.324 2442.93 574.323C2442.93 574.321 2442.92 574.318 2442.92 574.313C2442.92 574.305 2442.91 574.292 2442.9 574.275C2442.88 574.241 2442.85 574.191 2442.81 574.124C2442.74 573.989 2442.62 573.788 2442.47 573.523C2442.17 572.993 2441.72 572.206 2441.14 571.178L2438.53 572.66Z" fill="white"/>
</svg>
