<svg width="320" height="2081" viewBox="0 0 320 2081" fill="none" xmlns="http://www.w3.org/2000/svg">
<rect x="1120" y="2081" width="1920" height="2059" transform="rotate(-180 1120 2081)" fill="#DDEAF9"/>
<path d="M159.007 309.844C159.047 309.667 159.18 309.524 159.356 309.467L171.404 305.546C171.681 305.457 171.979 305.602 172.072 305.872C172.164 306.142 172.014 306.433 171.738 306.523L161.673 309.798L174.537 311.981L191.358 300.14L173.99 305.79C173.714 305.88 173.415 305.735 173.323 305.465C173.231 305.195 173.38 304.904 173.657 304.814L194.301 298.097C194.308 298.095 194.313 298.094 194.319 298.093C194.469 298.05 194.635 298.071 194.769 298.163C194.977 298.304 195.052 298.569 194.95 298.794L180.972 329.492C180.902 329.645 180.761 329.755 180.593 329.788C180.558 329.794 180.524 329.798 180.49 329.798C180.356 329.798 180.226 329.748 180.127 329.656L174.294 324.256L169.123 327.444C169.12 327.446 169.118 327.446 169.115 327.447C169.034 327.495 168.94 327.524 168.842 327.524C168.822 327.524 168.802 327.523 168.782 327.52C168.539 327.494 168.347 327.307 168.318 327.07L167.175 317.692L159.161 310.33C159.026 310.206 158.968 310.021 159.007 309.844ZM161.164 310.756L167.721 316.779L173.341 312.823L161.164 310.756ZM171.933 320.651L179.559 327.712L176.699 316.136L171.933 320.651ZM171.395 321.572L169.853 325.776L173.505 323.525L171.395 321.572ZM169.1 324.775L170.674 320.482C170.675 320.479 170.677 320.476 170.678 320.474C170.705 320.404 170.747 320.339 170.804 320.286L178.608 312.893C178.817 312.695 179.151 312.7 179.353 312.904C179.556 313.108 179.551 313.434 179.342 313.632L177.578 315.303L180.638 327.689L192.878 300.808L180.857 312.197C180.648 312.395 180.314 312.39 180.111 312.186C179.908 311.982 179.913 311.656 180.122 311.458L188.913 303.13L168.237 317.685L169.1 324.775Z" fill="white"/>
<path d="M160.687 324.113C160.822 324.113 160.957 324.063 161.06 323.962L165.72 319.414C165.925 319.213 165.925 318.887 165.72 318.686C165.514 318.485 165.18 318.485 164.974 318.686L160.314 323.234C160.108 323.435 160.108 323.761 160.314 323.962C160.417 324.063 160.552 324.113 160.687 324.113Z" fill="white"/>
<path d="M168.841 332.072C168.976 332.072 169.111 332.021 169.214 331.921L173.873 327.373C174.079 327.172 174.079 326.846 173.873 326.645C173.667 326.444 173.334 326.444 173.128 326.645L168.468 331.193C168.262 331.394 168.262 331.72 168.468 331.921C168.571 332.021 168.706 332.072 168.841 332.072Z" fill="white"/>
<path d="M160.687 332.072C160.822 332.072 160.957 332.021 161.06 331.921L165.72 327.373C165.925 327.172 165.925 326.846 165.72 326.645C165.514 326.444 165.18 326.444 164.974 326.645L160.314 331.193C160.108 331.394 160.108 331.72 160.314 331.921C160.417 332.021 160.552 332.072 160.687 332.072Z" fill="white"/>
<path d="M-58.1392 236.283L-59.6392 236.283L-58.1392 236.283ZM17.1824 318.531L16.1115 317.481L17.1824 318.531ZM149.566 339.72C148.342 340.475 147.123 341.16 145.908 341.779L144.547 339.106C145.687 338.525 146.835 337.88 147.991 337.167L149.566 339.72ZM129.937 346.354C127.114 346.562 124.327 346.464 121.578 346.112L121.958 343.137C124.523 343.464 127.108 343.554 129.718 343.362L129.937 346.354ZM105.723 341.467C103.244 340.373 100.795 339.143 98.3726 337.818L99.812 335.186C102.174 336.478 104.547 337.669 106.934 338.722L105.723 341.467ZM84.4965 329.312C82.2365 327.825 79.9838 326.317 77.7598 324.841L79.4187 322.341C81.6573 323.827 83.8912 325.323 86.1458 326.806L84.4965 329.312ZM64.1621 316.321C61.7838 314.981 59.4269 313.766 57.0865 312.72L58.3104 309.981C60.7544 311.073 63.1957 312.333 65.6346 313.707L64.1621 316.321ZM42.1108 308.784C39.5774 308.677 37.0552 308.902 34.5345 309.523L33.8176 306.61C36.6311 305.917 39.4383 305.669 42.2371 305.786L42.1108 308.784ZM21.1381 316.857C20.1804 317.69 19.2188 318.597 18.2532 319.581L16.1115 317.481C17.1294 316.443 18.1484 315.481 19.169 314.594L21.1381 316.857ZM18.2532 319.581C17.3054 320.548 16.2327 321.337 15.0548 321.954L13.6623 319.297C14.5689 318.822 15.3876 318.219 16.1115 317.481L18.2532 319.581ZM0.19013 322.617C-2.02371 322.023 -4.31942 321.184 -6.66166 320.124L-5.42397 317.391C-3.2091 318.394 -1.06757 319.174 0.967475 319.72L0.19013 322.617ZM-19.0406 312.751C-20.9196 311.372 -22.7971 309.875 -24.6574 308.269L-22.6969 305.998C-20.8944 307.554 -19.0785 309.002 -17.2653 310.333L-19.0406 312.751ZM-34.798 298.177C-36.3501 296.405 -37.8659 294.557 -39.3341 292.639L-36.9517 290.815C-35.5241 292.681 -34.0503 294.477 -32.5415 296.2L-34.798 298.177ZM-47.2529 280.723C-48.4294 278.664 -49.5437 276.549 -50.5861 274.385L-47.8831 273.083C-46.872 275.183 -45.7905 277.235 -44.6479 279.235L-47.2529 280.723ZM-55.8317 261.051C-56.5313 258.776 -57.1452 256.463 -57.6642 254.114L-54.7349 253.467C-54.2338 255.734 -53.6408 257.969 -52.9643 260.169L-55.8317 261.051ZM-59.558 239.885C-59.6118 238.691 -59.6392 237.49 -59.6392 236.283L-56.6392 236.283C-56.6392 237.444 -56.6128 238.6 -56.561 239.75L-59.558 239.885ZM-59.6392 236.283C-59.6392 235.227 -59.6785 234.028 -59.7559 232.693L-56.7609 232.519C-56.6811 233.897 -56.6392 235.156 -56.6392 236.283L-59.6392 236.283ZM-61.3116 218.12C-61.6268 215.827 -61.982 213.403 -62.3733 210.864L-59.4083 210.407C-59.0149 212.96 -58.6573 215.4 -58.3395 217.712L-61.3116 218.12ZM-64.781 196.313C-65.1952 193.945 -65.6286 191.519 -66.079 189.042L-63.1275 188.505C-62.6759 190.988 -62.2413 193.421 -61.8258 195.796L-64.781 196.313ZM-68.8039 174.515C-69.2648 172.122 -69.7364 169.701 -70.217 167.259L-67.2734 166.68C-66.7921 169.126 -66.3198 171.551 -65.8581 173.948L-68.8039 174.515ZM-73.118 152.776C-73.6076 150.371 -74.1027 147.957 -74.6016 145.54L-71.6636 144.934C-71.1641 147.353 -70.6685 149.77 -70.1783 152.178L-73.118 152.776ZM-77.6258 131.071C-78.1372 128.651 -78.6497 126.24 -79.1617 123.843L-76.2279 123.216C-75.7155 125.616 -75.2026 128.029 -74.6906 130.45L-77.6258 131.071ZM-82.2728 109.411C-82.8027 106.974 -83.3287 104.566 -83.849 102.192L-80.9186 101.55C-80.3979 103.925 -79.8716 106.335 -79.3414 108.773L-82.2728 109.411ZM-87.0392 87.7516C-87.5884 85.2839 -88.1259 82.8774 -88.6494 80.5415L-85.722 79.8855C-85.1982 82.2228 -84.6604 84.6307 -84.1109 87.0999L-87.0392 87.7516ZM-91.9021 66.1259C-92.4877 63.5478 -93.0402 61.125 -93.5541 58.8783L-90.6297 58.2094C-90.1154 60.4575 -89.5626 62.8817 -88.9766 65.4613L-91.9021 66.1259ZM-96.8697 44.4933C-97.1358 43.3487 -97.3417 42.466 -97.4811 41.8696C-97.5508 41.5714 -97.6039 41.3448 -97.6395 41.1927C-97.6573 41.1167 -97.6708 41.0594 -97.6797 41.021C-97.6842 41.0019 -97.6876 40.9875 -97.6899 40.9779C-97.691 40.9731 -97.6918 40.9695 -97.6924 40.9671C-97.6927 40.9659 -97.6929 40.965 -97.693 40.9644C-97.6931 40.9641 -97.6931 40.9639 -97.6932 40.9637C-97.6932 40.9637 -97.6932 40.9636 -97.6932 40.9636C-97.6932 40.9636 -97.6932 40.9635 -97.6932 40.9635C-97.6932 40.9635 -97.6932 40.9635 -96.2329 40.6206C-94.7727 40.2778 -94.7727 40.2778 -94.7727 40.2778C-94.7727 40.2778 -94.7727 40.2778 -94.7727 40.2778C-94.7726 40.2779 -94.7726 40.2779 -94.7726 40.278C-94.7726 40.2782 -94.7725 40.2784 -94.7724 40.2787C-94.7723 40.2793 -94.7721 40.2803 -94.7718 40.2815C-94.7712 40.2839 -94.7704 40.2876 -94.7692 40.2925C-94.7669 40.3022 -94.7635 40.3167 -94.759 40.336C-94.75 40.3746 -94.7364 40.4322 -94.7186 40.5085C-94.6828 40.661 -94.6297 40.8882 -94.5598 41.1869C-94.4202 41.7844 -94.214 42.6682 -93.9476 43.8139L-96.8697 44.4933Z" fill="white"/>
<path d="M268.978 65.2742C268.923 65.0296 268.739 64.8313 268.494 64.7521L251.76 59.3332C251.376 59.2092 250.961 59.4105 250.833 59.7832C250.705 60.156 250.913 60.559 251.297 60.6832L265.275 65.2097L247.409 68.2281L224.046 51.8589L248.169 59.6703C248.552 59.7943 248.967 59.5932 249.095 59.2203C249.223 58.8475 249.016 58.4445 248.632 58.3203L219.959 49.0355C219.949 49.0324 219.942 49.0317 219.934 49.0297C219.726 48.9703 219.496 48.9999 219.308 49.1271C219.021 49.3221 218.916 49.688 219.058 49.9995L238.472 92.4342C238.569 92.6455 238.765 92.7979 238.998 92.8431C239.046 92.8523 239.094 92.8569 239.142 92.8569C239.327 92.8569 239.508 92.7881 239.646 92.6615L247.747 85.1969L254.929 89.6035C254.932 89.6056 254.936 89.6061 254.939 89.6075C255.052 89.6744 255.182 89.7135 255.319 89.7135C255.347 89.7135 255.374 89.712 255.402 89.7089C255.74 89.6718 256.007 89.4139 256.047 89.086L257.634 76.1224L268.765 65.9453C268.952 65.7737 269.033 65.5188 268.978 65.2742ZM265.983 66.5344L256.876 74.8609L249.07 69.3918L265.983 66.5344ZM251.026 80.2133L240.434 89.9736L244.406 73.9712L251.026 80.2133ZM251.773 81.4865L253.914 87.2979L248.843 84.1864L251.773 81.4865ZM254.96 85.9141L252.774 79.9794C252.772 79.9754 252.77 79.9718 252.769 79.9678C252.731 79.8711 252.672 79.7821 252.594 79.7085L241.755 69.4887C241.465 69.2151 241.002 69.2219 240.72 69.5037C240.438 69.7858 240.445 70.2362 240.735 70.5098L243.185 72.8199L238.935 89.9419L221.935 52.7833L238.632 68.5267C238.922 68.8004 239.386 68.7937 239.668 68.5117C239.949 68.2296 239.942 67.7792 239.652 67.5056L227.442 55.993L256.16 76.1136L254.96 85.9141Z" fill="white"/>
<path d="M266.645 84.9986C266.458 84.9986 266.27 84.9291 266.127 84.7903L259.656 78.5036C259.37 78.2256 259.37 77.7752 259.656 77.4973C259.942 77.2195 260.405 77.2195 260.691 77.4973L267.163 83.784C267.449 84.0619 267.449 84.5124 267.163 84.7903C267.02 84.9291 266.832 84.9986 266.645 84.9986Z" fill="white"/>
<path d="M255.32 96.0002C255.133 96.0002 254.945 95.9308 254.802 95.7919L248.331 89.5052C248.045 89.2273 248.045 88.7768 248.331 88.499C248.617 88.2212 249.081 88.2212 249.367 88.499L255.838 94.7856C256.124 95.0636 256.124 95.514 255.838 95.7919C255.695 95.9307 255.508 96.0002 255.32 96.0002Z" fill="white"/>
<path d="M266.645 96.0002C266.458 96.0002 266.27 95.9308 266.127 95.7919L259.656 89.5052C259.37 89.2273 259.37 88.7768 259.656 88.499C259.942 88.2212 260.405 88.2212 260.691 88.499L267.163 94.7856C267.449 95.0636 267.449 95.514 267.163 95.7919C267.02 95.9307 266.832 96.0002 266.645 96.0002Z" fill="white"/>
<path d="M493.768 133.355L492.444 134.06L493.768 133.355ZM314.404 240.001L315.191 238.724L314.404 240.001ZM289.963 175.106L288.463 175.106L289.963 175.106ZM458.521 91.6701L459.591 90.6197L458.521 91.6701ZM289.963 133.355L291.455 133.206L289.963 133.355ZM275.669 106.425C274.59 107.467 274.589 107.467 274.589 107.467C274.589 107.467 274.589 107.467 274.589 107.467C274.589 107.466 274.589 107.466 274.589 107.466C274.589 107.466 274.589 107.466 274.589 107.467C274.59 107.467 274.59 107.468 274.591 107.469C274.593 107.47 274.596 107.474 274.601 107.479C274.61 107.488 274.625 107.503 274.644 107.524C274.683 107.565 274.742 107.628 274.82 107.712C274.976 107.88 275.205 108.131 275.495 108.458C276.075 109.112 276.896 110.069 277.847 111.268L280.197 109.404C279.208 108.156 278.351 107.157 277.74 106.468C277.434 106.123 277.189 105.855 277.02 105.672C276.935 105.58 276.868 105.51 276.823 105.461C276.8 105.437 276.782 105.419 276.769 105.406C276.763 105.399 276.758 105.394 276.755 105.39C276.753 105.388 276.751 105.387 276.75 105.386C276.75 105.385 276.749 105.385 276.749 105.384C276.749 105.384 276.749 105.384 276.749 105.384C276.748 105.384 276.748 105.384 276.748 105.384C276.748 105.383 276.748 105.383 275.669 106.425ZM287.516 128.72C287.98 130.311 288.311 131.914 288.47 133.504L291.455 133.206C291.275 131.405 290.903 129.621 290.396 127.881L287.516 128.72ZM288.47 133.504C288.593 134.729 288.697 135.874 288.785 136.953L291.775 136.709C291.685 135.61 291.579 134.447 291.455 133.206L288.47 133.504ZM289.138 150.691C289.069 152.84 288.959 155.047 288.847 157.63L291.844 157.761C291.955 155.203 292.067 152.96 292.137 150.788L289.138 150.691ZM288.477 171.6C288.468 172.713 288.463 173.88 288.463 175.106L291.463 175.106C291.463 173.888 291.468 172.729 291.476 171.625L288.477 171.6ZM288.463 175.106C288.463 176.497 288.463 177.864 288.465 179.206L291.465 179.201C291.463 177.862 291.463 176.497 291.463 175.106L288.463 175.106ZM288.799 195.63C288.955 198.497 289.183 201.243 289.518 203.879L292.494 203.501C292.17 200.953 291.948 198.281 291.795 195.468L288.799 195.63ZM293.763 220.063C294.91 222.62 296.304 225.059 297.997 227.396L300.426 225.637C298.858 223.471 297.566 221.212 296.5 218.835L293.763 220.063ZM310.116 238.983C311.227 239.758 312.392 240.522 313.616 241.277L315.191 238.724C314.013 237.997 312.895 237.264 311.834 236.523L310.116 238.983ZM313.616 241.277C314.769 241.989 315.913 242.626 317.046 243.188L318.38 240.502C317.334 239.982 316.271 239.391 315.191 238.724L313.616 241.277ZM331.856 246.458C334.451 246.284 336.962 245.704 339.393 244.767L338.314 241.968C336.147 242.803 333.93 243.312 331.655 243.465L331.856 246.458ZM351.929 236.354C353.656 234.683 355.341 232.836 356.986 230.837L354.67 228.931C353.086 230.855 351.478 232.616 349.843 234.197L351.929 236.354ZM365.516 218.68C366.775 216.623 368.015 214.484 369.237 212.276L366.612 210.823C365.409 212.998 364.191 215.098 362.957 217.113L365.516 218.68ZM375.945 199.169C376.988 196.987 378.02 194.764 379.042 192.51L376.31 191.271C375.295 193.509 374.271 195.713 373.238 197.876L375.945 199.169ZM384.917 179.028C385.861 176.787 386.799 174.531 387.732 172.268L384.958 171.125C384.028 173.382 383.093 175.63 382.152 177.863L384.917 179.028ZM393.258 158.69C394.175 156.422 395.088 154.161 396 151.913L393.22 150.785C392.308 153.035 391.393 155.298 390.477 157.566L393.258 158.69ZM401.573 138.367C402.526 136.096 403.48 133.858 404.435 131.659L401.683 130.464C400.723 132.676 399.764 134.926 398.807 137.205L401.573 138.367ZM410.487 118.395C411.576 116.147 412.669 113.973 413.768 111.884L411.113 110.487C409.996 112.609 408.888 114.814 407.787 117.087L410.487 118.395ZM421.148 99.4321C422.578 97.3443 424.019 95.4398 425.473 93.7384L423.193 91.7889C421.657 93.5854 420.152 95.5774 418.673 97.7368L421.148 99.4321ZM436.284 85.263C438.405 84.4379 440.557 84.1006 442.768 84.2946L443.03 81.3061C440.327 81.0689 437.714 81.4877 435.197 82.4671L436.284 85.263ZM454.755 90.1782C455.639 90.9439 456.537 91.7902 457.45 92.7204L459.591 90.6197C458.627 89.6364 457.67 88.7339 456.719 87.9106L454.755 90.1782ZM457.45 92.7204C458.606 93.8989 459.697 94.9924 460.729 96.0104L462.835 93.8747C461.816 92.8686 460.736 91.7868 459.591 90.6197L457.45 92.7204ZM474.395 108.42C476.937 110.597 478.784 112.267 480.734 114.666L483.062 112.774C480.936 110.158 478.92 108.346 476.347 106.142L474.395 108.42ZM490.26 130.004C490.945 131.262 491.671 132.611 492.444 134.06L495.091 132.649C494.315 131.193 493.585 129.836 492.895 128.569L490.26 130.004ZM492.444 134.06C493.018 135.138 493.601 136.228 494.189 137.327L496.834 135.911C496.246 134.813 495.665 133.726 495.091 132.649L492.444 134.06ZM501.241 150.388C502.414 152.545 503.599 154.719 504.792 156.9L507.424 155.461C506.232 153.282 505.048 151.11 503.876 148.955L501.241 150.388ZM511.939 169.905C513.141 172.083 514.34 174.251 515.531 176.4L518.155 174.945C516.965 172.798 515.767 170.631 514.565 168.455L511.939 169.905ZM522.742 189.367C523.974 191.574 525.183 193.737 526.362 195.846L528.98 194.381C527.801 192.273 526.593 190.111 525.362 187.905L522.742 189.367ZM533.621 208.78C534.911 211.071 536.131 213.236 537.267 215.25L539.88 213.776C538.744 211.763 537.525 209.599 536.235 207.308L533.621 208.78ZM544.58 228.171C545.164 229.2 545.618 229.998 545.925 230.538C546.079 230.809 546.196 231.014 546.275 231.153C546.314 231.222 546.344 231.274 546.364 231.309C546.374 231.327 546.382 231.34 546.387 231.349C546.389 231.353 546.391 231.357 546.392 231.359C546.393 231.36 546.393 231.361 546.394 231.361C546.394 231.362 546.394 231.362 546.394 231.362C546.394 231.362 546.394 231.362 546.394 231.362C546.394 231.362 546.394 231.362 546.394 231.362C546.394 231.362 546.394 231.362 547.697 230.619C549.001 229.877 549.001 229.877 549.001 229.877C549.001 229.877 549.001 229.877 549.001 229.877C549.001 229.877 549.001 229.877 549.001 229.877C549.001 229.876 549 229.876 549 229.876C549 229.875 548.999 229.875 548.999 229.874C548.998 229.871 548.996 229.868 548.993 229.864C548.988 229.855 548.981 229.842 548.971 229.824C548.951 229.789 548.921 229.737 548.882 229.668C548.803 229.53 548.686 229.325 548.533 229.055C548.226 228.515 547.773 227.718 547.189 226.69L544.58 228.171Z" fill="white"/>
</svg>
