<svg width="320" height="444" viewBox="0 0 320 444" fill="none" xmlns="http://www.w3.org/2000/svg">
<path d="M265.981 141.58C265.918 141.294 265.709 141.062 265.43 140.969L246.353 134.628C245.916 134.483 245.442 134.719 245.297 135.155C245.151 135.591 245.387 136.063 245.825 136.208L261.76 141.505L241.393 145.037L214.759 125.882L242.259 135.023C242.696 135.168 243.169 134.932 243.315 134.496C243.461 134.06 243.224 133.588 242.787 133.443L210.1 122.578C210.089 122.574 210.081 122.573 210.071 122.571C209.834 122.501 209.572 122.536 209.358 122.685C209.03 122.913 208.911 123.341 209.073 123.706L231.205 173.363C231.315 173.611 231.539 173.789 231.805 173.842C231.859 173.853 231.914 173.858 231.968 173.858C232.18 173.858 232.386 173.777 232.543 173.629L241.778 164.894L249.965 170.051C249.969 170.053 249.973 170.054 249.977 170.056C250.106 170.134 250.255 170.18 250.411 170.18C250.442 170.18 250.473 170.178 250.505 170.174C250.89 170.131 251.195 169.829 251.24 169.445L253.049 154.275L265.738 142.366C265.952 142.165 266.045 141.867 265.981 141.58ZM262.567 143.055L252.185 152.799L243.287 146.399L262.567 143.055ZM245.517 159.062L233.441 170.484L237.97 151.758L245.517 159.062ZM246.368 160.552L248.809 167.353L243.028 163.712L246.368 160.552ZM250.001 165.733L247.509 158.789C247.507 158.784 247.505 158.78 247.503 158.775C247.46 158.662 247.393 158.558 247.304 158.472L234.948 146.512C234.617 146.192 234.088 146.2 233.767 146.53C233.446 146.86 233.454 147.387 233.785 147.707L236.578 150.41L231.733 170.447L212.352 126.963L231.387 145.386C231.718 145.707 232.246 145.699 232.568 145.369C232.889 145.039 232.881 144.512 232.55 144.192L218.631 130.719L251.368 154.265L250.001 165.733Z" fill="white"/>
<path d="M263.322 164.662C263.108 164.662 262.894 164.581 262.731 164.418L255.354 157.062C255.028 156.736 255.028 156.209 255.354 155.884C255.68 155.559 256.209 155.559 256.535 155.884L263.912 163.241C264.238 163.566 264.238 164.093 263.912 164.418C263.749 164.581 263.535 164.662 263.322 164.662Z" fill="white"/>
<path d="M250.411 177.536C250.198 177.536 249.984 177.455 249.821 177.293L242.444 169.936C242.118 169.611 242.118 169.083 242.444 168.758C242.77 168.433 243.299 168.433 243.624 168.758L251.002 176.115C251.328 176.44 251.328 176.967 251.002 177.293C250.839 177.455 250.625 177.536 250.411 177.536Z" fill="white"/>
<path d="M263.322 177.536C263.108 177.536 262.894 177.455 262.731 177.293L255.354 169.936C255.028 169.611 255.028 169.083 255.354 168.758C255.68 168.433 256.209 168.433 256.535 168.758L263.912 176.115C264.238 176.44 264.238 176.967 263.912 177.293C263.749 177.455 263.535 177.536 263.322 177.536Z" fill="white"/>
<path d="M525.312 219.984L524.429 220.454L525.312 219.984ZM319.162 342.556L319.687 341.705L319.162 342.556ZM291.071 267.97L290.071 267.97L291.071 267.97ZM484.801 172.074L485.515 171.374L484.801 172.074ZM291.071 219.984L292.066 219.884L291.071 219.984ZM274.643 189.033C273.923 189.727 273.923 189.727 273.923 189.727C273.923 189.727 273.923 189.727 273.923 189.727C273.923 189.727 273.923 189.727 273.923 189.727C273.923 189.727 273.923 189.727 273.923 189.727C273.924 189.727 273.924 189.728 273.924 189.728C273.926 189.729 273.927 189.731 273.93 189.734C273.935 189.739 273.943 189.748 273.954 189.759C273.976 189.782 274.009 189.817 274.053 189.863C274.14 189.957 274.271 190.096 274.438 190.28C274.774 190.648 275.259 191.191 275.853 191.886L277.374 190.588C276.764 189.874 276.264 189.314 275.915 188.932C275.741 188.741 275.604 188.594 275.51 188.494C275.463 188.444 275.427 188.406 275.402 188.38C275.39 188.367 275.38 188.357 275.374 188.35C275.37 188.346 275.368 188.343 275.366 188.342C275.365 188.341 275.364 188.34 275.364 188.339C275.363 188.339 275.363 188.339 275.363 188.338C275.363 188.338 275.363 188.338 275.363 188.338C275.363 188.338 275.363 188.338 275.363 188.338C275.362 188.338 275.362 188.338 274.643 189.033ZM282.8 201.317C283.8 202.909 284.784 204.612 285.692 206.393L287.474 205.485C286.535 203.643 285.52 201.888 284.493 200.253L282.8 201.317ZM289.646 217.251C289.837 218.195 289.982 219.14 290.076 220.083L292.066 219.884C291.965 218.87 291.809 217.859 291.607 216.855L289.646 217.251ZM290.076 220.083C290.217 221.495 290.338 222.815 290.44 224.061L292.433 223.898C292.33 222.639 292.209 221.307 292.066 219.884L290.076 220.083ZM290.847 239.932C290.768 242.408 290.641 244.953 290.512 247.916L292.51 248.003C292.638 245.057 292.766 242.488 292.846 239.997L290.847 239.932ZM290.087 263.947C290.077 265.224 290.071 266.563 290.071 267.97L292.071 267.97C292.071 266.568 292.077 265.235 292.087 263.963L290.087 263.947ZM290.071 267.97C290.071 269.162 290.071 270.337 290.072 271.497L292.072 271.496C292.071 270.337 292.071 269.162 292.071 267.97L290.071 267.97ZM290.222 285.626C290.289 288.056 290.385 290.411 290.525 292.694L292.521 292.572C292.383 290.316 292.287 287.984 292.221 285.571L290.222 285.626ZM292.219 306.816C292.693 309.209 293.271 311.518 293.977 313.751L295.884 313.147C295.202 310.994 294.642 308.757 294.181 306.428L292.219 306.816ZM300.199 326.663C301.521 328.591 303.014 330.456 304.698 332.266L306.162 330.904C304.544 329.164 303.113 327.376 301.849 325.532L300.199 326.663ZM315.635 341.469C316.599 342.121 317.6 342.767 318.637 343.407L319.687 341.705C318.672 341.079 317.695 340.448 316.755 339.812L315.635 341.469ZM318.637 343.407C319.836 344.147 321.024 344.814 322.2 345.41L323.105 343.626C321.98 343.057 320.841 342.417 319.687 341.705L318.637 343.407ZM337.373 349.318C340.062 349.312 342.678 348.917 345.224 348.172L344.662 346.252C342.291 346.947 339.862 347.312 337.368 347.318L337.373 349.318ZM358.929 340.434C360.85 338.811 362.725 336.991 364.56 334.998L363.089 333.643C361.303 335.583 359.486 337.344 357.638 338.907L358.929 340.434ZM374.059 322.729C375.459 320.633 376.838 318.444 378.198 316.172L376.482 315.145C375.137 317.392 373.776 319.553 372.396 321.618L374.059 322.729ZM385.682 302.54C386.829 300.284 387.964 297.98 389.087 295.635L387.283 294.771C386.166 297.103 385.038 299.393 383.899 301.633L385.682 302.54ZM395.519 281.557C396.546 279.216 397.564 276.852 398.576 274.471L396.735 273.689C395.726 276.064 394.71 278.421 393.688 280.754L395.519 281.557ZM404.505 260.207C405.477 257.827 406.445 255.443 407.41 253.061L405.556 252.311C404.592 254.691 403.625 257.073 402.653 259.451L404.505 260.207ZM413.199 238.76C414.174 236.365 415.146 233.985 416.118 231.627L414.269 230.865C413.296 233.226 412.322 235.609 411.347 238.007L413.199 238.76ZM422.115 217.422C423.15 215.043 424.187 212.704 425.226 210.415L423.405 209.588C422.361 211.889 421.32 214.237 420.281 216.624L422.115 217.422ZM431.922 196.509C433.13 194.17 434.343 191.917 435.565 189.763L433.826 188.776C432.589 190.956 431.363 193.232 430.145 195.591L431.922 196.509ZM443.861 176.968C445.493 174.828 447.141 172.899 448.808 171.203L447.382 169.801C445.646 171.567 443.944 173.561 442.271 175.755L443.861 176.968ZM461.191 163.327C463.521 162.74 465.906 162.644 468.366 163.094L468.726 161.126C465.98 160.624 463.305 160.732 460.702 161.388L461.191 163.327ZM481.205 170.038C482.154 170.871 483.114 171.782 484.087 172.774L485.515 171.374C484.51 170.35 483.514 169.404 482.526 168.535L481.205 170.038ZM484.087 172.774C484.948 173.652 485.778 174.489 486.578 175.287L487.991 173.872C487.196 173.078 486.371 172.247 485.515 171.374L484.087 172.774ZM496.854 185.016C498.898 186.837 500.644 188.326 502.184 189.638L503.481 188.115C501.942 186.804 500.21 185.328 498.185 183.522L496.854 185.016ZM511.951 199.399C513.138 200.973 514.394 202.829 515.827 205.149L517.529 204.098C516.072 201.74 514.781 199.83 513.548 198.195L511.951 199.399ZM522.764 217.35C523.298 218.338 523.852 219.372 524.429 220.454L526.194 219.514C525.616 218.428 525.06 217.391 524.524 216.4L522.764 217.35ZM524.429 220.454C524.979 221.486 525.535 222.528 526.097 223.577L527.86 222.633C527.299 221.585 526.744 220.545 526.194 219.514L524.429 220.454ZM532.839 236.088C533.96 238.156 535.093 240.239 536.234 242.333L537.991 241.376C536.85 239.283 535.718 237.201 534.597 235.135L532.839 236.088ZM543.06 254.798C544.202 256.876 545.346 258.952 546.488 261.021L548.239 260.055C547.097 257.987 545.954 255.911 544.812 253.834L543.06 254.798ZM553.371 273.455C554.533 275.547 555.685 277.618 556.824 279.663L558.571 278.69C557.433 276.646 556.281 274.575 555.12 272.484L553.371 273.455ZM563.753 292.073C564.936 294.187 566.094 296.252 567.22 298.259L568.964 297.28C567.838 295.274 566.681 293.21 565.498 291.096L563.753 292.073ZM574.193 310.66C575.432 312.857 576.6 314.926 577.685 316.848L579.427 315.864C578.341 313.943 577.174 311.875 575.936 309.678L574.193 310.66ZM584.68 329.198C585.245 330.192 585.681 330.959 585.977 331.478C586.124 331.738 586.237 331.936 586.312 332.068C586.35 332.135 586.379 332.185 586.398 332.218C586.407 332.235 586.414 332.248 586.419 332.256C586.422 332.26 586.423 332.263 586.425 332.266C586.425 332.267 586.426 332.267 586.426 332.268C586.426 332.268 586.426 332.268 586.426 332.269C586.426 332.269 586.426 332.269 586.426 332.269C586.426 332.269 586.426 332.269 586.426 332.269C586.426 332.269 586.426 332.269 587.295 331.774C588.164 331.279 588.164 331.279 588.164 331.278C588.164 331.278 588.164 331.278 588.164 331.278C588.164 331.278 588.164 331.278 588.164 331.278C588.164 331.278 588.164 331.278 588.164 331.278C588.163 331.277 588.163 331.276 588.162 331.275C588.161 331.273 588.159 331.27 588.157 331.266C588.152 331.258 588.145 331.245 588.135 331.228C588.116 331.195 588.088 331.145 588.05 331.079C587.975 330.946 587.862 330.749 587.715 330.489C587.42 329.971 586.983 329.203 586.419 328.211L584.68 329.198Z" fill="white"/>
<path d="M101.012 114.119C101.052 113.937 101.185 113.789 101.361 113.73L113.409 109.695C113.686 109.602 113.984 109.752 114.076 110.03C114.169 110.308 114.019 110.608 113.743 110.7L103.678 114.071L116.542 116.319L133.363 104.129L115.995 109.946C115.719 110.038 115.42 109.888 115.328 109.611C115.236 109.333 115.385 109.033 115.662 108.94L136.306 102.026C136.313 102.024 136.318 102.023 136.324 102.022C136.474 101.978 136.639 102 136.774 102.094C136.982 102.24 137.057 102.512 136.955 102.744L122.976 134.344C122.907 134.502 122.766 134.615 122.598 134.649C122.563 134.656 122.529 134.659 122.495 134.659C122.361 134.659 122.231 134.608 122.132 134.514L116.299 128.955L111.128 132.236C111.125 132.238 111.123 132.238 111.12 132.239C111.039 132.289 110.945 132.318 110.846 132.318C110.827 132.318 110.807 132.317 110.787 132.315C110.544 132.287 110.351 132.095 110.323 131.851L109.18 122.197L101.166 114.619C101.031 114.491 100.972 114.301 101.012 114.119ZM103.169 115.057L109.726 121.258L115.346 117.185L103.169 115.057ZM113.937 125.244L121.564 132.512L118.704 120.595L113.937 125.244ZM113.4 126.192L111.858 130.52L115.509 128.202L113.4 126.192ZM111.105 129.489L112.679 125.07C112.68 125.067 112.682 125.064 112.683 125.061C112.71 124.989 112.752 124.923 112.809 124.868L120.613 117.257C120.821 117.054 121.155 117.059 121.358 117.269C121.561 117.479 121.556 117.814 121.347 118.018L119.583 119.738L122.643 132.488L134.883 104.817L122.861 116.541C122.653 116.745 122.319 116.74 122.116 116.53C121.913 116.32 121.918 115.984 122.127 115.781L130.918 107.207L110.242 122.191L111.105 129.489Z" fill="white"/>
<path d="M102.692 128.807C102.827 128.807 102.962 128.756 103.065 128.652L107.724 123.971C107.93 123.764 107.93 123.428 107.724 123.221C107.518 123.014 107.185 123.014 106.979 123.221L102.319 127.903C102.113 128.11 102.113 128.445 102.319 128.652C102.422 128.756 102.557 128.807 102.692 128.807Z" fill="white"/>
<path d="M110.846 137C110.981 137 111.116 136.948 111.219 136.845L115.878 132.163C116.084 131.956 116.084 131.621 115.878 131.414C115.672 131.207 115.338 131.207 115.133 131.414L110.473 136.096C110.267 136.303 110.267 136.638 110.473 136.845C110.576 136.948 110.711 137 110.846 137Z" fill="white"/>
<path d="M102.692 137C102.827 137 102.962 136.948 103.065 136.845L107.724 132.163C107.93 131.956 107.93 131.621 107.724 131.414C107.518 131.207 107.185 131.207 106.979 131.414L102.319 136.096C102.113 136.303 102.113 136.638 102.319 136.845C102.422 136.948 102.557 137 102.692 137Z" fill="white"/>
<path d="M-123.505 38.2758L-124.505 38.2758L-123.505 38.2758ZM-45.9542 122.957L-46.6681 122.257L-45.9542 122.957ZM90.0613 144.31C88.9919 144.97 87.9264 145.577 86.8646 146.134L85.9355 144.363C86.9551 143.828 87.9802 143.244 89.0111 142.608L90.0613 144.31ZM73.1108 150.725C70.6627 151.092 68.2397 151.224 65.8412 151.152L65.9012 149.153C68.1854 149.221 70.489 149.096 72.8145 148.747L73.1108 150.725ZM51.5947 148.473C49.3328 147.718 47.0937 146.826 44.8764 145.829L45.6968 144.005C47.8617 144.979 50.0383 145.845 52.2285 146.576L51.5947 148.473ZM32.2055 139.045C30.1705 137.811 28.1499 136.532 26.1437 135.232L27.2313 133.553C29.2263 134.846 31.2293 136.115 33.2425 137.335L32.2055 139.045ZM14.2444 127.366C12.2385 126.048 10.2452 124.76 8.26155 123.526L9.31783 121.828C11.3208 123.073 13.3292 124.372 15.3428 125.695L14.2444 127.366ZM-4.11323 116.719C-6.2968 115.721 -8.46656 114.863 -10.6255 114.177L-10.0203 112.271C-7.77152 112.985 -5.52577 113.875 -3.28211 114.9L-4.11323 116.719ZM-24.2738 112.482C-26.4995 112.697 -28.7257 113.182 -30.9567 113.979L-31.6295 112.095C-29.2411 111.242 -26.8533 110.722 -24.4659 110.491L-24.2738 112.482ZM-42.6664 121.2C-43.5221 121.962 -44.3801 122.781 -45.2403 123.658L-46.6681 122.257C-45.778 121.35 -44.8876 120.5 -43.9969 119.706L-42.6664 121.2ZM-45.2403 123.658C-46.1755 124.611 -47.2339 125.39 -48.3974 125.999L-49.3258 124.228C-48.3431 123.713 -47.4541 123.058 -46.6681 122.257L-45.2403 123.658ZM-63.3083 126.639C-65.5552 126.036 -67.8908 125.183 -70.2793 124.101L-69.4542 122.279C-67.1506 123.323 -64.9177 124.136 -62.79 124.707L-63.3083 126.639ZM-82.927 116.567C-84.8496 115.156 -86.7716 113.624 -88.6764 111.98L-87.3694 110.466C-85.5031 112.077 -83.6223 113.576 -81.7435 114.955L-82.927 116.567ZM-99.0633 101.642C-100.654 99.8268 -102.207 97.9336 -103.711 95.9679L-102.123 94.7524C-100.645 96.6828 -99.1204 98.5418 -97.559 100.324L-99.0633 101.642ZM-111.824 83.7608C-113.029 81.651 -114.17 79.4854 -115.238 77.2686L-113.436 76.4008C-112.389 78.5743 -111.27 80.6986 -110.087 82.7688L-111.824 83.7608ZM-120.609 63.6161C-121.325 61.2879 -121.953 58.9201 -122.484 56.5171L-120.531 56.0854C-120.012 58.4343 -119.398 60.7499 -118.697 63.0281L-120.609 63.6161ZM-124.422 41.9598C-124.477 40.7379 -124.505 39.5097 -124.505 38.2758L-122.505 38.2758C-122.505 39.4794 -122.477 40.6776 -122.424 41.8699L-124.422 41.9598ZM-124.505 38.2758C-124.505 37.1755 -124.546 35.9299 -124.626 34.5474L-122.629 34.4317C-122.547 35.8424 -122.505 37.1279 -122.505 38.2758L-124.505 38.2758ZM-126.232 19.5012C-126.557 17.1363 -126.923 14.6379 -127.326 12.0215L-125.35 11.7169C-124.945 14.3424 -124.577 16.8517 -124.25 19.2288L-126.232 19.5012ZM-129.807 -2.97109C-130.234 -5.41079 -130.68 -7.91014 -131.144 -10.4605L-129.176 -10.8185C-128.712 -8.26404 -128.264 -5.76019 -127.837 -3.31561L-129.807 -2.97109ZM-133.951 -25.423C-134.425 -27.8877 -134.911 -30.381 -135.406 -32.8965L-133.443 -33.2826C-132.948 -30.7647 -132.462 -28.2687 -131.987 -25.8012L-133.951 -25.423ZM-138.393 -47.8113C-138.898 -50.2882 -139.407 -52.7738 -139.921 -55.2625L-137.963 -55.6669C-137.448 -53.1765 -136.938 -50.689 -136.434 -48.2103L-138.393 -47.8113ZM-143.035 -70.1628C-143.562 -72.6543 -144.09 -75.1373 -144.617 -77.6059L-142.661 -78.0237C-142.134 -75.5537 -141.606 -73.0694 -141.079 -70.5765L-143.035 -70.1628ZM-147.821 -92.4672C-148.366 -94.9761 -148.908 -97.4559 -149.444 -99.8999L-147.49 -100.328C-146.954 -97.8832 -146.412 -95.4022 -145.866 -92.8922L-147.821 -92.4672ZM-152.729 -114.77C-153.294 -117.311 -153.848 -119.789 -154.387 -122.194L-152.435 -122.631C-151.896 -120.225 -151.342 -117.746 -150.776 -115.204L-152.729 -114.77ZM-157.736 -137.038C-158.339 -139.692 -158.908 -142.187 -159.437 -144.501L-157.487 -144.947C-156.958 -142.632 -156.389 -140.137 -155.786 -137.481L-157.736 -137.038ZM-162.851 -159.313C-163.125 -160.492 -163.337 -161.401 -163.481 -162.015C-163.553 -162.322 -163.607 -162.556 -163.644 -162.712C-163.662 -162.791 -163.676 -162.85 -163.685 -162.889C-163.69 -162.909 -163.694 -162.924 -163.696 -162.934C-163.697 -162.939 -163.698 -162.943 -163.699 -162.945C-163.699 -162.946 -163.699 -162.947 -163.699 -162.948C-163.699 -162.948 -163.699 -162.948 -163.699 -162.948C-163.699 -162.949 -163.699 -162.949 -163.699 -162.949C-163.699 -162.949 -163.699 -162.949 -163.699 -162.949C-163.699 -162.949 -163.699 -162.949 -162.726 -163.177C-161.752 -163.406 -161.752 -163.406 -161.752 -163.406C-161.752 -163.406 -161.752 -163.406 -161.752 -163.406C-161.752 -163.406 -161.752 -163.406 -161.752 -163.406C-161.752 -163.405 -161.752 -163.405 -161.752 -163.405C-161.752 -163.404 -161.752 -163.403 -161.751 -163.402C-161.751 -163.4 -161.75 -163.396 -161.749 -163.391C-161.746 -163.381 -161.743 -163.366 -161.738 -163.346C-161.729 -163.306 -161.715 -163.247 -161.697 -163.169C-161.66 -163.012 -161.605 -162.778 -161.533 -162.47C-161.39 -161.855 -161.177 -160.946 -160.903 -159.766L-162.851 -159.313Z" fill="white"/>
</svg>
