<svg width="20" height="20" viewBox="0 0 20 20" fill="none" xmlns="http://www.w3.org/2000/svg">
<path d="M8.80757 0C3.95121 0 0 3.95121 0 8.80758C0 13.6642 3.95121 17.6152 8.80757 17.6152C13.6642 17.6152 17.6151 13.6642 17.6151 8.80758C17.6151 3.95121 13.6642 0 8.80757 0ZM8.80757 15.9892C4.84769 15.9892 1.62601 12.7675 1.62601 8.80762C1.62601 4.84773 4.84769 1.62602 8.80757 1.62602C12.7675 1.62602 15.9891 4.8477 15.9891 8.80758C15.9891 12.7675 12.7675 15.9892 8.80757 15.9892Z" fill="white"/>
<path d="M19.7618 18.6122L15.1005 13.9509C14.7829 13.6333 14.2685 13.6333 13.9509 13.9509C13.6333 14.2683 13.6333 14.7832 13.9509 15.1005L18.6122 19.7618C18.771 19.9206 18.9789 20 19.187 20C19.3948 20 19.603 19.9206 19.7618 19.7618C20.0794 19.4445 20.0794 18.9295 19.7618 18.6122Z" fill="white"/>
</svg>
