<svg width="30" height="30" viewBox="0 0 30 30" fill="none" xmlns="http://www.w3.org/2000/svg">
<path d="M25.3125 5.625H4.6875C4.16973 5.625 3.75 6.04473 3.75 6.5625V23.4375C3.75 23.9553 4.16973 24.375 4.6875 24.375H25.3125C25.8303 24.375 26.25 23.9553 26.25 23.4375V6.5625C26.25 6.04473 25.8303 5.625 25.3125 5.625Z" stroke="#02569C" stroke-width="1.5" stroke-linecap="round" stroke-linejoin="round"/>
<path d="M3.75 19.6876L9.64957 13.788C9.73663 13.701 9.83997 13.6319 9.95372 13.5848C10.0675 13.5377 10.1894 13.5134 10.3125 13.5134C10.4356 13.5134 10.5575 13.5377 10.6712 13.5848C10.785 13.6319 10.8883 13.701 10.9754 13.788L16.2121 19.0247C16.2991 19.1117 16.4025 19.1808 16.5162 19.2279C16.63 19.275 16.7519 19.2993 16.875 19.2993C16.9981 19.2993 17.12 19.275 17.2337 19.2279C17.3475 19.1808 17.4508 19.1117 17.5379 19.0247L19.9621 16.6005C20.0491 16.5135 20.1525 16.4444 20.2662 16.3973C20.38 16.3502 20.5019 16.3259 20.625 16.3259C20.7481 16.3259 20.87 16.3502 20.9837 16.3973C21.0975 16.4444 21.2008 16.5135 21.2879 16.6005L26.25 21.5626" stroke="#02569C" stroke-width="1.5" stroke-linecap="round" stroke-linejoin="round"/>
<path d="M18.2812 12.8906C18.9285 12.8906 19.4531 12.366 19.4531 11.7188C19.4531 11.0715 18.9285 10.5469 18.2812 10.5469C17.634 10.5469 17.1094 11.0715 17.1094 11.7188C17.1094 12.366 17.634 12.8906 18.2812 12.8906Z" fill="#02569C"/>
</svg>
