<svg width="30" height="30" viewBox="0 0 30 30" fill="none" xmlns="http://www.w3.org/2000/svg">
<path d="M2.8125 7.03125H17.8125C18.8071 7.03125 19.7609 7.42634 20.4641 8.1296C21.1674 8.83286 21.5625 9.78669 21.5625 10.7812V22.0312C21.5625 22.2799 21.4637 22.5183 21.2879 22.6942C21.1121 22.87 20.8736 22.9688 20.625 22.9688H5.625C4.63044 22.9688 3.67661 22.5737 2.97335 21.8704C2.27009 21.1671 1.875 20.2133 1.875 19.2188V7.96875C1.875 7.72011 1.97377 7.48165 2.14959 7.30584C2.3254 7.13002 2.56386 7.03125 2.8125 7.03125V7.03125Z" stroke="#02569C" stroke-width="1.5" stroke-linecap="round" stroke-linejoin="round"/>
<path d="M21.5625 13.125L28.125 9.375V20.625L21.5625 16.875" stroke="#02569C" stroke-width="1.5" stroke-linecap="round" stroke-linejoin="round"/>
</svg>
