<svg width="30" height="30" viewBox="0 0 30 30" fill="none" xmlns="http://www.w3.org/2000/svg">
<path d="M17.8125 9.375V23.8733C17.8125 24.0276 17.8506 24.1796 17.9234 24.3156C17.9963 24.4517 18.1016 24.5677 18.23 24.6533L19.5181 25.5121C19.6431 25.5954 19.7863 25.6475 19.9356 25.6639C20.085 25.6803 20.2361 25.6606 20.3762 25.6065C20.5163 25.5523 20.6414 25.4652 20.7408 25.3526C20.8403 25.24 20.9112 25.1051 20.9476 24.9594L22.5 18.75" stroke="#02569C" stroke-width="1.5" stroke-linecap="round" stroke-linejoin="round"/>
<path d="M22.5 18.7499C23.7432 18.7499 24.9355 18.2561 25.8146 17.377C26.6936 16.4979 27.1875 15.3057 27.1875 14.0624C27.1875 12.8192 26.6936 11.627 25.8146 10.7479C24.9355 9.86881 23.7432 9.37495 22.5 9.37495H17.8125C17.8125 9.37495 11.4314 9.37495 5.29089 4.22484C5.15432 4.10989 4.98777 4.03633 4.81083 4.01281C4.63389 3.98929 4.4539 4.01678 4.29205 4.09206C4.1302 4.16733 3.9932 4.28726 3.89718 4.43773C3.80115 4.5882 3.75009 4.76296 3.75 4.94147V23.1834C3.75009 23.3619 3.80115 23.5367 3.89718 23.6872C3.9932 23.8376 4.1302 23.9576 4.29205 24.0328C4.4539 24.1081 4.63389 24.1356 4.81083 24.1121C4.98777 24.0886 5.15432 24.015 5.29089 23.9001C11.4314 18.7499 17.8125 18.7499 17.8125 18.7499H22.5Z" stroke="#02569C" stroke-width="1.5" stroke-linecap="round" stroke-linejoin="round"/>
</svg>
