<svg width="30" height="30" viewBox="0 0 30 30" fill="none" xmlns="http://www.w3.org/2000/svg">
<path d="M15.5169 22.3515L21.4273 26.0961C22.1828 26.5747 23.1208 25.8628 22.8966 24.9809L21.189 18.2635C21.1409 18.0764 21.1466 17.8795 21.2054 17.6955C21.2643 17.5115 21.3738 17.3478 21.5215 17.2233L26.8216 12.812C27.518 12.2323 27.1586 11.0766 26.2638 11.0185L19.3423 10.5693C19.1558 10.556 18.977 10.49 18.8267 10.379C18.6763 10.268 18.5606 10.1165 18.4929 9.94228L15.9115 3.44154C15.8413 3.2566 15.7165 3.09738 15.5537 2.98503C15.3909 2.87267 15.1978 2.8125 15 2.8125C14.8022 2.8125 14.6091 2.87267 14.4463 2.98503C14.2835 3.09738 14.1587 3.2566 14.0885 3.44154L11.5071 9.94228C11.4395 10.1165 11.3237 10.268 11.1733 10.379C11.023 10.49 10.8442 10.556 10.6577 10.5693L3.73618 11.0185C2.84144 11.0766 2.482 12.2323 3.1784 12.812L8.47848 17.2233C8.62618 17.3478 8.73575 17.5115 8.79457 17.6955C8.8534 17.8795 8.85909 18.0764 8.811 18.2635L7.22736 24.4932C6.95833 25.5514 8.08394 26.4057 8.99054 25.8313L14.4831 22.3515C14.6376 22.2531 14.8169 22.2009 15 22.2009C15.1831 22.2009 15.3624 22.2531 15.5169 22.3515V22.3515Z" stroke="#02569C" stroke-width="1.5" stroke-linecap="round" stroke-linejoin="round"/>
</svg>
