<svg width="30" height="30" viewBox="0 0 30 30" fill="none" xmlns="http://www.w3.org/2000/svg">
<path d="M25.4167 24.375H4.61539C4.38608 24.3743 4.16635 24.2829 4.00421 24.1208C3.84206 23.9586 3.75067 23.7389 3.75 23.5096V9.375H25.3125C25.5611 9.375 25.7996 9.47377 25.9754 9.64959C26.1512 9.8254 26.25 10.0639 26.25 10.3125V23.5417C26.25 23.7627 26.1622 23.9746 26.0059 24.1309C25.8496 24.2872 25.6377 24.375 25.4167 24.375V24.375Z" stroke="#02569C" stroke-width="1.5" stroke-linecap="round" stroke-linejoin="round"/>
<path d="M3.75 9.375V6.5625C3.75 6.31386 3.84877 6.0754 4.02459 5.89959C4.2004 5.72377 4.43886 5.625 4.6875 5.625H10.8617C10.9848 5.625 11.1067 5.64925 11.2204 5.69636C11.3342 5.74348 11.4375 5.81253 11.5246 5.89959L15 9.375" stroke="#02569C" stroke-width="1.5" stroke-linecap="round" stroke-linejoin="round"/>
</svg>
