<svg width="30" height="30" viewBox="0 0 30 30" fill="none" xmlns="http://www.w3.org/2000/svg">
<path d="M15 26.25C21.2132 26.25 26.25 21.2132 26.25 15C26.25 8.7868 21.2132 3.75 15 3.75C8.7868 3.75 3.75 8.7868 3.75 15C3.75 21.2132 8.7868 26.25 15 26.25Z" stroke="#02569C" stroke-width="1.5" stroke-linecap="round" stroke-linejoin="round"/>
<path d="M15 17.8125V16.875C15.7417 16.875 16.4667 16.6551 17.0834 16.243C17.7001 15.831 18.1807 15.2453 18.4645 14.5601C18.7484 13.8748 18.8226 13.1208 18.6779 12.3934C18.5332 11.666 18.1761 10.9978 17.6517 10.4734C17.1272 9.9489 16.459 9.59175 15.7316 9.44706C15.0042 9.30236 14.2502 9.37662 13.5649 9.66045C12.8797 9.94428 12.294 10.4249 11.882 11.0416C11.4699 11.6583 11.25 12.3833 11.25 13.125" stroke="#02569C" stroke-width="1.5" stroke-linecap="round" stroke-linejoin="round"/>
<path d="M15 22.7344C15.6472 22.7344 16.1719 22.2097 16.1719 21.5625C16.1719 20.9153 15.6472 20.3906 15 20.3906C14.3528 20.3906 13.8281 20.9153 13.8281 21.5625C13.8281 22.2097 14.3528 22.7344 15 22.7344Z" fill="#02569C"/>
</svg>
