<svg width="13" height="11" viewBox="0 0 13 11" fill="none" xmlns="http://www.w3.org/2000/svg">
<path d="M1.55716 5.80495H9.99506L7.41246 8.90691C7.35267 8.97885 7.30763 9.06186 7.27992 9.15121C7.2522 9.24056 7.24236 9.33449 7.25095 9.42764C7.26829 9.61577 7.35966 9.7893 7.50495 9.91006C7.65024 10.0308 7.83756 10.0889 8.02569 10.0716C8.21381 10.0542 8.38735 9.96287 8.50811 9.81757L12.0654 5.54882C12.0893 5.51487 12.1107 5.4792 12.1294 5.44211C12.1294 5.40653 12.165 5.38519 12.1792 5.34962C12.2115 5.26804 12.2284 5.18121 12.229 5.09349C12.2284 5.00578 12.2115 4.91894 12.1792 4.83737C12.1792 4.80179 12.1437 4.78045 12.1294 4.74488C12.1107 4.70778 12.0893 4.67211 12.0654 4.63816L8.50811 0.369408C8.44122 0.289096 8.35745 0.22451 8.26277 0.180242C8.16808 0.135975 8.06481 0.113113 7.96029 0.113283C7.79405 0.112958 7.63295 0.170853 7.50495 0.276918C7.43291 0.336644 7.37336 0.409996 7.32971 0.492772C7.28606 0.575548 7.25917 0.666123 7.25058 0.759307C7.24199 0.852492 7.25187 0.946456 7.27964 1.03582C7.30742 1.12518 7.35256 1.20818 7.41246 1.28007L9.99506 4.38203H1.55716C1.36847 4.38203 1.18751 4.45699 1.05408 4.59041C0.92066 4.72384 0.845703 4.9048 0.845703 5.09349C0.845703 5.28218 0.92066 5.46314 1.05408 5.59657C1.18751 5.72999 1.36847 5.80495 1.55716 5.80495Z" fill="#444444"/>
</svg>
