<svg width="15" height="9" viewBox="0 0 15 9" fill="none" xmlns="http://www.w3.org/2000/svg">
<path d="M0.00201221 1.99999C0.00155541 1.76634 0.0829305 1.5399 0.232012 1.35999C0.315961 1.25873 0.419063 1.17503 0.53541 1.11368C0.651757 1.05232 0.779063 1.01453 0.91004 1.00245C1.04102 0.990377 1.17309 1.00426 1.29869 1.0433C1.4243 1.08235 1.54096 1.14579 1.64201 1.22999L7.00201 5.70999L12.372 1.38999C12.4743 1.30692 12.592 1.24489 12.7183 1.20746C12.8447 1.17003 12.9772 1.15794 13.1082 1.17187C13.2392 1.18581 13.3662 1.22551 13.4818 1.28868C13.5975 1.35186 13.6995 1.43726 13.782 1.53999C13.873 1.64346 13.9417 1.76462 13.9837 1.89588C14.0257 2.02715 14.0401 2.16567 14.026 2.30276C14.0119 2.43986 13.9697 2.57256 13.9019 2.69254C13.8341 2.81252 13.7422 2.9172 13.632 2.99999L7.63201 7.82999C7.45308 7.97707 7.22864 8.05748 6.99701 8.05748C6.76539 8.05748 6.54094 7.97707 6.36201 7.82999L0.362013 2.82999C0.240995 2.72967 0.145331 2.60224 0.0827827 2.45803C0.0202341 2.31382 -0.00743871 2.1569 0.00201221 1.99999Z" fill="#444444"/>
</svg>
