<svg width="54" height="54" viewBox="0 0 54 54" fill="none" xmlns="http://www.w3.org/2000/svg">
<rect width="54" height="54" rx="27" fill="#E5E5E5"/>
<path d="M18 22L23 18C23 18 18 28.5 18 32" stroke="#1434E1" stroke-width="2" stroke-linecap="round" stroke-linejoin="round"/>
<path d="M27.4359 18C25.9359 18.5 24.9359 21 24.4359 23C23.9359 25 23.3441 28 25.9359 28C29.5276 28 29.0277 20 29.0277 20" stroke="#1434E1" stroke-width="2" stroke-linecap="round"/>
<path d="M34.4359 18C32.9359 18.5 31.9359 21 31.4359 23C30.9359 25 30.3441 28 32.9359 28C36.5276 28 36.0277 20 36.0277 20" stroke="#1434E1" stroke-width="2" stroke-linecap="round"/>
<path d="M22 32C22 32 27 30 33 31" stroke="#1434E1" stroke-width="2" stroke-linecap="round"/>
<path d="M34 34C25.5 33.102 19 36 19 36" stroke="#1434E1" stroke-width="2" stroke-linecap="round" stroke-linejoin="round"/>
</svg>
