<svg width="121" height="93" viewBox="0 0 121 93" fill="none" xmlns="http://www.w3.org/2000/svg">
<path d="M91.0854 12.8225H26.79V78.767H91.0854V12.8225Z" fill="url(#paint0_linear_244_25)"/>
<path d="M88.2458 16.4312H30.2549V75.9399H88.2458V16.4312Z" fill="black"/>
<path d="M38.542 31.5435V23.8316C38.542 23.7706 38.5658 23.7156 38.6015 23.6729C38.6432 23.6301 38.7027 23.6057 38.7563 23.6057H43.2987C43.3582 23.6057 43.4118 23.6301 43.4534 23.6668C43.4951 23.7095 43.5189 23.7645 43.513 23.8255V24.4789C43.513 24.5399 43.4892 24.5949 43.4534 24.6376C43.4118 24.6804 43.3582 24.7048 43.2987 24.6987H39.7088V27.3914H42.7391C42.7926 27.3914 42.8462 27.4158 42.8879 27.4525C42.9296 27.4952 42.9534 27.5502 42.9534 27.6112V28.2523C42.9534 28.3073 42.9296 28.3623 42.8879 28.405C42.8522 28.4477 42.7986 28.4722 42.7391 28.4722H39.7088V31.5374C39.7088 31.5923 39.685 31.6473 39.6433 31.69C39.6076 31.7327 39.554 31.7572 39.4945 31.7572H38.7623C38.7027 31.7572 38.6492 31.7328 38.6075 31.6961C38.5658 31.6595 38.542 31.5984 38.542 31.5435Z" fill="white"/>
<path d="M58.3008 31.5435V23.8316C58.3008 23.7767 58.3246 23.7217 58.3603 23.679C58.4019 23.6301 58.4554 23.6057 58.5149 23.6057H59.2585C59.3179 23.6057 59.3715 23.6301 59.4131 23.6729C59.4488 23.7156 59.4726 23.7645 59.4726 23.8255V31.5374C59.4726 31.5923 59.4488 31.6473 59.4131 31.69C59.3715 31.7327 59.3179 31.7572 59.2585 31.7572H58.5209C58.4614 31.7572 58.4079 31.7327 58.3662 31.69C58.3305 31.6534 58.3067 31.5984 58.3008 31.5435Z" fill="white"/>
<path d="M75.5356 31.5435V24.7048H73.6841C73.6246 24.7048 73.571 24.6803 73.5294 24.6437C73.4877 24.601 73.4639 24.546 73.4639 24.4911V23.8377C73.4639 23.7767 73.4877 23.7217 73.5234 23.679C73.5651 23.6362 73.6187 23.6118 73.6782 23.6118H78.5599C78.6194 23.6118 78.673 23.6362 78.7147 23.6729C78.7563 23.7156 78.7801 23.7706 78.7742 23.8316V24.485C78.7742 24.546 78.7504 24.601 78.7147 24.6437C78.673 24.6864 78.6194 24.7109 78.5599 24.7048H76.7084V31.5435C76.7084 31.5984 76.6846 31.6534 76.6489 31.6961C76.6132 31.7389 76.5596 31.7694 76.5 31.7694H75.744C75.6844 31.7694 75.6309 31.745 75.5892 31.7022C75.5594 31.6534 75.5356 31.5984 75.5356 31.5435Z" fill="white"/>
<path d="M36.7022 50.8139C36.6308 50.82 36.5593 50.7833 36.5117 50.7223C36.4701 50.6612 36.4701 50.5757 36.5117 50.5147L39.9944 42.6746C40.0301 42.5952 40.1015 42.5464 40.1849 42.5464H40.298C40.3814 42.5464 40.4587 42.5952 40.4885 42.6746L43.9533 50.5208C43.995 50.5818 43.995 50.6673 43.9533 50.7284C43.9116 50.7894 43.8402 50.8261 43.7628 50.82H43.0544C42.9353 50.82 42.8341 50.7467 42.7924 50.6368L42.084 49.0431H38.3632C38.2858 49.2202 38.1667 49.4889 38.006 49.843C37.8453 50.1972 37.7262 50.4597 37.6488 50.6429C37.6131 50.7589 37.5059 50.8322 37.3869 50.8261L36.7022 50.8139ZM38.8097 48.0418H41.6494L40.2504 44.8483H40.1908L38.8097 48.0418Z" fill="white"/>
<path d="M55.6992 50.594V42.7539C55.6992 42.699 55.723 42.644 55.7588 42.6074C55.8004 42.5647 55.86 42.5402 55.9195 42.5463H56.2052L61.1286 48.3959H61.1405V42.8883C61.1405 42.8272 61.1643 42.7723 61.2001 42.7295C61.2417 42.6868 61.2953 42.6624 61.3548 42.6685H62.0811C62.1347 42.6685 62.1883 42.6929 62.23 42.7356C62.2716 42.7723 62.2955 42.8272 62.2955 42.8883V50.7283C62.2955 50.7833 62.2716 50.8383 62.2359 50.8749C62.1942 50.9176 62.1407 50.9421 62.0811 50.9359H61.7894L56.8601 44.9277H56.8482V50.6001C56.8482 50.6612 56.8244 50.7161 56.7887 50.7589C56.747 50.8016 56.6934 50.826 56.6339 50.8199H55.9195C55.86 50.8199 55.8064 50.7955 55.7647 50.7528C55.729 50.7039 55.7052 50.649 55.6992 50.594Z" fill="white"/>
<path d="M73.1181 50.472V42.7602C73.1181 42.6991 73.1419 42.6441 73.1776 42.6014C73.2133 42.5587 73.2669 42.5342 73.3205 42.5342H75.934C76.9937 42.5159 78.0117 42.9494 78.7499 43.731C79.5119 44.482 79.9346 45.5201 79.9227 46.6008C79.9405 47.6877 79.5119 48.7318 78.7499 49.4889C78.0117 50.2705 76.9937 50.704 75.934 50.6918H73.3205C73.2669 50.6918 73.2133 50.6674 73.1776 50.6308C73.136 50.5941 73.1121 50.5331 73.1181 50.472ZM74.273 49.5927H75.7733C76.5472 49.6172 77.2973 49.3119 77.839 48.7501C78.3867 48.1823 78.6785 47.4129 78.6546 46.613C78.6785 45.8193 78.3808 45.056 77.839 44.4943C77.2913 43.9325 76.5472 43.6272 75.7733 43.6577H74.273V49.5927Z" fill="white"/>
<path d="M37.1963 68.8936C37.1368 68.802 37.1427 68.6799 37.2201 68.6005L37.6309 68.1426C37.7142 68.0449 37.8571 68.0388 37.9524 68.1243C37.9643 68.1365 37.9762 68.1487 37.9881 68.167C38.2084 68.4662 38.5536 68.6494 38.9168 68.6677C39.2264 68.6738 39.5181 68.5395 39.7205 68.3013C39.9646 67.996 40.0896 67.6053 40.0598 67.2084V61.6886C40.0598 61.6275 40.0836 61.5725 40.1194 61.5298C40.161 61.481 40.2206 61.4626 40.2861 61.4626H41.0362C41.0957 61.4626 41.1493 61.4871 41.191 61.5237C41.2326 61.5665 41.2564 61.6214 41.2505 61.6825V67.1839C41.2862 67.8739 41.054 68.5456 40.5956 69.0524C40.1551 69.5103 39.5478 69.7545 38.9228 69.7362C38.25 69.7606 37.6071 69.4431 37.1963 68.8936Z" fill="white"/>
<path d="M55.7705 68.6494C54.9966 67.8678 54.5679 66.7932 54.5918 65.6758C54.5739 64.5645 55.0025 63.4899 55.7765 62.7083C56.5325 61.9023 57.5744 61.4505 58.6638 61.4688C59.7533 61.4505 60.807 61.8962 61.563 62.7083C62.337 63.4899 62.7716 64.5584 62.7537 65.6758C62.7775 66.7932 62.3429 67.8618 61.563 68.6433C60.801 69.4432 59.7533 69.8828 58.6698 69.8584C57.5803 69.8828 56.5325 69.4432 55.7705 68.6494ZM56.5861 63.5326C56.0265 64.0944 55.711 64.8698 55.7229 65.6758C55.711 66.4757 56.0265 67.245 56.5861 67.8068C57.1279 68.3807 57.8839 68.7044 58.6638 68.6922C59.4496 68.7044 60.1997 68.3869 60.7475 67.8068C61.313 67.2511 61.6285 66.4818 61.6166 65.6758C61.6285 64.8698 61.313 64.0944 60.7475 63.5326C60.2057 62.9525 59.4496 62.6289 58.6638 62.635C57.8839 62.6289 57.1279 62.9525 56.5861 63.5326Z" fill="white"/>
<path d="M75.8752 69.4064V65.7001L73.2141 61.8106C73.1724 61.7434 73.1664 61.6579 73.2022 61.5847C73.2438 61.5114 73.3212 61.4626 73.4046 61.4748H74.238C74.3095 61.4809 74.375 61.5175 74.4166 61.5786L76.4765 64.5522L78.5304 61.5786C78.572 61.5175 78.6375 61.4748 78.709 61.4748H79.5603C79.6436 61.4687 79.7151 61.5114 79.7567 61.5847C79.7925 61.6579 79.7925 61.7434 79.7448 61.8106L77.0599 65.6879V69.4064C77.0599 69.4614 77.0361 69.5163 76.9944 69.5591C76.9587 69.6018 76.9051 69.6262 76.8456 69.6262H76.0955C76.0359 69.6262 75.9823 69.6018 75.9407 69.5652C75.899 69.5224 75.8752 69.4675 75.8752 69.4064Z" fill="white"/>
<defs>
<linearGradient id="paint0_linear_244_25" x1="75.7345" y1="22.7265" x2="40.3533" y2="68.9559" gradientUnits="userSpaceOnUse">
<stop stop-color="#FF5287"/>
<stop offset="1" stop-color="#5446FF"/>
</linearGradient>
</defs>
</svg>
