<svg width="32" height="32" viewBox="0 0 32 32" fill="none" xmlns="http://www.w3.org/2000/svg">
<path d="M11.5912 23.4456C11.5177 23.4456 11.4398 23.4279 11.375 23.388L5.21625 19.748C5.08217 19.6683 5 19.5222 5 19.3627V12.0827C5 11.9233 5.08217 11.7772 5.21625 11.6975L11.375 8.05746C11.509 7.97775 11.6734 7.97775 11.8074 8.05746L17.9662 11.6975C18.1737 11.8215 18.2429 12.0916 18.1262 12.3041C18.0051 12.5167 17.7413 12.5875 17.5337 12.468L11.5912 8.95639L5.86499 12.3396V19.1103L11.5912 22.4935L15.0901 20.4255C15.2977 20.3015 15.5615 20.3768 15.6826 20.5894C15.8037 20.8019 15.7302 21.072 15.5226 21.196L11.8074 23.3924C11.7382 23.4279 11.6647 23.4456 11.5912 23.4456Z" fill="white"/>
<path d="M11.5915 16.1879C11.518 16.1879 11.4402 16.1702 11.3753 16.1303L5.21658 12.4903C5.00899 12.3663 4.93979 12.0962 5.05656 11.8836C5.17766 11.6711 5.44148 11.6002 5.64908 11.7242L11.5915 15.2402L15.3888 13.0483C15.5964 12.9287 15.8602 13.004 15.977 13.2165C16.0938 13.4291 16.0203 13.6992 15.8127 13.8188L11.7991 16.1347C11.7386 16.1702 11.6651 16.1879 11.5915 16.1879Z" fill="white"/>
<path d="M11.5917 23.4413C11.3538 23.4413 11.1592 23.2421 11.1592 22.9985V15.7451C11.1592 15.5015 11.3538 15.3022 11.5917 15.3022C11.8295 15.3022 12.0242 15.5015 12.0242 15.7451V22.9985C12.0242 23.2465 11.8295 23.4413 11.5917 23.4413Z" fill="white"/>
<path d="M21.4086 25C21.3351 25 21.2572 24.9823 21.1923 24.9425L15.0336 21.3025C14.8996 21.2227 14.8174 21.0766 14.8174 20.9172V13.6372C14.8174 13.4778 14.8996 13.3316 15.0336 13.2519L21.1923 9.61191C21.3264 9.5322 21.4908 9.5322 21.6248 9.61191L27.7835 13.2519C27.9176 13.3316 27.9998 13.4778 27.9998 13.6372V20.9172C27.9998 21.0766 27.9176 21.2227 27.7835 21.3025L21.6248 24.9425C21.56 24.9823 21.4864 25 21.4086 25ZM15.6867 20.6648L21.4129 24.048L27.1391 20.6648V13.894L21.4086 10.5108L15.6824 13.894V20.6648H15.6867Z" fill="white"/>
<path d="M21.4089 17.7422C21.3354 17.7422 21.2575 17.7245 21.1927 17.6846L15.034 14.0446C14.8264 13.9206 14.7572 13.6505 14.8739 13.438C14.995 13.2254 15.2589 13.1546 15.4665 13.2741L21.4089 16.7857L27.3514 13.2741C27.559 13.1501 27.8228 13.2254 27.9439 13.438C28.065 13.6505 27.9915 13.9206 27.7839 14.0446L21.6252 17.6846C21.5603 17.7245 21.4868 17.7422 21.4089 17.7422Z" fill="white"/>
<path d="M21.4091 25C21.1712 25 20.9766 24.8007 20.9766 24.5571V17.2993C20.9766 17.0557 21.1712 16.8564 21.4091 16.8564C21.6469 16.8564 21.8415 17.0557 21.8415 17.2993V24.5527C21.8415 24.8007 21.6513 25 21.4091 25Z" fill="white"/>
<circle cx="16" cy="16" r="15.25" stroke="white" stroke-width="1.5"/>
<path d="M27.5 5L6 27.5" stroke="white" stroke-width="1.5"/>
</svg>
