<svg width="32" height="32" viewBox="0 0 32 32" fill="none" xmlns="http://www.w3.org/2000/svg">
<circle cx="16" cy="16" r="15.25" stroke="white" stroke-width="1.5"/>
<path d="M23.629 11.3424L23.629 11.3424C24.586 11.3507 25.3836 12.1028 25.445 13.0563C25.445 13.0563 25.445 13.0563 25.445 13.0563L25.3452 13.0628M23.629 11.3424L24.8924 14.3575C25.216 14.0087 25.3769 13.5488 25.3452 13.0628M23.629 11.3424L19.0165 11.3036M23.629 11.3424L19.8403 9.02186M25.3452 13.0628C25.2872 12.1618 24.533 11.4502 23.6281 11.4424L18.9689 11.4032C18.9849 11.37 19.0008 11.3368 19.0165 11.3036M25.3452 13.0628L12.2827 23.7074M21.8706 23.6801C22.7528 23.6044 23.4592 22.8944 23.5105 21.9954C23.5391 21.4961 23.3752 21.0188 23.0477 20.6492C23.6674 20.3936 24.1152 19.8024 24.1557 19.0935C24.1843 18.5943 24.0204 18.117 23.6925 17.7476C24.3123 17.4921 24.7598 16.9008 24.8005 16.1921L24.8005 16.192C24.8289 15.6974 24.6683 15.2243 24.3468 14.8561L21.862 23.5805M21.8706 23.6801C21.8706 23.6801 21.8705 23.6802 21.8705 23.6802L21.862 23.5805M21.8706 23.6801C21.8706 23.6801 21.8706 23.6801 21.8707 23.6801L21.862 23.5805M21.8706 23.6801C21.8137 23.6851 21.7567 23.6872 21.699 23.6867L21.6989 23.6867L13.5092 23.6178L13.509 23.6178C13.1741 23.6145 12.8745 23.4583 12.6713 23.2166M21.862 23.5805C21.8085 23.5852 21.7546 23.5871 21.6998 23.5867L13.51 23.5178C13.1944 23.5147 12.9119 23.3618 12.7262 23.1256C12.7084 23.1562 12.6902 23.1866 12.6713 23.2166M12.6713 23.2166C12.561 23.3922 12.4315 23.5569 12.2827 23.7074M12.6713 23.2166C12.6484 23.1893 12.6267 23.161 12.6063 23.1316C12.4956 23.3131 12.364 23.4829 12.2116 23.6371C11.7594 24.0952 11.1786 24.369 10.5553 24.4226M12.2827 23.7074C11.8142 24.182 11.2114 24.4665 10.564 24.5222M12.2827 23.7074L10.564 24.5222M10.5553 24.4226C10.473 24.4298 10.3899 24.4328 10.3064 24.4322C8.80892 24.4198 7.58622 23.1516 7.58048 21.6057L7.54577 12.0683C7.5431 11.3131 7.82919 10.6059 8.35181 10.0764C8.86381 9.55792 9.54055 9.27552 10.257 9.28167M10.5553 24.4226L10.564 24.5222M10.5553 24.4226L10.5638 24.5222L10.564 24.5222M10.257 9.28167C11.3432 9.29079 12.2846 9.96042 12.7222 10.9176C12.7441 10.8871 12.7669 10.8571 12.7906 10.8279M10.257 9.28167L10.2578 9.18167C11.3675 9.19099 12.3289 9.86385 12.7906 10.8279M10.257 9.28167L16.5165 7.18097M12.7906 10.8279C12.8068 10.8617 12.8224 10.8958 12.8373 10.9302C12.9725 10.7537 13.1407 10.6016 13.3364 10.4841L13.3354 10.4823L13.3401 10.4798L13.3392 10.478L13.2953 10.3922M12.7906 10.8279C12.9299 10.6561 13.0997 10.5079 13.2953 10.3922M13.2953 10.3922C13.322 10.3763 13.3492 10.3611 13.3769 10.3465L13.3817 10.344L13.3918 10.3387M13.2953 10.3922L13.2942 10.39L13.3816 10.3439C13.385 10.3422 13.3883 10.3404 13.3918 10.3387M13.3918 10.3387C13.4149 10.3271 13.4403 10.3163 13.4678 10.3061M13.3918 10.3387L13.4647 10.3003L13.4678 10.3061M13.4678 10.3061L13.5116 10.3877L13.5125 10.3893L13.5172 10.3869L13.5205 10.3933C13.6567 10.3458 13.8653 10.3054 14.1776 10.2469C14.4301 10.1998 14.8514 10.1208 14.9453 10.0661C15.6206 9.5465 15.952 8.75782 16.303 7.92255L16.3035 7.92134C16.4 7.69093 16.5002 7.45251 16.6072 7.22324M13.4678 10.3061C13.528 10.2837 13.5987 10.2641 13.6799 10.2449C13.8049 10.2155 13.9629 10.1854 14.1592 10.1486L14.1593 10.1486C14.2857 10.125 14.4527 10.0937 14.5996 10.0617C14.6731 10.0456 14.7403 10.0296 14.7943 10.0145C14.8456 10.0002 14.8767 9.98884 14.8907 9.98201C15.5374 9.48102 15.859 8.72089 16.2113 7.8826C16.3077 7.65248 16.4086 7.41229 16.5165 7.18097M16.6072 7.22324C16.931 6.52896 17.4478 5.5753 18.196 5.30759M16.6072 7.22324L16.5166 7.18094C16.5166 7.18095 16.5166 7.18096 16.5165 7.18097M16.6072 7.22324L16.5165 7.18097M18.196 5.30759C18.5214 5.19113 18.8536 5.21456 19.1838 5.377C20.4848 6.01716 19.9461 8.18256 19.7432 8.99773M18.196 5.30759L18.1623 5.21344C18.1623 5.21344 18.1623 5.21344 18.1623 5.21344C18.515 5.08721 18.8753 5.11376 19.228 5.28727L19.228 5.28728C19.9319 5.63366 20.1248 6.38808 20.1275 7.12138C20.1301 7.85738 19.9422 8.6125 19.8408 9.01951L19.8403 9.02186M18.196 5.30759L19.8403 9.02186M19.7432 8.99773C19.5533 9.76178 19.2722 10.535 18.9062 11.3027L19.0165 11.3036M19.7432 8.99773L19.8403 9.02188M19.7432 8.99773L19.8403 9.02186M19.0165 11.3036C19.3753 10.5442 19.652 9.77897 19.8403 9.02188M19.8403 9.02188C19.8403 9.02188 19.8403 9.02187 19.8403 9.02186M19.8403 9.02188L19.8403 9.02186M8.79103 10.524C9.13923 10.1715 9.58457 9.96175 10.0616 9.92077L10.0617 9.92076C10.1243 9.91532 10.1877 9.91301 10.2518 9.91358L10.2519 9.91358C11.4064 9.92338 12.356 10.9057 12.3602 12.1105L12.3602 12.1105L12.3952 21.6473L12.3952 21.6473C12.3976 22.2331 12.176 22.7808 11.7718 23.1902L11.7718 23.1902C11.3781 23.5891 10.8596 23.8053 10.3109 23.8009C9.15637 23.7911 8.20688 22.8087 8.2023 21.604C8.2023 21.604 8.2023 21.604 8.2023 21.604L8.16731 12.0669C8.16516 11.4808 8.38678 10.9334 8.79103 10.524ZM8.79103 10.524L8.71988 10.4538M8.79103 10.524L8.71988 10.4538M8.71988 10.4538C8.29671 10.8823 8.06507 11.4552 8.06731 12.0673L8.1023 21.6043C8.10707 22.8606 9.09759 23.8906 10.3101 23.9009L10.053 9.82113C9.55178 9.8642 9.08441 10.0847 8.71988 10.4538ZM23.0345 14.2449L23.0345 14.2449L23.6901 14.2505C23.9761 14.2528 24.2415 14.1376 24.4392 13.9244C24.6428 13.7048 24.7446 13.414 24.7245 13.1033C24.6877 12.5321 24.2048 12.0789 23.6237 12.0743L23.6236 12.0743L17.997 12.0271L17.8331 12.0257L17.9092 11.8806L18.1127 11.4928L18.1128 11.4928C18.5767 10.6101 18.9219 9.71855 19.1398 8.84301L19.2369 8.86717L19.1398 8.84301C19.2272 8.49191 19.3838 7.86154 19.4062 7.26451C19.4174 6.96597 19.3946 6.68275 19.3171 6.45001C19.2401 6.21894 19.1115 6.04358 18.9127 5.94576L18.9126 5.94573C18.7861 5.8834 18.6695 5.85978 18.5576 5.86944C18.5576 5.86945 18.5576 5.86945 18.5575 5.86945L23.0345 14.2449ZM23.0345 14.2449L20.1754 14.2209L20.0753 14.2201M23.0345 14.2449L20.0753 14.2201M20.0753 14.2201L20.0746 14.3202M20.0753 14.2201L20.0746 14.3202M20.0746 14.3202L20.0709 14.8518L20.0702 14.9517M20.0746 14.3202L20.0702 14.9517M20.0702 14.9517L20.1701 14.9525M20.0702 14.9517L20.1701 14.9525M20.1701 14.9525L23.0292 14.9764L23.0292 14.9764M20.1701 14.9525L23.0292 14.9764M23.0292 14.9764C23.3163 14.9787 23.5851 15.0994 23.7866 15.3187L23.7867 15.3187M23.0292 14.9764L23.7867 15.3187M23.7867 15.3187C23.9935 15.5435 24.0977 15.8379 24.0799 16.1488C24.0474 16.7149 23.572 17.1567 22.9946 17.1517L22.9946 17.1517M23.7867 15.3187L22.9946 17.1517M22.9946 17.1517L22.3899 17.1467L19.6617 17.1238L19.5616 17.1229L19.5609 17.2231L19.5572 17.7547L19.5565 17.8545L19.6564 17.8553L22.384 17.8783L22.9946 17.1517ZM19.2472 20.1274L21.7434 20.1485L22.3486 20.1536C22.9779 20.1589 23.499 19.6771 23.5346 19.0564C23.5539 18.719 23.4407 18.3982 23.2151 18.1528M19.2472 20.1274L23.2151 18.1528M19.2472 20.1274L19.2472 20.1273L19.1472 20.1266M19.2472 20.1274L19.1472 20.1266M23.2151 18.1528L23.1415 18.2205C23.1415 18.2205 23.1415 18.2205 23.1415 18.2205L23.2151 18.1528ZM13.0204 22.4696L13.1204 22.4693C13.1204 22.4692 13.1204 22.4692 13.1204 22.4692M13.0204 22.4696L13.1204 22.4692M13.0204 22.4696L12.9822 12.056M13.0204 22.4696L12.9822 12.056M13.1204 22.4692L13.0822 12.0557L13.0822 12.0556C13.0805 11.6058 13.3219 11.2006 13.7099 10.9962M13.1204 22.4692L12.9822 12.056M12.9822 12.056C12.9804 11.5698 13.2416 11.1299 13.6633 10.9077M13.6633 10.9077L13.7098 10.9963L13.7099 10.9962M13.6633 10.9077L13.7099 10.9962M13.6633 10.9077L13.6683 10.9051M13.7099 10.9962L13.7133 10.9944M13.7133 10.9944C13.7131 10.9945 13.7128 10.9946 13.7126 10.9948L13.6683 10.9051M13.7133 10.9944C13.7212 10.9907 13.7447 10.9828 13.7876 10.9717C13.8289 10.961 13.8806 10.9493 13.9377 10.9373C14.0519 10.9132 14.184 10.8885 14.2903 10.8687L14.2904 10.8687C14.5702 10.8163 14.784 10.774 14.9462 10.7306C15.107 10.6876 15.2288 10.6407 15.3168 10.5731M13.7133 10.9944L13.7147 10.9937L13.6683 10.9051M13.6683 10.9051C13.7391 10.8701 14.0597 10.8099 14.272 10.7704C14.8327 10.6654 15.1124 10.604 15.2559 10.4938L15.3168 10.5731C15.3168 10.5731 15.3168 10.5731 15.3168 10.5731M15.3168 10.5731C16.1269 9.95173 16.5113 9.03655 16.8714 8.17942L16.8754 8.16988L16.8754 8.16986L16.8777 8.16439C16.972 7.93997 17.0685 7.71059 17.1693 7.4944L17.0786 7.45214L17.1693 7.49439C17.251 7.31914 17.4135 6.97087 17.6326 6.63901C17.8549 6.30226 18.1213 6.00467 18.403 5.9039L15.3168 10.5731ZM19.1472 20.1266L19.1464 20.2266L19.1465 20.2266M19.1472 20.1266L19.1465 20.2266M19.1465 20.2266L19.1435 20.6582L19.1465 20.2266ZM21.7388 20.7801C21.7388 20.7801 21.7388 20.7801 21.7389 20.7801L21.7397 20.6801L21.7388 20.7801ZM22.5699 21.0547L22.4963 21.1223C22.4963 21.1224 22.4963 21.1224 22.4964 21.1224L22.5699 21.0547ZM13.5149 22.8868C13.5149 22.8868 13.5149 22.8868 13.5148 22.8868L13.514 22.9868L13.5149 22.8868Z" fill="white" stroke="white" stroke-width="0.2"/>
</svg>
