<svg width="91" height="90" viewBox="0 0 91 90" fill="none" xmlns="http://www.w3.org/2000/svg">
<circle cx="45.5" cy="44.9999" r="44.5" stroke="white"/>
<path d="M67.1435 56.1874C63.4701 55.5268 60.6444 53.9224 58.6664 51.3743C56.6884 48.8261 55.6033 45.7606 55.411 42.1777C55.8387 42.3458 56.3088 42.471 56.8213 42.5532C57.3343 42.7208 57.8895 42.8028 58.4868 42.7992C60.9615 42.7843 62.8768 42.0048 64.2329 40.4606C65.6743 38.9159 66.3881 36.9916 66.3742 34.6876C66.3588 32.1277 65.5782 30.0417 64.0325 28.4296C62.4873 26.9029 60.4774 26.1469 58.0028 26.1618C55.5281 26.1767 53.4429 27.0853 51.747 28.8875C50.1365 30.6892 49.342 33.382 49.3636 36.966C49.3939 42.0006 50.1446 46.2201 51.6158 49.6247C53.0869 53.0292 55.1506 55.6195 57.8066 57.3956C60.5485 59.2564 63.6698 60.347 67.1705 60.6673L67.1435 56.1874ZM44.3599 56.3244C40.7719 55.6633 37.9462 54.059 35.8828 51.5113C33.9048 48.9632 32.8197 45.8976 32.6275 42.3147C33.0551 42.4828 33.5252 42.608 34.0377 42.6903C34.6361 42.8573 35.2339 42.9391 35.8312 42.9355C38.2205 42.9211 40.0932 42.1418 41.4493 40.5976C42.8054 39.0535 43.4765 37.1294 43.4626 34.8254C43.4472 32.2655 42.6667 30.1795 41.1209 28.5674C39.6611 27.0402 37.6938 26.284 35.2192 26.2989C32.7446 26.3137 30.6593 27.2223 28.9635 29.0245C27.2676 30.8268 26.4305 33.5198 26.452 37.1038C26.4823 42.1384 27.233 46.3579 28.7042 49.7625C30.2607 53.1665 32.367 55.7565 35.023 57.5326C37.6796 59.394 40.8009 60.4846 44.3869 60.8043L44.3599 56.3244Z" fill="white"/>
</svg>
