<?xml version="1.0" encoding="UTF-8"?>
<!DOCTYPE svg PUBLIC "-//W3C//DTD SVG 1.1//EN" "http://www.w3.org/Graphics/SVG/1.1/DTD/svg11.dtd">
<!-- Creator: CorelDRAW X6 -->
<svg xmlns="http://www.w3.org/2000/svg" xml:space="preserve" width="25px" height="17px" version="1.1" style="shape-rendering:geometricPrecision; text-rendering:geometricPrecision; image-rendering:optimizeQuality; fill-rule:evenodd; clip-rule:evenodd"
viewBox="0 0 2232 1569"
 xmlns:xlink="http://www.w3.org/1999/xlink">
 <defs>
  <style type="text/css">
   <![CDATA[
    .fil0 {fill:#FEFEFE}
   ]]>
  </style>
 </defs>
 <g id="Layer_x0020_1">
  <metadata id="CorelCorpID_0Corel-Layer"/>
  <path class="fil0" d="M369 1c-146,11 -247,90 -302,174 -83,128 -66,238 -66,409 0,158 0,316 0,474 0,74 -5,154 15,223 17,62 50,118 84,154 34,39 77,73 136,100 69,30 122,33 204,33l1188 0c74,0 162,3 235,-1 145,-10 246,-91 301,-173 84,-126 66,-242 66,-410 0,-157 0,-315 0,-473 0,-77 6,-152 -14,-224 -17,-64 -48,-116 -84,-154 -33,-38 -74,-73 -135,-100 -71,-31 -121,-32 -206,-32l-1306 0c-37,0 -80,-2 -116,0l0 0zm519 1033l1 40c16,1 85,-42 106,-52 7,-3 11,-4 17,-9 7,-4 14,-5 19,-9l69 -37c7,-3 10,-6 17,-9l158 -85c22,-11 65,-37 85,-46 8,-4 12,-6 19,-9 7,-4 8,-7 16,-10l35 -19c8,-3 12,-4 16,-12 -8,-10 -140,-75 -169,-91l-57 -31c-11,-5 -21,-8 -30,-14 -10,-5 -20,-11 -28,-15 -17,-9 -42,-20 -58,-29l-55 -30c-34,-16 -79,-43 -116,-60l-28 -16c-16,-9 -16,2 -16,18l-1 525 0 0z"/>
 </g>
</svg>
