<?xml version="1.0" encoding="UTF-8"?>
<!DOCTYPE svg PUBLIC "-//W3C//DTD SVG 1.1//EN" "http://www.w3.org/Graphics/SVG/1.1/DTD/svg11.dtd">
<!-- Creator: CorelDRAW X6 -->
<svg xmlns="http://www.w3.org/2000/svg" xml:space="preserve" width="17px" height="18px" version="1.1" style="shape-rendering:geometricPrecision; text-rendering:geometricPrecision; image-rendering:optimizeQuality; fill-rule:evenodd; clip-rule:evenodd"
viewBox="0 0 219 221"
 xmlns:xlink="http://www.w3.org/1999/xlink">
 <defs>
  <style type="text/css">
   <![CDATA[
    .fil0 {fill:#FEFEFE}
   ]]>
  </style>
 </defs>
 <g id="Layer_x0020_1">
  <metadata id="CorelCorpID_0Corel-Layer"/>
  <path class="fil0" d="M23 220c-8,-1 -13,-5 -17,-10 -4,-5 -6,-12 -6,-22 0,-14 0,-157 1,-164 1,-8 5,-14 9,-17 6,-5 12,-7 21,-7 15,0 158,-1 164,1 17,2 24,16 24,31 0,15 0,157 -1,165 -1,8 -5,13 -10,17 -5,5 -11,7 -21,7 -14,0 -157,0 -164,-1l0 0zm21 -89l-18 0c0,-16 0,-32 0,-48 0,-15 -1,-32 0,-47 0,-7 5,-11 12,-11l143 0c8,0 13,4 13,11 0,4 0,91 0,95l-20 0c1,-10 6,-16 2,-35 -2,-10 -7,-20 -13,-27 -36,-47 -108,-28 -120,26 -4,15 -1,22 1,36l0 0zm59 24c-23,-4 -42,-25 -38,-52 3,-22 25,-41 51,-37 22,3 42,25 38,51 -4,22 -25,42 -51,38zm58 40c-5,-2 -7,-6 -7,-13 0,-13 -3,-27 14,-27 14,0 26,-3 26,14 0,14 3,27 -14,27 -4,0 -16,1 -19,-1z"/>
 </g>
</svg>
