<?xml version="1.0" encoding="UTF-8"?>
<!DOCTYPE svg PUBLIC "-//W3C//DTD SVG 1.1//EN" "http://www.w3.org/Graphics/SVG/1.1/DTD/svg11.dtd">
<!-- Creator: CorelDRAW X6 -->
<svg xmlns="http://www.w3.org/2000/svg" xml:space="preserve" width="138.908mm" height="144.791mm" version="1.1" style="shape-rendering:geometricPrecision; text-rendering:geometricPrecision; image-rendering:optimizeQuality; fill-rule:evenodd; clip-rule:evenodd"
viewBox="0 0 972102 1013275"
 xmlns:xlink="http://www.w3.org/1999/xlink">
 <defs>
  <style type="text/css">
   <![CDATA[
    .fil1 {fill:#FEFEFE}
    .fil0 {fill:#FEFEFE;fill-rule:nonzero}
   ]]>
  </style>
 </defs>
 <g id="Layer_x0020_1">
  <metadata id="CorelCorpID_0Corel-Layer"/>
  <path class="fil0" d="M38470 234021c46550,-72909 110059,-131411 183530,-171671 73522,-40288 157011,-62350 243464,-62350 139903,0 266562,56708 358246,148392 91684,91684 148392,218344 148392,358246 0,139902 -56708,266562 -148392,358245 -91684,91684 -218343,148392 -358246,148392 -86878,0 -170742,-22274 -244497,-62917 -73741,-40634 -137370,-99646 -183799,-173127 180910,247996 548880,307134 773905,75017 88449,-88450 143157,-210642 143157,-345610 0,-134969 -54708,-257161 -143157,-345610 -222015,-227335 -594774,-174478 -772603,72993z"/>
  <path class="fil0" d="M17122 375910l56860 -2637 0 194301 103174 0 0 -194301 56859 2637 0 -92256 -216893 0 0 92256zm390860 -96774c-86231,0 -157022,57989 -157022,147231 0,91126 70415,145726 157022,145726 86607,0 157021,-54600 157021,-145726 0,-89242 -70791,-147231 -157021,-147231zm0 93384c32760,0 53094,25229 53094,55354 0,32383 -21840,54599 -53094,54599 -31254,0 -53094,-22216 -53094,-54599 0,-30125 20334,-55354 53094,-55354zm193548 195054l99409 0 0 -85477 52717 0c57612,0 93761,-36149 93761,-94138 0,-70415 -48951,-104305 -115224,-104305l-130663 0 0 283920zm99409 -206350l9791 0c16944,0 38031,1130 38031,23346 0,22969 -19581,25982 -37656,25982l-10166 0 0 -49328z"/>
  <path class="fil0" d="M0 740080l73211 0 0 -62951 38824 0c42429,0 69051,-26622 69051,-69328 0,-51859 -36051,-76817 -84858,-76817l-96228 0 0 209096zm73211 -151969l7210 0c12479,0 28009,833 28009,17194 0,16916 -14421,19135 -27732,19135l-7487 0 0 -36329zm128674 151969l74320 0 0 -67111 1387 0 33278 67111 87631 0 -45480 -67943c-4159,-6100 -8874,-9428 -12757,-12478l0 -1664c28287,-9430 40488,-22740 40488,-54355 0,-52690 -39933,-72656 -87076,-72656l-91791 0 0 209096zm74320 -151969l5824 0c13033,0 24403,1941 24403,18026 0,15529 -12479,17471 -24958,17471l-5269 0 0 -35497zm136162 151969l75984 0 0 -209096 -75984 0 0 209096zm110094 0l72656 0 0 -67943c0,-13865 -2218,-27454 -4714,-41874l2218 0 66833 109817 72657 0 0 -209096 -72657 0 0 62674c0,17748 3329,35774 6379,53244l-2219 0 -68219 -115918 -72934 0 0 209096zm228507 -141154l41875 -1941 0 143095 75985 0 0 -143095 41874 1941 0 -67942 -159734 0 0 67942z"/>
  <path class="fil0" d="M245809 775897l0 26103 -3237 0 0 -29050 13612 0 0 29050 -3237 0 0 -26103 -7138 0zm14631 4066c0,-2241 547,-4018 1640,-5332 1092,-1315 2759,-1972 5000,-1972 2242,0 3915,657 5022,1972 1106,1314 1660,3091 1660,5332l0 15023c0,2214 -554,3984 -1660,5313 -1107,1327 -2780,1991 -5022,1991 -2241,0 -3908,-664 -5000,-1991 -1093,-1329 -1640,-3099 -1640,-5313l0 -15023zm3196 15189c0,1328 284,2359 851,3092 567,733 1431,1100 2593,1100 1190,0 2062,-367 2615,-1100 553,-733 830,-1764 830,-3092l0 -15355c0,-1328 -277,-2358 -830,-3091 -553,-734 -1425,-1100 -2615,-1100 -1162,0 -2026,366 -2593,1100 -567,733 -851,1763 -851,3091l0 15355zm20566 -19255l-664 18882c-55,1162 -180,2186 -374,3071 -193,885 -511,1639 -954,2262 -443,622 -1031,1099 -1764,1432 -733,331 -1653,497 -2759,497l-540 0 0 -2946c664,0 1203,-83 1618,-249 415,-166 740,-422 976,-768 235,-346 394,-782 477,-1307 83,-526 138,-1135 166,-1826l788 -21995 11828 0 0 29050 -3237 0 0 -26103 -5561 0zm21106 12615l-4317 13488 -3361 0 0 -29050 2864 0 0 21663 2987 -9172 4233 -12491 3611 0 0 29050 -2905 0 0 -23116 -3112 9628zm13718 -12615l0 26103 -3196 0 0 -29050 11579 0 0 2947 -8383 0zm19072 -2947c2296,0 3956,630 4980,1888 1024,1259 1535,2995 1535,5209l0 3485c0,2324 -546,4074 -1639,5250 -1093,1176 -2801,1764 -5125,1764l-2863 0 0 11454 -3238 0 0 -29050 6350 0zm-249 14691c1217,0 2117,-297 2697,-892 581,-595 872,-1598 872,-3009l0 -3859c0,-1329 -256,-2324 -768,-2989 -512,-664 -1363,-995 -2552,-995l-3112 0 0 11744 2863 0zm13760 8508l-1120 5851 -2988 0 5560 -29050 4690 0 5561 29050 -3237 0 -1121 -5851 -7345 0zm415 -2781l6474 0 -3278 -16766 -3196 16766zm28742 -17015c2351,0 4059,629 5124,1888 1066,1259 1598,3051 1598,5375l0 7926c0,2324 -532,4115 -1598,5374 -1065,1259 -2773,1888 -5124,1888l-2034 0 0 3196 -3195 0 0 -3196 -2034 0c-2351,0 -4060,-629 -5125,-1888 -1066,-1259 -1598,-3050 -1598,-5374l0 -7926c0,-2324 532,-4116 1598,-5375 1065,-1259 2774,-1888 5125,-1888l2034 0 0 -3403 3195 0 0 3403 2034 0zm-7263 2864c-1245,0 -2144,345 -2698,1037 -553,692 -830,1743 -830,3154l0 8342c0,1410 277,2469 830,3174 554,705 1453,1058 2698,1058l2034 0 0 -16765 -2034 0zm7263 16765c2379,0 3569,-1411 3569,-4232l0 -8342c0,-1411 -284,-2462 -851,-3154 -568,-692 -1473,-1037 -2718,-1037l-2034 0 0 16765 2034 0zm18739 -7470l-4316 13488 -3361 0 0 -29050 2863 0 0 21663 2988 -9172 4233 -12491 3611 0 0 29050 -2905 0 0 -23116 -3113 9628zm17993 1079c-1356,0 -2400,312 -3133,934 -733,623 -1100,1750 -1100,3382l0 4565c0,969 -41,1695 -124,2179 -84,485 -221,934 -415,1349l-3279 0c249,-498 408,-1044 477,-1639 70,-595 104,-1211 104,-1847l0 -4524c0,-1577 270,-2884 810,-3921 539,-1038 1473,-1751 2801,-2138 -2379,-774 -3569,-2766 -3569,-5975l0 -2366c0,-2158 504,-3804 1514,-4938 1010,-1135 2663,-1702 4960,-1702l6474 0 0 29050 -3237 0 0 -12409 -2283 0zm-871 -13694c-1217,0 -2082,331 -2594,995 -512,665 -768,1660 -768,2989l0 2780c0,1577 360,2635 1079,3174 720,540 1716,810 2988,810l2449 0 0 -10748 -3154 0z"/>
  <polygon class="fil1" points="438610,767678 441706,767678 441706,811300 438610,811300 "/>
  <path class="fil0" d="M471075 805281l0 -3984 -11869 0 0 3984 -3113 0 0 -6847 1868 0c497,-553 823,-1176 974,-1868 153,-692 257,-1480 312,-2365l1120 -21954 11662 0 0 26187 2200 0 0 6847 -3154 0zm-8674 -11122c-55,1052 -173,1909 -353,2573 -180,664 -505,1231 -975,1702l7677 0 0 -23240 -5394 0 -955 18965zm23470 -6266l-4274 13404 -3361 0 0 -29050 2863 0 0 21663 2573 -8009 4648 -13654 3611 0 0 29050 -2905 0 0 -23115 -3155 9711zm16873 -15936c2241,0 3895,664 4960,1992 1065,1328 1597,3098 1597,5312l0 747c0,1493 -297,2759 -892,3797 -595,1037 -1487,1778 -2677,2220 1245,415 2152,1148 2718,2200 567,1051 851,2310 851,3777l0 2282c0,2213 -532,3984 -1597,5312 -1065,1328 -2719,1992 -4960,1992 -2213,0 -3852,-664 -4918,-1992 -1065,-1328 -1597,-3099 -1597,-5312l0 -2822 3029 0 0 2988c0,1328 277,2359 830,3091 554,734 1411,1100 2573,1100 1190,0 2054,-373 2594,-1120 540,-747 809,-1854 809,-3320l0 -2283c0,-2877 -1245,-4316 -3735,-4316l-1369 0 0 -2904 1535 0c1079,0 1944,-347 2594,-1038 650,-692 975,-1674 975,-2947l0 -1328c0,-1494 -269,-2614 -809,-3361 -540,-747 -1404,-1120 -2594,-1120 -1162,0 -2019,366 -2573,1099 -553,733 -830,1764 -830,3092l0 1950 -2988 0 0 -1826c0,-2240 519,-4012 1556,-5312 1038,-1300 2677,-1950 4918,-1950zm14175 23489l-1120 5851 -2989 0 5561 -29050 4690 0 5561 29050 -3237 0 -1121 -5851 -7345 0zm415 -2781l6474 0 -3279 -16766 -3195 16766zm26500 -26352c0,1273 -394,2268 -1183,2988 -788,719 -1888,1079 -3299,1079 -1411,0 -2497,-360 -3257,-1079 -761,-720 -1170,-1715 -1225,-2988l2034 0c55,802 304,1355 747,1660 442,304 1010,457 1701,457 692,0 1266,-153 1723,-457 456,-305 712,-858 767,-1660l1992 0zm-3610 20999l-4524 13985 -3361 0 0 -29050 2863 0 0 21663 2697 -8382 4524 -13281 3610 0 0 29050 -2904 0 0 -23115 -2905 9130zm13552 913l0 13072 -3237 0 0 -29050 3237 0 0 13073 7138 0 0 -13073 3237 0 0 29050 -3237 0 0 -13072 -7138 0z"/>
  <polygon class="fil1" points="583464,767678 586560,767678 586560,811300 583464,811300 "/>
  <path class="fil0" d="M605432 775897l-664 18882c-55,1162 -180,2186 -374,3071 -193,885 -511,1639 -954,2262 -443,622 -1031,1099 -1764,1432 -733,331 -1653,497 -2759,497l-540 0 0 -2946c664,0 1203,-83 1618,-249 415,-166 741,-422 976,-768 235,-346 394,-782 477,-1307 83,-526 138,-1135 166,-1826l788 -21995 11828 0 0 29050 -3237 0 0 -26103 -5561 0zm23762 9918l0 2905 -7097 0 0 10334 8715 0 0 2946 -11952 0 0 -29050 11952 0 0 2947 -8715 0 0 9918 7097 0zm9029 3112l0 13073 -3238 0 0 -29050 3238 0 0 13072 7137 0 0 -13072 3238 0 0 29050 -3238 0 0 -13073 -7137 0zm22516 -331l-4275 13404 -3361 0 0 -29050 2864 0 0 21663 2572 -8010 4648 -13653 3611 0 0 29050 -2905 0 0 -23116 -3154 9712zm13760 331l0 13073 -3237 0 0 -29050 3237 0 0 13072 7138 0 0 -13072 3237 0 0 29050 -3237 0 0 -13073 -7138 0zm21147 -16268c2241,0 3894,664 4959,1993 1065,1327 1598,3098 1598,5311l0 2615 -3071 0 0 -2781c0,-1328 -270,-2358 -810,-3091 -539,-734 -1403,-1100 -2593,-1100 -1162,0 -2020,366 -2573,1100 -553,733 -830,1763 -830,3091l0 15355c0,1328 277,2359 830,3092 553,733 1411,1100 2573,1100 1190,0 2054,-367 2593,-1100 540,-733 810,-1764 810,-3092l0 -3776 3071 0 0 3610c0,2214 -533,3984 -1598,5313 -1065,1327 -2718,1991 -4959,1991 -2213,0 -3853,-664 -4918,-1991 -1065,-1329 -1598,-3099 -1598,-5313l0 -15023c0,-1106 132,-2109 395,-3008 262,-900 663,-1667 1203,-2303 540,-637 1218,-1128 2034,-1474 816,-346 1777,-519 2884,-519zm15627 16725l-1701 2863 0 9753 -3237 0 0 -29050 3237 0 0 14027 7719 -14027 3278 0 -7345 13238 7594 15812 -3320 0 -6225 -12616zm20856 -788l-4274 13404 -3361 0 0 -29050 2863 0 0 21663 2573 -8010 4648 -13653 3610 0 0 29050 -2905 0 0 -23116 -3154 9712zm22019 -21581c0,1273 -394,2269 -1183,2988 -788,720 -1888,1080 -3299,1080 -1411,0 -2497,-360 -3258,-1080 -760,-719 -1169,-1715 -1224,-2988l2033 0c56,803 305,1356 748,1660 442,305 1010,457 1701,457 691,0 1266,-152 1722,-457 457,-304 713,-857 768,-1660l1992 0zm-3611 21000l-4523 13985 -3362 0 0 -29050 2864 0 0 21663 2697 -8383 4524 -13280 3610 0 0 29050 -2905 0 0 -23116 -2905 9131zm22683 -9794c-554,331 -1169,608 -1847,830 -677,221 -1404,359 -2179,415l0 -2657c775,-27 1439,-152 1992,-373 554,-222 1017,-505 1391,-851 373,-346 684,-747 933,-1203 249,-457 471,-934 664,-1432l2241 0 0 29050 -3195 0 0 -23779zm21064 17928l0 5851 -3154 0 0 -5851 -9379 0 0 -2947 9006 -20252 3527 0 0 20252 2324 0 0 2947 -2324 0zm-9545 -2947l6391 0 0 -14193 -6391 14193zm22018 -20543c2241,0 3943,636 5105,1909 1161,1273 1743,3030 1743,5271l0 913c0,1494 -263,2753 -789,3776 -525,1024 -1369,1757 -2531,2200 1217,470 2075,1245 2573,2324 498,1079 747,2351 747,3818l0 2158c0,2241 -575,4012 -1722,5312 -1149,1300 -2857,1950 -5126,1950 -2269,0 -3977,-650 -5125,-1950 -1148,-1300 -1723,-3071 -1723,-5312l0 -2158c0,-1494 250,-2767 748,-3818 497,-1051 1369,-1826 2614,-2324 -1189,-471 -2047,-1210 -2573,-2220 -525,-1010 -789,-2262 -789,-3756l0 -913c0,-2241 582,-3998 1744,-5271 1161,-1273 2863,-1909 5104,-1909zm0 2905c-1161,0 -2061,353 -2698,1058 -636,706 -953,1806 -953,3300l0 1411c0,1411 317,2441 953,3092 637,650 1537,975 2698,975 1162,0 2061,-325 2698,-975 636,-651 954,-1681 954,-3092l0 -1411c0,-1494 -318,-2594 -954,-3300 -637,-705 -1536,-1058 -2698,-1058zm0 12741c-2434,0 -3651,1397 -3651,4191l0 2449c0,1494 317,2601 953,3320 637,719 1537,1079 2698,1079 1162,0 2054,-360 2677,-1079 622,-719 948,-1826 975,-3320l0 -2449c0,-2794 -1217,-4191 -3652,-4191z"/>
  <path class="fil0" d="M230310 88454c36135,-20469 74605,-36081 114413,-46573 39844,-10501 81006,-15883 122492,-15883 132723,0 252883,53798 339862,140777 86978,86979 140777,207139 140777,339863 0,132723 -53799,252884 -140777,339863 -86979,86978 -207139,140777 -339862,140777 -70123,0 -138519,-15333 -200815,-43985 -62292,-28650 -118453,-70612 -164106,-123872 4515,-3862 322716,359068 696886,19182 84957,-84958 137504,-202326 137504,-331965 0,-129640 -52547,-247008 -137504,-331965 -208901,-200785 -426977,-149975 -568870,-86219z"/>
  <path class="fil1" d="M102421 253010c-371,516 -774,1010 -1213,1476 -1007,1067 -2172,1953 -3449,2672 -1192,671 -2446,1226 -3759,1613 -1275,375 -2591,569 -3919,569 -2125,0 -4249,-313 -6232,-1094 -1951,-768 -3652,-1963 -5132,-3439 -684,-681 -1342,-1396 -1938,-2155 -567,-723 -1033,-1514 -1392,-2360 -389,-915 -636,-1890 -787,-2871 -187,-1209 -243,-2456 -243,-3678 0,-2078 413,-4080 1250,-5982 815,-1852 1924,-3528 3330,-4983 1408,-1459 3055,-2609 4901,-3452 1903,-868 3916,-1289 6008,-1289 970,0 2019,37 2972,231 792,160 1569,396 2313,676 895,317 1760,763 2576,1247l639 380 -1614 2383 -566 -331c-917,-537 -1891,-966 -2911,-1267 -1099,-325 -2266,-440 -3409,-440 -1692,0 -3295,378 -4809,1134 -1512,756 -2865,1745 -4025,2974 -1144,1214 -2067,2584 -2757,4103 -637,1403 -1020,2888 -1020,4436 0,997 55,2026 241,3008 148,781 370,1552 692,2281 300,677 683,1307 1149,1882 525,650 1091,1266 1681,1857 2466,2465 5437,3655 8920,3655 3556,0 6500,-1362 8944,-3931 2339,-2461 3559,-5352 3559,-8752l0 -700 3059 0 0 14096 -3059 0 0 -3949zm5947 -12673c713,-1110 1627,-2051 2781,-2719 1411,-816 2942,-1248 4572,-1248l699 0 0 2842 -699 0c-1413,0 -2808,321 -3844,1356 -1255,1210 -1805,2702 -1805,4437l0 13975 -3059 0 0 -18643 1355 0zm28162 762l0 -906 3059 0 0 16694 -3059 0 0 -772c-2040,2168 -4697,3225 -7885,3225 -1921,0 -3699,-551 -5340,-1543 -1637,-989 -2949,-2306 -3905,-3964 -969,-1679 -1447,-3499 -1447,-5437 0,-1433 294,-2813 894,-4116 583,-1269 1380,-2400 2387,-3368 1008,-969 2171,-1725 3460,-2269 1307,-551 2676,-831 4095,-831 2507,0 4789,720 6724,2327 360,299 700,620 1017,960zm7651 56c1972,-2112 4562,-3126 7668,-3126 1420,0 2793,277 4090,854 1255,558 2380,1326 3350,2297 969,971 1734,2101 2291,3355 576,1297 854,2676 854,4096 0,1404 -289,2753 -853,4039 -564,1284 -1340,2431 -2325,3431 -988,1005 -2137,1794 -3424,2367 -1320,589 -2717,872 -4162,872 -1763,0 -3419,-457 -4959,-1314 -942,-526 -1788,-1161 -2530,-1910l0 10728 -3059 0 0 -26651 3059 0 0 962zm22844 -837c1725,-1613 3863,-2434 6389,-2434 2674,0 5029,865 6880,2817 1983,2090 2747,4744 2747,7587l0 10692 -3059 0 0 -10908c0,-2616 -717,-5044 -3092,-6381 -1050,-560 -2203,-783 -3387,-783 -2469,0 -4326,1003 -5605,3124 -582,967 -873,2010 -873,3138l0 11810 -3059 0 0 -30546 3059 0 0 11884zm20680 -2909l-3060 0 0 -2915 3060 0 0 2915zm0 21571l-3060 0 0 -20734 3060 0 0 20734zm12187 -18144c-1018,0 -1997,197 -2928,607 -916,404 -1733,959 -2435,1673 -704,715 -1247,1544 -1639,2469 -400,943 -595,1931 -595,2956 0,1027 182,2028 578,2977 376,902 898,1714 1584,2412 683,694 1484,1228 2377,1616 926,401 1903,591 2914,591 1476,0 2845,-383 4119,-1130l619 -363 1431 2588 -578 348c-1718,1037 -3585,1580 -5591,1580 -1409,0 -2767,-282 -4054,-853 -1251,-557 -2373,-1320 -3334,-2295 -963,-976 -1718,-2110 -2270,-3366 -574,-1304 -853,-2681 -853,-4105 0,-1420 277,-2793 853,-4090 557,-1251 1319,-2373 2295,-3335 971,-959 2098,-1709 3351,-2253 1297,-564 2669,-834 4084,-834 1934,0 3745,482 5407,1469l669 396 -1795 2414 -552 -360c-1114,-728 -2326,-1112 -3657,-1112zm33724 15309c-1983,2116 -4591,3123 -7705,3123 -1314,0 -2578,-315 -3770,-856 -1250,-567 -2381,-1334 -3383,-2273 -1029,-966 -1860,-2092 -2491,-3354 -656,-1309 -976,-2708 -976,-4172 0,-1441 282,-2834 873,-4147 570,-1266 1345,-2402 2326,-3382 985,-985 2130,-1754 3408,-2311 1320,-576 2716,-852 4157,-852 1783,0 3467,430 5038,1274 950,509 1793,1139 2523,1890l0 -12615 3058 0 0 28598 -3058 0 0 -923zm7866 -8997c-92,458 -144,924 -144,1393 0,1013 199,1986 594,2919 395,933 947,1765 1657,2487 716,726 1541,1303 2466,1732 934,434 1922,639 2952,639 2272,0 4136,-935 5709,-2573 383,-382 718,-805 994,-1270 271,-456 502,-934 683,-1433l1358 -3731 0 7671 -144 189c-1028,1343 -2336,2371 -3858,3108 -1517,734 -3129,1134 -4814,1134 -1446,0 -2842,-284 -4163,-873 -1279,-569 -2423,-1352 -3405,-2348 -981,-993 -1751,-2142 -2308,-3422 -576,-1321 -852,-2716 -852,-4157 0,-1441 276,-2837 852,-4157 555,-1275 1317,-2424 2287,-3420 978,-1005 2128,-1786 3411,-2352 1327,-585 2728,-872 4178,-872 3450,0 6323,1311 8482,4015 1048,1312 1713,2834 2084,4466l195 855 -18214 0zm25608 -6384c-434,0 -783,144 -1085,454 -308,317 -452,678 -452,1118 0,467 160,818 534,1101 407,307 853,471 1363,471 1304,0 2518,382 3629,1059 1120,682 2035,1583 2708,2709 688,1153 1072,2406 1072,3750 0,1029 -199,2025 -594,2975 -390,935 -936,1777 -1639,2507 -700,725 -1513,1305 -2425,1734 -947,447 -1956,662 -3003,662 -1031,0 -2020,-232 -2951,-675 -913,-434 -1738,-1009 -2451,-1725 -714,-717 -1277,-1544 -1693,-2467 -425,-944 -639,-1940 -639,-2975l0 -699 2987 0 0 699c0,1343 507,2455 1444,3391 960,920 2076,1428 3411,1428 426,0 847,-60 1258,-173 418,-114 807,-298 1178,-546 1501,-959 2203,-2305 2203,-4081 0,-1839 -781,-3162 -2384,-4062 -369,-207 -761,-366 -1170,-474 -365,-96 -743,-157 -1121,-157 -1240,0 -2422,-326 -3322,-1211 -888,-873 -1237,-2014 -1237,-3241 0,-1172 409,-2205 1186,-3080 846,-952 1965,-1372 3229,-1372 1259,0 2336,477 3197,1394 850,906 1290,1996 1290,3239l0 699 -2951 0 0 -699c0,-483 -156,-890 -475,-1252 -297,-339 -646,-501 -1097,-501zm12397 -3355l-3059 0 0 -2915 3059 0 0 2915zm0 21571l-3059 0 0 -20734 3059 0 0 20734zm20001 -17850l0 -822 3059 0 0 17094c0,1233 -79,2583 -425,3772 -371,1280 -1066,2385 -2026,3309 -1552,1494 -3407,2361 -5572,2361l-700 0 0 -2807 700 0c1480,0 2657,-690 3625,-1784 1083,-1225 1339,-3048 1339,-4622l0 -1347c-1929,2118 -4501,3129 -7596,3129 -2984,0 -5528,-1102 -7637,-3205 -2108,-2101 -3236,-4629 -3236,-7614 0,-1440 277,-2841 852,-4163 555,-1276 1316,-2428 2287,-3425 978,-1005 2128,-1787 3416,-2343 1327,-572 2727,-851 4173,-851 2548,0 4826,812 6794,2433 334,276 649,572 947,885zm7651 -865c1712,-1602 3858,-2381 6370,-2381 2647,0 5001,822 6852,2740 2003,2075 2794,4705 2794,7555l0 10801 -3059 0 0 -10728c0,-1959 -435,-3921 -1853,-5351 -1283,-1294 -2894,-1813 -4698,-1813 -1744,0 -3209,599 -4451,1819 -1263,1241 -1955,2699 -1955,4479l0 11594 -3059 0 0 -19003 3059 0 0 288zm31439 -1001c-1172,-1154 -1807,-2607 -1807,-4359 0,-2489 1131,-4385 3265,-5651 997,-592 2083,-892 3243,-892 2435,0 4296,1122 5564,3169 606,935 907,1971 907,3085 0,1033 -247,2026 -677,2962l-188 408 -3429 0 653 -1066c393,-641 582,-1334 582,-2087 0,-952 -297,-1766 -951,-2460 -669,-708 -1514,-988 -2480,-988 -455,0 -898,88 -1317,268 -411,176 -786,418 -1103,735 -315,315 -566,677 -744,1085 -181,411 -266,840 -266,1288 0,1607 881,2669 2249,3429l4324 2400 3720 0 203 192c1005,957 1795,2075 2372,3333l2102 1206 0 3434 -980 -475c4,149 6,296 6,441 0,1406 -303,2753 -895,4028 -581,1250 -1353,2380 -2316,3368 -962,987 -2076,1773 -3329,2348 -1270,583 -2611,875 -4007,875 -1397,0 -2742,-287 -4018,-854 -1260,-559 -2384,-1331 -3352,-2312 -970,-982 -1732,-2120 -2289,-3383 -574,-1304 -853,-2681 -853,-4106 0,-2196 620,-4210 1876,-6010 1036,-1484 2355,-2618 3935,-3411zm28966 1932l0 17784 -3131 0 0 -30510 5822 0c2523,0 4591,963 5934,3134 620,1002 934,2104 934,3283 0,1127 -205,2264 -782,3246 -549,936 -1336,1661 -2247,2197 -924,587 -1951,866 -3046,866l-3484 0zm12446 -859c714,-1110 1627,-2051 2782,-2719 1411,-816 2942,-1248 4571,-1248l700 0 0 2842 -700 0c-1413,0 -2807,321 -3843,1356 -1255,1210 -1806,2702 -1806,4437l0 13975 -3059 0 0 -18643 1355 0zm12681 -2928l-3060 0 0 -2915 3060 0 0 2915zm0 21571l-3060 0 0 -20734 3060 0 0 20734zm4591 -18715c1712,-1602 3858,-2381 6370,-2381 2647,0 5001,822 6852,2740 2004,2075 2794,4705 2794,7555l0 10801 -3059 0 0 -10728c0,-1959 -435,-3921 -1853,-5351 -1283,-1294 -2893,-1813 -4698,-1813 -1743,0 -3209,599 -4451,1819 -1262,1241 -1955,2699 -1955,4479l0 11594 -3059 0 0 -19003 3059 0 0 288zm18811 -2128l0 -3931 3059 0 0 3931 4328 0 0 2771 -4328 0 0 10650c0,1196 246,2436 1138,3296 761,733 1650,1103 2707,1103l699 0 0 3023 -699 0c-963,0 -1900,-175 -2790,-539 -912,-373 -1695,-945 -2350,-1680 -630,-708 -1099,-1519 -1374,-2427 -265,-874 -390,-1778 -390,-2691l0 -10735 -3427 0 0 -2771 3427 0zm12231 -728l-3059 0 0 -2915 3059 0 0 2915zm0 21571l-3059 0 0 -20734 3059 0 0 20734zm4591 -18715c1713,-1602 3858,-2381 6371,-2381 2646,0 5001,822 6852,2740 2003,2075 2793,4705 2793,7555l0 10801 -3059 0 0 -10728c0,-1959 -434,-3921 -1853,-5351 -1283,-1294 -2893,-1813 -4698,-1813 -1743,0 -3208,599 -4450,1819 -1263,1241 -1956,2699 -1956,4479l0 11594 -3059 0 0 -19003 3059 0 0 288zm36018 865l0 -822 3059 0 0 17094c0,1233 -79,2583 -425,3772 -372,1280 -1067,2385 -2027,3309 -1551,1494 -3407,2361 -5571,2361l-700 0 0 -2807 700 0c1480,0 2657,-690 3624,-1784 1084,-1225 1340,-3048 1340,-4622l0 -1347c-1930,2118 -4501,3129 -7597,3129 -2983,0 -5527,-1102 -7636,-3205 -2108,-2101 -3236,-4629 -3236,-7614 0,-1440 277,-2841 852,-4163 554,-1276 1315,-2428 2287,-3425 978,-1005 2128,-1787 3416,-2343 1327,-572 2727,-851 4172,-851 2548,0 4826,812 6794,2433 335,276 650,572 948,885zm31249 -31l0 -906 3059 0 0 16694 -3059 0 0 -772c-2041,2168 -4697,3225 -7886,3225 -1921,0 -3698,-551 -5339,-1543 -1637,-989 -2949,-2306 -3906,-3964 -969,-1679 -1447,-3499 -1447,-5437 0,-1433 294,-2813 894,-4116 584,-1269 1380,-2400 2387,-3368 1008,-969 2171,-1725 3460,-2269 1307,-551 2677,-831 4095,-831 2508,0 4789,720 6724,2327 361,299 700,620 1018,960zm5946 -762c714,-1110 1627,-2051 2782,-2719 1411,-816 2942,-1248 4571,-1248l700 0 0 2842 -700 0c-1413,0 -2808,321 -3843,1356 -1255,1210 -1806,2702 -1806,4437l0 13975 -3059 0 0 -18643 1355 0zm13013 -2200l0 -3931 3058 0 0 3931 4329 0 0 2771 -4329 0 0 10650c0,1196 246,2436 1139,3296 761,733 1650,1103 2706,1103l700 0 0 3023 -700 0c-962,0 -1899,-175 -2790,-539 -911,-373 -1694,-945 -2349,-1680 -631,-708 -1099,-1519 -1374,-2427 -265,-874 -390,-1778 -390,-2691l0 -10735 -3427 0 0 -2771 3427 0zm-398001 10332c0,1036 202,2032 625,2979 415,930 989,1759 1716,2473 730,721 1582,1284 2520,1698 944,417 1939,627 2970,627 1012,0 1988,-203 2908,-623 904,-412 1716,-967 2413,-1676 699,-709 1249,-1531 1650,-2442 406,-921 608,-1886 608,-2892 0,-1032 -197,-2026 -594,-2977 -394,-940 -942,-1790 -1639,-2532 -690,-735 -1495,-1312 -2408,-1739 -926,-434 -1915,-638 -2938,-638 -1031,0 -2028,203 -2976,611 -936,402 -1787,953 -2519,1663 -730,707 -1299,1537 -1710,2467 -422,955 -626,1957 -626,3001zm30729 -7417c-1005,0 -1971,200 -2891,607 -909,404 -1720,956 -2416,1666 -705,719 -1246,1560 -1642,2485 -418,972 -611,1999 -611,3055 0,2086 818,3805 2283,5264 1456,1451 3183,2189 5242,2189 1017,0 1996,-196 2926,-608 910,-404 1721,-954 2418,-1665 698,-713 1234,-1546 1622,-2464 400,-947 595,-1940 595,-2968 0,-1003 -194,-1970 -592,-2891 -392,-904 -934,-1714 -1636,-2408 -707,-698 -1520,-1249 -2427,-1656 -912,-409 -1871,-606 -2871,-606zm74062 15122c1037,0 2028,-214 2966,-656 927,-436 1754,-1021 2461,-1761 702,-736 1259,-1574 1669,-2505 401,-909 609,-1862 609,-2856 0,-975 -211,-1901 -634,-2780 -428,-888 -997,-1679 -1711,-2358 -726,-692 -1564,-1233 -2483,-1633 -917,-400 -1878,-609 -2877,-609 -1000,0 -1956,205 -2866,622 -902,412 -1711,970 -2407,1676 -693,703 -1232,1515 -1625,2421 -397,917 -591,1879 -591,2878 0,987 199,1935 591,2842 393,905 933,1717 1625,2420 696,707 1505,1263 2407,1676 910,417 1866,623 2866,623zm16865 -12049l12467 0c-601,-908 -1378,-1657 -2372,-2214 -1216,-719 -2525,-1075 -3936,-1075 -1927,0 -3583,766 -5022,2026 -431,378 -809,802 -1137,1263zm41302 4325c0,1044 210,2049 641,3000 426,938 1004,1781 1743,2498 739,716 1583,1289 2523,1709 925,414 1894,624 2907,624 2124,0 3874,-817 5336,-2350 1452,-1521 2188,-3304 2188,-5409 0,-1007 -210,-1974 -624,-2892 -414,-918 -974,-1740 -1692,-2447 -716,-705 -1541,-1262 -2461,-1667 -921,-405 -1886,-608 -2892,-608 -1007,0 -1972,203 -2893,608 -919,405 -1744,963 -2460,1667 -715,704 -1277,1518 -1694,2432 -411,899 -622,1847 -622,2835zm66281 -2087l-8594 -4981c-998,60 -2057,598 -2861,1104 -960,639 -1717,1493 -2314,2474 -658,1080 -944,2265 -944,3527 0,1387 371,2676 1080,3868 696,1174 1604,2161 2770,2876 1179,722 2449,1087 3831,1087 942,0 1838,-221 2692,-620 899,-420 1701,-989 2405,-1690 713,-709 1277,-1534 1707,-2442 428,-904 636,-1864 636,-2863 0,-803 -139,-1587 -408,-2340zm17185 -14870l0 6680 2908 0c1302,0 2318,-461 3012,-1580 333,-537 472,-1131 472,-1760 0,-958 -327,-1743 -1045,-2381 -739,-656 -1597,-959 -2584,-959l-2763 0zm85959 16957c0,1044 210,2049 641,3000 425,938 1003,1781 1743,2498 738,716 1583,1289 2522,1709 925,414 1895,624 2907,624 2124,0 3875,-817 5337,-2350 1451,-1521 2188,-3304 2188,-5409 0,-1007 -210,-1974 -625,-2892 -413,-918 -974,-1740 -1692,-2447 -716,-705 -1540,-1262 -2460,-1667 -921,-405 -1886,-608 -2893,-608 -1006,0 -1971,203 -2892,608 -920,405 -1745,963 -2461,1667 -715,704 -1277,1518 -1693,2432 -411,899 -622,1847 -622,2835zm31249 19c0,1036 201,2032 624,2979 416,930 990,1759 1716,2473 731,721 1582,1284 2521,1698 943,417 1938,627 2970,627 1012,0 1987,-203 2907,-623 905,-412 1716,-967 2413,-1676 699,-709 1249,-1531 1651,-2442 406,-921 608,-1886 608,-2892 0,-1032 -198,-2026 -595,-2977 -394,-940 -941,-1790 -1639,-2532 -690,-735 -1495,-1312 -2407,-1739 -927,-434 -1916,-638 -2938,-638 -1032,0 -2028,203 -2977,611 -935,402 -1786,953 -2518,1663 -730,707 -1300,1537 -1711,2467 -422,955 -625,1957 -625,3001z"/>
 </g>
</svg>
