<svg width="699" height="538" viewBox="0 0 699 538" fill="none" xmlns="http://www.w3.org/2000/svg">
<path d="M1.73731 296.558C3.54197 352.375 10.3751 407.236 31.0266 449.902C51.7315 492.679 86.3294 523.183 143.412 530.119C177.46 534.256 211.09 530.934 244.64 526.522C250.481 525.754 256.318 524.953 262.155 524.152C289.894 520.346 317.619 516.542 345.698 516.263C374.709 515.976 407.446 520.877 440.539 525.832C442.538 526.131 444.538 526.431 446.538 526.729C481.59 531.96 516.808 536.901 547.852 535.304C580.176 533.641 605.794 524.633 626.003 510.005C646.205 495.382 660.91 475.211 671.526 451.361C692.731 403.717 697.699 341.197 697.492 278.228C697.293 217.427 680.954 153.981 649.088 106.376C617.196 58.7313 569.683 26.8869 507.289 29.6688C476.006 31.0637 452.942 35.9781 430.462 40.7683C429.051 41.0689 427.642 41.369 426.234 41.6678C402.406 46.7231 378.664 51.3887 345.683 51.3887C313.29 51.3887 289.029 45.6942 265.22 40.1054C262.328 39.4268 259.444 38.7497 256.552 38.0846C229.825 31.9368 202.594 26.8428 164.293 31.1845C103.989 38.0202 62.3531 74.9581 36.3238 124.841C10.3146 174.685 -0.171106 237.533 1.73731 296.558Z" fill="white" stroke="#FFE76A" stroke-width="3"/>
<path d="M666 151.633C665.569 -10.6777 655.678 -11.1096 515.176 19.9831C444.153 35.7002 412.871 51.4088 341.091 51.4088C261.967 51.4088 226.263 15.4477 143.836 27.0083C14.5496 45.1411 26.1004 -72.325 30.2211 85.3673L34.7348 149.001" stroke="white" stroke-width="3"/>
</svg>
