<svg width="987" height="590" viewBox="0 0 987 590" fill="none" xmlns="http://www.w3.org/2000/svg">
<path d="M65.8468 548.651C104.903 573.486 131.388 587.125 178.206 587.496C205.474 587.711 224.224 576.956 242.717 565.362C243.941 564.595 245.163 563.824 246.387 563.053C263.669 552.157 281.189 541.112 305.874 537.744C346.765 532.165 377.704 547.448 408.832 562.825L409.373 563.093C440.646 578.54 472.167 593.958 513.858 587.484C544.23 582.767 564.359 567.767 584.086 553.067C584.63 552.661 585.174 552.256 585.718 551.851C605.988 536.76 626.131 522.281 657.021 519.326C691.652 516.012 713.863 522.431 737.639 529.721C738.342 529.936 739.045 530.152 739.751 530.369C762.973 537.501 788.042 545.199 827.614 545.199C859.292 545.199 885.714 539.938 905.861 527.26C926.044 514.558 939.814 494.485 946.306 465.119C950.663 445.414 943.761 429.982 936.873 414.827L936.693 414.43C929.845 399.364 923.105 384.536 926.693 365.605C931.555 339.951 945.103 326.663 958.059 313.956C959.012 313.022 959.962 312.09 960.905 311.156C967.778 304.355 974.309 297.441 978.894 288.635C983.492 279.804 986.105 269.128 985.262 254.821C983.605 226.679 976.303 212.066 964.377 199.232C959.13 193.585 952.989 188.285 946.105 182.342C945.222 181.581 944.327 180.808 943.42 180.023C935.427 173.103 926.458 165.16 916.629 154.71C903.198 140.43 899.926 124.564 896.864 109.721C896.395 107.444 895.93 105.19 895.434 102.97C893.579 94.664 891.276 86.8057 886.542 80.1008C881.786 73.3657 874.637 67.8738 863.238 64.1712C834.65 54.8858 808.643 64.8463 782.782 75.3563C781.953 75.6931 781.125 76.0304 780.296 76.3678C755.163 86.6006 730.075 96.8151 702.26 90.8579C675.195 85.0615 665.224 68.0613 655.553 51.5714C655.173 50.9232 654.794 50.2759 654.413 49.6301C649.399 41.112 644.253 32.8 636.618 26.609C628.943 20.3858 618.827 16.3591 603.963 16.2223C588.996 16.0844 578.726 19.5619 570.866 25.1339C563.038 30.683 557.683 38.2562 552.47 46.1082C551.961 46.8753 551.452 47.6457 550.943 48.4179C541.01 63.469 530.62 79.2119 503.673 85.3336C484.187 89.7605 469.449 86.2687 457.007 78.7087C444.504 71.1122 434.284 59.391 423.893 47.2309C423.516 46.7902 423.139 46.3489 422.762 45.9072C402.412 22.076 381.154 -2.81821 340.948 1.48944C323.09 3.40266 310.466 7.20149 300.457 11.9115C290.845 16.4349 283.679 21.7849 276.677 27.0131C276.395 27.2237 276.113 27.4342 275.831 27.6444C268.55 33.0762 261.338 38.3413 251.524 42.5283C241.714 46.7132 229.257 49.8393 211.507 50.9004C169.366 53.4195 146.4 36.3646 127.319 21.923C127.11 21.7652 126.902 21.6076 126.694 21.4504C117.417 14.4263 108.902 7.98013 99.4962 4.95103C89.7868 1.82417 79.2091 2.35287 65.9218 9.26701C52.5783 16.2104 42.7034 24.0948 35.657 33.239C28.6065 42.3884 24.4245 52.7516 22.4006 64.5952C18.3635 88.2194 22.9085 117.817 30.4025 155.59C32.2492 164.898 32.1774 176.708 30.855 190.47C29.5338 204.221 26.9719 219.851 23.876 236.776C22.3967 244.863 20.7955 253.245 19.1508 261.855C13.9174 289.251 8.24435 318.949 4.66069 348.767C-4.74935 427.065 0.151176 506.876 65.8468 548.651Z" stroke="white" stroke-width="2"/>
</svg>
