<svg width="603" height="263" viewBox="0 0 603 263" fill="none" xmlns="http://www.w3.org/2000/svg">
<path d="M116.477 2.45919C36.0344 1.92988 -1.38118 64.4949 1.11719 134.103C3.53457 201.454 41.3675 264.73 119.098 261.207C168.198 258.982 177.693 249.764 226.592 245.319C270.726 241.307 305.926 263.475 349.817 257.802C379.488 253.968 398.49 247.368 428.471 246.454C468.578 245.231 485.594 261.652 525.478 257.802C584.812 252.075 601.902 177.842 601.51 126.159C601.124 75.2953 579.75 9.4063 521.546 2.45919C482.76 -2.17015 464.773 19.7409 425.85 16.0775C393.525 13.0352 388.411 7.25746 356.372 2.45919C309.894 -4.50138 273.649 15.5491 226.592 18.3472C171.584 21.6182 163.183 2.76652 116.477 2.45919Z" fill="#FFE76A" stroke="black" stroke-width="1.4"/>
</svg>
