<svg width="328" height="144" viewBox="0 0 328 144" fill="none" xmlns="http://www.w3.org/2000/svg">
<path d="M307.002 116.924C291.879 132.485 273.892 134.157 254.646 131.967C247.195 131.12 239.433 129.678 231.531 128.21C229.286 127.792 227.029 127.373 224.765 126.965C214.472 125.109 203.92 123.456 193.128 123.106C176.704 122.574 160.058 125.076 143.675 128.399C137.091 129.735 130.491 131.218 123.969 132.683C114.42 134.829 105.037 136.937 96.1142 138.491C81.0029 141.122 66.5943 142.298 53.6737 139.485C40.6335 136.647 29.2231 129.77 20.1648 116.591C9.84055 101.57 3.83649 85.871 3.46799 70.2893C3.09833 54.6588 8.40735 39.3672 20.3178 25.2597C30.7745 12.874 42.8377 6.68378 56.0847 4.45312C69.2306 2.23951 83.4255 3.9448 98.1828 7.08691C106.768 8.91495 115.757 11.2841 124.908 13.6957C131.365 15.3975 137.902 17.1204 144.434 18.6892C160.393 22.5221 176.729 25.5525 193.218 25.6051C203.974 25.6393 214.543 24.3514 224.874 22.8334C227.31 22.4754 229.739 22.1035 232.156 21.7335C239.924 20.5442 247.563 19.3747 254.891 18.751C274.211 17.1067 292.223 19.1681 307.028 34.8614C318.539 47.0621 324.494 61.482 324.545 75.9785C324.596 90.4823 318.735 104.85 307.002 116.924Z" stroke="black" stroke-width="5.1"/>
</svg>
