<svg width="429" height="122" viewBox="0 0 429 122" fill="none" xmlns="http://www.w3.org/2000/svg">
<path d="M219.967 16.89C202.758 16.9141 184.782 14.7113 166.78 11.9382C160.202 10.9248 153.613 9.83401 147.058 8.74883C135.705 6.86924 124.453 5.00652 113.535 3.59231C79.1184 -0.865489 47.4671 -0.960206 25.1356 17.0941C5.88012 32.6615 -2.02029 54.3584 2.21001 73.7809C6.44643 93.2315 22.7937 110.167 51.5376 116.308C67.7638 119.775 83.8174 119.037 99.9477 117.017C106.937 116.142 113.956 115.024 121.009 113.901C122.092 113.728 123.177 113.555 124.262 113.383C132.418 112.091 140.629 110.838 148.947 109.98C191.473 105.594 227.173 110.352 260.605 114.808C264.876 115.377 269.11 115.942 273.316 116.481C310.434 121.244 345.406 124.086 384.509 111.283C409.479 103.108 424.196 85.3013 427.048 66.3258C429.903 47.3284 420.832 27.3656 398.667 15.0079C374.595 1.58703 346.663 2.10376 316.471 5.91132C307.715 7.01551 298.772 8.39525 289.666 9.79996C267.286 13.2528 243.927 16.8565 219.967 16.89Z" stroke="white" stroke-width="1.8"/>
</svg>
