<svg width="466" height="23" viewBox="0 0 466 23" fill="none" xmlns="http://www.w3.org/2000/svg">
<path d="M1 19.9536C1 19.9536 19.7326 2.29518 36.4856 3.22016C51.3632 4.0416 57.353 19.4375 72.2471 19.9536C88.2608 20.5086 98.3264 3.53393 114.348 3.20536C131.127 2.86123 135.466 18.1286 152.13 19.9536C174.632 22.4179 180.534 -0.469359 203.005 2.22016C219.269 4.16682 225.345 20.6936 241.729 19.9536C256.615 19.2813 263.644 4.9028 278.432 3.20536C297.772 0.985401 302.175 22.2836 321.612 20.9388C337.968 19.8072 343.011 1.48018 359.394 2.22016C374.281 2.89255 381.267 18.5992 396.097 19.9536C414.329 21.6186 417.951 0.540415 436.039 3.20536C449.318 5.1617 465.186 19.9536 465.186 19.9536" stroke="white" stroke-width="2.1"/>
</svg>
