<svg width="1440" height="74" viewBox="0 0 1440 74" fill="none" xmlns="http://www.w3.org/2000/svg">
<path d="M84.1785 73.7273C47.8567 74.2882 -4 46.7441 -4 46.7441V0H1442V73.7273C1395.61 77.2869 1375.23 44.7873 1328.65 46.7441C1288.99 48.4102 1273.88 72.4291 1234.19 73.7273C1189.33 75.1949 1170.39 44.6995 1125.57 46.7441C1087.62 48.475 1073.83 72.7895 1035.83 73.7273C994.411 74.7496 978.1 46.9738 936.654 46.7441C894.345 46.5096 877.414 73.0782 835.113 73.7273C790.209 74.4163 771.244 44.0693 726.487 46.7441C690.283 48.9077 677.679 71.5637 641.476 73.7273C596.718 76.4021 577.607 44.0693 532.85 46.7441C496.646 48.9077 484.115 72.3205 447.839 73.7273C406.452 75.3322 390.045 45.1392 348.659 46.7441C312.382 48.1508 299.924 72.3205 263.647 73.7273C222.261 75.3322 205.795 44.5006 164.467 46.7441C129.914 48.6198 118.823 73.1923 84.1785 73.7273Z" fill="#FFE76A"/>
</svg>
