<svg width="1440" height="31" viewBox="0 0 1440 31" fill="none" xmlns="http://www.w3.org/2000/svg">
<path d="M-4 2.16791C-4 2.16791 47.8567 29.712 84.1785 29.1511C118.823 28.6162 129.914 4.04358 164.467 2.16791C205.795 -0.0755301 222.261 30.756 263.647 29.1511C299.924 27.7444 312.382 3.57466 348.659 2.16791C390.045 0.563013 406.452 30.756 447.839 29.1511C484.115 27.7444 496.646 4.33155 532.85 2.16791C577.607 -0.506919 596.718 31.826 641.476 29.1511C677.679 26.9875 690.283 4.33155 726.487 2.16791C771.244 -0.506919 790.209 29.8401 835.113 29.1511C877.414 28.502 894.345 1.93345 936.654 2.16791C978.1 2.39759 994.411 30.1734 1035.83 29.1511C1073.83 28.2133 1087.62 3.89882 1125.57 2.16791C1170.39 0.123315 1189.33 30.6187 1234.19 29.1511C1273.88 27.8529 1288.99 3.83405 1328.65 2.16791C1375.23 0.211126 1395.61 32.7108 1442 29.1511" stroke="#FFE76A" stroke-width="3"/>
</svg>
