<svg width="294" height="105" viewBox="0 0 294 105" fill="none" xmlns="http://www.w3.org/2000/svg">
<path d="M147.761 90.0414C159.793 90.0873 171.578 91.8397 183.008 94.0458C187.823 94.9751 192.607 95.9923 197.32 96.9943C203.725 98.3563 210 99.6904 216.043 100.738C237.108 104.39 256.416 104.789 272.386 91.158C286.073 79.475 293.542 62.3857 292.434 46.9282C291.879 39.1847 289.167 31.8404 283.991 25.8277C278.813 19.813 271.225 15.196 261.025 12.8135C243.989 8.83419 231.776 10.6442 217.03 12.8296C212.011 13.5734 206.698 14.3607 200.802 14.978C172.168 17.976 146.012 13.1467 121.223 8.56989C116.931 7.77732 112.679 6.99233 108.463 6.25686C79.9723 1.28721 53.0829 -1.41471 26.604 11.6668C9.08323 20.3227 1.50191 34.3711 2.11608 49.1101C2.72687 63.7681 11.4301 78.8943 26.008 89.9038C42.7305 102.533 61.5458 102.396 81.8686 99.2542C87.8368 98.3316 93.925 97.1545 100.142 95.9524C115.214 93.0383 131.044 89.9777 147.761 90.0414Z" stroke="black" stroke-width="2.4"/>
</svg>
