<svg width="238" height="87" viewBox="0 0 238 87" fill="none" xmlns="http://www.w3.org/2000/svg">
<path d="M119.383 76.1003C129.144 76.1383 138.702 77.4665 147.974 79.1073C151.456 79.7236 154.911 80.3868 158.321 81.0414C163.951 82.1221 169.46 83.1795 174.771 83.9642C191.865 86.49 207.518 86.3024 220.462 75.0169C231.565 65.3362 237.617 51.1819 236.719 38.3857C236.269 31.9755 234.072 25.8932 229.874 20.9114C225.673 15.9268 219.514 12.0986 211.235 10.123C196.425 6.58944 186.15 7.92111 172.963 9.63003C169.659 10.0581 166.173 10.5099 162.387 10.9148C139.309 13.383 118.218 9.62393 98.2237 6.06007C94.6205 5.41784 91.0529 4.78195 87.5156 4.18998C64.4101 0.32326 42.5995 -1.66203 21.1224 9.17642C6.90299 16.3522 0.761313 27.9924 1.25891 40.1908C1.75393 52.3257 8.80821 64.8555 20.6346 73.9788C34.1881 84.4346 49.4402 84.8365 65.9318 82.7347C71.1357 82.0715 76.5133 81.1508 82.0122 80.2094C85.2011 79.6634 88.4308 79.1105 91.6909 78.5967C100.608 77.1915 109.839 76.0632 119.383 76.1003Z" stroke="black" stroke-width="2"/>
</svg>
