<svg width="108" height="103" viewBox="0 0 108 103" fill="none" xmlns="http://www.w3.org/2000/svg">
<path d="M68.3742 22.2368C84.2735 27.6197 93.4333 29.0846 97.5362 45.2592C105.449 76.4521 45.882 95.5012 20.7313 72.7609C6.75226 60.1216 11.2786 36.9514 25.7355 23.5743C38.8533 11.4364 51.8732 16.6501 68.3742 22.2368Z" stroke="black" stroke-width="2"/>
<path d="M75.2488 49.9636C75.7565 50.4713 75.7565 51.2944 75.2488 51.8021L66.9756 60.0752C66.468 60.5829 65.6448 60.5829 65.1372 60.0752C64.6295 59.5675 64.6295 58.7444 65.1372 58.2367L72.4911 50.8828L65.1372 43.5289C64.6295 43.0212 64.6295 42.1981 65.1372 41.6904C65.6448 41.1827 66.468 41.1827 66.9756 41.6904L75.2488 49.9636ZM38.6475 49.5828L74.3296 49.5828V52.1828L38.6475 52.1828V49.5828Z" fill="#FFE76A"/>
</svg>
