<svg width="1440" height="34" viewBox="0 0 1440 34" fill="none" xmlns="http://www.w3.org/2000/svg">
<path d="M-3 32.8051C-3 32.8051 43.1208 0.663754 77.5263 1.31822C110.343 1.94248 120.849 30.6164 153.579 32.8051C192.727 35.423 208.323 -0.554539 247.526 1.31822C281.889 2.95977 293.69 31.1635 328.053 32.8051C367.256 34.6779 382.797 -0.554539 422 1.31822C456.363 2.95977 468.233 30.2803 502.526 32.8051C544.922 35.9264 563.025 -1.80305 605.421 1.31822C639.715 3.84298 651.654 30.2803 685.947 32.8051C728.343 35.9264 746.308 0.514193 788.842 1.31822C828.911 2.07565 844.949 33.0787 885.026 32.8051C924.286 32.5371 939.736 0.1253 978.974 1.31822C1014.97 2.41259 1028.03 30.7853 1063.97 32.8051C1106.43 35.1909 1124.37 -0.394312 1166.87 1.31822C1204.46 2.83308 1218.77 30.8609 1256.34 32.8051C1300.46 35.0885 1319.77 -2.83555 1363.71 1.31822C1397.14 4.4776 1442 32.8051 1442 32.8051" stroke="white" stroke-width="1.3"/>
</svg>
