<svg width="1440" height="116" viewBox="0 0 1440 116" fill="none" xmlns="http://www.w3.org/2000/svg">
<path d="M81.5263 0.318225C47.1208 -0.336246 -2 31.805 -2 31.805V116L1446 116V31.805C1446 31.805 1401.14 3.4776 1367.71 0.318225C1323.77 -3.83555 1304.46 34.0884 1260.34 31.805C1222.77 29.8608 1208.46 1.83308 1170.87 0.318225C1128.37 -1.39431 1110.43 34.1909 1067.97 31.805C1032.03 29.7852 1018.97 1.41259 982.974 0.318225C943.736 -0.8747 928.286 31.537 889.026 31.805C848.949 32.0786 832.911 1.07565 792.842 0.318225C750.308 -0.485806 732.343 34.9263 689.947 31.805C655.654 29.2803 643.715 2.84299 609.421 0.318225C567.025 -2.80305 548.922 34.9263 506.526 31.805C472.233 29.2803 460.363 1.95977 426 0.318225C386.797 -1.55454 371.256 33.6778 332.053 31.805C297.69 30.1635 285.889 1.95977 251.526 0.318225C212.323 -1.55454 196.727 34.4229 157.579 31.805C124.849 29.6163 114.343 0.942479 81.5263 0.318225Z" fill="white"/>
</svg>
