<svg width="122" height="125" viewBox="0 0 122 125" fill="none" xmlns="http://www.w3.org/2000/svg">
<path d="M94.9749 46.4209C88.778 28.5977 87.0916 18.3295 68.4712 13.7301C32.5618 4.86015 10.6323 71.6349 36.8111 99.8291C51.3616 115.5 78.0353 110.426 93.4351 94.2193C107.408 79.5142 101.406 64.9187 94.9749 46.4209Z" stroke="white" stroke-width="2"/>
<path d="M62.9192 41.8256C62.4116 41.318 61.5884 41.318 61.0808 41.8256L52.8076 50.0988C52.2999 50.6065 52.2999 51.4296 52.8076 51.9373C53.3153 52.4449 54.1384 52.4449 54.6461 51.9373L62 44.5834L69.3539 51.9373C69.8616 52.4449 70.6847 52.4449 71.1924 51.9373C71.7001 51.4296 71.7001 50.6065 71.1924 50.0988L62.9192 41.8256ZM63.3 82.7449L63.3 42.7449H60.7L60.7 82.7449H63.3Z" fill="#FFE76A"/>
</svg>
