<svg width="122" height="125" viewBox="0 0 122 125" fill="none" xmlns="http://www.w3.org/2000/svg">
<path d="M94.9749 46.676C88.778 28.8528 87.0916 18.5846 68.4712 13.9852C32.5618 5.11528 10.6323 71.89 36.8111 100.084C51.3616 115.755 78.0353 110.681 93.4351 94.4744C107.408 79.7693 101.406 65.1738 94.9749 46.676Z" stroke="black" stroke-width="2"/>
<path d="M62.9192 42.0808C62.4116 41.5731 61.5884 41.5731 61.0808 42.0808L52.8076 50.3539C52.2999 50.8616 52.2999 51.6847 52.8076 52.1924C53.3153 52.7001 54.1384 52.7001 54.6461 52.1924L62 44.8385L69.3539 52.1924C69.8616 52.7001 70.6847 52.7001 71.1924 52.1924C71.7001 51.6847 71.7001 50.8616 71.1924 50.3539L62.9192 42.0808ZM63.3 83L63.3 43H60.7L60.7 83H63.3Z" fill="#FFE76A"/>
</svg>
