<svg width="502" height="249" viewBox="0 0 502 249" fill="none" xmlns="http://www.w3.org/2000/svg">
<path d="M97.0615 2.14926C30.144 1.6466 -0.98083 61.0609 1.09749 127.163C3.10843 191.123 34.5805 251.212 99.242 247.867C140.087 245.753 147.986 237 188.663 232.779C225.377 228.968 254.659 250.02 291.17 244.633C315.853 240.992 331.66 234.725 356.601 233.856C389.964 232.695 404.12 248.289 437.298 244.633C486.656 239.195 500.873 168.7 500.546 119.619C500.225 71.3174 482.445 8.74651 434.026 2.14926C401.762 -2.24695 386.799 18.5607 354.42 15.0818C327.53 12.1926 323.276 6.70589 296.623 2.14926C257.96 -4.46078 227.808 14.5799 188.663 17.2372C142.904 20.3434 135.915 2.44111 97.0615 2.14926Z" fill="white" stroke="black" stroke-width="1.2"/>
</svg>
