<svg width="502" height="249" viewBox="0 0 502 249" fill="none" xmlns="http://www.w3.org/2000/svg">
<path d="M97.5098 2.38571C30.5923 1.88305 -0.532588 61.2973 1.54573 127.4C3.55667 191.359 35.0288 251.449 99.6902 248.103C140.535 245.99 148.434 237.237 189.111 233.015C225.825 229.205 255.107 250.256 291.618 244.87C316.301 241.228 332.108 234.961 357.049 234.093C390.412 232.931 404.568 248.526 437.746 244.87C487.104 239.431 501.321 168.936 500.994 119.856C500.673 71.5538 482.893 8.98296 434.474 2.38571C402.21 -2.0105 387.247 18.7971 354.868 15.3182C327.978 12.4291 323.724 6.94234 297.071 2.38571C258.408 -4.22433 228.257 14.8164 189.111 17.4736C143.352 20.5798 136.363 2.67756 97.5098 2.38571Z" fill="#FFE76A" stroke="black" stroke-width="1.2"/>
</svg>
