<svg width="55" height="52" viewBox="0 0 55 52" fill="none" xmlns="http://www.w3.org/2000/svg">
<g id="2Yellow Ninja- Mask3-Char2" clip-path="url(#clip0_1146_212)">
<g id="Group">
<g id="Group_2">
<g id="Group_3">
<g id="Group_4">
<path id="Vector" d="M11.9413 32.2813C11.9413 32.2813 6.34149 27.7624 4.01964 26.7354C3.6099 26.5985 3.33674 26.53 3.13187 26.53C2.85871 26.5985 2.51726 26.7354 2.38068 26.8723C-0.350911 28.584 2.99529 34.2669 4.42938 36.184C5.18057 37.074 7.70729 39.9497 10.1657 40.7713C12.2144 41.5244 15.2875 41.1821 15.2875 41.1821" fill="white"/>
<path id="Vector_2" d="M13.8542 41.7983C14.6737 41.7983 15.22 41.7298 15.2883 41.7298L15.22 40.7713C15.1518 40.7713 12.147 41.0452 10.3032 40.3605C8.1179 39.6073 5.59117 37.0056 4.83998 35.9786C3.67906 34.4723 1.42549 30.6381 1.83523 28.4471C1.90352 27.9678 2.17668 27.557 2.58642 27.2832C2.65471 27.2147 2.99616 27.0093 3.20103 27.0093C3.26932 27.0093 3.47419 27.0093 3.81564 27.1462C6.0692 28.1048 11.5324 32.5552 11.6007 32.6236L12.2153 31.8705C12.0104 31.7336 6.54723 27.3516 4.22538 26.2561C3.81564 26.0507 3.47419 25.9823 3.13274 25.9823C2.723 26.0507 2.38155 26.2561 2.10839 26.3931C1.49378 26.8039 1.01575 27.4201 0.879173 28.2417C0.401144 30.9804 3.06445 35.1569 4.02051 36.4578C4.63511 37.211 7.29842 40.2236 9.89343 41.1821C11.1909 41.7298 12.7616 41.7983 13.8542 41.7983Z" fill="black"/>
</g>
<g id="Group_5">
<path id="Vector_3" d="M13.8543 39.7443C14.0592 39.7443 14.2641 39.6073 14.3324 39.4019C14.4006 39.1281 14.2641 38.8542 13.9909 38.7857C11.8739 38.1695 9.41548 37.4164 9.14232 37.211C9.14232 37.1425 8.86916 36.8002 9.89351 34.8146C10.0301 34.5407 10.4398 33.7191 7.57166 31.1858C7.36679 31.0489 7.23021 30.9119 7.09363 30.775C5.86441 29.6111 4.02059 27.8994 1.63044 28.3102C1.35728 28.3102 1.2207 28.584 1.2207 28.8579C1.28899 29.1318 1.49386 29.2687 1.83531 29.2687C3.81572 28.9264 5.2498 30.3642 6.47902 31.5282C6.6156 31.6651 6.82047 31.802 6.95705 31.939C8.73259 33.5137 9.07403 34.3353 9.00574 34.4723C8.32285 35.9101 7.77653 37.4164 8.59601 38.0326C9.2789 38.4434 13.0348 39.4704 13.8543 39.7443C13.786 39.7443 13.7177 39.7443 13.8543 39.7443Z" fill="black"/>
</g>
</g>
<g id="Group_6">
<g id="Group_7">
<path id="Vector_4" d="M43.1509 31.802C43.1509 31.802 48.7507 27.2832 51.0725 26.2561C51.4823 26.1192 51.7554 26.0507 51.9603 26.0507C52.2334 26.1192 52.5749 26.2561 52.7115 26.3931C55.4431 28.1048 52.0969 33.7876 50.6628 35.7047C49.9116 36.5948 47.3849 39.4704 44.9264 40.292C42.8777 41.0452 39.8047 40.7028 39.8047 40.7028" fill="white"/>
<path id="Vector_5" d="M41.1704 41.2506C40.3509 41.2506 39.8046 41.1821 39.7363 41.1821L39.8046 40.2236C39.8729 40.2236 42.8777 40.4974 44.7215 39.8127C46.9068 39.0596 49.4335 36.4578 50.1847 35.4308C51.2773 33.993 53.5309 30.1588 53.1211 28.0363C53.0528 27.4886 52.7797 27.1462 52.3699 26.8723C52.3017 26.8039 51.9602 26.5985 51.7553 26.5985C51.687 26.5985 51.4822 26.5985 51.1407 26.7354C48.8872 27.694 43.424 32.1444 43.3557 32.2128L42.7411 31.4597C43.0142 31.2543 48.4091 26.8723 50.7993 25.8453C51.209 25.6399 51.5505 25.5715 51.8919 25.5715C52.3017 25.6399 52.6431 25.8453 52.9163 25.9823C53.5309 26.3931 54.0089 27.0093 54.1455 27.8309C54.6235 30.5696 51.9602 34.7461 51.0042 36.047C50.3895 36.8002 47.7262 39.8127 45.1312 40.7713C43.902 41.1821 42.2631 41.2506 41.1704 41.2506Z" fill="black"/>
</g>
<g id="Group_8">
<path id="Vector_6" d="M41.2396 39.1965C41.0347 39.1965 40.8298 39.0596 40.7615 38.8542C40.6933 38.5803 40.8298 38.3065 41.103 38.238C43.22 37.6218 45.6784 36.8686 45.9516 36.6632C45.9516 36.5948 46.2247 36.2524 45.2004 34.2669C45.0638 33.993 44.6541 33.1714 47.5222 30.6381C47.6588 30.5011 47.7954 30.3642 47.932 30.2273C49.1612 29.0633 51.005 27.3516 53.3952 27.7624C53.6683 27.8309 53.8049 28.0363 53.8049 28.3786C53.7366 28.6525 53.5317 28.7894 53.1903 28.7894C51.2099 28.4471 49.7758 29.8849 48.5466 31.0489C48.41 31.1858 48.2051 31.3228 48.0686 31.4597C46.293 33.0344 45.9516 33.8561 46.0199 33.993C46.7028 35.4308 47.2491 36.9371 46.4296 37.5533C45.7467 37.8957 41.9908 38.9227 41.2396 39.1965C41.3079 39.1965 41.2396 39.1965 41.2396 39.1965Z" fill="black"/>
</g>
</g>
<g id="Group_9">
<path id="Vector_7" d="M30.3814 47.5496C35.0251 46.6595 37.4153 43.9893 38.4396 42.7569C40.0103 40.9767 41.5127 38.3749 42.3322 35.7047C43.5614 31.4597 43.4931 23.7913 43.0151 22.0796C41.8541 17.8346 39.3957 14.7536 35.23 12.8365C32.7033 11.6725 30.2449 11.3302 27.3084 11.3986C24.0988 11.4671 20.9574 12.2887 19.7965 12.8365C15.6991 14.7536 13.1041 17.7661 11.9432 22.0796C11.4651 23.8598 11.4651 31.5282 12.6944 35.7732C13.5138 38.5119 15.0162 41.0452 16.5869 42.8253C17.6795 44.0577 20.0014 46.728 24.6451 47.6181C25.2597 47.6865 26.8986 47.8919 27.5815 47.8919C28.3327 47.755 29.7668 47.6865 30.3814 47.5496Z" fill="white"/>
<path id="Vector_8" d="M27.6494 48.3027C26.8982 48.3027 25.2592 48.1658 24.5763 48.0289C19.7277 47.1388 17.2693 44.2631 16.2449 43.0992C14.4694 41.1136 13.0353 38.3749 12.2158 35.8416C10.9866 31.5966 10.9866 23.7913 11.4647 21.9427C12.6939 17.4923 15.3572 14.3428 19.5911 12.4257C20.6838 11.8779 23.8251 11.0563 27.3079 10.9878C30.5175 10.9194 33.0442 11.3986 35.4344 12.4257C39.6001 14.3428 42.2634 17.4923 43.4926 22.0111C44.0389 23.9967 44.1072 31.7336 42.8097 35.9101C42.0585 38.5119 40.5561 41.1821 38.7806 43.1677C37.688 44.4001 35.2295 47.2073 30.3809 48.0973C29.8346 48.1658 28.4005 48.3027 27.6494 48.3027ZM28.0591 11.8094C27.7859 11.8094 27.6494 11.8094 27.3762 11.8094C24.2349 11.8779 21.1618 12.6995 20.0692 13.1788C16.1084 15.0274 13.6499 17.9031 12.489 22.0796C12.011 23.8598 12.0793 31.4597 13.2402 35.4993C13.9914 37.8957 15.3572 40.4974 17.0644 42.4145C18.0205 43.51 20.3423 46.1802 24.8495 47.0019C25.4641 47.0703 26.9665 47.2757 27.7176 47.2757C28.4005 47.2757 29.7663 47.1388 30.3127 47.0019C34.8198 46.1802 37.1416 43.51 38.0977 42.4145C39.7367 40.4974 41.1707 37.8957 41.9219 35.4993C43.1511 31.2543 43.0146 23.7228 42.6048 22.0796C41.4439 17.8346 38.9855 14.959 35.0929 13.1788C33.0442 12.2887 30.7907 11.8094 28.0591 11.8094Z" fill="black"/>
</g>
<g id="Group_10">
<g id="Group_11">
<path id="Vector_9" d="M23.1426 38.1011C23.2109 37.6902 23.6206 37.4848 24.3718 37.4848C25.8059 37.4164 31.3374 37.211 32.0885 37.2794C32.8397 37.3479 32.9763 37.6218 32.9763 37.8272C32.9763 38.1695 32.7714 38.4434 32.4983 38.7857C31.7471 39.8127 30.2447 41.5244 29.4252 41.8668C28.3326 42.4145 27.3083 42.2776 26.4888 41.7983C25.8742 41.3875 24.3718 40.2236 23.5523 39.0596C23.2792 38.7857 23.1426 38.4434 23.1426 38.1011Z" fill="white"/>
<path id="Vector_10" d="M27.854 42.7569C27.2394 42.7569 26.6931 42.6199 26.1468 42.2776C25.5322 41.8668 23.8932 40.6344 23.0737 39.3335L23.0054 39.1965C22.8006 38.8542 22.5957 38.5119 22.5957 38.0326C22.664 37.6218 22.9372 37.0056 24.3029 36.9371C25.5322 36.8686 31.2685 36.6632 32.0197 36.7317C33.1123 36.8686 33.3172 37.4164 33.3172 37.7587C33.3172 38.238 33.044 38.5803 32.8392 38.9227L32.7709 38.9911C32.0197 40.0181 30.5173 41.7983 29.5613 42.2091C29.0149 42.6199 28.4686 42.7569 27.854 42.7569ZM23.6201 38.1695C23.6201 38.3065 23.6883 38.5119 23.8932 38.7173L23.9615 38.8542C24.7127 39.9497 26.1468 41.1136 26.6931 41.456C27.4443 41.8668 28.2638 41.8668 29.1515 41.456C29.8344 41.1821 31.2002 39.6758 32.0197 38.5119L32.088 38.4434C32.2929 38.1695 32.3611 38.0326 32.3611 37.8957C32.2929 37.8272 32.1563 37.8272 31.9514 37.8272C31.2685 37.7587 25.8053 37.8956 24.3029 37.9641C23.8249 38.0326 23.6201 38.1011 23.6201 38.1695Z" fill="black"/>
</g>
<g id="Group_12">
<path id="Vector_11" d="M27.9226 41.5929C27.9226 41.5929 27.786 40.0182 27.5128 39.4704C27.4446 39.3335 27.308 39.1965 27.1714 39.0596C27.0348 38.9911 26.8299 38.9911 26.6934 38.9911C26.0788 38.9911 25.669 39.0596 25.2593 39.1965C24.9861 39.265 24.9178 39.4019 24.8495 39.6073C24.7813 39.8127 24.7813 40.1551 24.9178 40.3605C25.191 41.319 25.8739 43.1677 26.6934 44.4686C26.9665 44.9478 27.308 45.2217 27.5811 45.3586C27.9909 45.4956 28.3323 45.3586 28.6055 45.1532C29.2201 44.7424 29.6298 43.9208 30.0396 43.0992C30.4493 42.2776 30.9273 41.0452 30.9956 40.292C31.0639 39.8127 30.9273 39.4704 30.5859 39.265C30.3127 39.1281 29.8347 38.9911 29.4933 38.9227C29.1518 38.8542 28.7421 38.7857 28.5372 38.9227C28.3323 38.9911 28.1957 39.1965 28.1275 39.4704C27.9909 40.292 27.9226 41.5929 27.9226 41.5929Z" fill="#CC697A"/>
<path id="Vector_12" d="M27.8547 45.8379C27.7181 45.8379 27.5815 45.8379 27.4449 45.7694C27.0352 45.6325 26.6255 45.2902 26.284 44.674C25.5328 43.4415 24.7133 41.5244 24.4402 40.429C24.3719 40.1551 24.3036 39.6758 24.4402 39.3335C24.5768 38.9911 24.8499 38.7857 25.1231 38.7173C25.5328 38.5119 26.0108 38.4434 26.6937 38.4434C26.8986 38.4434 27.1035 38.5119 27.4449 38.5803C27.5815 38.6488 27.7181 38.7857 27.8547 38.9227C27.923 38.6488 28.1961 38.5119 28.4693 38.3065C28.879 38.1011 29.3571 38.238 29.6985 38.3065C30.1082 38.3749 30.5863 38.5119 30.9277 38.7173C31.4057 38.9911 31.6106 39.5389 31.5423 40.2236C31.4057 41.1136 30.9277 42.3461 30.518 43.1677C30.1082 44.0577 29.6985 44.9478 28.9473 45.4271C28.6742 45.6325 28.3327 45.8379 27.8547 45.8379ZM26.6255 39.4704C26.1474 39.4704 25.7377 39.5389 25.5328 39.6073C25.3962 39.6758 25.3962 39.6758 25.3279 39.7443C25.3279 39.8127 25.328 40.0182 25.3962 40.2236C25.6694 41.1136 26.284 42.8938 27.1035 44.1262C27.3766 44.537 27.6498 44.7424 27.7181 44.8109C27.923 44.8794 28.1278 44.8794 28.3327 44.674C28.8107 44.3316 29.2205 43.5785 29.5619 42.8253C29.9034 42.0722 30.4497 40.9082 30.518 40.0866C30.5863 39.6758 30.4497 39.6073 30.3814 39.5389C30.1765 39.4704 29.7668 39.3335 29.4936 39.265C28.9473 39.265 28.8107 39.265 28.8107 39.265C28.7424 39.265 28.7424 39.3335 28.6742 39.4704C28.5376 40.3605 28.401 41.5929 28.401 41.5929C28.401 41.8668 28.1278 42.0037 27.923 42.0037C27.7181 42.0037 27.4449 41.7983 27.4449 41.5929C27.3766 40.9767 27.2401 39.9497 27.1035 39.6073C27.1035 39.5389 27.0352 39.5389 27.0352 39.4704C26.9669 39.4019 26.8303 39.4019 26.762 39.4019C26.6255 39.4704 26.6255 39.4704 26.6255 39.4704Z" fill="black"/>
</g>
</g>
</g>
<g id="Group_13">
<g id="Group_14">
<path id="Vector_13" d="M25.4647 24.6129C25.4647 24.6129 25.8744 28.6525 25.533 30.775C25.1232 33.3083 22.7331 35.2254 19.7966 34.8831C16.3821 34.4723 14.47 30.4327 13.7871 28.4471C13.7871 28.4471 15.6309 27.2147 19.7283 25.8453C21.777 25.1607 23.4843 24.8183 25.4647 24.6129Z" fill="#DDDDDD"/>
<path id="Vector_14" d="M20.479 35.3623C20.2058 35.3623 20.0009 35.3623 19.7278 35.2939C15.6304 34.8146 13.65 29.6111 13.3085 28.5156L13.2402 28.1732L13.5134 27.9678C13.5817 27.8994 15.4255 26.6669 19.5912 25.2976C21.3667 24.6814 23.074 24.339 25.3275 24.0652L25.8056 23.9967L25.8739 24.476C25.8739 24.6129 26.2836 28.584 25.9421 30.775C25.6007 33.5137 23.2106 35.3623 20.479 35.3623ZM14.4695 28.6525C15.0158 30.0903 16.723 33.993 19.9326 34.4038C22.4594 34.7461 24.7129 33.1029 25.1227 30.7065C25.3958 29.1318 25.191 26.3246 25.0544 25.0922C23.074 25.3661 21.5716 25.7084 20.0009 26.1877C16.9279 27.2832 15.1523 28.2417 14.4695 28.6525Z" fill="black"/>
</g>
<g id="Group_15">
<path id="Vector_15" d="M29.4243 24.6129C29.4243 24.6129 29.2194 28.2417 29.6291 30.3642C30.0389 32.6236 32.0193 34.9515 35.3655 34.4723C38.9848 33.9245 40.8287 29.4741 41.1701 27.4201C41.1701 27.4201 39.0531 26.1192 35.2972 25.3661C33.4534 24.8868 31.2681 24.6814 29.4243 24.6129Z" fill="#DDDDDD"/>
<path id="Vector_16" d="M34.4087 35.02C31.4723 35.02 29.4919 32.829 29.0821 30.4327C28.6724 28.2417 28.809 24.6814 28.809 24.5444L28.8773 24.0652L29.3553 24.1336C31.8137 24.2706 33.7258 24.5444 35.2965 24.8183C39.0524 25.5715 41.2377 26.8723 41.3743 26.9408L41.6475 27.1462L41.5792 27.4886C41.1694 30.0903 39.0524 34.4038 35.3648 34.9515C35.0916 34.9515 34.7502 35.02 34.4087 35.02ZM29.8333 25.0922C29.765 26.1877 29.765 28.6525 30.1065 30.2957C30.5162 32.4867 32.4283 34.4038 35.2965 33.993C38.6427 33.5137 40.2134 29.4057 40.6914 27.6255C40.0085 27.2147 38.0964 26.3931 35.2965 25.7084C33.7941 25.4345 32.0186 25.2291 29.8333 25.0922Z" fill="black"/>
</g>
<g id="Group_16">
<path id="Vector_17" d="M40.282 36.3894C39.804 38.1011 39.1211 39.7443 37.209 42.483L41.3064 48.9874C41.3064 48.9874 44.038 44.1947 44.3111 38.7857C44.516 34.8831 44.038 32.3498 43.9014 30.7065C43.6282 28.5156 43.1502 25.7769 43.1502 25.7769L40.8283 26.4615C40.8283 26.4615 41.2381 28.7894 41.1015 31.7336C40.8966 33.7191 40.6235 35.1569 40.282 36.3894Z" fill="#EACCA0"/>
<path id="Vector_18" d="M41.238 49.4667C41.1015 49.4667 40.8966 49.3982 40.8283 49.1928L36.7309 42.6884C36.6626 42.5515 36.6626 42.2776 36.7309 42.1407C38.5747 39.5389 39.1893 38.0326 39.7357 36.2524C40.1454 34.8146 40.4186 33.3083 40.4868 31.802C40.6234 28.9264 40.2137 26.5985 40.2137 26.5985C40.1454 26.3246 40.282 26.1192 40.5551 26.0507L42.8087 25.2976C42.9453 25.2291 43.0819 25.2291 43.2184 25.3661C43.355 25.4345 43.4233 25.5715 43.4916 25.7084C43.4916 25.7769 43.9696 28.4471 44.2428 30.6381L44.3111 31.1858C44.5842 32.829 44.9257 35.2939 44.7208 38.8542C44.4477 44.2632 41.7844 49.0559 41.6478 49.2613C41.5795 49.3298 41.4429 49.4667 41.238 49.4667ZM37.7553 42.483L41.238 48.0289C41.9892 46.4541 43.5599 42.7569 43.833 38.7857C44.0379 35.2939 43.6965 33.0344 43.4233 31.3228L43.355 30.775C43.1501 29.2003 42.8087 27.3516 42.6721 26.4615L41.3746 26.8723C41.4429 27.694 41.6478 29.6111 41.5795 31.8705C41.5112 33.5137 41.238 34.9515 40.76 36.5263C40.2137 38.3065 39.5308 39.9497 37.7553 42.483Z" fill="black"/>
</g>
<g id="Group_17">
<path id="Vector_19" d="M10.5766 36.6632C9.96199 38.3749 9.27909 39.8812 7.16211 42.5515L10.9181 49.2613C10.9181 49.2613 13.8545 44.6055 14.4691 39.265C14.8789 35.3623 14.5374 32.829 14.4008 31.1173C14.196 28.9264 13.8545 26.2561 13.8545 26.2561L11.601 26.8723C11.601 26.8723 11.8741 29.2002 11.5327 32.1444C11.3278 34.0615 10.9863 35.4993 10.5766 36.6632Z" fill="#EACCA0"/>
<path id="Vector_20" d="M10.9176 49.809C10.8493 49.809 10.9176 49.809 10.9176 49.809C10.7127 49.809 10.5761 49.7406 10.5078 49.5352L6.75189 42.8253C6.6836 42.6199 6.6836 42.483 6.82018 42.2776C8.73229 39.8128 9.55177 38.3065 10.1664 36.5263C10.7127 35.0885 10.9859 33.6507 11.1907 32.1444C11.4639 29.2687 11.259 26.9408 11.259 26.9408C11.1907 26.6669 11.3956 26.53 11.6005 26.3931L13.854 25.7769C13.9906 25.7084 14.1272 25.7769 14.2638 25.8453C14.3321 25.9138 14.4686 26.0507 14.4686 26.1877C14.4686 26.2561 14.8101 28.9264 15.015 31.1173L15.0832 31.6651C15.2198 33.3083 15.4247 35.7732 15.0832 39.3335C14.4686 44.7424 11.6005 49.3982 11.5322 49.6036C11.1907 49.6721 11.0541 49.809 10.9176 49.809ZM7.70795 42.6199L10.9176 48.3027C11.737 46.7965 13.5126 43.2361 13.9906 39.1965C14.4004 35.7732 14.1272 33.4453 13.9906 31.6651L13.9223 31.1173C13.7857 29.5426 13.5809 27.694 13.4443 26.8039L12.1468 27.2147C12.2151 28.0363 12.2834 29.9534 12.0785 32.2128C11.8736 33.8561 11.5322 35.2939 10.9859 36.8002C10.3712 38.6488 9.62006 40.1551 7.70795 42.6199Z" fill="black"/>
</g>
<g id="Group_18">
<path id="Vector_21" d="M14.2641 15.3013C15.903 13.5211 17.6786 12.6995 17.4737 12.8365C16.9957 13.1103 15.0835 12.4257 13.786 11.1248C12.2154 9.55001 11.4642 8.523 10.8496 8.59146C9.89352 8.7284 9.27891 10.8509 10.4398 13.5896C11.3959 15.849 12.83 17.9031 12.83 17.9031C12.83 17.9031 13.6495 15.986 14.2641 15.3013Z" fill="#EACCA0"/>
<path id="Vector_22" d="M12.83 18.9301L12.3519 18.1769C12.2836 18.1085 10.9178 16.0544 9.96178 13.795C9.00572 11.5356 9.21059 9.82388 9.68862 8.9338C9.96178 8.45453 10.3032 8.18066 10.7813 8.11219C11.4642 8.04372 12.0105 8.59146 13.0348 9.61848C13.3763 9.96082 13.7177 10.3716 14.1275 10.714C15.3567 11.9464 16.9956 12.4257 17.2688 12.2887C17.4054 12.2203 17.542 12.2203 17.6785 12.2203L17.9517 12.2887L18.02 12.9049L17.6785 13.1103C17.6785 13.1103 17.6102 13.1103 17.6102 13.1788C17.3371 13.3157 15.903 14.0689 14.6055 15.5752C14.1275 16.0544 13.4446 17.5607 13.1714 18.04L12.83 18.9301ZM10.9178 9.07074C10.8495 9.07074 10.9178 9.07074 10.9178 9.07074C10.7813 9.07074 10.6447 9.20767 10.5081 9.41308C10.0984 10.0978 10.0984 11.604 10.7813 13.3842C11.3959 14.822 12.1471 16.1229 12.6251 16.8761C12.9665 16.2598 13.3763 15.3698 13.8543 14.959C14.4006 14.3428 15.2201 13.6581 15.9713 13.1103C15.0835 12.8365 14.1275 12.2203 13.3763 11.4671C12.9665 11.0563 12.5568 10.6455 12.2836 10.3032C11.7373 9.75542 11.1227 9.07074 10.9178 9.07074Z" fill="black"/>
</g>
<g id="Group_19">
<path id="Vector_23" d="M40.2816 14.6166C39.0524 13.1788 37.3452 12.6995 37.5501 12.768C38.0281 13.0419 39.9402 12.3572 41.2377 11.0563C42.8084 9.48154 43.5596 8.45453 44.1742 8.52299C45.1302 8.65993 45.7448 10.7824 44.5839 13.5211C43.6278 15.7806 42.2621 17.9715 42.2621 17.9715C42.2621 17.9715 41.3743 15.7806 40.2816 14.6166Z" fill="#EACCA0"/>
<path id="Vector_24" d="M42.1256 19.1355L41.7842 18.2454C41.7842 18.2454 40.8964 16.0544 39.8721 14.959C38.9843 14.0689 37.96 13.5211 37.5502 13.3157C37.4819 13.3157 37.3454 13.2473 37.2771 13.2473L37.0039 13.1103L37.0722 12.4941L37.3454 12.4257C37.4136 12.3572 37.6185 12.4257 37.8234 12.4941C38.2331 12.4941 39.6672 12.0833 40.8964 10.9194C41.3062 10.5086 41.6476 10.1662 41.9891 9.82388C42.9451 8.79687 43.5597 8.24912 44.2426 8.31759C44.6524 8.38606 45.0621 8.65993 45.3353 9.1392C45.8133 10.0293 46.0182 11.741 45.0621 14.0004C44.106 16.2598 42.8085 18.4508 42.672 18.5878L42.1256 19.1355ZM40.6233 14.2743C41.3062 15.0274 41.9208 16.1914 42.3305 17.013C42.8085 16.1914 43.5597 14.7536 44.1743 13.4527C44.9255 11.6725 44.9255 10.1662 44.4475 9.48154C44.3792 9.27614 44.1743 9.20767 44.106 9.1392C43.8329 9.07074 43.2183 9.82388 42.672 10.3716C42.3305 10.714 41.9891 11.1248 41.5793 11.5356C40.8964 12.2203 40.0087 12.768 39.1892 13.1103C39.6672 13.3842 40.2135 13.795 40.6233 14.2743Z" fill="black"/>
</g>
<g id="Group_20">
<path id="Vector_25" d="M11.67 29.6795C11.67 29.6795 11.4652 27.2832 11.5335 25.4345C11.6018 21.8742 11.6018 18.8616 13.7187 15.849C15.6991 12.9734 20.8892 9.96082 27.1036 9.68695C30.7229 9.55001 37.9616 11.6725 40.4884 14.959C43.3565 18.5878 43.6297 24.6129 43.4931 28.5156C43.4931 28.5156 35.7764 24.5444 30.04 24.5444C23.8256 24.5444 21.094 24.9553 16.9967 26.9408C14.6065 28.3102 11.67 29.6795 11.67 29.6795Z" fill="#EACCA0"/>
<path id="Vector_26" d="M11.2598 30.4327L11.1915 29.6795C11.1915 29.6111 10.9867 27.2147 11.055 25.4345V24.9553C11.1232 21.5319 11.2598 18.5193 13.3085 15.5752C15.2889 12.6995 20.479 9.48155 27.1031 9.20767C30.859 9.07074 38.3026 11.2617 40.8976 14.6166C43.8341 18.3139 44.1755 24.2021 43.9707 28.5156L43.9024 29.2687L43.2195 28.9264C43.1512 28.8579 35.5027 25.0237 30.0395 25.0237C23.9617 25.0237 21.2984 25.3661 17.2693 27.4201C14.8792 28.584 11.9427 30.0219 11.8744 30.0219L11.2598 30.4327ZM27.5128 10.1662C27.4445 10.1662 27.2396 10.1662 27.1714 10.1662C21.0936 10.4401 16.0401 13.3842 14.128 16.1229C12.2159 18.8616 12.1476 21.6688 12.0793 24.9553V25.4345C12.011 26.5985 12.1476 28.0363 12.1476 28.9264C13.1719 28.4471 15.1523 27.4886 16.9279 26.5985C21.1618 24.476 23.9617 24.1336 30.1078 24.1336C34.9564 24.1336 41.0342 26.8723 43.0829 27.8309C43.1512 23.7228 42.6732 18.5878 40.1464 15.3013C37.8246 12.2887 31.0639 10.1662 27.5128 10.1662Z" fill="black"/>
</g>
<g id="Group_21">
<path id="Vector_27" d="M32.7021 24.9553L31.7461 24.8183C31.8144 24.6129 32.4973 20.5733 34.1362 16.8761C35.5703 13.795 36.7313 12.0833 36.7313 12.0149L37.5507 12.5626C37.5507 12.5626 36.3898 14.2743 35.024 17.2869C33.385 20.7787 32.7021 24.8868 32.7021 24.9553Z" fill="black"/>
</g>
<g id="Group_22">
<path id="Vector_28" d="M22.7997 24.9553C22.7997 24.8868 22.0485 20.8472 20.4095 17.2869C18.9755 14.2743 17.8828 12.5626 17.8828 12.5626L18.7023 12.0149C18.7706 12.0833 19.9315 13.795 21.2973 16.8761C23.0046 20.5733 23.6875 24.6129 23.6875 24.8183L22.7997 24.9553Z" fill="black"/>
</g>
<g id="Group_23">
<g id="Group_24">
<path id="Vector_29" d="M20.4108 32.3498C22.1834 32.3498 23.6204 30.909 23.6204 29.1318C23.6204 27.3545 22.1834 25.9138 20.4108 25.9138C18.6382 25.9138 17.2012 27.3545 17.2012 29.1318C17.2012 30.909 18.6382 32.3498 20.4108 32.3498Z" fill="white"/>
<path id="Vector_30" d="M20.4103 32.829C18.3616 32.829 16.7227 31.1858 16.7227 29.1318C16.7227 27.0778 18.3616 25.4345 20.4103 25.4345C22.459 25.4345 24.098 27.0778 24.098 29.1318C24.098 31.1858 22.459 32.829 20.4103 32.829ZM20.4103 26.3931C18.9079 26.3931 17.6787 27.6255 17.6787 29.1318C17.6787 30.6381 18.9079 31.8705 20.4103 31.8705C21.9127 31.8705 23.1419 30.6381 23.1419 29.1318C23.1419 27.6255 21.9127 26.3931 20.4103 26.3931Z" fill="black"/>
</g>
<path id="Vector_31" d="M20.4102 30.9804C21.4285 30.9804 22.2541 30.1528 22.2541 29.1318C22.2541 28.1108 21.4285 27.2832 20.4102 27.2832C19.3919 27.2832 18.5664 28.1108 18.5664 29.1318C18.5664 30.1528 19.3919 30.9804 20.4102 30.9804Z" fill="black"/>
</g>
<g id="Group_25">
<g id="Group_26">
<path id="Vector_32" d="M34.6139 31.7336C36.3865 31.7336 37.8235 30.2928 37.8235 28.5156C37.8235 26.7383 36.3865 25.2976 34.6139 25.2976C32.8413 25.2976 31.4043 26.7383 31.4043 28.5156C31.4043 30.2928 32.8413 31.7336 34.6139 31.7336Z" fill="white"/>
<path id="Vector_33" d="M34.6134 32.2813C32.5647 32.2813 30.9258 30.6381 30.9258 28.584C30.9258 26.53 32.633 24.8868 34.6134 24.8868C36.5938 24.8868 38.3011 26.53 38.3011 28.584C38.3011 30.6381 36.6621 32.2813 34.6134 32.2813ZM34.6134 25.7769C33.1111 25.7769 31.8818 27.0093 31.8818 28.5156C31.8818 30.0219 33.1111 31.2543 34.6134 31.2543C36.1158 31.2543 37.345 30.0219 37.345 28.5156C37.345 27.0093 36.1158 25.7769 34.6134 25.7769Z" fill="black"/>
</g>
<path id="Vector_34" d="M34.6134 30.3642C35.6317 30.3642 36.4572 29.5365 36.4572 28.5156C36.4572 27.4946 35.6317 26.6669 34.6134 26.6669C33.595 26.6669 32.7695 27.4946 32.7695 28.5156C32.7695 29.5365 33.595 30.3642 34.6134 30.3642Z" fill="black"/>
</g>
</g>
</g>
</g>
<defs>
<clipPath id="clip0_1146_212">
<rect width="54.1538" height="51.0769" fill="white" transform="translate(0.537109 0.923077)"/>
</clipPath>
</defs>
</svg>
