<svg width="12" height="12" viewBox="0 0 12 12" fill="none" xmlns="http://www.w3.org/2000/svg">
<path d="M5.86 11.34C5.72667 11.34 5.61333 11.3 5.52 11.22C5.44 11.1267 5.4 11.0133 5.4 10.88V6.72H1.3C1.16667 6.72 1.05333 6.68 0.96 6.6C0.88 6.50667 0.84 6.39333 0.84 6.26V5.62C0.84 5.48667 0.88 5.38 0.96 5.3C1.05333 5.20667 1.16667 5.16 1.3 5.16H5.4V1.12C5.4 0.986666 5.44 0.88 5.52 0.8C5.61333 0.706666 5.72667 0.659999 5.86 0.659999H6.56C6.69333 0.659999 6.8 0.706666 6.88 0.8C6.97333 0.88 7.02 0.986666 7.02 1.12V5.16H11.14C11.2733 5.16 11.38 5.20667 11.46 5.3C11.5533 5.38 11.6 5.48667 11.6 5.62V6.26C11.6 6.39333 11.5533 6.50667 11.46 6.6C11.38 6.68 11.2733 6.72 11.14 6.72H7.02V10.88C7.02 11.0133 6.97333 11.1267 6.88 11.22C6.8 11.3 6.69333 11.34 6.56 11.34H5.86Z" fill="white"/>
</svg>
