<svg width="60" height="55" viewBox="0 0 60 55" fill="none" xmlns="http://www.w3.org/2000/svg">
<path d="M8.66398 25.0102C8.07031 23.0056 5.84403 19.6647 3.91459 17.8828C1.98516 16.1009 6.51192 10.8296 8.88661 10.7553C10.445 10.6811 12.8939 14.7645 15.7139 16.8434C17.198 17.957 17.7917 17.0661 18.6822 16.9919C19.8696 16.8434 22.8379 15.8782 26.6226 15.507C30.7783 15.1357 38.5703 15.8782 40.4997 16.8434C44.2844 18.6252 45.1749 16.5464 45.6944 14.616C46.1396 12.6857 55.7126 13.3539 56.3063 16.1752C56.6031 17.4373 51.7795 23.0056 51.1117 27.4603C50.3696 31.8407 40.7966 22.4117 29.8878 23.2284C18.9791 24.0451 10.8161 27.4603 9.99975 29.3907C9.10924 31.2468 9.03503 26.1239 8.66398 25.0102Z" fill="white"/>
<path d="M45.6942 16.1752C45.6942 16.1752 46.0653 15.0615 45.4716 13.2054C44.7295 10.9781 43.0969 7.85979 43.0969 5.78095C43.0969 1.92025 45.8427 0.435362 48.811 1.02932C51.7794 1.62327 56.0835 3.33089 57.1225 6.74613C57.6419 8.3795 58.384 10.6811 58.2356 12.4629C58.013 14.5418 56.8998 16.4721 56.5288 16.9918C56.5288 16.9918 53.7088 14.6903 51.8536 14.913C49.9242 15.0615 45.6942 16.1752 45.6942 16.1752Z" fill="#41A5A2"/>
<path d="M9.18341 35.9984C9.18341 35.9984 9.33183 26.1982 14.7491 21.892C19.9437 17.7343 23.951 17.5858 29.962 17.5116C36.0472 17.4373 40.7223 18.1798 44.2102 21.2238C48.069 24.639 49.2564 27.3118 50.1469 30.0589C51.4827 34.0681 50.8148 38.003 50.2211 39.5622C49.8501 40.5273 45.917 42.3834 44.8038 42.9774C41.6128 44.685 28.181 45.7987 21.799 44.6108C15.417 43.3486 10.9644 42.3834 9.85129 40.2304C8.73816 38.1515 9.18341 35.9984 9.18341 35.9984Z" fill="#EDEFEF"/>
<path opacity="0.68" d="M54.8219 14.3933C54.8219 14.3933 56.3803 11.4235 55.8608 8.82499C55.4156 6.59766 53.8572 3.92487 53.8572 3.92487C53.8572 3.92487 55.935 5.70673 56.7513 7.48859C57.6418 9.56744 57.7903 11.3493 57.2708 13.0569C56.8255 14.616 56.1577 15.21 56.1577 15.21C56.1577 15.21 55.935 14.913 55.7124 14.7645C55.4898 14.6903 54.8219 14.3933 54.8219 14.3933Z" fill="white"/>
<path d="M14.2299 15.9524C14.2299 15.9524 14.2299 14.4675 14.4525 12.9827C14.8235 10.6811 16.6788 7.63706 16.6788 5.55822C16.6788 1.69752 13.7846 0.509606 10.8162 1.17781C7.84787 1.846 3.54373 3.62787 2.50481 7.04311C1.98534 8.60224 1.24325 10.9038 1.46588 12.7599C1.6885 14.8388 3.46952 16.9176 3.84057 17.3631C3.84057 17.3631 5.84422 14.6903 8.81259 14.8388C10.742 14.9873 14.2299 15.9524 14.2299 15.9524Z" fill="#41A5A2"/>
<path d="M9.40586 38.6712C9.40586 38.6712 13.71 41.1213 16.6784 40.8986C18.3852 40.7501 22.5409 38.8197 23.9509 36.5924C25.3608 34.4393 24.7672 33.3999 26.3998 31.4695C28.0324 29.4649 29.9618 29.6134 31.2976 29.6134C32.6333 29.6134 34.3402 29.7619 35.4533 31.5438C36.5664 33.3256 36.7891 37.1864 38.8669 38.3743C40.2027 39.1167 43.0968 40.6758 45.3231 40.3046C47.5494 40.0076 50.2209 38.9682 50.2209 38.9682C50.2209 38.9682 51.2599 41.4183 49.9983 43.3486C48.811 45.279 44.6552 47.8775 41.9095 49.3624C39.0895 50.8473 34.5628 53.2974 30.2586 53.5944C25.9545 53.8913 20.463 50.4018 19.0531 49.6594C17.6431 48.917 12.0774 45.0563 10.6674 43.0517C9.25744 41.1213 9.40586 38.6712 9.40586 38.6712Z" fill="#427C78"/>
<path d="M30.4813 54.411C30.2587 54.411 29.9619 54.411 29.8134 54.4852C28.2551 54.4852 24.0251 53.3716 20.092 50.8473C19.1273 50.2533 18.1626 49.6593 17.1979 49.0654C13.2648 46.6896 9.85117 44.685 9.18328 41.4925C8.44119 38.0772 8.66382 34.068 8.73803 31.9149V31.3952C8.73803 30.8755 8.81224 30.1331 8.88645 29.2421C8.88645 28.6482 8.96066 28.0542 9.03487 27.386L9.99959 27.4603C9.99959 28.1285 9.92538 28.7967 9.85117 29.3164C9.77696 30.1331 9.77696 30.8755 9.70275 31.3952V31.9149C9.62854 33.9938 9.40591 37.9287 10.0738 41.2697C10.6675 44.0168 13.8585 45.9471 17.6431 48.1744C18.6079 48.7684 19.5726 49.2881 20.5373 49.9563C24.4704 52.4806 28.4777 53.52 29.7392 53.4458C31.075 53.4458 35.1565 52.6291 39.0896 50.3275C40.0543 49.7336 41.0932 49.2139 42.058 48.6942C45.9168 46.6153 49.2563 44.8335 49.9241 42.0864C50.2952 40.6758 50.4436 34.8105 50.2952 27.2375H51.2599C51.4083 33.3256 51.3341 40.5273 50.8889 42.3834C50.0726 45.5017 46.5847 47.3578 42.5032 49.5851C41.5385 50.1048 40.5738 50.6245 39.5349 51.2185C36.1212 53.2973 32.4108 54.1882 30.4813 54.411Z" fill="black"/>
<path d="M50.8147 38.8939C49.9242 39.2651 48.8111 39.7106 47.5495 40.0075C44.5812 40.6757 39.9802 40.0075 38.0507 37.409C36.3439 35.1817 36.9376 29.6876 31.2235 29.5391C24.9157 29.4649 25.5836 34.8104 23.7284 36.8893C21.5763 39.3393 16.9753 41.4182 14.0812 40.453C12.2259 39.8591 10.2223 38.5969 9.25757 38.003" stroke="black" stroke-width="2" stroke-miterlimit="10"/>
<path d="M51.4086 32.9544L50.5181 29.6876C50.5181 29.6134 49.3308 25.3072 47.2529 22.3374C45.5461 19.9616 42.5035 18.1055 42.5035 18.1055L41.3162 17.4373L42.6519 17.2146C42.7261 17.2146 44.804 16.8433 45.175 14.9872C45.3977 13.5766 44.6556 11.9432 43.9877 10.3841C43.6166 9.64165 43.3198 8.97345 43.0972 8.30525C42.7261 7.04309 42.2067 4.74152 43.2456 2.88541C43.8393 1.77175 44.9524 1.0293 46.4366 0.732327C49.9986 -0.084361 53.6349 1.77175 55.6385 3.55361C57.939 5.63245 58.6811 8.67647 58.9037 10.3098C59.2006 12.3887 58.978 14.2448 56.9001 17.4373C56.158 18.551 55.4901 19.4419 54.8965 20.2586C53.6349 21.892 52.6702 23.2284 52.2249 24.8617C51.557 27.386 51.4828 29.5391 51.4828 29.6134L51.4086 32.9544ZM43.8393 17.8085C44.9524 18.551 46.7334 19.9616 47.995 21.7435C49.1823 23.5253 50.1471 25.6042 50.6665 27.1633C50.8149 26.4209 50.9634 25.5299 51.186 24.5648C51.7055 22.7087 52.7444 21.298 54.0059 19.5904C54.5996 18.7737 55.2675 17.8828 56.0096 16.8433C58.0874 13.5766 58.0874 11.869 57.8648 10.3841C57.6422 8.8992 56.9743 6.07792 54.8965 4.22181C52.8928 2.43995 49.5534 0.880815 46.585 1.62326C45.3235 1.92024 44.5072 2.51419 43.9877 3.33088C43.1714 4.81577 43.6166 6.89461 43.9135 8.00827C44.1361 8.60223 44.4329 9.27043 44.7298 10.0129C45.4719 11.6462 46.2882 13.5024 45.9913 15.21C45.8429 16.6949 44.7298 17.4373 43.8393 17.8085Z" fill="black"/>
<path d="M55.9354 18.4767C55.8612 18.4767 55.7869 18.4767 55.7127 18.4767C55.4159 18.3282 55.2675 18.1055 55.4159 17.8085C55.6385 17.2145 55.5643 16.7691 55.3417 16.3978C54.8964 15.7296 53.5607 15.3584 51.8539 15.3584C49.405 15.3584 45.5461 16.6206 45.4719 16.6206C45.2492 16.6948 44.9524 16.5463 44.8782 16.3236C44.804 16.1009 44.9524 15.8039 45.175 15.7296C45.3234 15.6554 49.2565 14.3932 51.8539 14.3932C53.338 14.3932 55.2675 14.616 56.158 15.8039C56.6032 16.3978 56.6775 17.2145 56.3806 18.1055C56.2322 18.3282 56.0838 18.4767 55.9354 18.4767Z" fill="black"/>
<path d="M43.1713 18.1797C43.0971 18.1797 43.0229 18.1797 42.9487 18.1797C39.3124 16.6206 34.6372 15.8039 29.8879 15.8039C25.2127 15.8039 20.8343 16.6206 17.1981 18.1797C16.9755 18.254 16.6786 18.1797 16.5302 17.957C16.3818 17.7343 16.5302 17.4373 16.7528 17.2888C20.5375 15.7297 25.0643 14.913 29.8137 14.8387C34.7115 14.8387 39.4609 15.6554 43.2455 17.2888C43.4681 17.3631 43.6166 17.66 43.4682 17.957C43.4682 18.1055 43.3197 18.1797 43.1713 18.1797Z" fill="black"/>
<path d="M8.88653 34.2166L8.73811 29.4649C8.73811 29.4649 8.6639 27.3118 7.92181 24.7133C7.47655 23.0057 6.43762 21.7435 5.25028 20.1101C4.6566 19.2934 3.91451 18.4025 3.17242 17.2889C1.09456 14.0963 0.797723 12.2402 1.09456 10.1614C1.31719 8.52802 1.98507 5.484 4.28556 3.40516C6.2892 1.54905 9.85125 -0.30706 13.4133 0.435384C14.8975 0.806605 16.0106 1.4748 16.6785 2.58847C17.7174 4.37033 17.2722 6.74615 16.9011 8.00831C16.6785 8.67651 16.3817 9.41895 16.0106 10.1614C15.3427 11.7205 14.6006 13.4281 14.8975 14.7645C15.2685 16.6207 17.3464 16.9176 17.4206 16.9176L18.8306 17.1404L17.569 17.8828C17.569 17.8828 14.5264 19.5904 12.8196 22.189C10.3707 25.7527 9.77704 29.5392 9.70283 29.5392L8.88653 34.2166ZM10.9644 1.32632C8.73811 1.54905 6.43762 2.73696 4.95344 4.1476C2.87558 6.00371 2.28191 8.82499 2.05928 10.3841C1.83665 11.9433 1.83665 13.6509 3.98872 16.8434C4.6566 17.8828 5.39869 18.7737 5.99237 19.5904C7.25392 21.2238 8.36706 22.6344 8.88653 24.4906C9.10916 25.3815 9.25757 26.1239 9.40599 26.8664C9.92546 25.3815 10.6675 23.5254 12.0033 21.595C13.2649 19.7389 15.0459 18.3283 16.159 17.5858C15.2685 17.2146 14.2296 16.4722 13.9328 14.913C13.6359 13.2054 14.4522 11.3493 15.1201 9.71593C15.4169 8.97348 15.7138 8.30528 15.9364 7.71133C16.3074 6.59766 16.6785 4.51882 15.8622 3.03394C15.3427 2.21725 14.4522 1.62329 13.2649 1.32632C12.5228 1.25207 11.7807 1.25207 10.9644 1.32632Z" fill="black"/>
<path d="M4.28557 18.3282C4.06294 18.3282 3.84032 18.1797 3.76611 17.957C3.61769 17.2888 3.76611 16.6206 4.21136 16.0266C5.02766 14.9872 6.73448 14.3933 8.66391 14.319C11.2612 14.319 14.7491 15.4327 14.8975 15.5069C15.1201 15.5812 15.2685 15.8782 15.1943 16.1009C15.1201 16.3236 14.8233 16.4721 14.6007 16.3979C14.6007 16.3979 11.1128 15.2842 8.73812 15.2842C7.10552 15.2842 5.62134 15.8039 5.02766 16.6206C4.73083 16.9918 4.65662 17.2888 4.65662 17.7343C4.73083 18.0312 4.58241 18.254 4.28557 18.3282Z" fill="black"/>
<path opacity="0.68" d="M10.7419 13.9478C10.7419 13.9478 13.3393 10.5326 14.4524 7.3401C15.3429 4.89003 14.675 2.88544 14.675 2.88544C14.675 2.88544 15.1945 3.25666 15.6398 4.14759C16.0108 5.03852 16.085 6.37492 15.6398 7.48859C14.6008 9.93865 13.9329 11.275 13.6361 12.0917C13.1908 13.2796 13.3393 14.4676 13.3393 14.4676C13.3393 14.4676 12.523 14.2448 12.3003 14.1706C11.8551 14.0963 10.7419 13.9478 10.7419 13.9478Z" fill="white"/>
<path d="M33.4499 32.3604C33.4499 33.2514 33.4499 34.365 33.5241 35.7757C33.5983 37.4833 37.6056 42.0122 40.4256 44.7592C41.4645 45.7244 41.9098 47.5805 42.355 49.2139C42.355 49.2139 48.2918 46.2441 49.8502 43.5713C51.1117 41.344 50.9633 37.1863 50.8891 32.9544C50.8149 29.1679 49.8502 26.7179 49.8502 26.7179C47.5497 25.0845 46.4365 24.342 44.8039 23.7481C43.1713 23.1541 37.8283 21.2238 35.973 22.7829C34.8599 23.7481 34.3404 25.0102 34.0436 26.3466C34.0436 26.3466 33.5241 27.6088 31.001 27.6088C28.4779 27.6088 28.0327 26.2724 28.0327 26.2724C27.7358 24.7133 27.2164 23.3026 25.9548 22.189C24.0996 20.6298 18.7565 22.4859 17.1239 23.2284C14.5266 24.4163 12.0777 26.4951 9.1093 30.2073C9.1093 30.2073 8.293 39.5621 9.48035 41.7895C11.855 46.1699 19.276 49.7336 19.276 49.7336C19.276 49.7336 19.2018 46.2441 20.0923 45.2047C22.9864 41.9379 28.4037 37.706 28.6263 35.1075C28.7005 33.9196 28.7005 33.0286 28.7005 32.2119C28.7005 32.2119 28.3295 30.7271 31.0752 30.7271C32.9305 30.8755 33.4499 32.3604 33.4499 32.3604Z" fill="#41A5A2"/>
<path d="M42.1323 49.8078L41.9096 48.9912C41.4644 47.432 41.0191 45.8729 40.2028 45.0562C37.5313 42.5319 33.2271 37.706 33.1529 35.7757V35.1817C33.0787 34.068 33.0787 33.2514 33.0787 32.4347C32.9303 32.1377 32.4851 31.321 31.2235 31.321C30.0362 31.321 29.5909 31.618 29.4425 31.8407C29.3683 31.9892 29.3683 32.2119 29.3683 32.2119V32.2862V32.3604C29.3683 33.2514 29.3683 34.2165 29.2941 35.3302C29.1456 37.3348 26.5483 39.7849 23.8026 42.4577C22.6894 43.5713 21.5021 44.685 20.6116 45.7244C20.0179 46.3926 19.8695 48.6942 19.8695 49.9563V50.6988L19.1274 50.3276C18.8306 50.1791 11.5581 46.6896 9.10915 42.2349C7.9218 39.9334 8.66389 31.3953 8.7381 30.3558V30.2073L8.81231 30.0589C11.7065 26.4951 14.2296 24.2678 17.0495 23.0056C18.4595 22.3374 24.2478 20.1844 26.3999 22.0405C27.8841 23.3026 28.3293 25.0102 28.6262 26.3466C28.7004 26.4951 29.2198 27.3118 31.1493 27.3118C33.0787 27.3118 33.5982 26.4951 33.7466 26.3466C34.1177 24.639 34.7855 23.4511 35.8245 22.5602C37.1602 21.3723 40.3512 21.6692 45.1006 23.4511C46.7332 24.0451 47.9948 24.8618 50.2211 26.4951L50.3695 26.5694L50.4437 26.7179C50.5179 26.7921 51.4084 29.3164 51.5568 33.1029V33.3998C51.7052 37.6318 51.7795 41.7152 50.4437 43.9425C48.8111 46.6896 42.9486 49.3624 42.7259 49.5109L42.1323 49.8078ZM30.4814 30.4301C30.704 30.4301 30.9267 30.4301 31.1493 30.4301C33.3014 30.4301 33.9692 31.9892 33.9692 32.0635V32.3604V32.4347C33.9692 33.1771 33.9692 34.068 34.0434 35.1817V35.7757C34.1177 37.1121 37.6055 41.344 40.7965 44.388C41.8354 45.3532 42.2807 46.9123 42.7259 48.5457C44.2101 47.729 48.2916 45.4274 49.479 43.3486C50.6663 41.344 50.5179 37.2606 50.4437 33.3256V33.0286C50.3695 29.9104 49.7016 27.6088 49.479 27.0891C47.4011 25.6042 46.2138 24.8618 44.7296 24.2678C38.867 22.1147 37.0118 22.7087 36.4181 23.2284C35.5276 23.9708 35.0082 25.0102 34.6371 26.5694V26.6436C34.6371 26.7179 33.895 28.2027 31.1493 28.2027C28.3293 28.2027 27.7357 26.6436 27.7357 26.5694V26.4951C27.4388 24.7133 26.8452 23.5254 25.8804 22.7087C24.3962 21.4465 19.4242 23.0056 17.569 23.8223C14.8975 25.0845 12.5228 27.0891 9.77703 30.5043C9.5544 33.1771 9.18336 40.0076 10.0739 41.641C11.9291 45.0562 17.0495 48.026 18.9048 49.0654C18.9048 47.8775 19.1274 45.8729 19.8695 44.982C20.76 43.9425 21.9473 42.7546 23.1347 41.641C25.5094 39.3394 28.1809 36.7408 28.2551 35.1817C28.3293 34.1423 28.3293 33.1771 28.3293 32.3604C28.3293 32.1377 28.2551 31.6922 28.6262 31.2468C28.923 30.8013 29.5909 30.5043 30.4814 30.4301Z" fill="black"/>
<path d="M25.4476 35.0567C26.1688 31.2706 24.012 27.6786 20.6302 27.0338C17.2484 26.389 13.9223 28.9356 13.2011 32.7218C12.4799 36.5079 14.6367 40.0999 18.0185 40.7447C21.4003 41.3895 24.7264 38.8429 25.4476 35.0567Z" fill="white"/>
<path d="M19.721 41.2698C19.1273 41.344 18.5336 41.2698 17.94 41.1955C16.1589 40.8243 14.6748 39.7849 13.71 38.1515C12.7453 36.5181 12.3743 34.5878 12.7453 32.6574C13.4874 28.6482 17.1237 25.9012 20.6857 26.5694C22.4667 26.9406 23.9509 27.98 24.9156 29.6134C25.8803 31.2468 26.2514 33.1772 25.8803 35.1075C25.5093 37.0379 24.4704 38.7455 22.9862 39.9334C22.0215 40.7501 20.9083 41.1955 19.721 41.2698ZM19.0531 27.4603C16.53 27.7573 14.2295 29.9104 13.71 32.8059C13.4132 34.5136 13.71 36.2212 14.5263 37.6318C15.3426 39.0425 16.6042 39.9334 18.1626 40.2304C19.6468 40.5273 21.2052 40.1561 22.4667 39.1167C23.8025 38.1515 24.693 36.5924 24.9898 34.8848C25.2867 33.1772 24.9898 31.4695 24.1735 30.0589C23.283 28.7225 22.0215 27.8316 20.5373 27.5346C20.0178 27.4603 19.5726 27.3861 19.0531 27.4603Z" fill="black"/>
<path d="M24.0477 34.839C24.6001 31.9389 22.9592 29.1897 20.3826 28.6985C17.806 28.2072 15.2694 30.1599 14.717 33.0599C14.1646 35.96 15.8055 38.7092 18.3821 39.2004C20.9587 39.6917 23.4953 37.739 24.0477 34.839Z" fill="white"/>
<path d="M19.7209 39.7106C19.2756 39.7848 18.7562 39.7106 18.3109 39.6363C15.491 39.1166 13.6357 36.0726 14.2294 32.9543C14.5262 31.4695 15.3425 30.1331 16.4557 29.2421C17.643 28.3512 19.053 27.98 20.3888 28.277C21.7987 28.5739 22.9861 29.3906 23.7282 30.6528C24.4703 31.9149 24.7671 33.4741 24.4703 34.9589C24.1734 36.4438 23.3571 37.7802 22.244 38.6712C21.5019 39.2651 20.6114 39.6363 19.7209 39.7106ZM19.2014 29.1679C18.4593 29.2421 17.7172 29.5391 17.1236 30.0588C16.1588 30.8013 15.4909 31.9149 15.2683 33.1771C14.7489 35.7756 16.233 38.2999 18.5335 38.7454C19.6467 38.9681 20.7598 38.6712 21.7245 37.9287C22.6892 37.1863 23.3571 36.0726 23.5798 34.8105C23.8024 33.5483 23.5798 32.2119 22.9861 31.1725C22.3924 30.1331 21.4277 29.4649 20.3145 29.2421C19.9435 29.0936 19.5725 29.0936 19.2014 29.1679Z" fill="black"/>
<path d="M21.3105 34.1065C21.44 32.9657 20.7198 31.9471 19.7017 31.8314C18.6836 31.7157 17.7533 32.5466 17.6238 33.6874C17.4942 34.8282 18.2145 35.8468 19.2325 35.9625C20.2506 36.0782 21.1809 35.2473 21.3105 34.1065Z" fill="#1A1A1A"/>
<path d="M19.6468 36.4439C19.4983 36.4439 19.3499 36.4439 19.2015 36.4439C17.9399 36.2954 16.9752 35.0332 17.1979 33.6226C17.2721 32.9544 17.5689 32.3604 18.0884 31.915C18.6078 31.4695 19.2015 31.2468 19.8694 31.321C21.1309 31.4695 22.0957 32.7317 21.873 34.1423C21.6504 35.4045 20.6857 36.3696 19.6468 36.4439ZM19.3499 32.3604C19.0531 32.3604 18.8305 32.5089 18.6078 32.7317C18.311 33.0286 18.0884 33.3999 18.0884 33.8453C18.0142 34.7363 18.5336 35.4787 19.2757 35.5529C20.0178 35.6272 20.6857 34.959 20.8341 34.1423C20.9083 33.2514 20.3889 32.5089 19.6468 32.4347C19.5725 32.2862 19.4983 32.2862 19.3499 32.3604Z" fill="black"/>
<path d="M43.4335 40.7381C46.8345 40.2046 49.1078 36.6853 48.5111 32.8775C47.9143 29.0698 44.6735 26.4155 41.2724 26.9491C37.8714 27.4826 35.598 31.0019 36.1948 34.8096C36.7915 38.6174 40.0324 41.2716 43.4335 40.7381Z" fill="white"/>
<path d="M42.9486 41.2697C41.316 41.3439 39.8318 40.8242 38.496 39.7848C37.0119 38.5969 36.0471 36.8893 35.7503 34.8847C35.1566 30.8755 37.6055 27.089 41.2418 26.4951C44.878 25.9011 48.3659 28.7967 49.0338 32.8058C49.7016 36.815 47.3269 40.5273 43.7649 41.1212C43.7649 41.1212 43.6165 41.1955 43.3939 41.1955C43.2454 41.2697 43.0228 41.2697 42.9486 41.2697ZM41.6128 27.4603C41.5386 27.4603 41.4644 27.4603 41.316 27.4603C38.1992 27.98 36.1214 31.2467 36.6408 34.7362C36.9377 36.4438 37.754 38.003 39.0155 39.0424C40.2771 40.0818 41.7613 40.5273 43.3196 40.3045C46.4364 39.7848 48.5143 36.5181 47.9948 33.0286C47.4754 29.5391 44.6554 27.089 41.6128 27.4603Z" fill="black"/>
<path d="M43.2448 39.1268C45.7956 38.7267 47.498 36.0708 47.0473 33.1947C46.5965 30.3187 44.1633 28.3115 41.6125 28.7117C39.0617 29.1118 37.3593 31.7677 37.81 34.6438C38.2608 37.5198 40.694 39.527 43.2448 39.1268Z" fill="white"/>
<path d="M42.4291 39.5621C39.906 39.4878 37.7539 37.4832 37.3086 34.662C37.086 33.1771 37.3828 31.6922 38.1249 30.43C38.9412 29.1679 40.1286 28.4254 41.4644 28.2027C44.2843 27.7572 46.9558 29.9103 47.4753 33.0286C47.6979 34.5135 47.4011 35.9984 46.659 37.2605C45.9169 38.3742 44.9522 39.1166 43.7648 39.4136C43.6906 39.4136 43.468 39.4878 43.1712 39.5621C42.8743 39.5621 42.5033 39.5621 42.4291 39.5621ZM41.8354 29.1679C41.7612 29.1679 41.687 29.1679 41.6128 29.1679C40.4996 29.3164 39.5349 29.9846 38.9412 30.9497C38.2734 31.9892 38.0507 33.2513 38.1991 34.5135C38.5702 37.112 40.7965 38.8939 43.097 38.5969C44.2101 38.4484 45.1748 37.7802 45.7685 36.815C46.4364 35.7756 46.659 34.5135 46.5106 33.2513C46.1395 30.727 44.0617 28.9451 41.8354 29.1679Z" fill="black"/>
<path d="M42.6757 36.2695C43.6879 36.1107 44.3644 35.0625 44.1866 33.9283C44.0089 32.794 43.0442 32.0033 42.032 32.1621C41.0198 32.3209 40.3433 33.3691 40.5211 34.5033C40.6988 35.6375 41.6635 36.4282 42.6757 36.2695Z" fill="#1A1A1A"/>
<path d="M42.6517 36.7408C41.3901 36.8893 40.277 35.9241 40.0544 34.5877C39.8317 33.1771 40.648 31.8407 41.9096 31.6922C43.1712 31.4694 44.3585 32.4346 44.5811 33.8453C44.8038 35.2559 43.9132 36.5181 42.6517 36.7408C42.6517 36.7408 42.7259 36.7408 42.6517 36.7408ZM42.1322 32.5831C41.3159 32.7316 40.8707 33.5483 40.9449 34.365C41.0933 35.2559 41.7612 35.8499 42.5033 35.7014C43.2454 35.5529 43.7648 34.8104 43.6164 33.9195C43.5422 33.1771 42.8743 32.5831 42.1322 32.5831Z" fill="black"/>
</svg>
