<svg width="50" height="47" viewBox="0 0 50 47" fill="none" xmlns="http://www.w3.org/2000/svg">
<g id="6Black Ninja- Mask1-Char1" clip-path="url(#clip0_1146_285)">
<g id="Group">
<g id="Group_2">
<path id="Vector" d="M19.979 44.2308C18.8028 43.8 16.9457 43.0615 13.1076 40.1077C10.879 38.3846 7.47426 33.1538 6.6695 31.3692C4.50284 26.4462 4.81236 14.6923 5.86474 10.8769C6.23617 9.58462 7.84569 6.69231 8.46474 5.76923C9.33141 4.41539 11.3124 2.32308 13.1076 1.70769C15.5838 0.846155 17.8124 2.2 18.06 3.36923C18.679 5.89231 12.1171 13.0923 14.9647 13.6462C17.0076 14.0769 20.3505 10.5077 22.3933 11.0615C23.879 11.4308 24.1886 12.7231 25.0552 12.6615C25.4886 12.6615 26.6028 11.4308 27.4076 11.1846C30.2552 10.3231 33.4743 14.2 34.8981 13.7692C35.8886 13.4615 36.3219 12.1077 34.5886 9.64616C33.5981 8.29231 31.6171 4.72308 31.9266 3.12308C32.1743 1.64616 35.3314 1.15385 36.5076 1.4C39.3552 1.89231 42.6981 6.07692 43.8124 10.1385C45.7314 16.8462 45.5457 21.8923 44.8647 25.5231C44.4314 27.9846 43.5647 30.4462 41.2124 34.8769C39.1076 38.7538 34.3409 42.4462 32.2362 43.2462C27.8409 44.9692 24.7457 46.0154 19.979 44.2308Z" fill="white"/>
</g>
<path id="Vector_2" d="M7.96948 19.7385C7.96948 19.7385 7.53614 16.7846 8.58852 13.3385C9.82662 9.21539 11.8076 7.18462 13.1076 6.32308C14.7171 5.27693 16.76 4.72308 16.76 5.89231C16.76 7 16.5123 7.61539 16.079 8.41539C14.7171 10.8769 13.7885 13.1539 15.1504 13.7692C16.5123 14.3846 20.5361 10.5692 22.9504 11.0615C24.0028 11.2462 24.8076 12.7846 25.4266 12.7231C26.7266 12.6 26.7266 10.5692 28.5219 11.1231C29.6361 11.4923 30.0076 11.6769 31.8647 12.4769C35.2076 14.0154 35.579 14.0154 35.8885 13.4C36.5076 12.1692 34.8361 10.0769 34.2171 8.04616C33.5361 5.76923 33.7838 5.4 34.7123 5.33847C36.879 5.21539 40.3457 7.67693 41.398 12.7231C41.9552 15.4308 42.2647 16.4154 42.2028 19.3692C42.2028 19.3692 45.298 23.0615 45.298 23.6154C45.298 23.6154 44.1219 29.7077 44.06 29.8308C44.06 29.8308 41.0266 25.2769 40.098 24.3538C39.1695 23.4308 37.0647 21.7692 34.7742 20.4154C33.1028 19.4308 30.6266 18.5077 28.8933 18.8769C27.0361 19.2462 26.7885 20.9692 26.2933 21.1538C24.6219 21.7692 23.3838 20.6615 21.7123 19.4308C19.4219 17.8308 13.479 21.1538 10.8171 23.8C7.47424 27.1231 5.98852 29.1539 5.98852 29.1539L4.99805 23.6154L7.96948 19.7385Z" fill="#868D9E"/>
<path id="Vector_3" d="M9.20895 35C7.72323 32.9692 6.67085 29.8923 6.36133 28.9077C6.36133 28.9077 7.2899 27.1231 8.5899 25.9538C9.14704 25.4615 10.8804 23.2462 13.1709 21.7077C16.2661 19.6769 20.2899 18.6923 21.1566 18.8769C22.5804 19.2462 23.1375 21.6462 24.5613 21.5846C26.047 21.5231 26.6661 18.7538 28.3994 18.8154C30.1947 18.8769 34.6518 20.1077 36.6328 21.5846C40.9042 24.9077 43.8137 29.5846 43.8137 29.5846C43.8137 29.5846 41.7709 35.3077 37.8089 39.3077C35.3328 41.8308 32.7947 43.2462 32.7947 43.2462C32.7947 43.2462 32.4232 40.5385 32.1756 37.9538C31.8661 35.3692 30.1328 31.9231 28.8328 31.1231C26.1709 29.5231 25.1804 29.2769 22.7661 30.3231C20.7232 31.1846 19.0518 33.2769 18.4947 35.9846C18.1232 37.7692 17.8137 41.1538 17.9994 42.9385C17.9375 42.9385 13.6042 41.1538 9.20895 35Z" fill="#E6E6E6"/>
<g id="Group_3">
<g id="Group_4">
<path id="Vector_4" d="M24.1893 45.3385C20.6607 45.1539 18.1845 43.9231 15.5845 42.3846C13.294 41.0308 10.2607 37.5846 8.46545 34.8154C6.29878 31.4308 4.99878 27.8 4.75116 24.0462C4.50354 19.9231 4.93687 13.7692 5.74164 10.9385C6.29878 8.9077 8.77497 2.75385 12.8607 1.33847C14.594 0.723081 16.3274 1.03077 18.0607 2.26154C19.4845 3.24616 17.9988 6.2 16.5131 9.03077C15.6464 10.6923 14.6559 12.5385 14.9035 13.1539C14.9035 13.2154 14.9654 13.2154 14.9654 13.2154C15.9559 13.7077 17.2559 12.9077 18.5559 12.1077C19.2988 11.6769 20.1035 11.1846 20.9083 10.8769C22.2702 10.3846 23.3226 10.3846 24.3131 11.8C24.5607 12.1692 24.8083 12.2923 25.1797 12.2923C25.7369 12.2923 26.0464 11.8 26.0464 11.8C27.0369 10.3231 28.0893 10.3846 29.4512 10.8769C30.2559 11.1846 31.0607 11.6154 31.8035 12.1077C33.1654 12.9077 34.4035 13.6462 35.394 13.2154C35.394 13.2154 35.4559 13.2154 35.4559 13.1539C35.6416 12.5385 34.6512 10.6923 33.8464 9.03077C32.3607 6.2 30.875 3.3077 32.2988 2.26154C34.0321 1.03077 35.8274 0.723081 37.4988 1.33847C41.5845 2.81539 44.0607 8.9077 44.6178 10.9385C45.4226 13.7692 45.8559 19.9231 45.5464 24.0462C45.2988 27.8 44.0607 31.4308 41.8321 34.8154C40.0369 37.5231 37.0654 41.0308 34.7131 42.3846C32.1131 43.9231 29.6369 45.1539 26.1702 45.3385H24.1893ZM14.5321 1.7077C14.0369 1.7077 13.5416 1.76923 13.0464 1.95385C9.57973 3.18462 7.04164 8.66154 6.36068 11.0615C5.61783 13.8923 5.2464 19.9231 5.49402 24.0462C5.74164 27.6769 6.97973 31.1846 9.08449 34.4462C10.7559 37.0308 13.7274 40.4769 15.9559 41.7692C18.5559 43.3077 20.8464 44.4769 24.1893 44.6615H26.1083C29.4512 44.4769 31.7416 43.3077 34.3416 41.7692C36.9416 39.9846 39.4797 37.0308 41.2131 34.4462C43.3797 31.1846 44.5559 27.6769 44.8035 24.0462C45.1131 19.9231 44.6797 13.8923 43.9369 11.1846C43.2559 8.72308 40.7797 3.3077 37.2512 2.07693C35.7654 1.52308 34.2178 1.83077 32.6702 2.93847C31.7416 3.61539 33.2893 6.56923 34.4035 8.78462C35.6416 11.1231 36.3845 12.6 36.075 13.4615C36.0131 13.7077 35.8274 13.8308 35.6416 13.9539C34.2797 14.5692 32.794 13.7077 31.3702 12.8462C30.6273 12.4154 29.8845 11.9231 29.1416 11.6769C27.9035 11.1231 27.2845 11.3077 26.6654 12.2923C26.4797 12.6 25.9845 13.0308 25.2416 13.0923C24.6226 13.0923 24.1273 12.8462 23.7559 12.2923C23.1369 11.3077 22.5178 11.1846 21.2178 11.6154C20.475 11.8615 19.7321 12.3539 18.9893 12.7846C17.5654 13.6462 16.0797 14.5077 14.7178 13.8923C14.5321 13.7692 14.3464 13.6462 14.2845 13.4C13.975 12.5385 14.7178 11.0615 15.9559 8.72308C17.1321 6.5077 18.6797 3.49231 17.7512 2.87693C16.575 2.07693 15.5845 1.7077 14.5321 1.7077Z" fill="black"/>
<path id="Vector_5" d="M24.1889 45.5231C20.5985 45.3385 18.1223 44.0462 15.5223 42.5077C13.2318 41.1539 10.1985 37.6462 8.40323 34.8769C6.17466 31.4923 4.93656 27.8 4.68894 24.0462C4.37942 19.8615 4.81275 13.7692 5.55561 10.9385C6.11275 8.9077 8.65085 2.63077 12.7366 1.15385C14.4699 0.538465 16.327 0.846157 18.1223 2.07693C19.6699 3.18462 18.1223 6.13847 16.6366 9.03077C15.8937 10.5077 14.8413 12.4769 15.027 13.0308C15.9556 13.4615 17.1318 12.7231 18.4318 11.9846L18.4937 11.9231C19.2366 11.4923 20.0413 11 20.8461 10.7538C22.0842 10.3231 23.3223 10.1385 24.4366 11.7385C24.6223 12.0462 24.8699 12.1692 25.1794 12.1692C25.6747 12.1692 25.9223 11.8 25.9223 11.7385C26.9747 10.1385 28.2747 10.3231 29.5128 10.7538C30.3175 11.0615 31.1223 11.4923 31.927 11.9846C33.227 12.7846 34.4651 13.4615 35.3937 13.0308C35.5794 12.4769 34.527 10.5077 33.7842 9.03077L33.6604 8.84616C32.1128 6.01539 30.6889 3.24616 32.2366 2.13846C34.0318 0.907695 35.827 0.600003 37.6223 1.21539C41.6461 2.63077 44.2461 8.84616 44.8032 10.8769C45.608 13.7077 46.0413 19.8615 45.7318 24.0462C45.4842 27.8 44.1842 31.4923 42.0175 34.8769C40.2223 37.6462 37.1889 41.1539 34.8985 42.5077C32.2366 44.0462 29.8223 45.3385 26.2318 45.5231H24.1889ZM24.1889 45.2154H26.1699C29.6366 45.0308 32.0508 43.8 34.6509 42.2615C36.9413 40.9077 39.9128 37.4615 41.708 34.7538C43.8747 31.3692 45.1128 27.8 45.4223 24.0462C45.6699 19.9231 45.2366 13.7692 44.4937 11C43.9366 8.96923 41.4604 2.87693 37.4985 1.46154C35.827 0.846157 34.0937 1.15385 32.4223 2.38462C31.1223 3.3077 32.5461 6.13847 33.9699 8.9077L34.0318 8.96923C35.1461 11.0615 35.8889 12.6 35.7032 13.2154C35.7032 13.2769 35.6413 13.3385 35.5175 13.4C34.4651 13.8923 33.1651 13.1538 31.8032 12.2923C31.0604 11.8615 30.2556 11.3692 29.4508 11.1231C28.1508 10.6308 27.1604 10.6308 26.2318 12.0462C26.2318 12.0462 25.8604 12.5385 25.2413 12.6C24.8699 12.6 24.4985 12.4154 24.2508 12.0462C23.3223 10.6923 22.3318 10.6923 21.0318 11.1846C20.227 11.4308 19.4842 11.9231 18.7413 12.3539H18.6794C17.3175 13.1539 16.0175 13.9538 14.9032 13.4615C14.8413 13.4 14.7794 13.3385 14.7794 13.2769C14.5937 12.6615 15.3366 11.1231 16.4508 9.03077C17.8128 6.38462 19.3604 3.43077 18.0604 2.44616C16.327 1.27693 14.6556 0.969234 12.9842 1.52308C8.89847 2.87693 6.42228 8.96923 5.86513 11C5.12228 13.7692 4.68894 19.9231 4.93656 24.0462C5.18418 27.7385 6.42228 31.3692 8.65085 34.7538C10.4461 37.4615 13.4175 40.9077 15.708 42.2615C18.308 43.7385 20.7223 45.0308 24.1889 45.2154ZM24.1889 44.7846C20.7842 44.6 18.4937 43.4308 15.8318 41.8923C13.6032 40.6 10.6318 37.1539 8.89847 34.5077C6.85561 31.2462 5.61751 27.6769 5.3699 24.0462C5.06037 19.9231 5.4937 13.8308 6.23656 11.0615C6.91751 8.6 9.45561 3.06154 12.9842 1.83077C14.5318 1.27693 16.1413 1.58462 17.7508 2.69231C18.7413 3.36923 17.5651 5.83077 16.0175 8.72308C14.7794 11.0615 14.0985 12.4769 14.3461 13.2769C14.408 13.4615 14.5318 13.5846 14.7175 13.7077C15.9556 14.3231 17.4413 13.4615 18.8032 12.6L18.8651 12.5385C19.608 12.1077 20.3508 11.6769 21.0937 11.4308C22.4556 10.9385 23.1366 11.1231 23.8175 12.1692C24.127 12.6615 24.6223 12.9077 25.1794 12.9077C25.8604 12.9077 26.3556 12.4154 26.4794 12.1692C27.1604 11.1231 27.8413 10.9385 29.2032 11.4308C29.9461 11.6769 30.6889 12.1077 31.4318 12.5385H31.4937C32.9175 13.4 34.3413 14.2615 35.6413 13.6462C35.827 13.5846 35.9508 13.4 36.0128 13.2154C36.2604 12.4769 35.5175 11 34.3413 8.66154L34.2794 8.6C33.0413 6.26154 31.6175 3.3077 32.6699 2.56923C34.2794 1.46154 35.827 1.15385 37.3747 1.7077C40.9032 3 43.4413 8.47693 44.1223 10.9385C44.8651 13.7077 45.2985 19.7385 44.9889 23.8615C44.7413 27.5539 43.5032 31.0615 41.3985 34.3846C39.727 37.0308 36.6937 40.4769 34.4651 41.7692C31.8032 43.3077 29.6366 44.6 26.2937 44.7846H24.808H24.1889ZM14.5318 1.89231C14.0366 1.89231 13.6032 1.95385 13.108 2.13846C9.70323 3.36923 7.22704 8.78462 6.54609 11.1846C5.80323 13.8923 5.3699 19.9231 5.67942 23.9846C5.92704 27.6154 7.10323 31.0615 9.2699 34.3231C10.9413 36.9077 13.9128 40.3538 16.0794 41.5846C18.6794 43.1231 20.9699 44.2923 24.2508 44.4154H26.1699C29.4508 44.2308 31.7413 43.0615 34.3413 41.5846C36.508 40.2923 39.4794 36.9077 41.1508 34.3231C43.2556 31.0615 44.4937 27.5539 44.7413 23.9846C45.0508 19.8615 44.6175 13.8923 43.8747 11.1231C43.1937 8.72308 40.7175 3.3077 37.3128 2.07693C35.9508 1.58462 34.5889 1.83077 33.1651 2.69231C33.0413 2.75385 32.9175 2.81539 32.8556 2.87693C32.7318 3 32.6699 3.12308 32.6699 3.3077C32.608 4.35385 33.7223 6.75385 34.6509 8.35385L34.7128 8.47693C36.0128 10.9385 36.6937 12.3539 36.3842 13.2769C36.3223 13.5231 36.1366 13.7077 35.8889 13.8308C34.4651 14.5077 32.9794 13.5846 31.4937 12.7231H31.4318C30.6889 12.2923 30.008 11.8615 29.2651 11.6154C28.027 11.1846 27.4699 11.3077 26.9128 12.2308C26.727 12.5385 26.1699 13.0308 25.3651 13.0923C24.7461 13.0923 24.127 12.7846 23.7556 12.2308C23.1366 11.3077 22.6413 11.1846 21.4032 11.6154C20.6604 11.8615 19.9794 12.2923 19.2366 12.7231H19.1747C17.6889 13.5846 16.1413 14.5077 14.7794 13.8308C14.5318 13.7077 14.3461 13.5231 14.2842 13.2769C13.9747 12.3539 14.7175 10.8769 15.9556 8.47693C16.6985 7 17.8747 4.78462 17.9985 3.61539C17.9985 3.43077 17.9985 3.24616 17.9366 3.12308C17.8747 3 17.8128 2.87693 17.7508 2.81539C16.5128 2.26154 15.5223 1.89231 14.5318 1.89231Z" fill="black"/>
</g>
</g>
<g id="Group_5">
<g id="Group_6">
<path id="Vector_6" d="M5.12198 23.9846C5.06008 23.9846 4.99817 23.9846 4.93627 23.9231C4.75056 23.8 4.68865 23.6154 4.81246 23.4308C4.93627 23.2462 7.66008 18.8154 11.0648 16.0462C13.7267 13.9538 15.8315 13.4 15.8934 13.3385C16.0791 13.2769 16.2648 13.4 16.3267 13.5846C16.3887 13.7692 16.2648 13.9538 16.0791 14.0154C16.0791 14.0154 14.0363 14.5692 11.4982 16.6C8.15532 19.2462 5.43151 23.7385 5.43151 23.8C5.3696 23.9231 5.24579 23.9846 5.12198 23.9846Z" fill="black"/>
<path id="Vector_7" d="M5.12279 24.0462C5.06088 24.0462 4.99898 24.0462 4.87517 23.9846C4.75136 23.9231 4.68945 23.8 4.68945 23.7385C4.68945 23.6154 4.68945 23.4923 4.75136 23.4308C4.75136 23.3692 7.53707 18.8769 11.0037 16.0462C13.4799 14.0769 15.4609 13.4615 15.8323 13.3385C15.9561 13.3385 16.0799 13.3385 16.1418 13.4C16.2656 13.4615 16.3275 13.5231 16.3275 13.6462C16.3275 13.7692 16.3275 13.8923 16.2656 13.9538C16.2037 14.0769 16.1418 14.1385 16.018 14.1385C15.8323 14.2 13.8514 14.8154 11.499 16.6615C8.27993 19.3077 5.55612 23.8 5.49422 23.8615C5.43231 23.9846 5.3085 24.0462 5.12279 24.0462ZM16.018 13.4615H15.9561C15.5847 13.5846 13.6037 14.2 11.1895 16.1692C7.72279 18.9385 4.99898 23.4308 4.93707 23.4923C4.87517 23.5538 4.87517 23.6154 4.87517 23.6769C4.87517 23.7385 4.93707 23.8 4.99898 23.8615C5.12279 23.9231 5.3085 23.8615 5.37041 23.8C5.37041 23.7385 8.15612 19.2462 11.499 16.6C13.9133 14.6923 15.8942 14.0769 16.0799 14.0154C16.1418 14.0154 16.2037 13.9538 16.2656 13.8923C16.3275 13.8308 16.3275 13.7692 16.2656 13.7077C16.2037 13.5231 16.1418 13.4615 16.018 13.4615Z" fill="black"/>
</g>
</g>
<g id="Group_7">
<g id="Group_8">
<path id="Vector_8" d="M45.1759 23.9846C45.0521 23.9846 44.9283 23.9231 44.8664 23.8C44.8664 23.7385 42.0807 19.2462 38.7998 16.6C36.2617 14.5692 34.2807 14.0769 34.2188 14.0154C34.0331 13.9538 33.9093 13.7692 33.9712 13.5846C34.0331 13.4 34.2188 13.2769 34.4045 13.3385C34.4664 13.3385 36.5712 13.8923 39.2331 16.0462C42.6378 18.7538 45.3617 23.1846 45.4855 23.4308C45.6093 23.6154 45.5474 23.8 45.3617 23.9231C45.2998 23.9846 45.2378 23.9846 45.1759 23.9846Z" fill="black"/>
<path id="Vector_9" d="M45.175 24.0462C45.0512 24.0462 44.8655 23.9846 44.8036 23.8615C44.8036 23.8 42.0179 19.3077 38.7369 16.7231C36.3226 14.8154 34.4036 14.2615 34.2179 14.2C33.9703 14.1385 33.8464 13.8923 33.9084 13.7077C33.9084 13.5846 34.0322 13.5231 34.0941 13.4615C34.2179 13.4 34.2798 13.4 34.4036 13.4C34.775 13.5231 36.756 14.1385 39.2322 16.1077C42.5131 18.7538 45.175 23 45.4845 23.4923C45.6084 23.6769 45.5464 23.9846 45.3607 24.1077C45.3607 23.9846 45.2369 24.0462 45.175 24.0462ZM34.3417 13.4615C34.2798 13.4615 34.2179 13.4615 34.2179 13.5231C34.156 13.5846 34.0941 13.6462 34.0941 13.7077C34.0322 13.8308 34.156 14.0154 34.2798 14.0154C34.5274 14.0769 36.4464 14.6923 38.8607 16.6C42.2036 19.2462 44.9274 23.7385 44.9893 23.8C45.0512 23.8615 45.1131 23.9231 45.2369 23.9231C45.2988 23.9231 45.3607 23.9231 45.3607 23.8615C45.4845 23.8 45.5464 23.6154 45.4226 23.4923C45.1131 23 42.4512 18.7538 39.1703 16.1692C36.6941 14.2 34.775 13.5846 34.3417 13.4615C34.4036 13.4615 34.3417 13.4615 34.3417 13.4615Z" fill="black"/>
</g>
</g>
<path id="Vector_10" d="M6.60742 28.7231C6.60742 28.7231 8.21695 26.3846 9.82647 24.7231C10.6312 23.9231 12.5503 22.2615 13.0455 21.9539C15.2122 20.5385 18.3074 19.4308 19.4836 19.1231C20.2884 18.9385 21.155 18.6308 21.836 19.1231C22.5169 19.5539 23.1979 20.6615 23.755 21.2154C24.8693 22.3231 25.4265 21.7692 26.355 20.7846C26.7265 20.4154 27.2836 19.4308 28.1503 19.1231C29.2027 18.7539 30.7503 18.8769 31.8027 19.3077C33.6598 20.1077 35.3931 20.3539 36.8789 21.5846C37.3741 22.0154 38.9836 23.2462 40.036 24.3539C41.8931 26.3231 43.5027 29.7077 43.5027 29.7077C43.5027 29.7077 43.1312 30.8154 42.636 31.8C41.8931 33.4 40.7169 35.1231 40.7169 35.1231C40.7169 35.1231 39.4789 36.8462 38.3646 38.0769C37.3122 39.3077 35.9503 40.6615 34.7741 41.4615C33.9693 41.9539 32.7312 42.6308 32.7312 42.6308C32.7312 42.6308 32.2979 39.0615 31.4931 35.7385C30.936 33.4 29.7598 31.2462 28.2122 30.5692C24.3741 28.9692 20.9074 31.1231 19.7931 32.7846C18.6169 34.5692 17.8122 42.0154 17.8122 42.8154C17.8122 42.8154 15.955 41.8308 15.1503 41.2154C14.0979 40.3539 13.2931 39.6154 12.736 39C11.6836 37.8923 9.76456 35.5539 9.08361 34.3231C8.52647 33.5231 7.78361 32.1692 7.53599 31.4923C6.66933 29.4 6.60742 28.7231 6.60742 28.7231Z" fill="#585D72"/>
<g id="Group_9">
<g id="Group_10">
<path id="Vector_11" d="M43.689 29.9538C43.3795 29.4 40.7176 24.6615 36.5081 21.8923C33.3509 19.8 29.6367 19.0615 28.3986 19.1846C28.089 19.1846 27.6557 19.8 27.2224 20.2923C26.6033 21.0923 25.8605 21.9538 24.9319 21.9538C23.9414 21.9538 23.1986 21.0308 22.5795 20.2308C22.2081 19.7385 21.7748 19.2462 21.5271 19.2462C20.289 19.1846 16.5748 19.9846 13.4795 22.2C9.64143 24.9077 7.10333 28.0462 6.48428 29.4L5.86523 29.0923C6.60809 27.6154 9.14619 24.4769 13.1081 21.6462C16.389 19.3077 20.2271 18.5077 21.589 18.5692C22.2081 18.5692 22.6414 19.1846 23.1367 19.8615C23.6938 20.5385 24.2509 21.3385 24.9319 21.2769C25.489 21.2769 26.1081 20.5385 26.6652 19.8615C27.2224 19.1846 27.7176 18.5692 28.3367 18.5077C29.6986 18.3846 33.5367 19.1231 36.8795 21.3385C41.089 24.1692 43.7509 28.7231 44.2462 29.6462L43.689 29.9538Z" fill="black"/>
<path id="Vector_12" d="M43.6279 30.0769C43.4422 29.8308 40.7184 24.8462 36.4469 21.9538C33.2898 19.8615 29.5755 19.1846 28.3993 19.2462C28.1517 19.2462 27.5946 19.8615 27.285 20.2923C26.6041 21.0923 25.8612 21.9538 24.9327 21.9538C23.8803 21.9538 23.1993 21.0308 22.5184 20.2308C22.1469 19.8 21.7755 19.2462 21.5279 19.2462C20.3517 19.1846 16.6374 19.9846 13.5422 22.2C9.70409 24.9077 7.2279 28.0462 6.54695 29.3385L6.48504 29.4L5.74219 29.0308L5.80409 28.9692C6.54695 27.4923 9.08504 24.2923 13.0469 21.4615C16.3279 19.1231 20.2279 18.3231 21.5279 18.3846C22.1469 18.4462 22.6422 19 23.1374 19.6769L23.1993 19.7385C23.6946 20.3538 24.3136 21.0923 24.8708 21.0923C25.4279 21.0923 25.985 20.3538 26.5422 19.7385C27.1612 19 27.6565 18.4462 28.2755 18.3846C29.6374 18.2615 33.4755 19 36.8803 21.2154C41.2755 24.1077 43.9993 29.0308 44.3089 29.5846L44.3708 29.6462L43.6279 30.0769ZM28.6469 19.1231C30.0708 19.1231 33.5993 19.8615 36.5708 21.8308C40.6565 24.5385 43.3803 29.2154 43.6898 29.8308L44.185 29.5846C43.7517 28.7846 41.0279 24.1692 36.8803 21.3385C33.5374 19.1231 29.6993 18.3846 28.3993 18.5077C27.8422 18.5692 27.347 19.1231 26.7898 19.8C26.2327 20.4769 25.6136 21.3385 24.9946 21.3385C24.9946 21.3385 24.9946 21.3385 24.9327 21.3385C24.2517 21.3385 23.7565 20.5385 23.1993 19.8615L23.0755 19.7385C22.5803 19.0615 22.1469 18.6308 21.5898 18.6308C20.2279 18.5692 16.5136 19.3692 13.2327 21.7077C9.33266 24.4769 6.85647 27.4308 6.11362 28.9692L6.54695 29.1538C7.28981 27.8 9.766 24.6615 13.5422 22.0154C16.5755 19.9231 20.1041 19.0615 21.466 19.0615C21.5279 19.0615 21.5898 19.0615 21.5898 19.0615C21.8993 19.0615 22.3327 19.6154 22.7041 20.1077C23.3231 20.9077 24.0041 21.7692 24.9946 21.7692C25.8612 21.7692 26.5422 20.9077 27.2231 20.1692C27.7184 19.5538 28.1517 19.0615 28.4612 19.0615C28.4612 19.1231 28.5231 19.1231 28.6469 19.1231Z" fill="black"/>
</g>
</g>
<g id="Group_11">
<g id="Group_12">
<path id="Vector_13" d="M33.1654 43.2462H32.4845C32.4845 43.1846 32.6702 35.3077 29.2035 31.8C28.0892 30.6923 26.7892 30.1385 25.2416 30.1385C23.5702 30.1385 22.2083 30.7538 21.094 31.8615C17.813 35.3692 18.3702 43 18.3702 43.0615L17.6892 43.1231C17.6892 42.8154 17.1321 35.1231 20.5987 31.3692C21.8368 30.0769 23.3845 29.4 25.2416 29.4C26.9749 29.4 28.5225 30.0154 29.7606 31.2462C33.3511 35 33.1654 42.9385 33.1654 43.2462Z" fill="black"/>
<path id="Vector_14" d="M33.2269 43.3077H32.3602V43.2462C32.3602 42.4462 32.3602 35.1846 29.0793 31.8615C28.0269 30.7538 26.665 30.2 25.1174 30.2C23.5078 30.2 22.084 30.7538 21.0316 31.9231C17.8126 35.3692 18.3078 43 18.3078 43.0615V43.1231L17.4412 43.1846V43.1231C17.4412 42.8154 16.884 35.0615 20.3507 31.3077C21.5888 30.0154 23.1364 29.3385 25.0555 29.3385C26.8507 29.3385 28.3364 29.9538 29.5745 31.2462C33.3507 35.0615 33.1031 43.1231 33.1031 43.2462L33.2269 43.3077ZM32.5459 43.1231H33.1031C33.1031 42.2615 33.1031 34.8769 29.6364 31.3077C28.4602 30.0769 26.9126 29.4615 25.1793 29.4615C23.3221 29.4615 21.8364 30.2 20.6602 31.4923C17.3174 35.0615 17.6888 42.1385 17.7507 43L18.2459 42.9385C18.184 42.1385 17.8745 35.1231 21.0316 31.7385C22.1459 30.5692 23.5078 29.9538 25.2412 29.9538C26.8507 29.9538 28.2126 30.5077 29.265 31.6154C32.484 35.0615 32.5459 42.0769 32.5459 43.1231Z" fill="black"/>
</g>
</g>
<g id="Group_13">
<g id="Group_14">
<path id="Vector_15" d="M21.712 31.2462L21.2168 30.7538C21.9597 30.0154 23.6311 27.9846 23.5692 25.0923C23.5692 22.9385 22.4549 20.0462 22.4549 20.0462L23.1358 19.8C23.1977 19.9231 24.2501 22.8154 24.2501 25.0923C24.3739 28.2308 22.5168 30.4462 21.712 31.2462Z" fill="black"/>
<path id="Vector_16" d="M21.7128 31.3692L21.0938 30.7538L21.1557 30.6923C21.8985 29.9538 23.5699 27.9231 23.508 25.0923C23.508 23.3077 22.7652 21.0308 22.4557 20.1077C22.4557 20.0462 22.4557 20.0462 22.4557 20.0462V19.9846L23.0747 19.6769L23.3842 19.9846C23.5699 20.5385 24.4366 22.9385 24.4366 25.0308C24.4366 28.2923 22.5795 30.5077 21.7128 31.3692ZM21.3414 30.8154L21.7128 31.1846C22.5176 30.3231 24.2509 28.1692 24.189 25.1538C24.189 23.1231 23.3223 20.6 23.0747 19.9846L22.5795 20.1692C22.889 21.0923 23.6318 23.3692 23.6318 25.2154C23.6937 27.9231 22.0842 30.0154 21.3414 30.8154Z" fill="black"/>
</g>
</g>
<g id="Group_15">
<g id="Group_16">
<path id="Vector_17" d="M28.5231 31.2462C28.3993 31.1231 26.1088 28.9077 26.0469 25.1538C26.0469 22.8769 27.2231 19.3692 27.285 19.2462L27.9659 19.4923C27.9659 19.5538 26.7897 23.0615 26.7897 25.2154C26.8516 28.6615 28.9564 30.7538 29.0183 30.8154L28.5231 31.2462Z" fill="black"/>
<path id="Vector_18" d="M28.5225 31.3077C28.4606 31.2462 26.0463 28.9692 25.9844 25.0923C25.9844 22.8769 27.0368 19.5538 27.2225 19.1231V19.0615H27.2844L28.0272 19.3077V19.3692C27.9653 19.4923 26.851 22.9385 26.851 25.0308C26.9129 27.6769 27.9653 29.3385 28.6463 30.0769C28.832 30.2615 29.0177 30.5077 29.0796 30.5692C29.1415 30.6308 29.3272 30.8154 29.3272 30.8154L29.1415 30.9385L28.5225 31.3077ZM27.3463 19.3077C27.1606 19.9231 26.1701 23.0615 26.1701 25.1538C26.232 28.6 28.2129 30.7538 28.5844 31.1231L28.9558 30.7538C28.5844 30.3231 26.7891 28.3538 26.7272 25.1538C26.7272 23.1846 27.7177 20.0462 27.9034 19.4923L27.3463 19.3077Z" fill="black"/>
</g>
</g>
<g id="Group_17">
<path id="Vector_19" d="M24.6839 40.6C24.3124 40.6 24.0029 40.5385 23.6315 40.3538C22.4553 39.8615 22.022 38.5077 22.022 38.4462C21.9601 38.2615 22.0839 38.0769 22.2696 38.0154C22.4553 37.9539 22.641 38.0769 22.7029 38.2615C22.7029 38.2615 23.0743 39.3692 23.941 39.7385C24.5601 39.9846 25.4886 40.1077 26.1696 39.1231C26.2934 38.9385 26.4791 38.9385 26.6648 39.0615C26.8505 39.1846 26.8505 39.3692 26.7267 39.5539C26.1696 40.2308 25.4886 40.6 24.6839 40.6Z" fill="black" stroke="black" stroke-width="0.25" stroke-miterlimit="10"/>
</g>
<g id="Group_18">
<path id="Vector_20" d="M18.5557 30.5692C19.67 29.7692 21.1557 28.5385 21.589 27.4923C22.0843 26.3846 21.7748 24.8462 21.1557 24.1692C20.5367 23.4923 18.0605 21.8308 14.9652 23.7385C12.3033 25.4 11.9319 29.3385 12.7986 31.1231C13.4795 32.5385 14.7795 33.0923 15.5224 32.8462C16.389 32.6 17.1938 31.5538 18.5557 30.5692Z" fill="white"/>
<g id="Group_19">
<path id="Vector_21" d="M15.1522 33.2769C14.2236 33.2769 13.1094 32.6 12.4903 31.3077C11.5617 29.3385 11.9951 25.2154 14.7808 23.4308C17.876 21.5231 20.476 22.8769 21.4046 23.9231C22.1475 24.7231 22.3951 26.3846 21.8998 27.6154C21.5284 28.5385 20.4141 29.6462 18.7427 30.8769C18.1855 31.2462 17.7522 31.6769 17.3189 32.0462C16.6998 32.6 16.1427 33.0923 15.5855 33.2769C15.4617 33.2769 15.3379 33.2769 15.1522 33.2769ZM17.9379 23.1846C17.1332 23.1846 16.2046 23.4308 15.2141 24.0462C12.7998 25.5231 12.3046 29.2154 13.1713 31C13.7903 32.2923 14.9046 32.7231 15.4617 32.5385C15.8951 32.4154 16.3903 31.9846 16.9475 31.4923C17.3808 31.1231 17.876 30.6923 18.4332 30.2615C19.9808 29.1538 21.0332 28.1077 21.3427 27.3077C21.776 26.2615 21.5284 24.9077 20.9713 24.4154C20.9094 24.3538 19.7951 23.1846 17.9379 23.1846Z" fill="black"/>
<path id="Vector_22" d="M15.1518 33.3385C14.2852 33.3385 13.109 32.7231 12.428 31.3077C11.4375 29.2769 11.9328 25.0923 14.7804 23.3692C17.9375 21.4615 20.5375 22.8154 21.528 23.8615C22.3328 24.6615 22.5804 26.3846 22.0233 27.6154C21.5899 28.6 20.5375 29.7077 18.8042 30.8769C18.309 31.2462 17.8756 31.6154 17.4423 31.9846L17.2566 32.1692C16.6375 32.7231 16.2042 33.0923 15.6471 33.2769C15.5233 33.3385 15.3375 33.3385 15.1518 33.3385ZM17.9375 22.5692C17.009 22.5692 15.9566 22.8154 14.8423 23.4923C12.0566 25.2154 11.6233 29.2769 12.5518 31.2462C13.1709 32.6 14.2852 33.1538 15.1518 33.1538C15.3375 33.1538 15.4613 33.1538 15.5852 33.0923C16.1423 32.9077 16.6994 32.4769 17.2566 31.9231L17.3185 31.8615C17.6899 31.4923 18.1233 31.1231 18.6804 30.7538C20.3518 29.5231 21.4042 28.4769 21.8375 27.5538C22.3328 26.3846 22.0852 24.7231 21.3423 23.9846C20.7852 23.3692 19.5471 22.5692 17.9375 22.5692ZM15.1518 32.6615C14.5328 32.6615 13.6042 32.1692 13.0471 31.0615C12.1804 29.2769 12.6756 25.5231 15.0899 23.9846C16.0185 23.4308 16.9471 23.1231 17.8756 23.1231C19.6709 23.1231 20.8471 24.2308 20.9709 24.3538C21.528 24.9077 21.7756 26.3231 21.3423 27.3692C20.9709 28.1692 19.9804 29.2154 18.3709 30.3846C17.8137 30.8154 17.3185 31.2462 16.8852 31.6154C16.328 32.1692 15.8328 32.5385 15.3994 32.6615C15.3994 32.6615 15.2756 32.6615 15.1518 32.6615ZM17.9375 23.2462C17.0709 23.2462 16.1423 23.5538 15.2137 24.1077C12.8613 25.5846 12.3661 29.2154 13.1709 30.9385C13.7899 32.1692 14.8423 32.6 15.3994 32.4154C15.8328 32.2923 16.2661 31.8615 16.8233 31.3692C17.2566 31 17.7518 30.5692 18.309 30.1385C19.8566 29.0308 20.8471 27.9846 21.2185 27.2462C21.6518 26.2615 21.4042 24.9077 20.8471 24.4154C20.8471 24.4154 19.6709 23.2462 17.9375 23.2462Z" fill="black"/>
</g>
</g>
<path id="Vector_23" d="M17.3179 29.2769C18.241 29.2769 18.9893 28.533 18.9893 27.6154C18.9893 26.6977 18.241 25.9538 17.3179 25.9538C16.3948 25.9538 15.6465 26.6977 15.6465 27.6154C15.6465 28.533 16.3948 29.2769 17.3179 29.2769Z" fill="black"/>
<g id="Group_20">
<path id="Vector_24" d="M21.5898 30.9385C21.5898 30.9385 22.4565 32.8462 24.9946 32.8462C27.8422 32.8462 28.4613 30.8154 28.4613 30.8154C28.4613 30.8154 27.2851 29.8923 25.1184 29.7692C23.3232 29.7077 21.5898 30.9385 21.5898 30.9385Z" fill="#E6ECEC"/>
<g id="Group_21">
<path id="Vector_25" d="M25.0563 33.2154C22.2705 33.2154 21.342 31.1846 21.2801 31.1231L21.1562 30.8769L21.4039 30.6923C21.4658 30.6308 23.261 29.3385 25.1182 29.4615C27.3467 29.5846 28.6467 30.5692 28.6467 30.6308L28.8324 30.7538L28.7705 31C28.7705 31.0615 28.0896 33.2154 25.0563 33.2154ZM22.0848 31.0615C22.3943 31.5538 23.261 32.4769 25.0563 32.4769C27.0372 32.4769 27.7801 31.4308 28.0277 30.9385C27.5943 30.6923 26.6039 30.1385 25.1182 30.0769C23.8182 30.0769 22.5801 30.7538 22.0848 31.0615Z" fill="black"/>
<path id="Vector_26" d="M25.0557 33.2769C22.208 33.2769 21.2176 31.1231 21.2176 31.1231L21.0938 30.8154L21.4033 30.6308C21.4033 30.6308 23.1985 29.2769 25.1795 29.4C27.5318 29.5231 28.7699 30.5692 28.7699 30.5692L29.0176 30.7538L28.8937 31C28.8318 31.2462 28.0271 33.2769 25.0557 33.2769ZM21.2795 30.8769L21.3414 31.0615C21.3414 31.0615 22.2699 33.1538 24.9937 33.1538V33.2154V33.1538C27.9033 33.1538 28.5842 31.1846 28.708 30.9385L28.7699 30.7538L28.6461 30.6308C28.6461 30.6308 27.408 29.5846 25.1176 29.5231C23.1985 29.4615 21.4652 30.7538 21.4033 30.7538L21.2795 30.8769ZM25.0557 32.6C23.1985 32.6 22.3318 31.5538 22.0223 31.1231L21.9604 31.0615L22.0223 31C22.6414 30.6308 23.8795 30.0154 25.1176 30.0769C26.6033 30.1385 27.5937 30.6308 28.089 30.9385L28.1509 31H28.089C27.8414 31.4923 27.0985 32.6 25.0557 32.6ZM22.208 31.1231C22.5176 31.5538 23.3842 32.4769 25.0557 32.4769C26.8509 32.4769 27.6557 31.6154 27.9652 31.0615C27.4699 30.7538 26.5414 30.3231 25.1176 30.2615C23.8795 30.2 22.7033 30.8154 22.208 31.1231Z" fill="black"/>
</g>
</g>
<g id="Group_22">
<path id="Vector_27" d="M31.8648 30.4462C30.7505 29.6462 29.2648 28.4154 28.8315 27.3692C28.3362 26.2615 28.6458 24.7231 29.2648 24.0462C29.8839 23.3692 32.3601 21.7077 35.4553 23.6154C38.1172 25.2769 38.4886 29.2154 37.622 31C36.941 32.4154 35.641 32.9692 34.8982 32.7231C34.0315 32.4769 33.2267 31.4308 31.8648 30.4462Z" fill="white"/>
<g id="Group_23">
<path id="Vector_28" d="M35.2703 33.1539C35.0846 33.1539 34.9608 33.1539 34.7751 33.0923C34.156 32.9077 33.6608 32.4154 33.0417 31.8615C32.6084 31.4923 32.1751 31.0615 31.6179 30.6923C29.8846 29.4615 28.8322 28.3539 28.4608 27.4308C27.9655 26.2615 28.2132 24.5385 28.956 23.7385C29.8846 22.7539 32.5465 21.4 35.5798 23.2462C38.4274 24.9692 38.8608 29.1539 37.8703 31.1231C37.3132 32.5385 36.1989 33.1539 35.2703 33.1539ZM32.0513 30.1385C32.6084 30.5692 33.1036 31 33.537 31.3692C34.0941 31.8615 34.5893 32.2923 35.0227 32.4154C35.5798 32.6 36.6941 32.1692 37.3132 30.8769C38.1798 29.0923 37.6846 25.4 35.2703 23.9231C31.8655 21.8308 29.5132 24.2308 29.5132 24.2923C29.0179 24.8462 28.7084 26.2 29.1417 27.1846C29.4513 27.9846 30.5036 29.0308 32.0513 30.1385Z" fill="black"/>
<path id="Vector_29" d="M35.2696 33.2769C35.0839 33.2769 34.8982 33.2769 34.7744 33.2154C34.2172 33.0308 33.6601 32.6 33.1029 32.0462L32.9791 31.9231C32.6077 31.5539 32.1744 31.1846 31.6172 30.8154C29.8839 29.5846 28.8315 28.4769 28.3982 27.5539C27.9029 26.3231 28.0887 24.6 28.8934 23.8C29.8839 22.8154 32.5458 21.4 35.641 23.3077C38.4887 25.0923 38.922 29.2769 37.9934 31.2462C37.3744 32.6 36.1363 33.2769 35.2696 33.2769ZM32.4839 22.4462C30.8744 22.4462 29.6363 23.2462 29.0172 23.8615C28.2744 24.6615 28.0268 26.2615 28.522 27.4308C28.8934 28.3539 29.9458 29.4615 31.6791 30.6308C32.2363 31 32.6696 31.4308 33.041 31.7385L33.1649 31.8615C33.722 32.3539 34.2791 32.8462 34.7744 32.9692C34.8982 33.0308 35.0839 33.0308 35.2077 33.0308C36.0125 33.0308 37.1268 32.4154 37.8077 31.1231C38.7363 29.1539 38.3029 25.0923 35.5172 23.3692C34.4648 22.6923 33.4125 22.4462 32.4839 22.4462ZM35.2696 32.5385C35.1458 32.5385 35.0839 32.5385 34.9601 32.4769C34.5268 32.3539 34.0315 31.9231 33.4744 31.4308C33.041 31.0615 32.5458 30.6308 31.9887 30.2C30.3791 29.0923 29.3887 28.0462 29.0172 27.1846C28.5839 26.1385 28.8315 24.7231 29.3887 24.1692C29.5125 24.0462 31.8649 21.7077 35.2696 23.8C37.7458 25.3385 38.1791 29.0923 37.3125 30.8769C36.8172 32.0462 35.8887 32.5385 35.2696 32.5385ZM32.1125 30.0769C32.6696 30.5077 33.1649 30.8769 33.5982 31.3077C34.1553 31.8 34.5887 32.2308 35.022 32.3539C35.5791 32.5385 36.6315 32.1077 37.2506 30.8769C38.1172 29.1539 37.622 25.4615 35.2077 24.0462C31.9268 22.0154 29.6363 24.1692 29.5125 24.3539C29.0172 24.9077 28.7696 26.2 29.141 27.1846C29.5744 27.9846 30.5648 28.9692 32.1125 30.0769Z" fill="black"/>
</g>
</g>
<path id="Vector_30" d="M33.1031 29.1539C34.0262 29.1539 34.7745 28.41 34.7745 27.4923C34.7745 26.5747 34.0262 25.8308 33.1031 25.8308C32.18 25.8308 31.4316 26.5747 31.4316 27.4923C31.4316 28.41 32.18 29.1539 33.1031 29.1539Z" fill="black"/>
</g>
</g>
<defs>
<clipPath id="clip0_1146_285">
<rect width="49.0905" height="45.9077" fill="white" transform="translate(0.666016 0.230774)"/>
</clipPath>
</defs>
</svg>
