<svg width="50" height="47" viewBox="0 0 50 47" fill="none" xmlns="http://www.w3.org/2000/svg">
<g id="3Green Ninja- Mask1-Char3" clip-path="url(#clip0_1146_155)">
<g id="Group">
<path id="Vector" d="M6.857 21.5385C6.36176 19.8769 4.50461 17.1077 2.89509 15.6308C1.28557 14.1539 5.06176 9.78463 7.04271 9.72309C8.34271 9.66155 10.3856 13.0462 12.7379 14.7692C13.976 15.6923 14.4713 14.9539 15.2141 14.8923C16.2046 14.7692 18.6808 13.9692 21.8379 13.6615C25.3046 13.3539 31.8046 13.9692 33.4141 14.7692C36.5713 16.2462 37.3141 14.5231 37.7475 12.9231C38.1189 11.3231 46.1046 11.8769 46.5998 14.2154C46.8475 15.2615 42.8237 19.8769 42.2665 23.5692C41.6475 27.2 33.6618 19.3846 24.5618 20.0615C15.4618 20.7385 8.65223 23.5692 7.97128 25.1692C7.22842 26.7077 7.16652 22.4615 6.857 21.5385Z" fill="white"/>
<path id="Vector_2" d="M37.7467 14.2154C37.7467 14.2154 38.0563 13.2923 37.561 11.7539C36.942 9.9077 35.5801 7.32309 35.5801 5.60001C35.5801 2.40001 37.8706 1.16924 40.3467 1.66155C42.8229 2.15386 46.4134 3.56924 47.2801 6.40001C47.7134 7.75386 48.3325 9.66155 48.2086 11.1385C48.0229 12.8615 47.0944 14.4615 46.7848 14.8923C46.7848 14.8923 44.4325 12.9846 42.8848 13.1692C41.2753 13.2923 37.7467 14.2154 37.7467 14.2154Z" fill="#41A5A2"/>
<path id="Vector_3" d="M7.29017 30.6462C7.29017 30.6462 7.41398 22.5231 11.933 18.9539C16.2664 15.5077 19.6092 15.3846 24.6235 15.3231C29.6997 15.2615 33.5997 15.8769 36.5092 18.4C39.7283 21.2308 40.7187 23.4462 41.4616 25.7231C42.5759 29.0462 42.0187 32.3077 41.5235 33.6C41.214 34.4 37.933 35.9385 37.0044 36.4308C34.3425 37.8462 23.1378 38.7692 17.814 37.7846C12.4902 36.7385 8.77588 35.9385 7.84731 34.1539C6.91874 32.4308 7.29017 30.6462 7.29017 30.6462Z" fill="#EDEFEF"/>
<path id="Vector_4" opacity="0.68" d="M45.3614 12.7385C45.3614 12.7385 46.6614 10.2769 46.2281 8.12309C45.8566 6.27694 44.5566 4.06155 44.5566 4.06155C44.5566 4.06155 46.29 5.53848 46.9709 7.0154C47.7138 8.73848 47.8376 10.2154 47.4043 11.6308C47.0328 12.9231 46.4757 13.4154 46.4757 13.4154C46.4757 13.4154 46.29 13.1692 46.1043 13.0462C45.9185 12.9846 45.3614 12.7385 45.3614 12.7385Z" fill="white"/>
<path id="Vector_5" d="M11.4998 14.0308C11.4998 14.0308 11.4998 12.8 11.6855 11.5692C11.9951 9.66154 13.5427 7.13846 13.5427 5.41539C13.5427 2.21539 11.1284 1.23077 8.65221 1.78462C6.17602 2.33846 2.58555 3.81539 1.71888 6.64616C1.28555 7.93846 0.666499 9.84616 0.852214 11.3846C1.03793 13.1077 2.52364 14.8308 2.83317 15.2C2.83317 15.2 4.50459 12.9846 6.98078 13.1077C8.59031 13.2308 11.4998 14.0308 11.4998 14.0308Z" fill="#41A5A2"/>
<path id="Vector_6" d="M7.4764 32.8615C7.4764 32.8615 11.0669 34.8923 13.5431 34.7077C14.9669 34.5846 18.4335 32.9846 19.6097 31.1385C20.7859 29.3539 20.2907 28.4923 21.6526 26.8923C23.0145 25.2308 24.624 25.3539 25.7383 25.3539C26.8526 25.3539 28.2764 25.4769 29.205 26.9539C30.1335 28.4308 30.3193 31.6308 32.0526 32.6154C33.1669 33.2308 35.5812 34.5231 37.4383 34.2154C39.2955 33.9692 41.524 33.1077 41.524 33.1077C41.524 33.1077 42.3907 35.1385 41.3383 36.7385C40.3478 38.3385 36.8812 40.4923 34.5907 41.7231C32.2383 42.9539 28.4621 44.9846 24.8716 45.2308C21.2812 45.4769 16.7002 42.5846 15.524 41.9692C14.3478 41.3539 9.70497 38.1539 8.52878 36.4923C7.35259 34.8923 7.4764 32.8615 7.4764 32.8615Z" fill="#427C78"/>
<g id="Group_2">
<path id="Vector_7" d="M25.0566 45.9077C24.8709 45.9077 24.6232 45.9077 24.4994 45.9692C23.1994 45.9692 19.6709 45.0462 16.3899 42.9539C15.5852 42.4616 14.7804 41.9692 13.9756 41.4769C10.6947 39.5077 7.84706 37.8462 7.28991 35.2C6.67087 32.3692 6.85658 29.0462 6.91849 27.2616V26.8308C6.91849 26.4 6.98039 25.7846 7.0423 25.0462C7.0423 24.5539 7.1042 24.0616 7.16611 23.5077L7.97087 23.5692C7.97087 24.1231 7.90896 24.6769 7.84706 25.1077C7.78515 25.7846 7.78515 26.4 7.72325 26.8308V27.2616C7.66134 28.9846 7.47563 32.2462 8.03277 35.0154C8.52801 37.2923 11.1899 38.8923 14.3471 40.7385C15.1518 41.2308 15.9566 41.6616 16.7613 42.2154C20.0423 44.3077 23.3852 45.1692 24.4375 45.1077C25.5518 45.1077 28.9566 44.4308 32.2375 42.5231C33.0423 42.0308 33.909 41.6 34.7137 41.1692C37.9328 39.4462 40.7185 37.9692 41.2756 35.6923C41.5852 34.5231 41.709 29.6616 41.5852 23.3846H42.3899C42.5137 28.4308 42.4518 34.4 42.0804 35.9385C41.3994 38.5231 38.4899 40.0616 35.0852 41.9077C34.2804 42.3385 33.4756 42.7692 32.609 43.2616C29.7613 44.9846 26.6661 45.7231 25.0566 45.9077Z" fill="black"/>
</g>
<path id="Vector_8" d="M42.0182 33.0462C41.2754 33.3539 40.3468 33.7231 39.2944 33.9692C36.8182 34.5231 32.9801 33.9692 31.3706 31.8154C29.9468 29.9692 30.442 25.4154 25.6754 25.2923C20.4135 25.2308 20.9706 29.6616 19.423 31.3846C17.6278 33.4154 13.7897 35.1385 11.3754 34.3385C9.82775 33.8462 8.15632 32.8 7.35156 32.3077" stroke="black" stroke-width="2" stroke-miterlimit="10"/>
<g id="Group_3">
<g id="Group_4">
<path id="Vector_9" d="M42.5128 28.1231L41.7699 25.4154C41.7699 25.3539 40.7795 21.7846 39.0461 19.3231C37.6223 17.3539 35.0842 15.8154 35.0842 15.8154L34.0938 15.2615L35.208 15.0769C35.2699 15.0769 37.0033 14.7692 37.3128 13.2308C37.4985 12.0616 36.8795 10.7077 36.3223 9.4154C36.0128 8.80001 35.7652 8.24617 35.5795 7.69232C35.2699 6.64617 34.8366 4.73847 35.7033 3.20001C36.1985 2.27693 37.1271 1.66155 38.3652 1.4154C41.3366 0.738473 44.3699 2.27693 46.0414 3.75386C47.9604 5.47693 48.5795 8.00001 48.7652 9.35386C49.0128 11.0769 48.8271 12.6154 47.0937 15.2615C46.4747 16.1846 45.9176 16.9231 45.4223 17.6C44.3699 18.9539 43.5652 20.0616 43.1937 21.4154C42.6366 23.5077 42.5747 25.2923 42.5747 25.3539L42.5128 28.1231ZM36.1985 15.5692C37.1271 16.1846 38.6128 17.3539 39.6652 18.8308C40.6557 20.3077 41.4604 22.0308 41.8937 23.3231C42.0176 22.7077 42.1414 21.9692 42.3271 21.1692C42.7604 19.6308 43.6271 18.4616 44.6795 17.0462C45.1747 16.3692 45.7318 15.6308 46.3509 14.7692C48.0842 12.0616 48.0842 10.6462 47.8985 9.4154C47.7128 8.18463 47.1557 5.84617 45.4223 4.3077C43.7509 2.83078 40.9652 1.53847 38.489 2.15386C37.4366 2.40001 36.7557 2.89232 36.3223 3.56924C35.6414 4.80001 36.0128 6.52309 36.2604 7.44617C36.4461 7.93847 36.6937 8.49232 36.9414 9.1077C37.5604 10.4615 38.2414 12 37.9937 13.4154C37.8699 14.6462 36.9414 15.2615 36.1985 15.5692Z" fill="black"/>
</g>
<g id="Group_5">
<path id="Vector_10" d="M46.2887 16.1231C46.2268 16.1231 46.1649 16.1231 46.103 16.1231C45.8554 16 45.7316 15.8154 45.8554 15.5692C46.0411 15.0769 45.9792 14.7077 45.7935 14.4C45.4221 13.8462 44.3078 13.5385 42.884 13.5385C40.8411 13.5385 37.6221 14.5846 37.5602 14.5846C37.3745 14.6462 37.1268 14.5231 37.0649 14.3385C37.003 14.1539 37.1268 13.9077 37.3126 13.8462C37.4364 13.7846 40.7173 12.7385 42.884 12.7385C44.1221 12.7385 45.7316 12.9231 46.4745 13.9077C46.8459 14.4 46.9078 15.0769 46.6602 15.8154C46.5364 16 46.4125 16.1231 46.2887 16.1231Z" fill="black"/>
</g>
</g>
<g id="Group_6">
<path id="Vector_11" d="M35.6428 15.8769C35.5809 15.8769 35.519 15.8769 35.4571 15.8769C32.4237 14.5846 28.5237 13.9077 24.5618 13.9077C20.6618 13.9077 17.0095 14.5846 13.9761 15.8769C13.7904 15.9385 13.5428 15.8769 13.419 15.6923C13.2952 15.5077 13.419 15.2615 13.6047 15.1385C16.7618 13.8462 20.538 13.1692 24.4999 13.1077C28.5856 13.1077 32.5476 13.7846 35.7047 15.1385C35.8904 15.2 36.0142 15.4462 35.8904 15.6923C35.8904 15.8154 35.7666 15.8769 35.6428 15.8769Z" fill="black"/>
</g>
<g id="Group_7">
<g id="Group_8">
<path id="Vector_12" d="M7.04226 29.1692L6.91845 25.2308C6.91845 25.2308 6.85655 23.4462 6.2375 21.2923C5.86607 19.8769 4.9994 18.8308 4.00893 17.4769C3.51369 16.8 2.89464 16.0615 2.2756 15.1385C0.542262 12.4923 0.294643 10.9539 0.542262 9.23078C0.727977 7.87693 1.28512 5.35386 3.20417 3.63078C4.8756 2.09232 7.84702 0.553855 10.8185 1.16924C12.0565 1.47693 12.9851 2.03078 13.5423 2.95386C14.4089 4.43078 14.0375 6.40001 13.728 7.44616C13.5423 8.00001 13.2946 8.61539 12.9851 9.23078C12.428 10.5231 11.8089 11.9385 12.0565 13.0462C12.3661 14.5846 14.0994 14.8308 14.1613 14.8308L15.3375 15.0154L14.2851 15.6308C14.2851 15.6308 11.747 17.0462 10.3232 19.2C8.28036 22.1539 7.78512 25.2923 7.72321 25.2923L7.04226 29.1692ZM8.7756 1.9077C6.91845 2.09232 4.9994 3.07693 3.76131 4.24616C2.02798 5.78463 1.53274 8.12309 1.34702 9.41539C1.16131 10.7077 1.16131 12.1231 2.95655 14.7692C3.51369 15.6308 4.13274 16.3692 4.62798 17.0462C5.68036 18.4 6.60893 19.5692 7.04226 21.1077C7.22798 21.8462 7.35179 22.4615 7.4756 23.0769C7.90893 21.8462 8.52798 20.3077 9.64226 18.7077C10.6946 17.1692 12.1804 16 13.1089 15.3846C12.3661 15.0769 11.4994 14.4615 11.2518 13.1692C11.0042 11.7539 11.6851 10.2154 12.2423 8.86155C12.4899 8.24616 12.7375 7.69232 12.9232 7.20001C13.2327 6.27693 13.5423 4.55386 12.8613 3.32309C12.428 2.64616 11.6851 2.15386 10.6946 1.9077C10.0756 1.84616 9.45655 1.84616 8.7756 1.9077Z" fill="black"/>
</g>
<g id="Group_9">
<path id="Vector_13" d="M3.20437 16C3.01866 16 2.83294 15.8769 2.77104 15.6923C2.64723 15.1385 2.77104 14.5846 3.14247 14.0923C3.82342 13.2308 5.24723 12.7385 6.85675 12.6769C9.02342 12.6769 11.9329 13.6 12.0568 13.6616C12.2425 13.7231 12.3663 13.9692 12.3044 14.1539C12.2425 14.3385 11.9948 14.4616 11.8091 14.4C11.8091 14.4 8.89961 13.4769 6.91866 13.4769C5.55675 13.4769 4.31866 13.9077 3.82342 14.5846C3.5758 14.8923 3.51389 15.1385 3.51389 15.5077C3.5758 15.7539 3.45199 15.9385 3.20437 16Z" fill="black"/>
</g>
</g>
<path id="Vector_14" opacity="0.68" d="M8.58984 12.3692C8.58984 12.3692 10.7565 9.53847 11.6851 6.89232C12.4279 4.86155 11.8708 3.20001 11.8708 3.20001C11.8708 3.20001 12.3041 3.5077 12.6756 4.24617C12.9851 4.98463 13.047 6.09232 12.6756 7.0154C11.8089 9.04617 11.2517 10.1539 11.0041 10.8308C10.6327 11.8154 10.7565 12.8 10.7565 12.8C10.7565 12.8 10.0756 12.6154 9.88984 12.5539C9.51841 12.4923 8.58984 12.3692 8.58984 12.3692Z" fill="white"/>
<g id="Group_10">
<path id="Vector_15" d="M27.531 27.6308C27.531 28.3692 27.531 29.2923 27.593 30.4615C27.6549 31.8769 30.9977 35.6308 33.3501 37.9077C34.2168 38.7077 34.5882 40.2462 34.9596 41.6C34.9596 41.6 39.912 39.1385 41.212 36.9231C42.2644 35.0769 42.1406 31.6308 42.0787 28.1231C42.0168 24.9846 41.212 22.9539 41.212 22.9539C39.293 21.6 38.3644 20.9846 37.0025 20.4923C35.6406 20 31.1834 18.4 29.6358 19.6923C28.7072 20.4923 28.2739 21.5385 28.0263 22.6462C28.0263 22.6462 27.593 23.6923 25.4882 23.6923C23.3834 23.6923 23.012 22.5846 23.012 22.5846C22.7644 21.2923 22.331 20.1231 21.2787 19.2C19.731 17.9077 15.2739 19.4462 13.912 20.0615C11.7453 21.0462 9.70248 22.7692 7.22629 25.8462C7.22629 25.8462 6.54534 33.6 7.53581 35.4462C9.51676 39.0769 15.7072 42.0308 15.7072 42.0308C15.7072 42.0308 15.6453 39.1385 16.3882 38.2769C18.8025 35.5692 23.3215 32.0615 23.5072 29.9077C23.5691 28.9231 23.5691 28.1846 23.5691 27.5077C23.5691 27.5077 23.2596 26.2769 25.5501 26.2769C27.0977 26.4 27.531 27.6308 27.531 27.6308Z" fill="#41A5A2"/>
<path id="Vector_16" d="M34.7748 42.0923L34.5891 41.4154C34.2176 40.1231 33.8462 38.8308 33.1652 38.1539C30.9367 36.0615 27.3462 32.0615 27.2843 30.4615V29.9692C27.2224 29.0462 27.2224 28.3692 27.2224 27.6923C27.0986 27.4462 26.7272 26.7692 25.6748 26.7692C24.6843 26.7692 24.3129 27.0154 24.1891 27.2C24.1272 27.3231 24.1272 27.5077 24.1272 27.5077V27.5692V27.6308C24.1272 28.3692 24.1272 29.1692 24.0652 30.0923C23.9414 31.7539 21.7748 33.7846 19.4843 36C18.5557 36.9231 17.5652 37.8462 16.8224 38.7077C16.3272 39.2615 16.2033 41.1692 16.2033 42.2154V42.8308L15.5843 42.5231C15.3367 42.4 9.27001 39.5077 7.22715 35.8154C6.23668 33.9077 6.85572 26.8308 6.91763 25.9692V25.8462L6.97953 25.7231C9.39382 22.7692 11.4986 20.9231 13.851 19.8769C15.0272 19.3231 19.8557 17.5385 21.651 19.0769C22.8891 20.1231 23.2605 21.5385 23.5081 22.6462C23.57 22.7692 24.0033 23.4462 25.6129 23.4462C27.2224 23.4462 27.6557 22.7692 27.7795 22.6462C28.0891 21.2308 28.6462 20.2462 29.5129 19.5077C30.6272 18.5231 33.2891 18.7692 37.251 20.2462C38.6129 20.7385 39.6652 21.4154 41.5224 22.7692L41.6462 22.8308L41.7081 22.9539C41.77 23.0154 42.5129 25.1077 42.6367 28.2462V28.4923C42.7605 32 42.8224 35.3846 41.7081 37.2308C40.3462 39.5077 35.4557 41.7231 35.27 41.8462L34.7748 42.0923ZM25.0557 26.0308C25.2414 26.0308 25.4272 26.0308 25.6129 26.0308C27.4081 26.0308 27.9652 27.3231 27.9652 27.3846V27.6308V27.6923C27.9652 28.3077 27.9652 29.0462 28.0272 29.9692V30.4615C28.0891 31.5692 30.9986 35.0769 33.6605 37.6C34.5272 38.4 34.8986 39.6923 35.27 41.0462C36.5081 40.3692 39.9129 38.4615 40.9033 36.7385C41.8938 35.0769 41.77 31.6923 41.7081 28.4308V28.1846C41.6462 25.6 41.0891 23.6923 40.9033 23.2615C39.17 22.0308 38.1795 21.4154 36.9414 20.9231C32.051 19.1385 30.5033 19.6308 30.0081 20.0615C29.2652 20.6769 28.8319 21.5385 28.5224 22.8308V22.8923C28.5224 22.9539 27.9033 24.1846 25.6129 24.1846C23.2605 24.1846 22.7652 22.8923 22.7652 22.8308V22.7692C22.5176 21.2923 22.0224 20.3077 21.2176 19.6308C19.9795 18.5846 15.8319 19.8769 14.2843 20.5539C12.0557 21.6 10.0748 23.2615 7.78429 26.0923C7.59858 28.3077 7.28906 33.9692 8.03191 35.3231C9.57953 38.1539 13.851 40.6154 15.3986 41.4769C15.3986 40.4923 15.5843 38.8308 16.2033 38.0923C16.9462 37.2308 17.9367 36.2462 18.9272 35.3231C20.9081 33.4154 23.1367 31.2615 23.1986 29.9692C23.2605 29.1077 23.2605 28.3077 23.2605 27.6308C23.2605 27.4462 23.1986 27.0769 23.5081 26.7077C23.7557 26.3385 24.3129 26.0923 25.0557 26.0308Z" fill="black"/>
</g>
<g id="Group_11">
<path id="Vector_17" d="M20.858 29.8656C21.4596 26.7274 19.6604 23.7502 16.8393 23.2157C14.0183 22.6813 11.2437 24.7921 10.6421 27.9303C10.0404 31.0685 11.8396 34.0457 14.6607 34.5802C17.4817 35.1146 20.2564 33.0038 20.858 29.8656Z" fill="white"/>
<path id="Vector_18" d="M16.0817 35.0154C15.5864 35.0769 15.0912 35.0154 14.5959 34.9539C13.1102 34.6462 11.8721 33.7846 11.0674 32.4308C10.2626 31.0769 9.95309 29.4769 10.2626 27.8769C10.8817 24.5539 13.915 22.2769 16.8864 22.8308C18.3721 23.1385 19.6102 24 20.415 25.3539C21.2198 26.7077 21.5293 28.3077 21.2198 29.9077C20.9102 31.5077 20.0436 32.9231 18.8055 33.9077C18.0007 34.5846 17.0721 34.9539 16.0817 35.0154ZM15.5245 23.5692C13.4198 23.8154 11.5007 25.6 11.0674 28C10.8198 29.4154 11.0674 30.8308 11.7483 32C12.4293 33.1692 13.4817 33.9077 14.7817 34.1539C16.0198 34.4 17.3198 34.0923 18.3721 33.2308C19.4864 32.4308 20.2293 31.1385 20.4769 29.7231C20.7245 28.3077 20.4769 26.8923 19.7959 25.7231C19.0531 24.6154 18.0007 23.8769 16.7626 23.6308C16.3293 23.5692 15.9579 23.5077 15.5245 23.5692Z" fill="black"/>
</g>
<g id="Group_12">
<path id="Vector_19" d="M19.6902 29.6851C20.151 27.2814 18.7822 25.0027 16.6328 24.5955C14.4834 24.1883 12.3675 25.8068 11.9066 28.2106C11.4458 30.6143 12.8147 32.893 14.964 33.3002C17.1134 33.7074 19.2294 32.0889 19.6902 29.6851Z" fill="white"/>
<path id="Vector_20" d="M16.0815 33.7231C15.7101 33.7846 15.2768 33.7231 14.9053 33.6615C12.553 33.2308 11.0053 30.7077 11.5006 28.1231C11.7482 26.8923 12.4292 25.7846 13.3577 25.0462C14.3482 24.3077 15.5244 24 16.6387 24.2462C17.8149 24.4923 18.8053 25.1692 19.4244 26.2154C20.0434 27.2615 20.2911 28.5539 20.0434 29.7846C19.7958 31.0154 19.1149 32.1231 18.1863 32.8615C17.5672 33.3539 16.8244 33.6615 16.0815 33.7231ZM15.6482 24.9846C15.0292 25.0462 14.4101 25.2923 13.9149 25.7231C13.1101 26.3385 12.553 27.2615 12.3672 28.3077C11.9339 30.4615 13.172 32.5539 15.0911 32.9231C16.0196 33.1077 16.9482 32.8615 17.753 32.2462C18.5577 31.6308 19.1149 30.7077 19.3006 29.6615C19.4863 28.6154 19.3006 27.5077 18.8053 26.6462C18.3101 25.7846 17.5053 25.2308 16.5768 25.0462C16.2672 24.9231 15.9577 24.9231 15.6482 24.9846Z" fill="black"/>
</g>
<g id="Group_13">
<path id="Vector_21" d="M17.4059 29.078C17.514 28.1325 16.9131 27.2882 16.0639 27.1923C15.2146 27.0964 14.4385 27.7851 14.3305 28.7307C14.2224 29.6762 14.8232 30.5205 15.6725 30.6164C16.5217 30.7123 17.2978 30.0236 17.4059 29.078Z" fill="#1A1A1A"/>
<path id="Vector_22" d="M16.0188 31.0154C15.895 31.0154 15.7712 31.0154 15.6474 31.0154C14.595 30.8923 13.7903 29.8462 13.976 28.6769C14.0379 28.1231 14.2855 27.6308 14.7188 27.2616C15.1522 26.8923 15.6474 26.7077 16.2046 26.7692C17.2569 26.8923 18.0617 27.9385 17.876 29.1077C17.6903 30.1539 16.8855 30.9539 16.0188 31.0154ZM15.7712 27.6308C15.5236 27.6308 15.3379 27.7539 15.1522 27.9385C14.9046 28.1846 14.7188 28.4923 14.7188 28.8616C14.6569 29.6 15.0903 30.2154 15.7093 30.2769C16.3284 30.3385 16.8855 29.7846 17.0093 29.1077C17.0712 28.3692 16.6379 27.7539 16.0188 27.6923C15.9569 27.5692 15.895 27.5692 15.7712 27.6308Z" fill="black"/>
</g>
<g id="Group_14">
<path id="Vector_23" d="M35.8617 34.5748C38.6988 34.1326 40.5952 31.2156 40.0974 28.0595C39.5996 24.9034 36.8961 22.7033 34.059 23.1455C31.2218 23.5878 29.3254 26.5048 29.8232 29.6609C30.3211 32.817 33.0246 35.017 35.8617 34.5748Z" fill="white"/>
<path id="Vector_24" d="M35.4576 35.0154C34.0957 35.0769 32.8576 34.6462 31.7434 33.7846C30.5053 32.8 29.7005 31.3846 29.4529 29.7231C28.9576 26.4 31.0005 23.2615 34.0338 22.7692C37.0672 22.2769 39.9767 24.6769 40.5338 28C41.091 31.3231 39.11 34.4 36.1386 34.8923C36.1386 34.8923 36.0148 34.9539 35.8291 34.9539C35.7053 35.0154 35.5196 35.0154 35.4576 35.0154ZM34.3434 23.5692C34.2815 23.5692 34.2196 23.5692 34.0957 23.5692C31.4957 24 29.7624 26.7077 30.1957 29.6C30.4434 31.0154 31.1243 32.3077 32.1767 33.1692C33.2291 34.0308 34.4672 34.4 35.7672 34.2154C38.3672 33.7846 40.1005 31.0769 39.6672 28.1846C39.2338 25.2923 36.8815 23.2615 34.3434 23.5692Z" fill="black"/>
</g>
<g id="Group_15">
<path id="Vector_25" d="M35.7027 33.2392C37.8306 32.9075 39.2507 30.7061 38.8747 28.3223C38.4987 25.9384 36.4689 24.2748 34.3411 24.6064C32.2132 24.9381 30.7931 27.1395 31.1691 29.5233C31.5451 31.9072 33.5749 33.5708 35.7027 33.2392Z" fill="white"/>
<path id="Vector_26" d="M35.0232 33.6C32.9184 33.5385 31.1232 31.8769 30.7517 29.5385C30.566 28.3077 30.8136 27.0769 31.4327 26.0308C32.1136 24.9846 33.1041 24.3692 34.2184 24.1846C36.5708 23.8154 38.7993 25.6 39.2327 28.1846C39.4184 29.4154 39.1708 30.6462 38.5517 31.6923C37.9327 32.6154 37.1279 33.2308 36.1374 33.4769C36.0755 33.4769 35.8898 33.5385 35.6422 33.6C35.3946 33.6 35.0851 33.6 35.0232 33.6ZM34.5279 24.9846C34.466 24.9846 34.4041 24.9846 34.3422 24.9846C33.4136 25.1077 32.6089 25.6615 32.1136 26.4615C31.5565 27.3231 31.3708 28.3692 31.4946 29.4154C31.8041 31.5692 33.6612 33.0462 35.5803 32.8C36.5089 32.6769 37.3136 32.1231 37.8089 31.3231C38.366 30.4615 38.5517 29.4154 38.4279 28.3692C38.1184 26.2769 36.3851 24.8 34.5279 24.9846Z" fill="black"/>
</g>
<g id="Group_16">
<path id="Vector_27" d="M35.2299 30.8709C36.0743 30.7392 36.6386 29.8704 36.4903 28.9303C36.3421 27.9902 35.5373 27.3348 34.693 27.4664C33.8486 27.598 33.2843 28.4668 33.4326 29.4069C33.5808 30.3471 34.3856 31.0025 35.2299 30.8709Z" fill="#1A1A1A"/>
<path id="Vector_28" d="M35.2089 31.2616C34.1565 31.3846 33.2279 30.5846 33.0422 29.4769C32.8565 28.3077 33.5374 27.2 34.5898 27.0769C35.6422 26.8923 36.6327 27.6923 36.8184 28.8616C37.0041 30.0308 36.2613 31.0769 35.2089 31.2616C35.2708 31.2616 35.2089 31.2616 35.2089 31.2616ZM34.7755 27.8154C34.0946 27.9385 33.7232 28.6154 33.7851 29.2923C33.9089 30.0308 34.466 30.5231 35.0851 30.4C35.7041 30.2769 36.1374 29.6616 36.0136 28.9231C35.9517 28.3077 35.3946 27.8154 34.7755 27.8154Z" fill="black"/>
</g>
</g>
</g>
<defs>
<clipPath id="clip0_1146_155">
<rect width="49.0905" height="45.9077" fill="white" transform="translate(0.046875 0.615387)"/>
</clipPath>
</defs>
</svg>
