<svg width="54" height="50" viewBox="0 0 54 50" fill="none" xmlns="http://www.w3.org/2000/svg">
<g id="4Red Ninja- Mask2-Char2" clip-path="url(#clip0_1146_72)">
<g id="Group">
<g id="Group_2">
<g id="Group_3">
<g id="Group_4">
<path id="Vector" d="M11.8908 30.8901C11.8908 30.8901 6.44974 26.4801 4.19369 25.4779C3.79556 25.3442 3.53015 25.2774 3.33108 25.2774C3.06567 25.3442 2.73389 25.4779 2.60118 25.6115C-0.052992 27.2819 3.19837 32.8278 4.59182 34.6987C5.32171 35.5674 7.77683 38.3737 10.1656 39.1755C12.1562 39.9105 15.1422 39.5764 15.1422 39.5764" fill="white"/>
<path id="Vector_2" d="M13.7485 40.111C14.5448 40.111 15.0756 40.0442 15.142 40.0442L15.0756 39.1087C15.0093 39.1087 12.0897 39.376 10.2981 38.7078C8.17475 37.9728 5.71963 35.4337 4.98974 34.3646C3.92807 32.9615 1.73837 29.2197 2.1365 27.1483C2.1365 26.6138 2.40191 26.2797 2.80004 26.0124C2.86639 25.9456 3.19817 25.7451 3.39723 25.7451C3.46358 25.7451 3.66265 25.7451 3.99442 25.8788C6.18412 26.8142 11.4925 31.1574 11.5588 31.2242L12.156 30.4892C11.8906 30.2887 6.6486 26.0124 4.32619 25.0101C3.92807 24.8097 3.59629 24.7429 3.26452 24.7429C2.86639 24.8097 2.53462 25.0101 2.2692 25.1438C1.67202 25.5447 1.20753 26.146 1.07483 26.9478C0.610345 29.6206 3.19817 33.6965 4.12713 34.966C4.72432 35.701 7.31214 38.641 9.83361 39.5764C11.1607 40.111 12.6868 40.111 13.7485 40.111Z" fill="black"/>
</g>
<g id="Group_5">
<path id="Vector_3" d="M13.7482 38.1733C13.9473 38.1733 14.1463 38.0396 14.2127 37.8392C14.2791 37.5719 14.1463 37.3046 13.8809 37.2378C11.8239 36.6364 9.43519 35.9014 9.16977 35.701C9.16977 35.6342 8.90435 35.3001 9.89967 33.3624C10.0324 33.0951 10.4305 32.2933 7.64362 29.821C7.44455 29.6874 7.31184 29.5537 7.17914 29.4201C5.98476 28.2842 4.19319 26.6138 1.87078 27.0147C1.60537 27.0147 1.47266 27.2819 1.47266 27.5492C1.53901 27.8165 1.73807 27.9501 2.06985 27.9501C3.99412 27.616 5.38757 29.0192 6.58195 30.1551C6.71465 30.2887 6.91372 30.4224 7.04643 30.556C8.77164 32.0928 9.10341 32.8946 9.03706 33.0283C8.37351 34.4314 7.84268 35.9014 8.63893 36.5028C9.30248 36.9037 12.952 37.906 13.7482 38.1733C13.6819 38.1733 13.6155 38.1733 13.7482 38.1733Z" fill="black"/>
</g>
</g>
<g id="Group_6">
<g id="Group_7">
<path id="Vector_4" d="M42.2143 30.3556C42.2143 30.3556 47.6553 25.9456 49.9114 24.9433C50.3095 24.8097 50.5749 24.7429 50.774 24.7429C51.0394 24.8097 51.3712 24.9433 51.5039 25.0769C54.1581 26.7474 50.9067 32.2933 49.5132 34.1642C48.7833 35.0328 46.3282 37.8392 43.9395 38.641C41.9488 39.376 38.9629 39.0419 38.9629 39.0419" fill="white"/>
<path id="Vector_5" d="M40.2899 39.6433C39.4937 39.6433 38.9628 39.5764 38.8965 39.5764L38.9628 38.641C39.0292 38.641 41.9488 38.9083 43.7404 38.2401C45.8637 37.5051 48.3188 34.966 49.0487 33.8969C50.1104 32.4937 52.3001 28.7519 51.9019 26.6806C51.9019 26.146 51.7029 25.812 51.2384 25.5447C51.172 25.4779 50.8403 25.2774 50.6412 25.2774C50.5749 25.2774 50.3758 25.2774 50.044 25.4111C47.8543 26.3465 42.546 30.6897 42.4796 30.7565L41.8824 30.0215C42.1479 29.821 47.3898 25.5447 49.7122 24.5424C50.1104 24.342 50.4422 24.2751 50.7739 24.2751C51.1721 24.342 51.5038 24.5424 51.7692 24.6761C52.3664 25.077 52.8309 25.6783 52.9636 26.4801C53.4281 29.1529 50.8403 33.2287 49.9113 34.4983C49.3141 35.2333 46.7263 38.1733 44.2048 39.1087C42.9441 39.5764 41.3516 39.6433 40.2899 39.6433Z" fill="black"/>
</g>
<g id="Group_8">
<path id="Vector_6" d="M40.3564 37.6387C40.1573 37.6387 39.9583 37.5051 39.8919 37.3046C39.8256 37.0374 39.9583 36.7701 40.2237 36.7033C42.2807 36.1019 44.6694 35.3669 44.9348 35.1665C44.9348 35.0997 45.2003 34.7656 44.2049 32.8278C44.0722 32.5606 43.6741 31.7588 46.461 29.2865C46.5937 29.1529 46.7264 29.0192 46.8591 28.8856C48.0535 27.7497 49.8451 26.0792 52.1675 26.4801C52.4329 26.547 52.5656 26.7474 52.5656 27.0815C52.4992 27.3488 52.3002 27.4824 51.9684 27.4824C50.0441 27.1483 48.6507 28.5515 47.4563 29.6874C47.3236 29.821 47.1245 29.9547 46.9918 30.0883C45.2666 31.6251 44.9348 32.4269 45.0012 32.5606C45.6647 33.9638 46.1956 35.4337 45.3993 36.0351C44.7358 36.3692 41.0863 37.3715 40.3564 37.6387C40.4227 37.6387 40.3564 37.6387 40.3564 37.6387Z" fill="black"/>
</g>
</g>
<g id="Group_9">
<path id="Vector_7" d="M29.8077 45.7905C34.3198 44.9219 36.6422 42.316 37.6375 41.1133C39.1637 39.376 40.6235 36.7701 41.4198 34.231C42.6141 30.0883 42.5478 22.6047 42.0833 20.9342C40.9553 16.7915 38.5665 13.7847 34.5189 11.9138C32.0638 10.7779 29.675 10.4438 26.8218 10.5107C23.7031 10.5775 20.6508 11.3793 19.5228 11.9138C15.5415 13.7847 13.0201 16.7247 11.892 20.9342C11.4276 22.6047 11.4276 30.0883 12.6883 34.231C13.4845 36.9037 14.9443 39.376 16.4705 41.1133C17.5322 42.316 19.7882 44.9219 24.3003 45.7905C24.8975 45.8573 26.49 46.0578 27.1536 46.0578C27.8171 45.991 29.2105 45.9241 29.8077 45.7905Z" fill="white"/>
<path id="Vector_8" d="M27.153 46.4587C26.4231 46.4587 24.8305 46.3251 24.167 46.1914C19.4558 45.3228 17.0671 42.5164 16.0718 41.3805C14.3465 39.4428 12.9531 36.7701 12.1569 34.2978C10.9625 30.2219 10.9625 22.6047 11.427 20.7338C12.6213 16.3906 15.2092 13.317 19.3231 11.4461C20.3848 10.9116 23.4371 10.1097 26.8212 10.0429C29.9398 9.97611 32.3949 10.4438 34.7174 11.4461C38.765 13.317 41.3528 16.3906 42.5472 20.8006C43.078 22.7383 43.1444 30.2888 41.8836 34.3646C41.1537 36.9037 39.6939 39.5096 37.9687 41.4473C36.907 42.6501 34.5183 45.3896 29.8071 46.2582C29.2763 46.3919 27.8828 46.4587 27.153 46.4587ZM27.5511 10.9116C27.2857 10.9116 27.1529 10.9116 26.8875 10.9116C23.8352 10.9784 20.8493 11.7802 19.7876 12.2479C15.9391 14.052 13.5503 16.8584 12.4223 20.9342C11.9578 22.6715 12.0241 30.1551 13.1522 34.0306C13.8821 36.3692 15.2092 38.9083 16.868 40.7792C17.797 41.8483 20.053 44.4542 24.4324 45.256C25.0296 45.3228 26.4894 45.5232 27.2193 45.5232C27.8828 45.5232 29.2099 45.3896 29.7408 45.256C34.1202 44.4542 36.3762 41.8483 37.3052 40.7792C38.8977 38.9083 40.2911 36.3692 41.021 34.0306C42.2154 29.8878 42.0827 22.5379 41.6846 20.9342C40.5565 16.7915 38.1678 13.9852 34.3856 12.2479C32.3949 11.3793 30.2053 10.9116 27.5511 10.9116Z" fill="black"/>
</g>
<g id="Group_10">
<g id="Group_11">
<path id="Vector_9" d="M22.7734 36.5696C22.8398 36.1687 23.2379 35.9683 23.9678 35.9683C25.3613 35.9014 30.736 35.701 31.4659 35.7678C32.1958 35.8346 32.3285 36.1019 32.3285 36.3024C32.3285 36.6364 32.1294 36.9037 31.864 37.2378C31.1341 38.2401 29.6743 39.9105 28.878 40.2446C27.8164 40.7792 26.8211 40.6455 26.0248 40.1778C25.4276 39.7769 23.9678 38.641 23.1716 37.5051C22.9061 37.2378 22.7734 36.9037 22.7734 36.5696Z" fill="white"/>
<path id="Vector_10" d="M27.3515 41.1132C26.7543 41.1132 26.2235 40.9796 25.6926 40.6455C25.0954 40.2446 23.5029 39.0419 22.7067 37.7723L22.6403 37.6387C22.4413 37.3046 22.2422 36.9705 22.2422 36.5028C22.3085 36.1019 22.574 35.5005 23.901 35.4337C25.0954 35.3669 30.6692 35.1664 31.3991 35.2333C32.4608 35.3669 32.6598 35.9014 32.6598 36.2355C32.6598 36.7033 32.3944 37.0374 32.1953 37.3714L32.129 37.4383C31.3991 38.4405 29.9393 40.1778 29.0103 40.5787C28.4795 40.9796 27.9487 41.1132 27.3515 41.1132ZM23.2375 36.6364C23.2375 36.7701 23.3039 36.9705 23.5029 37.171L23.5693 37.3046C24.2992 38.3737 25.6926 39.5096 26.2235 39.8437C26.9534 40.2446 27.7496 40.2446 28.6122 39.8437C29.2758 39.5764 30.6028 38.1064 31.3991 36.9705L31.4655 36.9037C31.6645 36.6364 31.7309 36.5028 31.7309 36.3692C31.6645 36.3024 31.5318 36.3024 31.3327 36.3024C30.6692 36.2355 25.3608 36.3692 23.901 36.436C23.4366 36.5028 23.2375 36.5696 23.2375 36.6364Z" fill="black"/>
</g>
<g id="Group_12">
<path id="Vector_11" d="M27.4182 39.9773C27.4182 39.9773 27.2855 38.4405 27.0201 37.906C26.9537 37.7723 26.821 37.6387 26.6883 37.5051C26.5556 37.4383 26.3565 37.4383 26.2238 37.4383C25.6266 37.4383 25.2285 37.5051 24.8304 37.6387C24.565 37.7055 24.4986 37.8392 24.4323 38.0396C24.3659 38.2401 24.3659 38.5742 24.4986 38.7746C24.764 39.7101 25.4276 41.5141 26.2238 42.7837C26.4892 43.2514 26.821 43.5187 27.0864 43.6523C27.4846 43.786 27.8163 43.6523 28.0817 43.4519C28.6789 43.051 29.0771 42.2491 29.4752 41.4473C29.8733 40.6455 30.3378 39.4428 30.4042 38.7078C30.4705 38.2401 30.3378 37.906 30.006 37.7055C29.7406 37.5719 29.2761 37.4383 28.9444 37.3714C28.6126 37.3046 28.2145 37.2378 28.0154 37.3714C27.8163 37.4383 27.6836 37.6387 27.6173 37.906C27.4846 38.7078 27.4182 39.9773 27.4182 39.9773Z" fill="#CC697A"/>
<path id="Vector_12" d="M27.3514 44.1201C27.2187 44.1201 27.086 44.1201 26.9532 44.0532C26.5551 43.9196 26.157 43.5855 25.8252 42.9841C25.0953 41.7814 24.2991 39.9105 24.0337 38.8414C23.9673 38.5742 23.9009 38.1064 24.0337 37.7724C24.1664 37.4383 24.4318 37.2378 24.6972 37.171C25.0953 36.9705 25.5598 36.9037 26.2233 36.9037C26.4224 36.9037 26.6215 36.9705 26.9532 37.0374C27.086 37.1042 27.2187 37.2378 27.3514 37.3714C27.4177 37.1042 27.6831 36.9705 27.9486 36.7701C28.3467 36.5696 28.8112 36.7033 29.1429 36.7701C29.4747 36.8369 30.0055 36.9705 30.3373 37.171C30.8018 37.4383 31.0009 37.9728 30.9345 38.641C30.8018 39.5096 30.3373 40.7123 29.9392 41.5142C29.5411 42.3828 29.1429 43.2514 28.413 43.7191C28.1476 43.9196 27.8159 44.1201 27.3514 44.1201ZM26.157 37.906C25.6925 37.906 25.2944 37.9728 25.0953 38.0396C24.9626 38.1064 24.9626 38.1064 24.8963 38.1733C24.8963 38.2401 24.8963 38.4405 24.9626 38.641C25.228 39.5096 25.8252 41.2469 26.6215 42.4496C26.8869 42.8505 27.1523 43.051 27.2187 43.1178C27.4177 43.1846 27.6168 43.1846 27.8159 42.9841C28.2803 42.6501 28.6785 41.9151 29.0102 41.1801C29.342 40.4451 29.8728 39.3092 29.9392 38.5074C30.0055 38.1064 29.8728 38.0396 29.8065 37.9728C29.6074 37.906 29.2093 37.7724 28.9439 37.7055C28.5458 37.6387 28.3467 37.6387 28.3467 37.6387C28.2803 37.6387 28.2803 37.7055 28.214 37.8392C28.0813 38.7078 27.9486 39.9105 27.9486 39.9105C27.9486 40.1778 27.6831 40.3114 27.4841 40.3114C27.285 40.3114 27.0196 40.111 27.0196 39.9105C26.9532 39.3092 26.8205 38.3069 26.6878 37.9728C26.6878 37.906 26.6215 37.906 26.6215 37.8392C26.5551 37.7724 26.4224 37.7724 26.3561 37.7724C26.157 37.906 26.157 37.906 26.157 37.906Z" fill="black"/>
</g>
</g>
</g>
<g id="Group_13">
<g id="Group_14">
<path id="Vector_13" d="M38.2316 38.3737C38.6297 39.7769 40.8857 39.9105 41.2839 38.7746C41.5493 37.7055 41.7483 35.7678 42.0138 33.8301C42.4119 31.0238 42.7437 28.351 42.7437 28.351L40.2885 27.282C40.2885 27.282 39.6914 30.4224 39.1605 33.3624C38.6297 35.701 38.0989 37.906 38.2316 38.3737Z" fill="#CC9687"/>
<path id="Vector_14" d="M39.9577 39.9774C39.0951 39.9774 38.0334 39.5096 37.768 38.4405C37.7016 38.0396 37.8343 37.2378 38.2988 34.966C38.3652 34.4315 38.5642 33.8969 38.6306 33.2956C39.2278 30.3556 39.7586 27.2151 39.7586 27.2151L39.825 26.6138L43.1427 28.0169L42.4128 33.8301C42.3464 34.231 42.3464 34.6319 42.2801 35.0328C42.081 36.5696 41.8819 37.9728 41.6829 38.8414C41.4838 39.5096 40.8203 39.9774 39.9577 39.9774ZM38.6969 38.2401C38.8296 38.7746 39.4268 39.0419 40.024 39.0419C40.3558 39.0419 40.7539 38.9083 40.8866 38.5742C41.152 37.7724 41.2848 36.3692 41.4838 34.8992C41.5502 34.4983 41.5502 34.0974 41.6165 33.6965L42.2801 28.5515L40.6876 27.8833C40.4885 28.9524 40.0904 31.2242 39.6259 33.4292C39.5595 34.0306 39.3605 34.5651 39.2941 35.1665C38.896 36.3692 38.6306 37.906 38.6969 38.2401Z" fill="black"/>
</g>
<g id="Group_15">
<path id="Vector_15" d="M15.6723 38.3069C15.2741 39.7101 13.0181 39.8437 12.62 38.7078C12.3545 37.6387 12.1555 35.701 11.8901 33.7633C11.4919 30.9569 11.1602 28.2842 11.1602 28.2842L13.6153 27.2151C13.6153 27.2151 14.2125 30.3556 14.7433 33.2955C15.2078 35.6342 15.7386 37.8392 15.6723 38.3069Z" fill="#CC9687"/>
<path id="Vector_16" d="M13.8803 39.9774C13.0177 39.9774 12.3541 39.5764 12.1551 38.8414C11.8896 37.9728 11.7569 36.5696 11.5579 35.0328C11.4252 34.6319 11.4252 34.231 11.3588 33.8301L10.6289 28.0169L13.9466 26.6138L14.013 27.2151C14.013 27.2819 14.6102 30.3556 15.141 33.2956C15.2074 33.8969 15.4064 34.4315 15.4728 35.0328C15.9373 37.3046 16.07 38.1065 16.0036 38.5074C15.8046 39.5096 14.7429 39.9774 13.8803 39.9774ZM11.6906 28.6183L12.3541 33.7633C12.4205 34.1642 12.4205 34.5651 12.4868 34.966C12.6859 36.436 12.8186 37.8392 13.084 38.641C13.1504 38.9751 13.5485 39.1087 13.9466 39.1087C14.4775 39.1087 15.0747 38.8414 15.2737 38.3069C15.3401 38.0396 15.0083 36.5028 14.7429 35.3001C14.6765 34.7656 14.4775 34.1642 14.4111 33.5628C14.013 31.3578 13.5485 29.086 13.3494 28.0169L11.6906 28.6183Z" fill="black"/>
</g>
<g id="Group_16">
<path id="Vector_17" d="M28.0149 8.90703C33.8541 9.30794 38.5652 12.2479 40.4895 14.9206C42.4801 17.8606 43.1437 20.9343 42.9446 25.0101C42.8783 26.7474 42.6129 28.5515 42.6129 28.5515C42.6129 28.5515 39.6269 27.1483 37.1718 25.8788C33.8541 24.1415 31.4653 23.6738 27.1523 23.5401C27.0859 23.5401 26.6214 23.5401 26.5551 23.5401C22.242 23.6738 19.986 24.2083 16.6019 25.8788C14.1468 27.0815 11.1609 28.5515 11.1609 28.5515C11.1609 28.5515 10.8954 26.7474 10.8291 25.0101C10.63 20.8674 11.2272 17.7938 13.2842 14.9206C15.2748 12.2479 19.986 9.37475 25.8252 8.90703C26.0906 8.90703 26.6878 8.84021 27.0196 8.84021C27.3513 8.84021 27.7495 8.90703 28.0149 8.90703Z" fill="#CC9687"/>
<path id="Vector_18" d="M43.0101 29.2197L42.4129 28.9524C42.3466 28.9524 39.427 27.4824 36.9719 26.2797C33.7205 24.6092 31.3981 24.0747 27.1514 23.9411C27.0851 23.9411 26.6869 23.9411 26.5542 23.9411C22.3076 24.0747 20.1179 24.6092 16.8665 26.2129C14.4114 27.4156 11.4254 28.8856 11.4254 28.8856L10.8282 29.2197L10.7619 28.5515C10.7619 28.4847 10.4965 26.6806 10.4301 24.9433C10.2311 20.5333 11.0273 17.3929 12.9516 14.5865C14.8095 11.9138 19.587 8.84021 25.758 8.37248C26.0234 8.37248 26.6206 8.30566 26.9524 8.30566C27.2178 8.30566 27.815 8.30566 28.014 8.37248C34.185 8.84021 38.9625 11.9138 40.8868 14.5865C42.8774 17.4597 43.6073 20.5333 43.4083 24.9433C43.3419 26.6806 43.0765 28.4179 43.0765 28.5515L43.0101 29.2197ZM27.0187 23.0724C27.0851 23.0724 27.1514 23.0724 27.1514 23.0724C31.5972 23.2061 33.9859 23.8074 37.37 25.4779C39.1616 26.3465 41.2186 27.3488 42.2139 27.8165C42.2802 27.1483 42.4129 26.0792 42.4793 24.9433C42.6784 20.667 41.9485 17.8606 40.1569 15.1211C38.4317 12.582 33.9196 9.70884 28.0804 9.30793C27.8813 9.30793 27.3505 9.24112 27.0851 9.24112C26.8197 9.24112 26.1561 9.30793 25.8907 9.30793C19.9852 9.70884 15.5394 12.6488 13.8142 15.1211C11.9563 17.7938 11.2927 20.667 11.4918 24.9433C11.5581 26.0124 11.6245 27.1483 11.7572 27.8165C12.7525 27.3488 14.8095 26.2797 16.6011 25.4779C19.9852 23.7406 22.3076 23.2061 26.6869 23.0724C26.6206 23.0724 26.886 23.0724 27.0187 23.0724Z" fill="black"/>
</g>
<g id="Group_17">
<g id="Group_18">
<path id="Vector_19" d="M20.849 24.2083C20.849 24.2083 21.2471 22.0702 20.2518 18.1947C19.5883 15.5888 18.3939 12.6488 17.5977 11.3125L19.4556 10.377C19.721 10.7779 20.5173 11.847 21.1144 13.3838C21.7116 14.787 22.6406 16.9252 23.5696 20.9343C23.835 21.8697 24.1667 23.4733 24.1667 23.4733L20.849 24.2083Z" fill="#CC9687"/>
<path id="Vector_20" d="M20.1849 24.8097L20.3176 24.0747C20.3176 24.0079 20.7157 21.9365 19.7204 18.2615C19.0569 15.6556 17.8625 12.7157 17.1326 11.5129L16.8672 11.112L19.5214 9.70885L19.7868 10.1098C19.8531 10.1766 19.9195 10.377 20.0522 10.5107C20.384 11.112 20.9812 11.9807 21.4456 13.1834C21.512 13.4506 21.6447 13.6511 21.7111 13.9184C22.3746 15.3884 23.2372 17.5265 24.0335 20.8674C24.2325 21.7361 24.6307 23.4065 24.6307 23.4065L24.7634 23.8742L20.1849 24.8097ZM18.2606 11.5129C18.9905 12.9829 20.0522 15.6556 20.7157 18.0611C21.4456 20.7338 21.4456 22.6715 21.3793 23.607L23.569 23.1392C23.4363 22.5379 23.1709 21.6693 23.0381 21.0679C22.3082 17.727 21.4456 15.7225 20.8485 14.3193C20.7821 14.052 20.6494 13.7847 20.583 13.5843C20.1849 12.4484 19.5877 11.5797 19.2559 11.0452L19.1896 10.9784L18.2606 11.5129Z" fill="black"/>
</g>
<g id="Group_19">
<path id="Vector_21" d="M32.3277 24.0079C32.3277 24.0079 31.9296 21.8029 32.9249 17.9275C33.5221 15.5888 35.1146 11.9138 35.4464 10.9784L33.323 9.97612C33.1239 10.377 32.394 12.3147 32.1286 12.8493C31.5314 14.2525 30.8679 16.1902 29.8726 20.0656C29.4745 21.6024 29.2754 23.4065 29.2754 23.4065L32.3277 24.0079Z" fill="#CC9687"/>
<path id="Vector_22" d="M32.9245 24.6761L28.8105 23.8074L28.8769 23.4065C28.8769 23.3397 29.0096 21.5356 29.4741 20.0656C30.4031 16.3906 31.133 14.3193 31.7965 12.7825C31.8628 12.5152 32.0619 12.1143 32.261 11.6466C32.6591 10.7779 32.8582 10.1098 32.9909 9.9093L33.1899 9.50839L36.1759 10.9116L35.9768 11.1788C35.9105 11.3125 35.8441 11.5797 35.7114 11.9138C35.1142 13.317 33.9862 16.257 33.5217 18.1279C32.5264 21.8697 32.9245 24.0079 32.9245 24.0079V24.6761ZM29.8059 23.0056L31.7965 23.4065C31.7301 22.4711 31.7301 20.5333 32.5264 17.7938C33.0572 15.7893 34.1853 12.9829 34.7824 11.4461C34.8488 11.3793 34.8488 11.2457 34.8488 11.1788L33.4554 10.5775C33.3226 10.9116 33.1236 11.4461 32.9245 11.847C32.7255 12.3147 32.5264 12.7825 32.46 12.9829C31.7965 14.4529 31.133 16.4575 30.204 20.1324C30.0049 21.2015 29.8722 22.4042 29.8059 23.0056Z" fill="black"/>
</g>
<g id="Group_20">
<g id="Group_21">
<path id="Vector_23" d="M19.9857 8.77339C19.5876 9.1743 18.8577 9.70884 19.2558 10.1766C20.3839 11.5797 21.3128 13.9852 22.2418 16.4574C23.1044 18.9297 24.4315 25.1438 24.7633 26.2129C24.8296 26.4801 26.1567 26.4801 26.5548 26.4133C27.2847 26.4133 28.8772 26.2797 28.8772 26.146C29.2754 23.7406 30.337 17.5934 30.9342 15.9229C31.8632 13.3838 32.7921 10.7779 33.4557 9.77566C33.7875 9.1743 33.522 8.63975 33.0576 8.23885C32.195 7.50385 29.8062 5.90022 26.8866 5.96704C24.8296 5.96704 22.5072 6.90249 21.1138 7.90476C20.6493 8.17203 20.3175 8.4393 19.9857 8.77339Z" fill="#CC9687"/>
<path id="Vector_24" d="M26.1572 26.881C24.5647 26.881 24.432 26.547 24.3656 26.3465C24.1666 25.9456 23.9012 24.6092 23.503 23.0724C22.9722 20.8674 22.3086 17.9943 21.7778 16.5911C20.9816 14.3861 19.9862 11.847 18.9246 10.4438C18.3274 9.70884 19.1236 8.90703 19.5881 8.50612L19.7208 8.37248C20.0526 8.03839 20.3844 7.77112 20.8488 7.50385C22.2423 6.50158 24.6974 5.49931 26.8871 5.49931C30.5366 5.49931 33.0581 7.7043 33.3235 7.90476C34.0534 8.57294 34.2524 9.37475 33.788 10.0429C33.1908 10.9784 32.3282 13.3838 31.4656 15.6556L31.3328 16.0565C30.7357 17.6602 29.674 23.607 29.3422 26.2129C29.2759 26.4801 29.2759 26.8142 26.6217 26.881C26.4226 26.881 26.2899 26.881 26.1572 26.881ZM25.1619 25.812C25.4273 25.8788 26.0245 25.8788 26.5553 25.8788C27.1525 25.8788 28.0815 25.812 28.4132 25.7451C28.8114 23.4065 29.8067 17.4597 30.4039 15.7225L30.5366 15.3215C31.3992 12.8493 32.2618 10.5107 32.9254 9.50839C33.1244 9.24112 32.9917 8.90703 32.5936 8.57294C31.731 7.77112 29.4749 6.36795 26.7544 6.36795C24.7638 6.36795 22.5741 7.3034 21.247 8.23885C20.8488 8.50612 20.5171 8.77339 20.1853 9.10748L20.0526 9.24112C19.8535 9.37475 19.5218 9.70884 19.4554 9.84248C20.6498 11.3793 21.6451 13.9852 22.5077 16.257C23.0385 17.727 23.7021 20.6002 24.2329 22.872C24.6974 24.2083 25.0292 25.3442 25.1619 25.812Z" fill="black"/>
</g>
<path id="Vector_25" d="M19.9861 10.6443C20.4505 11.3793 20.9814 12.3147 21.7776 14.3193C22.3748 15.7893 23.1047 17.727 23.901 21.2683C24.0337 22.0033 25.029 25.8788 25.0954 25.8788C25.2281 25.9456 26.157 25.9456 26.8206 25.9456C27.6832 25.8788 28.5458 25.812 28.5458 25.812C28.6785 25.0101 29.0103 22.137 30.0719 17.727C30.6691 15.3884 31.6644 12.7825 32.0626 11.7134C32.5271 10.5107 32.9252 9.84247 32.9915 9.70884C33.0579 9.64202 33.1242 9.50838 33.1906 9.30793C33.257 9.17429 33.1906 9.04066 33.1242 9.04066C33.0579 8.97384 32.9252 8.70657 32.7925 8.63975C32.1289 8.10521 31.5981 7.77112 31.5981 7.77112C31.399 8.10521 30.1383 10.7111 29.0766 14.3193C28.2804 17.0588 27.3514 21.0679 26.8869 22.137C26.8206 22.2706 26.7542 22.3374 26.6879 22.3374C26.6215 22.3374 26.5552 22.3374 26.4888 22.137C26.0907 21.0679 25.4271 17.1924 24.3655 14.5197C23.1711 11.1788 21.5122 8.30566 21.5122 8.30566C21.5122 8.30566 21.1804 8.57293 20.5833 9.04066C20.4505 9.17429 20.1851 9.37475 19.9861 9.5752C19.7207 9.84247 19.6543 9.97611 19.6543 9.97611C19.6543 9.97611 19.787 10.377 19.9861 10.6443Z" fill="#B57868"/>
</g>
</g>
<g id="Group_22">
<path id="Vector_26" d="M32.5925 11.1788C31.8626 9.77565 31.7299 7.43702 31.9953 7.50384C32.5261 7.63748 34.9812 7.90475 36.6401 7.16975C38.6307 6.30112 39.6924 5.63294 40.2232 5.96703C41.0858 6.43475 40.8868 8.63974 38.8298 10.7111C37.1046 12.4484 34.384 13.4506 34.384 13.4506C34.384 13.4506 33.3224 12.5152 32.5925 11.1788Z" fill="#CC9687"/>
<path id="Vector_27" d="M34.3183 13.9852L34.0528 13.7847C33.9865 13.7179 32.9248 12.7156 32.1949 11.3793C31.5314 10.1766 31.1333 7.83794 31.5977 7.23657C31.7304 7.03612 31.9959 6.9693 32.1949 7.03612C32.7258 7.16976 35.0482 7.37021 36.508 6.70203C37.0388 6.43476 37.5033 6.30112 37.9014 6.10067C39.1621 5.49931 39.892 5.23204 40.4892 5.49931C40.8874 5.69976 41.0864 6.10067 41.2191 6.63521C41.3518 7.63748 40.9537 9.30793 39.2285 10.9784C37.5033 12.7825 34.7164 13.8515 34.65 13.8515L34.3183 13.9852ZM33.0575 10.9784C33.522 11.847 34.1856 12.582 34.5173 12.9161C35.2472 12.6488 37.2379 11.7134 38.4986 10.377C39.8257 8.97384 40.3565 7.63748 40.2238 6.83567C40.1575 6.5684 40.1575 6.43476 40.0247 6.43476C39.8257 6.36794 39.0294 6.70203 38.2995 7.03612C37.9014 7.23657 37.4369 7.43703 36.8397 7.7043C35.3799 8.30566 33.323 8.30566 32.3276 8.10521C32.3276 8.70657 32.5267 10.0429 33.0575 10.9784Z" fill="black"/>
</g>
<g id="Group_23">
<path id="Vector_28" d="M20.5831 11.1788C21.313 9.64201 21.4457 7.70429 21.1802 7.83793C20.1186 8.17202 18.0616 7.77111 16.4027 7.10293C14.4121 6.2343 13.3504 5.56612 12.8196 5.90021C11.957 6.36794 12.156 8.57293 14.213 10.6443C15.9383 12.3815 18.5261 13.5175 18.5261 13.5175C18.5261 13.5175 19.5877 13.0497 20.5831 11.1788Z" fill="#CC9687"/>
<path id="Vector_29" d="M18.4597 13.9184L18.2607 13.8515C18.1943 13.7847 15.6065 12.6488 13.8149 10.8447C12.0897 9.10748 11.6916 7.50385 11.8243 6.50158C11.8906 5.96703 12.1561 5.63294 12.5542 5.36567C13.1514 5.03158 13.8149 5.36567 15.142 5.96703C15.5401 6.16749 16.0046 6.36794 16.5355 6.5684C18.2607 7.30339 20.1186 7.63748 20.9812 7.30339C21.1803 7.23657 21.3793 7.30339 21.5784 7.50385C21.9765 7.97157 21.6447 10.0429 20.9812 11.3793C19.9195 13.3838 18.7252 13.7847 18.6588 13.8515L18.4597 13.9184ZM13.085 6.16749C13.0187 6.16749 13.0187 6.16749 13.0187 6.16749C12.9523 6.23431 12.8196 6.36794 12.8196 6.5684C12.7533 7.37021 13.2177 8.77339 14.5448 10.1097C15.9383 11.5129 17.8625 12.5152 18.5261 12.7825C18.7915 12.582 19.5214 12.1143 20.185 10.9116C20.6494 9.97611 20.8485 8.90702 20.8485 8.30566C19.5214 8.50611 17.6635 8.03839 16.27 7.43703C15.6728 7.16976 15.2084 6.9693 14.8102 6.76885C14.0803 6.50158 13.4168 6.16749 13.085 6.16749Z" fill="black"/>
</g>
<g id="Group_24">
<g id="Group_25">
<path id="Vector_30" d="M14.0801 28.0169C14.0801 31.2242 16.6679 33.8301 19.8529 33.8301C23.0379 33.8301 25.6257 31.2242 25.6257 28.0169C25.6257 24.8097 23.3033 23.0056 20.1183 23.0056C16.9333 23.0056 14.0801 24.8097 14.0801 28.0169Z" fill="#CC9687"/>
<path id="Vector_31" d="M19.8525 34.2978C16.4021 34.2978 13.6152 31.4247 13.6152 28.0169C13.6152 24.8097 16.2694 22.5379 20.1843 22.5379C23.8338 22.5379 26.1562 24.676 26.1562 28.0169C26.1562 31.4915 23.303 34.2978 19.8525 34.2978ZM20.118 23.4733C17.4638 23.4733 14.5442 24.8765 14.5442 28.0169C14.5442 30.9569 16.933 33.3624 19.8525 33.3624C22.7721 33.3624 25.1609 30.9569 25.1609 28.0169C25.1609 25.2106 23.2366 23.4733 20.118 23.4733Z" fill="black"/>
</g>
<g id="Group_26">
<g id="Group_27">
<path id="Vector_32" d="M20.1187 30.9569C21.841 30.9569 23.2373 29.5509 23.2373 27.8165C23.2373 26.082 21.841 24.676 20.1187 24.676C18.3963 24.676 17 26.082 17 27.8165C17 29.5509 18.3963 30.9569 20.1187 30.9569Z" fill="white"/>
<path id="Vector_33" d="M20.1183 31.4246C18.1277 31.4246 16.5352 29.821 16.5352 27.8165C16.5352 25.8119 18.1277 24.2083 20.1183 24.2083C22.1089 24.2083 23.7014 25.8119 23.7014 27.8165C23.7014 29.821 22.1089 31.4246 20.1183 31.4246ZM20.1183 25.1438C18.6585 25.1438 17.4641 26.3465 17.4641 27.8165C17.4641 29.2865 18.6585 30.4892 20.1183 30.4892C21.5781 30.4892 22.7725 29.2865 22.7725 27.8165C22.7725 26.3465 21.5781 25.1438 20.1183 25.1438Z" fill="black"/>
</g>
<path id="Vector_34" d="M20.1177 29.6206C21.1072 29.6206 21.9093 28.8128 21.9093 27.8165C21.9093 26.8201 21.1072 26.0124 20.1177 26.0124C19.1283 26.0124 18.3262 26.8201 18.3262 27.8165C18.3262 28.8128 19.1283 29.6206 20.1177 29.6206Z" fill="black"/>
</g>
</g>
<g id="Group_28">
<g id="Group_29">
<path id="Vector_35" d="M39.6257 27.4824C39.6257 30.6897 37.0379 33.2956 33.8529 33.2956C30.6679 33.2956 28.0801 30.6897 28.0801 27.4824C28.0801 24.2751 30.4025 22.4711 33.5875 22.4711C36.8389 22.4042 39.6257 24.2083 39.6257 27.4824Z" fill="#CC9687"/>
<path id="Vector_36" d="M33.8525 33.7633C30.4021 33.7633 27.6152 30.8901 27.6152 27.4824C27.6152 24.1415 29.9376 22.0033 33.5871 22.0033C37.4357 22.0033 40.0899 24.2751 40.0899 27.4824C40.0899 30.8901 37.303 33.7633 33.8525 33.7633ZM33.5871 22.872C30.4685 22.872 28.5442 24.6092 28.5442 27.4156C28.5442 30.3556 30.933 32.761 33.8525 32.761C36.7721 32.761 39.1609 30.3556 39.1609 27.4156C39.1609 24.342 36.3077 22.872 33.5871 22.872Z" fill="black"/>
</g>
<g id="Group_30">
<g id="Group_31">
<path id="Vector_37" d="M33.9194 30.3556C35.6418 30.3556 37.0381 28.9495 37.0381 27.2151C37.0381 25.4807 35.6418 24.0747 33.9194 24.0747C32.1971 24.0747 30.8008 25.4807 30.8008 27.2151C30.8008 28.9495 32.1971 30.3556 33.9194 30.3556Z" fill="white"/>
<path id="Vector_38" d="M33.9191 30.8901C31.9284 30.8901 30.3359 29.2865 30.3359 27.2819C30.3359 25.2774 31.9284 23.6738 33.9191 23.6738C35.9097 23.6738 37.5022 25.2774 37.5022 27.2819C37.5022 29.2197 35.9097 30.8901 33.9191 30.8901ZM33.9191 24.5424C32.4593 24.5424 31.2649 25.7451 31.2649 27.2151C31.2649 28.6851 32.4593 29.8878 33.9191 29.8878C35.3789 29.8878 36.5733 28.6851 36.5733 27.2151C36.5733 25.7451 35.3789 24.5424 33.9191 24.5424Z" fill="black"/>
</g>
<path id="Vector_39" d="M33.9185 29.0192C34.908 29.0192 35.7101 28.2115 35.7101 27.2151C35.7101 26.2188 34.908 25.411 33.9185 25.411C32.9291 25.411 32.127 26.2188 32.127 27.2151C32.127 28.2115 32.9291 29.0192 33.9185 29.0192Z" fill="black"/>
</g>
</g>
</g>
</g>
</g>
<defs>
<clipPath id="clip0_1146_72">
<rect width="52.619" height="49.8462" fill="white" transform="translate(0.808594 0.15387)"/>
</clipPath>
</defs>
</svg>
