<svg width="16" height="16" viewBox="0 0 16 16" fill="none" xmlns="http://www.w3.org/2000/svg">
<g opacity="0.4">
<path d="M4.44434 0.499632H11.5555C13.7339 0.499632 15.5 2.26568 15.5 4.44413V11.5275C15.5 13.706 13.7339 15.472 11.5555 15.472H4.44434C2.26597 15.472 0.49992 13.706 0.49992 11.5275V4.44413C0.49992 2.26567 2.26597 0.499632 4.44434 0.499632Z" fill="#869DC8" stroke="#869DC8"/>
<path d="M10.8479 4.663L7.28583 8.67033C7.0947 8.88535 6.76199 8.89513 6.55857 8.6917L5.15375 7.28688C4.95849 7.09162 4.6419 7.09162 4.44664 7.28688L3.55375 8.17978C3.35849 8.37504 3.35849 8.69162 3.55375 8.88688L6.56427 11.8974C6.76556 12.0987 7.09404 12.0916 7.2864 11.8817L12.4767 6.21956C12.6576 6.02223 12.651 5.71744 12.4617 5.52815L11.5752 4.64162C11.3717 4.4382 11.039 4.44798 10.8479 4.663Z" fill="#1B2439"/>
</g>
</svg>
