<svg width="9" height="10" viewBox="0 0 9 10" fill="none" xmlns="http://www.w3.org/2000/svg">
<path fill-rule="evenodd" clip-rule="evenodd" d="M4.49991 -0.00015C6.98527 -0.00015 8.99996 2.02851 8.99996 4.53109C8.99996 7.03366 6.98527 9.06232 4.49991 9.06232C2.01468 9.06232 -1.8e-05 7.03366 -1.8e-05 4.53109C-1.8e-05 2.02851 2.01468 -0.00015 4.49991 -0.00015Z" fill="white"/>
<path fill-rule="evenodd" clip-rule="evenodd" d="M4.49991 -0.00015C6.98527 -0.00015 8.99996 2.02851 8.99996 4.53109C8.99996 7.03366 6.98527 9.06232 4.49991 9.06232C2.01468 9.06232 -1.8e-05 7.03366 -1.8e-05 4.53109C-1.8e-05 2.02851 2.01468 -0.00015 4.49991 -0.00015Z" fill="#5C7293"/>
</svg>
