<svg width="19" height="19" viewBox="0 0 19 19" fill="none" xmlns="http://www.w3.org/2000/svg">
<g clip-path="url(#clip0_2043_16)">
<path d="M13.6847 3.41016C16.5869 3.41016 18.9397 2.68262 18.9397 1.78516C18.9397 0.887694 16.5869 0.160156 13.6847 0.160156C10.7824 0.160156 8.42969 0.887694 8.42969 1.78516C8.42969 2.68262 10.7824 3.41016 13.6847 3.41016Z" fill="#869DC8"/>
<path d="M18.9991 3.19482V5.04482C16.4458 6.25482 13.6958 6.56149 10.7491 5.96482C10.2058 5.85482 9.61247 5.62149 8.96914 5.26482C8.28914 4.89482 8.30414 4.25982 8.36914 3.59482C8.37286 3.548 8.38752 3.5027 8.41194 3.46257C8.43637 3.42245 8.46987 3.38862 8.50976 3.36381C8.54965 3.339 8.59481 3.32391 8.64159 3.31974C8.68838 3.31557 8.7355 3.32245 8.77914 3.33982C11.0691 4.20649 13.4358 4.43649 15.8791 4.02982C16.9125 3.85649 17.9525 3.57816 18.9991 3.19482Z" fill="#869DC8"/>
<path d="M18.9999 6.31476V7.80976C16.8199 9.05642 14.4049 9.42976 11.7549 8.92976C11.6759 8.91442 11.6016 8.88061 11.5382 8.83107C11.4748 8.78154 11.424 8.71769 11.3899 8.64476C10.9166 7.65142 10.0666 7.06976 8.83992 6.89976C8.69992 6.87976 8.58992 6.81142 8.50992 6.69476C8.38326 6.50809 8.39326 6.33142 8.53992 6.16476C8.61955 6.0742 8.73102 6.01761 8.85173 6.00646C8.97243 5.99532 9.09334 6.03046 9.18992 6.10476C11.1199 7.59976 15.8349 7.02476 17.9249 6.39976C18.0516 6.35976 18.1683 6.29809 18.2749 6.21476C18.3183 6.18142 18.3549 6.14476 18.3849 6.10476C18.5383 5.90809 18.6916 5.90976 18.8449 6.10976L18.9999 6.31476Z" fill="#869DC8"/>
<path d="M5.30363 10.3748C8.16445 10.3848 10.4861 9.68104 10.4892 8.80291C10.4922 7.92478 8.17555 7.20483 5.31473 7.19484C2.45392 7.18485 0.132281 7.88862 0.129215 8.76675C0.12615 9.64488 2.44282 10.3648 5.30363 10.3748Z" fill="#869DC8"/>
<path d="M18.9997 8.89502V10.67C16.8497 11.8634 14.3781 12.26 11.5847 11.86C11.5581 11.8567 11.5414 11.8417 11.5347 11.815C11.3614 11.0917 11.3364 10.41 11.4597 9.77002C11.4664 9.73335 11.4864 9.71835 11.5197 9.72502C14.1531 10.105 16.6464 9.82835 18.9997 8.89502Z" fill="#869DC8"/>
<path d="M0 11.9349V10.1299C3.42667 11.4965 6.83333 11.5482 10.22 10.2849C10.2598 10.2701 10.3025 10.2647 10.3447 10.2691C10.3869 10.2736 10.4275 10.2877 10.4634 10.3105C10.4992 10.3332 10.5293 10.364 10.5513 10.4003C10.5732 10.4366 10.5865 10.4776 10.59 10.5199C10.6133 10.8365 10.6117 11.1549 10.585 11.4749C10.5 12.4399 9.04 12.8199 8.245 12.9749C5.095 13.5782 2.34667 13.2315 0 11.9349Z" fill="#869DC8"/>
<path d="M18.9996 11.79V13.545C16.8329 14.745 14.4363 15.12 11.8096 14.67C11.5563 14.6267 11.4229 14.4767 11.4096 14.22L11.3446 13.15C11.3405 13.0807 11.3516 13.0113 11.3772 12.9467C11.4028 12.8821 11.4423 12.8239 11.4928 12.7762C11.5433 12.7286 11.6037 12.6925 11.6697 12.6707C11.7356 12.6489 11.8056 12.6419 11.8746 12.65C14.3479 12.9267 16.7229 12.64 18.9996 11.79Z" fill="#869DC8"/>
<path d="M0 14.6852V13.3852C0.11 13.3186 0.195 13.2002 0.255 13.0302C0.318333 12.8502 0.4 12.8419 0.5 13.0052L0.59 13.1502C0.625542 13.2052 0.68007 13.2474 0.745 13.2702C3.94833 14.3369 7.07167 14.3152 10.115 13.2052C10.415 13.0952 10.5667 13.1986 10.57 13.5152L10.575 14.4002C10.5766 14.5469 10.5366 14.6909 10.4596 14.8157C10.3826 14.9405 10.2718 15.0409 10.14 15.1052C9.46 15.4452 8.665 15.7019 7.755 15.8752C4.80167 16.4419 2.21667 16.0452 0 14.6852Z" fill="#869DC8"/>
<path d="M5.93 18.9999H4.695C2.545 18.9699 0.98 18.4749 0 17.5149V16.1299C0.0333333 16.1166 0.0666667 16.0866 0.1 16.0399C0.15655 15.9667 0.213482 15.9014 0.27 15.8449C0.356667 15.7582 0.423333 15.7716 0.47 15.8849C0.513333 15.9949 0.59 16.0682 0.7 16.1049C3.95 17.1916 7.01833 17.1749 9.905 16.0549C10.515 15.8182 10.7633 16.0216 10.65 16.6649C10.62 16.8282 10.5883 16.9982 10.555 17.1749C10.4383 17.8349 10.05 18.2266 9.39 18.3499L5.93 18.9999Z" fill="#869DC8"/>
</g>
<defs>
<clipPath id="clip0_2043_16">
<rect width="19" height="19" fill="white"/>
</clipPath>
</defs>
</svg>
