<svg width="70" height="69" viewBox="0 0 70 69" fill="none" xmlns="http://www.w3.org/2000/svg">
<g filter="url(#filter0_d_368_14)">
<path d="M10 10H52C56.4183 10 60 13.5817 60 18V51C60 55.4183 56.4183 59 52 59H10V10Z" fill="#1B2439"/>
</g>
<path fill-rule="evenodd" clip-rule="evenodd" d="M40 33.5556C40 33.2518 39.7167 33 39.3749 33H30.6251C30.2833 33 30 33.2518 30 33.5556C30 33.7033 30.0682 33.8424 30.1853 33.9465L34.5602 37.8352C34.6774 37.9394 34.8339 38 35 38C35.1661 38 35.3217 37.9394 35.4389 37.8352L39.8138 33.9465C39.9309 33.8424 40 33.7033 40 33.5556Z" fill="#869DC8"/>
<defs>
<filter id="filter0_d_368_14" x="0" y="0" width="70" height="69" filterUnits="userSpaceOnUse" color-interpolation-filters="sRGB">
<feFlood flood-opacity="0" result="BackgroundImageFix"/>
<feColorMatrix in="SourceAlpha" type="matrix" values="0 0 0 0 0 0 0 0 0 0 0 0 0 0 0 0 0 0 127 0" result="hardAlpha"/>
<feMorphology radius="4" operator="dilate" in="SourceAlpha" result="effect1_dropShadow_368_14"/>
<feOffset/>
<feGaussianBlur stdDeviation="3"/>
<feComposite in2="hardAlpha" operator="out"/>
<feColorMatrix type="matrix" values="0 0 0 0 0.0235294 0 0 0 0 0.0313726 0 0 0 0 0.0509804 0 0 0 0.45 0"/>
<feBlend mode="normal" in2="BackgroundImageFix" result="effect1_dropShadow_368_14"/>
<feBlend mode="normal" in="SourceGraphic" in2="effect1_dropShadow_368_14" result="shape"/>
</filter>
</defs>
</svg>
