<svg width="15" height="15" viewBox="0 0 15 15" fill="none" xmlns="http://www.w3.org/2000/svg">
<path d="M4.16656 0.499655H10.8332C12.8583 0.499655 14.5 2.14133 14.5 4.16637V10.807C14.5 12.8321 12.8583 14.4738 10.8332 14.4738H4.16656C2.14161 14.4738 0.499925 12.8321 0.499925 10.807V4.16637C0.499925 2.14133 2.14161 0.499655 4.16656 0.499655Z" fill="black" fill-opacity="0.01" stroke="#869DC8"/>
<path d="M5.49994 3.49979H9.49994C10.6045 3.49979 11.5 4.39526 11.5 5.49982V9.48421C11.5 10.5888 10.6045 11.4843 9.49994 11.4843H5.49994C4.39543 11.4843 3.49995 10.5888 3.49995 9.48421V5.49982C3.49995 4.39525 4.39542 3.49979 5.49994 3.49979Z" fill="#869DC8" stroke="#869DC8"/>
</svg>
