<svg width="275" height="65" viewBox="0 0 275 65" fill="none" xmlns="http://www.w3.org/2000/svg">
<g clip-path="url(#clip0_4_75)">
<path d="M47.9366 50.3254V49.9839C47.9366 50.1161 47.9366 50.2373 47.9366 50.3585C47.9255 50.3474 47.9366 50.3364 47.9366 50.3254Z" fill="url(#paint0_linear_4_75)"/>
<path d="M47.759 50.5237C45.5856 45.522 41.7378 41.4017 36.9253 38.8568L36.0826 38.4381C35.6279 38.2068 35.1068 38.0746 34.5634 38.0746C32.7227 38.0746 31.2368 39.5509 31.2368 41.3797C31.2368 42.8559 32.2126 44.1009 33.5544 44.5305L34.7298 45.1585C38.7993 47.7475 41.6824 52.011 42.4142 56.9576C42.4253 57.0348 42.5251 57.5746 42.5251 57.5966C45.4636 56.561 47.6925 54.0381 47.9253 50.8542C47.9031 50.8432 47.8144 50.6339 47.759 50.5237Z" fill="url(#paint1_linear_4_75)"/>
<path d="M6.95269 57.5746L6.96378 57.4975C7.55148 52.3085 10.5011 47.8246 14.7148 45.1364L15.8902 44.5085C17.2319 44.0788 18.2077 42.8339 18.2077 41.3576C18.2077 39.5288 16.7218 38.0526 14.8811 38.0526C14.3378 38.0526 13.8166 38.1848 13.362 38.4161L12.5192 38.8348C7.64019 41.4127 3.75914 45.5992 1.59685 50.7C1.58576 50.7331 1.55249 50.7992 1.55249 50.8102C1.80753 54.0381 4.03636 56.5941 6.93051 57.5636C6.93051 57.5636 6.9416 57.5746 6.95269 57.5746Z" fill="url(#paint2_linear_4_75)"/>
<path d="M36.2268 59.7119C36.2711 59.3373 36.2933 58.9627 36.2933 58.5771C36.2933 54.578 33.9757 51.1187 30.6048 49.4441L29.8951 48.9924C28.2207 48.3644 26.9566 46.8882 26.6128 45.0924C26.5574 44.7839 26.1804 43.0432 26.2691 41.611C26.3689 39.9365 26.8901 37.8653 26.9788 37.5017C27.1562 36.7305 27.4667 35.9704 27.5443 35.8161C28.3427 33.9763 30.1834 32.6873 32.3346 32.6873L33.51 32.8856C38.9657 34.3399 43.8114 37.2814 47.5927 41.2365C47.6814 41.3356 47.8588 41.5229 47.8588 41.5229L47.6703 21.8797C47.6703 21.8797 47.6814 15.3687 46.883 11.7992C45.9848 7.81104 43.7449 4.62714 43.7449 4.62714C42.5584 2.55595 40.3074 1.1568 37.7348 1.1568C33.9092 1.1568 30.8155 4.23053 30.8155 8.03138C30.8155 10.1136 31.7469 11.9865 33.2328 13.2534C33.2328 13.2534 34.7187 14.7187 34.9183 14.8949C36.2268 16.0297 37.0473 17.6932 37.0473 19.5551C37.0473 22.9814 34.253 25.7576 30.8044 25.7576C30.4274 25.7576 18.6733 27.0356 18.1743 27.0356C16.5332 27.0356 15.1915 25.7136 15.1915 24.0721C15.1915 23.2348 15.6018 22.5407 16.1007 21.9458C16.633 21.3068 17.1653 20.3483 17.6088 19.2687C17.8971 18.5526 18.13 17.8144 18.3518 17.0102C18.6179 16.0517 18.5957 14.7848 18.5957 14.7848C18.5957 10.9839 15.502 7.91019 11.6764 7.91019C9.10377 7.91019 6.85277 9.30934 5.66628 11.3805C5.66628 11.3805 3.33765 14.5424 2.52817 18.5526C2.43946 19.0043 2.25095 19.6653 2.1068 20.4805C1.92938 21.4721 1.8074 22.6068 1.8074 22.6068L1.78523 23.6424L1.6189 41.4899C1.6189 41.4788 1.6189 41.4788 1.6189 41.4788C1.6189 41.4788 1.70761 41.3797 1.75196 41.3356C5.5443 37.3144 10.4344 34.3288 15.9455 32.8526L17.1209 32.6543C19.2721 32.6543 21.1128 33.9432 21.9112 35.7831C21.9778 35.9373 22.2882 36.6975 22.4768 37.4687C22.5655 37.8322 23.0866 39.9034 23.1864 41.578C23.2641 43.0102 22.8981 44.7509 22.8427 45.0593C22.51 46.8551 21.2459 48.3204 19.5604 48.9593L18.8507 49.411C15.4798 51.0856 13.1622 54.5449 13.1622 58.5441C13.1622 58.9297 13.1401 59.3153 13.2288 59.6788C13.2399 59.7339 13.2953 59.8992 13.2953 59.8992C17.2983 61.4195 21.6229 63.061 23.5635 63.4797C23.7741 63.5238 24.5725 63.667 24.7056 63.6449C26.6128 63.3144 31.7137 61.4526 36.2378 59.8221L36.2268 59.7119Z" fill="url(#paint3_linear_4_75)"/>
<path d="M75.8689 26.022H78.8296L88.9868 42.3712H88.7651V26.022H91.2489V45.8746H88.4768L77.9758 28.9856H78.3528V45.8746H75.8689V26.022Z" fill="white"/>
<path d="M106.673 45.8856V26.022H109.157V45.8746H106.673V45.8856Z" fill="white"/>
<path d="M124.559 26.022H127.52L137.677 42.3712H137.455V26.022H139.939V45.8746H137.167L126.666 28.9856H127.043V45.8746H124.559V26.022Z" fill="white"/>
<path d="M152.403 44.9051V42.3491C153.157 42.8339 153.911 43.2084 154.665 43.4729C155.419 43.7373 156.151 43.8695 156.861 43.8695C157.97 43.8695 158.768 43.539 159.245 42.889C159.722 42.239 159.954 41.3135 159.954 40.1347V26.033H162.438V40.1347C162.438 41.5779 162.217 42.7457 161.773 43.6491C161.329 44.5525 160.709 45.2135 159.899 45.6322C159.09 46.0508 158.125 46.2601 157.027 46.2601C156.173 46.2601 155.364 46.1279 154.599 45.8745C153.834 45.6212 153.113 45.2906 152.403 44.9051Z" fill="white"/>
<path d="M174.824 45.8856L181.699 26.033H184.727L191.446 45.8856H188.841L187.155 40.7957H179.204L177.452 45.8856H174.824ZM179.825 38.8678H186.512L183.174 29.0296L179.825 38.8678Z" fill="white"/>
<path d="M204.498 45.8856V26.022H211.972C213.436 26.022 214.655 26.2644 215.62 26.7381C216.585 27.2229 217.306 27.8508 217.782 28.633C218.259 29.4153 218.503 30.2746 218.503 31.2C218.503 32.3347 218.193 33.3263 217.561 34.1636C216.928 35.0008 215.986 35.5737 214.722 35.8822C215.542 36.0034 216.252 36.3008 216.873 36.7415C217.494 37.1932 217.982 37.7331 218.326 38.3831C218.681 39.0331 218.847 39.7271 218.847 40.4653C218.847 41.1373 218.736 41.7983 218.503 42.4373C218.27 43.0763 217.893 43.6602 217.361 44.178C216.829 44.6958 216.13 45.1034 215.243 45.4119C214.367 45.7203 213.269 45.8746 211.961 45.8746H204.498V45.8856ZM206.982 28.1483V34.9127H211.883C213.125 34.9127 214.112 34.6153 214.855 33.9983C215.587 33.3924 215.964 32.5331 215.964 31.4314C215.964 30.3958 215.609 29.5915 214.888 29.0076C214.167 28.4237 213.181 28.1373 211.916 28.1373H206.982V28.1483ZM206.982 43.7373H211.95C213.469 43.7373 214.556 43.4178 215.221 42.7898C215.886 42.1619 216.219 41.3466 216.219 40.3551C216.219 39.3525 215.853 38.5483 215.132 37.9424C214.411 37.3364 213.347 37.028 211.95 37.028H206.982V43.7373Z" fill="white"/>
<path d="M235.768 26.022V43.7373H244.684V45.8856H233.295V26.022H235.768Z" fill="white"/>
<path d="M257.136 45.8856V26.022H269.456V28.1373H259.62V34.8136H268.879V36.9288H259.62V43.7263H269.456V45.8746H257.136V45.8856Z" fill="white"/>
</g>
<defs>
<linearGradient id="paint0_linear_4_75" x1="48.6815" y1="69.4178" x2="46.0131" y2="0.21962" gradientUnits="userSpaceOnUse">
<stop stop-color="#4CD4EC"/>
<stop offset="1" stop-color="#35B6F1"/>
</linearGradient>
<linearGradient id="paint1_linear_4_75" x1="40.4889" y1="69.7337" x2="37.8205" y2="0.535638" gradientUnits="userSpaceOnUse">
<stop stop-color="#4CD4EC"/>
<stop offset="1" stop-color="#35B6F1"/>
</linearGradient>
<linearGradient id="paint2_linear_4_75" x1="10.8394" y1="70.877" x2="8.17101" y2="1.67898" gradientUnits="userSpaceOnUse">
<stop stop-color="#4CD4EC"/>
<stop offset="1" stop-color="#35B6F1"/>
</linearGradient>
<linearGradient id="paint3_linear_4_75" x1="26.1601" y1="70.2863" x2="23.4917" y2="1.08814" gradientUnits="userSpaceOnUse">
<stop stop-color="#4CD4EC"/>
<stop offset="1" stop-color="#35B6F1"/>
</linearGradient>
<clipPath id="clip0_4_75">
<rect width="275" height="65" fill="white"/>
</clipPath>
</defs>
</svg>
