<svg width="15" height="15" viewBox="0 0 15 15" fill="none" xmlns="http://www.w3.org/2000/svg">
<g clip-path="url(#clip0_2033_475)">
<path d="M0 0H6.38C3 0.8 0.873333 2.89333 0 6.28V0Z" fill="#010001" fill-opacity="0.01"/>
<path d="M6.20164 0.0556962L7.5 0L8.59 0.0556946L12.04 1.38C12.4133 1.53333 12.6933 1.43333 12.88 1.08C13.1133 0.626665 13.47 0.369998 13.95 0.309998C14.0963 0.290886 14.245 0.317837 14.3752 0.387104C14.5055 0.456372 14.611 0.564514 14.677 0.696496C14.743 0.828478 14.7662 0.977742 14.7435 1.12354C14.7207 1.26933 14.6531 1.40441 14.55 1.51C12.43 3.63 9.73 5.65 8.59 8.38C8.44333 8.72666 8.18333 8.92333 7.81 8.97C6.91 9.08333 6.33 8.67 6.07 7.73C6.02539 7.56966 6.01405 7.4019 6.03669 7.23702C6.05933 7.07214 6.11547 6.91363 6.20164 6.77126C6.28782 6.62888 6.40221 6.50564 6.53779 6.40912C6.67337 6.31259 6.82726 6.24483 6.99 6.21C7.51 6.10333 7.98667 5.87333 8.42 5.52C9.02 5.03333 8.93667 4.72333 8.17 4.59C5.57 4.15 3.64 6.5 4.86 8.94C5.22 9.66666 5.68667 10.1133 6.26 10.28C8.45333 10.92 9.97667 9.93667 10.83 7.33C11.15 6.36333 11.4867 6.35667 11.84 7.31C12.06 7.90333 11.99 8.53333 11.63 9.2C10.3767 11.5467 8.56333 12.39 6.19 11.73C4.35 11.22 2.92 9.35 3.07 7.43C3.31 4.36 6.48 1.76 9.51 3.55C9.68199 3.64936 9.88254 3.68672 10.0776 3.65573C10.2726 3.62474 10.4502 3.52731 10.58 3.38L10.81 3.12C11.0633 2.82666 11.02 2.58667 10.68 2.4C6.86 0.279999 2.28 2.18 1.58 6.58C0.58 12.86 8.96 16.21 12.5 10.81C13.54 9.22333 13.77 7.41333 13.19 5.38C13.1469 5.22711 13.1548 5.06433 13.2125 4.91634C13.2703 4.76836 13.3747 4.64325 13.51 4.56L13.8 4.38C13.8492 4.35003 13.9046 4.33164 13.9619 4.32622C14.0193 4.3208 14.0772 4.3285 14.1311 4.34873C14.185 4.36896 14.2337 4.4012 14.2733 4.44299C14.313 4.48479 14.3426 4.53506 14.36 4.59L15 6.4V8.72C14.0933 12.1133 11.9667 14.2067 8.62 15H6.28C2.9 14.1267 0.806667 11.9967 0 8.61V6.28C0.873333 2.89333 2.82164 0.855696 6.20164 0.0556962Z" fill="#869DC8"/>
<path d="M8.7203 0H15.0003V6.4L14.3603 4.59C14.3429 4.53506 14.3133 4.48479 14.2736 4.443C14.234 4.4012 14.1853 4.36896 14.1314 4.34873C14.0775 4.3285 14.0196 4.32081 13.9622 4.32622C13.9049 4.33164 13.8495 4.35003 13.8003 4.38L13.5103 4.56C13.375 4.64325 13.2706 4.76836 13.2128 4.91634C13.1551 5.06433 13.1472 5.22712 13.1903 5.38C13.7703 7.41333 13.5403 9.22333 12.5003 10.81C8.9603 16.21 0.5803 12.86 1.5803 6.58C2.2803 2.18 6.8603 0.28 10.6803 2.4C11.0203 2.58667 11.0636 2.82667 10.8103 3.12L10.5803 3.38C10.4505 3.52731 10.2729 3.62474 10.0779 3.65573C9.88284 3.68672 9.68229 3.64936 9.5103 3.55C6.4803 1.76 3.3103 4.36 3.0703 7.43C2.9203 9.35 4.3503 11.22 6.1903 11.73C8.56363 12.39 10.377 11.5467 11.6303 9.2C11.9903 8.53333 12.0603 7.90333 11.8403 7.31C11.487 6.35667 11.1503 6.36333 10.8303 7.33C9.97697 9.93667 8.45363 10.92 6.2603 10.28C5.68697 10.1133 5.2203 9.66667 4.8603 8.94C3.6403 6.5 5.5703 4.15 8.1703 4.59C8.93697 4.72333 9.0203 5.03333 8.4203 5.52C7.98697 5.87333 7.5103 6.10333 6.9903 6.21C6.82756 6.24483 6.67367 6.3126 6.53809 6.40912C6.40251 6.50564 6.28812 6.62888 6.20194 6.77126C6.11577 6.91364 6.05963 7.07214 6.03699 7.23702C6.01435 7.4019 6.02569 7.56966 6.0703 7.73C6.3303 8.67 6.9103 9.08333 7.8103 8.97C8.18363 8.92333 8.44363 8.72667 8.5903 8.38C9.7303 5.65 12.4303 3.63 14.5503 1.51C14.6534 1.40441 14.721 1.26933 14.7438 1.12354C14.7665 0.977744 14.7433 0.82848 14.6773 0.696498C14.6113 0.564515 14.5058 0.456373 14.3755 0.387106C14.2453 0.317838 14.0966 0.290887 13.9503 0.31C13.4703 0.37 13.1136 0.626667 12.8803 1.08C12.6936 1.43333 12.4136 1.53333 12.0403 1.38L8.7203 0Z" fill="#010001" fill-opacity="0.01"/>
<path d="M0 8.60999C0.806667 11.9967 2.9 14.1267 6.28 15H0V8.60999Z" fill="#010001" fill-opacity="0.01"/>
<path d="M14.9991 8.72V15H8.61914C11.9658 14.2067 14.0925 12.1133 14.9991 8.72Z" fill="#010001" fill-opacity="0.01"/>
</g>
<defs>
<clipPath id="clip0_2033_475">
<rect width="15" height="15" fill="white"/>
</clipPath>
</defs>
</svg>
