<svg width="8" height="13" viewBox="0 0 8 13" fill="none" xmlns="http://www.w3.org/2000/svg">
<path fill-rule="evenodd" clip-rule="evenodd" d="M0.267243 6.73278C0.0961274 6.56161 0 6.32949 0 6.08746C0 5.84543 0.0961274 5.61331 0.267243 5.44214L5.43071 0.278676C5.51491 0.191498 5.61562 0.121962 5.72698 0.0741253C5.83834 0.0262886 5.95812 0.00110942 6.07931 5.62668e-05C6.20051 -0.000996887 6.3207 0.022097 6.43287 0.0679913C6.54505 0.113885 6.64696 0.181661 6.73266 0.267363C6.81836 0.353064 6.88614 0.454974 6.93203 0.567148C6.97792 0.679323 7.00102 0.799515 6.99997 0.920711C6.99891 1.04191 6.97373 1.16168 6.9259 1.27304C6.87806 1.3844 6.80852 1.48511 6.72135 1.56931L2.2032 6.08746L6.72135 10.6056C6.88761 10.7778 6.97961 11.0083 6.97753 11.2476C6.97545 11.487 6.87946 11.7159 6.71023 11.8851C6.541 12.0544 6.31206 12.1504 6.07274 12.1524C5.83342 12.1545 5.60286 12.0625 5.43071 11.8962L0.267243 6.73278Z" fill="white"/>
</svg>
