<svg width="55" height="55" viewBox="0 0 55 55" fill="none" xmlns="http://www.w3.org/2000/svg">
<g clip-path="url(#clip0_2030_115)">
<path d="M9.81012 25.9231C9.31488 24.2615 7.45774 21.4923 5.84822 20.0154C4.23869 18.5385 8.01488 14.1692 9.99583 14.1077C11.2958 14.0462 13.3387 17.4308 15.6911 19.1539C16.9292 20.0769 17.4244 19.3385 18.1673 19.2769C19.1577 19.1539 21.6339 18.3539 24.7911 18.0462C28.2577 17.7385 34.7577 18.3539 36.3673 19.1539C39.5244 20.6308 40.2673 18.9077 40.7006 17.3077C41.072 15.7077 49.0577 16.2615 49.553 18.6C49.8006 19.6462 45.7768 24.2615 45.2196 27.9539C44.6006 31.5846 36.6149 23.7692 27.5149 24.4462C18.4149 25.1231 11.6054 27.9539 10.9244 29.5539C10.1815 31.0923 10.1196 26.8462 9.81012 25.9231Z" fill="white"/>
<path d="M40.6999 18.6C40.6999 18.6 41.0094 17.6769 40.5142 16.1385C39.8951 14.2923 38.5332 11.7077 38.5332 9.98462C38.5332 6.78463 40.8237 5.55386 43.2999 6.04616C45.7761 6.53847 49.3665 7.95386 50.2332 10.7846C50.6665 12.1385 51.2856 14.0462 51.1618 15.5231C50.9761 17.2462 50.0475 18.8462 49.738 19.2769C49.738 19.2769 47.3856 17.3692 45.838 17.5539C44.2284 17.6769 40.6999 18.6 40.6999 18.6Z" fill="#41A5A2"/>
<path d="M10.2433 35.0308C10.2433 35.0308 10.3671 26.9077 14.8861 23.3385C19.2195 19.8923 22.5623 19.7692 27.5766 19.7077C32.6528 19.6462 36.5528 20.2615 39.4623 22.7846C42.6814 25.6154 43.6719 27.8308 44.4147 30.1077C45.529 33.4308 44.9719 36.6923 44.4766 37.9846C44.1671 38.7846 40.8861 40.3231 39.9576 40.8154C37.2957 42.2308 26.0909 43.1539 20.7671 42.1692C15.4433 41.1231 11.729 40.3231 10.8004 38.5385C9.87186 36.8154 10.2433 35.0308 10.2433 35.0308Z" fill="#EDEFEF"/>
<path opacity="0.68" d="M48.3145 17.1231C48.3145 17.1231 49.6145 14.6616 49.1812 12.5077C48.8098 10.6616 47.5098 8.44617 47.5098 8.44617C47.5098 8.44617 49.2431 9.92309 49.9241 11.4C50.6669 13.1231 50.7907 14.6 50.3574 16.0154C49.986 17.3077 49.4288 17.8 49.4288 17.8C49.4288 17.8 49.2431 17.5539 49.0574 17.4308C48.8717 17.3692 48.3145 17.1231 48.3145 17.1231Z" fill="white"/>
<path d="M14.453 18.4154C14.453 18.4154 14.453 17.1846 14.6387 15.9539C14.9482 14.0462 16.4958 11.5231 16.4958 9.80002C16.4958 6.60002 14.0815 5.6154 11.6053 6.16925C9.12915 6.72309 5.53867 8.20001 4.67201 11.0308C4.23867 12.3231 3.61962 14.2308 3.80534 15.7692C3.99105 17.4923 5.47677 19.2154 5.78629 19.5846C5.78629 19.5846 7.45772 17.3692 9.93391 17.4923C11.5434 17.6154 14.453 18.4154 14.453 18.4154Z" fill="#41A5A2"/>
<path d="M10.4295 37.2462C10.4295 37.2462 14.02 39.2769 16.4962 39.0923C17.92 38.9692 21.3867 37.3692 22.5629 35.5231C23.7391 33.7385 23.2438 32.8769 24.6057 31.2769C25.9676 29.6154 27.5771 29.7385 28.6914 29.7385C29.8057 29.7385 31.2295 29.8615 32.1581 31.3385C33.0867 32.8154 33.2724 36.0154 35.0057 37C36.12 37.6154 38.5343 38.9077 40.3914 38.6C42.2486 38.3539 44.4771 37.4923 44.4771 37.4923C44.4771 37.4923 45.3438 39.5231 44.2914 41.1231C43.301 42.7231 39.8343 44.8769 37.5438 46.1077C35.1914 47.3385 31.4152 49.3692 27.8248 49.6154C24.2343 49.8615 19.6533 46.9692 18.4771 46.3539C17.301 45.7385 12.6581 42.5385 11.4819 40.8769C10.3057 39.2769 10.4295 37.2462 10.4295 37.2462Z" fill="#427C78"/>
<path d="M28.0097 50.2923C27.824 50.2923 27.5764 50.2923 27.4526 50.3538C26.1526 50.3538 22.624 49.4308 19.343 47.3385C18.5383 46.8462 17.7335 46.3538 16.9288 45.8615C13.6478 43.8923 10.8002 42.2308 10.243 39.5846C9.62399 36.7538 9.80971 33.4308 9.87161 31.6461V31.2154C9.87161 30.7846 9.93352 30.1692 9.99542 29.4308C9.99542 28.9385 10.0573 28.4461 10.1192 27.8923L10.924 27.9538C10.924 28.5077 10.8621 29.0615 10.8002 29.4923C10.7383 30.1692 10.7383 30.7846 10.6764 31.2154V31.6461C10.6145 33.3692 10.4288 36.6308 10.9859 39.4C11.4811 41.6769 14.143 43.2769 17.3002 45.1231C18.1049 45.6154 18.9097 46.0461 19.7145 46.6C22.9954 48.6923 26.3383 49.5538 27.3907 49.4923C28.5049 49.4923 31.9097 48.8154 35.1907 46.9077C35.9954 46.4154 36.8621 45.9846 37.6669 45.5538C40.8859 43.8308 43.6716 42.3538 44.2288 40.0769C44.5383 38.9077 44.6621 34.0461 44.5383 27.7692H45.343C45.4669 32.8154 45.4049 38.7846 45.0335 40.3231C44.3526 42.9077 41.443 44.4461 38.0383 46.2923C37.2335 46.7231 36.4288 47.1538 35.5621 47.6462C32.7145 49.3692 29.6192 50.1077 28.0097 50.2923Z" fill="black"/>
<path d="M44.9714 37.4308C44.2285 37.7385 43.2999 38.1077 42.2475 38.3539C39.7714 38.9077 35.9333 38.3539 34.3237 36.2C32.8999 34.3539 33.3952 29.8 28.6285 29.6769C23.3666 29.6154 23.9237 34.0462 22.3761 35.7692C20.5809 37.8 16.7428 39.5231 14.3285 38.7231C12.7809 38.2308 11.1094 37.1846 10.3047 36.6923" stroke="black" stroke-width="2" stroke-miterlimit="10"/>
<path d="M45.4659 32.5077L44.7231 29.8C44.7231 29.7385 43.7326 26.1692 41.9993 23.7077C40.5754 21.7385 38.0374 20.2 38.0374 20.2L37.0469 19.6462L38.1612 19.4615C38.2231 19.4615 39.9564 19.1539 40.2659 17.6154C40.4516 16.4462 39.8326 15.0923 39.2754 13.8C38.9659 13.1846 38.7183 12.6308 38.5326 12.0769C38.2231 11.0308 37.7897 9.12309 38.6564 7.58462C39.1516 6.66155 40.0802 6.04616 41.3183 5.80001C44.2897 5.12309 47.3231 6.66155 48.9945 8.13847C50.9135 9.86155 51.5326 12.3846 51.7183 13.7385C51.9659 15.4615 51.7802 17 50.0469 19.6462C49.4278 20.5692 48.8707 21.3077 48.3754 21.9846C47.3231 23.3385 46.5183 24.4462 46.1469 25.8C45.5897 27.8923 45.5278 29.6769 45.5278 29.7385L45.4659 32.5077ZM39.1516 19.9539C40.0802 20.5692 41.5659 21.7385 42.6183 23.2154C43.6088 24.6923 44.4135 26.4154 44.8469 27.7077C44.9707 27.0923 45.0945 26.3539 45.2802 25.5539C45.7135 24.0154 46.5802 22.8462 47.6326 21.4308C48.1278 20.7539 48.685 20.0154 49.304 19.1539C51.0374 16.4462 51.0374 15.0308 50.8516 13.8C50.6659 12.5692 50.1088 10.2308 48.3754 8.69232C46.704 7.21539 43.9183 5.92309 41.4421 6.53847C40.3897 6.78462 39.7088 7.27693 39.2754 7.95386C38.5945 9.18462 38.9659 10.9077 39.2135 11.8308C39.3993 12.3231 39.6469 12.8769 39.8945 13.4923C40.5135 14.8462 41.1945 16.3846 40.9469 17.8C40.8231 19.0308 39.8945 19.6462 39.1516 19.9539Z" fill="black"/>
<path d="M49.2419 20.5077C49.18 20.5077 49.1181 20.5077 49.0562 20.5077C48.8085 20.3846 48.6847 20.2 48.8085 19.9538C48.9942 19.4615 48.9323 19.0923 48.7466 18.7846C48.3752 18.2308 47.2609 17.9231 45.8371 17.9231C43.7942 17.9231 40.5752 18.9692 40.5133 18.9692C40.3276 19.0308 40.08 18.9077 40.0181 18.7231C39.9562 18.5385 40.08 18.2923 40.2657 18.2308C40.3895 18.1692 43.6704 17.1231 45.8371 17.1231C47.0752 17.1231 48.6847 17.3077 49.4276 18.2923C49.799 18.7846 49.8609 19.4615 49.6133 20.2C49.4895 20.3846 49.3657 20.5077 49.2419 20.5077Z" fill="black"/>
<path d="M38.5959 20.2615C38.534 20.2615 38.4721 20.2615 38.4102 20.2615C35.3769 18.9692 31.4769 18.2923 27.515 18.2923C23.615 18.2923 19.9626 18.9692 16.9292 20.2615C16.7435 20.3231 16.4959 20.2615 16.3721 20.0769C16.2483 19.8923 16.3721 19.6462 16.5578 19.5231C19.715 18.2308 23.4911 17.5538 27.4531 17.4923C31.5388 17.4923 35.5007 18.1692 38.6578 19.5231C38.8435 19.5846 38.9673 19.8308 38.8435 20.0769C38.8435 20.2 38.7197 20.2615 38.5959 20.2615Z" fill="black"/>
<path d="M9.99539 33.5539L9.87158 29.6154C9.87158 29.6154 9.80967 27.8308 9.19063 25.6769C8.8192 24.2615 7.95253 23.2154 6.96205 21.8615C6.46682 21.1846 5.84777 20.4462 5.22872 19.5231C3.49539 16.8769 3.24777 15.3385 3.49539 13.6154C3.6811 12.2615 4.23824 9.73847 6.15729 8.01539C7.82872 6.47693 10.8001 4.93847 13.7716 5.55385C15.0097 5.86155 15.9382 6.41539 16.4954 7.33847C17.3621 8.81539 16.9906 10.7846 16.6811 11.8308C16.4954 12.3846 16.2478 13 15.9382 13.6154C15.3811 14.9077 14.7621 16.3231 15.0097 17.4308C15.3192 18.9692 17.0525 19.2154 17.1144 19.2154L18.2906 19.4L17.2382 20.0154C17.2382 20.0154 14.7001 21.4308 13.2763 23.5846C11.2335 26.5385 10.7382 29.6769 10.6763 29.6769L9.99539 33.5539ZM11.7287 6.29231C9.87158 6.47693 7.95253 7.46155 6.71443 8.63078C4.9811 10.1692 4.48586 12.5077 4.30015 13.8C4.11443 15.0923 4.11443 16.5077 5.90967 19.1539C6.46682 20.0154 7.08586 20.7539 7.5811 21.4308C8.63348 22.7846 9.56205 23.9539 9.99539 25.4923C10.1811 26.2308 10.3049 26.8462 10.4287 27.4615C10.8621 26.2308 11.4811 24.6923 12.5954 23.0923C13.6478 21.5539 15.1335 20.3846 16.0621 19.7692C15.3192 19.4615 14.4525 18.8462 14.2049 17.5539C13.9573 16.1385 14.6382 14.6 15.1954 13.2462C15.443 12.6308 15.6906 12.0769 15.8763 11.5846C16.1859 10.6615 16.4954 8.93847 15.8144 7.7077C15.3811 7.03078 14.6382 6.53847 13.6478 6.29231C13.0287 6.23078 12.4097 6.23078 11.7287 6.29231Z" fill="black"/>
<path d="M6.1575 20.3846C5.97178 20.3846 5.78607 20.2616 5.72416 20.0769C5.60035 19.5231 5.72416 18.9692 6.09559 18.4769C6.77654 17.6154 8.20035 17.1231 9.80988 17.0616C11.9765 17.0616 14.8861 17.9846 15.0099 18.0462C15.1956 18.1077 15.3194 18.3539 15.2575 18.5385C15.1956 18.7231 14.948 18.8462 14.7623 18.7846C14.7623 18.7846 11.8527 17.8616 9.87178 17.8616C8.50988 17.8616 7.27178 18.2923 6.77654 18.9692C6.52892 19.2769 6.46702 19.5231 6.46702 19.8923C6.52892 20.1385 6.40512 20.3231 6.1575 20.3846Z" fill="black"/>
<path opacity="0.68" d="M11.543 16.7539C11.543 16.7539 13.7096 13.9231 14.6382 11.2769C15.3811 9.24616 14.8239 7.58463 14.8239 7.58463C14.8239 7.58463 15.2573 7.89232 15.6287 8.63078C15.9382 9.36924 16.0001 10.4769 15.6287 11.4C14.762 13.4308 14.2049 14.5385 13.9573 15.2154C13.5858 16.2 13.7096 17.1846 13.7096 17.1846C13.7096 17.1846 13.0287 17 12.843 16.9385C12.4715 16.8769 11.543 16.7539 11.543 16.7539Z" fill="white"/>
<path d="M30.4842 32.0154C30.4842 32.7539 30.4842 33.6769 30.5461 34.8462C30.608 36.2616 33.9508 40.0154 36.3032 42.2923C37.1699 43.0923 37.5413 44.6308 37.9127 45.9846C37.9127 45.9846 42.8651 43.5231 44.1651 41.3077C45.2175 39.4616 45.0937 36.0154 45.0318 32.5077C44.9699 29.3693 44.1651 27.3385 44.1651 27.3385C42.2461 25.9846 41.3175 25.3693 39.9556 24.8769C38.5937 24.3846 34.1366 22.7846 32.5889 24.0769C31.6604 24.8769 31.227 25.9231 30.9794 27.0308C30.9794 27.0308 30.5461 28.0769 28.4413 28.0769C26.3366 28.0769 25.9651 26.9693 25.9651 26.9693C25.7175 25.6769 25.2842 24.5077 24.2318 23.5846C22.6842 22.2923 18.227 23.8308 16.8651 24.4462C14.6985 25.4308 12.6556 27.1539 10.1794 30.2308C10.1794 30.2308 9.49846 37.9846 10.4889 39.8308C12.4699 43.4616 18.6604 46.4154 18.6604 46.4154C18.6604 46.4154 18.5985 43.5231 19.3413 42.6616C21.7556 39.9539 26.2747 36.4462 26.4604 34.2923C26.5223 33.3077 26.5223 32.5693 26.5223 31.8923C26.5223 31.8923 26.2127 30.6616 28.5032 30.6616C30.0508 30.7846 30.4842 32.0154 30.4842 32.0154Z" fill="#41A5A2"/>
<path d="M37.7279 46.4769L37.5422 45.8C37.1708 44.5077 36.7993 43.2154 36.1184 42.5385C33.8898 40.4462 30.2993 36.4462 30.2374 34.8462V34.3539C30.1755 33.4308 30.1755 32.7539 30.1755 32.0769C30.0517 31.8308 29.6803 31.1539 28.6279 31.1539C27.6374 31.1539 27.266 31.4 27.1422 31.5846C27.0803 31.7077 27.0803 31.8923 27.0803 31.8923V31.9539V32.0154C27.0803 32.7539 27.0803 33.5539 27.0184 34.4769C26.8946 36.1385 24.7279 38.1693 22.4374 40.3846C21.5088 41.3077 20.5184 42.2308 19.7755 43.0923C19.2803 43.6462 19.1565 45.5539 19.1565 46.6V47.2154L18.5374 46.9077C18.2898 46.7846 12.2231 43.8923 10.1803 40.2C9.1898 38.2923 9.80885 31.2154 9.87075 30.3539V30.2308L9.93266 30.1077C12.3469 27.1539 14.4517 25.3077 16.8041 24.2616C17.9803 23.7077 22.8088 21.9231 24.6041 23.4616C25.8422 24.5077 26.2136 25.9231 26.4612 27.0308C26.5231 27.1539 26.9565 27.8308 28.566 27.8308C30.1755 27.8308 30.6088 27.1539 30.7327 27.0308C31.0422 25.6154 31.5993 24.6308 32.466 23.8923C33.5803 22.9077 36.2422 23.1539 40.2041 24.6308C41.566 25.1231 42.6184 25.8 44.4755 27.1539L44.5993 27.2154L44.6612 27.3385C44.7231 27.4 45.466 29.4923 45.5898 32.6308V32.8769C45.7136 36.3846 45.7755 39.7693 44.6612 41.6154C43.2993 43.8923 38.4089 46.1077 38.2231 46.2308L37.7279 46.4769ZM28.0088 30.4154C28.1946 30.4154 28.3803 30.4154 28.566 30.4154C30.3612 30.4154 30.9184 31.7077 30.9184 31.7693V32.0154V32.0769C30.9184 32.6923 30.9184 33.4308 30.9803 34.3539V34.8462C31.0422 35.9539 33.9517 39.4616 36.6136 41.9846C37.4803 42.7846 37.8517 44.0769 38.2231 45.4308C39.4612 44.7539 42.866 42.8462 43.8565 41.1231C44.8469 39.4616 44.7231 36.0769 44.6612 32.8154V32.5693C44.5993 29.9846 44.0422 28.0769 43.8565 27.6462C42.1231 26.4154 41.1327 25.8 39.8946 25.3077C35.0041 23.5231 33.4565 24.0154 32.9612 24.4462C32.2184 25.0616 31.785 25.9231 31.4755 27.2154V27.2769C31.4755 27.3385 30.8565 28.5693 28.566 28.5693C26.2136 28.5693 25.7184 27.2769 25.7184 27.2154V27.1539C25.4708 25.6769 24.9755 24.6923 24.1708 24.0154C22.9327 22.9693 18.785 24.2616 17.2374 24.9385C15.0088 25.9846 13.0279 27.6462 10.7374 30.4769C10.5517 32.6923 10.2422 38.3539 10.985 39.7077C12.5327 42.5385 16.8041 45 18.3517 45.8616C18.3517 44.8769 18.5374 43.2154 19.1565 42.4769C19.8993 41.6154 20.8898 40.6308 21.8803 39.7077C23.8612 37.8 26.0898 35.6462 26.1517 34.3539C26.2136 33.4923 26.2136 32.6923 26.2136 32.0154C26.2136 31.8308 26.1517 31.4616 26.4612 31.0923C26.7088 30.7231 27.266 30.4769 28.0088 30.4154Z" fill="black"/>
<path d="M23.8111 34.2502C24.4127 31.112 22.6135 28.1348 19.7925 27.6003C16.9714 27.0659 14.1968 29.1767 13.5952 32.3149C12.9936 35.4531 14.7928 38.4303 17.6138 38.9648C20.4349 39.4992 23.2095 37.3884 23.8111 34.2502Z" fill="white"/>
<path d="M19.0348 39.4C18.5395 39.4615 18.0443 39.4 17.5491 39.3385C16.0634 39.0308 14.8253 38.1692 14.0205 36.8154C13.2157 35.4615 12.9062 33.8615 13.2157 32.2615C13.8348 28.9385 16.8681 26.6615 19.8395 27.2154C21.3253 27.5231 22.5634 28.3846 23.3681 29.7385C24.1729 31.0923 24.4824 32.6923 24.1729 34.2923C23.8634 35.8923 22.9967 37.3077 21.7586 38.2923C20.9538 38.9692 20.0253 39.3385 19.0348 39.4ZM18.4776 27.9538C16.3729 28.2 14.4538 29.9846 14.0205 32.3846C13.7729 33.8 14.0205 35.2154 14.7015 36.3846C15.3824 37.5538 16.4348 38.2923 17.7348 38.5385C18.9729 38.7846 20.2729 38.4769 21.3253 37.6154C22.4395 36.8154 23.1824 35.5231 23.43 34.1077C23.6776 32.6923 23.43 31.2769 22.7491 30.1077C22.0062 29 20.9538 28.2615 19.7157 28.0154C19.2824 27.9538 18.911 27.8923 18.4776 27.9538Z" fill="black"/>
<path d="M22.6433 34.0698C23.1041 31.666 21.7353 29.3873 19.5859 28.9801C17.4366 28.5729 15.3206 30.1915 14.8598 32.5952C14.399 34.9989 15.7678 37.2776 17.9172 37.6848C20.0665 38.092 22.1825 36.4735 22.6433 34.0698Z" fill="white"/>
<path d="M19.0347 38.1077C18.6632 38.1692 18.2299 38.1077 17.8585 38.0461C15.5061 37.6154 13.9585 35.0923 14.4537 32.5077C14.7013 31.2769 15.3823 30.1692 16.3109 29.4308C17.3013 28.6923 18.4775 28.3846 19.5918 28.6308C20.768 28.8769 21.7585 29.5538 22.3775 30.6C22.9966 31.6461 23.2442 32.9384 22.9966 34.1692C22.7489 35.4 22.068 36.5077 21.1394 37.2461C20.5204 37.7384 19.7775 38.0461 19.0347 38.1077ZM18.6013 29.3692C17.9823 29.4308 17.3632 29.6769 16.868 30.1077C16.0632 30.7231 15.5061 31.6461 15.3204 32.6923C14.887 34.8461 16.1251 36.9384 18.0442 37.3077C18.9728 37.4923 19.9013 37.2461 20.7061 36.6308C21.5109 36.0154 22.068 35.0923 22.2537 34.0461C22.4394 33 22.2537 31.8923 21.7585 31.0308C21.2632 30.1692 20.4585 29.6154 19.5299 29.4308C19.2204 29.3077 18.9109 29.3077 18.6013 29.3692Z" fill="black"/>
<path d="M20.359 33.4626C20.4671 32.5171 19.8662 31.6728 19.017 31.5769C18.1677 31.481 17.3917 32.1697 17.2836 33.1153C17.1755 34.0608 17.7763 34.9051 18.6256 35.001C19.4749 35.0969 20.2509 34.4082 20.359 33.4626Z" fill="#1A1A1A"/>
<path d="M18.972 35.4C18.8482 35.4 18.7243 35.4 18.6005 35.4C17.5482 35.2769 16.7434 34.2308 16.9291 33.0615C16.991 32.5077 17.2386 32.0154 17.672 31.6462C18.1053 31.2769 18.6005 31.0923 19.1577 31.1538C20.2101 31.2769 21.0148 32.3231 20.8291 33.4923C20.6434 34.5385 19.8386 35.3385 18.972 35.4ZM18.7243 32.0154C18.4767 32.0154 18.291 32.1385 18.1053 32.3231C17.8577 32.5692 17.672 32.8769 17.672 33.2462C17.6101 33.9846 18.0434 34.6 18.6624 34.6615C19.2815 34.7231 19.8386 34.1692 19.9624 33.4923C20.0243 32.7538 19.591 32.1385 18.972 32.0769C18.9101 31.9538 18.8482 31.9538 18.7243 32.0154Z" fill="black"/>
<path d="M38.8148 38.9594C41.652 38.5172 43.5483 35.6002 43.0505 32.4441C42.5527 29.288 39.8492 27.0879 37.0121 27.5302C34.1749 27.9724 32.2786 30.8894 32.7764 34.0455C33.2742 37.2016 35.9777 39.4016 38.8148 38.9594Z" fill="white"/>
<path d="M38.4108 39.4C37.0489 39.4615 35.8108 39.0308 34.6965 38.1692C33.4584 37.1846 32.6536 35.7692 32.406 34.1077C31.9108 30.7846 33.9536 27.6461 36.987 27.1538C40.0203 26.6615 42.9298 29.0615 43.487 32.3846C44.0441 35.7077 42.0632 38.7846 39.0917 39.2769C39.0917 39.2769 38.9679 39.3385 38.7822 39.3385C38.6584 39.4 38.4727 39.4 38.4108 39.4ZM37.2965 27.9538C37.2346 27.9538 37.1727 27.9538 37.0489 27.9538C34.4489 28.3846 32.7155 31.0923 33.1489 33.9846C33.3965 35.4 34.0774 36.6923 35.1298 37.5538C36.1822 38.4154 37.4203 38.7846 38.7203 38.6C41.3203 38.1692 43.0536 35.4615 42.6203 32.5692C42.187 29.6769 39.8346 27.6461 37.2965 27.9538Z" fill="black"/>
<path d="M38.6559 37.6238C40.7837 37.2921 42.2039 35.0908 41.8278 32.7069C41.4518 30.323 39.4221 28.6594 37.2942 28.9911C35.1664 29.3227 33.7462 31.5241 34.1222 33.908C34.4982 36.2918 36.528 37.9555 38.6559 37.6238Z" fill="white"/>
<path d="M37.9763 37.9846C35.8715 37.9231 34.0763 36.2615 33.7048 33.9231C33.5191 32.6923 33.7668 31.4615 34.3858 30.4154C35.0668 29.3692 36.0572 28.7539 37.1715 28.5692C39.5239 28.2 41.7525 29.9846 42.1858 32.5692C42.3715 33.8 42.1239 35.0308 41.5048 36.0769C40.8858 37 40.081 37.6154 39.0906 37.8615C39.0287 37.8615 38.8429 37.9231 38.5953 37.9846C38.3477 37.9846 38.0382 37.9846 37.9763 37.9846ZM37.481 29.3692C37.4191 29.3692 37.3572 29.3692 37.2953 29.3692C36.3668 29.4923 35.562 30.0462 35.0668 30.8462C34.5096 31.7077 34.3239 32.7539 34.4477 33.8C34.7572 35.9539 36.6144 37.4308 38.5334 37.1846C39.462 37.0615 40.2668 36.5077 40.762 35.7077C41.3191 34.8462 41.5048 33.8 41.381 32.7539C41.0715 30.6615 39.3382 29.1846 37.481 29.3692Z" fill="black"/>
<path d="M38.1831 35.2555C39.0275 35.1239 39.5918 34.2551 39.4435 33.3149C39.2952 32.3748 38.4905 31.7194 37.6461 31.851C36.8017 31.9826 36.2374 32.8514 36.3857 33.7916C36.534 34.7317 37.3387 35.3871 38.1831 35.2555Z" fill="#1A1A1A"/>
<path d="M38.162 35.6462C37.1096 35.7692 36.181 34.9692 35.9953 33.8616C35.8096 32.6923 36.4906 31.5846 37.5429 31.4616C38.5953 31.2769 39.5858 32.0769 39.7715 33.2462C39.9572 34.4154 39.2144 35.4616 38.162 35.6462C38.162 35.6462 38.2239 35.6462 38.162 35.6462ZM37.7287 32.2C37.0477 32.3231 36.6763 33 36.7382 33.6769C36.862 34.4154 37.4191 34.9077 38.0382 34.7846C38.6572 34.6616 39.0906 34.0462 38.9668 33.3077C38.9049 32.6923 38.3477 32.2 37.7287 32.2Z" fill="black"/>
</g>
<defs>
<clipPath id="clip0_2030_115">
<rect width="49.0905" height="45.9077" fill="white" transform="translate(3 5)"/>
</clipPath>
</defs>
</svg>
