<svg width="55" height="55" viewBox="0 0 55 55" fill="none" xmlns="http://www.w3.org/2000/svg">
<g clip-path="url(#clip0_2030_116)">
<path d="M12.0822 33.7362C12.0822 33.7362 6.64115 29.3262 4.3851 28.3239C3.98697 28.1903 3.72155 28.1235 3.52249 28.1235C3.25707 28.1903 2.9253 28.3239 2.79259 28.4576C0.138414 30.128 3.38978 35.6739 4.78322 37.5448C5.51312 38.4134 7.96823 41.2198 10.357 42.0216C12.3476 42.7566 15.3336 42.4225 15.3336 42.4225" fill="white"/>
<path d="M13.9399 42.957C14.7362 42.957 15.267 42.8902 15.3334 42.8902L15.267 41.9548C15.2007 41.9548 12.2811 42.2221 10.4895 41.5539C8.36615 40.8189 5.91104 38.2798 5.18114 37.2107C4.11947 35.8075 1.92978 32.0657 2.3279 29.9944C2.3279 29.4598 2.59332 29.1257 2.99145 28.8585C3.0578 28.7917 3.38957 28.5912 3.58864 28.5912C3.65499 28.5912 3.85405 28.5912 4.18583 28.7248C6.37552 29.6603 11.6839 34.0034 11.7502 34.0703L12.3474 33.3353C12.082 33.1348 6.84 28.8585 4.5176 27.8562C4.11947 27.6557 3.7877 27.5889 3.45593 27.5889C3.0578 27.6557 2.72603 27.8562 2.46061 27.9898C1.86342 28.3907 1.39894 28.9921 1.26623 29.7939C0.801751 32.4666 3.38957 36.5425 4.31853 37.8121C4.91572 38.5471 7.50355 41.4871 10.025 42.4225C11.3521 42.957 12.8783 42.957 13.9399 42.957Z" fill="black"/>
<path d="M13.9396 41.0193C14.1387 41.0193 14.3378 40.8857 14.4041 40.6852C14.4705 40.418 14.3378 40.1507 14.0723 40.0839C12.0154 39.4825 9.62659 38.7475 9.36117 38.5471C9.36117 38.4802 9.09576 38.1462 10.0911 36.2084C10.2238 35.9412 10.6219 35.1393 7.83502 32.6671C7.63596 32.5334 7.50325 32.3998 7.37054 32.2662C6.17616 31.1303 4.38459 29.4598 2.06219 29.8607C1.79677 29.8607 1.66406 30.128 1.66406 30.3953C1.73042 30.6625 1.92948 30.7962 2.26125 30.7962C4.18553 30.4621 5.57897 31.8653 6.77335 33.0012C6.90606 33.1348 7.10512 33.2684 7.23783 33.4021C8.96305 34.9389 9.29482 35.7407 9.22847 35.8743C8.56492 37.2775 8.03409 38.7475 8.83034 39.3489C9.49388 39.7498 13.1434 40.752 13.9396 41.0193C13.8733 41.0193 13.8069 41.0193 13.9396 41.0193Z" fill="black"/>
<path d="M42.4057 33.2016C42.4057 33.2016 47.8467 28.7916 50.1028 27.7894C50.5009 27.6557 50.7663 27.5889 50.9654 27.5889C51.2308 27.6557 51.5626 27.7894 51.6953 27.923C54.3495 29.5935 51.0981 35.1394 49.7046 37.0103C48.9747 37.8789 46.5196 40.6852 44.1309 41.4871C42.1402 42.222 39.1543 41.888 39.1543 41.888" fill="white"/>
<path d="M40.4813 42.4893C39.6851 42.4893 39.1542 42.4225 39.0879 42.4225L39.1542 41.4871C39.2206 41.4871 42.1402 41.7543 43.9318 41.0862C46.0551 40.3512 48.5102 37.8121 49.2401 36.743C50.3018 35.3398 52.4915 31.598 52.0934 29.5267C52.0934 28.9921 51.8943 28.658 51.4298 28.3908C51.3635 28.3239 51.0317 28.1235 50.8326 28.1235C50.7663 28.1235 50.5672 28.1235 50.2354 28.2571C48.0457 29.1926 42.7374 33.5357 42.671 33.6026L42.0738 32.8676C42.3393 32.6671 47.5813 28.3908 49.9037 27.3885C50.3018 27.188 50.6336 27.1212 50.9653 27.1212C51.3635 27.188 51.6952 27.3885 51.9606 27.5221C52.5578 27.923 53.0223 28.5244 53.155 29.3262C53.6195 31.9989 51.0317 36.0748 50.1027 37.3444C49.5055 38.0794 46.9177 41.0193 44.3962 41.9548C43.1355 42.4225 41.543 42.4893 40.4813 42.4893Z" fill="black"/>
<path d="M40.5478 40.4848C40.3487 40.4848 40.1497 40.3511 40.0833 40.1507C40.017 39.8834 40.1497 39.6161 40.4151 39.5493C42.4721 38.948 44.8608 38.213 45.1262 38.0125C45.1262 37.9457 45.3917 37.6116 44.3964 35.6739C44.2636 35.4066 43.8655 34.6048 46.6524 32.1325C46.7851 31.9989 46.9178 31.8653 47.0505 31.7316C48.2449 30.5957 50.0365 28.9253 52.3589 29.3262C52.6243 29.393 52.757 29.5935 52.757 29.9275C52.6907 30.1948 52.4916 30.3285 52.1598 30.3285C50.2355 29.9944 48.8421 31.3975 47.6477 32.5334C47.515 32.6671 47.3159 32.8007 47.1832 32.9344C45.458 34.4712 45.1262 35.273 45.1926 35.4066C45.8561 36.8098 46.387 38.2798 45.5907 38.8811C44.9272 39.2152 41.2777 40.2175 40.5478 40.4848C40.5478 40.4848 40.6141 40.4848 40.5478 40.4848Z" fill="black"/>
<path d="M29.9991 48.6366C34.5112 47.768 36.8336 45.1621 37.829 43.9594C39.3551 42.2221 40.8149 39.6162 41.6112 37.0771C42.8055 32.9344 42.7392 25.4508 42.2747 23.7804C41.1467 19.6376 38.7579 16.6308 34.7103 14.7599C32.2552 13.624 29.8664 13.2899 27.0132 13.3568C23.8945 13.4236 20.8422 14.2254 19.7142 14.7599C15.7329 16.6308 13.2115 19.5708 12.0834 23.7804C11.619 25.4508 11.619 32.9344 12.8797 37.0771C13.6759 39.7498 15.1357 42.2221 16.6619 43.9594C17.7236 45.1621 19.9796 47.768 24.4917 48.6366C25.0889 48.7034 26.6814 48.9039 27.345 48.9039C28.0085 48.8371 29.4019 48.7703 29.9991 48.6366Z" fill="white"/>
<path d="M27.3444 49.3048C26.6145 49.3048 25.022 49.1711 24.3584 49.0375C19.6472 48.1689 17.2585 45.3625 16.2632 44.2266C14.538 42.2889 13.1445 39.6162 12.3483 37.1439C11.1539 33.068 11.1539 25.4508 11.6184 23.5799C12.8127 19.2367 15.4006 16.1631 19.5145 14.2922C20.5762 13.7576 23.6285 12.9558 27.0126 12.889C30.1312 12.8222 32.5864 13.2899 34.9088 14.2922C38.9564 16.1631 41.5442 19.2367 42.7386 23.6467C43.2694 25.5844 43.3358 33.1348 42.075 37.2107C41.3451 39.7498 39.8853 42.3557 38.1601 44.2934C37.0985 45.4962 34.7097 48.2357 29.9985 49.1043C29.4677 49.238 28.0743 49.3048 27.3444 49.3048ZM27.7425 13.7576C27.4771 13.7576 27.3444 13.7576 27.0789 13.7576C24.0266 13.8245 21.0407 14.6263 19.979 15.094C16.1305 16.8981 13.7417 19.7044 12.6137 23.7803C12.1492 25.5176 12.2155 33.0012 13.3436 36.8766C14.0735 39.2153 15.4006 41.7543 17.0594 43.6252C17.9884 44.6943 20.2444 47.3002 24.6238 48.102C25.221 48.1689 26.6808 48.3693 27.4107 48.3693C28.0743 48.3693 29.4013 48.2357 29.9322 48.102C34.3116 47.3002 36.5676 44.6943 37.4966 43.6252C39.0891 41.7543 40.4825 39.2153 41.2124 36.8766C42.4068 32.7339 42.2741 25.384 41.876 23.7803C40.7479 19.6376 38.3592 16.8313 34.577 15.094C32.5864 14.2254 30.3967 13.7576 27.7425 13.7576Z" fill="black"/>
<path d="M22.9648 39.4157C23.0312 39.0148 23.4293 38.8144 24.1592 38.8144C25.5527 38.7475 30.9274 38.5471 31.6573 38.6139C32.3872 38.6807 32.5199 38.948 32.5199 39.1485C32.5199 39.4825 32.3208 39.7498 32.0554 40.0839C31.3255 41.0862 29.8657 42.7566 29.0694 43.0907C28.0078 43.6253 27.0125 43.4916 26.2162 43.0239C25.619 42.623 24.1592 41.4871 23.363 40.3512C23.0976 40.0839 22.9648 39.7498 22.9648 39.4157Z" fill="white"/>
<path d="M27.5429 43.9593C26.9457 43.9593 26.4149 43.8257 25.884 43.4916C25.2868 43.0907 23.6943 41.888 22.8981 40.6184L22.8317 40.4848C22.6327 40.1507 22.4336 39.8166 22.4336 39.3489C22.4999 38.948 22.7654 38.3466 24.0925 38.2798C25.2868 38.213 30.8606 38.0125 31.5905 38.0794C32.6522 38.213 32.8512 38.7475 32.8512 39.0816C32.8512 39.5494 32.5858 39.8834 32.3868 40.2175L32.3204 40.2844C31.5905 41.2866 30.1307 43.0239 29.2017 43.4248C28.6709 43.8257 28.1401 43.9593 27.5429 43.9593ZM23.4289 39.4825C23.4289 39.6162 23.4953 39.8166 23.6943 40.0171L23.7607 40.1507C24.4906 41.2198 25.884 42.3557 26.4149 42.6898C27.1448 43.0907 27.941 43.0907 28.8036 42.6898C29.4672 42.4225 30.7942 40.9525 31.5905 39.8166L31.6569 39.7498C31.8559 39.4825 31.9223 39.3489 31.9223 39.2153C31.8559 39.1485 31.7232 39.1485 31.5241 39.1485C30.8606 39.0816 25.5523 39.2153 24.0925 39.2821C23.628 39.3489 23.4289 39.4157 23.4289 39.4825Z" fill="black"/>
<path d="M27.6096 42.8234C27.6096 42.8234 27.4769 41.2866 27.2115 40.7521C27.1451 40.6184 27.0124 40.4848 26.8797 40.3512C26.747 40.2844 26.5479 40.2844 26.4152 40.2844C25.818 40.2844 25.4199 40.3512 25.0218 40.4848C24.7564 40.5516 24.69 40.6853 24.6237 40.8857C24.5573 41.0862 24.5573 41.4203 24.69 41.6207C24.9554 42.5562 25.619 44.3602 26.4152 45.6298C26.6806 46.0975 27.0124 46.3648 27.2778 46.4984C27.676 46.6321 28.0077 46.4984 28.2732 46.298C28.8703 45.8971 29.2685 45.0952 29.6666 44.2934C30.0647 43.4916 30.5292 42.2889 30.5956 41.5539C30.6619 41.0862 30.5292 40.7521 30.1974 40.5516C29.932 40.418 29.4675 40.2844 29.1358 40.2175C28.804 40.1507 28.4059 40.0839 28.2068 40.2175C28.0077 40.2844 27.875 40.4848 27.8087 40.7521C27.676 41.5539 27.6096 42.8234 27.6096 42.8234Z" fill="#CC697A"/>
<path d="M27.5428 46.9662C27.4101 46.9662 27.2774 46.9662 27.1447 46.8993C26.7465 46.7657 26.3484 46.4316 26.0166 45.8302C25.2867 44.6275 24.4905 42.7566 24.2251 41.6875C24.1587 41.4203 24.0923 40.9525 24.2251 40.6185C24.3578 40.2844 24.6232 40.0839 24.8886 40.0171C25.2867 39.8166 25.7512 39.7498 26.4148 39.7498C26.6138 39.7498 26.8129 39.8166 27.1447 39.8835C27.2774 39.9503 27.4101 40.0839 27.5428 40.2175C27.6091 39.9503 27.8746 39.8166 28.14 39.6162C28.5381 39.4157 29.0026 39.5494 29.3343 39.6162C29.6661 39.683 30.197 39.8166 30.5287 40.0171C30.9932 40.2844 31.1923 40.8189 31.1259 41.4871C30.9932 42.3557 30.5287 43.5584 30.1306 44.3603C29.7325 45.2289 29.3343 46.0975 28.6044 46.5652C28.339 46.7657 28.0073 46.9662 27.5428 46.9662ZM26.3484 40.7521C25.8839 40.7521 25.4858 40.8189 25.2867 40.8857C25.154 40.9525 25.154 40.9525 25.0877 41.0194C25.0877 41.0862 25.0877 41.2866 25.154 41.4871C25.4194 42.3557 26.0166 44.093 26.8129 45.2957C27.0783 45.6966 27.3437 45.8971 27.4101 45.9639C27.6091 46.0307 27.8082 46.0307 28.0073 45.8302C28.4717 45.4962 28.8699 44.7612 29.2016 44.0262C29.5334 43.2912 30.0642 42.1553 30.1306 41.3535C30.197 40.9525 30.0642 40.8857 29.9979 40.8189C29.7988 40.7521 29.4007 40.6185 29.1353 40.5516C28.7372 40.4848 28.5381 40.4848 28.5381 40.4848C28.4717 40.4848 28.4717 40.5516 28.4054 40.6853C28.2727 41.5539 28.14 42.7566 28.14 42.7566C28.14 43.0239 27.8745 43.1575 27.6755 43.1575C27.4764 43.1575 27.211 42.9571 27.211 42.7566C27.1447 42.1553 27.0119 41.153 26.8792 40.8189C26.8792 40.7521 26.8129 40.7521 26.8129 40.6853C26.7465 40.6185 26.6138 40.6185 26.5475 40.6185C26.3484 40.7521 26.3484 40.7521 26.3484 40.7521Z" fill="black"/>
<path d="M38.423 41.2198C38.8211 42.623 41.0771 42.7566 41.4753 41.6207C41.7407 40.5516 41.9398 38.6139 42.2052 36.6762C42.6033 33.8699 42.9351 31.1971 42.9351 31.1971L40.48 30.1281C40.48 30.1281 39.8828 33.2685 39.3519 36.2085C38.8211 38.5471 38.2903 40.7521 38.423 41.2198Z" fill="#CC9687"/>
<path d="M40.1491 42.8235C39.2865 42.8235 38.2248 42.3558 37.9594 41.2867C37.893 40.8858 38.0257 40.0839 38.4902 37.8121C38.5566 37.2776 38.7556 36.7431 38.822 36.1417C39.4192 33.2017 39.95 30.0613 39.95 30.0613L40.0164 29.4599L43.3341 30.8631L42.6042 36.6762C42.5378 37.0771 42.5378 37.478 42.4715 37.879C42.2724 39.4158 42.0734 40.8189 41.8743 41.6876C41.6752 42.3558 41.0117 42.8235 40.1491 42.8235ZM38.8883 41.0862C39.021 41.6208 39.6182 41.888 40.2154 41.888C40.5472 41.888 40.9453 41.7544 41.078 41.4203C41.3435 40.6185 41.4762 39.2153 41.6752 37.7453C41.7416 37.3444 41.7416 36.9435 41.8079 36.5426L42.4715 31.3976L40.879 30.7294C40.6799 31.7985 40.2818 34.0703 39.8173 36.2753C39.7509 36.8767 39.5519 37.4112 39.4855 38.0126C39.0874 39.2153 38.822 40.7521 38.8883 41.0862Z" fill="black"/>
<path d="M15.8637 41.153C15.4655 42.5562 13.2095 42.6899 12.8114 41.554C12.5459 40.4849 12.3469 38.5472 12.0815 36.6094C11.6833 33.8031 11.3516 31.1304 11.3516 31.1304L13.8067 30.0613C13.8067 30.0613 14.4039 33.2017 14.9347 36.1417C15.3992 38.4803 15.93 40.6853 15.8637 41.153Z" fill="#CC9687"/>
<path d="M14.0717 42.8235C13.2091 42.8235 12.5455 42.4226 12.3465 41.6876C12.081 40.8189 11.9483 39.4158 11.7493 37.879C11.6166 37.478 11.6166 37.0771 11.5502 36.6762L10.8203 30.8631L14.138 29.4599L14.2044 30.0613C14.2044 30.1281 14.8016 33.2017 15.3324 36.1417C15.3988 36.7431 15.5978 37.2776 15.6642 37.879C16.1287 40.1508 16.2614 40.9526 16.195 41.3535C15.996 42.3558 14.9343 42.8235 14.0717 42.8235ZM11.882 31.4644L12.5455 36.6094C12.6119 37.0103 12.6119 37.4112 12.6782 37.8121C12.8773 39.2821 13.01 40.6853 13.2754 41.4871C13.3418 41.8212 13.7399 41.9548 14.138 41.9548C14.6689 41.9548 15.2661 41.6876 15.4651 41.153C15.5315 40.8858 15.1997 39.3489 14.9343 38.1462C14.8679 37.6117 14.6689 37.0103 14.6025 36.409C14.2044 34.204 13.7399 31.9322 13.5408 30.8631L11.882 31.4644Z" fill="black"/>
<path d="M28.2063 11.7532C34.0455 12.1541 38.7566 15.0941 40.6809 17.7668C42.6715 20.7068 43.3351 23.7804 43.136 27.8563C43.0697 29.5935 42.8043 31.3976 42.8043 31.3976C42.8043 31.3976 39.8183 29.9944 37.3632 28.7249C34.0455 26.9876 31.6567 26.5199 27.3437 26.3863C27.2773 26.3863 26.8128 26.3863 26.7465 26.3863C22.4335 26.5199 20.1774 27.0545 16.7933 28.7249C14.3382 29.9276 11.3523 31.3976 11.3523 31.3976C11.3523 31.3976 11.0868 29.5935 11.0205 27.8563C10.8214 23.7136 11.4186 20.6399 13.4756 17.7668C15.4662 15.0941 20.1774 12.2209 26.0166 11.7532C26.282 11.7532 26.8792 11.6863 27.211 11.6863C27.5427 11.6863 27.9409 11.7532 28.2063 11.7532Z" fill="#CC9687"/>
<path d="M43.2015 32.0658L42.6044 31.7985C42.538 31.7985 39.6184 30.3285 37.1633 29.1258C33.9119 27.4554 31.5895 26.9208 27.3428 26.7872C27.2765 26.7872 26.8784 26.7872 26.7456 26.7872C22.499 26.9208 20.3093 27.4554 17.0579 29.059C14.6028 30.2617 11.6168 31.7317 11.6168 31.7317L11.0197 32.0658L10.9533 31.3976C10.9533 31.3308 10.6879 29.5267 10.6215 27.7895C10.4225 23.3795 11.2187 20.239 13.143 17.4327C15.0009 14.76 19.7784 11.6863 25.9494 11.2186C26.2148 11.2186 26.812 11.1518 27.1438 11.1518C27.4092 11.1518 28.0064 11.1518 28.2054 11.2186C34.3764 11.6863 39.1539 14.76 41.0782 17.4327C43.0688 20.3058 43.7987 23.3795 43.5997 27.7895C43.5333 29.5267 43.2679 31.264 43.2679 31.3976L43.2015 32.0658ZM27.2101 25.9186C27.2765 25.9186 27.3428 25.9186 27.3428 25.9186C31.7886 26.0522 34.1773 26.6535 37.5614 28.324C39.353 29.1926 41.41 30.1949 42.4053 30.6626C42.4716 29.9944 42.6044 28.9254 42.6707 27.7895C42.8698 23.5131 42.1399 20.7068 40.3483 17.9672C38.6231 15.4281 34.111 12.555 28.2718 12.1541C28.0727 12.1541 27.5419 12.0872 27.2765 12.0872C27.0111 12.0872 26.3475 12.1541 26.0821 12.1541C20.1766 12.555 15.7308 15.495 14.0056 17.9672C12.1477 20.6399 11.4841 23.5131 11.6832 27.7895C11.7496 28.8585 11.8159 29.9944 11.9486 30.6626C12.9439 30.1949 15.0009 29.1258 16.7925 28.324C20.1766 26.5867 22.499 26.0522 26.8784 25.9186C26.812 25.9186 27.0774 25.9186 27.2101 25.9186Z" fill="black"/>
<path d="M21.0404 27.0544C21.0404 27.0544 21.4386 24.9162 20.4432 21.0408C19.7797 18.4349 18.5853 15.4949 17.7891 14.1585L19.647 13.2231C19.9124 13.624 20.7087 14.6931 21.3058 16.2299C21.903 17.6331 22.832 19.7712 23.761 23.7803C24.0264 24.7158 24.3582 26.3194 24.3582 26.3194L21.0404 27.0544Z" fill="#CC9687"/>
<path d="M20.3763 27.6558L20.509 26.9208C20.509 26.854 20.9071 24.7826 19.9118 21.1076C19.2483 18.5017 18.0539 15.5617 17.324 14.359L17.0586 13.9581L19.7128 12.5549L19.9782 12.9558C20.0445 13.0227 20.1109 13.2231 20.2436 13.3567C20.5754 13.9581 21.1726 14.8267 21.637 16.0295C21.7034 16.2967 21.8361 16.4972 21.9025 16.7645C22.566 18.2345 23.4286 20.3726 24.2249 23.7135C24.4239 24.5822 24.8221 26.2526 24.8221 26.2526L24.9548 26.7203L20.3763 27.6558ZM18.452 14.359C19.1819 15.829 20.2436 18.5017 20.9071 20.9072C21.637 23.5799 21.637 25.5176 21.5707 26.4531L23.7604 25.9853C23.6277 25.384 23.3623 24.5153 23.2296 23.914C22.4997 20.5731 21.637 18.5685 21.0399 17.1654C20.9735 16.8981 20.8408 16.6308 20.7744 16.4304C20.3763 15.2945 19.7791 14.4258 19.4474 13.8913L19.381 13.8245L18.452 14.359Z" fill="black"/>
<path d="M32.5191 26.854C32.5191 26.854 32.121 24.649 33.1163 20.7735C33.7135 18.4349 35.306 14.7599 35.6378 13.8245L33.5144 12.8222C33.3154 13.2231 32.5855 15.1608 32.32 15.6954C31.7228 17.0986 31.0593 19.0363 30.064 22.9117C29.6659 24.4485 29.4668 26.2526 29.4668 26.2526L32.5191 26.854Z" fill="#CC9687"/>
<path d="M33.1159 27.5222L29.002 26.6535L29.0683 26.2526C29.0683 26.1858 29.201 24.3817 29.6655 22.9117C30.5945 19.2367 31.3244 17.1654 31.9879 15.6286C32.0543 15.3613 32.2533 14.9604 32.4524 14.4927C32.8505 13.624 33.0496 12.9559 33.1823 12.7554L33.3813 12.3545L36.3673 13.7577L36.1682 14.0249C36.1019 14.1586 36.0355 14.4258 35.9028 14.7599C35.3056 16.1631 34.1776 19.1031 33.7131 20.974C32.7178 24.7158 33.1159 26.854 33.1159 26.854V27.5222ZM29.9973 25.8517L31.9879 26.2526C31.9215 25.3172 31.9215 23.3794 32.7178 20.6399C33.2486 18.6354 34.3767 15.829 34.9738 14.2922C35.0402 14.2254 35.0402 14.0918 35.0402 14.0249L33.6468 13.4236C33.5141 13.7577 33.315 14.2922 33.1159 14.6931C32.9169 15.1608 32.7178 15.6286 32.6514 15.829C31.9879 17.299 31.3244 19.3036 30.3954 22.9785C30.1963 24.0476 30.0636 25.2503 29.9973 25.8517Z" fill="black"/>
<path d="M20.1771 11.6195C19.779 12.0204 19.0491 12.5549 19.4472 13.0226C20.5753 14.4258 21.5042 16.8313 22.4332 19.3035C23.2958 21.7758 24.6229 27.9899 24.9547 29.0589C25.021 29.3262 26.3481 29.3262 26.7462 29.2594C27.4761 29.2594 29.0686 29.1258 29.0686 28.9921C29.4668 26.5867 30.5284 20.4394 31.1256 18.769C32.0546 16.2299 32.9835 13.624 33.6471 12.6217C33.9789 12.0204 33.7134 11.4858 33.249 11.0849C32.3864 10.3499 29.9976 8.7463 27.078 8.81312C25.021 8.81312 22.6986 9.74857 21.3052 10.7508C20.8407 11.0181 20.5089 11.2854 20.1771 11.6195Z" fill="#CC9687"/>
<path d="M26.3486 29.7271C24.7561 29.7271 24.6234 29.393 24.557 29.1926C24.358 28.7917 24.0926 27.4553 23.6944 25.9185C23.1636 23.7135 22.5001 20.8403 21.9692 19.4372C21.173 17.2322 20.1776 14.6931 19.116 13.2899C18.5188 12.5549 19.315 11.7531 19.7795 11.3522L19.9122 11.2186C20.244 10.8845 20.5758 10.6172 21.0403 10.3499C22.4337 9.34767 24.8888 8.3454 27.0785 8.3454C30.728 8.3454 33.2495 10.5504 33.5149 10.7508C34.2448 11.419 34.4438 12.2208 33.9794 12.889C33.3822 13.8245 32.5196 16.2299 31.657 18.5017L31.5243 18.9026C30.9271 20.5063 29.8654 26.453 29.5336 29.0589C29.4673 29.3262 29.4673 29.6603 26.8131 29.7271C26.614 29.7271 26.4813 29.7271 26.3486 29.7271ZM25.3533 28.658C25.6187 28.7249 26.2159 28.7249 26.7467 28.7249C27.3439 28.7249 28.2729 28.658 28.6047 28.5912C29.0028 26.2526 29.9981 20.3058 30.5953 18.5685L30.728 18.1676C31.5906 15.6954 32.4532 13.3567 33.1168 12.3545C33.3158 12.0872 33.1831 11.7531 32.785 11.419C31.9224 10.6172 29.6663 9.21403 26.9458 9.21403C24.9552 9.21403 22.7655 10.1495 21.4384 11.0849C21.0403 11.3522 20.7085 11.6195 20.3767 11.9536L20.244 12.0872C20.0449 12.2208 19.7132 12.5549 19.6468 12.6886C20.8412 14.2254 21.8365 16.8313 22.6991 19.1031C23.23 20.5731 23.8935 23.4462 24.4243 25.7181C24.8888 27.0544 25.2206 28.1903 25.3533 28.658Z" fill="black"/>
<path d="M20.1775 13.4904C20.642 14.2254 21.1728 15.1608 21.969 17.1653C22.5662 18.6353 23.2961 20.5731 24.0924 24.1144C24.2251 24.8494 25.2204 28.7248 25.2868 28.7248C25.4195 28.7917 26.3484 28.7917 27.012 28.7917C27.8746 28.7248 28.7372 28.658 28.7372 28.658C28.8699 27.8562 29.2017 24.983 30.2633 20.5731C30.8605 18.2344 31.8559 15.6285 32.254 14.5594C32.7185 13.3567 33.1166 12.6885 33.1829 12.5549C33.2493 12.4881 33.3156 12.3545 33.382 12.154C33.4484 12.0204 33.382 11.8867 33.3156 11.8867C33.2493 11.8199 33.1166 11.5526 32.9839 11.4858C32.3203 10.9513 31.7895 10.6172 31.7895 10.6172C31.5904 10.9513 30.3297 13.5572 29.268 17.1653C28.4718 19.9049 27.5428 23.914 27.0783 24.983C27.012 25.1167 26.9456 25.1835 26.8793 25.1835C26.8129 25.1835 26.7466 25.1835 26.6802 24.983C26.2821 23.914 25.6185 20.0385 24.5569 17.3658C23.3625 14.0249 21.7036 11.1517 21.7036 11.1517C21.7036 11.1517 21.3719 11.419 20.7747 11.8867C20.642 12.0204 20.3765 12.2208 20.1775 12.4213C19.9121 12.6885 19.8457 12.8222 19.8457 12.8222C19.8457 12.8222 19.9784 13.2231 20.1775 13.4904Z" fill="#B57868"/>
<path d="M32.7839 14.0249C32.054 12.6217 31.9213 10.2831 32.1867 10.3499C32.7175 10.4836 35.1726 10.7508 36.8315 10.0159C38.8221 9.14722 39.8838 8.47904 40.4146 8.81313C41.2772 9.28085 41.0782 11.4858 39.0212 13.5572C37.296 15.2945 34.5754 16.2967 34.5754 16.2967C34.5754 16.2967 33.5138 15.3613 32.7839 14.0249Z" fill="#CC9687"/>
<path d="M34.5097 16.8313L34.2443 16.6308C34.1779 16.564 33.1162 15.5618 32.3863 14.2254C31.7228 13.0227 31.3247 10.6841 31.7891 10.0827C31.9219 9.88224 32.1873 9.81542 32.3863 9.88224C32.9172 10.0159 35.2396 10.2163 36.6994 9.54815C37.2302 9.28087 37.6947 9.14724 38.0928 8.94678C39.3535 8.34542 40.0834 8.07815 40.6806 8.34542C41.0788 8.54588 41.2778 8.94678 41.4105 9.48133C41.5432 10.4836 41.1451 12.154 39.4199 13.8245C37.6947 15.6286 34.9078 16.6977 34.8414 16.6977L34.5097 16.8313ZM33.2489 13.8245C33.7134 14.6931 34.377 15.4281 34.7087 15.7622C35.4386 15.4949 37.4293 14.5595 38.69 13.2231C40.0171 11.82 40.5479 10.4836 40.4152 9.68178C40.3489 9.41451 40.3489 9.28087 40.2162 9.28087C40.0171 9.21406 39.2208 9.54815 38.4909 9.88224C38.0928 10.0827 37.6283 10.2831 37.0311 10.5504C35.5713 11.1518 33.5144 11.1518 32.519 10.9513C32.519 11.5527 32.7181 12.889 33.2489 13.8245Z" fill="black"/>
<path d="M20.7745 14.025C21.5044 12.4882 21.6371 10.5504 21.3717 10.6841C20.31 11.0182 18.253 10.6173 16.5941 9.94908C14.6035 9.08045 13.5418 8.41227 13.011 8.74636C12.1484 9.21408 12.3475 11.4191 14.4044 13.4904C16.1297 15.2277 18.7175 16.3636 18.7175 16.3636C18.7175 16.3636 19.7791 15.8959 20.7745 14.025Z" fill="#CC9687"/>
<path d="M18.6511 16.7645L18.4521 16.6977C18.3857 16.6308 15.7979 15.4949 14.0063 13.6909C12.2811 11.9536 11.883 10.35 12.0157 9.34769C12.0821 8.81315 12.3475 8.47906 12.7456 8.21179C13.3428 7.8777 14.0063 8.21179 15.3334 8.81315C15.7315 9.0136 16.196 9.21406 16.7269 9.41451C18.4521 10.1495 20.31 10.4836 21.1726 10.1495C21.3717 10.0827 21.5707 10.1495 21.7698 10.35C22.1679 10.8177 21.8362 12.889 21.1726 14.2254C20.1109 16.2299 18.9166 16.6308 18.8502 16.6977L18.6511 16.7645ZM13.2764 9.0136C13.2101 9.0136 13.2101 9.0136 13.2101 9.0136C13.1437 9.08042 13.011 9.21406 13.011 9.41451C12.9447 10.2163 13.4091 11.6195 14.7362 12.9559C16.1297 14.359 18.054 15.3613 18.7175 15.6286C18.9829 15.4281 19.7128 14.9604 20.3764 13.7577C20.8408 12.8222 21.0399 11.7531 21.0399 11.1518C19.7128 11.3522 17.8549 10.8845 16.4614 10.2831C15.8643 10.0159 15.3998 9.81542 15.0016 9.61496C14.2718 9.34769 13.6082 9.0136 13.2764 9.0136Z" fill="black"/>
<path d="M14.2715 30.863C14.2715 34.0703 16.8593 36.6762 20.0443 36.6762C23.2293 36.6762 25.8172 34.0703 25.8172 30.863C25.8172 27.6558 23.4947 25.8517 20.3097 25.8517C17.1247 25.8517 14.2715 27.6558 14.2715 30.863Z" fill="#CC9687"/>
<path d="M20.044 37.1439C16.5935 37.1439 13.8066 34.2708 13.8066 30.863C13.8066 27.6558 16.4608 25.384 20.3757 25.384C24.0252 25.384 26.3476 27.5221 26.3476 30.863C26.3476 34.3376 23.4944 37.1439 20.044 37.1439ZM20.3094 26.3194C17.6552 26.3194 14.7356 27.7226 14.7356 30.863C14.7356 33.803 17.1244 36.2085 20.044 36.2085C22.9635 36.2085 25.3523 33.803 25.3523 30.863C25.3523 28.0567 23.428 26.3194 20.3094 26.3194Z" fill="black"/>
<path d="M20.3101 33.803C22.0325 33.803 23.4287 32.397 23.4287 30.6626C23.4287 28.9282 22.0325 27.5222 20.3101 27.5222C18.5877 27.5222 17.1914 28.9282 17.1914 30.6626C17.1914 32.397 18.5877 33.803 20.3101 33.803Z" fill="white"/>
<path d="M20.3097 34.2708C18.3191 34.2708 16.7266 32.6671 16.7266 30.6626C16.7266 28.6581 18.3191 27.0544 20.3097 27.0544C22.3003 27.0544 23.8928 28.6581 23.8928 30.6626C23.8928 32.6671 22.3003 34.2708 20.3097 34.2708ZM20.3097 27.9899C18.8499 27.9899 17.6555 29.1926 17.6555 30.6626C17.6555 32.1326 18.8499 33.3353 20.3097 33.3353C21.7695 33.3353 22.9639 32.1326 22.9639 30.6626C22.9639 29.1926 21.7695 27.9899 20.3097 27.9899Z" fill="black"/>
<path d="M20.3091 32.4667C21.2986 32.4667 22.1007 31.659 22.1007 30.6626C22.1007 29.6662 21.2986 28.8585 20.3091 28.8585C19.3197 28.8585 18.5176 29.6662 18.5176 30.6626C18.5176 31.659 19.3197 32.4667 20.3091 32.4667Z" fill="black"/>
<path d="M39.8172 30.3285C39.8172 33.5358 37.2293 36.1417 34.0443 36.1417C30.8593 36.1417 28.2715 33.5358 28.2715 30.3285C28.2715 27.1212 30.5939 25.3172 33.7789 25.3172C37.0303 25.2503 39.8172 27.0544 39.8172 30.3285Z" fill="#CC9687"/>
<path d="M34.044 36.6094C30.5935 36.6094 27.8066 33.7362 27.8066 30.3285C27.8066 26.9876 30.129 24.8494 33.7785 24.8494C37.6271 24.8494 40.2813 27.1212 40.2813 30.3285C40.2813 33.7362 37.4944 36.6094 34.044 36.6094ZM33.7785 25.7181C30.6599 25.7181 28.7356 27.4553 28.7356 30.2617C28.7356 33.2017 31.1244 35.6071 34.044 35.6071C36.9635 35.6071 39.3523 33.2017 39.3523 30.2617C39.3523 27.1881 36.4991 25.7181 33.7785 25.7181Z" fill="black"/>
<path d="M34.1108 33.2017C35.8332 33.2017 37.2295 31.7956 37.2295 30.0612C37.2295 28.3268 35.8332 26.9208 34.1108 26.9208C32.3885 26.9208 30.9922 28.3268 30.9922 30.0612C30.9922 31.7956 32.3885 33.2017 34.1108 33.2017Z" fill="white"/>
<path d="M34.1105 33.7362C32.1199 33.7362 30.5273 32.1326 30.5273 30.1281C30.5273 28.1235 32.1199 26.5199 34.1105 26.5199C36.1011 26.5199 37.6936 28.1235 37.6936 30.1281C37.6936 32.0658 36.1011 33.7362 34.1105 33.7362ZM34.1105 27.3885C32.6507 27.3885 31.4563 28.5913 31.4563 30.0612C31.4563 31.5312 32.6507 32.734 34.1105 32.734C35.5703 32.734 36.7647 31.5312 36.7647 30.0612C36.7647 28.5913 35.5703 27.3885 34.1105 27.3885Z" fill="black"/>
<path d="M34.1099 31.8653C35.0994 31.8653 35.9015 31.0576 35.9015 30.0612C35.9015 29.0649 35.0994 28.2571 34.1099 28.2571C33.1205 28.2571 32.3184 29.0649 32.3184 30.0612C32.3184 31.0576 33.1205 31.8653 34.1099 31.8653Z" fill="black"/>
</g>
<defs>
<clipPath id="clip0_2030_116">
<rect width="52.619" height="49.8462" fill="white" transform="translate(1 3)"/>
</clipPath>
</defs>
</svg>
