<svg width="55" height="55" viewBox="0 0 55 55" fill="none" xmlns="http://www.w3.org/2000/svg">
<g clip-path="url(#clip0_2030_113)">
<path d="M22.313 49C21.1368 48.5692 19.2797 47.8308 15.4416 44.8769C13.213 43.1539 9.80825 37.9231 9.00349 36.1385C6.83682 31.2154 7.14634 19.4615 8.19873 15.6462C8.57015 14.3539 10.1797 11.4615 10.7987 10.5385C11.6654 9.18462 13.6463 7.09232 15.4416 6.47693C17.9178 5.61539 20.1463 6.96924 20.394 8.13847C21.013 10.6615 14.4511 17.8615 17.2987 18.4154C19.3416 18.8462 22.6844 15.2769 24.7273 15.8308C26.213 16.2 26.5225 17.4923 27.3892 17.4308C27.8225 17.4308 28.9368 16.2 29.7416 15.9539C32.5892 15.0923 35.8083 18.9692 37.2321 18.5385C38.2225 18.2308 38.6559 16.8769 36.9225 14.4154C35.9321 13.0615 33.9511 9.49232 34.2606 7.89232C34.5083 6.41539 37.6654 5.92309 38.8416 6.16924C41.6892 6.66155 45.0321 10.8462 46.1463 14.9077C48.0654 21.6154 47.8797 26.6615 47.1987 30.2923C46.7654 32.7539 45.8987 35.2154 43.5463 39.6462C41.4416 43.5231 36.6749 47.2154 34.5702 48.0154C30.1749 49.7385 27.0797 50.7846 22.313 49Z" fill="white"/>
<path d="M10.3035 24.5077C10.3035 24.5077 9.87013 21.5539 10.9225 18.1077C12.1606 13.9846 14.1416 11.9539 15.4416 11.0923C17.0511 10.0462 19.0939 9.49231 19.0939 10.6615C19.0939 11.7692 18.8463 12.3846 18.413 13.1846C17.0511 15.6462 16.1225 17.9231 17.4844 18.5385C18.8463 19.1539 22.8701 15.3385 25.2844 15.8308C26.3368 16.0154 27.1416 17.5539 27.7606 17.4923C29.0606 17.3692 29.0606 15.3385 30.8558 15.8923C31.9701 16.2615 32.3416 16.4462 34.1987 17.2462C37.5416 18.7846 37.913 18.7846 38.2225 18.1692C38.8416 16.9385 37.1701 14.8462 36.5511 12.8154C35.8701 10.5385 36.1177 10.1692 37.0463 10.1077C39.213 9.98462 42.6797 12.4462 43.732 17.4923C44.2892 20.2 44.5987 21.1846 44.5368 24.1385C44.5368 24.1385 47.632 27.8308 47.632 28.3846C47.632 28.3846 46.4558 34.4769 46.3939 34.6C46.3939 34.6 43.3606 30.0462 42.432 29.1231C41.5035 28.2 39.3987 26.5385 37.1082 25.1846C35.4368 24.2 32.9606 23.2769 31.2273 23.6462C29.3701 24.0154 29.1225 25.7385 28.6273 25.9231C26.9558 26.5385 25.7177 25.4308 24.0463 24.2C21.7558 22.6 15.813 25.9231 13.1511 28.5692C9.80822 31.8923 8.32251 33.9231 8.32251 33.9231L7.33203 28.3846L10.3035 24.5077Z" fill="#868D9E"/>
<path d="M11.5429 39.7692C10.0572 37.7385 9.00484 34.6615 8.69531 33.6769C8.69531 33.6769 9.62388 31.8923 10.9239 30.7231C11.481 30.2308 13.2144 28.0154 15.5048 26.4769C18.6001 24.4462 22.6239 23.4615 23.4905 23.6462C24.9144 24.0154 25.4715 26.4154 26.8953 26.3538C28.381 26.2923 29.0001 23.5231 30.7334 23.5846C32.5286 23.6462 36.9858 24.8769 38.9667 26.3538C43.2382 29.6769 46.1477 34.3538 46.1477 34.3538C46.1477 34.3538 44.1048 40.0769 40.1429 44.0769C37.6667 46.6 35.1286 48.0154 35.1286 48.0154C35.1286 48.0154 34.7572 45.3077 34.5096 42.7231C34.2001 40.1385 32.4667 36.6923 31.1667 35.8923C28.5048 34.2923 27.5144 34.0462 25.1001 35.0923C23.0572 35.9538 21.3858 38.0462 20.8286 40.7538C20.4572 42.5385 20.1477 45.9231 20.3334 47.7077C20.2715 47.7077 15.9382 45.9231 11.5429 39.7692Z" fill="#E6E6E6"/>
<path d="M26.5232 50.1077C22.9947 49.9231 20.5185 48.6923 17.9185 47.1538C15.628 45.8 12.5947 42.3539 10.7994 39.5846C8.63276 36.2 7.33276 32.5692 7.08514 28.8154C6.83752 24.6923 7.27086 18.5385 8.07562 15.7077C8.63276 13.6769 11.109 7.52308 15.1947 6.1077C16.928 5.49231 18.6613 5.8 20.3947 7.03077C21.8185 8.01539 20.3328 10.9692 18.847 13.8C17.9804 15.4615 16.9899 17.3077 17.2375 17.9231C17.2375 17.9846 17.2994 17.9846 17.2994 17.9846C18.2899 18.4769 19.5899 17.6769 20.8899 16.8769C21.6328 16.4462 22.4375 15.9538 23.2423 15.6462C24.6042 15.1538 25.6566 15.1538 26.6471 16.5692C26.8947 16.9385 27.1423 17.0615 27.5137 17.0615C28.0709 17.0615 28.3804 16.5692 28.3804 16.5692C29.3709 15.0923 30.4232 15.1538 31.7851 15.6462C32.5899 15.9538 33.3947 16.3846 34.1375 16.8769C35.4994 17.6769 36.7375 18.4154 37.728 17.9846C37.728 17.9846 37.7899 17.9846 37.7899 17.9231C37.9756 17.3077 36.9851 15.4615 36.1804 13.8C34.6947 10.9692 33.209 8.07693 34.6328 7.03077C36.3661 5.8 38.1613 5.49231 39.8328 6.1077C43.9185 7.58462 46.3947 13.6769 46.9518 15.7077C47.7566 18.5385 48.1899 24.6923 47.8804 28.8154C47.6328 32.5692 46.3947 36.2 44.1661 39.5846C42.3709 42.2923 39.3994 45.8 37.047 47.1538C34.447 48.6923 31.9709 49.9231 28.5042 50.1077H26.5232ZM16.8661 6.47693C16.3709 6.47693 15.8756 6.53846 15.3804 6.72308C11.9137 7.95385 9.37562 13.4308 8.69467 15.8308C7.95181 18.6615 7.58038 24.6923 7.828 28.8154C8.07562 32.4462 9.31372 35.9538 11.4185 39.2154C13.0899 41.8 16.0613 45.2462 18.2899 46.5385C20.8899 48.0769 23.1804 49.2462 26.5232 49.4308H28.4423C31.7851 49.2462 34.0756 48.0769 36.6756 46.5385C39.2756 44.7538 41.8137 41.8 43.547 39.2154C45.7137 35.9538 46.8899 32.4462 47.1375 28.8154C47.4471 24.6923 47.0137 18.6615 46.2709 15.9538C45.5899 13.4923 43.1137 8.07693 39.5851 6.84616C38.0994 6.29231 36.5518 6.6 35.0042 7.7077C34.0756 8.38462 35.6232 11.3385 36.7375 13.5538C37.9756 15.8923 38.7185 17.3692 38.409 18.2308C38.347 18.4769 38.1613 18.6 37.9756 18.7231C36.6137 19.3385 35.128 18.4769 33.7042 17.6154C32.9613 17.1846 32.2185 16.6923 31.4756 16.4462C30.2375 15.8923 29.6185 16.0769 28.9994 17.0615C28.8137 17.3692 28.3185 17.8 27.5756 17.8615C26.9566 17.8615 26.4613 17.6154 26.0899 17.0615C25.4709 16.0769 24.8518 15.9539 23.5518 16.3846C22.809 16.6308 22.0661 17.1231 21.3232 17.5538C19.8994 18.4154 18.4137 19.2769 17.0518 18.6615C16.8661 18.5385 16.6804 18.4154 16.6185 18.1692C16.309 17.3077 17.0518 15.8308 18.2899 13.4923C19.4661 11.2769 21.0137 8.26154 20.0851 7.64616C18.909 6.84616 17.9185 6.47693 16.8661 6.47693Z" fill="black"/>
<path d="M26.5229 50.2923C22.9325 50.1077 20.4563 48.8154 17.8563 47.2769C15.5658 45.9231 12.5325 42.4154 10.7372 39.6462C8.50864 36.2615 7.27055 32.5692 7.02293 28.8154C6.7134 24.6308 7.14674 18.5385 7.88959 15.7077C8.44674 13.6769 10.9848 7.4 15.0705 5.92308C16.8039 5.30769 18.661 5.61539 20.4563 6.84616C22.0039 7.95385 20.4563 10.9077 18.9705 13.8C18.2277 15.2769 17.1753 17.2462 17.361 17.8C18.2896 18.2308 19.4658 17.4923 20.7658 16.7538L20.8277 16.6923C21.5705 16.2615 22.3753 15.7692 23.1801 15.5231C24.4182 15.0923 25.6563 14.9077 26.7705 16.5077C26.9563 16.8154 27.2039 16.9385 27.5134 16.9385C28.0086 16.9385 28.2563 16.5692 28.2563 16.5077C29.3086 14.9077 30.6086 15.0923 31.8467 15.5231C32.6515 15.8308 33.4563 16.2615 34.261 16.7538C35.561 17.5538 36.7991 18.2308 37.7277 17.8C37.9134 17.2462 36.861 15.2769 36.1182 13.8L35.9944 13.6154C34.4467 10.7846 33.0229 8.01539 34.5705 6.90769C36.3658 5.67693 38.161 5.36923 39.9563 5.98462C43.9801 7.4 46.5801 13.6154 47.1372 15.6462C47.942 18.4769 48.3753 24.6308 48.0658 28.8154C47.8182 32.5692 46.5182 36.2615 44.3515 39.6462C42.5563 42.4154 39.5229 45.9231 37.2325 47.2769C34.5705 48.8154 32.1563 50.1077 28.5658 50.2923H26.5229V50.2923ZM26.5229 49.9846H28.5039C31.9705 49.8 34.3848 48.5692 36.9848 47.0308C39.2753 45.6769 42.2467 42.2308 44.042 39.5231C46.2086 36.1385 47.4467 32.5692 47.7563 28.8154C48.0039 24.6923 47.5705 18.5385 46.8277 15.7692C46.2705 13.7385 43.7944 7.64616 39.8325 6.23077C38.161 5.61539 36.4277 5.92308 34.7563 7.15385C33.4563 8.07693 34.8801 10.9077 36.3039 13.6769L36.3658 13.7385C37.4801 15.8308 38.2229 17.3692 38.0372 17.9846C38.0372 18.0462 37.9753 18.1077 37.8515 18.1692C36.7991 18.6615 35.4991 17.9231 34.1372 17.0615C33.3944 16.6308 32.5896 16.1385 31.7848 15.8923C30.4848 15.4 29.4944 15.4 28.5658 16.8154C28.5658 16.8154 28.1944 17.3077 27.5753 17.3692C27.2039 17.3692 26.8325 17.1846 26.5848 16.8154C25.6563 15.4615 24.6658 15.4615 23.3658 15.9538C22.561 16.2 21.8182 16.6923 21.0753 17.1231H21.0134C19.6515 17.9231 18.3515 18.7231 17.2372 18.2308C17.1753 18.1692 17.1134 18.1077 17.1134 18.0462C16.9277 17.4308 17.6705 15.8923 18.7848 13.8C20.1467 11.1538 21.6944 8.2 20.3944 7.21539C18.661 6.04616 16.9896 5.73846 15.3182 6.29231C11.2325 7.64616 8.75626 13.7385 8.19912 15.7692C7.45626 18.5385 7.02293 24.6923 7.27055 28.8154C7.51817 32.5077 8.75626 36.1385 10.9848 39.5231C12.7801 42.2308 15.7515 45.6769 18.042 47.0308C20.642 48.5077 23.0563 49.8 26.5229 49.9846ZM26.5229 49.5539C23.1182 49.3692 20.8277 48.2 18.1658 46.6615C15.9372 45.3692 12.9658 41.9231 11.2325 39.2769C9.18959 36.0154 7.9515 32.4462 7.70388 28.8154C7.39436 24.6923 7.82769 18.6 8.57055 15.8308C9.2515 13.3692 11.7896 7.83077 15.3182 6.6C16.8658 6.04616 18.4753 6.35385 20.0848 7.46154C21.0753 8.13846 19.8991 10.6 18.3515 13.4923C17.1134 15.8308 16.4325 17.2462 16.6801 18.0462C16.742 18.2308 16.8658 18.3538 17.0515 18.4769C18.2896 19.0923 19.7753 18.2308 21.1372 17.3692L21.1991 17.3077C21.942 16.8769 22.6848 16.4462 23.4277 16.2C24.7896 15.7077 25.4705 15.8923 26.1515 16.9385C26.461 17.4308 26.9563 17.6769 27.5134 17.6769C28.1944 17.6769 28.6896 17.1846 28.8134 16.9385C29.4944 15.8923 30.1753 15.7077 31.5372 16.2C32.2801 16.4462 33.0229 16.8769 33.7658 17.3077H33.8277C35.2515 18.1692 36.6753 19.0308 37.9753 18.4154C38.161 18.3538 38.2848 18.1692 38.3467 17.9846C38.5944 17.2462 37.8515 15.7692 36.6753 13.4308L36.6134 13.3692C35.3753 11.0308 33.9515 8.07693 35.0039 7.33846C36.6134 6.23077 38.161 5.92308 39.7086 6.47693C43.2372 7.76923 45.7753 13.2462 46.4563 15.7077C47.1991 18.4769 47.6325 24.5077 47.3229 28.6308C47.0753 32.3231 45.8372 35.8308 43.7325 39.1538C42.061 41.8 39.0277 45.2462 36.7991 46.5385C34.1372 48.0769 31.9705 49.3692 28.6277 49.5539H27.142H26.5229ZM16.8658 6.66154C16.3705 6.66154 15.9372 6.72308 15.442 6.90769C12.0372 8.13846 9.56102 13.5538 8.88007 15.9538C8.13721 18.6615 7.70388 24.6923 8.0134 28.7538C8.26102 32.3846 9.43721 35.8308 11.6039 39.0923C13.2753 41.6769 16.2467 45.1231 18.4134 46.3538C21.0134 47.8923 23.3039 49.0615 26.5848 49.1846H28.5039C31.7848 49 34.0753 47.8308 36.6753 46.3538C38.842 45.0615 41.8134 41.6769 43.4848 39.0923C45.5896 35.8308 46.8277 32.3231 47.0753 28.7538C47.3848 24.6308 46.9515 18.6615 46.2086 15.8923C45.5277 13.4923 43.0515 8.07693 39.6467 6.84616C38.2848 6.35385 36.9229 6.6 35.4991 7.46154C35.3753 7.52308 35.2515 7.58462 35.1896 7.64616C35.0658 7.76923 35.0039 7.89231 35.0039 8.07693C34.942 9.12308 36.0563 11.5231 36.9848 13.1231L37.0467 13.2462C38.3467 15.7077 39.0277 17.1231 38.7182 18.0462C38.6563 18.2923 38.4705 18.4769 38.2229 18.6C36.7991 19.2769 35.3134 18.3538 33.8277 17.4923H33.7658C33.0229 17.0615 32.342 16.6308 31.5991 16.3846C30.361 15.9538 29.8039 16.0769 29.2467 17C29.061 17.3077 28.5039 17.8 27.6991 17.8615C27.0801 17.8615 26.461 17.5538 26.0896 17C25.4705 16.0769 24.9753 15.9538 23.7372 16.3846C22.9944 16.6308 22.3134 17.0615 21.5705 17.4923H21.5086C20.0229 18.3538 18.4753 19.2769 17.1134 18.6C16.8658 18.4769 16.6801 18.2923 16.6182 18.0462C16.3086 17.1231 17.0515 15.6462 18.2896 13.2462C19.0325 11.7692 20.2086 9.55385 20.3325 8.38462C20.3325 8.2 20.3325 8.01539 20.2705 7.89231C20.2086 7.76923 20.1467 7.64616 20.0848 7.58462C18.8467 7.03077 17.8563 6.66154 16.8658 6.66154Z" fill="black"/>
<path d="M7.45597 28.7539C7.39406 28.7539 7.33216 28.7539 7.27025 28.6923C7.08454 28.5692 7.02263 28.3846 7.14644 28.2C7.27025 28.0154 9.99406 23.5846 13.3988 20.8154C16.0607 18.7231 18.1655 18.1692 18.2274 18.1077C18.4131 18.0462 18.5988 18.1692 18.6607 18.3539C18.7226 18.5385 18.5988 18.7231 18.4131 18.7846C18.4131 18.7846 16.3703 19.3385 13.8322 21.3692C10.4893 24.0154 7.76549 28.5077 7.76549 28.5692C7.70359 28.6923 7.57978 28.7539 7.45597 28.7539Z" fill="black"/>
<path d="M7.45677 28.8154C7.39487 28.8154 7.33296 28.8154 7.20915 28.7538C7.08534 28.6923 7.02344 28.5692 7.02344 28.5077C7.02344 28.3846 7.02344 28.2615 7.08534 28.2C7.08534 28.1385 9.87106 23.6462 13.3377 20.8154C15.8139 18.8462 17.7949 18.2308 18.1663 18.1077C18.2901 18.1077 18.4139 18.1077 18.4758 18.1692C18.5996 18.2308 18.6615 18.2923 18.6615 18.4154C18.6615 18.5385 18.6615 18.6615 18.5996 18.7231C18.5377 18.8462 18.4758 18.9077 18.352 18.9077C18.1663 18.9692 16.1853 19.5846 13.833 21.4308C10.6139 24.0769 7.8901 28.5692 7.8282 28.6308C7.76629 28.7539 7.64249 28.8154 7.45677 28.8154ZM18.352 18.2308H18.2901C17.9187 18.3539 15.9377 18.9692 13.5234 20.9385C10.0568 23.7077 7.33296 28.2 7.27106 28.2615C7.20915 28.3231 7.20915 28.3846 7.20915 28.4462C7.20915 28.5077 7.27106 28.5692 7.33296 28.6308C7.45677 28.6923 7.64249 28.6308 7.70439 28.5692C7.70439 28.5077 10.4901 24.0154 13.833 21.3692C16.2472 19.4615 18.2282 18.8462 18.4139 18.7846C18.4758 18.7846 18.5377 18.7231 18.5996 18.6615C18.6615 18.6 18.6615 18.5385 18.5996 18.4769C18.5377 18.2923 18.4758 18.2308 18.352 18.2308Z" fill="black"/>
<path d="M47.5099 28.7539C47.3861 28.7539 47.2623 28.6923 47.2004 28.5692C47.2004 28.5077 44.4147 24.0154 41.1337 21.3692C38.5956 19.3385 36.6147 18.8462 36.5528 18.7846C36.3671 18.7231 36.2433 18.5385 36.3052 18.3539C36.3671 18.1692 36.5528 18.0462 36.7385 18.1077C36.8004 18.1077 38.9052 18.6615 41.5671 20.8154C44.9718 23.5231 47.6956 27.9539 47.8195 28.2C47.9433 28.3846 47.8814 28.5692 47.6956 28.6923C47.6337 28.7539 47.5718 28.7539 47.5099 28.7539Z" fill="black"/>
<path d="M47.509 28.8154C47.3852 28.8154 47.1995 28.7539 47.1376 28.6308C47.1376 28.5692 44.3519 24.0769 41.0709 21.4923C38.6566 19.5846 36.7376 19.0308 36.5519 18.9692C36.3042 18.9077 36.1804 18.6615 36.2423 18.4769C36.2423 18.3539 36.3661 18.2923 36.4281 18.2308C36.5519 18.1692 36.6138 18.1692 36.7376 18.1692C37.109 18.2923 39.09 18.9077 41.5661 20.8769C44.8471 23.5231 47.509 27.7692 47.8185 28.2615C47.9423 28.4462 47.8804 28.7539 47.6947 28.8769C47.6947 28.7539 47.5709 28.8154 47.509 28.8154ZM36.6757 18.2308C36.6138 18.2308 36.5519 18.2308 36.5519 18.2923C36.49 18.3539 36.4281 18.4154 36.4281 18.4769C36.3661 18.6 36.49 18.7846 36.6138 18.7846C36.8614 18.8462 38.7804 19.4615 41.1947 21.3692C44.5376 24.0154 47.2614 28.5077 47.3233 28.5692C47.3852 28.6308 47.4471 28.6923 47.5709 28.6923C47.6328 28.6923 47.6947 28.6923 47.6947 28.6308C47.8185 28.5692 47.8804 28.3846 47.7566 28.2615C47.4471 27.7692 44.7852 23.5231 41.5042 20.9385C39.0281 18.9692 37.109 18.3539 36.6757 18.2308C36.6757 18.2308 36.7376 18.2308 36.6757 18.2308Z" fill="black"/>
<path d="M8.94141 33.4923C8.94141 33.4923 10.5509 31.1538 12.1605 29.4923C12.9652 28.6923 14.8843 27.0308 15.3795 26.7231C17.5462 25.3077 20.6414 24.2 21.8176 23.8923C22.6224 23.7077 23.489 23.4 24.17 23.8923C24.8509 24.3231 25.5319 25.4308 26.089 25.9846C27.2033 27.0923 27.7605 26.5385 28.689 25.5538C29.0605 25.1846 29.6176 24.2 30.4843 23.8923C31.5366 23.5231 33.0843 23.6462 34.1366 24.0769C35.9938 24.8769 37.7271 25.1231 39.2128 26.3538C39.7081 26.7846 41.3176 28.0154 42.37 29.1231C44.2271 31.0923 45.8366 34.4769 45.8366 34.4769C45.8366 34.4769 45.4652 35.5846 44.97 36.5692C44.2271 38.1692 43.0509 39.8923 43.0509 39.8923C43.0509 39.8923 41.8128 41.6154 40.6986 42.8462C39.6462 44.0769 38.2843 45.4308 37.1081 46.2308C36.3033 46.7231 35.0652 47.4 35.0652 47.4C35.0652 47.4 34.6319 43.8308 33.8271 40.5077C33.27 38.1692 32.0938 36.0154 30.5462 35.3385C26.7081 33.7385 23.2414 35.8923 22.1271 37.5538C20.9509 39.3385 20.1462 46.7846 20.1462 47.5846C20.1462 47.5846 18.289 46.6 17.4843 45.9846C16.4319 45.1231 15.6271 44.3846 15.07 43.7692C14.0176 42.6615 12.0985 40.3231 11.4176 39.0923C10.8605 38.2923 10.1176 36.9385 9.86998 36.2615C9.00331 34.1692 8.94141 33.4923 8.94141 33.4923Z" fill="#585D72"/>
<path d="M46.023 34.7231C45.7135 34.1692 43.0516 29.4308 38.8421 26.6615C35.6849 24.5692 31.9706 23.8308 30.7326 23.9538C30.423 23.9538 29.9897 24.5692 29.5564 25.0615C28.9373 25.8615 28.1945 26.7231 27.2659 26.7231C26.2754 26.7231 25.5326 25.8 24.9135 25C24.5421 24.5077 24.1087 24.0154 23.8611 24.0154C22.623 23.9538 18.9087 24.7538 15.8135 26.9692C11.9754 29.6769 9.43731 32.8154 8.81827 34.1692L8.19922 33.8615C8.94208 32.3846 11.4802 29.2461 15.4421 26.4154C18.723 24.0769 22.5611 23.2769 23.923 23.3385C24.5421 23.3385 24.9754 23.9538 25.4706 24.6308C26.0278 25.3077 26.5849 26.1077 27.2659 26.0461C27.823 26.0461 28.4421 25.3077 28.9992 24.6308C29.5564 23.9538 30.0516 23.3385 30.6706 23.2769C32.0326 23.1538 35.8706 23.8923 39.2135 26.1077C43.423 28.9385 46.0849 33.4923 46.5802 34.4154L46.023 34.7231Z" fill="black"/>
<path d="M45.9619 34.8461C45.7762 34.6 43.0524 29.6154 38.7809 26.7231C35.6238 24.6308 31.9095 23.9538 30.7333 24.0154C30.4857 24.0154 29.9286 24.6308 29.619 25.0615C28.9381 25.8615 28.1952 26.7231 27.2666 26.7231C26.2143 26.7231 25.5333 25.8 24.8524 25C24.4809 24.5692 24.1095 24.0154 23.8619 24.0154C22.6857 23.9538 18.9714 24.7538 15.8762 26.9692C12.0381 29.6769 9.56189 32.8154 8.88093 34.1077L8.81903 34.1692L8.07617 33.8L8.13808 33.7385C8.88093 32.2615 11.419 29.0615 15.3809 26.2308C18.6619 23.8923 22.5619 23.0923 23.8619 23.1538C24.4809 23.2154 24.9762 23.7692 25.4714 24.4461L25.5333 24.5077C26.0286 25.1231 26.6476 25.8615 27.2047 25.8615C27.7619 25.8615 28.319 25.1231 28.8762 24.5077C29.4952 23.7692 29.9905 23.2154 30.6095 23.1538C31.9714 23.0308 35.8095 23.7692 39.2143 25.9846C43.6095 28.8769 46.3333 33.8 46.6428 34.3538L46.7047 34.4154L45.9619 34.8461ZM30.9809 23.8923C32.4047 23.8923 35.9333 24.6308 38.9047 26.6C42.9905 29.3077 45.7143 33.9846 46.0238 34.6L46.519 34.3538C46.0857 33.5538 43.3619 28.9385 39.2143 26.1077C35.8714 23.8923 32.0333 23.1538 30.7333 23.2769C30.1762 23.3385 29.6809 23.8923 29.1238 24.5692C28.5666 25.2461 27.9476 26.1077 27.3286 26.1077C27.3286 26.1077 27.3286 26.1077 27.2666 26.1077C26.5857 26.1077 26.0905 25.3077 25.5333 24.6308L25.4095 24.5077C24.9143 23.8308 24.4809 23.4 23.9238 23.4C22.5619 23.3385 18.8476 24.1385 15.5666 26.4769C11.6666 29.2461 9.19046 32.2 8.4476 33.7385L8.88093 33.9231C9.62379 32.5692 12.1 29.4308 15.8762 26.7846C18.9095 24.6923 22.4381 23.8308 23.8 23.8308C23.8619 23.8308 23.9238 23.8308 23.9238 23.8308C24.2333 23.8308 24.6666 24.3846 25.0381 24.8769C25.6571 25.6769 26.3381 26.5385 27.3286 26.5385C28.1952 26.5385 28.8762 25.6769 29.5571 24.9385C30.0524 24.3231 30.4857 23.8308 30.7952 23.8308C30.7952 23.8923 30.8571 23.8923 30.9809 23.8923Z" fill="black"/>
<path d="M35.4994 48.0154H34.8184C34.8184 47.9539 35.0041 40.0769 31.5375 36.5692C30.4232 35.4615 29.1232 34.9077 27.5756 34.9077C25.9042 34.9077 24.5422 35.5231 23.428 36.6308C20.147 40.1385 20.7042 47.7692 20.7042 47.8308L20.0232 47.8923C20.0232 47.5846 19.4661 39.8923 22.9327 36.1385C24.1708 34.8462 25.7184 34.1692 27.5756 34.1692C29.3089 34.1692 30.8565 34.7846 32.0946 36.0154C35.6851 39.7692 35.4994 47.7077 35.4994 48.0154Z" fill="black"/>
<path d="M35.5609 48.0769H34.6942V48.0154C34.6942 47.2154 34.6942 39.9539 31.4132 36.6308C30.3609 35.5231 28.999 34.9692 27.4513 34.9692C25.8418 34.9692 24.418 35.5231 23.3656 36.6923C20.1466 40.1385 20.6418 47.7692 20.6418 47.8308V47.8923L19.7752 47.9539V47.8923C19.7752 47.5846 19.218 39.8308 22.6847 36.0769C23.9228 34.7846 25.4704 34.1077 27.3894 34.1077C29.1847 34.1077 30.6704 34.7231 31.9085 36.0154C35.6847 39.8308 35.4371 47.8923 35.4371 48.0154L35.5609 48.0769ZM34.8799 47.8923H35.4371C35.4371 47.0308 35.4371 39.6462 31.9704 36.0769C30.7942 34.8462 29.2466 34.2308 27.5132 34.2308C25.6561 34.2308 24.1704 34.9692 22.9942 36.2615C19.6513 39.8308 20.0228 46.9077 20.0847 47.7692L20.5799 47.7077C20.518 46.9077 20.2085 39.8923 23.3656 36.5077C24.4799 35.3385 25.8418 34.7231 27.5752 34.7231C29.1847 34.7231 30.5466 35.2769 31.599 36.3846C34.818 39.8308 34.8799 46.8462 34.8799 47.8923Z" fill="black"/>
<path d="M24.046 36.0154L23.5508 35.5231C24.2936 34.7846 25.9651 32.7538 25.9032 29.8615C25.9032 27.7077 24.7889 24.8154 24.7889 24.8154L25.4698 24.5692C25.5317 24.6923 26.5841 27.5846 26.5841 29.8615C26.7079 33 24.8508 35.2154 24.046 36.0154Z" fill="black"/>
<path d="M24.0468 36.1385L23.4277 35.5231L23.4896 35.4615C24.2325 34.7231 25.9039 32.6923 25.842 29.8615C25.842 28.0769 25.0992 25.8 24.7896 24.8769C24.7896 24.8154 24.7896 24.8154 24.7896 24.8154V24.7538L25.4087 24.4462L25.7182 24.7538C25.9039 25.3077 26.7706 27.7077 26.7706 29.8C26.7706 33.0615 24.9134 35.2769 24.0468 36.1385ZM23.6754 35.5846L24.0468 35.9538C24.8515 35.0923 26.5849 32.9385 26.523 29.9231C26.523 27.8923 25.6563 25.3692 25.4087 24.7538L24.9134 24.9385C25.223 25.8615 25.9658 28.1385 25.9658 29.9846C26.0277 32.6923 24.4182 34.7846 23.6754 35.5846Z" fill="black"/>
<path d="M30.857 36.0154C30.7332 35.8923 28.4428 33.6769 28.3809 29.9231C28.3809 27.6462 29.557 24.1385 29.619 24.0154L30.2999 24.2615C30.2999 24.3231 29.1237 27.8308 29.1237 29.9846C29.1856 33.4308 31.2904 35.5231 31.3523 35.5846L30.857 36.0154Z" fill="black"/>
<path d="M30.8565 36.0769C30.7945 36.0154 28.3803 33.7385 28.3184 29.8616C28.3184 27.6462 29.3707 24.3231 29.5565 23.8923V23.8308H29.6184L30.3612 24.0769V24.1385C30.2993 24.2615 29.185 27.7077 29.185 29.8C29.2469 32.4462 30.2993 34.1077 30.9803 34.8462C31.166 35.0308 31.3517 35.2769 31.4136 35.3385C31.4755 35.4 31.6612 35.5846 31.6612 35.5846L31.4755 35.7077L30.8565 36.0769ZM29.6803 24.0769C29.4945 24.6923 28.5041 27.8308 28.5041 29.9231C28.566 33.3692 30.5469 35.5231 30.9184 35.8923L31.2898 35.5231C30.9184 35.0923 29.1231 33.1231 29.0612 29.9231C29.0612 27.9539 30.0517 24.8154 30.2374 24.2615L29.6803 24.0769Z" fill="black"/>
<path d="M27.0179 45.3692C26.6464 45.3692 26.3369 45.3077 25.9655 45.1231C24.7893 44.6308 24.3559 43.2769 24.3559 43.2154C24.294 43.0308 24.4179 42.8462 24.6036 42.7846C24.7893 42.7231 24.975 42.8462 25.0369 43.0308C25.0369 43.0308 25.4083 44.1385 26.275 44.5077C26.894 44.7539 27.8226 44.8769 28.5036 43.8923C28.6274 43.7077 28.8131 43.7077 28.9988 43.8308C29.1845 43.9539 29.1845 44.1385 29.0607 44.3231C28.5036 45 27.8226 45.3692 27.0179 45.3692Z" fill="black" stroke="black" stroke-width="0.25" stroke-miterlimit="10"/>
<path d="M20.8897 35.3385C22.004 34.5385 23.4897 33.3077 23.923 32.2615C24.4183 31.1538 24.1087 29.6154 23.4897 28.9385C22.8706 28.2615 20.3945 26.6 17.2992 28.5077C14.6373 30.1692 14.2659 34.1077 15.1326 35.8923C15.8135 37.3077 17.1135 37.8615 17.8564 37.6154C18.723 37.3692 19.5278 36.3231 20.8897 35.3385Z" fill="white"/>
<path d="M17.4862 38.0462C16.5576 38.0462 15.4433 37.3692 14.8243 36.0769C13.8957 34.1077 14.3291 29.9846 17.1148 28.2C20.21 26.2923 22.81 27.6462 23.7386 28.6923C24.4814 29.4923 24.7291 31.1539 24.2338 32.3846C23.8624 33.3077 22.7481 34.4154 21.0767 35.6462C20.5195 36.0154 20.0862 36.4462 19.6529 36.8154C19.0338 37.3692 18.4767 37.8615 17.9195 38.0462C17.7957 38.0462 17.6719 38.0462 17.4862 38.0462ZM20.2719 27.9539C19.4672 27.9539 18.5386 28.2 17.5481 28.8154C15.1338 30.2923 14.6386 33.9846 15.5052 35.7692C16.1243 37.0615 17.2386 37.4923 17.7957 37.3077C18.2291 37.1846 18.7243 36.7538 19.2814 36.2615C19.7148 35.8923 20.21 35.4615 20.7672 35.0308C22.3148 33.9231 23.3672 32.8769 23.6767 32.0769C24.11 31.0308 23.8624 29.6769 23.3052 29.1846C23.2433 29.1231 22.1291 27.9539 20.2719 27.9539Z" fill="black"/>
<path d="M17.4858 38.1077C16.6191 38.1077 15.443 37.4923 14.762 36.0769C13.7715 34.0462 14.2668 29.8615 17.1144 28.1385C20.2715 26.2308 22.8715 27.5846 23.862 28.6308C24.6668 29.4308 24.9144 31.1539 24.3572 32.3846C23.9239 33.3692 22.8715 34.4769 21.1382 35.6462C20.6429 36.0154 20.2096 36.3846 19.7763 36.7539L19.5906 36.9385C18.9715 37.4923 18.5382 37.8615 17.981 38.0462C17.8572 38.1077 17.6715 38.1077 17.4858 38.1077ZM20.2715 27.3385C19.343 27.3385 18.2906 27.5846 17.1763 28.2615C14.3906 29.9846 13.9572 34.0462 14.8858 36.0154C15.5049 37.3692 16.6191 37.9231 17.4858 37.9231C17.6715 37.9231 17.7953 37.9231 17.9191 37.8615C18.4763 37.6769 19.0334 37.2462 19.5906 36.6923L19.6525 36.6308C20.0239 36.2615 20.4572 35.8923 21.0144 35.5231C22.6858 34.2923 23.7382 33.2462 24.1715 32.3231C24.6668 31.1539 24.4191 29.4923 23.6763 28.7539C23.1191 28.1385 21.881 27.3385 20.2715 27.3385ZM17.4858 37.4308C16.8668 37.4308 15.9382 36.9385 15.381 35.8308C14.5144 34.0462 15.0096 30.2923 17.4239 28.7539C18.3525 28.2 19.281 27.8923 20.2096 27.8923C22.0049 27.8923 23.181 29 23.3049 29.1231C23.862 29.6769 24.1096 31.0923 23.6763 32.1385C23.3049 32.9385 22.3144 33.9846 20.7049 35.1539C20.1477 35.5846 19.6525 36.0154 19.2191 36.3846C18.662 36.9385 18.1668 37.3077 17.7334 37.4308C17.7334 37.4308 17.6096 37.4308 17.4858 37.4308ZM20.2715 28.0154C19.4049 28.0154 18.4763 28.3231 17.5477 28.8769C15.1953 30.3539 14.7001 33.9846 15.5049 35.7077C16.1239 36.9385 17.1763 37.3692 17.7334 37.1846C18.1668 37.0615 18.6001 36.6308 19.1572 36.1385C19.5906 35.7692 20.0858 35.3385 20.643 34.9077C22.1906 33.8 23.181 32.7539 23.5525 32.0154C23.9858 31.0308 23.7382 29.6769 23.181 29.1846C23.181 29.1846 22.0049 28.0154 20.2715 28.0154Z" fill="black"/>
<path d="M19.6519 34.0462C20.575 34.0462 21.3233 33.3023 21.3233 32.3846C21.3233 31.467 20.575 30.7231 19.6519 30.7231C18.7288 30.7231 17.9805 31.467 17.9805 32.3846C17.9805 33.3023 18.7288 34.0462 19.6519 34.0462Z" fill="black"/>
<path d="M23.9238 35.7077C23.9238 35.7077 24.7905 37.6154 27.3286 37.6154C30.1762 37.6154 30.7953 35.5846 30.7953 35.5846C30.7953 35.5846 29.6191 34.6615 27.4524 34.5385C25.6572 34.4769 23.9238 35.7077 23.9238 35.7077Z" fill="#E6ECEC"/>
<path d="M27.3902 37.9846C24.6045 37.9846 23.6759 35.9538 23.614 35.8923L23.4902 35.6461L23.7379 35.4615C23.7998 35.4 25.595 34.1077 27.4521 34.2308C29.6807 34.3538 30.9807 35.3385 30.9807 35.4L31.1664 35.5231L31.1045 35.7692C31.1045 35.8308 30.4236 37.9846 27.3902 37.9846ZM24.4188 35.8308C24.7283 36.3231 25.595 37.2461 27.3902 37.2461C29.3712 37.2461 30.114 36.2 30.3617 35.7077C29.9283 35.4615 28.9379 34.9077 27.4521 34.8461C26.1521 34.8461 24.914 35.5231 24.4188 35.8308Z" fill="black"/>
<path d="M27.3896 38.0461C24.542 38.0461 23.5515 35.8923 23.5515 35.8923L23.4277 35.5846L23.7373 35.4C23.7373 35.4 25.5325 34.0461 27.5134 34.1692C29.8658 34.2923 31.1039 35.3385 31.1039 35.3385L31.3515 35.5231L31.2277 35.7692C31.1658 36.0154 30.3611 38.0461 27.3896 38.0461ZM23.6134 35.6461L23.6754 35.8308C23.6754 35.8308 24.6039 37.9231 27.3277 37.9231V37.9846V37.9231C30.2373 37.9231 30.9182 35.9538 31.042 35.7077L31.1039 35.5231L30.9801 35.4C30.9801 35.4 29.742 34.3538 27.4515 34.2923C25.5325 34.2308 23.7992 35.5231 23.7373 35.5231L23.6134 35.6461ZM27.3896 37.3692C25.5325 37.3692 24.6658 36.3231 24.3563 35.8923L24.2944 35.8308L24.3563 35.7692C24.9754 35.4 26.2134 34.7846 27.4515 34.8461C28.9373 34.9077 29.9277 35.4 30.423 35.7077L30.4849 35.7692H30.423C30.1754 36.2615 29.4325 37.3692 27.3896 37.3692ZM24.542 35.8923C24.8515 36.3231 25.7182 37.2461 27.3896 37.2461C29.1849 37.2461 29.9896 36.3846 30.2992 35.8308C29.8039 35.5231 28.8754 35.0923 27.4515 35.0308C26.2134 34.9692 25.0373 35.5846 24.542 35.8923Z" fill="black"/>
<path d="M34.1988 35.2154C33.0845 34.4154 31.5988 33.1846 31.1655 32.1385C30.6702 31.0308 30.9798 29.4923 31.5988 28.8154C32.2179 28.1385 34.694 26.4769 37.7893 28.3846C40.4512 30.0462 40.8226 33.9846 39.9559 35.7692C39.275 37.1846 37.975 37.7385 37.2321 37.4923C36.3655 37.2462 35.5607 36.2 34.1988 35.2154Z" fill="white"/>
<path d="M37.6043 37.9231C37.4186 37.9231 37.2948 37.9231 37.109 37.8615C36.49 37.6769 35.9948 37.1846 35.3757 36.6308C34.9424 36.2615 34.509 35.8308 33.9519 35.4615C32.2186 34.2308 31.1662 33.1231 30.7948 32.2C30.2995 31.0308 30.5471 29.3077 31.29 28.5077C32.2186 27.5231 34.8805 26.1692 37.9138 28.0154C40.7614 29.7385 41.1948 33.9231 40.2043 35.8923C39.6471 37.3077 38.5329 37.9231 37.6043 37.9231ZM34.3852 34.9077C34.9424 35.3385 35.4376 35.7692 35.8709 36.1385C36.4281 36.6308 36.9233 37.0615 37.3567 37.1846C37.9138 37.3692 39.0281 36.9385 39.6471 35.6462C40.5138 33.8615 40.0186 30.1692 37.6043 28.6923C34.1995 26.6 31.8471 29 31.8471 29.0615C31.3519 29.6154 31.0424 30.9692 31.4757 31.9538C31.7852 32.7538 32.8376 33.8 34.3852 34.9077Z" fill="black"/>
<path d="M37.6036 38.0462C37.4179 38.0462 37.2322 38.0461 37.1084 37.9846C36.5512 37.8 35.9941 37.3692 35.4369 36.8154L35.3131 36.6923C34.9417 36.3231 34.5084 35.9538 33.9512 35.5846C32.2179 34.3538 31.1655 33.2462 30.7322 32.3231C30.2369 31.0923 30.4226 29.3692 31.2274 28.5692C32.2179 27.5846 34.8798 26.1692 37.975 28.0769C40.8226 29.8615 41.256 34.0462 40.3274 36.0154C39.7084 37.3692 38.4703 38.0462 37.6036 38.0462ZM34.8179 27.2154C33.2084 27.2154 31.9703 28.0154 31.3512 28.6308C30.6084 29.4308 30.3607 31.0308 30.856 32.2C31.2274 33.1231 32.2798 34.2308 34.0131 35.4C34.5703 35.7692 35.0036 36.2 35.375 36.5077L35.4988 36.6308C36.056 37.1231 36.6131 37.6154 37.1084 37.7385C37.2322 37.8 37.4179 37.8 37.5417 37.8C38.3465 37.8 39.4607 37.1846 40.1417 35.8923C41.0703 33.9231 40.6369 29.8615 37.8512 28.1385C36.7988 27.4615 35.7465 27.2154 34.8179 27.2154ZM37.6036 37.3077C37.4798 37.3077 37.4179 37.3077 37.2941 37.2462C36.8607 37.1231 36.3655 36.6923 35.8084 36.2C35.375 35.8308 34.8798 35.4 34.3226 34.9692C32.7131 33.8615 31.7226 32.8154 31.3512 31.9538C30.9179 30.9077 31.1655 29.4923 31.7226 28.9385C31.8465 28.8154 34.1988 26.4769 37.6036 28.5692C40.0798 30.1077 40.5131 33.8615 39.6465 35.6462C39.1512 36.8154 38.2226 37.3077 37.6036 37.3077ZM34.4465 34.8462C35.0036 35.2769 35.4988 35.6462 35.9322 36.0769C36.4893 36.5692 36.9226 37 37.356 37.1231C37.9131 37.3077 38.9655 36.8769 39.5845 35.6462C40.4512 33.9231 39.956 30.2308 37.5417 28.8154C34.2607 26.7846 31.9703 28.9385 31.8465 29.1231C31.3512 29.6769 31.1036 30.9692 31.475 31.9538C31.9084 32.7538 32.8988 33.7385 34.4465 34.8462Z" fill="black"/>
<path d="M35.4371 33.9231C36.3602 33.9231 37.1085 33.1792 37.1085 32.2615C37.1085 31.3439 36.3602 30.6 35.4371 30.6C34.5139 30.6 33.7656 31.3439 33.7656 32.2615C33.7656 33.1792 34.5139 33.9231 35.4371 33.9231Z" fill="black"/>
</g>
<defs>
<clipPath id="clip0_2030_113">
<rect width="49.0905" height="45.9077" fill="white" transform="translate(3 5)"/>
</clipPath>
</defs>
</svg>
