<svg width="55" height="55" viewBox="0 0 55 55" fill="none" xmlns="http://www.w3.org/2000/svg">
<path d="M11.4042 33.3582C11.4042 33.3582 5.80438 28.8394 3.48253 27.8123C3.07279 27.6754 2.79963 27.6069 2.59476 27.6069C2.3216 27.6754 1.98015 27.8123 1.84357 27.9493C-0.88802 29.661 2.45818 35.3438 3.89227 37.2609C4.64346 38.151 7.17018 41.0266 9.62862 41.8482C11.6773 42.6014 14.7504 42.259 14.7504 42.259" fill="white"/>
<path d="M13.3171 42.8753C14.1366 42.8753 14.6829 42.8068 14.7512 42.8068L14.6829 41.8482C14.6146 41.8482 11.6099 42.1221 9.76606 41.4374C7.58079 40.6843 5.05406 38.0825 4.30287 37.0555C3.14195 35.5492 0.888382 31.715 1.29812 29.524C1.36641 29.0448 1.63957 28.634 2.04931 28.3601C2.1176 28.2916 2.45905 28.0862 2.66392 28.0862C2.73221 28.0862 2.93708 28.0862 3.27853 28.2232C5.53209 29.1817 10.9953 33.6321 11.0636 33.7006L11.6782 32.9474C11.4733 32.8105 6.01012 28.4286 3.68827 27.3331C3.27853 27.1277 2.93708 27.0592 2.59563 27.0592C2.18589 27.1277 1.84444 27.3331 1.57128 27.47C0.956672 27.8808 0.478643 28.497 0.342063 29.3186C-0.135966 32.0574 2.52734 36.2339 3.4834 37.5348C4.098 38.2879 6.76131 41.3005 9.35632 42.259C10.6538 42.8068 12.2245 42.8753 13.3171 42.8753Z" fill="black"/>
<path d="M13.3172 40.8212C13.5221 40.8212 13.727 40.6843 13.7952 40.4789C13.8635 40.205 13.727 39.9311 13.4538 39.8627C11.3368 39.2465 8.87837 38.4933 8.60522 38.2879C8.60522 38.2194 8.33206 37.8771 9.3564 35.8915C9.49298 35.6177 9.90272 34.7961 7.03455 32.2627C6.82968 32.1258 6.6931 31.9889 6.55652 31.8519C5.3273 30.688 3.48348 28.9763 1.09333 29.3871C0.820173 29.3871 0.683594 29.661 0.683594 29.9348C0.751884 30.2087 0.956753 30.3457 1.2982 30.3457C3.27861 30.0033 4.71269 31.4411 5.94191 32.6051C6.07849 32.742 6.28336 32.879 6.41994 33.0159C8.19548 34.5907 8.53693 35.4123 8.46864 35.5492C7.78574 36.987 7.23942 38.4933 8.0589 39.1095C8.7418 39.5203 12.4977 40.5473 13.3172 40.8212C13.2489 40.8212 13.1806 40.8212 13.3172 40.8212Z" fill="black"/>
<path d="M42.6138 32.879C42.6138 32.879 48.2135 28.3601 50.5354 27.3331C50.9451 27.1962 51.2183 27.1277 51.4232 27.1277C51.6963 27.1962 52.0378 27.3331 52.1744 27.47C54.906 29.1817 51.5598 34.8645 50.1257 36.7816C49.3745 37.6717 46.8478 40.5474 44.3893 41.369C42.3406 42.1221 39.2676 41.7798 39.2676 41.7798" fill="white"/>
<path d="M40.6333 42.3275C39.8138 42.3275 39.2675 42.259 39.1992 42.259L39.2675 41.3005C39.3358 41.3005 42.3405 41.5744 44.1844 40.8897C46.3696 40.1365 48.8964 37.5348 49.6476 36.5078C50.7402 35.0699 52.9938 31.2357 52.584 29.1132C52.5157 28.5655 52.2426 28.2232 51.8328 27.9493C51.7646 27.8808 51.4231 27.6754 51.2182 27.6754C51.1499 27.6754 50.9451 27.6754 50.6036 27.8124C48.3501 28.7709 42.8869 33.2213 42.8186 33.2898L42.204 32.5366C42.4771 32.3312 47.872 27.9493 50.2622 26.9223C50.6719 26.7169 51.0134 26.6484 51.3548 26.6484C51.7645 26.7169 52.106 26.9223 52.3792 27.0592C52.9938 27.47 53.4718 28.0862 53.6084 28.9078C54.0864 31.6466 51.4231 35.8231 50.467 37.124C49.8524 37.8771 47.1891 40.8897 44.5941 41.8482C43.3649 42.2591 41.7259 42.3275 40.6333 42.3275Z" fill="black"/>
<path d="M40.7025 40.2735C40.4976 40.2735 40.2927 40.1366 40.2244 39.9311C40.1561 39.6573 40.2927 39.3834 40.5659 39.3149C42.6829 38.6987 45.1413 37.9456 45.4145 37.7402C45.4145 37.6717 45.6876 37.3294 44.6633 35.3438C44.5267 35.0699 44.117 34.2483 46.9851 31.715C47.1217 31.5781 47.2583 31.4411 47.3949 31.3042C48.6241 30.1403 50.4679 28.4286 52.8581 28.8394C53.1312 28.9078 53.2678 29.1132 53.2678 29.4556C53.1995 29.7295 52.9946 29.8664 52.6532 29.8664C50.6728 29.5241 49.2387 30.9619 48.0095 32.1258C47.8729 32.2628 47.668 32.3997 47.5314 32.5366C45.7559 34.1114 45.4145 34.933 45.4827 35.0699C46.1656 36.5078 46.712 38.0141 45.8925 38.6303C45.2096 38.9726 41.4536 39.9996 40.7025 40.2735C40.7025 40.2735 40.7708 40.2735 40.7025 40.2735Z" fill="black"/>
<path d="M29.8443 48.6266C34.488 47.7365 36.8782 45.0662 37.9025 43.8338C39.4732 42.0536 40.9756 39.4519 41.795 36.7816C43.0243 32.5366 42.956 24.8682 42.4779 23.1566C41.317 18.9116 38.8586 15.8305 34.6929 13.9134C32.1662 12.7495 29.7077 12.4071 26.7713 12.4756C23.5617 12.5441 20.4203 13.3657 19.2594 13.9134C15.162 15.8305 12.567 18.8431 11.4061 23.1566C10.928 24.9367 10.928 32.6051 12.1573 36.8501C12.9767 39.5888 14.4791 42.1221 16.0498 43.9023C17.1424 45.1347 19.4643 47.8049 24.108 48.695C24.7226 48.7635 26.3615 48.9689 27.0444 48.9689C27.7956 48.832 29.2297 48.7635 29.8443 48.6266Z" fill="white"/>
<path d="M27.1122 49.3797C26.3611 49.3797 24.7221 49.2427 24.0392 49.1058C19.1906 48.2157 16.7322 45.3401 15.7078 44.1761C13.9323 42.1906 12.4982 39.4519 11.6787 36.9186C10.4495 32.6736 10.4495 24.8682 10.9275 23.0196C12.1568 18.5692 14.8201 15.4197 19.054 13.5026C20.1467 12.9548 23.288 12.1332 26.7708 12.0648C29.9804 11.9963 32.5071 12.4756 34.8973 13.5026C39.063 15.4197 41.7263 18.5692 42.9555 23.0881C43.5018 25.0736 43.5701 32.8105 42.2726 36.987C41.5214 39.5888 40.019 42.259 38.2435 44.2446C37.1508 45.477 34.6924 48.2842 29.8438 49.1743C29.2975 49.2427 27.8634 49.3797 27.1122 49.3797ZM27.522 12.8864C27.2488 12.8864 27.1122 12.8864 26.8391 12.8864C23.6977 12.9548 20.6247 13.7765 19.5321 14.2557C15.5713 16.1044 13.1128 18.98 11.9519 23.1565C11.4739 24.9367 11.5422 32.5366 12.7031 36.5762C13.4543 38.9726 14.8201 41.5744 16.5273 43.4915C17.4834 44.5869 19.8052 47.2572 24.3124 48.0788C24.927 48.1473 26.4293 48.3527 27.1805 48.3527C27.8634 48.3527 29.2292 48.2157 29.7755 48.0788C34.2827 47.2572 36.6045 44.5869 37.5606 43.4915C39.1995 41.5744 40.6336 38.9726 41.3848 36.5762C42.614 32.3312 42.4775 24.7998 42.0677 23.1565C40.9068 18.9115 38.4484 16.0359 34.5558 14.2557C32.5071 13.3657 30.2536 12.8864 27.522 12.8864Z" fill="black"/>
<path d="M22.6055 39.178C22.6738 38.7672 23.0835 38.5618 23.8347 38.5618C25.2688 38.4933 30.8003 38.2879 31.5514 38.3564C32.3026 38.4248 32.4392 38.6987 32.4392 38.9041C32.4392 39.2465 32.2343 39.5203 31.9612 39.8627C31.21 40.8897 29.7076 42.6014 28.8881 42.9437C27.7955 43.4915 26.7712 43.3545 25.9517 42.8752C25.3371 42.4644 23.8347 41.3005 23.0152 40.1365C22.7421 39.8627 22.6055 39.5203 22.6055 39.178Z" fill="white"/>
<path d="M27.3169 43.8338C26.7023 43.8338 26.156 43.6969 25.6097 43.3545C24.9951 42.9437 23.3561 41.7113 22.5366 40.4104L22.4683 40.2735C22.2635 39.9311 22.0586 39.5888 22.0586 39.1095C22.1269 38.6987 22.4 38.0825 23.7658 38.014C24.9951 37.9456 30.7314 37.7402 31.4826 37.8086C32.5752 37.9456 32.7801 38.4933 32.7801 38.8357C32.7801 39.3149 32.5069 39.6573 32.3021 39.9996L32.2338 40.0681C31.4826 41.0951 29.9802 42.8753 29.0242 43.2861C28.4778 43.6969 27.9315 43.8338 27.3169 43.8338ZM23.0829 39.2465C23.0829 39.3834 23.1512 39.5888 23.3561 39.7942L23.4244 39.9311C24.1756 41.0266 25.6097 42.1906 26.156 42.5329C26.9072 42.9437 27.7267 42.9437 28.6144 42.5329C29.2973 42.259 30.6631 40.7528 31.4826 39.5888L31.5509 39.5203C31.7558 39.2465 31.824 39.1095 31.824 38.9726C31.7558 38.9041 31.6192 38.9041 31.4143 38.9041C30.7314 38.8357 25.2682 38.9726 23.7658 39.0411C23.2878 39.1095 23.0829 39.178 23.0829 39.2465Z" fill="black"/>
<path d="M27.3855 42.6698C27.3855 42.6698 27.2489 41.0951 26.9757 40.5473C26.9074 40.4104 26.7709 40.2735 26.6343 40.1365C26.4977 40.0681 26.2928 40.0681 26.1563 40.0681C25.5417 40.0681 25.1319 40.1365 24.7222 40.2735C24.449 40.3419 24.3807 40.4789 24.3124 40.6843C24.2441 40.8897 24.2441 41.232 24.3807 41.4374C24.6539 42.396 25.3368 44.2446 26.1563 45.5455C26.4294 46.0248 26.7709 46.2986 27.044 46.4356C27.4538 46.5725 27.7952 46.4356 28.0684 46.2302C28.683 45.8193 29.0927 44.9977 29.5025 44.1761C29.9122 43.3545 30.3902 42.1221 30.4585 41.3689C30.5268 40.8897 30.3902 40.5473 30.0488 40.3419C29.7756 40.205 29.2976 40.0681 28.9561 39.9996C28.6147 39.9311 28.205 39.8627 28.0001 39.9996C27.7952 40.0681 27.6586 40.2735 27.5903 40.5473C27.4538 41.3689 27.3855 42.6698 27.3855 42.6698Z" fill="#CC697A"/>
<path d="M27.3176 46.9148C27.181 46.9148 27.0444 46.9148 26.9078 46.8464C26.4981 46.7094 26.0883 46.3671 25.7469 45.7509C24.9957 44.5185 24.1762 42.6014 23.9031 41.5059C23.8348 41.232 23.7665 40.7527 23.9031 40.4104C24.0397 40.0681 24.3128 39.8627 24.586 39.7942C24.9957 39.5888 25.4737 39.5203 26.1566 39.5203C26.3615 39.5203 26.5664 39.5888 26.9078 39.6573C27.0444 39.7257 27.181 39.8627 27.3176 39.9996C27.3859 39.7257 27.659 39.5888 27.9322 39.3834C28.3419 39.178 28.8199 39.3149 29.1614 39.3834C29.5711 39.4519 30.0492 39.5888 30.3906 39.7942C30.8686 40.0681 31.0735 40.6158 31.0052 41.3005C30.8686 42.1906 30.3906 43.423 29.9809 44.2446C29.5711 45.1347 29.1614 46.0248 28.4102 46.504C28.137 46.7094 27.7956 46.9148 27.3176 46.9148ZM26.0883 40.5473C25.6103 40.5473 25.2006 40.6158 24.9957 40.6843C24.8591 40.7527 24.8591 40.7527 24.7908 40.8212C24.7908 40.8897 24.7908 41.0951 24.8591 41.3005C25.1323 42.1906 25.7469 43.9707 26.5664 45.2031C26.8395 45.614 27.1127 45.8194 27.181 45.8878C27.3859 45.9563 27.5907 45.9563 27.7956 45.7509C28.2736 45.4085 28.6834 44.6554 29.0248 43.9023C29.3663 43.1491 29.9126 41.9852 29.9809 41.1635C30.0492 40.7527 29.9126 40.6843 29.8443 40.6158C29.6394 40.5473 29.2297 40.4104 28.9565 40.3419C28.4102 40.3419 28.2736 40.3419 28.2736 40.3419C28.2053 40.3419 28.2053 40.4104 28.137 40.5473C28.0005 41.4374 27.8639 42.6698 27.8639 42.6698C27.8639 42.9437 27.5907 43.0806 27.3859 43.0806C27.181 43.0806 26.9078 42.8752 26.9078 42.6698C26.8395 42.0536 26.703 41.0266 26.5664 40.6843C26.5664 40.6158 26.4981 40.6158 26.4981 40.5473C26.4298 40.4789 26.2932 40.4789 26.2249 40.4789C26.0883 40.5473 26.0883 40.5473 26.0883 40.5473Z" fill="black"/>
<path d="M24.9276 25.6898C24.9276 25.6898 25.3373 29.7294 24.9959 31.8519C24.5861 34.3852 22.196 36.3023 19.2595 35.96C15.845 35.5492 13.9329 31.5096 13.25 29.524C13.25 29.524 15.0938 28.2916 19.1912 26.9222C21.2399 26.2376 22.9472 25.8952 24.9276 25.6898Z" fill="#DDDDDD"/>
<path d="M19.9418 36.4393C19.6687 36.4393 19.4638 36.4393 19.1907 36.3708C15.0933 35.8915 13.1129 30.688 12.7714 29.5925L12.7031 29.2501L12.9763 29.0447C13.0446 28.9763 14.8884 27.7438 19.0541 26.3745C20.8296 25.7583 22.5369 25.4159 24.7904 25.1421L25.2685 25.0736L25.3367 25.5529C25.3367 25.6898 25.7465 29.6609 25.405 31.8519C25.0636 34.5906 22.6734 36.4393 19.9418 36.4393ZM13.9323 29.7294C14.4787 31.1672 16.1859 35.0699 19.3955 35.4807C21.9223 35.823 24.1758 34.1798 24.5856 31.7834C24.8587 30.2087 24.6538 27.4015 24.5173 26.1691C22.5369 26.443 21.0345 26.7853 19.4638 27.2646C16.3908 28.3601 14.6152 29.3186 13.9323 29.7294Z" fill="black"/>
<path d="M28.8872 25.6898C28.8872 25.6898 28.6823 29.3186 29.092 31.4411C29.5018 33.7005 31.4822 36.0284 34.8284 35.5492C38.4477 35.0014 40.2916 30.551 40.633 28.497C40.633 28.497 38.516 27.1961 34.7601 26.443C32.9163 25.9637 30.731 25.7583 28.8872 25.6898Z" fill="#DDDDDD"/>
<path d="M33.8716 36.0969C30.9352 36.0969 28.9548 33.906 28.545 31.5096C28.1353 29.3186 28.2719 25.7583 28.2719 25.6214L28.3401 25.1421L28.8182 25.2106C31.2766 25.3475 33.1887 25.6214 34.7594 25.8952C38.5153 26.6484 40.7006 27.9493 40.8372 28.0177L41.1103 28.2231L41.0421 28.5655C40.6323 31.1673 38.5153 35.4807 34.8277 36.0285C34.5545 36.0285 34.2131 36.0969 33.8716 36.0969ZM29.2962 26.1691C29.2279 27.2646 29.2279 29.7294 29.5694 31.3727C29.9791 33.5636 31.8912 35.4807 34.7594 35.0699C38.1056 34.5906 39.6763 30.4826 40.1543 28.7024C39.4714 28.2916 37.5593 27.47 34.7594 26.7853C33.257 26.5114 31.4815 26.306 29.2962 26.1691Z" fill="black"/>
<path d="M39.7449 37.4663C39.2669 39.178 38.584 40.8212 36.6719 43.5599L40.7693 50.0644C40.7693 50.0644 43.5009 45.2716 43.774 39.8627C43.9789 35.96 43.5009 33.4267 43.3643 31.7835C43.0911 29.5925 42.6131 26.8538 42.6131 26.8538L40.2912 27.5385C40.2912 27.5385 40.701 29.8664 40.5644 32.8105C40.3595 34.796 40.0864 36.2339 39.7449 37.4663Z" fill="#EACCA0"/>
<path d="M40.7009 50.5436C40.5643 50.5436 40.3595 50.4751 40.2912 50.2697L36.1938 43.7653C36.1255 43.6284 36.1255 43.3545 36.1938 43.2176C38.0376 40.6158 38.6522 39.1095 39.1985 37.3293C39.6083 35.8915 39.8814 34.3852 39.9497 32.8789C40.0863 30.0033 39.6766 27.6754 39.6766 27.6754C39.6083 27.4015 39.7449 27.1961 40.018 27.1276L42.2716 26.3745C42.4082 26.306 42.5447 26.306 42.6813 26.443C42.8179 26.5114 42.8862 26.6484 42.9545 26.7853C42.9545 26.8538 43.4325 29.524 43.7057 31.715L43.774 32.2627C44.0471 33.906 44.3886 36.3708 44.1837 39.9311C43.9105 45.3401 41.2472 50.1328 41.1107 50.3382C41.0424 50.4067 40.9058 50.5436 40.7009 50.5436ZM37.2181 43.5599L40.7009 49.1058C41.4521 47.531 43.0228 43.8338 43.2959 39.8626C43.5008 36.3708 43.1594 34.1114 42.8862 32.3997L42.8179 31.8519C42.613 30.2772 42.2716 28.4285 42.135 27.5385L40.8375 27.9493C40.9058 28.7709 41.1107 30.688 41.0424 32.9474C40.9741 34.5906 40.7009 36.0285 40.2229 37.6032C39.6766 39.3834 38.9937 41.0266 37.2181 43.5599Z" fill="black"/>
<path d="M10.0395 37.7402C9.42488 39.4519 8.74199 40.9581 6.625 43.6284L10.3809 50.3382C10.3809 50.3382 13.3174 45.6824 13.932 40.3419C14.3418 36.4393 14.0003 33.906 13.8637 32.1943C13.6589 30.0033 13.3174 27.3331 13.3174 27.3331L11.0638 27.9493C11.0638 27.9493 11.337 30.2772 10.9956 33.2213C10.7907 35.1384 10.4492 36.5762 10.0395 37.7402Z" fill="#EACCA0"/>
<path d="M10.3805 50.886C10.3805 50.886 10.3122 50.886 10.3805 50.886C10.1756 50.886 10.039 50.8175 9.97072 50.6121L6.21478 43.9023C6.14649 43.6969 6.14649 43.5599 6.28307 43.3545C8.19518 40.8897 9.01466 39.3834 9.62927 37.6032C10.1756 36.1654 10.4487 34.7276 10.6536 33.2213C10.9268 30.3457 10.7219 28.0178 10.7219 28.0178C10.6536 27.7439 10.8585 27.6069 11.0634 27.47L13.3169 26.8538C13.4535 26.7853 13.5901 26.8538 13.7267 26.9223C13.795 26.9907 13.9315 27.1277 13.9315 27.2646C13.9315 27.3331 14.273 30.0033 14.4779 32.1943L14.5461 32.742C14.6827 34.3853 14.8876 36.8501 14.5461 40.4104C13.9315 45.8194 11.0634 50.4752 10.9951 50.6806C10.6536 50.749 10.517 50.886 10.3805 50.886ZM7.17084 43.6969L10.3805 49.3797C11.1999 47.8734 12.9755 44.3131 13.4535 40.2735C13.8632 36.8501 13.5901 34.5222 13.4535 32.742L13.3852 32.1943C13.2486 30.6195 13.0438 28.7709 12.9072 27.8808L11.6097 28.2916C11.678 29.1132 11.7463 31.0303 11.5414 33.2898C11.3365 34.933 10.9951 36.3708 10.4487 37.8771C9.83414 39.7257 9.08295 41.232 7.17084 43.6969Z" fill="black"/>
<path d="M13.727 16.3782C15.3659 14.5981 17.1415 13.7765 16.9366 13.9134C16.4586 14.1873 14.5464 13.5026 13.2489 12.2017C11.6783 10.6269 10.9271 9.59992 10.3125 9.66839C9.35641 9.80532 8.7418 11.9278 9.90273 14.6665C10.8588 16.926 12.2929 18.98 12.2929 18.98C12.2929 18.98 13.1124 17.0629 13.727 16.3782Z" fill="#EACCA0"/>
<path d="M12.2928 20.007L11.8148 19.2539C11.7465 19.1854 10.3807 17.1314 9.42467 14.8719C8.46861 12.6125 8.67348 10.9008 9.15151 10.0107C9.42467 9.53145 9.76612 9.25758 10.2441 9.18911C10.927 9.12064 11.4734 9.66838 12.4977 10.6954C12.8392 11.0377 13.1806 11.4485 13.5903 11.7909C14.8196 13.0233 16.4585 13.5026 16.7317 13.3656C16.8683 13.2972 17.0048 13.2972 17.1414 13.2972L17.4146 13.3656L17.4829 13.9819L17.1414 14.1873C17.1414 14.1873 17.0731 14.1873 17.0731 14.2557C16.8 14.3927 15.3659 15.1458 14.0684 16.6521C13.5903 17.1314 12.9075 18.6377 12.6343 19.1169L12.2928 20.007ZM10.3807 10.1477C10.3807 10.1477 10.3124 10.1477 10.3807 10.1477C10.2441 10.1477 10.1076 10.2846 9.97099 10.49C9.56125 11.1747 9.56125 12.681 10.2441 14.4611C10.8588 15.8989 11.6099 17.1998 12.088 17.953C12.4294 17.3368 12.8392 16.4467 13.3172 16.0359C13.8635 15.4197 14.683 14.735 15.4342 14.1873C14.5464 13.9134 13.5903 13.2972 12.8392 12.544C12.4294 12.1332 12.0197 11.7224 11.7465 11.3801C11.2002 10.8323 10.5856 10.1477 10.3807 10.1477Z" fill="black"/>
<path d="M39.7445 15.6936C38.5153 14.2557 36.8081 13.7765 37.0129 13.8449C37.491 14.1188 39.4031 13.4341 40.7006 12.1332C42.2713 10.5585 43.0225 9.53147 43.6371 9.59994C44.5931 9.73687 45.2077 11.8594 44.0468 14.5981C43.0907 16.8575 41.7249 19.0485 41.7249 19.0485C41.7249 19.0485 40.8372 16.8575 39.7445 15.6936Z" fill="#EACCA0"/>
<path d="M41.5885 20.2124L41.2471 19.3223C41.2471 19.3223 40.3593 17.1314 39.335 16.0359C38.4472 15.1458 37.4229 14.5981 37.0131 14.3927C36.9448 14.3927 36.8082 14.3242 36.74 14.3242L36.4668 14.1873L36.5351 13.5711L36.8082 13.5026C36.8765 13.4341 37.0814 13.5026 37.2863 13.5711C37.696 13.5711 39.1301 13.1602 40.3593 11.9963C40.7691 11.5855 41.1105 11.2432 41.452 10.9008C42.408 9.8738 43.0226 9.32606 43.7055 9.39452C44.1153 9.46299 44.525 9.73686 44.7982 10.2161C45.2762 11.1062 45.4811 12.8179 44.525 15.0773C43.5689 17.3368 42.2714 19.5277 42.1349 19.6647L41.5885 20.2124ZM40.0862 15.3512C40.7691 16.1044 41.3837 17.2683 41.7934 18.0899C42.2714 17.2683 43.0226 15.8305 43.6372 14.5296C44.3884 12.7494 44.3884 11.2432 43.9104 10.5585C43.8421 10.3531 43.6372 10.2846 43.5689 10.2161C43.2958 10.1477 42.6812 10.9008 42.1349 11.4486C41.7934 11.7909 41.452 12.2017 41.0422 12.6125C40.3593 13.2972 39.4715 13.8449 38.6521 14.1873C39.1301 14.4611 39.6764 14.8719 40.0862 15.3512Z" fill="black"/>
<path d="M11.1329 30.7565C11.1329 30.7565 10.9281 28.3601 10.9964 26.5115C11.0646 22.9511 11.0646 19.9386 13.1816 16.926C15.162 14.0503 20.3521 11.0378 26.5664 10.7639C30.1858 10.6269 37.4245 12.7494 39.9513 16.0359C42.8194 19.6647 43.0926 25.6899 42.956 29.5925C42.956 29.5925 35.2393 25.6214 29.5029 25.6214C23.2885 25.6214 20.5569 26.0322 16.4595 28.0178C14.0694 29.3871 11.1329 30.7565 11.1329 30.7565Z" fill="#EACCA0"/>
<path d="M10.7227 31.5096L10.6544 30.7565C10.6544 30.688 10.4496 28.2916 10.5178 26.5115V26.0322C10.5861 22.6088 10.7227 19.5962 12.7714 16.6521C14.7518 13.7765 19.9418 10.5585 26.566 10.2846C30.3219 10.1477 37.7655 12.3386 40.3605 15.6936C43.297 19.3908 43.6384 25.279 43.4335 29.5925L43.3653 30.3457L42.6824 30.0033C42.6141 29.9348 34.9656 26.1007 29.5024 26.1007C23.4246 26.1007 20.7613 26.443 16.7322 28.497C14.3421 29.661 11.4056 31.0988 11.3373 31.0988L10.7227 31.5096ZM26.9757 11.2432C26.9074 11.2432 26.7025 11.2432 26.6342 11.2432C20.5565 11.517 15.503 14.4611 13.5909 17.1998C11.6788 19.9386 11.6105 22.7457 11.5422 26.0322V26.5115C11.4739 27.6754 11.6105 29.1132 11.6105 30.0033C12.6348 29.524 14.6152 28.5655 16.3908 27.6754C20.6247 25.5529 23.4246 25.2106 29.5707 25.2106C34.4193 25.2106 40.4971 27.9493 42.5458 28.9078C42.6141 24.7998 42.136 19.6647 39.6093 16.3782C37.2875 13.3657 30.5268 11.2432 26.9757 11.2432Z" fill="black"/>
<path d="M32.165 26.0322L31.209 25.8952C31.2773 25.6898 31.9602 21.6502 33.5991 17.953C35.0332 14.8719 36.1941 13.1602 36.1941 13.0918L37.0136 13.6395C37.0136 13.6395 35.8527 15.3512 34.4869 18.3638C32.8479 21.8556 32.165 25.9637 32.165 26.0322Z" fill="black"/>
<path d="M22.2626 26.0322C22.2626 25.9637 21.5114 21.9241 19.8724 18.3638C18.4383 15.3512 17.3457 13.6395 17.3457 13.6395L18.1652 13.0918C18.2335 13.1602 19.3944 14.8719 20.7602 17.953C22.4674 21.6502 23.1503 25.6898 23.1503 25.8952L22.2626 26.0322Z" fill="black"/>
<path d="M19.8737 33.4267C21.6463 33.4267 23.0833 31.9859 23.0833 30.2087C23.0833 28.4315 21.6463 26.9907 19.8737 26.9907C18.1011 26.9907 16.6641 28.4315 16.6641 30.2087C16.6641 31.9859 18.1011 33.4267 19.8737 33.4267Z" fill="white"/>
<path d="M19.8732 33.906C17.8245 33.906 16.1855 32.2627 16.1855 30.2087C16.1855 28.1547 17.8245 26.5114 19.8732 26.5114C21.9219 26.5114 23.5608 28.1547 23.5608 30.2087C23.5608 32.2627 21.9219 33.906 19.8732 33.906ZM19.8732 27.47C18.3708 27.47 17.1416 28.7024 17.1416 30.2087C17.1416 31.715 18.3708 32.9474 19.8732 32.9474C21.3756 32.9474 22.6048 31.715 22.6048 30.2087C22.6048 28.7024 21.3756 27.47 19.8732 27.47Z" fill="black"/>
<path d="M19.8731 32.0573C20.8914 32.0573 21.7169 31.2297 21.7169 30.2087C21.7169 29.1877 20.8914 28.3601 19.8731 28.3601C18.8548 28.3601 18.0293 29.1877 18.0293 30.2087C18.0293 31.2297 18.8548 32.0573 19.8731 32.0573Z" fill="black"/>
<path d="M34.0768 32.8105C35.8494 32.8105 37.2864 31.3697 37.2864 29.5925C37.2864 27.8153 35.8494 26.3745 34.0768 26.3745C32.3042 26.3745 30.8672 27.8153 30.8672 29.5925C30.8672 31.3697 32.3042 32.8105 34.0768 32.8105Z" fill="white"/>
<path d="M34.0763 33.3582C32.0276 33.3582 30.3887 31.715 30.3887 29.661C30.3887 27.6069 32.0959 25.9637 34.0763 25.9637C36.0567 25.9637 37.764 27.6069 37.764 29.661C37.764 31.715 36.125 33.3582 34.0763 33.3582ZM34.0763 26.8538C32.5739 26.8538 31.3447 28.0862 31.3447 29.5925C31.3447 31.0988 32.5739 32.3312 34.0763 32.3312C35.5787 32.3312 36.8079 31.0988 36.8079 29.5925C36.8079 28.0862 35.5787 26.8538 34.0763 26.8538Z" fill="black"/>
<path d="M34.0762 31.4411C35.0946 31.4411 35.9201 30.6135 35.9201 29.5925C35.9201 28.5715 35.0946 27.7439 34.0762 27.7439C33.0579 27.7439 32.2324 28.5715 32.2324 29.5925C32.2324 30.6135 33.0579 31.4411 34.0762 31.4411Z" fill="black"/>
</svg>
