<svg width="110" height="110" viewBox="0 0 110 110" fill="none" xmlns="http://www.w3.org/2000/svg">
<g filter="url(#filter0_d_30_2)">
<rect x="9" y="9" width="92.0002" height="92.0002" rx="21" stroke="#869DC8" stroke-width="2" shape-rendering="crispEdges"/>
</g>
<path d="M30.1942 55.2767C29.5105 52.9679 26.9464 49.1201 24.7243 47.0679C22.5021 45.0157 27.7156 38.9446 30.4506 38.8591C32.2454 38.7736 35.0659 43.4765 38.3136 45.8708C40.023 47.1534 40.7067 46.1273 41.7323 46.0418C43.0998 45.8708 46.5185 44.7592 50.8774 44.3316C55.6636 43.9041 64.6377 44.7592 66.8598 45.8708C71.2187 47.923 72.2443 45.5287 72.8426 43.3055C73.3554 41.0823 84.3807 41.8519 85.0644 45.1012C85.4063 46.5548 79.8509 52.9679 79.0817 58.0984C78.227 63.1434 67.2017 52.2839 54.638 53.2245C42.0742 54.1651 32.6728 58.0984 31.7326 60.3216C30.707 62.4593 30.6215 56.5593 30.1942 55.2767Z" fill="white"/>
<path d="M72.8424 45.1012C72.8424 45.1012 73.2698 43.8185 72.586 41.6808C71.7314 39.1156 69.8511 35.5243 69.8511 33.13C69.8511 28.6836 73.0134 26.9734 76.4321 27.6575C79.8508 28.3416 84.8079 30.3083 86.0045 34.2416C86.6027 36.1228 87.4574 38.7736 87.2865 40.8258C87.0301 43.22 85.7481 45.4432 85.3207 46.0417C85.3207 46.0417 82.0729 43.391 79.9363 43.6475C77.7141 43.8185 72.8424 45.1012 72.8424 45.1012Z" fill="#41A5A2"/>
<path d="M30.7927 67.9318C30.7927 67.9318 30.9636 56.6447 37.2028 51.6853C43.1855 46.8968 47.8008 46.7258 54.7236 46.6403C61.732 46.5548 67.1165 47.4099 71.1334 50.9157C75.5778 54.8491 76.9452 57.9274 77.9708 61.0912C79.5093 65.7086 78.7401 70.2405 78.0563 72.0362C77.629 73.1478 73.0992 75.2855 71.8172 75.9696C68.1421 77.9363 52.6724 79.2189 45.3222 77.8507C37.972 76.3971 32.8439 75.2855 31.5619 72.8058C30.2799 70.4115 30.7927 67.9318 30.7927 67.9318Z" fill="#EDEFEF"/>
<path opacity="0.68" d="M83.355 43.049C83.355 43.049 85.1498 39.6286 84.5515 36.6359C84.0387 34.0706 82.2439 30.9923 82.2439 30.9923C82.2439 30.9923 84.637 33.0445 85.5771 35.0967C86.6027 37.4909 86.7737 39.5431 86.1754 41.5098C85.6626 43.3055 84.8934 43.9896 84.8934 43.9896C84.8934 43.9896 84.637 43.6475 84.3806 43.4765C84.1242 43.391 83.355 43.049 83.355 43.049Z" fill="white"/>
<path d="M36.6044 44.8446C36.6044 44.8446 36.6044 43.1345 36.8608 41.4243C37.2881 38.7736 39.4248 35.2677 39.4248 32.8735C39.4248 28.4271 36.0915 27.0589 32.6728 27.8285C29.2541 28.5981 24.297 30.6503 23.1005 34.5837C22.5022 36.3793 21.6475 39.0301 21.9039 41.1678C22.1603 43.562 24.2115 45.9562 24.6389 46.4693C24.6389 46.4693 26.9465 43.391 30.3652 43.562C32.5874 43.733 36.6044 44.8446 36.6044 44.8446Z" fill="#41A5A2"/>
<path d="M31.0486 71.0102C31.0486 71.0102 36.0058 73.8319 39.4245 73.5754C41.3902 73.4044 46.1764 71.1812 47.8003 68.6159C49.4242 66.1362 48.7404 64.9391 50.6207 62.7159C52.501 60.4071 54.7232 60.5782 56.2616 60.5782C57.8 60.5782 59.7658 60.7492 61.0478 62.8014C62.3298 64.8536 62.5862 69.3 64.9793 70.6681C66.5177 71.5232 69.8509 73.3189 72.415 72.8913C74.979 72.5493 78.0558 71.3522 78.0558 71.3522C78.0558 71.3522 79.2524 74.174 77.7994 76.3972C76.4319 78.6204 71.6458 81.6132 68.4835 83.3233C65.2357 85.0335 60.0222 87.8552 55.065 88.1973C50.1079 88.5393 43.7833 84.5204 42.1594 83.6653C40.5355 82.8103 34.1255 78.3638 32.5016 76.0551C30.8777 73.8319 31.0486 71.0102 31.0486 71.0102Z" fill="#427C78"/>
<path d="M55.3217 89.1378C55.0653 89.1378 54.7234 89.1378 54.5525 89.2233C52.7577 89.2233 47.886 87.9407 43.3562 85.0334C42.2452 84.3493 41.1341 83.6653 40.023 82.9812C35.4932 80.245 31.5617 77.9362 30.7925 74.2594C29.9378 70.326 30.1942 65.7086 30.2797 63.2288V62.6303C30.2797 62.0317 30.3652 61.1766 30.4506 60.1505C30.4506 59.4665 30.5361 58.7824 30.6216 58.0128L31.7326 58.0984C31.7326 58.8679 31.6472 59.6375 31.5617 60.2361C31.4762 61.1766 31.4762 62.0317 31.3908 62.6303V63.2288C31.3053 65.6231 31.0489 70.155 31.8181 74.0029C32.5019 77.1667 36.177 79.3899 40.5358 81.9551C41.6469 82.6392 42.758 83.2377 43.8691 84.0073C48.3988 86.9146 53.0141 88.1117 54.467 88.0262C56.0055 88.0262 60.7062 87.0856 65.236 84.4348C66.347 83.7508 67.5436 83.1522 68.6547 82.5537C73.099 80.1594 76.945 78.1072 77.7142 74.9434C78.1416 73.3188 78.3125 66.5637 78.1416 57.8418H79.2527C79.4236 64.8535 79.3381 73.1478 78.8253 75.2855C77.8852 78.8768 73.8682 81.0145 69.1675 83.5798C68.0564 84.1783 66.9453 84.7769 65.7488 85.4609C61.8173 87.8552 57.5439 88.8813 55.3217 89.1378Z" fill="black"/>
<path d="M78.7397 71.2666C77.7141 71.6941 76.4321 72.2071 74.9791 72.5492C71.5604 73.3188 66.2614 72.5492 64.0393 69.5564C62.0735 66.9912 62.7572 60.6636 56.1762 60.4925C48.9115 60.407 49.6807 66.5636 47.544 68.9578C45.0654 71.7796 39.7664 74.1738 36.4332 73.0622C34.2965 72.3782 31.9889 70.9245 30.8778 70.2405" stroke="black" stroke-width="2" stroke-miterlimit="10"/>
<path d="M79.4238 64.426L78.3982 60.6636C78.3982 60.5781 77.0307 55.6186 74.6376 52.1983C72.6718 49.4621 69.1677 47.3244 69.1677 47.3244L67.8002 46.5548L69.3386 46.2983C69.4241 46.2983 71.8172 45.8707 72.2445 43.733C72.5009 42.1084 71.6462 40.2272 70.877 38.4315C70.4497 37.5764 70.1078 36.8069 69.8514 36.0373C69.4241 34.5836 68.8258 31.9329 70.0223 29.7952C70.7061 28.5126 71.9881 27.6575 73.6974 27.3155C77.7999 26.3749 81.9878 28.5126 84.2954 30.5648C86.9449 32.959 87.7996 36.4648 88.056 38.346C88.3979 40.7402 88.1415 42.8779 85.7484 46.5548C84.8937 47.8374 84.1245 48.8635 83.4408 49.8041C81.9878 51.6853 80.8767 53.2244 80.3639 55.1056C79.5947 58.0129 79.5092 60.4926 79.5092 60.5781L79.4238 64.426ZM70.7061 46.9823C71.9881 47.8374 74.0393 49.4621 75.4923 51.5142C76.8597 53.5664 77.9708 55.9607 78.5691 57.7563C78.74 56.9013 78.911 55.8752 79.1674 54.7636C79.7656 52.6259 80.9622 51.0012 82.4151 49.0345C83.0989 48.0939 83.8681 47.0678 84.7228 45.8707C87.1159 42.1084 87.1159 40.1417 86.8595 38.4315C86.6031 36.7213 85.8338 33.472 83.4408 31.3343C81.1331 29.2821 77.2871 27.4865 73.8684 28.3416C72.4154 28.6836 71.4753 29.3676 70.877 30.3082C69.9369 32.0184 70.4497 34.4126 70.7915 35.6952C71.0479 36.3793 71.3898 37.1489 71.7317 38.004C72.5864 39.8851 73.5265 42.0228 73.1846 43.9895C73.0137 45.6997 71.7317 46.5548 70.7061 46.9823Z" fill="black"/>
<path d="M84.637 47.7519C84.5516 47.7519 84.4661 47.7519 84.3806 47.7519C84.0388 47.5808 83.8678 47.3243 84.0388 46.9823C84.2952 46.2982 84.2097 45.7852 83.9533 45.3576C83.4405 44.5881 81.9021 44.1605 79.9363 44.1605C77.1159 44.1605 72.6716 45.6142 72.5861 45.6142C72.3297 45.6997 71.9878 45.5287 71.9024 45.2721C71.8169 45.0156 71.9878 44.6736 72.2442 44.5881C72.4152 44.5026 76.9449 43.0489 79.9363 43.0489C81.6457 43.0489 83.8678 43.3054 84.8934 44.6736C85.4063 45.3576 85.4917 46.2982 85.1499 47.3243C84.9789 47.5808 84.808 47.7519 84.637 47.7519Z" fill="black"/>
<path d="M69.9369 47.4098C69.8514 47.4098 69.7659 47.4098 69.6805 47.4098C65.4926 45.6141 60.1081 44.6736 54.6382 44.6736C49.2537 44.6736 44.2111 45.6141 40.0232 47.4098C39.7668 47.4953 39.4249 47.4098 39.254 47.1533C39.0831 46.8968 39.254 46.5547 39.5104 46.3837C43.8692 44.588 49.0828 43.6475 54.5527 43.562C60.1936 43.562 65.6635 44.5025 70.0223 46.3837C70.2787 46.4692 70.4497 46.8113 70.2787 47.1533C70.2787 47.3243 70.1078 47.4098 69.9369 47.4098Z" fill="black"/>
<path d="M30.4506 65.8796L30.2797 60.4071C30.2797 60.4071 30.1942 57.9274 29.3396 54.9346C28.8268 52.9679 27.6302 51.5143 26.2627 49.6331C25.579 48.6925 24.7243 47.6664 23.8696 46.3838C21.4765 42.7069 21.1347 40.5692 21.4765 38.175C21.7329 36.2938 22.5021 32.788 25.1516 30.3938C27.4593 28.2561 31.5617 26.1184 35.6642 26.9734C37.3735 27.401 38.6555 28.1706 39.4247 29.4532C40.6213 31.5054 40.1085 34.2416 39.6811 35.6953C39.4247 36.4648 39.0829 37.3199 38.6555 38.175C37.8863 39.9707 37.0316 41.9374 37.3735 43.4765C37.8009 45.6142 40.194 45.9562 40.2794 45.9562L41.9033 46.2128L40.4504 47.0679C40.4504 47.0679 36.9462 49.0345 34.9804 52.0273C32.16 56.1317 31.4763 60.4926 31.3908 60.4926L30.4506 65.8796ZM32.8437 27.9995C30.2797 28.2561 27.6302 29.6242 25.9209 31.2489C23.5278 33.3866 22.844 36.6359 22.5876 38.4315C22.3312 40.2272 22.3312 42.1939 24.8098 45.8707C25.579 47.0679 26.4337 48.094 27.1174 49.0345C28.5704 50.9157 29.8524 52.5404 30.4506 54.6781C30.707 55.7042 30.878 56.5593 31.0489 57.4143C31.6472 55.7042 32.5019 53.5665 34.0403 51.3433C35.4932 49.2056 37.5445 47.5809 38.8265 46.7258C37.8009 46.2983 36.6043 45.4432 36.2624 43.6475C35.9206 41.6808 36.8607 39.5431 37.6299 37.662C37.9718 36.8069 38.3137 36.0373 38.5701 35.3532C38.9974 34.0706 39.4247 31.6764 38.4846 29.9662C37.8863 29.0256 36.8607 28.3416 35.4932 27.9995C34.6386 27.914 33.7839 27.914 32.8437 27.9995Z" fill="black"/>
<path d="M25.1516 47.5808C24.8952 47.5808 24.6388 47.4098 24.5534 47.1533C24.3824 46.3837 24.5534 45.6141 25.0662 44.9301C26.0063 43.733 27.9721 43.0489 30.1942 42.9634C33.1856 42.9634 37.2026 44.246 37.3735 44.3315C37.6299 44.417 37.8008 44.759 37.7154 45.0156C37.6299 45.2721 37.288 45.4431 37.0316 45.3576C37.0316 45.3576 33.0147 44.075 30.2797 44.075C28.3994 44.075 26.69 44.6735 26.0063 45.6141C25.6644 46.0417 25.579 46.3837 25.579 46.8968C25.6644 47.2388 25.4935 47.4953 25.1516 47.5808Z" fill="black"/>
<path opacity="0.68" d="M32.5874 42.5359C32.5874 42.5359 35.5788 38.6025 36.8608 34.9257C37.8864 32.1039 37.1172 29.7952 37.1172 29.7952C37.1172 29.7952 37.7155 30.2228 38.2283 31.2488C38.6556 32.2749 38.7411 33.8141 38.2283 35.0967C37.0317 37.9185 36.2625 39.4576 35.9206 40.3982C35.4078 41.7663 35.5788 43.1345 35.5788 43.1345C35.5788 43.1345 34.6386 42.8779 34.3822 42.7924C33.8694 42.7069 32.5874 42.5359 32.5874 42.5359Z" fill="white"/>
<path d="M58.7404 63.742C58.7404 64.768 58.7404 66.0507 58.8258 67.6753C58.9113 69.642 63.5265 74.858 66.7743 78.0218C67.9709 79.1334 68.4837 81.2711 68.9965 83.1523C68.9965 83.1523 75.8339 79.732 77.6287 76.6537C79.0817 74.0884 78.9107 69.3 78.8253 64.426C78.7398 60.0651 77.6287 57.2433 77.6287 57.2433C74.9792 55.3622 73.6972 54.5071 71.8169 53.823C69.9366 53.1389 63.7829 50.9157 61.6463 52.7114C60.3642 53.823 59.766 55.2766 59.4241 56.8158C59.4241 56.8158 58.8258 58.2694 55.9199 58.2694C53.014 58.2694 52.5012 56.7303 52.5012 56.7303C52.1593 54.9346 51.5611 53.31 50.1081 52.0273C47.9714 50.2317 41.8178 52.3694 39.9375 53.2245C36.9461 54.5926 34.1257 56.9868 30.707 61.2622C30.707 61.2622 29.7668 72.0362 31.1343 74.6015C33.8693 79.6465 42.416 83.7508 42.416 83.7508C42.416 83.7508 42.3306 79.732 43.3562 78.5349C46.6894 74.7725 52.9286 69.8985 53.185 66.9057C53.2704 65.5376 53.2704 64.5115 53.2704 63.5709C53.2704 63.5709 52.8431 61.8608 56.0054 61.8608C58.1421 62.0318 58.7404 63.742 58.7404 63.742Z" fill="#41A5A2"/>
<path d="M68.7401 83.8363L68.4837 82.8957C67.9708 81.1001 67.458 79.3044 66.5179 78.3638C63.4411 75.4565 58.4839 69.8985 58.3985 67.6753V66.9912C58.313 65.7086 58.313 64.768 58.313 63.8274C58.1421 63.4854 57.6293 62.5448 56.1763 62.5448C54.8088 62.5448 54.296 62.8868 54.1251 63.1434C54.0396 63.3144 54.0396 63.5709 54.0396 63.5709V63.6564V63.7419C54.0396 64.768 54.0396 65.8796 53.9542 67.1623C53.7832 69.471 50.7918 72.2927 47.6295 75.371C46.3475 76.6537 44.98 77.9363 43.9544 79.1334C43.2707 79.903 43.0998 82.5537 43.0998 84.0073V84.8624L42.2451 84.4349C41.9032 84.2639 33.5274 80.245 30.707 75.1145C29.3395 72.4638 30.1941 62.6303 30.2796 61.4332V61.2622L30.3651 61.0912C33.6983 56.9868 36.6042 54.4215 39.852 52.9679C41.4759 52.1983 48.1424 49.7186 50.6209 51.8563C52.3303 53.3099 52.8431 55.2766 53.1849 56.8158C53.2704 56.9868 53.8687 57.9274 56.0908 57.9274C58.313 57.9274 58.9113 56.9868 59.0822 56.8158C59.5096 54.8491 60.2788 53.481 61.4753 52.4549C63.0137 51.0867 66.6888 51.4288 72.1588 53.481C74.0391 54.165 75.492 55.1056 78.056 56.9868L78.227 57.0723L78.3124 57.2433C78.3979 57.3288 79.4235 60.2361 79.5945 64.597V64.939C79.7654 69.813 79.8509 74.5159 78.3124 77.0812C76.4321 80.245 69.6802 83.3233 69.4238 83.4943L68.7401 83.8363ZM55.3216 61.5187C55.578 61.5187 55.8344 61.5187 56.0908 61.5187C58.5694 61.5187 59.3386 63.3144 59.3386 63.3999V63.7419V63.8274C59.3386 64.6825 59.3386 65.7086 59.4241 66.9912V67.6753C59.5096 69.2144 63.5265 74.0884 67.2016 77.5942C68.3982 78.7058 68.911 80.5015 69.4238 82.3827C71.1332 81.4421 75.8339 78.7914 77.2014 76.3971C78.5688 74.0884 78.3979 69.3855 78.3124 64.8535V64.5115C78.227 60.9202 77.4578 58.2694 77.2014 57.6709C74.8083 55.9607 73.4408 55.1056 71.7314 54.4215C64.9795 51.9418 62.8428 52.6259 62.159 53.2244C61.1334 54.0795 60.5352 55.2766 60.1078 57.0723V57.1578C60.1078 57.2433 59.2531 58.9535 56.0908 58.9535C52.8431 58.9535 52.1593 57.1578 52.1593 57.0723V56.9868C51.8175 54.9346 51.1337 53.5665 50.0226 52.6259C48.3133 51.1722 42.587 52.9679 40.4503 53.9085C37.3734 55.3621 34.6385 57.6709 31.4762 61.6042C31.2198 64.6825 30.7924 72.5493 31.818 74.4304C33.9547 78.3638 39.852 81.7841 41.9887 82.9813C41.9887 81.6131 42.2451 79.3044 43.0998 78.2783C44.1254 77.0812 45.4929 75.7131 46.8603 74.4304C49.5953 71.7797 52.6721 68.7869 52.7576 66.9912C52.8431 65.7941 52.8431 64.6825 52.8431 63.7419C52.8431 63.4854 52.7576 62.9724 53.1849 62.4593C53.5268 61.9463 54.296 61.6042 55.3216 61.5187Z" fill="black"/>
<path d="M49.5243 66.8473C50.3549 62.4867 47.8708 58.3498 43.976 57.6072C40.0812 56.8646 36.2505 59.7976 35.4199 64.1581C34.5892 68.5187 37.0733 72.6556 40.9681 73.3982C44.8629 74.1408 48.6937 71.2079 49.5243 66.8473Z" fill="white"/>
<path d="M42.929 74.0029C42.2453 74.0884 41.5616 74.0029 40.8778 73.9174C38.8266 73.4899 37.1172 72.2928 36.0062 70.4116C34.8951 68.5304 34.4677 66.3072 34.8951 64.084C35.7498 59.4665 39.9377 56.3027 44.0401 57.0723C46.0913 57.4999 47.8007 58.697 48.9118 60.5782C50.0229 62.4593 50.4502 64.6825 50.0229 66.9057C49.5955 69.129 48.399 71.0956 46.6896 72.4638C45.5785 73.4044 44.2965 73.9174 42.929 74.0029ZM42.1598 58.0984C39.2539 58.4404 36.6044 60.9202 36.0062 64.255C35.6643 66.2217 36.0062 68.1884 36.9463 69.813C37.8865 71.4377 39.3394 72.4638 41.1342 72.8058C42.8436 73.1478 44.6384 72.7203 46.0913 71.5232C47.6298 70.4116 48.6554 68.6159 48.9972 66.6492C49.3391 64.6825 48.9972 62.7159 48.0571 61.0912C47.0315 59.5521 45.5785 58.526 43.8692 58.1839C43.2709 58.0984 42.7581 58.0129 42.1598 58.0984Z" fill="black"/>
<path d="M47.9119 66.5964C48.5481 63.2564 46.6582 60.0902 43.6907 59.5244C40.7232 58.9586 37.8019 61.2075 37.1656 64.5475C36.5294 67.8875 38.4193 71.0538 41.3868 71.6196C44.3543 72.1854 47.2756 69.9364 47.9119 66.5964Z" fill="white"/>
<path d="M42.9288 72.2072C42.416 72.2927 41.8178 72.2072 41.3049 72.1216C38.0572 71.5231 35.9205 68.0173 36.6042 64.4259C36.9461 62.7158 37.8862 61.1766 39.1683 60.1505C40.5357 59.1244 42.1596 58.6969 43.698 59.0389C45.3219 59.3809 46.6894 60.3215 47.5441 61.7752C48.3988 63.2288 48.7406 65.0245 48.3988 66.7346C48.0569 68.4448 47.1167 69.9839 45.8347 71.01C44.9801 71.6941 43.9544 72.1216 42.9288 72.2072ZM42.3306 60.065C41.4759 60.1505 40.6212 60.4925 39.9375 61.0911C38.8264 61.9462 38.0572 63.2288 37.8008 64.6824C37.2025 67.6752 38.9119 70.5825 41.5613 71.0955C42.8434 71.3521 44.1254 71.01 45.2365 70.155C46.3475 69.2999 47.1167 68.0173 47.3732 66.5636C47.6296 65.11 47.3731 63.5708 46.6894 62.3737C46.0057 61.1766 44.8946 60.407 43.6126 60.1505C43.1852 59.9795 42.7579 59.9795 42.3306 60.065Z" fill="black"/>
<path d="M44.7595 65.7529C44.9087 64.4391 44.0792 63.2659 42.9067 63.1326C41.7342 62.9994 40.6627 63.9564 40.5135 65.2702C40.3643 66.584 41.1938 67.7572 42.3663 67.8905C43.5388 68.0237 44.6103 67.0667 44.7595 65.7529Z" fill="#1A1A1A"/>
<path d="M42.8433 68.4449C42.6724 68.4449 42.5015 68.4449 42.3305 68.4449C40.8776 68.2738 39.7665 66.8202 40.0229 65.1955C40.1084 64.426 40.4503 63.7419 41.0485 63.2289C41.6468 62.7158 42.3305 62.4593 43.0997 62.5448C44.5527 62.7158 45.6638 64.1695 45.4074 65.7941C45.151 67.2477 44.0399 68.3594 42.8433 68.4449ZM42.5015 63.7419C42.1596 63.7419 41.9032 63.9129 41.6468 64.1695C41.3049 64.5115 41.0485 64.939 41.0485 65.4521C40.9631 66.4782 41.5613 67.3333 42.416 67.4188C43.2707 67.5043 44.0399 66.7347 44.2108 65.7941C44.2963 64.768 43.698 63.9129 42.8433 63.8274C42.7579 63.6564 42.6724 63.6564 42.5015 63.7419Z" fill="black"/>
<path d="M70.2389 73.3906C74.156 72.7761 76.7742 68.7229 76.0869 64.3375C75.3996 59.9521 71.667 56.8951 67.75 57.5096C63.833 58.1241 61.2148 62.1773 61.9021 66.5627C62.5893 70.9481 66.3219 74.0051 70.2389 73.3906Z" fill="white"/>
<path d="M69.6805 74.0028C67.8002 74.0883 66.0908 73.4898 64.5524 72.2927C62.8431 70.9245 61.732 68.9579 61.3901 66.6491C60.7064 62.0317 63.5268 57.6708 67.7147 56.9867C71.9026 56.3027 75.9196 59.6375 76.6888 64.2549C77.458 68.8723 74.7231 73.1478 70.6206 73.8318C70.6206 73.8318 70.4497 73.9173 70.1933 73.9173C70.0223 74.0028 69.7659 74.0028 69.6805 74.0028ZM68.142 58.0983C68.0566 58.0983 67.9711 58.0983 67.8002 58.0983C64.2105 58.6969 61.8174 62.4592 62.4157 66.4781C62.7576 68.4448 63.6977 70.2405 65.1507 71.4376C66.6036 72.6347 68.313 73.1477 70.1078 72.8912C73.6974 72.2927 76.0905 68.5303 75.4923 64.5114C74.894 60.4926 71.6462 57.6708 68.142 58.0983Z" fill="black"/>
<path d="M70.0214 71.5348C72.9592 71.074 74.9199 68.0151 74.4007 64.7027C73.8816 61.3904 71.0792 59.0787 68.1415 59.5396C65.2037 60.0004 63.243 63.0592 63.7621 66.3716C64.2812 69.684 67.0836 71.9957 70.0214 71.5348Z" fill="white"/>
<path d="M69.0821 72.0361C66.1762 71.9506 63.6976 69.6419 63.1848 66.3926C62.9284 64.6824 63.2703 62.9723 64.125 61.5186C65.0651 60.065 66.4326 59.2099 67.971 58.9534C71.2188 58.4403 74.2956 60.9201 74.8939 64.5114C75.1503 66.2216 74.8084 67.9317 73.9538 69.3854C73.0991 70.668 71.988 71.5231 70.6205 71.8651C70.5351 71.8651 70.2787 71.9506 69.9368 72.0361C69.5949 72.0361 69.1676 72.0361 69.0821 72.0361ZM68.3984 60.065C68.3129 60.065 68.2274 60.065 68.142 60.065C66.8599 60.236 65.7489 61.0056 65.0651 62.1172C64.2959 63.3143 64.0395 64.7679 64.2105 66.2216C64.6378 69.2144 67.2018 71.2666 69.8513 70.9245C71.1333 70.7535 72.2444 69.9839 72.9282 68.8723C73.6974 67.6752 73.9538 66.2216 73.7828 64.7679C73.3555 61.8607 70.9624 59.8085 68.3984 60.065Z" fill="black"/>
<path d="M69.3664 68.244C70.5322 68.0611 71.3113 66.8539 71.1065 65.5476C70.9018 64.2413 69.7908 63.3306 68.625 63.5135C67.4592 63.6964 66.6801 64.9036 66.8849 66.2099C67.0896 67.5162 68.2006 68.4269 69.3664 68.244Z" fill="#1A1A1A"/>
<path d="M69.3385 68.7868C67.8856 68.9578 66.6035 67.8462 66.3471 66.3071C66.0907 64.6824 67.0309 63.1433 68.4838 62.9723C69.9368 62.7158 71.3043 63.8274 71.5607 65.452C71.8171 67.0767 70.7915 68.5303 69.3385 68.7868C69.424 68.7868 69.3385 68.7868 69.3385 68.7868ZM68.7402 63.9984C67.8001 64.1694 67.2873 65.11 67.3728 66.0506C67.5437 67.0767 68.3129 67.7607 69.1676 67.5897C70.0223 67.4187 70.6205 66.5636 70.4496 65.5375C70.3641 64.6824 69.5949 63.9984 68.7402 63.9984Z" fill="black"/>
<defs>
<filter id="filter0_d_30_2" x="0" y="0" width="110" height="110" filterUnits="userSpaceOnUse" color-interpolation-filters="sRGB">
<feFlood flood-opacity="0" result="BackgroundImageFix"/>
<feColorMatrix in="SourceAlpha" type="matrix" values="0 0 0 0 0 0 0 0 0 0 0 0 0 0 0 0 0 0 127 0" result="hardAlpha"/>
<feMorphology radius="2" operator="dilate" in="SourceAlpha" result="effect1_dropShadow_30_2"/>
<feOffset/>
<feGaussianBlur stdDeviation="3"/>
<feComposite in2="hardAlpha" operator="out"/>
<feColorMatrix type="matrix" values="0 0 0 0 0.184314 0 0 0 0 0.768627 0 0 0 0 0.827451 0 0 0 0.75 0"/>
<feBlend mode="normal" in2="BackgroundImageFix" result="effect1_dropShadow_30_2"/>
<feBlend mode="normal" in="SourceGraphic" in2="effect1_dropShadow_30_2" result="shape"/>
</filter>
</defs>
</svg>
