<svg width="17" height="17" viewBox="0 0 17 17" fill="none" xmlns="http://www.w3.org/2000/svg">
<g clip-path="url(#clip0_2042_9)">
<circle cx="8.5" cy="8.5" r="7.75" stroke="#869DC8" stroke-width="1.5"/>
<path d="M6.8816 9.415C7.01153 9.5337 7.18216 9.59783 7.3581 9.59411C7.53405 9.59038 7.70181 9.51909 7.8266 9.395L12.0566 5.16C12.1627 5.0572 12.3062 4.9998 12.4566 5C12.7366 5.00333 12.9066 5.07167 12.9666 5.205C13.0645 5.42774 13.0959 5.67313 13.0568 5.91054C13.0176 6.14795 12.9098 6.36688 12.7466 6.54C11.2899 8.1 9.67993 9.70833 7.9166 11.365C7.79181 11.4822 7.63142 11.5546 7.46046 11.5709C7.28951 11.5871 7.11761 11.5464 6.9716 11.455C6.0566 10.875 4.0666 9.135 4.0016 8.045C3.98827 7.85167 4.05827 7.68 4.2116 7.53C4.28954 7.45395 4.39378 7.41062 4.50329 7.40876C4.61279 7.40691 4.7194 7.44666 4.8016 7.52L6.8816 9.415Z" fill="#869DC8"/>
</g>
<defs>
<clipPath id="clip0_2042_9">
<rect width="17" height="17" fill="white"/>
</clipPath>
</defs>
</svg>
