<svg width="60" height="60" viewBox="0 0 60 60" fill="none" xmlns="http://www.w3.org/2000/svg">
<path d="M57 36C56.2044 36 55.4413 36.3161 54.8787 36.8787C54.3161 37.4413 54 38.2044 54 39V51C54 51.7956 53.6839 52.5587 53.1213 53.1213C52.5587 53.6839 51.7956 54 51 54H9C8.20435 54 7.44129 53.6839 6.87868 53.1213C6.31607 52.5587 6 51.7956 6 51V39C6 38.2044 5.68393 37.4413 5.12132 36.8787C4.55871 36.3161 3.79565 36 3 36C2.20435 36 1.44129 36.3161 0.87868 36.8787C0.31607 37.4413 0 38.2044 0 39V51C0 53.3869 0.948212 55.6761 2.63604 57.364C4.32387 59.0518 6.61305 60 9 60H51C53.3869 60 55.6761 59.0518 57.364 57.364C59.0518 55.6761 60 53.3869 60 51V39C60 38.2044 59.6839 37.4413 59.1213 36.8787C58.5587 36.3161 57.7956 36 57 36ZM27.87 41.13C28.1553 41.4031 28.4917 41.6172 28.86 41.76C29.2191 41.9187 29.6074 42.0007 30 42.0007C30.3926 42.0007 30.7809 41.9187 31.14 41.76C31.5083 41.6172 31.8447 41.4031 32.13 41.13L44.13 29.13C44.6949 28.5651 45.0123 27.7989 45.0123 27C45.0123 26.2011 44.6949 25.4349 44.13 24.87C43.5651 24.3051 42.7989 23.9877 42 23.9877C41.2011 23.9877 40.4349 24.3051 39.87 24.87L33 31.77V3C33 2.20435 32.6839 1.44129 32.1213 0.87868C31.5587 0.31607 30.7956 0 30 0C29.2044 0 28.4413 0.31607 27.8787 0.87868C27.3161 1.44129 27 2.20435 27 3V31.77L20.13 24.87C19.8503 24.5903 19.5182 24.3684 19.1527 24.217C18.7873 24.0656 18.3956 23.9877 18 23.9877C17.6044 23.9877 17.2127 24.0656 16.8473 24.217C16.4818 24.3684 16.1497 24.5903 15.87 24.87C15.5903 25.1497 15.3684 25.4818 15.217 25.8473C15.0656 26.2127 14.9877 26.6044 14.9877 27C14.9877 27.3956 15.0656 27.7873 15.217 28.1527C15.3684 28.5182 15.5903 28.8503 15.87 29.13L27.87 41.13Z" fill="#869DC8"/>
</svg>
