<svg width="15" height="17" viewBox="0 0 15 17" fill="none" xmlns="http://www.w3.org/2000/svg">
<g clip-path="url(#clip0_2033_481)">
<path d="M13.04 17H0.89L0 15.84V2.36999C0.323333 2.15332 0.591667 1.88832 0.805 1.57499C0.843346 1.51813 0.894846 1.47153 0.954992 1.43928C1.01514 1.40703 1.08209 1.39011 1.15 1.38999L5.9 1.36999C5.98328 1.37003 6.06535 1.35007 6.13931 1.31179C6.21327 1.2735 6.27695 1.21801 6.325 1.14999C6.42833 1.00332 6.50167 0.838325 6.545 0.654991C6.56584 0.568295 6.61251 0.490138 6.67869 0.431109C6.74488 0.372081 6.82737 0.335035 6.915 0.324991C7.02167 0.311658 7.12667 0.316658 7.23 0.339991C7.3063 0.356983 7.37457 0.399383 7.42362 0.460245C7.47267 0.521107 7.4996 0.596823 7.5 0.674991C7.5 0.851658 7.54667 1.00832 7.64 1.14499C7.73667 1.28832 7.87167 1.35999 8.045 1.35999L12.855 1.41499C13.065 1.41499 13.2067 1.51332 13.28 1.70999C13.34 1.86666 13.4433 1.97666 13.59 2.03999C13.86 2.15332 13.995 2.35666 13.995 2.64999C13.9983 7.04999 14.0017 11.2517 14.005 15.255C14.005 15.9483 13.6833 16.53 13.04 17ZM7.165 3.76999C6.99833 3.80666 6.84333 3.79499 6.7 3.73499C6.54667 3.67499 6.46833 3.55999 6.465 3.38999C6.46167 3.22332 6.41167 3.07832 6.315 2.95499C6.26522 2.88978 6.20143 2.83691 6.12859 2.80049C6.05576 2.76407 5.97582 2.74508 5.895 2.74499L1.63 2.73499C1.46 2.73499 1.375 2.82166 1.375 2.99499V15.375C1.375 15.545 1.45833 15.63 1.625 15.63L12.375 15.625C12.5417 15.625 12.625 15.5417 12.625 15.375L12.63 3.00499C12.63 2.83499 12.5467 2.74999 12.38 2.74999L7.985 2.74499C7.795 2.74166 7.675 2.83166 7.625 3.01499L7.505 3.44499C7.45833 3.62166 7.345 3.72999 7.165 3.76999Z" fill="#869DC8"/>
<path d="M6.47987 9.81501L9.56987 6.91501C9.89987 6.60501 10.1815 6.64335 10.4149 7.03001C10.4615 7.11335 10.5232 7.18335 10.5999 7.24001C10.9732 7.53001 10.9899 7.84001 10.6499 8.17001L6.35487 12.32C6.28688 12.3856 6.19583 12.4219 6.10135 12.4209C6.00688 12.42 5.91655 12.3819 5.84987 12.315L3.52487 10.04C3.43686 9.95452 3.36725 9.85193 3.32034 9.73855C3.27342 9.62516 3.25018 9.50339 3.25206 9.3807C3.25393 9.258 3.28087 9.13699 3.33123 9.0251C3.38158 8.9132 3.45429 8.81278 3.54487 8.73001L3.67987 8.61001C3.93987 8.37335 4.19987 8.37668 4.45987 8.62001L5.71987 9.81501C5.82279 9.91169 5.95868 9.96551 6.09987 9.96551C6.24107 9.96551 6.37696 9.91169 6.47987 9.81501Z" fill="#859CCC"/>
</g>
<defs>
<clipPath id="clip0_2033_481">
<rect width="15" height="17" fill="white"/>
</clipPath>
</defs>
</svg>
