<svg width="84" height="75" viewBox="0 0 84 75" fill="none" xmlns="http://www.w3.org/2000/svg">
<path d="M46.6933 47.2259C46.1685 46.8464 45.3928 46.9135 44.9616 47.3764L41.4861 51.1079L40.1729 50.1047C39.6594 49.7126 38.8824 49.7612 38.4371 50.2134C37.9919 50.6657 38.0472 51.3503 38.5605 51.7426L40.829 53.4756C41.0536 53.6474 41.3402 53.7407 41.6352 53.7407C41.6698 53.7407 41.7045 53.7394 41.7392 53.7368C42.0703 53.7121 42.3758 53.5705 42.5865 53.3443L46.8639 48.7516C47.2952 48.2888 47.219 47.6058 46.6933 47.2259Z" fill="#DEC69A"/>
<path d="M75.9731 63.0978C75.7614 63.0468 75.5509 62.9962 75.3419 62.9449C75.0661 62.8773 74.8461 62.533 74.6804 62.1916C77.8495 60.2559 80.21 56.9382 80.21 54.0459V51.4157C80.21 48.1702 79.0561 45.4143 76.8731 43.446C74.9139 41.6794 72.2751 40.6838 69.4429 40.6426C69.4294 40.6425 69.4157 40.6425 69.4022 40.6426C66.57 40.684 63.9312 41.6795 61.972 43.446C59.789 45.4143 58.6351 48.1702 58.6351 51.4157V54.0459C58.6351 56.9384 60.9961 60.2555 64.1662 62.1909C64.0011 62.5323 63.7808 62.877 63.502 62.9451C63.2927 62.9967 63.0811 63.0475 62.8681 63.0989C61.8037 63.3552 60.6158 63.6416 59.4871 64.0768L50.9115 56.264C52.2811 54.7087 53.1018 52.7475 53.1018 50.6166C53.1018 45.9283 49.1438 42.0556 44.0685 41.5418V34.0261H55.6657C56.7687 34.0261 57.666 33.2292 57.666 32.2497V29.98C57.666 24.7172 53.0193 23.6023 49.6263 22.7881C49.4186 22.7383 49.212 22.6887 49.0069 22.6384C48.7289 22.5705 48.5089 22.2258 48.3436 21.8829C51.5145 19.9494 53.8762 16.633 53.8762 13.7396V11.1096C53.8762 7.86386 52.7221 5.10794 50.5385 3.13971C48.5789 1.3734 45.9388 0.377726 43.1045 0.336534C43.091 0.33639 43.0772 0.33639 43.0638 0.336534C40.2314 0.37787 37.5926 1.3734 35.6336 3.13986C33.4505 5.10823 32.2967 7.86414 32.2967 11.1096V13.7399C32.2967 16.6334 34.6585 19.95 37.8292 21.8834C37.664 22.2261 37.4437 22.5708 37.1652 22.6388C36.9608 22.689 36.7541 22.7384 36.5466 22.7884C33.1536 23.6026 28.5068 24.7176 28.5068 29.9803V32.25C28.5068 33.2295 29.4043 34.0264 30.5071 34.0264H41.6076V41.5607C36.6117 42.1405 32.7385 45.9791 32.7385 50.6167C32.7385 52.7494 33.5605 54.7121 34.932 56.268L26.5978 63.9353C24.9887 62.8091 22.8918 62.3021 21.1319 61.8781C20.919 61.827 20.7071 61.7758 20.4955 61.7238C20.2184 61.656 19.9986 61.3114 19.8337 60.9701C23.0039 59.0345 25.3647 55.7175 25.3647 52.825V50.1948C25.3647 46.9494 24.2109 44.1935 22.0279 42.2251C20.0686 40.4585 17.4298 39.463 14.5976 39.4218C14.5842 39.4216 14.5704 39.4216 14.5569 39.4218C11.7247 39.4631 9.08595 40.4586 7.12671 42.2251C4.9437 44.1935 3.78984 46.9494 3.78984 50.1948V52.825C3.78984 55.7172 6.14988 59.0346 9.31941 60.9706C9.1537 61.3122 8.93353 61.6564 8.65725 61.7242C8.44873 61.7754 8.23823 61.8261 8.02659 61.8771C4.6392 62.692 0 63.8084 0 69.0693V71.339C0 72.3185 0.897422 73.1154 2.00025 73.1154H11.7621C12.4418 73.1154 12.9926 72.6301 12.9926 72.0314C12.9926 71.4328 12.4418 70.9475 11.7621 70.9475H2.46094V69.0693C2.46094 66.1644 4.21362 65.1662 7.18266 64.3485L12.6256 67.2225C13.3273 67.6259 13.9524 67.8273 14.5771 67.8273C15.2019 67.8273 15.8261 67.6256 16.5255 67.2222L21.9713 64.3488C24.9408 65.1668 26.6938 66.1646 26.6938 69.0693V70.9475H17.1145C16.4348 70.9475 15.884 71.4328 15.884 72.0314C15.884 72.6301 16.4348 73.1154 17.1145 73.1154H27.1543C28.2573 73.1154 29.1546 72.3185 29.1546 71.339V69.0693C29.1546 67.617 28.7997 66.4819 28.2165 65.5805L36.6621 57.8109C38.39 59.0224 40.5617 59.747 42.9199 59.747C45.2803 59.747 47.4538 59.0211 49.1825 57.8077L57.3144 65.2164C55.8733 66.2569 54.8451 67.8143 54.8451 70.2903V72.56C54.8451 73.5395 55.7425 74.3364 56.8454 74.3364H66.8396C67.5193 74.3364 68.07 73.8511 68.07 73.2524C68.07 72.6538 67.5193 72.1685 66.8396 72.1685H57.306V70.2903C57.306 67.3855 59.0592 66.3879 62.0286 65.5698L67.4743 68.4432C68.1737 68.8466 68.7978 69.0483 69.4227 69.0483C70.0475 69.0483 70.6725 68.8467 71.3742 68.4435L76.817 65.5696C79.7864 66.3871 81.5391 67.3852 81.5391 70.2901V72.1683H72.4064C71.7267 72.1683 71.1759 72.6537 71.1759 73.2523C71.1759 73.851 71.7267 74.3363 72.4064 74.3363H81.9998C83.1027 74.3363 84 73.5393 84 72.5599V70.2901C84 65.0291 79.3606 63.9128 75.9731 63.0978ZM14.5774 41.5895C18.2636 41.6515 22.2011 43.9491 22.8199 48.8299C22.2776 48.6112 21.9309 48.2935 21.5531 47.9474C20.9792 47.4216 20.2342 46.7389 18.9138 46.7389C18.5975 46.7389 18.248 46.7781 17.8603 46.868C17.356 46.9842 16.9286 47.0864 16.5595 47.1749C15.5167 47.4246 14.993 47.5498 14.5773 47.5498C14.1615 47.5498 13.6379 47.4245 12.5951 47.1749C12.2259 47.0865 11.7987 46.9842 11.2957 46.8684C9.2838 46.4029 8.31026 47.2961 7.59905 47.9484C7.22203 48.294 6.87602 48.6113 6.33478 48.8297C6.95395 43.9489 10.8913 41.6515 14.5774 41.5895ZM6.25095 52.8249V51.1259C7.91339 50.7854 8.77209 50.0017 9.37371 49.4502C9.97976 48.8945 10.0574 48.8234 10.6721 48.9655C11.1676 49.0795 11.5872 49.1799 11.95 49.2668C13.1642 49.5574 13.8333 49.7176 14.5774 49.7176C15.3216 49.7176 15.9905 49.5574 17.2049 49.2668C17.5676 49.1799 17.9875 49.0795 18.4848 48.965C19.0957 48.8231 19.1733 48.8948 19.7794 49.4499C20.3815 50.0016 21.2412 50.7854 22.9041 51.1259V52.8249C22.9041 55.5598 19.9272 58.9515 16.5332 60.0829C15.0895 60.5648 14.0644 60.5646 12.6176 60.0829C9.22573 58.9511 6.25095 55.5594 6.25095 52.8249ZM15.2389 65.3739C15.2234 65.3821 15.2081 65.3905 15.193 65.3993C14.5999 65.7445 14.5537 65.7448 13.9553 65.3981C13.941 65.3898 13.9264 65.3817 13.9117 65.3739L10.2249 63.4272C10.8298 63.0462 11.2201 62.5034 11.4814 62.0163C11.5697 62.0483 11.6576 62.0809 11.7464 62.1105C12.7522 62.4453 13.6646 62.6126 14.5768 62.6126C15.4891 62.6126 16.4008 62.4451 17.4042 62.1103C17.4937 62.0805 17.5823 62.0477 17.6712 62.0154C17.932 62.5029 18.322 63.0462 18.9277 63.4274L15.2389 65.3739ZM43.0841 2.5045C46.7724 2.5665 50.7122 4.86382 51.3312 9.74522C50.7877 9.52611 50.4407 9.20756 50.0629 8.8604C49.4896 8.33373 48.7456 7.65024 47.4239 7.65024C47.1073 7.65024 46.7575 7.68941 46.3692 7.77959C45.877 7.89392 45.4579 7.9948 45.0947 8.08224C44.0375 8.3369 43.5068 8.46482 43.0841 8.46482C42.6656 8.46482 42.1367 8.33734 41.0822 8.08325C40.7182 7.99552 40.2979 7.89421 39.803 7.7793C37.7928 7.31334 36.8192 8.20798 36.108 8.86069C35.7304 9.20727 35.3837 9.52538 34.8416 9.74435C35.4608 4.86382 39.3981 2.56665 43.0841 2.5045ZM34.7576 13.7399V12.0408C36.4214 11.6999 37.2811 10.9146 37.8833 10.3619C38.4891 9.80592 38.567 9.73452 39.1763 9.87573C39.6621 9.98861 40.0752 10.0882 40.433 10.1743C41.6597 10.4697 42.3353 10.6326 43.0841 10.6326C43.8372 10.6326 44.5144 10.4695 45.7439 10.1733C46.1009 10.0873 46.5127 9.98817 46.9959 9.87587C47.6054 9.73452 47.6826 9.80592 48.2867 10.3609C48.8888 10.914 49.7488 11.7 51.4151 12.0409V13.7399C51.4151 16.427 48.3791 19.8842 45.0442 20.9938C43.599 21.4762 42.5741 21.4762 41.1273 20.9935C37.7936 19.8842 34.7576 16.427 34.7576 13.7399ZM47.4365 24.3408L43.7504 26.2848C43.7348 26.293 43.7195 26.3015 43.7043 26.3104C43.1096 26.6565 43.0635 26.6565 42.4687 26.3104C42.4535 26.3014 42.4379 26.2929 42.4221 26.2845L38.735 24.3416C39.341 23.9601 39.7315 23.4166 39.9927 22.9276C40.0806 22.9594 40.1682 22.9918 40.2568 23.0213C41.262 23.3567 42.1744 23.5244 43.0869 23.5244C43.9989 23.5244 44.911 23.3567 45.9152 23.0215C46.0041 22.9919 46.092 22.9594 46.1803 22.9275C46.4413 23.4163 46.8313 23.9594 47.4365 24.3408ZM30.9678 31.8583V29.9803C30.9678 27.078 32.7201 26.0792 35.6888 25.2626L41.1362 28.1332C41.8369 28.5371 42.4617 28.7392 43.0864 28.7392C43.7113 28.7392 44.3361 28.5371 45.0368 28.133L50.4812 25.2619C53.4517 26.0787 55.2051 27.0771 55.2051 29.9803V31.8583H30.9678ZM42.9201 57.5791C38.663 57.5791 35.1994 54.4557 35.1994 50.6166C35.1994 46.7752 38.6628 43.65 42.9201 43.65C47.1773 43.65 50.6408 46.7752 50.6408 50.6166C50.6408 54.4557 47.1775 57.5791 42.9201 57.5791ZM69.4226 42.8103C73.1087 42.8723 77.046 45.1698 77.6651 50.0504C77.1238 49.8321 76.7778 49.5147 76.4008 49.1691C75.6896 48.517 74.7157 47.6236 72.7056 48.0889C72.2013 48.2051 71.7739 48.3073 71.4048 48.3957C70.362 48.6455 69.8383 48.7706 69.4226 48.7706C69.0068 48.7706 68.4831 48.6453 67.4402 48.3956C67.071 48.3073 66.6438 48.2049 66.1415 48.0893C64.1329 47.6236 63.1582 48.5164 62.4468 49.1682C62.0689 49.5144 61.7223 49.8321 61.1799 50.0507C61.7991 45.1701 65.7366 42.8725 69.4226 42.8103ZM61.0962 54.0457V52.3468C62.7592 52.0062 63.6188 51.2224 64.2209 50.6708C64.827 50.1155 64.9048 50.0444 65.5174 50.1863C66.0127 50.3003 66.4324 50.4008 66.7949 50.4877C68.0095 50.7783 68.6785 50.9384 69.4227 50.9384C70.1669 50.9384 70.8358 50.7783 72.0502 50.4877C72.4129 50.4008 72.8328 50.3003 73.3295 50.1859C73.9428 50.0441 74.0207 50.1153 74.6264 50.6709C75.2281 51.2226 76.0868 52.0062 77.7492 52.3466V54.0456C77.7492 56.7801 74.7743 60.1718 71.3839 61.3033C69.9354 61.7854 68.9107 61.7855 67.4666 61.3035C64.073 60.1722 61.0962 56.7807 61.0962 54.0457ZM70.0883 66.5949C70.0736 66.6027 70.059 66.6107 70.0447 66.619C69.4467 66.9656 69.4004 66.9656 68.807 66.6204C68.7919 66.6115 68.7765 66.603 68.7611 66.5949L65.0718 64.6484C65.6778 64.2671 66.0678 63.7239 66.3287 63.2367C66.4174 63.2688 66.5059 63.3016 66.5951 63.3314C67.5988 63.6663 68.5105 63.8338 69.4229 63.8338C70.3351 63.8338 71.2482 63.6663 72.2546 63.3314C72.343 63.3019 72.4306 63.2694 72.5186 63.2376C72.7799 63.7247 73.1702 64.2675 73.775 64.6485L70.0883 66.5949Z" fill="#DEC69A"/>
</svg>
