<svg width="85" height="78" viewBox="0 0 85 78" fill="none" xmlns="http://www.w3.org/2000/svg">
<g clip-path="url(#clip0_2:227)">
<path d="M66.4089 41.8392H23.6393C22.9597 41.8392 22.409 42.3508 22.409 42.9817C22.409 43.6125 22.9599 44.1241 23.6393 44.1241H66.409C67.0886 44.1241 67.6393 43.6125 67.6393 42.9817C67.6393 42.3508 67.0884 41.8392 66.4089 41.8392Z" fill="#DEC69A"/>
<path d="M66.4089 49.2012H23.6393C22.9597 49.2012 22.409 49.7127 22.409 50.3436C22.409 50.9745 22.9599 51.486 23.6393 51.486H66.409C67.0886 51.486 67.6393 50.9745 67.6393 50.3436C67.6393 49.7127 67.0884 49.2012 66.4089 49.2012Z" fill="#DEC69A"/>
<path d="M66.4089 56.563H23.6393C22.9597 56.563 22.409 57.0746 22.409 57.7054C22.409 58.3363 22.9599 58.8478 23.6393 58.8478H66.409C67.0886 58.8478 67.6393 58.3363 67.6393 57.7054C67.6393 57.0746 67.0884 56.563 66.4089 56.563Z" fill="#DEC69A"/>
<path d="M66.4089 63.9252H23.6393C22.9597 63.9252 22.409 64.4368 22.409 65.0677C22.409 65.6985 22.9599 66.2101 23.6393 66.2101H66.409C67.0886 66.2101 67.6393 65.6985 67.6393 65.0677C67.6393 64.4368 67.0884 63.9252 66.4089 63.9252Z" fill="#DEC69A"/>
<path d="M66.4089 26.767H50.6928C50.0133 26.767 49.4625 27.2785 49.4625 27.9094C49.4625 28.5402 50.0134 29.0518 50.6928 29.0518H66.4089C67.0884 29.0518 67.6392 28.5402 67.6392 27.9094C67.6392 27.2785 67.0884 26.767 66.4089 26.767Z" fill="#DEC69A"/>
<path d="M66.4089 20.7278H50.6928C50.0133 20.7278 49.4625 21.2394 49.4625 21.8703C49.4625 22.5011 50.0134 23.0127 50.6928 23.0127H66.4089C67.0884 23.0127 67.6392 22.5011 67.6392 21.8703C67.6392 21.2394 67.0884 20.7278 66.4089 20.7278Z" fill="#DEC69A"/>
<path d="M74.9304 63.5395C75.61 63.5395 76.1607 63.028 76.1607 62.3971V11.1589C76.1607 8.68146 73.9902 6.66595 71.3222 6.66595H68.982V4.49292C68.9822 2.01551 66.8116 0 64.1437 0H12.8385C10.1705 0 8 2.01551 8 4.49292V66.8411C8 69.3185 10.1705 71.334 12.8385 71.334H15.1786V73.5069C15.1786 75.9843 17.3491 77.9998 20.0171 77.9998H71.322C73.99 77.9998 76.1606 75.9843 76.1606 73.5069V67.7381C76.1606 67.1071 75.6097 66.5957 74.9303 66.5957C74.2509 66.5957 73.7 67.1073 73.7 67.7381V73.5071C73.7 74.7246 72.6332 75.715 71.3222 75.715H20.0172C18.7061 75.715 17.6395 74.7246 17.6395 73.5071V11.1589C17.6395 9.94134 18.7062 8.95096 20.0172 8.95096H71.3222C72.6334 8.95096 73.7 9.9415 73.7 11.1589V62.3971C73.7 63.028 74.2509 63.5395 74.9304 63.5395ZM15.1786 11.1589V69.0492H12.8385C11.5273 69.0492 10.4608 68.0587 10.4608 66.8413V4.49292C10.4608 3.27539 11.5275 2.285 12.8385 2.285H64.1437C65.4548 2.285 66.5214 3.27554 66.5214 4.49292V6.6658H20.0172C17.3493 6.66595 15.1786 8.68146 15.1786 11.1589Z" fill="#DEC69A"/>
<path d="M23.5406 22.5697C22.8611 22.5697 22.3103 23.0813 22.3103 23.7122V32.3404C22.3103 34.1322 23.7529 35.6251 25.668 35.8178C26.1322 35.8649 39.3932 35.8195 39.4129 35.8194C39.4173 35.8189 39.4219 35.8185 39.4263 35.818C41.3424 35.626 42.7858 34.1328 42.7858 32.3404V17.4392C42.7858 15.5104 41.096 13.9413 39.0188 13.9413H26.0772C24 13.9413 22.3102 15.5104 22.3102 17.4392V18.3337C22.3102 18.9647 22.8611 19.4761 23.5405 19.4761C24.2199 19.4761 24.7708 18.9645 24.7708 18.3337V17.4392C24.7708 16.7705 25.3568 16.2263 26.0771 16.2263H39.0186C39.7389 16.2263 40.3249 16.7703 40.3249 17.4392V29.1361C39.3848 28.2115 38.2575 27.4589 36.9977 26.9257C37.5258 26.1532 37.8187 25.2481 37.8187 24.3042C37.8187 21.6055 35.4542 19.41 32.5478 19.41C29.6416 19.41 27.2772 21.6055 27.2772 24.3042C27.2772 25.2482 27.57 26.1532 28.0981 26.9257C26.8381 27.4589 25.7109 28.2115 24.7708 29.1362V23.7122C24.771 23.0811 24.2202 22.5697 23.5406 22.5697ZM32.548 21.6948C34.0976 21.6948 35.3581 22.8653 35.3581 24.3042C35.3581 25.1757 34.8918 25.9865 34.111 26.4731C33.6485 26.7612 33.1081 26.9135 32.548 26.9135C31.9879 26.9135 31.4475 26.7613 30.9851 26.4731C30.2042 25.9865 29.7381 25.1757 29.7381 24.3042C29.7381 22.8653 30.9986 21.6948 32.548 21.6948ZM30.1299 28.6501C30.8744 29.0081 31.6988 29.1984 32.548 29.1984C33.397 29.1984 34.2214 29.0081 34.9661 28.6501C37.2953 29.3112 39.1802 30.8906 40.1315 32.978C39.9262 33.2879 39.5743 33.5057 39.1586 33.5464C39.0792 33.551 26.1527 33.5632 25.9657 33.5488L25.9388 33.5466C25.9381 33.5466 25.9374 33.5464 25.9368 33.5464C25.5212 33.5056 25.1696 33.2877 24.9644 32.978C25.9158 30.8906 27.8007 29.3112 30.1299 28.6501Z" fill="#DEC69A"/>
</g>
<defs>
<clipPath id="clip0_2:227">
<rect width="84.1607" height="77.9998" fill="white"/>
</clipPath>
</defs>
</svg>
