<svg width="104" height="63" viewBox="0 0 104 63" fill="none" xmlns="http://www.w3.org/2000/svg">
<path d="M36.9598 16.5516C37.8046 16.5516 38.4894 15.8688 38.4894 15.0265C38.4894 14.1842 37.8046 13.5015 36.9598 13.5015C36.115 13.5015 35.4302 14.1842 35.4302 15.0265C35.4302 15.8688 36.115 16.5516 36.9598 16.5516Z" fill="#DEC69A"/>
<path d="M31.3002 20.5164C32.145 20.5164 32.8298 19.8336 32.8298 18.9913C32.8298 18.1491 32.145 17.4663 31.3002 17.4663C30.4555 17.4663 29.7706 18.1491 29.7706 18.9913C29.7706 19.8336 30.4555 20.5164 31.3002 20.5164Z" fill="#DEC69A"/>
<path d="M29.0058 14.5691C29.8506 14.5691 30.5354 13.8863 30.5354 13.0441C30.5354 12.2018 29.8506 11.519 29.0058 11.519C28.161 11.519 27.4762 12.2018 27.4762 13.0441C27.4762 13.8863 28.161 14.5691 29.0058 14.5691Z" fill="#DEC69A"/>
<path d="M96.0609 22.8764C94.4934 21.5188 93.0076 20.6315 91.5706 19.7736C88.315 17.8297 84.6253 15.6264 78.3282 6.72681L77.6552 5.77549L70.6444 7.61164C60.3226 -2.53721 43.6769 -2.53721 33.3551 7.61164L26.3443 5.77549L25.6713 6.72681C19.3745 15.6267 15.6845 17.8297 12.4292 19.7736C10.9923 20.6315 9.5064 21.5188 7.93886 22.8764C-0.703411 30.3613 -2.54016 43.1708 3.66637 52.6724C7.24748 58.1543 12.7599 61.7614 19.1879 62.8283C19.3623 62.8573 19.9151 62.9091 19.9671 62.9137C20.6214 62.9698 21.2749 62.9979 21.9268 62.9979C28.4857 62.9979 34.8256 60.1784 39.2095 55.2265C46.4711 47.0236 46.9178 35.0216 40.4011 26.3495L44.7317 10.5913L37.2403 8.62915C45.7788 1.59474 58.2222 1.59474 66.7607 8.62915L59.269 10.5913L63.5997 26.3495C57.0829 35.0216 57.5296 47.0239 64.7915 55.2265C69.1769 60.1805 75.5517 63 82.1721 63C82.8892 63 83.609 62.9671 84.3295 62.9C84.4151 62.892 85.1264 62.7749 85.2824 62.7456C91.5095 61.5841 96.841 58.0204 100.334 52.6727C106.54 43.1708 104.703 30.3613 96.0609 22.8764ZM24.7107 27.576C30.5776 28.7445 34.8183 33.8912 34.8183 39.8843C34.8183 46.8086 29.1683 52.4418 22.2248 52.4418C21.8173 52.4415 20.5147 52.3918 19.3935 52.1682C19.3766 52.1649 19.3604 52.1637 19.3436 52.1609C16.8308 51.492 14.6018 50.0441 12.9633 47.9838C8.79605 42.7435 9.68138 35.1002 14.9374 30.9454L15.0121 30.8829C15.0215 30.8747 15.9861 30.035 17.7834 29.2093C19.2735 28.5249 21.6368 27.7236 24.7107 27.576ZM36.686 53.0061C33.6267 56.4621 29.4521 58.7012 24.9722 59.4043C25.2096 58.739 25.3155 58.0265 25.2711 57.3116C25.2329 56.7003 25.0888 56.116 24.8575 55.5767C32.4086 54.3207 38.1837 47.7642 38.1837 39.8846C38.1837 35.6944 36.5449 31.8321 33.8287 28.9601C34.758 29.2718 35.6957 29.6345 36.6398 30.0484C36.9356 30.178 37.2488 30.2436 37.571 30.2436C38.002 30.2436 38.4086 30.1179 38.7601 29.9059C43.1898 37.1374 42.4633 46.4801 36.686 53.0061ZM36.8664 26.5036C33.0446 24.9709 29.2961 24.1947 25.708 24.1947C17.8715 24.1947 13.3524 27.8776 12.8137 28.3428C6.13331 33.6527 5.01486 43.3898 10.3266 50.0682C12.8159 53.1985 16.3713 55.2278 20.3381 55.782C21.1953 55.9015 21.8573 56.6317 21.9124 57.5184C21.9455 58.0528 21.7613 58.5618 21.3933 58.9519C20.961 59.4104 20.3571 59.6214 19.7407 59.5183C14.2534 58.6076 9.54617 55.5258 6.48604 50.8408C1.19085 42.7355 2.7642 31.8019 10.1452 25.4092C11.4891 24.2453 12.7853 23.4712 14.1576 22.6516C17.5781 20.6096 21.4388 18.3043 27.7408 9.60976L40.5868 12.9743C40.5868 12.9746 36.9331 26.3123 36.8664 26.5036ZM67.3135 53.0061C61.5359 46.4801 60.8094 37.1371 65.2394 29.9053C65.5909 30.1176 65.9975 30.2433 66.4285 30.2433C66.7506 30.2433 67.0639 30.1777 67.3604 30.0478C68.3041 29.6342 69.2415 29.2715 70.1708 28.9598C67.4546 31.8315 65.8158 35.6941 65.8158 39.8843C65.8158 47.7636 71.5903 54.3198 79.1417 55.5761C78.9104 56.1153 78.7663 56.7 78.7284 57.311C78.684 58.0229 78.789 58.7314 79.0239 59.3939C74.529 58.6789 70.3584 56.4457 67.3135 53.0061ZM84.6544 52.1612C84.6382 52.164 84.6223 52.1652 84.606 52.1682C83.2661 52.4354 81.7882 52.4418 81.776 52.4418C74.8313 52.4418 69.1812 46.8086 69.1812 39.8843C69.1812 33.8909 73.4225 28.7436 79.2901 27.5757C85.4902 27.8734 88.9513 30.8509 88.981 30.8768L89.0621 30.9454C91.6083 32.9582 93.2159 35.839 93.5885 39.0571C93.9611 42.2753 93.055 45.4455 91.0359 47.9841C89.3971 50.0444 87.1675 51.4926 84.6544 52.1612ZM97.5135 50.8411C94.4533 55.5261 89.7461 58.6079 84.2585 59.5189C83.6448 59.6208 83.0385 59.411 82.6062 58.9525C82.2382 58.5624 82.0537 58.0531 82.0871 57.5187C82.1422 56.632 82.8042 55.9015 83.6614 55.7823C87.6279 55.2281 91.1833 53.1985 93.6726 50.0685C96.2497 46.8278 97.407 42.7804 96.931 38.6722C96.4565 34.5778 94.4169 30.9113 91.1855 28.3431C90.6468 27.8782 86.1277 24.195 78.2912 24.195C74.7031 24.195 70.9546 24.9712 67.133 26.5039C67.0792 26.338 63.4124 12.9749 63.4124 12.9749L76.2584 9.61036C82.5603 18.3049 86.4211 20.6099 89.8416 22.6522C91.2139 23.4718 92.5104 24.2459 93.854 25.4098C101.235 31.8019 102.808 42.7355 97.5135 50.8411Z" fill="#DEC69A"/>
<path d="M67.0395 16.5516C67.8843 16.5516 68.5691 15.8688 68.5691 15.0265C68.5691 14.1842 67.8843 13.5015 67.0395 13.5015C66.1947 13.5015 65.5099 14.1842 65.5099 15.0265C65.5099 15.8688 66.1947 16.5516 67.0395 16.5516Z" fill="#DEC69A"/>
<path d="M72.6989 20.5164C73.5437 20.5164 74.2285 19.8336 74.2285 18.9913C74.2285 18.1491 73.5437 17.4663 72.6989 17.4663C71.8541 17.4663 71.1693 18.1491 71.1693 18.9913C71.1693 19.8336 71.8541 20.5164 72.6989 20.5164Z" fill="#DEC69A"/>
<path d="M74.9934 14.5691C75.8381 14.5691 76.523 13.8863 76.523 13.0441C76.523 12.2018 75.8381 11.519 74.9934 11.519C74.1486 11.519 73.4637 12.2018 73.4637 13.0441C73.4637 13.8863 74.1486 14.5691 74.9934 14.5691Z" fill="#DEC69A"/>
</svg>
