<svg width="63" height="66" viewBox="0 0 63 66" fill="none" xmlns="http://www.w3.org/2000/svg">
<path d="M1.74002 55.0852C1.19167 55.0852 0.747955 54.6209 0.747955 54.0459C0.747955 48.8869 4.75399 44.6901 9.67846 44.6901C10.2273 44.6901 10.6705 45.1545 10.6705 45.7294C10.6705 46.3044 10.2273 46.7687 9.67846 46.7687C5.84827 46.7687 2.73208 50.0333 2.73208 54.0459C2.73208 54.6209 2.28885 55.0852 1.74002 55.0852Z" fill="#DEC69A"/>
<path d="M39.4326 47.8786C39.2641 47.8786 39.0931 47.8339 38.9376 47.7396C37.8898 47.1057 36.6904 46.7698 35.4683 46.7698C34.9194 46.7698 34.4762 46.3054 34.4762 45.7305C34.4762 45.156 34.9194 44.6912 35.4683 44.6912C37.0397 44.6912 38.5825 45.1225 39.9296 45.9385C40.4048 46.2263 40.5676 46.8621 40.2925 47.3579C40.1094 47.6939 39.7756 47.8786 39.4326 47.8786Z" fill="#DEC69A"/>
<path d="M13.6448 46.7687H9.67846C9.13012 46.7687 8.6864 46.3044 8.6864 45.7294C8.6864 45.1545 9.13012 44.6901 9.67846 44.6901H13.6448C14.1936 44.6901 14.6368 45.1545 14.6368 45.7294C14.6368 46.3044 14.1936 46.7687 13.6448 46.7687Z" fill="#DEC69A"/>
<path d="M1.74099 62.3583C1.19361 62.3583 0.748924 61.8939 0.748924 61.3189L0.747955 54.0458C0.747955 53.4724 1.19167 53.0065 1.74002 53.0065C2.28788 53.0065 2.73208 53.4714 2.73208 54.0458L2.73305 61.3189C2.73305 61.8924 2.28982 62.3583 1.74099 62.3583Z" fill="#DEC69A"/>
<path d="M2.73306 63.3976C1.63879 63.3976 0.748932 62.4654 0.748932 61.319C0.748932 60.744 1.19265 60.2797 1.741 60.2797C2.28983 60.2797 2.73306 60.744 2.73306 61.319V61.321C3.28189 61.321 3.72512 61.7849 3.72512 62.3593C3.72512 62.9333 3.28189 63.3976 2.73306 63.3976Z" fill="#DEC69A"/>
<path d="M39.4336 63.3976H2.73306C2.18471 63.3976 1.741 62.9333 1.741 62.3583C1.741 61.7833 2.18471 61.319 2.73306 61.319H39.4336C39.9819 61.319 40.4257 61.7833 40.4257 62.3583C40.4257 62.9333 39.9819 63.3976 39.4336 63.3976Z" fill="#DEC69A"/>
<path d="M15.628 44.6901C15.0796 44.6901 14.6359 44.2258 14.6359 43.6508V39.7742C14.6359 39.1993 15.0796 38.7349 15.628 38.7349C16.1768 38.7349 16.62 39.1993 16.62 39.7742V43.6508C16.62 44.2258 16.1768 44.6901 15.628 44.6901Z" fill="#DEC69A"/>
<path d="M29.5168 44.6901C28.9685 44.6901 28.5248 44.2258 28.5248 43.6508V39.7742C28.5248 39.1993 28.9685 38.7349 29.5168 38.7349C30.0657 38.7349 30.5089 39.1993 30.5089 39.7742V43.6508C30.5089 44.2258 30.0657 44.6901 29.5168 44.6901Z" fill="#DEC69A"/>
<path d="M17.1737 48.8493C16.8235 48.8493 16.4854 48.655 16.3037 48.3119C16.0387 47.809 16.2131 47.1762 16.6937 46.8996L22.0933 43.7797C22.5743 43.5031 23.1774 43.6863 23.4414 44.1882C23.7064 44.6911 23.5315 45.3239 23.0515 45.6005L17.6518 48.7204C17.5002 48.8077 17.3355 48.8493 17.1737 48.8493Z" fill="#DEC69A"/>
<path d="M27.9711 48.8494C27.8093 48.8494 27.6446 48.8078 27.493 48.7205L22.0933 45.6005C21.6142 45.3229 21.4394 44.6911 21.7034 44.1882C21.9683 43.6873 22.5714 43.5041 23.0515 43.7797L28.4512 46.8996C28.9307 47.1772 29.1051 47.809 28.8411 48.3119C28.6609 48.655 28.3213 48.8494 27.9711 48.8494Z" fill="#DEC69A"/>
<path d="M11.6597 48.8493C11.4059 48.8493 11.1516 48.7473 10.9583 48.5449C10.5703 48.1384 10.5703 47.4817 10.9583 47.0752L14.9265 42.916C15.3145 42.5095 15.9414 42.5095 16.3294 42.916C16.7174 43.3224 16.7174 43.9791 16.3294 44.3856L12.3611 48.5449C12.1678 48.7473 11.9135 48.8493 11.6597 48.8493Z" fill="#DEC69A"/>
<path d="M15.628 53.0045C15.3741 53.0045 15.1198 52.9025 14.9265 52.7001L10.9583 48.5449C10.5703 48.1384 10.5703 47.4817 10.9583 47.0752C11.3463 46.6687 11.9731 46.6687 12.3611 47.0752L16.3294 51.2304C16.7174 51.6369 16.7174 52.2936 16.3294 52.7001C16.1361 52.9025 15.8818 53.0045 15.628 53.0045Z" fill="#DEC69A"/>
<path d="M13.6438 55.0831C13.39 55.0831 13.1357 54.9811 12.9424 54.7787C12.5544 54.3722 12.5544 53.7155 12.9424 53.309L14.9265 51.2304C15.3145 50.8239 15.9414 50.8239 16.3294 51.2304C16.7174 51.6369 16.7174 52.2936 16.3294 52.7L14.3452 54.7787C14.152 54.9811 13.8977 55.0831 13.6438 55.0831Z" fill="#DEC69A"/>
<path d="M19.5972 63.3976C19.2944 63.3976 18.998 63.254 18.8027 62.982L12.8504 54.6676C12.521 54.2093 12.6101 53.5577 13.0485 53.2137C13.4859 52.8686 14.1084 52.9609 14.4363 53.4212L20.3887 61.7357C20.7181 62.1939 20.629 62.846 20.1906 63.1896C20.0128 63.3301 19.8045 63.3976 19.5972 63.3976Z" fill="#DEC69A"/>
<path d="M22.5724 63.3976C22.1757 63.3976 21.8008 63.1459 21.6477 62.7343L14.7032 44.0268C14.5051 43.492 14.758 42.8901 15.2681 42.682C15.7786 42.4735 16.3541 42.7394 16.5517 43.2738L23.4962 61.9812C23.6943 62.5161 23.4414 63.118 22.9314 63.326C22.8136 63.3758 22.6925 63.3976 22.5724 63.3976Z" fill="#DEC69A"/>
<path d="M33.4851 48.8493C33.2313 48.8493 32.977 48.7473 32.7837 48.5449L28.8154 44.3856C28.4274 43.9791 28.4274 43.3224 28.8154 42.916C29.2034 42.5095 29.8303 42.5095 30.2183 42.916L34.1865 47.0752C34.5745 47.4817 34.5745 48.1384 34.1865 48.5449C33.9932 48.7473 33.7389 48.8493 33.4851 48.8493Z" fill="#DEC69A"/>
<path d="M29.5168 53.0045C29.263 53.0045 29.0087 52.9025 28.8154 52.7001C28.4274 52.2936 28.4274 51.6369 28.8154 51.2304L32.7837 47.0752C33.1717 46.6687 33.7985 46.6687 34.1865 47.0752C34.5745 47.4817 34.5745 48.1384 34.1865 48.5449L30.2183 52.7001C30.025 52.9025 29.7707 53.0045 29.5168 53.0045Z" fill="#DEC69A"/>
<path d="M31.501 55.0831C31.2471 55.0831 30.9928 54.9811 30.7996 54.7787L28.8154 52.7C28.4274 52.2936 28.4274 51.6369 28.8154 51.2304C29.2034 50.8239 29.8303 50.8239 30.2183 51.2304L32.2024 53.309C32.5904 53.7155 32.5904 54.3722 32.2024 54.7787C32.0091 54.9811 31.7548 55.0831 31.501 55.0831Z" fill="#DEC69A"/>
<path d="M25.5476 63.3976C25.3403 63.3976 25.132 63.3301 24.9532 63.1896C24.5149 62.846 24.4257 62.1939 24.7551 61.7356L30.7075 53.4212C31.0359 52.9619 31.6589 52.8706 32.0953 53.2136C32.5337 53.5577 32.6228 54.2093 32.2934 54.6676L26.3411 62.982C26.1478 63.254 25.8504 63.3976 25.5476 63.3976Z" fill="#DEC69A"/>
<path d="M22.5724 63.3976C22.4523 63.3976 22.3312 63.3758 22.2135 63.327C21.7024 63.119 21.4495 62.5171 21.6486 61.9822L28.5931 43.2747C28.7907 42.7383 29.3672 42.4734 29.8768 42.683C30.3878 42.8911 30.6407 43.493 30.4416 44.0278L23.4971 62.7353C23.3441 63.1459 22.9691 63.3976 22.5724 63.3976Z" fill="#DEC69A"/>
<path d="M35.4683 46.7708H31.501C30.9526 46.7708 30.5089 46.3064 30.5089 45.7315C30.5089 45.157 30.9526 44.6922 31.501 44.6922H35.4683C36.0171 44.6922 36.4603 45.157 36.4603 45.7315C36.4603 46.3064 36.0171 46.7708 35.4683 46.7708Z" fill="#DEC69A"/>
<path d="M19.4863 55.0831C19.3569 55.0831 19.2261 55.0573 19.1002 55.0009C18.5954 54.7776 18.359 54.1677 18.5727 53.6394L20.6668 48.4449C20.8799 47.9161 21.4621 47.6679 21.9664 47.8922C22.4712 48.1155 22.7076 48.7255 22.4939 49.2538L20.3998 54.4483C20.239 54.8451 19.8718 55.0831 19.4863 55.0831Z" fill="#DEC69A"/>
<path d="M25.6585 55.0831C25.272 55.0831 24.9048 54.8451 24.7449 54.4483L22.6509 49.2518C22.4377 48.7225 22.6736 48.1135 23.1784 47.8902C23.6826 47.668 24.2649 47.9141 24.478 48.4429L26.5726 53.6394C26.7857 54.1687 26.5494 54.7776 26.0446 55.0009C25.9187 55.0573 25.7879 55.0831 25.6585 55.0831Z" fill="#DEC69A"/>
<path d="M23.5644 49.8886H21.5803C21.032 49.8886 20.5883 49.4243 20.5883 48.8493C20.5883 48.2749 21.032 47.81 21.5803 47.81H23.5644C24.1133 47.81 24.5565 48.2749 24.5565 48.8493C24.5565 49.4243 24.1133 49.8886 23.5644 49.8886Z" fill="#DEC69A"/>
<path d="M23.5645 49.8886C23.3373 49.8886 23.1082 49.8074 22.9217 49.6405C22.5041 49.269 22.4542 48.6123 22.8107 48.1759L24.7949 45.7355C25.1499 45.298 25.7758 45.2453 26.1924 45.6193C26.6099 45.9902 26.6598 46.6469 26.3038 47.0838L24.3197 49.5238C24.123 49.7648 23.8444 49.8886 23.5645 49.8886Z" fill="#DEC69A"/>
<path d="M21.5803 49.8887C21.3008 49.8887 21.0218 49.7648 20.8256 49.5228L18.8415 47.0823C18.4859 46.6459 18.5349 45.9892 18.9524 45.6183C19.369 45.2453 19.9949 45.297 20.3504 45.7345L22.3345 48.1749C22.6896 48.6113 22.6407 49.268 22.2231 49.6395C22.0366 49.8075 21.8075 49.8887 21.5803 49.8887Z" fill="#DEC69A"/>
<path d="M22.5724 42.6115C13.8206 42.6115 6.69937 35.1511 6.69937 25.9826C6.69937 25.4077 7.14309 24.9433 7.69144 24.9433C8.24027 24.9433 8.6835 25.4077 8.6835 25.9826C8.6835 34.0063 14.9134 40.5329 22.5724 40.5329C30.2313 40.5329 36.4613 34.0063 36.4613 25.9826C36.4613 25.4077 36.905 24.9433 37.4533 24.9433C38.0022 24.9433 38.4454 25.4077 38.4454 25.9826C38.4454 35.1511 31.3246 42.6115 22.5724 42.6115Z" fill="#DEC69A"/>
<path d="M7.69143 27.022C7.14309 27.022 6.69937 26.5576 6.69937 25.9826V14.5503C6.69937 13.9753 7.14309 13.511 7.69143 13.511C8.24027 13.511 8.6835 13.9753 8.6835 14.5503V25.9826C8.6835 26.5576 8.24027 27.022 7.69143 27.022Z" fill="#DEC69A"/>
<path d="M37.4533 27.022C36.905 27.022 36.4613 26.5576 36.4613 25.9827V13.513C36.4613 12.9386 36.905 12.4737 37.4533 12.4737C38.0022 12.4737 38.4454 12.9386 38.4454 13.513V25.9827C38.4454 26.5576 38.0022 27.022 37.4533 27.022Z" fill="#DEC69A"/>
<path d="M37.4534 14.5523C36.905 14.5523 36.4613 14.088 36.4613 13.513C36.4613 10.0739 33.7917 7.27719 30.5089 7.27719C29.9606 7.27719 29.5168 6.81285 29.5168 6.23788C29.5168 5.66342 29.9606 5.19858 30.5089 5.19858C34.885 5.19858 38.4454 8.9285 38.4454 13.513C38.4454 14.088 38.0022 14.5523 37.4534 14.5523Z" fill="#DEC69A"/>
<path d="M30.5089 7.27716C29.9606 7.27716 29.5168 6.81282 29.5168 6.23786V1.0393C29.5168 0.464338 29.9606 0 30.5089 0C31.0577 0 31.501 0.464338 31.501 1.0393V6.23786C31.501 6.81282 31.0577 7.27716 30.5089 7.27716Z" fill="#DEC69A"/>
<path d="M30.5089 2.07861H20.5883C20.0399 2.07861 19.5962 1.61427 19.5962 1.0393C19.5962 0.464338 20.0399 0 20.5883 0H30.5089C31.0577 0 31.501 0.464338 31.501 1.0393C31.501 1.61427 31.0577 2.07861 30.5089 2.07861Z" fill="#DEC69A"/>
<path d="M7.69143 15.5896C7.14309 15.5896 6.69937 15.1252 6.69937 14.5503C6.69937 6.52661 12.9293 0 20.5883 0C21.1371 0 21.5803 0.464338 21.5803 1.0393C21.5803 1.61427 21.1371 2.07861 20.5883 2.07861C14.0236 2.07861 8.6835 7.67299 8.6835 14.5503C8.6835 15.1252 8.24027 15.5896 7.69143 15.5896Z" fill="#DEC69A"/>
<path d="M37.4534 20.7861C37.1995 20.7861 36.9452 20.6841 36.7519 20.4816L32.7837 16.3244C32.3957 15.9179 32.3957 15.2613 32.7837 14.8548C33.1717 14.4483 33.7985 14.4483 34.1865 14.8548L38.1548 19.012C38.5428 19.4185 38.5428 20.0751 38.1548 20.4816C37.9615 20.6841 37.7072 20.7861 37.4534 20.7861Z" fill="#DEC69A"/>
<path d="M22.5724 19.7468C16.4156 19.7468 11.3613 16.6132 11.1486 16.4802C10.6797 16.1854 10.5276 15.548 10.8086 15.0552C11.0891 14.565 11.6965 14.4026 12.1688 14.6969C12.2163 14.7269 16.9814 17.6672 22.5714 17.6672C28.1615 17.6672 32.9266 14.7269 32.974 14.6969C33.4473 14.4026 34.0538 14.565 34.3343 15.0552C34.6152 15.548 34.4631 16.1854 33.9942 16.4802C33.7835 16.6132 28.7292 19.7468 22.5724 19.7468Z" fill="#DEC69A"/>
<path d="M7.69143 20.7861C7.4376 20.7861 7.18329 20.6841 6.99001 20.4816C6.602 20.0751 6.602 19.4185 6.99001 19.012L10.9583 14.8548C11.3463 14.4483 11.9731 14.4483 12.3611 14.8548C12.7491 15.2613 12.7491 15.9179 12.3611 16.3244L8.39285 20.4816C8.19957 20.6841 7.94526 20.7861 7.69143 20.7861Z" fill="#DEC69A"/>
<path d="M42.4205 45.2036C40.228 45.2036 38.4445 43.3346 38.4445 41.0378C38.4445 38.741 40.228 36.8724 42.4205 36.8724C42.9693 36.8724 43.4125 37.3368 43.4125 37.9117C43.4125 38.4862 42.9693 38.951 42.4205 38.951C41.3223 38.951 40.4286 39.8863 40.4286 41.0378C40.4286 42.1897 41.3213 43.125 42.4205 43.125C42.9693 43.125 43.4125 43.5894 43.4125 44.1643C43.4125 44.7388 42.9693 45.2036 42.4205 45.2036Z" fill="#DEC69A"/>
<path d="M61.2619 38.9521H42.4204C41.8721 38.9521 41.4284 38.4877 41.4284 37.9128C41.4284 37.3378 41.8721 36.8735 42.4204 36.8735H61.2619C61.8107 36.8735 62.254 37.3378 62.254 37.9128C62.254 38.4877 61.8107 38.9521 61.2619 38.9521Z" fill="#DEC69A"/>
<path d="M61.2619 45.2036H42.4204C41.8721 45.2036 41.4284 44.7388 41.4284 44.1643C41.4284 43.5894 41.8721 43.125 42.4204 43.125H61.2619C61.8107 43.125 62.254 43.5894 62.254 44.1643C62.254 44.7388 61.8107 45.2036 61.2619 45.2036Z" fill="#DEC69A"/>
<path d="M42.4205 65.9999C40.228 65.9999 38.4445 64.1314 38.4445 61.8346C38.4445 61.2596 38.8877 60.7953 39.4365 60.7953C39.9854 60.7953 40.4286 61.2596 40.4286 61.8346C40.4286 62.985 41.3213 63.9213 42.4205 63.9213C42.9693 63.9213 43.4125 64.3862 43.4125 64.9606C43.4125 65.5356 42.9693 65.9999 42.4205 65.9999Z" fill="#DEC69A"/>
<path d="M61.2619 65.9999H42.4204C41.8721 65.9999 41.4284 65.5356 41.4284 64.9606C41.4284 64.3861 41.8721 63.9213 42.4204 63.9213H61.2619C61.8107 63.9213 62.254 64.3861 62.254 64.9606C62.254 65.5356 61.8107 65.9999 61.2619 65.9999Z" fill="#DEC69A"/>
<path d="M60.2708 45.2036C59.7225 45.2036 59.2787 44.7388 59.2787 44.1643V37.9117C59.2787 37.3368 59.7225 36.8724 60.2708 36.8724C60.8196 36.8724 61.2629 37.3368 61.2629 37.9117V44.1643C61.2629 44.7388 60.8196 45.2036 60.2708 45.2036Z" fill="#DEC69A"/>
<path d="M39.4365 62.8739C38.8877 62.8739 38.4445 62.409 38.4445 61.8346V41.0378C38.4445 40.4634 38.8877 39.9985 39.4365 39.9985C39.9854 39.9985 40.4286 40.4634 40.4286 41.0378V61.8346C40.4286 62.409 39.9854 62.8739 39.4365 62.8739Z" fill="#DEC69A"/>
<path d="M61.2619 65.9999C60.7131 65.9999 60.2698 65.5355 60.2698 64.9606V44.1643C60.2698 43.5894 60.7131 43.125 61.2619 43.125C61.8107 43.125 62.254 43.5894 62.254 44.1643V64.9606C62.254 65.5355 61.8107 65.9999 61.2619 65.9999Z" fill="#DEC69A"/>
<path d="M54.3146 60.7953H46.378C45.8292 60.7953 45.386 60.3305 45.386 59.756C45.386 59.181 45.8292 58.7167 46.378 58.7167H54.3146C54.8629 58.7167 55.3066 59.181 55.3066 59.756C55.3066 60.3305 54.8629 60.7953 54.3146 60.7953Z" fill="#DEC69A"/>
<path d="M50.3463 60.7953C49.7975 60.7953 49.3542 60.3304 49.3542 59.756V49.3629C49.3542 48.788 49.7975 48.3236 50.3463 48.3236C50.8947 48.3236 51.3384 48.788 51.3384 49.3629V59.756C51.3384 60.3304 50.8947 60.7953 50.3463 60.7953Z" fill="#DEC69A"/>
<path d="M54.3146 51.4415H46.378C45.8292 51.4415 45.386 50.9767 45.386 50.4022C45.386 49.8272 45.8292 49.3629 46.378 49.3629H54.3146C54.8629 49.3629 55.3066 49.8272 55.3066 50.4022C55.3066 50.9767 54.8629 51.4415 54.3146 51.4415Z" fill="#DEC69A"/>
<path d="M55.3066 54.5594H53.3225C52.7737 54.5594 52.3304 54.0945 52.3304 53.5201C52.3304 52.9451 52.7737 52.4808 53.3225 52.4808H55.3066C55.855 52.4808 56.2987 52.9451 56.2987 53.5201C56.2987 54.0945 55.855 54.5594 55.3066 54.5594Z" fill="#DEC69A"/>
<path d="M47.3701 54.5594H45.386C44.8372 54.5594 44.3939 54.0945 44.3939 53.5201C44.3939 52.9451 44.8372 52.4808 45.386 52.4808H47.3701C47.9185 52.4808 48.3622 52.9451 48.3622 53.5201C48.3622 54.0945 47.9185 54.5594 47.3701 54.5594Z" fill="#DEC69A"/>
</svg>
