<svg width="60" height="74" viewBox="0 0 60 74" fill="none" xmlns="http://www.w3.org/2000/svg">
<path d="M58.92 52.5747L50.2444 35.4552C51.57 34.7407 52.5 33.1138 52.5 31.2188C52.5 30.3724 52.3013 29.5896 51.9788 28.9062H54.7716C57.1369 28.9062 59.0625 26.5313 59.0625 23.6129C59.0625 21.4357 58.0041 19.5071 56.3653 18.6989L53.7863 17.4258C53.4263 17.2489 53.0119 17.3634 52.7484 17.7172C52.485 18.0699 52.4259 18.5879 52.5994 19.0168C52.8619 19.6632 52.8347 20.387 52.5272 21.001C52.2188 21.6161 51.7059 21.9688 51.12 21.9688H32.8125V19.6562H33.75C34.2675 19.6562 34.6875 19.1394 34.6875 18.5V13.875C34.6875 13.2356 34.2675 12.7188 33.75 12.7188H32.6072L31.9922 9.68475C33.0441 8.86497 33.75 7.42659 33.75 5.78125C33.75 3.23056 32.0681 1.15625 30 1.15625C27.9319 1.15625 26.25 3.23056 26.25 5.78125C26.25 7.42659 26.9559 8.86497 28.0078 9.68475L27.3928 12.7188H26.25C25.7325 12.7188 25.3125 13.2356 25.3125 13.875V18.5C25.3125 19.1394 25.7325 19.6562 26.25 19.6562H27.1875V21.9688H8.88C8.29406 21.9688 7.78125 21.6161 7.47375 21.001C7.16531 20.387 7.13906 19.6632 7.40156 19.0168C7.57594 18.5879 7.51688 18.0699 7.2525 17.7172C6.98906 17.3634 6.57562 17.2489 6.21469 17.4258L3.63656 18.6989C1.99594 19.5071 0.9375 21.4357 0.9375 23.6129C0.9375 26.5313 2.86313 28.9062 5.22937 28.9062H8.02219C7.69875 29.5896 7.5 30.3724 7.5 31.2188C7.5 33.1138 8.43 34.7407 9.75469 35.4552L1.08 52.5747L1.09406 52.5863C1.00313 52.7632 0.9375 52.962 0.9375 53.1875C0.9375 57.7258 5.4675 61.2812 11.25 61.2812C17.0325 61.2812 21.5625 57.7258 21.5625 53.1875C21.5625 52.962 21.4969 52.7632 21.4059 52.5851L21.42 52.5735L12.7444 35.4541C14.07 34.7407 15 33.1138 15 31.2188C15 30.3724 14.8013 29.5896 14.4788 28.9062H27.1875V55.9417C26.6109 56.7545 26.25 57.8056 26.25 58.9688C26.25 60.1308 26.6109 61.1818 27.1866 61.9947C27.1838 63.6943 26.1966 65.1292 24.8372 65.4091L17.9925 66.8162C16.8019 67.0613 15.9375 68.3205 15.9375 69.8097C15.9375 71.4828 17.0409 72.8438 18.3975 72.8438H41.6025C42.9591 72.8438 44.0625 71.4828 44.0625 69.8097C44.0625 68.3205 43.1981 67.0613 42.0075 66.8162L35.1628 65.4091C33.8025 65.1292 32.8162 63.6943 32.8134 61.9947C33.3891 61.1818 33.75 60.1308 33.75 58.9688C33.75 57.8067 33.3891 56.7557 32.8125 55.9417V28.9062H45.5212C45.1987 29.5896 45 30.3724 45 31.2188C45 33.1138 45.93 34.7407 47.2547 35.4552L38.58 52.5747L38.5941 52.5863C38.5031 52.7632 38.4375 52.962 38.4375 53.1875C38.4375 57.7258 42.9675 61.2812 48.75 61.2812C54.5325 61.2812 59.0625 57.7258 59.0625 53.1875C59.0625 52.962 58.9969 52.7632 58.9059 52.5851L58.92 52.5747ZM30 3.46875C31.0341 3.46875 31.875 4.50591 31.875 5.78125C31.875 7.05659 31.0341 8.09375 30 8.09375C28.9659 8.09375 28.125 7.05659 28.125 5.78125C28.125 4.50591 28.9659 3.46875 30 3.46875ZM29.7994 10.3808C29.8669 10.3854 29.9316 10.4062 30 10.4062C30.0684 10.4062 30.1331 10.3854 30.2006 10.3808L30.6741 12.7188H29.3259L29.7994 10.3808ZM27.1875 15.0312H32.8125V17.3438H27.1875V15.0312ZM29.0625 19.6562H30.9375V21.9688H29.0625V19.6562ZM2.8125 23.6129C2.8125 22.3862 3.40875 21.3016 4.33219 20.846L5.36438 20.3373C5.415 20.9906 5.58656 21.6334 5.87906 22.2173C6.52594 23.51 7.64813 24.2812 8.88 24.2812H51.12C52.3519 24.2812 53.4741 23.51 54.1219 22.2173C54.4144 21.6334 54.5869 20.9906 54.6366 20.3373L55.6688 20.846C56.5913 21.3016 57.1875 22.3862 57.1875 23.6129C57.1875 25.2571 56.1038 26.5938 54.7706 26.5938H5.22937C3.89625 26.5938 2.8125 25.2571 2.8125 23.6129ZM11.25 36.8693L18.9328 52.0312H3.56719L11.25 36.8693ZM11.25 58.9688C7.2525 58.9688 3.79688 56.9465 2.98969 54.3438H19.5094C18.7031 56.9465 15.2475 58.9688 11.25 58.9688ZM13.125 31.2188C13.125 32.4941 12.2841 33.5312 11.25 33.5312C10.2159 33.5312 9.375 32.4941 9.375 31.2188C9.375 29.9434 10.2159 28.9062 11.25 28.9062C12.2841 28.9062 13.125 29.9434 13.125 31.2188ZM31.875 58.9688C31.875 60.2441 31.0341 61.2812 30 61.2812C28.9659 61.2812 28.125 60.2441 28.125 58.9688C28.125 57.6934 28.9659 56.6562 30 56.6562C31.0341 56.6562 31.875 57.6934 31.875 58.9688ZM34.8544 67.6903L41.6981 69.0975C41.9822 69.1565 42.1875 69.4548 42.1875 69.8097C42.1875 70.2075 41.925 70.5312 41.6025 70.5312H18.3975C18.075 70.5312 17.8125 70.2075 17.8125 69.8097C17.8125 69.4548 18.0178 69.1565 18.3009 69.0975L25.1456 67.6903C27.0319 67.303 28.4728 65.5721 28.9106 63.3717C29.2584 63.5024 29.6184 63.5938 30 63.5938C30.3816 63.5938 30.7416 63.5024 31.0884 63.3717C31.5262 65.5721 32.9681 67.303 34.8544 67.6903ZM30.9375 54.5079C30.6356 54.4108 30.3253 54.3438 30 54.3438C29.6747 54.3438 29.3644 54.4108 29.0625 54.5079V28.9062H30.9375V54.5079ZM48.75 28.9062C49.7841 28.9062 50.625 29.9434 50.625 31.2188C50.625 32.4941 49.7841 33.5312 48.75 33.5312C47.7159 33.5312 46.875 32.4941 46.875 31.2188C46.875 29.9434 47.7159 28.9062 48.75 28.9062ZM56.4328 52.0312H41.0672L48.75 36.8693L56.4328 52.0312ZM48.75 58.9688C44.7525 58.9688 41.2969 56.9465 40.4897 54.3438H57.0094C56.2031 56.9465 52.7475 58.9688 48.75 58.9688Z" fill="#DEC69A"/>
</svg>
