<svg width="40" height="40" viewBox="0 0 40 40" fill="none" xmlns="http://www.w3.org/2000/svg">
<path d="M29.9683 0H10C4.50794 0 0 4.50794 0 10.0317V30C0 35.4921 4.50794 40 10 40H29.9683C35.4921 40 40 35.4921 40 29.9683V10.0317C40 4.50794 35.4921 0 29.9683 0ZM18.9206 8.22222C18.9841 7.2381 19.9048 7.5873 20.381 7.52381C26.3492 7.71429 31.4921 13.0794 31.4286 18.8571C31.4286 19.4286 31.619 20.254 30.7619 20.254C29.9365 20.254 30.1587 19.3968 30.0635 18.8254C29.2698 12.6984 26.4127 9.80952 20.1905 8.85714C19.6825 8.79365 18.8889 8.88889 18.9206 8.22222ZM27.8413 19.1111C26.8889 19.2381 27.0794 18.4127 26.9841 17.873C26.3492 14.127 25.0159 12.7619 21.1746 11.9365C20.6032 11.8095 19.7143 11.9048 19.873 11.0476C20 10.2222 20.7937 10.5079 21.3968 10.5714C25.2381 11.0159 28.381 14.2857 28.3492 17.873C28.2857 18.254 28.5397 18.9841 27.8413 19.1111ZM25.4603 17.1429C25.4603 17.6508 25.3968 18.127 24.8254 18.1905C24.4127 18.254 24.1587 17.9048 24.0952 17.4921C23.9365 15.9683 23.1111 15.0476 21.5238 14.7937C21.0476 14.7302 20.6032 14.5714 20.8254 13.9365C20.9841 13.5238 21.3651 13.4603 21.7778 13.4603C23.4921 13.4286 25.4603 15.4286 25.4603 17.1429ZM31.4921 28.8571C30.8254 30.6667 28.5714 32.5079 26.6349 32.4762C26.3492 32.4127 25.8095 32.3175 25.3333 32.127C16.8254 28.5397 10.6349 22.6349 7.14286 14.1905C5.96825 11.3651 7.20635 8.95238 10.1587 8C10.6984 7.80952 11.2063 7.80952 11.746 8C13.0159 8.44444 16.2222 12.7937 16.2857 14.0635C16.3492 15.0476 15.6508 15.5873 14.9841 16.0317C13.6825 16.8889 13.6825 17.9683 14.254 19.2064C15.4921 21.9365 17.619 23.8413 20.381 25.0476C21.3651 25.4921 22.3492 25.4603 23.0159 24.4444C24.2222 22.6349 25.7143 22.7302 27.3333 23.8413C28.1587 24.4127 28.9841 24.9524 29.746 25.5556C30.7937 26.4127 32.127 27.1111 31.4921 28.8571Z" fill="#C4AA73"/>
</svg>
