<svg width="45" height="44" viewBox="0 0 45 44" fill="none" xmlns="http://www.w3.org/2000/svg">
<path d="M44.6036 8.74146L30.956 21.9998L44.6036 35.2582C44.8503 34.754 45 34.1966 45 33.6014V10.3982C45 9.80296 44.8503 9.24565 44.6036 8.74146Z" fill="#C4AA73"/>
<path d="M41.0449 6.53125H3.95507C3.34625 6.53125 2.77628 6.6776 2.26063 6.91883L19.7037 23.8883C21.246 25.3964 23.754 25.3964 25.2963 23.8883L42.7394 6.91883C42.2237 6.6776 41.6537 6.53125 41.0449 6.53125Z" fill="#C4AA73"/>
<path d="M0.396387 8.74146C0.149678 9.24565 0 9.80296 0 10.3982V33.6014C0 34.1967 0.149678 34.754 0.396387 35.2582L14.044 21.9998L0.396387 8.74146Z" fill="#C4AA73"/>
<path d="M29.0918 23.823L27.1606 25.7113C24.5907 28.224 20.4092 28.224 17.8393 25.7113L15.9082 23.823L2.26063 37.0814C2.77628 37.3226 3.34625 37.4689 3.95507 37.4689H41.0449C41.6537 37.4689 42.2237 37.3226 42.7394 37.0814L29.0918 23.823Z" fill="#C4AA73"/>
</svg>
