<svg width="30" height="40" viewBox="0 0 30 40" fill="none" xmlns="http://www.w3.org/2000/svg">
<path d="M15 0C6.72896 0 0 6.4986 0 14.4864C0 24.3996 13.4235 38.9526 13.995 39.5673C14.5319 40.1447 15.4691 40.1437 16.005 39.5673C16.5765 38.9526 30 24.3996 30 14.4864C29.9998 6.4986 23.271 0 15 0ZM15 21.7749C10.8386 21.7749 7.4532 18.5053 7.4532 14.4864C7.4532 10.4675 10.8387 7.19798 15 7.19798C19.1613 7.19798 22.5467 10.4676 22.5467 14.4865C22.5467 18.5054 19.1613 21.7749 15 21.7749Z" fill="#C4AA73"/>
</svg>
