<svg width="23" height="34" viewBox="0 0 23 34" fill="none" xmlns="http://www.w3.org/2000/svg">
<path d="M22.1339 0.00707427L16.6172 0C10.4195 0 6.41419 3.28423 6.41419 8.36745V12.2254H0.867441C0.388136 12.2254 0 12.536 0 12.919V18.5088C0 18.8918 0.388578 19.202 0.867441 19.202H6.41419V33.3067C6.41419 33.6898 6.80232 34 7.28163 34H14.5186C14.9979 34 15.386 33.6894 15.386 33.3067V19.202H21.8714C22.3507 19.202 22.7389 18.8918 22.7389 18.5088L22.7415 12.919C22.7415 12.7351 22.6499 12.559 22.4875 12.4288C22.3251 12.2986 22.1038 12.2254 21.8737 12.2254H15.386V8.95496C15.386 7.38306 15.8547 6.58508 18.4167 6.58508L22.133 6.58402C22.6119 6.58402 23 6.27346 23 5.89074V0.700353C23 0.317988 22.6123 0.0077817 22.1339 0.00707427Z" fill="#C4AA73"/>
</svg>
