<svg width="58" height="55" viewBox="0 0 58 55" fill="none" xmlns="http://www.w3.org/2000/svg">
<path d="M7.20843 55L0 48.1644L43.8188 6.61053L40.3723 3.34222L58 0L54.4755 16.7159L51.0289 13.4476L7.20843 55Z" fill="#C4AA73"/>
<path d="M11.8945 0C5.33555 0 0 5.05957 0 11.2793V14.502C0 20.7217 5.33555 25.7812 11.8945 25.7812C18.4535 25.7812 23.7891 20.7217 23.7891 14.502V11.2793C23.7891 5.05957 18.4535 0 11.8945 0ZM16.9922 14.502C16.9922 17.1123 14.6473 19.3359 11.8945 19.3359C9.1418 19.3359 6.79688 17.1123 6.79688 14.502V11.2793C6.79688 8.66895 9.1418 6.44531 11.8945 6.44531C14.6473 6.44531 16.9922 8.66895 16.9922 11.2793V14.502Z" fill="#C4AA73"/>
<path d="M46.1055 29.2188C39.5465 29.2188 34.2109 34.2783 34.2109 40.498V43.7207C34.2109 49.9404 39.5465 55 46.1055 55C52.6645 55 58 49.9404 58 43.7207V40.498C58 34.2783 52.6645 29.2188 46.1055 29.2188ZM51.2031 43.7207C51.2031 46.3311 48.8582 48.5547 46.1055 48.5547C43.3527 48.5547 41.0078 46.3311 41.0078 43.7207V40.498C41.0078 37.8877 43.3527 35.6641 46.1055 35.6641C48.8582 35.6641 51.2031 37.8877 51.2031 40.498V43.7207Z" fill="#C4AA73"/>
</svg>
