<svg width="18" height="23" viewBox="0 0 18 23" fill="none" xmlns="http://www.w3.org/2000/svg">
<path d="M9 0C4.03737 0 0 3.7367 0 8.32969C0 14.0297 8.05412 22.3978 8.39703 22.7512C8.71912 23.0832 9.28146 23.0826 9.60297 22.7512C9.94588 22.3978 18 14.0297 18 8.32969C17.9999 3.7367 13.9626 0 9 0ZM9 12.5206C6.50318 12.5206 4.47192 10.6406 4.47192 8.32969C4.47192 6.01882 6.50323 4.13884 9 4.13884C11.4968 4.13884 13.528 6.01886 13.528 8.32974C13.528 10.6406 11.4968 12.5206 9 12.5206Z" fill="#505050"/>
</svg>
