<svg width="310" height="702" viewBox="0 0 310 702" fill="none" xmlns="http://www.w3.org/2000/svg">
<g filter="url(#filter0_b_57:2)">
<path d="M170.241 132.093H137.962V163.608H108.548V132.093H76.078V104.207H108.548V72.692H137.962V104.207H170.241V132.093Z" fill="white" fill-opacity="0.17"/>
</g>
<g filter="url(#filter1_b_57:2)">
<path d="M174.116 471.468H120.712V523.608H72.048V471.468H18.328V425.332H72.048V373.192H120.712V425.332H174.116V471.468Z" fill="white" fill-opacity="0.37"/>
</g>
<g filter="url(#filter2_b_57:2)">
<path d="M251.77 298.21V301.21H254.77V298.21H251.77ZM206.14 298.21V295.21H203.14V298.21H206.14ZM206.14 342.76V345.76H209.14V342.76H206.14ZM164.56 342.76H161.56V345.76H164.56V342.76ZM164.56 298.21H167.56V295.21H164.56V298.21ZM118.66 298.21H115.66V301.21H118.66V298.21ZM118.66 258.79V255.79H115.66V258.79H118.66ZM164.56 258.79V261.79H167.56V258.79H164.56ZM164.56 214.24V211.24H161.56V214.24H164.56ZM206.14 214.24H209.14V211.24H206.14V214.24ZM206.14 258.79H203.14V261.79H206.14V258.79ZM251.77 258.79H254.77V255.79H251.77V258.79ZM251.77 295.21H206.14V301.21H251.77V295.21ZM203.14 298.21V342.76H209.14V298.21H203.14ZM206.14 339.76H164.56V345.76H206.14V339.76ZM167.56 342.76V298.21H161.56V342.76H167.56ZM164.56 295.21H118.66V301.21H164.56V295.21ZM121.66 298.21V258.79H115.66V298.21H121.66ZM118.66 261.79H164.56V255.79H118.66V261.79ZM167.56 258.79V214.24H161.56V258.79H167.56ZM164.56 217.24H206.14V211.24H164.56V217.24ZM203.14 214.24V258.79H209.14V214.24H203.14ZM206.14 261.79H251.77V255.79H206.14V261.79ZM248.77 258.79V298.21H254.77V258.79H248.77Z" fill="white" fill-opacity="0.17"/>
</g>
<defs>
<filter id="filter0_b_57:2" x="72.078" y="68.692" width="102.163" height="98.916" filterUnits="userSpaceOnUse" color-interpolation-filters="sRGB">
<feFlood flood-opacity="0" result="BackgroundImageFix"/>
<feGaussianBlur in="BackgroundImage" stdDeviation="2"/>
<feComposite in2="SourceAlpha" operator="in" result="effect1_backgroundBlur_57:2"/>
<feBlend mode="normal" in="SourceGraphic" in2="effect1_backgroundBlur_57:2" result="shape"/>
</filter>
<filter id="filter1_b_57:2" x="14.328" y="369.192" width="163.788" height="158.416" filterUnits="userSpaceOnUse" color-interpolation-filters="sRGB">
<feFlood flood-opacity="0" result="BackgroundImageFix"/>
<feGaussianBlur in="BackgroundImage" stdDeviation="2"/>
<feComposite in2="SourceAlpha" operator="in" result="effect1_backgroundBlur_57:2"/>
<feBlend mode="normal" in="SourceGraphic" in2="effect1_backgroundBlur_57:2" result="shape"/>
</filter>
<filter id="filter2_b_57:2" x="114.66" y="210.24" width="141.11" height="136.52" filterUnits="userSpaceOnUse" color-interpolation-filters="sRGB">
<feFlood flood-opacity="0" result="BackgroundImageFix"/>
<feGaussianBlur in="BackgroundImage" stdDeviation="2"/>
<feComposite in2="SourceAlpha" operator="in" result="effect1_backgroundBlur_57:2"/>
<feBlend mode="normal" in="SourceGraphic" in2="effect1_backgroundBlur_57:2" result="shape"/>
</filter>
</defs>
</svg>
