<svg width="40" height="40" viewBox="0 0 40 40" fill="none" xmlns="http://www.w3.org/2000/svg">
<path d="M20.005 0H19.995C8.9675 0 0 8.97 0 20C0 24.375 1.41 28.43 3.8075 31.7225L1.315 39.1525L9.0025 36.695C12.165 38.79 15.9375 40 20.005 40C31.0325 40 40 31.0275 40 20C40 8.9725 31.0325 0 20.005 0Z" fill="#4CAF50"/>
<path d="M31.6425 28.2425C31.16 29.605 29.245 30.735 27.7175 31.065C26.6725 31.2875 25.3075 31.465 20.7125 29.56C14.835 27.125 11.05 21.1525 10.755 20.765C10.4725 20.3775 8.37997 17.6025 8.37997 14.7325C8.37997 11.8625 9.83747 10.465 10.425 9.86496C10.9075 9.37246 11.705 9.14746 12.47 9.14746C12.7175 9.14746 12.94 9.15996 13.14 9.16996C13.7275 9.19496 14.0225 9.22996 14.41 10.1575C14.8925 11.32 16.0675 14.19 16.2075 14.485C16.35 14.78 16.4925 15.18 16.2925 15.5675C16.105 15.9675 15.94 16.145 15.645 16.485C15.35 16.825 15.07 17.085 14.775 17.45C14.505 17.7675 14.2 18.1075 14.54 18.695C14.88 19.27 16.055 21.1875 17.785 22.7275C20.0175 24.715 21.8275 25.35 22.475 25.62C22.9575 25.82 23.5325 25.7725 23.885 25.3975C24.3325 24.915 24.885 24.115 25.4475 23.3275C25.8475 22.7625 26.3525 22.6925 26.8825 22.8925C27.4225 23.08 30.28 24.4925 30.8675 24.785C31.455 25.08 31.8425 25.22 31.985 25.4675C32.125 25.715 32.125 26.8775 31.6425 28.2425Z" fill="#FAFAFA"/>
</svg>
