<svg width="121" height="17" viewBox="0 0 121 17" fill="none" xmlns="http://www.w3.org/2000/svg">
<path d="M12.1477 7.992C13.0277 8.27067 13.717 8.74 14.2157 9.4C14.7143 10.0453 14.9637 10.8447 14.9637 11.798C14.9637 13.1473 14.4357 14.1887 13.3797 14.922C12.3383 15.6407 10.813 16 8.80367 16H0.839672V0.599999H8.36367C10.241 0.599999 11.6783 0.959332 12.6757 1.678C13.6877 2.39667 14.1937 3.372 14.1937 4.604C14.1937 5.352 14.0103 6.01933 13.6437 6.606C13.2917 7.19267 12.793 7.65467 12.1477 7.992ZM4.38167 3.284V6.914H7.92367C8.80367 6.914 9.47101 6.76 9.92567 6.452C10.3803 6.144 10.6077 5.68933 10.6077 5.088C10.6077 4.48667 10.3803 4.03933 9.92567 3.746C9.47101 3.438 8.80367 3.284 7.92367 3.284H4.38167ZM8.53967 13.316C9.47834 13.316 10.1823 13.162 10.6517 12.854C11.1357 12.546 11.3777 12.0693 11.3777 11.424C11.3777 10.148 10.4317 9.51 8.53967 9.51H4.38167V13.316H8.53967ZM29.5859 13.14V16H17.6619V0.599999H29.2999V3.46H21.2039V6.804H28.3539V9.576H21.2039V13.14H29.5859ZM42.5637 12.7H35.4137L34.0497 16H30.3977L37.2617 0.599999H40.7817L47.6677 16H43.9277L42.5637 12.7ZM41.4417 9.994L38.9997 4.098L36.5577 9.994H41.4417ZM55.7852 16.264C53.5852 16.264 51.8692 15.6553 50.6372 14.438C49.4199 13.2207 48.8112 11.4827 48.8112 9.224V0.599999H52.3752V9.092C52.3752 11.8493 53.5192 13.228 55.8072 13.228C56.9219 13.228 57.7725 12.898 58.3592 12.238C58.9459 11.5633 59.2392 10.5147 59.2392 9.092V0.599999H62.7592V9.224C62.7592 11.4827 62.1432 13.2207 60.9112 14.438C59.6939 15.6553 57.9852 16.264 55.7852 16.264ZM69.2133 3.504H64.2853V0.599999H77.7053V3.504H72.7773V16H69.2133V3.504ZM86.7356 10.544V16H83.1716V10.5L77.2096 0.599999H80.9936L85.1076 7.442L89.2216 0.599999H92.7196L86.7356 10.544Z" fill="#6D6875"/>
<path d="M93.7268 8.3H94.2878V16H93.7268V8.3ZM103.241 8.3V16H102.779L97.5319 9.312V16H96.9709V8.3H97.4439L102.68 14.988V8.3H103.241ZM106.491 8.806V12.095H110.594V12.601H106.491V16H105.93V8.3H111.078V8.806H106.491ZM116.04 16.055C115.284 16.055 114.602 15.8863 113.994 15.549C113.385 15.2043 112.905 14.735 112.553 14.141C112.208 13.547 112.036 12.8833 112.036 12.15C112.036 11.4167 112.208 10.753 112.553 10.159C112.905 9.565 113.385 9.09933 113.994 8.762C114.602 8.41733 115.284 8.245 116.04 8.245C116.795 8.245 117.477 8.41367 118.086 8.751C118.694 9.08833 119.171 9.554 119.516 10.148C119.868 10.742 120.044 11.4093 120.044 12.15C120.044 12.8907 119.868 13.558 119.516 14.152C119.171 14.746 118.694 15.2117 118.086 15.549C117.477 15.8863 116.795 16.055 116.04 16.055ZM116.04 15.538C116.685 15.538 117.268 15.3913 117.789 15.098C118.309 14.8047 118.72 14.4013 119.021 13.888C119.321 13.3673 119.472 12.788 119.472 12.15C119.472 11.512 119.321 10.9363 119.021 10.423C118.72 9.90233 118.309 9.49533 117.789 9.202C117.268 8.90867 116.685 8.762 116.04 8.762C115.394 8.762 114.808 8.90867 114.28 9.202C113.759 9.49533 113.348 9.90233 113.048 10.423C112.747 10.9363 112.597 11.512 112.597 12.15C112.597 12.788 112.747 13.3673 113.048 13.888C113.348 14.4013 113.759 14.8047 114.28 15.098C114.808 15.3913 115.394 15.538 116.04 15.538Z" fill="black"/>
</svg>
