<svg width="39" height="38" viewBox="0 0 39 38" fill="none" xmlns="http://www.w3.org/2000/svg">
<path d="M6.75701 26.2732C4.98654 23.2886 4.36651 19.7603 5.01334 16.3509C5.66017 12.9416 7.52936 9.88557 10.2699 7.75682C13.0105 5.62808 16.4339 4.57301 19.8973 4.78974C23.3608 5.00647 26.626 6.48009 29.0798 8.93389C31.5336 11.3877 33.0072 14.6529 33.224 18.1163C33.4407 21.5797 32.3857 25.0031 30.2569 27.7437C28.1282 30.4843 25.0722 32.3535 21.6628 33.0003C18.2535 33.6472 14.7252 33.0272 11.7406 31.2567L11.7406 31.2566L6.81897 32.6628C6.61534 32.721 6.39986 32.7236 6.19486 32.6705C5.98986 32.6174 5.80279 32.5104 5.65304 32.3607C5.50329 32.2109 5.39632 32.0238 5.34319 31.8188C5.29007 31.6138 5.29274 31.3984 5.35092 31.1947L6.75712 26.2731L6.75701 26.2732Z" stroke="black" stroke-width="1.2" stroke-linecap="round" stroke-linejoin="round"/>
<path d="M22.593 27.3125C21.0308 27.3147 19.4834 27.0086 18.0396 26.4118C16.5958 25.815 15.284 24.9391 14.1793 23.8344C13.0746 22.7297 12.1987 21.4179 11.6019 19.9741C11.005 18.5303 10.699 16.9829 10.7012 15.4206C10.7047 14.321 11.1443 13.2676 11.9234 12.4916C12.7026 11.7156 13.7578 11.2803 14.8574 11.2813V11.2813C15.0378 11.2813 15.215 11.3289 15.371 11.4195C15.527 11.51 15.6563 11.6402 15.7457 11.7968L17.4811 14.8337C17.5858 15.0168 17.6398 15.2246 17.6375 15.4355C17.6353 15.6464 17.5769 15.8529 17.4684 16.0338L16.0747 18.3566C16.7917 19.9479 18.0658 21.222 19.657 21.939V21.939L21.9798 20.5453C22.1607 20.4368 22.3672 20.3784 22.5782 20.3762C22.7891 20.3739 22.9968 20.4279 23.18 20.5325L26.2169 22.2679C26.3735 22.3574 26.5037 22.4867 26.5942 22.6427C26.6847 22.7987 26.7324 22.9759 26.7324 23.1563V23.1563C26.7293 24.2547 26.2927 25.3075 25.5176 26.0857C24.7424 26.864 23.6914 27.3049 22.593 27.3125V27.3125Z" stroke="black" stroke-width="1.2" stroke-linecap="round" stroke-linejoin="round"/>
</svg>
