<svg width="349" height="12" viewBox="0 0 349 12" fill="none" xmlns="http://www.w3.org/2000/svg">
<path d="M10.4697 9.62893C13.4697 5.35431 24.0938 4.42497 32.7535 4.94591C37.5659 5.29663 42.1734 6.18655 46.1787 7.53891C51.5938 9.32746 57.009 11.116 63.7541 11.138C70.4992 11.16 83.1219 7.43089 92.802 5.72727C102.482 4.02366 113.297 8.20052 123.52 10.4118C133.743 12.623 144.691 11.5519 154.387 9.24852C164.082 6.94514 171.875 3.69298 181.165 4.68013C190.455 5.66727 192.003 7.95733 198.404 8.87079C204.101 9.51254 210.001 9.40316 215.437 8.55502C221.12 7.5936 226.932 6.78998 232.844 6.14824C238.691 5.74941 244.74 6.38474 249.823 7.93167C256.526 9.60302 262.912 11.1162 270.307 10.8547C277.702 10.5932 285.785 8.54878 293.837 7.70387C310.171 6.23491 327.287 7.14236 342.917 10.306C348.669 11.503 351.348 7.2202 345.596 6.02323C331.416 3.19144 316.101 2.02736 301.033 2.63604C293.417 3.05278 285.962 3.86915 278.806 5.06993C271.71 6.23928 265.912 6.84163 258.567 5.1539C251.222 3.46617 247.083 2.01025 240.671 1.54662C234.381 1.2519 228.096 1.65724 222.331 2.7293C216.526 3.63151 210.709 4.98355 204.61 4.82798C198.511 4.67242 192.798 1.97605 186.725 0.770893C180.653 -0.434261 165.836 1.13834 156.783 3.45809C147.73 5.77785 138.019 8.68101 127.158 6.30346C116.297 3.9259 106.774 -0.518102 93.2493 0.78738C88.0228 1.58423 83.0368 2.66542 78.3909 4.00937C73.8623 5.24422 69.005 6.77076 63.8688 6.63976C58.7326 6.50876 51.7391 3.62968 45.9915 2.28277C40.4427 1.03923 34.4268 0.373439 28.374 0.33304C16.4927 0.180043 4.86357 2.73418 1.19092 8.19196C-0.803995 10.8418 8.47477 12.2788 10.4697 9.62893Z" fill="#F6B643"/>
</svg>
