<svg width="71" height="71" viewBox="0 0 71 71" fill="none" xmlns="http://www.w3.org/2000/svg">
<rect width="71" height="71" rx="35.5" fill="#4C7CD4"/>
<path d="M48.99 23.2526H36.8608V20.5901C36.8608 20.3548 36.7673 20.129 36.6009 19.9626C36.4344 19.7961 36.2087 19.7026 35.9733 19.7026C35.7379 19.7026 35.5122 19.7961 35.3457 19.9626C35.1793 20.129 35.0858 20.3548 35.0858 20.5901V23.2526H22.9566C22.4074 23.2526 21.8807 23.4708 21.4923 23.8592C21.104 24.2475 20.8858 24.7743 20.8858 25.3235V43.0735C20.8858 43.6227 21.104 44.1494 21.4923 44.5378C21.8807 44.9261 22.4074 45.1443 22.9566 45.1443H29.394L25.8129 49.6188C25.7401 49.7099 25.6859 49.8144 25.6534 49.9265C25.621 50.0385 25.611 50.1559 25.6239 50.2718C25.6499 50.5059 25.768 50.7201 25.9519 50.8672C26.1359 51.0143 26.3708 51.0823 26.605 51.0562C26.8391 51.0302 27.0533 50.9121 27.2004 50.7282L31.666 45.1443H40.2806L44.7462 50.7282C44.8191 50.8193 44.9092 50.8951 45.0113 50.9514C45.1135 51.0077 45.2257 51.0433 45.3417 51.0562C45.4576 51.0691 45.5749 51.0591 45.687 51.0267C45.799 50.9942 45.9036 50.94 45.9947 50.8672C46.0858 50.7944 46.1616 50.7043 46.2179 50.6021C46.2742 50.5 46.3098 50.3877 46.3227 50.2718C46.3356 50.1559 46.3256 50.0385 46.2932 49.9265C46.2607 49.8144 46.2065 49.7099 46.1337 49.6188L42.5526 45.1443H48.99C49.5392 45.1443 50.0659 44.9261 50.4543 44.5378C50.8426 44.1494 51.0608 43.6227 51.0608 43.0735V25.3235C51.0608 24.7743 50.8426 24.2475 50.4543 23.8592C50.0659 23.4708 49.5392 23.2526 48.99 23.2526ZM49.2858 43.0735C49.2858 43.1519 49.2546 43.2272 49.1992 43.2827C49.1437 43.3381 49.0684 43.3693 48.99 43.3693H22.9566C22.8782 43.3693 22.8029 43.3381 22.7475 43.2827C22.692 43.2272 22.6608 43.1519 22.6608 43.0735V25.3235C22.6608 25.245 22.692 25.1698 22.7475 25.1143C22.8029 25.0588 22.8782 25.0276 22.9566 25.0276H48.99C49.0684 25.0276 49.1437 25.0588 49.1992 25.1143C49.2546 25.1698 49.2858 25.245 49.2858 25.3235V43.0735ZM32.1275 34.7901V38.3401C32.1275 38.5755 32.034 38.8013 31.8675 38.9677C31.7011 39.1341 31.4754 39.2276 31.24 39.2276C31.0046 39.2276 30.7789 39.1341 30.6124 38.9677C30.446 38.8013 30.3525 38.5755 30.3525 38.3401V34.7901C30.3525 34.5548 30.446 34.329 30.6124 34.1626C30.7789 33.9961 31.0046 33.9026 31.24 33.9026C31.4754 33.9026 31.7011 33.9961 31.8675 34.1626C32.034 34.329 32.1275 34.5548 32.1275 34.7901ZM36.8608 32.4235V38.3401C36.8608 38.5755 36.7673 38.8013 36.6009 38.9677C36.4344 39.1341 36.2087 39.2276 35.9733 39.2276C35.7379 39.2276 35.5122 39.1341 35.3457 38.9677C35.1793 38.8013 35.0858 38.5755 35.0858 38.3401V32.4235C35.0858 32.1881 35.1793 31.9624 35.3457 31.7959C35.5122 31.6295 35.7379 31.536 35.9733 31.536C36.2087 31.536 36.4344 31.6295 36.6009 31.7959C36.7673 31.9624 36.8608 32.1881 36.8608 32.4235ZM41.5941 30.0568V38.3401C41.5941 38.5755 41.5006 38.8013 41.3342 38.9677C41.1678 39.1341 40.942 39.2276 40.7066 39.2276C40.4713 39.2276 40.2455 39.1341 40.0791 38.9677C39.9126 38.8013 39.8191 38.5755 39.8191 38.3401V30.0568C39.8191 29.8214 39.9126 29.5957 40.0791 29.4292C40.2455 29.2628 40.4713 29.1693 40.7066 29.1693C40.942 29.1693 41.1678 29.2628 41.3342 29.4292C41.5006 29.5957 41.5941 29.8214 41.5941 30.0568Z" fill="white"/>
</svg>
