<svg width="81" height="81" viewBox="0 0 81 81" fill="none" xmlns="http://www.w3.org/2000/svg">
<rect width="81" height="81" rx="38" fill="#4C7CD4"/>
<path d="M37.5 26.5469C37.1794 26.2263 36.7831 25.9917 36.3478 25.865C35.9124 25.7382 35.4522 25.7233 35.0096 25.8216C34.567 25.9199 34.1563 26.1284 33.8156 26.4275C33.4749 26.7267 33.2152 27.107 33.0605 27.5332L22.8066 55.7402C22.6593 56.1466 22.6117 56.5825 22.6679 57.0111C22.7241 57.4397 22.8824 57.8485 23.1295 58.2032C23.3766 58.5579 23.7053 58.848 24.0879 59.0492C24.4705 59.2504 24.8958 59.3568 25.3281 59.3594C25.646 59.3586 25.9612 59.3024 26.2598 59.1934L54.459 48.9395C54.8844 48.7837 55.2637 48.5232 55.5619 48.182C55.86 47.8408 56.0673 47.43 56.1646 46.9875C56.262 46.545 56.2462 46.0851 56.1188 45.6504C55.9913 45.2156 55.7563 44.8199 55.4355 44.5L37.5 26.5469ZM25.459 56.9902C25.3963 57.0134 25.3282 57.0182 25.2629 57.0039C25.1976 56.9896 25.1377 56.9569 25.0904 56.9096C25.0431 56.8623 25.0104 56.8024 24.9961 56.7371C24.9818 56.6718 24.9865 56.6037 25.0098 56.541L27.9746 48.3828L33.6172 54.0234L25.459 56.9902ZM36.0469 53.1406L28.8594 45.9512L31.7246 38.0703L43.9297 50.2754L36.0469 53.1406ZM53.8906 46.4824C53.8789 46.5405 53.8521 46.5945 53.8131 46.639C53.774 46.6835 53.724 46.7171 53.668 46.7363L46.3594 49.3984L32.6016 35.6387L35.2637 28.3418C35.2826 28.2856 35.316 28.2354 35.3606 28.1962C35.4052 28.1571 35.4594 28.1305 35.5176 28.1191C35.5442 28.1157 35.5711 28.1157 35.5976 28.1191C35.6432 28.1189 35.6884 28.128 35.7304 28.1458C35.7723 28.1636 35.8102 28.1897 35.8418 28.2227L53.7871 46.168C53.8299 46.2071 53.8619 46.2566 53.88 46.3116C53.8981 46.3667 53.9018 46.4255 53.8906 46.4824ZM47.6406 30.0625C47.6684 29.067 47.9102 28.0891 48.3496 27.1953C49.3144 25.2656 51.1426 24.2031 53.5 24.2031C54.959 24.2031 55.9473 23.668 56.5234 22.5664C56.8159 21.981 56.9835 21.3411 57.0156 20.6875C57.0156 20.3767 57.1391 20.0786 57.3589 19.8589C57.5786 19.6391 57.8767 19.5156 58.1875 19.5156C58.4983 19.5156 58.7964 19.6391 59.0161 19.8589C59.2359 20.0786 59.3594 20.3767 59.3594 20.6875C59.3594 22.7148 58.1348 26.5469 53.5 26.5469C52.041 26.5469 51.0527 27.082 50.4766 28.1836C50.1831 28.7687 50.0155 29.4087 49.9844 30.0625C49.9844 30.3733 49.8609 30.6714 49.6411 30.8911C49.4214 31.1109 49.1233 31.2344 48.8125 31.2344C48.5017 31.2344 48.2036 31.1109 47.9839 30.8911C47.7641 30.6714 47.6406 30.3733 47.6406 30.0625ZM42.9531 23.8125V19.125C42.9531 18.8142 43.0766 18.5161 43.2964 18.2964C43.5161 18.0766 43.8142 17.9531 44.125 17.9531C44.4358 17.9531 44.7339 18.0766 44.9536 18.2964C45.1734 18.5161 45.2969 18.8142 45.2969 19.125V23.8125C45.2969 24.1233 45.1734 24.4214 44.9536 24.6411C44.7339 24.8609 44.4358 24.9844 44.125 24.9844C43.8142 24.9844 43.5161 24.8609 43.2964 24.6411C43.0766 24.4214 42.9531 24.1233 42.9531 23.8125ZM62.1406 40.1719C62.2558 40.2792 62.3481 40.4085 62.4122 40.5523C62.4762 40.696 62.5106 40.8512 62.5134 41.0086C62.5162 41.1659 62.4872 41.3222 62.4283 41.4681C62.3694 41.614 62.2816 41.7466 62.1704 41.8579C62.0591 41.9692 61.9265 42.0569 61.7806 42.1158C61.6347 42.1748 61.4784 42.2037 61.3211 42.2009C61.1637 42.1981 61.0085 42.1637 60.8648 42.0997C60.721 42.0356 60.5917 41.9433 60.4844 41.8281L57.3594 38.7031C57.1524 38.481 57.0397 38.1872 57.045 37.8836C57.0504 37.58 57.1734 37.2903 57.3881 37.0756C57.6028 36.8609 57.8925 36.7379 58.1961 36.7325C58.4996 36.7272 58.7935 36.8399 59.0156 37.0469L62.1406 40.1719ZM63.2461 31.1738L58.5586 32.7363C58.4118 32.7886 58.256 32.811 58.1004 32.8024C57.9448 32.7937 57.7925 32.7541 57.6525 32.6858C57.5124 32.6176 57.3873 32.5221 57.2845 32.4049C57.1818 32.2877 57.1035 32.1513 57.0541 32.0035C57.0048 31.8556 56.9854 31.6995 56.9971 31.5441C57.0088 31.3887 57.0514 31.2372 57.1224 31.0985C57.1934 30.9598 57.2913 30.8366 57.4105 30.7362C57.5297 30.6358 57.6677 30.5601 57.8164 30.5137L62.5039 28.9512C62.7968 28.8597 63.1138 28.8868 63.387 29.0266C63.6601 29.1663 63.8675 29.4076 63.9647 29.6986C64.0619 29.9896 64.041 30.3072 63.9067 30.583C63.7723 30.8588 63.5351 31.071 63.2461 31.1738Z" fill="white"/>
</svg>
