<svg width="58" height="58" viewBox="0 0 58 58" fill="none" xmlns="http://www.w3.org/2000/svg">
<rect width="58" height="58" rx="29" fill="#4C7CD4"/>
<path d="M34.9062 14.375V12.125C34.9062 11.9012 34.9951 11.6866 35.1533 11.5284C35.3116 11.3701 35.5262 11.2812 35.75 11.2812C35.9737 11.2812 36.1884 11.3701 36.3466 11.5284C36.5048 11.6866 36.5937 11.9012 36.5937 12.125V14.375C36.5937 14.5988 36.5048 14.8134 36.3466 14.9716C36.1884 15.1299 35.9737 15.2188 35.75 15.2188C35.5262 15.2188 35.3116 15.1299 35.1533 14.9716C34.9951 14.8134 34.9062 14.5988 34.9062 14.375ZM39.8098 16.5195C39.9044 16.5773 40.0095 16.6158 40.1191 16.633C40.2286 16.6501 40.3404 16.6454 40.4482 16.6193C40.5559 16.5932 40.6575 16.5461 40.747 16.4807C40.8365 16.4153 40.9123 16.333 40.97 16.2383L42.095 14.3947C42.1558 14.3001 42.1971 14.1943 42.2165 14.0835C42.2358 13.9727 42.2328 13.8591 42.2077 13.7495C42.1825 13.6399 42.1357 13.5364 42.07 13.4451C42.0042 13.3539 41.9209 13.2767 41.8249 13.2181C41.7289 13.1595 41.6221 13.1207 41.5109 13.1039C41.3997 13.0872 41.2862 13.0928 41.1772 13.1206C41.0682 13.1483 40.9659 13.1976 40.8762 13.2654C40.7865 13.3333 40.7113 13.4184 40.655 13.5158L39.53 15.3594C39.4721 15.4539 39.4335 15.5589 39.4163 15.6684C39.3991 15.7779 39.4036 15.8897 39.4296 15.9974C39.4555 16.1052 39.5025 16.2067 39.5677 16.2963C39.633 16.3859 39.7152 16.4617 39.8098 16.5195ZM46.0676 18.6177C46.0338 18.5121 45.9795 18.4142 45.9078 18.3297C45.8361 18.2451 45.7484 18.1755 45.6498 18.1248C45.5512 18.0742 45.4436 18.0434 45.3331 18.0344C45.2226 18.0253 45.1114 18.0381 45.0059 18.072L42.8965 18.7541C42.7042 18.815 42.54 18.9428 42.4338 19.1144C42.3276 19.286 42.2864 19.49 42.3177 19.6893C42.349 19.8887 42.4507 20.0702 42.6044 20.201C42.758 20.3318 42.9535 20.4032 43.1553 20.4022C43.2432 20.4019 43.3306 20.3877 43.414 20.36L45.5234 19.6794C45.7363 19.6107 45.9133 19.4603 46.0154 19.2612C46.1174 19.0621 46.1362 18.8306 46.0676 18.6177ZM41.8728 24.2877C43.0914 26.3839 43.5783 28.8258 43.2567 31.2291C42.9352 33.6324 41.8235 35.8605 40.0967 37.5627C39.5177 39.644 38.3371 41.5081 36.7028 42.921C35.0685 44.3339 33.0534 45.2327 30.9102 45.5047C28.767 45.7767 26.5912 45.4098 24.6558 44.45C22.7203 43.4901 21.1114 41.9801 20.0309 40.1094L15.109 31.5833C14.8128 31.0702 14.6568 30.4881 14.6569 29.8956C14.6569 29.3031 14.8129 28.721 15.1092 28.208C15.4055 27.6949 15.8317 27.2688 16.3449 26.9727C16.858 26.6765 17.4401 26.5206 18.0326 26.5208L17.2437 25.1525C16.9565 24.6533 16.8019 24.089 16.7944 23.5132C16.787 22.9374 16.927 22.3692 17.2011 21.8628C17.4752 21.3564 17.8744 20.9285 18.3606 20.6199C18.8468 20.3113 19.4039 20.1323 19.9789 20.0998C19.6184 19.3634 19.5383 18.5208 19.7536 17.7296C19.969 16.9384 20.465 16.2527 21.149 15.8005C21.8331 15.3483 22.6583 15.1607 23.4706 15.2725C24.283 15.3844 25.0268 15.7882 25.5631 16.4084C25.8514 15.8845 26.2738 15.4465 26.7869 15.1394C27.3001 14.8323 27.8857 14.6671 28.4837 14.6607C29.0817 14.6542 29.6707 14.8068 30.1903 15.1028C30.71 15.3988 31.1417 15.8275 31.4412 16.3452L33.3593 19.6611C33.6556 19.1483 34.0817 18.7226 34.5946 18.4266C35.1075 18.1305 35.6893 17.9747 36.2815 17.9747C36.8737 17.9747 37.4555 18.1305 37.9685 18.4266C38.4814 18.7226 38.9074 19.1483 39.2037 19.6611L41.8728 24.2877ZM27.0565 18.875L27.9129 20.36C28.1855 20.6018 28.4164 20.8869 28.5964 21.2037L30.5131 24.5169C30.7911 24.0317 31.1856 23.6234 31.6609 23.3288C32.1362 23.0342 32.6774 22.8625 33.2356 22.8294L29.9843 17.1875C29.7606 16.7998 29.3919 16.5169 28.9596 16.401C28.5272 16.2851 28.0665 16.3457 27.6788 16.5695C27.2911 16.7932 27.0082 17.1619 26.8923 17.5942C26.7764 18.0266 26.837 18.4873 27.0607 18.875H27.0565ZM21.5468 19.4586L22.4047 20.9436C22.5163 21.0438 22.6211 21.1513 22.7182 21.2656C22.9924 20.7629 23.3904 20.3385 23.8744 20.0326C24.3585 19.7267 24.9126 19.5495 25.4843 19.5177L24.4704 17.7711C24.3596 17.5791 24.2121 17.4109 24.0363 17.2759C23.8604 17.141 23.6597 17.042 23.4457 16.9846C23.2316 16.9272 23.0083 16.9125 22.7885 16.9414C22.5688 16.9703 22.3569 17.0422 22.1649 17.153C21.7772 17.3768 21.4943 17.7454 21.3784 18.1778C21.2625 18.6102 21.3231 19.0709 21.5468 19.4586ZM38.495 37.0283C38.8136 35.8512 38.8957 34.6226 38.7367 33.4136C38.5776 32.2045 38.1805 31.039 37.5682 29.9844L34.8964 25.3564C34.6763 24.9814 34.32 24.7058 33.9018 24.587C33.4835 24.4683 33.0355 24.5155 32.6512 24.719C32.267 24.9225 31.9761 25.2664 31.8392 25.6791C31.7023 26.0918 31.73 26.5414 31.9165 26.9342L33.5197 29.7045C33.5775 29.8006 33.6156 29.9072 33.6317 30.0181C33.6479 30.129 33.6418 30.2421 33.6138 30.3506C33.5858 30.4591 33.5364 30.561 33.4686 30.6503C33.4007 30.7395 33.3158 30.8143 33.2187 30.8704C33.1217 30.9265 33.0144 30.9626 32.9032 30.9767C32.792 30.9909 32.6791 30.9827 32.5711 30.9527C32.4631 30.9227 32.3621 30.8715 32.2741 30.8021C32.1861 30.7326 32.1128 30.6464 32.0586 30.5483L27.1367 22.0405C27.0269 21.8479 26.8803 21.6789 26.7052 21.5431C26.5301 21.4072 26.3299 21.3072 26.1161 21.2487C25.9024 21.1902 25.6792 21.1744 25.4593 21.2021C25.2394 21.2299 25.0272 21.3007 24.8347 21.4105C24.4458 21.6322 24.161 21.9993 24.0429 22.431C23.9247 22.8627 23.9829 23.3237 24.2047 23.7125L27.6682 29.7031C27.7261 29.7992 27.7642 29.9058 27.7803 30.0167C27.7965 30.1276 27.7904 30.2406 27.7624 30.3492C27.7344 30.4577 27.685 30.5596 27.6172 30.6488C27.5493 30.7381 27.4644 30.8129 27.3673 30.869C27.2703 30.9251 27.163 30.9612 27.0518 30.9753C26.9406 30.9895 26.8277 30.9813 26.7197 30.9513C26.6117 30.9213 26.5107 30.8701 26.4227 30.8007C26.3347 30.7312 26.2614 30.645 26.2072 30.5469L21.627 22.6241C21.3989 22.2452 21.0312 21.971 20.603 21.8605C20.1748 21.75 19.7204 21.812 19.3374 22.0331C18.9544 22.2543 18.6736 22.6169 18.5553 23.043C18.437 23.4691 18.4907 23.9246 18.7048 24.3116L23.7673 33.0809C23.8744 33.2744 23.9012 33.5022 23.8421 33.7152C23.7829 33.9283 23.6425 34.1096 23.451 34.2202C23.2595 34.3307 23.0323 34.3617 22.8182 34.3065C22.6041 34.2512 22.4203 34.1141 22.3062 33.9247L19.4937 29.0534C19.2699 28.6657 18.9013 28.3828 18.4689 28.2669C18.0366 28.151 17.5759 28.2116 17.1882 28.4354C16.8005 28.6592 16.5176 29.0278 16.4016 29.4602C16.2857 29.8925 16.3463 30.3532 16.5701 30.7409L21.492 39.267C22.4098 40.8568 23.7785 42.1387 25.4249 42.9506C27.0713 43.7625 28.9214 44.068 30.7414 43.8283C32.5614 43.5887 34.2695 42.8148 35.6496 41.6043C37.0297 40.3939 38.0199 38.8015 38.495 37.0283ZM40.4117 25.1314L37.7398 20.5034C37.516 20.1157 37.1474 19.8328 36.715 19.7169C36.2827 19.601 35.822 19.6616 35.4343 19.8854C35.0466 20.1092 34.7637 20.4778 34.6477 20.9102C34.5318 21.3425 34.5924 21.8032 34.8162 22.1909L35.674 23.6773C35.9452 23.9173 36.1759 24.1994 36.3575 24.5127L39.0293 29.1406C39.9359 30.7042 40.4404 32.4683 40.4975 34.2748C41.2763 32.8739 41.6779 31.2946 41.6629 29.6918C41.6479 28.0889 41.2167 26.5175 40.4117 25.1314Z" fill="white"/>
</svg>
