<svg width="58" height="58" viewBox="0 0 58 58" fill="none" xmlns="http://www.w3.org/2000/svg">
<rect width="58" height="58" rx="29" fill="#4C7CD4"/>
<path d="M25.3199 37.0789C25.2665 37.2969 23.9502 42.2188 16.625 42.2188C16.4013 42.2188 16.1867 42.1299 16.0284 41.9716C15.8702 41.8134 15.7813 41.5988 15.7813 41.375C15.7813 34.0499 20.7116 32.7336 20.9211 32.6816C21.1367 32.6316 21.3633 32.6683 21.552 32.7838C21.7408 32.8992 21.8766 33.0842 21.9303 33.2989C21.9839 33.5136 21.9511 33.7407 21.8389 33.9314C21.7267 34.1221 21.5441 34.2611 21.3304 34.3185C21.1897 34.3564 17.8372 35.3141 17.4969 40.506C22.7479 40.1586 23.6732 36.7091 23.6844 36.6725C23.7387 36.4553 23.877 36.2685 24.069 36.1532C24.261 36.038 24.4909 36.0037 24.7082 36.058C24.9254 36.1123 25.1122 36.2506 25.2275 36.4426C25.3427 36.6346 25.377 36.8645 25.3227 37.0817L25.3199 37.0789ZM38.4725 27.4714L37.7188 28.2238V36.5446C37.7193 36.803 37.6686 37.0589 37.5697 37.2976C37.4707 37.5364 37.3254 37.7531 37.1422 37.9353L32.3118 42.7658C32.0535 43.0239 31.7285 43.2051 31.3731 43.2891C31.0178 43.3731 30.646 43.3566 30.2995 43.2415C29.953 43.1264 29.6453 42.9171 29.4109 42.6372C29.1764 42.3573 29.0244 42.0176 28.9719 41.6563L28.2041 36.1508L21.8535 29.796L16.3508 29.0282C15.9886 28.9769 15.6478 28.8258 15.3667 28.5917C15.0856 28.3576 14.8753 28.0498 14.7593 27.7028C14.6434 27.3558 14.6264 26.9834 14.7103 26.6274C14.7942 26.2713 14.9756 25.9456 15.2343 25.6869L20.0647 20.8564C20.247 20.6734 20.4638 20.5284 20.7025 20.4296C20.9413 20.3309 21.1972 20.2805 21.4555 20.2813H29.7763L30.5286 19.5289C34.2004 15.8572 38.6244 15.6997 40.3555 15.8024C40.8345 15.8319 41.2863 16.0355 41.6258 16.3747C41.9653 16.714 42.1692 17.1656 42.1991 17.6446C42.3018 19.3757 42.1429 23.7969 38.4725 27.4714ZM16.5871 27.3575L21.9505 28.1057L28.0888 21.9688H21.4555C21.381 21.9691 21.3097 21.9989 21.2572 22.0517L16.4282 26.8794C16.3923 26.9156 16.3669 26.9609 16.3547 27.0105C16.3426 27.06 16.3442 27.1119 16.3593 27.1607C16.3736 27.2123 16.4028 27.2585 16.4434 27.2936C16.4839 27.3286 16.5339 27.3509 16.5871 27.3575ZM36.0313 29.9113L29.893 36.0496L30.6411 41.4158C30.6489 41.4674 30.6708 41.5159 30.7045 41.5558C30.7382 41.5956 30.7824 41.6253 30.832 41.6415C30.8816 41.6577 30.9348 41.6598 30.9855 41.6475C31.0362 41.6352 31.0826 41.609 31.1193 41.5719L35.9483 36.7428C36.0011 36.6903 36.031 36.619 36.0313 36.5446V29.9113ZM40.5144 17.75C40.509 17.6836 40.4801 17.6213 40.433 17.5741C40.3858 17.527 40.3235 17.4981 40.2571 17.4927C38.6861 17.3919 37.1118 17.6283 35.6397 18.1862C34.1677 18.744 32.8321 19.6104 31.7225 20.7271L23.4439 29L29 34.5561L36.2788 27.2788L37.2786 26.2789C38.3948 25.1701 39.261 23.8355 39.8191 22.3645C40.3772 20.8935 40.6143 19.3202 40.5144 17.75Z" fill="white"/>
</svg>
