<svg width="42" height="42" viewBox="0 0 42 42" fill="none" xmlns="http://www.w3.org/2000/svg">
<rect width="42" height="42" rx="21" fill="#4C7CD4"/>
<path d="M33.0312 13.125V20.125C33.0312 20.299 32.9621 20.466 32.839 20.589C32.716 20.7121 32.549 20.7812 32.375 20.7812C32.2009 20.7812 32.034 20.7121 31.9109 20.589C31.7879 20.466 31.7187 20.299 31.7187 20.125V14.7088L22.3387 24.0888C22.2157 24.2116 22.0489 24.2807 21.875 24.2807C21.7011 24.2807 21.5343 24.2116 21.4112 24.0888L17.5 20.1786L10.0887 27.5888C9.96433 27.7047 9.79979 27.7678 9.62978 27.7648C9.45977 27.7618 9.29756 27.6929 9.17732 27.5727C9.05708 27.4524 8.98821 27.2902 8.98521 27.1202C8.98221 26.9502 9.04532 26.7857 9.16124 26.6612L17.0362 18.7863C17.1593 18.6634 17.3261 18.5943 17.5 18.5943C17.6739 18.5943 17.8407 18.6634 17.9637 18.7863L21.875 22.6964L30.7912 13.7812H25.375C25.2009 13.7812 25.034 13.7121 24.9109 13.589C24.7879 13.466 24.7187 13.299 24.7187 13.125C24.7187 12.951 24.7879 12.784 24.9109 12.661C25.034 12.5379 25.2009 12.4688 25.375 12.4688H32.375C32.549 12.4688 32.716 12.5379 32.839 12.661C32.9621 12.784 33.0312 12.951 33.0312 13.125Z" fill="white"/>
</svg>
