<svg width="50" height="50" viewBox="0 0 50 50" fill="none" xmlns="http://www.w3.org/2000/svg">
<rect width="50" height="50" rx="25" fill="#4C7CD4"/>
<path d="M39.75 25C39.751 23.8883 39.4773 22.7936 38.9535 21.8132C38.4296 20.8327 37.6717 19.9968 36.747 19.3797C35.8223 18.7626 34.7596 18.3834 33.6532 18.2758C32.5467 18.1683 31.4308 18.3356 30.4046 18.7631C29.3784 19.1905 28.4737 19.8648 27.7707 20.726C27.0678 21.5872 26.5885 22.6087 26.3753 23.6997C26.1621 24.7908 26.2217 25.9175 26.5487 26.98C26.8758 28.0425 27.4602 29.0077 28.25 29.79V37C28.25 37.1278 28.2826 37.2535 28.3448 37.3652C28.407 37.4769 28.4967 37.5708 28.6054 37.638C28.7141 37.7053 28.8382 37.7436 28.9659 37.7494C29.0936 37.7553 29.2206 37.7283 29.335 37.6712L33 35.8388L36.665 37.6712C36.7691 37.7231 36.8837 37.7501 37 37.75C37.1392 37.7502 37.2757 37.7112 37.3937 37.6375C37.5025 37.5704 37.5924 37.4766 37.6547 37.365C37.7171 37.2535 37.7499 37.1278 37.75 37V29.79C38.3839 29.1638 38.8872 28.4179 39.2305 27.5956C39.5738 26.7733 39.7504 25.8911 39.75 25ZM27.75 25C27.75 23.9616 28.0579 22.9466 28.6348 22.0833C29.2117 21.2199 30.0316 20.547 30.9909 20.1496C31.9502 19.7523 33.0058 19.6483 34.0242 19.8509C35.0426 20.0534 35.9781 20.5535 36.7123 21.2877C37.4465 22.0219 37.9466 22.9574 38.1491 23.9758C38.3517 24.9942 38.2477 26.0498 37.8504 27.0091C37.453 27.9684 36.7801 28.7883 35.9167 29.3652C35.0534 29.9421 34.0384 30.25 33 30.25C31.6076 30.25 30.2723 29.6969 29.2877 28.7123C28.3031 27.7277 27.75 26.3924 27.75 25ZM36.25 35.7862L33.335 34.3288C33.231 34.2768 33.1163 34.2498 33 34.2498C32.8837 34.2498 32.769 34.2768 32.665 34.3288L29.75 35.7862V30.9112C30.7454 31.4598 31.8635 31.7475 33 31.7475C34.1365 31.7475 35.2546 31.4598 36.25 30.9112V35.7862ZM25.75 33C25.75 33.1989 25.671 33.3897 25.5303 33.5303C25.3897 33.671 25.1989 33.75 25 33.75H14C13.5359 33.75 13.0908 33.5656 12.7626 33.2374C12.4344 32.9092 12.25 32.4641 12.25 32V16C12.25 15.5359 12.4344 15.0908 12.7626 14.7626C13.0908 14.4344 13.5359 14.25 14 14.25H36C36.4641 14.25 36.9092 14.4344 37.2374 14.7626C37.5656 15.0908 37.75 15.5359 37.75 16C37.75 16.1989 37.671 16.3897 37.5303 16.5303C37.3897 16.671 37.1989 16.75 37 16.75C36.8011 16.75 36.6103 16.671 36.4697 16.5303C36.329 16.3897 36.25 16.1989 36.25 16C36.25 15.9337 36.2237 15.8701 36.1768 15.8232C36.1299 15.7763 36.0663 15.75 36 15.75H14C13.9337 15.75 13.8701 15.7763 13.8232 15.8232C13.7763 15.8701 13.75 15.9337 13.75 16V32C13.75 32.0663 13.7763 32.1299 13.8232 32.1768C13.8701 32.2237 13.9337 32.25 14 32.25H25C25.1989 32.25 25.3897 32.329 25.5303 32.4697C25.671 32.6103 25.75 32.8011 25.75 33ZM23.75 26C23.75 26.1989 23.671 26.3897 23.5303 26.5303C23.3897 26.671 23.1989 26.75 23 26.75H18C17.8011 26.75 17.6103 26.671 17.4697 26.5303C17.329 26.3897 17.25 26.1989 17.25 26C17.25 25.8011 17.329 25.6103 17.4697 25.4697C17.6103 25.329 17.8011 25.25 18 25.25H23C23.1989 25.25 23.3897 25.329 23.5303 25.4697C23.671 25.6103 23.75 25.8011 23.75 26ZM23.75 22C23.75 22.1989 23.671 22.3897 23.5303 22.5303C23.3897 22.671 23.1989 22.75 23 22.75H18C17.8011 22.75 17.6103 22.671 17.4697 22.5303C17.329 22.3897 17.25 22.1989 17.25 22C17.25 21.8011 17.329 21.6103 17.4697 21.4697C17.6103 21.329 17.8011 21.25 18 21.25H23C23.1989 21.25 23.3897 21.329 23.5303 21.4697C23.671 21.6103 23.75 21.8011 23.75 22Z" fill="white"/>
</svg>
