<svg width="50" height="50" viewBox="0 0 50 50" fill="none" xmlns="http://www.w3.org/2000/svg">
<rect width="50" height="50" rx="25" fill="#4C7CD4"/>
<path d="M31.3549 28.7969C29.9599 31.21 27.6438 32.5938 25 32.5938C22.3563 32.5938 20.0402 31.21 18.6452 28.7969C18.5443 28.604 18.5218 28.3797 18.5825 28.1707C18.6431 27.9617 18.7821 27.7842 18.9705 27.6753C19.159 27.5664 19.3822 27.5345 19.5935 27.5863C19.8049 27.638 19.9881 27.7695 20.1049 27.9531C21.2074 29.8572 22.9455 30.9062 25 30.9062C27.0545 30.9062 28.7969 29.8572 29.8952 27.9531C29.9479 27.8523 30.0205 27.7632 30.1086 27.6911C30.1967 27.6191 30.2984 27.5656 30.4077 27.5339C30.517 27.5022 30.6316 27.4929 30.7445 27.5066C30.8575 27.5204 30.9665 27.5568 31.065 27.6137C31.1636 27.6707 31.2495 27.747 31.3178 27.838C31.3861 27.929 31.4352 28.033 31.4623 28.1435C31.4894 28.254 31.4938 28.3689 31.4754 28.4812C31.4569 28.5935 31.4159 28.7008 31.3549 28.7969ZM39.3438 25C39.3438 27.8369 38.5025 30.6101 36.9264 32.969C35.3503 35.3278 33.1101 37.1663 30.4891 38.2519C27.8681 39.3375 24.9841 39.6216 22.2017 39.0681C19.4193 38.5147 16.8635 37.1486 14.8574 35.1426C12.8514 33.1366 11.4853 30.5807 10.9319 27.7983C10.3784 25.0159 10.6625 22.1319 11.7481 19.5109C12.8338 16.8899 14.6722 14.6497 17.031 13.0736C19.3899 11.4975 22.1631 10.6563 25 10.6562C28.8028 10.6607 32.4486 12.1734 35.1376 14.8624C37.8266 17.5514 39.3393 21.1972 39.3438 25ZM37.6563 25C37.6563 22.4968 36.914 20.0499 35.5233 17.9686C34.1326 15.8873 32.156 14.2651 29.8433 13.3071C27.5307 12.3492 24.986 12.0986 22.5309 12.5869C20.0758 13.0753 17.8207 14.2807 16.0507 16.0507C14.2807 17.8207 13.0753 20.0758 12.5869 22.5309C12.0986 24.986 12.3492 27.5307 13.3072 29.8433C14.2651 32.156 15.8873 34.1326 17.9686 35.5233C20.0499 36.914 22.4968 37.6562 25 37.6562C28.3555 37.6525 31.5725 36.3179 33.9452 33.9452C36.3179 31.5725 37.6525 28.3555 37.6563 25ZM19.9375 23.5938C20.2156 23.5938 20.4875 23.5113 20.7188 23.3568C20.95 23.2022 21.1303 22.9826 21.2367 22.7256C21.3431 22.4687 21.371 22.1859 21.3167 21.9132C21.2625 21.6404 21.1285 21.3898 20.9319 21.1931C20.7352 20.9965 20.4846 20.8625 20.2119 20.8083C19.9391 20.754 19.6563 20.7819 19.3994 20.8883C19.1424 20.9947 18.9228 21.175 18.7683 21.4062C18.6137 21.6375 18.5313 21.9094 18.5313 22.1875C18.5313 22.5605 18.6794 22.9181 18.9431 23.1819C19.2069 23.4456 19.5645 23.5938 19.9375 23.5938ZM30.0625 20.7812C29.7844 20.7812 29.5125 20.8637 29.2812 21.0182C29.05 21.1728 28.8697 21.3924 28.7633 21.6494C28.6569 21.9063 28.629 22.1891 28.6833 22.4618C28.7375 22.7346 28.8715 22.9852 29.0681 23.1819C29.2648 23.3785 29.5154 23.5125 29.7882 23.5667C30.0609 23.621 30.3437 23.5931 30.6007 23.4867C30.8576 23.3803 31.0772 23.2 31.2318 22.9688C31.3863 22.7375 31.4688 22.4656 31.4688 22.1875C31.4688 21.8145 31.3206 21.4569 31.0569 21.1931C30.7932 20.9294 30.4355 20.7812 30.0625 20.7812Z" fill="white"/>
</svg>
