<svg width="80" height="80" viewBox="0 0 80 80" fill="none" xmlns="http://www.w3.org/2000/svg">
<rect width="80" height="80" rx="38" fill="#4C7CD4"/>
<path d="M54.4375 24.5781H43.9375C43.7867 24.578 43.6378 24.6125 43.5023 24.6791C43.3669 24.7457 43.2486 24.8425 43.1566 24.962L32.4286 38.9073L30.5829 37.0633C30.3696 36.85 30.1164 36.6808 29.8377 36.5653C29.559 36.4499 29.2603 36.3905 28.9586 36.3905C28.657 36.3905 28.3583 36.4499 28.0796 36.5653C27.8009 36.6808 27.5477 36.85 27.3344 37.0633L25.2508 39.1469C25.0373 39.3602 24.8679 39.6135 24.7523 39.8923C24.6367 40.1712 24.5772 40.4701 24.5772 40.7719C24.5772 41.0738 24.6367 41.3726 24.7523 41.6515C24.8679 41.9303 25.0373 42.1836 25.2508 42.397L28.7634 45.9062L23.9383 50.733C23.725 50.9463 23.5558 51.1995 23.4404 51.4782C23.3249 51.7568 23.2655 52.0555 23.2655 52.3572C23.2655 52.6588 23.3249 52.9575 23.4404 53.2362C23.5558 53.5149 23.725 53.7681 23.9383 53.9814L26.0203 56.0634C26.2336 56.2767 26.4868 56.4459 26.7655 56.5613C27.0442 56.6768 27.3428 56.7362 27.6445 56.7362C27.9461 56.7362 28.2448 56.6768 28.5235 56.5613C28.8022 56.4459 29.0554 56.2767 29.2687 56.0634L34.0938 51.2383L37.6047 54.7492C37.818 54.9625 38.0712 55.1317 38.3499 55.2472C38.6286 55.3626 38.9273 55.422 39.229 55.422C39.5306 55.422 39.8293 55.3626 40.108 55.2472C40.3867 55.1317 40.6399 54.9625 40.8532 54.7492L42.9368 52.6673C43.1503 52.4539 43.3197 52.2006 43.4353 51.9218C43.5509 51.643 43.6104 51.3441 43.6104 51.0422C43.6104 50.7404 43.5509 50.4415 43.4353 50.1627C43.3197 49.8838 43.1503 49.6305 42.9368 49.4172L41.0911 47.5715L55.0364 36.8434C55.1562 36.7516 55.2534 36.6333 55.3202 36.4979C55.3871 36.3625 55.4219 36.2135 55.4219 36.0625V25.5625C55.4219 25.3014 55.3182 25.051 55.1336 24.8664C54.949 24.6818 54.6986 24.5781 54.4375 24.5781ZM27.8758 54.6705C27.8454 54.701 27.8092 54.7252 27.7693 54.7417C27.7295 54.7582 27.6868 54.7667 27.6437 54.7667C27.6006 54.7667 27.5579 54.7582 27.518 54.7417C27.4782 54.7252 27.442 54.701 27.4115 54.6705L25.3312 52.5885C25.2701 52.527 25.2358 52.4439 25.2358 52.3572C25.2358 52.2705 25.2701 52.1873 25.3312 52.1259L30.1563 47.3008L32.7009 49.8438L27.8758 54.6705ZM41.5439 51.2744L39.4619 53.358C39.4314 53.3887 39.3951 53.4131 39.3551 53.4298C39.3152 53.4465 39.2723 53.455 39.229 53.455C39.1856 53.455 39.1427 53.4465 39.1028 53.4298C39.0628 53.4131 39.0265 53.3887 38.996 53.358L26.6437 41.0041C26.6132 40.9736 26.589 40.9374 26.5725 40.8976C26.556 40.8577 26.5475 40.815 26.5475 40.7719C26.5475 40.7288 26.556 40.6861 26.5725 40.6463C26.589 40.6064 26.6132 40.5702 26.6437 40.5398L28.7257 38.4562C28.7562 38.4254 28.7925 38.401 28.8324 38.3843C28.8724 38.3677 28.9153 38.3591 28.9586 38.3591C29.002 38.3591 29.0448 38.3677 29.0848 38.3843C29.1248 38.401 29.1611 38.4254 29.1916 38.4562L41.5439 50.8101C41.5744 50.8406 41.5986 50.8767 41.6151 50.9166C41.6316 50.9564 41.6401 50.9991 41.6401 51.0422C41.6401 51.0853 41.6316 51.128 41.6151 51.1679C41.5986 51.2077 41.5744 51.2439 41.5439 51.2744ZM53.4532 35.5785L39.6867 46.1688L37.4554 43.9375L45.9457 35.4456C46.1196 35.259 46.2142 35.0122 46.2097 34.7572C46.2052 34.5022 46.1019 34.2589 45.9215 34.0785C45.7412 33.8981 45.4979 33.7948 45.2429 33.7903C44.9878 33.7858 44.741 33.8805 44.5544 34.0544L36.0625 42.5446L33.8313 40.3134L44.4297 26.5469H53.4532V35.5785Z" fill="white"/>
</svg>
