<svg width="90" height="90" viewBox="0 0 90 90" fill="none" xmlns="http://www.w3.org/2000/svg">
<rect width="90" height="90" rx="45" fill="#4C7CD4"/>
<path d="M68.9883 37.7167L45.5508 25.2167C45.3816 25.1254 45.1923 25.0776 45 25.0776C44.8077 25.0776 44.6185 25.1254 44.4492 25.2167L21.0117 37.7167C20.8247 37.8168 20.6684 37.9658 20.5594 38.1477C20.4504 38.3297 20.3928 38.5378 20.3928 38.7499C20.3928 38.962 20.4504 39.1702 20.5594 39.3521C20.6684 39.5341 20.8247 39.683 21.0117 39.7831L26.6406 42.787V52.4784C26.6405 53.1497 26.8873 53.7977 27.334 54.2987C29.8477 57.0976 35.4863 61.7968 45 61.7968C48.35 61.8282 51.6718 61.1818 54.7656 59.8964V66.8749C54.7656 67.1857 54.8891 67.4838 55.1089 67.7036C55.3286 67.9233 55.6267 68.0468 55.9375 68.0468C56.2483 68.0468 56.5464 67.9233 56.7661 67.7036C56.9859 67.4838 57.1094 67.1857 57.1094 66.8749V58.7402C59.1894 57.5688 61.0659 56.0682 62.666 54.2968C63.1137 53.7971 63.3607 53.1494 63.3594 52.4784V42.787L68.9883 39.7831C69.1753 39.683 69.3316 39.5341 69.4406 39.3521C69.5496 39.1702 69.6072 38.962 69.6072 38.7499C69.6072 38.5378 69.5496 38.3297 69.4406 38.1477C69.3316 37.9658 69.1753 37.8168 68.9883 37.7167ZM45 59.453C36.4063 59.453 31.3281 55.2421 29.0781 52.7323C29.0176 52.6616 28.9844 52.5715 28.9844 52.4784V44.037L44.4492 52.2831C44.6188 52.3734 44.8079 52.4206 45 52.4206C45.1921 52.4206 45.3812 52.3734 45.5508 52.2831L54.7656 47.3691V57.33C52.2266 58.5448 48.9941 59.453 45 59.453ZM61.0156 52.4784C61.0156 52.5715 60.9824 52.6616 60.9219 52.7323C59.7963 53.9793 58.5149 55.0762 57.1094 55.996V46.1191L61.0156 44.037V52.4784ZM56.6895 43.6894C56.629 43.6369 56.5636 43.5904 56.4941 43.5507L45.5566 37.7187C45.2842 37.5878 44.9716 37.5673 44.6844 37.6614C44.3971 37.7555 44.1574 37.957 44.0152 38.2238C43.873 38.4905 43.8394 38.8019 43.9213 39.0928C44.0033 39.3838 44.1945 39.6318 44.4551 39.7851L54.2285 44.9999L45 49.9218L24.0527 38.7499L45 27.578L65.9473 38.7499L56.6895 43.6894Z" fill="white"/>
</svg>
