<svg width="41" height="41" viewBox="0 0 41 41" fill="none" xmlns="http://www.w3.org/2000/svg">
<rect width="41" height="41" rx="20.5" fill="#4C7CD4"/>
<path d="M28.3388 13.5876L12.5888 29.3376C12.4644 29.4536 12.2999 29.5167 12.1298 29.5137C11.9598 29.5107 11.7976 29.4418 11.6774 29.3216C11.5571 29.2013 11.4883 29.0391 11.4853 28.8691C11.4823 28.6991 11.5454 28.5345 11.6613 28.4101L27.4113 12.6601C27.4721 12.5984 27.5445 12.5494 27.6244 12.5158C27.7042 12.4822 27.7899 12.4647 27.8765 12.4644C27.9632 12.4641 28.049 12.481 28.1291 12.514C28.2092 12.5471 28.2819 12.5956 28.3431 12.6569C28.4044 12.7182 28.4528 12.791 28.4858 12.8711C28.5187 12.9513 28.5355 13.0371 28.5351 13.1237C28.5347 13.2104 28.5171 13.296 28.4834 13.3759C28.4497 13.4557 28.4006 13.528 28.3388 13.5887V13.5876ZM11.6876 17.9375C11.0802 17.328 10.7029 16.5267 10.6202 15.6703C10.5374 14.8138 10.7542 13.9551 11.2336 13.2406C11.713 12.526 12.4254 11.9999 13.2493 11.7517C14.0732 11.5036 14.9577 11.5489 15.7519 11.8798C16.5462 12.2108 17.2012 12.8069 17.6051 13.5667C18.0091 14.3264 18.1371 15.2027 17.9673 16.0463C17.7975 16.8898 17.3405 17.6484 16.674 18.1927C16.0076 18.737 15.173 19.0333 14.3126 19.0312C13.8244 19.0314 13.3412 18.9348 12.8906 18.747C12.4401 18.5593 12.0312 18.2842 11.6876 17.9375ZM11.9063 15.3125C11.9065 15.8692 12.0997 16.4086 12.453 16.8388C12.8063 17.269 13.2978 17.5634 13.8438 17.6719C14.3899 17.7803 14.9566 17.696 15.4475 17.4335C15.9384 17.1709 16.323 16.7463 16.5359 16.2319C16.7488 15.7175 16.7767 15.1452 16.615 14.6126C16.4533 14.0799 16.1118 13.6198 15.6489 13.3106C15.1859 13.0015 14.6301 12.8624 14.0761 12.9171C13.5221 12.9718 13.0042 13.2169 12.6107 13.6106C12.3866 13.8336 12.2089 14.0989 12.088 14.391C11.9671 14.6831 11.9054 14.9963 11.9063 15.3125ZM29.4063 26.6875C29.4084 27.548 29.1121 28.3825 28.5678 29.049C28.0235 29.7154 27.2649 30.1725 26.4213 30.3422C25.5778 30.512 24.7015 30.384 23.9417 29.9801C23.182 29.5761 22.5858 28.9212 22.2549 28.1269C21.9239 27.3326 21.8787 26.4481 22.1268 25.6242C22.3749 24.8003 22.9011 24.0879 23.6156 23.6085C24.3302 23.1291 25.1888 22.9123 26.0453 22.9951C26.9018 23.0779 27.7031 23.4551 28.3126 24.0625C28.6592 24.4061 28.9344 24.815 29.1221 25.2655C29.3098 25.7161 29.4064 26.1994 29.4063 26.6875ZM28.0938 26.6875C28.0947 26.3713 28.0329 26.0582 27.912 25.766C27.7911 25.4739 27.6135 25.2087 27.3894 24.9856C26.9959 24.5919 26.478 24.3468 25.924 24.2921C25.37 24.2374 24.8142 24.3765 24.3512 24.6856C23.8883 24.9948 23.5468 25.4549 23.3851 25.9876C23.2234 26.5202 23.2513 27.0925 23.4642 27.6069C23.6771 28.1213 24.0617 28.5459 24.5526 28.8085C25.0435 29.071 25.6102 29.1553 26.1563 29.0469C26.7023 28.9384 27.1938 28.644 27.5471 28.2138C27.9004 27.7836 28.0936 27.2442 28.0938 26.6875Z" fill="white"/>
</svg>
