<svg width="143" height="143" viewBox="0 0 143 143" fill="none" xmlns="http://www.w3.org/2000/svg">
<path d="M125.125 135.487C125.125 136.726 123.698 137.423 122.721 136.663L98.3124 116.185L100.639 123.165C100.961 124.13 100.243 125.125 99.224 125.125H29.7916C21.5661 125.125 14.8958 118.455 14.8958 110.229V32.7708C14.8958 24.5454 21.5661 17.875 29.7916 17.875H110.229C118.455 17.875 125.125 24.5454 125.125 32.7708V135.487Z" fill="#8C9EFF"/>
<path d="M97.2013 51.5247C97.1208 51.4025 97.0523 51.3281 96.9361 51.2417C95.7951 50.4015 88.5855 45.3131 80.1724 44.6875L79.368 46.326C87.6501 48.3221 91.4336 51.2119 95.3959 54.7571C88.5706 51.2715 81.8079 47.6667 70.0104 47.6667C58.2129 47.6667 51.4502 51.2715 44.6279 54.7571C48.5902 51.2119 53.1185 47.9944 60.6558 46.326L59.8515 44.6875C51.0421 45.5336 44.1781 50.4254 43.0817 51.2446C42.9685 51.331 42.9 51.4025 42.8225 51.5217C41.8305 53.0381 34.2843 65.2467 32.8066 87.7037C32.7857 88.0403 32.9019 88.3948 33.1313 88.6451C40.7431 96.9987 51.483 98.1337 54.1642 98.2887C54.5634 98.3125 54.9269 98.1308 55.1652 97.809L57.5307 94.6481C52.8534 93.0394 47.5207 90.1496 42.9328 84.9062C48.4144 89.0175 56.6667 92.3542 70.0134 92.3542C83.3601 92.3542 91.6124 89.0175 97.094 84.9062C92.5061 90.1496 87.1734 93.0394 82.4961 94.6481L84.8616 97.809C85.0999 98.1278 85.4634 98.3095 85.8626 98.2887C88.5438 98.1337 99.2837 96.9957 106.895 88.6451C107.122 88.3948 107.241 88.0403 107.22 87.7037C105.74 65.2646 98.1993 53.053 97.2013 51.5247ZM59.5833 83.4167C56.3063 83.4167 53.625 80.08 53.625 75.9687C53.625 71.8575 56.3063 68.5208 59.5833 68.5208C62.8604 68.5208 65.5417 71.8575 65.5417 75.9687C65.5417 80.08 62.8604 83.4167 59.5833 83.4167ZM80.4375 83.4167C77.1604 83.4167 74.4792 80.08 74.4792 75.9687C74.4792 71.8575 77.1604 68.5208 80.4375 68.5208C83.7146 68.5208 86.3958 71.8575 86.3958 75.9687C86.3958 80.08 83.7146 83.4167 80.4375 83.4167Z" fill="white"/>
<path opacity="0.07" d="M80.1694 44.6874C88.5825 45.316 95.7921 50.4015 96.9331 51.2416C97.0493 51.328 97.1208 51.4024 97.1983 51.5246C98.1963 53.0529 105.737 65.2645 107.214 87.7036C107.235 88.0402 107.119 88.3948 106.89 88.645C99.2777 96.9986 88.5378 98.1337 85.8566 98.2886C85.8328 98.2886 85.8119 98.2916 85.7881 98.2916C85.4157 98.2916 85.079 98.1128 84.8556 97.8119L82.4931 94.648C87.1704 93.0393 92.5031 90.1495 97.091 84.9062C91.6094 89.0174 83.3571 92.3541 70.0104 92.3541C56.6637 92.3541 48.4114 89.0174 42.9298 84.9062C47.5177 90.1495 52.8504 93.0393 57.5277 94.648L55.1622 97.8089C54.9358 98.1098 54.5992 98.2886 54.2298 98.2886C54.2059 98.2886 54.1851 98.2886 54.1612 98.2856C51.48 98.1307 40.7401 96.9926 33.1283 88.642C32.9019 88.3918 32.7827 88.0373 32.8036 87.7006C34.2813 65.2437 41.8305 53.035 42.8196 51.5186C42.897 51.3995 42.9655 51.328 43.0787 51.2416C44.1751 50.4223 51.0361 45.5305 59.8485 44.6844L60.6528 46.323C53.1155 47.9913 48.5872 51.2088 44.6249 54.754C51.4502 51.2714 58.2129 47.6666 70.0104 47.6666C81.8079 47.6666 88.5706 51.2714 95.3929 54.757C91.4306 51.2118 87.6471 48.322 79.365 46.3259L80.1694 44.6874ZM80.4375 83.4166C83.7146 83.4166 86.3958 80.0799 86.3958 75.9687C86.3958 71.8574 83.7146 68.5207 80.4375 68.5207C77.1604 68.5207 74.4792 71.8574 74.4792 75.9687C74.4792 80.0799 77.1604 83.4166 80.4375 83.4166ZM59.5833 83.4166C62.8604 83.4166 65.5417 80.0799 65.5417 75.9687C65.5417 71.8574 62.8604 68.5207 59.5833 68.5207C56.3062 68.5207 53.625 71.8574 53.625 75.9687C53.625 80.0799 56.3062 83.4166 59.5833 83.4166ZM60.7333 43.1055L59.7084 43.2038C50.5743 44.0797 43.5137 49.0608 42.1909 50.0499C41.9377 50.2376 41.75 50.4402 41.5772 50.7053C40.6865 52.0668 32.8304 64.6806 31.32 87.6053C31.2693 88.3531 31.5285 89.0978 32.029 89.646C39.9327 98.3213 50.902 99.5905 54.0778 99.7752L54.1195 99.7782L54.2298 99.7811C55.0699 99.7811 55.8445 99.3879 56.3569 98.7027L58.7223 95.5418L59.9468 93.9062L58.0133 93.2419C57.1642 92.9499 56.336 92.6282 55.5257 92.2796C59.8306 93.3283 64.6419 93.8466 70.0134 93.8466C75.3848 93.8466 80.1962 93.3283 84.5011 92.2796C83.6907 92.6311 82.8625 92.9499 82.0135 93.2419L80.08 93.9062L81.3044 95.5418L83.6699 98.7027C84.1823 99.3879 84.9569 99.7811 85.797 99.7811H85.8387L85.9489 99.7782C89.1218 99.5964 100.094 98.3243 107.998 89.649C108.498 89.1008 108.757 88.356 108.707 87.6083C107.199 64.6925 99.3433 52.0757 98.4525 50.7143C98.2767 50.4461 98.0831 50.2406 97.8239 50.0499C96.4296 49.0221 89.0324 43.8622 80.2855 43.2068L79.2816 43.1323L78.8377 44.035L78.0333 45.6735L77.5268 46.7073C75.2418 46.3677 72.7572 46.177 70.0104 46.177C67.2636 46.177 64.779 46.3677 62.4999 46.7043L61.9935 45.6705L61.1891 44.032L60.7333 43.1055ZM80.4375 81.927C78.0154 81.927 75.9687 79.1981 75.9687 75.9687C75.9687 72.7392 78.0154 70.0103 80.4375 70.0103C82.8595 70.0103 84.9062 72.7392 84.9062 75.9687C84.9062 79.1981 82.8595 81.927 80.4375 81.927ZM59.5833 81.927C57.1613 81.927 55.1146 79.1981 55.1146 75.9687C55.1146 72.7392 57.1613 70.0103 59.5833 70.0103C62.0054 70.0103 64.0521 72.7392 64.0521 75.9687C64.0521 79.1981 62.0054 81.927 59.5833 81.927Z" fill="black"/>
<path opacity="0.05" d="M80.1693 44.6873C88.5825 45.3159 95.792 50.4014 96.9331 51.2415C97.0492 51.3279 97.1207 51.4024 97.1982 51.5245C98.1962 53.0528 105.736 65.2644 107.214 87.7035C107.235 88.0401 107.119 88.3947 106.889 88.6449C99.2777 96.9985 88.5378 98.1336 85.8565 98.2885C85.8327 98.2885 85.8118 98.2915 85.788 98.2915C85.4156 98.2915 85.079 98.1127 84.8555 97.8118L82.493 94.6479C87.1703 93.0392 92.503 90.1494 97.091 84.9061C91.6093 89.0173 83.357 92.354 70.0103 92.354C56.6637 92.354 48.4114 89.0173 42.9297 84.9061C47.5176 90.1494 52.8503 93.0392 57.5276 94.6479L55.1622 97.8088C54.9358 98.1097 54.5991 98.2885 54.2297 98.2885C54.2059 98.2885 54.185 98.2885 54.1612 98.2855C51.4799 98.1306 40.74 96.9925 33.1283 88.6419C32.9018 88.3917 32.7827 88.0372 32.8035 87.7005C34.2812 65.2436 41.8304 53.0349 42.8195 51.5185C42.8969 51.3994 42.9655 51.3279 43.0787 51.2415C44.175 50.4222 51.036 45.5304 59.8484 44.6843L60.6528 46.3229C53.1155 47.9912 48.5872 51.2087 44.6249 54.7539C51.4501 51.2713 58.2128 47.6665 70.0103 47.6665C81.8078 47.6665 88.5705 51.2713 95.3928 54.7569C91.4305 51.2117 87.647 48.3219 79.3649 46.3259L80.1693 44.6873ZM80.4374 83.4165C83.7145 83.4165 86.3958 80.0798 86.3958 75.9686C86.3958 71.8573 83.7145 68.5206 80.4374 68.5206C77.1603 68.5206 74.4791 71.8573 74.4791 75.9686C74.4791 80.0798 77.1603 83.4165 80.4374 83.4165ZM59.5833 83.4165C62.8603 83.4165 65.5416 80.0798 65.5416 75.9686C65.5416 71.8573 62.8603 68.5206 59.5833 68.5206C56.3062 68.5206 53.6249 71.8573 53.6249 75.9686C53.6249 80.0798 56.3062 83.4165 59.5833 83.4165ZM61.618 41.5234L59.5684 41.7201C50.038 42.6347 42.6795 47.8244 41.3001 48.8581C40.9069 49.1531 40.6 49.4808 40.3319 49.8919C38.8423 52.171 31.3378 64.6865 29.8363 87.5099C29.7618 88.6598 30.158 89.8068 30.9296 90.6529C39.2117 99.7423 50.6756 101.074 53.9943 101.265L54.0807 101.271L54.2327 101.274C55.5465 101.274 56.756 100.663 57.5515 99.5993L59.9169 96.4384L61.1324 94.8148C63.912 95.1604 66.8703 95.3331 70.0103 95.3331C73.1504 95.3331 76.1087 95.1604 78.8912 94.8088L80.1067 96.4325L82.4722 99.5934C83.2676 100.657 84.4772 101.268 85.791 101.268H85.8774L86.0323 101.262C89.3481 101.071 100.812 99.7393 109.094 90.6499C109.866 89.8038 110.265 88.6568 110.187 87.5069C108.686 64.6954 101.181 52.174 99.6948 49.8949C99.4207 49.4748 99.1049 49.1412 98.7027 48.8462C97.2518 47.7767 89.5477 42.4023 80.3927 41.7171L78.3848 41.5681L77.497 43.3765L76.6926 45.015L76.6598 45.0806C74.6132 44.8273 72.4115 44.6873 70.0103 44.6873C67.6091 44.6873 65.4075 44.8273 63.3638 45.0806L63.331 45.015L62.5267 43.3765L61.618 41.5234ZM80.4374 80.4373C79.0283 80.4373 77.4583 78.6021 77.4583 75.9686C77.4583 73.335 79.0283 71.4998 80.4374 71.4998C81.8466 71.4998 83.4166 73.335 83.4166 75.9686C83.4166 78.6021 81.8466 80.4373 80.4374 80.4373ZM59.5833 80.4373C58.1741 80.4373 56.6041 78.6021 56.6041 75.9686C56.6041 73.335 58.1741 71.4998 59.5833 71.4998C60.9924 71.4998 62.5624 73.335 62.5624 75.9686C62.5624 78.6021 60.9924 80.4373 59.5833 80.4373Z" fill="black"/>
</svg>
