<svg width="191" height="198" viewBox="0 0 191 198" fill="none" xmlns="http://www.w3.org/2000/svg">
<path d="M116.944 51.7109C125.203 52.3806 133.227 54.3086 141.572 54.5226C143.974 54.5842 146.294 56.5512 148.809 56.8656" stroke="white" stroke-width="3" stroke-linecap="round"/>
<path d="M34 50.3052C34.2585 58.9647 34.8368 67.6286 35.1976 76.2869C35.4235 81.7103 35.744 87.1301 35.8484 92.558C35.8855 94.4864 35.7117 96.536 36.1087 98.4417C36.5076 100.356 36.8116 101.729 36.8116 103.727" stroke="white" stroke-width="3" stroke-linecap="round"/>
<path d="M34.4685 51.2426C41.6775 45.7102 49.5649 46.3353 57.8989 48.8996" stroke="white" stroke-width="3" stroke-linecap="round"/>
<path d="M59.7735 52.6484C55.0936 58.8062 48.2641 61.9789 42.7474 67.0712C42.6263 67.183 43.2727 67.0516 43.3723 66.967C45.0245 65.5626 47.2311 65.2202 49.36 64.9364C56.3082 64.01 67.4085 65.1683 70.3433 72.7986C72.1979 77.6206 69.2836 82.5111 66.5423 86.3362C64.1761 89.6379 60.4274 92.3227 56.6495 93.8339C52.8811 95.3412 48.5054 95.5421 44.9343 97.5828C44.4015 97.8872 39.4005 102.098 39.1548 101.852" stroke="white" stroke-width="3" stroke-linecap="round"/>
<path d="M85.0784 69.5182C82.3278 76.4919 78.3055 85.017 85.8595 90.6576C91.4795 94.8542 99.6361 94.8774 105.958 92.6362C108.737 91.6506 113.029 89.9252 112.674 86.2319C112.089 80.1502 107.351 73.5256 104.031 68.633C100.769 63.8261 95.1515 61.0661 89.6604 63.8949C85.7588 65.9048 82.8883 67.2671 84.1412 71.8612" stroke="white" stroke-width="3" stroke-linecap="round"/>
<path d="M131.939 53.1172C128.526 66.1488 123.671 78.7807 119.703 91.6472C119.409 92.6019 117.953 96.1388 119.755 93.8861" stroke="white" stroke-width="3" stroke-linecap="round"/>
<path d="M75.2375 111.693C73.6419 108.103 64.5863 108.29 61.8822 108.387C54.5894 108.648 45.6283 110.816 47.85 119.894C50.0409 128.845 56.8104 136.689 66.0216 138.56C67.2423 138.808 80.8608 140.048 80.8608 138.404" stroke="white" stroke-width="3" stroke-linecap="round"/>
<path d="M96.7937 116.379C95.6455 115.231 96.2166 119.575 95.9085 121.169C94.1939 130.043 91.7964 138.723 89.5302 147.464C88.16 152.749 89.6047 149.667 90.2332 146.839" stroke="white" stroke-width="3" stroke-linecap="round"/>
<path d="M95.3877 125.283C95.9189 125.047 95.8813 124.233 96.3249 124.033C96.7017 123.864 98.9501 128.683 99.1626 129.058C101.742 133.609 104.496 137.925 107.572 142.153" stroke="white" stroke-width="3" stroke-linecap="round"/>
<path d="M92.1074 140.278C96.3067 138.179 100.026 135.8 104.76 135.124" stroke="white" stroke-width="3" stroke-linecap="round"/>
<path d="M121.63 110.756C124.239 124.473 128.335 138.153 130.065 151.993" stroke="white" stroke-width="3" stroke-linecap="round"/>
<path d="M123.973 111.693C127.141 111.467 130.289 110.738 133.449 110.392C136.835 110.02 140.588 110.397 143.915 109.715C144.233 109.649 145.204 109.034 145.529 109.455C146.88 111.207 147.777 114.71 148.47 116.562C150.029 120.726 151.474 124.937 153.078 129.084C154.426 132.567 157.712 135.879 157.712 139.81" stroke="white" stroke-width="3" stroke-linecap="round"/>
<ellipse cx="95.5" cy="99" rx="91.5" ry="95" stroke="#07C93D" stroke-width="8"/>
</svg>
