<svg width="40" height="40" viewBox="0 0 40 40" fill="none" xmlns="http://www.w3.org/2000/svg">
<g id="Ai-Generate-Portrait-Image-Spark--Streamline-Flex" clip-path="url(#clip0_5_457)">
<g id="ai-generate-portrait-image-spark--picture-photography-photo-image-artificial-intelligence-ai">
<path id="Intersect" d="M14.2654 9.86523C12.2198 9.93401 10.2081 10.1287 8.23853 10.3482C4.92864 10.7172 2.26525 13.3806 1.91096 16.6921C1.64942 19.1367 1.42856 21.6464 1.42856 24.2051C1.42856 26.7638 1.64942 29.2735 1.91096 31.7183C2.26525 35.0297 4.92864 37.6932 8.23853 38.062C10.697 38.336 13.2212 38.5715 15.7948 38.5715C18.3684 38.5715 20.8927 38.336 23.3511 38.062C26.661 37.6932 29.3246 35.0297 29.6788 31.7183C29.8931 29.7135 30.0803 27.6651 30.1408 25.5817" stroke="#EE7F60" stroke-width="1.5" stroke-linecap="round" stroke-linejoin="round"/>
<path id="Intersect_2" d="M15.9459 38.5715C13.3723 38.5715 10.8481 38.336 8.38962 38.062C8.0054 38.0192 7.62985 37.9455 7.26562 37.8435C7.68777 35.8852 8.8186 33.9632 10.3666 32.698C11.941 31.4112 13.9119 30.7083 15.9453 30.7083C17.9787 30.7083 19.9496 31.4112 21.524 32.698C23.0984 33.9849 24.1795 35.7763 24.5841 37.7692C24.5841 37.7692 24.5831 37.8012 24.5824 37.8555C24.2319 37.9512 23.8711 38.0209 23.5023 38.062C21.0438 38.336 18.5195 38.5715 15.9459 38.5715Z" stroke="#EE7F60" stroke-width="1.5" stroke-linecap="round" stroke-linejoin="round"/>
<path id="Vector" d="M15.9247 26.2073C18.8811 26.2073 20.5441 24.5443 20.5441 21.5879C20.5441 18.6314 18.8811 16.9684 15.9247 16.9684C12.9682 16.9684 11.3053 18.6314 11.3053 21.5879C11.3053 24.5443 12.9682 26.2073 15.9247 26.2073Z" stroke="#EE7F60" stroke-width="1.5" stroke-linecap="round" stroke-linejoin="round"/>
<path id="Vector 2141" d="M26.4398 7.17867C28.4356 5.18293 28.8109 1.42859 29.6429 1.42859C30.4751 1.42859 30.8506 5.18293 32.8463 7.17867C34.842 9.17442 38.5714 9.38579 38.5714 10.3572C38.5714 11.3285 34.842 11.5399 32.8463 13.5356C30.8506 15.5314 30.4751 19.2857 29.6429 19.2857C28.8109 19.2857 28.4356 15.5314 26.4398 13.5356C24.4441 11.5399 20.7145 11.3285 20.7145 10.3572C20.7145 9.38579 24.4441 9.17442 26.4398 7.17867Z" stroke="#EE7F60" stroke-width="1.5" stroke-linecap="round" stroke-linejoin="round"/>
</g>
</g>
<defs>
<clipPath id="clip0_5_457">
<rect width="40" height="40" fill="white"/>
</clipPath>
</defs>
</svg>
