<svg width="40" height="40" viewBox="0 0 40 40" fill="none" xmlns="http://www.w3.org/2000/svg">
<g id="Diamond--Streamline-Ultimate (1)">
<path id="Vector" d="M32.0616 5.375C31.8288 5.06451 31.5268 4.8125 31.1797 4.63893C30.8325 4.46536 30.4498 4.375 30.0617 4.375H10.0617C9.67354 4.375 9.29075 4.46536 8.94362 4.63893C8.59648 4.8125 8.29452 5.06451 8.06165 5.375L2.49998 12.7933C2.16246 13.2436 1.98674 13.7947 2.00126 14.3572C2.01578 14.9198 2.21968 15.461 2.57998 15.8933L18.1433 34.7267C18.378 35.0069 18.6712 35.2322 19.0023 35.3868C19.3335 35.5414 19.6945 35.6216 20.06 35.6216C20.4255 35.6216 20.7865 35.5414 21.1176 35.3868C21.4488 35.2322 21.742 35.0069 21.9767 34.7267L37.54 15.8933C37.9003 15.461 38.1042 14.9198 38.1187 14.3572C38.1332 13.7947 37.9575 13.2436 37.62 12.7933L32.0616 5.375Z" stroke="#EE7F60" stroke-width="1.5" stroke-linecap="round" stroke-linejoin="round"/>
<path id="Vector_2" d="M8.91498 4.65332L20.0616 35.625" stroke="#EE7F60" stroke-width="1.5" stroke-linecap="round" stroke-linejoin="round"/>
<path id="Vector_3" d="M31.2066 4.65332L20.0616 35.625" stroke="#EE7F60" stroke-width="1.5" stroke-linecap="round" stroke-linejoin="round"/>
<path id="Vector_4" d="M1.99664 14.375H38.1183" stroke="#EE7F60" stroke-width="1.5" stroke-linecap="round" stroke-linejoin="round"/>
<path id="Vector_5" d="M12.5616 14.375L20.0616 4.375L27.5616 14.375" stroke="#EE7F60" stroke-width="1.5" stroke-linecap="round" stroke-linejoin="round"/>
</g>
</svg>
