<svg width="40" height="40" viewBox="0 0 40 40" fill="none" xmlns="http://www.w3.org/2000/svg">
<path d="M25.25 5L23.5 1.25H16.5L14.75 5H10.5C10.0359 5 9.59075 5.18437 9.26257 5.51257C8.93437 5.84075 8.75 6.28587 8.75 6.75V18.25C8.75 18.7142 8.93437 19.1592 9.26257 19.4875C9.59075 19.8157 10.0359 20 10.5 20H29.5C29.9642 20 30.4092 19.8157 30.7375 19.4875C31.0657 19.1592 31.25 18.7142 31.25 18.25V6.75C31.25 6.28587 31.0657 5.84075 30.7375 5.51257C30.4092 5.18437 29.9642 5 29.5 5H25.25Z" stroke="#EE7F60" stroke-width="1.5" stroke-linecap="round" stroke-linejoin="round"/>
<path d="M28.75 38.75L20 24.75L11.25 38.75" stroke="#EE7F60" stroke-width="1.5" stroke-linecap="round" stroke-linejoin="round"/>
<path d="M20 20V38.75" stroke="#EE7F60" stroke-width="1.5" stroke-linecap="round" stroke-linejoin="round"/>
<path d="M16.25 11.875C16.25 12.8696 16.6451 13.8234 17.3483 14.5266C18.0517 15.2299 19.0055 15.625 20 15.625C20.9945 15.625 21.9483 15.2299 22.6517 14.5266C23.3548 13.8234 23.75 12.8696 23.75 11.875C23.75 10.8804 23.3548 9.92662 22.6517 9.22335C21.9483 8.52008 20.9945 8.125 20 8.125C19.0055 8.125 18.0517 8.52008 17.3483 9.22335C16.6451 9.92662 16.25 10.8804 16.25 11.875Z" stroke="#EE7F60" stroke-width="1.5" stroke-linecap="round" stroke-linejoin="round"/>
</svg>
