<svg width="156" height="50" viewBox="0 0 156 50" fill="none" xmlns="http://www.w3.org/2000/svg">
<path fill-rule="evenodd" clip-rule="evenodd" d="M136.063 39.257L134.667 40.0602L118.817 31.0241V34.3373L134.667 43.4739L136.063 42.6707L137.558 41.7671L138.954 40.9639V39.257V35.9438V24.2972L136.162 26.004V34.3373V37.6506V39.257H136.063ZM137.359 5.02008L139.951 6.5261L140.25 6.62651L143.041 4.91968L141.047 3.81526L140.25 3.31325L137.159 1.50602L134.268 0L131.477 1.70683L116.026 10.8434L113.235 12.5502V15.8635C113.235 17.9719 113.235 20.0803 113.235 22.1888V24.498L116.126 26.1044L133.272 35.9438V32.6305L125.995 28.5141L123.104 26.9076L116.026 22.8916C116.026 19.9799 116.026 19.1767 115.926 14.257L134.169 3.41365L137.359 5.02008ZM118.817 17.6707V19.0763V20.8835L120.412 21.7871L123.303 23.3936L126.094 25L128.985 26.6064L133.272 29.0161V25.8032L131.776 25L128.885 23.3936L126.094 21.7871L123.203 20.1807L121.708 19.3775V17.3695L122.805 16.6667L134.169 9.93976L136.96 8.33333L134.368 6.82731L131.577 8.53414L120.213 15.261L118.717 16.1647L118.817 17.6707ZM147.626 30.9237V34.2369V35.8434L150.418 34.1365V19.1767V15.9639L148.623 14.9598L147.527 14.3574L145.732 13.3534L144.436 14.0562L141.645 15.7631L138.854 17.4699L136.063 19.1767L131.677 21.7871L134.568 23.3936L136.162 22.49L138.954 20.7831L141.745 19.0763L144.536 17.3695L145.832 16.5663L147.527 17.5703V30.9237H147.626ZM153.209 39.0562L156 37.3494V34.1365V30.8233V15.6627V12.3494L153.209 10.743L148.823 8.23293L145.932 6.62651L143.14 8.33333L125.995 18.4739L128.885 20.0803L136.162 15.7631L138.555 14.3574L146.131 9.83936L147.726 10.743L148.922 11.4458L150.517 12.3494L151.713 13.0522L153.209 13.9558V32.4297V35.743L150.418 37.3494L147.626 39.0562V40.8635V42.2691L148.823 41.5663L150.418 40.5622L153.209 39.0562ZM113.235 34.4377V37.751L116.026 39.3574L118.917 40.9639L128.985 46.7871L131.876 48.3936L134.667 50L137.458 48.2932L138.156 47.8916L138.954 47.3896L140.349 46.5863L141.745 45.7831L143.14 44.9799L144.536 44.1767C144.536 41.9679 144.536 39.8594 144.536 37.6506V20.9839L141.745 22.6908V37.5502V39.257V42.5703L140.449 43.3735L138.954 44.2771L137.558 45.0803L136.063 45.9839L134.667 46.7871L131.776 45.1807L118.817 37.751L115.926 36.1446V32.7309V29.4177L113.135 27.8112V31.1245L113.235 34.4377Z" fill="white"/>
<path fill-rule="evenodd" clip-rule="evenodd" d="M67.732 35.2115C66.2291 35.2115 64.7261 34.9115 63.3234 34.4115C61.9207 33.9116 60.6181 33.1116 59.4158 32.0117L61.5199 29.5118C62.5218 30.3118 63.4236 31.0117 64.4256 31.4117C65.4275 31.8117 66.5296 32.1117 67.732 32.1117C68.8341 32.1117 69.6357 31.9117 70.2369 31.4117C70.838 31.0117 71.1386 30.4118 71.1386 29.6118V29.5118C71.1386 29.1118 71.0384 28.8118 70.9382 28.6119C70.838 28.3119 70.6376 28.1119 70.2369 27.8119C69.9363 27.6119 69.4353 27.3119 68.8341 27.1119C68.233 26.9119 67.5316 26.712 66.6298 26.512C65.5277 26.312 64.6259 26.012 63.8244 25.712C63.0228 25.412 62.3214 25.0121 61.7203 24.6121C61.1191 24.2121 60.7183 23.6121 60.4177 23.0122C60.1171 22.4122 60.017 21.6122 60.017 20.7123V20.6123C60.017 19.8123 60.2174 19.0124 60.5179 18.3124C60.8185 17.6124 61.3195 17.0125 61.9207 16.5125C62.5218 16.0125 63.2232 15.6126 64.0248 15.3126C64.8263 15.0126 65.7281 14.9126 66.73 14.9126C68.1328 14.9126 69.4353 15.1126 70.6376 15.5126C71.84 15.9125 72.8419 16.5125 73.8439 17.3125L72.2408 20.0123C71.339 19.3124 70.4373 18.8124 69.5355 18.5124C68.6338 18.2124 67.732 18.0124 66.8302 18.0124C65.8283 18.0124 65.0267 18.2124 64.4256 18.7124C63.8244 19.1124 63.624 19.7123 63.624 20.4123V20.5123C63.624 20.9123 63.7242 21.2123 63.8244 21.5122C63.9246 21.8122 64.2252 22.1122 64.5257 22.3122C64.9265 22.5122 65.3273 22.8122 65.9285 23.0122C66.5296 23.2121 67.3312 23.4121 68.233 23.6121C69.2349 23.9121 70.1367 24.2121 70.9382 24.5121C71.7398 24.8121 72.4412 25.212 72.9421 25.712C73.4431 26.212 73.8439 26.712 74.1445 27.3119C74.4451 27.9119 74.5453 28.6119 74.5453 29.4118V29.5118C74.5453 30.4118 74.3449 31.2117 74.0443 32.0117C73.7437 32.7116 73.2427 33.3116 72.6416 33.9116C72.0404 34.4115 71.339 34.8115 70.4373 35.1115C69.7359 35.0115 68.7339 35.2115 67.732 35.2115ZM23.1451 23.4121H33.0644V26.512H23.1451V31.8117H34.4672V34.9115H19.6383V23.4121H23.1451ZM41.9818 34.9115V23.4121L38.5752 19.0124V35.0115H41.9818V34.9115ZM52.8029 34.9115H55.7086V15.2126H52.3019V28.8118C38.976 11.7128 25.4496 -6.38626 2.2043 11.8128C28.0547 -5.08633 38.7756 16.7125 52.8029 34.9115ZM6.21211 18.4124H0V15.2126H16.0312V18.4124H9.71894V34.9115H6.21211V18.4124ZM19.6383 15.2126H34.2668V18.3124H32.9642H23.0449H19.6383V15.2126ZM97.0892 35.2115C95.5863 35.2115 94.1835 34.9115 92.881 34.4115C91.5785 33.9116 90.5765 33.2116 89.6748 32.3117C88.773 31.4117 88.0716 30.3118 87.5707 29.1118C87.0697 27.9119 86.8693 26.512 86.8693 25.112V25.012C86.8693 23.6121 87.0697 22.3122 87.5707 21.1123C88.0716 19.9123 88.773 18.8124 89.6748 17.9124C90.5765 17.0125 91.6786 16.2125 92.881 15.7126C94.0833 15.2126 95.4861 14.9126 96.989 14.9126C97.8908 14.9126 98.5921 15.0126 99.2935 15.1126C99.9949 15.2126 100.696 15.4126 101.297 15.6126C101.899 15.8125 102.5 16.1125 103.001 16.4125C103.502 16.7125 104.103 17.1125 104.604 17.5125L102.4 20.1123C101.999 19.8123 101.598 19.5123 101.197 19.2124C100.796 18.9124 100.396 18.7124 99.9949 18.5124C99.5941 18.3124 99.0931 18.2124 98.5921 18.1124C98.0912 18.0124 97.49 17.9124 96.8888 17.9124C95.9871 17.9124 95.1855 18.1124 94.3839 18.5124C93.5824 18.9124 92.881 19.4124 92.38 20.0123C91.7788 20.6123 91.3781 21.4122 91.0775 22.2122C90.7769 23.0122 90.5765 23.9121 90.5765 24.9121V25.012C90.5765 26.012 90.7769 27.0119 91.0775 27.8119C91.3781 28.7118 91.8791 29.4118 92.4802 30.0118C93.0814 30.6117 93.7828 31.1117 94.5843 31.5117C95.3859 31.9117 96.2876 32.0117 97.2896 32.0117C98.1913 32.0117 99.0931 31.9117 99.8947 31.6117C100.696 31.3117 101.398 31.0117 101.999 30.5118V26.812H96.989V23.8121H105.405V32.1117C104.904 32.5116 104.403 32.9116 103.802 33.3116C103.201 33.7116 102.6 34.0116 101.899 34.3115C101.197 34.6115 100.496 34.8115 99.6943 35.0115C98.7925 35.1115 97.991 35.2115 97.0892 35.2115ZM79.0541 15.2126H82.4607V34.9115H79.0541V15.2126Z" fill="white"/>
</svg>
