<svg width="230" height="30" viewBox="0 0 230 30" fill="none" xmlns="http://www.w3.org/2000/svg">
<path d="M21 14.0002V12.0001C21 10.9 20.0997 10 18.9999 10H11.0001C9.9 10 9 10.9 9 12.0001V14.0002H3V16.0003H5.0001V27.0001H7.0002V16H23.0001V27.0001H24.9999V16H27V13.9999L21 14.0002ZM18.9999 14.0002H11.0001V12.0001H19.0002L18.9999 14.0002Z" fill="#9C066D"/>
<path d="M20.0001 20.5H17.0001L14.0001 17.5H12.5001L14.0001 20.5H11.5002L10.0002 19H9L9.9999 21.5002L9 24.0001H9.9999L11.4999 22.5001H13.9998L12.4998 25.5001H13.9998L16.9998 22.5001H19.9998C20.5527 22.5001 21 22.0528 21 21.5002C21 20.9473 20.5527 20.5 20.0001 20.5Z" fill="#9C066D"/>
<path d="M15 3C13.3434 3 12 4.3434 12 6C12 7.6566 13.3434 9 15 9C16.6563 9 18 7.6566 18 6C18 4.3434 16.6563 3 15 3ZM15 6.9999C14.4474 6.9999 14.0001 6.552 14.0001 6C14.0001 5.448 14.4474 5.0001 15 5.0001C15.5529 5.0001 15.9999 5.448 15.9999 6C15.9999 6.552 15.5529 6.9999 15 6.9999Z" fill="#9C066D"/>
<path d="M73.0001 12.8991C75.2822 12.4356 77 10.4184 77 8.0001C77 5.2383 74.7617 3 71.9999 3C69.2384 2.9997 67.0001 5.2386 67.0001 7.9995C67.0001 10.419 68.7179 12.4356 71 12.8991V21.9999H68.9999V15.9999C68.9999 14.8998 68.0996 13.9998 67.0001 13.9998H65V13.5C65 12.9501 64.55 12.5001 64.0001 12.5001H59.9999C59.45 12.5001 59 12.9501 59 13.5V14.0001H56.9999C55.8998 14.0001 54.9998 14.9001 54.9998 16.0002V22.0002H53V24H55.0001V27H57.0002V24H73.0001V27H74.9999V24H77V21.9999H73.0001V12.8991ZM67.0001 21.9999H56.9999V15.9999H66.9998L67.0001 21.9999ZM71.9999 10.9995C70.343 10.9995 68.9999 9.6567 68.9999 7.9995C68.999 6.3432 70.343 4.9998 71.9999 4.9998C73.6571 4.9995 74.9999 6.3426 74.9999 7.9995C74.9999 9.6564 73.6571 10.9995 71.9999 10.9995Z" fill="#9C066D"/>
<path d="M71.6175 7.07602C71.499 7.12492 71.3889 7.19692 71.2932 7.29292C70.9026 7.68352 70.9026 8.31622 71.2932 8.70682C71.6838 9.09802 72.3165 9.09802 72.7074 8.70682C72.8028 8.61112 72.8754 8.50042 72.9243 8.38192C72.9243 8.38342 73.7688 6.23242 73.7688 6.23242L71.6175 7.07602Z" fill="#9C066D"/>
<path d="M125 6V4.5H123V6H121V3H119V6H117L119 13.9998V15H111V10.9998H109V15H107V9H105V15H103V27H121V21.9999H123V27H125V13.9998L127 6H125ZM119 24.9999H117V23.0001H115V24.9999H113V23.0001H111V24.9999H109V23.0001H107V24.9999H105V17.0001H119V24.9999ZM123 20.0001H121V18H123V20.0001ZM123 15.9999H121V13.9998H123V15.9999ZM123.438 12H120.561L119.562 7.9998H124.438L123.438 12Z" fill="#9C066D"/>
<path d="M109 19H107V21.0001H109V19Z" fill="#9C066D"/>
<path d="M113 19H111V21.0001H113V19Z" fill="#9C066D"/>
<path d="M117 19H115V21.0001H117V19Z" fill="#9C066D"/>
<path d="M153 3V27H155V9H175V27H177V3H153ZM163 4.9998H169V7.0002H163V4.9998ZM161 7.0002H159V4.9998H161V7.0002ZM155 4.9998H157V7.0002H155V4.9998ZM171 7.0002V4.9998H175V7.0002H171Z" fill="#9C066D"/>
<path d="M165 10.9998C163.344 10.9998 162 12.3429 162 13.9998C162 15.6561 163.344 17.0001 165 17.0001C166.656 17.0001 168 15.6564 168 13.9998C168 12.3429 166.656 10.9998 165 10.9998ZM165 15C164.447 15 164 14.5518 164 13.9998C164 13.4472 164.447 13.0002 165 13.0002C165.553 13.0002 166 13.4472 166 13.9998C166 14.5518 165.553 15 165 15Z" fill="#9C066D"/>
<path d="M160 23.0002C160 21.8956 160.895 21.0001 162 21.0001V27.0001H164V21.0001H166V27.0001H168V21.0001C169.105 21.0001 170 21.8956 170 23.0002V25H172V23.0002C172 20.7901 170.209 19 168 19H162C159.791 19 158 20.7901 158 23.0002V25H160V23.0002Z" fill="#9C066D"/>
<path d="M225 9L223 3L203 9V24.9999C203 26.0997 203.9 27 205 27H225C226.1 27 227 26.0997 227 24.9999V11.0001C227 9.9 226.1 9 225 9ZM221.716 5.4732L222.892 9H209.96L221.716 5.4732ZM225 24.9999H205V11.0001H225V24.9999Z" fill="#9C066D"/>
<path d="M218.5 17.0002H215.416L213.083 13H211.167L211.834 16.9999H209.333L208 15.0001H207L208 18.0001L207 21.0001H208L209.333 19H211.834L211.167 23.0002H213.083L215.416 19H218.5C219.053 19 219.5 18.553 219.5 18.0001C219.5 17.4475 219.053 17.0002 218.5 17.0002Z" fill="#9C066D"/>
<path d="M223 13H217V15.0001H223V13Z" fill="#9C066D"/>
<path d="M223 19H221V23.0002H223V19Z" fill="#9C066D"/>
<path d="M219 21H217V23.0001H219V21Z" fill="#9C066D"/>
</svg>
