<svg width="156" height="50" viewBox="0 0 156 50" fill="none" xmlns="http://www.w3.org/2000/svg">
<path fill-rule="evenodd" clip-rule="evenodd" d="M136.063 39.257L134.667 40.0602L118.817 31.0241V34.3373L134.667 43.4739L136.063 42.6707L137.558 41.7671L138.954 40.9639V39.257V35.9438V24.2972L136.162 26.004V34.3373V37.6506V39.257H136.063ZM137.359 5.02008L139.951 6.5261L140.25 6.62651L143.041 4.91968L141.047 3.81526L140.25 3.31325L137.159 1.50602L134.268 0L131.477 1.70683L116.026 10.8434L113.235 12.5502V15.8635C113.235 17.9719 113.235 20.0803 113.235 22.1888V24.498L116.126 26.1044L133.272 35.9438V32.6305L125.995 28.5141L123.104 26.9076L116.026 22.8916C116.026 19.9799 116.026 19.1767 115.926 14.257L134.169 3.41365L137.359 5.02008ZM118.817 17.6707V19.0763V20.8835L120.412 21.7871L123.303 23.3936L126.094 25L128.985 26.6064L133.272 29.0161V25.8032L131.776 25L128.885 23.3936L126.094 21.7871L123.203 20.1807L121.708 19.3775V17.3695L122.805 16.6667L134.169 9.93976L136.96 8.33333L134.368 6.82731L131.577 8.53414L120.213 15.261L118.717 16.1647L118.817 17.6707ZM147.626 30.9237V34.2369V35.8434L150.418 34.1365V19.1767V15.9639L148.623 14.9598L147.527 14.3574L145.732 13.3534L144.436 14.0562L141.645 15.7631L138.854 17.4699L136.063 19.1767L131.677 21.7871L134.568 23.3936L136.162 22.49L138.954 20.7831L141.745 19.0763L144.536 17.3695L145.832 16.5663L147.527 17.5703V30.9237H147.626ZM153.209 39.0562L156 37.3494V34.1365V30.8233V15.6627V12.3494L153.209 10.743L148.823 8.23293L145.932 6.62651L143.14 8.33333L125.995 18.4739L128.885 20.0803L136.162 15.7631L138.555 14.3574L146.131 9.83936L147.726 10.743L148.922 11.4458L150.517 12.3494L151.713 13.0522L153.209 13.9558V32.4297V35.743L150.418 37.3494L147.626 39.0562V40.8635V42.2691L148.823 41.5663L150.418 40.5622L153.209 39.0562ZM113.235 34.4377V37.751L116.026 39.3574L118.917 40.9639L128.985 46.7871L131.876 48.3936L134.667 50L137.458 48.2932L138.156 47.8916L138.954 47.3896L140.349 46.5863L141.745 45.7831L143.14 44.9799L144.536 44.1767C144.536 41.9679 144.536 39.8594 144.536 37.6506V20.9839L141.745 22.6908V37.5502V39.257V42.5703L140.449 43.3735L138.954 44.2771L137.558 45.0803L136.063 45.9839L134.667 46.7871L131.776 45.1807L118.817 37.751L115.926 36.1446V32.7309V29.4177L113.135 27.8112V31.1245L113.235 34.4377Z" fill="url(#paint0_linear_354_164)"/>
<path fill-rule="evenodd" clip-rule="evenodd" d="M67.732 35.2113C66.2291 35.2113 64.7261 34.9113 63.3234 34.4113C61.9207 33.9113 60.6181 33.1114 59.4158 32.0114L61.5199 29.5116C62.5218 30.3115 63.4236 31.0115 64.4256 31.4115C65.4275 31.8114 66.5296 32.1114 67.732 32.1114C68.8341 32.1114 69.6357 31.9114 70.2369 31.4115C70.838 31.0115 71.1386 30.4115 71.1386 29.6116V29.5116C71.1386 29.1116 71.0384 28.8116 70.9382 28.6116C70.838 28.3116 70.6376 28.1116 70.2369 27.8117C69.9363 27.6117 69.4353 27.3117 68.8341 27.1117C68.233 26.9117 67.5316 26.7117 66.6298 26.5117C65.5277 26.3117 64.6259 26.0118 63.8244 25.7118C63.0228 25.4118 62.3214 25.0118 61.7203 24.6118C61.1191 24.2118 60.7183 23.6119 60.4177 23.0119C60.1171 22.4119 60.017 21.612 60.017 20.712V20.612C60.017 19.8121 60.2174 19.0121 60.5179 18.3122C60.8185 17.6122 61.3195 17.0122 61.9207 16.5123C62.5218 16.0123 63.2232 15.6123 64.0248 15.3123C64.8263 15.0123 65.7281 14.9123 66.73 14.9123C68.1328 14.9123 69.4353 15.1123 70.6376 15.5123C71.84 15.9123 72.8419 16.5123 73.8439 17.3122L72.2408 20.0121C71.339 19.3121 70.4373 18.8121 69.5355 18.5122C68.6338 18.2122 67.732 18.0122 66.8302 18.0122C65.8283 18.0122 65.0267 18.2122 64.4256 18.7121C63.8244 19.1121 63.624 19.7121 63.624 20.4121V20.512C63.624 20.912 63.7242 21.212 63.8244 21.512C63.9246 21.812 64.2252 22.112 64.5257 22.312C64.9265 22.5119 65.3273 22.8119 65.9285 23.0119C66.5296 23.2119 67.3312 23.4119 68.233 23.6119C69.2349 23.9119 70.1367 24.2118 70.9382 24.5118C71.7398 24.8118 72.4412 25.2118 72.9421 25.7118C73.4431 26.2117 73.8439 26.7117 74.1445 27.3117C74.4451 27.9116 74.5453 28.6116 74.5453 29.4116V29.5116C74.5453 30.4115 74.3449 31.2115 74.0443 32.0114C73.7437 32.7114 73.2427 33.3114 72.6416 33.9113C72.0404 34.4113 71.339 34.8113 70.4373 35.1113C69.7359 35.0113 68.7339 35.2113 67.732 35.2113ZM23.1451 23.4119H33.0644V26.5117H23.1451V31.8114H34.4672V34.9113H19.6383V23.4119H23.1451ZM41.9818 34.9113V23.4119L38.5752 19.0121V35.0113H41.9818V34.9113ZM52.8029 34.9113H55.7086V15.2123H52.3019V28.8116C38.976 11.7125 25.4496 -6.38651 2.2043 11.8125C28.0547 -5.08657 38.7756 16.7123 52.8029 34.9113ZM6.21211 18.4122H0V15.2123H16.0312V18.4122H9.71894V34.9113H6.21211V18.4122ZM19.6383 15.2123H34.2668V18.3122H32.9642H23.0449H19.6383V15.2123ZM97.0892 35.2113C95.5863 35.2113 94.1835 34.9113 92.881 34.4113C91.5785 33.9113 90.5765 33.2114 89.6748 32.3114C88.773 31.4115 88.0716 30.3115 87.5707 29.1116C87.0697 27.9116 86.8693 26.5117 86.8693 25.1118V25.0118C86.8693 23.6119 87.0697 22.312 87.5707 21.112C88.0716 19.9121 88.773 18.8121 89.6748 17.9122C90.5765 17.0122 91.6786 16.2123 92.881 15.7123C94.0833 15.2123 95.4861 14.9123 96.989 14.9123C97.8908 14.9123 98.5921 15.0123 99.2935 15.1123C99.9949 15.2123 100.696 15.4123 101.297 15.6123C101.899 15.8123 102.5 16.1123 103.001 16.4123C103.502 16.7123 104.103 17.1122 104.604 17.5122L102.4 20.1121C101.999 19.8121 101.598 19.5121 101.197 19.2121C100.796 18.9121 100.396 18.7121 99.9949 18.5122C99.5941 18.3122 99.0931 18.2122 98.5921 18.1122C98.0912 18.0122 97.49 17.9122 96.8888 17.9122C95.9871 17.9122 95.1855 18.1122 94.3839 18.5122C93.5824 18.9121 92.881 19.4121 92.38 20.0121C91.7788 20.612 91.3781 21.412 91.0775 22.212C90.7769 23.0119 90.5765 23.9119 90.5765 24.9118V25.0118C90.5765 26.0118 90.7769 27.0117 91.0775 27.8117C91.3781 28.7116 91.8791 29.4116 92.4802 30.0115C93.0814 30.6115 93.7828 31.1115 94.5843 31.5115C95.3859 31.9114 96.2876 32.0114 97.2896 32.0114C98.1913 32.0114 99.0931 31.9114 99.8947 31.6115C100.696 31.3115 101.398 31.0115 101.999 30.5115V26.8117H96.989V23.8119H105.405V32.1114C104.904 32.5114 104.403 32.9114 103.802 33.3114C103.201 33.7113 102.6 34.0113 101.899 34.3113C101.197 34.6113 100.496 34.8113 99.6943 35.0113C98.7925 35.1113 97.991 35.2113 97.0892 35.2113ZM79.0541 15.2123H82.4607V34.9113H79.0541V15.2123Z" fill="url(#paint1_linear_354_164)"/>
<defs>
<linearGradient id="paint0_linear_354_164" x1="113.135" y1="24.6479" x2="156" y2="24.6479" gradientUnits="userSpaceOnUse">
<stop stop-color="#303F92"/>
<stop offset="0.484375" stop-color="#DB2485"/>
<stop offset="1" stop-color="#194293"/>
</linearGradient>
<linearGradient id="paint1_linear_354_164" x1="7.85332e-07" y1="19.7183" x2="105.405" y2="19.7183" gradientUnits="userSpaceOnUse">
<stop stop-color="#1F4193"/>
<stop offset="0.526042" stop-color="#DE2787"/>
<stop offset="1" stop-color="#074796"/>
</linearGradient>
</defs>
</svg>
