<svg xmlns="http://www.w3.org/2000/svg" width="53" height="51" viewBox="0 0 53 51"><defs><linearGradient id="x0wka" x1="41.15" x2="41.15" y1=".33" y2="5.14" gradientUnits="userSpaceOnUse"><stop offset="0" stop-color="#7e32ff"/><stop offset="1" stop-color="#033fff"/></linearGradient><linearGradient id="x0wkb" x1="11.79" x2="11.79" y1=".33" y2="5.14" gradientUnits="userSpaceOnUse"><stop offset="0" stop-color="#7e32ff"/><stop offset="1" stop-color="#033fff"/></linearGradient><linearGradient id="x0wkc" x1="2.72" x2="2.72" y1="28.87" y2="32.42" gradientUnits="userSpaceOnUse"><stop offset="0" stop-color="#7e32ff"/><stop offset="1" stop-color="#033fff"/></linearGradient><linearGradient id="x0wkd" x1="26.47" x2="26.47" y1="45.26" y2="50.55" gradientUnits="userSpaceOnUse"><stop offset="0" stop-color="#7e32ff"/><stop offset="1" stop-color="#033fff"/></linearGradient><linearGradient id="x0wke" x1="50.22" x2="50.22" y1="28.87" y2="32.42" gradientUnits="userSpaceOnUse"><stop offset="0" stop-color="#7e32ff"/><stop offset="1" stop-color="#033fff"/></linearGradient></defs><g><g><g><g><g><path fill="#10233e" d="M36.237 27.928l1.754 10.229a.603.603 0 0 1-.246.605.604.604 0 0 1-.652.047l-9.185-4.829a3.095 3.095 0 0 0-2.881 0l-9.186 4.83a.604.604 0 0 1-.652-.048.603.603 0 0 1-.246-.605l1.755-10.229a3.094 3.094 0 0 0-.89-2.74l-7.432-7.243a.603.603 0 0 1-.156-.634.603.603 0 0 1 .5-.422l10.269-1.492a3.095 3.095 0 0 0 2.33-1.693l4.593-9.306a.603.603 0 0 1 .555-.345c.116 0 .402.033.555.345l4.593 9.306a3.094 3.094 0 0 0 2.33 1.693l10.27 1.492c.344.05.464.312.5.422a.603.603 0 0 1-.157.634l-7.431 7.244a3.094 3.094 0 0 0-.89 2.74zm10.05-8.21a3.076 3.076 0 0 0 .783-3.173 3.076 3.076 0 0 0-2.499-2.106l-10.27-1.493a.619.619 0 0 1-.466-.338l-4.592-9.306a3.076 3.076 0 0 0-2.776-1.726c-1.187 0-2.25.662-2.776 1.726L19.1 12.608a.62.62 0 0 1-.466.338L8.363 14.44a3.076 3.076 0 0 0-2.499 2.106 3.076 3.076 0 0 0 .784 3.173l7.43 7.244a.62.62 0 0 1 .179.548l-1.755 10.228c-.2 1.17.272 2.33 1.232 3.027.96.698 2.21.788 3.26.236l9.185-4.829a.619.619 0 0 1 .576 0l9.186 4.83a3.082 3.082 0 0 0 3.26-.236 3.076 3.076 0 0 0 1.23-3.028L38.678 27.51a.62.62 0 0 1 .178-.548z"/></g></g></g><g><g><g><path fill="url(#x0wka)" d="M42.697.6a1.39 1.39 0 0 0-1.94.307l-1.476 2.03a1.39 1.39 0 0 0 2.248 1.632l1.475-2.03A1.39 1.39 0 0 0 42.697.6z"/></g></g></g><g><g><g><path fill="url(#x0wkb)" d="M13.646 2.928L12.172.898a1.39 1.39 0 0 0-2.248 1.633l1.474 2.03a1.387 1.387 0 0 0 1.941.307c.62-.45.758-1.32.307-1.94z"/></g></g></g><g><g><g><path fill="url(#x0wkc)" d="M5.231 29.833a1.39 1.39 0 0 0-1.75-.892l-2.386.775a1.39 1.39 0 0 0 .858 2.643l2.387-.776a1.39 1.39 0 0 0 .891-1.75z"/></g></g></g><g><g><g><path fill="url(#x0wkd)" d="M26.467 45.257a1.39 1.39 0 0 0-1.389 1.39v2.509a1.39 1.39 0 1 0 2.779 0v-2.51a1.39 1.39 0 0 0-1.39-1.389z"/></g></g></g><g><g><g><path fill="url(#x0wke)" d="M51.839 29.718l-2.386-.775a1.39 1.39 0 0 0-.859 2.642l2.386.776a1.39 1.39 0 1 0 .859-2.643z"/></g></g></g></g></g></svg>