<svg width="20" height="21" viewBox="0 0 20 21" fill="none" xmlns="http://www.w3.org/2000/svg">
<g id="User Interface / Check cr-fr">
<path id="Shape" d="M10 2.16667C5.39763 2.16667 1.66667 5.89763 1.66667 10.5C1.66667 15.1024 5.39763 18.8333 10 18.8333C14.6024 18.8333 18.3333 15.1024 18.3333 10.5C18.3333 5.89763 14.6024 2.16667 10 2.16667Z" fill="white"/>
<path id="Shape_2" fill-rule="evenodd" clip-rule="evenodd" d="M13.0893 8.24408C13.4147 8.56951 13.4147 9.09715 13.0893 9.42259L9.75593 12.7559C9.43049 13.0814 8.90285 13.0814 8.57742 12.7559L6.91075 11.0893C6.58531 10.7638 6.58531 10.2362 6.91075 9.91074C7.23619 9.58531 7.76382 9.58531 8.08926 9.91074L9.16667 10.9882L11.9107 8.24408C12.2362 7.91864 12.7638 7.91864 13.0893 8.24408Z" fill="black"/>
</g>
</svg>
