<svg width="140" height="92" viewBox="0 0 140 92" fill="none" xmlns="http://www.w3.org/2000/svg">
<path fill-rule="evenodd" clip-rule="evenodd" d="M80.4827 2.32259C77.2807 2.32259 73.5643 2.0124 69.0198 2.0124C67.368 2.0124 66.1289 2.42599 66.1289 3.25233C66.1289 3.97528 66.645 4.49142 68.7105 5.00757C73.2541 6.1441 75.0102 7.89935 75.2161 11.4107C75.4229 14.0956 75.4229 20.1885 75.4229 29.8962C75.4229 50.3428 74.9068 57.9859 74.5974 61.187C74.5537 61.7519 74.4923 62.5001 74.0191 63.276H85.3037C84.432 62.2109 84.3546 60.9087 84.305 59.3275C84.2016 56.3323 83.7889 41.8752 83.8914 39.9131C83.9948 39.5004 84.4076 38.674 84.7178 38.674C86.8866 38.3638 91.8438 38.3638 93.8059 38.3638C95.1198 38.3638 97.1012 38.4891 98.6614 38.6337V33.9892C95.3257 34.1052 88.5334 34.0262 85.0271 34.0262C84.511 34.0262 83.994 32.993 83.994 30.2055C83.994 23.3897 84.2008 9.86138 84.4067 7.3832C84.4067 7.07385 85.0263 6.14411 86.0594 6.04071C88.2274 5.83391 98.5546 5.73051 102.067 6.2475C105.475 6.76365 106.61 7.69339 108.262 12.754C108.882 14.8194 109.708 15.9551 110.534 15.9551C111.463 15.9551 112.084 14.5092 111.98 13.1667C111.877 9.65542 111.464 6.04071 111.67 3.04637C111.67 2.42683 110.948 1.90984 110.431 2.01324C109.605 2.01324 100.104 2.32343 93.9084 2.32343H80.4827V2.32259Z" fill="#3B3A39"/>
<path fill-rule="evenodd" clip-rule="evenodd" d="M129.527 36.8524C129.527 47.8159 122.473 52.2957 117.421 52.2957C116.944 52.2957 115.896 52.2957 115.038 52.2957C114.275 52.2957 113.894 52.7723 113.894 53.1539C113.894 53.7264 114.37 54.203 115.514 54.6788C117.039 55.2513 119.519 55.3463 120.567 55.3463C124.666 55.3463 129.052 53.2489 131.53 51.1524C134.294 48.7684 138.203 44.8603 138.203 36.3766C138.203 33.231 137.25 27.7971 132.674 23.4124C129.148 20.0759 123.522 17.7877 114.849 17.7877C110.082 17.7877 102.742 18.551 98.9287 18.551C98.0704 18.551 96.4497 18.4552 95.7831 18.551C94.5431 18.646 93.5898 19.1226 93.5898 19.8851C93.5898 20.4567 94.6389 21.0284 96.5455 21.315C101.884 22.0775 101.789 23.4124 101.884 26.8438C101.98 29.8937 102.171 50.1033 102.171 53.2489C102.171 55.9684 102.109 59.7117 102.002 63.276H110.198C110.145 59.6823 110.083 54.9537 110.083 50.0083C110.178 39.0456 110.178 27.2247 110.274 25.2231C110.369 22.9358 110.846 21.7916 111.227 21.5058C111.99 21.0292 112.944 20.6475 113.992 20.6475C122.95 20.6467 129.527 28.1779 129.527 36.8524Z" fill="#3B3A39"/>
<path fill-rule="evenodd" clip-rule="evenodd" d="M62.7464 11.2888L62.1345 13.0752L41.5928 63.2752H47.6327L52.7068 49.1198L53.9274 48.2329L72.1153 47.7891L72.9416 47.8059L72.7466 42.8285L55.8129 43.1311L55.2581 42.3544L63.909 18.066L62.7464 11.2888Z" fill="#008F8E"/>
<path fill-rule="evenodd" clip-rule="evenodd" d="M41.6085 81.5076C41.5639 81.5076 41.5303 81.4899 41.5076 81.4571C41.4857 81.4235 41.4857 81.3764 41.5076 81.3176L44.4027 73.3711C44.4246 73.3122 44.4506 73.2711 44.4809 73.2484C44.5103 73.2273 44.5591 73.2156 44.6263 73.2156H45.4981C45.6393 73.2156 45.7259 73.271 45.7553 73.3828L48.616 81.3176L48.6269 81.3731C48.6269 81.4613 48.5857 81.5067 48.5042 81.5067H47.7106C47.6207 81.5067 47.561 81.4697 47.5316 81.3941L46.7607 79.2269C46.7456 79.1975 46.7313 79.174 46.7161 79.1597C46.701 79.1445 46.6708 79.1378 46.6262 79.1378H43.3746C43.3074 79.1378 43.2628 79.1681 43.2401 79.2269L42.4474 81.4058C42.4247 81.4731 42.3693 81.5067 42.2793 81.5067H41.6085V81.5076ZM46.3353 78.2888C46.4169 78.2888 46.4463 78.24 46.4245 78.1434L45.0828 74.4664C45.0609 74.4 45.034 74.3664 45.0046 74.3664C44.9743 74.3664 44.9483 74.4 44.9264 74.4664L43.5629 78.1652L43.5411 78.2324C43.5411 78.2703 43.5705 78.2879 43.6302 78.2879H46.3353V78.2888ZM53.532 76.8908C53.3756 76.6605 53.1613 76.4755 52.8897 76.3385C52.6174 76.2006 52.303 76.1317 51.9449 76.1317C51.5355 76.1317 51.2001 76.2191 50.9395 76.3948C50.6789 76.5705 50.5478 76.7983 50.5478 77.0816C50.5478 77.2523 50.6133 77.4086 50.7436 77.5457C50.8739 77.6835 51.111 77.8046 51.4531 77.9097L52.8721 78.3342C53.3639 78.4678 53.7287 78.6671 53.9674 78.9327C54.2062 79.1958 54.3247 79.5111 54.3247 79.8767C54.3247 80.2189 54.2205 80.5223 54.012 80.7871C53.8035 81.0511 53.5169 81.2562 53.152 81.4016C52.7864 81.5462 52.3736 81.6202 51.9112 81.6202C51.3379 81.6202 50.8268 81.505 50.3805 81.2789C49.9332 81.0511 49.6172 80.7552 49.4305 80.3904C49.4087 80.3525 49.3969 80.3231 49.3969 80.3004C49.3969 80.2643 49.4154 80.234 49.4524 80.2121L49.8879 79.9658C49.9627 79.9213 50.0181 79.9246 50.056 79.9776C50.4586 80.6182 51.0799 80.9385 51.9222 80.9385C52.3618 80.9317 52.725 80.8401 53.0116 80.6652C53.2983 80.4904 53.442 80.2609 53.442 79.9785C53.442 79.77 53.3563 79.5943 53.1848 79.4531C53.0133 79.3118 52.7342 79.1849 52.3467 79.0731L51.195 78.7486C50.652 78.6074 50.2628 78.4107 50.0274 78.1568C49.7929 77.9029 49.676 77.5944 49.676 77.2287C49.676 76.8866 49.771 76.5806 49.961 76.3116C50.151 76.0443 50.4191 75.8375 50.7655 75.6921C51.1118 75.5466 51.5086 75.4743 51.9558 75.4743C52.4476 75.4743 52.8889 75.5677 53.2798 75.7534C53.6715 75.9401 53.9708 76.1931 54.1801 76.5134C54.2322 76.5873 54.228 76.6395 54.1683 76.6697L53.6993 76.9278C53.669 76.9429 53.6471 76.9497 53.632 76.9497C53.6034 76.948 53.5698 76.9286 53.532 76.8908ZM57.2652 76.2771C57.2056 76.2771 57.1753 76.3099 57.1753 76.3772V79.9204C57.1753 80.255 57.2308 80.487 57.3434 80.6131C57.4552 80.7392 57.6376 80.8039 57.8907 80.8039H58.6615C58.7431 80.8039 58.7843 80.8451 58.7843 80.9267L58.7733 81.3067C58.7733 81.3806 58.7288 81.4294 58.6388 81.4521C58.4455 81.4891 58.0949 81.5076 57.588 81.5076C57.119 81.5076 56.776 81.3974 56.5599 81.178C56.3439 80.9578 56.2363 80.6098 56.2363 80.1323V76.4007C56.2363 76.3183 56.1993 76.278 56.1245 76.278H55.2309C55.1494 76.278 55.1082 76.2402 55.1082 76.1662V75.6963C55.1082 75.6214 55.1452 75.5845 55.22 75.5845H56.1699C56.222 75.5845 56.2481 75.555 56.2481 75.4954L56.3716 73.7183C56.3716 73.6216 56.412 73.5737 56.4944 73.5737H57.0534C57.1425 73.5737 57.1879 73.6258 57.1879 73.73V75.4962C57.1879 75.5559 57.2173 75.5853 57.277 75.5853H58.6851C58.7674 75.5853 58.8078 75.6181 58.8078 75.6853V76.1662C58.8078 76.2402 58.7666 76.278 58.6851 76.278H57.2652V76.2771ZM60.1822 81.5076C60.078 81.5076 60.0259 81.4588 60.0259 81.3621V75.7299C60.0259 75.6332 60.0662 75.5845 60.1486 75.5845H60.7967C60.8791 75.5845 60.9195 75.6257 60.9195 75.7072V76.4327C60.9195 76.4772 60.9321 76.5033 60.9581 76.5117C60.9842 76.5184 61.0119 76.5033 61.0422 76.4671C61.6088 75.8039 62.1854 75.4718 62.7747 75.4718C63.0353 75.4718 63.1665 75.5197 63.1665 75.6164V76.2881C63.1665 76.3621 63.1328 76.3915 63.0656 76.3763C62.9311 76.3545 62.7638 76.3436 62.5629 76.3436C62.3469 76.3436 62.1123 76.4066 61.8593 76.5335C61.6054 76.6596 61.3936 76.8244 61.2221 77.0253C61.0506 77.2262 60.9649 77.4305 60.9649 77.639V81.3377C60.9649 81.4504 60.9085 81.5059 60.7967 81.5059H60.1822V81.5076ZM71.2239 73.3711C71.2239 73.2677 71.2693 73.2147 71.3576 73.2147H76.2753C76.3493 73.2147 76.3871 73.2559 76.3871 73.3375V73.9074C76.3871 73.9965 76.3392 74.0419 76.2417 74.0419H72.442C72.3823 74.0419 72.3428 74.0503 72.3243 74.0696C72.3058 74.0873 72.2966 74.1226 72.2966 74.1747V76.9244C72.2966 77.0068 72.3378 77.0472 72.4193 77.0472H75.4027C75.4851 77.0472 75.5254 77.0833 75.5254 77.159V77.7508C75.5254 77.7878 75.5162 77.8138 75.4977 77.8289C75.4801 77.8441 75.4464 77.8517 75.4027 77.8517H72.4193C72.3369 77.8517 72.2966 77.892 72.2966 77.9744V81.3604C72.2966 81.4571 72.2436 81.5059 72.1394 81.5059H71.3803C71.3206 81.5059 71.2794 81.4949 71.2576 81.4722C71.2349 81.4504 71.2239 81.4092 71.2239 81.3495V73.3711V73.3711ZM78.6997 74.3101C78.6997 74.3849 78.6845 74.4378 78.6551 74.4715C78.6257 74.5051 78.5727 74.5219 78.4988 74.5219H77.8506C77.7388 74.5219 77.6834 74.4597 77.6834 74.3319V73.3938C77.6834 73.2736 77.7355 73.2147 77.8397 73.2147H78.5441C78.5887 73.2147 78.6265 73.2299 78.6559 73.2593C78.6854 73.2887 78.7005 73.3299 78.7005 73.382V74.3101H78.6997ZM78.6559 81.3176C78.6559 81.3916 78.6408 81.442 78.6114 81.4681C78.5811 81.4941 78.529 81.5076 78.4534 81.5076H77.8834C77.817 81.5076 77.7716 81.4966 77.7497 81.4739C77.7279 81.4521 77.7161 81.4109 77.7161 81.3512V75.7408C77.7161 75.6374 77.7615 75.5845 77.8506 75.5845H78.5324C78.6148 75.5845 78.6551 75.6332 78.6551 75.7299V81.3176H78.6559ZM80.544 81.5076C80.4406 81.5076 80.3876 81.4588 80.3876 81.3621V75.7299C80.3876 75.6332 80.4288 75.5845 80.5104 75.5845H81.1804C81.2628 75.5845 81.3031 75.6257 81.3031 75.7072V76.3553C81.3031 76.4377 81.3367 76.4486 81.404 76.3889C81.8209 76.0603 82.1765 75.8257 82.4716 75.6845C82.7666 75.5433 83.0953 75.4727 83.461 75.4727C84.0267 75.4727 84.4681 75.6257 84.785 75.9308C85.1011 76.236 85.26 76.6462 85.26 77.1606V81.3285C85.26 81.4479 85.2045 81.5076 85.0927 81.5076H84.4664C84.3697 81.5076 84.321 81.4588 84.321 81.3621V77.3725C84.321 77.0001 84.226 76.7134 84.036 76.5125C83.846 76.3108 83.5535 76.2107 83.1584 76.2107C82.8457 76.2107 82.5573 76.2797 82.2925 76.4175C82.0277 76.5554 81.7058 76.7883 81.3266 77.1161V81.3394C81.3266 81.4 81.3132 81.4428 81.2871 81.4681C81.2611 81.4941 81.2182 81.5076 81.1585 81.5076H80.544V81.5076ZM93.1611 75.629C93.1611 76.4268 92.8954 77.0278 92.3616 77.433C91.8295 77.8399 91.1124 78.0425 90.2104 78.0425H88.3106C88.2434 78.0425 88.2106 78.0769 88.2106 78.1434V81.3394C88.2106 81.4521 88.1543 81.5076 88.0433 81.5076H87.2834C87.1867 81.5076 87.1371 81.4588 87.1371 81.3621V73.3711C87.1371 73.3122 87.1472 73.2711 87.1648 73.2484C87.1842 73.2273 87.2186 73.2156 87.2716 73.2156H90.0877C91.0191 73.2156 91.7639 73.414 92.3229 73.8133C92.882 74.2126 93.1611 74.817 93.1611 75.629ZM92.0666 75.5954C92.0666 75.0439 91.8909 74.6446 91.5412 74.3992C91.1915 74.1537 90.6879 74.031 90.0322 74.031H88.356C88.2593 74.031 88.2114 74.0755 88.2114 74.1646V77.0699C88.2114 77.1295 88.2181 77.1707 88.2324 77.1926C88.2476 77.2153 88.2736 77.2262 88.3115 77.2262H90.1113C90.7224 77.2262 91.2007 77.0909 91.5471 76.8185C91.8934 76.547 92.0666 76.1393 92.0666 75.5954ZM95.5754 81.3176C95.5754 81.3916 95.5602 81.442 95.5308 81.4681C95.5014 81.4941 95.4484 81.5076 95.3744 81.5076H94.7936C94.7263 81.5076 94.6818 81.4966 94.6591 81.4739C94.6372 81.4521 94.6263 81.4109 94.6263 81.3512L94.6372 73.3719C94.6372 73.2685 94.6826 73.2156 94.7709 73.2156H95.4425C95.5308 73.2156 95.5754 73.2643 95.5754 73.361V81.3176ZM100.738 80.7922C100.164 81.3436 99.5019 81.6194 98.7496 81.6194C98.1687 81.6194 97.7122 81.4714 97.3802 81.178C97.049 80.883 96.8834 80.4904 96.8834 79.9986C96.8834 79.4026 97.1347 78.9327 97.6366 78.5906C98.1393 78.2476 98.8681 78.0475 99.8222 77.9861L100.694 77.9197C100.82 77.9046 100.884 77.8483 100.884 77.7524V77.4507C100.884 77.048 100.76 76.7294 100.51 76.4949C100.26 76.2603 99.9231 76.1418 99.4986 76.1418C98.8429 76.1418 98.3057 76.4402 97.8888 77.0362C97.8669 77.0732 97.8442 77.0968 97.8223 77.1085C97.8005 77.1203 97.7694 77.1178 97.7333 77.1035L97.1289 76.9017C97.0927 76.8866 97.0733 76.8605 97.0733 76.8236C97.0733 76.8017 97.0851 76.7681 97.1078 76.7227C97.3314 76.3284 97.6501 76.0207 98.0636 75.8013C98.4764 75.5811 98.9665 75.471 99.5331 75.471C100.263 75.471 100.822 75.6399 101.209 75.9787C101.597 76.3175 101.79 76.7857 101.79 77.3817V81.3369C101.79 81.4042 101.778 81.4496 101.756 81.4714C101.735 81.4941 101.693 81.505 101.634 81.505H101.075C100.986 81.505 100.934 81.4454 100.918 81.326L100.896 80.8115C100.889 80.7602 100.87 80.7342 100.84 80.7342C100.811 80.7342 100.775 80.7544 100.738 80.7922ZM100.884 78.6687C100.884 78.5494 100.828 78.4905 100.716 78.4905L99.9904 78.5569C99.2977 78.6023 98.7622 78.7352 98.3864 78.9596C98.0107 79.1832 97.8223 79.4926 97.8223 79.8877C97.8223 80.2079 97.9359 80.4618 98.1628 80.6468C98.3906 80.8342 98.6932 80.9267 99.0741 80.9267C99.3044 80.9267 99.5322 80.8855 99.7558 80.8039C99.9794 80.7216 100.176 80.6106 100.348 80.4685C100.519 80.3349 100.651 80.1911 100.744 80.0381C100.838 79.8843 100.885 79.7389 100.885 79.5968V78.6687H100.884ZM103.577 81.5076C103.472 81.5076 103.42 81.4588 103.42 81.3621V75.7299C103.42 75.6332 103.461 75.5845 103.543 75.5845H104.215C104.297 75.5845 104.337 75.6257 104.337 75.7072V76.3553C104.337 76.4377 104.37 76.4486 104.437 76.3889C104.854 76.0603 105.211 75.8257 105.505 75.6845C105.799 75.5433 106.129 75.4727 106.493 75.4727C107.06 75.4727 107.501 75.6257 107.818 75.9308C108.135 76.236 108.292 76.6462 108.292 77.1606V81.3285C108.292 81.4479 108.237 81.5076 108.125 81.5076H107.5C107.403 81.5076 107.354 81.4588 107.354 81.3621V77.3725C107.354 77.0001 107.26 76.7134 107.069 76.5125C106.878 76.3108 106.587 76.2107 106.192 76.2107C105.879 76.2107 105.59 76.2797 105.326 76.4175C105.062 76.5554 104.739 76.7883 104.359 77.1161V81.3394C104.359 81.4 104.346 81.4428 104.32 81.4681C104.294 81.4941 104.252 81.5076 104.192 81.5076H103.577V81.5076ZM66.7871 81.6194C66.2281 81.6194 65.7346 81.4899 65.3059 81.2335C64.8772 80.9754 64.5459 80.6165 64.3114 80.155C64.0769 79.6926 63.96 79.1681 63.96 78.5788C63.96 77.9752 64.0811 77.4397 64.3232 76.9698C64.5653 76.4999 64.9007 76.1342 65.3294 75.8686C65.7581 75.6046 66.2474 75.4718 66.7989 75.4718C67.3503 75.4718 67.8395 75.6038 68.2691 75.8686C68.697 76.1334 69.0282 76.4999 69.2636 76.9698C69.4981 77.4397 69.6149 77.971 69.6149 78.567C69.6149 79.1563 69.4956 79.6817 69.2577 80.1432C69.019 80.6056 68.6861 80.9662 68.2573 81.2268C67.8286 81.4882 67.3385 81.6194 66.7871 81.6194ZM66.8098 80.9149C67.3907 80.9149 67.8429 80.7047 68.1674 80.2836C68.491 79.8633 68.6533 79.2841 68.6533 78.5469C68.6533 77.8163 68.4877 77.2363 68.1565 76.8084C67.8253 76.3805 67.3722 76.1662 66.7989 76.1662C66.218 76.1662 65.7598 76.3797 65.4244 76.8084C65.089 77.2371 64.9217 77.8163 64.9217 78.5469C64.9217 79.2765 65.089 79.854 65.4244 80.2794C65.759 80.7031 66.2205 80.9149 66.8098 80.9149Z" fill="#3B3A39"/>
<path d="M110.308 64.9648H45.0039V66.752H110.308V64.9648Z" fill="#008F8E"/>
<path fill-rule="evenodd" clip-rule="evenodd" d="M28.3121 62.7976L26.1828 50.6135L23.9434 63.3735L10.9699 65.6986L23.4827 67.9986L26.0836 81.9254L29.141 67.6455L40.144 65.7793L28.4164 63.3953L28.3121 62.7976ZM27.0646 45.2839L29.9673 61.8939L49.8651 65.9391L30.6331 69.2016L25.9668 91L21.9569 69.5302L1 65.6768L22.4008 61.8418L26.1879 40.262L27.0646 45.2839Z" fill="#008F8E"/>
</svg>
