<svg width="138" height="89" viewBox="0 0 138 89" fill="none" xmlns="http://www.w3.org/2000/svg">
<path fill-rule="evenodd" clip-rule="evenodd" d="M79.4827 0.322591C76.2807 0.322591 72.5643 0.0124011 68.0198 0.0124011C66.368 0.0124011 65.1289 0.425991 65.1289 1.25233C65.1289 1.97528 65.645 2.49142 67.7105 3.00757C72.2541 4.1441 74.0102 5.89935 74.2161 9.41067C74.4229 12.0956 74.4229 18.1885 74.4229 27.8962C74.4229 48.3428 73.9068 55.9859 73.5974 59.187C73.5537 59.7519 73.4923 60.5001 73.0191 61.276H84.3037C83.432 60.2109 83.3546 58.9087 83.305 57.3275C83.2016 54.3323 82.7889 39.8752 82.8914 37.9131C82.9948 37.5004 83.4076 36.674 83.7178 36.674C85.8866 36.3638 90.8438 36.3638 92.8059 36.3638C94.1198 36.3638 96.1012 36.4891 97.6614 36.6337V31.9892C94.3257 32.1052 87.5334 32.0262 84.0271 32.0262C83.511 32.0262 82.994 30.993 82.994 28.2055C82.994 21.3897 83.2008 7.86138 83.4067 5.3832C83.4067 5.07385 84.0263 4.14411 85.0594 4.04071C87.2274 3.83391 97.5546 3.73051 101.067 4.2475C104.475 4.76365 105.61 5.69339 107.262 10.754C107.882 12.8194 108.708 13.9551 109.534 13.9551C110.463 13.9551 111.084 12.5092 110.98 11.1667C110.877 7.65542 110.464 4.04071 110.67 1.04637C110.67 0.426829 109.948 -0.0901565 109.431 0.0132413C108.605 0.0132413 99.1039 0.323431 92.9084 0.323431H79.4827V0.322591Z" fill="white"/>
<path fill-rule="evenodd" clip-rule="evenodd" d="M128.527 34.8523C128.527 45.8158 121.473 50.2955 116.421 50.2955C115.944 50.2955 114.896 50.2955 114.038 50.2955C113.275 50.2955 112.894 50.7722 112.894 51.1538C112.894 51.7263 113.37 52.2029 114.514 52.6787C116.039 53.2512 118.519 53.3462 119.567 53.3462C123.666 53.3462 128.052 51.2488 130.53 49.1523C133.294 46.7682 137.203 42.8601 137.203 34.3765C137.203 31.2308 136.25 25.797 131.674 21.4123C128.148 18.0758 122.522 15.7876 113.849 15.7876C109.082 15.7876 101.742 16.5509 97.9287 16.5509C97.0704 16.5509 95.4497 16.4551 94.7831 16.5509C93.5431 16.6459 92.5898 17.1225 92.5898 17.885C92.5898 18.4566 93.6389 19.0282 95.5455 19.3149C100.884 20.0773 100.789 21.4123 100.884 24.8437C100.98 27.8935 101.171 48.1032 101.171 51.2488C101.171 53.9683 101.109 57.7116 101.002 61.2759H109.198C109.145 57.6822 109.083 52.9536 109.083 48.0082C109.178 37.0455 109.178 25.2245 109.274 23.223C109.369 20.9356 109.846 19.7915 110.227 19.5057C110.99 19.0291 111.944 18.6474 112.992 18.6474C121.95 18.6466 128.527 26.1778 128.527 34.8523Z" fill="white"/>
<path fill-rule="evenodd" clip-rule="evenodd" d="M61.7464 9.28906L61.1345 11.0754L40.5928 61.2754H46.6327L51.7068 47.12L52.9274 46.2332L71.1153 45.7893L71.9416 45.8061L71.7466 40.8287L54.8129 41.1314L54.2581 40.3546L62.909 16.0662L61.7464 9.28906Z" fill="white"/>
<path fill-rule="evenodd" clip-rule="evenodd" d="M40.6085 79.5077C40.5639 79.5077 40.5303 79.49 40.5076 79.4572C40.4857 79.4236 40.4857 79.3765 40.5076 79.3177L43.4027 71.3712C43.4246 71.3124 43.4506 71.2712 43.4809 71.2485C43.5103 71.2275 43.5591 71.2157 43.6263 71.2157H44.4981C44.6393 71.2157 44.7259 71.2712 44.7553 71.383L47.616 79.3177L47.6269 79.3732C47.6269 79.4614 47.5857 79.5068 47.5042 79.5068H46.7106C46.6207 79.5068 46.561 79.4698 46.5316 79.3942L45.7607 77.227C45.7456 77.1976 45.7313 77.1741 45.7161 77.1598C45.701 77.1447 45.6708 77.1379 45.6262 77.1379H42.3746C42.3074 77.1379 42.2628 77.1682 42.2401 77.227L41.4474 79.406C41.4247 79.4732 41.3693 79.5068 41.2793 79.5068H40.6085V79.5077ZM45.3353 76.2889C45.4169 76.2889 45.4463 76.2401 45.4245 76.1435L44.0828 72.4665C44.0609 72.4001 44.034 72.3665 44.0046 72.3665C43.9743 72.3665 43.9483 72.4001 43.9264 72.4665L42.5629 76.1653L42.5411 76.2326C42.5411 76.2704 42.5705 76.2881 42.6302 76.2881H45.3353V76.2889ZM52.532 74.8909C52.3756 74.6606 52.1613 74.4757 51.8897 74.3386C51.6174 74.2008 51.303 74.1318 50.9449 74.1318C50.5355 74.1318 50.2001 74.2193 49.9395 74.395C49.6789 74.5707 49.5478 74.7985 49.5478 75.0818C49.5478 75.2524 49.6133 75.4088 49.7436 75.5458C49.8739 75.6836 50.111 75.8047 50.4531 75.9098L51.8721 76.3343C52.3639 76.4679 52.7287 76.6672 52.9674 76.9328C53.2062 77.1959 53.3247 77.5112 53.3247 77.8769C53.3247 78.219 53.2205 78.5225 53.012 78.7873C52.8035 79.0512 52.5169 79.2563 52.152 79.4018C51.7864 79.5463 51.3736 79.6203 50.9112 79.6203C50.3379 79.6203 49.8268 79.5052 49.3805 79.279C48.9332 79.0512 48.6172 78.7553 48.4305 78.3905C48.4087 78.3526 48.3969 78.3232 48.3969 78.3005C48.3969 78.2644 48.4154 78.2341 48.4524 78.2123L48.8879 77.966C48.9627 77.9214 49.0181 77.9248 49.056 77.9777C49.4586 78.6183 50.0799 78.9386 50.9222 78.9386C51.3618 78.9318 51.725 78.8402 52.0116 78.6654C52.2983 78.4905 52.442 78.261 52.442 77.9786C52.442 77.7701 52.3563 77.5944 52.1848 77.4532C52.0133 77.312 51.7342 77.185 51.3467 77.0732L50.195 76.7487C49.652 76.6075 49.2628 76.4108 49.0274 76.1569C48.7929 75.903 48.676 75.5945 48.676 75.2289C48.676 74.8867 48.771 74.5807 48.961 74.3117C49.151 74.0444 49.4191 73.8376 49.7655 73.6922C50.1118 73.5468 50.5086 73.4745 50.9558 73.4745C51.4476 73.4745 51.8889 73.5678 52.2798 73.7536C52.6715 73.9402 52.9708 74.1932 53.1801 74.5135C53.2322 74.5875 53.228 74.6396 53.1683 74.6698L52.6993 74.9279C52.669 74.9431 52.6471 74.9498 52.632 74.9498C52.6034 74.9481 52.5698 74.9288 52.532 74.8909ZM56.2652 74.2773C56.2056 74.2773 56.1753 74.3101 56.1753 74.3773V77.9206C56.1753 78.2551 56.2308 78.4871 56.3434 78.6132C56.4552 78.7393 56.6376 78.8041 56.8907 78.8041H57.6615C57.7431 78.8041 57.7843 78.8453 57.7843 78.9268L57.7733 79.3068C57.7733 79.3807 57.7288 79.4295 57.6388 79.4522C57.4455 79.4892 57.0949 79.5077 56.588 79.5077C56.119 79.5077 55.776 79.3976 55.5599 79.1782C55.3439 78.9579 55.2363 78.6099 55.2363 78.1324V74.4008C55.2363 74.3185 55.1993 74.2781 55.1245 74.2781H54.2309C54.1494 74.2781 54.1082 74.2403 54.1082 74.1663V73.6964C54.1082 73.6216 54.1452 73.5846 54.22 73.5846H55.1699C55.222 73.5846 55.2481 73.5552 55.2481 73.4955L55.3716 71.7184C55.3716 71.6217 55.412 71.5738 55.4944 71.5738H56.0534C56.1425 71.5738 56.1879 71.6259 56.1879 71.7302V73.4963C56.1879 73.556 56.2173 73.5854 56.277 73.5854H57.6851C57.7674 73.5854 57.8078 73.6182 57.8078 73.6855V74.1663C57.8078 74.2403 57.7666 74.2781 57.6851 74.2781H56.2652V74.2773ZM59.1822 79.5077C59.078 79.5077 59.0259 79.4589 59.0259 79.3622V73.73C59.0259 73.6333 59.0662 73.5846 59.1486 73.5846H59.7967C59.8791 73.5846 59.9195 73.6258 59.9195 73.7073V74.4328C59.9195 74.4773 59.9321 74.5034 59.9581 74.5118C59.9842 74.5185 60.0119 74.5034 60.0422 74.4673C60.6088 73.804 61.1854 73.4719 61.7747 73.4719C62.0353 73.4719 62.1665 73.5199 62.1665 73.6165V74.2882C62.1665 74.3622 62.1328 74.3916 62.0656 74.3765C61.9311 74.3546 61.7638 74.3437 61.5629 74.3437C61.3469 74.3437 61.1123 74.4067 60.8593 74.5337C60.6054 74.6598 60.3936 74.8245 60.2221 75.0254C60.0506 75.2263 59.9649 75.4306 59.9649 75.6391V79.3379C59.9649 79.4505 59.9085 79.506 59.7967 79.506H59.1822V79.5077ZM70.2239 71.3712C70.2239 71.2678 70.2693 71.2148 70.3576 71.2148H75.2753C75.3493 71.2148 75.3871 71.256 75.3871 71.3376V71.9075C75.3871 71.9966 75.3392 72.042 75.2417 72.042H71.442C71.3823 72.042 71.3428 72.0504 71.3243 72.0698C71.3058 72.0874 71.2966 72.1227 71.2966 72.1748V74.9245C71.2966 75.0069 71.3378 75.0473 71.4193 75.0473H74.4027C74.4851 75.0473 74.5254 75.0834 74.5254 75.1591V75.7509C74.5254 75.7879 74.5162 75.8139 74.4977 75.8291C74.48 75.8442 74.4464 75.8518 74.4027 75.8518H71.4193C71.3369 75.8518 71.2966 75.8921 71.2966 75.9745V79.3606C71.2966 79.4572 71.2436 79.506 71.1394 79.506H70.3803C70.3206 79.506 70.2794 79.4951 70.2576 79.4724C70.2349 79.4505 70.2239 79.4093 70.2239 79.3496V71.3712ZM77.6997 72.3102C77.6997 72.385 77.6845 72.438 77.6551 72.4716C77.6257 72.5052 77.5727 72.522 77.4988 72.522H76.8506C76.7388 72.522 76.6834 72.4598 76.6834 72.332V71.3939C76.6834 71.2737 76.7355 71.2148 76.8397 71.2148H77.5441C77.5887 71.2148 77.6265 71.23 77.6559 71.2594C77.6854 71.2888 77.7005 71.33 77.7005 71.3821V72.3102H77.6997ZM77.6559 79.3177C77.6559 79.3917 77.6408 79.4421 77.6114 79.4682C77.5812 79.4942 77.529 79.5077 77.4534 79.5077H76.8834C76.817 79.5077 76.7716 79.4967 76.7497 79.474C76.7279 79.4522 76.7161 79.411 76.7161 79.3513V73.7409C76.7161 73.6375 76.7615 73.5846 76.8506 73.5846H77.5324C77.6148 73.5846 77.6551 73.6333 77.6551 73.73V79.3177H77.6559ZM79.544 79.5077C79.4406 79.5077 79.3876 79.4589 79.3876 79.3622V73.73C79.3876 73.6333 79.4288 73.5846 79.5104 73.5846H80.1804C80.2628 73.5846 80.3031 73.6258 80.3031 73.7073V74.3555C80.3031 74.4378 80.3367 74.4488 80.404 74.3891C80.8209 74.0604 81.1765 73.8258 81.4716 73.6846C81.7666 73.5434 82.0953 73.4728 82.461 73.4728C83.0267 73.4728 83.4681 73.6258 83.785 73.9309C84.1011 74.2361 84.26 74.6463 84.26 75.1608V79.3286C84.26 79.448 84.2045 79.5077 84.0927 79.5077H83.4664C83.3697 79.5077 83.321 79.4589 83.321 79.3622V75.3726C83.321 75.0002 83.226 74.7136 83.036 74.5126C82.846 74.3109 82.5535 74.2109 82.1584 74.2109C81.8457 74.2109 81.5573 74.2798 81.2925 74.4176C81.0277 74.5555 80.7058 74.7884 80.3266 75.1162V79.3396C80.3266 79.4001 80.3132 79.443 80.2871 79.4682C80.2611 79.4942 80.2182 79.5077 80.1585 79.5077H79.544ZM92.1611 73.6291C92.1611 74.4269 91.8954 75.028 91.3616 75.4331C90.8295 75.84 90.1124 76.0426 89.2104 76.0426H87.3106C87.2434 76.0426 87.2106 76.0771 87.2106 76.1435V79.3396C87.2106 79.4522 87.1543 79.5077 87.0433 79.5077H86.2834C86.1867 79.5077 86.1371 79.4589 86.1371 79.3622V71.3712C86.1371 71.3124 86.1472 71.2712 86.1648 71.2485C86.1842 71.2275 86.2186 71.2157 86.2716 71.2157H89.0877C90.0191 71.2157 90.7639 71.4141 91.3229 71.8134C91.882 72.2127 92.1611 72.8171 92.1611 73.6291ZM91.0666 73.5955C91.0666 73.0441 90.8909 72.6448 90.5412 72.3993C90.1915 72.1538 89.6879 72.0311 89.0322 72.0311H87.356C87.2593 72.0311 87.2114 72.0757 87.2114 72.1648V75.07C87.2114 75.1297 87.2181 75.1709 87.2324 75.1927C87.2476 75.2154 87.2736 75.2263 87.3115 75.2263H89.1113C89.7224 75.2263 90.2007 75.091 90.5471 74.8186C90.8934 74.5471 91.0666 74.1394 91.0666 73.5955ZM94.5754 79.3177C94.5754 79.3917 94.5602 79.4421 94.5308 79.4682C94.5014 79.4942 94.4484 79.5077 94.3744 79.5077H93.7936C93.7263 79.5077 93.6818 79.4967 93.6591 79.474C93.6372 79.4522 93.6263 79.411 93.6263 79.3513L93.6372 71.372C93.6372 71.2686 93.6826 71.2157 93.7709 71.2157H94.4425C94.5308 71.2157 94.5754 71.2644 94.5754 71.3611V79.3177ZM99.7385 78.7923C99.1643 79.3438 98.5019 79.6195 97.7496 79.6195C97.1687 79.6195 96.7122 79.4715 96.3802 79.1782C96.049 78.8831 95.8834 78.4905 95.8834 77.9987C95.8834 77.4027 96.1347 76.9328 96.6366 76.5907C97.1393 76.2477 97.8681 76.0476 98.8222 75.9863L99.694 75.9199C99.82 75.9047 99.8839 75.8484 99.8839 75.7526V75.4508C99.8839 75.0481 99.7595 74.7295 99.5099 74.495C99.2602 74.2605 98.9231 74.1419 98.4986 74.1419C97.8429 74.1419 97.3057 74.4404 96.8888 75.0364C96.8669 75.0733 96.8442 75.0969 96.8223 75.1087C96.8005 75.1204 96.7694 75.1179 96.7333 75.1036L96.1289 74.9019C96.0927 74.8867 96.0733 74.8607 96.0733 74.8237C96.0733 74.8018 96.0851 74.7682 96.1078 74.7228C96.3314 74.3285 96.6501 74.0209 97.0636 73.8015C97.4764 73.5812 97.9665 73.4711 98.5331 73.4711C99.2627 73.4711 99.8217 73.6401 100.209 73.9788C100.597 74.3176 100.79 74.7858 100.79 75.3819V79.337C100.79 79.4043 100.778 79.4497 100.756 79.4715C100.735 79.4942 100.693 79.5052 100.634 79.5052H100.075C99.9865 79.5052 99.9336 79.4455 99.9184 79.3261L99.8957 78.8116C99.889 78.7604 99.8697 78.7343 99.8402 78.7343C99.8108 78.7343 99.7755 78.7545 99.7385 78.7923ZM99.8839 76.6689C99.8839 76.5495 99.8285 76.4907 99.7158 76.4907L98.9904 76.5571C98.2977 76.6024 97.7622 76.7353 97.3864 76.9597C97.0107 77.1833 96.8223 77.4927 96.8223 77.8878C96.8223 78.2081 96.9359 78.4619 97.1628 78.6469C97.3906 78.8343 97.6932 78.9268 98.0741 78.9268C98.3044 78.9268 98.5322 78.8856 98.7558 78.8041C98.9794 78.7217 99.1761 78.6107 99.3484 78.4687C99.5191 78.335 99.6511 78.1913 99.7444 78.0383C99.8377 77.8844 99.8848 77.739 99.8848 77.5969V76.6689H99.8839ZM102.577 79.5077C102.472 79.5077 102.42 79.4589 102.42 79.3622V73.73C102.42 73.6333 102.461 73.5846 102.543 73.5846H103.215C103.297 73.5846 103.337 73.6258 103.337 73.7073V74.3555C103.337 74.4378 103.37 74.4488 103.437 74.3891C103.854 74.0604 104.211 73.8258 104.505 73.6846C104.799 73.5434 105.129 73.4728 105.493 73.4728C106.06 73.4728 106.501 73.6258 106.818 73.9309C107.135 74.2361 107.292 74.6463 107.292 75.1608V79.3286C107.292 79.448 107.237 79.5077 107.125 79.5077H106.5C106.403 79.5077 106.354 79.4589 106.354 79.3622V75.3726C106.354 75.0002 106.26 74.7136 106.069 74.5126C105.878 74.3109 105.587 74.2109 105.192 74.2109C104.879 74.2109 104.59 74.2798 104.326 74.4176C104.062 74.5555 103.739 74.7884 103.359 75.1162V79.3396C103.359 79.4001 103.346 79.443 103.32 79.4682C103.294 79.4942 103.252 79.5077 103.192 79.5077H102.577ZM65.7871 79.6195C65.2281 79.6195 64.7346 79.49 64.3059 79.2336C63.8772 78.9756 63.5459 78.6166 63.3114 78.1551C63.0769 77.6928 62.96 77.1682 62.96 76.5789C62.96 75.9753 63.0811 75.4399 63.3232 74.9699C63.5653 74.5 63.9007 74.1344 64.3294 73.8687C64.7581 73.6048 65.2474 73.4719 65.7989 73.4719C66.3503 73.4719 66.8395 73.6039 67.2691 73.8687C67.697 74.1335 68.0282 74.5 68.2636 74.9699C68.4981 75.4399 68.6149 75.9711 68.6149 76.5672C68.6149 77.1564 68.4956 77.6818 68.2577 78.1433C68.019 78.6057 67.6861 78.9663 67.2573 79.2269C66.8286 79.4883 66.3385 79.6195 65.7871 79.6195ZM65.8098 78.915C66.3907 78.915 66.8429 78.7049 67.1674 78.2837C67.491 77.8634 67.6533 77.2842 67.6533 76.547C67.6533 75.8165 67.4877 75.2364 67.1565 74.8085C66.8253 74.3807 66.3722 74.1663 65.7989 74.1663C65.218 74.1663 64.7598 74.3798 64.4244 74.8085C64.089 75.2373 63.9217 75.8165 63.9217 76.547C63.9217 77.2766 64.089 77.8542 64.4244 78.2795C64.759 78.7032 65.2205 78.915 65.8098 78.915Z" fill="white"/>
<path d="M109.308 62.9648H44.0039V64.752H109.308V62.9648Z" fill="white"/>
<path fill-rule="evenodd" clip-rule="evenodd" d="M27.3121 60.7979L25.1828 48.6137L22.9434 61.3737L9.96988 63.6989L22.4827 65.9988L25.0836 79.9256L28.141 65.6458L39.144 63.7796L27.4164 61.3956L27.3121 60.7979ZM26.0646 43.2841L28.9673 59.8942L48.8651 63.9393L29.6331 67.2018L24.9668 89.0002L20.9569 67.5305L0 63.677L21.4008 59.8421L25.1879 38.2622L26.0646 43.2841Z" fill="white"/>
</svg>
