<svg width="1200" height="185" viewBox="0 0 1200 185" fill="none" xmlns="http://www.w3.org/2000/svg">
<path d="M0 0H1200V185H0V0Z" fill="#EFEFEF"/>
<g clip-path="url(#clip0_324_21)">
<g opacity="0.16">
<path d="M351.516 94.8131L338.391 83.4327C339.297 83.5323 340.205 83.5611 341.115 83.5094C346.8 83.0937 350.918 78.5561 350.658 74.9248C350.399 71.2934 345.684 67.3896 339.993 67.7839C337.565 68.0605 335.201 68.7431 332.991 69.7855C333.722 67.4537 334.055 65.0154 333.984 62.5709C333.569 56.8863 329.029 52.7784 325.398 53.0379C321.767 53.2974 317.863 58.0123 318.257 63.7035C318.33 64.6076 318.486 65.5051 318.725 66.3861L305.588 55.014C305.118 54.6116 304.411 54.6566 303.998 55.1255L296.627 63.6343C296.215 64.1032 296.27 64.8117 296.739 65.2239L298.44 66.7021L277.069 91.3583C275.037 93.7077 275.29 97.2568 277.637 99.2983L311.653 128.78C314.002 130.811 317.552 130.559 319.593 128.211L340.966 103.545L342.667 105.023C343.138 105.425 343.844 105.38 344.257 104.912L351.628 96.4027C352.04 95.9338 351.987 95.2154 351.516 94.8131ZM340.147 70.0295C344.701 69.7101 348.248 72.8323 348.411 75.0894C348.574 77.3465 345.516 80.9345 340.961 81.2638C338.953 81.3263 336.947 81.0748 335.015 80.501L329.927 76.0994C329.94 76.0813 329.963 76.0648 329.976 76.0467C330.14 75.8509 330.296 75.6437 330.454 75.4265C330.506 75.3541 330.549 75.2801 330.602 75.2078C330.723 75.0252 330.845 74.8426 330.956 74.6584C330.997 74.5942 331.038 74.5301 331.079 74.4659C331.222 74.2159 331.354 73.9741 331.487 73.7225C331.503 73.6847 331.518 73.6567 331.534 73.6189C331.641 73.4034 331.736 73.1962 331.841 72.9906C331.856 72.9627 331.871 72.9347 331.885 72.9067C334.398 71.3873 337.216 70.4051 340.147 70.0295ZM324.586 86.3639L317.778 80.4709L323.671 73.6632L330.479 79.5562L324.586 86.3639ZM320.495 63.5372C320.175 58.9836 323.297 55.4366 325.553 55.2835C327.81 55.1205 331.398 58.1786 331.727 62.7339C331.774 65.813 331.159 68.8533 329.93 71.6803C329.766 72.0586 329.595 72.4154 329.418 72.751C329.372 72.8447 329.316 72.9368 329.27 73.0306C329.137 73.2822 328.997 73.5125 328.861 73.723C328.818 73.797 328.766 73.8694 328.723 73.9434C328.562 74.1803 328.393 74.4057 328.216 74.6195L322.091 69.3162C321.259 67.4855 320.72 65.5411 320.495 63.5372ZM304.962 57.4443L321.97 72.185L316.077 78.9928L299.069 64.2521L304.962 57.4443ZM278.77 92.8365L300.144 68.1606L316.311 82.1638L292.72 109.391L279.106 97.5956C277.698 96.3687 277.543 94.2448 278.77 92.8365ZM294.422 110.86L318.012 83.642L321.416 86.5885L297.815 113.814L294.422 110.86ZM317.89 126.743C316.673 128.153 314.54 128.306 313.131 127.079L299.517 115.283L323.108 88.065L339.265 102.067L317.89 126.743ZM343.295 102.583L326.287 87.8421L332.18 81.0344L349.197 95.7767L343.295 102.583Z" fill="#8E57E7"/>
</g>
</g>
<g clip-path="url(#clip1_324_21)">
<g opacity="0.16">
<path d="M950.907 90.4172L935.041 97.4923C935.515 96.7136 935.925 95.9036 936.264 95.0566C938.293 89.7303 935.925 84.0791 932.525 82.7773C929.125 81.4754 923.593 84.0949 921.541 89.4181C920.764 91.735 920.382 94.1652 920.391 96.609C918.588 94.9595 916.52 93.6255 914.275 92.6553C908.949 90.626 903.306 93 902.004 96.3998C900.702 99.7997 903.322 105.332 908.645 107.384C909.495 107.7 910.374 107.939 911.273 108.096L895.41 115.184C894.846 115.44 894.588 116.1 894.838 116.672L899.428 126.952C899.678 127.524 900.343 127.774 900.915 127.523L902.974 126.608L916.268 156.406C917.537 159.241 920.859 160.514 923.703 159.251L964.81 140.91C967.645 139.641 968.918 136.319 967.655 133.476L954.353 103.672L956.412 102.756C956.976 102.5 957.234 101.841 956.984 101.269L952.395 90.989C952.144 90.4171 951.471 90.1612 950.907 90.4172ZM923.641 90.2284C925.279 85.9675 929.609 84.0753 931.723 84.8829C933.837 85.6906 935.793 89.9799 934.164 94.2464C933.371 96.0914 932.294 97.8024 930.956 99.3101L924.815 102.057C924.804 102.038 924.799 102.01 924.788 101.99C924.68 101.759 924.558 101.53 924.428 101.295C924.385 101.217 924.336 101.147 924.293 101.069C924.179 100.881 924.065 100.694 923.945 100.515C923.904 100.45 923.863 100.386 923.823 100.322C923.657 100.086 923.493 99.8652 923.321 99.6382C923.294 99.6073 923.275 99.5821 923.248 99.5512C923.098 99.3634 922.95 99.1894 922.808 99.0073C922.789 98.982 922.77 98.9568 922.751 98.9316C922.438 96.0122 922.741 93.0428 923.641 90.2284ZM931.854 111.241L923.634 114.915L919.96 106.694L928.18 103.02L931.854 111.241ZM909.441 105.286C905.18 103.648 903.288 99.3183 904.104 97.2101C904.912 95.0961 909.201 93.1396 913.467 94.7692C916.277 96.0299 918.771 97.8744 920.812 100.184C921.086 100.493 921.337 100.799 921.566 101.101C921.631 101.183 921.691 101.272 921.756 101.354C921.928 101.581 922.078 101.805 922.211 102.017C922.26 102.087 922.303 102.165 922.352 102.235C922.499 102.481 922.631 102.73 922.75 102.981L915.353 106.286C913.342 106.265 911.352 105.93 909.441 105.286ZM897.347 116.78L917.901 107.61L921.574 115.83L901.021 125.001L897.347 116.78ZM918.327 155.49L905.017 125.681L924.547 116.96L939.23 149.858L922.781 157.2C921.074 157.957 919.084 157.198 918.327 155.49ZM941.281 148.937L926.606 116.044L930.716 114.207L945.394 147.114L941.281 148.937ZM965.604 134.397C966.366 136.096 965.602 138.094 963.894 138.851L947.445 146.193L932.77 113.3L952.294 104.587L965.604 134.397ZM954.467 101.155L933.913 110.325L930.24 102.105L950.799 92.926L954.467 101.155Z" fill="#8E57E7"/>
</g>
</g>
<g clip-path="url(#clip2_324_21)">
<g opacity="0.16">
<path d="M1172.1 63.435L1157.59 53.8879C1158.5 53.8669 1159.41 53.7756 1160.3 53.6041C1165.88 52.4412 1169.36 47.3996 1168.63 43.8343C1167.89 40.269 1162.7 37.0221 1157.11 38.1646C1154.74 38.7594 1152.49 39.7482 1150.44 41.0734C1150.85 38.6655 1150.86 36.2045 1150.47 33.7908C1149.3 28.2109 1144.26 24.7385 1140.7 25.4753C1137.13 26.2121 1133.89 31.4013 1135.03 36.9906C1135.22 37.8771 1135.49 38.7463 1135.85 39.5879L1121.32 30.0505C1120.8 29.7137 1120.11 29.8517 1119.76 30.3709L1113.58 39.7787C1113.23 40.2979 1113.38 40.993 1113.9 41.3397L1115.78 42.5803L1097.85 69.8431C1096.15 72.4401 1096.87 75.9248 1099.46 77.6384L1137.08 102.369C1139.67 104.073 1143.16 103.353 1144.87 100.756L1162.8 73.4837L1164.68 74.7243C1165.2 75.061 1165.9 74.9231 1166.24 74.4038L1172.42 64.996C1172.77 64.4768 1172.62 63.7717 1172.1 63.435ZM1157.56 40.3701C1162.03 39.452 1165.96 42.0785 1166.42 44.2943C1166.88 46.51 1164.32 50.4706 1159.85 51.3986C1157.87 51.7257 1155.85 51.7413 1153.86 51.4277L1148.23 47.7366C1148.24 47.717 1148.26 47.6976 1148.27 47.6779C1148.41 47.4622 1148.54 47.2361 1148.67 47.0001C1148.71 46.9214 1148.74 46.8424 1148.78 46.7637C1148.88 46.5667 1148.98 46.3696 1149.06 46.1723C1149.09 46.1033 1149.13 46.0343 1149.16 45.9653C1149.27 45.6986 1149.37 45.4416 1149.46 45.1746C1149.48 45.1349 1149.49 45.1053 1149.5 45.0656C1149.58 44.8379 1149.64 44.62 1149.72 44.4023C1149.73 44.3726 1149.74 44.343 1149.75 44.3133C1152.04 42.4753 1154.71 41.1295 1157.56 40.3701ZM1144.29 58.6167L1136.77 53.6744L1141.71 46.1481L1149.24 51.0903L1144.29 58.6167ZM1137.22 36.5303C1136.31 32.0588 1138.93 28.1304 1141.15 27.6808C1143.36 27.2211 1147.32 29.7786 1148.25 34.2504C1148.7 37.2964 1148.5 40.3913 1147.65 43.3559C1147.54 43.7525 1147.42 44.1288 1147.29 44.4848C1147.25 44.5838 1147.21 44.6825 1147.18 44.7815C1147.08 45.0485 1146.97 45.2952 1146.86 45.5219C1146.83 45.6009 1146.79 45.6796 1146.75 45.7586C1146.63 46.0146 1146.49 46.2603 1146.34 46.4958L1139.57 42.0478C1138.5 40.343 1137.71 38.4868 1137.22 36.5303ZM1121.02 32.5422L1139.83 44.9075L1134.89 52.4339L1116.08 40.0686L1121.02 32.5422ZM1099.73 71.0836L1117.66 43.8009L1135.54 55.5462L1115.75 85.6511L1100.7 75.7566C1099.14 74.7265 1098.7 72.6416 1099.73 71.0836ZM1117.63 86.8817L1137.42 56.7868L1141.18 59.2579L1121.38 89.3625L1117.63 86.8817ZM1142.99 99.5259C1141.97 101.084 1139.87 101.518 1138.32 100.488L1123.26 90.5931L1143.05 60.4981L1160.92 72.2432L1142.99 99.5259ZM1164.98 72.2226L1146.18 59.8573L1151.12 52.3309L1169.93 64.6965L1164.98 72.2226Z" fill="#8E57E7"/>
</g>
</g>
<g clip-path="url(#clip3_324_21)">
<g opacity="0.16">
<path d="M69.0479 60.2774L52.9854 66.894C53.4811 66.1292 53.9145 65.3313 54.2772 64.4944C56.4586 59.2286 54.2535 53.5117 50.8924 52.1128C47.5313 50.7138 41.9259 53.1734 39.7224 58.4355C38.8792 60.7291 38.4277 63.1474 38.3665 65.5904C36.6115 63.8899 34.5826 62.497 32.3665 61.4627C27.1007 59.2813 21.3919 61.4923 19.993 64.8534C18.594 68.2145 21.0536 73.82 26.3157 76.0234C27.1564 76.3641 28.028 76.6284 28.9225 76.8104L12.8623 83.441C12.2914 83.6807 12.0142 84.3325 12.248 84.9114L16.5403 95.3186C16.7741 95.8975 17.4318 96.1667 18.0107 95.9329L20.0954 95.0768L32.5282 125.244C33.7149 128.115 36.9995 129.483 39.8779 128.302L81.495 111.149C84.3653 109.962 85.7333 106.677 84.5525 103.799L72.1116 73.6254L74.1963 72.7693C74.7671 72.5296 75.0444 71.8778 74.8106 71.2989L70.5183 60.8916C70.2844 60.3127 69.6187 60.0377 69.0479 60.2774ZM41.7983 59.3057C43.5579 55.0937 47.9405 53.3266 50.0303 54.1945C52.1202 55.0625 53.9528 59.4063 52.2013 63.6242C51.3558 65.4457 50.2302 67.125 48.8499 68.5937L42.6319 71.1636C42.6216 71.1437 42.6172 71.1158 42.6069 71.0959C42.5058 70.8612 42.3906 70.6288 42.2674 70.3904C42.2264 70.3109 42.1794 70.2396 42.1383 70.1601C42.0297 69.9695 41.9212 69.779 41.8067 69.5965C41.7678 69.531 41.7289 69.4655 41.6901 69.4001C41.5308 69.1602 41.3738 68.9343 41.2086 68.7025C41.1822 68.6708 41.1639 68.6451 41.1374 68.6134C40.9928 68.4214 40.8504 68.2432 40.7139 68.0571C40.6956 68.0313 40.6772 68.0056 40.6589 67.9798C40.4295 65.0526 40.8177 62.0931 41.7983 59.3057ZM49.4046 80.5453L41.0821 83.9816L37.6459 75.659L45.9684 72.2228L49.4046 80.5453ZM27.1719 73.9497C22.9599 72.1902 21.1928 67.8075 22.0688 65.7236C22.9368 63.6337 27.2806 61.8011 31.4985 63.5526C34.2708 64.8934 36.7108 66.8088 38.6848 69.1765C38.9491 69.4929 39.1913 69.8057 39.4115 70.1148C39.4746 70.1979 39.5318 70.2892 39.5949 70.3723C39.7601 70.6041 39.9032 70.8322 40.0301 71.0485C40.077 71.1199 40.1181 71.1994 40.1651 71.2707C40.3045 71.5209 40.4299 71.7732 40.5413 72.0277L33.0522 75.1187C31.0429 75.0397 29.0635 74.6483 27.1719 73.9497ZM14.7526 85.0917L35.5612 76.5151L38.9974 84.8377L18.1888 93.4142L14.7526 85.0917ZM34.6128 124.388L22.1639 94.2089L41.936 86.0523L55.6691 119.359L39.0159 126.225C37.2873 126.932 35.3201 126.117 34.6128 124.388ZM57.7457 118.497L44.0207 85.1962L48.1819 83.478L61.9092 116.792L57.7457 118.497ZM82.4759 104.661C83.1891 106.381 82.3676 108.357 80.6389 109.064L63.9858 115.93L50.2607 82.63L70.0269 74.4815L82.4759 104.661ZM72.2979 71.1126L51.4893 79.6892L48.0531 71.3667L68.8675 62.782L72.2979 71.1126Z" fill="#8E57E7"/>
</g>
</g>
<defs>
<clipPath id="clip0_324_21">
<rect width="75.38" height="77.93" fill="white" transform="translate(283.748 46) rotate(9.41478)"/>
</clipPath>
<clipPath id="clip1_324_21">
<rect width="75.38" height="77.93" fill="white" transform="translate(878 131.157) rotate(-55.5459)"/>
</clipPath>
<clipPath id="clip2_324_21">
<rect width="75.38" height="77.93" fill="white" transform="translate(1098.48 24) rotate(1.82541)"/>
</clipPath>
<clipPath id="clip3_324_21">
<rect width="75.38" height="77.93" fill="white" transform="translate(-5 98.9067) rotate(-53.9006)"/>
</clipPath>
</defs>
</svg>
