<svg width="22" height="22" viewBox="0 0 22 22" fill="none" xmlns="http://www.w3.org/2000/svg">
<circle cx="11" cy="11" r="11" fill="black"/>
<path d="M4 10.25C3.58579 10.25 3.25 10.5858 3.25 11C3.25 11.4142 3.58579 11.75 4 11.75V10.25ZM18.5303 11.5303C18.8232 11.2374 18.8232 10.7626 18.5303 10.4697L13.7574 5.6967C13.4645 5.40381 12.9896 5.40381 12.6967 5.6967C12.4038 5.98959 12.4038 6.46447 12.6967 6.75736L16.9393 11L12.6967 15.2426C12.4038 15.5355 12.4038 16.0104 12.6967 16.3033C12.9896 16.5962 13.4645 16.5962 13.7574 16.3033L18.5303 11.5303ZM4 11.75L18 11.75V10.25L4 10.25V11.75Z" fill="white"/>
</svg>
