<svg width="35" height="35" viewBox="0 0 35 35" fill="none" xmlns="http://www.w3.org/2000/svg">
<path d="M33 18C33 26.8366 25.8366 34 17 34C8.16344 34 1 26.8366 1 18C1 9.16344 8.16344 2 17 2C25.8366 2 33 9.16344 33 18Z" fill="white"/>
<path fill-rule="evenodd" clip-rule="evenodd" d="M11.2037 17.692C12.3536 18.6669 13.5035 19.5893 14.6523 20.5128C17.096 16.9742 19.5867 13.4882 22.0304 10C23.0363 10.7692 23.9931 11.5384 25 12.359C21.7904 16.8713 18.5808 21.4362 15.3712 26C13.2635 24.257 11.1077 22.5643 9 20.8202C9.71893 19.795 10.4368 18.7698 11.2037 17.692Z" fill="#FF5287"/>
</svg>
