<svg width="32" height="32" viewBox="0 0 32 32" fill="none" xmlns="http://www.w3.org/2000/svg">
<path d="M19.5199 12.9957C21.0901 8.86487 15.3312 8.20389 14.6335 12.0043C13.6446 16.8512 11.8109 26.5156 12.0158 27.3711C12.0301 27.4304 12.0489 27.4855 12.0719 27.5363C12.4669 28.4057 13.6203 27.4121 13.982 26.5283L19.5199 12.9957Z" stroke="white" stroke-linecap="round" stroke-linejoin="round"/>
<path d="M16.9526 9.31621C16.38 8.55274 15.6225 6.73374 16.2475 4.64294C16.5483 3.63683 17.2183 3.41793 17.7719 4.31024C17.8472 4.43156 17.9286 4.56326 18.0165 4.70609" stroke="white" stroke-linecap="round" stroke-linejoin="round"/>
<path d="M19.6133 3.2876C18.6085 3.93774 16.7408 6.0182 17.3082 9.13889" stroke="white" stroke-linecap="round" stroke-linejoin="round"/>
<path d="M19.6126 3.2876C20.0263 4.41057 20.4637 7.22392 18.9033 9.49352" stroke="white" stroke-linecap="round" stroke-linejoin="round"/>
<path d="M20.1449 5.41548C20.4404 5.17907 21.2088 4.67077 21.918 4.52892C22.8046 4.35161 22.0954 8.42979 19.0811 9.67097" stroke="white" stroke-linecap="round" stroke-linejoin="round"/>
<path d="M14.2979 13.7322L16.4169 14.2978" stroke="white" stroke-linecap="round" stroke-linejoin="round"/>
<path d="M18.017 16.4087L16.9531 16.0541" stroke="white" stroke-linecap="round" stroke-linejoin="round"/>
<path d="M14.837 17.2607L13.9258 16.9752" stroke="white" stroke-linecap="round" stroke-linejoin="round"/>
<path d="M15.1791 20.6642L14.1152 20.3096" stroke="white" stroke-linecap="round" stroke-linejoin="round"/>
<circle cx="16" cy="16" r="15.25" stroke="white" stroke-width="1.5"/>
</svg>
