<svg width="32" height="32" viewBox="0 0 32 32" fill="none" xmlns="http://www.w3.org/2000/svg">
<g clip-path="url(#clip0_35_49)">
<path d="M13.4844 24.3559C12.3971 24.3559 11.3296 24.023 10.4011 23.393C8.87725 22.3627 7.96058 20.6588 8.00026 18.939C8.00423 18.7845 8.09947 18.6458 8.24232 18.5863C8.84947 18.3288 9.50423 18.194 10.1868 18.194C11.2741 18.194 12.3415 18.5269 13.2701 19.1569C14.7899 20.1872 15.7106 21.8911 15.6669 23.6109C15.663 23.7654 15.5677 23.9041 15.4249 23.9636C14.8217 24.2251 14.1669 24.3559 13.4844 24.3559ZM8.79788 19.2164C8.85344 20.5795 9.62328 21.907 10.8455 22.7352C11.6431 23.2741 12.5558 23.5633 13.4844 23.5633C13.9685 23.5633 14.4368 23.4841 14.8772 23.3296C14.8177 21.9664 14.0518 20.639 12.8296 19.8108C12.032 19.2719 11.1193 18.9865 10.1907 18.9865C9.70264 18.9865 9.23439 19.0658 8.79788 19.2164Z" fill="white"/>
<path d="M16.5396 24.4588C16.1031 24.4588 15.6746 24.4034 15.2658 24.2924C15.115 24.2528 15.0039 24.126 14.9801 23.9754C14.6984 22.2755 15.373 20.4566 16.7381 19.2243C17.7619 18.301 19.0555 17.7898 20.3769 17.7898C20.8135 17.7898 21.242 17.8453 21.6508 17.9562C21.8016 17.9959 21.9127 18.1227 21.9365 18.2732C22.2182 19.9732 21.5436 21.792 20.1785 23.0244C19.1547 23.9516 17.8611 24.4588 16.5396 24.4588ZM15.7262 23.5871C15.992 23.6386 16.2619 23.6663 16.5396 23.6663C17.6627 23.6663 18.7658 23.2304 19.6468 22.4379C20.746 21.4473 21.3214 20.0207 21.1904 18.6616C20.9246 18.6101 20.6547 18.5823 20.3769 18.5823C19.2539 18.5823 18.1508 19.0182 17.2698 19.8107C16.1706 20.8014 15.5952 22.2279 15.7262 23.5871Z" fill="white"/>
<path d="M14.1749 19.8068C12.6114 19.8068 11.032 19.1014 9.95661 17.9206C8.67883 16.5218 8.16693 14.5801 8.62724 12.8643C8.66693 12.7137 8.78994 12.6028 8.9447 12.5751C9.21455 12.5275 9.49232 12.5077 9.7701 12.5077C11.2939 12.5077 12.786 13.1853 13.8614 14.3701C14.9804 15.5985 15.4566 17.2351 15.3177 19.3749C15.3058 19.5571 15.1709 19.7077 14.9884 19.7394C14.7264 19.787 14.4526 19.8068 14.1749 19.8068ZM9.33756 13.324C9.05978 14.7188 9.5082 16.2523 10.5479 17.3896C11.5638 18.5031 13.1114 19.1252 14.5479 18.9984C14.6074 17.243 14.1907 15.8997 13.282 14.9011C12.2463 13.7718 10.7622 13.1774 9.33756 13.324Z" fill="white"/>
<path d="M16.3177 19.4304C15.8336 19.4304 15.3574 19.363 14.905 19.2283C14.7542 19.1847 14.6471 19.0579 14.6233 18.9033C14.3772 17.1677 15.1074 15.3291 16.528 14.1086C17.5558 13.2249 18.8415 12.7336 20.1471 12.7336C20.6312 12.7336 21.1074 12.8009 21.5598 12.9357C21.7106 12.9793 21.8177 13.1061 21.8415 13.2606C22.0876 14.9962 21.3574 16.8349 19.9368 18.0553C18.905 18.943 17.6193 19.4304 16.3177 19.4304ZM15.3812 18.5348C15.6828 18.6022 15.9963 18.6378 16.3177 18.6378C17.4328 18.6378 18.532 18.2178 19.4169 17.457C20.5637 16.4703 21.1868 15.024 21.0836 13.6331C20.782 13.5657 20.4685 13.5301 20.1471 13.5301C19.036 13.5301 17.9328 13.9501 17.0479 14.7109C15.901 15.6936 15.2741 17.14 15.3812 18.5348Z" fill="white"/>
<path d="M15.127 15.1507C15.1231 15.1507 15.1231 15.1507 15.1191 15.1507C13.6667 15.123 12.258 14.2909 11.4405 12.9713C10.627 11.6518 10.512 10.0192 11.1389 8.71152C11.2064 8.57283 11.3294 8.48962 11.504 8.48566C12.9564 8.51339 14.3651 9.34554 15.1826 10.6651C15.9961 11.9846 16.1112 13.6172 15.4842 14.9249C15.4207 15.0636 15.2818 15.1507 15.127 15.1507ZM11.754 9.29403C11.3612 10.3164 11.4921 11.5448 12.1191 12.5552C12.7421 13.5657 13.7818 14.2314 14.8731 14.3424C15.2659 13.32 15.135 12.0916 14.508 11.0812C13.885 10.0747 12.8493 9.40498 11.754 9.29403Z" fill="white"/>
<path d="M16.7893 13.8986C16.3449 13.8986 15.9282 13.8352 15.5433 13.7123C15.3885 13.6608 15.2774 13.5221 15.2695 13.3557C15.2298 12.6622 15.8171 10.4036 17.071 9.37725C17.8488 8.74324 18.8369 8.39453 19.8607 8.39453C20.333 8.39453 20.7972 8.46586 21.2377 8.60851C21.3845 8.65606 21.4917 8.78683 21.5076 8.94137C21.6742 10.3639 21.0393 11.8499 19.8568 12.8207C19.0195 13.5023 17.9004 13.8986 16.7893 13.8986ZM16.083 13.0347C16.3052 13.0823 16.5433 13.1061 16.7893 13.1061C17.7218 13.1061 18.6544 12.7772 19.3568 12.2065C20.2615 11.4655 20.7774 10.3719 20.7417 9.29404C20.456 9.22271 20.1623 9.18705 19.8607 9.18705C19.0234 9.18705 18.2099 9.47236 17.575 9.99146C16.6901 10.7166 16.1861 12.3016 16.083 13.0347Z" fill="white"/>
<path d="M15.8527 11.7469C15.8011 11.7469 15.7495 11.735 15.6979 11.7152C14.4599 11.1961 13.5352 9.99937 13.2892 8.59265C13.0432 7.18593 13.4995 5.74354 14.4876 4.83611C14.6027 4.72912 14.7654 4.70138 14.9083 4.76082C16.1464 5.27992 17.071 6.47662 17.317 7.88334C17.563 9.29006 17.1067 10.7324 16.1186 11.6399C16.0472 11.7112 15.9519 11.7469 15.8527 11.7469ZM14.8408 5.60881C14.1781 6.33793 13.8845 7.40783 14.071 8.45792C14.2575 9.50801 14.8964 10.4115 15.7694 10.8751C16.4321 10.146 16.7257 9.07608 16.5392 8.026C16.3527 6.97195 15.7138 6.06847 14.8408 5.60881Z" fill="white"/>
<path d="M17.2856 9.65857C17.1943 9.65857 17.1031 9.65461 17.0158 9.64669C16.8332 9.63084 16.6864 9.48818 16.6586 9.3059C16.5118 8.20826 16.6626 6.64304 17.5316 5.54144C18.365 4.48343 19.6705 3.89696 20.9324 4.01584C21.0872 4.03169 21.2181 4.13472 21.2697 4.28133C21.6864 5.47804 21.4245 6.8808 20.5912 7.94277C19.7816 8.96908 18.4523 9.65857 17.2856 9.65857ZM20.5951 4.79251C19.6785 4.79251 18.7658 5.25613 18.1586 6.02884C17.5277 6.82928 17.365 7.98636 17.4166 8.86209C18.3094 8.81058 19.3412 8.24393 19.9681 7.44745C20.5793 6.67474 20.8094 5.67617 20.5951 4.79251Z" fill="white"/>
<path d="M18.8651 29C18.0476 29 17.3016 28.6474 16.6667 27.9499C13.7183 24.7125 13.8532 15.0636 16.0992 10.4868C16.1945 10.2887 16.4325 10.2094 16.631 10.3045C16.8294 10.3996 16.9087 10.6374 16.8135 10.8355C14.5079 15.5312 14.75 24.6729 17.254 27.419C17.9643 28.1996 18.7857 28.4017 19.7698 28.0292C19.9722 27.9499 20.2024 28.053 20.2818 28.259C20.3611 28.4651 20.254 28.6909 20.0516 28.7702C19.6389 28.9247 19.246 29 18.8651 29Z" fill="white"/>
</g>
<path d="M27 5L5.5 27.5" stroke="white" stroke-width="1.5"/>
<circle cx="16" cy="16" r="15.25" stroke="white" stroke-width="1.5"/>
<defs>
<clipPath id="clip0_35_49">
<rect width="14" height="25" fill="white" transform="translate(8 4)"/>
</clipPath>
</defs>
</svg>
