<svg width="32" height="32" viewBox="0 0 32 32" fill="none" xmlns="http://www.w3.org/2000/svg">
<path d="M26.5 5L5 27.5" stroke="white" stroke-width="1.5"/>
<circle cx="16" cy="16" r="15.25" stroke="white" stroke-width="1.5"/>
<g clip-path="url(#clip0_35_79)">
<path d="M21.4404 24.9998H9.55185C8.27187 24.9998 7.4581 24.6517 7.13599 23.9685C6.80116 23.2506 7.07665 22.315 7.95399 21.188C9.4586 19.2559 13.0781 13.09 13.5868 12.2153V6.03195L13.2858 6.0363C13.1799 6.0363 13.0866 6.03195 13.0146 6.0189C12.4636 5.92752 12.0949 5.52284 12.0949 5.00937C12.0949 4.45238 12.5356 3.99548 13.0824 3.99548H17.5835C18.126 3.99548 18.571 4.44803 18.571 5.00937C18.571 5.51413 18.2023 5.91882 17.6556 6.01455C17.5835 6.0276 17.4945 6.03195 17.3885 6.03195L17.1385 6.0276V11.9281C17.6683 12.8202 21.4701 19.182 23.0383 21.1836C23.9198 22.3063 24.1953 23.2375 23.8605 23.9598C23.5384 24.6517 22.7246 24.9998 21.4404 24.9998ZM13.6249 5.16167C14.1632 5.16167 14.4387 5.34443 14.4387 5.70124V12.3372C14.4387 12.4155 14.4175 12.4938 14.3793 12.5591C14.214 12.8463 10.2724 19.6128 8.61941 21.7319C7.99214 22.5413 7.72936 23.2157 7.90313 23.59C8.06419 23.9337 8.66603 24.1295 9.55185 24.1295H21.4404C22.3305 24.1295 22.9323 23.9337 23.0934 23.59C23.2671 23.2157 23.0086 22.5413 22.3771 21.7363C20.6605 19.5518 16.5282 12.5809 16.3502 12.285C16.3078 12.2153 16.2866 12.137 16.2866 12.0587V5.70124C16.2866 5.45756 16.4222 5.16167 17.0707 5.16167L17.3843 5.16602C17.4309 5.16602 17.4733 5.16602 17.5072 5.16167C17.5157 5.16167 17.7191 5.1225 17.7191 5.01372C17.7234 4.93539 17.6598 4.87012 17.5835 4.87012H13.0824C13.0061 4.87012 12.9425 4.93539 12.9425 5.01372C12.9425 5.12686 13.1375 5.16167 13.146 5.16167C13.1841 5.16602 13.2307 5.17472 13.2858 5.16602L13.6249 5.16167Z" fill="white"/>
<path d="M9 20.5C10.8333 21 15.7 21.3 20.5 18.5" stroke="white"/>
</g>
<defs>
<clipPath id="clip0_35_79">
<rect width="17" height="21" fill="white" transform="translate(7 4)"/>
</clipPath>
</defs>
</svg>
