<svg width="32" height="32" viewBox="0 0 32 32" fill="none" xmlns="http://www.w3.org/2000/svg">
<path d="M12.4392 6.73563C12.4687 6.77896 12.5056 6.81442 12.5646 6.83411M12.4392 6.73563C12.3876 6.67654 12.358 6.59775 12.3839 6.49533L12.5646 6.83411M12.4392 6.73563L12.3152 6.82006C12.3169 6.8225 12.3186 6.82493 12.3203 6.82736M12.4392 6.73563L12.3263 6.83434C12.3242 6.83203 12.3222 6.82971 12.3203 6.82736M12.5646 6.83411C13.9413 7.28243 14.9818 8.41227 15.4115 9.85612L12.5646 6.83411ZM12.3203 6.82736C12.3627 6.88737 12.4228 6.94493 12.5171 6.9764L12.5171 6.9764L12.5182 6.97674C13.8189 7.4003 14.813 8.45729 15.2436 9.82048M12.3203 6.82736C12.2436 6.73595 12.2002 6.6101 12.2384 6.45866L12.2385 6.45821C12.3919 5.85778 12.6038 5.11043 13.0281 4.59999C13.045 4.57693 13.0637 4.56242 13.0765 4.55375C13.0788 4.55214 13.0812 4.55058 13.0834 4.54923C13.0936 4.53994 13.1029 4.53278 13.1103 4.52736L13.1227 4.51845L13.1274 4.51494L13.1383 4.50625L13.1505 4.4997L13.1727 4.48788L13.1789 4.48454L13.179 4.48469C13.2292 4.46084 13.2908 4.4434 13.3601 4.44902C13.4304 4.45472 13.4961 4.48318 13.5549 4.53082C14.5239 5.30084 15.4462 6.47946 15.9513 7.7755C16.6482 5.9571 18.3161 4.58241 20.2279 4.41953L20.2289 4.41944C20.3469 4.41022 20.4498 4.44969 20.5232 4.52627C20.5822 4.58784 20.6148 4.66552 20.6281 4.7427C20.6392 4.76072 20.652 4.78477 20.6604 4.81175C20.6604 4.81179 20.6604 4.81183 20.6605 4.81186L20.5173 4.85656C20.9325 6.18292 20.6536 7.80501 19.8334 8.90373L15.2436 9.82048M15.2436 9.82048C14.7474 9.70647 14.2731 9.52285 13.7881 9.33506C13.6038 9.26371 13.418 9.19175 13.2288 9.12278C12.4713 8.84667 11.676 8.62657 10.7816 8.74571C9.05923 8.97513 7.73494 10.2429 7.03059 11.864L7.03053 11.8641C6.12575 13.9514 6.19865 16.24 6.80752 18.4047C7.41636 20.5693 8.56361 22.6201 9.8235 24.2435L9.942 24.1515M15.2436 9.82048L9.942 24.1515M25.1452 14.1928C25.0926 12.0828 24.0723 9.84969 22.0823 9.04296C21.3746 8.75492 20.6998 8.74388 20.0486 8.86053L24.9953 14.1968M25.1452 14.1928C25.1452 14.1929 25.1452 14.193 25.1452 14.193L24.9953 14.1968M25.1452 14.1928C25.1452 14.1927 25.1452 14.1927 25.1452 14.1926L24.9953 14.1968M25.1452 14.1928C25.2161 16.7331 24.4914 19.092 23.5666 21.3754L23.5665 21.3757C23.2498 22.1532 22.8063 23.1188 22.2183 23.9294C21.6324 24.7371 20.8857 25.4144 19.9558 25.5718M24.9953 14.1968C25.0653 16.7061 24.3498 19.0422 23.4276 21.3191C22.7968 22.8673 21.6755 25.1285 19.9308 25.4239M19.9558 25.5718C19.956 25.5718 19.9562 25.5718 19.9564 25.5717L19.9308 25.4239M19.9558 25.5718L19.9308 25.4239M19.9558 25.5718C19.1918 25.7042 18.3712 25.4966 17.6751 25.3088M19.9308 25.4239C19.2041 25.55 18.4148 25.353 17.7139 25.1639M17.7139 25.1639L17.6751 25.3088M17.7139 25.1639C17.6673 25.1515 17.6213 25.1391 17.5757 25.1268C16.3832 24.8064 15.5192 24.5742 14.2651 25.0182M17.7139 25.1639L17.6749 25.3088C17.6749 25.3088 17.675 25.3088 17.6751 25.3088M17.6751 25.3088C17.6315 25.2971 17.5883 25.2855 17.5457 25.2741C16.3481 24.9525 15.5249 24.7314 14.3154 25.1595M14.2651 25.0182L14.3154 25.1595M14.2651 25.0182C12.4724 25.6564 11.2515 25.8415 9.942 24.1515M14.2651 25.0182L14.3151 25.1596C14.3152 25.1595 14.3153 25.1595 14.3154 25.1595M14.3154 25.1595C13.4193 25.4785 12.6357 25.6967 11.904 25.6068C11.1603 25.5154 10.4949 25.1099 9.82343 24.2434L9.942 24.1515M19.1598 8.6553C18.4744 9.40494 17.4292 9.69157 16.4195 9.86043C16.3175 7.66503 17.9254 5.66456 19.9398 5.31345C20.1966 6.45045 19.9169 7.8287 19.1599 8.65521L19.1598 8.6553ZM20.9795 24.0491L20.9793 24.0493C20.5736 24.4546 20.1628 24.6455 19.7471 24.7116C19.3274 24.7783 18.8922 24.7194 18.436 24.6066C18.2082 24.5504 17.9779 24.4814 17.7431 24.4093C17.7048 24.3975 17.6663 24.3857 17.6277 24.3738C17.431 24.3132 17.2311 24.2515 17.0307 24.1959C16.5514 24.063 16.0555 23.9603 15.5533 23.982C15.0709 24.0027 14.6217 24.1479 14.1932 24.3112C14.0795 24.3546 13.9679 24.3988 13.8575 24.4427C13.5452 24.5667 13.2422 24.6869 12.928 24.7708C12.1992 24.964 11.627 24.7824 11.137 24.4014C10.6383 24.0138 10.2261 23.4203 9.83719 22.7923C8.52583 20.6719 7.33396 18.3986 7.18142 15.8463C7.10521 14.5694 7.32815 13.1332 7.89709 11.9555C8.46532 10.7793 9.37057 9.87474 10.6571 9.62064L10.6572 9.62062C11.5785 9.43815 12.3969 9.67385 13.2321 9.98718C13.3719 10.0396 13.5125 10.0944 13.6543 10.1497C14.345 10.419 15.0629 10.6989 15.8402 10.764C15.888 10.778 15.9356 10.7817 15.9877 10.7776C16.5339 10.7687 17.0638 10.6384 17.5768 10.468C17.8253 10.3994 18.069 10.3112 18.304 10.2118C18.3239 10.2044 18.3438 10.1971 18.3636 10.1897C19.44 9.79203 20.4486 9.41933 21.5005 9.72773L21.5008 9.72781C22.9673 10.1546 23.754 11.3408 24.103 12.7829C24.4525 14.2273 24.3549 15.9052 24.0666 17.2539L24.0665 17.2544C23.5769 19.5894 22.6212 22.4156 20.9795 24.0491ZM15.0151 7.7037C14.5028 7.0976 13.857 6.62015 13.1236 6.31149C13.2005 6.03239 13.2951 5.75424 13.4214 5.51293C14.0424 6.08453 14.6213 6.86012 15.0151 7.7037Z" fill="white" stroke="white" stroke-width="0.3"/>
<path d="M10.8804 11.4059L10.8801 11.406C9.91398 11.8394 9.19322 12.7148 8.75429 13.737C8.31522 14.7596 8.15374 15.9386 8.3142 16.9937L8.31427 16.9941C8.33317 17.1146 8.3927 17.2051 8.48087 17.2551C8.56654 17.3036 8.66613 17.3065 8.75381 17.2802C8.92913 17.2276 9.08463 17.049 9.04619 16.8031C8.91967 15.9694 9.05298 14.9793 9.41254 14.1116C9.7725 13.2429 10.3531 12.5106 11.1093 12.1736L11.1096 12.1734C11.3313 12.0736 11.3824 11.8315 11.3386 11.6551C11.3161 11.565 11.2662 11.4764 11.185 11.4225C11.099 11.3654 10.9914 11.3565 10.8804 11.4059Z" fill="white" stroke="white" stroke-width="0.2"/>
<path d="M9.79844 18.5868C9.66176 18.5868 9.55168 18.6463 9.47913 18.7376C9.40966 18.8251 9.3793 18.935 9.3793 19.038C9.3793 19.141 9.40966 19.2509 9.47913 19.3383C9.55168 19.4296 9.66176 19.4891 9.79844 19.4891C9.9347 19.4891 10.0442 19.4291 10.1162 19.3381C10.1853 19.2508 10.2157 19.1413 10.2161 19.0385C10.2164 18.9357 10.1867 18.8257 10.1175 18.738C10.0452 18.6464 9.93518 18.5868 9.79844 18.5868Z" fill="white" stroke="white" stroke-width="0.3"/>
<circle cx="16" cy="16" r="15.25" stroke="white" stroke-width="1.5"/>
</svg>
