<svg width="144" height="108" viewBox="0 0 144 108" fill="none" xmlns="http://www.w3.org/2000/svg">
<path d="M108.489 14.8906H31.9087V91.4713H108.489V14.8906Z" fill="url(#paint0_linear_2_2006)"/>
<path d="M105.107 19.0813H36.0356V88.1882H105.107V19.0813Z" fill="black"/>
<path d="M45.9058 36.631V27.6753C45.9058 27.6044 45.9341 27.5406 45.9767 27.491C46.0263 27.4413 46.0972 27.413 46.161 27.413H51.5713C51.6422 27.413 51.706 27.4413 51.7557 27.4839C51.8053 27.5335 51.8337 27.5973 51.8266 27.6682V28.4269C51.8266 28.4979 51.7982 28.5617 51.7557 28.6113C51.706 28.6609 51.6422 28.6893 51.5713 28.6822H47.2956V31.8092H50.9048C50.9686 31.8092 51.0324 31.8376 51.082 31.8802C51.1317 31.9298 51.16 31.9936 51.16 32.0645V32.8091C51.16 32.8729 51.1317 32.9367 51.082 32.9863C51.0395 33.036 50.9757 33.0643 50.9048 33.0643H47.2956V36.6239C47.2956 36.6877 47.2672 36.7515 47.2176 36.8012C47.175 36.8508 47.1112 36.8792 47.0403 36.8792H46.1681C46.0972 36.8792 46.0334 36.8508 45.9838 36.8083C45.9341 36.7657 45.9058 36.6948 45.9058 36.631Z" fill="white"/>
<path d="M69.4404 36.631V27.6753C69.4404 27.6115 69.4688 27.5477 69.5113 27.4981C69.561 27.4413 69.6248 27.413 69.6957 27.413H70.582C70.653 27.413 70.7168 27.4413 70.7664 27.491C70.809 27.5406 70.8373 27.5973 70.8373 27.6682V36.6239C70.8373 36.6877 70.809 36.7515 70.7664 36.8012C70.7168 36.8508 70.653 36.8792 70.582 36.8792H69.7028C69.6319 36.8792 69.5681 36.8508 69.5184 36.8012C69.4759 36.7586 69.4475 36.6948 69.4404 36.631Z" fill="white"/>
<path d="M89.9681 36.631V28.6893H87.7628C87.6919 28.6893 87.6281 28.6609 87.5785 28.6184C87.5288 28.5687 87.5005 28.5049 87.5005 28.4411V27.6824C87.5005 27.6115 87.5289 27.5477 87.5714 27.498C87.621 27.4484 87.6848 27.42 87.7558 27.42H93.5702C93.6411 27.42 93.7049 27.4484 93.7546 27.4909C93.8042 27.5406 93.8326 27.6044 93.8255 27.6753V28.434C93.8255 28.5049 93.7971 28.5687 93.7546 28.6184C93.7049 28.668 93.6411 28.6964 93.5702 28.6893H91.365V36.631C91.365 36.6948 91.3366 36.7586 91.2941 36.8083C91.2515 36.8579 91.1877 36.8933 91.1168 36.8933H90.2163C90.1454 36.8933 90.0815 36.865 90.0319 36.8154C89.9965 36.7586 89.9681 36.6948 89.9681 36.631Z" fill="white"/>
<path d="M43.7148 59.0096C43.6297 59.0167 43.5446 58.9742 43.4879 58.9033C43.4383 58.8324 43.4383 58.7331 43.4879 58.6622L47.636 49.5576C47.6786 49.4654 47.7637 49.4087 47.8629 49.4087H47.9977C48.0969 49.4087 48.1891 49.4654 48.2246 49.5576L52.3514 58.6693C52.401 58.7402 52.401 58.8394 52.3514 58.9104C52.3018 58.9813 52.2167 59.0238 52.1245 59.0167H51.2807C51.1389 59.0167 51.0183 58.9316 50.9687 58.804L50.1249 56.9533H45.6931C45.601 57.1589 45.4592 57.4709 45.2677 57.8822C45.0762 58.2935 44.9344 58.5984 44.8423 58.8111C44.7997 58.9458 44.6721 59.0309 44.5303 59.0238L43.7148 59.0096ZM46.225 55.7904H49.6073L47.9409 52.0819H47.87L46.225 55.7904Z" fill="white"/>
<path d="M66.3418 58.7543V49.6498C66.3418 49.5859 66.3702 49.5221 66.4127 49.4796C66.4623 49.4299 66.5332 49.4016 66.6042 49.4087H66.9445L72.8086 56.2017H72.8228V49.8058C72.8228 49.7348 72.8512 49.671 72.8937 49.6214C72.9433 49.5718 73.0072 49.5434 73.0781 49.5505H73.9431C74.007 49.5505 74.0708 49.5788 74.1204 49.6285C74.17 49.671 74.1984 49.7348 74.1984 49.8058V58.9103C74.1984 58.9742 74.17 59.038 74.1275 59.0805C74.0779 59.1302 74.0141 59.1585 73.9431 59.1514H73.5957L67.7245 52.1741H67.7103V58.7614C67.7103 58.8323 67.682 58.8962 67.6394 58.9458C67.5898 58.9954 67.526 59.0238 67.4551 59.0167H66.6042C66.5332 59.0167 66.4694 58.9883 66.4198 58.9387C66.3773 58.882 66.3489 58.8182 66.3418 58.7543Z" fill="white"/>
<path d="M87.0895 58.6125V49.6568C87.0895 49.5859 87.1178 49.5221 87.1604 49.4724C87.2029 49.4228 87.2667 49.3944 87.3305 49.3944H90.4434C91.7056 49.3732 92.9181 49.8766 93.7974 50.7842C94.705 51.6564 95.2084 52.8619 95.1942 54.1169C95.2155 55.3791 94.705 56.5916 93.7974 57.4709C92.9181 58.3785 91.7056 58.8819 90.4434 58.8677H87.3305C87.2667 58.8677 87.2029 58.8394 87.1604 58.7969C87.1107 58.7543 87.0824 58.6834 87.0895 58.6125ZM88.4651 57.5914H90.252C91.1738 57.6198 92.0672 57.2652 92.7125 56.6129C93.3648 55.9534 93.7123 55.06 93.6839 54.1311C93.7123 53.2093 93.3577 52.3229 92.7125 51.6706C92.0601 51.0182 91.1738 50.6637 90.252 50.6992H88.4651V57.5914Z" fill="white"/>
<path d="M44.3036 80.0055C44.2327 79.8991 44.2397 79.7573 44.3319 79.6651L44.8212 79.1333C44.9205 79.0199 45.0906 79.0128 45.2041 79.112C45.2183 79.1262 45.2325 79.1404 45.2466 79.1617C45.509 79.5091 45.9203 79.7218 46.3528 79.7431C46.7215 79.7502 47.069 79.5942 47.3101 79.3177C47.6008 78.9631 47.7497 78.5093 47.7142 78.0484V71.6383C47.7142 71.5674 47.7426 71.5036 47.7851 71.454C47.8348 71.3972 47.9057 71.376 47.9837 71.376H48.8771C48.948 71.376 49.0119 71.4043 49.0615 71.4469C49.1111 71.4965 49.1395 71.5603 49.1324 71.6312V78.0201C49.1749 78.8213 48.8984 79.6013 48.3524 80.1898C47.8277 80.7216 47.1044 81.0053 46.3599 80.984C45.5586 81.0124 44.7928 80.6436 44.3036 80.0055Z" fill="white"/>
<path d="M66.4266 79.7218C65.5048 78.8142 64.9942 77.5662 65.0226 76.2686C65.0013 74.9781 65.5119 73.7301 66.4337 72.8225C67.3342 71.8865 68.5751 71.3618 69.8727 71.3831C71.1703 71.3618 72.4254 71.8794 73.3259 72.8225C74.2477 73.7301 74.7654 74.971 74.7441 76.2686C74.7725 77.5662 74.2548 78.8071 73.3259 79.7148C72.4183 80.6437 71.1703 81.1542 69.8798 81.1258C68.5822 81.1542 67.3342 80.6436 66.4266 79.7218ZM67.398 73.7797C66.7315 74.4321 66.3557 75.3326 66.3699 76.2686C66.3557 77.1975 66.7315 78.091 67.398 78.7433C68.0433 79.4098 68.9438 79.7857 69.8727 79.7715C70.8087 79.7857 71.7021 79.4169 72.3545 78.7433C73.0281 78.098 73.4039 77.2046 73.3898 76.2686C73.4039 75.3326 73.0281 74.4321 72.3545 73.7797C71.7092 73.1061 70.8087 72.7303 69.8727 72.7374C68.9438 72.7303 68.0433 73.1061 67.398 73.7797Z" fill="white"/>
<path d="M90.3724 80.6011V76.297L87.2028 71.7801C87.1531 71.7021 87.146 71.6028 87.1886 71.5177C87.2382 71.4327 87.3304 71.3759 87.4297 71.3901H88.4224C88.5075 71.3972 88.5855 71.4398 88.6351 71.5107L91.0885 74.9639L93.5349 71.5107C93.5845 71.4398 93.6625 71.3901 93.7476 71.3901H94.7616C94.8608 71.383 94.9459 71.4327 94.9956 71.5177C95.0381 71.6028 95.0381 71.7021 94.9814 71.7801L91.7834 76.2828V80.6011C91.7834 80.6649 91.7551 80.7287 91.7054 80.7784C91.6629 80.828 91.5991 80.8563 91.5282 80.8563H90.6347C90.5638 80.8563 90.5 80.828 90.4504 80.7854C90.4007 80.7358 90.3724 80.672 90.3724 80.6011Z" fill="white"/>
<defs>
<linearGradient id="paint0_linear_2_2006" x1="90.2052" y1="26.3921" x2="49.4005" y2="81.0754" gradientUnits="userSpaceOnUse">
<stop stop-color="#FF5287"/>
<stop offset="1" stop-color="#5446FF"/>
</linearGradient>
</defs>
</svg>
