<svg width="13" height="12" viewBox="0 0 13 12" fill="none" xmlns="http://www.w3.org/2000/svg">
<path d="M3.0181 7.67392L2.33338 11.5619C2.29768 11.7659 2.44696 11.9609 2.66763 11.9939C2.75849 12.0089 2.8526 11.9939 2.93048 11.9519L6.50013 10.1279L10.0698 11.9519C10.1314 11.9819 10.1963 11.9969 10.2677 11.9969C10.4916 11.9969 10.6734 11.8289 10.6734 11.6219C10.6734 11.6009 10.6701 11.5829 10.6669 11.5619L9.98216 7.67092L12.8866 4.91992C13.0423 4.77292 13.0391 4.53292 12.8801 4.38892C12.8184 4.33492 12.7405 4.29892 12.6594 4.28692L8.66139 3.72292L6.86683 0.19792C6.75325 0.0119195 6.49364 -0.0540805 6.29244 0.0509195C6.22429 0.0869195 6.16913 0.13792 6.13343 0.19792L4.34212 3.72292L0.344115 4.28992C0.123446 4.31992 -0.0290757 4.51192 0.00337567 4.71892C0.0163562 4.79692 0.0552978 4.86892 0.11371 4.92592L3.0181 7.67392Z" fill="#F7C04D"/>
</svg>
