<svg width="24" height="24" viewBox="0 0 24 24" fill="none" xmlns="http://www.w3.org/2000/svg">
<g id="Frame" clip-path="url(#clip0_1_7490)">
<g id="Group">
<path id="Vector" d="M23.2316 17.221H20.4765V8.09069C20.4765 7.66638 20.1329 7.32275 19.7086 7.32275C19.2843 7.32275 18.9402 7.66638 18.9402 8.09069V18.1403C18.9402 18.5709 18.5116 18.9347 18.0016 18.9409C17.9972 18.9408 17.9929 18.9403 17.9884 18.9403C17.9801 18.9403 17.972 18.9413 17.9637 18.9415H15.0192C15.0109 18.9413 15.0029 18.9403 14.9945 18.9403C14.9861 18.9403 14.978 18.9413 14.9697 18.9415H12.0244C12.0161 18.9413 12.0081 18.9403 11.9997 18.9403C11.9914 18.9403 11.9833 18.9413 11.975 18.9415H9.03012C9.02183 18.9413 9.01376 18.9403 9.00542 18.9403C8.99708 18.9403 8.98901 18.9413 8.98072 18.9415H6.0358C6.0275 18.9413 6.01944 18.9403 6.0111 18.9403C6.00664 18.9403 6.00233 18.9409 5.99793 18.9409C5.48751 18.9347 5.05932 18.5709 5.05932 18.1403V5.8614C5.05932 5.42711 5.49529 5.06018 6.0111 5.06018H17.9884C18.5043 5.06018 18.9402 5.42711 18.9402 5.8614V6.012C18.9402 6.43631 19.2842 6.77994 19.7086 6.77994H23.2316C23.6559 6.77994 24 6.43631 24 6.012C24 5.5877 23.656 5.24406 23.2316 5.24406H20.3883C20.1669 4.48592 19.5482 3.88096 18.7567 3.6389V1.20056C18.7567 0.776252 18.4127 0.432617 17.9884 0.432617C17.5641 0.432617 17.2204 0.776252 17.2204 1.20056V3.5243H15.7624V1.20056C15.7624 0.776252 15.4187 0.432617 14.9944 0.432617C14.5701 0.432617 14.2261 0.776252 14.2261 1.20056V3.5243H12.7676V1.20056C12.7676 0.776252 12.4236 0.432617 11.9996 0.432617C11.5757 0.432617 11.2317 0.776252 11.2317 1.20056V3.5243H9.77322V1.20056C9.77322 0.776252 9.42921 0.432617 9.00528 0.432617C8.58135 0.432617 8.23734 0.776252 8.23734 1.20056V3.5243H6.77885V1.20056C6.77885 0.776252 6.43521 0.432617 6.01091 0.432617C5.58661 0.432617 5.24297 0.776252 5.24297 1.20056V3.63876C4.45155 3.88063 3.83332 4.48555 3.61198 5.24364H0.76794C0.34401 5.24364 0 5.58723 0 6.01158C0 6.43589 0.34401 6.77952 0.76794 6.77952H3.52348V17.221H0.76794C0.34401 17.221 0 17.5646 0 17.9889C0 18.4132 0.34401 18.7568 0.76794 18.7568H3.61212C3.83342 19.5149 4.45164 20.1201 5.24316 20.3621V22.7995C5.24316 23.2238 5.58679 23.5674 6.0111 23.5674C6.43498 23.5674 6.77904 23.2238 6.77904 22.7995V20.4765H8.23753V22.7994C8.23753 23.2237 8.58116 23.5674 9.00547 23.5674C9.42935 23.5674 9.77341 23.2237 9.77341 22.7994V20.4765H11.2319V22.7994C11.2319 23.2237 11.5755 23.5674 11.9998 23.5674C12.4241 23.5674 12.7678 23.2237 12.7678 22.7994V20.4765H14.2263V22.7994C14.2263 23.2237 14.5703 23.5674 14.9946 23.5674C15.4185 23.5674 15.7626 23.2237 15.7626 22.7994V20.4765H17.2206V22.7994C17.2206 23.2237 17.5643 23.5674 17.9886 23.5674C18.4129 23.5674 18.7569 23.2237 18.7569 22.7994V20.362C19.5485 20.12 20.1666 19.5149 20.3879 18.7568H23.2318C23.6557 18.7568 24.0001 18.4132 24.0001 17.9889C24 17.5646 23.6559 17.221 23.2316 17.221Z" fill="#4855DC"/>
<path id="Vector_2" d="M23.2316 14.2268H21.7424C21.3181 14.2268 20.9745 14.5704 20.9745 14.9947C20.9745 15.419 21.3181 15.7627 21.7424 15.7627H23.2316C23.6555 15.7627 24 15.419 24 14.9947C24 14.5704 23.6559 14.2268 23.2316 14.2268ZM23.2316 11.232H21.7424C21.3181 11.232 20.9745 11.5757 20.9745 12C20.9745 12.4243 21.3181 12.7679 21.7424 12.7679H23.2316C23.6555 12.7679 24 12.4243 24 12C24 11.5757 23.6559 11.232 23.2316 11.232ZM23.2316 8.23771H21.7424C21.3181 8.23771 20.9745 8.58134 20.9745 9.00565C20.9745 9.42995 21.3181 9.77359 21.7424 9.77359H23.2316C23.6555 9.77359 24 9.42995 24 9.00565C24 8.58134 23.6559 8.23771 23.2316 8.23771ZM0.76794 15.7627H2.2576C2.68148 15.7627 3.02554 15.419 3.02554 14.9947C3.02554 14.5704 2.68191 14.2268 2.2576 14.2268H0.76794C0.34401 14.2268 0 14.5708 0 14.9947C0 15.4186 0.34401 15.7627 0.76794 15.7627ZM0.76794 12.7679H2.2576C2.68148 12.7679 3.02554 12.4247 3.02554 12.0004C3.02554 11.5761 2.68191 11.2325 2.2576 11.2325H0.76794C0.34401 11.2325 0 11.5765 0 12.0004C0 12.4243 0.34401 12.7679 0.76794 12.7679ZM0.76794 9.77359H2.2576C2.68148 9.77359 3.02554 9.42995 3.02554 9.00565C3.02554 8.58134 2.68191 8.23771 2.2576 8.23771H0.76794C0.34401 8.23771 0 8.58134 0 9.00565C0 9.42995 0.34401 9.77359 0.76794 9.77359ZM9.51921 7.98145C9.36458 7.98136 9.21353 8.02798 9.08585 8.1152C8.95817 8.20242 8.85982 8.32617 8.80367 8.47025L6.2682 14.9718C6.11427 15.3675 6.3094 15.8126 6.7046 15.9665C7.10022 16.1204 7.54534 15.9249 7.69922 15.5301L8.10155 14.4984H10.9369L11.3392 15.5301C11.4573 15.8338 11.7473 16.0193 12.0547 16.0193C12.1474 16.0193 12.2419 16.0022 12.3338 15.9665C12.7286 15.8125 12.9245 15.367 12.7702 14.9718L10.2347 8.47025C10.1785 8.32621 10.0802 8.20249 9.95251 8.11527C9.82484 8.02806 9.67382 7.98141 9.51921 7.98145ZM8.70046 12.9626L9.51921 10.863L10.338 12.9626H8.70046ZM16.3461 9.51732C16.77 9.51732 17.1145 9.17369 17.1145 8.74938C17.1145 8.32508 16.7705 7.98145 16.3461 7.98145H14.1958C13.7715 7.98145 13.4279 8.32508 13.4279 8.74938C13.4279 9.17369 13.7715 9.51732 14.1958 9.51732H14.5029V14.4835H14.1958C13.7715 14.4835 13.4279 14.8271 13.4279 15.2514C13.4279 15.6757 13.7715 16.0193 14.1958 16.0193H16.3461C16.77 16.0193 17.1145 15.6757 17.1145 15.2514C17.1145 14.8271 16.7705 14.4835 16.3461 14.4835H16.0395V9.51732H16.3461Z" fill="#4855DC"/>
</g>
</g>
<defs>
<clipPath id="clip0_1_7490">
<rect width="24" height="24" fill="white"/>
</clipPath>
</defs>
</svg>
