<svg width="138" height="28" viewBox="0 0 138 28" fill="none" xmlns="http://www.w3.org/2000/svg">
<g id="SOAX svg" clip-path="url(#clip0_1_7142)">
<g id="Clip path group">
<mask id="mask0_1_7142" style="mask-type:luminance" maskUnits="userSpaceOnUse" x="0" y="0" width="138" height="28">
<g id="clip0_776_8800">
<path id="Vector" d="M137.707 0H0.00195312V27.7725H137.707V0Z" fill="white"/>
</g>
</mask>
<g mask="url(#mask0_1_7142)">
<g id="Group">
<path id="Vector_2" fill-rule="evenodd" clip-rule="evenodd" d="M136.408 0.722704L126.133 13.2152L137.707 27.0498H127.755L120.868 17.9988L113.873 27.0498H103.957L115.495 13.2152L105.255 0.722704H115.171L120.832 8.74126L126.493 0.722704H136.408ZM77.8508 18.7559C77.8508 16.7942 79.1489 14.7638 84.5936 14.5917C87.4062 14.695 90.7957 15.28 92.9231 16.1404C92.1657 19.1 89.3533 22.6102 83.7282 22.9201C79.2571 22.6791 77.8508 20.6831 77.8508 18.7559ZM86.5769 0C86.3244 0 86.036 0 85.7835 0C85.6394 0 85.459 0 85.3147 0C85.2067 0 85.0985 0 84.9904 0C73.8845 0 71.1441 5.16216 70.5672 9.29188H78.7523C79.0046 6.91728 80.8075 4.71477 85.6033 4.47386C90.9037 4.68036 93.1033 7.15821 93.1394 10.9782V11.5632C90.1105 10.8061 86.9735 10.4276 83.8004 10.3932C83.548 10.3932 83.2957 10.3932 83.0432 10.3932C82.8989 10.3932 82.7187 10.3932 82.5744 10.3932C82.4662 10.3932 82.3581 10.3932 82.2499 10.3932C72.4782 10.3932 69.5575 14.4884 69.5575 18.9623C69.5575 22.8856 71.721 27.7381 81.2042 27.7381C81.3484 27.7381 81.5288 27.7381 81.673 27.7381C81.709 27.7381 81.7812 27.7381 81.8172 27.7381C82.1417 27.7381 82.4301 27.7381 82.7548 27.7381C87.1176 27.7381 90.7957 26.1549 93.1754 23.4362V23.5739V27.0153H101.505V12.4236C101.505 5.67837 98.9807 0 86.5769 0ZM40.6032 13.8002V13.9378C40.6032 19.6851 44.1007 22.4381 49.3652 22.6791C54.6296 22.4381 58.1272 19.6851 58.1272 13.9378V13.8002C58.1272 8.08739 54.6296 5.36866 49.3652 5.12775C44.1007 5.36866 40.6032 8.08739 40.6032 13.8002ZM50.1584 0C60.3268 0 66.5287 4.95568 66.5287 13.6969V14.0067C66.5287 22.7824 60.3268 27.7381 50.1584 27.7381C50.0503 27.7381 49.942 27.7381 49.8338 27.7381C49.6897 27.7381 49.5095 27.7381 49.3652 27.7381C49.1127 27.7381 48.8604 27.7381 48.5719 27.7381C38.4395 27.7381 32.2016 22.7824 32.2016 14.0067V13.6969C32.2016 4.95568 38.4036 0 48.5719 0C48.68 0 48.7882 0 48.8964 0C49.0407 0 49.2209 0 49.3652 0C49.6176 0 49.9059 0 50.1584 0ZM9.16065 7.67442C9.16065 10.1178 11.4684 10.8061 16.6607 11.3912C26.1439 12.3203 30.002 14.695 30.002 19.5131C30.002 24.7439 25.4588 27.7725 16.0837 27.7725H14.4972C4.25677 27.7725 0.00195312 23.6083 0.00195312 18.4118H8.04285C8.29526 21.509 11.1799 22.8856 15.5068 23.0232C19.9779 22.8856 21.5284 21.6812 21.5284 19.8572C21.5284 17.4481 19.1488 16.7253 13.3795 15.9683C4.65341 14.867 0.687052 12.8022 0.687052 7.8809C0.687052 3.64793 3.75196 0 13.5237 0C13.6318 0 13.776 0 13.8842 0C13.9924 0 14.1366 0 14.2448 0C14.5333 0 14.7857 0 15.0742 0C25.2786 0 29.353 4.40504 29.4252 8.60359H21.168C20.9155 6.53873 18.6799 4.92127 14.1006 4.74918C10.4948 4.88684 9.16065 6.02252 9.16065 7.67442Z" fill="#101828"/>
</g>
</g>
</g>
</g>
<defs>
<clipPath id="clip0_1_7142">
<rect width="137.705" height="28" fill="white"/>
</clipPath>
</defs>
</svg>
