<svg width="24" height="24" viewBox="0 0 24 24" fill="none" xmlns="http://www.w3.org/2000/svg">
<g id="Frame">
<g id="Group">
<g id="home location">
<path id="Vector" fill-rule="evenodd" clip-rule="evenodd" d="M16.3212 13.448C16.5171 13.5663 16.7416 13.6288 16.9704 13.6288C17.1992 13.6288 17.4236 13.5663 17.6195 13.448C18.0836 13.1742 18.5044 12.833 18.8682 12.4355C20.3345 10.9243 22.1908 8.02027 22.1908 5.56402C22.1338 4.23449 21.5527 2.98163 20.5745 2.07944C19.5962 1.17725 18.3005 0.699172 16.9707 0.749765C15.6408 0.698969 14.345 1.17696 13.3666 2.07917C12.3882 2.98138 11.8069 4.23436 11.75 5.56402C11.75 8.02027 13.6062 10.9243 15.0725 12.4355C15.4365 12.8328 15.8573 13.174 16.3212 13.448ZM16.9707 2.24977C17.9028 2.19911 18.817 2.51916 19.5139 3.14008C20.2109 3.76099 20.6339 4.63235 20.6908 5.56402C20.6908 7.65877 19.0408 10.1023 17.792 11.3908C17.5371 11.6412 17.2625 11.8707 16.9707 12.077C16.6775 11.8711 16.4016 11.6416 16.1457 11.3908C14.8955 10.1023 13.247 7.65877 13.247 5.56402C13.3038 4.63166 13.7274 3.75971 14.4252 3.13869C15.1229 2.51768 16.0381 2.19809 16.9707 2.24977Z" fill="#4855DC"/>
<path id="Vector_2" fill-rule="evenodd" clip-rule="evenodd" d="M19.6161 5.67211C19.616 5.14881 19.4607 4.63731 19.1698 4.20227C18.879 3.76724 18.4657 3.42821 17.9822 3.22806C17.4987 3.0279 16.9667 2.97561 16.4535 3.07779C15.9402 3.17997 15.4688 3.43204 15.0989 3.80212C14.7289 4.1722 14.477 4.64367 14.3749 5.15692C14.2729 5.67018 14.3253 6.20216 14.5256 6.68561C14.7259 7.16906 15.0651 7.58226 15.5002 7.87298C15.9353 8.16369 16.4468 8.31886 16.9701 8.31886C17.6719 8.31846 18.3448 8.03945 18.841 7.54316C19.3371 7.04686 19.6159 6.37388 19.6161 5.67211ZM15.8234 5.67211C15.8234 5.4453 15.8906 5.22359 16.0167 5.03501C16.1427 4.84642 16.3218 4.69944 16.5313 4.61265C16.7408 4.52585 16.9714 4.50314 17.1939 4.54739C17.4163 4.59164 17.6206 4.70086 17.781 4.86123C17.9414 5.02161 18.0506 5.22594 18.0949 5.44839C18.1391 5.67083 18.1164 5.90141 18.0296 6.11095C17.9428 6.32049 17.7958 6.49959 17.6072 6.62559C17.4187 6.7516 17.1969 6.81886 16.9701 6.81886C16.6661 6.81866 16.3745 6.69778 16.1595 6.48276C15.9445 6.26775 15.8236 5.97618 15.8234 5.67211ZM20.9384 11.8499C20.7395 11.8499 20.5487 11.9289 20.4081 12.0695C20.2674 12.2102 20.1884 12.4009 20.1884 12.5999V13.3086C20.1884 13.4579 20.1292 13.601 20.0237 13.7066C19.9182 13.8122 19.7751 13.8717 19.6259 13.8719H18.9779C17.9909 13.8719 18.2189 15.0359 18.2189 14.6219V21.1866C18.219 21.2605 18.2045 21.3338 18.1763 21.4021C18.1481 21.4704 18.1066 21.5325 18.0544 21.5848C18.0022 21.6372 17.9401 21.6787 17.8718 21.707C17.8035 21.7353 17.7303 21.7499 17.6564 21.7499H14.4674V16.4999C14.4674 16.3009 14.3884 16.1102 14.2477 15.9695C14.1071 15.8289 13.9163 15.7499 13.7174 15.7499H9.77839C9.57948 15.7499 9.38871 15.8289 9.24806 15.9695C9.10741 16.1102 9.02839 16.3009 9.02839 16.4999V21.7499H5.83939C5.69001 21.7499 5.54674 21.6905 5.44111 21.5849C5.33548 21.4793 5.27614 21.336 5.27614 21.1866V14.6249C5.27614 14.6249 5.50114 13.8749 4.51789 13.8749H3.86989C3.72051 13.8749 3.57724 13.8155 3.47161 13.7099C3.36598 13.6043 3.30664 13.461 3.30664 13.3116V12.5999C3.30674 12.5187 3.32434 12.4384 3.35825 12.3647C3.39216 12.2909 3.44158 12.2253 3.50314 12.1724L10.6281 6.06286C10.7072 6.00018 10.7727 5.9222 10.8209 5.83359C10.8691 5.74498 10.899 5.64756 10.9086 5.54715C10.9183 5.44675 10.9076 5.34542 10.8772 5.24924C10.8468 5.15306 10.7974 5.064 10.7318 4.98738C10.6661 4.91077 10.5857 4.84818 10.4954 4.80335C10.405 4.75853 10.3065 4.73239 10.2058 4.72651C10.1052 4.72062 10.0043 4.73511 9.90933 4.76911C9.81436 4.8031 9.72723 4.85591 9.65314 4.92436L2.52814 11.0331C2.30199 11.2268 2.12042 11.4671 1.99588 11.7375C1.87134 12.0079 1.80678 12.3021 1.80664 12.5999V13.3086C1.80686 13.8395 2.01164 14.3499 2.37842 14.7337C2.74521 15.1176 3.2458 15.3453 3.77614 15.3696V21.1866C3.77614 21.4576 3.82951 21.7259 3.9332 21.9762C4.03688 22.2265 4.18886 22.454 4.38045 22.6455C4.57204 22.8371 4.79949 22.9891 5.04982 23.0928C5.30014 23.1965 5.56844 23.2499 5.83939 23.2499H17.6564C18.2035 23.2497 18.7281 23.0322 19.1148 22.6453C19.5016 22.2584 19.7189 21.7337 19.7189 21.1866V15.3696C20.2494 15.3457 20.7502 15.118 21.117 14.7341C21.4839 14.3502 21.6885 13.8396 21.6884 13.3086V12.5999C21.6884 12.4009 21.6094 12.2102 21.4687 12.0695C21.3281 11.9289 21.1373 11.8499 20.9384 11.8499ZM12.9674 21.7499H10.5284V17.2499H12.9674V21.7499Z" fill="#4855DC"/>
</g>
</g>
</g>
</svg>
