<svg width="43" height="24" viewBox="0 0 43 24" fill="none" xmlns="http://www.w3.org/2000/svg">
<rect x="0.705078" y="0.5" width="42" height="23" rx="11.5" fill="#4855DC" fill-opacity="0.1"/>
<path d="M14.995 7.77273V16.5H13.7848L9.34872 10.0994H9.26776V16.5H7.95099V7.77273H9.16974L13.6101 14.1818H13.6911V7.77273H14.995ZM19.6346 16.6321C18.9897 16.6321 18.4343 16.4943 17.9684 16.2188C17.5053 15.9403 17.1474 15.5497 16.8945 15.0469C16.6445 14.5412 16.5195 13.9489 16.5195 13.2699C16.5195 12.5994 16.6445 12.0085 16.8945 11.4972C17.1474 10.9858 17.4996 10.5866 17.9513 10.2997C18.4059 10.0128 18.9371 9.86932 19.5451 9.86932C19.9144 9.86932 20.2724 9.9304 20.619 10.0526C20.9656 10.1747 21.2766 10.3665 21.5522 10.6278C21.8278 10.8892 22.0451 11.2287 22.2042 11.6463C22.3633 12.0611 22.4428 12.5653 22.4428 13.1591V13.6108H17.2397V12.6562H21.1942C21.1942 12.321 21.1261 12.0241 20.9897 11.7656C20.8533 11.5043 20.6616 11.2983 20.4144 11.1477C20.1701 10.9972 19.8832 10.9219 19.5536 10.9219C19.1957 10.9219 18.8832 11.0099 18.6161 11.1861C18.3519 11.3594 18.1474 11.5866 18.0025 11.8679C17.8604 12.1463 17.7894 12.4489 17.7894 12.7756V13.5213C17.7894 13.9588 17.8661 14.331 18.0195 14.6378C18.1758 14.9446 18.3931 15.179 18.6715 15.3409C18.9499 15.5 19.2752 15.5795 19.6474 15.5795C19.8888 15.5795 20.109 15.5455 20.3079 15.4773C20.5067 15.4062 20.6786 15.3011 20.8235 15.1619C20.9684 15.0227 21.0792 14.8509 21.1559 14.6463L22.3619 14.8636C22.2653 15.2187 22.092 15.5298 21.842 15.7969C21.5948 16.0611 21.2837 16.267 20.9087 16.4148C20.5366 16.5597 20.1119 16.6321 19.6346 16.6321ZM25.2638 16.5L23.3377 9.95455H24.6545L25.9371 14.7614H26.0011L27.288 9.95455H28.6048L29.8832 14.7401H29.9471L31.2212 9.95455H32.538L30.6161 16.5H29.3164L27.9869 11.7741H27.8888L26.5593 16.5H25.2638ZM35.3537 7.77273L35.2429 13.9901H34.0625L33.9517 7.77273H35.3537ZM34.6548 16.581C34.419 16.581 34.2173 16.4986 34.0497 16.3338C33.8821 16.1662 33.7997 15.9645 33.8026 15.7287C33.7997 15.4957 33.8821 15.2969 34.0497 15.1321C34.2173 14.9645 34.419 14.8807 34.6548 14.8807C34.8849 14.8807 35.0838 14.9645 35.2514 15.1321C35.419 15.2969 35.5043 15.4957 35.5071 15.7287C35.5043 15.8849 35.4631 16.0284 35.3835 16.1591C35.3068 16.2869 35.2045 16.3892 35.0767 16.4659C34.9489 16.5426 34.8082 16.581 34.6548 16.581Z" fill="#4855DC"/>
</svg>
