<svg width="24" height="24" viewBox="0 0 24 24" fill="none" xmlns="http://www.w3.org/2000/svg">
<g id="radio">
<path id="Icon" d="M16.2398 7.76018C16.7977 8.31741 17.2402 8.97914 17.5422 9.70753C17.8441 10.4359 17.9995 11.2167 17.9995 12.0052C17.9995 12.7937 17.8441 13.5744 17.5422 14.3028C17.2402 15.0312 16.7977 15.6929 16.2398 16.2502M7.75982 16.2402C7.20196 15.6829 6.75941 15.0212 6.45746 14.2928C6.15551 13.5644 6.0001 12.7837 6.0001 11.9952C6.0001 11.2067 6.15551 10.4259 6.45746 9.69753C6.75941 8.96915 7.20196 8.30741 7.75982 7.75018M19.0698 4.93018C20.9445 6.80545 21.9977 9.34853 21.9977 12.0002C21.9977 14.6518 20.9445 17.1949 19.0698 19.0702M4.92982 19.0702C3.05511 17.1949 2.00195 14.6518 2.00195 12.0002C2.00195 9.34853 3.05511 6.80545 4.92982 4.93018M13.9998 12.0002C13.9998 13.1047 13.1044 14.0002 11.9998 14.0002C10.8952 14.0002 9.99982 13.1047 9.99982 12.0002C9.99982 10.8956 10.8952 10.0002 11.9998 10.0002C13.1044 10.0002 13.9998 10.8956 13.9998 12.0002Z" stroke="#4855DC" stroke-width="2" stroke-linecap="round" stroke-linejoin="round"/>
</g>
</svg>
