<svg width="24" height="24" viewBox="0 0 24 24" fill="none" xmlns="http://www.w3.org/2000/svg">
<g id="Frame">
<g id="Group">
<path id="Vector" d="M22.85 5C22.85 3.97892 22.4444 2.99965 21.7224 2.27764C21.0003 1.55562 20.0211 1.15 19 1.15H5C3.97892 1.15 2.99965 1.55562 2.27764 2.27764C1.55562 2.99965 1.15 3.97892 1.15 5V19C1.15 20.0211 1.55562 21.0003 2.27764 21.7224C2.99965 22.4444 3.97892 22.85 5 22.85H19C20.0211 22.85 21.0003 22.4444 21.7224 21.7224C22.4444 21.0003 22.85 20.0211 22.85 19V5ZM21.15 5V19C21.15 19.5702 20.9235 20.1171 20.5203 20.5203C20.1171 20.9235 19.5702 21.15 19 21.15H5C4.42978 21.15 3.88292 20.9235 3.47972 20.5203C3.07652 20.1171 2.85 19.5702 2.85 19V5C2.85 4.42978 3.07652 3.88292 3.47972 3.47972C3.88292 3.07652 4.42978 2.85 5 2.85H19C19.5702 2.85 20.1171 3.07652 20.5203 3.47972C20.9235 3.88292 21.15 4.42978 21.15 5Z" fill="#4855DC" stroke="#4855DC" stroke-width="0.2"/>
<path id="Vector_2" d="M22 6.15H2C1.77457 6.15 1.55837 6.23955 1.39896 6.39896C1.23955 6.55837 1.15 6.77457 1.15 7C1.15 7.22543 1.23955 7.44163 1.39896 7.60104C1.55837 7.76045 1.77457 7.85 2 7.85H22C22.2254 7.85 22.4416 7.76045 22.601 7.60104C22.7604 7.44163 22.85 7.22543 22.85 7C22.85 6.77457 22.7604 6.55837 22.601 6.39896C22.4416 6.23955 22.2254 6.15 22 6.15Z" fill="#4855DC" stroke="#4855DC" stroke-width="0.2"/>
<path id="Vector_3" d="M12.75 5.35C13.2194 5.35 13.6 4.96944 13.6 4.5C13.6 4.03056 13.2194 3.65 12.75 3.65C12.2806 3.65 11.9 4.03056 11.9 4.5C11.9 4.96944 12.2806 5.35 12.75 5.35Z" fill="#4855DC" stroke="#4855DC" stroke-width="0.2"/>
<path id="Vector_4" d="M15.5 5.35C15.9694 5.35 16.35 4.96944 16.35 4.5C16.35 4.03056 15.9694 3.65 15.5 3.65C15.0306 3.65 14.65 4.03056 14.65 4.5C14.65 4.96944 15.0306 5.35 15.5 5.35Z" fill="#4855DC" stroke="#4855DC" stroke-width="0.2"/>
<path id="Vector_5" d="M18.25 5.35C18.7194 5.35 19.1 4.96944 19.1 4.5C19.1 4.03056 18.7194 3.65 18.25 3.65C17.7806 3.65 17.4 4.03056 17.4 4.5C17.4 4.96944 17.7806 5.35 18.25 5.35Z" fill="#4855DC" stroke="#4855DC" stroke-width="0.2"/>
<path id="Vector_6" d="M16.0029 9.90003L16.0029 9.89991L15.998 9.90003C15.1239 9.92172 14.2929 10.2842 13.6824 10.9101C13.0718 11.5359 12.7301 12.3757 12.7301 13.25C12.7301 14.1243 13.0718 14.9641 13.6824 15.5899C14.2929 16.2158 15.1239 16.5783 15.998 16.6L15.998 16.6001L16.0029 16.6C16.877 16.5783 17.708 16.2158 18.3185 15.5899C18.9291 14.9641 19.2708 14.1243 19.2708 13.25C19.2708 12.3757 18.9291 11.5359 18.3185 10.9101C17.708 10.2842 16.877 9.92172 16.0029 9.90003ZM16.0004 11.6C16.2172 11.6001 16.4318 11.6428 16.632 11.7258C16.8322 11.8088 17.0141 11.9304 17.1674 12.0838C17.3206 12.2371 17.4421 12.419 17.525 12.6193C17.6079 12.8196 17.6505 13.0342 17.6504 13.251C17.6504 13.4677 17.6076 13.6823 17.5246 13.8826C17.4416 14.0828 17.32 14.2647 17.1667 14.4179C17.0134 14.5711 16.8314 14.6927 16.6311 14.7755C16.4309 14.8584 16.2162 14.9011 15.9995 14.901C15.5617 14.9009 15.142 14.7269 14.8325 14.4172C14.5231 14.1076 14.3493 13.6878 14.3494 13.25C14.3496 12.8123 14.5236 12.3925 14.8332 12.0831C15.1428 11.7736 15.5627 11.5999 16.0004 11.6Z" fill="#4855DC" stroke="#4855DC" stroke-width="0.2"/>
<path id="Vector_7" d="M17.3993 16.1007L18.3993 17.1007C18.4782 17.1796 18.5718 17.2422 18.6749 17.2849C18.778 17.3276 18.8884 17.3496 19 17.3496C19.1116 17.3496 19.222 17.3276 19.3251 17.2849C19.4282 17.2422 19.5218 17.1796 19.6007 17.1007C19.6796 17.0218 19.7422 16.9282 19.7849 16.8251C19.8276 16.7221 19.8495 16.6116 19.8495 16.5C19.8495 16.3885 19.8276 16.278 19.7849 16.1749C19.7422 16.0718 19.6796 15.9782 19.6007 15.8993L18.6007 14.8993L18.53 14.97L18.6007 14.8993C18.5218 14.8204 18.4282 14.7578 18.3251 14.7152C18.222 14.6725 18.1116 14.6505 18 14.6505C17.8884 14.6505 17.778 14.6725 17.6749 14.7152C17.5718 14.7578 17.4782 14.8204 17.3993 14.8993C17.3204 14.9782 17.2578 15.0719 17.2151 15.1749C17.1724 15.278 17.1505 15.3885 17.1505 15.5C17.1505 15.6116 17.1724 15.7221 17.2151 15.8251C17.2578 15.9282 17.3204 16.0218 17.3993 16.1007ZM12.5 15.65H5C4.77457 15.65 4.55836 15.7396 4.39896 15.899C4.23955 16.0584 4.15 16.2746 4.15 16.5C4.15 16.7255 4.23955 16.9417 4.39896 17.1011C4.55837 17.2605 4.77457 17.35 5 17.35H12.5C12.7254 17.35 12.9416 17.2605 13.101 17.1011C13.2604 16.9417 13.35 16.7255 13.35 16.5C13.35 16.2746 13.2604 16.0584 13.101 15.899C12.9416 15.7396 12.7254 15.65 12.5 15.65Z" fill="#4855DC" stroke="#4855DC" stroke-width="0.2"/>
</g>
</g>
</svg>
