<svg width="24" height="24" viewBox="0 0 24 24" fill="none" xmlns="http://www.w3.org/2000/svg">
<g id="Frame">
<g id="Group">
<g id="Clip path group">
<g id="Group_2">
<path id="Vector" d="M12.0008 9.06678C13.215 9.06678 14.2008 10.0528 14.2008 11.2668C14.2008 12.4808 13.215 13.4668 12.0008 13.4668C10.7865 13.4668 9.80078 12.4808 9.80078 11.2668C9.80078 10.0528 10.7865 9.06678 12.0008 9.06678Z" stroke="#4855DC" stroke-width="2" stroke-miterlimit="10" stroke-linecap="round" stroke-linejoin="round"/>
<path id="Vector_2" d="M2.83335 0.999841C3.84522 0.999841 4.66666 1.82115 4.66666 2.8332C4.66666 3.8452 3.84522 4.6665 2.83335 4.6665C1.82149 4.6665 1 3.8452 1 2.8332C1 1.82115 1.82149 0.999841 2.83335 0.999841Z" stroke="#4855DC" stroke-width="2" stroke-miterlimit="10" stroke-linecap="round" stroke-linejoin="round"/>
<path id="Vector_3" d="M21.1653 19.3333C22.1772 19.3333 22.9987 20.1546 22.9987 21.1666C22.9987 22.1787 22.1772 23 21.1653 23C20.1535 23 19.332 22.1787 19.332 21.1666C19.332 20.1546 20.1535 19.3333 21.1653 19.3333Z" stroke="#4855DC" stroke-width="2" stroke-miterlimit="10" stroke-linecap="round" stroke-linejoin="round"/>
<path id="Vector_4" d="M20.4338 0.999936C21.8504 0.999936 23.0005 2.15015 23.0005 3.5666C23.0005 4.98309 21.8504 6.1333 20.4338 6.1333C19.0173 6.1333 17.8672 4.98309 17.8672 3.5666C17.8672 2.15015 19.0173 0.999936 20.4338 0.999936Z" stroke="#4855DC" stroke-width="2" stroke-miterlimit="10" stroke-linecap="round" stroke-linejoin="round"/>
<path id="Vector_5" d="M3.56666 17.8666C4.98325 17.8666 6.13332 19.0168 6.13332 20.4333C6.13332 21.8498 4.98325 23 3.56666 23C2.15007 23 1 21.8498 1 20.4333C1 19.0168 2.15007 17.8666 3.56666 17.8666Z" stroke="#4855DC" stroke-width="2" stroke-miterlimit="10" stroke-linecap="round" stroke-linejoin="round"/>
<path id="Vector_6" d="M11.9995 6.13336C15.2374 6.13336 17.8662 8.762 17.8662 12C17.8662 15.2381 15.2374 17.8667 11.9995 17.8667C8.76159 17.8667 6.13281 15.2381 6.13281 12C6.13281 8.762 8.76159 6.13336 11.9995 6.13336Z" stroke="#4855DC" stroke-width="2" stroke-miterlimit="10" stroke-linecap="round" stroke-linejoin="round"/>
<path id="Vector_7" d="M5.38086 18.6187L7.85212 16.1473" stroke="#4855DC" stroke-width="2" stroke-miterlimit="10" stroke-linecap="round" stroke-linejoin="round"/>
<path id="Vector_8" d="M16.1289 7.87109L18.6001 5.39974" stroke="#4855DC" stroke-width="2" stroke-miterlimit="10" stroke-linecap="round" stroke-linejoin="round"/>
<path id="Vector_9" d="M4.13086 4.12942L7.85389 7.85254" stroke="#4855DC" stroke-width="2" stroke-miterlimit="10" stroke-linecap="round" stroke-linejoin="round"/>
<path id="Vector_10" d="M16.1484 16.1475L19.8715 19.8706" stroke="#4855DC" stroke-width="2" stroke-miterlimit="10" stroke-linecap="round" stroke-linejoin="round"/>
<path id="Vector_11" d="M8.37109 16.6087C8.49707 15.7362 8.9332 14.9384 9.59957 14.3614C10.2659 13.7843 11.1179 13.4667 11.9994 13.4667H12.0008C12.8823 13.4667 13.7343 13.7843 14.4007 14.3613C15.0671 14.9384 15.5032 15.7362 15.6292 16.6087C14.6304 17.3963 13.3698 17.8667 12.0001 17.8667C10.6305 17.8667 9.36991 17.3963 8.37109 16.6087Z" stroke="#4855DC" stroke-width="2" stroke-miterlimit="10" stroke-linecap="round" stroke-linejoin="round"/>
</g>
</g>
</g>
</g>
</svg>
