<svg width="24" height="24" viewBox="0 0 24 24" fill="none" xmlns="http://www.w3.org/2000/svg">
<g id="Frame">
<g id="Group">
<path id="Vector" d="M19 22H5C3.3 22 2 20.7 2 19V15C2 13.3 3.3 12 5 12H19C20.7 12 22 13.3 22 15V19C22 20.7 20.7 22 19 22ZM5 14C4.4 14 4 14.4 4 15V19C4 19.6 4.4 20 5 20H19C19.6 20 20 19.6 20 19V15C20 14.4 19.6 14 19 14H5Z" fill="#4855DC"/>
<path id="Vector_2" d="M17.0003 18.0002C16.4003 18.0002 16.0003 17.6002 16.0003 17.0002C16.0003 16.4002 16.4003 16.0002 17.0003 16.0002C17.6003 16.0002 18.0003 16.4002 18.0003 17.0002C18.0003 17.6002 17.6003 18.0002 17.0003 18.0002ZM13.0003 18.0002C12.4003 18.0002 12.0003 17.6002 12.0003 17.0002C12.0003 16.4002 12.4003 16.0002 13.0003 16.0002C13.6003 16.0002 14.0003 16.4002 14.0003 17.0002C14.0003 17.6002 13.6003 18.0002 13.0003 18.0002ZM15.0003 14.0002C14.4003 14.0002 14.0003 13.6002 14.0003 13.0002V11.0002C14.0003 10.4002 14.4003 10.0002 15.0003 10.0002C15.6003 10.0002 16.0003 10.4002 16.0003 11.0002V13.0002C16.0003 13.6002 15.6003 14.0002 15.0003 14.0002ZM18.3003 9.8002C18.0003 9.8002 17.7003 9.7002 17.5003 9.4002C17.2003 9.0002 16.9003 8.7002 16.4003 8.5002C15.6003 8.1002 14.5003 8.1002 13.7003 8.5002C13.3003 8.7002 12.9003 9.0002 12.6003 9.4002C12.3003 9.8002 11.7003 10.0002 11.2003 9.6002C10.8003 9.3002 10.6003 8.7002 11.0003 8.2002C11.4003 7.5002 12.0003 7.0002 12.7003 6.6002C14.1003 5.9002 15.9003 5.9002 17.3003 6.6002C18.0003 7.0002 18.6003 7.5002 19.1003 8.2002C19.4003 8.6002 19.3003 9.3002 18.9003 9.6002C18.7003 9.7002 18.5003 9.8002 18.3003 9.8002Z" fill="#4855DC"/>
<path id="Vector_3" d="M8.49982 7.5C8.29982 7.5 8.09982 7.4 7.89982 7.3C7.49982 7 7.39982 6.4 7.69982 5.9C8.49982 4.7 9.59982 3.8 10.8998 3.1C13.3998 1.8 16.5998 1.8 19.0998 3.1C20.3998 3.8 21.4998 4.7 22.2998 5.9C22.5998 6.3 22.4998 7 22.0998 7.3C21.5998 7.6 20.9998 7.5 20.6998 7.1C20.0998 6.2 19.1998 5.5 18.1998 5C16.1998 4 13.7998 4 11.7998 5C10.7998 5.5 9.99982 6.2 9.29982 7.1C9.09982 7.4 8.79982 7.5 8.49982 7.5Z" fill="#4855DC"/>
</g>
</g>
</svg>
