<svg width="227" height="92" viewBox="0 0 227 92" fill="none" xmlns="http://www.w3.org/2000/svg">
<path d="M212.447 78.939C201.744 89.721 189.024 90.8789 175.398 89.3613C170.119 88.7734 164.621 87.7733 159.02 86.7545C157.428 86.465 155.828 86.1739 154.222 85.8903C146.924 84.6017 139.439 83.4535 131.782 83.2107C115.25 82.6865 99.772 84.8491 85.2739 86.8748C79.1138 87.7355 73.1307 88.5715 67.3188 89.1662C48.0043 91.1424 30.6515 90.4081 16.5067 78.0228C-1.46455 62.2867 -2.75743 35.8931 14.405 18.2435C22.7576 9.65377 31.416 5.14806 40.4814 3.29469C49.5038 1.4501 58.8092 2.2582 68.4195 4.08912C74.268 5.20336 80.359 6.72719 86.602 8.28907C90.5384 9.27388 94.5353 10.2738 98.57 11.1958C109.099 13.6016 120.133 15.5448 131.842 15.5813C139.474 15.6051 146.972 14.7104 154.296 13.6567C156.024 13.4081 157.747 13.1498 159.461 12.893C164.967 12.0677 170.377 11.2566 175.569 10.824C189.248 9.6842 201.987 11.1119 212.465 21.9859C220.618 30.4476 224.842 40.4549 224.879 50.5223C224.915 60.5952 220.757 70.5662 212.447 78.939Z" stroke="#FFE76A" stroke-width="3.5"/>
</svg>
