<svg width="639" height="458" viewBox="0 0 639 458" fill="none" xmlns="http://www.w3.org/2000/svg">
<path d="M2.14323 245.324C3.76156 295.003 10.8353 342.918 30.3663 380C49.9691 417.218 82.0904 443.449 133.416 449.638C164.055 453.333 194.294 449.023 224.346 443.773C228.566 443.036 232.781 442.28 236.993 441.525C262.861 436.889 288.619 432.273 314.715 432.016C340.936 431.758 370.596 437.549 400.664 443.42C402.062 443.692 403.461 443.966 404.86 444.238C436.235 450.352 467.897 456.249 495.837 454.822C524.887 453.339 548.346 445.518 567.161 432.773C585.971 420.031 600.03 402.441 610.4 381.579C631.107 339.92 637.181 285.047 636.996 229.001C636.817 174.793 620.512 117.49 590.257 74.297C559.978 31.0692 515.608 1.84803 459.438 4.33379C431.976 5.54912 411.578 8.9146 391.832 12.1727C390.155 12.4495 388.482 12.7254 386.811 12.9992C365.475 16.4935 344.222 19.6452 314.695 19.6452C285.696 19.6452 266.656 15.1075 248.245 10.7197C246.049 10.1963 243.862 9.67509 241.668 9.16396C220.987 4.34547 199.855 0.474818 165.462 4.34438C111.211 10.448 69.4912 44.5087 41.8214 90.0285C14.1612 135.533 0.427187 192.645 2.14323 245.324Z" fill="white" stroke="black" stroke-width="4"/>
</svg>
