<svg width="1196" height="814" viewBox="0 0 1196 814" fill="none" xmlns="http://www.w3.org/2000/svg">
<path d="M1.84446 440.887C4.91944 527.893 18.3621 613.275 55.2726 679.627C92.2383 746.078 152.701 793.357 249.493 804.116C307.428 810.556 364.668 799.906 421.801 787.577C428.136 786.21 434.469 784.823 440.802 783.435C491.655 772.294 542.482 761.159 593.983 760.691C644.526 760.232 701.701 773.273 759.329 786.417C761.5 786.912 763.672 787.408 765.844 787.902C825.564 801.506 885.518 814.677 938.351 812.19C993.226 809.607 1036.79 795.625 1071.23 772.955C1105.67 750.285 1130.91 718.985 1149.22 681.904C1185.83 607.799 1194.84 510.485 1194.49 412.342C1194.15 317.672 1165.79 218.932 1111.07 144.892C1056.31 70.8124 975.143 21.447 869.357 25.762C816.157 27.932 776.946 35.5753 738.645 43.0415C736.245 43.5094 733.848 43.9766 731.451 44.4417C690.833 52.3253 650.286 59.6166 593.969 59.6166C538.635 59.6166 497.175 50.713 456.61 42.0017C451.684 40.9438 446.772 39.8888 441.849 38.8529C396.366 29.282 350.122 21.3715 285.059 28.1186C182.812 38.7217 110.337 96.0023 64.284 173.58C18.2545 251.117 -1.40488 348.948 1.84446 440.887Z" fill="white" stroke="#FFE76A" stroke-width="3"/>
<path d="M1095 136.555C1094.33 -26.692 1079 -6 861.199 25.2721C751.103 41.0799 701.06 59.5452 589.791 59.5452C467.135 59.5452 413.339 15.6765 285.564 27.3038C85.1498 45.5412 103.055 -72.6025 109.443 85.9995L116.44 150" stroke="white" stroke-width="3"/>
</svg>
