<svg width="89" height="99" viewBox="0 0 89 99" fill="none" xmlns="http://www.w3.org/2000/svg">
<path d="M84.8531 52.5072L84.8543 52.5086C86.2389 54.0736 88.0212 57.2657 87.8362 63.2853C87.6236 70.0922 84.712 74.3722 81.0298 77.0092C77.2973 79.6824 72.7002 80.7129 69.1533 80.8091L68.4647 80.8278L68.1563 81.4437C64.8806 87.9837 59.9767 92.8767 52.5619 95.8123L52.5463 95.8157C52.4788 95.8307 52.3781 95.8527 52.2475 95.8809C51.9863 95.9372 51.6052 96.018 51.1288 96.115C50.1758 96.3091 48.8432 96.5679 47.3268 96.8263C44.2754 97.3465 40.5488 97.8531 37.6727 97.85C34.8346 97.847 31.1568 97.3405 28.1448 96.8219C26.6482 96.5642 25.333 96.3067 24.3923 96.1135C23.9221 96.017 23.546 95.9367 23.2882 95.8807C23.1593 95.8527 23.06 95.8308 22.9933 95.816L22.9785 95.8127C13.628 92.1045 8.20006 85.3353 5.07948 75.9303C2.03015 66.7402 1.20305 55.0814 1.15208 41.399C1.77989 41.5202 2.6051 41.6769 3.59325 41.8587C5.97525 42.2968 9.30588 42.8811 13.1019 43.4657C20.6774 44.6325 30.1673 45.8105 37.6707 45.8153C45.2325 45.82 54.7768 44.3864 62.3836 42.9666C66.1971 42.2549 69.5423 41.543 71.9346 41.0089C72.9074 40.7917 73.723 40.6039 74.3489 40.4573C74.3461 43.1566 74.3317 46.2546 74.2629 48.595L74.2223 49.9765L75.5882 49.7652C78.3229 49.3422 82.1586 49.4517 84.8531 52.5072ZM71.1864 73.4477L70.6882 75.24L72.5141 74.8845C74.7496 74.4492 77.6681 73.5704 80.0817 71.7642C82.5393 69.9251 84.4514 67.1338 84.5809 63.0232L84.5809 63.0229C84.6417 61.0801 84.411 59.7303 84.079 58.7768C83.7375 57.7964 83.3075 57.2929 83.0953 57.049L83.0923 57.0456C81.9442 55.7367 80.3022 55.252 78.8234 55.1211C77.3318 54.9891 75.8394 55.1997 74.7648 55.4463L73.9374 55.6363L73.8752 56.483C73.4144 62.7591 72.5807 68.4309 71.1864 73.4477Z" stroke="white" stroke-width="2.3"/>
<path d="M1 40C1 40 23.4469 35 38 35C52.5531 35 75 40 75 40" stroke="white" stroke-width="1.9"/>
<ellipse cx="1.5" cy="40" rx="1.5" ry="1" fill="white"/>
<g filter="url(#filter0_d)">
<path d="M30.7259 42.4C30.7259 42.4 39.9583 41.0965 35.2689 26.1292C31.5034 14.1137 32.363 7.06373 37.1809 0.693359C37.1809 0.693359 22.3997 7.6673 31.603 29.2485C34.9797 38.6519 30.7259 42.4 30.7259 42.4Z" fill="#FFE76A"/>
</g>
<g filter="url(#filter1_d)">
<path d="M38 38.8C38 38.8 49.4816 35.4293 43.2331 22.5683C40.9646 16.9905 44.0929 15 44.0929 15C44.0929 15 36.702 15.3251 39.8222 24.171C42.3199 31.283 41.5788 35.321 38 38.8Z" fill="#FFE76A"/>
</g>
<defs>
<filter id="filter0_d" x="24.585" y="0.693359" width="16.596" height="49.7067" filterUnits="userSpaceOnUse" color-interpolation-filters="sRGB">
<feFlood flood-opacity="0" result="BackgroundImageFix"/>
<feColorMatrix in="SourceAlpha" type="matrix" values="0 0 0 0 0 0 0 0 0 0 0 0 0 0 0 0 0 0 127 0"/>
<feOffset dy="4"/>
<feGaussianBlur stdDeviation="2"/>
<feColorMatrix type="matrix" values="0 0 0 0 0 0 0 0 0 0 0 0 0 0 0 0 0 0 0.25 0"/>
<feBlend mode="normal" in2="BackgroundImageFix" result="effect1_dropShadow"/>
<feBlend mode="normal" in="SourceGraphic" in2="effect1_dropShadow" result="shape"/>
</filter>
<filter id="filter1_d" x="34" y="15" width="15.095" height="31.8" filterUnits="userSpaceOnUse" color-interpolation-filters="sRGB">
<feFlood flood-opacity="0" result="BackgroundImageFix"/>
<feColorMatrix in="SourceAlpha" type="matrix" values="0 0 0 0 0 0 0 0 0 0 0 0 0 0 0 0 0 0 127 0"/>
<feOffset dy="4"/>
<feGaussianBlur stdDeviation="2"/>
<feColorMatrix type="matrix" values="0 0 0 0 0 0 0 0 0 0 0 0 0 0 0 0 0 0 0.25 0"/>
<feBlend mode="normal" in2="BackgroundImageFix" result="effect1_dropShadow"/>
<feBlend mode="normal" in="SourceGraphic" in2="effect1_dropShadow" result="shape"/>
</filter>
</defs>
</svg>
