<svg width="603" height="263" viewBox="0 0 603 263" fill="none" xmlns="http://www.w3.org/2000/svg">
<path d="M116.309 3.11178C35.8664 2.58247 -1.54915 65.1475 0.949223 134.755C3.3666 202.107 41.1996 265.383 118.93 261.86C168.03 259.634 177.525 250.417 226.424 245.972C270.558 241.959 305.758 264.127 349.649 258.455C379.32 254.62 398.322 248.021 428.303 247.106C468.41 245.883 485.426 262.305 525.31 258.455C584.645 252.728 601.735 178.495 601.342 126.811C600.956 75.9479 579.582 10.0589 521.378 3.11178C482.592 -1.51756 464.605 20.3935 425.682 16.7301C393.357 13.6878 388.243 7.91005 356.204 3.11178C309.726 -3.84879 273.481 16.2017 226.424 18.9998C171.416 22.2708 163.015 3.4191 116.309 3.11178Z" fill="white" stroke="black" stroke-width="1.4"/>
</svg>
