<svg width="459" height="23" viewBox="0 0 459 23" fill="none" xmlns="http://www.w3.org/2000/svg">
<path d="M1 19.9536C1 19.9536 19.4426 2.29518 35.9363 3.22016C50.5836 4.0416 56.4807 19.4375 71.1442 19.9536C86.91 20.5086 96.8198 3.53393 112.593 3.20536C129.113 2.86123 133.385 18.1286 149.791 19.9536C171.944 22.4179 177.755 -0.469359 199.878 2.22016C215.89 4.16682 221.873 20.6936 238.002 19.9536C252.658 19.2813 259.578 4.9028 274.137 3.20536C293.178 0.985401 297.513 22.2836 316.649 20.9388C332.752 19.8072 337.717 1.48018 353.846 2.22016C368.503 2.89255 375.38 18.5992 389.981 19.9536C407.931 21.6186 411.496 0.540415 429.305 3.20536C442.378 5.1617 458 19.9536 458 19.9536" stroke="white" stroke-width="2.1"/>
</svg>
