<svg width="43" height="46" viewBox="0 0 43 46" fill="none" xmlns="http://www.w3.org/2000/svg">
<path d="M28.3814 12.4966C22.7839 8.21669 13.9178 6.43472 10.2702 12.3726C8.44736 15.34 9.73114 17.7077 9.93312 21.1307C10.209 25.8059 9.32577 29.2515 12.5756 32.7446C17.6109 38.1569 27.1715 39.2932 32.0338 33.6803C34.9721 30.2884 32.7543 26.96 32.1008 22.6225C31.4351 18.2037 32.0259 15.2832 28.3814 12.4966Z" stroke="#FFE76A" stroke-width="1.5"/>
<path d="M33.0538 7.25524C23.8701 0.865245 9.28187 -1.74024 3.22479 7.2213C0.197836 11.6997 2.29259 15.25 2.5968 20.3965C3.01229 27.4259 1.52893 32.6157 6.85252 37.8421C15.1009 45.9399 30.8381 47.5684 38.8933 39.0855C43.761 33.9592 40.1358 28.9719 39.0956 22.4537C38.0358 15.8131 39.0331 11.4156 33.0538 7.25524Z" stroke="black" stroke-width="1.5"/>
</svg>
