<svg width="295" height="105" viewBox="0 0 295 105" fill="none" xmlns="http://www.w3.org/2000/svg">
<path d="M147.694 90.0917C159.722 90.1375 171.503 91.8893 182.932 94.0951C187.745 95.024 192.528 96.041 197.241 97.0431C203.648 98.4053 209.924 99.7399 215.968 100.788C237.035 104.44 256.364 104.843 272.352 91.1962C286.05 79.5043 293.526 62.4001 292.417 46.9249C291.861 39.1719 289.147 31.8171 283.963 25.7953C278.777 19.7715 271.179 15.1496 260.97 12.7651C243.924 8.78342 231.699 10.5952 216.95 12.781C211.932 13.5247 206.622 14.3117 200.731 14.9285C172.104 17.9257 145.956 13.098 121.167 8.52115C116.874 7.72854 112.622 6.94346 108.405 6.20785C79.9136 1.23805 53.01 -1.46699 26.5154 11.6222C8.97853 20.2861 1.38467 34.352 1.99974 49.1125C2.61125 63.7885 11.3244 78.9276 25.9115 89.9439C42.6508 102.586 61.4839 102.446 81.8098 99.3038C87.7817 98.3807 93.872 97.2031 100.09 96.0008C115.16 93.0871 130.983 90.028 147.694 90.0917Z" stroke="white" stroke-width="2.5"/>
</svg>
