<svg width="295" height="105" viewBox="0 0 295 105" fill="none" xmlns="http://www.w3.org/2000/svg">
<path d="M147.761 90.0917C159.788 90.1375 171.57 91.8893 182.998 94.0951C187.811 95.024 192.594 96.041 197.307 97.0431C203.714 98.4053 209.991 99.7399 216.035 100.788C237.102 104.44 256.43 104.843 272.418 91.1962C286.116 79.5043 293.593 62.4001 292.484 46.9249C291.928 39.1719 289.213 31.8171 284.029 25.7953C278.843 19.7715 271.245 15.1496 261.037 12.7651C243.991 8.78342 231.765 10.5952 217.016 12.781C211.999 13.5247 206.689 14.3117 200.797 14.9285C172.17 17.9257 146.022 13.098 121.234 8.52115C116.941 7.72854 112.689 6.94346 108.471 6.20785C79.9801 1.23805 53.0764 -1.46699 26.5819 11.6222C9.045 20.2861 1.45114 34.352 2.0662 49.1125C2.67772 63.7885 11.3908 78.9276 25.978 89.9439C42.7173 102.586 61.5503 102.446 81.8763 99.3038C87.8482 98.3807 93.9385 97.2031 100.157 96.0008C115.227 93.0871 131.049 90.028 147.761 90.0917Z" stroke="black" stroke-width="2.5"/>
</svg>
