<svg width="466" height="145" viewBox="0 0 466 145" fill="none" xmlns="http://www.w3.org/2000/svg">
<path d="M14.6321 35.6644C-1.88411 61.0696 -1.27636 96.7377 24.3959 119.279C43.758 136.279 69.3861 133.803 97.0421 127.506C104.17 125.883 111.453 124.004 118.864 122.091C140.616 116.477 163.466 110.581 186.69 110.063C224.407 109.223 263.312 118.492 299.92 127.215C310.95 129.842 321.77 132.421 332.287 134.658C354.864 139.46 376.071 142.682 394.637 141.176C413.29 139.664 429.445 133.363 441.626 119.013C453.804 104.666 461.405 90.3024 462.431 75.7632C463.465 61.1138 457.794 46.7612 444.425 32.5828C424.352 11.2933 393.858 5.86467 359.56 5.6442C342.355 5.53361 324.003 6.73737 305.293 8.01303C304.529 8.06509 303.765 8.11727 303 8.1695C284.992 9.39915 266.665 10.6506 248.558 10.8528C226.249 11.102 202.763 9.45729 179.467 7.64951C176.953 7.45442 174.44 7.25741 171.932 7.0607C151.24 5.43791 130.813 3.83589 111.774 3.51009C90.4379 3.14498 70.6417 4.37491 53.976 9.057C37.27 13.7504 23.5386 21.9645 14.6321 35.6644Z" stroke="black" stroke-width="5.1"/>
</svg>
