<svg width="385" height="142" viewBox="0 0 385 142" fill="none" xmlns="http://www.w3.org/2000/svg">
<path d="M191.633 19.9854C176.151 20.0093 160.955 17.7694 146.166 14.9131C139.974 13.7172 133.785 12.3973 127.676 11.0945C119.345 9.31793 111.163 7.57308 103.326 6.21757C75.9679 1.4856 50.5351 1.01408 29.5832 19.6333C11.7347 35.4946 2.05028 58.6137 3.61396 79.5249C4.3981 90.0113 8.01892 99.9792 14.9083 108.134C21.8045 116.298 31.8586 122.506 45.2722 125.656C67.5717 130.893 83.6251 128.351 102.765 125.322C109.233 124.298 116.055 123.218 123.589 122.364C160.478 118.182 194.21 124.405 226.341 130.332C231.911 131.36 237.433 132.379 242.915 133.333C279.858 139.763 314.999 143.242 349.521 125.44C372.481 113.599 382.406 94.4696 381.492 74.4526C380.587 54.5938 369.044 34.2412 349.907 19.5183C327.821 2.52663 303.086 2.9005 276.72 7.24624C268.92 8.53177 261 10.1542 252.933 11.8067C233.478 15.7919 213.168 19.9523 191.633 19.9854Z" stroke="black" stroke-width="5.1"/>
</svg>
