<svg width="422" height="142" viewBox="0 0 422 142" fill="none" xmlns="http://www.w3.org/2000/svg">
<path d="M210.047 19.9854C185.684 20.0195 162.212 15.4624 139.792 11.1095C130.649 9.33436 121.681 7.59318 112.899 6.21125C82.8726 1.48643 55.0952 1.03121 32.1812 19.5564C12.6064 35.382 1.90347 58.5262 3.631 79.5437C4.49748 90.0855 8.4988 100.076 16.0646 108.224C23.6262 116.367 34.6235 122.536 49.2759 125.667C73.6901 130.883 91.2202 128.359 112.23 125.334C119.352 124.308 126.874 123.225 135.199 122.367C175.825 118.176 212.98 124.413 248.296 130.341C254.416 131.368 260.48 132.386 266.498 133.339C307.093 139.767 345.581 143.222 383.395 125.482C408.5 113.704 419.497 94.5998 418.487 74.4411C417.486 54.487 404.749 34.1313 383.774 19.4503C359.615 2.54142 332.586 2.90182 303.652 7.24049C295.114 8.52067 286.429 10.1392 277.573 11.7895C256.17 15.778 233.77 19.9522 210.047 19.9854Z" stroke="black" stroke-width="5.1"/>
</svg>
