<svg width="429" height="123" viewBox="0 0 429 123" fill="none" xmlns="http://www.w3.org/2000/svg">
<path d="M219.967 17.79C202.766 17.8141 184.796 15.6123 166.795 12.8393C160.22 11.8264 153.632 10.7358 147.077 9.65064C135.723 7.77082 124.468 5.90753 113.548 4.49314C79.1322 0.0354633 47.4404 -0.0672004 25.0727 18.0163C5.7924 33.6038 -2.12723 55.3374 2.11231 74.8022C6.35863 94.2982 22.7421 111.258 51.5167 117.406C67.7589 120.876 83.8253 120.137 99.9602 118.116C106.952 117.241 113.972 116.123 121.025 114.999C122.108 114.827 123.192 114.654 124.277 114.482C132.433 113.189 140.642 111.937 148.957 111.079C191.471 106.695 227.159 111.451 260.592 115.907C264.863 116.476 269.097 117.041 273.304 117.581C310.424 122.343 345.415 125.188 384.54 112.378C409.54 104.193 424.288 86.3592 427.146 67.3406C430.008 48.2978 420.913 28.2963 398.716 15.9206C374.613 2.48289 346.654 3.00422 316.458 6.81211C307.697 7.917 298.75 9.29725 289.643 10.7023C267.266 14.1546 243.919 17.7565 219.967 17.79Z" fill="#FFE76A" stroke="black" stroke-width="2"/>
</svg>
