<svg width="79" height="36" viewBox="0 0 79 36" fill="none" xmlns="http://www.w3.org/2000/svg">
<path d="M17.041 36H11.2061V5.31152H0.708008V0.306641H27.5391V5.31152H17.041V36ZM72.459 36L68.8945 26.0879H55.2471L51.7559 36H45.6035L58.958 0.160156H65.3057L78.6602 36H72.459ZM67.3564 21.0586L64.0117 11.3418C63.7676 10.6908 63.4258 9.66536 62.9863 8.26562C62.5632 6.86589 62.2702 5.84049 62.1074 5.18945C61.668 7.19141 61.0251 9.38053 60.1787 11.7568L56.9561 21.0586H67.3564Z" fill="black"/>
<path d="M34.0322 36V0.306641H39.8672V36H34.0322Z" fill="url(#paint0_linear)"/>
<defs>
<linearGradient id="paint0_linear" x1="39.5" y1="-18" x2="39.5" y2="51" gradientUnits="userSpaceOnUse">
<stop stop-color="#FFE76A"/>
</linearGradient>
</defs>
</svg>
