<svg width="102" height="94" viewBox="0 0 102 94" fill="none" xmlns="http://www.w3.org/2000/svg">
<path d="M64.5749 73.7066C79.5907 68.794 88.2415 67.4571 92.1164 52.6958C99.5891 24.2287 43.3325 6.84408 19.5793 27.5973C6.37701 39.1322 10.6518 60.2777 24.3055 72.4859C36.6943 83.5632 48.9908 78.805 64.5749 73.7066Z" fill="white" stroke="black"/>
<path d="M72.1174 48.4837C72.6251 47.976 72.6251 47.1529 72.1174 46.6452L63.8442 38.3721C63.3366 37.8644 62.5134 37.8644 62.0058 38.3721C61.4981 38.8797 61.4981 39.7029 62.0058 40.2105L69.3597 47.5645L62.0058 54.9184C61.4981 55.426 61.4981 56.2492 62.0058 56.7568C62.5134 57.2645 63.3366 57.2645 63.8442 56.7568L72.1174 48.4837ZM37.4988 48.8645L71.1981 48.8645V46.2645L37.4988 46.2645V48.8645Z" fill="#FFE76A"/>
</svg>
