<svg width="102" height="94" viewBox="0 0 102 94" fill="none" xmlns="http://www.w3.org/2000/svg">
<path d="M37.4239 20.2915C22.4081 25.204 13.7573 26.5409 9.8824 41.3022C2.40964 69.7693 58.6663 87.154 82.4195 66.4007C95.6218 54.8659 91.3469 33.7203 77.6933 21.5122C65.3045 10.4349 53.008 15.193 37.4239 20.2915Z" fill="white" stroke="black"/>
<path d="M29.8814 45.5144C29.3737 46.022 29.3737 46.8452 29.8814 47.3528L38.1545 55.626C38.6622 56.1337 39.4853 56.1337 39.993 55.626C40.5007 55.1183 40.5007 54.2952 39.993 53.7875L32.6391 46.4336L39.993 39.0797C40.5007 38.572 40.5007 37.7489 39.993 37.2412C39.4853 36.7335 38.6622 36.7335 38.1545 37.2412L29.8814 45.5144ZM64.5 45.1336L30.8006 45.1336V47.7336L64.5 47.7336V45.1336Z" fill="#FFE76A"/>
</svg>
