<svg width="26" height="14" viewBox="0 0 26 14" fill="none" xmlns="http://www.w3.org/2000/svg">
<path d="M25.6364 7.6364C25.9879 7.28492 25.9879 6.71508 25.6364 6.3636L19.9088 0.636039C19.5574 0.284567 18.9875 0.284567 18.636 0.636039C18.2846 0.987511 18.2846 1.55736 18.636 1.90883L23.7272 7L18.636 12.0912C18.2846 12.4426 18.2846 13.0125 18.636 13.364C18.9875 13.7154 19.5574 13.7154 19.9088 13.364L25.6364 7.6364ZM0 7.9H25V6.1H0L0 7.9Z" fill="white"/>
<path d="M25.6364 7.6364C25.9879 7.28492 25.9879 6.71508 25.6364 6.3636L19.9088 0.636039C19.5574 0.284567 18.9875 0.284567 18.636 0.636039C18.2846 0.987511 18.2846 1.55736 18.636 1.90883L23.7272 7L18.636 12.0912C18.2846 12.4426 18.2846 13.0125 18.636 13.364C18.9875 13.7154 19.5574 13.7154 19.9088 13.364L25.6364 7.6364ZM0 7.9H25V6.1H0L0 7.9Z" fill="white"/>
</svg>
