<svg width="293" height="105" viewBox="0 0 293 105" fill="none" xmlns="http://www.w3.org/2000/svg">
<path d="M146.773 95.8416C158.847 95.8876 170.664 97.211 182.112 98.7649C185.218 99.1865 188.3 99.6257 191.354 100.061C199.531 101.226 207.5 102.361 215.17 103.052C236.25 104.951 255.418 103.534 271.267 90.006C284.912 78.3593 292.348 61.3294 291.245 45.9427C290.693 38.237 287.996 30.9349 282.85 24.9583C277.704 18.9801 270.155 14.3827 259.991 12.0084C242.995 8.03845 230.828 9.84139 216.094 12.0248C211.07 12.7692 205.748 13.5579 199.834 14.177C171.168 17.1783 144.981 12.343 120.193 7.76596C115.902 6.97358 111.652 6.18894 107.439 5.45405C78.9522 0.484973 52.1201 -2.20443 25.7035 10.8463C8.24735 19.4702 0.716267 33.4488 1.32687 48.102C1.93462 62.6876 10.5982 77.7626 25.1395 88.7443C41.7446 101.285 60.4335 102.951 80.7642 101.566C88.3833 101.047 96.2718 100.095 104.38 99.1172C107.077 98.7918 109.798 98.4635 112.542 98.1472C123.554 96.8778 134.966 95.7966 146.773 95.8416Z" fill="white" stroke="black" stroke-width="2"/>
</svg>
