<svg width="122" height="119" viewBox="0 0 122 119" fill="none" xmlns="http://www.w3.org/2000/svg">
<path d="M77.1936 25.5984C95.1437 31.7952 105.485 33.4817 110.117 52.102C119.05 88.0114 51.8001 109.941 23.4052 83.7621C7.62299 69.2117 12.7332 42.538 29.0549 27.1382C43.8647 13.165 58.5641 19.167 77.1936 25.5984Z" fill="white" stroke="black" stroke-width="2"/>
<path d="M84.8358 57.654C85.3435 58.1617 85.3435 58.9848 84.8358 59.4925L76.5626 67.7656C76.055 68.2733 75.2319 68.2733 74.7242 67.7656C74.2165 67.2579 74.2165 66.4348 74.7242 65.9272L82.0781 58.5732L74.7242 51.2193C74.2165 50.7117 74.2165 49.8885 74.7242 49.3809C75.2319 48.8732 76.055 48.8732 76.5626 49.3809L84.8358 57.654ZM43.6318 57.2732L83.9166 57.2732V59.8732L43.6318 59.8732V57.2732Z" fill="#FFE76A"/>
</svg>
