<svg width="125" height="122" viewBox="0 0 125 122" fill="none" xmlns="http://www.w3.org/2000/svg">
<path d="M46.4209 27.5984C28.5977 33.7952 18.3295 35.4817 13.7301 54.102C4.86015 90.0114 71.6349 111.941 99.8291 85.7621C115.5 71.2117 110.426 44.538 94.2193 29.1382C79.5142 15.165 64.9187 21.167 46.4209 27.5984Z" fill="white" stroke="black" stroke-width="2"/>
<path d="M38.8259 59.654C38.3182 60.1617 38.3182 60.9848 38.8259 61.4925L47.099 69.7656C47.6067 70.2733 48.4298 70.2733 48.9375 69.7656C49.4452 69.2579 49.4452 68.4348 48.9375 67.9272L41.5836 60.5732L48.9375 53.2193C49.4452 52.7117 49.4452 51.8885 48.9375 51.3809C48.4298 50.8732 47.6067 50.8732 47.099 51.3809L38.8259 59.654ZM79.7451 59.2732L39.7451 59.2732V61.8732L79.7451 61.8732V59.2732Z" fill="#FFE76A"/>
</svg>
