<svg width="327" height="113" viewBox="0 0 327 113" fill="none" xmlns="http://www.w3.org/2000/svg">
<path d="M162.32 100.759C175.74 100.812 189.129 102.343 202.232 104.193C206.396 104.781 210.536 105.401 214.639 106.016C223.422 107.333 232.034 108.625 240.35 109.513C264.75 112.12 287.038 111.322 304.621 97.369C319.799 85.3251 327.016 67.0616 324.74 50.5181C322.454 33.9103 310.62 19.1749 288.036 14.2618C269.186 10.1612 255.711 12.0128 239.352 14.2607C233.767 15.0282 227.846 15.8419 221.259 16.4806C189.14 19.5957 160.549 14.2991 133.661 9.31782C129.252 8.50109 124.889 7.69284 120.564 6.93153C89.91 1.53578 61.1453 -1.49715 31.8468 11.9531C12.5025 20.8336 2.6713 36.4749 1.81478 52.8184C0.959484 69.1386 9.05988 86.0171 25.2715 97.4039C43.7148 110.358 64.962 111.065 88.0125 108.642C95.5599 107.849 103.346 106.714 111.304 105.554C115.486 104.944 119.716 104.327 123.983 103.749C136.401 102.069 149.203 100.708 162.32 100.759Z" fill="white" stroke="black" stroke-width="2"/>
</svg>
