<svg width="18" height="19" viewBox="0 0 18 19" fill="none" xmlns="http://www.w3.org/2000/svg">
<g clip-path="url(#clip0_2_342)">
<path d="M17.9972 5.58124C17.9972 5.02774 17.9505 4.47649 17.8183 3.93762C17.5809 2.95605 17.0212 2.20624 16.1837 1.65555C15.7528 1.3743 15.2786 1.20162 14.7746 1.11049C14.3875 1.04278 13.9958 1.00554 13.6029 0.999117C13.5737 0.996305 13.5416 0.990117 13.509 0.987305H4.49153C4.37734 0.996305 4.26316 1.00193 4.14897 1.00755C3.58928 1.03962 3.03297 1.09812 2.50534 1.30905C1.50353 1.70449 0.779594 2.3958 0.357719 3.39199C0.211469 3.72893 0.137781 4.08612 0.0854687 4.44949C0.0415937 4.74255 0.0179688 5.03843 0.00953125 5.3343C0.00953125 5.35793 0.00390625 5.38099 0.00390625 5.40462V14.5717L0.0213437 14.8884C0.0595938 15.5009 0.138344 16.1073 0.396531 16.6698C0.883094 17.7335 1.70041 18.4332 2.82259 18.7702C3.13591 18.8669 3.46441 18.9108 3.79234 18.9401C4.20859 18.9811 4.62428 18.9867 5.04053 18.9867H13.3138C13.7064 18.9867 14.099 18.9603 14.4917 18.9108C15.1098 18.8315 15.6898 18.6498 16.2146 18.3044C16.8358 17.902 17.3256 17.3265 17.6237 16.649C17.7643 16.3323 17.8436 15.9959 17.9021 15.6556C17.987 15.1488 18.0045 14.6358 18.0045 14.1234C18.0017 11.2754 18.0045 8.42805 18.0017 5.58012L17.9972 5.58124ZM13.1805 8.57205V12.8555C13.1805 13.1688 13.1366 13.4765 12.996 13.7606C12.7794 14.2027 12.4278 14.4811 11.9559 14.6161C11.6945 14.691 11.425 14.7343 11.1532 14.7449C10.8115 14.7651 10.4742 14.659 10.2057 14.4466C9.93717 14.2343 9.75608 13.9307 9.69691 13.5935C9.64269 13.2901 9.68955 12.9773 9.83029 12.7032C9.97103 12.429 10.1979 12.2086 10.476 12.0759C10.7162 11.9589 10.9772 11.8886 11.2376 11.8357C11.5217 11.7744 11.8057 11.7187 12.087 11.654C12.2951 11.6073 12.4295 11.4813 12.4706 11.267C12.4824 11.2203 12.4852 11.1702 12.4852 11.1236V7.0398C12.4842 6.99321 12.4774 6.94691 12.465 6.90199C12.4357 6.7878 12.3536 6.7203 12.2366 6.72593C12.1162 6.73155 11.9992 6.75237 11.8822 6.77599C11.3107 6.88737 10.7398 7.00155 10.1711 7.11855L7.39684 7.67824C7.38503 7.68105 7.37041 7.68724 7.35859 7.68724C7.15047 7.74574 7.07734 7.83968 7.06834 8.05624C7.06553 8.0883 7.06834 8.12093 7.06834 8.15299C7.06553 10.1043 7.06834 12.0556 7.06553 14.0064C7.06553 14.3231 7.03009 14.6336 6.90466 14.9261C6.69653 15.4064 6.32753 15.7085 5.82972 15.8519C5.56654 15.9285 5.2948 15.9718 5.02084 15.9807C4.30309 16.0072 3.70516 15.5296 3.58253 14.8237C3.47678 14.2145 3.75522 13.5581 4.44653 13.265C4.71597 13.1536 4.99441 13.0923 5.27847 13.0338L5.92309 12.9022C6.20997 12.8409 6.35959 12.6592 6.37422 12.3661V5.59249C6.37422 5.49855 6.38603 5.40518 6.40628 5.31405C6.45916 5.1003 6.61159 4.97712 6.81634 4.92705C7.00703 4.87699 7.20334 4.84212 7.39628 4.80105C7.94697 4.68968 8.49484 4.5783 9.04553 4.46974L10.7477 4.1238C11.2517 4.02424 11.7523 3.92187 12.2563 3.8223C12.4205 3.79024 12.5876 3.7548 12.7541 3.74299C12.9853 3.72274 13.1467 3.86899 13.1703 4.10355C13.176 4.15924 13.1793 4.21493 13.1793 4.27062V8.56868L13.1805 8.57205Z" fill="#A7A7A7"/>
</g>
<defs>
<clipPath id="clip0_2_342">
<rect width="18" height="18" fill="white" transform="translate(0 0.987305)"/>
</clipPath>
</defs>
</svg>
