<svg width="18" height="18" viewBox="0 0 18 18" fill="none" xmlns="http://www.w3.org/2000/svg">
<g clip-path="url(#clip0_2_377)">
<path fill-rule="evenodd" clip-rule="evenodd" d="M9 1C4.58156 1 1 4.58156 1 9C1 13.4184 4.58156 17 9 17C13.4184 17 17 13.4184 17 9C17 4.58156 13.4184 1 9 1ZM6.99062 11.6178C5.55469 11.6178 4.39062 10.4459 4.39062 9C4.39062 7.55406 5.55469 6.38219 6.99062 6.38219C8.42656 6.38219 9.59062 7.55406 9.59062 9C9.59062 10.4459 8.42656 11.6178 6.99062 11.6178ZM11.1428 11.4641C10.425 11.4641 9.84281 10.3603 9.84281 8.99969C9.84281 7.63906 10.425 6.53531 11.1428 6.53531C11.8606 6.53531 12.4428 7.63906 12.4428 8.99969C12.4428 10.3603 11.8606 11.4641 11.1428 11.4641ZM13.1522 11.2078C12.8997 11.2078 12.695 10.2191 12.695 9C12.695 7.78094 12.8997 6.79219 13.1522 6.79219C13.4047 6.79219 13.6094 7.78062 13.6094 9C13.6094 10.2194 13.4047 11.2078 13.1522 11.2078Z" fill="#A7A7A7"/>
</g>
<defs>
<clipPath id="clip0_2_377">
<rect width="16" height="16" fill="white" transform="translate(1 1)"/>
</clipPath>
</defs>
</svg>
