<svg width="21" height="21" viewBox="0 0 21 21" fill="none" xmlns="http://www.w3.org/2000/svg">
<path d="M14.5518 14.4821C14.5518 13.0465 13.3598 11.8817 11.897 11.8817C10.4207 11.8817 9.26948 13.1006 9.26948 14.4821C9.26948 15.9043 10.4342 17.1097 11.897 17.1097C13.414 17.1097 14.5518 15.8772 14.5518 14.482V14.4821ZM16.746 14.482C16.746 17.164 14.606 19.3311 11.897 19.3311C9.21518 19.3311 7.07523 17.2182 7.07523 14.482C7.07523 13.1955 7.56268 12.0577 8.33486 11.2044L5.05705 14.482L3.33691 12.762L7.03454 9.10505C7.53573 8.60381 7.79308 7.95364 7.79308 7.2358V2.64415H10.2175V7.23571C10.2175 8.64443 9.71639 9.83628 8.74124 10.8115L8.63272 10.92C9.48617 10.1343 10.6509 9.66027 11.897 9.66027C14.6466 9.66027 16.746 11.8409 16.746 14.482Z" fill="#AEAEAE" stroke="#AEAEAE" stroke-width="0.0281816"/>
</svg>
