<svg width="19" height="19" viewBox="0 0 19 19" fill="none" xmlns="http://www.w3.org/2000/svg">
<path d="M2.27441 13.3623H3.77441V13.7373H2.27441V13.3623ZM6.02441 13.3623H7.89941V13.7373H6.02441V13.3623ZM12.0244 13.7373H10.1494V13.3623H12.0244V13.7373ZM16.1494 13.7373H14.2744V13.3623H16.1494V13.7373ZM16.1494 10.7373H14.2744V11.1123H16.1494V10.7373ZM16.1494 8.1123H14.2744V8.4873H16.1494V8.1123ZM16.1494 5.4873H14.2744V5.8623H16.1494V5.4873ZM12.0244 10.7373H10.1494V11.1123H12.0244V10.7373ZM6.02441 11.1123H7.89941V10.7373H6.02441V11.1123ZM6.02441 8.1123H7.89941V8.4873H6.02441V8.1123Z" stroke="#A7A7A7" stroke-width="2" stroke-linecap="round" stroke-linejoin="round"/>
</svg>
