<svg width="30" height="22" viewBox="0 0 30 22" fill="none" xmlns="http://www.w3.org/2000/svg">
<path d="M3.25586 17.0573V15.606H8.26147V18.5094H3.25586V17.0573ZM9.26315 17.0573V15.606H14.2688V18.5094H9.26315V17.0573ZM15.2697 17.0573V15.606H20.2753V18.5094H15.2697V17.0573ZM21.277 17.0573V15.606H26.2826V18.5094H21.277V17.0573ZM9.26315 13.0527V11.6013H14.2688V14.5048H9.26315V13.0527ZM15.2697 13.0527V11.6013H20.2753V14.5048H15.2697V13.0527ZM21.277 13.0527V11.6013H26.2826V14.5048H21.277V13.0527ZM9.26315 8.94792V7.49654H14.2688V10.4H9.26315V8.94792ZM21.277 8.94792V7.49654H26.2826V10.4H21.277V8.94792ZM21.277 4.9426V3.49121H26.2826V6.39469H21.277V4.9426Z" fill="#AEAEAE"/>
</svg>
