<svg width="18" height="18" viewBox="0 0 18 18" fill="none" xmlns="http://www.w3.org/2000/svg">
<path d="M5.85 1.5H12.15C14.55 1.5 16.5 3.45 16.5 5.85V12.15C16.5 13.3037 16.0417 14.4101 15.2259 15.2259C14.4101 16.0417 13.3037 16.5 12.15 16.5H5.85C3.45 16.5 1.5 14.55 1.5 12.15V5.85C1.5 4.69631 1.9583 3.58987 2.77409 2.77409C3.58987 1.9583 4.69631 1.5 5.85 1.5ZM5.7 3C4.98392 3 4.29716 3.28446 3.79081 3.79081C3.28446 4.29716 3 4.98392 3 5.7V12.3C3 13.7925 4.2075 15 5.7 15H12.3C13.0161 15 13.7028 14.7155 14.2092 14.2092C14.7155 13.7028 15 13.0161 15 12.3V5.7C15 4.2075 13.7925 3 12.3 3H5.7ZM12.9375 4.125C13.1861 4.125 13.4246 4.22377 13.6004 4.39959C13.7762 4.5754 13.875 4.81386 13.875 5.0625C13.875 5.31114 13.7762 5.5496 13.6004 5.72541C13.4246 5.90123 13.1861 6 12.9375 6C12.6889 6 12.4504 5.90123 12.2746 5.72541C12.0988 5.5496 12 5.31114 12 5.0625C12 4.81386 12.0988 4.5754 12.2746 4.39959C12.4504 4.22377 12.6889 4.125 12.9375 4.125ZM9 5.25C9.99456 5.25 10.9484 5.64509 11.6517 6.34835C12.3549 7.05161 12.75 8.00544 12.75 9C12.75 9.99456 12.3549 10.9484 11.6517 11.6517C10.9484 12.3549 9.99456 12.75 9 12.75C8.00544 12.75 7.05161 12.3549 6.34835 11.6517C5.64509 10.9484 5.25 9.99456 5.25 9C5.25 8.00544 5.64509 7.05161 6.34835 6.34835C7.05161 5.64509 8.00544 5.25 9 5.25ZM9 6.75C8.40326 6.75 7.83097 6.98705 7.40901 7.40901C6.98705 7.83097 6.75 8.40326 6.75 9C6.75 9.59674 6.98705 10.169 7.40901 10.591C7.83097 11.0129 8.40326 11.25 9 11.25C9.59674 11.25 10.169 11.0129 10.591 10.591C11.0129 10.169 11.25 9.59674 11.25 9C11.25 8.40326 11.0129 7.83097 10.591 7.40901C10.169 6.98705 9.59674 6.75 9 6.75Z" fill="#A7A7A7"/>
</svg>
