<svg width="21" height="22" viewBox="0 0 21 22" fill="none" xmlns="http://www.w3.org/2000/svg">
<path d="M5.61773 18.0926C1.7173 15.2743 0.829356 9.81439 3.6344 5.8975C6.43928 1.98069 11.8754 1.09012 15.7759 3.90846C19.6763 6.72667 20.5643 12.1866 17.7594 16.1036C14.9543 20.0204 9.5184 20.911 5.61773 18.0926Z" stroke="url(#paint0_linear_2_1319)" stroke-width="0.882534" stroke-miterlimit="10"/>
<path d="M5.61773 18.0926C1.7173 15.2743 0.829356 9.81439 3.6344 5.8975C6.43928 1.98069 11.8754 1.09012 15.7759 3.90846C19.6763 6.72667 20.5643 12.1866 17.7594 16.1036C14.9543 20.0204 9.5184 20.911 5.61773 18.0926Z" stroke="#AEAEAE" stroke-width="0.882534" stroke-miterlimit="10"/>
<path d="M13.7949 15.1639C14.3458 15.0023 14.7347 14.6105 14.8939 14.057L14.9409 13.8944L14.947 9.53102C14.9516 6.26336 14.9472 5.14732 14.9291 5.0864C14.91 5.02183 14.8797 4.96766 14.84 4.92486C14.7817 4.88893 14.7116 4.86999 14.6322 4.87012C14.5774 4.87012 14.3872 4.8965 14.2099 4.92877C13.425 5.07167 8.79889 5.99303 8.71987 6.02226C8.59763 6.06745 8.47654 6.17483 8.41908 6.28879L8.37039 6.38535C8.37039 6.38535 8.34739 13.2246 8.31195 13.3016C8.25807 13.4188 8.13843 13.5298 8.02812 13.5651C7.97585 13.582 7.76928 13.6283 7.56876 13.6681C6.64056 13.8529 6.29586 13.9859 6.00426 14.2722C5.83864 14.4348 5.71599 14.6567 5.66298 14.8895C5.61227 15.1121 5.62923 15.4451 5.70146 15.6477C5.77715 15.8595 5.89898 16.0404 6.05826 16.1827C6.20305 16.2943 6.37398 16.3773 6.56615 16.4266C6.99102 16.5354 7.78648 16.4144 8.19313 16.1792C8.36319 16.0808 8.58195 15.8745 8.69571 15.7048C8.74082 15.6376 8.80848 15.5024 8.84639 15.4042C8.97883 15.0602 8.98299 8.93328 8.99991 8.85611C9.02864 8.72515 9.11815 8.62929 9.2415 8.59673C9.35267 8.56755 13.8072 7.68685 13.9326 7.66928C14.0429 7.65397 14.147 7.68949 14.2039 7.75954C14.2376 7.77765 14.2661 7.80205 14.2861 7.8321C14.3223 7.88597 14.3244 7.99249 14.3298 9.93231C14.336 12.165 14.3388 12.1127 14.2174 12.2536C14.1291 12.356 14.0189 12.3957 13.5661 12.4881C12.8773 12.6287 12.6416 12.6955 12.3777 12.8242C12.0483 12.9852 11.8654 13.1615 11.724 13.4543C11.624 13.6614 11.5867 13.8167 11.587 14.0228C11.5876 14.3915 11.7148 14.6795 12.0016 14.9615C12.0281 14.9875 12.054 15.0116 12.0802 15.0343C12.2247 15.1461 12.3721 15.2135 12.5574 15.2561C12.8369 15.3205 13.4057 15.2781 13.7949 15.1639Z" fill="url(#paint1_linear_2_1319)"/>
<path d="M13.7949 15.1639C14.3458 15.0023 14.7347 14.6105 14.8939 14.057L14.9409 13.8944L14.947 9.53102C14.9516 6.26336 14.9472 5.14732 14.9291 5.0864C14.91 5.02183 14.8797 4.96766 14.84 4.92486C14.7817 4.88893 14.7116 4.86999 14.6322 4.87012C14.5774 4.87012 14.3872 4.8965 14.2099 4.92877C13.425 5.07167 8.79889 5.99303 8.71987 6.02226C8.59763 6.06745 8.47654 6.17483 8.41908 6.28879L8.37039 6.38535C8.37039 6.38535 8.34739 13.2246 8.31195 13.3016C8.25807 13.4188 8.13843 13.5298 8.02812 13.5651C7.97585 13.582 7.76928 13.6283 7.56876 13.6681C6.64056 13.8529 6.29586 13.9859 6.00426 14.2722C5.83864 14.4348 5.71599 14.6567 5.66298 14.8895C5.61227 15.1121 5.62923 15.4451 5.70146 15.6477C5.77715 15.8595 5.89898 16.0404 6.05826 16.1827C6.20305 16.2943 6.37398 16.3773 6.56615 16.4266C6.99102 16.5354 7.78648 16.4144 8.19313 16.1792C8.36319 16.0808 8.58195 15.8745 8.69571 15.7048C8.74082 15.6376 8.80848 15.5024 8.84639 15.4042C8.97883 15.0602 8.98299 8.93328 8.99991 8.85611C9.02864 8.72515 9.11815 8.62929 9.2415 8.59673C9.35267 8.56755 13.8072 7.68685 13.9326 7.66928C14.0429 7.65397 14.147 7.68949 14.2039 7.75954C14.2376 7.77765 14.2661 7.80205 14.2861 7.8321C14.3223 7.88597 14.3244 7.99249 14.3298 9.93231C14.336 12.165 14.3388 12.1127 14.2174 12.2536C14.1291 12.356 14.0189 12.3957 13.5661 12.4881C12.8773 12.6287 12.6416 12.6955 12.3777 12.8242C12.0483 12.9852 11.8654 13.1615 11.724 13.4543C11.624 13.6614 11.5867 13.8167 11.587 14.0228C11.5876 14.3915 11.7148 14.6795 12.0016 14.9615C12.0281 14.9875 12.054 15.0116 12.0802 15.0343C12.2247 15.1461 12.3721 15.2135 12.5574 15.2561C12.8369 15.3205 13.4057 15.2781 13.7949 15.1639Z" fill="#AEAEAE"/>
<defs>
<linearGradient id="paint0_linear_2_1319" x1="5.02507" y1="3.96833" x2="16.3684" y2="18.031" gradientUnits="userSpaceOnUse">
<stop stop-color="#AEAEAE"/>
<stop offset="0.1505" stop-color="#FF5C6D"/>
<stop offset="0.1694" stop-color="#FF5E73"/>
<stop offset="0.2476" stop-color="#FF6385"/>
<stop offset="0.3026" stop-color="#FF658C"/>
<stop offset="0.3685" stop-color="#E4729F"/>
<stop offset="0.4329" stop-color="#D17CAD"/>
<stop offset="0.4772" stop-color="#CA7FB2"/>
<stop offset="0.5528" stop-color="#9D6CFF"/>
<stop offset="0.5934" stop-color="#9870FF" stop-opacity="0.9882"/>
<stop offset="0.6432" stop-color="#897AFE" stop-opacity="0.9725"/>
<stop offset="0.6979" stop-color="#708CFE" stop-opacity="0.9529"/>
<stop offset="0.7556" stop-color="#4DA4FD" stop-opacity="0.9333"/>
<stop offset="0.8022" stop-color="#2CBCFC" stop-opacity="0.9176"/>
<stop offset="1" stop-color="#00C7FF"/>
</linearGradient>
<linearGradient id="paint1_linear_2_1319" x1="5.48126" y1="4.11466" x2="15.9925" y2="17.7576" gradientUnits="userSpaceOnUse">
<stop stop-color="#FF5E4E"/>
<stop offset="0.249" stop-color="#FF5C6D"/>
<stop offset="0.3765" stop-color="#FF658C"/>
<stop offset="0.497" stop-color="#CA7FB2"/>
<stop offset="0.6267" stop-color="#9D6CFF"/>
<stop offset="0.7628" stop-color="#2CBCFC" stop-opacity="0.9176"/>
<stop offset="1" stop-color="#00C7FF"/>
</linearGradient>
</defs>
</svg>
