<svg width="194" height="42" viewBox="0 0 194 42" fill="none" xmlns="http://www.w3.org/2000/svg">
<path d="M25.5973 2.617C27.061 3.22591 28.3541 4.16922 29.368 5.36778C30.2163 6.3599 30.8983 7.4774 31.3884 8.67858C31.9075 9.99859 32.1611 11.4042 32.1352 12.8182C32.1208 14.7446 31.6237 16.6382 30.6874 18.3332C29.6751 20.1776 27.957 21.5549 25.9088 22.1637C27.7644 22.894 29.0839 23.9289 29.8536 25.2729C30.6233 26.6169 31.0173 28.6688 31.0173 31.4286V34.0718C30.9765 35.2944 31.0501 36.5181 31.2372 37.7276C31.3193 38.1872 31.5002 38.6245 31.768 39.0106C32.0357 39.3968 32.3842 39.723 32.7904 39.9677V40.9533H23.5081C23.2515 40.0841 23.0729 39.3808 22.9629 38.8476C22.7417 37.7297 22.6221 36.5948 22.6055 35.4562L22.5506 31.7959C22.52 29.2871 22.0771 27.6145 21.2219 26.7782C20.3667 25.9419 18.7692 25.5238 16.4296 25.5238H8.21478V40.9533H0V1.60449H19.2427C22.0008 1.66124 24.119 1.99874 25.5973 2.617ZM8.21478 8.44114V19.0142H17.268C19.064 19.0142 20.4155 18.8036 21.3135 18.3735C22.9049 17.6298 23.699 16.1529 23.696 13.9427C23.696 11.5533 22.9324 9.95094 21.4052 9.13556C20.5408 8.67261 19.2442 8.44114 17.5154 8.44114H8.21478Z" fill="#EEC858"/>
<path d="M50.4569 2.34766H58.7587L72.0545 40.9572H62.9371L54.6628 13.6151H54.5528L46.2785 40.9572H37.1611L50.4569 2.34766Z" fill="#EEC858"/>
<path d="M85.2184 40.9578H76.8662V1.60449H85.2184V40.9578Z" fill="#EEC858"/>
<path d="M99.1589 28.8101C99.4185 30.6021 99.9286 31.9462 100.689 32.8422C102.079 34.4729 104.47 35.2883 107.864 35.2883C109.533 35.337 111.2 35.1206 112.798 34.6477C115.199 33.8263 116.398 32.3046 116.395 30.0824C116.41 29.4703 116.254 28.8657 115.944 28.3337C115.634 27.8017 115.182 27.3623 114.635 27.0628C113.456 26.3699 111.593 25.7561 109.046 25.2215L104.657 24.2717C100.381 23.3458 97.4392 22.3393 95.8326 21.2521C93.1203 19.4392 91.7642 16.6018 91.7642 12.7399C91.7273 11.0799 92.0645 9.43234 92.7518 7.91403C93.4391 6.39572 94.4596 5.04389 95.741 3.95444C98.3983 1.62479 102.296 0.459961 107.433 0.459961C111.731 0.459961 115.396 1.55908 118.429 3.75732C121.462 5.95556 123.052 9.14838 123.198 13.3358H115.117C114.97 10.9703 113.887 9.28876 111.868 8.29119C110.3 7.58493 108.586 7.24592 106.861 7.30108C104.64 7.30108 102.867 7.72819 101.541 8.5824C100.916 8.95518 100.403 9.4831 100.053 10.1126C99.7042 10.742 99.5315 11.4507 99.5529 12.1665C99.5346 12.8187 99.7101 13.462 100.058 14.0186C100.406 14.5752 100.912 15.0212 101.514 15.3026C102.354 15.7655 104.136 16.3091 106.861 16.9333L113.921 18.5596C117.018 19.2734 119.339 20.2262 120.885 21.4179C123.282 23.2667 124.481 25.9458 124.481 29.4552C124.512 31.1668 124.144 32.8629 123.406 34.4152C122.668 35.9674 121.579 37.3353 120.22 38.4154C117.374 40.8048 113.357 41.9995 108.171 41.9995C102.875 41.9995 98.7083 40.8287 95.6723 38.4871C92.6362 36.1455 91.1182 32.9288 91.1182 28.837L99.1589 28.8101Z" fill="#EEC858"/>
<path d="M138.054 40.9578H129.702V1.60449H138.054V40.9578Z" fill="#EEC858"/>
<path d="M145.781 1.60449H154.596L170.572 29.0452V1.60449H178.42V40.9578H170.004L153.616 13.0332V40.9578H145.781V1.60449Z" fill="#EEC858"/>
<path d="M194 40.9578H185.62V1.60449H194V40.9578Z" fill="#EEC858"/>
</svg>
