<svg width="18" height="18" viewBox="0 0 18 18" fill="none" xmlns="http://www.w3.org/2000/svg">
<g clip-path="url(#clip0_2_373)">
<path d="M7.22587 3.375C6.23476 3.37659 5.26888 3.68768 4.46313 4.26481C3.65738 4.84195 3.05199 5.65632 2.7315 6.59419C1.188 6.81919 0 8.14162 0 9.74588C0 11.502 1.43044 12.9375 3.1995 12.9375H11.3816C12.8565 12.9375 14.0625 11.7382 14.0625 10.2634C14.061 9.65488 13.8521 9.06508 13.4702 8.5913C13.0884 8.11752 12.5564 7.78807 11.9621 7.65731C11.7253 5.25994 9.693 3.375 7.22587 3.375ZM7.22813 4.5C9.21656 4.5 10.8293 6.13012 10.8293 8.1225C10.8293 8.51231 10.7668 8.89762 10.647 9.26437C10.3905 10.0569 11.5706 10.3837 11.7984 9.64294C11.8783 9.40781 11.9408 9.16144 11.9807 8.9145C12.2624 9.02288 12.5046 9.2141 12.6754 9.46294C12.8462 9.71178 12.9376 10.0065 12.9375 10.3084C12.9371 10.7072 12.7784 11.0895 12.4965 11.3715C12.2145 11.6534 11.8322 11.8121 11.4334 11.8125H3.15337C2.61507 11.8121 2.09898 11.5978 1.7186 11.2169C1.33822 10.836 1.1247 10.3196 1.125 9.78131C1.125 8.65631 2.03625 7.74844 3.15281 7.74844C3.68831 7.74844 4.19625 7.96219 4.57819 8.34637C5.148 8.92013 6.01481 8.05275 5.43881 7.47281C5.02726 7.06386 4.51374 6.77252 3.95156 6.62906C4.23512 5.99666 4.69504 5.45946 5.27619 5.08183C5.85734 4.70421 6.53507 4.50219 7.22813 4.5ZM16.5763 6.7545C16.1392 6.69656 15.6746 7.19494 16.0014 7.67081C16.5414 8.48175 16.8297 9.43422 16.83 10.4085C16.8283 11.3843 16.5402 12.3382 16.0014 13.1518C15.7314 13.5439 16.029 14.0625 16.4818 14.0625C16.6753 14.0625 16.8581 13.9686 16.974 13.8038C17.6461 12.799 18.0033 11.6167 18 10.4079C18 9.18731 17.6467 8.01169 16.9729 7.01887C16.8638 6.85462 16.722 6.77306 16.5763 6.75394V6.7545ZM14.8933 7.70625C14.4534 7.64887 13.9916 8.14275 14.3184 8.61919C14.6824 9.14906 14.8641 9.76781 14.8641 10.4079C14.8686 11.0441 14.6782 11.6664 14.3184 12.1911C14.0541 12.5775 14.3297 13.1017 14.8039 13.1017C14.9968 13.1017 15.1791 13.0191 15.2949 12.8537C15.7812 12.131 16.0392 11.279 16.0357 10.4079C16.0357 9.53044 15.786 8.68612 15.2949 7.96894C15.1836 7.80581 15.0396 7.72537 14.8933 7.70625Z" fill="#A7A7A7"/>
</g>
<defs>
<clipPath id="clip0_2_373">
<rect width="18" height="18" fill="white"/>
</clipPath>
</defs>
</svg>
