<svg width="18" height="18" viewBox="0 0 18 18" fill="none" xmlns="http://www.w3.org/2000/svg">
<g clip-path="url(#clip0_2_370)">
<path fill-rule="evenodd" clip-rule="evenodd" d="M9 1C4.58488 1 1 4.58008 1 9C1 13.4199 4.58008 17 9 17C13.4199 17 17 13.4199 17 9C17 4.58008 13.4199 1 9 1ZM6.44691 8.16017C6.03419 6.10138 6.83563 4.38332 9.0048 4.36413C10.5549 4.35453 11.9658 5.36233 11.5819 8.0162C11.5339 8.34733 11.6923 8.30894 11.9418 8.25135C12.1482 8.20816 12.3593 8.16017 12.5657 8.11698C12.6665 8.13617 12.7433 8.17456 12.796 8.22735C13.0936 8.54409 12.4937 8.78884 12.2681 8.87522C11.9706 8.9856 11.6443 9.09118 11.6875 9.44151C11.7019 9.58068 11.7499 9.71506 11.8026 9.85423C12.0858 10.5357 12.8344 11.174 13.5447 11.3755C13.9142 11.4811 14.1014 11.5243 13.5399 11.8314C13.2855 11.9706 12.9688 12.0474 12.5561 12.105C12.4985 13.1944 12.0858 12.4937 11.1932 12.6761C11.0828 12.7001 10.9628 12.7145 10.8332 12.772C10.6029 12.8728 10.3725 13.0696 10.1086 13.2232C9.31194 13.6839 8.59208 13.7127 7.81464 13.1656C7.36353 12.8488 6.93641 12.5369 6.13497 12.6329C5.57349 12.7049 5.61188 12.8776 5.41992 12.0858C4.71446 11.961 4.08098 11.8266 4.11938 11.4379C5.04079 11.2412 5.62628 10.7612 6.11578 9.97421C6.30774 9.66227 6.55249 9.20636 6.04379 8.9904C5.90942 8.93281 5.73185 8.90402 5.5255 8.82723C5.34313 8.76485 5.17996 8.64967 5.14157 8.56809C5.04079 8.33773 5.20876 8.13617 5.42472 8.11698C5.83743 8.08818 6.03419 8.35693 6.28374 8.27534C6.34133 8.25615 6.39412 8.22256 6.46131 8.16497H6.45651L6.44691 8.16017Z" fill="#A7A7A7"/>
</g>
<defs>
<clipPath id="clip0_2_370">
<rect width="16" height="16" fill="white" transform="matrix(-1 0 0 1 17 1)"/>
</clipPath>
</defs>
</svg>
