<svg width="77" height="30" viewBox="0 0 77 30" fill="none" xmlns="http://www.w3.org/2000/svg">
<rect x="0.333008" y="3" width="68" height="24" rx="12" fill="#EEC858"/>
<g filter="url(#filter0_b_2_1301)">
<circle cx="61.333" cy="15" r="15" fill="white" fill-opacity="0.1"/>
</g>
<circle cx="61.333" cy="15" r="11" fill="white"/>
<path d="M64.9762 14.152C65.5851 14.5326 65.8896 14.7229 65.8896 15C65.8896 15.2771 65.5851 15.4674 64.9762 15.848L59.863 19.0438C59.1865 19.4666 58.8482 19.678 58.5906 19.5352C58.333 19.3924 58.333 18.9935 58.333 18.1958L58.333 11.8042C58.333 11.0065 58.333 10.6076 58.5906 10.4648C58.8482 10.322 59.1865 10.5334 59.863 10.9562L64.9762 14.152Z" fill="#EEC858"/>
<defs>
<filter id="filter0_b_2_1301" x="42.333" y="-4" width="38" height="38" filterUnits="userSpaceOnUse" color-interpolation-filters="sRGB">
<feFlood flood-opacity="0" result="BackgroundImageFix"/>
<feGaussianBlur in="BackgroundImageFix" stdDeviation="2"/>
<feComposite in2="SourceAlpha" operator="in" result="effect1_backgroundBlur_2_1301"/>
<feBlend mode="normal" in="SourceGraphic" in2="effect1_backgroundBlur_2_1301" result="shape"/>
</filter>
</defs>
</svg>
