<svg width="17" height="17" viewBox="0 0 17 17" fill="none" xmlns="http://www.w3.org/2000/svg">
<g clip-path="url(#clip0_2_348)">
<path d="M8.00914 16.987C6.35381 16.987 4.74381 16.469 3.37314 15.479C2.5213 14.8662 1.79916 14.0909 1.24834 13.1978C0.697529 12.3046 0.328936 11.3113 0.163811 10.275C-0.00782286 9.23903 0.0269755 8.17935 0.266205 7.15688C0.505435 6.1344 0.94438 5.16928 1.55781 4.317C2.1652 3.46243 2.93662 2.73731 3.8271 2.18391C4.71758 1.63051 5.70931 1.25989 6.74448 1.09366C7.77665 0.92242 8.83257 0.958247 9.85076 1.19906C10.8689 1.43987 11.829 1.88086 12.6751 2.49633C13.5271 3.10925 14.2493 3.88467 14.8002 4.77792C15.3511 5.67118 15.7198 6.66461 15.8851 7.701C16.0566 8.73697 16.0218 9.79661 15.7825 10.8191C15.5433 11.8415 15.1044 12.8066 14.4911 13.659C13.8836 14.5134 13.1122 15.2385 12.2217 15.7918C11.3313 16.3452 10.3396 16.7159 9.30448 16.8823C8.87619 16.9518 8.44303 16.9868 8.00914 16.987ZM3.69314 15.0363C4.48108 15.6094 5.37512 16.02 6.32324 16.2443C7.27135 16.4687 8.25461 16.5022 9.21581 16.343C10.1799 16.1878 11.1035 15.8425 11.9328 15.327C12.7621 14.8115 13.4806 14.1362 14.0465 13.3403C16.4351 10.005 15.6765 5.33833 12.3545 2.93833C11.5665 2.36528 10.6725 1.95464 9.72438 1.73031C8.77627 1.50599 7.79301 1.47246 6.83181 1.63166C5.86787 1.78697 4.94444 2.13242 4.11524 2.64791C3.28604 3.16339 2.56764 3.83863 2.00181 4.63433C-0.387523 7.97033 0.371811 12.6363 3.69314 15.0363ZM10.7638 12.6683C10.9971 12.6042 11.2096 12.4801 11.3801 12.3084C11.5506 12.1367 11.6733 11.9234 11.7358 11.6897L11.7771 11.5457L11.7825 7.68833C11.7865 4.799 11.7825 3.81233 11.7665 3.75833C11.7516 3.70534 11.7247 3.65651 11.6878 3.61566C11.6323 3.58239 11.5685 3.56552 11.5038 3.567C11.4551 3.567 11.2871 3.59033 11.1305 3.619C10.4365 3.74566 6.34648 4.55966 6.27648 4.58566C6.16301 4.63092 6.06892 4.7144 6.01048 4.82166L5.96714 4.907C5.96714 4.907 5.94648 10.9537 5.91514 11.0217C5.86418 11.1284 5.77458 11.2118 5.66448 11.255C5.53019 11.2899 5.39478 11.3204 5.25848 11.3463C4.43781 11.5097 4.13314 11.627 3.87514 11.8803C3.72848 12.0243 3.62048 12.2203 3.57314 12.427C3.52848 12.623 3.54314 12.9177 3.60714 13.097C3.67381 13.2843 3.78181 13.4443 3.92248 13.5703C4.05048 13.669 4.20181 13.7423 4.37181 13.7863C4.74714 13.8823 5.45048 13.7757 5.81048 13.5677C5.98469 13.4583 6.13576 13.3158 6.25514 13.1483C6.29514 13.089 6.35514 12.9697 6.38848 12.8823C6.50581 12.5783 6.50914 7.16166 6.52448 7.09366C6.53473 7.03919 6.56022 6.98873 6.59797 6.94814C6.63573 6.90755 6.68421 6.87849 6.73781 6.86433C6.83581 6.83766 10.7745 6.05966 10.8858 6.04433C10.9831 6.031 11.0751 6.06233 11.1258 6.12433C11.1551 6.13915 11.1801 6.16118 11.1985 6.18833C11.2305 6.235 11.2325 6.33033 11.2371 8.045C11.2425 10.0183 11.2451 9.973 11.1378 10.0977C11.0598 10.1883 10.9625 10.2237 10.5618 10.3043C9.95248 10.4297 9.74448 10.4883 9.51114 10.6023C9.21981 10.7443 9.05848 10.8997 8.93314 11.159C8.85156 11.3139 8.80986 11.4866 8.81181 11.6617C8.81248 11.9883 8.92448 12.2423 9.17848 12.4917C9.20181 12.5143 9.22448 12.5357 9.24781 12.5563C9.37581 12.655 9.50581 12.715 9.66981 12.7523C9.91648 12.807 10.4191 12.769 10.7638 12.6683Z" fill="#A7A7A7"/>
</g>
<defs>
<clipPath id="clip0_2_348">
<rect width="16" height="16" fill="white" transform="translate(0.0244141 0.987305)"/>
</clipPath>
</defs>
</svg>
