<svg width="19" height="19" viewBox="0 0 19 19" fill="none" xmlns="http://www.w3.org/2000/svg">
<g clip-path="url(#clip0_2_352)">
<path d="M8.69441 7.63953V13.737H15.2644C16.6519 13.6395 17.2744 12.7845 17.2744 11.7345C17.2744 10.6245 16.4344 9.73203 15.3094 9.73203C15.0244 9.73203 14.7844 9.79203 14.5369 9.89703C14.3569 8.14203 12.8644 6.76953 11.0269 6.76953C10.1494 6.76953 9.31691 7.09953 8.69441 7.63953ZM8.03441 8.40453C7.80941 8.26953 7.56941 8.16453 7.30691 8.11203V13.737H8.34941V7.99203C8.23691 8.11203 8.13191 8.26203 8.03441 8.40453ZM6.27191 7.99953V13.737H6.96191V8.02203C6.81941 7.99953 6.67691 7.99203 6.52691 7.99203C6.43691 7.99203 6.35441 7.99203 6.27191 7.99953ZM4.89941 8.48703V13.737H5.58191V8.14203C5.33441 8.22453 5.10191 8.34453 4.89941 8.48703ZM3.64691 10.362C3.60191 10.362 3.55691 10.317 3.50441 10.2945V13.737H4.19441V9.13203C3.91691 9.49203 3.72941 9.91953 3.64691 10.362ZM2.11691 10.152V13.6695C2.27441 13.7145 2.45441 13.737 2.64941 13.737H2.81441V10.092C2.75441 10.0845 2.69441 10.077 2.64941 10.077C2.45441 10.077 2.27441 10.107 2.11691 10.152ZM0.774414 11.907C0.774414 12.4695 1.02941 12.9645 1.42691 13.302V10.5195C1.02941 10.8495 0.774414 11.352 0.774414 11.907Z" fill="#A7A7A7"/>
</g>
<defs>
<clipPath id="clip0_2_352">
<rect width="18" height="18" fill="white" transform="translate(0.0244141 0.987305)"/>
</clipPath>
</defs>
</svg>
