<svg width="18" height="19" viewBox="0 0 18 19" fill="none" xmlns="http://www.w3.org/2000/svg">
<path d="M13.425 9.1623C11.025 7.7373 7.0125 7.5873 4.725 8.2998C4.35 8.4123 3.975 8.1873 3.8625 7.8498C3.75 7.4748 3.975 7.0998 4.3125 6.9873C6.975 6.1998 11.3625 6.3498 14.1375 7.9998C14.475 8.1873 14.5875 8.6373 14.4 8.9748C14.2125 9.2373 13.7625 9.3498 13.425 9.1623ZM13.35 11.2623C13.1625 11.5248 12.825 11.6373 12.5625 11.4498C10.5375 10.2123 7.4625 9.83731 5.1 10.5873C4.8 10.6623 4.4625 10.5123 4.3875 10.2123C4.3125 9.9123 4.4625 9.5748 4.7625 9.4998C7.5 8.67481 10.875 9.0873 13.2 10.5123C13.425 10.6248 13.5375 10.9998 13.35 11.2623ZM12.45 13.3248C12.3 13.5498 12.0375 13.6248 11.8125 13.4748C10.05 12.3873 7.8375 12.1623 5.2125 12.7623C4.95 12.8373 4.725 12.6498 4.65 12.4248C4.575 12.1623 4.7625 11.9373 4.9875 11.8623C7.8375 11.2248 10.3125 11.4873 12.2625 12.6873C12.525 12.7998 12.5625 13.0998 12.45 13.3248ZM9 2.4873C8.01509 2.4873 7.03982 2.6813 6.12987 3.05821C5.21993 3.43512 4.39314 3.98756 3.6967 4.684C2.29018 6.09053 1.5 7.99818 1.5 9.9873C1.5 11.9764 2.29018 13.8841 3.6967 15.2906C4.39314 15.987 5.21993 16.5395 6.12987 16.9164C7.03982 17.2933 8.01509 17.4873 9 17.4873C10.9891 17.4873 12.8968 16.6971 14.3033 15.2906C15.7098 13.8841 16.5 11.9764 16.5 9.9873C16.5 9.00239 16.306 8.02712 15.9291 7.11718C15.5522 6.20724 14.9997 5.38044 14.3033 4.684C13.6069 3.98756 12.7801 3.43512 11.8701 3.05821C10.9602 2.6813 9.98491 2.4873 9 2.4873Z" fill="#A7A7A7"/>
</svg>
