<svg width="18" height="13" viewBox="0 0 18 13" fill="none" xmlns="http://www.w3.org/2000/svg">
<path fill-rule="evenodd" clip-rule="evenodd" d="M16.0328 0.379598C16.8083 0.590798 17.4187 1.20756 17.6247 1.98991C18 3.40937 18 6.37248 18 6.37248C18 6.37248 18 9.3356 17.6247 10.7551C17.416 11.5395 16.8062 12.157 16.0328 12.3654C14.6296 12.745 9 12.745 9 12.745C9 12.745 3.37318 12.745 1.96717 12.3654C1.19168 12.1542 0.581272 11.5374 0.37526 10.7551C0 9.3356 0 6.37248 0 6.37248C0 6.37248 0 3.40937 0.37526 1.98991C0.584046 1.20545 1.19376 0.587991 1.96717 0.379598C3.37318 0 9 0 9 0C9 0 14.6296 0 16.0328 0.379598ZM11.8808 6.37353L7.20423 9.10509V3.64196L11.8808 6.37353Z" fill="#A7A7A7"/>
</svg>
