<svg width="400" height="93" viewBox="0 0 400 93" fill="none" xmlns="http://www.w3.org/2000/svg">
<path d="M9.88048 4.5684V18.3798C12.9615 18.0611 17.4236 17.9548 20.9296 17.9548C27.1979 17.9548 55.6707 17.9548 61.5139 17.9548C65.4449 17.9548 70.4382 18.1673 73.2005 18.3798V4.5684C70.332 4.99336 65.1262 5.20585 61.7264 5.20585C55.5644 5.20585 27.6228 5.20585 20.9296 5.20585C17.3174 5.20585 12.749 4.99336 9.88048 4.5684ZM82.2311 35.4847L72.7756 29.5352C71.2882 30.2789 68.4197 30.7039 64.9137 30.7039C57.6892 30.7039 19.6547 30.7039 12.4303 30.7039C9.03054 30.7039 4.56839 30.3851 0 29.9602V43.7716C4.46215 43.4529 9.77424 43.3466 12.4303 43.3466C21.8858 43.3466 58.3267 43.3466 63.6388 43.3466C61.8327 49.1899 58.4329 55.8831 52.8021 61.6202C44.6215 70.0133 31.9788 76.919 15.9363 80.3187L26.5604 92.3241C40.1594 88.3931 53.7583 81.2749 64.4887 69.2696C72.3506 60.5578 76.919 50.1461 80.2125 39.8406C80.5312 38.7782 81.4874 36.8659 82.2311 35.4847Z" fill="#FCFBF9"/>
<path d="M99.0173 44.834L105.604 58.2204C122.39 53.2271 139.602 45.259 151.607 38.1408C164.143 30.5976 177.105 20.6109 186.773 10.8367L175.299 0C168.393 8.3931 156.282 19.0173 145.445 25.7105C133.546 33.0412 118.035 39.9469 99.0173 44.834ZM143.214 32.6162V76.919C143.214 81.5936 142.789 88.2869 142.364 90.8367H159.256C158.513 88.1806 158.3 81.5936 158.3 76.919V29.004L143.214 32.6162Z" fill="#FCFBF9"/>
<path d="M230.013 2.44356L222.258 14.1301C229.27 18.0611 240.425 25.2855 246.268 29.4289L254.236 17.6361C248.712 13.8114 237.025 6.26826 230.013 2.44356ZM210.359 77.8752L218.327 91.8991C227.676 90.1992 242.975 84.8871 253.705 78.7251C271.129 68.7384 286.109 55.2457 295.989 40.5843L287.809 26.1355C279.309 41.328 264.542 55.8831 246.481 65.9761C234.9 72.3506 222.151 75.8566 210.359 77.8752ZM213.652 26.6667L205.896 38.4595C213.121 42.178 224.064 49.4024 230.12 53.5458L237.875 41.6468C232.457 37.822 220.77 30.4914 213.652 26.6667Z" fill="#FCFBF9"/>
<path d="M322.868 13.9177V29.3227C326.481 29.2165 331.368 29.004 335.405 29.004C341.355 29.004 373.758 29.004 379.389 29.004C383.108 29.004 388.101 29.2165 391.182 29.3227V13.9177C388.101 14.3426 383.639 14.5551 379.389 14.5551C373.546 14.5551 344.329 14.5551 335.405 14.5551C331.687 14.5551 326.799 14.3426 322.868 13.9177ZM313.944 65.9761V82.2311C317.981 81.8061 323.081 81.4874 327.331 81.4874C334.024 81.4874 381.62 81.4874 388.313 81.4874C391.394 81.4874 396.175 81.8061 400 82.2311V65.9761C396.388 66.2948 391.819 66.6135 388.313 66.6135C381.62 66.6135 334.024 66.6135 327.331 66.6135C323.081 66.6135 318.088 66.1886 313.944 65.9761Z" fill="#FCFBF9"/>
</svg>
