<svg width="19" height="19" viewBox="0 0 19 19" fill="none" xmlns="http://www.w3.org/2000/svg">
<g clip-path="url(#clip0_2_356)">
<path d="M17.8603 8.13572L15.3291 10.667C15.2768 10.7193 15.2148 10.7608 15.1465 10.7891C15.0782 10.8174 15.005 10.8319 14.9311 10.8319C14.8572 10.8319 14.784 10.8174 14.7157 10.7891C14.6474 10.7608 14.5854 10.7193 14.5331 10.667L12.0019 8.13572L11.978 8.109L11.9541 8.13572L9.53884 10.5502L11.9541 12.9648C12.0064 13.017 12.0479 13.0791 12.0762 13.1473C12.1045 13.2156 12.119 13.2888 12.119 13.3627C12.119 13.4367 12.1045 13.5099 12.0762 13.5782C12.0479 13.6464 12.0064 13.7085 11.9541 13.7607L9.42282 16.292C9.37058 16.3443 9.30855 16.3858 9.24026 16.4141C9.17197 16.4424 9.09878 16.4569 9.02486 16.4569C8.95093 16.4569 8.87774 16.4424 8.80945 16.4141C8.74117 16.3858 8.67913 16.3443 8.62689 16.292L6.09564 13.7607C6.04334 13.7085 6.00185 13.6464 5.97354 13.5782C5.94523 13.5099 5.93066 13.4367 5.93066 13.3627C5.93066 13.2888 5.94523 13.2156 5.97354 13.1473C6.00185 13.0791 6.04334 13.017 6.09564 12.9648L8.51087 10.5502L6.09564 8.13572L6.07173 8.109L6.04783 8.13572L3.51658 10.667C3.46433 10.7193 3.4023 10.7608 3.33401 10.7891C3.26572 10.8174 3.19253 10.8319 3.11861 10.8319C3.04469 10.8319 2.97149 10.8174 2.9032 10.7891C2.83492 10.7608 2.77288 10.7193 2.72064 10.667L0.189388 8.13572C0.137089 8.08348 0.0955991 8.02144 0.0672917 7.95315C0.0389843 7.88486 0.0244141 7.81167 0.0244141 7.73775C0.0244141 7.66383 0.0389843 7.59063 0.0672917 7.52234C0.0955991 7.45406 0.137089 7.39202 0.189388 7.33978L2.72064 4.80853C2.77288 4.75623 2.83492 4.71474 2.9032 4.68643C2.97149 4.65813 3.04469 4.64355 3.11861 4.64355C3.19253 4.64355 3.26572 4.65813 3.33401 4.68643C3.4023 4.71474 3.46433 4.75623 3.51658 4.80853L6.04783 7.33978L6.07173 7.3665L6.09564 7.33978L8.62689 4.80853C8.67913 4.75623 8.74117 4.71474 8.80945 4.68643C8.87774 4.65813 8.95093 4.64355 9.02486 4.64355C9.09878 4.64355 9.17197 4.65813 9.24026 4.68643C9.30855 4.71474 9.37058 4.75623 9.42282 4.80853L11.9541 7.33978L11.978 7.3665L12.0019 7.33978L14.5331 4.80853C14.5854 4.75623 14.6474 4.71474 14.7157 4.68643C14.784 4.65813 14.8572 4.64355 14.9311 4.64355C15.005 4.64355 15.0782 4.65813 15.1465 4.68643C15.2148 4.71474 15.2768 4.75623 15.3291 4.80853L17.8603 7.33978C17.9126 7.39202 17.9541 7.45406 17.9824 7.52234C18.0107 7.59063 18.0253 7.66383 18.0253 7.73775C18.0253 7.81167 18.0107 7.88486 17.9824 7.95315C17.9541 8.02144 17.9126 8.08348 17.8603 8.13572Z" fill="#A7A7A7"/>
</g>
<defs>
<clipPath id="clip0_2_356">
<rect width="18" height="18" fill="white" transform="translate(0.0244141 0.987305)"/>
</clipPath>
</defs>
</svg>
