<svg width="18" height="18" viewBox="0 0 18 18" fill="none" xmlns="http://www.w3.org/2000/svg">
<path d="M12.4501 4.365C11.9374 3.77972 11.6549 3.02807 11.6551 2.25H9.33762V11.55C9.31974 12.0533 9.10727 12.53 8.74494 12.8797C8.38261 13.2294 7.8987 13.4249 7.39512 13.425C6.33012 13.425 5.44512 12.555 5.44512 11.475C5.44512 10.185 6.69012 9.2175 7.97262 9.615V7.245C5.38512 6.9 3.12012 8.91 3.12012 11.475C3.12012 13.9725 5.19012 15.75 7.38762 15.75C9.74262 15.75 11.6551 13.8375 11.6551 11.475V6.7575C12.5949 7.43239 13.7231 7.79449 14.8801 7.7925V5.475C14.8801 5.475 13.4701 5.5425 12.4501 4.365Z" fill="#A7A7A7"/>
</svg>
