<svg width="500" height="108" viewBox="0 0 500 108" fill="none" xmlns="http://www.w3.org/2000/svg">
<path d="M65.9724 5.55877C69.745 7.12813 73.0776 9.55934 75.6906 12.6484C77.8772 15.2054 79.6348 18.0856 80.898 21.1814C82.2359 24.5835 82.8895 28.2062 82.8227 31.8505C82.7855 36.8155 81.5043 41.6959 79.0913 46.0645C76.4823 50.8181 72.0541 54.3678 66.7754 55.9369C71.5577 57.819 74.9585 60.4863 76.9423 63.9503C78.9261 67.4143 79.9415 72.7027 79.9415 79.8154V86.628C79.8364 89.779 80.0261 92.9328 80.5083 96.05C80.7199 97.2345 81.1861 98.3616 81.8762 99.3568C82.5662 100.352 83.4644 101.193 84.5113 101.823V104.364H60.5879C59.9266 102.124 59.4661 100.311 59.1827 98.9367C58.6126 96.0554 58.3044 93.1303 58.2617 90.1959L58.12 80.7622C58.0413 74.2961 56.8998 69.9854 54.6956 67.83C52.4914 65.6746 48.3743 64.5969 42.3442 64.5969H21.1721V104.364H0V2.94922H49.5945C56.703 3.09548 62.1623 3.96533 65.9724 5.55877ZM21.1721 20.5694V47.8196H44.5051C49.1339 47.8196 52.6174 47.2769 54.9318 46.1684C59.0331 44.2517 61.0799 40.4451 61.072 34.7488C61.072 28.5905 59.104 24.4607 55.1679 22.3592C52.9401 21.166 49.5984 20.5694 45.1427 20.5694H21.1721Z" fill="#EEC858"/>
<path d="M130.044 4.86523H151.44L185.708 104.374H162.209L140.884 33.9051H140.6L119.275 104.374H95.7764L130.044 4.86523Z" fill="#EEC858"/>
<path d="M219.636 104.375H198.109V2.94922H219.636V104.375Z" fill="#EEC858"/>
<path d="M255.563 73.0673C256.232 77.686 257.547 81.15 259.507 83.4593C263.089 87.6623 269.253 89.7638 277.999 89.7638C282.301 89.8892 286.596 89.3316 290.716 88.1127C296.904 85.9958 299.994 82.0737 299.986 76.3466C300.025 74.7689 299.623 73.2107 298.824 71.8395C298.025 70.4683 296.859 69.336 295.451 68.5641C292.413 66.7782 287.611 65.1964 281.045 63.8184L269.733 61.3706C258.712 58.9842 251.131 56.3901 246.99 53.5881C240 48.9155 236.505 41.6027 236.505 31.6494C236.41 27.3711 237.279 23.1247 239.05 19.2115C240.822 15.2984 243.452 11.8143 246.754 9.0064C253.603 3.00213 263.648 0 276.889 0C287.965 0 297.412 2.83278 305.229 8.49835C313.046 14.1639 317.143 22.3928 317.521 33.1851H296.691C296.313 27.0885 293.523 22.7546 288.319 20.1836C284.279 18.3633 279.859 17.4896 275.413 17.6318C269.69 17.6318 265.12 18.7325 261.704 20.9341C260.092 21.8949 258.769 23.2555 257.869 24.8779C256.969 26.5002 256.524 28.3265 256.579 30.1714C256.532 31.8523 256.984 33.5104 257.881 34.945C258.778 36.3796 260.081 37.529 261.633 38.2541C263.798 39.4473 268.391 40.8483 275.413 42.4571L293.609 46.6486C301.592 48.4883 307.575 50.9439 311.558 54.0153C317.737 58.7802 320.827 65.6852 320.827 74.73C320.906 79.1415 319.959 83.5127 318.056 87.5134C316.154 91.5141 313.346 95.0396 309.846 97.8234C302.509 103.982 292.157 107.061 278.79 107.061C265.14 107.061 254.402 104.043 246.577 98.0081C238.752 91.9731 234.84 83.6826 234.84 73.1366L255.563 73.0673Z" fill="#EEC858"/>
<path d="M355.811 104.375H334.284V2.94922H355.811V104.375Z" fill="#EEC858"/>
<path d="M375.724 2.94922H398.443L439.618 73.6726V2.94922H459.845V104.375H438.154L395.916 32.4048V104.375H375.724V2.94922Z" fill="#EEC858"/>
<path d="M500 104.375H478.402V2.94922H500V104.375Z" fill="#EEC858"/>
</svg>
