<svg width="21" height="22" viewBox="0 0 21 22" fill="none" xmlns="http://www.w3.org/2000/svg">
<path d="M19.3644 10.2652C19.4113 9.9471 19.4286 9.6363 19.4348 9.16175C19.4849 5.49837 16.3028 2.68134 12.7536 2.66153C11.8854 2.65579 11.451 2.65579 10.5822 2.66153C7.03197 2.68187 3.8593 5.46343 3.90154 9.16175C3.90623 9.62639 3.92188 9.9544 3.96568 10.2741C3.50991 10.94 3.27629 11.8265 3.37484 12.7719L3.40405 13.0525C3.5996 14.911 5.00707 16.2867 6.54752 16.1245L6.62939 16.1157C7.68173 18.0884 9.54237 19.3363 11.6663 19.3441H11.671C11.8437 19.3441 11.9834 19.2044 11.9834 19.0318V17.9205C11.9834 17.7484 11.8437 17.6092 11.6721 17.6081V17.6055C9.51421 17.6055 7.56909 14.9663 7.56909 12.3104C7.56909 9.68636 9.51421 7.00231 11.6632 7.00231H11.6679C11.8405 7.00231 11.9803 6.86256 11.9803 6.68995V5.59224C11.9803 5.42119 11.8426 5.28248 11.6721 5.27987V5.27674C9.3562 5.28508 7.35164 6.76556 6.36813 9.05381L5.81067 9.11221C5.78147 9.11534 5.75383 9.12212 5.72567 9.12681C5.59738 6.35151 8.15471 4.34799 10.8951 4.33339C11.5959 4.32922 11.9464 4.32922 12.6467 4.33339C15.384 4.34903 17.7421 6.35724 17.6545 9.13412C17.6117 9.12681 17.5695 9.11691 17.5262 9.11326L16.6345 9.01991C16.6313 9.01887 16.6287 9.01835 16.6261 9.0173C16.4321 8.99697 16.2585 9.13724 16.2381 9.33019L15.5753 15.6416C15.555 15.8346 15.6953 16.0082 15.8882 16.0286C15.8914 16.0296 15.894 16.0286 15.8971 16.0286V16.0301L16.7888 16.1235C18.3293 16.2857 19.7367 14.91 19.9323 13.0515L19.9625 12.7709C20.0606 11.8208 19.8238 10.9311 19.3639 10.2642L19.3644 10.2652Z" fill="#AEAEAE"/>
</svg>
