<svg width="18" height="18" viewBox="0 0 18 18" fill="none" xmlns="http://www.w3.org/2000/svg">
<path d="M16.8453 4.5C16.2678 4.7625 15.6453 4.935 15.0003 5.0175C15.6603 4.62 16.1703 3.99 16.4103 3.2325C15.7878 3.6075 15.0978 3.87 14.3703 4.02C13.7778 3.375 12.9453 3 12.0003 3C10.2378 3 8.79777 4.44 8.79777 6.2175C8.79777 6.4725 8.82777 6.72 8.88027 6.9525C6.21027 6.8175 3.83277 5.535 2.25027 3.5925C1.97277 4.065 1.81527 4.62 1.81527 5.205C1.81527 6.3225 2.37777 7.3125 3.24777 7.875C2.71527 7.875 2.22027 7.725 1.78527 7.5V7.5225C1.78527 9.0825 2.89527 10.3875 4.36527 10.68C3.89332 10.8092 3.39784 10.8271 2.91777 10.7325C3.12148 11.3719 3.52043 11.9313 4.05854 12.3322C4.59665 12.7331 5.24686 12.9553 5.91777 12.9675C4.7805 13.8678 3.37077 14.3545 1.92027 14.3475C1.66527 14.3475 1.41027 14.3325 1.15527 14.3025C2.58027 15.2175 4.27527 15.75 6.09027 15.75C12.0003 15.75 15.2478 10.845 15.2478 6.5925C15.2478 6.45 15.2478 6.315 15.2403 6.1725C15.8703 5.7225 16.4103 5.1525 16.8453 4.5Z" fill="#A7A7A7"/>
</svg>
