<svg width="19" height="19" viewBox="0 0 19 19" fill="none" xmlns="http://www.w3.org/2000/svg">
<path fill-rule="evenodd" clip-rule="evenodd" d="M16.4295 9.28168C16.4745 8.97737 16.491 8.67853 16.4976 8.22316C16.5459 4.71158 13.4835 2.01002 10.0685 1.99141C9.23374 1.98594 8.81524 1.98594 7.97935 1.99141C4.56437 2.01002 1.51187 4.67764 1.55251 8.22426C1.5569 8.66978 1.57228 8.98394 1.61402 9.29043C1.17575 9.92861 0.950576 10.7791 1.04614 11.6855L1.0747 11.9548C1.26253 13.7368 2.61687 15.0559 4.09974 14.9004L4.17882 14.8917C5.19047 16.7832 6.98198 17.9796 9.02504 17.9873H9.02943C9.19529 17.9873 9.3293 17.8538 9.3293 17.6874V16.6223C9.3293 16.457 9.19529 16.3235 9.02943 16.3235V16.3213C6.95342 16.3213 5.08172 13.7905 5.08172 11.2444C5.08172 8.69824 6.95342 6.1554 9.02174 6.1554H9.02614C9.192 6.1554 9.32601 6.02185 9.32601 5.85547V4.80353C9.32601 4.63933 9.1931 4.50688 9.02943 4.50469V4.5025C6.80075 4.50797 4.87193 5.92881 3.92619 8.12246L3.39016 8.17828C3.3627 8.18157 3.33634 8.18814 3.30778 8.19142C3.18476 5.53036 5.64411 3.60928 8.28031 3.59505C8.95474 3.59067 9.29196 3.59067 9.96529 3.59505C12.5982 3.60928 14.8675 5.53584 14.7829 8.19799C14.7423 8.19142 14.7017 8.18157 14.6588 8.17719L13.801 8.08743C13.801 8.08743 13.7955 8.08743 13.7933 8.08634C13.6065 8.06663 13.4396 8.20127 13.4198 8.38736L12.7816 14.4385C12.7619 14.6235 12.897 14.7899 13.0837 14.8096C13.087 14.8096 13.0892 14.8096 13.0925 14.8096L13.9503 14.9004C15.4321 15.0559 16.7865 13.7368 16.9743 11.9548L17.0028 11.6855C17.0984 10.7748 16.871 9.92094 16.4284 9.28168H16.4295Z" fill="#A7A7A7"/>
</svg>
