<svg width="407" height="168" viewBox="0 0 407 168" fill="none" xmlns="http://www.w3.org/2000/svg">
<path d="M118.052 141.566C118.722 141.566 119.057 141.231 119.057 140.559V139.049C119.057 138.336 118.722 138 118.052 138H117.005C116.335 138 116 138.336 116 139.049V140.559C116 141.231 116.335 141.566 117.005 141.566H118.052ZM116.084 166.448C116.084 167.161 116.419 167.497 117.131 167.497H117.927C118.597 167.497 118.932 167.161 118.932 166.448V147.441C118.932 146.727 118.597 146.392 117.927 146.392H117.131C116.419 146.392 116.084 146.727 116.084 147.441V166.448Z" fill="#323232"/>
<path d="M125.409 166.448C125.409 167.161 125.744 167.497 126.456 167.497H127.252C127.922 167.497 128.257 167.161 128.257 166.448V157.175C128.257 154.741 129.011 152.685 130.561 151.049C132.111 149.413 133.996 148.573 136.257 148.573C139.943 148.573 140.864 150.839 140.864 154.825V166.448C140.864 167.161 141.199 167.497 141.87 167.497H142.665C143.377 167.497 143.712 167.161 143.712 166.448V154.07C143.712 148.657 141.702 145.888 136.634 145.888C134.414 145.888 132.571 146.476 131.106 147.692C129.64 148.867 128.676 150.084 128.132 151.385H128.048L128.216 149.874V147.441C128.216 146.727 127.881 146.392 127.21 146.392H126.456C125.744 146.392 125.409 146.727 125.409 147.441V166.448Z" fill="#323232"/>
<path d="M158.874 156.839C158.874 159.986 159.963 162.671 162.099 164.811C164.277 166.951 166.915 168 170.015 168C173.072 168 175.711 166.951 177.847 164.811C180.025 162.671 181.114 159.986 181.114 156.839C181.114 153.734 180.025 151.133 177.847 149.035C175.711 146.937 173.072 145.888 169.973 145.888C166.915 145.888 164.277 146.937 162.099 149.035C159.963 151.133 158.874 153.734 158.874 156.839ZM161.806 156.839C161.806 154.448 162.601 152.476 164.193 150.881C165.784 149.245 167.711 148.448 170.015 148.448C172.276 148.448 174.203 149.245 175.795 150.881C177.386 152.476 178.182 154.448 178.182 156.839C178.182 159.273 177.386 161.329 175.795 162.965C174.203 164.601 172.276 165.441 170.015 165.441C167.711 165.441 165.784 164.601 164.193 162.965C162.601 161.329 161.806 159.273 161.806 156.839Z" fill="#323232"/>
<path d="M185.856 159.818C185.856 165.399 187.993 168 192.893 168C194.987 168 196.746 167.413 198.212 166.238C199.678 165.063 200.683 163.804 201.186 162.503H201.27L201.144 164.014V166.448C201.144 167.161 201.479 167.497 202.149 167.497H202.903C203.573 167.497 203.908 167.161 203.908 166.448V147.441C203.908 146.727 203.573 146.392 202.903 146.392H202.107C201.395 146.392 201.06 146.727 201.06 147.441V156.503C201.06 158.895 200.348 160.993 198.882 162.713C197.458 164.434 195.573 165.315 193.27 165.315C189.584 165.315 188.705 163.049 188.705 159.063V147.441C188.705 146.727 188.369 146.392 187.657 146.392H186.862C186.192 146.392 185.856 146.727 185.856 147.441V159.818Z" fill="#323232"/>
<path d="M210.403 166.448C210.403 167.161 210.739 167.497 211.451 167.497H212.246C212.916 167.497 213.252 167.161 213.252 166.448V158.559C213.252 156.084 213.838 153.902 214.969 151.972C216.142 150.042 217.775 149.077 219.827 149.077C220.623 149.077 221 148.741 221 148.028V147.273C221 146.601 220.623 146.266 219.911 146.266C216.728 146.266 214.173 148.741 213.126 151.972H213.042L213.21 150.294V147.441C213.21 146.727 212.875 146.392 212.204 146.392H211.451C210.739 146.392 210.403 146.727 210.403 147.441V166.448Z" fill="#323232"/>
<path d="M86.8781 53.9391C86.8781 56.5568 87.7246 58.5097 89.4176 59.7978C91.1106 61.0859 93.0575 61.7091 95.3007 61.7091C96.7821 61.7091 97.5016 61.1274 97.5016 59.964V58.6759C97.5016 57.5125 97.036 57.097 95.724 56.9723C93.3961 56.723 92.2533 55.3934 92.2533 53.0249V44.7978H95.4277C96.5705 44.7978 97.163 44.2161 97.163 43.0526V42.3463C97.163 41.1828 96.5705 40.6011 95.3854 40.6011H92.2533V36.2798C92.2533 35.1163 91.6608 34.5346 90.4757 34.5346H88.7827C87.5976 34.5346 87.0051 35.1163 87.0051 36.2798V40.6011H85.7776C84.5925 40.6011 84 41.1828 84 42.3463V43.0526C84 44.2161 84.5925 44.7978 85.7353 44.7978H86.8781V53.9391Z" fill="#323232"/>
<path d="M101.11 59.7562C101.11 60.9197 101.703 61.5014 102.888 61.5014H104.708C105.893 61.5014 106.485 60.9197 106.485 59.7562V51.6537C106.485 49.6177 107.036 47.9141 108.178 46.626C109.321 45.2964 110.845 44.6316 112.707 44.6316C115.247 44.6316 116.093 46.1274 116.093 48.9529V59.7562C116.093 60.9197 116.686 61.5014 117.871 61.5014H119.691C120.876 61.5014 121.468 60.9197 121.468 59.7562V47.8726C121.468 42.5125 118.971 39.8116 113.935 39.8116C110.506 39.8116 107.628 41.8061 106.443 44.0914H106.358L106.485 42.3047V33.7452C106.485 32.5817 105.893 32 104.708 32H102.888C101.703 32 101.11 32.5817 101.11 33.7452V59.7562Z" fill="#323232"/>
<path d="M124.796 55.6427C124.796 57.5125 125.474 59.0499 126.87 60.2548C128.267 61.4183 129.96 62 131.949 62C134.785 62 136.69 60.5457 137.705 59.4238C138.51 58.4681 138.594 58.2188 138.721 58.0111H138.806L138.721 58.9252V59.7562C138.721 60.9197 139.314 61.5014 140.457 61.5014H141.896C143.081 61.5014 143.673 60.9197 143.673 59.7562V48.2465C143.673 42.928 140.33 39.8116 134.743 39.8116C132.33 39.8116 130.002 40.3934 127.675 41.5568C126.701 42.097 126.447 42.8449 126.997 43.8837L127.421 44.6731C127.886 45.6288 128.69 45.8366 129.791 45.3795C131.314 44.59 132.796 44.1745 134.277 44.1745C136.944 44.1745 138.298 45.4211 138.298 47.9141V48.4127H137.409C134.573 48.4127 132.076 48.7452 129.325 49.7008C126.616 50.6565 124.796 52.6925 124.796 55.6427ZM130.129 55.1856C130.129 52.8172 132.584 51.6122 137.452 51.6122H138.34V52.4017C138.34 53.7729 137.875 55.0609 136.944 56.2244C136.012 57.3878 134.827 57.9695 133.388 57.9695C131.357 57.9695 130.129 56.6814 130.129 55.1856Z" fill="#323232"/>
<path d="M148.684 59.7562C148.684 60.9197 149.277 61.5014 150.419 61.5014H152.282C153.424 61.5014 154.017 60.9197 154.017 59.7562V51.5706C154.017 49.6177 154.567 47.9557 155.71 46.626C156.853 45.2964 158.376 44.6316 160.239 44.6316C162.778 44.6316 163.625 46.1274 163.625 48.9529V59.7562C163.625 60.9197 164.217 61.5014 165.402 61.5014H167.222C168.407 61.5014 169 60.9197 169 59.7562V47.8726C169 42.5125 166.503 39.8116 161.466 39.8116C157.572 39.8116 154.991 41.9723 153.805 44.2992H153.721L153.805 43.3435V42.0554C153.805 40.892 153.213 40.3102 152.07 40.3102H150.419C149.277 40.3102 148.684 40.892 148.684 42.0554V59.7562Z" fill="#323232"/>
<path d="M249 165.681C249 166.884 249.588 167.485 250.723 167.485H252.572C253.706 167.485 254.294 166.884 254.294 165.681V157.223C254.294 155.205 254.841 153.488 255.975 152.114C257.11 150.74 258.622 150.053 260.471 150.053C262.992 150.053 263.832 151.598 263.832 154.518V165.681C263.832 166.884 264.421 167.485 265.597 167.485H267.404C268.581 167.485 269.169 166.884 269.169 165.681V153.402C269.169 147.863 266.69 145.072 261.69 145.072C257.824 145.072 255.261 147.305 254.084 149.709H254L254.084 148.722V147.391C254.084 146.188 253.496 145.587 252.361 145.587H250.723C249.588 145.587 249 146.188 249 147.391V165.681Z" fill="#323232"/>
<path d="M272.851 156.536C272.851 159.756 273.901 162.461 276.002 164.694C278.145 166.884 280.919 168 284.364 168C286.969 168 289.406 167.27 291.633 165.81C292.558 165.252 292.768 164.436 292.221 163.406L291.717 162.547C291.213 161.645 290.415 161.431 289.364 161.946C287.894 162.891 286.339 163.363 284.742 163.363C281.339 163.363 278.65 161.13 278.313 157.352H291.381C292.39 157.352 293.23 156.493 293.23 155.506C293.23 152.414 292.39 149.924 290.709 147.992C289.028 146.06 286.717 145.072 283.734 145.072C280.498 145.072 277.893 146.145 275.876 148.292C273.859 150.396 272.851 153.144 272.851 156.536ZM278.439 154.046C278.944 151.083 280.919 149.194 283.608 149.194C286.087 149.194 287.894 151.083 287.936 154.046H278.439Z" fill="#323232"/>
<path d="M298.145 159.67C298.145 162.375 298.985 164.393 300.666 165.724C302.347 167.055 304.279 167.699 306.506 167.699C307.977 167.699 308.691 167.098 308.691 165.896V164.565C308.691 163.363 308.229 162.934 306.927 162.805C304.616 162.547 303.481 161.173 303.481 158.726V150.224H306.632C307.767 150.224 308.355 149.623 308.355 148.421V147.691C308.355 146.489 307.767 145.888 306.59 145.888H303.481V141.422C303.481 140.22 302.893 139.619 301.716 139.619H300.036C298.859 139.619 298.271 140.22 298.271 141.422V145.888H297.052C295.876 145.888 295.288 146.489 295.288 147.691V148.421C295.288 149.623 295.876 150.224 297.01 150.224H298.145V159.67Z" fill="#323232"/>
<path d="M316.35 165.982C316.644 166.97 317.274 167.485 318.282 167.485H321.182C322.232 167.485 322.862 166.97 323.115 165.939L326.35 154.99C326.56 154.217 326.77 153.445 326.896 152.629H326.98L327.484 154.99L330.72 165.939C330.972 166.97 331.644 167.485 332.695 167.485H335.51C336.56 167.485 337.191 166.97 337.485 165.982L342.989 147.605C343.325 146.403 342.737 145.587 341.519 145.587H339.586C338.535 145.587 337.905 146.102 337.653 147.176L334.249 159.971C334.039 160.744 333.913 161.517 333.787 162.289H333.703L333.241 159.971L329.669 147.176C329.417 146.145 328.787 145.63 327.737 145.63H326.14C325.047 145.63 324.417 146.145 324.207 147.176L320.593 159.971C320.383 160.744 320.257 161.517 320.131 162.289H320.047L319.627 159.971L316.181 147.176C315.971 146.102 315.341 145.587 314.291 145.587H312.274C311.055 145.587 310.467 146.403 310.803 147.605L316.35 165.982Z" fill="#323232"/>
<path d="M368.395 156.536C368.395 153.23 367.261 150.525 364.95 148.335C362.681 146.145 359.908 145.072 356.588 145.072C353.269 145.072 350.495 146.145 348.226 148.335C345.957 150.482 344.823 153.23 344.823 156.536C344.823 159.842 345.957 162.59 348.226 164.78C350.495 166.927 353.269 168 356.588 168C359.908 168 362.681 166.927 364.95 164.78C367.261 162.59 368.395 159.842 368.395 156.536ZM350.243 156.536C350.243 154.561 350.874 152.929 352.092 151.641C353.311 150.353 354.823 149.709 356.588 149.709C358.353 149.709 359.865 150.353 361.084 151.641C362.345 152.929 362.975 154.561 362.975 156.536C362.975 158.554 362.345 160.186 361.126 161.474C359.908 162.719 358.395 163.363 356.588 163.363C354.781 163.363 353.269 162.719 352.05 161.474C350.832 160.186 350.243 158.554 350.243 156.536Z" fill="#323232"/>
<path d="M372.306 165.681C372.306 166.884 372.894 167.485 374.029 167.485H375.877C377.012 167.485 377.6 166.884 377.6 165.681V158.64C377.6 156.45 378.104 154.604 379.113 153.058C380.121 151.47 381.55 150.697 383.399 150.697C384.617 150.697 385.206 150.096 385.206 148.893V147.219C385.206 146.017 384.659 145.416 383.609 145.416C382.222 145.416 380.92 145.974 379.785 147.09C378.651 148.206 377.852 149.494 377.39 150.954H377.306L377.432 149.452V147.391C377.432 146.188 376.844 145.587 375.667 145.587H374.029C372.894 145.587 372.306 146.188 372.306 147.391V165.681Z" fill="#323232"/>
<path d="M388.063 165.681C388.063 166.884 388.651 167.485 389.828 167.485H391.634C392.811 167.485 393.399 166.884 393.399 165.681V157.91H396.172L401.173 166.24C401.635 167.055 402.307 167.485 403.231 167.485H405.5C406.887 167.485 407.391 166.583 406.677 165.338L400.374 155.463V155.377L405.711 147.734C406.509 146.575 406.005 145.587 404.618 145.587H402.601C401.677 145.587 400.962 145.974 400.5 146.789L396.046 153.316H393.399V138.803C393.399 137.601 392.811 137 391.634 137H389.828C388.651 137 388.063 137.601 388.063 138.803V165.681Z" fill="#323232"/>
<path d="M182.127 56.3789C182.127 59.4831 183.644 60.9932 186.761 60.9932H217.601C220.719 60.9932 222.235 59.4831 222.235 56.3789V53.023C222.235 49.9188 220.719 48.4087 217.601 48.4087H209.343V5.62111C209.343 2.51692 207.827 1.00677 204.709 1.00677H199.906C197.8 1.00677 195.862 1.76184 194.176 3.27199L183.728 13.0041C181.453 15.1015 181.453 17.2828 183.559 19.548L185.75 21.8972C187.857 24.1624 189.963 24.2463 192.238 22.1488L192.997 21.4777C193.671 20.8904 194.261 20.0514 194.85 18.793H195.019L194.935 23.4073V48.4087H186.761C183.644 48.4087 182.127 49.9188 182.127 53.023V56.3789Z" fill="#0078FA"/>
<path d="M224.79 43.8782C224.79 48.7442 226.813 53.023 230.773 56.6306C234.817 60.2382 240.294 62 247.288 62C254.282 62 259.759 60.2382 263.719 56.6306C267.679 53.023 269.702 48.7442 269.702 43.8782C269.702 38.5088 267.09 34.1461 261.865 30.8742C265.994 26.2598 268.101 21.5616 268.101 16.6955C268.101 11.5778 266.078 7.55075 262.118 4.53045C258.158 1.51015 253.186 0 247.204 0C240.716 0 235.744 1.67795 232.29 5.11773C228.835 8.47361 227.15 12.5007 227.15 17.115C227.15 21.7294 229.256 25.6725 233.469 28.9445C227.655 33.3911 224.79 38.4249 224.79 43.8782ZM251.67 25.8403C244.507 22.9039 241.558 21.226 241.558 17.4506C241.558 14.1786 243.496 12.5846 247.372 12.5846C251.67 12.5846 253.861 14.5981 253.861 18.6252C253.861 21.1421 253.102 23.5751 251.67 25.8403ZM239.536 42.2003C239.536 39.6834 240.716 37.2503 242.991 34.8173L244.592 35.4885C248.384 37.0825 250.996 38.4249 252.428 39.4317C253.861 40.4384 254.619 41.7808 254.619 43.3748C254.619 47.0663 251.585 49.4154 247.457 49.4154C242.738 49.4154 239.536 46.479 239.536 42.2003Z" fill="#0078FA"/>
<path d="M277.644 56.3789C277.644 59.4831 279.161 60.9932 282.278 60.9932H287.587C290.704 60.9932 292.221 59.4831 292.221 56.3789V44.2138H296.771L304.186 57.7212C305.45 59.9026 307.22 60.9932 309.663 60.9932H315.983C319.775 60.9932 321.039 58.5602 319.101 55.456L308.062 37.5859V37.4181L317.163 23.3234C319.185 20.2192 317.921 17.7862 314.129 17.7862H308.568C306.124 17.7862 304.271 18.793 303.091 20.8904L296.35 32.0487H292.221V5.62111C292.221 2.51692 290.704 1.00677 287.587 1.00677H282.278C279.161 1.00677 277.644 2.51692 277.644 5.62111V56.3789Z" fill="#0078FA"/>
<path d="M0 60.8767C0 61.3928 0.253884 61.6357 0.793388 61.6357H1.39636C1.90413 61.6357 2.15802 61.3928 2.15802 60.8767V54.2581C2.15802 52.6186 2.66579 51.1613 3.71306 49.8558C4.76033 48.5503 6.06149 47.8824 7.61653 47.8824C9.04463 47.8824 10.0284 48.3681 10.441 49.3397C10.8536 50.2808 10.9805 51.1006 10.9805 52.4364V60.8767C10.9805 61.3928 11.2344 61.6357 11.7739 61.6357H12.3769C12.8846 61.6357 13.1385 61.3928 13.1385 60.8767V54.2581C13.1385 52.5882 13.6463 51.1309 14.6618 49.8254C15.6774 48.5199 16.9468 47.8824 18.5018 47.8824C21.1676 47.8824 21.9293 49.5522 21.9293 52.4364V60.8767C21.9293 61.3928 22.1831 61.6357 22.7226 61.6357H23.2939C23.8334 61.6357 24.0873 61.3928 24.0873 60.8767V51.9203C24.0873 48.0038 22.564 46 18.7874 46C17.518 46 16.3438 46.3947 15.2331 47.1537C14.154 47.9127 13.3924 48.7932 12.9164 49.8254H12.8529C12.4086 47.2751 10.7583 46 7.93388 46C6.6962 46 5.52198 46.3947 4.3795 47.2144C3.23702 48.0038 2.47537 48.9146 2.06281 49.9772H1.99934L2.12628 48.8843V47.1233C2.12628 46.6072 1.8724 46.3643 1.36463 46.3643H0.793388C0.253884 46.3643 0 46.6072 0 47.1233V60.8767Z" fill="#323232"/>
<path d="M27.6496 53.9241C27.6496 56.2011 28.4747 58.1442 30.0932 59.6926C31.7435 61.241 33.7428 62 36.0912 62C38.4079 62 40.4073 61.241 42.0258 59.6926C43.676 58.1442 44.5012 56.2011 44.5012 53.9241C44.5012 51.6774 43.676 49.7951 42.0258 48.277C40.4073 46.759 38.4079 46 36.0595 46C33.7428 46 31.7435 46.759 30.0932 48.277C28.4747 49.7951 27.6496 51.6774 27.6496 53.9241ZM29.8711 53.9241C29.8711 52.1935 30.474 50.7666 31.68 49.6129C32.886 48.4288 34.3458 47.852 36.0912 47.852C37.805 47.852 39.2648 48.4288 40.4707 49.6129C41.6767 50.7666 42.2797 52.1935 42.2797 53.9241C42.2797 55.685 41.6767 57.1727 40.4707 58.3567C39.2648 59.5408 37.805 60.148 36.0912 60.148C34.3458 60.148 32.886 59.5408 31.68 58.3567C30.474 57.1727 29.8711 55.685 29.8711 53.9241Z" fill="#323232"/>
<path d="M48.2851 60.8767C48.2851 61.3928 48.539 61.6357 49.0785 61.6357H49.6815C50.1893 61.6357 50.4431 61.3928 50.4431 60.8767V55.1689C50.4431 53.3776 50.8874 51.7989 51.7443 50.4023C52.6329 49.0057 53.8706 48.3074 55.4256 48.3074C56.0286 48.3074 56.3142 48.0645 56.3142 47.5484V47.0019C56.3142 46.5161 56.0286 46.2732 55.4891 46.2732C53.0772 46.2732 51.1413 48.0645 50.3479 50.4023H50.2845L50.4114 49.1879V47.1233C50.4114 46.6072 50.1575 46.3643 49.6498 46.3643H49.0785C48.539 46.3643 48.2851 46.6072 48.2851 47.1233V60.8767Z" fill="#323232"/>
<path d="M57.4651 54.0152C57.4651 56.3529 58.2585 58.2657 59.8453 59.7533C61.4321 61.241 63.4314 62 65.8116 62C67.7474 62 69.5246 61.4232 71.1431 60.2998C71.524 60.0266 71.5874 59.6926 71.3653 59.2979L71.1114 58.9336C70.8575 58.5389 70.5084 58.4782 70.0641 58.7514C68.8264 59.6926 67.4301 60.148 65.875 60.148C64.1613 60.148 62.7015 59.6015 61.5273 58.5085C60.3531 57.4156 59.7183 55.9279 59.6866 54.0455H71.1749C71.6509 54.0455 72 53.7419 72 53.2865C72 48.8843 69.5246 46 65.3355 46C63.114 46 61.2416 46.7287 59.7183 48.186C58.2268 49.6433 57.4651 51.5863 57.4651 54.0152ZM59.7818 52.4972C60.2896 49.4915 62.5111 47.7002 65.2721 47.7002C67.7792 47.7002 69.6833 49.4307 69.8102 52.4972H59.7818Z" fill="#323232"/>
<path d="M29 103.989C29 108.831 30.582 112.909 33.8094 116.158C37.0368 119.407 41.2766 121 46.529 121C50.7689 121 54.6291 119.726 57.983 117.241C59.2486 116.349 59.5018 115.139 58.6791 113.673L58.0463 112.463C57.2236 110.997 56.0213 110.742 54.4392 111.634C52.0978 113.291 49.6931 114.119 47.2251 114.119C44.2509 114.119 41.7829 113.163 39.9477 111.188C38.1126 109.213 37.1633 106.792 37.1633 103.925C37.1633 101.058 38.0493 98.7008 39.8844 96.7895C41.7196 94.8144 44.061 93.8587 46.972 93.8587C49.1869 93.8587 51.2751 94.4958 53.2369 95.8338C54.8189 96.5983 55.958 96.3435 56.7807 95.133L57.6033 93.8587C58.5525 92.3296 58.426 91.1191 57.0971 90.2271C53.9963 88.0609 50.5158 86.9778 46.529 86.9778C41.2766 86.9778 37.0368 88.6343 33.8094 91.9474C30.582 95.1967 29 99.2105 29 103.989Z" fill="#323232"/>
<path d="M62.1136 111.252C62.1136 114.119 63.1261 116.476 65.2144 118.324C67.3027 120.108 69.834 121 72.8082 121C77.0481 121 79.8958 118.77 81.4145 117.05C82.6169 115.584 82.7434 115.202 82.9333 114.884H83.0598L82.9333 116.285V117.56C82.9333 119.343 83.8192 120.235 85.5278 120.235H87.6794C89.4513 120.235 90.3372 119.343 90.3372 117.56V99.9114C90.3372 91.7562 85.338 86.9778 76.9848 86.9778C73.3778 86.9778 69.8973 87.8698 66.4168 89.6537C64.9613 90.482 64.5816 91.6288 65.4043 93.2216L66.0371 94.4321C66.7332 95.8975 67.9355 96.2161 69.5809 95.5152C71.859 94.3047 74.0739 93.6676 76.2887 93.6676C80.2755 93.6676 82.3005 95.5789 82.3005 99.4017V100.166H80.9716C76.7317 100.166 72.9981 100.676 68.8848 102.141C64.8347 103.607 62.1136 106.729 62.1136 111.252ZM70.0871 110.551C70.0871 106.92 73.7574 105.072 81.0348 105.072H82.3638V106.283C82.3638 108.385 81.6677 110.36 80.2755 112.144C78.8833 113.928 77.1114 114.82 74.9598 114.82C71.9223 114.82 70.0871 112.845 70.0871 110.551Z" fill="#323232"/>
<path d="M97.8292 117.56C97.8292 119.343 98.7151 120.235 100.424 120.235H103.208C104.917 120.235 105.803 119.343 105.803 117.56V105.008C105.803 102.014 106.625 99.4654 108.334 97.4266C110.043 95.3878 112.321 94.3684 115.105 94.3684C118.902 94.3684 120.168 96.6621 120.168 100.994V117.56C120.168 119.343 121.054 120.235 122.825 120.235H125.547C127.318 120.235 128.204 119.343 128.204 117.56V99.338C128.204 91.1191 124.471 86.9778 116.94 86.9778C111.118 86.9778 107.258 90.2909 105.486 93.8587H105.36L105.486 92.3934V90.4183C105.486 88.6343 104.6 87.7424 102.892 87.7424H100.424C98.7151 87.7424 97.8292 88.6343 97.8292 90.4183V117.56Z" fill="#323232"/>
<path d="M133.813 103.989C133.813 109.022 135.142 113.163 137.737 116.285C140.331 119.407 143.812 121 148.178 121C152.608 121 155.456 119.025 156.848 117.368C158.05 116.03 158.113 115.712 158.303 115.393H158.43L158.303 116.54V117.814C158.303 119.407 159.189 120.235 160.898 120.235H163.239C164.948 120.235 165.834 119.343 165.834 117.56V77.6759C165.834 75.892 164.948 75 163.239 75H160.455C158.746 75 157.86 75.892 157.86 77.6759V89.7812C157.86 90.482 157.924 91.0554 157.987 91.6288H157.86L157.544 91.1828C156.911 89.8449 153.937 86.9778 148.431 86.9778C144.128 86.9778 140.584 88.5706 137.863 91.6925C135.142 94.8144 133.813 98.892 133.813 103.989ZM141.913 103.989C141.913 97.8089 145.457 93.9224 150.013 93.9224C152.608 93.9224 154.57 94.9418 155.962 96.9169C157.354 98.892 158.05 101.186 158.05 103.925C158.05 110.742 154.506 114.183 149.95 114.183C145.141 114.183 141.913 110.105 141.913 103.989Z" fill="#323232"/>
<path d="M179.22 82.1994C180.992 82.1994 181.878 81.3075 181.878 79.5873V77.6759C181.878 75.892 180.992 75 179.22 75H176.436C174.727 75 173.841 75.892 173.841 77.6759V79.5873C173.841 81.3075 174.727 82.1994 176.436 82.1994H179.22ZM173.841 117.56C173.841 119.343 174.727 120.235 176.436 120.235H179.22C180.929 120.235 181.815 119.343 181.815 117.56V90.4183C181.815 88.6343 180.929 87.7424 179.22 87.7424H176.436C174.727 87.7424 173.841 88.6343 173.841 90.4183V117.56Z" fill="#323232"/>
<path d="M187.887 103.989C187.887 109.022 189.216 113.163 191.81 116.285C194.405 119.407 197.885 121 202.252 121C206.682 121 209.529 119.025 210.921 117.368C212.124 116.03 212.187 115.712 212.377 115.393H212.503L212.377 116.54V117.814C212.377 119.407 213.263 120.235 214.971 120.235H217.313C219.021 120.235 219.907 119.343 219.907 117.56V77.6759C219.907 75.892 219.021 75 217.313 75H214.529C212.82 75 211.934 75.892 211.934 77.6759V89.7812C211.934 90.482 211.997 91.0554 212.061 91.6288H211.934L211.618 91.1828C210.985 89.8449 208.01 86.9778 202.505 86.9778C198.202 86.9778 194.658 88.5706 191.937 91.6925C189.216 94.8144 187.887 98.892 187.887 103.989ZM195.987 103.989C195.987 97.8089 199.531 93.9224 204.087 93.9224C206.682 93.9224 208.643 94.9418 210.035 96.9169C211.428 98.892 212.124 101.186 212.124 103.925C212.124 110.742 208.58 114.183 204.024 114.183C199.214 114.183 195.987 110.105 195.987 103.989Z" fill="#323232"/>
<path d="M225.447 111.252C225.447 114.119 226.46 116.476 228.548 118.324C230.636 120.108 233.167 121 236.142 121C240.382 121 243.229 118.77 244.748 117.05C245.95 115.584 246.077 115.202 246.267 114.884H246.393L246.267 116.285V117.56C246.267 119.343 247.153 120.235 248.861 120.235H251.013C252.785 120.235 253.671 119.343 253.671 117.56V99.9114C253.671 91.7562 248.671 86.9778 240.318 86.9778C236.711 86.9778 233.231 87.8698 229.75 89.6537C228.295 90.482 227.915 91.6288 228.738 93.2216L229.371 94.4321C230.067 95.8975 231.269 96.2161 232.914 95.5152C235.192 94.3047 237.407 93.6676 239.622 93.6676C243.609 93.6676 245.634 95.5789 245.634 99.4017V100.166H244.305C240.065 100.166 236.331 100.676 232.218 102.141C228.168 103.607 225.447 106.729 225.447 111.252ZM233.421 110.551C233.421 106.92 237.091 105.072 244.368 105.072H245.697V106.283C245.697 108.385 245.001 110.36 243.609 112.144C242.217 113.928 240.445 114.82 238.293 114.82C235.256 114.82 233.421 112.845 233.421 110.551Z" fill="#323232"/>
<path d="M262.564 108.64C262.564 112.654 263.829 115.648 266.361 117.623C268.892 119.598 271.803 120.554 275.157 120.554C277.372 120.554 278.447 119.662 278.447 117.878V115.903C278.447 114.119 277.751 113.482 275.79 113.291C272.309 112.909 270.601 110.87 270.601 107.238V94.6233H275.347C277.055 94.6233 277.941 93.7313 277.941 91.9474V90.8643C277.941 89.0803 277.055 88.1884 275.283 88.1884H270.601V81.5623C270.601 79.7784 269.715 78.8864 267.943 78.8864H265.411C263.64 78.8864 262.754 79.7784 262.754 81.5623V88.1884H260.918C259.147 88.1884 258.261 89.0803 258.261 90.8643V91.9474C258.261 93.7313 259.147 94.6233 260.855 94.6233H262.564V108.64Z" fill="#323232"/>
<path d="M281.634 103.989C281.634 108.767 283.216 112.781 286.38 116.094C289.607 119.343 293.784 121 298.973 121C302.896 121 306.567 119.917 309.921 117.751C311.313 116.922 311.629 115.712 310.807 114.183L310.047 112.909C309.288 111.571 308.085 111.252 306.503 112.017C304.289 113.418 301.947 114.119 299.542 114.119C294.417 114.119 290.367 110.806 289.86 105.199H309.541C311.06 105.199 312.325 103.925 312.325 102.46C312.325 97.8726 311.06 94.1773 308.528 91.3102C305.997 88.4432 302.517 86.9778 298.024 86.9778C293.151 86.9778 289.228 88.5706 286.19 91.7562C283.153 94.8781 281.634 98.9557 281.634 103.989ZM290.05 100.294C290.81 95.8975 293.784 93.0942 297.834 93.0942C301.567 93.0942 304.289 95.8975 304.352 100.294H290.05Z" fill="#323232"/>
<path d="M318.964 117.687C322.191 119.917 325.798 121 329.721 121C333.392 121 336.366 120.044 338.581 118.197C340.859 116.285 341.998 113.864 341.998 110.997C342.125 104.562 336.113 102.205 331.62 100.867C328.519 99.8476 325.988 98.6371 325.988 96.6621C325.988 94.5596 327.443 93.4765 330.354 93.4765C332.126 93.4765 334.151 93.9861 336.493 95.0693C338.138 95.7701 339.34 95.4515 340.036 94.0499L340.669 92.903C341.428 91.2465 341.112 90.036 339.72 89.3352C336.872 87.7424 333.898 86.9778 330.734 86.9778C327.19 86.9778 324.216 87.8698 321.874 89.59C319.533 91.3102 318.394 93.6676 318.394 96.7258C318.394 103.352 324.216 105.518 328.772 106.983C331.873 108.003 334.404 109.341 334.404 111.188C334.404 113.227 332.696 114.501 329.911 114.501C327.823 114.501 325.418 113.737 322.697 112.271C321.178 111.443 319.976 111.698 319.09 112.909L318.331 114.055C317.255 115.648 317.508 116.859 318.964 117.687Z" fill="#323232"/>
</svg>
