<svg width="325" height="74" viewBox="0 0 325 74" fill="none" xmlns="http://www.w3.org/2000/svg">
<path fill-rule="evenodd" clip-rule="evenodd" d="M57.4088 58.7257L56.4077 57.8115C56.6934 58.1718 56.8349 58.5052 57.1231 58.8115C57.1231 58.7833 57.4088 58.7551 57.4088 58.7257Z" fill="url(#paint0_linear_0_293)"/>
<path fill-rule="evenodd" clip-rule="evenodd" d="M0.236206 57.6445L0.736727 57.3551L1.23725 56.6445L0.236206 57.6445Z" fill="url(#paint1_linear_0_293)"/>
<path fill-rule="evenodd" clip-rule="evenodd" d="M56.2046 58.4534C53.5745 52.5283 48.9208 47.6506 43.0895 44.6427L42.063 44.145C41.5113 43.8699 40.8863 43.7148 40.2241 43.7148C37.9976 43.7148 36.1927 45.469 36.1927 47.6328C36.1927 49.3794 37.3682 50.8585 38.9919 51.3649L40.4109 52.1085C45.3326 55.1742 48.8263 60.2156 49.7065 66.0812C49.7199 66.1715 49.8361 66.8081 49.8422 66.8427C53.3937 65.6208 56.1012 62.6286 56.3831 58.8646C56.372 58.8392 56.2636 58.5863 56.2046 58.4534L56.2046 58.4534Z" fill="url(#paint2_linear_0_293)"/>
<path fill-rule="evenodd" clip-rule="evenodd" d="M6.80736 66.8027L6.82126 66.7135C7.53135 60.568 11.0996 55.2628 16.2042 52.0831L17.6232 51.3395C19.2469 50.8336 20.4224 49.354 20.4224 47.6074C20.4224 45.4436 18.6175 43.6895 16.391 43.6895C15.7288 43.6895 15.1038 43.8451 14.5521 44.1202L13.5256 44.6179C7.61809 47.6647 2.91885 52.631 0.308148 58.6615C0.29091 58.702 0.258105 58.7782 0.254211 58.7874C0.560601 62.6151 3.26638 65.6392 6.75898 66.787L6.8157 66.8059L6.80736 66.8027Z" fill="url(#paint3_linear_0_293)"/>
<path fill-rule="evenodd" clip-rule="evenodd" d="M42.2398 69.3359C42.2899 68.8944 42.316 68.4464 42.316 67.9919C42.316 63.2553 39.5102 59.1552 35.4254 57.1762L34.5713 56.6412C32.5394 55.8922 31.0086 54.1521 30.6043 52.0283C30.5354 51.6641 30.0866 49.6046 30.1862 47.9104C30.3029 45.9271 30.9413 43.4774 31.0464 43.0435C31.2666 42.1345 31.6436 41.2309 31.7248 41.0472C32.6923 38.8667 34.9238 37.34 37.5217 37.34L38.9441 37.5697C45.5501 39.2968 51.417 42.776 55.985 47.4629C56.0935 47.5748 56.3087 47.7996 56.3087 47.7996L56.0796 24.5383C56.0796 24.5383 56.0962 16.8294 55.1293 12.6023C54.0488 7.87644 51.3347 4.1152 51.3347 4.1152C49.8934 1.65743 47.1726 0 44.0531 0C39.4279 0 35.6784 3.64397 35.6784 8.13908C35.6784 10.6104 36.8116 12.8244 38.6004 14.317C38.6004 14.317 40.4054 16.0571 40.6445 16.2609C42.222 17.6059 43.218 19.5801 43.218 21.7795C43.218 25.8331 39.8371 29.1193 35.6661 29.1193C35.2113 29.1193 20.9812 30.6379 20.3729 30.6379C18.3816 30.6379 16.7674 29.0685 16.7674 27.1333C16.7674 26.1471 17.2623 25.3235 17.8623 24.6188C18.5034 23.8655 19.1457 22.7328 19.6834 21.4466C20.037 20.5987 20.3084 19.7189 20.5781 18.7678C20.9 17.6308 20.8761 16.1366 20.8761 16.1366C20.8761 11.6415 17.1266 7.9975 12.5013 7.9975C9.3824 7.9975 6.66106 9.65493 5.21976 12.1132C5.21976 12.1132 2.40332 15.8529 1.42522 20.5998C1.314 21.1402 1.08435 21.913 0.908638 22.8819C0.695115 24.059 0.543307 25.4013 0.543307 25.4013L0.517731 26.6334L0.319214 47.772V47.7596C0.319214 47.7596 0.428758 47.6445 0.483805 47.5872C5.07239 42.8246 10.9939 39.2898 17.6699 37.5443L19.0923 37.3152C21.6902 37.3152 23.9216 38.8413 24.8892 41.0218C24.9704 41.2055 25.3474 42.1091 25.5676 43.0181C25.6727 43.452 26.311 45.9017 26.4278 47.885C26.5273 49.5797 26.0786 51.6392 26.0091 52.0029C25.6054 54.1267 24.0745 55.8668 22.0427 56.6158L21.1886 57.1508C17.1038 59.1298 14.2979 63.2298 14.2979 67.9665C14.2979 68.421 14.2757 68.8771 14.3741 69.3105C14.3875 69.3705 14.452 69.5661 14.452 69.5661C19.2991 71.3689 24.5366 73.3144 26.8754 73.8029C27.1295 73.8559 28.0949 74.0245 28.2622 73.9969C30.5676 73.61 36.7388 71.4057 42.2159 69.4651L42.2398 69.3359Z" fill="url(#paint4_linear_0_293)"/>
<path fill-rule="evenodd" clip-rule="evenodd" d="M90.233 29.4492H93.8157L106.105 48.8045H105.835V29.4492H108.839V52.9602H105.488L92.7758 32.9684H93.2379V52.9602H90.233L90.233 29.4492Z" fill="black"/>
<path fill-rule="evenodd" clip-rule="evenodd" d="M127.523 52.9602V29.4492H130.527V52.9602H127.523Z" fill="black"/>
<path fill-rule="evenodd" clip-rule="evenodd" d="M149.172 29.4492H152.755L165.043 48.8045H164.774V29.4492H167.779V52.9602H164.427L151.715 32.9684H152.177V52.9602H149.172L149.172 29.4492Z" fill="black"/>
<path fill-rule="evenodd" clip-rule="evenodd" d="M182.878 51.7994V48.7672C183.79 49.3411 184.702 49.7842 185.614 50.096C186.525 50.4084 187.411 50.564 188.272 50.564C189.62 50.564 190.58 50.1776 191.152 49.4038C191.723 48.6299 192.008 47.5442 192.008 46.1462V29.4492H195.013V46.1462C195.013 47.8566 194.746 49.2444 194.214 50.3117C193.68 51.3784 192.923 52.1615 191.941 52.6608C190.959 53.1596 189.8 53.4093 188.464 53.4093C187.424 53.4093 186.445 53.2563 185.527 52.951C184.609 52.6451 183.726 52.2614 182.878 51.7994L182.878 51.7994Z" fill="black"/>
<path fill-rule="evenodd" clip-rule="evenodd" d="M210.018 52.9602L218.338 29.4492H221.998L230.126 52.9602H226.968L224.926 46.9325H215.295L213.176 52.9602H210.018ZM216.065 44.6487H224.155L220.11 33.0056L216.065 44.6487Z" fill="black"/>
<path fill-rule="evenodd" clip-rule="evenodd" d="M245.939 52.9602V29.4492H254.992C256.764 29.4492 258.234 29.7329 259.402 30.3009C260.571 30.8689 261.444 31.6173 262.022 32.5474C262.6 33.4769 262.889 34.4912 262.889 35.5888C262.889 36.9366 262.507 38.1065 261.743 39.0987C260.979 40.0909 259.833 40.7681 258.305 41.1296C259.293 41.2793 260.163 41.6197 260.915 42.1499C261.666 42.6806 262.253 43.329 262.677 44.097C263.101 44.8643 263.313 45.6847 263.313 46.5585C263.313 47.3572 263.174 48.1371 262.898 48.8979C262.622 49.6594 262.163 50.3457 261.521 50.9574C260.879 51.5686 260.025 52.0556 258.96 52.4176C257.894 52.7797 256.571 52.9602 254.992 52.9602H245.939ZM248.944 31.9572V39.9693H254.876C256.379 39.9693 257.576 39.6105 258.468 38.8928C259.361 38.1752 259.807 37.1614 259.807 35.8509C259.807 34.6279 259.374 33.6736 258.507 32.9873C257.64 32.3009 256.443 31.9572 254.915 31.9572H248.944ZM248.944 50.4143H254.953C256.79 50.4143 258.109 50.0398 258.911 49.2914C259.714 48.5424 260.115 47.5815 260.115 46.4083C260.115 45.2232 259.679 44.2715 258.806 43.5538C257.932 42.8362 256.648 42.4774 254.953 42.4774H248.944V50.4143Z" fill="black"/>
<path fill-rule="evenodd" clip-rule="evenodd" d="M283.787 29.4492V50.4143H294.573V52.9602H280.782V29.4492L283.787 29.4492Z" fill="black"/>
<path fill-rule="evenodd" clip-rule="evenodd" d="M309.655 52.9602V29.4492H324.562V31.9572H312.659V39.8569H323.869V42.365H312.659V50.4143H324.562V52.9602L309.655 52.9602Z" fill="black"/>
<defs>
<linearGradient id="paint0_linear_0_293" x1="290.753" y1="110.004" x2="-550.247" y2="-76.1684" gradientUnits="userSpaceOnUse">
<stop stop-color="#4CD4EC"/>
<stop offset="1" stop-color="#35B6F1"/>
</linearGradient>
<linearGradient id="paint1_linear_0_293" x1="15487.2" y1="5301.73" x2="-8082.94" y2="-2697.1" gradientUnits="userSpaceOnUse">
<stop stop-color="#4CD4EC"/>
<stop offset="1" stop-color="#35B6F1"/>
</linearGradient>
<linearGradient id="paint2_linear_0_293" x1="47.4025" y1="81.202" x2="44.1372" y2="-0.732427" gradientUnits="userSpaceOnUse">
<stop stop-color="#4CD4EC"/>
<stop offset="1" stop-color="#35B6F1"/>
</linearGradient>
<linearGradient id="paint3_linear_0_293" x1="11.5124" y1="82.5558" x2="8.24697" y2="0.621382" gradientUnits="userSpaceOnUse">
<stop stop-color="#4CD4EC"/>
<stop offset="1" stop-color="#35B6F1"/>
</linearGradient>
<linearGradient id="paint4_linear_0_293" x1="30.0572" y1="81.856" x2="26.7919" y2="-0.0783604" gradientUnits="userSpaceOnUse">
<stop stop-color="#4CD4EC"/>
<stop offset="1" stop-color="#35B6F1"/>
</linearGradient>
</defs>
</svg>
