<svg width="252" height="58" viewBox="0 0 252 58" fill="none" xmlns="http://www.w3.org/2000/svg">
<path fill-rule="evenodd" clip-rule="evenodd" d="M44.6626 45.7578L43.7499 44.9233C44.0099 45.2522 44.1399 45.5565 44.3998 45.8361C44.3998 45.8103 44.6626 45.7846 44.6626 45.7578Z" fill="url(#paint0_linear_0_30)"/>
<path fill-rule="evenodd" clip-rule="evenodd" d="M0.235199 44.9288L0.691561 44.6638L1.14792 44.0161L0.235199 44.9288Z" fill="url(#paint1_linear_0_30)"/>
<path fill-rule="evenodd" clip-rule="evenodd" d="M43.5925 45.4214C41.555 40.8174 37.9499 37.0272 33.4324 34.6899L32.6372 34.3031C32.2098 34.0894 31.7256 33.9689 31.2126 33.9689C29.4878 33.9689 28.0895 35.3319 28.0895 37.0133C28.0895 38.3705 29.0002 39.5198 30.258 39.9133L31.3573 40.4911C35.1701 42.8733 37.8766 46.7908 38.5585 51.3486C38.5689 51.4188 38.6589 51.9134 38.6636 51.9403C41.415 50.9909 43.5124 48.6657 43.7308 45.741C43.7222 45.7213 43.6382 45.5247 43.5925 45.4214Z" fill="url(#paint2_linear_0_30)"/>
<path fill-rule="evenodd" clip-rule="evenodd" d="M5.32555 51.9088L5.33632 51.8395C5.88641 47.0642 8.65067 42.9418 12.6052 40.471L13.7045 39.8932C14.9623 39.5001 15.873 38.3504 15.873 36.9932C15.873 35.3118 14.4747 33.9487 12.7499 33.9487C12.2368 33.9487 11.7526 34.0697 11.3253 34.2834L10.5301 34.6702C5.95361 37.0377 2.31316 40.8968 0.290684 45.5827C0.277326 45.6142 0.251916 45.6734 0.248901 45.6805C0.486256 48.6548 2.58239 51.0047 5.28807 51.8967L5.33201 51.9114L5.32555 51.9088Z" fill="url(#paint3_linear_0_30)"/>
<path fill-rule="evenodd" clip-rule="evenodd" d="M32.7745 53.8774C32.8133 53.5343 32.8335 53.1862 32.8335 52.833C32.8335 49.1524 30.6599 45.9664 27.4954 44.4287L26.8338 44.013C25.2597 43.4309 24.0738 42.0788 23.7606 40.4285C23.7072 40.1455 23.3596 38.5451 23.4367 37.2287C23.5272 35.6876 24.0217 33.784 24.1031 33.4469C24.2737 32.7405 24.5657 32.0384 24.6286 31.8957C25.3782 30.2013 27.1069 29.015 29.1194 29.015L30.2213 29.1935C35.3389 30.5355 39.884 33.239 43.4228 36.881C43.5068 36.9679 43.6735 37.1426 43.6735 37.1426L43.496 19.0674C43.496 19.0674 43.5089 13.0772 42.7598 9.7926C41.9228 6.12038 39.8202 3.19771 39.8202 3.19771C38.7037 1.2879 36.5959 0 34.1793 0C30.5961 0 27.6914 2.83154 27.6914 6.32446C27.6914 8.24477 28.5693 9.96519 29.9551 11.125C29.9551 11.125 31.3534 12.4772 31.5386 12.6355C32.7607 13.6807 33.5323 15.2147 33.5323 16.9237C33.5323 20.0736 30.9132 22.6271 27.682 22.6271C27.3296 22.6271 16.3057 23.8071 15.8344 23.8071C14.2919 23.8071 13.0413 22.5877 13.0413 21.0839C13.0413 20.3176 13.4247 19.6776 13.8895 19.13C14.3862 18.5446 14.8837 17.6645 15.3003 16.6651C15.5743 16.0062 15.7845 15.3226 15.9934 14.5835C16.2428 13.7 16.2243 12.5389 16.2243 12.5389C16.2243 9.04599 13.3196 6.21445 9.73645 6.21445C7.32026 6.21445 5.21206 7.50236 4.0955 9.41259C4.0955 9.41259 1.91365 12.3185 1.15592 16.0071C1.06977 16.427 0.891859 17.0275 0.75573 17.7804C0.590309 18.695 0.47271 19.7381 0.47271 19.7381L0.452893 20.6955L0.299103 37.1212V37.1115C0.299103 37.1115 0.383965 37.0221 0.426615 36.9776C3.98134 33.2768 8.56863 30.5301 13.7405 29.1737L14.8424 28.9957C16.8549 28.9957 18.5836 30.1815 19.3332 31.8759C19.3961 32.0187 19.6881 32.7208 19.8587 33.4271C19.9401 33.7643 20.4347 35.6678 20.5251 37.2089C20.6022 38.5258 20.2546 40.1262 20.2008 40.4088C19.888 42.0591 18.7021 43.4112 17.1281 43.9932L16.4664 44.4089C13.302 45.9467 11.1283 49.1327 11.1283 52.8133C11.1283 53.1664 11.111 53.5208 11.1873 53.8576C11.1976 53.9042 11.2476 54.0562 11.2476 54.0562C15.0026 55.4571 19.0601 56.9688 20.8719 57.3484C21.0688 57.3896 21.8166 57.5206 21.9462 57.4992C23.7322 57.1985 28.5129 55.4857 32.756 53.9777L32.7745 53.8774Z" fill="url(#paint4_linear_0_30)"/>
<path fill-rule="evenodd" clip-rule="evenodd" d="M69.9541 22.8838H72.7296L82.2496 37.9237H82.0407V22.8838H84.3681V41.153H81.7719L71.924 25.6183H72.282V41.153H69.9541V22.8838Z" fill="black"/>
<path fill-rule="evenodd" clip-rule="evenodd" d="M98.8427 41.153V22.8838H101.17V41.153H98.8427Z" fill="black"/>
<path fill-rule="evenodd" clip-rule="evenodd" d="M115.613 22.8838H118.389L127.908 37.9237H127.699V22.8838H130.027V41.153H127.431L117.583 25.6183H117.941V41.153H115.613L115.613 22.8838Z" fill="black"/>
<path fill-rule="evenodd" clip-rule="evenodd" d="M141.725 40.2509V37.8948C142.432 38.3407 143.138 38.6851 143.844 38.9274C144.55 39.1701 145.237 39.291 145.903 39.291C146.948 39.291 147.691 38.9908 148.134 38.3894C148.577 37.7881 148.798 36.9445 148.798 35.8581V22.8838H151.125V35.8581C151.125 37.1872 150.919 38.2656 150.506 39.0949C150.093 39.9238 149.507 40.5323 148.746 40.9203C147.985 41.3079 147.087 41.5019 146.052 41.5019C145.247 41.5019 144.488 41.3831 143.777 41.1458C143.066 40.9081 142.382 40.61 141.725 40.2509H141.725Z" fill="black"/>
<path fill-rule="evenodd" clip-rule="evenodd" d="M162.75 41.153L169.195 22.8838H172.031L178.327 41.153H175.88L174.299 36.4691H166.838L165.196 41.153H162.75ZM167.435 34.6945H173.702L170.568 25.6473L167.435 34.6945Z" fill="black"/>
<path fill-rule="evenodd" clip-rule="evenodd" d="M190.577 41.153V22.8838H197.59C198.963 22.8838 200.102 23.1042 201.007 23.5456C201.912 23.9869 202.589 24.5685 203.037 25.2912C203.484 26.0135 203.708 26.8017 203.708 27.6545C203.708 28.7018 203.412 29.611 202.82 30.3819C202.229 31.1529 201.341 31.6791 200.157 31.96C200.923 32.0763 201.597 32.3409 202.179 32.7528C202.761 33.1652 203.216 33.6691 203.544 34.2658C203.872 34.8621 204.036 35.4995 204.036 36.1786C204.036 36.7992 203.929 37.4051 203.716 37.9964C203.501 38.5881 203.146 39.1214 202.649 39.5967C202.151 40.0717 201.49 40.45 200.664 40.7314C199.839 41.0127 198.814 41.153 197.59 41.153L190.577 41.153ZM192.905 24.8326V31.0584H197.501C198.665 31.0584 199.592 30.7796 200.284 30.2219C200.975 29.6643 201.321 28.8765 201.321 27.8582C201.321 26.9079 200.985 26.1663 200.314 25.633C199.642 25.0997 198.714 24.8326 197.531 24.8326H192.905ZM192.905 39.1747H197.561C198.983 39.1747 200.005 38.8837 200.627 38.3021C201.249 37.7201 201.56 36.9735 201.56 36.0618C201.56 35.1409 201.221 34.4014 200.545 33.8438C199.868 33.2861 198.874 33.0073 197.561 33.0073H192.905L192.905 39.1747Z" fill="black"/>
<path fill-rule="evenodd" clip-rule="evenodd" d="M219.898 22.8838V39.1747H228.254V41.153H217.57V22.8838L219.898 22.8838Z" fill="black"/>
<path fill-rule="evenodd" clip-rule="evenodd" d="M239.937 41.153V22.8838H251.486V24.8327H242.265V30.9711H250.949V32.9199H242.265V39.1747H251.486V41.153L239.937 41.153Z" fill="black"/>
<defs>
<linearGradient id="paint0_linear_0_30" x1="257.419" y1="92.5605" x2="-509.456" y2="-77.026" gradientUnits="userSpaceOnUse">
<stop stop-color="#4CD4EC"/>
<stop offset="1" stop-color="#35B6F1"/>
</linearGradient>
<linearGradient id="paint1_linear_0_30" x1="14120.8" y1="4831.33" x2="-7374.41" y2="-2455.75" gradientUnits="userSpaceOnUse">
<stop stop-color="#4CD4EC"/>
<stop offset="1" stop-color="#35B6F1"/>
</linearGradient>
<linearGradient id="paint2_linear_0_30" x1="36.7737" y1="63.0982" x2="34.244" y2="-0.568782" gradientUnits="userSpaceOnUse">
<stop stop-color="#4CD4EC"/>
<stop offset="1" stop-color="#35B6F1"/>
</linearGradient>
<linearGradient id="paint3_linear_0_30" x1="8.97045" y1="64.1497" x2="6.44079" y2="0.482756" gradientUnits="userSpaceOnUse">
<stop stop-color="#4CD4EC"/>
<stop offset="1" stop-color="#35B6F1"/>
</linearGradient>
<linearGradient id="paint4_linear_0_30" x1="23.3368" y1="63.6061" x2="20.8071" y2="-0.0608886" gradientUnits="userSpaceOnUse">
<stop stop-color="#4CD4EC"/>
<stop offset="1" stop-color="#35B6F1"/>
</linearGradient>
</defs>
</svg>
