<svg width="54" height="39" viewBox="0 0 54 39" fill="none" xmlns="http://www.w3.org/2000/svg">
<path d="M2.64895 27.1082C3.53144 26.4583 4.745 26.4898 5.63942 27.1232C8.87483 29.4141 17.0706 34.4118 27 34.4118C36.9294 34.4118 45.1252 29.4141 48.3606 27.1232C49.255 26.4898 50.4686 26.4583 51.351 27.1082C52.6538 28.0675 52.622 29.993 51.2365 30.8284C46.4974 33.686 36.4184 39 27 39C17.5816 39 7.50259 33.686 2.76347 30.8284C1.37803 29.993 1.34624 28.0675 2.64895 27.1082Z" fill="#FFBE01"/>
<rect width="21.8837" height="3.28256" rx="1.64128" transform="matrix(0.714786 0.699344 -0.714786 0.699344 33.3574 0)" fill="#FFBE01"/>
<rect width="21.8837" height="3.28256" rx="1.64128" transform="matrix(0.714786 -0.699344 0.714786 0.699344 31 15.7051)" fill="#FFBE01"/>
<rect width="21.8837" height="3.28256" rx="1.64128" transform="matrix(0.714786 0.699344 -0.714786 0.699344 7.35742 0)" fill="#FFBE01"/>
<rect width="21.8837" height="3.28256" rx="1.64128" transform="matrix(0.714786 -0.699344 0.714786 0.699344 5 15.7051)" fill="#FFBE01"/>
</svg>
