<svg width="69" height="59" viewBox="0 0 69 59" fill="none" xmlns="http://www.w3.org/2000/svg">
<ellipse cx="27.7453" cy="3.59146" rx="3.74921" ry="3.59146" fill="#FFBE01"/>
<ellipse cx="39.7426" cy="3.59146" rx="3.74921" ry="3.59146" fill="#FFBE01"/>
<path d="M16.5275 10.0269C17.3331 9.25526 18.6252 9.28615 19.4597 10.0265C22.02 12.2979 27.6939 16.5203 34.4937 16.5203C41.2935 16.5203 46.9674 12.2979 49.5277 10.0265C50.3622 9.28615 51.6543 9.25526 52.4598 10.0269C53.288 10.8203 53.2695 12.1369 52.3741 12.8535C49.1365 15.4446 41.5577 20.8301 34.4937 20.8301C27.4296 20.8301 19.8509 15.4446 16.6133 12.8535C15.7179 12.1369 15.6993 10.8203 16.5275 10.0269Z" fill="#FFBE01"/>
<ellipse rx="3.6318" ry="3.71014" transform="matrix(-0.517876 -0.855456 0.874175 -0.485611 16.4091 46.6344)" fill="#FF08C6"/>
<ellipse rx="3.6318" ry="3.71014" transform="matrix(-0.517876 -0.855456 0.874175 -0.485611 10.3906 36.693)" fill="#FF08C6"/>
<path d="M27.98 52.7354C26.8302 52.4426 26.1511 51.2561 26.4073 50.1421C27.1685 46.8324 28.0659 40.1173 24.6995 34.5565C21.3331 28.9956 14.8031 26.4065 11.4262 25.3955C10.2896 25.0552 9.55192 23.9013 9.85764 22.7999C10.1452 21.7638 11.2428 21.1722 12.2974 21.5371C16.2035 22.8887 25.0113 26.4805 28.5915 32.3945C32.1717 38.3084 31.0514 47.4153 30.3359 51.3342C30.1428 52.3923 29.0617 53.0109 27.98 52.7354Z" fill="#FF08C6"/>
<ellipse rx="3.62417" ry="3.7176" transform="matrix(-0.467052 0.88423 -0.899871 -0.436156 59.9004 34.9171)" fill="#5CFF6D"/>
<ellipse rx="3.62417" ry="3.7176" transform="matrix(-0.467052 0.88423 -0.899871 -0.436156 54.4839 45.171)" fill="#5CFF6D"/>
<path d="M58.925 22.292C59.2968 23.3777 58.6253 24.5768 57.5079 24.9801C54.1944 26.176 47.8376 29.1177 44.8105 34.8487C41.7834 40.5796 43.0746 47.2282 44.0314 50.4939C44.3541 51.5952 43.7434 52.8238 42.61 53.1799C41.5498 53.5131 40.4399 52.9576 40.1846 51.9147C39.2371 48.0456 37.5719 39.007 40.796 32.9029C44.0202 26.7989 52.6088 22.7302 56.4242 21.1695C57.4526 20.7489 58.5773 21.2764 58.925 22.292Z" fill="#5CFF6D"/>
</svg>
