<svg width="48" height="46" viewBox="0 0 48 46" fill="none" xmlns="http://www.w3.org/2000/svg">
<g clip-path="url(#clip0_2_4)">
<path d="M6.65829 20.9652C6.17405 19.3003 4.35816 16.5255 2.78439 15.0456C1.21062 13.5657 4.90293 9.18767 6.83988 9.12601C8.111 9.06435 10.1085 12.4558 12.4086 14.1823C13.6192 15.1072 14.1034 14.3673 14.8298 14.3056C15.7983 14.1823 18.2195 13.3807 21.3065 13.0724C24.6961 12.7641 31.0517 13.3807 32.6255 14.1823C35.7125 15.6622 36.4389 13.9357 36.8626 12.3324C37.2258 10.7292 45.0341 11.2842 45.5183 13.6274C45.7604 14.6756 41.826 19.3003 41.2812 23C40.6759 26.6381 32.8676 18.807 23.9698 19.4853C15.0719 20.1635 8.41365 23 7.74782 24.6032C7.02147 26.1448 6.96094 21.8901 6.65829 20.9652Z" fill="white"/>
<path d="M36.8627 13.6274C36.8627 13.6274 37.1653 12.7025 36.6811 11.1609C36.0758 9.31103 34.7441 6.72122 34.7441 4.99468C34.7441 1.78824 36.9837 0.554999 39.4049 1.0483C41.8261 1.54159 45.3368 2.95982 46.1842 5.79629C46.6079 7.15285 47.2132 9.06438 47.0922 10.5443C46.9106 12.2708 46.0027 13.874 45.7 14.3057C45.7 14.3057 43.3999 12.3941 41.8866 12.5791C40.3129 12.7025 36.8627 13.6274 36.8627 13.6274Z" fill="#41A5A2"/>
<path d="M7.08199 30.0912C7.08199 30.0912 7.20305 21.9518 11.6217 18.3754C15.8588 14.9223 19.1274 14.799 24.0303 14.7373C28.9937 14.6756 32.8071 15.2923 35.652 17.8204C38.7995 20.6569 39.768 22.8767 40.4944 25.1582C41.5839 28.488 41.0391 31.7561 40.5549 33.051C40.2522 33.8526 37.0442 35.3941 36.1362 35.8874C33.5334 37.3057 22.5776 38.2306 17.372 37.244C12.1665 36.1958 8.5347 35.3941 7.62676 33.6059C6.71882 31.8794 7.08199 30.0912 7.08199 30.0912Z" fill="#EDEFEF"/>
<path opacity="0.68" d="M44.3079 12.1475C44.3079 12.1475 45.579 9.68101 45.1553 7.52283C44.7921 5.67296 43.521 3.45312 43.521 3.45312C43.521 3.45312 45.2158 4.93302 45.8817 6.41291C46.608 8.13945 46.7291 9.61934 46.3054 11.0376C45.9422 12.3325 45.3974 12.8258 45.3974 12.8258C45.3974 12.8258 45.2158 12.5791 45.0342 12.4558C44.8526 12.3941 44.3079 12.1475 44.3079 12.1475Z" fill="white"/>
<path d="M11.1981 13.4424C11.1981 13.4424 11.1981 12.2091 11.3797 10.9759C11.6823 9.06438 13.1956 6.53623 13.1956 4.80968C13.1956 1.60325 10.8349 0.616654 8.41374 1.17161C5.99256 1.72657 2.48184 3.20647 1.63442 6.04293C1.21072 7.33783 0.605419 9.24936 0.787008 10.7909C0.968597 12.5175 2.42131 14.244 2.72396 14.614C2.72396 14.614 4.35826 12.3941 6.77944 12.5175C8.35321 12.6408 11.1981 13.4424 11.1981 13.4424Z" fill="#41A5A2"/>
<path d="M7.26343 32.311C7.26343 32.311 10.7741 34.3459 13.1953 34.1609C14.5875 34.0376 17.9772 32.4344 19.1272 30.5845C20.2773 28.7963 19.7931 27.933 21.1247 26.3298C22.4564 24.6649 24.0301 24.7882 25.1197 24.7882C26.2092 24.7882 27.6014 24.9116 28.5093 26.3915C29.4173 27.8714 29.5989 31.0778 31.2937 32.0644C32.3832 32.681 34.7439 33.9759 36.5598 33.6676C38.3757 33.421 40.5547 32.5577 40.5547 32.5577C40.5547 32.5577 41.4021 34.5925 40.3731 36.1958C39.4047 37.799 36.015 39.9571 33.7754 41.1904C31.4753 42.4236 27.783 44.4585 24.2723 44.7051C20.7615 44.9518 16.2823 42.0537 15.1323 41.437C13.9822 40.8204 9.44249 37.614 8.29243 35.9491C7.14237 34.3459 7.26343 32.311 7.26343 32.311Z" fill="#427C78"/>
<path d="M24.4543 45.3834C24.2727 45.3834 24.0305 45.3834 23.9095 45.4451C22.6384 45.4451 19.1882 44.5202 15.9801 42.4236C15.1932 41.9303 14.4063 41.437 13.6195 40.9438C10.4114 38.9706 7.62702 37.3057 7.08225 34.6542C6.47695 31.8177 6.65854 28.488 6.71907 26.6998V26.2681C6.71907 25.8365 6.7796 25.2199 6.84013 24.4799C6.84013 23.9866 6.90066 23.4933 6.96119 22.9384L7.74808 23C7.74808 23.555 7.68755 24.11 7.62702 24.5416C7.56649 25.2199 7.56649 25.8365 7.50596 26.2681V26.6998C7.44543 28.4263 7.26384 31.6944 7.80861 34.4692C8.29284 36.7507 10.8956 38.3539 13.9826 40.2038C14.7695 40.6971 15.5564 41.1287 16.3433 41.6837C19.5514 43.7802 22.82 44.6435 23.849 44.5818C24.9385 44.5818 28.2676 43.9035 31.4757 41.992C32.2626 41.4987 33.11 41.0671 33.8969 40.6354C37.0444 38.9089 39.7683 37.429 40.313 35.1475C40.6157 33.9759 40.7367 29.1046 40.6157 22.8151H41.4026C41.5236 27.8714 41.4631 33.8526 41.0999 35.3942C40.4341 37.984 37.5892 39.5255 34.2601 41.3754C33.4732 41.807 32.6863 42.2387 31.8389 42.732C29.0545 44.4585 26.028 45.1984 24.4543 45.3834Z" fill="black"/>
<path d="M41.0392 32.496C40.3128 32.8043 39.4049 33.1743 38.3759 33.421C35.9547 33.9759 32.2018 33.421 30.6281 31.2628C29.2359 29.4129 29.7201 24.8499 25.0594 24.7266C19.9143 24.6649 20.4591 29.1046 18.9459 30.8311C17.1905 32.866 13.4377 34.5925 11.077 33.7909C9.56376 33.2976 7.92946 32.2494 7.14258 31.7561" stroke="black" stroke-width="2" stroke-miterlimit="10"/>
<path d="M41.5235 27.563L40.7972 24.8499C40.7972 24.7882 39.8287 21.2118 38.1339 18.7453C36.7417 16.7721 34.26 15.2306 34.26 15.2306L33.2915 14.6756L34.381 14.4906C34.4416 14.4906 36.1364 14.1823 36.439 12.6408C36.6206 11.4692 36.0153 10.1126 35.4706 8.81771C35.1679 8.20108 34.9258 7.64612 34.7442 7.09117C34.4416 6.04291 34.0179 4.13138 34.8653 2.58982C35.3495 1.66489 36.2575 1.04827 37.468 0.801621C40.3735 0.123337 43.3394 1.66489 44.9737 3.14478C46.8501 4.87133 47.4554 7.39948 47.637 8.75604C47.8791 10.4826 47.6976 12.0241 46.0027 14.6756C45.3974 15.6005 44.8527 16.3405 44.3684 17.0188C43.3394 18.3753 42.5525 19.4853 42.1894 20.8418C41.6446 22.9384 41.5841 24.7266 41.5841 24.7882L41.5235 27.563ZM35.3495 14.9839C36.2575 15.6005 37.7102 16.7721 38.7392 18.252C39.7076 19.7319 40.4945 21.4585 40.9182 22.7534C41.0393 22.1367 41.1604 21.3968 41.3419 20.5952C41.7657 19.0536 42.6131 17.8821 43.6421 16.4638C44.1263 15.7855 44.6711 15.0456 45.2764 14.1823C46.9712 11.4692 46.9712 10.051 46.7896 8.81771C46.608 7.58446 46.0633 5.2413 44.3684 3.69974C42.7341 2.21985 40.0103 0.924945 37.5891 1.54157C36.5601 1.78822 35.8943 2.28151 35.4706 2.9598C34.8047 4.19304 35.1679 5.91958 35.41 6.84452C35.5916 7.33781 35.8337 7.89277 36.0759 8.5094C36.6812 9.86596 37.347 11.4075 37.1049 12.8257C36.9838 14.059 36.0759 14.6756 35.3495 14.9839Z" fill="black"/>
<path d="M45.2158 15.5389C45.1553 15.5389 45.0948 15.5389 45.0342 15.5389C44.7921 15.4156 44.671 15.2306 44.7921 14.9839C44.9737 14.4906 44.9132 14.1207 44.7316 13.8123C44.3684 13.2574 43.2789 12.9491 41.8867 12.9491C39.8892 12.9491 36.7417 13.9973 36.6811 13.9973C36.4995 14.059 36.2574 13.9357 36.1969 13.7507C36.1364 13.5657 36.2574 13.319 36.439 13.2574C36.5601 13.1957 39.7681 12.1475 41.8867 12.1475C43.0973 12.1475 44.671 12.3324 45.3974 13.319C45.7606 13.8123 45.8211 14.4906 45.579 15.2306C45.4579 15.4156 45.3369 15.5389 45.2158 15.5389Z" fill="black"/>
<path d="M34.8047 15.2923C34.7442 15.2923 34.6837 15.2923 34.6232 15.2923C31.6572 13.9973 27.8438 13.3191 23.9699 13.3191C20.1566 13.3191 16.5853 13.9973 13.6194 15.2923C13.4378 15.3539 13.1957 15.2923 13.0746 15.1073C12.9535 14.9223 13.0746 14.6756 13.2562 14.5523C16.3432 13.2574 20.0355 12.5791 23.9094 12.5175C27.9044 12.5175 31.7783 13.1957 34.8653 14.5523C35.0469 14.614 35.1679 14.8606 35.0469 15.1073C35.0469 15.2306 34.9258 15.2923 34.8047 15.2923Z" fill="black"/>
<path d="M6.83992 28.6113L6.71886 24.6649C6.71886 24.6649 6.65833 22.8767 6.05303 20.7185C5.68985 19.3003 4.84244 18.252 3.87396 16.8955C3.38973 16.2172 2.78443 15.4772 2.17913 14.5523C0.484303 11.9008 0.242185 10.3593 0.484303 8.63274C0.665892 7.27617 1.21066 4.74802 3.08708 3.02148C4.72138 1.47992 7.6268 -0.061635 10.5322 0.554987C11.7428 0.863298 12.6508 1.41826 13.1955 2.34319C14.0429 3.82308 13.6798 5.79627 13.3771 6.84453C13.1955 7.39949 12.9534 8.01611 12.6508 8.63274C12.106 9.92764 11.5007 11.3459 11.7428 12.4558C12.0455 13.9973 13.7403 14.244 13.8008 14.244L14.9509 14.429L13.9219 15.0456C13.9219 15.0456 11.4402 16.4638 10.048 18.622C8.05051 21.5818 7.56627 24.7266 7.50574 24.7266L6.83992 28.6113ZM8.53475 1.29493C6.71886 1.47992 4.84244 2.46652 3.63184 3.6381C1.93701 5.17965 1.45278 7.52282 1.27119 8.81772C1.0896 10.1126 1.0896 11.5309 2.84496 14.1823C3.38973 15.0456 3.99502 15.7856 4.47926 16.4638C5.50826 17.8204 6.41621 18.992 6.83992 20.5335C7.0215 21.2735 7.14256 21.8901 7.26362 22.5067C7.68733 21.2735 8.29263 19.7319 9.38216 18.1287C10.4112 16.5872 11.8639 15.4156 12.7718 14.799C12.0455 14.4906 11.198 13.874 10.9559 12.5791C10.7138 11.1609 11.3796 9.61933 11.9244 8.26276C12.1665 7.64614 12.4086 7.09118 12.5902 6.59788C12.8929 5.67295 13.1955 3.94641 12.5297 2.71316C12.106 2.03488 11.3796 1.54158 10.4112 1.29493C9.80587 1.23327 9.20057 1.23327 8.53475 1.29493Z" fill="black"/>
<path d="M3.08727 15.4156C2.90568 15.4156 2.72409 15.2922 2.66356 15.1073C2.5425 14.5523 2.66356 13.9973 3.02674 13.504C3.69256 12.6408 5.08475 12.1475 6.65852 12.0858C8.77705 12.0858 11.6219 13.0107 11.743 13.0724C11.9246 13.1341 12.0457 13.3807 11.9851 13.5657C11.9246 13.7507 11.6825 13.874 11.5009 13.8124C11.5009 13.8124 8.65599 12.8874 6.71905 12.8874C5.38739 12.8874 4.1768 13.3191 3.69256 13.9973C3.45045 14.3057 3.38992 14.5523 3.38992 14.9223C3.45045 15.1689 3.32939 15.3539 3.08727 15.4156Z" fill="black"/>
<path opacity="0.68" d="M8.35303 11.7775C8.35303 11.7775 10.4716 8.94105 11.3795 6.28958C12.1059 4.25472 11.5611 2.58984 11.5611 2.58984C11.5611 2.58984 11.9848 2.89815 12.348 3.6381C12.6506 4.37805 12.7112 5.48797 12.348 6.4129C11.5006 8.44775 10.9558 9.55767 10.7137 10.236C10.3505 11.2226 10.4716 12.2091 10.4716 12.2091C10.4716 12.2091 9.80574 12.0242 9.62415 11.9625C9.26097 11.9008 8.35303 11.7775 8.35303 11.7775Z" fill="white"/>
<path d="M26.8752 27.0698C26.8752 27.8097 26.8752 28.7347 26.9358 29.9062C26.9963 31.3245 30.2649 35.0859 32.565 37.3674C33.4124 38.169 33.7756 39.7105 34.1388 41.0671C34.1388 41.0671 38.9812 38.6006 40.2523 36.3808C41.2813 34.5309 41.1602 31.0778 41.0997 27.5631C41.0392 24.4183 40.2523 22.3834 40.2523 22.3834C38.3759 21.0269 37.4679 20.4103 36.1363 19.917C34.8046 19.4237 30.4465 17.8204 28.9332 19.1154C28.0253 19.917 27.6016 20.9652 27.3595 22.0751C27.3595 22.0751 26.9358 23.1234 24.8778 23.1234C22.8197 23.1234 22.4566 22.0135 22.4566 22.0135C22.2144 20.7186 21.7907 19.547 20.7617 18.6221C19.2485 17.3271 14.8904 18.8687 13.5587 19.4853C11.4402 20.4719 9.4427 22.1985 7.02151 25.2816C7.02151 25.2816 6.35569 33.051 7.32416 34.9009C9.26111 38.5389 15.3141 41.4987 15.3141 41.4987C15.3141 41.4987 15.2535 38.6006 15.9799 37.7373C18.3406 35.0242 22.7592 31.5095 22.9408 29.3513C23.0013 28.3647 23.0013 27.6247 23.0013 26.9465C23.0013 26.9465 22.6987 25.7132 24.9383 25.7132C26.4515 25.8365 26.8752 27.0698 26.8752 27.0698Z" fill="#41A5A2"/>
<path d="M33.9571 41.5604L33.7755 40.8821C33.4123 39.5872 33.0492 38.2923 32.3833 37.614C30.2043 35.5175 26.6935 31.5094 26.633 29.9062V29.4129C26.5725 28.488 26.5725 27.8097 26.5725 27.1314C26.4514 26.8848 26.0882 26.2065 25.0592 26.2065C24.0908 26.2065 23.7276 26.4531 23.6065 26.6381C23.546 26.7614 23.546 26.9464 23.546 26.9464V27.0081V27.0698C23.546 27.8097 23.546 28.6113 23.4855 29.5362C23.3644 31.2011 21.2459 33.236 19.0063 35.4558C18.0983 36.3807 17.1299 37.3057 16.4035 38.1689C15.9193 38.7239 15.7982 40.6354 15.7982 41.6837V42.3003L15.1929 41.992C14.9508 41.8687 9.01889 38.9706 7.02141 35.2708C6.05294 33.3593 6.65824 26.2681 6.71877 25.4049V25.2815L6.7793 25.1582C9.13995 22.1984 11.198 20.3486 13.4981 19.3003C14.6481 18.7454 19.3695 16.9572 21.1248 18.4987C22.3354 19.547 22.6986 20.9652 22.9407 22.0751C23.0012 22.1984 23.4249 22.8767 24.9987 22.8767C26.5725 22.8767 26.9962 22.1984 27.1173 22.0751C27.4199 20.6569 27.9647 19.6703 28.8121 18.9303C29.9016 17.9437 32.5044 18.1904 36.3783 19.6703C37.7099 20.1636 38.7389 20.8419 40.5548 22.1984L40.6759 22.2601L40.7364 22.3834C40.797 22.4451 41.5233 24.5416 41.6444 27.6864V27.933C41.7654 31.4478 41.826 34.8392 40.7364 36.6891C39.4048 38.9706 34.6229 41.1904 34.4413 41.3137L33.9571 41.5604ZM24.4539 25.4665C24.6355 25.4665 24.8171 25.4665 24.9987 25.4665C26.7541 25.4665 27.2988 26.7614 27.2988 26.8231V27.0698V27.1314C27.2988 27.748 27.2988 28.488 27.3594 29.4129V29.9062C27.4199 31.0161 30.2648 34.5309 32.8676 37.059C33.715 37.8606 34.0782 39.1555 34.4413 40.5121C35.6519 39.8338 38.9811 37.9223 39.9495 36.1958C40.918 34.5309 40.797 31.1395 40.7364 27.8714V27.6247C40.6759 25.0349 40.1311 23.1234 39.9495 22.6917C38.2547 21.4585 37.2862 20.8419 36.0756 20.3486C31.2938 18.5604 29.7806 19.0537 29.2963 19.4853C28.57 20.1019 28.1463 20.9652 27.8436 22.2601V22.3218C27.8436 22.3834 27.2383 23.6167 24.9987 23.6167C22.6986 23.6167 22.2144 22.3218 22.2144 22.2601V22.1984C21.9722 20.7185 21.488 19.732 20.7011 19.0537C19.4905 18.0054 15.435 19.3003 13.9218 19.9786C11.7427 21.0269 9.80578 22.6917 7.56618 25.5282C7.38459 27.748 7.08194 33.421 7.8083 34.7775C9.32154 37.614 13.4981 40.0805 15.0113 40.9437C15.0113 39.9572 15.1929 38.2923 15.7982 37.5523C16.5246 36.6891 17.493 35.7025 18.4615 34.7775C20.3985 32.866 22.5775 30.7078 22.6381 29.4129C22.6986 28.5496 22.6986 27.748 22.6986 27.0698C22.6986 26.8848 22.6381 26.5148 22.9407 26.1448C23.1828 25.7748 23.7276 25.5282 24.4539 25.4665Z" fill="black"/>
<path d="M20.3481 29.3091C20.9363 26.1646 19.1771 23.1813 16.4187 22.6458C13.6603 22.1103 10.9473 24.2253 10.3591 27.3698C9.77082 30.5143 11.5301 33.4976 14.2884 34.0331C17.0468 34.5686 19.7598 32.4536 20.3481 29.3091Z" fill="white"/>
<path d="M15.6773 34.4692C15.1931 34.5309 14.7088 34.4692 14.2246 34.4075C12.7719 34.0992 11.5613 33.2359 10.7744 31.8794C9.98753 30.5228 9.68488 28.9196 9.98753 27.3164C10.5928 23.9866 13.5588 21.7051 16.4642 22.2601C17.9169 22.5684 19.1275 23.4317 19.9144 24.7882C20.7013 26.1448 21.0039 27.748 20.7013 29.3512C20.3986 30.9544 19.5512 32.3727 18.3406 33.3593C17.5537 34.0376 16.6458 34.4075 15.6773 34.4692ZM15.1325 23C13.0745 23.2467 11.1981 25.0349 10.7744 27.4397C10.5323 28.8579 10.7744 30.2762 11.4402 31.4477C12.1061 32.6193 13.1351 33.3593 14.4062 33.6059C15.6168 33.8526 16.8879 33.5443 17.9169 32.681C19.0064 31.8794 19.7328 30.5845 19.9749 29.1662C20.217 27.748 19.9749 26.3298 19.3091 25.1582C18.5827 24.0483 17.5537 23.3083 16.3431 23.0617C15.9194 23 15.5563 22.9384 15.1325 23Z" fill="black"/>
<path d="M19.2063 29.1282C19.6569 26.7196 18.3184 24.4364 16.2168 24.0284C14.1152 23.6203 12.0462 25.2421 11.5956 27.6507C11.1451 30.0593 12.4835 32.3425 14.5851 32.7505C16.6867 33.1585 18.7557 31.5368 19.2063 29.1282Z" fill="white"/>
<path d="M15.6774 33.1743C15.3143 33.2359 14.8905 33.1743 14.5274 33.1126C12.2272 32.681 10.714 30.1528 11.1982 27.563C11.4404 26.3298 12.1062 25.2198 13.0141 24.4799C13.9826 23.7399 15.1327 23.4316 16.2222 23.6783C17.3723 23.9249 18.3407 24.6032 18.946 25.6515C19.5513 26.6997 19.7934 27.9946 19.5513 29.2279C19.3092 30.4611 18.6434 31.571 17.7354 32.311C17.1301 32.8043 16.4038 33.1126 15.6774 33.1743ZM15.2537 24.4182C14.6484 24.4799 14.0431 24.7265 13.5589 25.1582C12.772 25.7748 12.2272 26.6997 12.0457 27.748C11.6219 29.9062 12.8325 32.0027 14.709 32.3727C15.6169 32.5576 16.5248 32.311 17.3117 31.6944C18.0986 31.0778 18.6434 30.1528 18.825 29.1046C19.0066 28.0563 18.825 26.9464 18.3407 26.0831C17.8565 25.2198 17.0696 24.6649 16.1617 24.4799C15.859 24.3566 15.5564 24.3566 15.2537 24.4182Z" fill="black"/>
<path d="M16.9738 28.5199C17.0795 27.5724 16.492 26.7264 15.6616 26.6303C14.8312 26.5342 14.0724 27.2243 13.9667 28.1718C13.8611 29.1192 14.4486 29.9652 15.2789 30.0613C16.1093 30.1574 16.8682 29.4673 16.9738 28.5199Z" fill="#1A1A1A"/>
<path d="M15.6169 30.4611C15.4958 30.4611 15.3748 30.4611 15.2537 30.4611C14.2247 30.3378 13.4378 29.2896 13.6194 28.118C13.68 27.563 13.9221 27.0697 14.3458 26.6997C14.7695 26.3298 15.2537 26.1448 15.7985 26.2064C16.8275 26.3298 17.6144 27.378 17.4328 28.5496C17.2512 29.5979 16.4643 30.3995 15.6169 30.4611ZM15.3748 27.0697C15.1327 27.0697 14.9511 27.193 14.7695 27.378C14.5274 27.6247 14.3458 27.933 14.3458 28.303C14.2853 29.0429 14.709 29.6595 15.3143 29.7212C15.9196 29.7829 16.4643 29.2279 16.5854 28.5496C16.6459 27.8097 16.2222 27.193 15.6169 27.1314C15.5564 27.0081 15.4958 27.0081 15.3748 27.0697Z" fill="black"/>
<path d="M35.0186 34.0277C37.7927 33.5846 39.6469 30.6617 39.1602 27.4993C38.6734 24.3368 36.03 22.1324 33.2559 22.5755C30.4818 23.0186 28.6275 25.9415 29.1143 29.1039C29.601 32.2664 32.2445 34.4708 35.0186 34.0277Z" fill="white"/>
<path d="M34.6229 34.4692C33.2913 34.5308 32.0807 34.0992 30.9911 33.2359C29.7805 32.2493 28.9937 30.8311 28.7515 29.1662C28.2673 25.8365 30.2648 22.6917 33.2307 22.1984C36.1967 21.7051 39.0416 24.1099 39.5863 27.4397C40.1311 30.7694 38.1942 33.8526 35.2887 34.3459C35.2887 34.3459 35.1677 34.4075 34.9861 34.4075C34.865 34.4692 34.6834 34.4692 34.6229 34.4692ZM33.5334 23C33.4728 23 33.4123 23 33.2913 23C30.749 23.4316 29.0542 26.1448 29.4779 29.0429C29.72 30.4611 30.3858 31.756 31.4148 32.6193C32.4438 33.4826 33.6544 33.8526 34.9256 33.6676C37.4678 33.2359 39.1626 30.5228 38.7389 27.6247C38.3152 24.7266 36.0151 22.6917 33.5334 23Z" fill="black"/>
<path d="M34.8647 32.6894C36.9453 32.3571 38.3339 30.1513 37.9663 27.7626C37.5986 25.374 35.6139 23.707 33.5333 24.0393C31.4528 24.3716 30.0642 26.5774 30.4318 28.9661C30.7995 31.3547 32.7842 33.0217 34.8647 32.6894Z" fill="white"/>
<path d="M34.1994 33.051C32.1414 32.9893 30.386 31.3244 30.0228 28.9812C29.8413 27.748 30.0834 26.5148 30.6887 25.4665C31.3545 24.4182 32.323 23.8016 33.4125 23.6166C35.7126 23.2467 37.8917 25.0349 38.3154 27.6247C38.497 28.8579 38.2549 30.0912 37.6496 31.1394C37.0443 32.0644 36.2574 32.681 35.2889 32.9276C35.2284 32.9276 35.0468 32.9893 34.8047 33.051C34.5626 33.051 34.2599 33.051 34.1994 33.051ZM33.7152 24.4182C33.6546 24.4182 33.5941 24.4182 33.5336 24.4182C32.6256 24.5416 31.8387 25.0965 31.3545 25.8981C30.8097 26.7614 30.6281 27.8097 30.7492 28.8579C31.0518 31.0161 32.8677 32.496 34.7442 32.2493C35.6521 32.126 36.439 31.5711 36.9232 30.7695C37.468 29.9062 37.6496 28.8579 37.5285 27.8097C37.2259 25.7131 35.531 24.2333 33.7152 24.4182Z" fill="black"/>
<path d="M34.4004 30.3163C35.226 30.1844 35.7778 29.3139 35.6328 28.3719C35.4878 27.4299 34.7009 26.7731 33.8753 26.905C33.0497 27.0369 32.4979 27.9074 32.6429 28.8495C32.7879 29.7915 33.5747 30.4482 34.4004 30.3163Z" fill="#1A1A1A"/>
<path d="M34.3808 30.7078C33.3518 30.8311 32.4438 30.0295 32.2622 28.9196C32.0806 27.748 32.7465 26.6381 33.7755 26.5148C34.8045 26.3298 35.773 27.1314 35.9545 28.303C36.1361 29.4746 35.4098 30.5228 34.3808 30.7078C34.4413 30.7078 34.3808 30.7078 34.3808 30.7078ZM33.9571 27.2547C33.2912 27.378 32.9281 28.0563 32.9886 28.7346C33.1096 29.4746 33.6544 29.9678 34.2597 29.8445C34.865 29.7212 35.2887 29.1046 35.1677 28.3646C35.1071 27.748 34.5624 27.2547 33.9571 27.2547Z" fill="black"/>
</g>
<defs>
<clipPath id="clip0_2_4">
<rect width="48" height="46" fill="white"/>
</clipPath>
</defs>
</svg>
