<svg width="21" height="13" viewBox="0 0 21 13" fill="none" xmlns="http://www.w3.org/2000/svg">
<path d="M5.399 12.677C4.535 12.677 3.797 12.515 3.185 12.191C2.573 11.849 2.069 11.399 1.673 10.841C1.295 10.265 1.016 9.617 0.836 8.897C0.656 8.177 0.566 7.439 0.566 6.683C0.566 5.927 0.656 5.189 0.836 4.469C1.016 3.749 1.295 3.11 1.673 2.552C2.051 1.976 2.546 1.526 3.158 1.202C3.788 0.859999 4.535 0.688999 5.399 0.688999C6.191 0.688999 6.884 0.886999 7.478 1.283C8.09 1.661 8.639 2.156 9.125 2.768C9.611 3.38 10.061 4.037 10.475 4.739C10.889 4.037 11.339 3.38 11.825 2.768C12.311 2.156 12.851 1.661 13.445 1.283C14.039 0.886999 14.705 0.688999 15.443 0.688999C16.343 0.688999 17.099 0.859999 17.711 1.202C18.323 1.526 18.818 1.976 19.196 2.552C19.592 3.11 19.88 3.749 20.06 4.469C20.24 5.189 20.33 5.927 20.33 6.683C20.33 7.439 20.24 8.177 20.06 8.897C19.88 9.617 19.592 10.265 19.196 10.841C18.818 11.399 18.323 11.849 17.711 12.191C17.099 12.515 16.352 12.677 15.47 12.677C14.714 12.677 14.03 12.506 13.418 12.164C12.824 11.804 12.284 11.336 11.798 10.76C11.33 10.166 10.88 9.527 10.448 8.843C10.052 9.527 9.611 10.166 9.125 10.76C8.639 11.336 8.099 11.804 7.505 12.164C6.911 12.506 6.209 12.677 5.399 12.677ZM5.426 10.571C5.84 10.571 6.227 10.463 6.587 10.247C6.947 10.031 7.28 9.743 7.586 9.383C7.892 9.023 8.18 8.627 8.45 8.195C8.72 7.745 8.972 7.295 9.206 6.845C8.954 6.359 8.693 5.882 8.423 5.414C8.153 4.928 7.865 4.487 7.559 4.091C7.253 3.695 6.92 3.38 6.56 3.146C6.218 2.912 5.84 2.795 5.426 2.795C4.67 2.795 4.022 3.119 3.482 3.767C2.96 4.397 2.699 5.369 2.699 6.683C2.699 7.979 2.96 8.951 3.482 9.599C4.022 10.247 4.67 10.571 5.426 10.571ZM15.47 10.598C16.262 10.598 16.91 10.274 17.414 9.626C17.936 8.96 18.197 7.979 18.197 6.683C18.197 5.369 17.927 4.397 17.387 3.767C16.865 3.119 16.226 2.795 15.47 2.795C15.038 2.795 14.642 2.912 14.282 3.146C13.922 3.38 13.589 3.695 13.283 4.091C12.977 4.469 12.689 4.892 12.419 5.36C12.167 5.828 11.924 6.305 11.69 6.791C11.924 7.241 12.167 7.691 12.419 8.141C12.689 8.591 12.977 9.005 13.283 9.383C13.607 9.743 13.94 10.04 14.282 10.274C14.642 10.49 15.038 10.598 15.47 10.598Z" fill="#1B2438"/>
</svg>
