<svg width="15" height="15" viewBox="0 0 15 15" fill="none" xmlns="http://www.w3.org/2000/svg">
<path d="M4.16656 0.499655H10.8332C12.8583 0.499655 14.5 2.14133 14.5 4.16637V10.807C14.5 12.8321 12.8583 14.4738 10.8332 14.4738H4.16656C2.14161 14.4738 0.499925 12.8321 0.499925 10.807V4.16637C0.499925 2.14133 2.14161 0.499655 4.16656 0.499655Z" fill="#869DC8" stroke="#869DC8"/>
<path d="M10.1477 4.39633L6.8523 8.10367C6.66117 8.31869 6.32846 8.32846 6.12504 8.12504L4.85355 6.85355C4.65829 6.65829 4.34171 6.65829 4.14645 6.85355L3.35355 7.64645C3.15829 7.84171 3.15829 8.15829 3.35355 8.35355L6.13074 11.1307C6.33203 11.332 6.66052 11.3249 6.85287 11.115L11.6765 5.8529C11.8574 5.65557 11.8508 5.35077 11.6615 5.16148L10.875 4.37496C10.6715 4.17154 10.3388 4.18131 10.1477 4.39633Z" fill="white"/>
</svg>
