<svg width="76" height="73" viewBox="0 0 76 73" fill="none" xmlns="http://www.w3.org/2000/svg">
<g filter="url(#filter0_d_40_12)">
<path fill-rule="evenodd" clip-rule="evenodd" d="M23.9999 10.9999H52C57.5228 10.9999 61.9999 15.4771 61.9999 20.9999V48.9999C61.9999 54.5228 57.5228 58.9999 52 58.9999H23.9999C18.4771 58.9999 13.9999 54.5228 13.9999 48.9999V20.9999C13.9999 15.4771 18.4771 10.9999 23.9999 10.9999Z" fill="#0F2139"/>
<path fill-rule="evenodd" clip-rule="evenodd" d="M23.9999 10.9999H52C57.5228 10.9999 61.9999 15.4771 61.9999 20.9999V48.9999C61.9999 54.5228 57.5228 58.9999 52 58.9999H23.9999C18.4771 58.9999 13.9999 54.5228 13.9999 48.9999V20.9999C13.9999 15.4771 18.4771 10.9999 23.9999 10.9999Z" fill="#869DC8"/>
</g>
<path d="M37.0361 43.0461C36.8434 43.0461 36.6796 42.9786 36.5447 42.8437C36.4098 42.7088 36.3423 42.545 36.3423 42.3523V36.7155H30.7922C30.5995 36.7155 30.4357 36.648 30.3008 36.5131C30.1659 36.3782 30.0985 36.2144 30.0985 36.0217V34.4896C30.0985 34.2777 30.1659 34.1139 30.3008 33.9982C30.4357 33.8633 30.5995 33.7959 30.7922 33.7959H36.3423V28.3036C36.3423 28.1109 36.4098 27.9471 36.5447 27.8122C36.6796 27.6773 36.8434 27.6098 37.0361 27.6098H38.7127C38.9247 27.6098 39.0885 27.6773 39.2041 27.8122C39.339 27.9471 39.4065 28.1109 39.4065 28.3036V33.7959H44.9566C45.1493 33.7959 45.3131 33.8633 45.448 33.9982C45.5829 34.1139 45.6503 34.2777 45.6503 34.4896V36.0217C45.6503 36.2144 45.5829 36.3782 45.448 36.5131C45.3131 36.648 45.1493 36.7155 44.9566 36.7155H39.4065V42.3523C39.4065 42.545 39.339 42.7088 39.2041 42.8437C39.0885 42.9786 38.9247 43.0461 38.7127 43.0461H37.0361Z" fill="#FCFCFD"/>
<defs>
<filter id="filter0_d_40_12" x="1.59988" y="-1.40009" width="72.8" height="72.8" filterUnits="userSpaceOnUse" color-interpolation-filters="sRGB">
<feFlood flood-opacity="0" result="BackgroundImageFix"/>
<feColorMatrix in="SourceAlpha" type="matrix" values="0 0 0 0 0 0 0 0 0 0 0 0 0 0 0 0 0 0 127 0" result="hardAlpha"/>
<feOffset/>
<feGaussianBlur stdDeviation="6.2"/>
<feColorMatrix type="matrix" values="0 0 0 0 0.466667 0 0 0 0 0.513726 0 0 0 0 0.619608 0 0 0 0.61 0"/>
<feBlend mode="normal" in2="BackgroundImageFix" result="effect1_dropShadow_40_12"/>
<feBlend mode="normal" in="SourceGraphic" in2="effect1_dropShadow_40_12" result="shape"/>
</filter>
</defs>
</svg>
