<svg width="425" height="621" viewBox="0 0 425 621" fill="none" xmlns="http://www.w3.org/2000/svg">
<path d="M290.315 558.9C282.82 558.9 270.475 557.067 269.814 557.067C268.712 556.838 267.83 555.692 268.051 554.317C268.271 553.171 269.373 552.255 270.696 552.484C270.916 552.484 283.481 554.317 290.315 554.317C300.896 554.317 313.681 552.484 313.681 552.484C314.783 552.255 316.106 553.171 316.326 554.317C316.546 555.463 315.665 556.838 314.563 557.067C314.122 556.838 301.557 558.9 290.315 558.9Z" fill="black"/>
<path d="M309.933 414.535C310.154 415.451 310.154 416.368 310.374 417.285C318.53 465.177 319.191 517.882 316.326 544.234C314.783 557.983 314.783 574.482 315.444 581.815C316.105 589.148 321.616 592.585 325.584 594.189C333.299 597.168 333.74 602.897 331.977 604.959C329.552 608.397 317.648 610.001 301.116 609.772C287.89 609.542 285.024 607.709 282.819 605.418C281.056 603.585 278.19 600.376 277.529 592.585C276.868 584.794 274.002 571.274 272.239 563.941C269.593 552.025 261.217 522.465 244.684 502.529C237.851 494.05 228.151 487.405 218.893 484.655C215.587 483.738 212.501 483.28 209.194 483.28C205.887 483.28 201.479 483.738 198.172 484.655C189.134 487.405 179.435 494.05 172.602 502.529C156.069 522.465 147.692 552.025 145.047 563.941C143.504 571.503 140.418 585.023 139.757 592.585C139.095 600.376 136.45 603.355 134.466 605.418C132.262 607.709 129.396 609.542 116.17 609.772C99.6374 610.001 87.9543 608.397 85.3091 604.959C83.5456 602.897 84.2069 597.168 91.7017 594.189C95.4492 592.585 101.18 589.148 101.842 581.815C102.503 574.482 102.283 557.754 100.96 544.234C98.0944 517.653 99.8579 464.719 108.234 416.597C108.455 415.451 108.675 414.535 108.896 413.389C108.896 413.389 141.741 424.159 209.194 424.617C272.018 425.534 309.933 414.535 309.933 414.535Z" fill="#E6ECEC"/>
<path d="M304.863 612.292C303.761 612.292 302.438 612.292 301.336 612.292C288.551 612.063 284.583 610.459 281.497 607.48C279.072 604.959 276.207 601.293 275.545 593.273C274.884 585.94 272.018 572.42 270.475 565.087V564.858C269.594 560.962 261.658 526.59 243.362 504.362C236.749 496.342 227.49 489.925 218.673 487.176C215.807 486.259 212.942 486.03 209.635 485.801C206.549 485.801 202.361 486.03 199.275 487.176C190.457 489.925 181.419 496.342 174.586 504.362C156.29 526.59 148.354 560.962 147.472 564.858V565.087C145.929 572.42 143.063 585.711 142.402 593.273C141.741 601.064 139.096 604.73 136.45 607.48C133.585 610.459 129.396 612.063 116.611 612.292C103.826 612.521 87.7341 611.605 84.2071 606.793C83.1049 605.418 82.6641 603.126 83.3254 600.835C83.7662 598.772 85.7502 594.877 91.7019 592.585C96.9924 590.294 100.078 586.856 100.519 582.044C101.181 574.711 100.96 558.213 99.6376 544.922C96.7719 518.111 98.5354 465.635 106.912 416.826L108.014 411.327L110.219 412.014C110.439 412.014 143.725 422.555 210.076 423.242C271.357 423.701 309.272 412.931 309.713 412.931L311.917 412.243L312.799 417.514C320.735 464.031 321.837 516.965 318.751 545.151C317.428 558.671 317.208 574.941 317.869 582.273C318.31 587.086 321.175 590.523 326.686 592.814C332.638 595.106 334.622 599.001 335.063 601.064C335.724 603.355 335.283 605.647 333.961 607.251C330.213 611.146 316.767 612.292 304.863 612.292ZM209.415 481.447H209.635C213.382 481.447 216.689 481.905 219.995 482.822C229.474 485.801 239.394 492.675 246.668 501.383C265.185 523.84 273.341 557.296 274.664 563.712V563.941C276.427 571.732 279.293 585.023 279.954 592.585C280.615 599.918 283.261 602.439 284.583 603.814C285.906 605.189 287.89 607.251 301.336 607.48C321.837 607.709 329.111 605.189 330.434 603.584C330.654 603.355 330.875 602.439 330.654 601.522C330.213 599.46 328.009 597.627 324.923 596.481C316.105 592.814 313.681 586.627 313.46 582.273C312.799 574.711 313.019 557.983 314.342 544.234C317.208 516.278 316.105 464.031 308.39 417.743V417.284C299.352 419.576 263.421 427.596 209.855 427.138C151.881 426.68 119.697 418.889 111.1 416.368L110.88 417.055C102.503 465.406 100.96 517.424 103.605 544.005C105.148 557.754 105.148 574.482 104.487 582.044C104.046 586.627 101.842 592.585 93.0245 596.252C89.9384 597.397 87.7341 599.231 87.2932 601.522C87.0728 602.668 87.2932 603.355 87.5136 603.584C88.8363 605.189 96.1106 607.938 116.611 607.48C130.058 607.251 132.042 605.189 133.364 603.814C134.687 602.439 137.332 599.689 137.993 592.585C138.655 584.794 141.52 571.732 143.284 563.941V563.712C144.606 557.296 152.763 523.84 171.279 501.383C178.554 492.675 188.473 485.801 197.952 482.822C202.361 481.447 207.431 481.447 209.415 481.447Z" fill="black"/>
<path d="M127.412 558.9C132.482 558.9 140.198 557.983 144.606 557.296C144.827 557.296 144.827 557.296 145.047 557.296L146.37 552.484C146.37 552.484 146.149 552.484 145.929 552.484C142.622 552.942 133.144 554.317 127.412 554.317C117.934 554.317 106.691 552.713 104.487 552.484H104.267C104.267 552.484 104.267 553.4 104.487 555.004C104.487 556.379 104.707 557.296 104.707 557.296H104.928C108.455 557.525 118.374 558.9 127.412 558.9Z" fill="black"/>
<path d="M290.315 558.9C285.245 558.9 277.53 557.983 273.121 557.296C272.9 557.296 272.9 557.296 272.68 557.296L271.357 552.484C271.357 552.484 271.578 552.484 271.798 552.484C275.105 552.942 284.584 554.317 290.315 554.317C299.794 554.317 311.036 552.713 313.24 552.484H313.461C313.461 552.484 313.461 553.4 313.24 555.004C313.24 556.379 313.02 557.296 313.02 557.296H312.799C309.272 557.525 299.353 558.9 290.315 558.9Z" fill="black"/>
<path d="M355.343 232.13C355.343 232.13 356.004 200.737 356.665 197.07C357.547 192.716 361.956 192.258 363.058 194.779C364.16 197.299 363.278 202.799 366.144 206.694C369.671 211.277 372.537 209.903 374.962 207.153C377.386 204.403 383.118 194.32 385.763 192.487C388.629 190.425 393.258 191.57 391.274 196.841C389.29 202.111 381.354 207.84 381.575 210.361C381.795 212.882 392.156 199.82 395.462 197.758C399.43 195.466 404.279 198.445 401.634 203.028C398.989 207.611 386.645 215.402 388.188 217.006C389.731 218.61 398.989 207.84 402.736 208.299C406.484 208.757 408.027 212.423 402.736 217.923C397.446 223.193 391.494 225.256 391.715 227.089C391.935 228.922 400.753 222.506 404.059 222.277C407.806 222.048 410.231 225.943 404.279 230.755C398.328 235.568 385.322 236.942 380.472 239.692C375.843 242.442 373.639 244.734 373.639 244.734" fill="white"/>
<path d="M373.859 247.254C373.198 247.254 372.757 247.025 372.316 246.567C371.434 245.65 371.434 244.275 372.316 243.359C372.316 243.359 374.52 241.067 379.591 238.088C381.795 236.713 385.101 235.797 389.069 234.88C394.139 233.505 399.871 231.901 403.177 229.38C405.602 227.547 406.043 225.943 406.043 225.485C406.043 225.256 405.382 225.027 404.5 225.027C403.398 225.027 400.532 226.631 398.328 227.776C394.58 229.839 392.596 230.755 391.053 229.839C390.392 229.38 389.951 228.693 389.731 227.776C389.51 225.485 391.494 224.11 394.36 222.277C396.344 220.902 398.989 219.298 401.634 216.777C404.279 214.256 404.72 212.423 404.5 211.736C404.279 211.048 403.398 211.048 402.957 211.048C401.634 211.048 397.887 214.256 396.123 215.631C392.155 218.839 389.29 221.131 387.306 218.839C386.865 218.381 386.644 217.465 386.644 216.777C386.865 214.715 388.849 213.111 393.258 209.215C396.123 206.924 399.43 203.945 400.532 202.111C401.193 201.195 401.193 200.507 400.752 200.049C400.091 199.362 398.548 199.132 397.225 200.049C396.123 200.737 393.258 203.715 391.053 206.236C385.542 211.965 383.779 213.798 381.795 213.111C380.913 212.882 380.252 211.965 380.031 211.048C379.591 208.757 381.574 206.465 384.44 203.486C386.644 201.195 388.849 198.674 389.731 196.383C390.171 195.237 390.171 194.549 389.951 194.32C389.51 194.091 388.408 194.091 387.526 194.779C386.204 195.695 383.338 200.049 381.354 203.028C379.591 205.549 378.268 207.84 377.166 208.986C375.182 211.277 373.198 212.423 370.994 212.194C368.789 212.194 366.805 210.819 364.821 208.299C362.617 205.32 362.176 201.653 361.956 198.903C361.735 197.758 361.735 196.383 361.515 195.924C361.515 195.695 361.074 195.695 360.853 195.695C360.633 195.695 359.531 195.924 359.31 197.758C358.87 200.278 358.208 219.985 357.988 232.589C357.988 233.734 357.106 234.88 355.783 234.88C354.681 234.88 353.579 233.734 353.579 232.589C353.579 229.38 354.24 200.737 354.902 197.07C355.563 194.091 357.547 191.8 360.192 191.57C362.397 191.341 364.38 192.487 365.262 194.32C365.924 195.466 365.924 197.07 366.144 198.674C366.364 200.966 366.585 203.715 368.128 205.778C368.789 206.694 369.891 207.84 370.994 208.069C371.655 208.069 372.757 207.382 373.859 206.236C374.741 205.32 376.064 203.028 377.607 200.737C380.913 195.695 383.118 192.487 384.881 191.341C387.306 189.737 390.612 189.508 392.376 191.112C393.258 191.8 394.801 193.633 393.919 197.07C394.139 196.841 394.58 196.612 394.801 196.383C397.666 194.549 401.414 195.008 403.398 197.07C404.941 198.674 405.822 201.424 403.838 204.632C403.398 205.32 402.957 205.778 402.516 206.465C402.736 206.465 402.957 206.465 403.177 206.465C405.602 206.694 407.586 208.069 408.247 210.361C408.688 211.965 408.908 215.402 404.279 219.985C404.059 220.214 403.838 220.444 403.838 220.444H404.059C406.704 220.214 409.129 221.589 409.79 223.881C410.231 225.256 410.892 228.693 405.602 233.047C401.634 236.255 395.462 237.859 389.951 239.463C386.424 240.38 383.118 241.296 381.574 242.213C377.166 244.963 375.182 246.796 375.182 246.796C374.961 247.025 374.521 247.254 373.859 247.254Z" fill="black"/>
<path d="M63.9263 233.047C63.9263 233.047 63.2649 201.653 62.6036 197.987C61.7219 193.633 57.3132 193.175 56.211 195.695C55.1088 198.216 55.9906 203.716 53.1249 207.611C49.5979 212.194 46.7323 210.819 44.3075 208.069C41.8827 205.32 36.1514 195.237 33.5061 193.404C30.6405 191.341 26.0113 192.487 27.9952 197.758C29.9792 203.028 37.9148 208.757 37.6944 211.277C37.2535 213.798 27.1135 200.737 23.807 198.674C19.8391 196.383 14.9895 199.362 17.6348 203.945C20.28 208.528 32.6244 216.319 31.0813 217.923C29.5383 219.527 20.28 208.757 16.5326 209.215C12.7852 209.673 11.2421 213.34 16.5326 218.839C21.823 224.339 27.7748 226.172 27.5544 228.006C27.3339 229.839 18.5165 223.423 15.21 223.193C11.2421 222.964 8.81733 226.86 14.9895 231.672C20.9413 236.484 33.947 237.859 38.7966 240.609C43.4257 243.359 45.6301 245.65 45.6301 245.65" fill="white"/>
<path d="M45.41 247.942C44.9691 247.942 44.3078 247.713 43.8669 247.254C43.8669 247.254 41.883 245.192 37.4743 242.671C35.7108 241.755 32.6247 240.838 29.0978 239.921C23.5869 238.317 17.4147 236.713 13.4468 233.505C8.15637 229.38 8.81767 225.714 9.25854 224.339C10.1403 222.048 12.3446 220.902 14.9899 220.902H15.2103C14.9899 220.673 14.7694 220.444 14.7694 220.444C10.1403 215.861 10.3607 212.423 10.8016 210.819C11.4629 208.757 13.4468 207.382 15.8716 206.924C16.0921 206.924 16.3125 206.924 16.5329 206.924C15.8716 206.236 15.4307 205.549 15.2103 205.09C13.2264 201.882 14.1081 199.132 15.6512 197.528C17.8555 195.237 21.3825 195.008 24.2482 196.841C24.4686 197.07 24.689 197.299 25.1299 197.528C24.2482 194.091 25.7912 192.258 26.673 191.57C28.6569 189.966 31.743 189.966 34.1678 191.8C35.9313 192.945 38.1356 196.383 41.4422 201.195C42.9852 203.486 44.3078 205.778 45.1896 206.694C46.2917 207.84 47.1735 208.528 48.0552 208.528C49.1574 208.528 50.2596 207.382 50.9209 206.236C52.4639 204.174 52.6844 201.424 52.9048 199.132C53.1252 197.528 53.1252 195.924 53.7866 194.779C54.6683 192.716 56.6522 191.8 58.8566 192.029C61.5018 192.258 63.4857 194.549 64.147 197.528C64.8083 201.195 65.4697 229.839 65.4697 233.047C65.4697 234.193 64.5879 235.338 63.2653 235.338C62.1631 235.338 61.0609 234.422 61.0609 233.047C60.8405 220.444 60.1792 200.966 59.7383 198.216C59.5179 196.612 58.4157 196.383 58.1953 196.154C57.9748 196.154 57.534 196.154 57.534 196.383C57.3135 197.07 57.0931 198.216 57.0931 199.362C56.8727 202.111 56.4318 205.778 54.2274 208.757C52.2435 211.278 50.2596 212.652 48.0552 212.652C45.8509 212.652 43.8669 211.736 41.883 209.444C40.7808 208.299 39.4582 206.007 37.6947 203.486C35.7108 200.507 32.6247 195.924 31.5225 195.237C30.6408 194.549 29.3182 194.549 29.0978 194.779C28.8773 195.008 28.8773 195.695 29.3182 196.841C30.1999 199.132 32.6247 201.653 34.6086 203.945C37.4743 206.924 39.4582 208.986 39.0174 211.507C38.7969 212.423 38.1356 213.34 37.2539 213.569C35.27 214.256 33.5065 212.423 27.9956 206.694C25.7912 204.403 22.9256 201.195 21.8234 200.507C20.5008 199.591 18.9577 199.82 18.2964 200.507C17.8555 200.966 17.8555 201.653 18.5168 202.57C19.619 204.403 23.146 207.382 25.7912 209.673C30.1999 213.34 32.1839 215.173 32.4043 217.235C32.4043 217.923 32.1839 218.839 31.743 219.298C29.7591 221.589 26.8934 219.298 22.9256 216.09C21.1621 214.486 17.1942 211.278 15.8716 211.507C15.6512 211.507 14.549 211.736 14.549 212.194C14.3286 212.882 14.7694 214.486 17.4147 217.235C19.8395 219.756 22.4847 221.36 24.689 222.735C27.5547 224.568 29.5386 225.943 29.3182 228.235C29.3182 229.151 28.6569 229.839 27.9956 230.297C26.4525 231.214 24.4686 230.297 20.7212 228.235C18.7373 227.089 15.8716 225.714 14.549 225.485C13.6673 225.485 13.2264 225.714 13.006 225.943C12.7855 226.401 13.4468 228.006 15.8716 229.839C18.9577 232.359 24.9095 233.963 29.9795 235.338C33.9473 236.484 37.2539 237.401 39.4582 238.547C44.3078 241.525 46.5122 243.817 46.7326 243.817C47.6144 244.734 47.6144 246.109 46.7326 247.025C46.5122 247.713 45.8509 247.942 45.41 247.942Z" fill="black"/>
<path d="M288.771 350.601C288.771 350.601 284.362 340.061 289.873 327.686C295.384 315.083 326.686 325.395 354.461 307.75C382.015 290.106 398.989 265.357 398.989 265.357L351.595 222.277C346.525 230.297 324.261 250.004 309.272 257.566C302.658 260.774 289.873 266.045 278.411 260.774C266.287 255.045 269.152 236.713 269.152 236.713C269.152 236.713 252.179 249.317 227.269 260.774C221.318 263.524 216.027 265.128 210.296 264.899H209.635C203.903 265.128 198.613 263.524 192.661 260.774C167.972 249.317 150.778 236.713 150.778 236.713C150.778 236.713 153.644 255.045 141.52 260.774C130.057 266.045 117.052 260.774 110.659 257.566C95.6694 250.004 73.4054 230.068 68.3353 222.277L21.1621 265.586C21.1621 265.586 37.9152 290.335 65.6901 307.979C93.465 325.624 124.767 315.312 130.278 327.915C135.789 340.29 131.38 350.831 131.38 350.831C130.939 352.435 128.294 357.476 126.971 359.538C123.224 365.496 117.052 373.058 111.761 383.141C105.369 394.828 102.062 402.848 100.299 407.202C99.4168 409.493 100.739 412.014 102.944 412.701C111.1 415.222 123.444 419.118 143.724 421.638C153.864 423.013 177.671 425.076 209.855 425.076H210.516C242.7 425.076 266.287 423.013 276.647 421.638C296.927 419.118 309.272 415.451 317.428 412.701C319.632 412.014 320.955 409.493 320.073 407.202C318.309 402.848 315.003 394.828 308.61 383.141C303.099 373.058 297.148 365.496 293.4 359.538C291.857 357.247 289.432 352.893 288.771 350.601Z" fill="#E6ECEC"/>
<path d="M210.296 427.138H209.634C173.924 427.138 149.896 424.388 143.283 423.701C122.783 421.18 110.438 417.284 102.282 414.764C100.519 414.305 99.1959 412.931 98.5346 411.327C97.8733 409.722 97.6528 407.889 98.3142 406.056C100.078 401.244 103.605 393.224 109.777 381.537C113.524 374.891 117.272 369.163 120.799 364.351C122.342 362.059 123.885 359.768 125.207 357.705C126.53 355.872 128.955 350.831 129.396 349.685C129.396 349.456 133.363 339.602 128.293 328.374C126.309 323.562 118.153 322.874 108.013 321.728C95.4485 320.583 79.5771 318.979 64.5875 309.354C36.8126 291.71 20.2799 267.42 19.3982 266.274C18.7369 265.357 18.9573 263.982 19.8391 263.295L67.0123 219.985C67.4532 219.527 68.1145 219.298 68.7758 219.527C69.4371 219.527 69.878 219.985 70.3188 220.444C75.1684 228.005 96.9915 247.483 111.761 254.816C123.444 260.545 133.143 261.691 140.858 258.024C151.439 252.983 149.014 236.713 149.014 236.484C148.794 235.567 149.235 234.651 149.896 234.193C150.557 233.734 151.66 233.734 152.321 234.193C152.541 234.422 169.515 246.796 193.763 258.024C199.935 260.774 204.785 262.149 209.855 261.92H210.736C215.806 262.149 220.656 260.774 226.828 258.024C251.076 246.796 268.05 234.422 268.27 234.193C268.931 233.734 269.813 233.734 270.695 234.193C271.356 234.651 271.797 235.567 271.577 236.484C271.577 236.713 269.152 253.212 279.733 258.024C287.448 261.691 297.147 260.545 308.83 254.816C323.599 247.483 345.423 228.005 350.272 220.444C350.713 219.985 351.154 219.527 351.815 219.527C352.477 219.527 353.138 219.527 353.579 219.985L400.752 263.295C401.634 263.982 401.634 265.357 401.193 266.274C400.531 267.19 383.778 291.71 356.003 309.354C341.014 318.979 325.363 320.353 312.578 321.728C302.438 322.645 294.282 323.562 292.298 328.374C287.448 339.602 291.195 349.456 291.195 349.456V349.685C291.857 351.518 294.061 355.872 295.384 357.705C296.486 359.309 297.808 361.142 299.131 363.205C302.658 368.246 306.846 374.204 310.814 381.537C317.207 393.224 320.513 401.244 322.277 406.056C322.938 407.66 322.938 409.722 322.056 411.327C321.395 412.931 319.852 414.076 318.309 414.764C310.153 417.284 297.808 421.18 277.308 423.701C270.254 424.617 246.227 427.138 210.296 427.138ZM24.0273 265.815C28.2156 271.544 43.8665 291.48 66.7919 305.917C80.8997 314.854 96.1098 316.458 108.454 317.604C119.917 318.749 129.175 319.666 132.261 326.77C137.993 339.831 133.584 351.06 133.363 351.518C132.923 353.122 130.057 358.393 128.734 360.455C127.412 362.517 125.869 364.809 124.105 367.1C120.799 371.913 117.051 377.412 113.524 383.828C107.352 395.286 104.045 403.077 102.282 407.66C102.062 408.118 102.062 408.806 102.282 409.264C102.502 409.722 102.943 410.181 103.384 410.41C111.32 412.931 123.444 416.597 143.724 419.118C150.117 420.034 173.924 422.555 209.634 422.555H210.296C245.786 422.555 269.593 420.034 276.206 419.118C296.486 416.597 308.61 412.931 316.546 410.41C316.986 410.181 317.427 409.952 317.648 409.264C317.868 408.806 317.868 408.118 317.648 407.66C315.884 403.077 312.578 395.286 306.405 383.828C302.658 376.725 298.47 370.767 294.943 365.955C293.62 363.892 292.298 362.059 291.195 360.455C290.093 358.622 287.228 354.039 286.566 351.289C286.125 350.143 282.158 339.373 287.668 326.77C290.755 319.666 299.792 318.749 311.475 317.604C323.599 316.458 338.81 314.854 353.138 305.917C376.063 291.251 391.714 271.315 395.902 265.815L352.036 225.485C344.982 234.422 324.922 252.296 310.373 259.399C297.588 265.586 286.566 266.732 277.749 262.607C268.27 258.253 266.727 247.254 266.947 241.067C260.555 245.421 246.447 254.358 228.371 262.836C221.538 266.045 216.027 267.19 210.516 267.19H209.855C204.344 267.42 198.833 266.045 191.999 262.836C173.924 254.587 159.816 245.421 153.423 241.067C153.423 247.483 152.1 258.253 142.622 262.607C133.804 266.732 122.783 265.586 109.997 259.399C95.4485 252.296 75.3889 234.422 68.3349 225.485L24.0273 265.815Z" fill="black"/>
<path d="M78.523 235.095L31.208 278.409L33.976 281.676L81.291 238.363L78.523 235.095Z" fill="black"/>
<path d="M340.717 234.306L337.949 237.574L385.264 280.888L388.032 277.62L340.717 234.306Z" fill="black"/>
<path d="M209.414 319.895C208.973 319.895 208.532 319.895 208.312 319.666L206.107 318.291C205.666 317.833 166.649 288.272 144.165 258.941C143.503 258.024 143.503 256.649 144.385 255.733C145.267 255.045 146.59 255.045 147.471 255.962C169.735 284.606 208.091 314.166 208.532 314.396L209.414 314.854L210.295 314.166C210.516 313.937 249.533 284.377 271.577 255.275C272.238 254.358 273.56 254.129 274.663 254.816C275.544 255.504 275.765 256.879 275.104 258.024C252.619 287.356 213.161 317.375 212.72 317.833L210.516 319.208C210.295 319.666 209.855 319.895 209.414 319.895Z" fill="black"/>
<path d="M209.194 317.604C181.86 318.291 164.445 329.061 149.235 337.311C141.74 341.435 132.923 340.06 132.923 340.06C132.923 344.644 132.702 347.622 128.514 356.559C126.751 360.455 119.256 370.996 119.256 370.996C119.256 370.996 148.133 373.746 167.531 374.433C173.042 374.662 191.118 375.579 209.414 375.579C227.931 375.579 246.888 374.662 252.399 374.433C271.797 373.746 300.895 370.767 300.895 370.767C300.895 370.767 293.18 360.455 291.416 356.33C287.228 347.393 287.228 344.414 287.228 339.831C287.228 339.831 278.19 341.206 270.695 337.082C255.265 328.832 238.071 318.062 210.737 317.375H209.194V317.604Z" fill="#1C998F"/>
<path d="M209.193 377.87C193.542 377.87 177.892 377.183 170.397 376.954L167.09 376.725C147.912 376.037 119.035 373.287 118.815 373.287L115.067 372.829L117.272 369.621C117.272 369.621 124.546 359.309 126.31 355.643C130.277 346.935 130.498 344.414 130.498 340.06V337.54L132.923 337.769C132.923 337.769 141.299 338.915 148.133 335.248C149.455 334.561 150.778 333.873 152.101 333.186C166.87 325.166 183.623 316 209.193 315.312H210.296C235.866 316 252.619 325.166 267.388 333.186C268.711 333.873 270.034 334.561 271.356 335.248C278.19 338.915 286.566 337.769 286.787 337.769L289.212 337.54V340.06C289.212 344.414 289.212 347.164 293.179 355.643C294.502 358.622 300.233 366.871 302.438 369.621L304.863 372.829L301.115 373.287C300.895 373.287 271.797 376.266 252.619 376.954L249.533 377.183C241.377 377.183 225.285 377.87 209.193 377.87ZM123.003 369.163C131.38 369.85 152.321 371.683 167.311 372.371L170.617 372.6C178.112 372.829 193.763 373.517 209.193 373.517C225.065 373.517 241.157 372.829 248.872 372.6L251.958 372.371C266.948 371.912 287.889 370.079 296.486 369.163C294.061 365.725 290.314 360.455 289.212 357.705C285.685 349.914 285.023 346.248 284.803 342.581C281.496 342.81 274.883 342.352 269.372 339.373C268.05 338.686 266.727 337.998 265.405 337.311C251.076 329.519 234.764 320.583 210.296 319.895H209.414C184.725 320.583 168.633 329.519 154.305 337.311C152.982 337.998 151.66 338.686 150.337 339.373C144.606 342.352 138.434 342.81 135.127 342.581C134.907 346.706 134.025 350.143 130.498 357.705C128.955 360.455 125.207 365.725 123.003 369.163Z" fill="black"/>
<path d="M284.363 352.664C278.191 352.664 268.051 351.518 257.47 345.331C242.48 336.623 225.506 331.582 209.856 331.582H209.635C193.984 331.811 177.231 336.623 162.241 345.331C145.488 355.185 130.058 352.435 129.396 352.206L130.058 347.852C130.278 347.852 144.607 350.372 160.037 341.435C175.688 332.269 193.323 327.228 209.635 326.999H209.856C226.168 327.228 243.803 332.269 259.454 341.435C274.884 350.372 289.433 347.852 289.433 347.852L290.094 352.206C289.874 352.435 287.669 352.664 284.363 352.664Z" fill="black"/>
<path d="M209.855 366.871C194.204 366.871 178.553 366.184 171.058 365.955L167.752 365.725C154.746 365.267 137.111 363.892 127.853 362.976L125.648 362.746L126.089 358.393L128.294 358.622C137.552 359.538 155.187 360.913 167.972 361.372L171.279 361.601C178.773 361.83 194.424 362.517 209.855 362.517C225.726 362.517 241.818 361.83 249.533 361.601L252.619 361.372C265.846 360.913 283.48 359.309 292.959 358.622L293.4 362.976C283.921 363.892 266.066 365.267 252.84 365.725L249.754 365.955C242.038 366.184 225.947 366.871 209.855 366.871Z" fill="black"/>
<path d="M281.718 227.547C281.718 227.547 300.896 214.944 307.95 193.175C313.901 175.072 314.783 156.51 309.713 154.906C304.423 153.531 300.455 165.906 288.551 165.218C288.551 165.218 289.653 194.32 288.992 203.716C287.229 224.11 281.718 227.547 281.718 227.547Z" fill="white"/>
<path d="M282.82 229.61L280.615 225.943C280.615 225.943 285.465 222.048 286.787 203.945C287.449 194.779 286.347 165.906 286.347 165.676V163.156H288.771C294.723 163.385 298.471 159.948 301.557 156.969C304.422 154.448 307.068 151.927 310.374 152.844C311.256 153.073 312.578 153.761 313.681 155.823C317.208 162.697 314.562 180.113 310.154 193.862C302.659 216.319 283.481 228.922 282.82 229.61ZM290.755 167.739C290.976 174.842 291.637 196.153 290.976 204.174C290.535 210.59 289.433 215.402 288.33 219.069C294.282 213.34 301.997 204.403 305.745 192.487C310.815 176.676 311.697 162.239 309.492 157.885C309.272 157.427 309.051 157.198 308.831 157.198C307.729 156.969 305.965 158.573 303.981 160.406C301.116 163.156 296.927 167.051 290.755 167.739Z" fill="black"/>
<path d="M137.994 227.547C137.994 227.547 118.816 214.944 111.762 193.175C105.81 175.072 104.928 156.51 109.998 154.906C115.289 153.531 119.257 165.906 131.16 165.218C131.16 165.218 130.058 194.32 130.719 203.715C132.483 224.11 137.994 227.547 137.994 227.547Z" fill="white"/>
<path d="M136.891 229.61C136.009 229.151 116.832 216.319 109.778 194.091C105.369 180.342 102.724 162.927 106.251 156.052C107.353 153.99 108.675 153.302 109.557 153.073C112.864 152.156 115.509 154.677 118.375 157.198C121.681 160.177 125.428 163.614 131.16 163.385H133.585V165.905C133.585 166.135 132.482 194.779 133.144 204.174C134.687 222.277 139.316 226.172 139.316 226.172L136.891 229.61ZM110.88 157.198H110.659C110.439 157.198 110.218 157.656 109.998 157.885C107.794 162.239 108.675 176.446 113.745 192.487C117.493 204.403 125.208 213.34 131.16 219.069C130.058 215.402 129.176 210.59 128.515 204.174C127.853 196.153 128.515 174.613 128.735 167.739C122.342 167.28 118.375 163.385 115.068 160.406C113.525 158.573 111.982 157.198 110.88 157.198Z" fill="black"/>
<path d="M265.846 118.471C275.545 122.825 273.341 129.241 276.427 151.24C277.749 160.177 289.212 165.447 289.212 165.447C289.212 165.906 289.212 167.739 289.212 168.197C290.094 184.008 291.196 218.152 283.921 226.172C278.19 232.359 246.447 253.9 233.442 260.774C225.506 264.899 216.248 270.169 209.635 270.398C201.258 270.628 193.102 264.899 186.268 261.003C174.365 254.358 142.181 232.13 136.45 226.172C128.955 218.152 130.278 182.175 131.16 167.051C131.16 166.822 131.38 165.218 131.38 164.989C131.38 164.989 140.197 161.552 142.843 152.615C145.929 142.532 143.724 121.679 153.203 117.784C168.854 111.368 186.268 125.346 210.737 124.658C228.592 124.2 258.13 115.034 265.846 118.471Z" fill="white"/>
<path d="M208.974 272.461C201.258 272.461 194.204 268.336 188.032 264.67C186.93 263.982 186.048 263.524 184.946 262.837C173.043 256.191 140.639 233.963 134.687 227.547C127.412 219.756 127.412 190.196 128.955 166.822L129.176 163.385L130.499 162.927C130.499 162.927 138.214 159.718 140.639 152.156C141.52 149.177 141.961 145.053 142.402 140.47C143.504 130.387 144.606 118.93 152.322 115.721C161.36 112.055 170.838 114.576 181.419 117.555C190.016 120.075 199.715 122.596 210.517 122.367C218.011 122.138 227.931 120.304 237.189 118.471C250.416 115.951 261.658 113.888 266.728 116.18C275.104 120.075 275.766 125.575 277.088 137.72C277.529 141.386 277.97 145.74 278.631 150.782C279.733 158.344 289.874 163.156 290.094 163.156L291.196 163.614V164.989C291.196 165.218 291.196 165.906 291.196 166.364C291.196 166.822 291.196 167.51 291.196 167.739C292.519 190.654 292.519 219.527 285.244 227.318C279.293 233.734 247.109 255.504 234.103 262.378L231.899 263.524C224.404 267.42 215.807 272.003 209.414 272.232C209.414 272.461 209.194 272.461 208.974 272.461ZM133.144 166.593V167.28C131.38 198.216 133.144 219.527 137.773 224.797C143.063 230.526 174.586 252.296 187.15 259.17C188.253 259.858 189.134 260.316 190.237 261.003C196.188 264.441 202.801 268.336 209.414 268.107C214.925 267.878 223.081 263.753 230.135 259.858L232.34 258.712C245.786 251.608 277.088 230.297 282.158 224.568C286.787 219.527 288.551 198.445 286.787 168.426C286.787 168.197 286.787 167.51 286.787 166.822C283.481 164.989 275.325 159.948 274.002 151.698C273.341 146.428 272.9 142.074 272.459 138.407C271.136 126.262 270.696 123.283 264.744 120.534C260.996 118.93 249.093 120.992 237.851 123.054C228.372 124.887 218.452 126.721 210.517 126.95C199.054 127.408 188.914 124.429 180.097 121.908C169.956 119.159 161.359 116.638 153.644 119.846C148.354 121.908 147.252 131.991 146.37 140.928C145.929 145.511 145.488 150.094 144.386 153.302C142.182 161.093 136.009 165.218 133.144 166.593Z" fill="black"/>
<path d="M209.634 60.9542C227.269 60.9542 235.646 63.2457 235.646 63.2457C235.646 63.2457 244.022 54.3088 242.7 43.3095C241.377 32.3103 234.985 26.5815 229.474 22.6859C224.404 19.2487 216.027 16.728 209.634 16.9571H209.414C203.021 16.728 194.865 19.2487 189.575 22.6859C184.064 26.5815 177.671 32.3103 176.349 43.3095C175.026 54.3088 183.403 63.2457 183.403 63.2457C183.403 63.2457 191.779 60.9542 209.634 60.9542Z" fill="white"/>
<path d="M236.307 65.7664L235.205 65.5373C235.205 65.5373 226.608 63.2457 209.635 63.2457H209.414C192.441 63.2457 184.064 65.5373 183.844 65.5373L182.741 65.7664L181.86 64.8498C181.419 64.3915 172.822 54.9963 174.365 43.0804C175.908 30.9354 183.182 24.5192 188.473 20.8527C193.984 17.1863 202.581 14.6657 209.414 14.8948C216.468 14.6657 225.065 17.1863 230.576 21.0819C235.866 24.7483 243.141 30.9354 244.684 43.3096C246.227 55.2254 237.409 64.6206 237.189 65.0789L236.307 65.7664ZM208.973 19.2487C203.021 19.2487 195.527 21.5402 190.897 24.7483C185.827 28.1856 179.876 33.4561 178.553 43.7679C177.451 51.559 182.301 58.4336 184.064 60.9542C187.15 60.2668 195.527 58.8919 209.414 58.8919H209.635C223.522 58.8919 231.899 60.2668 234.985 60.9542C236.969 58.6627 241.598 51.7882 240.496 43.7679C239.173 33.4561 233.221 28.1856 228.151 24.7483C223.302 21.5402 215.586 19.2487 209.635 19.2487H209.414C209.194 19.2487 208.973 19.2487 208.973 19.2487Z" fill="black"/>
<path d="M228.813 62.3291C228.813 62.3291 227.49 57.5169 224.624 54.0796C222.42 51.3298 217.129 48.58 209.635 48.58C200.817 48.58 196.629 51.3298 194.425 54.0796C191.559 57.5169 190.236 62.3291 190.236 62.3291C190.236 62.3291 200.597 60.9542 209.414 60.9542C217.129 60.9542 228.813 62.3291 228.813 62.3291Z" fill="#41A5A2"/>
<path d="M187.371 64.8498L188.253 61.6416C188.253 61.4125 189.575 56.3712 192.882 52.4756C196.409 48.3509 201.92 46.2885 209.635 46.2885C218.012 46.2885 223.963 49.7258 226.168 52.4756C229.474 56.3712 230.797 61.4125 230.797 61.6416L231.679 64.8498L228.593 64.6206C228.372 64.6206 216.909 63.4749 209.635 63.2457C200.818 63.2457 190.678 64.3915 190.678 64.6206L187.371 64.8498ZM208.974 58.6627C209.194 58.6627 209.194 58.6627 209.415 58.6627C214.485 58.6627 221.318 59.3501 225.506 59.5793C224.845 58.2044 223.963 56.6003 222.861 55.2254C220.877 52.9339 216.028 50.4132 209.415 50.4132C203.022 50.4132 198.613 52.0173 195.748 55.2254C194.645 56.6003 193.764 58.2044 193.102 59.3501C197.291 59.3501 203.242 58.6627 208.974 58.6627Z" fill="black"/>
<path d="M209.635 60.0377C200.377 60.0377 190.898 60.7251 183.403 62.5583C164.886 67.3705 147.472 76.0782 136.009 93.4937C121.02 116.409 130.499 162.01 131.38 164.989C131.38 164.989 136.45 162.239 139.316 158.802C144.827 152.156 144.386 146.428 144.386 146.428C144.386 146.428 145.268 134.054 145.268 130.387C145.488 125.804 148.574 120.763 152.322 118.93C156.069 116.867 167.311 117.096 173.924 118.471C177.451 119.159 193.102 122.825 200.156 123.971C202.14 124.2 205.667 124.887 209.415 124.887H209.635C213.603 124.887 216.909 124.429 218.893 123.971C225.947 122.825 241.819 119.388 245.125 118.471C249.534 117.096 262.98 116.867 266.728 118.93C270.475 120.992 273.561 125.804 273.782 130.387C273.782 134.054 274.663 146.428 274.663 146.428C274.663 146.428 274.223 152.156 279.734 158.802C282.379 162.01 287.669 164.989 287.669 164.989C288.33 162.01 297.809 116.409 283.04 93.4937C271.577 76.0782 254.163 67.1413 235.646 62.5583C228.592 60.7251 219.114 60.0377 209.635 60.0377Z" fill="white"/>
<path d="M130.058 168.426L129.397 165.676C129.176 165.218 118.375 117.096 134.467 92.348C144.607 76.7657 160.478 66.2247 182.962 60.4959C191.559 58.2044 202.361 57.7461 209.635 57.9753H209.856C217.13 57.9753 227.931 58.4336 236.528 60.4959C259.013 66.2247 274.884 76.7657 285.024 92.348C301.116 117.096 290.094 164.989 290.094 165.676L289.433 168.426L287.008 167.051C286.788 166.822 281.497 164.072 278.411 160.406C272.9 153.761 272.68 147.803 272.68 146.657C272.68 145.282 271.798 134.054 271.798 130.616C271.798 126.95 269.153 122.596 266.067 120.992C263.201 119.388 250.636 119.388 246.007 120.763C242.48 121.679 226.609 125.117 219.555 126.262C217.35 126.492 213.823 127.179 209.856 127.179H209.635C205.667 127.179 202.14 126.721 200.156 126.262C194.866 125.346 184.946 123.283 178.554 121.908C176.349 121.45 174.586 120.992 173.484 120.763C166.43 119.388 156.069 119.388 153.204 120.992C150.117 122.825 147.472 126.95 147.472 130.616C147.472 134.054 146.591 145.282 146.591 146.657C146.591 147.803 146.37 153.761 140.859 160.406C137.994 164.072 132.483 167.051 132.262 167.051L130.058 168.426ZM256.588 115.263C261.217 115.263 265.846 115.721 268.051 116.867C272.68 119.388 275.986 125.117 276.207 130.387C276.207 133.824 277.088 146.199 277.088 146.428V146.657V146.886C277.088 147.115 276.868 151.927 281.718 157.656C283.04 159.26 285.024 160.635 286.567 161.781C288.551 151.011 294.282 114.347 281.497 95.0978C271.798 80.4321 256.808 70.5786 235.426 64.8498C228.813 63.2458 219.996 62.3292 209.856 62.3292H209.635C199.275 62.3292 190.457 63.0166 184.065 64.8498C162.682 70.3494 147.693 80.203 137.994 95.0978C125.429 114.347 130.94 151.011 132.923 161.781C134.467 160.635 136.45 159.26 137.773 157.656C142.623 151.927 142.402 147.115 142.402 146.886V146.657V146.428C142.402 146.199 143.284 134.054 143.284 130.387C143.504 125.117 146.811 119.388 151.44 116.867C155.849 114.576 167.752 114.805 174.586 116.18C175.468 116.409 177.452 116.867 179.656 117.325C186.048 118.7 195.748 120.992 200.818 121.679C203.022 121.908 206.108 122.596 209.856 122.596C213.603 122.596 216.91 122.138 218.893 121.679C225.947 120.534 241.598 117.096 245.125 116.18C247.33 115.721 251.959 115.263 256.588 115.263Z" fill="black"/>
<path d="M209.634 124.658C193.763 123.971 178.994 118.471 169.295 117.325C152.101 115.492 150.117 117.555 145.708 126.262C144.165 129.47 145.267 144.136 141.079 155.135C138.434 161.552 131.159 165.218 131.159 165.218C131.159 167.28 130.939 171.634 130.718 175.759C130.498 183.092 133.804 189.737 139.756 193.862C147.912 199.362 161.579 201.882 173.924 208.528C191.999 218.381 205.005 230.297 209.634 230.297H210.075C214.704 230.297 226.828 218.381 245.124 208.528C257.469 201.882 271.797 199.362 280.174 193.862C285.905 189.966 289.432 183.092 289.212 175.759C288.991 171.634 288.991 167.51 288.771 165.218C288.771 165.218 281.276 161.552 278.851 155.135C274.663 144.365 275.765 129.47 274.222 126.262C270.034 117.555 268.05 115.492 250.635 117.325C240.936 118.471 226.167 123.971 210.296 124.658H209.634Z" fill="#41A5A2"/>
<path d="M210.076 232.13H209.635C206.769 232.13 202.801 229.61 195.086 224.11C189.134 219.985 181.639 214.715 173.042 210.132C167.091 206.924 161.139 204.861 155.187 202.799C149.015 200.507 143.063 198.445 138.654 195.466C132.262 191.112 128.514 183.55 128.735 175.53C128.955 171.405 128.955 167.28 129.176 164.989V163.614L130.278 163.156C130.278 163.156 136.891 159.718 139.095 154.219C141.52 147.803 142.181 139.782 142.622 133.824C142.843 129.241 143.063 126.721 143.945 125.117C148.794 115.492 151.881 113.201 169.515 115.034C173.483 115.492 177.892 116.638 183.182 117.784C191.118 119.617 200.156 121.908 209.635 122.367H210.076C219.334 121.908 228.592 119.846 236.528 117.784C241.818 116.409 246.227 115.492 250.195 115.034C267.83 113.201 271.136 115.263 275.765 125.117C276.427 126.721 276.647 129.012 277.088 133.824C277.529 139.782 277.97 147.803 280.615 154.219C282.819 159.948 289.432 163.156 289.432 163.156L290.535 163.614V164.989C290.535 167.051 290.755 171.405 290.975 175.53C291.196 183.55 287.449 191.112 281.056 195.466C276.647 198.445 270.475 200.507 264.082 202.799C257.91 204.861 251.738 207.153 245.786 210.361C236.969 215.173 229.474 220.444 223.522 224.568C217.13 229.151 212.941 232.13 210.076 232.13ZM133.144 166.364C133.144 168.655 132.923 172.093 132.703 175.53C132.482 181.946 135.568 188.133 140.638 191.57C144.606 194.32 150.337 196.383 156.289 198.445C162.021 200.507 168.413 202.799 174.585 206.236C183.403 211.048 190.898 216.319 197.07 220.444C202.14 224.11 207.651 227.776 209.194 227.776H209.635C211.178 227.776 216.248 224.339 220.877 220.902C226.829 216.548 234.323 211.277 243.582 206.236C249.754 202.799 256.587 200.507 262.539 198.445C268.711 196.383 274.443 194.32 278.411 191.57C283.481 188.133 286.567 181.946 286.346 175.53C286.126 172.093 286.126 168.655 285.905 166.364C283.481 164.989 278.19 161.322 275.986 155.823C273.12 148.719 272.679 140.241 272.238 134.053C272.018 131.304 271.798 127.866 271.357 127.179C267.609 119.617 266.728 117.784 249.974 119.617C246.447 120.075 242.039 120.992 236.748 122.367C228.592 124.429 219.334 126.491 209.414 126.95H208.753C198.833 126.491 189.575 124.2 181.419 122.367C176.349 121.221 171.94 120.075 168.193 119.617C151.44 117.784 150.558 119.846 146.811 127.179C146.37 127.866 146.149 131.304 145.929 134.053C145.488 140.241 144.827 148.719 142.181 155.823C140.859 161.322 135.568 164.989 133.144 166.364Z" fill="black"/>
<path d="M186.71 181.488C182.522 182.175 179.656 184.696 171.72 184.008C163.785 183.321 157.613 179.884 152.322 172.551C147.252 165.447 146.591 165.676 146.591 165.676C146.591 165.676 148.575 166.593 156.731 164.072C165.328 161.322 172.382 162.239 178.995 166.822C183.404 169.801 185.828 175.53 190.237 178.28C191.119 178.738 193.544 180.571 193.544 180.571C193.544 180.571 190.237 180.8 186.71 181.488Z" fill="#E1EDF9"/>
<path d="M174.145 186.3C173.263 186.3 172.602 186.3 171.72 186.3C162.903 185.613 156.29 181.717 150.779 173.926C147.472 169.343 146.37 168.197 145.929 167.739C145.047 167.28 144.606 166.364 144.606 165.447C144.606 164.531 145.268 163.614 146.37 163.385C146.811 163.385 147.252 163.156 147.693 163.385C148.133 163.385 150.558 163.385 156.29 161.552C165.327 158.802 173.043 159.718 180.317 164.76C182.742 166.364 184.505 168.655 186.269 170.947C188.032 173.009 189.575 175.072 191.339 176.217C192.221 176.676 194.645 178.509 194.645 178.509C195.307 178.967 195.748 180.113 195.527 181.029C195.307 181.946 194.425 182.634 193.543 182.634C193.543 182.634 190.457 182.863 187.151 183.321C185.828 183.55 184.726 183.779 183.624 184.238C180.978 185.383 178.333 186.3 174.145 186.3ZM151.44 167.51C152.101 168.426 152.983 169.572 154.085 171.176C158.935 178.05 164.446 181.259 171.94 181.717C176.79 182.175 179.435 181.259 182.081 180.342C183.403 179.884 184.726 179.425 186.489 179.196C186.93 179.196 187.151 179.196 187.591 178.967C185.828 177.592 184.505 175.759 182.962 173.926C181.419 171.863 179.876 169.801 177.892 168.655C171.72 164.531 165.327 163.614 157.612 166.135C154.967 166.822 152.983 167.28 151.44 167.51Z" fill="black"/>
<path d="M232.56 181.488C236.748 182.175 239.614 184.696 247.55 184.009C255.485 183.321 261.658 179.884 266.948 172.551C272.018 165.447 272.679 165.676 272.679 165.676C272.679 165.676 270.695 166.593 262.539 164.072C253.942 161.323 246.888 162.239 240.275 166.822C235.867 169.801 233.442 175.53 229.033 178.28C228.151 178.738 225.727 180.571 225.727 180.571C225.727 180.571 229.033 180.8 232.56 181.488Z" fill="#E1EDF9"/>
<path d="M245.125 186.3C240.937 186.3 238.071 185.383 235.867 184.467C234.544 184.008 233.442 183.55 232.34 183.55C229.033 183.092 225.947 182.863 225.947 182.863C225.065 182.863 224.184 182.175 223.963 181.259C223.743 180.342 223.963 179.425 224.845 178.738C224.845 178.738 227.27 176.905 228.152 176.446C230.135 175.301 231.679 173.238 233.222 171.176C234.985 168.884 236.749 166.593 239.173 164.989C246.227 159.948 254.163 159.031 263.201 161.781C268.712 163.614 271.137 163.614 271.798 163.385C272.239 163.156 272.68 163.156 273.12 163.385C274.002 163.614 274.663 164.301 274.884 165.447C274.884 166.364 274.443 167.28 273.561 167.739C273.12 167.968 272.018 169.343 268.712 173.926C263.201 181.717 256.588 185.613 247.77 186.3C246.889 186.3 246.007 186.3 245.125 186.3ZM231.899 178.967C232.34 178.967 232.56 178.967 233.001 179.196C234.544 179.425 236.087 179.884 237.41 180.342C240.055 181.259 242.7 182.175 247.55 181.717C255.045 181.03 260.556 177.821 265.405 171.176C266.507 169.801 267.169 168.655 268.05 167.51C266.507 167.28 264.523 166.822 262.099 165.906C254.383 163.385 247.77 164.301 241.819 168.426C239.835 169.801 238.292 171.634 236.749 173.697C235.206 175.759 233.662 177.592 231.899 178.967Z" fill="black"/>
<path d="M209.635 213.111C209.635 213.111 191.78 228.235 186.93 234.88C179.656 244.963 176.57 253.9 184.065 270.628C190.016 283.689 201.479 305 209.415 305H209.635C217.571 305 229.033 283.918 234.985 270.628C242.48 253.9 239.394 244.963 232.12 234.88C227.49 228.005 209.635 213.111 209.635 213.111Z" fill="#CCD1DD"/>
<path d="M209.635 307.063C199.275 307.063 186.93 282.314 182.081 271.544C174.145 254.358 177.451 244.275 185.167 233.505C190.237 226.631 207.431 211.965 208.092 211.277C208.533 211.048 208.974 210.819 209.415 210.819H209.635C210.076 210.819 210.517 211.048 210.958 211.277C211.619 211.965 229.033 226.631 233.883 233.505C241.598 244.275 244.684 254.129 236.969 271.544C232.34 282.085 219.775 307.063 209.635 307.063ZM209.635 215.86C205.447 219.527 192.441 230.755 188.694 236.255C181.64 246.108 179.215 254.358 186.048 269.711C194.866 289.189 204.565 302.709 209.635 302.709H209.856C214.926 302.709 224.404 289.189 233.442 269.711C240.496 254.358 237.851 246.108 230.797 236.255C226.829 230.755 213.823 219.298 209.635 215.86Z" fill="black"/>
<path d="M209.635 224.11C199.495 224.11 193.984 231.901 195.306 238.317C195.306 238.317 197.731 248.171 209.635 247.712H209.855C221.979 247.942 224.183 238.317 224.183 238.317C225.506 231.901 219.995 224.11 209.855 224.11H209.635Z" fill="white"/>
<path d="M209.194 250.004C198.834 250.004 194.204 242.671 193.323 238.776C192.661 235.109 193.543 231.214 196.188 228.005C199.275 224.11 204.345 221.818 209.855 221.818H210.296C215.807 221.818 220.877 224.11 223.963 228.005C226.388 231.214 227.49 235.109 226.829 238.776C225.947 242.9 221.098 250.233 210.296 250.004H210.076C209.415 250.004 209.194 250.004 209.194 250.004ZM209.635 226.401C205.226 226.401 201.699 228.006 199.275 230.984C197.511 233.047 196.85 235.567 197.291 237.859C197.291 238.088 199.495 245.879 209.415 245.421H209.635C219.995 245.65 221.979 237.859 221.979 237.63C222.42 235.338 221.759 232.818 219.995 230.755C217.791 227.776 214.044 226.172 209.635 226.172V226.401Z" fill="black"/>
<path d="M219.554 233.734C224.404 238.776 251.518 247.713 251.518 247.713C251.518 247.713 231.238 218.152 222.641 212.194C219.114 209.673 216.468 208.298 209.855 208.069C203.242 208.069 200.817 209.444 196.629 211.965C187.371 217.694 168.634 247.483 168.634 247.483C168.634 247.483 195.747 238.546 200.597 233.505C200.597 233.505 204.565 230.297 210.076 230.068C215.366 230.068 219.554 233.734 219.554 233.734Z" fill="#CCD1DD"/>
<path d="M251.518 250.004C251.298 250.004 251.077 250.004 250.857 250.004C247.991 249.087 223.523 240.838 218.232 235.567C217.791 235.109 214.264 232.588 210.297 232.818C206.108 233.047 202.802 235.338 202.14 235.797C196.85 241.067 172.382 249.317 169.516 250.233C168.634 250.462 167.753 250.233 167.091 249.546C166.65 248.858 166.43 247.712 167.091 247.025C167.973 245.879 186.269 216.777 195.748 210.819C200.157 208.069 203.022 206.465 210.076 206.694C217.13 206.694 219.996 208.528 223.964 211.048C232.781 217.006 252.62 245.879 253.282 247.025C253.722 247.712 253.722 248.858 253.282 249.546C252.841 249.546 252.179 250.004 251.518 250.004ZM209.194 210.361C203.463 210.361 201.479 211.736 197.732 214.027C191.78 217.694 180.538 233.505 173.925 243.588C184.065 239.921 196.409 235.109 199.054 232.13L199.275 231.901C199.495 231.672 203.904 228.235 210.076 228.005C216.248 227.776 220.878 231.672 221.098 231.901C221.098 231.901 221.318 231.901 221.318 232.13C223.964 234.88 236.088 239.921 246.007 243.359C239.835 234.651 227.491 218.152 221.759 214.027C218.232 211.736 216.028 210.361 210.076 210.361C209.635 210.361 209.415 210.361 209.194 210.361Z" fill="black"/>
<path d="M209.636 60.2667C229.034 59.8084 241.819 63.704 252.621 68.287C256.368 69.8911 258.793 73.7866 257.911 77.6822C256.368 85.2442 252.18 95.7852 246.008 108.159C240.938 118.242 238.513 121.908 229.916 131.304C222.862 138.866 213.163 141.845 209.636 142.074H209.195C205.668 141.845 195.969 138.866 188.915 131.304C180.318 122.138 177.893 118.242 172.823 108.159C166.43 95.7852 162.462 85.2442 160.919 77.6822C160.038 73.7866 162.683 70.1202 166.43 68.287C175.909 63.9331 190.017 59.8084 209.415 60.2667H209.636Z" fill="#41A5A2"/>
<path d="M209.194 144.365C205.227 144.136 195.087 140.928 187.592 132.908C178.995 123.742 176.57 119.846 171.059 109.305C164.666 96.931 160.478 86.39 158.935 78.3697C158.053 73.5575 160.699 68.7453 165.769 66.4538C178.774 60.4959 193.544 57.7461 209.635 58.2044H209.856C230.136 57.7461 243.362 61.8708 253.722 66.2247C258.572 68.287 261.438 73.3284 260.336 78.3697C258.572 86.39 254.384 97.1601 248.212 109.305C242.921 119.846 240.276 123.742 231.679 132.908C224.184 140.928 213.824 144.136 210.076 144.365H209.194ZM206.108 62.5583C191.78 62.5583 178.774 65.3081 167.312 70.3494C164.887 71.4952 162.462 74.245 162.903 77.2239C164.446 84.7859 168.634 95.3269 174.586 107.014C179.656 117.096 181.86 120.534 190.457 129.7C197.291 137.032 206.549 139.553 209.194 139.782H209.635C212.06 139.553 221.539 137.032 228.372 129.7C236.749 120.534 238.953 117.096 244.244 107.014C250.196 95.3269 254.384 84.5568 255.927 77.2239C256.588 74.4741 254.825 71.4952 251.959 70.3494C242.039 66.2247 229.254 62.0999 209.856 62.5583H209.415C208.313 62.5583 207.211 62.5583 206.108 62.5583Z" fill="black"/>
<path d="M209.635 118.471C199.274 118.471 177.892 66.4539 177.892 66.4539C177.892 66.4539 171.72 68.5162 167.972 70.1203C167.532 70.3494 165.548 71.4952 164.886 72.1826C164.005 72.8701 163.343 74.4742 163.123 75.1616C162.682 76.5365 163.343 77.9114 163.564 79.0572C164.886 85.7026 170.397 98.9933 177.231 111.597C181.86 120.534 189.355 129.012 194.866 133.595C197.952 136.116 206.108 140.011 209.855 140.011C213.382 140.011 221.538 136.116 224.845 133.595C230.356 129.012 237.851 120.534 242.48 111.597C249.093 98.9933 254.604 85.4734 256.147 79.0572C256.367 78.1406 256.808 76.7657 256.588 75.1616C256.367 74.0158 255.706 73.0992 255.045 72.1826C253.942 71.0369 252.62 70.3494 251.958 70.1203C248.211 68.5162 242.039 66.4539 242.039 66.4539C242.039 66.4539 219.995 118.471 209.635 118.471Z" fill="#347F7A"/>
<path d="M216.689 208.299L212.501 208.069C212.721 205.09 212.721 201.424 212.721 197.528C212.942 189.279 212.942 180.8 213.603 176.217C214.926 167.739 218.894 162.01 227.05 156.052C228.152 155.135 229.475 154.219 230.797 153.302C237.851 148.261 245.566 142.761 249.755 136.116C260.336 119.846 272.68 81.3487 272.9 80.8904L276.868 82.2653C276.427 83.8694 264.083 121.679 253.282 138.637C248.652 145.74 240.276 151.698 233.222 156.969C231.899 157.885 230.797 158.802 229.475 159.718C221.098 165.906 218.894 170.947 217.791 177.134C217.13 181.259 216.91 189.966 216.91 197.758C216.689 201.653 216.689 205.32 216.689 208.299Z" fill="black"/>
<path d="M202.361 209.673C202.14 206.694 202.14 203.028 202.14 199.132C201.92 191.341 201.92 182.634 201.258 178.509C200.156 172.322 197.952 167.28 189.575 161.093C188.473 160.177 187.151 159.26 185.828 158.344C178.554 153.073 170.397 147.344 165.768 140.011C154.746 123.054 142.623 85.2443 142.182 83.6402L146.149 82.2653C146.37 82.7236 158.714 120.992 169.295 137.491C173.484 143.907 181.419 149.636 188.253 154.677C189.575 155.594 190.677 156.51 192 157.427C200.156 163.385 204.124 169.343 205.447 177.592C206.108 181.946 206.328 190.654 206.328 198.903C206.328 202.799 206.549 206.465 206.549 209.444L202.361 209.673Z" fill="black"/>
</svg>
