<svg width="137" height="67" viewBox="0 0 137 67" fill="none" xmlns="http://www.w3.org/2000/svg">
<path d="M60.7705 43.7202L53.2103 44.2452L49.8691 51.2277L54.098 57.6852L61.6582 57.1627L64.9993 50.1777L60.7705 43.7202ZM61.3826 53.4552C61.0388 54.1352 60.0413 53.5352 60.3827 52.8552C60.8241 51.9777 61.1875 51.0602 61.5729 50.1527C60.8022 49.0727 60.1827 47.9027 59.4462 46.7877C59.0243 46.1552 60.0291 45.5602 60.4461 46.1877C61.2119 47.3427 61.8216 48.6102 62.6703 49.7052C62.7497 49.8052 62.7965 49.9283 62.8039 50.0571C62.8114 50.1859 62.7791 50.3138 62.7118 50.4227C62.2728 51.4377 61.8777 52.4702 61.3826 53.4552Z" fill="#9E2A75"/>
<path d="M72.9033 35.1201L65.3431 35.6451L61.9995 42.6276L66.2284 49.0851L73.7886 48.5601L77.1297 41.5776L72.9033 35.1201ZM73.513 44.8551C73.1716 45.5351 72.1717 44.9326 72.5131 44.2551C72.9569 43.3751 73.3203 42.4601 73.7056 41.5526C72.9326 40.4726 72.3131 39.3026 71.5766 38.1876C71.1571 37.5526 72.1595 36.9601 72.5765 37.5876C73.3447 38.7426 73.952 40.0076 74.8031 41.1051C74.8816 41.2051 74.9279 41.3277 74.9353 41.4558C74.9427 41.584 74.911 41.7113 74.8446 41.8201C74.4031 42.8351 74.0105 43.8701 73.513 44.8551Z" fill="#399BD6"/>
<path d="M71.7983 20.0298L64.2381 20.5548L60.897 27.5373L65.1136 33.9998L72.6739 33.4748L76.0272 26.4998L71.7983 20.0298ZM72.408 29.7648C72.0666 30.4448 71.0667 29.8423 71.4081 29.1648C71.852 28.2848 72.2154 27.3698 72.6007 26.4623C71.8276 25.3823 71.2082 24.2123 70.4716 23.0973C70.0522 22.4623 71.0545 21.8698 71.4715 22.4973C72.2398 23.6523 72.847 24.9173 73.6981 26.0148C73.7767 26.1148 73.8229 26.2373 73.8303 26.3655C73.8378 26.4936 73.8061 26.621 73.7396 26.7298C73.3006 27.7498 72.9055 28.7773 72.408 29.7648Z" fill="#9E2A75"/>
<path d="M84.039 11.585L76.4788 12.11L73.1206 19.0925L77.347 25.55L84.9072 25.0275L88.2508 18.045L84.039 11.585ZM84.6487 21.32C84.3073 22 83.3098 21.4 83.6488 20.7225C84.0927 19.8425 84.4561 18.925 84.8414 18.0175C84.0683 16.9375 83.4488 15.7675 82.7148 14.6525C82.2929 14.02 83.2952 13.425 83.7147 14.0525C84.4804 15.2075 85.0901 16.475 85.9388 17.57C86.0183 17.67 86.065 17.7931 86.0725 17.9219C86.0799 18.0506 86.0477 18.1785 85.9803 18.2875C85.5413 19.3025 85.1462 20.335 84.6487 21.32Z" fill="#399BD6"/>
<path d="M66.4089 16.0701C67.7922 16.0701 68.9136 14.9206 68.9136 13.5026C68.9136 12.0846 67.7922 10.9351 66.4089 10.9351C65.0257 10.9351 63.9043 12.0846 63.9043 13.5026C63.9043 14.9206 65.0257 16.0701 66.4089 16.0701Z" fill="#9E2A75"/>
<path d="M49.8591 66.0749C51.2424 66.0749 52.3637 64.9254 52.3637 63.5074C52.3637 62.0894 51.2424 60.9399 49.8591 60.9399C48.4758 60.9399 47.3545 62.0894 47.3545 63.5074C47.3545 64.9254 48.4758 66.0749 49.8591 66.0749Z" fill="#9E2A75"/>
<path d="M67.1126 14.5408L66.4663 14.9233L70.372 21.858L71.0183 21.4755L67.1126 14.5408Z" fill="#9E2A75"/>
<path d="M84.6666 5.37722L83.9609 5.12842L81.1642 13.4642L81.8699 13.713L84.6666 5.37722Z" fill="#399BD6"/>
<path d="M81.9329 25.286C82.3174 25.286 82.5569 25.3215 82.6514 25.3926C82.746 25.4572 82.7932 25.6252 82.7932 25.8965C82.7932 26.1356 82.8689 26.2551 83.0201 26.2551C83.0831 26.2551 83.2943 26.1323 83.6535 25.8868C83.9245 25.6995 84.268 25.5444 84.684 25.4216C85.1063 25.2924 85.4876 25.2278 85.8279 25.2278C86.6283 25.2278 87.3437 25.5121 87.9739 26.0806C88.4529 26.5135 88.8248 27.0594 89.0895 27.7184C89.3668 28.4097 89.5055 29.1366 89.5055 29.899C89.5055 31.5271 88.9697 32.8677 87.8983 33.9208C87.0727 34.7413 86.1336 35.1516 85.0811 35.1516C84.5453 35.1516 83.9939 35.0223 83.4266 34.7639C83.3132 34.7122 83.2218 34.6864 83.1525 34.6864C82.9634 34.6864 82.8689 34.8802 82.8689 35.2679C82.8689 35.7783 83.0359 36.1465 83.3699 36.3726C83.6787 36.5859 83.8615 36.728 83.9182 36.7991C83.9813 36.8766 84.0128 37.0026 84.0128 37.177C84.0128 37.5647 83.8016 37.8619 83.3794 38.0686C82.9571 38.2818 82.3615 38.3884 81.5926 38.3884C80.2249 38.3884 79.0274 38.1074 78.0001 37.5453C77.477 37.261 77.2155 36.9089 77.2155 36.4889C77.2155 36.2951 77.2533 36.1465 77.3289 36.0431C77.4108 35.9462 77.5652 35.8429 77.7921 35.733C78.1199 35.578 78.3184 35.2969 78.3877 34.8899C78.4634 34.4829 78.5201 33.3135 78.5579 31.3817C78.5138 29.7924 78.4571 28.9008 78.3877 28.7069C78.3625 28.6423 78.3247 28.6003 78.2743 28.581C78.2302 28.5616 78.0758 28.526 77.811 28.4744C77.6094 28.4356 77.4455 28.3419 77.3194 28.1933C77.1934 28.0383 77.1304 27.8541 77.1304 27.6409C77.1304 27.3825 77.2186 27.1564 77.3951 26.9625C77.5716 26.7623 77.8583 26.5684 78.2554 26.3811C79.7995 25.6639 81.0254 25.2989 81.9329 25.286ZM82.8689 28.9492L82.7271 31.6143C82.7207 31.7241 82.7176 31.8307 82.7176 31.9341C82.7176 32.1344 82.8027 32.2959 82.9729 32.4187C83.143 32.5414 83.3699 32.6028 83.6535 32.6028C84.5233 32.6028 84.9582 31.8695 84.9582 30.4029C84.9582 29.4532 84.7754 28.7845 84.4098 28.3968C84.1829 28.1578 83.9119 28.0383 83.5968 28.0383C83.1493 28.0383 82.9067 28.3419 82.8689 28.9492Z" fill="#399BD6"/>
<path d="M98.931 30.5483H94.4876C94.2923 30.5483 94.1946 30.6355 94.1946 30.8099C94.1946 31.2299 94.4152 31.6272 94.8563 32.0019C95.3038 32.3702 95.7828 32.5543 96.2933 32.5543C96.5958 32.5543 96.9299 32.4962 97.2954 32.3799C97.6673 32.2571 97.973 32.1085 98.2125 31.9341C98.4267 31.779 98.5969 31.7015 98.723 31.7015C98.8868 31.7015 99.0476 31.8049 99.2051 32.0116C99.3627 32.2184 99.4415 32.4316 99.4415 32.6512C99.4415 33.1164 99.1578 33.5654 98.5906 33.9983C97.5885 34.7671 96.432 35.1516 95.121 35.1516C93.7975 35.1516 92.6883 34.7575 91.7933 33.9692C91.3584 33.5816 90.9992 33.1132 90.7156 32.564C90.3437 31.834 90.1578 31.0651 90.1578 30.2575C90.1578 29.1721 90.4792 28.1965 91.1221 27.3308C91.6767 26.5813 92.3826 26.0225 93.2397 25.6542C93.8826 25.3764 94.579 25.2375 95.329 25.2375C96.5265 25.2375 97.5444 25.5864 98.3826 26.2842C98.8049 26.633 99.1452 27.0465 99.4036 27.5246C99.6999 28.0673 99.848 28.5971 99.848 29.114C99.848 29.5339 99.7629 29.8796 99.5927 30.1509C99.4226 30.4158 99.202 30.5483 98.931 30.5483ZM94.7334 28.736H95.6883C96.0916 28.736 96.2933 28.5454 96.2933 28.1642C96.2933 27.8154 96.1956 27.5311 96.0003 27.3114C95.8049 27.0918 95.5496 26.9819 95.2345 26.9819C94.8816 26.9819 94.6042 27.1241 94.4026 27.4083C94.2135 27.6732 94.1189 27.9413 94.1189 28.2127C94.1189 28.4065 94.1631 28.5422 94.2513 28.6197C94.3458 28.6973 94.5065 28.736 94.7334 28.736Z" fill="#399BD6"/>
<path d="M111.514 22.4368V31.2848C111.514 31.7887 111.533 32.1118 111.571 32.2539C111.615 32.396 111.731 32.535 111.921 32.6706C112.147 32.8321 112.299 32.9743 112.374 33.097C112.456 33.2198 112.497 33.3684 112.497 33.5428C112.497 34.0597 111.99 34.4538 110.975 34.7252C110.061 34.9642 109.147 35.0837 108.234 35.0837C108.032 35.0837 107.9 35.0514 107.836 34.9868C107.78 34.9287 107.742 34.7833 107.723 34.5507C107.692 34.2212 107.578 34.0565 107.383 34.0565C107.276 34.0565 107.109 34.1534 106.882 34.3472C106.239 34.8834 105.523 35.1516 104.736 35.1516C103.759 35.1516 102.88 34.7801 102.098 34.0371C101.638 33.5913 101.266 33.0777 100.982 32.4962C100.604 31.7403 100.415 30.9747 100.415 30.1994C100.415 29.2884 100.661 28.4097 101.153 27.5634C101.606 26.7816 102.224 26.1808 103.006 25.7608C103.661 25.412 104.307 25.2375 104.944 25.2375C105.675 25.2375 106.33 25.4055 106.91 25.7414C107.005 25.7931 107.08 25.819 107.137 25.819C107.339 25.819 107.439 25.5412 107.439 24.9855C107.439 24.7465 107.383 24.5656 107.269 24.4428C107.162 24.3136 106.967 24.2038 106.683 24.1133C106.286 23.9841 106.088 23.758 106.088 23.435C106.088 22.9633 106.544 22.5951 107.458 22.3302C109.072 21.8714 110.153 21.6421 110.701 21.6421C111.243 21.6421 111.514 21.907 111.514 22.4368ZM106.381 27.3114C105.971 27.3114 105.646 27.5343 105.407 27.9801C105.085 28.5745 104.925 29.3563 104.925 30.3254C104.925 31.204 105.079 31.8663 105.388 32.3121C105.609 32.6351 105.908 32.7966 106.286 32.7966C106.696 32.7966 106.992 32.5543 107.175 32.0698C107.364 31.5788 107.458 30.7905 107.458 29.7051C107.458 28.7102 107.348 28.0479 107.127 27.7184C106.957 27.46 106.708 27.3243 106.381 27.3114Z" fill="#399BD6"/>
<path d="M118.311 25.9062V31.5368C118.311 31.9826 118.349 32.3088 118.425 32.5156C118.507 32.7223 118.667 32.9129 118.907 33.0873C119.102 33.2295 119.232 33.3522 119.295 33.4556C119.364 33.5525 119.399 33.6785 119.399 33.8336C119.399 34.667 118.368 35.0837 116.307 35.0837C115.198 35.0837 114.319 34.9933 113.67 34.8124C113.449 34.7478 113.269 34.6347 113.131 34.4732C112.998 34.3117 112.932 34.1275 112.932 33.9208C112.932 33.7463 112.967 33.6107 113.036 33.5138C113.105 33.4168 113.282 33.2618 113.566 33.0486C113.761 32.9 113.9 32.6577 113.981 32.3217C114.063 31.9858 114.104 31.4851 114.104 30.8196C114.104 30.6064 114.089 30.2091 114.057 29.6276C114.032 29.0397 114.013 28.6973 114 28.6003C113.963 28.3354 113.786 28.1319 113.471 27.9898C113.08 27.8154 112.885 27.5569 112.885 27.2145C112.885 26.8075 113.14 26.5038 113.651 26.3035C114.356 26.0257 115.113 25.7899 115.92 25.5961C116.726 25.4023 117.35 25.3053 117.791 25.3053C118.138 25.3053 118.311 25.5056 118.311 25.9062ZM116.439 21.6615C116.988 21.6615 117.423 21.7681 117.744 21.9813C118.066 22.188 118.226 22.4691 118.226 22.8244C118.226 23.3219 117.984 23.716 117.498 24.0067C116.729 24.4654 115.8 24.6948 114.709 24.6948C114.249 24.6948 113.884 24.6044 113.613 24.4235C113.247 24.1909 113.064 23.8678 113.064 23.4543C113.064 22.8987 113.452 22.4626 114.227 22.146C115.015 21.823 115.753 21.6615 116.439 21.6615Z" fill="#399BD6"/>
<path d="M125.354 25.2278C126.451 25.2278 127.381 25.5121 128.143 26.0806C128.547 26.3843 128.827 26.7332 128.985 27.1273C129.149 27.5149 129.231 28.0512 129.231 28.736L129.212 30.18C129.212 31.1814 129.281 31.8307 129.42 32.1279C129.489 32.2701 129.555 32.3605 129.618 32.3993C129.681 32.438 129.814 32.4736 130.015 32.5059C130.217 32.5382 130.318 32.6739 130.318 32.9129C130.318 33.223 130.195 33.5461 129.949 33.882C129.71 34.218 129.398 34.499 129.013 34.7252C128.54 35.0094 128.046 35.1516 127.529 35.1516C126.867 35.1516 126.344 34.919 125.96 34.4538C125.827 34.2858 125.704 34.2018 125.591 34.2018C125.465 34.2018 125.298 34.2826 125.09 34.4441C124.459 34.9157 123.744 35.1516 122.944 35.1516C122.118 35.1516 121.45 34.9707 120.94 34.6089C120.605 34.3698 120.341 34.0597 120.145 33.6785C119.95 33.2909 119.852 32.8871 119.852 32.4671C119.852 31.7952 120.117 31.2008 120.646 30.6839C121.472 29.8699 122.707 29.4596 124.352 29.4532C124.718 29.4532 124.948 29.4176 125.042 29.3466C125.137 29.269 125.184 29.0946 125.184 28.8232C125.184 28.1384 125.115 27.6441 124.976 27.3405C124.838 27.0304 124.611 26.8753 124.296 26.8753C124.107 26.8753 123.936 26.9335 123.785 27.0498C123.64 27.166 123.457 27.3793 123.237 27.6894C122.676 28.5099 122.09 28.9201 121.478 28.9201C121.17 28.9201 120.917 28.8265 120.722 28.6391C120.527 28.4517 120.429 28.2062 120.429 27.9026C120.429 27.5925 120.549 27.2823 120.788 26.9722C121.034 26.6621 121.365 26.3908 121.781 26.1582C122.922 25.5379 124.113 25.2278 125.354 25.2278ZM124.721 30.839C124.444 30.839 124.201 30.9553 123.993 31.1879C123.791 31.4205 123.691 31.6983 123.691 32.0213C123.691 32.3314 123.763 32.5834 123.908 32.7772C124.053 32.9646 124.245 33.0583 124.485 33.0583C124.989 33.0583 125.241 32.6222 125.241 31.75C125.241 31.3946 125.203 31.1556 125.128 31.0328C125.058 30.9101 124.923 30.8455 124.721 30.839Z" fill="#399BD6"/>
<path d="M53.8946 55.9492L53.2246 55.6123L49.4375 63.5264L50.1075 63.8633L53.8946 55.9492Z" fill="#9E2A75"/>
<path d="M8.06205 34.3056V29.208C8.06205 28.549 8.01793 28.1323 7.92969 27.9579C7.84146 27.777 7.60196 27.6316 7.2112 27.5218C6.64397 27.3538 6.36035 27.0631 6.36035 26.6496C6.36035 26.3588 6.4801 26.1359 6.7196 25.9809C6.9591 25.8258 7.30574 25.7483 7.75952 25.7483C7.91078 25.7483 8.28579 25.758 8.88453 25.7774H9.45176C10.498 25.7709 11.1093 25.7644 11.2858 25.758C11.4686 25.7451 12.1114 25.6869 13.2144 25.5835C13.5799 25.5448 13.914 25.5254 14.2165 25.5254C15.2501 25.5254 16.1703 25.7418 16.977 26.1747C18.3825 26.9241 19.0852 28.1129 19.0852 29.741C19.0852 31.059 18.5936 32.1154 17.6104 32.9101C16.684 33.653 15.5621 34.0245 14.2449 34.0245C13.9108 34.0245 13.5012 34.0019 13.0159 33.9567C12.7575 33.9373 12.5967 33.9276 12.5337 33.9276C12.3509 33.9276 12.2596 34.0342 12.2596 34.2474V34.3056L12.3257 35.8949C12.3383 36.205 12.3919 36.4376 12.4864 36.5927C12.5873 36.7413 12.789 36.8963 13.0915 37.0579C13.5012 37.284 13.706 37.5295 13.706 37.7944C13.706 38.2014 13.4035 38.5148 12.7984 38.7344C12.1934 38.9541 11.3362 39.0639 10.227 39.0639C7.89503 39.0639 6.72905 38.6537 6.72905 37.8332C6.72905 37.6393 6.77947 37.4907 6.88031 37.3874C6.98115 37.284 7.2175 37.1354 7.58935 36.9416C7.81625 36.8188 7.9486 36.6476 7.98641 36.4279C8.02423 36.2083 8.04944 35.5008 8.06205 34.3056ZM12.3257 27.9773V31.2722C12.3257 31.5242 12.3793 31.676 12.4864 31.7277C12.6692 31.8182 12.8993 31.8634 13.1766 31.8634C13.5926 31.8634 13.9423 31.7439 14.226 31.5048C14.6356 31.1624 14.8405 30.5874 14.8405 29.7798C14.8405 28.9399 14.601 28.3326 14.122 27.9579C13.8194 27.7188 13.4539 27.5993 13.0253 27.5993C12.5589 27.5993 12.3257 27.7253 12.3257 27.9773Z" fill="#9E2A75"/>
<path d="M27.9624 34.5285H23.5191C23.3237 34.5285 23.226 34.6157 23.226 34.7901C23.226 35.2101 23.4466 35.6074 23.8878 35.9822C24.3353 36.3504 24.8143 36.5345 25.3248 36.5345C25.6273 36.5345 25.9613 36.4764 26.3269 36.3601C26.6987 36.2374 27.0044 36.0888 27.2439 35.9143C27.4582 35.7593 27.6284 35.6817 27.7544 35.6817C27.9183 35.6817 28.079 35.7851 28.2366 35.9918C28.3941 36.1986 28.4729 36.4118 28.4729 36.6315C28.4729 37.0966 28.1893 37.5457 27.6221 37.9785C26.62 38.7474 25.4634 39.1318 24.1525 39.1318C22.829 39.1318 21.7197 38.7377 20.8248 37.9495C20.3899 37.5618 20.0306 37.0934 19.747 36.5442C19.3752 35.8142 19.1892 35.0453 19.1892 34.2377C19.1892 33.1523 19.5107 32.1768 20.1535 31.311C20.7082 30.5616 21.414 30.0027 22.2712 29.6344C22.9141 29.3566 23.6105 29.2177 24.3605 29.2177C25.558 29.2177 26.5758 29.5666 27.4141 30.2644C27.8364 30.6132 28.1767 31.0267 28.4351 31.5048C28.7313 32.0475 28.8794 32.5773 28.8794 33.0942C28.8794 33.5141 28.7944 33.8598 28.6242 34.1311C28.454 34.396 28.2334 34.5285 27.9624 34.5285ZM23.7649 32.7162H24.7197C25.1231 32.7162 25.3248 32.5256 25.3248 32.1445C25.3248 31.7956 25.2271 31.5113 25.0317 31.2916C24.8363 31.072 24.5811 30.9621 24.266 30.9621C23.913 30.9621 23.6357 31.1043 23.434 31.3885C23.2449 31.6534 23.1504 31.9216 23.1504 32.1929C23.1504 32.3867 23.1945 32.5224 23.2828 32.5999C23.3773 32.6775 23.538 32.7162 23.7649 32.7162Z" fill="#9E2A75"/>
<path d="M34.1263 29.2662C34.5108 29.2662 34.7503 29.3017 34.8448 29.3728C34.9394 29.4374 34.9866 29.6054 34.9866 29.8767C34.9866 30.1158 35.0623 30.2353 35.2135 30.2353C35.2765 30.2353 35.4877 30.1125 35.8469 29.867C36.1179 29.6797 36.4614 29.5246 36.8774 29.4019C37.2997 29.2726 37.681 29.208 38.0213 29.208C38.8217 29.208 39.5371 29.4923 40.1673 30.0609C40.6463 30.4937 41.0182 31.0397 41.2829 31.6987C41.5602 32.39 41.6989 33.1168 41.6989 33.8792C41.6989 35.5073 41.1631 36.8479 40.0917 37.901C39.2661 38.7215 38.327 39.1318 37.2745 39.1318C36.7387 39.1318 36.1873 39.0026 35.62 38.7441C35.5066 38.6924 35.4152 38.6666 35.3459 38.6666C35.1568 38.6666 35.0623 38.8604 35.0623 39.2481C35.0623 39.7585 35.2293 40.1267 35.5633 40.3529C35.8721 40.5661 36.0549 40.7082 36.1116 40.7793C36.1747 40.8568 36.2062 40.9828 36.2062 41.1572C36.2062 41.5449 35.995 41.8421 35.5728 42.0488C35.1505 42.262 34.5549 42.3686 33.786 42.3686C32.4183 42.3686 31.2208 42.0876 30.1935 41.5255C29.6704 41.2412 29.4088 40.8891 29.4088 40.4692C29.4088 40.2753 29.4467 40.1267 29.5223 40.0234C29.6042 39.9265 29.7586 39.8231 29.9855 39.7132C30.3133 39.5582 30.5118 39.2771 30.5811 38.8701C30.6568 38.4631 30.7135 37.2937 30.7513 35.3619C30.7072 33.7726 30.6505 32.881 30.5811 32.6872C30.5559 32.6225 30.5181 32.5806 30.4677 32.5612C30.4236 32.5418 30.2691 32.5063 30.0044 32.4546C29.8028 32.4158 29.6389 32.3221 29.5128 32.1735C29.3868 32.0185 29.3238 31.8343 29.3238 31.6211C29.3238 31.3627 29.412 31.1366 29.5885 30.9427C29.7649 30.7425 30.0517 30.5486 30.4488 30.3613C31.9929 29.6441 33.2188 29.2791 34.1263 29.2662ZM35.0623 32.9294L34.9204 35.5945C34.9141 35.7043 34.911 35.8109 34.911 35.9143C34.911 36.1146 34.9961 36.2761 35.1663 36.3989C35.3364 36.5216 35.5633 36.583 35.8469 36.583C36.7167 36.583 37.1516 35.8497 37.1516 34.3831C37.1516 33.4334 36.9688 32.7647 36.6032 32.377C36.3763 32.138 36.1053 32.0185 35.7902 32.0185C35.3427 32.0185 35.1001 32.3221 35.0623 32.9294Z" fill="#9E2A75"/>
<path d="M47.8911 31.7568V35.0324C47.8911 35.4201 47.9825 35.7366 48.1653 35.9822C48.3544 36.2277 48.5939 36.3504 48.8838 36.3504C49.1296 36.3504 49.4542 36.2341 49.8575 36.0015C49.9521 35.9434 50.0466 35.9143 50.1412 35.9143C50.2924 35.9143 50.4311 36.008 50.5571 36.1954C50.6832 36.3827 50.7462 36.5862 50.7462 36.8059C50.7462 37.2065 50.5319 37.5909 50.1033 37.9591C49.2084 38.7409 48.1243 39.1318 46.8512 39.1318C45.8428 39.1318 45.0329 38.841 44.4216 38.2596C43.8102 37.6716 43.5046 36.8996 43.5046 35.9434V31.4661C43.5046 31.3175 43.4856 31.227 43.4478 31.1947C43.4163 31.156 43.3281 31.1366 43.1831 31.1366H42.2094C42.0266 31.1366 41.91 31.1075 41.8596 31.0494C41.8092 30.9847 41.7839 30.8394 41.7839 30.6132V30.1868C41.7902 29.993 41.8627 29.8509 42.0014 29.7604L46.3313 26.9694C46.4384 26.9112 46.5707 26.8822 46.7283 26.8822H47.4941C47.6516 26.8822 47.7556 26.9209 47.8061 26.9984C47.8628 27.0695 47.8911 27.2149 47.8911 27.4345V28.7429C47.8911 28.9367 47.9195 29.0627 47.9762 29.1208C48.0392 29.179 48.1684 29.208 48.3638 29.208H50.1128C50.346 29.208 50.4972 29.2533 50.5666 29.3437C50.6359 29.4277 50.6706 29.6118 50.6706 29.8961V30.4679C50.6706 30.778 50.6265 30.9944 50.5382 31.1172C50.45 31.2335 50.2893 31.2916 50.0561 31.2916H48.3449C48.1684 31.2916 48.0487 31.3239 47.9857 31.3885C47.9226 31.4531 47.8911 31.5759 47.8911 31.7568Z" fill="#9E2A75"/>
<path d="M56.9763 29.208C58.1297 29.208 59.1412 29.5149 60.011 30.1287C60.6349 30.568 61.136 31.1398 61.5141 31.844C61.9049 32.5806 62.1003 33.3494 62.1003 34.1505C62.1003 35.5525 61.4732 36.7445 60.219 37.7266C59.0215 38.6634 57.6507 39.1318 56.1065 39.1318C54.6002 39.1318 53.3807 38.6924 52.4479 37.8138C51.5403 36.961 51.0865 35.8497 51.0865 34.48C51.0865 32.9553 51.6412 31.7083 52.7504 30.7392C53.9101 29.7184 55.3187 29.208 56.9763 29.208ZM56.22 31.4467C55.9427 31.4467 55.7189 31.5533 55.5488 31.7665C55.3849 31.9732 55.303 32.2511 55.303 32.5999C55.303 32.9876 55.3723 33.5174 55.5109 34.1893C55.6559 34.8547 55.8261 35.4459 56.0215 35.9628C56.2168 36.4926 56.5351 36.7574 56.9763 36.7574C57.5372 36.7574 57.8177 36.3924 57.8177 35.6623C57.8177 35.1196 57.7452 34.5026 57.6002 33.8113C57.4616 33.12 57.2914 32.5579 57.0897 32.1251C56.8818 31.6857 56.5918 31.4596 56.22 31.4467Z" fill="#9E2A75"/>
<path d="M84.3415 7.17748C85.7248 7.17748 86.8462 6.02797 86.8462 4.60998C86.8462 3.19199 85.7248 2.04248 84.3415 2.04248C82.9583 2.04248 81.8369 3.19199 81.8369 4.60998C81.8369 6.02797 82.9583 7.17748 84.3415 7.17748Z" fill="#399BD6"/>
</svg>
