<svg width="116" height="44" viewBox="0 0 116 44" fill="none" xmlns="http://www.w3.org/2000/svg">
<g clip-path="url(#clip0_147_2)">
<path d="M43.1492 0.638672H0.637207L0.639477 43.2383H43.1514L43.1492 0.638672Z" stroke="white"/>
<path d="M10.25 32.285L21.24 14.4H10.67V12.195H24.145V13.91L13.33 31.83H23.165C23.5617 31.83 23.8417 31.8067 24.005 31.76C24.1683 31.7133 24.32 31.62 24.46 31.48H24.705V31.83V34H10.25V32.285ZM28.31 12.195H30.83H31.18V12.44C31.04 12.58 30.9467 12.7317 30.9 12.895C30.8767 13.0583 30.865 13.3383 30.865 13.735V31.9H41.365V34H28.31V12.195ZM52.25 34.385C50.5933 34.385 49.1817 33.9533 48.015 33.09C46.8483 32.2267 45.9617 30.9667 45.355 29.31C44.7483 27.63 44.445 25.6 44.445 23.22C44.445 20.91 44.7483 18.9267 45.355 17.27C45.9617 15.59 46.8483 14.3067 48.015 13.42C49.1817 12.51 50.5933 12.055 52.25 12.055C53.93 12.055 55.3417 12.51 56.485 13.42C57.6517 14.3067 58.5383 15.59 59.145 17.27C59.7517 18.9267 60.055 20.91 60.055 23.22C60.055 25.6 59.7517 27.63 59.145 29.31C58.5383 30.9667 57.6517 32.2267 56.485 33.09C55.3417 33.9533 53.93 34.385 52.25 34.385ZM52.25 32.25C53.37 32.25 54.315 31.9 55.085 31.2C55.8783 30.5 56.485 29.485 56.905 28.155C57.325 26.8017 57.535 25.1567 57.535 23.22C57.535 21.3767 57.325 19.79 56.905 18.46C56.485 17.1067 55.8783 16.0567 55.085 15.31C54.315 14.5633 53.37 14.19 52.25 14.19C51.1533 14.19 50.2083 14.5633 49.415 15.31C48.6217 16.0567 48.015 17.1067 47.595 18.46C47.175 19.79 46.965 21.3767 46.965 23.22C46.965 25.1567 47.175 26.8017 47.595 28.155C48.015 29.485 48.6217 30.5 49.415 31.2C50.2083 31.9 51.1533 32.25 52.25 32.25ZM62.96 34V12.195H69.4C71.1267 12.195 72.515 12.4517 73.565 12.965C74.6383 13.4783 75.42 14.2017 75.91 15.135C76.4 16.0683 76.645 17.165 76.645 18.425C76.645 19.2417 76.4583 20.0583 76.085 20.875C75.735 21.6917 75.2217 22.4033 74.545 23.01C73.8917 23.6167 73.11 24.0367 72.2 24.27L77.24 34H74.51L69.68 24.375H65.445V34H62.96ZM65.445 22.205H69.68C71.2433 22.205 72.375 21.8667 73.075 21.19C73.775 20.49 74.125 19.5683 74.125 18.425C74.125 17.7017 73.9733 17.0483 73.67 16.465C73.3667 15.8583 72.8883 15.38 72.235 15.03C71.5817 14.68 70.73 14.505 69.68 14.505H65.445V22.205ZM86.2 34V25.39L79.48 12.195H82.28L87.635 22.765L92.465 12.195H95.055L88.86 25.39V34H86.2Z" fill="white"/>
</g>
<defs>
<clipPath id="clip0_147_2">
<rect width="116" height="44" fill="white"/>
</clipPath>
</defs>
</svg>
