<svg width="27" height="26" viewBox="0 0 27 26" fill="none" xmlns="http://www.w3.org/2000/svg">
<path d="M13.7344 21.1275L20.1197 25.1816C20.9432 25.7011 21.9567 24.9282 21.716 23.9781L19.8663 16.7059C19.8163 16.5044 19.8242 16.2928 19.8892 16.0955C19.9542 15.8983 20.0736 15.7234 20.2337 15.5911L25.9602 10.8148C26.7076 10.194 26.3276 8.93973 25.352 8.87638L17.8772 8.39495C17.6733 8.38309 17.4772 8.31207 17.3129 8.19057C17.1487 8.06907 17.0234 7.90237 16.9524 7.71082L14.1651 0.692086C14.0914 0.489256 13.957 0.314041 13.7802 0.190228C13.6034 0.0664147 13.3928 0 13.1769 0C12.9611 0 12.7505 0.0664147 12.5737 0.190228C12.3969 0.314041 12.2625 0.489256 12.1887 0.692086L9.40152 7.71082C9.33049 7.90237 9.20519 8.06907 9.04095 8.19057C8.8767 8.31207 8.68062 8.38309 8.47667 8.39495L1.00185 8.87638C0.0263226 8.93973 -0.353753 10.194 0.393729 10.8148L6.1202 15.5911C6.28026 15.7234 6.39967 15.8983 6.46467 16.0955C6.52967 16.2928 6.53762 16.5044 6.48761 16.7059L4.77727 23.4459C4.48588 24.5862 5.70212 25.511 6.67765 24.8902L12.6195 21.1275C12.7861 21.0215 12.9795 20.9653 13.1769 20.9653C13.3744 20.9653 13.5678 21.0215 13.7344 21.1275Z" fill="#FFC700"/>
</svg>
