<svg width="29" height="28" viewBox="0 0 29 28" fill="none" xmlns="http://www.w3.org/2000/svg">
<path d="M15.1499 22.1275L21.5352 26.1816C22.3587 26.7011 23.3722 25.9282 23.1315 24.9781L21.2818 17.7059C21.2318 17.5044 21.2397 17.2928 21.3047 17.0955C21.3697 16.8983 21.4892 16.7234 21.6492 16.5911L27.3757 11.8148C28.1232 11.194 27.7431 9.93973 26.7676 9.87638L19.2927 9.39495C19.0888 9.38309 18.8927 9.31207 18.7285 9.19057C18.5642 9.06907 18.4389 8.90237 18.3679 8.71082L15.5807 1.69209C15.5069 1.48926 15.3725 1.31404 15.1957 1.19023C15.0189 1.06641 14.8083 1 14.5925 1C14.3766 1 14.166 1.06641 13.9892 1.19023C13.8125 1.31404 13.6781 1.48926 13.6043 1.69209L10.817 8.71082C10.746 8.90237 10.6207 9.06907 10.4565 9.19057C10.2922 9.31207 10.0962 9.38309 9.8922 9.39495L2.41738 9.87638C1.44185 9.93973 1.06177 11.194 1.80926 11.8148L7.53573 16.5911C7.69579 16.7234 7.81519 16.8983 7.8802 17.0955C7.9452 17.2928 7.95315 17.5044 7.90314 17.7059L6.1928 24.4459C5.9014 25.5862 7.11765 26.511 8.09317 25.8902L14.035 22.1275C14.2016 22.0215 14.395 21.9653 14.5925 21.9653C14.7899 21.9653 14.9833 22.0215 15.1499 22.1275V22.1275Z" stroke="#F7C102" stroke-width="2" stroke-linecap="round" stroke-linejoin="round"/>
</svg>
