<svg width="35" height="34" viewBox="0 0 35 34" fill="none" xmlns="http://www.w3.org/2000/svg">
<g filter="url(#filter0_d_70_134)">
<path d="M16.1504 22.1275L22.5357 26.1816C23.3592 26.7011 24.3727 25.9282 24.132 24.9781L22.2823 17.7059C22.2323 17.5044 22.2402 17.2928 22.3052 17.0955C22.3702 16.8983 22.4896 16.7234 22.6497 16.5911L28.3762 11.8148C29.1236 11.194 28.7436 9.93973 27.768 9.87638L20.2932 9.39495C20.0893 9.38309 19.8932 9.31207 19.729 9.19057C19.5647 9.06907 19.4394 8.90237 19.3684 8.71082L16.5812 1.69209C16.5074 1.48926 16.373 1.31404 16.1962 1.19023C16.0194 1.06641 15.8088 1 15.593 1C15.3771 1 15.1665 1.06641 14.9897 1.19023C14.8129 1.31404 14.6785 1.48926 14.6048 1.69209L11.8175 8.71082C11.7465 8.90237 11.6212 9.06907 11.457 9.19057C11.2927 9.31207 11.0966 9.38309 10.8927 9.39495L3.41787 9.87638C2.44234 9.93973 2.06226 11.194 2.80974 11.8148L8.53622 16.5911C8.69627 16.7234 8.81568 16.8983 8.88069 17.0955C8.94569 17.2928 8.95364 17.5044 8.90362 17.7059L7.19328 24.4459C6.90189 25.5862 8.11813 26.511 9.09366 25.8902L15.0355 22.1275C15.2021 22.0215 15.3955 21.9653 15.593 21.9653C15.7904 21.9653 15.9838 22.0215 16.1504 22.1275V22.1275Z" stroke="#F7C102" stroke-width="2" stroke-linecap="round" stroke-linejoin="round"/>
</g>
<defs>
<filter id="filter0_d_70_134" x="0.418945" y="0" width="34.3477" height="33.3594" filterUnits="userSpaceOnUse" color-interpolation-filters="sRGB">
<feFlood flood-opacity="0" result="BackgroundImageFix"/>
<feColorMatrix in="SourceAlpha" type="matrix" values="0 0 0 0 0 0 0 0 0 0 0 0 0 0 0 0 0 0 127 0" result="hardAlpha"/>
<feOffset dx="2" dy="3"/>
<feGaussianBlur stdDeviation="1.5"/>
<feComposite in2="hardAlpha" operator="out"/>
<feColorMatrix type="matrix" values="0 0 0 0 0 0 0 0 0 0 0 0 0 0 0 0 0 0 0.07 0"/>
<feBlend mode="normal" in2="BackgroundImageFix" result="effect1_dropShadow_70_134"/>
<feBlend mode="normal" in="SourceGraphic" in2="effect1_dropShadow_70_134" result="shape"/>
</filter>
</defs>
</svg>
