<svg width="28" height="26" viewBox="0 0 28 26" fill="none" xmlns="http://www.w3.org/2000/svg">
<path d="M14.4421 21.1275L20.8274 25.1816C21.6509 25.7011 22.6645 24.9282 22.4237 23.9781L20.574 16.7059C20.524 16.5044 20.532 16.2928 20.597 16.0955C20.662 15.8983 20.7814 15.7234 20.9414 15.5911L26.6679 10.8148C27.4154 10.194 27.0353 8.93973 26.0598 8.87638L18.585 8.39495C18.381 8.38309 18.1849 8.31207 18.0207 8.19057C17.8565 8.06907 17.7312 7.90237 17.6601 7.71082L14.8729 0.692086C14.7991 0.489256 14.6647 0.314041 14.4879 0.190228C14.3111 0.0664147 14.1005 0 13.8847 0C13.6689 0 13.4583 0.0664147 13.2815 0.190228C13.1047 0.314041 12.9703 0.489256 12.8965 0.692086L10.1093 7.71082C10.0382 7.90237 9.91295 8.06907 9.74871 8.19057C9.58447 8.31207 9.38839 8.38309 9.18444 8.39495L1.70961 8.87638C0.734086 8.93973 0.354011 10.194 1.10149 10.8148L6.82797 15.5911C6.98802 15.7234 7.10743 15.8983 7.17243 16.0955C7.23744 16.2928 7.24539 16.5044 7.19537 16.7059L5.48503 23.4459C5.19364 24.5862 6.40988 25.511 7.38541 24.8902L13.3273 21.1275C13.4939 21.0215 13.6872 20.9653 13.8847 20.9653C14.0822 20.9653 14.2755 21.0215 14.4421 21.1275Z" fill="#FFC700"/>
</svg>
