<svg width="272" height="68" viewBox="0 0 272 68" version="1.1" xmlns="http://www.w3.org/2000/svg" xmlns:xlink="http://www.w3.org/1999/xlink">
<title>A1243-t</title>
<desc>Created using Figma</desc>
<g id="Canvas" transform="translate(4649 425)">
<g id="A1243-t">
<mask id="mask0_outline_ins">
<use xlink:href="#path0_fill" fill="white" transform="translate(-4649 -425)"/>
<use xlink:href="#path1_fill" fill="white" transform="translate(-4649 -425)"/>
<use xlink:href="#path2_fill" fill="white" transform="translate(-4649 -425)"/>
<use xlink:href="#path3_fill" fill="white" transform="translate(-4649 -425)"/>
<use xlink:href="#path4_fill" fill="white" transform="translate(-4649 -425)"/>
<use xlink:href="#path5_fill" fill="white" transform="translate(-4649 -425)"/>
<use xlink:href="#path6_fill" fill="white" transform="translate(-4649 -425)"/>
<use xlink:href="#path7_fill" fill="white" transform="translate(-4649 -425)"/>
<use xlink:href="#path8_fill" fill="white" transform="translate(-4649 -425)"/>
<use xlink:href="#path9_fill" fill="white" transform="translate(-4649 -425)"/>
<use xlink:href="#path10_fill" fill="white" transform="translate(-4649 -425)"/>
<use xlink:href="#path11_fill" fill="white" transform="translate(-4649 -425)"/>
<use xlink:href="#path12_fill" fill="white" transform="translate(-4649 -425)"/>
<use xlink:href="#path13_fill" fill="white" transform="translate(-4649 -425)"/>
<use xlink:href="#path14_fill" fill="white" transform="translate(-4649 -425)"/>
<use xlink:href="#path15_fill" fill="white" transform="translate(-4649 -425)"/>
<use xlink:href="#path16_fill" fill="white" transform="translate(-4649 -425)"/>
<use xlink:href="#path17_fill" fill="white" transform="translate(-4649 -425)"/>
<use xlink:href="#path18_fill" fill="white" transform="translate(-4649 -425)"/>
<use xlink:href="#path19_fill" fill="white" transform="translate(-4649 -425)"/>
<use xlink:href="#path20_fill" fill="white" transform="translate(-4649 -425)"/>
<use xlink:href="#path21_fill" fill="white" transform="translate(-4649 -425)"/>
<use xlink:href="#path22_fill" fill="white" transform="translate(-4649 -425)"/>
<use xlink:href="#path23_fill" fill="white" transform="translate(-4649 -425)"/>
<use xlink:href="#path24_fill" fill="white" transform="translate(-4649 -425)"/>
<use xlink:href="#path25_fill" fill="white" transform="translate(-4649 -425)"/>
<use xlink:href="#path26_fill" fill="white" transform="translate(-4649 -425)"/>
<use xlink:href="#path27_fill" fill="white" transform="translate(-4649 -425)"/>
<use xlink:href="#path28_fill" fill="white" transform="translate(-4649 -425)"/>
<use xlink:href="#path29_fill" fill="white" transform="translate(-4649 -425)"/>
<use xlink:href="#path30_fill" fill="white" transform="translate(-4649 -425)"/>
<use xlink:href="#path31_fill" fill="white" transform="translate(-4649 -425)"/>
<use xlink:href="#path32_fill" fill="white" transform="translate(-4649 -425)"/>
<use xlink:href="#path33_fill" fill="white" transform="translate(-4649 -425)"/>
<use xlink:href="#path34_fill" fill="white" transform="translate(-4649 -425)"/>
<use xlink:href="#path35_fill" fill="white" transform="translate(-4649 -425)"/>
<use xlink:href="#path36_fill" fill="white" transform="translate(-4649 -425)"/>
<use xlink:href="#path37_fill" fill="white" transform="translate(-4649 -425)"/>
<use xlink:href="#path38_fill" fill="white" transform="translate(-4649 -425)"/>
<use xlink:href="#path39_fill" fill="white" transform="translate(-4649 -425)"/>
<use xlink:href="#path40_fill" fill="white" transform="translate(-4649 -425)"/>
<use xlink:href="#path41_fill" fill="white" transform="translate(-4649 -425)"/>
<use xlink:href="#path42_fill" fill="white" transform="translate(-4649 -425)"/>
<use xlink:href="#path43_fill" fill="white" transform="translate(-4649 -425)"/>
<use xlink:href="#path44_fill" fill="white" transform="translate(-4649 -425)"/>
<use xlink:href="#path45_fill" fill="white" transform="translate(-4649 -425)"/>
<use xlink:href="#path46_fill" fill="white" transform="translate(-4649 -425)"/>
<use xlink:href="#path47_fill" fill="white" transform="translate(-4649 -425)"/>
<use xlink:href="#path48_fill" fill="white" transform="translate(-4649 -425)"/>
<use xlink:href="#path49_fill" fill="white" transform="translate(-4649 -425)"/>
<use xlink:href="#path50_fill" fill="white" transform="translate(-4649 -425)"/>
<use xlink:href="#path51_fill" fill="white" transform="translate(-4649 -425)"/>
<use xlink:href="#path52_fill" fill="white" transform="translate(-4649 -425)"/>
<use xlink:href="#path53_fill" fill="white" transform="translate(-4649 -425)"/>
<use xlink:href="#path54_fill" fill="white" transform="translate(-4649 -425)"/>
<use xlink:href="#path55_fill" fill="white" transform="translate(-4649 -425)"/>
<use xlink:href="#path56_fill" fill="white" transform="translate(-4649 -425)"/>
<use xlink:href="#path57_fill" fill="white" transform="translate(-4649 -425)"/>
<use xlink:href="#path58_fill" fill="white" transform="translate(-4649 -425)"/>
<use xlink:href="#path59_fill" fill="white" transform="translate(-4649 -425)"/>
<use xlink:href="#path60_fill" fill="white" transform="translate(-4649 -425)"/>
<use xlink:href="#path61_fill" fill="white" transform="translate(-4649 -425)"/>
<use xlink:href="#path62_fill" fill="white" transform="translate(-4649 -425)"/>
<use xlink:href="#path63_fill" fill="white" transform="translate(-4649 -425)"/>
<use xlink:href="#path64_fill" fill="white" transform="translate(-4649 -425)"/>
<use xlink:href="#path65_fill" fill="white" transform="translate(-4649 -425)"/>
<use xlink:href="#path66_fill" fill="white" transform="translate(-4649 -425)"/>
<use xlink:href="#path67_fill" fill="white" transform="translate(-4649 -425)"/>
<use xlink:href="#path68_fill" fill="white" transform="translate(-4649 -425)"/>
<use xlink:href="#path69_fill" fill="white" transform="translate(-4649 -425)"/>
<use xlink:href="#path70_fill" fill="white" transform="translate(-4649 -425)"/>
<use xlink:href="#path71_fill" fill="white" transform="translate(-4649 -425)"/>
<use xlink:href="#path72_fill" fill="white" transform="translate(-4649 -425)"/>
<use xlink:href="#path73_fill" fill="white" transform="translate(-4649 -425)"/>
<use xlink:href="#path74_fill" fill="white" transform="translate(-4649 -425)"/>
<use xlink:href="#path75_fill" fill="white" transform="translate(-4649 -425)"/>
<use xlink:href="#path76_fill" fill="white" transform="translate(-4649 -425)"/>
<use xlink:href="#path77_fill" fill="white" transform="translate(-4649 -425)"/>
<use xlink:href="#path78_fill" fill="white" transform="translate(-4649 -425)"/>
<use xlink:href="#path79_fill" fill="white" transform="translate(-4649 -425)"/>
<use xlink:href="#path80_fill" fill="white" transform="translate(-4649 -425)"/>
<use xlink:href="#path81_fill" fill="white" transform="translate(-4649 -425)"/>
<use xlink:href="#path82_fill" fill="white" transform="translate(-4649 -425)"/>
<use xlink:href="#path83_fill" fill="white" transform="translate(-4649 -425)"/>
<use xlink:href="#path84_fill" fill="white" transform="translate(-4649 -425)"/>
<use xlink:href="#path85_fill" fill="white" transform="translate(-4649 -425)"/>
<use xlink:href="#path86_fill" fill="white" transform="translate(-4649 -425)"/>
<use xlink:href="#path87_fill" fill="white" transform="translate(-4649 -425)"/>
<use xlink:href="#path88_fill" fill="white" transform="translate(-4649 -425)"/>
<use xlink:href="#path89_fill" fill="white" transform="translate(-4649 -425)"/>
<use xlink:href="#path90_fill" fill="white" transform="translate(-4649 -425)"/>
<use xlink:href="#path91_fill" fill="white" transform="translate(-4649 -425)"/>
<use xlink:href="#path92_fill" fill="white" transform="translate(-4649 -425)"/>
<use xlink:href="#path93_fill" fill="white" transform="translate(-4649 -425)"/>
<use xlink:href="#path94_fill" fill="white" transform="translate(-4649 -425)"/>
<use xlink:href="#path95_fill" fill="white" transform="translate(-4649 -425)"/>
<use xlink:href="#path96_fill" fill="white" transform="translate(-4649 -425)"/>
<use xlink:href="#path97_fill" fill="white" transform="translate(-4649 -425)"/>
<use xlink:href="#path98_fill" fill="white" transform="translate(-4649 -425)"/>
<use xlink:href="#path99_fill" fill="white" transform="translate(-4649 -425)"/>
<use xlink:href="#path100_fill" fill="white" transform="translate(-4649 -425)"/>
<use xlink:href="#path101_fill" fill="white" transform="translate(-4649 -425)"/>
<use xlink:href="#path102_fill" fill="white" transform="translate(-4649 -425)"/>
<use xlink:href="#path103_fill" fill="white" transform="translate(-4649 -425)"/>
<use xlink:href="#path104_fill" fill="white" transform="translate(-4649 -425)"/>
<use xlink:href="#path105_fill" fill="white" transform="translate(-4649 -425)"/>
<use xlink:href="#path106_fill" fill="white" transform="translate(-4649 -425)"/>
<use xlink:href="#path107_fill" fill="white" transform="translate(-4649 -425)"/>
<use xlink:href="#path108_fill" fill="white" transform="translate(-4649 -425)"/>
</mask>
<g mask="url(#mask0_outline_ins)">
<use xlink:href="#path109_stroke_2x" transform="translate(-4649 -425)" fill="#FFFFFF"/>
</g>
</g>
</g>
<defs>
<path id="path0_fill" d="M 0 2C 0 0.89543 0.89543 0 2 0L 9 0C 10.1046 0 11 0.89543 11 2L 11 4C 11 5.10457 10.1046 6 9 6L 2 6C 0.89543 6 0 5.10457 0 4L 0 2Z"/>
<path id="path1_fill" d="M 13 2C 13 0.89543 13.8954 0 15 0L 22 0C 23.1046 0 24 0.89543 24 2L 24 4C 24 5.10457 23.1046 6 22 6L 15 6C 13.8954 6 13 5.10457 13 4L 13 2Z"/>
<path id="path2_fill" d="M 26 2C 26 0.89543 26.8954 0 28 0L 35 0C 36.1046 0 37 0.89543 37 2L 37 4C 37 5.10457 36.1046 6 35 6L 28 6C 26.8954 6 26 5.10457 26 4L 26 2Z"/>
<path id="path3_fill" d="M 39 2C 39 0.89543 39.8954 0 41 0L 48 0C 49.1046 0 50 0.89543 50 2L 50 4C 50 5.10457 49.1046 6 48 6L 41 6C 39.8954 6 39 5.10457 39 4L 39 2Z"/>
<path id="path4_fill" d="M 52 2C 52 0.89543 52.8954 0 54 0L 61 0C 62.1046 0 63 0.89543 63 2L 63 4C 63 5.10457 62.1046 6 61 6L 54 6C 52.8954 6 52 5.10457 52 4L 52 2Z"/>
<path id="path5_fill" d="M 65 2C 65 0.89543 65.8954 0 67 0L 74 0C 75.1046 0 76 0.89543 76 2L 76 4C 76 5.10457 75.1046 6 74 6L 67 6C 65.8954 6 65 5.10457 65 4L 65 2Z"/>
<path id="path6_fill" d="M 78 2C 78 0.89543 78.8954 0 80 0L 87 0C 88.1046 0 89 0.89543 89 2L 89 4C 89 5.10457 88.1046 6 87 6L 80 6C 78.8954 6 78 5.10457 78 4L 78 2Z"/>
<path id="path7_fill" d="M 91 2C 91 0.89543 91.8954 0 93 0L 100 0C 101.105 0 102 0.89543 102 2L 102 4C 102 5.10457 101.105 6 100 6L 93 6C 91.8954 6 91 5.10457 91 4L 91 2Z"/>
<path id="path8_fill" d="M 104 2C 104 0.89543 104.895 0 106 0L 113 0C 114.105 0 115 0.89543 115 2L 115 4C 115 5.10457 114.105 6 113 6L 106 6C 104.895 6 104 5.10457 104 4L 104 2Z"/>
<path id="path9_fill" d="M 117 2C 117 0.89543 117.895 0 119 0L 126 0C 127.105 0 128 0.89543 128 2L 128 4C 128 5.10457 127.105 6 126 6L 119 6C 117.895 6 117 5.10457 117 4L 117 2Z"/>
<path id="path10_fill" d="M 130 2C 130 0.89543 130.895 0 132 0L 139 0C 140.105 0 141 0.89543 141 2L 141 4C 141 5.10457 140.105 6 139 6L 132 6C 130.895 6 130 5.10457 130 4L 130 2Z"/>
<path id="path11_fill" d="M 143 2C 143 0.89543 143.895 0 145 0L 152 0C 153.105 0 154 0.89543 154 2L 154 4C 154 5.10457 153.105 6 152 6L 145 6C 143.895 6 143 5.10457 143 4L 143 2Z"/>
<path id="path12_fill" d="M 156 2C 156 0.89543 156.895 0 158 0L 165 0C 166.105 0 167 0.89543 167 2L 167 4C 167 5.10457 166.105 6 165 6L 158 6C 156.895 6 156 5.10457 156 4L 156 2Z"/>
<path id="path13_fill" d="M 169 2C 169 0.89543 169.895 0 171 0L 178 0C 179.105 0 180 0.89543 180 2L 180 4C 180 5.10457 179.105 6 178 6L 171 6C 169.895 6 169 5.10457 169 4L 169 2Z"/>
<path id="path14_fill" d="M 186 2C 186 0.89543 186.895 0 188 0L 194 0C 195.105 0 196 0.89543 196 2L 196 4C 196 5.10457 195.105 6 194 6L 188 6C 186.895 6 186 5.10457 186 4L 186 2Z"/>
<path id="path15_fill" d="M 198 2C 198 0.89543 198.895 0 200 0L 206 0C 207.105 0 208 0.89543 208 2L 208 4C 208 5.10457 207.105 6 206 6L 200 6C 198.895 6 198 5.10457 198 4L 198 2Z"/>
<path id="path16_fill" d="M 210 2C 210 0.89543 210.895 0 212 0L 218 0C 219.105 0 220 0.89543 220 2L 220 4C 220 5.10457 219.105 6 218 6L 212 6C 210.895 6 210 5.10457 210 4L 210 2Z"/>
<path id="path17_fill" d="M 226 2C 226 0.89543 226.895 0 228 0L 234 0C 235.105 0 236 0.89543 236 2L 236 4C 236 5.10457 235.105 6 234 6L 228 6C 226.895 6 226 5.10457 226 4L 226 2Z"/>
<path id="path18_fill" d="M 238 2C 238 0.89543 238.895 0 240 0L 246 0C 247.105 0 248 0.89543 248 2L 248 4C 248 5.10457 247.105 6 246 6L 240 6C 238.895 6 238 5.10457 238 4L 238 2Z"/>
<path id="path19_fill" d="M 250 2C 250 0.89543 250.895 0 252 0L 258 0C 259.105 0 260 0.89543 260 2L 260 4C 260 5.10457 259.105 6 258 6L 252 6C 250.895 6 250 5.10457 250 4L 250 2Z"/>
<path id="path20_fill" d="M 262 2C 262 0.89543 262.895 0 264 0L 270 0C 271.105 0 272 0.89543 272 2L 272 4C 272 5.10457 271.105 6 270 6L 264 6C 262.895 6 262 5.10457 262 4L 262 2Z"/>
<path id="path21_fill" d="M 0 10C 0 8.89543 0.89543 8 2 8L 8 8C 9.10457 8 10 8.89543 10 10L 10 16C 10 17.1046 9.10457 18 8 18L 2 18C 0.89543 18 0 17.1046 0 16L 0 10Z"/>
<path id="path22_fill" d="M 0 22C 0 20.8954 0.89543 20 2 20L 15 20C 16.1046 20 17 20.8954 17 22L 17 28C 17 29.1046 16.1046 30 15 30L 2 30C 0.89543 30 0 29.1046 0 28L 0 22Z"/>
<path id="path23_fill" d="M 12 10C 12 8.89543 12.8954 8 14 8L 20 8C 21.1046 8 22 8.89543 22 10L 22 16C 22 17.1046 21.1046 18 20 18L 14 18C 12.8954 18 12 17.1046 12 16L 12 10Z"/>
<path id="path24_fill" d="M 19 22C 19 20.8954 19.8954 20 21 20L 27 20C 28.1046 20 29 20.8954 29 22L 29 28C 29 29.1046 28.1046 30 27 30L 21 30C 19.8954 30 19 29.1046 19 28L 19 22Z"/>
<path id="path25_fill" d="M 24 34C 24 32.8954 24.8954 32 26 32L 32 32C 33.1046 32 34 32.8954 34 34L 34 40C 34 41.1046 33.1046 42 32 42L 26 42C 24.8954 42 24 41.1046 24 40L 24 34Z"/>
<path id="path26_fill" d="M 36 34C 36 32.8954 36.8954 32 38 32L 44 32C 45.1046 32 46 32.8954 46 34L 46 40C 46 41.1046 45.1046 42 44 42L 38 42C 36.8954 42 36 41.1046 36 40L 36 34Z"/>
<path id="path27_fill" d="M 48 34C 48 32.8954 48.8954 32 50 32L 56 32C 57.1046 32 58 32.8954 58 34L 58 40C 58 41.1046 57.1046 42 56 42L 50 42C 48.8954 42 48 41.1046 48 40L 48 34Z"/>
<path id="path28_fill" d="M 60 34C 60 32.8954 60.8954 32 62 32L 68 32C 69.1046 32 70 32.8954 70 34L 70 40C 70 41.1046 69.1046 42 68 42L 62 42C 60.8954 42 60 41.1046 60 40L 60 34Z"/>
<path id="path29_fill" d="M 72 34C 72 32.8954 72.8954 32 74 32L 80 32C 81.1046 32 82 32.8954 82 34L 82 40C 82 41.1046 81.1046 42 80 42L 74 42C 72.8954 42 72 41.1046 72 40L 72 34Z"/>
<path id="path30_fill" d="M 84 34C 84 32.8954 84.8954 32 86 32L 92 32C 93.1046 32 94 32.8954 94 34L 94 40C 94 41.1046 93.1046 42 92 42L 86 42C 84.8954 42 84 41.1046 84 40L 84 34Z"/>
<path id="path31_fill" d="M 96 34C 96 32.8954 96.8954 32 98 32L 104 32C 105.105 32 106 32.8954 106 34L 106 40C 106 41.1046 105.105 42 104 42L 98 42C 96.8954 42 96 41.1046 96 40L 96 34Z"/>
<path id="path32_fill" d="M 108 34C 108 32.8954 108.895 32 110 32L 116 32C 117.105 32 118 32.8954 118 34L 118 40C 118 41.1046 117.105 42 116 42L 110 42C 108.895 42 108 41.1046 108 40L 108 34Z"/>
<path id="path33_fill" d="M 120 34C 120 32.8954 120.895 32 122 32L 128 32C 129.105 32 130 32.8954 130 34L 130 40C 130 41.1046 129.105 42 128 42L 122 42C 120.895 42 120 41.1046 120 40L 120 34Z"/>
<path id="path34_fill" d="M 132 34C 132 32.8954 132.895 32 134 32L 140 32C 141.105 32 142 32.8954 142 34L 142 40C 142 41.1046 141.105 42 140 42L 134 42C 132.895 42 132 41.1046 132 40L 132 34Z"/>
<path id="path35_fill" d="M 144 34C 144 32.8954 144.895 32 146 32L 152 32C 153.105 32 154 32.8954 154 34L 154 40C 154 41.1046 153.105 42 152 42L 146 42C 144.895 42 144 41.1046 144 40L 144 34Z"/>
<path id="path36_fill" d="M 31 46C 31 44.8954 31.8954 44 33 44L 39 44C 40.1046 44 41 44.8954 41 46L 41 52C 41 53.1046 40.1046 54 39 54L 33 54C 31.8954 54 31 53.1046 31 52L 31 46Z"/>
<path id="path37_fill" d="M 43 46C 43 44.8954 43.8954 44 45 44L 51 44C 52.1046 44 53 44.8954 53 46L 53 52C 53 53.1046 52.1046 54 51 54L 45 54C 43.8954 54 43 53.1046 43 52L 43 46Z"/>
<path id="path38_fill" d="M 55 46C 55 44.8954 55.8954 44 57 44L 63 44C 64.1046 44 65 44.8954 65 46L 65 52C 65 53.1046 64.1046 54 63 54L 57 54C 55.8954 54 55 53.1046 55 52L 55 46Z"/>
<path id="path39_fill" d="M 67 46C 67 44.8954 67.8954 44 69 44L 75 44C 76.1046 44 77 44.8954 77 46L 77 52C 77 53.1046 76.1046 54 75 54L 69 54C 67.8954 54 67 53.1046 67 52L 67 46Z"/>
<path id="path40_fill" d="M 79 46C 79 44.8954 79.8954 44 81 44L 87 44C 88.1046 44 89 44.8954 89 46L 89 52C 89 53.1046 88.1046 54 87 54L 81 54C 79.8954 54 79 53.1046 79 52L 79 46Z"/>
<path id="path41_fill" d="M 91 46C 91 44.8954 91.8954 44 93 44L 99 44C 100.105 44 101 44.8954 101 46L 101 52C 101 53.1046 100.105 54 99 54L 93 54C 91.8954 54 91 53.1046 91 52L 91 46Z"/>
<path id="path42_fill" d="M 103 46C 103 44.8954 103.895 44 105 44L 111 44C 112.105 44 113 44.8954 113 46L 113 52C 113 53.1046 112.105 54 111 54L 105 54C 103.895 54 103 53.1046 103 52L 103 46Z"/>
<path id="path43_fill" d="M 115 46C 115 44.8954 115.895 44 117 44L 123 44C 124.105 44 125 44.8954 125 46L 125 52C 125 53.1046 124.105 54 123 54L 117 54C 115.895 54 115 53.1046 115 52L 115 46Z"/>
<path id="path44_fill" d="M 127 46C 127 44.8954 127.895 44 129 44L 135 44C 136.105 44 137 44.8954 137 46L 137 52C 137 53.1046 136.105 54 135 54L 129 54C 127.895 54 127 53.1046 127 52L 127 46Z"/>
<path id="path45_fill" d="M 139 46C 139 44.8954 139.895 44 141 44L 147 44C 148.105 44 149 44.8954 149 46L 149 52C 149 53.1046 148.105 54 147 54L 141 54C 139.895 54 139 53.1046 139 52L 139 46Z"/>
<path id="path46_fill" d="M 186 60C 186 58.8954 186.895 58 188 58L 194 58C 195.105 58 196 58.8954 196 60L 196 66C 196 67.1046 195.105 68 194 68L 188 68C 186.895 68 186 67.1046 186 66L 186 60Z"/>
<path id="path47_fill" d="M 198 60C 198 58.8954 198.895 58 200 58L 206 58C 207.105 58 208 58.8954 208 60L 208 66C 208 67.1046 207.105 68 206 68L 200 68C 198.895 68 198 67.1046 198 66L 198 60Z"/>
<path id="path48_fill" d="M 198 48C 198 46.8954 198.895 46 200 46L 206 46C 207.105 46 208 46.8954 208 48L 208 54C 208 55.1046 207.105 56 206 56L 200 56C 198.895 56 198 55.1046 198 54L 198 48Z"/>
<path id="path49_fill" d="M 210 60C 210 58.8954 210.895 58 212 58L 218 58C 219.105 58 220 58.8954 220 60L 220 66C 220 67.1046 219.105 68 218 68L 212 68C 210.895 68 210 67.1046 210 66L 210 60Z"/>
<path id="path50_fill" d="M 156 34C 156 32.8954 156.895 32 158 32L 178 32C 179.105 32 180 32.8954 180 34L 180 40C 180 41.1046 179.105 42 178 42L 158 42C 156.895 42 156 41.1046 156 40L 156 34Z"/>
<path id="path51_fill" d="M 31 22C 31 20.8954 31.8954 20 33 20L 39 20C 40.1046 20 41 20.8954 41 22L 41 28C 41 29.1046 40.1046 30 39 30L 33 30C 31.8954 30 31 29.1046 31 28L 31 22Z"/>
<path id="path52_fill" d="M 43 22C 43 20.8954 43.8954 20 45 20L 51 20C 52.1046 20 53 20.8954 53 22L 53 28C 53 29.1046 52.1046 30 51 30L 45 30C 43.8954 30 43 29.1046 43 28L 43 22Z"/>
<path id="path53_fill" d="M 55 22C 55 20.8954 55.8954 20 57 20L 63 20C 64.1046 20 65 20.8954 65 22L 65 28C 65 29.1046 64.1046 30 63 30L 57 30C 55.8954 30 55 29.1046 55 28L 55 22Z"/>
<path id="path54_fill" d="M 67 22C 67 20.8954 67.8954 20 69 20L 75 20C 76.1046 20 77 20.8954 77 22L 77 28C 77 29.1046 76.1046 30 75 30L 69 30C 67.8954 30 67 29.1046 67 28L 67 22Z"/>
<path id="path55_fill" d="M 79 22C 79 20.8954 79.8954 20 81 20L 87 20C 88.1046 20 89 20.8954 89 22L 89 28C 89 29.1046 88.1046 30 87 30L 81 30C 79.8954 30 79 29.1046 79 28L 79 22Z"/>
<path id="path56_fill" d="M 91 22C 91 20.8954 91.8954 20 93 20L 99 20C 100.105 20 101 20.8954 101 22L 101 28C 101 29.1046 100.105 30 99 30L 93 30C 91.8954 30 91 29.1046 91 28L 91 22Z"/>
<path id="path57_fill" d="M 103 22C 103 20.8954 103.895 20 105 20L 111 20C 112.105 20 113 20.8954 113 22L 113 28C 113 29.1046 112.105 30 111 30L 105 30C 103.895 30 103 29.1046 103 28L 103 22Z"/>
<path id="path58_fill" d="M 115 22C 115 20.8954 115.895 20 117 20L 123 20C 124.105 20 125 20.8954 125 22L 125 28C 125 29.1046 124.105 30 123 30L 117 30C 115.895 30 115 29.1046 115 28L 115 22Z"/>
<path id="path59_fill" d="M 127 22C 127 20.8954 127.895 20 129 20L 135 20C 136.105 20 137 20.8954 137 22L 137 28C 137 29.1046 136.105 30 135 30L 129 30C 127.895 30 127 29.1046 127 28L 127 22Z"/>
<path id="path60_fill" d="M 139 22C 139 20.8954 139.895 20 141 20L 147 20C 148.105 20 149 20.8954 149 22L 149 28C 149 29.1046 148.105 30 147 30L 141 30C 139.895 30 139 29.1046 139 28L 139 22Z"/>
<path id="path61_fill" d="M 151 22C 151 20.8954 151.895 20 153 20L 159 20C 160.105 20 161 20.8954 161 22L 161 28C 161 29.1046 160.105 30 159 30L 153 30C 151.895 30 151 29.1046 151 28L 151 22Z"/>
<path id="path62_fill" d="M 163 22C 163 20.8954 163.895 20 165 20L 178 20C 179.105 20 180 20.8954 180 22L 180 28C 180 29.1046 179.105 30 178 30L 165 30C 163.895 30 163 29.1046 163 28L 163 22Z"/>
<path id="path63_fill" d="M 186 10C 186 8.89543 186.895 8 188 8L 194 8C 195.105 8 196 8.89543 196 10L 196 16C 196 17.1046 195.105 18 194 18L 188 18C 186.895 18 186 17.1046 186 16L 186 10Z"/>
<path id="path64_fill" d="M 198 10C 198 8.89543 198.895 8 200 8L 206 8C 207.105 8 208 8.89543 208 10L 208 16C 208 17.1046 207.105 18 206 18L 200 18C 198.895 18 198 17.1046 198 16L 198 10Z"/>
<path id="path65_fill" d="M 210 10C 210 8.89543 210.895 8 212 8L 218 8C 219.105 8 220 8.89543 220 10L 220 16C 220 17.1046 219.105 18 218 18L 212 18C 210.895 18 210 17.1046 210 16L 210 10Z"/>
<path id="path66_fill" d="M 226 10C 226 8.89543 226.895 8 228 8L 234 8C 235.105 8 236 8.89543 236 10L 236 16C 236 17.1046 235.105 18 234 18L 228 18C 226.895 18 226 17.1046 226 16L 226 10Z"/>
<path id="path67_fill" d="M 226 22C 226 20.8954 226.895 20 228 20L 234 20C 235.105 20 236 20.8954 236 22L 236 28C 236 29.1046 235.105 30 234 30L 228 30C 226.895 30 226 29.1046 226 28L 226 22Z"/>
<path id="path68_fill" d="M 226 34C 226 32.8954 226.895 32 228 32L 234 32C 235.105 32 236 32.8954 236 34L 236 40C 236 41.1046 235.105 42 234 42L 228 42C 226.895 42 226 41.1046 226 40L 226 34Z"/>
<path id="path69_fill" d="M 226 46C 226 44.8954 226.895 44 228 44L 234 44C 235.105 44 236 44.8954 236 46L 236 52C 236 53.1046 235.105 54 234 54L 228 54C 226.895 54 226 53.1046 226 52L 226 46Z"/>
<path id="path70_fill" d="M 238 22C 238 20.8954 238.895 20 240 20L 246 20C 247.105 20 248 20.8954 248 22L 248 28C 248 29.1046 247.105 30 246 30L 240 30C 238.895 30 238 29.1046 238 28L 238 22Z"/>
<path id="path71_fill" d="M 238 34C 238 32.8954 238.895 32 240 32L 246 32C 247.105 32 248 32.8954 248 34L 248 40C 248 41.1046 247.105 42 246 42L 240 42C 238.895 42 238 41.1046 238 40L 238 34Z"/>
<path id="path72_fill" d="M 238 46C 238 44.8954 238.895 44 240 44L 246 44C 247.105 44 248 44.8954 248 46L 248 52C 248 53.1046 247.105 54 246 54L 240 54C 238.895 54 238 53.1046 238 52L 238 46Z"/>
<path id="path73_fill" d="M 250 22C 250 20.8954 250.895 20 252 20L 258 20C 259.105 20 260 20.8954 260 22L 260 28C 260 29.1046 259.105 30 258 30L 252 30C 250.895 30 250 29.1046 250 28L 250 22Z"/>
<path id="path74_fill" d="M 250 34C 250 32.8954 250.895 32 252 32L 258 32C 259.105 32 260 32.8954 260 34L 260 40C 260 41.1046 259.105 42 258 42L 252 42C 250.895 42 250 41.1046 250 40L 250 34Z"/>
<path id="path75_fill" d="M 262 22C 262 20.8954 262.895 20 264 20L 270 20C 271.105 20 272 20.8954 272 22L 272 28C 272 29.1046 271.105 30 270 30L 264 30C 262.895 30 262 29.1046 262 28L 262 22Z"/>
<path id="path76_fill" d="M 238 10C 238 8.89543 238.895 8 240 8L 246 8C 247.105 8 248 8.89543 248 10L 248 16C 248 17.1046 247.105 18 246 18L 240 18C 238.895 18 238 17.1046 238 16L 238 10Z"/>
<path id="path77_fill" d="M 250 10C 250 8.89543 250.895 8 252 8L 258 8C 259.105 8 260 8.89543 260 10L 260 16C 260 17.1046 259.105 18 258 18L 252 18C 250.895 18 250 17.1046 250 16L 250 10Z"/>
<path id="path78_fill" d="M 262 10C 262 8.89543 262.895 8 264 8L 270 8C 271.105 8 272 8.89543 272 10L 272 16C 272 17.1046 271.105 18 270 18L 264 18C 262.895 18 262 17.1046 262 16L 262 10Z"/>
<path id="path79_fill" d="M 262 34C 262 32.8954 262.895 32 264 32L 270 32C 271.105 32 272 32.8954 272 34L 272 40C 272 41.1046 271.105 42 270 42L 264 42C 262.895 42 262 41.1046 262 40L 262 34Z"/>
<path id="path80_fill" d="M 250 46C 250 44.8954 250.895 44 252 44L 258 44C 259.105 44 260 44.8954 260 46L 260 52C 260 53.1046 259.105 54 258 54L 252 54C 250.895 54 250 53.1046 250 52L 250 46Z"/>
<path id="path81_fill" d="M 250 58C 250 56.8954 250.895 56 252 56L 258 56C 259.105 56 260 56.8954 260 58L 260 66C 260 67.1046 259.105 68 258 68L 252 68C 250.895 68 250 67.1046 250 66L 250 58Z"/>
<path id="path82_fill" d="M 262 46C 262 44.8954 262.895 44 264 44L 270 44C 271.105 44 272 44.8954 272 46L 272 66C 272 67.1046 271.105 68 270 68L 264 68C 262.895 68 262 67.1046 262 66L 262 46Z"/>
<path id="path83_fill" d="M 226 58C 226 56.8954 226.895 56 228 56L 246 56C 247.105 56 248 56.8954 248 58L 248 66C 248 67.1046 247.105 68 246 68L 228 68C 226.895 68 226 67.1046 226 66L 226 58Z"/>
<path id="path84_fill" d="M 186 22C 186 20.8954 186.895 20 188 20L 194 20C 195.105 20 196 20.8954 196 22L 196 28C 196 29.1046 195.105 30 194 30L 188 30C 186.895 30 186 29.1046 186 28L 186 22Z"/>
<path id="path85_fill" d="M 198 22C 198 20.8954 198.895 20 200 20L 206 20C 207.105 20 208 20.8954 208 22L 208 28C 208 29.1046 207.105 30 206 30L 200 30C 198.895 30 198 29.1046 198 28L 198 22Z"/>
<path id="path86_fill" d="M 210 22C 210 20.8954 210.895 20 212 20L 218 20C 219.105 20 220 20.8954 220 22L 220 28C 220 29.1046 219.105 30 218 30L 212 30C 210.895 30 210 29.1046 210 28L 210 22Z"/>
<path id="path87_fill" d="M 24 10C 24 8.89543 24.8954 8 26 8L 32 8C 33.1046 8 34 8.89543 34 10L 34 16C 34 17.1046 33.1046 18 32 18L 26 18C 24.8954 18 24 17.1046 24 16L 24 10Z"/>
<path id="path88_fill" d="M 36 10C 36 8.89543 36.8954 8 38 8L 44 8C 45.1046 8 46 8.89543 46 10L 46 16C 46 17.1046 45.1046 18 44 18L 38 18C 36.8954 18 36 17.1046 36 16L 36 10Z"/>
<path id="path89_fill" d="M 48 10C 48 8.89543 48.8954 8 50 8L 56 8C 57.1046 8 58 8.89543 58 10L 58 16C 58 17.1046 57.1046 18 56 18L 50 18C 48.8954 18 48 17.1046 48 16L 48 10Z"/>
<path id="path90_fill" d="M 60 10C 60 8.89543 60.8954 8 62 8L 68 8C 69.1046 8 70 8.89543 70 10L 70 16C 70 17.1046 69.1046 18 68 18L 62 18C 60.8954 18 60 17.1046 60 16L 60 10Z"/>
<path id="path91_fill" d="M 72 10C 72 8.89543 72.8954 8 74 8L 80 8C 81.1046 8 82 8.89543 82 10L 82 16C 82 17.1046 81.1046 18 80 18L 74 18C 72.8954 18 72 17.1046 72 16L 72 10Z"/>
<path id="path92_fill" d="M 84 10C 84 8.89543 84.8954 8 86 8L 92 8C 93.1046 8 94 8.89543 94 10L 94 16C 94 17.1046 93.1046 18 92 18L 86 18C 84.8954 18 84 17.1046 84 16L 84 10Z"/>
<path id="path93_fill" d="M 96 10C 96 8.89543 96.8954 8 98 8L 104 8C 105.105 8 106 8.89543 106 10L 106 16C 106 17.1046 105.105 18 104 18L 98 18C 96.8954 18 96 17.1046 96 16L 96 10Z"/>
<path id="path94_fill" d="M 108 10C 108 8.89543 108.895 8 110 8L 116 8C 117.105 8 118 8.89543 118 10L 118 16C 118 17.1046 117.105 18 116 18L 110 18C 108.895 18 108 17.1046 108 16L 108 10Z"/>
<path id="path95_fill" d="M 120 10C 120 8.89543 120.895 8 122 8L 128 8C 129.105 8 130 8.89543 130 10L 130 16C 130 17.1046 129.105 18 128 18L 122 18C 120.895 18 120 17.1046 120 16L 120 10Z"/>
<path id="path96_fill" d="M 132 10C 132 8.89543 132.895 8 134 8L 140 8C 141.105 8 142 8.89543 142 10L 142 16C 142 17.1046 141.105 18 140 18L 134 18C 132.895 18 132 17.1046 132 16L 132 10Z"/>
<path id="path97_fill" d="M 144 10C 144 8.89543 144.895 8 146 8L 152 8C 153.105 8 154 8.89543 154 10L 154 16C 154 17.1046 153.105 18 152 18L 146 18C 144.895 18 144 17.1046 144 16L 144 10Z"/>
<path id="path98_fill" d="M 156 10C 156 8.89543 156.895 8 158 8L 178 8C 179.105 8 180 8.89543 180 10L 180 16C 180 17.1046 179.105 18 178 18L 158 18C 156.895 18 156 17.1046 156 16L 156 10Z"/>
<path id="path99_fill" d="M 0 46C 0 44.8954 0.89543 44 2 44L 27 44C 28.1046 44 29 44.8954 29 46L 29 52C 29 53.1046 28.1046 54 27 54L 2 54C 0.89543 54 0 53.1046 0 52L 0 46Z"/>
<path id="path100_fill" d="M 52 58C 52 56.8954 52.8954 56 54 56L 126 56C 127.105 56 128 56.8954 128 58L 128 66C 128 67.1046 127.105 68 126 68L 54 68C 52.8954 68 52 67.1046 52 66L 52 58Z"/>
<path id="path101_fill" d="M 151 46C 151 44.8954 151.895 44 153 44L 178 44C 179.105 44 180 44.8954 180 46L 180 52C 180 53.1046 179.105 54 178 54L 153 54C 151.895 54 151 53.1046 151 52L 151 46Z"/>
<path id="path102_fill" d="M 0 34C 0 32.8954 0.89543 32 2 32L 20 32C 21.1046 32 22 32.8954 22 34L 22 40C 22 41.1046 21.1046 42 20 42L 2 42C 0.89543 42 0 41.1046 0 40L 0 34Z"/>
<path id="path103_fill" d="M 21 58C 21 56.8954 21.8954 56 23 56L 31 56C 32.1046 56 33 56.8954 33 58L 33 66C 33 67.1046 32.1046 68 31 68L 23 68C 21.8954 68 21 67.1046 21 66L 21 58Z"/>
<path id="path104_fill" d="M 35 58C 35 56.8954 35.8954 56 37 56L 48 56C 49.1046 56 50 56.8954 50 58L 50 66C 50 67.1046 49.1046 68 48 68L 37 68C 35.8954 68 35 67.1046 35 66L 35 58Z"/>
<path id="path105_fill" d="M 0 58C 0 56.8954 0.89543 56 2 56L 17 56C 18.1046 56 19 56.8954 19 58L 19 66C 19 67.1046 18.1046 68 17 68L 2 68C 0.89543 68 0 67.1046 0 66L 0 58Z"/>
<path id="path106_fill" d="M 159 58C 159 56.8954 158.105 56 157 56L 149 56C 147.895 56 147 56.8954 147 58L 147 66C 147 67.1046 147.895 68 149 68L 157 68C 158.105 68 159 67.1046 159 66L 159 58Z"/>
<path id="path107_fill" d="M 145 58C 145 56.8954 144.105 56 143 56L 132 56C 130.895 56 130 56.8954 130 58L 130 66C 130 67.1046 130.895 68 132 68L 143 68C 144.105 68 145 67.1046 145 66L 145 58Z"/>
<path id="path108_fill" d="M 180 58C 180 56.8954 179.105 56 178 56L 163 56C 161.895 56 161 56.8954 161 58L 161 66C 161 67.1046 161.895 68 163 68L 178 68C 179.105 68 180 67.1046 180 66L 180 58Z"/>
<path id="path109_stroke_2x" d="M 2 1L 9 1L 9 -1L 2 -1L 2 1ZM 10 2L 10 4L 12 4L 12 2L 10 2ZM 9 5L 2 5L 2 7L 9 7L 9 5ZM 1 4L 1 2L -1 2L -1 4L 1 4ZM 2 -1C 0.343146 -1 -1 0.343146 -1 2L 1 2C 1 1.44772 1.44772 1 2 1L 2 -1ZM 9 1C 9.55228 1 10 1.44772 10 2L 12 2C 12 0.343146 10.6569 -1 9 -1L 9 1ZM 10 4C 10 4.55228 9.55228 5 9 5L 9 7C 10.6569 7 12 5.65685 12 4L 10 4ZM 2 5C 1.44772 5 1 4.55228 1 4L -1 4C -1 5.65685 0.343146 7 2 7L 2 5ZM 15 1L 22 1L 22 -1L 15 -1L 15 1ZM 23 2L 23 4L 25 4L 25 2L 23 2ZM 22 5L 15 5L 15 7L 22 7L 22 5ZM 14 4L 14 2L 12 2L 12 4L 14 4ZM 15 -1C 13.3431 -1 12 0.343146 12 2L 14 2C 14 1.44772 14.4477 1 15 1L 15 -1ZM 22 1C 22.5523 1 23 1.44772 23 2L 25 2C 25 0.343146 23.6569 -1 22 -1L 22 1ZM 23 4C 23 4.55228 22.5523 5 22 5L 22 7C 23.6569 7 25 5.65685 25 4L 23 4ZM 15 5C 14.4477 5 14 4.55228 14 4L 12 4C 12 5.65685 13.3431 7 15 7L 15 5ZM 28 1L 35 1L 35 -1L 28 -1L 28 1ZM 36 2L 36 4L 38 4L 38 2L 36 2ZM 35 5L 28 5L 28 7L 35 7L 35 5ZM 27 4L 27 2L 25 2L 25 4L 27 4ZM 28 -1C 26.3431 -1 25 0.343146 25 2L 27 2C 27 1.44772 27.4477 1 28 1L 28 -1ZM 35 1C 35.5523 1 36 1.44772 36 2L 38 2C 38 0.343146 36.6569 -1 35 -1L 35 1ZM 36 4C 36 4.55228 35.5523 5 35 5L 35 7C 36.6569 7 38 5.65685 38 4L 36 4ZM 28 5C 27.4477 5 27 4.55228 27 4L 25 4C 25 5.65685 26.3431 7 28 7L 28 5ZM 41 1L 48 1L 48 -1L 41 -1L 41 1ZM 49 2L 49 4L 51 4L 51 2L 49 2ZM 48 5L 41 5L 41 7L 48 7L 48 5ZM 40 4L 40 2L 38 2L 38 4L 40 4ZM 41 -1C 39.3431 -1 38 0.343146 38 2L 40 2C 40 1.44772 40.4477 1 41 1L 41 -1ZM 48 1C 48.5523 1 49 1.44772 49 2L 51 2C 51 0.343146 49.6569 -1 48 -1L 48 1ZM 49 4C 49 4.55228 48.5523 5 48 5L 48 7C 49.6569 7 51 5.65685 51 4L 49 4ZM 41 5C 40.4477 5 40 4.55228 40 4L 38 4C 38 5.65685 39.3431 7 41 7L 41 5ZM 54 1L 61 1L 61 -1L 54 -1L 54 1ZM 62 2L 62 4L 64 4L 64 2L 62 2ZM 61 5L 54 5L 54 7L 61 7L 61 5ZM 53 4L 53 2L 51 2L 51 4L 53 4ZM 54 -1C 52.3431 -1 51 0.343146 51 2L 53 2C 53 1.44772 53.4477 1 54 1L 54 -1ZM 61 1C 61.5523 1 62 1.44772 62 2L 64 2C 64 0.343146 62.6569 -1 61 -1L 61 1ZM 62 4C 62 4.55228 61.5523 5 61 5L 61 7C 62.6569 7 64 5.65685 64 4L 62 4ZM 54 5C 53.4477 5 53 4.55228 53 4L 51 4C 51 5.65685 52.3431 7 54 7L 54 5ZM 67 1L 74 1L 74 -1L 67 -1L 67 1ZM 75 2L 75 4L 77 4L 77 2L 75 2ZM 74 5L 67 5L 67 7L 74 7L 74 5ZM 66 4L 66 2L 64 2L 64 4L 66 4ZM 67 -1C 65.3431 -1 64 0.343146 64 2L 66 2C 66 1.44772 66.4477 1 67 1L 67 -1ZM 74 1C 74.5523 1 75 1.44772 75 2L 77 2C 77 0.343146 75.6569 -1 74 -1L 74 1ZM 75 4C 75 4.55228 74.5523 5 74 5L 74 7C 75.6569 7 77 5.65685 77 4L 75 4ZM 67 5C 66.4477 5 66 4.55228 66 4L 64 4C 64 5.65685 65.3431 7 67 7L 67 5ZM 80 1L 87 1L 87 -1L 80 -1L 80 1ZM 88 2L 88 4L 90 4L 90 2L 88 2ZM 87 5L 80 5L 80 7L 87 7L 87 5ZM 79 4L 79 2L 77 2L 77 4L 79 4ZM 80 -1C 78.3431 -1 77 0.343146 77 2L 79 2C 79 1.44772 79.4477 1 80 1L 80 -1ZM 87 1C 87.5523 1 88 1.44772 88 2L 90 2C 90 0.343146 88.6569 -1 87 -1L 87 1ZM 88 4C 88 4.55228 87.5523 5 87 5L 87 7C 88.6569 7 90 5.65685 90 4L 88 4ZM 80 5C 79.4477 5 79 4.55228 79 4L 77 4C 77 5.65685 78.3431 7 80 7L 80 5ZM 93 1L 100 1L 100 -1L 93 -1L 93 1ZM 101 2L 101 4L 103 4L 103 2L 101 2ZM 100 5L 93 5L 93 7L 100 7L 100 5ZM 92 4L 92 2L 90 2L 90 4L 92 4ZM 93 -1C 91.3431 -1 90 0.343146 90 2L 92 2C 92 1.44772 92.4477 1 93 1L 93 -1ZM 100 1C 100.552 1 101 1.44772 101 2L 103 2C 103 0.343146 101.657 -1 100 -1L 100 1ZM 101 4C 101 4.55228 100.552 5 100 5L 100 7C 101.657 7 103 5.65685 103 4L 101 4ZM 93 5C 92.4477 5 92 4.55228 92 4L 90 4C 90 5.65685 91.3431 7 93 7L 93 5ZM 106 1L 113 1L 113 -1L 106 -1L 106 1ZM 114 2L 114 4L 116 4L 116 2L 114 2ZM 113 5L 106 5L 106 7L 113 7L 113 5ZM 105 4L 105 2L 103 2L 103 4L 105 4ZM 106 -1C 104.343 -1 103 0.343146 103 2L 105 2C 105 1.44772 105.448 1 106 1L 106 -1ZM 113 1C 113.552 1 114 1.44772 114 2L 116 2C 116 0.343146 114.657 -1 113 -1L 113 1ZM 114 4C 114 4.55228 113.552 5 113 5L 113 7C 114.657 7 116 5.65685 116 4L 114 4ZM 106 5C 105.448 5 105 4.55228 105 4L 103 4C 103 5.65685 104.343 7 106 7L 106 5ZM 119 1L 126 1L 126 -1L 119 -1L 119 1ZM 127 2L 127 4L 129 4L 129 2L 127 2ZM 126 5L 119 5L 119 7L 126 7L 126 5ZM 118 4L 118 2L 116 2L 116 4L 118 4ZM 119 -1C 117.343 -1 116 0.343146 116 2L 118 2C 118 1.44772 118.448 1 119 1L 119 -1ZM 126 1C 126.552 1 127 1.44772 127 2L 129 2C 129 0.343146 127.657 -1 126 -1L 126 1ZM 127 4C 127 4.55228 126.552 5 126 5L 126 7C 127.657 7 129 5.65685 129 4L 127 4ZM 119 5C 118.448 5 118 4.55228 118 4L 116 4C 116 5.65685 117.343 7 119 7L 119 5ZM 132 1L 139 1L 139 -1L 132 -1L 132 1ZM 140 2L 140 4L 142 4L 142 2L 140 2ZM 139 5L 132 5L 132 7L 139 7L 139 5ZM 131 4L 131 2L 129 2L 129 4L 131 4ZM 132 -1C 130.343 -1 129 0.343146 129 2L 131 2C 131 1.44772 131.448 1 132 1L 132 -1ZM 139 1C 139.552 1 140 1.44772 140 2L 142 2C 142 0.343146 140.657 -1 139 -1L 139 1ZM 140 4C 140 4.55228 139.552 5 139 5L 139 7C 140.657 7 142 5.65685 142 4L 140 4ZM 132 5C 131.448 5 131 4.55228 131 4L 129 4C 129 5.65685 130.343 7 132 7L 132 5ZM 145 1L 152 1L 152 -1L 145 -1L 145 1ZM 153 2L 153 4L 155 4L 155 2L 153 2ZM 152 5L 145 5L 145 7L 152 7L 152 5ZM 144 4L 144 2L 142 2L 142 4L 144 4ZM 145 -1C 143.343 -1 142 0.343146 142 2L 144 2C 144 1.44772 144.448 1 145 1L 145 -1ZM 152 1C 152.552 1 153 1.44772 153 2L 155 2C 155 0.343146 153.657 -1 152 -1L 152 1ZM 153 4C 153 4.55228 152.552 5 152 5L 152 7C 153.657 7 155 5.65685 155 4L 153 4ZM 145 5C 144.448 5 144 4.55228 144 4L 142 4C 142 5.65685 143.343 7 145 7L 145 5ZM 158 1L 165 1L 165 -1L 158 -1L 158 1ZM 166 2L 166 4L 168 4L 168 2L 166 2ZM 165 5L 158 5L 158 7L 165 7L 165 5ZM 157 4L 157 2L 155 2L 155 4L 157 4ZM 158 -1C 156.343 -1 155 0.343146 155 2L 157 2C 157 1.44772 157.448 1 158 1L 158 -1ZM 165 1C 165.552 1 166 1.44772 166 2L 168 2C 168 0.343146 166.657 -1 165 -1L 165 1ZM 166 4C 166 4.55228 165.552 5 165 5L 165 7C 166.657 7 168 5.65685 168 4L 166 4ZM 158 5C 157.448 5 157 4.55228 157 4L 155 4C 155 5.65685 156.343 7 158 7L 158 5ZM 171 1L 178 1L 178 -1L 171 -1L 171 1ZM 179 2L 179 4L 181 4L 181 2L 179 2ZM 178 5L 171 5L 171 7L 178 7L 178 5ZM 170 4L 170 2L 168 2L 168 4L 170 4ZM 171 -1C 169.343 -1 168 0.343146 168 2L 170 2C 170 1.44772 170.448 1 171 1L 171 -1ZM 178 1C 178.552 1 179 1.44772 179 2L 181 2C 181 0.343146 179.657 -1 178 -1L 178 1ZM 179 4C 179 4.55228 178.552 5 178 5L 178 7C 179.657 7 181 5.65685 181 4L 179 4ZM 171 5C 170.448 5 170 4.55228 170 4L 168 4C 168 5.65685 169.343 7 171 7L 171 5ZM 188 1L 194 1L 194 -1L 188 -1L 188 1ZM 195 2L 195 4L 197 4L 197 2L 195 2ZM 194 5L 188 5L 188 7L 194 7L 194 5ZM 187 4L 187 2L 185 2L 185 4L 187 4ZM 188 -1C 186.343 -1 185 0.343146 185 2L 187 2C 187 1.44772 187.448 1 188 1L 188 -1ZM 194 1C 194.552 1 195 1.44772 195 2L 197 2C 197 0.343146 195.657 -1 194 -1L 194 1ZM 195 4C 195 4.55228 194.552 5 194 5L 194 7C 195.657 7 197 5.65685 197 4L 195 4ZM 188 5C 187.448 5 187 4.55228 187 4L 185 4C 185 5.65685 186.343 7 188 7L 188 5ZM 200 1L 206 1L 206 -1L 200 -1L 200 1ZM 207 2L 207 4L 209 4L 209 2L 207 2ZM 206 5L 200 5L 200 7L 206 7L 206 5ZM 199 4L 199 2L 197 2L 197 4L 199 4ZM 200 -1C 198.343 -1 197 0.343146 197 2L 199 2C 199 1.44772 199.448 1 200 1L 200 -1ZM 206 1C 206.552 1 207 1.44772 207 2L 209 2C 209 0.343146 207.657 -1 206 -1L 206 1ZM 207 4C 207 4.55228 206.552 5 206 5L 206 7C 207.657 7 209 5.65685 209 4L 207 4ZM 200 5C 199.448 5 199 4.55228 199 4L 197 4C 197 5.65685 198.343 7 200 7L 200 5ZM 212 1L 218 1L 218 -1L 212 -1L 212 1ZM 219 2L 219 4L 221 4L 221 2L 219 2ZM 218 5L 212 5L 212 7L 218 7L 218 5ZM 211 4L 211 2L 209 2L 209 4L 211 4ZM 212 -1C 210.343 -1 209 0.343146 209 2L 211 2C 211 1.44772 211.448 1 212 1L 212 -1ZM 218 1C 218.552 1 219 1.44772 219 2L 221 2C 221 0.343146 219.657 -1 218 -1L 218 1ZM 219 4C 219 4.55228 218.552 5 218 5L 218 7C 219.657 7 221 5.65685 221 4L 219 4ZM 212 5C 211.448 5 211 4.55228 211 4L 209 4C 209 5.65685 210.343 7 212 7L 212 5ZM 228 1L 234 1L 234 -1L 228 -1L 228 1ZM 235 2L 235 4L 237 4L 237 2L 235 2ZM 234 5L 228 5L 228 7L 234 7L 234 5ZM 227 4L 227 2L 225 2L 225 4L 227 4ZM 228 -1C 226.343 -1 225 0.343146 225 2L 227 2C 227 1.44772 227.448 1 228 1L 228 -1ZM 234 1C 234.552 1 235 1.44772 235 2L 237 2C 237 0.343146 235.657 -1 234 -1L 234 1ZM 235 4C 235 4.55228 234.552 5 234 5L 234 7C 235.657 7 237 5.65685 237 4L 235 4ZM 228 5C 227.448 5 227 4.55228 227 4L 225 4C 225 5.65685 226.343 7 228 7L 228 5ZM 240 1L 246 1L 246 -1L 240 -1L 240 1ZM 247 2L 247 4L 249 4L 249 2L 247 2ZM 246 5L 240 5L 240 7L 246 7L 246 5ZM 239 4L 239 2L 237 2L 237 4L 239 4ZM 240 -1C 238.343 -1 237 0.343146 237 2L 239 2C 239 1.44772 239.448 1 240 1L 240 -1ZM 246 1C 246.552 1 247 1.44772 247 2L 249 2C 249 0.343146 247.657 -1 246 -1L 246 1ZM 247 4C 247 4.55228 246.552 5 246 5L 246 7C 247.657 7 249 5.65685 249 4L 247 4ZM 240 5C 239.448 5 239 4.55228 239 4L 237 4C 237 5.65685 238.343 7 240 7L 240 5ZM 252 1L 258 1L 258 -1L 252 -1L 252 1ZM 259 2L 259 4L 261 4L 261 2L 259 2ZM 258 5L 252 5L 252 7L 258 7L 258 5ZM 251 4L 251 2L 249 2L 249 4L 251 4ZM 252 -1C 250.343 -1 249 0.343146 249 2L 251 2C 251 1.44772 251.448 1 252 1L 252 -1ZM 258 1C 258.552 1 259 1.44772 259 2L 261 2C 261 0.343146 259.657 -1 258 -1L 258 1ZM 259 4C 259 4.55228 258.552 5 258 5L 258 7C 259.657 7 261 5.65685 261 4L 259 4ZM 252 5C 251.448 5 251 4.55228 251 4L 249 4C 249 5.65685 250.343 7 252 7L 252 5ZM 264 1L 270 1L 270 -1L 264 -1L 264 1ZM 271 2L 271 4L 273 4L 273 2L 271 2ZM 270 5L 264 5L 264 7L 270 7L 270 5ZM 263 4L 263 2L 261 2L 261 4L 263 4ZM 264 -1C 262.343 -1 261 0.343146 261 2L 263 2C 263 1.44772 263.448 1 264 1L 264 -1ZM 270 1C 270.552 1 271 1.44772 271 2L 273 2C 273 0.343146 271.657 -1 270 -1L 270 1ZM 271 4C 271 4.55228 270.552 5 270 5L 270 7C 271.657 7 273 5.65685 273 4L 271 4ZM 264 5C 263.448 5 263 4.55228 263 4L 261 4C 261 5.65685 262.343 7 264 7L 264 5ZM 2 9L 8 9L 8 7L 2 7L 2 9ZM 9 10L 9 16L 11 16L 11 10L 9 10ZM 8 17L 2 17L 2 19L 8 19L 8 17ZM 1 16L 1 10L -1 10L -1 16L 1 16ZM 2 7C 0.343146 7 -1 8.34315 -1 10L 1 10C 1 9.44772 1.44772 9 2 9L 2 7ZM 8 9C 8.55228 9 9 9.44772 9 10L 11 10C 11 8.34315 9.65685 7 8 7L 8 9ZM 9 16C 9 16.5523 8.55228 17 8 17L 8 19C 9.65685 19 11 17.6569 11 16L 9 16ZM 2 17C 1.44772 17 1 16.5523 1 16L -1 16C -1 17.6569 0.343146 19 2 19L 2 17ZM 2 21L 15 21L 15 19L 2 19L 2 21ZM 16 22L 16 28L 18 28L 18 22L 16 22ZM 15 29L 2 29L 2 31L 15 31L 15 29ZM 1 28L 1 22L -1 22L -1 28L 1 28ZM 2 19C 0.343146 19 -1 20.3431 -1 22L 1 22C 1 21.4477 1.44772 21 2 21L 2 19ZM 15 21C 15.5523 21 16 21.4477 16 22L 18 22C 18 20.3431 16.6569 19 15 19L 15 21ZM 16 28C 16 28.5523 15.5523 29 15 29L 15 31C 16.6569 31 18 29.6569 18 28L 16 28ZM 2 29C 1.44772 29 1 28.5523 1 28L -1 28C -1 29.6569 0.343146 31 2 31L 2 29ZM 14 9L 20 9L 20 7L 14 7L 14 9ZM 21 10L 21 16L 23 16L 23 10L 21 10ZM 20 17L 14 17L 14 19L 20 19L 20 17ZM 13 16L 13 10L 11 10L 11 16L 13 16ZM 14 7C 12.3431 7 11 8.34315 11 10L 13 10C 13 9.44772 13.4477 9 14 9L 14 7ZM 20 9C 20.5523 9 21 9.44772 21 10L 23 10C 23 8.34315 21.6569 7 20 7L 20 9ZM 21 16C 21 16.5523 20.5523 17 20 17L 20 19C 21.6569 19 23 17.6569 23 16L 21 16ZM 14 17C 13.4477 17 13 16.5523 13 16L 11 16C 11 17.6569 12.3431 19 14 19L 14 17ZM 21 21L 27 21L 27 19L 21 19L 21 21ZM 28 22L 28 28L 30 28L 30 22L 28 22ZM 27 29L 21 29L 21 31L 27 31L 27 29ZM 20 28L 20 22L 18 22L 18 28L 20 28ZM 21 19C 19.3431 19 18 20.3431 18 22L 20 22C 20 21.4477 20.4477 21 21 21L 21 19ZM 27 21C 27.5523 21 28 21.4477 28 22L 30 22C 30 20.3431 28.6569 19 27 19L 27 21ZM 28 28C 28 28.5523 27.5523 29 27 29L 27 31C 28.6569 31 30 29.6569 30 28L 28 28ZM 21 29C 20.4477 29 20 28.5523 20 28L 18 28C 18 29.6569 19.3431 31 21 31L 21 29ZM 26 33L 32 33L 32 31L 26 31L 26 33ZM 33 34L 33 40L 35 40L 35 34L 33 34ZM 32 41L 26 41L 26 43L 32 43L 32 41ZM 25 40L 25 34L 23 34L 23 40L 25 40ZM 26 31C 24.3431 31 23 32.3431 23 34L 25 34C 25 33.4477 25.4477 33 26 33L 26 31ZM 32 33C 32.5523 33 33 33.4477 33 34L 35 34C 35 32.3431 33.6569 31 32 31L 32 33ZM 33 40C 33 40.5523 32.5523 41 32 41L 32 43C 33.6569 43 35 41.6569 35 40L 33 40ZM 26 41C 25.4477 41 25 40.5523 25 40L 23 40C 23 41.6569 24.3431 43 26 43L 26 41ZM 38 33L 44 33L 44 31L 38 31L 38 33ZM 45 34L 45 40L 47 40L 47 34L 45 34ZM 44 41L 38 41L 38 43L 44 43L 44 41ZM 37 40L 37 34L 35 34L 35 40L 37 40ZM 38 31C 36.3431 31 35 32.3431 35 34L 37 34C 37 33.4477 37.4477 33 38 33L 38 31ZM 44 33C 44.5523 33 45 33.4477 45 34L 47 34C 47 32.3431 45.6569 31 44 31L 44 33ZM 45 40C 45 40.5523 44.5523 41 44 41L 44 43C 45.6569 43 47 41.6569 47 40L 45 40ZM 38 41C 37.4477 41 37 40.5523 37 40L 35 40C 35 41.6569 36.3431 43 38 43L 38 41ZM 50 33L 56 33L 56 31L 50 31L 50 33ZM 57 34L 57 40L 59 40L 59 34L 57 34ZM 56 41L 50 41L 50 43L 56 43L 56 41ZM 49 40L 49 34L 47 34L 47 40L 49 40ZM 50 31C 48.3431 31 47 32.3431 47 34L 49 34C 49 33.4477 49.4477 33 50 33L 50 31ZM 56 33C 56.5523 33 57 33.4477 57 34L 59 34C 59 32.3431 57.6569 31 56 31L 56 33ZM 57 40C 57 40.5523 56.5523 41 56 41L 56 43C 57.6569 43 59 41.6569 59 40L 57 40ZM 50 41C 49.4477 41 49 40.5523 49 40L 47 40C 47 41.6569 48.3431 43 50 43L 50 41ZM 62 33L 68 33L 68 31L 62 31L 62 33ZM 69 34L 69 40L 71 40L 71 34L 69 34ZM 68 41L 62 41L 62 43L 68 43L 68 41ZM 61 40L 61 34L 59 34L 59 40L 61 40ZM 62 31C 60.3431 31 59 32.3431 59 34L 61 34C 61 33.4477 61.4477 33 62 33L 62 31ZM 68 33C 68.5523 33 69 33.4477 69 34L 71 34C 71 32.3431 69.6569 31 68 31L 68 33ZM 69 40C 69 40.5523 68.5523 41 68 41L 68 43C 69.6569 43 71 41.6569 71 40L 69 40ZM 62 41C 61.4477 41 61 40.5523 61 40L 59 40C 59 41.6569 60.3431 43 62 43L 62 41ZM 74 33L 80 33L 80 31L 74 31L 74 33ZM 81 34L 81 40L 83 40L 83 34L 81 34ZM 80 41L 74 41L 74 43L 80 43L 80 41ZM 73 40L 73 34L 71 34L 71 40L 73 40ZM 74 31C 72.3431 31 71 32.3431 71 34L 73 34C 73 33.4477 73.4477 33 74 33L 74 31ZM 80 33C 80.5523 33 81 33.4477 81 34L 83 34C 83 32.3431 81.6569 31 80 31L 80 33ZM 81 40C 81 40.5523 80.5523 41 80 41L 80 43C 81.6569 43 83 41.6569 83 40L 81 40ZM 74 41C 73.4477 41 73 40.5523 73 40L 71 40C 71 41.6569 72.3431 43 74 43L 74 41ZM 86 33L 92 33L 92 31L 86 31L 86 33ZM 93 34L 93 40L 95 40L 95 34L 93 34ZM 92 41L 86 41L 86 43L 92 43L 92 41ZM 85 40L 85 34L 83 34L 83 40L 85 40ZM 86 31C 84.3431 31 83 32.3431 83 34L 85 34C 85 33.4477 85.4477 33 86 33L 86 31ZM 92 33C 92.5523 33 93 33.4477 93 34L 95 34C 95 32.3431 93.6569 31 92 31L 92 33ZM 93 40C 93 40.5523 92.5523 41 92 41L 92 43C 93.6569 43 95 41.6569 95 40L 93 40ZM 86 41C 85.4477 41 85 40.5523 85 40L 83 40C 83 41.6569 84.3431 43 86 43L 86 41ZM 98 33L 104 33L 104 31L 98 31L 98 33ZM 105 34L 105 40L 107 40L 107 34L 105 34ZM 104 41L 98 41L 98 43L 104 43L 104 41ZM 97 40L 97 34L 95 34L 95 40L 97 40ZM 98 31C 96.3431 31 95 32.3431 95 34L 97 34C 97 33.4477 97.4477 33 98 33L 98 31ZM 104 33C 104.552 33 105 33.4477 105 34L 107 34C 107 32.3431 105.657 31 104 31L 104 33ZM 105 40C 105 40.5523 104.552 41 104 41L 104 43C 105.657 43 107 41.6569 107 40L 105 40ZM 98 41C 97.4477 41 97 40.5523 97 40L 95 40C 95 41.6569 96.3431 43 98 43L 98 41ZM 110 33L 116 33L 116 31L 110 31L 110 33ZM 117 34L 117 40L 119 40L 119 34L 117 34ZM 116 41L 110 41L 110 43L 116 43L 116 41ZM 109 40L 109 34L 107 34L 107 40L 109 40ZM 110 31C 108.343 31 107 32.3431 107 34L 109 34C 109 33.4477 109.448 33 110 33L 110 31ZM 116 33C 116.552 33 117 33.4477 117 34L 119 34C 119 32.3431 117.657 31 116 31L 116 33ZM 117 40C 117 40.5523 116.552 41 116 41L 116 43C 117.657 43 119 41.6569 119 40L 117 40ZM 110 41C 109.448 41 109 40.5523 109 40L 107 40C 107 41.6569 108.343 43 110 43L 110 41ZM 122 33L 128 33L 128 31L 122 31L 122 33ZM 129 34L 129 40L 131 40L 131 34L 129 34ZM 128 41L 122 41L 122 43L 128 43L 128 41ZM 121 40L 121 34L 119 34L 119 40L 121 40ZM 122 31C 120.343 31 119 32.3431 119 34L 121 34C 121 33.4477 121.448 33 122 33L 122 31ZM 128 33C 128.552 33 129 33.4477 129 34L 131 34C 131 32.3431 129.657 31 128 31L 128 33ZM 129 40C 129 40.5523 128.552 41 128 41L 128 43C 129.657 43 131 41.6569 131 40L 129 40ZM 122 41C 121.448 41 121 40.5523 121 40L 119 40C 119 41.6569 120.343 43 122 43L 122 41ZM 134 33L 140 33L 140 31L 134 31L 134 33ZM 141 34L 141 40L 143 40L 143 34L 141 34ZM 140 41L 134 41L 134 43L 140 43L 140 41ZM 133 40L 133 34L 131 34L 131 40L 133 40ZM 134 31C 132.343 31 131 32.3431 131 34L 133 34C 133 33.4477 133.448 33 134 33L 134 31ZM 140 33C 140.552 33 141 33.4477 141 34L 143 34C 143 32.3431 141.657 31 140 31L 140 33ZM 141 40C 141 40.5523 140.552 41 140 41L 140 43C 141.657 43 143 41.6569 143 40L 141 40ZM 134 41C 133.448 41 133 40.5523 133 40L 131 40C 131 41.6569 132.343 43 134 43L 134 41ZM 146 33L 152 33L 152 31L 146 31L 146 33ZM 153 34L 153 40L 155 40L 155 34L 153 34ZM 152 41L 146 41L 146 43L 152 43L 152 41ZM 145 40L 145 34L 143 34L 143 40L 145 40ZM 146 31C 144.343 31 143 32.3431 143 34L 145 34C 145 33.4477 145.448 33 146 33L 146 31ZM 152 33C 152.552 33 153 33.4477 153 34L 155 34C 155 32.3431 153.657 31 152 31L 152 33ZM 153 40C 153 40.5523 152.552 41 152 41L 152 43C 153.657 43 155 41.6569 155 40L 153 40ZM 146 41C 145.448 41 145 40.5523 145 40L 143 40C 143 41.6569 144.343 43 146 43L 146 41ZM 33 45L 39 45L 39 43L 33 43L 33 45ZM 40 46L 40 52L 42 52L 42 46L 40 46ZM 39 53L 33 53L 33 55L 39 55L 39 53ZM 32 52L 32 46L 30 46L 30 52L 32 52ZM 33 43C 31.3431 43 30 44.3431 30 46L 32 46C 32 45.4477 32.4477 45 33 45L 33 43ZM 39 45C 39.5523 45 40 45.4477 40 46L 42 46C 42 44.3431 40.6569 43 39 43L 39 45ZM 40 52C 40 52.5523 39.5523 53 39 53L 39 55C 40.6569 55 42 53.6569 42 52L 40 52ZM 33 53C 32.4477 53 32 52.5523 32 52L 30 52C 30 53.6569 31.3431 55 33 55L 33 53ZM 45 45L 51 45L 51 43L 45 43L 45 45ZM 52 46L 52 52L 54 52L 54 46L 52 46ZM 51 53L 45 53L 45 55L 51 55L 51 53ZM 44 52L 44 46L 42 46L 42 52L 44 52ZM 45 43C 43.3431 43 42 44.3431 42 46L 44 46C 44 45.4477 44.4477 45 45 45L 45 43ZM 51 45C 51.5523 45 52 45.4477 52 46L 54 46C 54 44.3431 52.6569 43 51 43L 51 45ZM 52 52C 52 52.5523 51.5523 53 51 53L 51 55C 52.6569 55 54 53.6569 54 52L 52 52ZM 45 53C 44.4477 53 44 52.5523 44 52L 42 52C 42 53.6569 43.3431 55 45 55L 45 53ZM 57 45L 63 45L 63 43L 57 43L 57 45ZM 64 46L 64 52L 66 52L 66 46L 64 46ZM 63 53L 57 53L 57 55L 63 55L 63 53ZM 56 52L 56 46L 54 46L 54 52L 56 52ZM 57 43C 55.3431 43 54 44.3431 54 46L 56 46C 56 45.4477 56.4477 45 57 45L 57 43ZM 63 45C 63.5523 45 64 45.4477 64 46L 66 46C 66 44.3431 64.6569 43 63 43L 63 45ZM 64 52C 64 52.5523 63.5523 53 63 53L 63 55C 64.6569 55 66 53.6569 66 52L 64 52ZM 57 53C 56.4477 53 56 52.5523 56 52L 54 52C 54 53.6569 55.3431 55 57 55L 57 53ZM 69 45L 75 45L 75 43L 69 43L 69 45ZM 76 46L 76 52L 78 52L 78 46L 76 46ZM 75 53L 69 53L 69 55L 75 55L 75 53ZM 68 52L 68 46L 66 46L 66 52L 68 52ZM 69 43C 67.3431 43 66 44.3431 66 46L 68 46C 68 45.4477 68.4477 45 69 45L 69 43ZM 75 45C 75.5523 45 76 45.4477 76 46L 78 46C 78 44.3431 76.6569 43 75 43L 75 45ZM 76 52C 76 52.5523 75.5523 53 75 53L 75 55C 76.6569 55 78 53.6569 78 52L 76 52ZM 69 53C 68.4477 53 68 52.5523 68 52L 66 52C 66 53.6569 67.3431 55 69 55L 69 53ZM 81 45L 87 45L 87 43L 81 43L 81 45ZM 88 46L 88 52L 90 52L 90 46L 88 46ZM 87 53L 81 53L 81 55L 87 55L 87 53ZM 80 52L 80 46L 78 46L 78 52L 80 52ZM 81 43C 79.3431 43 78 44.3431 78 46L 80 46C 80 45.4477 80.4477 45 81 45L 81 43ZM 87 45C 87.5523 45 88 45.4477 88 46L 90 46C 90 44.3431 88.6569 43 87 43L 87 45ZM 88 52C 88 52.5523 87.5523 53 87 53L 87 55C 88.6569 55 90 53.6569 90 52L 88 52ZM 81 53C 80.4477 53 80 52.5523 80 52L 78 52C 78 53.6569 79.3431 55 81 55L 81 53ZM 93 45L 99 45L 99 43L 93 43L 93 45ZM 100 46L 100 52L 102 52L 102 46L 100 46ZM 99 53L 93 53L 93 55L 99 55L 99 53ZM 92 52L 92 46L 90 46L 90 52L 92 52ZM 93 43C 91.3431 43 90 44.3431 90 46L 92 46C 92 45.4477 92.4477 45 93 45L 93 43ZM 99 45C 99.5523 45 100 45.4477 100 46L 102 46C 102 44.3431 100.657 43 99 43L 99 45ZM 100 52C 100 52.5523 99.5523 53 99 53L 99 55C 100.657 55 102 53.6569 102 52L 100 52ZM 93 53C 92.4477 53 92 52.5523 92 52L 90 52C 90 53.6569 91.3431 55 93 55L 93 53ZM 105 45L 111 45L 111 43L 105 43L 105 45ZM 112 46L 112 52L 114 52L 114 46L 112 46ZM 111 53L 105 53L 105 55L 111 55L 111 53ZM 104 52L 104 46L 102 46L 102 52L 104 52ZM 105 43C 103.343 43 102 44.3431 102 46L 104 46C 104 45.4477 104.448 45 105 45L 105 43ZM 111 45C 111.552 45 112 45.4477 112 46L 114 46C 114 44.3431 112.657 43 111 43L 111 45ZM 112 52C 112 52.5523 111.552 53 111 53L 111 55C 112.657 55 114 53.6569 114 52L 112 52ZM 105 53C 104.448 53 104 52.5523 104 52L 102 52C 102 53.6569 103.343 55 105 55L 105 53ZM 117 45L 123 45L 123 43L 117 43L 117 45ZM 124 46L 124 52L 126 52L 126 46L 124 46ZM 123 53L 117 53L 117 55L 123 55L 123 53ZM 116 52L 116 46L 114 46L 114 52L 116 52ZM 117 43C 115.343 43 114 44.3431 114 46L 116 46C 116 45.4477 116.448 45 117 45L 117 43ZM 123 45C 123.552 45 124 45.4477 124 46L 126 46C 126 44.3431 124.657 43 123 43L 123 45ZM 124 52C 124 52.5523 123.552 53 123 53L 123 55C 124.657 55 126 53.6569 126 52L 124 52ZM 117 53C 116.448 53 116 52.5523 116 52L 114 52C 114 53.6569 115.343 55 117 55L 117 53ZM 129 45L 135 45L 135 43L 129 43L 129 45ZM 136 46L 136 52L 138 52L 138 46L 136 46ZM 135 53L 129 53L 129 55L 135 55L 135 53ZM 128 52L 128 46L 126 46L 126 52L 128 52ZM 129 43C 127.343 43 126 44.3431 126 46L 128 46C 128 45.4477 128.448 45 129 45L 129 43ZM 135 45C 135.552 45 136 45.4477 136 46L 138 46C 138 44.3431 136.657 43 135 43L 135 45ZM 136 52C 136 52.5523 135.552 53 135 53L 135 55C 136.657 55 138 53.6569 138 52L 136 52ZM 129 53C 128.448 53 128 52.5523 128 52L 126 52C 126 53.6569 127.343 55 129 55L 129 53ZM 141 45L 147 45L 147 43L 141 43L 141 45ZM 148 46L 148 52L 150 52L 150 46L 148 46ZM 147 53L 141 53L 141 55L 147 55L 147 53ZM 140 52L 140 46L 138 46L 138 52L 140 52ZM 141 43C 139.343 43 138 44.3431 138 46L 140 46C 140 45.4477 140.448 45 141 45L 141 43ZM 147 45C 147.552 45 148 45.4477 148 46L 150 46C 150 44.3431 148.657 43 147 43L 147 45ZM 148 52C 148 52.5523 147.552 53 147 53L 147 55C 148.657 55 150 53.6569 150 52L 148 52ZM 141 53C 140.448 53 140 52.5523 140 52L 138 52C 138 53.6569 139.343 55 141 55L 141 53ZM 188 59L 194 59L 194 57L 188 57L 188 59ZM 195 60L 195 66L 197 66L 197 60L 195 60ZM 194 67L 188 67L 188 69L 194 69L 194 67ZM 187 66L 187 60L 185 60L 185 66L 187 66ZM 188 57C 186.343 57 185 58.3431 185 60L 187 60C 187 59.4477 187.448 59 188 59L 188 57ZM 194 59C 194.552 59 195 59.4477 195 60L 197 60C 197 58.3431 195.657 57 194 57L 194 59ZM 195 66C 195 66.5523 194.552 67 194 67L 194 69C 195.657 69 197 67.6569 197 66L 195 66ZM 188 67C 187.448 67 187 66.5523 187 66L 185 66C 185 67.6569 186.343 69 188 69L 188 67ZM 200 59L 206 59L 206 57L 200 57L 200 59ZM 207 60L 207 66L 209 66L 209 60L 207 60ZM 206 67L 200 67L 200 69L 206 69L 206 67ZM 199 66L 199 60L 197 60L 197 66L 199 66ZM 200 57C 198.343 57 197 58.3431 197 60L 199 60C 199 59.4477 199.448 59 200 59L 200 57ZM 206 59C 206.552 59 207 59.4477 207 60L 209 60C 209 58.3431 207.657 57 206 57L 206 59ZM 207 66C 207 66.5523 206.552 67 206 67L 206 69C 207.657 69 209 67.6569 209 66L 207 66ZM 200 67C 199.448 67 199 66.5523 199 66L 197 66C 197 67.6569 198.343 69 200 69L 200 67ZM 200 47L 206 47L 206 45L 200 45L 200 47ZM 207 48L 207 54L 209 54L 209 48L 207 48ZM 206 55L 200 55L 200 57L 206 57L 206 55ZM 199 54L 199 48L 197 48L 197 54L 199 54ZM 200 45C 198.343 45 197 46.3431 197 48L 199 48C 199 47.4477 199.448 47 200 47L 200 45ZM 206 47C 206.552 47 207 47.4477 207 48L 209 48C 209 46.3431 207.657 45 206 45L 206 47ZM 207 54C 207 54.5523 206.552 55 206 55L 206 57C 207.657 57 209 55.6569 209 54L 207 54ZM 200 55C 199.448 55 199 54.5523 199 54L 197 54C 197 55.6569 198.343 57 200 57L 200 55ZM 212 59L 218 59L 218 57L 212 57L 212 59ZM 219 60L 219 66L 221 66L 221 60L 219 60ZM 218 67L 212 67L 212 69L 218 69L 218 67ZM 211 66L 211 60L 209 60L 209 66L 211 66ZM 212 57C 210.343 57 209 58.3431 209 60L 211 60C 211 59.4477 211.448 59 212 59L 212 57ZM 218 59C 218.552 59 219 59.4477 219 60L 221 60C 221 58.3431 219.657 57 218 57L 218 59ZM 219 66C 219 66.5523 218.552 67 218 67L 218 69C 219.657 69 221 67.6569 221 66L 219 66ZM 212 67C 211.448 67 211 66.5523 211 66L 209 66C 209 67.6569 210.343 69 212 69L 212 67ZM 158 33L 178 33L 178 31L 158 31L 158 33ZM 179 34L 179 40L 181 40L 181 34L 179 34ZM 178 41L 158 41L 158 43L 178 43L 178 41ZM 157 40L 157 34L 155 34L 155 40L 157 40ZM 158 31C 156.343 31 155 32.3431 155 34L 157 34C 157 33.4477 157.448 33 158 33L 158 31ZM 178 33C 178.552 33 179 33.4477 179 34L 181 34C 181 32.3431 179.657 31 178 31L 178 33ZM 179 40C 179 40.5523 178.552 41 178 41L 178 43C 179.657 43 181 41.6569 181 40L 179 40ZM 158 41C 157.448 41 157 40.5523 157 40L 155 40C 155 41.6569 156.343 43 158 43L 158 41ZM 33 21L 39 21L 39 19L 33 19L 33 21ZM 40 22L 40 28L 42 28L 42 22L 40 22ZM 39 29L 33 29L 33 31L 39 31L 39 29ZM 32 28L 32 22L 30 22L 30 28L 32 28ZM 33 19C 31.3431 19 30 20.3431 30 22L 32 22C 32 21.4477 32.4477 21 33 21L 33 19ZM 39 21C 39.5523 21 40 21.4477 40 22L 42 22C 42 20.3431 40.6569 19 39 19L 39 21ZM 40 28C 40 28.5523 39.5523 29 39 29L 39 31C 40.6569 31 42 29.6569 42 28L 40 28ZM 33 29C 32.4477 29 32 28.5523 32 28L 30 28C 30 29.6569 31.3431 31 33 31L 33 29ZM 45 21L 51 21L 51 19L 45 19L 45 21ZM 52 22L 52 28L 54 28L 54 22L 52 22ZM 51 29L 45 29L 45 31L 51 31L 51 29ZM 44 28L 44 22L 42 22L 42 28L 44 28ZM 45 19C 43.3431 19 42 20.3431 42 22L 44 22C 44 21.4477 44.4477 21 45 21L 45 19ZM 51 21C 51.5523 21 52 21.4477 52 22L 54 22C 54 20.3431 52.6569 19 51 19L 51 21ZM 52 28C 52 28.5523 51.5523 29 51 29L 51 31C 52.6569 31 54 29.6569 54 28L 52 28ZM 45 29C 44.4477 29 44 28.5523 44 28L 42 28C 42 29.6569 43.3431 31 45 31L 45 29ZM 57 21L 63 21L 63 19L 57 19L 57 21ZM 64 22L 64 28L 66 28L 66 22L 64 22ZM 63 29L 57 29L 57 31L 63 31L 63 29ZM 56 28L 56 22L 54 22L 54 28L 56 28ZM 57 19C 55.3431 19 54 20.3431 54 22L 56 22C 56 21.4477 56.4477 21 57 21L 57 19ZM 63 21C 63.5523 21 64 21.4477 64 22L 66 22C 66 20.3431 64.6569 19 63 19L 63 21ZM 64 28C 64 28.5523 63.5523 29 63 29L 63 31C 64.6569 31 66 29.6569 66 28L 64 28ZM 57 29C 56.4477 29 56 28.5523 56 28L 54 28C 54 29.6569 55.3431 31 57 31L 57 29ZM 69 21L 75 21L 75 19L 69 19L 69 21ZM 76 22L 76 28L 78 28L 78 22L 76 22ZM 75 29L 69 29L 69 31L 75 31L 75 29ZM 68 28L 68 22L 66 22L 66 28L 68 28ZM 69 19C 67.3431 19 66 20.3431 66 22L 68 22C 68 21.4477 68.4477 21 69 21L 69 19ZM 75 21C 75.5523 21 76 21.4477 76 22L 78 22C 78 20.3431 76.6569 19 75 19L 75 21ZM 76 28C 76 28.5523 75.5523 29 75 29L 75 31C 76.6569 31 78 29.6569 78 28L 76 28ZM 69 29C 68.4477 29 68 28.5523 68 28L 66 28C 66 29.6569 67.3431 31 69 31L 69 29ZM 81 21L 87 21L 87 19L 81 19L 81 21ZM 88 22L 88 28L 90 28L 90 22L 88 22ZM 87 29L 81 29L 81 31L 87 31L 87 29ZM 80 28L 80 22L 78 22L 78 28L 80 28ZM 81 19C 79.3431 19 78 20.3431 78 22L 80 22C 80 21.4477 80.4477 21 81 21L 81 19ZM 87 21C 87.5523 21 88 21.4477 88 22L 90 22C 90 20.3431 88.6569 19 87 19L 87 21ZM 88 28C 88 28.5523 87.5523 29 87 29L 87 31C 88.6569 31 90 29.6569 90 28L 88 28ZM 81 29C 80.4477 29 80 28.5523 80 28L 78 28C 78 29.6569 79.3431 31 81 31L 81 29ZM 93 21L 99 21L 99 19L 93 19L 93 21ZM 100 22L 100 28L 102 28L 102 22L 100 22ZM 99 29L 93 29L 93 31L 99 31L 99 29ZM 92 28L 92 22L 90 22L 90 28L 92 28ZM 93 19C 91.3431 19 90 20.3431 90 22L 92 22C 92 21.4477 92.4477 21 93 21L 93 19ZM 99 21C 99.5523 21 100 21.4477 100 22L 102 22C 102 20.3431 100.657 19 99 19L 99 21ZM 100 28C 100 28.5523 99.5523 29 99 29L 99 31C 100.657 31 102 29.6569 102 28L 100 28ZM 93 29C 92.4477 29 92 28.5523 92 28L 90 28C 90 29.6569 91.3431 31 93 31L 93 29ZM 105 21L 111 21L 111 19L 105 19L 105 21ZM 112 22L 112 28L 114 28L 114 22L 112 22ZM 111 29L 105 29L 105 31L 111 31L 111 29ZM 104 28L 104 22L 102 22L 102 28L 104 28ZM 105 19C 103.343 19 102 20.3431 102 22L 104 22C 104 21.4477 104.448 21 105 21L 105 19ZM 111 21C 111.552 21 112 21.4477 112 22L 114 22C 114 20.3431 112.657 19 111 19L 111 21ZM 112 28C 112 28.5523 111.552 29 111 29L 111 31C 112.657 31 114 29.6569 114 28L 112 28ZM 105 29C 104.448 29 104 28.5523 104 28L 102 28C 102 29.6569 103.343 31 105 31L 105 29ZM 117 21L 123 21L 123 19L 117 19L 117 21ZM 124 22L 124 28L 126 28L 126 22L 124 22ZM 123 29L 117 29L 117 31L 123 31L 123 29ZM 116 28L 116 22L 114 22L 114 28L 116 28ZM 117 19C 115.343 19 114 20.3431 114 22L 116 22C 116 21.4477 116.448 21 117 21L 117 19ZM 123 21C 123.552 21 124 21.4477 124 22L 126 22C 126 20.3431 124.657 19 123 19L 123 21ZM 124 28C 124 28.5523 123.552 29 123 29L 123 31C 124.657 31 126 29.6569 126 28L 124 28ZM 117 29C 116.448 29 116 28.5523 116 28L 114 28C 114 29.6569 115.343 31 117 31L 117 29ZM 129 21L 135 21L 135 19L 129 19L 129 21ZM 136 22L 136 28L 138 28L 138 22L 136 22ZM 135 29L 129 29L 129 31L 135 31L 135 29ZM 128 28L 128 22L 126 22L 126 28L 128 28ZM 129 19C 127.343 19 126 20.3431 126 22L 128 22C 128 21.4477 128.448 21 129 21L 129 19ZM 135 21C 135.552 21 136 21.4477 136 22L 138 22C 138 20.3431 136.657 19 135 19L 135 21ZM 136 28C 136 28.5523 135.552 29 135 29L 135 31C 136.657 31 138 29.6569 138 28L 136 28ZM 129 29C 128.448 29 128 28.5523 128 28L 126 28C 126 29.6569 127.343 31 129 31L 129 29ZM 141 21L 147 21L 147 19L 141 19L 141 21ZM 148 22L 148 28L 150 28L 150 22L 148 22ZM 147 29L 141 29L 141 31L 147 31L 147 29ZM 140 28L 140 22L 138 22L 138 28L 140 28ZM 141 19C 139.343 19 138 20.3431 138 22L 140 22C 140 21.4477 140.448 21 141 21L 141 19ZM 147 21C 147.552 21 148 21.4477 148 22L 150 22C 150 20.3431 148.657 19 147 19L 147 21ZM 148 28C 148 28.5523 147.552 29 147 29L 147 31C 148.657 31 150 29.6569 150 28L 148 28ZM 141 29C 140.448 29 140 28.5523 140 28L 138 28C 138 29.6569 139.343 31 141 31L 141 29ZM 153 21L 159 21L 159 19L 153 19L 153 21ZM 160 22L 160 28L 162 28L 162 22L 160 22ZM 159 29L 153 29L 153 31L 159 31L 159 29ZM 152 28L 152 22L 150 22L 150 28L 152 28ZM 153 19C 151.343 19 150 20.3431 150 22L 152 22C 152 21.4477 152.448 21 153 21L 153 19ZM 159 21C 159.552 21 160 21.4477 160 22L 162 22C 162 20.3431 160.657 19 159 19L 159 21ZM 160 28C 160 28.5523 159.552 29 159 29L 159 31C 160.657 31 162 29.6569 162 28L 160 28ZM 153 29C 152.448 29 152 28.5523 152 28L 150 28C 150 29.6569 151.343 31 153 31L 153 29ZM 165 21L 178 21L 178 19L 165 19L 165 21ZM 179 22L 179 28L 181 28L 181 22L 179 22ZM 178 29L 165 29L 165 31L 178 31L 178 29ZM 164 28L 164 22L 162 22L 162 28L 164 28ZM 165 19C 163.343 19 162 20.3431 162 22L 164 22C 164 21.4477 164.448 21 165 21L 165 19ZM 178 21C 178.552 21 179 21.4477 179 22L 181 22C 181 20.3431 179.657 19 178 19L 178 21ZM 179 28C 179 28.5523 178.552 29 178 29L 178 31C 179.657 31 181 29.6569 181 28L 179 28ZM 165 29C 164.448 29 164 28.5523 164 28L 162 28C 162 29.6569 163.343 31 165 31L 165 29ZM 188 9L 194 9L 194 7L 188 7L 188 9ZM 195 10L 195 16L 197 16L 197 10L 195 10ZM 194 17L 188 17L 188 19L 194 19L 194 17ZM 187 16L 187 10L 185 10L 185 16L 187 16ZM 188 7C 186.343 7 185 8.34315 185 10L 187 10C 187 9.44772 187.448 9 188 9L 188 7ZM 194 9C 194.552 9 195 9.44772 195 10L 197 10C 197 8.34315 195.657 7 194 7L 194 9ZM 195 16C 195 16.5523 194.552 17 194 17L 194 19C 195.657 19 197 17.6569 197 16L 195 16ZM 188 17C 187.448 17 187 16.5523 187 16L 185 16C 185 17.6569 186.343 19 188 19L 188 17ZM 200 9L 206 9L 206 7L 200 7L 200 9ZM 207 10L 207 16L 209 16L 209 10L 207 10ZM 206 17L 200 17L 200 19L 206 19L 206 17ZM 199 16L 199 10L 197 10L 197 16L 199 16ZM 200 7C 198.343 7 197 8.34315 197 10L 199 10C 199 9.44772 199.448 9 200 9L 200 7ZM 206 9C 206.552 9 207 9.44772 207 10L 209 10C 209 8.34315 207.657 7 206 7L 206 9ZM 207 16C 207 16.5523 206.552 17 206 17L 206 19C 207.657 19 209 17.6569 209 16L 207 16ZM 200 17C 199.448 17 199 16.5523 199 16L 197 16C 197 17.6569 198.343 19 200 19L 200 17ZM 212 9L 218 9L 218 7L 212 7L 212 9ZM 219 10L 219 16L 221 16L 221 10L 219 10ZM 218 17L 212 17L 212 19L 218 19L 218 17ZM 211 16L 211 10L 209 10L 209 16L 211 16ZM 212 7C 210.343 7 209 8.34315 209 10L 211 10C 211 9.44772 211.448 9 212 9L 212 7ZM 218 9C 218.552 9 219 9.44772 219 10L 221 10C 221 8.34315 219.657 7 218 7L 218 9ZM 219 16C 219 16.5523 218.552 17 218 17L 218 19C 219.657 19 221 17.6569 221 16L 219 16ZM 212 17C 211.448 17 211 16.5523 211 16L 209 16C 209 17.6569 210.343 19 212 19L 212 17ZM 228 9L 234 9L 234 7L 228 7L 228 9ZM 235 10L 235 16L 237 16L 237 10L 235 10ZM 234 17L 228 17L 228 19L 234 19L 234 17ZM 227 16L 227 10L 225 10L 225 16L 227 16ZM 228 7C 226.343 7 225 8.34315 225 10L 227 10C 227 9.44772 227.448 9 228 9L 228 7ZM 234 9C 234.552 9 235 9.44772 235 10L 237 10C 237 8.34315 235.657 7 234 7L 234 9ZM 235 16C 235 16.5523 234.552 17 234 17L 234 19C 235.657 19 237 17.6569 237 16L 235 16ZM 228 17C 227.448 17 227 16.5523 227 16L 225 16C 225 17.6569 226.343 19 228 19L 228 17ZM 228 21L 234 21L 234 19L 228 19L 228 21ZM 235 22L 235 28L 237 28L 237 22L 235 22ZM 234 29L 228 29L 228 31L 234 31L 234 29ZM 227 28L 227 22L 225 22L 225 28L 227 28ZM 228 19C 226.343 19 225 20.3431 225 22L 227 22C 227 21.4477 227.448 21 228 21L 228 19ZM 234 21C 234.552 21 235 21.4477 235 22L 237 22C 237 20.3431 235.657 19 234 19L 234 21ZM 235 28C 235 28.5523 234.552 29 234 29L 234 31C 235.657 31 237 29.6569 237 28L 235 28ZM 228 29C 227.448 29 227 28.5523 227 28L 225 28C 225 29.6569 226.343 31 228 31L 228 29ZM 228 33L 234 33L 234 31L 228 31L 228 33ZM 235 34L 235 40L 237 40L 237 34L 235 34ZM 234 41L 228 41L 228 43L 234 43L 234 41ZM 227 40L 227 34L 225 34L 225 40L 227 40ZM 228 31C 226.343 31 225 32.3431 225 34L 227 34C 227 33.4477 227.448 33 228 33L 228 31ZM 234 33C 234.552 33 235 33.4477 235 34L 237 34C 237 32.3431 235.657 31 234 31L 234 33ZM 235 40C 235 40.5523 234.552 41 234 41L 234 43C 235.657 43 237 41.6569 237 40L 235 40ZM 228 41C 227.448 41 227 40.5523 227 40L 225 40C 225 41.6569 226.343 43 228 43L 228 41ZM 228 45L 234 45L 234 43L 228 43L 228 45ZM 235 46L 235 52L 237 52L 237 46L 235 46ZM 234 53L 228 53L 228 55L 234 55L 234 53ZM 227 52L 227 46L 225 46L 225 52L 227 52ZM 228 43C 226.343 43 225 44.3431 225 46L 227 46C 227 45.4477 227.448 45 228 45L 228 43ZM 234 45C 234.552 45 235 45.4477 235 46L 237 46C 237 44.3431 235.657 43 234 43L 234 45ZM 235 52C 235 52.5523 234.552 53 234 53L 234 55C 235.657 55 237 53.6569 237 52L 235 52ZM 228 53C 227.448 53 227 52.5523 227 52L 225 52C 225 53.6569 226.343 55 228 55L 228 53ZM 240 21L 246 21L 246 19L 240 19L 240 21ZM 247 22L 247 28L 249 28L 249 22L 247 22ZM 246 29L 240 29L 240 31L 246 31L 246 29ZM 239 28L 239 22L 237 22L 237 28L 239 28ZM 240 19C 238.343 19 237 20.3431 237 22L 239 22C 239 21.4477 239.448 21 240 21L 240 19ZM 246 21C 246.552 21 247 21.4477 247 22L 249 22C 249 20.3431 247.657 19 246 19L 246 21ZM 247 28C 247 28.5523 246.552 29 246 29L 246 31C 247.657 31 249 29.6569 249 28L 247 28ZM 240 29C 239.448 29 239 28.5523 239 28L 237 28C 237 29.6569 238.343 31 240 31L 240 29ZM 240 33L 246 33L 246 31L 240 31L 240 33ZM 247 34L 247 40L 249 40L 249 34L 247 34ZM 246 41L 240 41L 240 43L 246 43L 246 41ZM 239 40L 239 34L 237 34L 237 40L 239 40ZM 240 31C 238.343 31 237 32.3431 237 34L 239 34C 239 33.4477 239.448 33 240 33L 240 31ZM 246 33C 246.552 33 247 33.4477 247 34L 249 34C 249 32.3431 247.657 31 246 31L 246 33ZM 247 40C 247 40.5523 246.552 41 246 41L 246 43C 247.657 43 249 41.6569 249 40L 247 40ZM 240 41C 239.448 41 239 40.5523 239 40L 237 40C 237 41.6569 238.343 43 240 43L 240 41ZM 240 45L 246 45L 246 43L 240 43L 240 45ZM 247 46L 247 52L 249 52L 249 46L 247 46ZM 246 53L 240 53L 240 55L 246 55L 246 53ZM 239 52L 239 46L 237 46L 237 52L 239 52ZM 240 43C 238.343 43 237 44.3431 237 46L 239 46C 239 45.4477 239.448 45 240 45L 240 43ZM 246 45C 246.552 45 247 45.4477 247 46L 249 46C 249 44.3431 247.657 43 246 43L 246 45ZM 247 52C 247 52.5523 246.552 53 246 53L 246 55C 247.657 55 249 53.6569 249 52L 247 52ZM 240 53C 239.448 53 239 52.5523 239 52L 237 52C 237 53.6569 238.343 55 240 55L 240 53ZM 252 21L 258 21L 258 19L 252 19L 252 21ZM 259 22L 259 28L 261 28L 261 22L 259 22ZM 258 29L 252 29L 252 31L 258 31L 258 29ZM 251 28L 251 22L 249 22L 249 28L 251 28ZM 252 19C 250.343 19 249 20.3431 249 22L 251 22C 251 21.4477 251.448 21 252 21L 252 19ZM 258 21C 258.552 21 259 21.4477 259 22L 261 22C 261 20.3431 259.657 19 258 19L 258 21ZM 259 28C 259 28.5523 258.552 29 258 29L 258 31C 259.657 31 261 29.6569 261 28L 259 28ZM 252 29C 251.448 29 251 28.5523 251 28L 249 28C 249 29.6569 250.343 31 252 31L 252 29ZM 252 33L 258 33L 258 31L 252 31L 252 33ZM 259 34L 259 40L 261 40L 261 34L 259 34ZM 258 41L 252 41L 252 43L 258 43L 258 41ZM 251 40L 251 34L 249 34L 249 40L 251 40ZM 252 31C 250.343 31 249 32.3431 249 34L 251 34C 251 33.4477 251.448 33 252 33L 252 31ZM 258 33C 258.552 33 259 33.4477 259 34L 261 34C 261 32.3431 259.657 31 258 31L 258 33ZM 259 40C 259 40.5523 258.552 41 258 41L 258 43C 259.657 43 261 41.6569 261 40L 259 40ZM 252 41C 251.448 41 251 40.5523 251 40L 249 40C 249 41.6569 250.343 43 252 43L 252 41ZM 264 21L 270 21L 270 19L 264 19L 264 21ZM 271 22L 271 28L 273 28L 273 22L 271 22ZM 270 29L 264 29L 264 31L 270 31L 270 29ZM 263 28L 263 22L 261 22L 261 28L 263 28ZM 264 19C 262.343 19 261 20.3431 261 22L 263 22C 263 21.4477 263.448 21 264 21L 264 19ZM 270 21C 270.552 21 271 21.4477 271 22L 273 22C 273 20.3431 271.657 19 270 19L 270 21ZM 271 28C 271 28.5523 270.552 29 270 29L 270 31C 271.657 31 273 29.6569 273 28L 271 28ZM 264 29C 263.448 29 263 28.5523 263 28L 261 28C 261 29.6569 262.343 31 264 31L 264 29ZM 240 9L 246 9L 246 7L 240 7L 240 9ZM 247 10L 247 16L 249 16L 249 10L 247 10ZM 246 17L 240 17L 240 19L 246 19L 246 17ZM 239 16L 239 10L 237 10L 237 16L 239 16ZM 240 7C 238.343 7 237 8.34315 237 10L 239 10C 239 9.44772 239.448 9 240 9L 240 7ZM 246 9C 246.552 9 247 9.44772 247 10L 249 10C 249 8.34315 247.657 7 246 7L 246 9ZM 247 16C 247 16.5523 246.552 17 246 17L 246 19C 247.657 19 249 17.6569 249 16L 247 16ZM 240 17C 239.448 17 239 16.5523 239 16L 237 16C 237 17.6569 238.343 19 240 19L 240 17ZM 252 9L 258 9L 258 7L 252 7L 252 9ZM 259 10L 259 16L 261 16L 261 10L 259 10ZM 258 17L 252 17L 252 19L 258 19L 258 17ZM 251 16L 251 10L 249 10L 249 16L 251 16ZM 252 7C 250.343 7 249 8.34315 249 10L 251 10C 251 9.44772 251.448 9 252 9L 252 7ZM 258 9C 258.552 9 259 9.44772 259 10L 261 10C 261 8.34315 259.657 7 258 7L 258 9ZM 259 16C 259 16.5523 258.552 17 258 17L 258 19C 259.657 19 261 17.6569 261 16L 259 16ZM 252 17C 251.448 17 251 16.5523 251 16L 249 16C 249 17.6569 250.343 19 252 19L 252 17ZM 264 9L 270 9L 270 7L 264 7L 264 9ZM 271 10L 271 16L 273 16L 273 10L 271 10ZM 270 17L 264 17L 264 19L 270 19L 270 17ZM 263 16L 263 10L 261 10L 261 16L 263 16ZM 264 7C 262.343 7 261 8.34315 261 10L 263 10C 263 9.44772 263.448 9 264 9L 264 7ZM 270 9C 270.552 9 271 9.44772 271 10L 273 10C 273 8.34315 271.657 7 270 7L 270 9ZM 271 16C 271 16.5523 270.552 17 270 17L 270 19C 271.657 19 273 17.6569 273 16L 271 16ZM 264 17C 263.448 17 263 16.5523 263 16L 261 16C 261 17.6569 262.343 19 264 19L 264 17ZM 264 33L 270 33L 270 31L 264 31L 264 33ZM 271 34L 271 40L 273 40L 273 34L 271 34ZM 270 41L 264 41L 264 43L 270 43L 270 41ZM 263 40L 263 34L 261 34L 261 40L 263 40ZM 264 31C 262.343 31 261 32.3431 261 34L 263 34C 263 33.4477 263.448 33 264 33L 264 31ZM 270 33C 270.552 33 271 33.4477 271 34L 273 34C 273 32.3431 271.657 31 270 31L 270 33ZM 271 40C 271 40.5523 270.552 41 270 41L 270 43C 271.657 43 273 41.6569 273 40L 271 40ZM 264 41C 263.448 41 263 40.5523 263 40L 261 40C 261 41.6569 262.343 43 264 43L 264 41ZM 252 45L 258 45L 258 43L 252 43L 252 45ZM 259 46L 259 52L 261 52L 261 46L 259 46ZM 258 53L 252 53L 252 55L 258 55L 258 53ZM 251 52L 251 46L 249 46L 249 52L 251 52ZM 252 43C 250.343 43 249 44.3431 249 46L 251 46C 251 45.4477 251.448 45 252 45L 252 43ZM 258 45C 258.552 45 259 45.4477 259 46L 261 46C 261 44.3431 259.657 43 258 43L 258 45ZM 259 52C 259 52.5523 258.552 53 258 53L 258 55C 259.657 55 261 53.6569 261 52L 259 52ZM 252 53C 251.448 53 251 52.5523 251 52L 249 52C 249 53.6569 250.343 55 252 55L 252 53ZM 252 57L 258 57L 258 55L 252 55L 252 57ZM 259 58L 259 66L 261 66L 261 58L 259 58ZM 258 67L 252 67L 252 69L 258 69L 258 67ZM 251 66L 251 58L 249 58L 249 66L 251 66ZM 252 55C 250.343 55 249 56.3431 249 58L 251 58C 251 57.4477 251.448 57 252 57L 252 55ZM 258 57C 258.552 57 259 57.4477 259 58L 261 58C 261 56.3431 259.657 55 258 55L 258 57ZM 259 66C 259 66.5523 258.552 67 258 67L 258 69C 259.657 69 261 67.6569 261 66L 259 66ZM 252 67C 251.448 67 251 66.5523 251 66L 249 66C 249 67.6569 250.343 69 252 69L 252 67ZM 264 45L 270 45L 270 43L 264 43L 264 45ZM 271 46L 271 66L 273 66L 273 46L 271 46ZM 270 67L 264 67L 264 69L 270 69L 270 67ZM 263 66L 263 46L 261 46L 261 66L 263 66ZM 264 43C 262.343 43 261 44.3431 261 46L 263 46C 263 45.4477 263.448 45 264 45L 264 43ZM 270 45C 270.552 45 271 45.4477 271 46L 273 46C 273 44.3431 271.657 43 270 43L 270 45ZM 271 66C 271 66.5523 270.552 67 270 67L 270 69C 271.657 69 273 67.6569 273 66L 271 66ZM 264 67C 263.448 67 263 66.5523 263 66L 261 66C 261 67.6569 262.343 69 264 69L 264 67ZM 228 57L 246 57L 246 55L 228 55L 228 57ZM 247 58L 247 66L 249 66L 249 58L 247 58ZM 246 67L 228 67L 228 69L 246 69L 246 67ZM 227 66L 227 58L 225 58L 225 66L 227 66ZM 228 55C 226.343 55 225 56.3431 225 58L 227 58C 227 57.4477 227.448 57 228 57L 228 55ZM 246 57C 246.552 57 247 57.4477 247 58L 249 58C 249 56.3431 247.657 55 246 55L 246 57ZM 247 66C 247 66.5523 246.552 67 246 67L 246 69C 247.657 69 249 67.6569 249 66L 247 66ZM 228 67C 227.448 67 227 66.5523 227 66L 225 66C 225 67.6569 226.343 69 228 69L 228 67ZM 188 21L 194 21L 194 19L 188 19L 188 21ZM 195 22L 195 28L 197 28L 197 22L 195 22ZM 194 29L 188 29L 188 31L 194 31L 194 29ZM 187 28L 187 22L 185 22L 185 28L 187 28ZM 188 19C 186.343 19 185 20.3431 185 22L 187 22C 187 21.4477 187.448 21 188 21L 188 19ZM 194 21C 194.552 21 195 21.4477 195 22L 197 22C 197 20.3431 195.657 19 194 19L 194 21ZM 195 28C 195 28.5523 194.552 29 194 29L 194 31C 195.657 31 197 29.6569 197 28L 195 28ZM 188 29C 187.448 29 187 28.5523 187 28L 185 28C 185 29.6569 186.343 31 188 31L 188 29ZM 200 21L 206 21L 206 19L 200 19L 200 21ZM 207 22L 207 28L 209 28L 209 22L 207 22ZM 206 29L 200 29L 200 31L 206 31L 206 29ZM 199 28L 199 22L 197 22L 197 28L 199 28ZM 200 19C 198.343 19 197 20.3431 197 22L 199 22C 199 21.4477 199.448 21 200 21L 200 19ZM 206 21C 206.552 21 207 21.4477 207 22L 209 22C 209 20.3431 207.657 19 206 19L 206 21ZM 207 28C 207 28.5523 206.552 29 206 29L 206 31C 207.657 31 209 29.6569 209 28L 207 28ZM 200 29C 199.448 29 199 28.5523 199 28L 197 28C 197 29.6569 198.343 31 200 31L 200 29ZM 212 21L 218 21L 218 19L 212 19L 212 21ZM 219 22L 219 28L 221 28L 221 22L 219 22ZM 218 29L 212 29L 212 31L 218 31L 218 29ZM 211 28L 211 22L 209 22L 209 28L 211 28ZM 212 19C 210.343 19 209 20.3431 209 22L 211 22C 211 21.4477 211.448 21 212 21L 212 19ZM 218 21C 218.552 21 219 21.4477 219 22L 221 22C 221 20.3431 219.657 19 218 19L 218 21ZM 219 28C 219 28.5523 218.552 29 218 29L 218 31C 219.657 31 221 29.6569 221 28L 219 28ZM 212 29C 211.448 29 211 28.5523 211 28L 209 28C 209 29.6569 210.343 31 212 31L 212 29ZM 26 9L 32 9L 32 7L 26 7L 26 9ZM 33 10L 33 16L 35 16L 35 10L 33 10ZM 32 17L 26 17L 26 19L 32 19L 32 17ZM 25 16L 25 10L 23 10L 23 16L 25 16ZM 26 7C 24.3431 7 23 8.34315 23 10L 25 10C 25 9.44772 25.4477 9 26 9L 26 7ZM 32 9C 32.5523 9 33 9.44772 33 10L 35 10C 35 8.34315 33.6569 7 32 7L 32 9ZM 33 16C 33 16.5523 32.5523 17 32 17L 32 19C 33.6569 19 35 17.6569 35 16L 33 16ZM 26 17C 25.4477 17 25 16.5523 25 16L 23 16C 23 17.6569 24.3431 19 26 19L 26 17ZM 38 9L 44 9L 44 7L 38 7L 38 9ZM 45 10L 45 16L 47 16L 47 10L 45 10ZM 44 17L 38 17L 38 19L 44 19L 44 17ZM 37 16L 37 10L 35 10L 35 16L 37 16ZM 38 7C 36.3431 7 35 8.34315 35 10L 37 10C 37 9.44772 37.4477 9 38 9L 38 7ZM 44 9C 44.5523 9 45 9.44772 45 10L 47 10C 47 8.34315 45.6569 7 44 7L 44 9ZM 45 16C 45 16.5523 44.5523 17 44 17L 44 19C 45.6569 19 47 17.6569 47 16L 45 16ZM 38 17C 37.4477 17 37 16.5523 37 16L 35 16C 35 17.6569 36.3431 19 38 19L 38 17ZM 50 9L 56 9L 56 7L 50 7L 50 9ZM 57 10L 57 16L 59 16L 59 10L 57 10ZM 56 17L 50 17L 50 19L 56 19L 56 17ZM 49 16L 49 10L 47 10L 47 16L 49 16ZM 50 7C 48.3431 7 47 8.34315 47 10L 49 10C 49 9.44772 49.4477 9 50 9L 50 7ZM 56 9C 56.5523 9 57 9.44772 57 10L 59 10C 59 8.34315 57.6569 7 56 7L 56 9ZM 57 16C 57 16.5523 56.5523 17 56 17L 56 19C 57.6569 19 59 17.6569 59 16L 57 16ZM 50 17C 49.4477 17 49 16.5523 49 16L 47 16C 47 17.6569 48.3431 19 50 19L 50 17ZM 62 9L 68 9L 68 7L 62 7L 62 9ZM 69 10L 69 16L 71 16L 71 10L 69 10ZM 68 17L 62 17L 62 19L 68 19L 68 17ZM 61 16L 61 10L 59 10L 59 16L 61 16ZM 62 7C 60.3431 7 59 8.34315 59 10L 61 10C 61 9.44772 61.4477 9 62 9L 62 7ZM 68 9C 68.5523 9 69 9.44772 69 10L 71 10C 71 8.34315 69.6569 7 68 7L 68 9ZM 69 16C 69 16.5523 68.5523 17 68 17L 68 19C 69.6569 19 71 17.6569 71 16L 69 16ZM 62 17C 61.4477 17 61 16.5523 61 16L 59 16C 59 17.6569 60.3431 19 62 19L 62 17ZM 74 9L 80 9L 80 7L 74 7L 74 9ZM 81 10L 81 16L 83 16L 83 10L 81 10ZM 80 17L 74 17L 74 19L 80 19L 80 17ZM 73 16L 73 10L 71 10L 71 16L 73 16ZM 74 7C 72.3431 7 71 8.34315 71 10L 73 10C 73 9.44772 73.4477 9 74 9L 74 7ZM 80 9C 80.5523 9 81 9.44772 81 10L 83 10C 83 8.34315 81.6569 7 80 7L 80 9ZM 81 16C 81 16.5523 80.5523 17 80 17L 80 19C 81.6569 19 83 17.6569 83 16L 81 16ZM 74 17C 73.4477 17 73 16.5523 73 16L 71 16C 71 17.6569 72.3431 19 74 19L 74 17ZM 86 9L 92 9L 92 7L 86 7L 86 9ZM 93 10L 93 16L 95 16L 95 10L 93 10ZM 92 17L 86 17L 86 19L 92 19L 92 17ZM 85 16L 85 10L 83 10L 83 16L 85 16ZM 86 7C 84.3431 7 83 8.34315 83 10L 85 10C 85 9.44772 85.4477 9 86 9L 86 7ZM 92 9C 92.5523 9 93 9.44772 93 10L 95 10C 95 8.34315 93.6569 7 92 7L 92 9ZM 93 16C 93 16.5523 92.5523 17 92 17L 92 19C 93.6569 19 95 17.6569 95 16L 93 16ZM 86 17C 85.4477 17 85 16.5523 85 16L 83 16C 83 17.6569 84.3431 19 86 19L 86 17ZM 98 9L 104 9L 104 7L 98 7L 98 9ZM 105 10L 105 16L 107 16L 107 10L 105 10ZM 104 17L 98 17L 98 19L 104 19L 104 17ZM 97 16L 97 10L 95 10L 95 16L 97 16ZM 98 7C 96.3431 7 95 8.34315 95 10L 97 10C 97 9.44772 97.4477 9 98 9L 98 7ZM 104 9C 104.552 9 105 9.44772 105 10L 107 10C 107 8.34315 105.657 7 104 7L 104 9ZM 105 16C 105 16.5523 104.552 17 104 17L 104 19C 105.657 19 107 17.6569 107 16L 105 16ZM 98 17C 97.4477 17 97 16.5523 97 16L 95 16C 95 17.6569 96.3431 19 98 19L 98 17ZM 110 9L 116 9L 116 7L 110 7L 110 9ZM 117 10L 117 16L 119 16L 119 10L 117 10ZM 116 17L 110 17L 110 19L 116 19L 116 17ZM 109 16L 109 10L 107 10L 107 16L 109 16ZM 110 7C 108.343 7 107 8.34315 107 10L 109 10C 109 9.44772 109.448 9 110 9L 110 7ZM 116 9C 116.552 9 117 9.44772 117 10L 119 10C 119 8.34315 117.657 7 116 7L 116 9ZM 117 16C 117 16.5523 116.552 17 116 17L 116 19C 117.657 19 119 17.6569 119 16L 117 16ZM 110 17C 109.448 17 109 16.5523 109 16L 107 16C 107 17.6569 108.343 19 110 19L 110 17ZM 122 9L 128 9L 128 7L 122 7L 122 9ZM 129 10L 129 16L 131 16L 131 10L 129 10ZM 128 17L 122 17L 122 19L 128 19L 128 17ZM 121 16L 121 10L 119 10L 119 16L 121 16ZM 122 7C 120.343 7 119 8.34315 119 10L 121 10C 121 9.44772 121.448 9 122 9L 122 7ZM 128 9C 128.552 9 129 9.44772 129 10L 131 10C 131 8.34315 129.657 7 128 7L 128 9ZM 129 16C 129 16.5523 128.552 17 128 17L 128 19C 129.657 19 131 17.6569 131 16L 129 16ZM 122 17C 121.448 17 121 16.5523 121 16L 119 16C 119 17.6569 120.343 19 122 19L 122 17ZM 134 9L 140 9L 140 7L 134 7L 134 9ZM 141 10L 141 16L 143 16L 143 10L 141 10ZM 140 17L 134 17L 134 19L 140 19L 140 17ZM 133 16L 133 10L 131 10L 131 16L 133 16ZM 134 7C 132.343 7 131 8.34315 131 10L 133 10C 133 9.44772 133.448 9 134 9L 134 7ZM 140 9C 140.552 9 141 9.44772 141 10L 143 10C 143 8.34315 141.657 7 140 7L 140 9ZM 141 16C 141 16.5523 140.552 17 140 17L 140 19C 141.657 19 143 17.6569 143 16L 141 16ZM 134 17C 133.448 17 133 16.5523 133 16L 131 16C 131 17.6569 132.343 19 134 19L 134 17ZM 146 9L 152 9L 152 7L 146 7L 146 9ZM 153 10L 153 16L 155 16L 155 10L 153 10ZM 152 17L 146 17L 146 19L 152 19L 152 17ZM 145 16L 145 10L 143 10L 143 16L 145 16ZM 146 7C 144.343 7 143 8.34315 143 10L 145 10C 145 9.44772 145.448 9 146 9L 146 7ZM 152 9C 152.552 9 153 9.44772 153 10L 155 10C 155 8.34315 153.657 7 152 7L 152 9ZM 153 16C 153 16.5523 152.552 17 152 17L 152 19C 153.657 19 155 17.6569 155 16L 153 16ZM 146 17C 145.448 17 145 16.5523 145 16L 143 16C 143 17.6569 144.343 19 146 19L 146 17ZM 158 9L 178 9L 178 7L 158 7L 158 9ZM 179 10L 179 16L 181 16L 181 10L 179 10ZM 178 17L 158 17L 158 19L 178 19L 178 17ZM 157 16L 157 10L 155 10L 155 16L 157 16ZM 158 7C 156.343 7 155 8.34315 155 10L 157 10C 157 9.44772 157.448 9 158 9L 158 7ZM 178 9C 178.552 9 179 9.44772 179 10L 181 10C 181 8.34315 179.657 7 178 7L 178 9ZM 179 16C 179 16.5523 178.552 17 178 17L 178 19C 179.657 19 181 17.6569 181 16L 179 16ZM 158 17C 157.448 17 157 16.5523 157 16L 155 16C 155 17.6569 156.343 19 158 19L 158 17ZM 2 45L 27 45L 27 43L 2 43L 2 45ZM 28 46L 28 52L 30 52L 30 46L 28 46ZM 27 53L 2 53L 2 55L 27 55L 27 53ZM 1 52L 1 46L -1 46L -1 52L 1 52ZM 2 43C 0.343146 43 -1 44.3431 -1 46L 1 46C 1 45.4477 1.44772 45 2 45L 2 43ZM 27 45C 27.5523 45 28 45.4477 28 46L 30 46C 30 44.3431 28.6569 43 27 43L 27 45ZM 28 52C 28 52.5523 27.5523 53 27 53L 27 55C 28.6569 55 30 53.6569 30 52L 28 52ZM 2 53C 1.44772 53 1 52.5523 1 52L -1 52C -1 53.6569 0.343146 55 2 55L 2 53ZM 54 57L 126 57L 126 55L 54 55L 54 57ZM 127 58L 127 66L 129 66L 129 58L 127 58ZM 126 67L 54 67L 54 69L 126 69L 126 67ZM 53 66L 53 58L 51 58L 51 66L 53 66ZM 54 55C 52.3431 55 51 56.3431 51 58L 53 58C 53 57.4477 53.4477 57 54 57L 54 55ZM 126 57C 126.552 57 127 57.4477 127 58L 129 58C 129 56.3431 127.657 55 126 55L 126 57ZM 127 66C 127 66.5523 126.552 67 126 67L 126 69C 127.657 69 129 67.6569 129 66L 127 66ZM 54 67C 53.4477 67 53 66.5523 53 66L 51 66C 51 67.6569 52.3431 69 54 69L 54 67ZM 153 45L 178 45L 178 43L 153 43L 153 45ZM 179 46L 179 52L 181 52L 181 46L 179 46ZM 178 53L 153 53L 153 55L 178 55L 178 53ZM 152 52L 152 46L 150 46L 150 52L 152 52ZM 153 43C 151.343 43 150 44.3431 150 46L 152 46C 152 45.4477 152.448 45 153 45L 153 43ZM 178 45C 178.552 45 179 45.4477 179 46L 181 46C 181 44.3431 179.657 43 178 43L 178 45ZM 179 52C 179 52.5523 178.552 53 178 53L 178 55C 179.657 55 181 53.6569 181 52L 179 52ZM 153 53C 152.448 53 152 52.5523 152 52L 150 52C 150 53.6569 151.343 55 153 55L 153 53ZM 2 33L 20 33L 20 31L 2 31L 2 33ZM 21 34L 21 40L 23 40L 23 34L 21 34ZM 20 41L 2 41L 2 43L 20 43L 20 41ZM 1 40L 1 34L -1 34L -1 40L 1 40ZM 2 31C 0.343146 31 -1 32.3431 -1 34L 1 34C 1 33.4477 1.44772 33 2 33L 2 31ZM 20 33C 20.5523 33 21 33.4477 21 34L 23 34C 23 32.3431 21.6569 31 20 31L 20 33ZM 21 40C 21 40.5523 20.5523 41 20 41L 20 43C 21.6569 43 23 41.6569 23 40L 21 40ZM 2 41C 1.44772 41 1 40.5523 1 40L -1 40C -1 41.6569 0.343146 43 2 43L 2 41ZM 23 57L 31 57L 31 55L 23 55L 23 57ZM 32 58L 32 66L 34 66L 34 58L 32 58ZM 31 67L 23 67L 23 69L 31 69L 31 67ZM 22 66L 22 58L 20 58L 20 66L 22 66ZM 23 55C 21.3431 55 20 56.3431 20 58L 22 58C 22 57.4477 22.4477 57 23 57L 23 55ZM 31 57C 31.5523 57 32 57.4477 32 58L 34 58C 34 56.3431 32.6569 55 31 55L 31 57ZM 32 66C 32 66.5523 31.5523 67 31 67L 31 69C 32.6569 69 34 67.6569 34 66L 32 66ZM 23 67C 22.4477 67 22 66.5523 22 66L 20 66C 20 67.6569 21.3431 69 23 69L 23 67ZM 37 57L 48 57L 48 55L 37 55L 37 57ZM 49 58L 49 66L 51 66L 51 58L 49 58ZM 48 67L 37 67L 37 69L 48 69L 48 67ZM 36 66L 36 58L 34 58L 34 66L 36 66ZM 37 55C 35.3431 55 34 56.3431 34 58L 36 58C 36 57.4477 36.4477 57 37 57L 37 55ZM 48 57C 48.5523 57 49 57.4477 49 58L 51 58C 51 56.3431 49.6569 55 48 55L 48 57ZM 49 66C 49 66.5523 48.5523 67 48 67L 48 69C 49.6569 69 51 67.6569 51 66L 49 66ZM 37 67C 36.4477 67 36 66.5523 36 66L 34 66C 34 67.6569 35.3431 69 37 69L 37 67ZM 2 57L 17 57L 17 55L 2 55L 2 57ZM 18 58L 18 66L 20 66L 20 58L 18 58ZM 17 67L 2 67L 2 69L 17 69L 17 67ZM 1 66L 1 58L -1 58L -1 66L 1 66ZM 2 55C 0.343146 55 -1 56.3431 -1 58L 1 58C 1 57.4477 1.44772 57 2 57L 2 55ZM 17 57C 17.5523 57 18 57.4477 18 58L 20 58C 20 56.3431 18.6569 55 17 55L 17 57ZM 18 66C 18 66.5523 17.5523 67 17 67L 17 69C 18.6569 69 20 67.6569 20 66L 18 66ZM 2 67C 1.44772 67 1 66.5523 1 66L -1 66C -1 67.6569 0.343146 69 2 69L 2 67ZM 157 55L 149 55L 149 57L 157 57L 157 55ZM 146 58L 146 66L 148 66L 148 58L 146 58ZM 149 69L 157 69L 157 67L 149 67L 149 69ZM 160 66L 160 58L 158 58L 158 66L 160 66ZM 157 57C 157.552 57 158 57.4477 158 58L 160 58C 160 56.3431 158.657 55 157 55L 157 57ZM 149 55C 147.343 55 146 56.3431 146 58L 148 58C 148 57.4477 148.448 57 149 57L 149 55ZM 146 66C 146 67.6569 147.343 69 149 69L 149 67C 148.448 67 148 66.5523 148 66L 146 66ZM 157 69C 158.657 69 160 67.6569 160 66L 158 66C 158 66.5523 157.552 67 157 67L 157 69ZM 143 55L 132 55L 132 57L 143 57L 143 55ZM 129 58L 129 66L 131 66L 131 58L 129 58ZM 132 69L 143 69L 143 67L 132 67L 132 69ZM 146 66L 146 58L 144 58L 144 66L 146 66ZM 143 57C 143.552 57 144 57.4477 144 58L 146 58C 146 56.3431 144.657 55 143 55L 143 57ZM 132 55C 130.343 55 129 56.3431 129 58L 131 58C 131 57.4477 131.448 57 132 57L 132 55ZM 129 66C 129 67.6569 130.343 69 132 69L 132 67C 131.448 67 131 66.5523 131 66L 129 66ZM 143 69C 144.657 69 146 67.6569 146 66L 144 66C 144 66.5523 143.552 67 143 67L 143 69ZM 178 55L 163 55L 163 57L 178 57L 178 55ZM 160 58L 160 66L 162 66L 162 58L 160 58ZM 163 69L 178 69L 178 67L 163 67L 163 69ZM 181 66L 181 58L 179 58L 179 66L 181 66ZM 178 57C 178.552 57 179 57.4477 179 58L 181 58C 181 56.3431 179.657 55 178 55L 178 57ZM 163 55C 161.343 55 160 56.3431 160 58L 162 58C 162 57.4477 162.448 57 163 57L 163 55ZM 160 66C 160 67.6569 161.343 69 163 69L 163 67C 162.448 67 162 66.5523 162 66L 160 66ZM 178 69C 179.657 69 181 67.6569 181 66L 179 66C 179 66.5523 178.552 67 178 67L 178 69Z"/>
</defs>
</svg>
