<svg width="272" height="74" viewBox="0 0 272 74" version="1.1" xmlns="http://www.w3.org/2000/svg" xmlns:xlink="http://www.w3.org/1999/xlink">
<title>Generic-PC-t</title>
<desc>Created using Figma</desc>
<g id="Canvas" transform="translate(4649 -233)">
<g id="Generic-PC-t">
<mask id="mask0_outline_ins">
<use xlink:href="#path0_fill" fill="white" transform="translate(-4649 233)"/>
<use xlink:href="#path1_fill" fill="white" transform="translate(-4649 233)"/>
<use xlink:href="#path2_fill" fill="white" transform="translate(-4649 233)"/>
<use xlink:href="#path3_fill" fill="white" transform="translate(-4649 233)"/>
<use xlink:href="#path4_fill" fill="white" transform="translate(-4649 233)"/>
<use xlink:href="#path5_fill" fill="white" transform="translate(-4649 233)"/>
<use xlink:href="#path6_fill" fill="white" transform="translate(-4649 233)"/>
<use xlink:href="#path7_fill" fill="white" transform="translate(-4649 233)"/>
<use xlink:href="#path8_fill" fill="white" transform="translate(-4649 233)"/>
<use xlink:href="#path9_fill" fill="white" transform="translate(-4649 233)"/>
<use xlink:href="#path10_fill" fill="white" transform="translate(-4649 233)"/>
<use xlink:href="#path11_fill" fill="white" transform="translate(-4649 233)"/>
<use xlink:href="#path12_fill" fill="white" transform="translate(-4649 233)"/>
<use xlink:href="#path13_fill" fill="white" transform="translate(-4649 233)"/>
<use xlink:href="#path14_fill" fill="white" transform="translate(-4649 233)"/>
<use xlink:href="#path15_fill" fill="white" transform="translate(-4649 233)"/>
<use xlink:href="#path16_fill" fill="white" transform="translate(-4649 233)"/>
<use xlink:href="#path17_fill" fill="white" transform="translate(-4649 233)"/>
<use xlink:href="#path18_fill" fill="white" transform="translate(-4649 233)"/>
<use xlink:href="#path19_fill" fill="white" transform="translate(-4649 233)"/>
<use xlink:href="#path20_fill" fill="white" transform="translate(-4649 233)"/>
<use xlink:href="#path21_fill" fill="white" transform="translate(-4649 233)"/>
<use xlink:href="#path22_fill" fill="white" transform="translate(-4649 233)"/>
<use xlink:href="#path23_fill" fill="white" transform="translate(-4649 233)"/>
<use xlink:href="#path24_fill" fill="white" transform="translate(-4649 233)"/>
<use xlink:href="#path25_fill" fill="white" transform="translate(-4649 233)"/>
<use xlink:href="#path26_fill" fill="white" transform="translate(-4649 233)"/>
<use xlink:href="#path27_fill" fill="white" transform="translate(-4649 233)"/>
<use xlink:href="#path28_fill" fill="white" transform="translate(-4649 233)"/>
<use xlink:href="#path29_fill" fill="white" transform="translate(-4649 233)"/>
<use xlink:href="#path30_fill" fill="white" transform="translate(-4649 233)"/>
<use xlink:href="#path31_fill" fill="white" transform="translate(-4649 233)"/>
<use xlink:href="#path32_fill" fill="white" transform="translate(-4649 233)"/>
<use xlink:href="#path33_fill" fill="white" transform="translate(-4649 233)"/>
<use xlink:href="#path34_fill" fill="white" transform="translate(-4649 233)"/>
<use xlink:href="#path35_fill" fill="white" transform="translate(-4649 233)"/>
<use xlink:href="#path36_fill" fill="white" transform="translate(-4649 233)"/>
<use xlink:href="#path37_fill" fill="white" transform="translate(-4649 233)"/>
<use xlink:href="#path38_fill" fill="white" transform="translate(-4649 233)"/>
<use xlink:href="#path39_fill" fill="white" transform="translate(-4649 233)"/>
<use xlink:href="#path40_fill" fill="white" transform="translate(-4649 233)"/>
<use xlink:href="#path41_fill" fill="white" transform="translate(-4649 233)"/>
<use xlink:href="#path42_fill" fill="white" transform="translate(-4649 233)"/>
<use xlink:href="#path43_fill" fill="white" transform="translate(-4649 233)"/>
<use xlink:href="#path44_fill" fill="white" transform="translate(-4649 233)"/>
<use xlink:href="#path45_fill" fill="white" transform="translate(-4649 233)"/>
<use xlink:href="#path46_fill" fill="white" transform="translate(-4649 233)"/>
<use xlink:href="#path47_fill" fill="white" transform="translate(-4649 233)"/>
<use xlink:href="#path48_fill" fill="white" transform="translate(-4649 233)"/>
<use xlink:href="#path49_fill" fill="white" transform="translate(-4649 233)"/>
<use xlink:href="#path50_fill" fill="white" transform="translate(-4649 233)"/>
<use xlink:href="#path51_fill" fill="white" transform="translate(-4649 233)"/>
<use xlink:href="#path52_fill" fill="white" transform="translate(-4649 233)"/>
<use xlink:href="#path53_fill" fill="white" transform="translate(-4649 233)"/>
<use xlink:href="#path54_fill" fill="white" transform="translate(-4649 233)"/>
<use xlink:href="#path55_fill" fill="white" transform="translate(-4649 233)"/>
<use xlink:href="#path56_fill" fill="white" transform="translate(-4649 233)"/>
<use xlink:href="#path57_fill" fill="white" transform="translate(-4649 233)"/>
<use xlink:href="#path58_fill" fill="white" transform="translate(-4649 233)"/>
<use xlink:href="#path59_fill" fill="white" transform="translate(-4649 233)"/>
<use xlink:href="#path60_fill" fill="white" transform="translate(-4649 233)"/>
<use xlink:href="#path61_fill" fill="white" transform="translate(-4649 233)"/>
<use xlink:href="#path62_fill" fill="white" transform="translate(-4649 233)"/>
<use xlink:href="#path63_fill" fill="white" transform="translate(-4649 233)"/>
<use xlink:href="#path64_fill" fill="white" transform="translate(-4649 233)"/>
<use xlink:href="#path65_fill" fill="white" transform="translate(-4649 233)"/>
<use xlink:href="#path66_fill" fill="white" transform="translate(-4649 233)"/>
<use xlink:href="#path67_fill" fill="white" transform="translate(-4649 233)"/>
<use xlink:href="#path68_fill" fill="white" transform="translate(-4649 233)"/>
<use xlink:href="#path69_fill" fill="white" transform="translate(-4649 233)"/>
<use xlink:href="#path70_fill" fill="white" transform="translate(-4649 233)"/>
<use xlink:href="#path71_fill" fill="white" transform="translate(-4649 233)"/>
<use xlink:href="#path72_fill" fill="white" transform="translate(-4649 233)"/>
<use xlink:href="#path73_fill" fill="white" transform="translate(-4649 233)"/>
<use xlink:href="#path74_fill" fill="white" transform="translate(-4649 233)"/>
<use xlink:href="#path75_fill" fill="white" transform="translate(-4649 233)"/>
<use xlink:href="#path76_fill" fill="white" transform="translate(-4649 233)"/>
<use xlink:href="#path77_fill" fill="white" transform="translate(-4649 233)"/>
<use xlink:href="#path78_fill" fill="white" transform="translate(-4649 233)"/>
<use xlink:href="#path79_fill" fill="white" transform="translate(-4649 233)"/>
<use xlink:href="#path80_fill" fill="white" transform="translate(-4649 233)"/>
<use xlink:href="#path81_fill" fill="white" transform="translate(-4649 233)"/>
<use xlink:href="#path82_fill" fill="white" transform="translate(-4649 233)"/>
<use xlink:href="#path83_fill" fill="white" transform="translate(-4649 233)"/>
<use xlink:href="#path84_fill" fill="white" transform="translate(-4649 233)"/>
<use xlink:href="#path85_fill" fill="white" transform="translate(-4649 233)"/>
<use xlink:href="#path86_fill" fill="white" transform="translate(-4649 233)"/>
<use xlink:href="#path87_fill" fill="white" transform="translate(-4649 233)"/>
<use xlink:href="#path88_fill" fill="white" transform="translate(-4649 233)"/>
<use xlink:href="#path89_fill" fill="white" transform="translate(-4649 233)"/>
<use xlink:href="#path90_fill" fill="white" transform="translate(-4649 233)"/>
<use xlink:href="#path91_fill" fill="white" transform="translate(-4649 233)"/>
<use xlink:href="#path92_fill" fill="white" transform="translate(-4649 233)"/>
<use xlink:href="#path93_fill" fill="white" transform="translate(-4649 233)"/>
<use xlink:href="#path94_fill" fill="white" transform="translate(-4649 233)"/>
<use xlink:href="#path95_fill" fill="white" transform="translate(-4649 233)"/>
<use xlink:href="#path96_fill" fill="white" transform="translate(-4649 233)"/>
<use xlink:href="#path97_fill" fill="white" transform="translate(-4649 233)"/>
<use xlink:href="#path98_fill" fill="white" transform="translate(-4649 233)"/>
<use xlink:href="#path99_fill" fill="white" transform="translate(-4649 233)"/>
<use xlink:href="#path100_fill" fill="white" transform="translate(-4649 233)"/>
<use xlink:href="#path101_fill" fill="white" transform="translate(-4649 233)"/>
<use xlink:href="#path102_fill" fill="white" transform="translate(-4649 233)"/>
<use xlink:href="#path103_fill" fill="white" transform="translate(-4649 233)"/>
<use xlink:href="#path104_fill" fill="white" transform="translate(-4649 233)"/>
<use xlink:href="#path105_fill" fill="white" transform="translate(-4649 233)"/>
<use xlink:href="#path106_fill" fill="white" transform="translate(-4649 233)"/>
</mask>
<g mask="url(#mask0_outline_ins)">
<use xlink:href="#path107_stroke_2x" transform="translate(-4649 233)" fill="#FFFFFF"/>
</g>
</g>
</g>
<defs>
<path id="path0_fill" d="M 0 16C 0 14.8954 0.89543 14 2 14L 8 14C 9.10457 14 10 14.8954 10 16L 10 22C 10 23.1046 9.10457 24 8 24L 2 24C 0.89543 24 0 23.1046 0 22L 0 16Z"/>
<path id="path1_fill" d="M 0 2C 0 0.89543 0.89543 0 2 0L 8 0C 9.10457 0 10 0.89543 10 2L 10 8C 10 9.10457 9.10457 10 8 10L 2 10C 0.89543 10 0 9.10457 0 8L 0 2Z"/>
<path id="path2_fill" d="M 21 2C 21 0.89543 21.8954 0 23 0L 29 0C 30.1046 0 31 0.89543 31 2L 31 8C 31 9.10457 30.1046 10 29 10L 23 10C 21.8954 10 21 9.10457 21 8L 21 2Z"/>
<path id="path3_fill" d="M 33 2C 33 0.89543 33.8954 0 35 0L 41 0C 42.1046 0 43 0.89543 43 2L 43 8C 43 9.10457 42.1046 10 41 10L 35 10C 33.8954 10 33 9.10457 33 8L 33 2Z"/>
<path id="path4_fill" d="M 45 2C 45 0.89543 45.8954 0 47 0L 53 0C 54.1046 0 55 0.89543 55 2L 55 8C 55 9.10457 54.1046 10 53 10L 47 10C 45.8954 10 45 9.10457 45 8L 45 2Z"/>
<path id="path5_fill" d="M 57 2C 57 0.89543 57.8954 0 59 0L 65 0C 66.1046 0 67 0.89543 67 2L 67 8C 67 9.10457 66.1046 10 65 10L 59 10C 57.8954 10 57 9.10457 57 8L 57 2Z"/>
<path id="path6_fill" d="M 77 2C 77 0.89543 77.8954 0 79 0L 85 0C 86.1046 0 87 0.89543 87 2L 87 8C 87 9.10457 86.1046 10 85 10L 79 10C 77.8954 10 77 9.10457 77 8L 77 2Z"/>
<path id="path7_fill" d="M 89 2C 89 0.89543 89.8954 0 91 0L 97 0C 98.1046 0 99 0.89543 99 2L 99 8C 99 9.10457 98.1046 10 97 10L 91 10C 89.8954 10 89 9.10457 89 8L 89 2Z"/>
<path id="path8_fill" d="M 101 2C 101 0.89543 101.895 0 103 0L 109 0C 110.105 0 111 0.89543 111 2L 111 8C 111 9.10457 110.105 10 109 10L 103 10C 101.895 10 101 9.10457 101 8L 101 2Z"/>
<path id="path9_fill" d="M 113 2C 113 0.89543 113.895 0 115 0L 121 0C 122.105 0 123 0.89543 123 2L 123 8C 123 9.10457 122.105 10 121 10L 115 10C 113.895 10 113 9.10457 113 8L 113 2Z"/>
<path id="path10_fill" d="M 134 2C 134 0.89543 134.895 0 136 0L 142 0C 143.105 0 144 0.89543 144 2L 144 8C 144 9.10457 143.105 10 142 10L 136 10C 134.895 10 134 9.10457 134 8L 134 2Z"/>
<path id="path11_fill" d="M 146 2C 146 0.89543 146.895 0 148 0L 154 0C 155.105 0 156 0.89543 156 2L 156 8C 156 9.10457 155.105 10 154 10L 148 10C 146.895 10 146 9.10457 146 8L 146 2Z"/>
<path id="path12_fill" d="M 158 2C 158 0.89543 158.895 0 160 0L 166 0C 167.105 0 168 0.89543 168 2L 168 8C 168 9.10457 167.105 10 166 10L 160 10C 158.895 10 158 9.10457 158 8L 158 2Z"/>
<path id="path13_fill" d="M 170 2C 170 0.89543 170.895 0 172 0L 178 0C 179.105 0 180 0.89543 180 2L 180 8C 180 9.10457 179.105 10 178 10L 172 10C 170.895 10 170 9.10457 170 8L 170 2Z"/>
<path id="path14_fill" d="M 0 28C 0 26.8954 0.89543 26 2 26L 15 26C 16.1046 26 17 26.8954 17 28L 17 34C 17 35.1046 16.1046 36 15 36L 2 36C 0.89543 36 0 35.1046 0 34L 0 28Z"/>
<path id="path15_fill" d="M 12 16C 12 14.8954 12.8954 14 14 14L 20 14C 21.1046 14 22 14.8954 22 16L 22 22C 22 23.1046 21.1046 24 20 24L 14 24C 12.8954 24 12 23.1046 12 22L 12 16Z"/>
<path id="path16_fill" d="M 19 28C 19 26.8954 19.8954 26 21 26L 27 26C 28.1046 26 29 26.8954 29 28L 29 34C 29 35.1046 28.1046 36 27 36L 21 36C 19.8954 36 19 35.1046 19 34L 19 28Z"/>
<path id="path17_fill" d="M 24 40C 24 38.8954 24.8954 38 26 38L 32 38C 33.1046 38 34 38.8954 34 40L 34 46C 34 47.1046 33.1046 48 32 48L 26 48C 24.8954 48 24 47.1046 24 46L 24 40Z"/>
<path id="path18_fill" d="M 36 40C 36 38.8954 36.8954 38 38 38L 44 38C 45.1046 38 46 38.8954 46 40L 46 46C 46 47.1046 45.1046 48 44 48L 38 48C 36.8954 48 36 47.1046 36 46L 36 40Z"/>
<path id="path19_fill" d="M 48 40C 48 38.8954 48.8954 38 50 38L 56 38C 57.1046 38 58 38.8954 58 40L 58 46C 58 47.1046 57.1046 48 56 48L 50 48C 48.8954 48 48 47.1046 48 46L 48 40Z"/>
<path id="path20_fill" d="M 60 40C 60 38.8954 60.8954 38 62 38L 68 38C 69.1046 38 70 38.8954 70 40L 70 46C 70 47.1046 69.1046 48 68 48L 62 48C 60.8954 48 60 47.1046 60 46L 60 40Z"/>
<path id="path21_fill" d="M 72 40C 72 38.8954 72.8954 38 74 38L 80 38C 81.1046 38 82 38.8954 82 40L 82 46C 82 47.1046 81.1046 48 80 48L 74 48C 72.8954 48 72 47.1046 72 46L 72 40Z"/>
<path id="path22_fill" d="M 84 40C 84 38.8954 84.8954 38 86 38L 92 38C 93.1046 38 94 38.8954 94 40L 94 46C 94 47.1046 93.1046 48 92 48L 86 48C 84.8954 48 84 47.1046 84 46L 84 40Z"/>
<path id="path23_fill" d="M 96 40C 96 38.8954 96.8954 38 98 38L 104 38C 105.105 38 106 38.8954 106 40L 106 46C 106 47.1046 105.105 48 104 48L 98 48C 96.8954 48 96 47.1046 96 46L 96 40Z"/>
<path id="path24_fill" d="M 108 40C 108 38.8954 108.895 38 110 38L 116 38C 117.105 38 118 38.8954 118 40L 118 46C 118 47.1046 117.105 48 116 48L 110 48C 108.895 48 108 47.1046 108 46L 108 40Z"/>
<path id="path25_fill" d="M 120 40C 120 38.8954 120.895 38 122 38L 128 38C 129.105 38 130 38.8954 130 40L 130 46C 130 47.1046 129.105 48 128 48L 122 48C 120.895 48 120 47.1046 120 46L 120 40Z"/>
<path id="path26_fill" d="M 132 40C 132 38.8954 132.895 38 134 38L 140 38C 141.105 38 142 38.8954 142 40L 142 46C 142 47.1046 141.105 48 140 48L 134 48C 132.895 48 132 47.1046 132 46L 132 40Z"/>
<path id="path27_fill" d="M 144 40C 144 38.8954 144.895 38 146 38L 152 38C 153.105 38 154 38.8954 154 40L 154 46C 154 47.1046 153.105 48 152 48L 146 48C 144.895 48 144 47.1046 144 46L 144 40Z"/>
<path id="path28_fill" d="M 31 52C 31 50.8954 31.8954 50 33 50L 39 50C 40.1046 50 41 50.8954 41 52L 41 58C 41 59.1046 40.1046 60 39 60L 33 60C 31.8954 60 31 59.1046 31 58L 31 52Z"/>
<path id="path29_fill" d="M 43 52C 43 50.8954 43.8954 50 45 50L 51 50C 52.1046 50 53 50.8954 53 52L 53 58C 53 59.1046 52.1046 60 51 60L 45 60C 43.8954 60 43 59.1046 43 58L 43 52Z"/>
<path id="path30_fill" d="M 55 52C 55 50.8954 55.8954 50 57 50L 63 50C 64.1046 50 65 50.8954 65 52L 65 58C 65 59.1046 64.1046 60 63 60L 57 60C 55.8954 60 55 59.1046 55 58L 55 52Z"/>
<path id="path31_fill" d="M 67 52C 67 50.8954 67.8954 50 69 50L 75 50C 76.1046 50 77 50.8954 77 52L 77 58C 77 59.1046 76.1046 60 75 60L 69 60C 67.8954 60 67 59.1046 67 58L 67 52Z"/>
<path id="path32_fill" d="M 79 52C 79 50.8954 79.8954 50 81 50L 87 50C 88.1046 50 89 50.8954 89 52L 89 58C 89 59.1046 88.1046 60 87 60L 81 60C 79.8954 60 79 59.1046 79 58L 79 52Z"/>
<path id="path33_fill" d="M 91 52C 91 50.8954 91.8954 50 93 50L 99 50C 100.105 50 101 50.8954 101 52L 101 58C 101 59.1046 100.105 60 99 60L 93 60C 91.8954 60 91 59.1046 91 58L 91 52Z"/>
<path id="path34_fill" d="M 103 52C 103 50.8954 103.895 50 105 50L 111 50C 112.105 50 113 50.8954 113 52L 113 58C 113 59.1046 112.105 60 111 60L 105 60C 103.895 60 103 59.1046 103 58L 103 52Z"/>
<path id="path35_fill" d="M 115 52C 115 50.8954 115.895 50 117 50L 123 50C 124.105 50 125 50.8954 125 52L 125 58C 125 59.1046 124.105 60 123 60L 117 60C 115.895 60 115 59.1046 115 58L 115 52Z"/>
<path id="path36_fill" d="M 127 52C 127 50.8954 127.895 50 129 50L 135 50C 136.105 50 137 50.8954 137 52L 137 58C 137 59.1046 136.105 60 135 60L 129 60C 127.895 60 127 59.1046 127 58L 127 52Z"/>
<path id="path37_fill" d="M 139 52C 139 50.8954 139.895 50 141 50L 147 50C 148.105 50 149 50.8954 149 52L 149 58C 149 59.1046 148.105 60 147 60L 141 60C 139.895 60 139 59.1046 139 58L 139 52Z"/>
<path id="path38_fill" d="M 186 66C 186 64.8954 186.895 64 188 64L 194 64C 195.105 64 196 64.8954 196 66L 196 72C 196 73.1046 195.105 74 194 74L 188 74C 186.895 74 186 73.1046 186 72L 186 66Z"/>
<path id="path39_fill" d="M 198 66C 198 64.8954 198.895 64 200 64L 206 64C 207.105 64 208 64.8954 208 66L 208 72C 208 73.1046 207.105 74 206 74L 200 74C 198.895 74 198 73.1046 198 72L 198 66Z"/>
<path id="path40_fill" d="M 198 54C 198 52.8954 198.895 52 200 52L 206 52C 207.105 52 208 52.8954 208 54L 208 60C 208 61.1046 207.105 62 206 62L 200 62C 198.895 62 198 61.1046 198 60L 198 54Z"/>
<path id="path41_fill" d="M 210 66C 210 64.8954 210.895 64 212 64L 218 64C 219.105 64 220 64.8954 220 66L 220 72C 220 73.1046 219.105 74 218 74L 212 74C 210.895 74 210 73.1046 210 72L 210 66Z"/>
<path id="path42_fill" d="M 156 40C 156 38.8954 156.895 38 158 38L 178 38C 179.105 38 180 38.8954 180 40L 180 46C 180 47.1046 179.105 48 178 48L 158 48C 156.895 48 156 47.1046 156 46L 156 40Z"/>
<path id="path43_fill" d="M 31 28C 31 26.8954 31.8954 26 33 26L 39 26C 40.1046 26 41 26.8954 41 28L 41 34C 41 35.1046 40.1046 36 39 36L 33 36C 31.8954 36 31 35.1046 31 34L 31 28Z"/>
<path id="path44_fill" d="M 43 28C 43 26.8954 43.8954 26 45 26L 51 26C 52.1046 26 53 26.8954 53 28L 53 34C 53 35.1046 52.1046 36 51 36L 45 36C 43.8954 36 43 35.1046 43 34L 43 28Z"/>
<path id="path45_fill" d="M 55 28C 55 26.8954 55.8954 26 57 26L 63 26C 64.1046 26 65 26.8954 65 28L 65 34C 65 35.1046 64.1046 36 63 36L 57 36C 55.8954 36 55 35.1046 55 34L 55 28Z"/>
<path id="path46_fill" d="M 67 28C 67 26.8954 67.8954 26 69 26L 75 26C 76.1046 26 77 26.8954 77 28L 77 34C 77 35.1046 76.1046 36 75 36L 69 36C 67.8954 36 67 35.1046 67 34L 67 28Z"/>
<path id="path47_fill" d="M 79 28C 79 26.8954 79.8954 26 81 26L 87 26C 88.1046 26 89 26.8954 89 28L 89 34C 89 35.1046 88.1046 36 87 36L 81 36C 79.8954 36 79 35.1046 79 34L 79 28Z"/>
<path id="path48_fill" d="M 91 28C 91 26.8954 91.8954 26 93 26L 99 26C 100.105 26 101 26.8954 101 28L 101 34C 101 35.1046 100.105 36 99 36L 93 36C 91.8954 36 91 35.1046 91 34L 91 28Z"/>
<path id="path49_fill" d="M 103 28C 103 26.8954 103.895 26 105 26L 111 26C 112.105 26 113 26.8954 113 28L 113 34C 113 35.1046 112.105 36 111 36L 105 36C 103.895 36 103 35.1046 103 34L 103 28Z"/>
<path id="path50_fill" d="M 115 28C 115 26.8954 115.895 26 117 26L 123 26C 124.105 26 125 26.8954 125 28L 125 34C 125 35.1046 124.105 36 123 36L 117 36C 115.895 36 115 35.1046 115 34L 115 28Z"/>
<path id="path51_fill" d="M 127 28C 127 26.8954 127.895 26 129 26L 135 26C 136.105 26 137 26.8954 137 28L 137 34C 137 35.1046 136.105 36 135 36L 129 36C 127.895 36 127 35.1046 127 34L 127 28Z"/>
<path id="path52_fill" d="M 139 28C 139 26.8954 139.895 26 141 26L 147 26C 148.105 26 149 26.8954 149 28L 149 34C 149 35.1046 148.105 36 147 36L 141 36C 139.895 36 139 35.1046 139 34L 139 28Z"/>
<path id="path53_fill" d="M 151 28C 151 26.8954 151.895 26 153 26L 159 26C 160.105 26 161 26.8954 161 28L 161 34C 161 35.1046 160.105 36 159 36L 153 36C 151.895 36 151 35.1046 151 34L 151 28Z"/>
<path id="path54_fill" d="M 163 28C 163 26.8954 163.895 26 165 26L 178 26C 179.105 26 180 26.8954 180 28L 180 34C 180 35.1046 179.105 36 178 36L 165 36C 163.895 36 163 35.1046 163 34L 163 28Z"/>
<path id="path55_fill" d="M 186 16C 186 14.8954 186.895 14 188 14L 194 14C 195.105 14 196 14.8954 196 16L 196 22C 196 23.1046 195.105 24 194 24L 188 24C 186.895 24 186 23.1046 186 22L 186 16Z"/>
<path id="path56_fill" d="M 198 16C 198 14.8954 198.895 14 200 14L 206 14C 207.105 14 208 14.8954 208 16L 208 22C 208 23.1046 207.105 24 206 24L 200 24C 198.895 24 198 23.1046 198 22L 198 16Z"/>
<path id="path57_fill" d="M 210 16C 210 14.8954 210.895 14 212 14L 218 14C 219.105 14 220 14.8954 220 16L 220 22C 220 23.1046 219.105 24 218 24L 212 24C 210.895 24 210 23.1046 210 22L 210 16Z"/>
<path id="path58_fill" d="M 186 2C 186 0.89543 186.895 0 188 0L 194 0C 195.105 0 196 0.89543 196 2L 196 8C 196 9.10457 195.105 10 194 10L 188 10C 186.895 10 186 9.10457 186 8L 186 2Z"/>
<path id="path59_fill" d="M 198 2C 198 0.89543 198.895 0 200 0L 206 0C 207.105 0 208 0.89543 208 2L 208 8C 208 9.10457 207.105 10 206 10L 200 10C 198.895 10 198 9.10457 198 8L 198 2Z"/>
<path id="path60_fill" d="M 210 2C 210 0.89543 210.895 0 212 0L 218 0C 219.105 0 220 0.89543 220 2L 220 8C 220 9.10457 219.105 10 218 10L 212 10C 210.895 10 210 9.10457 210 8L 210 2Z"/>
<path id="path61_fill" d="M 226 16C 226 14.8954 226.895 14 228 14L 234 14C 235.105 14 236 14.8954 236 16L 236 22C 236 23.1046 235.105 24 234 24L 228 24C 226.895 24 226 23.1046 226 22L 226 16Z"/>
<path id="path62_fill" d="M 226 28C 226 26.8954 226.895 26 228 26L 234 26C 235.105 26 236 26.8954 236 28L 236 34C 236 35.1046 235.105 36 234 36L 228 36C 226.895 36 226 35.1046 226 34L 226 28Z"/>
<path id="path63_fill" d="M 226 40C 226 38.8954 226.895 38 228 38L 234 38C 235.105 38 236 38.8954 236 40L 236 46C 236 47.1046 235.105 48 234 48L 228 48C 226.895 48 226 47.1046 226 46L 226 40Z"/>
<path id="path64_fill" d="M 226 52C 226 50.8954 226.895 50 228 50L 234 50C 235.105 50 236 50.8954 236 52L 236 58C 236 59.1046 235.105 60 234 60L 228 60C 226.895 60 226 59.1046 226 58L 226 52Z"/>
<path id="path65_fill" d="M 238 28C 238 26.8954 238.895 26 240 26L 246 26C 247.105 26 248 26.8954 248 28L 248 34C 248 35.1046 247.105 36 246 36L 240 36C 238.895 36 238 35.1046 238 34L 238 28Z"/>
<path id="path66_fill" d="M 238 40C 238 38.8954 238.895 38 240 38L 246 38C 247.105 38 248 38.8954 248 40L 248 46C 248 47.1046 247.105 48 246 48L 240 48C 238.895 48 238 47.1046 238 46L 238 40Z"/>
<path id="path67_fill" d="M 238 52C 238 50.8954 238.895 50 240 50L 246 50C 247.105 50 248 50.8954 248 52L 248 58C 248 59.1046 247.105 60 246 60L 240 60C 238.895 60 238 59.1046 238 58L 238 52Z"/>
<path id="path68_fill" d="M 250 28C 250 26.8954 250.895 26 252 26L 258 26C 259.105 26 260 26.8954 260 28L 260 34C 260 35.1046 259.105 36 258 36L 252 36C 250.895 36 250 35.1046 250 34L 250 28Z"/>
<path id="path69_fill" d="M 250 40C 250 38.8954 250.895 38 252 38L 258 38C 259.105 38 260 38.8954 260 40L 260 46C 260 47.1046 259.105 48 258 48L 252 48C 250.895 48 250 47.1046 250 46L 250 40Z"/>
<path id="path70_fill" d="M 262 28C 262 26.8954 262.895 26 264 26L 270 26C 271.105 26 272 26.8954 272 28L 272 34C 272 35.1046 271.105 36 270 36L 264 36C 262.895 36 262 35.1046 262 34L 262 28Z"/>
<path id="path71_fill" d="M 238 16C 238 14.8954 238.895 14 240 14L 246 14C 247.105 14 248 14.8954 248 16L 248 22C 248 23.1046 247.105 24 246 24L 240 24C 238.895 24 238 23.1046 238 22L 238 16Z"/>
<path id="path72_fill" d="M 250 16C 250 14.8954 250.895 14 252 14L 258 14C 259.105 14 260 14.8954 260 16L 260 22C 260 23.1046 259.105 24 258 24L 252 24C 250.895 24 250 23.1046 250 22L 250 16Z"/>
<path id="path73_fill" d="M 262 16C 262 14.8954 262.895 14 264 14L 270 14C 271.105 14 272 14.8954 272 16L 272 22C 272 23.1046 271.105 24 270 24L 264 24C 262.895 24 262 23.1046 262 22L 262 16Z"/>
<path id="path74_fill" d="M 262 40C 262 38.8954 262.895 38 264 38L 270 38C 271.105 38 272 38.8954 272 40L 272 46C 272 47.1046 271.105 48 270 48L 264 48C 262.895 48 262 47.1046 262 46L 262 40Z"/>
<path id="path75_fill" d="M 250 52C 250 50.8954 250.895 50 252 50L 258 50C 259.105 50 260 50.8954 260 52L 260 58C 260 59.1046 259.105 60 258 60L 252 60C 250.895 60 250 59.1046 250 58L 250 52Z"/>
<path id="path76_fill" d="M 250 64C 250 62.8954 250.895 62 252 62L 258 62C 259.105 62 260 62.8954 260 64L 260 72C 260 73.1046 259.105 74 258 74L 252 74C 250.895 74 250 73.1046 250 72L 250 64Z"/>
<path id="path77_fill" d="M 262 52C 262 50.8954 262.895 50 264 50L 270 50C 271.105 50 272 50.8954 272 52L 272 72C 272 73.1046 271.105 74 270 74L 264 74C 262.895 74 262 73.1046 262 72L 262 52Z"/>
<path id="path78_fill" d="M 226 64C 226 62.8954 226.895 62 228 62L 246 62C 247.105 62 248 62.8954 248 64L 248 72C 248 73.1046 247.105 74 246 74L 228 74C 226.895 74 226 73.1046 226 72L 226 64Z"/>
<path id="path79_fill" d="M 186 28C 186 26.8954 186.895 26 188 26L 194 26C 195.105 26 196 26.8954 196 28L 196 34C 196 35.1046 195.105 36 194 36L 188 36C 186.895 36 186 35.1046 186 34L 186 28Z"/>
<path id="path80_fill" d="M 198 28C 198 26.8954 198.895 26 200 26L 206 26C 207.105 26 208 26.8954 208 28L 208 34C 208 35.1046 207.105 36 206 36L 200 36C 198.895 36 198 35.1046 198 34L 198 28Z"/>
<path id="path81_fill" d="M 210 28C 210 26.8954 210.895 26 212 26L 218 26C 219.105 26 220 26.8954 220 28L 220 34C 220 35.1046 219.105 36 218 36L 212 36C 210.895 36 210 35.1046 210 34L 210 28Z"/>
<path id="path82_fill" d="M 24 16C 24 14.8954 24.8954 14 26 14L 32 14C 33.1046 14 34 14.8954 34 16L 34 22C 34 23.1046 33.1046 24 32 24L 26 24C 24.8954 24 24 23.1046 24 22L 24 16Z"/>
<path id="path83_fill" d="M 36 16C 36 14.8954 36.8954 14 38 14L 44 14C 45.1046 14 46 14.8954 46 16L 46 22C 46 23.1046 45.1046 24 44 24L 38 24C 36.8954 24 36 23.1046 36 22L 36 16Z"/>
<path id="path84_fill" d="M 48 16C 48 14.8954 48.8954 14 50 14L 56 14C 57.1046 14 58 14.8954 58 16L 58 22C 58 23.1046 57.1046 24 56 24L 50 24C 48.8954 24 48 23.1046 48 22L 48 16Z"/>
<path id="path85_fill" d="M 60 16C 60 14.8954 60.8954 14 62 14L 68 14C 69.1046 14 70 14.8954 70 16L 70 22C 70 23.1046 69.1046 24 68 24L 62 24C 60.8954 24 60 23.1046 60 22L 60 16Z"/>
<path id="path86_fill" d="M 72 16C 72 14.8954 72.8954 14 74 14L 80 14C 81.1046 14 82 14.8954 82 16L 82 22C 82 23.1046 81.1046 24 80 24L 74 24C 72.8954 24 72 23.1046 72 22L 72 16Z"/>
<path id="path87_fill" d="M 84 16C 84 14.8954 84.8954 14 86 14L 92 14C 93.1046 14 94 14.8954 94 16L 94 22C 94 23.1046 93.1046 24 92 24L 86 24C 84.8954 24 84 23.1046 84 22L 84 16Z"/>
<path id="path88_fill" d="M 96 16C 96 14.8954 96.8954 14 98 14L 104 14C 105.105 14 106 14.8954 106 16L 106 22C 106 23.1046 105.105 24 104 24L 98 24C 96.8954 24 96 23.1046 96 22L 96 16Z"/>
<path id="path89_fill" d="M 108 16C 108 14.8954 108.895 14 110 14L 116 14C 117.105 14 118 14.8954 118 16L 118 22C 118 23.1046 117.105 24 116 24L 110 24C 108.895 24 108 23.1046 108 22L 108 16Z"/>
<path id="path90_fill" d="M 120 16C 120 14.8954 120.895 14 122 14L 128 14C 129.105 14 130 14.8954 130 16L 130 22C 130 23.1046 129.105 24 128 24L 122 24C 120.895 24 120 23.1046 120 22L 120 16Z"/>
<path id="path91_fill" d="M 132 16C 132 14.8954 132.895 14 134 14L 140 14C 141.105 14 142 14.8954 142 16L 142 22C 142 23.1046 141.105 24 140 24L 134 24C 132.895 24 132 23.1046 132 22L 132 16Z"/>
<path id="path92_fill" d="M 144 16C 144 14.8954 144.895 14 146 14L 152 14C 153.105 14 154 14.8954 154 16L 154 22C 154 23.1046 153.105 24 152 24L 146 24C 144.895 24 144 23.1046 144 22L 144 16Z"/>
<path id="path93_fill" d="M 156 16C 156 14.8954 156.895 14 158 14L 178 14C 179.105 14 180 14.8954 180 16L 180 22C 180 23.1046 179.105 24 178 24L 158 24C 156.895 24 156 23.1046 156 22L 156 16Z"/>
<path id="path94_fill" d="M 0 52C 0 50.8954 0.89543 50 2 50L 27 50C 28.1046 50 29 50.8954 29 52L 29 58C 29 59.1046 28.1046 60 27 60L 2 60C 0.89543 60 0 59.1046 0 58L 0 52Z"/>
<path id="path95_fill" d="M 52 64C 52 62.8954 52.8954 62 54 62L 126 62C 127.105 62 128 62.8954 128 64L 128 72C 128 73.1046 127.105 74 126 74L 54 74C 52.8954 74 52 73.1046 52 72L 52 64Z"/>
<path id="path96_fill" d="M 151 52C 151 50.8954 151.895 50 153 50L 178 50C 179.105 50 180 50.8954 180 52L 180 58C 180 59.1046 179.105 60 178 60L 153 60C 151.895 60 151 59.1046 151 58L 151 52Z"/>
<path id="path97_fill" d="M 0 40C 0 38.8954 0.89543 38 2 38L 20 38C 21.1046 38 22 38.8954 22 40L 22 46C 22 47.1046 21.1046 48 20 48L 2 48C 0.89543 48 0 47.1046 0 46L 0 40Z"/>
<path id="path98_fill" d="M 21 64C 21 62.8954 21.8954 62 23 62L 31 62C 32.1046 62 33 62.8954 33 64L 33 72C 33 73.1046 32.1046 74 31 74L 23 74C 21.8954 74 21 73.1046 21 72L 21 64Z"/>
<path id="path99_fill" d="M 35 64C 35 62.8954 35.8954 62 37 62L 48 62C 49.1046 62 50 62.8954 50 64L 50 72C 50 73.1046 49.1046 74 48 74L 37 74C 35.8954 74 35 73.1046 35 72L 35 64Z"/>
<path id="path100_fill" d="M 0 64C 0 62.8954 0.89543 62 2 62L 17 62C 18.1046 62 19 62.8954 19 64L 19 72C 19 73.1046 18.1046 74 17 74L 2 74C 0.89543 74 0 73.1046 0 72L 0 64Z"/>
<path id="path101_fill" d="M 159 64C 159 62.8954 158.105 62 157 62L 149 62C 147.895 62 147 62.8954 147 64L 147 72C 147 73.1046 147.895 74 149 74L 157 74C 158.105 74 159 73.1046 159 72L 159 64Z"/>
<path id="path102_fill" d="M 145 64C 145 62.8954 144.105 62 143 62L 132 62C 130.895 62 130 62.8954 130 64L 130 72C 130 73.1046 130.895 74 132 74L 143 74C 144.105 74 145 73.1046 145 72L 145 64Z"/>
<path id="path103_fill" d="M 180 64C 180 62.8954 179.105 62 178 62L 163 62C 161.895 62 161 62.8954 161 64L 161 72C 161 73.1046 161.895 74 163 74L 178 74C 179.105 74 180 73.1046 180 72L 180 64Z"/>
<path id="path104_fill" d="M 241 4C 241 3.44772 241.448 3 242 3L 244 3C 244.552 3 245 3.44772 245 4C 245 4.55228 244.552 5 244 5L 242 5C 241.448 5 241 4.55228 241 4Z"/>
<path id="path105_fill" d="M 248 4C 248 3.44772 248.448 3 249 3L 251 3C 251.552 3 252 3.44772 252 4C 252 4.55228 251.552 5 251 5L 249 5C 248.448 5 248 4.55228 248 4Z"/>
<path id="path106_fill" d="M 255 4C 255 3.44772 255.448 3 256 3L 258 3C 258.552 3 259 3.44772 259 4C 259 4.55228 258.552 5 258 5L 256 5C 255.448 5 255 4.55228 255 4Z"/>
<path id="path107_stroke_2x" d="M 2 15L 8 15L 8 13L 2 13L 2 15ZM 9 16L 9 22L 11 22L 11 16L 9 16ZM 8 23L 2 23L 2 25L 8 25L 8 23ZM 1 22L 1 16L -1 16L -1 22L 1 22ZM 2 13C 0.343146 13 -1 14.3431 -1 16L 1 16C 1 15.4477 1.44772 15 2 15L 2 13ZM 8 15C 8.55228 15 9 15.4477 9 16L 11 16C 11 14.3431 9.65685 13 8 13L 8 15ZM 9 22C 9 22.5523 8.55228 23 8 23L 8 25C 9.65685 25 11 23.6569 11 22L 9 22ZM 2 23C 1.44772 23 1 22.5523 1 22L -1 22C -1 23.6569 0.343146 25 2 25L 2 23ZM 2 1L 8 1L 8 -1L 2 -1L 2 1ZM 9 2L 9 8L 11 8L 11 2L 9 2ZM 8 9L 2 9L 2 11L 8 11L 8 9ZM 1 8L 1 2L -1 2L -1 8L 1 8ZM 2 -1C 0.343146 -1 -1 0.343146 -1 2L 1 2C 1 1.44772 1.44772 1 2 1L 2 -1ZM 8 1C 8.55228 1 9 1.44772 9 2L 11 2C 11 0.343146 9.65685 -1 8 -1L 8 1ZM 9 8C 9 8.55228 8.55228 9 8 9L 8 11C 9.65685 11 11 9.65685 11 8L 9 8ZM 2 9C 1.44772 9 1 8.55228 1 8L -1 8C -1 9.65685 0.343146 11 2 11L 2 9ZM 23 1L 29 1L 29 -1L 23 -1L 23 1ZM 30 2L 30 8L 32 8L 32 2L 30 2ZM 29 9L 23 9L 23 11L 29 11L 29 9ZM 22 8L 22 2L 20 2L 20 8L 22 8ZM 23 -1C 21.3431 -1 20 0.343146 20 2L 22 2C 22 1.44772 22.4477 1 23 1L 23 -1ZM 29 1C 29.5523 1 30 1.44772 30 2L 32 2C 32 0.343146 30.6569 -1 29 -1L 29 1ZM 30 8C 30 8.55228 29.5523 9 29 9L 29 11C 30.6569 11 32 9.65685 32 8L 30 8ZM 23 9C 22.4477 9 22 8.55228 22 8L 20 8C 20 9.65685 21.3431 11 23 11L 23 9ZM 35 1L 41 1L 41 -1L 35 -1L 35 1ZM 42 2L 42 8L 44 8L 44 2L 42 2ZM 41 9L 35 9L 35 11L 41 11L 41 9ZM 34 8L 34 2L 32 2L 32 8L 34 8ZM 35 -1C 33.3431 -1 32 0.343146 32 2L 34 2C 34 1.44772 34.4477 1 35 1L 35 -1ZM 41 1C 41.5523 1 42 1.44772 42 2L 44 2C 44 0.343146 42.6569 -1 41 -1L 41 1ZM 42 8C 42 8.55228 41.5523 9 41 9L 41 11C 42.6569 11 44 9.65685 44 8L 42 8ZM 35 9C 34.4477 9 34 8.55228 34 8L 32 8C 32 9.65685 33.3431 11 35 11L 35 9ZM 47 1L 53 1L 53 -1L 47 -1L 47 1ZM 54 2L 54 8L 56 8L 56 2L 54 2ZM 53 9L 47 9L 47 11L 53 11L 53 9ZM 46 8L 46 2L 44 2L 44 8L 46 8ZM 47 -1C 45.3431 -1 44 0.343146 44 2L 46 2C 46 1.44772 46.4477 1 47 1L 47 -1ZM 53 1C 53.5523 1 54 1.44772 54 2L 56 2C 56 0.343146 54.6569 -1 53 -1L 53 1ZM 54 8C 54 8.55228 53.5523 9 53 9L 53 11C 54.6569 11 56 9.65685 56 8L 54 8ZM 47 9C 46.4477 9 46 8.55228 46 8L 44 8C 44 9.65685 45.3431 11 47 11L 47 9ZM 59 1L 65 1L 65 -1L 59 -1L 59 1ZM 66 2L 66 8L 68 8L 68 2L 66 2ZM 65 9L 59 9L 59 11L 65 11L 65 9ZM 58 8L 58 2L 56 2L 56 8L 58 8ZM 59 -1C 57.3431 -1 56 0.343146 56 2L 58 2C 58 1.44772 58.4477 1 59 1L 59 -1ZM 65 1C 65.5523 1 66 1.44772 66 2L 68 2C 68 0.343146 66.6569 -1 65 -1L 65 1ZM 66 8C 66 8.55228 65.5523 9 65 9L 65 11C 66.6569 11 68 9.65685 68 8L 66 8ZM 59 9C 58.4477 9 58 8.55228 58 8L 56 8C 56 9.65685 57.3431 11 59 11L 59 9ZM 79 1L 85 1L 85 -1L 79 -1L 79 1ZM 86 2L 86 8L 88 8L 88 2L 86 2ZM 85 9L 79 9L 79 11L 85 11L 85 9ZM 78 8L 78 2L 76 2L 76 8L 78 8ZM 79 -1C 77.3431 -1 76 0.343146 76 2L 78 2C 78 1.44772 78.4477 1 79 1L 79 -1ZM 85 1C 85.5523 1 86 1.44772 86 2L 88 2C 88 0.343146 86.6569 -1 85 -1L 85 1ZM 86 8C 86 8.55228 85.5523 9 85 9L 85 11C 86.6569 11 88 9.65685 88 8L 86 8ZM 79 9C 78.4477 9 78 8.55228 78 8L 76 8C 76 9.65685 77.3431 11 79 11L 79 9ZM 91 1L 97 1L 97 -1L 91 -1L 91 1ZM 98 2L 98 8L 100 8L 100 2L 98 2ZM 97 9L 91 9L 91 11L 97 11L 97 9ZM 90 8L 90 2L 88 2L 88 8L 90 8ZM 91 -1C 89.3431 -1 88 0.343146 88 2L 90 2C 90 1.44772 90.4477 1 91 1L 91 -1ZM 97 1C 97.5523 1 98 1.44772 98 2L 100 2C 100 0.343146 98.6569 -1 97 -1L 97 1ZM 98 8C 98 8.55228 97.5523 9 97 9L 97 11C 98.6569 11 100 9.65685 100 8L 98 8ZM 91 9C 90.4477 9 90 8.55228 90 8L 88 8C 88 9.65685 89.3431 11 91 11L 91 9ZM 103 1L 109 1L 109 -1L 103 -1L 103 1ZM 110 2L 110 8L 112 8L 112 2L 110 2ZM 109 9L 103 9L 103 11L 109 11L 109 9ZM 102 8L 102 2L 100 2L 100 8L 102 8ZM 103 -1C 101.343 -1 100 0.343146 100 2L 102 2C 102 1.44772 102.448 1 103 1L 103 -1ZM 109 1C 109.552 1 110 1.44772 110 2L 112 2C 112 0.343146 110.657 -1 109 -1L 109 1ZM 110 8C 110 8.55228 109.552 9 109 9L 109 11C 110.657 11 112 9.65685 112 8L 110 8ZM 103 9C 102.448 9 102 8.55228 102 8L 100 8C 100 9.65685 101.343 11 103 11L 103 9ZM 115 1L 121 1L 121 -1L 115 -1L 115 1ZM 122 2L 122 8L 124 8L 124 2L 122 2ZM 121 9L 115 9L 115 11L 121 11L 121 9ZM 114 8L 114 2L 112 2L 112 8L 114 8ZM 115 -1C 113.343 -1 112 0.343146 112 2L 114 2C 114 1.44772 114.448 1 115 1L 115 -1ZM 121 1C 121.552 1 122 1.44772 122 2L 124 2C 124 0.343146 122.657 -1 121 -1L 121 1ZM 122 8C 122 8.55228 121.552 9 121 9L 121 11C 122.657 11 124 9.65685 124 8L 122 8ZM 115 9C 114.448 9 114 8.55228 114 8L 112 8C 112 9.65685 113.343 11 115 11L 115 9ZM 136 1L 142 1L 142 -1L 136 -1L 136 1ZM 143 2L 143 8L 145 8L 145 2L 143 2ZM 142 9L 136 9L 136 11L 142 11L 142 9ZM 135 8L 135 2L 133 2L 133 8L 135 8ZM 136 -1C 134.343 -1 133 0.343146 133 2L 135 2C 135 1.44772 135.448 1 136 1L 136 -1ZM 142 1C 142.552 1 143 1.44772 143 2L 145 2C 145 0.343146 143.657 -1 142 -1L 142 1ZM 143 8C 143 8.55228 142.552 9 142 9L 142 11C 143.657 11 145 9.65685 145 8L 143 8ZM 136 9C 135.448 9 135 8.55228 135 8L 133 8C 133 9.65685 134.343 11 136 11L 136 9ZM 148 1L 154 1L 154 -1L 148 -1L 148 1ZM 155 2L 155 8L 157 8L 157 2L 155 2ZM 154 9L 148 9L 148 11L 154 11L 154 9ZM 147 8L 147 2L 145 2L 145 8L 147 8ZM 148 -1C 146.343 -1 145 0.343146 145 2L 147 2C 147 1.44772 147.448 1 148 1L 148 -1ZM 154 1C 154.552 1 155 1.44772 155 2L 157 2C 157 0.343146 155.657 -1 154 -1L 154 1ZM 155 8C 155 8.55228 154.552 9 154 9L 154 11C 155.657 11 157 9.65685 157 8L 155 8ZM 148 9C 147.448 9 147 8.55228 147 8L 145 8C 145 9.65685 146.343 11 148 11L 148 9ZM 160 1L 166 1L 166 -1L 160 -1L 160 1ZM 167 2L 167 8L 169 8L 169 2L 167 2ZM 166 9L 160 9L 160 11L 166 11L 166 9ZM 159 8L 159 2L 157 2L 157 8L 159 8ZM 160 -1C 158.343 -1 157 0.343146 157 2L 159 2C 159 1.44772 159.448 1 160 1L 160 -1ZM 166 1C 166.552 1 167 1.44772 167 2L 169 2C 169 0.343146 167.657 -1 166 -1L 166 1ZM 167 8C 167 8.55228 166.552 9 166 9L 166 11C 167.657 11 169 9.65685 169 8L 167 8ZM 160 9C 159.448 9 159 8.55228 159 8L 157 8C 157 9.65685 158.343 11 160 11L 160 9ZM 172 1L 178 1L 178 -1L 172 -1L 172 1ZM 179 2L 179 8L 181 8L 181 2L 179 2ZM 178 9L 172 9L 172 11L 178 11L 178 9ZM 171 8L 171 2L 169 2L 169 8L 171 8ZM 172 -1C 170.343 -1 169 0.343146 169 2L 171 2C 171 1.44772 171.448 1 172 1L 172 -1ZM 178 1C 178.552 1 179 1.44772 179 2L 181 2C 181 0.343146 179.657 -1 178 -1L 178 1ZM 179 8C 179 8.55228 178.552 9 178 9L 178 11C 179.657 11 181 9.65685 181 8L 179 8ZM 172 9C 171.448 9 171 8.55228 171 8L 169 8C 169 9.65685 170.343 11 172 11L 172 9ZM 2 27L 15 27L 15 25L 2 25L 2 27ZM 16 28L 16 34L 18 34L 18 28L 16 28ZM 15 35L 2 35L 2 37L 15 37L 15 35ZM 1 34L 1 28L -1 28L -1 34L 1 34ZM 2 25C 0.343146 25 -1 26.3431 -1 28L 1 28C 1 27.4477 1.44772 27 2 27L 2 25ZM 15 27C 15.5523 27 16 27.4477 16 28L 18 28C 18 26.3431 16.6569 25 15 25L 15 27ZM 16 34C 16 34.5523 15.5523 35 15 35L 15 37C 16.6569 37 18 35.6569 18 34L 16 34ZM 2 35C 1.44772 35 1 34.5523 1 34L -1 34C -1 35.6569 0.343146 37 2 37L 2 35ZM 14 15L 20 15L 20 13L 14 13L 14 15ZM 21 16L 21 22L 23 22L 23 16L 21 16ZM 20 23L 14 23L 14 25L 20 25L 20 23ZM 13 22L 13 16L 11 16L 11 22L 13 22ZM 14 13C 12.3431 13 11 14.3431 11 16L 13 16C 13 15.4477 13.4477 15 14 15L 14 13ZM 20 15C 20.5523 15 21 15.4477 21 16L 23 16C 23 14.3431 21.6569 13 20 13L 20 15ZM 21 22C 21 22.5523 20.5523 23 20 23L 20 25C 21.6569 25 23 23.6569 23 22L 21 22ZM 14 23C 13.4477 23 13 22.5523 13 22L 11 22C 11 23.6569 12.3431 25 14 25L 14 23ZM 21 27L 27 27L 27 25L 21 25L 21 27ZM 28 28L 28 34L 30 34L 30 28L 28 28ZM 27 35L 21 35L 21 37L 27 37L 27 35ZM 20 34L 20 28L 18 28L 18 34L 20 34ZM 21 25C 19.3431 25 18 26.3431 18 28L 20 28C 20 27.4477 20.4477 27 21 27L 21 25ZM 27 27C 27.5523 27 28 27.4477 28 28L 30 28C 30 26.3431 28.6569 25 27 25L 27 27ZM 28 34C 28 34.5523 27.5523 35 27 35L 27 37C 28.6569 37 30 35.6569 30 34L 28 34ZM 21 35C 20.4477 35 20 34.5523 20 34L 18 34C 18 35.6569 19.3431 37 21 37L 21 35ZM 26 39L 32 39L 32 37L 26 37L 26 39ZM 33 40L 33 46L 35 46L 35 40L 33 40ZM 32 47L 26 47L 26 49L 32 49L 32 47ZM 25 46L 25 40L 23 40L 23 46L 25 46ZM 26 37C 24.3431 37 23 38.3431 23 40L 25 40C 25 39.4477 25.4477 39 26 39L 26 37ZM 32 39C 32.5523 39 33 39.4477 33 40L 35 40C 35 38.3431 33.6569 37 32 37L 32 39ZM 33 46C 33 46.5523 32.5523 47 32 47L 32 49C 33.6569 49 35 47.6569 35 46L 33 46ZM 26 47C 25.4477 47 25 46.5523 25 46L 23 46C 23 47.6569 24.3431 49 26 49L 26 47ZM 38 39L 44 39L 44 37L 38 37L 38 39ZM 45 40L 45 46L 47 46L 47 40L 45 40ZM 44 47L 38 47L 38 49L 44 49L 44 47ZM 37 46L 37 40L 35 40L 35 46L 37 46ZM 38 37C 36.3431 37 35 38.3431 35 40L 37 40C 37 39.4477 37.4477 39 38 39L 38 37ZM 44 39C 44.5523 39 45 39.4477 45 40L 47 40C 47 38.3431 45.6569 37 44 37L 44 39ZM 45 46C 45 46.5523 44.5523 47 44 47L 44 49C 45.6569 49 47 47.6569 47 46L 45 46ZM 38 47C 37.4477 47 37 46.5523 37 46L 35 46C 35 47.6569 36.3431 49 38 49L 38 47ZM 50 39L 56 39L 56 37L 50 37L 50 39ZM 57 40L 57 46L 59 46L 59 40L 57 40ZM 56 47L 50 47L 50 49L 56 49L 56 47ZM 49 46L 49 40L 47 40L 47 46L 49 46ZM 50 37C 48.3431 37 47 38.3431 47 40L 49 40C 49 39.4477 49.4477 39 50 39L 50 37ZM 56 39C 56.5523 39 57 39.4477 57 40L 59 40C 59 38.3431 57.6569 37 56 37L 56 39ZM 57 46C 57 46.5523 56.5523 47 56 47L 56 49C 57.6569 49 59 47.6569 59 46L 57 46ZM 50 47C 49.4477 47 49 46.5523 49 46L 47 46C 47 47.6569 48.3431 49 50 49L 50 47ZM 62 39L 68 39L 68 37L 62 37L 62 39ZM 69 40L 69 46L 71 46L 71 40L 69 40ZM 68 47L 62 47L 62 49L 68 49L 68 47ZM 61 46L 61 40L 59 40L 59 46L 61 46ZM 62 37C 60.3431 37 59 38.3431 59 40L 61 40C 61 39.4477 61.4477 39 62 39L 62 37ZM 68 39C 68.5523 39 69 39.4477 69 40L 71 40C 71 38.3431 69.6569 37 68 37L 68 39ZM 69 46C 69 46.5523 68.5523 47 68 47L 68 49C 69.6569 49 71 47.6569 71 46L 69 46ZM 62 47C 61.4477 47 61 46.5523 61 46L 59 46C 59 47.6569 60.3431 49 62 49L 62 47ZM 74 39L 80 39L 80 37L 74 37L 74 39ZM 81 40L 81 46L 83 46L 83 40L 81 40ZM 80 47L 74 47L 74 49L 80 49L 80 47ZM 73 46L 73 40L 71 40L 71 46L 73 46ZM 74 37C 72.3431 37 71 38.3431 71 40L 73 40C 73 39.4477 73.4477 39 74 39L 74 37ZM 80 39C 80.5523 39 81 39.4477 81 40L 83 40C 83 38.3431 81.6569 37 80 37L 80 39ZM 81 46C 81 46.5523 80.5523 47 80 47L 80 49C 81.6569 49 83 47.6569 83 46L 81 46ZM 74 47C 73.4477 47 73 46.5523 73 46L 71 46C 71 47.6569 72.3431 49 74 49L 74 47ZM 86 39L 92 39L 92 37L 86 37L 86 39ZM 93 40L 93 46L 95 46L 95 40L 93 40ZM 92 47L 86 47L 86 49L 92 49L 92 47ZM 85 46L 85 40L 83 40L 83 46L 85 46ZM 86 37C 84.3431 37 83 38.3431 83 40L 85 40C 85 39.4477 85.4477 39 86 39L 86 37ZM 92 39C 92.5523 39 93 39.4477 93 40L 95 40C 95 38.3431 93.6569 37 92 37L 92 39ZM 93 46C 93 46.5523 92.5523 47 92 47L 92 49C 93.6569 49 95 47.6569 95 46L 93 46ZM 86 47C 85.4477 47 85 46.5523 85 46L 83 46C 83 47.6569 84.3431 49 86 49L 86 47ZM 98 39L 104 39L 104 37L 98 37L 98 39ZM 105 40L 105 46L 107 46L 107 40L 105 40ZM 104 47L 98 47L 98 49L 104 49L 104 47ZM 97 46L 97 40L 95 40L 95 46L 97 46ZM 98 37C 96.3431 37 95 38.3431 95 40L 97 40C 97 39.4477 97.4477 39 98 39L 98 37ZM 104 39C 104.552 39 105 39.4477 105 40L 107 40C 107 38.3431 105.657 37 104 37L 104 39ZM 105 46C 105 46.5523 104.552 47 104 47L 104 49C 105.657 49 107 47.6569 107 46L 105 46ZM 98 47C 97.4477 47 97 46.5523 97 46L 95 46C 95 47.6569 96.3431 49 98 49L 98 47ZM 110 39L 116 39L 116 37L 110 37L 110 39ZM 117 40L 117 46L 119 46L 119 40L 117 40ZM 116 47L 110 47L 110 49L 116 49L 116 47ZM 109 46L 109 40L 107 40L 107 46L 109 46ZM 110 37C 108.343 37 107 38.3431 107 40L 109 40C 109 39.4477 109.448 39 110 39L 110 37ZM 116 39C 116.552 39 117 39.4477 117 40L 119 40C 119 38.3431 117.657 37 116 37L 116 39ZM 117 46C 117 46.5523 116.552 47 116 47L 116 49C 117.657 49 119 47.6569 119 46L 117 46ZM 110 47C 109.448 47 109 46.5523 109 46L 107 46C 107 47.6569 108.343 49 110 49L 110 47ZM 122 39L 128 39L 128 37L 122 37L 122 39ZM 129 40L 129 46L 131 46L 131 40L 129 40ZM 128 47L 122 47L 122 49L 128 49L 128 47ZM 121 46L 121 40L 119 40L 119 46L 121 46ZM 122 37C 120.343 37 119 38.3431 119 40L 121 40C 121 39.4477 121.448 39 122 39L 122 37ZM 128 39C 128.552 39 129 39.4477 129 40L 131 40C 131 38.3431 129.657 37 128 37L 128 39ZM 129 46C 129 46.5523 128.552 47 128 47L 128 49C 129.657 49 131 47.6569 131 46L 129 46ZM 122 47C 121.448 47 121 46.5523 121 46L 119 46C 119 47.6569 120.343 49 122 49L 122 47ZM 134 39L 140 39L 140 37L 134 37L 134 39ZM 141 40L 141 46L 143 46L 143 40L 141 40ZM 140 47L 134 47L 134 49L 140 49L 140 47ZM 133 46L 133 40L 131 40L 131 46L 133 46ZM 134 37C 132.343 37 131 38.3431 131 40L 133 40C 133 39.4477 133.448 39 134 39L 134 37ZM 140 39C 140.552 39 141 39.4477 141 40L 143 40C 143 38.3431 141.657 37 140 37L 140 39ZM 141 46C 141 46.5523 140.552 47 140 47L 140 49C 141.657 49 143 47.6569 143 46L 141 46ZM 134 47C 133.448 47 133 46.5523 133 46L 131 46C 131 47.6569 132.343 49 134 49L 134 47ZM 146 39L 152 39L 152 37L 146 37L 146 39ZM 153 40L 153 46L 155 46L 155 40L 153 40ZM 152 47L 146 47L 146 49L 152 49L 152 47ZM 145 46L 145 40L 143 40L 143 46L 145 46ZM 146 37C 144.343 37 143 38.3431 143 40L 145 40C 145 39.4477 145.448 39 146 39L 146 37ZM 152 39C 152.552 39 153 39.4477 153 40L 155 40C 155 38.3431 153.657 37 152 37L 152 39ZM 153 46C 153 46.5523 152.552 47 152 47L 152 49C 153.657 49 155 47.6569 155 46L 153 46ZM 146 47C 145.448 47 145 46.5523 145 46L 143 46C 143 47.6569 144.343 49 146 49L 146 47ZM 33 51L 39 51L 39 49L 33 49L 33 51ZM 40 52L 40 58L 42 58L 42 52L 40 52ZM 39 59L 33 59L 33 61L 39 61L 39 59ZM 32 58L 32 52L 30 52L 30 58L 32 58ZM 33 49C 31.3431 49 30 50.3431 30 52L 32 52C 32 51.4477 32.4477 51 33 51L 33 49ZM 39 51C 39.5523 51 40 51.4477 40 52L 42 52C 42 50.3431 40.6569 49 39 49L 39 51ZM 40 58C 40 58.5523 39.5523 59 39 59L 39 61C 40.6569 61 42 59.6569 42 58L 40 58ZM 33 59C 32.4477 59 32 58.5523 32 58L 30 58C 30 59.6569 31.3431 61 33 61L 33 59ZM 45 51L 51 51L 51 49L 45 49L 45 51ZM 52 52L 52 58L 54 58L 54 52L 52 52ZM 51 59L 45 59L 45 61L 51 61L 51 59ZM 44 58L 44 52L 42 52L 42 58L 44 58ZM 45 49C 43.3431 49 42 50.3431 42 52L 44 52C 44 51.4477 44.4477 51 45 51L 45 49ZM 51 51C 51.5523 51 52 51.4477 52 52L 54 52C 54 50.3431 52.6569 49 51 49L 51 51ZM 52 58C 52 58.5523 51.5523 59 51 59L 51 61C 52.6569 61 54 59.6569 54 58L 52 58ZM 45 59C 44.4477 59 44 58.5523 44 58L 42 58C 42 59.6569 43.3431 61 45 61L 45 59ZM 57 51L 63 51L 63 49L 57 49L 57 51ZM 64 52L 64 58L 66 58L 66 52L 64 52ZM 63 59L 57 59L 57 61L 63 61L 63 59ZM 56 58L 56 52L 54 52L 54 58L 56 58ZM 57 49C 55.3431 49 54 50.3431 54 52L 56 52C 56 51.4477 56.4477 51 57 51L 57 49ZM 63 51C 63.5523 51 64 51.4477 64 52L 66 52C 66 50.3431 64.6569 49 63 49L 63 51ZM 64 58C 64 58.5523 63.5523 59 63 59L 63 61C 64.6569 61 66 59.6569 66 58L 64 58ZM 57 59C 56.4477 59 56 58.5523 56 58L 54 58C 54 59.6569 55.3431 61 57 61L 57 59ZM 69 51L 75 51L 75 49L 69 49L 69 51ZM 76 52L 76 58L 78 58L 78 52L 76 52ZM 75 59L 69 59L 69 61L 75 61L 75 59ZM 68 58L 68 52L 66 52L 66 58L 68 58ZM 69 49C 67.3431 49 66 50.3431 66 52L 68 52C 68 51.4477 68.4477 51 69 51L 69 49ZM 75 51C 75.5523 51 76 51.4477 76 52L 78 52C 78 50.3431 76.6569 49 75 49L 75 51ZM 76 58C 76 58.5523 75.5523 59 75 59L 75 61C 76.6569 61 78 59.6569 78 58L 76 58ZM 69 59C 68.4477 59 68 58.5523 68 58L 66 58C 66 59.6569 67.3431 61 69 61L 69 59ZM 81 51L 87 51L 87 49L 81 49L 81 51ZM 88 52L 88 58L 90 58L 90 52L 88 52ZM 87 59L 81 59L 81 61L 87 61L 87 59ZM 80 58L 80 52L 78 52L 78 58L 80 58ZM 81 49C 79.3431 49 78 50.3431 78 52L 80 52C 80 51.4477 80.4477 51 81 51L 81 49ZM 87 51C 87.5523 51 88 51.4477 88 52L 90 52C 90 50.3431 88.6569 49 87 49L 87 51ZM 88 58C 88 58.5523 87.5523 59 87 59L 87 61C 88.6569 61 90 59.6569 90 58L 88 58ZM 81 59C 80.4477 59 80 58.5523 80 58L 78 58C 78 59.6569 79.3431 61 81 61L 81 59ZM 93 51L 99 51L 99 49L 93 49L 93 51ZM 100 52L 100 58L 102 58L 102 52L 100 52ZM 99 59L 93 59L 93 61L 99 61L 99 59ZM 92 58L 92 52L 90 52L 90 58L 92 58ZM 93 49C 91.3431 49 90 50.3431 90 52L 92 52C 92 51.4477 92.4477 51 93 51L 93 49ZM 99 51C 99.5523 51 100 51.4477 100 52L 102 52C 102 50.3431 100.657 49 99 49L 99 51ZM 100 58C 100 58.5523 99.5523 59 99 59L 99 61C 100.657 61 102 59.6569 102 58L 100 58ZM 93 59C 92.4477 59 92 58.5523 92 58L 90 58C 90 59.6569 91.3431 61 93 61L 93 59ZM 105 51L 111 51L 111 49L 105 49L 105 51ZM 112 52L 112 58L 114 58L 114 52L 112 52ZM 111 59L 105 59L 105 61L 111 61L 111 59ZM 104 58L 104 52L 102 52L 102 58L 104 58ZM 105 49C 103.343 49 102 50.3431 102 52L 104 52C 104 51.4477 104.448 51 105 51L 105 49ZM 111 51C 111.552 51 112 51.4477 112 52L 114 52C 114 50.3431 112.657 49 111 49L 111 51ZM 112 58C 112 58.5523 111.552 59 111 59L 111 61C 112.657 61 114 59.6569 114 58L 112 58ZM 105 59C 104.448 59 104 58.5523 104 58L 102 58C 102 59.6569 103.343 61 105 61L 105 59ZM 117 51L 123 51L 123 49L 117 49L 117 51ZM 124 52L 124 58L 126 58L 126 52L 124 52ZM 123 59L 117 59L 117 61L 123 61L 123 59ZM 116 58L 116 52L 114 52L 114 58L 116 58ZM 117 49C 115.343 49 114 50.3431 114 52L 116 52C 116 51.4477 116.448 51 117 51L 117 49ZM 123 51C 123.552 51 124 51.4477 124 52L 126 52C 126 50.3431 124.657 49 123 49L 123 51ZM 124 58C 124 58.5523 123.552 59 123 59L 123 61C 124.657 61 126 59.6569 126 58L 124 58ZM 117 59C 116.448 59 116 58.5523 116 58L 114 58C 114 59.6569 115.343 61 117 61L 117 59ZM 129 51L 135 51L 135 49L 129 49L 129 51ZM 136 52L 136 58L 138 58L 138 52L 136 52ZM 135 59L 129 59L 129 61L 135 61L 135 59ZM 128 58L 128 52L 126 52L 126 58L 128 58ZM 129 49C 127.343 49 126 50.3431 126 52L 128 52C 128 51.4477 128.448 51 129 51L 129 49ZM 135 51C 135.552 51 136 51.4477 136 52L 138 52C 138 50.3431 136.657 49 135 49L 135 51ZM 136 58C 136 58.5523 135.552 59 135 59L 135 61C 136.657 61 138 59.6569 138 58L 136 58ZM 129 59C 128.448 59 128 58.5523 128 58L 126 58C 126 59.6569 127.343 61 129 61L 129 59ZM 141 51L 147 51L 147 49L 141 49L 141 51ZM 148 52L 148 58L 150 58L 150 52L 148 52ZM 147 59L 141 59L 141 61L 147 61L 147 59ZM 140 58L 140 52L 138 52L 138 58L 140 58ZM 141 49C 139.343 49 138 50.3431 138 52L 140 52C 140 51.4477 140.448 51 141 51L 141 49ZM 147 51C 147.552 51 148 51.4477 148 52L 150 52C 150 50.3431 148.657 49 147 49L 147 51ZM 148 58C 148 58.5523 147.552 59 147 59L 147 61C 148.657 61 150 59.6569 150 58L 148 58ZM 141 59C 140.448 59 140 58.5523 140 58L 138 58C 138 59.6569 139.343 61 141 61L 141 59ZM 188 65L 194 65L 194 63L 188 63L 188 65ZM 195 66L 195 72L 197 72L 197 66L 195 66ZM 194 73L 188 73L 188 75L 194 75L 194 73ZM 187 72L 187 66L 185 66L 185 72L 187 72ZM 188 63C 186.343 63 185 64.3431 185 66L 187 66C 187 65.4477 187.448 65 188 65L 188 63ZM 194 65C 194.552 65 195 65.4477 195 66L 197 66C 197 64.3431 195.657 63 194 63L 194 65ZM 195 72C 195 72.5523 194.552 73 194 73L 194 75C 195.657 75 197 73.6569 197 72L 195 72ZM 188 73C 187.448 73 187 72.5523 187 72L 185 72C 185 73.6569 186.343 75 188 75L 188 73ZM 200 65L 206 65L 206 63L 200 63L 200 65ZM 207 66L 207 72L 209 72L 209 66L 207 66ZM 206 73L 200 73L 200 75L 206 75L 206 73ZM 199 72L 199 66L 197 66L 197 72L 199 72ZM 200 63C 198.343 63 197 64.3431 197 66L 199 66C 199 65.4477 199.448 65 200 65L 200 63ZM 206 65C 206.552 65 207 65.4477 207 66L 209 66C 209 64.3431 207.657 63 206 63L 206 65ZM 207 72C 207 72.5523 206.552 73 206 73L 206 75C 207.657 75 209 73.6569 209 72L 207 72ZM 200 73C 199.448 73 199 72.5523 199 72L 197 72C 197 73.6569 198.343 75 200 75L 200 73ZM 200 53L 206 53L 206 51L 200 51L 200 53ZM 207 54L 207 60L 209 60L 209 54L 207 54ZM 206 61L 200 61L 200 63L 206 63L 206 61ZM 199 60L 199 54L 197 54L 197 60L 199 60ZM 200 51C 198.343 51 197 52.3431 197 54L 199 54C 199 53.4477 199.448 53 200 53L 200 51ZM 206 53C 206.552 53 207 53.4477 207 54L 209 54C 209 52.3431 207.657 51 206 51L 206 53ZM 207 60C 207 60.5523 206.552 61 206 61L 206 63C 207.657 63 209 61.6569 209 60L 207 60ZM 200 61C 199.448 61 199 60.5523 199 60L 197 60C 197 61.6569 198.343 63 200 63L 200 61ZM 212 65L 218 65L 218 63L 212 63L 212 65ZM 219 66L 219 72L 221 72L 221 66L 219 66ZM 218 73L 212 73L 212 75L 218 75L 218 73ZM 211 72L 211 66L 209 66L 209 72L 211 72ZM 212 63C 210.343 63 209 64.3431 209 66L 211 66C 211 65.4477 211.448 65 212 65L 212 63ZM 218 65C 218.552 65 219 65.4477 219 66L 221 66C 221 64.3431 219.657 63 218 63L 218 65ZM 219 72C 219 72.5523 218.552 73 218 73L 218 75C 219.657 75 221 73.6569 221 72L 219 72ZM 212 73C 211.448 73 211 72.5523 211 72L 209 72C 209 73.6569 210.343 75 212 75L 212 73ZM 158 39L 178 39L 178 37L 158 37L 158 39ZM 179 40L 179 46L 181 46L 181 40L 179 40ZM 178 47L 158 47L 158 49L 178 49L 178 47ZM 157 46L 157 40L 155 40L 155 46L 157 46ZM 158 37C 156.343 37 155 38.3431 155 40L 157 40C 157 39.4477 157.448 39 158 39L 158 37ZM 178 39C 178.552 39 179 39.4477 179 40L 181 40C 181 38.3431 179.657 37 178 37L 178 39ZM 179 46C 179 46.5523 178.552 47 178 47L 178 49C 179.657 49 181 47.6569 181 46L 179 46ZM 158 47C 157.448 47 157 46.5523 157 46L 155 46C 155 47.6569 156.343 49 158 49L 158 47ZM 33 27L 39 27L 39 25L 33 25L 33 27ZM 40 28L 40 34L 42 34L 42 28L 40 28ZM 39 35L 33 35L 33 37L 39 37L 39 35ZM 32 34L 32 28L 30 28L 30 34L 32 34ZM 33 25C 31.3431 25 30 26.3431 30 28L 32 28C 32 27.4477 32.4477 27 33 27L 33 25ZM 39 27C 39.5523 27 40 27.4477 40 28L 42 28C 42 26.3431 40.6569 25 39 25L 39 27ZM 40 34C 40 34.5523 39.5523 35 39 35L 39 37C 40.6569 37 42 35.6569 42 34L 40 34ZM 33 35C 32.4477 35 32 34.5523 32 34L 30 34C 30 35.6569 31.3431 37 33 37L 33 35ZM 45 27L 51 27L 51 25L 45 25L 45 27ZM 52 28L 52 34L 54 34L 54 28L 52 28ZM 51 35L 45 35L 45 37L 51 37L 51 35ZM 44 34L 44 28L 42 28L 42 34L 44 34ZM 45 25C 43.3431 25 42 26.3431 42 28L 44 28C 44 27.4477 44.4477 27 45 27L 45 25ZM 51 27C 51.5523 27 52 27.4477 52 28L 54 28C 54 26.3431 52.6569 25 51 25L 51 27ZM 52 34C 52 34.5523 51.5523 35 51 35L 51 37C 52.6569 37 54 35.6569 54 34L 52 34ZM 45 35C 44.4477 35 44 34.5523 44 34L 42 34C 42 35.6569 43.3431 37 45 37L 45 35ZM 57 27L 63 27L 63 25L 57 25L 57 27ZM 64 28L 64 34L 66 34L 66 28L 64 28ZM 63 35L 57 35L 57 37L 63 37L 63 35ZM 56 34L 56 28L 54 28L 54 34L 56 34ZM 57 25C 55.3431 25 54 26.3431 54 28L 56 28C 56 27.4477 56.4477 27 57 27L 57 25ZM 63 27C 63.5523 27 64 27.4477 64 28L 66 28C 66 26.3431 64.6569 25 63 25L 63 27ZM 64 34C 64 34.5523 63.5523 35 63 35L 63 37C 64.6569 37 66 35.6569 66 34L 64 34ZM 57 35C 56.4477 35 56 34.5523 56 34L 54 34C 54 35.6569 55.3431 37 57 37L 57 35ZM 69 27L 75 27L 75 25L 69 25L 69 27ZM 76 28L 76 34L 78 34L 78 28L 76 28ZM 75 35L 69 35L 69 37L 75 37L 75 35ZM 68 34L 68 28L 66 28L 66 34L 68 34ZM 69 25C 67.3431 25 66 26.3431 66 28L 68 28C 68 27.4477 68.4477 27 69 27L 69 25ZM 75 27C 75.5523 27 76 27.4477 76 28L 78 28C 78 26.3431 76.6569 25 75 25L 75 27ZM 76 34C 76 34.5523 75.5523 35 75 35L 75 37C 76.6569 37 78 35.6569 78 34L 76 34ZM 69 35C 68.4477 35 68 34.5523 68 34L 66 34C 66 35.6569 67.3431 37 69 37L 69 35ZM 81 27L 87 27L 87 25L 81 25L 81 27ZM 88 28L 88 34L 90 34L 90 28L 88 28ZM 87 35L 81 35L 81 37L 87 37L 87 35ZM 80 34L 80 28L 78 28L 78 34L 80 34ZM 81 25C 79.3431 25 78 26.3431 78 28L 80 28C 80 27.4477 80.4477 27 81 27L 81 25ZM 87 27C 87.5523 27 88 27.4477 88 28L 90 28C 90 26.3431 88.6569 25 87 25L 87 27ZM 88 34C 88 34.5523 87.5523 35 87 35L 87 37C 88.6569 37 90 35.6569 90 34L 88 34ZM 81 35C 80.4477 35 80 34.5523 80 34L 78 34C 78 35.6569 79.3431 37 81 37L 81 35ZM 93 27L 99 27L 99 25L 93 25L 93 27ZM 100 28L 100 34L 102 34L 102 28L 100 28ZM 99 35L 93 35L 93 37L 99 37L 99 35ZM 92 34L 92 28L 90 28L 90 34L 92 34ZM 93 25C 91.3431 25 90 26.3431 90 28L 92 28C 92 27.4477 92.4477 27 93 27L 93 25ZM 99 27C 99.5523 27 100 27.4477 100 28L 102 28C 102 26.3431 100.657 25 99 25L 99 27ZM 100 34C 100 34.5523 99.5523 35 99 35L 99 37C 100.657 37 102 35.6569 102 34L 100 34ZM 93 35C 92.4477 35 92 34.5523 92 34L 90 34C 90 35.6569 91.3431 37 93 37L 93 35ZM 105 27L 111 27L 111 25L 105 25L 105 27ZM 112 28L 112 34L 114 34L 114 28L 112 28ZM 111 35L 105 35L 105 37L 111 37L 111 35ZM 104 34L 104 28L 102 28L 102 34L 104 34ZM 105 25C 103.343 25 102 26.3431 102 28L 104 28C 104 27.4477 104.448 27 105 27L 105 25ZM 111 27C 111.552 27 112 27.4477 112 28L 114 28C 114 26.3431 112.657 25 111 25L 111 27ZM 112 34C 112 34.5523 111.552 35 111 35L 111 37C 112.657 37 114 35.6569 114 34L 112 34ZM 105 35C 104.448 35 104 34.5523 104 34L 102 34C 102 35.6569 103.343 37 105 37L 105 35ZM 117 27L 123 27L 123 25L 117 25L 117 27ZM 124 28L 124 34L 126 34L 126 28L 124 28ZM 123 35L 117 35L 117 37L 123 37L 123 35ZM 116 34L 116 28L 114 28L 114 34L 116 34ZM 117 25C 115.343 25 114 26.3431 114 28L 116 28C 116 27.4477 116.448 27 117 27L 117 25ZM 123 27C 123.552 27 124 27.4477 124 28L 126 28C 126 26.3431 124.657 25 123 25L 123 27ZM 124 34C 124 34.5523 123.552 35 123 35L 123 37C 124.657 37 126 35.6569 126 34L 124 34ZM 117 35C 116.448 35 116 34.5523 116 34L 114 34C 114 35.6569 115.343 37 117 37L 117 35ZM 129 27L 135 27L 135 25L 129 25L 129 27ZM 136 28L 136 34L 138 34L 138 28L 136 28ZM 135 35L 129 35L 129 37L 135 37L 135 35ZM 128 34L 128 28L 126 28L 126 34L 128 34ZM 129 25C 127.343 25 126 26.3431 126 28L 128 28C 128 27.4477 128.448 27 129 27L 129 25ZM 135 27C 135.552 27 136 27.4477 136 28L 138 28C 138 26.3431 136.657 25 135 25L 135 27ZM 136 34C 136 34.5523 135.552 35 135 35L 135 37C 136.657 37 138 35.6569 138 34L 136 34ZM 129 35C 128.448 35 128 34.5523 128 34L 126 34C 126 35.6569 127.343 37 129 37L 129 35ZM 141 27L 147 27L 147 25L 141 25L 141 27ZM 148 28L 148 34L 150 34L 150 28L 148 28ZM 147 35L 141 35L 141 37L 147 37L 147 35ZM 140 34L 140 28L 138 28L 138 34L 140 34ZM 141 25C 139.343 25 138 26.3431 138 28L 140 28C 140 27.4477 140.448 27 141 27L 141 25ZM 147 27C 147.552 27 148 27.4477 148 28L 150 28C 150 26.3431 148.657 25 147 25L 147 27ZM 148 34C 148 34.5523 147.552 35 147 35L 147 37C 148.657 37 150 35.6569 150 34L 148 34ZM 141 35C 140.448 35 140 34.5523 140 34L 138 34C 138 35.6569 139.343 37 141 37L 141 35ZM 153 27L 159 27L 159 25L 153 25L 153 27ZM 160 28L 160 34L 162 34L 162 28L 160 28ZM 159 35L 153 35L 153 37L 159 37L 159 35ZM 152 34L 152 28L 150 28L 150 34L 152 34ZM 153 25C 151.343 25 150 26.3431 150 28L 152 28C 152 27.4477 152.448 27 153 27L 153 25ZM 159 27C 159.552 27 160 27.4477 160 28L 162 28C 162 26.3431 160.657 25 159 25L 159 27ZM 160 34C 160 34.5523 159.552 35 159 35L 159 37C 160.657 37 162 35.6569 162 34L 160 34ZM 153 35C 152.448 35 152 34.5523 152 34L 150 34C 150 35.6569 151.343 37 153 37L 153 35ZM 165 27L 178 27L 178 25L 165 25L 165 27ZM 179 28L 179 34L 181 34L 181 28L 179 28ZM 178 35L 165 35L 165 37L 178 37L 178 35ZM 164 34L 164 28L 162 28L 162 34L 164 34ZM 165 25C 163.343 25 162 26.3431 162 28L 164 28C 164 27.4477 164.448 27 165 27L 165 25ZM 178 27C 178.552 27 179 27.4477 179 28L 181 28C 181 26.3431 179.657 25 178 25L 178 27ZM 179 34C 179 34.5523 178.552 35 178 35L 178 37C 179.657 37 181 35.6569 181 34L 179 34ZM 165 35C 164.448 35 164 34.5523 164 34L 162 34C 162 35.6569 163.343 37 165 37L 165 35ZM 188 15L 194 15L 194 13L 188 13L 188 15ZM 195 16L 195 22L 197 22L 197 16L 195 16ZM 194 23L 188 23L 188 25L 194 25L 194 23ZM 187 22L 187 16L 185 16L 185 22L 187 22ZM 188 13C 186.343 13 185 14.3431 185 16L 187 16C 187 15.4477 187.448 15 188 15L 188 13ZM 194 15C 194.552 15 195 15.4477 195 16L 197 16C 197 14.3431 195.657 13 194 13L 194 15ZM 195 22C 195 22.5523 194.552 23 194 23L 194 25C 195.657 25 197 23.6569 197 22L 195 22ZM 188 23C 187.448 23 187 22.5523 187 22L 185 22C 185 23.6569 186.343 25 188 25L 188 23ZM 200 15L 206 15L 206 13L 200 13L 200 15ZM 207 16L 207 22L 209 22L 209 16L 207 16ZM 206 23L 200 23L 200 25L 206 25L 206 23ZM 199 22L 199 16L 197 16L 197 22L 199 22ZM 200 13C 198.343 13 197 14.3431 197 16L 199 16C 199 15.4477 199.448 15 200 15L 200 13ZM 206 15C 206.552 15 207 15.4477 207 16L 209 16C 209 14.3431 207.657 13 206 13L 206 15ZM 207 22C 207 22.5523 206.552 23 206 23L 206 25C 207.657 25 209 23.6569 209 22L 207 22ZM 200 23C 199.448 23 199 22.5523 199 22L 197 22C 197 23.6569 198.343 25 200 25L 200 23ZM 212 15L 218 15L 218 13L 212 13L 212 15ZM 219 16L 219 22L 221 22L 221 16L 219 16ZM 218 23L 212 23L 212 25L 218 25L 218 23ZM 211 22L 211 16L 209 16L 209 22L 211 22ZM 212 13C 210.343 13 209 14.3431 209 16L 211 16C 211 15.4477 211.448 15 212 15L 212 13ZM 218 15C 218.552 15 219 15.4477 219 16L 221 16C 221 14.3431 219.657 13 218 13L 218 15ZM 219 22C 219 22.5523 218.552 23 218 23L 218 25C 219.657 25 221 23.6569 221 22L 219 22ZM 212 23C 211.448 23 211 22.5523 211 22L 209 22C 209 23.6569 210.343 25 212 25L 212 23ZM 188 1L 194 1L 194 -1L 188 -1L 188 1ZM 195 2L 195 8L 197 8L 197 2L 195 2ZM 194 9L 188 9L 188 11L 194 11L 194 9ZM 187 8L 187 2L 185 2L 185 8L 187 8ZM 188 -1C 186.343 -1 185 0.343146 185 2L 187 2C 187 1.44772 187.448 1 188 1L 188 -1ZM 194 1C 194.552 1 195 1.44772 195 2L 197 2C 197 0.343146 195.657 -1 194 -1L 194 1ZM 195 8C 195 8.55228 194.552 9 194 9L 194 11C 195.657 11 197 9.65685 197 8L 195 8ZM 188 9C 187.448 9 187 8.55228 187 8L 185 8C 185 9.65685 186.343 11 188 11L 188 9ZM 200 1L 206 1L 206 -1L 200 -1L 200 1ZM 207 2L 207 8L 209 8L 209 2L 207 2ZM 206 9L 200 9L 200 11L 206 11L 206 9ZM 199 8L 199 2L 197 2L 197 8L 199 8ZM 200 -1C 198.343 -1 197 0.343146 197 2L 199 2C 199 1.44772 199.448 1 200 1L 200 -1ZM 206 1C 206.552 1 207 1.44772 207 2L 209 2C 209 0.343146 207.657 -1 206 -1L 206 1ZM 207 8C 207 8.55228 206.552 9 206 9L 206 11C 207.657 11 209 9.65685 209 8L 207 8ZM 200 9C 199.448 9 199 8.55228 199 8L 197 8C 197 9.65685 198.343 11 200 11L 200 9ZM 212 1L 218 1L 218 -1L 212 -1L 212 1ZM 219 2L 219 8L 221 8L 221 2L 219 2ZM 218 9L 212 9L 212 11L 218 11L 218 9ZM 211 8L 211 2L 209 2L 209 8L 211 8ZM 212 -1C 210.343 -1 209 0.343146 209 2L 211 2C 211 1.44772 211.448 1 212 1L 212 -1ZM 218 1C 218.552 1 219 1.44772 219 2L 221 2C 221 0.343146 219.657 -1 218 -1L 218 1ZM 219 8C 219 8.55228 218.552 9 218 9L 218 11C 219.657 11 221 9.65685 221 8L 219 8ZM 212 9C 211.448 9 211 8.55228 211 8L 209 8C 209 9.65685 210.343 11 212 11L 212 9ZM 228 15L 234 15L 234 13L 228 13L 228 15ZM 235 16L 235 22L 237 22L 237 16L 235 16ZM 234 23L 228 23L 228 25L 234 25L 234 23ZM 227 22L 227 16L 225 16L 225 22L 227 22ZM 228 13C 226.343 13 225 14.3431 225 16L 227 16C 227 15.4477 227.448 15 228 15L 228 13ZM 234 15C 234.552 15 235 15.4477 235 16L 237 16C 237 14.3431 235.657 13 234 13L 234 15ZM 235 22C 235 22.5523 234.552 23 234 23L 234 25C 235.657 25 237 23.6569 237 22L 235 22ZM 228 23C 227.448 23 227 22.5523 227 22L 225 22C 225 23.6569 226.343 25 228 25L 228 23ZM 228 27L 234 27L 234 25L 228 25L 228 27ZM 235 28L 235 34L 237 34L 237 28L 235 28ZM 234 35L 228 35L 228 37L 234 37L 234 35ZM 227 34L 227 28L 225 28L 225 34L 227 34ZM 228 25C 226.343 25 225 26.3431 225 28L 227 28C 227 27.4477 227.448 27 228 27L 228 25ZM 234 27C 234.552 27 235 27.4477 235 28L 237 28C 237 26.3431 235.657 25 234 25L 234 27ZM 235 34C 235 34.5523 234.552 35 234 35L 234 37C 235.657 37 237 35.6569 237 34L 235 34ZM 228 35C 227.448 35 227 34.5523 227 34L 225 34C 225 35.6569 226.343 37 228 37L 228 35ZM 228 39L 234 39L 234 37L 228 37L 228 39ZM 235 40L 235 46L 237 46L 237 40L 235 40ZM 234 47L 228 47L 228 49L 234 49L 234 47ZM 227 46L 227 40L 225 40L 225 46L 227 46ZM 228 37C 226.343 37 225 38.3431 225 40L 227 40C 227 39.4477 227.448 39 228 39L 228 37ZM 234 39C 234.552 39 235 39.4477 235 40L 237 40C 237 38.3431 235.657 37 234 37L 234 39ZM 235 46C 235 46.5523 234.552 47 234 47L 234 49C 235.657 49 237 47.6569 237 46L 235 46ZM 228 47C 227.448 47 227 46.5523 227 46L 225 46C 225 47.6569 226.343 49 228 49L 228 47ZM 228 51L 234 51L 234 49L 228 49L 228 51ZM 235 52L 235 58L 237 58L 237 52L 235 52ZM 234 59L 228 59L 228 61L 234 61L 234 59ZM 227 58L 227 52L 225 52L 225 58L 227 58ZM 228 49C 226.343 49 225 50.3431 225 52L 227 52C 227 51.4477 227.448 51 228 51L 228 49ZM 234 51C 234.552 51 235 51.4477 235 52L 237 52C 237 50.3431 235.657 49 234 49L 234 51ZM 235 58C 235 58.5523 234.552 59 234 59L 234 61C 235.657 61 237 59.6569 237 58L 235 58ZM 228 59C 227.448 59 227 58.5523 227 58L 225 58C 225 59.6569 226.343 61 228 61L 228 59ZM 240 27L 246 27L 246 25L 240 25L 240 27ZM 247 28L 247 34L 249 34L 249 28L 247 28ZM 246 35L 240 35L 240 37L 246 37L 246 35ZM 239 34L 239 28L 237 28L 237 34L 239 34ZM 240 25C 238.343 25 237 26.3431 237 28L 239 28C 239 27.4477 239.448 27 240 27L 240 25ZM 246 27C 246.552 27 247 27.4477 247 28L 249 28C 249 26.3431 247.657 25 246 25L 246 27ZM 247 34C 247 34.5523 246.552 35 246 35L 246 37C 247.657 37 249 35.6569 249 34L 247 34ZM 240 35C 239.448 35 239 34.5523 239 34L 237 34C 237 35.6569 238.343 37 240 37L 240 35ZM 240 39L 246 39L 246 37L 240 37L 240 39ZM 247 40L 247 46L 249 46L 249 40L 247 40ZM 246 47L 240 47L 240 49L 246 49L 246 47ZM 239 46L 239 40L 237 40L 237 46L 239 46ZM 240 37C 238.343 37 237 38.3431 237 40L 239 40C 239 39.4477 239.448 39 240 39L 240 37ZM 246 39C 246.552 39 247 39.4477 247 40L 249 40C 249 38.3431 247.657 37 246 37L 246 39ZM 247 46C 247 46.5523 246.552 47 246 47L 246 49C 247.657 49 249 47.6569 249 46L 247 46ZM 240 47C 239.448 47 239 46.5523 239 46L 237 46C 237 47.6569 238.343 49 240 49L 240 47ZM 240 51L 246 51L 246 49L 240 49L 240 51ZM 247 52L 247 58L 249 58L 249 52L 247 52ZM 246 59L 240 59L 240 61L 246 61L 246 59ZM 239 58L 239 52L 237 52L 237 58L 239 58ZM 240 49C 238.343 49 237 50.3431 237 52L 239 52C 239 51.4477 239.448 51 240 51L 240 49ZM 246 51C 246.552 51 247 51.4477 247 52L 249 52C 249 50.3431 247.657 49 246 49L 246 51ZM 247 58C 247 58.5523 246.552 59 246 59L 246 61C 247.657 61 249 59.6569 249 58L 247 58ZM 240 59C 239.448 59 239 58.5523 239 58L 237 58C 237 59.6569 238.343 61 240 61L 240 59ZM 252 27L 258 27L 258 25L 252 25L 252 27ZM 259 28L 259 34L 261 34L 261 28L 259 28ZM 258 35L 252 35L 252 37L 258 37L 258 35ZM 251 34L 251 28L 249 28L 249 34L 251 34ZM 252 25C 250.343 25 249 26.3431 249 28L 251 28C 251 27.4477 251.448 27 252 27L 252 25ZM 258 27C 258.552 27 259 27.4477 259 28L 261 28C 261 26.3431 259.657 25 258 25L 258 27ZM 259 34C 259 34.5523 258.552 35 258 35L 258 37C 259.657 37 261 35.6569 261 34L 259 34ZM 252 35C 251.448 35 251 34.5523 251 34L 249 34C 249 35.6569 250.343 37 252 37L 252 35ZM 252 39L 258 39L 258 37L 252 37L 252 39ZM 259 40L 259 46L 261 46L 261 40L 259 40ZM 258 47L 252 47L 252 49L 258 49L 258 47ZM 251 46L 251 40L 249 40L 249 46L 251 46ZM 252 37C 250.343 37 249 38.3431 249 40L 251 40C 251 39.4477 251.448 39 252 39L 252 37ZM 258 39C 258.552 39 259 39.4477 259 40L 261 40C 261 38.3431 259.657 37 258 37L 258 39ZM 259 46C 259 46.5523 258.552 47 258 47L 258 49C 259.657 49 261 47.6569 261 46L 259 46ZM 252 47C 251.448 47 251 46.5523 251 46L 249 46C 249 47.6569 250.343 49 252 49L 252 47ZM 264 27L 270 27L 270 25L 264 25L 264 27ZM 271 28L 271 34L 273 34L 273 28L 271 28ZM 270 35L 264 35L 264 37L 270 37L 270 35ZM 263 34L 263 28L 261 28L 261 34L 263 34ZM 264 25C 262.343 25 261 26.3431 261 28L 263 28C 263 27.4477 263.448 27 264 27L 264 25ZM 270 27C 270.552 27 271 27.4477 271 28L 273 28C 273 26.3431 271.657 25 270 25L 270 27ZM 271 34C 271 34.5523 270.552 35 270 35L 270 37C 271.657 37 273 35.6569 273 34L 271 34ZM 264 35C 263.448 35 263 34.5523 263 34L 261 34C 261 35.6569 262.343 37 264 37L 264 35ZM 240 15L 246 15L 246 13L 240 13L 240 15ZM 247 16L 247 22L 249 22L 249 16L 247 16ZM 246 23L 240 23L 240 25L 246 25L 246 23ZM 239 22L 239 16L 237 16L 237 22L 239 22ZM 240 13C 238.343 13 237 14.3431 237 16L 239 16C 239 15.4477 239.448 15 240 15L 240 13ZM 246 15C 246.552 15 247 15.4477 247 16L 249 16C 249 14.3431 247.657 13 246 13L 246 15ZM 247 22C 247 22.5523 246.552 23 246 23L 246 25C 247.657 25 249 23.6569 249 22L 247 22ZM 240 23C 239.448 23 239 22.5523 239 22L 237 22C 237 23.6569 238.343 25 240 25L 240 23ZM 252 15L 258 15L 258 13L 252 13L 252 15ZM 259 16L 259 22L 261 22L 261 16L 259 16ZM 258 23L 252 23L 252 25L 258 25L 258 23ZM 251 22L 251 16L 249 16L 249 22L 251 22ZM 252 13C 250.343 13 249 14.3431 249 16L 251 16C 251 15.4477 251.448 15 252 15L 252 13ZM 258 15C 258.552 15 259 15.4477 259 16L 261 16C 261 14.3431 259.657 13 258 13L 258 15ZM 259 22C 259 22.5523 258.552 23 258 23L 258 25C 259.657 25 261 23.6569 261 22L 259 22ZM 252 23C 251.448 23 251 22.5523 251 22L 249 22C 249 23.6569 250.343 25 252 25L 252 23ZM 264 15L 270 15L 270 13L 264 13L 264 15ZM 271 16L 271 22L 273 22L 273 16L 271 16ZM 270 23L 264 23L 264 25L 270 25L 270 23ZM 263 22L 263 16L 261 16L 261 22L 263 22ZM 264 13C 262.343 13 261 14.3431 261 16L 263 16C 263 15.4477 263.448 15 264 15L 264 13ZM 270 15C 270.552 15 271 15.4477 271 16L 273 16C 273 14.3431 271.657 13 270 13L 270 15ZM 271 22C 271 22.5523 270.552 23 270 23L 270 25C 271.657 25 273 23.6569 273 22L 271 22ZM 264 23C 263.448 23 263 22.5523 263 22L 261 22C 261 23.6569 262.343 25 264 25L 264 23ZM 264 39L 270 39L 270 37L 264 37L 264 39ZM 271 40L 271 46L 273 46L 273 40L 271 40ZM 270 47L 264 47L 264 49L 270 49L 270 47ZM 263 46L 263 40L 261 40L 261 46L 263 46ZM 264 37C 262.343 37 261 38.3431 261 40L 263 40C 263 39.4477 263.448 39 264 39L 264 37ZM 270 39C 270.552 39 271 39.4477 271 40L 273 40C 273 38.3431 271.657 37 270 37L 270 39ZM 271 46C 271 46.5523 270.552 47 270 47L 270 49C 271.657 49 273 47.6569 273 46L 271 46ZM 264 47C 263.448 47 263 46.5523 263 46L 261 46C 261 47.6569 262.343 49 264 49L 264 47ZM 252 51L 258 51L 258 49L 252 49L 252 51ZM 259 52L 259 58L 261 58L 261 52L 259 52ZM 258 59L 252 59L 252 61L 258 61L 258 59ZM 251 58L 251 52L 249 52L 249 58L 251 58ZM 252 49C 250.343 49 249 50.3431 249 52L 251 52C 251 51.4477 251.448 51 252 51L 252 49ZM 258 51C 258.552 51 259 51.4477 259 52L 261 52C 261 50.3431 259.657 49 258 49L 258 51ZM 259 58C 259 58.5523 258.552 59 258 59L 258 61C 259.657 61 261 59.6569 261 58L 259 58ZM 252 59C 251.448 59 251 58.5523 251 58L 249 58C 249 59.6569 250.343 61 252 61L 252 59ZM 252 63L 258 63L 258 61L 252 61L 252 63ZM 259 64L 259 72L 261 72L 261 64L 259 64ZM 258 73L 252 73L 252 75L 258 75L 258 73ZM 251 72L 251 64L 249 64L 249 72L 251 72ZM 252 61C 250.343 61 249 62.3431 249 64L 251 64C 251 63.4477 251.448 63 252 63L 252 61ZM 258 63C 258.552 63 259 63.4477 259 64L 261 64C 261 62.3431 259.657 61 258 61L 258 63ZM 259 72C 259 72.5523 258.552 73 258 73L 258 75C 259.657 75 261 73.6569 261 72L 259 72ZM 252 73C 251.448 73 251 72.5523 251 72L 249 72C 249 73.6569 250.343 75 252 75L 252 73ZM 264 51L 270 51L 270 49L 264 49L 264 51ZM 271 52L 271 72L 273 72L 273 52L 271 52ZM 270 73L 264 73L 264 75L 270 75L 270 73ZM 263 72L 263 52L 261 52L 261 72L 263 72ZM 264 49C 262.343 49 261 50.3431 261 52L 263 52C 263 51.4477 263.448 51 264 51L 264 49ZM 270 51C 270.552 51 271 51.4477 271 52L 273 52C 273 50.3431 271.657 49 270 49L 270 51ZM 271 72C 271 72.5523 270.552 73 270 73L 270 75C 271.657 75 273 73.6569 273 72L 271 72ZM 264 73C 263.448 73 263 72.5523 263 72L 261 72C 261 73.6569 262.343 75 264 75L 264 73ZM 228 63L 246 63L 246 61L 228 61L 228 63ZM 247 64L 247 72L 249 72L 249 64L 247 64ZM 246 73L 228 73L 228 75L 246 75L 246 73ZM 227 72L 227 64L 225 64L 225 72L 227 72ZM 228 61C 226.343 61 225 62.3431 225 64L 227 64C 227 63.4477 227.448 63 228 63L 228 61ZM 246 63C 246.552 63 247 63.4477 247 64L 249 64C 249 62.3431 247.657 61 246 61L 246 63ZM 247 72C 247 72.5523 246.552 73 246 73L 246 75C 247.657 75 249 73.6569 249 72L 247 72ZM 228 73C 227.448 73 227 72.5523 227 72L 225 72C 225 73.6569 226.343 75 228 75L 228 73ZM 188 27L 194 27L 194 25L 188 25L 188 27ZM 195 28L 195 34L 197 34L 197 28L 195 28ZM 194 35L 188 35L 188 37L 194 37L 194 35ZM 187 34L 187 28L 185 28L 185 34L 187 34ZM 188 25C 186.343 25 185 26.3431 185 28L 187 28C 187 27.4477 187.448 27 188 27L 188 25ZM 194 27C 194.552 27 195 27.4477 195 28L 197 28C 197 26.3431 195.657 25 194 25L 194 27ZM 195 34C 195 34.5523 194.552 35 194 35L 194 37C 195.657 37 197 35.6569 197 34L 195 34ZM 188 35C 187.448 35 187 34.5523 187 34L 185 34C 185 35.6569 186.343 37 188 37L 188 35ZM 200 27L 206 27L 206 25L 200 25L 200 27ZM 207 28L 207 34L 209 34L 209 28L 207 28ZM 206 35L 200 35L 200 37L 206 37L 206 35ZM 199 34L 199 28L 197 28L 197 34L 199 34ZM 200 25C 198.343 25 197 26.3431 197 28L 199 28C 199 27.4477 199.448 27 200 27L 200 25ZM 206 27C 206.552 27 207 27.4477 207 28L 209 28C 209 26.3431 207.657 25 206 25L 206 27ZM 207 34C 207 34.5523 206.552 35 206 35L 206 37C 207.657 37 209 35.6569 209 34L 207 34ZM 200 35C 199.448 35 199 34.5523 199 34L 197 34C 197 35.6569 198.343 37 200 37L 200 35ZM 212 27L 218 27L 218 25L 212 25L 212 27ZM 219 28L 219 34L 221 34L 221 28L 219 28ZM 218 35L 212 35L 212 37L 218 37L 218 35ZM 211 34L 211 28L 209 28L 209 34L 211 34ZM 212 25C 210.343 25 209 26.3431 209 28L 211 28C 211 27.4477 211.448 27 212 27L 212 25ZM 218 27C 218.552 27 219 27.4477 219 28L 221 28C 221 26.3431 219.657 25 218 25L 218 27ZM 219 34C 219 34.5523 218.552 35 218 35L 218 37C 219.657 37 221 35.6569 221 34L 219 34ZM 212 35C 211.448 35 211 34.5523 211 34L 209 34C 209 35.6569 210.343 37 212 37L 212 35ZM 26 15L 32 15L 32 13L 26 13L 26 15ZM 33 16L 33 22L 35 22L 35 16L 33 16ZM 32 23L 26 23L 26 25L 32 25L 32 23ZM 25 22L 25 16L 23 16L 23 22L 25 22ZM 26 13C 24.3431 13 23 14.3431 23 16L 25 16C 25 15.4477 25.4477 15 26 15L 26 13ZM 32 15C 32.5523 15 33 15.4477 33 16L 35 16C 35 14.3431 33.6569 13 32 13L 32 15ZM 33 22C 33 22.5523 32.5523 23 32 23L 32 25C 33.6569 25 35 23.6569 35 22L 33 22ZM 26 23C 25.4477 23 25 22.5523 25 22L 23 22C 23 23.6569 24.3431 25 26 25L 26 23ZM 38 15L 44 15L 44 13L 38 13L 38 15ZM 45 16L 45 22L 47 22L 47 16L 45 16ZM 44 23L 38 23L 38 25L 44 25L 44 23ZM 37 22L 37 16L 35 16L 35 22L 37 22ZM 38 13C 36.3431 13 35 14.3431 35 16L 37 16C 37 15.4477 37.4477 15 38 15L 38 13ZM 44 15C 44.5523 15 45 15.4477 45 16L 47 16C 47 14.3431 45.6569 13 44 13L 44 15ZM 45 22C 45 22.5523 44.5523 23 44 23L 44 25C 45.6569 25 47 23.6569 47 22L 45 22ZM 38 23C 37.4477 23 37 22.5523 37 22L 35 22C 35 23.6569 36.3431 25 38 25L 38 23ZM 50 15L 56 15L 56 13L 50 13L 50 15ZM 57 16L 57 22L 59 22L 59 16L 57 16ZM 56 23L 50 23L 50 25L 56 25L 56 23ZM 49 22L 49 16L 47 16L 47 22L 49 22ZM 50 13C 48.3431 13 47 14.3431 47 16L 49 16C 49 15.4477 49.4477 15 50 15L 50 13ZM 56 15C 56.5523 15 57 15.4477 57 16L 59 16C 59 14.3431 57.6569 13 56 13L 56 15ZM 57 22C 57 22.5523 56.5523 23 56 23L 56 25C 57.6569 25 59 23.6569 59 22L 57 22ZM 50 23C 49.4477 23 49 22.5523 49 22L 47 22C 47 23.6569 48.3431 25 50 25L 50 23ZM 62 15L 68 15L 68 13L 62 13L 62 15ZM 69 16L 69 22L 71 22L 71 16L 69 16ZM 68 23L 62 23L 62 25L 68 25L 68 23ZM 61 22L 61 16L 59 16L 59 22L 61 22ZM 62 13C 60.3431 13 59 14.3431 59 16L 61 16C 61 15.4477 61.4477 15 62 15L 62 13ZM 68 15C 68.5523 15 69 15.4477 69 16L 71 16C 71 14.3431 69.6569 13 68 13L 68 15ZM 69 22C 69 22.5523 68.5523 23 68 23L 68 25C 69.6569 25 71 23.6569 71 22L 69 22ZM 62 23C 61.4477 23 61 22.5523 61 22L 59 22C 59 23.6569 60.3431 25 62 25L 62 23ZM 74 15L 80 15L 80 13L 74 13L 74 15ZM 81 16L 81 22L 83 22L 83 16L 81 16ZM 80 23L 74 23L 74 25L 80 25L 80 23ZM 73 22L 73 16L 71 16L 71 22L 73 22ZM 74 13C 72.3431 13 71 14.3431 71 16L 73 16C 73 15.4477 73.4477 15 74 15L 74 13ZM 80 15C 80.5523 15 81 15.4477 81 16L 83 16C 83 14.3431 81.6569 13 80 13L 80 15ZM 81 22C 81 22.5523 80.5523 23 80 23L 80 25C 81.6569 25 83 23.6569 83 22L 81 22ZM 74 23C 73.4477 23 73 22.5523 73 22L 71 22C 71 23.6569 72.3431 25 74 25L 74 23ZM 86 15L 92 15L 92 13L 86 13L 86 15ZM 93 16L 93 22L 95 22L 95 16L 93 16ZM 92 23L 86 23L 86 25L 92 25L 92 23ZM 85 22L 85 16L 83 16L 83 22L 85 22ZM 86 13C 84.3431 13 83 14.3431 83 16L 85 16C 85 15.4477 85.4477 15 86 15L 86 13ZM 92 15C 92.5523 15 93 15.4477 93 16L 95 16C 95 14.3431 93.6569 13 92 13L 92 15ZM 93 22C 93 22.5523 92.5523 23 92 23L 92 25C 93.6569 25 95 23.6569 95 22L 93 22ZM 86 23C 85.4477 23 85 22.5523 85 22L 83 22C 83 23.6569 84.3431 25 86 25L 86 23ZM 98 15L 104 15L 104 13L 98 13L 98 15ZM 105 16L 105 22L 107 22L 107 16L 105 16ZM 104 23L 98 23L 98 25L 104 25L 104 23ZM 97 22L 97 16L 95 16L 95 22L 97 22ZM 98 13C 96.3431 13 95 14.3431 95 16L 97 16C 97 15.4477 97.4477 15 98 15L 98 13ZM 104 15C 104.552 15 105 15.4477 105 16L 107 16C 107 14.3431 105.657 13 104 13L 104 15ZM 105 22C 105 22.5523 104.552 23 104 23L 104 25C 105.657 25 107 23.6569 107 22L 105 22ZM 98 23C 97.4477 23 97 22.5523 97 22L 95 22C 95 23.6569 96.3431 25 98 25L 98 23ZM 110 15L 116 15L 116 13L 110 13L 110 15ZM 117 16L 117 22L 119 22L 119 16L 117 16ZM 116 23L 110 23L 110 25L 116 25L 116 23ZM 109 22L 109 16L 107 16L 107 22L 109 22ZM 110 13C 108.343 13 107 14.3431 107 16L 109 16C 109 15.4477 109.448 15 110 15L 110 13ZM 116 15C 116.552 15 117 15.4477 117 16L 119 16C 119 14.3431 117.657 13 116 13L 116 15ZM 117 22C 117 22.5523 116.552 23 116 23L 116 25C 117.657 25 119 23.6569 119 22L 117 22ZM 110 23C 109.448 23 109 22.5523 109 22L 107 22C 107 23.6569 108.343 25 110 25L 110 23ZM 122 15L 128 15L 128 13L 122 13L 122 15ZM 129 16L 129 22L 131 22L 131 16L 129 16ZM 128 23L 122 23L 122 25L 128 25L 128 23ZM 121 22L 121 16L 119 16L 119 22L 121 22ZM 122 13C 120.343 13 119 14.3431 119 16L 121 16C 121 15.4477 121.448 15 122 15L 122 13ZM 128 15C 128.552 15 129 15.4477 129 16L 131 16C 131 14.3431 129.657 13 128 13L 128 15ZM 129 22C 129 22.5523 128.552 23 128 23L 128 25C 129.657 25 131 23.6569 131 22L 129 22ZM 122 23C 121.448 23 121 22.5523 121 22L 119 22C 119 23.6569 120.343 25 122 25L 122 23ZM 134 15L 140 15L 140 13L 134 13L 134 15ZM 141 16L 141 22L 143 22L 143 16L 141 16ZM 140 23L 134 23L 134 25L 140 25L 140 23ZM 133 22L 133 16L 131 16L 131 22L 133 22ZM 134 13C 132.343 13 131 14.3431 131 16L 133 16C 133 15.4477 133.448 15 134 15L 134 13ZM 140 15C 140.552 15 141 15.4477 141 16L 143 16C 143 14.3431 141.657 13 140 13L 140 15ZM 141 22C 141 22.5523 140.552 23 140 23L 140 25C 141.657 25 143 23.6569 143 22L 141 22ZM 134 23C 133.448 23 133 22.5523 133 22L 131 22C 131 23.6569 132.343 25 134 25L 134 23ZM 146 15L 152 15L 152 13L 146 13L 146 15ZM 153 16L 153 22L 155 22L 155 16L 153 16ZM 152 23L 146 23L 146 25L 152 25L 152 23ZM 145 22L 145 16L 143 16L 143 22L 145 22ZM 146 13C 144.343 13 143 14.3431 143 16L 145 16C 145 15.4477 145.448 15 146 15L 146 13ZM 152 15C 152.552 15 153 15.4477 153 16L 155 16C 155 14.3431 153.657 13 152 13L 152 15ZM 153 22C 153 22.5523 152.552 23 152 23L 152 25C 153.657 25 155 23.6569 155 22L 153 22ZM 146 23C 145.448 23 145 22.5523 145 22L 143 22C 143 23.6569 144.343 25 146 25L 146 23ZM 158 15L 178 15L 178 13L 158 13L 158 15ZM 179 16L 179 22L 181 22L 181 16L 179 16ZM 178 23L 158 23L 158 25L 178 25L 178 23ZM 157 22L 157 16L 155 16L 155 22L 157 22ZM 158 13C 156.343 13 155 14.3431 155 16L 157 16C 157 15.4477 157.448 15 158 15L 158 13ZM 178 15C 178.552 15 179 15.4477 179 16L 181 16C 181 14.3431 179.657 13 178 13L 178 15ZM 179 22C 179 22.5523 178.552 23 178 23L 178 25C 179.657 25 181 23.6569 181 22L 179 22ZM 158 23C 157.448 23 157 22.5523 157 22L 155 22C 155 23.6569 156.343 25 158 25L 158 23ZM 2 51L 27 51L 27 49L 2 49L 2 51ZM 28 52L 28 58L 30 58L 30 52L 28 52ZM 27 59L 2 59L 2 61L 27 61L 27 59ZM 1 58L 1 52L -1 52L -1 58L 1 58ZM 2 49C 0.343146 49 -1 50.3431 -1 52L 1 52C 1 51.4477 1.44772 51 2 51L 2 49ZM 27 51C 27.5523 51 28 51.4477 28 52L 30 52C 30 50.3431 28.6569 49 27 49L 27 51ZM 28 58C 28 58.5523 27.5523 59 27 59L 27 61C 28.6569 61 30 59.6569 30 58L 28 58ZM 2 59C 1.44772 59 1 58.5523 1 58L -1 58C -1 59.6569 0.343146 61 2 61L 2 59ZM 54 63L 126 63L 126 61L 54 61L 54 63ZM 127 64L 127 72L 129 72L 129 64L 127 64ZM 126 73L 54 73L 54 75L 126 75L 126 73ZM 53 72L 53 64L 51 64L 51 72L 53 72ZM 54 61C 52.3431 61 51 62.3431 51 64L 53 64C 53 63.4477 53.4477 63 54 63L 54 61ZM 126 63C 126.552 63 127 63.4477 127 64L 129 64C 129 62.3431 127.657 61 126 61L 126 63ZM 127 72C 127 72.5523 126.552 73 126 73L 126 75C 127.657 75 129 73.6569 129 72L 127 72ZM 54 73C 53.4477 73 53 72.5523 53 72L 51 72C 51 73.6569 52.3431 75 54 75L 54 73ZM 153 51L 178 51L 178 49L 153 49L 153 51ZM 179 52L 179 58L 181 58L 181 52L 179 52ZM 178 59L 153 59L 153 61L 178 61L 178 59ZM 152 58L 152 52L 150 52L 150 58L 152 58ZM 153 49C 151.343 49 150 50.3431 150 52L 152 52C 152 51.4477 152.448 51 153 51L 153 49ZM 178 51C 178.552 51 179 51.4477 179 52L 181 52C 181 50.3431 179.657 49 178 49L 178 51ZM 179 58C 179 58.5523 178.552 59 178 59L 178 61C 179.657 61 181 59.6569 181 58L 179 58ZM 153 59C 152.448 59 152 58.5523 152 58L 150 58C 150 59.6569 151.343 61 153 61L 153 59ZM 2 39L 20 39L 20 37L 2 37L 2 39ZM 21 40L 21 46L 23 46L 23 40L 21 40ZM 20 47L 2 47L 2 49L 20 49L 20 47ZM 1 46L 1 40L -1 40L -1 46L 1 46ZM 2 37C 0.343146 37 -1 38.3431 -1 40L 1 40C 1 39.4477 1.44772 39 2 39L 2 37ZM 20 39C 20.5523 39 21 39.4477 21 40L 23 40C 23 38.3431 21.6569 37 20 37L 20 39ZM 21 46C 21 46.5523 20.5523 47 20 47L 20 49C 21.6569 49 23 47.6569 23 46L 21 46ZM 2 47C 1.44772 47 1 46.5523 1 46L -1 46C -1 47.6569 0.343146 49 2 49L 2 47ZM 23 63L 31 63L 31 61L 23 61L 23 63ZM 32 64L 32 72L 34 72L 34 64L 32 64ZM 31 73L 23 73L 23 75L 31 75L 31 73ZM 22 72L 22 64L 20 64L 20 72L 22 72ZM 23 61C 21.3431 61 20 62.3431 20 64L 22 64C 22 63.4477 22.4477 63 23 63L 23 61ZM 31 63C 31.5523 63 32 63.4477 32 64L 34 64C 34 62.3431 32.6569 61 31 61L 31 63ZM 32 72C 32 72.5523 31.5523 73 31 73L 31 75C 32.6569 75 34 73.6569 34 72L 32 72ZM 23 73C 22.4477 73 22 72.5523 22 72L 20 72C 20 73.6569 21.3431 75 23 75L 23 73ZM 37 63L 48 63L 48 61L 37 61L 37 63ZM 49 64L 49 72L 51 72L 51 64L 49 64ZM 48 73L 37 73L 37 75L 48 75L 48 73ZM 36 72L 36 64L 34 64L 34 72L 36 72ZM 37 61C 35.3431 61 34 62.3431 34 64L 36 64C 36 63.4477 36.4477 63 37 63L 37 61ZM 48 63C 48.5523 63 49 63.4477 49 64L 51 64C 51 62.3431 49.6569 61 48 61L 48 63ZM 49 72C 49 72.5523 48.5523 73 48 73L 48 75C 49.6569 75 51 73.6569 51 72L 49 72ZM 37 73C 36.4477 73 36 72.5523 36 72L 34 72C 34 73.6569 35.3431 75 37 75L 37 73ZM 2 63L 17 63L 17 61L 2 61L 2 63ZM 18 64L 18 72L 20 72L 20 64L 18 64ZM 17 73L 2 73L 2 75L 17 75L 17 73ZM 1 72L 1 64L -1 64L -1 72L 1 72ZM 2 61C 0.343146 61 -1 62.3431 -1 64L 1 64C 1 63.4477 1.44772 63 2 63L 2 61ZM 17 63C 17.5523 63 18 63.4477 18 64L 20 64C 20 62.3431 18.6569 61 17 61L 17 63ZM 18 72C 18 72.5523 17.5523 73 17 73L 17 75C 18.6569 75 20 73.6569 20 72L 18 72ZM 2 73C 1.44772 73 1 72.5523 1 72L -1 72C -1 73.6569 0.343146 75 2 75L 2 73ZM 157 61L 149 61L 149 63L 157 63L 157 61ZM 146 64L 146 72L 148 72L 148 64L 146 64ZM 149 75L 157 75L 157 73L 149 73L 149 75ZM 160 72L 160 64L 158 64L 158 72L 160 72ZM 157 63C 157.552 63 158 63.4477 158 64L 160 64C 160 62.3431 158.657 61 157 61L 157 63ZM 149 61C 147.343 61 146 62.3431 146 64L 148 64C 148 63.4477 148.448 63 149 63L 149 61ZM 146 72C 146 73.6569 147.343 75 149 75L 149 73C 148.448 73 148 72.5523 148 72L 146 72ZM 157 75C 158.657 75 160 73.6569 160 72L 158 72C 158 72.5523 157.552 73 157 73L 157 75ZM 143 61L 132 61L 132 63L 143 63L 143 61ZM 129 64L 129 72L 131 72L 131 64L 129 64ZM 132 75L 143 75L 143 73L 132 73L 132 75ZM 146 72L 146 64L 144 64L 144 72L 146 72ZM 143 63C 143.552 63 144 63.4477 144 64L 146 64C 146 62.3431 144.657 61 143 61L 143 63ZM 132 61C 130.343 61 129 62.3431 129 64L 131 64C 131 63.4477 131.448 63 132 63L 132 61ZM 129 72C 129 73.6569 130.343 75 132 75L 132 73C 131.448 73 131 72.5523 131 72L 129 72ZM 143 75C 144.657 75 146 73.6569 146 72L 144 72C 144 72.5523 143.552 73 143 73L 143 75ZM 178 61L 163 61L 163 63L 178 63L 178 61ZM 160 64L 160 72L 162 72L 162 64L 160 64ZM 163 75L 178 75L 178 73L 163 73L 163 75ZM 181 72L 181 64L 179 64L 179 72L 181 72ZM 178 63C 178.552 63 179 63.4477 179 64L 181 64C 181 62.3431 179.657 61 178 61L 178 63ZM 163 61C 161.343 61 160 62.3431 160 64L 162 64C 162 63.4477 162.448 63 163 63L 163 61ZM 160 72C 160 73.6569 161.343 75 163 75L 163 73C 162.448 73 162 72.5523 162 72L 160 72ZM 178 75C 179.657 75 181 73.6569 181 72L 179 72C 179 72.5523 178.552 73 178 73L 178 75ZM 242 4L 244 4L 244 2L 242 2L 242 4ZM 244 4L 242 4L 242 6L 244 6L 244 4ZM 242 2C 240.895 2 240 2.89543 240 4L 242 4L 242 2ZM 244 4L 246 4C 246 2.89543 245.105 2 244 2L 244 4ZM 244 4L 244 6C 245.105 6 246 5.10457 246 4L 244 4ZM 242 4L 240 4C 240 5.10457 240.895 6 242 6L 242 4ZM 249 4L 251 4L 251 2L 249 2L 249 4ZM 251 4L 249 4L 249 6L 251 6L 251 4ZM 249 2C 247.895 2 247 2.89543 247 4L 249 4L 249 2ZM 251 4L 253 4C 253 2.89543 252.105 2 251 2L 251 4ZM 251 4L 251 6C 252.105 6 253 5.10457 253 4L 251 4ZM 249 4L 247 4C 247 5.10457 247.895 6 249 6L 249 4ZM 256 4L 258 4L 258 2L 256 2L 256 4ZM 258 4L 256 4L 256 6L 258 6L 258 4ZM 256 2C 254.895 2 254 2.89543 254 4L 256 4L 256 2ZM 258 4L 260 4C 260 2.89543 259.105 2 258 2L 258 4ZM 258 4L 258 6C 259.105 6 260 5.10457 260 4L 258 4ZM 256 4L 254 4C 254 5.10457 254.895 6 256 6L 256 4Z"/>
</defs>
</svg>
