<svg width="21" height="18" viewBox="0 0 21 18" fill="none" xmlns="http://www.w3.org/2000/svg">
<path d="M5.32006 15.9176H16.0172V7.14068L10.6686 2.27736L5.32006 7.14068V15.9176ZM16.9086 17.701H4.42863C4.19221 17.701 3.96547 17.6071 3.79829 17.4399C3.63112 17.2726 3.5372 17.0458 3.5372 16.8093V8.78407H0.862915L10.0687 0.412824C10.2328 0.263445 10.4467 0.180664 10.6686 0.180664C10.8905 0.180664 11.1044 0.263445 11.2686 0.412824L20.4743 8.78407H17.8001V16.8093C17.8001 17.0458 17.7061 17.2726 17.539 17.4399C17.3718 17.6071 17.1451 17.701 16.9086 17.701ZM6.6572 10.5675H8.44006C8.44006 11.1587 8.67485 11.7257 9.09279 12.1438C9.51073 12.5618 10.0776 12.7967 10.6686 12.7967C11.2597 12.7967 11.8265 12.5618 12.2445 12.1438C12.6624 11.7257 12.8972 11.1587 12.8972 10.5675H14.6801C14.6801 11.6317 14.2574 12.6523 13.5051 13.4048C12.7528 14.1573 11.7325 14.5801 10.6686 14.5801C9.60473 14.5801 8.58441 14.1573 7.83212 13.4048C7.07983 12.6523 6.6572 11.6317 6.6572 10.5675Z" fill="black"/>
</svg>
