<svg width="21" height="20" viewBox="0 0 21 20" fill="none" xmlns="http://www.w3.org/2000/svg">
<path d="M13.121 8.35438C12.9334 8.16691 12.6791 8.06159 12.414 8.06159C12.1488 8.06159 11.8945 8.16691 11.707 8.35438L11 9.06038C10.8155 9.2514 10.5948 9.40376 10.3508 9.50858C10.1068 9.6134 9.84432 9.66857 9.57876 9.67088C9.3132 9.67319 9.04984 9.62258 8.80405 9.52202C8.55826 9.42146 8.33496 9.27295 8.14717 9.08517C7.95938 8.89738 7.81088 8.67408 7.71032 8.42829C7.60975 8.18249 7.55915 7.91913 7.56146 7.65358C7.56377 7.38802 7.61894 7.12558 7.72376 6.88157C7.82857 6.63756 7.98094 6.41687 8.17196 6.23238L13.802 0.600378C15.1349 0.297205 16.5295 0.421977 17.7874 0.956953C19.0453 1.49193 20.1026 2.40988 20.8088 3.58027C21.5151 4.75066 21.8344 6.11392 21.7213 7.47621C21.6082 8.83849 21.0685 10.1305 20.179 11.1684L18.071 13.3034L13.121 8.35338V8.35438ZM2.16096 2.34238C3.19572 1.30776 4.54918 0.652357 6.00252 0.482144C7.45586 0.311932 8.92414 0.636853 10.17 1.40438L6.75696 4.81838C6.01776 5.55611 5.59639 6.55368 5.5829 7.59794C5.5694 8.6422 5.96485 9.65033 6.68474 10.4069C7.40463 11.1635 8.39187 11.6085 9.43551 11.6469C10.4792 11.6853 11.4964 11.314 12.27 10.6124L12.414 10.4754L16.657 14.7174L12.414 18.9604C12.0389 19.3353 11.5303 19.546 11 19.546C10.4696 19.546 9.96102 19.3353 9.58596 18.9604L2.15996 11.5344C0.941092 10.3154 0.256348 8.66219 0.256348 6.93838C0.256348 5.21457 0.941092 3.56135 2.15996 2.34238H2.16096Z" fill="#EA0774"/>
</svg>
