<svg width="91" height="25" viewBox="0 0 91 25" fill="none" xmlns="http://www.w3.org/2000/svg">
<path d="M11.3047 13.2139H14.3564C14.2588 14.3776 13.9333 15.4152 13.3799 16.3267C12.8265 17.23 12.0493 17.9421 11.0483 18.4629C10.0474 18.9837 8.83073 19.2441 7.39844 19.2441C6.2998 19.2441 5.31104 19.0488 4.43213 18.6582C3.55322 18.2594 2.80046 17.6979 2.17383 16.9736C1.5472 16.2412 1.06706 15.3582 0.733398 14.3247C0.407878 13.2912 0.245117 12.1356 0.245117 10.8579V9.38086C0.245117 8.10319 0.411947 6.94759 0.745605 5.91406C1.0874 4.88053 1.57568 3.99756 2.21045 3.26514C2.84521 2.52458 3.60612 1.95898 4.49316 1.56836C5.38835 1.17773 6.39339 0.982422 7.5083 0.982422C8.92432 0.982422 10.1206 1.24284 11.0972 1.76367C12.0737 2.28451 12.8306 3.00472 13.3677 3.92432C13.9129 4.84391 14.2466 5.89779 14.3687 7.08594H11.3169C11.2355 6.32096 11.0565 5.66585 10.7798 5.12061C10.5112 4.57536 10.1125 4.16032 9.5835 3.87549C9.05452 3.58252 8.36279 3.43604 7.5083 3.43604C6.80843 3.43604 6.19808 3.56624 5.67725 3.82666C5.15641 4.08708 4.72103 4.46956 4.37109 4.97412C4.02116 5.47868 3.75667 6.10124 3.57764 6.8418C3.40674 7.57422 3.32129 8.41243 3.32129 9.35645V10.8579C3.32129 11.7531 3.3986 12.5669 3.55322 13.2993C3.71598 14.0236 3.96012 14.6462 4.28564 15.167C4.6193 15.6878 5.04248 16.0907 5.55518 16.3755C6.06787 16.6603 6.68229 16.8027 7.39844 16.8027C8.26921 16.8027 8.97314 16.6644 9.51025 16.3877C10.0555 16.111 10.4665 15.7082 10.7432 15.1792C11.028 14.6421 11.2152 13.987 11.3047 13.2139ZM20.252 0.25V19H17.3223V0.25H20.252ZM19.7393 11.9077L18.7871 11.8955C18.7952 10.984 18.9214 10.1418 19.1655 9.36865C19.4178 8.59554 19.7677 7.92415 20.2153 7.35449C20.6711 6.77669 21.2163 6.33317 21.8511 6.02393C22.4858 5.70654 23.1898 5.54785 23.9629 5.54785C24.6139 5.54785 25.1999 5.63737 25.7207 5.81641C26.2497 5.99544 26.7054 6.28434 27.0879 6.68311C27.4704 7.07373 27.7593 7.58643 27.9546 8.22119C28.158 8.84782 28.2598 9.61279 28.2598 10.5161V19H25.3057V10.4917C25.3057 9.85693 25.2121 9.35238 25.0249 8.97803C24.8459 8.60368 24.5814 8.33512 24.2314 8.17236C23.8815 8.00146 23.4543 7.91602 22.9497 7.91602C22.4207 7.91602 21.9528 8.02181 21.5459 8.2334C21.1471 8.44499 20.8135 8.73389 20.5449 9.1001C20.2764 9.46631 20.0729 9.88949 19.9346 10.3696C19.8044 10.8498 19.7393 11.3625 19.7393 11.9077ZM34.8877 5.79199V19H31.9336V5.79199H34.8877ZM31.7383 2.3252C31.7383 1.8776 31.8848 1.50732 32.1777 1.21436C32.4788 0.913249 32.8939 0.762695 33.4229 0.762695C33.9437 0.762695 34.3547 0.913249 34.6558 1.21436C34.9569 1.50732 35.1074 1.8776 35.1074 2.3252C35.1074 2.76465 34.9569 3.13086 34.6558 3.42383C34.3547 3.7168 33.9437 3.86328 33.4229 3.86328C32.8939 3.86328 32.4788 3.7168 32.1777 3.42383C31.8848 3.13086 31.7383 2.76465 31.7383 2.3252ZM41.5645 8.33105V24.0781H38.6226V5.79199H41.3325L41.5645 8.33105ZM50.1704 12.2739V12.5303C50.1704 13.4906 50.0565 14.3817 49.8286 15.2036C49.6089 16.0174 49.2793 16.7295 48.8398 17.3398C48.4085 17.9421 47.8755 18.41 47.2407 18.7437C46.606 19.0773 45.8735 19.2441 45.0435 19.2441C44.2215 19.2441 43.5013 19.0936 42.8828 18.7925C42.2725 18.4832 41.7557 18.0479 41.3325 17.4863C40.9093 16.9248 40.5675 16.2656 40.3071 15.5088C40.0549 14.7438 39.8758 13.9056 39.77 12.9941V12.0054C39.8758 11.0369 40.0549 10.158 40.3071 9.36865C40.5675 8.57926 40.9093 7.89974 41.3325 7.33008C41.7557 6.76042 42.2725 6.32096 42.8828 6.01172C43.4932 5.70247 44.2052 5.54785 45.019 5.54785C45.8491 5.54785 46.5856 5.71061 47.2285 6.03613C47.8714 6.35352 48.4126 6.80924 48.8521 7.40332C49.2915 7.98926 49.6211 8.69727 49.8408 9.52734C50.0605 10.3493 50.1704 11.2648 50.1704 12.2739ZM47.2285 12.5303V12.2739C47.2285 11.6636 47.1715 11.098 47.0576 10.5771C46.9437 10.0482 46.7646 9.58431 46.5205 9.18555C46.2764 8.78678 45.9631 8.47754 45.5806 8.25781C45.2062 8.02995 44.7546 7.91602 44.2256 7.91602C43.7048 7.91602 43.2572 8.00553 42.8828 8.18457C42.5085 8.35547 42.1951 8.59554 41.9429 8.90479C41.6906 9.21403 41.4953 9.57617 41.3569 9.99121C41.2186 10.3981 41.1209 10.8416 41.064 11.3218V13.6899C41.1616 14.2759 41.3285 14.813 41.5645 15.3013C41.8005 15.7896 42.1341 16.1802 42.5654 16.4731C43.0049 16.758 43.5664 16.9004 44.25 16.9004C44.779 16.9004 45.2306 16.7865 45.605 16.5586C45.9793 16.3307 46.2845 16.0174 46.5205 15.6187C46.7646 15.2118 46.9437 14.7438 47.0576 14.2148C47.1715 13.6859 47.2285 13.1243 47.2285 12.5303Z" fill="white"/>
<path d="M60.2041 11.1997H55.6387L55.6143 8.68506H59.4473C60.1227 8.68506 60.6761 8.59961 61.1074 8.42871C61.5387 8.24967 61.8602 7.99333 62.0718 7.65967C62.2915 7.31787 62.4014 6.90283 62.4014 6.41455C62.4014 5.86117 62.2956 5.41357 62.084 5.07178C61.8805 4.72998 61.5591 4.48177 61.1196 4.32715C60.6883 4.17253 60.1309 4.09521 59.4473 4.09521H56.9082V19H53.2461V1.22656H59.4473C60.4808 1.22656 61.4045 1.32422 62.2183 1.51953C63.0402 1.71484 63.736 2.01188 64.3057 2.41064C64.8753 2.80941 65.3107 3.31396 65.6118 3.92432C65.9129 4.52653 66.0635 5.24268 66.0635 6.07275C66.0635 6.80518 65.8966 7.48063 65.563 8.09912C65.2375 8.71761 64.7207 9.22217 64.0127 9.61279C63.3128 10.0034 62.3973 10.2191 61.2661 10.2598L60.2041 11.1997ZM60.0454 19H54.6377L56.0659 16.1436H60.0454C60.6883 16.1436 61.2132 16.0418 61.6201 15.8384C62.027 15.6268 62.3281 15.342 62.5234 14.9839C62.7188 14.6258 62.8164 14.2148 62.8164 13.751C62.8164 13.2301 62.7269 12.7785 62.5479 12.396C62.377 12.0135 62.1003 11.7205 61.7178 11.5171C61.3353 11.3055 60.8307 11.1997 60.2041 11.1997H56.6763L56.7007 8.68506H61.0952L61.9375 9.67383C63.0199 9.65755 63.8906 9.8488 64.5498 10.2476C65.2171 10.6382 65.7013 11.1468 66.0024 11.7734C66.3117 12.4001 66.4663 13.0715 66.4663 13.7876C66.4663 14.9269 66.2181 15.8872 65.7217 16.6685C65.2253 17.4416 64.4969 18.0234 63.5366 18.4141C62.5845 18.8047 61.4207 19 60.0454 19ZM68.9316 12.5303V12.2739C68.9316 11.3055 69.07 10.4144 69.3467 9.60059C69.6234 8.77865 70.0262 8.06657 70.5552 7.46436C71.0841 6.86214 71.7352 6.39421 72.5083 6.06055C73.2814 5.71875 74.1685 5.54785 75.1694 5.54785C76.1704 5.54785 77.0615 5.71875 77.8428 6.06055C78.624 6.39421 79.2791 6.86214 79.8081 7.46436C80.3452 8.06657 80.7521 8.77865 81.0288 9.60059C81.3055 10.4144 81.4438 11.3055 81.4438 12.2739V12.5303C81.4438 13.4906 81.3055 14.3817 81.0288 15.2036C80.7521 16.0174 80.3452 16.7295 79.8081 17.3398C79.2791 17.9421 78.6281 18.41 77.855 18.7437C77.0819 19.0773 76.1948 19.2441 75.1938 19.2441C74.1929 19.2441 73.3018 19.0773 72.5205 18.7437C71.7474 18.41 71.0923 17.9421 70.5552 17.3398C70.0262 16.7295 69.6234 16.0174 69.3467 15.2036C69.07 14.3817 68.9316 13.4906 68.9316 12.5303ZM72.4473 12.2739V12.5303C72.4473 13.0837 72.4961 13.6004 72.5938 14.0806C72.6914 14.5607 72.846 14.9839 73.0576 15.3501C73.2773 15.7082 73.5622 15.9889 73.9121 16.1924C74.262 16.3958 74.6893 16.4976 75.1938 16.4976C75.6821 16.4976 76.1012 16.3958 76.4512 16.1924C76.8011 15.9889 77.0819 15.7082 77.2935 15.3501C77.505 14.9839 77.6597 14.5607 77.7573 14.0806C77.8631 13.6004 77.916 13.0837 77.916 12.5303V12.2739C77.916 11.7368 77.8631 11.2323 77.7573 10.7603C77.6597 10.2801 77.501 9.85693 77.2812 9.49072C77.0697 9.11637 76.7889 8.8234 76.439 8.61182C76.089 8.40023 75.6659 8.29443 75.1694 8.29443C74.673 8.29443 74.2498 8.40023 73.8999 8.61182C73.5581 8.8234 73.2773 9.11637 73.0576 9.49072C72.846 9.85693 72.6914 10.2801 72.5938 10.7603C72.4961 11.2323 72.4473 11.7368 72.4473 12.2739ZM90.5742 5.79199V8.28223H82.8838V5.79199H90.5742ZM84.7881 2.53271H88.3037V15.0205C88.3037 15.403 88.3525 15.696 88.4502 15.8994C88.556 16.1029 88.7106 16.2453 88.9141 16.3267C89.1175 16.3999 89.3739 16.4365 89.6831 16.4365C89.9028 16.4365 90.0981 16.4284 90.269 16.4121C90.4481 16.3877 90.5986 16.3633 90.7207 16.3389L90.7329 18.9268C90.4318 19.0244 90.1063 19.1017 89.7563 19.1587C89.4064 19.2157 89.0199 19.2441 88.5967 19.2441C87.8236 19.2441 87.1481 19.118 86.5703 18.8657C86.0007 18.6053 85.5612 18.1903 85.252 17.6206C84.9427 17.0509 84.7881 16.3022 84.7881 15.3745V2.53271Z" fill="#3DA9FC"/>
</svg>
