<svg width="95" height="16" viewBox="0 0 95 16" fill="none" xmlns="http://www.w3.org/2000/svg">
<path d="M14.3496 3.73723C14.2638 3.61341 14.1745 3.48958 14.08 3.37026C14.0388 3.31794 13.9966 3.26633 13.9534 3.21548L13.8834 3.1333L5.62221 7.71657L1.61474 5.49331C1.53554 5.7416 1.47086 5.99395 1.42102 6.2492L5.62221 8.58052L14.3484 3.73723H14.3496Z" fill="#B7C0CF"/>
<path d="M11.9987 1.59108C11.7312 1.43972 11.4536 1.30547 11.1678 1.18921L5.62167 4.26629L3.15289 2.89576C2.97784 3.08262 2.81154 3.27849 2.65808 3.4828L5.62225 5.12856L11.9987 1.59108Z" fill="#B7C0CF"/>
<path d="M13.3419 2.57106C13.1435 2.38758 12.9352 2.21534 12.7176 2.05493L5.62223 5.99262L2.23619 4.1127C2.10782 4.33051 1.99113 4.55397 1.88843 4.78248L5.62281 6.85376L13.3425 2.57162L13.3419 2.57106Z" fill="#B7C0CF"/>
<path d="M2.27006 10.9663C3.12586 12.3808 4.47766 13.4536 6.08149 13.9911C6.76723 14.2208 7.48557 14.3476 8.21124 14.3671H8.60804C9.84875 14.3322 11.0587 13.987 12.1195 13.3652C12.9385 12.8813 13.6474 12.2426 14.2037 11.4875C15.0983 10.2764 15.5606 8.81752 15.5207 7.33089C15.4909 6.30472 15.2247 5.29783 14.7412 4.3833L5.62109 9.44158L1.31663 7.05289C1.27793 7.62192 1.31243 8.19347 1.41933 8.75438C1.5668 9.53381 1.85431 10.2824 2.2689 10.9663H2.27006Z" fill="#B7C0CF"/>
<g clip-path="url(#clip0_2_557)">
<path d="M59.0054 0C59.0237 0.37084 59.0739 0.740093 59.1562 1.10143C59.1745 1.18067 59.1913 1.25991 59.2142 1.33756L59.2385 1.43264C59.6253 2.69982 60.3897 3.80618 61.4211 4.59166C62.4525 5.37713 63.6974 5.80098 64.9757 5.8019H72.927C73.0482 5.09252 73.0186 4.36415 72.8404 3.66792C72.6621 2.9717 72.3395 2.32449 71.8951 1.77174C71.4507 1.21899 70.8955 0.774095 70.2682 0.468291C69.6409 0.162489 68.9569 0.00319253 68.2641 0.00158467H59.0054V0Z" fill="#B7C0CF"/>
<path fill-rule="evenodd" clip-rule="evenodd" d="M51.5723 1.4802L48.5567 8.27102H48.2504V8.58462e-06H43.9685V14H47.6028C48.0703 14.0001 48.528 13.8609 48.9217 13.5989C49.3155 13.3368 49.6288 12.9629 49.8245 12.5214L52.8402 5.72742H53.1449V14H57.4269V8.58462e-06H53.7941C53.3266 -0.000322997 52.8687 0.138798 52.475 0.400874C52.0811 0.662947 51.7679 1.03698 51.5723 1.47862V1.4802ZM59.2051 6.64977V13.9969H63.5114V9.86055H67.8437C70.1081 9.86055 72.0387 8.52454 72.7854 6.64977H59.2067H59.2051ZM33.4145 8.2726L31.6301 1.83836C31.4828 1.30828 31.1738 0.842357 30.7497 0.510783C30.3256 0.17921 29.8094 -5.03133e-05 29.2789 8.58462e-06H25V14H29.285V5.72742H29.5897L32.0415 14H35.0968L37.5441 5.72742H37.8503V14H42.1323V8.58462e-06H37.8626C37.331 -0.0014269 36.8134 0.1772 36.3881 0.508875C35.9627 0.840548 35.6529 1.30724 35.5052 1.83836L33.7223 8.2726H33.4161H33.4145Z" fill="#B7C0CF"/>
</g>
<g clip-path="url(#clip1_2_557)">
<path d="M86.9066 0C87.0908 0.0519484 87.2467 0.168698 87.4115 0.261885C89.3928 1.41921 91.373 2.57814 93.3537 3.736C93.7831 3.99467 94.226 4.23085 94.6469 4.50345C94.3987 4.54415 94.1467 4.53451 93.8964 4.53129C92.8893 4.53022 91.8826 4.53237 90.8754 4.53022C90.1879 4.13766 89.5114 3.72422 88.8212 3.33648C88.6391 3.09709 88.5126 2.82021 88.3572 2.56314C87.8839 1.72447 87.3947 0.894371 86.9302 0.0503419L86.9066 0Z" fill="#B7C0CF"/>
<path d="M86.9301 0.0505371C87.3946 0.894566 87.8837 1.72467 88.3571 2.56334C88.5125 2.82041 88.639 3.09729 88.8211 3.33667C88.8305 4.14321 88.8237 4.94975 88.8242 5.75629C88.8048 6.4932 88.8573 7.23331 88.7954 7.96811C88.1624 7.6136 87.541 7.23709 86.9117 6.87509C86.8955 4.73339 86.9117 2.59173 86.9033 0.450058C86.9012 0.316706 86.9081 0.182282 86.9301 0.0505371Z" fill="#B7C0CF"/>
<path d="M81 3.44458C81.0199 3.45689 81.0593 3.4826 81.0793 3.49545C81.1359 3.61917 81.1895 3.74502 81.2577 3.86284C81.676 4.58155 82.0801 5.30936 82.4963 6.03019C82.6469 6.28945 82.7818 6.55985 82.9566 6.80408C82.922 6.95031 82.9067 7.10133 82.9109 7.25179C82.9241 7.89659 82.9015 8.54196 82.9256 9.18676C82.8469 9.36402 82.7461 9.53002 82.6522 9.69928C82.1867 10.5122 81.7222 11.3257 81.2587 12.1398C81.1937 12.2549 81.1401 12.3765 81.0814 12.4954C81.0625 12.5114 81.0236 12.5425 81.0047 12.558C80.9953 9.52042 81.0042 6.48225 81 3.44458Z" fill="#B7C0CF"/>
<path d="M81.0795 3.49561C81.1472 3.52078 81.2149 3.54809 81.2789 3.58237C83.1557 4.68131 85.032 5.78131 86.912 6.87491C87.5413 7.23697 88.1627 7.61343 88.7957 7.968C88.8093 7.976 88.8366 7.99103 88.8497 7.99851C90.5979 9.04606 92.3677 10.0577 94.1228 11.0929C94.2996 11.2065 94.5033 11.2825 94.6534 11.4357C93.5093 11.4657 92.3641 11.4373 91.2199 11.4496C91.0751 11.4458 90.9176 11.4699 90.7885 11.3864C90.1419 11.0094 89.4969 10.6291 88.8487 10.2553C88.2036 9.87829 87.5633 9.49269 86.9109 9.1296L86.881 9.11194C86.2397 8.72206 85.5852 8.35571 84.9418 7.9696C84.2815 7.57811 83.6134 7.20109 82.9568 6.80423C82.782 6.56 82.6472 6.2896 82.4965 6.03034C82.0803 5.30951 81.6762 4.5817 81.2579 3.86299C81.1897 3.74517 81.1362 3.61932 81.0795 3.49561Z" fill="#B7C0CF"/>
<path d="M94.6467 4.50326L94.6772 4.49951C94.6877 4.51183 94.7097 4.53646 94.7208 4.54932C92.93 5.59846 91.1387 6.64651 89.3464 7.69297C89.1758 7.78674 89.0126 7.89223 88.8494 7.99828C88.8362 7.99074 88.809 7.97577 88.7953 7.96771C88.8572 7.23297 88.8048 6.49285 88.8242 5.75588C89.5049 5.34193 90.2124 4.9724 90.8752 4.53004C91.8824 4.53218 92.8891 4.53004 93.8962 4.53111C94.1466 4.53432 94.3985 4.54396 94.6467 4.50326Z" fill="#B7C0CF"/>
<path d="M84.9415 7.96948C85.5849 8.3556 86.2394 8.72194 86.8808 9.11183C86.7648 9.20497 86.6367 9.27994 86.5076 9.35171C84.7631 10.3751 83.0138 11.3906 81.2702 12.4162C81.2099 12.4478 81.1459 12.4718 81.0813 12.4954C81.1401 12.3765 81.1936 12.255 81.2587 12.1398C81.7221 11.3258 82.1866 10.5123 82.6521 9.69931C82.7461 9.53005 82.8469 9.36405 82.9256 9.1868C83.5108 8.88154 84.0666 8.52108 84.6434 8.20085C84.7552 8.14137 84.8549 8.06211 84.9415 7.96948Z" fill="#B7C0CF"/>
<path d="M86.9108 9.12939C87.5631 9.49254 88.2034 9.87808 88.8485 10.2551C88.839 11.0435 88.8328 11.8323 88.8516 12.6207C88.1898 13.7207 87.5852 14.856 86.9281 15.9593C86.9118 15.8773 86.9013 15.7949 86.8971 15.7119C86.8976 13.6056 86.8982 11.4992 86.8966 9.39345C86.8976 9.30505 86.9034 9.21671 86.9108 9.12939Z" fill="#B7C0CF"/>
<path d="M90.3463 11.7714C90.5773 11.6552 90.7862 11.4431 91.0617 11.4619C91.9891 11.4661 92.9165 11.4624 93.8439 11.464C94.1094 11.4661 94.3761 11.4506 94.6411 11.4795C94.522 11.5834 94.3839 11.6595 94.2475 11.7344C92.2673 12.8901 90.2891 14.0475 88.3105 15.2053C87.8392 15.4651 87.3925 15.7741 86.9044 16.0001L86.9281 15.9594C87.5852 14.8561 88.1898 13.7208 88.8516 12.6208C89.3696 12.3771 89.8446 12.0488 90.3463 11.7714Z" fill="#B7C0CF"/>
</g>
<defs>
<clipPath id="clip0_2_557">
<rect width="48" height="14" fill="white" transform="translate(25)"/>
</clipPath>
<clipPath id="clip1_2_557">
<rect width="14" height="16" fill="white" transform="translate(81)"/>
</clipPath>
</defs>
</svg>
