<svg width="22" height="23" viewBox="0 0 22 23" fill="none" xmlns="http://www.w3.org/2000/svg">
<path fill-rule="evenodd" clip-rule="evenodd" d="M11 0.87439C4.925 0.87439 0 5.79939 0 11.8744C0 17.9494 4.925 22.8744 11 22.8744C17.075 22.8744 22 17.9494 22 11.8744C22 5.79939 17.075 0.87439 11 0.87439ZM15.768 10.0144C15.8558 9.91403 15.9226 9.79713 15.9646 9.67056C16.0065 9.54399 16.0227 9.4103 16.0123 9.27737C16.0018 9.14444 15.9648 9.01495 15.9036 8.89652C15.8423 8.77808 15.758 8.67309 15.6555 8.58773C15.5531 8.50237 15.4346 8.43835 15.3071 8.39945C15.1796 8.36055 15.0455 8.34755 14.9129 8.36122C14.7802 8.37488 14.6517 8.41494 14.5347 8.47902C14.4178 8.54311 14.3149 8.62993 14.232 8.73439L9.932 13.8934L7.707 11.6674C7.5184 11.4852 7.2658 11.3844 7.0036 11.3867C6.7414 11.389 6.49059 11.4942 6.30518 11.6796C6.11977 11.865 6.0146 12.1158 6.01233 12.378C6.01005 12.6402 6.11084 12.8928 6.293 13.0814L9.293 16.0814C9.39126 16.1796 9.50889 16.2562 9.63842 16.3064C9.76794 16.3567 9.9065 16.3793 10.0453 16.373C10.184 16.3667 10.32 16.3316 10.4444 16.2698C10.5688 16.2081 10.6791 16.1211 10.768 16.0144L15.768 10.0144Z" fill="#CECECE"/>
</svg>
