<svg width="22" height="21" viewBox="0 0 22 21" fill="none" xmlns="http://www.w3.org/2000/svg">
<path d="M20 18.8744H22V20.8744H0V18.8744H2V1.87439C2 1.60917 2.10536 1.35482 2.29289 1.16728C2.48043 0.979746 2.73478 0.87439 3 0.87439H19C19.2652 0.87439 19.5196 0.979746 19.7071 1.16728C19.8946 1.35482 20 1.60917 20 1.87439V18.8744ZM18 18.8744V2.87439H4V18.8744H18ZM7 9.87439H10V11.8744H7V9.87439ZM7 5.87439H10V7.87439H7V5.87439ZM7 13.8744H10V15.8744H7V13.8744ZM12 13.8744H15V15.8744H12V13.8744ZM12 9.87439H15V11.8744H12V9.87439ZM12 5.87439H15V7.87439H12V5.87439Z" fill="black"/>
</svg>
