<svg width="19" height="16" viewBox="0 0 19 16" fill="none" xmlns="http://www.w3.org/2000/svg">
<path fill-rule="evenodd" clip-rule="evenodd" d="M1.30615 6.8879C6.40641 4.62993 9.80739 3.14134 11.5091 2.42212C16.3677 0.36862 17.3773 0.0119045 18.0354 0.00012559C18.1801 -0.00246506 18.5037 0.0339819 18.7133 0.206816C18.8903 0.352754 18.939 0.549895 18.9623 0.68826C18.9856 0.826626 19.0146 1.14183 18.9916 1.38811C18.7283 4.1992 17.589 11.021 17.0094 14.1694C16.7642 15.5017 16.2813 15.9484 15.8138 15.9921C14.7978 16.0871 14.0263 15.3098 13.0422 14.6543C11.5024 13.6287 10.6325 12.9902 9.13785 11.9893C7.4105 10.8327 8.53027 10.1969 9.51468 9.15799C9.7723 8.88609 14.2488 4.74867 14.3354 4.37335C14.3463 4.32641 14.3563 4.15143 14.254 4.05904C14.1517 3.96664 14.0007 3.99824 13.8918 4.02337C13.7373 4.05898 11.2775 5.71112 6.51212 8.97978C5.81389 9.46697 5.18145 9.70435 4.61481 9.69191C3.99014 9.6782 2.78851 9.33301 1.89523 9.03795C0.799577 8.67605 -0.0712243 8.48471 0.00460293 7.87009C0.0440984 7.54996 0.477948 7.22256 1.30615 6.8879Z" fill="white"/>
</svg>
