<svg width="44" height="45" viewBox="0 0 44 45" fill="none" xmlns="http://www.w3.org/2000/svg">
<g id="connection (6)" clip-path="url(#clip0_2_2857)">
<g id="Group">
<path id="Vector" d="M34.5469 37.5703C33.1072 37.5703 31.8722 38.4603 31.3611 39.7188H28.3594V42.2969H31.3611C31.8722 43.5553 33.1072 44.4453 34.5469 44.4453C36.4423 44.4453 37.9844 42.9032 37.9844 41.0078C37.9844 39.1124 36.4423 37.5703 34.5469 37.5703Z" fill="white"/>
<path id="Vector_2" d="M40.5625 30.2656C39.9975 30.2656 39.4644 30.4035 38.9936 30.6461L35.8018 27.9862C35.5701 27.7932 35.2781 27.6875 34.9766 27.6875H28.3594V30.2656H34.5098L37.3084 32.5978C37.1901 32.9449 37.125 33.3164 37.125 33.7031C37.125 35.5986 38.6671 37.1406 40.5625 37.1406C42.4579 37.1406 44 35.5986 44 33.7031C44 31.8077 42.4579 30.2656 40.5625 30.2656Z" fill="white"/>
<path id="Vector_3" d="M40.5625 19.5234C39.1228 19.5234 37.8878 20.4134 37.3767 21.6719H28.3594V24.25H37.3767C37.8878 25.5085 39.1228 26.3984 40.5625 26.3984C42.4579 26.3984 44 24.8564 44 22.9609C44 21.0655 42.4579 19.5234 40.5625 19.5234Z" fill="white"/>
<path id="Vector_4" d="M35.8018 17.9356L38.9936 15.2757C39.4644 15.5184 39.9975 15.6562 40.5625 15.6562C42.4579 15.6562 44 14.1142 44 12.2188C44 10.3233 42.4579 8.78125 40.5625 8.78125C38.6671 8.78125 37.125 10.3233 37.125 12.2188C37.125 12.6055 37.1901 12.977 37.3084 13.3241L34.5098 15.6562H28.3594V18.2344H34.9766C35.2781 18.2344 35.5701 18.1287 35.8018 17.9356Z" fill="white"/>
<path id="Vector_5" d="M34.5469 8.35156C36.4423 8.35156 37.9844 6.8095 37.9844 4.91406C37.9844 3.01863 36.4423 1.47656 34.5469 1.47656C33.1072 1.47656 31.8722 2.36653 31.3611 3.625H28.3594V6.20312H31.3611C31.8722 7.46159 33.1072 8.35156 34.5469 8.35156Z" fill="white"/>
<path id="Vector_6" d="M12.8906 22.9609C12.8906 27.9365 16.9385 31.9844 21.9141 31.9844C23.2972 31.9844 24.6085 31.6711 25.7812 31.1125V14.8093C24.6085 14.2507 23.2972 13.9375 21.9141 13.9375C16.9385 13.9375 12.8906 17.9854 12.8906 22.9609Z" fill="white"/>
<path id="Vector_7" d="M24.4922 1.04688H19.3359C18.624 1.04688 18.0469 1.62403 18.0469 2.33594V4.01387C15.628 4.50663 13.3132 5.46561 11.2513 6.82909L10.0645 5.64238C9.56106 5.13896 8.74491 5.13896 8.24149 5.64238L4.59551 9.28837C4.09209 9.7917 4.09209 10.6079 4.59551 11.1114L5.78222 12.2982C4.41873 14.3601 3.45976 16.6749 2.96699 19.0938H1.28906C0.577156 19.0938 0 19.6709 0 20.3828V25.5391C0 26.251 0.577156 26.8281 1.28906 26.8281H2.96699C3.45976 29.247 4.41873 31.5618 5.78222 33.6238L4.59542 34.8106C4.35368 35.0523 4.2179 35.3802 4.2179 35.7221C4.2179 36.0639 4.35368 36.3917 4.59542 36.6334L8.24149 40.2795C8.74491 40.7829 9.56106 40.7829 10.0645 40.2795L11.2513 39.0928C13.3132 40.4563 15.628 41.4152 18.0469 41.908V43.5859C18.0469 44.2978 18.624 44.875 19.3359 44.875H24.4922C25.2041 44.875 25.7812 44.2978 25.7812 43.5859V33.8989C24.5711 34.3281 23.2696 34.5625 21.9141 34.5625C15.517 34.5625 10.3125 29.358 10.3125 22.9609C10.3125 16.5638 15.517 11.3594 21.9141 11.3594C23.2696 11.3594 24.5711 11.5938 25.7812 12.023V2.33594C25.7812 1.62403 25.2041 1.04688 24.4922 1.04688Z" fill="white"/>
</g>
</g>
<defs>
<clipPath id="clip0_2_2857">
<rect width="44" height="44" fill="white" transform="translate(0 0.960938)"/>
</clipPath>
</defs>
</svg>
