<svg width="44" height="45" viewBox="0 0 44 45" fill="none" xmlns="http://www.w3.org/2000/svg">
<g id="drawing-compass" clip-path="url(#clip0_2_2868)">
<g id="Group">
<path id="Vector" d="M36.8407 43.176L35.423 39.7832C36.3422 39.656 36.9136 38.693 36.5553 37.8184L32.4509 27.7855H35.2766C35.9885 27.7855 36.5656 27.2083 36.5656 26.4964C36.5656 25.7845 35.9885 25.2074 35.2766 25.2074H31.3962L28.5461 18.2406C27.2021 19.8399 25.2797 20.9373 23.1047 21.2097L24.7648 25.2074H19.3754L21.0037 21.2122C18.8304 20.9467 16.908 19.857 15.5596 18.2655L12.7569 25.2115C12.7299 25.2098 12.7031 25.2074 12.6757 25.2074H8.80855C8.09667 25.2074 7.51952 25.7845 7.51952 26.4964C7.51952 27.2083 8.09667 27.7855 8.80855 27.7855H11.7182L8.3213 36.2037C7.89137 37.2699 8.10921 38.4354 8.78716 39.267L7.15928 43.176C6.88558 43.8332 7.19649 44.5878 7.85373 44.8615C8.01571 44.929 8.18363 44.961 8.34871 44.961C8.85367 44.961 9.33302 44.6623 9.53926 44.1672L11.114 40.3857C11.1236 40.3857 11.1331 40.3863 11.1426 40.3863C12.3439 40.3863 13.4809 39.6696 13.9621 38.4906L18.3248 27.7856H25.8354L29.2594 36.0311C29.8775 37.5436 31.0362 38.6714 32.4209 39.2852L34.4608 44.1672C34.6671 44.6625 35.1463 44.961 35.6514 44.961C35.8164 44.961 35.9844 44.9291 36.1464 44.8616C36.8035 44.5879 37.1144 43.8332 36.8407 43.176Z" fill="white"/>
<path id="Vector_2" d="M25.4911 5.01176V4.41021C25.5297 2.55675 23.8967 0.922773 22.0425 0.961616C20.1408 0.961616 18.5939 2.50931 18.5939 4.41021V5.01176C19.6484 4.54083 20.8154 4.27959 22.0425 4.27959C23.2697 4.27959 24.4367 4.54083 25.4911 5.01176Z" fill="white"/>
<path id="Vector_3" d="M22.0425 18.6979C25.3064 18.6979 27.9626 16.0416 27.9626 12.7778C27.9626 9.51393 25.3064 6.85767 22.0425 6.85767C18.7778 6.85767 16.1224 9.51393 16.1224 12.7778C16.1224 16.0416 18.7778 18.6979 22.0425 18.6979ZM22.0425 11.4896C22.7541 11.4896 23.3316 12.0662 23.3316 12.7786C23.3316 13.4902 22.7541 14.0677 22.0425 14.0677C21.331 14.0677 20.7535 13.4902 20.7535 12.7786C20.7535 12.0662 21.331 11.4896 22.0425 11.4896Z" fill="white"/>
</g>
</g>
<defs>
<clipPath id="clip0_2_2868">
<rect width="44" height="44" fill="white" transform="translate(0 0.960938)"/>
</clipPath>
</defs>
</svg>
