<svg width="44" height="45" viewBox="0 0 44 45" fill="none" xmlns="http://www.w3.org/2000/svg">
<g id="fast-forward (2)">
<path id="XMLID_240_" d="M23.2213 4.50598C22.7274 4.01187 21.9842 3.86436 21.3389 4.13151C20.6935 4.39878 20.2727 5.02865 20.2727 5.72728V18.8301L5.94857 4.50598C5.45468 4.01187 4.71161 3.86424 4.0663 4.13151C3.42076 4.39878 3 5.02865 3 5.72728V40.2727C3 40.9712 3.42076 41.6011 4.0663 41.8684C4.27991 41.957 4.50445 42 4.72693 42C5.17636 42 5.6182 41.8245 5.94857 41.494L20.2727 27.1701V40.2727C20.2727 40.9712 20.6935 41.6011 21.339 41.8684C21.5526 41.957 21.7772 42 21.9997 42C22.4491 42 22.8909 41.8245 23.2213 41.494L40.494 24.2214C40.8181 23.8975 41 23.4582 41 23.0001C41 22.542 40.8181 22.1026 40.494 21.7787L23.2213 4.50598Z" fill="white"/>
</g>
</svg>
