<svg width="16" height="16" viewBox="0 0 16 16" fill="none" xmlns="http://www.w3.org/2000/svg">
<g id="mdi:linkedin" clip-path="url(#clip0_2_2775)">
<path id="Vector" d="M14.2222 0C14.6937 0 15.1459 0.187301 15.4793 0.520699C15.8127 0.854097 16 1.30628 16 1.77778V14.2222C16 14.6937 15.8127 15.1459 15.4793 15.4793C15.1459 15.8127 14.6937 16 14.2222 16H1.77778C1.30628 16 0.854097 15.8127 0.520699 15.4793C0.187301 15.1459 0 14.6937 0 14.2222V1.77778C0 1.30628 0.187301 0.854097 0.520699 0.520699C0.854097 0.187301 1.30628 0 1.77778 0H14.2222ZM13.7778 13.7778V9.06667C13.7778 8.29813 13.4725 7.56107 12.929 7.01763C12.3856 6.47419 11.6485 6.16889 10.88 6.16889C10.1244 6.16889 9.24444 6.63111 8.81778 7.32444V6.33778H6.33778V13.7778H8.81778V9.39556C8.81778 8.71111 9.36889 8.15111 10.0533 8.15111C10.3834 8.15111 10.6999 8.28222 10.9333 8.5156C11.1667 8.74898 11.2978 9.06551 11.2978 9.39556V13.7778H13.7778ZM3.44889 4.94222C3.84495 4.94222 4.22478 4.78489 4.50484 4.50484C4.78489 4.22478 4.94222 3.84495 4.94222 3.44889C4.94222 2.62222 4.27556 1.94667 3.44889 1.94667C3.05047 1.94667 2.66838 2.10494 2.38666 2.38666C2.10494 2.66838 1.94667 3.05047 1.94667 3.44889C1.94667 4.27556 2.62222 4.94222 3.44889 4.94222ZM4.68444 13.7778V6.33778H2.22222V13.7778H4.68444Z" fill="white"/>
</g>
<defs>
<clipPath id="clip0_2_2775">
<rect width="16" height="16" fill="white"/>
</clipPath>
</defs>
</svg>
