<svg width="123" height="21" viewBox="0 0 123 21" fill="none" xmlns="http://www.w3.org/2000/svg">
<g id="nobl9_logo_2023_brand 1" clip-path="url(#clip0_2_2837)">
<path id="Vector" d="M121.082 4.24541C121.672 4.24541 122.149 3.76787 122.149 3.17879C122.149 2.58972 121.672 2.11218 121.082 2.11218C120.493 2.11218 120.016 2.58972 120.016 3.17879C120.016 3.76787 120.493 4.24541 121.082 4.24541Z" fill="white"/>
<path id="Vector_2" d="M113.847 4.87211C114.665 4.87211 115.329 4.20873 115.329 3.3904C115.329 2.57208 114.665 1.90869 113.847 1.90869C113.029 1.90869 112.365 2.57208 112.365 3.3904C112.365 4.20873 113.029 4.87211 113.847 4.87211Z" fill="white"/>
<path id="Vector_3" d="M106.615 5.79311C107.696 5.79311 108.572 4.91681 108.572 3.83583C108.572 2.75485 107.696 1.87854 106.615 1.87854C105.534 1.87854 104.657 2.75485 104.657 3.83583C104.657 4.91681 105.534 5.79311 106.615 5.79311Z" fill="white"/>
<path id="Vector_4" d="M116.236 11.7778C116.825 11.7778 117.303 11.3002 117.303 10.7111C117.303 10.1221 116.825 9.64453 116.236 9.64453C115.647 9.64453 115.169 10.1221 115.169 10.7111C115.169 11.3002 115.647 11.7778 116.236 11.7778Z" fill="white"/>
<path id="Vector_5" d="M108.99 12.1929C109.808 12.1929 110.471 11.5295 110.471 10.7112C110.471 9.89288 109.808 9.22949 108.99 9.22949C108.171 9.22949 107.508 9.89288 107.508 10.7112C107.508 11.5295 108.171 12.1929 108.99 12.1929Z" fill="white"/>
<path id="Vector_6" d="M101.74 12.6685C102.821 12.6685 103.698 11.7922 103.698 10.7112C103.698 9.63021 102.821 8.75391 101.74 8.75391C100.66 8.75391 99.7832 9.63021 99.7832 10.7112C99.7832 11.7922 100.66 12.6685 101.74 12.6685Z" fill="white"/>
<path id="Vector_7" d="M111.368 19.3926C111.957 19.3926 112.434 18.9151 112.434 18.326C112.434 17.7369 111.957 17.2594 111.368 17.2594C110.778 17.2594 110.301 17.7369 110.301 18.326C110.301 18.9151 110.778 19.3926 111.368 19.3926Z" fill="white"/>
<path id="Vector_8" d="M104.105 19.7417C104.923 19.7417 105.586 19.0784 105.586 18.26C105.586 17.4417 104.923 16.7783 104.105 16.7783C103.286 16.7783 102.623 17.4417 102.623 18.26C102.623 19.0784 103.286 19.7417 104.105 19.7417Z" fill="white"/>
<path id="Vector_9" d="M96.8418 19.7442C97.9228 19.7442 98.7991 18.8679 98.7991 17.7869C98.7991 16.7059 97.9228 15.8296 96.8418 15.8296C95.7608 15.8296 94.8845 16.7059 94.8845 17.7869C94.8845 18.8679 95.7608 19.7442 96.8418 19.7442Z" fill="white"/>
<path id="Vector_10" d="M11.2847 19.6673L4.17031 8.11054H4.09609L4.19505 19.6673H0.0523071V1.99402H4.92078L12.0105 13.5261H12.0847L11.9857 1.99402H16.1285V19.6673H11.2847Z" fill="white"/>
<path id="Vector_11" d="M58.5593 14.5239C58.5593 15.4888 58.3669 16.2998 57.9848 16.9568C57.6026 17.6138 57.0941 18.1416 56.4618 18.5429C55.8295 18.9415 55.1093 19.2302 54.3011 19.4034C53.4929 19.5793 52.6654 19.6645 51.816 19.6645H44.7758V1.99121H51.816C52.4978 1.99121 53.196 2.06269 53.9135 2.20289C54.6282 2.34583 55.277 2.585 55.8598 2.92587C56.4426 3.26675 56.9154 3.72858 57.2838 4.31137C57.6494 4.89415 57.8336 5.63364 57.8336 6.53256C57.8336 7.51395 57.5669 8.32491 57.0336 8.96542C56.5003 9.60594 55.8021 10.0678 54.9361 10.3509V10.4004C55.4364 10.4829 55.9065 10.6368 56.3464 10.8622C56.7862 11.0877 57.1711 11.3735 57.4954 11.7227C57.8198 12.0718 58.0782 12.4814 58.2707 12.946C58.4631 13.4133 58.5565 13.9356 58.5565 14.5184L58.5593 14.5239ZM53.7156 7.10985C53.7156 6.51057 53.4874 6.07347 53.0283 5.79857C52.5692 5.52367 51.893 5.38622 50.9941 5.38622H48.8966V9.0314H51.192C51.9919 9.0314 52.6105 8.86921 53.0531 8.54483C53.4929 8.22044 53.7156 7.74212 53.7156 7.10985ZM54.2901 14.1253C54.2901 13.3941 54.0152 12.8855 53.4654 12.6023C52.9156 12.3192 52.1844 12.179 51.269 12.179H48.8966V16.2228H51.2937C51.6263 16.2228 51.9727 16.1953 52.3301 16.1348C52.6874 16.0771 53.0118 15.9726 53.3032 15.8214C53.5946 15.673 53.831 15.4586 54.0152 15.1837C54.1994 14.9088 54.2901 14.5569 54.2901 14.1225V14.1253Z" fill="white"/>
<path id="Vector_12" d="M64.3761 19.6673V1.99402H68.67V15.9479H75.5095V19.6673H64.3761Z" fill="white"/>
<path id="Vector_13" d="M93.2736 7.58825C93.2736 8.65761 93.0867 9.63076 92.7128 10.5049C92.3389 11.3791 91.8551 12.267 91.2613 13.1687L86.9069 19.6674H81.7388L86.2279 13.4491L86.2801 13.3721C86.0932 13.4409 85.8843 13.4904 85.6561 13.5261C85.428 13.5591 85.2108 13.5783 85.0074 13.5783C84.2101 13.5783 83.4542 13.4381 82.7422 13.1577C82.0302 12.8773 81.4034 12.4787 80.8591 11.9592C80.3176 11.4423 79.8832 10.8211 79.5616 10.0981C79.24 9.3751 79.0778 8.57239 79.0778 7.68996C79.0778 6.67008 79.2647 5.75192 79.6386 4.93821C80.0124 4.12176 80.521 3.43451 81.1643 2.87372C81.8075 2.31292 82.5635 1.88408 83.4294 1.58718C84.2954 1.29029 85.2108 1.14185 86.1757 1.14185C87.1406 1.14185 88.0835 1.29029 88.9494 1.58718C89.8154 1.88408 90.5658 2.31292 91.2008 2.87372C91.8359 3.43451 92.3417 4.11352 92.7155 4.91347C93.0894 5.71343 93.2763 6.60411 93.2763 7.58825H93.2736ZM89.0181 7.53602C89.0181 6.7553 88.7652 6.07905 88.2622 5.51001C87.7591 4.94096 87.0718 4.65507 86.2004 4.65507C85.329 4.65507 84.6335 4.92172 84.1139 5.45777C83.5944 5.99383 83.3332 6.69482 83.3332 7.56076C83.3332 8.37721 83.5889 9.05072 84.1002 9.58677C84.6115 10.1228 85.296 10.3895 86.1482 10.3895C87.0004 10.3895 87.6931 10.1256 88.2209 9.60052C88.7487 9.07271 89.0154 8.38546 89.0154 7.53602H89.0181Z" fill="white"/>
<path id="Vector_14" d="M30.4507 1.62012C25.3514 1.62012 21.2169 5.75461 21.2169 10.854C21.2169 15.9534 25.3514 20.0879 30.4507 20.0879C35.5501 20.0879 39.6846 15.9534 39.6846 10.854C39.6846 5.75461 35.5501 1.62012 30.4507 1.62012ZM30.4507 15.9479C27.6358 15.9479 25.3568 13.6662 25.3568 10.854C25.3568 8.04178 27.6385 5.76011 30.4507 5.76011C33.263 5.76011 35.5446 8.04178 35.5446 10.854C35.5446 13.6662 33.263 15.9479 30.4507 15.9479Z" fill="white"/>
</g>
<defs>
<clipPath id="clip0_2_2837">
<rect width="122.222" height="20" fill="white" transform="translate(0 0.960938)"/>
</clipPath>
</defs>
</svg>
