<svg width="76" height="76" viewBox="0 0 76 76" fill="none" xmlns="http://www.w3.org/2000/svg">
<rect width="76" height="76" rx="19" fill="url(#paint0_linear_64_13)"/>
<path d="M47.5562 36.2119C48.5161 36.2207 48.9961 36.2251 49.4448 35.9536C49.7744 35.7541 50.1436 35.2702 50.2462 34.9032C50.3857 34.4036 50.2821 34.0653 50.0747 33.3889C49.9818 33.0857 49.8739 32.7866 49.7511 32.4925C49.2541 31.3024 48.5239 30.2185 47.6021 29.3027C46.6802 28.3869 45.5848 27.6571 44.3784 27.155C44.0803 27.0309 43.7768 26.9214 43.4691 26.8265C42.7824 26.6149 42.4391 26.5091 41.9284 26.64C41.5533 26.7362 41.0558 27.0927 40.8487 27.4138C40.5666 27.8509 40.5653 28.322 40.5626 29.2643L40.5513 33.2602C40.5484 34.271 40.547 34.7764 40.7463 35.1643C40.9216 35.5055 41.2021 35.7842 41.5476 35.9604C41.9404 36.1607 42.4553 36.1654 43.4852 36.1748L47.5562 36.2119Z" stroke="url(#paint1_linear_64_13)" stroke-width="2"/>
<path d="M46.5695 45.1827C47.2359 44.2138 47.7332 43.1496 48.0478 42.0334C48.2476 41.3248 48.3474 40.9705 48.2028 40.4792C48.0948 40.1124 47.7342 39.6437 47.404 39.4411C46.9617 39.1697 46.4757 39.1653 45.5038 39.1564L40.3552 39.1094C39.3254 39.1 38.8105 39.0953 38.4177 38.895C38.0722 38.7188 37.7917 38.4401 37.6163 38.0989C37.417 37.711 37.4184 37.2056 37.4213 36.1948L37.4357 31.1411C37.4384 30.1871 37.4397 29.7102 37.1686 29.2728C36.9661 28.9463 36.493 28.5867 36.1206 28.4763C35.6219 28.3284 35.2597 28.4221 34.5354 28.6096C33.3945 28.9049 32.3043 29.3801 31.3092 30.0225C29.4915 31.1959 28.0726 32.8743 27.2319 34.8454C26.3913 36.8166 26.1666 38.992 26.5863 41.0965C27.0061 43.2011 28.0514 45.1403 29.59 46.6688C31.1287 48.1974 33.0916 49.2467 35.2306 49.6841C37.3695 50.1215 39.5885 49.9272 41.6068 49.126C43.6251 48.3248 45.3521 46.9525 46.5695 45.1827Z" stroke="url(#paint2_linear_64_13)" stroke-width="2"/>
<defs>
<linearGradient id="paint0_linear_64_13" x1="12.4082" y1="6.20408" x2="63.5918" y2="66.6939" gradientUnits="userSpaceOnUse">
<stop stop-color="#C2C2C2" stop-opacity="0.5"/>
<stop offset="1" stop-color="#8C8C8C" stop-opacity="0.5"/>
</linearGradient>
<linearGradient id="paint1_linear_64_13" x1="35.2807" y1="28.4787" x2="41.5266" y2="53.2469" gradientUnits="userSpaceOnUse">
<stop stop-color="white"/>
<stop offset="1" stop-color="#E5E0E8"/>
</linearGradient>
<linearGradient id="paint2_linear_64_13" x1="35.2807" y1="28.4787" x2="41.5266" y2="53.2469" gradientUnits="userSpaceOnUse">
<stop stop-color="white"/>
<stop offset="1" stop-color="#E5E0E8"/>
</linearGradient>
</defs>
</svg>
