<svg width="22" height="32" viewBox="0 0 22 32" fill="none" xmlns="http://www.w3.org/2000/svg">
<path d="M7.10046 20.8008L3.09897 21.0628L1.33057 24.5476L3.56882 27.7705L7.57031 27.5097L9.33872 24.0236L7.10046 20.8008ZM7.42445 25.6593C7.24245 25.9987 6.71451 25.6993 6.89522 25.3599C7.12886 24.922 7.32119 24.464 7.52513 24.0111C7.11724 23.4721 6.78938 22.8882 6.39955 22.3317C6.17624 22.016 6.70806 21.7191 6.92878 22.0323C7.3341 22.6087 7.6568 23.2413 8.106 23.7878C8.14804 23.8377 8.17278 23.8992 8.17672 23.9634C8.18066 24.0277 8.16359 24.0915 8.12794 24.1459C7.8956 24.6524 7.68648 25.1677 7.42445 25.6593Z" fill="#9E2A75"/>
<path d="M13.5226 16.5088L9.52115 16.7708L7.75146 20.2556L9.98972 23.4785L13.9912 23.2165L15.7596 19.7316L13.5226 16.5088ZM13.8453 21.3674C13.6646 21.7067 13.1354 21.406 13.3161 21.0679C13.551 20.6287 13.7434 20.1721 13.9473 19.7191C13.5381 19.1801 13.2103 18.5962 12.8204 18.0397C12.5984 17.7228 13.1289 17.4271 13.3497 17.7403C13.7563 18.3167 14.0777 18.9481 14.5282 19.4958C14.5698 19.5457 14.5942 19.6069 14.5981 19.6708C14.6021 19.7348 14.5853 19.7983 14.5501 19.8526C14.3165 20.3592 14.1087 20.8758 13.8453 21.3674Z" fill="#399BD6"/>
<path d="M12.9379 8.97705L8.93637 9.23907L7.16797 12.7239L9.39977 15.9492L13.4013 15.6872L15.1761 12.2061L12.9379 8.97705ZM13.2606 13.8356C13.0799 14.175 12.5506 13.8743 12.7313 13.5362C12.9663 13.097 13.1586 12.6403 13.3625 12.1874C12.9534 11.6484 12.6255 11.0645 12.2357 10.508C12.0137 10.1911 12.5442 9.89536 12.7649 10.2085C13.1715 10.785 13.4929 11.4163 13.9434 11.9641C13.985 12.014 14.0094 12.0751 14.0134 12.1391C14.0173 12.203 14.0005 12.2666 13.9654 12.3209C13.733 12.83 13.5239 13.3428 13.2606 13.8356Z" fill="#9E2A75"/>
<path d="M19.4161 4.7627L15.4146 5.02471L13.6372 8.50956L15.8742 11.7324L19.8757 11.4716L21.6454 7.98677L19.4161 4.7627ZM19.7388 9.62126C19.5581 9.96064 19.0302 9.66119 19.2096 9.32306C19.4445 8.88387 19.6369 8.42596 19.8408 7.97304C19.4316 7.43403 19.1038 6.85011 18.7152 6.29363C18.4919 5.97796 19.0224 5.68101 19.2445 5.99418C19.6498 6.57062 19.9725 7.20321 20.4217 7.7497C20.4637 7.79963 20.4885 7.86107 20.4924 7.92533C20.4963 7.98959 20.4793 8.05342 20.4436 8.1078C20.2113 8.61436 20.0022 9.12967 19.7388 9.62126Z" fill="#399BD6"/>
<path d="M10.0854 7.00126C10.8176 7.00126 11.4111 6.42756 11.4111 5.71987C11.4111 5.01218 10.8176 4.43848 10.0854 4.43848C9.35328 4.43848 8.75977 5.01218 8.75977 5.71987C8.75977 6.42756 9.35328 7.00126 10.0854 7.00126Z" fill="#9E2A75"/>
<path d="M1.32565 31.9578C2.05779 31.9578 2.65131 31.3841 2.65131 30.6764C2.65131 29.9687 2.05779 29.395 1.32565 29.395C0.593514 29.395 0 29.9687 0 30.6764C0 31.3841 0.593514 31.9578 1.32565 31.9578Z" fill="#9E2A75"/>
<path d="M10.4578 6.23732L10.1157 6.42822L12.1829 9.88921L12.525 9.69831L10.4578 6.23732Z" fill="#9E2A75"/>
<path d="M19.749 1.66421L19.3755 1.54004L17.8952 5.70026L18.2687 5.82444L19.749 1.66421Z" fill="#399BD6"/>
<path d="M3.46155 26.904L3.10693 26.7358L1.10247 30.6856L1.45708 30.8538L3.46155 26.904Z" fill="#9E2A75"/>
<path d="M19.5766 2.56279C20.3088 2.56279 20.9023 1.98909 20.9023 1.28139C20.9023 0.573699 20.3088 0 19.5766 0C18.8445 0 18.251 0.573699 18.251 1.28139C18.251 1.98909 18.8445 2.56279 19.5766 2.56279Z" fill="#399BD6"/>
</svg>
